<?xml version="1.0" encoding="UTF-8"?>
<svg xmlns="http://www.w3.org/2000/svg" xmlns:xlink="http://www.w3.org/1999/xlink" width="50pt" height="50pt" viewBox="0 0 50 50" version="1.1">
<defs>
<filter id="alpha" filterUnits="objectBoundingBox" x="0%" y="0%" width="100%" height="100%">
  <feColorMatrix type="matrix" in="SourceGraphic" values="0 0 0 0 1 0 0 0 0 1 0 0 0 0 1 0 0 0 1 0"/>
</filter>
<mask id="mask0">
  <g filter="url(#alpha)">
<rect x="0" y="0" width="50" height="50" style="fill:rgb(0%,0%,0%);fill-opacity:0.988235;stroke:none;"/>
  </g>
</mask>
<clipPath id="clip1">
  <rect width="50" height="50"/>
</clipPath>
<g id="surface6" clip-path="url(#clip1)">
<path style=" stroke:none;fill-rule:evenodd;fill:rgb(0.392157%,0.392157%,0.392157%);fill-opacity:1;" d="M 28.285156 0.648438 C 28.511719 0.640625 28.734375 0.648438 28.957031 0.671875 C 29.722656 1.042969 30.519531 1.300781 31.359375 1.441406 C 32.683594 1.539062 34.011719 1.621094 35.339844 1.679688 C 35.585938 1.8125 35.785156 1.996094 35.941406 2.230469 C 35.972656 2.375 35.972656 2.519531 35.941406 2.664062 C 35.726562 3.53125 35.566406 4.414062 35.460938 5.300781 C 35.089844 10.957031 34.175781 16.523438 32.726562 22 C 32.453125 23.191406 32.230469 24.390625 32.054688 25.601562 C 32.015625 26.464844 31.953125 27.328125 31.863281 28.191406 C 31.761719 29.027344 31.351562 29.660156 30.636719 30.085938 C 29.730469 30.5 28.914062 31.042969 28.191406 31.71875 C 27.792969 32 27.351562 32.121094 26.871094 32.078125 C 26.710938 32.210938 26.527344 32.296875 26.320312 32.339844 C 25.03125 32.308594 23.765625 32.46875 22.527344 32.820312 C 22.183594 32.910156 21.921875 32.804688 21.738281 32.507812 C 21.558594 32.101562 21.398438 31.683594 21.257812 31.261719 C 20.585938 28.765625 19.914062 26.273438 19.242188 23.777344 C 18.886719 22.3125 18.566406 20.839844 18.28125 19.363281 C 18.011719 17.710938 17.722656 16.0625 17.417969 14.417969 C 17.050781 12.917969 16.699219 11.417969 16.363281 9.910156 C 16.25 9.242188 16.1875 8.570312 16.171875 7.894531 C 16.074219 7.734375 15.980469 7.574219 15.882812 7.414062 C 15.765625 7.097656 15.8125 6.8125 16.027344 6.550781 C 16.375 6.148438 16.816406 5.902344 17.347656 5.804688 C 17.953125 5.710938 18.53125 5.519531 19.074219 5.230469 C 22.035156 3.484375 25.109375 1.957031 28.285156 0.648438 Z M 28.285156 0.648438 "/>
</g>
<mask id="mask1">
  <g filter="url(#alpha)">
<rect x="0" y="0" width="50" height="50" style="fill:rgb(0%,0%,0%);fill-opacity:0.976471;stroke:none;"/>
  </g>
</mask>
<clipPath id="clip2">
  <rect width="50" height="50"/>
</clipPath>
<g id="surface9" clip-path="url(#clip2)">
<path style=" stroke:none;fill-rule:evenodd;fill:rgb(0.392157%,0.392157%,0.392157%);fill-opacity:1;" d="M 28.191406 36.253906 C 28.714844 36.214844 29.226562 36.269531 29.726562 36.421875 C 30.246094 36.6875 30.742188 36.992188 31.214844 37.332031 C 31.652344 37.496094 32.070312 37.703125 32.460938 37.957031 C 32.664062 38.128906 32.832031 38.328125 32.964844 38.554688 C 33.304688 39.183594 33.574219 39.839844 33.78125 40.523438 C 34.070312 41.929688 33.894531 43.273438 33.253906 44.554688 C 33.0625 44.855469 32.855469 45.144531 32.628906 45.417969 C 31.542969 46.535156 30.398438 47.582031 29.199219 48.558594 C 26.683594 49.984375 24.15625 50 21.617188 48.609375 C 19.433594 47.414062 18.519531 45.582031 18.882812 43.113281 C 18.84375 42.417969 18.996094 41.761719 19.335938 41.148438 C 19.984375 40.070312 20.839844 39.199219 21.90625 38.53125 C 22.96875 37.984375 24.054688 37.488281 25.167969 37.042969 C 26.15625 36.683594 27.164062 36.421875 28.191406 36.253906 Z M 23.777344 39.179688 C 22.875 39.632812 22.011719 40.144531 21.183594 40.714844 C 21.867188 39.90625 22.730469 39.394531 23.777344 39.179688 Z M 23.777344 39.179688 "/>
</g>
</defs>
<g id="surface1">
<use xlink:href="#surface6" mask="url(#mask0)"/>
<path style=" stroke:none;fill-rule:evenodd;fill:rgb(65.882353%,22.745098%,17.647059%);fill-opacity:1;" d="M 27.855469 1.800781 C 28.160156 1.785156 28.464844 1.8125 28.765625 1.871094 C 29.480469 2.179688 30.21875 2.417969 30.972656 2.589844 C 31.535156 2.652344 32.09375 2.714844 32.652344 2.78125 C 31.933594 3.144531 31.230469 3.527344 30.542969 3.933594 C 29.75 4.304688 28.949219 4.65625 28.144531 4.992188 C 27.832031 5.152344 27.527344 5.332031 27.230469 5.519531 C 25.910156 5.527344 24.59375 5.519531 23.273438 5.496094 C 22.046875 5.5 20.824219 5.523438 19.601562 5.566406 C 22.269531 4.113281 25.019531 2.855469 27.855469 1.800781 Z M 27.855469 1.800781 "/>
<path style=" stroke:none;fill-rule:evenodd;fill:rgb(62.745098%,56.862745%,58.823529%);fill-opacity:1;" d="M 34.859375 3.238281 C 34.890625 3.257812 34.90625 3.289062 34.910156 3.335938 C 34.683594 4.136719 34.515625 4.953125 34.40625 5.78125 C 34.019531 9.753906 33.394531 13.691406 32.535156 17.585938 C 31.964844 19.703125 31.4375 21.832031 30.949219 23.96875 C 30.757812 24.839844 30.648438 25.71875 30.613281 26.609375 C 30.589844 27.300781 30.429688 27.953125 30.132812 28.574219 C 30.046875 28.707031 29.945312 28.828125 29.824219 28.933594 C 29.285156 29.273438 28.722656 29.578125 28.144531 29.847656 C 27.847656 30.109375 27.550781 30.375 27.253906 30.636719 C 27.234375 29.804688 27.195312 28.972656 27.136719 28.144531 C 27.175781 27.28125 27.21875 26.414062 27.253906 25.550781 C 27.605469 21.523438 27.925781 17.492188 28.214844 13.460938 C 28.285156 12.050781 28.351562 10.644531 28.40625 9.238281 C 28.503906 8.582031 28.59375 7.925781 28.671875 7.269531 C 28.691406 6.902344 28.613281 6.558594 28.429688 6.238281 C 28.773438 5.996094 29.140625 5.785156 29.535156 5.613281 C 30.699219 5.167969 31.835938 4.65625 32.941406 4.078125 C 33.386719 3.894531 33.832031 3.71875 34.285156 3.550781 C 34.488281 3.457031 34.679688 3.351562 34.859375 3.238281 Z M 34.859375 3.238281 "/>
<path style=" stroke:none;fill-rule:evenodd;fill:rgb(99.607843%,99.607843%,99.607843%);fill-opacity:1;" d="M 24.449219 6.695312 C 25.042969 6.679688 25.632812 6.703125 26.222656 6.765625 C 26.257812 7.007812 26.386719 7.183594 26.609375 7.292969 C 26.855469 7.320312 27.09375 7.304688 27.328125 7.246094 C 27.398438 7.371094 27.433594 7.503906 27.421875 7.652344 C 27.328125 8.148438 27.238281 8.644531 27.160156 9.140625 C 27.097656 11.476562 27.019531 13.8125 26.917969 16.148438 C 26.578125 19.488281 26.257812 22.832031 25.960938 26.175781 C 25.820312 27.722656 25.769531 29.277344 25.816406 30.832031 C 25.886719 30.917969 25.894531 31.003906 25.839844 31.09375 C 25.070312 31.195312 24.300781 31.167969 23.535156 31.023438 C 23.246094 31.0625 22.972656 31.15625 22.722656 31.308594 C 22.691406 31.300781 22.667969 31.285156 22.648438 31.261719 C 22.449219 30.445312 22.257812 29.628906 22.074219 28.816406 C 21.25 26.511719 20.546875 24.179688 19.960938 21.808594 C 19.25 18.492188 18.511719 15.179688 17.753906 11.875 C 17.5 10.621094 17.253906 9.367188 17.011719 8.109375 C 17.097656 8.003906 17.199219 7.917969 17.324219 7.84375 C 17.359375 7.757812 17.40625 7.675781 17.464844 7.605469 C 17.476562 7.453125 17.488281 7.308594 17.492188 7.171875 C 17.777344 7.226562 18.0625 7.234375 18.355469 7.199219 C 18.945312 7.074219 19.535156 6.960938 20.128906 6.863281 C 21.074219 6.847656 22.015625 6.828125 22.960938 6.8125 C 23.464844 6.789062 23.960938 6.746094 24.449219 6.695312 Z M 24.449219 6.695312 "/>
<use xlink:href="#surface9" mask="url(#mask1)"/>
<path style=" stroke:none;fill-rule:evenodd;fill:rgb(62.352941%,56.470588%,58.431373%);fill-opacity:1;" d="M 24.449219 37.980469 C 24.449219 37.964844 24.449219 37.949219 24.449219 37.933594 C 25.792969 37.441406 27.175781 37.105469 28.597656 36.925781 C 28.886719 36.929688 29.167969 36.988281 29.4375 37.09375 C 29.914062 37.394531 30.378906 37.714844 30.832031 38.050781 C 31.273438 38.183594 31.683594 38.382812 32.054688 38.652344 C 33.148438 40.242188 33.339844 41.9375 32.628906 43.738281 C 32.363281 44.238281 32.027344 44.683594 31.621094 45.082031 C 31.976562 43.1875 31.472656 41.5625 30.109375 40.210938 C 28.488281 38.824219 26.601562 38.082031 24.449219 37.980469 Z M 24.449219 37.980469 "/>
<path style=" stroke:none;fill-rule:evenodd;fill:rgb(99.607843%,99.607843%,99.607843%);fill-opacity:1;" d="M 21.042969 40.859375 C 21.074219 40.859375 21.089844 40.84375 21.089844 40.8125 C 21.121094 40.8125 21.136719 40.796875 21.136719 40.761719 C 21.167969 40.761719 21.183594 40.746094 21.183594 40.714844 C 22.011719 40.144531 22.875 39.632812 23.777344 39.179688 C 25.773438 39.0625 27.566406 39.613281 29.152344 40.835938 C 30.648438 42.1875 31.039062 43.8125 30.328125 45.707031 C 29.613281 47.152344 28.46875 48.074219 26.894531 48.464844 C 24.683594 48.917969 22.699219 48.4375 20.945312 47.023438 C 20.074219 46.214844 19.609375 45.214844 19.554688 44.027344 C 19.480469 43.652344 19.582031 43.347656 19.867188 43.113281 C 20.058594 42.25 20.449219 41.496094 21.042969 40.859375 Z M 21.042969 40.859375 "/>
</g>
</svg>
