<?xml version="1.0" encoding="UTF-8"?>
<svg xmlns="http://www.w3.org/2000/svg" xmlns:xlink="http://www.w3.org/1999/xlink" width="50pt" height="50pt" viewBox="0 0 50 50" version="1.1">
<defs>
<filter id="alpha" filterUnits="objectBoundingBox" x="0%" y="0%" width="100%" height="100%">
  <feColorMatrix type="matrix" in="SourceGraphic" values="0 0 0 0 1 0 0 0 0 1 0 0 0 0 1 0 0 0 1 0"/>
</filter>
<mask id="mask0">
  <g filter="url(#alpha)">
<rect x="0" y="0" width="50" height="50" style="fill:rgb(0%,0%,0%);fill-opacity:0.988235;stroke:none;"/>
  </g>
</mask>
<clipPath id="clip1">
  <rect width="50" height="50"/>
</clipPath>
<g id="surface6" clip-path="url(#clip1)">
<path style=" stroke:none;fill-rule:evenodd;fill:rgb(1.568627%,1.568627%,1.960784%);fill-opacity:1;" d="M 35.464844 2.363281 C 35.519531 2.378906 35.566406 2.402344 35.609375 2.4375 C 36.035156 2.453125 36.457031 2.472656 36.882812 2.496094 C 37.910156 2.605469 38.671875 3.105469 39.175781 3.996094 C 39.738281 5.078125 40.109375 6.222656 40.277344 7.429688 C 40.359375 8.003906 40.417969 8.578125 40.457031 9.15625 C 41.324219 9.226562 42.1875 9.320312 43.050781 9.433594 C 43.785156 9.546875 44.492188 9.765625 45.164062 10.082031 C 45.449219 10.230469 45.660156 10.453125 45.800781 10.742188 C 45.898438 11.15625 45.78125 11.496094 45.453125 11.761719 C 45.039062 12.035156 44.582031 12.15625 44.082031 12.121094 C 43.085938 12.179688 42.09375 12.125 41.105469 11.953125 C 40.90625 11.933594 40.707031 11.921875 40.507812 11.917969 C 40.671875 14.0625 40.496094 16.179688 39.976562 18.265625 C 40.199219 18.316406 40.425781 18.347656 40.652344 18.363281 C 41.300781 18.390625 41.949219 18.4375 42.59375 18.507812 C 43.203125 18.578125 43.761719 18.777344 44.273438 19.105469 C 44.683594 19.386719 44.882812 19.777344 44.863281 20.269531 C 44.765625 20.65625 44.527344 20.925781 44.15625 21.074219 C 44 21.136719 43.839844 21.175781 43.675781 21.195312 C 42.984375 21.210938 42.296875 21.183594 41.609375 21.125 C 40.78125 21.019531 39.949219 20.9375 39.113281 20.871094 C 38.710938 21.851562 38.195312 22.765625 37.566406 23.609375 C 37.113281 24.207031 36.640625 24.789062 36.148438 25.359375 C 35.609375 25.957031 34.980469 26.433594 34.265625 26.789062 C 33.699219 27.046875 33.105469 27.140625 32.488281 27.078125 C 32.121094 27.003906 31.78125 26.867188 31.46875 26.65625 C 31.382812 26.730469 31.285156 26.769531 31.167969 26.777344 C 29.671875 26.390625 28.265625 25.804688 26.945312 25.011719 C 25.4375 24.035156 23.957031 23.015625 22.503906 21.964844 C 21.847656 21.46875 21.234375 20.917969 20.667969 20.320312 C 19.808594 19.351562 19.367188 18.214844 19.347656 16.910156 C 19.335938 15.035156 19.417969 13.160156 19.597656 11.292969 C 19.589844 11.277344 19.582031 11.261719 19.574219 11.246094 C 19.378906 11.324219 19.179688 11.394531 18.976562 11.449219 C 17.96875 11.679688 16.96875 11.925781 15.972656 12.195312 C 14.308594 12.617188 12.761719 13.304688 11.34375 14.257812 C 8.875 15.902344 6.851562 17.976562 5.28125 20.488281 C 4.9375 21.050781 4.601562 21.621094 4.273438 22.191406 C 3.652344 23.347656 3.382812 24.585938 3.46875 25.898438 C 3.457031 27.382812 3.585938 28.851562 3.863281 30.304688 C 4.324219 32.449219 5.457031 34.136719 7.261719 35.359375 C 7.699219 35.632812 8.164062 35.855469 8.652344 36.03125 C 9.640625 36.296875 10.625 36.578125 11.605469 36.871094 C 13.351562 37.503906 15.007812 38.3125 16.574219 39.292969 C 17.488281 39.886719 18.316406 40.585938 19.058594 41.394531 C 19.679688 42.09375 20.128906 42.894531 20.402344 43.796875 C 20.527344 44.242188 20.582031 44.699219 20.570312 45.164062 C 20.476562 45.730469 20.144531 46.070312 19.574219 46.183594 C 19.015625 46.28125 18.5625 46.109375 18.21875 45.667969 C 18.1875 45.601562 18.15625 45.539062 18.121094 45.476562 C 17.960938 44.792969 17.710938 44.144531 17.378906 43.53125 C 17.15625 43.183594 16.902344 42.863281 16.609375 42.570312 C 15.582031 41.570312 14.425781 40.75 13.140625 40.109375 C 12.261719 39.648438 11.351562 39.261719 10.40625 38.957031 C 9.574219 38.730469 8.75 38.480469 7.933594 38.214844 C 5.460938 37.253906 3.679688 35.558594 2.59375 33.136719 C 2.054688 31.894531 1.726562 30.597656 1.609375 29.25 C 1.441406 27.730469 1.433594 26.207031 1.585938 24.6875 C 1.6875 23.535156 2.007812 22.445312 2.542969 21.421875 C 3.558594 19.609375 4.757812 17.929688 6.144531 16.382812 C 7.914062 14.484375 9.964844 12.976562 12.300781 11.859375 C 14.65625 10.792969 17.125 10.246094 19.707031 10.214844 C 19.921875 8.433594 20.34375 6.703125 20.980469 5.027344 C 21.214844 4.40625 21.597656 3.890625 22.121094 3.480469 C 22.703125 3.128906 23.335938 2.921875 24.015625 2.855469 C 25.457031 2.769531 26.898438 2.664062 28.335938 2.542969 C 29.753906 2.460938 31.167969 2.46875 32.585938 2.570312 C 33.316406 2.597656 34.042969 2.574219 34.769531 2.496094 C 35.007812 2.464844 35.238281 2.421875 35.464844 2.363281 Z M 32.199219 3.203125 C 31.171875 3.257812 30.140625 3.296875 29.105469 3.324219 C 30.128906 3.230469 31.164062 3.1875 32.199219 3.203125 Z M 39.59375 15.277344 C 39.546875 16.238281 39.398438 17.183594 39.148438 18.109375 C 39.105469 18.09375 39.0625 18.078125 39.019531 18.0625 C 39.21875 17.132812 39.414062 16.207031 39.59375 15.277344 Z M 34.578125 25.648438 C 34.089844 26.015625 33.535156 26.222656 32.921875 26.273438 C 32.800781 26.253906 32.679688 26.238281 32.5625 26.222656 C 33.253906 26.105469 33.925781 25.914062 34.578125 25.648438 Z M 34.578125 25.648438 "/>
</g>
<mask id="mask1">
  <g filter="url(#alpha)">
<rect x="0" y="0" width="50" height="50" style="fill:rgb(0%,0%,0%);fill-opacity:0.988235;stroke:none;"/>
  </g>
</mask>
<clipPath id="clip2">
  <rect width="50" height="50"/>
</clipPath>
<g id="surface9" clip-path="url(#clip2)">
<path style=" stroke:none;fill-rule:evenodd;fill:rgb(98.823529%,98.823529%,98.823529%);fill-opacity:1;" d="M 39.019531 11.726562 C 39.230469 11.777344 39.449219 11.816406 39.667969 11.847656 C 39.671875 12.804688 39.667969 13.765625 39.65625 14.726562 C 39.640625 14.871094 39.628906 15.015625 39.617188 15.160156 C 39.59375 15.191406 39.585938 15.234375 39.59375 15.277344 C 39.414062 16.207031 39.21875 17.132812 39.019531 18.0625 C 39.011719 18.078125 39 18.085938 38.980469 18.085938 C 38.886719 18.066406 38.792969 18.042969 38.707031 18.015625 C 39.078125 15.953125 39.164062 13.882812 38.96875 11.796875 C 38.972656 11.761719 38.988281 11.738281 39.019531 11.726562 Z M 39.019531 11.726562 "/>
</g>
</defs>
<g id="surface1">
<use xlink:href="#surface6" mask="url(#mask0)"/>
<path style=" stroke:none;fill-rule:evenodd;fill:rgb(99.607843%,99.607843%,99.607843%);fill-opacity:1;" d="M 32.199219 3.203125 C 32.328125 3.203125 32.457031 3.203125 32.585938 3.203125 C 31.582031 3.847656 30.785156 4.6875 30.195312 5.726562 C 30.164062 5.875 30.191406 6.011719 30.28125 6.132812 C 30.019531 6.683594 29.808594 7.25 29.644531 7.835938 C 28.949219 10.761719 28.492188 13.71875 28.277344 16.71875 C 27.996094 19.910156 28.699219 22.851562 30.390625 25.550781 C 29.425781 25.242188 28.507812 24.828125 27.640625 24.316406 C 26.820312 23.765625 26.011719 23.199219 25.214844 22.613281 C 24.640625 22.226562 24.0625 21.84375 23.488281 21.460938 C 22.691406 20.917969 21.96875 20.292969 21.316406 19.574219 C 20.652344 18.75 20.308594 17.808594 20.285156 16.742188 C 20.234375 14.378906 20.367188 12.027344 20.691406 9.6875 C 20.925781 8.289062 21.261719 6.921875 21.699219 5.582031 C 21.886719 5.058594 22.1875 4.613281 22.601562 4.25 C 22.925781 4.023438 23.289062 3.871094 23.679688 3.792969 C 24.464844 3.644531 25.257812 3.570312 26.054688 3.578125 C 27.027344 3.484375 27.996094 3.402344 28.960938 3.324219 C 29.007812 3.324219 29.058594 3.324219 29.105469 3.324219 C 30.140625 3.296875 31.171875 3.257812 32.199219 3.203125 Z M 32.199219 3.203125 "/>
<path style=" stroke:none;fill-rule:evenodd;fill:rgb(99.607843%,99.607843%,99.607843%);fill-opacity:1;" d="M 39.546875 8.773438 C 39.558594 8.859375 39.542969 8.929688 39.5 8.988281 C 39.15625 8.914062 38.8125 8.867188 38.464844 8.84375 C 38.3125 8.449219 38.164062 8.050781 38.023438 7.644531 C 37.714844 6.847656 37.261719 6.148438 36.664062 5.542969 C 35.769531 4.820312 34.882812 4.828125 34 5.570312 C 33.53125 6.011719 33.152344 6.519531 32.859375 7.09375 C 32.277344 8.292969 31.871094 9.550781 31.636719 10.863281 C 31.140625 13.628906 31.179688 16.390625 31.757812 19.144531 C 31.996094 20.257812 32.402344 21.308594 32.980469 22.289062 C 33.28125 22.78125 33.675781 23.175781 34.167969 23.476562 C 34.824219 23.78125 35.453125 23.738281 36.066406 23.355469 C 36.640625 22.925781 37.089844 22.394531 37.421875 21.757812 C 37.574219 21.46875 37.714844 21.171875 37.84375 20.871094 C 37.980469 20.863281 38.113281 20.871094 38.25 20.894531 C 38.105469 21.214844 37.949219 21.527344 37.78125 21.832031 C 37.1875 22.824219 36.515625 23.757812 35.765625 24.640625 C 35.417969 25.03125 35.03125 25.367188 34.601562 25.648438 C 34.59375 25.648438 34.585938 25.648438 34.578125 25.648438 C 33.925781 25.914062 33.253906 26.105469 32.5625 26.222656 C 32.308594 26.1875 32.078125 26.09375 31.863281 25.949219 C 31.460938 25.625 31.121094 25.242188 30.84375 24.808594 C 29.8125 23.003906 29.191406 21.070312 28.972656 19 C 28.90625 17.234375 28.976562 15.472656 29.1875 13.71875 C 29.371094 11.9375 29.640625 10.167969 30.003906 8.414062 C 30.164062 7.675781 30.390625 6.964844 30.6875 6.277344 C 30.796875 6.226562 30.890625 6.15625 30.964844 6.0625 C 31.355469 5.539062 31.785156 5.046875 32.25 4.585938 C 32.691406 4.230469 33.15625 3.902344 33.640625 3.601562 C 33.832031 3.515625 34.03125 3.460938 34.242188 3.433594 C 34.648438 3.40625 35.058594 3.375 35.464844 3.335938 C 35.996094 3.304688 36.523438 3.328125 37.050781 3.410156 C 37.648438 3.566406 38.109375 3.90625 38.429688 4.429688 C 38.832031 5.175781 39.113281 5.96875 39.269531 6.804688 C 39.394531 7.457031 39.488281 8.113281 39.546875 8.773438 Z M 39.546875 8.773438 "/>
<path style=" stroke:none;fill-rule:evenodd;fill:rgb(94.509804%,92.941176%,90.196078%);fill-opacity:1;" d="M 38.464844 8.84375 C 38.113281 8.851562 37.761719 8.839844 37.410156 8.808594 C 36.753906 8.714844 36.097656 8.628906 35.441406 8.546875 C 35.210938 8.53125 34.976562 8.53125 34.746094 8.546875 C 34.570312 8.652344 34.507812 8.808594 34.566406 9.011719 C 34.585938 9.054688 34.605469 9.09375 34.625 9.132812 C 34.332031 9.246094 34.09375 9.429688 33.917969 9.6875 C 33.683594 10.15625 33.769531 10.558594 34.167969 10.898438 C 34.523438 11.140625 34.914062 11.265625 35.34375 11.269531 C 35.699219 11.234375 36.050781 11.191406 36.402344 11.136719 C 36.765625 11.125 37.125 11.167969 37.480469 11.257812 C 37.996094 11.421875 38.507812 11.578125 39.019531 11.726562 C 38.988281 11.738281 38.972656 11.761719 38.96875 11.796875 C 39.164062 13.882812 39.078125 15.953125 38.707031 18.015625 C 38.105469 17.953125 37.507812 17.886719 36.90625 17.8125 C 36.34375 17.710938 35.785156 17.605469 35.226562 17.5 C 34.875 17.445312 34.523438 17.421875 34.167969 17.425781 C 33.957031 17.554688 33.898438 17.734375 33.988281 17.96875 C 34.019531 18.039062 34.070312 18.09375 34.132812 18.136719 C 34.148438 18.152344 34.148438 18.167969 34.132812 18.183594 C 33.75 18.40625 33.429688 18.703125 33.171875 19.070312 C 32.847656 19.613281 32.914062 20.097656 33.378906 20.523438 C 33.617188 20.71875 33.878906 20.871094 34.167969 20.980469 C 34.3125 21.015625 34.457031 21.023438 34.601562 21.003906 C 34.890625 20.921875 35.179688 20.832031 35.464844 20.738281 C 35.574219 20.734375 35.683594 20.730469 35.789062 20.726562 C 36.21875 20.753906 36.648438 20.796875 37.074219 20.859375 C 37.328125 20.871094 37.585938 20.875 37.84375 20.871094 C 37.714844 21.171875 37.574219 21.46875 37.421875 21.757812 C 37.089844 22.394531 36.640625 22.925781 36.066406 23.355469 C 35.453125 23.738281 34.824219 23.78125 34.167969 23.476562 C 33.675781 23.175781 33.28125 22.78125 32.980469 22.289062 C 32.402344 21.308594 31.996094 20.257812 31.757812 19.144531 C 31.179688 16.390625 31.140625 13.628906 31.636719 10.863281 C 31.871094 9.550781 32.277344 8.292969 32.859375 7.09375 C 33.152344 6.519531 33.53125 6.011719 34 5.570312 C 34.882812 4.828125 35.769531 4.820312 36.664062 5.542969 C 37.261719 6.148438 37.714844 6.847656 38.023438 7.644531 C 38.164062 8.050781 38.3125 8.449219 38.464844 8.84375 Z M 38.464844 8.84375 "/>
<path style=" stroke:none;fill-rule:evenodd;fill:rgb(60.784314%,60.784314%,60.784314%);fill-opacity:1;" d="M 39.546875 8.773438 C 39.570312 8.847656 39.578125 8.929688 39.570312 9.011719 C 39.539062 9.019531 39.515625 9.011719 39.5 8.988281 C 39.542969 8.929688 39.558594 8.859375 39.546875 8.773438 Z M 39.546875 8.773438 "/>
<path style=" stroke:none;fill-rule:evenodd;fill:rgb(99.215686%,99.215686%,99.215686%);fill-opacity:1;" d="M 35.082031 9.253906 C 35.21875 9.25 35.355469 9.253906 35.488281 9.265625 C 36.089844 9.34375 36.691406 9.421875 37.289062 9.503906 C 37.808594 9.511719 38.328125 9.523438 38.851562 9.53125 C 39.300781 9.601562 39.75 9.679688 40.195312 9.769531 C 41.101562 9.8125 42.003906 9.882812 42.90625 9.984375 C 43.601562 10.105469 44.265625 10.320312 44.898438 10.632812 C 45.242188 10.824219 45.273438 11.054688 44.996094 11.328125 C 44.851562 11.402344 44.699219 11.453125 44.539062 11.472656 C 43.675781 11.472656 42.8125 11.464844 41.945312 11.449219 C 41.300781 11.355469 40.652344 11.316406 40.003906 11.328125 C 39.585938 11.285156 39.179688 11.203125 38.777344 11.089844 C 38.199219 10.898438 37.605469 10.757812 37 10.667969 C 36.722656 10.644531 36.441406 10.640625 36.160156 10.65625 C 35.773438 10.738281 35.382812 10.769531 34.984375 10.753906 C 34.574219 10.691406 34.324219 10.460938 34.242188 10.058594 C 34.269531 9.859375 34.363281 9.699219 34.53125 9.578125 C 34.707031 9.457031 34.890625 9.347656 35.082031 9.253906 Z M 35.082031 9.253906 "/>
<use xlink:href="#surface9" mask="url(#mask1)"/>
<path style=" stroke:none;fill-rule:evenodd;fill:rgb(99.215686%,99.215686%,99.215686%);fill-opacity:1;" d="M 34.890625 18.230469 C 35.058594 18.242188 35.226562 18.261719 35.394531 18.289062 C 36.414062 18.523438 37.445312 18.675781 38.488281 18.746094 C 38.957031 18.816406 39.421875 18.898438 39.882812 18.988281 C 40.609375 19.078125 41.335938 19.136719 42.066406 19.15625 C 42.726562 19.160156 43.335938 19.335938 43.890625 19.683594 C 43.976562 19.761719 44.050781 19.84375 44.117188 19.933594 C 44.1875 20.179688 44.101562 20.351562 43.867188 20.453125 C 43.667969 20.53125 43.457031 20.566406 43.242188 20.558594 C 42.0625 20.496094 40.886719 20.398438 39.714844 20.257812 C 39.363281 20.238281 39.011719 20.226562 38.65625 20.222656 C 37.867188 20.292969 37.082031 20.246094 36.304688 20.089844 C 35.96875 20.058594 35.632812 20.050781 35.296875 20.066406 C 35.070312 20.125 34.847656 20.1875 34.625 20.257812 C 34.253906 20.277344 33.949219 20.144531 33.703125 19.863281 C 33.644531 19.722656 33.628906 19.582031 33.652344 19.429688 C 33.714844 19.296875 33.785156 19.167969 33.871094 19.046875 C 34.167969 18.71875 34.507812 18.449219 34.890625 18.230469 Z M 34.890625 18.230469 "/>
</g>
</svg>
