<?xml version="1.0" encoding="UTF-8"?>
<svg xmlns="http://www.w3.org/2000/svg" xmlns:xlink="http://www.w3.org/1999/xlink" width="50pt" height="50pt" viewBox="0 0 50 50" version="1.1">
<defs>
<filter id="alpha" filterUnits="objectBoundingBox" x="0%" y="0%" width="100%" height="100%">
  <feColorMatrix type="matrix" in="SourceGraphic" values="0 0 0 0 1 0 0 0 0 1 0 0 0 0 1 0 0 0 1 0"/>
</filter>
<mask id="mask0">
  <g filter="url(#alpha)">
<rect x="0" y="0" width="50" height="50" style="fill:rgb(0%,0%,0%);fill-opacity:0.941176;stroke:none;"/>
  </g>
</mask>
<clipPath id="clip1">
  <rect width="50" height="50"/>
</clipPath>
<g id="surface6" clip-path="url(#clip1)">
<path style=" stroke:none;fill-rule:evenodd;fill:rgb(1.176471%,0%,0%);fill-opacity:1;" d="M 27.519531 4.535156 C 27.519531 4.679688 27.519531 4.824219 27.519531 4.964844 C 27.414062 5.265625 27.21875 5.488281 26.945312 5.636719 C 26.859375 5.65625 26.777344 5.6875 26.703125 5.734375 C 26.6875 5.71875 26.671875 5.703125 26.65625 5.6875 C 26.746094 5.617188 26.828125 5.535156 26.894531 5.445312 C 26.941406 5.453125 26.976562 5.4375 26.992188 5.398438 C 27.023438 5.398438 27.039062 5.382812 27.039062 5.351562 C 27.292969 5.175781 27.378906 4.9375 27.304688 4.628906 C 27.21875 4.445312 27.125 4.269531 27.015625 4.101562 C 26.5625 3.585938 26.027344 3.175781 25.40625 2.878906 C 25.296875 2.839844 25.1875 2.808594 25.070312 2.78125 C 24.496094 2.710938 23.921875 2.695312 23.34375 2.734375 C 22.4375 2.898438 21.542969 3.105469 20.65625 3.359375 C 18.898438 3.9375 17.121094 4.464844 15.332031 4.941406 C 14.167969 5.132812 13.003906 5.277344 11.828125 5.375 C 12.671875 5.46875 13.519531 5.511719 14.371094 5.496094 C 16.316406 5.609375 18.171875 5.265625 19.9375 4.460938 C 20.046875 4.402344 20.144531 4.320312 20.226562 4.222656 C 20.5 4.074219 20.621094 4.144531 20.585938 4.4375 C 19.996094 5.058594 19.347656 5.613281 18.640625 6.09375 C 17.589844 6.570312 16.484375 6.855469 15.332031 6.957031 C 13.605469 7.085938 11.878906 7.199219 10.148438 7.292969 C 9.636719 7.347656 9.125 7.414062 8.613281 7.484375 C 8.542969 7.503906 8.496094 7.542969 8.46875 7.605469 C 8.40625 7.621094 8.40625 7.636719 8.46875 7.652344 C 8.507812 7.761719 8.585938 7.808594 8.710938 7.796875 C 8.742188 7.839844 8.792969 7.855469 8.851562 7.84375 C 8.996094 7.871094 9.140625 7.894531 9.285156 7.917969 C 10.742188 7.917969 12.199219 7.964844 13.652344 8.0625 C 14.078125 8.246094 14.09375 8.453125 13.699219 8.683594 C 12.238281 8.792969 10.816406 9.082031 9.429688 9.550781 C 9.25 9.636719 9.074219 9.726562 8.902344 9.8125 C 8.871094 9.8125 8.851562 9.828125 8.851562 9.859375 C 8.835938 9.859375 8.820312 9.859375 8.804688 9.859375 C 8.773438 9.859375 8.757812 9.875 8.757812 9.910156 C 8.089844 10.203125 7.503906 10.617188 7.003906 11.15625 C 6.894531 11.285156 6.804688 11.429688 6.742188 11.589844 C 6.710938 11.589844 6.695312 11.605469 6.695312 11.636719 C 6.660156 11.636719 6.644531 11.652344 6.644531 11.683594 C 6.425781 11.929688 6.328125 12.214844 6.359375 12.546875 C 6.425781 12.554688 6.488281 12.546875 6.550781 12.523438 C 7.511719 11.980469 8.519531 11.546875 9.574219 11.226562 C 9.84375 11.167969 10.113281 11.148438 10.390625 11.179688 C 10.585938 11.234375 10.699219 11.363281 10.722656 11.5625 C 10.695312 11.71875 10.65625 11.871094 10.605469 12.019531 C 10.414062 12.371094 10.222656 12.722656 10.027344 13.074219 C 9.925781 13.308594 9.933594 13.53125 10.054688 13.746094 C 10.195312 13.800781 10.335938 13.808594 10.484375 13.773438 C 10.90625 13.601562 11.304688 13.394531 11.683594 13.148438 C 12.640625 12.527344 13.585938 11.886719 14.515625 11.226562 C 14.691406 11.074219 14.882812 11.042969 15.089844 11.132812 C 15.144531 11.167969 15.175781 11.214844 15.1875 11.277344 C 14.910156 11.746094 14.636719 12.21875 14.371094 12.691406 C 14.328125 12.726562 14.3125 12.773438 14.324219 12.835938 C 14.316406 12.972656 14.378906 13.054688 14.515625 13.074219 C 14.972656 12.898438 15.371094 12.632812 15.714844 12.285156 C 16.195312 11.757812 16.6875 11.246094 17.203125 10.75 C 17.644531 10.363281 18.15625 10.21875 18.738281 10.316406 C 18.765625 10.335938 18.78125 10.359375 18.785156 10.390625 C 18.785156 10.484375 18.785156 10.582031 18.785156 10.675781 C 18.242188 10.640625 17.761719 10.792969 17.347656 11.132812 C 17.019531 11.460938 16.707031 11.804688 16.410156 12.164062 C 15.980469 12.628906 15.492188 13.023438 14.945312 13.339844 C 14.632812 13.496094 14.332031 13.488281 14.035156 13.316406 C 13.871094 13.078125 13.847656 12.820312 13.964844 12.546875 C 14.082031 12.292969 14.210938 12.050781 14.347656 11.828125 C 13.40625 12.476562 12.457031 13.109375 11.492188 13.722656 C 11.023438 14.03125 10.511719 14.15625 9.957031 14.109375 C 9.714844 13.984375 9.585938 13.78125 9.574219 13.507812 C 9.660156 13.011719 9.855469 12.5625 10.148438 12.164062 C 10.300781 11.984375 10.375 11.777344 10.363281 11.539062 C 10.332031 11.503906 10.292969 11.488281 10.246094 11.492188 C 9.734375 11.542969 9.238281 11.664062 8.757812 11.851562 C 8.074219 12.144531 7.402344 12.464844 6.742188 12.8125 C 6.554688 12.878906 6.363281 12.898438 6.167969 12.859375 C 6.082031 12.8125 6.027344 12.738281 6 12.644531 C 5.960938 12.414062 5.976562 12.191406 6.046875 11.972656 C 6.492188 10.996094 7.1875 10.253906 8.132812 9.742188 C 9.292969 9.136719 10.527344 8.75 11.828125 8.589844 C 12.34375 8.53125 12.855469 8.476562 13.363281 8.421875 C 13.445312 8.429688 13.523438 8.421875 13.605469 8.398438 C 13.449219 8.339844 13.289062 8.316406 13.125 8.324219 C 11.828125 8.292969 10.53125 8.269531 9.238281 8.253906 C 8.902344 8.257812 8.582031 8.195312 8.277344 8.0625 C 7.859375 7.535156 7.988281 7.222656 8.660156 7.125 C 9.371094 7.054688 10.078125 6.972656 10.773438 6.886719 C 12.019531 6.808594 13.265625 6.734375 14.515625 6.667969 C 15.730469 6.582031 16.914062 6.34375 18.066406 5.949219 C 18.421875 5.816406 18.726562 5.609375 18.976562 5.328125 C 17.542969 5.761719 16.070312 5.960938 14.5625 5.925781 C 12.8125 5.980469 11.101562 5.75 9.429688 5.230469 C 9.140625 5.152344 9.074219 4.992188 9.238281 4.75 C 11.800781 5.058594 14.328125 4.851562 16.820312 4.125 C 18.15625 3.691406 19.5 3.277344 20.847656 2.878906 C 21.976562 2.566406 23.117188 2.382812 24.28125 2.328125 C 24.992188 2.316406 25.640625 2.515625 26.222656 2.925781 C 26.648438 3.273438 27.023438 3.664062 27.351562 4.101562 C 27.429688 4.238281 27.488281 4.382812 27.519531 4.535156 Z M 25.3125 4.773438 C 25.617188 4.917969 25.839844 5.140625 25.984375 5.445312 C 25.742188 5.238281 25.519531 5.015625 25.3125 4.773438 Z M 25.984375 5.445312 C 26.050781 5.46875 26.082031 5.515625 26.078125 5.589844 C 26.011719 5.566406 25.980469 5.519531 25.984375 5.445312 Z M 25.984375 5.445312 "/>
</g>
<mask id="mask1">
  <g filter="url(#alpha)">
<rect x="0" y="0" width="50" height="50" style="fill:rgb(0%,0%,0%);fill-opacity:0.996078;stroke:none;"/>
  </g>
</mask>
<clipPath id="clip2">
  <rect width="50" height="50"/>
</clipPath>
<g id="surface9" clip-path="url(#clip2)">
<path style=" stroke:none;fill-rule:evenodd;fill:rgb(65.882353%,22.745098%,17.647059%);fill-opacity:1;" d="M 27.039062 5.351562 C 27.007812 5.351562 26.992188 5.367188 26.992188 5.398438 C 26.945312 5.390625 26.910156 5.40625 26.894531 5.445312 C 26.65625 5.054688 26.367188 4.695312 26.03125 4.367188 C 25.199219 3.820312 24.289062 3.59375 23.296875 3.695312 C 23.039062 3.75 22.800781 3.847656 22.578125 3.984375 C 22.097656 4.320312 21.617188 4.65625 21.136719 4.992188 C 20.886719 5.289062 20.65625 5.601562 20.441406 5.925781 C 19.625 7.324219 19.074219 8.808594 18.785156 10.390625 C 18.78125 10.359375 18.765625 10.335938 18.738281 10.316406 C 18.15625 10.21875 17.644531 10.363281 17.203125 10.75 C 16.6875 11.246094 16.195312 11.757812 15.714844 12.285156 C 15.371094 12.632812 14.972656 12.898438 14.515625 13.074219 C 14.378906 13.054688 14.316406 12.972656 14.324219 12.835938 C 14.367188 12.800781 14.382812 12.753906 14.371094 12.691406 C 14.636719 12.21875 14.910156 11.746094 15.1875 11.277344 C 15.175781 11.214844 15.144531 11.167969 15.089844 11.132812 C 14.882812 11.042969 14.691406 11.074219 14.515625 11.226562 C 13.585938 11.886719 12.640625 12.527344 11.683594 13.148438 C 11.304688 13.394531 10.90625 13.601562 10.484375 13.773438 C 10.335938 13.808594 10.195312 13.800781 10.054688 13.746094 C 9.933594 13.53125 9.925781 13.308594 10.027344 13.074219 C 10.222656 12.722656 10.414062 12.371094 10.605469 12.019531 C 10.65625 11.871094 10.695312 11.71875 10.722656 11.5625 C 10.699219 11.363281 10.585938 11.234375 10.390625 11.179688 C 10.113281 11.148438 9.84375 11.167969 9.574219 11.226562 C 8.519531 11.546875 7.511719 11.980469 6.550781 12.523438 C 6.488281 12.546875 6.425781 12.554688 6.359375 12.546875 C 6.328125 12.214844 6.425781 11.929688 6.644531 11.683594 C 6.679688 11.683594 6.695312 11.667969 6.695312 11.636719 C 6.726562 11.636719 6.742188 11.621094 6.742188 11.589844 C 7.386719 10.992188 8.058594 10.429688 8.757812 9.910156 C 8.789062 9.910156 8.804688 9.894531 8.804688 9.859375 C 8.820312 9.859375 8.835938 9.859375 8.851562 9.859375 C 8.886719 9.859375 8.902344 9.84375 8.902344 9.8125 C 9.074219 9.726562 9.25 9.636719 9.429688 9.550781 C 10.816406 9.082031 12.238281 8.792969 13.699219 8.683594 C 14.09375 8.453125 14.078125 8.246094 13.652344 8.0625 C 12.199219 7.964844 10.742188 7.917969 9.285156 7.917969 C 9.140625 7.894531 8.996094 7.871094 8.851562 7.84375 C 8.820312 7.800781 8.769531 7.785156 8.710938 7.796875 C 8.640625 7.738281 8.558594 7.691406 8.46875 7.652344 C 8.46875 7.636719 8.46875 7.621094 8.46875 7.605469 C 8.496094 7.542969 8.542969 7.503906 8.613281 7.484375 C 9.125 7.414062 9.636719 7.347656 10.148438 7.292969 C 11.878906 7.199219 13.605469 7.085938 15.332031 6.957031 C 16.484375 6.855469 17.589844 6.570312 18.640625 6.09375 C 19.347656 5.613281 19.996094 5.058594 20.585938 4.4375 C 20.621094 4.144531 20.5 4.074219 20.226562 4.222656 C 20.144531 4.320312 20.046875 4.402344 19.9375 4.460938 C 18.171875 5.265625 16.316406 5.609375 14.371094 5.496094 C 13.519531 5.511719 12.671875 5.46875 11.828125 5.375 C 13.003906 5.277344 14.167969 5.132812 15.332031 4.941406 C 17.121094 4.464844 18.898438 3.9375 20.65625 3.359375 C 21.542969 3.105469 22.4375 2.898438 23.34375 2.734375 C 23.921875 2.695312 24.496094 2.710938 25.070312 2.78125 C 25.1875 2.808594 25.296875 2.839844 25.40625 2.878906 C 26.027344 3.175781 26.5625 3.585938 27.015625 4.101562 C 27.125 4.269531 27.21875 4.445312 27.304688 4.628906 C 27.378906 4.9375 27.292969 5.175781 27.039062 5.351562 Z M 25.3125 4.773438 C 25.617188 4.917969 25.839844 5.140625 25.984375 5.445312 C 25.742188 5.238281 25.519531 5.015625 25.3125 4.773438 Z M 25.3125 4.773438 "/>
</g>
<mask id="mask2">
  <g filter="url(#alpha)">
<rect x="0" y="0" width="50" height="50" style="fill:rgb(0%,0%,0%);fill-opacity:0.968627;stroke:none;"/>
  </g>
</mask>
<clipPath id="clip3">
  <rect width="50" height="50"/>
</clipPath>
<g id="surface12" clip-path="url(#clip3)">
<path style=" stroke:none;fill-rule:evenodd;fill:rgb(12.156863%,12.156863%,12.156863%);fill-opacity:1;" d="M 26.894531 5.445312 C 26.828125 5.535156 26.746094 5.617188 26.65625 5.6875 C 26.671875 5.703125 26.6875 5.71875 26.703125 5.734375 C 26.777344 5.6875 26.859375 5.65625 26.945312 5.636719 C 27.117188 6.132812 27.195312 6.644531 27.183594 7.171875 C 27.183594 7.207031 27.183594 7.238281 27.183594 7.269531 C 26.9375 7.289062 26.695312 7.335938 26.464844 7.414062 C 26.515625 6.847656 26.433594 6.304688 26.222656 5.78125 C 26.222656 5.75 26.207031 5.734375 26.175781 5.734375 C 26.183594 5.6875 26.167969 5.65625 26.128906 5.636719 C 26.128906 5.605469 26.113281 5.589844 26.078125 5.589844 C 26.082031 5.515625 26.050781 5.46875 25.984375 5.445312 C 25.839844 5.140625 25.617188 4.917969 25.3125 4.773438 C 25.3125 4.742188 25.296875 4.726562 25.265625 4.726562 C 24.152344 4.0625 23.113281 4.152344 22.144531 4.992188 C 22.007812 5.035156 21.886719 5.011719 21.785156 4.917969 C 21.316406 5.261719 20.945312 5.691406 20.679688 6.214844 C 19.898438 7.605469 19.402344 9.09375 19.195312 10.675781 C 19 11.773438 19.191406 12.796875 19.769531 13.746094 C 20.441406 14.746094 21.347656 15.039062 22.480469 14.636719 C 23.257812 14.3125 23.9375 13.839844 24.519531 13.21875 C 25.195312 11.980469 25.78125 10.699219 26.273438 9.382812 C 26.535156 9.191406 26.808594 9.015625 27.085938 8.851562 C 27.035156 9.335938 26.914062 9.796875 26.726562 10.246094 C 26.300781 11.164062 25.863281 12.074219 25.40625 12.980469 C 25.6875 13.027344 25.960938 12.984375 26.222656 12.859375 C 26.980469 12.527344 27.746094 12.222656 28.527344 11.949219 C 29.078125 11.671875 29.640625 11.40625 30.207031 11.15625 C 30.523438 11.0625 30.808594 10.917969 31.070312 10.722656 C 32.386719 9.960938 33.714844 9.210938 35.054688 8.46875 C 35.039062 8.65625 35.074219 8.832031 35.148438 8.996094 C 33.855469 9.722656 32.59375 10.5 31.359375 11.324219 C 30.539062 11.734375 29.742188 12.164062 28.957031 12.621094 C 28.273438 12.804688 27.601562 13.027344 26.945312 13.292969 C 26.847656 13.480469 26.773438 13.679688 26.726562 13.890625 C 26.421875 15.320312 26.09375 16.742188 25.742188 18.164062 C 25.550781 18.328125 25.460938 18.535156 25.480469 18.785156 C 25.511719 18.820312 25.550781 18.839844 25.601562 18.832031 C 25.304688 20.03125 25.015625 21.230469 24.734375 22.433594 C 24.769531 22.449219 24.800781 22.464844 24.832031 22.480469 C 24.726562 23.144531 24.582031 23.800781 24.398438 24.449219 C 24.417969 24.511719 24.433594 24.574219 24.449219 24.640625 C 24.191406 25.535156 23.886719 26.417969 23.535156 27.277344 C 23.566406 27.371094 23.597656 27.457031 23.632812 27.542969 C 23.800781 27.625 23.976562 27.679688 24.160156 27.710938 C 24.074219 27.839844 23.960938 27.878906 23.824219 27.832031 C 23.71875 27.929688 23.621094 28.035156 23.535156 28.144531 C 23.453125 28.078125 23.359375 28.03125 23.25 28 C 23.21875 28.105469 23.152344 28.1875 23.054688 28.238281 C 23.015625 28.03125 22.992188 27.824219 22.984375 27.613281 C 22.960938 27.515625 22.921875 27.429688 22.863281 27.351562 C 23.089844 26.71875 23.320312 26.085938 23.558594 25.457031 C 24.457031 21.457031 25.425781 17.484375 26.464844 13.53125 C 26.398438 13.5 26.335938 13.5 26.273438 13.53125 C 25.710938 13.707031 25.148438 13.882812 24.59375 14.058594 C 24.1875 14.390625 23.738281 14.644531 23.25 14.828125 C 22.789062 15.175781 22.269531 15.34375 21.6875 15.332031 C 21.339844 15.304688 20.996094 15.261719 20.65625 15.210938 C 19.730469 15.820312 18.769531 16.378906 17.777344 16.890625 C 17.75 16.941406 17.734375 16.996094 17.730469 17.058594 C 17.996094 18.363281 18.21875 19.675781 18.402344 20.992188 C 18.242188 20.867188 18.082031 20.867188 17.921875 20.992188 C 17.746094 19.847656 17.53125 18.714844 17.273438 17.585938 C 16.625 19.441406 15.878906 21.257812 15.042969 23.03125 C 15.769531 23.453125 16.507812 23.859375 17.25 24.257812 C 17.433594 24.414062 17.609375 24.582031 17.777344 24.761719 C 17.851562 24.808594 17.929688 24.832031 18.019531 24.832031 C 18.019531 24.769531 18.019531 24.703125 18.019531 24.640625 C 18.1875 24.6875 18.339844 24.769531 18.472656 24.878906 C 18.324219 23.847656 18.1875 22.804688 18.066406 21.761719 C 18.140625 21.613281 18.246094 21.484375 18.378906 21.378906 C 18.402344 21.265625 18.410156 21.15625 18.402344 21.042969 C 18.480469 21.269531 18.535156 21.511719 18.570312 21.761719 C 18.804688 23.546875 19.050781 25.332031 19.3125 27.109375 C 19.242188 27.5625 19.203125 28.019531 19.195312 28.480469 C 19.082031 28.808594 19.011719 29.144531 18.976562 29.488281 C 18.894531 29.472656 18.804688 29.507812 18.714844 29.582031 C 18.511719 30.152344 18.292969 30.710938 18.066406 31.261719 C 18.136719 30.960938 18.203125 30.65625 18.257812 30.351562 C 18.433594 29.660156 18.617188 28.972656 18.808594 28.285156 C 18.789062 27.5 18.722656 26.71875 18.617188 25.9375 C 18.550781 25.847656 18.460938 25.824219 18.355469 25.863281 C 18.523438 25.953125 18.578125 26.089844 18.523438 26.273438 C 18.210938 26.695312 17.851562 27.070312 17.441406 27.398438 C 17.058594 27.710938 16.644531 27.773438 16.195312 27.589844 C 15.984375 27.375 15.925781 27.128906 16.027344 26.847656 C 16.339844 26.28125 16.777344 25.839844 17.347656 25.527344 C 17.527344 25.421875 17.71875 25.339844 17.921875 25.289062 C 17.480469 25.09375 17.066406 24.859375 16.675781 24.59375 C 15.988281 24.167969 15.285156 23.769531 14.5625 23.390625 C 14.445312 23.210938 14.4375 23.019531 14.539062 22.816406 C 15.539062 20.769531 16.417969 18.671875 17.179688 16.53125 C 17.253906 16.441406 17.339844 16.371094 17.441406 16.316406 C 18.351562 15.859375 19.25 15.378906 20.128906 14.875 C 19.507812 14.363281 19.085938 13.714844 18.859375 12.933594 C 18.664062 12.183594 18.640625 11.429688 18.785156 10.675781 C 18.785156 10.582031 18.785156 10.484375 18.785156 10.390625 C 19.074219 8.808594 19.625 7.324219 20.441406 5.925781 C 20.65625 5.601562 20.886719 5.289062 21.136719 4.992188 C 21.617188 4.65625 22.097656 4.320312 22.578125 3.984375 C 22.800781 3.847656 23.039062 3.75 23.296875 3.695312 C 24.289062 3.59375 25.199219 3.820312 26.03125 4.367188 C 26.367188 4.695312 26.65625 5.054688 26.894531 5.445312 Z M 25.3125 4.773438 C 25.617188 4.917969 25.839844 5.140625 25.984375 5.445312 C 25.742188 5.238281 25.519531 5.015625 25.3125 4.773438 Z M 25.984375 5.445312 C 26.050781 5.46875 26.082031 5.515625 26.078125 5.589844 C 26.011719 5.566406 25.980469 5.519531 25.984375 5.445312 Z M 18.066406 21.761719 C 18.1875 22.804688 18.324219 23.847656 18.472656 24.878906 C 18.339844 24.769531 18.1875 24.6875 18.019531 24.640625 C 17.589844 24.035156 17.15625 23.425781 16.722656 22.816406 C 17.117188 22.394531 17.566406 22.042969 18.066406 21.761719 Z M 18.019531 25.984375 C 17.667969 26.421875 17.253906 26.78125 16.769531 27.0625 C 16.722656 27.09375 16.675781 27.09375 16.625 27.0625 C 16.980469 26.566406 17.445312 26.207031 18.019531 25.984375 Z M 18.019531 25.984375 "/>
</g>
<mask id="mask3">
  <g filter="url(#alpha)">
<rect x="0" y="0" width="50" height="50" style="fill:rgb(0%,0%,0%);fill-opacity:0.890196;stroke:none;"/>
  </g>
</mask>
<clipPath id="clip4">
  <rect width="50" height="50"/>
</clipPath>
<g id="surface15" clip-path="url(#clip4)">
<path style=" stroke:none;fill-rule:evenodd;fill:rgb(11.372549%,11.372549%,11.372549%);fill-opacity:1;" d="M 38.460938 7.75 C 38.726562 7.585938 39.015625 7.472656 39.324219 7.414062 C 39.773438 7.324219 40.082031 7.070312 40.257812 6.644531 C 40.316406 6.394531 40.222656 6.25 39.972656 6.214844 C 39.792969 6.296875 39.609375 6.320312 39.417969 6.285156 C 39.324219 6.070312 39.382812 5.902344 39.585938 5.78125 C 39.839844 5.402344 40.070312 5.007812 40.28125 4.605469 C 39.871094 4.730469 39.578125 4.992188 39.394531 5.398438 C 39.289062 5.765625 39.191406 6.132812 39.109375 6.5 C 38.910156 6.660156 38.710938 6.8125 38.507812 6.957031 C 38.65625 7.003906 38.769531 7.09375 38.84375 7.222656 C 38.632812 7.34375 38.410156 7.441406 38.171875 7.507812 C 38.1875 7.394531 38.171875 7.28125 38.125 7.171875 C 37.296875 7.640625 36.480469 8.121094 35.675781 8.613281 C 35.679688 8.441406 35.597656 8.328125 35.4375 8.277344 C 36.457031 7.636719 37.496094 7.023438 38.554688 6.429688 C 38.628906 6.359375 38.699219 6.285156 38.773438 6.214844 C 38.757812 5.488281 39.019531 4.886719 39.5625 4.414062 C 39.816406 4.207031 40.105469 4.128906 40.425781 4.175781 C 40.664062 4.335938 40.71875 4.554688 40.59375 4.824219 C 40.429688 5.144531 40.246094 5.457031 40.042969 5.757812 C 40.648438 5.910156 40.867188 6.285156 40.691406 6.886719 C 40.367188 7.667969 39.785156 8.027344 38.941406 7.964844 C 38.761719 7.925781 38.601562 7.851562 38.460938 7.75 Z M 39.324219 7.414062 C 39.332031 7.324219 39.300781 7.25 39.226562 7.199219 C 39.097656 7.175781 38.96875 7.183594 38.84375 7.222656 C 38.769531 7.09375 38.65625 7.003906 38.507812 6.957031 C 38.710938 6.8125 38.910156 6.660156 39.109375 6.5 C 39.191406 6.132812 39.289062 5.765625 39.394531 5.398438 C 39.578125 4.992188 39.871094 4.730469 40.28125 4.605469 C 40.070312 5.007812 39.839844 5.402344 39.585938 5.78125 C 39.382812 5.902344 39.324219 6.070312 39.417969 6.285156 C 39.609375 6.320312 39.792969 6.296875 39.972656 6.214844 C 40.222656 6.25 40.316406 6.394531 40.257812 6.644531 C 40.082031 7.070312 39.773438 7.324219 39.324219 7.414062 Z M 39.324219 7.414062 "/>
</g>
<mask id="mask4">
  <g filter="url(#alpha)">
<rect x="0" y="0" width="50" height="50" style="fill:rgb(0%,0%,0%);fill-opacity:0.772549;stroke:none;"/>
  </g>
</mask>
<clipPath id="clip5">
  <rect width="50" height="50"/>
</clipPath>
<g id="surface18" clip-path="url(#clip5)">
<path style=" stroke:none;fill-rule:evenodd;fill:rgb(66.27451%,23.137255%,17.647059%);fill-opacity:1;" d="M 27.519531 4.535156 C 27.589844 4.574219 27.621094 4.636719 27.613281 4.726562 C 27.617188 4.824219 27.585938 4.90625 27.519531 4.964844 C 27.519531 4.824219 27.519531 4.679688 27.519531 4.535156 Z M 27.519531 4.535156 "/>
</g>
<mask id="mask5">
  <g filter="url(#alpha)">
<rect x="0" y="0" width="50" height="50" style="fill:rgb(0%,0%,0%);fill-opacity:0.654902;stroke:none;"/>
  </g>
</mask>
<clipPath id="clip6">
  <rect width="50" height="50"/>
</clipPath>
<g id="surface21" clip-path="url(#clip6)">
<path style=" stroke:none;fill-rule:evenodd;fill:rgb(94.509804%,93.333333%,90.196078%);fill-opacity:1;" d="M 27.183594 7.171875 C 27.273438 7.1875 27.355469 7.21875 27.421875 7.269531 C 27.34375 7.269531 27.261719 7.269531 27.183594 7.269531 C 27.183594 7.238281 27.183594 7.207031 27.183594 7.171875 Z M 27.183594 7.171875 "/>
</g>
<mask id="mask6">
  <g filter="url(#alpha)">
<rect x="0" y="0" width="50" height="50" style="fill:rgb(0%,0%,0%);fill-opacity:0.937255;stroke:none;"/>
  </g>
</mask>
<clipPath id="clip7">
  <rect width="50" height="50"/>
</clipPath>
<g id="surface24" clip-path="url(#clip7)">
<path style=" stroke:none;fill-rule:evenodd;fill:rgb(0.784314%,0.784314%,0.784314%);fill-opacity:1;" d="M 39.324219 7.414062 C 39.015625 7.472656 38.726562 7.585938 38.460938 7.75 C 37.566406 8.265625 36.679688 8.792969 35.796875 9.332031 C 35.832031 9.761719 35.695312 10.121094 35.390625 10.414062 C 33.742188 11.773438 32.09375 13.132812 30.445312 14.492188 C 29.21875 15.558594 28.019531 16.664062 26.847656 17.800781 C 26.40625 18.121094 25.992188 18.46875 25.601562 18.832031 C 25.550781 18.839844 25.511719 18.820312 25.480469 18.785156 C 25.460938 18.535156 25.550781 18.328125 25.742188 18.164062 C 26.386719 17.652344 26.980469 17.085938 27.519531 16.457031 C 28.132812 15.871094 28.757812 15.296875 29.390625 14.730469 C 31.300781 13.109375 33.214844 11.484375 35.125 9.859375 C 35.148438 9.574219 35.15625 9.285156 35.148438 8.996094 C 35.074219 8.832031 35.039062 8.65625 35.054688 8.46875 C 35.128906 8.304688 35.257812 8.242188 35.4375 8.277344 C 35.597656 8.328125 35.679688 8.441406 35.675781 8.613281 C 35.671875 8.746094 35.695312 8.875 35.75 8.996094 C 36.5625 8.507812 37.371094 8.011719 38.171875 7.507812 C 38.410156 7.441406 38.632812 7.34375 38.84375 7.222656 C 38.96875 7.183594 39.097656 7.175781 39.226562 7.199219 C 39.300781 7.25 39.332031 7.324219 39.324219 7.414062 Z M 39.324219 7.414062 "/>
</g>
<mask id="mask7">
  <g filter="url(#alpha)">
<rect x="0" y="0" width="50" height="50" style="fill:rgb(0%,0%,0%);fill-opacity:0.956863;stroke:none;"/>
  </g>
</mask>
<clipPath id="clip8">
  <rect width="50" height="50"/>
</clipPath>
<g id="surface27" clip-path="url(#clip8)">
<path style=" stroke:none;fill-rule:evenodd;fill:rgb(2.352941%,2.352941%,2.352941%);fill-opacity:1;" d="M 27.183594 7.269531 C 27.261719 7.269531 27.34375 7.269531 27.421875 7.269531 C 27.664062 7.289062 27.878906 7.367188 28.070312 7.507812 C 28.15625 7.757812 28.105469 7.980469 27.925781 8.179688 C 27.667969 8.433594 27.386719 8.65625 27.085938 8.851562 C 26.808594 9.015625 26.535156 9.191406 26.273438 9.382812 C 25.832031 9.671875 25.386719 9.953125 24.929688 10.222656 C 24.894531 10.269531 24.863281 10.316406 24.832031 10.363281 C 24.65625 10.429688 24.542969 10.371094 24.496094 10.195312 C 24.546875 10.074219 24.628906 9.96875 24.734375 9.886719 C 25.332031 9.570312 25.890625 9.210938 26.414062 8.804688 C 26.699219 8.667969 26.953125 8.492188 27.183594 8.277344 C 27.230469 8.285156 27.261719 8.269531 27.277344 8.230469 C 27.488281 8.117188 27.648438 7.957031 27.757812 7.75 C 27.824219 7.734375 27.824219 7.71875 27.757812 7.703125 C 27.671875 7.609375 27.558594 7.558594 27.421875 7.558594 C 27.082031 7.507812 26.746094 7.539062 26.414062 7.652344 C 25.890625 7.757812 25.410156 7.964844 24.976562 8.277344 C 24.960938 8.261719 24.945312 8.246094 24.929688 8.230469 C 25.371094 7.832031 25.882812 7.5625 26.464844 7.414062 C 26.695312 7.335938 26.9375 7.289062 27.183594 7.269531 Z M 27.757812 7.75 C 27.648438 7.957031 27.488281 8.117188 27.277344 8.230469 C 27.421875 8.054688 27.582031 7.894531 27.757812 7.75 Z M 27.757812 7.75 "/>
</g>
<mask id="mask8">
  <g filter="url(#alpha)">
<rect x="0" y="0" width="50" height="50" style="fill:rgb(0%,0%,0%);fill-opacity:0.996078;stroke:none;"/>
  </g>
</mask>
<clipPath id="clip9">
  <rect width="50" height="50"/>
</clipPath>
<g id="surface30" clip-path="url(#clip9)">
<path style=" stroke:none;fill-rule:evenodd;fill:rgb(12.54902%,12.54902%,12.54902%);fill-opacity:1;" d="M 27.421875 7.558594 C 27.328125 7.558594 27.230469 7.558594 27.136719 7.558594 C 27.121094 7.808594 27.136719 8.046875 27.183594 8.277344 C 26.953125 8.492188 26.699219 8.667969 26.414062 8.804688 C 26.46875 8.414062 26.46875 8.03125 26.414062 7.652344 C 26.746094 7.539062 27.082031 7.507812 27.421875 7.558594 Z M 27.421875 7.558594 "/>
</g>
<mask id="mask9">
  <g filter="url(#alpha)">
<rect x="0" y="0" width="50" height="50" style="fill:rgb(0%,0%,0%);fill-opacity:0.909804;stroke:none;"/>
  </g>
</mask>
<clipPath id="clip10">
  <rect width="50" height="50"/>
</clipPath>
<g id="surface33" clip-path="url(#clip10)">
<path style=" stroke:none;fill-rule:evenodd;fill:rgb(89.411765%,87.843137%,85.098039%);fill-opacity:1;" d="M 27.421875 7.558594 C 27.558594 7.558594 27.671875 7.609375 27.757812 7.703125 C 27.757812 7.71875 27.757812 7.734375 27.757812 7.75 C 27.582031 7.894531 27.421875 8.054688 27.277344 8.230469 C 27.230469 8.222656 27.199219 8.238281 27.183594 8.277344 C 27.136719 8.046875 27.121094 7.808594 27.136719 7.558594 C 27.230469 7.558594 27.328125 7.558594 27.421875 7.558594 Z M 27.421875 7.558594 "/>
</g>
<mask id="mask10">
  <g filter="url(#alpha)">
<rect x="0" y="0" width="50" height="50" style="fill:rgb(0%,0%,0%);fill-opacity:0.439216;stroke:none;"/>
  </g>
</mask>
<clipPath id="clip11">
  <rect width="50" height="50"/>
</clipPath>
<g id="surface36" clip-path="url(#clip11)">
<path style=" stroke:none;fill-rule:evenodd;fill:rgb(61.960784%,21.568627%,16.862745%);fill-opacity:1;" d="M 13.125 8.324219 C 13.289062 8.316406 13.449219 8.339844 13.605469 8.398438 C 13.523438 8.421875 13.445312 8.429688 13.363281 8.421875 C 13.285156 8.390625 13.203125 8.355469 13.125 8.324219 Z M 13.125 8.324219 "/>
</g>
<mask id="mask11">
  <g filter="url(#alpha)">
<rect x="0" y="0" width="50" height="50" style="fill:rgb(0%,0%,0%);fill-opacity:0.929412;stroke:none;"/>
  </g>
</mask>
<clipPath id="clip12">
  <rect width="50" height="50"/>
</clipPath>
<g id="surface39" clip-path="url(#clip12)">
<path style=" stroke:none;fill-rule:evenodd;fill:rgb(11.764706%,11.764706%,11.764706%);fill-opacity:1;" d="M 17.828125 31.742188 C 17.886719 31.726562 17.9375 31.695312 17.96875 31.644531 C 18.003906 31.644531 18.019531 31.660156 18.019531 31.695312 C 17.933594 32.011719 17.820312 32.316406 17.683594 32.605469 C 17.683594 32.585938 17.675781 32.570312 17.660156 32.558594 C 17.644531 32.601562 17.621094 32.632812 17.585938 32.652344 C 17.597656 32.535156 17.628906 32.425781 17.683594 32.316406 C 17.667969 32.300781 17.648438 32.285156 17.632812 32.269531 C 16.695312 32.578125 15.753906 32.863281 14.804688 33.132812 C 14.769531 33.132812 14.753906 33.148438 14.753906 33.179688 C 14.722656 33.179688 14.691406 33.179688 14.660156 33.179688 C 14.613281 33.171875 14.578125 33.1875 14.5625 33.230469 C 14.546875 33.230469 14.53125 33.230469 14.515625 33.230469 C 14.453125 33.21875 14.40625 33.234375 14.371094 33.277344 C 12.019531 33.839844 9.667969 34.40625 7.316406 34.980469 C 5.601562 35.226562 3.886719 35.480469 2.183594 35.75 C 2.488281 36.503906 2.734375 37.28125 2.925781 38.074219 C 3.351562 39.9375 3.796875 41.792969 4.269531 43.640625 C 4.320312 43.671875 4.378906 43.6875 4.4375 43.691406 C 5.679688 43.539062 6.929688 43.464844 8.179688 43.472656 C 8.902344 43.4375 9.625 43.371094 10.339844 43.28125 C 11.859375 42.996094 13.378906 42.726562 14.898438 42.464844 C 15.625 42.324219 16.34375 42.164062 17.058594 41.988281 C 19.800781 41.152344 22.503906 40.210938 25.167969 39.15625 C 28.839844 37.457031 32.214844 35.3125 35.292969 32.726562 C 37.371094 30.839844 39.453125 28.949219 41.53125 27.0625 C 41.925781 26.6875 42.300781 26.292969 42.660156 25.886719 C 42.671875 25.625 42.808594 25.480469 43.066406 25.457031 C 43.191406 25.484375 43.316406 25.492188 43.449219 25.480469 C 43.523438 25.550781 43.59375 25.625 43.667969 25.695312 C 44.714844 27.113281 45.707031 28.566406 46.640625 30.0625 C 46.738281 30.191406 46.832031 30.316406 46.929688 30.445312 C 46.953125 30.382812 46.960938 30.320312 46.953125 30.253906 C 47.085938 29.59375 47.175781 28.921875 47.21875 28.238281 C 47.289062 26.207031 47.304688 24.175781 47.265625 22.144531 C 47.152344 19.5 47.046875 16.859375 46.953125 14.226562 C 46.949219 12.703125 46.902344 11.214844 46.808594 9.765625 C 46.777344 9.765625 46.761719 9.78125 46.761719 9.8125 C 46.730469 9.8125 46.714844 9.828125 46.714844 9.859375 C 46.097656 10.371094 45.472656 10.875 44.839844 11.371094 C 42.691406 12.695312 40.53125 14.007812 38.363281 15.308594 C 35.925781 16.664062 33.414062 17.878906 30.832031 18.953125 C 32.253906 19.261719 33.679688 19.574219 35.101562 19.890625 C 35.527344 19.980469 35.957031 20.035156 36.394531 20.058594 C 36.59375 20.097656 36.785156 20.15625 36.972656 20.226562 C 37.078125 20.070312 37.191406 19.917969 37.308594 19.769531 C 37.636719 19.683594 37.789062 19.800781 37.765625 20.128906 C 37.410156 20.742188 36.984375 21.300781 36.492188 21.808594 C 35.296875 22.871094 34.0625 23.886719 32.796875 24.855469 C 30.875 26.136719 28.878906 27.296875 26.800781 28.335938 C 27.160156 28.445312 27.511719 28.582031 27.855469 28.742188 C 27.988281 28.859375 28.050781 29 28.046875 29.175781 C 27.765625 30.667969 27.4375 32.148438 27.0625 33.613281 C 27.953125 32.953125 28.933594 32.722656 30.015625 32.917969 C 30.378906 33.1875 30.449219 33.53125 30.230469 33.949219 C 30.097656 34.132812 29.945312 34.300781 29.773438 34.453125 C 28.851562 35.097656 27.828125 35.402344 26.703125 35.363281 C 26.511719 35.292969 26.433594 35.15625 26.464844 34.957031 C 26.261719 34.964844 26.152344 34.867188 26.128906 34.667969 C 26.429688 33.765625 26.699219 32.855469 26.945312 31.933594 C 26.921875 31.875 26.890625 31.828125 26.847656 31.789062 C 27 31.816406 27.117188 31.769531 27.207031 31.644531 C 27.34375 30.71875 27.511719 29.800781 27.710938 28.886719 C 27.703125 28.808594 27.671875 28.742188 27.613281 28.695312 C 27.054688 28.539062 26.511719 28.355469 25.984375 28.144531 C 26.859375 27.6875 27.738281 27.234375 28.621094 26.777344 C 29.570312 26.191406 30.511719 25.605469 31.453125 25.023438 C 32.039062 24.695312 32.582031 24.3125 33.085938 23.871094 C 33.984375 23.125 34.882812 22.363281 35.773438 21.59375 C 36.0625 21.332031 36.316406 21.042969 36.539062 20.730469 C 35.824219 20.597656 35.105469 20.46875 34.382812 20.34375 C 32.933594 19.957031 31.480469 19.605469 30.015625 19.289062 C 29.75 19.203125 29.679688 19.035156 29.796875 18.785156 C 30.933594 18.351562 32.0625 17.894531 33.179688 17.417969 C 34.363281 16.84375 35.546875 16.265625 36.730469 15.691406 C 38.058594 14.9375 39.386719 14.1875 40.714844 13.4375 C 41.980469 12.644531 43.257812 11.875 44.554688 11.132812 C 45.320312 10.574219 46.070312 10 46.808594 9.40625 C 46.980469 9.320312 47.15625 9.3125 47.335938 9.382812 C 47.371094 9.40625 47.394531 9.4375 47.410156 9.476562 C 47.621094 13.960938 47.773438 18.449219 47.863281 22.9375 C 47.851562 24.769531 47.792969 26.601562 47.695312 28.429688 C 47.621094 29.15625 47.507812 29.875 47.359375 30.589844 C 47.335938 30.757812 47.28125 30.910156 47.191406 31.046875 C 47.101562 31.121094 47.007812 31.121094 46.90625 31.046875 C 46.738281 30.800781 46.554688 30.570312 46.351562 30.351562 C 45.425781 28.878906 44.449219 27.4375 43.425781 26.03125 C 43.285156 26.285156 43.125 26.523438 42.945312 26.75 C 42.585938 27.109375 42.226562 27.472656 41.867188 27.832031 C 40.191406 29.316406 38.542969 30.835938 36.925781 32.390625 C 33.71875 35.257812 30.167969 37.625 26.273438 39.492188 C 23.40625 40.664062 20.480469 41.65625 17.492188 42.464844 C 16.921875 42.617188 16.34375 42.746094 15.761719 42.851562 C 13.734375 43.179688 11.703125 43.484375 9.667969 43.761719 C 8.40625 43.816406 7.140625 43.847656 5.878906 43.859375 C 5.109375 43.90625 4.339844 43.980469 3.574219 44.074219 C 3.375 44.105469 3.300781 44.023438 3.359375 43.832031 C 3.523438 43.789062 3.691406 43.757812 3.863281 43.738281 C 3.445312 41.898438 3.023438 40.058594 2.589844 38.21875 C 2.375 37.363281 2.113281 36.523438 1.800781 35.699219 C 1.820312 35.609375 1.867188 35.539062 1.945312 35.484375 C 3.816406 35.175781 5.6875 34.863281 7.558594 34.550781 C 9.988281 33.925781 12.417969 33.300781 14.851562 32.675781 C 15.851562 32.390625 16.84375 32.078125 17.828125 31.742188 Z M 46.714844 9.859375 C 46.355469 10.308594 45.957031 10.714844 45.511719 11.085938 C 43.339844 12.683594 41.070312 14.140625 38.699219 15.449219 C 36.679688 16.558594 34.648438 17.644531 32.605469 18.714844 C 32.628906 18.746094 32.664062 18.769531 32.703125 18.785156 C 33.507812 19.15625 34.304688 19.523438 35.101562 19.890625 C 33.679688 19.574219 32.253906 19.261719 30.832031 18.953125 C 33.414062 17.878906 35.925781 16.664062 38.363281 15.308594 C 40.53125 14.007812 42.691406 12.695312 44.839844 11.371094 C 45.472656 10.875 46.097656 10.371094 46.714844 9.859375 Z M 46.953125 14.226562 C 47.046875 16.859375 47.152344 19.5 47.265625 22.144531 C 47.304688 24.175781 47.289062 26.207031 47.21875 28.238281 C 47.175781 28.921875 47.085938 29.59375 46.953125 30.253906 C 46.953125 24.910156 46.953125 19.570312 46.953125 14.226562 Z M 43.066406 25.457031 C 42.808594 25.480469 42.671875 25.625 42.660156 25.886719 C 42.300781 26.292969 41.925781 26.6875 41.53125 27.0625 C 39.453125 28.949219 37.371094 30.839844 35.292969 32.726562 C 32.214844 35.3125 28.839844 37.457031 25.167969 39.15625 C 22.503906 40.210938 19.800781 41.152344 17.058594 41.988281 C 16.34375 42.164062 15.625 42.324219 14.898438 42.464844 C 13.378906 42.726562 11.859375 42.996094 10.339844 43.28125 C 9.625 43.371094 8.902344 43.4375 8.179688 43.472656 C 6.929688 43.464844 5.679688 43.539062 4.4375 43.691406 C 4.378906 43.6875 4.320312 43.671875 4.269531 43.640625 C 3.796875 41.792969 3.351562 39.9375 2.925781 38.074219 C 2.734375 37.28125 2.488281 36.503906 2.183594 35.75 C 3.886719 35.480469 5.601562 35.226562 7.316406 34.980469 C 9.667969 34.40625 12.019531 33.839844 14.371094 33.277344 C 13.105469 33.714844 11.828125 34.121094 10.53125 34.5 C 8.074219 35.199219 5.613281 35.863281 3.144531 36.492188 C 4.453125 38.363281 5.765625 40.234375 7.078125 42.105469 C 9.699219 42.117188 12.289062 41.84375 14.851562 41.289062 C 15.414062 41.367188 15.957031 41.296875 16.484375 41.074219 C 16.539062 41.023438 16.589844 40.96875 16.625 40.90625 C 18.917969 40.402344 21.171875 39.769531 23.390625 39.011719 C 25.054688 38.371094 26.65625 37.605469 28.191406 36.707031 C 30.796875 35.140625 33.277344 33.398438 35.628906 31.476562 C 38.101562 29.453125 40.460938 27.285156 42.707031 24.976562 C 42.835938 25.128906 42.957031 25.289062 43.066406 25.457031 Z M 43.066406 25.457031 "/>
</g>
<mask id="mask12">
  <g filter="url(#alpha)">
<rect x="0" y="0" width="50" height="50" style="fill:rgb(0%,0%,0%);fill-opacity:0.996078;stroke:none;"/>
  </g>
</mask>
<clipPath id="clip13">
  <rect width="50" height="50"/>
</clipPath>
<g id="surface42" clip-path="url(#clip13)">
<path style=" stroke:none;fill-rule:evenodd;fill:rgb(66.27451%,22.745098%,17.647059%);fill-opacity:1;" d="M 46.953125 14.226562 C 46.953125 19.570312 46.953125 24.910156 46.953125 30.253906 C 46.960938 30.320312 46.953125 30.382812 46.929688 30.445312 C 46.832031 30.316406 46.738281 30.191406 46.640625 30.0625 C 45.707031 28.566406 44.714844 27.113281 43.667969 25.695312 C 43.59375 25.625 43.523438 25.550781 43.449219 25.480469 C 43.316406 25.492188 43.191406 25.484375 43.066406 25.457031 C 42.957031 25.289062 42.835938 25.128906 42.707031 24.976562 C 40.460938 27.285156 38.101562 29.453125 35.628906 31.476562 C 33.277344 33.398438 30.796875 35.140625 28.191406 36.707031 C 26.65625 37.605469 25.054688 38.371094 23.390625 39.011719 C 21.171875 39.769531 18.917969 40.402344 16.625 40.90625 C 16.882812 40.367188 16.738281 39.960938 16.195312 39.683594 C 15.664062 39.46875 15.136719 39.476562 14.609375 39.707031 C 15.375 38.324219 16.207031 36.964844 17.105469 35.628906 C 17.617188 35.167969 18.128906 34.703125 18.640625 34.238281 C 19.175781 33.960938 19.558594 33.542969 19.792969 32.988281 C 20.292969 32.324219 20.757812 31.636719 21.183594 30.925781 C 21.496094 30.792969 21.800781 30.648438 22.097656 30.496094 C 23.480469 30.945312 24.886719 31.308594 26.320312 31.574219 C 26.507812 31.625 26.683594 31.695312 26.847656 31.789062 C 26.890625 31.828125 26.921875 31.875 26.945312 31.933594 C 26.699219 32.855469 26.429688 33.765625 26.128906 34.667969 C 26.152344 34.867188 26.261719 34.964844 26.464844 34.957031 C 26.433594 35.15625 26.511719 35.292969 26.703125 35.363281 C 27.828125 35.402344 28.851562 35.097656 29.773438 34.453125 C 29.945312 34.300781 30.097656 34.132812 30.230469 33.949219 C 30.449219 33.53125 30.378906 33.1875 30.015625 32.917969 C 28.933594 32.722656 27.953125 32.953125 27.0625 33.613281 C 27.4375 32.148438 27.765625 30.667969 28.046875 29.175781 C 28.050781 29 27.988281 28.859375 27.855469 28.742188 C 27.511719 28.582031 27.160156 28.445312 26.800781 28.335938 C 28.878906 27.296875 30.875 26.136719 32.796875 24.855469 C 34.0625 23.886719 35.296875 22.871094 36.492188 21.808594 C 36.984375 21.300781 37.410156 20.742188 37.765625 20.128906 C 37.789062 19.800781 37.636719 19.683594 37.308594 19.769531 C 37.191406 19.917969 37.078125 20.070312 36.972656 20.226562 C 36.785156 20.15625 36.59375 20.097656 36.394531 20.058594 C 35.957031 20.035156 35.527344 19.980469 35.101562 19.890625 C 34.304688 19.523438 33.507812 19.15625 32.703125 18.785156 C 32.664062 18.769531 32.628906 18.746094 32.605469 18.714844 C 34.648438 17.644531 36.679688 16.558594 38.699219 15.449219 C 41.070312 14.140625 43.339844 12.683594 45.511719 11.085938 C 45.957031 10.714844 46.355469 10.308594 46.714844 9.859375 C 46.746094 9.859375 46.761719 9.84375 46.761719 9.8125 C 46.792969 9.8125 46.808594 9.796875 46.808594 9.765625 C 46.902344 11.214844 46.949219 12.703125 46.953125 14.226562 Z M 46.953125 14.226562 "/>
</g>
<mask id="mask13">
  <g filter="url(#alpha)">
<rect x="0" y="0" width="50" height="50" style="fill:rgb(0%,0%,0%);fill-opacity:0.627451;stroke:none;"/>
  </g>
</mask>
<clipPath id="clip14">
  <rect width="50" height="50"/>
</clipPath>
<g id="surface45" clip-path="url(#clip14)">
<path style=" stroke:none;fill-rule:evenodd;fill:rgb(56.862745%,51.764706%,53.333333%);fill-opacity:1;" d="M 31.070312 10.722656 C 30.808594 10.917969 30.523438 11.0625 30.207031 11.15625 C 30.480469 10.988281 30.765625 10.84375 31.070312 10.722656 Z M 31.070312 10.722656 "/>
</g>
<mask id="mask14">
  <g filter="url(#alpha)">
<rect x="0" y="0" width="50" height="50" style="fill:rgb(0%,0%,0%);fill-opacity:0.788235;stroke:none;"/>
  </g>
</mask>
<clipPath id="clip15">
  <rect width="50" height="50"/>
</clipPath>
<g id="surface48" clip-path="url(#clip15)">
<path style=" stroke:none;fill-rule:evenodd;fill:rgb(60.784314%,21.176471%,16.470588%);fill-opacity:1;" d="M 10.246094 11.492188 C 10.292969 11.488281 10.332031 11.503906 10.363281 11.539062 C 10.375 11.777344 10.300781 11.984375 10.148438 12.164062 C 10.210938 11.945312 10.242188 11.722656 10.246094 11.492188 Z M 10.246094 11.492188 "/>
</g>
<mask id="mask15">
  <g filter="url(#alpha)">
<rect x="0" y="0" width="50" height="50" style="fill:rgb(0%,0%,0%);fill-opacity:0.956863;stroke:none;"/>
  </g>
</mask>
<clipPath id="clip16">
  <rect width="50" height="50"/>
</clipPath>
<g id="surface51" clip-path="url(#clip16)">
<path style=" stroke:none;fill-rule:evenodd;fill:rgb(1.176471%,0.784314%,0.784314%);fill-opacity:1;" d="M 18.402344 20.992188 C 18.402344 21.007812 18.402344 21.023438 18.402344 21.042969 C 18.410156 21.15625 18.402344 21.265625 18.378906 21.378906 C 18.246094 21.484375 18.140625 21.613281 18.066406 21.761719 C 17.566406 22.042969 17.117188 22.394531 16.722656 22.816406 C 17.15625 23.425781 17.589844 24.035156 18.019531 24.640625 C 18.019531 24.703125 18.019531 24.769531 18.019531 24.832031 C 17.929688 24.832031 17.851562 24.808594 17.777344 24.761719 C 17.609375 24.582031 17.433594 24.414062 17.25 24.257812 C 17.015625 23.929688 16.765625 23.613281 16.507812 23.296875 C 16.386719 23.121094 16.296875 22.929688 16.242188 22.722656 C 16.574219 22.207031 17.003906 21.800781 17.539062 21.496094 C 17.714844 21.363281 17.84375 21.195312 17.921875 20.992188 C 18.082031 20.867188 18.242188 20.867188 18.402344 20.992188 Z M 18.402344 20.992188 "/>
</g>
<mask id="mask16">
  <g filter="url(#alpha)">
<rect x="0" y="0" width="50" height="50" style="fill:rgb(0%,0%,0%);fill-opacity:0.831373;stroke:none;"/>
  </g>
</mask>
<clipPath id="clip17">
  <rect width="50" height="50"/>
</clipPath>
<g id="surface54" clip-path="url(#clip17)">
<path style=" stroke:none;fill-rule:evenodd;fill:rgb(60.392157%,54.901961%,56.862745%);fill-opacity:1;" d="M 14.5625 23.390625 C 15.285156 23.769531 15.988281 24.167969 16.675781 24.59375 C 16.015625 24.390625 15.390625 24.109375 14.804688 23.753906 C 14.671875 23.664062 14.59375 23.542969 14.5625 23.390625 Z M 14.5625 23.390625 "/>
</g>
<mask id="mask17">
  <g filter="url(#alpha)">
<rect x="0" y="0" width="50" height="50" style="fill:rgb(0%,0%,0%);fill-opacity:0.952941;stroke:none;"/>
  </g>
</mask>
<clipPath id="clip18">
  <rect width="50" height="50"/>
</clipPath>
<g id="surface57" clip-path="url(#clip18)">
<path style=" stroke:none;fill-rule:evenodd;fill:rgb(58.823529%,21.176471%,16.862745%);fill-opacity:1;" d="M 33.085938 23.871094 C 32.582031 24.3125 32.039062 24.695312 31.453125 25.023438 C 31.980469 24.617188 32.523438 24.234375 33.085938 23.871094 Z M 33.085938 23.871094 "/>
</g>
<mask id="mask18">
  <g filter="url(#alpha)">
<rect x="0" y="0" width="50" height="50" style="fill:rgb(0%,0%,0%);fill-opacity:0.992157;stroke:none;"/>
  </g>
</mask>
<clipPath id="clip19">
  <rect width="50" height="50"/>
</clipPath>
<g id="surface60" clip-path="url(#clip19)">
<path style=" stroke:none;fill-rule:evenodd;fill:rgb(4.313725%,3.529412%,3.529412%);fill-opacity:1;" d="M 25.984375 28.144531 C 26.511719 28.355469 27.054688 28.539062 27.613281 28.695312 C 27.671875 28.742188 27.703125 28.808594 27.710938 28.886719 C 27.511719 29.800781 27.34375 30.71875 27.207031 31.644531 C 27.117188 31.769531 27 31.816406 26.847656 31.789062 C 26.683594 31.695312 26.507812 31.625 26.320312 31.574219 C 24.886719 31.308594 23.480469 30.945312 22.097656 30.496094 C 21.890625 30.429688 21.683594 30.367188 21.472656 30.300781 C 21.316406 30.476562 21.21875 30.683594 21.183594 30.925781 C 20.757812 31.636719 20.292969 32.324219 19.792969 32.988281 C 19.410156 33.402344 19.027344 33.820312 18.640625 34.238281 C 18.128906 34.703125 17.617188 35.167969 17.105469 35.628906 C 16.765625 35.574219 16.734375 35.4375 17.011719 35.222656 C 16.890625 35.25 16.78125 35.242188 16.675781 35.195312 C 16.988281 34.351562 17.292969 33.503906 17.585938 32.652344 C 17.621094 32.632812 17.644531 32.601562 17.660156 32.558594 C 17.675781 32.570312 17.683594 32.585938 17.683594 32.605469 C 17.398438 33.453125 17.09375 34.292969 16.769531 35.125 C 17.078125 35.050781 17.363281 34.921875 17.632812 34.742188 C 18.027344 34.445312 18.386719 34.117188 18.714844 33.757812 C 19.03125 33.332031 19.332031 32.902344 19.625 32.460938 C 20.15625 31.582031 20.683594 30.703125 21.210938 29.824219 C 23.152344 30.394531 25.097656 30.96875 27.039062 31.550781 C 27.066406 31.539062 27.089844 31.523438 27.109375 31.5 C 27.25 30.640625 27.417969 29.785156 27.613281 28.933594 C 27.597656 28.894531 27.582031 28.855469 27.566406 28.816406 C 26.503906 28.460938 25.441406 28.105469 24.375 27.757812 C 23.964844 28 23.558594 28.25 23.152344 28.503906 C 21.707031 28.863281 20.269531 29.238281 18.832031 29.628906 C 18.550781 30.316406 18.28125 31.003906 18.019531 31.695312 C 18.019531 31.660156 18.003906 31.644531 17.96875 31.644531 C 17.988281 31.511719 18.019531 31.386719 18.066406 31.261719 C 18.292969 30.710938 18.511719 30.152344 18.714844 29.582031 C 18.804688 29.507812 18.894531 29.472656 18.976562 29.488281 C 20.246094 29.179688 21.511719 28.851562 22.769531 28.503906 C 23.042969 28.421875 23.300781 28.300781 23.535156 28.144531 C 23.621094 28.035156 23.71875 27.929688 23.824219 27.832031 C 23.960938 27.878906 24.074219 27.839844 24.160156 27.710938 C 24.222656 27.679688 24.285156 27.648438 24.351562 27.613281 C 24.890625 27.8125 25.433594 27.988281 25.984375 28.144531 Z M 25.984375 28.144531 "/>
</g>
<mask id="mask19">
  <g filter="url(#alpha)">
<rect x="0" y="0" width="50" height="50" style="fill:rgb(0%,0%,0%);fill-opacity:0.996078;stroke:none;"/>
  </g>
</mask>
<clipPath id="clip20">
  <rect width="50" height="50"/>
</clipPath>
<g id="surface63" clip-path="url(#clip20)">
<path style=" stroke:none;fill-rule:evenodd;fill:rgb(12.54902%,11.764706%,11.372549%);fill-opacity:1;" d="M 22.097656 30.496094 C 21.800781 30.648438 21.496094 30.792969 21.183594 30.925781 C 21.21875 30.683594 21.316406 30.476562 21.472656 30.300781 C 21.683594 30.367188 21.890625 30.429688 22.097656 30.496094 Z M 22.097656 30.496094 "/>
</g>
<mask id="mask20">
  <g filter="url(#alpha)">
<rect x="0" y="0" width="50" height="50" style="fill:rgb(0%,0%,0%);fill-opacity:0.623529;stroke:none;"/>
  </g>
</mask>
<clipPath id="clip21">
  <rect width="50" height="50"/>
</clipPath>
<g id="surface66" clip-path="url(#clip21)">
<path style=" stroke:none;fill-rule:evenodd;fill:rgb(57.647059%,52.156863%,54.117647%);fill-opacity:1;" d="M 18.257812 30.351562 C 18.203125 30.65625 18.136719 30.960938 18.066406 31.261719 C 18.019531 31.386719 17.988281 31.511719 17.96875 31.644531 C 17.9375 31.695312 17.886719 31.726562 17.828125 31.742188 C 17.949219 31.265625 18.09375 30.800781 18.257812 30.351562 Z M 18.257812 30.351562 "/>
</g>
<mask id="mask21">
  <g filter="url(#alpha)">
<rect x="0" y="0" width="50" height="50" style="fill:rgb(0%,0%,0%);fill-opacity:0.992157;stroke:none;"/>
  </g>
</mask>
<clipPath id="clip22">
  <rect width="50" height="50"/>
</clipPath>
<g id="surface69" clip-path="url(#clip22)">
<path style=" stroke:none;fill-rule:evenodd;fill:rgb(66.27451%,22.745098%,17.647059%);fill-opacity:1;" d="M 17.585938 32.652344 C 17.292969 33.503906 16.988281 34.351562 16.675781 35.195312 C 16.6875 35.289062 16.664062 35.386719 16.601562 35.484375 C 15.886719 36.515625 15.230469 37.589844 14.636719 38.699219 C 14.3125 39.203125 13.976562 39.699219 13.628906 40.1875 C 13.59375 40.265625 13.601562 40.335938 13.652344 40.402344 C 13.460938 40.5625 13.460938 40.722656 13.652344 40.882812 C 14.058594 41.015625 14.457031 41.152344 14.851562 41.289062 C 12.289062 41.84375 9.699219 42.117188 7.078125 42.105469 C 5.765625 40.234375 4.453125 38.363281 3.144531 36.492188 C 5.613281 35.863281 8.074219 35.199219 10.53125 34.5 C 11.828125 34.121094 13.105469 33.714844 14.371094 33.277344 C 14.433594 33.289062 14.480469 33.273438 14.515625 33.230469 C 14.53125 33.230469 14.546875 33.230469 14.5625 33.230469 C 14.609375 33.238281 14.644531 33.222656 14.660156 33.179688 C 14.691406 33.179688 14.722656 33.179688 14.753906 33.179688 C 14.789062 33.179688 14.804688 33.164062 14.804688 33.132812 C 15.753906 32.863281 16.695312 32.578125 17.632812 32.269531 C 17.648438 32.285156 17.667969 32.300781 17.683594 32.316406 C 17.628906 32.425781 17.597656 32.535156 17.585938 32.652344 Z M 17.585938 32.652344 "/>
</g>
<mask id="mask22">
  <g filter="url(#alpha)">
<rect x="0" y="0" width="50" height="50" style="fill:rgb(0%,0%,0%);fill-opacity:0.12549;stroke:none;"/>
  </g>
</mask>
<clipPath id="clip23">
  <rect width="50" height="50"/>
</clipPath>
<g id="surface72" clip-path="url(#clip23)">
<path style=" stroke:none;fill-rule:evenodd;fill:rgb(11.372549%,11.764706%,11.372549%);fill-opacity:1;" d="M 35.820312 34.667969 C 35.878906 34.714844 35.871094 34.765625 35.796875 34.8125 C 35.773438 34.761719 35.78125 34.714844 35.820312 34.667969 Z M 35.820312 34.667969 "/>
</g>
<mask id="mask23">
  <g filter="url(#alpha)">
<rect x="0" y="0" width="50" height="50" style="fill:rgb(0%,0%,0%);fill-opacity:0.992157;stroke:none;"/>
  </g>
</mask>
<clipPath id="clip24">
  <rect width="50" height="50"/>
</clipPath>
<g id="surface75" clip-path="url(#clip24)">
<path style=" stroke:none;fill-rule:evenodd;fill:rgb(12.941176%,12.156863%,11.764706%);fill-opacity:1;" d="M 16.675781 35.195312 C 16.78125 35.242188 16.890625 35.25 17.011719 35.222656 C 16.734375 35.4375 16.765625 35.574219 17.105469 35.628906 C 16.207031 36.964844 15.375 38.324219 14.609375 39.707031 C 15.136719 39.476562 15.664062 39.46875 16.195312 39.683594 C 16.738281 39.960938 16.882812 40.367188 16.625 40.90625 C 16.589844 40.96875 16.539062 41.023438 16.484375 41.074219 C 15.957031 41.296875 15.414062 41.367188 14.851562 41.289062 C 14.457031 41.152344 14.058594 41.015625 13.652344 40.882812 C 13.460938 40.722656 13.460938 40.5625 13.652344 40.402344 C 13.601562 40.335938 13.59375 40.265625 13.628906 40.1875 C 13.976562 39.699219 14.3125 39.203125 14.636719 38.699219 C 15.230469 37.589844 15.886719 36.515625 16.601562 35.484375 C 16.664062 35.386719 16.6875 35.289062 16.675781 35.195312 Z M 16.675781 35.195312 "/>
</g>
</defs>
<g id="surface1">
<use xlink:href="#surface6" mask="url(#mask0)"/>
<use xlink:href="#surface9" mask="url(#mask1)"/>
<use xlink:href="#surface12" mask="url(#mask2)"/>
<use xlink:href="#surface15" mask="url(#mask3)"/>
<path style=" stroke:none;fill-rule:evenodd;fill:rgb(94.117647%,92.54902%,89.803922%);fill-opacity:1;" d="M 25.265625 4.726562 C 25.296875 4.726562 25.3125 4.742188 25.3125 4.773438 C 25.519531 5.015625 25.742188 5.238281 25.984375 5.445312 C 25.980469 5.519531 26.011719 5.566406 26.078125 5.589844 C 26.113281 5.589844 26.128906 5.605469 26.128906 5.636719 C 26.121094 5.6875 26.136719 5.71875 26.175781 5.734375 C 26.207031 5.734375 26.222656 5.75 26.222656 5.78125 C 26.433594 6.304688 26.515625 6.847656 26.464844 7.414062 C 25.882812 7.5625 25.371094 7.832031 24.929688 8.230469 C 24.945312 8.246094 24.960938 8.261719 24.976562 8.277344 C 25.410156 7.964844 25.890625 7.757812 26.414062 7.652344 C 26.46875 8.03125 26.46875 8.414062 26.414062 8.804688 C 25.890625 9.210938 25.332031 9.570312 24.734375 9.886719 C 24.628906 9.96875 24.546875 10.074219 24.496094 10.195312 C 24.542969 10.371094 24.65625 10.429688 24.832031 10.363281 C 24.863281 10.316406 24.894531 10.269531 24.929688 10.222656 C 25.386719 9.953125 25.832031 9.671875 26.273438 9.382812 C 25.78125 10.699219 25.195312 11.980469 24.519531 13.21875 C 23.9375 13.839844 23.257812 14.3125 22.480469 14.636719 C 21.347656 15.039062 20.441406 14.746094 19.769531 13.746094 C 19.191406 12.796875 19 11.773438 19.195312 10.675781 C 19.402344 9.09375 19.898438 7.605469 20.679688 6.214844 C 20.945312 5.691406 21.316406 5.261719 21.785156 4.917969 C 21.886719 5.011719 22.007812 5.035156 22.144531 4.992188 C 23.113281 4.152344 24.152344 4.0625 25.265625 4.726562 Z M 25.265625 4.726562 "/>
<use xlink:href="#surface18" mask="url(#mask4)"/>
<path style=" stroke:none;fill-rule:evenodd;fill:rgb(6.666667%,6.666667%,6.27451%);fill-opacity:1;" d="M 25.601562 5.6875 C 25.871094 5.671875 26.03125 5.796875 26.078125 6.070312 C 26.046875 6.238281 25.953125 6.292969 25.792969 6.238281 C 25.726562 6.183594 25.683594 6.109375 25.671875 6.023438 C 25.609375 6.105469 25.554688 6.195312 25.503906 6.285156 C 25.332031 6.316406 25.277344 6.242188 25.335938 6.070312 C 25.398438 5.921875 25.484375 5.792969 25.601562 5.6875 Z M 25.601562 5.6875 "/>
<path style=" stroke:none;fill-rule:evenodd;fill:rgb(3.921569%,3.921569%,3.921569%);fill-opacity:1;" d="M 22.863281 5.972656 C 23.265625 5.9375 23.480469 6.113281 23.511719 6.5 C 23.449219 6.636719 23.347656 6.675781 23.199219 6.621094 C 23.164062 6.539062 23.140625 6.449219 23.128906 6.359375 C 23.0625 6.308594 22.988281 6.300781 22.914062 6.332031 C 22.671875 6.566406 22.511719 6.847656 22.433594 7.171875 C 22.375 7.21875 22.3125 7.234375 22.242188 7.222656 C 22.285156 6.820312 22.421875 6.453125 22.648438 6.117188 C 22.726562 6.074219 22.800781 6.027344 22.863281 5.972656 Z M 22.863281 5.972656 "/>
<path style=" stroke:none;fill-rule:evenodd;fill:rgb(44.313725%,15.294118%,12.156863%);fill-opacity:1;" d="M 10.773438 6.886719 C 10.078125 6.972656 9.371094 7.054688 8.660156 7.125 C 9.351562 6.972656 10.054688 6.890625 10.773438 6.886719 Z M 10.773438 6.886719 "/>
<use xlink:href="#surface21" mask="url(#mask5)"/>
<use xlink:href="#surface24" mask="url(#mask6)"/>
<use xlink:href="#surface27" mask="url(#mask7)"/>
<use xlink:href="#surface30" mask="url(#mask8)"/>
<use xlink:href="#surface33" mask="url(#mask9)"/>
<use xlink:href="#surface36" mask="url(#mask10)"/>
<path style=" stroke:none;fill-rule:evenodd;fill:rgb(62.352941%,56.470588%,58.431373%);fill-opacity:1;" d="M 35.148438 8.996094 C 35.15625 9.285156 35.148438 9.574219 35.125 9.859375 C 33.214844 11.484375 31.300781 13.109375 29.390625 14.730469 C 28.757812 15.296875 28.132812 15.871094 27.519531 16.457031 C 26.980469 17.085938 26.386719 17.652344 25.742188 18.164062 C 26.09375 16.742188 26.421875 15.320312 26.726562 13.890625 C 26.773438 13.679688 26.847656 13.480469 26.945312 13.292969 C 27.601562 13.027344 28.273438 12.804688 28.957031 12.621094 C 29.742188 12.164062 30.539062 11.734375 31.359375 11.324219 C 32.59375 10.5 33.855469 9.722656 35.148438 8.996094 Z M 35.148438 8.996094 "/>
<use xlink:href="#surface39" mask="url(#mask11)"/>
<use xlink:href="#surface42" mask="url(#mask12)"/>
<use xlink:href="#surface45" mask="url(#mask13)"/>
<path style=" stroke:none;fill-rule:evenodd;fill:rgb(5.490196%,5.490196%,5.098039%);fill-opacity:1;" d="M 22.386719 11.203125 C 22.457031 11.191406 22.519531 11.207031 22.578125 11.253906 C 22.765625 11.558594 23.019531 11.792969 23.34375 11.949219 C 23.511719 11.988281 23.671875 11.972656 23.824219 11.898438 C 23.953125 11.722656 24.082031 11.546875 24.207031 11.371094 C 24.355469 11.320312 24.449219 11.367188 24.496094 11.515625 C 24.015625 12.402344 23.417969 12.488281 22.695312 11.78125 C 22.578125 11.59375 22.476562 11.402344 22.386719 11.203125 Z M 22.386719 11.203125 "/>
<use xlink:href="#surface48" mask="url(#mask14)"/>
<path style=" stroke:none;fill-rule:evenodd;fill:rgb(62.745098%,56.862745%,58.823529%);fill-opacity:1;" d="M 23.535156 28.144531 C 23.300781 28.300781 23.042969 28.421875 22.769531 28.503906 C 21.511719 28.851562 20.246094 29.179688 18.976562 29.488281 C 19.011719 29.144531 19.082031 28.808594 19.195312 28.480469 C 19.203125 28.019531 19.242188 27.5625 19.3125 27.109375 C 19.050781 25.332031 18.804688 23.546875 18.570312 21.761719 C 18.535156 21.511719 18.480469 21.269531 18.402344 21.042969 C 18.402344 21.023438 18.402344 21.007812 18.402344 20.992188 C 18.21875 19.675781 17.996094 18.363281 17.730469 17.058594 C 17.734375 16.996094 17.75 16.941406 17.777344 16.890625 C 18.769531 16.378906 19.730469 15.820312 20.65625 15.210938 C 20.996094 15.261719 21.339844 15.304688 21.6875 15.332031 C 22.269531 15.34375 22.789062 15.175781 23.25 14.828125 C 23.738281 14.644531 24.1875 14.390625 24.59375 14.058594 C 25.148438 13.882812 25.710938 13.707031 26.273438 13.53125 C 26.335938 13.5 26.398438 13.5 26.464844 13.53125 C 25.425781 17.484375 24.457031 21.457031 23.558594 25.457031 C 23.320312 26.085938 23.089844 26.71875 22.863281 27.351562 C 22.921875 27.429688 22.960938 27.515625 22.984375 27.613281 C 22.992188 27.824219 23.015625 28.03125 23.054688 28.238281 C 23.152344 28.1875 23.21875 28.105469 23.25 28 C 23.359375 28.03125 23.453125 28.078125 23.535156 28.144531 Z M 23.535156 28.144531 "/>
<path style=" stroke:none;fill-rule:evenodd;fill:rgb(61.960784%,56.078431%,58.039216%);fill-opacity:1;" d="M 17.921875 20.992188 C 17.84375 21.195312 17.714844 21.363281 17.539062 21.496094 C 17.003906 21.800781 16.574219 22.207031 16.242188 22.722656 C 16.296875 22.929688 16.386719 23.121094 16.507812 23.296875 C 16.765625 23.613281 17.015625 23.929688 17.25 24.257812 C 16.507812 23.859375 15.769531 23.453125 15.042969 23.03125 C 15.878906 21.257812 16.625 19.441406 17.273438 17.585938 C 17.53125 18.714844 17.746094 19.847656 17.921875 20.992188 Z M 17.921875 20.992188 "/>
<use xlink:href="#surface51" mask="url(#mask15)"/>
<use xlink:href="#surface54" mask="url(#mask16)"/>
<use xlink:href="#surface57" mask="url(#mask17)"/>
<use xlink:href="#surface60" mask="url(#mask18)"/>
<path style=" stroke:none;fill-rule:evenodd;fill:rgb(98.823529%,98.823529%,98.823529%);fill-opacity:1;" d="M 17.683594 32.605469 C 17.820312 32.316406 17.933594 32.011719 18.019531 31.695312 C 18.28125 31.003906 18.550781 30.316406 18.832031 29.628906 C 20.269531 29.238281 21.707031 28.863281 23.152344 28.503906 C 23.558594 28.25 23.964844 28 24.375 27.757812 C 25.441406 28.105469 26.503906 28.460938 27.566406 28.816406 C 27.582031 28.855469 27.597656 28.894531 27.613281 28.933594 C 27.417969 29.785156 27.25 30.640625 27.109375 31.5 C 27.089844 31.523438 27.066406 31.539062 27.039062 31.550781 C 25.097656 30.96875 23.152344 30.394531 21.210938 29.824219 C 20.683594 30.703125 20.15625 31.582031 19.625 32.460938 C 19.332031 32.902344 19.03125 33.332031 18.714844 33.757812 C 18.386719 34.117188 18.027344 34.445312 17.632812 34.742188 C 17.363281 34.921875 17.078125 35.050781 16.769531 35.125 C 17.09375 34.292969 17.398438 33.453125 17.683594 32.605469 Z M 17.683594 32.605469 "/>
<use xlink:href="#surface63" mask="url(#mask19)"/>
<use xlink:href="#surface66" mask="url(#mask20)"/>
<use xlink:href="#surface69" mask="url(#mask21)"/>
<path style=" stroke:none;fill-rule:evenodd;fill:rgb(61.568627%,53.333333%,54.901961%);fill-opacity:1;" d="M 19.792969 32.988281 C 19.558594 33.542969 19.175781 33.960938 18.640625 34.238281 C 19.027344 33.820312 19.410156 33.402344 19.792969 32.988281 Z M 19.792969 32.988281 "/>
<path style=" stroke:none;fill-rule:evenodd;fill:rgb(97.647059%,97.647059%,97.647059%);fill-opacity:1;" d="M 29.246094 33.324219 C 30.265625 33.285156 30.378906 33.582031 29.582031 34.214844 C 28.875 34.625 28.117188 34.871094 27.304688 34.957031 C 27.109375 34.96875 26.933594 34.917969 26.777344 34.8125 C 26.738281 34.679688 26.753906 34.550781 26.824219 34.429688 C 27.207031 34.074219 27.644531 33.808594 28.144531 33.636719 C 28.511719 33.507812 28.878906 33.40625 29.246094 33.324219 Z M 29.246094 33.324219 "/>
<use xlink:href="#surface72" mask="url(#mask22)"/>
<use xlink:href="#surface75" mask="url(#mask23)"/>
<path style=" stroke:none;fill-rule:evenodd;fill:rgb(98.039216%,98.039216%,98.039216%);fill-opacity:1;" d="M 15.042969 39.898438 C 15.457031 39.863281 15.859375 39.917969 16.242188 40.066406 C 16.40625 40.230469 16.429688 40.414062 16.316406 40.617188 C 15.757812 41.0625 15.140625 41.167969 14.46875 40.929688 C 14.148438 40.679688 14.148438 40.421875 14.46875 40.164062 C 14.65625 40.058594 14.851562 39.972656 15.042969 39.898438 Z M 15.042969 39.898438 "/>
</g>
</svg>
