<?xml version="1.0" encoding="UTF-8"?>
<svg xmlns="http://www.w3.org/2000/svg" xmlns:xlink="http://www.w3.org/1999/xlink" width="50pt" height="50pt" viewBox="0 0 50 50" version="1.1">
<defs>
<filter id="alpha" filterUnits="objectBoundingBox" x="0%" y="0%" width="100%" height="100%">
  <feColorMatrix type="matrix" in="SourceGraphic" values="0 0 0 0 1 0 0 0 0 1 0 0 0 0 1 0 0 0 1 0"/>
</filter>
<mask id="mask0">
  <g filter="url(#alpha)">
<rect x="0" y="0" width="50" height="50" style="fill:rgb(0%,0%,0%);fill-opacity:0.996078;stroke:none;"/>
  </g>
</mask>
<clipPath id="clip1">
  <rect width="50" height="50"/>
</clipPath>
<g id="surface6" clip-path="url(#clip1)">
<path style=" stroke:none;fill-rule:evenodd;fill:rgb(0%,0%,0%);fill-opacity:1;" d="M 41.273438 47.613281 C 40.785156 47.621094 40.296875 47.609375 39.808594 47.574219 C 38.023438 47.34375 36.242188 47.101562 34.457031 46.855469 C 33.3125 46.777344 32.167969 46.695312 31.023438 46.617188 C 30.441406 46.554688 29.855469 46.484375 29.273438 46.398438 C 28.546875 46.273438 27.816406 46.15625 27.089844 46.050781 C 27.035156 46.058594 26.988281 46.050781 26.945312 46.027344 C 26.855469 45.992188 26.757812 45.976562 26.65625 45.980469 C 25.921875 45.867188 25.1875 45.78125 24.449219 45.726562 C 23.3125 45.660156 22.175781 45.597656 21.039062 45.535156 C 20.636719 45.511719 20.238281 45.472656 19.839844 45.414062 C 19.445312 45.410156 19.054688 45.394531 18.664062 45.367188 C 18.410156 45.335938 18.207031 45.21875 18.050781 45.019531 C 17.949219 44.859375 17.871094 44.691406 17.824219 44.515625 C 17.777344 44.15625 17.730469 43.796875 17.691406 43.433594 C 17.234375 41.777344 16.832031 40.105469 16.492188 38.417969 C 15.539062 33.839844 14.625 29.257812 13.753906 24.664062 C 13.214844 22.292969 12.710938 19.917969 12.242188 17.535156 C 11.972656 16.078125 11.75 14.613281 11.570312 13.140625 C 11.542969 12.414062 11.527344 11.6875 11.523438 10.957031 C 11.46875 10.621094 11.414062 10.285156 11.355469 9.949219 C 11.289062 9.449219 11.410156 9.003906 11.714844 8.605469 C 11.90625 8.382812 12.109375 8.175781 12.324219 7.980469 C 12.636719 7.699219 12.945312 7.410156 13.25 7.117188 C 13.699219 6.617188 14.160156 6.128906 14.640625 5.652344 C 14.675781 5.539062 14.75 5.480469 14.871094 5.472656 C 15.136719 5.230469 15.429688 5.039062 15.757812 4.898438 C 15.910156 4.910156 16.0625 4.917969 16.214844 4.921875 C 17.167969 4.722656 18.128906 4.554688 19.09375 4.417969 C 21.34375 4.125 23.589844 3.847656 25.839844 3.578125 C 27.25 3.363281 28.65625 3.140625 30.066406 2.90625 C 30.871094 2.808594 31.679688 2.726562 32.488281 2.664062 C 33.648438 2.507812 34.808594 2.363281 35.96875 2.230469 C 36.539062 2.191406 37.105469 2.15625 37.675781 2.125 C 38.3125 2.09375 38.75 2.375 38.980469 2.964844 C 39.082031 3.238281 39.160156 3.519531 39.222656 3.804688 C 39.359375 4.5625 39.484375 5.324219 39.605469 6.085938 C 39.894531 7.285156 40.183594 8.484375 40.46875 9.6875 C 40.699219 10.746094 40.90625 11.808594 41.09375 12.878906 C 41.613281 16.222656 42.132812 19.566406 42.65625 22.910156 C 43.015625 24.6875 43.386719 26.464844 43.757812 28.242188 C 43.902344 29.3125 44.027344 30.382812 44.144531 31.457031 C 44.445312 33.558594 44.734375 35.664062 45.007812 37.769531 C 45.140625 38.738281 45.296875 39.703125 45.476562 40.664062 C 45.472656 41.101562 45.296875 41.457031 44.945312 41.71875 C 44.773438 41.824219 44.589844 41.914062 44.394531 41.984375 C 44.078125 42.066406 43.757812 42.136719 43.433594 42.1875 C 43.382812 42.304688 43.339844 42.425781 43.304688 42.546875 C 43.242188 42.980469 43.171875 43.414062 43.085938 43.84375 C 42.875 44.746094 42.675781 45.648438 42.488281 46.554688 C 42.367188 47.003906 42.097656 47.328125 41.683594 47.527344 C 41.550781 47.574219 41.414062 47.601562 41.273438 47.613281 Z M 30.738281 3.492188 C 30.277344 3.570312 29.8125 3.636719 29.34375 3.683594 C 29.800781 3.59375 30.265625 3.527344 30.738281 3.492188 Z M 17.199219 5.652344 C 17.558594 13.644531 17.917969 21.640625 18.277344 29.632812 C 18.011719 27.597656 17.753906 25.554688 17.5 23.511719 C 17.089844 19.757812 16.664062 16.003906 16.226562 12.253906 C 16.136719 11.570312 16.03125 10.890625 15.914062 10.214844 C 15.6875 9.042969 15.457031 7.871094 15.230469 6.695312 C 15.230469 6.65625 15.246094 6.625 15.277344 6.601562 C 15.597656 6.328125 15.933594 6.082031 16.285156 5.855469 C 16.585938 5.765625 16.890625 5.699219 17.199219 5.652344 Z M 18.757812 40.003906 C 18.777344 40.3125 18.792969 40.625 18.808594 40.9375 C 18.726562 40.933594 18.648438 40.949219 18.578125 40.988281 C 18.566406 40.972656 18.5625 40.957031 18.566406 40.9375 C 18.621094 40.621094 18.683594 40.308594 18.757812 40.003906 Z M 18.855469 41.730469 C 18.851562 41.972656 18.859375 42.210938 18.878906 42.449219 C 18.832031 42.480469 18.792969 42.519531 18.769531 42.570312 C 18.730469 42.285156 18.691406 41.996094 18.664062 41.707031 C 18.726562 41.722656 18.789062 41.730469 18.855469 41.730469 Z M 18.925781 43.386719 C 18.933594 43.675781 18.941406 43.964844 18.949219 44.25 C 18.917969 43.949219 18.890625 43.644531 18.867188 43.339844 C 18.882812 43.359375 18.902344 43.375 18.925781 43.386719 Z M 18.925781 43.386719 "/>
</g>
<mask id="mask1">
  <g filter="url(#alpha)">
<rect x="0" y="0" width="50" height="50" style="fill:rgb(0%,0%,0%);fill-opacity:0.988235;stroke:none;"/>
  </g>
</mask>
<clipPath id="clip2">
  <rect width="50" height="50"/>
</clipPath>
<g id="surface9" clip-path="url(#clip2)">
<path style=" stroke:none;fill-rule:evenodd;fill:rgb(65.882353%,22.745098%,17.647059%);fill-opacity:1;" d="M 12.324219 7.980469 C 12.109375 8.175781 11.90625 8.382812 11.714844 8.605469 C 11.410156 9.003906 11.289062 9.449219 11.355469 9.949219 C 11.414062 10.285156 11.46875 10.621094 11.523438 10.957031 C 11.527344 11.6875 11.542969 12.414062 11.570312 13.140625 C 11.75 14.613281 11.972656 16.078125 12.242188 17.535156 C 12.710938 19.917969 13.214844 22.292969 13.753906 24.664062 C 14.625 29.257812 15.539062 33.839844 16.492188 38.417969 C 16.832031 40.105469 17.234375 41.777344 17.691406 43.433594 C 17.730469 43.796875 17.777344 44.15625 17.824219 44.515625 C 17.722656 44.972656 17.625 45.425781 17.523438 45.882812 C 14.828125 34.015625 12.140625 22.148438 9.46875 10.273438 C 9.46875 10.234375 9.484375 10.199219 9.515625 10.175781 C 10.445312 9.433594 11.382812 8.703125 12.324219 7.980469 Z M 12.324219 7.980469 "/>
</g>
<mask id="mask2">
  <g filter="url(#alpha)">
<rect x="0" y="0" width="50" height="50" style="fill:rgb(0%,0%,0%);fill-opacity:0.956863;stroke:none;"/>
  </g>
</mask>
<clipPath id="clip3">
  <rect width="50" height="50"/>
</clipPath>
<g id="surface12" clip-path="url(#clip3)">
<path style=" stroke:none;fill-rule:evenodd;fill:rgb(65.098039%,22.352941%,17.254902%);fill-opacity:1;" d="M 18.78125 39.808594 C 18.757812 39.871094 18.75 39.933594 18.757812 40.003906 C 18.683594 40.308594 18.621094 40.621094 18.566406 40.9375 C 18.496094 40.535156 18.4375 40.128906 18.398438 39.714844 C 18.40625 39.699219 18.414062 39.683594 18.421875 39.667969 C 18.546875 39.714844 18.664062 39.761719 18.78125 39.808594 Z M 18.78125 39.808594 "/>
</g>
<mask id="mask3">
  <g filter="url(#alpha)">
<rect x="0" y="0" width="50" height="50" style="fill:rgb(0%,0%,0%);fill-opacity:0.996078;stroke:none;"/>
  </g>
</mask>
<clipPath id="clip4">
  <rect width="50" height="50"/>
</clipPath>
<g id="surface15" clip-path="url(#clip4)">
<path style=" stroke:none;fill-rule:evenodd;fill:rgb(71.764706%,70.196078%,68.235294%);fill-opacity:1;" d="M 18.78125 39.808594 C 20.753906 40.355469 22.757812 40.773438 24.785156 41.070312 C 23.046875 41.097656 21.3125 41.074219 19.574219 41 C 19.3125 40.996094 19.058594 40.976562 18.808594 40.9375 C 18.792969 40.625 18.777344 40.3125 18.757812 40.003906 C 18.75 39.933594 18.757812 39.871094 18.78125 39.808594 Z M 18.78125 39.808594 "/>
</g>
<mask id="mask4">
  <g filter="url(#alpha)">
<rect x="0" y="0" width="50" height="50" style="fill:rgb(0%,0%,0%);fill-opacity:0.815686;stroke:none;"/>
  </g>
</mask>
<clipPath id="clip5">
  <rect width="50" height="50"/>
</clipPath>
<g id="surface18" clip-path="url(#clip5)">
<path style=" stroke:none;fill-rule:evenodd;fill:rgb(55.686275%,54.117647%,52.941176%);fill-opacity:1;" d="M 26.65625 45.980469 C 26.757812 45.976562 26.855469 45.992188 26.945312 46.027344 C 26.84375 46.027344 26.746094 46.011719 26.65625 45.980469 Z M 26.65625 45.980469 "/>
</g>
<mask id="mask5">
  <g filter="url(#alpha)">
<rect x="0" y="0" width="50" height="50" style="fill:rgb(0%,0%,0%);fill-opacity:0.972549;stroke:none;"/>
  </g>
</mask>
<clipPath id="clip6">
  <rect width="50" height="50"/>
</clipPath>
<g id="surface21" clip-path="url(#clip6)">
<path style=" stroke:none;fill-rule:evenodd;fill:rgb(72.54902%,70.980392%,69.019608%);fill-opacity:1;" d="M 27.089844 46.050781 C 27.816406 46.15625 28.546875 46.273438 29.273438 46.398438 C 29.855469 46.484375 30.441406 46.554688 31.023438 46.617188 C 32.167969 46.695312 33.3125 46.777344 34.457031 46.855469 C 36.242188 47.101562 38.023438 47.34375 39.808594 47.574219 C 40.296875 47.609375 40.785156 47.621094 41.273438 47.613281 C 41.234375 47.863281 41.183594 48.109375 41.117188 48.355469 C 41.101562 48.382812 41.078125 48.398438 41.046875 48.402344 C 36.390625 47.628906 31.734375 46.84375 27.089844 46.050781 Z M 27.089844 46.050781 "/>
</g>
</defs>
<g id="surface1">
<use xlink:href="#surface6" mask="url(#mask0)"/>
<path style=" stroke:none;fill-rule:evenodd;fill:rgb(72.941176%,71.372549%,69.411765%);fill-opacity:1;" d="M 18.277344 29.679688 C 18.277344 29.664062 18.277344 29.648438 18.277344 29.632812 C 17.917969 21.640625 17.558594 13.644531 17.199219 5.652344 C 17.203125 5.636719 17.210938 5.625 17.222656 5.617188 C 18.050781 5.449219 18.882812 5.296875 19.71875 5.160156 C 21.589844 4.882812 23.460938 4.621094 25.335938 4.367188 C 26.566406 4.175781 27.792969 3.964844 29.007812 3.734375 C 29.070312 3.738281 29.125 3.730469 29.175781 3.707031 C 29.238281 3.714844 29.292969 3.707031 29.34375 3.683594 C 29.8125 3.636719 30.277344 3.570312 30.738281 3.492188 C 30.796875 3.5 30.855469 3.492188 30.90625 3.46875 C 30.964844 3.476562 31.023438 3.46875 31.074219 3.445312 C 32.644531 3.308594 34.210938 3.144531 35.777344 2.953125 C 36.277344 2.933594 36.777344 2.902344 37.277344 2.867188 C 37.652344 2.804688 37.898438 2.945312 38.023438 3.300781 C 38.109375 3.558594 38.164062 3.820312 38.191406 4.09375 C 38.257812 5.121094 38.367188 6.144531 38.527344 7.164062 C 38.75 8.296875 39 9.425781 39.269531 10.550781 C 39.429688 11.355469 39.574219 12.164062 39.703125 12.972656 C 40.03125 15.496094 40.359375 18.015625 40.6875 20.535156 C 40.902344 22.011719 41.136719 23.480469 41.382812 24.953125 C 41.675781 26.183594 41.941406 27.425781 42.175781 28.671875 C 42.328125 29.855469 42.457031 31.039062 42.558594 32.226562 C 42.890625 34.914062 43.222656 37.601562 43.554688 40.289062 C 41.195312 40.652344 38.828125 40.726562 36.449219 40.519531 C 35.167969 40.359375 33.886719 40.183594 32.609375 39.992188 C 30.96875 39.832031 29.328125 39.6875 27.6875 39.558594 C 25.296875 39.339844 22.933594 38.929688 20.605469 38.335938 C 20.261719 38.242188 19.914062 38.136719 19.574219 38.023438 C 19.367188 37.492188 19.21875 36.941406 19.132812 36.378906 C 18.796875 34.148438 18.511719 31.914062 18.277344 29.679688 Z M 18.277344 29.679688 "/>
<path style=" stroke:none;fill-rule:evenodd;fill:rgb(66.27451%,22.745098%,17.647059%);fill-opacity:1;" d="M 14.917969 6.925781 C 15.265625 8.679688 15.542969 10.445312 15.746094 12.230469 C 15.976562 14.5 16.195312 16.773438 16.394531 19.046875 C 16.566406 21.386719 16.757812 23.722656 16.972656 26.054688 C 17.261719 28.734375 17.523438 31.414062 17.761719 34.097656 C 17.898438 35.195312 18.023438 36.289062 18.136719 37.386719 C 17.859375 37.289062 17.585938 37.296875 17.320312 37.410156 C 16.558594 33.710938 15.828125 30.007812 15.121094 26.296875 C 14.503906 23.519531 13.921875 20.734375 13.371094 17.941406 C 13.042969 16.324219 12.804688 14.691406 12.648438 13.046875 C 12.601562 12.238281 12.578125 11.429688 12.578125 10.621094 C 12.535156 10.386719 12.476562 10.15625 12.410156 9.925781 C 12.390625 9.78125 12.398438 9.636719 12.433594 9.492188 C 12.53125 9.261719 12.679688 9.066406 12.878906 8.90625 C 13.113281 8.71875 13.347656 8.527344 13.574219 8.328125 C 14.027344 7.863281 14.472656 7.398438 14.917969 6.925781 Z M 14.917969 6.925781 "/>
<use xlink:href="#surface9" mask="url(#mask1)"/>
<path style=" stroke:none;fill-rule:evenodd;fill:rgb(1.176471%,0.784314%,0.784314%);fill-opacity:1;" d="M 33.449219 11.679688 C 33.660156 11.671875 33.867188 11.683594 34.074219 11.714844 C 34.40625 11.824219 34.476562 12.027344 34.277344 12.324219 C 34.148438 12.527344 33.976562 12.570312 33.761719 12.457031 C 33.703125 12.363281 33.617188 12.328125 33.507812 12.351562 C 33.222656 12.386719 32.9375 12.4375 32.65625 12.507812 C 31.609375 12.578125 30.5625 12.652344 29.511719 12.722656 C 27.296875 12.972656 25.070312 13.078125 22.839844 13.035156 C 22.613281 12.921875 22.550781 12.746094 22.660156 12.519531 C 22.695312 12.472656 22.742188 12.4375 22.792969 12.410156 C 23.800781 12.402344 24.808594 12.394531 25.816406 12.386719 C 26.121094 12.375 26.425781 12.359375 26.726562 12.339844 C 27.679688 12.242188 28.632812 12.148438 29.585938 12.050781 C 30.503906 11.992188 31.425781 11.929688 32.34375 11.859375 C 32.714844 11.792969 33.085938 11.734375 33.449219 11.679688 Z M 33.449219 11.679688 "/>
<path style=" stroke:none;fill-rule:evenodd;fill:rgb(0.392157%,0.392157%,0.392157%);fill-opacity:1;" d="M 34.53125 16.335938 C 34.8125 16.308594 35.082031 16.34375 35.34375 16.441406 C 35.710938 16.632812 35.902344 16.9375 35.921875 17.355469 C 35.910156 17.722656 35.726562 17.957031 35.371094 18.050781 C 35.011719 18.140625 34.710938 18.046875 34.46875 17.773438 C 33.742188 17.929688 33.011719 18.050781 32.273438 18.148438 C 29.988281 18.449219 27.699219 18.738281 25.40625 19.011719 C 24.632812 19.085938 23.855469 19.152344 23.078125 19.203125 C 22.878906 19.222656 22.679688 19.214844 22.480469 19.179688 C 22.308594 19.097656 22.203125 18.964844 22.15625 18.78125 C 22.074219 18.355469 22.238281 18.070312 22.648438 17.929688 C 24.214844 17.824219 25.773438 17.664062 27.328125 17.449219 C 29.066406 17.207031 30.800781 16.960938 32.539062 16.707031 C 33.207031 16.601562 33.871094 16.476562 34.53125 16.335938 Z M 34.53125 16.335938 "/>
<use xlink:href="#surface12" mask="url(#mask2)"/>
<use xlink:href="#surface15" mask="url(#mask3)"/>
<path style=" stroke:none;fill-rule:evenodd;fill:rgb(72.941176%,71.372549%,69.411765%);fill-opacity:1;" d="M 18.855469 41.730469 C 23.332031 42.042969 27.816406 42.074219 32.296875 41.828125 C 33.582031 41.941406 34.863281 42.097656 36.136719 42.292969 C 36.585938 42.324219 37.035156 42.355469 37.480469 42.390625 C 38.648438 42.40625 39.816406 42.40625 40.988281 42.390625 C 41.398438 42.367188 41.804688 42.324219 42.210938 42.257812 C 42.234375 42.265625 42.257812 42.273438 42.28125 42.28125 C 42.203125 42.671875 42.128906 43.066406 42.054688 43.457031 C 41.851562 44.179688 41.683594 44.90625 41.550781 45.644531 C 41.480469 45.882812 41.40625 46.125 41.335938 46.363281 C 41.296875 46.417969 41.242188 46.453125 41.179688 46.472656 C 40.632812 46.492188 40.089844 46.484375 39.546875 46.449219 C 39.082031 46.390625 38.617188 46.335938 38.152344 46.28125 C 37.132812 46.109375 36.109375 45.949219 35.082031 45.800781 C 33.875 45.703125 32.667969 45.621094 31.457031 45.558594 C 30.785156 45.492188 30.113281 45.410156 29.441406 45.320312 C 27.949219 45.054688 26.453125 44.832031 24.953125 44.648438 C 23.824219 44.578125 22.695312 44.519531 21.566406 44.480469 C 20.90625 44.453125 20.25 44.382812 19.597656 44.261719 C 19.382812 44.25 19.167969 44.246094 18.949219 44.25 C 18.941406 43.964844 18.933594 43.675781 18.925781 43.386719 C 18.996094 43.421875 19.066406 43.449219 19.144531 43.472656 C 20.917969 43.78125 22.703125 44.003906 24.496094 44.144531 C 25.671875 44.230469 26.847656 44.246094 28.023438 44.191406 C 28.464844 44.039062 28.609375 43.738281 28.46875 43.289062 C 28.375 43.109375 28.226562 43 28.023438 42.96875 C 26.304688 42.882812 24.582031 42.785156 22.863281 42.679688 C 22.253906 42.628906 21.648438 42.574219 21.039062 42.511719 C 20.472656 42.429688 19.90625 42.359375 19.335938 42.308594 C 19.160156 42.292969 19.007812 42.339844 18.878906 42.449219 C 18.859375 42.210938 18.851562 41.972656 18.855469 41.730469 Z M 18.855469 41.730469 "/>
<use xlink:href="#surface18" mask="url(#mask4)"/>
<use xlink:href="#surface21" mask="url(#mask5)"/>
</g>
</svg>
