<?xml version="1.0" encoding="UTF-8"?>
<svg xmlns="http://www.w3.org/2000/svg" xmlns:xlink="http://www.w3.org/1999/xlink" width="50pt" height="50pt" viewBox="0 0 50 50" version="1.1">
<defs>
<filter id="alpha" filterUnits="objectBoundingBox" x="0%" y="0%" width="100%" height="100%">
  <feColorMatrix type="matrix" in="SourceGraphic" values="0 0 0 0 1 0 0 0 0 1 0 0 0 0 1 0 0 0 1 0"/>
</filter>
<mask id="mask0">
  <g filter="url(#alpha)">
<rect x="0" y="0" width="50" height="50" style="fill:rgb(0%,0%,0%);fill-opacity:0.980392;stroke:none;"/>
  </g>
</mask>
<clipPath id="clip1">
  <rect width="50" height="50"/>
</clipPath>
<g id="surface6" clip-path="url(#clip1)">
<path style=" stroke:none;fill-rule:evenodd;fill:rgb(9.411765%,9.803922%,9.411765%);fill-opacity:1;" d="M 19.839844 4.4375 C 20.207031 4.636719 20.488281 4.925781 20.679688 5.300781 C 20.699219 5.285156 20.714844 5.269531 20.730469 5.253906 C 20.863281 5.316406 20.984375 5.398438 21.089844 5.496094 C 21.085938 5.566406 21.117188 5.617188 21.183594 5.636719 C 21.226562 5.65625 21.242188 5.6875 21.234375 5.734375 C 21.394531 7.09375 21.5625 8.453125 21.738281 9.8125 C 21.949219 10.863281 22.140625 11.917969 22.3125 12.980469 C 22.339844 13.003906 22.371094 13.019531 22.410156 13.027344 C 22.65625 12.941406 22.902344 12.859375 23.152344 12.789062 C 25 12.339844 26.871094 12.050781 28.765625 11.925781 C 29.464844 11.90625 30.136719 12.023438 30.78125 12.285156 C 31.382812 12.6875 31.414062 13.136719 30.878906 13.628906 C 30.582031 13.824219 30.265625 13.960938 29.917969 14.035156 C 29.097656 14.261719 28.300781 14.542969 27.519531 14.875 C 27.90625 14.855469 28.289062 14.800781 28.671875 14.707031 C 28.71875 14.714844 28.75 14.699219 28.765625 14.660156 C 28.78125 14.660156 28.796875 14.660156 28.816406 14.660156 C 29.296875 14.664062 29.777344 14.632812 30.253906 14.5625 C 30.9375 14.675781 31.625 14.765625 32.316406 14.828125 C 33.023438 14.972656 33.726562 15.117188 34.429688 15.257812 C 35.144531 15.492188 35.589844 15.972656 35.773438 16.699219 C 35.730469 17.054688 35.585938 17.355469 35.339844 17.609375 C 35.894531 17.78125 36.304688 18.125 36.5625 18.640625 C 36.667969 19.25 36.4375 19.664062 35.867188 19.890625 C 35.355469 20.101562 34.828125 20.269531 34.285156 20.394531 C 34.554688 20.386719 34.824219 20.394531 35.101562 20.417969 C 35.640625 20.484375 36.152344 20.652344 36.636719 20.921875 C 37.136719 21.339844 37.25 21.84375 36.972656 22.433594 C 36.316406 23.15625 35.535156 23.710938 34.621094 24.089844 C 32.160156 24.976562 29.699219 25.855469 27.230469 26.726562 C 27.449219 26.921875 27.671875 27.105469 27.902344 27.277344 C 29.140625 28.320312 30.40625 29.328125 31.695312 30.300781 C 34.773438 32.660156 38.054688 34.730469 41.53125 36.515625 C 43.972656 37.710938 46.421875 38.894531 48.871094 40.066406 C 49.03125 40.144531 49.167969 40.246094 49.28125 40.378906 C 49.304688 40.523438 49.3125 40.667969 49.304688 40.8125 C 49.210938 41.039062 49.042969 41.167969 48.800781 41.195312 C 48.367188 41.074219 47.941406 40.929688 47.527344 40.761719 C 44.992188 39.71875 42.546875 38.496094 40.1875 37.09375 C 35.3125 34.25 30.746094 30.976562 26.488281 27.277344 C 26.433594 27.191406 26.410156 27.09375 26.414062 26.992188 C 25.558594 27.179688 24.710938 27.398438 23.871094 27.640625 C 23.097656 27.664062 22.332031 27.726562 21.570312 27.832031 C 21.140625 27.988281 20.710938 28.132812 20.273438 28.261719 C 19.457031 28.375 18.640625 28.488281 17.828125 28.597656 C 17.113281 28.738281 16.410156 28.90625 15.714844 29.101562 C 16.28125 29.886719 16.800781 30.703125 17.273438 31.550781 C 18.132812 33.222656 18.980469 34.902344 19.816406 36.589844 C 20.542969 37.90625 21.328125 39.183594 22.167969 40.425781 C 23.316406 42.039062 24.484375 43.640625 25.671875 45.226562 C 25.996094 45.699219 26.308594 46.179688 26.609375 46.664062 C 26.460938 47.113281 26.171875 47.234375 25.742188 47.023438 C 24.109375 45.246094 22.675781 43.320312 21.449219 41.242188 C 20.90625 40.316406 20.363281 39.386719 19.816406 38.460938 C 18.796875 36.464844 17.789062 34.46875 16.792969 32.460938 C 16.34375 31.636719 15.855469 30.835938 15.332031 30.0625 C 15.179688 29.855469 15.027344 29.648438 14.875 29.4375 C 14.851562 29.394531 14.84375 29.34375 14.851562 29.292969 C 13.523438 29.53125 12.210938 29.84375 10.917969 30.230469 C 10.355469 30.605469 9.75 30.875 9.09375 31.046875 C 6.757812 31.308594 4.519531 31.910156 2.375 32.84375 C 1.714844 33.089844 1.136719 33.464844 0.648438 33.972656 C 0.457031 34.042969 0.328125 33.984375 0.265625 33.804688 C 0.480469 33.484375 0.75 33.222656 1.078125 33.011719 C 1.480469 32.757812 1.894531 32.542969 2.328125 32.367188 C 3.308594 32.078125 4.285156 31.765625 5.253906 31.429688 C 7.8125 30.800781 10.324219 30.035156 12.789062 29.125 C 13.265625 29.074219 13.746094 29.027344 14.226562 28.984375 C 16.527344 28.46875 18.828125 27.972656 21.136719 27.496094 C 22.433594 27.308594 23.730469 27.117188 25.023438 26.917969 C 25.214844 26.824219 25.40625 26.726562 25.601562 26.632812 C 26.320312 26.460938 27.007812 26.207031 27.664062 25.863281 C 29.085938 25.542969 30.464844 25.078125 31.789062 24.472656 C 32.3125 24.292969 32.839844 24.132812 33.375 23.992188 C 33.871094 23.679688 34.382812 23.390625 34.910156 23.128906 C 35.207031 23.089844 35.496094 23.007812 35.773438 22.890625 C 36.066406 22.691406 36.34375 22.472656 36.613281 22.242188 C 36.796875 21.929688 36.742188 21.675781 36.445312 21.472656 C 36.355469 21.886719 36.132812 22.199219 35.773438 22.410156 C 35.648438 22.46875 35.519531 22.484375 35.390625 22.457031 C 35.105469 22.292969 34.800781 22.183594 34.476562 22.121094 C 34.351562 22.078125 34.25 22.007812 34.164062 21.90625 C 34.105469 21.636719 34.0625 21.367188 34.046875 21.089844 C 34.050781 21.007812 34.066406 20.925781 34.09375 20.847656 C 33.53125 20.789062 32.972656 20.796875 32.414062 20.875 C 30.332031 21.390625 28.234375 21.78125 26.128906 22.050781 C 26.074219 21.957031 26.066406 21.859375 26.105469 21.761719 C 26.527344 21.601562 26.964844 21.527344 27.421875 21.546875 C 27.457031 21.511719 27.488281 21.480469 27.519531 21.449219 C 28.496094 21.300781 29.457031 21.078125 30.398438 20.777344 C 31.09375 20.609375 31.796875 20.515625 32.507812 20.488281 C 33.179688 20.296875 33.847656 20.121094 34.523438 19.960938 C 34.972656 19.847656 35.40625 19.6875 35.820312 19.480469 C 36.246094 19.238281 36.3125 18.925781 36.011719 18.546875 C 35.847656 18.847656 35.625 19.09375 35.339844 19.289062 C 35.160156 19.324219 34.984375 19.308594 34.8125 19.242188 C 34.441406 19.085938 34.097656 18.882812 33.78125 18.640625 C 33.65625 18.363281 33.695312 18.113281 33.902344 17.898438 C 33.375 17.90625 32.84375 17.953125 32.316406 18.042969 C 30.992188 18.320312 29.667969 18.578125 28.335938 18.808594 C 27.773438 18.785156 27.230469 18.863281 26.703125 19.050781 C 26.292969 19.085938 25.894531 19.148438 25.503906 19.242188 C 25.339844 19.003906 25.402344 18.859375 25.695312 18.808594 C 26.347656 18.675781 27.003906 18.546875 27.664062 18.425781 C 28.378906 18.371094 29.066406 18.195312 29.726562 17.898438 C 30.5 17.671875 31.285156 17.496094 32.078125 17.371094 C 32.910156 17.347656 33.742188 17.347656 34.574219 17.371094 C 35.019531 17.308594 35.203125 17.0625 35.125 16.625 C 35.054688 16.476562 34.96875 16.34375 34.859375 16.21875 C 34.730469 16.269531 34.640625 16.375 34.597656 16.53125 C 34.382812 16.875 34.089844 16.976562 33.710938 16.84375 C 33.320312 16.597656 32.945312 16.332031 32.582031 16.050781 C 32.476562 15.820312 32.5 15.605469 32.652344 15.402344 C 32.46875 15.320312 32.277344 15.257812 32.078125 15.210938 C 31.375 15.140625 30.671875 15.125 29.964844 15.164062 C 29.183594 15.238281 28.398438 15.304688 27.613281 15.355469 C 27.234375 15.441406 26.847656 15.519531 26.464844 15.59375 C 26.273438 15.628906 26.078125 15.628906 25.886719 15.59375 C 25.816406 15.46875 25.832031 15.359375 25.9375 15.257812 C 26.335938 15.011719 26.753906 14.785156 27.183594 14.585938 C 28.242188 14.167969 29.3125 13.792969 30.398438 13.460938 C 30.4375 13.445312 30.46875 13.421875 30.496094 13.386719 C 30.335938 13.363281 30.175781 13.355469 30.015625 13.363281 C 29.410156 13.414062 29.058594 13.140625 28.957031 12.546875 C 28.960938 12.472656 28.976562 12.398438 29.007812 12.332031 C 26.976562 12.410156 24.976562 12.714844 23.007812 13.242188 C 22.1875 13.582031 21.339844 13.820312 20.464844 13.964844 C 18.910156 14.355469 17.359375 14.773438 15.8125 15.210938 C 15.511719 15.351562 15.207031 15.480469 14.898438 15.59375 C 14.320312 15.671875 13.761719 15.816406 13.21875 16.027344 C 13.011719 16.042969 12.804688 16.058594 12.597656 16.074219 C 12.472656 16.191406 12.328125 16.273438 12.164062 16.316406 C 11.921875 16.324219 11.683594 16.347656 11.445312 16.386719 C 11.59375 16.5625 11.558594 16.691406 11.347656 16.769531 C 11.207031 16.699219 11.085938 16.605469 10.988281 16.484375 C 10.480469 16.707031 9.976562 16.941406 9.476562 17.179688 C 9.046875 17.230469 8.613281 17.28125 8.179688 17.324219 C 7.675781 17.484375 7.179688 17.660156 6.695312 17.851562 C 5.714844 17.96875 4.757812 18.175781 3.816406 18.472656 C 3.035156 18.640625 2.25 18.765625 1.464844 18.859375 C 1.425781 18.804688 1.394531 18.75 1.367188 18.691406 C 1.359375 18.613281 1.394531 18.554688 1.464844 18.523438 C 2.203125 18.386719 2.9375 18.246094 3.671875 18.089844 C 6.070312 17.359375 8.484375 16.679688 10.917969 16.050781 C 10.734375 15.253906 10.566406 14.457031 10.414062 13.652344 C 10.34375 13.109375 10.328125 12.566406 10.363281 12.019531 C 10.414062 11.410156 10.742188 11.128906 11.347656 11.179688 C 11.570312 11.242188 11.769531 11.347656 11.949219 11.492188 C 11.792969 10.632812 11.6875 9.757812 11.636719 8.878906 C 11.664062 8.289062 11.816406 7.738281 12.09375 7.222656 C 12.675781 6.558594 13.308594 6.519531 13.988281 7.101562 C 14.171875 7.269531 14.339844 7.457031 14.492188 7.652344 C 14.65625 8.128906 14.847656 8.59375 15.066406 9.046875 C 14.996094 8.03125 15.058594 7.023438 15.257812 6.023438 C 15.449219 5.234375 15.902344 5.019531 16.625 5.375 C 17.148438 5.832031 17.507812 6.402344 17.707031 7.078125 C 17.839844 7.507812 17.96875 7.9375 18.089844 8.375 C 18.148438 7.78125 18.210938 7.1875 18.28125 6.597656 C 18.375 5.800781 18.703125 5.121094 19.265625 4.558594 C 19.445312 4.457031 19.636719 4.417969 19.839844 4.4375 Z M 13.84375 8.515625 C 13.648438 8.273438 13.464844 8.015625 13.292969 7.75 C 13.128906 7.578125 12.960938 7.417969 12.789062 7.269531 C 12.921875 7.191406 13.066406 7.167969 13.21875 7.199219 C 13.578125 7.445312 13.851562 7.765625 14.035156 8.15625 C 13.964844 8.273438 13.902344 8.394531 13.84375 8.515625 Z M 18.59375 7.894531 C 18.679688 9.035156 18.804688 10.167969 18.976562 11.300781 C 18.808594 10.746094 18.640625 10.1875 18.472656 9.621094 C 18.46875 9.035156 18.507812 8.460938 18.59375 7.894531 Z M 15.332031 11.300781 C 14.9375 10.492188 14.503906 9.710938 14.035156 8.949219 C 14.132812 8.84375 14.21875 8.734375 14.300781 8.613281 C 14.714844 9.484375 15.058594 10.378906 15.332031 11.300781 Z M 15.523438 9.046875 C 15.703125 10.050781 15.894531 11.058594 16.097656 12.066406 C 15.796875 11.089844 15.605469 10.082031 15.523438 9.046875 Z M 12.164062 9.332031 C 12.21875 9.578125 12.253906 9.835938 12.261719 10.101562 C 12.222656 10.0625 12.199219 10.015625 12.1875 9.957031 C 12.164062 9.75 12.15625 9.542969 12.164062 9.332031 Z M 12.453125 11.253906 C 12.539062 11.546875 12.601562 11.847656 12.644531 12.164062 C 12.496094 11.882812 12.433594 11.578125 12.453125 11.253906 Z M 12.453125 11.253906 "/>
</g>
<mask id="mask1">
  <g filter="url(#alpha)">
<rect x="0" y="0" width="50" height="50" style="fill:rgb(0%,0%,0%);fill-opacity:0.796078;stroke:none;"/>
  </g>
</mask>
<clipPath id="clip2">
  <rect width="50" height="50"/>
</clipPath>
<g id="surface9" clip-path="url(#clip2)">
<path style=" stroke:none;fill-rule:evenodd;fill:rgb(95.294118%,95.294118%,95.294118%);fill-opacity:1;" d="M 19.839844 4.4375 C 20.417969 4.597656 20.835938 4.949219 21.089844 5.496094 C 20.984375 5.398438 20.863281 5.316406 20.730469 5.253906 C 20.714844 5.269531 20.699219 5.285156 20.679688 5.300781 C 20.488281 4.925781 20.207031 4.636719 19.839844 4.4375 Z M 19.839844 4.4375 "/>
</g>
<mask id="mask2">
  <g filter="url(#alpha)">
<rect x="0" y="0" width="50" height="50" style="fill:rgb(0%,0%,0%);fill-opacity:0.992157;stroke:none;"/>
  </g>
</mask>
<clipPath id="clip3">
  <rect width="50" height="50"/>
</clipPath>
<g id="surface12" clip-path="url(#clip3)">
<path style=" stroke:none;fill-rule:evenodd;fill:rgb(99.215686%,99.215686%,99.215686%);fill-opacity:1;" d="M 12.644531 12.210938 C 12.644531 12.195312 12.644531 12.179688 12.644531 12.164062 C 12.601562 11.847656 12.539062 11.546875 12.453125 11.253906 C 12.433594 10.855469 12.367188 10.472656 12.261719 10.101562 C 12.253906 9.835938 12.21875 9.578125 12.164062 9.332031 C 12.152344 8.910156 12.191406 8.496094 12.285156 8.085938 C 12.441406 8.40625 12.601562 8.722656 12.765625 9.046875 C 12.949219 9.261719 13.183594 9.332031 13.460938 9.261719 C 13.660156 9.167969 13.851562 9.066406 14.035156 8.949219 C 14.503906 9.710938 14.9375 10.492188 15.332031 11.300781 C 15.324219 11.347656 15.339844 11.378906 15.378906 11.394531 C 15.371094 11.445312 15.386719 11.476562 15.425781 11.492188 C 15.566406 11.984375 15.699219 12.480469 15.835938 12.980469 C 15.875 13.09375 15.9375 13.1875 16.027344 13.269531 C 16.105469 13.5625 16.199219 13.851562 16.316406 14.132812 C 16.679688 14.546875 16.859375 14.484375 16.84375 13.941406 C 16.710938 13.773438 16.644531 13.582031 16.652344 13.363281 C 16.464844 12.929688 16.28125 12.496094 16.097656 12.066406 C 15.894531 11.058594 15.703125 10.050781 15.523438 9.046875 C 15.539062 8.90625 15.523438 8.777344 15.476562 8.660156 C 15.382812 7.804688 15.4375 6.957031 15.644531 6.117188 C 15.714844 6.496094 15.828125 6.867188 15.980469 7.222656 C 16.28125 7.832031 16.671875 7.902344 17.15625 7.4375 C 17.230469 7.425781 17.304688 7.402344 17.371094 7.367188 C 17.550781 8.046875 17.757812 8.71875 17.996094 9.382812 C 17.964844 10.21875 18.078125 11.03125 18.332031 11.828125 C 18.4375 12.0625 18.582031 12.269531 18.761719 12.453125 C 18.890625 12.78125 19.027344 13.109375 19.167969 13.4375 C 19.085938 13.601562 19.132812 13.707031 19.3125 13.746094 C 19.464844 13.710938 19.542969 13.613281 19.554688 13.460938 C 19.402344 13.0625 19.25 12.660156 19.097656 12.261719 C 19.085938 12.0625 19.0625 11.871094 19.027344 11.683594 C 19.089844 11.652344 19.089844 11.621094 19.027344 11.589844 C 19.039062 11.480469 19.023438 11.386719 18.976562 11.300781 C 18.804688 10.167969 18.679688 9.035156 18.59375 7.894531 C 18.535156 7.050781 18.6875 6.253906 19.050781 5.496094 C 19.191406 6.132812 19.488281 6.683594 19.9375 7.148438 C 20.214844 7.339844 20.441406 7.292969 20.609375 7.003906 C 20.710938 6.925781 20.8125 6.902344 20.921875 6.933594 C 21.140625 8.621094 21.410156 10.300781 21.738281 11.972656 C 21.746094 12.375 21.785156 12.777344 21.855469 13.171875 C 20.9375 13.386719 20.023438 13.632812 19.121094 13.914062 C 18.578125 14.003906 18.03125 14.101562 17.492188 14.203125 C 15.472656 14.945312 13.410156 15.527344 11.300781 15.953125 C 11.117188 15.113281 10.941406 14.273438 10.773438 13.4375 C 10.898438 13.457031 11.023438 13.457031 11.15625 13.4375 C 11.488281 13.28125 11.664062 13.027344 11.683594 12.667969 C 11.652344 12.378906 11.605469 12.089844 11.539062 11.804688 C 11.554688 11.78125 11.574219 11.757812 11.589844 11.730469 C 11.992188 12.050781 12.226562 12.464844 12.285156 12.980469 C 12.519531 13.457031 12.78125 13.910156 13.074219 14.347656 C 13.289062 14.355469 13.363281 14.25 13.292969 14.035156 C 13.1875 13.921875 13.109375 13.796875 13.050781 13.652344 C 12.929688 13.164062 12.792969 12.683594 12.644531 12.210938 Z M 18.59375 7.894531 C 18.679688 9.035156 18.804688 10.167969 18.976562 11.300781 C 18.808594 10.746094 18.640625 10.1875 18.472656 9.621094 C 18.46875 9.035156 18.507812 8.460938 18.59375 7.894531 Z M 15.332031 11.300781 C 14.9375 10.492188 14.503906 9.710938 14.035156 8.949219 C 14.132812 8.84375 14.21875 8.734375 14.300781 8.613281 C 14.714844 9.484375 15.058594 10.378906 15.332031 11.300781 Z M 15.523438 9.046875 C 15.703125 10.050781 15.894531 11.058594 16.097656 12.066406 C 15.796875 11.089844 15.605469 10.082031 15.523438 9.046875 Z M 15.523438 9.046875 "/>
</g>
<mask id="mask3">
  <g filter="url(#alpha)">
<rect x="0" y="0" width="50" height="50" style="fill:rgb(0%,0%,0%);fill-opacity:0.972549;stroke:none;"/>
  </g>
</mask>
<clipPath id="clip4">
  <rect width="50" height="50"/>
</clipPath>
<g id="surface15" clip-path="url(#clip4)">
<path style=" stroke:none;fill-rule:evenodd;fill:rgb(54.901961%,54.901961%,54.901961%);fill-opacity:1;" d="M 21.089844 5.496094 C 21.15625 5.515625 21.1875 5.566406 21.183594 5.636719 C 21.117188 5.617188 21.085938 5.566406 21.089844 5.496094 Z M 21.089844 5.496094 "/>
</g>
<mask id="mask4">
  <g filter="url(#alpha)">
<rect x="0" y="0" width="50" height="50" style="fill:rgb(0%,0%,0%);fill-opacity:0.968627;stroke:none;"/>
  </g>
</mask>
<clipPath id="clip5">
  <rect width="50" height="50"/>
</clipPath>
<g id="surface18" clip-path="url(#clip5)">
<path style=" stroke:none;fill-rule:evenodd;fill:rgb(98.431373%,98.431373%,98.431373%);fill-opacity:1;" d="M 21.234375 5.734375 C 21.734375 6.6875 22.113281 7.695312 22.359375 8.757812 C 22.683594 10.089844 22.949219 11.433594 23.152344 12.789062 C 22.902344 12.859375 22.65625 12.941406 22.410156 13.027344 C 22.371094 13.019531 22.339844 13.003906 22.3125 12.980469 C 22.140625 11.917969 21.949219 10.863281 21.738281 9.8125 C 21.5625 8.453125 21.394531 7.09375 21.234375 5.734375 Z M 21.234375 5.734375 "/>
</g>
<mask id="mask5">
  <g filter="url(#alpha)">
<rect x="0" y="0" width="50" height="50" style="fill:rgb(0%,0%,0%);fill-opacity:0.964706;stroke:none;"/>
  </g>
</mask>
<clipPath id="clip6">
  <rect width="50" height="50"/>
</clipPath>
<g id="surface21" clip-path="url(#clip6)">
<path style=" stroke:none;fill-rule:evenodd;fill:rgb(98.431373%,98.431373%,98.431373%);fill-opacity:1;" d="M 12.789062 7.269531 C 12.960938 7.417969 13.128906 7.578125 13.292969 7.75 C 13.464844 8.015625 13.648438 8.273438 13.84375 8.515625 C 13.648438 8.84375 13.386719 8.9375 13.050781 8.804688 C 12.800781 8.398438 12.601562 7.964844 12.453125 7.507812 C 12.523438 7.371094 12.636719 7.292969 12.789062 7.269531 Z M 12.789062 7.269531 "/>
</g>
<mask id="mask6">
  <g filter="url(#alpha)">
<rect x="0" y="0" width="50" height="50" style="fill:rgb(0%,0%,0%);fill-opacity:0.905882;stroke:none;"/>
  </g>
</mask>
<clipPath id="clip7">
  <rect width="50" height="50"/>
</clipPath>
<g id="surface24" clip-path="url(#clip7)">
<path style=" stroke:none;fill-rule:evenodd;fill:rgb(94.117647%,94.117647%,94.117647%);fill-opacity:1;" d="M 29.917969 14.035156 C 29.558594 14.253906 29.191406 14.464844 28.816406 14.660156 C 28.796875 14.660156 28.78125 14.660156 28.765625 14.660156 C 28.71875 14.652344 28.6875 14.667969 28.671875 14.707031 C 28.289062 14.800781 27.90625 14.855469 27.519531 14.875 C 28.300781 14.542969 29.097656 14.261719 29.917969 14.035156 Z M 29.917969 14.035156 "/>
</g>
<mask id="mask7">
  <g filter="url(#alpha)">
<rect x="0" y="0" width="50" height="50" style="fill:rgb(0%,0%,0%);fill-opacity:0.984314;stroke:none;"/>
  </g>
</mask>
<clipPath id="clip8">
  <rect width="50" height="50"/>
</clipPath>
<g id="surface27" clip-path="url(#clip8)">
<path style=" stroke:none;fill-rule:evenodd;fill:rgb(98.039216%,98.039216%,98.039216%);fill-opacity:1;" d="M 34.859375 17.921875 C 34.894531 17.964844 34.941406 17.980469 35.003906 17.96875 C 35.253906 18.039062 35.496094 18.144531 35.722656 18.28125 C 35.621094 18.53125 35.460938 18.738281 35.246094 18.90625 C 35.164062 18.9375 35.085938 18.9375 35.003906 18.90625 C 34.738281 18.765625 34.46875 18.636719 34.1875 18.523438 C 34.097656 18.433594 34.074219 18.332031 34.117188 18.210938 C 34.238281 18.089844 34.355469 17.96875 34.476562 17.851562 C 34.609375 17.847656 34.734375 17.871094 34.859375 17.921875 Z M 34.859375 17.921875 "/>
</g>
<mask id="mask8">
  <g filter="url(#alpha)">
<rect x="0" y="0" width="50" height="50" style="fill:rgb(0%,0%,0%);fill-opacity:0.882353;stroke:none;"/>
  </g>
</mask>
<clipPath id="clip9">
  <rect width="50" height="50"/>
</clipPath>
<g id="surface30" clip-path="url(#clip9)">
<path style=" stroke:none;fill-rule:evenodd;fill:rgb(90.588235%,90.588235%,90.588235%);fill-opacity:1;" d="M 35.867188 19.890625 C 35.664062 20.136719 35.410156 20.3125 35.101562 20.417969 C 34.824219 20.394531 34.554688 20.386719 34.285156 20.394531 C 34.828125 20.269531 35.355469 20.101562 35.867188 19.890625 Z M 35.867188 19.890625 "/>
</g>
<mask id="mask9">
  <g filter="url(#alpha)">
<rect x="0" y="0" width="50" height="50" style="fill:rgb(0%,0%,0%);fill-opacity:0.972549;stroke:none;"/>
  </g>
</mask>
<clipPath id="clip10">
  <rect width="50" height="50"/>
</clipPath>
<g id="surface33" clip-path="url(#clip10)">
<path style=" stroke:none;fill-rule:evenodd;fill:rgb(98.823529%,98.823529%,98.823529%);fill-opacity:1;" d="M 36.972656 22.433594 C 36.867188 23.160156 36.53125 23.761719 35.964844 24.230469 C 34.972656 24.871094 33.917969 25.382812 32.796875 25.769531 C 31.175781 26.328125 29.546875 26.832031 27.902344 27.277344 C 27.671875 27.105469 27.449219 26.921875 27.230469 26.726562 C 29.699219 25.855469 32.160156 24.976562 34.621094 24.089844 C 35.535156 23.710938 36.316406 23.15625 36.972656 22.433594 Z M 36.972656 22.433594 "/>
</g>
<mask id="mask10">
  <g filter="url(#alpha)">
<rect x="0" y="0" width="50" height="50" style="fill:rgb(0%,0%,0%);fill-opacity:0.996078;stroke:none;"/>
  </g>
</mask>
<clipPath id="clip11">
  <rect width="50" height="50"/>
</clipPath>
<g id="surface36" clip-path="url(#clip11)">
<path style=" stroke:none;fill-rule:evenodd;fill:rgb(99.607843%,99.607843%,99.607843%);fill-opacity:1;" d="M 47.527344 40.761719 C 43.738281 40.753906 40.011719 41.226562 36.347656 42.179688 C 33.816406 42.859375 31.5 43.964844 29.390625 45.488281 C 28.742188 46.042969 28.085938 46.589844 27.421875 47.121094 C 27.304688 47.15625 27.191406 47.140625 27.085938 47.074219 C 26.917969 46.945312 26.757812 46.808594 26.609375 46.664062 C 26.308594 46.179688 25.996094 45.699219 25.671875 45.226562 C 24.484375 43.640625 23.316406 42.039062 22.167969 40.425781 C 21.328125 39.183594 20.542969 37.90625 19.816406 36.589844 C 18.980469 34.902344 18.132812 33.222656 17.273438 31.550781 C 16.800781 30.703125 16.28125 29.886719 15.714844 29.101562 C 16.410156 28.90625 17.113281 28.738281 17.828125 28.597656 C 18.640625 28.488281 19.457031 28.375 20.273438 28.261719 C 20.710938 28.132812 21.140625 27.988281 21.570312 27.832031 C 22.332031 27.726562 23.097656 27.664062 23.871094 27.640625 C 24.710938 27.398438 25.558594 27.179688 26.414062 26.992188 C 26.410156 27.09375 26.433594 27.191406 26.488281 27.277344 C 30.746094 30.976562 35.3125 34.25 40.1875 37.09375 C 42.546875 38.496094 44.992188 39.71875 47.527344 40.761719 Z M 47.527344 40.761719 "/>
</g>
<mask id="mask11">
  <g filter="url(#alpha)">
<rect x="0" y="0" width="50" height="50" style="fill:rgb(0%,0%,0%);fill-opacity:0.976471;stroke:none;"/>
  </g>
</mask>
<clipPath id="clip12">
  <rect width="50" height="50"/>
</clipPath>
<g id="surface39" clip-path="url(#clip12)">
<path style=" stroke:none;fill-rule:evenodd;fill:rgb(98.823529%,98.823529%,98.823529%);fill-opacity:1;" d="M 15.332031 30.0625 C 14.175781 30.296875 13.023438 30.558594 11.875 30.855469 C 8.773438 31.921875 5.65625 32.9375 2.519531 33.902344 C 2.484375 33.539062 2.4375 33.1875 2.375 32.84375 C 4.519531 31.910156 6.757812 31.308594 9.09375 31.046875 C 9.75 30.875 10.355469 30.605469 10.917969 30.230469 C 12.210938 29.84375 13.523438 29.53125 14.851562 29.292969 C 14.84375 29.34375 14.851562 29.394531 14.875 29.4375 C 15.027344 29.648438 15.179688 29.855469 15.332031 30.0625 Z M 15.332031 30.0625 "/>
</g>
<mask id="mask12">
  <g filter="url(#alpha)">
<rect x="0" y="0" width="50" height="50" style="fill:rgb(0%,0%,0%);fill-opacity:0.956863;stroke:none;"/>
  </g>
</mask>
<clipPath id="clip13">
  <rect width="50" height="50"/>
</clipPath>
<g id="surface42" clip-path="url(#clip13)">
<path style=" stroke:none;fill-rule:evenodd;fill:rgb(98.431373%,98.823529%,98.431373%);fill-opacity:1;" d="M 31.695312 30.300781 C 36.550781 32.828125 41.367188 35.425781 46.136719 38.101562 C 47.121094 38.667969 48.082031 39.277344 49.015625 39.921875 C 49.230469 40.089844 49.429688 40.273438 49.617188 40.476562 C 49.640625 40.570312 49.648438 40.664062 49.640625 40.761719 C 49.527344 40.785156 49.417969 40.800781 49.304688 40.8125 C 49.3125 40.667969 49.304688 40.523438 49.28125 40.378906 C 49.167969 40.246094 49.03125 40.144531 48.871094 40.066406 C 46.421875 38.894531 43.972656 37.710938 41.53125 36.515625 C 38.054688 34.730469 34.773438 32.660156 31.695312 30.300781 Z M 31.695312 30.300781 "/>
</g>
</defs>
<g id="surface1">
<use xlink:href="#surface6" mask="url(#mask0)"/>
<use xlink:href="#surface9" mask="url(#mask1)"/>
<path style=" stroke:none;fill-rule:evenodd;fill:rgb(97.647059%,97.647059%,97.647059%);fill-opacity:1;" d="M 19.554688 4.824219 C 19.792969 4.808594 19.976562 4.90625 20.105469 5.109375 C 20.425781 5.527344 20.632812 5.992188 20.730469 6.5 C 20.539062 6.601562 20.371094 6.730469 20.226562 6.886719 C 19.730469 6.375 19.441406 5.769531 19.363281 5.0625 C 19.425781 4.980469 19.492188 4.902344 19.554688 4.824219 Z M 19.554688 4.824219 "/>
<use xlink:href="#surface12" mask="url(#mask2)"/>
<use xlink:href="#surface15" mask="url(#mask3)"/>
<path style=" stroke:none;fill-rule:evenodd;fill:rgb(98.039216%,98.039216%,98.039216%);fill-opacity:1;" d="M 16.097656 5.636719 C 16.109375 5.609375 16.132812 5.59375 16.171875 5.589844 C 16.691406 5.925781 17.050781 6.390625 17.25 6.980469 C 17.003906 7.066406 16.796875 7.210938 16.625 7.414062 C 16.546875 7.359375 16.476562 7.292969 16.410156 7.222656 C 16.171875 6.835938 16.058594 6.421875 16.074219 5.972656 C 16.207031 5.859375 16.21875 5.746094 16.097656 5.636719 Z M 16.097656 5.636719 "/>
<use xlink:href="#surface18" mask="url(#mask4)"/>
<use xlink:href="#surface21" mask="url(#mask5)"/>
<path style=" stroke:none;fill-rule:evenodd;fill:rgb(96.862745%,96.862745%,96.862745%);fill-opacity:1;" d="M 10.964844 11.589844 C 11.011719 11.589844 11.058594 11.589844 11.109375 11.589844 C 11.238281 11.992188 11.292969 12.410156 11.277344 12.835938 C 11.195312 12.925781 11.109375 13.003906 11.011719 13.074219 C 10.933594 13.019531 10.863281 12.957031 10.796875 12.882812 C 10.664062 12.421875 10.71875 11.992188 10.964844 11.589844 Z M 10.964844 11.589844 "/>
<path style=" stroke:none;fill-rule:evenodd;fill:rgb(99.607843%,99.607843%,99.607843%);fill-opacity:1;" d="M 30.015625 13.363281 C 30.140625 13.394531 30.269531 13.425781 30.398438 13.460938 C 29.3125 13.792969 28.242188 14.167969 27.183594 14.585938 C 26.753906 14.785156 26.335938 15.011719 25.9375 15.257812 C 25.832031 15.359375 25.816406 15.46875 25.886719 15.59375 C 26.078125 15.628906 26.273438 15.628906 26.464844 15.59375 C 26.847656 15.519531 27.234375 15.441406 27.613281 15.355469 C 28.398438 15.304688 29.183594 15.238281 29.964844 15.164062 C 30.671875 15.125 31.375 15.140625 32.078125 15.210938 C 32.277344 15.257812 32.46875 15.320312 32.652344 15.402344 C 32.5 15.605469 32.476562 15.820312 32.582031 16.050781 C 32.945312 16.332031 33.320312 16.597656 33.710938 16.84375 C 34.089844 16.976562 34.382812 16.875 34.597656 16.53125 C 34.640625 16.375 34.730469 16.269531 34.859375 16.21875 C 34.96875 16.34375 35.054688 16.476562 35.125 16.625 C 35.203125 17.0625 35.019531 17.308594 34.574219 17.371094 C 33.742188 17.347656 32.910156 17.347656 32.078125 17.371094 C 31.285156 17.496094 30.5 17.671875 29.726562 17.898438 C 29.066406 18.195312 28.378906 18.371094 27.664062 18.425781 C 27.003906 18.546875 26.347656 18.675781 25.695312 18.808594 C 25.402344 18.859375 25.339844 19.003906 25.503906 19.242188 C 25.894531 19.148438 26.292969 19.085938 26.703125 19.050781 C 27.230469 18.863281 27.773438 18.785156 28.335938 18.808594 C 29.667969 18.578125 30.992188 18.320312 32.316406 18.042969 C 32.84375 17.953125 33.375 17.90625 33.902344 17.898438 C 33.695312 18.113281 33.65625 18.363281 33.78125 18.640625 C 34.097656 18.882812 34.441406 19.085938 34.8125 19.242188 C 34.984375 19.308594 35.160156 19.324219 35.339844 19.289062 C 35.625 19.09375 35.847656 18.847656 36.011719 18.546875 C 36.3125 18.925781 36.246094 19.238281 35.820312 19.480469 C 35.40625 19.6875 34.972656 19.847656 34.523438 19.960938 C 33.847656 20.121094 33.179688 20.296875 32.507812 20.488281 C 31.796875 20.515625 31.09375 20.609375 30.398438 20.777344 C 29.457031 21.078125 28.496094 21.300781 27.519531 21.449219 C 27.488281 21.480469 27.457031 21.511719 27.421875 21.546875 C 26.964844 21.527344 26.527344 21.601562 26.105469 21.761719 C 26.066406 21.859375 26.074219 21.957031 26.128906 22.050781 C 28.234375 21.78125 30.332031 21.390625 32.414062 20.875 C 32.972656 20.796875 33.53125 20.789062 34.09375 20.847656 C 34.066406 20.925781 34.050781 21.007812 34.046875 21.089844 C 34.0625 21.367188 34.105469 21.636719 34.164062 21.90625 C 34.25 22.007812 34.351562 22.078125 34.476562 22.121094 C 34.800781 22.183594 35.105469 22.292969 35.390625 22.457031 C 35.519531 22.484375 35.648438 22.46875 35.773438 22.410156 C 36.132812 22.199219 36.355469 21.886719 36.445312 21.472656 C 36.742188 21.675781 36.796875 21.929688 36.613281 22.242188 C 36.34375 22.472656 36.066406 22.691406 35.773438 22.890625 C 35.496094 23.007812 35.207031 23.089844 34.910156 23.128906 C 34.382812 23.390625 33.871094 23.679688 33.375 23.992188 C 32.839844 24.132812 32.3125 24.292969 31.789062 24.472656 C 30.464844 25.078125 29.085938 25.542969 27.664062 25.863281 C 27.007812 26.207031 26.320312 26.460938 25.601562 26.632812 C 25.40625 26.726562 25.214844 26.824219 25.023438 26.917969 C 23.730469 27.117188 22.433594 27.308594 21.136719 27.496094 C 18.828125 27.972656 16.527344 28.46875 14.226562 28.984375 C 13.746094 29.027344 13.265625 29.074219 12.789062 29.125 C 10.324219 30.035156 7.8125 30.800781 5.253906 31.429688 C 4.285156 31.765625 3.308594 32.078125 2.328125 32.367188 C 1.839844 27.925781 1.34375 23.488281 0.839844 19.050781 C 0.855469 18.976562 0.871094 18.90625 0.886719 18.832031 C 1.050781 18.785156 1.210938 18.738281 1.367188 18.691406 C 1.394531 18.75 1.425781 18.804688 1.464844 18.859375 C 2.25 18.765625 3.035156 18.640625 3.816406 18.472656 C 4.757812 18.175781 5.714844 17.96875 6.695312 17.851562 C 7.179688 17.660156 7.675781 17.484375 8.179688 17.324219 C 8.613281 17.28125 9.046875 17.230469 9.476562 17.179688 C 9.976562 16.941406 10.480469 16.707031 10.988281 16.484375 C 11.085938 16.605469 11.207031 16.699219 11.347656 16.769531 C 11.558594 16.691406 11.59375 16.5625 11.445312 16.386719 C 11.683594 16.347656 11.921875 16.324219 12.164062 16.316406 C 12.328125 16.273438 12.472656 16.191406 12.597656 16.074219 C 12.804688 16.058594 13.011719 16.042969 13.21875 16.027344 C 13.761719 15.816406 14.320312 15.671875 14.898438 15.59375 C 15.207031 15.480469 15.511719 15.351562 15.8125 15.210938 C 17.359375 14.773438 18.910156 14.355469 20.464844 13.964844 C 21.339844 13.820312 22.1875 13.582031 23.007812 13.242188 C 24.976562 12.714844 26.976562 12.410156 29.007812 12.332031 C 28.976562 12.398438 28.960938 12.472656 28.957031 12.546875 C 29.058594 13.140625 29.410156 13.414062 30.015625 13.363281 Z M 30.015625 13.363281 "/>
<path style=" stroke:none;fill-rule:evenodd;fill:rgb(95.294118%,95.294118%,95.294118%);fill-opacity:1;" d="M 29.4375 12.355469 C 29.820312 12.386719 30.1875 12.472656 30.542969 12.621094 C 30.636719 12.683594 30.734375 12.746094 30.832031 12.8125 C 30.707031 12.855469 30.59375 12.917969 30.496094 13.003906 C 30.203125 13.042969 29.914062 13.027344 29.628906 12.957031 C 29.332031 12.804688 29.269531 12.605469 29.4375 12.355469 Z M 29.4375 12.355469 "/>
<path style=" stroke:none;fill-rule:evenodd;fill:rgb(55.294118%,55.294118%,55.294118%);fill-opacity:1;" d="M 30.015625 13.363281 C 30.175781 13.355469 30.335938 13.363281 30.496094 13.386719 C 30.46875 13.421875 30.4375 13.445312 30.398438 13.460938 C 30.269531 13.425781 30.140625 13.394531 30.015625 13.363281 Z M 30.015625 13.363281 "/>
<use xlink:href="#surface24" mask="url(#mask6)"/>
<path style=" stroke:none;fill-rule:evenodd;fill:rgb(97.647059%,97.647059%,97.647059%);fill-opacity:1;" d="M 32.988281 15.523438 C 33.507812 15.496094 33.988281 15.613281 34.429688 15.882812 C 34.453125 15.910156 34.46875 15.941406 34.476562 15.980469 C 34.371094 16.171875 34.246094 16.347656 34.09375 16.507812 C 34.027344 16.539062 33.964844 16.539062 33.902344 16.507812 C 33.558594 16.308594 33.230469 16.09375 32.917969 15.859375 C 32.910156 15.742188 32.933594 15.628906 32.988281 15.523438 Z M 32.988281 15.523438 "/>
<use xlink:href="#surface27" mask="url(#mask7)"/>
<use xlink:href="#surface30" mask="url(#mask8)"/>
<path style=" stroke:none;fill-rule:evenodd;fill:rgb(97.647059%,97.647059%,97.647059%);fill-opacity:1;" d="M 34.574219 20.800781 C 35.148438 20.792969 35.660156 20.960938 36.109375 21.304688 C 36.03125 21.488281 35.960938 21.671875 35.890625 21.855469 C 35.777344 21.957031 35.648438 22.035156 35.507812 22.097656 C 35.191406 21.9375 34.867188 21.820312 34.523438 21.738281 C 34.5 21.714844 34.476562 21.6875 34.453125 21.664062 C 34.421875 21.425781 34.421875 21.183594 34.453125 20.945312 C 34.503906 20.902344 34.542969 20.855469 34.574219 20.800781 Z M 34.574219 20.800781 "/>
<use xlink:href="#surface33" mask="url(#mask9)"/>
<use xlink:href="#surface36" mask="url(#mask10)"/>
<use xlink:href="#surface39" mask="url(#mask11)"/>
<use xlink:href="#surface42" mask="url(#mask12)"/>
</g>
</svg>
