<?xml version="1.0" encoding="UTF-8"?>
<svg xmlns="http://www.w3.org/2000/svg" xmlns:xlink="http://www.w3.org/1999/xlink" width="50pt" height="50pt" viewBox="0 0 50 50" version="1.1">
<defs>
<filter id="alpha" filterUnits="objectBoundingBox" x="0%" y="0%" width="100%" height="100%">
  <feColorMatrix type="matrix" in="SourceGraphic" values="0 0 0 0 1 0 0 0 0 1 0 0 0 0 1 0 0 0 1 0"/>
</filter>
<mask id="mask0">
  <g filter="url(#alpha)">
<rect x="0" y="0" width="50" height="50" style="fill:rgb(0%,0%,0%);fill-opacity:0.984314;stroke:none;"/>
  </g>
</mask>
<clipPath id="clip1">
  <rect width="50" height="50"/>
</clipPath>
<g id="surface6" clip-path="url(#clip1)">
<path style=" stroke:none;fill-rule:evenodd;fill:rgb(0%,0%,0%);fill-opacity:1;" d="M 27.902344 2.902344 C 28.304688 2.859375 28.582031 3.019531 28.742188 3.382812 C 28.839844 8.429688 28.523438 13.453125 27.78125 18.449219 C 27.144531 22.914062 26.488281 27.378906 25.816406 31.835938 C 25.71875 32.957031 25.726562 34.078125 25.839844 35.195312 C 25.839844 35.785156 25.71875 36.34375 25.480469 36.875 C 25.121094 37.304688 24.664062 37.457031 24.113281 37.332031 C 23.8125 37.242188 23.550781 37.089844 23.320312 36.875 C 22.804688 36.195312 22.519531 35.429688 22.457031 34.574219 C 22.425781 34.027344 22.441406 33.484375 22.503906 32.941406 C 22.71875 31.511719 22.957031 30.089844 23.222656 28.671875 C 24.621094 22.171875 25.769531 15.628906 26.679688 9.046875 C 26.910156 7.191406 27.121094 5.335938 27.304688 3.480469 C 27.40625 3.175781 27.605469 2.984375 27.902344 2.902344 Z M 27.902344 2.902344 "/>
</g>
<mask id="mask1">
  <g filter="url(#alpha)">
<rect x="0" y="0" width="50" height="50" style="fill:rgb(0%,0%,0%);fill-opacity:0.984314;stroke:none;"/>
  </g>
</mask>
<clipPath id="clip2">
  <rect width="50" height="50"/>
</clipPath>
<g id="surface9" clip-path="url(#clip2)">
<path style=" stroke:none;fill-rule:evenodd;fill:rgb(0%,0%,0%);fill-opacity:1;" d="M 25.214844 40.042969 C 26.285156 39.90625 27.261719 40.140625 28.144531 40.738281 C 28.859375 41.351562 29.171875 42.125 29.078125 43.066406 C 28.808594 44.855469 27.792969 45.953125 26.03125 46.351562 C 24.632812 46.46875 23.496094 45.980469 22.625 44.890625 C 21.914062 45.234375 21.28125 45.121094 20.730469 44.554688 C 20.480469 44.085938 20.515625 43.636719 20.824219 43.210938 C 21.316406 42.542969 21.859375 41.921875 22.457031 41.339844 C 22.527344 41.144531 22.605469 40.949219 22.695312 40.761719 C 22.9375 40.484375 23.230469 40.40625 23.585938 40.523438 C 24.113281 40.292969 24.65625 40.132812 25.214844 40.042969 Z M 25.214844 40.042969 "/>
</g>
</defs>
<g id="surface1">
<use xlink:href="#surface6" mask="url(#mask0)"/>
<use xlink:href="#surface9" mask="url(#mask1)"/>
<path style=" stroke:none;fill-rule:evenodd;fill:rgb(98.431373%,98.431373%,98.431373%);fill-opacity:1;" d="M 25.503906 42.296875 C 25.878906 42.277344 26.246094 42.316406 26.609375 42.417969 C 26.878906 42.636719 26.96875 42.914062 26.871094 43.257812 C 26.550781 44.144531 25.917969 44.519531 24.976562 44.386719 C 24.414062 44.242188 24.011719 43.90625 23.777344 43.378906 C 24.207031 42.785156 24.785156 42.425781 25.503906 42.296875 Z M 25.503906 42.296875 "/>
</g>
</svg>
