<?xml version="1.0" encoding="UTF-8"?>
<svg xmlns="http://www.w3.org/2000/svg" xmlns:xlink="http://www.w3.org/1999/xlink" width="50pt" height="50pt" viewBox="0 0 50 50" version="1.1">
<defs>
<filter id="alpha" filterUnits="objectBoundingBox" x="0%" y="0%" width="100%" height="100%">
  <feColorMatrix type="matrix" in="SourceGraphic" values="0 0 0 0 1 0 0 0 0 1 0 0 0 0 1 0 0 0 1 0"/>
</filter>
<mask id="mask0">
  <g filter="url(#alpha)">
<rect x="0" y="0" width="50" height="50" style="fill:rgb(0%,0%,0%);fill-opacity:0.764706;stroke:none;"/>
  </g>
</mask>
<clipPath id="clip1">
  <rect width="50" height="50"/>
</clipPath>
<g id="surface6" clip-path="url(#clip1)">
<path style=" stroke:none;fill-rule:evenodd;fill:rgb(5.098039%,5.098039%,5.098039%);fill-opacity:1;" d="M 33.179688 0.839844 C 34.652344 0.933594 35.347656 1.71875 35.269531 3.191406 C 35.070312 4.03125 34.550781 4.550781 33.710938 4.75 C 32.644531 4.878906 31.902344 4.453125 31.476562 3.480469 C 31.1875 2.035156 31.757812 1.15625 33.179688 0.839844 Z M 33.179688 0.839844 "/>
</g>
<mask id="mask1">
  <g filter="url(#alpha)">
<rect x="0" y="0" width="50" height="50" style="fill:rgb(0%,0%,0%);fill-opacity:0.984314;stroke:none;"/>
  </g>
</mask>
<clipPath id="clip2">
  <rect width="50" height="50"/>
</clipPath>
<g id="surface9" clip-path="url(#clip2)">
<path style=" stroke:none;fill-rule:evenodd;fill:rgb(10.980392%,7.45098%,11.764706%);fill-opacity:1;" d="M 19.363281 4.535156 C 19.527344 4.769531 19.554688 5.027344 19.433594 5.300781 C 19.246094 5.828125 19.015625 6.332031 18.738281 6.8125 C 20.699219 6.488281 22.636719 6.617188 24.542969 7.199219 C 26.242188 7.726562 27.839844 8.460938 29.34375 9.40625 C 31.910156 11.054688 34.230469 13.011719 36.300781 15.28125 C 36.421875 15.679688 36.28125 15.847656 35.867188 15.785156 C 35.824219 15.773438 35.792969 15.75 35.773438 15.714844 C 33.183594 12.78125 30.144531 10.4375 26.65625 8.683594 C 25.03125 7.898438 23.320312 7.433594 21.519531 7.292969 C 20.449219 7.199219 19.390625 7.296875 18.355469 7.582031 C 18.207031 7.769531 18.082031 7.96875 17.96875 8.179688 C 18.195312 8.5 18.417969 8.820312 18.640625 9.140625 C 20.113281 9.09375 21.535156 9.328125 22.914062 9.835938 C 24.324219 10.382812 25.636719 11.101562 26.847656 11.996094 C 29.082031 13.710938 31.050781 15.6875 32.75 17.921875 C 33 18.132812 33.046875 18.378906 32.894531 18.667969 C 32.789062 18.730469 32.675781 18.746094 32.558594 18.714844 C 32.414062 18.59375 32.285156 18.457031 32.171875 18.304688 C 30.554688 16.105469 28.652344 14.175781 26.464844 12.523438 C 25.046875 11.445312 23.476562 10.648438 21.761719 10.125 C 20.894531 9.875 20.015625 9.789062 19.121094 9.859375 C 19.632812 10.644531 20.082031 11.460938 20.464844 12.308594 C 20.472656 12.554688 20.550781 12.769531 20.707031 12.957031 C 20.667969 13.03125 20.609375 13.039062 20.539062 12.980469 C 20.449219 13.066406 20.363281 13.15625 20.273438 13.242188 C 19.707031 13.324219 19.148438 13.273438 18.59375 13.101562 C 17.703125 12.847656 16.820312 12.5625 15.953125 12.234375 C 15.78125 12.183594 15.605469 12.167969 15.425781 12.1875 C 15.292969 12.273438 15.171875 12.378906 15.066406 12.5 C 14.554688 13.191406 13.984375 13.839844 13.363281 14.445312 C 13.085938 14.6875 12.765625 14.835938 12.402344 14.898438 C 11.996094 14.785156 11.796875 14.515625 11.804688 14.082031 C 11.710938 12.871094 11.644531 11.652344 11.613281 10.4375 C 10.675781 10.011719 9.789062 9.507812 8.949219 8.925781 C 8.554688 8.511719 8.570312 8.109375 8.996094 7.726562 C 9.332031 7.507812 9.6875 7.316406 10.054688 7.148438 C 10.628906 6.9375 11.199219 6.703125 11.757812 6.453125 C 11.851562 5.617188 11.980469 4.785156 12.140625 3.957031 C 12.183594 3.738281 12.261719 3.527344 12.378906 3.335938 C 12.570312 3.136719 12.804688 3.066406 13.074219 3.117188 C 13.523438 3.28125 13.925781 3.519531 14.277344 3.839844 C 14.769531 4.339844 15.265625 4.828125 15.761719 5.300781 C 16.878906 5 18 4.710938 19.121094 4.4375 C 19.203125 4.472656 19.285156 4.503906 19.363281 4.535156 Z M 19.363281 4.535156 "/>
</g>
<mask id="mask2">
  <g filter="url(#alpha)">
<rect x="0" y="0" width="50" height="50" style="fill:rgb(0%,0%,0%);fill-opacity:0.988235;stroke:none;"/>
  </g>
</mask>
<clipPath id="clip3">
  <rect width="50" height="50"/>
</clipPath>
<g id="surface12" clip-path="url(#clip3)">
<path style=" stroke:none;fill-rule:evenodd;fill:rgb(66.27451%,22.745098%,17.647059%);fill-opacity:1;" d="M 36.300781 15.28125 C 34.230469 13.011719 31.910156 11.054688 29.34375 9.40625 C 27.839844 8.460938 26.242188 7.726562 24.542969 7.199219 C 22.636719 6.617188 20.699219 6.488281 18.738281 6.8125 C 19.015625 6.332031 19.246094 5.828125 19.433594 5.300781 C 19.554688 5.027344 19.527344 4.769531 19.363281 4.535156 C 21.925781 3.9375 24.460938 4.066406 26.96875 4.917969 C 29.269531 5.738281 31.375 6.898438 33.277344 8.398438 C 35.199219 9.933594 36.964844 11.636719 38.578125 13.507812 C 38.609375 13.554688 38.601562 13.59375 38.554688 13.628906 C 37.808594 14.191406 37.058594 14.742188 36.300781 15.28125 Z M 36.300781 15.28125 "/>
</g>
<mask id="mask3">
  <g filter="url(#alpha)">
<rect x="0" y="0" width="50" height="50" style="fill:rgb(0%,0%,0%);fill-opacity:0.996078;stroke:none;"/>
  </g>
</mask>
<clipPath id="clip4">
  <rect width="50" height="50"/>
</clipPath>
<g id="surface15" clip-path="url(#clip4)">
<path style=" stroke:none;fill-rule:evenodd;fill:rgb(62.745098%,56.862745%,58.823529%);fill-opacity:1;" d="M 35.773438 15.714844 C 34.765625 16.453125 33.757812 17.1875 32.75 17.921875 C 31.050781 15.6875 29.082031 13.710938 26.847656 11.996094 C 25.636719 11.101562 24.324219 10.382812 22.914062 9.835938 C 21.535156 9.328125 20.113281 9.09375 18.640625 9.140625 C 18.417969 8.820312 18.195312 8.5 17.96875 8.179688 C 18.082031 7.96875 18.207031 7.769531 18.355469 7.582031 C 19.390625 7.296875 20.449219 7.199219 21.519531 7.292969 C 23.320312 7.433594 25.03125 7.898438 26.65625 8.683594 C 30.144531 10.4375 33.183594 12.78125 35.773438 15.714844 Z M 35.773438 15.714844 "/>
</g>
<mask id="mask4">
  <g filter="url(#alpha)">
<rect x="0" y="0" width="50" height="50" style="fill:rgb(0%,0%,0%);fill-opacity:0.992157;stroke:none;"/>
  </g>
</mask>
<clipPath id="clip5">
  <rect width="50" height="50"/>
</clipPath>
<g id="surface18" clip-path="url(#clip5)">
<path style=" stroke:none;fill-rule:evenodd;fill:rgb(57.647059%,60.784314%,70.980392%);fill-opacity:1;" d="M 32.171875 18.304688 C 31.125 19.105469 30.003906 19.800781 28.816406 20.394531 C 28.699219 20.433594 28.585938 20.425781 28.480469 20.371094 C 27.277344 18.214844 25.789062 16.269531 24.015625 14.539062 C 22.976562 13.574219 21.792969 12.828125 20.464844 12.308594 C 20.082031 11.460938 19.632812 10.644531 19.121094 9.859375 C 20.015625 9.789062 20.894531 9.875 21.761719 10.125 C 23.476562 10.648438 25.046875 11.445312 26.464844 12.523438 C 28.652344 14.175781 30.554688 16.105469 32.171875 18.304688 Z M 32.171875 18.304688 "/>
</g>
<mask id="mask5">
  <g filter="url(#alpha)">
<rect x="0" y="0" width="50" height="50" style="fill:rgb(0%,0%,0%);fill-opacity:0.964706;stroke:none;"/>
  </g>
</mask>
<clipPath id="clip6">
  <rect width="50" height="50"/>
</clipPath>
<g id="surface21" clip-path="url(#clip6)">
<path style=" stroke:none;fill-rule:evenodd;fill:rgb(67.058824%,24.313725%,18.823529%);fill-opacity:1;" d="M 18.832031 27.183594 C 18.347656 27.515625 17.820312 27.753906 17.25 27.902344 C 16.710938 28.015625 16.199219 27.945312 15.714844 27.6875 C 15.546875 27.550781 15.378906 27.414062 15.210938 27.277344 C 14.214844 27.871094 13.136719 28.140625 11.972656 28.09375 C 10.769531 28.199219 9.953125 27.695312 9.523438 26.582031 C 8.585938 26.421875 7.808594 25.980469 7.199219 25.265625 C 6.597656 24.261719 6.597656 23.253906 7.199219 22.242188 C 7.597656 21.550781 8.179688 21.09375 8.949219 20.875 C 9.167969 20.835938 9.386719 20.84375 9.597656 20.898438 C 9.585938 19.140625 10.441406 18.414062 12.164062 18.714844 C 12.710938 18.832031 13.214844 19.046875 13.675781 19.363281 C 14.65625 18.386719 15.75 18.234375 16.960938 18.90625 C 17.921875 19.539062 18.484375 20.425781 18.640625 21.570312 C 19.761719 21.738281 20.488281 22.359375 20.824219 23.441406 C 20.925781 24.15625 20.796875 24.828125 20.441406 25.457031 C 20.03125 26.148438 19.496094 26.722656 18.832031 27.183594 Z M 18.832031 27.183594 "/>
</g>
<mask id="mask6">
  <g filter="url(#alpha)">
<rect x="0" y="0" width="50" height="50" style="fill:rgb(0%,0%,0%);fill-opacity:0.976471;stroke:none;"/>
  </g>
</mask>
<clipPath id="clip7">
  <rect width="50" height="50"/>
</clipPath>
<g id="surface24" clip-path="url(#clip7)">
<path style=" stroke:none;fill-rule:evenodd;fill:rgb(66.666667%,23.921569%,18.823529%);fill-opacity:1;" d="M 35.53125 25.3125 C 35.433594 25.234375 35.324219 25.210938 35.195312 25.238281 C 35.097656 25.367188 35.015625 25.503906 34.957031 25.648438 C 34.59375 26.191406 34.175781 26.695312 33.710938 27.160156 C 33.425781 27.324219 33.21875 27.25 33.085938 26.945312 C 32.992188 26.421875 32.933594 25.890625 32.917969 25.359375 C 31.835938 26.152344 31.085938 27.191406 30.664062 28.480469 C 30.113281 30.015625 29.832031 31.597656 29.824219 33.230469 C 29.832031 33.328125 29.820312 33.421875 29.796875 33.515625 C 29.6875 33.644531 29.574219 33.644531 29.460938 33.515625 C 29.4375 33.421875 29.429688 33.328125 29.4375 33.230469 C 29.496094 31.519531 29.808594 29.855469 30.375 28.238281 C 30.847656 26.871094 31.679688 25.785156 32.871094 24.976562 C 32.894531 24.738281 32.902344 24.496094 32.894531 24.257812 C 32.777344 24.238281 32.667969 24.207031 32.558594 24.160156 C 31.664062 24.492188 30.902344 25.019531 30.277344 25.742188 C 29.222656 27.054688 28.472656 28.523438 28.023438 30.160156 C 27.714844 31.160156 27.515625 32.183594 27.421875 33.230469 C 27.414062 33.34375 27.351562 33.390625 27.230469 33.375 C 27.132812 33.367188 27.066406 33.320312 27.039062 33.230469 C 27.28125 30.84375 28.011719 28.621094 29.222656 26.558594 C 29.949219 25.417969 30.917969 24.546875 32.125 23.945312 C 31.785156 23.785156 31.472656 23.585938 31.191406 23.34375 C 31.179688 23.253906 31.15625 23.175781 31.117188 23.105469 C 31.140625 23.058594 31.171875 23.019531 31.214844 22.984375 C 31.636719 22.828125 32.050781 22.660156 32.460938 22.480469 C 32.675781 22.460938 32.851562 22.382812 32.988281 22.242188 C 33.027344 21.65625 33.164062 21.097656 33.398438 20.5625 C 33.527344 20.390625 33.695312 20.335938 33.902344 20.394531 C 34.011719 20.472656 34.125 20.554688 34.238281 20.632812 C 34.546875 20.945312 34.851562 21.257812 35.148438 21.570312 C 35.722656 21.351562 36.316406 21.265625 36.925781 21.304688 C 36.992188 21.328125 37.046875 21.367188 37.09375 21.425781 C 37.132812 21.675781 37.101562 21.914062 36.996094 22.144531 C 36.832031 22.53125 36.648438 22.90625 36.445312 23.273438 C 36.851562 23.867188 37.226562 24.484375 37.570312 25.121094 C 37.589844 25.511719 37.398438 25.671875 36.996094 25.601562 C 36.5 25.550781 36.011719 25.453125 35.53125 25.3125 Z M 35.53125 25.3125 "/>
</g>
<mask id="mask7">
  <g filter="url(#alpha)">
<rect x="0" y="0" width="50" height="50" style="fill:rgb(0%,0%,0%);fill-opacity:0.611765;stroke:none;"/>
  </g>
</mask>
<clipPath id="clip8">
  <rect width="50" height="50"/>
</clipPath>
<g id="surface27" clip-path="url(#clip8)">
<path style=" stroke:none;fill-rule:evenodd;fill:rgb(2.745098%,0.784314%,0.392157%);fill-opacity:1;" d="M 32.988281 22.242188 C 32.851562 22.382812 32.675781 22.460938 32.460938 22.480469 C 32.621094 22.375 32.796875 22.292969 32.988281 22.242188 Z M 32.988281 22.242188 "/>
</g>
<mask id="mask8">
  <g filter="url(#alpha)">
<rect x="0" y="0" width="50" height="50" style="fill:rgb(0%,0%,0%);fill-opacity:0.984314;stroke:none;"/>
  </g>
</mask>
<clipPath id="clip9">
  <rect width="50" height="50"/>
</clipPath>
<g id="surface30" clip-path="url(#clip9)">
<path style=" stroke:none;fill-rule:evenodd;fill:rgb(94.509804%,92.941176%,90.196078%);fill-opacity:1;" d="M 31.117188 23.105469 C 31.15625 23.175781 31.179688 23.253906 31.191406 23.34375 C 31.472656 23.585938 31.785156 23.785156 32.125 23.945312 C 30.917969 24.546875 29.949219 25.417969 29.222656 26.558594 C 28.011719 28.621094 27.28125 30.84375 27.039062 33.230469 C 26.527344 33.195312 26.015625 33.179688 25.503906 33.179688 C 25.636719 30.882812 26.222656 28.707031 27.253906 26.65625 C 28.136719 25.027344 29.425781 23.84375 31.117188 23.105469 Z M 31.117188 23.105469 "/>
</g>
<mask id="mask9">
  <g filter="url(#alpha)">
<rect x="0" y="0" width="50" height="50" style="fill:rgb(0%,0%,0%);fill-opacity:0.996078;stroke:none;"/>
  </g>
</mask>
<clipPath id="clip10">
  <rect width="50" height="50"/>
</clipPath>
<g id="surface33" clip-path="url(#clip10)">
<path style=" stroke:none;fill-rule:evenodd;fill:rgb(58.039216%,60.784314%,70.588235%);fill-opacity:1;" d="M 29.4375 33.230469 C 28.765625 33.230469 28.09375 33.230469 27.421875 33.230469 C 27.515625 32.183594 27.714844 31.160156 28.023438 30.160156 C 28.472656 28.523438 29.222656 27.054688 30.277344 25.742188 C 30.902344 25.019531 31.664062 24.492188 32.558594 24.160156 C 32.667969 24.207031 32.777344 24.238281 32.894531 24.257812 C 32.902344 24.496094 32.894531 24.738281 32.871094 24.976562 C 31.679688 25.785156 30.847656 26.871094 30.375 28.238281 C 29.808594 29.855469 29.496094 31.519531 29.4375 33.230469 Z M 29.4375 33.230469 "/>
</g>
<mask id="mask10">
  <g filter="url(#alpha)">
<rect x="0" y="0" width="50" height="50" style="fill:rgb(0%,0%,0%);fill-opacity:0.521569;stroke:none;"/>
  </g>
</mask>
<clipPath id="clip11">
  <rect width="50" height="50"/>
</clipPath>
<g id="surface36" clip-path="url(#clip11)">
<path style=" stroke:none;fill-rule:evenodd;fill:rgb(5.098039%,1.960784%,1.568627%);fill-opacity:1;" d="M 35.53125 25.3125 C 35.433594 25.296875 35.335938 25.3125 35.246094 25.359375 C 35.164062 25.472656 35.066406 25.570312 34.957031 25.648438 C 35.015625 25.503906 35.097656 25.367188 35.195312 25.238281 C 35.324219 25.210938 35.433594 25.234375 35.53125 25.3125 Z M 35.53125 25.3125 "/>
</g>
<mask id="mask11">
  <g filter="url(#alpha)">
<rect x="0" y="0" width="50" height="50" style="fill:rgb(0%,0%,0%);fill-opacity:0.988235;stroke:none;"/>
  </g>
</mask>
<clipPath id="clip12">
  <rect width="50" height="50"/>
</clipPath>
<g id="surface39" clip-path="url(#clip12)">
<path style=" stroke:none;fill-rule:evenodd;fill:rgb(63.137255%,56.862745%,58.823529%);fill-opacity:1;" d="M 33.085938 26.945312 C 32.597656 27.738281 32.285156 28.601562 32.148438 29.535156 C 32.003906 30.703125 31.988281 31.871094 32.101562 33.039062 C 31.972656 33.101562 31.839844 33.140625 31.695312 33.15625 C 31.070312 33.214844 30.449219 33.238281 29.824219 33.230469 C 29.832031 31.597656 30.113281 30.015625 30.664062 28.480469 C 31.085938 27.191406 31.835938 26.152344 32.917969 25.359375 C 32.933594 25.890625 32.992188 26.421875 33.085938 26.945312 Z M 33.085938 26.945312 "/>
</g>
<mask id="mask12">
  <g filter="url(#alpha)">
<rect x="0" y="0" width="50" height="50" style="fill:rgb(0%,0%,0%);fill-opacity:0.764706;stroke:none;"/>
  </g>
</mask>
<clipPath id="clip13">
  <rect width="50" height="50"/>
</clipPath>
<g id="surface42" clip-path="url(#clip13)">
<path style=" stroke:none;fill-rule:evenodd;fill:rgb(97.254902%,94.117647%,93.72549%);fill-opacity:1;" d="M 18.832031 27.183594 C 18.433594 27.695312 17.90625 27.9375 17.25 27.902344 C 17.820312 27.753906 18.347656 27.515625 18.832031 27.183594 Z M 18.832031 27.183594 "/>
</g>
<mask id="mask13">
  <g filter="url(#alpha)">
<rect x="0" y="0" width="50" height="50" style="fill:rgb(0%,0%,0%);fill-opacity:0.760784;stroke:none;"/>
  </g>
</mask>
<clipPath id="clip14">
  <rect width="50" height="50"/>
</clipPath>
<g id="surface45" clip-path="url(#clip14)">
<path style=" stroke:none;fill-rule:evenodd;fill:rgb(6.666667%,6.666667%,6.666667%);fill-opacity:1;" d="M 17.828125 31.835938 C 18.804688 31.785156 19.40625 32.234375 19.625 33.179688 C 19.683594 34.117188 19.257812 34.699219 18.355469 34.933594 C 17.113281 34.972656 16.515625 34.371094 16.554688 33.132812 C 16.699219 32.421875 17.125 31.988281 17.828125 31.835938 Z M 17.828125 31.835938 "/>
</g>
<mask id="mask14">
  <g filter="url(#alpha)">
<rect x="0" y="0" width="50" height="50" style="fill:rgb(0%,0%,0%);fill-opacity:0.792157;stroke:none;"/>
  </g>
</mask>
<clipPath id="clip15">
  <rect width="50" height="50"/>
</clipPath>
<g id="surface48" clip-path="url(#clip15)">
<path style=" stroke:none;fill-rule:evenodd;fill:rgb(66.27451%,23.137255%,17.647059%);fill-opacity:1;" d="M 28.191406 35.4375 C 28.308594 35.414062 28.386719 35.453125 28.429688 35.554688 C 28.382812 35.710938 28.328125 35.863281 28.261719 36.011719 C 28.144531 36.089844 28.054688 36.066406 28 35.941406 C 28.066406 35.773438 28.132812 35.605469 28.191406 35.4375 Z M 28.191406 35.4375 "/>
</g>
<mask id="mask15">
  <g filter="url(#alpha)">
<rect x="0" y="0" width="50" height="50" style="fill:rgb(0%,0%,0%);fill-opacity:0.792157;stroke:none;"/>
  </g>
</mask>
<clipPath id="clip16">
  <rect width="50" height="50"/>
</clipPath>
<g id="surface51" clip-path="url(#clip16)">
<path style=" stroke:none;fill-rule:evenodd;fill:rgb(66.27451%,23.137255%,17.647059%);fill-opacity:1;" d="M 27.902344 36.203125 C 28.074219 36.199219 28.128906 36.28125 28.070312 36.445312 C 28.015625 36.648438 27.898438 36.792969 27.710938 36.875 C 27.667969 36.835938 27.636719 36.789062 27.613281 36.730469 C 27.699219 36.546875 27.796875 36.371094 27.902344 36.203125 Z M 27.902344 36.203125 "/>
</g>
<mask id="mask16">
  <g filter="url(#alpha)">
<rect x="0" y="0" width="50" height="50" style="fill:rgb(0%,0%,0%);fill-opacity:0.807843;stroke:none;"/>
  </g>
</mask>
<clipPath id="clip17">
  <rect width="50" height="50"/>
</clipPath>
<g id="surface54" clip-path="url(#clip17)">
<path style=" stroke:none;fill-rule:evenodd;fill:rgb(66.27451%,23.137255%,17.647059%);fill-opacity:1;" d="M 27.421875 36.972656 C 27.625 36.941406 27.695312 37.019531 27.640625 37.210938 C 27.542969 37.414062 27.390625 37.523438 27.183594 37.546875 C 27.175781 37.464844 27.183594 37.386719 27.207031 37.308594 C 27.292969 37.199219 27.363281 37.089844 27.421875 36.972656 Z M 27.421875 36.972656 "/>
</g>
<mask id="mask17">
  <g filter="url(#alpha)">
<rect x="0" y="0" width="50" height="50" style="fill:rgb(0%,0%,0%);fill-opacity:0.788235;stroke:none;"/>
  </g>
</mask>
<clipPath id="clip18">
  <rect width="50" height="50"/>
</clipPath>
<g id="surface57" clip-path="url(#clip18)">
<path style=" stroke:none;fill-rule:evenodd;fill:rgb(66.27451%,23.137255%,17.647059%);fill-opacity:1;" d="M 20.992188 37.355469 C 21.089844 37.347656 21.1875 37.355469 21.28125 37.378906 C 21.339844 37.433594 21.339844 37.488281 21.28125 37.546875 C 21.171875 37.609375 21.058594 37.667969 20.945312 37.714844 C 20.695312 37.78125 20.625 37.710938 20.730469 37.5 C 20.820312 37.445312 20.90625 37.398438 20.992188 37.355469 Z M 20.992188 37.355469 "/>
</g>
<mask id="mask18">
  <g filter="url(#alpha)">
<rect x="0" y="0" width="50" height="50" style="fill:rgb(0%,0%,0%);fill-opacity:0.764706;stroke:none;"/>
  </g>
</mask>
<clipPath id="clip19">
  <rect width="50" height="50"/>
</clipPath>
<g id="surface60" clip-path="url(#clip19)">
<path style=" stroke:none;fill-rule:evenodd;fill:rgb(66.27451%,23.137255%,17.647059%);fill-opacity:1;" d="M 21.519531 37.402344 C 21.75 37.414062 21.949219 37.492188 22.121094 37.644531 C 22.152344 37.691406 22.152344 37.738281 22.121094 37.789062 C 22.039062 37.839844 21.949219 37.847656 21.855469 37.8125 C 21.746094 37.757812 21.632812 37.699219 21.519531 37.644531 C 21.464844 37.5625 21.464844 37.484375 21.519531 37.402344 Z M 21.519531 37.402344 "/>
</g>
<mask id="mask19">
  <g filter="url(#alpha)">
<rect x="0" y="0" width="50" height="50" style="fill:rgb(0%,0%,0%);fill-opacity:0.839216;stroke:none;"/>
  </g>
</mask>
<clipPath id="clip20">
  <rect width="50" height="50"/>
</clipPath>
<g id="surface63" clip-path="url(#clip20)">
<path style=" stroke:none;fill-rule:evenodd;fill:rgb(66.27451%,23.137255%,17.647059%);fill-opacity:1;" d="M 26.847656 37.691406 C 26.925781 37.691406 27.007812 37.691406 27.085938 37.691406 C 27.066406 37.882812 26.96875 38.035156 26.800781 38.148438 C 26.722656 38.171875 26.640625 38.179688 26.558594 38.171875 C 26.550781 38.105469 26.558594 38.042969 26.582031 37.980469 C 26.679688 37.890625 26.769531 37.792969 26.847656 37.691406 Z M 26.847656 37.691406 "/>
</g>
<mask id="mask20">
  <g filter="url(#alpha)">
<rect x="0" y="0" width="50" height="50" style="fill:rgb(0%,0%,0%);fill-opacity:0.772549;stroke:none;"/>
  </g>
</mask>
<clipPath id="clip21">
  <rect width="50" height="50"/>
</clipPath>
<g id="surface66" clip-path="url(#clip21)">
<path style=" stroke:none;fill-rule:evenodd;fill:rgb(66.27451%,23.137255%,17.647059%);fill-opacity:1;" d="M 20.5625 37.882812 C 20.632812 37.882812 20.691406 37.917969 20.730469 37.980469 C 20.769531 38.171875 20.785156 38.363281 20.777344 38.554688 C 20.714844 38.621094 20.648438 38.621094 20.585938 38.554688 C 20.449219 38.328125 20.441406 38.105469 20.5625 37.882812 Z M 20.5625 37.882812 "/>
</g>
<mask id="mask21">
  <g filter="url(#alpha)">
<rect x="0" y="0" width="50" height="50" style="fill:rgb(0%,0%,0%);fill-opacity:0.811765;stroke:none;"/>
  </g>
</mask>
<clipPath id="clip22">
  <rect width="50" height="50"/>
</clipPath>
<g id="surface69" clip-path="url(#clip22)">
<path style=" stroke:none;fill-rule:evenodd;fill:rgb(66.27451%,23.137255%,17.647059%);fill-opacity:1;" d="M 22.242188 37.933594 C 22.453125 37.945312 22.589844 38.054688 22.648438 38.269531 C 22.671875 38.347656 22.679688 38.425781 22.671875 38.507812 C 22.585938 38.519531 22.507812 38.503906 22.433594 38.460938 C 22.351562 38.332031 22.273438 38.203125 22.191406 38.074219 C 22.222656 38.03125 22.238281 37.984375 22.242188 37.933594 Z M 22.242188 37.933594 "/>
</g>
<mask id="mask22">
  <g filter="url(#alpha)">
<rect x="0" y="0" width="50" height="50" style="fill:rgb(0%,0%,0%);fill-opacity:0.764706;stroke:none;"/>
  </g>
</mask>
<clipPath id="clip23">
  <rect width="50" height="50"/>
</clipPath>
<g id="surface72" clip-path="url(#clip23)">
<path style=" stroke:none;fill-rule:evenodd;fill:rgb(66.27451%,23.137255%,17.647059%);fill-opacity:1;" d="M 26.222656 38.21875 C 26.484375 38.210938 26.53125 38.304688 26.367188 38.507812 C 26.230469 38.640625 26.070312 38.710938 25.886719 38.722656 C 25.835938 38.65625 25.828125 38.585938 25.863281 38.507812 C 25.992188 38.417969 26.113281 38.320312 26.222656 38.21875 Z M 26.222656 38.21875 "/>
</g>
<mask id="mask23">
  <g filter="url(#alpha)">
<rect x="0" y="0" width="50" height="50" style="fill:rgb(0%,0%,0%);fill-opacity:0.780392;stroke:none;"/>
  </g>
</mask>
<clipPath id="clip24">
  <rect width="50" height="50"/>
</clipPath>
<g id="surface75" clip-path="url(#clip24)">
<path style=" stroke:none;fill-rule:evenodd;fill:rgb(66.27451%,23.137255%,17.647059%);fill-opacity:1;" d="M 20.992188 38.652344 C 21.140625 38.71875 21.285156 38.796875 21.425781 38.890625 C 21.472656 38.964844 21.488281 39.046875 21.472656 39.132812 C 21.164062 39.136719 20.957031 39.003906 20.847656 38.722656 C 20.910156 38.710938 20.957031 38.6875 20.992188 38.652344 Z M 20.992188 38.652344 "/>
</g>
<mask id="mask24">
  <g filter="url(#alpha)">
<rect x="0" y="0" width="50" height="50" style="fill:rgb(0%,0%,0%);fill-opacity:0.807843;stroke:none;"/>
  </g>
</mask>
<clipPath id="clip25">
  <rect width="50" height="50"/>
</clipPath>
<g id="surface78" clip-path="url(#clip25)">
<path style=" stroke:none;fill-rule:evenodd;fill:rgb(66.27451%,23.137255%,17.647059%);fill-opacity:1;" d="M 22.671875 38.652344 C 22.773438 38.652344 22.835938 38.699219 22.863281 38.796875 C 22.902344 38.9375 22.917969 39.082031 22.914062 39.226562 C 23.046875 39.203125 23.140625 39.253906 23.199219 39.371094 C 23.125 39.488281 23.011719 39.542969 22.863281 39.539062 C 22.960938 39.65625 22.984375 39.792969 22.9375 39.945312 C 22.921875 40.027344 22.90625 40.105469 22.890625 40.1875 C 22.765625 40.257812 22.679688 40.226562 22.625 40.089844 C 22.660156 39.933594 22.683594 39.773438 22.695312 39.609375 C 22.722656 39.585938 22.746094 39.5625 22.769531 39.539062 C 22.699219 39.484375 22.621094 39.453125 22.527344 39.445312 C 22.449219 39.292969 22.496094 39.21875 22.671875 39.226562 C 22.648438 39.082031 22.617188 38.9375 22.578125 38.796875 C 22.597656 38.734375 22.628906 38.6875 22.671875 38.652344 Z M 22.671875 38.652344 "/>
</g>
<mask id="mask25">
  <g filter="url(#alpha)">
<rect x="0" y="0" width="50" height="50" style="fill:rgb(0%,0%,0%);fill-opacity:0.788235;stroke:none;"/>
  </g>
</mask>
<clipPath id="clip26">
  <rect width="50" height="50"/>
</clipPath>
<g id="surface81" clip-path="url(#clip26)">
<path style=" stroke:none;fill-rule:evenodd;fill:rgb(66.27451%,23.137255%,17.647059%);fill-opacity:1;" d="M 25.550781 38.652344 C 25.601562 38.648438 25.640625 38.664062 25.671875 38.699219 C 25.710938 38.785156 25.703125 38.863281 25.648438 38.941406 C 25.476562 39.03125 25.300781 39.085938 25.121094 39.109375 C 25.070312 39.039062 25.0625 38.96875 25.097656 38.890625 C 25.25 38.804688 25.402344 38.726562 25.550781 38.652344 Z M 25.550781 38.652344 "/>
</g>
<mask id="mask26">
  <g filter="url(#alpha)">
<rect x="0" y="0" width="50" height="50" style="fill:rgb(0%,0%,0%);fill-opacity:0.8;stroke:none;"/>
  </g>
</mask>
<clipPath id="clip27">
  <rect width="50" height="50"/>
</clipPath>
<g id="surface84" clip-path="url(#clip27)">
<path style=" stroke:none;fill-rule:evenodd;fill:rgb(66.27451%,23.137255%,17.647059%);fill-opacity:1;" d="M 24.6875 38.988281 C 24.871094 38.996094 24.921875 39.085938 24.832031 39.25 C 24.636719 39.34375 24.433594 39.367188 24.230469 39.324219 C 24.199219 39.234375 24.222656 39.160156 24.304688 39.109375 C 24.441406 39.082031 24.570312 39.042969 24.6875 38.988281 Z M 24.6875 38.988281 "/>
</g>
<mask id="mask27">
  <g filter="url(#alpha)">
<rect x="0" y="0" width="50" height="50" style="fill:rgb(0%,0%,0%);fill-opacity:0.772549;stroke:none;"/>
  </g>
</mask>
<clipPath id="clip28">
  <rect width="50" height="50"/>
</clipPath>
<g id="surface87" clip-path="url(#clip28)">
<path style=" stroke:none;fill-rule:evenodd;fill:rgb(66.27451%,23.137255%,17.647059%);fill-opacity:1;" d="M 21.664062 39.035156 C 21.859375 39.058594 22.050781 39.101562 22.242188 39.15625 C 22.371094 39.289062 22.339844 39.378906 22.144531 39.417969 C 22 39.386719 21.855469 39.347656 21.714844 39.300781 C 21.601562 39.230469 21.585938 39.140625 21.664062 39.035156 Z M 21.664062 39.035156 "/>
</g>
<mask id="mask28">
  <g filter="url(#alpha)">
<rect x="0" y="0" width="50" height="50" style="fill:rgb(0%,0%,0%);fill-opacity:0.788235;stroke:none;"/>
  </g>
</mask>
<clipPath id="clip29">
  <rect width="50" height="50"/>
</clipPath>
<g id="surface90" clip-path="url(#clip29)">
<path style=" stroke:none;fill-rule:evenodd;fill:rgb(66.27451%,23.137255%,17.647059%);fill-opacity:1;" d="M 23.726562 39.179688 C 23.839844 39.167969 23.941406 39.183594 24.039062 39.226562 C 24.074219 39.316406 24.050781 39.390625 23.96875 39.445312 C 23.816406 39.457031 23.664062 39.480469 23.511719 39.515625 C 23.359375 39.472656 23.320312 39.386719 23.390625 39.25 C 23.515625 39.242188 23.625 39.21875 23.726562 39.179688 Z M 23.726562 39.179688 "/>
</g>
<mask id="mask29">
  <g filter="url(#alpha)">
<rect x="0" y="0" width="50" height="50" style="fill:rgb(0%,0%,0%);fill-opacity:0.807843;stroke:none;"/>
  </g>
</mask>
<clipPath id="clip30">
  <rect width="50" height="50"/>
</clipPath>
<g id="surface93" clip-path="url(#clip30)">
<path style=" stroke:none;fill-rule:evenodd;fill:rgb(66.27451%,23.137255%,17.647059%);fill-opacity:1;" d="M 22.625 40.378906 C 22.769531 40.363281 22.832031 40.425781 22.816406 40.570312 C 22.792969 40.71875 22.75 40.863281 22.695312 41.003906 C 22.578125 41.078125 22.488281 41.054688 22.433594 40.929688 C 22.484375 40.742188 22.550781 40.558594 22.625 40.378906 Z M 22.625 40.378906 "/>
</g>
<mask id="mask30">
  <g filter="url(#alpha)">
<rect x="0" y="0" width="50" height="50" style="fill:rgb(0%,0%,0%);fill-opacity:0.796078;stroke:none;"/>
  </g>
</mask>
<clipPath id="clip31">
  <rect width="50" height="50"/>
</clipPath>
<g id="surface96" clip-path="url(#clip31)">
<path style=" stroke:none;fill-rule:evenodd;fill:rgb(66.27451%,23.137255%,17.647059%);fill-opacity:1;" d="M 22.289062 41.242188 C 22.40625 41.222656 22.503906 41.253906 22.578125 41.339844 C 22.519531 41.503906 22.445312 41.664062 22.359375 41.820312 C 22.242188 41.894531 22.152344 41.871094 22.097656 41.746094 C 22.183594 41.585938 22.246094 41.417969 22.289062 41.242188 Z M 22.289062 41.242188 "/>
</g>
<mask id="mask31">
  <g filter="url(#alpha)">
<rect x="0" y="0" width="50" height="50" style="fill:rgb(0%,0%,0%);fill-opacity:0.784314;stroke:none;"/>
  </g>
</mask>
<clipPath id="clip32">
  <rect width="50" height="50"/>
</clipPath>
<g id="surface99" clip-path="url(#clip32)">
<path style=" stroke:none;fill-rule:evenodd;fill:rgb(66.27451%,23.137255%,17.647059%);fill-opacity:1;" d="M 21.953125 42.011719 C 22.128906 41.972656 22.199219 42.039062 22.167969 42.203125 C 22.105469 42.335938 22.035156 42.464844 21.953125 42.585938 C 21.878906 42.632812 21.800781 42.648438 21.714844 42.632812 C 21.707031 42.554688 21.714844 42.472656 21.738281 42.394531 C 21.820312 42.273438 21.894531 42.144531 21.953125 42.011719 Z M 21.953125 42.011719 "/>
</g>
<mask id="mask32">
  <g filter="url(#alpha)">
<rect x="0" y="0" width="50" height="50" style="fill:rgb(0%,0%,0%);fill-opacity:0.784314;stroke:none;"/>
  </g>
</mask>
<clipPath id="clip33">
  <rect width="50" height="50"/>
</clipPath>
<g id="surface102" clip-path="url(#clip33)">
<path style=" stroke:none;fill-rule:evenodd;fill:rgb(66.27451%,23.137255%,17.647059%);fill-opacity:1;" d="M 21.519531 42.730469 C 21.691406 42.726562 21.75 42.804688 21.6875 42.96875 C 21.585938 43.164062 21.433594 43.292969 21.234375 43.355469 C 21.226562 43.257812 21.234375 43.160156 21.257812 43.066406 C 21.34375 42.953125 21.433594 42.839844 21.519531 42.730469 Z M 21.519531 42.730469 "/>
</g>
<mask id="mask33">
  <g filter="url(#alpha)">
<rect x="0" y="0" width="50" height="50" style="fill:rgb(0%,0%,0%);fill-opacity:0.741176;stroke:none;"/>
  </g>
</mask>
<clipPath id="clip34">
  <rect width="50" height="50"/>
</clipPath>
<g id="surface105" clip-path="url(#clip34)">
<path style=" stroke:none;fill-rule:evenodd;fill:rgb(66.27451%,23.137255%,17.647059%);fill-opacity:1;" d="M 16.960938 42.777344 C 17.292969 42.789062 17.484375 42.949219 17.539062 43.257812 C 17.457031 43.265625 17.375 43.257812 17.296875 43.234375 C 17.199219 43.148438 17.085938 43.085938 16.960938 43.042969 C 16.902344 42.953125 16.902344 42.867188 16.960938 42.777344 Z M 16.960938 42.777344 "/>
</g>
<mask id="mask34">
  <g filter="url(#alpha)">
<rect x="0" y="0" width="50" height="50" style="fill:rgb(0%,0%,0%);fill-opacity:0.815686;stroke:none;"/>
  </g>
</mask>
<clipPath id="clip35">
  <rect width="50" height="50"/>
</clipPath>
<g id="surface108" clip-path="url(#clip35)">
<path style=" stroke:none;fill-rule:evenodd;fill:rgb(66.27451%,23.137255%,17.647059%);fill-opacity:1;" d="M 16.53125 42.828125 C 16.664062 42.796875 16.742188 42.847656 16.769531 42.96875 C 16.667969 43.082031 16.585938 43.207031 16.53125 43.355469 C 16.320312 43.488281 16.246094 43.421875 16.316406 43.164062 C 16.363281 43.03125 16.433594 42.921875 16.53125 42.828125 Z M 16.53125 42.828125 "/>
</g>
<mask id="mask35">
  <g filter="url(#alpha)">
<rect x="0" y="0" width="50" height="50" style="fill:rgb(0%,0%,0%);fill-opacity:0.788235;stroke:none;"/>
  </g>
</mask>
<clipPath id="clip36">
  <rect width="50" height="50"/>
</clipPath>
<g id="surface111" clip-path="url(#clip36)">
<path style=" stroke:none;fill-rule:evenodd;fill:rgb(66.27451%,23.137255%,17.647059%);fill-opacity:1;" d="M 17.632812 43.355469 C 17.730469 43.34375 17.816406 43.359375 17.898438 43.402344 C 18.050781 43.546875 18.121094 43.722656 18.113281 43.929688 C 18.007812 43.945312 17.917969 43.914062 17.851562 43.832031 C 17.753906 43.710938 17.664062 43.585938 17.585938 43.449219 C 17.605469 43.417969 17.621094 43.386719 17.632812 43.355469 Z M 17.632812 43.355469 "/>
</g>
<mask id="mask36">
  <g filter="url(#alpha)">
<rect x="0" y="0" width="50" height="50" style="fill:rgb(0%,0%,0%);fill-opacity:0.721569;stroke:none;"/>
  </g>
</mask>
<clipPath id="clip37">
  <rect width="50" height="50"/>
</clipPath>
<g id="surface114" clip-path="url(#clip37)">
<path style=" stroke:none;fill-rule:evenodd;fill:rgb(66.27451%,23.137255%,17.647059%);fill-opacity:1;" d="M 20.992188 43.402344 C 21.042969 43.398438 21.082031 43.414062 21.113281 43.449219 C 21.144531 43.53125 21.144531 43.609375 21.113281 43.691406 C 21.023438 43.777344 20.9375 43.867188 20.847656 43.953125 C 20.765625 43.992188 20.683594 43.984375 20.609375 43.929688 C 20.570312 43.882812 20.5625 43.835938 20.585938 43.785156 C 20.714844 43.648438 20.851562 43.519531 20.992188 43.402344 Z M 20.992188 43.402344 "/>
</g>
<mask id="mask37">
  <g filter="url(#alpha)">
<rect x="0" y="0" width="50" height="50" style="fill:rgb(0%,0%,0%);fill-opacity:0.807843;stroke:none;"/>
  </g>
</mask>
<clipPath id="clip38">
  <rect width="50" height="50"/>
</clipPath>
<g id="surface117" clip-path="url(#clip38)">
<path style=" stroke:none;fill-rule:evenodd;fill:rgb(66.27451%,23.137255%,17.647059%);fill-opacity:1;" d="M 16.289062 43.59375 C 16.429688 43.582031 16.5 43.644531 16.507812 43.785156 C 16.539062 43.894531 16.5625 44.007812 16.578125 44.121094 C 16.554688 44.339844 16.476562 44.367188 16.339844 44.195312 C 16.242188 43.996094 16.226562 43.796875 16.289062 43.59375 Z M 16.289062 43.59375 "/>
</g>
<mask id="mask38">
  <g filter="url(#alpha)">
<rect x="0" y="0" width="50" height="50" style="fill:rgb(0%,0%,0%);fill-opacity:0.780392;stroke:none;"/>
  </g>
</mask>
<clipPath id="clip39">
  <rect width="50" height="50"/>
</clipPath>
<g id="surface120" clip-path="url(#clip39)">
<path style=" stroke:none;fill-rule:evenodd;fill:rgb(66.27451%,23.137255%,17.647059%);fill-opacity:1;" d="M 18.164062 44.027344 C 18.253906 44.015625 18.324219 44.046875 18.378906 44.121094 C 18.503906 44.292969 18.558594 44.484375 18.546875 44.699219 C 18.4375 44.714844 18.351562 44.679688 18.28125 44.601562 C 18.226562 44.457031 18.171875 44.3125 18.113281 44.167969 C 18.125 44.117188 18.140625 44.070312 18.164062 44.027344 Z M 18.164062 44.027344 "/>
</g>
<mask id="mask39">
  <g filter="url(#alpha)">
<rect x="0" y="0" width="50" height="50" style="fill:rgb(0%,0%,0%);fill-opacity:0.796078;stroke:none;"/>
  </g>
</mask>
<clipPath id="clip40">
  <rect width="50" height="50"/>
</clipPath>
<g id="surface123" clip-path="url(#clip40)">
<path style=" stroke:none;fill-rule:evenodd;fill:rgb(66.27451%,23.137255%,17.647059%);fill-opacity:1;" d="M 20.273438 44.027344 C 20.507812 43.996094 20.5625 44.074219 20.441406 44.265625 C 20.308594 44.425781 20.140625 44.496094 19.9375 44.480469 C 19.878906 44.410156 19.878906 44.339844 19.9375 44.265625 C 20.0625 44.195312 20.171875 44.117188 20.273438 44.027344 Z M 20.273438 44.027344 "/>
</g>
<mask id="mask40">
  <g filter="url(#alpha)">
<rect x="0" y="0" width="50" height="50" style="fill:rgb(0%,0%,0%);fill-opacity:0.752941;stroke:none;"/>
  </g>
</mask>
<clipPath id="clip41">
  <rect width="50" height="50"/>
</clipPath>
<g id="surface126" clip-path="url(#clip41)">
<path style=" stroke:none;fill-rule:evenodd;fill:rgb(66.27451%,23.137255%,17.647059%);fill-opacity:1;" d="M 16.675781 44.363281 C 16.859375 44.421875 17.035156 44.511719 17.203125 44.625 C 17.246094 44.691406 17.261719 44.761719 17.25 44.839844 C 17.019531 44.867188 16.820312 44.789062 16.652344 44.601562 C 16.621094 44.515625 16.628906 44.4375 16.675781 44.363281 Z M 16.675781 44.363281 "/>
</g>
<mask id="mask41">
  <g filter="url(#alpha)">
<rect x="0" y="0" width="50" height="50" style="fill:rgb(0%,0%,0%);fill-opacity:0.807843;stroke:none;"/>
  </g>
</mask>
<clipPath id="clip42">
  <rect width="50" height="50"/>
</clipPath>
<g id="surface129" clip-path="url(#clip42)">
<path style=" stroke:none;fill-rule:evenodd;fill:rgb(66.27451%,23.137255%,17.647059%);fill-opacity:1;" d="M 19.554688 44.457031 C 19.617188 44.457031 19.683594 44.457031 19.746094 44.457031 C 19.757812 44.550781 19.742188 44.640625 19.699219 44.722656 C 19.515625 44.820312 19.324219 44.875 19.121094 44.890625 C 19.109375 44.804688 19.125 44.722656 19.167969 44.648438 C 19.308594 44.59375 19.433594 44.53125 19.554688 44.457031 Z M 19.554688 44.457031 "/>
</g>
<mask id="mask42">
  <g filter="url(#alpha)">
<rect x="0" y="0" width="50" height="50" style="fill:rgb(0%,0%,0%);fill-opacity:0.796078;stroke:none;"/>
  </g>
</mask>
<clipPath id="clip43">
  <rect width="50" height="50"/>
</clipPath>
<g id="surface132" clip-path="url(#clip43)">
<path style=" stroke:none;fill-rule:evenodd;fill:rgb(66.27451%,23.137255%,17.647059%);fill-opacity:1;" d="M 17.441406 44.746094 C 17.648438 44.777344 17.859375 44.808594 18.066406 44.839844 C 18.066406 44.921875 18.066406 45 18.066406 45.082031 C 17.855469 45.089844 17.644531 45.066406 17.441406 45.007812 C 17.382812 44.921875 17.382812 44.832031 17.441406 44.746094 Z M 17.441406 44.746094 "/>
</g>
<mask id="mask43">
  <g filter="url(#alpha)">
<rect x="0" y="0" width="50" height="50" style="fill:rgb(0%,0%,0%);fill-opacity:0.847059;stroke:none;"/>
  </g>
</mask>
<clipPath id="clip44">
  <rect width="50" height="50"/>
</clipPath>
<g id="surface135" clip-path="url(#clip44)">
<path style=" stroke:none;fill-rule:evenodd;fill:rgb(66.27451%,23.137255%,17.647059%);fill-opacity:1;" d="M 18.691406 44.746094 C 18.890625 44.714844 18.960938 44.792969 18.90625 44.984375 C 18.847656 45.011719 18.792969 45.046875 18.738281 45.082031 C 18.800781 45.210938 18.820312 45.335938 18.785156 45.464844 C 18.714844 45.523438 18.640625 45.523438 18.570312 45.464844 C 18.53125 45.339844 18.507812 45.210938 18.5 45.082031 C 18.285156 45.109375 18.222656 45.03125 18.304688 44.839844 C 18.441406 44.8125 18.570312 44.78125 18.691406 44.746094 Z M 18.691406 44.746094 "/>
</g>
<mask id="mask44">
  <g filter="url(#alpha)">
<rect x="0" y="0" width="50" height="50" style="fill:rgb(0%,0%,0%);fill-opacity:0.756863;stroke:none;"/>
  </g>
</mask>
<clipPath id="clip45">
  <rect width="50" height="50"/>
</clipPath>
<g id="surface138" clip-path="url(#clip45)">
<path style=" stroke:none;fill-rule:evenodd;fill:rgb(66.27451%,23.137255%,17.647059%);fill-opacity:1;" d="M 18.640625 45.707031 C 18.722656 45.695312 18.792969 45.710938 18.859375 45.753906 C 18.890625 45.945312 18.890625 46.136719 18.859375 46.328125 C 18.789062 46.402344 18.71875 46.417969 18.640625 46.378906 C 18.582031 46.152344 18.582031 45.925781 18.640625 45.707031 Z M 18.640625 45.707031 "/>
</g>
<mask id="mask45">
  <g filter="url(#alpha)">
<rect x="0" y="0" width="50" height="50" style="fill:rgb(0%,0%,0%);fill-opacity:0.776471;stroke:none;"/>
  </g>
</mask>
<clipPath id="clip46">
  <rect width="50" height="50"/>
</clipPath>
<g id="surface141" clip-path="url(#clip46)">
<path style=" stroke:none;fill-rule:evenodd;fill:rgb(66.27451%,23.137255%,17.647059%);fill-opacity:1;" d="M 18.546875 46.570312 C 18.664062 46.554688 18.742188 46.605469 18.785156 46.714844 C 18.726562 46.839844 18.667969 46.96875 18.617188 47.097656 C 18.53125 47.179688 18.429688 47.210938 18.304688 47.191406 C 18.34375 46.96875 18.425781 46.761719 18.546875 46.570312 Z M 18.546875 46.570312 "/>
</g>
<mask id="mask46">
  <g filter="url(#alpha)">
<rect x="0" y="0" width="50" height="50" style="fill:rgb(0%,0%,0%);fill-opacity:0.8;stroke:none;"/>
  </g>
</mask>
<clipPath id="clip47">
  <rect width="50" height="50"/>
</clipPath>
<g id="surface144" clip-path="url(#clip47)">
<path style=" stroke:none;fill-rule:evenodd;fill:rgb(66.27451%,23.137255%,17.647059%);fill-opacity:1;" d="M 18.066406 47.335938 C 18.222656 47.320312 18.292969 47.382812 18.28125 47.527344 C 18.183594 47.640625 18.078125 47.742188 17.96875 47.839844 C 17.910156 47.863281 17.84375 47.871094 17.777344 47.863281 C 17.769531 47.78125 17.777344 47.703125 17.800781 47.625 C 17.898438 47.535156 17.988281 47.4375 18.066406 47.335938 Z M 18.066406 47.335938 "/>
</g>
<mask id="mask47">
  <g filter="url(#alpha)">
<rect x="0" y="0" width="50" height="50" style="fill:rgb(0%,0%,0%);fill-opacity:0.807843;stroke:none;"/>
  </g>
</mask>
<clipPath id="clip48">
  <rect width="50" height="50"/>
</clipPath>
<g id="surface147" clip-path="url(#clip48)">
<path style=" stroke:none;fill-rule:evenodd;fill:rgb(66.27451%,23.137255%,17.647059%);fill-opacity:1;" d="M 17.441406 47.914062 C 17.507812 47.914062 17.570312 47.914062 17.632812 47.914062 C 17.644531 48.148438 17.535156 48.300781 17.296875 48.367188 C 17.21875 48.390625 17.140625 48.398438 17.058594 48.390625 C 17.042969 48.304688 17.0625 48.226562 17.105469 48.152344 C 17.230469 48.082031 17.34375 48.003906 17.441406 47.914062 Z M 17.441406 47.914062 "/>
</g>
<mask id="mask48">
  <g filter="url(#alpha)">
<rect x="0" y="0" width="50" height="50" style="fill:rgb(0%,0%,0%);fill-opacity:0.788235;stroke:none;"/>
  </g>
</mask>
<clipPath id="clip49">
  <rect width="50" height="50"/>
</clipPath>
<g id="surface150" clip-path="url(#clip49)">
<path style=" stroke:none;fill-rule:evenodd;fill:rgb(66.27451%,23.137255%,17.647059%);fill-opacity:1;" d="M 16.675781 48.34375 C 16.886719 48.316406 16.949219 48.394531 16.867188 48.585938 C 16.683594 48.695312 16.488281 48.742188 16.289062 48.726562 C 16.238281 48.667969 16.230469 48.605469 16.265625 48.535156 C 16.414062 48.484375 16.550781 48.421875 16.675781 48.34375 Z M 16.675781 48.34375 "/>
</g>
<mask id="mask49">
  <g filter="url(#alpha)">
<rect x="0" y="0" width="50" height="50" style="fill:rgb(0%,0%,0%);fill-opacity:0.788235;stroke:none;"/>
  </g>
</mask>
<clipPath id="clip50">
  <rect width="50" height="50"/>
</clipPath>
<g id="surface153" clip-path="url(#clip50)">
<path style=" stroke:none;fill-rule:evenodd;fill:rgb(66.27451%,23.137255%,17.647059%);fill-opacity:1;" d="M 15.667969 48.632812 C 15.8125 48.632812 15.953125 48.632812 16.097656 48.632812 C 16.109375 48.710938 16.09375 48.78125 16.050781 48.847656 C 15.886719 48.894531 15.71875 48.9375 15.546875 48.96875 C 15.40625 48.933594 15.363281 48.851562 15.425781 48.726562 C 15.511719 48.695312 15.59375 48.664062 15.667969 48.632812 Z M 15.667969 48.632812 "/>
</g>
<mask id="mask50">
  <g filter="url(#alpha)">
<rect x="0" y="0" width="50" height="50" style="fill:rgb(0%,0%,0%);fill-opacity:0.862745;stroke:none;"/>
  </g>
</mask>
<clipPath id="clip51">
  <rect width="50" height="50"/>
</clipPath>
<g id="surface156" clip-path="url(#clip51)">
<path style=" stroke:none;fill-rule:evenodd;fill:rgb(66.27451%,23.137255%,17.647059%);fill-opacity:1;" d="M 14.609375 48.679688 C 14.800781 48.714844 14.992188 48.738281 15.1875 48.753906 C 15.25 48.816406 15.25 48.878906 15.1875 48.945312 C 14.980469 48.976562 14.769531 48.976562 14.5625 48.945312 C 14.503906 48.84375 14.519531 48.757812 14.609375 48.679688 Z M 14.609375 48.679688 "/>
</g>
</defs>
<g id="surface1">
<use xlink:href="#surface6" mask="url(#mask0)"/>
<path style=" stroke:none;fill-rule:evenodd;fill:rgb(98.823529%,98.823529%,98.823529%);fill-opacity:1;" d="M 32.894531 0.984375 C 34.070312 0.855469 34.828125 1.351562 35.171875 2.472656 C 35.257812 3.605469 34.753906 4.332031 33.660156 4.65625 C 32.558594 4.734375 31.847656 4.246094 31.527344 3.191406 C 31.421875 2.105469 31.878906 1.367188 32.894531 0.984375 Z M 32.894531 0.984375 "/>
<use xlink:href="#surface9" mask="url(#mask1)"/>
<path style=" stroke:none;fill-rule:evenodd;fill:rgb(98.431373%,98.431373%,98.431373%);fill-opacity:1;" d="M 12.882812 3.765625 C 13.230469 3.878906 13.53125 4.0625 13.796875 4.320312 C 14.195312 4.71875 14.59375 5.117188 14.996094 5.519531 C 14.171875 5.796875 13.339844 6.042969 12.5 6.261719 C 12.515625 5.410156 12.644531 4.578125 12.882812 3.765625 Z M 12.882812 3.765625 "/>
<use xlink:href="#surface12" mask="url(#mask2)"/>
<path style=" stroke:none;fill-rule:evenodd;fill:rgb(97.647059%,97.647059%,97.647059%);fill-opacity:1;" d="M 18.640625 5.207031 C 18.691406 5.207031 18.738281 5.207031 18.785156 5.207031 C 18.441406 6.039062 18.035156 6.839844 17.5625 7.605469 C 17.101562 7.042969 16.644531 6.472656 16.195312 5.902344 C 17.011719 5.660156 17.828125 5.429688 18.640625 5.207031 Z M 18.640625 5.207031 "/>
<path style=" stroke:none;fill-rule:evenodd;fill:rgb(98.823529%,98.823529%,98.823529%);fill-opacity:1;" d="M 15.378906 6.070312 C 15.441406 6.0625 15.5 6.078125 15.546875 6.117188 C 15.753906 6.402344 15.976562 6.675781 16.21875 6.933594 C 16.558594 7.347656 16.871094 7.777344 17.15625 8.230469 C 16.570312 9.289062 15.898438 10.28125 15.140625 11.203125 C 14.1875 10.832031 13.246094 10.449219 12.308594 10.054688 C 12.292969 9.023438 12.339844 8 12.453125 6.980469 C 13.429688 6.667969 14.40625 6.363281 15.378906 6.070312 Z M 15.378906 6.070312 "/>
<path style=" stroke:none;fill-rule:evenodd;fill:rgb(98.431373%,98.431373%,98.431373%);fill-opacity:1;" d="M 11.636719 7.269531 C 11.726562 7.40625 11.757812 7.566406 11.730469 7.75 C 11.710938 8.40625 11.679688 9.0625 11.636719 9.71875 C 10.8125 9.34375 10.046875 8.890625 9.332031 8.347656 C 9.621094 8.109375 9.941406 7.917969 10.292969 7.773438 C 10.734375 7.582031 11.179688 7.414062 11.636719 7.269531 Z M 11.636719 7.269531 "/>
<use xlink:href="#surface15" mask="url(#mask3)"/>
<path style=" stroke:none;fill-rule:evenodd;fill:rgb(54.509804%,53.333333%,54.901961%);fill-opacity:1;" d="M 11.636719 7.269531 C 11.671875 7.226562 11.71875 7.210938 11.78125 7.222656 C 11.796875 7.40625 11.78125 7.582031 11.730469 7.75 C 11.757812 7.566406 11.726562 7.40625 11.636719 7.269531 Z M 11.636719 7.269531 "/>
<path style=" stroke:none;fill-rule:evenodd;fill:rgb(98.431373%,98.431373%,98.431373%);fill-opacity:1;" d="M 17.585938 8.804688 C 18.433594 9.890625 19.160156 11.058594 19.769531 12.308594 C 19.816406 12.414062 19.839844 12.527344 19.839844 12.644531 C 18.445312 12.417969 17.101562 12.019531 15.8125 11.445312 C 16.4375 10.589844 17.03125 9.707031 17.585938 8.804688 Z M 17.585938 8.804688 "/>
<use xlink:href="#surface18" mask="url(#mask4)"/>
<path style=" stroke:none;fill-rule:evenodd;fill:rgb(98.039216%,98.039216%,98.039216%);fill-opacity:1;" d="M 12.308594 10.722656 C 13.132812 11.070312 13.949219 11.429688 14.753906 11.804688 C 14.203125 12.582031 13.578125 13.300781 12.882812 13.964844 C 12.777344 14.046875 12.667969 14.117188 12.546875 14.179688 C 12.464844 13.914062 12.410156 13.644531 12.378906 13.363281 C 12.324219 12.484375 12.296875 11.605469 12.308594 10.722656 Z M 12.308594 10.722656 "/>
<use xlink:href="#surface21" mask="url(#mask5)"/>
<path style=" stroke:none;fill-rule:evenodd;fill:rgb(99.607843%,99.215686%,99.215686%);fill-opacity:1;" d="M 15.1875 18.929688 C 15.878906 18.851562 16.484375 19.035156 17.011719 19.480469 C 17.574219 19.925781 17.949219 20.496094 18.136719 21.183594 C 18.160156 21.34375 18.171875 21.503906 18.164062 21.664062 C 17.316406 21.851562 16.699219 22.332031 16.316406 23.105469 C 16.1875 23.855469 16.5 24.117188 17.25 23.894531 C 18.074219 23.558594 18.519531 22.945312 18.59375 22.050781 C 19.476562 22.140625 20.078125 22.601562 20.394531 23.441406 C 20.480469 24.414062 20.191406 25.261719 19.53125 25.984375 C 18.925781 26.65625 18.199219 27.144531 17.347656 27.445312 C 16.660156 27.664062 16.078125 27.511719 15.59375 26.992188 C 15.609375 26.847656 15.671875 26.71875 15.785156 26.609375 C 16.21875 25.859375 16.195312 25.132812 15.714844 24.425781 C 15.417969 24.242188 15.15625 24.28125 14.921875 24.542969 C 14.492188 25.328125 14.519531 26.105469 14.996094 26.871094 C 14.300781 27.332031 13.53125 27.589844 12.691406 27.640625 C 12.195312 27.671875 11.699219 27.671875 11.203125 27.640625 C 10.628906 27.496094 10.230469 27.152344 10.003906 26.609375 C 11.320312 26.394531 11.789062 25.65625 11.421875 24.398438 C 11.265625 24.117188 11.050781 23.902344 10.773438 23.753906 C 10.449219 23.667969 10.1875 23.757812 9.980469 24.015625 C 9.574219 24.65625 9.40625 25.363281 9.476562 26.128906 C 8.800781 25.996094 8.21875 25.691406 7.726562 25.214844 C 7.167969 24.542969 7.039062 23.789062 7.339844 22.960938 C 7.613281 22.230469 8.101562 21.695312 8.804688 21.351562 C 8.945312 21.304688 9.089844 21.28125 9.238281 21.28125 C 9.492188 21.335938 9.75 21.378906 10.003906 21.402344 C 9.917969 19.183594 10.894531 18.527344 12.933594 19.433594 C 13.082031 19.523438 13.234375 19.609375 13.386719 19.699219 C 13.222656 19.996094 13.078125 20.316406 12.957031 20.65625 C 12.75 21.34375 12.9375 21.894531 13.507812 22.3125 C 14.160156 22.511719 14.566406 22.277344 14.730469 21.617188 C 14.792969 21.203125 14.746094 20.800781 14.585938 20.417969 C 14.429688 20.140625 14.246094 19.886719 14.035156 19.648438 C 14.359375 19.3125 14.746094 19.070312 15.1875 18.929688 Z M 15.1875 18.929688 "/>
<path style=" stroke:none;fill-rule:evenodd;fill:rgb(98.823529%,98.039216%,97.647059%);fill-opacity:1;" d="M 13.699219 20.035156 C 13.871094 20.117188 14.007812 20.246094 14.109375 20.417969 C 14.390625 20.84375 14.4375 21.289062 14.25 21.761719 C 14.101562 22.003906 13.902344 22.058594 13.652344 21.929688 C 13.328125 21.621094 13.226562 21.246094 13.339844 20.800781 C 13.421875 20.523438 13.542969 20.269531 13.699219 20.035156 Z M 13.699219 20.035156 "/>
<use xlink:href="#surface24" mask="url(#mask6)"/>
<path style=" stroke:none;fill-rule:evenodd;fill:rgb(98.823529%,97.254902%,96.862745%);fill-opacity:1;" d="M 33.710938 20.753906 C 34.074219 21.039062 34.410156 21.355469 34.71875 21.714844 C 34.277344 21.855469 33.847656 22.015625 33.421875 22.191406 C 33.398438 21.691406 33.496094 21.210938 33.710938 20.753906 Z M 33.710938 20.753906 "/>
<path style=" stroke:none;fill-rule:evenodd;fill:rgb(81.960784%,60.392157%,58.039216%);fill-opacity:1;" d="M 36.394531 21.664062 C 36.515625 21.601562 36.644531 21.601562 36.78125 21.664062 C 36.773438 21.695312 36.757812 21.710938 36.730469 21.714844 C 36.632812 21.667969 36.519531 21.652344 36.394531 21.664062 Z M 36.394531 21.664062 "/>
<path style=" stroke:none;fill-rule:evenodd;fill:rgb(98.823529%,97.647059%,97.647059%);fill-opacity:1;" d="M 36.394531 21.664062 C 36.519531 21.652344 36.632812 21.667969 36.730469 21.714844 C 36.59375 22.152344 36.402344 22.566406 36.15625 22.960938 C 35.894531 22.609375 35.621094 22.265625 35.339844 21.929688 C 35.675781 21.78125 36.027344 21.691406 36.394531 21.664062 Z M 36.394531 21.664062 "/>
<path style=" stroke:none;fill-rule:evenodd;fill:rgb(99.215686%,98.823529%,98.823529%);fill-opacity:1;" d="M 34.765625 22.050781 C 34.917969 22.023438 35.035156 22.070312 35.125 22.191406 C 35.414062 22.570312 35.695312 22.953125 35.964844 23.34375 C 35.699219 23.777344 35.4375 24.207031 35.171875 24.640625 C 35.136719 24.691406 35.089844 24.722656 35.027344 24.734375 C 34.4375 24.550781 33.859375 24.324219 33.300781 24.0625 C 33.257812 23.566406 33.273438 23.070312 33.347656 22.578125 C 33.824219 22.394531 34.296875 22.21875 34.765625 22.050781 Z M 34.765625 22.050781 "/>
<path style=" stroke:none;fill-rule:evenodd;fill:rgb(98.823529%,97.647059%,97.254902%);fill-opacity:1;" d="M 17.96875 22.097656 C 18.035156 22.097656 18.097656 22.097656 18.164062 22.097656 C 18.070312 23.003906 17.574219 23.484375 16.675781 23.535156 C 16.667969 23.277344 16.757812 23.050781 16.9375 22.863281 C 17.238281 22.542969 17.582031 22.285156 17.96875 22.097656 Z M 17.96875 22.097656 "/>
<use xlink:href="#surface27" mask="url(#mask7)"/>
<path style=" stroke:none;fill-rule:evenodd;fill:rgb(98.823529%,97.647059%,97.647059%);fill-opacity:1;" d="M 32.75 22.769531 C 32.8125 22.769531 32.878906 22.769531 32.941406 22.769531 C 32.933594 23.136719 32.917969 23.503906 32.894531 23.871094 C 32.453125 23.714844 32.035156 23.507812 31.644531 23.25 C 32.011719 23.074219 32.378906 22.914062 32.75 22.769531 Z M 32.75 22.769531 "/>
<use xlink:href="#surface30" mask="url(#mask8)"/>
<path style=" stroke:none;fill-rule:evenodd;fill:rgb(98.823529%,97.647059%,97.647059%);fill-opacity:1;" d="M 36.15625 23.679688 C 36.203125 23.675781 36.246094 23.691406 36.277344 23.726562 C 36.605469 24.203125 36.917969 24.691406 37.210938 25.191406 C 36.597656 25.210938 36.003906 25.097656 35.4375 24.855469 C 35.695312 24.476562 35.933594 24.082031 36.15625 23.679688 Z M 36.15625 23.679688 "/>
<path style=" stroke:none;fill-rule:evenodd;fill:rgb(99.215686%,98.039216%,98.039216%);fill-opacity:1;" d="M 10.53125 24.113281 C 10.839844 24.234375 11.039062 24.460938 11.132812 24.785156 C 11.257812 25.453125 10.992188 25.894531 10.339844 26.105469 C 10.195312 26.128906 10.050781 26.152344 9.910156 26.175781 C 9.800781 25.546875 9.902344 24.957031 10.222656 24.398438 C 10.320312 24.292969 10.421875 24.195312 10.53125 24.113281 Z M 10.53125 24.113281 "/>
<use xlink:href="#surface33" mask="url(#mask9)"/>
<path style=" stroke:none;fill-rule:evenodd;fill:rgb(81.568627%,59.215686%,56.862745%);fill-opacity:1;" d="M 33.375 24.496094 C 33.28125 24.78125 33.246094 25.082031 33.277344 25.40625 C 33.230469 25.097656 33.214844 24.777344 33.230469 24.449219 C 33.292969 24.4375 33.339844 24.453125 33.375 24.496094 Z M 33.375 24.496094 "/>
<path style=" stroke:none;fill-rule:evenodd;fill:rgb(99.215686%,98.431373%,98.431373%);fill-opacity:1;" d="M 33.375 24.496094 C 33.867188 24.6875 34.363281 24.878906 34.859375 25.070312 C 34.476562 25.714844 34.019531 26.308594 33.492188 26.847656 C 33.347656 26.378906 33.277344 25.898438 33.277344 25.40625 C 33.246094 25.082031 33.28125 24.78125 33.375 24.496094 Z M 33.375 24.496094 "/>
<path style=" stroke:none;fill-rule:evenodd;fill:rgb(98.823529%,97.647059%,97.254902%);fill-opacity:1;" d="M 15.28125 24.734375 C 15.398438 24.730469 15.488281 24.777344 15.546875 24.878906 C 15.761719 25.484375 15.683594 26.042969 15.308594 26.558594 C 15.105469 26.273438 15.019531 25.953125 15.042969 25.601562 C 15.007812 25.277344 15.085938 24.988281 15.28125 24.734375 Z M 15.28125 24.734375 "/>
<use xlink:href="#surface36" mask="url(#mask10)"/>
<use xlink:href="#surface39" mask="url(#mask11)"/>
<use xlink:href="#surface42" mask="url(#mask12)"/>
<use xlink:href="#surface45" mask="url(#mask13)"/>
<path style=" stroke:none;fill-rule:evenodd;fill:rgb(98.823529%,98.823529%,98.823529%);fill-opacity:1;" d="M 17.683594 31.980469 C 18.941406 31.890625 19.539062 32.464844 19.480469 33.710938 C 19.355469 34.253906 19.027344 34.613281 18.5 34.789062 C 17.621094 34.953125 17.023438 34.625 16.699219 33.804688 C 16.535156 32.929688 16.863281 32.320312 17.683594 31.980469 Z M 17.683594 31.980469 "/>
<use xlink:href="#surface48" mask="url(#mask14)"/>
<use xlink:href="#surface51" mask="url(#mask15)"/>
<use xlink:href="#surface54" mask="url(#mask16)"/>
<use xlink:href="#surface57" mask="url(#mask17)"/>
<use xlink:href="#surface60" mask="url(#mask18)"/>
<use xlink:href="#surface63" mask="url(#mask19)"/>
<use xlink:href="#surface66" mask="url(#mask20)"/>
<use xlink:href="#surface69" mask="url(#mask21)"/>
<use xlink:href="#surface72" mask="url(#mask22)"/>
<use xlink:href="#surface75" mask="url(#mask23)"/>
<use xlink:href="#surface78" mask="url(#mask24)"/>
<use xlink:href="#surface81" mask="url(#mask25)"/>
<use xlink:href="#surface84" mask="url(#mask26)"/>
<use xlink:href="#surface87" mask="url(#mask27)"/>
<use xlink:href="#surface90" mask="url(#mask28)"/>
<use xlink:href="#surface93" mask="url(#mask29)"/>
<use xlink:href="#surface96" mask="url(#mask30)"/>
<use xlink:href="#surface99" mask="url(#mask31)"/>
<use xlink:href="#surface102" mask="url(#mask32)"/>
<use xlink:href="#surface105" mask="url(#mask33)"/>
<use xlink:href="#surface108" mask="url(#mask34)"/>
<use xlink:href="#surface111" mask="url(#mask35)"/>
<use xlink:href="#surface114" mask="url(#mask36)"/>
<use xlink:href="#surface117" mask="url(#mask37)"/>
<use xlink:href="#surface120" mask="url(#mask38)"/>
<use xlink:href="#surface123" mask="url(#mask39)"/>
<use xlink:href="#surface126" mask="url(#mask40)"/>
<use xlink:href="#surface129" mask="url(#mask41)"/>
<use xlink:href="#surface132" mask="url(#mask42)"/>
<use xlink:href="#surface135" mask="url(#mask43)"/>
<use xlink:href="#surface138" mask="url(#mask44)"/>
<use xlink:href="#surface141" mask="url(#mask45)"/>
<use xlink:href="#surface144" mask="url(#mask46)"/>
<use xlink:href="#surface147" mask="url(#mask47)"/>
<use xlink:href="#surface150" mask="url(#mask48)"/>
<use xlink:href="#surface153" mask="url(#mask49)"/>
<use xlink:href="#surface156" mask="url(#mask50)"/>
</g>
</svg>
