<?xml version="1.0" encoding="UTF-8"?>
<svg xmlns="http://www.w3.org/2000/svg" xmlns:xlink="http://www.w3.org/1999/xlink" width="50pt" height="50pt" viewBox="0 0 50 50" version="1.1">
<defs>
<filter id="alpha" filterUnits="objectBoundingBox" x="0%" y="0%" width="100%" height="100%">
  <feColorMatrix type="matrix" in="SourceGraphic" values="0 0 0 0 1 0 0 0 0 1 0 0 0 0 1 0 0 0 1 0"/>
</filter>
<mask id="mask0">
  <g filter="url(#alpha)">
<rect x="0" y="0" width="50" height="50" style="fill:rgb(0%,0%,0%);fill-opacity:0.960784;stroke:none;"/>
  </g>
</mask>
<clipPath id="clip1">
  <rect width="50" height="50"/>
</clipPath>
<g id="surface6" clip-path="url(#clip1)">
<path style=" stroke:none;fill-rule:evenodd;fill:rgb(0%,0%,0%);fill-opacity:1;" d="M 24.398438 5.398438 C 26.800781 5.410156 29.199219 5.484375 31.597656 5.613281 C 32.785156 5.679688 33.96875 5.777344 35.148438 5.902344 C 37.804688 5.90625 40.460938 5.9375 43.113281 6 C 43.683594 6 44.226562 6.113281 44.746094 6.332031 C 44.984375 6.527344 45.121094 6.773438 45.152344 7.078125 C 45.144531 8.039062 45.144531 8.996094 45.152344 9.957031 C 45.296875 11.398438 45.457031 12.835938 45.632812 14.277344 C 45.695312 14.960938 45.742188 15.648438 45.777344 16.339844 C 45.832031 18.625 45.867188 20.914062 45.875 23.199219 C 45.957031 23.679688 46.023438 24.15625 46.066406 24.640625 C 46.066406 26.039062 46.164062 27.429688 46.351562 28.816406 C 46.386719 29.613281 46.386719 30.414062 46.351562 31.214844 C 46.183594 32.484375 45.554688 33.453125 44.457031 34.117188 C 43.695312 34.554688 42.878906 34.855469 42.011719 35.027344 C 38.234375 35.753906 34.429688 36.207031 30.589844 36.394531 C 29.964844 36.382812 29.339844 36.347656 28.71875 36.300781 C 28.714844 36.941406 28.699219 37.582031 28.671875 38.21875 C 29.324219 38.144531 29.980469 38.121094 30.636719 38.148438 C 31.078125 38.203125 31.324219 38.453125 31.382812 38.890625 C 31.414062 39.179688 31.40625 39.46875 31.359375 39.753906 C 31.378906 40.15625 31.496094 40.523438 31.71875 40.859375 C 31.75 41.035156 31.75 41.210938 31.71875 41.386719 C 31.648438 41.511719 31.589844 41.640625 31.550781 41.769531 C 31.300781 41.832031 31.0625 41.917969 30.832031 42.035156 C 30.59375 42.09375 30.351562 42.144531 30.109375 42.179688 C 28.648438 42.300781 27.191406 42.476562 25.742188 42.707031 C 25.121094 42.773438 24.496094 42.792969 23.871094 42.753906 C 23.3125 42.664062 22.75 42.570312 22.191406 42.464844 C 21.488281 42.4375 20.785156 42.386719 20.082031 42.324219 C 19.355469 42.160156 18.632812 41.96875 17.921875 41.746094 C 17.601562 41.730469 17.28125 41.714844 16.960938 41.699219 C 16.832031 41.664062 16.730469 41.59375 16.652344 41.484375 C 16.621094 41.28125 16.5625 41.089844 16.484375 40.90625 C 16.515625 40.640625 16.546875 40.378906 16.578125 40.113281 C 16.378906 39.859375 16.394531 39.621094 16.625 39.394531 C 16.921875 39.269531 17.226562 39.175781 17.539062 39.109375 C 18.542969 38.9375 19.550781 38.800781 20.5625 38.699219 C 20.5625 37.675781 20.5625 36.652344 20.5625 35.628906 C 17.171875 35.625 13.777344 35.65625 10.390625 35.722656 C 8.769531 35.785156 7.234375 35.457031 5.78125 34.742188 C 5.339844 34.710938 4.957031 34.550781 4.628906 34.261719 C 4.347656 34.027344 4.085938 33.78125 3.839844 33.515625 C 3.707031 33.296875 3.628906 33.054688 3.597656 32.796875 C 3.554688 31.875 3.464844 30.953125 3.335938 30.039062 C 3.359375 29.808594 3.40625 29.582031 3.480469 29.367188 C 3.167969 26.648438 3 23.921875 2.976562 21.183594 C 2.921875 20.738281 2.875 20.289062 2.832031 19.839844 C 2.800781 17.28125 2.800781 14.722656 2.832031 12.164062 C 2.945312 11.546875 3.011719 10.921875 3.023438 10.292969 C 3.121094 9.421875 3.410156 8.621094 3.886719 7.894531 C 4.453125 7.246094 5.164062 6.855469 6.023438 6.71875 C 6.882812 6.558594 7.746094 6.417969 8.613281 6.285156 C 9.523438 6.085938 10.433594 5.894531 11.347656 5.710938 C 11.808594 5.640625 12.273438 5.59375 12.738281 5.566406 C 15.492188 5.550781 18.242188 5.535156 20.992188 5.519531 C 22.136719 5.492188 23.273438 5.453125 24.398438 5.398438 Z M 25.121094 6.214844 C 27.375 6.269531 29.632812 6.355469 31.886719 6.476562 C 32.945312 6.507812 34 6.589844 35.054688 6.71875 C 37.402344 6.734375 39.753906 6.75 42.105469 6.765625 C 42.78125 6.78125 43.453125 6.847656 44.121094 6.957031 C 44.191406 6.980469 44.246094 7.019531 44.289062 7.078125 C 44.335938 7.265625 44.363281 7.457031 44.363281 7.652344 C 44.3125 8.515625 44.304688 9.378906 44.335938 10.246094 C 44.578125 12.09375 44.769531 13.949219 44.914062 15.8125 C 45.007812 18.273438 45.054688 20.738281 45.058594 23.199219 C 45.140625 23.679688 45.203125 24.15625 45.25 24.640625 C 45.296875 25.710938 45.34375 26.785156 45.394531 27.855469 C 45.574219 29.003906 45.605469 30.152344 45.488281 31.308594 C 45.261719 32.257812 44.726562 32.96875 43.882812 33.445312 C 43.234375 33.804688 42.546875 34.0625 41.820312 34.214844 C 38.609375 34.816406 35.378906 35.25 32.125 35.507812 C 31.199219 35.539062 30.269531 35.539062 29.34375 35.507812 C 26.4375 35.222656 23.527344 34.996094 20.609375 34.835938 C 16.800781 34.839844 12.996094 34.839844 9.1875 34.835938 C 8.550781 34.777344 7.925781 34.648438 7.316406 34.453125 C 6.636719 34.167969 5.949219 33.910156 5.253906 33.683594 C 5.023438 33.484375 4.789062 33.285156 4.558594 33.085938 C 4.449219 32.839844 4.386719 32.585938 4.367188 32.316406 C 4.359375 31.761719 4.320312 31.210938 4.246094 30.664062 C 4.316406 30.445312 4.347656 30.222656 4.34375 29.992188 C 4.148438 27.9375 3.980469 25.882812 3.839844 23.824219 C 3.855469 22.414062 3.789062 21.003906 3.648438 19.601562 C 3.636719 17.265625 3.636719 14.929688 3.648438 12.597656 C 3.753906 11.699219 3.851562 10.804688 3.933594 9.910156 C 4.0625 9.082031 4.453125 8.417969 5.109375 7.917969 C 5.421875 7.777344 5.738281 7.664062 6.070312 7.582031 C 8.140625 7.226562 10.203125 6.84375 12.261719 6.429688 C 15.347656 6.367188 18.433594 6.335938 21.519531 6.332031 C 22.730469 6.304688 23.929688 6.265625 25.121094 6.214844 Z M 21.378906 35.675781 C 23.554688 35.84375 25.730469 36.019531 27.902344 36.203125 C 27.894531 36.683594 27.878906 37.164062 27.855469 37.644531 C 27.851562 37.871094 27.820312 38.089844 27.757812 38.292969 C 26.511719 38.308594 25.265625 38.324219 24.015625 38.339844 C 23.148438 38.398438 22.285156 38.488281 21.425781 38.605469 C 21.417969 37.628906 21.402344 36.652344 21.378906 35.675781 Z M 21.378906 35.675781 "/>
</g>
<mask id="mask1">
  <g filter="url(#alpha)">
<rect x="0" y="0" width="50" height="50" style="fill:rgb(0%,0%,0%);fill-opacity:0.972549;stroke:none;"/>
  </g>
</mask>
<clipPath id="clip2">
  <rect width="50" height="50"/>
</clipPath>
<g id="surface9" clip-path="url(#clip2)">
<path style=" stroke:none;fill-rule:evenodd;fill:rgb(0.392157%,0.392157%,0.392157%);fill-opacity:1;" d="M 9.765625 8.804688 C 10.441406 8.792969 11.113281 8.847656 11.78125 8.972656 C 12.613281 9.230469 13.445312 9.484375 14.277344 9.742188 C 14.976562 9.890625 15.683594 10.035156 16.386719 10.171875 C 17.136719 10.203125 17.890625 10.203125 18.640625 10.171875 C 19.382812 10.085938 20.128906 10.027344 20.875 10.003906 C 22.199219 10.101562 23.515625 10.0625 24.832031 9.886719 C 26.695312 9.925781 28.550781 9.828125 30.398438 9.597656 C 31.679688 9.484375 32.960938 9.5 34.238281 9.644531 C 35.289062 9.832031 36.113281 10.371094 36.707031 11.253906 C 37.382812 11.878906 38.035156 12.515625 38.675781 13.171875 C 39.304688 14.078125 39.65625 15.085938 39.730469 16.195312 C 39.789062 17.363281 39.851562 18.53125 39.921875 19.699219 C 40.140625 20.984375 40.398438 22.265625 40.691406 23.535156 C 40.882812 24.777344 40.933594 26.027344 40.835938 27.277344 C 40.472656 29.003906 39.421875 30.035156 37.691406 30.375 C 37.246094 30.472656 36.800781 30.554688 36.347656 30.613281 C 34.972656 30.664062 33.59375 30.742188 32.222656 30.855469 C 31.238281 31.035156 30.246094 31.148438 29.246094 31.191406 C 26.160156 31.222656 23.074219 31.222656 19.984375 31.191406 C 19.007812 31.039062 18.023438 31 17.035156 31.070312 C 16.28125 31.0625 15.539062 30.972656 14.804688 30.804688 C 13.015625 30.308594 11.207031 29.890625 9.382812 29.558594 C 8.355469 29.1875 7.578125 28.523438 7.054688 27.566406 C 6.523438 26.558594 6.1875 25.484375 6.046875 24.351562 C 5.820312 22.824219 5.675781 21.289062 5.613281 19.746094 C 5.546875 16.996094 5.53125 14.242188 5.566406 11.492188 C 5.636719 10.398438 6.171875 9.640625 7.171875 9.214844 C 8.023438 8.933594 8.886719 8.800781 9.765625 8.804688 Z M 9.765625 8.804688 "/>
</g>
</defs>
<g id="surface1">
<use xlink:href="#surface6" mask="url(#mask0)"/>
<use xlink:href="#surface9" mask="url(#mask1)"/>
<path style=" stroke:none;fill-rule:evenodd;fill:rgb(94.509804%,92.941176%,90.196078%);fill-opacity:1;" d="M 9.046875 9.621094 C 9.683594 9.613281 10.324219 9.621094 10.964844 9.644531 C 11.15625 9.675781 11.347656 9.707031 11.539062 9.742188 C 13.042969 10.277344 14.578125 10.691406 16.148438 10.988281 C 17.382812 11.054688 18.617188 11.007812 19.839844 10.84375 C 20.195312 10.835938 20.546875 10.828125 20.898438 10.820312 C 21.777344 10.855469 22.65625 10.863281 23.535156 10.84375 C 24.9375 10.695312 26.347656 10.632812 27.757812 10.652344 C 28.78125 10.542969 29.804688 10.445312 30.832031 10.363281 C 31.886719 10.320312 32.941406 10.335938 33.996094 10.414062 C 34.867188 10.5625 35.546875 11.003906 36.035156 11.730469 C 36.667969 12.367188 37.308594 12.992188 37.957031 13.605469 C 38.339844 14.050781 38.59375 14.5625 38.722656 15.140625 C 38.84375 15.660156 38.921875 16.1875 38.964844 16.722656 C 38.976562 17.8125 39.039062 18.902344 39.15625 19.984375 C 39.378906 21.140625 39.621094 22.292969 39.875 23.441406 C 40.070312 24.617188 40.132812 25.800781 40.066406 26.992188 C 39.875 28.070312 39.292969 28.863281 38.316406 29.367188 C 37.574219 29.570312 36.824219 29.730469 36.058594 29.847656 C 34.714844 29.890625 33.371094 29.953125 32.03125 30.039062 C 31.160156 30.21875 30.28125 30.332031 29.390625 30.375 C 26.175781 30.40625 22.960938 30.40625 19.746094 30.375 C 19.472656 30.339844 19.203125 30.308594 18.929688 30.277344 C 18.019531 30.261719 17.105469 30.246094 16.195312 30.230469 C 15.875 30.179688 15.554688 30.128906 15.234375 30.085938 C 13.5 29.582031 11.742188 29.183594 9.957031 28.886719 C 8.96875 28.589844 8.222656 27.988281 7.726562 27.085938 C 7.3125 26.183594 7.023438 25.238281 6.863281 24.257812 C 6.601562 22.828125 6.457031 21.390625 6.429688 19.9375 C 6.398438 17.058594 6.378906 14.179688 6.382812 11.300781 C 6.671875 10.402344 7.289062 9.882812 8.230469 9.742188 C 8.507812 9.703125 8.78125 9.660156 9.046875 9.621094 Z M 9.046875 9.621094 "/>
<path style=" stroke:none;fill-rule:evenodd;fill:rgb(93.72549%,92.156863%,89.411765%);fill-opacity:1;" d="M 30.0625 38.890625 C 30.226562 38.878906 30.386719 38.894531 30.542969 38.941406 C 30.574219 39.453125 30.613281 39.964844 30.664062 40.476562 C 30.722656 40.695312 30.8125 40.902344 30.925781 41.097656 C 30.667969 41.222656 30.394531 41.3125 30.109375 41.363281 C 28.472656 41.507812 26.839844 41.699219 25.214844 41.9375 C 24.734375 41.96875 24.257812 41.96875 23.777344 41.9375 C 22.640625 41.675781 21.488281 41.546875 20.320312 41.554688 C 19.53125 41.371094 18.746094 41.160156 17.96875 40.929688 C 17.761719 40.90625 17.554688 40.898438 17.347656 40.90625 C 17.339844 40.667969 17.347656 40.425781 17.371094 40.1875 C 17.40625 40.070312 17.480469 39.984375 17.585938 39.921875 C 20.964844 39.308594 24.371094 39.019531 27.808594 39.058594 C 28.566406 39.023438 29.320312 38.96875 30.0625 38.890625 Z M 30.0625 38.890625 "/>
</g>
</svg>
