<?xml version="1.0" encoding="UTF-8"?>
<svg xmlns="http://www.w3.org/2000/svg" xmlns:xlink="http://www.w3.org/1999/xlink" width="50pt" height="50pt" viewBox="0 0 50 50" version="1.1">
<defs>
<filter id="alpha" filterUnits="objectBoundingBox" x="0%" y="0%" width="100%" height="100%">
  <feColorMatrix type="matrix" in="SourceGraphic" values="0 0 0 0 1 0 0 0 0 1 0 0 0 0 1 0 0 0 1 0"/>
</filter>
<mask id="mask0">
  <g filter="url(#alpha)">
<rect x="0" y="0" width="50" height="50" style="fill:rgb(0%,0%,0%);fill-opacity:0.992157;stroke:none;"/>
  </g>
</mask>
<clipPath id="clip1">
  <rect width="50" height="50"/>
</clipPath>
<g id="surface6" clip-path="url(#clip1)">
<path style=" stroke:none;fill-rule:evenodd;fill:rgb(66.27451%,23.137255%,17.647059%);fill-opacity:1;" d="M 26.199219 3.566406 C 27.714844 3.5625 29.1875 3.804688 30.617188 4.296875 C 31.753906 4.6875 32.71875 5.332031 33.507812 6.230469 C 34.101562 6.984375 34.460938 7.839844 34.589844 8.796875 C 34.75 9.742188 34.847656 10.695312 34.878906 11.652344 C 34.902344 13.527344 34.925781 15.398438 34.949219 17.269531 C 35.074219 20.632812 35.195312 23.992188 35.308594 27.351562 C 35.390625 29.746094 35.496094 32.136719 35.621094 34.53125 C 35.699219 35.683594 35.789062 36.835938 35.886719 37.984375 C 36.1875 41.210938 34.832031 43.390625 31.816406 44.527344 C 30.167969 45.082031 28.472656 45.371094 26.726562 45.390625 C 23.742188 45.453125 20.808594 45.109375 17.917969 44.359375 C 16.796875 44.054688 15.789062 43.542969 14.894531 42.824219 C 14.070312 42.074219 13.519531 41.160156 13.25 40.074219 C 13.046875 39.140625 12.957031 38.199219 12.984375 37.242188 C 12.933594 32.933594 13.019531 28.628906 13.25 24.328125 C 13.386719 21.621094 13.539062 18.917969 13.707031 16.214844 C 13.820312 15.605469 14.1875 15.285156 14.808594 15.253906 C 15.390625 15.28125 15.742188 15.578125 15.867188 16.144531 C 16.167969 22.332031 16.296875 28.523438 16.25 34.722656 C 16.15625 35.785156 16.125 36.847656 16.15625 37.914062 C 16.179688 38.699219 16.398438 39.429688 16.800781 40.097656 C 17.191406 40.640625 17.699219 41.027344 18.328125 41.261719 C 21.058594 42.21875 23.867188 42.59375 26.753906 42.390625 C 27.632812 42.351562 28.503906 42.257812 29.367188 42.101562 C 30.210938 41.953125 30.980469 41.632812 31.671875 41.144531 C 32.472656 40.472656 32.972656 39.617188 33.171875 38.585938 C 33.332031 37.785156 33.410156 36.976562 33.402344 36.160156 C 33.390625 35.527344 33.363281 34.898438 33.316406 34.265625 C 33.214844 33.113281 33.121094 31.960938 33.027344 30.808594 C 32.832031 25.964844 32.644531 21.121094 32.464844 16.273438 C 32.515625 14.855469 32.519531 13.433594 32.476562 12.015625 C 32.445312 11.148438 32.308594 10.300781 32.070312 9.46875 C 31.726562 8.582031 31.15625 7.882812 30.351562 7.371094 C 28.824219 6.4375 27.175781 6.125 25.40625 6.433594 C 23.835938 6.746094 22.875 7.6875 22.515625 9.253906 C 22.332031 10.074219 22.25 10.90625 22.261719 11.75 C 22.324219 13.191406 22.390625 14.628906 22.46875 16.070312 C 22.480469 21.363281 22.5 26.65625 22.527344 31.949219 C 22.496094 32.777344 22.484375 33.605469 22.492188 34.433594 C 22.496094 34.703125 22.550781 34.957031 22.660156 35.203125 C 22.714844 35.273438 22.78125 35.324219 22.863281 35.359375 C 23.34375 35.417969 23.820312 35.390625 24.292969 35.273438 C 25.007812 35.132812 25.699219 34.921875 26.367188 34.636719 C 26.507812 34.5625 26.59375 34.445312 26.621094 34.289062 C 26.664062 34.03125 26.691406 33.769531 26.703125 33.507812 C 26.621094 32.335938 26.523438 31.164062 26.402344 29.992188 C 26.347656 27.761719 26.277344 25.527344 26.1875 23.296875 C 26.132812 21.730469 26.203125 20.167969 26.402344 18.613281 C 26.433594 18.351562 26.566406 18.164062 26.800781 18.050781 C 27.25 17.894531 27.628906 17.996094 27.941406 18.351562 C 27.980469 18.421875 28.011719 18.492188 28.035156 18.566406 C 28.496094 20.550781 28.765625 22.558594 28.851562 24.59375 C 28.9375 26.441406 29.035156 28.289062 29.140625 30.136719 C 29.246094 31.082031 29.363281 32.027344 29.5 32.96875 C 29.609375 33.769531 29.609375 34.570312 29.5 35.371094 C 29.339844 36.511719 28.734375 37.316406 27.6875 37.78125 C 26.753906 38.152344 25.785156 38.378906 24.785156 38.453125 C 23.828125 38.550781 22.875 38.527344 21.925781 38.382812 C 20.570312 38.144531 19.773438 37.347656 19.539062 35.992188 C 19.445312 35.269531 19.394531 34.539062 19.394531 33.808594 C 19.339844 31.730469 19.308594 29.648438 19.300781 27.570312 C 19.296875 22.367188 19.304688 17.167969 19.324219 11.964844 C 19.308594 10.707031 19.414062 9.460938 19.636719 8.222656 C 19.835938 7.121094 20.289062 6.144531 21.003906 5.292969 C 21.671875 4.601562 22.476562 4.132812 23.414062 3.886719 C 24.335938 3.671875 25.261719 3.5625 26.199219 3.566406 Z M 26.199219 3.566406 "/>
</g>
</defs>
<g id="surface1">
<use xlink:href="#surface6" mask="url(#mask0)"/>
</g>
</svg>
