<?xml version="1.0" encoding="UTF-8"?>
<svg xmlns="http://www.w3.org/2000/svg" xmlns:xlink="http://www.w3.org/1999/xlink" width="50pt" height="50pt" viewBox="0 0 50 50" version="1.1">
<defs>
<filter id="alpha" filterUnits="objectBoundingBox" x="0%" y="0%" width="100%" height="100%">
  <feColorMatrix type="matrix" in="SourceGraphic" values="0 0 0 0 1 0 0 0 0 1 0 0 0 0 1 0 0 0 1 0"/>
</filter>
<mask id="mask0">
  <g filter="url(#alpha)">
<rect x="0" y="0" width="50" height="50" style="fill:rgb(0%,0%,0%);fill-opacity:0.968627;stroke:none;"/>
  </g>
</mask>
<clipPath id="clip1">
  <rect width="50" height="50"/>
</clipPath>
<g id="surface6" clip-path="url(#clip1)">
<path style=" stroke:none;fill-rule:evenodd;fill:rgb(66.27451%,23.137255%,17.647059%);fill-opacity:1;" d="M 16.695312 6.566406 C 17.429688 6.554688 18.167969 6.566406 18.902344 6.601562 C 19.234375 6.664062 19.386719 6.863281 19.359375 7.199219 C 19.296875 7.578125 19.253906 7.957031 19.226562 8.339844 C 19.21875 8.609375 19.207031 8.878906 19.191406 9.144531 C 19.222656 9.347656 19.234375 9.550781 19.226562 9.757812 C 19.085938 9.976562 18.898438 10.027344 18.664062 9.914062 C 18.5625 9.785156 18.507812 9.636719 18.507812 9.46875 C 18.484375 8.902344 18.503906 8.339844 18.566406 7.777344 C 18.558594 7.765625 18.550781 7.753906 18.542969 7.742188 C 17.71875 8.078125 16.902344 8.433594 16.09375 8.808594 C 15.476562 9.132812 14.859375 9.460938 14.246094 9.792969 C 13.996094 9.941406 13.746094 10.089844 13.503906 10.25 C 13.355469 10.367188 13.222656 10.496094 13.105469 10.644531 C 13.0625 10.835938 13.0625 11.027344 13.105469 11.222656 C 13.148438 11.414062 13.214844 11.597656 13.296875 11.773438 C 13.539062 12.175781 13.777344 12.574219 14.019531 12.972656 C 14.148438 13.304688 14.042969 13.503906 13.695312 13.574219 C 13.589844 13.558594 13.507812 13.511719 13.441406 13.429688 C 13.277344 13.121094 13.09375 12.824219 12.890625 12.542969 C 12.5625 12.03125 12.382812 11.46875 12.351562 10.863281 C 12.363281 10.472656 12.515625 10.148438 12.804688 9.890625 C 13.066406 9.667969 13.347656 9.476562 13.644531 9.3125 C 14.992188 8.542969 16.386719 7.863281 17.824219 7.273438 C 17.273438 7.265625 16.726562 7.277344 16.179688 7.308594 C 15.832031 7.296875 15.703125 7.121094 15.792969 6.78125 C 15.84375 6.675781 15.929688 6.613281 16.046875 6.601562 C 16.265625 6.597656 16.484375 6.585938 16.695312 6.566406 Z M 16.695312 6.566406 "/>
</g>
<mask id="mask1">
  <g filter="url(#alpha)">
<rect x="0" y="0" width="50" height="50" style="fill:rgb(0%,0%,0%);fill-opacity:0.92549;stroke:none;"/>
  </g>
</mask>
<clipPath id="clip2">
  <rect width="50" height="50"/>
</clipPath>
<g id="surface9" clip-path="url(#clip2)">
<path style=" stroke:none;fill-rule:evenodd;fill:rgb(66.27451%,23.137255%,17.647059%);fill-opacity:1;" d="M 31.191406 6.902344 C 31.390625 6.867188 31.464844 6.949219 31.421875 7.140625 C 31.257812 7.210938 31.101562 7.292969 30.953125 7.394531 C 30.464844 7.808594 30.039062 8.277344 29.667969 8.796875 C 29.179688 9.566406 28.953125 10.40625 28.996094 11.316406 C 29.015625 11.519531 29.0625 11.710938 29.140625 11.894531 C 29.300781 11.554688 29.546875 11.296875 29.871094 11.113281 C 30.050781 11.015625 30.234375 10.933594 30.425781 10.863281 C 30.570312 10.898438 30.617188 10.988281 30.558594 11.125 C 30.335938 11.238281 30.113281 11.355469 29.898438 11.472656 C 29.507812 11.753906 29.304688 12.132812 29.285156 12.613281 C 29.222656 12.703125 29.140625 12.730469 29.03125 12.699219 C 28.867188 12.40625 28.675781 12.132812 28.46875 11.871094 C 28.109375 11.46875 27.753906 11.0625 27.414062 10.644531 C 27.417969 10.496094 27.492188 10.4375 27.640625 10.464844 C 28.011719 10.871094 28.378906 11.28125 28.734375 11.703125 C 28.5625 10.289062 28.945312 9.050781 29.886719 7.980469 C 30.144531 7.710938 30.414062 7.453125 30.6875 7.199219 C 30.84375 7.074219 31.011719 6.976562 31.191406 6.902344 Z M 31.191406 6.902344 "/>
</g>
<mask id="mask2">
  <g filter="url(#alpha)">
<rect x="0" y="0" width="50" height="50" style="fill:rgb(0%,0%,0%);fill-opacity:0.905882;stroke:none;"/>
  </g>
</mask>
<clipPath id="clip3">
  <rect width="50" height="50"/>
</clipPath>
<g id="surface12" clip-path="url(#clip3)">
<path style=" stroke:none;fill-rule:evenodd;fill:rgb(66.27451%,23.137255%,17.647059%);fill-opacity:1;" d="M 41.226562 7.355469 C 41.949219 7.296875 42.628906 7.4375 43.265625 7.777344 C 43.476562 7.914062 43.664062 8.078125 43.832031 8.269531 C 44.082031 8.617188 44.335938 8.960938 44.597656 9.300781 C 44.554688 9.0625 44.515625 8.824219 44.480469 8.582031 C 44.433594 8.378906 44.480469 8.199219 44.609375 8.042969 C 44.683594 7.988281 44.765625 7.972656 44.851562 7.992188 C 44.875 8.027344 44.878906 8.0625 44.863281 8.101562 C 44.8125 8.136719 44.78125 8.183594 44.765625 8.246094 C 44.75 8.355469 44.75 8.46875 44.765625 8.582031 C 44.84375 8.976562 44.933594 9.371094 45.03125 9.757812 C 44.96875 9.816406 44.894531 9.847656 44.804688 9.855469 C 44.695312 9.835938 44.59375 9.808594 44.492188 9.769531 C 44.070312 9.539062 43.660156 9.289062 43.265625 9.027344 C 43.328125 8.925781 43.414062 8.894531 43.53125 8.929688 C 43.761719 9.054688 43.988281 9.1875 44.203125 9.335938 C 44.234375 9.359375 44.265625 9.367188 44.300781 9.363281 C 44.070312 9.054688 43.84375 8.746094 43.613281 8.4375 C 43.148438 7.886719 42.550781 7.578125 41.828125 7.511719 C 41.390625 7.476562 40.957031 7.507812 40.53125 7.609375 C 40.980469 7.851562 41.261719 8.222656 41.382812 8.726562 C 41.492188 9.140625 41.492188 9.558594 41.382812 9.972656 C 41.214844 10.496094 40.859375 10.804688 40.3125 10.898438 C 39.898438 10.960938 39.574219 10.824219 39.34375 10.476562 C 39.023438 9.898438 38.910156 9.28125 39.007812 8.628906 C 39.128906 8.289062 39.351562 8.027344 39.667969 7.847656 C 39.765625 7.789062 39.871094 7.730469 39.976562 7.679688 C 39.796875 7.675781 39.621094 7.707031 39.449219 7.777344 C 38.980469 7.976562 38.597656 8.28125 38.308594 8.703125 C 38.070312 9.136719 37.988281 9.601562 38.070312 10.09375 C 38.1875 10.742188 38.394531 11.355469 38.695312 11.941406 C 38.820312 12.148438 38.960938 12.34375 39.113281 12.53125 C 39.042969 12.605469 38.953125 12.628906 38.851562 12.601562 C 38.527344 12.269531 38.289062 11.882812 38.140625 11.4375 C 38.003906 11.070312 37.894531 10.691406 37.804688 10.308594 C 37.617188 9.265625 37.972656 8.46875 38.875 7.921875 C 39.328125 7.636719 39.824219 7.507812 40.363281 7.539062 C 40.648438 7.449219 40.9375 7.390625 41.226562 7.355469 Z M 40.195312 7.71875 C 40.421875 7.78125 40.609375 7.910156 40.757812 8.101562 C 41.144531 8.671875 41.265625 9.296875 41.117188 9.972656 C 41.023438 10.363281 40.789062 10.625 40.410156 10.753906 C 40.054688 10.796875 39.785156 10.664062 39.605469 10.359375 C 39.289062 9.773438 39.191406 9.15625 39.316406 8.507812 C 39.507812 8.128906 39.800781 7.867188 40.195312 7.71875 Z M 40.195312 7.71875 "/>
</g>
<mask id="mask3">
  <g filter="url(#alpha)">
<rect x="0" y="0" width="50" height="50" style="fill:rgb(0%,0%,0%);fill-opacity:0.968627;stroke:none;"/>
  </g>
</mask>
<clipPath id="clip4">
  <rect width="50" height="50"/>
</clipPath>
<g id="surface15" clip-path="url(#clip4)">
<path style=" stroke:none;fill-rule:evenodd;fill:rgb(66.27451%,23.137255%,17.647059%);fill-opacity:1;" d="M 23.199219 7.957031 C 23.457031 7.9375 23.597656 8.054688 23.632812 8.304688 C 23.644531 9.792969 23.203125 11.125 22.3125 12.300781 C 22.824219 12.367188 23.257812 12.210938 23.609375 11.832031 C 23.976562 11.75 24.152344 11.894531 24.125 12.277344 C 23.859375 12.660156 23.496094 12.886719 23.03125 12.960938 C 22.398438 13.039062 21.765625 13.023438 21.136719 12.914062 C 21.058594 12.875 21.007812 12.816406 20.980469 12.734375 C 20.957031 12.636719 20.941406 12.535156 20.941406 12.433594 C 21.03125 11.726562 21.097656 11.019531 21.148438 10.308594 C 21.160156 10.164062 21.183594 10.019531 21.21875 9.878906 C 21.246094 9.816406 21.292969 9.773438 21.351562 9.746094 C 21.59375 9.691406 21.765625 9.777344 21.867188 9.996094 C 21.828125 10.640625 21.78125 11.277344 21.722656 11.917969 C 22.058594 11.445312 22.339844 10.941406 22.5625 10.40625 C 22.789062 9.695312 22.910156 8.96875 22.921875 8.222656 C 22.964844 8.078125 23.058594 7.992188 23.199219 7.957031 Z M 23.199219 7.957031 "/>
</g>
<mask id="mask4">
  <g filter="url(#alpha)">
<rect x="0" y="0" width="50" height="50" style="fill:rgb(0%,0%,0%);fill-opacity:0.952941;stroke:none;"/>
  </g>
</mask>
<clipPath id="clip5">
  <rect width="50" height="50"/>
</clipPath>
<g id="surface18" clip-path="url(#clip5)">
<path style=" stroke:none;fill-rule:evenodd;fill:rgb(66.666667%,23.529412%,18.431373%);fill-opacity:1;" d="M 18.351562 13.382812 C 18.4375 13.363281 18.503906 13.390625 18.542969 13.464844 C 18.648438 13.453125 18.695312 13.496094 18.6875 13.597656 C 18.53125 14.40625 18.375 15.214844 18.21875 16.023438 C 18.1875 16.191406 18.144531 16.355469 18.085938 16.515625 C 18.039062 16.53125 17.992188 16.53125 17.941406 16.515625 C 17.90625 16.46875 17.859375 16.445312 17.800781 16.441406 C 17.636719 16.238281 17.484375 16.023438 17.34375 15.804688 C 16.601562 16.484375 15.882812 17.1875 15.183594 17.90625 C 15.167969 17.910156 15.152344 17.914062 15.132812 17.917969 C 14.984375 17.859375 14.847656 17.773438 14.726562 17.667969 C 14.363281 17.324219 14.003906 16.976562 13.644531 16.621094 C 12.910156 17.410156 12.175781 18.203125 11.449219 19 C 11.3125 18.941406 11.191406 18.867188 11.078125 18.769531 C 10.738281 18.453125 10.402344 18.128906 10.070312 17.800781 C 9.746094 18.152344 9.425781 18.507812 9.109375 18.867188 C 9.027344 18.894531 8.960938 18.871094 8.917969 18.796875 C 8.886719 18.785156 8.851562 18.777344 8.820312 18.769531 C 8.648438 18.597656 8.476562 18.425781 8.304688 18.253906 C 8.289062 18.207031 8.289062 18.160156 8.304688 18.109375 C 8.738281 17.589844 9.164062 17.0625 9.578125 16.527344 C 9.679688 16.402344 9.785156 16.285156 9.902344 16.179688 C 9.980469 16.160156 10.039062 16.1875 10.082031 16.261719 C 10.109375 16.234375 10.136719 16.234375 10.164062 16.261719 C 10.492188 16.648438 10.839844 17.015625 11.210938 17.367188 C 11.976562 16.511719 12.71875 15.636719 13.429688 14.738281 C 13.457031 14.722656 13.484375 14.710938 13.515625 14.703125 C 13.59375 14.757812 13.675781 14.800781 13.765625 14.835938 C 14.148438 15.253906 14.550781 15.652344 14.976562 16.023438 C 15.445312 15.5625 15.921875 15.109375 16.40625 14.667969 C 16.210938 14.398438 16.007812 14.140625 15.792969 13.886719 C 15.773438 13.824219 15.785156 13.773438 15.832031 13.730469 C 16.359375 13.667969 16.886719 13.601562 17.414062 13.539062 C 17.734375 13.5 18.042969 13.449219 18.351562 13.382812 Z M 18.351562 13.382812 "/>
</g>
<mask id="mask5">
  <g filter="url(#alpha)">
<rect x="0" y="0" width="50" height="50" style="fill:rgb(0%,0%,0%);fill-opacity:0.929412;stroke:none;"/>
  </g>
</mask>
<clipPath id="clip6">
  <rect width="50" height="50"/>
</clipPath>
<g id="surface21" clip-path="url(#clip6)">
<path style=" stroke:none;fill-rule:evenodd;fill:rgb(66.27451%,23.137255%,17.647059%);fill-opacity:1;" d="M 30.496094 13.644531 C 30.683594 13.621094 30.761719 13.703125 30.726562 13.886719 C 30.332031 14.59375 29.859375 15.238281 29.296875 15.820312 C 28.71875 16.34375 28.054688 16.726562 27.304688 16.972656 C 26.515625 17.21875 25.792969 17.089844 25.144531 16.585938 C 24.695312 16.234375 24.273438 15.847656 23.882812 15.421875 C 23.875 15.871094 23.851562 16.320312 23.8125 16.765625 C 23.703125 16.867188 23.609375 16.859375 23.523438 16.742188 C 23.546875 16.113281 23.566406 15.480469 23.570312 14.847656 C 23.625 14.78125 23.691406 14.757812 23.777344 14.785156 C 24.121094 14.90625 24.464844 15.035156 24.808594 15.171875 C 25.046875 15.234375 25.289062 15.296875 25.527344 15.363281 C 25.589844 15.449219 25.589844 15.535156 25.527344 15.625 C 25.292969 15.621094 25.058594 15.582031 24.832031 15.507812 C 24.628906 15.4375 24.429688 15.371094 24.230469 15.3125 C 24.652344 15.757812 25.109375 16.160156 25.601562 16.515625 C 26.128906 16.796875 26.683594 16.84375 27.257812 16.660156 C 28.445312 16.238281 29.371094 15.488281 30.027344 14.414062 C 30.191406 14.160156 30.347656 13.90625 30.496094 13.644531 Z M 30.496094 13.644531 "/>
</g>
<mask id="mask6">
  <g filter="url(#alpha)">
<rect x="0" y="0" width="50" height="50" style="fill:rgb(0%,0%,0%);fill-opacity:0.94902;stroke:none;"/>
  </g>
</mask>
<clipPath id="clip7">
  <rect width="50" height="50"/>
</clipPath>
<g id="surface24" clip-path="url(#clip7)">
<path style=" stroke:none;fill-rule:evenodd;fill:rgb(0%,0%,0%);fill-opacity:1;" d="M 35.152344 13.671875 C 35.269531 13.65625 35.363281 13.695312 35.429688 13.789062 C 35.945312 14.71875 36.5625 15.574219 37.277344 16.359375 C 37.328125 16.539062 37.265625 16.640625 37.085938 16.671875 C 37.007812 16.664062 36.941406 16.636719 36.882812 16.585938 C 36.378906 16.066406 35.933594 15.503906 35.550781 14.894531 C 35.585938 15.539062 35.546875 16.179688 35.429688 16.816406 C 35.390625 17.058594 35.257812 17.128906 35.035156 17.019531 C 34.996094 16.949219 34.980469 16.871094 34.984375 16.789062 C 35.019531 16.496094 35.054688 16.199219 35.09375 15.902344 C 35.113281 15.550781 35.105469 15.199219 35.070312 14.847656 C 34.671875 15.652344 34.171875 16.382812 33.570312 17.042969 C 33.371094 17.117188 33.25 17.054688 33.210938 16.851562 C 33.210938 16.785156 33.230469 16.726562 33.269531 16.671875 C 34.023438 15.832031 34.597656 14.878906 34.996094 13.8125 C 35.046875 13.761719 35.097656 13.710938 35.152344 13.671875 Z M 35.152344 13.671875 "/>
</g>
<mask id="mask7">
  <g filter="url(#alpha)">
<rect x="0" y="0" width="50" height="50" style="fill:rgb(0%,0%,0%);fill-opacity:0.858824;stroke:none;"/>
  </g>
</mask>
<clipPath id="clip8">
  <rect width="50" height="50"/>
</clipPath>
<g id="surface27" clip-path="url(#clip8)">
<path style=" stroke:none;fill-rule:evenodd;fill:rgb(66.27451%,23.137255%,17.647059%);fill-opacity:1;" d="M 43.722656 14.511719 C 44.085938 14.496094 44.351562 14.648438 44.527344 14.964844 C 44.710938 15.351562 44.75 15.75 44.648438 16.167969 C 44.578125 16.484375 44.453125 16.773438 44.273438 17.042969 C 44.984375 17.242188 45.597656 17.078125 46.113281 16.550781 C 46.511719 16.011719 46.46875 15.511719 45.980469 15.050781 C 45.796875 14.914062 45.597656 14.875 45.378906 14.929688 C 45.21875 15.027344 45.15625 15.164062 45.199219 15.351562 C 45.28125 15.515625 45.386719 15.542969 45.523438 15.433594 C 45.554688 15.421875 45.585938 15.417969 45.621094 15.421875 C 45.617188 15.570312 45.542969 15.644531 45.390625 15.636719 C 45.21875 15.625 45.109375 15.539062 45.054688 15.375 C 45.015625 14.941406 45.210938 14.738281 45.644531 14.761719 C 46.207031 14.910156 46.503906 15.28125 46.53125 15.867188 C 46.5 16.3125 46.300781 16.664062 45.929688 16.921875 C 45.597656 17.167969 45.21875 17.285156 44.804688 17.269531 C 44.589844 17.273438 44.382812 17.253906 44.179688 17.210938 C 43.667969 17.929688 43.0625 18.554688 42.355469 19.082031 C 41.796875 19.574219 41.3125 20.125 40.902344 20.726562 C 41.308594 20.546875 41.730469 20.398438 42.164062 20.285156 C 42.234375 20.265625 42.308594 20.269531 42.378906 20.296875 C 42.402344 20.339844 42.410156 20.390625 42.402344 20.4375 C 42.28125 20.453125 42.160156 20.472656 42.042969 20.5 C 41.652344 20.621094 41.269531 20.757812 40.890625 20.90625 C 40.800781 20.921875 40.714844 20.921875 40.625 20.90625 C 40.605469 20.898438 40.589844 20.886719 40.578125 20.871094 C 40.554688 20.800781 40.546875 20.730469 40.566406 20.65625 C 40.648438 20.46875 40.714844 20.277344 40.757812 20.078125 C 40.832031 19.589844 40.910156 19.101562 40.988281 18.613281 C 41.027344 18.613281 41.066406 18.613281 41.105469 18.613281 C 41.054688 19.230469 40.96875 19.835938 40.855469 20.4375 C 41.445312 19.683594 42.121094 19.015625 42.882812 18.433594 C 43.320312 18.046875 43.703125 17.613281 44.035156 17.140625 C 43.515625 16.863281 43.183594 16.445312 43.039062 15.878906 C 42.972656 15.5 43.039062 15.148438 43.230469 14.824219 C 43.363281 14.664062 43.527344 14.558594 43.722656 14.511719 Z M 43.796875 14.65625 C 44.101562 14.6875 44.3125 14.847656 44.429688 15.132812 C 44.597656 15.632812 44.5625 16.121094 44.335938 16.597656 C 44.277344 16.746094 44.199219 16.871094 44.09375 16.984375 C 43.714844 16.78125 43.4375 16.484375 43.253906 16.09375 C 43.125 15.707031 43.148438 15.332031 43.328125 14.964844 C 43.394531 14.898438 43.464844 14.832031 43.53125 14.761719 C 43.617188 14.71875 43.707031 14.683594 43.796875 14.65625 Z M 43.796875 14.65625 "/>
</g>
<mask id="mask8">
  <g filter="url(#alpha)">
<rect x="0" y="0" width="50" height="50" style="fill:rgb(0%,0%,0%);fill-opacity:0.952941;stroke:none;"/>
  </g>
</mask>
<clipPath id="clip9">
  <rect width="50" height="50"/>
</clipPath>
<g id="surface30" clip-path="url(#clip9)">
<path style=" stroke:none;fill-rule:evenodd;fill:rgb(0%,0%,0%);fill-opacity:1;" d="M 23.007812 17.96875 C 23.101562 17.960938 23.191406 17.980469 23.273438 18.027344 C 24.183594 18.671875 25.183594 19.125 26.273438 19.394531 C 26.476562 19.515625 26.503906 19.660156 26.34375 19.828125 C 25.835938 20.199219 25.347656 20.601562 24.878906 21.027344 C 24.644531 21.273438 24.414062 21.523438 24.195312 21.785156 C 24.136719 21.851562 24.066406 21.914062 23.992188 21.964844 C 23.695312 21.988281 23.613281 21.863281 23.738281 21.589844 C 24.191406 21.035156 24.699219 20.535156 25.265625 20.089844 C 24.816406 20.132812 24.371094 20.167969 23.917969 20.199219 C 23.703125 20.191406 23.488281 20.179688 23.273438 20.164062 C 23.085938 20.113281 23.023438 20 23.089844 19.816406 C 23.128906 19.777344 23.171875 19.75 23.222656 19.730469 C 23.511719 19.714844 23.800781 19.71875 24.085938 19.742188 C 24.484375 19.734375 24.878906 19.683594 25.265625 19.585938 C 24.398438 19.28125 23.601562 18.851562 22.875 18.304688 C 22.835938 18.15625 22.878906 18.042969 23.007812 17.96875 Z M 23.007812 17.96875 "/>
</g>
<mask id="mask9">
  <g filter="url(#alpha)">
<rect x="0" y="0" width="50" height="50" style="fill:rgb(0%,0%,0%);fill-opacity:0.941176;stroke:none;"/>
  </g>
</mask>
<clipPath id="clip10">
  <rect width="50" height="50"/>
</clipPath>
<g id="surface33" clip-path="url(#clip10)">
<path style=" stroke:none;fill-rule:evenodd;fill:rgb(0%,0%,0%);fill-opacity:1;" d="M 34.648438 17.992188 C 34.902344 17.933594 35.015625 18.03125 34.996094 18.277344 C 34.785156 18.878906 34.519531 19.457031 34.207031 20.007812 C 34.140625 20.085938 34.0625 20.148438 33.976562 20.199219 C 33.777344 20.140625 33.710938 20.011719 33.773438 19.816406 C 33.886719 19.667969 33.984375 19.507812 34.0625 19.335938 C 34.222656 18.871094 34.417969 18.421875 34.648438 17.992188 Z M 34.648438 17.992188 "/>
</g>
<mask id="mask10">
  <g filter="url(#alpha)">
<rect x="0" y="0" width="50" height="50" style="fill:rgb(0%,0%,0%);fill-opacity:0.94902;stroke:none;"/>
  </g>
</mask>
<clipPath id="clip11">
  <rect width="50" height="50"/>
</clipPath>
<g id="surface36" clip-path="url(#clip11)">
<path style=" stroke:none;fill-rule:evenodd;fill:rgb(0%,0%,0%);fill-opacity:1;" d="M 11.222656 19.574219 C 11.710938 19.570312 12.199219 19.574219 12.6875 19.585938 C 12.8125 19.613281 12.921875 19.671875 13.011719 19.765625 C 13.0625 19.960938 12.988281 20.066406 12.792969 20.078125 C 12.253906 20.027344 11.714844 20.015625 11.171875 20.054688 C 10.886719 20.066406 10.785156 19.9375 10.875 19.671875 C 10.894531 19.652344 10.914062 19.632812 10.933594 19.609375 C 11.035156 19.605469 11.128906 19.59375 11.222656 19.574219 Z M 11.222656 19.574219 "/>
</g>
<mask id="mask11">
  <g filter="url(#alpha)">
<rect x="0" y="0" width="50" height="50" style="fill:rgb(0%,0%,0%);fill-opacity:0.952941;stroke:none;"/>
  </g>
</mask>
<clipPath id="clip12">
  <rect width="50" height="50"/>
</clipPath>
<g id="surface39" clip-path="url(#clip12)">
<path style=" stroke:none;fill-rule:evenodd;fill:rgb(0%,0%,0%);fill-opacity:1;" d="M 19.71875 19.648438 C 19.878906 19.679688 20.039062 19.707031 20.199219 19.730469 C 20.726562 19.734375 21.257812 19.75 21.785156 19.777344 C 21.875 19.867188 21.90625 19.976562 21.867188 20.101562 C 21.816406 20.167969 21.746094 20.203125 21.664062 20.210938 C 21.175781 20.214844 20.6875 20.207031 20.199219 20.1875 C 19.96875 20.175781 19.753906 20.117188 19.550781 20.007812 C 19.496094 19.828125 19.554688 19.710938 19.71875 19.648438 Z M 19.71875 19.648438 "/>
</g>
<mask id="mask12">
  <g filter="url(#alpha)">
<rect x="0" y="0" width="50" height="50" style="fill:rgb(0%,0%,0%);fill-opacity:0.968627;stroke:none;"/>
  </g>
</mask>
<clipPath id="clip13">
  <rect width="50" height="50"/>
</clipPath>
<g id="surface42" clip-path="url(#clip13)">
<path style=" stroke:none;fill-rule:evenodd;fill:rgb(0%,0%,0%);fill-opacity:1;" d="M 13.8125 19.695312 C 14.4375 19.691406 15.0625 19.695312 15.6875 19.707031 C 15.832031 19.777344 15.882812 19.894531 15.84375 20.054688 C 15.800781 20.105469 15.75 20.140625 15.6875 20.164062 C 15.070312 20.183594 14.453125 20.175781 13.839844 20.140625 C 13.679688 20.066406 13.636719 19.953125 13.707031 19.792969 C 13.738281 19.753906 13.777344 19.722656 13.8125 19.695312 Z M 13.8125 19.695312 "/>
</g>
<mask id="mask13">
  <g filter="url(#alpha)">
<rect x="0" y="0" width="50" height="50" style="fill:rgb(0%,0%,0%);fill-opacity:0.952941;stroke:none;"/>
  </g>
</mask>
<clipPath id="clip14">
  <rect width="50" height="50"/>
</clipPath>
<g id="surface45" clip-path="url(#clip14)">
<path style=" stroke:none;fill-rule:evenodd;fill:rgb(0%,0%,0%);fill-opacity:1;" d="M 18.136719 19.695312 C 18.289062 19.691406 18.4375 19.695312 18.589844 19.707031 C 18.835938 19.792969 18.894531 19.945312 18.757812 20.164062 C 18.285156 20.148438 17.816406 20.160156 17.34375 20.199219 C 17.152344 20.183594 16.957031 20.171875 16.765625 20.164062 C 16.609375 20.109375 16.554688 20.003906 16.609375 19.839844 C 16.628906 19.789062 16.667969 19.75 16.71875 19.730469 C 16.992188 19.71875 17.261719 19.722656 17.535156 19.742188 C 17.738281 19.738281 17.9375 19.722656 18.136719 19.695312 Z M 18.136719 19.695312 "/>
</g>
<mask id="mask14">
  <g filter="url(#alpha)">
<rect x="0" y="0" width="50" height="50" style="fill:rgb(0%,0%,0%);fill-opacity:0.929412;stroke:none;"/>
  </g>
</mask>
<clipPath id="clip15">
  <rect width="50" height="50"/>
</clipPath>
<g id="surface48" clip-path="url(#clip15)">
<path style=" stroke:none;fill-rule:evenodd;fill:rgb(66.27451%,23.137255%,17.647059%);fill-opacity:1;" d="M 45.644531 20.246094 C 46.269531 20.277344 46.695312 20.578125 46.925781 21.160156 C 47.171875 21.882812 47.042969 22.53125 46.542969 23.105469 C 45.609375 24.011719 44.484375 24.496094 43.171875 24.554688 C 42.378906 24.589844 41.585938 24.636719 40.792969 24.699219 C 40.25 24.753906 39.730469 24.894531 39.234375 25.121094 C 39.589844 25.304688 39.902344 25.550781 40.171875 25.851562 C 40.273438 25.925781 40.378906 25.984375 40.496094 26.03125 C 40.511719 26.214844 40.429688 26.289062 40.242188 26.261719 C 40.171875 26.242188 40.109375 26.207031 40.050781 26.164062 C 39.804688 25.878906 39.527344 25.640625 39.210938 25.445312 C 39.101562 25.386719 38.988281 25.332031 38.875 25.289062 C 38.734375 25.390625 38.601562 25.382812 38.476562 25.265625 C 38.4375 25.152344 38.453125 25.050781 38.527344 24.953125 C 39.046875 24.414062 39.550781 23.863281 40.039062 23.296875 C 40.269531 23.066406 40.511719 22.855469 40.769531 22.660156 C 40.992188 22.640625 41.074219 22.738281 41.023438 22.960938 C 40.734375 23.199219 40.464844 23.453125 40.207031 23.726562 C 39.976562 24.019531 39.726562 24.300781 39.460938 24.566406 C 39.449219 24.589844 39.457031 24.609375 39.484375 24.617188 C 39.929688 24.484375 40.382812 24.398438 40.84375 24.363281 C 41.617188 24.3125 42.394531 24.273438 43.171875 24.242188 C 44.257812 24.195312 45.226562 23.835938 46.074219 23.164062 C 46.484375 22.816406 46.714844 22.378906 46.769531 21.84375 C 46.753906 21.382812 46.570312 21.007812 46.21875 20.714844 C 45.789062 20.472656 45.394531 20.519531 45.03125 20.847656 C 44.851562 21.066406 44.777344 21.316406 44.816406 21.589844 C 44.835938 21.613281 44.855469 21.632812 44.875 21.652344 C 44.957031 21.65625 45.039062 21.671875 45.113281 21.699219 C 45.1875 21.847656 45.140625 21.921875 44.972656 21.925781 C 44.746094 21.929688 44.597656 21.824219 44.527344 21.617188 C 44.476562 21.039062 44.703125 20.621094 45.210938 20.355469 C 45.355469 20.304688 45.5 20.265625 45.644531 20.246094 Z M 45.644531 20.246094 "/>
</g>
<mask id="mask15">
  <g filter="url(#alpha)">
<rect x="0" y="0" width="50" height="50" style="fill:rgb(0%,0%,0%);fill-opacity:0.937255;stroke:none;"/>
  </g>
</mask>
<clipPath id="clip16">
  <rect width="50" height="50"/>
</clipPath>
<g id="surface51" clip-path="url(#clip16)">
<path style=" stroke:none;fill-rule:evenodd;fill:rgb(0%,0%,0%);fill-opacity:1;" d="M 33.015625 21.085938 C 33.113281 21.082031 33.210938 21.085938 33.304688 21.097656 C 33.472656 21.246094 33.464844 21.382812 33.28125 21.507812 C 33.195312 21.542969 33.113281 21.589844 33.042969 21.652344 C 32.703125 21.972656 32.351562 22.277344 31.984375 22.5625 C 31.765625 22.714844 31.621094 22.664062 31.554688 22.40625 C 31.554688 22.363281 31.566406 22.324219 31.589844 22.289062 C 32.042969 21.964844 32.460938 21.601562 32.847656 21.195312 C 32.90625 21.160156 32.960938 21.121094 33.015625 21.085938 Z M 33.015625 21.085938 "/>
</g>
<mask id="mask16">
  <g filter="url(#alpha)">
<rect x="0" y="0" width="50" height="50" style="fill:rgb(0%,0%,0%);fill-opacity:0.941176;stroke:none;"/>
  </g>
</mask>
<clipPath id="clip17">
  <rect width="50" height="50"/>
</clipPath>
<g id="surface54" clip-path="url(#clip17)">
<path style=" stroke:none;fill-rule:evenodd;fill:rgb(66.27451%,23.137255%,17.647059%);fill-opacity:1;" d="M 6.085938 21.542969 C 6.273438 21.574219 6.332031 21.679688 6.265625 21.855469 C 5.992188 22.0625 5.714844 22.265625 5.4375 22.46875 C 5.640625 22.539062 5.847656 22.59375 6.0625 22.636719 C 6.203125 22.78125 6.179688 22.886719 5.988281 22.960938 C 5.800781 22.914062 5.605469 22.894531 5.414062 22.898438 C 5.636719 23.34375 5.78125 23.8125 5.84375 24.304688 C 5.832031 24.488281 5.734375 24.558594 5.558594 24.507812 C 5.519531 24.480469 5.492188 24.441406 5.472656 24.398438 C 5.320312 23.800781 5.101562 23.222656 4.824219 22.671875 C 4.796875 22.566406 4.816406 22.476562 4.886719 22.394531 C 5.203125 22.15625 5.523438 21.914062 5.84375 21.675781 C 5.921875 21.625 6.003906 21.582031 6.085938 21.542969 Z M 6.085938 21.542969 "/>
</g>
<mask id="mask17">
  <g filter="url(#alpha)">
<rect x="0" y="0" width="50" height="50" style="fill:rgb(0%,0%,0%);fill-opacity:0.933333;stroke:none;"/>
  </g>
</mask>
<clipPath id="clip18">
  <rect width="50" height="50"/>
</clipPath>
<g id="surface57" clip-path="url(#clip18)">
<path style=" stroke:none;fill-rule:evenodd;fill:rgb(66.27451%,23.137255%,17.647059%);fill-opacity:1;" d="M 14.246094 22.839844 C 14.355469 22.835938 14.429688 22.886719 14.472656 22.984375 C 14.40625 23.617188 14.597656 24.152344 15.050781 24.59375 C 15.105469 24.832031 15.015625 24.917969 14.773438 24.84375 C 14.527344 24.597656 14.339844 24.3125 14.210938 23.992188 C 14.175781 24.160156 14.167969 24.328125 14.1875 24.496094 C 14.230469 24.707031 14.28125 24.914062 14.34375 25.121094 C 14.335938 25.214844 14.289062 25.253906 14.199219 25.238281 C 14.160156 25.238281 14.125 25.230469 14.089844 25.214844 C 13.886719 24.804688 13.820312 24.371094 13.898438 23.917969 C 13.730469 24.148438 13.570312 24.378906 13.417969 24.617188 C 13.367188 24.667969 13.3125 24.71875 13.261719 24.773438 C 12.984375 24.867188 12.882812 24.773438 12.960938 24.496094 C 13.011719 24.449219 13.058594 24.398438 13.105469 24.351562 C 13.476562 23.835938 13.855469 23.332031 14.246094 22.839844 Z M 14.246094 22.839844 "/>
</g>
<mask id="mask18">
  <g filter="url(#alpha)">
<rect x="0" y="0" width="50" height="50" style="fill:rgb(0%,0%,0%);fill-opacity:0.913725;stroke:none;"/>
  </g>
</mask>
<clipPath id="clip19">
  <rect width="50" height="50"/>
</clipPath>
<g id="surface60" clip-path="url(#clip19)">
<path style=" stroke:none;fill-rule:evenodd;fill:rgb(66.27451%,23.137255%,17.647059%);fill-opacity:1;" d="M 3.660156 22.910156 C 3.75 22.90625 3.835938 22.910156 3.925781 22.921875 C 3.972656 22.984375 3.984375 23.050781 3.960938 23.128906 C 3.589844 23.238281 3.292969 23.453125 3.074219 23.777344 C 2.957031 23.976562 2.839844 24.175781 2.722656 24.375 C 2.667969 24.425781 2.601562 24.433594 2.53125 24.398438 C 2.503906 24.375 2.488281 24.34375 2.484375 24.304688 C 2.640625 23.636719 3.03125 23.175781 3.660156 22.910156 Z M 3.660156 22.910156 "/>
</g>
<mask id="mask19">
  <g filter="url(#alpha)">
<rect x="0" y="0" width="50" height="50" style="fill:rgb(0%,0%,0%);fill-opacity:0.94902;stroke:none;"/>
  </g>
</mask>
<clipPath id="clip20">
  <rect width="50" height="50"/>
</clipPath>
<g id="surface63" clip-path="url(#clip20)">
<path style=" stroke:none;fill-rule:evenodd;fill:rgb(0%,0%,0%);fill-opacity:1;" d="M 30.617188 22.910156 C 30.835938 22.871094 30.964844 22.957031 31 23.175781 C 30.96875 23.246094 30.917969 23.304688 30.855469 23.355469 C 30.328125 23.554688 29.792969 23.730469 29.25 23.882812 C 28.980469 23.953125 28.863281 23.851562 28.902344 23.582031 C 28.910156 23.550781 28.933594 23.519531 28.960938 23.5 C 29.511719 23.296875 30.0625 23.101562 30.617188 22.910156 Z M 30.617188 22.910156 "/>
</g>
<mask id="mask20">
  <g filter="url(#alpha)">
<rect x="0" y="0" width="50" height="50" style="fill:rgb(0%,0%,0%);fill-opacity:0.905882;stroke:none;"/>
  </g>
</mask>
<clipPath id="clip21">
  <rect width="50" height="50"/>
</clipPath>
<g id="surface66" clip-path="url(#clip21)">
<path style=" stroke:none;fill-rule:evenodd;fill:rgb(66.27451%,23.137255%,17.647059%);fill-opacity:1;" d="M 6.996094 22.984375 C 7.050781 22.980469 7.097656 22.992188 7.140625 23.019531 C 7.285156 23.21875 7.464844 23.375 7.679688 23.488281 C 7.746094 23.71875 7.660156 23.796875 7.429688 23.714844 C 7.21875 23.59375 7.046875 23.429688 6.914062 23.222656 C 6.878906 23.117188 6.90625 23.039062 6.996094 22.984375 Z M 6.996094 22.984375 "/>
</g>
<mask id="mask21">
  <g filter="url(#alpha)">
<rect x="0" y="0" width="50" height="50" style="fill:rgb(0%,0%,0%);fill-opacity:0.886275;stroke:none;"/>
  </g>
</mask>
<clipPath id="clip22">
  <rect width="50" height="50"/>
</clipPath>
<g id="surface69" clip-path="url(#clip22)">
<path style=" stroke:none;fill-rule:evenodd;fill:rgb(66.27451%,23.137255%,17.647059%);fill-opacity:1;" d="M 22.839844 23.105469 C 22.917969 23.09375 22.984375 23.109375 23.042969 23.152344 C 23.089844 23.238281 23.125 23.332031 23.152344 23.429688 C 23.101562 23.589844 23 23.625 22.851562 23.535156 C 22.808594 23.445312 22.78125 23.347656 22.769531 23.246094 C 22.769531 23.1875 22.792969 23.140625 22.839844 23.105469 Z M 22.839844 23.105469 "/>
</g>
<mask id="mask22">
  <g filter="url(#alpha)">
<rect x="0" y="0" width="50" height="50" style="fill:rgb(0%,0%,0%);fill-opacity:0.94902;stroke:none;"/>
  </g>
</mask>
<clipPath id="clip23">
  <rect width="50" height="50"/>
</clipPath>
<g id="surface72" clip-path="url(#clip23)">
<path style=" stroke:none;fill-rule:evenodd;fill:rgb(0%,0%,0%);fill-opacity:1;" d="M 27.542969 23.65625 C 27.695312 23.695312 27.835938 23.757812 27.964844 23.847656 C 28 23.972656 27.972656 24.082031 27.878906 24.171875 C 27.738281 24.1875 27.601562 24.183594 27.460938 24.160156 C 26.953125 24.226562 26.445312 24.269531 25.9375 24.292969 C 25.8125 24.230469 25.765625 24.128906 25.804688 23.992188 C 25.824219 23.949219 25.851562 23.914062 25.886719 23.882812 C 26.429688 23.8125 26.976562 23.75 27.519531 23.691406 C 27.535156 23.683594 27.542969 23.671875 27.542969 23.65625 Z M 27.542969 23.65625 "/>
</g>
<mask id="mask23">
  <g filter="url(#alpha)">
<rect x="0" y="0" width="50" height="50" style="fill:rgb(0%,0%,0%);fill-opacity:0.929412;stroke:none;"/>
  </g>
</mask>
<clipPath id="clip24">
  <rect width="50" height="50"/>
</clipPath>
<g id="surface75" clip-path="url(#clip24)">
<path style=" stroke:none;fill-rule:evenodd;fill:rgb(66.27451%,23.137255%,17.647059%);fill-opacity:1;" d="M 33.28125 24.085938 C 33.59375 24.042969 33.863281 24.128906 34.085938 24.351562 C 34.34375 24.671875 34.496094 25.042969 34.542969 25.457031 C 35.144531 25.59375 35.632812 25.90625 36.003906 26.390625 C 36.273438 26.800781 36.53125 27.214844 36.773438 27.640625 C 36.84375 27.300781 36.875 26.957031 36.871094 26.609375 C 36.957031 26.511719 37.046875 26.511719 37.132812 26.609375 C 37.140625 26.792969 37.152344 26.976562 37.171875 27.160156 C 37.113281 27.613281 37.078125 28.070312 37.0625 28.527344 C 37 28.648438 36.910156 28.6875 36.785156 28.636719 C 36.730469 28.59375 36.679688 28.550781 36.628906 28.503906 C 36.585938 28.394531 36.523438 28.296875 36.449219 28.203125 C 36.09375 27.992188 35.730469 27.796875 35.359375 27.617188 C 35.28125 27.460938 35.324219 27.367188 35.488281 27.328125 C 35.773438 27.425781 36.046875 27.542969 36.304688 27.675781 C 36.074219 27.292969 35.835938 26.914062 35.597656 26.535156 C 35.324219 26.203125 34.980469 25.980469 34.566406 25.863281 C 34.53125 26.695312 34.230469 27.410156 33.664062 28.011719 C 33.296875 28.25 32.964844 28.207031 32.667969 27.878906 C 32.457031 27.613281 32.238281 27.351562 32.007812 27.101562 C 31.542969 26.730469 31.015625 26.585938 30.425781 26.667969 C 30.230469 26.71875 30.054688 26.804688 29.898438 26.933594 C 30.59375 27.363281 30.859375 27.980469 30.699219 28.792969 C 30.621094 29.25 30.410156 29.632812 30.066406 29.933594 C 29.824219 30.027344 29.621094 29.976562 29.453125 29.777344 C 29.066406 29.261719 28.925781 28.6875 29.019531 28.046875 C 29.066406 27.714844 29.183594 27.40625 29.367188 27.125 C 28.828125 27.117188 28.367188 27.304688 27.988281 27.6875 C 27.683594 28.105469 27.585938 28.570312 27.699219 29.082031 C 27.734375 29.234375 27.769531 29.386719 27.808594 29.535156 C 27.800781 29.644531 27.746094 29.679688 27.640625 29.644531 C 27.621094 29.636719 27.605469 29.625 27.59375 29.609375 C 27.367188 29.046875 27.347656 28.480469 27.53125 27.90625 C 27.894531 27.191406 28.476562 26.832031 29.285156 26.824219 C 29.386719 26.824219 29.484375 26.832031 29.585938 26.847656 C 30.027344 26.4375 30.546875 26.289062 31.144531 26.402344 C 31.828125 26.542969 32.351562 26.90625 32.71875 27.496094 C 32.84375 27.636719 32.984375 27.761719 33.136719 27.867188 C 33.273438 27.898438 33.394531 27.867188 33.496094 27.773438 C 33.992188 27.207031 34.246094 26.546875 34.265625 25.792969 C 33.820312 25.761719 33.402344 25.636719 33.015625 25.421875 C 32.613281 25.0625 32.582031 24.679688 32.921875 24.269531 C 33.035156 24.195312 33.15625 24.132812 33.28125 24.085938 Z M 33.402344 24.398438 C 33.617188 24.390625 33.789062 24.46875 33.917969 24.640625 C 34.078125 24.871094 34.175781 25.128906 34.21875 25.40625 C 33.871094 25.386719 33.542969 25.292969 33.234375 25.132812 C 33.011719 24.945312 32.988281 24.734375 33.160156 24.507812 C 33.242188 24.464844 33.320312 24.429688 33.402344 24.398438 Z M 29.632812 27.183594 C 29.964844 27.292969 30.199219 27.511719 30.339844 27.832031 C 30.53125 28.441406 30.445312 29.011719 30.078125 29.535156 C 30.011719 29.613281 29.933594 29.679688 29.847656 29.730469 C 29.652344 29.609375 29.511719 29.441406 29.429688 29.226562 C 29.15625 28.507812 29.222656 27.828125 29.632812 27.183594 Z M 29.632812 27.183594 "/>
</g>
<mask id="mask24">
  <g filter="url(#alpha)">
<rect x="0" y="0" width="50" height="50" style="fill:rgb(0%,0%,0%);fill-opacity:0.898039;stroke:none;"/>
  </g>
</mask>
<clipPath id="clip25">
  <rect width="50" height="50"/>
</clipPath>
<g id="surface78" clip-path="url(#clip25)">
<path style=" stroke:none;fill-rule:evenodd;fill:rgb(66.27451%,23.137255%,17.647059%);fill-opacity:1;" d="M 23.175781 24.542969 C 23.320312 24.550781 23.386719 24.625 23.367188 24.773438 C 23.363281 24.882812 23.339844 24.992188 23.296875 25.097656 C 23.148438 25.210938 23.046875 25.175781 22.984375 25 C 23.027344 24.882812 23.058594 24.765625 23.066406 24.640625 C 23.101562 24.601562 23.136719 24.570312 23.175781 24.542969 Z M 23.175781 24.542969 "/>
</g>
<mask id="mask25">
  <g filter="url(#alpha)">
<rect x="0" y="0" width="50" height="50" style="fill:rgb(0%,0%,0%);fill-opacity:0.85098;stroke:none;"/>
  </g>
</mask>
<clipPath id="clip26">
  <rect width="50" height="50"/>
</clipPath>
<g id="surface81" clip-path="url(#clip26)">
<path style=" stroke:none;fill-rule:evenodd;fill:rgb(66.27451%,23.137255%,17.647059%);fill-opacity:1;" d="M 8.148438 25 C 8.210938 24.992188 8.261719 25.007812 8.304688 25.046875 C 8.320312 25.152344 8.320312 25.257812 8.304688 25.359375 C 8.226562 25.425781 8.152344 25.417969 8.089844 25.335938 C 8.074219 25.246094 8.074219 25.160156 8.089844 25.070312 C 8.105469 25.042969 8.125 25.019531 8.148438 25 Z M 8.148438 25 "/>
</g>
<mask id="mask26">
  <g filter="url(#alpha)">
<rect x="0" y="0" width="50" height="50" style="fill:rgb(0%,0%,0%);fill-opacity:0.917647;stroke:none;"/>
  </g>
</mask>
<clipPath id="clip27">
  <rect width="50" height="50"/>
</clipPath>
<g id="surface84" clip-path="url(#clip27)">
<path style=" stroke:none;fill-rule:evenodd;fill:rgb(66.27451%,23.137255%,17.647059%);fill-opacity:1;" d="M 2.269531 25.71875 C 2.394531 25.703125 2.464844 25.753906 2.484375 25.875 C 2.453125 25.976562 2.429688 26.082031 2.414062 26.1875 C 2.46875 26.421875 2.523438 26.652344 2.582031 26.882812 C 2.5625 27.050781 2.476562 27.09375 2.328125 27.015625 C 2.269531 26.8125 2.207031 26.613281 2.136719 26.417969 C 2.101562 26.191406 2.128906 25.976562 2.207031 25.769531 C 2.230469 25.753906 2.253906 25.738281 2.269531 25.71875 Z M 2.269531 25.71875 "/>
</g>
<mask id="mask27">
  <g filter="url(#alpha)">
<rect x="0" y="0" width="50" height="50" style="fill:rgb(0%,0%,0%);fill-opacity:0.901961;stroke:none;"/>
  </g>
</mask>
<clipPath id="clip28">
  <rect width="50" height="50"/>
</clipPath>
<g id="surface87" clip-path="url(#clip28)">
<path style=" stroke:none;fill-rule:evenodd;fill:rgb(66.27451%,23.137255%,17.647059%);fill-opacity:1;" d="M 22.335938 26.222656 C 22.523438 26.21875 22.59375 26.304688 22.539062 26.488281 C 22.488281 26.609375 22.402344 26.699219 22.289062 26.753906 C 22.121094 26.703125 22.074219 26.597656 22.15625 26.441406 C 22.210938 26.363281 22.273438 26.292969 22.335938 26.222656 Z M 22.335938 26.222656 "/>
</g>
<mask id="mask28">
  <g filter="url(#alpha)">
<rect x="0" y="0" width="50" height="50" style="fill:rgb(0%,0%,0%);fill-opacity:0.913725;stroke:none;"/>
  </g>
</mask>
<clipPath id="clip29">
  <rect width="50" height="50"/>
</clipPath>
<g id="surface90" clip-path="url(#clip29)">
<path style=" stroke:none;fill-rule:evenodd;fill:rgb(66.27451%,23.137255%,17.647059%);fill-opacity:1;" d="M 14.34375 26.320312 C 14.398438 26.316406 14.453125 26.320312 14.511719 26.332031 C 14.761719 26.769531 15.113281 27.097656 15.566406 27.316406 C 15.621094 27.386719 15.628906 27.460938 15.589844 27.542969 C 15.515625 27.601562 15.433594 27.605469 15.351562 27.554688 C 14.867188 27.3125 14.511719 26.945312 14.292969 26.453125 C 14.292969 26.398438 14.308594 26.355469 14.34375 26.320312 Z M 14.34375 26.320312 "/>
</g>
<mask id="mask29">
  <g filter="url(#alpha)">
<rect x="0" y="0" width="50" height="50" style="fill:rgb(0%,0%,0%);fill-opacity:0.886275;stroke:none;"/>
  </g>
</mask>
<clipPath id="clip30">
  <rect width="50" height="50"/>
</clipPath>
<g id="surface93" clip-path="url(#clip30)">
<path style=" stroke:none;fill-rule:evenodd;fill:rgb(66.27451%,23.137255%,17.647059%);fill-opacity:1;" d="M 7.742188 26.847656 C 7.847656 26.832031 7.910156 26.875 7.933594 26.980469 C 7.875 27.132812 7.820312 27.285156 7.765625 27.4375 C 7.585938 27.480469 7.515625 27.414062 7.5625 27.230469 C 7.589844 27.085938 7.652344 26.960938 7.742188 26.847656 Z M 7.742188 26.847656 "/>
</g>
<mask id="mask30">
  <g filter="url(#alpha)">
<rect x="0" y="0" width="50" height="50" style="fill:rgb(0%,0%,0%);fill-opacity:0.913725;stroke:none;"/>
  </g>
</mask>
<clipPath id="clip31">
  <rect width="50" height="50"/>
</clipPath>
<g id="surface96" clip-path="url(#clip31)">
<path style=" stroke:none;fill-rule:evenodd;fill:rgb(66.27451%,23.137255%,17.647059%);fill-opacity:1;" d="M 21.160156 27.519531 C 21.316406 27.546875 21.363281 27.636719 21.292969 27.785156 C 21.226562 27.847656 21.15625 27.90625 21.085938 27.964844 C 20.8125 28.136719 20.53125 28.304688 20.246094 28.46875 C 20.070312 28.492188 20 28.414062 20.042969 28.242188 C 20.078125 28.203125 20.113281 28.167969 20.152344 28.132812 C 20.5 27.945312 20.835938 27.742188 21.160156 27.519531 Z M 21.160156 27.519531 "/>
</g>
<mask id="mask31">
  <g filter="url(#alpha)">
<rect x="0" y="0" width="50" height="50" style="fill:rgb(0%,0%,0%);fill-opacity:0.878431;stroke:none;"/>
  </g>
</mask>
<clipPath id="clip32">
  <rect width="50" height="50"/>
</clipPath>
<g id="surface99" clip-path="url(#clip32)">
<path style=" stroke:none;fill-rule:evenodd;fill:rgb(66.27451%,23.137255%,17.647059%);fill-opacity:1;" d="M 3.324219 28.074219 C 3.4375 28.078125 3.527344 28.128906 3.589844 28.230469 C 3.671875 28.273438 3.761719 28.316406 3.851562 28.347656 C 3.878906 28.398438 3.882812 28.449219 3.863281 28.503906 C 3.621094 28.546875 3.417969 28.464844 3.265625 28.265625 C 3.242188 28.183594 3.261719 28.121094 3.324219 28.074219 Z M 3.324219 28.074219 "/>
</g>
<mask id="mask32">
  <g filter="url(#alpha)">
<rect x="0" y="0" width="50" height="50" style="fill:rgb(0%,0%,0%);fill-opacity:0.921569;stroke:none;"/>
  </g>
</mask>
<clipPath id="clip33">
  <rect width="50" height="50"/>
</clipPath>
<g id="surface102" clip-path="url(#clip33)">
<path style=" stroke:none;fill-rule:evenodd;fill:rgb(66.27451%,23.137255%,17.647059%);fill-opacity:1;" d="M 17.101562 28.382812 C 17.394531 28.453125 17.691406 28.480469 17.992188 28.46875 C 18.019531 28.480469 18.039062 28.5 18.050781 28.527344 C 18.085938 28.632812 18.058594 28.707031 17.96875 28.757812 C 17.683594 28.796875 17.40625 28.78125 17.125 28.707031 C 17.003906 28.648438 16.976562 28.554688 17.042969 28.433594 C 17.066406 28.417969 17.085938 28.402344 17.101562 28.382812 Z M 17.101562 28.382812 "/>
</g>
<mask id="mask33">
  <g filter="url(#alpha)">
<rect x="0" y="0" width="50" height="50" style="fill:rgb(0%,0%,0%);fill-opacity:0.835294;stroke:none;"/>
  </g>
</mask>
<clipPath id="clip34">
  <rect width="50" height="50"/>
</clipPath>
<g id="surface105" clip-path="url(#clip34)">
<path style=" stroke:none;fill-rule:evenodd;fill:rgb(66.27451%,23.137255%,17.647059%);fill-opacity:1;" d="M 5.867188 28.457031 C 6.007812 28.441406 6.046875 28.496094 5.988281 28.625 C 5.898438 28.671875 5.800781 28.691406 5.699219 28.683594 C 5.675781 28.644531 5.671875 28.597656 5.6875 28.550781 C 5.746094 28.511719 5.808594 28.480469 5.867188 28.457031 Z M 5.867188 28.457031 "/>
</g>
<mask id="mask34">
  <g filter="url(#alpha)">
<rect x="0" y="0" width="50" height="50" style="fill:rgb(0%,0%,0%);fill-opacity:0.933333;stroke:none;"/>
  </g>
</mask>
<clipPath id="clip35">
  <rect width="50" height="50"/>
</clipPath>
<g id="surface108" clip-path="url(#clip35)">
<path style=" stroke:none;fill-rule:evenodd;fill:rgb(0.392157%,0.392157%,0.392157%);fill-opacity:1;" d="M 9.085938 29.5625 C 9.160156 29.546875 9.222656 29.570312 9.265625 29.632812 C 9.355469 29.851562 9.453125 30.066406 9.554688 30.28125 C 9.859375 30.785156 10.210938 31.257812 10.609375 31.695312 C 10.832031 32 11.058594 32.304688 11.28125 32.609375 C 11.386719 32.152344 11.554688 31.722656 11.785156 31.3125 C 11.96875 31.132812 12.082031 31.167969 12.132812 31.421875 C 12.144531 31.820312 12.207031 32.21875 12.3125 32.609375 C 12.574219 33.421875 12.863281 34.21875 13.179688 35.007812 C 13.304688 35.289062 13.222656 35.378906 12.925781 35.285156 C 12.058594 34.914062 11.195312 34.539062 10.332031 34.15625 C 9.777344 33.832031 9.203125 33.542969 8.605469 33.292969 C 8.546875 33.257812 8.496094 33.214844 8.449219 33.160156 C 8.417969 33.03125 8.464844 32.96875 8.59375 32.96875 C 9.074219 33.03125 9.558594 33.074219 10.046875 33.101562 C 9.726562 32.800781 9.429688 32.484375 9.144531 32.152344 C 8.6875 31.730469 8.25 31.289062 7.824219 30.832031 C 7.738281 30.667969 7.773438 30.539062 7.933594 30.4375 C 8.179688 30.320312 8.421875 30.191406 8.652344 30.054688 C 8.796875 29.886719 8.9375 29.722656 9.085938 29.5625 Z M 9.324219 30.402344 C 9.015625 30.441406 8.703125 30.484375 8.390625 30.519531 C 8.523438 30.4375 8.660156 30.355469 8.796875 30.269531 C 8.921875 30.160156 9.03125 30.035156 9.121094 29.898438 C 9.179688 30.070312 9.246094 30.238281 9.324219 30.402344 Z M 12.230469 33.089844 C 12.058594 32.695312 11.898438 32.296875 11.75 31.890625 C 11.808594 31.78125 11.859375 31.667969 11.90625 31.554688 C 11.964844 32.074219 12.074219 32.585938 12.230469 33.089844 Z M 9.375 33.328125 C 9.492188 33.335938 9.613281 33.34375 9.734375 33.351562 C 9.6875 33.394531 9.632812 33.421875 9.566406 33.425781 C 9.492188 33.40625 9.429688 33.375 9.375 33.328125 Z M 9.375 33.328125 "/>
</g>
<mask id="mask35">
  <g filter="url(#alpha)">
<rect x="0" y="0" width="50" height="50" style="fill:rgb(0%,0%,0%);fill-opacity:0.992157;stroke:none;"/>
  </g>
</mask>
<clipPath id="clip36">
  <rect width="50" height="50"/>
</clipPath>
<g id="surface111" clip-path="url(#clip36)">
<path style=" stroke:none;fill-rule:evenodd;fill:rgb(72.54902%,70.980392%,69.019608%);fill-opacity:1;" d="M 9.324219 30.402344 C 9.671875 30.886719 10.042969 31.359375 10.441406 31.816406 C 10.601562 32.0625 10.777344 32.292969 10.96875 32.511719 C 11.066406 32.652344 11.15625 32.792969 11.246094 32.933594 C 11.328125 32.960938 11.398438 32.941406 11.449219 32.875 C 11.507812 32.53125 11.609375 32.203125 11.75 31.890625 C 11.898438 32.296875 12.058594 32.695312 12.230469 33.089844 C 12.222656 33.121094 12.230469 33.144531 12.253906 33.160156 C 12.25 33.183594 12.257812 33.199219 12.277344 33.210938 C 12.273438 33.242188 12.28125 33.265625 12.300781 33.28125 C 12.296875 33.304688 12.304688 33.320312 12.324219 33.328125 C 12.320312 33.359375 12.328125 33.382812 12.351562 33.402344 C 12.347656 33.425781 12.355469 33.441406 12.375 33.449219 C 12.367188 33.480469 12.375 33.503906 12.398438 33.519531 C 12.394531 33.546875 12.402344 33.5625 12.421875 33.570312 C 12.417969 33.601562 12.425781 33.625 12.445312 33.640625 C 12.460938 33.710938 12.484375 33.773438 12.519531 33.832031 C 12.664062 34.226562 12.816406 34.621094 12.972656 35.007812 C 12.15625 34.683594 11.339844 34.335938 10.527344 33.964844 C 10.21875 33.789062 9.910156 33.625 9.589844 33.472656 C 9.570312 33.460938 9.5625 33.445312 9.566406 33.425781 C 9.632812 33.421875 9.6875 33.394531 9.734375 33.351562 C 9.949219 33.355469 10.167969 33.34375 10.382812 33.316406 C 10.410156 33.308594 10.441406 33.296875 10.464844 33.28125 C 10.480469 33.226562 10.480469 33.167969 10.464844 33.113281 C 10.394531 33.042969 10.320312 32.984375 10.238281 32.933594 C 9.710938 32.386719 9.183594 31.847656 8.652344 31.3125 C 8.652344 31.296875 8.644531 31.289062 8.628906 31.289062 C 8.628906 31.273438 8.621094 31.265625 8.605469 31.265625 C 8.605469 31.25 8.597656 31.242188 8.582031 31.242188 C 8.582031 31.226562 8.574219 31.21875 8.558594 31.21875 C 8.558594 31.199219 8.550781 31.191406 8.535156 31.191406 C 8.535156 31.175781 8.523438 31.167969 8.507812 31.167969 C 8.507812 31.152344 8.5 31.144531 8.484375 31.144531 C 8.484375 31.128906 8.476562 31.121094 8.460938 31.121094 C 8.460938 31.105469 8.453125 31.097656 8.4375 31.097656 C 8.4375 31.082031 8.429688 31.074219 8.414062 31.074219 C 8.414062 31.058594 8.40625 31.050781 8.390625 31.050781 C 8.390625 31.03125 8.382812 31.023438 8.367188 31.023438 C 8.367188 31.007812 8.355469 31 8.339844 31 C 8.339844 30.984375 8.332031 30.976562 8.316406 30.976562 C 8.261719 30.914062 8.203125 30.847656 8.148438 30.785156 C 8.148438 30.769531 8.140625 30.761719 8.125 30.761719 C 8.125 30.746094 8.117188 30.738281 8.101562 30.738281 C 8.101562 30.722656 8.09375 30.714844 8.078125 30.714844 C 8.078125 30.695312 8.070312 30.6875 8.054688 30.6875 C 8.0625 30.652344 8.085938 30.625 8.125 30.605469 C 8.210938 30.566406 8.296875 30.539062 8.390625 30.519531 C 8.703125 30.484375 9.015625 30.441406 9.324219 30.402344 Z M 9.324219 30.402344 "/>
</g>
<mask id="mask36">
  <g filter="url(#alpha)">
<rect x="0" y="0" width="50" height="50" style="fill:rgb(0%,0%,0%);fill-opacity:0.952941;stroke:none;"/>
  </g>
</mask>
<clipPath id="clip37">
  <rect width="50" height="50"/>
</clipPath>
<g id="surface114" clip-path="url(#clip37)">
<path style=" stroke:none;fill-rule:evenodd;fill:rgb(66.27451%,23.137255%,17.647059%);fill-opacity:1;" d="M 39.570312 31.527344 C 39.695312 31.507812 39.796875 31.546875 39.871094 31.648438 C 39.972656 32.003906 40.085938 32.355469 40.207031 32.707031 C 40.460938 33.183594 40.71875 33.664062 40.972656 34.144531 C 40.996094 34.386719 40.890625 34.488281 40.652344 34.445312 C 40.398438 34.050781 40.164062 33.648438 39.941406 33.234375 C 39.878906 33.671875 39.734375 34.078125 39.511719 34.457031 C 39.375 34.636719 39.25 34.820312 39.125 35.007812 C 38.980469 35.289062 39.003906 35.550781 39.199219 35.800781 C 39.53125 36.136719 39.871094 36.472656 40.207031 36.808594 C 40.472656 37.101562 40.664062 37.4375 40.78125 37.816406 C 41.019531 37.230469 41.421875 36.792969 41.996094 36.511719 C 42.253906 36.382812 42.515625 36.273438 42.785156 36.171875 C 43.253906 36.046875 43.726562 35.933594 44.203125 35.835938 C 44.800781 35.65625 45.335938 35.367188 45.8125 34.972656 C 46.167969 34.664062 46.527344 34.359375 46.890625 34.0625 C 46.621094 34.050781 46.367188 33.984375 46.125 33.871094 C 46.054688 33.742188 46.0625 33.625 46.148438 33.507812 C 46.191406 33.484375 46.242188 33.472656 46.292969 33.472656 C 46.660156 33.597656 47.039062 33.617188 47.417969 33.535156 C 47.675781 33.40625 47.828125 33.480469 47.875 33.761719 C 47.691406 34.3125 47.511719 34.863281 47.335938 35.417969 C 47.292969 35.59375 47.261719 35.769531 47.238281 35.945312 C 47.117188 36.085938 46.980469 36.101562 46.832031 35.992188 C 46.792969 35.800781 46.800781 35.609375 46.855469 35.417969 C 46.945312 35.101562 47.03125 34.792969 47.121094 34.480469 C 46.558594 35.003906 45.953125 35.472656 45.308594 35.886719 C 45.066406 36.015625 44.820312 36.128906 44.5625 36.222656 C 44.09375 36.34375 43.621094 36.453125 43.148438 36.558594 C 42.75 36.671875 42.375 36.832031 42.019531 37.039062 C 41.570312 37.335938 41.277344 37.75 41.144531 38.273438 C 40.945312 38.996094 40.769531 39.726562 40.613281 40.457031 C 40.320312 41.472656 39.921875 42.441406 39.414062 43.363281 C 39.28125 43.460938 39.152344 43.453125 39.03125 43.339844 C 38.996094 43.269531 38.988281 43.199219 39.007812 43.121094 C 39.730469 41.839844 40.207031 40.46875 40.433594 39.007812 C 40.398438 38.75 40.285156 38.535156 40.097656 38.359375 C 39.785156 38.105469 39.433594 37.929688 39.042969 37.828125 C 38.449219 37.695312 37.851562 37.628906 37.242188 37.636719 C 36.5625 37.605469 35.898438 37.492188 35.25 37.300781 C 35.402344 37.613281 35.542969 37.929688 35.667969 38.25 C 35.722656 38.445312 35.652344 38.554688 35.453125 38.585938 C 35.382812 38.570312 35.316406 38.539062 35.261719 38.488281 C 35.058594 37.960938 34.8125 37.457031 34.515625 36.976562 C 34.464844 36.8125 34.515625 36.695312 34.671875 36.628906 C 34.773438 36.621094 34.875 36.632812 34.972656 36.664062 C 35.398438 36.515625 35.808594 36.332031 36.210938 36.125 C 36.507812 36.066406 36.613281 36.183594 36.535156 36.472656 C 36.246094 36.625 35.953125 36.773438 35.65625 36.917969 C 35.957031 37.003906 36.261719 37.070312 36.570312 37.109375 C 37.144531 37.167969 37.722656 37.207031 38.296875 37.230469 C 39.035156 37.289062 39.707031 37.507812 40.3125 37.890625 C 40.230469 37.664062 40.113281 37.457031 39.964844 37.265625 C 39.625 36.898438 39.269531 36.539062 38.910156 36.1875 C 38.535156 35.78125 38.460938 35.324219 38.695312 34.816406 C 38.910156 34.53125 39.101562 34.226562 39.269531 33.90625 C 39.421875 33.578125 39.496094 33.234375 39.484375 32.875 C 39.257812 33.222656 39.035156 33.582031 38.828125 33.941406 C 38.621094 34.019531 38.492188 33.949219 38.441406 33.738281 C 38.621094 33.347656 38.832031 32.980469 39.078125 32.632812 C 39.125 32.539062 39.175781 32.441406 39.222656 32.34375 C 39.28125 32.113281 39.347656 31.878906 39.414062 31.648438 C 39.457031 31.59375 39.507812 31.554688 39.570312 31.527344 Z M 39.570312 31.527344 "/>
</g>
<mask id="mask37">
  <g filter="url(#alpha)">
<rect x="0" y="0" width="50" height="50" style="fill:rgb(0%,0%,0%);fill-opacity:0.952941;stroke:none;"/>
  </g>
</mask>
<clipPath id="clip38">
  <rect width="50" height="50"/>
</clipPath>
<g id="surface117" clip-path="url(#clip38)">
<path style=" stroke:none;fill-rule:evenodd;fill:rgb(0.392157%,0.392157%,0.392157%);fill-opacity:1;" d="M 6.230469 31.722656 C 6.417969 31.691406 6.566406 31.753906 6.671875 31.914062 C 6.769531 32.09375 6.859375 32.277344 6.9375 32.464844 C 7.171875 32.859375 7.410156 33.253906 7.65625 33.640625 C 7.785156 33.933594 7.90625 34.230469 8.015625 34.53125 C 8.046875 34.640625 8.027344 34.742188 7.957031 34.828125 C 7.902344 34.84375 7.84375 34.84375 7.789062 34.828125 C 7.382812 34.640625 6.992188 34.429688 6.613281 34.195312 C 6.605469 34.207031 6.597656 34.21875 6.589844 34.230469 C 6.632812 34.378906 6.675781 34.527344 6.722656 34.671875 C 6.789062 35.089844 6.871094 35.507812 6.960938 35.921875 C 7.121094 36.363281 7.257812 36.808594 7.371094 37.265625 C 7.433594 37.40625 7.507812 37.542969 7.585938 37.675781 C 7.667969 37.8125 7.65625 37.9375 7.550781 38.046875 C 6.804688 38.167969 6.070312 38.328125 5.339844 38.527344 C 5.3125 38.566406 5.296875 38.613281 5.292969 38.671875 C 5.355469 38.828125 5.3125 38.933594 5.160156 38.996094 C 5.117188 38.988281 5.082031 38.964844 5.066406 38.921875 C 5.054688 38.816406 5.039062 38.714844 5.015625 38.609375 C 4.894531 38.667969 4.769531 38.679688 4.644531 38.644531 C 4.550781 38.554688 4.550781 38.46875 4.644531 38.382812 C 4.769531 38.347656 4.894531 38.3125 5.015625 38.273438 C 5.015625 36.980469 5.085938 35.691406 5.234375 34.410156 C 4.925781 34.59375 4.617188 34.773438 4.308594 34.949219 C 4.121094 35.101562 3.921875 35.238281 3.707031 35.359375 C 3.503906 35.382812 3.425781 35.289062 3.480469 35.082031 C 3.507812 35.007812 3.539062 34.933594 3.578125 34.867188 C 3.730469 34.664062 3.878906 34.464844 4.03125 34.265625 C 4.75 33.515625 5.414062 32.722656 6.023438 31.890625 C 6.089844 31.824219 6.15625 31.769531 6.230469 31.722656 Z M 6.421875 32.152344 C 6.46875 32.1875 6.492188 32.234375 6.492188 32.296875 C 6.457031 32.257812 6.433594 32.207031 6.421875 32.152344 Z M 6.492188 32.296875 C 6.535156 32.34375 6.558594 32.398438 6.566406 32.464844 C 6.523438 32.417969 6.496094 32.363281 6.492188 32.296875 Z M 6.566406 32.464844 C 6.796875 32.890625 7.050781 33.308594 7.320312 33.714844 C 7.441406 33.917969 7.53125 34.136719 7.597656 34.363281 C 7.488281 34.320312 7.386719 34.273438 7.285156 34.21875 C 7.039062 33.636719 6.796875 33.050781 6.566406 32.464844 Z M 7.1875 37.625 C 7.226562 37.675781 7.25 37.734375 7.261719 37.792969 C 6.9375 37.824219 6.617188 37.882812 6.300781 37.960938 C 6.589844 37.832031 6.882812 37.71875 7.1875 37.625 Z M 7.1875 37.625 "/>
</g>
<mask id="mask38">
  <g filter="url(#alpha)">
<rect x="0" y="0" width="50" height="50" style="fill:rgb(0%,0%,0%);fill-opacity:0.937255;stroke:none;"/>
  </g>
</mask>
<clipPath id="clip39">
  <rect width="50" height="50"/>
</clipPath>
<g id="surface120" clip-path="url(#clip39)">
<path style=" stroke:none;fill-rule:evenodd;fill:rgb(66.27451%,23.137255%,17.647059%);fill-opacity:1;" d="M 18.085938 31.9375 C 18.234375 31.941406 18.3125 32.019531 18.328125 32.164062 C 18.320312 32.234375 18.289062 32.292969 18.230469 32.332031 C 17.867188 32.421875 17.515625 32.550781 17.175781 32.71875 C 16.6875 32.886719 16.199219 33.050781 15.710938 33.210938 C 15.988281 33.363281 16.285156 33.480469 16.597656 33.558594 C 17.128906 33.628906 17.5 33.425781 17.714844 32.945312 C 17.898438 32.628906 18.164062 32.519531 18.519531 32.621094 C 19.058594 32.855469 19.511719 33.199219 19.886719 33.652344 C 20.023438 33.765625 20.179688 33.832031 20.355469 33.855469 C 20.457031 33.851562 20.550781 33.8125 20.632812 33.75 C 20.847656 33.550781 21.0625 33.347656 21.28125 33.148438 C 21.632812 32.890625 21.996094 32.882812 22.359375 33.125 C 22.488281 33.261719 22.617188 33.398438 22.742188 33.535156 C 22.925781 33.632812 23.101562 33.617188 23.273438 33.484375 C 23.480469 33.273438 23.707031 33.082031 23.945312 32.910156 C 24.28125 32.703125 24.574219 32.753906 24.820312 33.066406 C 24.953125 33.308594 25.105469 33.542969 25.277344 33.761719 C 25.433594 33.929688 25.621094 33.984375 25.839844 33.917969 C 26.054688 33.835938 26.261719 33.738281 26.464844 33.628906 C 26.628906 33.5625 26.800781 33.523438 26.980469 33.519531 C 27.253906 33.5625 27.53125 33.601562 27.808594 33.628906 C 27.84375 33.640625 27.871094 33.660156 27.890625 33.6875 C 27.941406 33.828125 27.894531 33.921875 27.761719 33.964844 C 27.550781 34.011719 27.34375 34.003906 27.136719 33.941406 C 27.015625 33.925781 26.894531 33.925781 26.777344 33.941406 C 26.488281 34.0625 26.199219 34.179688 25.914062 34.300781 C 25.644531 34.371094 25.398438 34.332031 25.167969 34.179688 C 25.074219 34.089844 24.984375 33.996094 24.890625 33.90625 C 24.757812 33.6875 24.621094 33.472656 24.484375 33.257812 C 24.351562 33.136719 24.222656 33.140625 24.085938 33.269531 C 23.878906 33.480469 23.652344 33.671875 23.414062 33.84375 C 23.132812 34.007812 22.84375 34.015625 22.550781 33.871094 C 22.390625 33.710938 22.230469 33.550781 22.070312 33.390625 C 21.851562 33.289062 21.652344 33.324219 21.472656 33.484375 C 21.25 33.722656 21.011719 33.941406 20.75 34.132812 C 20.527344 34.257812 20.292969 34.273438 20.054688 34.179688 C 19.960938 34.132812 19.863281 34.085938 19.765625 34.039062 C 19.519531 33.804688 19.269531 33.574219 19.023438 33.339844 C 18.886719 33.261719 18.761719 33.175781 18.640625 33.078125 C 18.53125 33.007812 18.414062 32.964844 18.289062 32.945312 C 18.203125 32.960938 18.132812 33 18.074219 33.066406 C 17.761719 33.769531 17.21875 34.042969 16.453125 33.894531 C 16.167969 33.785156 15.890625 33.675781 15.613281 33.558594 C 15.738281 33.679688 15.863281 33.804688 15.988281 33.929688 C 16.234375 34.253906 16.496094 34.566406 16.777344 34.867188 C 16.84375 35.03125 16.785156 35.136719 16.609375 35.175781 C 16.554688 35.171875 16.503906 35.148438 16.464844 35.105469 C 16.074219 34.5625 15.636719 34.054688 15.160156 33.582031 C 15.011719 33.46875 14.867188 33.355469 14.726562 33.234375 C 14.652344 33.121094 14.671875 33.019531 14.773438 32.933594 C 14.925781 32.9375 15.078125 32.9375 15.230469 32.933594 C 16.203125 32.652344 17.15625 32.320312 18.085938 31.9375 Z M 18.085938 31.9375 "/>
</g>
<mask id="mask39">
  <g filter="url(#alpha)">
<rect x="0" y="0" width="50" height="50" style="fill:rgb(0%,0%,0%);fill-opacity:0.996078;stroke:none;"/>
  </g>
</mask>
<clipPath id="clip40">
  <rect width="50" height="50"/>
</clipPath>
<g id="surface123" clip-path="url(#clip40)">
<path style=" stroke:none;fill-rule:evenodd;fill:rgb(72.54902%,70.980392%,69.019608%);fill-opacity:1;" d="M 6.421875 32.128906 C 6.421875 32.136719 6.421875 32.144531 6.421875 32.152344 C 6.433594 32.207031 6.457031 32.257812 6.492188 32.296875 C 6.496094 32.363281 6.523438 32.417969 6.566406 32.464844 C 6.796875 33.050781 7.039062 33.636719 7.285156 34.21875 C 7.117188 34.125 6.949219 34.035156 6.78125 33.941406 C 6.6875 33.90625 6.589844 33.878906 6.492188 33.855469 C 6.34375 33.886719 6.273438 33.976562 6.277344 34.132812 C 6.328125 34.414062 6.398438 34.6875 6.480469 34.960938 C 6.53125 35.316406 6.59375 35.667969 6.671875 36.019531 C 6.855469 36.550781 7.027344 37.085938 7.1875 37.625 C 6.882812 37.71875 6.589844 37.832031 6.300781 37.960938 C 6.269531 37.957031 6.246094 37.964844 6.230469 37.984375 C 5.914062 38.054688 5.601562 38.136719 5.292969 38.226562 C 5.265625 37.019531 5.339844 35.820312 5.519531 34.625 C 5.542969 34.480469 5.535156 34.335938 5.496094 34.195312 C 5.410156 34.101562 5.300781 34.074219 5.171875 34.109375 C 4.878906 34.285156 4.585938 34.453125 4.285156 34.613281 C 4.234375 34.648438 4.175781 34.667969 4.117188 34.671875 C 4.386719 34.328125 4.679688 34 4.992188 33.6875 C 5.300781 33.296875 5.621094 32.914062 5.953125 32.539062 C 6.050781 32.414062 6.136719 32.289062 6.21875 32.152344 C 6.257812 32.109375 6.300781 32.070312 6.347656 32.03125 C 6.375 32.066406 6.398438 32.097656 6.421875 32.128906 Z M 6.421875 32.128906 "/>
</g>
<mask id="mask40">
  <g filter="url(#alpha)">
<rect x="0" y="0" width="50" height="50" style="fill:rgb(0%,0%,0%);fill-opacity:0.952941;stroke:none;"/>
  </g>
</mask>
<clipPath id="clip41">
  <rect width="50" height="50"/>
</clipPath>
<g id="surface126" clip-path="url(#clip41)">
<path style=" stroke:none;fill-rule:evenodd;fill:rgb(66.27451%,23.137255%,17.647059%);fill-opacity:1;" d="M 23.464844 37.386719 C 23.679688 37.398438 23.761719 37.507812 23.714844 37.722656 C 23.6875 37.773438 23.652344 37.816406 23.609375 37.855469 C 23.351562 38.019531 23.109375 38.199219 22.875 38.394531 C 22.859375 38.410156 22.859375 38.425781 22.875 38.441406 C 23.066406 38.640625 23.292969 38.710938 23.558594 38.644531 C 23.789062 38.5625 24.011719 38.46875 24.230469 38.359375 C 24.621094 38.214844 25.019531 38.128906 25.433594 38.105469 C 26.199219 38.140625 26.722656 38.515625 27.003906 39.234375 C 27.035156 39.332031 27.070312 39.425781 27.101562 39.523438 C 27.140625 39.710938 27.0625 39.8125 26.871094 39.835938 C 26.8125 39.828125 26.753906 39.808594 26.703125 39.773438 C 26.390625 38.675781 25.695312 38.324219 24.617188 38.71875 C 24.296875 38.847656 23.976562 38.972656 23.65625 39.101562 C 23.417969 39.152344 23.1875 39.144531 22.960938 39.078125 C 23.070312 39.210938 23.167969 39.351562 23.257812 39.5 C 23.417969 39.578125 23.476562 39.707031 23.429688 39.882812 C 23.328125 40.023438 23.207031 40.050781 23.054688 39.964844 C 22.851562 39.734375 22.664062 39.488281 22.492188 39.234375 C 22.332031 39.050781 22.164062 38.875 21.988281 38.707031 C 21.972656 38.625 21.972656 38.546875 21.988281 38.464844 C 22.464844 38.082031 22.957031 37.722656 23.464844 37.386719 Z M 23.464844 37.386719 "/>
</g>
</defs>
<g id="surface1">
<use xlink:href="#surface6" mask="url(#mask0)"/>
<use xlink:href="#surface9" mask="url(#mask1)"/>
<use xlink:href="#surface12" mask="url(#mask2)"/>
<use xlink:href="#surface15" mask="url(#mask3)"/>
<use xlink:href="#surface18" mask="url(#mask4)"/>
<path style=" stroke:none;fill-rule:evenodd;fill:rgb(99.607843%,99.215686%,99.215686%);fill-opacity:1;" d="M 18.109375 13.621094 C 18.175781 13.621094 18.238281 13.621094 18.304688 13.621094 C 18.160156 14.347656 18.019531 15.078125 17.882812 15.804688 C 17.855469 15.902344 17.828125 16 17.800781 16.09375 C 17.644531 15.863281 17.484375 15.636719 17.320312 15.410156 C 17.285156 15.394531 17.253906 15.394531 17.222656 15.410156 C 16.464844 16.105469 15.71875 16.816406 14.992188 17.546875 C 14.972656 17.550781 14.957031 17.554688 14.941406 17.558594 C 14.46875 17.152344 14.019531 16.714844 13.597656 16.25 C 13.554688 16.21875 13.503906 16.210938 13.453125 16.226562 C 12.980469 16.789062 12.480469 17.328125 11.953125 17.847656 C 11.761719 18.070312 11.570312 18.296875 11.378906 18.519531 C 11.3125 18.59375 11.234375 18.605469 11.148438 18.554688 C 10.765625 18.171875 10.382812 17.785156 9.996094 17.402344 C 9.980469 17.398438 9.964844 17.394531 9.949219 17.390625 C 9.855469 17.449219 9.773438 17.519531 9.699219 17.605469 C 9.433594 17.925781 9.164062 18.238281 8.882812 18.542969 C 8.769531 18.429688 8.65625 18.320312 8.546875 18.207031 C 8.980469 17.621094 9.433594 17.039062 9.902344 16.464844 C 9.925781 16.449219 9.949219 16.449219 9.972656 16.464844 C 10.339844 16.882812 10.722656 17.28125 11.125 17.667969 C 11.164062 17.683594 11.207031 17.683594 11.246094 17.667969 C 12.007812 16.800781 12.75 15.917969 13.476562 15.027344 C 13.53125 15.011719 13.578125 15.019531 13.621094 15.050781 C 14.035156 15.519531 14.488281 15.949219 14.976562 16.335938 C 15.53125 15.796875 16.082031 15.261719 16.632812 14.726562 C 16.648438 14.675781 16.640625 14.628906 16.609375 14.582031 C 16.433594 14.363281 16.261719 14.136719 16.09375 13.910156 C 16.773438 13.839844 17.445312 13.746094 18.109375 13.621094 Z M 18.109375 13.621094 "/>
<use xlink:href="#surface21" mask="url(#mask5)"/>
<use xlink:href="#surface24" mask="url(#mask6)"/>
<use xlink:href="#surface27" mask="url(#mask7)"/>
<use xlink:href="#surface30" mask="url(#mask8)"/>
<use xlink:href="#surface33" mask="url(#mask9)"/>
<use xlink:href="#surface36" mask="url(#mask10)"/>
<use xlink:href="#surface39" mask="url(#mask11)"/>
<use xlink:href="#surface42" mask="url(#mask12)"/>
<use xlink:href="#surface45" mask="url(#mask13)"/>
<use xlink:href="#surface48" mask="url(#mask14)"/>
<use xlink:href="#surface51" mask="url(#mask15)"/>
<use xlink:href="#surface54" mask="url(#mask16)"/>
<use xlink:href="#surface57" mask="url(#mask17)"/>
<use xlink:href="#surface60" mask="url(#mask18)"/>
<use xlink:href="#surface63" mask="url(#mask19)"/>
<use xlink:href="#surface66" mask="url(#mask20)"/>
<use xlink:href="#surface69" mask="url(#mask21)"/>
<use xlink:href="#surface72" mask="url(#mask22)"/>
<use xlink:href="#surface75" mask="url(#mask23)"/>
<use xlink:href="#surface78" mask="url(#mask24)"/>
<use xlink:href="#surface81" mask="url(#mask25)"/>
<use xlink:href="#surface84" mask="url(#mask26)"/>
<use xlink:href="#surface87" mask="url(#mask27)"/>
<use xlink:href="#surface90" mask="url(#mask28)"/>
<use xlink:href="#surface93" mask="url(#mask29)"/>
<use xlink:href="#surface96" mask="url(#mask30)"/>
<use xlink:href="#surface99" mask="url(#mask31)"/>
<use xlink:href="#surface102" mask="url(#mask32)"/>
<use xlink:href="#surface105" mask="url(#mask33)"/>
<use xlink:href="#surface108" mask="url(#mask34)"/>
<use xlink:href="#surface111" mask="url(#mask35)"/>
<use xlink:href="#surface114" mask="url(#mask36)"/>
<use xlink:href="#surface117" mask="url(#mask37)"/>
<use xlink:href="#surface120" mask="url(#mask38)"/>
<use xlink:href="#surface123" mask="url(#mask39)"/>
<use xlink:href="#surface126" mask="url(#mask40)"/>
</g>
</svg>
