<?xml version="1.0" encoding="UTF-8"?>
<svg xmlns="http://www.w3.org/2000/svg" xmlns:xlink="http://www.w3.org/1999/xlink" width="50pt" height="50pt" viewBox="0 0 50 50" version="1.1">
<defs>
<filter id="alpha" filterUnits="objectBoundingBox" x="0%" y="0%" width="100%" height="100%">
  <feColorMatrix type="matrix" in="SourceGraphic" values="0 0 0 0 1 0 0 0 0 1 0 0 0 0 1 0 0 0 1 0"/>
</filter>
<mask id="mask0">
  <g filter="url(#alpha)">
<rect x="0" y="0" width="50" height="50" style="fill:rgb(0%,0%,0%);fill-opacity:0.988235;stroke:none;"/>
  </g>
</mask>
<clipPath id="clip1">
  <rect width="50" height="50"/>
</clipPath>
<g id="surface6" clip-path="url(#clip1)">
<path style=" stroke:none;fill-rule:evenodd;fill:rgb(0%,0%,0%);fill-opacity:1;" d="M 37.242188 12.6875 C 37.382812 13.125 37.5625 13.550781 37.78125 13.957031 C 38.222656 14.695312 38.636719 15.445312 39.03125 16.214844 C 39.554688 17.027344 40.101562 17.828125 40.664062 18.613281 C 40.824219 18.886719 40.984375 19.160156 41.144531 19.429688 C 41.667969 20.464844 42.179688 21.503906 42.679688 22.550781 C 43.019531 23.214844 43.382812 23.863281 43.769531 24.496094 C 45.007812 26.453125 46.21875 28.429688 47.40625 30.425781 C 47.699219 30.832031 47.980469 31.25 48.246094 31.671875 C 48.4375 31.976562 48.5625 32.304688 48.632812 32.65625 C 48.699219 33.097656 48.558594 33.453125 48.210938 33.726562 C 47.980469 33.886719 47.734375 34.011719 47.46875 34.109375 C 46.488281 34.433594 45.496094 34.714844 44.492188 34.949219 C 43.308594 35.203125 42.121094 35.449219 40.9375 35.683594 C 41.039062 36.035156 41.089844 36.394531 41.09375 36.761719 C 41.253906 37.007812 41.234375 37.234375 41.035156 37.445312 C 40.816406 37.578125 40.59375 37.585938 40.363281 37.46875 C 40.226562 37.363281 40.152344 37.222656 40.132812 37.050781 C 40.15625 36.625 40.105469 36.207031 39.976562 35.800781 C 38.527344 36.039062 37.070312 36.242188 35.609375 36.414062 C 32.542969 36.757812 29.480469 37.109375 26.417969 37.46875 C 24.421875 37.753906 22.429688 38.046875 20.4375 38.359375 C 18.925781 38.574219 17.40625 38.671875 15.878906 38.644531 C 15.542969 38.609375 15.203125 38.558594 14.871094 38.503906 C 13.53125 38.492188 12.195312 38.484375 10.863281 38.476562 C 10.984375 38.875 10.851562 39.125 10.453125 39.234375 C 10.449219 39.433594 10.453125 39.632812 10.464844 39.835938 C 10.476562 39.964844 10.523438 40.074219 10.609375 40.171875 C 10.699219 40.425781 10.621094 40.613281 10.382812 40.734375 C 10.179688 40.777344 10.015625 40.71875 9.890625 40.554688 C 9.78125 40.402344 9.71875 40.234375 9.699219 40.050781 C 9.652344 39.660156 9.65625 39.273438 9.710938 38.886719 C 9.644531 38.679688 9.589844 38.464844 9.554688 38.25 C 9.414062 37.296875 9.273438 36.34375 9.132812 35.394531 C 8.921875 33.960938 8.695312 32.527344 8.449219 31.097656 C 8.230469 29.273438 8.007812 27.449219 7.777344 25.625 C 7.628906 24.863281 7.46875 24.101562 7.296875 23.34375 C 7.179688 22.636719 7.0625 21.933594 6.949219 21.230469 C 6.925781 21.011719 6.890625 20.796875 6.839844 20.582031 C 6.664062 19.882812 6.496094 19.175781 6.335938 18.472656 C 6.195312 19.558594 6.042969 20.648438 5.882812 21.734375 C 5.503906 23.335938 5.128906 24.9375 4.753906 26.535156 C 4.21875 29.050781 3.902344 31.589844 3.804688 34.15625 C 3.8125 34.472656 3.820312 34.789062 3.828125 35.105469 C 3.828125 35.363281 3.828125 35.617188 3.828125 35.875 C 4.660156 35.707031 5.492188 35.542969 6.324219 35.382812 C 6.867188 35.210938 7.417969 35.101562 7.980469 35.046875 C 8.269531 35.015625 8.558594 35.003906 8.84375 35.023438 C 8.894531 35.039062 8.941406 35.070312 8.976562 35.105469 C 9.019531 35.195312 9.039062 35.292969 9.039062 35.394531 C 9.003906 35.472656 8.945312 35.53125 8.871094 35.574219 C 8.433594 35.585938 8.003906 35.625 7.574219 35.695312 C 6.308594 36.003906 5.035156 36.269531 3.757812 36.496094 C 3.664062 36.957031 3.585938 37.421875 3.527344 37.890625 C 3.511719 38.089844 3.511719 38.289062 3.527344 38.488281 C 3.589844 38.824219 3.597656 39.160156 3.550781 39.5 C 3.40625 39.78125 3.179688 39.902344 2.867188 39.871094 C 2.574219 39.757812 2.457031 39.546875 2.519531 39.234375 C 2.546875 39.125 2.601562 39.039062 2.6875 38.96875 C 2.71875 38.652344 2.734375 38.332031 2.738281 38.011719 C 2.828125 37.410156 2.90625 36.8125 2.976562 36.210938 C 2.925781 32.980469 3.246094 29.789062 3.9375 26.632812 C 4.261719 25.195312 4.605469 23.761719 4.96875 22.335938 C 5.054688 21.953125 5.136719 21.570312 5.207031 21.183594 C 5.417969 19.902344 5.625 18.621094 5.832031 17.34375 C 5.875 17.175781 5.984375 17.09375 6.15625 17.101562 C 6.097656 16.78125 6.210938 16.546875 6.492188 16.394531 C 7.460938 15.875 8.480469 15.464844 9.542969 15.171875 C 10.378906 14.925781 11.226562 14.714844 12.085938 14.546875 C 14.058594 14.171875 16.035156 13.828125 18.015625 13.515625 C 19.828125 13.308594 21.636719 13.078125 23.441406 12.816406 C 24.46875 12.714844 25.496094 12.617188 26.523438 12.519531 C 27.726562 12.363281 28.933594 12.214844 30.136719 12.074219 C 30.871094 12 31.609375 11.945312 32.34375 11.90625 C 33.222656 11.773438 34.101562 11.667969 34.984375 11.59375 C 35.265625 11.578125 35.546875 11.578125 35.824219 11.59375 C 36.554688 11.628906 37.023438 11.992188 37.242188 12.6875 Z M 35.945312 12.855469 C 27.457031 13.898438 18.96875 14.941406 10.476562 15.972656 C 11.101562 15.820312 11.734375 15.6875 12.375 15.578125 C 14.046875 15.304688 15.71875 15.027344 17.390625 14.738281 C 18.691406 14.5625 19.996094 14.410156 21.304688 14.28125 C 22.976562 14.011719 24.65625 13.8125 26.34375 13.683594 C 27.351562 13.570312 28.363281 13.449219 29.367188 13.320312 C 30.40625 13.226562 31.449219 13.136719 32.488281 13.058594 C 33.113281 12.988281 33.738281 12.917969 34.363281 12.84375 C 34.839844 12.800781 35.320312 12.785156 35.800781 12.792969 C 35.859375 12.800781 35.90625 12.820312 35.945312 12.855469 Z M 7.957031 16.765625 C 7.765625 17.664062 7.566406 18.5625 7.355469 19.457031 C 7.136719 18.746094 6.996094 18.015625 6.9375 17.269531 C 7.265625 17.082031 7.605469 16.914062 7.957031 16.765625 Z M 6.949219 21.230469 C 5.921875 25.863281 4.882812 30.488281 3.828125 35.105469 C 3.820312 34.789062 3.8125 34.472656 3.804688 34.15625 C 3.902344 31.589844 4.21875 29.050781 4.753906 26.535156 C 5.128906 24.9375 5.503906 23.335938 5.882812 21.734375 C 6.042969 20.648438 6.195312 19.558594 6.335938 18.472656 C 6.496094 19.175781 6.664062 19.882812 6.839844 20.582031 C 6.890625 20.796875 6.925781 21.011719 6.949219 21.230469 Z M 6.949219 21.230469 "/>
</g>
<mask id="mask1">
  <g filter="url(#alpha)">
<rect x="0" y="0" width="50" height="50" style="fill:rgb(0%,0%,0%);fill-opacity:0.972549;stroke:none;"/>
  </g>
</mask>
<clipPath id="clip2">
  <rect width="50" height="50"/>
</clipPath>
<g id="surface9" clip-path="url(#clip2)">
<path style=" stroke:none;fill-rule:evenodd;fill:rgb(82.745098%,81.960784%,79.607843%);fill-opacity:1;" d="M 43.769531 24.496094 C 43.382812 23.863281 43.019531 23.214844 42.679688 22.550781 C 42.179688 21.503906 41.667969 20.464844 41.144531 19.429688 C 40.984375 19.160156 40.824219 18.886719 40.664062 18.613281 C 40.101562 17.828125 39.554688 17.027344 39.03125 16.214844 C 38.636719 15.445312 38.222656 14.695312 37.78125 13.957031 C 37.5625 13.550781 37.382812 13.125 37.242188 12.6875 C 37.558594 12.660156 37.875 12.617188 38.191406 12.566406 C 40.0625 16.535156 41.925781 20.511719 43.769531 24.496094 Z M 43.769531 24.496094 "/>
</g>
<mask id="mask2">
  <g filter="url(#alpha)">
<rect x="0" y="0" width="50" height="50" style="fill:rgb(0%,0%,0%);fill-opacity:0.996078;stroke:none;"/>
  </g>
</mask>
<clipPath id="clip3">
  <rect width="50" height="50"/>
</clipPath>
<g id="surface12" clip-path="url(#clip3)">
<path style=" stroke:none;fill-rule:evenodd;fill:rgb(82.745098%,81.960784%,79.607843%);fill-opacity:1;" d="M 35.945312 12.855469 C 35.992188 12.882812 36.027344 12.921875 36.054688 12.972656 C 36.171875 13.574219 36.378906 14.144531 36.679688 14.679688 C 37.148438 15.480469 37.597656 16.296875 38.023438 17.125 C 38.484375 17.832031 38.949219 18.535156 39.414062 19.238281 C 39.652344 19.628906 39.882812 20.019531 40.109375 20.414062 C 40.523438 21.242188 40.921875 22.074219 41.3125 22.910156 C 41.90625 24.164062 42.570312 25.371094 43.304688 26.535156 C 43.886719 27.464844 44.472656 28.390625 45.054688 29.320312 C 45.359375 29.800781 45.640625 30.296875 45.894531 30.808594 C 46.257812 31.378906 46.613281 31.953125 46.953125 32.539062 C 46.960938 32.597656 46.933594 32.632812 46.867188 32.644531 C 46.03125 32.917969 45.183594 33.152344 44.324219 33.339844 C 41.332031 34.003906 38.316406 34.507812 35.273438 34.855469 C 32.339844 35.160156 29.414062 35.496094 26.488281 35.863281 C 24.179688 36.1875 21.878906 36.523438 19.574219 36.871094 C 18.527344 36.96875 17.480469 37.039062 16.429688 37.074219 C 15.960938 37.066406 15.496094 37.015625 15.039062 36.917969 C 13.628906 36.878906 12.222656 36.871094 10.8125 36.894531 C 10.699219 36.921875 10.601562 36.976562 10.515625 37.050781 C 10.167969 35.003906 9.800781 32.964844 9.410156 30.929688 C 9.167969 29.183594 8.917969 27.441406 8.664062 25.695312 C 8.492188 24.894531 8.308594 24.09375 8.113281 23.296875 C 7.960938 22.589844 7.839844 21.878906 7.753906 21.160156 C 7.632812 20.585938 7.5 20.019531 7.355469 19.457031 C 7.566406 18.5625 7.765625 17.664062 7.957031 16.765625 C 8.761719 16.40625 9.59375 16.140625 10.453125 15.972656 C 10.460938 15.972656 10.46875 15.972656 10.476562 15.972656 C 18.96875 14.941406 27.457031 13.898438 35.945312 12.855469 Z M 35.945312 12.855469 "/>
</g>
<mask id="mask3">
  <g filter="url(#alpha)">
<rect x="0" y="0" width="50" height="50" style="fill:rgb(0%,0%,0%);fill-opacity:0.996078;stroke:none;"/>
  </g>
</mask>
<clipPath id="clip4">
  <rect width="50" height="50"/>
</clipPath>
<g id="surface15" clip-path="url(#clip4)">
<path style=" stroke:none;fill-rule:evenodd;fill:rgb(83.137255%,82.352941%,80%);fill-opacity:1;" d="M 6.949219 21.230469 C 7.0625 21.933594 7.179688 22.636719 7.296875 23.34375 C 7.46875 24.101562 7.628906 24.863281 7.777344 25.625 C 8.007812 27.449219 8.230469 29.273438 8.449219 31.097656 C 8.695312 32.527344 8.921875 33.960938 9.132812 35.394531 C 9.101562 35.394531 9.070312 35.394531 9.039062 35.394531 C 9.039062 35.292969 9.019531 35.195312 8.976562 35.105469 C 8.941406 35.070312 8.894531 35.039062 8.84375 35.023438 C 8.558594 35.003906 8.269531 35.015625 7.980469 35.046875 C 7.417969 35.101562 6.867188 35.210938 6.324219 35.382812 C 5.492188 35.542969 4.660156 35.707031 3.828125 35.875 C 3.828125 35.617188 3.828125 35.363281 3.828125 35.105469 C 4.882812 30.488281 5.921875 25.863281 6.949219 21.230469 Z M 6.949219 21.230469 "/>
</g>
</defs>
<g id="surface1">
<use xlink:href="#surface6" mask="url(#mask0)"/>
<use xlink:href="#surface9" mask="url(#mask1)"/>
<use xlink:href="#surface12" mask="url(#mask2)"/>
<path style=" stroke:none;fill-rule:evenodd;fill:rgb(0%,0%,0%);fill-opacity:1;" d="M 33.113281 13.382812 C 34.09375 13.230469 34.816406 13.582031 35.285156 14.4375 C 35.414062 14.679688 35.535156 14.929688 35.644531 15.183594 C 35.902344 15.847656 36.167969 16.511719 36.4375 17.175781 C 36.652344 17.472656 36.871094 17.765625 37.085938 18.0625 C 37.574219 18.925781 37.941406 19.839844 38.191406 20.800781 C 38.210938 20.964844 38.226562 21.136719 38.238281 21.304688 C 38.652344 22.039062 38.996094 22.808594 39.269531 23.609375 C 39.351562 23.792969 39.441406 23.980469 39.535156 24.160156 C 40.304688 25.363281 41.113281 26.539062 41.957031 27.6875 C 42.316406 28.269531 42.691406 28.835938 43.085938 29.394531 C 43.339844 29.652344 43.5625 29.929688 43.757812 30.234375 C 43.980469 30.742188 43.894531 31.195312 43.507812 31.589844 C 43.359375 31.6875 43.199219 31.757812 43.027344 31.804688 C 42.414062 31.945312 41.796875 32.0625 41.179688 32.164062 C 40.878906 32.269531 40.574219 32.367188 40.265625 32.453125 C 39.320312 32.429688 38.394531 32.539062 37.480469 32.789062 C 36.371094 33.097656 35.261719 33.394531 34.144531 33.675781 C 34.007812 33.695312 33.871094 33.71875 33.738281 33.75 C 33.164062 33.792969 32.585938 33.828125 32.007812 33.84375 C 30.210938 34.101562 28.410156 34.351562 26.609375 34.589844 C 24.855469 34.734375 23.101562 34.894531 21.351562 35.070312 C 19.855469 35.300781 18.359375 35.539062 16.863281 35.789062 C 16.214844 35.871094 15.566406 35.933594 14.917969 35.980469 C 14.425781 36.011719 13.9375 35.988281 13.453125 35.910156 C 13.121094 35.816406 12.785156 35.738281 12.445312 35.667969 C 12.132812 35.667969 11.820312 35.667969 11.511719 35.667969 C 11.183594 35.59375 10.949219 35.40625 10.800781 35.105469 C 10.726562 34.925781 10.671875 34.742188 10.632812 34.554688 C 10.402344 33.195312 10.1875 31.835938 9.984375 30.472656 C 9.863281 29.296875 9.734375 28.121094 9.601562 26.945312 C 9.4375 26.234375 9.277344 25.519531 9.121094 24.808594 C 9.03125 23.972656 8.910156 23.140625 8.761719 22.3125 C 8.683594 22.125 8.628906 21.933594 8.59375 21.734375 C 8.589844 20.773438 8.484375 19.820312 8.28125 18.878906 C 8.117188 18.625 8.109375 18.371094 8.257812 18.109375 C 8.332031 17.980469 8.417969 17.859375 8.507812 17.738281 C 8.554688 17.714844 8.601562 17.699219 8.652344 17.691406 C 9.066406 17.257812 9.554688 16.9375 10.117188 16.730469 C 10.308594 16.691406 10.5 16.652344 10.695312 16.609375 C 11.226562 16.5625 11.753906 16.488281 12.277344 16.394531 C 13.429688 16.375 14.574219 16.269531 15.710938 16.082031 C 17.902344 15.683594 20.09375 15.28125 22.289062 14.882812 C 22.648438 14.839844 23.007812 14.808594 23.367188 14.785156 C 24.871094 14.8125 26.367188 14.714844 27.855469 14.5 C 28.035156 14.386719 28.234375 14.320312 28.445312 14.292969 C 28.527344 14.3125 28.605469 14.335938 28.683594 14.367188 C 29.699219 14.195312 30.703125 13.976562 31.695312 13.707031 C 31.804688 13.636719 31.914062 13.582031 32.03125 13.539062 C 32.121094 13.523438 32.210938 13.527344 32.296875 13.550781 C 32.574219 13.492188 32.84375 13.4375 33.113281 13.382812 Z M 33.113281 13.382812 "/>
<path style=" stroke:none;fill-rule:evenodd;fill:rgb(76.078431%,75.686275%,73.333333%);fill-opacity:1;" d="M 28.9375 15.421875 C 28.976562 15.417969 29.015625 15.421875 29.058594 15.433594 C 28.867188 15.664062 28.6875 15.898438 28.515625 16.144531 C 28.597656 15.914062 28.695312 15.691406 28.804688 15.46875 C 28.851562 15.457031 28.894531 15.441406 28.9375 15.421875 Z M 28.9375 15.421875 "/>
<path style=" stroke:none;fill-rule:evenodd;fill:rgb(56.862745%,56.470588%,54.901961%);fill-opacity:1;" d="M 34.410156 15.496094 C 34.515625 15.652344 34.605469 15.820312 34.671875 16 C 34.648438 16 34.625 16 34.601562 16 C 34.605469 15.957031 34.601562 15.917969 34.589844 15.878906 C 34.511719 15.757812 34.449219 15.632812 34.410156 15.496094 Z M 34.410156 15.496094 "/>
<path style=" stroke:none;fill-rule:evenodd;fill:rgb(78.823529%,78.039216%,76.078431%);fill-opacity:1;" d="M 25.433594 15.878906 C 25.546875 15.871094 25.65625 15.878906 25.769531 15.902344 C 25.5 16.367188 25.214844 16.824219 24.914062 17.269531 C 25.039062 17.015625 25.140625 16.753906 25.226562 16.480469 C 25.28125 16.289062 25.300781 16.097656 25.289062 15.902344 C 25.34375 15.910156 25.390625 15.902344 25.433594 15.878906 Z M 25.433594 15.878906 "/>
<path style=" stroke:none;fill-rule:evenodd;fill:rgb(70.588235%,69.803922%,67.843137%);fill-opacity:1;" d="M 23.390625 15.972656 C 23.453125 15.941406 23.515625 15.941406 23.582031 15.972656 C 23.566406 16.007812 23.542969 16.03125 23.511719 16.046875 C 23.476562 16.015625 23.433594 15.992188 23.390625 15.972656 Z M 23.390625 15.972656 "/>
<path style=" stroke:none;fill-rule:evenodd;fill:rgb(82.352941%,81.568627%,79.215686%);fill-opacity:1;" d="M 30.617188 16.671875 C 30.691406 16.757812 30.769531 16.839844 30.855469 16.921875 C 30.949219 16.980469 31.046875 17.03125 31.144531 17.078125 C 30.867188 17.613281 30.605469 18.15625 30.363281 18.710938 C 30.183594 19.039062 29.992188 19.359375 29.789062 19.671875 C 29.808594 19.488281 29.824219 19.304688 29.835938 19.117188 C 29.894531 18.746094 29.839844 18.394531 29.667969 18.0625 C 29.605469 17.964844 29.53125 17.882812 29.441406 17.8125 C 29.824219 17.417969 30.214844 17.035156 30.617188 16.671875 Z M 30.617188 16.671875 "/>
<path style=" stroke:none;fill-rule:evenodd;fill:rgb(76.862745%,76.078431%,73.72549%);fill-opacity:1;" d="M 17.390625 17.246094 C 17.375 17.191406 17.359375 17.132812 17.34375 17.078125 C 17.34375 17.054688 17.34375 17.03125 17.34375 17.007812 C 17.414062 16.992188 17.488281 16.988281 17.558594 16.996094 C 17.503906 17.082031 17.449219 17.164062 17.390625 17.246094 Z M 17.390625 17.246094 "/>
<path style=" stroke:none;fill-rule:evenodd;fill:rgb(41.176471%,40.784314%,39.607843%);fill-opacity:1;" d="M 17.34375 17.078125 C 17.359375 17.132812 17.375 17.191406 17.390625 17.246094 C 17.390625 17.261719 17.382812 17.269531 17.367188 17.269531 C 17.34375 17.207031 17.335938 17.144531 17.34375 17.078125 Z M 17.34375 17.078125 "/>
<path style=" stroke:none;fill-rule:evenodd;fill:rgb(78.431373%,77.647059%,75.294118%);fill-opacity:1;" d="M 14.871094 17.460938 C 14.914062 17.457031 14.953125 17.464844 14.992188 17.488281 C 14.867188 17.734375 14.742188 17.984375 14.617188 18.230469 C 14.59375 18.175781 14.574219 18.121094 14.558594 18.0625 C 14.644531 17.851562 14.75 17.652344 14.871094 17.460938 Z M 14.871094 17.460938 "/>
<path style=" stroke:none;fill-rule:evenodd;fill:rgb(72.941176%,72.156863%,70.196078%);fill-opacity:1;" d="M 21.902344 17.511719 C 21.921875 17.507812 21.9375 17.511719 21.953125 17.523438 C 21.863281 17.667969 21.78125 17.816406 21.699219 17.96875 C 21.710938 17.839844 21.730469 17.710938 21.757812 17.582031 C 21.8125 17.566406 21.863281 17.542969 21.902344 17.511719 Z M 21.902344 17.511719 "/>
<path style=" stroke:none;fill-rule:evenodd;fill:rgb(81.568627%,80.784314%,78.431373%);fill-opacity:1;" d="M 13.71875 17.582031 C 13.769531 17.574219 13.816406 17.582031 13.863281 17.605469 C 13.300781 18.84375 12.6875 20.050781 12.027344 21.230469 C 12.121094 20.824219 12.222656 20.414062 12.339844 20.007812 C 12.398438 19.71875 12.457031 19.433594 12.507812 19.144531 C 12.707031 18.644531 12.910156 18.148438 13.117188 17.65625 C 13.140625 17.648438 13.167969 17.640625 13.191406 17.628906 C 13.371094 17.617188 13.546875 17.601562 13.71875 17.582031 Z M 13.71875 17.582031 "/>
<path style=" stroke:none;fill-rule:evenodd;fill:rgb(39.215686%,38.823529%,38.039216%);fill-opacity:1;" d="M 23.03125 17.679688 C 23.03125 17.664062 23.042969 17.65625 23.054688 17.65625 C 23.085938 17.738281 23.085938 17.820312 23.054688 17.894531 C 23.0625 17.816406 23.054688 17.746094 23.03125 17.679688 Z M 23.03125 17.679688 "/>
<path style=" stroke:none;fill-rule:evenodd;fill:rgb(81.960784%,81.176471%,78.823529%);fill-opacity:1;" d="M 10.789062 21.6875 C 10.742188 21.671875 10.695312 21.65625 10.644531 21.640625 C 10.855469 20.785156 11.066406 19.929688 11.269531 19.070312 C 11.269531 19.027344 11.257812 18.988281 11.234375 18.949219 C 11.164062 18.882812 11.085938 18.820312 11.003906 18.769531 C 11.113281 18.550781 11.207031 18.320312 11.28125 18.085938 C 11.308594 17.992188 11.289062 17.90625 11.222656 17.835938 C 11.5625 17.761719 11.90625 17.710938 12.253906 17.679688 C 12.167969 17.882812 12.066406 18.085938 11.953125 18.277344 C 11.910156 18.390625 11.871094 18.5 11.832031 18.613281 C 11.601562 19.683594 11.300781 20.730469 10.933594 21.757812 C 10.890625 21.722656 10.84375 21.699219 10.789062 21.6875 Z M 10.789062 21.6875 "/>
<path style=" stroke:none;fill-rule:evenodd;fill:rgb(79.607843%,78.823529%,76.470588%);fill-opacity:1;" d="M 23.03125 17.679688 C 23.054688 17.746094 23.0625 17.816406 23.054688 17.894531 C 23.019531 18.128906 22.949219 18.355469 22.839844 18.566406 C 22.632812 18.6875 22.453125 18.839844 22.300781 19.023438 C 22.546875 18.582031 22.792969 18.132812 23.03125 17.679688 Z M 23.03125 17.679688 "/>
<path style=" stroke:none;fill-rule:evenodd;fill:rgb(81.568627%,80.784314%,78.431373%);fill-opacity:1;" d="M 9.277344 21.398438 C 9.253906 21.21875 9.246094 21.035156 9.253906 20.847656 C 9.308594 20.328125 9.449219 19.832031 9.671875 19.359375 C 9.839844 19.003906 10.023438 18.660156 10.226562 18.328125 C 10.25 18.25 10.265625 18.167969 10.273438 18.085938 C 10.421875 18.007812 10.578125 17.953125 10.742188 17.917969 C 10.558594 18.398438 10.355469 18.871094 10.128906 19.335938 C 9.875 20.039062 9.589844 20.726562 9.277344 21.398438 Z M 9.277344 21.398438 "/>
<path style=" stroke:none;fill-rule:evenodd;fill:rgb(66.666667%,65.882353%,63.921569%);fill-opacity:1;" d="M 20.007812 18.136719 C 20.042969 18.128906 20.074219 18.136719 20.101562 18.160156 C 20.015625 18.285156 19.929688 18.410156 19.851562 18.542969 C 19.902344 18.410156 19.953125 18.273438 20.007812 18.136719 Z M 20.007812 18.136719 "/>
<path style=" stroke:none;fill-rule:evenodd;fill:rgb(75.686275%,74.901961%,72.941176%);fill-opacity:1;" d="M 32.082031 18.519531 C 32.128906 18.519531 32.164062 18.542969 32.175781 18.589844 C 31.9375 19.148438 31.664062 19.683594 31.347656 20.199219 C 31.597656 19.644531 31.84375 19.085938 32.082031 18.519531 Z M 32.082031 18.519531 "/>
<path style=" stroke:none;fill-rule:evenodd;fill:rgb(80.784314%,80%,77.647059%);fill-opacity:1;" d="M 33.496094 18.710938 C 33.582031 19.082031 33.816406 19.238281 34.195312 19.179688 C 34.085938 19.378906 33.972656 19.574219 33.855469 19.765625 C 33.722656 19.519531 33.523438 19.351562 33.257812 19.261719 C 33.335938 19.078125 33.417969 18.894531 33.496094 18.710938 Z M 33.496094 18.710938 "/>
<path style=" stroke:none;fill-rule:evenodd;fill:rgb(77.647059%,76.862745%,74.901961%);fill-opacity:1;" d="M 9.15625 18.949219 C 9.175781 18.949219 9.191406 18.953125 9.207031 18.964844 C 9.085938 19.171875 8.988281 19.394531 8.90625 19.625 C 8.855469 19.457031 8.820312 19.289062 8.796875 19.117188 C 8.9375 19.105469 9.058594 19.046875 9.15625 18.949219 Z M 9.15625 18.949219 "/>
<path style=" stroke:none;fill-rule:evenodd;fill:rgb(79.607843%,78.823529%,76.470588%);fill-opacity:1;" d="M 16.09375 19.117188 C 16.160156 19.15625 16.226562 19.199219 16.285156 19.25 C 15.976562 19.785156 15.628906 20.292969 15.242188 20.773438 C 15.390625 20.4375 15.535156 20.09375 15.675781 19.742188 C 15.84375 19.554688 15.984375 19.347656 16.09375 19.117188 Z M 16.09375 19.117188 "/>
<path style=" stroke:none;fill-rule:evenodd;fill:rgb(81.960784%,81.176471%,78.823529%);fill-opacity:1;" d="M 21.519531 20.246094 C 21.535156 20.253906 21.542969 20.265625 21.542969 20.285156 C 21.484375 20.4375 21.445312 20.597656 21.421875 20.761719 C 21.4375 20.964844 21.472656 21.164062 21.53125 21.351562 C 20.425781 23.308594 19.097656 25.058594 17.546875 26.609375 C 18.648438 24.777344 19.78125 22.96875 20.957031 21.183594 C 21.15625 20.878906 21.34375 20.566406 21.519531 20.246094 Z M 21.519531 20.246094 "/>
<path style=" stroke:none;fill-rule:evenodd;fill:rgb(78.431373%,77.647059%,75.294118%);fill-opacity:1;" d="M 24.113281 20.632812 C 24.214844 20.667969 24.316406 20.699219 24.425781 20.726562 C 24.28125 20.921875 24.132812 21.117188 23.980469 21.304688 C 24.023438 21.082031 24.070312 20.859375 24.113281 20.632812 Z M 24.113281 20.632812 "/>
<path style=" stroke:none;fill-rule:evenodd;fill:rgb(81.176471%,80.392157%,78.039216%);fill-opacity:1;" d="M 32.609375 20.824219 C 32.457031 21.367188 32.246094 21.894531 31.972656 22.40625 C 31.804688 22.574219 31.636719 22.742188 31.46875 22.910156 C 30.949219 23.527344 30.429688 24.144531 29.910156 24.761719 C 29.859375 24.820312 29.800781 24.871094 29.730469 24.902344 C 29.703125 24.890625 29.699219 24.875 29.714844 24.855469 C 30.585938 23.644531 31.425781 22.410156 32.238281 21.160156 C 32.359375 21.042969 32.484375 20.933594 32.609375 20.824219 Z M 32.609375 20.824219 "/>
<path style=" stroke:none;fill-rule:evenodd;fill:rgb(53.72549%,53.333333%,51.764706%);fill-opacity:1;" d="M 9.253906 20.847656 C 9.246094 21.035156 9.253906 21.21875 9.277344 21.398438 C 9.277344 21.414062 9.269531 21.421875 9.253906 21.421875 C 9.222656 21.226562 9.222656 21.035156 9.253906 20.847656 Z M 9.253906 20.847656 "/>
<path style=" stroke:none;fill-rule:evenodd;fill:rgb(81.568627%,80.784314%,78.431373%);fill-opacity:1;" d="M 34.195312 21.113281 C 34.203125 21.289062 34.269531 21.445312 34.386719 21.578125 C 34.710938 21.773438 34.964844 21.707031 35.140625 21.375 C 35.160156 21.339844 35.179688 21.332031 35.203125 21.351562 C 35.085938 21.621094 35 21.902344 34.949219 22.191406 C 34.765625 22.449219 34.59375 22.710938 34.433594 22.984375 C 34.390625 22.964844 34.367188 22.933594 34.363281 22.886719 C 34.414062 22.777344 34.457031 22.667969 34.492188 22.550781 C 34.535156 22.316406 34.46875 22.121094 34.289062 21.964844 C 34.191406 21.910156 34.085938 21.894531 33.976562 21.914062 C 33.761719 22.011719 33.566406 22.132812 33.390625 22.289062 C 33.5 21.992188 33.621094 21.695312 33.75 21.398438 C 33.777344 21.328125 33.796875 21.257812 33.808594 21.183594 C 33.898438 21.1875 33.984375 21.183594 34.074219 21.171875 C 34.121094 21.164062 34.160156 21.140625 34.195312 21.113281 Z M 34.195312 21.113281 "/>
<path style=" stroke:none;fill-rule:evenodd;fill:rgb(81.568627%,80.784314%,78.431373%);fill-opacity:1;" d="M 16.742188 25.886719 C 16.695312 25.871094 16.648438 25.855469 16.597656 25.839844 C 17.007812 25.027344 17.460938 24.246094 17.953125 23.488281 C 18.15625 23.171875 18.292969 22.824219 18.363281 22.457031 C 18.378906 22.332031 18.371094 22.210938 18.339844 22.09375 C 18.660156 21.792969 18.964844 21.472656 19.25 21.136719 C 19.195312 21.332031 19.160156 21.539062 19.144531 21.746094 C 19.152344 21.847656 19.164062 21.949219 19.179688 22.046875 C 18.363281 23.304688 17.574219 24.582031 16.816406 25.875 C 16.792969 25.886719 16.769531 25.890625 16.742188 25.886719 Z M 16.742188 25.886719 "/>
<use xlink:href="#surface15" mask="url(#mask3)"/>
<path style=" stroke:none;fill-rule:evenodd;fill:rgb(79.215686%,78.431373%,76.470588%);fill-opacity:1;" d="M 27.953125 21.207031 C 27.910156 21.449219 27.839844 21.691406 27.738281 21.925781 C 27.59375 21.941406 27.457031 21.96875 27.328125 22.011719 C 27.539062 21.746094 27.746094 21.476562 27.953125 21.207031 Z M 27.953125 21.207031 "/>
<path style=" stroke:none;fill-rule:evenodd;fill:rgb(76.078431%,75.294118%,73.333333%);fill-opacity:1;" d="M 37.027344 21.375 C 37.097656 21.484375 37.160156 21.601562 37.21875 21.722656 C 37.195312 21.734375 37.175781 21.746094 37.15625 21.757812 C 37.09375 21.695312 37.027344 21.636719 36.953125 21.589844 C 36.992188 21.523438 37.015625 21.453125 37.027344 21.375 Z M 37.027344 21.375 "/>
<path style=" stroke:none;fill-rule:evenodd;fill:rgb(30.588235%,30.196078%,29.411765%);fill-opacity:1;" d="M 10.644531 21.640625 C 10.695312 21.65625 10.742188 21.671875 10.789062 21.6875 C 10.730469 21.695312 10.675781 21.6875 10.621094 21.664062 C 10.625 21.648438 10.632812 21.640625 10.644531 21.640625 Z M 10.644531 21.640625 "/>
<path style=" stroke:none;fill-rule:evenodd;fill:rgb(72.156863%,71.372549%,69.411765%);fill-opacity:1;" d="M 17.460938 21.449219 C 17.503906 21.609375 17.523438 21.777344 17.523438 21.953125 C 17.492188 22.007812 17.453125 22.054688 17.402344 22.09375 C 17.425781 21.976562 17.445312 21.859375 17.460938 21.734375 C 17.460938 21.664062 17.445312 21.597656 17.414062 21.53125 C 17.433594 21.503906 17.449219 21.476562 17.460938 21.449219 Z M 17.460938 21.449219 "/>
<path style=" stroke:none;fill-rule:evenodd;fill:rgb(76.470588%,75.686275%,73.72549%);fill-opacity:1;" d="M 29.226562 21.757812 C 29.246094 21.757812 29.261719 21.765625 29.273438 21.785156 C 29.195312 21.9375 29.097656 22.074219 28.972656 22.191406 C 28.992188 22.078125 29.027344 21.96875 29.070312 21.855469 C 29.125 21.824219 29.175781 21.792969 29.226562 21.757812 Z M 29.226562 21.757812 "/>
<path style=" stroke:none;fill-rule:evenodd;fill:rgb(58.823529%,58.431373%,56.862745%);fill-opacity:1;" d="M 9.925781 22.046875 C 9.929688 22.015625 9.921875 21.992188 9.902344 21.976562 C 9.957031 21.714844 10.023438 21.460938 10.105469 21.207031 C 10.054688 21.492188 9.996094 21.773438 9.925781 22.046875 Z M 9.925781 22.046875 "/>
<path style=" stroke:none;fill-rule:evenodd;fill:rgb(81.960784%,81.176471%,78.823529%);fill-opacity:1;" d="M 15.542969 21.902344 C 15.5625 22.003906 15.574219 22.105469 15.578125 22.214844 C 15.605469 22.308594 15.65625 22.386719 15.722656 22.457031 C 15.738281 22.480469 15.738281 22.503906 15.722656 22.527344 C 15.5625 22.777344 15.410156 23.035156 15.265625 23.296875 C 14.890625 24.058594 14.496094 24.804688 14.078125 25.539062 C 14.046875 25.550781 14.015625 25.554688 13.980469 25.550781 C 14.074219 25.269531 14.140625 24.980469 14.1875 24.6875 C 14.265625 24.242188 14.132812 23.878906 13.789062 23.597656 C 13.722656 23.566406 13.648438 23.542969 13.574219 23.535156 C 13.472656 23.550781 13.378906 23.570312 13.285156 23.597656 C 13.417969 23.382812 13.550781 23.171875 13.683594 22.960938 C 13.804688 23.183594 13.992188 23.265625 14.246094 23.210938 C 14.566406 23.035156 14.839844 22.808594 15.074219 22.527344 C 15.234375 22.324219 15.390625 22.113281 15.542969 21.902344 Z M 15.542969 21.902344 "/>
<path style=" stroke:none;fill-rule:evenodd;fill:rgb(75.686275%,74.901961%,72.941176%);fill-opacity:1;" d="M 9.902344 21.976562 C 9.921875 21.992188 9.929688 22.015625 9.925781 22.046875 C 9.886719 22.457031 9.84375 22.863281 9.792969 23.273438 C 9.730469 22.832031 9.769531 22.398438 9.902344 21.976562 Z M 9.902344 21.976562 "/>
<path style=" stroke:none;fill-rule:evenodd;fill:rgb(68.235294%,67.45098%,65.882353%);fill-opacity:1;" d="M 13.261719 22.023438 C 13.28125 22.019531 13.296875 22.023438 13.308594 22.035156 C 13.207031 22.199219 13.105469 22.363281 13.011719 22.527344 C 13.039062 22.40625 13.078125 22.285156 13.128906 22.167969 C 13.195312 22.136719 13.238281 22.089844 13.261719 22.023438 Z M 13.261719 22.023438 "/>
<path style=" stroke:none;fill-rule:evenodd;fill:rgb(80%,79.215686%,77.254902%);fill-opacity:1;" d="M 22.3125 22.503906 C 22.324219 22.503906 22.332031 22.511719 22.335938 22.527344 C 21.964844 23.363281 21.570312 24.1875 21.148438 25 C 21.03125 25.261719 20.917969 25.527344 20.8125 25.792969 C 20.539062 26.046875 20.265625 26.304688 19.996094 26.558594 C 20.753906 25.203125 21.527344 23.851562 22.3125 22.503906 Z M 22.3125 22.503906 "/>
<path style=" stroke:none;fill-rule:evenodd;fill:rgb(81.176471%,80.392157%,78.039216%);fill-opacity:1;" d="M 11.511719 23.367188 C 11.527344 23.363281 11.542969 23.367188 11.558594 23.378906 C 11.324219 23.859375 11.199219 24.367188 11.1875 24.902344 C 11.101562 25.113281 10.996094 25.316406 10.875 25.503906 C 10.769531 25.609375 10.714844 25.585938 10.707031 25.433594 C 10.691406 25.246094 10.691406 25.0625 10.707031 24.878906 C 10.773438 24.402344 10.863281 23.929688 10.980469 23.464844 C 11.085938 23.488281 11.1875 23.492188 11.292969 23.476562 C 11.378906 23.460938 11.449219 23.425781 11.511719 23.367188 Z M 11.511719 23.367188 "/>
<path style=" stroke:none;fill-rule:evenodd;fill:rgb(40%,39.215686%,38.431373%);fill-opacity:1;" d="M 25.914062 23.945312 C 25.910156 23.914062 25.921875 23.890625 25.949219 23.871094 C 25.960938 23.90625 25.949219 23.933594 25.914062 23.945312 Z M 25.914062 23.945312 "/>
<path style=" stroke:none;fill-rule:evenodd;fill:rgb(80.392157%,79.607843%,77.647059%);fill-opacity:1;" d="M 10.214844 23.96875 C 10.175781 24.25 10.121094 24.539062 10.058594 24.832031 C 9.984375 25.195312 10.015625 25.546875 10.152344 25.886719 C 10.226562 25.988281 10.308594 26.074219 10.40625 26.152344 C 10.324219 26.300781 10.246094 26.453125 10.175781 26.609375 C 10.050781 26.109375 9.914062 25.613281 9.769531 25.121094 C 9.695312 24.746094 9.636719 24.371094 9.589844 23.992188 C 9.675781 24 9.746094 24.035156 9.804688 24.101562 C 9.921875 24.148438 10.03125 24.140625 10.140625 24.074219 C 10.179688 24.046875 10.203125 24.011719 10.214844 23.96875 Z M 10.214844 23.96875 "/>
<path style=" stroke:none;fill-rule:evenodd;fill:rgb(78.823529%,78.039216%,75.686275%);fill-opacity:1;" d="M 25.914062 23.945312 C 25.511719 24.613281 25.113281 25.289062 24.710938 25.960938 C 24.695312 25.921875 24.679688 25.878906 24.664062 25.839844 C 24.660156 25.765625 24.65625 25.695312 24.652344 25.625 C 25.070312 25.058594 25.488281 24.5 25.914062 23.945312 Z M 25.914062 23.945312 "/>
<path style=" stroke:none;fill-rule:evenodd;fill:rgb(81.568627%,80.784314%,78.431373%);fill-opacity:1;" d="M 23.847656 24.449219 C 23.871094 24.457031 23.875 24.472656 23.859375 24.496094 C 23.628906 24.847656 23.394531 25.199219 23.164062 25.550781 C 23.105469 25.648438 23.066406 25.753906 23.042969 25.863281 C 22.691406 26.382812 22.332031 26.894531 21.964844 27.398438 C 21.9375 27.429688 21.910156 27.453125 21.878906 27.472656 C 21.730469 27.296875 21.546875 27.238281 21.328125 27.292969 C 21.097656 27.429688 20.882812 27.59375 20.691406 27.785156 C 20.730469 27.65625 20.777344 27.527344 20.835938 27.398438 C 20.933594 27.300781 21.035156 27.199219 21.136719 27.101562 C 21.421875 27.113281 21.632812 26.996094 21.769531 26.753906 C 21.871094 26.5625 21.972656 26.378906 22.082031 26.199219 C 22.683594 25.628906 23.273438 25.042969 23.847656 24.449219 Z M 23.847656 24.449219 "/>
<path style=" stroke:none;fill-rule:evenodd;fill:rgb(76.862745%,76.078431%,74.117647%);fill-opacity:1;" d="M 34.363281 25.550781 C 34.386719 25.546875 34.410156 25.550781 34.433594 25.5625 C 34.300781 25.695312 34.167969 25.828125 34.039062 25.960938 C 34.066406 25.839844 34.105469 25.71875 34.15625 25.601562 C 34.226562 25.585938 34.296875 25.570312 34.363281 25.550781 Z M 34.363281 25.550781 "/>
<path style=" stroke:none;fill-rule:evenodd;fill:rgb(43.921569%,43.529412%,42.352941%);fill-opacity:1;" d="M 24.664062 25.839844 C 24.679688 25.878906 24.695312 25.921875 24.710938 25.960938 C 24.707031 25.980469 24.691406 25.996094 24.675781 26.007812 C 24.664062 25.953125 24.660156 25.898438 24.664062 25.839844 Z M 24.664062 25.839844 "/>
<path style=" stroke:none;fill-rule:evenodd;fill:rgb(40%,39.607843%,38.431373%);fill-opacity:1;" d="M 16.597656 25.839844 C 16.648438 25.855469 16.695312 25.871094 16.742188 25.886719 C 16.683594 25.894531 16.628906 25.886719 16.574219 25.863281 C 16.578125 25.847656 16.585938 25.839844 16.597656 25.839844 Z M 16.597656 25.839844 "/>
<path style=" stroke:none;fill-rule:evenodd;fill:rgb(81.568627%,80.784314%,78.431373%);fill-opacity:1;" d="M 31.984375 25.863281 C 32.011719 25.949219 32.015625 26.035156 31.996094 26.128906 C 31.097656 27.390625 30.152344 28.613281 29.152344 29.800781 C 29.113281 29.734375 29.058594 29.675781 28.996094 29.632812 C 28.988281 29.597656 28.996094 29.566406 29.019531 29.535156 C 29.492188 28.964844 29.925781 28.367188 30.316406 27.738281 C 30.878906 27.117188 31.433594 26.492188 31.984375 25.863281 Z M 31.984375 25.863281 "/>
<path style=" stroke:none;fill-rule:evenodd;fill:rgb(74.901961%,74.117647%,72.156863%);fill-opacity:1;" d="M 39.304688 26.007812 C 39.367188 26.082031 39.417969 26.164062 39.449219 26.261719 C 39.390625 26.320312 39.324219 26.371094 39.246094 26.417969 C 39.269531 26.28125 39.292969 26.148438 39.304688 26.007812 Z M 39.304688 26.007812 "/>
<path style=" stroke:none;fill-rule:evenodd;fill:rgb(81.176471%,80.392157%,78.039216%);fill-opacity:1;" d="M 36.160156 26.367188 C 36.175781 26.375 36.183594 26.386719 36.1875 26.402344 C 36.167969 26.449219 36.148438 26.492188 36.125 26.535156 C 35.410156 27.460938 34.65625 28.355469 33.871094 29.226562 C 33.886719 29.167969 33.910156 29.113281 33.941406 29.058594 C 34.472656 28.210938 34.996094 27.363281 35.515625 26.511719 C 35.773438 26.671875 35.992188 26.625 36.160156 26.367188 Z M 36.160156 26.367188 "/>
<path style=" stroke:none;fill-rule:evenodd;fill:rgb(81.568627%,80.784314%,78.431373%);fill-opacity:1;" d="M 32.632812 26.847656 C 32.660156 26.867188 32.664062 26.890625 32.644531 26.921875 C 32.425781 27.433594 32.183594 27.9375 31.925781 28.433594 C 31.441406 29.257812 30.945312 30.074219 30.4375 30.882812 C 30.351562 31.039062 30.328125 31.207031 30.363281 31.386719 C 30.207031 31.480469 30.0625 31.589844 29.933594 31.722656 C 30.074219 31.464844 30.207031 31.199219 30.339844 30.929688 C 30.460938 30.644531 30.503906 30.347656 30.460938 30.039062 C 30.410156 29.9375 30.355469 29.839844 30.292969 29.753906 C 31.085938 28.792969 31.867188 27.828125 32.632812 26.847656 Z M 32.632812 26.847656 "/>
<path style=" stroke:none;fill-rule:evenodd;fill:rgb(40.784314%,40.392157%,39.215686%);fill-opacity:1;" d="M 38.058594 27.113281 C 38.074219 27.050781 38.101562 26.996094 38.140625 26.945312 C 38.140625 27.011719 38.113281 27.070312 38.058594 27.113281 Z M 38.058594 27.113281 "/>
<path style=" stroke:none;fill-rule:evenodd;fill:rgb(81.960784%,81.176471%,78.823529%);fill-opacity:1;" d="M 29.152344 27.398438 C 29.242188 27.394531 29.328125 27.402344 29.417969 27.425781 C 28.902344 28.003906 28.394531 28.589844 27.890625 29.175781 C 27.621094 29.503906 27.394531 29.867188 27.21875 30.257812 C 27.175781 30.527344 27.277344 30.722656 27.519531 30.84375 C 27.445312 30.914062 27.375 30.988281 27.316406 31.074219 C 27.296875 30.511719 27.011719 30.289062 26.464844 30.402344 C 27.195312 29.367188 27.988281 28.378906 28.839844 27.4375 C 28.949219 27.433594 29.054688 27.421875 29.152344 27.398438 Z M 29.152344 27.398438 "/>
<path style=" stroke:none;fill-rule:evenodd;fill:rgb(81.960784%,81.176471%,78.823529%);fill-opacity:1;" d="M 36.328125 27.398438 C 36.40625 27.390625 36.445312 27.425781 36.4375 27.496094 C 36.363281 27.667969 36.285156 27.835938 36.199219 28 C 36.050781 28.203125 35.921875 28.421875 35.8125 28.648438 C 35.699219 28.871094 35.707031 29.089844 35.835938 29.296875 C 35.890625 29.347656 35.953125 29.394531 36.019531 29.429688 C 35.695312 29.816406 35.371094 30.203125 35.046875 30.59375 C 35.074219 30.308594 35.015625 30.050781 34.867188 29.8125 C 34.742188 29.726562 34.609375 29.679688 34.457031 29.667969 C 35.105469 28.929688 35.730469 28.171875 36.328125 27.398438 Z M 36.328125 27.398438 "/>
<path style=" stroke:none;fill-rule:evenodd;fill:rgb(82.352941%,81.568627%,79.215686%);fill-opacity:1;" d="M 18.375 27.425781 C 18.390625 27.433594 18.398438 27.449219 18.398438 27.472656 C 18.296875 27.738281 18.355469 27.960938 18.566406 28.144531 C 17.78125 29.054688 17.007812 29.972656 16.25 30.90625 C 16.1875 30.875 16.164062 30.828125 16.179688 30.761719 C 16.421875 30.199219 16.648438 29.632812 16.851562 29.058594 C 17.363281 28.515625 17.871094 27.972656 18.375 27.425781 Z M 18.375 27.425781 "/>
<path style=" stroke:none;fill-rule:evenodd;fill:rgb(61.568627%,60.784314%,58.823529%);fill-opacity:1;" d="M 11.988281 27.398438 C 12.019531 27.449219 12.007812 27.488281 11.953125 27.519531 C 11.949219 27.476562 11.964844 27.4375 11.988281 27.398438 Z M 11.988281 27.398438 "/>
<path style=" stroke:none;fill-rule:evenodd;fill:rgb(81.568627%,80.784314%,78.431373%);fill-opacity:1;" d="M 38.058594 27.113281 C 37.980469 27.273438 37.898438 27.433594 37.804688 27.59375 C 37.652344 27.890625 37.613281 28.203125 37.6875 28.527344 C 37.816406 28.785156 38.011719 28.859375 38.273438 28.757812 C 38.507812 28.625 38.707031 28.453125 38.875 28.242188 C 38.960938 28.597656 39.179688 28.710938 39.523438 28.589844 C 39.703125 28.511719 39.855469 28.40625 39.992188 28.265625 C 39.996094 28.425781 39.960938 28.578125 39.882812 28.71875 C 39.671875 28.648438 39.472656 28.679688 39.28125 28.804688 C 39.09375 28.933594 38.933594 29.089844 38.800781 29.273438 C 38.6875 29.027344 38.496094 28.925781 38.226562 28.972656 C 37.820312 29.152344 37.507812 29.4375 37.289062 29.824219 C 37.273438 29.738281 37.257812 29.648438 37.242188 29.5625 C 37.25 29.242188 37.105469 29.035156 36.808594 28.9375 C 36.882812 28.835938 36.957031 28.742188 37.039062 28.648438 C 37.371094 28.128906 37.710938 27.617188 38.058594 27.113281 Z M 38.058594 27.113281 "/>
<path style=" stroke:none;fill-rule:evenodd;fill:rgb(82.352941%,81.568627%,79.215686%);fill-opacity:1;" d="M 23.054688 27.664062 C 23.070312 27.671875 23.078125 27.683594 23.078125 27.699219 C 22.949219 28.078125 22.808594 28.449219 22.660156 28.816406 C 22.28125 29.585938 21.917969 30.359375 21.578125 31.144531 C 21.570312 31.308594 21.609375 31.460938 21.699219 31.601562 C 21.714844 31.671875 21.722656 31.746094 21.722656 31.816406 C 21.507812 31.949219 21.316406 32.109375 21.148438 32.296875 C 21.003906 32.488281 20.859375 32.679688 20.714844 32.875 C 20.6875 32.910156 20.652344 32.925781 20.605469 32.921875 C 20.660156 32.632812 20.664062 32.347656 20.621094 32.058594 C 20.5625 31.9375 20.472656 31.863281 20.34375 31.839844 C 20.761719 31.050781 21.207031 30.277344 21.675781 29.511719 C 22.136719 28.894531 22.597656 28.28125 23.054688 27.664062 Z M 23.054688 27.664062 "/>
<path style=" stroke:none;fill-rule:evenodd;fill:rgb(61.568627%,60.784314%,59.215686%);fill-opacity:1;" d="M 26.632812 27.90625 C 26.652344 27.902344 26.667969 27.910156 26.679688 27.929688 C 26.644531 28.019531 26.628906 28.011719 26.632812 27.90625 Z M 26.632812 27.90625 "/>
<path style=" stroke:none;fill-rule:evenodd;fill:rgb(40.784314%,40.392157%,39.215686%);fill-opacity:1;" d="M 33.570312 28.097656 C 33.570312 28.066406 33.582031 28.042969 33.605469 28.023438 C 33.621094 28.058594 33.605469 28.085938 33.570312 28.097656 Z M 33.570312 28.097656 "/>
<path style=" stroke:none;fill-rule:evenodd;fill:rgb(49.803922%,49.411765%,48.235294%);fill-opacity:1;" d="M 33.570312 28.097656 C 33.570312 28.132812 33.554688 28.15625 33.519531 28.167969 C 33.519531 28.132812 33.535156 28.109375 33.570312 28.097656 Z M 33.570312 28.097656 "/>
<path style=" stroke:none;fill-rule:evenodd;fill:rgb(80%,79.215686%,77.254902%);fill-opacity:1;" d="M 15.398438 28.503906 C 15.492188 28.550781 15.589844 28.59375 15.6875 28.636719 C 15.363281 28.992188 15.023438 29.332031 14.667969 29.65625 C 14.902344 29.273438 15.148438 28.886719 15.398438 28.503906 Z M 15.398438 28.503906 "/>
<path style=" stroke:none;fill-rule:evenodd;fill:rgb(81.176471%,80.392157%,78.039216%);fill-opacity:1;" d="M 10.742188 28.578125 C 10.863281 28.578125 10.984375 28.597656 11.101562 28.636719 C 10.855469 29.015625 10.683594 29.429688 10.585938 29.871094 C 10.53125 29.457031 10.488281 29.042969 10.453125 28.625 C 10.554688 28.628906 10.652344 28.613281 10.742188 28.578125 Z M 10.742188 28.578125 "/>
<path style=" stroke:none;fill-rule:evenodd;fill:rgb(78.823529%,78.039216%,76.078431%);fill-opacity:1;" d="M 33.519531 28.167969 C 33.09375 28.890625 32.648438 29.601562 32.1875 30.304688 C 32.050781 30.535156 31.921875 30.765625 31.792969 31 C 31.507812 31.164062 31.269531 31.382812 31.074219 31.648438 C 31.046875 31.628906 31.042969 31.605469 31.0625 31.578125 C 31.164062 31.480469 31.261719 31.375 31.347656 31.265625 C 31.558594 30.929688 31.765625 30.59375 31.972656 30.257812 C 32.496094 29.5625 33.011719 28.867188 33.519531 28.167969 Z M 33.519531 28.167969 "/>
<path style=" stroke:none;fill-rule:evenodd;fill:rgb(79.607843%,78.823529%,76.862745%);fill-opacity:1;" d="M 12.351562 29.199219 C 12.425781 29.230469 12.507812 29.246094 12.589844 29.25 C 12.59375 29.464844 12.589844 29.679688 12.578125 29.898438 C 12.496094 30.019531 12.421875 30.148438 12.351562 30.28125 C 12.257812 30.238281 12.164062 30.222656 12.0625 30.234375 C 12.1875 29.898438 12.28125 29.554688 12.351562 29.199219 Z M 12.351562 29.199219 "/>
<path style=" stroke:none;fill-rule:evenodd;fill:rgb(81.568627%,80.784314%,78.431373%);fill-opacity:1;" d="M 25.046875 29.34375 C 25.0625 29.351562 25.070312 29.363281 25.070312 29.378906 C 24.914062 29.84375 24.820312 30.320312 24.796875 30.808594 C 24.683594 30.960938 24.601562 31.128906 24.554688 31.3125 C 24.195312 31.679688 23.910156 32.09375 23.691406 32.5625 C 23.644531 32.636719 23.585938 32.699219 23.511719 32.753906 C 23.476562 32.722656 23.4375 32.699219 23.390625 32.679688 C 23.367188 32.660156 23.363281 32.636719 23.378906 32.609375 C 23.78125 31.890625 24.097656 31.136719 24.339844 30.351562 C 24.582031 30.019531 24.816406 29.683594 25.046875 29.34375 Z M 25.046875 29.34375 "/>
<path style=" stroke:none;fill-rule:evenodd;fill:rgb(31.764706%,31.372549%,30.196078%);fill-opacity:1;" d="M 37.242188 29.5625 C 37.257812 29.648438 37.273438 29.738281 37.289062 29.824219 C 37.285156 29.84375 37.269531 29.859375 37.253906 29.871094 C 37.242188 29.769531 37.238281 29.664062 37.242188 29.5625 Z M 37.242188 29.5625 "/>
<path style=" stroke:none;fill-rule:evenodd;fill:rgb(74.117647%,73.333333%,71.372549%);fill-opacity:1;" d="M 40.960938 29.585938 C 40.988281 29.582031 41.007812 29.589844 41.023438 29.609375 C 41.039062 29.660156 41.058594 29.714844 41.082031 29.765625 C 41.066406 29.796875 41.042969 29.816406 41.011719 29.824219 C 40.972656 29.765625 40.941406 29.699219 40.914062 29.632812 C 40.933594 29.617188 40.949219 29.601562 40.960938 29.585938 Z M 40.960938 29.585938 "/>
<path style=" stroke:none;fill-rule:evenodd;fill:rgb(82.352941%,81.568627%,79.215686%);fill-opacity:1;" d="M 13.671875 33.882812 C 13.652344 33.785156 13.636719 33.6875 13.621094 33.59375 C 13.625 33.242188 13.503906 32.941406 13.261719 32.691406 C 12.976562 32.535156 12.703125 32.558594 12.445312 32.765625 C 12.378906 32.832031 12.308594 32.902344 12.242188 32.96875 C 12.328125 32.574219 12.429688 32.183594 12.554688 31.792969 C 12.691406 31.785156 12.824219 31.75 12.949219 31.683594 C 13.035156 31.597656 13.121094 31.515625 13.203125 31.433594 C 13.296875 31.488281 13.394531 31.519531 13.503906 31.527344 C 14.011719 31.414062 14.476562 31.203125 14.894531 30.894531 C 14.910156 30.875 14.925781 30.875 14.941406 30.894531 C 14.636719 31.558594 14.375 32.242188 14.164062 32.945312 C 13.984375 33.25 13.820312 33.5625 13.671875 33.882812 Z M 13.671875 33.882812 "/>
<path style=" stroke:none;fill-rule:evenodd;fill:rgb(80.784314%,80%,77.647059%);fill-opacity:1;" d="M 35.824219 31.050781 C 35.839844 31.054688 35.847656 31.066406 35.851562 31.085938 C 35.785156 31.324219 35.765625 31.570312 35.789062 31.816406 C 35.894531 32.101562 36.097656 32.21875 36.402344 32.164062 C 36.566406 32.125 36.71875 32.054688 36.859375 31.960938 C 36.878906 32 36.890625 32.039062 36.882812 32.082031 C 36.300781 32.214844 35.722656 32.371094 35.152344 32.550781 C 35.058594 32.574219 34.960938 32.59375 34.867188 32.597656 C 35.171875 32.070312 35.492188 31.554688 35.824219 31.050781 Z M 35.824219 31.050781 "/>
<path style=" stroke:none;fill-rule:evenodd;fill:rgb(38.823529%,38.431373%,37.254902%);fill-opacity:1;" d="M 19.457031 31.242188 C 19.453125 31.210938 19.464844 31.1875 19.492188 31.167969 C 19.503906 31.203125 19.492188 31.230469 19.457031 31.242188 Z M 19.457031 31.242188 "/>
<path style=" stroke:none;fill-rule:evenodd;fill:rgb(46.666667%,46.27451%,45.098039%);fill-opacity:1;" d="M 19.457031 31.242188 C 19.457031 31.277344 19.441406 31.300781 19.40625 31.3125 C 19.40625 31.277344 19.421875 31.253906 19.457031 31.242188 Z M 19.457031 31.242188 "/>
<path style=" stroke:none;fill-rule:evenodd;fill:rgb(63.529412%,62.745098%,61.176471%);fill-opacity:1;" d="M 19.40625 31.3125 C 19.328125 31.476562 19.234375 31.628906 19.117188 31.769531 C 19.101562 31.769531 19.085938 31.769531 19.070312 31.769531 C 19.183594 31.617188 19.296875 31.464844 19.40625 31.3125 Z M 19.40625 31.3125 "/>
<path style=" stroke:none;fill-rule:evenodd;fill:rgb(81.176471%,80.392157%,78.039216%);fill-opacity:1;" d="M 10.886719 31.769531 C 11.035156 31.898438 11.210938 31.964844 11.414062 31.960938 C 11.320312 32.308594 11.21875 32.652344 11.101562 32.992188 C 11.019531 32.585938 10.945312 32.179688 10.886719 31.769531 Z M 10.886719 31.769531 "/>
<path style=" stroke:none;fill-rule:evenodd;fill:rgb(81.568627%,80.784314%,78.823529%);fill-opacity:1;" d="M 19.070312 31.769531 C 19.085938 31.769531 19.101562 31.769531 19.117188 31.769531 C 19.003906 32.097656 19.109375 32.324219 19.429688 32.453125 C 19.269531 32.617188 19.09375 32.757812 18.902344 32.886719 C 18.800781 32.976562 18.710938 33.078125 18.628906 33.183594 C 18.585938 33 18.503906 32.839844 18.375 32.707031 C 18.597656 32.386719 18.832031 32.074219 19.070312 31.769531 Z M 19.070312 31.769531 "/>
<path style=" stroke:none;fill-rule:evenodd;fill:rgb(78.823529%,78.039216%,75.686275%);fill-opacity:1;" d="M 33.472656 31.9375 C 33.484375 31.9375 33.496094 31.945312 33.496094 31.960938 C 33.316406 32.265625 33.207031 32.59375 33.160156 32.945312 C 32.953125 32.949219 32.746094 32.945312 32.539062 32.933594 C 32.921875 32.667969 33.234375 32.332031 33.472656 31.9375 Z M 33.472656 31.9375 "/>
<path style=" stroke:none;fill-rule:evenodd;fill:rgb(79.607843%,78.823529%,76.470588%);fill-opacity:1;" d="M 29.199219 33.089844 C 29.320312 33.15625 29.449219 33.214844 29.585938 33.257812 C 29.585938 33.289062 29.585938 33.320312 29.585938 33.351562 C 29.328125 33.382812 29.070312 33.410156 28.816406 33.4375 C 28.980469 33.359375 29.105469 33.242188 29.199219 33.089844 Z M 29.199219 33.089844 "/>
<path style=" stroke:none;fill-rule:evenodd;fill:rgb(81.568627%,80.784314%,78.431373%);fill-opacity:1;" d="M 25.40625 33.210938 C 25.414062 33.433594 25.480469 33.640625 25.601562 33.832031 C 25.167969 33.902344 24.738281 33.945312 24.304688 33.964844 C 24.34375 33.925781 24.382812 33.886719 24.425781 33.84375 C 24.800781 33.707031 25.128906 33.492188 25.40625 33.210938 Z M 25.40625 33.210938 "/>
<path style=" stroke:none;fill-rule:evenodd;fill:rgb(76.078431%,75.294118%,73.333333%);fill-opacity:1;" d="M 27.785156 33.449219 C 27.828125 33.488281 27.875 33.527344 27.929688 33.558594 C 27.828125 33.597656 27.722656 33.613281 27.617188 33.605469 C 27.683594 33.566406 27.742188 33.511719 27.785156 33.449219 Z M 27.785156 33.449219 "/>
<path style=" stroke:none;fill-rule:evenodd;fill:rgb(50.980392%,50.588235%,49.411765%);fill-opacity:1;" d="M 13.621094 33.59375 C 13.636719 33.6875 13.652344 33.785156 13.671875 33.882812 C 13.664062 33.898438 13.652344 33.917969 13.632812 33.929688 C 13.621094 33.816406 13.617188 33.707031 13.621094 33.59375 Z M 13.621094 33.59375 "/>
<path style=" stroke:none;fill-rule:evenodd;fill:rgb(78.039216%,77.254902%,75.294118%);fill-opacity:1;" d="M 19.625 33.714844 C 19.648438 33.710938 19.671875 33.714844 19.695312 33.726562 C 19.722656 33.765625 19.746094 33.8125 19.765625 33.855469 C 19.539062 33.949219 19.304688 34.027344 19.070312 34.085938 C 19.09375 34.039062 19.125 34 19.167969 33.964844 C 19.328125 33.894531 19.480469 33.808594 19.625 33.714844 Z M 19.625 33.714844 "/>
<path style=" stroke:none;fill-rule:evenodd;fill:rgb(47.45098%,46.666667%,45.490196%);fill-opacity:1;" d="M 26.632812 33.6875 C 26.664062 33.6875 26.6875 33.699219 26.703125 33.726562 C 26.601562 33.78125 26.578125 33.769531 26.632812 33.6875 Z M 26.632812 33.6875 "/>
<path style=" stroke:none;fill-rule:evenodd;fill:rgb(73.72549%,72.941176%,70.980392%);fill-opacity:1;" d="M 21.925781 34.050781 C 21.988281 34.058594 22.03125 34.09375 22.046875 34.15625 C 21.800781 34.199219 21.550781 34.230469 21.304688 34.253906 C 21.515625 34.191406 21.722656 34.125 21.925781 34.050781 Z M 21.925781 34.050781 "/>
<path style=" stroke:none;fill-rule:evenodd;fill:rgb(81.568627%,80.784314%,78.431373%);fill-opacity:1;" d="M 12.46875 34.480469 C 12.488281 34.613281 12.503906 34.75 12.519531 34.890625 C 12.222656 34.925781 11.925781 34.9375 11.628906 34.925781 C 11.535156 34.886719 11.464844 34.824219 11.414062 34.734375 C 11.8125 34.855469 12.164062 34.769531 12.46875 34.480469 Z M 12.46875 34.480469 "/>
<path style=" stroke:none;fill-rule:evenodd;fill:rgb(68.627451%,68.235294%,66.27451%);fill-opacity:1;" d="M 16.3125 34.9375 C 16.34375 34.953125 16.367188 34.976562 16.382812 35.007812 C 16.320312 35.042969 16.257812 35.058594 16.191406 35.046875 C 16.242188 35.019531 16.28125 34.984375 16.3125 34.9375 Z M 16.3125 34.9375 "/>
</g>
</svg>
