<?xml version="1.0" encoding="UTF-8"?>
<svg xmlns="http://www.w3.org/2000/svg" xmlns:xlink="http://www.w3.org/1999/xlink" width="50pt" height="50pt" viewBox="0 0 50 50" version="1.1">
<defs>
<filter id="alpha" filterUnits="objectBoundingBox" x="0%" y="0%" width="100%" height="100%">
  <feColorMatrix type="matrix" in="SourceGraphic" values="0 0 0 0 1 0 0 0 0 1 0 0 0 0 1 0 0 0 1 0"/>
</filter>
<mask id="mask0">
  <g filter="url(#alpha)">
<rect x="0" y="0" width="50" height="50" style="fill:rgb(0%,0%,0%);fill-opacity:0.972549;stroke:none;"/>
  </g>
</mask>
<clipPath id="clip1">
  <rect width="50" height="50"/>
</clipPath>
<g id="surface6" clip-path="url(#clip1)">
<path style=" stroke:none;fill-rule:evenodd;fill:rgb(10.196078%,10.196078%,9.803922%);fill-opacity:1;" d="M 21.808594 3.382812 C 22.660156 3.730469 23.40625 4.242188 24.039062 4.917969 C 24.445312 5.484375 24.8125 6.078125 25.144531 6.695312 C 25.367188 6.964844 25.609375 7.222656 25.863281 7.460938 C 26.261719 8.484375 26.832031 9.398438 27.566406 10.195312 C 27.867188 10.457031 28.148438 10.746094 28.40625 11.058594 C 28.457031 11.410156 28.359375 11.714844 28.117188 11.972656 C 27.773438 12.316406 27.429688 12.660156 27.085938 13.003906 C 26.808594 13.238281 26.488281 13.398438 26.128906 13.484375 C 25.691406 13.523438 25.261719 13.515625 24.832031 13.460938 C 24.75 13.308594 24.769531 13.171875 24.878906 13.050781 C 25.320312 13.058594 25.753906 13.003906 26.175781 12.882812 C 26.207031 12.882812 26.222656 12.867188 26.222656 12.835938 C 26.496094 12.761719 26.722656 12.621094 26.894531 12.402344 C 26.925781 12.402344 26.945312 12.386719 26.945312 12.355469 C 27.335938 12.0625 27.65625 11.703125 27.902344 11.277344 C 27.761719 11.113281 27.601562 10.976562 27.421875 10.867188 C 26.988281 10.347656 26.582031 9.804688 26.199219 9.238281 C 25.929688 8.746094 25.675781 8.25 25.433594 7.75 C 25.105469 7.417969 24.808594 7.066406 24.542969 6.695312 C 24.851562 7.199219 25.066406 7.742188 25.191406 8.324219 C 25.246094 9.402344 25.195312 10.472656 25.046875 11.539062 C 24.8125 12.25 24.566406 12.953125 24.304688 13.652344 C 24.210938 14.011719 23.984375 14.195312 23.632812 14.203125 C 23.578125 14.148438 23.53125 14.09375 23.488281 14.035156 C 23.523438 13.976562 23.539062 13.914062 23.535156 13.84375 C 23.855469 13.527344 24.046875 13.144531 24.113281 12.691406 C 24.3125 12.257812 24.480469 11.808594 24.617188 11.347656 C 24.660156 10.582031 24.703125 9.8125 24.734375 9.046875 C 24.703125 7.671875 24.109375 6.59375 22.960938 5.804688 C 22.039062 5.214844 21.09375 5.164062 20.128906 5.664062 C 19.976562 5.757812 19.851562 5.878906 19.746094 6.023438 C 19.441406 6.386719 19.226562 6.804688 19.097656 7.269531 C 18.894531 8.542969 18.8125 9.820312 18.859375 11.109375 C 18.867188 11.539062 18.945312 11.957031 19.097656 12.355469 C 19.242188 12.523438 19.425781 12.59375 19.648438 12.570312 C 19.777344 12.714844 19.777344 12.859375 19.648438 13.003906 C 19.519531 13.011719 19.410156 13.050781 19.3125 13.125 C 18.992188 13.039062 18.761719 12.847656 18.617188 12.546875 C 18.394531 11.894531 18.308594 11.222656 18.355469 10.53125 C 18.300781 9.367188 18.398438 8.214844 18.640625 7.078125 C 18.953125 5.894531 19.707031 5.148438 20.898438 4.847656 C 20.078125 4.007812 19.136719 3.832031 18.066406 4.320312 C 18.023438 4.351562 17.992188 4.394531 17.96875 4.4375 C 17.9375 4.4375 17.921875 4.453125 17.921875 4.488281 C 17.890625 4.488281 17.875 4.503906 17.875 4.535156 C 17.84375 4.535156 17.828125 4.550781 17.828125 4.582031 C 17.488281 4.890625 17.230469 5.257812 17.058594 5.6875 C 17.027344 5.6875 17.011719 5.703125 17.011719 5.734375 C 17.011719 5.75 17.011719 5.765625 17.011719 5.78125 C 16.980469 5.78125 16.960938 5.796875 16.960938 5.832031 C 16.023438 7.742188 15.40625 9.757812 15.113281 11.875 C 14.941406 12.839844 14.566406 13.710938 13.988281 14.492188 C 14.015625 14.597656 14.078125 14.648438 14.179688 14.636719 C 14.769531 14.164062 15.394531 13.742188 16.050781 13.363281 C 16.089844 13.285156 16.121094 13.207031 16.148438 13.125 C 16.253906 13.085938 16.367188 13.0625 16.484375 13.050781 C 16.578125 12.921875 16.707031 12.84375 16.867188 12.8125 C 17.722656 12.808594 18.554688 12.945312 19.363281 13.21875 C 19.832031 13.445312 20.277344 13.710938 20.707031 14.011719 C 21.242188 14.445312 21.769531 14.882812 22.289062 15.332031 C 22.351562 15.425781 22.433594 15.507812 22.527344 15.570312 C 22.53125 15.417969 22.613281 15.328125 22.769531 15.308594 C 22.703125 15.246094 22.65625 15.175781 22.625 15.089844 C 22.625 14.996094 22.671875 14.945312 22.769531 14.945312 C 22.851562 15.003906 22.882812 14.972656 22.863281 14.851562 C 22.945312 14.84375 23.027344 14.851562 23.105469 14.875 C 23.589844 15.3125 24.0625 15.769531 24.519531 16.242188 C 24.464844 15.953125 24.390625 15.667969 24.304688 15.378906 C 24.308594 15.316406 24.324219 15.261719 24.351562 15.210938 C 24.453125 15.171875 24.546875 15.179688 24.640625 15.234375 C 25.25 16.132812 25.785156 17.074219 26.246094 18.066406 C 26.269531 17.832031 26.207031 17.621094 26.054688 17.441406 C 25.988281 17.160156 26.09375 16.984375 26.367188 16.914062 C 26.527344 16.9375 26.679688 16.988281 26.824219 17.058594 C 26.808594 16.847656 26.765625 16.640625 26.703125 16.433594 C 26.78125 16.242188 26.898438 16.207031 27.0625 16.339844 C 27.152344 16.625 27.222656 16.910156 27.277344 17.203125 C 29.386719 17.890625 31.53125 18.441406 33.710938 18.859375 C 34.425781 19.019531 35.144531 19.050781 35.867188 18.953125 C 36.328125 18.878906 36.703125 18.664062 36.996094 18.304688 C 37.207031 18.011719 37.367188 17.691406 37.476562 17.347656 C 37.777344 16.332031 38.050781 15.308594 38.292969 14.277344 C 38.859375 12.464844 39.433594 10.65625 40.019531 8.851562 C 40.371094 8.328125 40.84375 8.175781 41.433594 8.398438 C 41.683594 8.660156 41.835938 8.972656 41.890625 9.332031 C 41.953125 9.890625 41.976562 10.449219 41.960938 11.011719 C 42.203125 11.027344 42.445312 11.035156 42.683594 11.035156 C 42.609375 10.871094 42.632812 10.71875 42.753906 10.582031 C 43.621094 9.632812 44.636719 8.886719 45.800781 8.347656 C 45.992188 8.28125 46.128906 8.339844 46.210938 8.515625 C 46.226562 8.742188 46.226562 8.964844 46.210938 9.1875 C 46.671875 8.921875 47.121094 8.9375 47.554688 9.238281 C 47.765625 9.5625 47.839844 9.898438 47.769531 10.246094 C 48.238281 10.082031 48.714844 9.972656 49.207031 9.910156 C 49.382812 9.921875 49.476562 10.019531 49.496094 10.195312 C 49.105469 10.777344 48.671875 11.332031 48.199219 11.851562 C 48.464844 11.78125 48.738281 11.71875 49.015625 11.660156 C 49.175781 11.628906 49.335938 11.628906 49.496094 11.660156 C 49.667969 11.863281 49.722656 12.09375 49.664062 12.355469 C 49.574219 12.644531 49.445312 12.917969 49.28125 13.171875 C 48.585938 14.011719 47.945312 14.890625 47.359375 15.8125 C 45.6875 19.378906 43.816406 22.835938 41.746094 26.175781 C 40.339844 28.367188 38.734375 30.40625 36.925781 32.292969 C 35.636719 33.574219 34.148438 34.554688 32.460938 35.246094 C 32.5 35.359375 32.546875 35.472656 32.605469 35.582031 C 32.96875 35.699219 33.03125 35.90625 32.796875 36.203125 C 33.261719 36.34375 33.339844 36.589844 33.039062 36.949219 C 33.054688 37.027344 33.085938 37.097656 33.132812 37.164062 C 33.363281 37.265625 33.433594 37.445312 33.347656 37.691406 C 33.324219 37.714844 33.300781 37.738281 33.277344 37.765625 C 33.328125 37.863281 33.367188 37.96875 33.398438 38.074219 C 33.636719 37.910156 33.789062 37.976562 33.851562 38.269531 C 33.824219 38.328125 33.800781 38.394531 33.78125 38.460938 C 33.6875 38.5 33.613281 38.5625 33.566406 38.652344 C 34.070312 40.203125 34.503906 41.761719 34.859375 43.332031 C 34.640625 43.390625 34.417969 43.433594 34.1875 43.449219 C 34.164062 43.15625 34.109375 42.867188 34.019531 42.585938 C 33.832031 42.0625 33.65625 41.535156 33.492188 41.003906 C 33.410156 40.519531 33.324219 40.042969 33.230469 39.5625 C 32.617188 39.613281 32.027344 39.75 31.453125 39.972656 C 30.535156 40.390625 29.625 40.820312 28.71875 41.265625 C 27.859375 41.519531 27.011719 41.804688 26.175781 42.128906 C 24.507812 42.558594 22.8125 42.71875 21.089844 42.609375 C 20.410156 42.511719 19.738281 42.386719 19.074219 42.226562 C 18.625 42.1875 18.179688 42.144531 17.730469 42.105469 C 17.5625 42.058594 17.386719 42.015625 17.203125 41.988281 C 16.722656 41.960938 16.242188 41.953125 15.761719 41.960938 C 15.667969 41.960938 15.570312 41.960938 15.476562 41.960938 C 15.457031 41.921875 15.425781 41.90625 15.378906 41.914062 C 15.316406 41.914062 15.25 41.914062 15.1875 41.914062 C 15.1875 41.882812 15.171875 41.867188 15.140625 41.867188 C 15.089844 41.867188 15.042969 41.867188 14.996094 41.867188 C 14.980469 41.828125 14.945312 41.808594 14.898438 41.820312 C 14.882812 41.820312 14.867188 41.820312 14.851562 41.820312 C 14.835938 41.777344 14.804688 41.761719 14.753906 41.769531 C 14.722656 41.726562 14.671875 41.710938 14.609375 41.722656 C 14.515625 41.722656 14.417969 41.722656 14.324219 41.722656 C 14.199219 42.675781 14.070312 43.625 13.941406 44.578125 C 13.949219 44.699219 13.957031 44.816406 13.964844 44.9375 C 14.050781 45.085938 14.140625 45.226562 14.226562 45.371094 C 14.011719 45.417969 13.789062 45.433594 13.554688 45.417969 C 13.417969 45.273438 13.257812 45.152344 13.074219 45.058594 C 12.957031 44.90625 12.835938 44.753906 12.714844 44.601562 C 12.1875 43.578125 11.660156 42.554688 11.132812 41.53125 C 10.820312 40.859375 10.644531 40.15625 10.605469 39.417969 C 10.464844 37.835938 10.664062 36.300781 11.203125 34.8125 C 11.394531 34.496094 11.613281 34.191406 11.851562 33.902344 C 12.691406 33.125 13.5 32.316406 14.277344 31.476562 C 14.726562 31.136719 15.167969 30.773438 15.59375 30.398438 C 15.902344 30.019531 16.183594 29.617188 16.433594 29.199219 C 16.464844 29.199219 16.484375 29.183594 16.484375 29.152344 C 16.832031 28.664062 17.242188 28.230469 17.707031 27.855469 C 17.992188 27.335938 18.308594 26.839844 18.667969 26.367188 C 18.804688 26.066406 18.929688 25.765625 19.050781 25.457031 C 19.121094 24.289062 19.140625 23.121094 19.097656 21.953125 C 19.03125 20.910156 18.746094 19.933594 18.234375 19.027344 C 17.851562 18.398438 17.445312 17.789062 17.011719 17.203125 C 16.867188 16.992188 16.707031 16.789062 16.53125 16.601562 C 16.484375 16.578125 16.4375 16.570312 16.386719 16.578125 C 16.382812 16.550781 16.367188 16.523438 16.339844 16.507812 C 15.660156 16.324219 15.007812 16.082031 14.371094 15.785156 C 14.167969 15.785156 13.976562 15.742188 13.796875 15.667969 C 13.226562 16.0625 12.714844 16.523438 12.261719 17.058594 C 11.667969 17.6875 11.085938 18.328125 10.507812 18.976562 C 8.410156 21.523438 6.34375 24.101562 4.320312 26.703125 C 4.125 26.960938 3.957031 27.234375 3.816406 27.519531 C 3.78125 27.519531 3.765625 27.535156 3.765625 27.566406 C 3.765625 27.582031 3.765625 27.597656 3.765625 27.613281 C 3.734375 27.613281 3.71875 27.632812 3.71875 27.664062 C 3.636719 27.746094 3.5625 27.84375 3.503906 27.949219 C 3.007812 29.167969 2.511719 30.382812 2.015625 31.597656 C 1.65625 32.542969 1.421875 33.519531 1.320312 34.523438 C 1.273438 34.578125 1.257812 34.640625 1.273438 34.71875 C 1.273438 34.765625 1.273438 34.8125 1.273438 34.859375 C 1.230469 34.878906 1.214844 34.910156 1.222656 34.957031 C 1.042969 36.203125 1.035156 37.449219 1.199219 38.699219 C 1.304688 39.132812 1.414062 39.5625 1.535156 39.996094 C 2.070312 41.371094 2.566406 42.765625 3.023438 44.167969 C 3.046875 44.265625 3.054688 44.359375 3.046875 44.457031 C 2.757812 44.394531 2.472656 44.394531 2.183594 44.457031 C 1.617188 43.304688 1.136719 42.121094 0.742188 40.90625 C 0.582031 40.398438 0.480469 39.867188 0.433594 39.324219 C 0.4375 37.898438 0.46875 36.476562 0.527344 35.054688 C 0.726562 33.183594 1.171875 31.375 1.871094 29.628906 C 2.222656 28.925781 2.621094 28.253906 3.070312 27.613281 C 3.730469 25.8125 4.796875 24.292969 6.261719 23.054688 C 6.859375 22.523438 7.429688 21.945312 7.964844 21.328125 C 8.386719 20.722656 8.746094 20.085938 9.046875 19.410156 C 9.285156 18.8125 9.636719 18.292969 10.101562 17.851562 C 10.335938 17.726562 10.5625 17.582031 10.773438 17.417969 C 11.070312 17.113281 11.375 16.816406 11.683594 16.53125 C 12.183594 16.039062 12.742188 15.632812 13.363281 15.308594 C 13.472656 15.230469 13.566406 15.140625 13.652344 15.042969 C 13.433594 14.90625 13.363281 14.714844 13.4375 14.46875 C 13.628906 14.054688 13.867188 13.667969 14.15625 13.316406 C 14.355469 12.847656 14.511719 12.371094 14.636719 11.875 C 14.816406 10.605469 15.097656 9.355469 15.476562 8.132812 C 15.785156 7.140625 16.179688 6.183594 16.652344 5.253906 C 16.90625 4.777344 17.234375 4.351562 17.632812 3.984375 C 18.230469 3.601562 18.878906 3.464844 19.578125 3.574219 C 19.824219 3.394531 20.105469 3.292969 20.417969 3.261719 C 20.890625 3.210938 21.355469 3.25 21.808594 3.382812 Z M 17.828125 4.582031 C 17.605469 4.976562 17.351562 5.34375 17.058594 5.6875 C 17.230469 5.257812 17.488281 4.890625 17.828125 4.582031 Z M 45.5625 9.046875 C 45.585938 9.046875 45.601562 9.0625 45.609375 9.09375 C 45.480469 9.417969 45.277344 9.691406 45.007812 9.910156 C 44.976562 10.210938 45.113281 10.332031 45.417969 10.269531 C 45.632812 10.152344 45.839844 10.023438 46.042969 9.886719 C 46.210938 9.777344 46.394531 9.707031 46.59375 9.667969 C 47.039062 9.789062 47.113281 10.023438 46.808594 10.363281 C 46.390625 10.570312 46.027344 10.851562 45.730469 11.203125 C 45.550781 11.492188 45.5 11.796875 45.585938 12.117188 C 45.742188 12.207031 45.910156 12.234375 46.089844 12.1875 C 46.199219 11.886719 46.359375 11.617188 46.570312 11.371094 C 47.179688 10.992188 47.835938 10.738281 48.535156 10.605469 C 48.019531 11.234375 47.484375 11.851562 46.929688 12.453125 C 46.871094 12.78125 47.007812 12.914062 47.335938 12.859375 C 47.84375 12.625 48.371094 12.472656 48.921875 12.402344 C 48.855469 12.613281 48.75 12.804688 48.609375 12.980469 C 48.078125 13.542969 47.582031 14.136719 47.121094 14.753906 C 47.011719 14.863281 46.882812 14.941406 46.738281 14.996094 C 46.070312 16.964844 45.222656 18.851562 44.195312 20.65625 C 42.804688 23.039062 41.300781 25.339844 39.683594 27.566406 C 38.660156 28.925781 37.515625 30.179688 36.253906 31.332031 C 34.921875 32.34375 33.539062 33.28125 32.101562 34.140625 C 31.457031 32.339844 30.785156 30.546875 30.085938 28.765625 C 29.960938 27.171875 29.671875 25.601562 29.222656 24.0625 C 29.175781 23.375 29.128906 22.6875 29.078125 22 C 28.945312 21.878906 28.820312 21.878906 28.695312 22 C 28.289062 20.691406 27.925781 19.378906 27.613281 18.066406 C 30.160156 18.9375 32.765625 19.53125 35.4375 19.839844 C 36.113281 19.859375 36.738281 19.691406 37.308594 19.335938 C 37.578125 18.980469 37.796875 18.585938 37.957031 18.164062 C 38.785156 15.355469 39.632812 12.558594 40.5 9.765625 C 40.785156 9.53125 40.976562 9.59375 41.074219 9.957031 C 41.132812 10.464844 41.164062 10.976562 41.171875 11.492188 C 41.191406 11.589844 41.230469 11.675781 41.289062 11.757812 C 41.703125 11.8125 42.121094 11.859375 42.539062 11.898438 C 42.804688 11.96875 43.058594 12.066406 43.304688 12.1875 C 43.898438 12.265625 44.117188 12.019531 43.953125 11.445312 C 43.914062 11.40625 43.875 11.363281 43.832031 11.324219 C 43.53125 11.238281 43.226562 11.15625 42.921875 11.085938 C 43.6875 10.246094 44.566406 9.566406 45.5625 9.046875 Z M 27.421875 10.867188 C 27.601562 10.976562 27.761719 11.113281 27.902344 11.277344 C 27.65625 11.703125 27.335938 12.0625 26.945312 12.355469 C 27.140625 11.875 27.300781 11.378906 27.421875 10.867188 Z M 22.863281 14.851562 C 22.882812 14.972656 22.851562 15.003906 22.769531 14.945312 C 22.785156 14.898438 22.816406 14.867188 22.863281 14.851562 Z M 22.625 15.089844 C 22.65625 15.175781 22.703125 15.246094 22.769531 15.308594 C 22.613281 15.328125 22.53125 15.417969 22.527344 15.570312 C 22.433594 15.507812 22.351562 15.425781 22.289062 15.332031 C 22.386719 15.234375 22.5 15.152344 22.625 15.089844 Z M 23.488281 15.617188 C 23.703125 15.808594 23.910156 16.007812 24.113281 16.21875 C 24.054688 16.261719 24.015625 16.316406 23.992188 16.386719 C 23.832031 16.121094 23.664062 15.867188 23.488281 15.617188 Z M 18.304688 15.953125 C 18.367188 16.0625 18.414062 16.171875 18.449219 16.289062 C 18.335938 16.195312 18.226562 16.097656 18.113281 16.003906 C 18.183594 16.007812 18.25 15.988281 18.304688 15.953125 Z M 20.417969 16.53125 C 20.667969 16.542969 20.859375 16.65625 20.992188 16.867188 C 20.863281 16.964844 20.753906 17.074219 20.65625 17.203125 C 20.382812 17.035156 20.304688 16.8125 20.417969 16.53125 Z M 16.386719 16.578125 C 16.4375 16.570312 16.484375 16.578125 16.53125 16.601562 C 16.707031 16.789062 16.867188 16.992188 17.011719 17.203125 C 16.667969 17.023438 16.332031 16.832031 16.003906 16.625 C 16.128906 16.609375 16.257812 16.59375 16.386719 16.578125 Z M 21.136719 17.777344 C 21.023438 17.726562 21.015625 17.664062 21.113281 17.585938 C 21.136719 17.648438 21.144531 17.710938 21.136719 17.777344 Z M 24.015625 18.304688 C 23.730469 18.238281 23.609375 18.0625 23.65625 17.777344 C 23.808594 17.9375 23.925781 18.113281 24.015625 18.304688 Z M 26.75 17.828125 C 27.046875 17.824219 27.183594 17.96875 27.160156 18.257812 C 27.125 18.207031 27.074219 18.175781 27.015625 18.164062 C 26.949219 18.214844 26.882812 18.214844 26.824219 18.164062 C 26.792969 18.050781 26.769531 17.9375 26.75 17.828125 Z M 21.183594 18.164062 C 21.167969 17.867188 21.214844 17.851562 21.328125 18.113281 C 21.289062 18.15625 21.242188 18.171875 21.183594 18.164062 Z M 21.90625 18.449219 C 22.042969 18.707031 22.070312 18.980469 21.976562 19.265625 C 21.914062 19.148438 21.859375 19.027344 21.808594 18.90625 C 21.890625 18.765625 21.925781 18.613281 21.90625 18.449219 Z M 22.816406 18.832031 C 23.222656 19.625 23.558594 20.449219 23.824219 21.304688 C 23.785156 21.398438 23.722656 21.472656 23.632812 21.519531 C 23.300781 20.644531 23.03125 19.75 22.816406 18.832031 Z M 26.800781 21.378906 C 26.65625 21.1875 26.535156 20.980469 26.441406 20.753906 C 26.21875 20.132812 26.023438 19.511719 25.863281 18.882812 C 26.070312 19.203125 26.28125 19.523438 26.488281 19.839844 C 26.589844 20.355469 26.695312 20.867188 26.800781 21.378906 Z M 24.351562 19.457031 C 24.648438 19.601562 24.785156 19.84375 24.761719 20.175781 C 24.574219 19.964844 24.4375 19.726562 24.351562 19.457031 Z M 20.320312 20.320312 C 20.402344 20.414062 20.480469 20.511719 20.5625 20.609375 C 20.503906 20.652344 20.441406 20.671875 20.371094 20.65625 C 20.371094 20.542969 20.355469 20.429688 20.320312 20.320312 Z M 22.671875 20.464844 C 22.734375 20.605469 22.800781 20.75 22.863281 20.898438 C 22.800781 20.949219 22.742188 20.933594 22.695312 20.847656 C 22.671875 20.722656 22.664062 20.59375 22.671875 20.464844 Z M 21.183594 22.289062 C 21.238281 22.292969 21.269531 22.328125 21.28125 22.386719 C 21.378906 22.707031 21.460938 23.035156 21.519531 23.367188 C 21.445312 23.648438 21.375 23.925781 21.304688 24.207031 C 21.210938 24.144531 21.113281 24.144531 21.015625 24.207031 C 21.019531 23.773438 21.09375 23.347656 21.234375 22.9375 C 21.1875 22.726562 21.171875 22.507812 21.183594 22.289062 Z M 23.441406 22.480469 C 23.503906 22.546875 23.542969 22.625 23.558594 22.722656 C 23.71875 23.289062 23.816406 23.863281 23.847656 24.449219 C 23.828125 24.503906 23.796875 24.550781 23.753906 24.59375 C 23.5625 24.128906 23.378906 23.664062 23.199219 23.199219 C 23.234375 22.941406 23.3125 22.703125 23.441406 22.480469 Z M 28.335938 22.527344 C 28.484375 23 28.621094 23.480469 28.742188 23.96875 C 28.769531 24.480469 28.789062 24.992188 28.789062 25.503906 C 28.59375 25.015625 28.425781 24.519531 28.285156 24.015625 C 28.324219 23.9375 28.378906 23.875 28.453125 23.824219 C 28.464844 23.761719 28.472656 23.695312 28.480469 23.632812 C 28.425781 23.265625 28.378906 22.898438 28.335938 22.527344 Z M 26.511719 23.054688 C 26.707031 23.335938 26.867188 23.640625 26.992188 23.96875 C 26.792969 23.6875 26.636719 23.382812 26.511719 23.054688 Z M 24.398438 23.199219 C 24.519531 23.222656 24.527344 23.269531 24.425781 23.34375 C 24.402344 23.300781 24.394531 23.25 24.398438 23.199219 Z M 25.839844 23.585938 C 26.050781 23.96875 26.261719 24.363281 26.464844 24.761719 C 26.386719 24.792969 26.3125 24.785156 26.246094 24.734375 C 26.097656 24.355469 25.960938 23.972656 25.839844 23.585938 Z M 24.832031 23.726562 C 24.914062 24.0625 24.976562 24.40625 25.023438 24.761719 C 25.003906 24.933594 24.964844 25.101562 24.902344 25.265625 C 24.816406 24.890625 24.726562 24.511719 24.640625 24.136719 C 24.699219 23.996094 24.761719 23.859375 24.832031 23.726562 Z M 22.144531 24.351562 C 22.207031 24.679688 22.253906 25.015625 22.289062 25.359375 C 22.222656 25.414062 22.148438 25.460938 22.074219 25.503906 C 22.117188 25.125 22.140625 24.738281 22.144531 24.351562 Z M 25.601562 24.785156 C 25.800781 25.296875 26.015625 25.808594 26.246094 26.320312 C 26.28125 26.449219 26.28125 26.574219 26.246094 26.703125 C 26.191406 26.492188 26.128906 26.285156 26.054688 26.078125 C 25.9375 26.023438 25.828125 25.957031 25.71875 25.886719 C 25.675781 25.519531 25.636719 25.152344 25.601562 24.785156 Z M 22.960938 26.65625 C 22.867188 26.617188 22.816406 26.542969 22.816406 26.441406 C 22.835938 26.113281 22.84375 25.785156 22.839844 25.457031 C 22.902344 25.855469 22.945312 26.253906 22.960938 26.65625 Z M 27.808594 25.550781 C 28.027344 25.984375 28.179688 26.449219 28.261719 26.945312 C 28.035156 26.523438 27.835938 26.089844 27.664062 25.648438 C 27.714844 25.617188 27.765625 25.582031 27.808594 25.550781 Z M 25.167969 26.078125 C 25.242188 26.226562 25.289062 26.386719 25.3125 26.558594 C 25.296875 26.574219 25.28125 26.589844 25.265625 26.609375 C 25.195312 26.542969 25.117188 26.503906 25.023438 26.488281 C 25.09375 26.359375 25.140625 26.222656 25.167969 26.078125 Z M 21.855469 27.664062 C 21.929688 27.46875 22.050781 27.308594 22.21875 27.183594 C 22.28125 27.488281 22.164062 27.648438 21.855469 27.664062 Z M 3.71875 27.664062 C 2.726562 29.886719 1.925781 32.171875 1.320312 34.523438 C 1.421875 33.519531 1.65625 32.542969 2.015625 31.597656 C 2.511719 30.382812 3.007812 29.167969 3.503906 27.949219 C 3.5625 27.84375 3.636719 27.746094 3.71875 27.664062 Z M 25.839844 27.902344 C 25.988281 28.226562 26.089844 28.5625 26.152344 28.910156 C 26.011719 28.585938 25.910156 28.25 25.839844 27.902344 Z M 22 28.238281 C 21.941406 28.589844 21.898438 28.941406 21.882812 29.292969 C 21.792969 29.414062 21.703125 29.535156 21.617188 29.65625 C 21.578125 29.6875 21.546875 29.679688 21.519531 29.628906 C 21.402344 29.441406 21.300781 29.25 21.210938 29.054688 C 21.136719 28.976562 21.050781 28.925781 20.945312 28.910156 C 21.046875 28.871094 21.160156 28.847656 21.28125 28.839844 C 21.417969 28.527344 21.660156 28.328125 22 28.238281 Z M 27.085938 28.382812 C 27.164062 28.507812 27.226562 28.644531 27.277344 28.789062 C 27.253906 28.878906 27.214844 28.886719 27.160156 28.816406 C 27.125 28.671875 27.101562 28.527344 27.085938 28.382812 Z M 16.433594 29.199219 C 16.183594 29.617188 15.902344 30.019531 15.59375 30.398438 C 15.167969 30.773438 14.726562 31.136719 14.277344 31.476562 C 13.5 32.316406 12.691406 33.125 11.851562 33.902344 C 11.613281 34.191406 11.394531 34.496094 11.203125 34.8125 C 11.246094 33.535156 11.777344 32.519531 12.789062 31.765625 C 14.066406 30.992188 15.28125 30.136719 16.433594 29.199219 Z M 22.671875 29.246094 C 22.703125 29.285156 22.71875 29.332031 22.722656 29.390625 C 22.679688 29.628906 22.613281 29.636719 22.527344 29.414062 C 22.554688 29.335938 22.605469 29.28125 22.671875 29.246094 Z M 20.898438 29.871094 C 20.984375 29.972656 21.046875 30.09375 21.089844 30.230469 C 20.949219 30.394531 20.789062 30.527344 20.609375 30.636719 C 20.570312 30.625 20.539062 30.597656 20.511719 30.566406 C 20.660156 30.34375 20.789062 30.109375 20.898438 29.871094 Z M 22.863281 30.109375 C 23.203125 30.273438 23.230469 30.464844 22.9375 30.6875 C 22.910156 30.515625 22.867188 30.347656 22.816406 30.183594 C 22.84375 30.164062 22.859375 30.140625 22.863281 30.109375 Z M 25.9375 30.300781 C 25.964844 30.308594 25.988281 30.324219 26.007812 30.351562 C 26.132812 30.695312 26.148438 31.046875 26.054688 31.40625 C 25.992188 31.097656 25.921875 30.796875 25.839844 30.496094 C 25.871094 30.429688 25.90625 30.363281 25.9375 30.300781 Z M 30.015625 30.78125 C 29.964844 30.652344 29.914062 30.515625 29.871094 30.375 C 29.886719 30.367188 29.902344 30.359375 29.917969 30.351562 C 29.988281 30.484375 30.019531 30.628906 30.015625 30.78125 Z M 17.15625 30.925781 C 17.152344 31 17.121094 31.054688 17.058594 31.09375 C 16.945312 31.132812 16.832031 31.175781 16.722656 31.214844 C 16.839844 31.082031 16.984375 30.988281 17.15625 30.925781 Z M 16.722656 31.214844 C 16.519531 31.386719 16.34375 31.585938 16.195312 31.8125 C 16.050781 31.78125 15.90625 31.789062 15.761719 31.835938 C 15.730469 31.984375 15.691406 32.128906 15.644531 32.269531 C 15.5 32.460938 15.378906 32.671875 15.28125 32.894531 C 14.996094 32.542969 14.941406 32.160156 15.113281 31.742188 C 15.335938 31.457031 15.59375 31.199219 15.882812 30.972656 C 15.996094 31.167969 16.15625 31.214844 16.363281 31.117188 C 16.464844 31.203125 16.585938 31.234375 16.722656 31.214844 Z M 21.953125 31.167969 C 21.972656 30.976562 22.019531 30.953125 22.097656 31.09375 C 22.0625 31.144531 22.011719 31.167969 21.953125 31.167969 Z M 19.121094 31.023438 C 19.183594 31.191406 19.121094 31.28125 18.929688 31.285156 C 19.023438 31.21875 19.085938 31.128906 19.121094 31.023438 Z M 23.199219 31.117188 C 23.246094 31.167969 23.261719 31.234375 23.25 31.308594 C 23.171875 31.328125 23.105469 31.328125 23.054688 31.308594 C 23.105469 31.246094 23.152344 31.179688 23.199219 31.117188 Z M 28.957031 31.117188 C 29.039062 31.230469 29.0625 31.359375 29.03125 31.5 C 28.980469 31.378906 28.953125 31.25 28.957031 31.117188 Z M 20.65625 31.261719 C 20.835938 31.316406 21.011719 31.316406 21.183594 31.261719 C 21.257812 31.464844 21.226562 31.648438 21.089844 31.8125 C 20.917969 31.898438 20.742188 31.972656 20.5625 32.03125 C 20.488281 31.996094 20.4375 31.941406 20.417969 31.863281 C 20.4375 31.632812 20.515625 31.429688 20.65625 31.261719 Z M 26.175781 31.742188 C 26.28125 31.90625 26.402344 32.066406 26.535156 32.222656 C 26.636719 32.46875 26.683594 32.726562 26.679688 32.988281 C 26.660156 33.160156 26.613281 33.320312 26.535156 33.46875 C 26.445312 32.886719 26.324219 32.308594 26.175781 31.742188 Z M 24.398438 32.796875 C 24.285156 32.492188 24.226562 32.171875 24.230469 31.835938 C 24.324219 32.152344 24.378906 32.46875 24.398438 32.796875 Z M 18.929688 31.980469 C 18.980469 32.226562 18.898438 32.300781 18.691406 32.199219 C 18.734375 32.082031 18.8125 32.011719 18.929688 31.980469 Z M 14.371094 32.171875 C 14.203125 32.84375 14.035156 33.515625 13.867188 34.1875 C 13.773438 34.664062 13.707031 35.144531 13.675781 35.628906 C 13.652344 37.53125 13.605469 39.4375 13.53125 41.339844 C 13.257812 41.519531 13.242188 41.726562 13.484375 41.960938 C 13.523438 42.6875 13.492188 43.40625 13.386719 44.121094 C 12.953125 43.542969 12.539062 42.953125 12.140625 42.347656 C 11.859375 41.328125 11.605469 40.304688 11.371094 39.277344 C 11.316406 38.144531 11.398438 37.027344 11.613281 35.917969 C 11.839844 35.351562 12.078125 34.792969 12.332031 34.238281 C 12.992188 33.523438 13.671875 32.835938 14.371094 32.171875 Z M 22.144531 32.316406 C 22.242188 32.601562 22.1875 32.859375 21.976562 33.085938 C 21.941406 32.964844 21.902344 32.84375 21.855469 32.726562 C 21.964844 32.59375 22.058594 32.460938 22.144531 32.316406 Z M 20.945312 32.367188 C 20.992188 32.363281 21.023438 32.386719 21.042969 32.4375 C 20.996094 32.734375 20.914062 32.757812 20.800781 32.507812 C 20.839844 32.449219 20.890625 32.402344 20.945312 32.367188 Z M 23.34375 32.367188 C 23.40625 32.371094 23.445312 32.402344 23.464844 32.460938 C 23.496094 32.621094 23.496094 32.78125 23.464844 32.941406 C 23.410156 32.753906 23.371094 32.558594 23.34375 32.367188 Z M 17.730469 32.558594 C 17.792969 32.617188 17.792969 32.679688 17.730469 32.75 C 17.503906 32.90625 17.335938 33.113281 17.226562 33.375 C 17.222656 33.246094 17.238281 33.117188 17.273438 32.988281 C 17.421875 32.835938 17.574219 32.691406 17.730469 32.558594 Z M 22.816406 32.84375 C 22.867188 32.851562 22.902344 32.882812 22.914062 32.941406 C 22.960938 33.097656 22.992188 33.257812 23.007812 33.421875 C 22.929688 33.429688 22.859375 33.414062 22.792969 33.375 C 22.757812 33.191406 22.765625 33.015625 22.816406 32.84375 Z M 31.117188 33.757812 C 31.035156 33.652344 30.921875 33.597656 30.78125 33.589844 C 30.710938 33.523438 30.644531 33.453125 30.589844 33.375 C 30.667969 33.222656 30.714844 33.0625 30.734375 32.894531 C 30.8125 32.882812 30.886719 32.898438 30.949219 32.941406 C 31.050781 33.203125 31.109375 33.476562 31.117188 33.757812 Z M 16.386719 33.230469 C 16.457031 33.398438 16.488281 33.582031 16.484375 33.78125 C 16.464844 33.902344 16.449219 34.019531 16.433594 34.140625 C 16.324219 34.097656 16.214844 34.097656 16.097656 34.140625 C 16.132812 33.867188 16.1875 33.59375 16.265625 33.324219 C 16.316406 33.296875 16.355469 33.265625 16.386719 33.230469 Z M 28.957031 33.277344 C 29.007812 33.277344 29.039062 33.300781 29.054688 33.347656 C 29.128906 33.609375 29.242188 33.847656 29.390625 34.070312 C 29.589844 34.101562 29.78125 34.078125 29.964844 33.996094 C 30.011719 34.003906 30.050781 34.019531 30.085938 34.046875 C 30.144531 34.460938 30.097656 34.859375 29.941406 35.246094 C 29.511719 34.640625 29.183594 33.984375 28.957031 33.277344 Z M 18.691406 33.46875 C 18.742188 33.523438 18.75 33.585938 18.714844 33.660156 C 18.640625 33.609375 18.632812 33.546875 18.691406 33.46875 Z M 18.691406 34.09375 C 18.710938 34.394531 18.792969 34.679688 18.929688 34.957031 C 18.917969 35.027344 18.894531 35.089844 18.859375 35.148438 C 18.730469 35.226562 18.621094 35.324219 18.523438 35.4375 C 18.480469 35.335938 18.457031 35.234375 18.449219 35.125 C 18.535156 34.78125 18.613281 34.4375 18.691406 34.09375 Z M 28.71875 34.140625 C 28.902344 34.589844 29.128906 35.019531 29.390625 35.4375 C 29.203125 35.515625 29.007812 35.53125 28.816406 35.484375 C 28.976562 35.054688 28.925781 34.65625 28.671875 34.285156 C 28.679688 34.234375 28.695312 34.183594 28.71875 34.140625 Z M 22.289062 34.238281 C 22.320312 34.242188 22.34375 34.257812 22.359375 34.285156 C 22.390625 34.523438 22.414062 34.765625 22.433594 35.003906 C 22.371094 34.996094 22.3125 35.011719 22.265625 35.054688 C 22.175781 34.820312 22.144531 34.578125 22.167969 34.332031 C 22.214844 34.304688 22.257812 34.273438 22.289062 34.238281 Z M 22.863281 34.285156 C 22.957031 34.316406 23.054688 34.332031 23.152344 34.332031 C 23.273438 34.570312 23.210938 34.730469 22.960938 34.8125 C 22.917969 34.636719 22.886719 34.460938 22.863281 34.285156 Z M 26.609375 34.382812 C 26.855469 34.460938 26.855469 34.5 26.609375 34.5 C 26.554688 34.464844 26.554688 34.425781 26.609375 34.382812 Z M 20.5625 34.621094 C 20.585938 34.542969 20.632812 34.519531 20.707031 34.550781 C 20.667969 34.597656 20.621094 34.621094 20.5625 34.621094 Z M 20.5625 34.621094 C 20.53125 34.675781 20.492188 34.722656 20.441406 34.765625 C 20.417969 34.667969 20.457031 34.621094 20.5625 34.621094 Z M 24.207031 34.621094 C 24.3125 34.621094 24.351562 34.667969 24.328125 34.765625 C 24.277344 34.730469 24.222656 34.707031 24.160156 34.691406 C 24.1875 34.675781 24.203125 34.652344 24.207031 34.621094 Z M 21.472656 34.765625 C 21.519531 34.945312 21.535156 35.140625 21.519531 35.339844 C 21.441406 35.339844 21.359375 35.339844 21.28125 35.339844 C 21.292969 35.230469 21.277344 35.125 21.234375 35.027344 C 21.324219 34.945312 21.402344 34.859375 21.472656 34.765625 Z M 28.191406 34.765625 C 28.238281 34.761719 28.277344 34.777344 28.3125 34.8125 C 28.386719 35.066406 28.347656 35.304688 28.191406 35.53125 C 27.941406 35.617188 27.683594 35.65625 27.421875 35.652344 C 27.765625 35.339844 27.734375 35.066406 27.328125 34.835938 C 27.484375 34.851562 27.644531 34.875 27.808594 34.910156 C 27.953125 34.898438 28.082031 34.847656 28.191406 34.765625 Z M 14.515625 34.859375 C 14.566406 35.347656 14.558594 35.84375 14.492188 36.347656 C 14.460938 35.851562 14.46875 35.355469 14.515625 34.859375 Z M 17.203125 34.859375 C 17.292969 34.863281 17.351562 34.914062 17.371094 35.003906 C 17.472656 35.398438 17.441406 35.78125 17.273438 36.15625 C 17.136719 36.472656 16.976562 36.773438 16.792969 37.066406 C 16.761719 36.988281 16.761719 36.910156 16.792969 36.828125 C 17.054688 36.199219 17.191406 35.542969 17.203125 34.859375 Z M 26.703125 35.101562 C 26.8125 35.121094 26.875 35.1875 26.894531 35.292969 C 26.820312 35.421875 26.707031 35.511719 26.558594 35.554688 C 25.882812 35.832031 25.179688 35.957031 24.449219 35.941406 C 24.917969 35.761719 25.347656 35.523438 25.742188 35.222656 C 25.855469 35.203125 25.96875 35.210938 26.078125 35.246094 C 26.300781 35.226562 26.507812 35.179688 26.703125 35.101562 Z M 20.707031 35.339844 C 20.746094 35.335938 20.78125 35.351562 20.800781 35.390625 C 20.742188 35.441406 20.679688 35.449219 20.609375 35.414062 C 20.652344 35.398438 20.683594 35.375 20.707031 35.339844 Z M 19.410156 35.390625 C 19.492188 35.40625 19.515625 35.453125 19.480469 35.53125 C 19.378906 35.507812 19.355469 35.457031 19.410156 35.390625 Z M 22.433594 35.820312 C 22.527344 35.84375 22.542969 35.890625 22.480469 35.964844 C 22.4375 35.925781 22.421875 35.875 22.433594 35.820312 Z M 14.996094 36.78125 C 15.089844 36.765625 15.160156 36.800781 15.210938 36.875 C 15.234375 37.300781 15.335938 37.699219 15.523438 38.074219 C 15.617188 38.125 15.710938 38.132812 15.8125 38.101562 C 15.945312 38.003906 16.074219 37.902344 16.195312 37.789062 C 16.242188 37.804688 16.273438 37.835938 16.289062 37.882812 C 16.0625 38.292969 15.757812 38.628906 15.378906 38.890625 C 15.289062 38.875 15.214844 38.824219 15.164062 38.746094 C 15.152344 38.378906 15.121094 38.007812 15.066406 37.644531 C 14.960938 37.589844 14.902344 37.503906 14.898438 37.378906 C 14.921875 37.175781 14.953125 36.976562 14.996094 36.78125 Z M 15.761719 36.78125 C 15.882812 36.847656 15.996094 36.929688 16.097656 37.019531 C 16.035156 37.148438 15.945312 37.261719 15.835938 37.355469 C 15.785156 37.167969 15.761719 36.976562 15.761719 36.78125 Z M 19.410156 37.019531 C 19.796875 37.003906 20.179688 37.019531 20.5625 37.066406 C 20.539062 37.148438 20.492188 37.203125 20.417969 37.234375 C 19.972656 37.386719 19.527344 37.417969 19.074219 37.332031 C 19.1875 37.226562 19.300781 37.125 19.410156 37.019531 Z M 18.113281 37.882812 C 18.285156 37.726562 18.34375 37.535156 18.28125 37.308594 C 18.203125 37.25 18.113281 37.210938 18.019531 37.1875 C 18.164062 37.152344 18.308594 37.113281 18.449219 37.066406 C 18.480469 37.085938 18.515625 37.101562 18.546875 37.117188 C 18.425781 37.304688 18.371094 37.511719 18.378906 37.738281 C 18.292969 37.800781 18.207031 37.847656 18.113281 37.882812 Z M 32.316406 37.117188 C 32.378906 37.144531 32.378906 37.175781 32.316406 37.210938 C 32.1875 37.304688 32.058594 37.3125 31.933594 37.234375 C 32.066406 37.191406 32.195312 37.152344 32.316406 37.117188 Z M 14.179688 38.316406 C 14.179688 38.027344 14.179688 37.738281 14.179688 37.453125 C 14.226562 37.453125 14.277344 37.453125 14.324219 37.453125 C 14.304688 37.75 14.257812 38.039062 14.179688 38.316406 Z M 23.390625 39.324219 C 25.640625 38.554688 27.945312 37.976562 30.300781 37.597656 C 30.519531 37.585938 30.726562 37.625 30.925781 37.714844 C 30.535156 37.851562 30.136719 37.960938 29.726562 38.050781 C 28.707031 38.222656 27.699219 38.445312 26.703125 38.722656 C 25.605469 38.953125 24.5 39.152344 23.390625 39.324219 Z M 23.726562 37.691406 C 23.824219 37.683594 23.921875 37.691406 24.015625 37.714844 C 23.382812 38.007812 22.726562 38.230469 22.050781 38.386719 C 21.679688 38.402344 21.3125 38.386719 20.945312 38.339844 C 20.808594 38.335938 20.679688 38.300781 20.5625 38.242188 C 20.882812 38.082031 21.203125 37.925781 21.519531 37.765625 C 21.878906 37.757812 22.242188 37.765625 22.601562 37.789062 C 22.988281 37.785156 23.363281 37.753906 23.726562 37.691406 Z M 18.832031 37.835938 C 18.957031 37.871094 19.085938 37.894531 19.21875 37.90625 C 19.09375 37.945312 18.976562 37.984375 18.859375 38.027344 C 18.835938 37.964844 18.828125 37.902344 18.832031 37.835938 Z M 18.113281 37.882812 C 18.089844 37.953125 18.042969 37.984375 17.96875 37.980469 C 17.992188 37.914062 18.039062 37.878906 18.113281 37.882812 Z M 17.875 38.027344 C 17.609375 38.269531 17.304688 38.4375 16.960938 38.53125 C 17.210938 38.261719 17.515625 38.09375 17.875 38.027344 Z M 32.605469 38.027344 C 32.660156 38.015625 32.710938 38.035156 32.75 38.074219 C 32.917969 38.316406 32.871094 38.492188 32.605469 38.605469 C 32.566406 38.527344 32.542969 38.449219 32.535156 38.363281 C 32.46875 38.308594 32.414062 38.242188 32.367188 38.171875 C 32.453125 38.132812 32.535156 38.085938 32.605469 38.027344 Z M 26.128906 40.476562 C 27.761719 39.890625 29.390625 39.292969 31.023438 38.675781 C 31.246094 38.636719 31.46875 38.621094 31.695312 38.628906 C 29.902344 39.441406 28.046875 40.054688 26.128906 40.476562 Z M 15.1875 40.1875 C 15.382812 40 15.605469 39.847656 15.859375 39.730469 C 15.949219 39.695312 16.03125 39.710938 16.097656 39.777344 C 15.808594 39.941406 15.503906 40.078125 15.1875 40.1875 Z M 26.222656 39.707031 C 25.417969 40 24.601562 40.28125 23.777344 40.546875 C 23.675781 40.582031 23.609375 40.65625 23.585938 40.761719 C 22.976562 40.820312 22.371094 40.828125 21.761719 40.785156 C 21.898438 40.664062 21.929688 40.519531 21.855469 40.355469 C 23.328125 40.246094 24.78125 40.027344 26.222656 39.707031 Z M 15.425781 40.90625 C 15.527344 41.023438 15.65625 41.101562 15.8125 41.148438 C 15.886719 41.109375 15.964844 41.09375 16.050781 41.097656 C 16.042969 41.164062 16.058594 41.21875 16.097656 41.265625 C 15.765625 41.246094 15.429688 41.214844 15.089844 41.171875 C 15.210938 41.089844 15.324219 41 15.425781 40.90625 Z M 17.011719 41.484375 C 19.546875 41.433594 22.089844 41.441406 24.640625 41.507812 C 22.886719 41.753906 21.128906 41.820312 19.363281 41.699219 C 18.589844 41.507812 17.804688 41.4375 17.011719 41.484375 Z M 15.761719 41.960938 C 16.242188 41.953125 16.722656 41.960938 17.203125 41.988281 C 17.386719 42.015625 17.5625 42.058594 17.730469 42.105469 C 17.066406 42.09375 16.410156 42.046875 15.761719 41.960938 Z M 15.761719 41.960938 "/>
</g>
<mask id="mask1">
  <g filter="url(#alpha)">
<rect x="0" y="0" width="50" height="50" style="fill:rgb(0%,0%,0%);fill-opacity:0.976471;stroke:none;"/>
  </g>
</mask>
<clipPath id="clip2">
  <rect width="50" height="50"/>
</clipPath>
<g id="surface9" clip-path="url(#clip2)">
<path style=" stroke:none;fill-rule:evenodd;fill:rgb(66.27451%,22.745098%,17.647059%);fill-opacity:1;" d="M 21.808594 3.382812 C 23.625 3.355469 25.167969 3.980469 26.441406 5.253906 C 27.304688 6.273438 27.726562 7.457031 27.710938 8.804688 C 27.699219 9.273438 27.648438 9.738281 27.566406 10.195312 C 26.832031 9.398438 26.261719 8.484375 25.863281 7.460938 C 25.609375 7.222656 25.367188 6.964844 25.144531 6.695312 C 24.8125 6.078125 24.445312 5.484375 24.039062 4.917969 C 23.40625 4.242188 22.660156 3.730469 21.808594 3.382812 Z M 21.808594 3.382812 "/>
</g>
<mask id="mask2">
  <g filter="url(#alpha)">
<rect x="0" y="0" width="50" height="50" style="fill:rgb(0%,0%,0%);fill-opacity:0.996078;stroke:none;"/>
  </g>
</mask>
<clipPath id="clip3">
  <rect width="50" height="50"/>
</clipPath>
<g id="surface12" clip-path="url(#clip3)">
<path style=" stroke:none;fill-rule:evenodd;fill:rgb(65.882353%,22.745098%,17.647059%);fill-opacity:1;" d="M 18.640625 7.078125 C 18.207031 7.796875 18.039062 8.582031 18.136719 9.429688 C 18.191406 9.808594 18.261719 10.175781 18.355469 10.53125 C 18.308594 11.222656 18.394531 11.894531 18.617188 12.546875 C 18.761719 12.847656 18.992188 13.039062 19.3125 13.125 C 19.328125 13.15625 19.347656 13.1875 19.363281 13.21875 C 18.554688 12.945312 17.722656 12.808594 16.867188 12.8125 C 16.707031 12.84375 16.578125 12.921875 16.484375 13.050781 C 16.367188 13.0625 16.253906 13.085938 16.148438 13.125 C 16.121094 13.207031 16.089844 13.285156 16.050781 13.363281 C 15.394531 13.742188 14.769531 14.164062 14.179688 14.636719 C 14.078125 14.648438 14.015625 14.597656 13.988281 14.492188 C 14.566406 13.710938 14.941406 12.839844 15.113281 11.875 C 15.40625 9.757812 16.023438 7.742188 16.960938 5.832031 C 16.996094 5.832031 17.011719 5.8125 17.011719 5.78125 C 17.011719 5.765625 17.011719 5.75 17.011719 5.734375 C 17.042969 5.734375 17.058594 5.71875 17.058594 5.6875 C 17.351562 5.34375 17.605469 4.976562 17.828125 4.582031 C 17.859375 4.582031 17.875 4.566406 17.875 4.535156 C 17.90625 4.535156 17.921875 4.519531 17.921875 4.488281 C 17.953125 4.488281 17.96875 4.46875 17.96875 4.4375 C 17.992188 4.394531 18.023438 4.351562 18.066406 4.320312 C 19.136719 3.832031 20.078125 4.007812 20.898438 4.847656 C 19.707031 5.148438 18.953125 5.894531 18.640625 7.078125 Z M 18.640625 7.078125 "/>
</g>
<mask id="mask3">
  <g filter="url(#alpha)">
<rect x="0" y="0" width="50" height="50" style="fill:rgb(0%,0%,0%);fill-opacity:0.992157;stroke:none;"/>
  </g>
</mask>
<clipPath id="clip4">
  <rect width="50" height="50"/>
</clipPath>
<g id="surface15" clip-path="url(#clip4)">
<path style=" stroke:none;fill-rule:evenodd;fill:rgb(65.490196%,22.745098%,17.647059%);fill-opacity:1;" d="M 24.542969 6.695312 C 24.808594 7.066406 25.105469 7.417969 25.433594 7.75 C 25.675781 8.25 25.929688 8.746094 26.199219 9.238281 C 26.582031 9.804688 26.988281 10.347656 27.421875 10.867188 C 27.300781 11.378906 27.140625 11.875 26.945312 12.355469 C 26.910156 12.355469 26.894531 12.371094 26.894531 12.402344 C 26.722656 12.621094 26.496094 12.761719 26.222656 12.835938 C 26.191406 12.835938 26.175781 12.851562 26.175781 12.882812 C 25.753906 13.003906 25.320312 13.058594 24.878906 13.050781 C 24.769531 13.171875 24.75 13.308594 24.832031 13.460938 C 24.65625 13.523438 24.480469 13.585938 24.304688 13.652344 C 24.566406 12.953125 24.8125 12.25 25.046875 11.539062 C 25.195312 10.472656 25.246094 9.402344 25.191406 8.324219 C 25.066406 7.742188 24.851562 7.199219 24.542969 6.695312 Z M 24.542969 6.695312 "/>
</g>
<mask id="mask4">
  <g filter="url(#alpha)">
<rect x="0" y="0" width="50" height="50" style="fill:rgb(0%,0%,0%);fill-opacity:0.972549;stroke:none;"/>
  </g>
</mask>
<clipPath id="clip5">
  <rect width="50" height="50"/>
</clipPath>
<g id="surface18" clip-path="url(#clip5)">
<path style=" stroke:none;fill-rule:evenodd;fill:rgb(65.882353%,22.745098%,17.647059%);fill-opacity:1;" d="M 15.476562 8.132812 C 15.097656 9.355469 14.816406 10.605469 14.636719 11.875 C 14.511719 12.371094 14.355469 12.847656 14.15625 13.316406 C 13.867188 13.667969 13.628906 14.054688 13.4375 14.46875 C 13.363281 14.714844 13.433594 14.90625 13.652344 15.042969 C 13.566406 15.140625 13.472656 15.230469 13.363281 15.308594 C 12.742188 15.632812 12.183594 16.039062 11.683594 16.53125 C 11.621094 16.042969 11.664062 15.566406 11.804688 15.089844 C 12.335938 13.546875 13.023438 12.074219 13.867188 10.675781 C 14.378906 9.808594 14.917969 8.960938 15.476562 8.132812 Z M 15.476562 8.132812 "/>
</g>
<mask id="mask5">
  <g filter="url(#alpha)">
<rect x="0" y="0" width="50" height="50" style="fill:rgb(0%,0%,0%);fill-opacity:0.12549;stroke:none;"/>
  </g>
</mask>
<clipPath id="clip6">
  <rect width="50" height="50"/>
</clipPath>
<g id="surface21" clip-path="url(#clip6)">
<path style=" stroke:none;fill-rule:evenodd;fill:rgb(65.490196%,27.058824%,22.352941%);fill-opacity:1;" d="M 23.535156 13.84375 C 23.539062 13.914062 23.523438 13.976562 23.488281 14.035156 C 23.472656 14.035156 23.457031 14.035156 23.441406 14.035156 C 23.449219 13.957031 23.480469 13.890625 23.535156 13.84375 Z M 23.535156 13.84375 "/>
</g>
<mask id="mask6">
  <g filter="url(#alpha)">
<rect x="0" y="0" width="50" height="50" style="fill:rgb(0%,0%,0%);fill-opacity:0.984314;stroke:none;"/>
  </g>
</mask>
<clipPath id="clip7">
  <rect width="50" height="50"/>
</clipPath>
<g id="surface24" clip-path="url(#clip7)">
<path style=" stroke:none;fill-rule:evenodd;fill:rgb(64.705882%,22.352941%,17.647059%);fill-opacity:1;" d="M 18.304688 15.953125 C 18.25 15.988281 18.183594 16.007812 18.113281 16.003906 C 17.839844 15.847656 17.597656 15.648438 17.394531 15.402344 C 17.21875 15.402344 17.058594 15.355469 16.914062 15.257812 C 17.1875 15.226562 17.457031 15.226562 17.730469 15.257812 C 17.898438 15.394531 18.066406 15.53125 18.234375 15.667969 C 18.273438 15.761719 18.296875 15.855469 18.304688 15.953125 Z M 18.304688 15.953125 "/>
</g>
<mask id="mask7">
  <g filter="url(#alpha)">
<rect x="0" y="0" width="50" height="50" style="fill:rgb(0%,0%,0%);fill-opacity:0.996078;stroke:none;"/>
  </g>
</mask>
<clipPath id="clip8">
  <rect width="50" height="50"/>
</clipPath>
<g id="surface27" clip-path="url(#clip8)">
<path style=" stroke:none;fill-rule:evenodd;fill:rgb(66.27451%,23.529412%,18.431373%);fill-opacity:1;" d="M 16.386719 16.578125 C 16.257812 16.59375 16.128906 16.609375 16.003906 16.625 C 15.039062 16.90625 14.054688 17.082031 13.050781 17.15625 C 12.785156 17.132812 12.523438 17.101562 12.261719 17.058594 C 12.714844 16.523438 13.226562 16.0625 13.796875 15.667969 C 13.976562 15.742188 14.167969 15.785156 14.371094 15.785156 C 15.007812 16.082031 15.660156 16.324219 16.339844 16.507812 C 16.367188 16.523438 16.382812 16.550781 16.386719 16.578125 Z M 16.386719 16.578125 "/>
</g>
<mask id="mask8">
  <g filter="url(#alpha)">
<rect x="0" y="0" width="50" height="50" style="fill:rgb(0%,0%,0%);fill-opacity:0.996078;stroke:none;"/>
  </g>
</mask>
<clipPath id="clip9">
  <rect width="50" height="50"/>
</clipPath>
<g id="surface30" clip-path="url(#clip9)">
<path style=" stroke:none;fill-rule:evenodd;fill:rgb(99.607843%,99.607843%,99.607843%);fill-opacity:1;" d="M 16.003906 16.625 C 16.332031 16.832031 16.667969 17.023438 17.011719 17.203125 C 17.445312 17.789062 17.851562 18.398438 18.234375 19.027344 C 18.746094 19.933594 19.03125 20.910156 19.097656 21.953125 C 19.140625 23.121094 19.121094 24.289062 19.050781 25.457031 C 18.929688 25.765625 18.804688 26.066406 18.667969 26.367188 C 18.308594 26.839844 17.992188 27.335938 17.707031 27.855469 C 17.242188 28.230469 16.832031 28.664062 16.484375 29.152344 C 16.449219 29.152344 16.433594 29.167969 16.433594 29.199219 C 15.28125 30.136719 14.066406 30.992188 12.789062 31.765625 C 11.777344 32.519531 11.246094 33.535156 11.203125 34.8125 C 10.664062 36.300781 10.464844 37.835938 10.605469 39.417969 C 10.644531 40.15625 10.820312 40.859375 11.132812 41.53125 C 11.660156 42.554688 12.1875 43.578125 12.714844 44.601562 C 12.835938 44.753906 12.957031 44.90625 13.074219 45.058594 C 13.257812 45.152344 13.417969 45.273438 13.554688 45.417969 C 12.730469 45.503906 11.898438 45.597656 11.058594 45.707031 C 8.378906 45.347656 5.707031 44.929688 3.046875 44.457031 C 3.054688 44.359375 3.046875 44.265625 3.023438 44.167969 C 2.566406 42.765625 2.070312 41.371094 1.535156 39.996094 C 1.414062 39.5625 1.304688 39.132812 1.199219 38.699219 C 1.035156 37.449219 1.042969 36.203125 1.222656 34.957031 C 1.265625 34.941406 1.28125 34.910156 1.273438 34.859375 C 1.273438 34.8125 1.273438 34.765625 1.273438 34.71875 C 1.316406 34.664062 1.332031 34.601562 1.320312 34.523438 C 1.925781 32.171875 2.726562 29.886719 3.71875 27.664062 C 3.75 27.664062 3.765625 27.648438 3.765625 27.613281 C 3.765625 27.597656 3.765625 27.582031 3.765625 27.566406 C 3.796875 27.566406 3.816406 27.550781 3.816406 27.519531 C 3.957031 27.234375 4.125 26.960938 4.320312 26.703125 C 6.34375 24.101562 8.410156 21.523438 10.507812 18.976562 C 11.085938 18.328125 11.667969 17.6875 12.261719 17.058594 C 12.523438 17.101562 12.785156 17.132812 13.050781 17.15625 C 14.054688 17.082031 15.039062 16.90625 16.003906 16.625 Z M 16.003906 16.625 "/>
</g>
<mask id="mask9">
  <g filter="url(#alpha)">
<rect x="0" y="0" width="50" height="50" style="fill:rgb(0%,0%,0%);fill-opacity:0.905882;stroke:none;"/>
  </g>
</mask>
<clipPath id="clip10">
  <rect width="50" height="50"/>
</clipPath>
<g id="surface33" clip-path="url(#clip10)">
<path style=" stroke:none;fill-rule:evenodd;fill:rgb(97.254902%,97.254902%,97.254902%);fill-opacity:1;" d="M 9.046875 19.410156 C 8.746094 20.085938 8.386719 20.722656 7.964844 21.328125 C 7.429688 21.945312 6.859375 22.523438 6.261719 23.054688 C 7.074219 21.753906 8 20.539062 9.046875 19.410156 Z M 9.046875 19.410156 "/>
</g>
<mask id="mask10">
  <g filter="url(#alpha)">
<rect x="0" y="0" width="50" height="50" style="fill:rgb(0%,0%,0%);fill-opacity:0.992157;stroke:none;"/>
  </g>
</mask>
<clipPath id="clip11">
  <rect width="50" height="50"/>
</clipPath>
<g id="surface36" clip-path="url(#clip11)">
<path style=" stroke:none;fill-rule:evenodd;fill:rgb(99.607843%,99.607843%,99.607843%);fill-opacity:1;" d="M 34.1875 43.449219 C 32.804688 43.488281 31.421875 43.472656 30.039062 43.402344 C 28.871094 43.414062 27.710938 43.515625 26.558594 43.714844 C 24.453125 44.101562 22.339844 44.46875 20.226562 44.816406 C 19.078125 44.976562 17.929688 45.058594 16.769531 45.058594 C 16.464844 45.078125 16.179688 45.15625 15.90625 45.296875 C 15.347656 45.34375 14.789062 45.367188 14.226562 45.371094 C 14.140625 45.226562 14.050781 45.085938 13.964844 44.9375 C 13.957031 44.816406 13.949219 44.699219 13.941406 44.578125 C 14.070312 43.625 14.199219 42.675781 14.324219 41.722656 C 14.417969 41.722656 14.515625 41.722656 14.609375 41.722656 C 14.644531 41.765625 14.691406 41.78125 14.753906 41.769531 C 14.773438 41.8125 14.804688 41.828125 14.851562 41.820312 C 14.867188 41.820312 14.882812 41.820312 14.898438 41.820312 C 14.914062 41.859375 14.949219 41.875 14.996094 41.867188 C 15.042969 41.867188 15.089844 41.867188 15.140625 41.867188 C 15.171875 41.867188 15.1875 41.882812 15.1875 41.914062 C 15.25 41.914062 15.316406 41.914062 15.378906 41.914062 C 15.394531 41.953125 15.425781 41.972656 15.476562 41.960938 C 15.570312 41.960938 15.667969 41.960938 15.761719 41.960938 C 16.410156 42.046875 17.066406 42.09375 17.730469 42.105469 C 18.179688 42.144531 18.625 42.1875 19.074219 42.226562 C 19.738281 42.386719 20.410156 42.511719 21.089844 42.609375 C 22.8125 42.71875 24.507812 42.558594 26.175781 42.128906 C 27.011719 41.804688 27.859375 41.519531 28.71875 41.265625 C 29.625 40.820312 30.535156 40.390625 31.453125 39.972656 C 32.027344 39.75 32.617188 39.613281 33.230469 39.5625 C 33.324219 40.042969 33.410156 40.519531 33.492188 41.003906 C 33.65625 41.535156 33.832031 42.0625 34.019531 42.585938 C 34.109375 42.867188 34.164062 43.15625 34.1875 43.449219 Z M 15.761719 41.960938 C 16.242188 41.953125 16.722656 41.960938 17.203125 41.988281 C 17.386719 42.015625 17.5625 42.058594 17.730469 42.105469 C 17.066406 42.09375 16.410156 42.046875 15.761719 41.960938 Z M 15.761719 41.960938 "/>
</g>
<mask id="mask11">
  <g filter="url(#alpha)">
<rect x="0" y="0" width="50" height="50" style="fill:rgb(0%,0%,0%);fill-opacity:0.870588;stroke:none;"/>
  </g>
</mask>
<clipPath id="clip12">
  <rect width="50" height="50"/>
</clipPath>
<g id="surface39" clip-path="url(#clip12)">
<path style=" stroke:none;fill-rule:evenodd;fill:rgb(95.294118%,95.294118%,95.294118%);fill-opacity:1;" d="M 0.742188 40.90625 C 1.136719 42.121094 1.617188 43.304688 2.183594 44.457031 C 2.09375 44.507812 2.003906 44.507812 1.917969 44.457031 C 1.3125 43.34375 0.917969 42.160156 0.742188 40.90625 Z M 0.742188 40.90625 "/>
</g>
</defs>
<g id="surface1">
<use xlink:href="#surface6" mask="url(#mask0)"/>
<use xlink:href="#surface9" mask="url(#mask1)"/>
<path style=" stroke:none;fill-rule:evenodd;fill:rgb(65.098039%,22.745098%,17.647059%);fill-opacity:1;" d="M 24.542969 6.695312 C 23.832031 5.671875 22.855469 5.039062 21.617188 4.796875 C 21.308594 4.570312 21.011719 4.320312 20.730469 4.054688 C 20.707031 3.960938 20.699219 3.863281 20.707031 3.765625 C 21.59375 3.757812 22.375 4.035156 23.054688 4.605469 C 23.714844 5.191406 24.210938 5.886719 24.542969 6.695312 Z M 24.542969 6.695312 "/>
<use xlink:href="#surface12" mask="url(#mask2)"/>
<path style=" stroke:none;fill-rule:evenodd;fill:rgb(99.215686%,99.215686%,99.215686%);fill-opacity:1;" d="M 24.734375 9.046875 C 24.703125 9.8125 24.660156 10.582031 24.617188 11.347656 C 24.480469 11.808594 24.3125 12.257812 24.113281 12.691406 C 23.894531 13.0625 23.703125 13.445312 23.535156 13.84375 C 23.480469 13.890625 23.449219 13.957031 23.441406 14.035156 C 23.261719 14.316406 23.070312 14.585938 22.863281 14.851562 C 22.816406 14.867188 22.785156 14.898438 22.769531 14.945312 C 22.671875 14.945312 22.625 14.996094 22.625 15.089844 C 22.5 15.152344 22.386719 15.234375 22.289062 15.332031 C 21.769531 14.882812 21.242188 14.445312 20.707031 14.011719 C 20.277344 13.710938 19.832031 13.445312 19.363281 13.21875 C 19.347656 13.1875 19.328125 13.15625 19.3125 13.125 C 19.410156 13.050781 19.519531 13.011719 19.648438 13.003906 C 19.777344 12.859375 19.777344 12.714844 19.648438 12.570312 C 19.425781 12.59375 19.242188 12.523438 19.097656 12.355469 C 18.945312 11.957031 18.867188 11.539062 18.859375 11.109375 C 18.8125 9.820312 18.894531 8.542969 19.097656 7.269531 C 19.226562 6.804688 19.441406 6.386719 19.746094 6.023438 C 20.484375 5.644531 21.265625 5.492188 22.097656 5.566406 C 22.632812 5.664062 23.074219 5.925781 23.417969 6.359375 C 24.046875 7.15625 24.488281 8.054688 24.734375 9.046875 Z M 24.734375 9.046875 "/>
<path style=" stroke:none;fill-rule:evenodd;fill:rgb(64.313725%,23.529412%,18.823529%);fill-opacity:1;" d="M 24.734375 9.046875 C 24.488281 8.054688 24.046875 7.15625 23.417969 6.359375 C 23.074219 5.925781 22.632812 5.664062 22.097656 5.566406 C 21.265625 5.492188 20.484375 5.644531 19.746094 6.023438 C 19.851562 5.878906 19.976562 5.757812 20.128906 5.664062 C 21.09375 5.164062 22.039062 5.214844 22.960938 5.804688 C 24.109375 6.59375 24.703125 7.671875 24.734375 9.046875 Z M 24.734375 9.046875 "/>
<use xlink:href="#surface15" mask="url(#mask3)"/>
<path style=" stroke:none;fill-rule:evenodd;fill:rgb(95.686275%,92.941176%,92.54902%);fill-opacity:1;" d="M 18.640625 7.078125 C 18.398438 8.214844 18.300781 9.367188 18.355469 10.53125 C 18.261719 10.175781 18.191406 9.808594 18.136719 9.429688 C 18.039062 8.582031 18.207031 7.796875 18.640625 7.078125 Z M 18.640625 7.078125 "/>
<path style=" stroke:none;fill-rule:evenodd;fill:rgb(11.764706%,11.764706%,11.372549%);fill-opacity:1;" d="M 22.386719 7.652344 C 22.5625 7.617188 22.679688 7.679688 22.746094 7.84375 C 22.898438 8.613281 23.125 9.367188 23.417969 10.101562 C 23.488281 10.511719 23.34375 10.625 22.984375 10.4375 C 22.695312 9.601562 22.445312 8.753906 22.242188 7.894531 C 22.253906 7.789062 22.300781 7.707031 22.386719 7.652344 Z M 22.386719 7.652344 "/>
<use xlink:href="#surface18" mask="url(#mask4)"/>
<path style=" stroke:none;fill-rule:evenodd;fill:rgb(13.333333%,13.333333%,12.941176%);fill-opacity:1;" d="M 20.609375 8.230469 C 20.921875 8.148438 21.054688 8.261719 21.015625 8.566406 C 20.964844 8.695312 20.890625 8.816406 20.800781 8.925781 C 20.453125 8.976562 20.316406 8.824219 20.394531 8.46875 C 20.441406 8.363281 20.515625 8.285156 20.609375 8.230469 Z M 20.609375 8.230469 "/>
<path style=" stroke:none;fill-rule:evenodd;fill:rgb(13.333333%,13.333333%,12.941176%);fill-opacity:1;" d="M 23.726562 8.375 C 24.039062 8.292969 24.175781 8.40625 24.136719 8.710938 C 24.082031 8.839844 24.011719 8.960938 23.921875 9.070312 C 23.570312 9.117188 23.433594 8.964844 23.511719 8.613281 C 23.5625 8.507812 23.632812 8.429688 23.726562 8.375 Z M 23.726562 8.375 "/>
<path style=" stroke:none;fill-rule:evenodd;fill:rgb(12.54902%,12.54902%,12.156863%);fill-opacity:1;" d="M 21.28125 11.058594 C 21.382812 11.054688 21.480469 11.078125 21.570312 11.132812 C 21.769531 11.523438 22.078125 11.769531 22.503906 11.875 C 22.636719 11.828125 22.773438 11.789062 22.914062 11.757812 C 23.007812 11.628906 23.105469 11.5 23.199219 11.371094 C 23.535156 11.390625 23.625 11.558594 23.464844 11.875 C 23.292969 12.144531 23.042969 12.292969 22.722656 12.332031 C 22.101562 12.347656 21.613281 12.097656 21.257812 11.589844 C 21.09375 11.398438 21.101562 11.222656 21.28125 11.058594 Z M 21.28125 11.058594 "/>
<path style=" stroke:none;fill-rule:evenodd;fill:rgb(64.313725%,25.490196%,20.784314%);fill-opacity:1;" d="M 24.113281 12.691406 C 24.046875 13.144531 23.855469 13.527344 23.535156 13.84375 C 23.703125 13.445312 23.894531 13.0625 24.113281 12.691406 Z M 24.113281 12.691406 "/>
<path style=" stroke:none;fill-rule:evenodd;fill:rgb(62.352941%,21.960784%,17.254902%);fill-opacity:1;" d="M 16.484375 13.84375 C 16.5625 13.835938 16.644531 13.84375 16.722656 13.867188 C 16.902344 14.003906 17.027344 14.171875 17.105469 14.371094 C 16.820312 14.273438 16.53125 14.167969 16.242188 14.058594 C 16.34375 14.007812 16.425781 13.9375 16.484375 13.84375 Z M 16.484375 13.84375 "/>
<use xlink:href="#surface21" mask="url(#mask5)"/>
<path style=" stroke:none;fill-rule:evenodd;fill:rgb(57.647059%,20.784314%,16.470588%);fill-opacity:1;" d="M 17.585938 14.035156 C 17.589844 14.007812 17.605469 13.992188 17.632812 13.988281 C 17.714844 14.019531 17.792969 14.050781 17.875 14.082031 C 17.925781 14.125 17.933594 14.171875 17.898438 14.226562 C 17.800781 14.152344 17.695312 14.089844 17.585938 14.035156 Z M 17.585938 14.035156 "/>
<path style=" stroke:none;fill-rule:evenodd;fill:rgb(41.176471%,17.254902%,14.117647%);fill-opacity:1;" d="M 15.476562 14.277344 C 15.511719 14.308594 15.542969 14.347656 15.570312 14.394531 C 15.242188 14.507812 15.210938 14.46875 15.476562 14.277344 Z M 15.476562 14.277344 "/>
<path style=" stroke:none;fill-rule:evenodd;fill:rgb(48.627451%,18.431373%,15.294118%);fill-opacity:1;" d="M 18.882812 14.753906 C 18.96875 14.761719 18.984375 14.792969 18.929688 14.851562 C 18.890625 14.828125 18.875 14.796875 18.882812 14.753906 Z M 18.882812 14.753906 "/>
<use xlink:href="#surface24" mask="url(#mask6)"/>
<use xlink:href="#surface27" mask="url(#mask7)"/>
<use xlink:href="#surface30" mask="url(#mask8)"/>
<path style=" stroke:none;fill-rule:evenodd;fill:rgb(58.823529%,58.823529%,58.823529%);fill-opacity:1;" d="M 10.339844 18.355469 C 10.390625 18.375 10.398438 18.40625 10.363281 18.449219 C 10.285156 18.53125 10.203125 18.609375 10.125 18.691406 C 10.09375 18.65625 10.09375 18.625 10.125 18.59375 C 10.207031 18.519531 10.277344 18.441406 10.339844 18.355469 Z M 10.339844 18.355469 "/>
<use xlink:href="#surface33" mask="url(#mask9)"/>
<path style=" stroke:none;fill-rule:evenodd;fill:rgb(68.235294%,68.235294%,68.235294%);fill-opacity:1;" d="M 20.511719 22.914062 C 20.5625 23.019531 20.554688 23.132812 20.488281 23.25 C 20.472656 23.136719 20.480469 23.023438 20.511719 22.914062 Z M 20.511719 22.914062 "/>
<path style=" stroke:none;fill-rule:evenodd;fill:rgb(83.137255%,83.137255%,83.137255%);fill-opacity:1;" d="M 32.988281 38.941406 C 33.082031 38.960938 33.101562 39.007812 33.039062 39.082031 C 32.933594 39.160156 32.824219 39.183594 32.703125 39.15625 C 32.808594 39.09375 32.90625 39.023438 32.988281 38.941406 Z M 32.988281 38.941406 "/>
<use xlink:href="#surface36" mask="url(#mask10)"/>
<path style=" stroke:none;fill-rule:evenodd;fill:rgb(77.647059%,77.647059%,77.647059%);fill-opacity:1;" d="M 1.03125 39.898438 C 1.371094 40.71875 1.621094 41.566406 1.777344 42.441406 C 1.445312 41.617188 1.195312 40.769531 1.03125 39.898438 Z M 1.03125 39.898438 "/>
<use xlink:href="#surface39" mask="url(#mask11)"/>
</g>
</svg>
