<?xml version="1.0" encoding="UTF-8"?>
<svg xmlns="http://www.w3.org/2000/svg" xmlns:xlink="http://www.w3.org/1999/xlink" width="50pt" height="50pt" viewBox="0 0 50 50" version="1.1">
<defs>
<filter id="alpha" filterUnits="objectBoundingBox" x="0%" y="0%" width="100%" height="100%">
  <feColorMatrix type="matrix" in="SourceGraphic" values="0 0 0 0 1 0 0 0 0 1 0 0 0 0 1 0 0 0 1 0"/>
</filter>
<mask id="mask0">
  <g filter="url(#alpha)">
<rect x="0" y="0" width="50" height="50" style="fill:rgb(0%,0%,0%);fill-opacity:0.984314;stroke:none;"/>
  </g>
</mask>
<clipPath id="clip1">
  <rect width="50" height="50"/>
</clipPath>
<g id="surface6" clip-path="url(#clip1)">
<path style=" stroke:none;fill-rule:evenodd;fill:rgb(0%,0%,0%);fill-opacity:1;" d="M 27.519531 3.046875 C 27.996094 3.460938 28.460938 3.890625 28.910156 4.34375 C 29.40625 4.875 29.925781 5.390625 30.46875 5.878906 C 31.070312 6.761719 31.519531 7.722656 31.8125 8.757812 C 32.640625 11.742188 32.609375 14.714844 31.71875 17.683594 C 31.191406 19.601562 30.3125 21.328125 29.078125 22.863281 C 28.441406 23.566406 27.746094 24.199219 26.992188 24.761719 C 26.59375 25.109375 26.25 25.5 25.960938 25.9375 C 25.734375 26.539062 25.621094 27.160156 25.625 27.808594 C 25.585938 29.3125 25.609375 30.816406 25.695312 32.316406 C 25.671875 32.894531 25.628906 33.46875 25.574219 34.046875 C 25.414062 34.925781 25.234375 35.808594 25.046875 36.683594 C 24.96875 37.566406 24.875 38.445312 24.761719 39.324219 C 24.585938 40.054688 24.425781 40.792969 24.28125 41.53125 C 24.210938 42.875 24.128906 44.21875 24.039062 45.5625 C 23.964844 45.984375 23.820312 46.386719 23.609375 46.761719 C 23.558594 47.03125 23.511719 47.304688 23.464844 47.578125 C 23.292969 47.917969 23.011719 48.09375 22.625 48.105469 C 22.089844 48.082031 21.789062 47.8125 21.714844 47.289062 C 21.289062 47.28125 20.960938 47.105469 20.730469 46.761719 C 20.355469 44.890625 19.984375 43.019531 19.625 41.148438 C 18.679688 38.304688 17.75 35.460938 16.84375 32.605469 C 16.28125 30.71875 15.785156 28.816406 15.355469 26.894531 C 15.222656 26.4375 15.015625 26.023438 14.730469 25.648438 C 12.429688 23.476562 10.703125 20.917969 9.550781 17.96875 C 8.527344 15.210938 8.390625 12.410156 9.140625 9.574219 C 9.761719 7.929688 10.703125 6.507812 11.972656 5.300781 C 13.351562 3.871094 15.011719 2.917969 16.960938 2.445312 C 18.039062 2.292969 19.113281 2.097656 20.175781 1.871094 C 22.035156 1.652344 23.875 1.765625 25.695312 2.207031 C 26.355469 2.390625 26.960938 2.671875 27.519531 3.046875 Z M 23.824219 29.871094 C 23.867188 31.023438 23.875 32.171875 23.847656 33.324219 C 23.714844 34.292969 23.539062 35.253906 23.320312 36.203125 C 23.238281 37.085938 23.140625 37.964844 23.03125 38.84375 C 22.839844 39.671875 22.664062 40.503906 22.503906 41.339844 C 22.414062 42.503906 22.351562 43.671875 22.3125 44.839844 C 22.304688 44.941406 22.28125 45.039062 22.242188 45.128906 C 21.988281 44.316406 21.828125 43.484375 21.761719 42.632812 C 22.429688 38.371094 23.117188 34.117188 23.824219 29.871094 Z M 23.824219 29.871094 "/>
</g>
<mask id="mask1">
  <g filter="url(#alpha)">
<rect x="0" y="0" width="50" height="50" style="fill:rgb(0%,0%,0%);fill-opacity:0.839216;stroke:none;"/>
  </g>
</mask>
<clipPath id="clip2">
  <rect width="50" height="50"/>
</clipPath>
<g id="surface9" clip-path="url(#clip2)">
<path style=" stroke:none;fill-rule:evenodd;fill:rgb(91.764706%,90.196078%,87.45098%);fill-opacity:1;" d="M 27.519531 3.046875 C 28.214844 3.230469 28.679688 3.664062 28.910156 4.34375 C 28.460938 3.890625 27.996094 3.460938 27.519531 3.046875 Z M 27.519531 3.046875 "/>
</g>
<mask id="mask2">
  <g filter="url(#alpha)">
<rect x="0" y="0" width="50" height="50" style="fill:rgb(0%,0%,0%);fill-opacity:0.901961;stroke:none;"/>
  </g>
</mask>
<clipPath id="clip3">
  <rect width="50" height="50"/>
</clipPath>
<g id="surface12" clip-path="url(#clip3)">
<path style=" stroke:none;fill-rule:evenodd;fill:rgb(92.54902%,90.980392%,88.235294%);fill-opacity:1;" d="M 11.972656 5.300781 C 10.703125 6.507812 9.761719 7.929688 9.140625 9.574219 C 9.183594 8.214844 9.710938 7.085938 10.722656 6.191406 C 11.117188 5.859375 11.535156 5.5625 11.972656 5.300781 Z M 11.972656 5.300781 "/>
</g>
<mask id="mask3">
  <g filter="url(#alpha)">
<rect x="0" y="0" width="50" height="50" style="fill:rgb(0%,0%,0%);fill-opacity:0.968627;stroke:none;"/>
  </g>
</mask>
<clipPath id="clip4">
  <rect width="50" height="50"/>
</clipPath>
<g id="surface15" clip-path="url(#clip4)">
<path style=" stroke:none;fill-rule:evenodd;fill:rgb(0%,0%,0%);fill-opacity:1;" d="M 31.644531 40.523438 C 32.328125 40.4375 32.710938 40.734375 32.796875 41.410156 C 32.789062 41.609375 32.734375 41.792969 32.628906 41.960938 C 31.71875 42.683594 30.902344 43.5 30.183594 44.410156 C 29.972656 44.773438 29.757812 45.132812 29.535156 45.488281 C 29.175781 45.695312 28.808594 45.710938 28.429688 45.539062 C 28.039062 45.195312 27.949219 44.789062 28.167969 44.3125 C 28.480469 43.6875 28.863281 43.113281 29.320312 42.585938 C 30.03125 41.8125 30.804688 41.125 31.644531 40.523438 Z M 31.644531 40.523438 "/>
</g>
<mask id="mask4">
  <g filter="url(#alpha)">
<rect x="0" y="0" width="50" height="50" style="fill:rgb(0%,0%,0%);fill-opacity:0.968627;stroke:none;"/>
  </g>
</mask>
<clipPath id="clip5">
  <rect width="50" height="50"/>
</clipPath>
<g id="surface18" clip-path="url(#clip5)">
<path style=" stroke:none;fill-rule:evenodd;fill:rgb(0%,0%,0%);fill-opacity:1;" d="M 12.117188 40.953125 C 12.441406 40.914062 12.746094 40.972656 13.027344 41.121094 C 13.933594 41.808594 14.8125 42.527344 15.667969 43.28125 C 16.25 43.695312 16.84375 44.09375 17.441406 44.480469 C 17.816406 44.863281 17.871094 45.285156 17.609375 45.753906 C 17.296875 46.089844 16.921875 46.175781 16.484375 46.015625 C 15.4375 45.375 14.464844 44.636719 13.554688 43.808594 C 12.914062 43.359375 12.296875 42.871094 11.707031 42.347656 C 11.4375 41.757812 11.574219 41.296875 12.117188 40.953125 Z M 12.117188 40.953125 "/>
</g>
<mask id="mask5">
  <g filter="url(#alpha)">
<rect x="0" y="0" width="50" height="50" style="fill:rgb(0%,0%,0%);fill-opacity:0.972549;stroke:none;"/>
  </g>
</mask>
<clipPath id="clip6">
  <rect width="50" height="50"/>
</clipPath>
<g id="surface21" clip-path="url(#clip6)">
<path style=" stroke:none;fill-rule:evenodd;fill:rgb(0%,0%,0%);fill-opacity:1;" d="M 40.8125 42.492188 C 41.164062 42.492188 41.5 42.5625 41.820312 42.707031 C 42.15625 43.019531 42.242188 43.394531 42.082031 43.832031 C 41.785156 44.378906 41.347656 44.539062 40.761719 44.3125 C 38.46875 45.265625 36.183594 46.234375 33.902344 47.21875 C 33.1875 47.53125 32.449219 47.785156 31.695312 47.984375 C 31.0625 48.128906 30.453125 48.066406 29.871094 47.792969 C 29.375 47.496094 29.222656 47.070312 29.414062 46.519531 C 29.648438 46.128906 29.992188 45.960938 30.445312 46.015625 C 30.648438 46.121094 30.847656 46.226562 31.046875 46.328125 C 31.28125 46.292969 31.515625 46.234375 31.742188 46.160156 C 34.527344 45.003906 37.3125 43.835938 40.089844 42.660156 C 40.335938 42.59375 40.574219 42.539062 40.8125 42.492188 Z M 40.8125 42.492188 "/>
</g>
<mask id="mask6">
  <g filter="url(#alpha)">
<rect x="0" y="0" width="50" height="50" style="fill:rgb(0%,0%,0%);fill-opacity:0.972549;stroke:none;"/>
  </g>
</mask>
<clipPath id="clip7">
  <rect width="50" height="50"/>
</clipPath>
<g id="surface24" clip-path="url(#clip7)">
<path style=" stroke:none;fill-rule:evenodd;fill:rgb(0%,0%,0%);fill-opacity:1;" d="M 8.230469 46.425781 C 8.558594 46.382812 8.847656 46.472656 9.09375 46.6875 C 10.671875 46.886719 12.257812 47.03125 13.84375 47.121094 C 14.320312 47.378906 14.488281 47.769531 14.347656 48.296875 C 14.074219 48.777344 13.65625 48.953125 13.101562 48.824219 C 11.53125 48.769531 9.972656 48.617188 8.421875 48.367188 C 7.722656 48.113281 7.457031 47.628906 7.628906 46.90625 C 7.769531 46.660156 7.96875 46.503906 8.230469 46.425781 Z M 8.230469 46.425781 "/>
</g>
</defs>
<g id="surface1">
<use xlink:href="#surface6" mask="url(#mask0)"/>
<use xlink:href="#surface9" mask="url(#mask1)"/>
<path style=" stroke:none;fill-rule:evenodd;fill:rgb(94.509804%,92.941176%,90.196078%);fill-opacity:1;" d="M 23.824219 29.871094 C 23.117188 34.117188 22.429688 38.371094 21.761719 42.632812 C 21.59375 41.6875 21.375 40.742188 21.113281 39.804688 C 20.101562 36.976562 19.160156 34.128906 18.28125 31.261719 C 17.808594 29.683594 17.40625 28.082031 17.082031 26.464844 C 16.925781 25.816406 16.65625 25.222656 16.265625 24.6875 C 15.496094 23.902344 14.746094 23.101562 14.011719 22.289062 C 13.488281 21.617188 13.019531 20.910156 12.597656 20.175781 C 12.605469 20.128906 12.589844 20.097656 12.546875 20.082031 C 12.527344 20.023438 12.496094 19.976562 12.453125 19.9375 C 12.460938 19.890625 12.445312 19.859375 12.402344 19.839844 C 12.414062 19.792969 12.394531 19.761719 12.355469 19.746094 C 12.363281 19.699219 12.347656 19.667969 12.308594 19.648438 C 12.316406 19.601562 12.300781 19.570312 12.261719 19.554688 C 12.261719 19.523438 12.242188 19.503906 12.210938 19.503906 C 12.21875 19.457031 12.203125 19.425781 12.164062 19.410156 C 12.171875 19.363281 12.15625 19.332031 12.117188 19.3125 C 12.125 19.265625 12.109375 19.234375 12.066406 19.21875 C 12.078125 19.171875 12.058594 19.136719 12.019531 19.121094 C 12.027344 19.074219 12.011719 19.042969 11.972656 19.027344 C 11.980469 18.976562 11.964844 18.945312 11.925781 18.929688 C 11.933594 18.882812 11.917969 18.851562 11.875 18.832031 C 11.882812 18.785156 11.867188 18.753906 11.828125 18.738281 C 11.835938 18.691406 11.820312 18.660156 11.78125 18.640625 C 11.789062 18.59375 11.773438 18.5625 11.730469 18.546875 C 11.652344 18.382812 11.570312 18.222656 11.492188 18.066406 C 10.507812 15.820312 10.210938 13.484375 10.605469 11.058594 C 10.914062 9.609375 11.554688 8.328125 12.523438 7.222656 C 13.621094 5.957031 14.941406 5.003906 16.484375 4.367188 C 16.78125 4.265625 17.085938 4.183594 17.394531 4.125 C 18.519531 3.960938 19.636719 3.765625 20.753906 3.550781 C 22.492188 3.378906 24.1875 3.570312 25.839844 4.125 C 26.144531 4.277344 26.429688 4.453125 26.703125 4.65625 C 27.136719 5.070312 27.550781 5.503906 27.949219 5.949219 C 28.402344 6.308594 28.828125 6.699219 29.222656 7.125 C 30.730469 9.953125 31.097656 12.929688 30.328125 16.050781 C 29.980469 17.523438 29.449219 18.933594 28.742188 20.273438 C 28.457031 20.761719 28.136719 21.226562 27.78125 21.664062 C 26.839844 22.542969 25.894531 23.425781 24.953125 24.304688 C 24.292969 25.144531 23.921875 26.105469 23.847656 27.183594 C 23.824219 28.078125 23.816406 28.972656 23.824219 29.871094 Z M 23.824219 29.871094 "/>
<use xlink:href="#surface12" mask="url(#mask2)"/>
<path style=" stroke:none;fill-rule:evenodd;fill:rgb(0.392157%,0.392157%,0.392157%);fill-opacity:1;" d="M 20.371094 8.277344 C 22.46875 8.285156 24.15625 9.113281 25.433594 10.773438 C 26.222656 11.945312 26.398438 13.207031 25.960938 14.5625 C 24.949219 17.390625 22.941406 18.742188 19.9375 18.617188 C 18.113281 18.21875 16.777344 17.1875 15.929688 15.523438 C 15.550781 14.59375 15.519531 13.648438 15.835938 12.691406 C 16.109375 12 16.398438 11.3125 16.699219 10.628906 C 16.957031 9.992188 17.347656 9.457031 17.875 9.019531 C 18.011719 8.929688 18.15625 8.847656 18.304688 8.78125 C 18.984375 8.5625 19.671875 8.394531 20.371094 8.277344 Z M 20.371094 8.277344 "/>
<path style=" stroke:none;fill-rule:evenodd;fill:rgb(99.215686%,99.215686%,99.215686%);fill-opacity:1;" d="M 20.511719 10.003906 C 21.273438 9.976562 21.976562 10.160156 22.625 10.554688 C 23.238281 10.945312 23.757812 11.433594 24.183594 12.019531 C 24.476562 12.65625 24.523438 13.3125 24.328125 13.988281 C 23.664062 15.980469 22.28125 16.945312 20.175781 16.890625 C 18.824219 16.5625 17.890625 15.753906 17.371094 14.46875 C 17.3125 13.992188 17.359375 13.527344 17.515625 13.074219 C 17.800781 12.375 18.113281 11.6875 18.449219 11.011719 C 18.824219 11.027344 19.136719 10.902344 19.386719 10.628906 C 19.421875 10.5 19.488281 10.386719 19.578125 10.292969 C 19.855469 10.363281 20.121094 10.324219 20.371094 10.171875 C 20.425781 10.121094 20.476562 10.066406 20.511719 10.003906 Z M 20.511719 10.003906 "/>
<use xlink:href="#surface15" mask="url(#mask3)"/>
<use xlink:href="#surface18" mask="url(#mask4)"/>
<use xlink:href="#surface21" mask="url(#mask5)"/>
<use xlink:href="#surface24" mask="url(#mask6)"/>
</g>
</svg>
