<?xml version="1.0" encoding="UTF-8"?>
<svg xmlns="http://www.w3.org/2000/svg" xmlns:xlink="http://www.w3.org/1999/xlink" width="50pt" height="50pt" viewBox="0 0 50 50" version="1.1">
<defs>
<filter id="alpha" filterUnits="objectBoundingBox" x="0%" y="0%" width="100%" height="100%">
  <feColorMatrix type="matrix" in="SourceGraphic" values="0 0 0 0 1 0 0 0 0 1 0 0 0 0 1 0 0 0 1 0"/>
</filter>
<mask id="mask0">
  <g filter="url(#alpha)">
<rect x="0" y="0" width="50" height="50" style="fill:rgb(0%,0%,0%);fill-opacity:0.941176;stroke:none;"/>
  </g>
</mask>
<clipPath id="clip1">
  <rect width="50" height="50"/>
</clipPath>
<g id="surface6" clip-path="url(#clip1)">
<path style=" stroke:none;fill-rule:evenodd;fill:rgb(12.54902%,11.764706%,11.764706%);fill-opacity:1;" d="M 43.640625 31.070312 C 43.523438 30.929688 43.523438 30.792969 43.640625 30.664062 C 45.789062 29.792969 47.207031 28.25 47.890625 26.03125 C 48.492188 23.566406 48.15625 21.230469 46.882812 19.027344 C 45.691406 17.066406 44.164062 15.410156 42.296875 14.058594 C 37.097656 10.386719 31.324219 8.933594 24.976562 9.691406 C 23.277344 9.964844 21.617188 10.371094 19.984375 10.917969 C 19.96875 10.890625 19.953125 10.867188 19.9375 10.84375 C 19.996094 10.777344 20.058594 10.722656 20.128906 10.675781 C 23.023438 9.515625 26.03125 9.011719 29.152344 9.164062 C 34.675781 9.378906 39.554688 11.234375 43.785156 14.730469 C 45.601562 16.304688 47 18.183594 47.984375 20.371094 C 49.1875 23.386719 48.882812 26.234375 47.074219 28.910156 C 46.28125 29.976562 45.246094 30.703125 43.976562 31.09375 C 43.855469 31.132812 43.746094 31.125 43.640625 31.070312 Z M 43.640625 31.070312 "/>
</g>
<mask id="mask1">
  <g filter="url(#alpha)">
<rect x="0" y="0" width="50" height="50" style="fill:rgb(0%,0%,0%);fill-opacity:0.941176;stroke:none;"/>
  </g>
</mask>
<clipPath id="clip2">
  <rect width="50" height="50"/>
</clipPath>
<g id="surface9" clip-path="url(#clip2)">
<path style=" stroke:none;fill-rule:evenodd;fill:rgb(12.941176%,11.764706%,11.764706%);fill-opacity:1;" d="M 10.484375 11.589844 C 10.4375 11.675781 10.46875 11.738281 10.582031 11.78125 C 10.640625 11.921875 10.738281 12.03125 10.867188 12.117188 C 10.929688 12.257812 11.023438 12.367188 11.15625 12.453125 C 11.203125 12.46875 11.238281 12.5 11.253906 12.546875 C 11.28125 12.65625 11.34375 12.734375 11.445312 12.789062 C 11.796875 13.125 12.117188 13.492188 12.402344 13.890625 C 12.433594 14 12.496094 14.078125 12.597656 14.132812 C 12.65625 14.273438 12.753906 14.382812 12.882812 14.46875 C 14.003906 13.410156 15.285156 12.59375 16.722656 12.019531 C 17.058594 11.894531 17.402344 11.78125 17.753906 11.683594 C 17.898438 11.679688 17.9375 11.738281 17.875 11.851562 C 16.058594 12.457031 14.476562 13.421875 13.125 14.753906 C 13.890625 15.75 14.683594 16.722656 15.5 17.683594 C 15.523438 17.882812 15.4375 17.953125 15.234375 17.898438 C 15.121094 17.800781 15.023438 17.6875 14.945312 17.5625 C 13.960938 17.058594 12.992188 16.523438 12.042969 15.953125 C 10.25 18.195312 9.441406 20.753906 9.621094 23.632812 C 10.640625 23.386719 11.675781 23.257812 12.714844 23.25 C 12.738281 23.328125 12.746094 23.40625 12.738281 23.488281 C 12.363281 23.554688 11.996094 23.632812 11.636719 23.726562 C 10.535156 23.820312 9.429688 23.867188 8.324219 23.871094 C 8.382812 23.054688 8.449219 22.242188 8.515625 21.425781 C 8.207031 21.421875 7.90625 21.453125 7.605469 21.519531 C 7.292969 21.542969 6.988281 21.59375 6.695312 21.664062 C 6.59375 21.65625 6.496094 21.671875 6.40625 21.714844 C 6.1875 21.710938 5.976562 21.742188 5.78125 21.808594 C 5.585938 21.820312 5.394531 21.851562 5.207031 21.90625 C 4.988281 21.902344 4.777344 21.933594 4.582031 22 C 4.382812 22.003906 4.191406 22.035156 4.007812 22.097656 C 3.800781 22.089844 3.609375 22.121094 3.429688 22.191406 C 3.414062 22.191406 3.398438 22.191406 3.382812 22.191406 C 2.925781 22.226562 2.476562 22.289062 2.039062 22.386719 C 1.609375 22.429688 1.175781 22.460938 0.742188 22.480469 C 0.738281 22.433594 0.753906 22.394531 0.792969 22.359375 C 3.460938 21.890625 6.128906 21.460938 8.804688 21.066406 C 8.953125 21.234375 8.921875 21.335938 8.710938 21.378906 C 8.707031 22.195312 8.699219 23.007812 8.683594 23.824219 C 8.8125 23.765625 8.949219 23.734375 9.09375 23.726562 C 9.03125 20.796875 9.890625 18.175781 11.660156 15.859375 C 11.691406 15.828125 11.691406 15.796875 11.660156 15.761719 C 10.953125 15.347656 10.257812 14.917969 9.574219 14.46875 C 9.15625 14.972656 8.730469 15.46875 8.300781 15.953125 C 6.394531 15.125 4.515625 14.238281 2.664062 13.292969 C 2.511719 13.21875 2.386719 13.121094 2.277344 13.003906 C 2.316406 12.890625 2.371094 12.785156 2.445312 12.691406 C 3.203125 11.792969 4.035156 10.976562 4.941406 10.246094 C 4.980469 10.253906 5.023438 10.261719 5.0625 10.269531 C 6.148438 11.179688 7.316406 11.972656 8.566406 12.644531 C 9.085938 12.226562 9.613281 11.820312 10.148438 11.421875 C 10.328125 11.355469 10.4375 11.414062 10.484375 11.589844 Z M 10.484375 11.589844 "/>
</g>
<mask id="mask2">
  <g filter="url(#alpha)">
<rect x="0" y="0" width="50" height="50" style="fill:rgb(0%,0%,0%);fill-opacity:0.827451;stroke:none;"/>
  </g>
</mask>
<clipPath id="clip3">
  <rect width="50" height="50"/>
</clipPath>
<g id="surface12" clip-path="url(#clip3)">
<path style=" stroke:none;fill-rule:evenodd;fill:rgb(95.294118%,95.294118%,95.294118%);fill-opacity:1;" d="M 10.484375 11.589844 C 10.539062 11.640625 10.570312 11.707031 10.582031 11.78125 C 10.46875 11.738281 10.4375 11.675781 10.484375 11.589844 Z M 10.484375 11.589844 "/>
</g>
<mask id="mask3">
  <g filter="url(#alpha)">
<rect x="0" y="0" width="50" height="50" style="fill:rgb(0%,0%,0%);fill-opacity:0.988235;stroke:none;"/>
  </g>
</mask>
<clipPath id="clip4">
  <rect width="50" height="50"/>
</clipPath>
<g id="surface15" clip-path="url(#clip4)">
<path style=" stroke:none;fill-rule:evenodd;fill:rgb(52.941176%,52.54902%,52.54902%);fill-opacity:1;" d="M 11.253906 12.546875 C 11.351562 12.601562 11.417969 12.679688 11.445312 12.789062 C 11.34375 12.734375 11.28125 12.65625 11.253906 12.546875 Z M 11.253906 12.546875 "/>
</g>
<mask id="mask4">
  <g filter="url(#alpha)">
<rect x="0" y="0" width="50" height="50" style="fill:rgb(0%,0%,0%);fill-opacity:0.988235;stroke:none;"/>
  </g>
</mask>
<clipPath id="clip5">
  <rect width="50" height="50"/>
</clipPath>
<g id="surface18" clip-path="url(#clip5)">
<path style=" stroke:none;fill-rule:evenodd;fill:rgb(62.745098%,62.352941%,62.352941%);fill-opacity:1;" d="M 12.402344 13.890625 C 12.503906 13.945312 12.566406 14.023438 12.597656 14.132812 C 12.496094 14.078125 12.433594 14 12.402344 13.890625 Z M 12.402344 13.890625 "/>
</g>
<mask id="mask5">
  <g filter="url(#alpha)">
<rect x="0" y="0" width="50" height="50" style="fill:rgb(0%,0%,0%);fill-opacity:0.976471;stroke:none;"/>
  </g>
</mask>
<clipPath id="clip6">
  <rect width="50" height="50"/>
</clipPath>
<g id="surface21" clip-path="url(#clip6)">
<path style=" stroke:none;fill-rule:evenodd;fill:rgb(66.666667%,66.666667%,66.666667%);fill-opacity:1;" d="M 12.597656 14.132812 C 12.726562 14.214844 12.824219 14.328125 12.882812 14.46875 C 12.753906 14.382812 12.65625 14.273438 12.597656 14.132812 Z M 12.597656 14.132812 "/>
</g>
<mask id="mask6">
  <g filter="url(#alpha)">
<rect x="0" y="0" width="50" height="50" style="fill:rgb(0%,0%,0%);fill-opacity:0.94902;stroke:none;"/>
  </g>
</mask>
<clipPath id="clip7">
  <rect width="50" height="50"/>
</clipPath>
<g id="surface24" clip-path="url(#clip7)">
<path style=" stroke:none;fill-rule:evenodd;fill:rgb(12.54902%,11.764706%,11.764706%);fill-opacity:1;" d="M 0.601562 22.578125 C 0.632812 22.59375 0.664062 22.609375 0.695312 22.625 C 0.757812 23.441406 0.816406 24.253906 0.863281 25.070312 C 0.894531 25.335938 0.933594 25.59375 0.984375 25.839844 C 0.976562 26 0.984375 26.160156 1.007812 26.320312 C 2.890625 25.707031 4.820312 25.277344 6.789062 25.023438 C 6.855469 25.480469 6.902344 25.941406 6.933594 26.414062 C 6.925781 26.480469 6.933594 26.546875 6.957031 26.609375 C 7.511719 26.246094 8.082031 25.902344 8.660156 25.574219 C 10.035156 24.882812 11.410156 24.203125 12.789062 23.535156 C 12.992188 23.546875 13.054688 23.644531 12.980469 23.824219 C 11.925781 24.363281 10.878906 24.90625 9.835938 25.457031 C 10.335938 27.816406 11.449219 29.832031 13.171875 31.5 C 13.867188 30.816406 14.570312 30.136719 15.28125 29.460938 C 15.484375 29.40625 15.554688 29.480469 15.5 29.679688 C 15.335938 29.832031 15.183594 29.992188 15.042969 30.160156 C 14.277344 30.84375 13.542969 31.5625 12.835938 32.316406 C 12.679688 32.394531 12.550781 32.507812 12.453125 32.652344 C 12.304688 32.746094 12.160156 32.851562 12.019531 32.964844 C 11.980469 33.015625 11.964844 33.070312 11.972656 33.132812 C 11.941406 33.199219 11.890625 33.246094 11.828125 33.277344 C 11.445312 32.8125 11.0625 32.351562 10.675781 31.886719 C 10.402344 32.039062 10.144531 32.214844 9.910156 32.414062 C 9.835938 32.410156 9.789062 32.441406 9.765625 32.507812 C 9.691406 32.507812 9.644531 32.539062 9.621094 32.605469 C 8.230469 33.449219 6.855469 34.3125 5.496094 35.195312 C 5.429688 35.210938 5.429688 35.230469 5.496094 35.246094 C 5.496094 35.277344 5.511719 35.292969 5.542969 35.292969 C 6.542969 36.367188 7.726562 37.183594 9.09375 37.738281 C 9.21875 37.820312 9.347656 37.898438 9.476562 37.980469 C 9.519531 38.019531 9.570312 38.027344 9.621094 38.003906 C 10.128906 37.460938 10.65625 36.941406 11.203125 36.445312 C 11.492188 36.1875 11.765625 35.917969 12.019531 35.628906 C 12.242188 35.472656 12.449219 35.296875 12.644531 35.101562 C 12.878906 35.257812 13.117188 35.402344 13.363281 35.53125 C 13.445312 35.539062 13.523438 35.53125 13.605469 35.507812 C 14.101562 33.238281 14.890625 31.070312 15.980469 29.007812 C 16.015625 28.945312 16.074219 28.914062 16.148438 28.910156 C 16.289062 28.933594 16.347656 29.015625 16.316406 29.152344 C 15.664062 30.285156 15.09375 31.460938 14.609375 32.675781 C 14.953125 32.953125 15.324219 33.191406 15.714844 33.398438 C 17.941406 34.554688 20.308594 35.03125 22.816406 34.835938 C 24.84375 34.667969 26.828125 34.285156 28.765625 33.683594 C 30.691406 33.058594 32.59375 32.378906 34.476562 31.644531 C 34.679688 31.648438 34.777344 31.753906 34.765625 31.957031 C 34.570312 32.796875 34.402344 33.636719 34.261719 34.476562 C 34.734375 33.789062 35.179688 33.085938 35.605469 32.367188 C 35.664062 32.292969 35.734375 32.234375 35.820312 32.199219 C 36.652344 32.140625 37.484375 32.078125 38.316406 32.003906 C 38.667969 31.972656 39.019531 31.972656 39.371094 32.003906 C 39.515625 32.117188 39.546875 32.253906 39.46875 32.414062 C 39.460938 32.441406 39.445312 32.46875 39.417969 32.484375 C 38.492188 32.566406 37.566406 32.632812 36.636719 32.675781 C 36.449219 32.714844 36.273438 32.777344 36.109375 32.871094 C 35.859375 33.136719 35.625 33.414062 35.414062 33.710938 C 34.90625 34.484375 34.410156 35.269531 33.925781 36.058594 C 33.65625 36.277344 33.457031 36.222656 33.324219 35.890625 C 33.601562 34.730469 33.839844 33.570312 34.046875 32.414062 C 31.792969 33.339844 29.488281 34.113281 27.136719 34.742188 C 24.75 35.351562 22.332031 35.511719 19.890625 35.222656 C 17.945312 34.960938 16.152344 34.296875 14.515625 33.230469 C 14.355469 33.527344 14.234375 33.847656 14.15625 34.1875 C 14 34.808594 13.875 35.433594 13.773438 36.058594 C 13.425781 35.882812 13.097656 35.675781 12.789062 35.4375 C 11.769531 36.398438 10.730469 37.335938 9.667969 38.242188 C 9.175781 38.183594 8.710938 38.023438 8.277344 37.765625 C 7.183594 37.117188 6.199219 36.324219 5.328125 35.390625 C 5.296875 35.308594 5.257812 35.238281 5.207031 35.171875 C 5.703125 34.722656 6.230469 34.308594 6.789062 33.925781 C 8.070312 33.078125 9.363281 32.253906 10.675781 31.453125 C 10.839844 31.523438 10.914062 31.648438 10.890625 31.835938 C 11.222656 32.164062 11.542969 32.5 11.851562 32.84375 C 12.15625 32.503906 12.46875 32.167969 12.789062 31.835938 C 11.105469 30.125 9.988281 28.09375 9.429688 25.742188 C 8.847656 25.976562 8.273438 26.226562 7.703125 26.488281 C 7.40625 26.617188 7.101562 26.722656 6.789062 26.800781 C 6.632812 26.738281 6.570312 26.617188 6.597656 26.441406 C 6.652344 26.066406 6.675781 25.6875 6.667969 25.3125 C 4.710938 25.878906 2.71875 26.292969 0.695312 26.558594 C 0.574219 25.226562 0.542969 23.898438 0.601562 22.578125 Z M 0.601562 22.578125 "/>
</g>
<mask id="mask7">
  <g filter="url(#alpha)">
<rect x="0" y="0" width="50" height="50" style="fill:rgb(0%,0%,0%);fill-opacity:0.960784;stroke:none;"/>
  </g>
</mask>
<clipPath id="clip8">
  <rect width="50" height="50"/>
</clipPath>
<g id="surface27" clip-path="url(#clip8)">
<path style=" stroke:none;fill-rule:evenodd;fill:rgb(95.686275%,93.72549%,93.72549%);fill-opacity:1;" d="M 5.542969 35.246094 C 6.742188 36.058594 7.925781 36.890625 9.09375 37.738281 C 7.726562 37.183594 6.542969 36.367188 5.542969 35.292969 C 5.542969 35.277344 5.542969 35.261719 5.542969 35.246094 Z M 5.542969 35.246094 "/>
</g>
<mask id="mask8">
  <g filter="url(#alpha)">
<rect x="0" y="0" width="50" height="50" style="fill:rgb(0%,0%,0%);fill-opacity:0.701961;stroke:none;"/>
  </g>
</mask>
<clipPath id="clip9">
  <rect width="50" height="50"/>
</clipPath>
<g id="surface30" clip-path="url(#clip9)">
<path style=" stroke:none;fill-rule:evenodd;fill:rgb(7.058824%,6.666667%,6.666667%);fill-opacity:1;" d="M 43.832031 32.605469 C 43.921875 32.761719 44.039062 32.890625 44.195312 32.988281 C 44.414062 33.347656 44.398438 33.699219 44.144531 34.046875 C 43.492188 34.632812 42.8125 35.183594 42.105469 35.699219 C 41.871094 35.710938 41.648438 35.664062 41.433594 35.554688 C 41.230469 35.394531 41.03125 35.226562 40.835938 35.054688 C 40.6875 34.773438 40.679688 34.496094 40.8125 34.214844 C 40.855469 34.191406 40.90625 34.183594 40.953125 34.1875 C 40.800781 34.78125 41.007812 35.191406 41.578125 35.414062 C 41.761719 35.421875 41.9375 35.429688 42.105469 35.4375 C 42.730469 34.933594 43.34375 34.421875 43.953125 33.902344 C 44.09375 33.734375 44.152344 33.542969 44.121094 33.324219 C 44.089844 33.324219 44.074219 33.308594 44.074219 33.277344 C 43.964844 33.085938 43.851562 32.894531 43.738281 32.703125 C 43.753906 32.652344 43.785156 32.621094 43.832031 32.605469 Z M 43.832031 32.605469 "/>
</g>
</defs>
<g id="surface1">
<use xlink:href="#surface6" mask="url(#mask0)"/>
<path style=" stroke:none;fill-rule:evenodd;fill:rgb(99.607843%,99.607843%,99.607843%);fill-opacity:1;" d="M 43.640625 31.070312 C 43.566406 31.0625 43.5 31.085938 43.449219 31.140625 C 43.554688 31.546875 43.652344 31.953125 43.738281 32.367188 C 43.265625 31.410156 43.113281 30.402344 43.28125 29.34375 C 43.394531 28.910156 43.507812 28.480469 43.617188 28.046875 C 43.648438 27.917969 43.648438 27.792969 43.617188 27.664062 C 43.601562 27.636719 43.574219 27.621094 43.546875 27.613281 C 43.507812 27.542969 43.492188 27.460938 43.5 27.375 C 44.410156 27.128906 45.316406 26.890625 46.210938 26.65625 C 46.257812 26.289062 46.296875 25.921875 46.328125 25.550781 C 46.441406 24.691406 46.363281 23.851562 46.089844 23.03125 C 45.738281 22.941406 45.386719 22.863281 45.035156 22.792969 C 45 22.761719 44.96875 22.730469 44.9375 22.695312 C 43.574219 22.640625 42.246094 22.816406 40.953125 23.222656 C 35.65625 18.882812 29.957031 15.132812 23.847656 11.972656 C 23.8125 12 23.789062 12.03125 23.777344 12.066406 C 23.773438 12.09375 23.757812 12.109375 23.726562 12.117188 C 23.617188 12.058594 23.507812 12.011719 23.390625 11.972656 C 22.167969 11.640625 21.167969 11.976562 20.394531 12.980469 C 18.800781 15.0625 17.859375 17.414062 17.5625 20.035156 C 17.375 20.410156 17.289062 20.8125 17.296875 21.234375 C 17.175781 21.667969 17.09375 22.117188 17.058594 22.578125 C 17.027344 22.582031 17.003906 22.597656 16.988281 22.625 C 16.644531 23.871094 16.558594 25.132812 16.722656 26.414062 C 16.71875 26.980469 16.824219 27.523438 17.035156 28.046875 C 17.066406 28.148438 17.125 28.226562 17.203125 28.285156 C 17.351562 28.652344 17.527344 29.003906 17.730469 29.34375 C 17.851562 29.398438 17.914062 29.496094 17.921875 29.628906 C 18.195312 30.320312 18.691406 30.75 19.410156 30.925781 C 19.410156 30.972656 19.433594 31.007812 19.480469 31.023438 C 19.636719 31.054688 19.789062 31.097656 19.9375 31.140625 C 20.382812 31.136719 20.8125 31.175781 21.234375 31.261719 C 21.726562 31.222656 22.214844 31.144531 22.695312 31.023438 C 28.546875 29.777344 34.382812 28.53125 40.210938 27.277344 C 40.363281 27.417969 40.515625 27.5625 40.667969 27.710938 C 40.699219 27.710938 40.714844 27.726562 40.714844 27.757812 C 40.683594 27.84375 40.667969 27.941406 40.667969 28.046875 C 40.746094 29.503906 40.84375 30.960938 40.953125 32.414062 C 40.910156 32.363281 40.894531 32.296875 40.90625 32.222656 C 40.433594 32.324219 39.953125 32.390625 39.46875 32.414062 C 39.546875 32.253906 39.515625 32.117188 39.371094 32.003906 C 39.019531 31.972656 38.667969 31.972656 38.316406 32.003906 C 37.484375 32.078125 36.652344 32.140625 35.820312 32.199219 C 35.734375 32.234375 35.664062 32.292969 35.605469 32.367188 C 35.179688 33.085938 34.734375 33.789062 34.261719 34.476562 C 34.402344 33.636719 34.570312 32.796875 34.765625 31.957031 C 34.777344 31.753906 34.679688 31.648438 34.476562 31.644531 C 32.59375 32.378906 30.691406 33.058594 28.765625 33.683594 C 26.828125 34.285156 24.84375 34.667969 22.816406 34.835938 C 20.308594 35.03125 17.941406 34.554688 15.714844 33.398438 C 15.324219 33.191406 14.953125 32.953125 14.609375 32.675781 C 15.09375 31.460938 15.664062 30.285156 16.316406 29.152344 C 16.347656 29.015625 16.289062 28.933594 16.148438 28.910156 C 16.074219 28.914062 16.015625 28.945312 15.980469 29.007812 C 14.890625 31.070312 14.101562 33.238281 13.605469 35.507812 C 13.523438 35.53125 13.445312 35.539062 13.363281 35.53125 C 13.902344 33.734375 14.464844 31.945312 15.042969 30.160156 C 15.183594 29.992188 15.335938 29.832031 15.5 29.679688 C 15.554688 29.480469 15.484375 29.40625 15.28125 29.460938 C 14.570312 30.136719 13.867188 30.816406 13.171875 31.5 C 11.449219 29.832031 10.335938 27.816406 9.835938 25.457031 C 10.878906 24.90625 11.925781 24.363281 12.980469 23.824219 C 13.054688 23.644531 12.992188 23.546875 12.789062 23.535156 C 12.757812 23.535156 12.738281 23.519531 12.738281 23.488281 C 12.746094 23.40625 12.738281 23.328125 12.714844 23.25 C 11.675781 23.257812 10.640625 23.386719 9.621094 23.632812 C 9.441406 20.753906 10.25 18.195312 12.042969 15.953125 C 12.992188 16.523438 13.960938 17.058594 14.945312 17.5625 C 15.023438 17.6875 15.121094 17.800781 15.234375 17.898438 C 15.4375 17.953125 15.523438 17.882812 15.5 17.683594 C 14.683594 16.722656 13.890625 15.75 13.125 14.753906 C 14.476562 13.421875 16.058594 12.457031 17.875 11.851562 C 17.9375 11.738281 17.898438 11.679688 17.753906 11.683594 C 17.402344 11.78125 17.058594 11.894531 16.722656 12.019531 C 17.808594 11.453125 18.941406 11.007812 20.128906 10.675781 C 20.058594 10.722656 19.996094 10.777344 19.9375 10.84375 C 19.953125 10.867188 19.96875 10.890625 19.984375 10.917969 C 21.617188 10.371094 23.277344 9.964844 24.976562 9.691406 C 31.324219 8.933594 37.097656 10.386719 42.296875 14.058594 C 44.164062 15.410156 45.691406 17.066406 46.882812 19.027344 C 48.15625 21.230469 48.492188 23.566406 47.890625 26.03125 C 47.207031 28.25 45.789062 29.792969 43.640625 30.664062 C 43.523438 30.792969 43.523438 30.929688 43.640625 31.070312 Z M 43.640625 31.070312 "/>
<use xlink:href="#surface9" mask="url(#mask1)"/>
<path style=" stroke:none;fill-rule:evenodd;fill:rgb(95.686275%,94.509804%,94.509804%);fill-opacity:1;" d="M 8.324219 12.980469 C 8.277344 13.042969 8.210938 13.070312 8.132812 13.050781 C 7.101562 12.371094 6.070312 11.691406 5.039062 11.011719 C 4.339844 11.621094 3.640625 12.238281 2.949219 12.859375 C 4.625 13.625 6.304688 14.375 7.988281 15.113281 C 8.070312 15.148438 8.148438 15.148438 8.230469 15.113281 C 8.496094 14.871094 8.769531 14.640625 9.046875 14.417969 C 8.789062 14.835938 8.507812 15.234375 8.207031 15.617188 C 6.34375 14.683594 4.464844 13.796875 2.566406 12.957031 C 3.390625 12.222656 4.1875 11.460938 4.964844 10.675781 C 5.988281 11.585938 7.109375 12.355469 8.324219 12.980469 Z M 8.324219 12.980469 "/>
<path style=" stroke:none;fill-rule:evenodd;fill:rgb(66.27451%,23.137255%,18.039216%);fill-opacity:1;" d="M 8.324219 12.980469 C 8.582031 12.851562 8.835938 12.722656 9.09375 12.597656 C 9.445312 12.429688 9.796875 12.277344 10.148438 12.140625 C 10.8125 12.84375 11.484375 13.542969 12.164062 14.226562 C 13.210938 15.3125 14.25 16.410156 15.28125 17.515625 C 13.421875 16.472656 11.566406 15.398438 9.71875 14.300781 C 9.445312 14.058594 9.21875 14.101562 9.046875 14.417969 C 8.769531 14.640625 8.496094 14.871094 8.230469 15.113281 C 8.148438 15.148438 8.070312 15.148438 7.988281 15.113281 C 6.304688 14.375 4.625 13.625 2.949219 12.859375 C 3.640625 12.238281 4.339844 11.621094 5.039062 11.011719 C 6.070312 11.691406 7.101562 12.371094 8.132812 13.050781 C 8.210938 13.070312 8.277344 13.042969 8.324219 12.980469 Z M 8.324219 12.980469 "/>
<use xlink:href="#surface12" mask="url(#mask2)"/>
<path style=" stroke:none;fill-rule:evenodd;fill:rgb(94.901961%,93.333333%,92.941176%);fill-opacity:1;" d="M 12.164062 14.226562 C 11.484375 13.542969 10.8125 12.84375 10.148438 12.140625 C 9.796875 12.277344 9.445312 12.429688 9.09375 12.597656 C 9.476562 12.304688 9.871094 12.015625 10.269531 11.730469 C 10.890625 12.574219 11.523438 13.40625 12.164062 14.226562 Z M 12.164062 14.226562 "/>
<path style=" stroke:none;fill-rule:evenodd;fill:rgb(77.254902%,77.254902%,77.254902%);fill-opacity:1;" d="M 10.582031 11.78125 C 10.710938 11.863281 10.808594 11.976562 10.867188 12.117188 C 10.738281 12.03125 10.640625 11.921875 10.582031 11.78125 Z M 10.582031 11.78125 "/>
<path style=" stroke:none;fill-rule:evenodd;fill:rgb(93.72549%,92.156863%,89.411765%);fill-opacity:1;" d="M 23.390625 11.972656 C 23.507812 12.011719 23.617188 12.058594 23.726562 12.117188 C 23.757812 12.109375 23.773438 12.09375 23.777344 12.066406 C 24.503906 12.503906 25.238281 12.925781 25.984375 13.339844 C 26.109375 13.394531 26.1875 13.480469 26.222656 13.605469 C 27.621094 18.890625 27.003906 23.929688 24.375 28.71875 C 23.960938 29.410156 23.507812 30.074219 23.007812 30.710938 C 22.429688 30.847656 21.851562 31 21.28125 31.167969 C 21.242188 31.1875 21.226562 31.21875 21.234375 31.261719 C 20.8125 31.175781 20.382812 31.136719 19.9375 31.140625 C 19.789062 31.097656 19.636719 31.054688 19.480469 31.023438 C 19.433594 31.007812 19.410156 30.972656 19.410156 30.925781 C 19.746094 30.988281 20.082031 30.988281 20.417969 30.925781 C 20.417969 30.863281 20.417969 30.796875 20.417969 30.734375 C 19.363281 30.859375 18.554688 30.476562 17.996094 29.582031 C 17.976562 29.609375 17.953125 29.625 17.921875 29.628906 C 17.914062 29.496094 17.851562 29.398438 17.730469 29.34375 C 17.777344 29.34375 17.828125 29.34375 17.875 29.34375 C 17.476562 28.398438 17.179688 27.421875 16.988281 26.414062 C 16.800781 25.175781 16.839844 23.945312 17.105469 22.722656 C 17.097656 22.667969 17.082031 22.621094 17.058594 22.578125 C 17.09375 22.117188 17.175781 21.667969 17.296875 21.234375 C 17.34375 21.605469 17.441406 21.964844 17.585938 22.3125 C 17.367188 24.234375 17.4375 26.144531 17.800781 28.046875 C 17.90625 28.789062 18.25 29.390625 18.832031 29.847656 C 19.542969 30.164062 20.230469 30.117188 20.898438 29.703125 C 21.515625 29.179688 21.984375 28.550781 22.3125 27.808594 C 24.503906 23.324219 25.113281 18.636719 24.136719 13.746094 C 23.945312 13.21875 23.597656 12.828125 23.105469 12.570312 C 22.6875 12.386719 22.285156 12.417969 21.90625 12.667969 C 21.847656 12.726562 21.847656 12.78125 21.90625 12.835938 C 22.863281 12.445312 23.542969 12.730469 23.945312 13.699219 C 24.035156 13.914062 24.089844 14.140625 24.113281 14.371094 C 24.035156 14.203125 23.921875 14.058594 23.777344 13.941406 C 23.785156 13.882812 23.769531 13.835938 23.726562 13.796875 C 23.25 13.910156 22.855469 14.167969 22.554688 14.5625 C 21.90625 15.550781 21.402344 16.605469 21.042969 17.730469 C 20.863281 18.128906 20.742188 18.542969 20.679688 18.976562 C 20.695312 18.933594 20.71875 18.902344 20.753906 18.882812 C 20.984375 18.945312 21.230469 18.976562 21.496094 18.976562 C 22.417969 19.015625 23.335938 19.03125 24.257812 19.027344 C 24.308594 17.777344 24.308594 16.53125 24.257812 15.28125 C 24.625 18.402344 24.355469 21.472656 23.441406 24.496094 C 22.980469 24.34375 22.515625 24.199219 22.050781 24.0625 C 21.890625 23.988281 21.722656 23.921875 21.546875 23.871094 C 21.507812 23.875 21.484375 23.890625 21.472656 23.921875 C 21.300781 23.824219 21.125 23.746094 20.945312 23.679688 C 20.957031 23.628906 20.964844 23.566406 20.96875 23.488281 C 21.710938 22.207031 21.917969 20.847656 21.59375 19.410156 C 21.765625 20.859375 21.492188 22.21875 20.777344 23.488281 C 20.746094 23.523438 20.707031 23.539062 20.65625 23.535156 C 19.75 23.15625 18.820312 22.8125 17.875 22.503906 C 17.828125 22.421875 17.796875 22.335938 17.777344 22.242188 C 18.167969 22.550781 18.566406 22.558594 18.976562 22.265625 C 19.554688 21.609375 19.753906 20.847656 19.578125 19.984375 C 19.4375 19.703125 19.222656 19.5 18.929688 19.386719 C 19.777344 19.34375 20.625 19.289062 21.472656 19.21875 C 20.449219 19.175781 19.425781 19.167969 18.402344 19.195312 C 19.082031 16.980469 20.097656 14.941406 21.449219 13.074219 C 21.503906 12.988281 21.527344 12.890625 21.519531 12.789062 C 21.457031 12.78125 21.390625 12.789062 21.328125 12.8125 C 19.894531 14.730469 18.847656 16.847656 18.1875 19.167969 C 18.128906 19.234375 18.054688 19.28125 17.96875 19.3125 C 17.980469 19.34375 17.996094 19.367188 18.019531 19.386719 C 17.929688 19.460938 17.855469 19.546875 17.800781 19.648438 C 18.101562 17.828125 18.742188 16.128906 19.722656 14.5625 C 20.25 13.804688 20.785156 13.054688 21.328125 12.308594 C 21.84375 12.039062 22.386719 11.949219 22.960938 12.042969 C 23.105469 12.078125 23.246094 12.101562 23.390625 12.117188 C 23.390625 12.066406 23.390625 12.019531 23.390625 11.972656 Z M 23.390625 11.972656 "/>
<path style=" stroke:none;fill-rule:evenodd;fill:rgb(61.960784%,61.568627%,61.568627%);fill-opacity:1;" d="M 10.867188 12.117188 C 11 12.199219 11.097656 12.3125 11.15625 12.453125 C 11.023438 12.367188 10.929688 12.257812 10.867188 12.117188 Z M 10.867188 12.117188 "/>
<path style=" stroke:none;fill-rule:evenodd;fill:rgb(12.54902%,11.764706%,11.764706%);fill-opacity:1;" d="M 23.390625 11.972656 C 23.390625 12.019531 23.390625 12.066406 23.390625 12.117188 C 23.246094 12.101562 23.105469 12.078125 22.960938 12.042969 C 22.386719 11.949219 21.84375 12.039062 21.328125 12.308594 C 20.785156 13.054688 20.25 13.804688 19.722656 14.5625 C 18.742188 16.128906 18.101562 17.828125 17.800781 19.648438 C 17.855469 19.546875 17.929688 19.460938 18.019531 19.386719 C 17.996094 19.367188 17.980469 19.34375 17.96875 19.3125 C 18.054688 19.28125 18.128906 19.234375 18.1875 19.167969 C 18.847656 16.847656 19.894531 14.730469 21.328125 12.8125 C 21.390625 12.789062 21.457031 12.78125 21.519531 12.789062 C 21.527344 12.890625 21.503906 12.988281 21.449219 13.074219 C 20.097656 14.941406 19.082031 16.980469 18.402344 19.195312 C 19.425781 19.167969 20.449219 19.175781 21.472656 19.21875 C 20.625 19.289062 19.777344 19.34375 18.929688 19.386719 C 19.222656 19.5 19.4375 19.703125 19.578125 19.984375 C 19.753906 20.847656 19.554688 21.609375 18.976562 22.265625 C 18.566406 22.558594 18.167969 22.550781 17.777344 22.242188 C 17.796875 22.335938 17.828125 22.421875 17.875 22.503906 C 18.820312 22.8125 19.75 23.15625 20.65625 23.535156 C 20.480469 23.535156 20.304688 23.535156 20.128906 23.535156 C 19.347656 23.222656 18.574219 22.886719 17.800781 22.527344 C 17.574219 24.464844 17.671875 26.382812 18.089844 28.285156 C 18.195312 28.839844 18.460938 29.296875 18.882812 29.65625 C 19.488281 29.957031 20.082031 29.925781 20.65625 29.558594 C 20.15625 29.441406 19.84375 29.128906 19.722656 28.621094 C 19.445312 27.5 19.386719 26.363281 19.554688 25.214844 C 19.585938 25.886719 19.617188 26.558594 19.648438 27.230469 C 19.640625 27.882812 19.792969 28.488281 20.105469 29.054688 C 20.335938 29.273438 20.605469 29.386719 20.921875 29.390625 C 21.027344 29.328125 21.113281 29.246094 21.183594 29.152344 C 21.640625 28.660156 22 28.097656 22.265625 27.472656 C 22.617188 26.6875 22.929688 25.886719 23.199219 25.070312 C 23.296875 24.933594 23.332031 24.78125 23.296875 24.617188 C 22.875 24.460938 22.457031 24.292969 22.050781 24.113281 C 22.050781 24.097656 22.050781 24.082031 22.050781 24.0625 C 22.515625 24.199219 22.980469 24.34375 23.441406 24.496094 C 24.355469 21.472656 24.625 18.402344 24.257812 15.28125 C 24.242188 14.96875 24.195312 14.664062 24.113281 14.371094 C 24.089844 14.140625 24.035156 13.914062 23.945312 13.699219 C 23.542969 12.730469 22.863281 12.445312 21.90625 12.835938 C 21.847656 12.78125 21.847656 12.726562 21.90625 12.667969 C 22.285156 12.417969 22.6875 12.386719 23.105469 12.570312 C 23.597656 12.828125 23.945312 13.21875 24.136719 13.746094 C 25.113281 18.636719 24.503906 23.324219 22.3125 27.808594 C 21.984375 28.550781 21.515625 29.179688 20.898438 29.703125 C 20.230469 30.117188 19.542969 30.164062 18.832031 29.847656 C 18.25 29.390625 17.90625 28.789062 17.800781 28.046875 C 17.4375 26.144531 17.367188 24.234375 17.585938 22.3125 C 17.441406 21.964844 17.34375 21.605469 17.296875 21.234375 C 17.289062 20.8125 17.375 20.410156 17.5625 20.035156 C 17.859375 17.414062 18.800781 15.0625 20.394531 12.980469 C 21.167969 11.976562 22.167969 11.640625 23.390625 11.972656 Z M 23.390625 11.972656 "/>
<path style=" stroke:none;fill-rule:evenodd;fill:rgb(11.372549%,10.980392%,10.980392%);fill-opacity:1;" d="M 46.328125 25.550781 C 46.28125 25.273438 46.265625 24.984375 46.28125 24.6875 C 46.21875 24.6875 46.152344 24.6875 46.089844 24.6875 C 46.101562 24.765625 46.085938 24.828125 46.042969 24.878906 C 46.042969 24.832031 46.042969 24.785156 46.042969 24.734375 C 45.480469 24.820312 44.921875 24.910156 44.363281 25 C 44.324219 25.03125 44.308594 25.070312 44.3125 25.121094 C 44.3125 25.152344 44.296875 25.167969 44.265625 25.167969 C 44.265625 25.121094 44.265625 25.070312 44.265625 25.023438 C 44.082031 25.050781 43.898438 25.082031 43.714844 25.121094 C 43.625 25.09375 43.617188 25.054688 43.691406 25 C 44.453125 24.816406 45.222656 24.648438 45.992188 24.496094 C 46.058594 24.089844 46.058594 23.6875 45.992188 23.296875 C 45.835938 23.257812 45.675781 23.210938 45.511719 23.152344 C 45.175781 22.988281 44.816406 22.921875 44.433594 22.960938 C 43.605469 22.992188 42.78125 23.074219 41.960938 23.199219 C 41.796875 23.226562 41.636719 23.257812 41.484375 23.296875 C 41.371094 23.3125 41.257812 23.335938 41.148438 23.367188 C 41.390625 23.574219 41.636719 23.773438 41.890625 23.96875 C 41.894531 24.167969 41.984375 24.316406 42.15625 24.425781 C 42.121094 24.457031 42.089844 24.457031 42.058594 24.425781 C 41.917969 24.308594 41.78125 24.191406 41.652344 24.0625 C 41.632812 24.074219 41.625 24.089844 41.625 24.113281 C 41.433594 23.78125 41.175781 23.5 40.859375 23.273438 C 39.652344 22.324219 38.421875 21.414062 37.164062 20.539062 C 37.117188 20.515625 37.070312 20.507812 37.019531 20.511719 C 37.019531 20.5625 37.019531 20.609375 37.019531 20.65625 C 36.90625 20.550781 36.820312 20.421875 36.757812 20.273438 C 33.421875 17.816406 29.941406 15.570312 26.320312 13.53125 C 26.257812 13.507812 26.222656 13.53125 26.222656 13.605469 C 26.1875 13.480469 26.109375 13.394531 25.984375 13.339844 C 25.238281 12.925781 24.503906 12.503906 23.777344 12.066406 C 23.789062 12.03125 23.8125 12 23.847656 11.972656 C 29.957031 15.132812 35.65625 18.882812 40.953125 23.222656 C 42.246094 22.816406 43.574219 22.640625 44.9375 22.695312 C 44.96875 22.730469 45 22.761719 45.035156 22.792969 C 45.386719 22.863281 45.738281 22.941406 46.089844 23.03125 C 46.363281 23.851562 46.441406 24.691406 46.328125 25.550781 Z M 46.328125 25.550781 "/>
<use xlink:href="#surface15" mask="url(#mask3)"/>
<path style=" stroke:none;fill-rule:evenodd;fill:rgb(94.509804%,92.941176%,90.196078%);fill-opacity:1;" d="M 37.019531 20.65625 C 37.40625 21.238281 37.710938 21.863281 37.933594 22.527344 C 38.386719 24.789062 37.667969 26.574219 35.773438 27.878906 C 35.632812 27.957031 35.492188 28.019531 35.339844 28.070312 C 31.375 28.925781 27.40625 29.78125 23.441406 30.636719 C 23.410156 30.621094 23.375 30.605469 23.34375 30.589844 C 26.050781 26.792969 27.292969 22.554688 27.0625 17.875 C 26.992188 16.65625 26.800781 15.457031 26.488281 14.277344 C 26.421875 14.039062 26.332031 13.8125 26.222656 13.605469 C 26.222656 13.53125 26.257812 13.507812 26.320312 13.53125 C 29.941406 15.570312 33.421875 17.816406 36.757812 20.273438 C 36.820312 20.421875 36.90625 20.550781 37.019531 20.65625 Z M 37.019531 20.65625 "/>
<path style=" stroke:none;fill-rule:evenodd;fill:rgb(14.117647%,13.333333%,12.941176%);fill-opacity:1;" d="M 26.222656 13.605469 C 26.332031 13.8125 26.421875 14.039062 26.488281 14.277344 C 26.800781 15.457031 26.992188 16.65625 27.0625 17.875 C 27.292969 22.554688 26.050781 26.792969 23.34375 30.589844 C 23.375 30.605469 23.410156 30.621094 23.441406 30.636719 C 27.40625 29.78125 31.375 28.925781 35.339844 28.070312 C 35.492188 28.019531 35.632812 27.957031 35.773438 27.878906 C 37.667969 26.574219 38.386719 24.789062 37.933594 22.527344 C 38.078125 22.816406 38.191406 23.117188 38.269531 23.441406 C 38.296875 24.164062 38.203125 24.867188 37.980469 25.550781 C 37.53125 26.457031 36.90625 27.234375 36.109375 27.878906 C 37.640625 27.59375 39.175781 27.304688 40.714844 27.015625 C 40.800781 26.96875 40.882812 26.910156 40.953125 26.847656 C 41.066406 26.839844 41.171875 26.808594 41.265625 26.75 C 41.441406 26.46875 41.5625 26.164062 41.625 25.839844 C 41.675781 25.664062 41.734375 25.488281 41.792969 25.3125 C 41.820312 25.136719 41.828125 24.960938 41.820312 24.785156 C 41.941406 25.476562 41.8125 26.125 41.433594 26.726562 C 41.496094 26.761719 41.550781 26.753906 41.601562 26.703125 C 41.578125 26.828125 41.503906 26.933594 41.386719 27.015625 C 41.074219 27.074219 40.769531 27.152344 40.476562 27.253906 C 40.894531 27.539062 41.359375 27.636719 41.867188 27.542969 C 42.042969 27.507812 42.21875 27.46875 42.394531 27.421875 C 42.40625 27.480469 42.390625 27.527344 42.347656 27.566406 C 42.125 27.644531 41.902344 27.710938 41.675781 27.757812 C 41.652344 27.808594 41.625 27.855469 41.601562 27.902344 C 41.59375 27.804688 41.570312 27.707031 41.53125 27.613281 C 41.5 27.621094 41.484375 27.636719 41.484375 27.664062 C 41.417969 27.679688 41.355469 27.695312 41.289062 27.710938 C 41.058594 27.675781 40.84375 27.59375 40.644531 27.472656 C 40.644531 27.546875 40.652344 27.628906 40.667969 27.710938 C 40.515625 27.5625 40.363281 27.417969 40.210938 27.277344 C 34.382812 28.53125 28.546875 29.777344 22.695312 31.023438 C 22.214844 31.144531 21.726562 31.222656 21.234375 31.261719 C 21.226562 31.21875 21.242188 31.1875 21.28125 31.167969 C 21.851562 31 22.429688 30.847656 23.007812 30.710938 C 23.507812 30.074219 23.960938 29.410156 24.375 28.71875 C 27.003906 23.929688 27.621094 18.890625 26.222656 13.605469 Z M 26.222656 13.605469 "/>
<path style=" stroke:none;fill-rule:evenodd;fill:rgb(16.078431%,14.901961%,14.901961%);fill-opacity:1;" d="M 23.777344 13.941406 C 23.625 13.933594 23.496094 13.984375 23.390625 14.082031 C 23.175781 14.195312 22.972656 14.339844 22.792969 14.515625 C 22.085938 15.527344 21.519531 16.613281 21.089844 17.777344 C 21.058594 17.777344 21.042969 17.761719 21.042969 17.730469 C 21.402344 16.605469 21.90625 15.550781 22.554688 14.5625 C 22.855469 14.167969 23.25 13.910156 23.726562 13.796875 C 23.769531 13.835938 23.785156 13.882812 23.777344 13.941406 Z M 23.777344 13.941406 "/>
<use xlink:href="#surface18" mask="url(#mask4)"/>
<path style=" stroke:none;fill-rule:evenodd;fill:rgb(99.607843%,99.607843%,99.607843%);fill-opacity:1;" d="M 23.777344 13.941406 C 23.921875 14.058594 24.035156 14.203125 24.113281 14.371094 C 24.195312 14.664062 24.242188 14.96875 24.257812 15.28125 C 24.308594 16.53125 24.308594 17.777344 24.257812 19.027344 C 23.335938 19.03125 22.417969 19.015625 21.496094 18.976562 C 21.230469 18.976562 20.984375 18.945312 20.753906 18.882812 C 20.757812 18.773438 20.789062 18.675781 20.847656 18.59375 C 21.425781 17.394531 22.039062 16.210938 22.695312 15.042969 C 22.921875 14.714844 23.152344 14.394531 23.390625 14.082031 C 23.496094 13.984375 23.625 13.933594 23.777344 13.941406 Z M 23.777344 13.941406 "/>
<path style=" stroke:none;fill-rule:evenodd;fill:rgb(92.156863%,90.588235%,87.843137%);fill-opacity:1;" d="M 23.390625 14.082031 C 23.152344 14.394531 22.921875 14.714844 22.695312 15.042969 C 22.039062 16.210938 21.425781 17.394531 20.847656 18.59375 C 20.90625 18.316406 20.988281 18.042969 21.089844 17.777344 C 21.519531 16.613281 22.085938 15.527344 22.792969 14.515625 C 22.972656 14.339844 23.175781 14.195312 23.390625 14.082031 Z M 23.390625 14.082031 "/>
<use xlink:href="#surface21" mask="url(#mask5)"/>
<path style=" stroke:none;fill-rule:evenodd;fill:rgb(32.941176%,32.156863%,31.372549%);fill-opacity:1;" d="M 21.042969 17.730469 C 21.042969 17.761719 21.058594 17.777344 21.089844 17.777344 C 20.988281 18.042969 20.90625 18.316406 20.847656 18.59375 C 20.789062 18.675781 20.757812 18.773438 20.753906 18.882812 C 20.71875 18.902344 20.695312 18.933594 20.679688 18.976562 C 20.742188 18.542969 20.863281 18.128906 21.042969 17.730469 Z M 21.042969 17.730469 "/>
<path style=" stroke:none;fill-rule:evenodd;fill:rgb(13.333333%,12.54902%,12.54902%);fill-opacity:1;" d="M 23.296875 19.074219 C 23.632812 19.074219 23.96875 19.074219 24.304688 19.074219 C 24.304688 19.121094 24.304688 19.167969 24.304688 19.21875 C 23.472656 19.226562 22.640625 19.21875 21.808594 19.195312 C 22.308594 19.140625 22.804688 19.101562 23.296875 19.074219 Z M 23.296875 19.074219 "/>
<path style=" stroke:none;fill-rule:evenodd;fill:rgb(85.882353%,81.960784%,79.215686%);fill-opacity:1;" d="M 18.164062 19.648438 C 17.632812 20.222656 17.464844 20.894531 17.660156 21.664062 C 17.851562 22.253906 18.226562 22.40625 18.785156 22.121094 C 18.890625 22.007812 19.003906 21.902344 19.121094 21.808594 C 18.8125 22.371094 18.378906 22.5 17.828125 22.191406 C 17.796875 22.199219 17.78125 22.214844 17.777344 22.242188 C 17.3125 21.238281 17.414062 20.292969 18.089844 19.410156 C 18.105469 19.492188 18.132812 19.574219 18.164062 19.648438 Z M 18.164062 19.648438 "/>
<path style=" stroke:none;fill-rule:evenodd;fill:rgb(66.666667%,23.529412%,18.431373%);fill-opacity:1;" d="M 18.449219 19.554688 C 19.042969 19.5625 19.371094 19.863281 19.433594 20.464844 C 19.457031 20.707031 19.449219 20.945312 19.410156 21.183594 C 19.328125 21.398438 19.230469 21.605469 19.121094 21.808594 C 19.003906 21.902344 18.890625 22.007812 18.785156 22.121094 C 18.226562 22.40625 17.851562 22.253906 17.660156 21.664062 C 17.464844 20.894531 17.632812 20.222656 18.164062 19.648438 C 18.25 19.589844 18.34375 19.558594 18.449219 19.554688 Z M 18.449219 19.554688 "/>
<path style=" stroke:none;fill-rule:evenodd;fill:rgb(16.470588%,15.686275%,15.686275%);fill-opacity:1;" d="M 20.945312 23.679688 C 20.835938 23.65625 20.738281 23.609375 20.65625 23.535156 C 20.707031 23.539062 20.746094 23.523438 20.777344 23.488281 C 21.492188 22.21875 21.765625 20.859375 21.59375 19.410156 C 21.917969 20.847656 21.710938 22.207031 20.96875 23.488281 C 20.964844 23.566406 20.957031 23.628906 20.945312 23.679688 Z M 20.945312 23.679688 "/>
<path style=" stroke:none;fill-rule:evenodd;fill:rgb(81.960784%,78.431373%,75.686275%);fill-opacity:1;" d="M 18.449219 19.554688 C 18.855469 19.433594 19.167969 19.558594 19.386719 19.9375 C 19.601562 20.355469 19.609375 20.769531 19.410156 21.183594 C 19.449219 20.945312 19.457031 20.707031 19.433594 20.464844 C 19.371094 19.863281 19.042969 19.5625 18.449219 19.554688 Z M 18.449219 19.554688 "/>
<path style=" stroke:none;fill-rule:evenodd;fill:rgb(66.27451%,23.137255%,18.039216%);fill-opacity:1;" d="M 41.625 24.113281 C 41.75 24.316406 41.8125 24.542969 41.820312 24.785156 C 41.828125 24.960938 41.820312 25.136719 41.792969 25.3125 C 41.734375 25.488281 41.675781 25.664062 41.625 25.839844 C 41.441406 26.199219 41.21875 26.535156 40.953125 26.847656 C 40.882812 26.910156 40.800781 26.96875 40.714844 27.015625 C 39.175781 27.304688 37.640625 27.59375 36.109375 27.878906 C 36.90625 27.234375 37.53125 26.457031 37.980469 25.550781 C 38.347656 24.882812 38.445312 24.179688 38.269531 23.441406 C 38.191406 23.117188 38.078125 22.816406 37.933594 22.527344 C 37.710938 21.863281 37.40625 21.238281 37.019531 20.65625 C 37.019531 20.609375 37.019531 20.5625 37.019531 20.511719 C 37.070312 20.507812 37.117188 20.515625 37.164062 20.539062 C 38.421875 21.414062 39.652344 22.324219 40.859375 23.273438 C 41.175781 23.5 41.433594 23.78125 41.625 24.113281 Z M 41.625 24.113281 "/>
<path style=" stroke:none;fill-rule:evenodd;fill:rgb(66.666667%,23.137255%,18.039216%);fill-opacity:1;" d="M 11.636719 23.726562 C 11.75 23.71875 11.859375 23.730469 11.972656 23.753906 C 10.285156 24.636719 8.605469 25.523438 6.933594 26.414062 C 6.902344 25.941406 6.855469 25.480469 6.789062 25.023438 C 6.789062 24.910156 6.789062 24.800781 6.789062 24.6875 C 4.855469 25.070312 2.917969 25.457031 0.984375 25.839844 C 0.933594 25.59375 0.894531 25.335938 0.863281 25.070312 C 0.816406 24.253906 0.757812 23.441406 0.695312 22.625 C 1.144531 22.5625 1.589844 22.496094 2.039062 22.433594 C 2.5 22.382812 2.945312 22.304688 3.382812 22.191406 C 3.398438 22.191406 3.414062 22.191406 3.429688 22.191406 C 3.636719 22.199219 3.828125 22.167969 4.007812 22.097656 C 4.191406 22.035156 4.382812 22.003906 4.582031 22 C 4.804688 22.011719 5.011719 21.980469 5.207031 21.90625 C 5.394531 21.851562 5.585938 21.820312 5.78125 21.808594 C 6.003906 21.820312 6.210938 21.789062 6.40625 21.714844 C 6.496094 21.671875 6.59375 21.65625 6.695312 21.664062 C 7.011719 21.664062 7.316406 21.613281 7.605469 21.519531 C 7.90625 21.453125 8.207031 21.421875 8.515625 21.425781 C 8.449219 22.242188 8.382812 23.054688 8.324219 23.871094 C 9.429688 23.867188 10.535156 23.820312 11.636719 23.726562 Z M 11.636719 23.726562 "/>
<path style=" stroke:none;fill-rule:evenodd;fill:rgb(64.313725%,53.333333%,52.156863%);fill-opacity:1;" d="M 7.605469 21.519531 C 7.316406 21.613281 7.011719 21.664062 6.695312 21.664062 C 6.988281 21.59375 7.292969 21.542969 7.605469 21.519531 Z M 7.605469 21.519531 "/>
<path style=" stroke:none;fill-rule:evenodd;fill:rgb(69.019608%,59.607843%,58.823529%);fill-opacity:1;" d="M 6.40625 21.714844 C 6.210938 21.789062 6.003906 21.820312 5.78125 21.808594 C 5.976562 21.742188 6.1875 21.710938 6.40625 21.714844 Z M 6.40625 21.714844 "/>
<path style=" stroke:none;fill-rule:evenodd;fill:rgb(69.803922%,60.784314%,59.607843%);fill-opacity:1;" d="M 5.207031 21.90625 C 5.011719 21.980469 4.804688 22.011719 4.582031 22 C 4.777344 21.933594 4.988281 21.902344 5.207031 21.90625 Z M 5.207031 21.90625 "/>
<path style=" stroke:none;fill-rule:evenodd;fill:rgb(72.54902%,62.352941%,61.568627%);fill-opacity:1;" d="M 4.007812 22.097656 C 3.828125 22.167969 3.636719 22.199219 3.429688 22.191406 C 3.609375 22.121094 3.800781 22.089844 4.007812 22.097656 Z M 4.007812 22.097656 "/>
<path style=" stroke:none;fill-rule:evenodd;fill:rgb(73.72549%,65.882353%,64.705882%);fill-opacity:1;" d="M 3.382812 22.191406 C 2.945312 22.304688 2.5 22.382812 2.039062 22.433594 C 2.039062 22.417969 2.039062 22.402344 2.039062 22.386719 C 2.476562 22.289062 2.925781 22.226562 3.382812 22.191406 Z M 3.382812 22.191406 "/>
<path style=" stroke:none;fill-rule:evenodd;fill:rgb(87.058824%,85.098039%,85.098039%);fill-opacity:1;" d="M 2.039062 22.386719 C 2.039062 22.402344 2.039062 22.417969 2.039062 22.433594 C 1.589844 22.496094 1.144531 22.5625 0.695312 22.625 C 0.664062 22.609375 0.632812 22.59375 0.601562 22.578125 C 0.613281 22.503906 0.664062 22.46875 0.742188 22.480469 C 1.175781 22.460938 1.609375 22.429688 2.039062 22.386719 Z M 2.039062 22.386719 "/>
<use xlink:href="#surface24" mask="url(#mask6)"/>
<path style=" stroke:none;fill-rule:evenodd;fill:rgb(94.117647%,92.54902%,89.803922%);fill-opacity:1;" d="M 20.128906 23.535156 C 19.953125 23.65625 19.816406 23.816406 19.722656 24.015625 C 19.660156 24.316406 19.632812 24.621094 19.648438 24.929688 C 19.589844 25.011719 19.558594 25.105469 19.554688 25.214844 C 19.386719 26.363281 19.445312 27.5 19.722656 28.621094 C 19.84375 29.128906 20.15625 29.441406 20.65625 29.558594 C 20.082031 29.925781 19.488281 29.957031 18.882812 29.65625 C 18.460938 29.296875 18.195312 28.839844 18.089844 28.285156 C 17.671875 26.382812 17.574219 24.464844 17.800781 22.527344 C 18.574219 22.886719 19.347656 23.222656 20.128906 23.535156 Z M 20.128906 23.535156 "/>
<path style=" stroke:none;fill-rule:evenodd;fill:rgb(90.196078%,88.627451%,86.666667%);fill-opacity:1;" d="M 45.511719 23.152344 C 44.507812 23.1875 43.5 23.265625 42.492188 23.390625 C 42.308594 23.335938 42.128906 23.269531 41.960938 23.199219 C 42.78125 23.074219 43.605469 22.992188 44.433594 22.960938 C 44.816406 22.921875 45.175781 22.988281 45.511719 23.152344 Z M 45.511719 23.152344 "/>
<path style=" stroke:none;fill-rule:evenodd;fill:rgb(18.039216%,16.862745%,16.862745%);fill-opacity:1;" d="M 45.511719 23.152344 C 45.675781 23.210938 45.835938 23.257812 45.992188 23.296875 C 44.875 23.359375 43.753906 23.414062 42.632812 23.464844 C 42.691406 23.539062 42.765625 23.59375 42.851562 23.632812 C 42.886719 23.6875 42.878906 23.734375 42.828125 23.777344 C 42.421875 23.492188 41.976562 23.332031 41.484375 23.296875 C 41.636719 23.257812 41.796875 23.226562 41.960938 23.199219 C 42.128906 23.269531 42.308594 23.335938 42.492188 23.390625 C 43.5 23.265625 44.507812 23.1875 45.511719 23.152344 Z M 45.511719 23.152344 "/>
<path style=" stroke:none;fill-rule:evenodd;fill:rgb(11.764706%,11.372549%,11.372549%);fill-opacity:1;" d="M 17.058594 22.578125 C 17.082031 22.621094 17.097656 22.667969 17.105469 22.722656 C 16.839844 23.945312 16.800781 25.175781 16.988281 26.414062 C 17.179688 27.421875 17.476562 28.398438 17.875 29.34375 C 17.828125 29.34375 17.777344 29.34375 17.730469 29.34375 C 17.527344 29.003906 17.351562 28.652344 17.203125 28.285156 C 17.003906 27.667969 16.84375 27.042969 16.722656 26.414062 C 16.558594 25.132812 16.644531 23.871094 16.988281 22.625 C 17.003906 22.597656 17.027344 22.582031 17.058594 22.578125 Z M 17.058594 22.578125 "/>
<path style=" stroke:none;fill-rule:evenodd;fill:rgb(99.607843%,99.607843%,99.215686%);fill-opacity:1;" d="M 20.128906 23.535156 C 20.304688 23.535156 20.480469 23.535156 20.65625 23.535156 C 20.738281 23.609375 20.835938 23.65625 20.945312 23.679688 C 21.125 23.746094 21.300781 23.824219 21.472656 23.921875 C 21.667969 23.976562 21.859375 24.039062 22.050781 24.113281 C 22.457031 24.292969 22.875 24.460938 23.296875 24.617188 C 23.332031 24.78125 23.296875 24.933594 23.199219 25.070312 C 22.515625 26.425781 21.84375 27.785156 21.183594 29.152344 C 21.113281 29.246094 21.027344 29.328125 20.921875 29.390625 C 20.605469 29.386719 20.335938 29.273438 20.105469 29.054688 C 19.792969 28.488281 19.640625 27.882812 19.648438 27.230469 C 19.648438 26.464844 19.648438 25.695312 19.648438 24.929688 C 19.632812 24.621094 19.660156 24.316406 19.722656 24.015625 C 19.816406 23.816406 19.953125 23.65625 20.128906 23.535156 Z M 20.128906 23.535156 "/>
<path style=" stroke:none;fill-rule:evenodd;fill:rgb(92.156863%,89.411765%,89.019608%);fill-opacity:1;" d="M 12.738281 23.488281 C 12.738281 23.519531 12.757812 23.535156 12.789062 23.535156 C 11.410156 24.203125 10.035156 24.882812 8.660156 25.574219 C 8.082031 25.902344 7.511719 26.246094 6.957031 26.609375 C 6.933594 26.546875 6.925781 26.480469 6.933594 26.414062 C 8.605469 25.523438 10.285156 24.636719 11.972656 23.753906 C 11.859375 23.730469 11.75 23.71875 11.636719 23.726562 C 11.996094 23.632812 12.363281 23.554688 12.738281 23.488281 Z M 12.738281 23.488281 "/>
<path style=" stroke:none;fill-rule:evenodd;fill:rgb(87.45098%,83.529412%,80.784314%);fill-opacity:1;" d="M 38.269531 23.441406 C 38.445312 24.179688 38.347656 24.882812 37.980469 25.550781 C 38.203125 24.867188 38.296875 24.164062 38.269531 23.441406 Z M 38.269531 23.441406 "/>
<path style=" stroke:none;fill-rule:evenodd;fill:rgb(35.686275%,34.901961%,34.901961%);fill-opacity:1;" d="M 21.472656 23.921875 C 21.484375 23.890625 21.507812 23.875 21.546875 23.871094 C 21.722656 23.921875 21.890625 23.988281 22.050781 24.0625 C 22.050781 24.082031 22.050781 24.097656 22.050781 24.113281 C 21.859375 24.039062 21.667969 23.976562 21.472656 23.921875 Z M 21.472656 23.921875 "/>
<path style=" stroke:none;fill-rule:evenodd;fill:rgb(14.901961%,14.117647%,13.72549%);fill-opacity:1;" d="M 46.328125 25.550781 C 46.296875 25.921875 46.257812 26.289062 46.210938 26.65625 C 45.316406 26.890625 44.410156 27.128906 43.5 27.375 C 43.164062 27.460938 42.828125 27.515625 42.492188 27.542969 C 42.953125 27.34375 43.433594 27.1875 43.929688 27.0625 C 44.613281 26.925781 45.277344 26.742188 45.921875 26.511719 C 45.945312 26.417969 45.953125 26.320312 45.945312 26.222656 C 45.445312 26.285156 44.949219 26.363281 44.457031 26.464844 C 44.457031 26.449219 44.457031 26.429688 44.457031 26.414062 C 44.960938 26.273438 45.476562 26.160156 45.992188 26.078125 C 45.992188 25.96875 45.992188 25.855469 45.992188 25.742188 C 45.53125 25.839844 45.066406 25.917969 44.601562 25.984375 C 44.539062 25.984375 44.472656 25.984375 44.410156 25.984375 C 44.425781 26.136719 44.410156 26.28125 44.363281 26.414062 C 44.363281 26.289062 44.363281 26.160156 44.363281 26.03125 C 43.980469 26.03125 43.980469 26 44.363281 25.9375 C 44.902344 25.816406 45.445312 25.710938 45.992188 25.625 C 46.039062 25.429688 46.054688 25.230469 46.042969 25.023438 C 45.402344 25.132812 44.761719 25.222656 44.121094 25.289062 C 44.171875 25.246094 44.222656 25.207031 44.265625 25.167969 C 44.296875 25.167969 44.3125 25.152344 44.3125 25.121094 C 44.34375 25.148438 44.378906 25.179688 44.410156 25.214844 C 44.957031 25.09375 45.5 24.980469 46.042969 24.878906 C 46.085938 24.828125 46.101562 24.765625 46.089844 24.6875 C 46.152344 24.6875 46.21875 24.6875 46.28125 24.6875 C 46.265625 24.984375 46.28125 25.273438 46.328125 25.550781 Z M 46.328125 25.550781 "/>
<path style=" stroke:none;fill-rule:evenodd;fill:rgb(96.078431%,94.117647%,94.117647%);fill-opacity:1;" d="M 6.789062 25.023438 C 4.820312 25.277344 2.890625 25.707031 1.007812 26.320312 C 0.984375 26.160156 0.976562 26 0.984375 25.839844 C 2.917969 25.457031 4.855469 25.070312 6.789062 24.6875 C 6.789062 24.800781 6.789062 24.910156 6.789062 25.023438 Z M 6.789062 25.023438 "/>
<path style=" stroke:none;fill-rule:evenodd;fill:rgb(87.058824%,85.490196%,83.137255%);fill-opacity:1;" d="M 46.042969 24.878906 C 45.5 24.980469 44.957031 25.09375 44.410156 25.214844 C 44.378906 25.179688 44.34375 25.148438 44.3125 25.121094 C 44.308594 25.070312 44.324219 25.03125 44.363281 25 C 44.921875 24.910156 45.480469 24.820312 46.042969 24.734375 C 46.042969 24.785156 46.042969 24.832031 46.042969 24.878906 Z M 46.042969 24.878906 "/>
<path style=" stroke:none;fill-rule:evenodd;fill:rgb(70.980392%,70.196078%,69.411765%);fill-opacity:1;" d="M 19.648438 24.929688 C 19.648438 25.695312 19.648438 26.464844 19.648438 27.230469 C 19.617188 26.558594 19.585938 25.886719 19.554688 25.214844 C 19.558594 25.105469 19.589844 25.011719 19.648438 24.929688 Z M 19.648438 24.929688 "/>
<path style=" stroke:none;fill-rule:evenodd;fill:rgb(91.764706%,90.196078%,87.45098%);fill-opacity:1;" d="M 23.199219 25.070312 C 22.929688 25.886719 22.617188 26.6875 22.265625 27.472656 C 22 28.097656 21.640625 28.660156 21.183594 29.152344 C 21.84375 27.785156 22.515625 26.425781 23.199219 25.070312 Z M 23.199219 25.070312 "/>
<path style=" stroke:none;fill-rule:evenodd;fill:rgb(90.588235%,89.019608%,86.666667%);fill-opacity:1;" d="M 44.457031 26.414062 C 44.457031 26.289062 44.457031 26.160156 44.457031 26.03125 C 44.519531 26.042969 44.566406 26.027344 44.601562 25.984375 C 45.066406 25.917969 45.53125 25.839844 45.992188 25.742188 C 45.992188 25.855469 45.992188 25.96875 45.992188 26.078125 C 45.476562 26.160156 44.960938 26.273438 44.457031 26.414062 Z M 44.457031 26.414062 "/>
<path style=" stroke:none;fill-rule:evenodd;fill:rgb(89.411765%,85.490196%,82.745098%);fill-opacity:1;" d="M 41.625 25.839844 C 41.5625 26.164062 41.441406 26.46875 41.265625 26.75 C 41.171875 26.808594 41.066406 26.839844 40.953125 26.847656 C 41.21875 26.535156 41.441406 26.199219 41.625 25.839844 Z M 41.625 25.839844 "/>
<path style=" stroke:none;fill-rule:evenodd;fill:rgb(38.039216%,36.862745%,36.078431%);fill-opacity:1;" d="M 44.601562 25.984375 C 44.566406 26.027344 44.519531 26.042969 44.457031 26.03125 C 44.457031 26.160156 44.457031 26.289062 44.457031 26.414062 C 44.457031 26.429688 44.457031 26.449219 44.457031 26.464844 C 44.386719 26.503906 44.304688 26.535156 44.21875 26.558594 C 44.203125 26.542969 44.1875 26.527344 44.167969 26.511719 C 44.238281 26.480469 44.304688 26.445312 44.363281 26.414062 C 44.410156 26.28125 44.425781 26.136719 44.410156 25.984375 C 44.472656 25.984375 44.539062 25.984375 44.601562 25.984375 Z M 44.601562 25.984375 "/>
<path style=" stroke:none;fill-rule:evenodd;fill:rgb(87.45098%,85.882353%,83.529412%);fill-opacity:1;" d="M 16.722656 26.414062 C 16.84375 27.042969 17.003906 27.667969 17.203125 28.285156 C 17.125 28.226562 17.066406 28.148438 17.035156 28.046875 C 16.824219 27.523438 16.71875 26.980469 16.722656 26.414062 Z M 16.722656 26.414062 "/>
<path style=" stroke:none;fill-rule:evenodd;fill:rgb(93.72549%,92.156863%,89.411765%);fill-opacity:1;" d="M 41.484375 23.296875 C 41.976562 23.332031 42.421875 23.492188 42.828125 23.777344 C 42.878906 23.734375 42.886719 23.6875 42.851562 23.632812 C 42.765625 23.59375 42.691406 23.539062 42.632812 23.464844 C 43.753906 23.414062 44.875 23.359375 45.992188 23.296875 C 46.058594 23.6875 46.058594 24.089844 45.992188 24.496094 C 45.222656 24.648438 44.453125 24.816406 43.691406 25 C 43.617188 25.054688 43.625 25.09375 43.714844 25.121094 C 43.898438 25.082031 44.082031 25.050781 44.265625 25.023438 C 44.265625 25.070312 44.265625 25.121094 44.265625 25.167969 C 44.222656 25.207031 44.171875 25.246094 44.121094 25.289062 C 44.761719 25.222656 45.402344 25.132812 46.042969 25.023438 C 46.054688 25.230469 46.039062 25.429688 45.992188 25.625 C 45.445312 25.710938 44.902344 25.816406 44.363281 25.9375 C 43.980469 26 43.980469 26.03125 44.363281 26.03125 C 44.363281 26.160156 44.363281 26.289062 44.363281 26.414062 C 44.304688 26.445312 44.238281 26.480469 44.167969 26.511719 C 44.1875 26.527344 44.203125 26.542969 44.21875 26.558594 C 44.304688 26.535156 44.386719 26.503906 44.457031 26.464844 C 44.949219 26.363281 45.445312 26.285156 45.945312 26.222656 C 45.953125 26.320312 45.945312 26.417969 45.921875 26.511719 C 45.277344 26.742188 44.613281 26.925781 43.929688 27.0625 C 43.433594 27.1875 42.953125 27.34375 42.492188 27.542969 C 42.828125 27.515625 43.164062 27.460938 43.5 27.375 C 43.492188 27.460938 43.507812 27.542969 43.546875 27.613281 C 43.5 27.613281 43.449219 27.613281 43.402344 27.613281 C 43.3125 28.195312 43.191406 28.773438 43.042969 29.34375 C 42.902344 30.320312 43.027344 31.265625 43.425781 32.171875 C 43.507812 32.367188 43.609375 32.542969 43.738281 32.703125 C 43.851562 32.894531 43.964844 33.085938 44.074219 33.277344 C 44.074219 33.308594 44.089844 33.324219 44.121094 33.324219 C 44.152344 33.542969 44.09375 33.734375 43.953125 33.902344 C 43.34375 34.421875 42.730469 34.933594 42.105469 35.4375 C 41.9375 35.429688 41.761719 35.421875 41.578125 35.414062 C 41.007812 35.191406 40.800781 34.78125 40.953125 34.1875 C 40.988281 34.140625 41.019531 34.09375 41.050781 34.046875 C 41.066406 34.046875 41.082031 34.046875 41.097656 34.046875 C 41.109375 34.1875 41.15625 34.316406 41.242188 34.429688 C 41.214844 34.433594 41.199219 34.449219 41.195312 34.476562 C 41.316406 34.664062 41.445312 34.847656 41.578125 35.027344 C 41.671875 35.050781 41.769531 35.0625 41.867188 35.054688 C 41.828125 33.972656 41.75 32.898438 41.625 31.835938 C 41.585938 30.578125 41.5625 29.3125 41.554688 28.046875 C 41.546875 27.910156 41.523438 27.78125 41.484375 27.664062 C 41.484375 27.636719 41.5 27.621094 41.53125 27.613281 C 41.570312 27.707031 41.59375 27.804688 41.601562 27.902344 C 41.625 27.855469 41.652344 27.808594 41.675781 27.757812 C 41.902344 27.710938 42.125 27.644531 42.347656 27.566406 C 42.390625 27.527344 42.40625 27.480469 42.394531 27.421875 C 42.21875 27.46875 42.042969 27.507812 41.867188 27.542969 C 41.359375 27.636719 40.894531 27.539062 40.476562 27.253906 C 40.769531 27.152344 41.074219 27.074219 41.386719 27.015625 C 41.503906 26.933594 41.578125 26.828125 41.601562 26.703125 C 41.550781 26.753906 41.496094 26.761719 41.433594 26.726562 C 41.8125 26.125 41.941406 25.476562 41.820312 24.785156 C 41.8125 24.542969 41.75 24.316406 41.625 24.113281 C 41.625 24.089844 41.632812 24.074219 41.652344 24.0625 C 41.78125 24.191406 41.917969 24.308594 42.058594 24.425781 C 42.089844 24.457031 42.121094 24.457031 42.15625 24.425781 C 41.984375 24.316406 41.894531 24.167969 41.890625 23.96875 C 41.636719 23.773438 41.390625 23.574219 41.148438 23.367188 C 41.257812 23.335938 41.371094 23.3125 41.484375 23.296875 Z M 41.484375 23.296875 "/>
<path style=" stroke:none;fill-rule:evenodd;fill:rgb(17.254902%,16.470588%,16.078431%);fill-opacity:1;" d="M 42.539062 23.824219 C 42.621094 23.984375 42.675781 24.160156 42.707031 24.351562 C 42.808594 25.207031 42.710938 26.039062 42.417969 26.847656 C 42.332031 27.054688 42.21875 27.25 42.082031 27.421875 C 42.058594 27.40625 42.035156 27.390625 42.011719 27.375 C 42.570312 26.253906 42.746094 25.070312 42.539062 23.824219 Z M 42.539062 23.824219 "/>
<path style=" stroke:none;fill-rule:evenodd;fill:rgb(91.764706%,90.588235%,87.843137%);fill-opacity:1;" d="M 41.289062 27.710938 C 41.203125 27.753906 41.117188 27.800781 41.027344 27.855469 C 41.003906 28.496094 40.996094 29.132812 41.003906 29.773438 C 40.917969 29.160156 40.847656 28.535156 40.785156 27.902344 C 40.777344 27.84375 40.75 27.796875 40.714844 27.757812 C 40.714844 27.726562 40.699219 27.710938 40.667969 27.710938 C 40.652344 27.628906 40.644531 27.546875 40.644531 27.472656 C 40.84375 27.59375 41.058594 27.675781 41.289062 27.710938 Z M 41.289062 27.710938 "/>
<path style=" stroke:none;fill-rule:evenodd;fill:rgb(99.215686%,99.215686%,98.823529%);fill-opacity:1;" d="M 41.484375 27.664062 C 41.523438 27.78125 41.546875 27.910156 41.554688 28.046875 C 41.5625 29.3125 41.585938 30.578125 41.625 31.835938 C 41.660156 32.894531 41.683594 33.949219 41.699219 35.003906 C 41.535156 34.820312 41.382812 34.625 41.242188 34.429688 C 41.15625 34.316406 41.109375 34.1875 41.097656 34.046875 C 41.113281 33.203125 41.097656 32.375 41.050781 31.550781 C 41.050781 30.957031 41.035156 30.367188 41.003906 29.773438 C 40.996094 29.132812 41.003906 28.496094 41.027344 27.855469 C 41.117188 27.800781 41.203125 27.753906 41.289062 27.710938 C 41.355469 27.695312 41.417969 27.679688 41.484375 27.664062 Z M 41.484375 27.664062 "/>
<path style=" stroke:none;fill-rule:evenodd;fill:rgb(11.764706%,11.372549%,11.372549%);fill-opacity:1;" d="M 43.546875 27.613281 C 43.574219 27.621094 43.601562 27.636719 43.617188 27.664062 C 43.648438 27.792969 43.648438 27.917969 43.617188 28.046875 C 43.507812 28.480469 43.394531 28.910156 43.28125 29.34375 C 43.113281 30.402344 43.265625 31.410156 43.738281 32.367188 C 43.789062 32.433594 43.820312 32.515625 43.832031 32.605469 C 43.785156 32.621094 43.753906 32.652344 43.738281 32.703125 C 43.609375 32.542969 43.507812 32.367188 43.425781 32.171875 C 43.027344 31.265625 42.902344 30.320312 43.042969 29.34375 C 43.191406 28.773438 43.3125 28.195312 43.402344 27.613281 C 43.449219 27.613281 43.5 27.613281 43.546875 27.613281 Z M 43.546875 27.613281 "/>
<path style=" stroke:none;fill-rule:evenodd;fill:rgb(10.980392%,10.588235%,10.588235%);fill-opacity:1;" d="M 40.714844 27.757812 C 40.75 27.796875 40.777344 27.84375 40.785156 27.902344 C 40.847656 28.535156 40.917969 29.160156 41.003906 29.773438 C 41.035156 30.367188 41.050781 30.957031 41.050781 31.550781 C 41.066406 32.085938 41.050781 32.613281 41.003906 33.132812 C 40.964844 32.894531 40.945312 32.65625 40.953125 32.414062 C 40.84375 30.960938 40.746094 29.503906 40.667969 28.046875 C 40.667969 27.941406 40.683594 27.84375 40.714844 27.757812 Z M 40.714844 27.757812 "/>
<path style=" stroke:none;fill-rule:evenodd;fill:rgb(10.980392%,10.588235%,10.588235%);fill-opacity:1;" d="M 19.410156 30.925781 C 18.691406 30.75 18.195312 30.320312 17.921875 29.628906 C 17.953125 29.625 17.976562 29.609375 17.996094 29.582031 C 18.554688 30.476562 19.363281 30.859375 20.417969 30.734375 C 20.417969 30.796875 20.417969 30.863281 20.417969 30.925781 C 20.082031 30.988281 19.746094 30.988281 19.410156 30.925781 Z M 19.410156 30.925781 "/>
<path style=" stroke:none;fill-rule:evenodd;fill:rgb(66.666667%,23.137255%,18.039216%);fill-opacity:1;" d="M 15.042969 30.160156 C 14.464844 31.945312 13.902344 33.734375 13.363281 35.53125 C 13.117188 35.402344 12.878906 35.257812 12.644531 35.101562 C 12.625 35.050781 12.59375 35.042969 12.546875 35.078125 C 12.363281 35.253906 12.1875 35.4375 12.019531 35.628906 C 11.71875 35.851562 11.445312 36.105469 11.203125 36.394531 C 10.597656 36.890625 10.023438 37.417969 9.476562 37.980469 C 9.347656 37.898438 9.21875 37.820312 9.09375 37.738281 C 7.925781 36.890625 6.742188 36.058594 5.542969 35.246094 C 5.527344 35.246094 5.511719 35.246094 5.496094 35.246094 C 5.496094 35.230469 5.496094 35.210938 5.496094 35.195312 C 6.855469 34.3125 8.230469 33.449219 9.621094 32.605469 C 9.695312 32.609375 9.742188 32.578125 9.765625 32.507812 C 9.839844 32.511719 9.886719 32.480469 9.910156 32.414062 C 10.128906 32.320312 10.335938 32.199219 10.53125 32.054688 C 10.582031 32.023438 10.628906 32.023438 10.675781 32.054688 C 11.035156 32.484375 11.40625 32.910156 11.78125 33.324219 C 11.808594 33.320312 11.824219 33.304688 11.828125 33.277344 C 11.890625 33.246094 11.941406 33.199219 11.972656 33.132812 C 12.132812 32.988281 12.292969 32.84375 12.453125 32.703125 C 12.597656 32.589844 12.722656 32.460938 12.835938 32.316406 C 13.542969 31.5625 14.277344 30.84375 15.042969 30.160156 Z M 15.042969 30.160156 "/>
<path style=" stroke:none;fill-rule:evenodd;fill:rgb(87.843137%,83.529412%,82.745098%);fill-opacity:1;" d="M 11.828125 33.277344 C 11.824219 33.304688 11.808594 33.320312 11.78125 33.324219 C 11.40625 32.910156 11.035156 32.484375 10.675781 32.054688 C 10.628906 32.023438 10.582031 32.023438 10.53125 32.054688 C 10.335938 32.199219 10.128906 32.320312 9.910156 32.414062 C 10.144531 32.214844 10.402344 32.039062 10.675781 31.886719 C 11.0625 32.351562 11.445312 32.8125 11.828125 33.277344 Z M 11.828125 33.277344 "/>
<path style=" stroke:none;fill-rule:evenodd;fill:rgb(40.392157%,40%,40%);fill-opacity:1;" d="M 41.050781 31.550781 C 41.097656 32.375 41.113281 33.203125 41.097656 34.046875 C 41.082031 34.046875 41.066406 34.046875 41.050781 34.046875 C 41.03125 33.742188 41.015625 33.4375 41.003906 33.132812 C 41.050781 32.613281 41.066406 32.085938 41.050781 31.550781 Z M 41.050781 31.550781 "/>
<path style=" stroke:none;fill-rule:evenodd;fill:rgb(81.960784%,72.941176%,71.764706%);fill-opacity:1;" d="M 9.910156 32.414062 C 9.886719 32.480469 9.839844 32.511719 9.765625 32.507812 C 9.789062 32.441406 9.835938 32.410156 9.910156 32.414062 Z M 9.910156 32.414062 "/>
<path style=" stroke:none;fill-rule:evenodd;fill:rgb(76.470588%,56.862745%,54.509804%);fill-opacity:1;" d="M 12.835938 32.316406 C 12.722656 32.460938 12.597656 32.589844 12.453125 32.703125 C 12.453125 32.6875 12.453125 32.667969 12.453125 32.652344 C 12.550781 32.507812 12.679688 32.394531 12.835938 32.316406 Z M 12.835938 32.316406 "/>
<path style=" stroke:none;fill-rule:evenodd;fill:rgb(80.784314%,65.098039%,63.529412%);fill-opacity:1;" d="M 9.765625 32.507812 C 9.742188 32.578125 9.695312 32.609375 9.621094 32.605469 C 9.644531 32.539062 9.691406 32.507812 9.765625 32.507812 Z M 9.765625 32.507812 "/>
<path style=" stroke:none;fill-rule:evenodd;fill:rgb(22.745098%,21.960784%,21.568627%);fill-opacity:1;" d="M 41.625 31.835938 C 41.75 32.898438 41.828125 33.972656 41.867188 35.054688 C 41.769531 35.0625 41.671875 35.050781 41.578125 35.027344 C 41.445312 34.847656 41.316406 34.664062 41.195312 34.476562 C 41.199219 34.449219 41.214844 34.433594 41.242188 34.429688 C 41.382812 34.625 41.535156 34.820312 41.699219 35.003906 C 41.683594 33.949219 41.660156 32.894531 41.625 31.835938 Z M 41.625 31.835938 "/>
<path style=" stroke:none;fill-rule:evenodd;fill:rgb(91.764706%,90.196078%,90.196078%);fill-opacity:1;" d="M 12.453125 32.652344 C 12.453125 32.667969 12.453125 32.6875 12.453125 32.703125 C 12.292969 32.84375 12.132812 32.988281 11.972656 33.132812 C 11.964844 33.070312 11.980469 33.015625 12.019531 32.964844 C 12.160156 32.851562 12.304688 32.746094 12.453125 32.652344 Z M 12.453125 32.652344 "/>
<use xlink:href="#surface27" mask="url(#mask7)"/>
<use xlink:href="#surface30" mask="url(#mask8)"/>
<path style=" stroke:none;fill-rule:evenodd;fill:rgb(55.686275%,51.764706%,51.372549%);fill-opacity:1;" d="M 12.644531 35.101562 C 12.449219 35.296875 12.242188 35.472656 12.019531 35.628906 C 12.1875 35.4375 12.363281 35.253906 12.546875 35.078125 C 12.59375 35.042969 12.625 35.050781 12.644531 35.101562 Z M 12.644531 35.101562 "/>
<path style=" stroke:none;fill-rule:evenodd;fill:rgb(69.411765%,66.27451%,66.27451%);fill-opacity:1;" d="M 12.019531 35.628906 C 11.765625 35.917969 11.492188 36.1875 11.203125 36.445312 C 11.203125 36.429688 11.203125 36.414062 11.203125 36.394531 C 11.445312 36.105469 11.71875 35.851562 12.019531 35.628906 Z M 12.019531 35.628906 "/>
<path style=" stroke:none;fill-rule:evenodd;fill:rgb(92.941176%,90.588235%,90.196078%);fill-opacity:1;" d="M 11.203125 36.394531 C 11.203125 36.414062 11.203125 36.429688 11.203125 36.445312 C 10.65625 36.941406 10.128906 37.460938 9.621094 38.003906 C 9.570312 38.027344 9.519531 38.019531 9.476562 37.980469 C 10.023438 37.417969 10.597656 36.890625 11.203125 36.394531 Z M 11.203125 36.394531 "/>
</g>
</svg>
