<?xml version="1.0" encoding="UTF-8"?>
<svg xmlns="http://www.w3.org/2000/svg" xmlns:xlink="http://www.w3.org/1999/xlink" width="50pt" height="50pt" viewBox="0 0 50 50" version="1.1">
<defs>
<filter id="alpha" filterUnits="objectBoundingBox" x="0%" y="0%" width="100%" height="100%">
  <feColorMatrix type="matrix" in="SourceGraphic" values="0 0 0 0 1 0 0 0 0 1 0 0 0 0 1 0 0 0 1 0"/>
</filter>
<mask id="mask0">
  <g filter="url(#alpha)">
<rect x="0" y="0" width="50" height="50" style="fill:rgb(0%,0%,0%);fill-opacity:0.976471;stroke:none;"/>
  </g>
</mask>
<clipPath id="clip1">
  <rect width="50" height="50"/>
</clipPath>
<g id="surface6" clip-path="url(#clip1)">
<path style=" stroke:none;fill-rule:evenodd;fill:rgb(0.392157%,0.392157%,0.392157%);fill-opacity:1;" d="M 28.648438 20.726562 C 28.628906 20.84375 28.617188 20.964844 28.613281 21.085938 C 28.597656 22.238281 28.597656 23.390625 28.613281 24.542969 C 28.636719 24.933594 28.664062 25.316406 28.695312 25.695312 C 28.710938 25.945312 28.726562 26.191406 28.746094 26.441406 C 29.023438 26.433594 29.304688 26.441406 29.585938 26.464844 C 29.867188 26.523438 30.15625 26.554688 30.449219 26.558594 C 30.46875 26.558594 30.484375 26.566406 30.496094 26.585938 C 30.511719 26.644531 30.542969 26.703125 30.582031 26.753906 C 30.597656 26.820312 30.589844 26.882812 30.558594 26.945312 C 30.460938 26.976562 30.367188 27.019531 30.28125 27.078125 C 30.117188 27.273438 29.9375 27.453125 29.742188 27.617188 C 29.625 27.761719 29.527344 27.917969 29.441406 28.085938 C 29.667969 28.40625 29.847656 28.753906 29.980469 29.128906 C 30.539062 30.804688 30.835938 32.523438 30.867188 34.289062 C 30.894531 35.929688 30.910156 37.570312 30.917969 39.210938 C 30.976562 40.265625 31.039062 41.324219 31.109375 42.378906 C 31.152344 43.578125 31.183594 44.777344 31.203125 45.980469 C 31.1875 46.347656 31.15625 46.714844 31.109375 47.082031 C 31.078125 47.371094 30.964844 47.613281 30.761719 47.816406 C 30.640625 47.910156 30.503906 47.945312 30.351562 47.910156 C 30.273438 47.875 30.226562 47.816406 30.207031 47.730469 C 30.179688 47.539062 30.257812 47.410156 30.4375 47.347656 C 30.5 47.242188 30.539062 47.132812 30.558594 47.011719 C 30.617188 46.539062 30.65625 46.0625 30.664062 45.582031 C 30.632812 44.59375 30.601562 43.605469 30.582031 42.617188 C 30.515625 41.347656 30.460938 40.074219 30.414062 38.800781 C 30.414062 37.355469 30.414062 35.90625 30.414062 34.457031 C 30.394531 33.832031 30.347656 33.207031 30.28125 32.585938 C 30.285156 32.5625 30.277344 32.546875 30.257812 32.539062 C 30.257812 32.488281 30.257812 32.441406 30.257812 32.394531 C 30.261719 32.363281 30.253906 32.339844 30.234375 32.320312 C 30.234375 32.289062 30.234375 32.257812 30.234375 32.226562 C 30.238281 32.1875 30.230469 32.15625 30.207031 32.128906 C 30.207031 32.105469 30.207031 32.082031 30.207031 32.058594 C 30.214844 32.019531 30.207031 31.988281 30.183594 31.960938 C 30.183594 31.9375 30.183594 31.914062 30.183594 31.890625 C 30.191406 31.851562 30.183594 31.820312 30.160156 31.792969 C 30.160156 31.769531 30.160156 31.746094 30.160156 31.722656 C 30.167969 31.691406 30.160156 31.667969 30.136719 31.648438 C 30.136719 31.617188 30.136719 31.585938 30.136719 31.554688 C 30.140625 31.527344 30.132812 31.511719 30.113281 31.503906 C 30.113281 31.472656 30.113281 31.441406 30.113281 31.410156 C 30.117188 31.386719 30.109375 31.371094 30.089844 31.359375 C 30.089844 31.328125 30.089844 31.296875 30.089844 31.265625 C 30.09375 31.242188 30.085938 31.226562 30.066406 31.21875 C 30.066406 31.183594 30.066406 31.152344 30.066406 31.121094 C 30.066406 31.105469 30.058594 31.097656 30.039062 31.097656 C 29.902344 30.273438 29.707031 29.46875 29.453125 28.671875 C 29.402344 28.550781 29.351562 28.429688 29.296875 28.3125 C 29.265625 28.242188 29.242188 28.171875 29.226562 28.097656 C 29.109375 28.023438 29.054688 27.917969 29.070312 27.785156 C 29.359375 27.40625 29.691406 27.066406 30.066406 26.765625 C 29.632812 26.753906 29.199219 26.75 28.769531 26.753906 C 28.847656 27.046875 28.734375 27.171875 28.433594 27.125 C 28.398438 27.113281 28.371094 27.09375 28.347656 27.0625 C 28.316406 26.980469 28.304688 26.890625 28.3125 26.800781 C 27.367188 26.847656 26.425781 26.898438 25.480469 26.945312 C 25.382812 26.9375 25.3125 26.890625 25.277344 26.800781 C 25.230469 26.644531 25.273438 26.523438 25.40625 26.441406 C 25.425781 26.441406 25.441406 26.441406 25.457031 26.441406 C 26.414062 26.496094 27.375 26.503906 28.335938 26.464844 C 28.34375 25.800781 28.324219 25.136719 28.277344 24.472656 C 28.222656 22.003906 28.289062 19.539062 28.480469 17.078125 C 28.527344 16.488281 28.558594 15.894531 28.578125 15.300781 C 28.820312 12.558594 28.757812 9.824219 28.382812 7.09375 C 28.300781 6.03125 28.261719 4.964844 28.265625 3.902344 C 28.207031 3.902344 28.164062 3.878906 28.132812 3.828125 C 27.867188 2.957031 27.667969 2.066406 27.53125 1.164062 C 27.253906 1.730469 26.980469 2.296875 26.714844 2.867188 C 26.597656 3.039062 26.507812 3.222656 26.441406 3.421875 C 26.46875 3.449219 26.484375 3.480469 26.488281 3.515625 C 26.589844 4.316406 26.695312 5.117188 26.8125 5.917969 C 26.9375 7.25 26.976562 8.585938 26.933594 9.925781 C 26.898438 11.199219 26.859375 12.46875 26.8125 13.742188 C 26.800781 14.902344 26.789062 16.0625 26.777344 17.222656 C 26.753906 18.679688 26.75 20.136719 26.765625 21.589844 C 26.796875 22.355469 26.859375 23.113281 26.945312 23.871094 C 27 24.246094 27.003906 24.625 26.957031 25 C 26.84375 25.398438 26.75 25.796875 26.667969 26.199219 C 26.535156 26.324219 26.386719 26.351562 26.222656 26.273438 C 26.1875 26.222656 26.164062 26.167969 26.152344 26.105469 C 26.222656 25.761719 26.320312 25.425781 26.441406 25.097656 C 26.527344 24.878906 26.550781 24.652344 26.511719 24.425781 C 26.441406 23.722656 26.382812 23.015625 26.332031 22.3125 C 26.304688 21.695312 26.285156 21.078125 26.273438 20.464844 C 26.300781 18.429688 26.328125 16.398438 26.355469 14.367188 C 26.4375 12.292969 26.496094 10.222656 26.535156 8.148438 C 26.546875 7.339844 26.511719 6.53125 26.429688 5.726562 C 26.421875 5.6875 26.410156 5.65625 26.390625 5.628906 C 26.28125 4.914062 26.21875 4.191406 26.210938 3.46875 C 26.144531 3.433594 26.109375 3.378906 26.105469 3.300781 C 26.121094 3.21875 26.140625 3.140625 26.164062 3.058594 C 26.480469 2.417969 26.816406 1.785156 27.171875 1.164062 C 27.195312 1.066406 27.210938 0.972656 27.21875 0.875 C 27.324219 0.785156 27.421875 0.792969 27.507812 0.898438 C 27.578125 0.769531 27.664062 0.75 27.773438 0.851562 C 27.953125 1.761719 28.183594 2.65625 28.46875 3.539062 C 28.484375 4.226562 28.515625 4.917969 28.566406 5.605469 C 28.679688 6.636719 28.789062 7.667969 28.902344 8.703125 C 29.058594 10.449219 29.101562 12.203125 29.019531 13.957031 C 28.875 16.214844 28.753906 18.46875 28.648438 20.726562 Z M 28.382812 7.09375 C 28.757812 9.824219 28.820312 12.558594 28.578125 15.300781 C 28.515625 12.566406 28.449219 9.828125 28.382812 7.09375 Z M 28.382812 7.09375 "/>
</g>
<mask id="mask1">
  <g filter="url(#alpha)">
<rect x="0" y="0" width="50" height="50" style="fill:rgb(0%,0%,0%);fill-opacity:0.980392;stroke:none;"/>
  </g>
</mask>
<clipPath id="clip2">
  <rect width="50" height="50"/>
</clipPath>
<g id="surface9" clip-path="url(#clip2)">
<path style=" stroke:none;fill-rule:evenodd;fill:rgb(98.823529%,98.823529%,98.823529%);fill-opacity:1;" d="M 28.382812 7.09375 C 28.449219 9.828125 28.515625 12.566406 28.578125 15.300781 C 28.558594 15.894531 28.527344 16.488281 28.480469 17.078125 C 28.464844 17.089844 28.453125 17.105469 28.445312 17.125 C 28.355469 12.886719 28.257812 8.644531 28.15625 4.40625 C 27.980469 4.035156 27.804688 3.667969 27.628906 3.300781 C 27.539062 3.667969 27.445312 4.039062 27.351562 4.40625 C 27.0625 4.109375 26.777344 3.8125 26.488281 3.515625 C 26.484375 3.480469 26.46875 3.449219 26.441406 3.421875 C 26.507812 3.222656 26.597656 3.039062 26.714844 2.867188 C 26.980469 2.296875 27.253906 1.730469 27.53125 1.164062 C 27.667969 2.066406 27.867188 2.957031 28.132812 3.828125 C 28.164062 3.878906 28.207031 3.902344 28.265625 3.902344 C 28.261719 4.964844 28.300781 6.03125 28.382812 7.09375 Z M 28.382812 7.09375 "/>
</g>
<mask id="mask2">
  <g filter="url(#alpha)">
<rect x="0" y="0" width="50" height="50" style="fill:rgb(0%,0%,0%);fill-opacity:0.729412;stroke:none;"/>
  </g>
</mask>
<clipPath id="clip3">
  <rect width="50" height="50"/>
</clipPath>
<g id="surface12" clip-path="url(#clip3)">
<path style=" stroke:none;fill-rule:evenodd;fill:rgb(87.058824%,87.058824%,87.058824%);fill-opacity:1;" d="M 26.390625 5.628906 C 26.410156 5.65625 26.421875 5.6875 26.429688 5.726562 C 26.511719 6.53125 26.546875 7.339844 26.535156 8.148438 C 26.476562 7.3125 26.429688 6.472656 26.390625 5.628906 Z M 26.390625 5.628906 "/>
</g>
<mask id="mask3">
  <g filter="url(#alpha)">
<rect x="0" y="0" width="50" height="50" style="fill:rgb(0%,0%,0%);fill-opacity:0.827451;stroke:none;"/>
  </g>
</mask>
<clipPath id="clip4">
  <rect width="50" height="50"/>
</clipPath>
<g id="surface15" clip-path="url(#clip4)">
<path style=" stroke:none;fill-rule:evenodd;fill:rgb(94.117647%,94.117647%,94.117647%);fill-opacity:1;" d="M 28.648438 20.726562 C 28.664062 22.382812 28.679688 24.039062 28.695312 25.695312 C 28.664062 25.316406 28.636719 24.933594 28.613281 24.542969 C 28.597656 23.390625 28.597656 22.238281 28.613281 21.085938 C 28.617188 20.964844 28.628906 20.84375 28.648438 20.726562 Z M 28.648438 20.726562 "/>
</g>
<mask id="mask4">
  <g filter="url(#alpha)">
<rect x="0" y="0" width="50" height="50" style="fill:rgb(0%,0%,0%);fill-opacity:0.584314;stroke:none;"/>
  </g>
</mask>
<clipPath id="clip5">
  <rect width="50" height="50"/>
</clipPath>
<g id="surface18" clip-path="url(#clip5)">
<path style=" stroke:none;fill-rule:evenodd;fill:rgb(81.960784%,81.960784%,81.960784%);fill-opacity:1;" d="M 26.511719 24.425781 C 26.550781 24.652344 26.527344 24.878906 26.441406 25.097656 C 26.46875 24.871094 26.492188 24.648438 26.511719 24.425781 Z M 26.511719 24.425781 "/>
</g>
<mask id="mask5">
  <g filter="url(#alpha)">
<rect x="0" y="0" width="50" height="50" style="fill:rgb(0%,0%,0%);fill-opacity:0.713725;stroke:none;"/>
  </g>
</mask>
<clipPath id="clip6">
  <rect width="50" height="50"/>
</clipPath>
<g id="surface21" clip-path="url(#clip6)">
<path style=" stroke:none;fill-rule:evenodd;fill:rgb(89.411765%,89.019608%,88.235294%);fill-opacity:1;" d="M 30.449219 26.558594 C 30.15625 26.554688 29.867188 26.523438 29.585938 26.464844 C 29.753906 26.445312 29.921875 26.441406 30.089844 26.453125 C 30.214844 26.484375 30.335938 26.519531 30.449219 26.558594 Z M 30.449219 26.558594 "/>
</g>
<mask id="mask6">
  <g filter="url(#alpha)">
<rect x="0" y="0" width="50" height="50" style="fill:rgb(0%,0%,0%);fill-opacity:0.980392;stroke:none;"/>
  </g>
</mask>
<clipPath id="clip7">
  <rect width="50" height="50"/>
</clipPath>
<g id="surface24" clip-path="url(#clip7)">
<path style=" stroke:none;fill-rule:evenodd;fill:rgb(0.392157%,0.392157%,0.392157%);fill-opacity:1;" d="M 24.902344 26.632812 C 24.976562 26.652344 25.039062 26.6875 25.097656 26.742188 C 25.660156 27.285156 25.847656 27.9375 25.660156 28.695312 C 25.546875 28.90625 25.433594 29.113281 25.324219 29.320312 C 25.292969 29.574219 25.265625 29.832031 25.253906 30.089844 C 24.714844 33.28125 24.429688 36.5 24.386719 39.738281 C 24.425781 40.453125 24.484375 41.164062 24.554688 41.875 C 24.582031 42.578125 24.605469 43.28125 24.628906 43.988281 C 24.695312 45.4375 24.878906 46.867188 25.179688 48.285156 C 25.226562 48.347656 25.285156 48.390625 25.359375 48.414062 C 25.53125 48.476562 25.707031 48.515625 25.886719 48.535156 C 26.328125 48.566406 26.769531 48.578125 27.207031 48.570312 C 27.222656 48.570312 27.230469 48.5625 27.230469 48.546875 C 27.28125 48.546875 27.328125 48.546875 27.375 48.546875 C 27.421875 48.554688 27.460938 48.546875 27.496094 48.523438 C 27.503906 48.523438 27.511719 48.523438 27.519531 48.523438 C 27.566406 48.53125 27.605469 48.523438 27.640625 48.5 C 27.648438 48.5 27.65625 48.5 27.664062 48.5 C 27.703125 48.507812 27.734375 48.5 27.761719 48.476562 C 27.769531 48.476562 27.777344 48.476562 27.785156 48.476562 C 27.816406 48.480469 27.839844 48.472656 27.855469 48.453125 C 27.871094 48.453125 27.886719 48.453125 27.90625 48.453125 C 27.921875 48.453125 27.929688 48.445312 27.929688 48.429688 C 28.300781 48.335938 28.644531 48.183594 28.960938 47.972656 C 29.179688 47.867188 29.375 47.734375 29.546875 47.5625 C 29.652344 47.4375 29.699219 47.292969 29.691406 47.132812 C 29.792969 46.976562 29.933594 46.925781 30.113281 46.976562 C 30.175781 46.992188 30.21875 47.027344 30.246094 47.082031 C 30.265625 47.34375 30.207031 47.582031 30.066406 47.804688 C 29.867188 48.085938 29.621094 48.3125 29.320312 48.488281 C 28.167969 49.140625 26.933594 49.347656 25.625 49.113281 C 25.289062 49.078125 24.988281 48.960938 24.722656 48.765625 C 24.632812 48.632812 24.570312 48.488281 24.53125 48.332031 C 24.367188 47.222656 24.246094 46.113281 24.171875 44.996094 C 24.078125 43.515625 23.992188 42.035156 23.90625 40.554688 C 23.890625 39.867188 23.890625 39.179688 23.90625 38.488281 C 23.960938 37.480469 24.035156 36.472656 24.125 35.464844 C 24.316406 33.335938 24.515625 31.207031 24.722656 29.082031 C 24.75 29.003906 24.78125 28.933594 24.820312 28.863281 C 24.941406 28.726562 25.046875 28.574219 25.132812 28.410156 C 25.21875 27.957031 25.132812 27.542969 24.867188 27.160156 C 24.597656 27.082031 24.546875 26.929688 24.710938 26.703125 C 24.761719 26.644531 24.824219 26.621094 24.902344 26.632812 Z M 24.902344 26.632812 "/>
</g>
<mask id="mask7">
  <g filter="url(#alpha)">
<rect x="0" y="0" width="50" height="50" style="fill:rgb(0%,0%,0%);fill-opacity:0.996078;stroke:none;"/>
  </g>
</mask>
<clipPath id="clip8">
  <rect width="50" height="50"/>
</clipPath>
<g id="surface27" clip-path="url(#clip8)">
<path style=" stroke:none;fill-rule:evenodd;fill:rgb(98.823529%,98.823529%,98.823529%);fill-opacity:1;" d="M 29.296875 28.3125 C 29.351562 28.429688 29.402344 28.550781 29.453125 28.671875 C 29.707031 29.46875 29.902344 30.273438 30.039062 31.097656 C 30.058594 31.097656 30.066406 31.105469 30.066406 31.121094 C 30.066406 31.152344 30.066406 31.183594 30.066406 31.21875 C 30.0625 31.242188 30.070312 31.257812 30.089844 31.265625 C 30.089844 31.296875 30.089844 31.328125 30.089844 31.359375 C 30.085938 31.386719 30.09375 31.402344 30.113281 31.410156 C 30.113281 31.441406 30.113281 31.472656 30.113281 31.503906 C 30.109375 31.527344 30.117188 31.542969 30.136719 31.554688 C 30.136719 31.585938 30.136719 31.617188 30.136719 31.648438 C 30.132812 31.679688 30.140625 31.703125 30.160156 31.722656 C 30.160156 31.746094 30.160156 31.769531 30.160156 31.792969 C 30.15625 31.832031 30.164062 31.863281 30.183594 31.890625 C 30.183594 31.914062 30.183594 31.9375 30.183594 31.960938 C 30.179688 32 30.1875 32.03125 30.207031 32.058594 C 30.207031 32.082031 30.207031 32.105469 30.207031 32.128906 C 30.203125 32.167969 30.210938 32.199219 30.234375 32.226562 C 30.234375 32.257812 30.234375 32.289062 30.234375 32.320312 C 30.226562 32.351562 30.234375 32.375 30.257812 32.394531 C 30.257812 32.441406 30.257812 32.488281 30.257812 32.539062 C 30.253906 32.5625 30.261719 32.578125 30.28125 32.585938 C 30.347656 33.207031 30.394531 33.832031 30.414062 34.457031 C 30.414062 35.90625 30.414062 37.355469 30.414062 38.800781 C 30.460938 40.074219 30.515625 41.347656 30.582031 42.617188 C 30.601562 43.605469 30.632812 44.59375 30.664062 45.582031 C 30.65625 46.0625 30.617188 46.539062 30.558594 47.011719 C 30.539062 47.132812 30.5 47.242188 30.4375 47.347656 C 30.257812 47.410156 30.179688 47.539062 30.207031 47.730469 C 30.160156 47.753906 30.113281 47.777344 30.066406 47.804688 C 30.207031 47.582031 30.265625 47.34375 30.246094 47.082031 C 30.21875 47.027344 30.175781 46.992188 30.113281 46.976562 C 29.933594 46.925781 29.792969 46.976562 29.691406 47.132812 C 29.699219 47.292969 29.652344 47.4375 29.546875 47.5625 C 29.375 47.734375 29.179688 47.867188 28.960938 47.972656 C 28.941406 47.976562 28.925781 47.972656 28.914062 47.960938 C 29.097656 47.734375 29.238281 47.484375 29.332031 47.203125 C 29.507812 46.601562 29.621094 45.984375 29.667969 45.355469 C 29.742188 44.394531 29.765625 43.4375 29.742188 42.476562 C 29.640625 39.410156 29.570312 36.347656 29.523438 33.28125 C 29.492188 31.65625 29.40625 30.039062 29.273438 28.421875 C 29.273438 28.378906 29.28125 28.34375 29.296875 28.3125 Z M 29.296875 28.3125 "/>
</g>
</defs>
<g id="surface1">
<use xlink:href="#surface6" mask="url(#mask0)"/>
<use xlink:href="#surface9" mask="url(#mask1)"/>
<path style=" stroke:none;fill-rule:evenodd;fill:rgb(94.509804%,92.941176%,90.196078%);fill-opacity:1;" d="M 28.480469 17.078125 C 28.289062 19.539062 28.222656 22.003906 28.277344 24.472656 C 28.324219 25.136719 28.34375 25.800781 28.335938 26.464844 C 27.375 26.503906 26.414062 26.496094 25.457031 26.441406 C 25.710938 26.394531 25.96875 26.339844 26.222656 26.273438 C 26.386719 26.351562 26.535156 26.324219 26.667969 26.199219 C 26.75 25.796875 26.84375 25.398438 26.957031 25 C 27.003906 24.625 27 24.246094 26.945312 23.871094 C 26.960938 23.777344 26.96875 23.675781 26.96875 23.570312 C 26.898438 21.214844 26.84375 18.859375 26.8125 16.503906 C 26.808594 16.746094 26.796875 16.988281 26.777344 17.222656 C 26.789062 16.0625 26.800781 14.902344 26.8125 13.742188 C 26.859375 12.46875 26.898438 11.199219 26.933594 9.925781 C 26.976562 8.585938 26.9375 7.25 26.8125 5.917969 C 26.695312 5.117188 26.589844 4.316406 26.488281 3.515625 C 26.777344 3.8125 27.0625 4.109375 27.351562 4.40625 C 27.445312 4.039062 27.539062 3.667969 27.628906 3.300781 C 27.804688 3.667969 27.980469 4.035156 28.15625 4.40625 C 28.257812 8.644531 28.355469 12.886719 28.445312 17.125 C 28.453125 17.105469 28.464844 17.089844 28.480469 17.078125 Z M 28.480469 17.078125 "/>
<use xlink:href="#surface12" mask="url(#mask2)"/>
<path style=" stroke:none;fill-rule:evenodd;fill:rgb(96.862745%,96.862745%,96.862745%);fill-opacity:1;" d="M 26.945312 23.871094 C 26.859375 23.113281 26.796875 22.355469 26.765625 21.589844 C 26.75 20.136719 26.753906 18.679688 26.777344 17.222656 C 26.796875 16.988281 26.808594 16.746094 26.8125 16.503906 C 26.84375 18.859375 26.898438 21.214844 26.96875 23.570312 C 26.96875 23.675781 26.960938 23.777344 26.945312 23.871094 Z M 26.945312 23.871094 "/>
<use xlink:href="#surface15" mask="url(#mask3)"/>
<use xlink:href="#surface18" mask="url(#mask4)"/>
<path style=" stroke:none;fill-rule:evenodd;fill:rgb(94.509804%,92.941176%,90.196078%);fill-opacity:1;" d="M 25.40625 26.441406 C 25.273438 26.523438 25.230469 26.644531 25.277344 26.800781 C 25.3125 26.890625 25.382812 26.9375 25.480469 26.945312 C 26.425781 26.898438 27.367188 26.847656 28.3125 26.800781 C 28.304688 26.890625 28.316406 26.980469 28.347656 27.0625 C 28.371094 27.09375 28.398438 27.113281 28.433594 27.125 C 28.734375 27.171875 28.847656 27.046875 28.769531 26.753906 C 29.199219 26.75 29.632812 26.753906 30.066406 26.765625 C 29.691406 27.066406 29.359375 27.40625 29.070312 27.785156 C 29.054688 27.917969 29.109375 28.023438 29.226562 28.097656 C 29.242188 28.171875 29.265625 28.242188 29.296875 28.3125 C 29.28125 28.34375 29.273438 28.378906 29.273438 28.421875 C 29.40625 30.039062 29.492188 31.65625 29.523438 33.28125 C 29.570312 36.347656 29.640625 39.410156 29.742188 42.476562 C 29.765625 43.4375 29.742188 44.394531 29.667969 45.355469 C 29.621094 45.984375 29.507812 46.601562 29.332031 47.203125 C 29.238281 47.484375 29.097656 47.734375 28.914062 47.960938 C 28.925781 47.972656 28.941406 47.976562 28.960938 47.972656 C 28.644531 48.183594 28.300781 48.335938 27.929688 48.429688 C 27.914062 48.429688 27.90625 48.4375 27.90625 48.453125 C 27.886719 48.453125 27.871094 48.453125 27.855469 48.453125 C 27.824219 48.445312 27.800781 48.453125 27.785156 48.476562 C 27.777344 48.476562 27.769531 48.476562 27.761719 48.476562 C 27.722656 48.46875 27.691406 48.476562 27.664062 48.5 C 27.65625 48.5 27.648438 48.5 27.640625 48.5 C 27.59375 48.492188 27.554688 48.5 27.519531 48.523438 C 27.511719 48.523438 27.503906 48.523438 27.496094 48.523438 C 27.449219 48.515625 27.410156 48.523438 27.375 48.546875 C 27.328125 48.546875 27.28125 48.546875 27.230469 48.546875 C 27.214844 48.546875 27.207031 48.554688 27.207031 48.570312 C 26.769531 48.578125 26.328125 48.566406 25.886719 48.535156 C 25.707031 48.515625 25.53125 48.476562 25.359375 48.414062 C 25.285156 48.390625 25.226562 48.347656 25.179688 48.285156 C 24.878906 46.867188 24.695312 45.4375 24.628906 43.988281 C 24.605469 43.28125 24.582031 42.578125 24.554688 41.875 C 24.484375 41.164062 24.425781 40.453125 24.386719 39.738281 C 24.429688 36.5 24.714844 33.28125 25.253906 30.089844 C 25.265625 29.832031 25.292969 29.574219 25.324219 29.320312 C 25.433594 29.113281 25.546875 28.90625 25.660156 28.695312 C 25.847656 27.9375 25.660156 27.285156 25.097656 26.742188 C 25.039062 26.6875 24.976562 26.652344 24.902344 26.632812 C 24.902344 26.589844 24.910156 26.550781 24.929688 26.511719 C 25.082031 26.453125 25.242188 26.425781 25.40625 26.441406 Z M 25.40625 26.441406 "/>
<use xlink:href="#surface21" mask="url(#mask5)"/>
<use xlink:href="#surface24" mask="url(#mask6)"/>
<use xlink:href="#surface27" mask="url(#mask7)"/>
</g>
</svg>
