<?xml version="1.0" encoding="UTF-8"?>
<svg xmlns="http://www.w3.org/2000/svg" xmlns:xlink="http://www.w3.org/1999/xlink" width="50pt" height="50pt" viewBox="0 0 50 50" version="1.1">
<defs>
<filter id="alpha" filterUnits="objectBoundingBox" x="0%" y="0%" width="100%" height="100%">
  <feColorMatrix type="matrix" in="SourceGraphic" values="0 0 0 0 1 0 0 0 0 1 0 0 0 0 1 0 0 0 1 0"/>
</filter>
<mask id="mask0">
  <g filter="url(#alpha)">
<rect x="0" y="0" width="50" height="50" style="fill:rgb(0%,0%,0%);fill-opacity:0.964706;stroke:none;"/>
  </g>
</mask>
<clipPath id="clip1">
  <rect width="50" height="50"/>
</clipPath>
<g id="surface6" clip-path="url(#clip1)">
<path style=" stroke:none;fill-rule:evenodd;fill:rgb(0%,0%,0%);fill-opacity:1;" d="M 24.59375 31.167969 C 24.542969 31.398438 24.511719 31.636719 24.496094 31.886719 C 24.414062 32.59375 24.3125 33.296875 24.183594 33.996094 C 24.167969 34.382812 24.152344 34.765625 24.136719 35.148438 C 24.097656 35.382812 24.011719 35.589844 23.871094 35.773438 C 23.703125 35.90625 23.511719 35.984375 23.296875 36.011719 C 23.1875 35.992188 23.117188 35.929688 23.082031 35.820312 C 22.941406 35.25 22.847656 34.675781 22.792969 34.09375 C 22.71875 33.117188 22.671875 32.144531 22.648438 31.167969 C 22.597656 31.429688 22.542969 31.695312 22.480469 31.957031 C 22.425781 32.054688 22.347656 32.089844 22.242188 32.054688 C 22.152344 31.914062 22.078125 31.761719 22.023438 31.597656 C 21.96875 31.289062 21.925781 30.976562 21.90625 30.664062 C 21.957031 29.890625 22.035156 29.125 22.144531 28.359375 C 22.054688 21.339844 22.203125 14.328125 22.601562 7.316406 C 22.679688 5.929688 22.839844 4.554688 23.082031 3.191406 C 23.136719 3.019531 23.214844 2.859375 23.320312 2.710938 C 23.402344 2.609375 23.5 2.59375 23.609375 2.664062 C 23.652344 2.789062 23.683594 2.914062 23.703125 3.046875 C 23.726562 3.445312 23.738281 3.847656 23.726562 4.246094 C 23.726562 4.292969 23.726562 4.34375 23.726562 4.390625 C 23.6875 4.40625 23.671875 4.4375 23.679688 4.488281 C 23.671875 4.550781 23.679688 4.617188 23.703125 4.679688 C 23.863281 4.425781 23.96875 4.152344 24.015625 3.863281 C 24.1875 3.304688 24.257812 2.726562 24.230469 2.136719 C 24.296875 1.65625 24.433594 1.199219 24.640625 0.769531 C 24.746094 0.726562 24.832031 0.753906 24.902344 0.839844 C 24.921875 1.480469 24.9375 2.121094 24.953125 2.757812 C 25.019531 2.578125 25.097656 2.402344 25.191406 2.230469 C 25.316406 2.109375 25.445312 2.109375 25.574219 2.230469 C 25.667969 2.398438 25.730469 2.574219 25.769531 2.757812 C 25.785156 3.351562 25.800781 3.941406 25.816406 4.535156 C 25.890625 4.957031 25.929688 5.378906 25.9375 5.804688 C 25.769531 11.636719 25.554688 17.46875 25.289062 23.296875 C 25.238281 24.273438 25.175781 25.25 25.097656 26.222656 C 24.886719 27.867188 24.71875 29.515625 24.59375 31.167969 Z M 25.265625 3.238281 C 25.3125 3.40625 25.328125 3.582031 25.3125 3.765625 C 25.242188 3.78125 25.175781 3.761719 25.121094 3.71875 C 25.1875 3.5625 25.234375 3.402344 25.265625 3.238281 Z M 22.863281 8.949219 C 22.894531 7.246094 23.03125 5.550781 23.273438 3.863281 C 23.285156 3.675781 23.332031 3.5 23.417969 3.335938 C 23.449219 3.589844 23.449219 3.847656 23.417969 4.101562 C 23.257812 5.726562 23.074219 7.34375 22.863281 8.949219 Z M 25.167969 4.292969 C 25.21875 4.335938 25.25 4.390625 25.265625 4.460938 C 25.15625 5.140625 25.066406 5.820312 25 6.5 C 24.980469 5.996094 24.941406 5.492188 24.878906 4.992188 C 24.863281 4.710938 24.960938 4.480469 25.167969 4.292969 Z M 25.265625 8.515625 C 25.296875 8.613281 25.3125 8.714844 25.3125 8.828125 C 25.230469 10.214844 25.140625 11.597656 25.046875 12.980469 C 25.035156 11.488281 25.109375 10 25.265625 8.515625 Z M 22.578125 15.617188 C 22.660156 18.460938 22.621094 21.308594 22.457031 24.160156 C 22.449219 21.3125 22.488281 18.464844 22.578125 15.617188 Z M 23.152344 26.992188 C 23.195312 27.6875 23.226562 28.390625 23.25 29.101562 C 23.195312 29.191406 23.15625 29.289062 23.128906 29.390625 C 23.050781 28.582031 23.058594 27.785156 23.152344 26.992188 Z M 22.335938 29.34375 C 22.464844 29.453125 22.527344 29.597656 22.527344 29.773438 C 22.480469 30.230469 22.398438 30.675781 22.289062 31.117188 C 22.230469 30.523438 22.246094 29.933594 22.335938 29.34375 Z M 23.296875 30.78125 C 23.34375 30.964844 23.359375 31.15625 23.34375 31.359375 C 23.265625 31.175781 23.25 30.980469 23.296875 30.78125 Z M 23.441406 32.507812 C 23.476562 33.429688 23.574219 34.339844 23.726562 35.246094 C 23.683594 35.378906 23.59375 35.472656 23.464844 35.53125 C 23.222656 34.503906 23.09375 33.464844 23.082031 32.414062 C 23.183594 32.5 23.304688 32.53125 23.441406 32.507812 Z M 23.441406 32.507812 "/>
</g>
<mask id="mask1">
  <g filter="url(#alpha)">
<rect x="0" y="0" width="50" height="50" style="fill:rgb(0%,0%,0%);fill-opacity:0.796078;stroke:none;"/>
  </g>
</mask>
<clipPath id="clip2">
  <rect width="50" height="50"/>
</clipPath>
<g id="surface9" clip-path="url(#clip2)">
<path style=" stroke:none;fill-rule:evenodd;fill:rgb(94.117647%,94.117647%,94.117647%);fill-opacity:1;" d="M 24.015625 3.863281 C 23.96875 4.152344 23.863281 4.425781 23.703125 4.679688 C 23.679688 4.617188 23.671875 4.550781 23.679688 4.488281 C 23.71875 4.46875 23.738281 4.4375 23.726562 4.390625 C 23.726562 4.34375 23.726562 4.292969 23.726562 4.246094 C 23.785156 4.144531 23.832031 4.03125 23.871094 3.910156 C 23.910156 3.867188 23.960938 3.851562 24.015625 3.863281 Z M 24.015625 3.863281 "/>
</g>
<mask id="mask2">
  <g filter="url(#alpha)">
<rect x="0" y="0" width="50" height="50" style="fill:rgb(0%,0%,0%);fill-opacity:0.996078;stroke:none;"/>
  </g>
</mask>
<clipPath id="clip3">
  <rect width="50" height="50"/>
</clipPath>
<g id="surface12" clip-path="url(#clip3)">
<path style=" stroke:none;fill-rule:evenodd;fill:rgb(96.470588%,96.470588%,96.470588%);fill-opacity:1;" d="M 24.207031 7.894531 C 24.242188 8.179688 24.273438 8.46875 24.304688 8.757812 C 24.3125 12.019531 24.304688 15.28125 24.28125 18.546875 C 23.988281 21.304688 23.796875 24.074219 23.703125 26.847656 C 23.597656 27.503906 23.484375 28.160156 23.367188 28.816406 C 23.339844 28.921875 23.300781 29.015625 23.25 29.101562 C 23.226562 28.390625 23.195312 27.6875 23.152344 26.992188 C 23.238281 24.578125 23.3125 22.160156 23.367188 19.746094 C 23.519531 17.445312 23.644531 15.140625 23.753906 12.835938 C 23.867188 11.183594 24.015625 9.535156 24.207031 7.894531 Z M 24.207031 7.894531 "/>
</g>
<mask id="mask3">
  <g filter="url(#alpha)">
<rect x="0" y="0" width="50" height="50" style="fill:rgb(0%,0%,0%);fill-opacity:0.952941;stroke:none;"/>
  </g>
</mask>
<clipPath id="clip4">
  <rect width="50" height="50"/>
</clipPath>
<g id="surface15" clip-path="url(#clip4)">
<path style=" stroke:none;fill-rule:evenodd;fill:rgb(96.078431%,96.078431%,96.078431%);fill-opacity:1;" d="M 23.488281 30.496094 C 23.519531 30.621094 23.550781 30.75 23.585938 30.878906 C 23.601562 31.171875 23.578125 31.457031 23.511719 31.742188 C 23.496094 31.78125 23.472656 31.8125 23.441406 31.835938 C 23.378906 31.683594 23.347656 31.523438 23.34375 31.359375 C 23.359375 31.15625 23.34375 30.964844 23.296875 30.78125 C 23.304688 30.644531 23.367188 30.546875 23.488281 30.496094 Z M 23.488281 30.496094 "/>
</g>
<mask id="mask4">
  <g filter="url(#alpha)">
<rect x="0" y="0" width="50" height="50" style="fill:rgb(0%,0%,0%);fill-opacity:0.952941;stroke:none;"/>
  </g>
</mask>
<clipPath id="clip5">
  <rect width="50" height="50"/>
</clipPath>
<g id="surface18" clip-path="url(#clip5)">
<path style=" stroke:none;fill-rule:evenodd;fill:rgb(96.470588%,96.470588%,96.470588%);fill-opacity:1;" d="M 23.726562 35.246094 C 23.574219 34.339844 23.476562 33.429688 23.441406 32.507812 C 23.882812 32.183594 24.082031 31.734375 24.039062 31.167969 C 24.160156 31.035156 24.214844 31.050781 24.207031 31.214844 C 24.105469 32.164062 23.96875 33.105469 23.800781 34.046875 C 23.792969 34.453125 23.769531 34.851562 23.726562 35.246094 Z M 23.726562 35.246094 "/>
</g>
<mask id="mask5">
  <g filter="url(#alpha)">
<rect x="0" y="0" width="50" height="50" style="fill:rgb(0%,0%,0%);fill-opacity:0.827451;stroke:none;"/>
  </g>
</mask>
<clipPath id="clip6">
  <rect width="50" height="50"/>
</clipPath>
<g id="surface21" clip-path="url(#clip6)">
<path style=" stroke:none;fill-rule:evenodd;fill:rgb(93.72549%,93.72549%,93.72549%);fill-opacity:1;" d="M 24.496094 31.886719 C 24.511719 31.886719 24.527344 31.886719 24.542969 31.886719 C 24.511719 33.011719 24.40625 34.132812 24.230469 35.246094 C 24.199219 35.429688 24.140625 35.605469 24.0625 35.773438 C 24 35.828125 23.9375 35.828125 23.871094 35.773438 C 24.011719 35.589844 24.097656 35.382812 24.136719 35.148438 C 24.152344 34.765625 24.167969 34.382812 24.183594 33.996094 C 24.3125 33.296875 24.414062 32.59375 24.496094 31.886719 Z M 24.496094 31.886719 "/>
</g>
<mask id="mask6">
  <g filter="url(#alpha)">
<rect x="0" y="0" width="50" height="50" style="fill:rgb(0%,0%,0%);fill-opacity:0.972549;stroke:none;"/>
  </g>
</mask>
<clipPath id="clip7">
  <rect width="50" height="50"/>
</clipPath>
<g id="surface24" clip-path="url(#clip7)">
<path style=" stroke:none;fill-rule:evenodd;fill:rgb(0.392157%,0.392157%,0.392157%);fill-opacity:1;" d="M 25.457031 45.320312 C 25.347656 45.648438 25.316406 45.984375 25.359375 46.328125 C 25.503906 47.121094 25.320312 47.824219 24.808594 48.441406 C 23.871094 49.085938 23.015625 48.992188 22.242188 48.152344 C 22.222656 48.042969 22.15625 47.972656 22.050781 47.9375 C 21.832031 47.902344 21.625 47.847656 21.425781 47.769531 C 21.097656 47.667969 20.792969 47.515625 20.511719 47.3125 C 19.761719 46.695312 19.257812 45.921875 19 44.984375 C 18.824219 43.46875 19.503906 42.691406 21.042969 42.660156 C 21.777344 41.886719 22.660156 41.664062 23.679688 41.988281 C 23.976562 42.097656 24.265625 42.222656 24.542969 42.371094 C 24.964844 42.644531 25.148438 43.039062 25.097656 43.546875 C 25.28125 43.785156 25.394531 44.058594 25.433594 44.363281 C 25.457031 44.679688 25.464844 45 25.457031 45.320312 Z M 22.386719 42.632812 C 22.636719 42.617188 22.878906 42.65625 23.105469 42.753906 C 22.972656 42.78125 22.84375 42.820312 22.722656 42.875 C 22.539062 42.828125 22.363281 42.769531 22.191406 42.707031 C 22.269531 42.695312 22.332031 42.671875 22.386719 42.632812 Z M 20.320312 45.128906 C 20.261719 45.523438 20.261719 45.921875 20.320312 46.328125 C 19.730469 45.695312 19.46875 44.941406 19.53125 44.074219 C 19.75 43.503906 20.15625 43.234375 20.753906 43.257812 C 20.335938 43.816406 20.195312 44.441406 20.320312 45.128906 Z M 24.832031 47.386719 C 24.550781 48.308594 23.972656 48.582031 23.105469 48.199219 C 23.78125 48.132812 24.355469 47.863281 24.832031 47.386719 Z M 24.832031 47.386719 "/>
</g>
<mask id="mask7">
  <g filter="url(#alpha)">
<rect x="0" y="0" width="50" height="50" style="fill:rgb(0%,0%,0%);fill-opacity:0.996078;stroke:none;"/>
  </g>
</mask>
<clipPath id="clip8">
  <rect width="50" height="50"/>
</clipPath>
<g id="surface27" clip-path="url(#clip8)">
<path style=" stroke:none;fill-rule:evenodd;fill:rgb(98.039216%,98.039216%,98.039216%);fill-opacity:1;" d="M 21.617188 43.304688 C 21.894531 43.320312 22.15625 43.382812 22.410156 43.5 C 22.46875 43.851562 22.421875 44.1875 22.265625 44.503906 C 22.214844 44.695312 22.191406 44.886719 22.191406 45.082031 C 21.964844 45.097656 21.742188 45.082031 21.519531 45.035156 C 21.28125 44.574219 21.222656 44.097656 21.351562 43.59375 C 21.367188 43.480469 21.421875 43.398438 21.519531 43.355469 C 21.570312 43.363281 21.601562 43.347656 21.617188 43.304688 Z M 21.617188 43.304688 "/>
</g>
<mask id="mask8">
  <g filter="url(#alpha)">
<rect x="0" y="0" width="50" height="50" style="fill:rgb(0%,0%,0%);fill-opacity:0.921569;stroke:none;"/>
  </g>
</mask>
<clipPath id="clip9">
  <rect width="50" height="50"/>
</clipPath>
<g id="surface30" clip-path="url(#clip9)">
<path style=" stroke:none;fill-rule:evenodd;fill:rgb(92.54902%,92.54902%,92.54902%);fill-opacity:1;" d="M 20.320312 45.128906 C 20.398438 45.8125 20.636719 46.429688 21.042969 46.976562 C 20.738281 46.839844 20.496094 46.625 20.320312 46.328125 C 20.261719 45.921875 20.261719 45.523438 20.320312 45.128906 Z M 20.320312 45.128906 "/>
</g>
<mask id="mask9">
  <g filter="url(#alpha)">
<rect x="0" y="0" width="50" height="50" style="fill:rgb(0%,0%,0%);fill-opacity:0.8;stroke:none;"/>
  </g>
</mask>
<clipPath id="clip10">
  <rect width="50" height="50"/>
</clipPath>
<g id="surface33" clip-path="url(#clip10)">
<path style=" stroke:none;fill-rule:evenodd;fill:rgb(93.333333%,93.333333%,93.333333%);fill-opacity:1;" d="M 25.457031 45.320312 C 25.464844 45.578125 25.457031 45.832031 25.433594 46.089844 C 25.421875 46.179688 25.398438 46.257812 25.359375 46.328125 C 25.316406 45.984375 25.347656 45.648438 25.457031 45.320312 Z M 25.457031 45.320312 "/>
</g>
<mask id="mask10">
  <g filter="url(#alpha)">
<rect x="0" y="0" width="50" height="50" style="fill:rgb(0%,0%,0%);fill-opacity:0.780392;stroke:none;"/>
  </g>
</mask>
<clipPath id="clip11">
  <rect width="50" height="50"/>
</clipPath>
<g id="surface36" clip-path="url(#clip11)">
<path style=" stroke:none;fill-rule:evenodd;fill:rgb(93.72549%,93.72549%,93.72549%);fill-opacity:1;" d="M 24.832031 47.386719 C 24.355469 47.863281 23.78125 48.132812 23.105469 48.199219 C 23.035156 48.203125 22.96875 48.1875 22.914062 48.152344 C 23.039062 48.121094 23.167969 48.089844 23.296875 48.054688 C 24.003906 47.964844 24.539062 47.613281 24.902344 47 C 24.9375 47.140625 24.914062 47.269531 24.832031 47.386719 Z M 24.832031 47.386719 "/>
</g>
<mask id="mask11">
  <g filter="url(#alpha)">
<rect x="0" y="0" width="50" height="50" style="fill:rgb(0%,0%,0%);fill-opacity:0.756863;stroke:none;"/>
  </g>
</mask>
<clipPath id="clip12">
  <rect width="50" height="50"/>
</clipPath>
<g id="surface39" clip-path="url(#clip12)">
<path style=" stroke:none;fill-rule:evenodd;fill:rgb(89.019608%,89.019608%,89.019608%);fill-opacity:1;" d="M 21.425781 47.769531 C 21.625 47.847656 21.832031 47.902344 22.050781 47.9375 C 22.15625 47.972656 22.222656 48.042969 22.242188 48.152344 C 21.9375 48.085938 21.664062 47.960938 21.425781 47.769531 Z M 21.425781 47.769531 "/>
</g>
</defs>
<g id="surface1">
<use xlink:href="#surface6" mask="url(#mask0)"/>
<use xlink:href="#surface9" mask="url(#mask1)"/>
<path style=" stroke:none;fill-rule:evenodd;fill:rgb(57.647059%,57.647059%,57.647059%);fill-opacity:1;" d="M 24.304688 8.757812 C 24.273438 8.46875 24.242188 8.179688 24.207031 7.894531 C 24.214844 7.761719 24.242188 7.636719 24.28125 7.507812 C 24.304688 7.925781 24.3125 8.339844 24.304688 8.757812 Z M 24.304688 8.757812 "/>
<use xlink:href="#surface12" mask="url(#mask2)"/>
<path style=" stroke:none;fill-rule:evenodd;fill:rgb(67.45098%,67.45098%,67.45098%);fill-opacity:1;" d="M 23.632812 7.605469 C 23.664062 7.632812 23.679688 7.675781 23.679688 7.726562 C 23.601562 8.277344 23.511719 8.832031 23.417969 9.382812 C 23.382812 9.15625 23.382812 8.933594 23.417969 8.710938 C 23.496094 8.34375 23.566406 7.972656 23.632812 7.605469 Z M 23.632812 7.605469 "/>
<path style=" stroke:none;fill-rule:evenodd;fill:rgb(41.568627%,41.568627%,41.568627%);fill-opacity:1;" d="M 24.832031 21.617188 C 24.863281 21.695312 24.878906 21.785156 24.878906 21.882812 C 24.847656 22.320312 24.824219 22.761719 24.808594 23.199219 C 24.777344 22.671875 24.785156 22.144531 24.832031 21.617188 Z M 24.832031 21.617188 "/>
<path style=" stroke:none;fill-rule:evenodd;fill:rgb(72.54902%,72.54902%,72.54902%);fill-opacity:1;" d="M 24.304688 27.949219 C 24.359375 28.261719 24.367188 28.582031 24.328125 28.910156 C 24.234375 29.386719 24.171875 29.867188 24.136719 30.351562 C 24.113281 30.433594 24.082031 30.515625 24.039062 30.589844 C 24.125 29.710938 24.210938 28.832031 24.304688 27.949219 Z M 24.304688 27.949219 "/>
<use xlink:href="#surface15" mask="url(#mask3)"/>
<path style=" stroke:none;fill-rule:evenodd;fill:rgb(39.607843%,39.607843%,39.607843%);fill-opacity:1;" d="M 23.488281 30.496094 C 23.492188 30.46875 23.507812 30.453125 23.535156 30.445312 C 23.582031 30.585938 23.601562 30.730469 23.585938 30.878906 C 23.550781 30.75 23.519531 30.621094 23.488281 30.496094 Z M 23.488281 30.496094 "/>
<use xlink:href="#surface18" mask="url(#mask4)"/>
<path style=" stroke:none;fill-rule:evenodd;fill:rgb(61.176471%,61.176471%,61.176471%);fill-opacity:1;" d="M 24.59375 31.167969 C 24.609375 31.414062 24.589844 31.65625 24.542969 31.886719 C 24.527344 31.886719 24.511719 31.886719 24.496094 31.886719 C 24.511719 31.636719 24.542969 31.398438 24.59375 31.167969 Z M 24.59375 31.167969 "/>
<use xlink:href="#surface21" mask="url(#mask5)"/>
<use xlink:href="#surface24" mask="url(#mask6)"/>
<use xlink:href="#surface27" mask="url(#mask7)"/>
<path style=" stroke:none;fill-rule:evenodd;fill:rgb(96.862745%,96.862745%,96.862745%);fill-opacity:1;" d="M 23.152344 43.832031 C 23.480469 43.980469 23.75 44.195312 23.96875 44.480469 C 23.785156 44.671875 23.570312 44.808594 23.320312 44.890625 C 23.199219 44.757812 23.136719 44.597656 23.128906 44.410156 C 23.09375 44.214844 23.101562 44.023438 23.152344 43.832031 Z M 23.152344 43.832031 "/>
<path style=" stroke:none;fill-rule:evenodd;fill:rgb(75.686275%,75.686275%,75.686275%);fill-opacity:1;" d="M 24.640625 44.21875 C 24.695312 44.320312 24.703125 44.433594 24.664062 44.554688 C 24.632812 44.484375 24.59375 44.417969 24.542969 44.363281 C 24.578125 44.3125 24.609375 44.265625 24.640625 44.21875 Z M 24.640625 44.21875 "/>
<use xlink:href="#surface30" mask="url(#mask8)"/>
<path style=" stroke:none;fill-rule:evenodd;fill:rgb(89.411765%,89.411765%,89.411765%);fill-opacity:1;" d="M 23.96875 45.128906 C 24.007812 45.394531 23.949219 45.652344 23.800781 45.898438 C 23.707031 45.78125 23.617188 45.660156 23.535156 45.539062 C 23.707031 45.421875 23.851562 45.285156 23.96875 45.128906 Z M 23.96875 45.128906 "/>
<path style=" stroke:none;fill-rule:evenodd;fill:rgb(51.764706%,51.764706%,51.764706%);fill-opacity:1;" d="M 21.714844 45.417969 C 21.878906 45.371094 22.054688 45.355469 22.242188 45.371094 C 22.242188 45.449219 22.242188 45.53125 22.242188 45.609375 C 22.195312 45.558594 22.179688 45.496094 22.191406 45.417969 C 22.03125 45.417969 21.871094 45.417969 21.714844 45.417969 Z M 21.714844 45.417969 "/>
<path style=" stroke:none;fill-rule:evenodd;fill:rgb(94.509804%,94.509804%,94.509804%);fill-opacity:1;" d="M 22.722656 45.371094 C 22.8125 45.394531 22.890625 45.445312 22.960938 45.511719 C 23.09375 45.804688 23.269531 46.070312 23.488281 46.304688 C 23.269531 46.464844 23.085938 46.425781 22.9375 46.183594 C 22.789062 45.933594 22.71875 45.660156 22.722656 45.371094 Z M 22.722656 45.371094 "/>
<path style=" stroke:none;fill-rule:evenodd;fill:rgb(93.72549%,93.72549%,93.72549%);fill-opacity:1;" d="M 21.714844 45.417969 C 21.871094 45.417969 22.03125 45.417969 22.191406 45.417969 C 22.179688 45.496094 22.195312 45.558594 22.242188 45.609375 C 22.28125 45.902344 22.375 46.175781 22.527344 46.425781 C 22.417969 46.449219 22.316406 46.417969 22.21875 46.328125 C 22.023438 46.039062 21.855469 45.734375 21.714844 45.417969 Z M 21.714844 45.417969 "/>
<use xlink:href="#surface33" mask="url(#mask9)"/>
<path style=" stroke:none;fill-rule:evenodd;fill:rgb(80.392157%,80.392157%,80.392157%);fill-opacity:1;" d="M 20.945312 45.800781 C 21.167969 46.046875 21.304688 46.335938 21.351562 46.664062 C 21.179688 46.394531 21.042969 46.105469 20.945312 45.800781 Z M 20.945312 45.800781 "/>
<path style=" stroke:none;fill-rule:evenodd;fill:rgb(61.960784%,61.960784%,61.960784%);fill-opacity:1;" d="M 24.015625 46.90625 C 24.039062 46.828125 24.089844 46.804688 24.160156 46.832031 C 24.125 46.882812 24.078125 46.90625 24.015625 46.90625 Z M 24.015625 46.90625 "/>
<path style=" stroke:none;fill-rule:evenodd;fill:rgb(89.411765%,89.411765%,89.411765%);fill-opacity:1;" d="M 21.855469 46.664062 C 22.164062 47.042969 22.546875 47.324219 23.007812 47.503906 C 22.765625 47.542969 22.523438 47.527344 22.289062 47.457031 C 22.113281 47.210938 21.96875 46.945312 21.855469 46.664062 Z M 21.855469 46.664062 "/>
<path style=" stroke:none;fill-rule:evenodd;fill:rgb(54.901961%,54.901961%,54.901961%);fill-opacity:1;" d="M 24.015625 46.90625 C 23.835938 47.054688 23.628906 47.109375 23.390625 47.074219 C 23.597656 47.007812 23.808594 46.953125 24.015625 46.90625 Z M 24.015625 46.90625 "/>
<use xlink:href="#surface36" mask="url(#mask10)"/>
<use xlink:href="#surface39" mask="url(#mask11)"/>
<path style=" stroke:none;fill-rule:evenodd;fill:rgb(44.313725%,44.313725%,44.313725%);fill-opacity:1;" d="M 23.296875 48.054688 C 23.167969 48.089844 23.039062 48.121094 22.914062 48.152344 C 22.886719 48.148438 22.871094 48.132812 22.863281 48.105469 C 23.003906 48.058594 23.148438 48.042969 23.296875 48.054688 Z M 23.296875 48.054688 "/>
</g>
</svg>
