<?xml version="1.0" encoding="UTF-8"?>
<svg xmlns="http://www.w3.org/2000/svg" xmlns:xlink="http://www.w3.org/1999/xlink" width="50pt" height="50pt" viewBox="0 0 50 50" version="1.1">
<defs>
<filter id="alpha" filterUnits="objectBoundingBox" x="0%" y="0%" width="100%" height="100%">
  <feColorMatrix type="matrix" in="SourceGraphic" values="0 0 0 0 1 0 0 0 0 1 0 0 0 0 1 0 0 0 1 0"/>
</filter>
<mask id="mask0">
  <g filter="url(#alpha)">
<rect x="0" y="0" width="50" height="50" style="fill:rgb(0%,0%,0%);fill-opacity:0.94902;stroke:none;"/>
  </g>
</mask>
<clipPath id="clip1">
  <rect width="50" height="50"/>
</clipPath>
<g id="surface6" clip-path="url(#clip1)">
<path style=" stroke:none;fill-rule:evenodd;fill:rgb(1.176471%,1.176471%,1.176471%);fill-opacity:1;" d="M 34.957031 31.933594 C 34.734375 31.71875 34.75 31.503906 35.003906 31.285156 C 35.519531 31.191406 36.03125 31.207031 36.539062 31.332031 C 37.855469 31.765625 39.199219 32.070312 40.570312 32.246094 C 41.464844 32.320312 42.359375 32.335938 43.257812 32.292969 C 43.765625 32.085938 44.246094 31.832031 44.699219 31.527344 C 45.34375 30.878906 45.992188 30.234375 46.640625 29.582031 C 46.742188 29.273438 46.726562 28.96875 46.59375 28.671875 C 46.21875 27.914062 45.683594 27.300781 44.984375 26.824219 C 43.511719 25.808594 41.898438 25.121094 40.140625 24.761719 C 39.324219 24.609375 38.507812 24.46875 37.691406 24.328125 C 37.019531 24.289062 36.347656 24.304688 35.675781 24.375 C 35.507812 24.414062 35.339844 24.453125 35.171875 24.496094 C 34.648438 25.90625 33.808594 27.097656 32.652344 28.070312 C 31.960938 28.714844 31.175781 29.226562 30.300781 29.605469 C 30.523438 29.738281 30.761719 29.816406 31.023438 29.847656 C 31.421875 29.878906 31.820312 29.878906 32.222656 29.847656 C 32.328125 29.71875 32.421875 29.582031 32.507812 29.4375 C 32.566406 29.394531 32.628906 29.378906 32.703125 29.390625 C 32.511719 30.152344 32.21875 30.875 31.8125 31.550781 C 31.082031 32.679688 30.3125 33.78125 29.511719 34.859375 C 29.386719 35.125 29.25 35.382812 29.101562 35.628906 C 29.070312 35.628906 29.054688 35.644531 29.054688 35.675781 C 29.054688 35.691406 29.054688 35.707031 29.054688 35.722656 C 29.023438 35.722656 29.007812 35.742188 29.007812 35.773438 C 28.664062 36.140625 28.382812 36.554688 28.167969 37.019531 C 28.105469 37.191406 28.0625 37.367188 28.046875 37.546875 C 28.082031 37.597656 28.132812 37.609375 28.191406 37.570312 C 28.28125 37.472656 28.375 37.386719 28.480469 37.308594 C 28.511719 37.308594 28.527344 37.292969 28.527344 37.261719 C 28.558594 37.261719 28.574219 37.242188 28.574219 37.210938 C 28.605469 37.210938 28.621094 37.195312 28.621094 37.164062 C 28.65625 37.164062 28.671875 37.148438 28.671875 37.117188 C 28.703125 37.117188 28.71875 37.101562 28.71875 37.066406 C 28.75 37.066406 28.765625 37.050781 28.765625 37.019531 C 28.796875 37.019531 28.816406 37.003906 28.816406 36.972656 C 28.847656 36.972656 28.863281 36.957031 28.863281 36.925781 C 28.894531 36.925781 28.910156 36.910156 28.910156 36.875 C 28.941406 36.875 28.957031 36.859375 28.957031 36.828125 C 29.382812 36.445312 29.8125 36.070312 30.253906 35.699219 C 30.929688 34.929688 31.664062 34.226562 32.460938 33.589844 C 33.140625 32.976562 33.730469 32.296875 34.238281 31.550781 C 34.40625 31.421875 34.550781 31.269531 34.667969 31.09375 C 34.835938 31.070312 34.910156 31.140625 34.886719 31.308594 C 34.769531 31.464844 34.664062 31.625 34.574219 31.789062 C 33.433594 33.320312 32.105469 34.671875 30.589844 35.84375 C 29.894531 36.621094 29.128906 37.308594 28.285156 37.90625 C 28.109375 38.019531 27.917969 38.09375 27.710938 38.125 C 27.722656 37.1875 28.019531 36.355469 28.597656 35.628906 C 28.804688 35.34375 29.027344 35.070312 29.269531 34.8125 C 29.730469 33.867188 30.234375 32.945312 30.78125 32.054688 C 29.929688 32.0625 29.21875 31.75 28.648438 31.117188 C 28.472656 30.886719 28.316406 30.644531 28.167969 30.398438 C 27.550781 30.582031 26.933594 30.765625 26.320312 30.949219 C 25.875 31.042969 25.429688 31.097656 24.976562 31.117188 C 24.3125 31.128906 23.640625 31.105469 22.960938 31.046875 C 22.332031 30.949219 21.738281 30.742188 21.183594 30.421875 C 21.078125 30.382812 20.984375 30.390625 20.898438 30.445312 C 20.285156 30.492188 19.675781 30.582031 19.074219 30.710938 C 18.832031 30.742188 18.59375 30.734375 18.355469 30.6875 C 18.339844 30.625 18.316406 30.625 18.28125 30.6875 C 18.246094 30.792969 18.253906 30.886719 18.304688 30.972656 C 18.292969 31.375 18.253906 31.777344 18.1875 32.171875 C 18.164062 32.75 18.152344 33.324219 18.164062 33.902344 C 18.109375 34.003906 18.101562 34.113281 18.136719 34.238281 C 18.191406 34.421875 18.277344 34.582031 18.402344 34.71875 C 18.519531 34.933594 18.671875 35.125 18.859375 35.292969 C 19.011719 35.597656 18.925781 35.734375 18.59375 35.699219 C 17.71875 34.9375 16.929688 34.097656 16.21875 33.179688 C 16.066406 32.90625 15.9375 32.617188 15.835938 32.316406 C 15.667969 31.574219 15.539062 30.820312 15.449219 30.0625 C 15.40625 29.828125 15.273438 29.703125 15.042969 29.679688 C 14.773438 29.753906 14.503906 29.777344 14.226562 29.75 C 12.847656 29.519531 11.539062 29.089844 10.292969 28.453125 C 8.808594 27.304688 7.253906 26.25 5.636719 25.289062 C 4.574219 24.402344 3.472656 23.570312 2.328125 22.792969 C 1.179688 21.972656 0.738281 20.859375 1.007812 19.457031 C 1.21875 18.398438 1.679688 17.46875 2.398438 16.675781 C 2.890625 16.105469 3.425781 15.585938 4.007812 15.113281 C 5.25 14.4375 6.511719 13.796875 7.796875 13.195312 C 10.554688 11.941406 13.449219 11.238281 16.484375 11.085938 C 17.855469 10.988281 19.214844 11.082031 20.5625 11.371094 C 21.632812 11.703125 22.722656 11.976562 23.824219 12.1875 C 25.257812 12.667969 26.695312 13.128906 28.144531 13.578125 C 28.949219 13.839844 29.683594 14.222656 30.351562 14.730469 C 30.765625 15.066406 31.164062 15.417969 31.550781 15.785156 C 32.589844 16.472656 33.570312 17.234375 34.5 18.066406 C 35.234375 19.109375 35.640625 20.269531 35.722656 21.546875 C 35.6875 22.246094 35.605469 22.941406 35.484375 23.632812 C 35.933594 23.660156 36.382812 23.707031 36.828125 23.777344 C 39.375 23.597656 41.886719 23.828125 44.363281 24.472656 C 45.429688 24.75 46.386719 25.230469 47.242188 25.910156 C 48.421875 27.199219 48.378906 28.457031 47.121094 29.679688 C 46.589844 31.519531 45.367188 32.519531 43.449219 32.675781 C 42.011719 33.175781 40.53125 33.472656 39.011719 33.566406 C 37.976562 33.46875 36.960938 33.269531 35.964844 32.964844 C 35.488281 32.753906 35.152344 32.410156 34.957031 31.933594 Z M 16.960938 11.445312 C 18.75 11.4375 18.75 11.476562 16.960938 11.5625 C 16.480469 11.632812 16 11.714844 15.523438 11.804688 C 13.777344 12.179688 12.035156 12.5625 10.292969 12.957031 C 9.265625 13.195312 8.308594 13.597656 7.414062 14.15625 C 6.308594 14.820312 5.222656 15.507812 4.152344 16.21875 C 3.632812 16.59375 3.128906 16.984375 2.640625 17.394531 C 2.167969 17.980469 1.992188 18.652344 2.109375 19.410156 C 2.171875 19.972656 2.253906 20.53125 2.351562 21.089844 C 2.550781 21.757812 2.863281 22.367188 3.285156 22.914062 C 2.765625 22.644531 2.292969 22.277344 1.871094 21.808594 C 1.429688 21.171875 1.269531 20.46875 1.390625 19.699219 C 1.539062 18.78125 1.90625 17.964844 2.496094 17.25 C 3.101562 16.40625 3.84375 15.707031 4.726562 15.164062 C 5.890625 14.628906 7.042969 14.070312 8.179688 13.484375 C 10.988281 12.261719 13.914062 11.582031 16.960938 11.445312 Z M 39.609375 24.160156 C 41.4375 24.207031 43.230469 24.519531 44.984375 25.097656 C 45.867188 25.398438 46.628906 25.886719 47.265625 26.558594 C 47.789062 27.285156 47.804688 28.023438 47.3125 28.765625 C 47.296875 27.960938 46.96875 27.3125 46.328125 26.824219 C 45.300781 26.125 44.195312 25.566406 43.019531 25.144531 C 42.277344 24.914062 41.542969 24.671875 40.8125 24.425781 C 40.417969 24.300781 40.019531 24.214844 39.609375 24.160156 Z M 10.484375 28.09375 C 10.558594 28.089844 10.605469 28.125 10.628906 28.191406 C 10.554688 28.195312 10.507812 28.164062 10.484375 28.09375 Z M 13.363281 29.101562 C 13.746094 29.160156 14.128906 29.207031 14.515625 29.246094 C 14.117188 29.324219 13.734375 29.277344 13.363281 29.101562 Z M 19.457031 29.4375 C 19.753906 29.59375 20.027344 29.785156 20.273438 30.015625 C 19.90625 30.082031 19.539062 30.15625 19.167969 30.230469 C 18.960938 30.269531 18.753906 30.261719 18.546875 30.207031 C 18.792969 29.878906 19.097656 29.621094 19.457031 29.4375 Z M 28.863281 30.207031 C 29.175781 30.371094 29.480469 30.546875 29.773438 30.734375 C 29.496094 30.777344 29.222656 30.738281 28.957031 30.613281 C 28.820312 30.546875 28.726562 30.445312 28.671875 30.300781 C 28.710938 30.226562 28.773438 30.191406 28.863281 30.207031 Z M 30.351562 30.972656 C 30.652344 31.0625 30.957031 31.144531 31.261719 31.214844 C 31.15625 31.460938 30.964844 31.582031 30.6875 31.574219 C 30.152344 31.613281 29.691406 31.457031 29.292969 31.09375 C 29.648438 31.078125 30.003906 31.039062 30.351562 30.972656 Z M 34.238281 31.550781 C 33.730469 32.296875 33.140625 32.976562 32.460938 33.589844 C 31.664062 34.226562 30.929688 34.929688 30.253906 35.699219 C 29.8125 36.070312 29.382812 36.445312 28.957031 36.828125 C 30.5 35.183594 32.066406 33.558594 33.660156 31.957031 C 33.804688 31.863281 33.929688 31.75 34.046875 31.621094 C 34.105469 31.582031 34.167969 31.558594 34.238281 31.550781 Z M 30.878906 32.367188 C 30.882812 32.4375 30.851562 32.488281 30.78125 32.507812 C 30.777344 32.4375 30.8125 32.386719 30.878906 32.367188 Z M 30.589844 32.894531 C 30.59375 32.964844 30.5625 33.015625 30.496094 33.039062 C 30.492188 32.964844 30.523438 32.917969 30.589844 32.894531 Z M 29.007812 35.773438 C 28.722656 36.386719 28.402344 36.980469 28.046875 37.546875 C 28.0625 37.367188 28.105469 37.191406 28.167969 37.019531 C 28.382812 36.554688 28.664062 36.140625 29.007812 35.773438 Z M 29.007812 35.773438 "/>
</g>
<mask id="mask1">
  <g filter="url(#alpha)">
<rect x="0" y="0" width="50" height="50" style="fill:rgb(0%,0%,0%);fill-opacity:0.992157;stroke:none;"/>
  </g>
</mask>
<clipPath id="clip2">
  <rect width="50" height="50"/>
</clipPath>
<g id="surface9" clip-path="url(#clip2)">
<path style=" stroke:none;fill-rule:evenodd;fill:rgb(94.117647%,94.117647%,94.117647%);fill-opacity:1;" d="M 35.246094 22.144531 C 35.289062 22.648438 35.214844 23.144531 35.027344 23.632812 C 34.847656 23.695312 34.664062 23.695312 34.476562 23.632812 C 34.796875 23.167969 35.054688 22.671875 35.246094 22.144531 Z M 35.246094 22.144531 "/>
</g>
<mask id="mask2">
  <g filter="url(#alpha)">
<rect x="0" y="0" width="50" height="50" style="fill:rgb(0%,0%,0%);fill-opacity:0.996078;stroke:none;"/>
  </g>
</mask>
<clipPath id="clip3">
  <rect width="50" height="50"/>
</clipPath>
<g id="surface12" clip-path="url(#clip3)">
<path style=" stroke:none;fill-rule:evenodd;fill:rgb(99.607843%,99.607843%,99.607843%);fill-opacity:1;" d="M 34.957031 31.933594 C 34.828125 31.886719 34.699219 31.835938 34.574219 31.789062 C 34.664062 31.625 34.769531 31.464844 34.886719 31.308594 C 34.910156 31.140625 34.835938 31.070312 34.667969 31.09375 C 34.550781 31.269531 34.40625 31.421875 34.238281 31.550781 C 34.167969 31.558594 34.105469 31.582031 34.046875 31.621094 C 33.929688 31.75 33.804688 31.863281 33.660156 31.957031 C 32.066406 33.558594 30.5 35.183594 28.957031 36.828125 C 28.925781 36.828125 28.910156 36.84375 28.910156 36.875 C 28.878906 36.875 28.863281 36.890625 28.863281 36.925781 C 28.832031 36.925781 28.816406 36.941406 28.816406 36.972656 C 28.78125 36.972656 28.765625 36.988281 28.765625 37.019531 C 28.734375 37.019531 28.71875 37.035156 28.71875 37.066406 C 28.6875 37.066406 28.671875 37.085938 28.671875 37.117188 C 28.640625 37.117188 28.621094 37.132812 28.621094 37.164062 C 28.589844 37.164062 28.574219 37.179688 28.574219 37.210938 C 28.542969 37.210938 28.527344 37.226562 28.527344 37.261719 C 28.496094 37.261719 28.480469 37.277344 28.480469 37.308594 C 28.375 37.386719 28.28125 37.472656 28.191406 37.570312 C 28.132812 37.609375 28.082031 37.597656 28.046875 37.546875 C 28.402344 36.980469 28.722656 36.386719 29.007812 35.773438 C 29.039062 35.773438 29.054688 35.757812 29.054688 35.722656 C 29.054688 35.707031 29.054688 35.691406 29.054688 35.675781 C 29.085938 35.675781 29.101562 35.660156 29.101562 35.628906 C 29.25 35.382812 29.386719 35.125 29.511719 34.859375 C 30.3125 33.78125 31.082031 32.679688 31.8125 31.550781 C 32.21875 30.875 32.511719 30.152344 32.703125 29.390625 C 32.628906 29.378906 32.566406 29.394531 32.507812 29.4375 C 32.421875 29.582031 32.328125 29.71875 32.222656 29.847656 C 31.820312 29.878906 31.421875 29.878906 31.023438 29.847656 C 30.761719 29.816406 30.523438 29.738281 30.300781 29.605469 C 31.175781 29.226562 31.960938 28.714844 32.652344 28.070312 C 33.808594 27.097656 34.648438 25.90625 35.171875 24.496094 C 35.339844 24.453125 35.507812 24.414062 35.675781 24.375 C 36.347656 24.304688 37.019531 24.289062 37.691406 24.328125 C 38.507812 24.46875 39.324219 24.609375 40.140625 24.761719 C 41.898438 25.121094 43.511719 25.808594 44.984375 26.824219 C 45.683594 27.300781 46.21875 27.914062 46.59375 28.671875 C 46.726562 28.96875 46.742188 29.273438 46.640625 29.582031 C 45.992188 30.234375 45.34375 30.878906 44.699219 31.527344 C 44.246094 31.832031 43.765625 32.085938 43.257812 32.292969 C 42.359375 32.335938 41.464844 32.320312 40.570312 32.246094 C 39.199219 32.070312 37.855469 31.765625 36.539062 31.332031 C 36.03125 31.207031 35.519531 31.191406 35.003906 31.285156 C 34.75 31.503906 34.734375 31.71875 34.957031 31.933594 Z M 34.957031 31.933594 "/>
</g>
<mask id="mask3">
  <g filter="url(#alpha)">
<rect x="0" y="0" width="50" height="50" style="fill:rgb(0%,0%,0%);fill-opacity:0.870588;stroke:none;"/>
  </g>
</mask>
<clipPath id="clip4">
  <rect width="50" height="50"/>
</clipPath>
<g id="surface15" clip-path="url(#clip4)">
<path style=" stroke:none;fill-rule:evenodd;fill:rgb(96.078431%,96.078431%,96.078431%);fill-opacity:1;" d="M 19.457031 29.4375 C 19.929688 29.4375 20.3125 29.621094 20.609375 29.992188 C 20.5 30.015625 20.386719 30.023438 20.273438 30.015625 C 20.027344 29.785156 19.753906 29.59375 19.457031 29.4375 Z M 19.457031 29.4375 "/>
</g>
<mask id="mask4">
  <g filter="url(#alpha)">
<rect x="0" y="0" width="50" height="50" style="fill:rgb(0%,0%,0%);fill-opacity:0.972549;stroke:none;"/>
  </g>
</mask>
<clipPath id="clip5">
  <rect width="50" height="50"/>
</clipPath>
<g id="surface18" clip-path="url(#clip5)">
<path style=" stroke:none;fill-rule:evenodd;fill:rgb(96.862745%,96.862745%,96.862745%);fill-opacity:1;" d="M 31.070312 30.253906 C 31.199219 30.285156 31.324219 30.316406 31.453125 30.351562 C 31.035156 30.457031 30.617188 30.574219 30.207031 30.710938 C 30.0625 30.734375 29.917969 30.742188 29.773438 30.734375 C 29.480469 30.546875 29.175781 30.371094 28.863281 30.207031 C 29.160156 30.054688 29.46875 29.929688 29.796875 29.824219 C 30.175781 30.09375 30.601562 30.238281 31.070312 30.253906 Z M 31.070312 30.253906 "/>
</g>
<mask id="mask5">
  <g filter="url(#alpha)">
<rect x="0" y="0" width="50" height="50" style="fill:rgb(0%,0%,0%);fill-opacity:0.878431;stroke:none;"/>
  </g>
</mask>
<clipPath id="clip6">
  <rect width="50" height="50"/>
</clipPath>
<g id="surface21" clip-path="url(#clip6)">
<path style=" stroke:none;fill-rule:evenodd;fill:rgb(96.078431%,96.078431%,96.078431%);fill-opacity:1;" d="M 20.898438 30.445312 C 20.984375 30.390625 21.078125 30.382812 21.183594 30.421875 C 21.738281 30.742188 22.332031 30.949219 22.960938 31.046875 C 23.640625 31.105469 24.3125 31.128906 24.976562 31.117188 C 24.152344 31.304688 23.320312 31.34375 22.480469 31.238281 C 21.898438 31.074219 21.371094 30.8125 20.898438 30.445312 Z M 20.898438 30.445312 "/>
</g>
<mask id="mask6">
  <g filter="url(#alpha)">
<rect x="0" y="0" width="50" height="50" style="fill:rgb(0%,0%,0%);fill-opacity:0.937255;stroke:none;"/>
  </g>
</mask>
<clipPath id="clip7">
  <rect width="50" height="50"/>
</clipPath>
<g id="surface24" clip-path="url(#clip7)">
<path style=" stroke:none;fill-rule:evenodd;fill:rgb(95.686275%,95.686275%,95.686275%);fill-opacity:1;" d="M 31.261719 31.214844 C 30.957031 31.144531 30.652344 31.0625 30.351562 30.972656 C 30.355469 30.945312 30.371094 30.921875 30.398438 30.902344 C 30.804688 30.773438 31.210938 30.652344 31.621094 30.542969 C 31.683594 30.558594 31.699219 30.589844 31.667969 30.636719 C 31.613281 30.699219 31.550781 30.746094 31.476562 30.78125 C 31.457031 30.957031 31.382812 31.097656 31.261719 31.214844 Z M 31.261719 31.214844 "/>
</g>
<mask id="mask7">
  <g filter="url(#alpha)">
<rect x="0" y="0" width="50" height="50" style="fill:rgb(0%,0%,0%);fill-opacity:0.701961;stroke:none;"/>
  </g>
</mask>
<clipPath id="clip8">
  <rect width="50" height="50"/>
</clipPath>
<g id="surface27" clip-path="url(#clip8)">
<path style=" stroke:none;fill-rule:evenodd;fill:rgb(94.117647%,94.117647%,94.117647%);fill-opacity:1;" d="M 18.355469 30.6875 C 18.351562 30.785156 18.335938 30.882812 18.304688 30.972656 C 18.253906 30.886719 18.246094 30.792969 18.28125 30.6875 C 18.316406 30.625 18.339844 30.625 18.355469 30.6875 Z M 18.355469 30.6875 "/>
</g>
<mask id="mask8">
  <g filter="url(#alpha)">
<rect x="0" y="0" width="50" height="50" style="fill:rgb(0%,0%,0%);fill-opacity:0.839216;stroke:none;"/>
  </g>
</mask>
<clipPath id="clip9">
  <rect width="50" height="50"/>
</clipPath>
<g id="surface30" clip-path="url(#clip9)">
<path style=" stroke:none;fill-rule:evenodd;fill:rgb(93.72549%,93.72549%,93.72549%);fill-opacity:1;" d="M 30.445312 33.230469 C 30.445312 33.199219 30.445312 33.164062 30.445312 33.132812 C 30.488281 33.117188 30.503906 33.085938 30.496094 33.039062 C 30.5625 33.015625 30.59375 32.964844 30.589844 32.894531 C 30.628906 32.878906 30.644531 32.84375 30.636719 32.796875 C 30.679688 32.78125 30.695312 32.75 30.6875 32.703125 C 30.726562 32.683594 30.742188 32.652344 30.734375 32.605469 C 30.773438 32.589844 30.789062 32.558594 30.78125 32.507812 C 30.851562 32.488281 30.882812 32.4375 30.878906 32.367188 C 30.917969 32.347656 30.933594 32.316406 30.925781 32.269531 C 30.964844 32.253906 30.980469 32.222656 30.972656 32.171875 C 31.015625 32.15625 31.03125 32.125 31.023438 32.078125 C 31.0625 32.0625 31.078125 32.03125 31.070312 31.980469 C 31.101562 31.980469 31.117188 31.964844 31.117188 31.933594 C 31.222656 31.863281 31.335938 31.824219 31.453125 31.8125 C 31.144531 32.308594 30.808594 32.78125 30.445312 33.230469 Z M 30.445312 33.230469 "/>
</g>
<mask id="mask9">
  <g filter="url(#alpha)">
<rect x="0" y="0" width="50" height="50" style="fill:rgb(0%,0%,0%);fill-opacity:0.580392;stroke:none;"/>
  </g>
</mask>
<clipPath id="clip10">
  <rect width="50" height="50"/>
</clipPath>
<g id="surface33" clip-path="url(#clip10)">
<path style=" stroke:none;fill-rule:evenodd;fill:rgb(85.490196%,85.490196%,85.490196%);fill-opacity:1;" d="M 18.164062 33.902344 C 18.234375 34.175781 18.316406 34.449219 18.402344 34.71875 C 18.277344 34.582031 18.191406 34.421875 18.136719 34.238281 C 18.101562 34.113281 18.109375 34.003906 18.164062 33.902344 Z M 18.164062 33.902344 "/>
</g>
</defs>
<g id="surface1">
<use xlink:href="#surface6" mask="url(#mask0)"/>
<path style=" stroke:none;fill-rule:evenodd;fill:rgb(99.607843%,99.607843%,99.607843%);fill-opacity:1;" d="M 14.515625 29.246094 C 14.128906 29.207031 13.746094 29.160156 13.363281 29.101562 C 13.3125 29.058594 13.25 29.042969 13.171875 29.054688 C 13.136719 29.011719 13.089844 28.996094 13.027344 29.007812 C 12.640625 28.863281 12.253906 28.695312 11.875 28.503906 C 11.453125 28.203125 11.019531 27.914062 10.582031 27.640625 C 9.214844 26.882812 7.855469 26.117188 6.5 25.335938 C 4.796875 24.304688 3.558594 22.871094 2.78125 21.042969 C 2.675781 20.386719 2.585938 19.730469 2.519531 19.074219 C 2.46875 18.449219 2.675781 17.929688 3.144531 17.515625 C 4.355469 16.621094 5.605469 15.769531 6.886719 14.972656 C 7.835938 14.359375 8.84375 13.863281 9.910156 13.484375 C 11.46875 13.167969 13.019531 12.816406 14.5625 12.429688 C 16.140625 12.042969 17.742188 11.867188 19.363281 11.898438 C 21.234375 12.042969 23.058594 12.410156 24.832031 13.003906 C 26.625 13.78125 28.398438 14.597656 30.160156 15.449219 C 30.566406 15.679688 30.964844 15.917969 31.359375 16.171875 C 32.191406 16.957031 33.039062 17.722656 33.902344 18.472656 C 34.214844 18.804688 34.511719 19.148438 34.789062 19.503906 C 35.183594 20.375 35.203125 21.253906 34.835938 22.144531 C 34.574219 22.722656 34.246094 23.257812 33.851562 23.753906 C 32.765625 23.941406 31.695312 24.195312 30.636719 24.519531 C 30.007812 24.71875 29.453125 25.046875 28.984375 25.503906 C 28.652344 26.105469 28.300781 26.699219 27.925781 27.277344 C 27.753906 28.117188 27.777344 28.949219 28 29.773438 C 27.835938 29.929688 27.644531 30.050781 27.421875 30.132812 C 26.433594 30.429688 25.425781 30.605469 24.398438 30.664062 C 24.222656 30.636719 24.046875 30.601562 23.871094 30.566406 C 23.335938 30.359375 22.792969 30.183594 22.242188 30.039062 C 21.875 29.984375 21.507812 29.953125 21.136719 29.941406 C 20.804688 29.601562 20.421875 29.328125 19.984375 29.125 C 19.65625 29.019531 19.335938 29.035156 19.027344 29.175781 C 18.566406 29.539062 18.171875 29.964844 17.851562 30.445312 C 17.867188 30.804688 17.789062 31.140625 17.609375 31.453125 C 17.582031 32.238281 17.582031 33.023438 17.609375 33.804688 C 17.082031 33.003906 16.601562 32.171875 16.171875 31.308594 C 16.0625 30.929688 15.96875 30.546875 15.882812 30.160156 C 15.875 29.804688 15.847656 29.453125 15.8125 29.101562 C 15.738281 29.035156 15.648438 29 15.546875 29.007812 C 15.210938 29.121094 14.867188 29.203125 14.515625 29.246094 Z M 19.457031 29.4375 C 19.753906 29.59375 20.027344 29.785156 20.273438 30.015625 C 19.90625 30.082031 19.539062 30.15625 19.167969 30.230469 C 18.960938 30.269531 18.753906 30.261719 18.546875 30.207031 C 18.792969 29.878906 19.097656 29.621094 19.457031 29.4375 Z M 19.457031 29.4375 "/>
<use xlink:href="#surface9" mask="url(#mask1)"/>
<path style=" stroke:none;fill-rule:evenodd;fill:rgb(75.294118%,75.294118%,75.294118%);fill-opacity:1;" d="M 34.140625 24.113281 C 34.699219 24.105469 34.691406 24.15625 34.117188 24.257812 C 34.078125 24.25 34.035156 24.242188 33.996094 24.230469 C 34.046875 24.191406 34.097656 24.152344 34.140625 24.113281 Z M 34.140625 24.113281 "/>
<path style=" stroke:none;fill-rule:evenodd;fill:rgb(91.764706%,91.764706%,91.764706%);fill-opacity:1;" d="M 33.179688 24.257812 C 33.265625 24.242188 33.347656 24.257812 33.421875 24.304688 C 33.394531 24.367188 33.34375 24.40625 33.277344 24.425781 C 31.902344 24.777344 30.574219 25.238281 29.292969 25.816406 C 29.84375 25.277344 30.5 24.925781 31.261719 24.761719 C 31.902344 24.574219 32.542969 24.40625 33.179688 24.257812 Z M 33.179688 24.257812 "/>
<use xlink:href="#surface12" mask="url(#mask2)"/>
<path style=" stroke:none;fill-rule:evenodd;fill:rgb(98.039216%,98.039216%,98.039216%);fill-opacity:1;" d="M 34.476562 24.542969 C 34.574219 24.535156 34.671875 24.542969 34.765625 24.566406 C 34.429688 25.429688 33.957031 26.207031 33.347656 26.894531 C 32.777344 27.464844 32.179688 28.003906 31.550781 28.503906 C 31.078125 28.816406 30.582031 29.085938 30.0625 29.320312 C 29.894531 29.371094 29.804688 29.316406 29.796875 29.152344 C 30.183594 28.765625 30.566406 28.382812 30.949219 28 C 31.777344 26.921875 32.632812 25.867188 33.515625 24.832031 C 33.832031 24.707031 34.152344 24.609375 34.476562 24.542969 Z M 34.476562 24.542969 "/>
<path style=" stroke:none;fill-rule:evenodd;fill:rgb(98.039216%,98.039216%,98.039216%);fill-opacity:1;" d="M 32.652344 25.070312 C 32.6875 25.066406 32.722656 25.074219 32.75 25.097656 C 32.101562 25.902344 31.453125 26.710938 30.804688 27.519531 C 30.40625 27.984375 29.972656 28.414062 29.511719 28.816406 C 29.21875 28.390625 29.042969 27.925781 28.984375 27.421875 C 29.398438 27.011719 29.855469 26.652344 30.351562 26.34375 C 31.101562 25.886719 31.871094 25.464844 32.652344 25.070312 Z M 32.652344 25.070312 "/>
<path style=" stroke:none;fill-rule:evenodd;fill:rgb(93.333333%,93.333333%,93.333333%);fill-opacity:1;" d="M 30.832031 25.601562 C 30.878906 25.59375 30.929688 25.601562 30.972656 25.625 C 30.238281 26.019531 29.558594 26.492188 28.933594 27.039062 C 28.902344 26.878906 28.902344 26.71875 28.933594 26.558594 C 28.976562 26.519531 29.015625 26.480469 29.054688 26.441406 C 29.636719 26.132812 30.230469 25.851562 30.832031 25.601562 Z M 30.832031 25.601562 "/>
<path style=" stroke:none;fill-rule:evenodd;fill:rgb(84.705882%,84.705882%,84.705882%);fill-opacity:1;" d="M 28.429688 27.085938 C 28.515625 27.214844 28.539062 27.359375 28.503906 27.519531 C 28.40625 27.601562 28.324219 27.695312 28.261719 27.808594 C 28.265625 27.554688 28.320312 27.316406 28.429688 27.085938 Z M 28.429688 27.085938 "/>
<path style=" stroke:none;fill-rule:evenodd;fill:rgb(84.313725%,84.313725%,84.313725%);fill-opacity:1;" d="M 45.707031 26.945312 C 46.21875 27.160156 46.59375 27.542969 46.832031 28.09375 C 46.863281 28.160156 46.863281 28.222656 46.832031 28.285156 C 46.550781 27.757812 46.175781 27.308594 45.707031 26.945312 Z M 45.707031 26.945312 "/>
<path style=" stroke:none;fill-rule:evenodd;fill:rgb(96.470588%,96.470588%,96.470588%);fill-opacity:1;" d="M 28.574219 27.855469 C 28.753906 28.265625 28.945312 28.671875 29.152344 29.078125 C 28.925781 29.292969 28.675781 29.476562 28.40625 29.628906 C 28.132812 29 28.1875 28.410156 28.574219 27.855469 Z M 28.574219 27.855469 "/>
<use xlink:href="#surface15" mask="url(#mask3)"/>
<path style=" stroke:none;fill-rule:evenodd;fill:rgb(81.568627%,81.568627%,81.568627%);fill-opacity:1;" d="M 29.390625 29.4375 C 29.4375 29.453125 29.46875 29.484375 29.488281 29.535156 C 29.367188 29.617188 29.242188 29.660156 29.101562 29.65625 C 29.207031 29.589844 29.304688 29.515625 29.390625 29.4375 Z M 29.390625 29.4375 "/>
<use xlink:href="#surface18" mask="url(#mask4)"/>
<path style=" stroke:none;fill-rule:evenodd;fill:rgb(42.745098%,42.745098%,42.745098%);fill-opacity:1;" d="M 31.070312 30.253906 C 31.234375 30.238281 31.394531 30.253906 31.550781 30.300781 C 31.527344 30.339844 31.496094 30.355469 31.453125 30.351562 C 31.324219 30.316406 31.199219 30.285156 31.070312 30.253906 Z M 31.070312 30.253906 "/>
<path style=" stroke:none;fill-rule:evenodd;fill:rgb(90.196078%,90.196078%,90.196078%);fill-opacity:1;" d="M 32.03125 30.300781 C 32.109375 30.292969 32.191406 30.300781 32.269531 30.328125 C 32.148438 30.558594 32.03125 30.789062 31.910156 31.023438 C 31.882812 30.921875 31.84375 30.824219 31.789062 30.734375 C 31.859375 30.582031 31.9375 30.4375 32.03125 30.300781 Z M 32.03125 30.300781 "/>
<use xlink:href="#surface21" mask="url(#mask5)"/>
<path style=" stroke:none;fill-rule:evenodd;fill:rgb(59.215686%,59.215686%,59.215686%);fill-opacity:1;" d="M 22.097656 30.496094 C 22.335938 30.460938 22.578125 30.5 22.816406 30.613281 C 22.574219 30.597656 22.335938 30.558594 22.097656 30.496094 Z M 22.097656 30.496094 "/>
<use xlink:href="#surface24" mask="url(#mask6)"/>
<use xlink:href="#surface27" mask="url(#mask7)"/>
<path style=" stroke:none;fill-rule:evenodd;fill:rgb(96.862745%,96.862745%,96.862745%);fill-opacity:1;" d="M 41.484375 32.652344 C 41.53125 32.6875 41.578125 32.71875 41.625 32.75 C 40.996094 32.898438 40.355469 33.011719 39.707031 33.085938 C 38.753906 32.996094 37.808594 32.84375 36.875 32.628906 C 36.335938 32.480469 35.839844 32.238281 35.390625 31.910156 C 35.269531 31.816406 35.238281 31.703125 35.292969 31.574219 C 35.5 31.542969 35.707031 31.542969 35.917969 31.574219 C 37.09375 31.890625 38.277344 32.179688 39.46875 32.4375 C 40.136719 32.542969 40.808594 32.613281 41.484375 32.652344 Z M 41.484375 32.652344 "/>
<use xlink:href="#surface30" mask="url(#mask8)"/>
<path style=" stroke:none;fill-rule:evenodd;fill:rgb(40%,40%,40%);fill-opacity:1;" d="M 41.484375 32.652344 C 41.597656 32.644531 41.707031 32.652344 41.820312 32.675781 C 41.757812 32.714844 41.695312 32.738281 41.625 32.75 C 41.578125 32.71875 41.53125 32.6875 41.484375 32.652344 Z M 41.484375 32.652344 "/>
<use xlink:href="#surface33" mask="url(#mask9)"/>
</g>
</svg>
