<?xml version="1.0" encoding="UTF-8"?>
<svg xmlns="http://www.w3.org/2000/svg" xmlns:xlink="http://www.w3.org/1999/xlink" width="50pt" height="50pt" viewBox="0 0 50 50" version="1.1">
<defs>
<filter id="alpha" filterUnits="objectBoundingBox" x="0%" y="0%" width="100%" height="100%">
  <feColorMatrix type="matrix" in="SourceGraphic" values="0 0 0 0 1 0 0 0 0 1 0 0 0 0 1 0 0 0 1 0"/>
</filter>
<mask id="mask0">
  <g filter="url(#alpha)">
<rect x="0" y="0" width="50" height="50" style="fill:rgb(0%,0%,0%);fill-opacity:0.984314;stroke:none;"/>
  </g>
</mask>
<clipPath id="clip1">
  <rect width="50" height="50"/>
</clipPath>
<g id="surface6" clip-path="url(#clip1)">
<path style=" stroke:none;fill-rule:evenodd;fill:rgb(0.392157%,0.392157%,0.392157%);fill-opacity:1;" d="M 31.890625 42.570312 C 30.925781 43.484375 29.800781 44.113281 28.503906 44.457031 C 27.871094 44.609375 27.230469 44.714844 26.585938 44.765625 C 25.671875 44.800781 24.800781 44.632812 23.96875 44.261719 C 23.253906 43.933594 22.574219 43.550781 21.925781 43.109375 C 21.445312 42.75 20.972656 42.378906 20.511719 41.996094 C 19.910156 41.421875 19.34375 40.8125 18.820312 40.171875 C 17.585938 38.480469 17.332031 36.648438 18.050781 34.671875 C 18.777344 32.910156 20.007812 31.625 21.734375 30.820312 C 22.289062 30.585938 22.863281 30.445312 23.464844 30.402344 C 23.519531 30.402344 23.574219 30.402344 23.632812 30.402344 C 23.574219 29.207031 23.464844 28.023438 23.296875 26.847656 C 23.164062 25.871094 23.070312 24.886719 23.019531 23.894531 C 22.898438 20.113281 22.75 16.332031 22.574219 12.554688 C 22.660156 10.636719 22.738281 8.722656 22.804688 6.804688 C 22.855469 5.953125 23.03125 5.128906 23.332031 4.332031 C 23.523438 3.851562 23.824219 3.457031 24.230469 3.144531 C 25.136719 2.679688 25.839844 2.890625 26.332031 3.78125 C 26.429688 3.976562 26.515625 4.175781 26.597656 4.378906 C 26.847656 5.292969 27.101562 6.207031 27.351562 7.117188 C 27.558594 7.136719 27.769531 7.148438 27.976562 7.152344 C 28.125 7.253906 28.132812 7.367188 28 7.488281 C 27.816406 7.492188 27.632812 7.503906 27.449219 7.523438 C 27.589844 8.039062 27.714844 8.5625 27.820312 9.085938 C 27.847656 9.476562 27.863281 9.867188 27.855469 10.261719 C 28.105469 10.257812 28.351562 10.261719 28.601562 10.273438 C 28.722656 10.375 28.75 10.5 28.683594 10.644531 C 28.65625 10.683594 28.621094 10.710938 28.578125 10.730469 C 28.351562 10.742188 28.128906 10.746094 27.90625 10.742188 C 27.992188 11.6875 28 12.636719 27.929688 13.585938 C 27.9375 13.644531 27.945312 13.707031 27.953125 13.765625 C 28.152344 13.738281 28.351562 13.734375 28.550781 13.753906 C 28.730469 13.855469 28.765625 13.996094 28.660156 14.175781 C 28.625 14.199219 28.589844 14.21875 28.550781 14.234375 C 28.335938 14.246094 28.121094 14.25 27.90625 14.246094 C 27.863281 15.070312 27.824219 15.894531 27.785156 16.71875 C 28.039062 16.714844 28.296875 16.71875 28.550781 16.730469 C 28.671875 16.761719 28.730469 16.84375 28.71875 16.972656 C 28.71875 17.101562 28.65625 17.183594 28.527344 17.210938 C 28.28125 17.207031 28.03125 17.203125 27.785156 17.199219 C 27.722656 19.789062 27.699219 22.382812 27.722656 24.976562 C 27.757812 25.863281 27.796875 26.753906 27.84375 27.640625 C 27.851562 28.183594 27.859375 28.730469 27.867188 29.273438 C 27.90625 29.617188 27.953125 29.960938 28 30.304688 C 28.6875 30.277344 29.351562 30.394531 29.992188 30.652344 C 30.453125 30.820312 30.882812 31.035156 31.289062 31.300781 C 32.59375 32.457031 33.378906 33.898438 33.652344 35.632812 C 33.851562 36.777344 33.859375 37.921875 33.675781 39.066406 C 33.441406 40.425781 32.847656 41.59375 31.890625 42.570312 Z M 24.664062 3.683594 C 24.355469 4.40625 24.113281 5.152344 23.933594 5.917969 C 23.640625 7.175781 23.394531 8.4375 23.199219 9.710938 C 23.242188 8.835938 23.292969 7.964844 23.355469 7.09375 C 23.398438 6.40625 23.519531 5.734375 23.714844 5.078125 C 23.847656 4.660156 24.046875 4.285156 24.316406 3.949219 C 24.421875 3.847656 24.539062 3.757812 24.664062 3.683594 Z M 22.671875 31 C 21.664062 31.597656 20.714844 32.269531 19.816406 33.015625 C 19.976562 32.796875 20.160156 32.59375 20.367188 32.40625 C 21.039062 31.785156 21.808594 31.316406 22.671875 31 Z M 22.671875 31 "/>
</g>
<mask id="mask1">
  <g filter="url(#alpha)">
<rect x="0" y="0" width="50" height="50" style="fill:rgb(0%,0%,0%);fill-opacity:0.905882;stroke:none;"/>
  </g>
</mask>
<clipPath id="clip2">
  <rect width="50" height="50"/>
</clipPath>
<g id="surface9" clip-path="url(#clip2)">
<path style=" stroke:none;fill-rule:evenodd;fill:rgb(93.333333%,93.333333%,93.333333%);fill-opacity:1;" d="M 23.296875 26.847656 C 23.464844 28.023438 23.574219 29.207031 23.632812 30.402344 C 23.574219 30.402344 23.519531 30.402344 23.464844 30.402344 C 23.402344 29.21875 23.347656 28.03125 23.296875 26.847656 Z M 23.296875 26.847656 "/>
</g>
<mask id="mask2">
  <g filter="url(#alpha)">
<rect x="0" y="0" width="50" height="50" style="fill:rgb(0%,0%,0%);fill-opacity:0.992157;stroke:none;"/>
  </g>
</mask>
<clipPath id="clip3">
  <rect width="50" height="50"/>
</clipPath>
<g id="surface12" clip-path="url(#clip3)">
<path style=" stroke:none;fill-rule:evenodd;fill:rgb(94.509804%,92.941176%,90.196078%);fill-opacity:1;" d="M 20.511719 41.996094 C 20.972656 42.378906 21.445312 42.75 21.925781 43.109375 C 22.574219 43.550781 23.253906 43.933594 23.96875 44.261719 C 24.800781 44.632812 25.671875 44.800781 26.585938 44.765625 C 27.230469 44.714844 27.871094 44.609375 28.503906 44.457031 C 29.800781 44.113281 30.925781 43.484375 31.890625 42.570312 C 32.335938 42.734375 32.753906 42.953125 33.136719 43.230469 C 33.355469 43.40625 33.503906 43.625 33.582031 43.890625 C 33.605469 44.167969 33.527344 44.40625 33.339844 44.609375 C 32.898438 45.011719 32.390625 45.300781 31.816406 45.488281 C 30.441406 45.929688 29.035156 46.203125 27.59375 46.304688 C 25.179688 46.507812 22.777344 46.414062 20.390625 46.015625 C 19.628906 45.878906 18.886719 45.679688 18.160156 45.414062 C 17.722656 45.253906 17.320312 45.027344 16.957031 44.742188 C 16.429688 44.214844 16.453125 43.710938 17.03125 43.230469 C 17.582031 42.851562 18.179688 42.570312 18.832031 42.390625 C 19.382812 42.230469 19.945312 42.097656 20.511719 41.996094 Z M 20.511719 41.996094 "/>
</g>
</defs>
<g id="surface1">
<use xlink:href="#surface6" mask="url(#mask0)"/>
<path style=" stroke:none;fill-rule:evenodd;fill:rgb(99.607843%,99.215686%,99.215686%);fill-opacity:1;" d="M 27.28125 13.382812 C 27.257812 13.503906 27.25 13.632812 27.257812 13.765625 C 27.03125 13.765625 26.808594 13.765625 26.585938 13.765625 C 26.359375 13.757812 26.132812 13.746094 25.914062 13.730469 C 25.828125 13.820312 25.820312 13.914062 25.886719 14.019531 C 26.339844 14.117188 26.796875 14.175781 27.257812 14.199219 C 27.21875 14.972656 27.191406 15.75 27.183594 16.527344 C 27.171875 16.609375 27.148438 16.691406 27.113281 16.765625 C 26.730469 16.765625 26.351562 16.742188 25.972656 16.695312 C 25.847656 16.730469 25.808594 16.808594 25.851562 16.933594 C 25.863281 16.960938 25.882812 16.984375 25.914062 16.996094 C 26.332031 17.085938 26.757812 17.144531 27.183594 17.175781 C 27.195312 19.671875 27.207031 22.167969 27.21875 24.664062 C 27.285156 26.609375 27.335938 28.550781 27.375 30.496094 C 27.140625 30.566406 26.945312 30.695312 26.789062 30.882812 C 26.785156 31.179688 26.933594 31.3125 27.230469 31.277344 C 27.296875 31.261719 27.351562 31.234375 27.398438 31.191406 C 27.71875 31.40625 27.925781 31.328125 28.023438 30.964844 C 29.109375 30.945312 30.085938 31.257812 30.953125 31.902344 C 32.289062 33.230469 33.007812 34.839844 33.101562 36.738281 C 33.144531 37.601562 33.085938 38.457031 32.933594 39.304688 C 32.652344 40.503906 32.054688 41.511719 31.144531 42.332031 C 29.429688 41.917969 27.695312 41.6875 25.9375 41.632812 C 27.011719 41.585938 28.027344 41.320312 28.984375 40.832031 C 29.828125 40.371094 30.394531 39.675781 30.675781 38.753906 C 30.910156 37.542969 31.011719 36.316406 30.988281 35.082031 C 30.949219 34.5 30.734375 33.996094 30.339844 33.570312 C 29.992188 33.210938 29.597656 32.921875 29.152344 32.691406 C 28.359375 32.300781 27.542969 31.964844 26.703125 31.683594 C 26.484375 31.621094 26.265625 31.566406 26.042969 31.527344 C 25.960938 30.601562 25.898438 29.675781 25.851562 28.746094 C 25.78125 25.183594 25.75 21.625 25.757812 18.0625 C 25.671875 17.128906 25.625 16.191406 25.613281 15.253906 C 25.523438 14.5625 25.464844 13.863281 25.445312 13.167969 C 25.390625 12.789062 25.34375 12.414062 25.300781 12.039062 C 25.179688 11.746094 25 11.503906 24.761719 11.304688 C 24.566406 11.214844 24.382812 11.230469 24.207031 11.355469 C 23.875 11.535156 23.746094 11.816406 23.824219 12.195312 C 23.828125 12.34375 23.832031 12.488281 23.835938 12.636719 C 23.90625 13.03125 23.96875 13.421875 24.027344 13.8125 C 24.042969 14.011719 24.039062 14.207031 24.015625 14.402344 C 24.078125 14.957031 24.105469 15.511719 24.101562 16.070312 C 24.167969 16.339844 24.195312 16.609375 24.183594 16.886719 C 24.164062 17.390625 24.140625 17.894531 24.113281 18.398438 C 24.140625 19.179688 24.171875 19.960938 24.207031 20.738281 C 24.203125 20.964844 24.195312 21.1875 24.183594 21.410156 C 24.257812 23.75 24.308594 26.089844 24.339844 28.433594 C 24.382812 28.941406 24.410156 29.449219 24.425781 29.957031 C 24.390625 30.480469 24.363281 31.003906 24.339844 31.527344 C 24.269531 31.597656 24.195312 31.65625 24.113281 31.710938 C 23.355469 32.105469 22.640625 32.570312 21.976562 33.101562 C 21.402344 33.59375 20.976562 34.191406 20.691406 34.890625 C 20.25 36.429688 20.410156 37.902344 21.171875 39.304688 C 21.789062 40.289062 22.632812 41.003906 23.703125 41.453125 C 23.996094 41.527344 24.292969 41.578125 24.59375 41.609375 C 24.003906 41.65625 23.410156 41.691406 22.816406 41.71875 C 22.335938 41.769531 21.855469 41.816406 21.375 41.851562 C 20.597656 41.210938 19.90625 40.492188 19.300781 39.691406 C 18.257812 38.214844 18.042969 36.625 18.652344 34.914062 C 18.90625 34.261719 19.253906 33.671875 19.695312 33.136719 C 19.710938 33.136719 19.71875 33.128906 19.71875 33.113281 C 19.734375 33.113281 19.742188 33.105469 19.742188 33.089844 C 19.757812 33.089844 19.765625 33.082031 19.765625 33.066406 C 19.78125 33.066406 19.792969 33.058594 19.792969 33.042969 C 19.808594 33.042969 19.816406 33.035156 19.816406 33.015625 C 20.714844 32.269531 21.664062 31.597656 22.671875 31 C 22.695312 31.003906 22.710938 30.996094 22.71875 30.976562 C 22.742188 30.980469 22.757812 30.972656 22.769531 30.953125 C 23.089844 30.820312 23.425781 30.734375 23.777344 30.699219 C 23.84375 30.667969 23.875 30.613281 23.871094 30.53125 C 23.871094 30.492188 23.859375 30.457031 23.835938 30.425781 C 23.824219 29.726562 23.792969 29.03125 23.738281 28.335938 C 23.539062 26.492188 23.402344 24.644531 23.332031 22.792969 C 23.289062 20.953125 23.253906 19.109375 23.234375 17.269531 C 23.171875 15.730469 23.109375 14.191406 23.054688 12.648438 C 23.078125 11.667969 23.125 10.6875 23.199219 9.710938 C 23.394531 8.4375 23.640625 7.175781 23.933594 5.917969 C 24.113281 5.152344 24.355469 4.40625 24.664062 3.683594 C 24.890625 3.527344 25.121094 3.523438 25.359375 3.671875 C 25.664062 3.96875 25.871094 4.324219 25.972656 4.742188 C 26.164062 5.546875 26.375 6.347656 26.609375 7.140625 C 26.230469 7.160156 25.855469 7.171875 25.480469 7.175781 C 25.363281 7.261719 25.355469 7.359375 25.457031 7.464844 C 25.871094 7.476562 26.289062 7.480469 26.703125 7.476562 C 26.835938 8.046875 26.96875 8.613281 27.101562 9.179688 C 27.109375 9.550781 27.121094 9.917969 27.136719 10.285156 C 26.773438 10.289062 26.414062 10.273438 26.054688 10.238281 C 25.929688 10.210938 25.855469 10.257812 25.839844 10.382812 C 25.839844 10.445312 25.867188 10.496094 25.914062 10.539062 C 26.332031 10.605469 26.753906 10.667969 27.171875 10.71875 C 27.269531 11.601562 27.304688 12.492188 27.28125 13.382812 Z M 27.28125 13.382812 "/>
<path style=" stroke:none;fill-rule:evenodd;fill:rgb(66.666667%,23.137255%,18.039216%);fill-opacity:1;" d="M 25.9375 41.632812 C 25.488281 41.667969 25.039062 41.660156 24.59375 41.609375 C 24.292969 41.578125 23.996094 41.527344 23.703125 41.453125 C 22.632812 41.003906 21.789062 40.289062 21.171875 39.304688 C 20.410156 37.902344 20.25 36.429688 20.691406 34.890625 C 20.976562 34.191406 21.402344 33.59375 21.976562 33.101562 C 22.640625 32.570312 23.355469 32.105469 24.113281 31.710938 C 24.195312 31.65625 24.269531 31.597656 24.339844 31.527344 C 24.363281 31.003906 24.390625 30.480469 24.425781 29.957031 C 24.410156 29.449219 24.382812 28.941406 24.339844 28.433594 C 24.308594 26.089844 24.257812 23.75 24.183594 21.410156 C 24.195312 21.1875 24.203125 20.964844 24.207031 20.738281 C 24.171875 19.960938 24.140625 19.179688 24.113281 18.398438 C 24.140625 17.894531 24.164062 17.390625 24.183594 16.886719 C 24.195312 16.609375 24.167969 16.339844 24.101562 16.070312 C 24.105469 15.511719 24.078125 14.957031 24.015625 14.402344 C 24.039062 14.207031 24.042969 14.011719 24.027344 13.8125 C 23.96875 13.421875 23.90625 13.03125 23.835938 12.636719 C 23.832031 12.488281 23.828125 12.34375 23.824219 12.195312 C 23.746094 11.816406 23.875 11.535156 24.207031 11.355469 C 24.382812 11.230469 24.566406 11.214844 24.761719 11.304688 C 25 11.503906 25.179688 11.746094 25.300781 12.039062 C 25.34375 12.414062 25.390625 12.789062 25.445312 13.167969 C 25.464844 13.863281 25.523438 14.5625 25.613281 15.253906 C 25.625 16.191406 25.671875 17.128906 25.757812 18.0625 C 25.75 21.625 25.78125 25.183594 25.851562 28.746094 C 25.898438 29.675781 25.960938 30.601562 26.042969 31.527344 C 26.265625 31.566406 26.484375 31.621094 26.703125 31.683594 C 27.542969 31.964844 28.359375 32.300781 29.152344 32.691406 C 29.597656 32.921875 29.992188 33.210938 30.339844 33.570312 C 30.734375 33.996094 30.949219 34.5 30.988281 35.082031 C 31.011719 36.316406 30.910156 37.542969 30.675781 38.753906 C 30.394531 39.675781 29.828125 40.371094 28.984375 40.832031 C 28.027344 41.320312 27.011719 41.585938 25.9375 41.632812 Z M 25.9375 41.632812 "/>
<path style=" stroke:none;fill-rule:evenodd;fill:rgb(69.803922%,69.803922%,69.803922%);fill-opacity:1;" d="M 27.28125 13.382812 C 27.28125 13.519531 27.28125 13.652344 27.28125 13.789062 C 27.042969 13.796875 26.8125 13.789062 26.585938 13.765625 C 26.808594 13.765625 27.03125 13.765625 27.257812 13.765625 C 27.25 13.632812 27.257812 13.503906 27.28125 13.382812 Z M 27.28125 13.382812 "/>
<path style=" stroke:none;fill-rule:evenodd;fill:rgb(54.509804%,54.509804%,54.509804%);fill-opacity:1;" d="M 27.183594 16.527344 C 27.183594 16.605469 27.183594 16.6875 27.183594 16.765625 C 27.160156 16.765625 27.136719 16.765625 27.113281 16.765625 C 27.148438 16.691406 27.171875 16.609375 27.183594 16.527344 Z M 27.183594 16.527344 "/>
<use xlink:href="#surface9" mask="url(#mask1)"/>
<path style=" stroke:none;fill-rule:evenodd;fill:rgb(94.509804%,92.941176%,90.196078%);fill-opacity:1;" d="M 24.59375 41.609375 C 25.039062 41.660156 25.488281 41.667969 25.9375 41.632812 C 27.695312 41.6875 29.429688 41.917969 31.144531 42.332031 C 30.527344 42.898438 29.8125 43.316406 29.007812 43.589844 C 28.023438 43.953125 27.007812 44.121094 25.960938 44.09375 C 25.082031 44.003906 24.257812 43.742188 23.488281 43.304688 C 22.824219 42.933594 22.191406 42.519531 21.589844 42.054688 C 21.507812 41.996094 21.4375 41.929688 21.375 41.851562 C 21.855469 41.816406 22.335938 41.769531 22.816406 41.71875 C 23.410156 41.691406 24.003906 41.65625 24.59375 41.609375 Z M 24.59375 41.609375 "/>
<use xlink:href="#surface12" mask="url(#mask2)"/>
</g>
</svg>
