<?xml version="1.0" encoding="UTF-8"?>
<svg xmlns="http://www.w3.org/2000/svg" xmlns:xlink="http://www.w3.org/1999/xlink" width="50pt" height="50pt" viewBox="0 0 50 50" version="1.1">
<defs>
<filter id="alpha" filterUnits="objectBoundingBox" x="0%" y="0%" width="100%" height="100%">
  <feColorMatrix type="matrix" in="SourceGraphic" values="0 0 0 0 1 0 0 0 0 1 0 0 0 0 1 0 0 0 1 0"/>
</filter>
<mask id="mask0">
  <g filter="url(#alpha)">
<rect x="0" y="0" width="50" height="50" style="fill:rgb(0%,0%,0%);fill-opacity:0.984314;stroke:none;"/>
  </g>
</mask>
<clipPath id="clip1">
  <rect width="50" height="50"/>
</clipPath>
<g id="surface6" clip-path="url(#clip1)">
<path style=" stroke:none;fill-rule:evenodd;fill:rgb(9.019608%,9.411765%,9.019608%);fill-opacity:1;" d="M 29.898438 21.953125 C 29.90625 22.539062 29.921875 23.128906 29.945312 23.714844 C 29.945312 23.933594 29.9375 24.148438 29.921875 24.363281 C 29.925781 24.394531 29.941406 24.417969 29.96875 24.4375 C 30.175781 24.507812 30.382812 24.574219 30.59375 24.640625 C 31.207031 24.882812 31.808594 25.15625 32.394531 25.46875 C 33.597656 26.164062 34.804688 26.851562 36.019531 27.53125 C 36.734375 27.972656 37.445312 28.421875 38.152344 28.875 C 38.636719 29.246094 38.992188 29.714844 39.222656 30.28125 C 39.28125 30.472656 39.320312 30.667969 39.332031 30.867188 C 39.230469 31.570312 39.066406 32.253906 38.839844 32.921875 C 38.851562 33.226562 38.808594 33.519531 38.71875 33.808594 C 38.515625 34.125 38.238281 34.351562 37.890625 34.492188 C 37.652344 34.589844 37.414062 34.671875 37.171875 34.746094 C 35.273438 35.175781 33.503906 35.90625 31.863281 36.941406 C 30.496094 37.898438 29.054688 38.746094 27.542969 39.484375 C 26.945312 39.757812 26.347656 40.019531 25.742188 40.277344 C 25.046875 40.601562 24.390625 40.984375 23.777344 41.429688 C 23.351562 41.785156 22.921875 42.125 22.480469 42.449219 C 22.335938 42.5625 22.183594 42.664062 22.023438 42.75 C 21.628906 42.945312 21.238281 43.144531 20.847656 43.351562 C 20.195312 43.828125 19.476562 44.164062 18.6875 44.359375 C 18.316406 44.433594 17.949219 44.511719 17.582031 44.597656 C 17.203125 44.746094 16.820312 44.875 16.429688 44.984375 C 16.277344 45 16.125 45 15.972656 44.984375 C 15.851562 44.917969 15.722656 44.867188 15.589844 44.828125 C 15.339844 44.613281 15.085938 44.402344 14.824219 44.191406 C 14.277344 43.886719 13.75 43.558594 13.238281 43.207031 C 12.894531 42.9375 12.558594 42.65625 12.230469 42.367188 C 11.425781 41.554688 10.628906 40.734375 9.839844 39.90625 C 9.441406 39.460938 9.066406 38.996094 8.714844 38.515625 C 8.265625 38.046875 7.800781 37.601562 7.320312 37.171875 C 7.234375 37.066406 7.144531 36.960938 7.058594 36.859375 C 6.777344 36.4375 6.484375 36.027344 6.167969 35.632812 C 5.457031 34.828125 4.71875 34.054688 3.949219 33.304688 C 3.925781 33.296875 3.910156 33.28125 3.902344 33.257812 C 3.878906 33.195312 3.839844 33.148438 3.78125 33.113281 C 3.75 33.097656 3.722656 33.074219 3.707031 33.042969 C 3.683594 32.976562 3.644531 32.929688 3.589844 32.898438 C 3.441406 32.699219 3.304688 32.492188 3.179688 32.273438 C 3.136719 32.253906 3.097656 32.230469 3.058594 32.199219 C 3.023438 32.078125 2.984375 31.957031 2.941406 31.839844 C 2.320312 29.742188 2.085938 27.597656 2.230469 25.40625 C 2.101562 24.710938 1.964844 24.015625 1.824219 23.320312 C 1.757812 22.71875 1.746094 22.113281 1.789062 21.507812 C 1.78125 21.289062 1.769531 21.066406 1.753906 20.847656 C 1.550781 19.359375 1.3125 17.878906 1.03125 16.40625 C 0.855469 15.238281 0.773438 14.0625 0.792969 12.878906 C 0.828125 12.550781 0.984375 12.304688 1.261719 12.132812 C 1.316406 12.121094 1.363281 12.097656 1.402344 12.0625 C 1.734375 11.960938 2.070312 11.890625 2.414062 11.859375 C 3.582031 11.359375 4.796875 11.039062 6.0625 10.898438 C 7.035156 10.785156 8.011719 10.703125 8.988281 10.65625 C 11.585938 10.132812 14.203125 9.75 16.839844 9.503906 C 17.710938 9.445312 18.582031 9.390625 19.457031 9.335938 C 20.496094 9.222656 21.539062 9.085938 22.574219 8.929688 C 23.957031 8.679688 25.335938 8.4375 26.714844 8.199219 C 26.898438 8.222656 27.027344 8.3125 27.113281 8.472656 C 27.125 8.484375 27.144531 8.488281 27.160156 8.484375 C 27.375 8.496094 27.59375 8.5 27.808594 8.496094 C 27.90625 8.457031 27.992188 8.40625 28.074219 8.339844 C 28.164062 8.28125 28.261719 8.230469 28.359375 8.183594 C 28.140625 7.792969 27.898438 7.785156 27.640625 8.160156 C 27.390625 8.191406 27.328125 8.097656 27.460938 7.886719 C 27.71875 7.558594 28.027344 7.5 28.382812 7.707031 C 28.523438 7.84375 28.625 8.007812 28.683594 8.199219 C 28.75 8.230469 28.796875 8.277344 28.828125 8.339844 C 29.007812 8.988281 29.132812 9.644531 29.210938 10.308594 C 29.367188 12.039062 29.542969 13.769531 29.742188 15.496094 C 29.855469 16.722656 29.914062 17.957031 29.921875 19.191406 C 29.898438 20.109375 29.890625 21.03125 29.898438 21.953125 Z M 29.441406 15.636719 C 29.296875 15.101562 29.152344 14.566406 29.007812 14.03125 C 28.96875 13.605469 28.925781 13.183594 28.886719 12.757812 C 28.824219 12.132812 28.753906 11.511719 28.683594 10.886719 C 28.667969 10.453125 28.667969 10.023438 28.683594 9.589844 C 28.6875 9.464844 28.703125 9.347656 28.734375 9.230469 C 28.835938 9.761719 28.917969 10.296875 28.972656 10.835938 C 29.128906 12.4375 29.28125 14.039062 29.441406 15.636719 Z M 16.09375 10.023438 C 15.984375 10.023438 15.882812 10.039062 15.78125 10.070312 C 15.660156 10.074219 15.539062 10.089844 15.421875 10.117188 C 14.960938 10.167969 14.503906 10.234375 14.054688 10.308594 C 13.824219 10.328125 13.601562 10.359375 13.382812 10.40625 C 12.632812 10.496094 11.878906 10.546875 11.125 10.5625 C 13.34375 10.160156 15.574219 9.890625 17.824219 9.746094 C 17.246094 9.839844 16.671875 9.933594 16.09375 10.023438 Z M 9.230469 10.957031 C 9.019531 11.003906 8.800781 11.035156 8.582031 11.054688 C 8.789062 10.992188 9.007812 10.960938 9.230469 10.957031 Z M 3.828125 11.679688 C 4.640625 11.421875 5.472656 11.257812 6.324219 11.1875 C 5.675781 11.316406 5.027344 11.453125 4.378906 11.59375 C 4.199219 11.632812 4.015625 11.660156 3.828125 11.679688 Z M 1.285156 12.519531 C 1.308594 12.640625 1.324219 12.769531 1.332031 12.902344 C 1.253906 12.875 1.179688 12.875 1.105469 12.902344 C 1.105469 12.746094 1.164062 12.617188 1.285156 12.519531 Z M 1.378906 13.40625 C 1.433594 13.933594 1.484375 14.460938 1.523438 14.992188 C 1.539062 15.472656 1.558594 15.953125 1.585938 16.429688 C 1.421875 15.351562 1.25 14.277344 1.066406 13.203125 C 1.074219 13.183594 1.085938 13.160156 1.09375 13.140625 C 1.234375 13.179688 1.332031 13.269531 1.378906 13.40625 Z M 2.078125 20.992188 C 2.128906 21.238281 2.171875 21.484375 2.195312 21.734375 C 2.199219 21.914062 2.214844 22.089844 2.246094 22.261719 C 2.332031 23.214844 2.417969 24.167969 2.507812 25.121094 C 2.425781 24.710938 2.335938 24.304688 2.230469 23.894531 C 2.121094 23.425781 2.0625 22.949219 2.050781 22.46875 C 2.074219 21.976562 2.082031 21.484375 2.078125 20.992188 Z M 2.554688 25.695312 C 2.632812 26.355469 2.699219 27.019531 2.75 27.6875 C 2.746094 28.105469 2.753906 28.519531 2.773438 28.9375 C 2.769531 29.167969 2.757812 29.402344 2.738281 29.632812 C 2.671875 29.28125 2.625 28.929688 2.59375 28.578125 C 2.558594 27.617188 2.546875 26.65625 2.554688 25.695312 Z M 3.011719 30.207031 C 3.023438 30.410156 3.039062 30.609375 3.058594 30.808594 C 3.023438 30.734375 3.003906 30.65625 3 30.570312 C 2.980469 30.445312 2.984375 30.324219 3.011719 30.207031 Z M 19.816406 43.601562 C 19.402344 43.828125 18.960938 43.988281 18.496094 44.082031 C 18.929688 43.914062 19.371094 43.753906 19.816406 43.601562 Z M 19.816406 43.601562 "/>
</g>
<mask id="mask1">
  <g filter="url(#alpha)">
<rect x="0" y="0" width="50" height="50" style="fill:rgb(0%,0%,0%);fill-opacity:0.847059;stroke:none;"/>
  </g>
</mask>
<clipPath id="clip2">
  <rect width="50" height="50"/>
</clipPath>
<g id="surface9" clip-path="url(#clip2)">
<path style=" stroke:none;fill-rule:evenodd;fill:rgb(89.019608%,87.45098%,85.098039%);fill-opacity:1;" d="M 28.074219 8.339844 C 27.992188 8.40625 27.90625 8.457031 27.808594 8.496094 C 27.59375 8.5 27.375 8.496094 27.160156 8.484375 C 27.460938 8.429688 27.765625 8.382812 28.074219 8.339844 Z M 28.074219 8.339844 "/>
</g>
<mask id="mask2">
  <g filter="url(#alpha)">
<rect x="0" y="0" width="50" height="50" style="fill:rgb(0%,0%,0%);fill-opacity:0.847059;stroke:none;"/>
  </g>
</mask>
<clipPath id="clip3">
  <rect width="50" height="50"/>
</clipPath>
<g id="surface12" clip-path="url(#clip3)">
<path style=" stroke:none;fill-rule:evenodd;fill:rgb(85.882353%,84.313725%,81.960784%);fill-opacity:1;" d="M 26.632812 8.535156 C 26.6875 8.53125 26.746094 8.535156 26.800781 8.546875 C 26.222656 8.691406 25.640625 8.769531 25.046875 8.785156 C 25.410156 8.726562 25.769531 8.664062 26.128906 8.605469 C 26.191406 8.613281 26.246094 8.605469 26.296875 8.582031 C 26.359375 8.589844 26.414062 8.582031 26.464844 8.558594 C 26.527344 8.566406 26.582031 8.554688 26.632812 8.535156 Z M 26.632812 8.535156 "/>
</g>
<mask id="mask3">
  <g filter="url(#alpha)">
<rect x="0" y="0" width="50" height="50" style="fill:rgb(0%,0%,0%);fill-opacity:0.827451;stroke:none;"/>
  </g>
</mask>
<clipPath id="clip4">
  <rect width="50" height="50"/>
</clipPath>
<g id="surface15" clip-path="url(#clip4)">
<path style=" stroke:none;fill-rule:evenodd;fill:rgb(65.490196%,64.705882%,62.745098%);fill-opacity:1;" d="M 16.09375 10.023438 C 15.996094 10.058594 15.894531 10.074219 15.78125 10.070312 C 15.882812 10.039062 15.984375 10.023438 16.09375 10.023438 Z M 16.09375 10.023438 "/>
</g>
<mask id="mask4">
  <g filter="url(#alpha)">
<rect x="0" y="0" width="50" height="50" style="fill:rgb(0%,0%,0%);fill-opacity:0.482353;stroke:none;"/>
  </g>
</mask>
<clipPath id="clip5">
  <rect width="50" height="50"/>
</clipPath>
<g id="surface18" clip-path="url(#clip5)">
<path style=" stroke:none;fill-rule:evenodd;fill:rgb(83.137255%,81.960784%,79.607843%);fill-opacity:1;" d="M 15.421875 10.117188 C 15.003906 10.195312 14.578125 10.257812 14.148438 10.308594 C 14.117188 10.308594 14.085938 10.308594 14.054688 10.308594 C 14.503906 10.234375 14.960938 10.167969 15.421875 10.117188 Z M 15.421875 10.117188 "/>
</g>
<mask id="mask5">
  <g filter="url(#alpha)">
<rect x="0" y="0" width="50" height="50" style="fill:rgb(0%,0%,0%);fill-opacity:0.572549;stroke:none;"/>
  </g>
</mask>
<clipPath id="clip6">
  <rect width="50" height="50"/>
</clipPath>
<g id="surface21" clip-path="url(#clip6)">
<path style=" stroke:none;fill-rule:evenodd;fill:rgb(92.156863%,90.588235%,88.235294%);fill-opacity:1;" d="M 1.402344 12.0625 C 1.363281 12.097656 1.316406 12.121094 1.261719 12.132812 C 1.285156 12.074219 1.335938 12.050781 1.402344 12.0625 Z M 1.402344 12.0625 "/>
</g>
<mask id="mask6">
  <g filter="url(#alpha)">
<rect x="0" y="0" width="50" height="50" style="fill:rgb(0%,0%,0%);fill-opacity:0.709804;stroke:none;"/>
  </g>
</mask>
<clipPath id="clip7">
  <rect width="50" height="50"/>
</clipPath>
<g id="surface24" clip-path="url(#clip7)">
<path style=" stroke:none;fill-rule:evenodd;fill:rgb(83.529412%,81.960784%,79.607843%);fill-opacity:1;" d="M 28.886719 12.757812 C 28.925781 13.183594 28.96875 13.605469 29.007812 14.03125 C 28.902344 13.609375 28.863281 13.1875 28.886719 12.757812 Z M 28.886719 12.757812 "/>
</g>
<mask id="mask7">
  <g filter="url(#alpha)">
<rect x="0" y="0" width="50" height="50" style="fill:rgb(0%,0%,0%);fill-opacity:0.8;stroke:none;"/>
  </g>
</mask>
<clipPath id="clip8">
  <rect width="50" height="50"/>
</clipPath>
<g id="surface27" clip-path="url(#clip8)">
<path style=" stroke:none;fill-rule:evenodd;fill:rgb(83.921569%,82.745098%,80.392157%);fill-opacity:1;" d="M 1.378906 13.40625 C 1.394531 13.410156 1.40625 13.417969 1.417969 13.429688 C 1.542969 13.945312 1.578125 14.46875 1.523438 14.992188 C 1.484375 14.460938 1.433594 13.933594 1.378906 13.40625 Z M 1.378906 13.40625 "/>
</g>
<mask id="mask8">
  <g filter="url(#alpha)">
<rect x="0" y="0" width="50" height="50" style="fill:rgb(0%,0%,0%);fill-opacity:0.964706;stroke:none;"/>
  </g>
</mask>
<clipPath id="clip9">
  <rect width="50" height="50"/>
</clipPath>
<g id="surface30" clip-path="url(#clip9)">
<path style=" stroke:none;fill-rule:evenodd;fill:rgb(9.019608%,9.019608%,8.627451%);fill-opacity:1;" d="M 41.800781 24.015625 C 42.738281 23.996094 43.675781 23.992188 44.609375 24.003906 C 45.132812 24.050781 45.648438 24.148438 46.148438 24.304688 C 46.75 24.453125 47.296875 24.71875 47.78125 25.097656 C 47.789062 25.128906 47.816406 25.144531 47.851562 25.144531 C 48.035156 25.296875 48.230469 25.441406 48.429688 25.574219 C 48.738281 25.792969 48.972656 26.074219 49.136719 26.417969 C 49.253906 26.730469 49.355469 27.050781 49.449219 27.375 C 49.496094 27.632812 49.503906 27.890625 49.472656 28.144531 C 49.34375 28.554688 49.242188 28.972656 49.160156 29.394531 C 49.109375 29.511719 49.042969 29.625 48.96875 29.730469 C 48.777344 30.433594 48.316406 30.828125 47.585938 30.90625 C 47.484375 30.917969 47.378906 30.929688 47.277344 30.941406 C 46.710938 30.945312 46.152344 30.957031 45.59375 30.976562 C 45.074219 31.011719 44.554688 31.007812 44.035156 30.964844 C 43.472656 30.894531 42.953125 30.710938 42.476562 30.414062 C 41.796875 30.023438 41.125 29.625 40.457031 29.226562 C 40.027344 28.941406 39.671875 28.582031 39.390625 28.144531 C 39.148438 27.648438 38.992188 27.128906 38.921875 26.585938 C 38.890625 26.144531 38.9375 25.71875 39.066406 25.300781 C 38.886719 25.28125 38.710938 25.296875 38.539062 25.347656 C 38.382812 25.429688 38.230469 25.519531 38.082031 25.613281 C 37.695312 25.816406 37.289062 25.875 36.859375 25.78125 C 36.496094 25.746094 36.152344 25.652344 35.824219 25.492188 C 35.652344 25.390625 35.519531 25.25 35.429688 25.070312 C 35.414062 25.015625 35.414062 24.960938 35.429688 24.902344 C 35.488281 24.769531 35.5625 24.640625 35.644531 24.519531 C 35.808594 24.355469 35.972656 24.191406 36.136719 24.027344 C 36.640625 23.75 37.167969 23.535156 37.722656 23.378906 C 37.902344 23.335938 38.085938 23.304688 38.273438 23.285156 C 38.746094 23.277344 39.21875 23.277344 39.691406 23.285156 C 40.148438 23.171875 40.542969 22.953125 40.878906 22.625 C 40.960938 22.519531 41.03125 22.40625 41.09375 22.289062 C 41.074219 21.445312 40.65625 20.921875 39.835938 20.714844 C 39.441406 20.644531 39.046875 20.617188 38.644531 20.632812 C 38.410156 20.636719 38.175781 20.640625 37.9375 20.644531 C 37.816406 20.664062 37.695312 20.695312 37.578125 20.738281 C 37.308594 20.878906 37.046875 21.019531 36.785156 21.171875 C 36.578125 21.40625 36.347656 21.613281 36.089844 21.796875 C 35.644531 22.070312 35.1875 22.324219 34.722656 22.5625 C 34.0625 23.054688 33.355469 23.480469 32.609375 23.835938 C 32.492188 23.886719 32.371094 23.925781 32.25 23.957031 C 31.945312 23.992188 31.640625 24.03125 31.335938 24.074219 C 31.101562 24.167969 30.859375 24.25 30.617188 24.316406 C 30.472656 24.332031 30.328125 24.328125 30.183594 24.304688 C 30.183594 24.289062 30.175781 24.28125 30.160156 24.28125 C 30.085938 24.25 30.042969 24.195312 30.039062 24.113281 C 30.0625 24.042969 30.09375 23.976562 30.136719 23.917969 C 30.335938 23.796875 30.550781 23.710938 30.785156 23.667969 C 31.226562 23.628906 31.667969 23.578125 32.105469 23.523438 C 32.660156 23.359375 33.191406 23.125 33.6875 22.828125 C 34.34375 22.410156 35.019531 22.019531 35.707031 21.652344 C 35.988281 21.410156 36.273438 21.179688 36.570312 20.957031 C 37.363281 20.011719 38.371094 19.652344 39.59375 19.875 C 40.242188 20.011719 40.773438 20.335938 41.191406 20.847656 C 41.390625 21.132812 41.496094 21.449219 41.515625 21.796875 C 41.46875 22.097656 41.40625 22.398438 41.335938 22.695312 C 41.1875 23.121094 40.894531 23.390625 40.457031 23.5 C 39.542969 23.660156 38.621094 23.796875 37.699219 23.90625 C 37.316406 23.976562 36.941406 24.066406 36.570312 24.171875 C 36.101562 24.382812 36.058594 24.660156 36.449219 25.011719 C 36.839844 25.277344 37.261719 25.347656 37.722656 25.226562 C 38.027344 25.15625 38.328125 25.085938 38.632812 25.011719 C 38.800781 25.003906 38.96875 24.996094 39.136719 24.988281 C 39.171875 24.914062 39.199219 24.839844 39.222656 24.761719 C 39.332031 24.683594 39.425781 24.699219 39.5 24.808594 C 39.601562 24.851562 39.699219 24.90625 39.785156 24.976562 C 39.714844 24.460938 39.929688 24.144531 40.433594 24.027344 C 40.890625 23.960938 41.34375 23.957031 41.800781 24.015625 Z M 40.578125 20.679688 C 40.230469 20.5 39.863281 20.394531 39.472656 20.355469 C 38.929688 20.3125 38.386719 20.308594 37.84375 20.34375 C 38.738281 19.976562 39.601562 20.042969 40.433594 20.546875 C 40.488281 20.585938 40.535156 20.628906 40.578125 20.679688 Z M 40.578125 20.679688 C 40.613281 20.675781 40.640625 20.695312 40.652344 20.726562 C 40.613281 20.730469 40.589844 20.714844 40.578125 20.679688 Z M 40.699219 24.28125 C 40.753906 24.277344 40.8125 24.28125 40.867188 24.292969 C 40.59375 24.421875 40.339844 24.585938 40.109375 24.785156 C 40.078125 24.535156 40.183594 24.386719 40.433594 24.339844 C 40.527344 24.320312 40.613281 24.300781 40.699219 24.28125 Z M 40.9375 24.617188 C 40.855469 24.710938 40.765625 24.804688 40.675781 24.890625 C 40.511719 24.988281 40.359375 25.097656 40.21875 25.214844 C 40.199219 25.210938 40.183594 25.199219 40.171875 25.179688 C 40.382812 24.933594 40.636719 24.742188 40.9375 24.617188 Z M 35.898438 24.710938 C 35.996094 25.023438 36.195312 25.25 36.496094 25.394531 C 36.214844 25.359375 35.972656 25.246094 35.765625 25.046875 C 35.753906 25.023438 35.742188 25 35.730469 24.976562 C 35.777344 24.882812 35.832031 24.792969 35.898438 24.710938 Z M 39.59375 25.265625 C 39.707031 25.296875 39.71875 25.351562 39.628906 25.433594 C 39.613281 25.375 39.601562 25.320312 39.59375 25.265625 Z M 39.449219 25.914062 C 39.363281 25.984375 39.28125 26.066406 39.210938 26.152344 C 39.226562 25.933594 39.261719 25.71875 39.316406 25.503906 C 39.367188 25.640625 39.410156 25.777344 39.449219 25.914062 Z M 48.8125 26.609375 C 48.859375 26.65625 48.894531 26.710938 48.917969 26.777344 C 49.035156 27.378906 49.066406 27.988281 49.015625 28.601562 C 48.898438 28.914062 48.792969 29.234375 48.703125 29.5625 C 48.636719 29.671875 48.542969 29.75 48.429688 29.800781 C 48.789062 28.765625 48.917969 27.699219 48.8125 26.609375 Z M 48.378906 30.207031 C 48.320312 30.300781 48.242188 30.363281 48.140625 30.402344 C 48.164062 30.351562 48.1875 30.304688 48.210938 30.257812 C 48.265625 30.234375 48.320312 30.21875 48.378906 30.207031 Z M 43.027344 30.234375 C 43.253906 30.308594 43.480469 30.386719 43.699219 30.472656 C 43.527344 30.449219 43.359375 30.40625 43.195312 30.339844 C 43.128906 30.316406 43.074219 30.28125 43.027344 30.234375 Z M 43.027344 30.234375 "/>
</g>
<mask id="mask9">
  <g filter="url(#alpha)">
<rect x="0" y="0" width="50" height="50" style="fill:rgb(0%,0%,0%);fill-opacity:0.819608;stroke:none;"/>
  </g>
</mask>
<clipPath id="clip10">
  <rect width="50" height="50"/>
</clipPath>
<g id="surface33" clip-path="url(#clip10)">
<path style=" stroke:none;fill-rule:evenodd;fill:rgb(58.823529%,57.647059%,56.078431%);fill-opacity:1;" d="M 2.195312 21.734375 C 2.226562 21.90625 2.25 22.082031 2.269531 22.261719 C 2.261719 22.261719 2.253906 22.261719 2.246094 22.261719 C 2.214844 22.089844 2.199219 21.914062 2.195312 21.734375 Z M 2.195312 21.734375 "/>
</g>
<mask id="mask10">
  <g filter="url(#alpha)">
<rect x="0" y="0" width="50" height="50" style="fill:rgb(0%,0%,0%);fill-opacity:0.901961;stroke:none;"/>
  </g>
</mask>
<clipPath id="clip11">
  <rect width="50" height="50"/>
</clipPath>
<g id="surface36" clip-path="url(#clip11)">
<path style=" stroke:none;fill-rule:evenodd;fill:rgb(90.980392%,89.411765%,86.666667%);fill-opacity:1;" d="M 29.898438 21.953125 C 29.976562 22.605469 30.058594 23.261719 30.136719 23.917969 C 30.09375 23.976562 30.0625 24.042969 30.039062 24.113281 C 30.042969 24.195312 30.085938 24.25 30.160156 24.28125 C 30.175781 24.28125 30.183594 24.289062 30.183594 24.304688 C 30.179688 24.34375 30.1875 24.378906 30.207031 24.410156 C 30.34375 24.484375 30.46875 24.558594 30.59375 24.640625 C 30.382812 24.574219 30.175781 24.507812 29.96875 24.4375 C 29.941406 24.417969 29.925781 24.394531 29.921875 24.363281 C 29.9375 24.148438 29.945312 23.933594 29.945312 23.714844 C 29.921875 23.128906 29.90625 22.539062 29.898438 21.953125 Z M 29.898438 21.953125 "/>
</g>
<mask id="mask11">
  <g filter="url(#alpha)">
<rect x="0" y="0" width="50" height="50" style="fill:rgb(0%,0%,0%);fill-opacity:0.870588;stroke:none;"/>
  </g>
</mask>
<clipPath id="clip12">
  <rect width="50" height="50"/>
</clipPath>
<g id="surface39" clip-path="url(#clip12)">
<path style=" stroke:none;fill-rule:evenodd;fill:rgb(88.627451%,87.058824%,84.313725%);fill-opacity:1;" d="M 2.246094 22.261719 C 2.253906 22.261719 2.261719 22.261719 2.269531 22.261719 C 2.339844 22.664062 2.40625 23.0625 2.472656 23.464844 C 2.511719 23.960938 2.542969 24.457031 2.570312 24.953125 C 2.628906 25.375 2.695312 25.800781 2.761719 26.222656 C 2.78125 26.714844 2.777344 27.203125 2.75 27.6875 C 2.699219 27.019531 2.632812 26.355469 2.554688 25.695312 C 2.5625 25.609375 2.554688 25.53125 2.53125 25.457031 C 2.539062 25.371094 2.53125 25.289062 2.507812 25.214844 C 2.507812 25.183594 2.507812 25.152344 2.507812 25.121094 C 2.417969 24.167969 2.332031 23.214844 2.246094 22.261719 Z M 2.246094 22.261719 "/>
</g>
<mask id="mask12">
  <g filter="url(#alpha)">
<rect x="0" y="0" width="50" height="50" style="fill:rgb(0%,0%,0%);fill-opacity:0.952941;stroke:none;"/>
  </g>
</mask>
<clipPath id="clip13">
  <rect width="50" height="50"/>
</clipPath>
<g id="surface42" clip-path="url(#clip13)">
<path style=" stroke:none;fill-rule:evenodd;fill:rgb(93.333333%,91.764706%,89.411765%);fill-opacity:1;" d="M 46.148438 24.304688 C 45.648438 24.148438 45.132812 24.050781 44.609375 24.003906 C 43.675781 23.992188 42.738281 23.996094 41.800781 24.015625 C 42.53125 23.601562 43.308594 23.476562 44.132812 23.644531 C 44.828125 23.796875 45.5 24.015625 46.148438 24.304688 Z M 46.148438 24.304688 "/>
</g>
<mask id="mask13">
  <g filter="url(#alpha)">
<rect x="0" y="0" width="50" height="50" style="fill:rgb(0%,0%,0%);fill-opacity:0.996078;stroke:none;"/>
  </g>
</mask>
<clipPath id="clip14">
  <rect width="50" height="50"/>
</clipPath>
<g id="surface45" clip-path="url(#clip14)">
<path style=" stroke:none;fill-rule:evenodd;fill:rgb(94.117647%,92.54902%,89.803922%);fill-opacity:1;" d="M 40.289062 25.289062 C 40.261719 25.269531 40.238281 25.246094 40.21875 25.214844 C 40.359375 25.097656 40.511719 24.988281 40.675781 24.890625 C 40.765625 24.804688 40.855469 24.710938 40.9375 24.617188 C 40.953125 24.617188 40.960938 24.609375 40.960938 24.59375 C 41.234375 24.453125 41.523438 24.363281 41.828125 24.316406 C 43.144531 24.257812 44.433594 24.421875 45.691406 24.808594 C 45.175781 24.996094 44.726562 25.289062 44.347656 25.683594 C 44.214844 25.730469 44.097656 25.792969 43.988281 25.875 C 43.84375 26.019531 43.699219 26.164062 43.554688 26.308594 C 43.394531 26.410156 43.21875 26.441406 43.027344 26.402344 C 42.898438 26.371094 42.769531 26.328125 42.644531 26.285156 C 42.199219 26.066406 41.757812 25.84375 41.324219 25.613281 C 40.984375 25.488281 40.640625 25.378906 40.289062 25.289062 Z M 40.289062 25.289062 "/>
</g>
<mask id="mask14">
  <g filter="url(#alpha)">
<rect x="0" y="0" width="50" height="50" style="fill:rgb(0%,0%,0%);fill-opacity:0.996078;stroke:none;"/>
  </g>
</mask>
<clipPath id="clip15">
  <rect width="50" height="50"/>
</clipPath>
<g id="surface48" clip-path="url(#clip15)">
<path style=" stroke:none;fill-rule:evenodd;fill:rgb(94.509804%,92.941176%,90.196078%);fill-opacity:1;" d="M 48.8125 26.609375 C 48.917969 27.699219 48.789062 28.765625 48.429688 29.800781 C 48.390625 29.867188 48.335938 29.910156 48.257812 29.933594 C 48.082031 30.007812 47.898438 30.0625 47.707031 30.101562 C 46.914062 30.226562 46.121094 30.355469 45.332031 30.484375 C 44.785156 30.535156 44.242188 30.53125 43.699219 30.472656 C 43.480469 30.386719 43.253906 30.308594 43.027344 30.234375 C 43.019531 30.234375 43.011719 30.234375 43.003906 30.234375 C 42.710938 30.089844 42.453125 29.894531 42.234375 29.644531 C 42.382812 29.539062 42.507812 29.40625 42.605469 29.25 C 42.859375 28.660156 43.125 28.078125 43.398438 27.496094 C 43.707031 26.910156 44.085938 26.378906 44.539062 25.898438 C 44.6875 25.847656 44.832031 25.785156 44.972656 25.707031 C 45.195312 25.539062 45.417969 25.371094 45.644531 25.203125 C 45.761719 25.128906 45.890625 25.082031 46.027344 25.058594 C 46.210938 25.042969 46.394531 25.042969 46.578125 25.058594 C 46.917969 25.179688 47.253906 25.304688 47.585938 25.445312 C 48.074219 25.6875 48.46875 26.039062 48.777344 26.488281 C 48.789062 26.527344 48.800781 26.566406 48.8125 26.609375 Z M 48.8125 26.609375 "/>
</g>
<mask id="mask15">
  <g filter="url(#alpha)">
<rect x="0" y="0" width="50" height="50" style="fill:rgb(0%,0%,0%);fill-opacity:0.0627451;stroke:none;"/>
  </g>
</mask>
<clipPath id="clip16">
  <rect width="50" height="50"/>
</clipPath>
<g id="surface51" clip-path="url(#clip16)">
<path style=" stroke:none;fill-rule:evenodd;fill:rgb(78.823529%,77.647059%,75.294118%);fill-opacity:1;" d="M 47.78125 25.097656 C 47.816406 25.09375 47.839844 25.109375 47.851562 25.144531 C 47.816406 25.144531 47.789062 25.128906 47.78125 25.097656 Z M 47.78125 25.097656 "/>
</g>
<mask id="mask16">
  <g filter="url(#alpha)">
<rect x="0" y="0" width="50" height="50" style="fill:rgb(0%,0%,0%);fill-opacity:0.639216;stroke:none;"/>
  </g>
</mask>
<clipPath id="clip17">
  <rect width="50" height="50"/>
</clipPath>
<g id="surface54" clip-path="url(#clip17)">
<path style=" stroke:none;fill-rule:evenodd;fill:rgb(87.843137%,86.666667%,83.921569%);fill-opacity:1;" d="M 47.851562 25.144531 C 47.980469 25.214844 48.109375 25.289062 48.234375 25.371094 C 48.320312 25.421875 48.386719 25.488281 48.429688 25.574219 C 48.230469 25.441406 48.035156 25.296875 47.851562 25.144531 Z M 47.851562 25.144531 "/>
</g>
<mask id="mask17">
  <g filter="url(#alpha)">
<rect x="0" y="0" width="50" height="50" style="fill:rgb(0%,0%,0%);fill-opacity:0.996078;stroke:none;"/>
  </g>
</mask>
<clipPath id="clip18">
  <rect width="50" height="50"/>
</clipPath>
<g id="surface57" clip-path="url(#clip18)">
<path style=" stroke:none;fill-rule:evenodd;fill:rgb(92.941176%,91.372549%,88.627451%);fill-opacity:1;" d="M 39.449219 25.914062 C 39.449219 26.28125 39.496094 26.648438 39.582031 27.015625 C 39.632812 27.140625 39.6875 27.257812 39.75 27.375 C 39.980469 27.679688 40.222656 27.976562 40.46875 28.265625 C 40.726562 28.65625 41.011719 29.027344 41.324219 29.378906 C 40.679688 29.097656 40.140625 28.675781 39.703125 28.121094 C 39.355469 27.511719 39.191406 26.855469 39.210938 26.152344 C 39.28125 26.066406 39.363281 25.984375 39.449219 25.914062 Z M 39.449219 25.914062 "/>
</g>
<mask id="mask18">
  <g filter="url(#alpha)">
<rect x="0" y="0" width="50" height="50" style="fill:rgb(0%,0%,0%);fill-opacity:0.956863;stroke:none;"/>
  </g>
</mask>
<clipPath id="clip19">
  <rect width="50" height="50"/>
</clipPath>
<g id="surface60" clip-path="url(#clip19)">
<path style=" stroke:none;fill-rule:evenodd;fill:rgb(93.333333%,91.764706%,89.411765%);fill-opacity:1;" d="M 38.921875 26.585938 C 38.992188 27.128906 39.148438 27.648438 39.390625 28.144531 C 39.671875 28.582031 40.027344 28.941406 40.457031 29.226562 C 40.03125 29.074219 39.640625 28.863281 39.28125 28.589844 C 38.617188 28.019531 38.496094 27.351562 38.921875 26.585938 Z M 38.921875 26.585938 "/>
</g>
<mask id="mask19">
  <g filter="url(#alpha)">
<rect x="0" y="0" width="50" height="50" style="fill:rgb(0%,0%,0%);fill-opacity:0.992157;stroke:none;"/>
  </g>
</mask>
<clipPath id="clip20">
  <rect width="50" height="50"/>
</clipPath>
<g id="surface63" clip-path="url(#clip20)">
<path style=" stroke:none;fill-rule:evenodd;fill:rgb(90.980392%,89.411765%,87.058824%);fill-opacity:1;" d="M 48.210938 30.257812 C 48.1875 30.304688 48.164062 30.351562 48.140625 30.402344 C 48.054688 30.480469 47.949219 30.535156 47.828125 30.558594 C 47.609375 30.621094 47.382812 30.660156 47.15625 30.664062 C 46.816406 30.671875 46.480469 30.664062 46.148438 30.640625 C 46.835938 30.515625 47.523438 30.386719 48.210938 30.257812 Z M 48.210938 30.257812 "/>
</g>
<mask id="mask20">
  <g filter="url(#alpha)">
<rect x="0" y="0" width="50" height="50" style="fill:rgb(0%,0%,0%);fill-opacity:0.878431;stroke:none;"/>
  </g>
</mask>
<clipPath id="clip21">
  <rect width="50" height="50"/>
</clipPath>
<g id="surface66" clip-path="url(#clip21)">
<path style=" stroke:none;fill-rule:evenodd;fill:rgb(90.196078%,89.019608%,86.27451%);fill-opacity:1;" d="M 47.585938 30.90625 C 47.417969 30.996094 47.234375 31.050781 47.035156 31.0625 C 46.550781 31.089844 46.070312 31.0625 45.59375 30.976562 C 46.152344 30.957031 46.710938 30.945312 47.277344 30.941406 C 47.378906 30.929688 47.484375 30.917969 47.585938 30.90625 Z M 47.585938 30.90625 "/>
</g>
<mask id="mask21">
  <g filter="url(#alpha)">
<rect x="0" y="0" width="50" height="50" style="fill:rgb(0%,0%,0%);fill-opacity:0.803922;stroke:none;"/>
  </g>
</mask>
<clipPath id="clip22">
  <rect width="50" height="50"/>
</clipPath>
<g id="surface69" clip-path="url(#clip22)">
<path style=" stroke:none;fill-rule:evenodd;fill:rgb(89.803922%,88.627451%,85.882353%);fill-opacity:1;" d="M 2.941406 31.839844 C 2.984375 31.957031 3.023438 32.078125 3.058594 32.199219 C 3.097656 32.230469 3.136719 32.253906 3.179688 32.273438 C 3.304688 32.492188 3.441406 32.699219 3.589844 32.898438 C 3.359375 32.652344 3.132812 32.402344 2.90625 32.152344 C 2.90625 32.050781 2.917969 31.945312 2.941406 31.839844 Z M 2.941406 31.839844 "/>
</g>
<mask id="mask22">
  <g filter="url(#alpha)">
<rect x="0" y="0" width="50" height="50" style="fill:rgb(0%,0%,0%);fill-opacity:0.0627451;stroke:none;"/>
  </g>
</mask>
<clipPath id="clip23">
  <rect width="50" height="50"/>
</clipPath>
<g id="surface72" clip-path="url(#clip23)">
<path style=" stroke:none;fill-rule:evenodd;fill:rgb(74.901961%,73.72549%,71.372549%);fill-opacity:1;" d="M 3.589844 32.898438 C 3.644531 32.929688 3.683594 32.976562 3.707031 33.042969 C 3.652344 33.007812 3.609375 32.960938 3.589844 32.898438 Z M 3.589844 32.898438 "/>
</g>
<mask id="mask23">
  <g filter="url(#alpha)">
<rect x="0" y="0" width="50" height="50" style="fill:rgb(0%,0%,0%);fill-opacity:0.0627451;stroke:none;"/>
  </g>
</mask>
<clipPath id="clip24">
  <rect width="50" height="50"/>
</clipPath>
<g id="surface75" clip-path="url(#clip24)">
<path style=" stroke:none;fill-rule:evenodd;fill:rgb(76.078431%,74.901961%,72.941176%);fill-opacity:1;" d="M 3.78125 33.113281 C 3.839844 33.148438 3.878906 33.195312 3.902344 33.257812 C 3.84375 33.222656 3.800781 33.175781 3.78125 33.113281 Z M 3.78125 33.113281 "/>
</g>
<mask id="mask24">
  <g filter="url(#alpha)">
<rect x="0" y="0" width="50" height="50" style="fill:rgb(0%,0%,0%);fill-opacity:0.968627;stroke:none;"/>
  </g>
</mask>
<clipPath id="clip25">
  <rect width="50" height="50"/>
</clipPath>
<g id="surface78" clip-path="url(#clip25)">
<path style=" stroke:none;fill-rule:evenodd;fill:rgb(93.72549%,92.156863%,89.411765%);fill-opacity:1;" d="M 37.171875 34.746094 C 32.800781 37.074219 28.425781 39.390625 24.039062 41.695312 C 23.523438 41.960938 23.003906 42.210938 22.480469 42.449219 C 22.921875 42.125 23.351562 41.785156 23.777344 41.429688 C 24.390625 40.984375 25.046875 40.601562 25.742188 40.277344 C 26.347656 40.019531 26.945312 39.757812 27.542969 39.484375 C 29.054688 38.746094 30.496094 37.898438 31.863281 36.941406 C 33.503906 35.90625 35.273438 35.175781 37.171875 34.746094 Z M 37.171875 34.746094 "/>
</g>
<mask id="mask25">
  <g filter="url(#alpha)">
<rect x="0" y="0" width="50" height="50" style="fill:rgb(0%,0%,0%);fill-opacity:0.933333;stroke:none;"/>
  </g>
</mask>
<clipPath id="clip26">
  <rect width="50" height="50"/>
</clipPath>
<g id="surface81" clip-path="url(#clip26)">
<path style=" stroke:none;fill-rule:evenodd;fill:rgb(92.941176%,91.372549%,88.627451%);fill-opacity:1;" d="M 3.949219 33.304688 C 4.71875 34.054688 5.457031 34.828125 6.167969 35.632812 C 6.484375 36.027344 6.777344 36.4375 7.058594 36.859375 C 7.144531 36.960938 7.234375 37.066406 7.320312 37.171875 C 7.800781 37.601562 8.265625 38.046875 8.714844 38.515625 C 9.066406 38.996094 9.441406 39.460938 9.839844 39.90625 C 10.628906 40.734375 11.425781 41.554688 12.230469 42.367188 C 12.558594 42.65625 12.894531 42.9375 13.238281 43.207031 C 13.75 43.558594 14.277344 43.886719 14.824219 44.191406 C 15.085938 44.402344 15.339844 44.613281 15.589844 44.828125 C 15.308594 44.859375 15.046875 44.804688 14.796875 44.671875 C 14.417969 44.402344 14.046875 44.113281 13.695312 43.808594 C 12.570312 42.765625 11.480469 41.6875 10.417969 40.578125 C 8.175781 38.222656 6.019531 35.796875 3.949219 33.304688 Z M 3.949219 33.304688 "/>
</g>
<mask id="mask26">
  <g filter="url(#alpha)">
<rect x="0" y="0" width="50" height="50" style="fill:rgb(0%,0%,0%);fill-opacity:0.945098;stroke:none;"/>
  </g>
</mask>
<clipPath id="clip27">
  <rect width="50" height="50"/>
</clipPath>
<g id="surface84" clip-path="url(#clip27)">
<path style=" stroke:none;fill-rule:evenodd;fill:rgb(91.372549%,89.803922%,87.058824%);fill-opacity:1;" d="M 19.984375 43.53125 C 19.960938 43.527344 19.945312 43.535156 19.933594 43.554688 C 19.902344 43.550781 19.878906 43.558594 19.863281 43.578125 C 19.839844 43.574219 19.824219 43.582031 19.816406 43.601562 C 19.371094 43.753906 18.929688 43.914062 18.496094 44.082031 C 18.464844 44.078125 18.441406 44.085938 18.421875 44.105469 C 18.390625 44.101562 18.367188 44.109375 18.351562 44.132812 C 18.160156 44.179688 17.96875 44.214844 17.773438 44.238281 C 18.082031 44.054688 18.402344 43.894531 18.734375 43.757812 C 19.371094 43.558594 20.003906 43.347656 20.632812 43.121094 C 20.660156 43.132812 20.660156 43.144531 20.632812 43.160156 C 20.414062 43.285156 20.195312 43.40625 19.984375 43.53125 Z M 19.984375 43.53125 "/>
</g>
</defs>
<g id="surface1">
<use xlink:href="#surface6" mask="url(#mask0)"/>
<use xlink:href="#surface9" mask="url(#mask1)"/>
<path style=" stroke:none;fill-rule:evenodd;fill:rgb(94.117647%,92.54902%,89.803922%);fill-opacity:1;" d="M 28.410156 8.507812 C 28.402344 8.578125 28.410156 8.644531 28.433594 8.703125 C 28.394531 9.363281 28.378906 10.027344 28.398438 10.695312 C 28.4375 11.3125 28.5 11.929688 28.589844 12.542969 C 28.566406 13.183594 28.640625 13.816406 28.804688 14.4375 C 29.105469 15.300781 29.28125 16.1875 29.332031 17.101562 C 29.359375 17.960938 29.371094 18.824219 29.367188 19.683594 C 29.359375 21 29.355469 22.316406 29.355469 23.632812 C 29.386719 23.996094 29.460938 24.347656 29.585938 24.6875 C 29.476562 24.710938 29.375 24.699219 29.273438 24.652344 C 29.167969 24.648438 29.066406 24.644531 28.960938 24.640625 C 28.3125 24.679688 27.671875 24.78125 27.039062 24.941406 C 25.597656 25.265625 24.191406 25.699219 22.816406 26.234375 C 21.839844 26.546875 20.871094 26.875 19.910156 27.21875 C 19.007812 27.453125 18.09375 27.652344 17.175781 27.820312 C 16.21875 28.066406 15.289062 28.394531 14.390625 28.804688 C 13.15625 29.164062 11.925781 29.523438 10.695312 29.886719 C 10.667969 29.945312 10.636719 30.003906 10.597656 30.054688 C 9.953125 30.234375 9.316406 30.425781 8.675781 30.628906 C 8.515625 30.652344 8.355469 30.675781 8.199219 30.699219 C 7.835938 30.707031 7.476562 30.722656 7.117188 30.75 C 6.753906 30.839844 6.394531 30.9375 6.035156 31.035156 C 5.859375 31.058594 5.679688 31.074219 5.496094 31.074219 C 5.085938 31.058594 4.671875 31.042969 4.261719 31.023438 C 3.933594 31.050781 3.605469 31.0625 3.277344 31.0625 C 3.15625 31.015625 3.082031 30.929688 3.058594 30.808594 C 3.039062 30.609375 3.023438 30.410156 3.011719 30.207031 C 3.015625 29.914062 3.023438 29.617188 3.035156 29.320312 C 3.050781 29 3.070312 28.679688 3.085938 28.359375 C 3.195312 29.109375 3.253906 29.859375 3.265625 30.617188 C 3.339844 30.738281 3.425781 30.746094 3.527344 30.640625 C 3.542969 30.054688 3.511719 29.46875 3.433594 28.886719 C 3.300781 28.023438 3.171875 27.160156 3.046875 26.296875 C 3.070312 24.902344 2.957031 23.515625 2.710938 22.144531 C 2.53125 21.195312 2.339844 20.253906 2.136719 19.3125 C 2.105469 18.71875 2.0625 18.125 2.015625 17.535156 C 1.851562 16.332031 1.78125 15.125 1.800781 13.910156 C 1.789062 13.605469 1.703125 13.324219 1.535156 13.070312 C 1.464844 13.015625 1.394531 12.960938 1.332031 12.902344 C 1.324219 12.769531 1.308594 12.640625 1.285156 12.519531 C 1.34375 12.417969 1.429688 12.355469 1.546875 12.324219 C 1.542969 12.386719 1.550781 12.449219 1.570312 12.519531 C 1.601562 12.550781 1.636719 12.566406 1.679688 12.566406 C 1.972656 12.410156 2.273438 12.261719 2.582031 12.121094 C 3.101562 12.078125 3.625 12.015625 4.140625 11.929688 C 5.554688 11.621094 6.972656 11.339844 8.390625 11.078125 C 8.449219 11.085938 8.507812 11.078125 8.558594 11.054688 C 8.566406 11.054688 8.574219 11.054688 8.582031 11.054688 C 8.800781 11.035156 9.019531 11.003906 9.230469 10.957031 C 10.65625 10.925781 12.082031 10.832031 13.503906 10.683594 C 16.601562 10.242188 19.6875 9.746094 22.769531 9.195312 C 23.675781 9.113281 24.589844 9.0625 25.503906 9.050781 C 25.890625 8.992188 26.273438 8.933594 26.65625 8.871094 C 26.648438 8.976562 26.699219 9.039062 26.800781 9.0625 C 26.839844 9.054688 26.875 9.039062 26.910156 9.011719 C 26.953125 8.929688 27.003906 8.855469 27.0625 8.785156 C 27.304688 8.777344 27.542969 8.777344 27.785156 8.785156 C 27.980469 8.734375 28.15625 8.648438 28.3125 8.519531 C 28.34375 8.507812 28.375 8.503906 28.410156 8.507812 Z M 28.410156 8.507812 "/>
<use xlink:href="#surface12" mask="url(#mask2)"/>
<use xlink:href="#surface15" mask="url(#mask3)"/>
<use xlink:href="#surface18" mask="url(#mask4)"/>
<path style=" stroke:none;fill-rule:evenodd;fill:rgb(59.215686%,58.431373%,56.470588%);fill-opacity:1;" d="M 14.054688 10.308594 C 14.085938 10.308594 14.117188 10.308594 14.148438 10.308594 C 13.898438 10.355469 13.644531 10.390625 13.382812 10.40625 C 13.601562 10.359375 13.824219 10.328125 14.054688 10.308594 Z M 14.054688 10.308594 "/>
<path style=" stroke:none;fill-rule:evenodd;fill:rgb(9.411765%,9.803922%,9.411765%);fill-opacity:1;" d="M 26.488281 10.765625 C 26.566406 11.171875 26.667969 11.570312 26.789062 11.964844 C 26.835938 12.414062 26.882812 12.863281 26.933594 13.308594 C 27.128906 14.070312 27.289062 14.839844 27.414062 15.613281 C 27.4375 16.03125 27.460938 16.445312 27.484375 16.863281 C 27.648438 17.929688 27.710938 19 27.675781 20.078125 C 27.742188 20.515625 27.824219 20.945312 27.917969 21.375 C 27.972656 21.855469 27.988281 22.332031 27.964844 22.816406 C 27.945312 22.945312 27.914062 23.074219 27.878906 23.199219 C 27.726562 23.5 27.488281 23.703125 27.160156 23.8125 C 26.175781 24.15625 25.175781 24.445312 24.160156 24.675781 C 23.832031 24.765625 23.503906 24.863281 23.175781 24.964844 C 22.027344 25.363281 20.875 25.746094 19.71875 26.117188 C 18.628906 26.390625 17.539062 26.667969 16.453125 26.957031 C 16.148438 26.964844 15.847656 26.964844 15.542969 26.957031 C 15.34375 27.003906 15.144531 27.042969 14.941406 27.078125 C 14.738281 27.15625 14.539062 27.246094 14.34375 27.339844 C 14.136719 27.414062 13.929688 27.476562 13.71875 27.53125 C 12.777344 27.703125 11.832031 27.855469 10.886719 27.988281 C 9.621094 28.328125 8.347656 28.648438 7.070312 28.949219 C 6.921875 28.988281 6.777344 29.035156 6.636719 29.09375 C 6.460938 29.199219 6.277344 29.289062 6.085938 29.355469 C 5.949219 29.382812 5.824219 29.367188 5.699219 29.308594 C 5.640625 29.25 5.582031 29.1875 5.519531 29.128906 C 5.414062 28.964844 5.304688 28.804688 5.183594 28.648438 C 5.160156 28.503906 5.144531 28.363281 5.136719 28.214844 C 4.988281 27.695312 4.84375 27.175781 4.703125 26.65625 C 4.351562 25.058594 4.046875 23.449219 3.792969 21.832031 C 3.300781 19.734375 2.972656 17.617188 2.808594 15.46875 C 2.78125 14.949219 2.773438 14.429688 2.785156 13.910156 C 2.851562 13.855469 2.921875 13.847656 3 13.886719 C 3.027344 13.847656 3.054688 13.8125 3.085938 13.777344 C 3.269531 13.773438 3.453125 13.757812 3.636719 13.730469 C 3.949219 13.613281 4.269531 13.515625 4.597656 13.441406 C 5.203125 13.367188 5.8125 13.296875 6.421875 13.226562 C 7.316406 13.066406 8.214844 12.90625 9.109375 12.746094 C 9.90625 12.617188 10.703125 12.554688 11.511719 12.554688 C 11.742188 12.515625 11.976562 12.46875 12.207031 12.410156 C 12.671875 12.273438 13.136719 12.128906 13.597656 11.976562 C 14.023438 11.96875 14.449219 11.976562 14.871094 12 C 15.128906 11.96875 15.378906 11.898438 15.613281 11.785156 C 16.085938 11.660156 16.566406 11.621094 17.054688 11.664062 C 17.597656 11.726562 18.140625 11.734375 18.6875 11.691406 C 19.234375 11.582031 19.78125 11.453125 20.320312 11.304688 C 20.933594 11.164062 21.558594 11.101562 22.191406 11.113281 C 22.761719 11.035156 23.328125 10.945312 23.894531 10.851562 C 24.3125 10.839844 24.726562 10.832031 25.144531 10.824219 C 25.367188 10.730469 25.59375 10.632812 25.816406 10.539062 C 26.019531 10.484375 26.222656 10.5 26.417969 10.585938 C 26.453125 10.644531 26.476562 10.703125 26.488281 10.765625 Z M 26.488281 10.765625 "/>
<path style=" stroke:none;fill-rule:evenodd;fill:rgb(97.647059%,97.647059%,97.647059%);fill-opacity:1;" d="M 27.878906 23.199219 C 27.914062 23.074219 27.945312 22.945312 27.964844 22.816406 C 27.988281 22.332031 27.972656 21.855469 27.917969 21.375 C 27.824219 20.945312 27.742188 20.515625 27.675781 20.078125 C 27.710938 19 27.648438 17.929688 27.484375 16.863281 C 27.460938 16.445312 27.4375 16.03125 27.414062 15.613281 C 27.289062 14.839844 27.128906 14.070312 26.933594 13.308594 C 26.882812 12.863281 26.835938 12.414062 26.789062 11.964844 C 26.667969 11.570312 26.566406 11.171875 26.488281 10.765625 C 26.484375 10.734375 26.492188 10.707031 26.511719 10.683594 C 26.695312 10.648438 26.878906 10.628906 27.0625 10.621094 C 27.429688 14.757812 27.804688 18.894531 28.191406 23.03125 C 28.191406 23.085938 28.183594 23.136719 28.167969 23.1875 C 28.089844 23.207031 28.007812 23.226562 27.929688 23.246094 C 27.898438 23.242188 27.882812 23.226562 27.878906 23.199219 Z M 27.878906 23.199219 "/>
<path style=" stroke:none;fill-rule:evenodd;fill:rgb(99.607843%,99.607843%,99.607843%);fill-opacity:1;" d="M 27.328125 23.414062 C 27.148438 23.449219 26.96875 23.488281 26.789062 23.535156 C 26.761719 23.535156 26.742188 23.527344 26.726562 23.511719 C 26.859375 23.386719 26.929688 23.238281 26.945312 23.054688 C 26.96875 22.882812 26.894531 22.816406 26.726562 22.851562 C 26.699219 22.988281 26.65625 23.117188 26.597656 23.246094 C 26.519531 23.316406 26.433594 23.378906 26.34375 23.429688 C 25.902344 23.566406 25.457031 23.679688 25 23.765625 C 24.484375 23.953125 23.972656 24.148438 23.464844 24.351562 C 20.164062 25.140625 16.867188 25.945312 13.574219 26.765625 C 13.339844 26.820312 13.109375 26.863281 12.878906 26.894531 C 12.753906 26.898438 12.636719 26.917969 12.519531 26.957031 C 12.320312 27.042969 12.121094 27.121094 11.917969 27.195312 C 11.414062 27.285156 10.910156 27.371094 10.40625 27.460938 C 9.8125 27.515625 9.222656 27.5625 8.628906 27.605469 C 8.082031 27.675781 7.546875 27.796875 7.019531 27.964844 C 6.78125 28.066406 6.546875 28.183594 6.324219 28.3125 C 5.558594 23.503906 4.808594 18.695312 4.070312 13.886719 C 6.390625 13.550781 8.710938 13.214844 11.03125 12.878906 C 11.375 12.855469 11.71875 12.804688 12.0625 12.734375 C 13.875 12.46875 15.691406 12.222656 17.511719 11.988281 C 18.042969 12.039062 18.570312 12.011719 19.09375 11.90625 C 19.773438 11.699219 20.460938 11.539062 21.160156 11.425781 C 21.671875 11.398438 22.183594 11.367188 22.695312 11.328125 C 23.132812 11.246094 23.574219 11.171875 24.015625 11.113281 C 24.382812 11.109375 24.753906 11.109375 25.121094 11.113281 C 25.390625 11.03125 25.65625 10.925781 25.914062 10.800781 C 26 10.789062 26.085938 10.785156 26.175781 10.789062 C 26.210938 10.996094 26.226562 11.203125 26.222656 11.414062 C 26.171875 11.960938 26.199219 12.507812 26.308594 13.046875 C 26.476562 13.757812 26.59375 14.480469 26.667969 15.207031 C 26.671875 16.414062 26.6875 17.625 26.714844 18.832031 C 26.792969 19.472656 26.914062 20.101562 27.078125 20.726562 C 27.128906 21.191406 27.164062 21.652344 27.171875 22.121094 C 27.261719 22.535156 27.339844 22.953125 27.414062 23.367188 C 27.386719 23.386719 27.359375 23.402344 27.328125 23.414062 Z M 27.328125 23.414062 "/>
<path style=" stroke:none;fill-rule:evenodd;fill:rgb(35.294118%,35.686275%,35.294118%);fill-opacity:1;" d="M 26.511719 11.988281 C 26.488281 12.089844 26.480469 12.191406 26.488281 12.300781 C 26.460938 12.171875 26.457031 12.035156 26.476562 11.894531 C 26.496094 11.921875 26.507812 11.957031 26.511719 11.988281 Z M 26.511719 11.988281 "/>
<path style=" stroke:none;fill-rule:evenodd;fill:rgb(91.764706%,90.196078%,87.843137%);fill-opacity:1;" d="M 17.511719 11.988281 C 15.691406 12.222656 13.875 12.46875 12.0625 12.734375 C 12.617188 12.5625 13.175781 12.398438 13.742188 12.242188 C 14.113281 12.242188 14.480469 12.257812 14.847656 12.289062 C 15.277344 12.179688 15.710938 12.066406 16.144531 11.953125 C 16.601562 11.933594 17.058594 11.945312 17.511719 11.988281 Z M 17.511719 11.988281 "/>
<path style=" stroke:none;fill-rule:evenodd;fill:rgb(83.529412%,83.921569%,83.529412%);fill-opacity:1;" d="M 26.511719 11.988281 C 26.570312 12.527344 26.632812 13.0625 26.691406 13.597656 C 26.582031 13.171875 26.511719 12.742188 26.488281 12.300781 C 26.480469 12.191406 26.488281 12.089844 26.511719 11.988281 Z M 26.511719 11.988281 "/>
<use xlink:href="#surface21" mask="url(#mask5)"/>
<path style=" stroke:none;fill-rule:evenodd;fill:rgb(89.803922%,88.235294%,85.882353%);fill-opacity:1;" d="M 11.03125 12.878906 C 8.710938 13.214844 6.390625 13.550781 4.070312 13.886719 C 4.265625 13.796875 4.472656 13.738281 4.691406 13.707031 C 5.300781 13.648438 5.910156 13.574219 6.515625 13.488281 C 7.398438 13.328125 8.277344 13.167969 9.15625 13.011719 C 9.777344 12.90625 10.402344 12.863281 11.03125 12.878906 Z M 11.03125 12.878906 "/>
<use xlink:href="#surface24" mask="url(#mask6)"/>
<use xlink:href="#surface27" mask="url(#mask7)"/>
<path style=" stroke:none;fill-rule:evenodd;fill:rgb(62.745098%,63.137255%,62.745098%);fill-opacity:1;" d="M 26.894531 14.414062 C 26.875 14.441406 26.867188 14.472656 26.871094 14.511719 C 26.804688 14.21875 26.75 13.921875 26.714844 13.621094 C 26.78125 13.886719 26.839844 14.148438 26.894531 14.414062 Z M 26.894531 14.414062 "/>
<path style=" stroke:none;fill-rule:evenodd;fill:rgb(94.509804%,92.941176%,90.196078%);fill-opacity:1;" d="M 4.070312 13.886719 C 4.808594 18.695312 5.558594 23.503906 6.324219 28.3125 C 6.164062 28.460938 5.980469 28.578125 5.773438 28.660156 C 5.707031 28.675781 5.644531 28.675781 5.582031 28.660156 C 5.5 28.523438 5.453125 28.375 5.4375 28.214844 C 5.464844 28.042969 5.488281 27.871094 5.507812 27.699219 C 5.496094 27.566406 5.476562 27.433594 5.449219 27.304688 C 4.953125 25.441406 4.488281 23.566406 4.058594 21.6875 C 3.855469 20.253906 3.664062 18.824219 3.480469 17.390625 C 3.402344 16.566406 3.332031 15.742188 3.265625 14.917969 C 3.238281 14.757812 3.207031 14.597656 3.167969 14.4375 C 3.109375 14.324219 3.066406 14.203125 3.035156 14.078125 C 3.042969 14.054688 3.050781 14.03125 3.058594 14.007812 C 3.21875 14.035156 3.378906 14.039062 3.539062 14.019531 C 3.71875 13.980469 3.894531 13.9375 4.070312 13.886719 Z M 4.070312 13.886719 "/>
<path style=" stroke:none;fill-rule:evenodd;fill:rgb(96.078431%,96.078431%,96.078431%);fill-opacity:1;" d="M 26.894531 14.414062 C 27.015625 14.847656 27.101562 15.285156 27.148438 15.734375 C 27.179688 16.222656 27.210938 16.710938 27.246094 17.199219 C 27.386719 18.136719 27.441406 19.082031 27.414062 20.03125 C 27.425781 20.183594 27.441406 20.335938 27.460938 20.488281 C 27.660156 21.25 27.742188 22.027344 27.699219 22.816406 C 27.683594 22.878906 27.667969 22.945312 27.652344 23.007812 C 27.554688 22.710938 27.488281 22.410156 27.460938 22.09375 C 27.445312 21.671875 27.414062 21.246094 27.363281 20.824219 C 27.242188 20.273438 27.128906 19.722656 27.027344 19.167969 C 27.007812 18.855469 26.984375 18.542969 26.957031 18.230469 C 26.953125 17.269531 26.953125 16.3125 26.957031 15.351562 C 26.941406 15.070312 26.914062 14.789062 26.871094 14.511719 C 26.867188 14.472656 26.875 14.441406 26.894531 14.414062 Z M 26.894531 14.414062 "/>
<use xlink:href="#surface30" mask="url(#mask8)"/>
<use xlink:href="#surface33" mask="url(#mask9)"/>
<use xlink:href="#surface36" mask="url(#mask10)"/>
<use xlink:href="#surface39" mask="url(#mask11)"/>
<path style=" stroke:none;fill-rule:evenodd;fill:rgb(62.745098%,61.960784%,60%);fill-opacity:1;" d="M 29.65625 23.199219 C 29.632812 23.308594 29.625 23.417969 29.632812 23.535156 C 29.605469 23.21875 29.601562 22.898438 29.621094 22.574219 C 29.648438 22.78125 29.660156 22.992188 29.65625 23.199219 Z M 29.65625 23.199219 "/>
<use xlink:href="#surface42" mask="url(#mask12)"/>
<path style=" stroke:none;fill-rule:evenodd;fill:rgb(73.333333%,72.156863%,70.196078%);fill-opacity:1;" d="M 29.65625 23.199219 C 29.679688 23.429688 29.683594 23.664062 29.667969 23.894531 C 29.644531 23.777344 29.632812 23.65625 29.632812 23.535156 C 29.625 23.417969 29.632812 23.308594 29.65625 23.199219 Z M 29.65625 23.199219 "/>
<path style=" stroke:none;fill-rule:evenodd;fill:rgb(86.666667%,85.098039%,82.745098%);fill-opacity:1;" d="M 27.328125 23.414062 C 27.234375 23.480469 27.128906 23.53125 27.015625 23.570312 C 26.046875 23.914062 25.0625 24.191406 24.0625 24.410156 C 24.371094 24.28125 24.683594 24.164062 25 24.050781 C 25.441406 23.949219 25.878906 23.84375 26.320312 23.738281 C 26.472656 23.6875 26.609375 23.613281 26.726562 23.511719 C 26.742188 23.527344 26.761719 23.535156 26.789062 23.535156 C 26.96875 23.488281 27.148438 23.449219 27.328125 23.414062 Z M 27.328125 23.414062 "/>
<use xlink:href="#surface45" mask="url(#mask13)"/>
<path style=" stroke:none;fill-rule:evenodd;fill:rgb(93.333333%,91.764706%,89.411765%);fill-opacity:1;" d="M 23.464844 24.351562 C 23.308594 24.421875 23.152344 24.484375 22.984375 24.53125 C 22.476562 24.644531 21.988281 24.8125 21.519531 25.035156 C 21.378906 25.089844 21.234375 25.140625 21.085938 25.179688 C 20.5 25.261719 19.914062 25.367188 19.335938 25.492188 C 18.144531 25.9375 16.9375 26.324219 15.710938 26.644531 C 15.375 26.632812 15.054688 26.699219 14.75 26.835938 C 14.128906 26.953125 13.503906 26.972656 12.878906 26.894531 C 13.109375 26.863281 13.339844 26.820312 13.574219 26.765625 C 16.867188 25.945312 20.164062 25.140625 23.464844 24.351562 Z M 23.464844 24.351562 "/>
<path style=" stroke:none;fill-rule:evenodd;fill:rgb(63.921569%,63.137255%,61.176471%);fill-opacity:1;" d="M 45.019531 24.351562 C 45.035156 24.335938 45.054688 24.328125 45.078125 24.328125 C 45.492188 24.402344 45.894531 24.511719 46.292969 24.652344 C 45.871094 24.542969 45.449219 24.441406 45.019531 24.351562 Z M 45.019531 24.351562 "/>
<path style=" stroke:none;fill-rule:evenodd;fill:rgb(49.019608%,48.627451%,47.058824%);fill-opacity:1;" d="M 28.792969 24.929688 C 28.890625 24.898438 28.996094 24.898438 29.105469 24.914062 C 29.078125 24.929688 29.054688 24.941406 29.03125 24.953125 C 28.957031 24.929688 28.878906 24.921875 28.792969 24.929688 Z M 28.792969 24.929688 "/>
<path style=" stroke:none;fill-rule:evenodd;fill:rgb(90.588235%,89.019608%,86.666667%);fill-opacity:1;" d="M 28.792969 24.929688 C 28.878906 24.921875 28.957031 24.929688 29.03125 24.953125 C 28.199219 25.21875 27.359375 25.460938 26.511719 25.683594 C 25.5 25.882812 24.492188 26.09375 23.488281 26.320312 C 23.472656 26.320312 23.464844 26.3125 23.464844 26.296875 C 24.917969 25.757812 26.40625 25.335938 27.929688 25.035156 C 28.214844 24.976562 28.5 24.941406 28.792969 24.929688 Z M 28.792969 24.929688 "/>
<path style=" stroke:none;fill-rule:evenodd;fill:rgb(94.509804%,92.941176%,90.196078%);fill-opacity:1;" d="M 3.707031 31.359375 C 3.707031 31.351562 3.707031 31.34375 3.707031 31.335938 C 4.46875 31.328125 5.226562 31.324219 5.988281 31.324219 C 6.351562 31.242188 6.710938 31.144531 7.070312 31.035156 C 7.421875 31.007812 7.773438 30.992188 8.125 30.988281 C 8.320312 30.96875 8.511719 30.9375 8.703125 30.894531 C 10.058594 30.496094 11.410156 30.089844 12.757812 29.667969 C 13.324219 29.484375 13.882812 29.28125 14.4375 29.070312 C 17.113281 28.265625 19.800781 27.523438 22.503906 26.835938 C 23.992188 26.484375 25.488281 26.15625 26.992188 25.851562 C 27.699219 25.648438 28.402344 25.433594 29.105469 25.214844 C 29.179688 25.261719 29.257812 25.273438 29.34375 25.253906 C 29.378906 25.214844 29.402344 25.167969 29.417969 25.121094 C 29.519531 25.117188 29.601562 25.074219 29.65625 24.988281 C 29.871094 24.984375 30.089844 24.984375 30.304688 24.988281 C 30.339844 24.960938 30.371094 24.933594 30.402344 24.902344 C 30.625 25 30.839844 25.105469 31.050781 25.226562 C 31.496094 25.515625 31.945312 25.804688 32.394531 26.09375 C 32.570312 26.179688 32.746094 26.269531 32.921875 26.355469 C 34.425781 26.929688 35.808594 27.703125 37.074219 28.683594 C 37.289062 28.894531 37.515625 29.09375 37.746094 29.285156 C 37.988281 29.429688 38.214844 29.59375 38.429688 29.777344 C 38.496094 29.851562 38.550781 29.929688 38.597656 30.015625 C 38.65625 30.214844 38.726562 30.40625 38.8125 30.59375 C 38.863281 30.660156 38.921875 30.71875 38.996094 30.761719 C 39.023438 30.855469 39.027344 30.953125 39.007812 31.050781 C 38.925781 30.9375 38.835938 30.929688 38.742188 31.023438 C 38.738281 31.21875 38.722656 31.410156 38.695312 31.601562 C 38.632812 31.679688 38.558594 31.738281 38.464844 31.78125 C 38.066406 31.941406 37.667969 32.101562 37.265625 32.261719 C 36.1875 32.828125 35.082031 33.339844 33.953125 33.796875 C 32.785156 34.382812 31.617188 34.964844 30.449219 35.550781 C 28.609375 36.375 26.785156 37.242188 24.976562 38.140625 C 23.648438 38.871094 22.351562 39.644531 21.085938 40.46875 C 20.414062 40.804688 19.742188 41.140625 19.070312 41.480469 C 18.707031 41.675781 18.363281 41.898438 18.039062 42.152344 C 17.765625 42.382812 17.484375 42.609375 17.199219 42.824219 C 16.757812 43.082031 16.335938 43.058594 15.925781 42.75 C 15.363281 42.386719 14.816406 41.996094 14.292969 41.574219 C 14 41.386719 13.695312 41.210938 13.382812 41.046875 C 13.074219 40.792969 12.804688 40.5 12.578125 40.171875 C 11.714844 39.339844 10.839844 38.527344 9.949219 37.734375 C 8.207031 36.03125 6.5625 34.253906 5.015625 32.394531 C 4.6875 32.015625 4.316406 31.691406 3.902344 31.421875 C 3.835938 31.398438 3.773438 31.378906 3.707031 31.359375 Z M 3.707031 31.359375 "/>
<use xlink:href="#surface48" mask="url(#mask14)"/>
<use xlink:href="#surface51" mask="url(#mask15)"/>
<use xlink:href="#surface54" mask="url(#mask16)"/>
<path style=" stroke:none;fill-rule:evenodd;fill:rgb(72.941176%,71.372549%,69.411765%);fill-opacity:1;" d="M 40.289062 25.289062 C 41.027344 25.785156 41.78125 26.257812 42.546875 26.703125 C 42.515625 26.710938 42.515625 26.722656 42.546875 26.742188 C 42.734375 26.855469 42.917969 26.972656 43.097656 27.101562 C 42.683594 27.785156 42.273438 28.480469 41.875 29.175781 C 41.863281 29.195312 41.847656 29.203125 41.828125 29.199219 C 41.355469 28.820312 40.933594 28.386719 40.566406 27.90625 C 40.277344 27.488281 40.082031 27.03125 39.976562 26.535156 C 40 26.355469 40.011719 26.171875 40.015625 25.984375 C 40.039062 25.828125 40.074219 25.675781 40.121094 25.527344 C 40.167969 25.460938 40.207031 25.390625 40.242188 25.3125 C 40.253906 25.292969 40.269531 25.285156 40.289062 25.289062 Z M 40.289062 25.289062 "/>
<path style=" stroke:none;fill-rule:evenodd;fill:rgb(91.764706%,90.588235%,87.843137%);fill-opacity:1;" d="M 40.121094 25.527344 C 40.074219 25.675781 40.039062 25.828125 40.015625 25.984375 C 40.011719 26.171875 40 26.355469 39.976562 26.535156 C 39.917969 26.378906 39.855469 26.21875 39.796875 26.054688 C 39.777344 25.839844 39.828125 25.644531 39.953125 25.46875 C 40.015625 25.472656 40.070312 25.496094 40.121094 25.527344 Z M 40.121094 25.527344 "/>
<path style=" stroke:none;fill-rule:evenodd;fill:rgb(47.843137%,47.45098%,45.882353%);fill-opacity:1;" d="M 20.414062 25.574219 C 20.457031 25.550781 20.507812 25.546875 20.558594 25.5625 C 20.519531 25.578125 20.480469 25.589844 20.4375 25.601562 C 20.4375 25.585938 20.429688 25.574219 20.414062 25.574219 Z M 20.414062 25.574219 "/>
<path style=" stroke:none;fill-rule:evenodd;fill:rgb(85.490196%,84.313725%,81.568627%);fill-opacity:1;" d="M 20.414062 25.574219 C 20.429688 25.574219 20.4375 25.585938 20.4375 25.601562 C 19.6875 25.839844 18.929688 26.046875 18.160156 26.222656 C 18.160156 26.214844 18.160156 26.207031 18.160156 26.199219 C 18.636719 26.03125 19.117188 25.867188 19.597656 25.707031 C 19.867188 25.644531 20.140625 25.601562 20.414062 25.574219 Z M 20.414062 25.574219 "/>
<use xlink:href="#surface57" mask="url(#mask17)"/>
<path style=" stroke:none;fill-rule:evenodd;fill:rgb(39.607843%,39.215686%,38.039216%);fill-opacity:1;" d="M 18.160156 26.199219 C 18.160156 26.207031 18.160156 26.214844 18.160156 26.222656 C 18.109375 26.253906 18.050781 26.265625 17.992188 26.261719 C 18.042969 26.234375 18.101562 26.214844 18.160156 26.199219 Z M 18.160156 26.199219 "/>
<path style=" stroke:none;fill-rule:evenodd;fill:rgb(49.803922%,49.411765%,47.843137%);fill-opacity:1;" d="M 23.464844 26.296875 C 23.464844 26.3125 23.472656 26.320312 23.488281 26.320312 C 23.429688 26.355469 23.367188 26.367188 23.296875 26.355469 C 23.351562 26.335938 23.410156 26.316406 23.464844 26.296875 Z M 23.464844 26.296875 "/>
<path style=" stroke:none;fill-rule:evenodd;fill:rgb(9.411765%,9.803922%,9.411765%);fill-opacity:1;" d="M 29.921875 26.390625 C 30.304688 26.347656 30.644531 26.457031 30.929688 26.714844 C 31.296875 27.09375 31.671875 27.460938 32.058594 27.820312 C 32.609375 28.253906 33.171875 28.679688 33.738281 29.09375 C 34.1875 29.453125 34.613281 29.84375 35.023438 30.257812 C 35.105469 30.398438 35.089844 30.523438 34.972656 30.640625 C 34.886719 30.71875 34.796875 30.785156 34.699219 30.84375 C 34.359375 30.992188 34.023438 31.144531 33.6875 31.300781 C 33.308594 31.574219 32.933594 31.855469 32.5625 32.140625 C 31.769531 32.675781 30.9375 33.144531 30.066406 33.558594 C 29.441406 33.84375 28.816406 34.132812 28.191406 34.421875 C 27.808594 34.695312 27.425781 34.964844 27.039062 35.238281 C 26.84375 35.347656 26.632812 35.4375 26.417969 35.5 C 25.976562 35.601562 25.535156 35.695312 25.097656 35.789062 C 24.488281 35.996094 23.914062 36.269531 23.367188 36.605469 C 22.707031 37.042969 22.035156 37.457031 21.351562 37.855469 C 20.519531 38.238281 19.6875 38.621094 18.855469 39.007812 C 18.679688 39.117188 18.503906 39.230469 18.328125 39.34375 C 17.871094 39.710938 17.40625 40.070312 16.933594 40.421875 C 16.628906 40.613281 16.296875 40.71875 15.9375 40.746094 C 15.640625 40.730469 15.371094 40.628906 15.132812 40.445312 C 14.410156 39.882812 13.832031 39.199219 13.394531 38.394531 C 12.867188 37.855469 12.328125 37.328125 11.785156 36.808594 C 11.652344 36.664062 11.523438 36.511719 11.402344 36.355469 C 10.914062 35.890625 10.433594 35.417969 9.960938 34.9375 C 9.648438 34.527344 9.351562 34.101562 9.074219 33.664062 C 8.945312 33.503906 8.816406 33.34375 8.6875 33.183594 C 8.671875 33.140625 8.675781 33.09375 8.703125 33.054688 C 9.027344 32.96875 9.324219 32.824219 9.589844 32.621094 C 9.820312 32.492188 10.058594 32.386719 10.308594 32.308594 C 11.5 32.117188 12.683594 31.890625 13.863281 31.636719 C 13.921875 31.625 13.925781 31.605469 13.875 31.578125 C 13.835938 31.417969 13.894531 31.347656 14.054688 31.371094 C 14.121094 31.425781 14.191406 31.476562 14.257812 31.527344 C 14.453125 31.472656 14.648438 31.421875 14.847656 31.371094 C 16.429688 30.789062 18.027344 30.269531 19.648438 29.8125 C 20.433594 29.644531 21.210938 29.441406 21.976562 29.199219 C 22.011719 29.144531 22.035156 29.078125 22.035156 29.007812 C 22.078125 28.890625 22.15625 28.863281 22.261719 28.925781 C 22.332031 28.953125 22.394531 28.992188 22.457031 29.03125 C 23.1875 28.722656 23.917969 28.398438 24.640625 28.058594 C 25.351562 27.765625 26.078125 27.515625 26.824219 27.316406 C 27.515625 27.136719 28.203125 26.953125 28.886719 26.765625 C 29.230469 26.628906 29.574219 26.503906 29.921875 26.390625 Z M 29.921875 26.390625 "/>
<use xlink:href="#surface60" mask="url(#mask18)"/>
<path style=" stroke:none;fill-rule:evenodd;fill:rgb(93.333333%,91.764706%,89.019608%);fill-opacity:1;" d="M 41.828125 29.199219 C 41.847656 29.203125 41.863281 29.195312 41.875 29.175781 C 42.273438 28.480469 42.683594 27.785156 43.097656 27.101562 C 42.917969 26.972656 42.734375 26.855469 42.546875 26.742188 C 42.515625 26.722656 42.515625 26.710938 42.546875 26.703125 C 42.765625 26.769531 42.988281 26.792969 43.21875 26.765625 C 43.242188 26.742188 43.265625 26.714844 43.289062 26.691406 C 43.398438 26.671875 43.503906 26.648438 43.601562 26.621094 C 43.140625 27.328125 42.765625 28.085938 42.488281 28.886719 C 42.40625 29.078125 42.292969 29.242188 42.140625 29.378906 C 42.09375 29.410156 42.046875 29.417969 41.996094 29.40625 C 41.929688 29.34375 41.875 29.273438 41.828125 29.199219 Z M 41.828125 29.199219 "/>
<path style=" stroke:none;fill-rule:evenodd;fill:rgb(94.117647%,92.54902%,89.803922%);fill-opacity:1;" d="M 30.039062 26.65625 C 30.285156 26.652344 30.5 26.730469 30.6875 26.882812 C 31.046875 27.25 31.417969 27.613281 31.792969 27.964844 C 32.390625 28.425781 32.988281 28.882812 33.59375 29.332031 C 34.011719 29.652344 34.398438 30.007812 34.757812 30.402344 C 34.777344 30.429688 34.769531 30.453125 34.746094 30.472656 C 34.636719 30.546875 34.527344 30.613281 34.410156 30.675781 C 34.101562 30.800781 33.796875 30.9375 33.496094 31.085938 C 32.824219 31.625 32.113281 32.117188 31.371094 32.5625 C 31.363281 32.527344 31.34375 32.5 31.3125 32.476562 C 31.261719 32.472656 31.214844 32.460938 31.167969 32.441406 C 31.089844 32.261719 31.0625 32.078125 31.085938 31.890625 C 30.992188 31.691406 30.878906 31.507812 30.75 31.335938 C 30.632812 31.03125 30.484375 30.742188 30.304688 30.472656 C 30.429688 30.390625 30.558594 30.316406 30.6875 30.246094 C 31.382812 29.898438 32.074219 29.550781 32.765625 29.199219 C 32.78125 29.144531 32.78125 29.089844 32.765625 29.03125 C 32.738281 29 32.703125 28.980469 32.65625 28.984375 C 31.773438 29.3125 30.898438 29.671875 30.039062 30.066406 C 29.8125 29.679688 29.617188 29.277344 29.453125 28.863281 C 29.820312 28.625 30.183594 28.378906 30.542969 28.132812 C 30.785156 28.027344 31.03125 27.996094 31.289062 28.035156 C 31.355469 27.976562 31.378906 27.898438 31.347656 27.808594 C 31.070312 27.738281 30.792969 27.75 30.519531 27.84375 C 30.214844 27.992188 29.933594 28.175781 29.679688 28.398438 C 29.558594 28.480469 29.429688 28.554688 29.296875 28.625 C 29.136719 28.390625 28.972656 28.15625 28.804688 27.929688 C 28.675781 27.769531 28.53125 27.625 28.371094 27.496094 C 28.402344 27.429688 28.410156 27.359375 28.398438 27.28125 C 28.375 27.25 28.347656 27.230469 28.3125 27.21875 C 28.890625 27.035156 29.464844 26.847656 30.039062 26.65625 Z M 30.039062 26.65625 "/>
<path style=" stroke:none;fill-rule:evenodd;fill:rgb(40.784314%,40%,38.823529%);fill-opacity:1;" d="M 13.574219 27.207031 C 13.65625 27.203125 13.734375 27.207031 13.8125 27.21875 C 13.773438 27.234375 13.734375 27.246094 13.695312 27.257812 C 13.652344 27.242188 13.613281 27.222656 13.574219 27.207031 Z M 13.574219 27.207031 "/>
<path style=" stroke:none;fill-rule:evenodd;fill:rgb(94.117647%,92.54902%,89.803922%);fill-opacity:1;" d="M 28.074219 27.257812 C 28.097656 27.253906 28.121094 27.257812 28.144531 27.269531 C 28.058594 27.285156 27.988281 27.332031 27.941406 27.398438 C 27.917969 27.496094 27.910156 27.589844 27.917969 27.6875 C 27.964844 27.742188 28.023438 27.773438 28.097656 27.785156 C 28.265625 28.175781 28.453125 28.558594 28.648438 28.9375 C 27.914062 29.246094 27.1875 29.566406 26.464844 29.898438 C 26.460938 29.753906 26.386719 29.691406 26.25 29.714844 C 26.199219 29.742188 26.175781 29.78125 26.175781 29.835938 C 26.1875 29.894531 26.203125 29.949219 26.222656 30.003906 C 26.199219 30.054688 26.160156 30.070312 26.117188 30.039062 C 25.925781 29.703125 25.730469 29.367188 25.539062 29.03125 C 25.46875 28.824219 25.4375 28.605469 25.445312 28.382812 C 25.347656 28.28125 25.257812 28.289062 25.179688 28.410156 C 25.15625 28.789062 25.242188 29.140625 25.445312 29.464844 C 25.597656 29.691406 25.738281 29.925781 25.863281 30.171875 C 25.816406 30.21875 25.761719 30.25 25.695312 30.269531 C 25.007812 30.507812 24.308594 30.726562 23.609375 30.929688 C 23.589844 30.921875 23.574219 30.914062 23.558594 30.90625 C 23.328125 30.320312 23.039062 29.769531 22.695312 29.25 C 23.605469 28.820312 24.523438 28.414062 25.457031 28.035156 C 26.324219 27.75 27.195312 27.488281 28.074219 27.257812 Z M 28.074219 27.257812 "/>
<path style=" stroke:none;fill-rule:evenodd;fill:rgb(92.156863%,90.588235%,88.235294%);fill-opacity:1;" d="M 13.574219 27.207031 C 13.613281 27.222656 13.652344 27.242188 13.695312 27.257812 C 12.660156 27.425781 11.628906 27.597656 10.597656 27.773438 C 9.429688 28.097656 8.253906 28.394531 7.070312 28.660156 C 6.707031 28.761719 6.363281 28.90625 6.035156 29.09375 C 5.910156 29.121094 5.8125 29.078125 5.75 28.960938 C 6.078125 28.832031 6.382812 28.660156 6.660156 28.445312 C 7.070312 28.230469 7.503906 28.078125 7.957031 27.988281 C 8.273438 27.921875 8.59375 27.875 8.917969 27.84375 C 9.375 27.824219 9.832031 27.792969 10.285156 27.75 C 10.789062 27.664062 11.292969 27.585938 11.796875 27.507812 C 12.140625 27.390625 12.484375 27.277344 12.828125 27.171875 C 13.078125 27.160156 13.328125 27.171875 13.574219 27.207031 Z M 13.574219 27.207031 "/>
<path style=" stroke:none;fill-rule:evenodd;fill:rgb(89.411765%,87.843137%,85.490196%);fill-opacity:1;" d="M 28.527344 28.046875 C 28.714844 28.265625 28.882812 28.5 29.03125 28.746094 C 28.996094 28.804688 28.949219 28.820312 28.886719 28.792969 C 28.761719 28.546875 28.640625 28.300781 28.527344 28.046875 Z M 28.527344 28.046875 "/>
<path style=" stroke:none;fill-rule:evenodd;fill:rgb(54.509804%,53.72549%,52.156863%);fill-opacity:1;" d="M 3.085938 28.359375 C 3.070312 28.679688 3.050781 29 3.035156 29.320312 C 3.03125 28.90625 3.035156 28.488281 3.046875 28.074219 C 3.0625 28.167969 3.074219 28.265625 3.085938 28.359375 Z M 3.085938 28.359375 "/>
<path style=" stroke:none;fill-rule:evenodd;fill:rgb(88.627451%,87.058824%,84.313725%);fill-opacity:1;" d="M 29.65625 29.992188 C 29.433594 29.707031 29.234375 29.402344 29.058594 29.082031 C 29.101562 29.035156 29.148438 29.019531 29.199219 29.03125 C 29.367188 29.347656 29.519531 29.667969 29.65625 29.992188 Z M 29.65625 29.992188 "/>
<path style=" stroke:none;fill-rule:evenodd;fill:rgb(94.117647%,92.54902%,89.803922%);fill-opacity:1;" d="M 28.746094 29.199219 C 28.773438 29.195312 28.796875 29.203125 28.816406 29.226562 C 29.027344 29.59375 29.257812 29.949219 29.511719 30.292969 C 28.734375 30.648438 27.960938 31.019531 27.195312 31.410156 C 26.972656 31.011719 26.777344 30.605469 26.609375 30.183594 C 26.804688 30.050781 27.011719 29.933594 27.230469 29.835938 C 27.742188 29.636719 28.25 29.425781 28.746094 29.199219 Z M 28.746094 29.199219 "/>
<path style=" stroke:none;fill-rule:evenodd;fill:rgb(94.117647%,92.54902%,89.803922%);fill-opacity:1;" d="M 22.3125 29.367188 C 22.351562 29.363281 22.390625 29.367188 22.429688 29.378906 C 22.449219 29.417969 22.472656 29.449219 22.503906 29.476562 C 22.476562 29.535156 22.472656 29.59375 22.492188 29.65625 C 22.613281 30.15625 22.839844 30.605469 23.164062 31 C 23.195312 31.035156 23.199219 31.066406 23.175781 31.097656 C 22.078125 31.601562 20.980469 32.097656 19.875 32.585938 C 19.789062 32.523438 19.707031 32.449219 19.636719 32.371094 C 19.273438 31.886719 18.886719 31.429688 18.472656 30.988281 C 18.308594 30.863281 18.125 30.816406 17.917969 30.84375 C 17.890625 30.871094 17.863281 30.902344 17.835938 30.929688 C 17.824219 31.015625 17.8125 31.105469 17.800781 31.191406 C 17.804688 31.320312 17.867188 31.375 17.992188 31.347656 C 18.039062 31.273438 18.085938 31.199219 18.121094 31.121094 C 18.167969 31.136719 18.210938 31.15625 18.253906 31.179688 C 18.457031 31.464844 18.660156 31.75 18.867188 32.03125 C 19.09375 32.265625 19.320312 32.492188 19.550781 32.71875 C 18.546875 33.148438 17.511719 33.492188 16.453125 33.75 C 16.089844 33.410156 15.734375 33.0625 15.386719 32.707031 C 15.335938 32.628906 15.292969 32.550781 15.253906 32.464844 C 15.359375 32.398438 15.375 32.3125 15.300781 32.214844 C 15.1875 32.175781 15.074219 32.1875 14.964844 32.25 C 14.9375 32.273438 14.921875 32.304688 14.917969 32.34375 C 14.933594 32.398438 14.949219 32.449219 14.964844 32.5 C 14.957031 32.511719 14.949219 32.523438 14.941406 32.539062 C 14.679688 32.339844 14.503906 32.082031 14.414062 31.769531 C 14.574219 31.734375 14.734375 31.6875 14.894531 31.636719 C 16.058594 31.230469 17.226562 30.839844 18.398438 30.460938 C 19.460938 30.148438 20.535156 29.867188 21.617188 29.621094 C 21.855469 29.546875 22.085938 29.464844 22.3125 29.367188 Z M 22.3125 29.367188 "/>
<path style=" stroke:none;fill-rule:evenodd;fill:rgb(54.509804%,53.72549%,52.156863%);fill-opacity:1;" d="M 29.65625 29.992188 C 29.695312 30.003906 29.707031 30.027344 29.691406 30.066406 C 29.667969 30.046875 29.65625 30.023438 29.65625 29.992188 Z M 29.65625 29.992188 "/>
<use xlink:href="#surface63" mask="url(#mask19)"/>
<path style=" stroke:none;fill-rule:evenodd;fill:rgb(82.352941%,81.176471%,78.823529%);fill-opacity:1;" d="M 26.320312 30.28125 C 26.519531 30.703125 26.726562 31.128906 26.945312 31.554688 C 26.9375 31.5625 26.929688 31.570312 26.921875 31.578125 C 26.703125 31.160156 26.488281 30.746094 26.273438 30.328125 C 26.289062 30.3125 26.304688 30.296875 26.320312 30.28125 Z M 26.320312 30.28125 "/>
<path style=" stroke:none;fill-rule:evenodd;fill:rgb(94.117647%,92.54902%,89.803922%);fill-opacity:1;" d="M 25.9375 30.449219 C 25.972656 30.441406 26.003906 30.449219 26.03125 30.472656 C 26.246094 30.898438 26.460938 31.324219 26.667969 31.746094 C 26.40625 31.949219 26.140625 32.144531 25.863281 32.332031 C 25.476562 32.546875 25.078125 32.742188 24.675781 32.921875 C 24.425781 32.402344 24.136719 31.90625 23.8125 31.433594 C 23.765625 31.355469 23.734375 31.277344 23.714844 31.191406 C 24.398438 30.972656 25.082031 30.753906 25.769531 30.53125 C 25.828125 30.511719 25.886719 30.484375 25.9375 30.449219 Z M 25.9375 30.449219 "/>
<path style=" stroke:none;fill-rule:evenodd;fill:rgb(65.098039%,64.313725%,62.352941%);fill-opacity:1;" d="M 46.148438 30.640625 C 46.480469 30.664062 46.816406 30.671875 47.15625 30.664062 C 46.777344 30.691406 46.390625 30.695312 46.003906 30.675781 C 46.050781 30.65625 46.097656 30.644531 46.148438 30.640625 Z M 46.148438 30.640625 "/>
<path style=" stroke:none;fill-rule:evenodd;fill:rgb(91.372549%,89.803922%,87.058824%);fill-opacity:1;" d="M 29.394531 30.640625 C 29.417969 30.636719 29.441406 30.640625 29.464844 30.652344 C 28.824219 31.109375 28.164062 31.539062 27.484375 31.9375 C 27.425781 31.851562 27.375 31.765625 27.328125 31.671875 C 27.332031 31.660156 27.339844 31.648438 27.351562 31.636719 C 28.035156 31.304688 28.714844 30.972656 29.394531 30.640625 Z M 29.394531 30.640625 "/>
<path style=" stroke:none;fill-rule:evenodd;fill:rgb(94.117647%,92.54902%,89.803922%);fill-opacity:1;" d="M 29.847656 30.738281 C 30.0625 30.949219 30.265625 31.171875 30.460938 31.410156 C 30.53125 31.582031 30.613281 31.746094 30.714844 31.902344 C 30.621094 31.949219 30.59375 32.027344 30.628906 32.128906 C 30.683594 32.179688 30.75 32.210938 30.820312 32.226562 C 30.851562 32.414062 30.917969 32.585938 31.023438 32.742188 C 30.632812 32.960938 30.230469 33.167969 29.824219 33.367188 C 29.351562 33.578125 28.878906 33.789062 28.410156 34 C 28.371094 33.753906 28.300781 33.511719 28.203125 33.28125 C 28.039062 32.90625 27.851562 32.539062 27.640625 32.1875 C 28.382812 31.710938 29.117188 31.226562 29.847656 30.738281 Z M 29.847656 30.738281 "/>
<use xlink:href="#surface66" mask="url(#mask20)"/>
<path style=" stroke:none;fill-rule:evenodd;fill:rgb(39.607843%,39.215686%,38.039216%);fill-opacity:1;" d="M 3.707031 31.335938 C 3.707031 31.34375 3.707031 31.351562 3.707031 31.359375 C 3.632812 31.355469 3.5625 31.363281 3.492188 31.386719 C 3.421875 31.351562 3.347656 31.351562 3.277344 31.386719 C 3.257812 31.378906 3.242188 31.367188 3.230469 31.347656 C 3.386719 31.335938 3.546875 31.332031 3.707031 31.335938 Z M 3.707031 31.335938 "/>
<path style=" stroke:none;fill-rule:evenodd;fill:rgb(94.117647%,92.54902%,89.803922%);fill-opacity:1;" d="M 23.34375 31.3125 C 23.390625 31.34375 23.425781 31.382812 23.453125 31.433594 C 23.675781 31.800781 23.898438 32.167969 24.125 32.539062 C 24.226562 32.710938 24.3125 32.886719 24.386719 33.066406 C 23.714844 33.425781 23.070312 33.828125 22.457031 34.277344 C 22.046875 34.4375 21.640625 34.59375 21.230469 34.746094 C 21.09375 34.597656 20.96875 34.4375 20.859375 34.265625 C 20.667969 33.910156 20.484375 33.546875 20.308594 33.183594 C 20.234375 33.058594 20.152344 32.9375 20.054688 32.824219 C 21.15625 32.328125 22.25 31.824219 23.34375 31.3125 Z M 23.34375 31.3125 "/>
<path style=" stroke:none;fill-rule:evenodd;fill:rgb(89.803922%,88.235294%,85.882353%);fill-opacity:1;" d="M 3.492188 31.386719 C 3.40625 31.421875 3.34375 31.484375 3.3125 31.578125 C 3.304688 31.511719 3.292969 31.445312 3.277344 31.386719 C 3.347656 31.351562 3.421875 31.351562 3.492188 31.386719 Z M 3.492188 31.386719 "/>
<path style=" stroke:none;fill-rule:evenodd;fill:rgb(94.117647%,92.54902%,89.803922%);fill-opacity:1;" d="M 3.757812 31.671875 C 3.902344 31.75 4.039062 31.84375 4.164062 31.949219 C 4.453125 32.230469 4.734375 32.519531 5.003906 32.8125 C 4.976562 32.867188 4.980469 32.917969 5.015625 32.96875 C 6.121094 34.273438 7.230469 35.570312 8.351562 36.859375 C 9.070312 37.632812 9.828125 38.363281 10.621094 39.054688 C 11.339844 39.773438 12.023438 40.523438 12.675781 41.296875 C 12.902344 41.535156 13.140625 41.761719 13.382812 41.984375 C 13.703125 42.191406 14.023438 42.398438 14.34375 42.605469 C 14.503906 42.765625 14.664062 42.925781 14.824219 43.085938 C 14.976562 43.199219 15.148438 43.265625 15.339844 43.289062 C 15.347656 43.417969 15.355469 43.546875 15.363281 43.675781 C 15.417969 43.9375 15.480469 44.191406 15.554688 44.441406 C 15.390625 44.285156 15.21875 44.136719 15.039062 44 C 14.648438 43.761719 14.257812 43.527344 13.863281 43.304688 C 13.386719 42.988281 12.9375 42.636719 12.519531 42.246094 C 11.511719 41.25 10.53125 40.226562 9.578125 39.1875 C 9.339844 38.859375 9.089844 38.539062 8.832031 38.226562 C 8.363281 37.769531 7.890625 37.3125 7.417969 36.859375 C 7.144531 36.511719 6.886719 36.152344 6.648438 35.777344 C 6.183594 35.25 5.722656 34.722656 5.257812 34.195312 C 4.6875 33.679688 4.160156 33.128906 3.671875 32.539062 C 3.515625 32.328125 3.390625 32.101562 3.300781 31.851562 C 3.304688 31.832031 3.308594 31.8125 3.3125 31.792969 C 3.339844 31.828125 3.375 31.847656 3.421875 31.851562 C 3.507812 31.878906 3.597656 31.894531 3.683594 31.902344 C 3.777344 31.847656 3.800781 31.773438 3.757812 31.671875 Z M 3.757812 31.671875 "/>
<path style=" stroke:none;fill-rule:evenodd;fill:rgb(94.117647%,92.54902%,89.803922%);fill-opacity:1;" d="M 14.007812 31.863281 C 14.050781 31.859375 14.089844 31.867188 14.125 31.890625 C 14.230469 32.109375 14.355469 32.316406 14.5 32.511719 C 14.769531 32.734375 15.035156 32.964844 15.289062 33.210938 C 15.476562 33.449219 15.632812 33.703125 15.757812 33.976562 C 15.054688 34.160156 14.363281 34.382812 13.683594 34.648438 C 13.054688 34.070312 12.425781 33.488281 11.796875 32.910156 C 11.574219 32.695312 11.308594 32.550781 11.003906 32.476562 C 11.765625 32.339844 12.527344 32.195312 13.285156 32.046875 C 13.53125 31.996094 13.773438 31.9375 14.007812 31.863281 Z M 14.007812 31.863281 "/>
<use xlink:href="#surface69" mask="url(#mask21)"/>
<path style=" stroke:none;fill-rule:evenodd;fill:rgb(81.568627%,80%,77.647059%);fill-opacity:1;" d="M 27.039062 31.839844 C 27.058594 31.8125 27.078125 31.8125 27.101562 31.839844 C 27.148438 31.917969 27.191406 32 27.230469 32.082031 C 27.222656 32.089844 27.214844 32.097656 27.207031 32.105469 C 27.15625 32.011719 27.101562 31.921875 27.039062 31.839844 Z M 27.039062 31.839844 "/>
<path style=" stroke:none;fill-rule:evenodd;fill:rgb(90.980392%,89.411765%,87.058824%);fill-opacity:1;" d="M 26.777344 31.984375 C 26.800781 31.984375 26.820312 31.992188 26.835938 32.007812 C 26.871094 32.082031 26.910156 32.152344 26.945312 32.226562 C 26.296875 32.617188 25.625 32.964844 24.929688 33.269531 C 24.859375 33.285156 24.820312 33.257812 24.808594 33.183594 C 25.203125 32.976562 25.601562 32.769531 26.007812 32.574219 C 26.28125 32.398438 26.539062 32.203125 26.777344 31.984375 Z M 26.777344 31.984375 "/>
<path style=" stroke:none;fill-rule:evenodd;fill:rgb(85.098039%,83.529412%,81.176471%);fill-opacity:1;" d="M 38.128906 32.199219 C 38.15625 32.199219 38.179688 32.203125 38.203125 32.214844 C 37.636719 32.511719 37.0625 32.785156 36.472656 33.027344 C 36.386719 33.0625 36.296875 33.085938 36.210938 33.101562 C 36.589844 32.914062 36.964844 32.722656 37.339844 32.523438 C 37.601562 32.414062 37.867188 32.304688 38.128906 32.199219 Z M 38.128906 32.199219 "/>
<path style=" stroke:none;fill-rule:evenodd;fill:rgb(83.137255%,81.568627%,79.215686%);fill-opacity:1;" d="M 27.351562 32.320312 C 27.375 32.316406 27.390625 32.324219 27.398438 32.34375 C 27.644531 32.726562 27.839844 33.125 27.988281 33.546875 C 27.777344 33.144531 27.558594 32.746094 27.328125 32.355469 C 27.34375 32.347656 27.351562 32.335938 27.351562 32.320312 Z M 27.351562 32.320312 "/>
<path style=" stroke:none;fill-rule:evenodd;fill:rgb(94.117647%,92.54902%,89.803922%);fill-opacity:1;" d="M 38.488281 32.34375 C 38.585938 32.992188 38.367188 33.519531 37.84375 33.917969 C 37.730469 33.972656 37.617188 34.03125 37.507812 34.085938 C 37.042969 34.222656 36.578125 34.359375 36.113281 34.492188 C 35.785156 34.644531 35.445312 34.78125 35.105469 34.902344 C 34.492188 35.0625 33.886719 35.238281 33.28125 35.429688 C 32.933594 35.546875 32.613281 35.714844 32.320312 35.933594 C 32.054688 36.191406 31.800781 36.453125 31.554688 36.726562 C 31.207031 37.011719 30.824219 37.234375 30.402344 37.398438 C 29.730469 37.640625 29.066406 37.90625 28.410156 38.191406 C 27.472656 38.71875 26.523438 39.214844 25.550781 39.679688 C 24.863281 40.117188 24.222656 40.621094 23.632812 41.191406 C 23.414062 41.375 23.179688 41.542969 22.9375 41.695312 C 22.183594 42.105469 21.414062 42.488281 20.632812 42.847656 C 19.90625 43.078125 19.1875 43.316406 18.472656 43.566406 C 17.894531 43.878906 17.320312 44.191406 16.742188 44.503906 C 16.507812 44.621094 16.261719 44.671875 16 44.648438 C 15.753906 44.246094 15.632812 43.808594 15.636719 43.339844 C 16.25 43.363281 16.847656 43.292969 17.4375 43.136719 C 17.664062 43.058594 17.878906 42.960938 18.085938 42.847656 C 18.40625 42.636719 18.742188 42.453125 19.09375 42.292969 C 19.773438 42.039062 20.4375 41.75 21.085938 41.429688 C 22.46875 40.679688 23.851562 39.9375 25.238281 39.199219 C 26.332031 38.664062 27.429688 38.136719 28.527344 37.613281 C 29.203125 37.191406 29.871094 36.75 30.519531 36.292969 C 31.523438 35.660156 32.542969 35.042969 33.570312 34.445312 C 34.394531 34.039062 35.253906 33.703125 36.136719 33.4375 C 36.8125 33.171875 37.476562 32.882812 38.128906 32.574219 C 38.257812 32.507812 38.378906 32.433594 38.488281 32.34375 Z M 38.488281 32.34375 "/>
<path style=" stroke:none;fill-rule:evenodd;fill:rgb(94.117647%,92.54902%,89.803922%);fill-opacity:1;" d="M 10.621094 32.511719 C 10.65625 32.574219 10.6875 32.644531 10.71875 32.71875 C 11.027344 32.738281 11.300781 32.847656 11.535156 33.054688 C 12.152344 33.621094 12.769531 34.195312 13.382812 34.769531 C 12.707031 35.167969 11.980469 35.332031 11.199219 35.261719 C 11.375 35.253906 11.550781 35.238281 11.726562 35.214844 C 12.015625 35.101562 12.3125 35.007812 12.613281 34.925781 C 12.671875 34.792969 12.632812 34.707031 12.492188 34.671875 C 12.214844 34.761719 11.933594 34.855469 11.652344 34.949219 C 11.484375 34.957031 11.316406 34.964844 11.148438 34.972656 C 11.011719 35.015625 10.898438 35.097656 10.8125 35.214844 C 10.796875 35.230469 10.78125 35.230469 10.765625 35.214844 C 10.199219 34.558594 9.640625 33.898438 9.085938 33.234375 C 9.410156 33.058594 9.730469 32.878906 10.046875 32.691406 C 10.238281 32.625 10.429688 32.566406 10.621094 32.511719 Z M 10.621094 32.511719 "/>
<use xlink:href="#surface72" mask="url(#mask22)"/>
<path style=" stroke:none;fill-rule:evenodd;fill:rgb(94.117647%,92.54902%,89.803922%);fill-opacity:1;" d="M 19.648438 32.96875 C 19.683594 32.964844 19.714844 32.972656 19.742188 32.992188 C 20.144531 33.605469 20.507812 34.238281 20.835938 34.890625 C 19.90625 35.234375 18.984375 35.589844 18.0625 35.957031 C 18.015625 35.980469 17.96875 35.988281 17.917969 35.980469 C 17.769531 35.773438 17.621094 35.558594 17.476562 35.34375 C 17.226562 34.886719 16.957031 34.4375 16.671875 34 C 17.296875 33.816406 17.921875 33.621094 18.542969 33.414062 C 18.921875 33.28125 19.289062 33.132812 19.648438 32.96875 Z M 19.648438 32.96875 "/>
<use xlink:href="#surface75" mask="url(#mask23)"/>
<path style=" stroke:none;fill-rule:evenodd;fill:rgb(84.705882%,83.137255%,80.784314%);fill-opacity:1;" d="M 24.496094 33.304688 C 24.566406 33.324219 24.589844 33.363281 24.566406 33.425781 C 24.265625 33.5625 23.960938 33.6875 23.65625 33.796875 C 23.9375 33.632812 24.21875 33.46875 24.496094 33.304688 Z M 24.496094 33.304688 "/>
<path style=" stroke:none;fill-rule:evenodd;fill:rgb(88.627451%,87.058824%,84.705882%);fill-opacity:1;" d="M 15.902344 33.59375 C 15.988281 33.671875 16.078125 33.753906 16.167969 33.832031 C 16.128906 33.851562 16.09375 33.867188 16.058594 33.882812 C 15.992188 33.792969 15.9375 33.699219 15.902344 33.59375 Z M 15.902344 33.59375 "/>
<path style=" stroke:none;fill-rule:evenodd;fill:rgb(90.196078%,89.019608%,86.27451%);fill-opacity:1;" d="M 16.3125 34.074219 C 16.339844 34.066406 16.363281 34.074219 16.382812 34.097656 C 16.703125 34.550781 16.988281 35.023438 17.234375 35.515625 C 16.835938 35.09375 16.488281 34.640625 16.191406 34.144531 C 16.230469 34.117188 16.269531 34.09375 16.3125 34.074219 Z M 16.3125 34.074219 "/>
<path style=" stroke:none;fill-rule:evenodd;fill:rgb(94.117647%,92.54902%,89.803922%);fill-opacity:1;" d="M 15.804688 34.21875 C 15.847656 34.210938 15.890625 34.21875 15.925781 34.242188 C 16.0625 34.480469 16.210938 34.714844 16.371094 34.9375 C 16.722656 35.351562 17.070312 35.765625 17.414062 36.1875 C 17.179688 36.269531 16.941406 36.339844 16.695312 36.390625 C 16.292969 36.519531 15.902344 36.683594 15.53125 36.882812 C 15.335938 36.679688 15.152344 36.472656 14.976562 36.257812 C 14.617188 35.796875 14.253906 35.34375 13.886719 34.890625 C 14.101562 34.777344 14.324219 34.6875 14.558594 34.613281 C 14.976562 34.476562 15.390625 34.347656 15.804688 34.21875 Z M 15.804688 34.21875 "/>
<use xlink:href="#surface78" mask="url(#mask24)"/>
<path style=" stroke:none;fill-rule:evenodd;fill:rgb(94.117647%,92.54902%,89.803922%);fill-opacity:1;" d="M 13.550781 35.007812 C 13.574219 35.007812 13.597656 35.011719 13.621094 35.023438 C 14.035156 35.5 14.433594 35.992188 14.808594 36.496094 C 14.957031 36.664062 15.105469 36.832031 15.253906 37 C 14.894531 37.207031 14.535156 37.410156 14.175781 37.613281 C 14.054688 37.710938 13.960938 37.828125 13.886719 37.960938 C 13.738281 38.007812 13.589844 38.023438 13.441406 38.011719 C 12.945312 37.507812 12.441406 37.011719 11.929688 36.523438 C 11.640625 36.207031 11.355469 35.886719 11.078125 35.5625 C 11.957031 35.613281 12.78125 35.429688 13.550781 35.007812 Z M 13.550781 35.007812 "/>
<path style=" stroke:none;fill-rule:evenodd;fill:rgb(92.941176%,91.372549%,88.627451%);fill-opacity:1;" d="M 31.433594 35.371094 C 31.476562 35.367188 31.484375 35.378906 31.457031 35.40625 C 30.613281 35.910156 29.789062 36.449219 28.984375 37.015625 C 28.6875 37.203125 28.382812 37.378906 28.074219 37.542969 C 27.160156 37.972656 26.25 38.40625 25.335938 38.839844 C 23.707031 39.695312 22.082031 40.558594 20.464844 41.429688 C 19.953125 41.667969 19.429688 41.882812 18.902344 42.078125 C 18.574219 42.242188 18.253906 42.410156 17.941406 42.582031 C 18.234375 42.332031 18.546875 42.105469 18.878906 41.910156 C 19.683594 41.488281 20.492188 41.070312 21.304688 40.664062 C 22.394531 39.960938 23.507812 39.289062 24.640625 38.644531 C 25.394531 38.253906 26.15625 37.867188 26.921875 37.492188 C 28.433594 36.804688 29.941406 36.097656 31.433594 35.371094 Z M 31.433594 35.371094 "/>
<path style=" stroke:none;fill-rule:evenodd;fill:rgb(51.764706%,50.980392%,49.411765%);fill-opacity:1;" d="M 19.792969 35.585938 C 19.824219 35.546875 19.863281 35.535156 19.910156 35.550781 C 19.875 35.574219 19.835938 35.585938 19.792969 35.585938 Z M 19.792969 35.585938 "/>
<path style=" stroke:none;fill-rule:evenodd;fill:rgb(47.058824%,46.27451%,45.098039%);fill-opacity:1;" d="M 19.792969 35.585938 C 19.734375 35.632812 19.671875 35.652344 19.597656 35.644531 C 19.660156 35.613281 19.722656 35.59375 19.792969 35.585938 Z M 19.792969 35.585938 "/>
<path style=" stroke:none;fill-rule:evenodd;fill:rgb(87.058824%,85.490196%,83.137255%);fill-opacity:1;" d="M 33.882812 35.515625 C 33.90625 35.511719 33.929688 35.515625 33.953125 35.527344 C 33.75 35.605469 33.550781 35.695312 33.351562 35.789062 C 32.996094 35.976562 32.644531 36.160156 32.296875 36.34375 C 32.527344 36.097656 32.800781 35.914062 33.113281 35.789062 C 33.371094 35.691406 33.625 35.597656 33.882812 35.515625 Z M 33.882812 35.515625 "/>
<path style=" stroke:none;fill-rule:evenodd;fill:rgb(94.117647%,92.54902%,89.803922%);fill-opacity:1;" d="M 27.0625 32.488281 C 27.085938 32.5 27.105469 32.515625 27.125 32.539062 C 27.410156 33.089844 27.71875 33.632812 28.046875 34.15625 C 27.746094 34.371094 27.449219 34.597656 27.160156 34.828125 C 26.914062 35.015625 26.644531 35.152344 26.34375 35.238281 C 25.921875 35.328125 25.496094 35.417969 25.070312 35.5 C 24.605469 35.648438 24.15625 35.839844 23.726562 36.078125 C 23.078125 36.464844 22.441406 36.867188 21.808594 37.277344 C 21.566406 37.414062 21.328125 37.550781 21.085938 37.6875 C 20.460938 37.976562 19.828125 38.253906 19.191406 38.527344 C 18.738281 38.738281 18.316406 38.996094 17.917969 39.292969 C 17.488281 39.683594 17.023438 40.027344 16.527344 40.328125 C 16.117188 40.523438 15.726562 40.5 15.351562 40.253906 C 15.078125 40.023438 14.816406 39.785156 14.558594 39.535156 C 14.808594 39.6875 15.070312 39.824219 15.351562 39.941406 C 15.460938 40.003906 15.554688 40.085938 15.636719 40.183594 C 15.820312 40.203125 15.878906 40.128906 15.820312 39.953125 C 15.738281 39.882812 15.652344 39.816406 15.566406 39.75 C 15.1875 39.597656 14.84375 39.386719 14.535156 39.125 C 14.253906 38.847656 13.972656 38.566406 13.695312 38.285156 C 13.820312 38.261719 13.949219 38.246094 14.078125 38.238281 C 14.367188 38.097656 14.648438 37.9375 14.917969 37.757812 C 15.113281 37.605469 15.316406 37.457031 15.519531 37.3125 C 15.742188 37.535156 15.957031 37.765625 16.15625 38.011719 C 16.351562 38.351562 16.570312 38.679688 16.800781 38.996094 C 16.828125 39.0625 16.847656 39.136719 16.851562 39.210938 C 16.964844 39.304688 17.097656 39.359375 17.246094 39.367188 C 17.320312 39.324219 17.347656 39.265625 17.332031 39.1875 C 17.1875 39.035156 17.050781 38.875 16.921875 38.707031 C 16.601562 38.132812 16.214844 37.609375 15.757812 37.132812 C 15.917969 37.015625 16.09375 36.925781 16.285156 36.871094 C 16.617188 36.761719 16.945312 36.652344 17.269531 36.535156 C 17.390625 36.503906 17.511719 36.488281 17.628906 36.484375 C 17.765625 36.699219 17.886719 36.921875 18.003906 37.144531 C 18.097656 37.273438 18.195312 37.402344 18.289062 37.53125 C 18.582031 37.832031 18.867188 38.140625 19.144531 38.453125 C 19.300781 38.460938 19.363281 38.386719 19.324219 38.226562 C 18.976562 37.585938 18.613281 36.964844 18.230469 36.355469 C 19.238281 36.121094 20.207031 35.773438 21.136719 35.320312 C 21.316406 35.566406 21.515625 35.792969 21.734375 36.003906 C 21.847656 36.09375 21.96875 36.171875 22.09375 36.234375 C 22.152344 36.328125 22.226562 36.414062 22.3125 36.484375 C 22.378906 36.503906 22.4375 36.492188 22.492188 36.449219 C 22.511719 36.328125 22.503906 36.207031 22.46875 36.089844 C 22.398438 36.078125 22.335938 36.054688 22.277344 36.019531 C 22.1875 35.875 22.097656 35.730469 22.011719 35.585938 C 21.976562 35.535156 21.925781 35.503906 21.867188 35.488281 C 21.777344 35.359375 21.675781 35.234375 21.566406 35.117188 C 21.914062 34.921875 22.257812 34.722656 22.601562 34.515625 C 23.304688 34.246094 24.007812 33.964844 24.699219 33.664062 C 24.894531 34.089844 25.117188 34.5 25.371094 34.890625 C 25.433594 34.980469 25.519531 35.007812 25.625 34.972656 C 25.683594 34.859375 25.6875 34.746094 25.636719 34.625 C 25.546875 34.4375 25.425781 34.269531 25.277344 34.121094 C 25.179688 33.933594 25.089844 33.746094 25 33.558594 C 25.699219 33.21875 26.386719 32.863281 27.0625 32.488281 Z M 27.0625 32.488281 "/>
<path style=" stroke:none;fill-rule:evenodd;fill:rgb(76.470588%,75.294118%,72.941176%);fill-opacity:1;" d="M 18.398438 37.195312 C 18.253906 37.039062 18.148438 36.863281 18.074219 36.664062 C 18.191406 36.839844 18.296875 37.015625 18.398438 37.195312 Z M 18.398438 37.195312 "/>
<path style=" stroke:none;fill-rule:evenodd;fill:rgb(57.647059%,57.254902%,55.294118%);fill-opacity:1;" d="M 18.398438 37.195312 C 18.4375 37.207031 18.449219 37.230469 18.433594 37.265625 C 18.410156 37.25 18.398438 37.222656 18.398438 37.195312 Z M 18.398438 37.195312 "/>
<path style=" stroke:none;fill-rule:evenodd;fill:rgb(89.803922%,88.235294%,85.882353%);fill-opacity:1;" d="M 29.777344 37.914062 C 29.820312 37.910156 29.828125 37.921875 29.800781 37.949219 C 28.925781 38.46875 28.03125 38.945312 27.113281 39.390625 C 26.464844 39.667969 25.824219 39.945312 25.191406 40.230469 C 25.410156 40.085938 25.632812 39.949219 25.863281 39.824219 C 26.632812 39.453125 27.382812 39.0625 28.121094 38.644531 C 28.664062 38.375 29.214844 38.128906 29.777344 37.914062 Z M 29.777344 37.914062 "/>
<path style=" stroke:none;fill-rule:evenodd;fill:rgb(91.372549%,89.803922%,87.058824%);fill-opacity:1;" d="M 11.484375 39.546875 C 11.496094 39.523438 11.511719 39.519531 11.535156 39.535156 C 11.972656 39.917969 12.367188 40.335938 12.722656 40.792969 C 12.855469 40.925781 12.984375 41.058594 13.117188 41.191406 C 13.449219 41.398438 13.785156 41.601562 14.125 41.789062 C 14.628906 42.210938 15.15625 42.59375 15.710938 42.941406 C 15.492188 43.050781 15.277344 43.042969 15.0625 42.917969 C 14.867188 42.746094 14.683594 42.5625 14.511719 42.367188 C 14.222656 42.191406 13.933594 42.015625 13.644531 41.839844 C 12.949219 41.191406 12.304688 40.5 11.714844 39.761719 C 11.640625 39.6875 11.566406 39.613281 11.484375 39.546875 Z M 11.484375 39.546875 "/>
<use xlink:href="#surface81" mask="url(#mask25)"/>
<path style=" stroke:none;fill-rule:evenodd;fill:rgb(53.333333%,52.941176%,51.372549%);fill-opacity:1;" d="M 15.832031 43.003906 C 15.855469 43.015625 15.878906 43.027344 15.902344 43.039062 C 15.863281 43.054688 15.839844 43.042969 15.832031 43.003906 Z M 15.832031 43.003906 "/>
<use xlink:href="#surface84" mask="url(#mask26)"/>
</g>
</svg>
