<?xml version="1.0" encoding="UTF-8"?>
<svg xmlns="http://www.w3.org/2000/svg" xmlns:xlink="http://www.w3.org/1999/xlink" width="50pt" height="50pt" viewBox="0 0 50 50" version="1.1">
<defs>
<filter id="alpha" filterUnits="objectBoundingBox" x="0%" y="0%" width="100%" height="100%">
  <feColorMatrix type="matrix" in="SourceGraphic" values="0 0 0 0 1 0 0 0 0 1 0 0 0 0 1 0 0 0 1 0"/>
</filter>
<mask id="mask0">
  <g filter="url(#alpha)">
<rect x="0" y="0" width="50" height="50" style="fill:rgb(0%,0%,0%);fill-opacity:0.980392;stroke:none;"/>
  </g>
</mask>
<clipPath id="clip1">
  <rect width="50" height="50"/>
</clipPath>
<g id="surface6" clip-path="url(#clip1)">
<path style=" stroke:none;fill-rule:evenodd;fill:rgb(10.980392%,10.980392%,10.980392%);fill-opacity:1;" d="M 15.953125 7.269531 C 19.496094 7.050781 22.527344 8.167969 25.046875 10.628906 C 26.1875 11.871094 26.910156 13.324219 27.207031 14.996094 C 27.246094 15.621094 27.222656 16.246094 27.136719 16.867188 C 27.855469 16.859375 28.574219 16.867188 29.292969 16.890625 C 31.597656 17.011719 33.898438 17.109375 36.203125 17.179688 C 37.285156 17.203125 38.355469 17.316406 39.417969 17.515625 C 40.421875 17.707031 41.261719 18.179688 41.9375 18.929688 C 42.25 19.34375 42.441406 19.808594 42.515625 20.320312 C 42.574219 21.34375 42.605469 22.367188 42.609375 23.390625 C 42.675781 24.316406 43.082031 25.042969 43.832031 25.574219 C 44.761719 26.183594 45.6875 26.792969 46.617188 27.398438 C 47.140625 27.792969 47.59375 28.25 47.984375 28.765625 C 48.136719 28.988281 48.214844 29.226562 48.222656 29.488281 C 48.183594 29.558594 48.144531 29.632812 48.105469 29.703125 C 48.203125 30.023438 48.269531 30.351562 48.296875 30.6875 C 48.277344 30.746094 48.238281 30.777344 48.175781 30.78125 C 47.960938 30.746094 47.746094 30.722656 47.527344 30.710938 C 46.808594 30.566406 46.089844 30.429688 45.371094 30.300781 C 44.714844 30.292969 44.320312 30.613281 44.195312 31.261719 C 44.078125 31.949219 43.964844 32.636719 43.859375 33.324219 C 43.621094 34.636719 42.859375 35.476562 41.578125 35.84375 C 41.089844 35.976562 40.597656 36.058594 40.089844 36.085938 C 38.890625 36.097656 37.691406 36.128906 36.492188 36.179688 C 34.125 36.355469 31.757812 36.546875 29.390625 36.757812 C 27.589844 36.886719 25.816406 36.742188 24.0625 36.324219 C 22.488281 35.894531 21.296875 34.972656 20.488281 33.566406 C 19.863281 32.410156 19.480469 31.179688 19.335938 29.871094 C 19.269531 29.25 19.222656 28.625 19.195312 28 C 17.75 28.230469 16.320312 28.160156 14.898438 27.78125 C 12.019531 27.042969 9.539062 25.617188 7.460938 23.511719 C 7.140625 23.25 6.773438 23.113281 6.359375 23.105469 C 5.15625 23.300781 4.003906 23.660156 2.902344 24.183594 C 2.710938 24.398438 2.511719 24.40625 2.304688 24.207031 C 2.25 24.101562 2.230469 23.988281 2.253906 23.871094 C 2.632812 21.960938 3.535156 20.355469 4.964844 19.050781 C 5.378906 18.75 5.773438 18.421875 6.140625 18.066406 C 6.3125 13.371094 8.527344 10.054688 12.789062 8.109375 C 13.804688 7.664062 14.859375 7.382812 15.953125 7.269531 Z M 17.15625 7.941406 C 16.472656 8 15.785156 8.0625 15.089844 8.132812 C 15.761719 7.972656 16.449219 7.910156 17.15625 7.941406 Z M 41.289062 19.265625 C 41.597656 19.601562 41.78125 20.003906 41.84375 20.464844 C 41.902344 21.488281 41.933594 22.511719 41.9375 23.535156 C 41.972656 23.828125 42.027344 24.117188 42.105469 24.398438 C 41.941406 24.222656 41.820312 24.015625 41.746094 23.777344 C 41.5 23.0625 41.355469 22.324219 41.316406 21.570312 C 41.289062 20.800781 41.28125 20.035156 41.289062 19.265625 Z M 41.289062 19.265625 "/>
</g>
</defs>
<g id="surface1">
<use xlink:href="#surface6" mask="url(#mask0)"/>
<path style=" stroke:none;fill-rule:evenodd;fill:rgb(99.607843%,99.607843%,99.607843%);fill-opacity:1;" d="M 17.15625 7.941406 C 20.109375 8.015625 22.613281 9.105469 24.664062 11.203125 C 25.828125 12.542969 26.523438 14.09375 26.75 15.859375 C 26.769531 16.203125 26.800781 16.539062 26.847656 16.867188 C 26.847656 16.882812 26.847656 16.898438 26.847656 16.914062 C 26.148438 16.980469 25.460938 17.109375 24.785156 17.296875 C 24.691406 17.265625 24.609375 17.207031 24.542969 17.128906 C 23.761719 17.128906 23.054688 17.371094 22.433594 17.851562 C 21.617188 18.554688 21 19.414062 20.585938 20.417969 C 19.859375 22.296875 19.5 24.25 19.503906 26.273438 C 15.835938 26.742188 12.539062 25.835938 9.621094 23.558594 C 8.828125 22.847656 8.125 22.066406 7.507812 21.210938 C 6.367188 21.210938 5.3125 21.515625 4.34375 22.121094 C 3.941406 22.394531 3.554688 22.65625 3.191406 22.914062 C 3.664062 21.570312 4.433594 20.425781 5.496094 19.480469 C 5.898438 19.207031 6.273438 18.894531 6.621094 18.546875 C 6.738281 18.351562 6.820312 18.144531 6.863281 17.921875 C 6.84375 14.960938 7.9375 12.507812 10.148438 10.554688 C 11.429688 9.453125 12.882812 8.675781 14.515625 8.230469 C 14.621094 8.242188 14.71875 8.226562 14.804688 8.179688 C 14.910156 8.195312 15.007812 8.179688 15.089844 8.132812 C 15.785156 8.0625 16.472656 8 17.15625 7.941406 Z M 17.15625 7.941406 "/>
<path style=" stroke:none;fill-rule:evenodd;fill:rgb(12.156863%,12.156863%,12.156863%);fill-opacity:1;" d="M 14.46875 14.707031 C 14.8125 14.660156 14.929688 14.804688 14.828125 15.140625 C 14.785156 15.226562 14.746094 15.316406 14.707031 15.402344 C 14.835938 15.378906 14.964844 15.339844 15.089844 15.28125 C 15.070312 15.140625 15.054688 14.996094 15.042969 14.851562 C 15.519531 14.890625 15.6875 15.148438 15.546875 15.617188 C 15.304688 16 14.960938 16.152344 14.515625 16.074219 C 14.175781 15.96875 13.984375 15.734375 13.941406 15.378906 C 14 15.0625 14.175781 14.835938 14.46875 14.707031 Z M 14.46875 14.707031 "/>
<path style=" stroke:none;fill-rule:evenodd;fill:rgb(12.156863%,12.156863%,12.156863%);fill-opacity:1;" d="M 17.921875 14.707031 C 18.46875 14.625 18.605469 14.832031 18.332031 15.332031 C 18.242188 15.359375 18.15625 15.390625 18.066406 15.425781 C 18.15625 15.570312 18.273438 15.601562 18.425781 15.523438 C 18.457031 15.410156 18.480469 15.300781 18.5 15.1875 C 18.675781 15.179688 18.792969 15.257812 18.859375 15.425781 C 18.949219 16.042969 18.683594 16.304688 18.066406 16.21875 C 17.542969 16.074219 17.324219 15.730469 17.417969 15.1875 C 17.519531 14.953125 17.6875 14.792969 17.921875 14.707031 Z M 17.921875 14.707031 "/>
<path style=" stroke:none;fill-rule:evenodd;fill:rgb(11.764706%,11.764706%,11.764706%);fill-opacity:1;" d="M 12.164062 16.003906 C 12.347656 15.996094 12.5 16.0625 12.621094 16.195312 C 12.886719 17.597656 13.710938 18.503906 15.089844 18.90625 C 16.71875 19.347656 18.191406 19.046875 19.503906 17.996094 C 19.75 17.71875 19.992188 17.4375 20.226562 17.15625 C 20.222656 17.617188 20.070312 18.035156 19.769531 18.402344 C 19.03125 19.246094 18.09375 19.703125 16.960938 19.769531 C 15.289062 19.894531 13.875 19.359375 12.714844 18.164062 C 12.300781 17.617188 12.050781 17 11.972656 16.316406 C 12.007812 16.191406 12.070312 16.085938 12.164062 16.003906 Z M 12.164062 16.003906 "/>
<path style=" stroke:none;fill-rule:evenodd;fill:rgb(99.607843%,99.607843%,99.607843%);fill-opacity:1;" d="M 41.289062 19.265625 C 41.28125 20.035156 41.289062 20.800781 41.316406 21.570312 C 41.355469 22.324219 41.5 23.0625 41.746094 23.777344 C 41.820312 24.015625 41.941406 24.222656 42.105469 24.398438 C 42.097656 24.449219 42.113281 24.480469 42.15625 24.496094 C 42.355469 25.003906 42.660156 25.445312 43.066406 25.816406 C 44.058594 26.550781 45.082031 27.238281 46.136719 27.878906 C 46.535156 28.183594 46.902344 28.519531 47.242188 28.886719 C 46.714844 28.765625 46.1875 28.640625 45.65625 28.503906 C 43.894531 28.0625 42.925781 28.742188 42.753906 30.542969 C 42.730469 31.007812 42.699219 31.46875 42.660156 31.933594 C 42.449219 32.976562 41.832031 33.65625 40.8125 33.972656 C 40.339844 34.09375 39.859375 34.175781 39.371094 34.214844 C 37.453125 34.203125 35.53125 34.1875 33.613281 34.164062 C 31.902344 34.308594 30.191406 34.4375 28.480469 34.550781 C 26.964844 34.640625 25.460938 34.558594 23.96875 34.308594 C 23.011719 34.148438 22.25 33.675781 21.6875 32.894531 C 21.121094 31.953125 20.71875 30.945312 20.488281 29.871094 C 20.128906 27.816406 20.082031 25.75 20.34375 23.679688 C 20.363281 23.480469 20.410156 23.289062 20.488281 23.105469 C 20.800781 23.214844 20.96875 23.105469 20.992188 22.769531 C 20.964844 22.546875 20.839844 22.453125 20.609375 22.480469 C 20.65625 22.175781 20.734375 21.878906 20.847656 21.59375 C 21.183594 21.578125 21.519531 21.5625 21.855469 21.546875 C 22.105469 21.492188 22.175781 21.355469 22.074219 21.136719 C 21.96875 21.066406 21.863281 20.992188 21.761719 20.921875 C 21.535156 20.914062 21.3125 20.890625 21.089844 20.847656 C 21.199219 20.648438 21.292969 20.4375 21.378906 20.226562 C 21.539062 20.167969 21.699219 20.175781 21.855469 20.25 C 22.207031 20.28125 22.5625 20.28125 22.914062 20.25 C 23.058594 20.183594 23.203125 20.109375 23.34375 20.035156 C 23.441406 19.832031 23.375 19.714844 23.152344 19.671875 C 22.703125 19.632812 22.253906 19.574219 21.808594 19.503906 C 21.941406 19.214844 22.148438 19.003906 22.433594 18.882812 C 22.910156 18.933594 23.390625 18.941406 23.871094 18.90625 C 24.039062 18.871094 24.195312 18.824219 24.351562 18.761719 C 24.414062 18.675781 24.414062 18.585938 24.351562 18.5 C 24.242188 18.441406 24.128906 18.386719 24.015625 18.332031 C 23.683594 18.273438 23.347656 18.238281 23.007812 18.234375 C 23.472656 17.921875 23.984375 17.746094 24.542969 17.707031 C 24.617188 17.617188 24.714844 17.566406 24.832031 17.5625 C 26.609375 17.53125 28.382812 17.53125 30.160156 17.5625 C 32.730469 17.71875 35.308594 17.847656 37.882812 17.945312 C 38.953125 17.980469 39.945312 18.269531 40.859375 18.808594 C 41.046875 18.925781 41.191406 19.078125 41.289062 19.265625 Z M 41.289062 19.265625 "/>
<path style=" stroke:none;fill-rule:evenodd;fill:rgb(11.764706%,11.764706%,11.764706%);fill-opacity:1;" d="M 25.742188 24.59375 C 26.070312 24.574219 26.390625 24.613281 26.703125 24.710938 C 26.894531 25.046875 26.800781 25.25 26.414062 25.3125 C 26.003906 25.175781 25.660156 25.273438 25.382812 25.601562 C 25.320312 26.085938 25.527344 26.339844 26.007812 26.367188 C 26.738281 26.34375 27.082031 25.976562 27.039062 25.265625 C 27.394531 25.621094 27.417969 26.003906 27.109375 26.414062 C 26.59375 26.96875 25.980469 27.121094 25.265625 26.871094 C 24.691406 26.40625 24.558594 25.839844 24.855469 25.167969 C 25.09375 24.882812 25.390625 24.691406 25.742188 24.59375 Z M 25.742188 24.59375 "/>
<path style=" stroke:none;fill-rule:evenodd;fill:rgb(12.54902%,12.54902%,12.54902%);fill-opacity:1;" d="M 34.429688 24.6875 C 34.640625 24.683594 34.847656 24.707031 35.054688 24.761719 C 35.117188 24.835938 35.148438 24.925781 35.148438 25.023438 C 35.609375 25.109375 35.867188 25.390625 35.917969 25.863281 C 35.792969 26.578125 35.367188 26.988281 34.644531 27.085938 C 34.035156 27.003906 33.699219 26.652344 33.636719 26.03125 C 33.570312 25.386719 33.835938 24.9375 34.429688 24.6875 Z M 34.429688 24.6875 "/>
<path style=" stroke:none;fill-rule:evenodd;fill:rgb(12.156863%,12.156863%,12.156863%);fill-opacity:1;" d="M 30.160156 24.734375 C 30.367188 24.726562 30.574219 24.734375 30.78125 24.761719 C 31.046875 24.972656 31.03125 25.167969 30.734375 25.335938 C 30.015625 25.285156 29.6875 25.613281 29.75 26.320312 C 29.914062 26.652344 30.175781 26.773438 30.542969 26.679688 C 31.242188 26.433594 31.417969 25.984375 31.070312 25.335938 C 31.085938 25.3125 31.101562 25.289062 31.117188 25.265625 C 31.578125 25.527344 31.730469 25.910156 31.574219 26.414062 C 31.207031 27.140625 30.621094 27.417969 29.824219 27.253906 C 29.183594 26.902344 28.953125 26.367188 29.125 25.648438 C 29.316406 25.160156 29.660156 24.855469 30.160156 24.734375 Z M 30.160156 24.734375 "/>
<path style=" stroke:none;fill-rule:evenodd;fill:rgb(97.254902%,97.254902%,97.254902%);fill-opacity:1;" d="M 35.148438 25.070312 C 35.621094 25.535156 35.589844 25.957031 35.054688 26.34375 C 34.53125 26.558594 34.261719 26.382812 34.238281 25.816406 C 34.265625 25.644531 34.347656 25.5 34.476562 25.382812 C 34.671875 25.339844 34.863281 25.292969 35.054688 25.238281 C 35.089844 25.1875 35.125 25.128906 35.148438 25.070312 Z M 35.148438 25.070312 "/>
</g>
</svg>
