<?xml version="1.0" encoding="UTF-8"?>
<svg xmlns="http://www.w3.org/2000/svg" xmlns:xlink="http://www.w3.org/1999/xlink" width="50pt" height="50pt" viewBox="0 0 50 50" version="1.1">
<defs>
<filter id="alpha" filterUnits="objectBoundingBox" x="0%" y="0%" width="100%" height="100%">
  <feColorMatrix type="matrix" in="SourceGraphic" values="0 0 0 0 1 0 0 0 0 1 0 0 0 0 1 0 0 0 1 0"/>
</filter>
<mask id="mask0">
  <g filter="url(#alpha)">
<rect x="0" y="0" width="50" height="50" style="fill:rgb(0%,0%,0%);fill-opacity:0.945098;stroke:none;"/>
  </g>
</mask>
<clipPath id="clip1">
  <rect width="50" height="50"/>
</clipPath>
<g id="surface6" clip-path="url(#clip1)">
<path style=" stroke:none;fill-rule:evenodd;fill:rgb(0%,0%,0%);fill-opacity:1;" d="M 31.742188 3.527344 C 31.859375 3.550781 31.972656 3.59375 32.078125 3.648438 C 31.78125 4.28125 31.675781 4.945312 31.765625 5.636719 C 31.882812 5.992188 32.113281 6.242188 32.460938 6.382812 C 32.925781 6.5 33.390625 6.609375 33.851562 6.71875 C 34.039062 6.914062 34.039062 7.113281 33.851562 7.316406 C 33.777344 7.34375 33.695312 7.359375 33.613281 7.367188 C 32.882812 7.210938 32.164062 7.019531 31.453125 6.789062 C 31.421875 6.804688 31.390625 6.820312 31.359375 6.835938 C 31.28125 7.007812 31.222656 7.183594 31.191406 7.367188 C 31.203125 8.070312 31.203125 8.773438 31.191406 9.476562 C 31.164062 9.667969 31.09375 9.835938 30.972656 9.980469 C 30.664062 10.023438 30.433594 9.902344 30.277344 9.621094 C 30.203125 9.273438 30.1875 8.921875 30.230469 8.566406 C 30.34375 8.101562 30.453125 7.636719 30.566406 7.171875 C 30.597656 6.933594 30.597656 6.695312 30.566406 6.453125 C 30.511719 6.351562 30.441406 6.265625 30.351562 6.191406 C 29.832031 5.890625 29.320312 5.578125 28.816406 5.253906 C 28.609375 4.988281 28.675781 4.8125 29.007812 4.726562 C 29.566406 4.921875 30.117188 5.128906 30.664062 5.351562 C 30.785156 4.914062 30.925781 4.480469 31.09375 4.054688 C 31.183594 3.933594 31.269531 3.816406 31.359375 3.695312 C 31.484375 3.625 31.613281 3.566406 31.742188 3.527344 Z M 31.742188 3.527344 "/>
</g>
<mask id="mask1">
  <g filter="url(#alpha)">
<rect x="0" y="0" width="50" height="50" style="fill:rgb(0%,0%,0%);fill-opacity:0.941176;stroke:none;"/>
  </g>
</mask>
<clipPath id="clip2">
  <rect width="50" height="50"/>
</clipPath>
<g id="surface9" clip-path="url(#clip2)">
<path style=" stroke:none;fill-rule:evenodd;fill:rgb(0%,0%,0%);fill-opacity:1;" d="M 13.410156 3.574219 C 13.703125 3.558594 13.992188 3.582031 14.277344 3.648438 C 14.523438 3.941406 14.636719 4.285156 14.609375 4.679688 C 14.601562 5.003906 14.5625 5.320312 14.492188 5.636719 C 14.210938 6.5625 13.9375 7.492188 13.675781 8.421875 C 13.566406 8.851562 13.550781 9.285156 13.628906 9.71875 C 15.148438 9.007812 16.660156 8.28125 18.164062 7.535156 C 18.230469 7.496094 18.296875 7.503906 18.355469 7.558594 C 18.417969 7.703125 18.480469 7.84375 18.546875 7.988281 C 16.925781 9.03125 15.261719 10.015625 13.554688 10.941406 C 13.277344 11.082031 13.0625 11.027344 12.90625 10.773438 C 12.65625 10.113281 12.625 9.441406 12.8125 8.757812 C 13.109375 7.753906 13.398438 6.746094 13.675781 5.734375 C 13.792969 5.289062 13.761719 4.859375 13.578125 4.4375 C 13.542969 4.375 13.484375 4.34375 13.410156 4.34375 C 12.175781 4.511719 11.105469 5.015625 10.195312 5.855469 C 10.058594 5.929688 9.914062 5.996094 9.765625 6.046875 C 9.472656 6.058594 9.3125 5.914062 9.285156 5.613281 C 9.289062 5.484375 9.335938 5.371094 9.429688 5.277344 C 9.699219 5.078125 9.988281 4.902344 10.292969 4.75 C 11.320312 4.304688 12.359375 3.914062 13.410156 3.574219 Z M 13.410156 3.574219 "/>
</g>
<mask id="mask2">
  <g filter="url(#alpha)">
<rect x="0" y="0" width="50" height="50" style="fill:rgb(0%,0%,0%);fill-opacity:0.945098;stroke:none;"/>
  </g>
</mask>
<clipPath id="clip3">
  <rect width="50" height="50"/>
</clipPath>
<g id="surface12" clip-path="url(#clip3)">
<path style=" stroke:none;fill-rule:evenodd;fill:rgb(0%,0%,0%);fill-opacity:1;" d="M 21.425781 4.535156 C 22.023438 4.515625 22.464844 4.773438 22.746094 5.300781 C 23.152344 6.105469 23.074219 6.855469 22.503906 7.558594 C 21.855469 8.359375 21.015625 8.734375 19.984375 8.683594 C 19.453125 8.601562 19.09375 8.304688 18.90625 7.796875 C 18.601562 6.78125 18.863281 5.941406 19.699219 5.277344 C 20.222656 4.902344 20.796875 4.65625 21.425781 4.535156 Z M 21.519531 5.253906 C 21.832031 5.300781 22.03125 5.476562 22.121094 5.78125 C 22.226562 6.191406 22.164062 6.574219 21.929688 6.933594 C 21.582031 7.519531 21.070312 7.855469 20.394531 7.941406 C 19.898438 7.941406 19.636719 7.695312 19.601562 7.199219 C 19.625 7.035156 19.679688 6.882812 19.769531 6.742188 C 20.21875 6.074219 20.804688 5.578125 21.519531 5.253906 Z M 21.519531 5.253906 "/>
</g>
<mask id="mask3">
  <g filter="url(#alpha)">
<rect x="0" y="0" width="50" height="50" style="fill:rgb(0%,0%,0%);fill-opacity:0.952941;stroke:none;"/>
  </g>
</mask>
<clipPath id="clip4">
  <rect width="50" height="50"/>
</clipPath>
<g id="surface15" clip-path="url(#clip4)">
<path style=" stroke:none;fill-rule:evenodd;fill:rgb(0%,0%,0%);fill-opacity:1;" d="M 23.824219 4.582031 C 24.042969 4.574219 24.191406 4.671875 24.28125 4.871094 C 24.511719 5.351562 24.703125 5.847656 24.855469 6.359375 C 25.097656 5.855469 25.425781 5.414062 25.839844 5.039062 C 26.324219 4.742188 26.835938 4.695312 27.375 4.894531 C 27.808594 5.148438 27.953125 5.507812 27.808594 5.972656 C 27.414062 6.171875 27.109375 6.085938 26.894531 5.710938 C 26.582031 5.59375 26.320312 5.667969 26.105469 5.925781 C 25.878906 6.308594 25.757812 6.726562 25.742188 7.171875 C 25.824219 7.601562 25.847656 8.035156 25.816406 8.46875 C 25.777344 8.507812 25.734375 8.550781 25.695312 8.589844 C 25.429688 8.652344 25.191406 8.601562 24.976562 8.445312 C 24.222656 7.449219 23.757812 6.332031 23.585938 5.085938 C 23.589844 4.878906 23.671875 4.710938 23.824219 4.582031 Z M 23.824219 4.582031 "/>
</g>
<mask id="mask4">
  <g filter="url(#alpha)">
<rect x="0" y="0" width="50" height="50" style="fill:rgb(0%,0%,0%);fill-opacity:0.929412;stroke:none;"/>
  </g>
</mask>
<clipPath id="clip5">
  <rect width="50" height="50"/>
</clipPath>
<g id="surface18" clip-path="url(#clip5)">
<path style=" stroke:none;fill-rule:evenodd;fill:rgb(66.27451%,23.137255%,17.647059%);fill-opacity:1;" d="M 42.347656 6.550781 C 42.671875 6.515625 42.871094 6.660156 42.945312 6.980469 C 43.136719 7.632812 43.304688 8.289062 43.449219 8.949219 C 44.085938 9.148438 44.707031 9.378906 45.320312 9.644531 C 45.625 9.816406 45.6875 10.058594 45.511719 10.363281 C 44.894531 10.691406 44.257812 10.960938 43.59375 11.179688 C 43.3125 11.707031 43.046875 12.242188 42.800781 12.789062 C 42.679688 13.007812 42.527344 13.210938 42.347656 13.386719 C 42.148438 13.445312 41.980469 13.40625 41.84375 13.269531 C 41.527344 12.5625 41.28125 11.835938 41.097656 11.085938 C 40.464844 10.960938 39.839844 10.800781 39.226562 10.605469 C 38.6875 10.355469 38.65625 10.054688 39.132812 9.691406 C 39.792969 9.3125 40.480469 8.984375 41.195312 8.710938 C 41.40625 8.210938 41.621094 7.714844 41.84375 7.222656 C 41.96875 6.960938 42.136719 6.738281 42.347656 6.550781 Z M 42.394531 7.507812 C 42.445312 7.515625 42.480469 7.546875 42.492188 7.605469 C 42.621094 8.171875 42.773438 8.730469 42.945312 9.285156 C 43.019531 9.375 43.109375 9.445312 43.210938 9.5 C 43.71875 9.664062 44.214844 9.855469 44.699219 10.078125 C 44.175781 10.304688 43.648438 10.511719 43.113281 10.699219 C 42.828125 11.308594 42.527344 11.910156 42.203125 12.5 C 41.976562 11.855469 41.769531 11.210938 41.578125 10.554688 C 40.949219 10.425781 40.324219 10.273438 39.707031 10.101562 C 40.328125 9.765625 40.96875 9.46875 41.625 9.214844 C 41.894531 8.652344 42.152344 8.085938 42.394531 7.507812 Z M 42.394531 7.507812 "/>
</g>
<mask id="mask5">
  <g filter="url(#alpha)">
<rect x="0" y="0" width="50" height="50" style="fill:rgb(0%,0%,0%);fill-opacity:0.941176;stroke:none;"/>
  </g>
</mask>
<clipPath id="clip6">
  <rect width="50" height="50"/>
</clipPath>
<g id="surface21" clip-path="url(#clip6)">
<path style=" stroke:none;fill-rule:evenodd;fill:rgb(0%,0%,0%);fill-opacity:1;" d="M 35.4375 7.703125 C 36.175781 7.625 36.808594 7.851562 37.332031 8.375 C 37.871094 9.375 37.625 10.117188 36.589844 10.605469 C 35.703125 10.902344 34.894531 10.765625 34.164062 10.195312 C 34.089844 10.316406 34.074219 10.441406 34.117188 10.582031 C 34.347656 11.011719 34.675781 11.355469 35.101562 11.613281 C 35.496094 11.8125 35.894531 12.003906 36.300781 12.1875 C 36.382812 12.265625 36.472656 12.335938 36.5625 12.402344 C 36.691406 12.617188 36.648438 12.785156 36.445312 12.90625 C 36.140625 12.953125 35.855469 12.902344 35.582031 12.765625 C 34.851562 12.4375 34.238281 11.964844 33.734375 11.347656 C 33.21875 10.453125 33.269531 9.589844 33.878906 8.757812 C 34.277344 8.21875 34.796875 7.867188 35.4375 7.703125 Z M 35.675781 8.515625 C 36.074219 8.472656 36.417969 8.582031 36.707031 8.851562 C 36.867188 9.371094 36.683594 9.730469 36.15625 9.933594 C 35.648438 10.007812 35.210938 9.875 34.835938 9.523438 C 34.820312 9.464844 34.796875 9.410156 34.765625 9.355469 C 34.925781 8.914062 35.230469 8.636719 35.675781 8.515625 Z M 35.675781 8.515625 "/>
</g>
<mask id="mask6">
  <g filter="url(#alpha)">
<rect x="0" y="0" width="50" height="50" style="fill:rgb(0%,0%,0%);fill-opacity:0.984314;stroke:none;"/>
  </g>
</mask>
<clipPath id="clip7">
  <rect width="50" height="50"/>
</clipPath>
<g id="surface24" clip-path="url(#clip7)">
<path style=" stroke:none;fill-rule:evenodd;fill:rgb(62.745098%,57.254902%,58.823529%);fill-opacity:1;" d="M 23.199219 12.644531 C 24.101562 12.554688 24.8125 12.875 25.335938 13.605469 C 25.488281 13.878906 25.617188 14.167969 25.71875 14.46875 C 26.503906 13.488281 27.457031 13.289062 28.574219 13.867188 C 29.65625 14.679688 29.984375 15.726562 29.558594 17.011719 C 29.402344 17.324219 29.210938 17.613281 28.984375 17.875 C 27.925781 18.582031 26.890625 19.324219 25.886719 20.105469 C 25.265625 20.628906 24.675781 21.191406 24.113281 21.785156 C 25.824219 21.105469 27.519531 20.371094 29.199219 19.578125 C 30.054688 19.21875 30.917969 19.1875 31.789062 19.480469 C 32.925781 20.015625 33.382812 20.90625 33.15625 22.144531 C 32.847656 22.964844 32.265625 23.484375 31.40625 23.703125 C 32.390625 24.484375 32.59375 25.4375 32.003906 26.558594 C 31.195312 27.640625 30.148438 27.96875 28.863281 27.542969 C 28.335938 27.269531 27.894531 26.894531 27.542969 26.414062 C 26.609375 24.808594 25.457031 23.371094 24.089844 22.097656 C 24.769531 23.808594 25.503906 25.503906 26.296875 27.183594 C 26.722656 28.171875 26.707031 29.144531 26.246094 30.109375 C 25.390625 31.292969 24.328125 31.527344 23.054688 30.804688 C 22.777344 30.574219 22.5625 30.292969 22.410156 29.964844 C 22.265625 32.773438 22.394531 35.574219 22.792969 38.363281 C 22.933594 39.332031 23.082031 40.300781 23.25 41.265625 C 23.207031 41.617188 23.015625 41.722656 22.671875 41.578125 C 22.621094 41.523438 22.582031 41.457031 22.554688 41.386719 C 21.925781 37.507812 21.714844 33.601562 21.929688 29.679688 C 21.292969 30.3125 20.550781 30.480469 19.699219 30.183594 C 18.445312 29.539062 17.957031 28.523438 18.234375 27.136719 C 18.429688 26.546875 18.773438 26.058594 19.265625 25.671875 C 20.925781 24.679688 22.429688 23.480469 23.777344 22.074219 C 22.105469 22.722656 20.457031 23.445312 18.832031 24.230469 C 17.976562 24.617188 17.09375 24.679688 16.195312 24.425781 C 14.996094 23.90625 14.507812 23.003906 14.730469 21.714844 C 14.898438 21.175781 15.226562 20.769531 15.714844 20.488281 C 15.949219 20.363281 16.191406 20.25 16.433594 20.152344 C 15.4375 19.253906 15.304688 18.234375 16.027344 17.105469 C 16.847656 16.175781 17.847656 15.910156 19.027344 16.316406 C 19.488281 16.535156 19.878906 16.847656 20.203125 17.25 C 21.195312 18.910156 22.394531 20.414062 23.800781 21.761719 C 23.121094 20.046875 22.382812 18.351562 21.59375 16.675781 C 21.257812 15.859375 21.210938 15.027344 21.449219 14.179688 C 21.769531 13.359375 22.355469 12.847656 23.199219 12.644531 Z M 23.199219 12.644531 "/>
</g>
<mask id="mask7">
  <g filter="url(#alpha)">
<rect x="0" y="0" width="50" height="50" style="fill:rgb(0%,0%,0%);fill-opacity:0.945098;stroke:none;"/>
  </g>
</mask>
<clipPath id="clip8">
  <rect width="50" height="50"/>
</clipPath>
<g id="surface27" clip-path="url(#clip8)">
<path style=" stroke:none;fill-rule:evenodd;fill:rgb(0%,0%,0%);fill-opacity:1;" d="M 40.90625 15.1875 C 41.714844 15.113281 42.4375 15.328125 43.066406 15.835938 C 43.382812 16.117188 43.660156 16.429688 43.90625 16.769531 C 44.144531 17.316406 44.078125 17.828125 43.714844 18.304688 C 43.15625 18.992188 42.441406 19.207031 41.578125 18.953125 C 40.523438 18.683594 39.828125 18.035156 39.492188 17.011719 C 39.445312 16.730469 39.476562 16.457031 39.585938 16.195312 C 39.886719 15.667969 40.328125 15.332031 40.90625 15.1875 Z M 40.859375 16.097656 C 41.558594 16.175781 42.214844 16.390625 42.828125 16.746094 C 43.53125 17.234375 43.496094 17.679688 42.730469 18.089844 C 41.859375 18.316406 41.117188 18.101562 40.5 17.441406 C 40.085938 16.847656 40.207031 16.398438 40.859375 16.097656 Z M 40.859375 16.097656 "/>
</g>
<mask id="mask8">
  <g filter="url(#alpha)">
<rect x="0" y="0" width="50" height="50" style="fill:rgb(0%,0%,0%);fill-opacity:0.945098;stroke:none;"/>
  </g>
</mask>
<clipPath id="clip9">
  <rect width="50" height="50"/>
</clipPath>
<g id="surface30" clip-path="url(#clip9)">
<path style=" stroke:none;fill-rule:evenodd;fill:rgb(66.27451%,23.137255%,17.647059%);fill-opacity:1;" d="M 5.351562 17.730469 C 5.542969 17.6875 5.675781 17.75 5.757812 17.921875 C 6.015625 18.796875 6.257812 19.675781 6.476562 20.5625 C 6.839844 19.96875 7.175781 19.359375 7.484375 18.738281 C 7.660156 18.503906 7.851562 18.488281 8.0625 18.691406 C 8.109375 18.785156 8.125 18.878906 8.109375 18.976562 C 7.652344 19.890625 7.199219 20.800781 6.742188 21.714844 C 6.78125 21.859375 6.832031 22.003906 6.886719 22.144531 C 7.914062 21.753906 8.980469 21.515625 10.078125 21.425781 C 10.394531 21.46875 10.507812 21.644531 10.414062 21.953125 C 10.363281 22.039062 10.292969 22.09375 10.195312 22.121094 C 9.300781 22.261719 8.421875 22.46875 7.558594 22.746094 C 7.988281 23.105469 8.4375 23.441406 8.902344 23.753906 C 9.742188 24.226562 10.589844 24.691406 11.445312 25.144531 C 11.691406 25.304688 11.746094 25.519531 11.613281 25.792969 C 11.480469 25.960938 11.3125 26.015625 11.109375 25.960938 C 10.199219 25.503906 9.300781 25.023438 8.421875 24.519531 C 7.96875 24.230469 7.546875 23.902344 7.148438 23.535156 C 7.234375 24.269531 7.28125 25.003906 7.292969 25.742188 C 7.058594 25.996094 6.820312 25.996094 6.574219 25.742188 C 6.492188 24.894531 6.402344 24.046875 6.308594 23.199219 C 6.144531 23.183594 6.023438 23.246094 5.949219 23.390625 C 5.15625 25.164062 4.757812 27.019531 4.75 28.957031 C 4.46875 29.273438 4.179688 29.273438 3.886719 28.957031 C 3.828125 27.136719 4.171875 25.394531 4.917969 23.726562 C 4.269531 23.839844 3.644531 24.058594 3.046875 24.375 C 2.601562 24.425781 2.472656 24.25 2.664062 23.847656 C 3.539062 23.433594 4.433594 23.066406 5.351562 22.746094 C 5.453125 22.566406 5.546875 22.378906 5.636719 22.191406 C 4.40625 21 3.199219 19.785156 2.015625 18.546875 C 1.886719 18.128906 2.039062 17.945312 2.472656 17.996094 C 3.585938 19.140625 4.730469 20.253906 5.902344 21.328125 C 5.710938 20.222656 5.460938 19.128906 5.160156 18.042969 C 5.175781 17.902344 5.238281 17.796875 5.351562 17.730469 Z M 5.351562 17.730469 "/>
</g>
<mask id="mask9">
  <g filter="url(#alpha)">
<rect x="0" y="0" width="50" height="50" style="fill:rgb(0%,0%,0%);fill-opacity:0.945098;stroke:none;"/>
  </g>
</mask>
<clipPath id="clip10">
  <rect width="50" height="50"/>
</clipPath>
<g id="surface33" clip-path="url(#clip10)">
<path style=" stroke:none;fill-rule:evenodd;fill:rgb(0%,0%,0%);fill-opacity:1;" d="M 43.738281 19.121094 C 43.890625 19.109375 44.03125 19.132812 44.167969 19.195312 C 44.253906 19.320312 44.316406 19.457031 44.363281 19.601562 C 44.128906 19.742188 43.90625 19.894531 43.691406 20.058594 C 43.582031 20.175781 43.488281 20.304688 43.402344 20.441406 C 44.113281 20.457031 44.699219 20.738281 45.152344 21.28125 C 45.601562 22.117188 45.484375 22.863281 44.792969 23.511719 C 44.183594 23.933594 43.519531 24.246094 42.800781 24.449219 C 42.65625 24.246094 42.574219 24.023438 42.5625 23.777344 C 43.273438 23.5 43.910156 23.117188 44.480469 22.625 C 44.632812 22.421875 44.695312 22.199219 44.671875 21.953125 C 44.5 21.6875 44.253906 21.535156 43.929688 21.496094 C 43.5 21.464844 43.066406 21.464844 42.632812 21.496094 C 42.363281 21.546875 42.089844 21.578125 41.820312 21.59375 C 41.605469 21.210938 41.648438 20.851562 41.9375 20.511719 C 42.503906 19.996094 43.101562 19.53125 43.738281 19.121094 Z M 43.738281 19.121094 "/>
</g>
<mask id="mask10">
  <g filter="url(#alpha)">
<rect x="0" y="0" width="50" height="50" style="fill:rgb(0%,0%,0%);fill-opacity:0.929412;stroke:none;"/>
  </g>
</mask>
<clipPath id="clip11">
  <rect width="50" height="50"/>
</clipPath>
<g id="surface36" clip-path="url(#clip11)">
<path style=" stroke:none;fill-rule:evenodd;fill:rgb(0%,0%,0%);fill-opacity:1;" d="M 48.152344 23.921875 C 48.480469 23.855469 48.632812 23.984375 48.609375 24.304688 C 48.433594 24.492188 48.21875 24.613281 47.960938 24.664062 C 47.027344 24.808594 46.097656 24.984375 45.175781 25.191406 C 44.742188 25.300781 44.542969 25.132812 44.578125 24.6875 C 44.707031 24.613281 44.839844 24.558594 44.984375 24.519531 C 46.042969 24.296875 47.097656 24.097656 48.152344 23.921875 Z M 48.152344 23.921875 "/>
</g>
<mask id="mask11">
  <g filter="url(#alpha)">
<rect x="0" y="0" width="50" height="50" style="fill:rgb(0%,0%,0%);fill-opacity:0.890196;stroke:none;"/>
  </g>
</mask>
<clipPath id="clip12">
  <rect width="50" height="50"/>
</clipPath>
<g id="surface39" clip-path="url(#clip12)">
<path style=" stroke:none;fill-rule:evenodd;fill:rgb(0%,0%,0%);fill-opacity:1;" d="M 42.828125 24.832031 C 43.300781 24.917969 43.453125 25.1875 43.28125 25.648438 C 43.191406 25.777344 43.074219 25.816406 42.921875 25.769531 C 42.578125 25.484375 42.542969 25.171875 42.828125 24.832031 Z M 42.828125 24.832031 "/>
</g>
<mask id="mask12">
  <g filter="url(#alpha)">
<rect x="0" y="0" width="50" height="50" style="fill:rgb(0%,0%,0%);fill-opacity:0.847059;stroke:none;"/>
  </g>
</mask>
<clipPath id="clip13">
  <rect width="50" height="50"/>
</clipPath>
<g id="surface42" clip-path="url(#clip13)">
<path style=" stroke:none;fill-rule:evenodd;fill:rgb(62.745098%,57.254902%,58.823529%);fill-opacity:1;" d="M 13.363281 30.351562 C 13.640625 30.332031 13.910156 30.359375 14.179688 30.421875 C 14.242188 30.507812 14.242188 30.597656 14.179688 30.6875 C 13.910156 30.734375 13.636719 30.75 13.363281 30.734375 C 13.363281 30.605469 13.363281 30.476562 13.363281 30.351562 Z M 13.363281 30.351562 "/>
</g>
<mask id="mask13">
  <g filter="url(#alpha)">
<rect x="0" y="0" width="50" height="50" style="fill:rgb(0%,0%,0%);fill-opacity:0.870588;stroke:none;"/>
  </g>
</mask>
<clipPath id="clip14">
  <rect width="50" height="50"/>
</clipPath>
<g id="surface45" clip-path="url(#clip14)">
<path style=" stroke:none;fill-rule:evenodd;fill:rgb(62.745098%,57.254902%,58.823529%);fill-opacity:1;" d="M 12.355469 30.398438 C 12.515625 30.390625 12.675781 30.398438 12.835938 30.421875 C 12.964844 30.550781 12.949219 30.664062 12.789062 30.757812 C 12.515625 30.800781 12.246094 30.820312 11.972656 30.804688 C 11.921875 30.722656 11.914062 30.636719 11.949219 30.542969 C 12.082031 30.476562 12.21875 30.429688 12.355469 30.398438 Z M 12.355469 30.398438 "/>
</g>
<mask id="mask14">
  <g filter="url(#alpha)">
<rect x="0" y="0" width="50" height="50" style="fill:rgb(0%,0%,0%);fill-opacity:0.941176;stroke:none;"/>
  </g>
</mask>
<clipPath id="clip15">
  <rect width="50" height="50"/>
</clipPath>
<g id="surface48" clip-path="url(#clip15)">
<path style=" stroke:none;fill-rule:evenodd;fill:rgb(62.745098%,57.254902%,58.823529%);fill-opacity:1;" d="M 31.117188 30.398438 C 31.269531 30.375 31.40625 30.40625 31.527344 30.496094 C 31.78125 31.390625 32.039062 32.285156 32.292969 33.179688 C 32.628906 32.574219 32.964844 31.964844 33.300781 31.359375 C 33.511719 31.160156 33.703125 31.175781 33.878906 31.40625 C 33.910156 31.5 33.910156 31.597656 33.878906 31.695312 C 33.457031 32.550781 33.027344 33.398438 32.582031 34.238281 C 32.554688 34.398438 32.570312 34.558594 32.628906 34.71875 C 32.65625 34.742188 32.6875 34.757812 32.726562 34.765625 C 33.816406 34.335938 34.945312 34.128906 36.109375 34.140625 C 36.308594 34.363281 36.292969 34.5625 36.058594 34.742188 C 35.140625 34.878906 34.246094 35.105469 33.375 35.414062 C 33.746094 35.75 34.148438 36.054688 34.574219 36.324219 C 35.484375 36.859375 36.414062 37.371094 37.355469 37.859375 C 37.558594 38.125 37.527344 38.367188 37.261719 38.578125 C 37.132812 38.613281 37.003906 38.613281 36.875 38.578125 C 36.019531 38.144531 35.171875 37.695312 34.332031 37.234375 C 33.851562 36.914062 33.386719 36.570312 32.941406 36.203125 C 32.925781 36.21875 32.910156 36.238281 32.894531 36.253906 C 33 36.902344 33.082031 37.558594 33.132812 38.21875 C 33.039062 38.546875 32.828125 38.652344 32.507812 38.53125 C 32.433594 38.472656 32.378906 38.402344 32.339844 38.316406 C 32.292969 37.511719 32.207031 36.710938 32.078125 35.917969 C 32.0625 35.882812 32.046875 35.851562 32.03125 35.820312 C 31.96875 35.847656 31.902344 35.875 31.835938 35.890625 C 30.980469 37.671875 30.554688 39.550781 30.566406 41.53125 C 30.503906 41.746094 30.359375 41.84375 30.132812 41.820312 C 29.882812 41.835938 29.722656 41.722656 29.65625 41.484375 C 29.636719 39.691406 29.996094 37.980469 30.734375 36.347656 C 30.71875 36.332031 30.703125 36.316406 30.6875 36.300781 C 30.003906 36.527344 29.332031 36.785156 28.671875 37.066406 C 28.359375 36.980469 28.277344 36.796875 28.429688 36.515625 C 29.304688 36.089844 30.199219 35.714844 31.117188 35.390625 C 31.234375 35.214844 31.328125 35.03125 31.40625 34.835938 C 30.34375 33.804688 29.296875 32.757812 28.261719 31.695312 C 28.136719 31.519531 27.992188 31.359375 27.832031 31.214844 C 27.671875 30.894531 27.757812 30.6875 28.09375 30.589844 C 28.164062 30.601562 28.226562 30.625 28.285156 30.664062 C 29.402344 31.808594 30.546875 32.921875 31.71875 33.996094 C 31.507812 32.9375 31.269531 31.882812 31 30.832031 C 30.945312 30.65625 30.988281 30.511719 31.117188 30.398438 Z M 31.117188 30.398438 "/>
</g>
<mask id="mask15">
  <g filter="url(#alpha)">
<rect x="0" y="0" width="50" height="50" style="fill:rgb(0%,0%,0%);fill-opacity:0.843137;stroke:none;"/>
  </g>
</mask>
<clipPath id="clip16">
  <rect width="50" height="50"/>
</clipPath>
<g id="surface51" clip-path="url(#clip16)">
<path style=" stroke:none;fill-rule:evenodd;fill:rgb(62.745098%,57.254902%,58.823529%);fill-opacity:1;" d="M 11.394531 30.589844 C 11.625 30.621094 11.6875 30.742188 11.589844 30.949219 C 11.351562 31.03125 11.109375 31.101562 10.867188 31.167969 C 10.625 31.136719 10.574219 31.023438 10.722656 30.832031 C 10.953125 30.75 11.175781 30.667969 11.394531 30.589844 Z M 11.394531 30.589844 "/>
</g>
<mask id="mask16">
  <g filter="url(#alpha)">
<rect x="0" y="0" width="50" height="50" style="fill:rgb(0%,0%,0%);fill-opacity:0.835294;stroke:none;"/>
  </g>
</mask>
<clipPath id="clip17">
  <rect width="50" height="50"/>
</clipPath>
<g id="surface54" clip-path="url(#clip17)">
<path style=" stroke:none;fill-rule:evenodd;fill:rgb(62.745098%,57.254902%,58.823529%);fill-opacity:1;" d="M 10.101562 31.070312 C 10.351562 31.03125 10.445312 31.128906 10.390625 31.359375 C 10.203125 31.488281 10.011719 31.609375 9.8125 31.71875 C 9.542969 31.808594 9.441406 31.722656 9.5 31.453125 C 9.707031 31.332031 9.90625 31.203125 10.101562 31.070312 Z M 10.101562 31.070312 "/>
</g>
<mask id="mask17">
  <g filter="url(#alpha)">
<rect x="0" y="0" width="50" height="50" style="fill:rgb(0%,0%,0%);fill-opacity:0.831373;stroke:none;"/>
  </g>
</mask>
<clipPath id="clip18">
  <rect width="50" height="50"/>
</clipPath>
<g id="surface57" clip-path="url(#clip18)">
<path style=" stroke:none;fill-rule:evenodd;fill:rgb(62.745098%,57.254902%,58.823529%);fill-opacity:1;" d="M 9.046875 31.789062 C 9.292969 31.742188 9.382812 31.839844 9.308594 32.078125 C 9.128906 32.289062 8.921875 32.464844 8.683594 32.605469 C 8.535156 32.542969 8.488281 32.429688 8.542969 32.269531 C 8.703125 32.097656 8.871094 31.9375 9.046875 31.789062 Z M 9.046875 31.789062 "/>
</g>
<mask id="mask18">
  <g filter="url(#alpha)">
<rect x="0" y="0" width="50" height="50" style="fill:rgb(0%,0%,0%);fill-opacity:0.862745;stroke:none;"/>
  </g>
</mask>
<clipPath id="clip19">
  <rect width="50" height="50"/>
</clipPath>
<g id="surface60" clip-path="url(#clip19)">
<path style=" stroke:none;fill-rule:evenodd;fill:rgb(62.745098%,57.254902%,58.823529%);fill-opacity:1;" d="M 8.179688 32.75 C 8.429688 32.703125 8.519531 32.796875 8.445312 33.039062 C 8.3125 33.21875 8.203125 33.410156 8.109375 33.613281 C 7.828125 33.714844 7.734375 33.621094 7.820312 33.324219 C 7.929688 33.125 8.050781 32.933594 8.179688 32.75 Z M 8.179688 32.75 "/>
</g>
<mask id="mask19">
  <g filter="url(#alpha)">
<rect x="0" y="0" width="50" height="50" style="fill:rgb(0%,0%,0%);fill-opacity:0.866667;stroke:none;"/>
  </g>
</mask>
<clipPath id="clip20">
  <rect width="50" height="50"/>
</clipPath>
<g id="surface63" clip-path="url(#clip20)">
<path style=" stroke:none;fill-rule:evenodd;fill:rgb(62.745098%,57.254902%,58.823529%);fill-opacity:1;" d="M 7.605469 33.949219 C 7.703125 33.941406 7.796875 33.949219 7.894531 33.972656 C 7.9375 34.289062 7.90625 34.601562 7.796875 34.910156 C 7.71875 34.972656 7.636719 34.972656 7.558594 34.910156 C 7.496094 34.585938 7.511719 34.265625 7.605469 33.949219 Z M 7.605469 33.949219 "/>
</g>
<mask id="mask20">
  <g filter="url(#alpha)">
<rect x="0" y="0" width="50" height="50" style="fill:rgb(0%,0%,0%);fill-opacity:0.87451;stroke:none;"/>
  </g>
</mask>
<clipPath id="clip21">
  <rect width="50" height="50"/>
</clipPath>
<g id="surface66" clip-path="url(#clip21)">
<path style=" stroke:none;fill-rule:evenodd;fill:rgb(62.745098%,57.254902%,58.823529%);fill-opacity:1;" d="M 7.652344 35.195312 C 7.710938 35.222656 7.769531 35.253906 7.820312 35.292969 C 7.902344 35.574219 7.933594 35.863281 7.917969 36.15625 C 7.816406 36.28125 7.710938 36.28125 7.605469 36.15625 C 7.523438 35.875 7.5 35.585938 7.535156 35.292969 C 7.582031 35.265625 7.621094 35.234375 7.652344 35.195312 Z M 7.652344 35.195312 "/>
</g>
<mask id="mask21">
  <g filter="url(#alpha)">
<rect x="0" y="0" width="50" height="50" style="fill:rgb(0%,0%,0%);fill-opacity:0.839216;stroke:none;"/>
  </g>
</mask>
<clipPath id="clip22">
  <rect width="50" height="50"/>
</clipPath>
<g id="surface69" clip-path="url(#clip22)">
<path style=" stroke:none;fill-rule:evenodd;fill:rgb(62.745098%,57.254902%,58.823529%);fill-opacity:1;" d="M 14.804688 36.203125 C 15.136719 36.15625 15.433594 36.234375 15.691406 36.445312 C 15.746094 36.605469 15.691406 36.703125 15.523438 36.730469 C 15.296875 36.617188 15.058594 36.5625 14.804688 36.5625 C 14.679688 36.445312 14.679688 36.324219 14.804688 36.203125 Z M 14.804688 36.203125 "/>
</g>
<mask id="mask22">
  <g filter="url(#alpha)">
<rect x="0" y="0" width="50" height="50" style="fill:rgb(0%,0%,0%);fill-opacity:0.85098;stroke:none;"/>
  </g>
</mask>
<clipPath id="clip23">
  <rect width="50" height="50"/>
</clipPath>
<g id="surface72" clip-path="url(#clip23)">
<path style=" stroke:none;fill-rule:evenodd;fill:rgb(62.745098%,57.254902%,58.823529%);fill-opacity:1;" d="M 14.226562 36.445312 C 14.445312 36.429688 14.53125 36.523438 14.492188 36.730469 C 14.328125 36.914062 14.175781 37.105469 14.035156 37.308594 C 13.796875 37.367188 13.710938 37.269531 13.773438 37.019531 C 13.898438 36.804688 14.050781 36.613281 14.226562 36.445312 Z M 14.226562 36.445312 "/>
</g>
<mask id="mask23">
  <g filter="url(#alpha)">
<rect x="0" y="0" width="50" height="50" style="fill:rgb(0%,0%,0%);fill-opacity:0.854902;stroke:none;"/>
  </g>
</mask>
<clipPath id="clip24">
  <rect width="50" height="50"/>
</clipPath>
<g id="surface75" clip-path="url(#clip24)">
<path style=" stroke:none;fill-rule:evenodd;fill:rgb(62.745098%,57.254902%,58.823529%);fill-opacity:1;" d="M 7.796875 36.492188 C 7.890625 36.480469 7.980469 36.496094 8.0625 36.539062 C 8.210938 36.8125 8.292969 37.101562 8.300781 37.402344 C 8.183594 37.515625 8.070312 37.5 7.964844 37.355469 C 7.8125 37.082031 7.753906 36.792969 7.796875 36.492188 Z M 7.796875 36.492188 "/>
</g>
<mask id="mask24">
  <g filter="url(#alpha)">
<rect x="0" y="0" width="50" height="50" style="fill:rgb(0%,0%,0%);fill-opacity:0.847059;stroke:none;"/>
  </g>
</mask>
<clipPath id="clip25">
  <rect width="50" height="50"/>
</clipPath>
<g id="surface78" clip-path="url(#clip25)">
<path style=" stroke:none;fill-rule:evenodd;fill:rgb(62.745098%,57.254902%,58.823529%);fill-opacity:1;" d="M 15.714844 36.925781 C 15.917969 36.910156 16.011719 37.003906 16.003906 37.210938 C 15.972656 37.441406 15.917969 37.667969 15.835938 37.882812 C 15.671875 37.96875 15.550781 37.929688 15.476562 37.765625 C 15.558594 37.476562 15.636719 37.199219 15.714844 36.925781 Z M 15.714844 36.925781 "/>
</g>
<mask id="mask25">
  <g filter="url(#alpha)">
<rect x="0" y="0" width="50" height="50" style="fill:rgb(0%,0%,0%);fill-opacity:0.839216;stroke:none;"/>
  </g>
</mask>
<clipPath id="clip26">
  <rect width="50" height="50"/>
</clipPath>
<g id="surface81" clip-path="url(#clip26)">
<path style=" stroke:none;fill-rule:evenodd;fill:rgb(62.745098%,57.254902%,58.823529%);fill-opacity:1;" d="M 13.554688 37.546875 C 13.714844 37.515625 13.8125 37.578125 13.84375 37.738281 C 13.746094 37.980469 13.652344 38.21875 13.554688 38.460938 C 13.390625 38.585938 13.277344 38.542969 13.21875 38.339844 C 13.292969 38.050781 13.402344 37.789062 13.554688 37.546875 Z M 13.554688 37.546875 "/>
</g>
<mask id="mask26">
  <g filter="url(#alpha)">
<rect x="0" y="0" width="50" height="50" style="fill:rgb(0%,0%,0%);fill-opacity:0.839216;stroke:none;"/>
  </g>
</mask>
<clipPath id="clip27">
  <rect width="50" height="50"/>
</clipPath>
<g id="surface84" clip-path="url(#clip27)">
<path style=" stroke:none;fill-rule:evenodd;fill:rgb(62.745098%,57.254902%,58.823529%);fill-opacity:1;" d="M 8.324219 37.691406 C 8.40625 37.683594 8.488281 37.691406 8.566406 37.714844 C 8.734375 37.941406 8.878906 38.179688 8.996094 38.4375 C 8.933594 38.589844 8.824219 38.636719 8.660156 38.578125 C 8.542969 38.394531 8.421875 38.210938 8.300781 38.027344 C 8.269531 37.910156 8.277344 37.800781 8.324219 37.691406 Z M 8.324219 37.691406 "/>
</g>
<mask id="mask27">
  <g filter="url(#alpha)">
<rect x="0" y="0" width="50" height="50" style="fill:rgb(0%,0%,0%);fill-opacity:0.847059;stroke:none;"/>
  </g>
</mask>
<clipPath id="clip28">
  <rect width="50" height="50"/>
</clipPath>
<g id="surface87" clip-path="url(#clip28)">
<path style=" stroke:none;fill-rule:evenodd;fill:rgb(62.745098%,57.254902%,58.823529%);fill-opacity:1;" d="M 15.234375 38.125 C 15.484375 38.074219 15.570312 38.171875 15.5 38.410156 C 15.339844 38.644531 15.136719 38.835938 14.898438 38.988281 C 14.730469 38.953125 14.675781 38.859375 14.730469 38.699219 C 14.925781 38.527344 15.09375 38.335938 15.234375 38.125 Z M 15.234375 38.125 "/>
</g>
<mask id="mask28">
  <g filter="url(#alpha)">
<rect x="0" y="0" width="50" height="50" style="fill:rgb(0%,0%,0%);fill-opacity:0.823529;stroke:none;"/>
  </g>
</mask>
<clipPath id="clip29">
  <rect width="50" height="50"/>
</clipPath>
<g id="surface90" clip-path="url(#clip29)">
<path style=" stroke:none;fill-rule:evenodd;fill:rgb(62.745098%,57.254902%,58.823529%);fill-opacity:1;" d="M 9.09375 38.746094 C 9.175781 38.738281 9.253906 38.746094 9.332031 38.773438 C 9.5 38.941406 9.667969 39.109375 9.835938 39.277344 C 9.875 39.492188 9.789062 39.578125 9.574219 39.539062 C 9.339844 39.378906 9.148438 39.179688 8.996094 38.941406 C 9.03125 38.875 9.0625 38.808594 9.09375 38.746094 Z M 9.09375 38.746094 "/>
</g>
<mask id="mask29">
  <g filter="url(#alpha)">
<rect x="0" y="0" width="50" height="50" style="fill:rgb(0%,0%,0%);fill-opacity:0.866667;stroke:none;"/>
  </g>
</mask>
<clipPath id="clip30">
  <rect width="50" height="50"/>
</clipPath>
<g id="surface93" clip-path="url(#clip30)">
<path style=" stroke:none;fill-rule:evenodd;fill:rgb(62.745098%,57.254902%,58.823529%);fill-opacity:1;" d="M 13.074219 38.796875 C 13.175781 38.78125 13.273438 38.796875 13.363281 38.84375 C 13.386719 38.890625 13.402344 38.9375 13.410156 38.988281 C 13.339844 39.222656 13.292969 39.464844 13.269531 39.707031 C 13.488281 39.75 13.539062 39.863281 13.410156 40.042969 C 13.320312 40.085938 13.230469 40.132812 13.148438 40.1875 C 13.125 40.472656 13.085938 40.75 13.027344 41.027344 C 12.917969 41.121094 12.8125 41.113281 12.714844 41.003906 C 12.6875 40.824219 12.695312 40.648438 12.738281 40.476562 C 12.671875 40.351562 12.589844 40.242188 12.5 40.140625 C 12.5 40.066406 12.535156 40.011719 12.597656 39.972656 C 12.726562 39.917969 12.855469 39.863281 12.980469 39.804688 C 12.914062 39.746094 12.882812 39.675781 12.882812 39.585938 C 12.929688 39.316406 12.992188 39.054688 13.074219 38.796875 Z M 13.074219 38.796875 "/>
</g>
<mask id="mask30">
  <g filter="url(#alpha)">
<rect x="0" y="0" width="50" height="50" style="fill:rgb(0%,0%,0%);fill-opacity:0.854902;stroke:none;"/>
  </g>
</mask>
<clipPath id="clip31">
  <rect width="50" height="50"/>
</clipPath>
<g id="surface96" clip-path="url(#clip31)">
<path style=" stroke:none;fill-rule:evenodd;fill:rgb(62.745098%,57.254902%,58.823529%);fill-opacity:1;" d="M 14.277344 39.035156 C 14.492188 38.988281 14.59375 39.070312 14.585938 39.277344 C 14.351562 39.523438 14.074219 39.675781 13.746094 39.730469 C 13.695312 39.632812 13.6875 39.527344 13.722656 39.417969 C 13.921875 39.308594 14.105469 39.179688 14.277344 39.035156 Z M 14.277344 39.035156 "/>
</g>
<mask id="mask31">
  <g filter="url(#alpha)">
<rect x="0" y="0" width="50" height="50" style="fill:rgb(0%,0%,0%);fill-opacity:0.847059;stroke:none;"/>
  </g>
</mask>
<clipPath id="clip32">
  <rect width="50" height="50"/>
</clipPath>
<g id="surface99" clip-path="url(#clip32)">
<path style=" stroke:none;fill-rule:evenodd;fill:rgb(62.745098%,57.254902%,58.823529%);fill-opacity:1;" d="M 10.101562 39.5625 C 10.167969 39.554688 10.230469 39.5625 10.292969 39.585938 C 10.507812 39.714844 10.722656 39.835938 10.941406 39.945312 C 10.980469 40.164062 10.890625 40.25 10.675781 40.210938 C 10.390625 40.140625 10.164062 39.988281 10.003906 39.753906 C 10.015625 39.679688 10.050781 39.617188 10.101562 39.5625 Z M 10.101562 39.5625 "/>
</g>
<mask id="mask32">
  <g filter="url(#alpha)">
<rect x="0" y="0" width="50" height="50" style="fill:rgb(0%,0%,0%);fill-opacity:0.847059;stroke:none;"/>
  </g>
</mask>
<clipPath id="clip33">
  <rect width="50" height="50"/>
</clipPath>
<g id="surface102" clip-path="url(#clip33)">
<path style=" stroke:none;fill-rule:evenodd;fill:rgb(62.745098%,57.254902%,58.823529%);fill-opacity:1;" d="M 11.300781 40.042969 C 11.574219 40.035156 11.84375 40.042969 12.117188 40.066406 C 12.277344 40.164062 12.292969 40.273438 12.164062 40.402344 C 11.910156 40.433594 11.652344 40.433594 11.394531 40.402344 C 11.191406 40.324219 11.160156 40.207031 11.300781 40.042969 Z M 11.300781 40.042969 "/>
</g>
<mask id="mask33">
  <g filter="url(#alpha)">
<rect x="0" y="0" width="50" height="50" style="fill:rgb(0%,0%,0%);fill-opacity:0.823529;stroke:none;"/>
  </g>
</mask>
<clipPath id="clip34">
  <rect width="50" height="50"/>
</clipPath>
<g id="surface105" clip-path="url(#clip34)">
<path style=" stroke:none;fill-rule:evenodd;fill:rgb(62.745098%,57.254902%,58.823529%);fill-opacity:1;" d="M 12.789062 41.339844 C 12.878906 41.328125 12.949219 41.359375 13.003906 41.433594 C 13.035156 41.722656 13.035156 42.011719 13.003906 42.296875 C 12.890625 42.425781 12.78125 42.425781 12.667969 42.296875 C 12.636719 42.011719 12.636719 41.722656 12.667969 41.433594 C 12.714844 41.40625 12.753906 41.375 12.789062 41.339844 Z M 12.789062 41.339844 "/>
</g>
<mask id="mask34">
  <g filter="url(#alpha)">
<rect x="0" y="0" width="50" height="50" style="fill:rgb(0%,0%,0%);fill-opacity:0.847059;stroke:none;"/>
  </g>
</mask>
<clipPath id="clip35">
  <rect width="50" height="50"/>
</clipPath>
<g id="surface108" clip-path="url(#clip35)">
<path style=" stroke:none;fill-rule:evenodd;fill:rgb(62.745098%,57.254902%,58.823529%);fill-opacity:1;" d="M 12.835938 42.632812 C 12.917969 42.644531 12.988281 42.679688 13.050781 42.730469 C 13.082031 42.980469 13.121094 43.226562 13.171875 43.472656 C 13.101562 43.6875 12.980469 43.730469 12.8125 43.59375 C 12.734375 43.308594 12.703125 43.023438 12.714844 42.730469 C 12.765625 42.703125 12.804688 42.671875 12.835938 42.632812 Z M 12.835938 42.632812 "/>
</g>
<mask id="mask35">
  <g filter="url(#alpha)">
<rect x="0" y="0" width="50" height="50" style="fill:rgb(0%,0%,0%);fill-opacity:0.843137;stroke:none;"/>
  </g>
</mask>
<clipPath id="clip36">
  <rect width="50" height="50"/>
</clipPath>
<g id="surface111" clip-path="url(#clip36)">
<path style=" stroke:none;fill-rule:evenodd;fill:rgb(62.745098%,57.254902%,58.823529%);fill-opacity:1;" d="M 13.027344 43.929688 C 13.132812 43.914062 13.222656 43.945312 13.292969 44.027344 C 13.359375 44.265625 13.429688 44.507812 13.507812 44.746094 C 13.476562 44.914062 13.378906 44.96875 13.21875 44.914062 C 13.074219 44.679688 12.976562 44.421875 12.933594 44.144531 C 12.933594 44.058594 12.964844 43.984375 13.027344 43.929688 Z M 13.027344 43.929688 "/>
</g>
<mask id="mask36">
  <g filter="url(#alpha)">
<rect x="0" y="0" width="50" height="50" style="fill:rgb(0%,0%,0%);fill-opacity:0.843137;stroke:none;"/>
  </g>
</mask>
<clipPath id="clip37">
  <rect width="50" height="50"/>
</clipPath>
<g id="surface114" clip-path="url(#clip37)">
<path style=" stroke:none;fill-rule:evenodd;fill:rgb(62.745098%,57.254902%,58.823529%);fill-opacity:1;" d="M 13.507812 45.128906 C 13.601562 45.125 13.683594 45.15625 13.746094 45.226562 C 13.84375 45.40625 13.945312 45.582031 14.058594 45.753906 C 14.128906 46.011719 14.039062 46.109375 13.796875 46.042969 C 13.605469 45.835938 13.476562 45.59375 13.410156 45.320312 C 13.425781 45.242188 13.457031 45.179688 13.507812 45.128906 Z M 13.507812 45.128906 "/>
</g>
<mask id="mask37">
  <g filter="url(#alpha)">
<rect x="0" y="0" width="50" height="50" style="fill:rgb(0%,0%,0%);fill-opacity:0.854902;stroke:none;"/>
  </g>
</mask>
<clipPath id="clip38">
  <rect width="50" height="50"/>
</clipPath>
<g id="surface117" clip-path="url(#clip38)">
<path style=" stroke:none;fill-rule:evenodd;fill:rgb(62.745098%,57.254902%,58.823529%);fill-opacity:1;" d="M 28.957031 45.511719 C 29.199219 45.503906 29.4375 45.511719 29.679688 45.539062 C 29.878906 45.605469 29.910156 45.71875 29.773438 45.875 C 29.488281 45.90625 29.199219 45.90625 28.910156 45.875 C 28.789062 45.738281 28.804688 45.617188 28.957031 45.511719 Z M 28.957031 45.511719 "/>
</g>
<mask id="mask38">
  <g filter="url(#alpha)">
<rect x="0" y="0" width="50" height="50" style="fill:rgb(0%,0%,0%);fill-opacity:0.843137;stroke:none;"/>
  </g>
</mask>
<clipPath id="clip39">
  <rect width="50" height="50"/>
</clipPath>
<g id="surface120" clip-path="url(#clip39)">
<path style=" stroke:none;fill-rule:evenodd;fill:rgb(62.745098%,57.254902%,58.823529%);fill-opacity:1;" d="M 28.285156 45.609375 C 28.574219 45.621094 28.640625 45.742188 28.480469 45.96875 C 28.230469 46.039062 27.980469 46.109375 27.734375 46.183594 C 27.570312 46.109375 27.53125 45.988281 27.613281 45.824219 C 27.84375 45.753906 28.070312 45.679688 28.285156 45.609375 Z M 28.285156 45.609375 "/>
</g>
<mask id="mask39">
  <g filter="url(#alpha)">
<rect x="0" y="0" width="50" height="50" style="fill:rgb(0%,0%,0%);fill-opacity:0.854902;stroke:none;"/>
  </g>
</mask>
<clipPath id="clip40">
  <rect width="50" height="50"/>
</clipPath>
<g id="surface123" clip-path="url(#clip40)">
<path style=" stroke:none;fill-rule:evenodd;fill:rgb(62.745098%,57.254902%,58.823529%);fill-opacity:1;" d="M 30.253906 45.609375 C 30.53125 45.660156 30.804688 45.730469 31.070312 45.824219 C 31.15625 45.988281 31.117188 46.109375 30.949219 46.183594 C 30.703125 46.109375 30.457031 46.039062 30.207031 45.96875 C 30.082031 45.832031 30.097656 45.714844 30.253906 45.609375 Z M 30.253906 45.609375 "/>
</g>
<mask id="mask40">
  <g filter="url(#alpha)">
<rect x="0" y="0" width="50" height="50" style="fill:rgb(0%,0%,0%);fill-opacity:0.843137;stroke:none;"/>
  </g>
</mask>
<clipPath id="clip41">
  <rect width="50" height="50"/>
</clipPath>
<g id="surface126" clip-path="url(#clip41)">
<path style=" stroke:none;fill-rule:evenodd;fill:rgb(62.745098%,57.254902%,58.823529%);fill-opacity:1;" d="M 31.5 45.992188 C 31.761719 46.082031 32.019531 46.1875 32.269531 46.304688 C 32.332031 46.40625 32.332031 46.511719 32.269531 46.617188 C 32.230469 46.636719 32.191406 46.652344 32.148438 46.664062 C 31.894531 46.566406 31.648438 46.453125 31.40625 46.328125 C 31.328125 46.179688 31.359375 46.066406 31.5 45.992188 Z M 31.5 45.992188 "/>
</g>
<mask id="mask41">
  <g filter="url(#alpha)">
<rect x="0" y="0" width="50" height="50" style="fill:rgb(0%,0%,0%);fill-opacity:0.843137;stroke:none;"/>
  </g>
</mask>
<clipPath id="clip42">
  <rect width="50" height="50"/>
</clipPath>
<g id="surface129" clip-path="url(#clip42)">
<path style=" stroke:none;fill-rule:evenodd;fill:rgb(62.745098%,57.254902%,58.823529%);fill-opacity:1;" d="M 26.992188 46.042969 C 27.261719 45.972656 27.363281 46.070312 27.304688 46.328125 C 27.027344 46.5 26.730469 46.605469 26.414062 46.640625 C 26.363281 46.558594 26.355469 46.46875 26.390625 46.378906 C 26.585938 46.246094 26.785156 46.132812 26.992188 46.042969 Z M 26.992188 46.042969 "/>
</g>
<mask id="mask42">
  <g filter="url(#alpha)">
<rect x="0" y="0" width="50" height="50" style="fill:rgb(0%,0%,0%);fill-opacity:0.847059;stroke:none;"/>
  </g>
</mask>
<clipPath id="clip43">
  <rect width="50" height="50"/>
</clipPath>
<g id="surface132" clip-path="url(#clip43)">
<path style=" stroke:none;fill-rule:evenodd;fill:rgb(62.745098%,57.254902%,58.823529%);fill-opacity:1;" d="M 14.179688 46.234375 C 14.277344 46.226562 14.371094 46.234375 14.46875 46.257812 C 14.585938 46.441406 14.738281 46.59375 14.921875 46.714844 C 14.988281 47.011719 14.882812 47.101562 14.609375 46.976562 C 14.460938 46.824219 14.308594 46.671875 14.15625 46.519531 C 14.121094 46.421875 14.132812 46.324219 14.179688 46.234375 Z M 14.179688 46.234375 "/>
</g>
<mask id="mask43">
  <g filter="url(#alpha)">
<rect x="0" y="0" width="50" height="50" style="fill:rgb(0%,0%,0%);fill-opacity:0.85098;stroke:none;"/>
  </g>
</mask>
<clipPath id="clip44">
  <rect width="50" height="50"/>
</clipPath>
<g id="surface135" clip-path="url(#clip44)">
<path style=" stroke:none;fill-rule:evenodd;fill:rgb(62.745098%,57.254902%,58.823529%);fill-opacity:1;" d="M 25.839844 46.570312 C 26.113281 46.535156 26.195312 46.648438 26.078125 46.90625 C 25.8125 47.085938 25.523438 47.164062 25.214844 47.144531 C 25.152344 47.035156 25.167969 46.941406 25.265625 46.855469 C 25.464844 46.769531 25.65625 46.671875 25.839844 46.570312 Z M 25.839844 46.570312 "/>
</g>
<mask id="mask44">
  <g filter="url(#alpha)">
<rect x="0" y="0" width="50" height="50" style="fill:rgb(0%,0%,0%);fill-opacity:0.85098;stroke:none;"/>
  </g>
</mask>
<clipPath id="clip45">
  <rect width="50" height="50"/>
</clipPath>
<g id="surface138" clip-path="url(#clip45)">
<path style=" stroke:none;fill-rule:evenodd;fill:rgb(62.745098%,57.254902%,58.823529%);fill-opacity:1;" d="M 15.1875 47.050781 C 15.269531 47.042969 15.347656 47.050781 15.425781 47.074219 C 15.605469 47.203125 15.796875 47.316406 16.003906 47.410156 C 16.105469 47.6875 16.011719 47.785156 15.714844 47.695312 C 15.53125 47.613281 15.355469 47.515625 15.1875 47.410156 C 15.125 47.289062 15.125 47.167969 15.1875 47.050781 Z M 15.1875 47.050781 "/>
</g>
<mask id="mask45">
  <g filter="url(#alpha)">
<rect x="0" y="0" width="50" height="50" style="fill:rgb(0%,0%,0%);fill-opacity:0.847059;stroke:none;"/>
  </g>
</mask>
<clipPath id="clip46">
  <rect width="50" height="50"/>
</clipPath>
<g id="surface141" clip-path="url(#clip46)">
<path style=" stroke:none;fill-rule:evenodd;fill:rgb(62.745098%,57.254902%,58.823529%);fill-opacity:1;" d="M 24.640625 47.097656 C 24.925781 47.082031 25.007812 47.191406 24.878906 47.433594 C 24.695312 47.519531 24.5 47.589844 24.304688 47.648438 C 24.007812 47.738281 23.914062 47.640625 24.015625 47.359375 C 24.226562 47.265625 24.433594 47.179688 24.640625 47.097656 Z M 24.640625 47.097656 "/>
</g>
<mask id="mask46">
  <g filter="url(#alpha)">
<rect x="0" y="0" width="50" height="50" style="fill:rgb(0%,0%,0%);fill-opacity:0.843137;stroke:none;"/>
  </g>
</mask>
<clipPath id="clip47">
  <rect width="50" height="50"/>
</clipPath>
<g id="surface144" clip-path="url(#clip47)">
<path style=" stroke:none;fill-rule:evenodd;fill:rgb(62.745098%,57.254902%,58.823529%);fill-opacity:1;" d="M 23.488281 47.480469 C 23.75 47.542969 23.792969 47.667969 23.609375 47.863281 C 23.371094 47.9375 23.132812 48.003906 22.890625 48.054688 C 22.722656 47.980469 22.683594 47.859375 22.769531 47.695312 C 23.019531 47.644531 23.261719 47.574219 23.488281 47.480469 Z M 23.488281 47.480469 "/>
</g>
<mask id="mask47">
  <g filter="url(#alpha)">
<rect x="0" y="0" width="50" height="50" style="fill:rgb(0%,0%,0%);fill-opacity:0.858824;stroke:none;"/>
  </g>
</mask>
<clipPath id="clip48">
  <rect width="50" height="50"/>
</clipPath>
<g id="surface147" clip-path="url(#clip48)">
<path style=" stroke:none;fill-rule:evenodd;fill:rgb(62.745098%,57.254902%,58.823529%);fill-opacity:1;" d="M 16.339844 47.625 C 16.613281 47.65625 16.886719 47.710938 17.15625 47.792969 C 17.363281 47.976562 17.332031 48.09375 17.058594 48.152344 C 16.796875 48.117188 16.546875 48.035156 16.316406 47.914062 C 16.28125 47.8125 16.289062 47.714844 16.339844 47.625 Z M 16.339844 47.625 "/>
</g>
<mask id="mask48">
  <g filter="url(#alpha)">
<rect x="0" y="0" width="50" height="50" style="fill:rgb(0%,0%,0%);fill-opacity:0.878431;stroke:none;"/>
  </g>
</mask>
<clipPath id="clip49">
  <rect width="50" height="50"/>
</clipPath>
<g id="surface150" clip-path="url(#clip49)">
<path style=" stroke:none;fill-rule:evenodd;fill:rgb(62.745098%,57.254902%,58.823529%);fill-opacity:1;" d="M 21.953125 47.816406 C 22.097656 47.808594 22.242188 47.816406 22.386719 47.839844 C 22.449219 47.9375 22.449219 48.03125 22.386719 48.128906 C 22.085938 48.234375 21.78125 48.257812 21.472656 48.199219 C 21.410156 48.121094 21.410156 48.039062 21.472656 47.960938 C 21.632812 47.894531 21.792969 47.847656 21.953125 47.816406 Z M 21.953125 47.816406 "/>
</g>
<mask id="mask49">
  <g filter="url(#alpha)">
<rect x="0" y="0" width="50" height="50" style="fill:rgb(0%,0%,0%);fill-opacity:0.847059;stroke:none;"/>
  </g>
</mask>
<clipPath id="clip50">
  <rect width="50" height="50"/>
</clipPath>
<g id="surface153" clip-path="url(#clip50)">
<path style=" stroke:none;fill-rule:evenodd;fill:rgb(62.745098%,57.254902%,58.823529%);fill-opacity:1;" d="M 17.632812 47.914062 C 17.90625 47.929688 18.179688 47.953125 18.449219 47.984375 C 18.542969 48.070312 18.566406 48.171875 18.523438 48.296875 C 18.226562 48.351562 17.933594 48.34375 17.632812 48.273438 C 17.511719 48.152344 17.511719 48.03125 17.632812 47.914062 Z M 17.632812 47.914062 "/>
</g>
<mask id="mask50">
  <g filter="url(#alpha)">
<rect x="0" y="0" width="50" height="50" style="fill:rgb(0%,0%,0%);fill-opacity:0.85098;stroke:none;"/>
  </g>
</mask>
<clipPath id="clip51">
  <rect width="50" height="50"/>
</clipPath>
<g id="surface156" clip-path="url(#clip51)">
<path style=" stroke:none;fill-rule:evenodd;fill:rgb(62.745098%,57.254902%,58.823529%);fill-opacity:1;" d="M 20.609375 47.960938 C 20.769531 47.953125 20.929688 47.960938 21.089844 47.984375 C 21.207031 48.078125 21.214844 48.179688 21.113281 48.296875 C 20.875 48.332031 20.636719 48.367188 20.394531 48.390625 C 20.207031 48.382812 20.125 48.285156 20.152344 48.105469 C 20.300781 48.03125 20.453125 47.984375 20.609375 47.960938 Z M 20.609375 47.960938 "/>
</g>
<mask id="mask51">
  <g filter="url(#alpha)">
<rect x="0" y="0" width="50" height="50" style="fill:rgb(0%,0%,0%);fill-opacity:0.831373;stroke:none;"/>
  </g>
</mask>
<clipPath id="clip52">
  <rect width="50" height="50"/>
</clipPath>
<g id="surface159" clip-path="url(#clip52)">
<path style=" stroke:none;fill-rule:evenodd;fill:rgb(62.745098%,57.254902%,58.823529%);fill-opacity:1;" d="M 18.929688 48.007812 C 19.21875 48 19.507812 48.007812 19.792969 48.03125 C 19.921875 48.144531 19.921875 48.257812 19.792969 48.367188 C 19.503906 48.402344 19.21875 48.402344 18.929688 48.367188 C 18.804688 48.25 18.804688 48.128906 18.929688 48.007812 Z M 18.929688 48.007812 "/>
</g>
</defs>
<g id="surface1">
<use xlink:href="#surface6" mask="url(#mask0)"/>
<use xlink:href="#surface9" mask="url(#mask1)"/>
<use xlink:href="#surface12" mask="url(#mask2)"/>
<use xlink:href="#surface15" mask="url(#mask3)"/>
<use xlink:href="#surface18" mask="url(#mask4)"/>
<use xlink:href="#surface21" mask="url(#mask5)"/>
<use xlink:href="#surface24" mask="url(#mask6)"/>
<use xlink:href="#surface27" mask="url(#mask7)"/>
<use xlink:href="#surface30" mask="url(#mask8)"/>
<use xlink:href="#surface33" mask="url(#mask9)"/>
<use xlink:href="#surface36" mask="url(#mask10)"/>
<use xlink:href="#surface39" mask="url(#mask11)"/>
<use xlink:href="#surface42" mask="url(#mask12)"/>
<use xlink:href="#surface45" mask="url(#mask13)"/>
<use xlink:href="#surface48" mask="url(#mask14)"/>
<use xlink:href="#surface51" mask="url(#mask15)"/>
<use xlink:href="#surface54" mask="url(#mask16)"/>
<use xlink:href="#surface57" mask="url(#mask17)"/>
<use xlink:href="#surface60" mask="url(#mask18)"/>
<use xlink:href="#surface63" mask="url(#mask19)"/>
<use xlink:href="#surface66" mask="url(#mask20)"/>
<use xlink:href="#surface69" mask="url(#mask21)"/>
<use xlink:href="#surface72" mask="url(#mask22)"/>
<use xlink:href="#surface75" mask="url(#mask23)"/>
<use xlink:href="#surface78" mask="url(#mask24)"/>
<use xlink:href="#surface81" mask="url(#mask25)"/>
<use xlink:href="#surface84" mask="url(#mask26)"/>
<use xlink:href="#surface87" mask="url(#mask27)"/>
<use xlink:href="#surface90" mask="url(#mask28)"/>
<use xlink:href="#surface93" mask="url(#mask29)"/>
<use xlink:href="#surface96" mask="url(#mask30)"/>
<use xlink:href="#surface99" mask="url(#mask31)"/>
<use xlink:href="#surface102" mask="url(#mask32)"/>
<use xlink:href="#surface105" mask="url(#mask33)"/>
<use xlink:href="#surface108" mask="url(#mask34)"/>
<use xlink:href="#surface111" mask="url(#mask35)"/>
<use xlink:href="#surface114" mask="url(#mask36)"/>
<use xlink:href="#surface117" mask="url(#mask37)"/>
<use xlink:href="#surface120" mask="url(#mask38)"/>
<use xlink:href="#surface123" mask="url(#mask39)"/>
<use xlink:href="#surface126" mask="url(#mask40)"/>
<use xlink:href="#surface129" mask="url(#mask41)"/>
<use xlink:href="#surface132" mask="url(#mask42)"/>
<use xlink:href="#surface135" mask="url(#mask43)"/>
<use xlink:href="#surface138" mask="url(#mask44)"/>
<use xlink:href="#surface141" mask="url(#mask45)"/>
<use xlink:href="#surface144" mask="url(#mask46)"/>
<use xlink:href="#surface147" mask="url(#mask47)"/>
<use xlink:href="#surface150" mask="url(#mask48)"/>
<use xlink:href="#surface153" mask="url(#mask49)"/>
<use xlink:href="#surface156" mask="url(#mask50)"/>
<use xlink:href="#surface159" mask="url(#mask51)"/>
</g>
</svg>
