<?xml version="1.0" encoding="UTF-8"?>
<svg xmlns="http://www.w3.org/2000/svg" xmlns:xlink="http://www.w3.org/1999/xlink" width="50pt" height="50pt" viewBox="0 0 50 50" version="1.1">
<defs>
<filter id="alpha" filterUnits="objectBoundingBox" x="0%" y="0%" width="100%" height="100%">
  <feColorMatrix type="matrix" in="SourceGraphic" values="0 0 0 0 1 0 0 0 0 1 0 0 0 0 1 0 0 0 1 0"/>
</filter>
<mask id="mask0">
  <g filter="url(#alpha)">
<rect x="0" y="0" width="50" height="50" style="fill:rgb(0%,0%,0%);fill-opacity:0.988235;stroke:none;"/>
  </g>
</mask>
<clipPath id="clip1">
  <rect width="50" height="50"/>
</clipPath>
<g id="surface6" clip-path="url(#clip1)">
<path style=" stroke:none;fill-rule:evenodd;fill:rgb(0.392157%,0.392157%,0.392157%);fill-opacity:1;" d="M 6.261719 13.988281 C 6.359375 13.957031 6.453125 13.921875 6.550781 13.890625 C 6.628906 13.867188 6.707031 13.851562 6.789062 13.84375 C 6.886719 13.882812 6.964844 13.851562 7.03125 13.746094 C 7.519531 13.203125 8.046875 12.699219 8.613281 12.234375 C 11.976562 9.746094 15.414062 7.363281 18.929688 5.085938 C 20.167969 4.378906 21.402344 3.660156 22.625 2.925781 C 23.042969 2.683594 23.492188 2.605469 23.96875 2.6875 C 24.433594 2.921875 24.914062 3.128906 25.40625 3.3125 C 26.667969 3.59375 27.929688 3.847656 29.199219 4.078125 C 29.851562 4.230469 30.492188 4.425781 31.117188 4.65625 C 32.453125 5.296875 33.777344 5.953125 35.101562 6.621094 C 37.023438 7.347656 38.957031 8.035156 40.90625 8.683594 C 43.082031 9.726562 45.023438 11.097656 46.738281 12.789062 C 47.003906 13.292969 47.125 13.835938 47.097656 14.417969 C 47.042969 15.558594 46.941406 16.695312 46.785156 17.828125 C 46.605469 18.734375 46.445312 19.648438 46.304688 20.5625 C 46.140625 22.742188 46.101562 24.925781 46.183594 27.109375 C 46.03125 28.707031 46.074219 30.300781 46.304688 31.886719 C 46.34375 32.8125 46.382812 33.742188 46.425781 34.667969 C 46.414062 34.773438 46.398438 34.878906 46.378906 34.980469 C 46.601562 36.726562 46.691406 38.476562 46.640625 40.234375 C 46.644531 42.007812 45.773438 42.765625 44.027344 42.515625 C 39.632812 42.074219 35.234375 41.691406 30.832031 41.363281 C 28.257812 41.175781 25.683594 41.125 23.105469 41.21875 C 22.035156 41.371094 20.964844 41.496094 19.890625 41.601562 C 16.632812 41.789062 13.382812 41.675781 10.148438 41.265625 C 8.875 41.097656 7.691406 41.335938 6.597656 41.988281 C 6.140625 42.042969 5.828125 41.859375 5.664062 41.433594 C 5.613281 41.148438 5.589844 40.859375 5.589844 40.570312 C 5.632812 39.828125 5.71875 39.09375 5.855469 38.363281 C 5.886719 37.851562 5.886719 37.339844 5.855469 36.828125 C 5.617188 36.710938 5.480469 36.515625 5.445312 36.253906 C 5.5 36.019531 5.601562 35.808594 5.757812 35.628906 C 5.65625 31.503906 5.585938 27.375 5.542969 23.25 C 5.601562 21.320312 5.570312 19.390625 5.445312 17.464844 C 5.445312 16.472656 5.535156 15.488281 5.710938 14.515625 C 5.894531 14.339844 6.078125 14.164062 6.261719 13.988281 Z M 28.765625 5.351562 C 29.757812 5.605469 30.71875 5.949219 31.644531 6.382812 C 32.671875 6.925781 33.695312 7.46875 34.71875 8.011719 C 36.652344 8.785156 38.605469 9.523438 40.570312 10.222656 C 41.726562 10.78125 42.796875 11.460938 43.785156 12.261719 C 38.757812 9.992188 33.753906 7.691406 28.765625 5.351562 Z M 7.222656 38.890625 C 12.386719 39.097656 17.554688 39.304688 22.722656 39.515625 C 21.046875 39.84375 19.351562 40.011719 17.632812 40.019531 C 16.644531 40.050781 15.652344 40.050781 14.660156 40.019531 C 12.988281 39.886719 11.316406 39.769531 9.644531 39.660156 C 8.800781 39.625 7.976562 39.738281 7.171875 39.996094 C 7.15625 39.90625 7.140625 39.820312 7.125 39.730469 C 7.15625 39.449219 7.1875 39.171875 7.222656 38.890625 Z M 38.605469 40.1875 C 40.667969 40.257812 42.730469 40.335938 44.792969 40.425781 C 44.785156 40.546875 44.753906 40.65625 44.699219 40.761719 C 44.300781 40.683594 43.902344 40.625 43.5 40.59375 C 41.855469 40.484375 40.226562 40.347656 38.605469 40.1875 Z M 38.605469 40.1875 "/>
</g>
<mask id="mask1">
  <g filter="url(#alpha)">
<rect x="0" y="0" width="50" height="50" style="fill:rgb(0%,0%,0%);fill-opacity:0.678431;stroke:none;"/>
  </g>
</mask>
<clipPath id="clip2">
  <rect width="50" height="50"/>
</clipPath>
<g id="surface9" clip-path="url(#clip2)">
<path style=" stroke:none;fill-rule:evenodd;fill:rgb(92.54902%,90.980392%,88.235294%);fill-opacity:1;" d="M 6.550781 13.890625 C 6.453125 13.921875 6.359375 13.957031 6.261719 13.988281 C 6.203125 13.875 6.203125 13.765625 6.261719 13.652344 C 6.363281 13.734375 6.457031 13.8125 6.550781 13.890625 Z M 6.550781 13.890625 "/>
</g>
<mask id="mask2">
  <g filter="url(#alpha)">
<rect x="0" y="0" width="50" height="50" style="fill:rgb(0%,0%,0%);fill-opacity:0.313725;stroke:none;"/>
  </g>
</mask>
<clipPath id="clip3">
  <rect width="50" height="50"/>
</clipPath>
<g id="surface12" clip-path="url(#clip3)">
<path style=" stroke:none;fill-rule:evenodd;fill:rgb(56.862745%,51.372549%,53.333333%);fill-opacity:1;" d="M 7.03125 13.746094 C 6.964844 13.851562 6.886719 13.882812 6.789062 13.84375 C 6.863281 13.796875 6.945312 13.765625 7.03125 13.746094 Z M 7.03125 13.746094 "/>
</g>
</defs>
<g id="surface1">
<use xlink:href="#surface6" mask="url(#mask0)"/>
<path style=" stroke:none;fill-rule:evenodd;fill:rgb(62.745098%,56.862745%,58.823529%);fill-opacity:1;" d="M 28.671875 5.300781 C 28.6875 5.34375 28.71875 5.359375 28.765625 5.351562 C 33.753906 7.691406 38.757812 9.992188 43.785156 12.261719 C 43.800781 12.300781 43.835938 12.316406 43.882812 12.308594 C 44.222656 12.542969 44.539062 12.804688 44.839844 13.101562 C 44.710938 13.117188 44.582031 13.097656 44.457031 13.050781 C 42.390625 13.0625 40.324219 12.96875 38.269531 12.765625 C 36.390625 12.6875 34.519531 12.753906 32.652344 12.957031 C 31.230469 13.140625 29.804688 13.335938 28.382812 13.53125 C 28.304688 13.582031 28.273438 13.652344 28.285156 13.746094 C 29.488281 13.699219 30.6875 13.613281 31.886719 13.484375 C 33.75 13.363281 35.613281 13.339844 37.476562 13.410156 C 39.703125 13.644531 41.933594 13.820312 44.167969 13.941406 C 40.292969 15.867188 36.582031 18.050781 33.039062 20.488281 C 31.03125 21.996094 29.03125 23.515625 27.039062 25.046875 C 26.113281 25.941406 25.1875 26.835938 24.257812 27.734375 C 24.203125 27.765625 24.148438 27.789062 24.089844 27.808594 C 22.371094 26.648438 20.699219 25.425781 19.074219 24.136719 C 17.6875 23.195312 16.3125 22.242188 14.945312 21.28125 C 13.457031 20.03125 11.953125 18.792969 10.4375 17.5625 C 10.390625 17.527344 10.359375 17.539062 10.339844 17.585938 C 9.84375 17.035156 9.371094 16.457031 8.925781 15.859375 C 8.554688 15.464844 8.164062 15.097656 7.75 14.753906 C 7.695312 14.644531 7.671875 14.535156 7.675781 14.417969 C 8.027344 14.304688 8.386719 14.230469 8.757812 14.203125 C 11.125 14.191406 13.492188 14.144531 15.859375 14.058594 C 15.929688 13.949219 15.910156 13.855469 15.8125 13.773438 C 13.699219 13.691406 11.589844 13.660156 9.476562 13.675781 C 9.074219 13.734375 8.675781 13.78125 8.277344 13.820312 C 8.90625 13.273438 9.5625 12.761719 10.246094 12.285156 C 12.117188 11.042969 13.972656 9.78125 15.8125 8.492188 C 16.875 7.777344 17.945312 7.074219 19.027344 6.382812 C 20.480469 5.53125 21.9375 4.683594 23.390625 3.839844 C 23.503906 3.808594 23.617188 3.808594 23.726562 3.839844 C 24.257812 4.238281 24.847656 4.511719 25.503906 4.65625 C 26.5625 4.855469 27.621094 5.070312 28.671875 5.300781 Z M 28.671875 5.300781 "/>
<path style=" stroke:none;fill-rule:evenodd;fill:rgb(0.392157%,0.392157%,0.392157%);fill-opacity:1;" d="M 22.863281 10.4375 C 24.179688 10.300781 25.398438 10.582031 26.511719 11.277344 C 27.335938 11.898438 27.664062 12.722656 27.496094 13.746094 C 27.359375 14.472656 27 15.058594 26.414062 15.5 C 26.121094 15.675781 25.800781 15.761719 25.457031 15.761719 C 25.179688 15.738281 24.90625 15.699219 24.640625 15.644531 C 24.417969 16.488281 23.890625 17.03125 23.054688 17.273438 C 22.578125 17.359375 22.128906 17.28125 21.714844 17.035156 C 20.746094 16.464844 20.320312 15.625 20.441406 14.515625 C 20.78125 13.695312 21.269531 12.984375 21.90625 12.378906 C 22.367188 11.996094 22.894531 11.835938 23.488281 11.898438 C 23.9375 11.980469 24.035156 12.203125 23.777344 12.570312 C 24.242188 13.050781 24.539062 13.617188 24.664062 14.277344 C 25.136719 14.769531 25.601562 14.769531 26.054688 14.277344 C 26.644531 13.242188 26.394531 12.484375 25.3125 11.996094 C 23.695312 11.367188 22.222656 11.609375 20.898438 12.714844 C 18.65625 14.710938 18.800781 16.503906 21.328125 18.089844 C 21.773438 18.324219 22.234375 18.5 22.722656 18.617188 C 23.402344 18.726562 24.011719 18.566406 24.542969 18.136719 C 25.050781 17.667969 25.546875 17.1875 26.03125 16.699219 C 26.589844 16.539062 26.941406 16.738281 27.085938 17.296875 C 27.070312 17.449219 27.03125 17.59375 26.96875 17.730469 C 26.347656 18.480469 25.636719 19.125 24.832031 19.671875 C 24.117188 20.015625 23.367188 20.125 22.578125 20.007812 C 20.890625 19.632812 19.570312 18.730469 18.617188 17.296875 C 17.851562 15.949219 17.882812 14.625 18.714844 13.316406 C 19.515625 12.148438 20.5625 11.273438 21.855469 10.699219 C 22.191406 10.582031 22.527344 10.492188 22.863281 10.4375 Z M 22.863281 10.4375 "/>
<path style=" stroke:none;fill-rule:evenodd;fill:rgb(62.352941%,56.470588%,58.431373%);fill-opacity:1;" d="M 22.386719 13.171875 C 22.671875 13.824219 23.085938 14.382812 23.632812 14.851562 C 23.679688 15.390625 23.488281 15.832031 23.054688 16.171875 C 22.691406 16.347656 22.355469 16.300781 22.050781 16.027344 C 21.71875 15.761719 21.507812 15.425781 21.425781 15.019531 C 21.613281 14.332031 21.933594 13.71875 22.386719 13.171875 Z M 22.386719 13.171875 "/>
<use xlink:href="#surface9" mask="url(#mask1)"/>
<use xlink:href="#surface12" mask="url(#mask2)"/>
<path style=" stroke:none;fill-rule:evenodd;fill:rgb(94.509804%,92.941176%,90.196078%);fill-opacity:1;" d="M 45.511719 14.898438 C 45.570312 14.929688 45.605469 14.988281 45.609375 15.066406 C 45.457031 16.695312 45.191406 18.300781 44.816406 19.890625 C 44.699219 20.71875 44.621094 21.550781 44.578125 22.386719 C 44.5625 24.097656 44.546875 25.808594 44.53125 27.519531 C 44.425781 28.265625 44.371094 29.019531 44.363281 29.773438 C 44.445312 30.71875 44.519531 31.660156 44.578125 32.605469 C 42.671875 31.066406 40.808594 29.476562 38.988281 27.832031 C 36.902344 26.175781 34.886719 24.433594 32.941406 22.601562 C 36.710938 19.847656 40.691406 17.414062 44.890625 15.308594 C 45.117188 15.195312 45.324219 15.058594 45.511719 14.898438 Z M 45.511719 14.898438 "/>
<path style=" stroke:none;fill-rule:evenodd;fill:rgb(94.509804%,92.941176%,90.196078%);fill-opacity:1;" d="M 6.453125 15.953125 C 7.320312 16.765625 8.113281 17.644531 8.828125 18.59375 C 9.953125 19.765625 11.175781 20.816406 12.5 21.738281 C 14.011719 22.789062 15.53125 23.828125 17.058594 24.855469 C 17.507812 25.160156 17.941406 25.488281 18.355469 25.839844 C 18.042969 26.109375 17.722656 26.375 17.394531 26.632812 C 15.554688 27.960938 13.714844 29.285156 11.875 30.613281 C 10.679688 31.554688 9.511719 32.53125 8.375 33.542969 C 7.945312 33.847656 7.519531 34.160156 7.101562 34.476562 C 7.035156 33.628906 6.984375 32.78125 6.957031 31.933594 C 6.839844 28.207031 6.726562 24.480469 6.621094 20.753906 C 6.574219 19.742188 6.5 18.734375 6.40625 17.730469 C 6.390625 17.128906 6.40625 16.539062 6.453125 15.953125 Z M 6.453125 15.953125 "/>
<path style=" stroke:none;fill-rule:evenodd;fill:rgb(64.705882%,63.921569%,61.960784%);fill-opacity:1;" d="M 6.453125 15.953125 C 6.40625 16.539062 6.390625 17.128906 6.40625 17.730469 C 6.34375 17.128906 6.34375 16.523438 6.40625 15.90625 C 6.433594 15.914062 6.449219 15.929688 6.453125 15.953125 Z M 6.453125 15.953125 "/>
<path style=" stroke:none;fill-rule:evenodd;fill:rgb(90.980392%,89.019608%,86.666667%);fill-opacity:1;" d="M 14.945312 21.28125 C 13.253906 20.257812 11.71875 19.023438 10.339844 17.585938 C 10.359375 17.539062 10.390625 17.527344 10.4375 17.5625 C 11.953125 18.792969 13.457031 20.03125 14.945312 21.28125 Z M 14.945312 21.28125 "/>
<path style=" stroke:none;fill-rule:evenodd;fill:rgb(94.509804%,92.941176%,90.196078%);fill-opacity:1;" d="M 44.792969 40.425781 C 42.730469 40.335938 40.667969 40.257812 38.605469 40.1875 C 38.523438 40.1875 38.445312 40.1875 38.363281 40.1875 C 35.398438 39.953125 32.421875 39.753906 29.4375 39.585938 C 27.199219 39.480469 24.960938 39.453125 22.722656 39.515625 C 17.554688 39.304688 12.386719 39.097656 7.222656 38.890625 C 7.289062 37.867188 7.28125 36.84375 7.199219 35.820312 C 7.878906 35.28125 8.574219 34.761719 9.285156 34.261719 C 10.523438 33.171875 11.785156 32.117188 13.074219 31.09375 C 14.476562 30.066406 15.867188 29.027344 17.25 27.976562 C 17.851562 27.453125 18.425781 26.910156 18.976562 26.34375 C 19.585938 26.738281 20.175781 27.167969 20.753906 27.640625 C 21.476562 28.152344 22.210938 28.648438 22.960938 29.125 C 23.816406 29.648438 24.632812 29.601562 25.40625 28.984375 C 26.335938 28.121094 27.230469 27.222656 28.09375 26.296875 C 28.78125 25.800781 29.46875 25.304688 30.160156 24.808594 C 30.855469 24.207031 31.570312 23.625 32.292969 23.054688 C 33.242188 24.003906 34.191406 24.957031 35.148438 25.910156 C 37.191406 27.628906 39.191406 29.40625 41.148438 31.238281 C 42.363281 32.199219 43.523438 33.230469 44.625 34.332031 C 44.816406 36.359375 44.875 38.390625 44.792969 40.425781 Z M 44.792969 40.425781 "/>
</g>
</svg>
