<?xml version="1.0" encoding="UTF-8"?>
<svg xmlns="http://www.w3.org/2000/svg" xmlns:xlink="http://www.w3.org/1999/xlink" width="50pt" height="50pt" viewBox="0 0 50 50" version="1.1">
<defs>
<filter id="alpha" filterUnits="objectBoundingBox" x="0%" y="0%" width="100%" height="100%">
  <feColorMatrix type="matrix" in="SourceGraphic" values="0 0 0 0 1 0 0 0 0 1 0 0 0 0 1 0 0 0 1 0"/>
</filter>
<mask id="mask0">
  <g filter="url(#alpha)">
<rect x="0" y="0" width="50" height="50" style="fill:rgb(0%,0%,0%);fill-opacity:0.992157;stroke:none;"/>
  </g>
</mask>
<clipPath id="clip1">
  <rect width="50" height="50"/>
</clipPath>
<g id="surface6" clip-path="url(#clip1)">
<path style=" stroke:none;fill-rule:evenodd;fill:rgb(0%,0%,0%);fill-opacity:1;" d="M 29.511719 30.207031 C 29.605469 30.699219 29.714844 31.1875 29.835938 31.671875 C 30.15625 32.773438 30.484375 33.867188 30.820312 34.960938 C 30.890625 35.175781 30.941406 35.398438 30.976562 35.621094 C 30.917969 35.886719 30.75 35.992188 30.472656 35.933594 C 30.390625 35.898438 30.324219 35.847656 30.269531 35.777344 C 29.582031 34.089844 29.0625 32.355469 28.707031 30.570312 C 28.554688 29.664062 28.460938 28.75 28.421875 27.832031 C 28.011719 28.867188 27.835938 29.9375 27.890625 31.050781 C 28.160156 31.832031 28.367188 32.632812 28.515625 33.449219 C 28.550781 33.6875 28.558594 33.929688 28.539062 34.167969 C 28.496094 34.261719 28.4375 34.335938 28.359375 34.398438 C 28.582031 35.042969 28.945312 35.589844 29.453125 36.042969 C 29.554688 36.273438 29.511719 36.472656 29.320312 36.640625 C 29.160156 36.75 28.992188 36.765625 28.816406 36.691406 C 28.785156 36.667969 28.753906 36.640625 28.71875 36.617188 C 28.6875 36.628906 28.671875 36.652344 28.671875 36.691406 C 28.535156 36.804688 28.375 36.839844 28.191406 36.796875 C 28.128906 36.777344 28.078125 36.742188 28.035156 36.691406 C 27.445312 35.769531 26.929688 34.800781 26.5 33.785156 C 26.28125 33.15625 26.160156 32.507812 26.140625 31.839844 C 26.109375 30.675781 26.222656 29.523438 26.476562 28.382812 C 26.535156 26.945312 26.824219 25.550781 27.339844 24.207031 C 27.519531 23.789062 27.722656 23.382812 27.941406 22.984375 C 28.1875 22.601562 28.441406 22.226562 28.707031 21.855469 C 28.933594 20.15625 29.429688 18.539062 30.195312 17.007812 C 30.65625 16.167969 31.207031 15.390625 31.839844 14.679688 C 32.335938 14.113281 32.847656 13.558594 33.378906 13.023438 C 33.824219 12.535156 34.289062 12.0625 34.769531 11.605469 C 35.097656 11.273438 35.40625 10.921875 35.695312 10.550781 C 35.710938 9.902344 35.648438 9.261719 35.5 8.628906 C 35.476562 8.484375 35.429688 8.347656 35.371094 8.222656 C 35.078125 7.167969 34.640625 6.183594 34.050781 5.269531 C 34.039062 5.234375 34.015625 5.21875 33.976562 5.222656 C 32.988281 4.605469 31.949219 4.09375 30.855469 3.683594 C 30.667969 3.574219 30.46875 3.539062 30.257812 3.589844 C 28.960938 3.738281 27.746094 4.132812 26.609375 4.777344 C 26.40625 4.894531 26.207031 5.007812 26.007812 5.125 C 24.886719 5.769531 23.929688 6.609375 23.140625 7.644531 C 22.320312 8.800781 21.960938 10.089844 22.058594 11.511719 C 22.089844 11.871094 22.136719 12.230469 22.203125 12.589844 C 22.308594 12.769531 22.425781 12.9375 22.550781 13.09375 C 22.546875 13.226562 22.492188 13.332031 22.382812 13.40625 C 22.476562 13.726562 22.570312 14.046875 22.671875 14.367188 C 22.664062 14.429688 22.632812 14.472656 22.574219 14.5 C 22.476562 14.527344 22.394531 14.507812 22.324219 14.4375 C 22.183594 14.042969 22.058594 13.644531 21.953125 13.238281 C 21.933594 13.164062 21.914062 13.09375 21.890625 13.023438 C 21.292969 12.128906 21.054688 11.144531 21.171875 10.070312 C 21.261719 9.316406 21.414062 8.582031 21.628906 7.859375 C 21.132812 8.667969 20.75 9.523438 20.476562 10.429688 C 20.257812 11.484375 20.3125 12.523438 20.644531 13.550781 C 20.652344 13.5625 20.664062 13.570312 20.679688 13.574219 C 20.722656 13.722656 20.761719 13.871094 20.800781 14.019531 C 20.796875 14.148438 20.726562 14.214844 20.59375 14.222656 C 20.519531 14.214844 20.453125 14.183594 20.402344 14.125 C 20.339844 13.984375 20.289062 13.84375 20.246094 13.695312 C 20.222656 13.605469 20.195312 13.515625 20.164062 13.429688 C 20.007812 13.601562 19.839844 13.617188 19.660156 13.476562 C 19.261719 12.929688 18.957031 12.328125 18.746094 11.679688 C 18.535156 10.714844 18.542969 9.757812 18.769531 8.796875 C 18.816406 8.585938 18.867188 8.378906 18.925781 8.171875 C 19.375 6.636719 20.15625 5.300781 21.265625 4.164062 C 22.019531 3.386719 22.878906 2.757812 23.847656 2.28125 C 24.136719 2.152344 24.433594 2.042969 24.734375 1.957031 C 25.464844 1.753906 26.210938 1.640625 26.96875 1.609375 C 27.023438 1.585938 27.070312 1.558594 27.113281 1.523438 C 28.78125 0.765625 30.394531 0.863281 31.960938 1.824219 C 32.398438 2.09375 32.808594 2.40625 33.183594 2.761719 C 34.488281 3.261719 35.585938 4.039062 36.484375 5.101562 C 37.195312 5.996094 37.519531 7.015625 37.457031 8.160156 C 37.730469 9.207031 37.816406 10.265625 37.710938 11.34375 C 37.480469 13.398438 36.871094 15.332031 35.886719 17.152344 C 35.46875 17.917969 35.003906 18.65625 34.492188 19.359375 C 33.636719 20.457031 32.78125 21.550781 31.925781 22.648438 C 31.210938 23.453125 30.53125 24.285156 29.886719 25.144531 C 29.667969 25.464844 29.460938 25.792969 29.261719 26.128906 C 29.222656 27.496094 29.308594 28.855469 29.511719 30.207031 Z M 30.570312 18.230469 C 30.386719 18.949219 30.199219 19.671875 30.015625 20.390625 C 29.9375 20.457031 29.863281 20.527344 29.800781 20.605469 C 29.972656 19.785156 30.226562 18.992188 30.570312 18.230469 Z M 30.570312 18.230469 "/>
</g>
<mask id="mask1">
  <g filter="url(#alpha)">
<rect x="0" y="0" width="50" height="50" style="fill:rgb(0%,0%,0%);fill-opacity:0.882353;stroke:none;"/>
  </g>
</mask>
<clipPath id="clip2">
  <rect width="50" height="50"/>
</clipPath>
<g id="surface9" clip-path="url(#clip2)">
<path style=" stroke:none;fill-rule:evenodd;fill:rgb(94.901961%,94.901961%,94.901961%);fill-opacity:1;" d="M 27.113281 1.523438 C 27.070312 1.558594 27.023438 1.585938 26.96875 1.609375 C 26.210938 1.640625 25.464844 1.753906 24.734375 1.957031 C 25.492188 1.640625 26.285156 1.496094 27.113281 1.523438 Z M 27.113281 1.523438 "/>
</g>
<mask id="mask2">
  <g filter="url(#alpha)">
<rect x="0" y="0" width="50" height="50" style="fill:rgb(0%,0%,0%);fill-opacity:0.65098;stroke:none;"/>
  </g>
</mask>
<clipPath id="clip3">
  <rect width="50" height="50"/>
</clipPath>
<g id="surface12" clip-path="url(#clip3)">
<path style=" stroke:none;fill-rule:evenodd;fill:rgb(87.45098%,87.45098%,87.45098%);fill-opacity:1;" d="M 30.257812 3.589844 C 30.46875 3.539062 30.667969 3.574219 30.855469 3.683594 C 30.65625 3.652344 30.457031 3.621094 30.257812 3.589844 Z M 30.257812 3.589844 "/>
</g>
<mask id="mask3">
  <g filter="url(#alpha)">
<rect x="0" y="0" width="50" height="50" style="fill:rgb(0%,0%,0%);fill-opacity:0.988235;stroke:none;"/>
  </g>
</mask>
<clipPath id="clip4">
  <rect width="50" height="50"/>
</clipPath>
<g id="surface15" clip-path="url(#clip4)">
<path style=" stroke:none;fill-rule:evenodd;fill:rgb(99.607843%,99.607843%,99.607843%);fill-opacity:1;" d="M 26.007812 5.125 C 25.671875 5.800781 25.261719 6.425781 24.773438 6.996094 C 24.480469 7.28125 24.21875 7.582031 23.980469 7.910156 C 23.894531 8.121094 23.851562 8.339844 23.847656 8.570312 C 23.863281 8.886719 23.902344 9.203125 23.957031 9.515625 C 24.15625 10.617188 24.371094 11.710938 24.59375 12.804688 C 23.910156 12.902344 23.230469 13 22.550781 13.09375 C 22.425781 12.9375 22.308594 12.769531 22.203125 12.589844 C 22.136719 12.230469 22.089844 11.871094 22.058594 11.511719 C 21.960938 10.089844 22.320312 8.800781 23.140625 7.644531 C 23.929688 6.609375 24.886719 5.769531 26.007812 5.125 Z M 26.007812 5.125 "/>
</g>
<mask id="mask4">
  <g filter="url(#alpha)">
<rect x="0" y="0" width="50" height="50" style="fill:rgb(0%,0%,0%);fill-opacity:0.847059;stroke:none;"/>
  </g>
</mask>
<clipPath id="clip5">
  <rect width="50" height="50"/>
</clipPath>
<g id="surface18" clip-path="url(#clip5)">
<path style=" stroke:none;fill-rule:evenodd;fill:rgb(54.509804%,54.509804%,54.509804%);fill-opacity:1;" d="M 33.976562 5.222656 C 34.015625 5.21875 34.039062 5.234375 34.050781 5.269531 C 34.011719 5.269531 33.988281 5.253906 33.976562 5.222656 Z M 33.976562 5.222656 "/>
</g>
<mask id="mask5">
  <g filter="url(#alpha)">
<rect x="0" y="0" width="50" height="50" style="fill:rgb(0%,0%,0%);fill-opacity:0.74902;stroke:none;"/>
  </g>
</mask>
<clipPath id="clip6">
  <rect width="50" height="50"/>
</clipPath>
<g id="surface21" clip-path="url(#clip6)">
<path style=" stroke:none;fill-rule:evenodd;fill:rgb(0%,0%,0%);fill-opacity:1;" d="M 26.585938 7.523438 C 26.691406 7.53125 26.722656 7.582031 26.679688 7.679688 C 26.539062 7.695312 26.507812 7.640625 26.585938 7.523438 Z M 26.585938 7.523438 "/>
</g>
<mask id="mask6">
  <g filter="url(#alpha)">
<rect x="0" y="0" width="50" height="50" style="fill:rgb(0%,0%,0%);fill-opacity:0.996078;stroke:none;"/>
  </g>
</mask>
<clipPath id="clip7">
  <rect width="50" height="50"/>
</clipPath>
<g id="surface24" clip-path="url(#clip7)">
<path style=" stroke:none;fill-rule:evenodd;fill:rgb(98.823529%,98.823529%,98.823529%);fill-opacity:1;" d="M 21.953125 13.238281 C 21.527344 13.355469 21.105469 13.464844 20.679688 13.574219 C 20.664062 13.570312 20.652344 13.5625 20.644531 13.550781 C 20.3125 12.523438 20.257812 11.484375 20.476562 10.429688 C 20.75 9.523438 21.132812 8.667969 21.628906 7.859375 C 21.414062 8.582031 21.261719 9.316406 21.171875 10.070312 C 21.054688 11.144531 21.292969 12.128906 21.890625 13.023438 C 21.914062 13.09375 21.933594 13.164062 21.953125 13.238281 Z M 21.953125 13.238281 "/>
</g>
<mask id="mask7">
  <g filter="url(#alpha)">
<rect x="0" y="0" width="50" height="50" style="fill:rgb(0%,0%,0%);fill-opacity:0.94902;stroke:none;"/>
  </g>
</mask>
<clipPath id="clip8">
  <rect width="50" height="50"/>
</clipPath>
<g id="surface27" clip-path="url(#clip8)">
<path style=" stroke:none;fill-rule:evenodd;fill:rgb(97.647059%,97.647059%,97.647059%);fill-opacity:1;" d="M 35.371094 8.222656 C 35.429688 8.347656 35.476562 8.484375 35.5 8.628906 C 35.648438 9.261719 35.710938 9.902344 35.695312 10.550781 C 35.40625 10.921875 35.097656 11.273438 34.769531 11.605469 C 35.0625 11.222656 35.257812 10.789062 35.359375 10.308594 C 35.378906 10.179688 35.390625 10.046875 35.394531 9.914062 C 35.339844 9.351562 35.332031 8.785156 35.371094 8.222656 Z M 35.371094 8.222656 "/>
</g>
<mask id="mask8">
  <g filter="url(#alpha)">
<rect x="0" y="0" width="50" height="50" style="fill:rgb(0%,0%,0%);fill-opacity:0.968627;stroke:none;"/>
  </g>
</mask>
<clipPath id="clip9">
  <rect width="50" height="50"/>
</clipPath>
<g id="surface30" clip-path="url(#clip9)">
<path style=" stroke:none;fill-rule:evenodd;fill:rgb(98.823529%,98.823529%,98.823529%);fill-opacity:1;" d="M 18.925781 8.171875 C 18.867188 8.378906 18.816406 8.585938 18.769531 8.796875 C 18.542969 9.757812 18.535156 10.714844 18.746094 11.679688 C 18.957031 12.328125 19.261719 12.929688 19.660156 13.476562 C 19.839844 13.617188 20.007812 13.601562 20.164062 13.429688 C 20.195312 13.515625 20.222656 13.605469 20.246094 13.695312 C 19.960938 13.757812 19.675781 13.828125 19.394531 13.910156 C 18.210938 12.5 17.898438 10.917969 18.457031 9.15625 C 18.582031 8.8125 18.738281 8.484375 18.925781 8.171875 Z M 18.925781 8.171875 "/>
</g>
<mask id="mask9">
  <g filter="url(#alpha)">
<rect x="0" y="0" width="50" height="50" style="fill:rgb(0%,0%,0%);fill-opacity:0.996078;stroke:none;"/>
  </g>
</mask>
<clipPath id="clip10">
  <rect width="50" height="50"/>
</clipPath>
<g id="surface33" clip-path="url(#clip10)">
<path style=" stroke:none;fill-rule:evenodd;fill:rgb(99.215686%,99.215686%,99.215686%);fill-opacity:1;" d="M 30.015625 20.390625 C 30.199219 19.671875 30.386719 18.949219 30.570312 18.230469 C 30.570312 18.222656 30.570312 18.214844 30.570312 18.207031 C 30.878906 17.4375 31.273438 16.71875 31.757812 16.046875 C 32.636719 14.929688 33.597656 13.871094 34.636719 12.878906 C 34.957031 12.550781 35.269531 12.214844 35.574219 11.871094 C 35.417969 12.824219 35.113281 13.726562 34.660156 14.582031 C 33.980469 15.671875 33.226562 16.714844 32.40625 17.703125 C 31.640625 18.625 30.84375 19.519531 30.015625 20.390625 Z M 30.015625 20.390625 "/>
</g>
<mask id="mask10">
  <g filter="url(#alpha)">
<rect x="0" y="0" width="50" height="50" style="fill:rgb(0%,0%,0%);fill-opacity:0.776471;stroke:none;"/>
  </g>
</mask>
<clipPath id="clip11">
  <rect width="50" height="50"/>
</clipPath>
<g id="surface36" clip-path="url(#clip11)">
<path style=" stroke:none;fill-rule:evenodd;fill:rgb(95.294118%,95.294118%,95.294118%);fill-opacity:1;" d="M 33.378906 13.023438 C 32.847656 13.558594 32.335938 14.113281 31.839844 14.679688 C 31.878906 14.574219 31.929688 14.476562 31.996094 14.390625 C 32.40625 13.878906 32.867188 13.425781 33.378906 13.023438 Z M 33.378906 13.023438 "/>
</g>
<mask id="mask11">
  <g filter="url(#alpha)">
<rect x="0" y="0" width="50" height="50" style="fill:rgb(0%,0%,0%);fill-opacity:0.988235;stroke:none;"/>
  </g>
</mask>
<clipPath id="clip12">
  <rect width="50" height="50"/>
</clipPath>
<g id="surface39" clip-path="url(#clip12)">
<path style=" stroke:none;fill-rule:evenodd;fill:rgb(98.823529%,98.823529%,98.823529%);fill-opacity:1;" d="M 29.511719 30.207031 C 29.90625 31.335938 30.34375 32.445312 30.820312 33.546875 C 31.097656 34.175781 31.433594 34.765625 31.828125 35.320312 C 32 35.53125 32.191406 35.714844 32.40625 35.875 C 32.4375 35.996094 32.390625 36.078125 32.273438 36.125 C 31.769531 36.308594 31.246094 36.425781 30.714844 36.484375 C 30.25 36.546875 29.785156 36.601562 29.320312 36.640625 C 29.511719 36.472656 29.554688 36.273438 29.453125 36.042969 C 28.945312 35.589844 28.582031 35.042969 28.359375 34.398438 C 28.4375 34.335938 28.496094 34.261719 28.539062 34.167969 C 28.558594 33.929688 28.550781 33.6875 28.515625 33.449219 C 28.367188 32.632812 28.160156 31.832031 27.890625 31.050781 C 27.835938 29.9375 28.011719 28.867188 28.421875 27.832031 C 28.460938 28.75 28.554688 29.664062 28.707031 30.570312 C 29.0625 32.355469 29.582031 34.089844 30.269531 35.777344 C 30.324219 35.847656 30.390625 35.898438 30.472656 35.933594 C 30.75 35.992188 30.917969 35.886719 30.976562 35.621094 C 30.941406 35.398438 30.890625 35.175781 30.820312 34.960938 C 30.484375 33.867188 30.15625 32.773438 29.835938 31.671875 C 29.714844 31.1875 29.605469 30.699219 29.511719 30.207031 Z M 29.511719 30.207031 "/>
</g>
<mask id="mask12">
  <g filter="url(#alpha)">
<rect x="0" y="0" width="50" height="50" style="fill:rgb(0%,0%,0%);fill-opacity:0.717647;stroke:none;"/>
  </g>
</mask>
<clipPath id="clip13">
  <rect width="50" height="50"/>
</clipPath>
<g id="surface42" clip-path="url(#clip13)">
<path style=" stroke:none;fill-rule:evenodd;fill:rgb(86.27451%,86.27451%,86.27451%);fill-opacity:1;" d="M 28.816406 36.691406 C 28.769531 36.691406 28.71875 36.691406 28.671875 36.691406 C 28.671875 36.652344 28.6875 36.628906 28.71875 36.617188 C 28.753906 36.640625 28.785156 36.667969 28.816406 36.691406 Z M 28.816406 36.691406 "/>
</g>
<mask id="mask13">
  <g filter="url(#alpha)">
<rect x="0" y="0" width="50" height="50" style="fill:rgb(0%,0%,0%);fill-opacity:0.976471;stroke:none;"/>
  </g>
</mask>
<clipPath id="clip14">
  <rect width="50" height="50"/>
</clipPath>
<g id="surface45" clip-path="url(#clip14)">
<path style=" stroke:none;fill-rule:evenodd;fill:rgb(99.215686%,99.215686%,99.215686%);fill-opacity:1;" d="M 30.761719 41.730469 C 30.457031 41.5625 30.132812 41.503906 29.789062 41.5625 C 28.640625 41.320312 27.554688 41.492188 26.535156 42.078125 C 26.238281 42.242188 25.960938 42.433594 25.695312 42.644531 C 25.6875 42.644531 25.679688 42.644531 25.671875 42.644531 C 25.765625 42.527344 25.855469 42.40625 25.949219 42.28125 C 26.035156 41.984375 26.191406 41.734375 26.417969 41.527344 C 26.808594 41.277344 27.230469 41.101562 27.6875 41 C 28.433594 40.808594 29.191406 40.683594 29.957031 40.625 C 30.238281 40.585938 30.488281 40.660156 30.699219 40.84375 C 30.746094 40.925781 30.777344 41.011719 30.796875 41.105469 C 30.8125 41.316406 30.800781 41.523438 30.761719 41.730469 Z M 30.761719 41.730469 "/>
</g>
<mask id="mask14">
  <g filter="url(#alpha)">
<rect x="0" y="0" width="50" height="50" style="fill:rgb(0%,0%,0%);fill-opacity:0.996078;stroke:none;"/>
  </g>
</mask>
<clipPath id="clip15">
  <rect width="50" height="50"/>
</clipPath>
<g id="surface48" clip-path="url(#clip15)">
<path style=" stroke:none;fill-rule:evenodd;fill:rgb(0.392157%,0.392157%,0.392157%);fill-opacity:1;" d="M 30.761719 41.730469 C 31.027344 41.914062 31.171875 42.171875 31.203125 42.5 C 31.238281 42.878906 31.160156 43.234375 30.976562 43.566406 C 31.453125 43.898438 31.683594 44.355469 31.671875 44.945312 C 31.597656 46.160156 31.117188 47.175781 30.234375 47.996094 C 30.035156 48.164062 29.820312 48.296875 29.585938 48.402344 C 29.527344 48.429688 29.460938 48.449219 29.394531 48.464844 C 29.257812 48.476562 29.121094 48.480469 28.984375 48.476562 C 28.585938 48.347656 28.320312 48.082031 28.179688 47.683594 C 28.121094 47.46875 28.070312 47.253906 28.023438 47.035156 C 27.300781 47.441406 26.535156 47.695312 25.71875 47.804688 C 25.15625 47.863281 24.628906 47.753906 24.136719 47.480469 C 23.667969 47.171875 23.453125 46.734375 23.488281 46.171875 C 23.488281 45.742188 23.578125 45.335938 23.75 44.945312 C 23.9375 44.578125 24.160156 44.234375 24.425781 43.914062 C 24.757812 43.476562 25.144531 43.082031 25.574219 42.738281 C 25.628906 42.726562 25.671875 42.691406 25.695312 42.644531 C 25.960938 42.433594 26.238281 42.242188 26.535156 42.078125 C 27.554688 41.492188 28.640625 41.320312 29.789062 41.5625 C 30.132812 41.503906 30.457031 41.5625 30.761719 41.730469 Z M 24.28125 46.195312 C 24.496094 46.40625 24.699219 46.628906 24.878906 46.867188 C 24.511719 46.792969 24.308594 46.570312 24.28125 46.195312 Z M 24.28125 46.195312 "/>
</g>
<mask id="mask15">
  <g filter="url(#alpha)">
<rect x="0" y="0" width="50" height="50" style="fill:rgb(0%,0%,0%);fill-opacity:0.996078;stroke:none;"/>
  </g>
</mask>
<clipPath id="clip16">
  <rect width="50" height="50"/>
</clipPath>
<g id="surface51" clip-path="url(#clip16)">
<path style=" stroke:none;fill-rule:evenodd;fill:rgb(32.54902%,32.54902%,32.54902%);fill-opacity:1;" d="M 25.671875 42.644531 C 25.679688 42.644531 25.6875 42.644531 25.695312 42.644531 C 25.671875 42.691406 25.628906 42.726562 25.574219 42.738281 C 25.601562 42.699219 25.632812 42.667969 25.671875 42.644531 Z M 25.671875 42.644531 "/>
</g>
<mask id="mask16">
  <g filter="url(#alpha)">
<rect x="0" y="0" width="50" height="50" style="fill:rgb(0%,0%,0%);fill-opacity:0.996078;stroke:none;"/>
  </g>
</mask>
<clipPath id="clip17">
  <rect width="50" height="50"/>
</clipPath>
<g id="surface54" clip-path="url(#clip17)">
<path style=" stroke:none;fill-rule:evenodd;fill:rgb(98.431373%,98.431373%,98.431373%);fill-opacity:1;" d="M 24.878906 46.867188 C 24.699219 46.628906 24.496094 46.40625 24.28125 46.195312 C 24.273438 45.691406 24.40625 45.226562 24.675781 44.804688 C 25.316406 43.816406 26.160156 43.0625 27.207031 42.535156 C 27.558594 42.363281 27.929688 42.253906 28.3125 42.199219 C 28.140625 42.3125 27.972656 42.433594 27.808594 42.558594 C 26.871094 42.625 26.195312 43.078125 25.78125 43.914062 C 25.4375 44.6875 25.414062 45.472656 25.707031 46.265625 C 25.820312 46.492188 25.96875 46.691406 26.152344 46.867188 C 25.925781 46.925781 25.691406 46.949219 25.457031 46.941406 C 25.257812 46.949219 25.066406 46.925781 24.878906 46.867188 Z M 24.878906 46.867188 "/>
</g>
<mask id="mask17">
  <g filter="url(#alpha)">
<rect x="0" y="0" width="50" height="50" style="fill:rgb(0%,0%,0%);fill-opacity:0.690196;stroke:none;"/>
  </g>
</mask>
<clipPath id="clip18">
  <rect width="50" height="50"/>
</clipPath>
<g id="surface57" clip-path="url(#clip18)">
<path style=" stroke:none;fill-rule:evenodd;fill:rgb(90.196078%,90.196078%,90.196078%);fill-opacity:1;" d="M 24.425781 43.914062 C 24.160156 44.234375 23.9375 44.578125 23.75 44.945312 C 23.804688 44.683594 23.921875 44.449219 24.101562 44.25 C 24.214844 44.140625 24.320312 44.03125 24.425781 43.914062 Z M 24.425781 43.914062 "/>
</g>
<mask id="mask18">
  <g filter="url(#alpha)">
<rect x="0" y="0" width="50" height="50" style="fill:rgb(0%,0%,0%);fill-opacity:0.984314;stroke:none;"/>
  </g>
</mask>
<clipPath id="clip19">
  <rect width="50" height="50"/>
</clipPath>
<g id="surface60" clip-path="url(#clip19)">
<path style=" stroke:none;fill-rule:evenodd;fill:rgb(99.215686%,99.215686%,99.215686%);fill-opacity:1;" d="M 28.984375 48.476562 C 28.84375 48.488281 28.710938 48.515625 28.578125 48.558594 C 28.304688 48.683594 28.023438 48.785156 27.738281 48.871094 C 27.382812 48.953125 27.046875 48.90625 26.726562 48.726562 C 26.34375 48.472656 26.007812 48.164062 25.71875 47.804688 C 26.535156 47.695312 27.300781 47.441406 28.023438 47.035156 C 28.070312 47.253906 28.121094 47.46875 28.179688 47.683594 C 28.320312 48.082031 28.585938 48.347656 28.984375 48.476562 Z M 28.984375 48.476562 "/>
</g>
<mask id="mask19">
  <g filter="url(#alpha)">
<rect x="0" y="0" width="50" height="50" style="fill:rgb(0%,0%,0%);fill-opacity:0.847059;stroke:none;"/>
  </g>
</mask>
<clipPath id="clip20">
  <rect width="50" height="50"/>
</clipPath>
<g id="surface63" clip-path="url(#clip20)">
<path style=" stroke:none;fill-rule:evenodd;fill:rgb(95.294118%,95.294118%,95.294118%);fill-opacity:1;" d="M 30.234375 47.996094 C 30.113281 48.285156 29.898438 48.417969 29.585938 48.402344 C 29.820312 48.296875 30.035156 48.164062 30.234375 47.996094 Z M 30.234375 47.996094 "/>
</g>
</defs>
<g id="surface1">
<use xlink:href="#surface6" mask="url(#mask0)"/>
<use xlink:href="#surface9" mask="url(#mask1)"/>
<path style=" stroke:none;fill-rule:evenodd;fill:rgb(96.078431%,96.078431%,96.078431%);fill-opacity:1;" d="M 29.535156 2.484375 C 29.496094 2.507812 29.445312 2.515625 29.394531 2.507812 C 28.367188 2.472656 27.367188 2.609375 26.390625 2.917969 C 26.363281 2.90625 26.363281 2.894531 26.390625 2.878906 C 26.730469 2.664062 27.082031 2.472656 27.449219 2.304688 C 28.148438 2.3125 28.84375 2.371094 29.535156 2.484375 Z M 29.535156 2.484375 "/>
<path style=" stroke:none;fill-rule:evenodd;fill:rgb(98.823529%,98.823529%,98.823529%);fill-opacity:1;" d="M 25.503906 2.4375 C 25.535156 2.433594 25.570312 2.4375 25.601562 2.449219 C 24.097656 3.574219 22.796875 4.898438 21.699219 6.421875 C 21.050781 7.433594 20.511719 8.503906 20.089844 9.636719 C 19.878906 10.242188 19.792969 10.867188 19.828125 11.511719 C 19.851562 12.03125 19.925781 12.542969 20.042969 13.046875 C 19.476562 12.269531 19.1875 11.402344 19.167969 10.441406 C 19.261719 8.4375 19.953125 6.671875 21.242188 5.148438 C 21.855469 4.457031 22.539062 3.851562 23.296875 3.335938 C 23.980469 2.910156 24.71875 2.609375 25.503906 2.4375 Z M 25.503906 2.4375 "/>
<path style=" stroke:none;fill-rule:evenodd;fill:rgb(55.294118%,55.294118%,55.294118%);fill-opacity:1;" d="M 29.535156 2.484375 C 29.746094 2.511719 29.953125 2.546875 30.160156 2.59375 C 29.902344 2.570312 29.644531 2.542969 29.394531 2.507812 C 29.445312 2.515625 29.496094 2.507812 29.535156 2.484375 Z M 29.535156 2.484375 "/>
<path style=" stroke:none;fill-rule:evenodd;fill:rgb(51.764706%,51.764706%,51.764706%);fill-opacity:1;" d="M 30.28125 2.652344 C 30.417969 2.636719 30.550781 2.660156 30.6875 2.710938 C 30.550781 2.703125 30.414062 2.683594 30.28125 2.652344 Z M 30.28125 2.652344 "/>
<path style=" stroke:none;fill-rule:evenodd;fill:rgb(97.254902%,97.254902%,97.254902%);fill-opacity:1;" d="M 27.207031 3.492188 C 27.25 3.488281 27.289062 3.492188 27.328125 3.503906 C 25.875 4.136719 24.582031 5.003906 23.453125 6.109375 C 23.15625 6.425781 22.882812 6.761719 22.636719 7.117188 C 22.859375 6.445312 23.195312 5.839844 23.644531 5.292969 C 24.339844 4.636719 25.140625 4.152344 26.054688 3.839844 C 26.4375 3.710938 26.824219 3.59375 27.207031 3.492188 Z M 27.207031 3.492188 "/>
<use xlink:href="#surface12" mask="url(#mask2)"/>
<use xlink:href="#surface15" mask="url(#mask3)"/>
<use xlink:href="#surface18" mask="url(#mask4)"/>
<use xlink:href="#surface21" mask="url(#mask5)"/>
<use xlink:href="#surface24" mask="url(#mask6)"/>
<use xlink:href="#surface27" mask="url(#mask7)"/>
<use xlink:href="#surface30" mask="url(#mask8)"/>
<use xlink:href="#surface33" mask="url(#mask9)"/>
<path style=" stroke:none;fill-rule:evenodd;fill:rgb(46.27451%,46.27451%,46.27451%);fill-opacity:1;" d="M 36.472656 13.117188 C 36.464844 13.117188 36.457031 13.117188 36.449219 13.117188 C 36.460938 13.058594 36.484375 13.003906 36.511719 12.949219 C 36.515625 13.011719 36.503906 13.066406 36.472656 13.117188 Z M 36.472656 13.117188 "/>
<use xlink:href="#surface36" mask="url(#mask10)"/>
<path style=" stroke:none;fill-rule:evenodd;fill:rgb(97.254902%,97.254902%,97.254902%);fill-opacity:1;" d="M 36.449219 13.117188 C 36.457031 13.117188 36.464844 13.117188 36.472656 13.117188 C 35.976562 15.050781 35.148438 16.828125 33.988281 18.445312 C 32.714844 20.167969 31.386719 21.847656 30.003906 23.488281 C 29.769531 23.78125 29.542969 24.078125 29.320312 24.375 C 29.296875 24.292969 29.289062 24.203125 29.296875 24.113281 C 29.601562 23.636719 29.925781 23.171875 30.269531 22.71875 C 31.132812 21.648438 31.996094 20.574219 32.859375 19.503906 C 33.914062 18.097656 34.800781 16.582031 35.527344 14.964844 C 35.886719 14.375 36.191406 13.761719 36.449219 13.117188 Z M 36.449219 13.117188 "/>
<path style=" stroke:none;fill-rule:evenodd;fill:rgb(54.901961%,54.901961%,54.901961%);fill-opacity:1;" d="M 29.296875 24.113281 C 29.289062 24.203125 29.296875 24.292969 29.320312 24.375 C 29.3125 24.394531 29.300781 24.410156 29.285156 24.425781 C 29.265625 24.316406 29.269531 24.210938 29.296875 24.113281 Z M 29.296875 24.113281 "/>
<path style=" stroke:none;fill-rule:evenodd;fill:rgb(72.54902%,72.54902%,72.54902%);fill-opacity:1;" d="M 28.382812 25.671875 C 28.386719 25.773438 28.351562 25.871094 28.277344 25.960938 C 28.304688 25.863281 28.339844 25.765625 28.382812 25.671875 Z M 28.382812 25.671875 "/>
<use xlink:href="#surface39" mask="url(#mask11)"/>
<use xlink:href="#surface42" mask="url(#mask12)"/>
<use xlink:href="#surface45" mask="url(#mask13)"/>
<use xlink:href="#surface48" mask="url(#mask14)"/>
<path style=" stroke:none;fill-rule:evenodd;fill:rgb(98.039216%,98.039216%,98.039216%);fill-opacity:1;" d="M 29.703125 42.425781 C 29.761719 42.417969 29.820312 42.425781 29.871094 42.449219 C 29.957031 42.609375 29.988281 42.777344 29.96875 42.953125 C 29.863281 42.980469 29.769531 43.023438 29.679688 43.085938 C 29.542969 43.203125 29.410156 43.328125 29.285156 43.457031 C 29.164062 43.242188 29.007812 43.054688 28.816406 42.894531 C 29.09375 42.699219 29.390625 42.542969 29.703125 42.425781 Z M 29.703125 42.425781 "/>
<use xlink:href="#surface51" mask="url(#mask15)"/>
<use xlink:href="#surface54" mask="url(#mask16)"/>
<path style=" stroke:none;fill-rule:evenodd;fill:rgb(98.823529%,98.823529%,98.823529%);fill-opacity:1;" d="M 28.214844 43.289062 C 28.558594 43.414062 28.757812 43.660156 28.816406 44.023438 C 28.773438 44.128906 28.722656 44.226562 28.660156 44.324219 C 28.429688 44.550781 28.253906 44.816406 28.132812 45.113281 C 28.101562 45.128906 28.070312 45.136719 28.035156 45.140625 C 27.644531 45.046875 27.363281 44.816406 27.183594 44.457031 C 27.304688 44.253906 27.445312 44.066406 27.605469 43.890625 C 27.804688 43.6875 28.011719 43.484375 28.214844 43.289062 Z M 28.214844 43.289062 "/>
<path style=" stroke:none;fill-rule:evenodd;fill:rgb(50.980392%,50.980392%,50.980392%);fill-opacity:1;" d="M 26.511719 43.890625 C 26.515625 43.851562 26.535156 43.816406 26.570312 43.796875 C 26.578125 43.839844 26.558594 43.871094 26.511719 43.890625 Z M 26.511719 43.890625 "/>
<path style=" stroke:none;fill-rule:evenodd;fill:rgb(49.019608%,49.019608%,49.019608%);fill-opacity:1;" d="M 26.511719 43.890625 C 26.511719 43.921875 26.5 43.945312 26.476562 43.964844 C 26.460938 43.925781 26.472656 43.902344 26.511719 43.890625 Z M 26.511719 43.890625 "/>
<use xlink:href="#surface57" mask="url(#mask17)"/>
<path style=" stroke:none;fill-rule:evenodd;fill:rgb(98.823529%,98.823529%,98.823529%);fill-opacity:1;" d="M 30.496094 44.371094 C 30.582031 44.414062 30.652344 44.476562 30.699219 44.5625 C 30.773438 44.851562 30.773438 45.136719 30.699219 45.425781 C 30.515625 46.273438 30.078125 46.957031 29.394531 47.480469 C 29.214844 47.621094 29.089844 47.585938 29.019531 47.371094 C 28.921875 47.058594 28.890625 46.738281 28.925781 46.410156 C 29.421875 45.980469 29.835938 45.484375 30.171875 44.921875 C 30.28125 44.738281 30.390625 44.554688 30.496094 44.371094 Z M 30.496094 44.371094 "/>
<path style=" stroke:none;fill-rule:evenodd;fill:rgb(98.039216%,98.039216%,98.039216%);fill-opacity:1;" d="M 26.847656 44.972656 C 27.152344 45.382812 27.5625 45.636719 28.074219 45.726562 C 28.082031 45.738281 28.089844 45.75 28.097656 45.761719 C 27.882812 45.9375 27.640625 46.070312 27.375 46.160156 C 26.792969 46.238281 26.5625 45.984375 26.691406 45.402344 C 26.738281 45.257812 26.789062 45.113281 26.847656 44.972656 Z M 26.847656 44.972656 "/>
<use xlink:href="#surface60" mask="url(#mask18)"/>
<use xlink:href="#surface63" mask="url(#mask19)"/>
</g>
</svg>
