<?xml version="1.0" encoding="UTF-8"?>
<svg xmlns="http://www.w3.org/2000/svg" xmlns:xlink="http://www.w3.org/1999/xlink" width="50pt" height="50pt" viewBox="0 0 50 50" version="1.1">
<defs>
<filter id="alpha" filterUnits="objectBoundingBox" x="0%" y="0%" width="100%" height="100%">
  <feColorMatrix type="matrix" in="SourceGraphic" values="0 0 0 0 1 0 0 0 0 1 0 0 0 0 1 0 0 0 1 0"/>
</filter>
<mask id="mask0">
  <g filter="url(#alpha)">
<rect x="0" y="0" width="50" height="50" style="fill:rgb(0%,0%,0%);fill-opacity:0.862745;stroke:none;"/>
  </g>
</mask>
<clipPath id="clip1">
  <rect width="50" height="50"/>
</clipPath>
<g id="surface6" clip-path="url(#clip1)">
<path style=" stroke:none;fill-rule:evenodd;fill:rgb(1.176471%,0.392157%,0.392157%);fill-opacity:1;" d="M 32.605469 7.941406 C 33.242188 7.894531 33.867188 7.964844 34.476562 8.15625 C 34.617188 8.21875 34.746094 8.296875 34.859375 8.398438 C 35.6875 9.371094 36.0625 10.496094 35.988281 11.78125 C 35.867188 12.769531 35.363281 13.480469 34.476562 13.914062 C 34.304688 13.976562 34.128906 14 33.949219 13.988281 C 34.164062 14.402344 34.347656 14.832031 34.5 15.28125 C 34.71875 16.066406 34.636719 16.816406 34.261719 17.539062 C 33.921875 18.085938 33.632812 18.664062 33.398438 19.265625 C 33.21875 20.339844 33.289062 21.394531 33.613281 22.433594 C 33.769531 22.402344 33.902344 22.449219 34.019531 22.578125 C 34.410156 23.335938 34.976562 23.917969 35.722656 24.328125 C 36.222656 24.515625 36.734375 24.613281 37.261719 24.617188 C 37.121094 24.402344 36.929688 24.257812 36.683594 24.183594 C 36.410156 23.960938 36.226562 23.683594 36.132812 23.34375 C 35.765625 23.625 35.429688 23.59375 35.125 23.25 C 35.046875 22.976562 35.03125 22.707031 35.078125 22.433594 C 34.960938 22.398438 34.847656 22.351562 34.742188 22.289062 C 34.699219 21.746094 34.867188 21.273438 35.246094 20.875 C 34.65625 20.96875 34.503906 20.75 34.789062 20.226562 C 35.101562 19.945312 35.414062 19.664062 35.722656 19.386719 C 36.066406 19.222656 36.402344 19.046875 36.730469 18.859375 C 36.636719 18.652344 36.613281 18.4375 36.660156 18.210938 C 36.699219 18.105469 36.773438 18.035156 36.875 17.996094 C 37.808594 17.9375 38.722656 18.046875 39.609375 18.332031 C 39.933594 18.335938 40.253906 18.367188 40.570312 18.425781 C 40.785156 18.59375 40.820312 18.792969 40.667969 19.027344 C 40.886719 19.140625 41.085938 19.285156 41.265625 19.457031 C 41.332031 19.59375 41.382812 19.738281 41.410156 19.890625 C 41.851562 20.207031 42.105469 20.640625 42.179688 21.183594 C 42.21875 21.652344 42.203125 22.117188 42.128906 22.578125 C 41.960938 22.914062 41.769531 23.234375 41.554688 23.535156 C 41.109375 23.859375 40.671875 24.1875 40.234375 24.519531 C 40.980469 24.507812 41.667969 24.296875 42.296875 23.894531 C 42.449219 23.808594 42.570312 23.6875 42.660156 23.535156 C 42.910156 23.082031 43.175781 22.632812 43.449219 22.191406 C 43.628906 22.121094 43.730469 22.1875 43.761719 22.386719 C 44.007812 22.171875 44.285156 22.074219 44.601562 22.097656 C 44.65625 22.171875 44.664062 22.253906 44.625 22.335938 C 44.554688 22.410156 44.480469 22.480469 44.410156 22.554688 C 44.53125 22.695312 44.53125 22.839844 44.410156 22.984375 C 44.484375 23.125 44.453125 23.238281 44.3125 23.320312 C 44.066406 23.402344 43.816406 23.410156 43.570312 23.34375 C 43.183594 23.769531 42.839844 24.226562 42.539062 24.710938 C 41.875 24.910156 41.234375 25.167969 40.617188 25.480469 C 40.546875 25.550781 40.476562 25.625 40.402344 25.695312 C 40.261719 26.539062 40.070312 27.371094 39.828125 28.191406 C 39.757812 28.347656 39.640625 28.429688 39.46875 28.429688 C 39.542969 28.933594 39.519531 29.429688 39.394531 29.917969 C 39.34375 29.992188 39.269531 30.023438 39.179688 30.015625 C 39.109375 30.59375 39.125 31.167969 39.226562 31.742188 C 39.371094 31.703125 39.515625 31.664062 39.660156 31.621094 C 39.769531 31.589844 39.882812 31.589844 39.996094 31.621094 C 40.089844 31.976562 39.976562 32.25 39.660156 32.4375 C 39.351562 32.445312 39.046875 32.484375 38.746094 32.558594 C 38.6875 32.53125 38.632812 32.5 38.578125 32.460938 C 38.4375 31.679688 38.3125 30.894531 38.195312 30.109375 C 38.09375 30.039062 38 29.957031 37.90625 29.871094 C 37.820312 29.65625 37.773438 29.433594 37.765625 29.199219 C 37.660156 29.09375 37.554688 28.992188 37.453125 28.886719 C 37.386719 28.855469 37.324219 28.855469 37.261719 28.886719 C 36.960938 29.042969 36.671875 29.21875 36.394531 29.414062 C 36.289062 29.453125 36.203125 29.429688 36.132812 29.34375 C 35.625 29.632812 35.105469 29.90625 34.574219 30.160156 C 34.492188 30.144531 34.421875 30.113281 34.355469 30.0625 C 34.101562 29.710938 33.84375 29.359375 33.589844 29.007812 C 33.488281 29.09375 33.375 29.15625 33.253906 29.199219 C 33.171875 29.203125 33.105469 29.167969 33.0625 29.101562 C 32.90625 28.734375 32.992188 28.4375 33.324219 28.214844 C 33.4375 28.113281 33.5625 28.039062 33.710938 28 C 33.964844 28.375 34.269531 28.71875 34.621094 29.03125 C 34.871094 28.933594 35.082031 28.765625 35.246094 28.527344 C 35.148438 28.429688 35.109375 28.320312 35.125 28.191406 C 35.46875 27.910156 35.78125 27.597656 36.058594 27.253906 C 35.945312 27.144531 35.824219 27.042969 35.699219 26.945312 C 35.628906 26.804688 35.613281 26.660156 35.652344 26.511719 C 35.914062 26.234375 36.195312 25.96875 36.492188 25.71875 C 36.082031 25.5625 35.695312 25.355469 35.339844 25.097656 C 34.953125 24.652344 34.5625 24.210938 34.164062 23.777344 C 34.265625 24.011719 34.371094 24.253906 34.476562 24.496094 C 34.300781 24.484375 34.167969 24.40625 34.070312 24.257812 C 33.949219 24.078125 33.851562 23.886719 33.78125 23.679688 C 33.621094 23.808594 33.460938 23.808594 33.300781 23.679688 C 33.230469 23.457031 33.15625 23.234375 33.085938 23.007812 C 33.105469 22.8125 33.203125 22.667969 33.375 22.578125 C 33.277344 22.34375 33.207031 22.105469 33.15625 21.855469 C 33.113281 21.421875 33.058594 20.992188 32.988281 20.5625 C 33.023438 20.128906 33.0625 19.695312 33.109375 19.265625 C 33.363281 18.632812 33.667969 18.023438 34.019531 17.441406 C 34.398438 16.757812 34.476562 16.035156 34.261719 15.28125 C 34.144531 15.035156 34.050781 14.777344 33.972656 14.515625 C 33.917969 14.605469 33.867188 14.703125 33.828125 14.804688 C 33.792969 14.832031 33.753906 14.847656 33.710938 14.851562 C 33.445312 14.753906 33.199219 14.628906 32.964844 14.46875 C 32.933594 14.386719 32.933594 14.308594 32.964844 14.226562 C 33.058594 14.144531 33.160156 14.082031 33.277344 14.035156 C 32.390625 13.734375 31.695312 13.191406 31.191406 12.402344 C 31.027344 12.0625 30.851562 11.726562 30.664062 11.394531 C 30.089844 9.820312 30.578125 8.707031 32.125 8.0625 C 32.292969 8.027344 32.453125 7.984375 32.605469 7.941406 Z M 41.148438 20.128906 C 41.339844 20.152344 41.492188 20.25 41.601562 20.417969 C 42.140625 21.4375 42.0625 22.394531 41.363281 23.296875 C 40.953125 23.609375 40.546875 23.921875 40.140625 24.230469 C 39.570312 24.382812 38.996094 24.488281 38.410156 24.542969 C 38.011719 24.53125 37.628906 24.441406 37.261719 24.28125 C 37 24.082031 36.75 23.867188 36.515625 23.632812 C 36.378906 23.4375 36.339844 23.230469 36.394531 23.007812 C 36.535156 22.839844 36.710938 22.726562 36.925781 22.671875 C 37.003906 22.699219 37.082031 22.714844 37.164062 22.722656 C 37.199219 22.410156 37.300781 22.125 37.476562 21.855469 C 37.65625 22.277344 37.910156 22.339844 38.242188 22.050781 C 38.308594 21.835938 38.414062 21.644531 38.554688 21.472656 C 38.820312 21.675781 39.109375 21.734375 39.417969 21.640625 C 39.542969 21.546875 39.632812 21.429688 39.683594 21.28125 C 39.769531 20.992188 39.871094 20.714844 39.996094 20.441406 C 40.324219 20.441406 40.644531 20.394531 40.953125 20.296875 C 41.03125 20.253906 41.09375 20.195312 41.148438 20.128906 Z M 44.21875 22.386719 C 44.125 22.496094 44.027344 22.605469 43.929688 22.722656 C 43.929688 22.816406 43.980469 22.867188 44.074219 22.863281 C 44.035156 22.9375 44.019531 23.019531 44.027344 23.105469 C 44.089844 23.097656 44.15625 23.105469 44.21875 23.128906 C 44.082031 23.148438 43.945312 23.175781 43.808594 23.199219 C 43.675781 23.15625 43.539062 23.148438 43.402344 23.175781 C 43.03125 23.578125 42.710938 24.019531 42.441406 24.496094 C 41.925781 24.667969 41.414062 24.851562 40.90625 25.046875 C 40.695312 25.128906 40.511719 25.25 40.355469 25.40625 C 40.320312 25.1875 40.25 24.980469 40.140625 24.785156 C 40.90625 24.753906 41.625 24.554688 42.296875 24.183594 C 42.480469 24.046875 42.648438 23.898438 42.800781 23.726562 C 43.023438 23.367188 43.230469 23 43.425781 22.625 C 43.472656 22.753906 43.558594 22.792969 43.691406 22.746094 C 43.835938 22.578125 44.011719 22.457031 44.21875 22.386719 Z M 33.710938 22.671875 C 33.757812 22.667969 33.796875 22.683594 33.828125 22.722656 C 34.160156 23.359375 34.617188 23.894531 35.195312 24.328125 C 35.851562 24.65625 36.539062 24.824219 37.261719 24.832031 C 37.308594 24.855469 37.316406 24.886719 37.285156 24.929688 C 37.089844 25.125 36.898438 25.316406 36.707031 25.503906 C 36.070312 25.363281 35.542969 25.042969 35.125 24.542969 C 34.820312 24.046875 34.421875 23.648438 33.925781 23.34375 C 33.886719 23.222656 33.847656 23.101562 33.804688 22.984375 C 33.820312 22.96875 33.835938 22.953125 33.851562 22.9375 C 33.792969 22.851562 33.746094 22.765625 33.710938 22.671875 Z M 33.421875 23.199219 C 33.601562 23.199219 33.609375 23.230469 33.445312 23.296875 C 33.421875 23.269531 33.414062 23.234375 33.421875 23.199219 Z M 33.613281 23.488281 C 33.589844 23.566406 33.542969 23.589844 33.46875 23.558594 C 33.503906 23.511719 33.554688 23.488281 33.613281 23.488281 Z M 33.566406 28.285156 C 33.867188 28.628906 34.203125 28.957031 34.574219 29.269531 C 34.652344 29.300781 34.734375 29.300781 34.8125 29.269531 C 35.027344 29.09375 35.234375 28.910156 35.4375 28.71875 C 35.632812 28.839844 35.777344 29.007812 35.867188 29.222656 C 35.453125 29.480469 35.019531 29.710938 34.574219 29.917969 C 34.347656 29.65625 34.132812 29.382812 33.925781 29.101562 C 33.828125 28.992188 33.773438 28.863281 33.757812 28.71875 C 33.675781 28.710938 33.59375 28.71875 33.515625 28.742188 C 33.242188 29.058594 33.152344 29.019531 33.253906 28.621094 C 33.367188 28.515625 33.472656 28.40625 33.566406 28.285156 Z M 38.410156 30.0625 C 38.585938 30.117188 38.761719 30.117188 38.941406 30.0625 C 38.929688 30.527344 38.941406 30.992188 38.964844 31.453125 C 38.976562 31.632812 39.007812 31.808594 39.058594 31.980469 C 39.085938 32.007812 39.117188 32.023438 39.15625 32.03125 C 39.363281 31.929688 39.578125 31.867188 39.804688 31.835938 C 39.792969 32.03125 39.695312 32.167969 39.515625 32.246094 C 39.273438 32.257812 39.03125 32.28125 38.796875 32.316406 C 38.640625 31.574219 38.511719 30.820312 38.410156 30.0625 Z M 38.410156 30.0625 "/>
</g>
<mask id="mask1">
  <g filter="url(#alpha)">
<rect x="0" y="0" width="50" height="50" style="fill:rgb(0%,0%,0%);fill-opacity:0.882353;stroke:none;"/>
  </g>
</mask>
<clipPath id="clip2">
  <rect width="50" height="50"/>
</clipPath>
<g id="surface9" clip-path="url(#clip2)">
<path style=" stroke:none;fill-rule:evenodd;fill:rgb(1.176471%,0.784314%,0.784314%);fill-opacity:1;" d="M 15.953125 21.042969 C 16.078125 21.414062 16.128906 21.796875 16.097656 22.191406 C 16.054688 22.554688 15.964844 22.90625 15.835938 23.25 C 15.691406 23.441406 15.546875 23.632812 15.402344 23.824219 C 15.171875 24.023438 14.9375 24.222656 14.707031 24.425781 C 15.378906 24.621094 16.050781 24.828125 16.722656 25.046875 C 17.226562 25.183594 17.738281 25.269531 18.257812 25.3125 C 18.289062 25.546875 18.175781 25.683594 17.921875 25.71875 C 18.070312 25.878906 18.140625 26.0625 18.136719 26.273438 C 18.015625 26.382812 17.886719 26.382812 17.753906 26.273438 C 17.796875 26.566406 17.683594 26.660156 17.417969 26.558594 C 17.410156 26.671875 17.351562 26.753906 17.25 26.800781 C 17.046875 26.613281 16.839844 26.429688 16.625 26.246094 C 16.082031 26.042969 15.523438 25.90625 14.945312 25.839844 C 15.035156 26.476562 15.042969 27.117188 14.972656 27.757812 C 14.992188 28.082031 14.921875 28.378906 14.753906 28.648438 C 14.84375 29.210938 14.867188 29.777344 14.828125 30.351562 C 14.777344 30.433594 14.71875 30.515625 14.660156 30.589844 C 14.824219 31.246094 15.03125 31.886719 15.28125 32.507812 C 15.488281 32.390625 15.6875 32.390625 15.882812 32.507812 C 15.917969 32.9375 15.71875 33.1875 15.28125 33.253906 C 14.992188 33.265625 14.707031 33.289062 14.417969 33.324219 C 14.347656 33.324219 14.289062 33.292969 14.25 33.230469 C 14.070312 32.320312 13.902344 31.40625 13.746094 30.496094 C 13.613281 30.507812 13.496094 30.476562 13.386719 30.398438 C 13.300781 30.164062 13.210938 29.933594 13.125 29.703125 C 13.011719 29.671875 12.898438 29.671875 12.789062 29.703125 C 12.6875 29.882812 12.589844 30.066406 12.5 30.253906 C 12.398438 30.355469 12.289062 30.371094 12.164062 30.300781 C 12.097656 30.390625 12.039062 30.488281 11.996094 30.589844 C 11.820312 31.203125 11.628906 31.808594 11.421875 32.414062 C 11.355469 32.683594 11.308594 32.953125 11.277344 33.230469 C 11.253906 33.253906 11.226562 33.277344 11.203125 33.300781 C 10.980469 33.332031 10.757812 33.332031 10.53125 33.300781 C 10.347656 33.296875 10.179688 33.242188 10.027344 33.132812 C 9.984375 32.996094 10.007812 32.875 10.101562 32.773438 C 10.320312 32.707031 10.542969 32.683594 10.773438 32.703125 C 10.769531 31.785156 10.867188 30.882812 11.058594 29.992188 C 10.976562 29.929688 10.886719 29.871094 10.796875 29.824219 C 10.753906 29.75 10.726562 29.667969 10.722656 29.582031 C 10.878906 29.234375 11.039062 28.890625 11.203125 28.550781 C 11.097656 28.484375 10.992188 28.414062 10.890625 28.335938 C 10.882812 28.277344 10.875 28.222656 10.867188 28.167969 C 10.984375 27.660156 11.136719 27.171875 11.324219 26.703125 C 10.804688 26.9375 10.300781 27.199219 9.8125 27.496094 C 9.746094 27.554688 9.699219 27.625 9.667969 27.710938 C 9.71875 27.851562 9.726562 27.996094 9.691406 28.144531 C 9.601562 28.234375 9.53125 28.339844 9.476562 28.453125 C 9.300781 28.472656 9.164062 28.398438 9.070312 28.238281 C 8.910156 28.496094 8.71875 28.527344 8.492188 28.335938 C 8.476562 28.035156 8.554688 27.765625 8.734375 27.519531 C 9.496094 26.730469 10.335938 26.042969 11.253906 25.457031 C 10.785156 25.3125 10.371094 25.078125 10.003906 24.761719 C 9.660156 24.757812 9.324219 24.710938 8.996094 24.617188 C 8.601562 24.347656 8.488281 23.988281 8.660156 23.535156 C 8.402344 22.902344 8.347656 22.246094 8.492188 21.570312 C 8.601562 20.785156 8.992188 20.183594 9.667969 19.769531 C 9.929688 19.652344 10.183594 19.535156 10.4375 19.410156 C 9.886719 19.246094 9.328125 19.144531 8.757812 19.097656 C 8.714844 19.066406 8.683594 19.023438 8.660156 18.976562 C 8.824219 18.789062 9 18.605469 9.1875 18.425781 C 10.003906 17.769531 10.820312 17.113281 11.636719 16.457031 C 12.011719 16.277344 12.378906 16.085938 12.738281 15.882812 C 12.925781 15.8125 13.121094 15.796875 13.316406 15.835938 C 13.667969 16.332031 14.101562 16.75 14.609375 17.082031 C 15.003906 17.523438 15.414062 17.949219 15.835938 18.355469 C 15.828125 18.492188 15.773438 18.609375 15.667969 18.714844 C 15.359375 18.902344 15.070312 19.117188 14.804688 19.363281 C 15.042969 19.609375 15.277344 19.867188 15.5 20.128906 C 15.679688 20.425781 15.832031 20.726562 15.953125 21.042969 Z M 12.691406 20.5625 C 13.023438 20.9375 13.425781 21.214844 13.890625 21.402344 C 14.042969 21.429688 14.195312 21.453125 14.347656 21.472656 C 14.484375 21.472656 14.605469 21.421875 14.707031 21.328125 C 15.035156 21.65625 15.402344 21.929688 15.8125 22.144531 C 15.792969 22.8125 15.519531 23.367188 14.996094 23.800781 C 14.242188 24.464844 13.378906 24.929688 12.402344 25.191406 C 11.230469 25.316406 10.320312 24.886719 9.667969 23.894531 C 10.214844 23.714844 10.6875 23.417969 11.085938 23.007812 C 11.230469 22.816406 11.347656 22.609375 11.445312 22.386719 C 11.769531 22.289062 12.019531 22.097656 12.1875 21.808594 C 12.210938 21.855469 12.21875 21.902344 12.210938 21.953125 C 12.355469 21.960938 12.476562 21.914062 12.570312 21.808594 C 12.621094 21.960938 12.726562 22.027344 12.882812 22 C 12.894531 21.859375 12.84375 21.738281 12.738281 21.640625 C 12.566406 21.609375 12.40625 21.625 12.261719 21.6875 C 12.503906 21.351562 12.648438 20.976562 12.691406 20.5625 Z M 17.828125 26.03125 C 17.59375 25.992188 17.480469 26.089844 17.492188 26.320312 C 17.355469 26.296875 17.261719 26.34375 17.203125 26.464844 C 17.0625 26.25 16.871094 26.097656 16.625 26.007812 C 16.078125 25.820312 15.519531 25.683594 14.945312 25.601562 C 14.914062 25.574219 14.890625 25.542969 14.875 25.503906 C 14.863281 25.292969 14.839844 25.085938 14.804688 24.878906 C 14.832031 24.816406 14.855469 24.753906 14.875 24.6875 C 15.445312 24.863281 16.011719 25.046875 16.578125 25.238281 C 17.019531 25.359375 17.46875 25.441406 17.921875 25.480469 C 17.777344 25.46875 17.695312 25.535156 17.683594 25.671875 C 17.738281 25.789062 17.785156 25.90625 17.828125 26.03125 Z M 11.445312 25.601562 C 11.488281 25.59375 11.519531 25.609375 11.539062 25.648438 C 11.539062 25.851562 11.53125 26.058594 11.515625 26.273438 C 11.492188 26.320312 11.46875 26.367188 11.445312 26.414062 C 10.800781 26.664062 10.195312 26.976562 9.621094 27.351562 C 9.472656 27.53125 9.441406 27.730469 9.523438 27.949219 C 9.46875 27.996094 9.402344 28.011719 9.332031 28 C 9.339844 28.050781 9.332031 28.097656 9.308594 28.144531 C 9.253906 28.074219 9.222656 27.992188 9.214844 27.902344 C 9.164062 27.855469 9.105469 27.847656 9.046875 27.878906 C 8.964844 28.015625 8.871094 28.132812 8.757812 28.238281 C 8.703125 28.164062 8.695312 28.082031 8.734375 28 C 9.074219 27.5 9.480469 27.058594 9.957031 26.679688 C 10.449219 26.308594 10.945312 25.949219 11.445312 25.601562 Z M 11.253906 30.0625 C 11.464844 30.125 11.671875 30.203125 11.875 30.300781 C 11.636719 31.019531 11.40625 31.738281 11.179688 32.460938 C 11.144531 32.671875 11.105469 32.878906 11.058594 33.085938 C 11.027344 33.101562 10.996094 33.117188 10.964844 33.132812 C 10.773438 33.097656 10.582031 33.074219 10.390625 33.0625 C 10.273438 33.046875 10.242188 33 10.292969 32.917969 C 10.539062 32.921875 10.769531 32.882812 10.988281 32.796875 C 10.996094 31.875 11.085938 30.964844 11.253906 30.0625 Z M 13.941406 30.542969 C 13.949219 30.511719 13.976562 30.496094 14.011719 30.496094 C 14.160156 30.542969 14.292969 30.574219 14.417969 30.589844 C 14.613281 31.285156 14.828125 31.972656 15.066406 32.652344 C 15.113281 32.71875 15.175781 32.753906 15.257812 32.75 C 15.386719 32.722656 15.507812 32.675781 15.617188 32.605469 C 15.65625 32.621094 15.691406 32.644531 15.714844 32.675781 C 15.632812 32.839844 15.503906 32.953125 15.332031 33.011719 C 15.03125 33.078125 14.726562 33.101562 14.417969 33.085938 C 14.292969 32.53125 14.203125 31.972656 14.15625 31.40625 C 14.097656 31.109375 14.027344 30.820312 13.941406 30.542969 Z M 13.941406 30.542969 "/>
</g>
<mask id="mask2">
  <g filter="url(#alpha)">
<rect x="0" y="0" width="50" height="50" style="fill:rgb(0%,0%,0%);fill-opacity:0.862745;stroke:none;"/>
  </g>
</mask>
<clipPath id="clip3">
  <rect width="50" height="50"/>
</clipPath>
<g id="surface12" clip-path="url(#clip3)">
<path style=" stroke:none;fill-rule:evenodd;fill:rgb(1.176471%,0.784314%,0.392157%);fill-opacity:1;" d="M 23.199219 19.984375 C 23.617188 19.976562 24.03125 19.984375 24.449219 20.007812 C 24.859375 20.078125 25.21875 20.246094 25.527344 20.511719 C 25.960938 20.375 26.382812 20.398438 26.800781 20.585938 C 27.445312 20.992188 27.980469 21.511719 28.40625 22.144531 C 28.835938 22.96875 28.933594 23.832031 28.695312 24.734375 C 28.621094 24.898438 28.503906 24.992188 28.335938 25.023438 C 28.089844 24.921875 27.832031 24.882812 27.566406 24.902344 C 27.390625 25.066406 27.230469 25.242188 27.085938 25.433594 C 26.910156 25.574219 26.734375 25.71875 26.558594 25.863281 C 26.582031 25.886719 26.609375 25.910156 26.632812 25.9375 C 26.929688 25.710938 27.257812 25.542969 27.613281 25.433594 C 28.125 25.339844 28.636719 25.257812 29.152344 25.191406 C 29.660156 25.058594 30.125 24.832031 30.542969 24.519531 C 30.734375 24.28125 30.925781 24.039062 31.117188 23.800781 C 31.335938 23.621094 31.574219 23.476562 31.835938 23.367188 C 32.183594 23.296875 32.246094 23.394531 32.03125 23.65625 C 32.265625 23.667969 32.347656 23.78125 32.269531 23.992188 C 32.128906 24.074219 31.992188 24.164062 31.863281 24.257812 C 31.925781 24.449219 31.871094 24.601562 31.695312 24.710938 C 31.550781 24.824219 31.40625 24.9375 31.261719 25.046875 C 30.804688 25.15625 30.449219 25.410156 30.207031 25.816406 C 29.945312 26.019531 29.660156 26.171875 29.34375 26.273438 C 28.714844 26.398438 28.09375 26.535156 27.472656 26.679688 C 27.351562 26.699219 27.253906 26.753906 27.183594 26.847656 C 27.355469 27.144531 27.515625 27.449219 27.664062 27.757812 C 28.167969 27.820312 28.671875 27.820312 29.175781 27.757812 C 29.492188 27.84375 29.804688 27.949219 30.109375 28.070312 C 30.664062 28.347656 30.785156 28.753906 30.46875 29.292969 C 30.222656 29.511719 29.972656 29.726562 29.726562 29.941406 C 29.398438 30.148438 29.0625 30.339844 28.71875 30.519531 C 29.082031 30.859375 29.015625 31.085938 28.527344 31.191406 C 28.792969 31.472656 29.039062 31.769531 29.269531 32.078125 C 29.742188 32.46875 30.195312 32.875 30.636719 33.300781 C 30.828125 33.277344 31.019531 33.257812 31.214844 33.253906 C 31.335938 33.4375 31.328125 33.621094 31.191406 33.804688 C 30.960938 34.046875 30.703125 34.253906 30.421875 34.429688 C 30.378906 34.417969 30.339844 34.402344 30.300781 34.382812 C 29.449219 33.421875 28.570312 32.488281 27.664062 31.574219 C 27.445312 31.621094 27.21875 31.636719 26.992188 31.621094 C 26.855469 31.476562 26.710938 31.34375 26.558594 31.214844 C 26.417969 31.269531 26.273438 31.316406 26.128906 31.359375 C 26.195312 31.515625 26.210938 31.675781 26.175781 31.835938 C 25.730469 31.894531 25.28125 31.925781 24.832031 31.933594 C 24.671875 32.785156 24.488281 33.632812 24.28125 34.476562 C 24.152344 34.945312 23.976562 35.390625 23.753906 35.820312 C 23.695312 35.886719 23.625 35.925781 23.535156 35.941406 C 23.28125 35.972656 23.023438 35.972656 22.769531 35.941406 C 22.464844 35.832031 22.449219 35.6875 22.722656 35.507812 C 22.933594 35.414062 23.160156 35.375 23.390625 35.390625 C 23.535156 34.238281 23.679688 33.085938 23.824219 31.933594 C 23.539062 31.984375 23.378906 31.871094 23.34375 31.597656 C 22.777344 31.554688 22.21875 31.464844 21.664062 31.332031 C 21.308594 31.207031 21.171875 30.957031 21.257812 30.589844 C 21.332031 30.359375 21.445312 30.152344 21.59375 29.964844 C 22.199219 29.308594 22.925781 28.835938 23.777344 28.550781 C 23.863281 28.378906 23.910156 28.195312 23.921875 28 C 23.714844 27.953125 23.507812 27.945312 23.296875 27.976562 C 22.480469 28.210938 21.648438 28.378906 20.800781 28.480469 C 20.34375 28.449219 19.898438 28.367188 19.457031 28.238281 C 19.355469 28.351562 19.234375 28.429688 19.097656 28.480469 C 18.957031 28.464844 18.875 28.382812 18.859375 28.238281 C 18.722656 28.363281 18.601562 28.496094 18.5 28.648438 C 18.296875 28.765625 18.175781 28.710938 18.136719 28.480469 C 17.777344 28.632812 17.683594 28.523438 17.851562 28.144531 C 17.898438 28.054688 17.953125 27.976562 18.019531 27.902344 C 18.265625 27.785156 18.492188 27.636719 18.691406 27.445312 C 19.042969 27.257812 19.410156 27.226562 19.792969 27.351562 C 21.074219 27.753906 22.324219 27.65625 23.535156 27.0625 C 23.027344 27.074219 22.554688 26.953125 22.121094 26.703125 C 21.683594 26.726562 21.242188 26.703125 20.800781 26.632812 C 20.472656 26.558594 20.222656 26.371094 20.058594 26.078125 C 20.039062 25.085938 20.074219 24.09375 20.152344 23.105469 C 20.308594 22.175781 20.765625 21.429688 21.519531 20.875 C 21.800781 20.710938 22.074219 20.535156 22.335938 20.34375 C 22.625 20.210938 22.910156 20.089844 23.199219 19.984375 Z M 25.550781 21.328125 C 26.382812 21.53125 27.046875 21.980469 27.542969 22.671875 C 27.757812 23.105469 27.808594 23.550781 27.6875 24.015625 C 27.488281 24.535156 27.175781 24.976562 26.75 25.335938 C 25.773438 26.175781 24.636719 26.648438 23.34375 26.75 C 23.132812 26.746094 22.925781 26.722656 22.722656 26.679688 C 22.34375 26.558594 22.015625 26.359375 21.738281 26.078125 C 21.371094 25.414062 21.277344 24.710938 21.449219 23.96875 C 22.273438 24.015625 23.066406 23.863281 23.824219 23.511719 C 24.359375 23.273438 24.832031 22.945312 25.238281 22.527344 C 25.4375 22.152344 25.542969 21.753906 25.550781 21.328125 Z M 23.152344 23.488281 C 23.078125 23.527344 23 23.542969 22.914062 23.535156 C 23.152344 22.878906 23.480469 22.269531 23.894531 21.714844 C 23.695312 22.117188 23.484375 22.535156 23.273438 22.960938 C 23.21875 23.132812 23.175781 23.308594 23.152344 23.488281 Z M 24.207031 23.007812 C 24.191406 23.050781 24.160156 23.066406 24.113281 23.054688 C 24.1875 22.601562 24.332031 22.171875 24.542969 21.761719 C 24.597656 21.835938 24.605469 21.917969 24.566406 22 C 24.445312 22.335938 24.324219 22.671875 24.207031 23.007812 Z M 22.097656 23.726562 C 22.066406 23.710938 22.03125 23.695312 22 23.679688 C 22.15625 23.144531 22.414062 22.664062 22.769531 22.242188 C 22.539062 22.71875 22.316406 23.214844 22.097656 23.726562 Z M 31.742188 23.679688 C 31.699219 23.976562 31.546875 24.199219 31.285156 24.351562 C 31.261719 24.414062 31.253906 24.476562 31.261719 24.542969 C 31.34375 24.535156 31.421875 24.542969 31.5 24.566406 C 31.203125 24.824219 30.867188 25.015625 30.496094 25.144531 C 30.214844 25.523438 29.863281 25.8125 29.4375 26.007812 C 28.800781 26.160156 28.160156 26.304688 27.519531 26.441406 C 27.363281 26.484375 27.210938 26.542969 27.0625 26.609375 C 26.890625 26.515625 26.773438 26.378906 26.703125 26.199219 C 27.011719 25.933594 27.363281 25.742188 27.757812 25.625 C 28.738281 25.597656 29.648438 25.34375 30.496094 24.855469 C 30.816406 24.5625 31.105469 24.242188 31.359375 23.894531 C 31.480469 23.8125 31.609375 23.738281 31.742188 23.679688 Z M 23.777344 27.183594 C 24.027344 27.304688 24.078125 27.488281 23.921875 27.734375 C 23.566406 27.746094 23.214844 27.777344 22.863281 27.832031 C 22.035156 28.101562 21.1875 28.230469 20.320312 28.214844 C 19.871094 28.125 19.421875 28.023438 18.976562 27.902344 C 18.648438 27.957031 18.34375 28.0625 18.066406 28.214844 C 18.402344 27.914062 18.777344 27.667969 19.195312 27.472656 C 19.65625 27.542969 20.109375 27.648438 20.5625 27.78125 C 21.691406 27.886719 22.765625 27.6875 23.777344 27.183594 Z M 27.902344 28.382812 C 28.5 28.300781 29.050781 28.414062 29.558594 28.71875 C 29.578125 28.988281 29.476562 29.207031 29.246094 29.367188 C 28.933594 29.550781 28.621094 29.734375 28.3125 29.917969 C 28.148438 29.707031 28.003906 29.484375 27.878906 29.246094 C 27.835938 29.125 27.871094 29.03125 27.976562 28.957031 C 28.003906 28.855469 28.027344 28.75 28.046875 28.648438 C 27.996094 28.558594 27.949219 28.46875 27.902344 28.382812 Z M 23.535156 29.246094 C 23.59375 29.234375 23.640625 29.253906 23.679688 29.292969 C 23.589844 29.511719 23.566406 29.734375 23.609375 29.964844 C 23.652344 30.023438 23.707031 30.0625 23.777344 30.085938 C 23.695312 30.304688 23.609375 30.519531 23.511719 30.734375 C 23.144531 30.796875 22.785156 30.757812 22.433594 30.613281 C 22.25 30.472656 22.242188 30.320312 22.410156 30.160156 C 22.753906 29.804688 23.128906 29.5 23.535156 29.246094 Z M 27.613281 29.246094 C 27.742188 29.511719 27.902344 29.757812 28.09375 29.992188 C 27.859375 30.132812 27.621094 30.257812 27.375 30.375 C 27.0625 30.375 26.75 30.433594 26.441406 30.542969 C 26.324219 30.386719 26.171875 30.328125 25.984375 30.375 C 25.902344 30.445312 25.871094 30.53125 25.886719 30.636719 C 25.640625 30.664062 25.410156 30.726562 25.191406 30.832031 C 24.703125 30.84375 24.214844 30.820312 23.726562 30.757812 C 23.828125 30.542969 23.925781 30.328125 24.015625 30.109375 C 25.148438 30.011719 26.25 29.78125 27.328125 29.414062 C 27.433594 29.371094 27.53125 29.3125 27.613281 29.246094 Z M 28.480469 30.589844 C 28.550781 30.679688 28.632812 30.765625 28.71875 30.855469 C 28.472656 30.90625 28.25 31.003906 28.046875 31.140625 C 27.734375 31.246094 27.421875 31.351562 27.109375 31.453125 C 27.046875 31.351562 26.976562 31.253906 26.894531 31.167969 C 27.4375 31.011719 27.964844 30.820312 28.480469 30.589844 Z M 28.144531 31.308594 C 28.207031 31.300781 28.273438 31.308594 28.335938 31.332031 C 28.632812 31.648438 28.914062 31.976562 29.175781 32.316406 C 29.644531 32.707031 30.101562 33.117188 30.542969 33.542969 C 30.710938 33.574219 30.871094 33.550781 31.023438 33.46875 C 31.039062 33.484375 31.054688 33.5 31.070312 33.515625 C 31.007812 33.636719 30.9375 33.746094 30.855469 33.851562 C 30.691406 33.941406 30.550781 34.054688 30.421875 34.1875 C 29.625 33.265625 28.792969 32.367188 27.925781 31.5 C 27.917969 31.484375 27.910156 31.46875 27.902344 31.453125 C 27.992188 31.414062 28.070312 31.367188 28.144531 31.308594 Z M 25.695312 31.40625 C 25.777344 31.40625 25.855469 31.40625 25.9375 31.40625 C 25.925781 31.5 25.941406 31.589844 25.984375 31.667969 C 25.582031 31.679688 25.183594 31.6875 24.785156 31.695312 C 24.359375 31.703125 23.945312 31.675781 23.535156 31.621094 C 23.976562 31.632812 24.414062 31.609375 24.855469 31.550781 C 24.914062 31.558594 24.972656 31.574219 25.023438 31.597656 C 25.253906 31.539062 25.480469 31.476562 25.695312 31.40625 Z M 24.015625 31.933594 C 24.207031 31.933594 24.398438 31.933594 24.59375 31.933594 C 24.429688 32.902344 24.210938 33.863281 23.945312 34.8125 C 23.84375 35.089844 23.734375 35.363281 23.609375 35.628906 C 23.5 35.703125 23.382812 35.75 23.25 35.773438 C 23.125 35.738281 22.996094 35.714844 22.863281 35.699219 C 23.085938 35.652344 23.3125 35.609375 23.535156 35.582031 C 23.625 34.742188 23.761719 33.910156 23.945312 33.085938 C 24 32.703125 24.023438 32.320312 24.015625 31.933594 Z M 24.015625 31.933594 "/>
</g>
<mask id="mask3">
  <g filter="url(#alpha)">
<rect x="0" y="0" width="50" height="50" style="fill:rgb(0%,0%,0%);fill-opacity:0.984314;stroke:none;"/>
  </g>
</mask>
<clipPath id="clip4">
  <rect width="50" height="50"/>
</clipPath>
<g id="surface15" clip-path="url(#clip4)">
<path style=" stroke:none;fill-rule:evenodd;fill:rgb(98.431373%,98.431373%,98.431373%);fill-opacity:1;" d="M 24.207031 23.007812 C 24.324219 22.671875 24.445312 22.335938 24.566406 22 C 24.605469 21.917969 24.597656 21.835938 24.542969 21.761719 C 24.332031 22.171875 24.1875 22.601562 24.113281 23.054688 C 23.820312 23.25 23.5 23.394531 23.152344 23.488281 C 23.175781 23.308594 23.21875 23.132812 23.273438 22.960938 C 23.484375 22.535156 23.695312 22.117188 23.894531 21.714844 C 23.480469 22.269531 23.152344 22.878906 22.914062 23.535156 C 22.664062 23.613281 22.417969 23.691406 22.167969 23.777344 C 22.152344 23.75 22.125 23.734375 22.097656 23.726562 C 22.316406 23.214844 22.539062 22.71875 22.769531 22.242188 C 22.414062 22.664062 22.15625 23.144531 22 23.679688 C 21.824219 23.785156 21.648438 23.769531 21.472656 23.632812 C 21.320312 23.734375 21.230469 23.878906 21.210938 24.0625 C 21.183594 24.335938 21.175781 24.609375 21.183594 24.878906 C 20.886719 24.824219 20.6875 24.9375 20.585938 25.214844 C 20.496094 25.507812 20.585938 25.722656 20.847656 25.863281 C 21.046875 25.871094 21.242188 25.914062 21.425781 25.984375 C 21.511719 26.183594 21.640625 26.351562 21.808594 26.488281 C 21.617188 26.519531 21.425781 26.519531 21.234375 26.488281 C 21.113281 26.429688 20.988281 26.398438 20.847656 26.390625 C 20.691406 26.332031 20.554688 26.246094 20.441406 26.128906 C 20.304688 25.140625 20.289062 24.148438 20.394531 23.152344 C 20.554688 22.296875 20.976562 21.601562 21.664062 21.066406 C 22.179688 20.6875 22.738281 20.402344 23.34375 20.203125 C 23.964844 20.125 24.558594 20.222656 25.121094 20.488281 C 25.234375 20.566406 25.300781 20.667969 25.3125 20.800781 C 25.511719 20.695312 25.726562 20.628906 25.960938 20.609375 C 26.234375 20.648438 26.496094 20.71875 26.75 20.824219 C 27.625 21.394531 28.222656 22.167969 28.550781 23.152344 C 28.582031 23.570312 28.582031 23.984375 28.550781 24.398438 C 28.527344 24.523438 28.46875 24.625 28.382812 24.710938 C 28.160156 24.710938 27.9375 24.703125 27.710938 24.6875 C 27.773438 24.441406 27.863281 24.199219 27.976562 23.96875 C 27.992188 23.808594 28.007812 23.648438 28.023438 23.488281 C 28.359375 23.117188 28.371094 22.742188 28.046875 22.359375 C 27.898438 22.339844 27.753906 22.339844 27.613281 22.359375 C 27.390625 22.054688 27.117188 21.800781 26.800781 21.59375 C 26.351562 21.367188 25.886719 21.183594 25.40625 21.042969 C 25.355469 21.339844 25.300781 21.644531 25.238281 21.953125 C 25.101562 22.128906 24.992188 22.324219 24.902344 22.527344 C 24.683594 22.707031 24.449219 22.867188 24.207031 23.007812 Z M 23.152344 23.488281 C 23.078125 23.527344 23 23.542969 22.914062 23.535156 C 23.152344 22.878906 23.480469 22.269531 23.894531 21.714844 C 23.695312 22.117188 23.484375 22.535156 23.273438 22.960938 C 23.21875 23.132812 23.175781 23.308594 23.152344 23.488281 Z M 24.207031 23.007812 C 24.191406 23.050781 24.160156 23.066406 24.113281 23.054688 C 24.1875 22.601562 24.332031 22.171875 24.542969 21.761719 C 24.597656 21.835938 24.605469 21.917969 24.566406 22 C 24.445312 22.335938 24.324219 22.671875 24.207031 23.007812 Z M 22.097656 23.726562 C 22.066406 23.710938 22.03125 23.695312 22 23.679688 C 22.15625 23.144531 22.414062 22.664062 22.769531 22.242188 C 22.539062 22.71875 22.316406 23.214844 22.097656 23.726562 Z M 22.097656 23.726562 "/>
</g>
<mask id="mask4">
  <g filter="url(#alpha)">
<rect x="0" y="0" width="50" height="50" style="fill:rgb(0%,0%,0%);fill-opacity:0.780392;stroke:none;"/>
  </g>
</mask>
<clipPath id="clip5">
  <rect width="50" height="50"/>
</clipPath>
<g id="surface18" clip-path="url(#clip5)">
<path style=" stroke:none;fill-rule:evenodd;fill:rgb(0%,0%,0%);fill-opacity:1;" d="M 41.289062 20.609375 C 41.667969 20.589844 41.773438 20.75 41.601562 21.089844 C 41.511719 21.035156 41.472656 20.957031 41.484375 20.847656 C 41.367188 20.84375 41.277344 20.894531 41.21875 20.992188 C 41.109375 20.949219 41.074219 20.871094 41.121094 20.753906 C 41.179688 20.699219 41.234375 20.652344 41.289062 20.609375 Z M 41.289062 20.609375 "/>
</g>
<mask id="mask5">
  <g filter="url(#alpha)">
<rect x="0" y="0" width="50" height="50" style="fill:rgb(0%,0%,0%);fill-opacity:0.752941;stroke:none;"/>
  </g>
</mask>
<clipPath id="clip6">
  <rect width="50" height="50"/>
</clipPath>
<g id="surface21" clip-path="url(#clip6)">
<path style=" stroke:none;fill-rule:evenodd;fill:rgb(0%,0%,0%);fill-opacity:1;" d="M 40.28125 20.800781 C 40.546875 20.808594 40.644531 20.9375 40.570312 21.183594 C 40.488281 21.15625 40.414062 21.105469 40.355469 21.042969 C 40.34375 21.15625 40.289062 21.234375 40.1875 21.28125 C 40.121094 21.257812 40.089844 21.210938 40.089844 21.136719 C 40.117188 21.003906 40.183594 20.890625 40.28125 20.800781 Z M 40.28125 20.800781 "/>
</g>
<mask id="mask6">
  <g filter="url(#alpha)">
<rect x="0" y="0" width="50" height="50" style="fill:rgb(0%,0%,0%);fill-opacity:0.894118;stroke:none;"/>
  </g>
</mask>
<clipPath id="clip7">
  <rect width="50" height="50"/>
</clipPath>
<g id="surface24" clip-path="url(#clip7)">
<path style=" stroke:none;fill-rule:evenodd;fill:rgb(98.823529%,98.823529%,98.823529%);fill-opacity:1;" d="M 16.097656 22.191406 C 16.128906 21.796875 16.078125 21.414062 15.953125 21.042969 C 16.183594 20.953125 16.320312 21.03125 16.363281 21.28125 C 16.398438 21.539062 16.382812 21.796875 16.316406 22.050781 C 16.261719 22.128906 16.1875 22.175781 16.097656 22.191406 Z M 16.097656 22.191406 "/>
</g>
<mask id="mask7">
  <g filter="url(#alpha)">
<rect x="0" y="0" width="50" height="50" style="fill:rgb(0%,0%,0%);fill-opacity:0.803922;stroke:none;"/>
  </g>
</mask>
<clipPath id="clip8">
  <rect width="50" height="50"/>
</clipPath>
<g id="surface27" clip-path="url(#clip8)">
<path style=" stroke:none;fill-rule:evenodd;fill:rgb(0%,0%,0%);fill-opacity:1;" d="M 41.097656 21.664062 C 41.164062 21.65625 41.21875 21.671875 41.265625 21.714844 C 41.296875 21.953125 41.296875 22.191406 41.265625 22.433594 C 41.128906 22.867188 40.832031 23.050781 40.378906 22.984375 C 40.136719 22.8125 39.96875 22.578125 39.875 22.289062 C 39.851562 22.210938 39.84375 22.128906 39.851562 22.050781 C 39.921875 22.035156 39.984375 22.050781 40.042969 22.097656 C 40.113281 22.300781 40.210938 22.496094 40.332031 22.671875 C 40.402344 22.734375 40.484375 22.78125 40.570312 22.816406 C 40.765625 22.757812 40.917969 22.644531 41.027344 22.480469 C 41.097656 22.207031 41.121094 21.933594 41.097656 21.664062 Z M 41.097656 21.664062 "/>
</g>
<mask id="mask8">
  <g filter="url(#alpha)">
<rect x="0" y="0" width="50" height="50" style="fill:rgb(0%,0%,0%);fill-opacity:0.764706;stroke:none;"/>
  </g>
</mask>
<clipPath id="clip9">
  <rect width="50" height="50"/>
</clipPath>
<g id="surface30" clip-path="url(#clip9)">
<path style=" stroke:none;fill-rule:evenodd;fill:rgb(0%,0%,0%);fill-opacity:1;" d="M 14.660156 21.808594 C 14.90625 21.8125 15.058594 21.921875 15.113281 22.144531 C 15.089844 22.171875 15.054688 22.1875 15.019531 22.191406 C 14.9375 22.132812 14.847656 22.085938 14.753906 22.050781 C 14.644531 22.109375 14.53125 22.175781 14.417969 22.242188 C 14.363281 22.164062 14.355469 22.085938 14.394531 22 C 14.480469 21.929688 14.570312 21.867188 14.660156 21.808594 Z M 14.660156 21.808594 "/>
</g>
<mask id="mask9">
  <g filter="url(#alpha)">
<rect x="0" y="0" width="50" height="50" style="fill:rgb(0%,0%,0%);fill-opacity:0.776471;stroke:none;"/>
  </g>
</mask>
<clipPath id="clip10">
  <rect width="50" height="50"/>
</clipPath>
<g id="surface33" clip-path="url(#clip10)">
<path style=" stroke:none;fill-rule:evenodd;fill:rgb(0%,0%,0%);fill-opacity:1;" d="M 26.175781 22.097656 C 26.421875 22.066406 26.644531 22.125 26.847656 22.265625 C 26.972656 22.359375 26.972656 22.445312 26.847656 22.527344 C 26.6875 22.445312 26.527344 22.367188 26.367188 22.289062 C 26.15625 22.332031 26.039062 22.457031 26.007812 22.671875 C 25.972656 22.71875 25.933594 22.726562 25.886719 22.695312 C 25.816406 22.421875 25.914062 22.222656 26.175781 22.097656 Z M 26.175781 22.097656 "/>
</g>
<mask id="mask10">
  <g filter="url(#alpha)">
<rect x="0" y="0" width="50" height="50" style="fill:rgb(0%,0%,0%);fill-opacity:0.760784;stroke:none;"/>
  </g>
</mask>
<clipPath id="clip11">
  <rect width="50" height="50"/>
</clipPath>
<g id="surface36" clip-path="url(#clip11)">
<path style=" stroke:none;fill-rule:evenodd;fill:rgb(0%,0%,0%);fill-opacity:1;" d="M 14.035156 23.105469 C 14.167969 23.132812 14.207031 23.210938 14.15625 23.34375 C 14.09375 23.550781 13.957031 23.667969 13.746094 23.703125 C 13.457031 23.761719 13.195312 23.707031 12.957031 23.535156 C 12.910156 23.453125 12.871094 23.363281 12.835938 23.273438 C 12.839844 23.210938 12.875 23.171875 12.933594 23.152344 C 13.027344 23.195312 13.09375 23.265625 13.125 23.367188 C 13.53125 23.625 13.835938 23.535156 14.035156 23.105469 Z M 14.035156 23.105469 "/>
</g>
<mask id="mask11">
  <g filter="url(#alpha)">
<rect x="0" y="0" width="50" height="50" style="fill:rgb(0%,0%,0%);fill-opacity:0.807843;stroke:none;"/>
  </g>
</mask>
<clipPath id="clip12">
  <rect width="50" height="50"/>
</clipPath>
<g id="surface39" clip-path="url(#clip12)">
<path style=" stroke:none;fill-rule:evenodd;fill:rgb(0%,0%,0%);fill-opacity:1;" d="M 25.9375 24.0625 C 26.03125 24.0625 26.078125 24.113281 26.078125 24.207031 C 25.628906 25.171875 24.878906 25.570312 23.824219 25.40625 C 23.773438 25.316406 23.808594 25.25 23.921875 25.214844 C 24.859375 25.300781 25.53125 24.917969 25.9375 24.0625 Z M 25.9375 24.0625 "/>
</g>
<mask id="mask12">
  <g filter="url(#alpha)">
<rect x="0" y="0" width="50" height="50" style="fill:rgb(0%,0%,0%);fill-opacity:0.788235;stroke:none;"/>
  </g>
</mask>
<clipPath id="clip13">
  <rect width="50" height="50"/>
</clipPath>
<g id="surface42" clip-path="url(#clip13)">
<path style=" stroke:none;fill-rule:evenodd;fill:rgb(0%,0%,0%);fill-opacity:1;" d="M 22 24.257812 C 22.167969 24.242188 22.328125 24.265625 22.480469 24.328125 C 22.558594 24.398438 22.59375 24.484375 22.578125 24.59375 C 22.429688 24.546875 22.285156 24.507812 22.144531 24.472656 C 21.96875 24.597656 21.921875 24.757812 22 24.953125 C 21.960938 25.175781 21.886719 25.199219 21.785156 25.023438 C 21.710938 24.722656 21.78125 24.464844 22 24.257812 Z M 22 24.257812 "/>
</g>
<mask id="mask13">
  <g filter="url(#alpha)">
<rect x="0" y="0" width="50" height="50" style="fill:rgb(0%,0%,0%);fill-opacity:0.941176;stroke:none;"/>
  </g>
</mask>
<clipPath id="clip14">
  <rect width="50" height="50"/>
</clipPath>
<g id="surface45" clip-path="url(#clip14)">
<path style=" stroke:none;fill-rule:evenodd;fill:rgb(2.745098%,1.960784%,1.960784%);fill-opacity:1;" d="M 46.042969 25.839844 C 46.121094 25.832031 46.203125 25.839844 46.28125 25.863281 C 47.085938 26.652344 47.878906 27.460938 48.65625 28.285156 C 48.792969 28.546875 48.851562 28.828125 48.824219 29.125 C 48.773438 29.839844 48.765625 30.550781 48.800781 31.261719 C 48.695312 31.382812 48.574219 31.488281 48.441406 31.574219 C 47.777344 31.914062 47.121094 32.265625 46.472656 32.628906 C 45.785156 32.597656 45.097656 32.550781 44.410156 32.484375 C 44.308594 32.351562 44.25 32.203125 44.242188 32.03125 C 44.125 31.230469 44.003906 30.429688 43.882812 29.628906 C 43.9375 28.886719 44.105469 28.164062 44.386719 27.472656 C 44.460938 27.007812 44.542969 26.542969 44.625 26.078125 C 45.097656 26.011719 45.570312 25.933594 46.042969 25.839844 Z M 46.042969 25.839844 "/>
</g>
<mask id="mask14">
  <g filter="url(#alpha)">
<rect x="0" y="0" width="50" height="50" style="fill:rgb(0%,0%,0%);fill-opacity:0.945098;stroke:none;"/>
  </g>
</mask>
<clipPath id="clip15">
  <rect width="50" height="50"/>
</clipPath>
<g id="surface48" clip-path="url(#clip15)">
<path style=" stroke:none;fill-rule:evenodd;fill:rgb(2.745098%,1.960784%,1.568627%);fill-opacity:1;" d="M 4.4375 26.222656 C 4.65625 26.289062 4.808594 26.433594 4.894531 26.65625 C 4.96875 27.175781 5.070312 27.6875 5.207031 28.191406 C 5.117188 28.394531 4.988281 28.570312 4.824219 28.71875 C 5.390625 28.703125 5.96875 28.71875 6.550781 28.765625 C 6.542969 29.359375 6.550781 29.949219 6.574219 30.542969 C 6.589844 30.625 6.613281 30.703125 6.644531 30.78125 C 6.613281 30.859375 6.589844 30.941406 6.574219 31.023438 C 6.152344 31.265625 5.808594 31.59375 5.542969 32.003906 C 3.8125 32.328125 2.070312 32.453125 0.3125 32.390625 C 0.289062 32.367188 0.265625 32.339844 0.238281 32.316406 C 0.175781 31.582031 0.117188 30.847656 0.0703125 30.109375 C 0.0976562 30 0.121094 29.886719 0.144531 29.773438 C 0.40625 29.480469 0.671875 29.183594 0.9375 28.886719 C 1.203125 28.804688 1.472656 28.75 1.75 28.71875 C 1.683594 28.332031 1.605469 27.945312 1.511719 27.566406 C 1.785156 27.125 2.121094 26.734375 2.519531 26.390625 C 3.171875 26.390625 3.8125 26.332031 4.4375 26.222656 Z M 4.4375 26.222656 "/>
</g>
<mask id="mask15">
  <g filter="url(#alpha)">
<rect x="0" y="0" width="50" height="50" style="fill:rgb(0%,0%,0%);fill-opacity:0.780392;stroke:none;"/>
  </g>
</mask>
<clipPath id="clip16">
  <rect width="50" height="50"/>
</clipPath>
<g id="surface51" clip-path="url(#clip16)">
<path style=" stroke:none;fill-rule:evenodd;fill:rgb(0%,0%,0%);fill-opacity:1;" d="M 31.023438 26.320312 C 31.253906 26.300781 31.476562 26.324219 31.695312 26.390625 C 31.792969 26.480469 31.808594 26.585938 31.742188 26.703125 C 31.546875 26.546875 31.324219 26.476562 31.070312 26.488281 C 31.03125 26.4375 31.015625 26.382812 31.023438 26.320312 Z M 31.023438 26.320312 "/>
</g>
<mask id="mask16">
  <g filter="url(#alpha)">
<rect x="0" y="0" width="50" height="50" style="fill:rgb(0%,0%,0%);fill-opacity:0.796078;stroke:none;"/>
  </g>
</mask>
<clipPath id="clip17">
  <rect width="50" height="50"/>
</clipPath>
<g id="surface54" clip-path="url(#clip17)">
<path style=" stroke:none;fill-rule:evenodd;fill:rgb(0%,0%,0%);fill-opacity:1;" d="M 30.832031 26.945312 C 31.296875 27.011719 31.671875 27.234375 31.957031 27.613281 C 32.007812 27.796875 31.984375 27.964844 31.886719 28.117188 C 31.816406 28.15625 31.753906 28.148438 31.695312 28.09375 C 31.785156 27.882812 31.734375 27.707031 31.550781 27.566406 C 31.308594 27.382812 31.050781 27.222656 30.78125 27.085938 C 30.8125 27.042969 30.828125 26.996094 30.832031 26.945312 Z M 30.832031 26.945312 "/>
</g>
<mask id="mask17">
  <g filter="url(#alpha)">
<rect x="0" y="0" width="50" height="50" style="fill:rgb(0%,0%,0%);fill-opacity:0.878431;stroke:none;"/>
  </g>
</mask>
<clipPath id="clip18">
  <rect width="50" height="50"/>
</clipPath>
<g id="surface57" clip-path="url(#clip18)">
<path style=" stroke:none;fill-rule:evenodd;fill:rgb(45.098039%,44.313725%,43.137255%);fill-opacity:1;" d="M 3.335938 29.824219 C 3.414062 29.855469 3.496094 29.886719 3.574219 29.917969 C 3.320312 29.925781 3.0625 29.917969 2.808594 29.894531 C 2.980469 29.859375 3.15625 29.835938 3.335938 29.824219 Z M 3.335938 29.824219 "/>
</g>
<mask id="mask18">
  <g filter="url(#alpha)">
<rect x="0" y="0" width="50" height="50" style="fill:rgb(0%,0%,0%);fill-opacity:0.792157;stroke:none;"/>
  </g>
</mask>
<clipPath id="clip19">
  <rect width="50" height="50"/>
</clipPath>
<g id="surface60" clip-path="url(#clip19)">
<path style=" stroke:none;fill-rule:evenodd;fill:rgb(0%,0%,0%);fill-opacity:1;" d="M 20.417969 29.917969 C 20.496094 29.917969 20.578125 29.917969 20.65625 29.917969 C 20.664062 29.96875 20.65625 30.015625 20.632812 30.0625 C 20.1875 30.34375 20.042969 30.726562 20.203125 31.214844 C 20.242188 31.253906 20.28125 31.292969 20.320312 31.332031 C 20.484375 31.386719 20.632812 31.460938 20.777344 31.550781 C 20.792969 31.667969 20.738281 31.714844 20.609375 31.695312 C 20.132812 31.640625 19.878906 31.378906 19.839844 30.902344 C 19.90625 30.492188 20.097656 30.164062 20.417969 29.917969 Z M 20.417969 29.917969 "/>
</g>
<mask id="mask19">
  <g filter="url(#alpha)">
<rect x="0" y="0" width="50" height="50" style="fill:rgb(0%,0%,0%);fill-opacity:0.784314;stroke:none;"/>
  </g>
</mask>
<clipPath id="clip20">
  <rect width="50" height="50"/>
</clipPath>
<g id="surface63" clip-path="url(#clip20)">
<path style=" stroke:none;fill-rule:evenodd;fill:rgb(0%,0%,0%);fill-opacity:1;" d="M 20.753906 30.636719 C 20.816406 30.636719 20.882812 30.636719 20.945312 30.636719 C 20.929688 30.769531 20.882812 30.890625 20.800781 31 C 20.859375 31.105469 20.941406 31.195312 21.042969 31.261719 C 20.894531 31.394531 20.757812 31.378906 20.632812 31.214844 C 20.574219 30.996094 20.613281 30.804688 20.753906 30.636719 Z M 20.753906 30.636719 "/>
</g>
</defs>
<g id="surface1">
<use xlink:href="#surface6" mask="url(#mask0)"/>
<path style=" stroke:none;fill-rule:evenodd;fill:rgb(65.882353%,22.745098%,17.647059%);fill-opacity:1;" d="M 32.507812 8.179688 C 33.226562 8.105469 33.914062 8.207031 34.574219 8.492188 C 35.4375 9.398438 35.828125 10.476562 35.75 11.730469 C 35.644531 12.617188 35.207031 13.265625 34.429688 13.675781 C 34.257812 13.730469 34.082031 13.753906 33.902344 13.746094 C 33.902344 13.699219 33.902344 13.652344 33.902344 13.605469 C 33.765625 13.703125 33.613281 13.78125 33.445312 13.84375 C 32.605469 13.550781 31.933594 13.039062 31.429688 12.308594 C 31.167969 11.863281 30.945312 11.398438 30.757812 10.917969 C 30.488281 9.945312 30.769531 9.167969 31.597656 8.589844 C 31.894531 8.425781 32.199219 8.289062 32.507812 8.179688 Z M 32.507812 8.179688 "/>
<path style=" stroke:none;fill-rule:evenodd;fill:rgb(6.27451%,3.529412%,3.137255%);fill-opacity:1;" d="M 34.382812 9.285156 C 34.613281 9.308594 34.8125 9.40625 34.980469 9.574219 C 35.277344 9.976562 35.40625 10.421875 35.363281 10.917969 C 35.355469 11.082031 35.28125 11.210938 35.148438 11.300781 C 34.839844 11.125 34.621094 10.871094 34.5 10.53125 C 34.324219 10.183594 34.261719 9.816406 34.308594 9.429688 C 34.332031 9.378906 34.359375 9.332031 34.382812 9.285156 Z M 34.382812 9.285156 "/>
<path style=" stroke:none;fill-rule:evenodd;fill:rgb(96.078431%,96.078431%,96.078431%);fill-opacity:1;" d="M 34.476562 9.523438 C 34.625 9.53125 34.746094 9.597656 34.835938 9.71875 C 35.105469 10.074219 35.21875 10.476562 35.171875 10.917969 C 35.152344 10.972656 35.121094 11.019531 35.078125 11.058594 C 34.683594 10.625 34.484375 10.113281 34.476562 9.523438 Z M 34.476562 9.523438 "/>
<path style=" stroke:none;fill-rule:evenodd;fill:rgb(4.705882%,1.960784%,1.568627%);fill-opacity:1;" d="M 34.957031 11.683594 C 35.316406 11.71875 35.414062 11.894531 35.246094 12.210938 C 34.996094 12.371094 34.851562 12.300781 34.8125 11.996094 C 34.828125 11.875 34.878906 11.773438 34.957031 11.683594 Z M 34.957031 11.683594 "/>
<path style=" stroke:none;fill-rule:evenodd;fill:rgb(84.705882%,84.313725%,83.921569%);fill-opacity:1;" d="M 35.054688 11.875 C 35.167969 11.941406 35.167969 12.019531 35.054688 12.117188 C 34.996094 12.035156 34.996094 11.957031 35.054688 11.875 Z M 35.054688 11.875 "/>
<path style=" stroke:none;fill-rule:evenodd;fill:rgb(61.568627%,21.176471%,16.470588%);fill-opacity:1;" d="M 33.515625 14.082031 C 33.742188 14.113281 33.8125 14.242188 33.734375 14.46875 C 33.714844 14.535156 33.675781 14.582031 33.613281 14.609375 C 33.484375 14.53125 33.355469 14.449219 33.230469 14.371094 C 33.339844 14.292969 33.4375 14.195312 33.515625 14.082031 Z M 33.515625 14.082031 "/>
<use xlink:href="#surface9" mask="url(#mask1)"/>
<path style=" stroke:none;fill-rule:evenodd;fill:rgb(62.352941%,56.470588%,58.431373%);fill-opacity:1;" d="M 13.074219 16.097656 C 13.273438 16.304688 13.488281 16.5 13.722656 16.675781 C 13.921875 16.90625 14.125 17.136719 14.324219 17.371094 C 14.738281 17.703125 15.136719 18.054688 15.523438 18.425781 C 15.023438 18.796875 14.550781 19.207031 14.109375 19.648438 C 13.277344 18.785156 12.597656 17.820312 12.066406 16.746094 C 12.128906 16.636719 12.210938 16.542969 12.308594 16.457031 C 12.5625 16.324219 12.820312 16.203125 13.074219 16.097656 Z M 13.074219 16.097656 "/>
<path style=" stroke:none;fill-rule:evenodd;fill:rgb(65.882353%,22.745098%,17.647059%);fill-opacity:1;" d="M 11.683594 16.722656 C 11.730469 16.71875 11.773438 16.734375 11.804688 16.769531 C 12.023438 17.257812 12.277344 17.71875 12.570312 18.164062 C 12.976562 18.710938 13.402344 19.246094 13.84375 19.769531 C 13.335938 19.707031 12.824219 19.640625 12.308594 19.578125 C 11.269531 19.269531 10.214844 19.035156 9.140625 18.882812 C 9.976562 18.140625 10.824219 17.421875 11.683594 16.722656 Z M 11.683594 16.722656 "/>
<path style=" stroke:none;fill-rule:evenodd;fill:rgb(65.882353%,22.745098%,17.647059%);fill-opacity:1;" d="M 37.117188 18.164062 C 37.679688 18.183594 38.238281 18.242188 38.796875 18.332031 C 39.144531 18.398438 39.480469 18.5 39.804688 18.640625 C 40.027344 18.59375 40.25 18.585938 40.476562 18.617188 C 40.515625 18.773438 40.460938 18.890625 40.308594 18.976562 C 40.269531 19.046875 40.277344 19.109375 40.332031 19.167969 C 40.65625 19.257812 40.921875 19.433594 41.121094 19.699219 C 41.136719 19.832031 41.078125 19.933594 40.953125 20.007812 C 40.667969 20.160156 40.363281 20.207031 40.042969 20.152344 C 39.886719 20.082031 39.726562 20.027344 39.5625 19.984375 C 39.589844 20.128906 39.640625 20.265625 39.707031 20.394531 C 39.625 20.75 39.5 21.085938 39.324219 21.402344 C 39.078125 21.453125 38.855469 21.40625 38.652344 21.257812 C 38.539062 21.226562 38.425781 21.226562 38.316406 21.257812 C 38.234375 21.476562 38.148438 21.691406 38.050781 21.90625 C 37.957031 22.03125 37.859375 22.03125 37.765625 21.90625 C 37.714844 21.777344 37.667969 21.648438 37.621094 21.519531 C 37.570312 21.472656 37.511719 21.464844 37.453125 21.496094 C 37.246094 21.824219 37.070312 22.167969 36.925781 22.527344 C 36.796875 22.5625 36.675781 22.609375 36.5625 22.671875 C 36.523438 22.367188 36.582031 22.078125 36.730469 21.808594 C 36.707031 21.792969 36.683594 21.777344 36.660156 21.761719 C 36.445312 22.039062 36.332031 22.359375 36.324219 22.722656 C 36.183594 22.917969 36.015625 23.082031 35.820312 23.222656 C 35.488281 23.300781 35.3125 23.164062 35.292969 22.816406 C 35.359375 22.613281 35.390625 22.40625 35.390625 22.191406 C 35.246094 22.160156 35.101562 22.144531 34.957031 22.144531 C 35.039062 21.554688 35.304688 21.058594 35.75 20.65625 C 35.773438 20.578125 35.78125 20.5 35.773438 20.417969 C 35.496094 20.53125 35.210938 20.597656 34.910156 20.609375 C 34.910156 20.523438 34.933594 20.441406 34.980469 20.371094 C 35.292969 20.089844 35.605469 19.808594 35.917969 19.53125 C 36.304688 19.320312 36.703125 19.136719 37.117188 18.976562 C 37.167969 18.9375 37.175781 18.886719 37.140625 18.832031 C 36.734375 18.597656 36.726562 18.371094 37.117188 18.164062 Z M 37.117188 18.164062 "/>
<path style=" stroke:none;fill-rule:evenodd;fill:rgb(62.352941%,56.470588%,58.431373%);fill-opacity:1;" d="M 10.917969 19.503906 C 11.480469 19.597656 12.039062 19.710938 12.597656 19.839844 C 12.5625 20.570312 12.332031 21.226562 11.898438 21.808594 C 11.785156 21.898438 11.667969 21.976562 11.539062 22.050781 C 11.5 21.957031 11.476562 21.859375 11.46875 21.761719 C 11.433594 21.714844 11.394531 21.707031 11.347656 21.738281 C 11.273438 22.273438 11.03125 22.722656 10.628906 23.082031 C 10.449219 23.183594 10.292969 23.3125 10.148438 23.464844 C 9.820312 23.574219 9.492188 23.675781 9.164062 23.777344 C 8.902344 23.507812 8.742188 23.191406 8.683594 22.816406 C 8.46875 21.527344 8.910156 20.542969 10.003906 19.867188 C 10.3125 19.742188 10.617188 19.625 10.917969 19.503906 Z M 10.917969 19.503906 "/>
<path style=" stroke:none;fill-rule:evenodd;fill:rgb(61.960784%,56.078431%,58.039216%);fill-opacity:1;" d="M 14.515625 19.554688 C 14.671875 19.636719 14.804688 19.75 14.921875 19.890625 C 15.175781 20.21875 15.414062 20.554688 15.644531 20.898438 C 15.8125 21.210938 15.902344 21.546875 15.90625 21.90625 C 15.449219 21.695312 15.050781 21.402344 14.707031 21.015625 C 14.5625 21.003906 14.5 21.078125 14.515625 21.234375 C 14.324219 21.242188 14.128906 21.234375 13.941406 21.210938 C 13.507812 21.003906 13.132812 20.722656 12.8125 20.371094 C 12.75 20.214844 12.726562 20.054688 12.738281 19.890625 C 12.953125 19.890625 13.164062 19.929688 13.363281 20.007812 C 13.867188 20.144531 14.25 19.992188 14.515625 19.554688 Z M 14.515625 19.554688 "/>
<use xlink:href="#surface12" mask="url(#mask2)"/>
<use xlink:href="#surface15" mask="url(#mask3)"/>
<use xlink:href="#surface18" mask="url(#mask4)"/>
<use xlink:href="#surface21" mask="url(#mask5)"/>
<use xlink:href="#surface24" mask="url(#mask6)"/>
<use xlink:href="#surface27" mask="url(#mask7)"/>
<use xlink:href="#surface30" mask="url(#mask8)"/>
<use xlink:href="#surface33" mask="url(#mask9)"/>
<path style=" stroke:none;fill-rule:evenodd;fill:rgb(90.588235%,90.588235%,90.588235%);fill-opacity:1;" d="M 27.808594 22.527344 C 28.074219 22.578125 28.164062 22.734375 28.070312 23.007812 C 28.050781 23.066406 28.019531 23.113281 27.976562 23.152344 C 27.910156 22.945312 27.855469 22.738281 27.808594 22.527344 Z M 27.808594 22.527344 "/>
<use xlink:href="#surface36" mask="url(#mask10)"/>
<path style=" stroke:none;fill-rule:evenodd;fill:rgb(94.509804%,94.509804%,94.509804%);fill-opacity:1;" d="M 8.804688 23.777344 C 8.890625 23.835938 8.96875 23.90625 9.046875 23.992188 C 9.160156 24.011719 9.273438 24.011719 9.382812 23.992188 C 9.503906 24.136719 9.613281 24.289062 9.71875 24.449219 C 9.320312 24.550781 9.023438 24.421875 8.828125 24.0625 C 8.804688 23.96875 8.796875 23.875 8.804688 23.777344 Z M 8.804688 23.777344 "/>
<use xlink:href="#surface39" mask="url(#mask11)"/>
<use xlink:href="#surface42" mask="url(#mask12)"/>
<path style=" stroke:none;fill-rule:evenodd;fill:rgb(65.882353%,22.745098%,17.647059%);fill-opacity:1;" d="M 14.371094 24.59375 C 14.453125 24.722656 14.523438 24.867188 14.585938 25.023438 C 14.636719 25.535156 14.695312 26.046875 14.753906 26.558594 C 14.726562 27.070312 14.703125 27.582031 14.683594 28.09375 C 14.65625 28.195312 14.617188 28.292969 14.5625 28.382812 C 14.347656 28.476562 14.125 28.539062 13.890625 28.574219 C 13.316406 28.527344 12.742188 28.488281 12.164062 28.453125 C 11.832031 28.414062 11.515625 28.335938 11.203125 28.214844 C 11.175781 28.179688 11.160156 28.140625 11.15625 28.09375 C 11.4375 27.230469 11.734375 26.367188 12.042969 25.503906 C 12.304688 25.429688 12.566406 25.363281 12.835938 25.3125 C 12.882812 25.320312 12.933594 25.328125 12.980469 25.335938 C 13.160156 25.71875 13.378906 25.742188 13.628906 25.40625 C 13.707031 25.253906 13.769531 25.09375 13.820312 24.929688 C 14.019531 24.832031 14.203125 24.722656 14.371094 24.59375 Z M 14.371094 24.59375 "/>
<path style=" stroke:none;fill-rule:evenodd;fill:rgb(65.882353%,22.745098%,17.647059%);fill-opacity:1;" d="M 39.707031 24.59375 C 39.804688 24.59375 39.898438 24.59375 39.996094 24.59375 C 40.082031 25.132812 40.105469 25.675781 40.066406 26.222656 C 39.941406 26.75 39.816406 27.28125 39.683594 27.808594 C 39.65625 27.941406 39.597656 28.0625 39.515625 28.167969 C 39.160156 28.246094 38.808594 28.246094 38.460938 28.167969 C 37.683594 27.828125 36.933594 27.445312 36.203125 27.015625 C 36.058594 26.933594 35.949219 26.824219 35.867188 26.679688 C 36.359375 26.1875 36.863281 25.699219 37.378906 25.214844 C 37.464844 25.050781 37.570312 24.898438 37.691406 24.761719 C 38.21875 24.789062 38.746094 24.789062 39.277344 24.761719 C 39.417969 24.6875 39.5625 24.632812 39.707031 24.59375 Z M 39.707031 24.59375 "/>
<path style=" stroke:none;fill-rule:evenodd;fill:rgb(92.54902%,92.54902%,92.54902%);fill-opacity:1;" d="M 20.945312 25.023438 C 21.007812 25.015625 21.066406 25.03125 21.113281 25.070312 C 21.199219 25.289062 21.253906 25.511719 21.28125 25.742188 C 20.71875 25.710938 20.605469 25.472656 20.945312 25.023438 Z M 20.945312 25.023438 "/>
<path style=" stroke:none;fill-rule:evenodd;fill:rgb(95.294118%,95.294118%,95.294118%);fill-opacity:1;" d="M 13.363281 25.121094 C 13.484375 25.207031 13.46875 25.285156 13.316406 25.359375 C 13.269531 25.34375 13.234375 25.3125 13.21875 25.265625 C 13.261719 25.203125 13.308594 25.15625 13.363281 25.121094 Z M 13.363281 25.121094 "/>
<use xlink:href="#surface45" mask="url(#mask13)"/>
<path style=" stroke:none;fill-rule:evenodd;fill:rgb(65.882353%,22.745098%,17.647059%);fill-opacity:1;" d="M 26.222656 26.03125 C 26.460938 26.167969 26.648438 26.359375 26.777344 26.609375 C 27.199219 27.289062 27.511719 28.015625 27.710938 28.789062 C 27.667969 28.882812 27.601562 28.964844 27.519531 29.03125 C 27.015625 29.285156 26.488281 29.460938 25.9375 29.558594 C 25.253906 29.695312 24.566406 29.777344 23.871094 29.796875 C 23.84375 29.765625 23.828125 29.722656 23.824219 29.679688 C 23.914062 29.148438 24.015625 28.621094 24.136719 28.09375 C 24.144531 27.695312 24.167969 27.292969 24.207031 26.894531 C 24.414062 26.828125 24.621094 26.78125 24.832031 26.75 C 24.824219 26.84375 24.855469 26.914062 24.929688 26.96875 C 25.167969 27.15625 25.351562 27.117188 25.480469 26.847656 C 25.488281 26.699219 25.511719 26.558594 25.550781 26.414062 C 25.792969 26.3125 26.019531 26.183594 26.222656 26.03125 Z M 26.222656 26.03125 "/>
<path style=" stroke:none;fill-rule:evenodd;fill:rgb(65.490196%,22.745098%,17.647059%);fill-opacity:1;" d="M 46.234375 26.128906 C 46.941406 26.890625 47.660156 27.652344 48.390625 28.40625 C 47.714844 28.824219 47.011719 29.191406 46.28125 29.511719 C 46.15625 29.550781 46.027344 29.574219 45.898438 29.582031 C 45.890625 29.246094 45.898438 28.910156 45.921875 28.574219 C 46.074219 27.765625 46.179688 26.949219 46.234375 26.128906 Z M 46.234375 26.128906 "/>
<use xlink:href="#surface48" mask="url(#mask14)"/>
<path style=" stroke:none;fill-rule:evenodd;fill:rgb(98.823529%,98.823529%,98.823529%);fill-opacity:1;" d="M 45.753906 26.175781 C 45.832031 26.175781 45.914062 26.175781 45.992188 26.175781 C 45.921875 27.046875 45.800781 27.910156 45.632812 28.765625 C 45.609375 29.023438 45.601562 29.277344 45.609375 29.535156 C 45.191406 29.542969 44.777344 29.535156 44.363281 29.511719 C 44.316406 29.492188 44.277344 29.46875 44.242188 29.4375 C 44.226562 29.132812 44.257812 28.828125 44.335938 28.527344 C 44.601562 27.796875 44.789062 27.042969 44.890625 26.273438 C 45.128906 26.28125 45.371094 26.273438 45.609375 26.246094 C 45.667969 26.238281 45.714844 26.210938 45.753906 26.175781 Z M 45.753906 26.175781 "/>
<use xlink:href="#surface51" mask="url(#mask15)"/>
<path style=" stroke:none;fill-rule:evenodd;fill:rgb(92.941176%,91.372549%,88.627451%);fill-opacity:1;" d="M 4.054688 26.511719 C 4.199219 26.492188 4.324219 26.523438 4.4375 26.609375 C 4.21875 26.851562 4.027344 27.113281 3.863281 27.398438 C 3.195312 27.511719 2.523438 27.542969 1.847656 27.496094 C 2.085938 27.195312 2.339844 26.90625 2.613281 26.632812 C 3.105469 26.625 3.585938 26.585938 4.054688 26.511719 Z M 4.054688 26.511719 "/>
<path style=" stroke:none;fill-rule:evenodd;fill:rgb(92.54902%,92.54902%,92.54902%);fill-opacity:1;" d="M 25.214844 26.558594 C 25.347656 26.679688 25.328125 26.792969 25.167969 26.894531 C 25.089844 26.878906 25.039062 26.832031 25.023438 26.75 C 25.070312 26.664062 25.132812 26.601562 25.214844 26.558594 Z M 25.214844 26.558594 "/>
<path style=" stroke:none;fill-rule:evenodd;fill:rgb(61.176471%,55.294118%,57.254902%);fill-opacity:1;" d="M 4.535156 26.75 C 4.582031 26.75 4.628906 26.75 4.679688 26.75 C 4.773438 27.246094 4.84375 27.742188 4.894531 28.238281 C 4.730469 28.40625 4.601562 28.597656 4.511719 28.816406 C 4.429688 28.902344 4.339844 28.984375 4.246094 29.054688 C 4.207031 28.542969 4.128906 28.039062 4.007812 27.542969 C 4.136719 27.246094 4.3125 26.980469 4.535156 26.75 Z M 4.535156 26.75 "/>
<use xlink:href="#surface54" mask="url(#mask16)"/>
<path style=" stroke:none;fill-rule:evenodd;fill:rgb(98.039216%,98.039216%,98.039216%);fill-opacity:1;" d="M 36.253906 27.375 C 36.316406 27.367188 36.382812 27.375 36.445312 27.398438 C 37.132812 27.855469 37.867188 28.207031 38.652344 28.453125 C 38.847656 28.480469 39.039062 28.480469 39.226562 28.453125 C 39.296875 28.894531 39.28125 29.335938 39.179688 29.773438 C 38.859375 29.878906 38.542969 29.886719 38.21875 29.796875 C 38.179688 29.757812 38.140625 29.71875 38.101562 29.679688 C 38.054688 29.453125 38.007812 29.230469 37.957031 29.007812 C 37.785156 28.851562 37.601562 28.714844 37.402344 28.597656 C 37.324219 28.566406 37.242188 28.566406 37.164062 28.597656 C 36.886719 28.789062 36.609375 28.972656 36.324219 29.152344 C 36.289062 29.121094 36.25 29.097656 36.203125 29.078125 C 35.949219 28.808594 35.675781 28.550781 35.390625 28.3125 C 35.703125 28.019531 35.992188 27.707031 36.253906 27.375 Z M 36.253906 27.375 "/>
<path style=" stroke:none;fill-rule:evenodd;fill:rgb(65.882353%,22.745098%,17.647059%);fill-opacity:1;" d="M 3.574219 27.613281 C 3.707031 27.589844 3.792969 27.636719 3.839844 27.757812 C 3.933594 28.332031 3.988281 28.90625 4.007812 29.488281 C 3.386719 29.605469 2.765625 29.679688 2.136719 29.703125 C 2.023438 29.042969 1.925781 28.378906 1.847656 27.710938 C 2.34375 27.71875 2.839844 27.710938 3.335938 27.6875 C 3.425781 27.675781 3.503906 27.652344 3.574219 27.613281 Z M 3.574219 27.613281 "/>
<path style=" stroke:none;fill-rule:evenodd;fill:rgb(63.921569%,21.960784%,17.254902%);fill-opacity:1;" d="M 27.757812 28 C 28.238281 27.992188 28.71875 28 29.199219 28.023438 C 29.527344 28.105469 29.847656 28.21875 30.160156 28.359375 C 30.367188 28.527344 30.457031 28.742188 30.421875 29.007812 C 30.097656 29.253906 29.785156 29.515625 29.488281 29.796875 C 28.035156 30.605469 26.484375 31.121094 24.832031 31.332031 C 23.832031 31.433594 22.839844 31.367188 21.855469 31.140625 C 21.636719 31.097656 21.511719 30.96875 21.472656 30.757812 C 21.558594 30.441406 21.71875 30.167969 21.953125 29.941406 C 22.480469 29.457031 23.070312 29.0625 23.726562 28.765625 C 23.789062 28.878906 23.753906 28.96875 23.632812 29.03125 C 23.042969 29.296875 22.539062 29.671875 22.121094 30.160156 C 21.984375 30.472656 22.074219 30.703125 22.386719 30.855469 C 22.621094 30.917969 22.859375 30.964844 23.105469 31 C 24.691406 31.085938 26.246094 30.894531 27.757812 30.421875 C 28.316406 30.160156 28.863281 29.871094 29.390625 29.558594 C 30.046875 28.980469 29.964844 28.546875 29.152344 28.261719 C 28.691406 28.195312 28.226562 28.171875 27.757812 28.191406 C 27.757812 28.128906 27.757812 28.0625 27.757812 28 Z M 23.535156 29.246094 C 23.128906 29.5 22.753906 29.804688 22.410156 30.160156 C 22.242188 30.320312 22.25 30.472656 22.433594 30.613281 C 22.785156 30.757812 23.144531 30.796875 23.511719 30.734375 C 23.609375 30.519531 23.695312 30.304688 23.777344 30.085938 C 23.707031 30.0625 23.652344 30.023438 23.609375 29.964844 C 23.566406 29.734375 23.589844 29.511719 23.679688 29.292969 C 23.640625 29.253906 23.59375 29.234375 23.535156 29.246094 Z M 27.613281 29.246094 C 27.53125 29.3125 27.433594 29.371094 27.328125 29.414062 C 26.25 29.78125 25.148438 30.011719 24.015625 30.109375 C 23.925781 30.328125 23.828125 30.542969 23.726562 30.757812 C 24.214844 30.820312 24.703125 30.84375 25.191406 30.832031 C 25.410156 30.726562 25.640625 30.664062 25.886719 30.636719 C 25.871094 30.53125 25.902344 30.445312 25.984375 30.375 C 26.171875 30.328125 26.324219 30.386719 26.441406 30.542969 C 26.75 30.433594 27.0625 30.375 27.375 30.375 C 27.621094 30.257812 27.859375 30.132812 28.09375 29.992188 C 27.902344 29.757812 27.742188 29.511719 27.613281 29.246094 Z M 27.613281 29.246094 "/>
<path style=" stroke:none;fill-rule:evenodd;fill:rgb(98.039216%,98.039216%,98.039216%);fill-opacity:1;" d="M 11.394531 28.574219 C 12.417969 28.757812 13.441406 28.8125 14.46875 28.742188 C 14.589844 29.238281 14.636719 29.742188 14.609375 30.253906 C 14.273438 30.269531 13.9375 30.253906 13.605469 30.207031 C 13.515625 29.988281 13.445312 29.765625 13.386719 29.535156 C 13.148438 29.453125 12.898438 29.429688 12.644531 29.460938 C 12.53125 29.636719 12.421875 29.8125 12.308594 29.992188 C 11.820312 30.046875 11.390625 29.917969 11.011719 29.605469 C 11.148438 29.265625 11.277344 28.921875 11.394531 28.574219 Z M 11.394531 28.574219 "/>
<path style=" stroke:none;fill-rule:evenodd;fill:rgb(62.352941%,56.470588%,58.431373%);fill-opacity:1;" d="M 48.296875 28.765625 C 48.460938 28.785156 48.546875 28.878906 48.558594 29.054688 C 48.5625 29.757812 48.546875 30.460938 48.511719 31.167969 C 48.089844 31.390625 47.667969 31.605469 47.242188 31.8125 C 46.960938 31.996094 46.679688 32.183594 46.402344 32.367188 C 46.335938 32.332031 46.289062 32.285156 46.257812 32.222656 C 46.175781 31.46875 46.054688 30.726562 45.898438 29.992188 C 46.320312 29.789062 46.75 29.597656 47.191406 29.414062 C 47.566406 29.195312 47.933594 28.980469 48.296875 28.765625 Z M 48.296875 28.765625 "/>
<path style=" stroke:none;fill-rule:evenodd;fill:rgb(92.54902%,90.980392%,88.235294%);fill-opacity:1;" d="M 3.574219 29.917969 C 3.496094 29.886719 3.414062 29.855469 3.335938 29.824219 C 3.511719 29.796875 3.6875 29.765625 3.863281 29.726562 C 4.128906 29.851562 4.265625 29.769531 4.269531 29.488281 C 4.351562 29.347656 4.441406 29.210938 4.535156 29.078125 C 5.042969 29.011719 5.558594 28.996094 6.070312 29.03125 C 5.828125 29.289062 5.605469 29.5625 5.398438 29.847656 C 4.792969 29.902344 4.183594 29.925781 3.574219 29.917969 Z M 3.574219 29.917969 "/>
<path style=" stroke:none;fill-rule:evenodd;fill:rgb(92.156863%,90.588235%,87.843137%);fill-opacity:1;" d="M 1.414062 29.007812 C 1.546875 29.011719 1.671875 29.027344 1.800781 29.054688 C 1.8125 29.335938 1.859375 29.605469 1.945312 29.871094 C 1.433594 29.910156 0.917969 29.941406 0.40625 29.964844 C 0.398438 29.902344 0.410156 29.835938 0.433594 29.773438 C 0.617188 29.589844 0.800781 29.40625 0.984375 29.222656 C 1.144531 29.179688 1.289062 29.109375 1.414062 29.007812 Z M 1.414062 29.007812 "/>
<path style=" stroke:none;fill-rule:evenodd;fill:rgb(92.941176%,91.372549%,88.627451%);fill-opacity:1;" d="M 6.214844 29.199219 C 6.238281 29.730469 6.289062 30.265625 6.359375 30.804688 C 6.140625 30.996094 5.917969 31.183594 5.6875 31.359375 C 5.683594 30.863281 5.675781 30.367188 5.664062 29.871094 C 5.820312 29.625 6.003906 29.402344 6.214844 29.199219 Z M 6.214844 29.199219 "/>
<path style=" stroke:none;fill-rule:evenodd;fill:rgb(98.039216%,98.039216%,98.039216%);fill-opacity:1;" d="M 44.121094 29.726562 C 44.503906 29.761719 44.886719 29.789062 45.273438 29.796875 C 45.421875 29.804688 45.558594 29.84375 45.679688 29.917969 C 45.824219 30.734375 45.945312 31.546875 46.042969 32.367188 C 45.5625 32.308594 45.082031 32.257812 44.601562 32.222656 C 44.484375 31.914062 44.429688 31.59375 44.433594 31.261719 C 44.324219 30.75 44.21875 30.238281 44.121094 29.726562 Z M 44.121094 29.726562 "/>
<use xlink:href="#surface57" mask="url(#mask17)"/>
<use xlink:href="#surface60" mask="url(#mask18)"/>
<path style=" stroke:none;fill-rule:evenodd;fill:rgb(65.882353%,22.745098%,17.647059%);fill-opacity:1;" d="M 2.902344 30.109375 C 3.71875 30.167969 4.535156 30.167969 5.351562 30.109375 C 5.398438 30.65625 5.382812 31.199219 5.300781 31.742188 C 3.707031 32.09375 2.101562 32.203125 0.480469 32.078125 C 0.445312 31.453125 0.421875 30.832031 0.40625 30.207031 C 1.246094 30.175781 2.078125 30.144531 2.902344 30.109375 Z M 2.902344 30.109375 "/>
<use xlink:href="#surface63" mask="url(#mask19)"/>
</g>
</svg>
