<?xml version="1.0" encoding="UTF-8"?>
<svg xmlns="http://www.w3.org/2000/svg" xmlns:xlink="http://www.w3.org/1999/xlink" width="50pt" height="50pt" viewBox="0 0 50 50" version="1.1">
<defs>
<filter id="alpha" filterUnits="objectBoundingBox" x="0%" y="0%" width="100%" height="100%">
  <feColorMatrix type="matrix" in="SourceGraphic" values="0 0 0 0 1 0 0 0 0 1 0 0 0 0 1 0 0 0 1 0"/>
</filter>
<mask id="mask0">
  <g filter="url(#alpha)">
<rect x="0" y="0" width="50" height="50" style="fill:rgb(0%,0%,0%);fill-opacity:0.996078;stroke:none;"/>
  </g>
</mask>
<clipPath id="clip1">
  <rect width="50" height="50"/>
</clipPath>
<g id="surface6" clip-path="url(#clip1)">
<path style=" stroke:none;fill-rule:evenodd;fill:rgb(94.509804%,92.941176%,90.196078%);fill-opacity:1;" d="M 41.386719 7.988281 C 41.402344 9.21875 41.609375 10.410156 42.011719 11.5625 C 42.136719 11.597656 42.214844 11.550781 42.25 11.421875 C 41.984375 10.378906 41.855469 9.332031 41.867188 8.277344 C 43.3125 9.316406 44.519531 10.578125 45.488281 12.066406 C 45.90625 12.710938 46.296875 13.363281 46.664062 14.035156 C 46.371094 14.035156 46.125 14.144531 45.921875 14.371094 C 45.371094 13.867188 44.785156 13.816406 44.167969 14.226562 C 43.984375 14.164062 43.789062 14.117188 43.59375 14.082031 C 43.382812 13.558594 43 13.328125 42.441406 13.386719 C 42.117188 13.582031 41.902344 13.863281 41.792969 14.226562 C 41.316406 13.851562 40.828125 13.84375 40.332031 14.203125 C 40.011719 14.5625 39.964844 14.953125 40.1875 15.378906 C 39.621094 15.441406 39.199219 15.710938 38.914062 16.195312 C 38.816406 16.441406 38.832031 16.679688 38.964844 16.914062 C 39.105469 17.085938 39.273438 17.222656 39.46875 17.324219 C 39.414062 17.421875 39.40625 17.527344 39.445312 17.632812 C 39.582031 18.027344 39.84375 18.292969 40.234375 18.425781 C 40.292969 18.46875 40.332031 18.523438 40.355469 18.59375 C 40.5625 19.753906 40.371094 20.84375 39.777344 21.855469 C 39.609375 22.023438 39.445312 22.191406 39.277344 22.359375 C 39.21875 22.378906 39.164062 22.371094 39.109375 22.335938 C 39.046875 22.34375 39.007812 22.375 38.988281 22.433594 C 39.40625 23.371094 40.128906 23.867188 41.148438 23.921875 C 41.117188 24.121094 41.195312 24.191406 41.386719 24.136719 C 41.574219 23.476562 41.957031 22.964844 42.539062 22.601562 C 43.027344 22.347656 43.523438 22.109375 44.027344 21.882812 C 44.195312 21.820312 44.371094 21.796875 44.554688 21.808594 C 44.515625 22.515625 44.835938 22.957031 45.511719 23.128906 C 46.027344 23.257812 46.523438 23.210938 47 22.984375 C 47.128906 22.921875 47.226562 22.824219 47.289062 22.695312 C 48.320312 22.714844 48.722656 22.226562 48.488281 21.234375 C 48.617188 21.222656 48.730469 21.175781 48.824219 21.089844 C 48.917969 22.300781 48.734375 23.46875 48.273438 24.59375 C 47.875 25.429688 47.273438 26.078125 46.472656 26.535156 C 45.914062 26.796875 45.335938 27.019531 44.746094 27.207031 C 43.527344 27.714844 42.558594 28.523438 41.84375 29.628906 C 41.429688 30.324219 41.070312 31.042969 40.761719 31.789062 C 40.320312 31.609375 39.875 31.441406 39.417969 31.285156 C 38.992188 30.714844 38.464844 30.265625 37.835938 29.941406 C 37.554688 29.832031 37.269531 29.753906 36.972656 29.703125 C 36.085938 28.914062 35.046875 28.484375 33.851562 28.40625 C 32.605469 27.355469 31.277344 27.242188 29.871094 28.070312 C 29.523438 28.328125 29.371094 28.671875 29.414062 29.101562 C 29.601562 29.878906 29.953125 30.566406 30.46875 31.167969 C 31.710938 32.5 33.15625 33.550781 34.8125 34.308594 C 36.15625 34.859375 37.5 35.394531 38.84375 35.917969 C 37.714844 37.742188 36.226562 39.207031 34.382812 40.308594 C 32.808594 41.273438 31.109375 41.929688 29.292969 42.273438 C 27.167969 42.5625 25.136719 42.242188 23.199219 41.316406 C 22.34375 40.90625 21.511719 40.457031 20.707031 39.972656 C 19.011719 38.859375 17.300781 37.78125 15.570312 36.730469 C 17.957031 36.820312 19.871094 35.925781 21.304688 34.046875 C 21.617188 33.539062 21.832031 32.992188 21.953125 32.414062 C 21.949219 32.28125 21.925781 32.152344 21.882812 32.03125 C 21.695312 31.78125 21.480469 31.566406 21.234375 31.382812 C 20.074219 30.484375 18.761719 29.941406 17.296875 29.75 C 16.097656 29.644531 14.898438 29.660156 13.699219 29.796875 C 12.949219 29.921875 12.195312 30.050781 11.445312 30.183594 C 11.179688 30.261719 11.082031 30.429688 11.15625 30.6875 C 10.972656 30.882812 10.878906 31.113281 10.867188 31.382812 C 10.863281 32.234375 11.078125 33.027344 11.515625 33.757812 C 11.832031 34.277344 12.160156 34.789062 12.5 35.292969 C 11.269531 34.9375 10.019531 34.640625 8.757812 34.40625 C 3.808594 32.910156 1.5625 29.574219 2.015625 24.398438 C 2.417969 21.023438 3.835938 18.167969 6.261719 15.835938 C 7.800781 14.566406 9.5 13.542969 11.347656 12.765625 C 12.601562 12.285156 13.898438 12 15.234375 11.898438 C 16.691406 11.871094 18.144531 11.878906 19.601562 11.925781 C 19.683594 11.980469 19.714844 12.058594 19.699219 12.164062 C 19.515625 12.226562 19.53125 12.28125 19.746094 12.332031 C 20.160156 12.363281 20.558594 12.296875 20.945312 12.140625 C 21.195312 12.007812 21.453125 11.886719 21.714844 11.78125 C 21.789062 11.792969 21.855469 11.777344 21.90625 11.730469 C 22.234375 11.855469 22.5 12.0625 22.695312 12.355469 C 22.871094 12.6875 23.03125 13.023438 23.175781 13.363281 C 23.332031 14.027344 23.445312 14.699219 23.511719 15.378906 C 23.5625 15.808594 23.585938 16.242188 23.585938 16.675781 C 23.503906 16.679688 23.421875 16.695312 23.34375 16.722656 C 23.34375 16.59375 23.34375 16.464844 23.34375 16.339844 C 23.425781 16.246094 23.410156 16.179688 23.296875 16.148438 C 23.195312 15.335938 23.042969 14.539062 22.839844 13.746094 C 22.75 13.351562 22.566406 13.007812 22.289062 12.714844 C 22.09375 12.578125 21.878906 12.523438 21.640625 12.546875 C 21.078125 12.578125 20.527344 12.664062 19.984375 12.8125 C 19.769531 12.921875 19.5625 13.042969 19.363281 13.171875 C 19.390625 12.890625 19.488281 12.636719 19.648438 12.402344 C 19.5625 12.367188 19.488281 12.398438 19.433594 12.5 C 19.152344 12.90625 19.058594 13.355469 19.144531 13.84375 C 19.324219 14.550781 19.652344 15.175781 20.128906 15.714844 C 20.277344 16.085938 20.460938 16.4375 20.679688 16.769531 C 21.542969 17.808594 22.308594 18.910156 22.984375 20.082031 C 23.101562 20.222656 23.238281 20.335938 23.390625 20.417969 C 23.496094 20.605469 23.609375 20.789062 23.726562 20.96875 C 23.835938 21.007812 23.921875 20.984375 23.992188 20.898438 C 23.960938 19.058594 23.910156 17.21875 23.847656 15.378906 C 23.792969 14.28125 23.523438 13.242188 23.03125 12.261719 C 22.886719 11.996094 22.6875 11.789062 22.433594 11.636719 C 23.742188 11.261719 24.894531 10.613281 25.886719 9.691406 C 30.058594 5.289062 34.839844 4.488281 40.234375 7.292969 C 40.628906 7.515625 41.015625 7.746094 41.386719 7.988281 Z M 41.386719 7.988281 "/>
</g>
<mask id="mask1">
  <g filter="url(#alpha)">
<rect x="0" y="0" width="50" height="50" style="fill:rgb(0%,0%,0%);fill-opacity:0.921569;stroke:none;"/>
  </g>
</mask>
<clipPath id="clip2">
  <rect width="50" height="50"/>
</clipPath>
<g id="surface9" clip-path="url(#clip2)">
<path style=" stroke:none;fill-rule:evenodd;fill:rgb(1.568627%,1.176471%,1.176471%);fill-opacity:1;" d="M 22.433594 11.636719 C 22.6875 11.789062 22.886719 11.996094 23.03125 12.261719 C 23.523438 13.242188 23.792969 14.28125 23.847656 15.378906 C 23.910156 17.21875 23.960938 19.058594 23.992188 20.898438 C 23.921875 20.984375 23.835938 21.007812 23.726562 20.96875 C 23.609375 20.789062 23.496094 20.605469 23.390625 20.417969 C 22.382812 18.96875 21.398438 17.496094 20.441406 16.003906 C 20.34375 15.898438 20.238281 15.800781 20.128906 15.714844 C 19.652344 15.175781 19.324219 14.550781 19.144531 13.84375 C 19.058594 13.355469 19.152344 12.90625 19.433594 12.5 C 19.488281 12.398438 19.5625 12.367188 19.648438 12.402344 C 19.488281 12.636719 19.390625 12.890625 19.363281 13.171875 C 19.300781 13.441406 19.324219 13.714844 19.433594 13.988281 C 19.53125 14.234375 19.644531 14.472656 19.769531 14.707031 C 19.808594 14.769531 19.863281 14.800781 19.9375 14.804688 C 20.109375 14.746094 20.277344 14.746094 20.441406 14.804688 C 20.472656 14.863281 20.464844 14.921875 20.417969 14.972656 C 20.269531 14.980469 20.128906 15.003906 19.984375 15.042969 C 20.105469 15.171875 20.21875 15.308594 20.320312 15.449219 C 20.488281 15.445312 20.648438 15.40625 20.800781 15.332031 C 20.882812 15.386719 20.914062 15.46875 20.898438 15.570312 C 20.804688 15.566406 20.71875 15.582031 20.632812 15.617188 C 20.574219 15.636719 20.558594 15.667969 20.585938 15.714844 C 21.535156 17.179688 22.542969 18.605469 23.609375 19.984375 C 23.644531 19.503906 23.636719 19.023438 23.585938 18.546875 C 23.585938 18.019531 23.585938 17.492188 23.585938 16.960938 C 23.515625 16.960938 23.449219 16.976562 23.390625 17.011719 C 23.285156 17.046875 23.171875 17.0625 23.054688 17.058594 C 23.050781 16.992188 23.058594 16.929688 23.082031 16.867188 C 23.179688 16.832031 23.265625 16.785156 23.34375 16.722656 C 23.421875 16.695312 23.503906 16.679688 23.585938 16.675781 C 23.585938 16.242188 23.5625 15.808594 23.511719 15.378906 C 23.445312 14.699219 23.332031 14.027344 23.175781 13.363281 C 23.03125 13.023438 22.871094 12.6875 22.695312 12.355469 C 22.5 12.0625 22.234375 11.855469 21.90625 11.730469 C 21.828125 11.71875 21.765625 11.734375 21.714844 11.78125 C 21.453125 11.886719 21.195312 12.007812 20.945312 12.140625 C 20.558594 12.296875 20.160156 12.363281 19.746094 12.332031 C 19.53125 12.28125 19.515625 12.226562 19.699219 12.164062 C 19.714844 12.058594 19.683594 11.980469 19.601562 11.925781 C 19.066406 10.367188 18.191406 9.042969 16.988281 7.941406 C 16.855469 7.625 16.957031 7.523438 17.296875 7.628906 C 17.777344 7.917969 18.203125 8.277344 18.570312 8.710938 C 18.84375 9.0625 19.113281 9.414062 19.386719 9.765625 C 19.171875 9.089844 18.996094 8.402344 18.859375 7.703125 C 18.792969 7.582031 18.738281 7.460938 18.691406 7.339844 C 18.703125 7.191406 18.78125 7.140625 18.929688 7.199219 C 19.59375 8.246094 20.179688 9.34375 20.679688 10.484375 C 20.707031 9.574219 20.832031 8.679688 21.066406 7.796875 C 21.109375 7.496094 21.140625 7.191406 21.160156 6.886719 C 21.285156 6.753906 21.390625 6.769531 21.472656 6.933594 C 21.503906 7.0625 21.527344 7.1875 21.546875 7.316406 C 21.621094 8.535156 21.730469 9.753906 21.882812 10.964844 C 21.898438 11.046875 21.921875 11.125 21.953125 11.203125 C 22.101562 11.363281 22.261719 11.507812 22.433594 11.636719 Z M 21.042969 11.875 C 20.625 11.914062 20.210938 11.929688 19.792969 11.925781 C 19.425781 10.773438 18.882812 9.714844 18.164062 8.757812 C 18.859375 9.527344 19.472656 10.359375 20.007812 11.253906 C 20.238281 11.394531 20.332031 11.332031 20.296875 11.058594 C 20.058594 10.46875 19.816406 9.875 19.578125 9.285156 C 19.488281 9.046875 19.425781 8.804688 19.386719 8.566406 C 19.871094 9.4375 20.300781 10.332031 20.679688 11.253906 C 20.902344 11.339844 21.015625 11.257812 21.015625 11.011719 C 20.96875 10.136719 21.050781 9.273438 21.257812 8.421875 C 21.363281 9.21875 21.441406 10.015625 21.496094 10.820312 C 21.53125 11.066406 21.585938 11.304688 21.664062 11.539062 C 21.464844 11.664062 21.253906 11.777344 21.042969 11.875 Z M 17.96875 8.515625 C 18.039062 8.539062 18.070312 8.589844 18.066406 8.660156 C 18 8.636719 17.964844 8.589844 17.96875 8.515625 Z M 17.96875 8.515625 "/>
</g>
<mask id="mask2">
  <g filter="url(#alpha)">
<rect x="0" y="0" width="50" height="50" style="fill:rgb(0%,0%,0%);fill-opacity:0.909804;stroke:none;"/>
  </g>
</mask>
<clipPath id="clip3">
  <rect width="50" height="50"/>
</clipPath>
<g id="surface12" clip-path="url(#clip3)">
<path style=" stroke:none;fill-rule:evenodd;fill:rgb(0%,0%,0%);fill-opacity:1;" d="M 14.707031 7.367188 C 14.816406 7.351562 14.921875 7.371094 15.019531 7.414062 C 15.039062 8.273438 15.09375 9.128906 15.1875 9.980469 C 15.132812 10.246094 14.996094 10.300781 14.777344 10.148438 C 14.640625 9.257812 14.589844 8.363281 14.636719 7.460938 C 14.667969 7.433594 14.695312 7.402344 14.707031 7.367188 Z M 14.707031 7.367188 "/>
</g>
<mask id="mask3">
  <g filter="url(#alpha)">
<rect x="0" y="0" width="50" height="50" style="fill:rgb(0%,0%,0%);fill-opacity:0.843137;stroke:none;"/>
  </g>
</mask>
<clipPath id="clip4">
  <rect width="50" height="50"/>
</clipPath>
<g id="surface15" clip-path="url(#clip4)">
<path style=" stroke:none;fill-rule:evenodd;fill:rgb(0%,0%,0%);fill-opacity:1;" d="M 13.410156 7.605469 C 13.46875 7.632812 13.527344 7.664062 13.578125 7.703125 C 13.660156 8.089844 13.746094 8.472656 13.84375 8.851562 C 13.773438 8.992188 13.667969 9.023438 13.53125 8.949219 C 13.433594 8.574219 13.34375 8.199219 13.269531 7.820312 C 13.269531 7.714844 13.320312 7.644531 13.410156 7.605469 Z M 13.410156 7.605469 "/>
</g>
<mask id="mask4">
  <g filter="url(#alpha)">
<rect x="0" y="0" width="50" height="50" style="fill:rgb(0%,0%,0%);fill-opacity:0.984314;stroke:none;"/>
  </g>
</mask>
<clipPath id="clip5">
  <rect width="50" height="50"/>
</clipPath>
<g id="surface18" clip-path="url(#clip5)">
<path style=" stroke:none;fill-rule:evenodd;fill:rgb(1.960784%,1.960784%,1.960784%);fill-opacity:1;" d="M 41.867188 8.277344 C 41.855469 9.332031 41.984375 10.378906 42.25 11.421875 C 42.214844 11.550781 42.136719 11.597656 42.011719 11.5625 C 41.609375 10.410156 41.402344 9.21875 41.386719 7.988281 C 41.703125 7.8125 41.863281 7.910156 41.867188 8.277344 Z M 41.867188 8.277344 "/>
</g>
<mask id="mask5">
  <g filter="url(#alpha)">
<rect x="0" y="0" width="50" height="50" style="fill:rgb(0%,0%,0%);fill-opacity:0.886275;stroke:none;"/>
  </g>
</mask>
<clipPath id="clip6">
  <rect width="50" height="50"/>
</clipPath>
<g id="surface21" clip-path="url(#clip6)">
<path style=" stroke:none;fill-rule:evenodd;fill:rgb(90.196078%,88.627451%,85.882353%);fill-opacity:1;" d="M 21.042969 11.875 C 20.941406 11.945312 20.828125 12 20.707031 12.042969 C 20.40625 12.125 20.101562 12.183594 19.792969 12.210938 C 19.792969 12.117188 19.792969 12.019531 19.792969 11.925781 C 20.210938 11.929688 20.625 11.914062 21.042969 11.875 Z M 21.042969 11.875 "/>
</g>
<mask id="mask6">
  <g filter="url(#alpha)">
<rect x="0" y="0" width="50" height="50" style="fill:rgb(0%,0%,0%);fill-opacity:0.984314;stroke:none;"/>
  </g>
</mask>
<clipPath id="clip7">
  <rect width="50" height="50"/>
</clipPath>
<g id="surface24" clip-path="url(#clip7)">
<path style=" stroke:none;fill-rule:evenodd;fill:rgb(3.529412%,3.137255%,2.745098%);fill-opacity:1;" d="M 46.664062 14.035156 C 47.242188 14 47.679688 14.222656 47.984375 14.707031 C 48.085938 14.9375 48.078125 15.160156 47.960938 15.378906 C 48.410156 15.570312 48.578125 15.90625 48.464844 16.386719 C 48.375 16.660156 48.222656 16.882812 48.007812 17.058594 C 47.828125 17.085938 47.828125 17.136719 48.007812 17.203125 C 48.507812 17.527344 48.648438 17.976562 48.441406 18.546875 C 48.320312 18.605469 48.320312 18.652344 48.441406 18.691406 C 48.796875 18.796875 48.933594 19.035156 48.847656 19.410156 C 48.804688 19.511719 48.75 19.609375 48.679688 19.699219 C 49.128906 19.957031 49.246094 20.324219 49.039062 20.800781 C 49.003906 20.925781 48.929688 21.023438 48.824219 21.089844 C 48.730469 21.175781 48.617188 21.222656 48.488281 21.234375 C 48.722656 22.226562 48.320312 22.714844 47.289062 22.695312 C 47.226562 22.824219 47.128906 22.921875 47 22.984375 C 46.523438 23.210938 46.027344 23.257812 45.511719 23.128906 C 44.835938 22.957031 44.515625 22.515625 44.554688 21.808594 C 44.371094 21.796875 44.195312 21.820312 44.027344 21.882812 C 43.523438 22.109375 43.027344 22.347656 42.539062 22.601562 C 41.957031 22.964844 41.574219 23.476562 41.386719 24.136719 C 41.195312 24.191406 41.117188 24.121094 41.148438 23.921875 C 40.128906 23.867188 39.40625 23.371094 38.988281 22.433594 C 39.007812 22.375 39.046875 22.34375 39.109375 22.335938 C 39.164062 22.371094 39.21875 22.378906 39.277344 22.359375 C 39.445312 22.191406 39.609375 22.023438 39.777344 21.855469 C 40.371094 20.84375 40.5625 19.753906 40.355469 18.59375 C 40.332031 18.523438 40.292969 18.46875 40.234375 18.425781 C 39.84375 18.292969 39.582031 18.027344 39.445312 17.632812 C 39.40625 17.527344 39.414062 17.421875 39.46875 17.324219 C 39.273438 17.222656 39.105469 17.085938 38.964844 16.914062 C 38.832031 16.679688 38.816406 16.441406 38.914062 16.195312 C 39.199219 15.710938 39.621094 15.441406 40.1875 15.378906 C 39.964844 14.953125 40.011719 14.5625 40.332031 14.203125 C 40.828125 13.84375 41.316406 13.851562 41.792969 14.226562 C 41.902344 13.863281 42.117188 13.582031 42.441406 13.386719 C 43 13.328125 43.382812 13.558594 43.59375 14.082031 C 43.789062 14.117188 43.984375 14.164062 44.167969 14.226562 C 44.785156 13.816406 45.371094 13.867188 45.921875 14.371094 C 46.125 14.144531 46.371094 14.035156 46.664062 14.035156 Z M 46.90625 14.515625 C 46.90625 14.5 46.90625 14.484375 46.90625 14.46875 C 47.226562 14.480469 47.476562 14.625 47.648438 14.898438 C 47.664062 15.125 47.578125 15.300781 47.386719 15.425781 C 47.453125 15.0625 47.339844 14.765625 47.050781 14.539062 C 47.003906 14.515625 46.957031 14.507812 46.90625 14.515625 Z M 47.480469 15.761719 C 47.945312 15.691406 48.148438 15.886719 48.082031 16.339844 C 48.015625 16.472656 47.925781 16.582031 47.816406 16.675781 C 47.734375 16.359375 47.621094 16.054688 47.480469 15.761719 Z M 47.480469 15.761719 "/>
</g>
<mask id="mask7">
  <g filter="url(#alpha)">
<rect x="0" y="0" width="50" height="50" style="fill:rgb(0%,0%,0%);fill-opacity:0.996078;stroke:none;"/>
  </g>
</mask>
<clipPath id="clip8">
  <rect width="50" height="50"/>
</clipPath>
<g id="surface27" clip-path="url(#clip8)">
<path style=" stroke:none;fill-rule:evenodd;fill:rgb(76.470588%,47.058824%,38.431373%);fill-opacity:1;" d="M 45.800781 14.804688 C 45.792969 14.917969 45.800781 15.027344 45.824219 15.140625 C 45.9375 15.265625 46.050781 15.265625 46.160156 15.140625 C 46.183594 15.011719 46.191406 14.882812 46.183594 14.753906 C 46.390625 14.578125 46.632812 14.5 46.90625 14.515625 C 46.957031 14.507812 47.003906 14.515625 47.050781 14.539062 C 47.339844 14.765625 47.453125 15.0625 47.386719 15.425781 C 47.351562 15.425781 47.335938 15.441406 47.335938 15.476562 C 47.269531 15.621094 47.191406 15.765625 47.097656 15.90625 C 47.492188 16.042969 47.714844 16.316406 47.769531 16.722656 C 47.617188 16.828125 47.464844 16.941406 47.3125 17.058594 C 47.28125 17.257812 47.367188 17.371094 47.578125 17.394531 C 47.941406 17.867188 47.875 18.277344 47.386719 18.617188 C 47.480469 18.640625 47.574219 18.648438 47.671875 18.640625 C 47.476562 18.699219 47.277344 18.683594 47.074219 18.59375 C 46.933594 18.636719 46.878906 18.734375 46.90625 18.882812 C 46.738281 18.976562 46.5625 19.0625 46.378906 19.144531 C 46.128906 19.183594 45.890625 19.160156 45.65625 19.074219 C 45.621094 19.253906 45.570312 19.429688 45.511719 19.601562 C 45.480469 19.601562 45.464844 19.617188 45.464844 19.648438 C 45.425781 19.785156 45.363281 19.914062 45.273438 20.035156 C 45.015625 20.214844 44.742188 20.222656 44.457031 20.058594 C 44.089844 19.726562 43.953125 19.316406 44.050781 18.832031 C 44.011719 18.769531 43.957031 18.738281 43.882812 18.738281 C 43.605469 18.824219 43.351562 18.785156 43.113281 18.617188 C 42.898438 18.464844 42.714844 18.28125 42.5625 18.066406 C 42.453125 17.621094 42.589844 17.277344 42.96875 17.035156 C 43.171875 17.046875 43.375 17.039062 43.570312 17.011719 C 43.601562 16.945312 43.601562 16.882812 43.570312 16.820312 C 43.457031 16.6875 43.359375 16.542969 43.28125 16.386719 C 43.238281 16.195312 43.269531 16.019531 43.378906 15.859375 C 43.445312 15.800781 43.527344 15.769531 43.617188 15.761719 C 43.816406 15.820312 44 15.90625 44.167969 16.027344 C 44.4375 16.117188 44.542969 16.03125 44.480469 15.761719 C 44.308594 15.601562 44.238281 15.402344 44.265625 15.164062 C 44.242188 14.835938 44.355469 14.570312 44.601562 14.371094 C 44.703125 14.347656 44.808594 14.332031 44.914062 14.324219 C 45.273438 14.371094 45.566406 14.53125 45.800781 14.804688 Z M 45.800781 14.804688 "/>
</g>
<mask id="mask8">
  <g filter="url(#alpha)">
<rect x="0" y="0" width="50" height="50" style="fill:rgb(0%,0%,0%);fill-opacity:0.886275;stroke:none;"/>
  </g>
</mask>
<clipPath id="clip9">
  <rect width="50" height="50"/>
</clipPath>
<g id="surface30" clip-path="url(#clip9)">
<path style=" stroke:none;fill-rule:evenodd;fill:rgb(93.333333%,90.196078%,87.058824%);fill-opacity:1;" d="M 47.335938 15.476562 C 47.351562 15.476562 47.367188 15.476562 47.386719 15.476562 C 47.371094 15.589844 47.40625 15.683594 47.480469 15.761719 C 47.621094 16.054688 47.734375 16.359375 47.816406 16.675781 C 47.816406 16.707031 47.800781 16.722656 47.769531 16.722656 C 47.714844 16.316406 47.492188 16.042969 47.097656 15.90625 C 47.191406 15.765625 47.269531 15.621094 47.335938 15.476562 Z M 47.335938 15.476562 "/>
</g>
<mask id="mask9">
  <g filter="url(#alpha)">
<rect x="0" y="0" width="50" height="50" style="fill:rgb(0%,0%,0%);fill-opacity:0.996078;stroke:none;"/>
  </g>
</mask>
<clipPath id="clip10">
  <rect width="50" height="50"/>
</clipPath>
<g id="surface33" clip-path="url(#clip10)">
<path style=" stroke:none;fill-rule:evenodd;fill:rgb(92.54902%,90.588235%,87.843137%);fill-opacity:1;" d="M 48.105469 19.746094 C 48.09375 19.824219 48.109375 19.898438 48.152344 19.960938 C 48.71875 19.984375 48.886719 20.25 48.65625 20.753906 C 48.597656 20.828125 48.527344 20.882812 48.441406 20.921875 C 48.246094 20.945312 48.054688 20.9375 47.863281 20.898438 C 47.90625 20.628906 47.839844 20.386719 47.671875 20.175781 C 47.867188 20.078125 48.011719 19.933594 48.105469 19.746094 Z M 48.105469 19.746094 "/>
</g>
<mask id="mask10">
  <g filter="url(#alpha)">
<rect x="0" y="0" width="50" height="50" style="fill:rgb(0%,0%,0%);fill-opacity:0.964706;stroke:none;"/>
  </g>
</mask>
<clipPath id="clip11">
  <rect width="50" height="50"/>
</clipPath>
<g id="surface36" clip-path="url(#clip11)">
<path style=" stroke:none;fill-rule:evenodd;fill:rgb(13.72549%,9.411765%,7.45098%);fill-opacity:1;" d="M 40.761719 31.789062 C 41.976562 32.242188 42.960938 32.996094 43.714844 34.046875 C 44.199219 35.125 43.890625 35.871094 42.777344 36.277344 C 42.113281 36.457031 41.441406 36.488281 40.761719 36.371094 C 40.113281 36.265625 39.472656 36.113281 38.84375 35.917969 C 37.5 35.394531 36.15625 34.859375 34.8125 34.308594 C 33.15625 33.550781 31.710938 32.5 30.46875 31.167969 C 29.953125 30.566406 29.601562 29.878906 29.414062 29.101562 C 29.371094 28.671875 29.523438 28.328125 29.871094 28.070312 C 31.277344 27.242188 32.605469 27.355469 33.851562 28.40625 C 35.046875 28.484375 36.085938 28.914062 36.972656 29.703125 C 37.269531 29.753906 37.554688 29.832031 37.835938 29.941406 C 38.464844 30.265625 38.992188 30.714844 39.417969 31.285156 C 39.875 31.441406 40.320312 31.609375 40.761719 31.789062 Z M 40.667969 32.078125 C 41.664062 32.554688 42.539062 33.210938 43.28125 34.046875 C 43.917969 34.898438 43.75 35.546875 42.777344 35.988281 C 42.417969 36.097656 42.050781 36.152344 41.675781 36.15625 C 42.964844 35.84375 43.285156 35.109375 42.632812 33.949219 C 42.644531 33.902344 42.625 33.871094 42.585938 33.851562 C 42.0625 33.132812 41.375 32.640625 40.523438 32.367188 C 40.546875 32.253906 40.59375 32.160156 40.667969 32.078125 Z M 40.667969 32.078125 "/>
</g>
<mask id="mask11">
  <g filter="url(#alpha)">
<rect x="0" y="0" width="50" height="50" style="fill:rgb(0%,0%,0%);fill-opacity:0.996078;stroke:none;"/>
  </g>
</mask>
<clipPath id="clip12">
  <rect width="50" height="50"/>
</clipPath>
<g id="surface39" clip-path="url(#clip12)">
<path style=" stroke:none;fill-rule:evenodd;fill:rgb(76.862745%,47.058824%,38.431373%);fill-opacity:1;" d="M 31.789062 28.527344 C 31.78125 28.59375 31.789062 28.65625 31.8125 28.71875 C 31.964844 28.796875 32.035156 28.75 32.03125 28.574219 C 32.203125 28.632812 32.378906 28.679688 32.558594 28.71875 C 32.617188 28.753906 32.679688 28.769531 32.75 28.765625 C 33.234375 29.019531 33.644531 29.371094 33.972656 29.824219 C 34.378906 30.570312 34.695312 31.355469 34.933594 32.171875 C 34.964844 32.210938 35.003906 32.226562 35.054688 32.222656 C 35.066406 32.296875 35.117188 32.328125 35.195312 32.316406 C 35.199219 31.273438 34.976562 30.28125 34.523438 29.34375 C 35.414062 29.273438 36.175781 29.558594 36.804688 30.207031 C 37.441406 31.128906 37.867188 32.136719 38.074219 33.230469 C 38.054688 33.367188 38.09375 33.480469 38.195312 33.566406 C 38.285156 33.535156 38.335938 33.472656 38.339844 33.375 C 38.4375 32.539062 38.285156 31.757812 37.882812 31.023438 C 38.542969 31.132812 39.070312 31.453125 39.46875 31.980469 C 39.789062 32.542969 39.972656 33.148438 40.019531 33.804688 C 40.035156 33.9375 40.101562 34.03125 40.210938 34.09375 C 40.257812 34.074219 40.289062 34.042969 40.308594 33.996094 C 40.339844 33.820312 40.339844 33.644531 40.308594 33.46875 C 40.191406 33.082031 40.070312 32.699219 39.945312 32.316406 C 40.136719 32.34375 40.332031 32.359375 40.523438 32.367188 C 41.375 32.640625 42.0625 33.132812 42.585938 33.851562 C 42.421875 33.847656 42.359375 33.925781 42.394531 34.09375 C 42.527344 34.121094 42.609375 34.074219 42.632812 33.949219 C 43.285156 35.109375 42.964844 35.84375 41.675781 36.15625 C 41.15625 36.160156 40.644531 36.105469 40.140625 35.988281 C 37.871094 35.371094 35.710938 34.492188 33.660156 33.347656 C 32.367188 32.550781 31.269531 31.535156 30.375 30.300781 C 30.125 29.894531 29.921875 29.460938 29.773438 29.007812 C 30.078125 28.886719 30.378906 28.769531 30.6875 28.648438 C 31.046875 28.550781 31.414062 28.511719 31.789062 28.527344 Z M 31.789062 28.527344 "/>
</g>
<mask id="mask12">
  <g filter="url(#alpha)">
<rect x="0" y="0" width="50" height="50" style="fill:rgb(0%,0%,0%);fill-opacity:0.992157;stroke:none;"/>
  </g>
</mask>
<clipPath id="clip13">
  <rect width="50" height="50"/>
</clipPath>
<g id="surface42" clip-path="url(#clip13)">
<path style=" stroke:none;fill-rule:evenodd;fill:rgb(3.137255%,3.137255%,3.137255%);fill-opacity:1;" d="M 15.570312 36.730469 C 14.519531 36.679688 13.59375 36.316406 12.789062 35.652344 C 12.664062 35.550781 12.566406 35.433594 12.5 35.292969 C 12.160156 34.789062 11.832031 34.277344 11.515625 33.757812 C 11.078125 33.027344 10.863281 32.234375 10.867188 31.382812 C 10.878906 31.113281 10.972656 30.882812 11.15625 30.6875 C 11.082031 30.429688 11.179688 30.261719 11.445312 30.183594 C 12.195312 30.050781 12.949219 29.921875 13.699219 29.796875 C 14.898438 29.660156 16.097656 29.644531 17.296875 29.75 C 18.761719 29.941406 20.074219 30.484375 21.234375 31.382812 C 21.480469 31.566406 21.695312 31.78125 21.882812 32.03125 C 21.925781 32.152344 21.949219 32.28125 21.953125 32.414062 C 21.832031 32.992188 21.617188 33.539062 21.304688 34.046875 C 19.871094 35.925781 17.957031 36.820312 15.570312 36.730469 Z M 13.460938 35.722656 C 13.792969 35.84375 14.113281 35.988281 14.417969 36.15625 C 14.074219 36.0625 13.753906 35.917969 13.460938 35.722656 Z M 13.460938 35.722656 "/>
</g>
<mask id="mask13">
  <g filter="url(#alpha)">
<rect x="0" y="0" width="50" height="50" style="fill:rgb(0%,0%,0%);fill-opacity:0.878431;stroke:none;"/>
  </g>
</mask>
<clipPath id="clip14">
  <rect width="50" height="50"/>
</clipPath>
<g id="surface45" clip-path="url(#clip14)">
<path style=" stroke:none;fill-rule:evenodd;fill:rgb(0%,0%,0%);fill-opacity:1;" d="M 44.9375 31.261719 C 45.246094 31.308594 45.476562 31.46875 45.632812 31.742188 C 46.132812 32.746094 46.277344 33.800781 46.066406 34.910156 C 46.019531 35.183594 45.957031 35.457031 45.875 35.722656 C 45.773438 35.828125 45.660156 35.84375 45.539062 35.773438 C 45.53125 35.722656 45.519531 35.675781 45.511719 35.628906 C 45.753906 34.695312 45.808594 33.75 45.679688 32.796875 C 45.601562 32.273438 45.378906 31.824219 45.007812 31.453125 C 44.972656 31.605469 44.898438 31.628906 44.792969 31.527344 C 44.847656 31.441406 44.894531 31.351562 44.9375 31.261719 Z M 44.9375 31.261719 "/>
</g>
<mask id="mask14">
  <g filter="url(#alpha)">
<rect x="0" y="0" width="50" height="50" style="fill:rgb(0%,0%,0%);fill-opacity:0.980392;stroke:none;"/>
  </g>
</mask>
<clipPath id="clip15">
  <rect width="50" height="50"/>
</clipPath>
<g id="surface48" clip-path="url(#clip15)">
<path style=" stroke:none;fill-rule:evenodd;fill:rgb(92.54902%,90.588235%,87.45098%);fill-opacity:1;" d="M 40.667969 32.078125 C 40.59375 32.160156 40.546875 32.253906 40.523438 32.367188 C 40.332031 32.359375 40.136719 32.34375 39.945312 32.316406 C 39.824219 32.039062 39.703125 31.769531 39.585938 31.5 C 39.910156 31.660156 40.238281 31.8125 40.570312 31.957031 C 40.613281 31.992188 40.644531 32.03125 40.667969 32.078125 Z M 40.667969 32.078125 "/>
</g>
<mask id="mask15">
  <g filter="url(#alpha)">
<rect x="0" y="0" width="50" height="50" style="fill:rgb(0%,0%,0%);fill-opacity:0.996078;stroke:none;"/>
  </g>
</mask>
<clipPath id="clip16">
  <rect width="50" height="50"/>
</clipPath>
<g id="surface51" clip-path="url(#clip16)">
<path style=" stroke:none;fill-rule:evenodd;fill:rgb(93.72549%,92.156863%,89.411765%);fill-opacity:1;" d="M 14.515625 36.203125 C 14.5 36.164062 14.46875 36.148438 14.417969 36.15625 C 14.113281 35.988281 13.792969 35.84375 13.460938 35.722656 C 13.441406 35.683594 13.410156 35.667969 13.363281 35.675781 C 12.867188 35.363281 12.476562 34.949219 12.1875 34.429688 C 11.878906 33.957031 11.609375 33.460938 11.371094 32.941406 C 11.210938 32.601562 11.097656 32.25 11.035156 31.886719 C 11.191406 32.0625 11.375 32.199219 11.589844 32.292969 C 12.558594 32.6875 13.566406 32.945312 14.609375 33.0625 C 15.40625 33.261719 16.207031 33.457031 17.011719 33.636719 C 17.855469 33.710938 18.703125 33.726562 19.554688 33.683594 C 20.117188 33.625 20.675781 33.558594 21.234375 33.492188 C 20.386719 34.914062 19.15625 35.828125 17.539062 36.226562 C 17.1875 36.292969 16.835938 36.355469 16.484375 36.421875 C 15.808594 36.496094 15.152344 36.425781 14.515625 36.203125 Z M 14.515625 36.203125 "/>
</g>
</defs>
<g id="surface1">
<use xlink:href="#surface6" mask="url(#mask0)"/>
<use xlink:href="#surface9" mask="url(#mask1)"/>
<use xlink:href="#surface12" mask="url(#mask2)"/>
<use xlink:href="#surface15" mask="url(#mask3)"/>
<use xlink:href="#surface18" mask="url(#mask4)"/>
<path style=" stroke:none;fill-rule:evenodd;fill:rgb(3.921569%,3.529412%,3.529412%);fill-opacity:1;" d="M 33.613281 18.640625 C 33.445312 18.519531 33.269531 18.40625 33.085938 18.304688 C 32.328125 17.539062 31.648438 16.707031 31.046875 15.8125 C 30.652344 15.175781 30.460938 14.488281 30.46875 13.746094 C 30.535156 13.585938 30.621094 13.441406 30.734375 13.316406 C 30.984375 13.144531 31.242188 12.96875 31.5 12.789062 C 31.539062 12.710938 31.5625 12.632812 31.574219 12.546875 C 31.597656 12.246094 31.605469 11.941406 31.597656 11.636719 C 31.328125 11.597656 31.054688 11.589844 30.78125 11.613281 C 30.457031 11.820312 30.335938 12.117188 30.421875 12.5 C 30.625 12.644531 30.839844 12.757812 31.070312 12.835938 C 31.070312 12.882812 31.070312 12.933594 31.070312 12.980469 C 30.769531 12.917969 30.480469 12.816406 30.207031 12.667969 C 30.058594 12.628906 29.921875 12.652344 29.796875 12.738281 C 29.613281 13.027344 29.492188 13.339844 29.4375 13.675781 C 29.5 14.09375 29.605469 14.5 29.75 14.898438 C 30.273438 15.835938 30.835938 16.746094 31.429688 17.632812 C 31.640625 17.941406 31.890625 18.222656 32.171875 18.472656 C 32.5625 18.757812 32.96875 18.796875 33.398438 18.59375 C 33.460938 18.617188 33.515625 18.648438 33.566406 18.691406 C 33.570312 18.886719 33.472656 19.003906 33.277344 19.050781 C 32.722656 19.148438 32.226562 19.019531 31.789062 18.667969 C 31.496094 18.359375 31.234375 18.03125 31 17.683594 C 30.429688 16.769531 29.886719 15.839844 29.367188 14.898438 C 29.027344 14.078125 29.089844 13.292969 29.558594 12.546875 C 29.722656 12.378906 29.921875 12.3125 30.160156 12.355469 C 30.230469 11.484375 30.695312 11.148438 31.550781 11.347656 C 31.527344 11.128906 31.433594 10.941406 31.261719 10.796875 C 31.0625 10.703125 30.851562 10.628906 30.636719 10.582031 C 30.503906 10.59375 30.382812 10.644531 30.277344 10.722656 C 30.242188 10.71875 30.210938 10.703125 30.183594 10.675781 C 30.171875 10.523438 30.089844 10.429688 29.941406 10.390625 C 29.855469 10.023438 29.855469 9.65625 29.941406 9.285156 C 29.976562 9.113281 30.082031 9.015625 30.253906 8.996094 C 30.804688 9.363281 31.410156 9.5625 32.078125 9.597656 C 32.339844 10.003906 32.617188 10.394531 32.917969 10.773438 C 33.050781 10.417969 33.25 10.105469 33.515625 9.835938 C 33.714844 9.730469 33.921875 9.699219 34.140625 9.742188 C 34.375 9.878906 34.605469 10.011719 34.835938 10.148438 C 35.636719 9.941406 36.214844 10.214844 36.5625 10.964844 C 36.953125 11.875 37.226562 12.816406 37.378906 13.796875 C 37.613281 14.414062 37.835938 15.039062 38.050781 15.667969 C 38.214844 16.199219 38.078125 16.640625 37.644531 16.988281 C 37.335938 17.121094 37.015625 17.207031 36.683594 17.25 C 36.703125 17.476562 36.671875 17.691406 36.589844 17.898438 C 36.386719 17.984375 36.179688 18.046875 35.964844 18.089844 C 35.304688 18.816406 34.519531 19 33.613281 18.640625 Z M 33.613281 18.640625 "/>
<path style=" stroke:none;fill-rule:evenodd;fill:rgb(83.921569%,82.745098%,80%);fill-opacity:1;" d="M 30.207031 10.054688 C 30.160156 9.984375 30.144531 9.90625 30.160156 9.8125 C 30.140625 9.640625 30.171875 9.480469 30.253906 9.332031 C 30.339844 9.371094 30.386719 9.433594 30.398438 9.523438 C 30.347656 9.707031 30.28125 9.882812 30.207031 10.054688 Z M 30.207031 10.054688 "/>
<path style=" stroke:none;fill-rule:evenodd;fill:rgb(5.490196%,5.490196%,5.490196%);fill-opacity:1;" d="M 40.1875 9.429688 C 40.28125 9.417969 40.371094 9.433594 40.449219 9.476562 C 40.566406 9.882812 40.640625 10.300781 40.667969 10.722656 C 40.585938 10.722656 40.507812 10.722656 40.425781 10.722656 C 40.339844 10.292969 40.257812 9.863281 40.1875 9.429688 Z M 40.1875 9.429688 "/>
<path style=" stroke:none;fill-rule:evenodd;fill:rgb(92.156863%,90.588235%,87.843137%);fill-opacity:1;" d="M 30.6875 9.523438 C 31.0625 9.710938 31.460938 9.816406 31.886719 9.835938 C 32.253906 10.410156 32.65625 10.960938 33.085938 11.492188 C 32.742188 11.988281 32.300781 12.371094 31.765625 12.644531 C 31.824219 12.320312 31.863281 11.992188 31.886719 11.660156 C 31.902344 11.1875 31.726562 10.804688 31.359375 10.507812 C 31.042969 10.417969 30.738281 10.304688 30.445312 10.171875 C 30.53125 9.960938 30.613281 9.742188 30.6875 9.523438 Z M 30.6875 9.523438 "/>
<path style=" stroke:none;fill-rule:evenodd;fill:rgb(92.941176%,91.372549%,88.627451%);fill-opacity:1;" d="M 33.804688 9.957031 C 34.140625 9.957031 34.429688 10.078125 34.667969 10.316406 C 34.417969 10.527344 34.257812 10.789062 34.1875 11.109375 C 33.910156 11.082031 33.648438 11.128906 33.398438 11.253906 C 33.230469 11.148438 33.09375 11.011719 32.988281 10.84375 C 33.164062 10.617188 33.332031 10.386719 33.492188 10.148438 C 33.59375 10.070312 33.699219 10.007812 33.804688 9.957031 Z M 33.804688 9.957031 "/>
<path style=" stroke:none;fill-rule:evenodd;fill:rgb(46.666667%,46.27451%,44.705882%);fill-opacity:1;" d="M 30.160156 9.8125 C 30.144531 9.90625 30.160156 9.984375 30.207031 10.054688 C 30.210938 10.09375 30.195312 10.125 30.160156 10.148438 C 30.097656 10.03125 30.097656 9.917969 30.160156 9.8125 Z M 30.160156 9.8125 "/>
<path style=" stroke:none;fill-rule:evenodd;fill:rgb(92.54902%,90.980392%,88.235294%);fill-opacity:1;" d="M 36.925781 16.820312 C 37.171875 16.511719 37.261719 16.160156 37.1875 15.761719 C 36.839844 15.246094 36.585938 14.683594 36.421875 14.082031 C 36.324219 13.101562 36.027344 12.191406 35.53125 11.347656 C 35.710938 11.335938 35.765625 11.238281 35.699219 11.058594 C 35.632812 10.945312 35.539062 10.863281 35.414062 10.820312 C 35.308594 10.863281 35.269531 10.941406 35.292969 11.058594 C 35.035156 10.953125 34.84375 11.015625 34.71875 11.253906 C 34.582031 11.222656 34.453125 11.175781 34.332031 11.109375 C 34.785156 10.15625 35.382812 10.042969 36.132812 10.773438 C 36.253906 11.023438 36.367188 11.28125 36.46875 11.539062 C 36.695312 12.296875 36.890625 13.066406 37.042969 13.84375 C 37.300781 14.574219 37.53125 15.308594 37.738281 16.050781 C 37.6875 16.53125 37.417969 16.789062 36.925781 16.820312 Z M 36.925781 16.820312 "/>
<path style=" stroke:none;fill-rule:evenodd;fill:rgb(4.705882%,4.313725%,4.313725%);fill-opacity:1;" d="M 35.53125 11.347656 C 35.453125 11.25 35.371094 11.15625 35.292969 11.058594 C 35.269531 10.941406 35.308594 10.863281 35.414062 10.820312 C 35.539062 10.863281 35.632812 10.945312 35.699219 11.058594 C 35.765625 11.238281 35.710938 11.335938 35.53125 11.347656 Z M 35.53125 11.347656 "/>
<path style=" stroke:none;fill-rule:evenodd;fill:rgb(4.705882%,4.313725%,4.313725%);fill-opacity:1;" d="M 32.125 10.867188 C 32.261719 10.882812 32.335938 10.964844 32.339844 11.109375 C 32.390625 11.28125 32.429688 11.457031 32.460938 11.636719 C 32.46875 11.722656 32.4375 11.789062 32.367188 11.828125 C 32.273438 11.511719 32.195312 11.191406 32.125 10.867188 Z M 32.125 10.867188 "/>
<path style=" stroke:none;fill-rule:evenodd;fill:rgb(75.686275%,47.058824%,38.431373%);fill-opacity:1;" d="M 35.292969 11.058594 C 35.371094 11.15625 35.453125 11.25 35.53125 11.347656 C 36.027344 12.191406 36.324219 13.101562 36.421875 14.082031 C 36.585938 14.683594 36.839844 15.246094 37.1875 15.761719 C 37.261719 16.160156 37.171875 16.511719 36.925781 16.820312 C 36.835938 16.859375 36.738281 16.875 36.636719 16.867188 C 36.617188 16.382812 36.5625 15.902344 36.46875 15.425781 C 36.222656 14.46875 35.984375 13.507812 35.75 12.546875 C 35.550781 11.992188 35.207031 11.558594 34.71875 11.253906 C 34.84375 11.015625 35.035156 10.953125 35.292969 11.058594 Z M 35.292969 11.058594 "/>
<path style=" stroke:none;fill-rule:evenodd;fill:rgb(92.54902%,90.196078%,87.45098%);fill-opacity:1;" d="M 36.058594 17.632812 C 36.046875 16.808594 35.941406 15.992188 35.75 15.1875 C 35.53125 14.40625 35.324219 13.621094 35.125 12.835938 C 35.042969 12.570312 34.90625 12.339844 34.71875 12.140625 C 34.511719 11.984375 34.304688 11.984375 34.09375 12.140625 C 33.808594 12.375 33.578125 12.65625 33.398438 12.980469 C 33.195312 13.238281 32.929688 13.390625 32.605469 13.4375 C 32.269531 13.460938 31.933594 13.46875 31.597656 13.460938 C 31.449219 13.324219 31.351562 13.359375 31.308594 13.554688 C 30.984375 13.695312 30.824219 13.953125 30.832031 14.324219 C 30.738281 14.164062 30.714844 13.988281 30.757812 13.796875 C 30.902344 13.582031 31.035156 13.367188 31.167969 13.148438 C 31.589844 12.910156 32.023438 12.6875 32.460938 12.476562 C 32.734375 12.207031 33.003906 11.9375 33.277344 11.660156 C 33.882812 11.210938 34.449219 11.265625 34.980469 11.828125 C 35.132812 12.035156 35.261719 12.261719 35.363281 12.5 C 35.636719 13.550781 35.890625 14.605469 36.132812 15.667969 C 36.234375 16.304688 36.265625 16.941406 36.226562 17.585938 C 36.179688 17.625 36.125 17.640625 36.058594 17.632812 Z M 36.058594 17.632812 "/>
<use xlink:href="#surface21" mask="url(#mask5)"/>
<path style=" stroke:none;fill-rule:evenodd;fill:rgb(76.862745%,47.058824%,38.431373%);fill-opacity:1;" d="M 36.058594 17.632812 C 35.703125 17.726562 35.414062 17.925781 35.195312 18.234375 C 34.871094 18.433594 34.519531 18.496094 34.140625 18.425781 C 33.894531 18.328125 33.65625 18.214844 33.421875 18.089844 C 32.535156 17.191406 31.761719 16.207031 31.09375 15.140625 C 30.980469 14.875 30.894531 14.601562 30.832031 14.324219 C 30.824219 13.953125 30.984375 13.695312 31.308594 13.554688 C 31.335938 13.6875 31.417969 13.726562 31.550781 13.675781 C 31.59375 13.609375 31.609375 13.539062 31.597656 13.460938 C 31.933594 13.46875 32.269531 13.460938 32.605469 13.4375 C 32.929688 13.390625 33.195312 13.238281 33.398438 12.980469 C 33.578125 12.65625 33.808594 12.375 34.09375 12.140625 C 34.304688 11.984375 34.511719 11.984375 34.71875 12.140625 C 34.90625 12.339844 35.042969 12.570312 35.125 12.835938 C 35.324219 13.621094 35.53125 14.40625 35.75 15.1875 C 35.941406 15.992188 36.046875 16.808594 36.058594 17.632812 Z M 36.058594 17.632812 "/>
<path style=" stroke:none;fill-rule:evenodd;fill:rgb(76.470588%,47.058824%,38.431373%);fill-opacity:1;" d="M 23.296875 16.148438 C 23.132812 16.171875 22.972656 16.210938 22.816406 16.265625 C 22.777344 16.316406 22.761719 16.371094 22.769531 16.433594 C 22.964844 16.417969 23.15625 16.386719 23.34375 16.339844 C 23.34375 16.464844 23.34375 16.59375 23.34375 16.722656 C 23.265625 16.785156 23.179688 16.832031 23.082031 16.867188 C 23.058594 16.929688 23.050781 16.992188 23.054688 17.058594 C 23.171875 17.0625 23.285156 17.046875 23.390625 17.011719 C 23.441406 17.53125 23.503906 18.042969 23.585938 18.546875 C 23.636719 19.023438 23.644531 19.503906 23.609375 19.984375 C 22.542969 18.605469 21.535156 17.179688 20.585938 15.714844 C 20.558594 15.667969 20.574219 15.636719 20.632812 15.617188 C 20.71875 15.582031 20.804688 15.566406 20.898438 15.570312 C 20.914062 15.46875 20.882812 15.386719 20.800781 15.332031 C 20.648438 15.40625 20.488281 15.445312 20.320312 15.449219 C 20.21875 15.308594 20.105469 15.171875 19.984375 15.042969 C 20.128906 15.003906 20.269531 14.980469 20.417969 14.972656 C 20.464844 14.921875 20.472656 14.863281 20.441406 14.804688 C 20.277344 14.746094 20.109375 14.746094 19.9375 14.804688 C 19.863281 14.800781 19.808594 14.769531 19.769531 14.707031 C 19.644531 14.472656 19.53125 14.234375 19.433594 13.988281 C 19.324219 13.714844 19.300781 13.441406 19.363281 13.171875 C 19.5625 13.042969 19.769531 12.921875 19.984375 12.8125 C 20.527344 12.664062 21.078125 12.578125 21.640625 12.546875 C 21.878906 12.523438 22.09375 12.578125 22.289062 12.714844 C 22.566406 13.007812 22.75 13.351562 22.839844 13.746094 C 23.042969 14.539062 23.195312 15.335938 23.296875 16.148438 Z M 23.296875 16.148438 "/>
<path style=" stroke:none;fill-rule:evenodd;fill:rgb(92.156863%,90.196078%,87.45098%);fill-opacity:1;" d="M 30.734375 13.316406 C 30.382812 13.269531 30.121094 13.398438 29.941406 13.699219 C 29.90625 13.976562 29.921875 14.246094 29.992188 14.515625 C 30.097656 14.890625 30.257812 15.242188 30.46875 15.570312 C 30.898438 16.28125 31.3125 17.003906 31.71875 17.730469 C 31.800781 17.851562 31.886719 17.964844 31.980469 18.066406 C 31.996094 18.113281 32.03125 18.144531 32.078125 18.164062 C 32.136719 18.242188 32.21875 18.296875 32.316406 18.332031 C 32.574219 18.363281 32.832031 18.355469 33.085938 18.304688 C 33.269531 18.40625 33.445312 18.519531 33.613281 18.640625 C 33.582031 18.640625 33.566406 18.65625 33.566406 18.691406 C 33.515625 18.648438 33.460938 18.617188 33.398438 18.59375 C 32.96875 18.796875 32.5625 18.757812 32.171875 18.472656 C 31.890625 18.222656 31.640625 17.941406 31.429688 17.632812 C 30.835938 16.746094 30.273438 15.835938 29.75 14.898438 C 29.605469 14.5 29.5 14.09375 29.4375 13.675781 C 29.492188 13.339844 29.613281 13.027344 29.796875 12.738281 C 29.921875 12.652344 30.058594 12.628906 30.207031 12.667969 C 30.480469 12.816406 30.769531 12.917969 31.070312 12.980469 C 31.070312 12.933594 31.070312 12.882812 31.070312 12.835938 C 30.839844 12.757812 30.625 12.644531 30.421875 12.5 C 30.335938 12.117188 30.457031 11.820312 30.78125 11.613281 C 31.054688 11.589844 31.328125 11.597656 31.597656 11.636719 C 31.605469 11.941406 31.597656 12.246094 31.574219 12.546875 C 31.5625 12.632812 31.539062 12.710938 31.5 12.789062 C 31.242188 12.96875 30.984375 13.144531 30.734375 13.316406 Z M 30.734375 13.316406 "/>
<path style=" stroke:none;fill-rule:evenodd;fill:rgb(5.098039%,4.705882%,4.705882%);fill-opacity:1;" d="M 14.082031 22.527344 C 13.578125 22.765625 13.066406 22.972656 12.546875 23.152344 C 11.859375 23.339844 11.167969 23.339844 10.484375 23.152344 C 10.085938 23.027344 9.703125 22.859375 9.332031 22.648438 C 9.054688 22.410156 8.78125 22.160156 8.515625 21.90625 C 7.964844 21.308594 7.554688 20.621094 7.292969 19.839844 C 7.1875 19.359375 7.074219 18.878906 6.957031 18.402344 C 6.917969 17.777344 6.933594 17.152344 7.003906 16.53125 C 7.054688 16.457031 7.09375 16.375 7.125 16.289062 C 7.171875 16.3125 7.210938 16.34375 7.246094 16.386719 C 7.582031 15.804688 8.085938 15.566406 8.757812 15.667969 C 8.78125 15.21875 8.957031 14.84375 9.285156 14.539062 C 9.40625 14.472656 9.535156 14.457031 9.667969 14.492188 C 9.789062 14.542969 9.902344 14.605469 10.003906 14.683594 C 10.101562 14.871094 10.207031 15.054688 10.316406 15.234375 C 10.617188 14.691406 11.074219 14.414062 11.683594 14.394531 C 11.773438 14.410156 11.84375 14.449219 11.898438 14.515625 C 11.976562 14.007812 12.222656 13.617188 12.644531 13.339844 C 12.757812 13.308594 12.867188 13.308594 12.980469 13.339844 C 13.933594 13.8125 14.238281 14.558594 13.890625 15.570312 C 14.394531 15.566406 14.800781 15.757812 15.113281 16.148438 C 15.160156 16.273438 15.199219 16.402344 15.234375 16.53125 C 15.867188 16.019531 16.488281 15.5 17.105469 14.972656 C 17.460938 14.726562 17.742188 14.800781 17.945312 15.1875 C 18.003906 15.449219 17.953125 15.6875 17.800781 15.90625 C 17.328125 16.367188 16.839844 16.804688 16.339844 17.226562 C 16.390625 17.324219 16.425781 17.429688 16.433594 17.539062 C 16.6875 17.535156 16.925781 17.59375 17.15625 17.707031 C 17.296875 17.851562 17.328125 18.019531 17.25 18.210938 C 17.433594 18.234375 17.585938 18.3125 17.707031 18.449219 C 17.742188 18.578125 17.808594 18.691406 17.898438 18.785156 C 17.929688 18.851562 17.929688 18.914062 17.898438 18.976562 C 17.507812 19.667969 17.019531 20.285156 16.433594 20.824219 C 15.71875 21.488281 14.933594 22.054688 14.082031 22.527344 Z M 14.082031 22.527344 "/>
<path style=" stroke:none;fill-rule:evenodd;fill:rgb(75.686275%,46.666667%,38.431373%);fill-opacity:1;" d="M 30.734375 13.316406 C 30.621094 13.441406 30.535156 13.585938 30.46875 13.746094 C 30.460938 14.488281 30.652344 15.175781 31.046875 15.8125 C 31.648438 16.707031 32.328125 17.539062 33.085938 18.304688 C 32.832031 18.355469 32.574219 18.363281 32.316406 18.332031 C 32.21875 18.296875 32.136719 18.242188 32.078125 18.164062 C 32.21875 18.203125 32.363281 18.210938 32.507812 18.1875 C 32.558594 18.136719 32.566406 18.078125 32.535156 18.019531 C 32.371094 17.949219 32.203125 17.925781 32.03125 17.945312 C 31.992188 17.976562 31.976562 18.019531 31.980469 18.066406 C 31.886719 17.964844 31.800781 17.851562 31.71875 17.730469 C 31.3125 17.003906 30.898438 16.28125 30.46875 15.570312 C 30.257812 15.242188 30.097656 14.890625 29.992188 14.515625 C 29.921875 14.246094 29.90625 13.976562 29.941406 13.699219 C 30.121094 13.398438 30.382812 13.269531 30.734375 13.316406 Z M 30.734375 13.316406 "/>
<use xlink:href="#surface24" mask="url(#mask6)"/>
<path style=" stroke:none;fill-rule:evenodd;fill:rgb(9.803922%,7.45098%,6.666667%);fill-opacity:1;" d="M 31.597656 13.460938 C 31.609375 13.539062 31.59375 13.609375 31.550781 13.675781 C 31.417969 13.726562 31.335938 13.6875 31.308594 13.554688 C 31.351562 13.359375 31.449219 13.324219 31.597656 13.460938 Z M 31.597656 13.460938 "/>
<path style=" stroke:none;fill-rule:evenodd;fill:rgb(93.333333%,92.156863%,89.411765%);fill-opacity:1;" d="M 12.738281 13.605469 C 13.191406 13.742188 13.519531 14.03125 13.722656 14.46875 C 13.765625 14.609375 13.789062 14.753906 13.796875 14.898438 C 13.738281 15.1875 13.699219 15.476562 13.675781 15.761719 C 13.804688 15.863281 13.949219 15.878906 14.109375 15.8125 C 14.613281 15.835938 14.941406 16.082031 15.089844 16.554688 C 15.082031 16.59375 15.074219 16.632812 15.066406 16.675781 C 14.660156 17.050781 14.25 17.425781 13.84375 17.800781 C 13.335938 17.621094 12.894531 17.726562 12.523438 18.113281 C 12.472656 18.1875 12.433594 18.269531 12.402344 18.355469 C 12.421875 18.386719 12.4375 18.417969 12.453125 18.449219 C 12.699219 18.0625 13.050781 17.894531 13.507812 17.945312 C 13.707031 18 13.820312 18.128906 13.84375 18.332031 C 13.972656 18.308594 14.101562 18.269531 14.226562 18.210938 C 14.644531 18.269531 14.8125 18.507812 14.730469 18.929688 C 14.796875 18.992188 14.859375 18.992188 14.921875 18.929688 C 14.929688 18.714844 14.960938 18.507812 15.019531 18.304688 C 15.402344 17.996094 15.777344 17.675781 16.148438 17.347656 C 16.195312 17.503906 16.210938 17.664062 16.195312 17.828125 C 16.453125 17.761719 16.710938 17.769531 16.960938 17.851562 C 17.03125 17.90625 17.0625 17.976562 17.058594 18.066406 C 17.003906 18.207031 16.980469 18.351562 16.988281 18.5 C 17.148438 18.507812 17.316406 18.515625 17.492188 18.523438 C 17.53125 18.585938 17.546875 18.660156 17.539062 18.738281 C 16.171875 19.21875 14.765625 19.386719 13.316406 19.242188 C 12.007812 19.144531 10.746094 18.855469 9.523438 18.378906 C 8.730469 17.964844 8.019531 17.445312 7.390625 16.820312 C 7.304688 16.355469 7.488281 16.042969 7.941406 15.882812 C 8.113281 15.828125 8.289062 15.789062 8.46875 15.761719 C 8.664062 15.828125 8.839844 15.914062 8.996094 16.027344 C 9.035156 15.765625 9.058594 15.503906 9.070312 15.234375 C 9.15625 15.070312 9.257812 14.917969 9.382812 14.777344 C 9.707031 14.722656 9.90625 14.855469 9.980469 15.1875 C 9.953125 15.394531 10.042969 15.496094 10.246094 15.5 C 10.113281 15.714844 10.074219 15.945312 10.125 16.195312 C 10.191406 16.246094 10.261719 16.253906 10.339844 16.21875 C 10.382812 15.679688 10.605469 15.230469 11.011719 14.875 C 11.191406 14.714844 11.398438 14.648438 11.636719 14.683594 C 11.734375 14.796875 11.847656 14.894531 11.972656 14.972656 C 12.042969 15.007812 12.105469 15 12.164062 14.945312 C 12.125 14.394531 12.316406 13.945312 12.738281 13.605469 Z M 12.738281 13.605469 "/>
<path style=" stroke:none;fill-rule:evenodd;fill:rgb(92.156863%,89.803922%,87.058824%);fill-opacity:1;" d="M 43.976562 14.804688 C 43.730469 14.730469 43.472656 14.691406 43.210938 14.683594 C 43.042969 14.234375 42.722656 14.003906 42.25 13.988281 C 42.550781 13.546875 42.863281 13.546875 43.1875 13.988281 C 43.226562 14.207031 43.285156 14.425781 43.355469 14.636719 C 43.503906 14.679688 43.613281 14.632812 43.691406 14.492188 C 43.980469 14.425781 44.078125 14.527344 43.976562 14.804688 Z M 43.976562 14.804688 "/>
<path style=" stroke:none;fill-rule:evenodd;fill:rgb(5.882353%,3.529412%,2.745098%);fill-opacity:1;" d="M 19.746094 14.035156 C 19.890625 14.019531 19.953125 14.082031 19.9375 14.226562 C 19.875 14.226562 19.808594 14.226562 19.746094 14.226562 C 19.746094 14.164062 19.746094 14.097656 19.746094 14.035156 Z M 19.746094 14.035156 "/>
<path style=" stroke:none;fill-rule:evenodd;fill:rgb(76.470588%,47.058824%,38.431373%);fill-opacity:1;" d="M 42.25 13.988281 C 42.722656 14.003906 43.042969 14.234375 43.210938 14.683594 C 43.472656 14.691406 43.730469 14.730469 43.976562 14.804688 C 43.945312 15.023438 43.917969 15.25 43.90625 15.476562 C 43.273438 15.289062 42.945312 15.539062 42.921875 16.21875 C 42.917969 16.371094 42.949219 16.515625 43.019531 16.652344 C 42.355469 16.914062 42.082031 17.402344 42.203125 18.113281 C 41.953125 18.15625 41.714844 18.15625 41.484375 18.113281 C 41.316406 17.996094 41.238281 17.835938 41.242188 17.632812 C 41.175781 17.625 41.113281 17.636719 41.050781 17.660156 C 40.921875 17.851562 40.761719 18.011719 40.570312 18.136719 C 40.269531 18.203125 40.042969 18.097656 39.898438 17.828125 C 39.886719 17.730469 39.902344 17.644531 39.945312 17.5625 C 39.898438 17.539062 39.851562 17.515625 39.804688 17.492188 C 39.765625 17.511719 39.75 17.542969 39.753906 17.585938 C 39.699219 17.484375 39.726562 17.386719 39.828125 17.296875 C 39.859375 17.234375 39.859375 17.171875 39.828125 17.105469 C 39.625 17.066406 39.457031 16.96875 39.324219 16.820312 C 39.285156 16.414062 39.429688 16.09375 39.753906 15.859375 C 40.011719 15.78125 40.273438 15.71875 40.546875 15.667969 C 40.550781 15.445312 40.492188 15.238281 40.378906 15.042969 C 40.605469 14.445312 41.003906 14.25 41.578125 14.46875 C 41.648438 14.511719 41.710938 14.570312 41.769531 14.636719 C 41.886719 14.664062 41.972656 14.625 42.035156 14.515625 C 42.066406 14.316406 42.136719 14.140625 42.25 13.988281 Z M 42.25 13.988281 "/>
<path style=" stroke:none;fill-rule:evenodd;fill:rgb(87.843137%,85.490196%,82.745098%);fill-opacity:1;" d="M 41.578125 14.46875 C 41.003906 14.25 40.605469 14.445312 40.378906 15.042969 C 40.378906 14.476562 40.667969 14.210938 41.242188 14.25 C 41.375 14.300781 41.484375 14.371094 41.578125 14.46875 Z M 41.578125 14.46875 "/>
<path style=" stroke:none;fill-rule:evenodd;fill:rgb(87.058824%,84.313725%,81.176471%);fill-opacity:1;" d="M 45.800781 14.804688 C 45.566406 14.53125 45.273438 14.371094 44.914062 14.324219 C 44.808594 14.332031 44.703125 14.347656 44.601562 14.371094 C 45.042969 14.152344 45.449219 14.214844 45.824219 14.5625 C 45.84375 14.644531 45.835938 14.726562 45.800781 14.804688 Z M 45.800781 14.804688 "/>
<use xlink:href="#surface27" mask="url(#mask7)"/>
<path style=" stroke:none;fill-rule:evenodd;fill:rgb(7.058824%,4.313725%,3.529412%);fill-opacity:1;" d="M 31.644531 14.417969 C 31.835938 14.375 31.949219 14.445312 31.980469 14.636719 C 31.8125 14.867188 31.683594 14.835938 31.597656 14.539062 C 31.609375 14.496094 31.625 14.457031 31.644531 14.417969 Z M 31.644531 14.417969 "/>
<path style=" stroke:none;fill-rule:evenodd;fill:rgb(85.490196%,82.745098%,80%);fill-opacity:1;" d="M 46.90625 14.46875 C 46.90625 14.484375 46.90625 14.5 46.90625 14.515625 C 46.632812 14.5 46.390625 14.578125 46.183594 14.753906 C 46.203125 14.601562 46.28125 14.5 46.425781 14.445312 C 46.589844 14.40625 46.75 14.414062 46.90625 14.46875 Z M 46.90625 14.46875 "/>
<path style=" stroke:none;fill-rule:evenodd;fill:rgb(92.941176%,91.372549%,88.627451%);fill-opacity:1;" d="M 17.347656 15.042969 C 17.753906 15.09375 17.859375 15.300781 17.660156 15.667969 C 17.066406 16.289062 16.417969 16.84375 15.714844 17.324219 C 15.402344 17.609375 15.082031 17.890625 14.753906 18.164062 C 14.53125 17.976562 14.285156 17.929688 14.011719 18.019531 C 13.972656 17.976562 13.929688 17.9375 13.890625 17.898438 C 15.066406 16.972656 16.21875 16.019531 17.347656 15.042969 Z M 17.347656 15.042969 "/>
<use xlink:href="#surface30" mask="url(#mask8)"/>
<path style=" stroke:none;fill-rule:evenodd;fill:rgb(7.45098%,7.45098%,7.45098%);fill-opacity:1;" d="M 12.308594 15.570312 C 12.4375 15.5625 12.566406 15.570312 12.691406 15.59375 C 12.816406 15.667969 12.855469 15.769531 12.8125 15.90625 C 12.761719 15.945312 12.707031 15.964844 12.644531 15.953125 C 12.644531 15.753906 12.550781 15.683594 12.355469 15.738281 C 12.148438 15.835938 12.035156 15.996094 12.019531 16.21875 C 11.902344 16.207031 11.789062 16.167969 11.683594 16.097656 C 11.539062 16.199219 11.394531 16.292969 11.253906 16.386719 C 11.339844 16.011719 11.578125 15.835938 11.972656 15.859375 C 12.058594 15.726562 12.171875 15.632812 12.308594 15.570312 Z M 12.308594 15.570312 "/>
<path style=" stroke:none;fill-rule:evenodd;fill:rgb(87.45098%,84.313725%,81.568627%);fill-opacity:1;" d="M 39.753906 15.859375 C 39.429688 16.09375 39.285156 16.414062 39.324219 16.820312 C 39.160156 16.71875 39.105469 16.574219 39.15625 16.386719 C 39.277344 16.113281 39.476562 15.9375 39.753906 15.859375 Z M 39.753906 15.859375 "/>
<path style=" stroke:none;fill-rule:evenodd;fill:rgb(5.882353%,3.529412%,2.745098%);fill-opacity:1;" d="M 23.296875 16.148438 C 23.410156 16.179688 23.425781 16.246094 23.34375 16.339844 C 23.15625 16.386719 22.964844 16.417969 22.769531 16.433594 C 22.761719 16.371094 22.777344 16.316406 22.816406 16.265625 C 22.972656 16.210938 23.132812 16.171875 23.296875 16.148438 Z M 23.296875 16.148438 "/>
<path style=" stroke:none;fill-rule:evenodd;fill:rgb(5.882353%,3.529412%,2.745098%);fill-opacity:1;" d="M 32.507812 16.386719 C 32.574219 16.378906 32.640625 16.386719 32.703125 16.410156 C 32.820312 16.53125 32.941406 16.652344 33.0625 16.769531 C 33.105469 16.902344 33.058594 16.964844 32.917969 16.960938 C 32.601562 16.886719 32.464844 16.695312 32.507812 16.386719 Z M 32.507812 16.386719 "/>
<path style=" stroke:none;fill-rule:evenodd;fill:rgb(6.27451%,3.529412%,2.745098%);fill-opacity:1;" d="M 35.675781 16.53125 C 35.875 16.53125 35.945312 16.625 35.890625 16.820312 C 35.824219 16.914062 35.746094 16.933594 35.652344 16.867188 C 35.617188 16.75 35.625 16.636719 35.675781 16.53125 Z M 35.675781 16.53125 "/>
<path style=" stroke:none;fill-rule:evenodd;fill:rgb(5.882353%,5.882353%,5.490196%);fill-opacity:1;" d="M 9.621094 16.578125 C 9.796875 16.5625 9.957031 16.601562 10.101562 16.699219 C 10.238281 16.820312 10.222656 16.90625 10.054688 16.960938 C 9.953125 16.910156 9.847656 16.859375 9.742188 16.820312 C 9.613281 16.875 9.523438 16.972656 9.476562 17.105469 C 9.390625 16.890625 9.4375 16.714844 9.621094 16.578125 Z M 9.621094 16.578125 "/>
<path style=" stroke:none;fill-rule:evenodd;fill:rgb(92.54902%,88.627451%,85.490196%);fill-opacity:1;" d="M 23.585938 18.546875 C 23.503906 18.042969 23.441406 17.53125 23.390625 17.011719 C 23.449219 16.976562 23.515625 16.960938 23.585938 16.960938 C 23.585938 17.492188 23.585938 18.019531 23.585938 18.546875 Z M 23.585938 18.546875 "/>
<path style=" stroke:none;fill-rule:evenodd;fill:rgb(79.607843%,78.431373%,76.078431%);fill-opacity:1;" d="M 48.007812 17.058594 C 48.007812 17.105469 48.007812 17.15625 48.007812 17.203125 C 47.828125 17.136719 47.828125 17.085938 48.007812 17.058594 Z M 48.007812 17.058594 "/>
<path style=" stroke:none;fill-rule:evenodd;fill:rgb(93.72549%,92.156863%,89.411765%);fill-opacity:1;" d="M 14.996094 21.519531 C 15.109375 21.273438 15.253906 21.039062 15.425781 20.824219 C 13.664062 20.90625 11.953125 20.652344 10.292969 20.058594 C 9.785156 19.851562 9.304688 19.59375 8.851562 19.289062 C 8.699219 19.191406 8.570312 19.070312 8.46875 18.929688 C 8.46875 18.855469 8.4375 18.800781 8.375 18.761719 C 8.171875 18.664062 7.980469 18.5625 7.796875 18.449219 C 7.664062 18.328125 7.519531 18.214844 7.367188 18.113281 C 7.3125 17.78125 7.304688 17.445312 7.339844 17.105469 C 7.410156 17.222656 7.5 17.328125 7.605469 17.417969 C 7.988281 17.707031 8.375 17.996094 8.757812 18.28125 C 10.015625 18.964844 11.359375 19.363281 12.789062 19.480469 C 13.648438 19.582031 14.511719 19.613281 15.378906 19.578125 C 16.023438 19.480469 16.664062 19.367188 17.296875 19.242188 C 16.632812 20.109375 15.863281 20.867188 14.996094 21.519531 Z M 14.996094 21.519531 "/>
<path style=" stroke:none;fill-rule:evenodd;fill:rgb(7.058824%,4.313725%,3.137255%);fill-opacity:1;" d="M 35.484375 17.394531 C 35.566406 17.394531 35.644531 17.394531 35.722656 17.394531 C 35.773438 17.640625 35.683594 17.722656 35.460938 17.632812 C 35.429688 17.550781 35.4375 17.46875 35.484375 17.394531 Z M 35.484375 17.394531 "/>
<path style=" stroke:none;fill-rule:evenodd;fill:rgb(89.803922%,87.843137%,85.098039%);fill-opacity:1;" d="M 39.898438 17.828125 C 39.816406 17.769531 39.765625 17.691406 39.753906 17.585938 C 39.75 17.542969 39.765625 17.511719 39.804688 17.492188 C 39.851562 17.515625 39.898438 17.539062 39.945312 17.5625 C 39.902344 17.644531 39.886719 17.730469 39.898438 17.828125 Z M 39.898438 17.828125 "/>
<path style=" stroke:none;fill-rule:evenodd;fill:rgb(90.980392%,89.019608%,86.27451%);fill-opacity:1;" d="M 47.578125 17.394531 C 48.109375 17.582031 48.261719 17.933594 48.03125 18.449219 C 47.929688 18.546875 47.808594 18.609375 47.671875 18.640625 C 47.574219 18.648438 47.480469 18.640625 47.386719 18.617188 C 47.875 18.277344 47.941406 17.867188 47.578125 17.394531 Z M 47.578125 17.394531 "/>
<path style=" stroke:none;fill-rule:evenodd;fill:rgb(9.019608%,9.019608%,8.627451%);fill-opacity:1;" d="M 11.445312 17.585938 C 11.628906 17.550781 11.773438 17.609375 11.875 17.753906 C 11.851562 17.808594 11.8125 17.851562 11.757812 17.875 C 11.589844 17.738281 11.4375 17.753906 11.300781 17.921875 C 11.261719 17.90625 11.230469 17.882812 11.203125 17.851562 C 11.261719 17.738281 11.339844 17.648438 11.445312 17.585938 Z M 11.445312 17.585938 "/>
<path style=" stroke:none;fill-rule:evenodd;fill:rgb(4.705882%,2.352941%,1.960784%);fill-opacity:1;" d="M 32.078125 18.164062 C 32.03125 18.144531 31.996094 18.113281 31.980469 18.066406 C 31.976562 18.019531 31.992188 17.976562 32.03125 17.945312 C 32.203125 17.925781 32.371094 17.949219 32.535156 18.019531 C 32.566406 18.078125 32.558594 18.136719 32.507812 18.1875 C 32.363281 18.210938 32.21875 18.203125 32.078125 18.164062 Z M 32.078125 18.164062 "/>
<path style=" stroke:none;fill-rule:evenodd;fill:rgb(93.333333%,91.764706%,89.019608%);fill-opacity:1;" d="M 41.050781 18.019531 C 41.183594 18.144531 41.3125 18.28125 41.433594 18.425781 C 41.507812 18.472656 41.589844 18.5 41.675781 18.5 C 41.691406 19.1875 41.746094 19.878906 41.84375 20.5625 C 41.871094 20.585938 41.902344 20.601562 41.9375 20.609375 C 42.402344 20.152344 42.828125 19.65625 43.210938 19.121094 C 43.367188 19.097656 43.527344 19.097656 43.691406 19.121094 C 43.699219 19.714844 43.953125 20.164062 44.457031 20.464844 C 44.433594 20.523438 44.398438 20.582031 44.363281 20.632812 C 43.980469 20.679688 43.59375 20.699219 43.210938 20.679688 C 43.375 20.46875 43.558594 20.265625 43.761719 20.082031 C 43.796875 20.027344 43.789062 19.980469 43.738281 19.9375 C 43.335938 20.179688 43.0625 20.515625 42.921875 20.945312 C 43.402344 20.933594 43.882812 20.917969 44.363281 20.898438 C 44.355469 20.949219 44.363281 20.996094 44.386719 21.042969 C 44.492188 21.164062 44.613281 21.265625 44.746094 21.351562 C 44.679688 21.429688 44.648438 21.515625 44.648438 21.617188 C 44.410156 21.609375 44.167969 21.617188 43.929688 21.640625 C 43.367188 21.859375 42.824219 22.117188 42.296875 22.410156 C 41.808594 22.710938 41.472656 23.136719 41.289062 23.679688 C 40.40625 23.667969 39.734375 23.285156 39.277344 22.527344 C 39.820312 22.183594 40.195312 21.703125 40.402344 21.089844 C 40.714844 20.214844 40.796875 19.316406 40.644531 18.402344 C 40.835938 18.332031 40.96875 18.203125 41.050781 18.019531 Z M 41.050781 18.019531 "/>
<path style=" stroke:none;fill-rule:evenodd;fill:rgb(93.333333%,91.372549%,88.627451%);fill-opacity:1;" d="M 41.484375 18.113281 C 41.714844 18.15625 41.953125 18.15625 42.203125 18.113281 C 42.03125 18.207031 41.839844 18.238281 41.625 18.210938 C 41.578125 18.179688 41.53125 18.144531 41.484375 18.113281 Z M 41.484375 18.113281 "/>
<path style=" stroke:none;fill-rule:evenodd;fill:rgb(76.470588%,47.058824%,38.431373%);fill-opacity:1;" d="M 7.367188 18.113281 C 7.519531 18.214844 7.664062 18.328125 7.796875 18.449219 C 7.777344 18.488281 7.761719 18.527344 7.75 18.570312 C 7.917969 18.746094 8.121094 18.882812 8.347656 18.976562 C 8.394531 18.964844 8.433594 18.949219 8.46875 18.929688 C 8.570312 19.070312 8.699219 19.191406 8.851562 19.289062 C 9.304688 19.59375 9.785156 19.851562 10.292969 20.058594 C 11.953125 20.652344 13.664062 20.90625 15.425781 20.824219 C 15.253906 21.039062 15.109375 21.273438 14.996094 21.519531 C 14.035156 22.269531 12.945312 22.726562 11.730469 22.890625 C 10.589844 22.945312 9.640625 22.554688 8.878906 21.714844 C 7.902344 20.71875 7.398438 19.519531 7.367188 18.113281 Z M 7.367188 18.113281 "/>
<path style=" stroke:none;fill-rule:evenodd;fill:rgb(60.392157%,59.607843%,57.647059%);fill-opacity:1;" d="M 42.203125 18.113281 C 42.242188 18.171875 42.273438 18.234375 42.296875 18.304688 C 42.28125 18.304688 42.265625 18.304688 42.25 18.304688 C 42.039062 18.277344 41.828125 18.246094 41.625 18.210938 C 41.839844 18.238281 42.03125 18.207031 42.203125 18.113281 Z M 42.203125 18.113281 "/>
<path style=" stroke:none;fill-rule:evenodd;fill:rgb(92.156863%,90.588235%,87.843137%);fill-opacity:1;" d="M 42.25 18.304688 C 42.265625 18.304688 42.28125 18.304688 42.296875 18.304688 C 42.359375 18.378906 42.40625 18.457031 42.441406 18.546875 C 42.460938 18.636719 42.507812 18.707031 42.585938 18.761719 C 42.699219 18.867188 42.824219 18.9375 42.96875 18.976562 C 42.667969 19.375 42.347656 19.761719 42.011719 20.128906 C 41.921875 19.703125 41.859375 19.269531 41.820312 18.832031 C 41.820312 18.738281 41.820312 18.640625 41.820312 18.546875 C 41.941406 18.5625 42.054688 18.542969 42.15625 18.5 C 42.230469 18.460938 42.261719 18.394531 42.25 18.304688 Z M 42.25 18.304688 "/>
<path style=" stroke:none;fill-rule:evenodd;fill:rgb(5.882353%,4.705882%,4.313725%);fill-opacity:1;" d="M 7.796875 18.449219 C 7.980469 18.5625 8.171875 18.664062 8.375 18.761719 C 8.4375 18.800781 8.46875 18.855469 8.46875 18.929688 C 8.433594 18.949219 8.394531 18.964844 8.347656 18.976562 C 8.121094 18.882812 7.917969 18.746094 7.75 18.570312 C 7.761719 18.527344 7.777344 18.488281 7.796875 18.449219 Z M 7.796875 18.449219 "/>
<path style=" stroke:none;fill-rule:evenodd;fill:rgb(34.117647%,33.72549%,32.54902%);fill-opacity:1;" d="M 42.15625 18.5 C 42.054688 18.542969 41.941406 18.5625 41.820312 18.546875 C 41.820312 18.640625 41.820312 18.738281 41.820312 18.832031 C 41.773438 18.734375 41.757812 18.621094 41.769531 18.5 C 41.898438 18.5 42.027344 18.5 42.15625 18.5 Z M 42.15625 18.5 "/>
<path style=" stroke:none;fill-rule:evenodd;fill:rgb(11.372549%,11.372549%,10.980392%);fill-opacity:1;" d="M 16.148438 18.59375 C 16.261719 18.585938 16.375 18.601562 16.484375 18.640625 C 16.535156 18.683594 16.542969 18.730469 16.507812 18.785156 C 16.378906 18.792969 16.242188 18.800781 16.097656 18.808594 C 15.996094 18.90625 15.953125 18.882812 15.980469 18.738281 C 16.035156 18.683594 16.089844 18.636719 16.148438 18.59375 Z M 16.148438 18.59375 "/>
<path style=" stroke:none;fill-rule:evenodd;fill:rgb(71.764706%,70.588235%,68.627451%);fill-opacity:1;" d="M 48.441406 18.546875 C 48.441406 18.59375 48.441406 18.640625 48.441406 18.691406 C 48.320312 18.652344 48.320312 18.605469 48.441406 18.546875 Z M 48.441406 18.546875 "/>
<path style=" stroke:none;fill-rule:evenodd;fill:rgb(72.941176%,47.45098%,39.607843%);fill-opacity:1;" d="M 42.441406 18.546875 C 42.609375 18.675781 42.785156 18.792969 42.96875 18.90625 C 43.03125 18.9375 43.03125 18.964844 42.96875 18.976562 C 42.824219 18.9375 42.699219 18.867188 42.585938 18.761719 C 42.507812 18.707031 42.460938 18.636719 42.441406 18.546875 Z M 42.441406 18.546875 "/>
<path style=" stroke:none;fill-rule:evenodd;fill:rgb(92.54902%,90.588235%,87.843137%);fill-opacity:1;" d="M 46.90625 18.882812 C 47.09375 19.519531 46.847656 19.871094 46.160156 19.9375 C 45.953125 19.941406 45.816406 19.847656 45.753906 19.648438 C 45.679688 19.605469 45.597656 19.589844 45.511719 19.601562 C 45.570312 19.429688 45.621094 19.253906 45.65625 19.074219 C 45.890625 19.160156 46.128906 19.183594 46.378906 19.144531 C 46.5625 19.0625 46.738281 18.976562 46.90625 18.882812 Z M 46.90625 18.882812 "/>
<path style=" stroke:none;fill-rule:evenodd;fill:rgb(91.764706%,89.411765%,86.27451%);fill-opacity:1;" d="M 48.105469 19.746094 C 48.113281 19.570312 48.105469 19.394531 48.082031 19.21875 C 48.046875 19.117188 47.992188 19.039062 47.914062 18.976562 C 48.007812 18.851562 48.085938 18.859375 48.152344 19 C 48.414062 18.992188 48.519531 19.113281 48.464844 19.363281 C 48.332031 19.484375 48.214844 19.613281 48.105469 19.746094 Z M 48.105469 19.746094 "/>
<path style=" stroke:none;fill-rule:evenodd;fill:rgb(76.862745%,47.058824%,38.823529%);fill-opacity:1;" d="M 47.914062 18.976562 C 47.992188 19.039062 48.046875 19.117188 48.082031 19.21875 C 48.105469 19.394531 48.113281 19.570312 48.105469 19.746094 C 48.011719 19.933594 47.867188 20.078125 47.671875 20.175781 C 47.839844 20.386719 47.90625 20.628906 47.863281 20.898438 C 47.8125 20.949219 47.78125 21.015625 47.769531 21.089844 C 47.59375 21.25 47.386719 21.328125 47.144531 21.328125 C 47.195312 21.773438 47.003906 21.996094 46.570312 22 C 46.421875 22.007812 46.285156 21.976562 46.160156 21.90625 C 45.824219 22.269531 45.472656 22.285156 45.105469 21.953125 C 45.058594 21.789062 45.019531 21.628906 44.984375 21.472656 C 45.015625 21.417969 45.054688 21.371094 45.105469 21.328125 C 45.136719 21.28125 45.136719 21.234375 45.105469 21.183594 C 44.9375 21.101562 44.777344 21.007812 44.625 20.898438 C 44.582031 20.761719 44.605469 20.640625 44.699219 20.539062 C 45.085938 20.542969 45.429688 20.421875 45.730469 20.175781 C 46.445312 20.390625 46.972656 20.167969 47.3125 19.503906 C 47.335938 19.347656 47.34375 19.1875 47.335938 19.027344 C 47.53125 19.019531 47.722656 19.003906 47.914062 18.976562 Z M 47.914062 18.976562 "/>
<path style=" stroke:none;fill-rule:evenodd;fill:rgb(73.333333%,45.882353%,38.039216%);fill-opacity:1;" d="M 20.128906 15.714844 C 20.238281 15.800781 20.34375 15.898438 20.441406 16.003906 C 21.398438 17.496094 22.382812 18.96875 23.390625 20.417969 C 23.238281 20.335938 23.101562 20.222656 22.984375 20.082031 C 22.308594 18.910156 21.542969 17.808594 20.679688 16.769531 C 20.460938 16.4375 20.277344 16.085938 20.128906 15.714844 Z M 20.128906 15.714844 "/>
<path style=" stroke:none;fill-rule:evenodd;fill:rgb(5.882353%,3.529412%,2.352941%);fill-opacity:1;" d="M 7.703125 19.21875 C 7.90625 19.230469 8.097656 19.289062 8.277344 19.386719 C 8.316406 19.433594 8.332031 19.492188 8.324219 19.554688 C 8.132812 19.554688 7.957031 19.496094 7.796875 19.386719 C 7.734375 19.347656 7.703125 19.289062 7.703125 19.21875 Z M 7.703125 19.21875 "/>
<use xlink:href="#surface33" mask="url(#mask9)"/>
<path style=" stroke:none;fill-rule:evenodd;fill:rgb(68.627451%,64.313725%,61.568627%);fill-opacity:1;" d="M 45.464844 19.648438 C 45.5 19.835938 45.4375 19.964844 45.273438 20.035156 C 45.363281 19.914062 45.425781 19.785156 45.464844 19.648438 Z M 45.464844 19.648438 "/>
<path style=" stroke:none;fill-rule:evenodd;fill:rgb(3.921569%,3.529412%,3.529412%);fill-opacity:1;" d="M 22 27.664062 C 21.273438 27.015625 20.96875 26.199219 21.089844 25.214844 C 21.148438 24.433594 21.5 23.820312 22.144531 23.367188 C 23.90625 22.222656 25.808594 21.902344 27.855469 22.410156 C 28.015625 22.472656 28.160156 22.5625 28.285156 22.671875 C 29.238281 22.230469 30.179688 21.773438 31.117188 21.304688 C 31.402344 20.894531 31.722656 20.507812 32.078125 20.152344 C 32.507812 19.871094 32.835938 19.960938 33.0625 20.417969 C 33.101562 20.84375 33.015625 21.246094 32.796875 21.617188 C 33.074219 21.667969 33.347656 21.738281 33.613281 21.832031 C 33.996094 22.097656 34.050781 22.425781 33.78125 22.816406 C 33.460938 23.117188 33.085938 23.21875 32.652344 23.128906 C 32.222656 23.03125 31.804688 22.886719 31.40625 22.695312 C 30.878906 22.664062 30.382812 22.777344 29.917969 23.03125 C 29.414062 23.253906 28.917969 23.496094 28.429688 23.753906 C 28.199219 23.914062 28.113281 24.132812 28.167969 24.398438 C 27.867188 25.082031 27.546875 25.753906 27.207031 26.414062 C 26.484375 27.316406 25.550781 27.867188 24.398438 28.070312 C 23.523438 28.34375 22.726562 28.207031 22 27.664062 Z M 22 27.664062 "/>
<path style=" stroke:none;fill-rule:evenodd;fill:rgb(92.54902%,90.980392%,88.235294%);fill-opacity:1;" d="M 32.316406 20.273438 C 32.804688 20.285156 32.957031 20.523438 32.773438 20.992188 C 32.660156 21.21875 32.550781 21.441406 32.4375 21.664062 C 32.40625 21.730469 32.40625 21.792969 32.4375 21.855469 C 32.78125 21.917969 33.125 21.992188 33.46875 22.074219 C 33.636719 22.164062 33.695312 22.300781 33.636719 22.480469 C 33.386719 22.808594 33.058594 22.929688 32.652344 22.839844 C 32.28125 22.710938 31.914062 22.566406 31.550781 22.410156 C 31.261719 22.375 30.972656 22.375 30.6875 22.410156 C 29.855469 22.703125 29.058594 23.0625 28.285156 23.488281 C 28.238281 23.304688 28.160156 23.136719 28.046875 22.984375 C 29.148438 22.492188 30.253906 21.976562 31.359375 21.449219 C 31.582031 20.976562 31.902344 20.585938 32.316406 20.273438 Z M 32.316406 20.273438 "/>
<path style=" stroke:none;fill-rule:evenodd;fill:rgb(92.54902%,90.980392%,88.235294%);fill-opacity:1;" d="M 47.769531 21.089844 C 47.925781 21.242188 48.078125 21.402344 48.222656 21.570312 C 48.277344 21.933594 48.125 22.183594 47.769531 22.3125 C 47.515625 22.328125 47.277344 22.296875 47.050781 22.21875 C 46.992188 22.375 46.910156 22.515625 46.808594 22.648438 C 46.246094 22.929688 45.683594 22.914062 45.128906 22.601562 C 44.808594 22.261719 44.761719 21.886719 44.984375 21.472656 C 45.019531 21.628906 45.058594 21.789062 45.105469 21.953125 C 45.472656 22.285156 45.824219 22.269531 46.160156 21.90625 C 46.285156 21.976562 46.421875 22.007812 46.570312 22 C 47.003906 21.996094 47.195312 21.773438 47.144531 21.328125 C 47.386719 21.328125 47.59375 21.25 47.769531 21.089844 Z M 47.769531 21.089844 "/>
<path style=" stroke:none;fill-rule:evenodd;fill:rgb(5.098039%,2.745098%,2.352941%);fill-opacity:1;" d="M 13.363281 22.050781 C 13.589844 22.027344 13.640625 22.097656 13.507812 22.265625 C 13.304688 22.328125 13.097656 22.351562 12.882812 22.335938 C 12.882812 22.273438 12.882812 22.207031 12.882812 22.144531 C 13.058594 22.160156 13.21875 22.128906 13.363281 22.050781 Z M 13.363281 22.050781 "/>
<path style=" stroke:none;fill-rule:evenodd;fill:rgb(74.509804%,48.235294%,40.392157%);fill-opacity:1;" d="M 8.515625 21.90625 C 8.78125 22.160156 9.054688 22.410156 9.332031 22.648438 C 9.703125 22.859375 10.085938 23.027344 10.484375 23.152344 C 9.617188 23.0625 8.960938 22.648438 8.515625 21.90625 Z M 8.515625 21.90625 "/>
<path style=" stroke:none;fill-rule:evenodd;fill:rgb(92.941176%,91.372549%,88.627451%);fill-opacity:1;" d="M 27.949219 23.25 C 27.890625 23.28125 27.816406 23.296875 27.734375 23.296875 C 26.222656 23.070312 24.746094 23.191406 23.296875 23.65625 C 22.59375 23.9375 21.976562 24.347656 21.449219 24.878906 C 21.429688 24.867188 21.421875 24.851562 21.425781 24.832031 C 21.605469 24.320312 21.925781 23.914062 22.386719 23.609375 C 23.582031 22.835938 24.894531 22.46875 26.320312 22.503906 C 26.902344 22.53125 27.480469 22.613281 28.046875 22.746094 C 27.898438 22.890625 27.863281 23.058594 27.949219 23.25 Z M 27.949219 23.25 "/>
<path style=" stroke:none;fill-rule:evenodd;fill:rgb(72.54902%,45.882353%,38.039216%);fill-opacity:1;" d="M 14.082031 22.527344 C 13.660156 22.9375 13.148438 23.148438 12.546875 23.152344 C 13.066406 22.972656 13.578125 22.765625 14.082031 22.527344 Z M 14.082031 22.527344 "/>
<path style=" stroke:none;fill-rule:evenodd;fill:rgb(76.862745%,47.45098%,38.823529%);fill-opacity:1;" d="M 27.949219 23.25 C 28.003906 23.285156 28.011719 23.332031 27.976562 23.390625 C 27.816406 23.515625 27.699219 23.667969 27.613281 23.847656 C 27.636719 23.949219 27.691406 24.019531 27.78125 24.0625 C 27.816406 24.160156 27.816406 24.257812 27.78125 24.351562 C 27.597656 24.757812 27.414062 25.15625 27.230469 25.550781 C 26.261719 26.664062 25.09375 27.417969 23.726562 27.808594 C 22.761719 27.878906 22.046875 27.480469 21.59375 26.609375 C 21.40625 26.019531 21.347656 25.429688 21.425781 24.832031 C 21.421875 24.851562 21.429688 24.867188 21.449219 24.878906 C 21.976562 24.347656 22.59375 23.9375 23.296875 23.65625 C 24.746094 23.191406 26.222656 23.070312 27.734375 23.296875 C 27.816406 23.296875 27.890625 23.28125 27.949219 23.25 Z M 27.949219 23.25 "/>
<path style=" stroke:none;fill-rule:evenodd;fill:rgb(5.098039%,5.098039%,4.705882%);fill-opacity:1;" d="M 44.9375 24.160156 C 45.152344 24.175781 45.214844 24.277344 45.128906 24.472656 C 44.585938 24.660156 44.035156 24.730469 43.472656 24.6875 C 43.433594 24.582031 43.457031 24.496094 43.546875 24.425781 C 44.03125 24.414062 44.496094 24.328125 44.9375 24.160156 Z M 44.9375 24.160156 "/>
<path style=" stroke:none;fill-rule:evenodd;fill:rgb(5.098039%,5.098039%,4.705882%);fill-opacity:1;" d="M 9.910156 25.265625 C 10.914062 25.355469 11.921875 25.429688 12.933594 25.480469 C 13.03125 25.5625 13.046875 25.660156 12.980469 25.769531 C 11.964844 25.796875 10.957031 25.734375 9.957031 25.574219 C 9.863281 25.480469 9.847656 25.375 9.910156 25.265625 Z M 9.910156 25.265625 "/>
<path style=" stroke:none;fill-rule:evenodd;fill:rgb(74.117647%,46.666667%,38.823529%);fill-opacity:1;" d="M 21.089844 25.214844 C 20.96875 26.199219 21.273438 27.015625 22 27.664062 C 21.285156 27.429688 20.917969 26.933594 20.898438 26.175781 C 20.9375 25.84375 21 25.523438 21.089844 25.214844 Z M 21.089844 25.214844 "/>
<path style=" stroke:none;fill-rule:evenodd;fill:rgb(90.980392%,88.235294%,85.098039%);fill-opacity:1;" d="M 27.230469 25.550781 C 26.964844 26.226562 26.519531 26.746094 25.886719 27.109375 C 25.210938 27.472656 24.488281 27.707031 23.726562 27.808594 C 25.09375 27.417969 26.261719 26.664062 27.230469 25.550781 Z M 27.230469 25.550781 "/>
<path style=" stroke:none;fill-rule:evenodd;fill:rgb(6.27451%,3.921569%,3.137255%);fill-opacity:1;" d="M 24.207031 25.886719 C 24.304688 25.878906 24.402344 25.886719 24.496094 25.910156 C 24.539062 25.976562 24.554688 26.046875 24.542969 26.128906 C 24.335938 26.167969 24.222656 26.085938 24.207031 25.886719 Z M 24.207031 25.886719 "/>
<path style=" stroke:none;fill-rule:evenodd;fill:rgb(5.490196%,3.137255%,2.352941%);fill-opacity:1;" d="M 25.121094 26.03125 C 25.535156 26.050781 25.640625 26.242188 25.433594 26.609375 C 25.058594 26.761719 24.914062 26.636719 25 26.222656 C 25.03125 26.152344 25.070312 26.089844 25.121094 26.03125 Z M 25.121094 26.03125 "/>
<path style=" stroke:none;fill-rule:evenodd;fill:rgb(5.098039%,2.745098%,1.960784%);fill-opacity:1;" d="M 23.96875 26.558594 C 24.378906 26.652344 24.457031 26.867188 24.207031 27.207031 C 24.03125 27.222656 23.894531 27.152344 23.800781 26.992188 C 23.753906 26.804688 23.808594 26.664062 23.96875 26.558594 Z M 23.96875 26.558594 "/>
<use xlink:href="#surface36" mask="url(#mask10)"/>
<path style=" stroke:none;fill-rule:evenodd;fill:rgb(92.941176%,90.980392%,88.235294%);fill-opacity:1;" d="M 35.054688 32.222656 C 35.003906 32.226562 34.964844 32.210938 34.933594 32.171875 C 34.695312 31.355469 34.378906 30.570312 33.972656 29.824219 C 33.644531 29.371094 33.234375 29.019531 32.75 28.765625 C 32.835938 28.578125 32.78125 28.511719 32.582031 28.574219 C 32.558594 28.621094 32.550781 28.667969 32.558594 28.71875 C 32.378906 28.679688 32.203125 28.632812 32.03125 28.574219 C 31.96875 28.46875 31.890625 28.453125 31.789062 28.527344 C 31.414062 28.511719 31.046875 28.550781 30.6875 28.648438 C 30.378906 28.769531 30.078125 28.886719 29.773438 29.007812 C 29.785156 28.894531 29.753906 28.800781 29.679688 28.71875 C 29.886719 28.40625 30.175781 28.191406 30.542969 28.070312 C 32.308594 27.539062 33.609375 28.089844 34.453125 29.726562 C 34.789062 30.523438 34.988281 31.355469 35.054688 32.222656 Z M 35.054688 32.222656 "/>
<path style=" stroke:none;fill-rule:evenodd;fill:rgb(18.431373%,13.72549%,10.980392%);fill-opacity:1;" d="M 32.03125 28.574219 C 32.035156 28.75 31.964844 28.796875 31.8125 28.71875 C 31.789062 28.65625 31.78125 28.59375 31.789062 28.527344 C 31.890625 28.453125 31.96875 28.46875 32.03125 28.574219 Z M 32.03125 28.574219 "/>
<path style=" stroke:none;fill-rule:evenodd;fill:rgb(13.333333%,9.803922%,7.45098%);fill-opacity:1;" d="M 32.75 28.765625 C 32.679688 28.769531 32.617188 28.753906 32.558594 28.71875 C 32.550781 28.667969 32.558594 28.621094 32.582031 28.574219 C 32.78125 28.511719 32.835938 28.578125 32.75 28.765625 Z M 32.75 28.765625 "/>
<use xlink:href="#surface39" mask="url(#mask11)"/>
<path style=" stroke:none;fill-rule:evenodd;fill:rgb(91.764706%,89.411765%,86.666667%);fill-opacity:1;" d="M 38.074219 33.230469 C 37.867188 32.136719 37.441406 31.128906 36.804688 30.207031 C 36.175781 29.558594 35.414062 29.273438 34.523438 29.34375 C 34.40625 29.105469 34.261719 28.878906 34.09375 28.671875 C 36.300781 28.902344 37.621094 30.121094 38.050781 32.316406 C 38.074219 32.621094 38.082031 32.925781 38.074219 33.230469 Z M 38.074219 33.230469 "/>
<path style=" stroke:none;fill-rule:evenodd;fill:rgb(14.117647%,9.411765%,6.666667%);fill-opacity:1;" d="M 35.148438 29.390625 C 35.347656 29.359375 35.414062 29.429688 35.339844 29.605469 C 35.277344 29.628906 35.214844 29.636719 35.148438 29.628906 C 35.148438 29.550781 35.148438 29.46875 35.148438 29.390625 Z M 35.148438 29.390625 "/>
<use xlink:href="#surface42" mask="url(#mask12)"/>
<path style=" stroke:none;fill-rule:evenodd;fill:rgb(12.941176%,8.627451%,6.27451%);fill-opacity:1;" d="M 36.300781 30.015625 C 36.378906 30.015625 36.460938 30.015625 36.539062 30.015625 C 36.589844 30.261719 36.5 30.34375 36.277344 30.253906 C 36.246094 30.167969 36.253906 30.089844 36.300781 30.015625 Z M 36.300781 30.015625 "/>
<path style=" stroke:none;fill-rule:evenodd;fill:rgb(92.156863%,90.588235%,87.843137%);fill-opacity:1;" d="M 20.320312 31.886719 C 19.683594 31.515625 18.996094 31.285156 18.257812 31.191406 C 17.394531 31.125 16.53125 31.101562 15.667969 31.117188 C 15.625 31.082031 15.59375 31.035156 15.570312 30.972656 C 15.515625 30.929688 15.449219 30.914062 15.378906 30.925781 C 15.378906 31.007812 15.378906 31.085938 15.378906 31.167969 C 15.167969 31.265625 15.023438 31.425781 14.945312 31.644531 C 14.832031 31.710938 14.707031 31.753906 14.5625 31.765625 C 14.382812 31.929688 14.382812 32.097656 14.5625 32.269531 C 14.679688 32.359375 14.808594 32.421875 14.945312 32.460938 C 14.988281 32.613281 15.066406 32.742188 15.1875 32.84375 C 14.003906 32.714844 12.855469 32.449219 11.730469 32.054688 C 11.113281 31.773438 10.984375 31.34375 11.347656 30.757812 C 13.460938 30.09375 15.621094 29.902344 17.828125 30.183594 C 19.273438 30.496094 20.515625 31.175781 21.546875 32.222656 C 21.566406 32.667969 21.363281 32.980469 20.945312 33.15625 C 20.867188 33.1875 20.785156 33.1875 20.707031 33.15625 C 20.984375 32.664062 20.960938 32.195312 20.632812 31.742188 C 20.1875 31.332031 19.667969 31.050781 19.074219 30.902344 C 18.1875 30.664062 17.292969 30.625 16.386719 30.78125 C 17.578125 30.75 18.714844 30.980469 19.792969 31.476562 C 19.992188 31.589844 20.167969 31.726562 20.320312 31.886719 Z M 20.320312 31.886719 "/>
<path style=" stroke:none;fill-rule:evenodd;fill:rgb(91.764706%,89.803922%,87.058824%);fill-opacity:1;" d="M 39.46875 31.980469 C 39.070312 31.453125 38.542969 31.132812 37.882812 31.023438 C 37.746094 30.710938 37.570312 30.421875 37.355469 30.160156 C 37.652344 30.195312 37.941406 30.300781 38.21875 30.46875 C 38.769531 30.867188 39.1875 31.371094 39.46875 31.980469 Z M 39.46875 31.980469 "/>
<path style=" stroke:none;fill-rule:evenodd;fill:rgb(16.862745%,10.980392%,8.235294%);fill-opacity:1;" d="M 35.582031 30.542969 C 35.746094 30.550781 35.761719 30.597656 35.628906 30.6875 C 35.585938 30.648438 35.570312 30.597656 35.582031 30.542969 Z M 35.582031 30.542969 "/>
<path style=" stroke:none;fill-rule:evenodd;fill:rgb(5.490196%,5.490196%,5.490196%);fill-opacity:1;" d="M 13.796875 30.878906 C 14.140625 30.855469 14.476562 30.878906 14.804688 30.949219 C 13.832031 31.035156 12.9375 31.339844 12.117188 31.863281 C 11.941406 31.921875 11.871094 31.867188 11.898438 31.695312 C 12.015625 31.5625 12.152344 31.457031 12.308594 31.382812 C 12.792969 31.164062 13.289062 30.996094 13.796875 30.878906 Z M 13.796875 30.878906 "/>
<path style=" stroke:none;fill-rule:evenodd;fill:rgb(4.705882%,3.137255%,2.352941%);fill-opacity:1;" d="M 15.667969 31.117188 C 15.929688 31.480469 15.96875 31.863281 15.785156 32.269531 C 15.722656 32.363281 15.636719 32.421875 15.523438 32.4375 C 15.332031 32.460938 15.140625 32.46875 14.945312 32.460938 C 14.808594 32.421875 14.679688 32.359375 14.5625 32.269531 C 14.382812 32.097656 14.382812 31.929688 14.5625 31.765625 C 14.707031 31.753906 14.832031 31.710938 14.945312 31.644531 C 15.054688 31.660156 15.140625 31.628906 15.210938 31.550781 C 15.28125 31.425781 15.335938 31.296875 15.378906 31.167969 C 15.378906 31.085938 15.378906 31.007812 15.378906 30.925781 C 15.449219 30.914062 15.515625 30.929688 15.570312 30.972656 C 15.59375 31.035156 15.625 31.082031 15.667969 31.117188 Z M 15.667969 31.117188 "/>
<path style=" stroke:none;fill-rule:evenodd;fill:rgb(76.078431%,46.666667%,38.431373%);fill-opacity:1;" d="M 15.667969 31.117188 C 16.53125 31.101562 17.394531 31.125 18.257812 31.191406 C 18.996094 31.285156 19.683594 31.515625 20.320312 31.886719 C 20.484375 32.03125 20.582031 32.214844 20.609375 32.4375 C 20.554688 32.71875 20.449219 32.984375 20.296875 33.230469 C 19.96875 33.265625 19.640625 33.3125 19.3125 33.375 C 18.441406 33.304688 17.5625 33.242188 16.675781 33.179688 C 16.160156 33.121094 15.664062 33.007812 15.1875 32.84375 C 15.066406 32.742188 14.988281 32.613281 14.945312 32.460938 C 15.140625 32.46875 15.332031 32.460938 15.523438 32.4375 C 15.636719 32.421875 15.722656 32.363281 15.785156 32.269531 C 15.96875 31.863281 15.929688 31.480469 15.667969 31.117188 Z M 15.667969 31.117188 "/>
<path style=" stroke:none;fill-rule:evenodd;fill:rgb(74.117647%,46.666667%,38.431373%);fill-opacity:1;" d="M 15.378906 31.167969 C 15.335938 31.296875 15.28125 31.425781 15.210938 31.550781 C 15.140625 31.628906 15.054688 31.660156 14.945312 31.644531 C 15.023438 31.425781 15.167969 31.265625 15.378906 31.167969 Z M 15.378906 31.167969 "/>
<use xlink:href="#surface45" mask="url(#mask13)"/>
<path style=" stroke:none;fill-rule:evenodd;fill:rgb(73.72549%,45.490196%,37.647059%);fill-opacity:1;" d="M 14.804688 32.171875 C 14.832031 32.152344 14.847656 32.121094 14.851562 32.078125 C 14.839844 32.019531 14.808594 31.988281 14.753906 31.980469 C 14.890625 31.941406 15.035156 31.917969 15.1875 31.910156 C 15.527344 31.171875 15.695312 31.230469 15.691406 32.078125 C 15.671875 32.121094 15.648438 32.160156 15.617188 32.199219 C 15.382812 32.273438 15.144531 32.289062 14.898438 32.246094 C 14.855469 32.230469 14.824219 32.207031 14.804688 32.171875 Z M 14.804688 32.171875 "/>
<path style=" stroke:none;fill-rule:evenodd;fill:rgb(18.823529%,12.156863%,9.019608%);fill-opacity:1;" d="M 31.980469 31.40625 C 32.125 31.398438 32.199219 31.464844 32.199219 31.597656 C 32.164062 31.644531 32.125 31.652344 32.078125 31.621094 C 32.027344 31.558594 31.992188 31.484375 31.980469 31.40625 Z M 31.980469 31.40625 "/>
<path style=" stroke:none;fill-rule:evenodd;fill:rgb(2.352941%,1.176471%,0.784314%);fill-opacity:1;" d="M 16.625 31.5 C 17.105469 31.492188 17.585938 31.5 18.066406 31.527344 C 18.335938 31.550781 18.585938 31.640625 18.808594 31.789062 C 18.953125 31.984375 18.96875 32.191406 18.859375 32.414062 C 18.777344 32.457031 18.6875 32.472656 18.59375 32.460938 C 18.589844 32.355469 18.605469 32.25 18.640625 32.148438 C 18.625 32.03125 18.558594 31.953125 18.449219 31.910156 C 17.671875 31.714844 16.886719 31.691406 16.097656 31.835938 C 16.039062 31.78125 16.039062 31.726562 16.097656 31.667969 C 16.277344 31.605469 16.453125 31.550781 16.625 31.5 Z M 16.625 31.5 "/>
<path style=" stroke:none;fill-rule:evenodd;fill:rgb(18.823529%,12.156863%,9.411765%);fill-opacity:1;" d="M 38.507812 31.5 C 38.683594 31.464844 38.753906 31.527344 38.722656 31.695312 C 38.546875 31.765625 38.476562 31.703125 38.507812 31.5 Z M 38.507812 31.5 "/>
<use xlink:href="#surface48" mask="url(#mask14)"/>
<path style=" stroke:none;fill-rule:evenodd;fill:rgb(14.901961%,9.803922%,7.45098%);fill-opacity:1;" d="M 32.367188 31.695312 C 32.558594 31.671875 32.644531 31.75 32.628906 31.933594 C 32.394531 32.007812 32.304688 31.929688 32.367188 31.695312 Z M 32.367188 31.695312 "/>
<use xlink:href="#surface51" mask="url(#mask15)"/>
<path style=" stroke:none;fill-rule:evenodd;fill:rgb(87.45098%,85.882353%,83.529412%);fill-opacity:1;" d="M 14.753906 31.980469 C 14.808594 31.988281 14.839844 32.019531 14.851562 32.078125 C 14.847656 32.121094 14.832031 32.152344 14.804688 32.171875 C 14.65625 32.113281 14.640625 32.050781 14.753906 31.980469 Z M 14.753906 31.980469 "/>
<path style=" stroke:none;fill-rule:evenodd;fill:rgb(15.294118%,10.196078%,7.45098%);fill-opacity:1;" d="M 39.132812 32.078125 C 39.296875 32.105469 39.347656 32.195312 39.277344 32.339844 C 39.023438 32.367188 38.976562 32.28125 39.132812 32.078125 Z M 39.132812 32.078125 "/>
<path style=" stroke:none;fill-rule:evenodd;fill:rgb(83.529412%,78.431373%,75.294118%);fill-opacity:1;" d="M 16.675781 33.179688 C 17.5625 33.242188 18.441406 33.304688 19.3125 33.375 C 18.722656 33.382812 18.128906 33.375 17.539062 33.347656 C 17.238281 33.320312 16.949219 33.265625 16.675781 33.179688 Z M 16.675781 33.179688 "/>
<path style=" stroke:none;fill-rule:evenodd;fill:rgb(18.823529%,12.156863%,9.411765%);fill-opacity:1;" d="M 41.820312 33.46875 C 42.035156 33.480469 42.097656 33.582031 42.011719 33.78125 C 41.773438 33.800781 41.710938 33.699219 41.820312 33.46875 Z M 41.820312 33.46875 "/>
<path style=" stroke:none;fill-rule:evenodd;fill:rgb(14.509804%,9.803922%,7.058824%);fill-opacity:1;" d="M 42.585938 33.851562 C 42.625 33.871094 42.644531 33.902344 42.632812 33.949219 C 42.609375 34.074219 42.527344 34.121094 42.394531 34.09375 C 42.359375 33.925781 42.421875 33.847656 42.585938 33.851562 Z M 42.585938 33.851562 "/>
<path style=" stroke:none;fill-rule:evenodd;fill:rgb(3.921569%,3.529412%,3.529412%);fill-opacity:1;" d="M 26.945312 34.046875 C 27.007812 34.039062 27.074219 34.046875 27.136719 34.070312 C 27.925781 35.042969 28.773438 35.96875 29.679688 36.851562 C 30.328125 37.394531 31.046875 37.824219 31.835938 38.148438 C 32.484375 38.40625 33.140625 38.648438 33.804688 38.867188 C 33.9375 38.992188 33.921875 39.097656 33.757812 39.179688 C 32.445312 38.894531 31.230469 38.390625 30.109375 37.667969 C 28.851562 36.683594 27.78125 35.53125 26.894531 34.214844 C 26.917969 34.160156 26.933594 34.101562 26.945312 34.046875 Z M 26.945312 34.046875 "/>
<path style=" stroke:none;fill-rule:evenodd;fill:rgb(8.235294%,8.235294%,7.843137%);fill-opacity:1;" d="M 19.167969 34.8125 C 19.21875 34.8125 19.265625 34.8125 19.3125 34.8125 C 19.324219 34.902344 19.292969 34.976562 19.21875 35.027344 C 18.855469 35.3125 18.457031 35.503906 18.019531 35.605469 C 18.4375 35.382812 18.820312 35.121094 19.167969 34.8125 Z M 19.167969 34.8125 "/>
<path style=" stroke:none;fill-rule:evenodd;fill:rgb(16.470588%,10.588235%,7.843137%);fill-opacity:1;" d="M 39.804688 35.4375 C 39.992188 35.5 40.167969 35.585938 40.332031 35.699219 C 40.085938 35.734375 39.910156 35.648438 39.804688 35.4375 Z M 39.804688 35.4375 "/>
<path style=" stroke:none;fill-rule:evenodd;fill:rgb(14.117647%,9.411765%,7.058824%);fill-opacity:1;" d="M 40.761719 35.722656 C 40.875 35.722656 40.988281 35.722656 41.097656 35.722656 C 41.070312 35.914062 40.96875 35.964844 40.785156 35.867188 C 40.765625 35.824219 40.753906 35.773438 40.761719 35.722656 Z M 40.761719 35.722656 "/>
<path style=" stroke:none;fill-rule:evenodd;fill:rgb(4.313725%,3.921569%,3.921569%);fill-opacity:1;" d="M 27.566406 38.21875 C 27.617188 38.210938 27.664062 38.21875 27.710938 38.242188 C 28.117188 38.566406 28.550781 38.855469 29.007812 39.109375 C 29.554688 39.304688 30.117188 39.464844 30.6875 39.585938 C 30.757812 39.835938 30.660156 39.933594 30.398438 39.875 C 29.792969 39.75 29.21875 39.542969 28.671875 39.25 C 28.304688 38.996094 27.953125 38.726562 27.613281 38.4375 C 27.574219 38.371094 27.558594 38.296875 27.566406 38.21875 Z M 27.566406 38.21875 "/>
</g>
</svg>
