<?xml version="1.0" encoding="UTF-8"?>
<svg xmlns="http://www.w3.org/2000/svg" xmlns:xlink="http://www.w3.org/1999/xlink" width="50pt" height="50pt" viewBox="0 0 50 50" version="1.1">
<defs>
<filter id="alpha" filterUnits="objectBoundingBox" x="0%" y="0%" width="100%" height="100%">
  <feColorMatrix type="matrix" in="SourceGraphic" values="0 0 0 0 1 0 0 0 0 1 0 0 0 0 1 0 0 0 1 0"/>
</filter>
<mask id="mask0">
  <g filter="url(#alpha)">
<rect x="0" y="0" width="50" height="50" style="fill:rgb(0%,0%,0%);fill-opacity:0.917647;stroke:none;"/>
  </g>
</mask>
<clipPath id="clip1">
  <rect width="50" height="50"/>
</clipPath>
<g id="surface6" clip-path="url(#clip1)">
<path style=" stroke:none;fill-rule:evenodd;fill:rgb(0%,0%,0%);fill-opacity:1;" d="M 21.183594 0.121094 C 23.835938 -0.0273438 25.742188 1.085938 26.894531 3.453125 C 27.878906 3.746094 28.761719 4.226562 29.535156 4.894531 C 30.5625 5.808594 31.449219 6.84375 32.199219 7.988281 C 32.140625 7.398438 32.125 6.808594 32.148438 6.214844 C 32.375 6.0625 32.535156 6.109375 32.628906 6.359375 C 32.734375 7.367188 32.835938 8.375 32.941406 9.382812 C 32.9375 9.496094 32.914062 9.609375 32.871094 9.71875 C 32.796875 9.789062 32.710938 9.820312 32.605469 9.8125 C 32.453125 9.800781 32.308594 9.761719 32.171875 9.691406 C 31.410156 9.25 30.675781 8.769531 29.964844 8.253906 C 29.730469 8.128906 29.492188 8.015625 29.246094 7.917969 C 29.085938 7.789062 29.046875 7.636719 29.125 7.460938 C 29.289062 7.40625 29.457031 7.398438 29.628906 7.4375 C 30.472656 7.925781 31.289062 8.457031 32.078125 9.019531 C 32.109375 9.054688 32.140625 9.054688 32.171875 9.019531 C 31.402344 7.707031 30.460938 6.523438 29.34375 5.46875 C 28.691406 4.882812 27.957031 4.425781 27.136719 4.101562 C 27.347656 5.574219 26.972656 6.871094 26.007812 7.988281 C 25.246094 8.792969 24.390625 8.914062 23.441406 8.347656 C 22.542969 7.511719 22.265625 6.496094 22.601562 5.300781 C 23.035156 4.261719 23.808594 3.648438 24.929688 3.453125 C 25.277344 3.414062 25.632812 3.382812 25.984375 3.359375 C 26.039062 3.347656 26.085938 3.324219 26.128906 3.285156 C 25.09375 1.402344 23.496094 0.53125 21.328125 0.671875 C 18.960938 1.042969 16.953125 2.09375 15.308594 3.816406 C 15.054688 4.128906 14.878906 4.480469 14.777344 4.871094 C 14.652344 5.03125 14.5 5.054688 14.324219 4.941406 C 14.269531 4.777344 14.261719 4.609375 14.300781 4.4375 C 14.578125 3.792969 14.984375 3.242188 15.523438 2.78125 C 16.746094 1.714844 18.136719 0.929688 19.699219 0.433594 C 20.195312 0.300781 20.691406 0.195312 21.183594 0.121094 Z M 25.695312 3.863281 C 25.921875 3.882812 26.144531 3.917969 26.367188 3.957031 C 26.628906 4.535156 26.683594 5.128906 26.535156 5.734375 C 26.386719 6.570312 25.992188 7.265625 25.359375 7.820312 C 24.726562 8.320312 24.125 8.28125 23.558594 7.703125 C 22.882812 6.804688 22.835938 5.878906 23.417969 4.917969 C 24.035156 4.257812 24.796875 3.90625 25.695312 3.863281 Z M 25.695312 3.863281 "/>
</g>
<mask id="mask1">
  <g filter="url(#alpha)">
<rect x="0" y="0" width="50" height="50" style="fill:rgb(0%,0%,0%);fill-opacity:0.937255;stroke:none;"/>
  </g>
</mask>
<clipPath id="clip2">
  <rect width="50" height="50"/>
</clipPath>
<g id="surface9" clip-path="url(#clip2)">
<path style=" stroke:none;fill-rule:evenodd;fill:rgb(1.568627%,1.176471%,1.176471%);fill-opacity:1;" d="M 41.003906 3.671875 C 41.277344 3.652344 41.363281 3.78125 41.265625 4.054688 C 41.039062 4.226562 40.910156 4.449219 40.882812 4.726562 C 41.445312 5.070312 42 5.429688 42.539062 5.804688 C 43.179688 6.316406 43.816406 6.828125 44.457031 7.339844 C 45.15625 8.085938 45.835938 8.847656 46.496094 9.621094 C 46.605469 9.757812 46.699219 9.902344 46.785156 10.054688 C 47.007812 9.699219 47.234375 9.347656 47.457031 8.996094 C 47.714844 8.6875 47.964844 8.367188 48.199219 8.039062 C 48.320312 7.921875 48.464844 7.875 48.632812 7.894531 C 48.617188 8.097656 48.5625 8.289062 48.464844 8.46875 C 47.953125 9.140625 47.441406 9.8125 46.929688 10.484375 C 46.8125 10.632812 46.667969 10.746094 46.496094 10.820312 C 46.070312 11.359375 45.621094 11.886719 45.152344 12.402344 C 43.75 13.9375 42.308594 15.441406 40.835938 16.914062 C 39.640625 18.078125 38.335938 19.09375 36.925781 19.960938 C 36.246094 20.308594 35.542969 20.589844 34.8125 20.800781 C 34.71875 20.898438 34.605469 20.96875 34.476562 21.015625 C 33.503906 21.132812 32.527344 21.230469 31.550781 21.304688 C 31.328125 21.320312 31.136719 21.398438 30.972656 21.546875 C 30.859375 21.816406 30.769531 22.09375 30.710938 22.386719 C 30.5 23.449219 30.261719 24.503906 29.992188 25.550781 C 29.925781 25.71875 29.808594 25.800781 29.628906 25.792969 C 29.425781 25.761719 29.234375 25.6875 29.054688 25.574219 C 28.902344 25.371094 28.765625 25.15625 28.648438 24.929688 C 28.21875 23.953125 27.699219 23.03125 27.085938 22.167969 C 26.136719 21.972656 25.1875 21.964844 24.230469 22.144531 C 23.824219 22.109375 23.414062 22.070312 23.007812 22.023438 C 22.8125 21.703125 22.835938 21.390625 23.082031 21.089844 C 23.363281 20.800781 23.601562 20.480469 23.800781 20.128906 C 23.945312 19.9375 24.128906 19.800781 24.351562 19.722656 C 24.664062 19.457031 24.921875 19.152344 25.121094 18.808594 C 24.714844 17.644531 24.292969 16.484375 23.847656 15.332031 C 23.785156 15.09375 23.769531 14.855469 23.800781 14.609375 C 23.992188 14.445312 24.210938 14.421875 24.449219 14.539062 C 25.375 14.808594 26.238281 15.210938 27.039062 15.738281 C 27.253906 15.835938 27.46875 15.925781 27.6875 16.003906 C 27.855469 15.867188 28.023438 15.730469 28.191406 15.59375 C 28.910156 14.78125 29.664062 13.996094 30.445312 13.242188 C 30.578125 13.15625 30.703125 13.15625 30.832031 13.242188 C 30.988281 13.410156 31.117188 13.59375 31.214844 13.796875 C 31.804688 13.621094 32.394531 13.453125 32.988281 13.292969 C 33.945312 12.898438 34.753906 12.296875 35.414062 11.492188 C 36.058594 10.765625 36.652344 9.996094 37.1875 9.1875 C 37.445312 8.871094 37.699219 8.550781 37.957031 8.230469 C 38.695312 7.117188 39.449219 6.015625 40.210938 4.917969 C 40.21875 4.773438 40.21875 4.628906 40.210938 4.488281 C 40.484375 4.222656 40.75 3.949219 41.003906 3.671875 Z M 31.308594 15.570312 C 31.6875 15.574219 32.054688 15.632812 32.414062 15.738281 C 32.070312 15.988281 31.726562 16.234375 31.382812 16.484375 C 31.359375 16.179688 31.335938 15.875 31.308594 15.570312 Z M 31.308594 15.570312 "/>
</g>
<mask id="mask2">
  <g filter="url(#alpha)">
<rect x="0" y="0" width="50" height="50" style="fill:rgb(0%,0%,0%);fill-opacity:0.937255;stroke:none;"/>
  </g>
</mask>
<clipPath id="clip3">
  <rect width="50" height="50"/>
</clipPath>
<g id="surface12" clip-path="url(#clip3)">
<path style=" stroke:none;fill-rule:evenodd;fill:rgb(66.27451%,23.137255%,17.647059%);fill-opacity:1;" d="M 11.683594 10.246094 C 11.691406 10.195312 11.675781 10.164062 11.636719 10.148438 C 11.449219 9.808594 11.289062 9.457031 11.15625 9.09375 C 11.289062 8.613281 11.570312 8.503906 11.996094 8.757812 C 12.296875 9.4375 12.679688 10.0625 13.148438 10.628906 C 13.292969 11.15625 13.09375 11.386719 12.546875 11.324219 C 12.460938 11.285156 12.390625 11.230469 12.332031 11.15625 C 12.113281 10.847656 11.898438 10.546875 11.683594 10.246094 Z M 11.683594 10.246094 "/>
</g>
<mask id="mask3">
  <g filter="url(#alpha)">
<rect x="0" y="0" width="50" height="50" style="fill:rgb(0%,0%,0%);fill-opacity:0.933333;stroke:none;"/>
  </g>
</mask>
<clipPath id="clip4">
  <rect width="50" height="50"/>
</clipPath>
<g id="surface15" clip-path="url(#clip4)">
<path style=" stroke:none;fill-rule:evenodd;fill:rgb(66.27451%,22.745098%,17.647059%);fill-opacity:1;" d="M 18.019531 11.15625 C 17.917969 11.054688 17.804688 11.039062 17.683594 11.109375 C 17.484375 10.917969 17.445312 10.691406 17.5625 10.4375 C 17.855469 9.996094 18.113281 9.53125 18.332031 9.046875 C 18.492188 8.910156 18.675781 8.871094 18.882812 8.925781 C 19.132812 9.050781 19.222656 9.25 19.144531 9.523438 C 18.914062 10.042969 18.640625 10.539062 18.332031 11.011719 C 18.246094 11.105469 18.144531 11.152344 18.019531 11.15625 Z M 18.019531 11.15625 "/>
</g>
<mask id="mask4">
  <g filter="url(#alpha)">
<rect x="0" y="0" width="50" height="50" style="fill:rgb(0%,0%,0%);fill-opacity:0.85098;stroke:none;"/>
  </g>
</mask>
<clipPath id="clip5">
  <rect width="50" height="50"/>
</clipPath>
<g id="surface18" clip-path="url(#clip5)">
<path style=" stroke:none;fill-rule:evenodd;fill:rgb(0%,0%,0%);fill-opacity:1;" d="M 11.636719 10.148438 C 11.628906 10.195312 11.644531 10.226562 11.683594 10.246094 C 11.921875 10.898438 12.226562 11.523438 12.597656 12.117188 C 12.589844 12.160156 12.574219 12.203125 12.546875 12.234375 C 12.46875 12.269531 12.386719 12.269531 12.308594 12.234375 C 11.878906 11.640625 11.542969 10.992188 11.300781 10.292969 C 11.375 10.171875 11.488281 10.125 11.636719 10.148438 Z M 11.636719 10.148438 "/>
</g>
<mask id="mask5">
  <g filter="url(#alpha)">
<rect x="0" y="0" width="50" height="50" style="fill:rgb(0%,0%,0%);fill-opacity:0.85098;stroke:none;"/>
  </g>
</mask>
<clipPath id="clip6">
  <rect width="50" height="50"/>
</clipPath>
<g id="surface21" clip-path="url(#clip6)">
<path style=" stroke:none;fill-rule:evenodd;fill:rgb(1.176471%,0%,0%);fill-opacity:1;" d="M 18.019531 11.15625 C 17.925781 11.449219 17.8125 11.734375 17.683594 12.019531 C 17.605469 12.074219 17.527344 12.082031 17.441406 12.042969 C 17.414062 12 17.398438 11.953125 17.394531 11.898438 C 17.476562 11.625 17.574219 11.363281 17.683594 11.109375 C 17.804688 11.039062 17.917969 11.054688 18.019531 11.15625 Z M 18.019531 11.15625 "/>
</g>
<mask id="mask6">
  <g filter="url(#alpha)">
<rect x="0" y="0" width="50" height="50" style="fill:rgb(0%,0%,0%);fill-opacity:0.964706;stroke:none;"/>
  </g>
</mask>
<clipPath id="clip7">
  <rect width="50" height="50"/>
</clipPath>
<g id="surface24" clip-path="url(#clip7)">
<path style=" stroke:none;fill-rule:evenodd;fill:rgb(65.882353%,22.745098%,17.647059%);fill-opacity:1;" d="M 19.027344 15.476562 C 18.933594 15.117188 18.78125 14.78125 18.570312 14.46875 C 17.5625 13.398438 16.320312 12.910156 14.851562 13.003906 C 14.300781 13.042969 13.757812 13.125 13.21875 13.242188 C 12.855469 13.378906 12.503906 13.539062 12.164062 13.722656 C 11.980469 13.933594 11.769531 14.117188 11.539062 14.277344 C 11.820312 12.882812 12.667969 12.09375 14.082031 11.898438 C 15.589844 11.84375 16.949219 12.257812 18.164062 13.148438 C 18.851562 13.769531 19.140625 14.542969 19.027344 15.476562 Z M 19.027344 15.476562 "/>
</g>
<mask id="mask7">
  <g filter="url(#alpha)">
<rect x="0" y="0" width="50" height="50" style="fill:rgb(0%,0%,0%);fill-opacity:0.937255;stroke:none;"/>
  </g>
</mask>
<clipPath id="clip8">
  <rect width="50" height="50"/>
</clipPath>
<g id="surface27" clip-path="url(#clip8)">
<path style=" stroke:none;fill-rule:evenodd;fill:rgb(1.176471%,0.784314%,0.784314%);fill-opacity:1;" d="M 19.027344 15.476562 C 19.132812 16.480469 19.0625 17.472656 18.808594 18.449219 C 18.742188 18.714844 18.640625 18.960938 18.5 19.195312 C 19.167969 19.289062 19.808594 19.480469 20.417969 19.769531 C 20.941406 20.28125 20.925781 20.777344 20.371094 21.257812 C 20.285156 21.28125 20.207031 21.3125 20.128906 21.351562 C 20.507812 21.578125 20.644531 21.90625 20.539062 22.335938 C 20.363281 22.734375 20.066406 23 19.648438 23.128906 C 20.109375 23.578125 20.078125 23.996094 19.554688 24.375 C 18.726562 24.789062 17.863281 25.109375 16.960938 25.335938 C 16.453125 25.554688 16 25.851562 15.59375 26.222656 C 14.828125 27.324219 14.046875 28.414062 13.242188 29.488281 C 12.773438 30.332031 12.324219 31.199219 11.898438 32.078125 C 11.578125 32.582031 11.265625 33.09375 10.964844 33.613281 C 10.980469 33.628906 10.996094 33.644531 11.011719 33.660156 C 12.902344 32.753906 14.871094 32.066406 16.914062 31.597656 C 17.460938 31.625 18.003906 31.660156 18.546875 31.695312 C 18.738281 31.308594 18.90625 30.90625 19.050781 30.496094 C 19.117188 30.160156 19.207031 29.832031 19.3125 29.511719 C 19.257812 29.398438 19.277344 29.296875 19.363281 29.199219 C 19.484375 29.140625 19.605469 29.078125 19.722656 29.007812 C 19.714844 29.199219 19.683594 29.390625 19.625 29.582031 C 19.425781 30.1875 19.242188 30.792969 19.074219 31.40625 C 21.058594 31.390625 23.03125 31.488281 25 31.695312 C 25.210938 30.757812 25.378906 29.8125 25.503906 28.863281 C 25.503906 28.816406 25.503906 28.765625 25.503906 28.71875 C 25.648438 27.835938 25.746094 26.941406 25.792969 26.03125 C 25.167969 25.941406 24.546875 25.851562 23.921875 25.769531 C 22.894531 25.367188 21.855469 25.316406 20.800781 25.625 C 20.578125 25.804688 20.453125 26.035156 20.417969 26.320312 C 20.566406 27.207031 20.425781 28.046875 19.984375 28.839844 C 19.820312 28.878906 19.660156 28.863281 19.503906 28.789062 C 19.707031 28.367188 19.855469 27.929688 19.960938 27.472656 C 20.035156 26.8125 20.117188 26.160156 20.203125 25.503906 C 20.238281 25.355469 20.324219 25.253906 20.464844 25.191406 C 20.910156 25.121094 21.359375 25.121094 21.808594 25.191406 C 23.226562 25.421875 24.652344 25.613281 26.078125 25.769531 C 26.125 26.027344 26.140625 26.292969 26.128906 26.558594 C 26.082031 26.488281 26.042969 26.40625 26.007812 26.320312 C 25.992188 26.5 26.015625 26.675781 26.078125 26.847656 C 26.058594 27.570312 25.988281 28.292969 25.863281 29.007812 C 25.675781 30.007812 25.460938 31 25.214844 31.980469 C 24.882812 32.035156 24.546875 32.042969 24.207031 32.003906 C 23.183594 31.945312 22.160156 31.863281 21.136719 31.765625 C 20.402344 31.734375 19.664062 31.734375 18.929688 31.765625 C 19.378906 31.898438 19.691406 32.179688 19.867188 32.605469 C 19.890625 32.714844 19.898438 32.828125 19.890625 32.941406 C 19.628906 32.953125 19.390625 33.023438 19.167969 33.15625 C 19.074219 33.316406 18.945312 33.445312 18.785156 33.542969 C 19.285156 33.539062 19.757812 33.644531 20.203125 33.851562 C 20.511719 34.269531 20.488281 34.660156 20.128906 35.027344 C 20.957031 35.605469 21.019531 36.261719 20.320312 36.996094 C 19.882812 37.273438 19.449219 37.558594 19.027344 37.859375 C 18.421875 38.171875 17.796875 38.441406 17.15625 38.675781 C 17.492188 38.890625 17.84375 39.082031 18.210938 39.25 C 18.675781 39.660156 18.707031 40.089844 18.304688 40.546875 C 17.929688 40.734375 17.53125 40.824219 17.105469 40.8125 C 16.5625 40.765625 16.019531 40.757812 15.476562 40.785156 C 15.238281 40.804688 15.015625 40.871094 14.804688 40.980469 C 14.339844 41.484375 13.914062 42.019531 13.53125 42.585938 C 13.441406 42.695312 13.394531 42.824219 13.386719 42.96875 C 12.824219 43.519531 12.394531 44.15625 12.09375 44.890625 C 11.789062 45.207031 11.554688 45.578125 11.394531 45.992188 C 11.210938 46.144531 11.113281 46.097656 11.109375 45.847656 C 11.144531 45.617188 11.226562 45.402344 11.347656 45.203125 C 11.171875 45.121094 10.996094 45.042969 10.820312 44.960938 C 8.789062 44.441406 6.933594 43.558594 5.253906 42.324219 C 4.582031 41.765625 3.9375 41.183594 3.3125 40.570312 C 2.839844 41.023438 2.464844 41.542969 2.183594 42.128906 C 2.773438 42.660156 3.367188 43.1875 3.957031 43.714844 C 4.4375 44.035156 4.917969 44.355469 5.398438 44.671875 C 5.5 44.769531 5.582031 44.878906 5.636719 45.007812 C 5.898438 45.175781 6.148438 45.359375 6.382812 45.5625 C 6.449219 45.832031 6.359375 45.902344 6.117188 45.777344 C 5.71875 45.503906 5.316406 45.234375 4.917969 44.960938 C 4.71875 44.648438 4.445312 44.425781 4.101562 44.289062 C 3.582031 43.820312 3.023438 43.402344 2.421875 43.042969 C 2.277344 42.898438 2.136719 42.753906 1.992188 42.609375 C 1.839844 42.59375 1.71875 42.648438 1.632812 42.777344 C 1.433594 42.742188 1.355469 42.628906 1.390625 42.441406 C 1.765625 41.816406 2.167969 41.210938 2.589844 40.617188 C 2.917969 40.3125 3.175781 39.960938 3.359375 39.5625 C 3.863281 38.9375 4.390625 38.328125 4.941406 37.738281 C 4.988281 37.648438 5.019531 37.554688 5.039062 37.453125 C 5.183594 37.4375 5.335938 37.429688 5.496094 37.429688 C 5.777344 37.1875 6.046875 36.9375 6.308594 36.683594 C 6.585938 36.570312 6.839844 36.417969 7.078125 36.226562 C 7.414062 35.957031 7.75 35.683594 8.085938 35.414062 C 8.179688 35.34375 8.242188 35.253906 8.277344 35.148438 C 8.960938 34.839844 9.617188 34.480469 10.246094 34.070312 C 10.460938 33.609375 10.6875 33.15625 10.917969 32.703125 C 10.890625 32.6875 10.867188 32.667969 10.84375 32.652344 C 10.207031 32.441406 9.574219 32.207031 8.949219 31.957031 C 8.375 31.625 7.816406 31.273438 7.269531 30.902344 C 6.214844 30.34375 5.199219 29.726562 4.222656 29.054688 C 3.976562 29.359375 3.75 29.679688 3.550781 30.015625 C 3.25 30.535156 2.960938 31.0625 2.6875 31.597656 C 2.554688 31.703125 2.417969 31.796875 2.277344 31.886719 C 2.230469 31.878906 2.179688 31.859375 2.136719 31.835938 C 2.082031 31.730469 2.070312 31.617188 2.109375 31.5 C 2.847656 30.222656 3.628906 28.972656 4.460938 27.757812 C 6.230469 25.480469 8.253906 23.457031 10.53125 21.6875 C 11.21875 21.152344 11.957031 20.6875 12.738281 20.296875 C 11.539062 19.75 10.859375 18.8125 10.699219 17.492188 C 10.507812 16.289062 10.789062 15.21875 11.539062 14.277344 C 11.769531 14.117188 11.980469 13.933594 12.164062 13.722656 C 12.503906 13.539062 12.855469 13.378906 13.21875 13.242188 C 13.757812 13.125 14.300781 13.042969 14.851562 13.003906 C 16.320312 12.910156 17.5625 13.398438 18.570312 14.46875 C 18.78125 14.78125 18.933594 15.117188 19.027344 15.476562 Z M 11.394531 15.523438 C 11.535156 17.214844 12.382812 18.390625 13.941406 19.050781 C 14.394531 19.1875 14.855469 19.242188 15.332031 19.21875 C 15.410156 19.605469 15.523438 19.980469 15.667969 20.34375 C 15.472656 20.421875 15.289062 20.414062 15.113281 20.320312 C 15.027344 20.320312 14.957031 20.351562 14.898438 20.417969 C 14.804688 20.320312 14.691406 20.25 14.5625 20.203125 C 13.953125 20.09375 13.359375 19.917969 12.789062 19.671875 C 12.4375 19.417969 12.085938 19.160156 11.730469 18.90625 C 11.296875 18.371094 11.070312 17.757812 11.058594 17.058594 C 11.089844 16.753906 11.128906 16.449219 11.179688 16.148438 C 11.214844 15.921875 11.289062 15.710938 11.394531 15.523438 Z M 18.640625 16.867188 C 18.683594 17.253906 18.628906 17.640625 18.472656 18.019531 C 18.265625 18.605469 17.953125 19.125 17.539062 19.578125 C 17.296875 19.683594 17.058594 19.785156 16.820312 19.890625 C 16.695312 19.644531 16.597656 19.390625 16.53125 19.121094 C 16.714844 19.070312 16.898438 19.070312 17.082031 19.121094 C 17.167969 19.097656 17.246094 19.066406 17.324219 19.027344 C 17.660156 18.515625 17.996094 18.003906 18.332031 17.492188 C 18.445312 17.285156 18.550781 17.078125 18.640625 16.867188 Z M 15.617188 19.167969 C 15.761719 19.167969 15.90625 19.167969 16.050781 19.167969 C 16.121094 19.472656 16.203125 19.777344 16.289062 20.082031 C 16.203125 20.148438 16.109375 20.195312 16.003906 20.226562 C 15.847656 19.882812 15.71875 19.53125 15.617188 19.167969 Z M 5.253906 38.410156 C 6.503906 39.382812 7.785156 40.316406 9.09375 41.21875 C 10.238281 41.984375 11.46875 42.566406 12.789062 42.96875 C 12.457031 43.515625 12.113281 44.0625 11.757812 44.601562 C 11.671875 44.710938 11.566406 44.789062 11.445312 44.839844 C 10.820312 44.59375 10.195312 44.347656 9.574219 44.097656 C 8.082031 43.277344 6.644531 42.382812 5.253906 41.410156 C 4.714844 41 4.203125 40.550781 3.71875 40.066406 C 4.207031 39.492188 4.71875 38.941406 5.253906 38.410156 Z M 5.253906 38.410156 "/>
</g>
<mask id="mask8">
  <g filter="url(#alpha)">
<rect x="0" y="0" width="50" height="50" style="fill:rgb(0%,0%,0%);fill-opacity:0.992157;stroke:none;"/>
  </g>
</mask>
<clipPath id="clip9">
  <rect width="50" height="50"/>
</clipPath>
<g id="surface30" clip-path="url(#clip9)">
<path style=" stroke:none;fill-rule:evenodd;fill:rgb(65.882353%,22.745098%,17.647059%);fill-opacity:1;" d="M 18.640625 16.867188 C 18.550781 17.078125 18.445312 17.285156 18.332031 17.492188 C 17.996094 18.003906 17.660156 18.515625 17.324219 19.027344 C 17.246094 19.066406 17.167969 19.097656 17.082031 19.121094 C 16.898438 19.070312 16.714844 19.070312 16.53125 19.121094 C 16.449219 18.769531 16.371094 18.417969 16.289062 18.066406 C 16.476562 17.921875 16.667969 17.785156 16.867188 17.660156 C 17.1875 17.328125 17.339844 16.9375 17.324219 16.484375 C 16.960938 16.078125 16.539062 16.007812 16.050781 16.265625 C 15.925781 16.359375 15.835938 16.480469 15.785156 16.625 C 15.753906 17.074219 15.765625 17.523438 15.8125 17.96875 C 15.621094 18.027344 15.429688 18.050781 15.234375 18.042969 C 15.054688 17.523438 14.769531 17.078125 14.371094 16.699219 C 13.480469 16.292969 13.070312 16.589844 13.148438 17.585938 C 13.1875 17.945312 13.371094 18.191406 13.699219 18.332031 C 14.152344 18.492188 14.617188 18.539062 15.089844 18.472656 C 15.195312 18.714844 15.273438 18.960938 15.332031 19.21875 C 14.855469 19.242188 14.394531 19.1875 13.941406 19.050781 C 12.382812 18.390625 11.535156 17.214844 11.394531 15.523438 C 11.457031 15.210938 11.589844 14.941406 11.804688 14.707031 C 12.839844 13.5625 14.128906 13.121094 15.667969 13.386719 C 16.300781 13.378906 16.878906 13.558594 17.394531 13.914062 C 17.941406 14.398438 18.332031 14.980469 18.570312 15.667969 C 18.667969 16.066406 18.695312 16.464844 18.640625 16.867188 Z M 18.640625 16.867188 "/>
</g>
<mask id="mask9">
  <g filter="url(#alpha)">
<rect x="0" y="0" width="50" height="50" style="fill:rgb(0%,0%,0%);fill-opacity:0.937255;stroke:none;"/>
  </g>
</mask>
<clipPath id="clip10">
  <rect width="50" height="50"/>
</clipPath>
<g id="surface33" clip-path="url(#clip10)">
<path style=" stroke:none;fill-rule:evenodd;fill:rgb(66.27451%,23.137255%,17.647059%);fill-opacity:1;" d="M 7.078125 14.277344 C 7.300781 14.265625 7.476562 14.355469 7.605469 14.539062 C 7.792969 14.628906 7.984375 14.707031 8.179688 14.777344 C 8.601562 14.886719 9.015625 14.996094 9.429688 15.113281 C 9.667969 15.535156 9.558594 15.816406 9.09375 15.953125 C 8.367188 15.859375 7.679688 15.644531 7.03125 15.308594 C 6.566406 14.921875 6.582031 14.578125 7.078125 14.277344 Z M 7.078125 14.277344 "/>
</g>
<mask id="mask10">
  <g filter="url(#alpha)">
<rect x="0" y="0" width="50" height="50" style="fill:rgb(0%,0%,0%);fill-opacity:0.854902;stroke:none;"/>
  </g>
</mask>
<clipPath id="clip11">
  <rect width="50" height="50"/>
</clipPath>
<g id="surface36" clip-path="url(#clip11)">
<path style=" stroke:none;fill-rule:evenodd;fill:rgb(0%,0%,0%);fill-opacity:1;" d="M 6.933594 15.667969 C 7.097656 15.664062 7.257812 15.6875 7.414062 15.738281 C 7.871094 15.914062 8.335938 16.074219 8.804688 16.21875 C 9.003906 16.269531 9.105469 16.390625 9.117188 16.578125 C 9.046875 16.667969 8.957031 16.691406 8.851562 16.652344 C 8.78125 16.589844 8.699219 16.542969 8.613281 16.507812 C 8.050781 16.332031 7.492188 16.15625 6.933594 15.980469 C 6.871094 15.875 6.871094 15.769531 6.933594 15.667969 Z M 6.933594 15.667969 "/>
</g>
<mask id="mask11">
  <g filter="url(#alpha)">
<rect x="0" y="0" width="50" height="50" style="fill:rgb(0%,0%,0%);fill-opacity:0.980392;stroke:none;"/>
  </g>
</mask>
<clipPath id="clip12">
  <rect width="50" height="50"/>
</clipPath>
<g id="surface39" clip-path="url(#clip12)">
<path style=" stroke:none;fill-rule:evenodd;fill:rgb(63.529412%,21.960784%,16.862745%);fill-opacity:1;" d="M 16.050781 19.167969 C 15.90625 19.167969 15.761719 19.167969 15.617188 19.167969 C 15.488281 18.910156 15.421875 18.640625 15.425781 18.355469 C 15.550781 18.3125 15.667969 18.261719 15.785156 18.210938 C 15.824219 18.21875 15.855469 18.234375 15.882812 18.257812 C 15.960938 18.558594 16.019531 18.863281 16.050781 19.167969 Z M 16.050781 19.167969 "/>
</g>
<mask id="mask12">
  <g filter="url(#alpha)">
<rect x="0" y="0" width="50" height="50" style="fill:rgb(0%,0%,0%);fill-opacity:0.941176;stroke:none;"/>
  </g>
</mask>
<clipPath id="clip13">
  <rect width="50" height="50"/>
</clipPath>
<g id="surface42" clip-path="url(#clip13)">
<path style=" stroke:none;fill-rule:evenodd;fill:rgb(78.039216%,78.039216%,78.039216%);fill-opacity:1;" d="M 16.433594 19.601562 C 16.503906 19.675781 16.519531 19.753906 16.484375 19.839844 C 16.4375 19.765625 16.421875 19.6875 16.433594 19.601562 Z M 16.433594 19.601562 "/>
</g>
<mask id="mask13">
  <g filter="url(#alpha)">
<rect x="0" y="0" width="50" height="50" style="fill:rgb(0%,0%,0%);fill-opacity:0.992157;stroke:none;"/>
  </g>
</mask>
<clipPath id="clip14">
  <rect width="50" height="50"/>
</clipPath>
<g id="surface45" clip-path="url(#clip14)">
<path style=" stroke:none;fill-rule:evenodd;fill:rgb(83.529412%,83.529412%,83.529412%);fill-opacity:1;" d="M 12.308594 19.746094 C 12.5625 19.855469 12.820312 19.96875 13.074219 20.082031 C 13.125 20.105469 13.132812 20.136719 13.101562 20.175781 C 12.875 20.117188 12.65625 20.03125 12.453125 19.914062 C 12.378906 19.878906 12.328125 19.820312 12.308594 19.746094 Z M 12.308594 19.746094 "/>
</g>
<mask id="mask14">
  <g filter="url(#alpha)">
<rect x="0" y="0" width="50" height="50" style="fill:rgb(0%,0%,0%);fill-opacity:0.996078;stroke:none;"/>
  </g>
</mask>
<clipPath id="clip15">
  <rect width="50" height="50"/>
</clipPath>
<g id="surface48" clip-path="url(#clip15)">
<path style=" stroke:none;fill-rule:evenodd;fill:rgb(94.509804%,94.509804%,94.509804%);fill-opacity:1;" d="M 18.210938 21.183594 C 18.441406 21.195312 18.570312 21.324219 18.59375 21.570312 C 18.589844 21.613281 18.574219 21.652344 18.546875 21.6875 C 18.445312 21.726562 18.359375 21.78125 18.28125 21.855469 C 18.101562 21.738281 17.917969 21.628906 17.730469 21.519531 C 17.875 21.386719 18.035156 21.273438 18.210938 21.183594 Z M 18.210938 21.183594 "/>
</g>
<mask id="mask15">
  <g filter="url(#alpha)">
<rect x="0" y="0" width="50" height="50" style="fill:rgb(0%,0%,0%);fill-opacity:0.941176;stroke:none;"/>
  </g>
</mask>
<clipPath id="clip16">
  <rect width="50" height="50"/>
</clipPath>
<g id="surface51" clip-path="url(#clip16)">
<path style=" stroke:none;fill-rule:evenodd;fill:rgb(99.607843%,100%,99.607843%);fill-opacity:1;" d="M 34.332031 24.113281 C 34.492188 24.101562 34.609375 24.164062 34.691406 24.304688 C 35 24.746094 35.273438 25.210938 35.507812 25.695312 C 35.542969 25.832031 35.527344 25.957031 35.460938 26.078125 C 35.234375 26.25 34.996094 26.390625 34.742188 26.511719 C 34.550781 26.433594 34.410156 26.308594 34.308594 26.128906 C 34.023438 25.660156 33.742188 25.1875 33.46875 24.710938 C 33.476562 24.675781 33.492188 24.644531 33.515625 24.617188 C 33.792969 24.445312 34.0625 24.277344 34.332031 24.113281 Z M 34.332031 24.113281 "/>
</g>
<mask id="mask16">
  <g filter="url(#alpha)">
<rect x="0" y="0" width="50" height="50" style="fill:rgb(0%,0%,0%);fill-opacity:0.933333;stroke:none;"/>
  </g>
</mask>
<clipPath id="clip17">
  <rect width="50" height="50"/>
</clipPath>
<g id="surface54" clip-path="url(#clip17)">
<path style=" stroke:none;fill-rule:evenodd;fill:rgb(1.176471%,0.784314%,0.784314%);fill-opacity:1;" d="M 38.652344 25.023438 C 38.816406 25.015625 38.976562 25.039062 39.132812 25.097656 C 39.730469 25.730469 40.179688 26.457031 40.476562 27.277344 C 40.449219 27.394531 40.410156 27.507812 40.355469 27.613281 C 40.113281 27.871094 39.859375 28.113281 39.585938 28.335938 C 39.5625 28.414062 39.554688 28.492188 39.5625 28.574219 C 39.449219 28.558594 39.335938 28.550781 39.226562 28.550781 C 38.675781 28.976562 38.125 29.398438 37.570312 29.824219 C 37.871094 31.089844 38.351562 32.292969 39.011719 33.421875 C 40.34375 35.535156 41.765625 37.582031 43.28125 39.5625 C 43.753906 40.316406 44.25 41.050781 44.769531 41.769531 C 44.867188 41.882812 44.980469 41.980469 45.105469 42.058594 C 45.179688 42.195312 45.1875 42.332031 45.128906 42.464844 C 45.066406 42.5 45 42.5 44.9375 42.464844 C 44.753906 42.332031 44.585938 42.179688 44.433594 42.011719 C 43.191406 43.035156 41.824219 43.875 40.332031 44.53125 C 39.804688 44.761719 39.277344 44.988281 38.746094 45.203125 C 38.328125 45.28125 37.914062 45.378906 37.5 45.488281 C 37.261719 45.503906 37.019531 45.519531 36.78125 45.539062 C 36.710938 45.628906 36.679688 45.734375 36.683594 45.847656 C 36.746094 46.085938 36.773438 46.328125 36.757812 46.570312 C 36.691406 46.621094 36.617188 46.628906 36.539062 46.59375 C 36.285156 45.566406 35.988281 44.550781 35.652344 43.546875 C 35.339844 41.925781 35.019531 40.308594 34.691406 38.699219 C 34.40625 37.730469 34.054688 36.785156 33.636719 35.867188 C 33.589844 35.726562 33.558594 35.585938 33.542969 35.4375 C 32.953125 35.148438 32.375 34.84375 31.8125 34.523438 C 31.789062 34.570312 31.78125 34.617188 31.789062 34.667969 C 31.53125 34.652344 31.273438 34.609375 31.023438 34.550781 C 30.957031 34.371094 30.90625 34.1875 30.878906 33.996094 C 30.445312 34.046875 30.011719 34.109375 29.582031 34.1875 C 29.390625 34.167969 29.195312 34.136719 29.007812 34.09375 C 28.824219 34.140625 28.648438 34.117188 28.480469 34.019531 C 28.761719 33.589844 29.074219 33.183594 29.414062 32.796875 C 29.472656 32.628906 29.503906 32.453125 29.511719 32.269531 C 29.679688 32.015625 29.832031 31.753906 29.964844 31.476562 C 29.601562 31.089844 29.425781 30.628906 29.4375 30.085938 C 29.433594 29.542969 29.570312 29.039062 29.847656 28.574219 C 30.027344 28.386719 30.242188 28.25 30.496094 28.167969 C 30.730469 27.90625 30.917969 27.613281 31.046875 27.277344 C 31.449219 26.792969 31.96875 26.511719 32.605469 26.441406 C 33.230469 26.378906 33.820312 26.492188 34.382812 26.777344 C 34.507812 26.792969 34.636719 26.808594 34.765625 26.824219 C 35 26.976562 35.246094 27.097656 35.507812 27.183594 C 36 26.804688 36.503906 26.445312 37.019531 26.105469 C 37.148438 26.023438 37.226562 25.914062 37.261719 25.769531 C 37.320312 25.746094 37.386719 25.734375 37.453125 25.742188 C 37.414062 25.570312 37.480469 25.496094 37.644531 25.527344 C 37.675781 25.5625 37.699219 25.605469 37.714844 25.648438 C 38.023438 25.425781 38.335938 25.21875 38.652344 25.023438 Z M 38.84375 25.503906 C 38.976562 25.515625 39.082031 25.578125 39.15625 25.695312 C 39.457031 26.171875 39.738281 26.660156 39.996094 27.160156 C 39.964844 27.277344 39.902344 27.375 39.804688 27.445312 C 39.621094 27.558594 39.4375 27.660156 39.25 27.757812 C 39.0625 27.683594 38.917969 27.554688 38.820312 27.375 C 38.550781 26.9375 38.285156 26.5 38.027344 26.054688 C 38.285156 25.847656 38.558594 25.664062 38.84375 25.503906 Z M 41.433594 37.980469 C 41.871094 38.707031 42.339844 39.410156 42.851562 40.089844 C 43.035156 40.347656 43.25 40.574219 43.5 40.761719 C 43.710938 41.109375 43.949219 41.4375 44.21875 41.746094 C 43.738281 42.160156 43.226562 42.53125 42.683594 42.851562 C 41.65625 43.460938 40.601562 44.019531 39.515625 44.53125 C 39.042969 44.707031 38.5625 44.867188 38.074219 45.007812 C 37.574219 45.054688 37.078125 45.125 36.589844 45.226562 C 36.363281 44.523438 36.171875 43.8125 36.011719 43.089844 C 36.027344 43.066406 36.042969 43.042969 36.058594 43.019531 C 36.109375 43.085938 36.175781 43.132812 36.253906 43.164062 C 37.03125 42.851562 37.832031 42.605469 38.652344 42.417969 C 39.898438 41.929688 41.066406 41.308594 42.15625 40.546875 C 42.351562 40.382812 42.511719 40.191406 42.632812 39.972656 C 42.605469 39.890625 42.550781 39.832031 42.464844 39.804688 C 42.0625 40.160156 41.640625 40.488281 41.195312 40.785156 C 39.894531 41.375 38.582031 41.933594 37.261719 42.464844 C 36.839844 42.613281 36.40625 42.675781 35.964844 42.660156 C 35.789062 41.917969 35.628906 41.175781 35.484375 40.425781 C 36.3125 40.230469 37.144531 40.0625 37.980469 39.921875 C 38.523438 39.667969 39.066406 39.410156 39.609375 39.15625 C 40.207031 38.726562 40.8125 38.335938 41.433594 37.980469 Z M 41.433594 37.980469 "/>
</g>
<mask id="mask17">
  <g filter="url(#alpha)">
<rect x="0" y="0" width="50" height="50" style="fill:rgb(0%,0%,0%);fill-opacity:0.482353;stroke:none;"/>
  </g>
</mask>
<clipPath id="clip18">
  <rect width="50" height="50"/>
</clipPath>
<g id="surface57" clip-path="url(#clip18)">
<path style=" stroke:none;fill-rule:evenodd;fill:rgb(99.607843%,100%,99.607843%);fill-opacity:1;" d="M 20.992188 25.601562 C 21.035156 25.632812 21.050781 25.683594 21.042969 25.742188 C 20.738281 25.761719 20.722656 25.710938 20.992188 25.601562 Z M 20.992188 25.601562 "/>
</g>
<mask id="mask18">
  <g filter="url(#alpha)">
<rect x="0" y="0" width="50" height="50" style="fill:rgb(0%,0%,0%);fill-opacity:0.67451;stroke:none;"/>
  </g>
</mask>
<clipPath id="clip19">
  <rect width="50" height="50"/>
</clipPath>
<g id="surface60" clip-path="url(#clip19)">
<path style=" stroke:none;fill-rule:evenodd;fill:rgb(78.823529%,78.823529%,78.823529%);fill-opacity:1;" d="M 26.128906 26.558594 C 26.140625 26.667969 26.125 26.761719 26.078125 26.847656 C 26.015625 26.675781 25.992188 26.5 26.007812 26.320312 C 26.042969 26.40625 26.082031 26.488281 26.128906 26.558594 Z M 26.128906 26.558594 "/>
</g>
<mask id="mask19">
  <g filter="url(#alpha)">
<rect x="0" y="0" width="50" height="50" style="fill:rgb(0%,0%,0%);fill-opacity:0.772549;stroke:none;"/>
  </g>
</mask>
<clipPath id="clip20">
  <rect width="50" height="50"/>
</clipPath>
<g id="surface63" clip-path="url(#clip20)">
<path style=" stroke:none;fill-rule:evenodd;fill:rgb(0%,0%,0%);fill-opacity:1;" d="M 22.914062 27.277344 C 22.941406 27.285156 22.964844 27.300781 22.984375 27.328125 C 22.976562 27.605469 22.929688 27.875 22.839844 28.144531 C 22.640625 28.265625 22.578125 28.199219 22.648438 27.949219 C 22.695312 27.707031 22.785156 27.480469 22.914062 27.277344 Z M 22.914062 27.277344 "/>
</g>
<mask id="mask20">
  <g filter="url(#alpha)">
<rect x="0" y="0" width="50" height="50" style="fill:rgb(0%,0%,0%);fill-opacity:0.745098;stroke:none;"/>
  </g>
</mask>
<clipPath id="clip21">
  <rect width="50" height="50"/>
</clipPath>
<g id="surface66" clip-path="url(#clip21)">
<path style=" stroke:none;fill-rule:evenodd;fill:rgb(0%,0%,0%);fill-opacity:1;" d="M 23.488281 27.421875 C 23.574219 27.441406 23.621094 27.496094 23.632812 27.589844 C 23.582031 27.773438 23.53125 27.957031 23.488281 28.144531 C 23.398438 28.328125 23.316406 28.328125 23.25 28.144531 C 23.300781 27.890625 23.382812 27.648438 23.488281 27.421875 Z M 23.488281 27.421875 "/>
</g>
<mask id="mask21">
  <g filter="url(#alpha)">
<rect x="0" y="0" width="50" height="50" style="fill:rgb(0%,0%,0%);fill-opacity:0.788235;stroke:none;"/>
  </g>
</mask>
<clipPath id="clip22">
  <rect width="50" height="50"/>
</clipPath>
<g id="surface69" clip-path="url(#clip22)">
<path style=" stroke:none;fill-rule:evenodd;fill:rgb(0%,0%,0%);fill-opacity:1;" d="M 23.921875 28 C 24.042969 28.007812 24.082031 28.074219 24.039062 28.191406 C 23.769531 28.628906 23.457031 29.035156 23.105469 29.414062 C 22.65625 29.710938 22.34375 29.609375 22.167969 29.101562 C 22.132812 28.78125 22.144531 28.460938 22.191406 28.144531 C 22.257812 28.136719 22.3125 28.152344 22.359375 28.191406 C 22.378906 28.375 22.371094 28.558594 22.335938 28.742188 C 22.332031 28.972656 22.414062 29.164062 22.578125 29.320312 C 22.722656 29.359375 22.851562 29.328125 22.960938 29.222656 C 23.308594 28.835938 23.628906 28.425781 23.921875 28 Z M 23.921875 28 "/>
</g>
<mask id="mask22">
  <g filter="url(#alpha)">
<rect x="0" y="0" width="50" height="50" style="fill:rgb(0%,0%,0%);fill-opacity:0.462745;stroke:none;"/>
  </g>
</mask>
<clipPath id="clip23">
  <rect width="50" height="50"/>
</clipPath>
<g id="surface72" clip-path="url(#clip23)">
<path style=" stroke:none;fill-rule:evenodd;fill:rgb(99.607843%,100%,99.607843%);fill-opacity:1;" d="M 24.734375 29.679688 C 24.859375 29.765625 24.84375 29.84375 24.6875 29.917969 C 24.65625 29.835938 24.671875 29.757812 24.734375 29.679688 Z M 24.734375 29.679688 "/>
</g>
<mask id="mask23">
  <g filter="url(#alpha)">
<rect x="0" y="0" width="50" height="50" style="fill:rgb(0%,0%,0%);fill-opacity:0.921569;stroke:none;"/>
  </g>
</mask>
<clipPath id="clip24">
  <rect width="50" height="50"/>
</clipPath>
<g id="surface75" clip-path="url(#clip24)">
<path style=" stroke:none;fill-rule:evenodd;fill:rgb(98.431373%,98.431373%,98.431373%);fill-opacity:1;" d="M 8.277344 35.148438 C 8.242188 35.253906 8.179688 35.34375 8.085938 35.414062 C 7.75 35.683594 7.414062 35.957031 7.078125 36.226562 C 6.839844 36.417969 6.585938 36.570312 6.308594 36.683594 C 6.304688 36.65625 6.289062 36.628906 6.261719 36.613281 C 6.765625 35.988281 7.324219 35.421875 7.941406 34.910156 C 8.066406 34.972656 8.179688 35.050781 8.277344 35.148438 Z M 8.277344 35.148438 "/>
</g>
<mask id="mask24">
  <g filter="url(#alpha)">
<rect x="0" y="0" width="50" height="50" style="fill:rgb(0%,0%,0%);fill-opacity:0.921569;stroke:none;"/>
  </g>
</mask>
<clipPath id="clip25">
  <rect width="50" height="50"/>
</clipPath>
<g id="surface78" clip-path="url(#clip25)">
<path style=" stroke:none;fill-rule:evenodd;fill:rgb(0%,0%,0%);fill-opacity:1;" d="M 21.953125 37.644531 C 22.085938 37.65625 22.191406 37.71875 22.265625 37.835938 C 22.824219 38.875 23.511719 39.816406 24.328125 40.667969 C 24.425781 41.003906 24.304688 41.136719 23.96875 41.074219 C 23.375 40.484375 22.855469 39.835938 22.410156 39.132812 C 22.421875 39.890625 22.355469 40.640625 22.21875 41.386719 C 22.121094 41.574219 21.988281 41.613281 21.808594 41.507812 C 21.734375 41.425781 21.703125 41.332031 21.714844 41.21875 C 21.792969 40.726562 21.839844 40.230469 21.855469 39.730469 C 21.863281 39.511719 21.839844 39.292969 21.785156 39.082031 C 21.351562 40.003906 20.785156 40.828125 20.082031 41.554688 C 19.777344 41.585938 19.65625 41.449219 19.722656 41.148438 C 20.597656 40.175781 21.269531 39.074219 21.738281 37.835938 C 21.804688 37.761719 21.875 37.695312 21.953125 37.644531 Z M 21.953125 37.644531 "/>
</g>
<mask id="mask25">
  <g filter="url(#alpha)">
<rect x="0" y="0" width="50" height="50" style="fill:rgb(0%,0%,0%);fill-opacity:0.905882;stroke:none;"/>
  </g>
</mask>
<clipPath id="clip26">
  <rect width="50" height="50"/>
</clipPath>
<g id="surface81" clip-path="url(#clip26)">
<path style=" stroke:none;fill-rule:evenodd;fill:rgb(0%,0%,0%);fill-opacity:1;" d="M 21.328125 42.585938 C 21.648438 42.53125 21.785156 42.660156 21.738281 42.96875 C 21.496094 43.65625 21.191406 44.3125 20.824219 44.9375 C 20.679688 45.15625 20.519531 45.171875 20.34375 44.984375 C 20.3125 44.875 20.3125 44.761719 20.34375 44.648438 C 20.496094 44.441406 20.625 44.21875 20.730469 43.976562 C 20.886719 43.492188 21.089844 43.03125 21.328125 42.585938 Z M 21.328125 42.585938 "/>
</g>
<mask id="mask26">
  <g filter="url(#alpha)">
<rect x="0" y="0" width="50" height="50" style="fill:rgb(0%,0%,0%);fill-opacity:0.901961;stroke:none;"/>
  </g>
</mask>
<clipPath id="clip27">
  <rect width="50" height="50"/>
</clipPath>
<g id="surface84" clip-path="url(#clip27)">
<path style=" stroke:none;fill-rule:evenodd;fill:rgb(0%,0%,0%);fill-opacity:1;" d="M 19.410156 46.136719 C 19.554688 46.128906 19.699219 46.136719 19.839844 46.160156 C 19.933594 46.265625 19.957031 46.382812 19.914062 46.519531 C 19.757812 46.621094 19.605469 46.722656 19.457031 46.832031 C 19.089844 47.1875 18.703125 47.523438 18.304688 47.839844 C 18.0625 47.976562 17.886719 47.921875 17.777344 47.671875 C 17.808594 47.609375 17.832031 47.546875 17.851562 47.480469 C 18.414062 47.082031 18.933594 46.636719 19.410156 46.136719 Z M 19.410156 46.136719 "/>
</g>
<mask id="mask27">
  <g filter="url(#alpha)">
<rect x="0" y="0" width="50" height="50" style="fill:rgb(0%,0%,0%);fill-opacity:0.913725;stroke:none;"/>
  </g>
</mask>
<clipPath id="clip28">
  <rect width="50" height="50"/>
</clipPath>
<g id="surface87" clip-path="url(#clip28)">
<path style=" stroke:none;fill-rule:evenodd;fill:rgb(0%,0%,0%);fill-opacity:1;" d="M 16.722656 48.199219 C 17 48.148438 17.160156 48.257812 17.203125 48.535156 C 17.164062 48.597656 17.117188 48.65625 17.058594 48.703125 C 16.363281 49.011719 15.644531 49.21875 14.898438 49.328125 C 14.707031 49.171875 14.707031 49.011719 14.898438 48.847656 C 15.511719 48.636719 16.121094 48.417969 16.722656 48.199219 Z M 16.722656 48.199219 "/>
</g>
<mask id="mask28">
  <g filter="url(#alpha)">
<rect x="0" y="0" width="50" height="50" style="fill:rgb(0%,0%,0%);fill-opacity:0.909804;stroke:none;"/>
  </g>
</mask>
<clipPath id="clip29">
  <rect width="50" height="50"/>
</clipPath>
<g id="surface90" clip-path="url(#clip29)">
<path style=" stroke:none;fill-rule:evenodd;fill:rgb(0%,0%,0%);fill-opacity:1;" d="M 13.21875 49.0625 C 13.414062 49.09375 13.582031 49.175781 13.722656 49.304688 C 13.773438 49.457031 13.734375 49.578125 13.605469 49.664062 C 12.921875 49.671875 12.242188 49.730469 11.5625 49.832031 C 11.242188 49.789062 11.152344 49.621094 11.300781 49.328125 C 11.949219 49.25 12.589844 49.160156 13.21875 49.0625 Z M 13.21875 49.0625 "/>
</g>
</defs>
<g id="surface1">
<use xlink:href="#surface6" mask="url(#mask0)"/>
<use xlink:href="#surface9" mask="url(#mask1)"/>
<path style=" stroke:none;fill-rule:evenodd;fill:rgb(99.607843%,99.607843%,99.607843%);fill-opacity:1;" d="M 40.476562 4.964844 C 40.878906 5.144531 41.261719 5.359375 41.625 5.613281 C 42.257812 6.191406 42.910156 6.734375 43.59375 7.246094 C 44.597656 8.203125 45.550781 9.203125 46.449219 10.246094 C 46.480469 10.277344 46.480469 10.308594 46.449219 10.339844 C 45.800781 11.226562 45.066406 12.042969 44.242188 12.789062 C 43.019531 14.152344 41.78125 15.503906 40.523438 16.84375 C 39.628906 17.5625 38.730469 18.28125 37.835938 19 C 37.074219 19.472656 36.292969 19.90625 35.484375 20.296875 C 35.109375 20.457031 34.726562 20.488281 34.332031 20.394531 C 34.285156 20.289062 34.292969 20.1875 34.355469 20.082031 C 34.703125 19.589844 35.101562 19.144531 35.554688 18.738281 C 35.585938 18.65625 35.554688 18.605469 35.460938 18.59375 C 34.839844 19.003906 34.210938 19.394531 33.566406 19.769531 C 33.199219 19.882812 32.828125 19.992188 32.460938 20.105469 C 32.152344 20.148438 31.847656 20.132812 31.550781 20.058594 C 31.484375 19.980469 31.453125 19.894531 31.453125 19.792969 C 31.511719 19.429688 31.6875 19.132812 31.980469 18.90625 C 32.566406 18.574219 33.125 18.207031 33.660156 17.800781 C 33.726562 17.726562 33.757812 17.636719 33.757812 17.539062 C 32.964844 18.023438 32.132812 18.445312 31.261719 18.808594 C 30.824219 18.976562 30.375 19.015625 29.917969 18.929688 C 29.773438 18.605469 29.8125 18.304688 30.039062 18.019531 C 31.074219 17.175781 32.121094 16.351562 33.179688 15.546875 C 33.355469 15.441406 33.417969 15.296875 33.375 15.113281 C 33.132812 15.125 32.894531 15.15625 32.652344 15.210938 C 31.992188 15.257812 31.335938 15.222656 30.6875 15.113281 C 30.394531 14.957031 30.320312 14.726562 30.46875 14.417969 C 30.628906 14.261719 30.8125 14.140625 31.023438 14.058594 C 32.460938 13.84375 33.757812 13.300781 34.910156 12.429688 C 35.703125 11.523438 36.476562 10.601562 37.234375 9.667969 C 38.304688 8.089844 39.382812 6.523438 40.476562 4.964844 Z M 40.476562 4.964844 "/>
<use xlink:href="#surface12" mask="url(#mask2)"/>
<use xlink:href="#surface15" mask="url(#mask3)"/>
<use xlink:href="#surface18" mask="url(#mask4)"/>
<use xlink:href="#surface21" mask="url(#mask5)"/>
<use xlink:href="#surface24" mask="url(#mask6)"/>
<use xlink:href="#surface27" mask="url(#mask7)"/>
<use xlink:href="#surface30" mask="url(#mask8)"/>
<path style=" stroke:none;fill-rule:evenodd;fill:rgb(66.27451%,22.745098%,17.647059%);fill-opacity:1;" d="M 30.496094 13.652344 C 30.59375 13.683594 30.640625 13.753906 30.636719 13.867188 C 30.492188 14.039062 30.34375 14.207031 30.183594 14.371094 C 30.121094 14.699219 30.175781 15.003906 30.351562 15.28125 C 30.511719 15.332031 30.671875 15.378906 30.832031 15.425781 C 30.917969 15.886719 30.957031 16.351562 30.949219 16.820312 C 30.53125 17.171875 30.148438 17.554688 29.796875 17.96875 C 29.542969 18.332031 29.527344 18.699219 29.75 19.074219 C 29.898438 19.1875 30.066406 19.238281 30.253906 19.21875 C 30.664062 19.175781 31.0625 19.097656 31.453125 18.976562 C 31.46875 18.992188 31.484375 19.011719 31.5 19.027344 C 31.144531 19.425781 31.125 19.832031 31.453125 20.25 C 31.679688 20.363281 31.921875 20.398438 32.171875 20.34375 C 32.71875 20.277344 33.246094 20.140625 33.757812 19.9375 C 33.871094 19.933594 33.960938 19.980469 34.019531 20.082031 C 34.042969 20.238281 34.082031 20.390625 34.140625 20.539062 C 34.121094 20.582031 34.089844 20.613281 34.046875 20.632812 C 33.0625 20.722656 32.085938 20.851562 31.117188 21.015625 C 30.769531 21.09375 30.570312 21.3125 30.519531 21.664062 C 30.277344 22.90625 30 24.136719 29.679688 25.359375 C 29.617188 25.320312 29.558594 25.273438 29.511719 25.214844 C 28.984375 24.375 28.425781 23.558594 27.832031 22.769531 C 27.652344 22.40625 27.46875 22.046875 27.277344 21.6875 C 27.203125 21.648438 27.125 21.617188 27.039062 21.59375 C 26.808594 21.585938 26.574219 21.578125 26.34375 21.570312 C 25.640625 21.632812 24.9375 21.695312 24.230469 21.761719 C 23.933594 21.761719 23.636719 21.738281 23.34375 21.6875 C 23.300781 21.671875 23.269531 21.636719 23.25 21.59375 C 23.28125 21.503906 23.320312 21.414062 23.367188 21.328125 C 23.992188 20.640625 24.617188 19.953125 25.238281 19.265625 C 25.363281 19.109375 25.464844 18.941406 25.550781 18.761719 C 25.085938 17.5 24.605469 16.246094 24.113281 14.996094 C 24.1875 14.941406 24.269531 14.933594 24.351562 14.972656 C 25.511719 15.394531 26.621094 15.914062 27.6875 16.53125 C 28.023438 16.222656 28.328125 15.886719 28.597656 15.523438 C 29.257812 14.917969 29.890625 14.296875 30.496094 13.652344 Z M 30.496094 13.652344 "/>
<use xlink:href="#surface33" mask="url(#mask9)"/>
<use xlink:href="#surface36" mask="url(#mask10)"/>
<path style=" stroke:none;fill-rule:evenodd;fill:rgb(64.313725%,22.352941%,17.254902%);fill-opacity:1;" d="M 16.53125 16.386719 C 16.644531 16.378906 16.753906 16.386719 16.867188 16.410156 C 16.964844 16.445312 17.027344 16.507812 17.058594 16.601562 C 16.941406 17.066406 16.683594 17.425781 16.289062 17.683594 C 16.261719 17.671875 16.238281 17.65625 16.21875 17.632812 C 16.1875 17.363281 16.1875 17.089844 16.21875 16.820312 C 16.296875 16.652344 16.402344 16.507812 16.53125 16.386719 Z M 16.53125 16.386719 "/>
<path style=" stroke:none;fill-rule:evenodd;fill:rgb(72.156863%,70.196078%,70.196078%);fill-opacity:1;" d="M 16.050781 16.578125 C 16.109375 16.625 16.101562 16.675781 16.027344 16.722656 C 16.003906 16.671875 16.011719 16.621094 16.050781 16.578125 Z M 16.050781 16.578125 "/>
<path style=" stroke:none;fill-rule:evenodd;fill:rgb(65.098039%,22.352941%,17.647059%);fill-opacity:1;" d="M 13.605469 16.722656 C 13.957031 16.742188 14.253906 16.886719 14.492188 17.15625 C 14.707031 17.445312 14.859375 17.765625 14.945312 18.113281 C 14.570312 18.195312 14.203125 18.171875 13.84375 18.042969 C 13.308594 17.679688 13.226562 17.238281 13.605469 16.722656 Z M 13.605469 16.722656 "/>
<use xlink:href="#surface39" mask="url(#mask11)"/>
<path style=" stroke:none;fill-rule:evenodd;fill:rgb(97.647059%,97.647059%,97.647059%);fill-opacity:1;" d="M 18.257812 19.503906 C 18.960938 19.628906 19.628906 19.847656 20.273438 20.152344 C 20.667969 20.476562 20.636719 20.765625 20.175781 21.015625 C 19.761719 21.175781 19.328125 21.222656 18.882812 21.160156 C 18.644531 20.710938 18.410156 20.253906 18.1875 19.792969 C 18.167969 19.6875 18.191406 19.59375 18.257812 19.503906 Z M 18.257812 19.503906 "/>
<use xlink:href="#surface42" mask="url(#mask12)"/>
<path style=" stroke:none;fill-rule:evenodd;fill:rgb(96.862745%,96.862745%,96.862745%);fill-opacity:1;" d="M 17.730469 19.839844 C 17.847656 19.824219 17.917969 19.871094 17.945312 19.984375 C 18.042969 20.242188 18.136719 20.496094 18.234375 20.753906 C 18.265625 20.816406 18.265625 20.882812 18.234375 20.945312 C 17.941406 21.226562 17.597656 21.34375 17.203125 21.304688 C 17.003906 21.246094 16.8125 21.175781 16.625 21.089844 C 16.867188 20.90625 17.097656 20.714844 17.324219 20.511719 C 17.34375 20.46875 17.355469 20.421875 17.347656 20.371094 C 16.808594 20.605469 16.246094 20.789062 15.667969 20.921875 C 15.535156 20.960938 15.40625 20.953125 15.28125 20.898438 C 15.242188 20.851562 15.234375 20.804688 15.257812 20.753906 C 15.960938 20.496094 16.671875 20.265625 17.394531 20.058594 C 17.527344 20.007812 17.636719 19.9375 17.730469 19.839844 Z M 17.730469 19.839844 "/>
<use xlink:href="#surface45" mask="url(#mask13)"/>
<path style=" stroke:none;fill-rule:evenodd;fill:rgb(99.607843%,99.607843%,99.607843%);fill-opacity:1;" d="M 13.410156 20.464844 C 13.734375 20.46875 14.054688 20.492188 14.371094 20.539062 C 14.480469 20.691406 14.574219 20.851562 14.660156 21.015625 C 14.167969 21.257812 13.714844 21.554688 13.292969 21.90625 C 13.25 22.058594 13.308594 22.113281 13.460938 22.074219 C 14.171875 21.382812 15.019531 21.128906 16.003906 21.304688 C 16.675781 21.359375 17.285156 21.582031 17.828125 21.976562 C 18.167969 22.285156 18.199219 22.621094 17.921875 22.984375 C 17.816406 23.046875 17.703125 23.09375 17.585938 23.128906 C 17.121094 23.144531 16.660156 23.160156 16.195312 23.175781 C 15.835938 23.464844 15.515625 23.792969 15.234375 24.160156 C 15.308594 24.253906 15.40625 24.277344 15.523438 24.230469 C 15.84375 23.925781 16.179688 23.636719 16.53125 23.367188 C 16.804688 23.335938 17.074219 23.34375 17.347656 23.390625 C 17.914062 23.238281 18.492188 23.214844 19.074219 23.320312 C 19.722656 23.402344 19.820312 23.671875 19.363281 24.136719 C 18.894531 24.425781 18.398438 24.648438 17.875 24.808594 C 17.339844 24.925781 16.8125 25.070312 16.289062 25.238281 C 15.9375 25.417969 15.625 25.648438 15.355469 25.9375 C 14.957031 26.445312 14.542969 26.941406 14.109375 27.421875 C 13.503906 28.613281 12.816406 29.75 12.042969 30.832031 C 11.710938 31.351562 11.390625 31.878906 11.085938 32.414062 C 10.507812 32.050781 9.890625 31.769531 9.238281 31.574219 C 8.757812 31.316406 8.277344 31.0625 7.796875 30.804688 C 6.925781 30.191406 6.03125 29.617188 5.109375 29.078125 C 4.902344 28.902344 4.695312 28.726562 4.488281 28.550781 C 5.128906 27.621094 5.808594 26.714844 6.527344 25.839844 C 7.464844 24.871094 8.433594 23.933594 9.429688 23.03125 C 9.964844 22.660156 10.492188 22.277344 11.011719 21.882812 C 11.808594 21.394531 12.605469 20.925781 13.410156 20.464844 Z M 13.410156 20.464844 "/>
<use xlink:href="#surface48" mask="url(#mask14)"/>
<path style=" stroke:none;fill-rule:evenodd;fill:rgb(97.647059%,97.647059%,97.647059%);fill-opacity:1;" d="M 18.976562 21.472656 C 19.503906 21.367188 19.945312 21.507812 20.296875 21.90625 C 20.3125 22.375 20.097656 22.6875 19.648438 22.839844 C 19.203125 22.945312 18.757812 22.988281 18.304688 22.960938 C 18.460938 22.710938 18.53125 22.4375 18.523438 22.144531 C 18.667969 22.050781 18.808594 21.953125 18.953125 21.855469 C 18.976562 21.730469 18.984375 21.601562 18.976562 21.472656 Z M 18.976562 21.472656 "/>
<use xlink:href="#surface51" mask="url(#mask15)"/>
<use xlink:href="#surface54" mask="url(#mask16)"/>
<use xlink:href="#surface57" mask="url(#mask17)"/>
<path style=" stroke:none;fill-rule:evenodd;fill:rgb(65.882353%,22.745098%,17.647059%);fill-opacity:1;" d="M 37.402344 26.367188 C 37.65625 26.691406 37.933594 26.996094 38.242188 27.277344 C 38.425781 27.570312 38.617188 27.84375 38.820312 28.09375 C 37.472656 29.183594 36.074219 30.199219 34.621094 31.140625 C 34.058594 31.808594 33.617188 31.738281 33.300781 30.925781 C 33.214844 30.683594 33.117188 30.441406 33.011719 30.207031 C 32.921875 30.023438 32.886719 29.832031 32.917969 29.628906 C 33.824219 28.964844 34.742188 28.316406 35.675781 27.6875 C 36.265625 27.257812 36.839844 26.816406 37.402344 26.367188 Z M 37.402344 26.367188 "/>
<path style=" stroke:none;fill-rule:evenodd;fill:rgb(98.039216%,98.039216%,98.039216%);fill-opacity:1;" d="M 32.84375 26.65625 C 33.292969 26.636719 33.707031 26.738281 34.09375 26.96875 C 33.371094 27.027344 32.804688 27.355469 32.390625 27.949219 C 32.121094 28.339844 31.96875 28.769531 31.933594 29.246094 C 31.695312 29.316406 31.488281 29.4375 31.308594 29.605469 C 31.261719 29.636719 31.214844 29.636719 31.167969 29.605469 C 30.980469 29.398438 30.898438 29.148438 30.925781 28.863281 C 30.921875 28.03125 31.257812 27.386719 31.933594 26.917969 C 32.234375 26.804688 32.539062 26.714844 32.84375 26.65625 Z M 32.84375 26.65625 "/>
<use xlink:href="#surface60" mask="url(#mask18)"/>
<use xlink:href="#surface63" mask="url(#mask19)"/>
<path style=" stroke:none;fill-rule:evenodd;fill:rgb(98.039216%,98.039216%,98.039216%);fill-opacity:1;" d="M 33.804688 27.277344 C 34.222656 27.246094 34.621094 27.308594 35.003906 27.472656 C 35.011719 27.535156 34.996094 27.589844 34.957031 27.640625 C 34.148438 28.144531 33.382812 28.703125 32.652344 29.320312 C 32.414062 29.398438 32.273438 29.320312 32.222656 29.078125 C 32.421875 28.183594 32.949219 27.585938 33.804688 27.277344 Z M 33.804688 27.277344 "/>
<use xlink:href="#surface66" mask="url(#mask20)"/>
<use xlink:href="#surface69" mask="url(#mask21)"/>
<path style=" stroke:none;fill-rule:evenodd;fill:rgb(97.647059%,97.647059%,97.647059%);fill-opacity:1;" d="M 30.496094 28.429688 C 30.558594 28.429688 30.621094 28.429688 30.6875 28.429688 C 30.574219 28.988281 30.71875 29.460938 31.117188 29.847656 C 30.902344 30.273438 30.800781 30.730469 30.804688 31.214844 C 30.761719 31.332031 30.671875 31.378906 30.542969 31.359375 C 30.082031 31.332031 29.816406 31.09375 29.75 30.636719 C 29.617188 30.039062 29.679688 29.464844 29.941406 28.910156 C 30.085938 28.699219 30.269531 28.539062 30.496094 28.429688 Z M 30.496094 28.429688 "/>
<path style=" stroke:none;fill-rule:evenodd;fill:rgb(50.196078%,65.490196%,48.235294%);fill-opacity:1;" d="M 25.503906 28.71875 C 25.503906 28.765625 25.503906 28.816406 25.503906 28.863281 C 25.449219 28.949219 25.367188 28.996094 25.265625 29.007812 C 25.242188 28.84375 25.28125 28.699219 25.382812 28.574219 C 25.433594 28.617188 25.472656 28.664062 25.503906 28.71875 Z M 25.503906 28.71875 "/>
<path style=" stroke:none;fill-rule:evenodd;fill:rgb(99.607843%,99.607843%,99.607843%);fill-opacity:1;" d="M 31.789062 29.488281 C 32.136719 29.523438 32.433594 29.667969 32.675781 29.917969 C 32.78125 30.472656 32.988281 30.988281 33.300781 31.453125 C 33.582031 31.8125 33.941406 31.9375 34.382812 31.835938 C 34.472656 31.832031 34.542969 31.863281 34.597656 31.933594 C 35.414062 31.34375 36.226562 30.75 37.042969 30.160156 C 37.105469 30.230469 37.152344 30.308594 37.1875 30.398438 C 37.425781 31.253906 37.730469 32.085938 38.101562 32.894531 C 39.042969 34.496094 40.085938 36.03125 41.21875 37.5 C 41.25 37.546875 41.25 37.597656 41.21875 37.644531 C 41.050781 37.78125 40.882812 37.914062 40.714844 38.050781 C 39.792969 38.585938 38.851562 39.082031 37.882812 39.539062 C 37.0625 39.839844 36.214844 40.023438 35.339844 40.089844 C 35.261719 39.757812 35.1875 39.421875 35.125 39.082031 C 34.871094 38.257812 34.628906 37.425781 34.40625 36.589844 C 34.230469 36.035156 33.949219 35.550781 33.566406 35.125 C 33.117188 34.886719 32.667969 34.644531 32.222656 34.40625 C 31.46875 33.875 31.140625 33.148438 31.238281 32.222656 C 31.175781 31.613281 31.160156 31.007812 31.191406 30.398438 C 31.269531 30.011719 31.472656 29.707031 31.789062 29.488281 Z M 31.789062 29.488281 "/>
<use xlink:href="#surface72" mask="url(#mask22)"/>
<path style=" stroke:none;fill-rule:evenodd;fill:rgb(97.254902%,97.254902%,97.254902%);fill-opacity:1;" d="M 30.496094 31.597656 C 30.632812 31.574219 30.753906 31.609375 30.855469 31.695312 C 30.886719 32.28125 30.972656 32.855469 31.117188 33.421875 C 30.804688 33.496094 30.492188 33.578125 30.183594 33.660156 C 29.972656 33.53125 29.769531 33.378906 29.582031 33.207031 C 29.894531 32.671875 30.195312 32.136719 30.496094 31.597656 Z M 30.496094 31.597656 "/>
<path style=" stroke:none;fill-rule:evenodd;fill:rgb(99.215686%,99.215686%,99.215686%);fill-opacity:1;" d="M 16.484375 32.367188 C 17.226562 32.328125 17.960938 32.382812 18.691406 32.535156 C 18.753906 32.59375 18.804688 32.664062 18.832031 32.75 C 18.769531 32.863281 18.769531 32.972656 18.832031 33.085938 C 18.636719 33.273438 18.414062 33.425781 18.164062 33.542969 C 17.601562 33.621094 17.074219 33.796875 16.578125 34.070312 C 16.503906 34.121094 16.472656 34.195312 16.484375 34.285156 C 16.675781 34.292969 16.867188 34.285156 17.058594 34.261719 C 17.902344 33.933594 18.765625 33.867188 19.648438 34.070312 C 19.902344 34.285156 19.902344 34.507812 19.648438 34.742188 C 18.96875 34.96875 18.28125 35.175781 17.585938 35.363281 C 17.273438 35.515625 17.28125 35.632812 17.609375 35.722656 C 18.035156 35.632812 18.460938 35.527344 18.882812 35.414062 C 19.230469 35.351562 19.585938 35.335938 19.9375 35.363281 C 20.445312 35.492188 20.582031 35.789062 20.34375 36.253906 C 20.277344 36.371094 20.1875 36.472656 20.082031 36.5625 C 18.945312 37.285156 17.761719 37.925781 16.53125 38.484375 C 16.363281 38.546875 16.28125 38.667969 16.289062 38.84375 C 16.4375 38.835938 16.578125 38.84375 16.722656 38.867188 C 17.113281 39.007812 17.5 39.167969 17.875 39.347656 C 18.175781 39.515625 18.320312 39.761719 18.304688 40.089844 C 18.09375 40.296875 17.839844 40.398438 17.539062 40.402344 C 16.898438 40.460938 16.261719 40.492188 15.617188 40.5 C 15.175781 40.519531 14.78125 40.671875 14.445312 40.953125 C 13.992188 41.515625 13.5625 42.09375 13.148438 42.683594 C 13.113281 42.710938 13.074219 42.726562 13.027344 42.730469 C 11.402344 41.996094 9.820312 41.191406 8.277344 40.308594 C 7.347656 39.625 6.46875 38.882812 5.636719 38.074219 C 5.664062 38.027344 5.6875 37.980469 5.710938 37.933594 C 6.660156 36.984375 7.691406 36.144531 8.804688 35.414062 C 11.261719 34.117188 13.820312 33.101562 16.484375 32.367188 Z M 16.484375 32.367188 "/>
<use xlink:href="#surface75" mask="url(#mask23)"/>
<use xlink:href="#surface78" mask="url(#mask24)"/>
<use xlink:href="#surface81" mask="url(#mask25)"/>
<use xlink:href="#surface84" mask="url(#mask26)"/>
<use xlink:href="#surface87" mask="url(#mask27)"/>
<use xlink:href="#surface90" mask="url(#mask28)"/>
</g>
</svg>
