<?xml version="1.0" encoding="UTF-8"?>
<svg xmlns="http://www.w3.org/2000/svg" xmlns:xlink="http://www.w3.org/1999/xlink" width="50pt" height="50pt" viewBox="0 0 50 50" version="1.1">
<defs>
<filter id="alpha" filterUnits="objectBoundingBox" x="0%" y="0%" width="100%" height="100%">
  <feColorMatrix type="matrix" in="SourceGraphic" values="0 0 0 0 1 0 0 0 0 1 0 0 0 0 1 0 0 0 1 0"/>
</filter>
<mask id="mask0">
  <g filter="url(#alpha)">
<rect x="0" y="0" width="50" height="50" style="fill:rgb(0%,0%,0%);fill-opacity:0.992157;stroke:none;"/>
  </g>
</mask>
<clipPath id="clip1">
  <rect width="50" height="50"/>
</clipPath>
<g id="surface6" clip-path="url(#clip1)">
<path style=" stroke:none;fill-rule:evenodd;fill:rgb(0%,0%,0%);fill-opacity:1;" d="M 40.675781 16.167969 C 41.703125 16.167969 42.726562 16.238281 43.746094 16.371094 C 44 16.445312 44.175781 16.605469 44.273438 16.851562 C 44.808594 17.015625 45.304688 17.253906 45.761719 17.570312 C 46.128906 17.898438 46.195312 18.277344 45.96875 18.710938 C 45.855469 18.828125 45.722656 18.921875 45.570312 18.988281 C 46.042969 19.203125 46.492188 19.460938 46.914062 19.753906 C 47.222656 20.058594 47.28125 20.410156 47.09375 20.800781 C 46.589844 21.3125 46.046875 21.78125 45.476562 22.214844 C 45.910156 22.511719 46.367188 22.773438 46.84375 23.007812 C 47.21875 23.515625 47.644531 23.984375 48.117188 24.410156 C 48.207031 24.4375 48.292969 24.472656 48.378906 24.507812 C 48.359375 24.566406 48.332031 24.617188 48.296875 24.664062 C 47.703125 25.207031 47.042969 25.648438 46.316406 25.996094 C 47.296875 26.917969 48.140625 27.949219 48.847656 29.082031 C 48.933594 29.390625 48.835938 29.617188 48.546875 29.765625 C 48.441406 29.792969 48.339844 29.820312 48.234375 29.847656 C 48.128906 30.097656 47.945312 30.25 47.683594 30.316406 C 46.527344 30.449219 45.367188 30.535156 44.203125 30.582031 C 41.636719 30.648438 39.066406 30.699219 36.496094 30.726562 C 26.300781 31.042969 16.105469 31.460938 5.917969 31.972656 C 4.386719 32.03125 2.859375 32.015625 1.332031 31.925781 C 1.117188 31.878906 0.96875 31.753906 0.886719 31.554688 C 0.847656 31.367188 0.796875 31.1875 0.730469 31.011719 C 0.742188 30.894531 0.777344 30.789062 0.839844 30.6875 C 1.640625 29.449219 2.515625 28.265625 3.46875 27.136719 C 2.625 26.839844 1.800781 26.5 0.996094 26.117188 C 0.714844 25.835938 0.65625 25.511719 0.816406 25.144531 C 0.878906 25.03125 0.953125 24.933594 1.042969 24.84375 C 1.925781 24.285156 2.804688 23.722656 3.683594 23.164062 C 2.910156 22.605469 2.085938 22.125 1.210938 21.722656 C 0.980469 21.535156 0.886719 21.292969 0.9375 20.992188 C 0.972656 20.800781 1.050781 20.632812 1.175781 20.488281 C 1.730469 19.859375 2.398438 19.394531 3.179688 19.09375 C 3.152344 19.050781 3.121094 19.003906 3.085938 18.964844 C 2.632812 18.761719 2.46875 18.421875 2.59375 17.941406 C 2.652344 17.839844 2.738281 17.765625 2.84375 17.714844 C 3.433594 17.601562 4.023438 17.523438 4.621094 17.476562 C 5.332031 17.410156 6.042969 17.363281 6.757812 17.332031 C 8.917969 17.269531 11.078125 17.222656 13.238281 17.1875 C 19.863281 16.976562 26.488281 16.765625 33.113281 16.5625 C 34.851562 16.472656 36.585938 16.371094 38.320312 16.25 C 39.109375 16.210938 39.894531 16.183594 40.675781 16.167969 Z M 40.675781 16.167969 "/>
</g>
</defs>
<g id="surface1">
<use xlink:href="#surface6" mask="url(#mask0)"/>
<path style=" stroke:none;fill-rule:evenodd;fill:rgb(94.509804%,92.941176%,90.196078%);fill-opacity:1;" d="M 47.78125 28.839844 C 47.625 28.863281 47.464844 28.871094 47.300781 28.863281 C 44.328125 28.839844 41.359375 28.949219 38.394531 29.1875 C 33.519531 29.394531 28.648438 29.609375 23.777344 29.835938 C 18.550781 30.097656 13.328125 30.351562 8.101562 30.605469 C 7.066406 30.652344 6.035156 30.71875 5.003906 30.796875 C 3.972656 30.898438 2.9375 31 1.910156 31.109375 C 2.597656 30.296875 3.265625 29.46875 3.914062 28.625 C 4.222656 28.195312 4.542969 27.769531 4.871094 27.351562 C 5.128906 26.929688 5.109375 26.527344 4.8125 26.140625 C 4.75 26.101562 4.683594 26.058594 4.621094 26.019531 C 3.933594 25.824219 3.261719 25.589844 2.605469 25.3125 C 3.378906 24.765625 4.152344 24.226562 4.933594 23.691406 C 5.277344 23.386719 5.386719 23.015625 5.257812 22.574219 C 5.183594 22.453125 5.089844 22.34375 4.980469 22.25 C 4.179688 21.558594 3.324219 20.941406 2.414062 20.402344 C 2.945312 19.984375 3.554688 19.746094 4.238281 19.683594 C 4.675781 19.507812 4.878906 19.183594 4.847656 18.710938 C 4.816406 18.589844 4.765625 18.476562 4.691406 18.375 C 5.222656 18.359375 5.75 18.34375 6.277344 18.328125 C 7.03125 18.3125 7.78125 18.285156 8.535156 18.242188 C 10.125 18.148438 11.71875 18.058594 13.308594 17.980469 C 20.136719 17.71875 26.960938 17.457031 33.785156 17.1875 C 35.503906 17.15625 37.226562 17.140625 38.945312 17.140625 C 39.957031 17.113281 40.964844 17.0625 41.972656 16.996094 C 42.472656 16.9375 42.972656 16.871094 43.472656 16.789062 C 43.5625 16.878906 43.652344 16.972656 43.746094 17.066406 C 43.875 17.140625 44.011719 17.199219 44.15625 17.234375 C 43.964844 17.347656 43.769531 17.457031 43.578125 17.570312 C 43.238281 17.953125 43.199219 18.367188 43.472656 18.808594 C 43.550781 18.910156 43.652344 18.984375 43.769531 19.035156 C 44.445312 19.164062 45.085938 19.386719 45.691406 19.707031 C 45.238281 20.128906 44.757812 20.511719 44.25 20.859375 C 43.910156 21.164062 43.808594 21.535156 43.949219 21.976562 C 44.015625 22.089844 44.101562 22.191406 44.203125 22.277344 C 44.964844 22.917969 45.78125 23.480469 46.652344 23.96875 C 46.175781 24.265625 45.671875 24.5 45.140625 24.675781 C 44.683594 24.933594 44.542969 25.316406 44.71875 25.816406 C 44.796875 25.992188 44.914062 26.140625 45.066406 26.261719 C 46.035156 27.050781 46.941406 27.910156 47.78125 28.839844 Z M 47.78125 28.839844 "/>
<path style=" stroke:none;fill-rule:evenodd;fill:rgb(38.039216%,37.254902%,36.470588%);fill-opacity:1;" d="M 6.277344 18.328125 C 5.75 18.34375 5.222656 18.359375 4.691406 18.375 C 4.679688 18.375 4.671875 18.367188 4.667969 18.351562 C 5.203125 18.328125 5.742188 18.320312 6.277344 18.328125 Z M 6.277344 18.328125 "/>
<path style=" stroke:none;fill-rule:evenodd;fill:rgb(61.568627%,60.392157%,58.823529%);fill-opacity:1;" d="M 47.78125 28.839844 C 47.796875 28.847656 47.816406 28.859375 47.828125 28.875 C 47.648438 28.894531 47.472656 28.890625 47.300781 28.863281 C 47.464844 28.871094 47.625 28.863281 47.78125 28.839844 Z M 47.78125 28.839844 "/>
</g>
</svg>
