<?xml version="1.0" encoding="UTF-8"?>
<svg xmlns="http://www.w3.org/2000/svg" xmlns:xlink="http://www.w3.org/1999/xlink" width="50pt" height="50pt" viewBox="0 0 50 50" version="1.1">
<defs>
<filter id="alpha" filterUnits="objectBoundingBox" x="0%" y="0%" width="100%" height="100%">
  <feColorMatrix type="matrix" in="SourceGraphic" values="0 0 0 0 1 0 0 0 0 1 0 0 0 0 1 0 0 0 1 0"/>
</filter>
<mask id="mask0">
  <g filter="url(#alpha)">
<rect x="0" y="0" width="50" height="50" style="fill:rgb(0%,0%,0%);fill-opacity:0.984314;stroke:none;"/>
  </g>
</mask>
<clipPath id="clip1">
  <rect width="50" height="50"/>
</clipPath>
<g id="surface6" clip-path="url(#clip1)">
<path style=" stroke:none;fill-rule:evenodd;fill:rgb(66.27451%,23.137255%,17.647059%);fill-opacity:1;" d="M 19 4.378906 C 19.261719 4.339844 19.5 4.390625 19.71875 4.535156 C 19.800781 4.648438 19.882812 4.753906 19.972656 4.859375 C 20.039062 5.019531 20.074219 5.1875 20.066406 5.363281 C 20.367188 6.199219 20.644531 7.039062 20.90625 7.886719 C 21.121094 8.527344 21.390625 9.144531 21.722656 9.734375 C 22.34375 10.824219 22.960938 11.921875 23.570312 13.023438 C 23.667969 13.230469 23.765625 13.4375 23.859375 13.644531 C 23.976562 14.140625 23.792969 14.480469 23.320312 14.667969 C 23 14.738281 22.734375 14.652344 22.515625 14.414062 C 22.328125 14.035156 22.136719 13.660156 21.941406 13.285156 C 21.351562 12.285156 20.773438 11.277344 20.210938 10.261719 C 19.992188 11.8125 19.488281 13.257812 18.699219 14.605469 C 18.316406 15.152344 17.929688 15.695312 17.546875 16.238281 C 17.269531 16.648438 17.085938 17.097656 16.996094 17.582031 C 16.921875 18.121094 17.023438 18.628906 17.308594 19.09375 C 17.59375 19.542969 17.933594 19.945312 18.328125 20.308594 C 19.332031 21.222656 20.296875 22.179688 21.21875 23.175781 C 21.972656 24.027344 22.558594 24.988281 22.972656 26.054688 C 23.054688 26.300781 23.136719 26.550781 23.210938 26.800781 C 23.371094 26.320312 23.574219 25.855469 23.8125 25.40625 C 24.335938 24.582031 24.964844 23.84375 25.695312 23.1875 C 26.636719 22.460938 27.660156 21.871094 28.769531 21.410156 C 29.828125 20.945312 30.925781 20.585938 32.058594 20.332031 C 33.148438 20.109375 34.238281 19.871094 35.320312 19.609375 C 36.179688 19.378906 37.003906 19.0625 37.792969 18.652344 C 38.960938 18.03125 40.054688 17.3125 41.082031 16.492188 C 42.378906 15.394531 43.683594 14.304688 44.996094 13.226562 C 44.195312 13.230469 43.421875 13.101562 42.667969 12.84375 C 42.027344 12.667969 41.808594 12.261719 42.007812 11.628906 C 42.230469 11.277344 42.542969 11.152344 42.953125 11.257812 C 43.332031 11.425781 43.722656 11.539062 44.132812 11.59375 C 44.59375 11.628906 45.058594 11.636719 45.523438 11.617188 C 45.941406 11.5625 46.355469 11.507812 46.769531 11.449219 C 47.25 11.109375 47.683594 11.152344 48.078125 11.582031 C 48.273438 11.960938 48.304688 12.351562 48.175781 12.757812 C 47.988281 13.277344 47.789062 13.789062 47.574219 14.292969 C 47.1875 15.484375 46.800781 16.675781 46.421875 17.871094 C 46.238281 18.5 46.117188 19.140625 46.0625 19.792969 C 45.929688 20.175781 45.660156 20.371094 45.246094 20.367188 C 44.765625 20.34375 44.523438 20.089844 44.515625 19.609375 C 44.5625 18.890625 44.6875 18.179688 44.886719 17.488281 C 45.183594 16.53125 45.480469 15.582031 45.773438 14.628906 C 44.707031 15.511719 43.648438 16.40625 42.59375 17.308594 C 41.332031 18.367188 39.972656 19.289062 38.515625 20.066406 C 37.378906 20.652344 36.1875 21.078125 34.9375 21.339844 C 33.910156 21.539062 32.882812 21.765625 31.863281 22.011719 C 30.132812 22.457031 28.523438 23.167969 27.039062 24.148438 C 26.5 24.554688 26.03125 25.027344 25.636719 25.574219 C 25.441406 25.839844 25.257812 26.113281 25.085938 26.390625 C 24.917969 26.757812 24.773438 27.136719 24.652344 27.519531 C 23.960938 29.820312 23.382812 32.148438 22.921875 34.503906 C 22.492188 36.320312 21.941406 38.097656 21.265625 39.835938 C 20.761719 41.089844 20.242188 42.335938 19.707031 43.578125 C 19.328125 44.449219 18.890625 45.28125 18.386719 46.074219 C 18.035156 46.460938 17.640625 46.511719 17.199219 46.230469 C 16.941406 46.03125 16.847656 45.769531 16.921875 45.453125 C 17.625 44.324219 18.222656 43.136719 18.722656 41.898438 C 19.457031 40.210938 20.105469 38.492188 20.667969 36.738281 C 21.148438 35.144531 21.542969 33.527344 21.84375 31.890625 C 21.902344 31.519531 21.949219 31.148438 21.976562 30.773438 C 21.9375 30.15625 21.734375 29.597656 21.363281 29.105469 C 20.882812 28.511719 20.308594 28.027344 19.648438 27.652344 C 18.84375 27.203125 17.996094 26.859375 17.101562 26.621094 C 15.957031 26.296875 14.789062 26.105469 13.597656 26.042969 C 11.589844 26.015625 9.589844 25.871094 7.597656 25.613281 C 6.210938 25.421875 4.859375 25.101562 3.539062 24.652344 C 3.953125 25.511719 4.347656 26.378906 4.730469 27.257812 C 4.882812 27.625 5.019531 28 5.136719 28.382812 C 5.179688 28.828125 4.984375 29.105469 4.546875 29.210938 C 4.171875 29.296875 3.871094 29.179688 3.648438 28.863281 C 3.480469 28.414062 3.304688 27.964844 3.121094 27.519531 C 2.71875 26.644531 2.308594 25.773438 1.894531 24.902344 C 1.730469 24.65625 1.554688 24.414062 1.367188 24.183594 C 1.085938 23.820312 0.972656 23.414062 1.03125 22.960938 C 1.195312 22.582031 1.480469 22.390625 1.894531 22.382812 C 2.132812 22.449219 2.371094 22.5 2.617188 22.527344 C 2.785156 22.515625 2.949219 22.488281 3.109375 22.445312 C 4.417969 21.878906 5.710938 21.285156 6.996094 20.667969 C 7.335938 20.507812 7.664062 20.523438 7.980469 20.714844 C 8.28125 21.046875 8.324219 21.410156 8.113281 21.808594 C 8.042969 21.882812 7.96875 21.953125 7.886719 22.011719 C 6.902344 22.472656 5.917969 22.929688 4.933594 23.378906 C 5.988281 23.722656 7.070312 23.960938 8.171875 24.101562 C 8.890625 24.195312 9.613281 24.265625 10.332031 24.316406 C 11.664062 24.375 12.992188 24.449219 14.316406 24.53125 C 16.101562 24.667969 17.8125 25.085938 19.457031 25.78125 C 20.257812 26.125 20.988281 26.578125 21.652344 27.136719 C 21.476562 26.492188 21.207031 25.894531 20.835938 25.335938 C 20.402344 24.695312 19.914062 24.09375 19.371094 23.535156 C 18.636719 22.816406 17.898438 22.09375 17.164062 21.375 C 16.75 20.941406 16.367188 20.484375 16.011719 20.007812 C 15.472656 19.226562 15.273438 18.359375 15.410156 17.414062 C 15.484375 16.789062 15.695312 16.214844 16.035156 15.6875 C 16.574219 14.972656 17.070312 14.226562 17.523438 13.453125 C 18.195312 12.234375 18.589844 10.929688 18.699219 9.542969 C 18.714844 9.300781 18.714844 9.0625 18.699219 8.820312 C 18.136719 9.804688 17.535156 10.765625 16.898438 11.703125 C 16.734375 11.988281 16.589844 12.285156 16.464844 12.589844 C 16.167969 12.996094 15.796875 13.082031 15.351562 12.84375 C 15.050781 12.621094 14.941406 12.328125 15.027344 11.964844 C 15.195312 11.542969 15.394531 11.132812 15.625 10.742188 C 16.03125 10.066406 16.457031 9.402344 16.898438 8.75 C 17.257812 8.195312 17.5625 7.613281 17.8125 6.996094 C 17.941406 6.425781 18.078125 5.859375 18.21875 5.292969 C 18.289062 5.105469 18.359375 4.921875 18.433594 4.742188 C 18.570312 4.535156 18.757812 4.414062 19 4.378906 Z M 19 4.378906 "/>
</g>
</defs>
<g id="surface1">
<use xlink:href="#surface6" mask="url(#mask0)"/>
</g>
</svg>
