<?xml version="1.0" encoding="UTF-8"?>
<svg xmlns="http://www.w3.org/2000/svg" xmlns:xlink="http://www.w3.org/1999/xlink" width="50pt" height="50pt" viewBox="0 0 50 50" version="1.1">
<defs>
<filter id="alpha" filterUnits="objectBoundingBox" x="0%" y="0%" width="100%" height="100%">
  <feColorMatrix type="matrix" in="SourceGraphic" values="0 0 0 0 1 0 0 0 0 1 0 0 0 0 1 0 0 0 1 0"/>
</filter>
<mask id="mask0">
  <g filter="url(#alpha)">
<rect x="0" y="0" width="50" height="50" style="fill:rgb(0%,0%,0%);fill-opacity:0.988235;stroke:none;"/>
  </g>
</mask>
<clipPath id="clip1">
  <rect width="50" height="50"/>
</clipPath>
<g id="surface6" clip-path="url(#clip1)">
<path style=" stroke:none;fill-rule:evenodd;fill:rgb(66.27451%,23.137255%,18.039216%);fill-opacity:1;" d="M 10.191406 8.558594 C 10.21875 8.792969 10.242188 9.023438 10.261719 9.253906 C 10.257812 9.949219 10.273438 10.644531 10.308594 11.34375 C 10.320312 11.734375 10.328125 12.125 10.332031 12.519531 C 10.367188 13.5625 10.421875 14.609375 10.5 15.652344 C 10.515625 16.175781 10.308594 16.585938 9.878906 16.875 C 9.503906 17.078125 9.101562 17.195312 8.675781 17.234375 C 7.769531 17.308594 6.882812 17.210938 6.011719 16.945312 C 5.40625 16.734375 5.082031 16.304688 5.039062 15.664062 C 5.023438 14.734375 5.027344 13.804688 5.054688 12.878906 C 5.070312 12.46875 5.085938 12.0625 5.101562 11.652344 C 5.132812 11.175781 5.167969 10.695312 5.207031 10.214844 C 5.257812 10.105469 5.34375 10.058594 5.460938 10.070312 C 5.59375 10.058594 5.675781 10.113281 5.714844 10.238281 C 5.746094 10.703125 5.765625 11.164062 5.773438 11.628906 C 5.792969 12.023438 5.800781 12.414062 5.796875 12.804688 C 5.800781 13.609375 5.792969 14.414062 5.773438 15.21875 C 5.757812 15.472656 5.800781 15.71875 5.90625 15.949219 C 5.972656 16.050781 6.058594 16.132812 6.15625 16.203125 C 6.832031 16.488281 7.535156 16.597656 8.269531 16.539062 C 8.632812 16.535156 8.984375 16.472656 9.324219 16.347656 C 9.539062 16.21875 9.695312 16.039062 9.792969 15.804688 C 9.875 15.550781 9.914062 15.285156 9.902344 15.015625 C 9.828125 14.199219 9.78125 13.382812 9.757812 12.566406 C 9.75 12.164062 9.730469 11.765625 9.710938 11.367188 C 9.664062 10.644531 9.648438 9.925781 9.660156 9.207031 C 9.664062 9 9.628906 8.796875 9.554688 8.605469 C 9.542969 8.570312 9.523438 8.546875 9.492188 8.535156 C 9.273438 8.21875 8.96875 8.03125 8.582031 7.96875 C 8.265625 7.910156 7.960938 7.949219 7.667969 8.089844 C 7.488281 8.214844 7.371094 8.386719 7.320312 8.605469 C 7.277344 8.8125 7.25 9.019531 7.238281 9.230469 C 7.296875 9.996094 7.320312 10.765625 7.308594 11.535156 C 7.308594 11.925781 7.308594 12.316406 7.308594 12.710938 C 7.28125 13.371094 7.277344 14.035156 7.296875 14.703125 C 7.296875 14.828125 7.355469 14.882812 7.476562 14.871094 C 7.734375 14.851562 7.984375 14.792969 8.222656 14.691406 C 8.25 14.667969 8.269531 14.640625 8.28125 14.605469 C 8.242188 13.960938 8.214844 13.3125 8.199219 12.660156 C 8.179688 12.269531 8.171875 11.878906 8.171875 11.484375 C 8.179688 11.261719 8.199219 11.035156 8.234375 10.8125 C 8.355469 10.6875 8.472656 10.6875 8.59375 10.8125 C 8.65625 11.019531 8.703125 11.226562 8.726562 11.4375 C 8.792969 11.824219 8.824219 12.21875 8.820312 12.613281 C 8.8125 12.722656 8.820312 12.828125 8.84375 12.925781 C 8.855469 13.175781 8.867188 13.421875 8.882812 13.671875 C 8.929688 13.964844 8.964844 14.261719 8.988281 14.558594 C 9.027344 15.050781 8.808594 15.367188 8.339844 15.507812 C 7.886719 15.632812 7.429688 15.640625 6.972656 15.53125 C 6.789062 15.457031 6.671875 15.328125 6.625 15.132812 C 6.578125 14.9375 6.554688 14.738281 6.554688 14.535156 C 6.550781 13.945312 6.535156 13.363281 6.515625 12.78125 C 6.515625 12.382812 6.515625 11.980469 6.515625 11.582031 C 6.511719 10.8125 6.515625 10.046875 6.527344 9.277344 C 6.515625 8.859375 6.574219 8.453125 6.695312 8.054688 C 6.90625 7.597656 7.261719 7.347656 7.765625 7.296875 C 8.40625 7.210938 9.015625 7.316406 9.589844 7.609375 C 9.949219 7.824219 10.148438 8.136719 10.191406 8.558594 Z M 9.492188 8.535156 C 8.75 8.546875 8.296875 8.914062 8.136719 9.636719 C 8.117188 9.742188 8.101562 9.84375 8.089844 9.949219 C 8.058594 10.460938 8.046875 10.972656 8.054688 11.484375 C 7.804688 11.488281 7.554688 11.503906 7.308594 11.535156 C 7.320312 10.765625 7.296875 9.996094 7.238281 9.230469 C 7.25 9.019531 7.277344 8.8125 7.320312 8.605469 C 7.371094 8.386719 7.488281 8.214844 7.667969 8.089844 C 7.960938 7.949219 8.265625 7.910156 8.582031 7.96875 C 8.96875 8.03125 9.273438 8.21875 9.492188 8.535156 Z M 9.660156 9.207031 C 9.648438 9.925781 9.664062 10.644531 9.710938 11.367188 C 9.414062 11.390625 9.117188 11.414062 8.820312 11.4375 C 8.816406 11.121094 8.800781 10.804688 8.773438 10.488281 C 8.773438 10.222656 8.820312 9.960938 8.90625 9.710938 C 9.054688 9.394531 9.308594 9.226562 9.660156 9.207031 Z M 9.660156 9.207031 "/>
</g>
<mask id="mask1">
  <g filter="url(#alpha)">
<rect x="0" y="0" width="50" height="50" style="fill:rgb(0%,0%,0%);fill-opacity:0.996078;stroke:none;"/>
  </g>
</mask>
<clipPath id="clip2">
  <rect width="50" height="50"/>
</clipPath>
<g id="surface9" clip-path="url(#clip2)">
<path style=" stroke:none;fill-rule:evenodd;fill:rgb(0.392157%,0.392157%,0.392157%);fill-opacity:1;" d="M 45.378906 9.398438 C 45.445312 9.722656 45.496094 10.050781 45.535156 10.382812 C 45.691406 12.0625 45.84375 13.742188 45.992188 15.421875 C 46.363281 19.964844 46.722656 24.511719 47.070312 29.058594 C 47.175781 30.609375 47.269531 32.160156 47.347656 33.714844 C 47.351562 33.859375 47.296875 33.976562 47.179688 34.0625 C 44.992188 35.695312 42.800781 37.320312 40.601562 38.933594 C 40.035156 39.375 39.464844 39.8125 38.898438 40.253906 C 38.386719 40.71875 37.859375 41.15625 37.3125 41.574219 C 37.117188 41.707031 36.917969 41.835938 36.714844 41.957031 C 36.574219 42.023438 36.429688 42.078125 36.28125 42.125 C 33.953125 42.464844 31.625 42.808594 29.296875 43.160156 C 27.402344 43.417969 25.496094 43.570312 23.582031 43.613281 C 23.136719 43.632812 22.6875 43.632812 22.238281 43.613281 C 20.671875 43.515625 19.101562 43.40625 17.535156 43.277344 C 16.277344 43.21875 15.039062 43.332031 13.8125 43.613281 C 11.722656 44.167969 9.601562 44.558594 7.453125 44.792969 C 6.929688 44.828125 6.410156 44.863281 5.894531 44.898438 C 5.53125 44.921875 5.171875 44.925781 4.8125 44.910156 C 4.585938 44.832031 4.449219 44.675781 4.394531 44.441406 C 4.125 37.644531 3.535156 30.875 2.617188 24.136719 C 2.257812 21.621094 1.878906 19.109375 1.488281 16.597656 C 1.328125 15.554688 1.21875 14.507812 1.164062 13.453125 C 1.144531 12.972656 1.289062 12.554688 1.597656 12.195312 C 1.945312 11.917969 2.347656 11.785156 2.796875 11.785156 C 3.566406 11.761719 4.335938 11.714844 5.101562 11.652344 C 5.085938 12.0625 5.070312 12.46875 5.054688 12.878906 C 4.453125 12.90625 3.851562 12.941406 3.253906 12.984375 C 2.582031 12.980469 2.285156 13.3125 2.363281 13.980469 C 2.367188 14.246094 2.386719 14.511719 2.425781 14.773438 C 2.894531 18.070312 3.367188 21.367188 3.839844 24.664062 C 4.640625 31.019531 5.199219 37.398438 5.507812 43.796875 C 7.433594 43.695312 9.335938 43.445312 11.222656 43.039062 C 12.257812 42.800781 13.300781 42.570312 14.34375 42.34375 C 15.441406 42.171875 16.542969 42.117188 17.65625 42.175781 C 19.039062 42.253906 20.425781 42.339844 21.808594 42.4375 C 23.160156 42.472656 24.511719 42.445312 25.863281 42.367188 C 26.984375 42.265625 28.105469 42.148438 29.226562 42.007812 C 31.339844 41.710938 33.453125 41.398438 35.5625 41.070312 C 35.707031 41.050781 35.847656 41.039062 35.992188 41.035156 C 36.296875 38.273438 36.65625 35.523438 37.074219 32.777344 C 37.253906 32.738281 37.4375 32.71875 37.625 32.71875 C 37.691406 32.664062 37.714844 32.597656 37.6875 32.511719 C 37.675781 32.484375 37.652344 32.464844 37.625 32.453125 C 37.476562 32.457031 37.328125 32.476562 37.183594 32.511719 C 37.164062 32.511719 37.152344 32.503906 37.144531 32.488281 C 37.292969 31.753906 37.730469 31.3125 38.464844 31.15625 C 38.746094 31.125 39.027344 31.117188 39.304688 31.132812 C 41.597656 31.34375 43.820312 31.847656 45.980469 32.644531 C 46.183594 32.722656 46.386719 32.816406 46.578125 32.921875 C 46.585938 32.882812 46.59375 32.839844 46.601562 32.800781 C 46.464844 31.578125 46.339844 30.355469 46.230469 29.128906 C 46.078125 27.175781 45.910156 25.222656 45.726562 23.273438 C 45.355469 19.496094 44.976562 15.71875 44.597656 11.941406 C 44.59375 11.371094 44.554688 10.804688 44.480469 10.238281 C 44.371094 9.566406 43.976562 9.222656 43.304688 9.207031 C 41.3125 9.546875 39.308594 9.765625 37.289062 9.867188 C 36.144531 9.90625 35 9.941406 33.855469 9.960938 C 32.496094 9.988281 31.140625 10.125 29.800781 10.371094 C 28.332031 10.664062 26.859375 10.945312 25.382812 11.210938 C 22.773438 11.613281 20.148438 11.898438 17.511719 12.074219 C 15.117188 12.234375 12.726562 12.382812 10.332031 12.519531 C 10.328125 12.125 10.320312 11.734375 10.308594 11.34375 C 10.605469 11.320312 10.902344 11.296875 11.199219 11.269531 C 11.394531 11.292969 11.597656 11.285156 11.796875 11.246094 C 15.035156 11.078125 18.265625 10.859375 21.496094 10.585938 C 22.289062 10.503906 23.082031 10.398438 23.871094 10.273438 C 25.417969 10.007812 26.960938 9.726562 28.503906 9.433594 C 30.1875 9.125 31.882812 8.921875 33.59375 8.832031 C 35.097656 8.769531 36.601562 8.714844 38.105469 8.664062 C 39.796875 8.601562 41.480469 8.425781 43.148438 8.136719 C 43.648438 8.074219 44.128906 8.144531 44.585938 8.351562 C 44.984375 8.601562 45.246094 8.949219 45.378906 9.398438 Z M 45.378906 9.398438 "/>
</g>
<mask id="mask2">
  <g filter="url(#alpha)">
<rect x="0" y="0" width="50" height="50" style="fill:rgb(0%,0%,0%);fill-opacity:0.964706;stroke:none;"/>
  </g>
</mask>
<clipPath id="clip3">
  <rect width="50" height="50"/>
</clipPath>
<g id="surface12" clip-path="url(#clip3)">
<path style=" stroke:none;fill-rule:evenodd;fill:rgb(92.156863%,90.196078%,91.372549%);fill-opacity:1;" d="M 9.492188 8.535156 C 9.523438 8.546875 9.542969 8.570312 9.554688 8.605469 C 9.628906 8.796875 9.664062 9 9.660156 9.207031 C 9.308594 9.226562 9.054688 9.394531 8.90625 9.710938 C 8.820312 9.960938 8.773438 10.222656 8.773438 10.488281 C 8.800781 10.804688 8.816406 11.121094 8.820312 11.4375 C 8.789062 11.4375 8.757812 11.4375 8.726562 11.4375 C 8.703125 11.226562 8.65625 11.019531 8.59375 10.8125 C 8.472656 10.6875 8.355469 10.6875 8.234375 10.8125 C 8.199219 11.035156 8.179688 11.261719 8.171875 11.484375 C 8.132812 11.484375 8.09375 11.484375 8.054688 11.484375 C 8.046875 10.972656 8.058594 10.460938 8.089844 9.949219 C 8.101562 9.84375 8.117188 9.742188 8.136719 9.636719 C 8.296875 8.914062 8.75 8.546875 9.492188 8.535156 Z M 9.492188 8.535156 "/>
</g>
<mask id="mask3">
  <g filter="url(#alpha)">
<rect x="0" y="0" width="50" height="50" style="fill:rgb(0%,0%,0%);fill-opacity:0.964706;stroke:none;"/>
  </g>
</mask>
<clipPath id="clip4">
  <rect width="50" height="50"/>
</clipPath>
<g id="surface15" clip-path="url(#clip4)">
<path style=" stroke:none;fill-rule:evenodd;fill:rgb(92.156863%,90.196078%,91.372549%);fill-opacity:1;" d="M 10.191406 8.558594 C 10.605469 8.605469 10.984375 8.753906 11.316406 9 C 11.605469 9.285156 11.753906 9.636719 11.761719 10.046875 C 11.792969 10.445312 11.804688 10.84375 11.796875 11.246094 C 11.597656 11.285156 11.394531 11.292969 11.199219 11.269531 C 11.203125 10.972656 11.199219 10.675781 11.1875 10.382812 C 11.148438 9.78125 10.84375 9.40625 10.261719 9.253906 C 10.242188 9.023438 10.21875 8.792969 10.191406 8.558594 Z M 10.191406 8.558594 "/>
</g>
<mask id="mask4">
  <g filter="url(#alpha)">
<rect x="0" y="0" width="50" height="50" style="fill:rgb(0%,0%,0%);fill-opacity:0.992157;stroke:none;"/>
  </g>
</mask>
<clipPath id="clip5">
  <rect width="50" height="50"/>
</clipPath>
<g id="surface18" clip-path="url(#clip5)">
<path style=" stroke:none;fill-rule:evenodd;fill:rgb(92.156863%,90.196078%,91.372549%);fill-opacity:1;" d="M 45.378906 9.398438 C 46.089844 9.460938 46.582031 9.824219 46.855469 10.476562 C 46.9375 10.710938 46.996094 10.953125 47.023438 11.199219 C 47.304688 14.050781 47.5625 16.910156 47.792969 19.765625 C 48.070312 23.390625 48.347656 27.015625 48.632812 30.640625 C 48.722656 31.910156 48.796875 33.183594 48.847656 34.457031 C 48.851562 34.636719 48.871094 34.8125 48.90625 34.984375 C 48.902344 35.132812 48.839844 35.25 48.714844 35.332031 C 46.59375 36.917969 44.464844 38.496094 42.332031 40.0625 C 41.726562 40.519531 41.125 40.984375 40.53125 41.453125 C 39.984375 41.9375 39.425781 42.402344 38.851562 42.847656 C 38.65625 42.980469 38.453125 43.109375 38.25 43.230469 C 38.109375 43.300781 37.96875 43.355469 37.816406 43.398438 C 35.347656 43.761719 32.875 44.125 30.402344 44.480469 C 28.355469 44.761719 26.296875 44.898438 24.230469 44.886719 C 23.679688 44.878906 23.128906 44.855469 22.574219 44.816406 C 21.21875 44.6875 19.855469 44.585938 18.496094 44.515625 C 17.640625 44.53125 16.792969 44.613281 15.949219 44.765625 C 15.074219 44.957031 14.203125 45.15625 13.335938 45.367188 C 11.371094 45.804688 9.386719 46.066406 7.382812 46.160156 C 7.027344 46.175781 6.675781 46.175781 6.324219 46.160156 C 6.097656 46.085938 5.964844 45.929688 5.929688 45.691406 C 5.914062 45.425781 5.902344 45.164062 5.894531 44.898438 C 6.410156 44.863281 6.929688 44.828125 7.453125 44.792969 C 9.601562 44.558594 11.722656 44.167969 13.8125 43.613281 C 15.039062 43.332031 16.277344 43.21875 17.535156 43.277344 C 19.101562 43.40625 20.671875 43.515625 22.238281 43.613281 C 22.6875 43.632812 23.136719 43.632812 23.582031 43.613281 C 25.496094 43.570312 27.402344 43.417969 29.296875 43.160156 C 31.625 42.808594 33.953125 42.464844 36.28125 42.125 C 36.429688 42.078125 36.574219 42.023438 36.714844 41.957031 C 36.917969 41.835938 37.117188 41.707031 37.3125 41.574219 C 37.859375 41.15625 38.386719 40.71875 38.898438 40.253906 C 39.464844 39.8125 40.035156 39.375 40.601562 38.933594 C 42.800781 37.320312 44.992188 35.695312 47.179688 34.0625 C 47.296875 33.976562 47.351562 33.859375 47.347656 33.714844 C 47.269531 32.160156 47.175781 30.609375 47.070312 29.058594 C 46.722656 24.511719 46.363281 19.964844 45.992188 15.421875 C 45.84375 13.742188 45.691406 12.0625 45.535156 10.382812 C 45.496094 10.050781 45.445312 9.722656 45.378906 9.398438 Z M 45.378906 9.398438 "/>
</g>
<mask id="mask5">
  <g filter="url(#alpha)">
<rect x="0" y="0" width="50" height="50" style="fill:rgb(0%,0%,0%);fill-opacity:0.992157;stroke:none;"/>
  </g>
</mask>
<clipPath id="clip6">
  <rect width="50" height="50"/>
</clipPath>
<g id="surface21" clip-path="url(#clip6)">
<path style=" stroke:none;fill-rule:evenodd;fill:rgb(0.784314%,0.392157%,0%);fill-opacity:1;" d="M 9.710938 11.367188 C 9.730469 11.765625 9.75 12.164062 9.757812 12.566406 C 9.46875 12.574219 9.179688 12.589844 8.894531 12.613281 C 8.871094 12.613281 8.84375 12.613281 8.820312 12.613281 C 8.824219 12.21875 8.792969 11.824219 8.726562 11.4375 C 8.757812 11.4375 8.789062 11.4375 8.820312 11.4375 C 9.117188 11.414062 9.414062 11.390625 9.710938 11.367188 Z M 9.710938 11.367188 "/>
</g>
<mask id="mask6">
  <g filter="url(#alpha)">
<rect x="0" y="0" width="50" height="50" style="fill:rgb(0%,0%,0%);fill-opacity:0.992157;stroke:none;"/>
  </g>
</mask>
<clipPath id="clip7">
  <rect width="50" height="50"/>
</clipPath>
<g id="surface24" clip-path="url(#clip7)">
<path style=" stroke:none;fill-rule:evenodd;fill:rgb(0%,0%,0%);fill-opacity:1;" d="M 8.054688 11.484375 C 8.09375 11.484375 8.132812 11.484375 8.171875 11.484375 C 8.171875 11.878906 8.179688 12.269531 8.199219 12.660156 C 7.902344 12.683594 7.605469 12.699219 7.308594 12.710938 C 7.308594 12.316406 7.308594 11.925781 7.308594 11.535156 C 7.554688 11.503906 7.804688 11.488281 8.054688 11.484375 Z M 8.054688 11.484375 "/>
</g>
<mask id="mask7">
  <g filter="url(#alpha)">
<rect x="0" y="0" width="50" height="50" style="fill:rgb(0%,0%,0%);fill-opacity:0.992157;stroke:none;"/>
  </g>
</mask>
<clipPath id="clip8">
  <rect width="50" height="50"/>
</clipPath>
<g id="surface27" clip-path="url(#clip8)">
<path style=" stroke:none;fill-rule:evenodd;fill:rgb(0%,0%,0%);fill-opacity:1;" d="M 6.515625 11.582031 C 6.515625 11.980469 6.515625 12.382812 6.515625 12.78125 C 6.277344 12.789062 6.035156 12.796875 5.796875 12.804688 C 5.800781 12.414062 5.792969 12.023438 5.773438 11.628906 C 6.019531 11.601562 6.265625 11.585938 6.515625 11.582031 Z M 6.515625 11.582031 "/>
</g>
</defs>
<g id="surface1">
<use xlink:href="#surface6" mask="url(#mask0)"/>
<use xlink:href="#surface9" mask="url(#mask1)"/>
<use xlink:href="#surface12" mask="url(#mask2)"/>
<use xlink:href="#surface15" mask="url(#mask3)"/>
<path style=" stroke:none;fill-rule:evenodd;fill:rgb(94.509804%,92.941176%,90.196078%);fill-opacity:1;" d="M 37.144531 32.488281 C 36.585938 32.605469 36.019531 32.707031 35.453125 32.800781 C 35.425781 32.898438 35.460938 32.9375 35.5625 32.921875 C 36.066406 32.839844 36.570312 32.789062 37.074219 32.777344 C 36.65625 35.523438 36.296875 38.273438 35.992188 41.035156 C 35.847656 41.039062 35.707031 41.050781 35.5625 41.070312 C 33.453125 41.398438 31.339844 41.710938 29.226562 42.007812 C 28.105469 42.148438 26.984375 42.265625 25.863281 42.367188 C 24.511719 42.445312 23.160156 42.472656 21.808594 42.4375 C 20.425781 42.339844 19.039062 42.253906 17.65625 42.175781 C 16.542969 42.117188 15.441406 42.171875 14.34375 42.34375 C 13.300781 42.570312 12.257812 42.800781 11.222656 43.039062 C 9.335938 43.445312 7.433594 43.695312 5.507812 43.796875 C 5.199219 37.398438 4.640625 31.019531 3.839844 24.664062 C 3.367188 21.367188 2.894531 18.070312 2.425781 14.773438 C 2.386719 14.511719 2.367188 14.246094 2.363281 13.980469 C 2.285156 13.3125 2.582031 12.980469 3.253906 12.984375 C 3.851562 12.941406 4.453125 12.90625 5.054688 12.878906 C 5.027344 13.804688 5.023438 14.734375 5.039062 15.664062 C 5.082031 16.304688 5.40625 16.734375 6.011719 16.945312 C 6.882812 17.210938 7.769531 17.308594 8.675781 17.234375 C 9.101562 17.195312 9.503906 17.078125 9.878906 16.875 C 10.308594 16.585938 10.515625 16.175781 10.5 15.652344 C 10.421875 14.609375 10.367188 13.5625 10.332031 12.519531 C 12.726562 12.382812 15.117188 12.234375 17.511719 12.074219 C 20.148438 11.898438 22.773438 11.613281 25.382812 11.210938 C 26.859375 10.945312 28.332031 10.664062 29.800781 10.371094 C 31.140625 10.125 32.496094 9.988281 33.855469 9.960938 C 35 9.941406 36.144531 9.90625 37.289062 9.867188 C 39.308594 9.765625 41.3125 9.546875 43.304688 9.207031 C 43.976562 9.222656 44.371094 9.566406 44.480469 10.238281 C 44.554688 10.804688 44.59375 11.371094 44.597656 11.941406 C 44.976562 15.71875 45.355469 19.496094 45.726562 23.273438 C 45.910156 25.222656 46.078125 27.175781 46.230469 29.128906 C 46.339844 30.355469 46.464844 31.578125 46.601562 32.800781 C 46.59375 32.839844 46.585938 32.882812 46.578125 32.921875 C 46.386719 32.816406 46.183594 32.722656 45.980469 32.644531 C 43.820312 31.847656 41.597656 31.34375 39.304688 31.132812 C 39.027344 31.117188 38.746094 31.125 38.464844 31.15625 C 37.730469 31.3125 37.292969 31.753906 37.144531 32.488281 Z M 37.144531 32.488281 "/>
<use xlink:href="#surface18" mask="url(#mask4)"/>
<use xlink:href="#surface21" mask="url(#mask5)"/>
<use xlink:href="#surface24" mask="url(#mask6)"/>
<use xlink:href="#surface27" mask="url(#mask7)"/>
<path style=" stroke:none;fill-rule:evenodd;fill:rgb(94.509804%,92.54902%,89.803922%);fill-opacity:1;" d="M 9.757812 12.566406 C 9.78125 13.382812 9.828125 14.199219 9.902344 15.015625 C 9.914062 15.285156 9.875 15.550781 9.792969 15.804688 C 9.695312 16.039062 9.539062 16.21875 9.324219 16.347656 C 8.984375 16.472656 8.632812 16.535156 8.269531 16.539062 C 7.535156 16.597656 6.832031 16.488281 6.15625 16.203125 C 6.058594 16.132812 5.972656 16.050781 5.90625 15.949219 C 5.800781 15.71875 5.757812 15.472656 5.773438 15.21875 C 5.792969 14.414062 5.800781 13.609375 5.796875 12.804688 C 6.035156 12.796875 6.277344 12.789062 6.515625 12.78125 C 6.535156 13.363281 6.550781 13.945312 6.554688 14.535156 C 6.554688 14.738281 6.578125 14.9375 6.625 15.132812 C 6.671875 15.328125 6.789062 15.457031 6.972656 15.53125 C 7.429688 15.640625 7.886719 15.632812 8.339844 15.507812 C 8.808594 15.367188 9.027344 15.050781 8.988281 14.558594 C 8.964844 14.261719 8.929688 13.964844 8.882812 13.671875 C 8.867188 13.421875 8.855469 13.175781 8.84375 12.925781 C 8.832031 12.8125 8.847656 12.710938 8.894531 12.613281 C 9.179688 12.589844 9.46875 12.574219 9.757812 12.566406 Z M 9.757812 12.566406 "/>
<path style=" stroke:none;fill-rule:evenodd;fill:rgb(94.117647%,91.764706%,89.019608%);fill-opacity:1;" d="M 8.199219 12.660156 C 8.214844 13.3125 8.242188 13.960938 8.28125 14.605469 C 8.269531 14.640625 8.25 14.667969 8.222656 14.691406 C 7.984375 14.792969 7.734375 14.851562 7.476562 14.871094 C 7.355469 14.882812 7.296875 14.828125 7.296875 14.703125 C 7.277344 14.035156 7.28125 13.371094 7.308594 12.710938 C 7.605469 12.699219 7.902344 12.683594 8.199219 12.660156 Z M 8.199219 12.660156 "/>
<path style=" stroke:none;fill-rule:evenodd;fill:rgb(79.215686%,58.039216%,54.509804%);fill-opacity:1;" d="M 8.820312 12.613281 C 8.84375 12.613281 8.871094 12.613281 8.894531 12.613281 C 8.847656 12.710938 8.832031 12.8125 8.84375 12.925781 C 8.820312 12.828125 8.8125 12.722656 8.820312 12.613281 Z M 8.820312 12.613281 "/>
<path style=" stroke:none;fill-rule:evenodd;fill:rgb(24.313725%,23.137255%,23.137255%);fill-opacity:1;" d="M 38.464844 15.832031 C 38.886719 15.792969 39.292969 15.84375 39.691406 15.988281 C 39.792969 16.054688 39.8125 16.148438 39.75 16.261719 C 39.695312 16.304688 39.636719 16.316406 39.570312 16.296875 C 39.109375 16.097656 38.628906 16.039062 38.128906 16.128906 C 37.84375 16.1875 37.5625 16.265625 37.289062 16.371094 C 36.550781 16.714844 35.773438 16.941406 34.960938 17.042969 C 33.890625 17.105469 32.816406 17.160156 31.746094 17.210938 C 28.402344 17.476562 25.066406 17.796875 21.734375 18.171875 C 20.832031 18.257812 19.925781 18.335938 19.023438 18.410156 C 18.085938 18.445312 17.148438 18.480469 16.214844 18.519531 C 16.183594 18.511719 16.152344 18.503906 16.117188 18.496094 C 17.042969 18.320312 17.972656 18.15625 18.902344 18.003906 C 19.640625 17.917969 20.375 17.828125 21.113281 17.738281 C 23.921875 17.457031 26.730469 17.171875 29.535156 16.875 C 31.351562 16.742188 33.167969 16.605469 34.984375 16.464844 C 36.152344 16.269531 37.3125 16.058594 38.464844 15.832031 Z M 38.464844 15.832031 "/>
<path style=" stroke:none;fill-rule:evenodd;fill:rgb(24.313725%,23.137255%,23.137255%);fill-opacity:1;" d="M 14.246094 18.328125 C 14.367188 18.328125 14.484375 18.328125 14.605469 18.328125 C 14.605469 18.367188 14.605469 18.40625 14.605469 18.445312 C 12.964844 18.742188 11.316406 18.992188 9.660156 19.203125 C 8.503906 19.339844 7.34375 19.402344 6.179688 19.394531 C 6.117188 19.324219 6.117188 19.25 6.179688 19.179688 C 7.496094 18.960938 8.816406 18.792969 10.140625 18.675781 C 11.511719 18.558594 12.882812 18.441406 14.246094 18.328125 Z M 14.246094 18.328125 "/>
<path style=" stroke:none;fill-rule:evenodd;fill:rgb(24.313725%,23.137255%,23.137255%);fill-opacity:1;" d="M 34.699219 21.734375 C 35.832031 21.730469 36.96875 21.734375 38.105469 21.746094 C 38.605469 21.761719 39.101562 21.800781 39.59375 21.867188 C 39.753906 22 39.753906 22.136719 39.59375 22.277344 C 39.105469 22.292969 38.617188 22.292969 38.128906 22.277344 C 35.558594 22.09375 32.988281 22.144531 30.425781 22.417969 C 29.835938 22.492188 29.253906 22.59375 28.671875 22.71875 C 28.601562 22.675781 28.585938 22.617188 28.625 22.539062 C 30.621094 22.035156 32.644531 21.765625 34.699219 21.734375 Z M 34.699219 21.734375 "/>
<path style=" stroke:none;fill-rule:evenodd;fill:rgb(25.098039%,23.921569%,23.921569%);fill-opacity:1;" d="M 26.703125 22.671875 C 26.863281 22.667969 27.023438 22.671875 27.183594 22.683594 C 27.246094 22.746094 27.246094 22.808594 27.183594 22.875 C 26.835938 22.929688 26.480469 22.972656 26.128906 22.996094 C 22.613281 23.304688 19.09375 23.53125 15.566406 23.667969 C 13.589844 23.875 11.613281 24.074219 9.636719 24.269531 C 8.957031 24.367188 8.277344 24.453125 7.597656 24.53125 C 7.371094 24.550781 7.148438 24.542969 6.925781 24.507812 C 6.851562 24.410156 6.867188 24.328125 6.972656 24.269531 C 7.660156 24.039062 8.363281 23.894531 9.085938 23.835938 C 11.386719 23.683594 13.691406 23.566406 16 23.476562 C 19.566406 23.152344 23.136719 22.886719 26.703125 22.671875 Z M 26.703125 22.671875 "/>
<path style=" stroke:none;fill-rule:evenodd;fill:rgb(24.313725%,23.137255%,23.137255%);fill-opacity:1;" d="M 40.484375 26.199219 C 40.546875 26.191406 40.613281 26.199219 40.675781 26.222656 C 40.710938 26.292969 40.703125 26.351562 40.652344 26.402344 C 39.988281 26.625 39.308594 26.769531 38.609375 26.835938 C 37.730469 26.890625 36.847656 26.960938 35.96875 27.050781 C 35.441406 27.136719 34.914062 27.226562 34.386719 27.316406 C 33.425781 27.398438 32.46875 27.421875 31.503906 27.386719 C 30.953125 27.375 30.398438 27.347656 29.847656 27.304688 C 31.042969 27.269531 32.226562 27.152344 33.402344 26.957031 C 34.195312 26.8125 34.988281 26.660156 35.777344 26.5 C 36.429688 26.398438 37.085938 26.347656 37.746094 26.34375 C 38.339844 26.363281 38.929688 26.367188 39.523438 26.355469 C 39.796875 26.335938 40.066406 26.300781 40.339844 26.261719 C 40.390625 26.246094 40.441406 26.226562 40.484375 26.199219 Z M 40.484375 26.199219 "/>
<path style=" stroke:none;fill-rule:evenodd;fill:rgb(25.098039%,23.921569%,23.921569%);fill-opacity:1;" d="M 23.777344 27.664062 C 24.035156 27.65625 24.289062 27.675781 24.542969 27.722656 C 24.574219 27.765625 24.574219 27.804688 24.542969 27.84375 C 24.4375 27.855469 24.335938 27.871094 24.230469 27.890625 C 23.695312 27.914062 23.160156 27.933594 22.625 27.953125 C 22.601562 27.933594 22.59375 27.910156 22.601562 27.878906 C 22.992188 27.796875 23.382812 27.722656 23.777344 27.664062 Z M 23.777344 27.664062 "/>
<path style=" stroke:none;fill-rule:evenodd;fill:rgb(32.156863%,30.980392%,30.588235%);fill-opacity:1;" d="M 26.007812 27.617188 C 26.097656 27.613281 26.183594 27.617188 26.273438 27.628906 C 25.902344 27.679688 25.53125 27.722656 25.15625 27.761719 C 25.128906 27.753906 25.101562 27.746094 25.070312 27.738281 C 25.386719 27.691406 25.699219 27.652344 26.007812 27.617188 Z M 26.007812 27.617188 "/>
<path style=" stroke:none;fill-rule:evenodd;fill:rgb(24.705882%,23.529412%,23.529412%);fill-opacity:1;" d="M 21.015625 27.855469 C 21.0625 27.855469 21.113281 27.855469 21.160156 27.855469 C 21.160156 27.898438 21.160156 27.9375 21.160156 27.976562 C 18.75 28.453125 16.320312 28.730469 13.863281 28.804688 C 11.789062 28.867188 9.714844 28.949219 7.644531 29.042969 C 7.566406 28.941406 7.589844 28.867188 7.71875 28.828125 C 8.0625 28.730469 8.414062 28.664062 8.773438 28.636719 C 11.667969 28.640625 14.554688 28.511719 17.4375 28.253906 C 18.636719 28.128906 19.828125 28 21.015625 27.855469 Z M 21.015625 27.855469 "/>
<path style=" stroke:none;fill-rule:evenodd;fill:rgb(89.019608%,85.098039%,78.823529%);fill-opacity:1;" d="M 38.707031 32.058594 C 39.019531 32.050781 39.332031 32.0625 39.640625 32.09375 C 41.277344 32.339844 42.878906 32.722656 44.441406 33.246094 C 45.097656 33.5 45.753906 33.757812 46.410156 34.011719 C 44.960938 34.875 43.554688 35.792969 42.1875 36.773438 C 40.53125 37.988281 38.882812 39.214844 37.242188 40.445312 C 37.03125 40.617188 36.828125 40.796875 36.628906 40.988281 C 36.996094 38.707031 37.375 36.425781 37.757812 34.144531 C 37.796875 33.671875 37.875 33.210938 38 32.753906 C 38.121094 32.402344 38.359375 32.167969 38.707031 32.058594 Z M 38.707031 32.058594 "/>
<path style=" stroke:none;fill-rule:evenodd;fill:rgb(24.313725%,23.137255%,23.137255%);fill-opacity:1;" d="M 37.074219 32.777344 C 36.570312 32.789062 36.066406 32.839844 35.5625 32.921875 C 35.460938 32.9375 35.425781 32.898438 35.453125 32.800781 C 36.019531 32.707031 36.585938 32.605469 37.144531 32.488281 C 37.152344 32.503906 37.164062 32.511719 37.183594 32.511719 C 37.328125 32.476562 37.476562 32.457031 37.625 32.453125 C 37.652344 32.464844 37.675781 32.484375 37.6875 32.511719 C 37.714844 32.597656 37.691406 32.664062 37.625 32.71875 C 37.4375 32.71875 37.253906 32.738281 37.074219 32.777344 Z M 37.074219 32.777344 "/>
<path style=" stroke:none;fill-rule:evenodd;fill:rgb(26.666667%,25.490196%,25.098039%);fill-opacity:1;" d="M 33.832031 32.898438 C 33.890625 32.890625 33.933594 32.914062 33.953125 32.96875 C 33.847656 33.023438 33.734375 33.054688 33.617188 33.066406 C 33.613281 33.035156 33.621094 33.003906 33.640625 32.980469 C 33.707031 32.957031 33.773438 32.925781 33.832031 32.898438 Z M 33.832031 32.898438 "/>
<path style=" stroke:none;fill-rule:evenodd;fill:rgb(23.921569%,22.745098%,22.745098%);fill-opacity:1;" d="M 27.710938 33.136719 C 28.058594 33.132812 28.402344 33.136719 28.746094 33.148438 C 29.257812 33.253906 29.769531 33.355469 30.28125 33.460938 C 30.511719 33.476562 30.746094 33.476562 30.976562 33.460938 C 31.121094 33.429688 31.265625 33.402344 31.410156 33.390625 C 31.453125 33.425781 31.464844 33.46875 31.445312 33.519531 C 31.394531 33.582031 31.332031 33.632812 31.265625 33.675781 C 30.859375 33.890625 30.425781 33.96875 29.96875 33.917969 C 28.867188 33.6875 27.761719 33.679688 26.65625 33.894531 C 25.75 34.101562 24.835938 34.277344 23.917969 34.421875 C 22.832031 34.476562 21.742188 34.460938 20.65625 34.375 C 19.941406 34.355469 19.230469 34.355469 18.519531 34.375 C 15.9375 34.472656 13.363281 34.640625 10.789062 34.878906 C 9.925781 34.980469 9.078125 35.175781 8.257812 35.464844 C 8.148438 35.449219 8.089844 35.382812 8.078125 35.273438 C 8.105469 35.164062 8.175781 35.09375 8.292969 35.070312 C 9.359375 34.644531 10.460938 34.378906 11.605469 34.277344 C 13.722656 34.101562 15.84375 33.972656 17.96875 33.894531 C 19.480469 33.871094 20.992188 33.886719 22.503906 33.929688 C 23.207031 33.949219 23.902344 33.890625 24.59375 33.75 C 25.628906 33.511719 26.667969 33.308594 27.710938 33.136719 Z M 27.710938 33.136719 "/>
</g>
</svg>
