<?xml version="1.0" encoding="UTF-8"?>
<svg xmlns="http://www.w3.org/2000/svg" xmlns:xlink="http://www.w3.org/1999/xlink" width="50pt" height="50pt" viewBox="0 0 50 50" version="1.1">
<defs>
<filter id="alpha" filterUnits="objectBoundingBox" x="0%" y="0%" width="100%" height="100%">
  <feColorMatrix type="matrix" in="SourceGraphic" values="0 0 0 0 1 0 0 0 0 1 0 0 0 0 1 0 0 0 1 0"/>
</filter>
<mask id="mask0">
  <g filter="url(#alpha)">
<rect x="0" y="0" width="50" height="50" style="fill:rgb(0%,0%,0%);fill-opacity:0.956863;stroke:none;"/>
  </g>
</mask>
<clipPath id="clip1">
  <rect width="50" height="50"/>
</clipPath>
<g id="surface6" clip-path="url(#clip1)">
<path style=" stroke:none;fill-rule:evenodd;fill:rgb(66.666667%,23.529412%,18.431373%);fill-opacity:1;" d="M 38.363281 1.175781 C 38.644531 1.105469 38.847656 1.203125 38.964844 1.464844 C 39.1875 2.195312 39.394531 2.929688 39.585938 3.671875 C 40.257812 3.914062 40.921875 4.179688 41.578125 4.460938 C 41.898438 4.667969 41.945312 4.921875 41.722656 5.230469 C 41.054688 5.578125 40.367188 5.875 39.660156 6.117188 C 39.339844 6.925781 38.941406 7.683594 38.460938 8.398438 C 38.238281 8.511719 38.039062 8.488281 37.859375 8.324219 C 37.796875 8.199219 37.730469 8.070312 37.667969 7.941406 C 37.445312 7.285156 37.230469 6.628906 37.019531 5.972656 C 36.355469 5.84375 35.699219 5.675781 35.054688 5.46875 C 34.796875 5.414062 34.652344 5.261719 34.621094 5.015625 C 34.621094 4.910156 34.644531 4.816406 34.691406 4.726562 C 34.824219 4.617188 34.960938 4.511719 35.101562 4.414062 C 35.78125 4.054688 36.476562 3.726562 37.1875 3.429688 C 37.390625 2.855469 37.628906 2.296875 37.90625 1.75 C 38.035156 1.535156 38.1875 1.34375 38.363281 1.175781 Z M 38.363281 1.175781 "/>
</g>
<mask id="mask1">
  <g filter="url(#alpha)">
<rect x="0" y="0" width="50" height="50" style="fill:rgb(0%,0%,0%);fill-opacity:0.937255;stroke:none;"/>
  </g>
</mask>
<clipPath id="clip2">
  <rect width="50" height="50"/>
</clipPath>
<g id="surface9" clip-path="url(#clip2)">
<path style=" stroke:none;fill-rule:evenodd;fill:rgb(11.372549%,7.843137%,12.156863%);fill-opacity:1;" d="M 22 4.871094 C 21.996094 4.917969 22.011719 4.957031 22.050781 4.992188 C 22.140625 5.03125 22.238281 5.054688 22.335938 5.0625 C 22.640625 5.148438 22.925781 5.269531 23.199219 5.421875 C 23.328125 5.550781 23.328125 5.679688 23.199219 5.804688 C 22.84375 5.992188 22.476562 6.152344 22.097656 6.285156 C 21.886719 6.707031 21.660156 7.125 21.425781 7.535156 C 21.277344 7.636719 21.144531 7.628906 21.015625 7.507812 C 20.828125 7.09375 20.695312 6.660156 20.609375 6.214844 C 20.160156 6.160156 19.726562 6.042969 19.3125 5.855469 C 19.242188 5.707031 19.257812 5.574219 19.363281 5.445312 C 19.75 5.1875 20.167969 4.980469 20.609375 4.824219 C 20.789062 4.476562 20.957031 4.125 21.113281 3.765625 C 21.316406 3.449219 21.507812 3.449219 21.6875 3.765625 C 21.800781 4.132812 21.90625 4.503906 22 4.871094 Z M 22 4.871094 "/>
</g>
<mask id="mask2">
  <g filter="url(#alpha)">
<rect x="0" y="0" width="50" height="50" style="fill:rgb(0%,0%,0%);fill-opacity:0.509804;stroke:none;"/>
  </g>
</mask>
<clipPath id="clip3">
  <rect width="50" height="50"/>
</clipPath>
<g id="surface12" clip-path="url(#clip3)">
<path style=" stroke:none;fill-rule:evenodd;fill:rgb(92.156863%,91.764706%,92.156863%);fill-opacity:1;" d="M 22 4.871094 C 22.136719 4.898438 22.25 4.960938 22.335938 5.0625 C 22.238281 5.054688 22.140625 5.03125 22.050781 4.992188 C 22.011719 4.957031 21.996094 4.917969 22 4.871094 Z M 22 4.871094 "/>
</g>
<mask id="mask3">
  <g filter="url(#alpha)">
<rect x="0" y="0" width="50" height="50" style="fill:rgb(0%,0%,0%);fill-opacity:0.984314;stroke:none;"/>
  </g>
</mask>
<clipPath id="clip4">
  <rect width="50" height="50"/>
</clipPath>
<g id="surface15" clip-path="url(#clip4)">
<path style=" stroke:none;fill-rule:evenodd;fill:rgb(62.745098%,57.254902%,58.823529%);fill-opacity:1;" d="M 28.144531 7.460938 C 29.023438 7.378906 29.738281 7.683594 30.277344 8.375 C 30.496094 8.683594 30.664062 9.019531 30.78125 9.382812 C 31.765625 8.265625 32.871094 8.128906 34.09375 8.972656 C 35.0625 9.886719 35.3125 10.964844 34.835938 12.210938 C 34.578125 12.691406 34.234375 13.097656 33.804688 13.4375 C 32.054688 14.480469 30.472656 15.742188 29.054688 17.226562 C 30.914062 16.492188 32.753906 15.695312 34.574219 14.828125 C 35.390625 14.539062 36.222656 14.492188 37.066406 14.683594 C 38.457031 15.25 38.992188 16.265625 38.675781 17.730469 C 38.3125 18.507812 37.714844 19.011719 36.875 19.242188 C 37.996094 20.238281 38.128906 21.347656 37.285156 22.578125 C 36.273438 23.625 35.113281 23.824219 33.804688 23.175781 C 33.601562 23.050781 33.40625 22.90625 33.230469 22.746094 C 32.703125 22.101562 32.234375 21.421875 31.8125 20.707031 C 30.992188 19.5625 30.066406 18.507812 29.03125 17.539062 C 29.78125 19.390625 30.582031 21.230469 31.429688 23.054688 C 31.738281 23.925781 31.773438 24.804688 31.527344 25.695312 C 30.828125 27.128906 29.730469 27.570312 28.238281 27.015625 C 27.8125 26.738281 27.476562 26.378906 27.230469 25.9375 C 27.082031 29.976562 27.386719 33.984375 28.144531 37.957031 C 28.121094 38.320312 27.929688 38.449219 27.566406 38.339844 C 27.472656 38.277344 27.414062 38.1875 27.398438 38.074219 C 26.726562 33.9375 26.519531 29.78125 26.777344 25.601562 C 25.734375 26.53125 24.671875 26.554688 23.585938 25.671875 C 22.609375 24.621094 22.457031 23.464844 23.128906 22.191406 C 23.359375 21.851562 23.636719 21.554688 23.96875 21.304688 C 25.71875 20.261719 27.300781 18.996094 28.71875 17.515625 C 26.933594 18.207031 25.175781 18.972656 23.441406 19.816406 C 22.570312 20.191406 21.675781 20.273438 20.753906 20.058594 C 19.28125 19.488281 18.746094 18.441406 19.144531 16.914062 C 19.519531 16.183594 20.101562 15.703125 20.898438 15.476562 C 19.894531 14.628906 19.691406 13.621094 20.296875 12.453125 C 21.097656 11.335938 22.160156 10.960938 23.488281 11.324219 C 24.167969 11.589844 24.703125 12.027344 25.097656 12.644531 C 26.09375 14.328125 27.308594 15.847656 28.742188 17.203125 C 28.074219 15.445312 27.320312 13.71875 26.488281 12.019531 C 26.148438 11.269531 26.019531 10.488281 26.105469 9.667969 C 26.3125 8.492188 26.992188 7.753906 28.144531 7.460938 Z M 28.144531 7.460938 "/>
</g>
<mask id="mask4">
  <g filter="url(#alpha)">
<rect x="0" y="0" width="50" height="50" style="fill:rgb(0%,0%,0%);fill-opacity:0.945098;stroke:none;"/>
  </g>
</mask>
<clipPath id="clip5">
  <rect width="50" height="50"/>
</clipPath>
<g id="surface18" clip-path="url(#clip5)">
<path style=" stroke:none;fill-rule:evenodd;fill:rgb(0%,0%,0%);fill-opacity:1;" d="M 9.09375 12.882812 C 9.277344 12.851562 9.414062 12.917969 9.5 13.074219 C 9.765625 14.003906 10.027344 14.933594 10.292969 15.859375 C 10.664062 15.226562 11.023438 14.585938 11.371094 13.941406 C 11.59375 13.738281 11.800781 13.753906 11.996094 13.988281 C 12.027344 14.082031 12.027344 14.179688 11.996094 14.277344 C 11.519531 15.179688 11.054688 16.089844 10.605469 17.011719 C 10.582031 17.1875 10.597656 17.363281 10.652344 17.539062 C 10.671875 17.558594 10.695312 17.578125 10.722656 17.585938 C 11.761719 17.1875 12.832031 16.949219 13.941406 16.867188 C 14.105469 16.863281 14.265625 16.886719 14.417969 16.9375 C 14.554688 17.144531 14.539062 17.335938 14.371094 17.515625 C 13.367188 17.695312 12.375 17.933594 11.394531 18.234375 C 11.898438 18.652344 12.425781 19.039062 12.980469 19.386719 C 13.851562 19.878906 14.730469 20.359375 15.617188 20.824219 C 15.800781 20.984375 15.859375 21.183594 15.785156 21.425781 C 15.644531 21.648438 15.445312 21.71875 15.1875 21.640625 C 14.300781 21.1875 13.421875 20.726562 12.546875 20.25 C 12 19.894531 11.480469 19.503906 10.988281 19.074219 C 11.078125 19.855469 11.125 20.636719 11.132812 21.425781 C 11.109375 21.511719 11.050781 21.570312 10.964844 21.59375 C 10.726562 21.660156 10.527344 21.601562 10.363281 21.425781 C 10.300781 20.527344 10.203125 19.628906 10.078125 18.738281 C 9.992188 18.699219 9.902344 18.707031 9.8125 18.761719 C 8.890625 20.679688 8.4375 22.703125 8.445312 24.832031 C 8.257812 25.097656 8.007812 25.167969 7.703125 25.046875 C 7.492188 24.855469 7.410156 24.617188 7.460938 24.328125 C 7.496094 23.226562 7.664062 22.148438 7.964844 21.089844 C 8.167969 20.457031 8.382812 19.835938 8.613281 19.21875 C 7.921875 19.414062 7.25 19.660156 6.597656 19.960938 C 6.222656 20.035156 6.070312 19.882812 6.140625 19.503906 C 6.460938 19.277344 6.804688 19.09375 7.171875 18.953125 C 7.804688 18.726562 8.425781 18.488281 9.046875 18.234375 C 9.175781 18.046875 9.289062 17.847656 9.382812 17.632812 C 8.039062 16.394531 6.75 15.101562 5.519531 13.746094 C 5.371094 13.269531 5.539062 13.085938 6.023438 13.195312 C 7.1875 14.40625 8.394531 15.566406 9.644531 16.675781 C 9.453125 15.582031 9.210938 14.492188 8.925781 13.410156 C 8.855469 13.183594 8.910156 13.007812 9.09375 12.882812 Z M 9.09375 12.882812 "/>
</g>
<mask id="mask5">
  <g filter="url(#alpha)">
<rect x="0" y="0" width="50" height="50" style="fill:rgb(0%,0%,0%);fill-opacity:0.862745;stroke:none;"/>
  </g>
</mask>
<clipPath id="clip6">
  <rect width="50" height="50"/>
</clipPath>
<g id="surface21" clip-path="url(#clip6)">
<path style=" stroke:none;fill-rule:evenodd;fill:rgb(66.27451%,23.137255%,17.647059%);fill-opacity:1;" d="M 16.820312 26.367188 C 16.996094 26.34375 17.105469 26.414062 17.15625 26.582031 C 17.144531 26.660156 17.105469 26.71875 17.035156 26.75 C 16.726562 26.832031 16.414062 26.847656 16.097656 26.800781 C 16.027344 26.679688 16.042969 26.578125 16.148438 26.488281 C 16.378906 26.453125 16.601562 26.414062 16.820312 26.367188 Z M 16.820312 26.367188 "/>
</g>
<mask id="mask6">
  <g filter="url(#alpha)">
<rect x="0" y="0" width="50" height="50" style="fill:rgb(0%,0%,0%);fill-opacity:0.886275;stroke:none;"/>
  </g>
</mask>
<clipPath id="clip7">
  <rect width="50" height="50"/>
</clipPath>
<g id="surface24" clip-path="url(#clip7)">
<path style=" stroke:none;fill-rule:evenodd;fill:rgb(66.27451%,23.137255%,17.647059%);fill-opacity:1;" d="M 17.585938 26.367188 C 17.875 26.359375 18.164062 26.367188 18.449219 26.390625 C 18.578125 26.503906 18.578125 26.617188 18.449219 26.726562 C 18.179688 26.75 17.90625 26.757812 17.632812 26.75 C 17.628906 26.621094 17.613281 26.492188 17.585938 26.367188 Z M 17.585938 26.367188 "/>
</g>
<mask id="mask7">
  <g filter="url(#alpha)">
<rect x="0" y="0" width="50" height="50" style="fill:rgb(0%,0%,0%);fill-opacity:0.945098;stroke:none;"/>
  </g>
</mask>
<clipPath id="clip8">
  <rect width="50" height="50"/>
</clipPath>
<g id="surface27" clip-path="url(#clip8)">
<path style=" stroke:none;fill-rule:evenodd;fill:rgb(0%,0%,0%);fill-opacity:1;" d="M 36.589844 26.367188 C 36.773438 26.335938 36.910156 26.398438 36.996094 26.558594 C 37.273438 27.496094 37.53125 28.441406 37.765625 29.390625 C 38.152344 28.726562 38.527344 28.054688 38.890625 27.375 C 39.144531 27.214844 39.34375 27.261719 39.492188 27.519531 C 39.515625 27.636719 39.5 27.746094 39.445312 27.855469 C 38.984375 28.726562 38.535156 29.605469 38.101562 30.496094 C 38.078125 30.671875 38.09375 30.847656 38.148438 31.023438 C 38.167969 31.042969 38.191406 31.058594 38.21875 31.070312 C 39.328125 30.652344 40.472656 30.394531 41.652344 30.300781 C 41.921875 30.378906 42.035156 30.554688 41.988281 30.832031 C 41.933594 30.941406 41.84375 31.011719 41.722656 31.046875 C 40.761719 31.191406 39.816406 31.414062 38.890625 31.71875 C 39.394531 32.136719 39.921875 32.519531 40.476562 32.871094 C 41.347656 33.363281 42.226562 33.839844 43.113281 34.308594 C 43.382812 34.59375 43.363281 34.867188 43.066406 35.125 C 42.9375 35.15625 42.808594 35.15625 42.683594 35.125 C 41.796875 34.671875 40.914062 34.210938 40.042969 33.734375 C 39.496094 33.378906 38.976562 32.984375 38.484375 32.558594 C 38.570312 33.339844 38.621094 34.121094 38.628906 34.910156 C 38.605469 34.996094 38.546875 35.054688 38.460938 35.078125 C 38.222656 35.140625 38.023438 35.085938 37.859375 34.910156 C 37.792969 34.027344 37.695312 33.144531 37.570312 32.269531 C 37.558594 32.230469 37.535156 32.199219 37.5 32.171875 C 37.4375 32.203125 37.375 32.226562 37.308594 32.246094 C 36.394531 34.148438 35.9375 36.15625 35.941406 38.269531 C 35.859375 38.484375 35.699219 38.597656 35.460938 38.605469 C 35.214844 38.578125 35.054688 38.449219 34.980469 38.21875 C 34.953125 36.3125 35.328125 34.492188 36.109375 32.75 C 36.085938 32.734375 36.058594 32.71875 36.035156 32.703125 C 35.324219 32.9375 34.621094 33.195312 33.925781 33.46875 C 33.628906 33.414062 33.535156 33.238281 33.636719 32.941406 C 34.578125 32.472656 35.546875 32.066406 36.539062 31.71875 C 36.671875 31.53125 36.78125 31.328125 36.875 31.117188 C 35.535156 29.878906 34.246094 28.582031 33.011719 27.230469 C 32.871094 26.753906 33.035156 26.566406 33.515625 26.679688 C 34.679688 27.890625 35.890625 29.050781 37.140625 30.160156 C 36.945312 29.0625 36.707031 27.976562 36.421875 26.894531 C 36.347656 26.667969 36.40625 26.492188 36.589844 26.367188 Z M 36.589844 26.367188 "/>
</g>
<mask id="mask8">
  <g filter="url(#alpha)">
<rect x="0" y="0" width="50" height="50" style="fill:rgb(0%,0%,0%);fill-opacity:0.85098;stroke:none;"/>
  </g>
</mask>
<clipPath id="clip9">
  <rect width="50" height="50"/>
</clipPath>
<g id="surface30" clip-path="url(#clip9)">
<path style=" stroke:none;fill-rule:evenodd;fill:rgb(66.27451%,23.137255%,17.647059%);fill-opacity:1;" d="M 15.476562 26.609375 C 15.738281 26.605469 15.816406 26.726562 15.714844 26.96875 C 15.445312 27.058594 15.171875 27.148438 14.898438 27.230469 C 14.6875 27.152344 14.65625 27.023438 14.804688 26.847656 C 15.03125 26.765625 15.257812 26.6875 15.476562 26.609375 Z M 15.476562 26.609375 "/>
</g>
<mask id="mask9">
  <g filter="url(#alpha)">
<rect x="0" y="0" width="50" height="50" style="fill:rgb(0%,0%,0%);fill-opacity:0.835294;stroke:none;"/>
  </g>
</mask>
<clipPath id="clip10">
  <rect width="50" height="50"/>
</clipPath>
<g id="surface33" clip-path="url(#clip10)">
<path style=" stroke:none;fill-rule:evenodd;fill:rgb(66.27451%,23.137255%,17.647059%);fill-opacity:1;" d="M 14.179688 27.085938 C 14.417969 27.078125 14.507812 27.191406 14.445312 27.421875 C 14.214844 27.566406 13.984375 27.703125 13.746094 27.832031 C 13.546875 27.855469 13.460938 27.765625 13.484375 27.566406 C 13.707031 27.386719 13.9375 27.226562 14.179688 27.085938 Z M 14.179688 27.085938 "/>
</g>
<mask id="mask10">
  <g filter="url(#alpha)">
<rect x="0" y="0" width="50" height="50" style="fill:rgb(0%,0%,0%);fill-opacity:0.854902;stroke:none;"/>
  </g>
</mask>
<clipPath id="clip11">
  <rect width="50" height="50"/>
</clipPath>
<g id="surface36" clip-path="url(#clip11)">
<path style=" stroke:none;fill-rule:evenodd;fill:rgb(66.27451%,23.137255%,17.647059%);fill-opacity:1;" d="M 13.027344 27.855469 C 13.265625 27.847656 13.355469 27.957031 13.292969 28.191406 C 13.101562 28.324219 12.933594 28.484375 12.789062 28.671875 C 12.496094 28.785156 12.390625 28.6875 12.476562 28.382812 C 12.65625 28.195312 12.839844 28.019531 13.027344 27.855469 Z M 13.027344 27.855469 "/>
</g>
<mask id="mask11">
  <g filter="url(#alpha)">
<rect x="0" y="0" width="50" height="50" style="fill:rgb(0%,0%,0%);fill-opacity:0.870588;stroke:none;"/>
  </g>
</mask>
<clipPath id="clip12">
  <rect width="50" height="50"/>
</clipPath>
<g id="surface39" clip-path="url(#clip12)">
<path style=" stroke:none;fill-rule:evenodd;fill:rgb(66.27451%,23.137255%,17.647059%);fill-opacity:1;" d="M 12.066406 28.910156 C 12.316406 28.867188 12.421875 28.960938 12.378906 29.199219 C 12.234375 29.390625 12.117188 29.597656 12.019531 29.824219 C 11.726562 29.9375 11.621094 29.839844 11.707031 29.535156 C 11.804688 29.308594 11.925781 29.101562 12.066406 28.910156 Z M 12.066406 28.910156 "/>
</g>
<mask id="mask12">
  <g filter="url(#alpha)">
<rect x="0" y="0" width="50" height="50" style="fill:rgb(0%,0%,0%);fill-opacity:0.866667;stroke:none;"/>
  </g>
</mask>
<clipPath id="clip13">
  <rect width="50" height="50"/>
</clipPath>
<g id="surface42" clip-path="url(#clip13)">
<path style=" stroke:none;fill-rule:evenodd;fill:rgb(66.27451%,23.137255%,17.647059%);fill-opacity:1;" d="M 11.539062 30.160156 C 11.753906 30.105469 11.847656 30.1875 11.828125 30.398438 C 11.800781 30.65625 11.757812 30.910156 11.707031 31.167969 C 11.464844 31.28125 11.34375 31.207031 11.347656 30.949219 C 11.359375 30.667969 11.421875 30.40625 11.539062 30.160156 Z M 11.539062 30.160156 "/>
</g>
<mask id="mask13">
  <g filter="url(#alpha)">
<rect x="0" y="0" width="50" height="50" style="fill:rgb(0%,0%,0%);fill-opacity:0.878431;stroke:none;"/>
  </g>
</mask>
<clipPath id="clip14">
  <rect width="50" height="50"/>
</clipPath>
<g id="surface45" clip-path="url(#clip14)">
<path style=" stroke:none;fill-rule:evenodd;fill:rgb(66.27451%,23.137255%,17.647059%);fill-opacity:1;" d="M 11.394531 31.550781 C 11.507812 31.539062 11.609375 31.554688 11.707031 31.597656 C 11.796875 31.925781 11.824219 32.253906 11.78125 32.582031 C 11.660156 32.625 11.554688 32.601562 11.46875 32.507812 C 11.378906 32.191406 11.355469 31.871094 11.394531 31.550781 Z M 11.394531 31.550781 "/>
</g>
<mask id="mask14">
  <g filter="url(#alpha)">
<rect x="0" y="0" width="50" height="50" style="fill:rgb(0%,0%,0%);fill-opacity:0.858824;stroke:none;"/>
  </g>
</mask>
<clipPath id="clip15">
  <rect width="50" height="50"/>
</clipPath>
<g id="surface48" clip-path="url(#clip15)">
<path style=" stroke:none;fill-rule:evenodd;fill:rgb(66.27451%,23.137255%,17.647059%);fill-opacity:1;" d="M 19.265625 32.558594 C 19.542969 32.558594 19.800781 32.632812 20.035156 32.773438 C 20.164062 32.949219 20.125 33.070312 19.914062 33.132812 C 19.679688 33.023438 19.433594 32.964844 19.167969 32.964844 C 19.023438 32.777344 19.054688 32.644531 19.265625 32.558594 Z M 19.265625 32.558594 "/>
</g>
<mask id="mask15">
  <g filter="url(#alpha)">
<rect x="0" y="0" width="50" height="50" style="fill:rgb(0%,0%,0%);fill-opacity:0.847059;stroke:none;"/>
  </g>
</mask>
<clipPath id="clip16">
  <rect width="50" height="50"/>
</clipPath>
<g id="surface51" clip-path="url(#clip16)">
<path style=" stroke:none;fill-rule:evenodd;fill:rgb(66.27451%,23.137255%,17.647059%);fill-opacity:1;" d="M 18.5 32.84375 C 18.738281 32.804688 18.84375 32.902344 18.808594 33.132812 C 18.617188 33.363281 18.425781 33.585938 18.234375 33.804688 C 18.039062 33.769531 17.972656 33.660156 18.042969 33.46875 C 18.1875 33.253906 18.339844 33.046875 18.5 32.84375 Z M 18.5 32.84375 "/>
</g>
<mask id="mask16">
  <g filter="url(#alpha)">
<rect x="0" y="0" width="50" height="50" style="fill:rgb(0%,0%,0%);fill-opacity:0.858824;stroke:none;"/>
  </g>
</mask>
<clipPath id="clip17">
  <rect width="50" height="50"/>
</clipPath>
<g id="surface54" clip-path="url(#clip17)">
<path style=" stroke:none;fill-rule:evenodd;fill:rgb(66.27451%,23.137255%,17.647059%);fill-opacity:1;" d="M 11.683594 32.894531 C 11.804688 32.875 11.910156 32.90625 11.996094 32.988281 C 12.089844 33.234375 12.179688 33.484375 12.261719 33.734375 C 12.230469 33.890625 12.132812 33.957031 11.972656 33.925781 C 11.742188 33.613281 11.644531 33.269531 11.683594 32.894531 Z M 11.683594 32.894531 "/>
</g>
<mask id="mask17">
  <g filter="url(#alpha)">
<rect x="0" y="0" width="50" height="50" style="fill:rgb(0%,0%,0%);fill-opacity:0.858824;stroke:none;"/>
  </g>
</mask>
<clipPath id="clip18">
  <rect width="50" height="50"/>
</clipPath>
<g id="surface57" clip-path="url(#clip18)">
<path style=" stroke:none;fill-rule:evenodd;fill:rgb(66.27451%,23.137255%,17.647059%);fill-opacity:1;" d="M 20.082031 33.375 C 20.3125 33.332031 20.425781 33.429688 20.417969 33.660156 C 20.398438 33.859375 20.359375 34.050781 20.296875 34.238281 C 20.207031 34.441406 20.082031 34.476562 19.914062 34.332031 C 19.921875 34.097656 19.964844 33.863281 20.035156 33.636719 C 19.992188 33.546875 20.007812 33.457031 20.082031 33.375 Z M 20.082031 33.375 "/>
</g>
<mask id="mask18">
  <g filter="url(#alpha)">
<rect x="0" y="0" width="50" height="50" style="fill:rgb(0%,0%,0%);fill-opacity:0.854902;stroke:none;"/>
  </g>
</mask>
<clipPath id="clip19">
  <rect width="50" height="50"/>
</clipPath>
<g id="surface60" clip-path="url(#clip19)">
<path style=" stroke:none;fill-rule:evenodd;fill:rgb(66.27451%,23.137255%,17.647059%);fill-opacity:1;" d="M 17.875 33.996094 C 18.007812 34.007812 18.085938 34.082031 18.113281 34.214844 C 18.019531 34.480469 17.914062 34.746094 17.800781 35.003906 C 17.636719 35.089844 17.519531 35.050781 17.441406 34.886719 C 17.519531 34.632812 17.609375 34.386719 17.707031 34.140625 C 17.761719 34.085938 17.816406 34.039062 17.875 33.996094 Z M 17.875 33.996094 "/>
</g>
<mask id="mask19">
  <g filter="url(#alpha)">
<rect x="0" y="0" width="50" height="50" style="fill:rgb(0%,0%,0%);fill-opacity:0.85098;stroke:none;"/>
  </g>
</mask>
<clipPath id="clip20">
  <rect width="50" height="50"/>
</clipPath>
<g id="surface63" clip-path="url(#clip20)">
<path style=" stroke:none;fill-rule:evenodd;fill:rgb(66.27451%,23.137255%,17.647059%);fill-opacity:1;" d="M 12.308594 34.140625 C 12.421875 34.136719 12.511719 34.183594 12.570312 34.285156 C 12.671875 34.46875 12.785156 34.644531 12.90625 34.8125 C 12.972656 35.050781 12.882812 35.15625 12.644531 35.125 C 12.445312 34.894531 12.285156 34.636719 12.164062 34.355469 C 12.1875 34.265625 12.234375 34.191406 12.308594 34.140625 Z M 12.308594 34.140625 "/>
</g>
<mask id="mask20">
  <g filter="url(#alpha)">
<rect x="0" y="0" width="50" height="50" style="fill:rgb(0%,0%,0%);fill-opacity:0.847059;stroke:none;"/>
  </g>
</mask>
<clipPath id="clip21">
  <rect width="50" height="50"/>
</clipPath>
<g id="surface66" clip-path="url(#clip21)">
<path style=" stroke:none;fill-rule:evenodd;fill:rgb(66.27451%,23.137255%,17.647059%);fill-opacity:1;" d="M 19.601562 34.621094 C 19.839844 34.578125 19.945312 34.675781 19.914062 34.910156 C 19.746094 35.125 19.5625 35.324219 19.363281 35.507812 C 19.117188 35.546875 19.03125 35.445312 19.097656 35.195312 C 19.292969 35.023438 19.460938 34.832031 19.601562 34.621094 Z M 19.601562 34.621094 "/>
</g>
<mask id="mask21">
  <g filter="url(#alpha)">
<rect x="0" y="0" width="50" height="50" style="fill:rgb(0%,0%,0%);fill-opacity:0.831373;stroke:none;"/>
  </g>
</mask>
<clipPath id="clip22">
  <rect width="50" height="50"/>
</clipPath>
<g id="surface69" clip-path="url(#clip22)">
<path style=" stroke:none;fill-rule:evenodd;fill:rgb(66.27451%,23.137255%,17.647059%);fill-opacity:1;" d="M 13.074219 35.292969 C 13.15625 35.285156 13.238281 35.292969 13.316406 35.316406 C 13.5 35.5 13.683594 35.683594 13.867188 35.867188 C 13.898438 36.109375 13.796875 36.195312 13.554688 36.132812 C 13.410156 35.992188 13.257812 35.855469 13.101562 35.722656 C 12.957031 35.582031 12.949219 35.441406 13.074219 35.292969 Z M 13.074219 35.292969 "/>
</g>
<mask id="mask22">
  <g filter="url(#alpha)">
<rect x="0" y="0" width="50" height="50" style="fill:rgb(0%,0%,0%);fill-opacity:0.878431;stroke:none;"/>
  </g>
</mask>
<clipPath id="clip23">
  <rect width="50" height="50"/>
</clipPath>
<g id="surface72" clip-path="url(#clip23)">
<path style=" stroke:none;fill-rule:evenodd;fill:rgb(66.27451%,23.137255%,17.647059%);fill-opacity:1;" d="M 17.347656 35.339844 C 17.441406 35.328125 17.527344 35.34375 17.609375 35.390625 C 17.625 35.699219 17.585938 36.003906 17.492188 36.300781 C 17.71875 36.328125 17.78125 36.449219 17.683594 36.660156 C 17.5625 36.710938 17.449219 36.777344 17.347656 36.851562 C 17.367188 36.871094 17.382812 36.894531 17.394531 36.925781 C 17.347656 37.179688 17.308594 37.433594 17.273438 37.691406 C 17.164062 37.820312 17.050781 37.820312 16.9375 37.691406 C 16.910156 37.449219 16.917969 37.210938 16.960938 36.972656 C 16.746094 36.957031 16.675781 36.84375 16.746094 36.636719 C 16.910156 36.554688 17.078125 36.484375 17.25 36.421875 C 17.136719 36.382812 17.085938 36.304688 17.105469 36.179688 C 17.144531 35.886719 17.226562 35.605469 17.347656 35.339844 Z M 17.347656 35.339844 "/>
</g>
<mask id="mask23">
  <g filter="url(#alpha)">
<rect x="0" y="0" width="50" height="50" style="fill:rgb(0%,0%,0%);fill-opacity:0.85098;stroke:none;"/>
  </g>
</mask>
<clipPath id="clip24">
  <rect width="50" height="50"/>
</clipPath>
<g id="surface75" clip-path="url(#clip24)">
<path style=" stroke:none;fill-rule:evenodd;fill:rgb(66.27451%,23.137255%,17.647059%);fill-opacity:1;" d="M 18.59375 35.582031 C 18.835938 35.539062 18.9375 35.636719 18.90625 35.867188 C 18.660156 36.132812 18.363281 36.285156 18.019531 36.324219 C 17.964844 36.226562 17.957031 36.121094 17.996094 36.011719 C 18.21875 35.898438 18.417969 35.753906 18.59375 35.582031 Z M 18.59375 35.582031 "/>
</g>
<mask id="mask24">
  <g filter="url(#alpha)">
<rect x="0" y="0" width="50" height="50" style="fill:rgb(0%,0%,0%);fill-opacity:0.843137;stroke:none;"/>
  </g>
</mask>
<clipPath id="clip25">
  <rect width="50" height="50"/>
</clipPath>
<g id="surface78" clip-path="url(#clip25)">
<path style=" stroke:none;fill-rule:evenodd;fill:rgb(66.27451%,23.137255%,17.647059%);fill-opacity:1;" d="M 14.179688 36.15625 C 14.449219 36.273438 14.71875 36.394531 14.996094 36.515625 C 15.074219 36.859375 14.949219 36.957031 14.609375 36.804688 C 14.425781 36.71875 14.25 36.625 14.082031 36.515625 C 14.003906 36.363281 14.035156 36.242188 14.179688 36.15625 Z M 14.179688 36.15625 "/>
</g>
<mask id="mask25">
  <g filter="url(#alpha)">
<rect x="0" y="0" width="50" height="50" style="fill:rgb(0%,0%,0%);fill-opacity:0.878431;stroke:none;"/>
  </g>
</mask>
<clipPath id="clip26">
  <rect width="50" height="50"/>
</clipPath>
<g id="surface81" clip-path="url(#clip26)">
<path style=" stroke:none;fill-rule:evenodd;fill:rgb(66.27451%,23.137255%,17.647059%);fill-opacity:1;" d="M 15.476562 36.636719 C 15.761719 36.671875 16.046875 36.695312 16.339844 36.707031 C 16.457031 36.824219 16.457031 36.9375 16.339844 37.042969 C 16.050781 37.074219 15.761719 37.074219 15.476562 37.042969 C 15.371094 37.019531 15.324219 36.957031 15.332031 36.851562 C 15.332031 36.746094 15.382812 36.675781 15.476562 36.636719 Z M 15.476562 36.636719 "/>
</g>
<mask id="mask26">
  <g filter="url(#alpha)">
<rect x="0" y="0" width="50" height="50" style="fill:rgb(0%,0%,0%);fill-opacity:0.894118;stroke:none;"/>
  </g>
</mask>
<clipPath id="clip27">
  <rect width="50" height="50"/>
</clipPath>
<g id="surface84" clip-path="url(#clip27)">
<path style=" stroke:none;fill-rule:evenodd;fill:rgb(66.27451%,23.137255%,17.647059%);fill-opacity:1;" d="M 16.960938 38.074219 C 17.070312 38.058594 17.15625 38.09375 17.226562 38.171875 C 17.257812 38.476562 17.257812 38.78125 17.226562 39.082031 C 17.113281 39.210938 17.003906 39.210938 16.890625 39.082031 C 16.839844 38.734375 16.863281 38.398438 16.960938 38.074219 Z M 16.960938 38.074219 "/>
</g>
<mask id="mask27">
  <g filter="url(#alpha)">
<rect x="0" y="0" width="50" height="50" style="fill:rgb(0%,0%,0%);fill-opacity:0.87451;stroke:none;"/>
  </g>
</mask>
<clipPath id="clip28">
  <rect width="50" height="50"/>
</clipPath>
<g id="surface87" clip-path="url(#clip28)">
<path style=" stroke:none;fill-rule:evenodd;fill:rgb(66.27451%,23.137255%,17.647059%);fill-opacity:1;" d="M 16.960938 39.46875 C 17.085938 39.449219 17.1875 39.480469 17.273438 39.5625 C 17.3125 39.8125 17.355469 40.058594 17.394531 40.308594 C 17.363281 40.496094 17.25 40.558594 17.058594 40.5 C 16.929688 40.164062 16.898438 39.820312 16.960938 39.46875 Z M 16.960938 39.46875 "/>
</g>
<mask id="mask28">
  <g filter="url(#alpha)">
<rect x="0" y="0" width="50" height="50" style="fill:rgb(0%,0%,0%);fill-opacity:0.854902;stroke:none;"/>
  </g>
</mask>
<clipPath id="clip29">
  <rect width="50" height="50"/>
</clipPath>
<g id="surface90" clip-path="url(#clip29)">
<path style=" stroke:none;fill-rule:evenodd;fill:rgb(66.27451%,23.137255%,17.647059%);fill-opacity:1;" d="M 17.25 40.8125 C 17.355469 40.796875 17.445312 40.828125 17.515625 40.90625 C 17.597656 41.164062 17.6875 41.421875 17.777344 41.675781 C 17.6875 41.886719 17.550781 41.917969 17.371094 41.769531 C 17.285156 41.535156 17.210938 41.292969 17.15625 41.050781 C 17.152344 40.953125 17.183594 40.875 17.25 40.8125 Z M 17.25 40.8125 "/>
</g>
<mask id="mask29">
  <g filter="url(#alpha)">
<rect x="0" y="0" width="50" height="50" style="fill:rgb(0%,0%,0%);fill-opacity:0.843137;stroke:none;"/>
  </g>
</mask>
<clipPath id="clip30">
  <rect width="50" height="50"/>
</clipPath>
<g id="surface93" clip-path="url(#clip30)">
<path style=" stroke:none;fill-rule:evenodd;fill:rgb(66.27451%,23.137255%,17.647059%);fill-opacity:1;" d="M 17.730469 42.105469 C 17.84375 42.09375 17.9375 42.125 18.019531 42.203125 C 18.136719 42.410156 18.257812 42.617188 18.378906 42.828125 C 18.433594 42.996094 18.367188 43.09375 18.1875 43.113281 C 17.953125 42.921875 17.777344 42.679688 17.660156 42.394531 C 17.621094 42.28125 17.644531 42.1875 17.730469 42.105469 Z M 17.730469 42.105469 "/>
</g>
<mask id="mask30">
  <g filter="url(#alpha)">
<rect x="0" y="0" width="50" height="50" style="fill:rgb(0%,0%,0%);fill-opacity:0.890196;stroke:none;"/>
  </g>
</mask>
<clipPath id="clip31">
  <rect width="50" height="50"/>
</clipPath>
<g id="surface96" clip-path="url(#clip31)">
<path style=" stroke:none;fill-rule:evenodd;fill:rgb(66.27451%,23.137255%,17.647059%);fill-opacity:1;" d="M 34.1875 42.539062 C 34.492188 42.53125 34.796875 42.539062 35.101562 42.5625 C 35.230469 42.675781 35.230469 42.785156 35.101562 42.898438 C 34.796875 42.929688 34.492188 42.929688 34.1875 42.898438 C 34.066406 42.777344 34.066406 42.660156 34.1875 42.539062 Z M 34.1875 42.539062 "/>
</g>
<mask id="mask31">
  <g filter="url(#alpha)">
<rect x="0" y="0" width="50" height="50" style="fill:rgb(0%,0%,0%);fill-opacity:0.854902;stroke:none;"/>
  </g>
</mask>
<clipPath id="clip32">
  <rect width="50" height="50"/>
</clipPath>
<g id="surface99" clip-path="url(#clip32)">
<path style=" stroke:none;fill-rule:evenodd;fill:rgb(66.27451%,23.137255%,17.647059%);fill-opacity:1;" d="M 33.421875 42.632812 C 33.546875 42.621094 33.667969 42.636719 33.78125 42.683594 C 33.824219 42.804688 33.800781 42.90625 33.710938 42.996094 C 33.453125 43.066406 33.199219 43.136719 32.941406 43.210938 C 32.753906 43.148438 32.707031 43.03125 32.796875 42.851562 C 33.007812 42.769531 33.214844 42.699219 33.421875 42.632812 Z M 33.421875 42.632812 "/>
</g>
<mask id="mask32">
  <g filter="url(#alpha)">
<rect x="0" y="0" width="50" height="50" style="fill:rgb(0%,0%,0%);fill-opacity:0.843137;stroke:none;"/>
  </g>
</mask>
<clipPath id="clip33">
  <rect width="50" height="50"/>
</clipPath>
<g id="surface102" clip-path="url(#clip33)">
<path style=" stroke:none;fill-rule:evenodd;fill:rgb(66.27451%,23.137255%,17.647059%);fill-opacity:1;" d="M 35.53125 42.632812 C 35.878906 42.644531 36.207031 42.722656 36.515625 42.875 C 36.578125 43.050781 36.523438 43.164062 36.347656 43.210938 C 36.078125 43.128906 35.804688 43.058594 35.53125 42.996094 C 35.472656 42.875 35.472656 42.753906 35.53125 42.632812 Z M 35.53125 42.632812 "/>
</g>
<mask id="mask33">
  <g filter="url(#alpha)">
<rect x="0" y="0" width="50" height="50" style="fill:rgb(0%,0%,0%);fill-opacity:0.839216;stroke:none;"/>
  </g>
</mask>
<clipPath id="clip34">
  <rect width="50" height="50"/>
</clipPath>
<g id="surface105" clip-path="url(#clip34)">
<path style=" stroke:none;fill-rule:evenodd;fill:rgb(66.27451%,23.137255%,17.647059%);fill-opacity:1;" d="M 36.925781 43.019531 C 37.207031 43.09375 37.476562 43.199219 37.738281 43.332031 C 37.898438 43.632812 37.800781 43.746094 37.453125 43.667969 C 37.265625 43.566406 37.074219 43.476562 36.875 43.402344 C 36.75 43.257812 36.765625 43.128906 36.925781 43.019531 Z M 36.925781 43.019531 "/>
</g>
<mask id="mask34">
  <g filter="url(#alpha)">
<rect x="0" y="0" width="50" height="50" style="fill:rgb(0%,0%,0%);fill-opacity:0.843137;stroke:none;"/>
  </g>
</mask>
<clipPath id="clip35">
  <rect width="50" height="50"/>
</clipPath>
<g id="surface108" clip-path="url(#clip35)">
<path style=" stroke:none;fill-rule:evenodd;fill:rgb(66.27451%,23.137255%,17.647059%);fill-opacity:1;" d="M 32.125 43.066406 C 32.390625 43.003906 32.507812 43.097656 32.484375 43.355469 C 32.226562 43.507812 31.957031 43.636719 31.667969 43.738281 C 31.484375 43.6875 31.429688 43.574219 31.5 43.402344 C 31.71875 43.296875 31.925781 43.1875 32.125 43.066406 Z M 32.125 43.066406 "/>
</g>
<mask id="mask35">
  <g filter="url(#alpha)">
<rect x="0" y="0" width="50" height="50" style="fill:rgb(0%,0%,0%);fill-opacity:0.858824;stroke:none;"/>
  </g>
</mask>
<clipPath id="clip36">
  <rect width="50" height="50"/>
</clipPath>
<g id="surface111" clip-path="url(#clip36)">
<path style=" stroke:none;fill-rule:evenodd;fill:rgb(66.27451%,23.137255%,17.647059%);fill-opacity:1;" d="M 18.5 43.257812 C 18.578125 43.25 18.660156 43.257812 18.738281 43.28125 C 18.90625 43.46875 19.089844 43.636719 19.289062 43.785156 C 19.359375 44.117188 19.238281 44.207031 18.929688 44.050781 C 18.777344 43.898438 18.625 43.746094 18.472656 43.59375 C 18.441406 43.476562 18.449219 43.367188 18.5 43.257812 Z M 18.5 43.257812 "/>
</g>
<mask id="mask36">
  <g filter="url(#alpha)">
<rect x="0" y="0" width="50" height="50" style="fill:rgb(0%,0%,0%);fill-opacity:0.858824;stroke:none;"/>
  </g>
</mask>
<clipPath id="clip37">
  <rect width="50" height="50"/>
</clipPath>
<g id="surface114" clip-path="url(#clip37)">
<path style=" stroke:none;fill-rule:evenodd;fill:rgb(66.27451%,23.137255%,17.647059%);fill-opacity:1;" d="M 30.878906 43.640625 C 31.183594 43.582031 31.28125 43.691406 31.167969 43.976562 C 30.898438 44.152344 30.609375 44.257812 30.300781 44.289062 C 30.210938 44.203125 30.1875 44.097656 30.230469 43.976562 C 30.457031 43.878906 30.671875 43.765625 30.878906 43.640625 Z M 30.878906 43.640625 "/>
</g>
<mask id="mask37">
  <g filter="url(#alpha)">
<rect x="0" y="0" width="50" height="50" style="fill:rgb(0%,0%,0%);fill-opacity:0.866667;stroke:none;"/>
  </g>
</mask>
<clipPath id="clip38">
  <rect width="50" height="50"/>
</clipPath>
<g id="surface117" clip-path="url(#clip38)">
<path style=" stroke:none;fill-rule:evenodd;fill:rgb(66.27451%,23.137255%,17.647059%);fill-opacity:1;" d="M 19.648438 44.121094 C 19.921875 44.246094 20.1875 44.390625 20.441406 44.554688 C 20.5 44.714844 20.453125 44.828125 20.296875 44.890625 C 20.039062 44.78125 19.792969 44.652344 19.554688 44.503906 C 19.472656 44.34375 19.507812 44.214844 19.648438 44.121094 Z M 19.648438 44.121094 "/>
</g>
<mask id="mask38">
  <g filter="url(#alpha)">
<rect x="0" y="0" width="50" height="50" style="fill:rgb(0%,0%,0%);fill-opacity:0.843137;stroke:none;"/>
  </g>
</mask>
<clipPath id="clip39">
  <rect width="50" height="50"/>
</clipPath>
<g id="surface120" clip-path="url(#clip39)">
<path style=" stroke:none;fill-rule:evenodd;fill:rgb(66.27451%,23.137255%,17.647059%);fill-opacity:1;" d="M 29.679688 44.167969 C 29.941406 44.167969 30.023438 44.289062 29.917969 44.53125 C 29.617188 44.707031 29.296875 44.78125 28.957031 44.746094 C 28.886719 44.628906 28.902344 44.523438 29.007812 44.433594 C 29.246094 44.367188 29.46875 44.28125 29.679688 44.167969 Z M 29.679688 44.167969 "/>
</g>
<mask id="mask39">
  <g filter="url(#alpha)">
<rect x="0" y="0" width="50" height="50" style="fill:rgb(0%,0%,0%);fill-opacity:0.858824;stroke:none;"/>
  </g>
</mask>
<clipPath id="clip40">
  <rect width="50" height="50"/>
</clipPath>
<g id="surface123" clip-path="url(#clip40)">
<path style=" stroke:none;fill-rule:evenodd;fill:rgb(66.27451%,23.137255%,17.647059%);fill-opacity:1;" d="M 28.429688 44.601562 C 28.667969 44.664062 28.71875 44.792969 28.574219 44.984375 C 28.269531 45.125 27.960938 45.171875 27.640625 45.128906 C 27.546875 45.019531 27.554688 44.914062 27.664062 44.816406 C 27.929688 44.757812 28.183594 44.6875 28.429688 44.601562 Z M 28.429688 44.601562 "/>
</g>
<mask id="mask40">
  <g filter="url(#alpha)">
<rect x="0" y="0" width="50" height="50" style="fill:rgb(0%,0%,0%);fill-opacity:0.862745;stroke:none;"/>
  </g>
</mask>
<clipPath id="clip41">
  <rect width="50" height="50"/>
</clipPath>
<g id="surface126" clip-path="url(#clip41)">
<path style=" stroke:none;fill-rule:evenodd;fill:rgb(66.27451%,23.137255%,17.647059%);fill-opacity:1;" d="M 20.800781 44.746094 C 21.113281 44.78125 21.417969 44.855469 21.714844 44.960938 C 21.84375 45.152344 21.796875 45.273438 21.570312 45.320312 C 21.304688 45.273438 21.050781 45.203125 20.800781 45.105469 C 20.738281 44.984375 20.738281 44.867188 20.800781 44.746094 Z M 20.800781 44.746094 "/>
</g>
<mask id="mask41">
  <g filter="url(#alpha)">
<rect x="0" y="0" width="50" height="50" style="fill:rgb(0%,0%,0%);fill-opacity:0.87451;stroke:none;"/>
  </g>
</mask>
<clipPath id="clip42">
  <rect width="50" height="50"/>
</clipPath>
<g id="surface129" clip-path="url(#clip42)">
<path style=" stroke:none;fill-rule:evenodd;fill:rgb(66.27451%,23.137255%,17.647059%);fill-opacity:1;" d="M 26.945312 44.9375 C 27.261719 44.882812 27.359375 45.003906 27.230469 45.296875 C 26.90625 45.402344 26.578125 45.425781 26.246094 45.371094 C 26.203125 45.25 26.230469 45.144531 26.320312 45.058594 C 26.535156 45.027344 26.746094 44.988281 26.945312 44.9375 Z M 26.945312 44.9375 "/>
</g>
<mask id="mask42">
  <g filter="url(#alpha)">
<rect x="0" y="0" width="50" height="50" style="fill:rgb(0%,0%,0%);fill-opacity:0.890196;stroke:none;"/>
  </g>
</mask>
<clipPath id="clip43">
  <rect width="50" height="50"/>
</clipPath>
<g id="surface132" clip-path="url(#clip43)">
<path style=" stroke:none;fill-rule:evenodd;fill:rgb(66.27451%,23.137255%,17.647059%);fill-opacity:1;" d="M 22.144531 45.082031 C 22.449219 45.082031 22.753906 45.105469 23.054688 45.152344 C 23.234375 45.4375 23.15625 45.554688 22.816406 45.511719 C 22.609375 45.5 22.398438 45.476562 22.191406 45.441406 C 22.082031 45.335938 22.066406 45.214844 22.144531 45.082031 Z M 22.144531 45.082031 "/>
</g>
<mask id="mask43">
  <g filter="url(#alpha)">
<rect x="0" y="0" width="50" height="50" style="fill:rgb(0%,0%,0%);fill-opacity:0.854902;stroke:none;"/>
  </g>
</mask>
<clipPath id="clip44">
  <rect width="50" height="50"/>
</clipPath>
<g id="surface135" clip-path="url(#clip44)">
<path style=" stroke:none;fill-rule:evenodd;fill:rgb(66.27451%,23.137255%,17.647059%);fill-opacity:1;" d="M 25.070312 45.128906 C 25.347656 45.113281 25.617188 45.128906 25.886719 45.175781 C 25.960938 45.296875 25.945312 45.398438 25.839844 45.488281 C 25.535156 45.535156 25.234375 45.550781 24.929688 45.539062 C 24.78125 45.332031 24.828125 45.195312 25.070312 45.128906 Z M 25.070312 45.128906 "/>
</g>
<mask id="mask44">
  <g filter="url(#alpha)">
<rect x="0" y="0" width="50" height="50" style="fill:rgb(0%,0%,0%);fill-opacity:0.894118;stroke:none;"/>
  </g>
</mask>
<clipPath id="clip45">
  <rect width="50" height="50"/>
</clipPath>
<g id="surface138" clip-path="url(#clip45)">
<path style=" stroke:none;fill-rule:evenodd;fill:rgb(66.27451%,23.137255%,17.647059%);fill-opacity:1;" d="M 23.535156 45.175781 C 23.839844 45.167969 24.144531 45.175781 24.449219 45.203125 C 24.574219 45.3125 24.574219 45.425781 24.449219 45.539062 C 24.144531 45.570312 23.839844 45.570312 23.535156 45.539062 C 23.410156 45.414062 23.410156 45.292969 23.535156 45.175781 Z M 23.535156 45.175781 "/>
</g>
</defs>
<g id="surface1">
<use xlink:href="#surface6" mask="url(#mask0)"/>
<path style=" stroke:none;fill-rule:evenodd;fill:rgb(99.215686%,98.431373%,98.431373%);fill-opacity:1;" d="M 38.460938 2.039062 C 38.675781 2.71875 38.882812 3.40625 39.082031 4.101562 C 39.15625 4.167969 39.238281 4.222656 39.324219 4.269531 C 39.871094 4.46875 40.414062 4.675781 40.953125 4.894531 C 40.40625 5.144531 39.847656 5.371094 39.277344 5.566406 C 39.234375 5.605469 39.195312 5.644531 39.15625 5.6875 C 38.859375 6.332031 38.558594 6.96875 38.242188 7.605469 C 38.007812 6.945312 37.796875 6.273438 37.621094 5.589844 C 37.597656 5.523438 37.558594 5.464844 37.5 5.421875 C 36.816406 5.300781 36.144531 5.140625 35.484375 4.941406 C 36.179688 4.550781 36.898438 4.214844 37.644531 3.933594 C 37.902344 3.296875 38.175781 2.664062 38.460938 2.039062 Z M 38.460938 2.039062 "/>
<use xlink:href="#surface9" mask="url(#mask1)"/>
<path style=" stroke:none;fill-rule:evenodd;fill:rgb(97.254902%,97.254902%,97.254902%);fill-opacity:1;" d="M 21.378906 4.101562 C 21.496094 4.445312 21.601562 4.796875 21.6875 5.160156 C 22.019531 5.335938 22.363281 5.488281 22.722656 5.613281 C 22.421875 5.75 22.117188 5.878906 21.808594 6 C 21.621094 6.351562 21.4375 6.710938 21.257812 7.078125 C 21.144531 6.675781 21.007812 6.28125 20.847656 5.902344 C 20.488281 5.84375 20.136719 5.757812 19.792969 5.636719 C 20.164062 5.429688 20.550781 5.246094 20.945312 5.085938 C 21.082031 4.753906 21.226562 4.425781 21.378906 4.101562 Z M 21.378906 4.101562 "/>
<use xlink:href="#surface12" mask="url(#mask2)"/>
<use xlink:href="#surface15" mask="url(#mask3)"/>
<use xlink:href="#surface18" mask="url(#mask4)"/>
<use xlink:href="#surface21" mask="url(#mask5)"/>
<use xlink:href="#surface24" mask="url(#mask6)"/>
<use xlink:href="#surface27" mask="url(#mask7)"/>
<use xlink:href="#surface30" mask="url(#mask8)"/>
<use xlink:href="#surface33" mask="url(#mask9)"/>
<use xlink:href="#surface36" mask="url(#mask10)"/>
<use xlink:href="#surface39" mask="url(#mask11)"/>
<use xlink:href="#surface42" mask="url(#mask12)"/>
<use xlink:href="#surface45" mask="url(#mask13)"/>
<use xlink:href="#surface48" mask="url(#mask14)"/>
<use xlink:href="#surface51" mask="url(#mask15)"/>
<use xlink:href="#surface54" mask="url(#mask16)"/>
<use xlink:href="#surface57" mask="url(#mask17)"/>
<use xlink:href="#surface60" mask="url(#mask18)"/>
<use xlink:href="#surface63" mask="url(#mask19)"/>
<use xlink:href="#surface66" mask="url(#mask20)"/>
<use xlink:href="#surface69" mask="url(#mask21)"/>
<use xlink:href="#surface72" mask="url(#mask22)"/>
<use xlink:href="#surface75" mask="url(#mask23)"/>
<use xlink:href="#surface78" mask="url(#mask24)"/>
<use xlink:href="#surface81" mask="url(#mask25)"/>
<use xlink:href="#surface84" mask="url(#mask26)"/>
<use xlink:href="#surface87" mask="url(#mask27)"/>
<use xlink:href="#surface90" mask="url(#mask28)"/>
<use xlink:href="#surface93" mask="url(#mask29)"/>
<use xlink:href="#surface96" mask="url(#mask30)"/>
<use xlink:href="#surface99" mask="url(#mask31)"/>
<use xlink:href="#surface102" mask="url(#mask32)"/>
<use xlink:href="#surface105" mask="url(#mask33)"/>
<use xlink:href="#surface108" mask="url(#mask34)"/>
<use xlink:href="#surface111" mask="url(#mask35)"/>
<use xlink:href="#surface114" mask="url(#mask36)"/>
<use xlink:href="#surface117" mask="url(#mask37)"/>
<use xlink:href="#surface120" mask="url(#mask38)"/>
<use xlink:href="#surface123" mask="url(#mask39)"/>
<use xlink:href="#surface126" mask="url(#mask40)"/>
<use xlink:href="#surface129" mask="url(#mask41)"/>
<use xlink:href="#surface132" mask="url(#mask42)"/>
<use xlink:href="#surface135" mask="url(#mask43)"/>
<use xlink:href="#surface138" mask="url(#mask44)"/>
</g>
</svg>
