<?xml version="1.0" encoding="UTF-8"?>
<svg xmlns="http://www.w3.org/2000/svg" xmlns:xlink="http://www.w3.org/1999/xlink" width="50pt" height="50pt" viewBox="0 0 50 50" version="1.1">
<defs>
<filter id="alpha" filterUnits="objectBoundingBox" x="0%" y="0%" width="100%" height="100%">
  <feColorMatrix type="matrix" in="SourceGraphic" values="0 0 0 0 1 0 0 0 0 1 0 0 0 0 1 0 0 0 1 0"/>
</filter>
<mask id="mask0">
  <g filter="url(#alpha)">
<rect x="0" y="0" width="50" height="50" style="fill:rgb(0%,0%,0%);fill-opacity:0.968627;stroke:none;"/>
  </g>
</mask>
<clipPath id="clip1">
  <rect width="50" height="50"/>
</clipPath>
<g id="surface6" clip-path="url(#clip1)">
<path style=" stroke:none;fill-rule:evenodd;fill:rgb(0.392157%,0.392157%,0.392157%);fill-opacity:1;" d="M 28.457031 8.675781 C 28 8.25 27.753906 7.722656 27.722656 7.09375 C 27.691406 7.066406 27.667969 7.035156 27.652344 6.996094 C 27.652344 6.832031 27.632812 6.671875 27.59375 6.515625 C 27.230469 5.027344 27.6875 3.863281 28.960938 3.023438 C 29.554688 2.683594 30.164062 2.660156 30.785156 2.953125 C 31.308594 3.25 31.804688 3.585938 32.273438 3.960938 C 32.648438 4.273438 32.933594 4.652344 33.125 5.101562 C 33.34375 5.722656 33.328125 6.335938 33.078125 6.949219 C 32.851562 7.53125 32.539062 8.058594 32.140625 8.535156 C 31.691406 9.03125 31.132812 9.347656 30.472656 9.480469 C 29.664062 9.550781 28.992188 9.285156 28.457031 8.675781 Z M 31.21875 8.773438 C 30.703125 9.15625 30.152344 9.226562 29.5625 8.988281 C 30.128906 9.03125 30.679688 8.957031 31.21875 8.773438 Z M 31.21875 8.773438 "/>
</g>
<mask id="mask1">
  <g filter="url(#alpha)">
<rect x="0" y="0" width="50" height="50" style="fill:rgb(0%,0%,0%);fill-opacity:0.94902;stroke:none;"/>
  </g>
</mask>
<clipPath id="clip2">
  <rect width="50" height="50"/>
</clipPath>
<g id="surface9" clip-path="url(#clip2)">
<path style=" stroke:none;fill-rule:evenodd;fill:rgb(0.784314%,0.784314%,0.784314%);fill-opacity:1;" d="M 35.753906 5.269531 C 35.792969 5.25 35.808594 5.21875 35.800781 5.171875 C 35.859375 4.941406 35.980469 4.753906 36.160156 4.609375 C 36.402344 4.515625 36.625 4.550781 36.832031 4.703125 C 37.121094 4.929688 37.246094 5.222656 37.207031 5.582031 C 37.089844 5.921875 36.847656 6.097656 36.484375 6.109375 C 36.253906 6.105469 36.0625 6.015625 35.910156 5.84375 C 35.875 5.792969 35.855469 5.738281 35.851562 5.675781 C 35.71875 5.695312 35.636719 5.640625 35.609375 5.507812 C 35.648438 5.421875 35.695312 5.34375 35.753906 5.269531 Z M 35.753906 5.269531 "/>
</g>
<mask id="mask2">
  <g filter="url(#alpha)">
<rect x="0" y="0" width="50" height="50" style="fill:rgb(0%,0%,0%);fill-opacity:0.956863;stroke:none;"/>
  </g>
</mask>
<clipPath id="clip3">
  <rect width="50" height="50"/>
</clipPath>
<g id="surface12" clip-path="url(#clip3)">
<path style=" stroke:none;fill-rule:evenodd;fill:rgb(1.176471%,1.176471%,1.176471%);fill-opacity:1;" d="M 13.167969 6.085938 C 13.15625 6.015625 13.125 5.992188 13.070312 6.011719 C 12.871094 6.03125 12.796875 5.945312 12.84375 5.75 C 12.953125 5.4375 13.109375 5.152344 13.308594 4.898438 C 13.703125 4.632812 14.105469 4.625 14.511719 4.871094 C 14.667969 5.046875 14.71875 5.25 14.667969 5.484375 C 14.472656 6.066406 14.070312 6.335938 13.453125 6.289062 C 13.335938 6.25 13.242188 6.183594 13.167969 6.085938 Z M 13.167969 6.085938 "/>
</g>
<mask id="mask3">
  <g filter="url(#alpha)">
<rect x="0" y="0" width="50" height="50" style="fill:rgb(0%,0%,0%);fill-opacity:0.509804;stroke:none;"/>
  </g>
</mask>
<clipPath id="clip4">
  <rect width="50" height="50"/>
</clipPath>
<g id="surface15" clip-path="url(#clip4)">
<path style=" stroke:none;fill-rule:evenodd;fill:rgb(78.823529%,78.823529%,78.823529%);fill-opacity:1;" d="M 35.800781 5.171875 C 35.808594 5.21875 35.792969 5.25 35.753906 5.269531 C 35.757812 5.230469 35.773438 5.195312 35.800781 5.171875 Z M 35.800781 5.171875 "/>
</g>
<mask id="mask4">
  <g filter="url(#alpha)">
<rect x="0" y="0" width="50" height="50" style="fill:rgb(0%,0%,0%);fill-opacity:0.976471;stroke:none;"/>
  </g>
</mask>
<clipPath id="clip5">
  <rect width="50" height="50"/>
</clipPath>
<g id="surface18" clip-path="url(#clip5)">
<path style=" stroke:none;fill-rule:evenodd;fill:rgb(0.392157%,0.392157%,0.392157%);fill-opacity:1;" d="M 14.269531 19.261719 C 13.855469 18.84375 13.480469 18.394531 13.140625 17.917969 C 12.226562 16.566406 12.03125 15.109375 12.554688 13.550781 C 12.925781 12.375 13.472656 11.292969 14.199219 10.308594 C 14.542969 9.910156 14.917969 9.542969 15.328125 9.207031 C 15.242188 9.136719 15.214844 9.046875 15.242188 8.941406 C 15.339844 8.679688 15.464844 8.429688 15.613281 8.199219 C 16.09375 7.449219 16.757812 6.941406 17.605469 6.671875 C 17.988281 6.574219 18.371094 6.496094 18.757812 6.433594 C 19.308594 6.363281 19.851562 6.394531 20.390625 6.527344 C 20.875 6.660156 21.363281 6.78125 21.855469 6.890625 C 22.621094 7.214844 23.300781 7.660156 23.894531 8.234375 C 24.921875 9.242188 25.726562 10.40625 26.308594 11.726562 C 26.484375 12.238281 26.5625 12.765625 26.535156 13.308594 C 26.574219 15.097656 26.09375 16.71875 25.085938 18.183594 C 24.347656 19.214844 23.445312 20.078125 22.382812 20.761719 C 20.617188 21.800781 18.792969 21.910156 16.910156 21.097656 C 15.917969 20.648438 15.035156 20.035156 14.269531 19.261719 Z M 19.3125 7.046875 C 19.542969 7.03125 19.773438 7.050781 20.007812 7.105469 C 20.515625 7.246094 21.027344 7.367188 21.542969 7.464844 C 21.925781 7.605469 22.277344 7.800781 22.601562 8.042969 C 23.152344 8.445312 23.671875 8.898438 24.148438 9.398438 C 24.171875 9.441406 24.199219 9.480469 24.230469 9.515625 C 22.917969 8.476562 21.453125 7.695312 19.839844 7.175781 C 19.664062 7.132812 19.488281 7.089844 19.3125 7.046875 Z M 19.3125 7.046875 "/>
</g>
<mask id="mask5">
  <g filter="url(#alpha)">
<rect x="0" y="0" width="50" height="50" style="fill:rgb(0%,0%,0%);fill-opacity:0.913725;stroke:none;"/>
  </g>
</mask>
<clipPath id="clip6">
  <rect width="50" height="50"/>
</clipPath>
<g id="surface21" clip-path="url(#clip6)">
<path style=" stroke:none;fill-rule:evenodd;fill:rgb(96.862745%,96.862745%,96.862745%);fill-opacity:1;" d="M 27.59375 6.515625 C 27.632812 6.671875 27.652344 6.832031 27.652344 6.996094 C 27.667969 7.035156 27.691406 7.066406 27.722656 7.09375 C 27.753906 7.722656 28 8.25 28.457031 8.675781 C 27.945312 8.453125 27.652344 8.0625 27.582031 7.5 C 27.539062 7.171875 27.542969 6.84375 27.59375 6.515625 Z M 27.59375 6.515625 "/>
</g>
<mask id="mask6">
  <g filter="url(#alpha)">
<rect x="0" y="0" width="50" height="50" style="fill:rgb(0%,0%,0%);fill-opacity:0.929412;stroke:none;"/>
  </g>
</mask>
<clipPath id="clip7">
  <rect width="50" height="50"/>
</clipPath>
<g id="surface24" clip-path="url(#clip7)">
<path style=" stroke:none;fill-rule:evenodd;fill:rgb(98.431373%,98.431373%,98.431373%);fill-opacity:1;" d="M 15.613281 8.199219 C 15.464844 8.429688 15.339844 8.679688 15.242188 8.941406 C 15.214844 9.046875 15.242188 9.136719 15.328125 9.207031 C 14.917969 9.542969 14.542969 9.910156 14.199219 10.308594 C 14.550781 9.523438 15.023438 8.820312 15.613281 8.199219 Z M 15.613281 8.199219 "/>
</g>
<mask id="mask7">
  <g filter="url(#alpha)">
<rect x="0" y="0" width="50" height="50" style="fill:rgb(0%,0%,0%);fill-opacity:0.972549;stroke:none;"/>
  </g>
</mask>
<clipPath id="clip8">
  <rect width="50" height="50"/>
</clipPath>
<g id="surface27" clip-path="url(#clip8)">
<path style=" stroke:none;fill-rule:evenodd;fill:rgb(0.784314%,0.784314%,0.784314%);fill-opacity:1;" d="M 44.273438 12.183594 C 44.898438 12.648438 45.476562 13.167969 46.015625 13.742188 C 46.144531 13.90625 46.277344 14.066406 46.410156 14.222656 C 47 15.007812 47.203125 15.886719 47.023438 16.863281 C 46.902344 17.46875 46.691406 18.046875 46.398438 18.589844 C 46.066406 19.199219 45.671875 19.757812 45.210938 20.269531 C 45.175781 20.28125 45.160156 20.304688 45.164062 20.34375 C 44.613281 20.949219 44.023438 21.5 43.386719 22 C 42.347656 22.828125 41.160156 23.335938 39.835938 23.523438 C 39.0625 23.601562 38.3125 23.515625 37.578125 23.273438 C 37.101562 23.101562 36.644531 22.886719 36.210938 22.625 C 35.886719 22.4375 35.589844 22.210938 35.320312 21.953125 C 35.296875 21.902344 35.253906 21.871094 35.203125 21.855469 C 34.636719 21.300781 34.164062 20.675781 33.785156 19.984375 C 33.3125 19.15625 33.046875 18.261719 32.992188 17.308594 C 32.996094 16.988281 33.027344 16.671875 33.089844 16.359375 C 33.210938 15.914062 33.335938 15.464844 33.460938 15.015625 C 33.515625 14.949219 33.574219 14.949219 33.628906 15.015625 C 33.644531 15.070312 33.644531 15.125 33.628906 15.183594 C 33.464844 15.765625 33.34375 16.359375 33.269531 16.957031 C 33.253906 17.613281 33.367188 18.246094 33.605469 18.855469 C 34.183594 20.398438 35.171875 21.605469 36.570312 22.46875 C 38.203125 23.363281 39.875 23.433594 41.585938 22.683594 C 42.832031 22.085938 43.90625 21.265625 44.816406 20.222656 C 45.269531 19.71875 45.671875 19.175781 46.015625 18.589844 C 46.082031 18.476562 46.132812 18.355469 46.171875 18.230469 C 46.1875 18.230469 46.195312 18.222656 46.195312 18.207031 C 46.195312 18.199219 46.195312 18.191406 46.195312 18.183594 C 46.589844 17.441406 46.761719 16.648438 46.710938 15.804688 C 46.695312 15.605469 46.652344 15.414062 46.578125 15.230469 C 46.585938 15.199219 46.578125 15.175781 46.554688 15.160156 C 46.523438 14.996094 46.460938 14.84375 46.375 14.703125 C 46.167969 14.382812 45.921875 14.089844 45.644531 13.828125 C 44.648438 12.839844 43.511719 12.054688 42.234375 11.472656 C 42.050781 11.386719 41.859375 11.316406 41.660156 11.269531 C 41.660156 11.253906 41.652344 11.246094 41.632812 11.246094 C 41.617188 11.246094 41.601562 11.246094 41.585938 11.246094 C 41.578125 11.226562 41.5625 11.21875 41.539062 11.222656 C 40.453125 10.808594 39.332031 10.65625 38.179688 10.765625 C 36.65625 10.863281 35.449219 11.527344 34.566406 12.757812 C 33.90625 13.71875 33.40625 14.761719 33.066406 15.878906 C 33.011719 16.027344 32.949219 16.175781 32.875 16.324219 C 32.652344 16.402344 32.5625 16.328125 32.597656 16.09375 C 32.863281 15.058594 33.242188 14.066406 33.726562 13.117188 C 34.804688 11.230469 36.441406 10.292969 38.632812 10.308594 C 40.722656 10.332031 42.601562 10.953125 44.273438 12.183594 Z M 41.539062 11.222656 C 40.433594 10.972656 39.3125 10.820312 38.179688 10.765625 C 39.332031 10.65625 40.453125 10.808594 41.539062 11.222656 Z M 46.578125 15.230469 C 46.652344 15.414062 46.695312 15.605469 46.710938 15.804688 C 46.761719 16.648438 46.589844 17.441406 46.195312 18.183594 C 46.484375 17.21875 46.613281 16.234375 46.578125 15.230469 Z M 46.578125 15.230469 "/>
</g>
<mask id="mask8">
  <g filter="url(#alpha)">
<rect x="0" y="0" width="50" height="50" style="fill:rgb(0%,0%,0%);fill-opacity:0.913725;stroke:none;"/>
  </g>
</mask>
<clipPath id="clip9">
  <rect width="50" height="50"/>
</clipPath>
<g id="surface30" clip-path="url(#clip9)">
<path style=" stroke:none;fill-rule:evenodd;fill:rgb(98.039216%,98.039216%,98.039216%);fill-opacity:1;" d="M 44.273438 12.183594 C 44.90625 12.457031 45.460938 12.839844 45.941406 13.335938 C 46.175781 13.589844 46.332031 13.886719 46.410156 14.222656 C 46.277344 14.066406 46.144531 13.90625 46.015625 13.742188 C 45.476562 13.167969 44.898438 12.648438 44.273438 12.183594 Z M 44.273438 12.183594 "/>
</g>
<mask id="mask9">
  <g filter="url(#alpha)">
<rect x="0" y="0" width="50" height="50" style="fill:rgb(0%,0%,0%);fill-opacity:0.690196;stroke:none;"/>
  </g>
</mask>
<clipPath id="clip10">
  <rect width="50" height="50"/>
</clipPath>
<g id="surface33" clip-path="url(#clip10)">
<path style=" stroke:none;fill-rule:evenodd;fill:rgb(93.72549%,93.72549%,93.72549%);fill-opacity:1;" d="M 13.140625 17.917969 C 13.480469 18.394531 13.855469 18.84375 14.269531 19.261719 C 13.789062 18.902344 13.414062 18.453125 13.140625 17.917969 Z M 13.140625 17.917969 "/>
</g>
<mask id="mask10">
  <g filter="url(#alpha)">
<rect x="0" y="0" width="50" height="50" style="fill:rgb(0%,0%,0%);fill-opacity:0.831373;stroke:none;"/>
  </g>
</mask>
<clipPath id="clip11">
  <rect width="50" height="50"/>
</clipPath>
<g id="surface36" clip-path="url(#clip11)">
<path style=" stroke:none;fill-rule:evenodd;fill:rgb(96.078431%,96.078431%,96.078431%);fill-opacity:1;" d="M 33.785156 19.984375 C 34.164062 20.675781 34.636719 21.300781 35.203125 21.855469 C 34.53125 21.382812 34.058594 20.761719 33.785156 19.984375 Z M 33.785156 19.984375 "/>
</g>
<mask id="mask11">
  <g filter="url(#alpha)">
<rect x="0" y="0" width="50" height="50" style="fill:rgb(0%,0%,0%);fill-opacity:0.0627451;stroke:none;"/>
  </g>
</mask>
<clipPath id="clip12">
  <rect width="50" height="50"/>
</clipPath>
<g id="surface39" clip-path="url(#clip12)">
<path style=" stroke:none;fill-rule:evenodd;fill:rgb(78.431373%,78.431373%,78.431373%);fill-opacity:1;" d="M 45.210938 20.269531 C 45.214844 20.308594 45.195312 20.332031 45.164062 20.34375 C 45.160156 20.304688 45.175781 20.28125 45.210938 20.269531 Z M 45.210938 20.269531 "/>
</g>
<mask id="mask12">
  <g filter="url(#alpha)">
<rect x="0" y="0" width="50" height="50" style="fill:rgb(0%,0%,0%);fill-opacity:0.831373;stroke:none;"/>
  </g>
</mask>
<clipPath id="clip13">
  <rect width="50" height="50"/>
</clipPath>
<g id="surface42" clip-path="url(#clip13)">
<path style=" stroke:none;fill-rule:evenodd;fill:rgb(94.901961%,94.901961%,94.901961%);fill-opacity:1;" d="M 45.164062 20.34375 C 44.710938 21.046875 44.117188 21.597656 43.386719 22 C 44.023438 21.5 44.613281 20.949219 45.164062 20.34375 Z M 45.164062 20.34375 "/>
</g>
<mask id="mask13">
  <g filter="url(#alpha)">
<rect x="0" y="0" width="50" height="50" style="fill:rgb(0%,0%,0%);fill-opacity:0.976471;stroke:none;"/>
  </g>
</mask>
<clipPath id="clip14">
  <rect width="50" height="50"/>
</clipPath>
<g id="surface45" clip-path="url(#clip14)">
<path style=" stroke:none;fill-rule:evenodd;fill:rgb(0.392157%,0.392157%,0.392157%);fill-opacity:1;" d="M 9.636719 21.519531 C 9.648438 21.554688 9.671875 21.570312 9.710938 21.566406 C 10.113281 21.894531 10.421875 22.292969 10.632812 22.769531 C 10.804688 23.253906 10.835938 23.75 10.730469 24.257812 C 10.410156 26.078125 9.511719 27.527344 8.027344 28.613281 C 7.589844 28.9375 7.09375 29.09375 6.542969 29.082031 C 6.023438 29.085938 5.511719 29.03125 5.003906 28.925781 C 4.246094 28.707031 3.683594 28.246094 3.324219 27.542969 C 3.328125 27.507812 3.308594 27.484375 3.277344 27.472656 C 3.140625 27.203125 3.023438 26.933594 2.917969 26.65625 C 2.582031 25.808594 2.5 24.9375 2.664062 24.039062 C 2.828125 23.253906 3.242188 22.632812 3.902344 22.179688 C 3.808594 22.0625 3.78125 21.929688 3.816406 21.785156 C 3.851562 21.722656 3.894531 21.671875 3.949219 21.628906 C 4.375 21.304688 4.832031 21.023438 5.316406 20.789062 C 5.996094 20.503906 6.703125 20.433594 7.429688 20.570312 C 8.253906 20.691406 8.992188 21.007812 9.636719 21.519531 Z M 3.734375 22.863281 C 3.492188 23.324219 3.28125 23.792969 3.109375 24.28125 C 3.167969 23.738281 3.375 23.265625 3.734375 22.863281 Z M 3.734375 22.863281 "/>
</g>
<mask id="mask14">
  <g filter="url(#alpha)">
<rect x="0" y="0" width="50" height="50" style="fill:rgb(0%,0%,0%);fill-opacity:0.0627451;stroke:none;"/>
  </g>
</mask>
<clipPath id="clip15">
  <rect width="50" height="50"/>
</clipPath>
<g id="surface48" clip-path="url(#clip15)">
<path style=" stroke:none;fill-rule:evenodd;fill:rgb(80.392157%,80.392157%,80.392157%);fill-opacity:1;" d="M 9.636719 21.519531 C 9.675781 21.519531 9.699219 21.535156 9.710938 21.566406 C 9.671875 21.570312 9.648438 21.554688 9.636719 21.519531 Z M 9.636719 21.519531 "/>
</g>
<mask id="mask15">
  <g filter="url(#alpha)">
<rect x="0" y="0" width="50" height="50" style="fill:rgb(0%,0%,0%);fill-opacity:0.741176;stroke:none;"/>
  </g>
</mask>
<clipPath id="clip16">
  <rect width="50" height="50"/>
</clipPath>
<g id="surface51" clip-path="url(#clip16)">
<path style=" stroke:none;fill-rule:evenodd;fill:rgb(92.941176%,92.941176%,92.941176%);fill-opacity:1;" d="M 36.210938 22.625 C 36.644531 22.886719 37.101562 23.101562 37.578125 23.273438 C 37.054688 23.191406 36.597656 22.972656 36.210938 22.625 Z M 36.210938 22.625 "/>
</g>
<mask id="mask16">
  <g filter="url(#alpha)">
<rect x="0" y="0" width="50" height="50" style="fill:rgb(0%,0%,0%);fill-opacity:0.862745;stroke:none;"/>
  </g>
</mask>
<clipPath id="clip17">
  <rect width="50" height="50"/>
</clipPath>
<g id="surface54" clip-path="url(#clip17)">
<path style=" stroke:none;fill-rule:evenodd;fill:rgb(98.431373%,98.431373%,98.431373%);fill-opacity:1;" d="M 27.570312 22.984375 C 27.335938 22.953125 27.136719 23.015625 26.96875 23.175781 C 26.957031 22.917969 27.078125 22.828125 27.328125 22.898438 C 27.414062 22.917969 27.496094 22.945312 27.570312 22.984375 Z M 27.570312 22.984375 "/>
</g>
<mask id="mask17">
  <g filter="url(#alpha)">
<rect x="0" y="0" width="50" height="50" style="fill:rgb(0%,0%,0%);fill-opacity:0.968627;stroke:none;"/>
  </g>
</mask>
<clipPath id="clip18">
  <rect width="50" height="50"/>
</clipPath>
<g id="surface57" clip-path="url(#clip18)">
<path style=" stroke:none;fill-rule:evenodd;fill:rgb(0.784314%,0.784314%,0.784314%);fill-opacity:1;" d="M 27.570312 22.984375 C 27.839844 22.972656 28.09375 23.023438 28.335938 23.140625 C 28.367188 23.171875 28.398438 23.203125 28.433594 23.222656 C 28.515625 23.335938 28.554688 23.464844 28.550781 23.609375 C 28.496094 23.996094 28.3125 24.3125 28 24.554688 C 27.664062 24.742188 27.382812 24.679688 27.148438 24.375 C 27.046875 24.21875 26.96875 24.050781 26.921875 23.871094 C 26.722656 23.871094 26.648438 23.773438 26.691406 23.582031 C 26.734375 23.535156 26.78125 23.496094 26.835938 23.464844 C 26.851562 23.351562 26.894531 23.257812 26.96875 23.175781 C 27.136719 23.015625 27.335938 22.953125 27.570312 22.984375 Z M 27.570312 22.984375 "/>
</g>
<mask id="mask18">
  <g filter="url(#alpha)">
<rect x="0" y="0" width="50" height="50" style="fill:rgb(0%,0%,0%);fill-opacity:0.827451;stroke:none;"/>
  </g>
</mask>
<clipPath id="clip19">
  <rect width="50" height="50"/>
</clipPath>
<g id="surface60" clip-path="url(#clip19)">
<path style=" stroke:none;fill-rule:evenodd;fill:rgb(96.078431%,96.078431%,96.078431%);fill-opacity:1;" d="M 28.433594 23.222656 C 28.726562 23.277344 28.765625 23.40625 28.550781 23.609375 C 28.554688 23.464844 28.515625 23.335938 28.433594 23.222656 Z M 28.433594 23.222656 "/>
</g>
<mask id="mask19">
  <g filter="url(#alpha)">
<rect x="0" y="0" width="50" height="50" style="fill:rgb(0%,0%,0%);fill-opacity:0.996078;stroke:none;"/>
  </g>
</mask>
<clipPath id="clip20">
  <rect width="50" height="50"/>
</clipPath>
<g id="surface63" clip-path="url(#clip20)">
<path style=" stroke:none;fill-rule:evenodd;fill:rgb(98.431373%,98.431373%,98.431373%);fill-opacity:1;" d="M 27.328125 23.367188 C 27.554688 23.363281 27.777344 23.375 28 23.402344 C 28.066406 23.429688 28.125 23.464844 28.179688 23.511719 C 28.195312 23.558594 28.195312 23.609375 28.179688 23.65625 C 28.097656 23.925781 27.941406 24.136719 27.710938 24.292969 C 27.644531 24.308594 27.582031 24.300781 27.519531 24.269531 C 27.34375 24.101562 27.230469 23.898438 27.183594 23.65625 C 27.210938 23.542969 27.257812 23.449219 27.328125 23.367188 Z M 27.328125 23.367188 "/>
</g>
<mask id="mask20">
  <g filter="url(#alpha)">
<rect x="0" y="0" width="50" height="50" style="fill:rgb(0%,0%,0%);fill-opacity:0.980392;stroke:none;"/>
  </g>
</mask>
<clipPath id="clip21">
  <rect width="50" height="50"/>
</clipPath>
<g id="surface66" clip-path="url(#clip21)">
<path style=" stroke:none;fill-rule:evenodd;fill:rgb(0.392157%,0.392157%,0.392157%);fill-opacity:1;" d="M 21.421875 24.257812 C 23.371094 24.109375 24.890625 24.835938 25.972656 26.441406 C 26.40625 27.125 26.558594 27.871094 26.429688 28.671875 C 26.207031 29.890625 25.816406 31.050781 25.253906 32.152344 C 24.472656 33.425781 23.339844 34.191406 21.855469 34.445312 C 20.332031 34.664062 18.871094 34.460938 17.460938 33.84375 C 16.582031 33.386719 15.960938 32.695312 15.601562 31.769531 C 15.191406 30.667969 15.207031 29.570312 15.652344 28.480469 C 15.953125 27.707031 16.414062 27.046875 17.03125 26.5 C 17.238281 26.347656 17.457031 26.203125 17.679688 26.066406 C 17.710938 26 17.753906 25.9375 17.800781 25.875 C 18.328125 25.53125 18.855469 25.1875 19.382812 24.84375 C 20.03125 24.523438 20.710938 24.328125 21.421875 24.257812 Z M 24.566406 25.886719 C 24.976562 26.226562 25.300781 26.636719 25.539062 27.113281 C 25.738281 27.578125 25.796875 28.058594 25.71875 28.550781 C 25.578125 27.558594 25.195312 26.667969 24.566406 25.886719 Z M 24.566406 25.886719 "/>
</g>
<mask id="mask21">
  <g filter="url(#alpha)">
<rect x="0" y="0" width="50" height="50" style="fill:rgb(0%,0%,0%);fill-opacity:0.639216;stroke:none;"/>
  </g>
</mask>
<clipPath id="clip22">
  <rect width="50" height="50"/>
</clipPath>
<g id="surface69" clip-path="url(#clip22)">
<path style=" stroke:none;fill-rule:evenodd;fill:rgb(89.411765%,89.411765%,89.411765%);fill-opacity:1;" d="M 2.917969 26.65625 C 3.023438 26.933594 3.140625 27.203125 3.277344 27.472656 C 3.082031 27.234375 2.960938 26.964844 2.917969 26.65625 Z M 2.917969 26.65625 "/>
</g>
<mask id="mask22">
  <g filter="url(#alpha)">
<rect x="0" y="0" width="50" height="50" style="fill:rgb(0%,0%,0%);fill-opacity:0.392157;stroke:none;"/>
  </g>
</mask>
<clipPath id="clip23">
  <rect width="50" height="50"/>
</clipPath>
<g id="surface72" clip-path="url(#clip23)">
<path style=" stroke:none;fill-rule:evenodd;fill:rgb(52.54902%,52.54902%,52.54902%);fill-opacity:1;" d="M 3.277344 27.472656 C 3.308594 27.484375 3.328125 27.507812 3.324219 27.542969 C 3.289062 27.53125 3.273438 27.507812 3.277344 27.472656 Z M 3.277344 27.472656 "/>
</g>
<mask id="mask23">
  <g filter="url(#alpha)">
<rect x="0" y="0" width="50" height="50" style="fill:rgb(0%,0%,0%);fill-opacity:0.968627;stroke:none;"/>
  </g>
</mask>
<clipPath id="clip24">
  <rect width="50" height="50"/>
</clipPath>
<g id="surface75" clip-path="url(#clip24)">
<path style=" stroke:none;fill-rule:evenodd;fill:rgb(0.392157%,0.392157%,0.392157%);fill-opacity:1;" d="M 39.066406 28.503906 C 41.433594 28.480469 43.378906 29.359375 44.910156 31.144531 C 45.378906 31.722656 45.675781 32.378906 45.800781 33.113281 C 45.859375 34.152344 45.667969 35.144531 45.222656 36.089844 C 44.328125 37.96875 42.921875 39.316406 41.011719 40.132812 C 39.628906 40.625 38.277344 40.550781 36.953125 39.917969 C 35.910156 39.453125 34.992188 38.808594 34.207031 37.984375 C 33.652344 37.355469 33.285156 36.625 33.101562 35.800781 C 33.054688 35.40625 32.980469 35.011719 32.886719 34.625 C 32.746094 33.601562 32.851562 32.601562 33.199219 31.625 C 33.367188 31.105469 33.648438 30.660156 34.050781 30.292969 C 34.464844 30.011719 34.914062 29.796875 35.394531 29.644531 C 35.625 29.527344 35.847656 29.402344 36.066406 29.261719 C 36.203125 29.183594 36.347656 29.121094 36.496094 29.070312 C 37.339844 28.800781 38.195312 28.613281 39.066406 28.503906 Z M 42.164062 29.65625 C 41.105469 29.332031 40.027344 29.128906 38.921875 29.058594 C 40.058594 28.949219 41.136719 29.152344 42.164062 29.65625 Z M 33.519531 36.28125 C 33.71875 36.550781 33.945312 36.804688 34.195312 37.039062 C 34.25 37.078125 34.316406 37.097656 34.386719 37.097656 C 35.105469 38.019531 36.007812 38.707031 37.097656 39.148438 C 38.257812 39.640625 39.46875 39.828125 40.722656 39.714844 C 39.640625 40.105469 38.5625 40.09375 37.480469 39.679688 C 36.105469 39.183594 34.957031 38.371094 34.039062 37.242188 C 33.820312 36.945312 33.648438 36.625 33.519531 36.28125 Z M 33.519531 36.28125 "/>
</g>
<mask id="mask24">
  <g filter="url(#alpha)">
<rect x="0" y="0" width="50" height="50" style="fill:rgb(0%,0%,0%);fill-opacity:0.952941;stroke:none;"/>
  </g>
</mask>
<clipPath id="clip25">
  <rect width="50" height="50"/>
</clipPath>
<g id="surface78" clip-path="url(#clip25)">
<path style=" stroke:none;fill-rule:evenodd;fill:rgb(0.784314%,0.784314%,0.784314%);fill-opacity:1;" d="M 9.757812 33.519531 C 9.527344 33.453125 9.328125 33.332031 9.15625 33.160156 C 9.132812 33.171875 9.113281 33.1875 9.097656 33.210938 C 9.054688 33.308594 9.011719 33.402344 8.964844 33.496094 C 8.875 33.539062 8.800781 33.523438 8.738281 33.449219 C 8.722656 33.242188 8.765625 33.042969 8.871094 32.859375 C 8.832031 32.792969 8.796875 32.726562 8.761719 32.65625 C 8.726562 32.5 8.785156 32.441406 8.941406 32.476562 C 8.972656 32.527344 9.011719 32.574219 9.0625 32.609375 C 9.410156 32.265625 9.765625 32.257812 10.128906 32.585938 C 10.296875 32.835938 10.304688 33.089844 10.152344 33.351562 C 10.054688 33.480469 9.921875 33.539062 9.757812 33.519531 Z M 9.757812 33.519531 "/>
</g>
<mask id="mask25">
  <g filter="url(#alpha)">
<rect x="0" y="0" width="50" height="50" style="fill:rgb(0%,0%,0%);fill-opacity:0.882353;stroke:none;"/>
  </g>
</mask>
<clipPath id="clip26">
  <rect width="50" height="50"/>
</clipPath>
<g id="surface81" clip-path="url(#clip26)">
<path style=" stroke:none;fill-rule:evenodd;fill:rgb(96.470588%,96.470588%,96.470588%);fill-opacity:1;" d="M 9.15625 33.160156 C 9.328125 33.332031 9.527344 33.453125 9.757812 33.519531 C 9.484375 33.617188 9.289062 33.539062 9.167969 33.28125 C 9.15625 33.242188 9.152344 33.203125 9.15625 33.160156 Z M 9.15625 33.160156 "/>
</g>
<mask id="mask26">
  <g filter="url(#alpha)">
<rect x="0" y="0" width="50" height="50" style="fill:rgb(0%,0%,0%);fill-opacity:0.941176;stroke:none;"/>
  </g>
</mask>
<clipPath id="clip27">
  <rect width="50" height="50"/>
</clipPath>
<g id="surface84" clip-path="url(#clip27)">
<path style=" stroke:none;fill-rule:evenodd;fill:rgb(0.392157%,0.392157%,0.392157%);fill-opacity:1;" d="M 27.472656 37.9375 C 27.386719 37.882812 27.300781 37.835938 27.207031 37.792969 C 27.15625 37.835938 27.09375 37.859375 27.027344 37.867188 C 26.871094 37.847656 26.816406 37.757812 26.859375 37.601562 C 26.878906 37.503906 26.929688 37.429688 27.015625 37.386719 C 27.339844 36.835938 27.796875 36.695312 28.382812 36.964844 C 28.539062 37.132812 28.566406 37.320312 28.46875 37.53125 C 28.246094 37.933594 27.914062 38.070312 27.472656 37.9375 Z M 28.191406 37.21875 C 28.253906 37.28125 28.253906 37.34375 28.191406 37.410156 C 28.191406 37.347656 28.191406 37.28125 28.191406 37.21875 Z M 28.191406 37.21875 "/>
</g>
<mask id="mask27">
  <g filter="url(#alpha)">
<rect x="0" y="0" width="50" height="50" style="fill:rgb(0%,0%,0%);fill-opacity:0.980392;stroke:none;"/>
  </g>
</mask>
<clipPath id="clip28">
  <rect width="50" height="50"/>
</clipPath>
<g id="surface87" clip-path="url(#clip28)">
<path style=" stroke:none;fill-rule:evenodd;fill:rgb(98.039216%,98.039216%,98.039216%);fill-opacity:1;" d="M 28.167969 37.195312 C 28.167969 37.210938 28.175781 37.21875 28.191406 37.21875 C 28.191406 37.28125 28.191406 37.347656 28.191406 37.410156 C 28.171875 37.417969 28.164062 37.433594 28.167969 37.457031 C 28.148438 37.464844 28.140625 37.480469 28.144531 37.507812 C 28.128906 37.507812 28.121094 37.515625 28.121094 37.53125 C 28.105469 37.53125 28.097656 37.539062 28.097656 37.554688 C 28.082031 37.554688 28.074219 37.5625 28.074219 37.578125 C 28.054688 37.578125 28.046875 37.585938 28.046875 37.601562 C 28.03125 37.601562 28.023438 37.609375 28.023438 37.625 C 28.007812 37.625 28 37.632812 28 37.648438 C 27.777344 37.785156 27.558594 37.765625 27.351562 37.601562 C 27.390625 37.414062 27.503906 37.273438 27.6875 37.183594 C 27.851562 37.164062 28.011719 37.167969 28.167969 37.195312 Z M 28.167969 37.195312 "/>
</g>
<mask id="mask28">
  <g filter="url(#alpha)">
<rect x="0" y="0" width="50" height="50" style="fill:rgb(0%,0%,0%);fill-opacity:0.823529;stroke:none;"/>
  </g>
</mask>
<clipPath id="clip29">
  <rect width="50" height="50"/>
</clipPath>
<g id="surface90" clip-path="url(#clip29)">
<path style=" stroke:none;fill-rule:evenodd;fill:rgb(93.333333%,93.333333%,93.333333%);fill-opacity:1;" d="M 27.207031 37.792969 C 27.300781 37.835938 27.386719 37.882812 27.472656 37.9375 C 27.332031 37.996094 27.242188 37.949219 27.207031 37.792969 Z M 27.207031 37.792969 "/>
</g>
<mask id="mask29">
  <g filter="url(#alpha)">
<rect x="0" y="0" width="50" height="50" style="fill:rgb(0%,0%,0%);fill-opacity:0.960784;stroke:none;"/>
  </g>
</mask>
<clipPath id="clip30">
  <rect width="50" height="50"/>
</clipPath>
<g id="surface93" clip-path="url(#clip30)">
<path style=" stroke:none;fill-rule:evenodd;fill:rgb(0%,0%,0%);fill-opacity:1;" d="M 22.695312 39.785156 C 23.972656 39.742188 25.132812 40.082031 26.175781 40.804688 C 27.101562 41.554688 27.425781 42.507812 27.148438 43.675781 C 26.949219 44.488281 26.597656 45.222656 26.09375 45.882812 C 24.941406 47.003906 23.609375 47.289062 22.09375 46.734375 C 21.078125 46.355469 20.273438 45.710938 19.683594 44.804688 C 19.296875 44.019531 19.285156 43.226562 19.648438 42.425781 C 19.328125 42.40625 19.230469 42.246094 19.347656 41.945312 C 19.613281 41.628906 19.886719 41.316406 20.164062 41.011719 C 20.84375 40.265625 21.6875 39.855469 22.695312 39.785156 Z M 19.839844 42.738281 C 19.828125 43.699219 20.09375 44.570312 20.632812 45.355469 C 19.988281 44.816406 19.683594 44.128906 19.707031 43.289062 C 19.734375 43.101562 19.777344 42.914062 19.839844 42.738281 Z M 26.558594 44.082031 C 25.882812 46.058594 24.523438 46.828125 22.480469 46.398438 C 22.203125 46.316406 21.9375 46.207031 21.6875 46.074219 C 22.28125 46.210938 22.875 46.199219 23.464844 46.039062 C 24.703125 45.699219 25.734375 45.046875 26.558594 44.082031 Z M 26.558594 44.082031 "/>
</g>
<mask id="mask30">
  <g filter="url(#alpha)">
<rect x="0" y="0" width="50" height="50" style="fill:rgb(0%,0%,0%);fill-opacity:0.996078;stroke:none;"/>
  </g>
</mask>
<clipPath id="clip31">
  <rect width="50" height="50"/>
</clipPath>
<g id="surface96" clip-path="url(#clip31)">
<path style=" stroke:none;fill-rule:evenodd;fill:rgb(99.607843%,99.607843%,99.607843%);fill-opacity:1;" d="M 26.007812 41.273438 C 26.113281 41.363281 26.207031 41.457031 26.296875 41.5625 C 26.296875 41.578125 26.304688 41.585938 26.320312 41.585938 C 26.320312 41.601562 26.328125 41.609375 26.34375 41.609375 C 26.367188 41.644531 26.390625 41.675781 26.417969 41.707031 C 26.441406 41.738281 26.464844 41.769531 26.488281 41.800781 C 26.808594 42.277344 26.910156 42.796875 26.789062 43.363281 C 26.757812 43.597656 26.6875 43.824219 26.585938 44.035156 C 26.5625 44.042969 26.554688 44.058594 26.558594 44.082031 C 25.734375 45.046875 24.703125 45.699219 23.464844 46.039062 C 22.875 46.199219 22.28125 46.210938 21.6875 46.074219 C 21.671875 46.054688 21.644531 46.046875 21.617188 46.050781 C 21.261719 45.875 20.941406 45.652344 20.65625 45.378906 C 20.65625 45.363281 20.648438 45.355469 20.632812 45.355469 C 20.09375 44.570312 19.828125 43.699219 19.839844 42.738281 C 20.003906 42.027344 20.371094 41.449219 20.941406 41 C 21.554688 40.507812 22.253906 40.277344 23.042969 40.3125 C 23.921875 40.308594 24.75 40.511719 25.527344 40.925781 C 25.691406 41.035156 25.851562 41.152344 26.007812 41.273438 Z M 26.007812 41.273438 "/>
</g>
</defs>
<g id="surface1">
<use xlink:href="#surface6" mask="url(#mask0)"/>
<path style=" stroke:none;fill-rule:evenodd;fill:rgb(99.607843%,99.607843%,99.607843%);fill-opacity:1;" d="M 31.265625 8.75 C 31.242188 8.746094 31.226562 8.753906 31.21875 8.773438 C 30.679688 8.957031 30.128906 9.03125 29.5625 8.988281 C 29.46875 8.972656 29.382812 8.945312 29.296875 8.90625 C 28.109375 8.183594 27.695312 7.140625 28.046875 5.773438 C 28.015625 5.773438 27.984375 5.773438 27.953125 5.773438 C 27.921875 5.457031 27.960938 5.152344 28.074219 4.859375 C 28.097656 4.828125 28.113281 4.785156 28.121094 4.742188 C 28.398438 4.089844 28.855469 3.605469 29.488281 3.289062 C 29.757812 3.199219 30.027344 3.183594 30.304688 3.242188 C 30.5625 3.339844 30.808594 3.460938 31.050781 3.601562 C 31.566406 3.929688 32.035156 4.316406 32.453125 4.765625 C 32.648438 5.015625 32.78125 5.296875 32.859375 5.605469 C 32.917969 5.921875 32.894531 6.234375 32.789062 6.542969 C 32.511719 7.371094 32.050781 8.078125 31.410156 8.664062 C 31.355469 8.6875 31.308594 8.714844 31.265625 8.75 Z M 31.265625 8.75 "/>
<path style=" stroke:none;fill-rule:evenodd;fill:rgb(3.137255%,3.137255%,3.137255%);fill-opacity:1;" d="M 29.511719 4.453125 C 29.679688 4.449219 29.722656 4.519531 29.644531 4.667969 C 29.460938 4.828125 29.324219 5.019531 29.238281 5.246094 C 29.21875 5.390625 29.21875 5.53125 29.238281 5.675781 C 29.296875 5.9375 29.359375 6.195312 29.417969 6.457031 C 29.398438 6.59375 29.316406 6.652344 29.175781 6.625 C 29.140625 6.597656 29.113281 6.558594 29.09375 6.515625 C 29.050781 6.21875 28.992188 5.921875 28.925781 5.628906 C 28.890625 5.367188 28.949219 5.128906 29.09375 4.910156 C 29.230469 4.75 29.371094 4.597656 29.511719 4.453125 Z M 29.511719 4.453125 "/>
<use xlink:href="#surface9" mask="url(#mask1)"/>
<use xlink:href="#surface12" mask="url(#mask2)"/>
<path style=" stroke:none;fill-rule:evenodd;fill:rgb(98.431373%,98.431373%,98.431373%);fill-opacity:1;" d="M 36.378906 4.859375 C 36.464844 4.851562 36.542969 4.871094 36.617188 4.921875 C 36.761719 5.035156 36.871094 5.175781 36.941406 5.339844 C 36.960938 5.597656 36.84375 5.761719 36.59375 5.832031 C 36.335938 5.902344 36.148438 5.816406 36.03125 5.582031 C 36.015625 5.53125 36.015625 5.484375 36.03125 5.4375 C 36.101562 5.285156 36.171875 5.132812 36.246094 4.980469 C 36.289062 4.933594 36.332031 4.894531 36.378906 4.859375 Z M 36.378906 4.859375 "/>
<path style=" stroke:none;fill-rule:evenodd;fill:rgb(98.823529%,98.823529%,98.823529%);fill-opacity:1;" d="M 13.789062 5.027344 C 13.964844 5.011719 14.132812 5.042969 14.292969 5.113281 C 14.3125 5.132812 14.335938 5.152344 14.355469 5.171875 C 14.390625 5.457031 14.289062 5.6875 14.054688 5.855469 C 13.878906 5.980469 13.6875 6.019531 13.476562 5.976562 C 13.332031 5.871094 13.28125 5.734375 13.320312 5.558594 C 13.394531 5.375 13.5 5.21875 13.644531 5.089844 C 13.699219 5.074219 13.746094 5.054688 13.789062 5.027344 Z M 13.789062 5.027344 "/>
<use xlink:href="#surface15" mask="url(#mask3)"/>
<path style=" stroke:none;fill-rule:evenodd;fill:rgb(78.431373%,78.431373%,78.431373%);fill-opacity:1;" d="M 13.070312 6.011719 C 13.125 5.992188 13.15625 6.015625 13.167969 6.085938 C 13.132812 6.0625 13.101562 6.035156 13.070312 6.011719 Z M 13.070312 6.011719 "/>
<use xlink:href="#surface18" mask="url(#mask4)"/>
<use xlink:href="#surface21" mask="url(#mask5)"/>
<path style=" stroke:none;fill-rule:evenodd;fill:rgb(99.607843%,99.607843%,99.607843%);fill-opacity:1;" d="M 19.3125 7.046875 C 19.488281 7.089844 19.664062 7.132812 19.839844 7.175781 C 21.453125 7.695312 22.917969 8.476562 24.230469 9.515625 C 24.230469 9.535156 24.238281 9.542969 24.257812 9.542969 C 24.257812 9.558594 24.265625 9.566406 24.28125 9.566406 C 24.28125 9.582031 24.289062 9.589844 24.304688 9.589844 C 24.84375 10.230469 25.296875 10.9375 25.660156 11.703125 C 25.808594 12.054688 25.898438 12.421875 25.925781 12.804688 C 26 14.152344 25.785156 15.449219 25.277344 16.695312 C 24.539062 18.183594 23.480469 19.386719 22.09375 20.308594 C 20.5 21.257812 18.84375 21.367188 17.125 20.644531 C 15.453125 19.875 14.152344 18.695312 13.226562 17.101562 C 12.777344 16.246094 12.636719 15.34375 12.804688 14.390625 C 12.828125 14.363281 12.835938 14.332031 12.828125 14.292969 C 12.851562 14.269531 12.859375 14.238281 12.855469 14.199219 C 12.875 14.164062 12.886719 14.125 12.878906 14.078125 C 12.902344 14.050781 12.910156 14.019531 12.902344 13.980469 C 12.925781 13.957031 12.933594 13.925781 12.925781 13.886719 C 12.949219 13.859375 12.957031 13.828125 12.949219 13.789062 C 12.972656 13.765625 12.980469 13.734375 12.972656 13.695312 C 12.996094 13.667969 13.003906 13.636719 13 13.597656 C 13.019531 13.582031 13.027344 13.558594 13.023438 13.527344 C 13.042969 13.5 13.050781 13.46875 13.046875 13.429688 C 13.4375 12.125 14.074219 10.957031 14.953125 9.925781 C 15.507812 9.347656 16.085938 8.796875 16.683594 8.269531 C 16.695312 8.238281 16.699219 8.207031 16.695312 8.171875 C 16.652344 8.167969 16.613281 8.171875 16.574219 8.183594 C 16.441406 8.320312 16.296875 8.429688 16.144531 8.519531 C 16.507812 8.042969 16.953125 7.667969 17.488281 7.394531 C 18.074219 7.167969 18.683594 7.050781 19.3125 7.046875 Z M 19.3125 7.046875 "/>
<use xlink:href="#surface24" mask="url(#mask6)"/>
<use xlink:href="#surface27" mask="url(#mask7)"/>
<path style=" stroke:none;fill-rule:evenodd;fill:rgb(99.607843%,99.607843%,99.607843%);fill-opacity:1;" d="M 38.179688 10.765625 C 39.3125 10.820312 40.433594 10.972656 41.539062 11.222656 C 41.546875 11.242188 41.5625 11.25 41.585938 11.246094 C 41.601562 11.246094 41.617188 11.246094 41.632812 11.246094 C 41.652344 11.246094 41.660156 11.253906 41.660156 11.269531 C 41.859375 11.316406 42.050781 11.386719 42.234375 11.472656 C 43.511719 12.054688 44.648438 12.839844 45.644531 13.828125 C 45.921875 14.089844 46.167969 14.382812 46.375 14.703125 C 46.460938 14.84375 46.523438 14.996094 46.554688 15.160156 C 46.550781 15.1875 46.558594 15.214844 46.578125 15.230469 C 46.613281 16.234375 46.484375 17.21875 46.195312 18.183594 C 46.195312 18.191406 46.195312 18.199219 46.195312 18.207031 C 46.179688 18.207031 46.171875 18.214844 46.171875 18.230469 C 46.132812 18.355469 46.082031 18.476562 46.015625 18.589844 C 45.671875 19.175781 45.269531 19.71875 44.816406 20.222656 C 43.90625 21.265625 42.832031 22.085938 41.585938 22.683594 C 39.875 23.433594 38.203125 23.363281 36.570312 22.46875 C 35.171875 21.605469 34.183594 20.398438 33.605469 18.855469 C 33.367188 18.246094 33.253906 17.613281 33.269531 16.957031 C 33.34375 16.359375 33.464844 15.765625 33.628906 15.183594 C 33.644531 15.125 33.644531 15.070312 33.628906 15.015625 C 33.574219 14.949219 33.515625 14.949219 33.460938 15.015625 C 33.335938 15.464844 33.210938 15.914062 33.089844 16.359375 C 33.089844 16.199219 33.082031 16.039062 33.066406 15.878906 C 33.40625 14.761719 33.90625 13.71875 34.566406 12.757812 C 35.449219 11.527344 36.65625 10.863281 38.179688 10.765625 Z M 38.179688 10.765625 "/>
<path style=" stroke:none;fill-rule:evenodd;fill:rgb(2.745098%,2.745098%,2.745098%);fill-opacity:1;" d="M 15.015625 11.292969 C 15.140625 11.28125 15.203125 11.339844 15.195312 11.460938 C 14.929688 11.988281 14.75 12.535156 14.65625 13.105469 C 14.59375 13.128906 14.542969 13.117188 14.5 13.070312 C 14.5 12.65625 14.578125 12.253906 14.738281 11.871094 C 14.824219 11.671875 14.917969 11.480469 15.015625 11.292969 Z M 15.015625 11.292969 "/>
<path style=" stroke:none;fill-rule:evenodd;fill:rgb(1.568627%,1.568627%,1.568627%);fill-opacity:1;" d="M 23.464844 12.039062 C 23.523438 12.039062 23.578125 12.050781 23.632812 12.074219 C 24.054688 12.492188 24.339844 12.992188 24.484375 13.574219 C 24.800781 14.804688 24.691406 16 24.160156 17.152344 C 24.046875 17.214844 23.933594 17.214844 23.824219 17.152344 C 23.78125 17.101562 23.757812 17.046875 23.75 16.984375 C 23.96875 16.421875 24.117188 15.847656 24.195312 15.253906 C 24.238281 14.558594 24.148438 13.878906 23.933594 13.214844 C 23.796875 12.855469 23.605469 12.539062 23.355469 12.253906 C 23.351562 12.164062 23.390625 12.089844 23.464844 12.039062 Z M 23.464844 12.039062 "/>
<use xlink:href="#surface30" mask="url(#mask8)"/>
<path style=" stroke:none;fill-rule:evenodd;fill:rgb(2.352941%,2.352941%,2.352941%);fill-opacity:1;" d="M 34.601562 16.09375 C 34.65625 16.089844 34.707031 16.097656 34.757812 16.117188 C 34.765625 16.65625 34.773438 17.191406 34.78125 17.726562 C 34.820312 18.179688 34.917969 18.621094 35.082031 19.046875 C 35.085938 19.121094 35.046875 19.160156 34.972656 19.167969 C 34.941406 19.160156 34.917969 19.144531 34.902344 19.117188 C 34.617188 18.421875 34.5 17.699219 34.554688 16.945312 C 34.558594 16.679688 34.5625 16.410156 34.566406 16.144531 C 34.582031 16.128906 34.59375 16.113281 34.601562 16.09375 Z M 34.601562 16.09375 "/>
<path style=" stroke:none;fill-rule:evenodd;fill:rgb(2.745098%,2.745098%,2.745098%);fill-opacity:1;" d="M 44.300781 17.800781 C 44.417969 17.78125 44.492188 17.832031 44.515625 17.941406 C 44.304688 18.875 43.855469 19.671875 43.171875 20.332031 C 42.8125 20.617188 42.417969 20.859375 41.996094 21.050781 C 41.484375 21.257812 40.96875 21.46875 40.457031 21.675781 C 40.335938 21.695312 40.292969 21.648438 40.339844 21.53125 C 40.886719 21.300781 41.429688 21.0625 41.972656 20.8125 C 42.648438 20.46875 43.1875 19.976562 43.589844 19.335938 C 43.84375 18.828125 44.078125 18.316406 44.300781 17.800781 Z M 44.300781 17.800781 "/>
<use xlink:href="#surface33" mask="url(#mask9)"/>
<use xlink:href="#surface36" mask="url(#mask10)"/>
<use xlink:href="#surface39" mask="url(#mask11)"/>
<use xlink:href="#surface42" mask="url(#mask12)"/>
<use xlink:href="#surface45" mask="url(#mask13)"/>
<path style=" stroke:none;fill-rule:evenodd;fill:rgb(99.607843%,99.607843%,99.607843%);fill-opacity:1;" d="M 3.085938 24.375 C 3.105469 24.351562 3.113281 24.316406 3.109375 24.28125 C 3.28125 23.792969 3.492188 23.324219 3.734375 22.863281 C 4.03125 22.519531 4.390625 22.253906 4.8125 22.058594 C 4.90625 21.96875 4.90625 21.875 4.8125 21.785156 C 5.734375 21.089844 6.75 20.910156 7.859375 21.242188 C 8.734375 21.46875 9.441406 21.9375 9.984375 22.648438 C 10.285156 23.117188 10.367188 23.621094 10.226562 24.160156 C 10.046875 24.957031 9.765625 25.71875 9.386719 26.441406 C 8.945312 27.136719 8.390625 27.722656 7.71875 28.203125 C 7.265625 28.492188 6.773438 28.613281 6.242188 28.578125 C 5.054688 28.640625 4.191406 28.152344 3.648438 27.113281 C 3.273438 26.394531 3.070312 25.628906 3.035156 24.820312 C 3.035156 24.667969 3.050781 24.523438 3.085938 24.375 Z M 3.085938 24.375 "/>
<use xlink:href="#surface48" mask="url(#mask14)"/>
<path style=" stroke:none;fill-rule:evenodd;fill:rgb(72.156863%,72.156863%,72.156863%);fill-opacity:1;" d="M 35.203125 21.855469 C 35.253906 21.871094 35.296875 21.902344 35.320312 21.953125 C 35.269531 21.9375 35.226562 21.90625 35.203125 21.855469 Z M 35.203125 21.855469 "/>
<use xlink:href="#surface51" mask="url(#mask15)"/>
<use xlink:href="#surface54" mask="url(#mask16)"/>
<use xlink:href="#surface57" mask="url(#mask17)"/>
<path style=" stroke:none;fill-rule:evenodd;fill:rgb(1.960784%,1.960784%,1.960784%);fill-opacity:1;" d="M 8.027344 23.078125 C 8.082031 23.078125 8.128906 23.089844 8.171875 23.117188 C 8.371094 23.257812 8.570312 23.394531 8.773438 23.523438 C 9.09375 23.75 9.289062 24.058594 9.363281 24.449219 C 9.394531 24.773438 9.453125 25.09375 9.542969 25.40625 C 9.511719 25.570312 9.417969 25.628906 9.253906 25.589844 C 9.214844 25.558594 9.1875 25.523438 9.167969 25.480469 C 9.109375 25.128906 9.054688 24.777344 9 24.425781 C 8.9375 24.148438 8.796875 23.921875 8.582031 23.738281 C 8.378906 23.582031 8.171875 23.429688 7.96875 23.273438 C 7.941406 23.1875 7.960938 23.125 8.027344 23.078125 Z M 8.027344 23.078125 "/>
<use xlink:href="#surface60" mask="url(#mask18)"/>
<use xlink:href="#surface63" mask="url(#mask19)"/>
<use xlink:href="#surface66" mask="url(#mask20)"/>
<path style=" stroke:none;fill-rule:evenodd;fill:rgb(1.568627%,1.568627%,1.568627%);fill-opacity:1;" d="M 3.683594 24.472656 C 3.773438 24.460938 3.847656 24.484375 3.914062 24.542969 C 3.882812 24.867188 3.898438 25.1875 3.960938 25.503906 C 4.042969 25.769531 4.1875 25.988281 4.40625 26.164062 C 4.609375 26.316406 4.828125 26.457031 5.054688 26.585938 C 5.101562 26.804688 5.011719 26.898438 4.789062 26.859375 C 3.738281 26.375 3.371094 25.578125 3.683594 24.472656 Z M 3.683594 24.472656 "/>
<path style=" stroke:none;fill-rule:evenodd;fill:rgb(99.607843%,99.607843%,99.607843%);fill-opacity:1;" d="M 24.566406 25.886719 C 25.195312 26.667969 25.578125 27.558594 25.71875 28.550781 C 25.710938 28.828125 25.664062 29.101562 25.589844 29.367188 C 25.410156 30.074219 25.175781 30.761719 24.890625 31.433594 C 24.460938 32.359375 23.777344 33.027344 22.839844 33.4375 C 21.636719 33.929688 20.40625 34.015625 19.144531 33.703125 C 16.957031 33.25 15.886719 31.910156 15.9375 29.679688 C 16.109375 28.683594 16.527344 27.800781 17.1875 27.039062 C 17.402344 26.839844 17.632812 26.648438 17.871094 26.476562 C 17.988281 26.476562 18.101562 26.449219 18.207031 26.402344 C 18.738281 26.054688 19.273438 25.710938 19.816406 25.371094 C 20.371094 25.152344 20.949219 25.007812 21.542969 24.941406 C 22.417969 24.875 23.242188 25.042969 24.015625 25.445312 C 24.226562 25.5625 24.410156 25.710938 24.566406 25.886719 Z M 24.566406 25.886719 "/>
<path style=" stroke:none;fill-rule:evenodd;fill:rgb(3.137255%,3.137255%,3.137255%);fill-opacity:1;" d="M 22.984375 26.703125 C 23.59375 26.734375 24.125 26.953125 24.578125 27.351562 C 24.671875 27.472656 24.652344 27.574219 24.519531 27.652344 C 24.488281 27.667969 24.457031 27.667969 24.425781 27.652344 C 24.015625 27.28125 23.535156 27.066406 22.984375 27.003906 C 22.855469 26.902344 22.855469 26.800781 22.984375 26.703125 Z M 22.984375 26.703125 "/>
<use xlink:href="#surface69" mask="url(#mask21)"/>
<use xlink:href="#surface72" mask="url(#mask22)"/>
<path style=" stroke:none;fill-rule:evenodd;fill:rgb(1.568627%,1.568627%,1.568627%);fill-opacity:1;" d="M 18.207031 28.097656 C 18.410156 28.117188 18.476562 28.222656 18.410156 28.410156 C 17.769531 29.160156 17.570312 30.015625 17.8125 30.976562 C 17.875 31.082031 17.925781 31.1875 17.96875 31.300781 C 17.917969 31.515625 17.800781 31.558594 17.617188 31.433594 C 17.410156 31.175781 17.296875 30.878906 17.28125 30.542969 C 17.242188 29.59375 17.550781 28.777344 18.207031 28.097656 Z M 18.207031 28.097656 "/>
<use xlink:href="#surface75" mask="url(#mask23)"/>
<path style=" stroke:none;fill-rule:evenodd;fill:rgb(99.607843%,99.607843%,99.607843%);fill-opacity:1;" d="M 38.921875 29.058594 C 40.027344 29.128906 41.105469 29.332031 42.164062 29.65625 C 42.179688 29.679688 42.203125 29.6875 42.234375 29.679688 C 43.320312 30.167969 44.1875 30.914062 44.839844 31.914062 C 45.304688 32.640625 45.441406 33.421875 45.246094 34.265625 C 45.054688 35.46875 44.574219 36.542969 43.808594 37.480469 C 43.039062 38.445312 42.089844 39.167969 40.960938 39.65625 C 40.886719 39.6875 40.804688 39.707031 40.722656 39.714844 C 39.46875 39.828125 38.257812 39.640625 37.097656 39.148438 C 36.007812 38.707031 35.105469 38.019531 34.386719 37.097656 C 34.507812 37.027344 34.550781 36.925781 34.515625 36.785156 C 33.480469 35.582031 33.125 34.199219 33.460938 32.632812 C 33.5625 32.136719 33.730469 31.664062 33.964844 31.21875 C 34.222656 30.800781 34.578125 30.5 35.035156 30.316406 C 35.511719 30.144531 35.96875 29.929688 36.402344 29.667969 C 37.210938 29.339844 38.050781 29.136719 38.921875 29.058594 Z M 38.921875 29.058594 "/>
<path style=" stroke:none;fill-rule:evenodd;fill:rgb(1.960784%,1.960784%,1.960784%);fill-opacity:1;" d="M 36.042969 31.480469 C 36.210938 31.5 36.261719 31.589844 36.199219 31.746094 C 35.917969 32.066406 35.636719 32.386719 35.359375 32.707031 C 34.972656 33.195312 34.773438 33.757812 34.757812 34.386719 C 34.742188 34.707031 34.75 35.027344 34.78125 35.34375 C 34.742188 35.414062 34.679688 35.433594 34.601562 35.40625 C 34.574219 35.394531 34.554688 35.375 34.542969 35.34375 C 34.253906 34.371094 34.40625 33.476562 34.996094 32.65625 C 35.34375 32.261719 35.691406 31.867188 36.042969 31.480469 Z M 36.042969 31.480469 "/>
<use xlink:href="#surface78" mask="url(#mask24)"/>
<path style=" stroke:none;fill-rule:evenodd;fill:rgb(97.254902%,97.254902%,97.254902%);fill-opacity:1;" d="M 9.515625 32.679688 C 9.730469 32.671875 9.875 32.769531 9.949219 32.96875 C 9.941406 33.191406 9.835938 33.257812 9.636719 33.171875 C 9.523438 33.097656 9.414062 33.015625 9.3125 32.921875 C 9.296875 32.90625 9.296875 32.890625 9.3125 32.875 C 9.378906 32.804688 9.445312 32.738281 9.515625 32.679688 Z M 9.515625 32.679688 "/>
<use xlink:href="#surface81" mask="url(#mask25)"/>
<path style=" stroke:none;fill-rule:evenodd;fill:rgb(2.745098%,2.745098%,2.745098%);fill-opacity:1;" d="M 42.59375 34.195312 C 43.097656 34.152344 43.507812 34.320312 43.832031 34.699219 C 43.929688 34.863281 43.980469 35.042969 43.988281 35.238281 C 43.910156 35.867188 43.621094 36.371094 43.121094 36.75 C 42.578125 37.027344 42.101562 36.9375 41.695312 36.472656 C 41.386719 36.039062 41.339844 35.574219 41.550781 35.082031 C 41.617188 34.925781 41.6875 34.773438 41.765625 34.625 C 41.816406 34.601562 41.871094 34.601562 41.921875 34.613281 C 42.121094 34.429688 42.34375 34.289062 42.59375 34.195312 Z M 42.59375 34.195312 "/>
<path style=" stroke:none;fill-rule:evenodd;fill:rgb(99.215686%,99.215686%,99.215686%);fill-opacity:1;" d="M 42.667969 34.53125 C 43.019531 34.5 43.320312 34.613281 43.566406 34.867188 C 43.667969 35.027344 43.699219 35.203125 43.664062 35.394531 C 43.5625 35.867188 43.316406 36.246094 42.929688 36.535156 C 42.640625 36.691406 42.359375 36.675781 42.089844 36.484375 C 41.660156 36.121094 41.53125 35.667969 41.707031 35.128906 C 41.789062 35.164062 41.867188 35.160156 41.945312 35.117188 C 42.136719 34.851562 42.375 34.65625 42.667969 34.53125 Z M 42.667969 34.53125 "/>
<use xlink:href="#surface84" mask="url(#mask26)"/>
<use xlink:href="#surface87" mask="url(#mask27)"/>
<use xlink:href="#surface90" mask="url(#mask28)"/>
<use xlink:href="#surface93" mask="url(#mask29)"/>
<use xlink:href="#surface96" mask="url(#mask30)"/>
<path style=" stroke:none;fill-rule:evenodd;fill:rgb(2.745098%,2.745098%,2.745098%);fill-opacity:1;" d="M 24.566406 41.371094 C 24.660156 41.363281 24.738281 41.394531 24.808594 41.453125 C 25.363281 41.957031 25.664062 42.585938 25.707031 43.339844 C 25.722656 43.546875 25.722656 43.753906 25.707031 43.964844 C 25.617188 44.066406 25.535156 44.058594 25.46875 43.9375 C 25.441406 43.425781 25.335938 42.929688 25.15625 42.449219 C 25.011719 42.121094 24.804688 41.84375 24.53125 41.609375 C 24.476562 41.519531 24.488281 41.4375 24.566406 41.371094 Z M 24.566406 41.371094 "/>
<path style=" stroke:none;fill-rule:evenodd;fill:rgb(3.137255%,3.137255%,3.137255%);fill-opacity:1;" d="M 21.253906 43.171875 C 21.300781 43.167969 21.335938 43.183594 21.363281 43.21875 C 21.554688 43.695312 21.769531 44.160156 22.011719 44.609375 C 22.039062 44.691406 22.019531 44.75 21.953125 44.792969 C 21.90625 44.808594 21.871094 44.796875 21.84375 44.753906 C 21.609375 44.289062 21.398438 43.808594 21.21875 43.316406 C 21.203125 43.257812 21.214844 43.210938 21.253906 43.171875 Z M 21.253906 43.171875 "/>
</g>
</svg>
