<?xml version="1.0" encoding="UTF-8"?>
<svg xmlns="http://www.w3.org/2000/svg" xmlns:xlink="http://www.w3.org/1999/xlink" width="50pt" height="50pt" viewBox="0 0 50 50" version="1.1">
<defs>
<filter id="alpha" filterUnits="objectBoundingBox" x="0%" y="0%" width="100%" height="100%">
  <feColorMatrix type="matrix" in="SourceGraphic" values="0 0 0 0 1 0 0 0 0 1 0 0 0 0 1 0 0 0 1 0"/>
</filter>
<mask id="mask0">
  <g filter="url(#alpha)">
<rect x="0" y="0" width="50" height="50" style="fill:rgb(0%,0%,0%);fill-opacity:0.972549;stroke:none;"/>
  </g>
</mask>
<clipPath id="clip1">
  <rect width="50" height="50"/>
</clipPath>
<g id="surface6" clip-path="url(#clip1)">
<path style=" stroke:none;fill-rule:evenodd;fill:rgb(0.784314%,0.784314%,0.784314%);fill-opacity:1;" d="M 25.601562 1.367188 C 26.511719 1.25 27.09375 1.636719 27.351562 2.519531 C 27.523438 3.226562 27.621094 3.949219 27.640625 4.679688 C 27.671875 5.621094 27.671875 6.566406 27.640625 7.507812 C 27.402344 10.546875 27.210938 13.585938 27.0625 16.625 C 27.046875 18.480469 27.03125 20.335938 27.015625 22.191406 C 26.945312 23.6875 26.886719 25.183594 26.847656 26.679688 C 26.855469 27.296875 26.871094 27.910156 26.894531 28.527344 C 26.773438 30.492188 26.667969 32.460938 26.582031 34.429688 C 26.5625 35.066406 26.417969 35.675781 26.152344 36.253906 C 25.714844 36.859375 25.128906 37.058594 24.398438 36.851562 C 23.722656 36.640625 23.113281 36.304688 22.578125 35.84375 C 21.902344 35.257812 21.351562 34.578125 20.921875 33.804688 C 20.539062 32.863281 20.28125 31.886719 20.152344 30.878906 C 20.121094 30.496094 20.121094 30.109375 20.152344 29.726562 C 20.25 29.566406 20.292969 29.390625 20.273438 29.199219 C 20.121094 27.726562 19.96875 26.253906 19.816406 24.785156 C 19.671875 21.105469 19.847656 17.445312 20.34375 13.796875 C 20.71875 11.195312 21.214844 8.621094 21.832031 6.070312 C 22.316406 4.421875 23.203125 3.039062 24.496094 1.917969 C 24.84375 1.683594 25.210938 1.5 25.601562 1.367188 Z M 25.601562 1.367188 "/>
</g>
<mask id="mask1">
  <g filter="url(#alpha)">
<rect x="0" y="0" width="50" height="50" style="fill:rgb(0%,0%,0%);fill-opacity:0.968627;stroke:none;"/>
  </g>
</mask>
<clipPath id="clip2">
  <rect width="50" height="50"/>
</clipPath>
<g id="surface9" clip-path="url(#clip2)">
<path style=" stroke:none;fill-rule:evenodd;fill:rgb(0.784314%,0.784314%,0.784314%);fill-opacity:1;" d="M 24.113281 41.050781 C 25.109375 40.925781 26.003906 41.15625 26.800781 41.746094 C 27.246094 42.1875 27.496094 42.722656 27.542969 43.355469 C 28.1875 43.925781 28.445312 44.648438 28.3125 45.511719 C 27.957031 47.011719 27.070312 48.058594 25.648438 48.65625 C 23.761719 49.027344 22.28125 48.414062 21.210938 46.808594 C 20.320312 44.941406 20.632812 43.300781 22.144531 41.890625 C 22.730469 41.4375 23.386719 41.15625 24.113281 41.050781 Z M 25.839844 42.011719 C 24.246094 41.570312 22.933594 41.988281 21.90625 43.257812 C 22.507812 42.234375 23.410156 41.738281 24.617188 41.769531 C 25.050781 41.742188 25.460938 41.824219 25.839844 42.011719 Z M 25.839844 42.011719 C 25.929688 41.996094 25.992188 42.03125 26.03125 42.105469 C 25.953125 42.097656 25.886719 42.066406 25.839844 42.011719 Z M 21.90625 43.257812 C 21.910156 43.332031 21.875 43.378906 21.808594 43.402344 C 21.804688 43.328125 21.835938 43.28125 21.90625 43.257812 Z M 21.90625 43.257812 "/>
</g>
<mask id="mask2">
  <g filter="url(#alpha)">
<rect x="0" y="0" width="50" height="50" style="fill:rgb(0%,0%,0%);fill-opacity:0.952941;stroke:none;"/>
  </g>
</mask>
<clipPath id="clip3">
  <rect width="50" height="50"/>
</clipPath>
<g id="surface12" clip-path="url(#clip3)">
<path style=" stroke:none;fill-rule:evenodd;fill:rgb(97.647059%,97.647059%,97.647059%);fill-opacity:1;" d="M 25.839844 42.011719 C 25.886719 42.066406 25.953125 42.097656 26.03125 42.105469 C 26.046875 42.105469 26.0625 42.105469 26.078125 42.105469 C 26.097656 42.148438 26.128906 42.164062 26.175781 42.15625 C 26.433594 42.296875 26.625 42.507812 26.75 42.777344 C 26.726562 42.792969 26.703125 42.808594 26.679688 42.828125 C 25.632812 42.378906 24.585938 42.378906 23.535156 42.828125 C 23.519531 42.808594 23.503906 42.792969 23.488281 42.777344 C 23.609375 42.675781 23.6875 42.546875 23.726562 42.394531 C 23.699219 42.226562 23.601562 42.171875 23.441406 42.226562 C 23.117188 42.515625 22.871094 42.859375 22.695312 43.257812 C 22.199219 43.613281 21.78125 44.042969 21.449219 44.554688 C 21.417969 44.609375 21.394531 44.609375 21.378906 44.554688 C 21.414062 44.476562 21.433594 44.398438 21.425781 44.3125 C 21.46875 44.261719 21.484375 44.199219 21.472656 44.121094 C 21.515625 44.085938 21.53125 44.039062 21.519531 43.976562 C 21.5625 43.960938 21.578125 43.929688 21.570312 43.882812 C 21.609375 43.867188 21.625 43.832031 21.617188 43.785156 C 21.65625 43.769531 21.671875 43.738281 21.664062 43.691406 C 21.707031 43.671875 21.722656 43.640625 21.714844 43.59375 C 21.753906 43.578125 21.769531 43.546875 21.761719 43.5 C 21.800781 43.480469 21.816406 43.449219 21.808594 43.402344 C 21.875 43.378906 21.910156 43.332031 21.90625 43.257812 C 22.933594 41.988281 24.246094 41.570312 25.839844 42.011719 Z M 25.839844 42.011719 "/>
</g>
</defs>
<g id="surface1">
<use xlink:href="#surface6" mask="url(#mask0)"/>
<path style=" stroke:none;fill-rule:evenodd;fill:rgb(99.607843%,99.607843%,99.607843%);fill-opacity:1;" d="M 25.648438 2.136719 C 26.148438 2.03125 26.457031 2.222656 26.582031 2.710938 C 26.726562 3.230469 26.820312 3.757812 26.871094 4.292969 C 26.902344 5.300781 26.902344 6.308594 26.871094 7.316406 C 26.710938 10.003906 26.535156 12.691406 26.34375 15.378906 C 26.277344 18.019531 26.230469 20.65625 26.199219 23.296875 C 26.042969 25.238281 26.003906 27.179688 26.078125 29.125 C 25.957031 31.101562 25.839844 33.078125 25.71875 35.054688 C 25.675781 35.40625 25.539062 35.71875 25.3125 35.988281 C 25.171875 36.066406 25.019531 36.109375 24.855469 36.109375 C 24.527344 36.0625 24.214844 35.957031 23.921875 35.796875 C 22.257812 34.785156 21.304688 33.308594 21.066406 31.359375 C 21.007812 31.039062 20.949219 30.71875 20.898438 30.398438 C 20.984375 30.144531 20.960938 29.902344 20.824219 29.679688 C 20.808594 29.117188 20.792969 28.558594 20.777344 28 C 20.351562 24.664062 20.300781 21.320312 20.632812 17.96875 C 20.9375 14.199219 21.53125 10.472656 22.410156 6.789062 C 22.851562 5.066406 23.738281 3.617188 25.070312 2.445312 C 25.261719 2.328125 25.453125 2.226562 25.648438 2.136719 Z M 25.648438 2.136719 "/>
<use xlink:href="#surface9" mask="url(#mask1)"/>
<use xlink:href="#surface12" mask="url(#mask2)"/>
<path style=" stroke:none;fill-rule:evenodd;fill:rgb(98.823529%,98.823529%,98.823529%);fill-opacity:1;" d="M 24.640625 43.164062 C 25.398438 43.089844 26.117188 43.21875 26.800781 43.546875 C 26.707031 44.488281 26.292969 45.261719 25.550781 45.875 C 25.207031 46.070312 24.855469 46.085938 24.496094 45.921875 C 23.988281 45.699219 23.5625 45.371094 23.222656 44.9375 C 23.039062 44.59375 22.980469 44.234375 23.054688 43.859375 C 23.554688 43.546875 24.082031 43.3125 24.640625 43.164062 Z M 24.640625 43.164062 "/>
<path style=" stroke:none;fill-rule:evenodd;fill:rgb(98.431373%,98.431373%,98.431373%);fill-opacity:1;" d="M 27.375 44.074219 C 27.730469 44.546875 27.832031 45.074219 27.6875 45.65625 C 27.257812 46.996094 26.371094 47.871094 25.023438 48.273438 C 23.777344 48.269531 22.761719 47.78125 21.976562 46.808594 C 21.710938 46.464844 21.550781 46.082031 21.496094 45.65625 C 21.804688 45.21875 22.125 44.785156 22.457031 44.363281 C 22.613281 45.238281 23.085938 45.886719 23.871094 46.304688 C 24.917969 46.871094 25.804688 46.6875 26.535156 45.753906 C 26.917969 45.246094 27.195312 44.6875 27.375 44.074219 Z M 27.375 44.074219 "/>
</g>
</svg>
