<?xml version="1.0" encoding="UTF-8"?>
<svg xmlns="http://www.w3.org/2000/svg" xmlns:xlink="http://www.w3.org/1999/xlink" width="50pt" height="50pt" viewBox="0 0 50 50" version="1.1">
<defs>
<filter id="alpha" filterUnits="objectBoundingBox" x="0%" y="0%" width="100%" height="100%">
  <feColorMatrix type="matrix" in="SourceGraphic" values="0 0 0 0 1 0 0 0 0 1 0 0 0 0 1 0 0 0 1 0"/>
</filter>
<mask id="mask0">
  <g filter="url(#alpha)">
<rect x="0" y="0" width="50" height="50" style="fill:rgb(0%,0%,0%);fill-opacity:0.733333;stroke:none;"/>
  </g>
</mask>
<clipPath id="clip1">
  <rect width="50" height="50"/>
</clipPath>
<g id="surface6" clip-path="url(#clip1)">
<path style=" stroke:none;fill-rule:evenodd;fill:rgb(6.27451%,6.27451%,6.666667%);fill-opacity:1;" d="M 17.828125 2.949219 C 18.515625 3.007812 18.691406 3.335938 18.355469 3.933594 C 17.71875 4.179688 17.425781 3.964844 17.464844 3.285156 C 17.550781 3.128906 17.671875 3.019531 17.828125 2.949219 Z M 17.828125 2.949219 "/>
</g>
<mask id="mask1">
  <g filter="url(#alpha)">
<rect x="0" y="0" width="50" height="50" style="fill:rgb(0%,0%,0%);fill-opacity:0.666667;stroke:none;"/>
  </g>
</mask>
<clipPath id="clip2">
  <rect width="50" height="50"/>
</clipPath>
<g id="surface9" clip-path="url(#clip2)">
<path style=" stroke:none;fill-rule:evenodd;fill:rgb(1.176471%,1.568627%,1.568627%);fill-opacity:1;" d="M 16.769531 6.308594 C 16.828125 6.300781 16.875 6.316406 16.914062 6.359375 C 16.78125 6.582031 16.636719 6.796875 16.484375 7.003906 C 16.71875 7.183594 16.949219 7.367188 17.179688 7.558594 C 17.207031 7.617188 17.191406 7.664062 17.128906 7.703125 C 16.890625 7.523438 16.648438 7.347656 16.410156 7.171875 C 16.226562 7.378906 16.042969 7.585938 15.859375 7.796875 C 15.808594 7.714844 15.816406 7.636719 15.882812 7.558594 C 16.011719 7.40625 16.132812 7.246094 16.242188 7.078125 C 16.136719 6.945312 16.007812 6.832031 15.859375 6.742188 C 15.816406 6.703125 15.800781 6.652344 15.8125 6.597656 C 16.003906 6.65625 16.179688 6.75 16.339844 6.886719 C 16.507812 6.710938 16.648438 6.519531 16.769531 6.308594 Z M 16.769531 6.308594 "/>
</g>
<mask id="mask2">
  <g filter="url(#alpha)">
<rect x="0" y="0" width="50" height="50" style="fill:rgb(0%,0%,0%);fill-opacity:0.772549;stroke:none;"/>
  </g>
</mask>
<clipPath id="clip3">
  <rect width="50" height="50"/>
</clipPath>
<g id="surface12" clip-path="url(#clip3)">
<path style=" stroke:none;fill-rule:evenodd;fill:rgb(3.921569%,3.921569%,4.313725%);fill-opacity:1;" d="M 22.242188 5.207031 C 22.304688 5.234375 22.34375 5.28125 22.359375 5.351562 C 22.609375 6.035156 22.839844 6.722656 23.054688 7.414062 C 22.382812 7.253906 21.71875 7.0625 21.066406 6.835938 C 21.039062 6.753906 21.054688 6.671875 21.113281 6.597656 C 21.484375 6.125 21.859375 5.660156 22.242188 5.207031 Z M 22.242188 5.207031 "/>
</g>
<mask id="mask3">
  <g filter="url(#alpha)">
<rect x="0" y="0" width="50" height="50" style="fill:rgb(0%,0%,0%);fill-opacity:0.890196;stroke:none;"/>
  </g>
</mask>
<clipPath id="clip4">
  <rect width="50" height="50"/>
</clipPath>
<g id="surface15" clip-path="url(#clip4)">
<path style=" stroke:none;fill-rule:evenodd;fill:rgb(1.176471%,1.176471%,1.568627%);fill-opacity:1;" d="M 23.535156 8.660156 C 25.789062 8.5 27.851562 9.035156 29.726562 10.269531 C 29.976562 10.449219 30.214844 10.640625 30.445312 10.84375 C 31.65625 10.714844 32.839844 10.84375 33.996094 11.226562 C 35.113281 11.671875 36 12.402344 36.660156 13.410156 C 37.390625 14.582031 38.046875 15.796875 38.628906 17.058594 C 38.664062 16.765625 38.710938 16.480469 38.773438 16.195312 C 38.914062 16.066406 39.058594 16.066406 39.203125 16.195312 C 39.28125 16.574219 39.296875 16.957031 39.25 17.347656 C 39.15625 17.699219 39.058594 18.050781 38.964844 18.402344 C 38.828125 18.550781 38.660156 18.628906 38.460938 18.640625 C 38.007812 18.589844 37.5625 18.519531 37.117188 18.425781 C 36.902344 18.308594 36.867188 18.148438 37.019531 17.945312 C 37.472656 17.945312 37.921875 18 38.363281 18.113281 C 38.421875 18.113281 38.472656 18.085938 38.507812 18.042969 C 37.898438 16.832031 37.28125 15.625 36.660156 14.417969 C 35.417969 12.128906 33.488281 11.089844 30.878906 11.300781 C 32.464844 13.132812 32.824219 15.179688 31.957031 17.441406 C 31.367188 18.542969 30.542969 19.433594 29.488281 20.105469 C 27.078125 21.621094 24.453125 22.257812 21.617188 22.023438 C 19.472656 21.734375 17.960938 20.609375 17.082031 18.640625 C 16.628906 17.425781 16.515625 16.179688 16.746094 14.898438 C 16.847656 14.03125 17.039062 13.183594 17.324219 12.355469 C 17.476562 12.148438 17.539062 11.921875 17.515625 11.683594 C 17.957031 10.90625 18.574219 10.304688 19.363281 9.886719 C 20.683594 9.214844 22.074219 8.808594 23.535156 8.660156 Z M 23.921875 9.09375 C 26.0625 9.027344 27.996094 9.609375 29.726562 10.84375 C 29.804688 10.886719 29.820312 10.933594 29.773438 10.988281 C 29.582031 11.03125 29.390625 11.078125 29.199219 11.132812 C 29.121094 11.25 29.144531 11.339844 29.269531 11.394531 C 29.59375 11.320312 29.921875 11.296875 30.253906 11.324219 C 31.828125 12.917969 32.316406 14.796875 31.71875 16.960938 C 31.289062 17.984375 30.625 18.824219 29.726562 19.480469 C 27.675781 20.917969 25.398438 21.691406 22.890625 21.808594 C 21 21.835938 19.417969 21.164062 18.136719 19.792969 C 17.144531 18.433594 16.761719 16.914062 16.988281 15.234375 C 17.097656 14.363281 17.257812 13.5 17.464844 12.644531 C 18.035156 11.402344 18.953125 10.515625 20.226562 9.980469 C 21.414062 9.480469 22.644531 9.183594 23.921875 9.09375 Z M 23.921875 9.09375 "/>
</g>
<mask id="mask4">
  <g filter="url(#alpha)">
<rect x="0" y="0" width="50" height="50" style="fill:rgb(0%,0%,0%);fill-opacity:0.686275;stroke:none;"/>
  </g>
</mask>
<clipPath id="clip5">
  <rect width="50" height="50"/>
</clipPath>
<g id="surface18" clip-path="url(#clip5)">
<path style=" stroke:none;fill-rule:evenodd;fill:rgb(1.176471%,1.568627%,1.568627%);fill-opacity:1;" d="M 12.261719 10.246094 C 12.550781 10.230469 12.835938 10.246094 13.125 10.292969 C 11.777344 10.355469 10.664062 10.914062 9.789062 11.972656 C 9.644531 12.175781 9.492188 12.375 9.332031 12.570312 C 9.464844 12.542969 9.601562 12.503906 9.742188 12.453125 C 9.78125 12.46875 9.820312 12.484375 9.859375 12.5 C 9.851562 12.515625 9.84375 12.53125 9.835938 12.546875 C 9.542969 12.675781 9.261719 12.820312 8.996094 12.980469 C 8.980469 12.65625 8.980469 12.335938 8.996094 12.019531 C 9.046875 12.019531 9.09375 12.019531 9.140625 12.019531 C 9.140625 12.117188 9.125 12.214844 9.09375 12.308594 C 9.117188 12.402344 9.140625 12.5 9.164062 12.597656 C 9.875 11.378906 10.90625 10.597656 12.261719 10.246094 Z M 12.261719 10.246094 "/>
</g>
<mask id="mask5">
  <g filter="url(#alpha)">
<rect x="0" y="0" width="50" height="50" style="fill:rgb(0%,0%,0%);fill-opacity:0.764706;stroke:none;"/>
  </g>
</mask>
<clipPath id="clip6">
  <rect width="50" height="50"/>
</clipPath>
<g id="surface21" clip-path="url(#clip6)">
<path style=" stroke:none;fill-rule:evenodd;fill:rgb(1.176471%,1.568627%,1.568627%);fill-opacity:1;" d="M 40.523438 10.820312 C 40.570312 10.820312 40.617188 10.820312 40.667969 10.820312 C 40.675781 10.886719 40.667969 10.949219 40.644531 11.011719 C 40.394531 11.355469 40.148438 11.699219 39.898438 12.042969 C 40.308594 12.355469 40.714844 12.667969 41.121094 12.980469 C 41.144531 13.042969 41.15625 13.105469 41.148438 13.171875 C 40.667969 12.894531 40.210938 12.574219 39.777344 12.210938 C 39.507812 12.574219 39.242188 12.941406 38.988281 13.316406 C 38.929688 13.359375 38.867188 13.375 38.796875 13.363281 C 38.789062 13.296875 38.796875 13.234375 38.820312 13.171875 C 39.082031 12.8125 39.347656 12.453125 39.609375 12.09375 C 39.386719 11.933594 39.164062 11.773438 38.941406 11.613281 C 38.859375 11.542969 38.828125 11.453125 38.84375 11.347656 C 39.167969 11.488281 39.464844 11.679688 39.730469 11.925781 C 39.972656 11.539062 40.234375 11.171875 40.523438 10.820312 Z M 40.523438 10.820312 "/>
</g>
<mask id="mask6">
  <g filter="url(#alpha)">
<rect x="0" y="0" width="50" height="50" style="fill:rgb(0%,0%,0%);fill-opacity:0.886275;stroke:none;"/>
  </g>
</mask>
<clipPath id="clip7">
  <rect width="50" height="50"/>
</clipPath>
<g id="surface24" clip-path="url(#clip7)">
<path style=" stroke:none;fill-rule:evenodd;fill:rgb(1.176471%,1.176471%,1.176471%);fill-opacity:1;" d="M 13.652344 13.699219 C 14.050781 13.710938 14.4375 13.800781 14.804688 13.964844 C 15.046875 14.125 15.304688 14.269531 15.570312 14.394531 C 15.734375 14.503906 15.832031 14.65625 15.859375 14.851562 C 15.714844 15.40625 15.492188 15.925781 15.1875 16.410156 C 14.882812 16.472656 14.746094 16.355469 14.777344 16.050781 C 14.988281 15.679688 15.15625 15.296875 15.28125 14.898438 C 13.816406 15.128906 12.359375 15.425781 10.917969 15.785156 C 8.699219 16.410156 7.324219 17.84375 6.789062 20.082031 C 9.199219 19.847656 11.339844 20.480469 13.21875 21.976562 C 15.128906 23.78125 15.601562 25.898438 14.636719 28.335938 C 13.882812 29.550781 12.867188 30.488281 11.589844 31.140625 C 9.75 32.089844 7.800781 32.535156 5.734375 32.484375 C 3.75 32.410156 2.238281 31.539062 1.199219 29.871094 C 0.546875 28.5625 0.355469 27.1875 0.625 25.742188 C 0.71875 24.820312 0.949219 23.929688 1.320312 23.082031 C 1.308594 23.039062 1.292969 23 1.273438 22.960938 C 1.789062 22.019531 2.539062 21.339844 3.527344 20.921875 C 4.421875 20.539062 5.351562 20.257812 6.308594 20.082031 C 6.824219 17.625 8.277344 16.035156 10.675781 15.308594 C 11.898438 14.984375 13.128906 14.714844 14.371094 14.492188 C 14.078125 14.398438 13.796875 14.277344 13.53125 14.132812 C 13.480469 13.957031 13.519531 13.8125 13.652344 13.699219 Z M 6.886719 20.464844 C 8.515625 20.359375 10.066406 20.65625 11.539062 21.351562 C 13.808594 22.554688 14.855469 24.433594 14.683594 26.992188 C 14.53125 27.761719 14.210938 28.449219 13.722656 29.054688 C 12.855469 29.972656 11.839844 30.683594 10.675781 31.191406 C 9.125 31.914062 7.492188 32.25 5.78125 32.199219 C 4.332031 32.109375 3.089844 31.554688 2.0625 30.542969 C 1.078125 29.328125 0.660156 27.9375 0.816406 26.367188 C 0.917969 25.285156 1.140625 24.226562 1.488281 23.199219 C 1.558594 23.164062 1.625 23.117188 1.679688 23.054688 C 1.953125 22.558594 2.332031 22.148438 2.808594 21.832031 C 3.851562 21.191406 4.980469 20.769531 6.191406 20.5625 C 6.148438 21.070312 6.125 21.582031 6.117188 22.097656 C 6.199219 22.097656 6.277344 22.097656 6.359375 22.097656 C 6.425781 21.597656 6.511719 21.101562 6.621094 20.609375 C 6.699219 20.539062 6.789062 20.492188 6.886719 20.464844 Z M 6.886719 20.464844 "/>
</g>
<mask id="mask7">
  <g filter="url(#alpha)">
<rect x="0" y="0" width="50" height="50" style="fill:rgb(0%,0%,0%);fill-opacity:0.772549;stroke:none;"/>
  </g>
</mask>
<clipPath id="clip8">
  <rect width="50" height="50"/>
</clipPath>
<g id="surface27" clip-path="url(#clip8)">
<path style=" stroke:none;fill-rule:evenodd;fill:rgb(5.882353%,5.882353%,6.27451%);fill-opacity:1;" d="M 42.632812 13.699219 C 43.074219 13.640625 43.332031 13.824219 43.402344 14.25 C 43.292969 14.734375 43.007812 14.894531 42.539062 14.730469 C 42.316406 14.550781 42.242188 14.316406 42.324219 14.035156 C 42.402344 13.898438 42.507812 13.785156 42.632812 13.699219 Z M 42.632812 13.699219 "/>
</g>
<mask id="mask8">
  <g filter="url(#alpha)">
<rect x="0" y="0" width="50" height="50" style="fill:rgb(0%,0%,0%);fill-opacity:0.666667;stroke:none;"/>
  </g>
</mask>
<clipPath id="clip9">
  <rect width="50" height="50"/>
</clipPath>
<g id="surface30" clip-path="url(#clip9)">
<path style=" stroke:none;fill-rule:evenodd;fill:rgb(1.176471%,1.568627%,1.568627%);fill-opacity:1;" d="M 41.625 17.058594 C 41.683594 17.046875 41.730469 17.0625 41.769531 17.105469 C 41.636719 17.324219 41.496094 17.53125 41.339844 17.730469 C 41.5625 17.925781 41.796875 18.121094 42.035156 18.304688 C 42.0625 18.351562 42.046875 18.386719 41.988281 18.402344 C 41.734375 18.261719 41.492188 18.101562 41.265625 17.921875 C 41.0625 18.109375 40.878906 18.316406 40.714844 18.546875 C 40.660156 18.488281 40.652344 18.421875 40.691406 18.355469 C 40.832031 18.175781 40.96875 17.992188 41.097656 17.800781 C 40.980469 17.6875 40.851562 17.582031 40.714844 17.492188 C 40.671875 17.449219 40.65625 17.402344 40.667969 17.347656 C 40.859375 17.402344 41.039062 17.5 41.195312 17.632812 C 41.339844 17.441406 41.484375 17.25 41.625 17.058594 Z M 41.625 17.058594 "/>
</g>
<mask id="mask9">
  <g filter="url(#alpha)">
<rect x="0" y="0" width="50" height="50" style="fill:rgb(0%,0%,0%);fill-opacity:0.776471;stroke:none;"/>
  </g>
</mask>
<clipPath id="clip10">
  <rect width="50" height="50"/>
</clipPath>
<g id="surface33" clip-path="url(#clip10)">
<path style=" stroke:none;fill-rule:evenodd;fill:rgb(5.098039%,5.098039%,5.490196%);fill-opacity:1;" d="M 47.050781 15.953125 C 47.097656 15.949219 47.136719 15.964844 47.167969 16.003906 C 47.421875 16.6875 47.667969 17.375 47.914062 18.066406 C 47.898438 18.113281 47.863281 18.144531 47.816406 18.164062 C 47.203125 17.992188 46.597656 17.808594 45.992188 17.609375 C 45.949219 17.589844 45.917969 17.558594 45.898438 17.515625 C 46.253906 16.972656 46.636719 16.453125 47.050781 15.953125 Z M 47.050781 15.953125 "/>
</g>
<mask id="mask10">
  <g filter="url(#alpha)">
<rect x="0" y="0" width="50" height="50" style="fill:rgb(0%,0%,0%);fill-opacity:0.890196;stroke:none;"/>
  </g>
</mask>
<clipPath id="clip11">
  <rect width="50" height="50"/>
</clipPath>
<g id="surface36" clip-path="url(#clip11)">
<path style=" stroke:none;fill-rule:evenodd;fill:rgb(1.176471%,1.176471%,1.176471%);fill-opacity:1;" d="M 41.386719 20.035156 C 43.820312 19.871094 45.964844 20.566406 47.816406 22.121094 C 49.378906 23.652344 49.898438 25.484375 49.375 27.613281 C 48.902344 28.824219 48.128906 29.789062 47.050781 30.519531 C 45.785156 31.355469 44.410156 31.929688 42.921875 32.246094 C 42.671875 33.234375 42.25 34.136719 41.652344 34.957031 C 40.949219 35.800781 40.078125 36.398438 39.035156 36.757812 C 37.75 37.160156 36.457031 37.511719 35.148438 37.8125 C 35.417969 37.90625 35.679688 38.011719 35.941406 38.125 C 35.988281 38.277344 35.964844 38.410156 35.867188 38.53125 C 35.453125 38.574219 35.054688 38.507812 34.667969 38.339844 C 34.371094 38.167969 34.066406 38.007812 33.757812 37.859375 C 33.578125 37.554688 33.570312 37.246094 33.734375 36.925781 C 33.855469 36.558594 34.023438 36.214844 34.238281 35.890625 C 34.460938 35.839844 34.589844 35.925781 34.621094 36.15625 C 34.476562 36.5625 34.316406 36.960938 34.140625 37.355469 C 34.15625 37.394531 34.179688 37.425781 34.214844 37.453125 C 35.386719 37.171875 36.5625 36.890625 37.738281 36.613281 C 38.90625 36.339844 39.945312 35.828125 40.859375 35.078125 C 41.582031 34.304688 42.09375 33.410156 42.394531 32.390625 C 41.828125 32.4375 41.261719 32.480469 40.691406 32.507812 C 39.285156 32.542969 38.011719 32.148438 36.875 31.332031 C 35.398438 30.015625 34.765625 28.359375 34.980469 26.367188 C 35.066406 25.402344 35.261719 24.457031 35.554688 23.535156 C 35.683594 23.320312 35.746094 23.09375 35.75 22.863281 C 36.085938 22.238281 36.558594 21.734375 37.164062 21.351562 C 38.480469 20.609375 39.890625 20.167969 41.386719 20.035156 Z M 41.339844 20.464844 C 43.605469 20.296875 45.621094 20.910156 47.386719 22.3125 C 49.003906 23.839844 49.507812 25.671875 48.894531 27.808594 C 48.339844 29.003906 47.484375 29.921875 46.328125 30.566406 C 45.257812 31.191406 44.121094 31.636719 42.921875 31.910156 C 43.046875 31.253906 43.09375 30.589844 43.066406 29.917969 C 42.984375 29.917969 42.90625 29.917969 42.828125 29.917969 C 42.78125 30.640625 42.652344 31.34375 42.441406 32.03125 C 40.6875 32.4375 39.023438 32.207031 37.453125 31.332031 C 35.976562 30.277344 35.222656 28.828125 35.195312 26.992188 C 35.273438 26.039062 35.40625 25.097656 35.605469 24.160156 C 35.894531 23.175781 36.460938 22.386719 37.308594 21.785156 C 38.5625 21.058594 39.90625 20.621094 41.339844 20.464844 Z M 41.339844 20.464844 "/>
</g>
<mask id="mask11">
  <g filter="url(#alpha)">
<rect x="0" y="0" width="50" height="50" style="fill:rgb(0%,0%,0%);fill-opacity:0.854902;stroke:none;"/>
  </g>
</mask>
<clipPath id="clip12">
  <rect width="50" height="50"/>
</clipPath>
<g id="surface39" clip-path="url(#clip12)">
<path style=" stroke:none;fill-rule:evenodd;fill:rgb(4.313725%,4.313725%,4.705882%);fill-opacity:1;" d="M 13.125 31.789062 C 13.972656 31.75 14.347656 32.148438 14.25 32.988281 C 14.039062 33.523438 13.644531 33.722656 13.074219 33.589844 C 12.519531 33.332031 12.335938 32.90625 12.523438 32.316406 C 12.652344 32.058594 12.855469 31.882812 13.125 31.789062 Z M 13.125 31.789062 "/>
</g>
<mask id="mask12">
  <g filter="url(#alpha)">
<rect x="0" y="0" width="50" height="50" style="fill:rgb(0%,0%,0%);fill-opacity:0.894118;stroke:none;"/>
  </g>
</mask>
<clipPath id="clip13">
  <rect width="50" height="50"/>
</clipPath>
<g id="surface42" clip-path="url(#clip13)">
<path style=" stroke:none;fill-rule:evenodd;fill:rgb(1.176471%,1.176471%,1.568627%);fill-opacity:1;" d="M 9.476562 32.703125 C 10.117188 32.710938 10.71875 32.871094 11.277344 33.179688 C 11.359375 33.417969 11.277344 33.558594 11.035156 33.613281 C 10.609375 33.429688 10.167969 33.308594 9.71875 33.253906 C 10.175781 34.679688 10.664062 36.09375 11.179688 37.5 C 11.929688 39.351562 13.28125 40.496094 15.234375 40.929688 C 15.710938 41.039062 16.191406 41.109375 16.675781 41.148438 C 16.578125 39.167969 16.90625 37.265625 17.660156 35.4375 C 18.382812 34.46875 19.316406 33.789062 20.464844 33.398438 C 22.65625 32.601562 24.878906 32.488281 27.136719 33.0625 C 29.117188 33.609375 30.644531 34.75 31.71875 36.492188 C 33.03125 39.203125 32.5625 41.546875 30.300781 43.523438 C 27.675781 45.511719 24.714844 46.34375 21.425781 46.015625 C 18.890625 45.535156 17.339844 44.042969 16.769531 41.53125 C 13.789062 41.574219 11.734375 40.230469 10.605469 37.5 C 10.191406 36.40625 9.808594 35.304688 9.453125 34.1875 C 9.386719 34.480469 9.308594 34.769531 9.214844 35.054688 C 9.058594 35.125 8.914062 35.109375 8.78125 35.003906 C 8.734375 34.613281 8.765625 34.230469 8.878906 33.851562 C 9.015625 33.574219 9.128906 33.289062 9.214844 32.988281 C 9.277344 32.867188 9.367188 32.773438 9.476562 32.703125 Z M 23.679688 33.132812 C 25.859375 33.015625 27.839844 33.566406 29.628906 34.789062 C 31.613281 36.367188 32.324219 38.390625 31.765625 40.859375 C 31.398438 41.824219 30.816406 42.632812 30.015625 43.28125 C 27.644531 45.070312 24.972656 45.902344 22 45.777344 C 20.121094 45.578125 18.671875 44.691406 17.660156 43.113281 C 17.390625 42.617188 17.191406 42.097656 17.058594 41.554688 C 17.363281 41.527344 17.667969 41.492188 17.96875 41.457031 C 18.035156 41.367188 18.019531 41.285156 17.921875 41.21875 C 17.617188 41.195312 17.316406 41.1875 17.011719 41.195312 C 16.933594 40.734375 16.910156 40.269531 16.9375 39.804688 C 17.023438 38.933594 17.152344 38.070312 17.324219 37.210938 C 17.410156 36.832031 17.527344 36.464844 17.683594 36.109375 C 17.921875 35.859375 18.136719 35.585938 18.332031 35.292969 C 18.933594 34.699219 19.628906 34.242188 20.417969 33.925781 C 21.476562 33.507812 22.5625 33.246094 23.679688 33.132812 Z M 23.679688 33.132812 "/>
</g>
<mask id="mask13">
  <g filter="url(#alpha)">
<rect x="0" y="0" width="50" height="50" style="fill:rgb(0%,0%,0%);fill-opacity:0.678431;stroke:none;"/>
  </g>
</mask>
<clipPath id="clip14">
  <rect width="50" height="50"/>
</clipPath>
<g id="surface45" clip-path="url(#clip14)">
<path style=" stroke:none;fill-rule:evenodd;fill:rgb(1.176471%,1.568627%,1.568627%);fill-opacity:1;" d="M 42.828125 35.246094 C 42.875 35.246094 42.921875 35.246094 42.96875 35.246094 C 42.996094 35.484375 43.027344 35.726562 43.066406 35.964844 C 43.050781 36.042969 43.035156 36.125 43.019531 36.203125 C 42.917969 36.160156 42.902344 36.097656 42.96875 36.011719 C 42.9375 35.882812 42.898438 35.753906 42.851562 35.628906 C 42.355469 36.84375 41.515625 37.730469 40.332031 38.292969 C 40.035156 38.402344 39.730469 38.472656 39.417969 38.507812 C 39.34375 38.507812 39.28125 38.484375 39.226562 38.4375 C 40.859375 38.128906 41.988281 37.210938 42.609375 35.675781 C 42.496094 35.785156 42.359375 35.851562 42.203125 35.867188 C 42.265625 35.722656 42.378906 35.617188 42.539062 35.554688 C 42.644531 35.457031 42.738281 35.355469 42.828125 35.246094 Z M 42.828125 35.246094 "/>
</g>
<mask id="mask14">
  <g filter="url(#alpha)">
<rect x="0" y="0" width="50" height="50" style="fill:rgb(0%,0%,0%);fill-opacity:0.72549;stroke:none;"/>
  </g>
</mask>
<clipPath id="clip15">
  <rect width="50" height="50"/>
</clipPath>
<g id="surface48" clip-path="url(#clip15)">
<path style=" stroke:none;fill-rule:evenodd;fill:rgb(5.882353%,5.882353%,6.27451%);fill-opacity:1;" d="M 35.675781 41.097656 C 36.171875 41.089844 36.386719 41.332031 36.324219 41.820312 C 36.183594 42.148438 35.9375 42.269531 35.582031 42.179688 C 35.300781 42.027344 35.195312 41.796875 35.269531 41.484375 C 35.339844 41.277344 35.472656 41.148438 35.675781 41.097656 Z M 35.675781 41.097656 "/>
</g>
<mask id="mask15">
  <g filter="url(#alpha)">
<rect x="0" y="0" width="50" height="50" style="fill:rgb(0%,0%,0%);fill-opacity:0.670588;stroke:none;"/>
  </g>
</mask>
<clipPath id="clip16">
  <rect width="50" height="50"/>
</clipPath>
<g id="surface51" clip-path="url(#clip16)">
<path style=" stroke:none;fill-rule:evenodd;fill:rgb(1.176471%,1.568627%,1.568627%);fill-opacity:1;" d="M 39.324219 42.96875 C 39.410156 43.003906 39.4375 43.066406 39.394531 43.164062 C 39.257812 43.316406 39.136719 43.484375 39.035156 43.667969 C 39.265625 43.863281 39.496094 44.0625 39.730469 44.265625 C 39.757812 44.3125 39.742188 44.34375 39.683594 44.363281 C 39.421875 44.203125 39.175781 44.027344 38.941406 43.832031 C 38.765625 44.0625 38.582031 44.289062 38.386719 44.503906 C 38.304688 44.429688 38.304688 44.351562 38.386719 44.265625 C 38.53125 44.085938 38.664062 43.902344 38.796875 43.714844 C 38.601562 43.621094 38.457031 43.484375 38.363281 43.304688 C 38.554688 43.359375 38.722656 43.453125 38.867188 43.59375 C 39.042969 43.402344 39.195312 43.195312 39.324219 42.96875 Z M 39.324219 42.96875 "/>
</g>
<mask id="mask16">
  <g filter="url(#alpha)">
<rect x="0" y="0" width="50" height="50" style="fill:rgb(0%,0%,0%);fill-opacity:0.776471;stroke:none;"/>
  </g>
</mask>
<clipPath id="clip17">
  <rect width="50" height="50"/>
</clipPath>
<g id="surface54" clip-path="url(#clip17)">
<path style=" stroke:none;fill-rule:evenodd;fill:rgb(4.313725%,4.313725%,4.705882%);fill-opacity:1;" d="M 33.804688 45.226562 C 33.894531 45.253906 33.949219 45.320312 33.972656 45.417969 C 34.179688 46.007812 34.390625 46.601562 34.597656 47.191406 C 34.636719 47.277344 34.628906 47.355469 34.574219 47.433594 C 33.917969 47.242188 33.261719 47.046875 32.605469 46.855469 C 32.597656 46.804688 32.605469 46.757812 32.628906 46.714844 C 33.03125 46.222656 33.421875 45.726562 33.804688 45.226562 Z M 33.804688 45.226562 "/>
</g>
</defs>
<g id="surface1">
<use xlink:href="#surface6" mask="url(#mask0)"/>
<path style=" stroke:none;fill-rule:evenodd;fill:rgb(96.470588%,96.470588%,96.470588%);fill-opacity:1;" d="M 17.777344 3.09375 C 18.308594 3.042969 18.492188 3.265625 18.332031 3.765625 C 18.039062 4.039062 17.78125 4.007812 17.5625 3.671875 C 17.515625 3.429688 17.585938 3.238281 17.777344 3.09375 Z M 17.777344 3.09375 "/>
<use xlink:href="#surface9" mask="url(#mask1)"/>
<use xlink:href="#surface12" mask="url(#mask2)"/>
<path style=" stroke:none;fill-rule:evenodd;fill:rgb(96.470588%,96.470588%,96.470588%);fill-opacity:1;" d="M 22.191406 5.398438 C 22.269531 5.476562 22.328125 5.570312 22.359375 5.6875 C 22.539062 6.199219 22.722656 6.710938 22.914062 7.222656 C 22.328125 7.132812 21.75 6.972656 21.183594 6.742188 C 21.523438 6.292969 21.859375 5.84375 22.191406 5.398438 Z M 22.191406 5.398438 "/>
<use xlink:href="#surface15" mask="url(#mask3)"/>
<use xlink:href="#surface18" mask="url(#mask4)"/>
<use xlink:href="#surface21" mask="url(#mask5)"/>
<use xlink:href="#surface24" mask="url(#mask6)"/>
<use xlink:href="#surface27" mask="url(#mask7)"/>
<path style=" stroke:none;fill-rule:evenodd;fill:rgb(96.078431%,96.078431%,96.078431%);fill-opacity:1;" d="M 42.683594 13.796875 C 43.117188 13.789062 43.300781 13.996094 43.234375 14.417969 C 43.09375 14.644531 42.894531 14.714844 42.632812 14.636719 C 42.308594 14.335938 42.324219 14.054688 42.683594 13.796875 Z M 42.683594 13.796875 "/>
<use xlink:href="#surface30" mask="url(#mask8)"/>
<use xlink:href="#surface33" mask="url(#mask9)"/>
<path style=" stroke:none;fill-rule:evenodd;fill:rgb(96.470588%,96.470588%,96.470588%);fill-opacity:1;" d="M 47.050781 16.148438 C 47.144531 16.273438 47.214844 16.417969 47.265625 16.578125 C 47.441406 17.035156 47.59375 17.5 47.722656 17.96875 C 47.144531 17.863281 46.585938 17.703125 46.042969 17.492188 C 46.378906 17.042969 46.714844 16.59375 47.050781 16.148438 Z M 47.050781 16.148438 "/>
<use xlink:href="#surface36" mask="url(#mask10)"/>
<use xlink:href="#surface39" mask="url(#mask11)"/>
<path style=" stroke:none;fill-rule:evenodd;fill:rgb(97.254902%,97.254902%,97.254902%);fill-opacity:1;" d="M 13.21875 31.933594 C 13.730469 31.933594 14.035156 32.179688 14.132812 32.675781 C 14.09375 33.152344 13.839844 33.417969 13.363281 33.46875 C 12.738281 33.320312 12.519531 32.9375 12.714844 32.316406 C 12.851562 32.140625 13.019531 32.011719 13.21875 31.933594 Z M 13.21875 31.933594 "/>
<use xlink:href="#surface42" mask="url(#mask12)"/>
<use xlink:href="#surface45" mask="url(#mask13)"/>
<use xlink:href="#surface48" mask="url(#mask14)"/>
<path style=" stroke:none;fill-rule:evenodd;fill:rgb(96.078431%,96.078431%,96.078431%);fill-opacity:1;" d="M 35.582031 41.242188 C 36.070312 41.179688 36.269531 41.390625 36.179688 41.867188 C 35.867188 42.203125 35.597656 42.171875 35.363281 41.769531 C 35.332031 41.691406 35.332031 41.609375 35.363281 41.53125 C 35.429688 41.425781 35.5 41.332031 35.582031 41.242188 Z M 35.582031 41.242188 "/>
<use xlink:href="#surface51" mask="url(#mask15)"/>
<use xlink:href="#surface54" mask="url(#mask16)"/>
<path style=" stroke:none;fill-rule:evenodd;fill:rgb(96.470588%,96.470588%,96.470588%);fill-opacity:1;" d="M 33.804688 45.417969 C 34.054688 46.011719 34.28125 46.617188 34.476562 47.242188 C 33.910156 47.121094 33.351562 46.976562 32.796875 46.808594 C 32.789062 46.757812 32.796875 46.710938 32.820312 46.664062 C 33.140625 46.242188 33.46875 45.824219 33.804688 45.417969 Z M 33.804688 45.417969 "/>
</g>
</svg>
