<?xml version="1.0" encoding="UTF-8"?>
<svg xmlns="http://www.w3.org/2000/svg" xmlns:xlink="http://www.w3.org/1999/xlink" width="50pt" height="50pt" viewBox="0 0 50 50" version="1.1">
<defs>
<filter id="alpha" filterUnits="objectBoundingBox" x="0%" y="0%" width="100%" height="100%">
  <feColorMatrix type="matrix" in="SourceGraphic" values="0 0 0 0 1 0 0 0 0 1 0 0 0 0 1 0 0 0 1 0"/>
</filter>
<mask id="mask0">
  <g filter="url(#alpha)">
<rect x="0" y="0" width="50" height="50" style="fill:rgb(0%,0%,0%);fill-opacity:0.980392;stroke:none;"/>
  </g>
</mask>
<clipPath id="clip1">
  <rect width="50" height="50"/>
</clipPath>
<g id="surface6" clip-path="url(#clip1)">
<path style=" stroke:none;fill-rule:evenodd;fill:rgb(10.196078%,10.196078%,9.803922%);fill-opacity:1;" d="M 36.191406 4.042969 C 36.261719 4.085938 36.304688 4.152344 36.320312 4.238281 C 36.402344 4.324219 36.460938 4.421875 36.5 4.539062 C 36.535156 4.59375 36.582031 4.609375 36.640625 4.582031 C 36.765625 4.59375 36.820312 4.664062 36.804688 4.792969 C 36.804688 4.824219 36.804688 4.851562 36.8125 4.882812 C 36.855469 4.914062 36.90625 4.933594 36.957031 4.941406 C 37.207031 5.027344 37.316406 5.203125 37.285156 5.46875 C 37.292969 5.695312 37.257812 5.914062 37.1875 6.128906 C 37.066406 6.460938 36.90625 6.769531 36.707031 7.058594 C 36.679688 7.089844 36.644531 7.121094 36.609375 7.148438 C 36.523438 7.210938 36.460938 7.289062 36.417969 7.386719 C 36.402344 7.410156 36.382812 7.429688 36.363281 7.449219 C 36.355469 7.472656 36.355469 7.5 36.363281 7.523438 C 36.449219 7.636719 36.542969 7.742188 36.648438 7.839844 C 36.832031 8.042969 36.9375 8.277344 36.972656 8.550781 C 36.964844 8.671875 36.929688 8.777344 36.859375 8.875 C 36.730469 9.007812 36.578125 9.109375 36.402344 9.171875 C 36.347656 9.183594 36.296875 9.199219 36.25 9.21875 C 36.078125 9.21875 35.953125 9.140625 35.882812 8.976562 C 35.839844 8.890625 35.796875 8.800781 35.757812 8.707031 C 35.660156 8.925781 35.558594 9.140625 35.449219 9.351562 C 35.28125 9.640625 35.125 9.9375 34.984375 10.238281 C 34.945312 10.296875 34.902344 10.359375 34.863281 10.417969 C 34.6875 10.589844 34.507812 10.753906 34.324219 10.914062 C 34.199219 11.09375 34.089844 11.285156 33.992188 11.484375 C 33.8125 11.75 33.605469 11.992188 33.371094 12.210938 C 33.121094 12.429688 32.871094 12.652344 32.621094 12.871094 C 32.035156 13.355469 31.398438 13.773438 30.714844 14.117188 C 30.378906 14.332031 30.035156 14.539062 29.679688 14.730469 C 29.179688 15.105469 28.625 15.371094 28.015625 15.527344 C 27.730469 15.605469 27.445312 15.683594 27.160156 15.765625 C 26.878906 15.84375 26.59375 15.90625 26.304688 15.953125 C 26.214844 15.960938 26.125 15.972656 26.035156 15.992188 C 26.015625 16 26.015625 16.007812 26.035156 16.015625 C 26.324219 16.613281 26.617188 17.214844 26.914062 17.8125 C 27.398438 18.867188 27.871094 19.925781 28.332031 20.988281 C 28.386719 21 28.433594 21.027344 28.472656 21.070312 C 28.488281 21.136719 28.464844 21.183594 28.40625 21.210938 C 28.464844 21.253906 28.527344 21.292969 28.59375 21.324219 C 28.621094 21.40625 28.597656 21.46875 28.523438 21.511719 C 28.59375 21.667969 28.65625 21.828125 28.71875 21.984375 C 28.789062 21.925781 28.84375 21.9375 28.894531 22.015625 C 28.902344 22.050781 28.902344 22.085938 28.894531 22.121094 C 28.867188 22.144531 28.84375 22.167969 28.816406 22.195312 C 28.808594 22.214844 28.808594 22.234375 28.816406 22.253906 C 29.140625 23.097656 29.441406 23.945312 29.71875 24.804688 C 29.964844 25.292969 30.125 25.808594 30.199219 26.351562 C 30.464844 27.242188 30.714844 28.136719 30.949219 29.035156 C 31.074219 29.296875 31.171875 29.566406 31.25 29.84375 C 31.253906 29.933594 31.257812 30.023438 31.253906 30.117188 C 31.234375 30.183594 31.238281 30.25 31.269531 30.308594 C 31.53125 31.359375 31.785156 32.40625 32.027344 33.460938 C 32.257812 34.5 32.40625 35.550781 32.476562 36.609375 C 32.488281 37.042969 32.488281 37.472656 32.476562 37.902344 C 32.414062 38.695312 32.253906 39.472656 32 40.226562 C 31.914062 40.4375 31.796875 40.625 31.652344 40.796875 C 31.34375 41.132812 31.011719 41.4375 30.65625 41.71875 C 30.535156 41.800781 30.414062 41.878906 30.296875 41.960938 C 29.6875 42.261719 29.078125 42.558594 28.464844 42.851562 C 28.046875 43.101562 27.621094 43.34375 27.191406 43.578125 C 27.023438 43.695312 26.867188 43.820312 26.726562 43.960938 C 26.625 44.070312 26.515625 44.175781 26.402344 44.277344 C 26.410156 44.359375 26.410156 44.445312 26.402344 44.53125 C 26.320312 44.640625 26.253906 44.757812 26.199219 44.882812 C 26.167969 44.902344 26.132812 44.917969 26.09375 44.929688 C 25.804688 44.960938 25.535156 45.050781 25.285156 45.199219 C 25.261719 45.234375 25.25 45.269531 25.253906 45.3125 C 25.339844 45.308594 25.425781 45.3125 25.511719 45.320312 C 25.539062 45.328125 25.554688 45.34375 25.5625 45.371094 C 25.574219 45.410156 25.574219 45.453125 25.5625 45.492188 C 25.515625 45.519531 25.460938 45.535156 25.40625 45.542969 C 25.566406 45.761719 25.613281 46.003906 25.539062 46.273438 C 25.613281 46.414062 25.652344 46.5625 25.652344 46.722656 C 25.832031 47.09375 26.078125 47.410156 26.394531 47.675781 C 26.582031 47.8125 26.769531 47.949219 26.949219 48.09375 C 27.082031 48.207031 27.179688 48.34375 27.242188 48.507812 C 27.3125 48.765625 27.226562 48.9375 26.980469 49.023438 C 26.835938 49.042969 26.691406 49.03125 26.550781 48.988281 C 26.539062 49 26.527344 49.011719 26.515625 49.023438 C 26.300781 49.074219 26.085938 49.058594 25.878906 48.988281 C 25.859375 49 25.839844 49.011719 25.816406 49.015625 C 25.757812 49.003906 25.703125 48.984375 25.644531 48.964844 C 25.496094 48.902344 25.355469 48.820312 25.226562 48.726562 C 24.949219 48.621094 24.675781 48.523438 24.398438 48.425781 C 24.214844 48.351562 24.070312 48.234375 23.957031 48.074219 C 23.898438 47.957031 23.847656 47.84375 23.800781 47.726562 C 23.796875 47.753906 23.789062 47.777344 23.785156 47.800781 C 23.820312 48.054688 23.839844 48.304688 23.84375 48.558594 C 23.832031 48.648438 23.78125 48.683594 23.695312 48.664062 C 23.664062 48.652344 23.640625 48.628906 23.628906 48.597656 C 23.609375 48.457031 23.582031 48.316406 23.550781 48.175781 C 23.523438 48.15625 23.496094 48.132812 23.476562 48.101562 C 23.457031 47.460938 23.355469 46.828125 23.175781 46.210938 C 23.128906 46.078125 23.074219 45.945312 23.019531 45.816406 C 23.027344 45.761719 23.050781 45.722656 23.09375 45.695312 C 22.988281 45.550781 22.917969 45.386719 22.890625 45.207031 C 22.8125 45.148438 22.804688 45.082031 22.871094 45.003906 C 22.949219 44.992188 23.027344 45 23.101562 45.027344 C 23.058594 44.800781 23.007812 44.578125 22.953125 44.351562 C 22.925781 44.117188 22.902344 43.882812 22.878906 43.648438 C 22.820312 43.515625 22.773438 43.382812 22.742188 43.242188 C 22.714844 42.925781 22.695312 42.613281 22.683594 42.296875 C 22.65625 42.109375 22.628906 41.925781 22.59375 41.742188 C 22.382812 40.78125 22.160156 39.820312 21.933594 38.863281 C 21.824219 38.371094 21.746094 37.875 21.691406 37.375 C 21.625 36.679688 21.558594 35.988281 21.496094 35.292969 C 21.472656 35.054688 21.441406 34.820312 21.40625 34.585938 C 21.300781 34.179688 21.183594 33.773438 21.0625 33.371094 C 21.019531 33.285156 20.976562 33.199219 20.925781 33.117188 C 20.914062 33.070312 20.902344 33.027344 20.890625 32.980469 C 20.738281 32.972656 20.671875 32.894531 20.6875 32.742188 C 20.671875 32.277344 20.65625 31.8125 20.640625 31.34375 C 20.605469 30.902344 20.566406 30.460938 20.53125 30.019531 C 20.53125 29.980469 20.535156 29.941406 20.535156 29.90625 C 20.542969 29.882812 20.554688 29.871094 20.574219 29.859375 C 20.589844 29.835938 20.59375 29.8125 20.589844 29.785156 C 20.117188 29.667969 19.710938 29.4375 19.375 29.089844 C 18.753906 28.792969 18.226562 28.382812 17.792969 27.851562 C 17.640625 27.632812 17.476562 27.421875 17.304688 27.21875 C 17.109375 26.988281 16.914062 26.757812 16.710938 26.53125 C 16.585938 26.378906 16.464844 26.222656 16.351562 26.066406 C 16.261719 25.898438 16.164062 25.738281 16.050781 25.585938 C 15.757812 25.089844 15.507812 24.574219 15.292969 24.039062 C 15.195312 23.785156 15.132812 23.519531 15.105469 23.246094 C 15.085938 22.707031 15.070312 22.167969 15.054688 21.632812 C 15.078125 20.941406 15.183594 20.265625 15.375 19.597656 C 15.507812 19.203125 15.683594 18.828125 15.902344 18.472656 C 16.046875 17.960938 16.28125 17.496094 16.605469 17.078125 C 16.765625 16.882812 16.933594 16.691406 17.109375 16.507812 C 17.367188 16.25 17.597656 15.96875 17.808594 15.667969 C 17.941406 15.433594 18.054688 15.1875 18.144531 14.933594 C 18.21875 14.722656 18.320312 14.527344 18.453125 14.347656 C 18.535156 14.265625 18.628906 14.191406 18.730469 14.132812 C 18.953125 13.882812 19.183594 13.636719 19.417969 13.394531 C 19.550781 13.289062 19.683594 13.191406 19.824219 13.097656 C 19.484375 13.117188 19.144531 13.132812 18.804688 13.140625 C 18.710938 13.136719 18.625 13.105469 18.550781 13.050781 C 18.5 12.964844 18.492188 12.871094 18.527344 12.773438 C 18.574219 12.664062 18.636719 12.566406 18.707031 12.472656 C 18.816406 12.261719 18.886719 12.035156 18.917969 11.796875 C 18.992188 10.792969 19.226562 9.828125 19.621094 8.902344 C 19.71875 8.691406 19.859375 8.507812 20.035156 8.355469 C 20.269531 8.214844 20.523438 8.152344 20.800781 8.175781 C 20.8125 8.152344 20.824219 8.132812 20.84375 8.117188 C 21.046875 8.027344 21.257812 7.996094 21.476562 8.019531 C 22.011719 8.113281 22.449219 8.375 22.789062 8.796875 C 22.894531 8.964844 23.003906 9.132812 23.117188 9.292969 C 23.226562 9.410156 23.34375 9.519531 23.460938 9.625 C 23.5625 9.8125 23.667969 9.996094 23.777344 10.179688 C 23.878906 10.316406 23.984375 10.445312 24.101562 10.570312 C 24.234375 10.710938 24.378906 10.835938 24.535156 10.949219 C 24.617188 11.015625 24.644531 11.097656 24.617188 11.199219 C 24.59375 11.28125 24.558594 11.355469 24.511719 11.421875 C 24.335938 11.660156 24.128906 11.867188 23.890625 12.046875 C 23.671875 12.125 23.445312 12.15625 23.214844 12.136719 C 23.148438 12.085938 23.140625 12.027344 23.183594 11.957031 C 23.210938 11.9375 23.242188 11.933594 23.273438 11.933594 C 23.507812 11.945312 23.722656 11.886719 23.917969 11.761719 C 24.078125 11.617188 24.222656 11.460938 24.347656 11.289062 C 24.382812 11.238281 24.402344 11.183594 24.40625 11.125 C 23.933594 10.753906 23.5625 10.296875 23.296875 9.757812 C 23.191406 9.652344 23.085938 9.546875 22.980469 9.445312 C 22.863281 9.261719 22.742188 9.082031 22.621094 8.902344 C 22.332031 8.53125 21.953125 8.304688 21.488281 8.222656 C 21.394531 8.207031 21.296875 8.210938 21.203125 8.234375 C 21.210938 8.28125 21.226562 8.320312 21.25 8.355469 C 21.375 8.457031 21.503906 8.550781 21.640625 8.640625 C 22.332031 8.738281 22.824219 9.105469 23.117188 9.742188 C 23.222656 10.019531 23.273438 10.308594 23.261719 10.605469 C 23.253906 10.847656 23.246094 11.089844 23.238281 11.332031 C 23.1875 11.527344 23.132812 11.722656 23.078125 11.917969 C 23.058594 12.003906 23.035156 12.085938 23.003906 12.167969 C 23.234375 12.210938 23.464844 12.25 23.695312 12.285156 C 23.886719 12.296875 24.074219 12.296875 24.265625 12.285156 C 24.925781 12.238281 25.585938 12.199219 26.246094 12.167969 C 26.757812 12.136719 27.261719 12.054688 27.761719 11.925781 C 28.195312 11.777344 28.59375 11.570312 28.960938 11.296875 C 29.128906 11.15625 29.300781 11.015625 29.46875 10.875 C 29.992188 10.375 30.503906 9.859375 31.007812 9.339844 C 31.15625 9.128906 31.308594 8.917969 31.457031 8.707031 C 31.738281 8.222656 32.023438 7.734375 32.3125 7.253906 C 32.441406 6.910156 32.570312 6.5625 32.695312 6.21875 C 32.746094 6.113281 32.785156 6.003906 32.808594 5.886719 C 32.839844 5.34375 32.878906 4.796875 32.929688 4.253906 C 32.945312 4.167969 32.960938 4.082031 32.980469 3.996094 C 33.074219 3.753906 33.242188 3.675781 33.492188 3.765625 C 33.511719 3.800781 33.527344 3.839844 33.535156 3.878906 C 33.59375 3.902344 33.648438 3.925781 33.699219 3.945312 C 33.585938 3.742188 33.480469 3.535156 33.378906 3.324219 C 33.167969 2.84375 32.945312 2.367188 32.71875 1.898438 C 32.699219 1.839844 32.714844 1.792969 32.753906 1.753906 C 32.898438 1.703125 33.039062 1.644531 33.175781 1.574219 C 33.410156 1.496094 33.589844 1.5625 33.707031 1.777344 C 33.753906 1.867188 33.789062 1.964844 33.8125 2.0625 C 34.011719 2.414062 34.207031 2.769531 34.398438 3.128906 C 34.429688 3.210938 34.460938 3.296875 34.488281 3.382812 C 34.554688 3.496094 34.617188 3.613281 34.683594 3.726562 C 34.734375 3.855469 34.757812 3.984375 34.75 4.117188 C 34.863281 4.019531 34.988281 3.941406 35.125 3.886719 C 35.0625 3.808594 35.074219 3.746094 35.15625 3.691406 C 35.175781 3.6875 35.195312 3.683594 35.214844 3.683594 C 35.410156 3.710938 35.597656 3.753906 35.785156 3.808594 C 35.910156 3.910156 36.042969 3.988281 36.191406 4.042969 Z M 34.03125 4.101562 C 34.101562 4.199219 34.167969 4.296875 34.226562 4.402344 C 34.1875 4.382812 34.152344 4.355469 34.121094 4.328125 C 34.085938 4.253906 34.054688 4.179688 34.03125 4.101562 Z M 34.570312 4.253906 C 34.578125 4.269531 34.589844 4.289062 34.601562 4.304688 C 34.574219 4.34375 34.546875 4.378906 34.527344 4.417969 C 34.53125 4.359375 34.542969 4.304688 34.570312 4.253906 Z M 20.621094 8.394531 C 20.523438 8.542969 20.445312 8.703125 20.386719 8.875 C 20.113281 9.703125 19.894531 10.550781 19.726562 11.410156 C 19.632812 11.851562 19.550781 12.296875 19.480469 12.742188 C 19.695312 12.761719 19.910156 12.78125 20.125 12.804688 C 20.113281 12.824219 20.097656 12.839844 20.078125 12.855469 C 19.910156 12.859375 19.738281 12.867188 19.570312 12.871094 C 19.371094 12.894531 19.167969 12.917969 18.96875 12.9375 C 18.894531 12.945312 18.828125 12.929688 18.765625 12.894531 C 18.753906 12.839844 18.765625 12.789062 18.796875 12.742188 C 18.90625 12.59375 18.984375 12.429688 19.035156 12.25 C 19.082031 12.089844 19.117188 11.929688 19.140625 11.769531 C 19.210938 10.855469 19.414062 9.976562 19.757812 9.128906 C 19.84375 8.90625 19.96875 8.714844 20.140625 8.550781 C 20.285156 8.449219 20.441406 8.394531 20.621094 8.394531 Z M 33.699219 11.332031 C 33.328125 11.773438 32.925781 12.179688 32.484375 12.554688 C 31.917969 13.019531 31.328125 13.457031 30.714844 13.863281 C 30.511719 13.964844 30.304688 14.070312 30.101562 14.175781 C 29.933594 14.289062 29.769531 14.402344 29.605469 14.519531 C 28.933594 14.894531 28.234375 15.195312 27.503906 15.429688 C 29.6875 14.234375 31.753906 12.871094 33.699219 11.332031 Z M 22.839844 11.917969 C 22.84375 11.917969 22.851562 11.917969 22.855469 11.917969 C 22.839844 12 22.8125 12.082031 22.78125 12.160156 C 22.765625 12.171875 22.753906 12.175781 22.734375 12.171875 C 22.765625 12.085938 22.800781 12 22.839844 11.917969 Z M 23.230469 12.488281 C 23.152344 12.484375 23.078125 12.492188 23.003906 12.503906 C 22.964844 12.472656 22.925781 12.445312 22.886719 12.414062 C 22.890625 12.394531 22.90625 12.382812 22.929688 12.382812 C 22.953125 12.402344 22.976562 12.421875 23.003906 12.4375 C 23.082031 12.457031 23.15625 12.472656 23.230469 12.488281 Z M 21.128906 12.503906 C 21.144531 12.523438 21.160156 12.542969 21.175781 12.5625 C 21.144531 12.558594 21.113281 12.554688 21.085938 12.546875 C 21.09375 12.527344 21.109375 12.515625 21.128906 12.503906 Z M 21.984375 13.417969 C 21.851562 13.316406 21.710938 13.222656 21.566406 13.132812 C 21.542969 13.109375 21.523438 13.082031 21.503906 13.050781 C 21.46875 13.027344 21.429688 13.023438 21.390625 13.042969 C 21.289062 12.996094 21.179688 12.960938 21.070312 12.929688 C 21.054688 12.910156 21.050781 12.886719 21.0625 12.863281 C 21.210938 12.890625 21.355469 12.917969 21.503906 12.945312 C 21.546875 12.953125 21.585938 12.96875 21.625 12.992188 C 21.691406 13.046875 21.761719 13.101562 21.835938 13.148438 C 21.878906 13.242188 21.925781 13.332031 21.984375 13.417969 Z M 20.214844 13.300781 C 20.25 13.296875 20.28125 13.304688 20.304688 13.328125 C 20.269531 13.328125 20.238281 13.316406 20.214844 13.300781 Z M 20.347656 13.34375 C 20.378906 13.34375 20.40625 13.351562 20.425781 13.375 C 20.394531 13.375 20.367188 13.367188 20.347656 13.34375 Z M 20.425781 13.375 C 20.667969 13.4375 20.914062 13.5 21.160156 13.5625 C 21.25 13.640625 21.328125 13.730469 21.398438 13.824219 C 21.078125 13.660156 20.753906 13.511719 20.425781 13.375 Z M 22.765625 13.433594 C 22.875 13.433594 22.964844 13.472656 23.035156 13.5625 C 22.972656 13.601562 22.921875 13.652344 22.886719 13.71875 C 22.839844 13.679688 22.796875 13.640625 22.757812 13.597656 C 22.765625 13.542969 22.765625 13.488281 22.765625 13.433594 Z M 23.125 13.972656 C 23.0625 13.941406 23.046875 13.898438 23.074219 13.839844 C 23.097656 13.878906 23.113281 13.925781 23.125 13.972656 Z M 24.128906 13.839844 C 24.210938 13.921875 24.285156 14.007812 24.355469 14.101562 C 24.28125 14.074219 24.210938 14.039062 24.144531 13.988281 C 24.132812 13.941406 24.125 13.890625 24.128906 13.839844 Z M 22.660156 13.929688 C 22.6875 13.933594 22.707031 13.949219 22.71875 13.972656 C 22.691406 13.96875 22.671875 13.957031 22.660156 13.929688 Z M 23.125 13.972656 C 23.144531 14.003906 23.164062 14.03125 23.183594 14.0625 C 23.15625 14.085938 23.128906 14.113281 23.101562 14.140625 C 23.121094 14.089844 23.128906 14.03125 23.125 13.972656 Z M 23.441406 14.183594 C 23.46875 14.25 23.496094 14.320312 23.515625 14.394531 C 23.507812 14.4375 23.496094 14.476562 23.476562 14.515625 C 23.453125 14.46875 23.433594 14.425781 23.410156 14.378906 C 23.433594 14.316406 23.441406 14.25 23.441406 14.183594 Z M 23.800781 14.273438 C 24 14.605469 24.167969 14.953125 24.308594 15.316406 C 24.289062 15.355469 24.261719 15.386719 24.226562 15.414062 C 24.183594 15.332031 24.144531 15.246094 24.105469 15.160156 C 24 14.867188 23.898438 14.570312 23.800781 14.273438 Z M 24.445312 14.5 C 24.503906 14.539062 24.5625 14.585938 24.617188 14.632812 C 24.644531 14.703125 24.664062 14.773438 24.675781 14.84375 C 24.585938 14.738281 24.507812 14.625 24.445312 14.5 Z M 23.816406 14.992188 C 23.847656 15.054688 23.875 15.117188 23.90625 15.179688 C 23.867188 15.191406 23.839844 15.179688 23.824219 15.144531 C 23.816406 15.09375 23.8125 15.042969 23.816406 14.992188 Z M 22.839844 15.007812 C 22.886719 15.042969 22.925781 15.085938 22.960938 15.136719 C 22.925781 15.148438 22.894531 15.144531 22.863281 15.128906 C 22.851562 15.089844 22.84375 15.050781 22.839844 15.007812 Z M 25.433594 15.113281 C 25.457031 15.121094 25.464844 15.136719 25.464844 15.160156 C 25.445312 15.152344 25.433594 15.136719 25.433594 15.113281 Z M 25.464844 15.160156 C 25.53125 15.226562 25.585938 15.300781 25.628906 15.382812 C 25.5625 15.316406 25.507812 15.242188 25.464844 15.160156 Z M 25.628906 15.382812 C 25.652344 15.390625 25.660156 15.40625 25.660156 15.429688 C 25.640625 15.421875 25.628906 15.40625 25.628906 15.382812 Z M 25.660156 15.429688 C 25.679688 15.4375 25.691406 15.449219 25.691406 15.472656 C 25.667969 15.46875 25.660156 15.453125 25.660156 15.429688 Z M 24.398438 15.714844 C 24.410156 15.699219 24.425781 15.695312 24.445312 15.699219 C 24.46875 15.792969 24.453125 15.796875 24.398438 15.714844 Z M 23.246094 15.742188 C 23.320312 15.902344 23.375 16.070312 23.410156 16.246094 C 23.394531 16.363281 23.367188 16.472656 23.335938 16.585938 C 23.289062 16.5625 23.246094 16.566406 23.207031 16.597656 C 23.21875 16.410156 23.234375 16.21875 23.261719 16.027344 C 23.25 15.933594 23.246094 15.839844 23.246094 15.742188 Z M 24.175781 15.804688 C 24.199219 15.816406 24.21875 15.835938 24.226562 15.863281 C 24.292969 16.082031 24.355469 16.300781 24.40625 16.523438 C 24.417969 16.582031 24.410156 16.636719 24.378906 16.6875 C 24.285156 16.515625 24.195312 16.339844 24.105469 16.164062 C 24.097656 16.039062 24.121094 15.917969 24.175781 15.804688 Z M 25.703125 16.359375 C 25.675781 16.332031 25.648438 16.304688 25.621094 16.269531 C 25.542969 16.136719 25.472656 16 25.414062 15.863281 C 25.527344 16.019531 25.621094 16.183594 25.703125 16.359375 Z M 24.578125 16.089844 C 24.601562 16.074219 24.625 16.070312 24.65625 16.082031 C 24.640625 16.101562 24.628906 16.125 24.617188 16.148438 C 24.601562 16.128906 24.589844 16.109375 24.578125 16.089844 Z M 25.148438 16.105469 C 25.265625 16.292969 25.382812 16.488281 25.496094 16.683594 C 25.464844 16.695312 25.433594 16.691406 25.40625 16.675781 C 25.3125 16.488281 25.226562 16.296875 25.148438 16.105469 Z M 24.789062 16.285156 C 24.835938 16.433594 24.875 16.585938 24.910156 16.742188 C 24.890625 16.808594 24.875 16.875 24.859375 16.945312 C 24.816406 16.777344 24.765625 16.613281 24.714844 16.449219 C 24.746094 16.394531 24.769531 16.339844 24.789062 16.285156 Z M 25.703125 16.359375 C 25.726562 16.367188 25.734375 16.382812 25.734375 16.402344 C 25.714844 16.398438 25.703125 16.382812 25.703125 16.359375 Z M 23.679688 17.125 C 23.703125 16.949219 23.707031 16.773438 23.703125 16.597656 C 23.738281 16.746094 23.757812 16.898438 23.761719 17.050781 C 23.726562 17.066406 23.699219 17.09375 23.679688 17.125 Z M 25.121094 16.660156 C 25.226562 16.890625 25.339844 17.121094 25.457031 17.347656 C 25.46875 17.398438 25.46875 17.449219 25.457031 17.5 C 25.425781 17.40625 25.390625 17.316406 25.351562 17.230469 C 25.3125 17.207031 25.265625 17.191406 25.21875 17.183594 C 25.183594 17.007812 25.152344 16.835938 25.121094 16.660156 Z M 26.304688 17.527344 C 26.195312 17.363281 26.09375 17.1875 26.003906 17.003906 C 26.035156 16.984375 26.0625 16.964844 26.085938 16.945312 C 26.171875 17.136719 26.242188 17.332031 26.304688 17.527344 Z M 23.996094 17.003906 C 24.046875 17.203125 24.085938 17.410156 24.105469 17.621094 C 24.101562 17.582031 24.078125 17.550781 24.046875 17.527344 C 24.027344 17.46875 24.027344 17.410156 24.039062 17.347656 C 24.015625 17.234375 24.003906 17.121094 23.996094 17.003906 Z M 25 17.214844 C 25.039062 17.300781 25.054688 17.390625 25.046875 17.484375 C 25.015625 17.453125 24.980469 17.433594 24.941406 17.425781 C 24.96875 17.355469 24.988281 17.285156 25 17.214844 Z M 23.800781 17.785156 C 23.804688 17.839844 23.804688 17.902344 23.800781 17.964844 C 23.75 17.980469 23.699219 17.996094 23.648438 18 C 23.691406 17.921875 23.742188 17.851562 23.800781 17.785156 Z M 25.765625 17.964844 C 25.734375 17.933594 25.722656 17.898438 25.726562 17.859375 C 25.75 17.890625 25.761719 17.925781 25.765625 17.964844 Z M 25.316406 17.964844 C 25.378906 18.097656 25.441406 18.234375 25.496094 18.375 C 25.488281 18.382812 25.480469 18.390625 25.472656 18.398438 C 25.402344 18.257812 25.351562 18.113281 25.316406 17.964844 Z M 25.765625 17.964844 C 25.835938 18.089844 25.898438 18.214844 25.960938 18.347656 C 25.9375 18.359375 25.914062 18.355469 25.894531 18.339844 C 25.851562 18.214844 25.808594 18.089844 25.765625 17.964844 Z M 27.160156 19.195312 C 27.039062 18.84375 26.910156 18.496094 26.777344 18.144531 C 26.769531 18.125 26.769531 18.105469 26.777344 18.085938 C 26.953125 18.4375 27.078125 18.808594 27.160156 19.195312 Z M 23.273438 18.5625 C 23.285156 18.546875 23.296875 18.53125 23.320312 18.527344 C 23.441406 18.542969 23.503906 18.492188 23.507812 18.371094 C 23.578125 18.308594 23.65625 18.261719 23.738281 18.21875 C 23.726562 18.355469 23.726562 18.492188 23.738281 18.632812 C 23.703125 18.710938 23.660156 18.78125 23.605469 18.847656 C 23.566406 18.789062 23.519531 18.734375 23.460938 18.683594 C 23.449219 18.566406 23.386719 18.527344 23.273438 18.5625 Z M 16.179688 18.460938 C 15.796875 19.46875 15.519531 20.503906 15.339844 21.566406 C 15.351562 21.136719 15.414062 20.71875 15.527344 20.304688 C 15.707031 19.726562 15.898438 19.152344 16.097656 18.578125 C 16.121094 18.535156 16.148438 18.496094 16.179688 18.460938 Z M 24.039062 18.625 C 24.0625 18.640625 24.074219 18.660156 24.070312 18.691406 C 24.070312 18.730469 24.058594 18.761719 24.03125 18.789062 C 24.011719 18.761719 23.996094 18.730469 23.980469 18.699219 C 24 18.675781 24.019531 18.648438 24.039062 18.625 Z M 21.488281 18.746094 C 21.359375 19.03125 21.179688 19.285156 20.949219 19.5 C 20.644531 19.765625 20.375 20.058594 20.132812 20.378906 C 19.851562 20.636719 19.625 20.933594 19.449219 21.265625 C 19.449219 20.949219 19.519531 20.648438 19.652344 20.363281 C 19.742188 20.214844 19.855469 20.082031 19.988281 19.96875 C 20.34375 19.710938 20.6875 19.449219 21.023438 19.171875 C 21.175781 19.027344 21.332031 18.882812 21.488281 18.746094 Z M 22.765625 18.96875 C 22.773438 18.941406 22.785156 18.917969 22.800781 18.894531 C 22.8125 18.929688 22.800781 18.957031 22.765625 18.96875 Z M 23.335938 18.925781 C 23.378906 18.976562 23.402344 19.035156 23.402344 19.105469 C 23.347656 19.160156 23.292969 19.214844 23.238281 19.269531 C 23.21875 19.257812 23.199219 19.246094 23.183594 19.230469 C 23.242188 19.132812 23.292969 19.03125 23.335938 18.925781 Z M 25.433594 18.953125 C 25.472656 19.03125 25.503906 19.109375 25.523438 19.195312 C 25.484375 19.40625 25.546875 19.589844 25.710938 19.734375 C 25.820312 19.90625 25.835938 20.085938 25.765625 20.273438 C 25.757812 20.269531 25.75 20.265625 25.742188 20.257812 C 25.730469 20.15625 25.710938 20.058594 25.683594 19.960938 C 25.574219 19.660156 25.476562 19.359375 25.390625 19.050781 C 25.402344 19.019531 25.417969 18.984375 25.433594 18.953125 Z M 24.144531 18.984375 C 24.203125 19.015625 24.25 19.058594 24.28125 19.121094 C 24.253906 19.152344 24.226562 19.183594 24.199219 19.210938 C 24.175781 19.144531 24.152344 19.082031 24.128906 19.015625 C 24.136719 19.003906 24.140625 18.996094 24.144531 18.984375 Z M 26.679688 19.179688 C 26.726562 19.261719 26.761719 19.347656 26.792969 19.433594 C 26.765625 19.425781 26.746094 19.410156 26.734375 19.390625 C 26.707031 19.320312 26.6875 19.25 26.679688 19.179688 Z M 23.785156 19.464844 C 23.796875 19.417969 23.8125 19.371094 23.835938 19.328125 C 23.847656 19.363281 23.847656 19.398438 23.835938 19.433594 C 23.824219 19.453125 23.808594 19.464844 23.785156 19.464844 Z M 21.851562 19.40625 C 21.859375 19.40625 21.863281 19.410156 21.863281 19.417969 C 21.84375 19.445312 21.824219 19.476562 21.8125 19.507812 C 21.734375 19.550781 21.660156 19.601562 21.59375 19.660156 C 21.535156 19.730469 21.480469 19.804688 21.429688 19.882812 C 21.285156 19.832031 21.226562 19.878906 21.25 20.027344 C 21.1875 20.121094 21.136719 20.226562 21.101562 20.335938 C 21.09375 20.351562 21.082031 20.351562 21.070312 20.34375 C 20.945312 20.1875 20.921875 20.019531 21.003906 19.839844 C 21.054688 19.816406 21.085938 19.777344 21.09375 19.71875 C 21.15625 19.65625 21.222656 19.589844 21.289062 19.523438 C 21.328125 19.601562 21.390625 19.621094 21.476562 19.585938 C 21.503906 19.59375 21.535156 19.605469 21.566406 19.613281 C 21.675781 19.566406 21.773438 19.496094 21.851562 19.40625 Z M 24.308594 19.40625 C 24.332031 19.414062 24.347656 19.429688 24.355469 19.457031 C 24.261719 19.492188 24.246094 19.476562 24.308594 19.40625 Z M 22.554688 19.585938 C 22.582031 19.53125 22.617188 19.484375 22.652344 19.433594 C 22.667969 19.515625 22.632812 19.566406 22.554688 19.585938 Z M 23.441406 19.507812 C 23.464844 19.507812 23.488281 19.507812 23.515625 19.507812 C 23.539062 19.640625 23.496094 19.730469 23.378906 19.785156 C 23.332031 19.808594 23.285156 19.824219 23.238281 19.839844 C 23.207031 19.824219 23.1875 19.800781 23.183594 19.765625 C 23.195312 19.699219 23.203125 19.632812 23.207031 19.570312 C 23.226562 19.558594 23.242188 19.546875 23.261719 19.53125 C 23.324219 19.527344 23.382812 19.523438 23.441406 19.507812 Z M 26.53125 19.644531 C 26.558594 19.683594 26.566406 19.730469 26.550781 19.78125 C 26.539062 19.734375 26.53125 19.691406 26.53125 19.644531 Z M 24.746094 19.660156 C 24.765625 19.660156 24.777344 19.671875 24.78125 19.691406 C 24.828125 19.851562 24.863281 20.019531 24.886719 20.183594 C 24.824219 20.011719 24.777344 19.835938 24.746094 19.660156 Z M 24.128906 19.808594 C 24.15625 19.835938 24.15625 19.859375 24.136719 19.882812 C 24.128906 19.859375 24.128906 19.835938 24.128906 19.808594 Z M 22.570312 19.839844 C 22.585938 19.890625 22.582031 19.9375 22.554688 19.988281 C 22.523438 19.984375 22.5 19.96875 22.480469 19.945312 C 22.511719 19.910156 22.539062 19.875 22.570312 19.839844 Z M 24.429688 19.882812 C 24.449219 19.890625 24.457031 19.90625 24.460938 19.929688 C 24.480469 20.023438 24.492188 20.121094 24.496094 20.214844 C 24.46875 20.113281 24.4375 20.015625 24.398438 19.921875 C 24.414062 19.910156 24.421875 19.898438 24.429688 19.882812 Z M 27.671875 20.289062 C 27.636719 20.226562 27.582031 20.199219 27.503906 20.207031 C 27.476562 20.183594 27.453125 20.152344 27.429688 20.125 C 27.453125 20.050781 27.472656 19.976562 27.484375 19.898438 C 27.527344 19.90625 27.5625 19.925781 27.585938 19.960938 C 27.628906 20.066406 27.65625 20.175781 27.671875 20.289062 Z M 23.90625 19.929688 C 23.914062 19.929688 23.921875 19.9375 23.925781 19.945312 C 23.933594 19.988281 23.941406 20.03125 23.949219 20.070312 C 23.925781 20.132812 23.890625 20.191406 23.851562 20.246094 C 23.839844 20.195312 23.828125 20.148438 23.816406 20.101562 C 23.839844 20.042969 23.867188 19.984375 23.90625 19.929688 Z M 22.765625 19.945312 C 22.785156 20.027344 22.785156 20.113281 22.765625 20.199219 C 22.753906 20.113281 22.753906 20.03125 22.765625 19.945312 Z M 23.441406 19.960938 C 23.464844 20.019531 23.453125 20.078125 23.402344 20.125 C 23.382812 20.085938 23.363281 20.050781 23.351562 20.011719 C 23.382812 19.996094 23.414062 19.980469 23.441406 19.960938 Z M 20.695312 20.050781 C 20.703125 20.050781 20.707031 20.054688 20.710938 20.066406 C 20.582031 20.550781 20.511719 21.046875 20.5 21.550781 C 20.539062 22.285156 20.574219 23.019531 20.605469 23.753906 C 20.601562 23.800781 20.59375 23.84375 20.589844 23.890625 C 20.519531 23.921875 20.496094 23.980469 20.523438 24.054688 C 20.546875 24.09375 20.578125 24.128906 20.613281 24.160156 C 20.617188 24.378906 20.625 24.59375 20.632812 24.8125 C 20.636719 24.890625 20.628906 24.96875 20.613281 25.046875 C 20.421875 24.820312 20.234375 24.589844 20.058594 24.355469 C 20.027344 24.285156 19.996094 24.214844 19.96875 24.144531 C 19.859375 23.777344 19.75 23.414062 19.636719 23.050781 C 19.613281 22.804688 19.601562 22.554688 19.597656 22.308594 C 19.597656 22.097656 19.613281 21.890625 19.652344 21.683594 C 19.730469 21.464844 19.804688 21.246094 19.878906 21.023438 C 19.917969 20.949219 19.960938 20.878906 20.011719 20.816406 C 20.25 20.566406 20.476562 20.3125 20.695312 20.050781 Z M 24.21875 20.09375 C 24.253906 20.160156 24.277344 20.230469 24.296875 20.304688 C 24.292969 20.320312 24.289062 20.332031 24.28125 20.34375 C 24.257812 20.347656 24.238281 20.355469 24.21875 20.363281 C 24.199219 20.296875 24.183594 20.230469 24.175781 20.160156 C 24.1875 20.136719 24.203125 20.113281 24.21875 20.09375 Z M 26.753906 20.109375 C 26.769531 20.109375 26.777344 20.113281 26.785156 20.125 C 26.828125 20.230469 26.878906 20.328125 26.933594 20.425781 C 27.035156 20.445312 27.125 20.433594 27.210938 20.378906 C 27.226562 20.394531 27.242188 20.410156 27.257812 20.425781 C 27.273438 20.589844 27.265625 20.757812 27.226562 20.917969 C 27.011719 20.683594 26.855469 20.414062 26.753906 20.109375 Z M 22.089844 20.140625 C 22.105469 20.160156 22.109375 20.1875 22.097656 20.214844 C 22.0625 20.234375 22.03125 20.257812 22.007812 20.289062 C 21.972656 20.359375 21.9375 20.429688 21.902344 20.5 C 21.890625 20.433594 21.894531 20.367188 21.917969 20.304688 C 21.972656 20.246094 22.03125 20.191406 22.089844 20.140625 Z M 23.230469 20.273438 C 23.257812 20.304688 23.257812 20.332031 23.238281 20.363281 C 23.230469 20.335938 23.226562 20.304688 23.230469 20.273438 Z M 21.566406 20.441406 C 21.605469 20.570312 21.625 20.703125 21.617188 20.84375 C 21.5625 20.808594 21.507812 20.808594 21.453125 20.84375 C 21.460938 20.734375 21.476562 20.625 21.496094 20.515625 C 21.515625 20.484375 21.539062 20.460938 21.566406 20.441406 Z M 22.507812 20.453125 C 22.53125 20.488281 22.535156 20.523438 22.523438 20.558594 C 22.511719 20.554688 22.503906 20.546875 22.496094 20.535156 C 22.507812 20.511719 22.511719 20.484375 22.507812 20.453125 Z M 26.753906 21.054688 C 26.820312 20.863281 26.785156 20.695312 26.648438 20.550781 C 26.65625 20.527344 26.667969 20.503906 26.6875 20.484375 C 26.773438 20.679688 26.882812 20.859375 27.011719 21.023438 C 26.925781 21.042969 26.839844 21.054688 26.753906 21.054688 Z M 27.96875 20.738281 C 27.910156 20.695312 27.890625 20.636719 27.902344 20.558594 C 27.929688 20.617188 27.953125 20.679688 27.96875 20.738281 Z M 25.824219 20.632812 C 25.863281 20.644531 25.882812 20.664062 25.894531 20.695312 C 25.855469 20.707031 25.820312 20.703125 25.78125 20.6875 C 25.796875 20.671875 25.8125 20.652344 25.824219 20.632812 Z M 24.039062 20.695312 C 24.074219 20.796875 24.089844 20.902344 24.09375 21.007812 C 24.070312 21.035156 24.042969 21.039062 24.015625 21.023438 C 23.996094 20.9375 23.976562 20.855469 23.949219 20.769531 C 23.980469 20.746094 24.011719 20.71875 24.039062 20.695312 Z M 22.539062 20.710938 C 22.558594 20.777344 22.570312 20.847656 22.578125 20.917969 C 22.613281 20.976562 22.640625 21.035156 22.660156 21.101562 C 22.625 21.179688 22.570312 21.246094 22.496094 21.292969 C 22.476562 21.242188 22.460938 21.191406 22.449219 21.136719 C 22.484375 20.996094 22.515625 20.851562 22.539062 20.710938 Z M 24.265625 20.710938 C 24.300781 20.707031 24.335938 20.710938 24.371094 20.722656 C 24.453125 20.835938 24.429688 20.898438 24.296875 20.917969 C 24.289062 20.847656 24.277344 20.777344 24.265625 20.710938 Z M 26.5 20.753906 C 26.539062 20.792969 26.558594 20.839844 26.558594 20.898438 C 26.554688 20.976562 26.523438 21.046875 26.46875 21.105469 C 26.375 21.125 26.28125 21.140625 26.183594 21.152344 C 26.257812 21.097656 26.285156 21.023438 26.269531 20.933594 C 26.222656 20.882812 26.171875 20.839844 26.109375 20.808594 C 26.171875 20.808594 26.234375 20.816406 26.296875 20.828125 C 26.375 20.824219 26.441406 20.800781 26.5 20.753906 Z M 24.851562 20.800781 C 24.882812 20.816406 24.894531 20.839844 24.886719 20.875 C 24.863281 20.855469 24.835938 20.84375 24.804688 20.835938 C 24.828125 20.832031 24.839844 20.820312 24.851562 20.800781 Z M 23.363281 20.859375 C 23.378906 20.867188 23.382812 20.875 23.371094 20.890625 C 23.332031 20.914062 23.296875 20.945312 23.265625 20.980469 C 23.253906 20.957031 23.257812 20.9375 23.273438 20.917969 C 23.304688 20.898438 23.335938 20.878906 23.363281 20.859375 Z M 23.710938 20.933594 C 23.71875 20.941406 23.726562 20.949219 23.730469 20.964844 C 23.742188 21.035156 23.742188 21.105469 23.730469 21.175781 C 23.707031 21.183594 23.683594 21.195312 23.65625 21.203125 C 23.640625 21.164062 23.625 21.121094 23.621094 21.078125 C 23.636719 21.019531 23.667969 20.972656 23.710938 20.933594 Z M 25.855469 20.949219 C 25.910156 20.945312 25.949219 20.96875 25.976562 21.015625 C 25.933594 21.066406 25.882812 21.109375 25.824219 21.136719 C 25.542969 21.269531 25.25 21.34375 24.941406 21.363281 C 25.128906 21.273438 25.304688 21.160156 25.464844 21.023438 C 25.535156 21.011719 25.605469 21.003906 25.675781 21.003906 C 25.738281 20.992188 25.800781 20.976562 25.855469 20.949219 Z M 21.941406 21.101562 C 21.984375 21.101562 22.011719 21.125 22.023438 21.175781 C 22.0625 21.476562 22 21.757812 21.835938 22.015625 C 21.816406 21.980469 21.816406 21.945312 21.828125 21.910156 C 21.910156 21.644531 21.945312 21.375 21.941406 21.101562 Z M 20.828125 21.113281 C 20.839844 21.117188 20.847656 21.121094 20.851562 21.128906 C 20.863281 21.359375 20.863281 21.589844 20.851562 21.820312 C 20.816406 21.585938 20.808594 21.351562 20.828125 21.113281 Z M 23.425781 21.191406 C 23.441406 21.195312 23.449219 21.203125 23.453125 21.21875 C 23.414062 21.238281 23.375 21.246094 23.335938 21.242188 C 23.367188 21.226562 23.398438 21.210938 23.425781 21.191406 Z M 22.886719 21.234375 C 22.902344 21.257812 22.902344 21.28125 22.886719 21.308594 C 22.871094 21.300781 22.855469 21.292969 22.839844 21.289062 C 22.859375 21.273438 22.871094 21.253906 22.886719 21.234375 Z M 24.113281 21.339844 C 24.128906 21.339844 24.144531 21.339844 24.160156 21.339844 C 24.144531 21.457031 24.132812 21.457031 24.113281 21.339844 Z M 23.273438 21.894531 C 23.402344 21.878906 23.421875 21.910156 23.335938 21.992188 C 23.152344 22.066406 22.960938 22.097656 22.765625 22.082031 C 22.808594 22.039062 22.855469 21.992188 22.898438 21.945312 C 23.027344 21.925781 23.152344 21.910156 23.273438 21.894531 Z M 21.144531 21.925781 C 21.175781 22.03125 21.203125 22.140625 21.226562 22.253906 C 21.308594 22.53125 21.433594 22.550781 21.601562 22.316406 C 21.613281 22.339844 21.632812 22.363281 21.65625 22.382812 C 21.558594 22.539062 21.449219 22.683594 21.324219 22.816406 C 21.273438 22.828125 21.230469 22.808594 21.195312 22.765625 C 21.1875 22.621094 21.167969 22.484375 21.136719 22.34375 C 21.117188 22.300781 21.085938 22.273438 21.039062 22.261719 C 21.050781 22.160156 21.0625 22.058594 21.070312 21.953125 C 21.101562 21.960938 21.128906 21.949219 21.144531 21.925781 Z M 21.550781 22 C 21.523438 22.066406 21.484375 22.125 21.4375 22.179688 C 21.414062 22.09375 21.398438 22.007812 21.390625 21.925781 C 21.4375 21.964844 21.492188 21.988281 21.550781 22 Z M 22.507812 21.96875 C 22.53125 21.96875 22.550781 21.96875 22.570312 21.976562 C 22.546875 22.019531 22.523438 22.0625 22.503906 22.105469 C 22.492188 22.152344 22.496094 22.199219 22.523438 22.238281 C 22.347656 22.382812 22.164062 22.511719 21.96875 22.628906 C 21.960938 22.625 21.949219 22.621094 21.941406 22.613281 C 22.039062 22.496094 22.164062 22.414062 22.316406 22.367188 C 22.421875 22.3125 22.472656 22.222656 22.457031 22.105469 C 22.414062 22.054688 22.359375 22.039062 22.300781 22.050781 C 22.375 22.03125 22.445312 22.003906 22.507812 21.96875 Z M 24.820312 22.074219 C 24.835938 22.074219 24.851562 22.074219 24.863281 22.082031 C 24.601562 22.226562 24.328125 22.339844 24.039062 22.425781 C 23.824219 22.457031 23.609375 22.453125 23.394531 22.414062 C 23.535156 22.332031 23.675781 22.253906 23.816406 22.171875 C 24.15625 22.179688 24.492188 22.144531 24.820312 22.074219 Z M 20.738281 22.226562 C 20.765625 22.242188 20.796875 22.253906 20.828125 22.253906 C 20.8125 22.429688 20.792969 22.605469 20.777344 22.78125 C 20.769531 22.59375 20.757812 22.410156 20.738281 22.226562 Z M 22.675781 22.300781 C 22.679688 22.289062 22.6875 22.285156 22.699219 22.285156 C 22.753906 22.296875 22.8125 22.304688 22.871094 22.308594 C 22.8125 22.328125 22.75 22.347656 22.691406 22.359375 C 22.695312 22.335938 22.6875 22.316406 22.675781 22.300781 Z M 23.199219 22.988281 C 22.5625 23.246094 21.925781 23.496094 21.28125 23.738281 C 21.515625 23.496094 21.800781 23.328125 22.132812 23.238281 C 22.488281 23.148438 22.84375 23.066406 23.199219 22.988281 Z M 21.144531 23.140625 C 21.132812 23.070312 21.148438 23.054688 21.191406 23.101562 C 21.175781 23.117188 21.160156 23.128906 21.144531 23.140625 Z M 21.21875 23.378906 C 21.3125 23.265625 21.429688 23.183594 21.566406 23.125 C 21.582031 23.140625 21.601562 23.152344 21.625 23.164062 C 21.492188 23.238281 21.355469 23.3125 21.21875 23.378906 Z M 21.007812 24.011719 C 21.03125 23.992188 21.054688 23.992188 21.085938 24.003906 C 21.136719 24.019531 21.1875 24.035156 21.234375 24.054688 C 21.15625 24.050781 21.082031 24.035156 21.007812 24.011719 Z M 22.390625 24.070312 C 22.050781 24.109375 21.710938 24.109375 21.371094 24.070312 C 21.601562 24.074219 21.832031 24.0625 22.058594 24.039062 C 22.167969 24.050781 22.28125 24.058594 22.390625 24.070312 Z M 21.804688 27.234375 C 21.816406 27.253906 21.828125 27.273438 21.835938 27.296875 C 21.835938 27.355469 21.835938 27.414062 21.828125 27.476562 C 21.808594 27.394531 21.800781 27.316406 21.804688 27.234375 Z M 31.03125 30.730469 C 31.019531 30.722656 31.011719 30.714844 31.007812 30.699219 C 31 30.710938 30.984375 30.71875 30.96875 30.714844 C 31.015625 30.632812 31.039062 30.636719 31.03125 30.730469 Z M 31.269531 31.601562 C 31.609375 32.527344 31.851562 33.484375 32 34.464844 C 32.03125 34.761719 32.046875 35.054688 32.050781 35.351562 C 31.828125 34.09375 31.566406 32.84375 31.269531 31.601562 Z M 27.160156 32.484375 C 27.148438 32.5 27.132812 32.507812 27.113281 32.515625 C 27.121094 32.492188 27.136719 32.484375 27.160156 32.484375 Z M 28.164062 36.761719 C 28.191406 37.167969 28.15625 37.566406 28.058594 37.960938 C 28.011719 38.035156 27.960938 38.101562 27.902344 38.171875 C 27.707031 38.351562 27.515625 38.539062 27.332031 38.726562 C 27.125 39.078125 26.917969 39.433594 26.71875 39.792969 C 26.566406 39.972656 26.445312 40.171875 26.359375 40.390625 C 26.363281 40.136719 26.378906 39.882812 26.402344 39.625 C 26.503906 38.84375 26.585938 38.058594 26.65625 37.269531 C 26.761719 36.828125 26.871094 36.390625 26.988281 35.949219 C 27.039062 35.738281 27.078125 35.523438 27.109375 35.304688 C 27.125 35.0625 27.152344 34.820312 27.191406 34.578125 C 27.191406 34.539062 27.179688 34.507812 27.152344 34.480469 C 27.144531 34.136719 27.128906 33.789062 27.101562 33.445312 C 27.105469 33.398438 27.113281 33.355469 27.121094 33.3125 C 27.316406 33.84375 27.515625 34.375 27.722656 34.902344 C 27.835938 35.304688 27.945312 35.710938 28.054688 36.117188 C 28.101562 36.328125 28.136719 36.542969 28.164062 36.761719 Z M 26.859375 33.503906 C 26.878906 33.632812 26.878906 33.765625 26.867188 33.894531 C 26.84375 34.160156 26.8125 34.425781 26.777344 34.691406 C 26.648438 35.542969 26.535156 36.398438 26.433594 37.257812 C 26.28125 37.851562 26.15625 38.449219 26.058594 39.054688 C 25.996094 39.585938 25.945312 40.117188 25.90625 40.648438 C 25.871094 40.902344 25.839844 41.15625 25.808594 41.410156 C 25.746094 41.503906 25.6875 41.597656 25.628906 41.695312 C 26.03125 38.964844 26.441406 36.234375 26.859375 33.503906 Z M 22.164062 38.382812 C 22.25 38.808594 22.324219 39.238281 22.390625 39.671875 C 22.242188 39.257812 22.164062 38.828125 22.164062 38.382812 Z M 25.613281 42.714844 C 25.570312 42.773438 25.539062 42.839844 25.515625 42.910156 C 25.492188 43.039062 25.476562 43.171875 25.472656 43.300781 C 25.425781 43.464844 25.371094 43.625 25.316406 43.78125 C 25.378906 43.316406 25.445312 42.851562 25.515625 42.386719 C 25.550781 42.496094 25.582031 42.605469 25.613281 42.714844 Z M 25.511719 44.21875 C 25.527344 44.226562 25.542969 44.238281 25.554688 44.253906 C 25.5 44.367188 25.535156 44.425781 25.660156 44.433594 C 25.675781 44.449219 25.691406 44.464844 25.703125 44.480469 C 25.621094 44.492188 25.535156 44.503906 25.449219 44.507812 C 25.410156 44.554688 25.394531 44.605469 25.414062 44.667969 C 25.464844 44.703125 25.519531 44.71875 25.585938 44.71875 C 25.5 44.785156 25.414062 44.785156 25.328125 44.71875 C 25.351562 44.621094 25.375 44.523438 25.398438 44.425781 C 25.4375 44.359375 25.476562 44.289062 25.511719 44.21875 Z M 26.019531 44.292969 C 26.054688 44.304688 26.054688 44.316406 26.027344 44.335938 C 26.019531 44.324219 26.019531 44.308594 26.019531 44.292969 Z M 25.988281 44.59375 C 26.015625 44.566406 26.046875 44.546875 26.082031 44.53125 C 26.085938 44.535156 26.089844 44.542969 26.09375 44.546875 C 26.066406 44.574219 26.03125 44.589844 25.988281 44.59375 Z M 25.058594 44.953125 C 25.046875 45 25.042969 45.050781 25.039062 45.101562 C 24.976562 45.15625 24.914062 45.207031 24.851562 45.253906 C 24.433594 45.179688 24.019531 45.125 23.605469 45.085938 C 24.089844 45.039062 24.574219 44.996094 25.058594 44.953125 Z M 23.167969 45.3125 C 23.1875 45.335938 23.1875 45.359375 23.167969 45.386719 C 23.140625 45.355469 23.140625 45.332031 23.167969 45.3125 Z M 23.515625 45.761719 C 23.492188 45.703125 23.472656 45.640625 23.453125 45.574219 C 23.464844 45.5625 23.46875 45.546875 23.46875 45.53125 C 23.460938 45.472656 23.449219 45.414062 23.441406 45.355469 C 23.515625 45.367188 23.585938 45.390625 23.648438 45.425781 C 23.566406 45.519531 23.519531 45.632812 23.515625 45.761719 Z M 23.996094 45.550781 C 24.003906 45.542969 24.015625 45.539062 24.03125 45.535156 C 24.097656 45.542969 24.160156 45.554688 24.21875 45.574219 C 24.175781 45.648438 24.136719 45.726562 24.105469 45.808594 C 24.085938 45.714844 24.046875 45.628906 23.996094 45.550781 Z M 24.566406 45.582031 C 24.652344 45.550781 24.671875 45.570312 24.617188 45.640625 C 24.601562 45.617188 24.585938 45.597656 24.566406 45.582031 Z M 23.769531 45.628906 C 23.792969 45.628906 23.808594 45.636719 23.824219 45.65625 C 23.871094 45.746094 23.910156 45.835938 23.933594 45.933594 C 23.917969 45.941406 23.90625 45.949219 23.890625 45.957031 C 23.828125 45.875 23.78125 45.78125 23.753906 45.679688 C 23.757812 45.660156 23.761719 45.644531 23.769531 45.628906 Z M 25.285156 45.746094 C 25.296875 45.757812 25.304688 45.769531 25.316406 45.785156 C 25.292969 45.789062 25.28125 45.773438 25.285156 45.746094 Z M 24.878906 45.867188 C 24.890625 45.90625 24.90625 45.945312 24.925781 45.988281 C 24.945312 46.007812 24.96875 46.019531 25 46.015625 C 25.003906 46.050781 25 46.085938 24.992188 46.121094 C 24.960938 46.183594 24.941406 46.25 24.933594 46.316406 C 24.851562 46.382812 24.789062 46.460938 24.746094 46.558594 C 24.726562 46.570312 24.707031 46.574219 24.683594 46.570312 C 24.636719 46.386719 24.59375 46.203125 24.558594 46.015625 C 24.59375 46.117188 24.632812 46.21875 24.671875 46.316406 C 24.765625 46.375 24.832031 46.351562 24.863281 46.242188 C 24.847656 46.144531 24.828125 46.046875 24.804688 45.949219 C 24.832031 45.925781 24.859375 45.898438 24.878906 45.867188 Z M 24.894531 46.796875 C 24.945312 46.792969 24.988281 46.8125 25.015625 46.851562 C 24.964844 46.871094 24.925781 46.851562 24.894531 46.796875 Z M 23.574219 46.871094 C 23.601562 46.890625 23.617188 46.914062 23.621094 46.945312 C 23.585938 46.933594 23.570312 46.910156 23.574219 46.871094 Z M 23.933594 46.917969 C 23.949219 46.917969 23.964844 46.917969 23.980469 46.917969 C 23.984375 47.050781 23.96875 47.050781 23.933594 46.917969 Z M 23.621094 46.945312 C 23.644531 46.960938 23.652344 46.980469 23.640625 47.007812 C 23.628906 46.988281 23.621094 46.96875 23.621094 46.945312 Z M 24.386719 47.113281 C 24.417969 47.164062 24.449219 47.21875 24.476562 47.277344 C 24.449219 47.289062 24.425781 47.304688 24.40625 47.320312 C 24.375 47.253906 24.367188 47.183594 24.386719 47.113281 Z M 24.039062 47.546875 C 24.019531 47.546875 24 47.546875 23.980469 47.546875 C 23.960938 47.4375 23.980469 47.4375 24.039062 47.546875 Z M 24.625 47.503906 C 24.644531 47.515625 24.660156 47.527344 24.675781 47.546875 C 24.730469 47.667969 24.785156 47.785156 24.851562 47.898438 C 24.789062 47.890625 24.730469 47.871094 24.671875 47.847656 C 24.632812 47.761719 24.601562 47.671875 24.578125 47.578125 C 24.589844 47.546875 24.605469 47.523438 24.625 47.503906 Z M 25.226562 48.042969 C 25.191406 48.042969 25.179688 48.027344 25.1875 47.996094 C 25.203125 48.011719 25.214844 48.023438 25.226562 48.042969 Z M 24.878906 48.117188 C 24.914062 48.128906 24.949219 48.132812 24.984375 48.132812 C 24.984375 48.15625 24.984375 48.183594 24.984375 48.207031 C 24.921875 48.207031 24.886719 48.179688 24.878906 48.117188 Z M 26.84375 48.476562 C 26.921875 48.511719 26.984375 48.566406 27.023438 48.640625 C 26.992188 48.664062 26.957031 48.683594 26.921875 48.703125 C 26.902344 48.742188 26.902344 48.777344 26.921875 48.816406 C 26.808594 48.828125 26.695312 48.816406 26.589844 48.777344 C 26.574219 48.765625 26.570312 48.75 26.582031 48.730469 C 26.679688 48.777344 26.773438 48.769531 26.867188 48.71875 C 26.882812 48.691406 26.890625 48.664062 26.890625 48.636719 C 26.882812 48.578125 26.867188 48.527344 26.84375 48.476562 Z M 25.660156 48.613281 C 25.6875 48.59375 25.71875 48.59375 25.75 48.605469 C 25.769531 48.621094 25.769531 48.640625 25.75 48.65625 C 25.71875 48.640625 25.691406 48.625 25.660156 48.613281 Z M 26.125 48.640625 C 26.164062 48.652344 26.207031 48.664062 26.246094 48.679688 C 26.210938 48.707031 26.175781 48.707031 26.140625 48.6875 C 26.128906 48.671875 26.125 48.660156 26.125 48.640625 Z M 26.125 48.640625 "/>
</g>
<mask id="mask1">
  <g filter="url(#alpha)">
<rect x="0" y="0" width="50" height="50" style="fill:rgb(0%,0%,0%);fill-opacity:0.996078;stroke:none;"/>
  </g>
</mask>
<clipPath id="clip2">
  <rect width="50" height="50"/>
</clipPath>
<g id="surface9" clip-path="url(#clip2)">
<path style=" stroke:none;fill-rule:evenodd;fill:rgb(62.352941%,56.470588%,58.431373%);fill-opacity:1;" d="M 34.570312 4.253906 C 34.542969 4.304688 34.53125 4.359375 34.527344 4.417969 C 34.507812 4.46875 34.484375 4.519531 34.449219 4.566406 C 34.371094 4.515625 34.296875 4.460938 34.226562 4.402344 C 34.167969 4.296875 34.101562 4.199219 34.03125 4.101562 C 34.035156 4.089844 34.027344 4.078125 34.015625 4.074219 C 34.015625 4.0625 34.011719 4.058594 34 4.058594 C 34.003906 4.042969 34 4.03125 33.984375 4.027344 C 33.832031 3.765625 33.691406 3.496094 33.558594 3.21875 C 33.363281 2.785156 33.164062 2.351562 32.964844 1.921875 C 33.039062 1.867188 33.121094 1.824219 33.207031 1.785156 C 33.265625 1.761719 33.324219 1.757812 33.386719 1.769531 C 33.402344 1.808594 33.417969 1.847656 33.4375 1.882812 C 33.503906 1.949219 33.558594 2.023438 33.601562 2.109375 C 33.675781 2.390625 33.769531 2.667969 33.886719 2.933594 C 34.113281 3.375 34.339844 3.816406 34.570312 4.253906 Z M 34.570312 4.253906 "/>
</g>
<mask id="mask2">
  <g filter="url(#alpha)">
<rect x="0" y="0" width="50" height="50" style="fill:rgb(0%,0%,0%);fill-opacity:0.866667;stroke:none;"/>
  </g>
</mask>
<clipPath id="clip3">
  <rect width="50" height="50"/>
</clipPath>
<g id="surface12" clip-path="url(#clip3)">
<path style=" stroke:none;fill-rule:evenodd;fill:rgb(97.254902%,97.254902%,97.254902%);fill-opacity:1;" d="M 32.980469 3.996094 C 32.960938 4.082031 32.945312 4.167969 32.929688 4.253906 C 32.878906 4.796875 32.839844 5.34375 32.808594 5.886719 C 32.785156 6.003906 32.746094 6.113281 32.695312 6.21875 C 32.742188 6 32.773438 5.78125 32.792969 5.558594 C 32.8125 5.171875 32.820312 4.789062 32.824219 4.402344 C 32.832031 4.273438 32.867188 4.15625 32.929688 4.042969 C 32.945312 4.023438 32.960938 4.007812 32.980469 3.996094 Z M 32.980469 3.996094 "/>
</g>
<mask id="mask3">
  <g filter="url(#alpha)">
<rect x="0" y="0" width="50" height="50" style="fill:rgb(0%,0%,0%);fill-opacity:0.831373;stroke:none;"/>
  </g>
</mask>
<clipPath id="clip4">
  <rect width="50" height="50"/>
</clipPath>
<g id="surface15" clip-path="url(#clip4)">
<path style=" stroke:none;fill-rule:evenodd;fill:rgb(97.254902%,97.254902%,97.254902%);fill-opacity:1;" d="M 36.191406 4.042969 C 36.230469 4.042969 36.261719 4.058594 36.289062 4.089844 C 36.398438 4.257812 36.515625 4.421875 36.640625 4.582031 C 36.582031 4.609375 36.535156 4.59375 36.5 4.539062 C 36.460938 4.421875 36.402344 4.324219 36.320312 4.238281 C 36.304688 4.152344 36.261719 4.085938 36.191406 4.042969 Z M 36.191406 4.042969 "/>
</g>
<mask id="mask4">
  <g filter="url(#alpha)">
<rect x="0" y="0" width="50" height="50" style="fill:rgb(0%,0%,0%);fill-opacity:0.996078;stroke:none;"/>
  </g>
</mask>
<clipPath id="clip5">
  <rect width="50" height="50"/>
</clipPath>
<g id="surface18" clip-path="url(#clip5)">
<path style=" stroke:none;fill-rule:evenodd;fill:rgb(99.607843%,99.607843%,99.607843%);fill-opacity:1;" d="M 34.464844 6.144531 C 34.453125 6.160156 34.445312 6.179688 34.449219 6.203125 C 34.4375 6.203125 34.421875 6.203125 34.40625 6.203125 C 34.304688 6.179688 34.207031 6.144531 34.113281 6.097656 C 34.011719 6.136719 33.992188 6.199219 34.0625 6.285156 C 34.15625 6.339844 34.257812 6.382812 34.359375 6.414062 C 34.394531 6.496094 34.433594 6.574219 34.472656 6.652344 C 34.75 6.988281 34.855469 7.375 34.789062 7.808594 C 34.777344 7.910156 34.757812 8.011719 34.726562 8.109375 C 34.628906 8.378906 34.519531 8.644531 34.398438 8.902344 C 34.300781 9.019531 34.21875 9.144531 34.144531 9.277344 C 34.117188 9.347656 34.117188 9.417969 34.136719 9.488281 C 34.199219 9.53125 34.253906 9.527344 34.308594 9.472656 C 34.308594 9.414062 34.324219 9.359375 34.351562 9.308594 C 34.671875 8.882812 34.878906 8.40625 34.984375 7.882812 C 34.992188 7.691406 34.992188 7.503906 34.984375 7.3125 C 34.957031 7.070312 34.863281 6.855469 34.714844 6.667969 C 34.703125 6.65625 34.707031 6.644531 34.722656 6.636719 C 34.75 6.652344 34.777344 6.667969 34.804688 6.683594 C 35.066406 7.148438 35.3125 7.625 35.546875 8.109375 C 35.507812 8.125 35.476562 8.148438 35.449219 8.183594 C 35.449219 8.527344 35.386719 8.855469 35.253906 9.171875 C 35.144531 9.46875 35.003906 9.75 34.832031 10.011719 C 34.667969 10.179688 34.503906 10.34375 34.339844 10.507812 C 34.195312 10.714844 34.046875 10.917969 33.902344 11.125 C 33.847656 11.195312 33.785156 11.261719 33.714844 11.320312 C 33.707031 11.320312 33.699219 11.324219 33.699219 11.332031 C 31.753906 12.871094 29.6875 14.234375 27.503906 15.429688 C 27.492188 15.425781 27.480469 15.429688 27.476562 15.445312 C 27.097656 15.570312 26.714844 15.667969 26.320312 15.738281 C 26.160156 15.75 26 15.742188 25.839844 15.722656 C 25.808594 15.660156 25.773438 15.601562 25.734375 15.550781 C 25.738281 15.535156 25.734375 15.523438 25.71875 15.519531 C 25.71875 15.507812 25.714844 15.503906 25.703125 15.503906 C 25.707031 15.488281 25.703125 15.480469 25.691406 15.472656 C 25.691406 15.449219 25.679688 15.4375 25.660156 15.429688 C 25.660156 15.40625 25.652344 15.390625 25.628906 15.382812 C 25.585938 15.300781 25.53125 15.226562 25.464844 15.160156 C 25.464844 15.136719 25.457031 15.121094 25.433594 15.113281 C 25.433594 15.105469 25.429688 15.097656 25.421875 15.097656 C 25.421875 15.085938 25.417969 15.074219 25.40625 15.070312 C 25.40625 15.058594 25.398438 15.054688 25.390625 15.054688 C 25.164062 14.714844 24.933594 14.378906 24.691406 14.050781 C 24.652344 14.011719 24.605469 13.996094 24.550781 13.996094 C 24.089844 13.4375 23.574219 12.941406 23.003906 12.503906 C 23.078125 12.492188 23.152344 12.484375 23.230469 12.488281 C 23.761719 12.515625 24.289062 12.542969 24.820312 12.578125 C 25.484375 12.582031 26.144531 12.535156 26.800781 12.4375 C 27.132812 12.355469 27.46875 12.273438 27.804688 12.195312 C 28.304688 12.074219 28.761719 11.859375 29.171875 11.550781 C 29.675781 11.15625 30.152344 10.730469 30.601562 10.269531 C 30.777344 10.027344 30.945312 9.78125 31.113281 9.535156 C 31.304688 9.355469 31.480469 9.167969 31.636719 8.964844 C 31.851562 8.597656 32.070312 8.238281 32.296875 7.882812 C 32.398438 7.699219 32.472656 7.503906 32.523438 7.296875 C 32.679688 7.101562 32.796875 6.882812 32.867188 6.636719 C 32.921875 6.40625 32.964844 6.171875 32.988281 5.933594 C 33.0625 5.730469 33.109375 5.519531 33.136719 5.304688 C 33.144531 5.070312 33.136719 4.835938 33.117188 4.605469 C 33.121094 4.539062 33.125 4.46875 33.128906 4.402344 C 33.253906 4.3125 33.390625 4.292969 33.535156 4.335938 C 33.65625 4.488281 33.78125 4.640625 33.902344 4.792969 C 34.035156 5.050781 34.113281 5.328125 34.128906 5.617188 C 34.132812 5.75 34.136719 5.878906 34.144531 6.007812 C 34.199219 6.082031 34.257812 6.085938 34.324219 6.023438 C 34.339844 5.898438 34.351562 5.773438 34.359375 5.648438 C 34.382812 5.667969 34.40625 5.679688 34.4375 5.679688 C 34.4375 5.765625 34.484375 5.816406 34.570312 5.828125 C 34.515625 5.925781 34.480469 6.03125 34.464844 6.144531 Z M 34.464844 6.144531 "/>
</g>
<mask id="mask5">
  <g filter="url(#alpha)">
<rect x="0" y="0" width="50" height="50" style="fill:rgb(0%,0%,0%);fill-opacity:0.768627;stroke:none;"/>
  </g>
</mask>
<clipPath id="clip6">
  <rect width="50" height="50"/>
</clipPath>
<g id="surface21" clip-path="url(#clip6)">
<path style=" stroke:none;fill-rule:evenodd;fill:rgb(95.294118%,95.294118%,95.294118%);fill-opacity:1;" d="M 36.804688 4.792969 C 36.859375 4.839844 36.910156 4.886719 36.957031 4.941406 C 36.90625 4.933594 36.855469 4.914062 36.8125 4.882812 C 36.804688 4.851562 36.804688 4.824219 36.804688 4.792969 Z M 36.804688 4.792969 "/>
</g>
<mask id="mask6">
  <g filter="url(#alpha)">
<rect x="0" y="0" width="50" height="50" style="fill:rgb(0%,0%,0%);fill-opacity:0.996078;stroke:none;"/>
  </g>
</mask>
<clipPath id="clip7">
  <rect width="50" height="50"/>
</clipPath>
<g id="surface24" clip-path="url(#clip7)">
<path style=" stroke:none;fill-rule:evenodd;fill:rgb(62.352941%,56.470588%,58.431373%);fill-opacity:1;" d="M 35.261719 7.058594 C 35.351562 7.136719 35.4375 7.226562 35.515625 7.320312 C 35.621094 7.40625 35.742188 7.441406 35.875 7.433594 C 35.960938 7.433594 36.046875 7.425781 36.132812 7.402344 C 36.132812 7.492188 36.15625 7.578125 36.199219 7.660156 C 36.402344 7.867188 36.578125 8.097656 36.722656 8.347656 C 36.800781 8.542969 36.757812 8.707031 36.597656 8.835938 C 36.503906 8.90625 36.40625 8.960938 36.296875 9 C 36.203125 9.03125 36.140625 9 36.101562 8.917969 C 36.105469 8.902344 36.097656 8.894531 36.085938 8.886719 C 36.089844 8.875 36.082031 8.863281 36.070312 8.859375 C 36.074219 8.84375 36.070312 8.832031 36.054688 8.828125 C 36.058594 8.8125 36.054688 8.804688 36.042969 8.796875 C 36.042969 8.785156 36.039062 8.773438 36.027344 8.769531 C 36.027344 8.753906 36.023438 8.742188 36.011719 8.738281 C 36.011719 8.722656 36.007812 8.714844 35.996094 8.707031 C 36 8.695312 35.992188 8.683594 35.980469 8.679688 C 35.976562 8.648438 35.964844 8.625 35.949219 8.601562 C 35.890625 8.484375 35.851562 8.359375 35.839844 8.226562 C 35.625 7.847656 35.433594 7.460938 35.261719 7.058594 Z M 35.261719 7.058594 "/>
</g>
<mask id="mask7">
  <g filter="url(#alpha)">
<rect x="0" y="0" width="50" height="50" style="fill:rgb(0%,0%,0%);fill-opacity:0.666667;stroke:none;"/>
  </g>
</mask>
<clipPath id="clip8">
  <rect width="50" height="50"/>
</clipPath>
<g id="surface27" clip-path="url(#clip8)">
<path style=" stroke:none;fill-rule:evenodd;fill:rgb(95.294118%,95.294118%,95.294118%);fill-opacity:1;" d="M 36.609375 7.148438 C 36.574219 7.253906 36.507812 7.332031 36.417969 7.386719 C 36.460938 7.289062 36.523438 7.210938 36.609375 7.148438 Z M 36.609375 7.148438 "/>
</g>
<mask id="mask8">
  <g filter="url(#alpha)">
<rect x="0" y="0" width="50" height="50" style="fill:rgb(0%,0%,0%);fill-opacity:0.901961;stroke:none;"/>
  </g>
</mask>
<clipPath id="clip9">
  <rect width="50" height="50"/>
</clipPath>
<g id="surface30" clip-path="url(#clip9)">
<path style=" stroke:none;fill-rule:evenodd;fill:rgb(65.098039%,22.745098%,17.647059%);fill-opacity:1;" d="M 24.101562 10.570312 C 23.984375 10.445312 23.878906 10.316406 23.777344 10.179688 C 23.667969 9.996094 23.5625 9.8125 23.460938 9.625 C 23.34375 9.519531 23.226562 9.410156 23.117188 9.292969 C 23.003906 9.132812 22.894531 8.964844 22.789062 8.796875 C 22.449219 8.375 22.011719 8.113281 21.476562 8.019531 C 21.570312 7.972656 21.667969 7.945312 21.773438 7.9375 C 22.148438 8.191406 22.523438 8.441406 22.898438 8.6875 C 23.308594 9.308594 23.710938 9.933594 24.101562 10.570312 Z M 24.101562 10.570312 "/>
</g>
<mask id="mask9">
  <g filter="url(#alpha)">
<rect x="0" y="0" width="50" height="50" style="fill:rgb(0%,0%,0%);fill-opacity:0.988235;stroke:none;"/>
  </g>
</mask>
<clipPath id="clip10">
  <rect width="50" height="50"/>
</clipPath>
<g id="surface33" clip-path="url(#clip10)">
<path style=" stroke:none;fill-rule:evenodd;fill:rgb(66.27451%,23.137255%,18.039216%);fill-opacity:1;" d="M 20.46875 9.652344 C 20.347656 9.859375 20.292969 10.085938 20.304688 10.328125 C 20.304688 10.59375 20.347656 10.847656 20.441406 11.09375 C 20.4375 11.398438 20.5 11.6875 20.628906 11.964844 C 20.699219 12.074219 20.800781 12.125 20.933594 12.113281 C 20.902344 12.148438 20.882812 12.191406 20.875 12.242188 C 20.617188 12.421875 20.367188 12.609375 20.125 12.804688 C 19.910156 12.78125 19.695312 12.761719 19.480469 12.742188 C 19.550781 12.296875 19.632812 11.851562 19.726562 11.410156 C 19.894531 10.550781 20.113281 9.703125 20.386719 8.875 C 20.445312 8.703125 20.523438 8.542969 20.621094 8.394531 C 20.898438 8.375 21.132812 8.46875 21.324219 8.679688 C 20.851562 8.839844 20.566406 9.164062 20.46875 9.652344 Z M 20.46875 9.652344 "/>
</g>
<mask id="mask10">
  <g filter="url(#alpha)">
<rect x="0" y="0" width="50" height="50" style="fill:rgb(0%,0%,0%);fill-opacity:0.764706;stroke:none;"/>
  </g>
</mask>
<clipPath id="clip11">
  <rect width="50" height="50"/>
</clipPath>
<g id="surface36" clip-path="url(#clip11)">
<path style=" stroke:none;fill-rule:evenodd;fill:rgb(60%,54.509804%,56.078431%);fill-opacity:1;" d="M 36.402344 9.171875 C 36.371094 9.214844 36.335938 9.25 36.296875 9.277344 C 36.273438 9.265625 36.257812 9.242188 36.25 9.21875 C 36.296875 9.199219 36.347656 9.183594 36.402344 9.171875 Z M 36.402344 9.171875 "/>
</g>
<mask id="mask11">
  <g filter="url(#alpha)">
<rect x="0" y="0" width="50" height="50" style="fill:rgb(0%,0%,0%);fill-opacity:0.952941;stroke:none;"/>
  </g>
</mask>
<clipPath id="clip12">
  <rect width="50" height="50"/>
</clipPath>
<g id="surface39" clip-path="url(#clip12)">
<path style=" stroke:none;fill-rule:evenodd;fill:rgb(96.078431%,95.686275%,95.686275%);fill-opacity:1;" d="M 21.085938 12.429688 C 21.121094 12.425781 21.15625 12.429688 21.191406 12.445312 C 21.238281 12.503906 21.292969 12.554688 21.355469 12.601562 C 21.285156 12.636719 21.226562 12.621094 21.175781 12.5625 C 21.160156 12.542969 21.144531 12.523438 21.128906 12.503906 C 21.117188 12.476562 21.101562 12.453125 21.085938 12.429688 Z M 21.085938 12.429688 "/>
</g>
<mask id="mask12">
  <g filter="url(#alpha)">
<rect x="0" y="0" width="50" height="50" style="fill:rgb(0%,0%,0%);fill-opacity:0.941176;stroke:none;"/>
  </g>
</mask>
<clipPath id="clip13">
  <rect width="50" height="50"/>
</clipPath>
<g id="surface42" clip-path="url(#clip13)">
<path style=" stroke:none;fill-rule:evenodd;fill:rgb(62.745098%,22.745098%,17.647059%);fill-opacity:1;" d="M 21.085938 12.429688 C 21.101562 12.453125 21.117188 12.476562 21.128906 12.503906 C 21.109375 12.515625 21.09375 12.527344 21.085938 12.546875 C 21.046875 12.550781 21.011719 12.539062 20.980469 12.519531 C 21.015625 12.488281 21.050781 12.457031 21.085938 12.429688 Z M 21.085938 12.429688 "/>
</g>
<mask id="mask13">
  <g filter="url(#alpha)">
<rect x="0" y="0" width="50" height="50" style="fill:rgb(0%,0%,0%);fill-opacity:0.92549;stroke:none;"/>
  </g>
</mask>
<clipPath id="clip14">
  <rect width="50" height="50"/>
</clipPath>
<g id="surface45" clip-path="url(#clip14)">
<path style=" stroke:none;fill-rule:evenodd;fill:rgb(98.039216%,98.039216%,98.039216%);fill-opacity:1;" d="M 18.144531 14.933594 C 18.054688 15.1875 17.941406 15.433594 17.808594 15.667969 C 17.597656 15.96875 17.367188 16.25 17.109375 16.507812 C 17.40625 15.949219 17.75 15.425781 18.144531 14.933594 Z M 18.144531 14.933594 "/>
</g>
<mask id="mask14">
  <g filter="url(#alpha)">
<rect x="0" y="0" width="50" height="50" style="fill:rgb(0%,0%,0%);fill-opacity:0.54902;stroke:none;"/>
  </g>
</mask>
<clipPath id="clip15">
  <rect width="50" height="50"/>
</clipPath>
<g id="surface48" clip-path="url(#clip15)">
<path style=" stroke:none;fill-rule:evenodd;fill:rgb(92.156863%,92.156863%,92.156863%);fill-opacity:1;" d="M 26.304688 15.953125 C 26.21875 15.988281 26.128906 16.007812 26.035156 16.015625 C 26.015625 16.007812 26.015625 16 26.035156 15.992188 C 26.125 15.972656 26.214844 15.960938 26.304688 15.953125 Z M 26.304688 15.953125 "/>
</g>
<mask id="mask15">
  <g filter="url(#alpha)">
<rect x="0" y="0" width="50" height="50" style="fill:rgb(0%,0%,0%);fill-opacity:0.996078;stroke:none;"/>
  </g>
</mask>
<clipPath id="clip16">
  <rect width="50" height="50"/>
</clipPath>
<g id="surface51" clip-path="url(#clip16)">
<path style=" stroke:none;fill-rule:evenodd;fill:rgb(99.215686%,99.215686%,99.215686%);fill-opacity:1;" d="M 21.25 23.753906 C 21.265625 23.757812 21.273438 23.753906 21.28125 23.738281 C 21.925781 23.496094 22.5625 23.246094 23.199219 22.988281 C 23.21875 22.992188 23.234375 22.988281 23.246094 22.976562 C 23.5 22.914062 23.753906 22.851562 24.011719 22.789062 C 24.199219 22.726562 24.386719 22.648438 24.566406 22.5625 C 25.015625 22.46875 25.441406 22.308594 25.839844 22.082031 C 25.980469 22.0625 26.121094 22.039062 26.261719 22.007812 C 26.597656 21.90625 26.933594 21.796875 27.265625 21.675781 C 27.5 21.683594 27.734375 21.683594 27.96875 21.675781 C 28.074219 21.648438 28.175781 21.636719 28.277344 21.640625 C 28.367188 21.796875 28.445312 21.957031 28.519531 22.121094 C 28.527344 22.140625 28.527344 22.15625 28.511719 22.171875 C 27.375 23.015625 26.105469 23.539062 24.699219 23.746094 C 24.203125 23.820312 23.703125 23.867188 23.199219 23.890625 C 23.042969 23.886719 22.886719 23.871094 22.734375 23.835938 C 22.46875 23.835938 22.203125 23.835938 21.941406 23.835938 C 21.695312 23.796875 21.453125 23.777344 21.203125 23.777344 C 21.222656 23.773438 21.238281 23.765625 21.25 23.753906 Z M 21.25 23.753906 "/>
</g>
<mask id="mask16">
  <g filter="url(#alpha)">
<rect x="0" y="0" width="50" height="50" style="fill:rgb(0%,0%,0%);fill-opacity:0.878431;stroke:none;"/>
  </g>
</mask>
<clipPath id="clip17">
  <rect width="50" height="50"/>
</clipPath>
<g id="surface54" clip-path="url(#clip17)">
<path style=" stroke:none;fill-rule:evenodd;fill:rgb(96.862745%,96.862745%,96.862745%);fill-opacity:1;" d="M 15.292969 24.039062 C 15.507812 24.574219 15.757812 25.089844 16.050781 25.585938 C 16.164062 25.738281 16.261719 25.898438 16.351562 26.066406 C 16.464844 26.222656 16.585938 26.378906 16.710938 26.53125 C 16.914062 26.757812 17.109375 26.988281 17.304688 27.21875 C 16.699219 26.652344 16.1875 26.011719 15.765625 25.300781 C 15.539062 24.90625 15.382812 24.484375 15.292969 24.039062 Z M 15.292969 24.039062 "/>
</g>
<mask id="mask17">
  <g filter="url(#alpha)">
<rect x="0" y="0" width="50" height="50" style="fill:rgb(0%,0%,0%);fill-opacity:0.717647;stroke:none;"/>
  </g>
</mask>
<clipPath id="clip18">
  <rect width="50" height="50"/>
</clipPath>
<g id="surface57" clip-path="url(#clip18)">
<path style=" stroke:none;fill-rule:evenodd;fill:rgb(92.54902%,92.54902%,92.54902%);fill-opacity:1;" d="M 31.253906 30.117188 C 31.273438 30.160156 31.289062 30.207031 31.300781 30.257812 C 31.296875 30.28125 31.285156 30.296875 31.269531 30.308594 C 31.238281 30.25 31.234375 30.183594 31.253906 30.117188 Z M 31.253906 30.117188 "/>
</g>
<mask id="mask18">
  <g filter="url(#alpha)">
<rect x="0" y="0" width="50" height="50" style="fill:rgb(0%,0%,0%);fill-opacity:0.996078;stroke:none;"/>
  </g>
</mask>
<clipPath id="clip19">
  <rect width="50" height="50"/>
</clipPath>
<g id="surface60" clip-path="url(#clip19)">
<path style=" stroke:none;fill-rule:evenodd;fill:rgb(99.607843%,99.607843%,99.607843%);fill-opacity:1;" d="M 26.679688 32.589844 C 26.734375 32.589844 26.789062 32.589844 26.84375 32.589844 C 26.859375 32.894531 26.863281 33.199219 26.859375 33.503906 C 26.441406 36.234375 26.03125 38.964844 25.628906 41.695312 C 25.6875 41.597656 25.746094 41.503906 25.808594 41.410156 C 25.8125 41.695312 25.789062 41.980469 25.734375 42.257812 C 25.746094 42.292969 25.753906 42.328125 25.765625 42.363281 C 25.734375 42.457031 25.707031 42.546875 25.683594 42.640625 C 25.660156 42.667969 25.636719 42.691406 25.613281 42.714844 C 25.582031 42.605469 25.550781 42.496094 25.515625 42.386719 C 25.445312 42.851562 25.378906 43.316406 25.316406 43.78125 C 25.246094 44.078125 25.167969 44.371094 25.082031 44.667969 C 25.074219 44.707031 25.074219 44.746094 25.089844 44.785156 C 25.074219 44.839844 25.066406 44.898438 25.058594 44.953125 C 24.574219 44.996094 24.089844 45.039062 23.605469 45.085938 C 23.535156 45.089844 23.464844 45.085938 23.394531 45.078125 C 23.378906 45.070312 23.363281 45.058594 23.355469 45.042969 C 23.308594 44.835938 23.28125 44.625 23.265625 44.410156 C 23.292969 43.539062 23.1875 42.683594 22.953125 41.847656 C 22.894531 41.464844 22.820312 41.082031 22.726562 40.707031 C 22.609375 40.367188 22.496094 40.027344 22.390625 39.6875 C 22.390625 39.679688 22.390625 39.675781 22.390625 39.671875 C 22.324219 39.238281 22.25 38.808594 22.164062 38.382812 C 22.167969 38.347656 22.164062 38.316406 22.148438 38.292969 C 22.027344 37.230469 21.890625 36.167969 21.738281 35.109375 C 21.582031 34.394531 21.453125 33.675781 21.355469 32.949219 C 21.640625 33.011719 21.933594 33.066406 22.226562 33.109375 C 22.683594 33.15625 23.140625 33.132812 23.589844 33.035156 C 23.820312 32.976562 24.050781 32.917969 24.28125 32.851562 C 24.613281 32.847656 24.949219 32.84375 25.285156 32.839844 C 25.652344 32.785156 26.019531 32.714844 26.378906 32.628906 C 26.484375 32.617188 26.582031 32.605469 26.679688 32.589844 Z M 26.679688 32.589844 "/>
</g>
<mask id="mask19">
  <g filter="url(#alpha)">
<rect x="0" y="0" width="50" height="50" style="fill:rgb(0%,0%,0%);fill-opacity:0.835294;stroke:none;"/>
  </g>
</mask>
<clipPath id="clip20">
  <rect width="50" height="50"/>
</clipPath>
<g id="surface63" clip-path="url(#clip20)">
<path style=" stroke:none;fill-rule:evenodd;fill:rgb(93.72549%,93.72549%,93.72549%);fill-opacity:1;" d="M 28.164062 36.761719 C 28.195312 36.871094 28.214844 36.988281 28.21875 37.105469 C 28.226562 37.28125 28.226562 37.457031 28.21875 37.632812 C 28.191406 37.757812 28.140625 37.867188 28.058594 37.960938 C 28.15625 37.566406 28.191406 37.167969 28.164062 36.761719 Z M 28.164062 36.761719 "/>
</g>
<mask id="mask20">
  <g filter="url(#alpha)">
<rect x="0" y="0" width="50" height="50" style="fill:rgb(0%,0%,0%);fill-opacity:0.796078;stroke:none;"/>
  </g>
</mask>
<clipPath id="clip21">
  <rect width="50" height="50"/>
</clipPath>
<g id="surface66" clip-path="url(#clip21)">
<path style=" stroke:none;fill-rule:evenodd;fill:rgb(73.333333%,73.333333%,73.333333%);fill-opacity:1;" d="M 23.003906 43.167969 C 23 43.167969 22.996094 43.167969 22.988281 43.167969 C 22.996094 43.132812 22.988281 43.101562 22.976562 43.078125 C 22.980469 43.042969 22.972656 43.011719 22.960938 42.988281 C 22.964844 42.953125 22.960938 42.921875 22.945312 42.898438 C 22.941406 42.871094 22.945312 42.847656 22.953125 42.820312 C 22.980469 42.933594 23 43.050781 23.003906 43.167969 Z M 23.003906 43.167969 "/>
</g>
<mask id="mask21">
  <g filter="url(#alpha)">
<rect x="0" y="0" width="50" height="50" style="fill:rgb(0%,0%,0%);fill-opacity:0.823529;stroke:none;"/>
  </g>
</mask>
<clipPath id="clip22">
  <rect width="50" height="50"/>
</clipPath>
<g id="surface69" clip-path="url(#clip22)">
<path style=" stroke:none;fill-rule:evenodd;fill:rgb(95.294118%,95.294118%,95.294118%);fill-opacity:1;" d="M 28.464844 42.851562 C 27.886719 43.222656 27.304688 43.59375 26.726562 43.960938 C 26.867188 43.820312 27.023438 43.695312 27.191406 43.578125 C 27.621094 43.34375 28.046875 43.101562 28.464844 42.851562 Z M 28.464844 42.851562 "/>
</g>
</defs>
<g id="surface1">
<use xlink:href="#surface6" mask="url(#mask0)"/>
<use xlink:href="#surface9" mask="url(#mask1)"/>
<use xlink:href="#surface12" mask="url(#mask2)"/>
<path style=" stroke:none;fill-rule:evenodd;fill:rgb(98.823529%,98.823529%,98.823529%);fill-opacity:1;" d="M 35.515625 4.011719 C 35.679688 4 35.8125 4.050781 35.921875 4.171875 C 35.820312 4.371094 35.695312 4.554688 35.539062 4.71875 C 35.304688 4.945312 35.078125 5.179688 34.855469 5.414062 C 34.8125 5.4375 34.765625 5.460938 34.722656 5.484375 C 34.679688 5.183594 34.703125 4.890625 34.789062 4.597656 C 34.878906 4.582031 34.921875 4.523438 34.914062 4.433594 C 35.046875 4.347656 35.144531 4.234375 35.214844 4.09375 C 35.3125 4.054688 35.414062 4.027344 35.515625 4.011719 Z M 35.515625 4.011719 "/>
<use xlink:href="#surface15" mask="url(#mask3)"/>
<use xlink:href="#surface18" mask="url(#mask4)"/>
<path style=" stroke:none;fill-rule:evenodd;fill:rgb(98.431373%,98.431373%,98.431373%);fill-opacity:1;" d="M 36.234375 4.539062 C 36.320312 4.589844 36.347656 4.664062 36.320312 4.761719 C 36.246094 4.835938 36.179688 4.917969 36.125 5.003906 C 36.019531 5.1875 35.917969 5.371094 35.824219 5.558594 C 35.667969 5.789062 35.519531 6.023438 35.375 6.261719 C 35.328125 6.292969 35.285156 6.324219 35.238281 6.351562 C 35.222656 6.335938 35.203125 6.316406 35.1875 6.300781 C 35.128906 6.296875 35.074219 6.296875 35.019531 6.300781 C 34.976562 6.246094 34.941406 6.191406 34.910156 6.128906 C 34.863281 6.078125 34.8125 6.046875 34.75 6.023438 C 34.875 5.792969 35.035156 5.589844 35.230469 5.414062 C 35.414062 5.332031 35.59375 5.242188 35.769531 5.144531 C 35.96875 4.972656 36.125 4.773438 36.234375 4.539062 Z M 36.234375 4.539062 "/>
<path style=" stroke:none;fill-rule:evenodd;fill:rgb(93.333333%,93.333333%,93.333333%);fill-opacity:1;" d="M 34.195312 4.65625 C 34.203125 4.644531 34.210938 4.640625 34.226562 4.652344 C 34.273438 4.683594 34.316406 4.722656 34.359375 4.761719 C 34.320312 4.824219 34.289062 4.890625 34.261719 4.957031 C 34.242188 4.855469 34.21875 4.757812 34.195312 4.65625 Z M 34.195312 4.65625 "/>
<use xlink:href="#surface21" mask="url(#mask5)"/>
<path style=" stroke:none;fill-rule:evenodd;fill:rgb(76.078431%,76.078431%,76.078431%);fill-opacity:1;" d="M 36.519531 4.882812 C 36.542969 4.894531 36.558594 4.910156 36.566406 4.933594 C 36.546875 4.972656 36.523438 5.011719 36.5 5.046875 C 36.507812 4.996094 36.515625 4.941406 36.519531 4.882812 Z M 36.519531 4.882812 "/>
<path style=" stroke:none;fill-rule:evenodd;fill:rgb(99.215686%,99.215686%,99.215686%);fill-opacity:1;" d="M 36.714844 5.0625 C 36.734375 5.070312 36.753906 5.082031 36.769531 5.09375 C 36.78125 5.175781 36.828125 5.210938 36.910156 5.207031 C 37.054688 5.390625 37.097656 5.597656 37.039062 5.828125 C 36.945312 6.140625 36.820312 6.441406 36.664062 6.726562 C 36.609375 6.816406 36.539062 6.890625 36.453125 6.953125 C 36.394531 6.914062 36.347656 6.921875 36.304688 6.984375 C 36.296875 7.003906 36.292969 7.023438 36.296875 7.042969 C 36.0625 7.117188 35.828125 7.121094 35.589844 7.058594 C 35.535156 6.96875 35.511719 6.871094 35.515625 6.765625 C 35.519531 6.617188 35.550781 6.472656 35.613281 6.339844 C 35.957031 6.019531 36.269531 5.679688 36.558594 5.316406 C 36.617188 5.238281 36.671875 5.152344 36.714844 5.0625 Z M 36.714844 5.0625 "/>
<path style=" stroke:none;fill-rule:evenodd;fill:rgb(93.333333%,93.333333%,93.333333%);fill-opacity:1;" d="M 34.496094 5.09375 C 34.507812 5.097656 34.515625 5.109375 34.519531 5.121094 C 34.527344 5.214844 34.527344 5.304688 34.519531 5.394531 C 34.507812 5.503906 34.46875 5.511719 34.398438 5.421875 C 34.390625 5.371094 34.394531 5.320312 34.414062 5.273438 C 34.445312 5.214844 34.472656 5.15625 34.496094 5.09375 Z M 34.496094 5.09375 "/>
<path style=" stroke:none;fill-rule:evenodd;fill:rgb(58.039216%,58.039216%,58.039216%);fill-opacity:1;" d="M 34.464844 6.144531 C 34.464844 6.167969 34.464844 6.191406 34.464844 6.21875 C 34.441406 6.222656 34.421875 6.21875 34.40625 6.203125 C 34.421875 6.203125 34.4375 6.203125 34.449219 6.203125 C 34.445312 6.179688 34.453125 6.160156 34.464844 6.144531 Z M 34.464844 6.144531 "/>
<path style=" stroke:none;fill-rule:evenodd;fill:rgb(95.686275%,95.686275%,95.686275%);fill-opacity:1;" d="M 35.199219 6.816406 C 35.167969 6.800781 35.132812 6.785156 35.097656 6.773438 C 35.074219 6.734375 35.046875 6.699219 35.019531 6.660156 C 35.089844 6.636719 35.152344 6.609375 35.214844 6.578125 C 35.222656 6.585938 35.226562 6.59375 35.230469 6.601562 C 35.207031 6.671875 35.195312 6.742188 35.199219 6.816406 Z M 35.199219 6.816406 "/>
<path style=" stroke:none;fill-rule:evenodd;fill:rgb(53.72549%,49.019608%,50.588235%);fill-opacity:1;" d="M 35.097656 6.773438 C 35.132812 6.785156 35.167969 6.800781 35.199219 6.816406 C 35.203125 6.902344 35.222656 6.984375 35.261719 7.058594 C 35.203125 6.964844 35.148438 6.871094 35.097656 6.773438 Z M 35.097656 6.773438 "/>
<path style=" stroke:none;fill-rule:evenodd;fill:rgb(11.372549%,11.372549%,10.980392%);fill-opacity:1;" d="M 33.835938 7.101562 C 33.894531 7.09375 33.941406 7.109375 33.976562 7.148438 C 33.972656 7.300781 34.003906 7.445312 34.070312 7.582031 C 34.152344 7.738281 34.242188 7.886719 34.339844 8.035156 C 34.4375 8.191406 34.492188 8.359375 34.511719 8.542969 C 34.511719 8.601562 34.5 8.65625 34.464844 8.699219 C 34.417969 8.714844 34.371094 8.707031 34.332031 8.679688 C 34.324219 8.542969 34.296875 8.414062 34.25 8.289062 C 34.160156 8.125 34.066406 7.964844 33.964844 7.808594 C 33.839844 7.609375 33.777344 7.394531 33.785156 7.164062 C 33.800781 7.140625 33.816406 7.121094 33.835938 7.101562 Z M 33.835938 7.101562 "/>
<use xlink:href="#surface24" mask="url(#mask6)"/>
<use xlink:href="#surface27" mask="url(#mask7)"/>
<use xlink:href="#surface30" mask="url(#mask8)"/>
<use xlink:href="#surface33" mask="url(#mask9)"/>
<path style=" stroke:none;fill-rule:evenodd;fill:rgb(64.705882%,23.921569%,18.823529%);fill-opacity:1;" d="M 23.050781 10.296875 C 22.890625 9.863281 22.652344 9.480469 22.328125 9.152344 C 22.101562 8.953125 21.835938 8.890625 21.535156 8.957031 C 21.304688 8.992188 21.089844 9.070312 20.890625 9.1875 C 21.140625 8.902344 21.457031 8.796875 21.835938 8.867188 C 22.414062 9.039062 22.800781 9.410156 22.996094 9.984375 C 23.027344 10.085938 23.046875 10.191406 23.050781 10.296875 Z M 23.050781 10.296875 "/>
<path style=" stroke:none;fill-rule:evenodd;fill:rgb(99.215686%,99.215686%,99.215686%);fill-opacity:1;" d="M 23.050781 10.296875 C 23.050781 10.628906 23.050781 10.957031 23.042969 11.289062 C 22.996094 11.464844 22.945312 11.640625 22.886719 11.8125 C 22.859375 11.84375 22.847656 11.878906 22.839844 11.917969 C 22.800781 12 22.765625 12.085938 22.734375 12.171875 C 22.695312 12.203125 22.671875 12.242188 22.660156 12.292969 C 22.210938 12.042969 21.734375 11.9375 21.21875 11.984375 C 21.175781 12 21.136719 12.015625 21.101562 12.039062 C 21.089844 12.039062 21.085938 12.035156 21.085938 12.023438 C 21.09375 11.96875 21.074219 11.925781 21.023438 11.894531 C 20.96875 11.898438 20.914062 11.898438 20.859375 11.894531 C 20.8125 11.859375 20.78125 11.808594 20.761719 11.753906 C 20.730469 11.664062 20.707031 11.574219 20.6875 11.484375 C 20.617188 10.941406 20.601562 10.394531 20.640625 9.847656 C 20.667969 9.605469 20.75 9.386719 20.890625 9.1875 C 21.089844 9.070312 21.304688 8.992188 21.535156 8.957031 C 21.835938 8.890625 22.101562 8.953125 22.328125 9.152344 C 22.652344 9.480469 22.890625 9.863281 23.050781 10.296875 Z M 23.050781 10.296875 "/>
<use xlink:href="#surface36" mask="url(#mask10)"/>
<path style=" stroke:none;fill-rule:evenodd;fill:rgb(65.882353%,22.745098%,17.647059%);fill-opacity:1;" d="M 23.273438 11.933594 C 23.210938 11.917969 23.148438 11.914062 23.078125 11.917969 C 23.132812 11.722656 23.1875 11.527344 23.238281 11.332031 C 23.246094 11.089844 23.253906 10.847656 23.261719 10.605469 C 23.273438 10.308594 23.222656 10.019531 23.117188 9.742188 C 22.824219 9.105469 22.332031 8.738281 21.640625 8.640625 C 21.503906 8.550781 21.375 8.457031 21.25 8.355469 C 21.226562 8.320312 21.210938 8.28125 21.203125 8.234375 C 21.296875 8.210938 21.394531 8.207031 21.488281 8.222656 C 21.953125 8.304688 22.332031 8.53125 22.621094 8.902344 C 22.742188 9.082031 22.863281 9.261719 22.980469 9.445312 C 23.085938 9.546875 23.191406 9.652344 23.296875 9.757812 C 23.5625 10.296875 23.933594 10.753906 24.40625 11.125 C 24.402344 11.183594 24.382812 11.238281 24.347656 11.289062 C 24.222656 11.460938 24.078125 11.617188 23.917969 11.761719 C 23.722656 11.886719 23.507812 11.945312 23.273438 11.933594 Z M 23.273438 11.933594 "/>
<path style=" stroke:none;fill-rule:evenodd;fill:rgb(95.686275%,94.509804%,94.117647%);fill-opacity:1;" d="M 20.46875 9.652344 C 20.425781 9.859375 20.40625 10.066406 20.410156 10.277344 C 20.417969 10.546875 20.425781 10.820312 20.441406 11.09375 C 20.347656 10.847656 20.304688 10.59375 20.304688 10.328125 C 20.292969 10.085938 20.347656 9.859375 20.46875 9.652344 Z M 20.46875 9.652344 "/>
<path style=" stroke:none;fill-rule:evenodd;fill:rgb(11.372549%,11.372549%,10.980392%);fill-opacity:1;" d="M 22.042969 9.789062 C 22.097656 9.785156 22.140625 9.804688 22.171875 9.847656 C 22.261719 10.167969 22.375 10.476562 22.515625 10.777344 C 22.566406 10.894531 22.527344 10.957031 22.40625 10.964844 C 22.382812 10.960938 22.367188 10.945312 22.351562 10.929688 C 22.257812 10.707031 22.167969 10.480469 22.082031 10.253906 C 22.023438 10.117188 21.992188 9.980469 21.992188 9.832031 C 22.007812 9.816406 22.027344 9.800781 22.042969 9.789062 Z M 22.042969 9.789062 "/>
<path style=" stroke:none;fill-rule:evenodd;fill:rgb(10.980392%,10.980392%,10.588235%);fill-opacity:1;" d="M 21.101562 10.011719 C 21.292969 10.070312 21.480469 10.136719 21.667969 10.214844 C 21.738281 10.253906 21.761719 10.3125 21.738281 10.386719 C 21.722656 10.40625 21.707031 10.417969 21.683594 10.425781 C 21.59375 10.4375 21.503906 10.457031 21.414062 10.484375 C 21.390625 10.507812 21.367188 10.53125 21.355469 10.5625 C 21.222656 10.605469 21.171875 10.558594 21.195312 10.417969 C 21.230469 10.371094 21.273438 10.335938 21.324219 10.304688 C 21.253906 10.269531 21.179688 10.25 21.101562 10.246094 C 21.019531 10.167969 21.019531 10.089844 21.101562 10.011719 Z M 21.101562 10.011719 "/>
<path style=" stroke:none;fill-rule:evenodd;fill:rgb(11.764706%,11.764706%,11.372549%);fill-opacity:1;" d="M 22.628906 10.042969 C 22.714844 10.03125 22.765625 10.066406 22.78125 10.148438 C 22.761719 10.203125 22.738281 10.257812 22.71875 10.3125 C 22.660156 10.371094 22.605469 10.371094 22.546875 10.3125 C 22.503906 10.257812 22.5 10.195312 22.53125 10.132812 C 22.5625 10.101562 22.597656 10.070312 22.628906 10.042969 Z M 22.628906 10.042969 "/>
<path style=" stroke:none;fill-rule:evenodd;fill:rgb(11.372549%,11.372549%,10.980392%);fill-opacity:1;" d="M 21.667969 11.230469 C 21.707031 11.226562 21.742188 11.234375 21.773438 11.25 C 21.886719 11.433594 22.046875 11.523438 22.253906 11.519531 C 22.3125 11.5 22.367188 11.46875 22.414062 11.421875 C 22.410156 11.351562 22.445312 11.3125 22.515625 11.304688 C 22.597656 11.324219 22.628906 11.375 22.605469 11.453125 C 22.546875 11.605469 22.433594 11.695312 22.269531 11.714844 C 22.039062 11.734375 21.847656 11.65625 21.691406 11.484375 C 21.660156 11.433594 21.632812 11.386719 21.609375 11.332031 C 21.617188 11.292969 21.636719 11.257812 21.667969 11.230469 Z M 21.667969 11.230469 "/>
<path style=" stroke:none;fill-rule:evenodd;fill:rgb(57.647059%,22.745098%,18.431373%);fill-opacity:1;" d="M 22.886719 11.8125 C 22.886719 11.851562 22.875 11.886719 22.855469 11.917969 C 22.851562 11.917969 22.84375 11.917969 22.839844 11.917969 C 22.847656 11.878906 22.859375 11.84375 22.886719 11.8125 Z M 22.886719 11.8125 "/>
<path style=" stroke:none;fill-rule:evenodd;fill:rgb(71.372549%,71.372549%,71.372549%);fill-opacity:1;" d="M 21.085938 12.023438 C 21.085938 12.035156 21.089844 12.039062 21.101562 12.039062 C 21.0625 12.101562 21.007812 12.125 20.933594 12.113281 C 20.996094 12.101562 21.046875 12.074219 21.085938 12.023438 Z M 21.085938 12.023438 "/>
<use xlink:href="#surface39" mask="url(#mask11)"/>
<use xlink:href="#surface42" mask="url(#mask12)"/>
<path style=" stroke:none;fill-rule:evenodd;fill:rgb(87.843137%,87.843137%,87.843137%);fill-opacity:1;" d="M 21.519531 12.472656 C 21.597656 12.457031 21.65625 12.484375 21.699219 12.554688 C 21.640625 12.535156 21.578125 12.507812 21.519531 12.472656 Z M 21.519531 12.472656 "/>
<path style=" stroke:none;fill-rule:evenodd;fill:rgb(86.27451%,86.27451%,86.27451%);fill-opacity:1;" d="M 21.804688 12.640625 C 21.808594 12.628906 21.816406 12.625 21.828125 12.625 C 21.929688 12.664062 22.035156 12.707031 22.132812 12.75 C 22.117188 12.773438 22.097656 12.777344 22.074219 12.765625 C 21.984375 12.71875 21.894531 12.675781 21.804688 12.640625 Z M 21.804688 12.640625 "/>
<path style=" stroke:none;fill-rule:evenodd;fill:rgb(99.607843%,99.607843%,99.607843%);fill-opacity:1;" d="M 20.214844 13.300781 C 20.238281 13.316406 20.269531 13.328125 20.304688 13.328125 C 20.316406 13.34375 20.332031 13.347656 20.347656 13.34375 C 20.367188 13.367188 20.394531 13.375 20.425781 13.375 C 20.753906 13.511719 21.078125 13.660156 21.398438 13.824219 C 21.578125 14.054688 21.757812 14.292969 21.933594 14.527344 C 22.039062 14.707031 22.132812 14.890625 22.21875 15.085938 C 22.277344 15.324219 22.332031 15.5625 22.382812 15.804688 C 22.417969 16.261719 22.4375 16.722656 22.441406 17.183594 C 22.394531 17.386719 22.308594 17.570312 22.1875 17.738281 C 22.109375 17.882812 22.035156 18.027344 21.960938 18.175781 C 21.796875 18.324219 21.652344 18.496094 21.535156 18.683594 C 21.523438 18.683594 21.519531 18.6875 21.519531 18.699219 C 21.507812 18.703125 21.503906 18.714844 21.503906 18.730469 C 21.496094 18.730469 21.488281 18.734375 21.488281 18.746094 C 21.332031 18.882812 21.175781 19.027344 21.023438 19.171875 C 20.6875 19.449219 20.34375 19.710938 19.988281 19.96875 C 19.855469 20.082031 19.742188 20.214844 19.652344 20.363281 C 19.519531 20.648438 19.449219 20.949219 19.449219 21.265625 C 19.296875 21.773438 19.242188 22.292969 19.292969 22.824219 C 19.304688 23.28125 19.421875 23.707031 19.652344 24.101562 C 19.882812 24.480469 20.113281 24.859375 20.34375 25.238281 C 20.46875 25.410156 20.628906 25.527344 20.820312 25.601562 C 21.152344 25.992188 21.4375 26.417969 21.675781 26.875 C 21.734375 26.992188 21.777344 27.109375 21.804688 27.234375 C 21.800781 27.316406 21.808594 27.394531 21.828125 27.476562 C 21.835938 27.414062 21.835938 27.355469 21.835938 27.296875 C 21.894531 27.433594 21.890625 27.574219 21.828125 27.714844 C 21.808594 27.734375 21.789062 27.753906 21.765625 27.773438 C 21.609375 27.566406 21.421875 27.390625 21.203125 27.242188 C 21.128906 27.1875 21.042969 27.160156 20.949219 27.167969 C 20.910156 27.207031 20.898438 27.253906 20.910156 27.308594 C 21.027344 27.492188 21.152344 27.667969 21.289062 27.835938 C 21.390625 27.945312 21.519531 28.015625 21.667969 28.046875 C 21.875 28.464844 21.75 28.625 21.292969 28.519531 C 21.101562 28.296875 20.921875 28.066406 20.761719 27.820312 C 20.671875 27.714844 20.570312 27.628906 20.453125 27.558594 C 20.371094 27.515625 20.289062 27.503906 20.199219 27.519531 C 20.152344 27.578125 20.132812 27.640625 20.140625 27.714844 C 20.15625 27.90625 20.226562 28.070312 20.355469 28.210938 C 20.59375 28.441406 20.867188 28.609375 21.183594 28.71875 C 21.285156 28.964844 21.203125 29.082031 20.933594 29.074219 C 20.617188 28.734375 20.28125 28.421875 19.929688 28.128906 C 19.878906 28.089844 19.824219 28.0625 19.765625 28.046875 C 19.726562 28.042969 19.699219 28.058594 19.683594 28.089844 C 19.671875 28.242188 19.707031 28.382812 19.785156 28.511719 C 19.988281 28.808594 20.25 29.035156 20.574219 29.191406 C 20.667969 29.230469 20.761719 29.261719 20.859375 29.28125 C 20.9375 29.371094 20.996094 29.46875 21.03125 29.574219 C 21.011719 29.558594 20.984375 29.546875 20.957031 29.546875 C 20.90625 29.570312 20.855469 29.59375 20.800781 29.605469 C 20.742188 29.605469 20.6875 29.589844 20.632812 29.566406 C 20.480469 29.464844 20.324219 29.359375 20.167969 29.253906 C 19.957031 29.144531 19.742188 29.039062 19.523438 28.9375 C 19.078125 28.527344 18.628906 28.121094 18.175781 27.722656 C 17.539062 27.132812 16.96875 26.496094 16.457031 25.808594 C 16.441406 25.78125 16.425781 25.75 16.410156 25.71875 C 16.371094 25.527344 16.320312 25.335938 16.261719 25.148438 C 16.085938 24.742188 15.90625 24.339844 15.722656 23.933594 C 15.585938 23.632812 15.476562 23.324219 15.390625 23.003906 C 15.3125 22.558594 15.289062 22.105469 15.324219 21.65625 C 15.339844 21.628906 15.34375 21.597656 15.339844 21.566406 C 15.519531 20.503906 15.796875 19.46875 16.179688 18.460938 C 16.191406 18.453125 16.195312 18.445312 16.195312 18.429688 C 16.433594 18 16.695312 17.585938 16.980469 17.183594 C 17.660156 16.234375 18.34375 15.285156 19.023438 14.332031 C 19.308594 13.972656 19.609375 13.625 19.929688 13.292969 C 19.953125 13.273438 19.976562 13.261719 20.003906 13.253906 C 20.074219 13.277344 20.144531 13.292969 20.214844 13.300781 Z M 20.214844 13.300781 "/>
<path style=" stroke:none;fill-rule:evenodd;fill:rgb(75.686275%,75.686275%,75.686275%);fill-opacity:1;" d="M 18.59375 14.558594 C 18.601562 14.527344 18.621094 14.503906 18.648438 14.484375 C 18.644531 14.519531 18.628906 14.542969 18.59375 14.558594 Z M 18.59375 14.558594 "/>
<path style=" stroke:none;fill-rule:evenodd;fill:rgb(63.137255%,63.137255%,63.137255%);fill-opacity:1;" d="M 18.59375 14.558594 C 18.574219 14.609375 18.546875 14.652344 18.511719 14.695312 C 18.507812 14.671875 18.511719 14.652344 18.527344 14.632812 C 18.542969 14.601562 18.566406 14.578125 18.59375 14.558594 Z M 18.59375 14.558594 "/>
<use xlink:href="#surface45" mask="url(#mask13)"/>
<use xlink:href="#surface48" mask="url(#mask14)"/>
<path style=" stroke:none;fill-rule:evenodd;fill:rgb(78.823529%,78.823529%,78.823529%);fill-opacity:1;" d="M 22.976562 16.058594 C 22.996094 16.066406 23.003906 16.082031 23.003906 16.105469 C 22.996094 16.140625 22.988281 16.175781 22.980469 16.210938 C 22.976562 16.160156 22.972656 16.109375 22.976562 16.058594 Z M 22.976562 16.058594 "/>
<path style=" stroke:none;fill-rule:evenodd;fill:rgb(56.470588%,56.470588%,56.470588%);fill-opacity:1;" d="M 22.675781 16.523438 C 22.6875 16.535156 22.695312 16.550781 22.699219 16.570312 C 22.707031 16.628906 22.707031 16.6875 22.699219 16.75 C 22.6875 16.675781 22.679688 16.597656 22.675781 16.523438 Z M 22.675781 16.523438 "/>
<use xlink:href="#surface51" mask="url(#mask15)"/>
<path style=" stroke:none;fill-rule:evenodd;fill:rgb(11.764706%,11.764706%,11.372549%);fill-opacity:1;" d="M 26.484375 22.316406 C 26.546875 22.300781 26.59375 22.324219 26.628906 22.375 C 26.636719 22.429688 26.636719 22.484375 26.628906 22.539062 C 26.566406 22.601562 26.507812 22.601562 26.449219 22.539062 C 26.4375 22.480469 26.4375 22.417969 26.449219 22.359375 C 26.457031 22.34375 26.46875 22.328125 26.484375 22.316406 Z M 26.484375 22.316406 "/>
<path style=" stroke:none;fill-rule:evenodd;fill:rgb(90.588235%,90.588235%,90.588235%);fill-opacity:1;" d="M 28.585938 22.359375 C 28.621094 22.378906 28.621094 22.398438 28.585938 22.425781 C 28.546875 22.449219 28.507812 22.460938 28.464844 22.457031 C 28.507812 22.425781 28.546875 22.394531 28.585938 22.359375 Z M 28.585938 22.359375 "/>
<path style=" stroke:none;fill-rule:evenodd;fill:rgb(99.607843%,99.607843%,99.607843%);fill-opacity:1;" d="M 28.136719 31.824219 C 28.121094 31.824219 28.109375 31.828125 28.105469 31.839844 C 28.085938 31.835938 28.070312 31.84375 28.058594 31.855469 C 28.046875 31.851562 28.035156 31.859375 28.03125 31.871094 C 28.011719 31.867188 27.996094 31.871094 27.984375 31.886719 C 27.964844 31.882812 27.949219 31.886719 27.941406 31.902344 C 27.925781 31.898438 27.914062 31.902344 27.910156 31.914062 C 27.890625 31.910156 27.875 31.917969 27.867188 31.929688 C 27.59375 32.011719 27.316406 32.078125 27.039062 32.132812 C 26.4375 32.242188 25.832031 32.347656 25.226562 32.449219 C 24.921875 32.507812 24.621094 32.570312 24.324219 32.644531 C 23.375 32.667969 22.425781 32.699219 21.476562 32.742188 C 21.417969 32.738281 21.363281 32.734375 21.308594 32.726562 C 21.265625 32.449219 21.234375 32.167969 21.210938 31.886719 C 21.179688 31.859375 21.148438 31.828125 21.121094 31.796875 C 20.949219 31.160156 20.851562 30.515625 20.820312 29.859375 C 20.917969 29.894531 21 29.875 21.070312 29.808594 C 21.148438 29.804688 21.214844 29.777344 21.273438 29.726562 C 21.261719 29.566406 21.210938 29.421875 21.113281 29.289062 C 21.40625 29.234375 21.515625 29.066406 21.445312 28.78125 C 22.007812 28.738281 22.160156 28.46875 21.894531 27.96875 C 21.949219 27.933594 21.988281 27.882812 22.007812 27.820312 C 22.039062 27.734375 22.054688 27.648438 22.058594 27.558594 C 22.023438 27.210938 21.921875 26.882812 21.753906 26.574219 C 21.480469 26.140625 21.179688 25.722656 20.851562 25.328125 C 20.84375 25.203125 20.84375 25.078125 20.851562 24.953125 C 20.875 24.640625 20.902344 24.324219 20.933594 24.011719 C 20.960938 24.011719 20.984375 24.011719 21.007812 24.011719 C 21.082031 24.035156 21.15625 24.050781 21.234375 24.054688 C 21.238281 24.054688 21.246094 24.054688 21.25 24.054688 C 21.285156 24.070312 21.328125 24.074219 21.371094 24.070312 C 21.710938 24.109375 22.050781 24.109375 22.390625 24.070312 C 22.574219 24.082031 22.757812 24.089844 22.945312 24.09375 C 23.480469 24.199219 24.023438 24.21875 24.566406 24.152344 C 25.023438 24.074219 25.472656 23.96875 25.914062 23.835938 C 26.207031 23.695312 26.507812 23.570312 26.816406 23.460938 C 27.226562 23.234375 27.644531 23.007812 28.058594 22.789062 C 28.265625 22.703125 28.472656 22.640625 28.691406 22.601562 C 28.777344 23.03125 28.914062 23.445312 29.101562 23.84375 C 29.164062 24.035156 29.222656 24.226562 29.28125 24.414062 C 29.386719 24.65625 29.492188 24.894531 29.597656 25.136719 C 29.730469 25.546875 29.855469 25.964844 29.972656 26.378906 C 29.984375 26.558594 30.007812 26.734375 30.046875 26.90625 C 30.230469 27.320312 30.355469 27.75 30.421875 28.195312 C 30.660156 28.851562 30.855469 29.515625 31 30.199219 C 30.992188 30.253906 30.972656 30.308594 30.941406 30.355469 C 30.867188 30.367188 30.792969 30.375 30.714844 30.378906 C 30.691406 30.398438 30.667969 30.421875 30.65625 30.453125 C 30.15625 30.746094 29.664062 31.039062 29.171875 31.339844 C 28.832031 31.515625 28.488281 31.679688 28.136719 31.824219 Z M 22.390625 24.070312 C 22.050781 24.109375 21.710938 24.109375 21.371094 24.070312 C 21.601562 24.074219 21.832031 24.0625 22.058594 24.039062 C 22.167969 24.050781 22.28125 24.058594 22.390625 24.070312 Z M 22.390625 24.070312 "/>
<path style=" stroke:none;fill-rule:evenodd;fill:rgb(87.843137%,87.843137%,87.843137%);fill-opacity:1;" d="M 15.382812 23.621094 C 15.539062 23.941406 15.664062 24.277344 15.75 24.625 C 15.601562 24.300781 15.476562 23.964844 15.382812 23.621094 Z M 15.382812 23.621094 "/>
<use xlink:href="#surface54" mask="url(#mask16)"/>
<path style=" stroke:none;fill-rule:evenodd;fill:rgb(46.27451%,46.27451%,46.27451%);fill-opacity:1;" d="M 15.804688 24.714844 C 15.828125 24.738281 15.839844 24.769531 15.839844 24.804688 C 15.816406 24.78125 15.804688 24.75 15.804688 24.714844 Z M 15.804688 24.714844 "/>
<path style=" stroke:none;fill-rule:evenodd;fill:rgb(53.72549%,53.72549%,53.72549%);fill-opacity:1;" d="M 15.925781 24.953125 C 15.957031 24.984375 15.976562 25.015625 15.976562 25.058594 C 15.949219 25.027344 15.933594 24.992188 15.925781 24.953125 Z M 15.925781 24.953125 "/>
<path style=" stroke:none;fill-rule:evenodd;fill:rgb(95.686275%,95.686275%,95.686275%);fill-opacity:1;" d="M 20.347656 27.746094 C 20.414062 27.777344 20.46875 27.816406 20.523438 27.867188 C 20.636719 28.007812 20.738281 28.160156 20.820312 28.316406 C 20.621094 28.199219 20.464844 28.039062 20.355469 27.835938 C 20.347656 27.804688 20.347656 27.777344 20.347656 27.746094 Z M 20.347656 27.746094 "/>
<path style=" stroke:none;fill-rule:evenodd;fill:rgb(91.764706%,91.764706%,91.764706%);fill-opacity:1;" d="M 20.003906 28.449219 C 20.136719 28.574219 20.265625 28.703125 20.394531 28.832031 C 20.355469 28.820312 20.324219 28.800781 20.289062 28.773438 C 20.179688 28.675781 20.085938 28.570312 20.003906 28.449219 Z M 20.003906 28.449219 "/>
<use xlink:href="#surface57" mask="url(#mask17)"/>
<path style=" stroke:none;fill-rule:evenodd;fill:rgb(99.607843%,99.607843%,99.607843%);fill-opacity:1;" d="M 31.03125 30.730469 C 31.027344 30.75 31.03125 30.765625 31.046875 30.777344 C 31.109375 31.035156 31.179688 31.289062 31.253906 31.539062 C 31.25 31.566406 31.257812 31.585938 31.269531 31.601562 C 31.566406 32.84375 31.828125 34.09375 32.050781 35.351562 C 32.046875 35.382812 32.050781 35.414062 32.066406 35.441406 C 32.125 35.945312 32.1875 36.453125 32.253906 36.957031 C 32.277344 37.84375 32.167969 38.714844 31.921875 39.566406 C 31.773438 40.042969 31.546875 40.476562 31.25 40.871094 C 30.84375 41.308594 30.378906 41.664062 29.84375 41.929688 C 29.554688 42.03125 29.269531 42.148438 28.992188 42.273438 C 28.777344 42.386719 28.574219 42.511719 28.375 42.648438 C 27.957031 42.832031 27.554688 43.046875 27.175781 43.292969 C 27.105469 43.347656 27.042969 43.402344 26.980469 43.460938 C 26.75 43.59375 26.527344 43.734375 26.3125 43.886719 C 26.289062 43.878906 26.269531 43.871094 26.246094 43.863281 C 26.21875 43.816406 26.191406 43.769531 26.164062 43.722656 C 26.160156 43.421875 26.105469 43.132812 25.996094 42.851562 C 25.976562 42.804688 25.945312 42.765625 25.90625 42.730469 C 25.894531 42.710938 25.886719 42.6875 25.886719 42.664062 C 25.996094 42.300781 26.09375 41.933594 26.175781 41.5625 C 26.425781 41.148438 26.6875 40.742188 26.957031 40.347656 C 27.121094 40.003906 27.296875 39.667969 27.484375 39.339844 C 27.714844 38.980469 27.960938 38.625 28.21875 38.277344 C 28.46875 37.742188 28.558594 37.183594 28.488281 36.597656 C 28.417969 36.148438 28.304688 35.714844 28.144531 35.292969 C 27.851562 34.550781 27.550781 33.816406 27.242188 33.085938 C 27.171875 32.902344 27.128906 32.710938 27.113281 32.515625 C 27.132812 32.507812 27.148438 32.5 27.160156 32.484375 C 27.175781 32.488281 27.183594 32.484375 27.191406 32.472656 C 27.210938 32.472656 27.222656 32.46875 27.234375 32.457031 C 27.59375 32.328125 27.945312 32.179688 28.285156 32.011719 C 29.066406 31.753906 29.824219 31.425781 30.550781 31.039062 C 30.699219 30.941406 30.839844 30.832031 30.96875 30.714844 C 30.984375 30.71875 31 30.710938 31.007812 30.699219 C 31.011719 30.714844 31.019531 30.722656 31.03125 30.730469 Z M 31.03125 30.730469 "/>
<path style=" stroke:none;fill-rule:evenodd;fill:rgb(91.764706%,91.764706%,91.764706%);fill-opacity:1;" d="M 20.859375 31.601562 C 20.90625 31.742188 20.941406 31.886719 20.972656 32.035156 C 21.003906 32.164062 21.023438 32.292969 21.03125 32.425781 C 20.96875 32.328125 20.925781 32.222656 20.898438 32.109375 C 20.878906 31.941406 20.863281 31.769531 20.859375 31.601562 Z M 20.859375 31.601562 "/>
<path style=" stroke:none;fill-rule:evenodd;fill:rgb(69.019608%,69.019608%,69.019608%);fill-opacity:1;" d="M 25.570312 32.5625 C 25.589844 32.558594 25.609375 32.5625 25.628906 32.566406 C 25.503906 32.613281 25.375 32.632812 25.238281 32.628906 C 25.351562 32.605469 25.460938 32.582031 25.570312 32.5625 Z M 25.570312 32.5625 "/>
<use xlink:href="#surface60" mask="url(#mask18)"/>
<path style=" stroke:none;fill-rule:evenodd;fill:rgb(93.333333%,93.333333%,93.333333%);fill-opacity:1;" d="M 20.875 32.621094 C 20.90625 32.660156 20.941406 32.699219 20.980469 32.734375 C 20.890625 32.75 20.855469 32.710938 20.875 32.621094 Z M 20.875 32.621094 "/>
<path style=" stroke:none;fill-rule:evenodd;fill:rgb(44.705882%,44.705882%,44.705882%);fill-opacity:1;" d="M 22.945312 32.875 C 23.019531 32.875 23.09375 32.875 23.167969 32.882812 C 22.945312 32.90625 22.71875 32.910156 22.496094 32.898438 C 22.648438 32.894531 22.796875 32.886719 22.945312 32.875 Z M 22.945312 32.875 "/>
<use xlink:href="#surface63" mask="url(#mask19)"/>
<path style=" stroke:none;fill-rule:evenodd;fill:rgb(91.372549%,91.372549%,91.372549%);fill-opacity:1;" d="M 27.039062 39.714844 C 26.9375 39.996094 26.804688 40.265625 26.644531 40.527344 C 26.710938 40.3125 26.796875 40.101562 26.898438 39.898438 C 26.949219 39.839844 26.996094 39.777344 27.039062 39.714844 Z M 27.039062 39.714844 "/>
<use xlink:href="#surface66" mask="url(#mask20)"/>
<use xlink:href="#surface69" mask="url(#mask21)"/>
</g>
</svg>
