<?xml version="1.0" encoding="UTF-8"?>
<!DOCTYPE svg PUBLIC "-//W3C//DTD SVG 1.1//EN" "http://www.w3.org/Graphics/SVG/1.1/DTD/svg11.dtd">
<svg xmlns="http://www.w3.org/2000/svg" version="1.1" width="1042px" height="1042px" style="shape-rendering:geometricPrecision; text-rendering:geometricPrecision; image-rendering:optimizeQuality; fill-rule:evenodd; clip-rule:evenodd" xmlns:xlink="http://www.w3.org/1999/xlink">
<g><path style="opacity:0.963" fill="#1b1b1a" d="M 801.5,43.5 C 822.032,60.188 841.865,77.8546 861,96.5C 874.017,114.553 886.517,132.886 898.5,151.5C 933.771,208.602 947.271,270.602 939,337.5C 936.461,352.526 933.795,367.526 931,382.5C 900.847,470.63 847.347,540.797 770.5,593C 759.29,605.604 745.957,615.271 730.5,622C 707.588,631.082 684.921,640.749 662.5,651C 649.607,655.816 636.273,658.483 622.5,659C 616.888,661.139 611.554,663.806 606.5,667C 624.157,685.677 637.324,707.177 646,731.5C 648.201,740.386 648.868,749.386 648,758.5C 646.149,768.055 643.482,777.389 640,786.5C 637.824,807.632 643.49,826.298 657,842.5C 690.774,878.289 726.941,911.122 765.5,941C 795.967,954.044 827.467,963.877 860,970.5C 863.471,969.545 866.971,969.378 870.5,970C 872.68,972.418 873.013,975.084 871.5,978C 854.143,983.105 836.476,986.605 818.5,988.5C 814.555,987.732 810.555,987.232 806.5,987C 794.504,983.336 782.504,979.67 770.5,976C 749.77,973.825 729.103,971.159 708.5,968C 691.632,962.933 674.965,957.266 658.5,951C 651.14,948.785 643.64,947.285 636,946.5C 632.183,946.656 628.683,947.822 625.5,950C 614.156,958.009 602.156,965.009 589.5,971C 580.087,982.402 568.42,990.735 554.5,996C 527.415,1004.24 499.748,1009.57 471.5,1012C 430.098,1015.67 388.765,1015.01 347.5,1010C 286.409,1003.11 233.076,979.441 187.5,939C 168.684,921.182 154.184,900.348 144,876.5C 140.554,867.049 137.887,857.382 136,847.5C 131.172,808.04 125.506,768.706 119,729.5C 117.639,710.052 119.973,691.052 126,672.5C 126.85,663.977 128.017,655.644 129.5,647.5C 131.261,642.769 132.261,637.769 132.5,632.5C 136.234,621.684 140.567,611.017 145.5,600.5C 155.675,579.485 170.675,562.652 190.5,550C 204.042,542.729 217.708,535.729 231.5,529C 242.141,524.972 253.141,522.805 264.5,522.5C 276.34,523.001 288.173,523.667 300,524.5C 304.015,524.499 307.849,524.165 311.5,523.5C 320.695,524.193 329.862,525.193 339,526.5C 339.5,526.167 340,525.833 340.5,525.5C 328.356,501.882 319.023,477.216 312.5,451.5C 289.635,367.626 297.135,286.626 335,208.5C 337.126,201.245 338.96,193.911 340.5,186.5C 342.987,175.861 347.487,166.194 354,157.5C 371.704,136.962 390.871,117.962 411.5,100.5C 438.34,72.2235 469.673,50.0568 505.5,34C 518.808,28.171 532.142,22.671 545.5,17.5C 559.821,12.4195 574.488,8.58621 589.5,6C 602.047,5.30517 614.547,5.80517 627,7.5C 642.229,6.07498 657.395,6.40831 672.5,8.5C 695.411,4.4883 717.744,6.65496 739.5,15C 760.582,23.7095 781.249,33.2095 801.5,43.5 Z M 729.5,30.5 C 694.36,26.4849 659.36,22.4849 624.5,18.5C 638.688,19.7112 652.855,19.3779 667,17.5C 688.503,19.233 709.337,23.5663 729.5,30.5 Z M 908.5,203.5 C 910.553,209.235 912.053,215.235 913,221.5C 917.176,251.579 921.843,281.579 927,311.5C 930.409,352.875 920.575,390.542 897.5,424.5C 905.503,369.295 910.17,313.795 911.5,258C 910.973,239.797 909.973,221.63 908.5,203.5 Z M 628.5,714.5 C 633.217,721.816 636.05,729.816 637,738.5C 633.879,731.928 631.045,725.261 628.5,718.5C 628.5,717.167 628.5,715.833 628.5,714.5 Z M 629.5,750.5 C 630.942,754.775 631.942,759.275 632.5,764C 631.594,769.814 630.761,775.647 630,781.5C 619.368,805.242 621.701,827.575 637,848.5C 651.331,868.837 667.831,887.337 686.5,904C 708.311,921.44 731.977,936.106 757.5,948C 765.946,955.111 774.946,961.445 784.5,967C 781.424,967.086 778.424,966.586 775.5,965.5C 744.129,950.65 714.129,933.483 685.5,914C 665.413,899.914 647.913,883.081 633,863.5C 620.558,843.789 616.891,822.455 622,799.5C 624.697,783.184 627.197,766.851 629.5,750.5 Z M 144.5,834.5 C 157.156,867.162 175.823,895.829 200.5,920.5C 215.296,940.125 233.629,955.625 255.5,967C 261.414,969.802 267.414,972.302 273.5,974.5C 285.227,980.696 297.227,986.363 309.5,991.5C 259.425,980.555 216.925,956.555 182,919.5C 161.359,894.874 148.859,866.54 144.5,834.5 Z M 651.5,851.5 C 652.906,851.973 653.573,852.973 653.5,854.5C 652.094,854.027 651.427,853.027 651.5,851.5 Z M 654.5,855.5 C 673.588,874.925 693.255,893.592 713.5,911.5C 689.966,896.968 670.3,878.301 654.5,855.5 Z M 713.5,911.5 C 715.027,911.427 716.027,912.094 716.5,913.5C 714.973,913.573 713.973,912.906 713.5,911.5 Z M 681.5,946.5 C 710.678,950.601 739.345,956.601 767.5,964.5C 737.611,963.723 708.944,957.723 681.5,946.5 Z M 523.5,985.5 C 470.181,1006.41 415.514,1010.24 359.5,997C 350.844,995.167 342.511,992.667 334.5,989.5C 397.702,997.251 460.702,995.917 523.5,985.5 Z"/></g>
<g><path style="opacity:0.933" fill="#e4e4e4" d="M 545.5,17.5 C 532.142,22.671 518.808,28.171 505.5,34C 469.673,50.0568 438.34,72.2235 411.5,100.5C 441.173,48.9803 485.84,21.3136 545.5,17.5 Z"/></g>
<g><path style="opacity:1" fill="#e7e7e7" d="M 624.5,18.5 C 659.36,22.4849 694.36,26.4849 729.5,30.5C 790.517,49.9165 839.684,85.5832 877,137.5C 886.175,153.181 894.842,169.181 903,185.5C 905.715,191.254 907.548,197.254 908.5,203.5C 909.973,221.63 910.973,239.797 911.5,258C 910.17,313.795 905.503,369.295 897.5,424.5C 886.537,453.435 871.704,480.102 853,504.5C 833.213,522.653 813.713,541.153 794.5,560C 783.206,568.958 772.206,578.291 761.5,588C 738.987,603.259 714.987,615.926 689.5,626C 667.182,632.126 645.182,639.126 623.5,647C 614.151,648.517 604.984,650.684 596,653.5C 573.099,622.933 545.932,596.766 514.5,575C 492.062,558.776 468.062,545.109 442.5,534C 413.903,522.238 384.403,519.071 354,524.5C 352.833,524.167 351.667,523.833 350.5,523.5C 310.024,444.667 299.524,362.001 319,275.5C 339.458,205.068 377.625,146.235 433.5,99C 483.238,56.6133 540.571,29.9466 605.5,19C 611.825,18.5005 618.158,18.3338 624.5,18.5 Z"/></g>
<g><path style="opacity:0.929" fill="#e4e4e4" d="M 801.5,43.5 C 846.331,58.83 876.831,88.83 893,133.5C 895.143,139.428 896.977,145.428 898.5,151.5C 886.517,132.886 874.017,114.553 861,96.5C 841.865,77.8546 822.032,60.188 801.5,43.5 Z"/></g>
<g><path style="opacity:0.972" fill="#e6e6e6" d="M 340.5,186.5 C 338.96,193.911 337.126,201.245 335,208.5C 297.135,286.626 289.635,367.626 312.5,451.5C 300.226,425.943 288.726,399.943 278,373.5C 266.073,331.583 270.739,291.583 292,253.5C 305.74,229.331 321.906,206.997 340.5,186.5 Z"/></g>
<g><path style="opacity:0.656" fill="#c9c9c9" d="M 264.5,522.5 C 269.155,521.834 273.988,521.501 279,521.5C 289.865,521.737 300.698,522.403 311.5,523.5C 307.849,524.165 304.015,524.499 300,524.5C 288.173,523.667 276.34,523.001 264.5,522.5 Z"/></g>
<g><path style="opacity:1" fill="#dbdbdb" d="M 373.5,532.5 C 395.808,530.979 417.474,534.479 438.5,543C 464.228,553.355 487.894,567.022 509.5,584C 467.163,559.49 421.83,542.324 373.5,532.5 Z"/></g>
<g><path style="opacity:0.998" fill="#e7e7e7" d="M 629.5,750.5 C 627.197,766.851 624.697,783.184 622,799.5C 616.891,822.455 620.558,843.789 633,863.5C 647.913,883.081 665.413,899.914 685.5,914C 714.129,933.483 744.129,950.65 775.5,965.5C 774.167,965.5 772.833,965.5 771.5,965.5C 770.432,964.566 769.099,964.232 767.5,964.5C 739.345,956.601 710.678,950.601 681.5,946.5C 672.833,943.345 664.167,939.845 655.5,936C 652.529,935.206 649.529,934.539 646.5,934C 637.483,934.554 628.483,935.554 619.5,937C 614.118,938.524 609.118,940.858 604.5,944C 598.167,949.667 591.833,955.333 585.5,961C 565.505,970.342 545.172,978.509 524.5,985.5C 524.167,985.5 523.833,985.5 523.5,985.5C 460.702,995.917 397.702,997.251 334.5,989.5C 268.422,970.563 215.922,932.897 177,876.5C 166.623,859.752 158.456,842.086 152.5,823.5C 152.737,822.209 152.404,821.209 151.5,820.5C 151.768,818.901 151.434,817.568 150.5,816.5C 150.768,814.901 150.434,813.568 149.5,812.5C 149.768,810.901 149.434,809.568 148.5,808.5C 148.768,806.901 148.434,805.568 147.5,804.5C 147.768,802.901 147.434,801.568 146.5,800.5C 146.768,798.901 146.434,797.568 145.5,796.5C 145.768,794.901 145.434,793.568 144.5,792.5C 144.784,790.585 144.451,788.919 143.5,787.5C 143.784,785.585 143.451,783.919 142.5,782.5C 142.784,780.585 142.451,778.919 141.5,777.5C 141.784,775.585 141.451,773.919 140.5,772.5C 140.784,770.585 140.451,768.919 139.5,767.5C 135.784,736.946 134.617,706.28 136,675.5C 146.495,637.84 163.829,603.84 188,573.5C 212.974,545.325 244.474,531.992 282.5,533.5C 302.803,534.957 323.136,535.79 343.5,536C 344.938,536.219 346.271,536.719 347.5,537.5C 371.931,580.788 402.931,618.955 440.5,652C 457.213,665.715 474.213,679.048 491.5,692C 503.421,701.51 510.088,713.843 511.5,729C 508.329,751.178 501.163,772.011 490,791.5C 487.855,795.989 484.355,798.489 479.5,799C 476.973,801.574 475.806,804.74 476,808.5C 457.91,824.927 438.41,839.427 417.5,852C 414.513,855.881 415.347,858.715 420,860.5C 425.664,857.205 431.831,855.372 438.5,855C 452.615,850.188 464.448,842.022 474,830.5C 480.055,822.778 485.722,814.778 491,806.5C 506.886,791.998 520.886,775.998 533,758.5C 546.918,734.992 561.584,711.992 577,689.5C 582.761,682.901 589.261,677.234 596.5,672.5C 598.921,676.34 601.088,680.34 603,684.5C 611.139,703.916 619.472,723.249 628,742.5C 628.822,745.117 629.322,747.784 629.5,750.5 Z M 681.5,946.5 C 710.678,950.601 739.345,956.601 767.5,964.5C 737.611,963.723 708.944,957.723 681.5,946.5 Z"/></g>
<g><path style="opacity:1" fill="#e6e6e6" d="M 358.5,539.5 C 447.489,553.995 523.156,593.828 585.5,659C 581.975,662.557 578.809,666.39 576,670.5C 555.58,705.016 533.913,738.683 511,771.5C 513.294,763.943 515.627,756.276 518,748.5C 524.639,726.008 519.973,706.342 504,689.5C 499.867,686.369 496.034,682.869 492.5,679C 448.969,651.807 412.136,617.307 382,575.5C 373.894,563.606 366.061,551.606 358.5,539.5 Z"/></g>
<g><path style="opacity:1" fill="#8e8e8d" d="M 164.5,588.5 C 164.685,586.804 165.519,585.471 167,584.5C 167.279,586.412 166.446,587.746 164.5,588.5 Z"/></g>
<g><path style="opacity:1" fill="#ababab" d="M 164.5,588.5 C 164.573,590.027 163.906,591.027 162.5,591.5C 162.427,589.973 163.094,588.973 164.5,588.5 Z"/></g>
<g><path style="opacity:1" fill="#adadac" d="M 162.5,591.5 C 158.19,599.342 154.023,607.342 150,615.5C 152.31,606.547 156.477,598.547 162.5,591.5 Z"/></g>
<g><path style="opacity:0.314" fill="#c8c8c8" d="M 145.5,600.5 C 140.567,611.017 136.234,621.684 132.5,632.5C 134.664,620.854 138.998,610.187 145.5,600.5 Z"/></g>
<g><path style="opacity:1" fill="#b1b1b1" d="M 132.5,632.5 C 132.261,637.769 131.261,642.769 129.5,647.5C 129.625,642.206 130.625,637.206 132.5,632.5 Z"/></g>
<g><path style="opacity:0.737" fill="#cacac9" d="M 628.5,714.5 C 628.5,715.833 628.5,717.167 628.5,718.5C 625.275,712.379 622.275,706.045 619.5,699.5C 619.846,698.304 620.346,698.304 621,699.5C 624.079,704.324 626.579,709.324 628.5,714.5 Z"/></g>
<g><path style="opacity:0.757" fill="#dcdcdc" d="M 200.5,920.5 C 222.556,941.683 246.89,959.683 273.5,974.5C 267.414,972.302 261.414,969.802 255.5,967C 233.629,955.625 215.296,940.125 200.5,920.5 Z"/></g>
</svg>
