<?xml version="1.0" encoding="UTF-8"?>
<svg xmlns="http://www.w3.org/2000/svg" xmlns:xlink="http://www.w3.org/1999/xlink" width="50pt" height="50pt" viewBox="0 0 50 50" version="1.1">
<defs>
<filter id="alpha" filterUnits="objectBoundingBox" x="0%" y="0%" width="100%" height="100%">
  <feColorMatrix type="matrix" in="SourceGraphic" values="0 0 0 0 1 0 0 0 0 1 0 0 0 0 1 0 0 0 1 0"/>
</filter>
<mask id="mask0">
  <g filter="url(#alpha)">
<rect x="0" y="0" width="50" height="50" style="fill:rgb(0%,0%,0%);fill-opacity:0.988235;stroke:none;"/>
  </g>
</mask>
<clipPath id="clip1">
  <rect width="50" height="50"/>
</clipPath>
<g id="surface6" clip-path="url(#clip1)">
<path style=" stroke:none;fill-rule:evenodd;fill:rgb(0%,0%,0%);fill-opacity:1;" d="M 45.425781 46.769531 C 45.421875 46.757812 45.410156 46.75 45.390625 46.746094 C 36.210938 47.0625 27.027344 47.066406 17.847656 46.757812 C 15.019531 46.65625 12.195312 46.53125 9.375 46.386719 C 9.003906 46.363281 8.636719 46.335938 8.269531 46.304688 C 8.128906 46.257812 8.039062 46.167969 7.992188 46.027344 C 8 40.164062 8.03125 34.296875 8.089844 28.433594 C 8.15625 21.414062 8.238281 14.398438 8.328125 7.382812 C 8.347656 6.035156 8.402344 4.691406 8.496094 3.347656 C 8.5 3.265625 8.519531 3.191406 8.558594 3.121094 C 8.5 2.890625 8.589844 2.753906 8.820312 2.710938 C 11.050781 2.375 13.289062 2.167969 15.542969 2.089844 C 19.988281 1.878906 24.4375 1.75 28.886719 1.703125 C 34.484375 1.660156 40.082031 1.617188 45.679688 1.570312 C 45.933594 1.566406 46.1875 1.585938 46.433594 1.632812 C 46.570312 1.65625 46.664062 1.730469 46.710938 1.859375 C 46.714844 2.003906 46.71875 2.148438 46.722656 2.292969 C 46.332031 15.132812 46.3125 27.976562 46.664062 40.820312 C 46.710938 42.644531 46.769531 44.46875 46.84375 46.292969 C 46.847656 46.472656 46.765625 46.605469 46.601562 46.6875 C 46.214844 46.730469 45.820312 46.761719 45.425781 46.769531 Z M 28.121094 2.605469 C 23.066406 2.78125 18.011719 2.949219 12.949219 3.109375 C 14.894531 2.949219 16.847656 2.839844 18.808594 2.785156 C 21.910156 2.691406 25.015625 2.632812 28.121094 2.605469 Z M 9.109375 12.878906 C 9.191406 23.769531 9.28125 34.65625 9.375 45.546875 C 9.191406 45.53125 9.007812 45.523438 8.820312 45.523438 C 8.851562 34.636719 8.945312 23.753906 9.109375 12.878906 Z M 45.714844 36.691406 C 45.796875 39.757812 45.882812 42.832031 45.980469 45.90625 C 45.804688 45.914062 45.628906 45.921875 45.453125 45.929688 C 45.542969 42.851562 45.628906 39.769531 45.714844 36.691406 Z M 45.714844 36.691406 "/>
</g>
<mask id="mask1">
  <g filter="url(#alpha)">
<rect x="0" y="0" width="50" height="50" style="fill:rgb(0%,0%,0%);fill-opacity:0.992157;stroke:none;"/>
  </g>
</mask>
<clipPath id="clip2">
  <rect width="50" height="50"/>
</clipPath>
<g id="surface9" clip-path="url(#clip2)">
<path style=" stroke:none;fill-rule:evenodd;fill:rgb(94.509804%,92.941176%,90.196078%);fill-opacity:1;" d="M 9.375 46.386719 C 12.195312 46.53125 15.019531 46.65625 17.847656 46.757812 C 27.027344 47.066406 36.210938 47.0625 45.390625 46.746094 C 45.410156 46.75 45.421875 46.757812 45.425781 46.769531 C 45.421875 47.4375 45.40625 48.101562 45.378906 48.765625 C 37.984375 48.71875 30.59375 48.644531 23.199219 48.535156 C 19.207031 48.488281 15.210938 48.375 11.222656 48.199219 C 10.8125 48.175781 10.40625 48.144531 9.996094 48.105469 C 9.800781 48.089844 9.609375 48.054688 9.421875 47.996094 C 9.402344 47.941406 9.390625 47.886719 9.386719 47.828125 C 9.375 47.347656 9.371094 46.867188 9.375 46.386719 Z M 9.375 46.386719 "/>
</g>
</defs>
<g id="surface1">
<use xlink:href="#surface6" mask="url(#mask0)"/>
<path style=" stroke:none;fill-rule:evenodd;fill:rgb(32.941176%,32.54902%,31.764706%);fill-opacity:1;" d="M 45.332031 2.414062 C 45.519531 2.386719 45.710938 2.378906 45.90625 2.386719 C 45.914062 2.511719 45.90625 2.632812 45.882812 2.75 C 45.882812 2.636719 45.882812 2.523438 45.882812 2.414062 C 45.699219 2.414062 45.515625 2.414062 45.332031 2.414062 Z M 45.332031 2.414062 "/>
<path style=" stroke:none;fill-rule:evenodd;fill:rgb(94.509804%,92.941176%,90.196078%);fill-opacity:1;" d="M 45.332031 2.414062 C 45.515625 2.414062 45.699219 2.414062 45.882812 2.414062 C 45.882812 2.523438 45.882812 2.636719 45.882812 2.75 C 45.648438 10.554688 45.554688 18.363281 45.605469 26.175781 C 45.628906 29.679688 45.664062 33.1875 45.714844 36.691406 C 45.628906 39.769531 45.542969 42.851562 45.453125 45.929688 C 37.804688 46.191406 30.15625 46.242188 22.503906 46.085938 C 18.121094 45.992188 13.742188 45.8125 9.375 45.546875 C 9.28125 34.65625 9.191406 23.769531 9.109375 12.878906 C 9.128906 10.6875 9.152344 8.492188 9.179688 6.300781 C 9.179688 5.445312 9.171875 4.589844 9.15625 3.734375 C 9.15625 3.605469 9.15625 3.476562 9.15625 3.347656 C 9.195312 3.355469 9.226562 3.347656 9.253906 3.324219 C 10.402344 3.261719 11.546875 3.191406 12.6875 3.109375 C 12.773438 3.109375 12.863281 3.109375 12.949219 3.109375 C 18.011719 2.949219 23.066406 2.78125 28.121094 2.605469 C 33.855469 2.53125 39.59375 2.464844 45.332031 2.414062 Z M 45.332031 2.414062 "/>
<path style=" stroke:none;fill-rule:evenodd;fill:rgb(66.666667%,23.529412%,18.431373%);fill-opacity:1;" d="M 40.746094 2.75 C 41.332031 2.65625 41.824219 2.824219 42.222656 3.253906 C 42.535156 3.714844 42.527344 4.167969 42.199219 4.621094 C 41.839844 4.960938 41.574219 5.359375 41.394531 5.820312 C 41.921875 6.261719 42.046875 6.796875 41.765625 7.429688 C 41.578125 7.726562 41.320312 7.941406 40.988281 8.066406 C 40.789062 8.144531 40.585938 8.195312 40.375 8.222656 C 40.230469 9.054688 39.9375 9.828125 39.5 10.550781 C 39.65625 10.746094 39.683594 10.964844 39.582031 11.199219 C 39.359375 11.652344 39.011719 11.792969 38.539062 11.617188 C 38.210938 11.367188 38.136719 11.050781 38.308594 10.667969 C 38.4375 10.4375 38.632812 10.324219 38.898438 10.332031 C 38.890625 9.566406 38.90625 8.796875 38.945312 8.027344 C 38.535156 7.890625 38.222656 7.632812 38 7.261719 C 37.617188 6.320312 37.910156 5.699219 38.875 5.402344 C 39.058594 5.367188 39.242188 5.332031 39.425781 5.292969 C 39.472656 5.0625 39.484375 4.832031 39.460938 4.597656 C 39.417969 4.390625 39.351562 4.195312 39.257812 4.007812 C 39.277344 3.933594 39.308594 3.863281 39.355469 3.804688 C 39.296875 3.578125 39.335938 3.371094 39.460938 3.179688 C 39.601562 3.046875 39.765625 2.992188 39.953125 3.023438 C 40.210938 2.902344 40.472656 2.808594 40.746094 2.75 Z M 40.746094 2.75 "/>
<path style=" stroke:none;fill-rule:evenodd;fill:rgb(94.509804%,92.54902%,89.803922%);fill-opacity:1;" d="M 40.792969 3.230469 C 41.230469 3.195312 41.601562 3.332031 41.910156 3.636719 C 42.023438 3.816406 42.015625 3.992188 41.886719 4.164062 C 41.753906 4.335938 41.582031 4.4375 41.371094 4.464844 C 40.875 4.476562 40.425781 4.332031 40.027344 4.03125 C 39.90625 3.941406 39.816406 3.824219 39.761719 3.683594 C 39.765625 3.660156 39.773438 3.640625 39.785156 3.625 C 40.113281 3.460938 40.449219 3.328125 40.792969 3.230469 Z M 40.792969 3.230469 "/>
<path style=" stroke:none;fill-rule:evenodd;fill:rgb(49.019608%,48.235294%,47.058824%);fill-opacity:1;" d="M 9.253906 3.324219 C 9.226562 3.347656 9.195312 3.355469 9.15625 3.347656 C 9.15625 3.476562 9.15625 3.605469 9.15625 3.734375 C 9.132812 3.601562 9.125 3.464844 9.132812 3.324219 C 9.171875 3.324219 9.214844 3.324219 9.253906 3.324219 Z M 9.253906 3.324219 "/>
<path style=" stroke:none;fill-rule:evenodd;fill:rgb(66.666667%,23.529412%,18.431373%);fill-opacity:1;" d="M 12.828125 3.566406 C 13.441406 3.542969 14 3.699219 14.511719 4.03125 C 14.886719 4.292969 15.050781 4.648438 15.003906 5.101562 C 14.980469 5.199219 14.949219 5.296875 14.90625 5.390625 C 14.671875 5.722656 14.523438 6.089844 14.460938 6.492188 C 15.207031 6.535156 15.617188 6.925781 15.6875 7.667969 C 15.648438 8.34375 15.320312 8.820312 14.703125 9.097656 C 14.578125 9.144531 14.453125 9.1875 14.332031 9.230469 C 14.308594 9.796875 14.296875 10.367188 14.292969 10.933594 C 14.503906 10.980469 14.644531 11.109375 14.714844 11.316406 C 14.761719 11.925781 14.488281 12.175781 13.886719 12.074219 C 13.511719 11.898438 13.371094 11.605469 13.464844 11.199219 C 13.496094 11.101562 13.542969 11.015625 13.597656 10.933594 C 13.28125 10.429688 13.074219 9.886719 12.972656 9.300781 C 12.507812 9.253906 12.085938 9.097656 11.703125 8.832031 C 11.164062 8.328125 11.105469 7.773438 11.523438 7.164062 C 11.753906 6.875 12.035156 6.8125 12.363281 6.972656 C 12.222656 6.277344 11.972656 5.621094 11.617188 5.003906 C 11.53125 4.394531 11.765625 3.960938 12.324219 3.695312 C 12.496094 3.648438 12.664062 3.605469 12.828125 3.566406 Z M 12.828125 3.566406 "/>
<path style=" stroke:none;fill-rule:evenodd;fill:rgb(94.509804%,92.54902%,89.803922%);fill-opacity:1;" d="M 12.757812 4.117188 C 13.308594 4.074219 13.8125 4.207031 14.269531 4.511719 C 14.511719 4.714844 14.550781 4.953125 14.378906 5.222656 C 14.152344 5.472656 13.867188 5.582031 13.527344 5.558594 C 12.972656 5.542969 12.503906 5.332031 12.121094 4.933594 C 12.0625 4.851562 12.039062 4.765625 12.050781 4.667969 C 12.214844 4.390625 12.449219 4.203125 12.757812 4.117188 Z M 12.757812 4.117188 "/>
<path style=" stroke:none;fill-rule:evenodd;fill:rgb(94.509804%,92.156863%,89.411765%);fill-opacity:1;" d="M 41.035156 4.980469 C 41.136719 4.996094 41.242188 5.011719 41.347656 5.027344 C 41.035156 5.390625 40.828125 5.808594 40.722656 6.277344 C 40.589844 6.304688 40.460938 6.347656 40.339844 6.410156 C 40.046875 6.476562 39.8125 6.394531 39.628906 6.15625 C 39.640625 6.097656 39.671875 6.050781 39.726562 6.011719 C 39.9375 5.65625 40.011719 5.273438 39.941406 4.859375 C 39.917969 4.761719 39.890625 4.667969 39.859375 4.574219 C 39.867188 4.566406 39.875 4.558594 39.882812 4.546875 C 40.226562 4.800781 40.609375 4.945312 41.035156 4.980469 Z M 41.035156 4.980469 "/>
<path style=" stroke:none;fill-rule:evenodd;fill:rgb(76.862745%,50.196078%,46.27451%);fill-opacity:1;" d="M 41.035156 4.980469 C 41.148438 4.972656 41.257812 4.980469 41.371094 5.003906 C 41.367188 5.019531 41.359375 5.027344 41.347656 5.027344 C 41.242188 5.011719 41.136719 4.996094 41.035156 4.980469 Z M 41.035156 4.980469 "/>
<path style=" stroke:none;fill-rule:evenodd;fill:rgb(94.509804%,92.156863%,89.411765%);fill-opacity:1;" d="M 39.234375 5.675781 C 39.257812 5.671875 39.285156 5.675781 39.304688 5.6875 C 39.246094 5.804688 39.226562 5.929688 39.246094 6.0625 C 39.4375 6.644531 39.84375 6.894531 40.457031 6.816406 C 40.5625 6.792969 40.660156 6.75 40.746094 6.683594 C 40.882812 6.800781 41.019531 6.808594 41.167969 6.710938 C 41.191406 6.585938 41.222656 6.464844 41.261719 6.347656 C 41.367188 6.445312 41.417969 6.566406 41.417969 6.710938 C 41.390625 7.148438 41.175781 7.449219 40.769531 7.609375 C 40.105469 7.828125 39.464844 7.769531 38.851562 7.441406 C 38.441406 7.175781 38.285156 6.804688 38.382812 6.324219 C 38.457031 6.136719 38.582031 5.988281 38.753906 5.882812 C 38.910156 5.792969 39.070312 5.722656 39.234375 5.675781 Z M 39.234375 5.675781 "/>
<path style=" stroke:none;fill-rule:evenodd;fill:rgb(94.509804%,92.156863%,89.411765%);fill-opacity:1;" d="M 12.519531 5.867188 C 13.054688 6.109375 13.609375 6.164062 14.175781 6.035156 C 14.011719 6.386719 13.9375 6.753906 13.957031 7.140625 C 13.910156 7.136719 13.863281 7.140625 13.8125 7.152344 C 13.660156 7.257812 13.492188 7.332031 13.308594 7.371094 C 13.144531 7.394531 12.984375 7.375 12.828125 7.308594 C 12.882812 6.980469 12.847656 6.660156 12.722656 6.347656 C 12.660156 6.183594 12.59375 6.023438 12.519531 5.867188 Z M 12.519531 5.867188 "/>
<path style=" stroke:none;fill-rule:evenodd;fill:rgb(94.509804%,92.54902%,89.803922%);fill-opacity:1;" d="M 14.4375 6.972656 C 14.816406 6.96875 15.066406 7.144531 15.195312 7.5 C 15.242188 7.792969 15.171875 8.046875 14.976562 8.269531 C 14.664062 8.621094 14.265625 8.808594 13.789062 8.832031 C 13.226562 8.898438 12.691406 8.8125 12.183594 8.570312 C 11.75 8.292969 11.648438 7.929688 11.882812 7.476562 C 12.023438 7.300781 12.203125 7.179688 12.421875 7.117188 C 12.492188 7.210938 12.535156 7.3125 12.554688 7.429688 C 12.855469 7.714844 13.210938 7.808594 13.621094 7.707031 C 13.828125 7.664062 13.988281 7.554688 14.101562 7.382812 C 14.300781 7.429688 14.40625 7.347656 14.425781 7.140625 C 14.4375 7.085938 14.441406 7.03125 14.4375 6.972656 Z M 14.4375 6.972656 "/>
<path style=" stroke:none;fill-rule:evenodd;fill:rgb(94.117647%,91.764706%,89.019608%);fill-opacity:1;" d="M 39.28125 8.148438 C 39.484375 8.207031 39.695312 8.230469 39.90625 8.222656 C 39.78125 8.703125 39.609375 9.164062 39.390625 9.613281 C 39.367188 9.125 39.328125 8.636719 39.28125 8.148438 Z M 39.28125 8.148438 "/>
<path style=" stroke:none;fill-rule:evenodd;fill:rgb(94.117647%,92.156863%,89.411765%);fill-opacity:1;" d="M 13.695312 9.324219 C 13.742188 9.324219 13.789062 9.324219 13.839844 9.324219 C 13.828125 9.675781 13.816406 10.03125 13.800781 10.382812 C 13.605469 10.0625 13.441406 9.726562 13.308594 9.375 C 13.441406 9.359375 13.570312 9.339844 13.695312 9.324219 Z M 13.695312 9.324219 "/>
<path style=" stroke:none;fill-rule:evenodd;fill:rgb(83.529412%,66.666667%,63.137255%);fill-opacity:1;" d="M 38.828125 10.621094 C 38.84375 10.617188 38.859375 10.621094 38.875 10.632812 C 38.832031 10.675781 38.785156 10.722656 38.742188 10.765625 C 38.726562 10.75 38.726562 10.734375 38.742188 10.71875 C 38.773438 10.6875 38.804688 10.65625 38.828125 10.621094 Z M 38.828125 10.621094 "/>
<path style=" stroke:none;fill-rule:evenodd;fill:rgb(92.941176%,89.019608%,85.882353%);fill-opacity:1;" d="M 14.175781 11.414062 C 14.199219 11.410156 14.21875 11.417969 14.234375 11.4375 C 14.265625 11.558594 14.222656 11.625 14.101562 11.628906 C 14.09375 11.546875 14.117188 11.472656 14.175781 11.414062 Z M 14.175781 11.414062 "/>
<path style=" stroke:none;fill-rule:evenodd;fill:rgb(66.666667%,23.529412%,18.431373%);fill-opacity:1;" d="M 11.703125 37.53125 C 12.257812 37.488281 12.773438 37.621094 13.238281 37.925781 C 13.59375 38.199219 13.699219 38.546875 13.5625 38.96875 C 13.488281 39.070312 13.421875 39.171875 13.371094 39.28125 C 13.339844 39.496094 13.328125 39.714844 13.335938 39.929688 C 13.796875 39.824219 14.238281 39.882812 14.65625 40.109375 C 14.960938 40.34375 15.070312 40.652344 14.976562 41.035156 C 14.886719 41.316406 14.722656 41.542969 14.484375 41.71875 C 14.300781 41.847656 14.109375 41.96875 13.910156 42.078125 C 14.074219 42.664062 14.15625 43.257812 14.164062 43.867188 C 14.417969 44.0625 14.503906 44.316406 14.425781 44.636719 C 14.320312 44.988281 14.085938 45.136719 13.71875 45.078125 C 13.398438 44.90625 13.265625 44.640625 13.320312 44.273438 C 13.375 44.175781 13.421875 44.082031 13.464844 43.988281 C 13.066406 43.605469 12.722656 43.179688 12.433594 42.714844 C 12.390625 42.625 12.359375 42.527344 12.351562 42.425781 C 11.871094 42.441406 11.429688 42.316406 11.03125 42.054688 C 10.519531 41.601562 10.425781 41.078125 10.753906 40.484375 C 10.9375 40.28125 11.164062 40.171875 11.4375 40.160156 C 11.230469 39.695312 10.980469 39.257812 10.683594 38.851562 C 10.652344 38.75 10.613281 38.652344 10.5625 38.5625 C 10.53125 38.464844 10.558594 38.394531 10.644531 38.347656 C 10.699219 38.175781 10.789062 38.027344 10.910156 37.902344 C 11.152344 37.726562 11.414062 37.601562 11.703125 37.53125 Z M 11.703125 37.53125 "/>
<path style=" stroke:none;fill-rule:evenodd;fill:rgb(66.666667%,23.529412%,18.431373%);fill-opacity:1;" d="M 41.753906 37.769531 C 41.828125 37.769531 41.890625 37.796875 41.945312 37.84375 C 42.53125 37.730469 43.082031 37.816406 43.601562 38.09375 C 43.957031 38.339844 44.054688 38.664062 43.902344 39.066406 C 43.863281 39.164062 43.8125 39.25 43.746094 39.332031 C 43.507812 39.550781 43.300781 39.792969 43.121094 40.0625 C 43.425781 40.09375 43.660156 40.234375 43.832031 40.484375 C 44.210938 41.121094 44.121094 41.683594 43.554688 42.175781 C 43.234375 42.402344 42.882812 42.558594 42.5 42.644531 C 42.414062 43.207031 42.199219 43.71875 41.863281 44.179688 C 41.734375 44.335938 41.609375 44.496094 41.492188 44.660156 C 41.75 44.898438 41.800781 45.179688 41.648438 45.5 C 41.464844 45.746094 41.222656 45.863281 40.914062 45.847656 C 40.707031 45.734375 40.601562 45.558594 40.601562 45.320312 C 40.601562 45.207031 40.621094 45.097656 40.664062 44.996094 C 40.734375 44.886719 40.8125 44.785156 40.890625 44.683594 C 40.695312 43.910156 40.558594 43.125 40.484375 42.332031 C 40.214844 42.175781 39.984375 41.976562 39.796875 41.730469 C 39.570312 41.324219 39.5625 40.917969 39.773438 40.507812 C 40.011719 40.234375 40.3125 40.070312 40.675781 40.015625 C 40.859375 39.988281 41.042969 39.976562 41.226562 39.976562 C 41.234375 39.613281 41.28125 39.253906 41.371094 38.898438 C 41.164062 38.402344 41.292969 38.027344 41.753906 37.769531 Z M 41.753906 37.769531 "/>
<path style=" stroke:none;fill-rule:evenodd;fill:rgb(94.509804%,92.156863%,89.411765%);fill-opacity:1;" d="M 11.871094 37.984375 C 12.21875 38.011719 12.546875 38.109375 12.855469 38.285156 C 13.230469 38.5625 13.199219 38.789062 12.757812 38.957031 C 12.347656 39.011719 11.9375 38.996094 11.535156 38.910156 C 11.351562 38.859375 11.191406 38.769531 11.054688 38.644531 C 11.210938 38.277344 11.484375 38.058594 11.871094 37.984375 Z M 11.871094 37.984375 "/>
<path style=" stroke:none;fill-rule:evenodd;fill:rgb(94.117647%,92.156863%,89.411765%);fill-opacity:1;" d="M 42.1875 38.273438 C 42.578125 38.253906 42.957031 38.320312 43.316406 38.476562 C 43.449219 38.589844 43.492188 38.730469 43.445312 38.898438 C 43.378906 39.050781 43.265625 39.140625 43.097656 39.175781 C 42.542969 39.230469 42.089844 39.039062 41.742188 38.609375 C 41.730469 38.523438 41.726562 38.433594 41.730469 38.347656 C 41.886719 38.332031 42.039062 38.308594 42.1875 38.273438 Z M 42.1875 38.273438 "/>
<path style=" stroke:none;fill-rule:evenodd;fill:rgb(94.509804%,92.54902%,89.803922%);fill-opacity:1;" d="M 11.460938 39.304688 C 11.949219 39.464844 12.445312 39.488281 12.949219 39.378906 C 12.964844 39.386719 12.980469 39.394531 13 39.402344 C 12.945312 39.550781 12.910156 39.703125 12.890625 39.859375 C 12.878906 40.082031 12.878906 40.308594 12.890625 40.53125 C 12.691406 40.71875 12.453125 40.777344 12.183594 40.699219 C 12.097656 40.414062 11.984375 40.140625 11.832031 39.882812 C 11.703125 39.691406 11.578125 39.5 11.460938 39.304688 Z M 11.460938 39.304688 "/>
<path style=" stroke:none;fill-rule:evenodd;fill:rgb(94.117647%,92.156863%,89.411765%);fill-opacity:1;" d="M 42.785156 39.667969 C 42.835938 39.683594 42.882812 39.699219 42.929688 39.714844 C 42.6875 40.003906 42.507812 40.332031 42.402344 40.699219 C 42.292969 40.707031 42.191406 40.734375 42.089844 40.78125 C 41.847656 40.800781 41.65625 40.707031 41.515625 40.507812 C 41.554688 40.480469 41.589844 40.445312 41.621094 40.410156 C 41.730469 40.050781 41.777344 39.683594 41.765625 39.304688 C 42.070312 39.527344 42.410156 39.648438 42.785156 39.667969 Z M 42.785156 39.667969 "/>
<path style=" stroke:none;fill-rule:evenodd;fill:rgb(80.784314%,59.607843%,56.078431%);fill-opacity:1;" d="M 42.785156 39.667969 C 42.84375 39.660156 42.902344 39.667969 42.953125 39.691406 C 42.953125 39.703125 42.945312 39.714844 42.929688 39.714844 C 42.882812 39.699219 42.835938 39.683594 42.785156 39.667969 Z M 42.785156 39.667969 "/>
<path style=" stroke:none;fill-rule:evenodd;fill:rgb(94.509804%,92.54902%,89.803922%);fill-opacity:1;" d="M 41.15625 40.265625 C 41.179688 40.265625 41.203125 40.265625 41.226562 40.265625 C 41.210938 40.351562 41.238281 40.425781 41.296875 40.484375 C 41.371094 41.027344 41.683594 41.265625 42.234375 41.191406 C 42.308594 41.183594 42.371094 41.152344 42.425781 41.105469 C 42.527344 41.222656 42.636719 41.230469 42.75 41.128906 C 42.847656 40.976562 42.910156 40.808594 42.941406 40.625 C 43.394531 40.648438 43.585938 40.890625 43.519531 41.347656 C 43.394531 41.628906 43.191406 41.835938 42.90625 41.957031 C 42.148438 42.289062 41.402344 42.257812 40.675781 41.863281 C 40.351562 41.683594 40.167969 41.410156 40.121094 41.046875 C 40.125 40.816406 40.21875 40.640625 40.410156 40.519531 C 40.648438 40.394531 40.894531 40.308594 41.15625 40.265625 Z M 41.15625 40.265625 "/>
<path style=" stroke:none;fill-rule:evenodd;fill:rgb(94.509804%,92.54902%,89.803922%);fill-opacity:1;" d="M 13.671875 40.363281 C 13.765625 40.359375 13.863281 40.363281 13.957031 40.375 C 14.019531 40.378906 14.078125 40.398438 14.125 40.433594 C 14.21875 40.664062 14.296875 40.894531 14.355469 41.128906 C 14.179688 41.328125 13.96875 41.476562 13.71875 41.574219 C 13.414062 41.71875 13.09375 41.824219 12.757812 41.886719 C 12.496094 41.921875 12.230469 41.929688 11.964844 41.910156 C 11.601562 41.839844 11.320312 41.652344 11.113281 41.347656 C 11.007812 40.933594 11.148438 40.640625 11.535156 40.457031 C 11.609375 40.585938 11.667969 40.722656 11.714844 40.867188 C 11.734375 40.886719 11.753906 40.90625 11.773438 40.925781 C 11.867188 40.957031 11.964844 40.972656 12.0625 40.972656 C 12.480469 41.1875 12.867188 41.140625 13.226562 40.84375 C 13.34375 40.722656 13.386719 40.578125 13.359375 40.410156 C 13.4375 40.414062 13.519531 40.410156 13.597656 40.398438 C 13.628906 40.394531 13.652344 40.382812 13.671875 40.363281 Z M 13.671875 40.363281 "/>
<path style=" stroke:none;fill-rule:evenodd;fill:rgb(94.117647%,91.372549%,88.627451%);fill-opacity:1;" d="M 13.335938 42.257812 C 13.375 42.253906 13.410156 42.261719 13.441406 42.28125 C 13.535156 42.6875 13.601562 43.097656 13.632812 43.507812 C 13.285156 43.1875 12.984375 42.824219 12.734375 42.425781 C 12.9375 42.378906 13.140625 42.324219 13.335938 42.257812 Z M 13.335938 42.257812 "/>
<path style=" stroke:none;fill-rule:evenodd;fill:rgb(94.117647%,92.156863%,89.411765%);fill-opacity:1;" d="M 40.867188 42.5 C 41.21875 42.640625 41.589844 42.703125 41.972656 42.691406 C 41.835938 43.214844 41.601562 43.6875 41.261719 44.105469 C 41.097656 43.582031 40.964844 43.042969 40.867188 42.5 Z M 40.867188 42.5 "/>
<path style=" stroke:none;fill-rule:evenodd;fill:rgb(89.803922%,80.784314%,77.647059%);fill-opacity:1;" d="M 13.886719 44.324219 C 13.917969 44.324219 13.9375 44.339844 13.945312 44.371094 C 13.960938 44.425781 13.960938 44.484375 13.945312 44.539062 C 13.910156 44.472656 13.890625 44.398438 13.886719 44.324219 Z M 13.886719 44.324219 "/>
<use xlink:href="#surface9" mask="url(#mask1)"/>
</g>
</svg>
