<?xml version="1.0" encoding="UTF-8"?>
<svg xmlns="http://www.w3.org/2000/svg" xmlns:xlink="http://www.w3.org/1999/xlink" width="50pt" height="50pt" viewBox="0 0 50 50" version="1.1">
<defs>
<filter id="alpha" filterUnits="objectBoundingBox" x="0%" y="0%" width="100%" height="100%">
  <feColorMatrix type="matrix" in="SourceGraphic" values="0 0 0 0 1 0 0 0 0 1 0 0 0 0 1 0 0 0 1 0"/>
</filter>
<mask id="mask0">
  <g filter="url(#alpha)">
<rect x="0" y="0" width="50" height="50" style="fill:rgb(0%,0%,0%);fill-opacity:0.992157;stroke:none;"/>
  </g>
</mask>
<clipPath id="clip1">
  <rect width="50" height="50"/>
</clipPath>
<g id="surface6" clip-path="url(#clip1)">
<path style=" stroke:none;fill-rule:evenodd;fill:rgb(0.392157%,0.392157%,0.392157%);fill-opacity:1;" d="M 34.914062 6.683594 C 35.480469 6.882812 35.992188 7.175781 36.449219 7.5625 C 36.652344 7.761719 36.863281 7.957031 37.074219 8.148438 C 37.070312 8.1875 37.089844 8.210938 37.121094 8.222656 C 37.609375 8.667969 37.984375 9.195312 38.238281 9.804688 C 38.375 10.277344 38.382812 10.75 38.25 11.222656 C 38.261719 11.230469 38.273438 11.238281 38.285156 11.246094 C 39.476562 10.859375 40.492188 11.121094 41.335938 12.039062 C 41.816406 12.6875 41.914062 13.390625 41.632812 14.148438 C 41.566406 14.304688 41.492188 14.460938 41.417969 14.617188 C 41.453125 14.632812 41.484375 14.628906 41.515625 14.605469 C 41.902344 14.535156 42.277344 14.578125 42.644531 14.738281 C 43.035156 14.910156 43.417969 15.09375 43.796875 15.289062 C 44.386719 15.617188 44.667969 16.121094 44.636719 16.800781 C 44.640625 17.394531 44.519531 17.957031 44.273438 18.496094 C 45.265625 18.511719 46.003906 18.941406 46.496094 19.792969 C 46.671875 20.09375 46.804688 20.414062 46.890625 20.75 C 46.945312 20.980469 46.976562 21.210938 46.988281 21.449219 C 46.949219 21.917969 46.824219 22.367188 46.617188 22.792969 C 46.460938 23.140625 46.289062 23.476562 46.097656 23.800781 C 45.761719 24.242188 45.339844 24.574219 44.828125 24.796875 C 44.558594 24.902344 44.285156 24.996094 44.011719 25.085938 C 44.078125 25.109375 44.140625 25.136719 44.203125 25.167969 C 44.644531 25.367188 45.101562 25.539062 45.570312 25.683594 C 46.324219 25.972656 46.664062 26.523438 46.589844 27.328125 C 46.554688 27.515625 46.492188 27.691406 46.398438 27.855469 C 46.117188 28.214844 45.792969 28.527344 45.425781 28.792969 C 45.316406 28.851562 45.207031 28.902344 45.089844 28.949219 C 45.386719 29.066406 45.582031 29.28125 45.679688 29.585938 C 45.882812 30 46.003906 30.433594 46.050781 30.894531 C 46.046875 30.96875 46.039062 31.046875 46.027344 31.121094 C 45.839844 31.816406 45.644531 32.511719 45.4375 33.210938 C 45.339844 33.421875 45.21875 33.621094 45.078125 33.808594 C 44.84375 34.113281 44.59375 34.398438 44.324219 34.671875 C 43.816406 35.144531 43.214844 35.328125 42.523438 35.214844 C 42.199219 35.195312 41.882812 35.164062 41.5625 35.117188 C 41.460938 35.085938 41.359375 35.050781 41.261719 35.007812 C 41.285156 35.464844 41.277344 35.921875 41.238281 36.378906 C 41.0625 37.316406 40.503906 37.878906 39.570312 38.070312 C 39.402344 38.09375 39.234375 38.109375 39.066406 38.117188 C 39.492188 38.75 39.8125 39.433594 40.027344 40.171875 C 40.007812 40.304688 39.933594 40.375 39.796875 40.386719 C 39.734375 40.382812 39.675781 40.355469 39.628906 40.3125 C 39.402344 39.546875 39.101562 38.8125 38.730469 38.105469 C 38.09375 38.003906 37.503906 37.789062 36.953125 37.457031 C 36.953125 37.441406 36.945312 37.433594 36.929688 37.433594 C 36.652344 37.234375 36.394531 37.011719 36.160156 36.761719 C 35.707031 36.222656 35.511719 35.597656 35.574219 34.890625 C 35.605469 34.617188 35.660156 34.355469 35.742188 34.097656 C 34.71875 34.445312 33.703125 34.410156 32.707031 33.988281 C 32.574219 33.929688 32.453125 33.863281 32.332031 33.785156 C 32.316406 33.800781 32.316406 33.816406 32.332031 33.832031 C 32.613281 34.160156 32.894531 34.480469 33.183594 34.792969 C 33.644531 35.441406 34.058594 36.121094 34.421875 36.832031 C 34.753906 37.417969 35.035156 38.027344 35.261719 38.65625 C 35.382812 38.898438 35.5 39.136719 35.621094 39.378906 C 35.691406 39.523438 35.695312 39.664062 35.632812 39.808594 C 35.546875 39.898438 35.441406 39.925781 35.320312 39.894531 C 35.261719 39.867188 35.21875 39.824219 35.191406 39.761719 C 34.601562 38.191406 33.863281 36.695312 32.980469 35.273438 C 32.773438 34.988281 32.554688 34.71875 32.320312 34.457031 C 32.003906 34.042969 31.644531 33.667969 31.242188 33.328125 C 31.019531 33.160156 30.796875 32.996094 30.570312 32.835938 C 30.488281 32.734375 30.402344 32.636719 30.304688 32.550781 C 30.261719 32.523438 30.210938 32.511719 30.160156 32.511719 C 29.8125 32.578125 29.460938 32.597656 29.105469 32.574219 C 28.40625 32.46875 27.710938 32.363281 27.015625 32.25 C 26.5625 32.175781 26.105469 32.09375 25.648438 32.007812 C 25.167969 31.910156 24.761719 31.679688 24.4375 31.3125 C 24.183594 30.953125 24.113281 30.5625 24.230469 30.136719 C 24.261719 30.101562 24.285156 30.0625 24.304688 30.015625 C 24.292969 29.992188 24.277344 29.992188 24.257812 30.015625 C 24.109375 30.082031 23.957031 30.132812 23.800781 30.171875 C 23.480469 30.1875 23.160156 30.1875 22.839844 30.171875 C 22.160156 30.082031 21.480469 29.996094 20.800781 29.910156 C 20.238281 29.886719 19.679688 29.871094 19.117188 29.859375 C 18.167969 29.800781 17.304688 29.5 16.527344 28.960938 C 16.171875 28.699219 15.914062 28.363281 15.757812 27.953125 C 15.679688 27.945312 15.609375 27.953125 15.542969 27.976562 C 15.265625 28.039062 14.992188 28.125 14.726562 28.230469 C 14.550781 28.257812 14.375 28.273438 14.199219 28.265625 C 13.851562 28.1875 13.507812 28.097656 13.167969 27.988281 C 12.742188 27.851562 12.367188 27.636719 12.039062 27.339844 C 11.734375 27.074219 11.476562 26.773438 11.257812 26.441406 C 11.109375 26.144531 11.0625 25.832031 11.113281 25.503906 C 11.171875 24.914062 11.386719 24.382812 11.75 23.917969 C 11.730469 23.898438 11.707031 23.890625 11.679688 23.894531 C 11.484375 23.894531 11.292969 23.894531 11.101562 23.894531 C 9.59375 23.679688 8.621094 22.839844 8.183594 21.375 C 8.035156 20.75 8.082031 20.140625 8.328125 19.550781 C 8.585938 19.089844 8.964844 18.777344 9.46875 18.613281 C 9.457031 18.597656 9.441406 18.585938 9.421875 18.589844 C 9.136719 18.382812 8.867188 18.152344 8.617188 17.894531 C 8.425781 17.683594 8.308594 17.433594 8.257812 17.152344 C 8.210938 16.628906 8.257812 16.117188 8.402344 15.613281 C 8.503906 15.300781 8.664062 15.023438 8.882812 14.773438 C 9.21875 14.359375 9.625 14.027344 10.09375 13.777344 C 10.464844 13.570312 10.847656 13.382812 11.246094 13.226562 C 11.589844 13.121094 11.945312 13.085938 12.300781 13.117188 C 12.539062 13.148438 12.769531 13.203125 13 13.285156 C 13.007812 13.277344 13.015625 13.269531 13.023438 13.261719 C 12.882812 12.972656 12.832031 12.667969 12.867188 12.351562 C 12.996094 11.804688 13.226562 11.308594 13.550781 10.863281 C 14.203125 9.988281 15.082031 9.621094 16.179688 9.757812 C 16.496094 9.746094 16.8125 9.769531 17.125 9.828125 C 17.265625 9.882812 17.410156 9.933594 17.558594 9.972656 C 17.523438 9.835938 17.527344 9.699219 17.570312 9.566406 C 17.675781 9.332031 17.757812 9.09375 17.824219 8.84375 C 17.945312 8.4375 18.132812 8.0625 18.386719 7.71875 C 18.628906 7.460938 18.929688 7.3125 19.285156 7.273438 C 19.957031 7.148438 20.632812 7.140625 21.304688 7.25 C 21.851562 7.359375 22.328125 7.601562 22.730469 7.980469 C 22.800781 7.476562 22.953125 6.996094 23.1875 6.542969 C 23.242188 6.445312 23.304688 6.359375 23.378906 6.277344 C 23.796875 5.945312 24.210938 5.605469 24.617188 5.257812 C 25.164062 4.90625 25.765625 4.777344 26.417969 4.871094 C 27.285156 4.996094 28.085938 5.300781 28.816406 5.785156 C 29.484375 6.179688 29.984375 6.730469 30.316406 7.429688 C 30.378906 7.585938 30.429688 7.746094 30.460938 7.910156 C 31.097656 7.035156 31.957031 6.542969 33.042969 6.433594 C 33.683594 6.402344 34.308594 6.484375 34.914062 6.683594 Z M 30.113281 8.367188 C 30.054688 8.371094 30 8.367188 29.945312 8.351562 C 29.921875 8.335938 29.90625 8.316406 29.898438 8.292969 C 29.929688 8.234375 29.925781 8.179688 29.886719 8.125 C 29.089844 6.984375 27.996094 6.515625 26.609375 6.722656 C 25.140625 6.96875 24.261719 7.820312 23.96875 9.277344 C 23.800781 9.050781 23.65625 8.8125 23.523438 8.558594 C 23.390625 8.265625 23.347656 7.960938 23.402344 7.644531 C 23.511719 7.308594 23.664062 6.996094 23.859375 6.710938 C 24.199219 6.417969 24.539062 6.125 24.878906 5.832031 C 25.308594 5.511719 25.789062 5.390625 26.320312 5.472656 C 27.53125 5.664062 28.582031 6.171875 29.476562 6.996094 C 29.816406 7.390625 30.03125 7.847656 30.113281 8.367188 Z M 21.878906 8.125 C 20.824219 7.839844 19.78125 7.886719 18.757812 8.269531 C 18.847656 8.101562 18.984375 7.996094 19.167969 7.945312 C 19.820312 7.816406 20.476562 7.785156 21.136719 7.847656 C 21.40625 7.886719 21.65625 7.980469 21.878906 8.125 Z M 17.007812 10.453125 C 17.007812 10.738281 17.054688 11.019531 17.140625 11.292969 C 17.355469 11.808594 17.578125 12.320312 17.800781 12.828125 C 17.410156 12.4375 17.027344 12.042969 16.648438 11.640625 C 16.210938 11.230469 15.707031 10.925781 15.132812 10.730469 C 14.984375 10.691406 14.832031 10.664062 14.679688 10.644531 C 14.941406 10.488281 15.230469 10.402344 15.542969 10.394531 C 15.796875 10.386719 16.054688 10.375 16.3125 10.359375 C 16.546875 10.363281 16.78125 10.394531 17.007812 10.453125 Z M 12.375 13.742188 C 12.414062 13.855469 12.4375 13.96875 12.445312 14.078125 C 12.050781 13.945312 11.640625 13.886719 11.222656 13.910156 C 11.585938 13.738281 11.96875 13.683594 12.375 13.742188 Z M 8.84375 16.789062 C 8.914062 17.054688 9.007812 17.3125 9.132812 17.558594 C 8.917969 17.351562 8.824219 17.09375 8.84375 16.789062 Z M 12.15625 23.296875 C 12.140625 23.296875 12.125 23.296875 12.109375 23.296875 C 12.136719 23.238281 12.152344 23.238281 12.15625 23.296875 Z M 15.496094 27.351562 C 15.515625 27.359375 15.523438 27.375 15.519531 27.398438 C 15.503906 27.398438 15.488281 27.398438 15.46875 27.398438 C 15.476562 27.382812 15.488281 27.367188 15.496094 27.351562 Z M 40.675781 35.800781 C 40.699219 36.335938 40.523438 36.785156 40.144531 37.15625 C 39.832031 37.390625 39.480469 37.496094 39.089844 37.480469 C 38.714844 37.480469 38.351562 37.410156 38.011719 37.265625 C 38.648438 37.3125 39.246094 37.1875 39.808594 36.894531 C 40.085938 36.714844 40.3125 36.484375 40.496094 36.210938 C 40.566406 36.078125 40.625 35.941406 40.675781 35.800781 Z M 40.675781 35.800781 "/>
</g>
<mask id="mask1">
  <g filter="url(#alpha)">
<rect x="0" y="0" width="50" height="50" style="fill:rgb(0%,0%,0%);fill-opacity:0.341176;stroke:none;"/>
  </g>
</mask>
<clipPath id="clip2">
  <rect width="50" height="50"/>
</clipPath>
<g id="surface9" clip-path="url(#clip2)">
<path style=" stroke:none;fill-rule:evenodd;fill:rgb(66.27451%,25.882353%,14.901961%);fill-opacity:1;" d="M 41.632812 14.148438 C 41.609375 14.304688 41.570312 14.457031 41.515625 14.605469 C 41.484375 14.628906 41.453125 14.632812 41.417969 14.617188 C 41.492188 14.460938 41.566406 14.304688 41.632812 14.148438 Z M 41.632812 14.148438 "/>
</g>
<mask id="mask2">
  <g filter="url(#alpha)">
<rect x="0" y="0" width="50" height="50" style="fill:rgb(0%,0%,0%);fill-opacity:0.992157;stroke:none;"/>
  </g>
</mask>
<clipPath id="clip3">
  <rect width="50" height="50"/>
</clipPath>
<g id="surface12" clip-path="url(#clip3)">
<path style=" stroke:none;fill-rule:evenodd;fill:rgb(89.411765%,87.843137%,85.490196%);fill-opacity:1;" d="M 15.855469 26.441406 C 15.78125 26.613281 15.722656 26.789062 15.675781 26.96875 C 15.648438 27.109375 15.636719 27.253906 15.636719 27.398438 C 15.597656 27.398438 15.558594 27.398438 15.519531 27.398438 C 15.523438 27.375 15.515625 27.359375 15.496094 27.351562 C 15.535156 27.210938 15.570312 27.066406 15.601562 26.921875 C 15.65625 26.742188 15.738281 26.582031 15.855469 26.441406 Z M 15.855469 26.441406 "/>
</g>
<mask id="mask3">
  <g filter="url(#alpha)">
<rect x="0" y="0" width="50" height="50" style="fill:rgb(0%,0%,0%);fill-opacity:0.929412;stroke:none;"/>
  </g>
</mask>
<clipPath id="clip4">
  <rect width="50" height="50"/>
</clipPath>
<g id="surface15" clip-path="url(#clip4)">
<path style=" stroke:none;fill-rule:evenodd;fill:rgb(92.941176%,91.372549%,88.627451%);fill-opacity:1;" d="M 16.527344 28.960938 C 16.132812 28.914062 15.847656 28.714844 15.675781 28.359375 C 15.613281 28.238281 15.570312 28.109375 15.542969 27.976562 C 15.609375 27.953125 15.679688 27.945312 15.757812 27.953125 C 15.914062 28.363281 16.171875 28.699219 16.527344 28.960938 Z M 16.527344 28.960938 "/>
</g>
<mask id="mask4">
  <g filter="url(#alpha)">
<rect x="0" y="0" width="50" height="50" style="fill:rgb(0%,0%,0%);fill-opacity:0.945098;stroke:none;"/>
  </g>
</mask>
<clipPath id="clip5">
  <rect width="50" height="50"/>
</clipPath>
<g id="surface18" clip-path="url(#clip5)">
<path style=" stroke:none;fill-rule:evenodd;fill:rgb(78.039216%,76.862745%,74.509804%);fill-opacity:1;" d="M 24.230469 30.136719 C 24.234375 30.09375 24.242188 30.054688 24.257812 30.015625 C 24.277344 29.992188 24.292969 29.992188 24.304688 30.015625 C 24.285156 30.0625 24.261719 30.101562 24.230469 30.136719 Z M 24.230469 30.136719 "/>
</g>
<mask id="mask5">
  <g filter="url(#alpha)">
<rect x="0" y="0" width="50" height="50" style="fill:rgb(0%,0%,0%);fill-opacity:0.807843;stroke:none;"/>
  </g>
</mask>
<clipPath id="clip6">
  <rect width="50" height="50"/>
</clipPath>
<g id="surface21" clip-path="url(#clip6)">
<path style=" stroke:none;fill-rule:evenodd;fill:rgb(91.764706%,90.196078%,87.45098%);fill-opacity:1;" d="M 25.648438 32.007812 C 26.105469 32.09375 26.5625 32.175781 27.015625 32.25 C 26.535156 32.296875 26.078125 32.21875 25.648438 32.007812 Z M 25.648438 32.007812 "/>
</g>
<mask id="mask6">
  <g filter="url(#alpha)">
<rect x="0" y="0" width="50" height="50" style="fill:rgb(0%,0%,0%);fill-opacity:0.988235;stroke:none;"/>
  </g>
</mask>
<clipPath id="clip7">
  <rect width="50" height="50"/>
</clipPath>
<g id="surface24" clip-path="url(#clip7)">
<path style=" stroke:none;fill-rule:evenodd;fill:rgb(90.196078%,88.235294%,85.490196%);fill-opacity:1;" d="M 30.953125 32.273438 C 30.988281 32.40625 31.011719 32.539062 31.023438 32.679688 C 30.863281 32.589844 30.710938 32.480469 30.570312 32.355469 C 30.691406 32.304688 30.820312 32.277344 30.953125 32.273438 Z M 30.953125 32.273438 "/>
</g>
<mask id="mask7">
  <g filter="url(#alpha)">
<rect x="0" y="0" width="50" height="50" style="fill:rgb(0%,0%,0%);fill-opacity:0.992157;stroke:none;"/>
  </g>
</mask>
<clipPath id="clip8">
  <rect width="50" height="50"/>
</clipPath>
<g id="surface27" clip-path="url(#clip8)">
<path style=" stroke:none;fill-rule:evenodd;fill:rgb(63.137255%,21.960784%,16.862745%);fill-opacity:1;" d="M 30.953125 32.273438 C 31.019531 32.242188 31.085938 32.242188 31.15625 32.273438 C 31.230469 32.527344 31.335938 32.761719 31.480469 32.980469 C 31.464844 32.996094 31.449219 32.996094 31.433594 32.980469 C 31.296875 32.878906 31.160156 32.78125 31.023438 32.679688 C 31.011719 32.539062 30.988281 32.40625 30.953125 32.273438 Z M 30.953125 32.273438 "/>
</g>
<mask id="mask8">
  <g filter="url(#alpha)">
<rect x="0" y="0" width="50" height="50" style="fill:rgb(0%,0%,0%);fill-opacity:0.992157;stroke:none;"/>
  </g>
</mask>
<clipPath id="clip9">
  <rect width="50" height="50"/>
</clipPath>
<g id="surface30" clip-path="url(#clip9)">
<path style=" stroke:none;fill-rule:evenodd;fill:rgb(94.509804%,92.941176%,90.196078%);fill-opacity:1;" d="M 30.160156 32.511719 C 30.210938 32.511719 30.261719 32.523438 30.304688 32.550781 C 30.402344 32.636719 30.488281 32.734375 30.570312 32.835938 C 30.796875 32.996094 31.019531 33.160156 31.242188 33.328125 C 31.476562 33.824219 31.839844 34.199219 32.320312 34.457031 C 32.554688 34.71875 32.773438 34.988281 32.980469 35.273438 C 33.863281 36.695312 34.601562 38.191406 35.191406 39.761719 C 35.21875 39.824219 35.261719 39.867188 35.320312 39.894531 C 35.441406 39.925781 35.546875 39.898438 35.632812 39.808594 C 35.695312 39.664062 35.691406 39.523438 35.621094 39.378906 C 35.5 39.136719 35.382812 38.898438 35.261719 38.65625 C 35.035156 38.027344 34.753906 37.417969 34.421875 36.832031 C 34.058594 36.121094 33.644531 35.441406 33.183594 34.792969 C 33.734375 34.878906 34.277344 34.851562 34.816406 34.710938 C 34.996094 34.652344 35.171875 34.589844 35.34375 34.53125 C 35.339844 35.171875 35.496094 35.773438 35.8125 36.328125 C 35.914062 36.488281 36.027344 36.632812 36.160156 36.761719 C 36.394531 37.011719 36.652344 37.234375 36.929688 37.433594 C 36.945312 37.433594 36.953125 37.441406 36.953125 37.457031 C 37.90625 39.5 38.867188 41.542969 39.835938 43.578125 C 38.355469 43.609375 36.875 43.609375 35.394531 43.578125 C 33.644531 39.894531 31.898438 36.203125 30.160156 32.511719 Z M 30.160156 32.511719 "/>
</g>
<mask id="mask9">
  <g filter="url(#alpha)">
<rect x="0" y="0" width="50" height="50" style="fill:rgb(0%,0%,0%);fill-opacity:0.984314;stroke:none;"/>
  </g>
</mask>
<clipPath id="clip10">
  <rect width="50" height="50"/>
</clipPath>
<g id="surface33" clip-path="url(#clip10)">
<path style=" stroke:none;fill-rule:evenodd;fill:rgb(65.490196%,23.529412%,18.823529%);fill-opacity:1;" d="M 31.242188 33.328125 C 31.644531 33.667969 32.003906 34.042969 32.320312 34.457031 C 31.839844 34.199219 31.476562 33.824219 31.242188 33.328125 Z M 31.242188 33.328125 "/>
</g>
</defs>
<g id="surface1">
<use xlink:href="#surface6" mask="url(#mask0)"/>
<path style=" stroke:none;fill-rule:evenodd;fill:rgb(57.647059%,60.784314%,70.980392%);fill-opacity:1;" d="M 29.898438 8.292969 C 29.730469 8.726562 29.636719 9.171875 29.621094 9.636719 C 29.84375 10.640625 30.273438 11.535156 30.917969 12.324219 C 31.703125 13.144531 32.667969 13.59375 33.808594 13.671875 C 34.308594 14.097656 34.851562 14.464844 35.441406 14.761719 C 35.789062 14.949219 36.097656 15.1875 36.367188 15.46875 C 36.425781 15.550781 36.464844 15.636719 36.484375 15.734375 C 36.515625 15.988281 36.53125 16.246094 36.535156 16.503906 C 36.542969 16.53125 36.554688 16.5625 36.570312 16.585938 C 36.003906 16.984375 35.570312 17.492188 35.261719 18.109375 C 35.125 17.683594 34.894531 17.316406 34.578125 17.007812 C 34.589844 17.007812 34.597656 17.003906 34.601562 16.996094 C 33.351562 15.082031 31.703125 13.617188 29.65625 12.601562 C 28 11.832031 26.285156 11.679688 24.519531 12.144531 C 24.039062 12.304688 23.574219 12.503906 23.128906 12.746094 C 23.140625 12.757812 23.15625 12.761719 23.175781 12.757812 C 22.519531 12.820312 21.976562 13.105469 21.554688 13.621094 C 21.304688 13.933594 21.0625 14.242188 20.824219 14.558594 C 20.535156 14.859375 20.308594 15.203125 20.152344 15.589844 C 19.917969 15.199219 19.574219 15.050781 19.117188 15.144531 C 18.433594 15.34375 17.785156 15.621094 17.175781 15.988281 C 16.398438 16.574219 16.097656 17.355469 16.273438 18.328125 C 16.292969 18.527344 16.320312 18.726562 16.347656 18.925781 C 16.449219 19.027344 16.546875 19.019531 16.632812 18.902344 C 16.65625 18.4375 16.671875 17.976562 16.683594 17.511719 C 16.75 17.0625 16.960938 16.699219 17.320312 16.417969 C 17.515625 16.261719 17.730469 16.132812 17.96875 16.035156 C 18.355469 15.875 18.746094 15.730469 19.144531 15.601562 C 19.269531 15.585938 19.398438 15.585938 19.527344 15.601562 C 19.558594 15.617188 19.589844 15.632812 19.625 15.652344 C 19.738281 15.820312 19.851562 15.992188 19.960938 16.167969 C 19.738281 17.460938 20.117188 18.550781 21.085938 19.441406 C 21.6875 19.941406 22.308594 20.40625 22.960938 20.835938 C 23.519531 21.179688 24.113281 21.460938 24.734375 21.675781 C 24.628906 21.703125 24.539062 21.738281 24.472656 21.785156 C 23.851562 21.890625 23.347656 22.183594 22.960938 22.671875 C 22.4375 22.046875 21.765625 21.777344 20.941406 21.867188 C 20.480469 21.917969 20.046875 22.058594 19.648438 22.289062 C 18.730469 22.566406 18.070312 23.140625 17.667969 24.015625 C 17.523438 24.34375 17.46875 24.691406 17.5 25.046875 C 17.523438 25.21875 17.578125 25.378906 17.65625 25.527344 C 17.371094 25.5 17.105469 25.558594 16.863281 25.695312 C 16.5625 25.710938 16.308594 25.832031 16.105469 26.054688 C 16.015625 26.183594 15.933594 26.308594 15.855469 26.441406 C 15.738281 26.582031 15.65625 26.742188 15.601562 26.921875 C 15.570312 27.066406 15.535156 27.210938 15.496094 27.351562 C 15.488281 27.367188 15.476562 27.382812 15.46875 27.398438 C 15.21875 27.46875 14.96875 27.554688 14.726562 27.652344 C 13.625 27.703125 12.710938 27.316406 11.976562 26.488281 C 11.835938 26.335938 11.734375 26.160156 11.664062 25.960938 C 11.628906 25.289062 11.820312 24.699219 12.242188 24.183594 C 12.394531 24.0625 12.53125 23.925781 12.648438 23.777344 C 12.75 23.601562 12.722656 23.453125 12.566406 23.332031 C 12.433594 23.300781 12.296875 23.289062 12.15625 23.296875 C 12.152344 23.238281 12.136719 23.238281 12.109375 23.296875 C 11.222656 23.445312 10.414062 23.253906 9.6875 22.730469 C 8.878906 22.011719 8.5625 21.121094 8.738281 20.054688 C 8.960938 19.457031 9.390625 19.144531 10.035156 19.117188 C 10.257812 19.128906 10.480469 19.15625 10.695312 19.203125 C 10.886719 19.109375 10.945312 18.960938 10.875 18.757812 C 10.714844 18.617188 10.542969 18.492188 10.359375 18.386719 C 9.992188 18.21875 9.648438 18.015625 9.324219 17.785156 C 9.253906 17.726562 9.199219 17.660156 9.15625 17.582031 C 9.15625 17.566406 9.148438 17.558594 9.132812 17.558594 C 9.007812 17.3125 8.914062 17.054688 8.84375 16.789062 C 8.800781 16.207031 8.949219 15.675781 9.289062 15.207031 C 9.484375 14.976562 9.699219 14.765625 9.925781 14.570312 C 10.335938 14.304688 10.769531 14.085938 11.222656 13.910156 C 11.640625 13.886719 12.050781 13.945312 12.445312 14.078125 C 12.4375 13.96875 12.414062 13.855469 12.375 13.742188 C 12.695312 13.792969 12.992188 13.910156 13.261719 14.089844 C 13.570312 14.304688 13.867188 14.535156 14.148438 14.785156 C 14.4375 14.914062 14.613281 14.824219 14.679688 14.523438 C 14.675781 14.484375 14.664062 14.445312 14.640625 14.414062 C 14.296875 13.996094 13.960938 13.574219 13.632812 13.140625 C 13.410156 12.777344 13.394531 12.398438 13.585938 12.015625 C 13.792969 11.511719 14.101562 11.082031 14.511719 10.730469 C 14.558594 10.6875 14.617188 10.660156 14.679688 10.644531 C 14.832031 10.664062 14.984375 10.691406 15.132812 10.730469 C 15.707031 10.925781 16.210938 11.230469 16.648438 11.640625 C 17.027344 12.042969 17.410156 12.4375 17.800781 12.828125 C 17.578125 12.320312 17.355469 11.808594 17.140625 11.292969 C 17.054688 11.019531 17.007812 10.738281 17.007812 10.453125 C 17.707031 10.617188 18.253906 11.011719 18.652344 11.628906 C 18.816406 11.867188 19.003906 11.882812 19.203125 11.679688 C 19.28125 11.566406 19.28125 11.453125 19.203125 11.34375 C 18.933594 10.96875 18.652344 10.597656 18.363281 10.238281 C 18.261719 10.109375 18.195312 9.964844 18.160156 9.804688 C 18.203125 9.660156 18.257812 9.515625 18.316406 9.375 C 18.351562 9.179688 18.398438 8.984375 18.457031 8.796875 C 18.554688 8.617188 18.652344 8.441406 18.757812 8.269531 C 19.78125 7.886719 20.824219 7.839844 21.878906 8.125 C 21.886719 8.125 21.894531 8.125 21.902344 8.125 C 21.984375 8.164062 22.066406 8.207031 22.144531 8.257812 C 22.65625 8.707031 23.101562 9.214844 23.476562 9.78125 C 23.652344 9.964844 23.835938 9.972656 24.027344 9.804688 C 24.0625 9.71875 24.070312 9.632812 24.050781 9.542969 C 24.019531 9.453125 23.992188 9.367188 23.96875 9.277344 C 24.261719 7.820312 25.140625 6.96875 26.609375 6.722656 C 27.996094 6.515625 29.089844 6.984375 29.886719 8.125 C 29.925781 8.179688 29.929688 8.234375 29.898438 8.292969 Z M 12.15625 23.296875 C 12.140625 23.296875 12.125 23.296875 12.109375 23.296875 C 12.136719 23.238281 12.152344 23.238281 12.15625 23.296875 Z M 12.15625 23.296875 "/>
<path style=" stroke:none;fill-rule:evenodd;fill:rgb(66.27451%,24.705882%,16.078431%);fill-opacity:1;" d="M 34.914062 6.683594 C 35.832031 6.890625 36.550781 7.378906 37.074219 8.148438 C 36.863281 7.957031 36.652344 7.761719 36.449219 7.5625 C 35.992188 7.175781 35.480469 6.882812 34.914062 6.683594 Z M 34.914062 6.683594 "/>
<path style=" stroke:none;fill-rule:evenodd;fill:rgb(66.27451%,22.745098%,17.647059%);fill-opacity:1;" d="M 44.46875 19.117188 C 44.519531 19.140625 44.574219 19.148438 44.636719 19.144531 C 44.667969 19.164062 44.710938 19.175781 44.753906 19.167969 C 45.453125 19.414062 45.9375 19.882812 46.207031 20.582031 C 46.363281 20.996094 46.402344 21.421875 46.328125 21.855469 C 46.164062 22.429688 45.914062 22.96875 45.582031 23.464844 C 45.246094 23.890625 44.820312 24.191406 44.300781 24.363281 C 43.699219 24.613281 43.074219 24.757812 42.425781 24.796875 C 42.246094 24.925781 42.210938 25.089844 42.320312 25.289062 C 42.347656 25.304688 42.375 25.324219 42.402344 25.347656 C 42.847656 25.417969 43.289062 25.515625 43.722656 25.636719 C 44.300781 25.871094 44.882812 26.085938 45.476562 26.285156 C 45.988281 26.558594 46.128906 26.960938 45.894531 27.496094 C 45.675781 27.8125 45.40625 28.082031 45.089844 28.300781 C 44.929688 28.375 44.761719 28.429688 44.585938 28.46875 C 44.207031 28.617188 44.148438 28.851562 44.40625 29.175781 C 44.617188 29.320312 44.820312 29.472656 45.019531 29.632812 C 45.386719 30.175781 45.503906 30.769531 45.367188 31.410156 C 45.230469 31.839844 45.105469 32.269531 44.984375 32.707031 C 44.929688 32.882812 44.859375 33.050781 44.765625 33.210938 C 44.503906 33.578125 44.210938 33.925781 43.890625 34.253906 C 43.699219 34.414062 43.484375 34.535156 43.242188 34.613281 C 43.152344 34.617188 43.058594 34.621094 42.96875 34.625 C 42.539062 34.578125 42.113281 34.542969 41.683594 34.515625 C 41.527344 34.480469 41.382812 34.414062 41.25 34.324219 C 41.21875 34.214844 41.167969 34.113281 41.09375 34.027344 C 40.921875 33.886719 40.75 33.746094 40.578125 33.605469 C 40.378906 33.503906 40.230469 33.554688 40.132812 33.761719 C 40.113281 33.96875 40.167969 34.152344 40.300781 34.3125 C 40.40625 34.429688 40.523438 34.535156 40.652344 34.625 C 40.65625 35.015625 40.664062 35.410156 40.675781 35.800781 C 40.625 35.941406 40.566406 36.078125 40.496094 36.210938 C 40.3125 36.484375 40.085938 36.714844 39.808594 36.894531 C 39.246094 37.1875 38.648438 37.3125 38.011719 37.265625 C 37.222656 37.035156 36.644531 36.554688 36.269531 35.824219 C 36.082031 35.300781 36.097656 34.78125 36.316406 34.265625 C 36.417969 34.039062 36.539062 33.820312 36.679688 33.617188 C 36.714844 33.492188 36.675781 33.390625 36.570312 33.316406 C 36.46875 33.273438 36.367188 33.257812 36.257812 33.269531 C 35.757812 33.515625 35.226562 33.675781 34.671875 33.75 C 33.796875 33.820312 33.003906 33.597656 32.296875 33.078125 C 31.929688 32.757812 31.71875 32.351562 31.660156 31.863281 C 31.644531 31.625 31.648438 31.382812 31.671875 31.144531 C 32.023438 30.855469 32.398438 30.605469 32.800781 30.390625 C 32.941406 30.355469 33.085938 30.335938 33.234375 30.328125 C 33.6875 30.476562 34.144531 30.625 34.601562 30.773438 C 34.796875 30.800781 34.980469 30.773438 35.152344 30.6875 C 35.214844 30.71875 35.277344 30.734375 35.34375 30.738281 C 35.34375 30.636719 35.328125 30.542969 35.296875 30.449219 C 35.292969 30.285156 35.269531 30.125 35.226562 29.96875 C 35.21875 29.773438 35.203125 29.582031 35.175781 29.394531 C 35.175781 29.199219 35.175781 29.007812 35.175781 28.816406 C 35.203125 28.667969 35.226562 28.515625 35.25 28.359375 C 35.289062 28.21875 35.335938 28.082031 35.394531 27.953125 C 35.4375 27.871094 35.492188 27.789062 35.550781 27.710938 C 35.671875 27.59375 35.785156 27.476562 35.898438 27.351562 C 35.964844 27.335938 36.011719 27.296875 36.042969 27.230469 C 36.144531 27.179688 36.238281 27.113281 36.328125 27.039062 C 37.359375 27.121094 38.226562 26.785156 38.933594 26.03125 C 39.304688 25.605469 39.648438 25.15625 39.964844 24.6875 C 40.0625 24.507812 40.148438 24.324219 40.21875 24.136719 C 40.5 23.453125 40.53125 22.753906 40.300781 22.046875 C 40.25 21.894531 40.175781 21.757812 40.074219 21.640625 C 39.910156 21.273438 39.667969 20.960938 39.355469 20.703125 C 40.285156 20.265625 40.800781 19.527344 40.902344 18.496094 C 40.921875 18.277344 40.890625 18.070312 40.804688 17.871094 C 40.714844 17.6875 40.609375 17.511719 40.496094 17.34375 C 40.195312 16.964844 39.878906 16.601562 39.546875 16.25 C 39.457031 16.183594 39.367188 16.113281 39.28125 16.046875 C 38.925781 15.085938 38.261719 14.433594 37.289062 14.089844 C 36.441406 13.816406 35.566406 13.691406 34.671875 13.71875 C 34.523438 13.617188 34.371094 13.519531 34.21875 13.417969 C 34.121094 13.335938 34.039062 13.238281 33.976562 13.128906 C 34.53125 13.128906 35.042969 12.984375 35.515625 12.699219 C 35.605469 12.597656 35.71875 12.523438 35.851562 12.480469 C 35.972656 12.320312 35.976562 12.160156 35.863281 11.988281 C 35.761719 11.902344 35.644531 11.875 35.515625 11.90625 C 35.074219 12.359375 34.539062 12.550781 33.90625 12.480469 C 33.042969 12.417969 32.257812 12.125 31.554688 11.59375 C 30.628906 10.796875 30.359375 9.816406 30.75 8.652344 C 30.976562 8.144531 31.335938 7.746094 31.816406 7.464844 C 32.535156 7.046875 33.304688 6.929688 34.121094 7.105469 C 34.894531 7.21875 35.566406 7.539062 36.136719 8.066406 C 36.527344 8.453125 36.898438 8.859375 37.253906 9.277344 C 37.476562 9.554688 37.628906 9.867188 37.710938 10.214844 C 37.757812 10.695312 37.683594 11.160156 37.492188 11.605469 C 37.46875 11.761719 37.484375 11.914062 37.542969 12.0625 C 37.734375 12.242188 37.9375 12.253906 38.152344 12.097656 C 38.324219 11.863281 38.558594 11.734375 38.851562 11.714844 C 39.695312 11.582031 40.386719 11.839844 40.925781 12.492188 C 41.179688 12.875 41.25 13.292969 41.144531 13.742188 C 41.066406 14.003906 40.96875 14.261719 40.855469 14.511719 C 40.769531 14.730469 40.777344 14.949219 40.878906 15.160156 C 40.941406 15.261719 41.035156 15.308594 41.15625 15.300781 C 41.335938 15.277344 41.511719 15.230469 41.683594 15.171875 C 41.828125 15.152344 41.972656 15.160156 42.113281 15.195312 C 42.550781 15.375 42.984375 15.566406 43.410156 15.769531 C 43.914062 16.042969 44.117188 16.460938 44.023438 17.03125 C 44.007812 17.769531 43.730469 18.386719 43.183594 18.878906 C 43.140625 19.121094 43.238281 19.257812 43.484375 19.285156 C 43.648438 19.234375 43.816406 19.183594 43.988281 19.132812 C 44.148438 19.117188 44.308594 19.113281 44.46875 19.117188 Z M 44.46875 19.117188 "/>
<path style=" stroke:none;fill-rule:evenodd;fill:rgb(48.627451%,20.784314%,9.411765%);fill-opacity:1;" d="M 37.074219 8.148438 C 37.109375 8.160156 37.125 8.183594 37.121094 8.222656 C 37.089844 8.210938 37.070312 8.1875 37.074219 8.148438 Z M 37.074219 8.148438 "/>
<path style=" stroke:none;fill-rule:evenodd;fill:rgb(65.882353%,23.137255%,18.039216%);fill-opacity:1;" d="M 29.898438 8.292969 C 29.90625 8.316406 29.921875 8.335938 29.945312 8.351562 C 30 8.367188 30.054688 8.371094 30.113281 8.367188 C 29.648438 10.570312 30.472656 12.0625 32.585938 12.84375 C 32.882812 12.941406 33.1875 13.015625 33.496094 13.070312 C 33.558594 13.292969 33.660156 13.496094 33.808594 13.671875 C 32.667969 13.59375 31.703125 13.144531 30.917969 12.324219 C 30.273438 11.535156 29.84375 10.640625 29.621094 9.636719 C 29.636719 9.171875 29.730469 8.726562 29.898438 8.292969 Z M 29.898438 8.292969 "/>
<path style=" stroke:none;fill-rule:evenodd;fill:rgb(57.647059%,58.823529%,68.235294%);fill-opacity:1;" d="M 17.824219 8.84375 C 17.757812 9.09375 17.675781 9.332031 17.570312 9.566406 C 17.527344 9.699219 17.523438 9.835938 17.558594 9.972656 C 17.410156 9.933594 17.265625 9.882812 17.125 9.828125 C 17.257812 9.429688 17.492188 9.101562 17.824219 8.84375 Z M 17.824219 8.84375 "/>
<path style=" stroke:none;fill-rule:evenodd;fill:rgb(57.647059%,59.607843%,69.019608%);fill-opacity:1;" d="M 13.550781 10.863281 C 13.226562 11.308594 12.996094 11.804688 12.867188 12.351562 C 12.832031 12.667969 12.882812 12.972656 13.023438 13.261719 C 13.015625 13.269531 13.007812 13.277344 13 13.285156 C 12.769531 13.203125 12.539062 13.148438 12.300781 13.117188 C 12.292969 12.125 12.710938 11.371094 13.550781 10.863281 Z M 13.550781 10.863281 "/>
<path style=" stroke:none;fill-rule:evenodd;fill:rgb(94.117647%,92.54902%,90.196078%);fill-opacity:1;" d="M 34.578125 17.007812 C 34.21875 16.691406 33.832031 16.40625 33.425781 16.15625 C 33.214844 15.957031 32.984375 15.789062 32.730469 15.652344 C 32.585938 15.601562 32.441406 15.5625 32.296875 15.53125 C 31.96875 15.511719 31.640625 15.515625 31.3125 15.542969 C 31.289062 15.546875 31.265625 15.542969 31.242188 15.53125 C 30.917969 15.253906 30.582031 14.992188 30.234375 14.75 C 29.90625 14.089844 29.398438 13.613281 28.71875 13.320312 C 28.292969 13.1875 27.859375 13.179688 27.425781 13.296875 C 27.261719 13.351562 27.101562 13.410156 26.945312 13.476562 C 26.574219 13.472656 26.207031 13.480469 25.839844 13.503906 C 25.566406 13.074219 25.171875 12.820312 24.664062 12.746094 C 24.167969 12.726562 23.671875 12.730469 23.175781 12.757812 C 23.15625 12.761719 23.140625 12.757812 23.128906 12.746094 C 23.574219 12.503906 24.039062 12.304688 24.519531 12.144531 C 26.285156 11.679688 28 11.832031 29.65625 12.601562 C 31.703125 13.617188 33.351562 15.082031 34.601562 16.996094 C 34.597656 17.003906 34.589844 17.007812 34.578125 17.007812 Z M 34.578125 17.007812 "/>
<path style=" stroke:none;fill-rule:evenodd;fill:rgb(94.509804%,92.941176%,90.196078%);fill-opacity:1;" d="M 25.238281 13.597656 C 23.992188 13.96875 22.914062 14.625 22.011719 15.566406 C 21.78125 15.835938 21.613281 16.136719 21.507812 16.480469 C 21.402344 17.039062 21.519531 17.542969 21.867188 17.992188 C 22.808594 18.957031 23.910156 19.679688 25.167969 20.164062 C 25.90625 20.40625 26.640625 20.65625 27.375 20.90625 C 27.773438 21.039062 28.183594 21.09375 28.601562 21.074219 C 28.988281 21.007812 29.304688 20.820312 29.546875 20.511719 C 30.027344 19.972656 30.117188 19.371094 29.8125 18.710938 C 29.671875 18.386719 29.46875 18.113281 29.199219 17.882812 C 28.859375 17.621094 28.515625 17.363281 28.167969 17.113281 C 27.546875 16.808594 26.90625 16.761719 26.25 16.972656 C 26.042969 17.0625 25.863281 17.195312 25.71875 17.367188 C 25.886719 17.578125 26.085938 17.75 26.320312 17.882812 C 26.664062 18.050781 26.996094 18.238281 27.316406 18.445312 C 27.515625 18.234375 27.757812 18.105469 28.046875 18.0625 C 28.4375 18.117188 28.679688 18.332031 28.78125 18.710938 C 28.839844 19.011719 28.765625 19.273438 28.550781 19.492188 C 28.308594 19.683594 28.042969 19.84375 27.761719 19.972656 C 27.363281 20.050781 26.976562 20.011719 26.609375 19.851562 C 25.882812 19.507812 25.222656 19.074219 24.628906 18.542969 C 23.910156 17.625 23.984375 16.769531 24.855469 15.988281 C 25.59375 15.40625 26.4375 15.167969 27.375 15.265625 C 27.972656 15.339844 28.535156 15.523438 29.058594 15.820312 C 29.664062 16.207031 30.210938 16.667969 30.699219 17.199219 C 31.554688 18.226562 31.757812 19.371094 31.300781 20.632812 C 30.75 21.878906 29.792969 22.554688 28.433594 22.660156 C 28.757812 23.046875 29 23.484375 29.152344 23.96875 C 29.507812 23.972656 29.753906 24.140625 29.886719 24.472656 C 30.195312 24.757812 30.542969 24.984375 30.929688 25.15625 C 31.179688 25.265625 31.4375 25.363281 31.695312 25.445312 C 32.097656 25.460938 32.496094 25.460938 32.898438 25.445312 C 33.082031 25.441406 33.265625 25.425781 33.449219 25.394531 C 33.535156 25.265625 33.621094 25.132812 33.703125 25 C 33.726562 24.800781 33.746094 24.601562 33.75 24.398438 C 33.839844 24.453125 33.90625 24.527344 33.953125 24.617188 C 33.890625 24.640625 33.839844 24.679688 33.796875 24.734375 C 33.792969 24.984375 33.792969 25.230469 33.796875 25.480469 C 33.773438 25.570312 33.742188 25.660156 33.703125 25.742188 C 33.335938 26.214844 32.941406 26.65625 32.511719 27.078125 C 32.105469 27.382812 31.65625 27.453125 31.167969 27.292969 C 30.566406 27.082031 29.996094 26.800781 29.464844 26.453125 C 29.269531 26.308594 29.148438 26.121094 29.09375 25.886719 C 29.125 25.1875 28.957031 24.539062 28.589844 23.945312 C 27.832031 22.75 26.753906 22.027344 25.359375 21.769531 C 25.0625 21.753906 24.765625 21.757812 24.472656 21.785156 C 24.539062 21.738281 24.628906 21.703125 24.734375 21.675781 C 24.113281 21.460938 23.519531 21.179688 22.960938 20.835938 C 22.308594 20.40625 21.6875 19.941406 21.085938 19.441406 C 20.117188 18.550781 19.738281 17.460938 19.960938 16.167969 C 20.089844 16.308594 20.25 16.410156 20.4375 16.464844 C 20.652344 16.503906 20.792969 16.417969 20.859375 16.214844 C 20.832031 15.75 20.933594 15.316406 21.171875 14.917969 C 21.457031 14.425781 21.8125 13.988281 22.238281 13.609375 C 22.570312 13.378906 22.9375 13.261719 23.34375 13.25 C 23.792969 13.234375 24.238281 13.234375 24.6875 13.25 C 24.914062 13.304688 25.097656 13.421875 25.238281 13.597656 Z M 25.238281 13.597656 "/>
<path style=" stroke:none;fill-rule:evenodd;fill:rgb(57.254902%,60.392157%,70.196078%);fill-opacity:1;" d="M 26.945312 13.476562 C 26.617188 13.628906 26.335938 13.847656 26.105469 14.125 C 26.023438 13.914062 25.9375 13.707031 25.839844 13.503906 C 26.207031 13.480469 26.574219 13.472656 26.945312 13.476562 Z M 26.945312 13.476562 "/>
<path style=" stroke:none;fill-rule:evenodd;fill:rgb(57.647059%,60.784314%,70.588235%);fill-opacity:1;" d="M 34.671875 13.71875 C 35.566406 13.691406 36.441406 13.816406 37.289062 14.089844 C 38.261719 14.433594 38.925781 15.085938 39.28125 16.046875 C 39.003906 15.898438 38.707031 15.839844 38.394531 15.867188 C 37.9375 15.988281 37.496094 16.144531 37.0625 16.335938 C 37.113281 15.730469 36.917969 15.230469 36.472656 14.835938 C 36.023438 14.507812 35.546875 14.226562 35.035156 13.996094 C 34.910156 13.90625 34.789062 13.8125 34.671875 13.71875 Z M 34.671875 13.71875 "/>
<use xlink:href="#surface9" mask="url(#mask1)"/>
<path style=" stroke:none;fill-rule:evenodd;fill:rgb(92.156863%,90.588235%,88.235294%);fill-opacity:1;" d="M 20.824219 14.558594 C 20.691406 14.777344 20.582031 15.007812 20.5 15.253906 C 20.441406 15.472656 20.410156 15.699219 20.402344 15.925781 C 20.289062 15.839844 20.203125 15.726562 20.152344 15.589844 C 20.308594 15.203125 20.535156 14.859375 20.824219 14.558594 Z M 20.824219 14.558594 "/>
<path style=" stroke:none;fill-rule:evenodd;fill:rgb(57.254902%,60.392157%,70.196078%);fill-opacity:1;" d="M 30.234375 14.75 C 30.582031 14.992188 30.917969 15.253906 31.242188 15.53125 C 31.265625 15.542969 31.289062 15.546875 31.3125 15.542969 C 30.984375 15.585938 30.691406 15.710938 30.4375 15.925781 C 30.390625 15.640625 30.351562 15.351562 30.316406 15.0625 C 30.300781 14.953125 30.273438 14.851562 30.234375 14.75 Z M 30.234375 14.75 "/>
<path style=" stroke:none;fill-rule:evenodd;fill:rgb(58.039216%,61.176471%,71.372549%);fill-opacity:1;" d="M 25.238281 13.597656 C 25.351562 13.703125 25.4375 13.832031 25.492188 13.980469 C 25.554688 14.230469 25.652344 14.460938 25.78125 14.679688 C 25.761719 14.976562 25.890625 15.09375 26.175781 15.027344 C 26.21875 15.007812 26.253906 14.980469 26.285156 14.941406 C 26.414062 14.566406 26.652344 14.273438 26.992188 14.066406 C 27.382812 13.824219 27.808594 13.71875 28.265625 13.753906 C 28.902344 13.925781 29.386719 14.300781 29.714844 14.871094 C 29.757812 14.964844 29.789062 15.058594 29.8125 15.160156 C 29.855469 15.46875 29.890625 15.78125 29.910156 16.09375 C 29.933594 16.238281 29.976562 16.375 30.039062 16.503906 C 30.175781 16.617188 30.316406 16.628906 30.472656 16.539062 C 30.652344 16.453125 30.820312 16.347656 30.976562 16.226562 C 31.339844 16.058594 31.714844 16.007812 32.105469 16.070312 C 32.015625 16.0625 31.929688 16.070312 31.839844 16.09375 C 32.328125 16.574219 32.761719 17.097656 33.148438 17.65625 C 33.28125 17.871094 33.402344 18.09375 33.507812 18.328125 C 33.851562 19.167969 34.199219 20.007812 34.542969 20.847656 C 34.652344 21.226562 34.75 21.613281 34.828125 22 C 34.84375 22.039062 34.863281 22.070312 34.890625 22.09375 C 34.835938 22.273438 34.753906 22.433594 34.636719 22.574219 C 34.621094 22.867188 34.75 22.992188 35.035156 22.960938 C 35.042969 23.324219 34.96875 23.667969 34.804688 23.992188 C 34.765625 24.046875 34.71875 24.097656 34.671875 24.148438 C 34.507812 24.257812 34.339844 24.363281 34.167969 24.460938 C 34.113281 24.5 34.066406 24.542969 34.027344 24.59375 C 34 24.59375 33.976562 24.601562 33.953125 24.617188 C 33.90625 24.527344 33.839844 24.453125 33.75 24.398438 C 33.746094 24.601562 33.726562 24.800781 33.703125 25 C 33.621094 25.132812 33.535156 25.265625 33.449219 25.394531 C 33.265625 25.425781 33.082031 25.441406 32.898438 25.445312 C 32.496094 25.460938 32.097656 25.460938 31.695312 25.445312 C 31.4375 25.363281 31.179688 25.265625 30.929688 25.15625 C 30.542969 24.984375 30.195312 24.757812 29.886719 24.472656 C 29.753906 24.140625 29.507812 23.972656 29.152344 23.96875 C 29 23.484375 28.757812 23.046875 28.433594 22.660156 C 29.792969 22.554688 30.75 21.878906 31.300781 20.632812 C 31.757812 19.371094 31.554688 18.226562 30.699219 17.199219 C 30.210938 16.667969 29.664062 16.207031 29.058594 15.820312 C 28.535156 15.523438 27.972656 15.339844 27.375 15.265625 C 26.4375 15.167969 25.59375 15.40625 24.855469 15.988281 C 23.984375 16.769531 23.910156 17.625 24.628906 18.542969 C 25.222656 19.074219 25.882812 19.507812 26.609375 19.851562 C 26.976562 20.011719 27.363281 20.050781 27.761719 19.972656 C 28.042969 19.84375 28.308594 19.683594 28.550781 19.492188 C 28.765625 19.273438 28.839844 19.011719 28.78125 18.710938 C 28.679688 18.332031 28.4375 18.117188 28.046875 18.0625 C 27.757812 18.105469 27.515625 18.234375 27.316406 18.445312 C 26.996094 18.238281 26.664062 18.050781 26.320312 17.882812 C 26.085938 17.75 25.886719 17.578125 25.71875 17.367188 C 25.863281 17.195312 26.042969 17.0625 26.25 16.972656 C 26.90625 16.761719 27.546875 16.808594 28.167969 17.113281 C 28.515625 17.363281 28.859375 17.621094 29.199219 17.882812 C 29.46875 18.113281 29.671875 18.386719 29.8125 18.710938 C 30.117188 19.371094 30.027344 19.972656 29.546875 20.511719 C 29.304688 20.820312 28.988281 21.007812 28.601562 21.074219 C 28.183594 21.09375 27.773438 21.039062 27.375 20.90625 C 26.640625 20.65625 25.90625 20.40625 25.167969 20.164062 C 23.910156 19.679688 22.808594 18.957031 21.867188 17.992188 C 21.519531 17.542969 21.402344 17.039062 21.507812 16.480469 C 21.613281 16.136719 21.78125 15.835938 22.011719 15.566406 C 22.914062 14.625 23.992188 13.96875 25.238281 13.597656 Z M 25.238281 13.597656 "/>
<path style=" stroke:none;fill-rule:evenodd;fill:rgb(94.117647%,92.54902%,89.803922%);fill-opacity:1;" d="M 32.105469 16.070312 C 32.425781 16.101562 32.707031 16.226562 32.945312 16.441406 C 33.066406 16.546875 33.183594 16.652344 33.304688 16.753906 C 33.714844 17 34.078125 17.300781 34.398438 17.65625 C 34.460938 17.738281 34.515625 17.828125 34.566406 17.917969 C 34.777344 18.429688 34.9375 18.960938 35.046875 19.503906 C 35.0625 19.792969 35.0625 20.078125 35.046875 20.367188 C 34.980469 20.941406 34.925781 21.519531 34.890625 22.09375 C 34.863281 22.070312 34.84375 22.039062 34.828125 22 C 34.75 21.613281 34.652344 21.226562 34.542969 20.847656 C 34.199219 20.007812 33.851562 19.167969 33.507812 18.328125 C 33.402344 18.09375 33.28125 17.871094 33.148438 17.65625 C 32.761719 17.097656 32.328125 16.574219 31.839844 16.09375 C 31.929688 16.070312 32.015625 16.0625 32.105469 16.070312 Z M 32.105469 16.070312 "/>
<path style=" stroke:none;fill-rule:evenodd;fill:rgb(57.647059%,60.784314%,70.980392%);fill-opacity:1;" d="M 39.546875 17.03125 C 39.695312 17.917969 39.589844 18.777344 39.222656 19.597656 C 39.105469 19.816406 38.988281 20.03125 38.875 20.246094 C 38.683594 20.28125 38.492188 20.300781 38.296875 20.308594 C 38.125 20.375 38.066406 20.5 38.117188 20.679688 C 38.132812 20.742188 38.171875 20.796875 38.226562 20.835938 C 38.734375 20.894531 39.113281 21.148438 39.367188 21.589844 C 39.53125 21.882812 39.644531 22.195312 39.703125 22.527344 C 39.871094 23.421875 39.671875 24.210938 39.101562 24.902344 C 38.828125 25.234375 38.542969 25.558594 38.25 25.875 C 38.113281 26 37.960938 26.101562 37.792969 26.175781 C 37.175781 26.285156 36.578125 26.226562 35.992188 25.996094 C 35.753906 25.902344 35.523438 25.792969 35.296875 25.671875 C 35.890625 25.300781 36.277344 24.769531 36.460938 24.085938 C 36.617188 23.417969 36.632812 22.746094 36.511719 22.070312 C 36.292969 21.09375 35.984375 20.148438 35.585938 19.238281 C 35.53125 19.003906 35.464844 18.769531 35.394531 18.53125 C 35.734375 17.851562 36.21875 17.308594 36.859375 16.898438 C 37.378906 16.652344 37.921875 16.480469 38.488281 16.382812 C 38.78125 16.382812 39.027344 16.480469 39.234375 16.683594 C 39.351562 16.789062 39.457031 16.90625 39.546875 17.03125 Z M 39.546875 17.03125 "/>
<path style=" stroke:none;fill-rule:evenodd;fill:rgb(65.882353%,22.745098%,18.039216%);fill-opacity:1;" d="M 39.546875 17.03125 C 39.789062 17.308594 40.007812 17.605469 40.207031 17.917969 C 40.3125 18.121094 40.355469 18.339844 40.328125 18.566406 C 40.222656 19.199219 39.90625 19.691406 39.378906 20.042969 C 39.21875 20.136719 39.050781 20.207031 38.875 20.246094 C 38.988281 20.03125 39.105469 19.816406 39.222656 19.597656 C 39.589844 18.777344 39.695312 17.917969 39.546875 17.03125 Z M 39.546875 17.03125 "/>
<path style=" stroke:none;fill-rule:evenodd;fill:rgb(58.039216%,60.784314%,70.588235%);fill-opacity:1;" d="M 9.421875 18.589844 C 9.441406 18.585938 9.457031 18.597656 9.46875 18.613281 C 8.964844 18.777344 8.585938 19.089844 8.328125 19.550781 C 8.082031 20.140625 8.035156 20.75 8.183594 21.375 C 8.621094 22.839844 9.59375 23.679688 11.101562 23.894531 C 10.449219 24.328125 9.726562 24.5625 8.941406 24.59375 C 7.992188 24.585938 7.277344 24.175781 6.792969 23.367188 C 6.195312 22.203125 6.242188 21.066406 6.9375 19.960938 C 7.328125 19.441406 7.828125 19.070312 8.4375 18.84375 C 8.757812 18.734375 9.085938 18.648438 9.421875 18.589844 Z M 9.421875 18.589844 "/>
<path style=" stroke:none;fill-rule:evenodd;fill:rgb(94.117647%,92.54902%,89.803922%);fill-opacity:1;" d="M 35.585938 19.238281 C 35.984375 20.148438 36.292969 21.09375 36.511719 22.070312 C 36.632812 22.746094 36.617188 23.417969 36.460938 24.085938 C 36.277344 24.769531 35.890625 25.300781 35.296875 25.671875 C 35.265625 25.679688 35.234375 25.6875 35.203125 25.695312 C 35.132812 25.652344 35.0625 25.605469 34.996094 25.550781 C 34.738281 25.25 34.484375 24.941406 34.242188 24.628906 C 34.171875 24.597656 34.101562 24.585938 34.027344 24.59375 C 34.066406 24.542969 34.113281 24.5 34.167969 24.460938 C 34.339844 24.363281 34.507812 24.257812 34.671875 24.148438 C 34.71875 24.097656 34.765625 24.046875 34.804688 23.992188 C 34.96875 23.667969 35.042969 23.324219 35.035156 22.960938 C 35.277344 22.722656 35.421875 22.4375 35.476562 22.09375 C 35.554688 21.351562 35.605469 20.609375 35.632812 19.863281 C 35.628906 19.652344 35.613281 19.445312 35.585938 19.238281 Z M 35.585938 19.238281 "/>
<path style=" stroke:none;fill-rule:evenodd;fill:rgb(66.27451%,23.921569%,16.862745%);fill-opacity:1;" d="M 46.890625 20.75 C 47.289062 21.761719 47.136719 22.683594 46.421875 23.511719 C 46.324219 23.621094 46.21875 23.71875 46.097656 23.800781 C 46.289062 23.476562 46.460938 23.140625 46.617188 22.792969 C 46.824219 22.367188 46.949219 21.917969 46.988281 21.449219 C 46.976562 21.210938 46.945312 20.980469 46.890625 20.75 Z M 46.890625 20.75 "/>
<path style=" stroke:none;fill-rule:evenodd;fill:rgb(93.333333%,91.764706%,89.019608%);fill-opacity:1;" d="M 22.960938 22.671875 C 22.882812 22.820312 22.808594 22.972656 22.742188 23.128906 C 22.507812 22.886719 22.253906 22.675781 21.976562 22.492188 C 21.539062 22.277344 21.074219 22.175781 20.582031 22.191406 C 20.269531 22.199219 19.957031 22.230469 19.648438 22.289062 C 20.046875 22.058594 20.480469 21.917969 20.941406 21.867188 C 21.765625 21.777344 22.4375 22.046875 22.960938 22.671875 Z M 22.960938 22.671875 "/>
<path style=" stroke:none;fill-rule:evenodd;fill:rgb(56.078431%,57.254902%,66.666667%);fill-opacity:1;" d="M 40.074219 21.640625 C 40.175781 21.757812 40.25 21.894531 40.300781 22.046875 C 40.53125 22.753906 40.5 23.453125 40.21875 24.136719 C 40.375 23.449219 40.378906 22.761719 40.230469 22.070312 C 40.183594 21.925781 40.132812 21.78125 40.074219 21.640625 Z M 40.074219 21.640625 "/>
<path style=" stroke:none;fill-rule:evenodd;fill:rgb(94.509804%,92.941176%,90.196078%);fill-opacity:1;" d="M 36.328125 27.039062 C 36.238281 27.113281 36.144531 27.179688 36.042969 27.230469 C 36.066406 27.0625 35.992188 26.976562 35.824219 26.96875 C 35.453125 27.019531 35.175781 27.214844 34.996094 27.542969 C 34.871094 27.863281 34.753906 28.183594 34.636719 28.503906 C 34.621094 28.976562 34.621094 29.449219 34.636719 29.921875 C 34.664062 30.027344 34.6875 30.132812 34.710938 30.234375 C 34.601562 30.164062 34.484375 30.113281 34.363281 30.078125 C 33.941406 29.945312 33.515625 29.828125 33.089844 29.714844 C 31.914062 29.5 31.253906 29.980469 31.109375 31.167969 C 31.097656 31.320312 31.09375 31.472656 31.097656 31.625 C 30.976562 31.628906 30.855469 31.640625 30.738281 31.660156 C 30.511719 31.734375 30.289062 31.804688 30.066406 31.878906 C 29.625 31.980469 29.1875 31.988281 28.746094 31.902344 C 28.292969 31.792969 27.835938 31.707031 27.375 31.636719 C 26.871094 31.59375 26.367188 31.53125 25.863281 31.445312 C 25.460938 31.375 25.136719 31.179688 24.890625 30.855469 C 24.832031 30.761719 24.804688 30.65625 24.808594 30.542969 C 24.839844 30.308594 24.882812 30.078125 24.941406 29.847656 C 25.007812 29.464844 24.851562 29.285156 24.472656 29.308594 C 24.253906 29.375 24.039062 29.445312 23.824219 29.523438 C 23.382812 29.574219 22.941406 29.566406 22.503906 29.5 C 22.066406 29.425781 21.625 29.363281 21.183594 29.308594 C 20.40625 29.269531 19.632812 29.238281 18.855469 29.210938 C 18.148438 29.128906 17.5 28.886719 16.910156 28.492188 C 16.203125 27.957031 16.070312 27.304688 16.515625 26.535156 C 16.683594 26.335938 16.894531 26.261719 17.152344 26.308594 C 17.558594 26.441406 17.976562 26.472656 18.398438 26.402344 C 18.570312 26.328125 18.640625 26.195312 18.601562 26.007812 C 18.570312 25.929688 18.539062 25.847656 18.507812 25.769531 C 18.046875 25.234375 17.992188 24.65625 18.339844 24.039062 C 18.9375 23.078125 19.808594 22.675781 20.941406 22.828125 C 21.320312 22.851562 21.648438 22.988281 21.925781 23.234375 C 22.085938 23.390625 22.238281 23.546875 22.394531 23.703125 C 22.582031 23.980469 22.660156 24.285156 22.636719 24.617188 C 22.75 24.839844 22.921875 24.894531 23.152344 24.773438 C 23.1875 24.734375 23.214844 24.691406 23.234375 24.640625 C 23.242188 24.320312 23.25 24 23.257812 23.679688 C 23.367188 22.980469 23.773438 22.558594 24.472656 22.417969 C 25.03125 22.308594 25.574219 22.355469 26.105469 22.5625 C 27.242188 23.039062 28.03125 23.851562 28.46875 25 C 28.519531 25.171875 28.539062 25.347656 28.515625 25.527344 C 28.4375 26.300781 28.082031 26.914062 27.449219 27.363281 C 26.855469 27.628906 26.289062 27.582031 25.742188 27.21875 C 25.441406 26.996094 25.238281 26.703125 25.132812 26.34375 C 25.121094 26.03125 25.128906 25.71875 25.15625 25.40625 C 25.046875 25.335938 24.949219 25.351562 24.867188 25.457031 C 24.835938 25.648438 24.796875 25.839844 24.746094 26.03125 C 24.699219 26.433594 24.792969 26.792969 25.035156 27.113281 C 25.300781 27.511719 25.664062 27.769531 26.128906 27.890625 C 26.960938 28.15625 27.667969 27.96875 28.253906 27.328125 C 28.445312 27.105469 28.613281 26.863281 28.757812 26.609375 C 28.941406 26.839844 29.160156 27.027344 29.417969 27.171875 C 29.894531 27.460938 30.398438 27.695312 30.929688 27.867188 C 31.5625 28.085938 32.160156 28.023438 32.730469 27.675781 C 33.175781 27.324219 33.554688 26.914062 33.871094 26.441406 C 33.980469 26.328125 34.09375 26.214844 34.207031 26.105469 C 34.28125 25.992188 34.335938 25.875 34.375 25.742188 C 34.574219 26.007812 34.816406 26.21875 35.105469 26.378906 C 35.496094 26.640625 35.902344 26.859375 36.328125 27.039062 Z M 36.328125 27.039062 "/>
<path style=" stroke:none;fill-rule:evenodd;fill:rgb(58.039216%,60%,69.803922%);fill-opacity:1;" d="M 11.679688 23.894531 C 11.707031 23.890625 11.730469 23.898438 11.75 23.917969 C 11.386719 24.382812 11.171875 24.914062 11.113281 25.503906 C 11.0625 25.832031 11.109375 26.144531 11.257812 26.441406 C 11.476562 26.773438 11.734375 27.074219 12.039062 27.339844 C 12.367188 27.636719 12.742188 27.851562 13.167969 27.988281 C 13.507812 28.097656 13.851562 28.1875 14.199219 28.265625 C 13.230469 28.554688 12.316406 28.429688 11.460938 27.890625 C 10.742188 27.335938 10.480469 26.613281 10.683594 25.71875 C 10.765625 25.390625 10.894531 25.078125 11.066406 24.785156 C 11.257812 24.480469 11.460938 24.183594 11.679688 23.894531 Z M 11.679688 23.894531 "/>
<path style=" stroke:none;fill-rule:evenodd;fill:rgb(66.27451%,23.529412%,17.254902%);fill-opacity:1;" d="M 44.203125 25.167969 C 44.820312 25.164062 45.402344 25.296875 45.957031 25.5625 C 46.773438 26.070312 47.015625 26.777344 46.6875 27.6875 C 46.449219 28.265625 46.027344 28.636719 45.425781 28.792969 C 45.792969 28.527344 46.117188 28.214844 46.398438 27.855469 C 46.492188 27.691406 46.554688 27.515625 46.589844 27.328125 C 46.664062 26.523438 46.324219 25.972656 45.570312 25.683594 C 45.101562 25.539062 44.644531 25.367188 44.203125 25.167969 Z M 44.203125 25.167969 "/>
<path style=" stroke:none;fill-rule:evenodd;fill:rgb(90.980392%,89.411765%,87.058824%);fill-opacity:1;" d="M 17.65625 25.527344 C 17.707031 25.621094 17.761719 25.714844 17.824219 25.804688 C 17.503906 25.757812 17.183594 25.722656 16.863281 25.695312 C 17.105469 25.558594 17.371094 25.5 17.65625 25.527344 Z M 17.65625 25.527344 "/>
<path style=" stroke:none;fill-rule:evenodd;fill:rgb(64.705882%,22.745098%,17.647059%);fill-opacity:1;" d="M 35.296875 25.671875 C 35.523438 25.792969 35.753906 25.902344 35.992188 25.996094 C 36.578125 26.226562 37.175781 26.285156 37.792969 26.175781 C 37.324219 26.433594 36.828125 26.492188 36.304688 26.355469 C 35.917969 26.164062 35.546875 25.945312 35.203125 25.695312 C 35.234375 25.6875 35.265625 25.679688 35.296875 25.671875 Z M 35.296875 25.671875 "/>
<use xlink:href="#surface12" mask="url(#mask2)"/>
<path style=" stroke:none;fill-rule:evenodd;fill:rgb(86.27451%,82.352941%,79.607843%);fill-opacity:1;" d="M 35.898438 27.351562 C 35.785156 27.476562 35.671875 27.59375 35.550781 27.710938 C 35.492188 27.789062 35.4375 27.871094 35.394531 27.953125 C 35.445312 27.652344 35.613281 27.449219 35.898438 27.351562 Z M 35.898438 27.351562 "/>
<use xlink:href="#surface15" mask="url(#mask3)"/>
<path style=" stroke:none;fill-rule:evenodd;fill:rgb(74.117647%,64.313725%,61.568627%);fill-opacity:1;" d="M 35.25 28.359375 C 35.226562 28.515625 35.203125 28.667969 35.175781 28.816406 C 35.167969 28.65625 35.191406 28.503906 35.25 28.359375 Z M 35.25 28.359375 "/>
<path style=" stroke:none;fill-rule:evenodd;fill:rgb(58.431373%,49.411765%,47.058824%);fill-opacity:1;" d="M 35.175781 29.394531 C 35.203125 29.582031 35.21875 29.773438 35.226562 29.96875 C 35.207031 29.933594 35.195312 29.894531 35.191406 29.847656 C 35.175781 29.695312 35.171875 29.542969 35.175781 29.394531 Z M 35.175781 29.394531 "/>
<use xlink:href="#surface18" mask="url(#mask4)"/>
<path style=" stroke:none;fill-rule:evenodd;fill:rgb(92.54902%,90.588235%,87.843137%);fill-opacity:1;" d="M 33.234375 30.328125 C 33.085938 30.335938 32.941406 30.355469 32.800781 30.390625 C 32.398438 30.605469 32.023438 30.855469 31.671875 31.144531 C 31.679688 30.710938 31.878906 30.410156 32.273438 30.246094 C 32.601562 30.1875 32.921875 30.214844 33.234375 30.328125 Z M 33.234375 30.328125 "/>
<path style=" stroke:none;fill-rule:evenodd;fill:rgb(89.411765%,85.490196%,82.745098%);fill-opacity:1;" d="M 35.296875 30.449219 C 35.328125 30.542969 35.34375 30.636719 35.34375 30.738281 C 35.277344 30.734375 35.214844 30.71875 35.152344 30.6875 C 35.210938 30.613281 35.261719 30.535156 35.296875 30.449219 Z M 35.296875 30.449219 "/>
<path style=" stroke:none;fill-rule:evenodd;fill:rgb(65.882353%,23.529412%,17.254902%);fill-opacity:1;" d="M 46.027344 31.121094 C 46.164062 32.183594 45.90625 33.136719 45.246094 33.976562 C 44.988281 34.28125 44.679688 34.511719 44.324219 34.671875 C 44.59375 34.398438 44.84375 34.113281 45.078125 33.808594 C 45.21875 33.621094 45.339844 33.421875 45.4375 33.210938 C 45.644531 32.511719 45.839844 31.816406 46.027344 31.121094 Z M 46.027344 31.121094 "/>
<use xlink:href="#surface21" mask="url(#mask5)"/>
<use xlink:href="#surface24" mask="url(#mask6)"/>
<use xlink:href="#surface27" mask="url(#mask7)"/>
<use xlink:href="#surface30" mask="url(#mask8)"/>
<use xlink:href="#surface33" mask="url(#mask9)"/>
<path style=" stroke:none;fill-rule:evenodd;fill:rgb(65.490196%,22.745098%,17.647059%);fill-opacity:1;" d="M 36.160156 36.761719 C 36.027344 36.632812 35.914062 36.488281 35.8125 36.328125 C 35.496094 35.773438 35.339844 35.171875 35.34375 34.53125 C 35.171875 34.589844 34.996094 34.652344 34.816406 34.710938 C 34.277344 34.851562 33.734375 34.878906 33.183594 34.792969 C 32.894531 34.480469 32.613281 34.160156 32.332031 33.832031 C 32.316406 33.816406 32.316406 33.800781 32.332031 33.785156 C 32.453125 33.863281 32.574219 33.929688 32.707031 33.988281 C 33.703125 34.410156 34.71875 34.445312 35.742188 34.097656 C 35.660156 34.355469 35.605469 34.617188 35.574219 34.890625 C 35.511719 35.597656 35.707031 36.222656 36.160156 36.761719 Z M 36.160156 36.761719 "/>
</g>
</svg>
