<?xml version="1.0" encoding="UTF-8"?>
<svg xmlns="http://www.w3.org/2000/svg" xmlns:xlink="http://www.w3.org/1999/xlink" width="50pt" height="50pt" viewBox="0 0 50 50" version="1.1">
<defs>
<filter id="alpha" filterUnits="objectBoundingBox" x="0%" y="0%" width="100%" height="100%">
  <feColorMatrix type="matrix" in="SourceGraphic" values="0 0 0 0 1 0 0 0 0 1 0 0 0 0 1 0 0 0 1 0"/>
</filter>
<mask id="mask0">
  <g filter="url(#alpha)">
<rect x="0" y="0" width="50" height="50" style="fill:rgb(0%,0%,0%);fill-opacity:0.992157;stroke:none;"/>
  </g>
</mask>
<clipPath id="clip1">
  <rect width="50" height="50"/>
</clipPath>
<g id="surface6" clip-path="url(#clip1)">
<path style=" stroke:none;fill-rule:evenodd;fill:rgb(0.392157%,0.392157%,0.392157%);fill-opacity:1;" d="M 46.316406 19.238281 C 45.890625 19.65625 45.449219 20.058594 44.996094 20.4375 C 44.667969 20.714844 44.308594 20.941406 43.914062 21.125 C 43.347656 21.367188 42.765625 21.550781 42.164062 21.675781 C 41.683594 21.742188 41.210938 21.707031 40.746094 21.566406 C 41.070312 23.023438 41.351562 24.488281 41.597656 25.960938 C 41.816406 27.503906 42.039062 29.050781 42.269531 30.59375 C 42.335938 30.832031 42.390625 31.070312 42.4375 31.3125 C 42.875 31.492188 43.003906 31.804688 42.824219 32.25 C 42.589844 32.660156 42.371094 33.085938 42.175781 33.519531 C 41.761719 34.21875 41.3125 34.890625 40.832031 35.539062 C 40.246094 36.289062 39.65625 37.03125 39.054688 37.769531 C 38.824219 38.078125 38.601562 38.390625 38.382812 38.707031 C 38.351562 38.902344 38.335938 39.105469 38.335938 39.304688 C 38.25 39.519531 38.09375 39.640625 37.867188 39.679688 C 37.820312 39.769531 37.75 39.828125 37.648438 39.847656 C 36.839844 39.960938 36.023438 40.011719 35.203125 40.003906 C 34.707031 40 34.210938 39.988281 33.714844 39.964844 C 31.339844 39.804688 28.964844 39.742188 26.585938 39.773438 C 25.082031 39.839844 23.574219 39.898438 22.070312 39.941406 C 20.035156 40.007812 18.003906 39.941406 15.972656 39.75 C 14.980469 39.660156 13.996094 39.5 13.023438 39.269531 C 11.839844 38.960938 10.65625 38.671875 9.46875 38.394531 C 7.9375 38.015625 6.386719 37.738281 4.8125 37.554688 C 4.28125 37.507812 3.75 37.476562 3.214844 37.457031 C 2.914062 37.46875 2.609375 37.484375 2.304688 37.507812 C 1.851562 37.523438 1.507812 37.339844 1.273438 36.953125 C 1.1875 36.808594 1.125 36.65625 1.082031 36.496094 C 0.714844 35.097656 0.542969 33.671875 0.5625 32.226562 C 0.566406 31.746094 0.578125 31.265625 0.601562 30.785156 C 0.707031 29.320312 0.804688 27.855469 0.886719 26.390625 C 0.925781 24.792969 0.933594 23.191406 0.914062 21.589844 C 0.953125 21.371094 1.015625 21.15625 1.09375 20.941406 C 1.023438 20.820312 1.011719 20.691406 1.054688 20.558594 C 1.09375 20.492188 1.144531 20.4375 1.210938 20.402344 C 1.445312 20.390625 1.675781 20.398438 1.910156 20.425781 C 2.195312 20.332031 2.480469 20.242188 2.773438 20.164062 C 3.828125 19.90625 4.882812 19.65625 5.941406 19.417969 C 8.5 18.746094 11.0625 18.074219 13.621094 17.402344 C 14.0625 17.242188 14.503906 17.089844 14.941406 16.933594 C 14.9375 16.578125 14.996094 16.234375 15.121094 15.902344 C 15.390625 15.269531 15.648438 14.628906 15.890625 13.980469 C 16.496094 12.222656 17.09375 10.464844 17.691406 8.703125 C 17.992188 7.859375 18.320312 7.027344 18.675781 6.203125 C 18.792969 5.898438 18.972656 5.640625 19.214844 5.425781 C 19.335938 5.359375 19.460938 5.324219 19.597656 5.316406 C 19.710938 5.339844 19.824219 5.371094 19.933594 5.414062 C 19.953125 5.324219 19.976562 5.234375 20.007812 5.148438 C 20.054688 5.046875 20.132812 4.988281 20.246094 4.96875 C 20.601562 4.859375 20.960938 4.789062 21.328125 4.753906 C 22.492188 4.785156 23.652344 4.863281 24.808594 4.992188 C 26.394531 5.246094 27.988281 5.46875 29.585938 5.664062 C 32.699219 6 35.8125 6.351562 38.921875 6.722656 C 41.773438 7.054688 44.566406 7.664062 47.300781 8.546875 C 47.554688 8.636719 47.789062 8.757812 48.007812 8.917969 C 48.292969 8.625 48.59375 8.601562 48.917969 8.84375 C 49.105469 9.125 49.121094 9.414062 48.96875 9.710938 C 48.886719 9.800781 48.789062 9.871094 48.679688 9.925781 C 48.667969 10.1875 48.558594 10.394531 48.34375 10.550781 C 48.3125 10.617188 48.277344 10.679688 48.234375 10.742188 C 48.328125 11.4375 48.429688 12.132812 48.535156 12.828125 C 48.71875 14 48.59375 15.136719 48.152344 16.238281 C 47.695312 17.34375 47.085938 18.34375 46.316406 19.238281 Z M 46.316406 19.238281 "/>
</g>
<mask id="mask1">
  <g filter="url(#alpha)">
<rect x="0" y="0" width="50" height="50" style="fill:rgb(0%,0%,0%);fill-opacity:0.917647;stroke:none;"/>
  </g>
</mask>
<clipPath id="clip2">
  <rect width="50" height="50"/>
</clipPath>
<g id="surface9" clip-path="url(#clip2)">
<path style=" stroke:none;fill-rule:evenodd;fill:rgb(61.176471%,55.294118%,57.254902%);fill-opacity:1;" d="M 20.007812 5.148438 C 19.976562 5.234375 19.953125 5.324219 19.933594 5.414062 C 19.824219 5.371094 19.710938 5.339844 19.597656 5.316406 C 19.621094 5.242188 19.652344 5.167969 19.695312 5.101562 C 19.796875 5.128906 19.902344 5.144531 20.007812 5.148438 Z M 20.007812 5.148438 "/>
</g>
<mask id="mask2">
  <g filter="url(#alpha)">
<rect x="0" y="0" width="50" height="50" style="fill:rgb(0%,0%,0%);fill-opacity:0.85098;stroke:none;"/>
  </g>
</mask>
<clipPath id="clip3">
  <rect width="50" height="50"/>
</clipPath>
<g id="surface12" clip-path="url(#clip3)">
<path style=" stroke:none;fill-rule:evenodd;fill:rgb(96.862745%,96.862745%,96.862745%);fill-opacity:1;" d="M 46.316406 19.238281 C 45.996094 19.773438 45.558594 20.171875 44.996094 20.4375 C 45.449219 20.058594 45.890625 19.65625 46.316406 19.238281 Z M 46.316406 19.238281 "/>
</g>
<mask id="mask3">
  <g filter="url(#alpha)">
<rect x="0" y="0" width="50" height="50" style="fill:rgb(0%,0%,0%);fill-opacity:0.8;stroke:none;"/>
  </g>
</mask>
<clipPath id="clip4">
  <rect width="50" height="50"/>
</clipPath>
<g id="surface15" clip-path="url(#clip4)">
<path style=" stroke:none;fill-rule:evenodd;fill:rgb(92.54902%,92.54902%,92.54902%);fill-opacity:1;" d="M 4.8125 37.554688 C 6.386719 37.738281 7.9375 38.015625 9.46875 38.394531 C 7.910156 38.128906 6.359375 37.847656 4.8125 37.554688 Z M 4.8125 37.554688 "/>
</g>
</defs>
<g id="surface1">
<use xlink:href="#surface6" mask="url(#mask0)"/>
<use xlink:href="#surface9" mask="url(#mask1)"/>
<path style=" stroke:none;fill-rule:evenodd;fill:rgb(62.745098%,56.862745%,58.823529%);fill-opacity:1;" d="M 32.175781 7.046875 C 32.144531 7.042969 32.113281 7.046875 32.082031 7.058594 C 36.066406 7.675781 40.050781 8.300781 44.035156 8.929688 C 44.097656 8.949219 44.152344 8.945312 44.203125 8.917969 C 44.847656 9.082031 45.488281 9.261719 46.125 9.457031 C 45.925781 9.648438 45.753906 9.863281 45.605469 10.09375 C 45.058594 11.011719 44.511719 11.929688 43.976562 12.855469 C 43.875 13.027344 43.761719 13.1875 43.628906 13.335938 C 41.941406 15.519531 40.261719 17.707031 38.585938 19.898438 C 38.65625 19.902344 38.71875 19.914062 38.777344 19.933594 C 38.671875 19.929688 38.570312 19.933594 38.464844 19.945312 C 38.226562 20.011719 37.984375 20.074219 37.746094 20.140625 C 37.351562 20.15625 36.960938 20.148438 36.570312 20.113281 C 35.542969 19.898438 34.507812 19.695312 33.472656 19.515625 C 32.917969 19.359375 32.367188 19.199219 31.816406 19.035156 C 30.347656 18.699219 28.867188 18.410156 27.375 18.171875 C 25.574219 17.933594 23.773438 17.683594 21.976562 17.425781 C 20.65625 17.3125 19.335938 17.21875 18.015625 17.152344 C 17.75 17.132812 17.488281 17.117188 17.222656 17.101562 C 17.804688 16.398438 18.378906 15.6875 18.9375 14.964844 C 19.921875 13.519531 20.625 11.941406 21.050781 10.238281 C 21.175781 9.691406 21.210938 9.136719 21.148438 8.582031 C 21.039062 7.777344 20.847656 6.992188 20.570312 6.230469 C 20.492188 6.039062 20.390625 5.855469 20.269531 5.6875 C 21.289062 5.648438 22.308594 5.6875 23.320312 5.808594 C 25.070312 6.070312 26.824219 6.335938 28.578125 6.601562 C 29.777344 6.757812 30.980469 6.90625 32.175781 7.046875 Z M 32.175781 7.046875 "/>
<path style=" stroke:none;fill-rule:evenodd;fill:rgb(62.745098%,56.862745%,58.823529%);fill-opacity:1;" d="M 19.597656 6.371094 C 19.636719 6.382812 19.664062 6.40625 19.683594 6.445312 C 19.863281 6.8125 19.992188 7.195312 20.066406 7.597656 C 20.296875 8.523438 20.304688 9.449219 20.089844 10.382812 C 19.640625 11.855469 19 13.238281 18.171875 14.535156 C 17.675781 15.257812 17.210938 16.003906 16.777344 16.765625 C 16.6875 16.875 16.59375 16.984375 16.503906 17.089844 C 16.269531 17.09375 16.039062 17.078125 15.804688 17.042969 C 15.691406 16.957031 15.5625 16.898438 15.421875 16.863281 C 15.914062 15.863281 16.367188 14.847656 16.777344 13.8125 C 17.089844 12.988281 17.402344 12.164062 17.714844 11.34375 C 18.082031 10.273438 18.457031 9.210938 18.84375 8.148438 C 19.074219 7.546875 19.328125 6.957031 19.597656 6.371094 Z M 19.597656 6.371094 "/>
<path style=" stroke:none;fill-rule:evenodd;fill:rgb(96.862745%,96.862745%,96.862745%);fill-opacity:1;" d="M 32.175781 7.046875 C 34.550781 7.300781 36.917969 7.59375 39.28125 7.921875 C 40.941406 8.164062 42.582031 8.496094 44.203125 8.917969 C 44.152344 8.945312 44.097656 8.949219 44.035156 8.929688 C 40.050781 8.300781 36.066406 7.675781 32.082031 7.058594 C 32.113281 7.046875 32.144531 7.042969 32.175781 7.046875 Z M 32.175781 7.046875 "/>
<path style=" stroke:none;fill-rule:evenodd;fill:rgb(98.431373%,98.431373%,98.431373%);fill-opacity:1;" d="M 47.035156 9.757812 C 47.128906 9.753906 47.199219 9.792969 47.25 9.867188 C 47.226562 9.988281 47.222656 10.113281 47.238281 10.238281 C 46.417969 11.597656 45.527344 12.90625 44.574219 14.175781 C 43.605469 15.390625 42.644531 16.617188 41.695312 17.847656 C 41.273438 18.425781 40.855469 19.011719 40.445312 19.597656 C 40.261719 19.804688 40.089844 20.019531 39.929688 20.246094 C 39.839844 20.160156 39.738281 20.101562 39.617188 20.066406 C 39.457031 20.066406 39.296875 20.046875 39.136719 20.007812 C 39.222656 19.867188 39.324219 19.742188 39.4375 19.625 C 39.992188 19.078125 40.535156 18.527344 41.070312 17.96875 C 41.4375 17.503906 41.808594 17.039062 42.175781 16.574219 C 42.921875 15.621094 43.648438 14.652344 44.359375 13.671875 C 44.621094 13.28125 44.878906 12.890625 45.128906 12.492188 C 45.484375 11.851562 45.859375 11.21875 46.253906 10.597656 C 46.488281 10.289062 46.746094 10.007812 47.035156 9.757812 Z M 47.035156 9.757812 "/>
<path style=" stroke:none;fill-rule:evenodd;fill:rgb(99.215686%,99.215686%,99.215686%);fill-opacity:1;" d="M 47.417969 11.988281 C 47.636719 13.019531 47.640625 14.050781 47.429688 15.085938 C 47.117188 16.117188 46.660156 17.074219 46.0625 17.96875 C 45.5625 18.617188 44.992188 19.199219 44.347656 19.707031 C 43.601562 20.253906 42.765625 20.578125 41.839844 20.679688 C 41.664062 20.675781 41.492188 20.648438 41.324219 20.59375 C 41.246094 20.363281 41.109375 20.1875 40.902344 20.078125 C 42.261719 18.496094 43.621094 16.910156 44.984375 15.328125 C 45.855469 14.257812 46.667969 13.144531 47.417969 11.988281 Z M 47.417969 11.988281 "/>
<path style=" stroke:none;fill-rule:evenodd;fill:rgb(96.078431%,95.686275%,95.686275%);fill-opacity:1;" d="M 43.628906 13.335938 C 42.980469 14.210938 42.335938 15.089844 41.695312 15.972656 C 41.285156 16.628906 40.84375 17.257812 40.375 17.871094 C 40.078125 18.191406 39.789062 18.519531 39.511719 18.855469 C 39.273438 19.199219 39.050781 19.550781 38.839844 19.910156 C 38.820312 19.929688 38.800781 19.9375 38.777344 19.933594 C 38.71875 19.914062 38.65625 19.902344 38.585938 19.898438 C 40.261719 17.707031 41.941406 15.519531 43.628906 13.335938 Z M 43.628906 13.335938 "/>
<path style=" stroke:none;fill-rule:evenodd;fill:rgb(26.666667%,23.921569%,25.098039%);fill-opacity:1;" d="M 17.222656 17.101562 C 17.488281 17.117188 17.75 17.132812 18.015625 17.152344 C 17.742188 17.160156 17.46875 17.152344 17.199219 17.125 C 17.203125 17.113281 17.210938 17.105469 17.222656 17.101562 Z M 17.222656 17.101562 "/>
<path style=" stroke:none;fill-rule:evenodd;fill:rgb(99.607843%,99.607843%,99.607843%);fill-opacity:1;" d="M 15.207031 17.679688 C 15.296875 17.753906 15.398438 17.792969 15.519531 17.785156 C 15.597656 17.824219 15.667969 17.875 15.734375 17.929688 C 15.839844 17.945312 15.941406 17.941406 16.046875 17.917969 C 16.238281 17.957031 16.429688 17.992188 16.621094 18.027344 C 18.363281 18.089844 20.101562 18.226562 21.832031 18.433594 C 24.710938 18.824219 27.574219 19.296875 30.425781 19.851562 C 31.25 20.035156 32.066406 20.261719 32.875 20.523438 C 33.96875 20.734375 35.054688 20.964844 36.136719 21.21875 C 36.957031 21.351562 37.777344 21.363281 38.597656 21.253906 C 38.785156 21.257812 38.964844 21.296875 39.136719 21.363281 C 38.476562 21.875 37.855469 22.4375 37.277344 23.054688 C 36.867188 23.515625 36.453125 23.976562 36.042969 24.4375 C 35.234375 24.46875 34.425781 24.476562 33.617188 24.460938 C 31.621094 24.332031 29.628906 24.148438 27.640625 23.90625 C 23.558594 23.402344 19.492188 22.816406 15.433594 22.144531 C 15.445312 21.960938 15.445312 21.777344 15.433594 21.589844 C 15.390625 21.34375 15.339844 21.09375 15.289062 20.847656 C 15.292969 20.167969 15.292969 19.488281 15.289062 18.808594 C 15.261719 18.429688 15.234375 18.054688 15.207031 17.679688 Z M 15.207031 17.679688 "/>
<path style=" stroke:none;fill-rule:evenodd;fill:rgb(62.745098%,56.862745%,58.823529%);fill-opacity:1;" d="M 2.988281 20.773438 C 3.398438 20.664062 3.808594 20.554688 4.210938 20.4375 C 5.695312 20.117188 7.175781 19.769531 8.652344 19.394531 C 10.140625 19.003906 11.628906 18.621094 13.117188 18.242188 C 13.601562 18.109375 14.082031 17.96875 14.558594 17.824219 C 14.503906 18.824219 14.46875 19.824219 14.449219 20.824219 C 14.535156 21.21875 14.59375 21.621094 14.628906 22.023438 C 12.488281 21.695312 10.335938 21.4375 8.171875 21.242188 C 6.867188 21.160156 5.5625 21.070312 4.261719 20.980469 C 3.988281 20.945312 3.71875 20.914062 3.445312 20.882812 C 3.285156 20.863281 3.132812 20.828125 2.988281 20.773438 Z M 2.988281 20.773438 "/>
<use xlink:href="#surface12" mask="url(#mask2)"/>
<path style=" stroke:none;fill-rule:evenodd;fill:rgb(85.490196%,85.098039%,85.490196%);fill-opacity:1;" d="M 4.210938 20.4375 C 3.808594 20.554688 3.398438 20.664062 2.988281 20.773438 C 2.933594 20.78125 2.886719 20.769531 2.84375 20.738281 C 3.296875 20.621094 3.753906 20.519531 4.210938 20.4375 Z M 4.210938 20.4375 "/>
<path style=" stroke:none;fill-rule:evenodd;fill:rgb(99.607843%,99.607843%,99.607843%);fill-opacity:1;" d="M 1.859375 21.160156 C 2.296875 21.332031 2.746094 21.46875 3.203125 21.578125 C 3.476562 21.621094 3.75 21.660156 4.019531 21.699219 C 6.804688 21.855469 9.582031 22.105469 12.351562 22.445312 C 15.722656 22.917969 19.09375 23.421875 22.457031 23.957031 C 25.859375 24.46875 29.277344 24.871094 32.707031 25.15625 C 33.695312 25.226562 34.683594 25.230469 35.667969 25.167969 C 35.722656 25.175781 35.773438 25.183594 35.824219 25.191406 C 35.914062 25.351562 36.050781 25.433594 36.234375 25.433594 C 36.242188 25.960938 36.253906 26.488281 36.269531 27.015625 C 36.425781 28.882812 36.585938 30.746094 36.75 32.609375 C 36.75 33.753906 36.773438 34.898438 36.820312 36.042969 C 36.878906 36.742188 36.996094 37.429688 37.183594 38.105469 C 37.246094 38.464844 37.300781 38.824219 37.339844 39.1875 C 36.003906 39.066406 34.667969 38.980469 33.328125 38.933594 C 31.691406 38.785156 30.050781 38.6875 28.410156 38.644531 C 27.335938 38.628906 26.265625 38.636719 25.191406 38.671875 C 23.65625 38.746094 22.121094 38.8125 20.582031 38.863281 C 18.371094 38.96875 16.179688 38.816406 14.007812 38.40625 C 13.492188 38.308594 12.980469 38.207031 12.46875 38.09375 C 11.089844 37.765625 9.707031 37.453125 8.316406 37.15625 C 6.945312 36.871094 5.5625 36.660156 4.164062 36.535156 C 3.566406 36.496094 2.964844 36.492188 2.363281 36.523438 C 2.289062 36.523438 2.21875 36.511719 2.148438 36.484375 C 2.078125 36.386719 2.027344 36.28125 1.992188 36.160156 C 1.535156 34.339844 1.382812 32.492188 1.535156 30.617188 C 1.628906 29.28125 1.710938 27.945312 1.777344 26.609375 C 1.792969 25.234375 1.789062 23.863281 1.765625 22.492188 C 1.75 22.042969 1.78125 21.601562 1.859375 21.160156 Z M 1.859375 21.160156 "/>
<path style=" stroke:none;fill-rule:evenodd;fill:rgb(94.509804%,92.941176%,90.196078%);fill-opacity:1;" d="M 40.363281 34.839844 C 40.339844 34.859375 40.324219 34.882812 40.3125 34.914062 C 40.292969 34.933594 40.277344 34.957031 40.265625 34.984375 C 40.246094 35.003906 40.230469 35.027344 40.21875 35.058594 C 40.199219 35.066406 40.191406 35.082031 40.195312 35.105469 C 40.179688 35.105469 40.171875 35.113281 40.171875 35.128906 C 40.148438 35.136719 40.140625 35.152344 40.144531 35.175781 C 40.128906 35.175781 40.121094 35.1875 40.121094 35.203125 C 40.101562 35.210938 40.09375 35.226562 40.097656 35.25 C 40.082031 35.25 40.074219 35.257812 40.074219 35.273438 C 40.054688 35.28125 40.046875 35.296875 40.050781 35.320312 C 40.035156 35.320312 40.027344 35.328125 40.027344 35.34375 C 40.007812 35.355469 40 35.371094 40.003906 35.394531 C 39.984375 35.394531 39.976562 35.402344 39.976562 35.417969 C 39.957031 35.425781 39.949219 35.441406 39.953125 35.464844 C 39.9375 35.464844 39.929688 35.472656 39.929688 35.488281 C 39.910156 35.496094 39.902344 35.515625 39.90625 35.539062 C 39.890625 35.539062 39.882812 35.546875 39.882812 35.5625 C 39.863281 35.570312 39.855469 35.585938 39.859375 35.609375 C 39.835938 35.628906 39.820312 35.652344 39.808594 35.683594 C 39.789062 35.699219 39.773438 35.726562 39.761719 35.753906 C 39.257812 36.476562 38.769531 37.210938 38.296875 37.960938 C 38.273438 37.992188 38.25 38.023438 38.226562 38.058594 C 37.941406 37.183594 37.785156 36.289062 37.757812 35.371094 C 37.789062 33.667969 37.699219 31.972656 37.492188 30.28125 C 37.226562 28.320312 37.003906 26.363281 36.820312 24.398438 C 37.425781 23.835938 38.039062 23.277344 38.65625 22.730469 C 39.0625 22.414062 39.476562 22.105469 39.894531 21.808594 C 40.03125 22.4375 40.160156 23.070312 40.277344 23.703125 C 40.625 25.957031 40.953125 28.214844 41.261719 30.472656 C 41.308594 30.824219 41.382812 31.167969 41.480469 31.503906 C 41.425781 31.796875 41.523438 32.011719 41.777344 32.152344 C 41.640625 32.566406 41.46875 32.96875 41.261719 33.351562 C 40.976562 33.859375 40.675781 34.355469 40.363281 34.839844 Z M 40.363281 34.839844 "/>
<path style=" stroke:none;fill-rule:evenodd;fill:rgb(66.666667%,23.137255%,18.039216%);fill-opacity:1;" d="M 19.480469 30.015625 C 19.457031 30.828125 19.445312 31.644531 19.457031 32.464844 C 18.847656 32.464844 18.238281 32.464844 17.628906 32.464844 C 17.640625 31.625 17.628906 30.785156 17.605469 29.945312 C 17.085938 29.558594 16.847656 29.035156 16.898438 28.382812 C 17.039062 27.507812 17.546875 27 18.421875 26.859375 C 19.246094 26.816406 19.835938 27.164062 20.1875 27.90625 C 20.441406 28.65625 20.285156 29.308594 19.71875 29.859375 C 19.640625 29.917969 19.5625 29.972656 19.480469 30.015625 Z M 19.480469 30.015625 "/>
<path style=" stroke:none;fill-rule:evenodd;fill:rgb(80.784314%,56.862745%,54.509804%);fill-opacity:1;" d="M 19.480469 30.015625 C 19.480469 30.839844 19.480469 31.664062 19.480469 32.488281 C 18.859375 32.496094 18.242188 32.488281 17.628906 32.464844 C 18.238281 32.464844 18.847656 32.464844 19.457031 32.464844 C 19.445312 31.644531 19.457031 30.828125 19.480469 30.015625 Z M 19.480469 30.015625 "/>
<use xlink:href="#surface15" mask="url(#mask3)"/>
</g>
</svg>
