<?xml version="1.0" encoding="UTF-8"?>
<svg xmlns="http://www.w3.org/2000/svg" xmlns:xlink="http://www.w3.org/1999/xlink" width="50pt" height="50pt" viewBox="0 0 50 50" version="1.1">
<defs>
<filter id="alpha" filterUnits="objectBoundingBox" x="0%" y="0%" width="100%" height="100%">
  <feColorMatrix type="matrix" in="SourceGraphic" values="0 0 0 0 1 0 0 0 0 1 0 0 0 0 1 0 0 0 1 0"/>
</filter>
<mask id="mask0">
  <g filter="url(#alpha)">
<rect x="0" y="0" width="50" height="50" style="fill:rgb(0%,0%,0%);fill-opacity:0.945098;stroke:none;"/>
  </g>
</mask>
<clipPath id="clip1">
  <rect width="50" height="50"/>
</clipPath>
<g id="surface6" clip-path="url(#clip1)">
<path style=" stroke:none;fill-rule:evenodd;fill:rgb(0%,0%,0%);fill-opacity:1;" d="M 15.28125 0.121094 C 18.5625 0.875 21.882812 1.496094 25.238281 1.992188 C 25.414062 1.910156 25.597656 1.863281 25.792969 1.847656 C 26.9375 2.027344 28.089844 2.160156 29.246094 2.253906 C 30.113281 2.414062 30.976562 2.59375 31.835938 2.78125 C 32.785156 2.878906 33.730469 3.007812 34.667969 3.167969 C 36.011719 3.476562 37.355469 3.773438 38.699219 4.054688 C 38.792969 4.253906 38.816406 4.460938 38.773438 4.679688 C 38.429688 5.707031 38.125 6.746094 37.859375 7.796875 C 37.621094 9.414062 37.390625 11.027344 37.164062 12.644531 C 38.042969 14.707031 38.964844 16.753906 39.921875 18.785156 C 40.125 19.347656 40.1875 19.921875 40.113281 20.511719 C 40 21.035156 39.855469 21.546875 39.683594 22.050781 C 38.914062 24.074219 38.160156 26.105469 37.429688 28.144531 C 37.246094 28.769531 37.136719 29.410156 37.09375 30.0625 C 37.054688 31.503906 37.007812 32.941406 36.949219 34.382812 C 36.332031 39.4375 35.707031 44.492188 35.078125 49.542969 C 34.9375 49.761719 34.738281 49.851562 34.476562 49.808594 C 34.261719 49.746094 34.183594 49.605469 34.238281 49.375 C 34.851562 44.34375 35.464844 39.316406 36.085938 34.285156 C 36.160156 32.6875 36.226562 31.085938 36.277344 29.488281 C 36.351562 28.914062 36.480469 28.355469 36.660156 27.808594 C 37.503906 25.515625 38.320312 23.210938 39.109375 20.898438 C 39.304688 20.1875 39.242188 19.5 38.914062 18.832031 C 38.257812 17.347656 37.605469 15.859375 36.949219 14.371094 C 36.714844 15.472656 36.515625 16.585938 36.347656 17.707031 C 36.417969 17.703125 36.460938 17.757812 36.46875 17.875 C 36.789062 17.570312 37.148438 17.511719 37.546875 17.707031 C 37.824219 17.992188 37.992188 18.335938 38.050781 18.738281 C 38.082031 18.929688 38.105469 19.121094 38.125 19.3125 C 38.035156 19.847656 37.957031 20.382812 37.882812 20.921875 C 37.90625 21.457031 38.039062 21.960938 38.292969 22.433594 C 38.355469 22.894531 38.15625 23.0625 37.691406 22.9375 C 37.523438 22.738281 37.417969 22.503906 37.378906 22.242188 C 37.253906 21.777344 37.183594 21.304688 37.164062 20.824219 C 37.210938 20.332031 37.289062 19.84375 37.402344 19.363281 C 37.378906 19.03125 37.304688 18.710938 37.1875 18.402344 C 37.160156 18.378906 37.128906 18.359375 37.09375 18.355469 C 36.832031 18.554688 36.640625 18.808594 36.515625 19.121094 C 35.621094 21.304688 35.339844 23.570312 35.675781 25.910156 C 35.695312 26.324219 35.503906 26.46875 35.101562 26.34375 C 35.027344 26.285156 34.96875 26.214844 34.933594 26.128906 C 34.925781 25.316406 34.902344 24.507812 34.859375 23.703125 C 33.726562 23.644531 32.589844 23.613281 31.453125 23.609375 C 31.050781 23.589844 30.652344 23.550781 30.253906 23.488281 C 30.230469 23.648438 30.183594 23.800781 30.109375 23.945312 C 30.3125 25.316406 30.519531 26.683594 30.734375 28.046875 C 30.929688 28.148438 31.023438 28.308594 31.023438 28.527344 C 31 28.695312 30.96875 28.863281 30.925781 29.03125 C 31.007812 29.339844 31.0625 29.648438 31.09375 29.964844 C 31.125 30.652344 31.125 31.34375 31.09375 32.03125 C 30.902344 33.609375 30.757812 35.191406 30.664062 36.78125 C 30.160156 39.953125 29.617188 43.121094 29.03125 46.28125 C 28.777344 46.574219 28.625 46.535156 28.574219 46.160156 C 28.714844 45.253906 28.875 44.351562 29.054688 43.449219 C 29.011719 43.335938 28.980469 43.214844 28.957031 43.089844 C 29.40625 40.871094 29.78125 38.640625 30.085938 36.394531 C 30.207031 34.539062 30.359375 32.683594 30.542969 30.832031 C 30.570312 30.027344 30.402344 29.261719 30.039062 28.527344 C 29.984375 28.320312 29.933594 28.113281 29.894531 27.902344 C 29.726562 26.394531 29.519531 24.890625 29.269531 23.390625 C 29.003906 23.273438 28.726562 23.183594 28.429688 23.128906 C 26.183594 22.648438 23.945312 22.152344 21.714844 21.640625 C 21.527344 21.394531 21.480469 21.121094 21.570312 20.824219 C 19.921875 20.503906 18.273438 20.191406 16.625 19.890625 C 16.648438 20.445312 16.734375 20.988281 16.890625 21.519531 C 17.097656 22.175781 17.304688 22.832031 17.515625 23.488281 C 18.945312 28.703125 20.378906 33.917969 21.808594 39.132812 C 21.699219 39.453125 21.476562 39.574219 21.136719 39.492188 C 21.035156 39.453125 20.960938 39.378906 20.921875 39.277344 C 19.203125 33.058594 17.507812 26.835938 15.835938 20.609375 C 15.792969 20.308594 15.769531 20.003906 15.761719 19.699219 C 15.433594 19.65625 15.105469 19.609375 14.777344 19.554688 C 14.601562 19.539062 14.464844 19.613281 14.371094 19.769531 C 14.148438 19.90625 13.925781 19.914062 13.699219 19.792969 C 13.597656 19.667969 13.582031 19.53125 13.652344 19.386719 C 13.070312 19.128906 12.871094 18.6875 13.050781 18.066406 C 13.132812 17.796875 13.203125 17.523438 13.269531 17.25 C 13.023438 17.308594 12.785156 17.378906 12.546875 17.464844 C 12.050781 17.496094 11.941406 17.300781 12.210938 16.890625 C 12.648438 16.753906 13.074219 16.585938 13.484375 16.386719 C 13.515625 16.324219 13.507812 16.269531 13.460938 16.21875 C 13.179688 16.085938 12.910156 15.941406 12.644531 15.785156 C 12.519531 15.625 12.535156 15.472656 12.691406 15.332031 C 13.078125 15.054688 13.472656 14.78125 13.867188 14.515625 C 13.953125 14.089844 14.042969 13.664062 14.132812 13.242188 C 13.945312 13.207031 13.761719 13.214844 13.578125 13.269531 C 13.1875 13.1875 13.117188 12.988281 13.363281 12.667969 C 13.671875 12.558594 13.96875 12.421875 14.25 12.261719 C 14.371094 11.527344 14.476562 10.789062 14.5625 10.054688 C 13.570312 10.273438 12.628906 10.625 11.730469 11.109375 C 11.433594 12.304688 11.28125 13.519531 11.277344 14.753906 C 11.0625 21.390625 10.871094 28.03125 10.699219 34.667969 C 10.59375 34.890625 10.417969 34.984375 10.171875 34.957031 C 10.070312 34.957031 9.976562 34.9375 9.886719 34.910156 C 10.003906 27.53125 10.226562 20.160156 10.554688 12.789062 C 10.617188 12.304688 10.695312 11.824219 10.796875 11.347656 C 10.863281 11.136719 11.007812 11.007812 11.226562 10.964844 C 11.195312 10.851562 11.210938 10.738281 11.277344 10.628906 C 12.273438 10.050781 13.335938 9.644531 14.46875 9.40625 C 14.542969 9.390625 14.597656 9.351562 14.636719 9.285156 C 14.90625 6.425781 14.992188 3.5625 14.898438 0.695312 C 14.8125 0.695312 14.734375 0.671875 14.660156 0.625 C 14.804688 0.527344 14.917969 0.398438 14.996094 0.238281 C 15.097656 0.199219 15.191406 0.160156 15.28125 0.121094 Z M 15.761719 0.886719 C 19.039062 1.679688 22.347656 2.261719 25.695312 2.640625 C 25.738281 2.621094 25.78125 2.597656 25.816406 2.566406 C 26.21875 2.65625 26.625 2.730469 27.039062 2.78125 C 28.792969 2.878906 30.523438 3.148438 32.222656 3.597656 C 33.148438 3.714844 34.078125 3.828125 35.003906 3.933594 C 35.683594 4.105469 36.355469 4.300781 37.019531 4.511719 C 37.324219 4.53125 37.628906 4.5625 37.933594 4.605469 C 37.847656 5.164062 37.695312 5.714844 37.476562 6.261719 C 37.472656 7.355469 37.3125 8.429688 36.996094 9.476562 C 36.882812 10.4375 36.757812 11.398438 36.613281 12.355469 C 36.28125 12.542969 36.210938 12.804688 36.394531 13.148438 C 35.808594 16.394531 35.265625 19.648438 34.765625 22.914062 C 34.699219 22.929688 34.636719 22.945312 34.574219 22.960938 C 34.253906 22.929688 33.933594 22.90625 33.613281 22.890625 C 33.425781 22.886719 33.25 22.847656 33.085938 22.769531 C 33.039062 22.792969 32.988281 22.816406 32.941406 22.839844 C 32.605469 22.847656 32.269531 22.855469 31.933594 22.863281 C 31.113281 22.835938 30.296875 22.796875 29.488281 22.746094 C 28.757812 22.605469 28.039062 22.429688 27.328125 22.21875 C 26.832031 22.140625 26.335938 22.058594 25.839844 21.976562 C 25.5 21.878906 25.179688 21.734375 24.878906 21.546875 C 24.59375 21.527344 24.304688 21.511719 24.015625 21.496094 C 23.410156 21.347656 22.804688 21.210938 22.191406 21.089844 C 22.191406 21.042969 22.191406 20.992188 22.191406 20.945312 C 22.550781 21.097656 22.878906 21.050781 23.175781 20.800781 C 23.265625 20.550781 23.175781 20.417969 22.914062 20.394531 C 20.875 20.023438 18.84375 19.628906 16.820312 19.21875 C 17.035156 18.863281 17.140625 18.476562 17.128906 18.066406 C 17.027344 17.707031 16.792969 17.472656 16.433594 17.371094 C 15.648438 17.230469 15.019531 17.480469 14.539062 18.113281 C 14.15625 18.84375 13.964844 18.796875 13.964844 17.96875 C 14.074219 17.589844 14.171875 17.207031 14.25 16.820312 C 14.425781 16.660156 14.601562 16.5 14.777344 16.339844 C 14.8125 16.242188 14.8125 16.148438 14.777344 16.050781 C 14.667969 15.976562 14.566406 15.894531 14.46875 15.8125 C 14.542969 15.492188 14.613281 15.171875 14.683594 14.851562 C 15.003906 14.617188 15.308594 14.363281 15.59375 14.082031 C 15.851562 13.433594 15.667969 12.960938 15.042969 12.667969 C 15.902344 12.035156 16.546875 11.226562 16.988281 10.246094 C 17.128906 9.957031 17.195312 9.652344 17.179688 9.332031 C 17.136719 9.273438 17.078125 9.234375 17.011719 9.214844 C 16.515625 9.183594 16.019531 9.191406 15.523438 9.238281 C 15.761719 6.457031 15.839844 3.675781 15.761719 0.886719 Z M 19.363281 4.246094 C 20.109375 4.21875 20.863281 4.273438 21.617188 4.414062 C 22.554688 4.578125 23.480469 4.789062 24.398438 5.039062 C 27.621094 5.976562 30.835938 6.9375 34.046875 7.917969 C 34.113281 7.976562 34.160156 8.050781 34.1875 8.132812 C 29.246094 6.84375 24.300781 5.550781 19.363281 4.246094 Z M 15.667969 9.859375 C 15.859375 9.851562 16.050781 9.859375 16.242188 9.886719 C 16.019531 10.484375 15.691406 11.019531 15.257812 11.492188 C 15.3125 10.964844 15.367188 10.4375 15.425781 9.910156 C 15.519531 9.921875 15.597656 9.90625 15.667969 9.859375 Z M 17.683594 14.804688 C 17.683594 15.171875 17.683594 15.539062 17.683594 15.90625 C 17.605469 15.890625 17.554688 15.84375 17.539062 15.761719 C 17.578125 15.433594 17.628906 15.117188 17.683594 14.804688 Z M 15.90625 18.019531 C 16.097656 18.09375 16.175781 18.238281 16.148438 18.449219 C 16.140625 18.703125 16.042969 18.910156 15.859375 19.074219 C 15.589844 19.015625 15.316406 18.984375 15.042969 18.976562 C 15.046875 18.867188 15.089844 18.773438 15.164062 18.691406 C 15.390625 18.4375 15.640625 18.214844 15.90625 18.019531 Z M 15.90625 18.019531 "/>
</g>
<mask id="mask1">
  <g filter="url(#alpha)">
<rect x="0" y="0" width="50" height="50" style="fill:rgb(0%,0%,0%);fill-opacity:0.972549;stroke:none;"/>
  </g>
</mask>
<clipPath id="clip2">
  <rect width="50" height="50"/>
</clipPath>
<g id="surface9" clip-path="url(#clip2)">
<path style=" stroke:none;fill-rule:evenodd;fill:rgb(0.784314%,0.392157%,0.392157%);fill-opacity:1;" d="M 35.101562 8.375 C 35.070312 8.378906 35.046875 8.394531 35.027344 8.421875 C 34.582031 11.878906 34.117188 15.316406 33.636719 18.738281 C 33.375 18.875 33.09375 18.914062 32.796875 18.859375 C 27.726562 18.339844 22.6875 17.59375 17.683594 16.625 C 17.613281 16.628906 17.550781 16.613281 17.492188 16.578125 C 17.511719 17.125 17.253906 17.359375 16.722656 17.273438 C 16.683594 17.234375 16.644531 17.195312 16.601562 17.15625 C 16.5625 16.917969 16.570312 16.6875 16.625 16.457031 C 16.503906 16.40625 16.375 16.355469 16.242188 16.316406 C 16.191406 16.199219 16.183594 16.078125 16.21875 15.953125 C 16.371094 15.832031 16.53125 15.71875 16.699219 15.617188 C 16.960938 13.257812 17.289062 10.90625 17.683594 8.566406 C 17.953125 7.097656 18.226562 5.628906 18.5 4.152344 C 18.449219 4.15625 18.398438 4.148438 18.355469 4.125 C 18.421875 4.109375 18.472656 4.070312 18.5 4.007812 C 18.601562 3.574219 18.882812 3.398438 19.335938 3.480469 C 21.121094 3.546875 22.875 3.828125 24.59375 4.320312 C 28.054688 5.324219 31.507812 6.347656 34.957031 7.390625 C 35.027344 7.410156 35.082031 7.453125 35.125 7.507812 C 35.140625 7.796875 35.132812 8.085938 35.101562 8.375 Z M 19.363281 4.246094 C 20.109375 4.21875 20.863281 4.273438 21.617188 4.414062 C 22.554688 4.578125 23.480469 4.789062 24.398438 5.039062 C 27.621094 5.976562 30.835938 6.9375 34.046875 7.917969 C 34.113281 7.976562 34.160156 8.050781 34.1875 8.132812 C 29.246094 6.84375 24.300781 5.550781 19.363281 4.246094 Z M 17.683594 14.804688 C 17.683594 15.171875 17.683594 15.539062 17.683594 15.90625 C 17.605469 15.890625 17.554688 15.84375 17.539062 15.761719 C 17.578125 15.433594 17.628906 15.117188 17.683594 14.804688 Z M 17.683594 14.804688 "/>
</g>
<mask id="mask2">
  <g filter="url(#alpha)">
<rect x="0" y="0" width="50" height="50" style="fill:rgb(0%,0%,0%);fill-opacity:0.960784;stroke:none;"/>
  </g>
</mask>
<clipPath id="clip3">
  <rect width="50" height="50"/>
</clipPath>
<g id="surface12" clip-path="url(#clip3)">
<path style=" stroke:none;fill-rule:evenodd;fill:rgb(65.098039%,22.352941%,17.647059%);fill-opacity:1;" d="M 18.5 4.007812 C 18.472656 4.070312 18.421875 4.109375 18.355469 4.125 C 18.398438 4.148438 18.449219 4.15625 18.5 4.152344 C 18.226562 5.628906 17.953125 7.097656 17.683594 8.566406 C 17.683594 6.980469 17.683594 5.398438 17.683594 3.816406 C 17.957031 3.871094 18.226562 3.933594 18.5 4.007812 Z M 18.5 4.007812 "/>
</g>
<mask id="mask3">
  <g filter="url(#alpha)">
<rect x="0" y="0" width="50" height="50" style="fill:rgb(0%,0%,0%);fill-opacity:0.996078;stroke:none;"/>
  </g>
</mask>
<clipPath id="clip4">
  <rect width="50" height="50"/>
</clipPath>
<g id="surface15" clip-path="url(#clip4)">
<path style=" stroke:none;fill-rule:evenodd;fill:rgb(66.27451%,22.745098%,17.647059%);fill-opacity:1;" d="M 19.363281 4.246094 C 24.300781 5.550781 29.246094 6.84375 34.1875 8.132812 C 34.242188 8.386719 34.25 8.640625 34.214844 8.902344 C 33.738281 11.980469 33.3125 15.070312 32.941406 18.164062 C 27.808594 17.691406 22.722656 16.9375 17.683594 15.90625 C 17.683594 15.539062 17.683594 15.171875 17.683594 14.804688 C 18.042969 11.273438 18.578125 7.773438 19.289062 4.292969 C 19.308594 4.269531 19.332031 4.25 19.363281 4.246094 Z M 19.363281 4.246094 "/>
</g>
<mask id="mask4">
  <g filter="url(#alpha)">
<rect x="0" y="0" width="50" height="50" style="fill:rgb(0%,0%,0%);fill-opacity:0.972549;stroke:none;"/>
  </g>
</mask>
<clipPath id="clip5">
  <rect width="50" height="50"/>
</clipPath>
<g id="surface18" clip-path="url(#clip5)">
<path style=" stroke:none;fill-rule:evenodd;fill:rgb(65.882353%,22.745098%,17.647059%);fill-opacity:1;" d="M 35.101562 8.375 C 35.269531 8.4375 35.445312 8.492188 35.628906 8.542969 C 35.675781 8.566406 35.710938 8.605469 35.722656 8.660156 C 35.074219 12.390625 34.417969 16.117188 33.757812 19.839844 C 28.398438 19.238281 23.042969 18.597656 17.683594 17.921875 C 17.683594 17.492188 17.683594 17.058594 17.683594 16.625 C 22.6875 17.59375 27.726562 18.339844 32.796875 18.859375 C 33.09375 18.914062 33.375 18.875 33.636719 18.738281 C 34.117188 15.316406 34.582031 11.878906 35.027344 8.421875 C 35.046875 8.394531 35.070312 8.378906 35.101562 8.375 Z M 35.101562 8.375 "/>
</g>
</defs>
<g id="surface1">
<use xlink:href="#surface6" mask="url(#mask0)"/>
<use xlink:href="#surface9" mask="url(#mask1)"/>
<use xlink:href="#surface12" mask="url(#mask2)"/>
<use xlink:href="#surface15" mask="url(#mask3)"/>
<use xlink:href="#surface18" mask="url(#mask4)"/>
<path style=" stroke:none;fill-rule:evenodd;fill:rgb(1.960784%,2.352941%,2.352941%);fill-opacity:1;" d="M 11.15625 11.347656 C 11.210938 11.335938 11.261719 11.355469 11.300781 11.394531 C 11.085938 12.375 10.964844 13.367188 10.941406 14.371094 C 10.738281 21.105469 10.527344 27.839844 10.316406 34.574219 C 10.296875 34.59375 10.273438 34.609375 10.246094 34.621094 C 10.230469 34.445312 10.210938 34.269531 10.195312 34.09375 C 10.375 27.519531 10.574219 20.945312 10.796875 14.371094 C 10.824219 13.351562 10.945312 12.34375 11.15625 11.347656 Z M 11.15625 11.347656 "/>
<path style=" stroke:none;fill-rule:evenodd;fill:rgb(1.960784%,2.352941%,2.352941%);fill-opacity:1;" d="M 16.148438 17.730469 C 16.648438 17.722656 16.851562 17.980469 16.746094 18.5 C 16.5625 18.851562 16.417969 19.21875 16.316406 19.601562 C 16.265625 20.167969 16.3125 20.730469 16.457031 21.28125 C 16.671875 22.003906 16.898438 22.722656 17.128906 23.441406 C 18.558594 28.648438 19.988281 33.855469 21.425781 39.058594 C 21.402344 39.117188 21.359375 39.15625 21.304688 39.179688 C 19.613281 33.140625 17.933594 27.09375 16.265625 21.042969 C 16.160156 20.535156 16.125 20.023438 16.171875 19.503906 C 16.332031 19.167969 16.453125 18.816406 16.53125 18.449219 C 16.503906 18.25 16.449219 18.058594 16.363281 17.875 C 16.308594 17.796875 16.238281 17.746094 16.148438 17.730469 Z M 16.148438 17.730469 "/>
</g>
</svg>
