<?xml version="1.0" encoding="UTF-8"?>
<svg xmlns="http://www.w3.org/2000/svg" xmlns:xlink="http://www.w3.org/1999/xlink" width="50pt" height="50pt" viewBox="0 0 50 50" version="1.1">
<defs>
<filter id="alpha" filterUnits="objectBoundingBox" x="0%" y="0%" width="100%" height="100%">
  <feColorMatrix type="matrix" in="SourceGraphic" values="0 0 0 0 1 0 0 0 0 1 0 0 0 0 1 0 0 0 1 0"/>
</filter>
<mask id="mask0">
  <g filter="url(#alpha)">
<rect x="0" y="0" width="50" height="50" style="fill:rgb(0%,0%,0%);fill-opacity:0.988235;stroke:none;"/>
  </g>
</mask>
<clipPath id="clip1">
  <rect width="50" height="50"/>
</clipPath>
<g id="surface6" clip-path="url(#clip1)">
<path style=" stroke:none;fill-rule:evenodd;fill:rgb(66.666667%,23.529412%,18.431373%);fill-opacity:1;" d="M 29.871094 2.652344 C 29.785156 3.003906 29.601562 3.292969 29.320312 3.515625 C 28.949219 3.753906 28.539062 3.898438 28.097656 3.949219 C 28.03125 4.421875 27.953125 4.894531 27.867188 5.363281 C 27.734375 5.570312 27.546875 5.644531 27.304688 5.59375 C 27.152344 5.550781 27.042969 5.460938 26.980469 5.316406 C 26.914062 5.074219 26.882812 4.824219 26.882812 4.574219 C 26.832031 4.339844 26.777344 4.109375 26.714844 3.875 C 26.542969 3.796875 26.371094 3.710938 26.199219 3.625 C 26.097656 3.5625 26 3.488281 25.914062 3.410156 C 25.890625 3.398438 25.867188 3.394531 25.839844 3.398438 C 25.769531 3.28125 25.695312 3.171875 25.613281 3.058594 C 25.519531 2.902344 25.449219 2.734375 25.40625 2.554688 C 25.289062 1.777344 25.601562 1.269531 26.34375 1.03125 C 26.515625 0.894531 26.710938 0.835938 26.933594 0.851562 C 27.496094 0.914062 28.058594 0.964844 28.625 1.007812 C 29.375 1.175781 29.800781 1.640625 29.898438 2.398438 C 29.886719 2.484375 29.875 2.566406 29.871094 2.652344 Z M 29.871094 2.652344 "/>
</g>
<mask id="mask1">
  <g filter="url(#alpha)">
<rect x="0" y="0" width="50" height="50" style="fill:rgb(0%,0%,0%);fill-opacity:0.992157;stroke:none;"/>
  </g>
</mask>
<clipPath id="clip2">
  <rect width="50" height="50"/>
</clipPath>
<g id="surface9" clip-path="url(#clip2)">
<path style=" stroke:none;fill-rule:evenodd;fill:rgb(0.392157%,0.392157%,0.392157%);fill-opacity:1;" d="M 44.273438 6.589844 C 44.566406 14.863281 44.867188 23.136719 45.175781 31.410156 C 45.328125 35.554688 45.445312 39.699219 45.535156 43.84375 C 45.445312 44.15625 45.242188 44.296875 44.921875 44.261719 C 44.304688 43.90625 43.730469 43.488281 43.195312 43.015625 C 42.355469 42.285156 41.542969 41.523438 40.757812 40.722656 C 40.714844 40.796875 40.6875 40.875 40.675781 40.960938 C 40.132812 42.609375 39.429688 44.183594 38.574219 45.691406 C 38.339844 45.945312 38.089844 45.960938 37.828125 45.738281 C 37.679688 45.527344 37.515625 45.328125 37.339844 45.140625 C 37.339844 45.113281 37.335938 45.089844 37.324219 45.066406 C 36.804688 44.414062 36.28125 43.765625 35.753906 43.121094 C 35.464844 42.789062 35.191406 42.445312 34.925781 42.089844 C 34.902344 42.0625 34.882812 42.0625 34.867188 42.089844 C 33.957031 44.261719 33.007812 46.414062 32.019531 48.546875 C 31.882812 48.683594 31.71875 48.726562 31.527344 48.679688 C 31.441406 48.660156 31.371094 48.617188 31.3125 48.546875 C 30.972656 47.972656 30.628906 47.40625 30.28125 46.84375 C 29.371094 45.261719 28.433594 43.691406 27.472656 42.140625 C 27.246094 41.757812 27.027344 41.375 26.8125 40.988281 C 25.972656 42.15625 25.132812 43.324219 24.292969 44.492188 C 24.042969 44.765625 23.785156 44.773438 23.523438 44.515625 C 22.84375 43.425781 22.152344 42.34375 21.449219 41.273438 C 20.582031 43.085938 19.6875 44.886719 18.769531 46.675781 C 18.667969 46.949219 18.46875 47.058594 18.183594 47 C 18.085938 46.96875 18.003906 46.914062 17.929688 46.84375 C 16.617188 44.9375 15.304688 43.035156 13.996094 41.128906 C 13.929688 41.03125 13.851562 40.945312 13.765625 40.867188 C 13.214844 41.214844 12.695312 41.601562 12.207031 42.03125 C 11.589844 42.476562 10.984375 42.933594 10.382812 43.398438 C 10.1875 43.523438 9.976562 43.597656 9.746094 43.628906 C 9.601562 43.625 9.503906 43.5625 9.445312 43.433594 C 9.234375 43.425781 9.09375 43.320312 9.027344 43.121094 C 9.007812 41.617188 9.019531 40.113281 9.0625 38.609375 C 9.226562 32.433594 9.246094 26.257812 9.121094 20.078125 C 8.964844 15.355469 8.664062 10.640625 8.222656 5.941406 C 8.152344 5.082031 8.082031 4.21875 8.003906 3.359375 C 8.011719 3.25 8.046875 3.148438 8.113281 3.058594 C 8.207031 2.996094 8.304688 2.941406 8.414062 2.90625 C 9.339844 2.929688 10.269531 2.96875 11.199219 3.023438 C 11.667969 3.039062 12.140625 3.039062 12.613281 3.023438 C 14.125 2.917969 15.640625 2.808594 17.152344 2.6875 C 18.71875 2.578125 20.285156 2.519531 21.855469 2.507812 C 22.644531 2.503906 23.433594 2.527344 24.21875 2.582031 C 24.613281 2.570312 25.007812 2.5625 25.40625 2.554688 C 25.449219 2.734375 25.519531 2.902344 25.613281 3.058594 C 25.695312 3.171875 25.769531 3.28125 25.839844 3.398438 C 25.429688 3.402344 25.023438 3.429688 24.617188 3.480469 C 22.824219 3.488281 21.03125 3.496094 19.238281 3.503906 C 18.742188 3.515625 18.246094 3.53125 17.75 3.550781 C 15.933594 3.675781 14.117188 3.804688 12.300781 3.9375 C 11.171875 3.996094 10.054688 3.929688 8.941406 3.734375 C 9.203125 6.585938 9.4375 9.445312 9.648438 12.300781 C 9.898438 16.265625 10.042969 20.234375 10.082031 24.207031 C 10.097656 27.296875 10.097656 30.386719 10.082031 33.472656 C 10.058594 36.425781 9.988281 39.378906 9.878906 42.332031 C 9.847656 42.429688 9.847656 42.535156 9.878906 42.644531 C 9.890625 42.640625 9.898438 42.632812 9.902344 42.617188 C 10.921875 41.894531 11.914062 41.132812 12.878906 40.328125 C 13.085938 40.15625 13.316406 40.027344 13.574219 39.941406 C 13.871094 39.882812 14.132812 39.945312 14.367188 40.132812 C 14.5 40.273438 14.625 40.421875 14.738281 40.578125 C 15.890625 42.296875 17.058594 44 18.242188 45.691406 C 19.222656 43.816406 20.160156 41.921875 21.050781 40.003906 C 21.273438 39.816406 21.496094 39.816406 21.722656 40.003906 C 22.460938 41.15625 23.195312 42.308594 23.933594 43.457031 C 24.746094 42.324219 25.5625 41.1875 26.378906 40.050781 C 26.554688 39.898438 26.75 39.867188 26.96875 39.953125 C 27.085938 39.976562 27.183594 40.03125 27.269531 40.121094 C 27.453125 40.394531 27.636719 40.667969 27.820312 40.9375 C 28.808594 42.597656 29.796875 44.253906 30.785156 45.90625 C 31.046875 46.355469 31.3125 46.804688 31.578125 47.25 C 31.59375 47.285156 31.609375 47.285156 31.625 47.25 C 32.574219 45.167969 33.492188 43.074219 34.375 40.960938 C 34.53125 40.71875 34.746094 40.65625 35.007812 40.78125 C 35.101562 40.894531 35.199219 41.003906 35.296875 41.105469 C 36.078125 42.109375 36.871094 43.101562 37.675781 44.082031 C 37.816406 44.269531 37.964844 44.453125 38.117188 44.636719 C 38.882812 43.226562 39.496094 41.753906 39.953125 40.21875 C 40 40.09375 40.042969 39.964844 40.085938 39.835938 C 40.164062 39.65625 40.300781 39.558594 40.496094 39.546875 C 40.632812 39.589844 40.773438 39.628906 40.914062 39.65625 C 41.59375 40.328125 42.285156 40.992188 42.980469 41.648438 C 43.511719 42.101562 44.0625 42.535156 44.625 42.953125 C 44.226562 30.839844 43.8125 18.726562 43.386719 6.613281 C 43.355469 5.5 43.320312 4.390625 43.289062 3.277344 C 39.03125 3.375 34.769531 3.472656 30.507812 3.566406 C 30.113281 3.558594 29.714844 3.542969 29.320312 3.515625 C 29.601562 3.292969 29.785156 3.003906 29.871094 2.652344 C 30.152344 2.648438 30.433594 2.65625 30.714844 2.675781 C 34.714844 2.585938 38.714844 2.492188 42.714844 2.386719 C 42.894531 2.390625 43.074219 2.398438 43.253906 2.414062 C 43.398438 2.367188 43.546875 2.324219 43.699219 2.292969 C 43.917969 2.308594 44.066406 2.421875 44.144531 2.628906 C 44.199219 3.949219 44.246094 5.269531 44.273438 6.589844 Z M 44.273438 6.589844 "/>
</g>
<mask id="mask2">
  <g filter="url(#alpha)">
<rect x="0" y="0" width="50" height="50" style="fill:rgb(0%,0%,0%);fill-opacity:0.984314;stroke:none;"/>
  </g>
</mask>
<clipPath id="clip3">
  <rect width="50" height="50"/>
</clipPath>
<g id="surface12" clip-path="url(#clip3)">
<path style=" stroke:none;fill-rule:evenodd;fill:rgb(98.823529%,98.823529%,98.823529%);fill-opacity:1;" d="M 8.222656 5.941406 C 8.664062 10.640625 8.964844 15.355469 9.121094 20.078125 C 9.246094 26.257812 9.226562 32.433594 9.0625 38.609375 C 8.628906 30.203125 8.339844 21.785156 8.183594 13.359375 C 8.160156 10.886719 8.171875 8.414062 8.222656 5.941406 Z M 8.222656 5.941406 "/>
</g>
<mask id="mask3">
  <g filter="url(#alpha)">
<rect x="0" y="0" width="50" height="50" style="fill:rgb(0%,0%,0%);fill-opacity:0.988235;stroke:none;"/>
  </g>
</mask>
<clipPath id="clip4">
  <rect width="50" height="50"/>
</clipPath>
<g id="surface15" clip-path="url(#clip4)">
<path style=" stroke:none;fill-rule:evenodd;fill:rgb(94.509804%,92.941176%,90.196078%);fill-opacity:1;" d="M 44.273438 6.589844 C 44.707031 6.589844 45.140625 6.589844 45.570312 6.589844 C 45.847656 19.953125 46.121094 33.3125 46.398438 46.675781 C 44.496094 44.765625 42.585938 42.863281 40.675781 40.960938 C 40.6875 40.875 40.714844 40.796875 40.757812 40.722656 C 41.542969 41.523438 42.355469 42.285156 43.195312 43.015625 C 43.730469 43.488281 44.304688 43.90625 44.921875 44.261719 C 45.242188 44.296875 45.445312 44.15625 45.535156 43.84375 C 45.445312 39.699219 45.328125 35.554688 45.175781 31.410156 C 44.867188 23.136719 44.566406 14.863281 44.273438 6.589844 Z M 44.273438 6.589844 "/>
</g>
<mask id="mask4">
  <g filter="url(#alpha)">
<rect x="0" y="0" width="50" height="50" style="fill:rgb(0%,0%,0%);fill-opacity:0.984314;stroke:none;"/>
  </g>
</mask>
<clipPath id="clip5">
  <rect width="50" height="50"/>
</clipPath>
<g id="surface18" clip-path="url(#clip5)">
<path style=" stroke:none;fill-rule:evenodd;fill:rgb(94.509804%,92.941176%,90.196078%);fill-opacity:1;" d="M 27.472656 42.140625 C 28.433594 43.691406 29.371094 45.261719 30.28125 46.84375 C 29.824219 47.625 29.371094 48.410156 28.914062 49.195312 C 28.417969 46.847656 27.9375 44.496094 27.472656 42.140625 Z M 27.472656 42.140625 "/>
</g>
<mask id="mask5">
  <g filter="url(#alpha)">
<rect x="0" y="0" width="50" height="50" style="fill:rgb(0%,0%,0%);fill-opacity:0.972549;stroke:none;"/>
  </g>
</mask>
<clipPath id="clip6">
  <rect width="50" height="50"/>
</clipPath>
<g id="surface21" clip-path="url(#clip6)">
<path style=" stroke:none;fill-rule:evenodd;fill:rgb(94.509804%,92.941176%,90.196078%);fill-opacity:1;" d="M 35.753906 43.121094 C 36.28125 43.765625 36.804688 44.414062 37.324219 45.066406 C 37.335938 45.089844 37.339844 45.113281 37.339844 45.140625 C 37.125 45.886719 36.898438 46.628906 36.664062 47.371094 C 36.347656 45.957031 36.046875 44.542969 35.753906 43.121094 Z M 35.753906 43.121094 "/>
</g>
</defs>
<g id="surface1">
<use xlink:href="#surface6" mask="url(#mask0)"/>
<path style=" stroke:none;fill-rule:evenodd;fill:rgb(94.509804%,92.54902%,89.803922%);fill-opacity:1;" d="M 26.824219 1.476562 C 27.433594 1.5 28.039062 1.53125 28.648438 1.558594 C 29.035156 1.667969 29.285156 1.910156 29.40625 2.292969 C 29.414062 2.722656 29.226562 3.03125 28.839844 3.214844 C 27.96875 3.601562 27.128906 3.542969 26.320312 3.046875 C 25.898438 2.691406 25.808594 2.261719 26.042969 1.765625 C 26.109375 1.6875 26.1875 1.621094 26.273438 1.570312 C 26.367188 1.640625 26.46875 1.660156 26.585938 1.632812 C 26.671875 1.585938 26.75 1.535156 26.824219 1.476562 Z M 26.824219 1.476562 "/>
<use xlink:href="#surface9" mask="url(#mask1)"/>
<path style=" stroke:none;fill-rule:evenodd;fill:rgb(99.607843%,99.607843%,99.607843%);fill-opacity:1;" d="M 43.386719 6.613281 C 32.503906 6.644531 21.625 6.675781 10.742188 6.710938 C 10.722656 6.269531 10.675781 5.832031 10.597656 5.402344 C 10.582031 5.304688 10.613281 5.234375 10.695312 5.183594 C 10.914062 5.140625 11.140625 5.117188 11.367188 5.125 C 12.207031 5.144531 13.046875 5.132812 13.886719 5.089844 C 14.105469 5 14.15625 4.851562 14.042969 4.644531 C 14.011719 4.597656 13.964844 4.570312 13.910156 4.5625 C 13.148438 4.546875 12.390625 4.558594 11.628906 4.597656 C 11.324219 4.585938 11.023438 4.582031 10.71875 4.585938 C 10.378906 4.597656 10.160156 4.761719 10.058594 5.078125 C 10.042969 5.246094 10.042969 5.414062 10.058594 5.582031 C 10.15625 6.339844 10.253906 7.101562 10.34375 7.859375 C 10.375 8.078125 10.417969 8.296875 10.464844 8.507812 C 10.550781 8.597656 10.640625 8.605469 10.742188 8.535156 C 10.84375 18.699219 10.921875 28.867188 10.980469 39.042969 C 12.445312 38.757812 13.910156 38.480469 15.375 38.214844 C 16.402344 39.949219 17.4375 41.679688 18.472656 43.410156 C 19.644531 41.769531 20.816406 40.128906 21.988281 38.488281 C 22.621094 39.707031 23.273438 40.90625 23.957031 42.089844 C 24.035156 42.21875 24.128906 42.339844 24.230469 42.449219 C 24.4375 41.929688 24.679688 41.421875 24.964844 40.9375 C 25.507812 39.972656 26.066406 39.023438 26.644531 38.082031 C 26.777344 38.675781 26.902344 39.273438 27.015625 39.871094 C 27.015625 39.910156 26.996094 39.9375 26.96875 39.953125 C 26.75 39.867188 26.554688 39.898438 26.378906 40.050781 C 25.5625 41.1875 24.746094 42.324219 23.933594 43.457031 C 23.195312 42.308594 22.460938 41.15625 21.722656 40.003906 C 21.496094 39.816406 21.273438 39.816406 21.050781 40.003906 C 20.160156 41.921875 19.222656 43.816406 18.242188 45.691406 C 17.058594 44 15.890625 42.296875 14.738281 40.578125 C 14.625 40.421875 14.5 40.273438 14.367188 40.132812 C 14.132812 39.945312 13.871094 39.882812 13.574219 39.941406 C 13.316406 40.027344 13.085938 40.15625 12.878906 40.328125 C 11.914062 41.132812 10.921875 41.894531 9.902344 42.617188 C 9.878906 42.527344 9.871094 42.429688 9.878906 42.332031 C 9.988281 39.378906 10.058594 36.425781 10.082031 33.472656 C 10.097656 30.386719 10.097656 27.296875 10.082031 24.207031 C 10.042969 20.234375 9.898438 16.265625 9.648438 12.300781 C 9.4375 9.445312 9.203125 6.585938 8.941406 3.734375 C 10.054688 3.929688 11.171875 3.996094 12.300781 3.9375 C 14.117188 3.804688 15.933594 3.675781 17.75 3.550781 C 18.246094 3.53125 18.742188 3.515625 19.238281 3.503906 C 21.03125 3.496094 22.824219 3.488281 24.617188 3.480469 C 25.023438 3.429688 25.429688 3.402344 25.839844 3.398438 C 25.867188 3.394531 25.890625 3.398438 25.914062 3.410156 C 26 3.488281 26.097656 3.5625 26.199219 3.625 C 26.371094 3.710938 26.542969 3.796875 26.714844 3.875 C 26.777344 4.109375 26.832031 4.339844 26.882812 4.574219 C 26.882812 4.824219 26.914062 5.074219 26.980469 5.316406 C 27.042969 5.460938 27.152344 5.550781 27.304688 5.59375 C 27.546875 5.644531 27.734375 5.570312 27.867188 5.363281 C 27.953125 4.894531 28.03125 4.421875 28.097656 3.949219 C 28.539062 3.898438 28.949219 3.753906 29.320312 3.515625 C 29.714844 3.542969 30.113281 3.558594 30.507812 3.566406 C 34.769531 3.472656 39.03125 3.375 43.289062 3.277344 C 43.320312 4.390625 43.355469 5.5 43.386719 6.613281 Z M 43.386719 6.613281 "/>
<path style=" stroke:none;fill-rule:evenodd;fill:rgb(94.509804%,92.156863%,89.411765%);fill-opacity:1;" d="M 26.921875 3.851562 C 26.9375 3.835938 26.960938 3.828125 26.992188 3.828125 C 27.230469 3.878906 27.46875 3.902344 27.710938 3.902344 C 27.664062 4.339844 27.621094 4.78125 27.582031 5.222656 C 27.449219 5.328125 27.335938 5.3125 27.246094 5.171875 C 27.183594 4.945312 27.140625 4.714844 27.125 4.476562 C 27.0625 4.261719 26.996094 4.054688 26.921875 3.851562 Z M 26.921875 3.851562 "/>
<path style=" stroke:none;fill-rule:evenodd;fill:rgb(0.784314%,0.784314%,0.784314%);fill-opacity:1;" d="M 10.742188 6.710938 C 10.789062 7.300781 10.800781 7.890625 10.777344 8.484375 C 10.761719 8.5 10.75 8.515625 10.742188 8.535156 C 10.640625 8.605469 10.550781 8.597656 10.464844 8.507812 C 10.417969 8.296875 10.375 8.078125 10.34375 7.859375 C 10.253906 7.101562 10.15625 6.339844 10.058594 5.582031 C 10.042969 5.414062 10.042969 5.246094 10.058594 5.078125 C 10.160156 4.761719 10.378906 4.597656 10.71875 4.585938 C 11.023438 4.582031 11.324219 4.585938 11.628906 4.597656 C 12.390625 4.558594 13.148438 4.546875 13.910156 4.5625 C 13.964844 4.570312 14.011719 4.597656 14.042969 4.644531 C 14.15625 4.851562 14.105469 5 13.886719 5.089844 C 13.046875 5.132812 12.207031 5.144531 11.367188 5.125 C 11.140625 5.117188 10.914062 5.140625 10.695312 5.183594 C 10.613281 5.234375 10.582031 5.304688 10.597656 5.402344 C 10.675781 5.832031 10.722656 6.269531 10.742188 6.710938 Z M 10.742188 6.710938 "/>
<use xlink:href="#surface12" mask="url(#mask2)"/>
<use xlink:href="#surface15" mask="url(#mask3)"/>
<path style=" stroke:none;fill-rule:evenodd;fill:rgb(94.509804%,92.941176%,90.196078%);fill-opacity:1;" d="M 43.386719 6.613281 C 43.8125 18.726562 44.226562 30.839844 44.625 42.953125 C 44.0625 42.535156 43.511719 42.101562 42.980469 41.648438 C 42.285156 40.992188 41.59375 40.328125 40.914062 39.65625 C 40.773438 39.628906 40.632812 39.589844 40.496094 39.546875 C 40.300781 39.558594 40.164062 39.65625 40.085938 39.835938 C 40.042969 39.964844 40 40.09375 39.953125 40.21875 C 39.660156 39.933594 39.367188 39.648438 39.078125 39.355469 C 38.632812 40.765625 38.199219 42.179688 37.78125 43.601562 C 37.730469 43.761719 37.695312 43.921875 37.675781 44.082031 C 36.871094 43.101562 36.078125 42.109375 35.296875 41.105469 C 35.3125 41.097656 35.320312 41.082031 35.320312 41.058594 C 35.15625 40.296875 34.992188 39.539062 34.828125 38.777344 C 33.476562 41.152344 32.128906 43.527344 30.785156 45.90625 C 29.796875 44.253906 28.808594 42.597656 27.820312 40.9375 C 27.636719 40.667969 27.453125 40.394531 27.269531 40.121094 C 27.183594 40.03125 27.085938 39.976562 26.96875 39.953125 C 26.996094 39.9375 27.015625 39.910156 27.015625 39.871094 C 26.902344 39.273438 26.777344 38.675781 26.644531 38.082031 C 26.066406 39.023438 25.507812 39.972656 24.964844 40.9375 C 24.679688 41.421875 24.4375 41.929688 24.230469 42.449219 C 24.128906 42.339844 24.035156 42.21875 23.957031 42.089844 C 23.273438 40.90625 22.621094 39.707031 21.988281 38.488281 C 20.816406 40.128906 19.644531 41.769531 18.472656 43.410156 C 17.4375 41.679688 16.402344 39.949219 15.375 38.214844 C 13.910156 38.480469 12.445312 38.757812 10.980469 39.042969 C 10.921875 28.867188 10.84375 18.699219 10.742188 8.535156 C 10.75 8.515625 10.761719 8.5 10.777344 8.484375 C 10.800781 7.890625 10.789062 7.300781 10.742188 6.710938 C 21.625 6.675781 32.503906 6.644531 43.386719 6.613281 Z M 43.386719 6.613281 "/>
<path style=" stroke:none;fill-rule:evenodd;fill:rgb(1.176471%,0.784314%,0.784314%);fill-opacity:1;" d="M 43.242188 34.097656 C 43.386719 34.085938 43.484375 34.140625 43.542969 34.265625 C 43.644531 34.714844 43.71875 35.171875 43.757812 35.632812 C 43.875 37.5625 44.023438 39.492188 44.203125 41.417969 C 44.222656 41.621094 44.128906 41.726562 43.925781 41.730469 C 43.871094 41.730469 43.820312 41.71875 43.769531 41.695312 C 43.066406 41.042969 42.324219 40.441406 41.539062 39.894531 C 41.453125 39.796875 41.445312 39.691406 41.515625 39.582031 C 41.574219 39.539062 41.636719 39.519531 41.707031 39.535156 C 42.367188 39.882812 42.984375 40.300781 43.554688 40.78125 C 43.578125 40.796875 43.59375 40.789062 43.601562 40.757812 C 43.449219 38.960938 43.265625 37.164062 43.0625 35.371094 C 43.046875 35.007812 43.046875 34.648438 43.0625 34.289062 C 43.097656 34.199219 43.15625 34.132812 43.242188 34.097656 Z M 43.242188 34.097656 "/>
<path style=" stroke:none;fill-rule:evenodd;fill:rgb(99.607843%,99.607843%,99.607843%);fill-opacity:1;" d="M 35.296875 41.105469 C 35.199219 41.003906 35.101562 40.894531 35.007812 40.78125 C 34.746094 40.65625 34.53125 40.71875 34.375 40.960938 C 33.492188 43.074219 32.574219 45.167969 31.625 47.25 C 31.609375 47.285156 31.59375 47.285156 31.578125 47.25 C 31.3125 46.804688 31.046875 46.355469 30.785156 45.90625 C 32.128906 43.527344 33.476562 41.152344 34.828125 38.777344 C 34.992188 39.539062 35.15625 40.296875 35.320312 41.058594 C 35.320312 41.082031 35.3125 41.097656 35.296875 41.105469 Z M 35.296875 41.105469 "/>
<path style=" stroke:none;fill-rule:evenodd;fill:rgb(99.607843%,99.607843%,99.607843%);fill-opacity:1;" d="M 39.953125 40.21875 C 39.496094 41.753906 38.882812 43.226562 38.117188 44.636719 C 37.964844 44.453125 37.816406 44.269531 37.675781 44.082031 C 37.695312 43.921875 37.730469 43.761719 37.78125 43.601562 C 38.199219 42.179688 38.632812 40.765625 39.078125 39.355469 C 39.367188 39.648438 39.660156 39.933594 39.953125 40.21875 Z M 39.953125 40.21875 "/>
<use xlink:href="#surface18" mask="url(#mask4)"/>
<path style=" stroke:none;fill-rule:evenodd;fill:rgb(52.941176%,52.941176%,52.941176%);fill-opacity:1;" d="M 9.878906 42.332031 C 9.871094 42.429688 9.878906 42.527344 9.902344 42.617188 C 9.898438 42.632812 9.890625 42.640625 9.878906 42.644531 C 9.847656 42.535156 9.847656 42.429688 9.878906 42.332031 Z M 9.878906 42.332031 "/>
<use xlink:href="#surface21" mask="url(#mask5)"/>
</g>
</svg>
