<?xml version="1.0" encoding="UTF-8"?>
<svg xmlns="http://www.w3.org/2000/svg" xmlns:xlink="http://www.w3.org/1999/xlink" width="50pt" height="50pt" viewBox="0 0 50 50" version="1.1">
<defs>
<filter id="alpha" filterUnits="objectBoundingBox" x="0%" y="0%" width="100%" height="100%">
  <feColorMatrix type="matrix" in="SourceGraphic" values="0 0 0 0 1 0 0 0 0 1 0 0 0 0 1 0 0 0 1 0"/>
</filter>
<mask id="mask0">
  <g filter="url(#alpha)">
<rect x="0" y="0" width="50" height="50" style="fill:rgb(0%,0%,0%);fill-opacity:0.976471;stroke:none;"/>
  </g>
</mask>
<clipPath id="clip1">
  <rect width="50" height="50"/>
</clipPath>
<g id="surface6" clip-path="url(#clip1)">
<path style=" stroke:none;fill-rule:evenodd;fill:rgb(0.392157%,0.392157%,0.392157%);fill-opacity:1;" d="M 27.570312 3.277344 C 27.472656 3.726562 27.390625 4.183594 27.316406 4.644531 C 27.210938 5.167969 27.066406 5.679688 26.882812 6.179688 C 26.835938 6.429688 26.785156 6.679688 26.726562 6.925781 C 26.941406 6.964844 27.035156 7.089844 27.003906 7.308594 C 26.953125 7.433594 26.859375 7.519531 26.726562 7.5625 C 25.519531 8.042969 24.316406 8.019531 23.128906 7.488281 C 22.847656 7.300781 22.558594 7.125 22.261719 6.960938 C 22.101562 6.816406 22.050781 6.636719 22.109375 6.421875 C 22.25 5.949219 22.347656 5.46875 22.40625 4.980469 C 22.589844 4.277344 22.726562 3.5625 22.816406 2.84375 C 22.40625 3.023438 22.023438 3.238281 21.664062 3.492188 C 20.824219 4.058594 20.355469 4.851562 20.257812 5.867188 C 20.109375 7.761719 20.886719 9.109375 22.601562 9.914062 C 23.136719 10.085938 23.671875 10.261719 24.207031 10.441406 C 24.617188 10.582031 25.039062 10.625 25.46875 10.574219 C 25.632812 10.578125 25.777344 10.632812 25.898438 10.742188 C 25.96875 10.933594 25.90625 11.070312 25.71875 11.148438 C 25.464844 11.25 25.203125 11.289062 24.929688 11.269531 C 24.554688 11.230469 24.1875 11.164062 23.824219 11.066406 C 23.394531 10.914062 22.964844 10.777344 22.527344 10.65625 C 22.160156 10.515625 21.816406 10.335938 21.496094 10.117188 C 21.324219 9.996094 21.15625 9.867188 20.992188 9.734375 C 21.175781 10.21875 21.351562 10.707031 21.519531 11.199219 C 21.789062 12.210938 21.96875 13.246094 22.058594 14.292969 C 22.136719 15.902344 22.160156 17.511719 22.132812 19.117188 C 22.070312 20.0625 22.007812 21.007812 21.941406 21.953125 C 21.910156 23.054688 21.890625 24.160156 21.878906 25.265625 C 21.773438 26.53125 21.71875 27.800781 21.722656 29.082031 C 21.789062 30.191406 21.828125 31.304688 21.84375 32.417969 C 21.90625 33.335938 21.96875 34.257812 22.035156 35.175781 C 22.070312 36 22.101562 36.824219 22.132812 37.648438 C 22.148438 37.949219 22.175781 38.246094 22.214844 38.539062 C 22.210938 38.785156 22.21875 39.035156 22.238281 39.28125 C 22.214844 39.46875 22.199219 39.660156 22.191406 39.859375 C 22.191406 39.941406 22.207031 40.011719 22.238281 40.074219 C 22.585938 39.921875 22.945312 39.8125 23.320312 39.75 C 23.464844 39.734375 23.609375 39.734375 23.75 39.75 C 23.796875 39.800781 23.808594 39.863281 23.789062 39.929688 C 23.039062 40.238281 22.316406 40.59375 21.617188 41 C 21.230469 41.265625 20.921875 41.597656 20.679688 41.996094 C 20.660156 42.003906 20.652344 42.019531 20.65625 42.042969 C 19.429688 43.523438 19.289062 45.109375 20.234375 46.796875 C 20.519531 47.335938 20.90625 47.789062 21.398438 48.152344 C 21.542969 48.238281 21.695312 48.300781 21.855469 48.332031 C 21.820312 48.15625 21.789062 47.980469 21.757812 47.804688 C 21.632812 47.144531 21.535156 46.480469 21.460938 45.8125 C 21.410156 45.304688 21.457031 44.808594 21.601562 44.324219 C 21.769531 43.945312 22.039062 43.664062 22.40625 43.484375 C 22.421875 43.484375 22.429688 43.476562 22.429688 43.457031 C 22.441406 43.457031 22.449219 43.457031 22.457031 43.457031 C 22.472656 43.457031 22.480469 43.449219 22.480469 43.433594 C 23.078125 43.179688 23.703125 43.070312 24.351562 43.109375 C 24.457031 43.128906 24.5625 43.148438 24.664062 43.171875 C 24.671875 43.191406 24.6875 43.199219 24.710938 43.195312 C 24.710938 43.210938 24.71875 43.21875 24.734375 43.21875 C 24.921875 43.304688 25.085938 43.425781 25.226562 43.578125 C 25.703125 44.117188 26.046875 44.734375 26.261719 45.425781 C 26.46875 46.261719 26.644531 47.101562 26.789062 47.949219 C 26.878906 47.871094 26.953125 47.78125 27.015625 47.683594 C 27.292969 47.34375 27.542969 46.980469 27.773438 46.601562 C 27.976562 46.144531 28.097656 45.664062 28.132812 45.164062 C 28.148438 44.753906 28.148438 44.347656 28.132812 43.9375 C 28.101562 43.707031 28.050781 43.484375 27.976562 43.265625 C 27.914062 42.933594 27.773438 42.636719 27.554688 42.378906 C 27.453125 42.269531 27.351562 42.15625 27.257812 42.042969 C 27.0625 41.804688 26.859375 41.566406 26.65625 41.335938 C 26.46875 41.160156 26.253906 41.039062 26.007812 40.960938 C 25.773438 40.871094 25.535156 40.804688 25.289062 40.757812 C 25.246094 40.714844 25.230469 40.664062 25.238281 40.601562 C 25.257812 40.585938 25.273438 40.566406 25.289062 40.542969 C 25.628906 40.542969 25.964844 40.585938 26.296875 40.675781 C 26.546875 40.761719 26.769531 40.894531 26.96875 41.070312 C 27.324219 41.449219 27.6875 41.820312 28.058594 42.1875 C 28.289062 42.480469 28.449219 42.808594 28.539062 43.171875 C 28.707031 43.800781 28.761719 44.441406 28.695312 45.089844 C 28.644531 45.507812 28.578125 45.921875 28.492188 46.339844 C 28.453125 46.496094 28.398438 46.648438 28.335938 46.796875 C 28.300781 46.898438 28.253906 46.996094 28.191406 47.082031 C 27.953125 47.429688 27.710938 47.773438 27.460938 48.117188 C 27.285156 48.332031 27.082031 48.523438 26.859375 48.691406 C 26.832031 48.738281 26.8125 48.785156 26.800781 48.835938 C 26.734375 48.921875 26.648438 48.960938 26.535156 48.957031 C 26.332031 48.945312 26.214844 48.84375 26.175781 48.644531 C 26.195312 48.230469 26.152344 47.820312 26.042969 47.417969 C 25.933594 46.949219 25.828125 46.476562 25.730469 46.003906 C 25.636719 45.546875 25.476562 45.113281 25.253906 44.707031 C 25.0625 44.421875 24.859375 44.144531 24.640625 43.878906 C 24.425781 43.734375 24.191406 43.664062 23.933594 43.675781 C 23.441406 43.6875 22.964844 43.78125 22.503906 43.949219 C 22.269531 44.046875 22.089844 44.203125 21.964844 44.417969 C 21.925781 44.546875 21.902344 44.679688 21.902344 44.816406 C 21.945312 45.273438 21.980469 45.734375 22.011719 46.195312 C 22.183594 47 22.359375 47.804688 22.527344 48.609375 C 22.519531 48.789062 22.433594 48.910156 22.261719 48.96875 C 21.714844 49.03125 21.226562 48.886719 20.800781 48.535156 C 19.648438 47.492188 19.039062 46.1875 18.976562 44.625 C 18.980469 43.777344 19.214844 43.007812 19.683594 42.308594 C 19.945312 41.902344 20.222656 41.507812 20.523438 41.128906 C 20.816406 40.796875 21.15625 40.53125 21.542969 40.328125 C 21.53125 39.835938 21.527344 39.34375 21.53125 38.851562 C 21.421875 36.960938 21.300781 35.074219 21.171875 33.183594 C 21.121094 31.640625 21.0625 30.097656 20.992188 28.550781 C 21.09375 26.386719 21.183594 24.214844 21.265625 22.046875 C 21.347656 21 21.417969 19.953125 21.484375 18.902344 C 21.507812 17.230469 21.515625 15.558594 21.507812 13.886719 C 21.441406 12.339844 21.152344 10.835938 20.644531 9.375 C 19.890625 8.523438 19.527344 7.527344 19.550781 6.386719 C 19.503906 5.027344 20.015625 3.9375 21.085938 3.121094 C 21.691406 2.691406 22.359375 2.460938 23.089844 2.4375 C 23.183594 2.433594 23.246094 2.472656 23.285156 2.554688 C 23.300781 2.707031 23.300781 2.859375 23.285156 3.011719 C 23.085938 4.191406 22.886719 5.367188 22.683594 6.542969 C 22.957031 6.699219 23.234375 6.855469 23.511719 7.007812 C 24.179688 7.253906 24.867188 7.339844 25.574219 7.273438 C 25.816406 7.234375 26.046875 7.171875 26.273438 7.082031 C 26.328125 6.914062 26.398438 6.75 26.476562 6.589844 C 26.503906 6.453125 26.527344 6.316406 26.546875 6.179688 C 26.667969 5.804688 26.789062 5.429688 26.910156 5.054688 C 27.066406 4.359375 27.21875 3.660156 27.363281 2.964844 C 27.453125 2.894531 27.53125 2.902344 27.605469 2.988281 C 27.617188 3.085938 27.605469 3.183594 27.570312 3.277344 Z M 20.992188 9.734375 C 21.15625 9.867188 21.324219 9.996094 21.496094 10.117188 C 21.503906 10.476562 21.511719 10.835938 21.519531 11.199219 C 21.351562 10.707031 21.175781 10.21875 20.992188 9.734375 Z M 20.65625 42.042969 C 20.328125 42.910156 20.195312 43.804688 20.257812 44.730469 C 20.382812 45.945312 20.882812 46.96875 21.757812 47.804688 C 21.789062 47.980469 21.820312 48.15625 21.855469 48.332031 C 21.695312 48.300781 21.542969 48.238281 21.398438 48.152344 C 20.90625 47.789062 20.519531 47.335938 20.234375 46.796875 C 19.289062 45.109375 19.429688 43.523438 20.65625 42.042969 Z M 24.664062 43.171875 C 24.5625 43.148438 24.457031 43.128906 24.351562 43.109375 C 23.703125 43.070312 23.078125 43.179688 22.480469 43.433594 C 22.976562 43.0625 23.539062 42.90625 24.160156 42.96875 C 24.347656 42.996094 24.515625 43.0625 24.664062 43.171875 Z M 24.664062 43.171875 "/>
</g>
<mask id="mask1">
  <g filter="url(#alpha)">
<rect x="0" y="0" width="50" height="50" style="fill:rgb(0%,0%,0%);fill-opacity:0.992157;stroke:none;"/>
  </g>
</mask>
<clipPath id="clip2">
  <rect width="50" height="50"/>
</clipPath>
<g id="surface9" clip-path="url(#clip2)">
<path style=" stroke:none;fill-rule:evenodd;fill:rgb(0.784314%,0.784314%,0.784314%);fill-opacity:1;" d="M 28.3125 10.191406 C 28.070312 10.351562 27.828125 10.511719 27.582031 10.667969 C 27.308594 11.195312 27.113281 11.746094 26.992188 12.324219 C 26.914062 12.652344 26.84375 12.980469 26.789062 13.308594 C 26.816406 13.800781 26.773438 14.289062 26.667969 14.773438 C 26.636719 15.085938 26.609375 15.398438 26.585938 15.710938 C 26.511719 16.421875 26.496094 17.132812 26.535156 17.847656 C 26.546875 18.496094 26.53125 19.144531 26.488281 19.792969 C 26.347656 20.394531 26.21875 21.003906 26.09375 21.617188 C 26.039062 21.902344 26.011719 22.1875 26.007812 22.480469 C 26.054688 22.976562 26.09375 23.472656 26.128906 23.96875 C 26.109375 24.335938 26.082031 24.703125 26.042969 25.070312 C 26.027344 26.007812 26.027344 26.945312 26.042969 27.878906 C 26.152344 28.789062 26.175781 29.703125 26.117188 30.617188 C 26.105469 31.746094 26.101562 32.875 26.105469 34 C 26.101562 34.496094 26.105469 34.992188 26.117188 35.488281 C 26.175781 36.296875 26.25 37.105469 26.332031 37.914062 C 26.371094 38.457031 26.394531 39 26.402344 39.546875 C 26.414062 39.691406 26.429688 39.835938 26.453125 39.976562 C 26.496094 40.101562 26.542969 40.21875 26.585938 40.339844 C 26.550781 40.515625 26.445312 40.621094 26.273438 40.652344 C 26.042969 40.585938 25.910156 40.433594 25.875 40.195312 C 25.796875 39.453125 25.742188 38.707031 25.707031 37.960938 C 25.6875 37.71875 25.648438 37.480469 25.589844 37.242188 C 25.589844 36.617188 25.558594 35.992188 25.492188 35.371094 C 25.472656 34.5 25.460938 33.632812 25.457031 32.765625 C 25.464844 31.761719 25.488281 30.757812 25.527344 29.753906 C 25.542969 29.300781 25.515625 28.855469 25.445312 28.410156 C 25.414062 27.304688 25.40625 26.199219 25.421875 25.097656 C 25.519531 24.234375 25.53125 23.367188 25.457031 22.503906 C 25.457031 22.269531 25.46875 22.039062 25.492188 21.808594 C 25.589844 21.136719 25.714844 20.472656 25.863281 19.816406 C 25.902344 19.359375 25.917969 18.902344 25.914062 18.445312 C 25.914062 16.90625 25.980469 15.371094 26.117188 13.839844 C 26.1875 13.296875 26.289062 12.757812 26.429688 12.230469 C 26.515625 11.933594 26.625 11.644531 26.753906 11.367188 C 26.792969 11.257812 26.839844 11.15625 26.894531 11.054688 C 26.863281 11.046875 26.824219 11.046875 26.777344 11.054688 C 26.695312 11.050781 26.625 11.027344 26.558594 10.980469 C 26.371094 10.769531 26.371094 10.554688 26.558594 10.34375 C 26.699219 10.300781 26.835938 10.242188 26.96875 10.175781 C 27.324219 9.929688 27.683594 9.691406 28.046875 9.457031 C 29.117188 8.414062 29.53125 7.15625 29.285156 5.675781 C 29.234375 5.449219 29.160156 5.234375 29.058594 5.027344 C 29.0625 5.003906 29.054688 4.988281 29.03125 4.980469 C 29.035156 4.957031 29.027344 4.941406 29.007812 4.933594 C 28.914062 4.664062 28.78125 4.417969 28.613281 4.1875 C 28.417969 3.972656 28.234375 3.746094 28.058594 3.515625 C 27.949219 3.394531 27.828125 3.285156 27.699219 3.179688 C 27.628906 2.90625 27.730469 2.816406 28 2.90625 C 29.285156 3.8125 29.957031 5.054688 30.015625 6.636719 C 29.992188 7.425781 29.78125 8.164062 29.378906 8.84375 C 29.160156 9.21875 28.914062 9.570312 28.636719 9.902344 C 28.539062 10.011719 28.429688 10.109375 28.3125 10.191406 Z M 28.3125 10.191406 "/>
</g>
<mask id="mask2">
  <g filter="url(#alpha)">
<rect x="0" y="0" width="50" height="50" style="fill:rgb(0%,0%,0%);fill-opacity:0.996078;stroke:none;"/>
  </g>
</mask>
<clipPath id="clip3">
  <rect width="50" height="50"/>
</clipPath>
<g id="surface12" clip-path="url(#clip3)">
<path style=" stroke:none;fill-rule:evenodd;fill:rgb(94.509804%,92.941176%,90.196078%);fill-opacity:1;" d="M 21.496094 10.117188 C 21.816406 10.335938 22.160156 10.515625 22.527344 10.65625 C 22.964844 10.777344 23.394531 10.914062 23.824219 11.066406 C 24.1875 11.164062 24.554688 11.230469 24.929688 11.269531 C 24.867188 12.371094 24.910156 13.464844 25.058594 14.558594 C 25.21875 15.535156 25.296875 16.519531 25.300781 17.511719 C 25.324219 20.96875 25.292969 24.425781 25.203125 27.878906 C 25.125 31.371094 25.023438 34.859375 24.902344 38.347656 C 24.929688 39.085938 24.976562 39.820312 25.046875 40.554688 C 25.125 40.542969 25.1875 40.558594 25.238281 40.601562 C 25.230469 40.664062 25.246094 40.714844 25.289062 40.757812 C 25.535156 40.804688 25.773438 40.871094 26.007812 40.960938 C 26.339844 41.300781 26.609375 41.683594 26.8125 42.113281 C 27.148438 42.835938 27.386719 43.589844 27.53125 44.371094 C 27.65625 45.175781 27.597656 45.96875 27.363281 46.746094 C 27.261719 47.066406 27.144531 47.378906 27.015625 47.683594 C 26.953125 47.78125 26.878906 47.871094 26.789062 47.949219 C 26.644531 47.101562 26.46875 46.261719 26.261719 45.425781 C 26.046875 44.734375 25.703125 44.117188 25.226562 43.578125 C 25.085938 43.425781 24.921875 43.304688 24.734375 43.21875 C 24.71875 43.21875 24.710938 43.210938 24.710938 43.195312 C 24.703125 43.175781 24.6875 43.167969 24.664062 43.171875 C 24.515625 43.0625 24.347656 42.996094 24.160156 42.96875 C 23.539062 42.90625 22.976562 43.0625 22.480469 43.433594 C 22.464844 43.433594 22.457031 43.441406 22.457031 43.457031 C 22.449219 43.457031 22.441406 43.457031 22.429688 43.457031 C 22.414062 43.457031 22.40625 43.46875 22.40625 43.484375 C 22.039062 43.664062 21.769531 43.945312 21.601562 44.324219 C 21.457031 44.808594 21.410156 45.304688 21.460938 45.8125 C 21.535156 46.480469 21.632812 47.144531 21.757812 47.804688 C 20.882812 46.96875 20.382812 45.945312 20.257812 44.730469 C 20.195312 43.804688 20.328125 42.910156 20.65625 42.042969 C 20.675781 42.035156 20.683594 42.019531 20.679688 41.996094 C 20.921875 41.597656 21.230469 41.265625 21.617188 41 C 22.316406 40.59375 23.039062 40.238281 23.789062 39.929688 C 23.808594 39.863281 23.796875 39.800781 23.75 39.75 C 23.609375 39.734375 23.464844 39.734375 23.320312 39.75 C 22.945312 39.8125 22.585938 39.921875 22.238281 40.074219 C 22.238281 39.808594 22.238281 39.546875 22.238281 39.28125 C 22.21875 39.035156 22.210938 38.785156 22.214844 38.539062 C 22.097656 34.113281 21.988281 29.6875 21.878906 25.265625 C 21.890625 24.160156 21.910156 23.054688 21.941406 21.953125 C 22.007812 21.007812 22.070312 20.0625 22.132812 19.117188 C 22.160156 17.511719 22.136719 15.902344 22.058594 14.292969 C 21.96875 13.246094 21.789062 12.210938 21.519531 11.199219 C 21.511719 10.835938 21.503906 10.476562 21.496094 10.117188 Z M 24.664062 43.171875 C 24.5625 43.148438 24.457031 43.128906 24.351562 43.109375 C 23.703125 43.070312 23.078125 43.179688 22.480469 43.433594 C 22.976562 43.0625 23.539062 42.90625 24.160156 42.96875 C 24.347656 42.996094 24.515625 43.0625 24.664062 43.171875 Z M 24.664062 43.171875 "/>
</g>
<mask id="mask3">
  <g filter="url(#alpha)">
<rect x="0" y="0" width="50" height="50" style="fill:rgb(0%,0%,0%);fill-opacity:0.94902;stroke:none;"/>
  </g>
</mask>
<clipPath id="clip4">
  <rect width="50" height="50"/>
</clipPath>
<g id="surface15" clip-path="url(#clip4)">
<path style=" stroke:none;fill-rule:evenodd;fill:rgb(92.941176%,91.372549%,88.627451%);fill-opacity:1;" d="M 28.3125 10.191406 C 27.902344 10.921875 27.460938 11.636719 26.992188 12.324219 C 27.113281 11.746094 27.308594 11.195312 27.582031 10.667969 C 27.828125 10.511719 28.070312 10.351562 28.3125 10.191406 Z M 28.3125 10.191406 "/>
</g>
<mask id="mask4">
  <g filter="url(#alpha)">
<rect x="0" y="0" width="50" height="50" style="fill:rgb(0%,0%,0%);fill-opacity:0.729412;stroke:none;"/>
  </g>
</mask>
<clipPath id="clip5">
  <rect width="50" height="50"/>
</clipPath>
<g id="surface18" clip-path="url(#clip5)">
<path style=" stroke:none;fill-rule:evenodd;fill:rgb(83.529412%,82.352941%,79.607843%);fill-opacity:1;" d="M 26.585938 15.710938 C 26.578125 16.421875 26.558594 17.136719 26.535156 17.847656 C 26.496094 17.132812 26.511719 16.421875 26.585938 15.710938 Z M 26.585938 15.710938 "/>
</g>
<mask id="mask5">
  <g filter="url(#alpha)">
<rect x="0" y="0" width="50" height="50" style="fill:rgb(0%,0%,0%);fill-opacity:0.94902;stroke:none;"/>
  </g>
</mask>
<clipPath id="clip6">
  <rect width="50" height="50"/>
</clipPath>
<g id="surface21" clip-path="url(#clip6)">
<path style=" stroke:none;fill-rule:evenodd;fill:rgb(92.941176%,91.372549%,89.019608%);fill-opacity:1;" d="M 26.488281 19.792969 C 26.367188 24.53125 26.238281 29.269531 26.105469 34 C 26.101562 32.875 26.105469 31.746094 26.117188 30.617188 C 26.175781 29.703125 26.152344 28.789062 26.042969 27.878906 C 26.027344 26.945312 26.027344 26.007812 26.042969 25.070312 C 26.082031 24.703125 26.109375 24.335938 26.128906 23.96875 C 26.09375 23.472656 26.054688 22.976562 26.007812 22.480469 C 26.011719 22.1875 26.039062 21.902344 26.09375 21.617188 C 26.21875 21.003906 26.347656 20.394531 26.488281 19.792969 Z M 26.488281 19.792969 "/>
</g>
<mask id="mask6">
  <g filter="url(#alpha)">
<rect x="0" y="0" width="50" height="50" style="fill:rgb(0%,0%,0%);fill-opacity:0.858824;stroke:none;"/>
  </g>
</mask>
<clipPath id="clip7">
  <rect width="50" height="50"/>
</clipPath>
<g id="surface24" clip-path="url(#clip7)">
<path style=" stroke:none;fill-rule:evenodd;fill:rgb(59.215686%,53.72549%,55.294118%);fill-opacity:1;" d="M 28.695312 45.089844 C 28.773438 45.582031 28.714844 46.054688 28.515625 46.507812 C 28.46875 46.613281 28.410156 46.710938 28.335938 46.796875 C 28.398438 46.648438 28.453125 46.496094 28.492188 46.339844 C 28.578125 45.921875 28.644531 45.507812 28.695312 45.089844 Z M 28.695312 45.089844 "/>
</g>
<mask id="mask7">
  <g filter="url(#alpha)">
<rect x="0" y="0" width="50" height="50" style="fill:rgb(0%,0%,0%);fill-opacity:0.909804;stroke:none;"/>
  </g>
</mask>
<clipPath id="clip8">
  <rect width="50" height="50"/>
</clipPath>
<g id="surface27" clip-path="url(#clip8)">
<path style=" stroke:none;fill-rule:evenodd;fill:rgb(92.54902%,90.980392%,88.235294%);fill-opacity:1;" d="M 28.191406 47.082031 C 28.027344 47.6875 27.71875 48.195312 27.257812 48.609375 C 27.117188 48.710938 26.964844 48.785156 26.800781 48.835938 C 26.8125 48.785156 26.832031 48.738281 26.859375 48.691406 C 27.082031 48.523438 27.285156 48.332031 27.460938 48.117188 C 27.710938 47.773438 27.953125 47.429688 28.191406 47.082031 Z M 28.191406 47.082031 "/>
</g>
</defs>
<g id="surface1">
<use xlink:href="#surface6" mask="url(#mask0)"/>
<path style=" stroke:none;fill-rule:evenodd;fill:rgb(62.745098%,56.862745%,58.823529%);fill-opacity:1;" d="M 22.40625 4.980469 C 22.238281 5.496094 22.082031 6.03125 21.941406 6.589844 C 21.859375 5.566406 21.78125 4.539062 21.699219 3.515625 C 21.691406 3.503906 21.679688 3.496094 21.664062 3.492188 C 22.023438 3.238281 22.40625 3.023438 22.816406 2.84375 C 22.726562 3.5625 22.589844 4.277344 22.40625 4.980469 Z M 22.40625 4.980469 "/>
<use xlink:href="#surface9" mask="url(#mask1)"/>
<path style=" stroke:none;fill-rule:evenodd;fill:rgb(94.509804%,92.941176%,90.196078%);fill-opacity:1;" d="M 27.570312 3.277344 C 28.136719 3.757812 28.617188 4.308594 29.007812 4.933594 C 29.003906 4.957031 29.011719 4.972656 29.03125 4.980469 C 29.027344 5.003906 29.035156 5.019531 29.058594 5.027344 C 29.160156 5.234375 29.234375 5.449219 29.285156 5.675781 C 29.53125 7.15625 29.117188 8.414062 28.046875 9.457031 C 27.683594 9.691406 27.324219 9.929688 26.96875 10.175781 C 26.835938 10.242188 26.699219 10.300781 26.558594 10.34375 C 26.371094 10.554688 26.371094 10.769531 26.558594 10.980469 C 26.335938 11.089844 26.101562 11.152344 25.851562 11.171875 C 25.804688 11.171875 25.757812 11.164062 25.71875 11.148438 C 25.90625 11.070312 25.96875 10.933594 25.898438 10.742188 C 25.777344 10.632812 25.632812 10.578125 25.46875 10.574219 C 25.039062 10.625 24.617188 10.582031 24.207031 10.441406 C 23.671875 10.261719 23.136719 10.085938 22.601562 9.914062 C 20.886719 9.109375 20.109375 7.761719 20.257812 5.867188 C 20.355469 4.851562 20.824219 4.058594 21.664062 3.492188 C 21.679688 3.496094 21.691406 3.503906 21.699219 3.515625 C 21.78125 4.539062 21.859375 5.566406 21.941406 6.589844 C 22.082031 6.03125 22.238281 5.496094 22.40625 4.980469 C 22.347656 5.46875 22.25 5.949219 22.109375 6.421875 C 22.050781 6.636719 22.101562 6.816406 22.261719 6.960938 C 22.558594 7.125 22.847656 7.300781 23.128906 7.488281 C 24.316406 8.019531 25.519531 8.042969 26.726562 7.5625 C 26.859375 7.519531 26.953125 7.433594 27.003906 7.308594 C 27.035156 7.089844 26.941406 6.964844 26.726562 6.925781 C 26.785156 6.679688 26.835938 6.429688 26.882812 6.179688 C 27.066406 5.679688 27.210938 5.167969 27.316406 4.644531 C 27.390625 4.183594 27.472656 3.726562 27.570312 3.277344 Z M 27.570312 3.277344 "/>
<use xlink:href="#surface12" mask="url(#mask2)"/>
<use xlink:href="#surface15" mask="url(#mask3)"/>
<path style=" stroke:none;fill-rule:evenodd;fill:rgb(62.745098%,56.862745%,58.823529%);fill-opacity:1;" d="M 26.558594 10.980469 C 26.625 11.027344 26.695312 11.050781 26.777344 11.054688 C 26.765625 11.136719 26.75 11.222656 26.726562 11.304688 C 26.730469 11.332031 26.738281 11.351562 26.753906 11.367188 C 26.625 11.644531 26.515625 11.933594 26.429688 12.230469 C 26.289062 12.757812 26.1875 13.296875 26.117188 13.839844 C 25.980469 15.371094 25.914062 16.90625 25.914062 18.445312 C 25.875 18.808594 25.851562 19.179688 25.839844 19.550781 C 25.839844 19.644531 25.847656 19.730469 25.863281 19.816406 C 25.714844 20.472656 25.589844 21.136719 25.492188 21.808594 C 25.46875 22.039062 25.457031 22.269531 25.457031 22.503906 C 25.53125 23.367188 25.519531 24.234375 25.421875 25.097656 C 25.40625 26.199219 25.414062 27.304688 25.445312 28.410156 C 25.515625 28.855469 25.542969 29.300781 25.527344 29.753906 C 25.488281 30.757812 25.464844 31.761719 25.457031 32.765625 C 25.460938 33.632812 25.472656 34.5 25.492188 35.371094 C 25.558594 35.992188 25.589844 36.617188 25.589844 37.242188 C 25.648438 37.480469 25.6875 37.71875 25.707031 37.960938 C 25.742188 38.707031 25.796875 39.453125 25.875 40.195312 C 25.910156 40.433594 26.042969 40.585938 26.273438 40.652344 C 26.289062 40.652344 26.296875 40.660156 26.296875 40.675781 C 25.964844 40.585938 25.628906 40.542969 25.289062 40.542969 C 25.273438 40.566406 25.257812 40.585938 25.238281 40.601562 C 25.1875 40.558594 25.125 40.542969 25.046875 40.554688 C 24.976562 39.820312 24.929688 39.085938 24.902344 38.347656 C 25.023438 34.859375 25.125 31.371094 25.203125 27.878906 C 25.292969 24.425781 25.324219 20.96875 25.300781 17.511719 C 25.296875 16.519531 25.21875 15.535156 25.058594 14.558594 C 24.910156 13.464844 24.867188 12.371094 24.929688 11.269531 C 25.203125 11.289062 25.464844 11.25 25.71875 11.148438 C 25.757812 11.164062 25.804688 11.171875 25.851562 11.171875 C 26.101562 11.152344 26.335938 11.089844 26.558594 10.980469 Z M 26.558594 10.980469 "/>
<path style=" stroke:none;fill-rule:evenodd;fill:rgb(83.921569%,81.960784%,80%);fill-opacity:1;" d="M 26.753906 11.367188 C 26.738281 11.351562 26.730469 11.332031 26.726562 11.304688 C 26.75 11.222656 26.765625 11.136719 26.777344 11.054688 C 26.824219 11.046875 26.863281 11.046875 26.894531 11.054688 C 26.839844 11.15625 26.792969 11.257812 26.753906 11.367188 Z M 26.753906 11.367188 "/>
<use xlink:href="#surface18" mask="url(#mask4)"/>
<path style=" stroke:none;fill-rule:evenodd;fill:rgb(87.45098%,85.490196%,83.529412%);fill-opacity:1;" d="M 25.914062 18.445312 C 25.917969 18.902344 25.902344 19.359375 25.863281 19.816406 C 25.847656 19.730469 25.839844 19.644531 25.839844 19.550781 C 25.851562 19.179688 25.875 18.808594 25.914062 18.445312 Z M 25.914062 18.445312 "/>
<use xlink:href="#surface21" mask="url(#mask5)"/>
<path style=" stroke:none;fill-rule:evenodd;fill:rgb(62.745098%,56.862745%,58.823529%);fill-opacity:1;" d="M 26.007812 40.960938 C 26.253906 41.039062 26.46875 41.160156 26.65625 41.335938 C 26.859375 41.566406 27.0625 41.804688 27.257812 42.042969 C 27.230469 42.050781 27.226562 42.066406 27.246094 42.089844 C 27.496094 42.46875 27.726562 42.863281 27.941406 43.265625 C 27.957031 43.296875 27.96875 43.296875 27.976562 43.265625 C 28.050781 43.484375 28.101562 43.707031 28.132812 43.9375 C 28.148438 44.347656 28.148438 44.753906 28.132812 45.164062 C 28.097656 45.664062 27.976562 46.144531 27.773438 46.601562 C 27.542969 46.980469 27.292969 47.34375 27.015625 47.683594 C 27.144531 47.378906 27.261719 47.066406 27.363281 46.746094 C 27.597656 45.96875 27.65625 45.175781 27.53125 44.371094 C 27.386719 43.589844 27.148438 42.835938 26.8125 42.113281 C 26.609375 41.683594 26.339844 41.300781 26.007812 40.960938 Z M 26.007812 40.960938 "/>
<path style=" stroke:none;fill-rule:evenodd;fill:rgb(89.019608%,87.45098%,85.098039%);fill-opacity:1;" d="M 27.257812 42.042969 C 27.351562 42.15625 27.453125 42.269531 27.554688 42.378906 C 27.773438 42.636719 27.914062 42.933594 27.976562 43.265625 C 27.96875 43.296875 27.957031 43.296875 27.941406 43.265625 C 27.726562 42.863281 27.496094 42.46875 27.246094 42.089844 C 27.226562 42.066406 27.230469 42.050781 27.257812 42.042969 Z M 27.257812 42.042969 "/>
<use xlink:href="#surface24" mask="url(#mask6)"/>
<use xlink:href="#surface27" mask="url(#mask7)"/>
</g>
</svg>
