<?xml version="1.0" encoding="UTF-8"?>
<svg xmlns="http://www.w3.org/2000/svg" xmlns:xlink="http://www.w3.org/1999/xlink" width="50pt" height="50pt" viewBox="0 0 50 50" version="1.1">
<defs>
<filter id="alpha" filterUnits="objectBoundingBox" x="0%" y="0%" width="100%" height="100%">
  <feColorMatrix type="matrix" in="SourceGraphic" values="0 0 0 0 1 0 0 0 0 1 0 0 0 0 1 0 0 0 1 0"/>
</filter>
<mask id="mask0">
  <g filter="url(#alpha)">
<rect x="0" y="0" width="50" height="50" style="fill:rgb(0%,0%,0%);fill-opacity:0.988235;stroke:none;"/>
  </g>
</mask>
<clipPath id="clip1">
  <rect width="50" height="50"/>
</clipPath>
<g id="surface6" clip-path="url(#clip1)">
<path style=" stroke:none;fill-rule:evenodd;fill:rgb(0.392157%,0%,0%);fill-opacity:1;" d="M 19.070312 13.8125 C 19.078125 13.59375 19 13.417969 18.832031 13.285156 C 18.6875 13.234375 18.542969 13.238281 18.398438 13.296875 C 18.320312 13.339844 18.238281 13.378906 18.160156 13.417969 C 17.882812 13.617188 17.617188 13.832031 17.367188 14.066406 C 16.921875 14.347656 16.484375 14.636719 16.046875 14.929688 C 15.855469 15.089844 15.664062 15.25 15.46875 15.410156 C 14.980469 15.898438 14.476562 16.371094 13.957031 16.828125 C 13.332031 17.316406 12.699219 17.796875 12.0625 18.265625 C 10.914062 19.191406 9.8125 20.164062 8.75 21.195312 C 10.304688 21 11.859375 20.769531 13.40625 20.5 C 13.757812 20.390625 14.101562 20.261719 14.4375 20.113281 C 14.457031 19.984375 14.527344 19.894531 14.65625 19.851562 C 15.253906 19.832031 15.855469 19.847656 16.453125 19.898438 C 17.273438 19.984375 18.089844 20.078125 18.902344 20.1875 C 19.542969 20.246094 20.183594 20.304688 20.824219 20.367188 C 20.828125 19.996094 21.011719 19.777344 21.375 19.707031 C 21.628906 19.640625 21.832031 19.710938 21.988281 19.910156 C 22.460938 19.808594 22.9375 19.734375 23.414062 19.683594 C 24.378906 19.730469 25.339844 19.691406 26.296875 19.5625 C 26.84375 19.480469 27.386719 19.382812 27.929688 19.273438 C 28.65625 19.085938 29.386719 18.894531 30.113281 18.699219 C 30.472656 18.628906 30.832031 18.5625 31.191406 18.507812 C 31.445312 18.429688 31.683594 18.324219 31.914062 18.195312 C 32.359375 18.027344 32.808594 18.019531 33.257812 18.171875 C 34.527344 17.097656 35.886719 16.152344 37.339844 15.339844 C 38.75 14.554688 40.167969 13.78125 41.585938 13.011719 C 42.683594 12.429688 43.789062 11.859375 44.898438 11.304688 C 45.480469 11.070312 46.039062 11.109375 46.578125 11.425781 C 46.988281 11.691406 47.335938 12.023438 47.625 12.421875 C 48.652344 13.847656 48.875 15.390625 48.296875 17.054688 C 48.078125 17.542969 47.753906 17.949219 47.324219 18.265625 C 46.46875 18.660156 45.832031 18.433594 45.414062 17.582031 C 45.292969 17.273438 45.15625 16.96875 45.007812 16.671875 C 44.867188 16.453125 44.667969 16.332031 44.40625 16.3125 C 43.996094 16.386719 43.625 16.550781 43.289062 16.800781 C 43.152344 16.910156 43.015625 17.019531 42.882812 17.140625 C 42.425781 17.617188 41.964844 18.089844 41.492188 18.554688 C 41.066406 18.914062 40.644531 19.273438 40.21875 19.636719 C 39.761719 20.082031 39.3125 20.539062 38.875 21.003906 C 38.417969 21.375 37.953125 21.734375 37.480469 22.082031 C 37.351562 22.191406 37.226562 22.308594 37.109375 22.429688 C 36.910156 22.703125 36.714844 22.984375 36.535156 23.273438 C 36.390625 23.453125 36.214844 23.589844 36.003906 23.679688 C 36.0625 24.210938 36.132812 24.738281 36.222656 25.265625 C 36.246094 25.625 36.230469 25.984375 36.171875 26.34375 C 35.953125 27.316406 35.710938 28.285156 35.453125 29.25 C 34.671875 31.917969 32.921875 33.542969 30.195312 34.121094 C 28.863281 34.398438 27.546875 34.328125 26.25 33.917969 C 24.851562 33.433594 23.792969 32.546875 23.066406 31.265625 C 22.53125 30.175781 22.074219 29.058594 21.699219 27.90625 C 21.617188 27.628906 21.542969 27.347656 21.484375 27.0625 C 21.386719 26.464844 21.308594 25.867188 21.242188 25.265625 C 21.136719 24.726562 21.023438 24.1875 20.894531 23.65625 C 20.363281 23.757812 19.835938 23.882812 19.3125 24.027344 C 18.664062 24.167969 18.007812 24.226562 17.34375 24.195312 C 16.851562 24.171875 16.363281 24.128906 15.878906 24.0625 C 15.910156 24.972656 15.910156 25.878906 15.878906 26.789062 C 15.894531 27.378906 15.914062 27.972656 15.925781 28.566406 C 15.9375 30.109375 15.378906 31.40625 14.246094 32.453125 C 13 33.519531 11.550781 34.105469 9.902344 34.207031 C 9.207031 34.269531 8.527344 34.207031 7.859375 34.011719 C 6.933594 33.679688 6.007812 33.351562 5.078125 33.027344 C 3.8125 32.46875 3 31.519531 2.640625 30.183594 C 2.484375 29.601562 2.324219 29.015625 2.160156 28.433594 C 1.933594 27.851562 1.71875 27.269531 1.511719 26.679688 C 1.210938 25.800781 1.15625 24.902344 1.34375 23.992188 C 1.421875 23.582031 1.507812 23.171875 1.609375 22.769531 C 1.65625 22.605469 1.730469 22.457031 1.835938 22.324219 C 1.773438 22.308594 1.707031 22.308594 1.644531 22.324219 C 1.539062 22.441406 1.410156 22.527344 1.261719 22.574219 C 1.015625 22.542969 0.917969 22.40625 0.960938 22.167969 C 1.066406 22.027344 1.179688 21.890625 1.296875 21.757812 C 1.480469 21.472656 1.671875 21.191406 1.871094 20.917969 C 2.039062 20.761719 2.210938 20.613281 2.386719 20.476562 C 3.714844 19.5625 5.042969 18.652344 6.371094 17.738281 C 7.753906 16.867188 9.136719 16.003906 10.527344 15.144531 C 11.992188 14.199219 13.441406 13.222656 14.871094 12.21875 C 15.527344 11.785156 16.183594 11.355469 16.839844 10.921875 C 17.316406 10.5625 17.789062 10.195312 18.253906 9.816406 C 19.042969 9.246094 19.917969 9.0625 20.871094 9.265625 C 21.246094 9.414062 21.53125 9.667969 21.722656 10.023438 C 22.011719 10.546875 22.179688 11.105469 22.226562 11.703125 C 22.3125 12.367188 22.296875 13.03125 22.179688 13.695312 C 22.09375 14.234375 21.867188 14.703125 21.496094 15.097656 C 21.121094 15.421875 20.683594 15.601562 20.1875 15.636719 C 19.457031 15.578125 19.085938 15.179688 19.082031 14.4375 C 19.070312 14.230469 19.066406 14.023438 19.070312 13.8125 Z M 8.558594 33.210938 C 8.667969 33.210938 8.769531 33.226562 8.871094 33.257812 C 8.757812 33.261719 8.65625 33.246094 8.558594 33.210938 Z M 8.558594 33.210938 "/>
</g>
<mask id="mask1">
  <g filter="url(#alpha)">
<rect x="0" y="0" width="50" height="50" style="fill:rgb(0%,0%,0%);fill-opacity:0.784314;stroke:none;"/>
  </g>
</mask>
<clipPath id="clip2">
  <rect width="50" height="50"/>
</clipPath>
<g id="surface9" clip-path="url(#clip2)">
<path style=" stroke:none;fill-rule:evenodd;fill:rgb(94.509804%,94.509804%,94.509804%);fill-opacity:1;" d="M 18.832031 13.285156 C 19 13.417969 19.078125 13.59375 19.070312 13.8125 C 18.980469 13.644531 18.898438 13.46875 18.832031 13.285156 Z M 18.832031 13.285156 "/>
</g>
</defs>
<g id="surface1">
<use xlink:href="#surface6" mask="url(#mask0)"/>
<path style=" stroke:none;fill-rule:evenodd;fill:rgb(99.215686%,99.215686%,99.215686%);fill-opacity:1;" d="M 20.101562 10.046875 C 20.542969 9.984375 20.863281 10.144531 21.074219 10.527344 C 21.472656 11.292969 21.617188 12.109375 21.507812 12.972656 C 21.484375 13.28125 21.4375 13.585938 21.363281 13.886719 C 21.253906 14.277344 21.027344 14.574219 20.679688 14.785156 C 20.535156 14.863281 20.382812 14.917969 20.222656 14.941406 C 19.96875 14.886719 19.832031 14.726562 19.804688 14.460938 C 19.792969 14.246094 19.796875 14.03125 19.816406 13.8125 C 19.816406 13.171875 19.511719 12.761719 18.902344 12.578125 C 18.632812 12.519531 18.371094 12.535156 18.109375 12.625 C 17.960938 12.695312 17.816406 12.773438 17.679688 12.867188 C 17.144531 13.339844 16.566406 13.753906 15.949219 14.113281 C 15.789062 14.234375 15.628906 14.355469 15.46875 14.472656 C 14.800781 15.046875 14.144531 15.640625 13.503906 16.25 C 12.414062 17.074219 11.335938 17.90625 10.261719 18.746094 C 9.308594 19.546875 8.394531 20.390625 7.511719 21.28125 C 7.492188 21.320312 7.472656 21.359375 7.453125 21.398438 C 5.660156 21.628906 3.859375 21.753906 2.050781 21.769531 C 2.253906 21.523438 2.484375 21.304688 2.75 21.125 C 4.347656 20.078125 5.941406 19.019531 7.523438 17.953125 C 9.144531 16.972656 10.753906 15.972656 12.351562 14.953125 C 14.058594 13.792969 15.777344 12.648438 17.511719 11.523438 C 17.984375 11.160156 18.453125 10.800781 18.925781 10.441406 C 19.292969 10.226562 19.683594 10.09375 20.101562 10.046875 Z M 20.101562 10.046875 "/>
<path style=" stroke:none;fill-rule:evenodd;fill:rgb(99.607843%,99.607843%,99.607843%);fill-opacity:1;" d="M 45.476562 11.847656 C 45.855469 11.835938 46.183594 11.960938 46.460938 12.21875 C 47.851562 13.554688 48.207031 15.128906 47.527344 16.933594 C 47.382812 17.183594 47.195312 17.394531 46.964844 17.570312 C 46.761719 17.710938 46.5625 17.710938 46.363281 17.570312 C 46.269531 17.492188 46.191406 17.402344 46.136719 17.292969 C 45.992188 16.992188 45.847656 16.6875 45.703125 16.382812 C 45.160156 15.539062 44.425781 15.332031 43.507812 15.769531 C 43.0625 15.996094 42.652344 16.277344 42.28125 16.609375 C 41.332031 17.546875 40.347656 18.441406 39.332031 19.300781 C 39.019531 19.609375 38.707031 19.921875 38.394531 20.234375 C 37.8125 20.714844 37.230469 21.183594 36.640625 21.652344 C 36.382812 21.894531 36.15625 22.167969 35.96875 22.46875 C 35.871094 22.476562 35.78125 22.511719 35.707031 22.574219 C 35.398438 21.867188 35.097656 21.15625 34.804688 20.4375 C 34.472656 19.765625 34.097656 19.125 33.675781 18.519531 C 34.246094 18.046875 34.84375 17.609375 35.464844 17.210938 C 36.160156 16.773438 36.867188 16.351562 37.578125 15.9375 C 40.042969 14.578125 42.539062 13.265625 45.066406 12 C 45.203125 11.941406 45.339844 11.890625 45.476562 11.847656 Z M 45.476562 11.847656 "/>
<use xlink:href="#surface9" mask="url(#mask1)"/>
<path style=" stroke:none;fill-rule:evenodd;fill:rgb(1.568627%,1.568627%,1.568627%);fill-opacity:1;" d="M 38.945312 16.910156 C 39.160156 16.894531 39.265625 16.992188 39.269531 17.199219 C 39.238281 17.28125 39.183594 17.347656 39.113281 17.402344 C 38.265625 18.066406 37.425781 18.738281 36.59375 19.417969 C 36.363281 19.492188 36.253906 19.410156 36.269531 19.167969 C 36.304688 19.109375 36.347656 19.054688 36.402344 19.011719 C 37.246094 18.304688 38.09375 17.605469 38.945312 16.910156 Z M 38.945312 16.910156 "/>
<path style=" stroke:none;fill-rule:evenodd;fill:rgb(99.607843%,99.607843%,99.607843%);fill-opacity:1;" d="M 32.464844 19.023438 C 32.765625 19.011719 32.984375 19.140625 33.125 19.40625 C 33.425781 19.882812 33.703125 20.371094 33.964844 20.871094 C 34.3125 21.628906 34.632812 22.398438 34.925781 23.175781 C 34.984375 23.40625 35.03125 23.636719 35.070312 23.871094 C 35.109375 24.296875 35.164062 24.722656 35.238281 25.144531 C 35.28125 25.679688 35.230469 26.207031 35.09375 26.726562 C 34.878906 27.523438 34.679688 28.324219 34.492188 29.128906 C 33.8125 31.28125 32.378906 32.628906 30.183594 33.171875 C 29.113281 33.410156 28.039062 33.410156 26.96875 33.171875 C 25.542969 32.808594 24.480469 31.980469 23.789062 30.6875 C 23.175781 29.480469 22.6875 28.222656 22.324219 26.921875 C 22.222656 26.269531 22.121094 25.625 22.011719 24.976562 C 21.894531 24.496094 21.78125 24.015625 21.664062 23.535156 C 22.207031 23.515625 22.402344 23.242188 22.25 22.71875 C 22.167969 22.570312 22.042969 22.480469 21.878906 22.445312 C 21.734375 22.421875 21.59375 22.410156 21.449219 22.40625 C 21.429688 22.160156 21.402344 21.910156 21.363281 21.664062 C 21.324219 21.554688 21.28125 21.445312 21.230469 21.339844 C 21.421875 21.253906 21.515625 21.105469 21.519531 20.894531 C 21.753906 20.898438 21.984375 20.886719 22.214844 20.859375 C 22.691406 20.761719 23.171875 20.691406 23.65625 20.644531 C 24.335938 20.636719 25.015625 20.628906 25.695312 20.621094 C 27.304688 20.4375 28.878906 20.109375 30.425781 19.636719 C 30.734375 19.566406 31.046875 19.511719 31.359375 19.46875 C 31.515625 19.425781 31.667969 19.375 31.816406 19.324219 C 32.027344 19.210938 32.246094 19.109375 32.464844 19.023438 Z M 32.464844 19.023438 "/>
<path style=" stroke:none;fill-rule:evenodd;fill:rgb(1.176471%,1.176471%,1.176471%);fill-opacity:1;" d="M 7.429688 19.238281 C 7.726562 19.210938 7.835938 19.339844 7.753906 19.625 C 7.285156 20.050781 6.808594 20.472656 6.324219 20.882812 C 6.148438 20.984375 6 20.957031 5.882812 20.800781 C 5.828125 20.683594 5.832031 20.574219 5.894531 20.464844 C 6.371094 20.007812 6.882812 19.601562 7.429688 19.238281 Z M 7.429688 19.238281 "/>
<path style=" stroke:none;fill-rule:evenodd;fill:rgb(66.27451%,22.745098%,17.647059%);fill-opacity:1;" d="M 15.132812 20.535156 C 15.488281 20.574219 15.839844 20.617188 16.191406 20.667969 C 17.246094 20.847656 18.304688 21.03125 19.359375 21.21875 C 19.773438 21.289062 20.1875 21.335938 20.605469 21.363281 C 20.660156 21.5 20.695312 21.636719 20.714844 21.785156 C 20.726562 22.023438 20.730469 22.261719 20.726562 22.503906 C 20.191406 22.644531 19.664062 22.808594 19.144531 22.996094 C 18.789062 23.105469 18.429688 23.175781 18.0625 23.210938 C 17.300781 23.230469 16.542969 23.265625 15.78125 23.320312 C 15.757812 22.941406 15.703125 22.5625 15.625 22.191406 C 15.453125 21.640625 15.289062 21.089844 15.132812 20.535156 Z M 15.132812 20.535156 "/>
<path style=" stroke:none;fill-rule:evenodd;fill:rgb(1.176471%,1.176471%,1.176471%);fill-opacity:1;" d="M 28.242188 20.65625 C 28.457031 20.652344 28.550781 20.757812 28.515625 20.96875 C 27.796875 22.589844 27.101562 24.222656 26.429688 25.863281 C 26.117188 26.738281 25.90625 27.632812 25.804688 28.550781 C 25.652344 28.703125 25.480469 28.730469 25.289062 28.636719 C 25.152344 28.507812 25.109375 28.351562 25.15625 28.167969 C 25.289062 27.070312 25.59375 26.023438 26.066406 25.023438 C 26.726562 23.609375 27.398438 22.203125 28.085938 20.800781 C 28.121094 20.730469 28.171875 20.683594 28.242188 20.65625 Z M 28.242188 20.65625 "/>
<path style=" stroke:none;fill-rule:evenodd;fill:rgb(99.607843%,99.607843%,99.607843%);fill-opacity:1;" d="M 9.0625 33.28125 C 9.003906 33.257812 8.9375 33.25 8.871094 33.257812 C 8.769531 33.226562 8.667969 33.210938 8.558594 33.210938 C 8.515625 33.1875 8.46875 33.179688 8.414062 33.183594 C 7.988281 33.074219 7.570312 32.925781 7.164062 32.742188 C 6.757812 32.605469 6.347656 32.46875 5.941406 32.332031 C 4.667969 31.933594 3.867188 31.089844 3.527344 29.800781 C 3.40625 29.265625 3.261719 28.738281 3.097656 28.214844 C 2.859375 27.621094 2.632812 27.023438 2.425781 26.417969 C 2.332031 26.09375 2.261719 25.765625 2.207031 25.433594 C 2.195312 24.828125 2.273438 24.234375 2.449219 23.65625 C 2.449219 23.46875 2.476562 23.285156 2.519531 23.105469 C 2.546875 23.03125 2.589844 22.96875 2.652344 22.921875 C 2.832031 22.820312 3.015625 22.726562 3.203125 22.636719 C 3.300781 22.539062 3.351562 22.425781 3.347656 22.289062 C 4.898438 22.257812 6.441406 22.160156 7.980469 21.988281 C 9.710938 21.765625 11.4375 21.523438 13.167969 21.265625 C 13.621094 21.207031 14.0625 21.089844 14.484375 20.917969 C 14.644531 21.375 14.777344 21.839844 14.882812 22.3125 C 14.984375 22.875 15.046875 23.445312 15.074219 24.015625 C 15.089844 25.648438 15.089844 27.28125 15.074219 28.914062 C 14.976562 30.214844 14.414062 31.257812 13.382812 32.046875 C 12.089844 32.964844 10.652344 33.378906 9.0625 33.28125 Z M 9.0625 33.28125 "/>
<path style=" stroke:none;fill-rule:evenodd;fill:rgb(1.176471%,1.176471%,1.176471%);fill-opacity:1;" d="M 30.089844 21.617188 C 30.210938 21.609375 30.300781 21.65625 30.363281 21.757812 C 30.382812 21.792969 30.382812 21.824219 30.363281 21.855469 C 29.847656 22.980469 29.375 24.125 28.949219 25.289062 C 28.421875 26.84375 27.882812 28.390625 27.328125 29.933594 C 27.230469 30.203125 27.164062 30.476562 27.125 30.761719 C 27.046875 30.875 26.9375 30.917969 26.800781 30.894531 C 26.75 30.871094 26.710938 30.835938 26.691406 30.785156 C 26.675781 30.648438 26.675781 30.511719 26.691406 30.375 C 26.761719 29.910156 26.882812 29.453125 27.050781 29.007812 C 27.40625 28.042969 27.75 27.074219 28.085938 26.105469 C 28.636719 24.601562 29.277344 23.136719 30.003906 21.710938 C 30.039062 21.683594 30.066406 21.652344 30.089844 21.617188 Z M 30.089844 21.617188 "/>
<path style=" stroke:none;fill-rule:evenodd;fill:rgb(0.784314%,0.784314%,0.784314%);fill-opacity:1;" d="M 9.734375 22.839844 C 10.078125 22.820312 10.242188 22.980469 10.226562 23.320312 C 9.828125 24.109375 9.433594 24.898438 9.050781 25.695312 C 8.769531 26.386719 8.484375 27.078125 8.183594 27.761719 C 8.019531 28.132812 7.929688 28.527344 7.921875 28.9375 C 7.8125 29.148438 7.640625 29.234375 7.40625 29.1875 C 7.277344 29.148438 7.191406 29.066406 7.152344 28.9375 C 7.117188 28.5 7.171875 28.078125 7.320312 27.664062 C 7.640625 26.929688 7.960938 26.191406 8.28125 25.457031 C 8.707031 24.628906 9.140625 23.804688 9.578125 22.984375 C 9.613281 22.917969 9.664062 22.867188 9.734375 22.839844 Z M 9.734375 22.839844 "/>
<path style=" stroke:none;fill-rule:evenodd;fill:rgb(0.784314%,0.784314%,0.784314%);fill-opacity:1;" d="M 11.390625 24.566406 C 11.675781 24.542969 11.796875 24.671875 11.761719 24.953125 C 11.417969 25.671875 11.097656 26.398438 10.800781 27.136719 C 10.554688 27.886719 10.3125 28.636719 10.082031 29.394531 C 9.894531 29.90625 9.601562 30.351562 9.207031 30.726562 C 8.921875 30.878906 8.707031 30.8125 8.570312 30.519531 C 8.546875 30.417969 8.5625 30.320312 8.617188 30.234375 C 8.949219 29.941406 9.195312 29.585938 9.363281 29.175781 C 9.582031 28.582031 9.792969 27.980469 9.984375 27.375 C 10.359375 26.445312 10.792969 25.539062 11.28125 24.664062 C 11.316406 24.625 11.351562 24.59375 11.390625 24.566406 Z M 11.390625 24.566406 "/>
</g>
</svg>
