<?xml version="1.0" encoding="UTF-8"?>
<svg xmlns="http://www.w3.org/2000/svg" xmlns:xlink="http://www.w3.org/1999/xlink" width="50pt" height="50pt" viewBox="0 0 50 50" version="1.1">
<defs>
<filter id="alpha" filterUnits="objectBoundingBox" x="0%" y="0%" width="100%" height="100%">
  <feColorMatrix type="matrix" in="SourceGraphic" values="0 0 0 0 1 0 0 0 0 1 0 0 0 0 1 0 0 0 1 0"/>
</filter>
<mask id="mask0">
  <g filter="url(#alpha)">
<rect x="0" y="0" width="50" height="50" style="fill:rgb(0%,0%,0%);fill-opacity:0.988235;stroke:none;"/>
  </g>
</mask>
<clipPath id="clip1">
  <rect width="50" height="50"/>
</clipPath>
<g id="surface6" clip-path="url(#clip1)">
<path style=" stroke:none;fill-rule:evenodd;fill:rgb(0.392157%,0.392157%,0.392157%);fill-opacity:1;" d="M 14.917969 1.910156 C 15.015625 1.949219 15.121094 1.964844 15.230469 1.957031 C 21.863281 2.371094 28.496094 2.492188 35.128906 2.316406 C 37.257812 2.246094 39.386719 2.179688 41.515625 2.113281 C 41.933594 2.089844 42.347656 2.097656 42.761719 2.136719 C 42.863281 2.222656 42.949219 2.320312 43.015625 2.4375 C 43.027344 3.363281 43.023438 4.292969 43.003906 5.222656 C 42.910156 17.207031 42.835938 29.191406 42.773438 41.179688 C 42.757812 42.164062 42.71875 43.148438 42.65625 44.132812 C 42.605469 44.324219 42.484375 44.402344 42.28125 44.359375 C 42.179688 44.328125 42.121094 44.261719 42.101562 44.15625 C 42.046875 44.253906 41.964844 44.3125 41.851562 44.335938 C 33.105469 44.480469 24.359375 44.523438 15.613281 44.46875 C 14.183594 44.488281 12.75 44.492188 11.316406 44.480469 C 10.332031 44.460938 9.347656 44.398438 8.367188 44.285156 C 8.171875 44.222656 8.105469 44.089844 8.160156 43.890625 C 8.199219 43.8125 8.257812 43.761719 8.339844 43.734375 C 8.285156 43.484375 8.238281 43.234375 8.210938 42.980469 C 8.144531 42.386719 8.074219 41.792969 7.992188 41.203125 C 7.976562 40.988281 7.976562 40.769531 7.992188 40.554688 C 8.058594 40.25 8.246094 40.078125 8.558594 40.039062 C 8.964844 40 9.375 40.007812 9.78125 40.0625 C 9.96875 40.117188 10.054688 40.242188 10.046875 40.433594 C 10.042969 40.496094 10.035156 40.554688 10.023438 40.613281 C 10.078125 40.726562 10.152344 40.824219 10.238281 40.914062 C 10.511719 41.195312 10.835938 41.289062 11.222656 41.203125 C 11.734375 41.039062 12.066406 40.691406 12.21875 40.171875 C 12.289062 39.9375 12.316406 39.695312 12.300781 39.449219 C 12.265625 39.097656 12.132812 38.789062 11.894531 38.527344 C 11.832031 38.464844 11.757812 38.421875 11.679688 38.394531 C 11.261719 38.289062 10.945312 38.425781 10.730469 38.800781 C 10.628906 39.0625 10.515625 39.316406 10.394531 39.570312 C 10.242188 39.792969 10.0625 39.816406 9.855469 39.640625 C 9.476562 39.867188 9.066406 39.945312 8.628906 39.871094 C 8.265625 39.839844 7.980469 39.675781 7.777344 39.378906 C 7.730469 39.222656 7.699219 39.0625 7.679688 38.898438 C 7.539062 37.761719 7.40625 36.628906 7.285156 35.488281 C 7.316406 35.269531 7.445312 35.152344 7.667969 35.140625 C 8.1875 35.066406 8.707031 35.035156 9.230469 35.046875 C 9.300781 35.054688 9.375 35.066406 9.445312 35.082031 C 9.589844 35.011719 9.730469 35.019531 9.867188 35.105469 C 9.976562 35.449219 10.164062 35.734375 10.429688 35.96875 C 10.601562 36.121094 10.800781 36.21875 11.03125 36.257812 C 11.871094 36.261719 12.355469 35.84375 12.480469 35.007812 C 12.574219 34.308594 12.351562 33.726562 11.820312 33.269531 C 11.585938 33.101562 11.320312 33.015625 11.03125 33.015625 C 10.746094 33.050781 10.53125 33.1875 10.382812 33.425781 C 10.273438 33.617188 10.183594 33.816406 10.105469 34.027344 C 10.019531 34.097656 9.917969 34.128906 9.804688 34.121094 C 9.824219 34.261719 9.769531 34.355469 9.636719 34.398438 C 9.089844 34.519531 8.539062 34.550781 7.980469 34.492188 C 7.761719 34.464844 7.601562 34.351562 7.5 34.15625 C 7.449219 34.136719 7.40625 34.109375 7.371094 34.074219 C 7.226562 33.777344 7.144531 33.464844 7.128906 33.136719 C 7.066406 32.085938 6.996094 31.03125 6.925781 29.980469 C 6.9375 29.859375 6.992188 29.761719 7.09375 29.691406 C 7.578125 29.550781 8.074219 29.46875 8.582031 29.453125 C 8.917969 29.4375 9.253906 29.445312 9.589844 29.476562 C 9.785156 29.53125 9.878906 29.65625 9.878906 29.859375 C 9.855469 30.285156 10.007812 30.636719 10.332031 30.917969 C 10.761719 31.191406 11.1875 31.183594 11.605469 30.894531 C 11.878906 30.628906 12.035156 30.304688 12.074219 29.921875 C 12.148438 29.371094 12.046875 28.859375 11.761719 28.382812 C 11.347656 27.878906 10.855469 27.785156 10.285156 28.109375 C 10.160156 28.222656 10.058594 28.351562 9.984375 28.503906 C 9.832031 28.597656 9.675781 28.597656 9.515625 28.503906 C 9.46875 28.441406 9.433594 28.367188 9.410156 28.289062 C 9.394531 28.222656 9.394531 28.160156 9.410156 28.097656 C 9.726562 27.515625 10.21875 27.21875 10.886719 27.207031 C 11.769531 27.28125 12.359375 27.738281 12.648438 28.578125 C 12.863281 29.257812 12.855469 29.9375 12.625 30.617188 C 12.261719 31.5 11.601562 31.898438 10.644531 31.804688 C 9.828125 31.566406 9.410156 31.019531 9.398438 30.160156 C 8.816406 30.140625 8.242188 30.171875 7.667969 30.257812 C 7.746094 31.367188 7.792969 32.480469 7.800781 33.59375 C 7.777344 33.667969 7.773438 33.738281 7.789062 33.808594 C 7.867188 33.792969 7.949219 33.785156 8.027344 33.785156 C 8.539062 33.839844 9.050781 33.871094 9.566406 33.882812 C 9.515625 33.441406 9.652344 33.066406 9.972656 32.765625 C 10.6875 32.175781 11.4375 32.121094 12.230469 32.597656 C 12.777344 33.058594 13.101562 33.648438 13.203125 34.363281 C 13.28125 35.042969 13.128906 35.667969 12.746094 36.234375 C 12.152344 36.921875 11.417969 37.125 10.550781 36.847656 C 10.046875 36.605469 9.699219 36.222656 9.515625 35.695312 C 9.035156 35.796875 8.546875 35.847656 8.054688 35.851562 C 8.140625 36.785156 8.214844 37.722656 8.28125 38.65625 C 8.285156 38.78125 8.304688 38.902344 8.339844 39.019531 C 8.734375 39.226562 9.136719 39.238281 9.542969 39.054688 C 9.640625 39.03125 9.738281 39.042969 9.828125 39.089844 C 9.988281 38.425781 10.378906 37.957031 11.003906 37.6875 C 11.890625 37.539062 12.511719 37.878906 12.867188 38.707031 C 13.128906 39.390625 13.09375 40.0625 12.769531 40.722656 C 12.296875 41.675781 11.542969 42.050781 10.5 41.839844 C 9.964844 41.667969 9.621094 41.3125 9.46875 40.769531 C 9.222656 40.722656 8.976562 40.710938 8.726562 40.734375 C 8.714844 40.746094 8.703125 40.757812 8.6875 40.769531 C 8.6875 41.039062 8.71875 41.300781 8.785156 41.5625 C 8.859375 42.265625 8.902344 42.96875 8.917969 43.675781 C 9.632812 43.640625 10.347656 43.625 11.066406 43.628906 C 12.359375 43.640625 13.648438 43.664062 14.941406 43.699219 C 16.640625 43.738281 18.347656 43.757812 20.054688 43.757812 C 27.175781 43.789062 34.296875 43.742188 41.417969 43.628906 C 41.578125 43.632812 41.738281 43.636719 41.898438 43.640625 C 41.972656 43.664062 42.03125 43.707031 42.078125 43.769531 C 42.035156 42.644531 42.015625 41.515625 42.019531 40.386719 C 42.117188 28.664062 42.203125 16.941406 42.28125 5.222656 C 42.28125 4.949219 42.28125 4.675781 42.28125 4.40625 C 42.308594 3.871094 42.316406 3.335938 42.308594 2.796875 C 42.230469 2.789062 42.15625 2.796875 42.089844 2.820312 C 40.875 2.90625 39.660156 2.964844 38.441406 3 C 30.453125 3.234375 22.46875 3.128906 14.484375 2.6875 C 12.546875 2.5625 10.613281 2.410156 8.675781 2.230469 C 8.613281 2.210938 8.5625 2.175781 8.519531 2.125 C 8.484375 2.351562 8.355469 2.4375 8.125 2.375 C 8.027344 2.300781 7.917969 2.242188 7.800781 2.195312 C 7.644531 2.238281 7.535156 2.332031 7.476562 2.484375 C 7.449219 2.546875 7.429688 2.609375 7.417969 2.675781 C 7.40625 3.238281 7.402344 3.796875 7.40625 4.355469 C 7.71875 4.386719 8.03125 4.386719 8.339844 4.355469 C 8.398438 4.371094 8.453125 4.375 8.507812 4.367188 C 8.488281 4.328125 8.480469 4.285156 8.484375 4.238281 C 8.683594 3.738281 9.042969 3.414062 9.566406 3.265625 C 9.941406 3.167969 10.308594 3.191406 10.667969 3.335938 C 10.839844 3.414062 11 3.507812 11.148438 3.613281 C 11.355469 3.808594 11.523438 4.035156 11.652344 4.285156 C 11.722656 4.472656 11.773438 4.664062 11.808594 4.859375 C 11.828125 5.078125 11.824219 5.292969 11.796875 5.507812 C 11.777344 5.535156 11.765625 5.566406 11.773438 5.605469 C 11.574219 6.320312 11.117188 6.789062 10.40625 7.007812 C 9.746094 7.09375 9.238281 6.855469 8.882812 6.300781 C 8.792969 6.144531 8.742188 5.976562 8.726562 5.796875 C 8.40625 5.835938 8.085938 5.875 7.765625 5.90625 C 7.648438 5.941406 7.558594 6.007812 7.488281 6.109375 C 7.476562 6.683594 7.472656 7.261719 7.476562 7.835938 C 7.453125 8.039062 7.445312 8.25 7.453125 8.460938 C 7.484375 8.460938 7.515625 8.460938 7.550781 8.460938 C 8.070312 8.472656 8.582031 8.535156 9.085938 8.652344 C 9.203125 8.082031 9.546875 7.726562 10.117188 7.585938 C 10.757812 7.511719 11.257812 7.738281 11.617188 8.269531 C 12.007812 8.949219 12.070312 9.664062 11.808594 10.40625 C 11.585938 10.988281 11.175781 11.363281 10.574219 11.523438 C 9.960938 11.570312 9.492188 11.332031 9.167969 10.8125 C 9.089844 10.648438 9.042969 10.46875 9.039062 10.285156 C 8.988281 10.253906 8.941406 10.253906 8.894531 10.285156 C 8.464844 10.300781 8.039062 10.355469 7.621094 10.453125 C 7.765625 11.460938 7.78125 12.46875 7.667969 13.476562 C 8.046875 13.488281 8.421875 13.511719 8.796875 13.550781 C 8.875 13.046875 9.15625 12.707031 9.636719 12.53125 C 10.695312 12.277344 11.457031 12.640625 11.929688 13.621094 C 12.199219 14.304688 12.160156 14.96875 11.808594 15.613281 C 11.21875 16.410156 10.445312 16.671875 9.492188 16.394531 C 9.007812 16.1875 8.691406 15.832031 8.546875 15.328125 C 8.535156 15.238281 8.53125 15.152344 8.535156 15.0625 C 8.207031 15.117188 7.882812 15.171875 7.5625 15.230469 C 7.640625 15.765625 7.710938 16.300781 7.777344 16.839844 C 7.8125 17.316406 7.835938 17.796875 7.847656 18.277344 C 8.253906 18.351562 8.640625 18.488281 9 18.6875 C 8.957031 18.554688 8.929688 18.414062 8.917969 18.265625 C 9.019531 17.769531 9.285156 17.386719 9.710938 17.113281 C 10.085938 16.925781 10.46875 16.910156 10.863281 17.066406 C 11.460938 17.359375 11.859375 17.828125 12.050781 18.472656 C 12.214844 19.082031 12.183594 19.683594 11.953125 20.269531 C 11.5625 21.058594 10.933594 21.363281 10.070312 21.195312 C 9.714844 21.082031 9.40625 20.894531 9.144531 20.632812 C 9.019531 20.480469 8.9375 20.308594 8.894531 20.113281 C 8.582031 20.136719 8.269531 20.152344 7.957031 20.164062 C 7.726562 20.21875 7.59375 20.367188 7.5625 20.605469 C 7.585938 21.261719 7.59375 21.917969 7.585938 22.574219 C 8.042969 22.59375 8.503906 22.597656 8.964844 22.585938 C 9.09375 22.621094 9.222656 22.644531 9.347656 22.660156 C 9.667969 22.214844 10.105469 21.976562 10.65625 21.953125 C 11.625 22.003906 12.257812 22.492188 12.554688 23.414062 C 12.792969 24.417969 12.527344 25.257812 11.75 25.925781 C 10.886719 26.519531 10.089844 26.445312 9.363281 25.695312 C 9.101562 25.367188 8.976562 24.988281 8.988281 24.566406 C 8.566406 24.527344 8.140625 24.515625 7.71875 24.53125 C 7.601562 24.570312 7.480469 24.589844 7.355469 24.59375 C 7.351562 24.71875 7.355469 24.847656 7.371094 24.976562 C 7.542969 25.988281 7.703125 27.003906 7.847656 28.023438 C 8.363281 28.089844 8.863281 28.210938 9.347656 28.398438 C 9.386719 28.429688 9.417969 28.464844 9.445312 28.503906 C 9.464844 28.714844 9.371094 28.820312 9.15625 28.816406 C 8.558594 28.738281 7.957031 28.6875 7.355469 28.660156 C 7.3125 28.617188 7.269531 28.574219 7.226562 28.527344 C 7.082031 27.691406 6.945312 26.851562 6.816406 26.007812 C 6.734375 25.667969 6.660156 25.324219 6.601562 24.976562 C 6.445312 24.285156 6.710938 23.886719 7.40625 23.789062 C 7.996094 23.757812 8.585938 23.789062 9.167969 23.871094 C 9.332031 23.789062 9.476562 23.8125 9.601562 23.945312 C 9.605469 23.976562 9.609375 24.007812 9.613281 24.039062 C 9.425781 24.71875 9.640625 25.21875 10.261719 25.539062 C 10.644531 25.675781 10.996094 25.621094 11.316406 25.371094 C 11.976562 24.753906 12.109375 24.039062 11.714844 23.222656 C 11.640625 23.136719 11.574219 23.050781 11.511719 22.960938 C 11.402344 22.828125 11.265625 22.742188 11.101562 22.695312 C 10.476562 22.527344 10.027344 22.738281 9.746094 23.320312 C 9.65625 23.410156 9.546875 23.4375 9.421875 23.402344 C 9.332031 23.363281 9.253906 23.300781 9.195312 23.222656 C 9.03125 23.261719 8.867188 23.28125 8.703125 23.285156 C 8.390625 23.292969 8.078125 23.304688 7.765625 23.320312 C 7.484375 23.347656 7.238281 23.269531 7.03125 23.078125 C 6.886719 22.824219 6.828125 22.546875 6.851562 22.25 C 6.882812 21.722656 6.867188 21.195312 6.804688 20.667969 C 6.78125 20.300781 6.882812 19.980469 7.117188 19.707031 C 7.453125 19.5 7.820312 19.394531 8.222656 19.394531 C 8.566406 19.378906 8.910156 19.386719 9.253906 19.417969 C 9.515625 19.511719 9.589844 19.691406 9.46875 19.945312 C 9.605469 20.179688 9.789062 20.363281 10.023438 20.5 C 10.792969 20.695312 11.269531 20.402344 11.449219 19.625 C 11.53125 19.0625 11.414062 18.550781 11.101562 18.085938 C 11.054688 17.992188 10.980469 17.917969 10.886719 17.871094 C 10.585938 17.648438 10.265625 17.613281 9.925781 17.761719 C 9.742188 17.90625 9.65625 18.09375 9.660156 18.328125 C 9.703125 18.507812 9.691406 18.683594 9.625 18.855469 C 9.578125 18.910156 9.519531 18.945312 9.445312 18.949219 C 9.339844 18.9375 9.242188 18.898438 9.15625 18.832031 C 9.144531 18.980469 9.0625 19.070312 8.917969 19.09375 C 8.398438 18.949219 7.871094 18.886719 7.332031 18.914062 C 7.234375 18.878906 7.164062 18.8125 7.128906 18.710938 C 7.140625 17.457031 7.015625 16.214844 6.757812 14.992188 C 6.75 14.859375 6.796875 14.75 6.902344 14.667969 C 7.382812 14.453125 7.886719 14.367188 8.414062 14.402344 C 8.597656 14.429688 8.769531 14.488281 8.929688 14.582031 C 8.964844 14.960938 9.113281 15.292969 9.375 15.578125 C 10.007812 15.988281 10.59375 15.929688 11.136719 15.398438 C 11.535156 14.792969 11.535156 14.183594 11.136719 13.574219 C 10.871094 13.230469 10.523438 13.066406 10.09375 13.082031 C 9.839844 13.128906 9.640625 13.257812 9.503906 13.476562 C 9.429688 13.640625 9.375 13.808594 9.335938 13.980469 C 9.28125 14.058594 9.207031 14.097656 9.109375 14.101562 C 9.023438 14.082031 8.9375 14.046875 8.855469 14.007812 C 8.640625 14.042969 8.417969 14.0625 8.199219 14.066406 C 7.84375 14.085938 7.492188 14.09375 7.140625 14.089844 C 7.019531 14.007812 6.953125 13.894531 6.949219 13.742188 C 7.121094 12.570312 7.105469 11.402344 6.902344 10.238281 C 6.902344 10.066406 6.980469 9.949219 7.140625 9.890625 C 7.808594 9.707031 8.488281 9.609375 9.179688 9.601562 C 9.285156 9.679688 9.394531 9.757812 9.503906 9.828125 C 9.527344 10.015625 9.558594 10.199219 9.601562 10.382812 C 9.863281 10.871094 10.246094 10.988281 10.742188 10.730469 C 11.222656 10.257812 11.378906 9.695312 11.210938 9.039062 C 11.097656 8.628906 10.835938 8.378906 10.429688 8.28125 C 10.144531 8.230469 9.929688 8.328125 9.792969 8.582031 C 9.765625 8.738281 9.726562 8.890625 9.671875 9.039062 C 9.636719 9.074219 9.589844 9.101562 9.542969 9.121094 C 9.195312 9.195312 8.839844 9.238281 8.484375 9.253906 C 7.988281 9.226562 7.492188 9.183594 6.996094 9.121094 C 6.765625 9 6.679688 8.808594 6.734375 8.546875 C 6.761719 7.773438 6.761719 7 6.734375 6.230469 C 6.730469 5.972656 6.789062 5.734375 6.914062 5.507812 C 7.035156 5.367188 7.191406 5.28125 7.382812 5.257812 C 7.976562 5.117188 8.574219 5.078125 9.179688 5.136719 C 9.320312 5.222656 9.375 5.347656 9.335938 5.507812 C 9.3125 5.574219 9.277344 5.636719 9.230469 5.6875 C 9.421875 6.179688 9.78125 6.398438 10.308594 6.335938 C 10.683594 6.210938 10.9375 5.964844 11.078125 5.59375 C 11.269531 4.960938 11.101562 4.449219 10.574219 4.058594 C 10.09375 3.777344 9.652344 3.824219 9.242188 4.1875 C 9.148438 4.3125 9.058594 4.4375 8.964844 4.5625 C 8.878906 4.601562 8.789062 4.605469 8.703125 4.574219 C 8.691406 4.710938 8.628906 4.808594 8.507812 4.871094 C 8.058594 4.988281 7.601562 5.023438 7.140625 4.96875 C 6.949219 4.921875 6.816406 4.804688 6.746094 4.621094 C 6.707031 4.46875 6.6875 4.3125 6.683594 4.152344 C 6.703125 3.707031 6.714844 3.265625 6.722656 2.820312 C 6.726562 2.375 6.890625 2.003906 7.214844 1.703125 C 7.617188 1.453125 8.015625 1.464844 8.402344 1.742188 C 8.480469 1.566406 8.617188 1.496094 8.808594 1.523438 C 10.84375 1.667969 12.882812 1.796875 14.917969 1.910156 Z M 11.148438 3.613281 C 11.609375 3.617188 11.777344 3.839844 11.652344 4.285156 C 11.523438 4.035156 11.355469 3.808594 11.148438 3.613281 Z M 8.484375 4.238281 C 8.480469 4.285156 8.488281 4.328125 8.507812 4.367188 C 8.453125 4.375 8.398438 4.371094 8.339844 4.355469 C 8.375 4.300781 8.421875 4.257812 8.484375 4.238281 Z M 8.484375 4.238281 "/>
</g>
<mask id="mask1">
  <g filter="url(#alpha)">
<rect x="0" y="0" width="50" height="50" style="fill:rgb(0%,0%,0%);fill-opacity:0.941176;stroke:none;"/>
  </g>
</mask>
<clipPath id="clip2">
  <rect width="50" height="50"/>
</clipPath>
<g id="surface9" clip-path="url(#clip2)">
<path style=" stroke:none;fill-rule:evenodd;fill:rgb(96.862745%,96.862745%,96.862745%);fill-opacity:1;" d="M 15.230469 1.957031 C 15.230469 1.949219 15.230469 1.941406 15.230469 1.933594 C 21.863281 2.058594 28.496094 2.183594 35.128906 2.316406 C 28.496094 2.492188 21.863281 2.371094 15.230469 1.957031 Z M 15.230469 1.957031 "/>
</g>
<mask id="mask2">
  <g filter="url(#alpha)">
<rect x="0" y="0" width="50" height="50" style="fill:rgb(0%,0%,0%);fill-opacity:0.996078;stroke:none;"/>
  </g>
</mask>
<clipPath id="clip3">
  <rect width="50" height="50"/>
</clipPath>
<g id="surface12" clip-path="url(#clip3)">
<path style=" stroke:none;fill-rule:evenodd;fill:rgb(94.509804%,92.941176%,90.196078%);fill-opacity:1;" d="M 15.613281 44.46875 C 24.359375 44.523438 33.105469 44.480469 41.851562 44.335938 C 41.964844 44.3125 42.046875 44.253906 42.101562 44.15625 C 42.121094 44.261719 42.179688 44.328125 42.28125 44.359375 C 42.484375 44.402344 42.605469 44.324219 42.65625 44.132812 C 42.71875 43.148438 42.757812 42.164062 42.773438 41.179688 C 42.835938 29.191406 42.910156 17.207031 43.003906 5.222656 C 43.644531 5.207031 44.28125 5.199219 44.921875 5.195312 C 44.921875 18.511719 44.921875 31.824219 44.921875 45.140625 C 35.265625 46.097656 25.609375 47.046875 15.949219 47.996094 C 15.835938 46.820312 15.726562 45.644531 15.613281 44.46875 Z M 15.613281 44.46875 "/>
</g>
<mask id="mask3">
  <g filter="url(#alpha)">
<rect x="0" y="0" width="50" height="50" style="fill:rgb(0%,0%,0%);fill-opacity:0.964706;stroke:none;"/>
  </g>
</mask>
<clipPath id="clip4">
  <rect width="50" height="50"/>
</clipPath>
<g id="surface15" clip-path="url(#clip4)">
<path style=" stroke:none;fill-rule:evenodd;fill:rgb(76.470588%,76.470588%,76.470588%);fill-opacity:1;" d="M 10.886719 17.871094 C 10.980469 17.917969 11.054688 17.992188 11.101562 18.085938 C 11.023438 18.023438 10.949219 17.949219 10.886719 17.871094 Z M 10.886719 17.871094 "/>
</g>
<mask id="mask4">
  <g filter="url(#alpha)">
<rect x="0" y="0" width="50" height="50" style="fill:rgb(0%,0%,0%);fill-opacity:0.282353;stroke:none;"/>
  </g>
</mask>
<clipPath id="clip5">
  <rect width="50" height="50"/>
</clipPath>
<g id="surface18" clip-path="url(#clip5)">
<path style=" stroke:none;fill-rule:evenodd;fill:rgb(89.411765%,89.411765%,89.411765%);fill-opacity:1;" d="M 11.101562 22.695312 C 11.265625 22.742188 11.402344 22.828125 11.511719 22.960938 C 11.371094 22.878906 11.234375 22.789062 11.101562 22.695312 Z M 11.101562 22.695312 "/>
</g>
<mask id="mask5">
  <g filter="url(#alpha)">
<rect x="0" y="0" width="50" height="50" style="fill:rgb(0%,0%,0%);fill-opacity:0.760784;stroke:none;"/>
  </g>
</mask>
<clipPath id="clip6">
  <rect width="50" height="50"/>
</clipPath>
<g id="surface21" clip-path="url(#clip6)">
<path style=" stroke:none;fill-rule:evenodd;fill:rgb(90.588235%,90.588235%,90.588235%);fill-opacity:1;" d="M 11.03125 33.015625 C 10.808594 33.144531 10.59375 33.277344 10.382812 33.425781 C 10.53125 33.1875 10.746094 33.050781 11.03125 33.015625 Z M 11.03125 33.015625 "/>
</g>
<mask id="mask6">
  <g filter="url(#alpha)">
<rect x="0" y="0" width="50" height="50" style="fill:rgb(0%,0%,0%);fill-opacity:0.592157;stroke:none;"/>
  </g>
</mask>
<clipPath id="clip7">
  <rect width="50" height="50"/>
</clipPath>
<g id="surface24" clip-path="url(#clip7)">
<path style=" stroke:none;fill-rule:evenodd;fill:rgb(88.235294%,88.235294%,88.235294%);fill-opacity:1;" d="M 10.429688 35.96875 C 10.632812 36.058594 10.835938 36.15625 11.03125 36.257812 C 10.800781 36.21875 10.601562 36.121094 10.429688 35.96875 Z M 10.429688 35.96875 "/>
</g>
<mask id="mask7">
  <g filter="url(#alpha)">
<rect x="0" y="0" width="50" height="50" style="fill:rgb(0%,0%,0%);fill-opacity:0.823529;stroke:none;"/>
  </g>
</mask>
<clipPath id="clip8">
  <rect width="50" height="50"/>
</clipPath>
<g id="surface27" clip-path="url(#clip8)">
<path style=" stroke:none;fill-rule:evenodd;fill:rgb(95.294118%,95.294118%,95.294118%);fill-opacity:1;" d="M 11.679688 38.394531 C 11.757812 38.421875 11.832031 38.464844 11.894531 38.527344 C 12.132812 38.789062 12.265625 39.097656 12.300781 39.449219 C 12.195312 39.238281 12.085938 39.019531 11.976562 38.800781 C 11.890625 38.65625 11.792969 38.519531 11.679688 38.394531 Z M 11.679688 38.394531 "/>
</g>
<mask id="mask8">
  <g filter="url(#alpha)">
<rect x="0" y="0" width="50" height="50" style="fill:rgb(0%,0%,0%);fill-opacity:0.866667;stroke:none;"/>
  </g>
</mask>
<clipPath id="clip9">
  <rect width="50" height="50"/>
</clipPath>
<g id="surface30" clip-path="url(#clip9)">
<path style=" stroke:none;fill-rule:evenodd;fill:rgb(95.686275%,95.686275%,95.686275%);fill-opacity:1;" d="M 10.238281 40.914062 C 10.566406 41.019531 10.894531 41.117188 11.222656 41.203125 C 10.835938 41.289062 10.511719 41.195312 10.238281 40.914062 Z M 10.238281 40.914062 "/>
</g>
</defs>
<g id="surface1">
<use xlink:href="#surface6" mask="url(#mask0)"/>
<path style=" stroke:none;fill-rule:evenodd;fill:rgb(65.098039%,65.098039%,65.098039%);fill-opacity:1;" d="M 14.917969 1.910156 C 15.023438 1.90625 15.128906 1.914062 15.230469 1.933594 C 15.230469 1.941406 15.230469 1.949219 15.230469 1.957031 C 15.121094 1.964844 15.015625 1.949219 14.917969 1.910156 Z M 14.917969 1.910156 "/>
<use xlink:href="#surface9" mask="url(#mask1)"/>
<path style=" stroke:none;fill-rule:evenodd;fill:rgb(99.607843%,99.607843%,99.607843%);fill-opacity:1;" d="M 42.089844 2.820312 C 42.15625 2.820312 42.21875 2.820312 42.28125 2.820312 C 42.28125 3.347656 42.28125 3.875 42.28125 4.40625 C 42.28125 4.675781 42.28125 4.949219 42.28125 5.222656 C 32.121094 5.332031 21.960938 5.425781 11.796875 5.507812 C 11.824219 5.292969 11.828125 5.078125 11.808594 4.859375 C 11.773438 4.664062 11.722656 4.472656 11.652344 4.285156 C 11.777344 3.839844 11.609375 3.617188 11.148438 3.613281 C 11 3.507812 10.839844 3.414062 10.667969 3.335938 C 10.308594 3.191406 9.941406 3.167969 9.566406 3.265625 C 9.042969 3.414062 8.683594 3.738281 8.484375 4.238281 C 8.421875 4.257812 8.375 4.300781 8.339844 4.355469 C 8.03125 4.386719 7.71875 4.386719 7.40625 4.355469 C 7.402344 3.796875 7.40625 3.238281 7.417969 2.675781 C 7.429688 2.609375 7.449219 2.546875 7.476562 2.484375 C 7.535156 2.332031 7.644531 2.238281 7.800781 2.195312 C 7.917969 2.242188 8.027344 2.300781 8.125 2.375 C 8.355469 2.4375 8.484375 2.351562 8.519531 2.125 C 8.5625 2.175781 8.613281 2.210938 8.675781 2.230469 C 10.613281 2.410156 12.546875 2.5625 14.484375 2.6875 C 22.46875 3.128906 30.453125 3.234375 38.441406 3 C 39.660156 2.964844 40.875 2.90625 42.089844 2.820312 Z M 11.148438 3.613281 C 11.609375 3.617188 11.777344 3.839844 11.652344 4.285156 C 11.523438 4.035156 11.355469 3.808594 11.148438 3.613281 Z M 8.484375 4.238281 C 8.480469 4.285156 8.488281 4.328125 8.507812 4.367188 C 8.453125 4.375 8.398438 4.371094 8.339844 4.355469 C 8.375 4.300781 8.421875 4.257812 8.484375 4.238281 Z M 8.484375 4.238281 "/>
<path style=" stroke:none;fill-rule:evenodd;fill:rgb(47.45098%,47.45098%,47.45098%);fill-opacity:1;" d="M 42.089844 2.820312 C 42.15625 2.796875 42.230469 2.789062 42.308594 2.796875 C 42.316406 3.335938 42.308594 3.871094 42.28125 4.40625 C 42.28125 3.875 42.28125 3.347656 42.28125 2.820312 C 42.21875 2.820312 42.15625 2.820312 42.089844 2.820312 Z M 42.089844 2.820312 "/>
<use xlink:href="#surface12" mask="url(#mask2)"/>
<path style=" stroke:none;fill-rule:evenodd;fill:rgb(94.509804%,92.941176%,90.196078%);fill-opacity:1;" d="M 42.28125 5.222656 C 42.203125 16.941406 42.117188 28.664062 42.019531 40.386719 C 42.015625 41.515625 42.035156 42.644531 42.078125 43.769531 C 42.03125 43.707031 41.972656 43.664062 41.898438 43.640625 C 41.738281 43.636719 41.578125 43.632812 41.417969 43.628906 C 34.296875 43.742188 27.175781 43.789062 20.054688 43.757812 C 18.347656 43.757812 16.640625 43.738281 14.941406 43.699219 C 15.140625 43.699219 15.34375 43.699219 15.542969 43.699219 C 14.292969 30.996094 13.039062 18.296875 11.773438 5.605469 C 11.765625 5.566406 11.777344 5.535156 11.796875 5.507812 C 21.960938 5.425781 32.121094 5.332031 42.28125 5.222656 Z M 42.28125 5.222656 "/>
<path style=" stroke:none;fill-rule:evenodd;fill:rgb(99.215686%,99.215686%,99.215686%);fill-opacity:1;" d="M 11.773438 5.605469 C 13.039062 18.296875 14.292969 30.996094 15.542969 43.699219 C 15.34375 43.699219 15.140625 43.699219 14.941406 43.699219 C 13.648438 43.664062 12.359375 43.640625 11.066406 43.628906 C 10.347656 43.625 9.632812 43.640625 8.917969 43.675781 C 8.902344 42.96875 8.859375 42.265625 8.785156 41.5625 C 8.71875 41.300781 8.6875 41.039062 8.6875 40.769531 C 8.703125 40.757812 8.714844 40.746094 8.726562 40.734375 C 8.976562 40.710938 9.222656 40.722656 9.46875 40.769531 C 9.621094 41.3125 9.964844 41.667969 10.5 41.839844 C 11.542969 42.050781 12.296875 41.675781 12.769531 40.722656 C 13.09375 40.0625 13.128906 39.390625 12.867188 38.707031 C 12.511719 37.878906 11.890625 37.539062 11.003906 37.6875 C 10.378906 37.957031 9.988281 38.425781 9.828125 39.089844 C 9.738281 39.042969 9.640625 39.03125 9.542969 39.054688 C 9.136719 39.238281 8.734375 39.226562 8.339844 39.019531 C 8.304688 38.902344 8.285156 38.78125 8.28125 38.65625 C 8.214844 37.722656 8.140625 36.785156 8.054688 35.851562 C 8.546875 35.847656 9.035156 35.796875 9.515625 35.695312 C 9.699219 36.222656 10.046875 36.605469 10.550781 36.847656 C 11.417969 37.125 12.152344 36.921875 12.746094 36.234375 C 13.128906 35.667969 13.28125 35.042969 13.203125 34.363281 C 13.101562 33.648438 12.777344 33.058594 12.230469 32.597656 C 11.4375 32.121094 10.6875 32.175781 9.972656 32.765625 C 9.652344 33.066406 9.515625 33.441406 9.566406 33.882812 C 9.050781 33.871094 8.539062 33.839844 8.027344 33.785156 C 7.949219 33.785156 7.867188 33.792969 7.789062 33.808594 C 7.773438 33.738281 7.777344 33.667969 7.800781 33.59375 C 7.792969 32.480469 7.746094 31.367188 7.667969 30.257812 C 8.242188 30.171875 8.816406 30.140625 9.398438 30.160156 C 9.410156 31.019531 9.828125 31.566406 10.644531 31.804688 C 11.601562 31.898438 12.261719 31.5 12.625 30.617188 C 12.855469 29.9375 12.863281 29.257812 12.648438 28.578125 C 12.359375 27.738281 11.769531 27.28125 10.886719 27.207031 C 10.21875 27.21875 9.726562 27.515625 9.410156 28.097656 C 9.394531 28.160156 9.394531 28.222656 9.410156 28.289062 C 9.433594 28.367188 9.46875 28.441406 9.515625 28.503906 C 9.492188 28.503906 9.46875 28.503906 9.445312 28.503906 C 9.417969 28.464844 9.386719 28.429688 9.347656 28.398438 C 8.863281 28.210938 8.363281 28.089844 7.847656 28.023438 C 7.703125 27.003906 7.542969 25.988281 7.371094 24.976562 C 7.355469 24.847656 7.351562 24.71875 7.355469 24.59375 C 7.480469 24.589844 7.601562 24.570312 7.71875 24.53125 C 8.140625 24.515625 8.566406 24.527344 8.988281 24.566406 C 8.976562 24.988281 9.101562 25.367188 9.363281 25.695312 C 10.089844 26.445312 10.886719 26.519531 11.75 25.925781 C 12.527344 25.257812 12.792969 24.417969 12.554688 23.414062 C 12.257812 22.492188 11.625 22.003906 10.65625 21.953125 C 10.105469 21.976562 9.667969 22.214844 9.347656 22.660156 C 9.222656 22.644531 9.09375 22.621094 8.964844 22.585938 C 8.503906 22.597656 8.042969 22.59375 7.585938 22.574219 C 7.59375 21.917969 7.585938 21.261719 7.5625 20.605469 C 7.59375 20.367188 7.726562 20.21875 7.957031 20.164062 C 8.269531 20.152344 8.582031 20.136719 8.894531 20.113281 C 8.9375 20.308594 9.019531 20.480469 9.144531 20.632812 C 9.40625 20.894531 9.714844 21.082031 10.070312 21.195312 C 10.933594 21.363281 11.5625 21.058594 11.953125 20.269531 C 12.183594 19.683594 12.214844 19.082031 12.050781 18.472656 C 11.859375 17.828125 11.460938 17.359375 10.863281 17.066406 C 10.46875 16.910156 10.085938 16.925781 9.710938 17.113281 C 9.285156 17.386719 9.019531 17.769531 8.917969 18.265625 C 8.929688 18.414062 8.957031 18.554688 9 18.6875 C 8.640625 18.488281 8.253906 18.351562 7.847656 18.277344 C 7.835938 17.796875 7.8125 17.316406 7.777344 16.839844 C 7.710938 16.300781 7.640625 15.765625 7.5625 15.230469 C 7.882812 15.171875 8.207031 15.117188 8.535156 15.0625 C 8.53125 15.152344 8.535156 15.238281 8.546875 15.328125 C 8.691406 15.832031 9.007812 16.1875 9.492188 16.394531 C 10.445312 16.671875 11.21875 16.410156 11.808594 15.613281 C 12.160156 14.96875 12.199219 14.304688 11.929688 13.621094 C 11.457031 12.640625 10.695312 12.277344 9.636719 12.53125 C 9.15625 12.707031 8.875 13.046875 8.796875 13.550781 C 8.421875 13.511719 8.046875 13.488281 7.667969 13.476562 C 7.78125 12.46875 7.765625 11.460938 7.621094 10.453125 C 8.039062 10.355469 8.464844 10.300781 8.894531 10.285156 C 8.941406 10.285156 8.988281 10.285156 9.039062 10.285156 C 9.042969 10.46875 9.089844 10.648438 9.167969 10.8125 C 9.492188 11.332031 9.960938 11.570312 10.574219 11.523438 C 11.175781 11.363281 11.585938 10.988281 11.808594 10.40625 C 12.070312 9.664062 12.007812 8.949219 11.617188 8.269531 C 11.257812 7.738281 10.757812 7.511719 10.117188 7.585938 C 9.546875 7.726562 9.203125 8.082031 9.085938 8.652344 C 8.582031 8.535156 8.070312 8.472656 7.550781 8.460938 C 7.53125 8.441406 7.507812 8.433594 7.476562 8.4375 C 7.476562 8.238281 7.476562 8.039062 7.476562 7.835938 C 7.472656 7.261719 7.476562 6.683594 7.488281 6.109375 C 7.558594 6.007812 7.648438 5.941406 7.765625 5.90625 C 8.085938 5.875 8.40625 5.835938 8.726562 5.796875 C 8.742188 5.976562 8.792969 6.144531 8.882812 6.300781 C 9.238281 6.855469 9.746094 7.09375 10.40625 7.007812 C 11.117188 6.789062 11.574219 6.320312 11.773438 5.605469 Z M 11.773438 5.605469 "/>
<path style=" stroke:none;fill-rule:evenodd;fill:rgb(36.470588%,36.470588%,36.470588%);fill-opacity:1;" d="M 7.476562 7.835938 C 7.476562 8.039062 7.476562 8.238281 7.476562 8.4375 C 7.507812 8.433594 7.53125 8.441406 7.550781 8.460938 C 7.515625 8.460938 7.484375 8.460938 7.453125 8.460938 C 7.445312 8.25 7.453125 8.039062 7.476562 7.835938 Z M 7.476562 7.835938 "/>
<path style=" stroke:none;fill-rule:evenodd;fill:rgb(0.784314%,0.784314%,0.784314%);fill-opacity:1;" d="M 36.089844 8.820312 C 36.84375 8.816406 37.59375 8.820312 38.347656 8.832031 C 38.511719 8.921875 38.554688 9.054688 38.476562 9.230469 C 38.449219 9.28125 38.40625 9.320312 38.347656 9.335938 C 36.714844 9.449219 35.082031 9.523438 33.449219 9.554688 C 31.097656 9.597656 28.746094 9.644531 26.390625 9.699219 C 24.136719 9.785156 21.878906 9.867188 19.625 9.9375 C 18.191406 9.957031 16.757812 9.949219 15.328125 9.914062 C 15.199219 9.90625 15.070312 9.898438 14.941406 9.890625 C 14.84375 9.824219 14.824219 9.742188 14.882812 9.636719 C 14.910156 9.605469 14.945312 9.585938 14.992188 9.578125 C 16.195312 9.460938 17.40625 9.375 18.613281 9.3125 C 21.472656 9.234375 24.328125 9.167969 27.183594 9.121094 C 30.15625 8.996094 33.125 8.898438 36.089844 8.820312 Z M 36.089844 8.820312 "/>
<path style=" stroke:none;fill-rule:evenodd;fill:rgb(0.784314%,0.784314%,0.784314%);fill-opacity:1;" d="M 15.109375 16.40625 C 17.832031 16.582031 20.550781 16.769531 23.273438 16.972656 C 27.597656 17.234375 31.929688 17.265625 36.257812 17.066406 C 36.65625 17.050781 37.058594 17.050781 37.457031 17.066406 C 37.605469 17.070312 37.75 17.09375 37.890625 17.140625 C 38.058594 17.289062 38.050781 17.425781 37.867188 17.546875 C 37.476562 17.628906 37.085938 17.675781 36.691406 17.691406 C 31.234375 17.871094 25.785156 17.765625 20.34375 17.378906 C 18.582031 17.246094 16.828125 17.03125 15.085938 16.730469 C 14.988281 16.613281 14.996094 16.503906 15.109375 16.40625 Z M 15.109375 16.40625 "/>
<use xlink:href="#surface15" mask="url(#mask3)"/>
<use xlink:href="#surface18" mask="url(#mask4)"/>
<path style=" stroke:none;fill-rule:evenodd;fill:rgb(1.568627%,1.568627%,1.568627%);fill-opacity:1;" d="M 18.6875 23.199219 C 20.359375 23.195312 22.03125 23.199219 23.703125 23.210938 C 28.234375 23.269531 32.761719 23.332031 37.289062 23.402344 C 37.683594 23.417969 38.078125 23.457031 38.464844 23.523438 C 38.648438 23.59375 38.699219 23.714844 38.621094 23.894531 C 38.59375 23.925781 38.566406 23.953125 38.539062 23.980469 C 38.140625 24.03125 37.738281 24.0625 37.339844 24.0625 C 35.777344 23.996094 34.21875 23.953125 32.65625 23.933594 C 27.367188 23.839844 22.078125 23.753906 16.789062 23.667969 C 16.164062 23.65625 15.542969 23.632812 14.917969 23.597656 C 14.8125 23.472656 14.828125 23.367188 14.964844 23.285156 C 16.210938 23.253906 17.449219 23.222656 18.6875 23.199219 Z M 18.6875 23.199219 "/>
<path style=" stroke:none;fill-rule:evenodd;fill:rgb(1.568627%,1.568627%,1.568627%);fill-opacity:1;" d="M 36.019531 29.65625 C 36.65625 29.652344 37.296875 29.65625 37.9375 29.667969 C 38.105469 29.679688 38.273438 29.695312 38.441406 29.714844 C 38.722656 29.839844 38.753906 30.007812 38.539062 30.222656 C 38.378906 30.261719 38.222656 30.285156 38.058594 30.292969 C 37.6875 30.316406 37.3125 30.328125 36.941406 30.328125 C 31.570312 30.308594 26.195312 30.296875 20.824219 30.292969 C 18.964844 30.285156 17.109375 30.246094 15.253906 30.171875 C 15.128906 30.089844 15.101562 29.980469 15.183594 29.847656 C 15.214844 29.816406 15.257812 29.796875 15.300781 29.789062 C 16.078125 29.757812 16.855469 29.734375 17.628906 29.714844 C 23.765625 29.691406 29.894531 29.671875 36.019531 29.65625 Z M 36.019531 29.65625 "/>
<use xlink:href="#surface21" mask="url(#mask5)"/>
<use xlink:href="#surface24" mask="url(#mask6)"/>
<path style=" stroke:none;fill-rule:evenodd;fill:rgb(0.784314%,0.784314%,0.784314%);fill-opacity:1;" d="M 35.824219 36.425781 C 36.554688 36.421875 37.28125 36.425781 38.011719 36.4375 C 38.292969 36.445312 38.570312 36.46875 38.851562 36.511719 C 39.007812 36.605469 39.050781 36.734375 38.980469 36.90625 C 38.9375 36.957031 38.886719 37.003906 38.828125 37.039062 C 37.734375 37.15625 36.636719 37.207031 35.539062 37.195312 C 34.808594 37.1875 34.082031 37.179688 33.351562 37.171875 C 28.480469 37.246094 23.609375 37.300781 18.734375 37.339844 C 17.621094 37.339844 16.511719 37.328125 15.398438 37.300781 C 15.316406 37.273438 15.285156 37.21875 15.300781 37.132812 C 15.292969 37.039062 15.332031 36.976562 15.421875 36.941406 C 17.660156 36.835938 19.902344 36.761719 22.144531 36.726562 C 25.503906 36.664062 28.863281 36.605469 32.226562 36.558594 C 33.429688 36.539062 34.628906 36.492188 35.824219 36.425781 Z M 35.824219 36.425781 "/>
<use xlink:href="#surface27" mask="url(#mask7)"/>
<use xlink:href="#surface30" mask="url(#mask8)"/>
</g>
</svg>
