<?xml version="1.0" encoding="UTF-8"?>
<svg xmlns="http://www.w3.org/2000/svg" xmlns:xlink="http://www.w3.org/1999/xlink" width="50pt" height="50pt" viewBox="0 0 50 50" version="1.1">
<defs>
<filter id="alpha" filterUnits="objectBoundingBox" x="0%" y="0%" width="100%" height="100%">
  <feColorMatrix type="matrix" in="SourceGraphic" values="0 0 0 0 1 0 0 0 0 1 0 0 0 0 1 0 0 0 1 0"/>
</filter>
<mask id="mask0">
  <g filter="url(#alpha)">
<rect x="0" y="0" width="50" height="50" style="fill:rgb(0%,0%,0%);fill-opacity:0.976471;stroke:none;"/>
  </g>
</mask>
<clipPath id="clip1">
  <rect width="50" height="50"/>
</clipPath>
<g id="surface6" clip-path="url(#clip1)">
<path style=" stroke:none;fill-rule:evenodd;fill:rgb(66.27451%,23.137255%,17.647059%);fill-opacity:1;" d="M 27.085938 13.652344 C 27.777344 13.675781 28.070312 14.027344 27.976562 14.707031 C 27.9375 14.792969 27.882812 14.863281 27.808594 14.921875 C 23.703125 17.398438 19.59375 19.863281 15.476562 22.3125 C 18.367188 22.785156 21.277344 23.070312 24.207031 23.175781 C 25.246094 23.21875 26.289062 23.25 27.328125 23.273438 C 30.511719 23.289062 33.691406 23.289062 36.875 23.273438 C 37.363281 23.546875 37.480469 23.9375 37.234375 24.449219 C 37.144531 24.554688 37.042969 24.640625 36.925781 24.710938 C 32.925781 26.777344 28.925781 28.839844 24.929688 30.902344 C 27.332031 31.203125 29.746094 31.425781 32.171875 31.574219 C 35.40625 31.796875 38.636719 31.949219 41.867188 32.03125 C 41.617188 31.472656 41.375 30.910156 41.148438 30.351562 C 41.152344 30.113281 41.273438 30 41.507812 30.015625 C 43.179688 30.308594 44.851562 30.621094 46.519531 30.949219 C 47.113281 31.03125 47.703125 31.109375 48.296875 31.191406 C 48.839844 31.257812 49.3125 31.472656 49.710938 31.835938 C 49.972656 32.34375 49.910156 32.804688 49.519531 33.230469 C 48.113281 34.652344 46.632812 35.988281 45.082031 37.234375 C 44.722656 37.425781 44.394531 37.386719 44.097656 37.117188 C 43.582031 35.96875 43.078125 34.820312 42.585938 33.660156 C 38.359375 33.5 34.136719 33.269531 29.917969 32.964844 C 27.355469 32.765625 24.792969 32.511719 22.242188 32.199219 C 21.648438 32.128906 21.417969 31.800781 21.546875 31.214844 C 21.609375 31.007812 21.726562 30.839844 21.90625 30.710938 C 25.6875 28.746094 29.480469 26.796875 33.277344 24.855469 C 29.195312 24.886719 25.117188 24.773438 21.042969 24.519531 C 18.363281 24.324219 15.710938 23.972656 13.074219 23.464844 C 12.507812 23.148438 12.398438 22.71875 12.738281 22.167969 C 16.609375 19.867188 20.480469 17.5625 24.351562 15.257812 C 16.546875 15.578125 8.742188 15.890625 0.9375 16.195312 C 0.417969 16.257812 0.167969 16.035156 0.191406 15.523438 C 0.324219 15.265625 0.542969 15.164062 0.839844 15.210938 C 9.59375 14.675781 18.34375 14.15625 27.085938 13.652344 Z M 27.085938 13.652344 "/>
</g>
</defs>
<g id="surface1">
<use xlink:href="#surface6" mask="url(#mask0)"/>
</g>
</svg>
