<?xml version="1.0" encoding="UTF-8"?>
<svg xmlns="http://www.w3.org/2000/svg" xmlns:xlink="http://www.w3.org/1999/xlink" width="50pt" height="50pt" viewBox="0 0 50 50" version="1.1">
<defs>
<filter id="alpha" filterUnits="objectBoundingBox" x="0%" y="0%" width="100%" height="100%">
  <feColorMatrix type="matrix" in="SourceGraphic" values="0 0 0 0 1 0 0 0 0 1 0 0 0 0 1 0 0 0 1 0"/>
</filter>
<mask id="mask0">
  <g filter="url(#alpha)">
<rect x="0" y="0" width="50" height="50" style="fill:rgb(0%,0%,0%);fill-opacity:0.984314;stroke:none;"/>
  </g>
</mask>
<clipPath id="clip1">
  <rect width="50" height="50"/>
</clipPath>
<g id="surface6" clip-path="url(#clip1)">
<path style=" stroke:none;fill-rule:evenodd;fill:rgb(0.392157%,0.392157%,0.392157%);fill-opacity:1;" d="M 32.316406 0.886719 C 32.484375 1.140625 32.621094 1.414062 32.726562 1.703125 C 32.78125 2.375 32.8125 3.046875 32.820312 3.71875 C 32.925781 4.492188 33.011719 5.257812 33.085938 6.023438 C 33.480469 9.550781 33.824219 13.085938 34.117188 16.625 C 34.171875 17.308594 34.453125 17.875 34.957031 18.332031 C 35.179688 18.488281 35.40625 18.648438 35.628906 18.808594 C 36.5 19.300781 37.378906 19.78125 38.269531 20.25 C 41.625 22.421875 44.847656 24.78125 47.9375 27.328125 C 47.929688 27.472656 47.90625 27.617188 47.863281 27.757812 C 47.890625 27.972656 47.9375 28.179688 48.007812 28.382812 C 48 28.410156 47.984375 28.433594 47.960938 28.453125 C 47.660156 28.527344 47.355469 28.578125 47.050781 28.597656 C 46.773438 28.855469 46.488281 29.097656 46.183594 29.320312 C 45.785156 29.558594 45.351562 29.703125 44.890625 29.75 C 44.425781 29.769531 43.960938 29.792969 43.5 29.824219 C 43.242188 29.816406 42.984375 29.824219 42.730469 29.847656 C 41.148438 30.046875 39.566406 30.222656 37.980469 30.375 C 37.164062 30.390625 36.347656 30.421875 35.53125 30.46875 C 34.480469 30.632812 33.457031 30.90625 32.460938 31.285156 C 32.203125 31.90625 31.980469 32.539062 31.789062 33.179688 C 30.957031 37.003906 30.117188 40.828125 29.269531 44.648438 C 29.078125 45.433594 28.839844 46.199219 28.550781 46.953125 C 28.496094 47.054688 28.425781 47.140625 28.335938 47.21875 C 27.832031 47.285156 27.328125 47.359375 26.824219 47.433594 C 26.433594 47.257812 26.042969 47.089844 25.648438 46.929688 C 25.414062 46.738281 25.191406 46.535156 24.976562 46.328125 C 24.976562 46.242188 24.953125 46.164062 24.902344 46.089844 C 24.445312 45.3125 23.996094 44.53125 23.558594 43.738281 C 22.0625 40.515625 20.367188 37.410156 18.472656 34.429688 C 18.269531 34.128906 18.003906 33.894531 17.683594 33.734375 C 17.28125 33.6875 16.882812 33.648438 16.484375 33.613281 C 15.042969 33.515625 13.601562 33.40625 12.164062 33.277344 C 10.976562 33.164062 9.792969 33.234375 8.613281 33.492188 C 7.628906 33.785156 6.628906 33.984375 5.613281 34.09375 C 5.460938 34.085938 5.308594 34.078125 5.160156 34.070312 C 4.511719 33.957031 3.875 33.835938 3.238281 33.710938 C 2.769531 33.523438 2.394531 33.21875 2.109375 32.796875 C 1.957031 32.335938 1.957031 31.871094 2.109375 31.40625 C 2.539062 30.832031 2.988281 30.273438 3.453125 29.726562 C 4.480469 28.613281 5.527344 27.527344 6.597656 26.464844 C 7.128906 25.972656 7.601562 25.425781 8.011719 24.832031 C 8.105469 24.660156 8.1875 24.484375 8.253906 24.304688 C 9.039062 23.484375 9.792969 22.636719 10.507812 21.761719 C 10.582031 21.652344 10.625 21.53125 10.628906 21.402344 C 10.316406 20.289062 9.957031 19.195312 9.550781 18.113281 C 8.257812 14.84375 7.003906 11.566406 5.78125 8.277344 C 5.71875 7.902344 5.640625 7.535156 5.542969 7.171875 C 5.203125 6.328125 5.378906 5.613281 6.070312 5.039062 C 6.765625 5.03125 7.4375 5.160156 8.085938 5.421875 C 8.367188 5.570312 8.652344 5.695312 8.949219 5.804688 C 10.324219 6.265625 11.683594 6.761719 13.027344 7.292969 C 13.660156 7.601562 14.28125 7.921875 14.898438 8.253906 C 16.003906 8.917969 17.121094 9.558594 18.257812 10.171875 C 18.894531 10.460938 19.550781 10.667969 20.226562 10.796875 C 21.207031 10.007812 22.15625 9.183594 23.082031 8.324219 C 23.828125 7.355469 24.613281 6.410156 25.433594 5.496094 C 26.3125 4.597656 27.207031 3.71875 28.117188 2.855469 C 28.734375 2.144531 29.382812 1.464844 30.0625 0.816406 C 30.417969 0.519531 30.828125 0.335938 31.285156 0.265625 C 31.484375 0.269531 31.667969 0.328125 31.835938 0.433594 C 32.023438 0.5625 32.183594 0.714844 32.316406 0.886719 Z M 31.117188 2.519531 C 28.761719 5.699219 26.394531 8.875 24.015625 12.042969 C 23.1875 11.84375 22.355469 11.644531 21.519531 11.445312 C 23.234375 9.386719 25.089844 7.460938 27.085938 5.664062 C 28.003906 4.78125 28.882812 3.867188 29.726562 2.925781 C 30.085938 2.589844 30.457031 2.261719 30.832031 1.945312 C 30.953125 2.121094 31.046875 2.316406 31.117188 2.519531 Z M 12.691406 9.046875 C 10.769531 8.5625 8.847656 8.070312 6.933594 7.558594 C 6.835938 7.289062 6.765625 7.019531 6.71875 6.742188 C 8.777344 7.34375 10.769531 8.113281 12.691406 9.046875 Z M 35.4375 19.9375 C 39.109375 22.226562 42.628906 24.730469 45.992188 27.445312 C 45.429688 27.648438 44.855469 27.785156 44.265625 27.855469 C 44.273438 27.917969 44.257812 27.972656 44.21875 28.023438 C 44.105469 28.070312 43.992188 28.117188 43.882812 28.167969 C 43.359375 28.269531 42.832031 28.339844 42.296875 28.382812 C 39.988281 25.585938 37.699219 22.769531 35.4375 19.9375 Z M 5.109375 29.582031 C 4.753906 30.433594 4.382812 31.28125 4.007812 32.125 C 3.804688 32.078125 3.613281 32.003906 3.429688 31.910156 C 3.820312 31.007812 4.378906 30.234375 5.109375 29.582031 Z M 30.445312 33.179688 C 29.875 35.730469 29.355469 38.289062 28.886719 40.859375 C 28.511719 42.59375 28.074219 44.308594 27.566406 45.992188 C 26.929688 45.195312 26.335938 44.363281 25.792969 43.5 C 26.75 40.089844 27.71875 36.683594 28.695312 33.277344 C 29.265625 33.183594 29.851562 33.152344 30.445312 33.179688 Z M 30.445312 33.179688 "/>
</g>
<mask id="mask1">
  <g filter="url(#alpha)">
<rect x="0" y="0" width="50" height="50" style="fill:rgb(0%,0%,0%);fill-opacity:0.87451;stroke:none;"/>
  </g>
</mask>
<clipPath id="clip2">
  <rect width="50" height="50"/>
</clipPath>
<g id="surface9" clip-path="url(#clip2)">
<path style=" stroke:none;fill-rule:evenodd;fill:rgb(86.666667%,86.666667%,86.666667%);fill-opacity:1;" d="M 33.085938 6.023438 C 33.011719 5.257812 32.925781 4.492188 32.820312 3.71875 C 32.8125 3.046875 32.78125 2.375 32.726562 1.703125 C 32.621094 1.414062 32.484375 1.140625 32.316406 0.886719 C 32.507812 0.699219 32.675781 0.492188 32.820312 0.265625 C 32.941406 2.179688 33.03125 4.101562 33.085938 6.023438 Z M 33.085938 6.023438 "/>
</g>
<mask id="mask2">
  <g filter="url(#alpha)">
<rect x="0" y="0" width="50" height="50" style="fill:rgb(0%,0%,0%);fill-opacity:0.996078;stroke:none;"/>
  </g>
</mask>
<clipPath id="clip3">
  <rect width="50" height="50"/>
</clipPath>
<g id="surface12" clip-path="url(#clip3)">
<path style=" stroke:none;fill-rule:evenodd;fill:rgb(90.588235%,90.588235%,90.588235%);fill-opacity:1;" d="M 31.117188 2.519531 C 31.179688 2.546875 31.21875 2.59375 31.238281 2.664062 C 31.691406 6.800781 32.125 10.945312 32.535156 15.089844 C 32.535156 15.863281 32.582031 16.628906 32.675781 17.394531 C 32.777344 18.101562 33.136719 18.621094 33.757812 18.953125 C 34.351562 19.234375 34.910156 19.5625 35.4375 19.9375 C 37.699219 22.769531 39.988281 25.585938 42.296875 28.382812 C 40 28.617188 37.695312 28.882812 35.390625 29.175781 C 34.335938 29.34375 33.296875 29.566406 32.269531 29.847656 C 31.59375 30.152344 31.140625 30.65625 30.902344 31.359375 C 30.792969 31.984375 30.640625 32.589844 30.445312 33.179688 C 29.851562 33.152344 29.265625 33.183594 28.695312 33.277344 C 27.71875 36.683594 26.75 40.089844 25.792969 43.5 C 24.121094 41.003906 22.402344 38.539062 20.632812 36.109375 C 20 34.875 19.390625 33.625 18.808594 32.367188 C 18.597656 32.121094 18.335938 31.953125 18.019531 31.863281 C 17.179688 31.625 16.324219 31.539062 15.449219 31.597656 C 14.625 31.585938 13.800781 31.625 12.980469 31.71875 C 11.566406 31.921875 10.160156 32.144531 8.757812 32.390625 C 7.15625 32.460938 5.574219 32.375 4.007812 32.125 C 4.382812 31.28125 4.753906 30.433594 5.109375 29.582031 C 6.382812 28.046875 7.71875 26.558594 9.117188 25.121094 C 10.117188 24.054688 11.042969 22.9375 11.898438 21.761719 C 12.082031 21.472656 12.113281 21.167969 11.996094 20.847656 C 11.621094 20.082031 11.285156 19.296875 10.988281 18.5 C 10.09375 15.9375 9.195312 13.378906 8.300781 10.820312 C 7.859375 9.726562 7.402344 8.640625 6.933594 7.558594 C 8.847656 8.070312 10.769531 8.5625 12.691406 9.046875 C 12.726562 9.089844 12.773438 9.105469 12.835938 9.09375 C 14.597656 9.902344 16.355469 10.726562 18.113281 11.5625 C 18.765625 11.945312 19.40625 12.34375 20.035156 12.765625 C 20.136719 12.792969 20.230469 12.777344 20.320312 12.714844 C 20.71875 12.28125 21.117188 11.855469 21.519531 11.445312 C 22.355469 11.644531 23.1875 11.84375 24.015625 12.042969 C 26.394531 8.875 28.761719 5.699219 31.117188 2.519531 Z M 31.117188 2.519531 "/>
</g>
<mask id="mask3">
  <g filter="url(#alpha)">
<rect x="0" y="0" width="50" height="50" style="fill:rgb(0%,0%,0%);fill-opacity:0.85098;stroke:none;"/>
  </g>
</mask>
<clipPath id="clip4">
  <rect width="50" height="50"/>
</clipPath>
<g id="surface15" clip-path="url(#clip4)">
<path style=" stroke:none;fill-rule:evenodd;fill:rgb(73.333333%,73.333333%,73.333333%);fill-opacity:1;" d="M 5.542969 7.171875 C 5.640625 7.535156 5.71875 7.902344 5.78125 8.277344 C 5.65625 7.933594 5.542969 7.582031 5.445312 7.222656 C 5.46875 7.183594 5.5 7.167969 5.542969 7.171875 Z M 5.542969 7.171875 "/>
</g>
<mask id="mask4">
  <g filter="url(#alpha)">
<rect x="0" y="0" width="50" height="50" style="fill:rgb(0%,0%,0%);fill-opacity:0.964706;stroke:none;"/>
  </g>
</mask>
<clipPath id="clip5">
  <rect width="50" height="50"/>
</clipPath>
<g id="surface18" clip-path="url(#clip5)">
<path style=" stroke:none;fill-rule:evenodd;fill:rgb(89.411765%,89.411765%,89.411765%);fill-opacity:1;" d="M 5.78125 8.277344 C 7.003906 11.566406 8.257812 14.84375 9.550781 18.113281 C 9.957031 19.195312 10.316406 20.289062 10.628906 21.402344 C 10.625 21.53125 10.582031 21.652344 10.507812 21.761719 C 9.792969 22.636719 9.039062 23.484375 8.253906 24.304688 C 8.1875 24.484375 8.105469 24.660156 8.011719 24.832031 C 7.601562 25.425781 7.128906 25.972656 6.597656 26.464844 C 7.5 24.476562 8.394531 22.484375 9.285156 20.488281 C 8.105469 16.421875 6.9375 12.351562 5.78125 8.277344 Z M 5.78125 8.277344 "/>
</g>
<mask id="mask5">
  <g filter="url(#alpha)">
<rect x="0" y="0" width="50" height="50" style="fill:rgb(0%,0%,0%);fill-opacity:0.988235;stroke:none;"/>
  </g>
</mask>
<clipPath id="clip6">
  <rect width="50" height="50"/>
</clipPath>
<g id="surface21" clip-path="url(#clip6)">
<path style=" stroke:none;fill-rule:evenodd;fill:rgb(90.196078%,90.196078%,90.196078%);fill-opacity:1;" d="M 43.5 29.824219 C 44.335938 30.875 45.183594 31.921875 46.042969 32.964844 C 41.289062 33.050781 36.539062 33.121094 31.789062 33.179688 C 31.980469 32.539062 32.203125 31.90625 32.460938 31.285156 C 33.457031 30.90625 34.480469 30.632812 35.53125 30.46875 C 36.347656 30.421875 37.164062 30.390625 37.980469 30.375 C 39.566406 30.222656 41.148438 30.046875 42.730469 29.847656 C 42.984375 29.824219 43.242188 29.816406 43.5 29.824219 Z M 43.5 29.824219 "/>
</g>
<mask id="mask6">
  <g filter="url(#alpha)">
<rect x="0" y="0" width="50" height="50" style="fill:rgb(0%,0%,0%);fill-opacity:0.972549;stroke:none;"/>
  </g>
</mask>
<clipPath id="clip7">
  <rect width="50" height="50"/>
</clipPath>
<g id="surface24" clip-path="url(#clip7)">
<path style=" stroke:none;fill-rule:evenodd;fill:rgb(90.196078%,90.196078%,90.196078%);fill-opacity:1;" d="M 12.164062 33.277344 C 8.800781 34.351562 5.433594 35.425781 2.0625 36.492188 C 2.039062 36.476562 2.015625 36.460938 1.992188 36.445312 C 2.421875 35.539062 2.835938 34.625 3.238281 33.710938 C 3.875 33.835938 4.511719 33.957031 5.160156 34.070312 C 5.308594 34.078125 5.460938 34.085938 5.613281 34.09375 C 6.628906 33.984375 7.628906 33.785156 8.613281 33.492188 C 9.792969 33.234375 10.976562 33.164062 12.164062 33.277344 Z M 12.164062 33.277344 "/>
</g>
<mask id="mask7">
  <g filter="url(#alpha)">
<rect x="0" y="0" width="50" height="50" style="fill:rgb(0%,0%,0%);fill-opacity:0.984314;stroke:none;"/>
  </g>
</mask>
<clipPath id="clip8">
  <rect width="50" height="50"/>
</clipPath>
<g id="surface27" clip-path="url(#clip8)">
<path style=" stroke:none;fill-rule:evenodd;fill:rgb(90.588235%,90.588235%,90.588235%);fill-opacity:1;" d="M 16.484375 33.613281 C 16.882812 33.648438 17.28125 33.6875 17.683594 33.734375 C 18.003906 33.894531 18.269531 34.128906 18.472656 34.429688 C 20.367188 37.410156 22.0625 40.515625 23.558594 43.738281 C 23.996094 44.53125 24.445312 45.3125 24.902344 46.089844 C 24.953125 46.164062 24.976562 46.242188 24.976562 46.328125 C 24.671875 47.457031 24.34375 48.578125 23.992188 49.6875 C 21.488281 44.328125 18.984375 38.96875 16.484375 33.613281 Z M 16.484375 33.613281 "/>
</g>
</defs>
<g id="surface1">
<use xlink:href="#surface6" mask="url(#mask0)"/>
<use xlink:href="#surface9" mask="url(#mask1)"/>
<use xlink:href="#surface12" mask="url(#mask2)"/>
<use xlink:href="#surface15" mask="url(#mask3)"/>
<use xlink:href="#surface18" mask="url(#mask4)"/>
<use xlink:href="#surface21" mask="url(#mask5)"/>
<use xlink:href="#surface24" mask="url(#mask6)"/>
<use xlink:href="#surface27" mask="url(#mask7)"/>
</g>
</svg>
