<?xml version="1.0" encoding="UTF-8"?>
<svg xmlns="http://www.w3.org/2000/svg" xmlns:xlink="http://www.w3.org/1999/xlink" width="50pt" height="50pt" viewBox="0 0 50 50" version="1.1">
<defs>
<filter id="alpha" filterUnits="objectBoundingBox" x="0%" y="0%" width="100%" height="100%">
  <feColorMatrix type="matrix" in="SourceGraphic" values="0 0 0 0 1 0 0 0 0 1 0 0 0 0 1 0 0 0 1 0"/>
</filter>
<mask id="mask0">
  <g filter="url(#alpha)">
<rect x="0" y="0" width="50" height="50" style="fill:rgb(0%,0%,0%);fill-opacity:0.992157;stroke:none;"/>
  </g>
</mask>
<clipPath id="clip1">
  <rect width="50" height="50"/>
</clipPath>
<g id="surface6" clip-path="url(#clip1)">
<path style=" stroke:none;fill-rule:evenodd;fill:rgb(0%,0%,0%);fill-opacity:1;" d="M 13.023438 48.957031 C 12.714844 48.890625 12.402344 48.832031 12.085938 48.789062 C 11.996094 48.746094 11.902344 48.722656 11.796875 48.714844 C 11.3125 48.617188 10.839844 48.476562 10.382812 48.296875 C 9.695312 47.984375 9.234375 47.46875 9 46.746094 C 8.851562 46.316406 8.730469 45.875 8.640625 45.425781 C 8.132812 43.128906 7.839844 40.804688 7.765625 38.453125 C 7.78125 37.960938 7.808594 37.46875 7.847656 36.976562 C 8.019531 35.609375 8.175781 34.242188 8.316406 32.875 C 8.355469 32.425781 8.371094 31.972656 8.367188 31.515625 C 8.363281 31.210938 8.355469 30.902344 8.351562 30.59375 C 8.347656 30.492188 8.335938 30.394531 8.316406 30.304688 C 8.179688 28.210938 8.035156 26.121094 7.886719 24.027344 C 7.835938 23.433594 8.011719 22.921875 8.414062 22.492188 C 8.714844 22.253906 9.050781 22.078125 9.421875 21.964844 C 10.523438 21.617188 11.644531 21.34375 12.78125 21.148438 C 13.710938 21.039062 14.636719 21.042969 15.566406 21.160156 C 15.65625 21.097656 15.746094 21.027344 15.832031 20.957031 C 15.9375 20.910156 16.050781 20.882812 16.167969 20.871094 C 17.171875 21.09375 18.191406 21.257812 19.214844 21.363281 C 20.519531 21.421875 21.824219 21.476562 23.128906 21.53125 C 23.589844 21.546875 24.054688 21.546875 24.519531 21.53125 C 24.699219 21.304688 24.894531 21.09375 25.109375 20.894531 C 26.59375 19.105469 28.042969 17.289062 29.453125 15.445312 C 29.960938 14.664062 30.496094 13.90625 31.0625 13.167969 C 31.34375 12.675781 31.46875 12.148438 31.433594 11.582031 C 31.433594 11.292969 31.417969 11.003906 31.386719 10.71875 C 31.292969 10.074219 31.097656 9.46875 30.796875 8.894531 C 30.347656 8.257812 29.75 7.816406 29.007812 7.5625 C 27.984375 7.214844 26.9375 7.109375 25.863281 7.25 C 24.855469 7.339844 23.9375 7.667969 23.105469 8.234375 C 22.65625 8.578125 22.214844 8.929688 21.785156 9.289062 C 21.644531 9.351562 21.519531 9.332031 21.410156 9.230469 C 21.179688 9.46875 20.941406 9.699219 20.703125 9.925781 C 20.414062 10.171875 20.125 10.425781 19.839844 10.683594 C 19.5625 10.882812 19.28125 10.886719 19 10.695312 C 18.820312 10.503906 18.636719 10.316406 18.445312 10.128906 C 18.367188 10.066406 18.277344 10.011719 18.183594 9.972656 C 17.859375 9.835938 17.558594 9.660156 17.28125 9.445312 C 17.246094 9.394531 17.210938 9.335938 17.1875 9.277344 C 17.171875 9.148438 17.171875 9.019531 17.1875 8.894531 C 17.703125 7.753906 18.386719 6.71875 19.226562 5.796875 C 21.773438 3.109375 24.90625 1.703125 28.625 1.570312 C 31.121094 1.578125 33.332031 2.367188 35.25 3.9375 C 36.378906 4.972656 37.140625 6.230469 37.542969 7.71875 C 37.878906 9 38.007812 10.304688 37.925781 11.628906 C 37.777344 13.933594 37.210938 16.125 36.222656 18.207031 C 35.753906 19.207031 35.214844 20.15625 34.601562 21.0625 C 35.003906 21.082031 35.402344 21.109375 35.800781 21.148438 C 36.648438 21.242188 37.121094 21.710938 37.230469 22.550781 C 37.265625 22.910156 37.289062 23.269531 37.300781 23.632812 C 37.316406 23.851562 37.351562 24.066406 37.398438 24.28125 C 37.574219 24.957031 37.765625 25.628906 37.972656 26.296875 C 38.089844 26.769531 38.199219 27.238281 38.308594 27.710938 C 38.5625 28.484375 38.792969 29.257812 39.007812 30.039062 C 39.40625 32.003906 39.65625 33.988281 39.75 35.992188 C 39.847656 38.082031 39.882812 40.167969 39.847656 42.257812 C 39.855469 43.007812 39.769531 43.742188 39.582031 44.46875 C 39.320312 45.273438 38.828125 45.890625 38.105469 46.328125 C 37.359375 46.726562 36.566406 46.988281 35.730469 47.121094 C 35.125 47.226562 34.515625 47.304688 33.90625 47.359375 C 30.691406 47.542969 27.492188 47.855469 24.304688 48.296875 C 22.289062 48.628906 20.265625 48.890625 18.230469 49.085938 C 16.847656 49.199219 15.460938 49.199219 14.078125 49.085938 C 13.722656 49.054688 13.371094 49.011719 13.023438 48.957031 Z M 20.269531 9.660156 C 20.359375 9.699219 20.4375 9.746094 20.511719 9.804688 C 20.230469 10.050781 19.917969 10.246094 19.574219 10.394531 C 19.496094 10.421875 19.417969 10.433594 19.335938 10.429688 C 19.640625 10.167969 19.953125 9.910156 20.269531 9.660156 Z M 20.269531 9.660156 "/>
</g>
<mask id="mask1">
  <g filter="url(#alpha)">
<rect x="0" y="0" width="50" height="50" style="fill:rgb(0%,0%,0%);fill-opacity:0.992157;stroke:none;"/>
  </g>
</mask>
<clipPath id="clip2">
  <rect width="50" height="50"/>
</clipPath>
<g id="surface9" clip-path="url(#clip2)">
<path style=" stroke:none;fill-rule:evenodd;fill:rgb(94.509804%,92.941176%,90.196078%);fill-opacity:1;" d="M 31.386719 10.71875 C 30.390625 9.8125 29.214844 9.335938 27.855469 9.289062 C 26.875 9.25 25.910156 9.335938 24.953125 9.554688 C 23.859375 9.792969 22.804688 10.140625 21.785156 10.597656 C 21.425781 10.367188 21.066406 10.144531 20.703125 9.925781 C 20.941406 9.699219 21.179688 9.46875 21.410156 9.230469 C 21.519531 9.332031 21.644531 9.351562 21.785156 9.289062 C 22.214844 8.929688 22.65625 8.578125 23.105469 8.234375 C 23.9375 7.667969 24.855469 7.339844 25.863281 7.25 C 26.9375 7.109375 27.984375 7.214844 29.007812 7.5625 C 29.75 7.816406 30.347656 8.257812 30.796875 8.894531 C 31.097656 9.46875 31.292969 10.074219 31.386719 10.71875 Z M 31.386719 10.71875 "/>
</g>
<mask id="mask2">
  <g filter="url(#alpha)">
<rect x="0" y="0" width="50" height="50" style="fill:rgb(0%,0%,0%);fill-opacity:0.992157;stroke:none;"/>
  </g>
</mask>
<clipPath id="clip3">
  <rect width="50" height="50"/>
</clipPath>
<g id="surface12" clip-path="url(#clip3)">
<path style=" stroke:none;fill-rule:evenodd;fill:rgb(99.215686%,99.215686%,99.215686%);fill-opacity:1;" d="M 18.160156 8.316406 C 18.878906 8.742188 19.582031 9.191406 20.269531 9.660156 C 19.953125 9.910156 19.640625 10.167969 19.335938 10.429688 C 19.179688 10.320312 19.042969 10.1875 18.925781 10.035156 C 18.648438 9.8125 18.359375 9.605469 18.0625 9.410156 C 17.957031 9.300781 17.847656 9.195312 17.738281 9.085938 C 17.847656 8.8125 17.988281 8.558594 18.160156 8.316406 Z M 18.160156 8.316406 "/>
</g>
<mask id="mask3">
  <g filter="url(#alpha)">
<rect x="0" y="0" width="50" height="50" style="fill:rgb(0%,0%,0%);fill-opacity:0.67451;stroke:none;"/>
  </g>
</mask>
<clipPath id="clip4">
  <rect width="50" height="50"/>
</clipPath>
<g id="surface15" clip-path="url(#clip4)">
<path style=" stroke:none;fill-rule:evenodd;fill:rgb(92.156863%,92.156863%,92.156863%);fill-opacity:1;" d="M 18.183594 9.972656 C 18.277344 10.011719 18.367188 10.066406 18.445312 10.128906 C 18.636719 10.316406 18.820312 10.503906 19 10.695312 C 18.707031 10.476562 18.4375 10.234375 18.183594 9.972656 Z M 18.183594 9.972656 "/>
</g>
<mask id="mask4">
  <g filter="url(#alpha)">
<rect x="0" y="0" width="50" height="50" style="fill:rgb(0%,0%,0%);fill-opacity:0.74902;stroke:none;"/>
  </g>
</mask>
<clipPath id="clip5">
  <rect width="50" height="50"/>
</clipPath>
<g id="surface18" clip-path="url(#clip5)">
<path style=" stroke:none;fill-rule:evenodd;fill:rgb(78.039216%,76.862745%,74.509804%);fill-opacity:1;" d="M 8.316406 30.304688 C 8.335938 30.394531 8.347656 30.492188 8.351562 30.59375 C 8.355469 30.902344 8.363281 31.210938 8.367188 31.515625 C 8.371094 31.972656 8.355469 32.425781 8.316406 32.875 C 8.316406 32.015625 8.316406 31.160156 8.316406 30.304688 Z M 8.316406 30.304688 "/>
</g>
<mask id="mask5">
  <g filter="url(#alpha)">
<rect x="0" y="0" width="50" height="50" style="fill:rgb(0%,0%,0%);fill-opacity:0.501961;stroke:none;"/>
  </g>
</mask>
<clipPath id="clip6">
  <rect width="50" height="50"/>
</clipPath>
<g id="surface21" clip-path="url(#clip6)">
<path style=" stroke:none;fill-rule:evenodd;fill:rgb(82.745098%,81.568627%,79.215686%);fill-opacity:1;" d="M 12.085938 48.789062 C 12.402344 48.832031 12.714844 48.890625 13.023438 48.957031 C 12.699219 48.933594 12.390625 48.878906 12.085938 48.789062 Z M 12.085938 48.789062 "/>
</g>
</defs>
<g id="surface1">
<use xlink:href="#surface6" mask="url(#mask0)"/>
<path style=" stroke:none;fill-rule:evenodd;fill:rgb(99.607843%,99.607843%,99.607843%);fill-opacity:1;" d="M 30.089844 21.328125 C 30.054688 21.332031 30.023438 21.328125 29.992188 21.316406 C 31.773438 18.878906 33.15625 16.222656 34.144531 13.347656 C 34.558594 12.082031 34.824219 10.792969 34.949219 9.46875 C 35.035156 8.570312 34.882812 7.714844 34.492188 6.902344 C 34.035156 6.136719 33.375 5.628906 32.511719 5.375 C 31.679688 5.140625 30.824219 5.035156 29.957031 5.054688 C 28.710938 5.105469 27.46875 5.167969 26.222656 5.234375 C 25.699219 5.300781 25.175781 5.40625 24.664062 5.542969 C 22.5625 6.164062 20.515625 6.9375 18.53125 7.859375 C 18.519531 7.847656 18.515625 7.832031 18.519531 7.8125 C 19.75 6.21875 21.246094 4.941406 23.007812 3.984375 C 25.792969 2.558594 28.664062 2.351562 31.625 3.359375 C 32.917969 3.820312 34.011719 4.570312 34.902344 5.605469 C 35.675781 6.621094 36.15625 7.765625 36.34375 9.039062 C 36.601562 10.960938 36.464844 12.859375 35.933594 14.726562 C 35.269531 16.949219 34.253906 18.980469 32.886719 20.824219 C 32.890625 20.859375 32.910156 20.894531 32.945312 20.917969 C 32.914062 20.988281 32.890625 21.0625 32.875 21.136719 C 31.941406 21.171875 31.015625 21.238281 30.089844 21.328125 Z M 30.089844 21.328125 "/>
<path style=" stroke:none;fill-rule:evenodd;fill:rgb(94.509804%,92.941176%,90.196078%);fill-opacity:1;" d="M 30.089844 21.328125 C 29.046875 21.414062 27.996094 21.46875 26.945312 21.496094 C 26.828125 21.503906 26.714844 21.496094 26.609375 21.472656 C 26.867188 21.105469 27.128906 20.746094 27.398438 20.390625 C 27.398438 20.402344 27.402344 20.410156 27.414062 20.414062 C 28.5 19.566406 29.519531 18.628906 30.460938 17.605469 C 31.132812 16.875 31.683594 16.058594 32.117188 15.160156 C 32.394531 14.542969 32.542969 13.902344 32.5625 13.226562 C 32.550781 13.105469 32.535156 12.988281 32.511719 12.878906 C 32.660156 12.230469 32.695312 11.574219 32.621094 10.910156 C 32.539062 10.105469 32.332031 9.339844 31.996094 8.605469 C 31.527344 7.761719 30.851562 7.140625 29.96875 6.746094 C 28.78125 6.230469 27.539062 6.03125 26.25 6.144531 C 25.507812 6.203125 24.789062 6.355469 24.085938 6.601562 C 23.453125 6.867188 22.882812 7.234375 22.382812 7.707031 C 22.042969 8.046875 21.703125 8.386719 21.363281 8.726562 C 21.3125 8.789062 21.285156 8.859375 21.28125 8.941406 C 21.296875 9.015625 21.308594 9.085938 21.316406 9.15625 C 21.039062 9.363281 20.773438 9.582031 20.511719 9.804688 C 20.4375 9.746094 20.359375 9.699219 20.269531 9.660156 C 19.582031 9.191406 18.878906 8.742188 18.160156 8.316406 C 18.25 8.128906 18.371094 7.960938 18.519531 7.8125 C 18.515625 7.832031 18.519531 7.847656 18.53125 7.859375 C 20.515625 6.9375 22.5625 6.164062 24.664062 5.542969 C 25.175781 5.40625 25.699219 5.300781 26.222656 5.234375 C 27.46875 5.167969 28.710938 5.105469 29.957031 5.054688 C 30.824219 5.035156 31.679688 5.140625 32.511719 5.375 C 33.375 5.628906 34.035156 6.136719 34.492188 6.902344 C 34.882812 7.714844 35.035156 8.570312 34.949219 9.46875 C 34.824219 10.792969 34.558594 12.082031 34.144531 13.347656 C 33.15625 16.222656 31.773438 18.878906 29.992188 21.316406 C 30.023438 21.328125 30.054688 21.332031 30.089844 21.328125 Z M 30.089844 21.328125 "/>
<use xlink:href="#surface9" mask="url(#mask1)"/>
<use xlink:href="#surface12" mask="url(#mask2)"/>
<use xlink:href="#surface15" mask="url(#mask3)"/>
<path style=" stroke:none;fill-rule:evenodd;fill:rgb(0.784314%,0.784314%,0.784314%);fill-opacity:1;" d="M 33.496094 12.230469 C 33.574219 12.21875 33.632812 12.242188 33.675781 12.300781 C 33.636719 13.714844 33.308594 15.058594 32.691406 16.335938 C 32.242188 17.296875 31.691406 18.199219 31.050781 19.035156 C 30.867188 19.109375 30.710938 19.070312 30.582031 18.925781 C 30.546875 18.847656 30.539062 18.769531 30.558594 18.6875 C 31.25 17.625 31.867188 16.511719 32.40625 15.351562 C 32.859375 14.363281 33.203125 13.339844 33.4375 12.277344 C 33.460938 12.265625 33.480469 12.25 33.496094 12.230469 Z M 33.496094 12.230469 "/>
<path style=" stroke:none;fill-rule:evenodd;fill:rgb(99.215686%,99.215686%,99.215686%);fill-opacity:1;" d="M 32.511719 12.878906 C 32.535156 12.988281 32.550781 13.105469 32.5625 13.226562 C 32.542969 13.902344 32.394531 14.542969 32.117188 15.160156 C 31.683594 16.058594 31.132812 16.875 30.460938 17.605469 C 29.519531 18.628906 28.5 19.566406 27.414062 20.414062 C 27.402344 20.410156 27.398438 20.402344 27.398438 20.390625 C 27.996094 19.558594 28.617188 18.742188 29.261719 17.941406 C 29.710938 17.359375 30.148438 16.765625 30.582031 16.167969 C 31.078125 15.402344 31.582031 14.640625 32.09375 13.886719 C 32.269531 13.5625 32.410156 13.226562 32.511719 12.878906 Z M 32.511719 12.878906 "/>
<path style=" stroke:none;fill-rule:evenodd;fill:rgb(92.54902%,92.54902%,92.54902%);fill-opacity:1;" d="M 33.210938 21.085938 C 33.152344 21.121094 33.097656 21.121094 33.042969 21.085938 C 33.097656 21.054688 33.152344 21.054688 33.210938 21.085938 Z M 33.210938 21.085938 "/>
<path style=" stroke:none;fill-rule:evenodd;fill:rgb(40%,40%,40%);fill-opacity:1;" d="M 33.042969 21.085938 C 33.097656 21.121094 33.152344 21.121094 33.210938 21.085938 C 33.226562 21.09375 33.246094 21.105469 33.257812 21.125 C 33.152344 21.140625 33.050781 21.140625 32.945312 21.125 C 32.980469 21.113281 33.011719 21.101562 33.042969 21.085938 Z M 33.042969 21.085938 "/>
<path style=" stroke:none;fill-rule:evenodd;fill:rgb(29.411765%,29.019608%,28.235294%);fill-opacity:1;" d="M 26.609375 21.472656 C 26.714844 21.496094 26.828125 21.503906 26.945312 21.496094 C 26.828125 21.527344 26.707031 21.527344 26.585938 21.496094 C 26.585938 21.480469 26.59375 21.472656 26.609375 21.472656 Z M 26.609375 21.472656 "/>
<path style=" stroke:none;fill-rule:evenodd;fill:rgb(94.509804%,92.941176%,90.196078%);fill-opacity:1;" d="M 18.351562 22.695312 C 18.605469 23.335938 18.761719 24 18.820312 24.6875 C 18.9375 25.757812 18.980469 26.828125 18.949219 27.90625 C 18.953125 29.023438 18.933594 30.144531 18.890625 31.265625 C 18.75 33.984375 18.613281 36.707031 18.484375 39.425781 C 18.429688 40.453125 18.4375 41.476562 18.507812 42.5 C 18.5625 43.207031 18.863281 43.785156 19.40625 44.238281 C 19.996094 44.699219 20.652344 45.039062 21.375 45.246094 C 22.835938 45.652344 24.324219 45.867188 25.839844 45.894531 C 28.734375 45.980469 31.597656 45.742188 34.433594 45.175781 C 35.585938 44.953125 36.699219 44.601562 37.769531 44.117188 C 38.027344 43.984375 38.277344 43.835938 38.515625 43.675781 C 38.335938 44.570312 37.832031 45.207031 37 45.582031 C 36.1875 45.910156 35.335938 46.101562 34.457031 46.160156 C 31.722656 46.363281 28.996094 46.628906 26.273438 46.953125 C 23.910156 47.289062 21.550781 47.644531 19.191406 48.007812 C 17.988281 48.183594 16.78125 48.230469 15.566406 48.152344 C 14.425781 48.109375 13.292969 47.992188 12.171875 47.804688 C 11.582031 47.714844 11.03125 47.519531 10.527344 47.214844 C 10.199219 46.960938 9.972656 46.636719 9.839844 46.242188 C 9.753906 45.957031 9.675781 45.667969 9.601562 45.378906 C 9.347656 44.210938 9.125 43.03125 8.929688 41.851562 C 8.65625 40.042969 8.558594 38.226562 8.640625 36.402344 C 8.695312 34.992188 8.75 33.585938 8.808594 32.175781 C 8.777344 29.433594 8.769531 26.6875 8.785156 23.945312 C 8.84375 23.460938 9.113281 23.167969 9.589844 23.066406 C 10.617188 22.867188 11.640625 22.652344 12.660156 22.417969 C 13.132812 22.332031 13.609375 22.289062 14.089844 22.289062 C 14.613281 22.304688 15.140625 22.332031 15.664062 22.371094 C 15.777344 22.480469 15.914062 22.542969 16.070312 22.5625 C 16.832031 22.621094 17.589844 22.664062 18.351562 22.695312 Z M 18.351562 22.695312 "/>
<path style=" stroke:none;fill-rule:evenodd;fill:rgb(99.607843%,99.607843%,99.607843%);fill-opacity:1;" d="M 38.515625 43.675781 C 38.277344 43.835938 38.027344 43.984375 37.769531 44.117188 C 36.699219 44.601562 35.585938 44.953125 34.433594 45.175781 C 31.597656 45.742188 28.734375 45.980469 25.839844 45.894531 C 24.324219 45.867188 22.835938 45.652344 21.375 45.246094 C 20.652344 45.039062 19.996094 44.699219 19.40625 44.238281 C 18.863281 43.785156 18.5625 43.207031 18.507812 42.5 C 18.4375 41.476562 18.429688 40.453125 18.484375 39.425781 C 18.613281 36.707031 18.75 33.984375 18.890625 31.265625 C 18.933594 30.144531 18.953125 29.023438 18.949219 27.90625 C 18.980469 26.828125 18.9375 25.757812 18.820312 24.6875 C 18.761719 24 18.605469 23.335938 18.351562 22.695312 C 20.167969 22.769531 21.984375 22.839844 23.800781 22.910156 C 25.425781 22.871094 27.046875 22.820312 28.671875 22.753906 C 30.128906 22.667969 31.585938 22.578125 33.042969 22.492188 C 33.882812 22.476562 34.722656 22.476562 35.5625 22.492188 C 35.648438 22.507812 35.714844 22.550781 35.765625 22.625 C 35.816406 22.730469 35.847656 22.84375 35.863281 22.960938 C 35.875 23.496094 35.949219 24.023438 36.078125 24.542969 C 36.59375 26.34375 37.105469 28.144531 37.613281 29.945312 C 38.011719 31.636719 38.265625 33.347656 38.382812 35.082031 C 38.5625 37.65625 38.644531 40.230469 38.621094 42.8125 C 38.597656 43.101562 38.5625 43.390625 38.515625 43.675781 Z M 38.515625 43.675781 "/>
<path style=" stroke:none;fill-rule:evenodd;fill:rgb(1.960784%,1.568627%,1.568627%);fill-opacity:1;" d="M 10.667969 25.191406 C 10.796875 25.164062 10.871094 25.210938 10.886719 25.335938 C 10.695312 25.96875 10.585938 26.617188 10.5625 27.28125 C 10.519531 29.863281 10.632812 32.441406 10.898438 35.007812 C 10.929688 35.546875 10.960938 36.082031 10.992188 36.617188 C 11.230469 39.101562 11.488281 41.582031 11.773438 44.058594 C 11.765625 44.269531 11.660156 44.339844 11.460938 44.261719 C 11.414062 44.230469 11.386719 44.1875 11.378906 44.132812 C 11.148438 42.15625 10.933594 40.179688 10.730469 38.203125 C 10.5625 36.199219 10.386719 34.199219 10.203125 32.199219 C 10.136719 30.535156 10.128906 28.871094 10.175781 27.207031 C 10.226562 26.636719 10.339844 26.074219 10.515625 25.527344 C 10.550781 25.40625 10.601562 25.296875 10.667969 25.191406 Z M 10.667969 25.191406 "/>
<path style=" stroke:none;fill-rule:evenodd;fill:rgb(0.392157%,0.392157%,0.392157%);fill-opacity:1;" d="M 23.511719 27.039062 C 23.78125 27.023438 24.046875 27.050781 24.304688 27.125 C 24.882812 27.402344 25.46875 27.675781 26.054688 27.941406 C 26.457031 28.1875 26.757812 28.527344 26.957031 28.960938 C 27.429688 30.085938 27.445312 31.222656 27.003906 32.371094 C 26.839844 32.789062 26.605469 33.164062 26.308594 33.496094 C 26.386719 33.878906 26.261719 34.167969 25.925781 34.363281 C 25.898438 34.617188 25.867188 34.875 25.828125 35.128906 C 25.8125 35.320312 25.8125 35.515625 25.828125 35.707031 C 26.148438 37.460938 26.355469 39.230469 26.453125 41.011719 C 26.414062 41.617188 26.097656 41.972656 25.503906 42.078125 C 25.363281 42.097656 25.226562 42.109375 25.085938 42.113281 C 24.550781 42.09375 24.019531 42.089844 23.488281 42.101562 C 23.035156 42.058594 22.75 41.8125 22.636719 41.371094 C 22.613281 41.242188 22.585938 41.113281 22.5625 40.988281 C 22.554688 40.371094 22.546875 39.753906 22.539062 39.136719 C 22.445312 38.355469 22.367188 37.570312 22.3125 36.785156 C 22.351562 36.152344 22.410156 35.519531 22.492188 34.890625 C 22.523438 34.6875 22.582031 34.496094 22.671875 34.3125 C 22.074219 34.019531 21.648438 33.5625 21.386719 32.945312 C 21.199219 32.460938 21.121094 31.957031 21.160156 31.433594 C 21.144531 30.636719 21.230469 29.855469 21.410156 29.082031 C 21.550781 28.476562 21.84375 27.960938 22.289062 27.53125 C 22.648438 27.246094 23.058594 27.082031 23.511719 27.039062 Z M 23.511719 27.039062 "/>
<path style=" stroke:none;fill-rule:evenodd;fill:rgb(66.27451%,22.745098%,17.647059%);fill-opacity:1;" d="M 23.414062 28.144531 C 23.613281 28.128906 23.804688 28.148438 23.992188 28.203125 C 24.203125 28.332031 24.421875 28.449219 24.640625 28.566406 C 24.9375 28.675781 25.222656 28.800781 25.503906 28.949219 C 25.917969 29.242188 26.175781 29.636719 26.285156 30.136719 C 26.507812 30.925781 26.546875 31.726562 26.402344 32.539062 C 26.328125 32.808594 26.238281 33.070312 26.128906 33.328125 C 25.699219 33.167969 25.328125 33.246094 25.011719 33.570312 C 24.953125 33.660156 24.902344 33.753906 24.867188 33.855469 C 24.722656 34.496094 24.671875 35.144531 24.722656 35.800781 C 24.960938 37.359375 25.167969 38.917969 25.347656 40.484375 C 25.355469 40.652344 25.351562 40.820312 25.335938 40.988281 C 25.1875 40.984375 25.042969 41.003906 24.902344 41.046875 C 24.703125 41.050781 24.503906 41.054688 24.304688 41.058594 C 24.09375 41.058594 23.890625 41.042969 23.691406 41.011719 C 23.71875 40.609375 23.726562 40.210938 23.714844 39.808594 C 23.644531 39.046875 23.539062 38.285156 23.402344 37.53125 C 23.328125 36.761719 23.328125 35.992188 23.402344 35.226562 C 23.457031 34.878906 23.527344 34.535156 23.621094 34.195312 C 23.699219 33.921875 23.621094 33.710938 23.390625 33.558594 C 23.011719 33.515625 22.695312 33.351562 22.445312 33.066406 C 22.230469 32.746094 22.101562 32.394531 22.058594 32.007812 C 21.980469 31.070312 22.085938 30.148438 22.371094 29.25 C 22.492188 28.875 22.703125 28.566406 23.007812 28.324219 C 23.140625 28.25 23.277344 28.191406 23.414062 28.144531 Z M 23.414062 28.144531 "/>
<use xlink:href="#surface18" mask="url(#mask4)"/>
<path style=" stroke:none;fill-rule:evenodd;fill:rgb(2.352941%,2.352941%,1.960784%);fill-opacity:1;" d="M 19 46.074219 C 19.078125 46.070312 19.160156 46.074219 19.238281 46.085938 C 19.351562 46.144531 19.386719 46.238281 19.347656 46.363281 C 19.320312 46.417969 19.277344 46.453125 19.214844 46.472656 C 18.410156 46.578125 17.601562 46.667969 16.789062 46.734375 C 16.046875 46.808594 15.316406 46.738281 14.605469 46.519531 C 14.496094 46.46875 14.453125 46.386719 14.472656 46.265625 C 14.507812 46.21875 14.554688 46.1875 14.605469 46.171875 C 14.886719 46.265625 15.175781 46.328125 15.46875 46.351562 C 16.660156 46.375 17.835938 46.28125 19 46.074219 Z M 19 46.074219 "/>
<path style=" stroke:none;fill-rule:evenodd;fill:rgb(70.980392%,69.803922%,67.843137%);fill-opacity:1;" d="M 11.796875 48.714844 C 11.902344 48.722656 11.996094 48.746094 12.085938 48.789062 C 11.980469 48.785156 11.886719 48.761719 11.796875 48.714844 Z M 11.796875 48.714844 "/>
<use xlink:href="#surface21" mask="url(#mask5)"/>
</g>
</svg>
