<?xml version="1.0" encoding="UTF-8"?>
<svg xmlns="http://www.w3.org/2000/svg" xmlns:xlink="http://www.w3.org/1999/xlink" width="50pt" height="50pt" viewBox="0 0 50 50" version="1.1">
<defs>
<filter id="alpha" filterUnits="objectBoundingBox" x="0%" y="0%" width="100%" height="100%">
  <feColorMatrix type="matrix" in="SourceGraphic" values="0 0 0 0 1 0 0 0 0 1 0 0 0 0 1 0 0 0 1 0"/>
</filter>
<mask id="mask0">
  <g filter="url(#alpha)">
<rect x="0" y="0" width="50" height="50" style="fill:rgb(0%,0%,0%);fill-opacity:0.984314;stroke:none;"/>
  </g>
</mask>
<clipPath id="clip1">
  <rect width="50" height="50"/>
</clipPath>
<g id="surface6" clip-path="url(#clip1)">
<path style=" stroke:none;fill-rule:evenodd;fill:rgb(66.27451%,23.137255%,17.647059%);fill-opacity:1;" d="M 25.914062 9.375 C 28.566406 9.296875 31.167969 9.636719 33.714844 10.394531 C 36.824219 11.347656 39.40625 13.078125 41.453125 15.589844 C 41.816406 16.046875 42.175781 16.503906 42.535156 16.957031 C 43.398438 18.152344 44.257812 19.351562 45.101562 20.558594 C 45.65625 21.265625 46.199219 21.976562 46.734375 22.695312 C 46.523438 21.785156 46.3125 20.875 46.113281 19.960938 C 45.886719 18.910156 45.71875 17.855469 45.605469 16.789062 C 45.53125 16.039062 45.644531 15.320312 45.941406 14.628906 C 46.179688 14.171875 46.527344 13.820312 46.988281 13.585938 C 47.3125 13.453125 47.640625 13.445312 47.972656 13.5625 C 48.113281 13.664062 48.15625 13.796875 48.105469 13.957031 C 47.992188 14.09375 47.871094 14.222656 47.742188 14.34375 C 47.535156 14.605469 47.402344 14.898438 47.335938 15.230469 C 47.246094 15.683594 47.230469 16.140625 47.289062 16.597656 C 47.566406 18.449219 47.941406 20.285156 48.414062 22.09375 C 48.660156 23.007812 48.910156 23.914062 49.171875 24.820312 C 49.109375 25.042969 48.964844 25.195312 48.738281 25.277344 C 48.203125 25.488281 47.652344 25.535156 47.082031 25.421875 C 46.726562 25.355469 46.382812 25.25 46.050781 25.109375 C 45.738281 24.960938 45.425781 24.8125 45.113281 24.652344 C 44.339844 24.199219 43.554688 23.757812 42.761719 23.332031 C 41.9375 22.816406 41.121094 22.289062 40.3125 21.746094 C 39.507812 21.222656 38.660156 20.777344 37.769531 20.402344 C 37.675781 20.273438 37.679688 20.140625 37.78125 20.007812 C 38.195312 19.582031 38.6875 19.457031 39.257812 19.636719 C 39.746094 19.835938 40.21875 20.066406 40.675781 20.332031 C 41.601562 20.90625 42.511719 21.496094 43.410156 22.109375 C 43.882812 22.402344 44.371094 22.667969 44.875 22.898438 C 44.511719 22.445312 44.152344 21.988281 43.808594 21.519531 C 42.855469 20.175781 41.894531 18.839844 40.925781 17.511719 C 40.152344 16.492188 39.308594 15.527344 38.394531 14.617188 C 36.59375 12.925781 34.496094 11.726562 32.105469 11.019531 C 28.984375 10.128906 25.816406 9.898438 22.601562 10.320312 C 21.550781 10.457031 20.519531 10.675781 19.503906 10.96875 C 20.144531 11.203125 20.738281 11.523438 21.28125 11.929688 C 22.539062 12.910156 23.527344 14.113281 24.242188 15.542969 C 25.675781 18.542969 26.132812 21.6875 25.613281 24.976562 C 25.371094 26.417969 24.851562 27.746094 24.050781 28.960938 C 22.75 30.691406 21.035156 31.789062 18.902344 32.261719 C 15.886719 32.929688 13.578125 31.960938 11.976562 29.34375 C 11.375 28.28125 10.902344 27.160156 10.5625 25.984375 C 9.953125 24.039062 9.621094 22.046875 9.566406 20.007812 C 9.609375 17.734375 10.457031 15.824219 12.109375 14.28125 C 13.460938 13.046875 14.980469 12.0625 16.671875 11.328125 C 15.492188 11.25 14.347656 11.410156 13.238281 11.808594 C 12.125 12.210938 11.078125 12.730469 10.09375 13.371094 C 8.792969 14.199219 7.613281 15.179688 6.554688 16.3125 C 4.8125 18.289062 3.820312 20.601562 3.578125 23.246094 C 3.414062 25.148438 3.539062 27.027344 3.960938 28.886719 C 4.472656 31.074219 5.144531 33.210938 5.976562 35.296875 C 6.480469 36.625 7.054688 37.921875 7.707031 39.1875 C 8.457031 40.578125 9.394531 41.835938 10.515625 42.953125 C 10.527344 43.007812 10.519531 43.054688 10.488281 43.097656 C 10.335938 43.253906 10.15625 43.371094 9.949219 43.445312 C 9.632812 43.589844 9.304688 43.628906 8.964844 43.566406 C 7.875 42.546875 6.957031 41.390625 6.21875 40.097656 C 5.574219 38.945312 5.011719 37.753906 4.535156 36.523438 C 3.710938 34.375 2.996094 32.191406 2.398438 29.96875 C 1.9375 28.179688 1.738281 26.363281 1.800781 24.519531 C 1.875 22.253906 2.492188 20.148438 3.648438 18.207031 C 4.34375 17.136719 5.171875 16.171875 6.132812 15.3125 C 7.386719 14.1875 8.753906 13.21875 10.238281 12.410156 C 12.074219 11.4375 14.027344 10.835938 16.09375 10.609375 C 16.84375 10.546875 17.59375 10.566406 18.339844 10.667969 C 20.804688 9.867188 23.328125 9.4375 25.914062 9.375 Z M 17.75 11.558594 C 17.875 11.5625 17.996094 11.589844 18.109375 11.640625 C 19.113281 12.035156 19.980469 12.625 20.714844 13.40625 C 21.867188 14.6875 22.722656 16.152344 23.285156 17.800781 C 24.179688 20.421875 24.371094 23.09375 23.859375 25.816406 C 23.523438 27.507812 22.75 28.960938 21.542969 30.171875 C 20.878906 30.792969 20.109375 31.242188 19.238281 31.515625 C 17.664062 31.917969 16.265625 31.589844 15.039062 30.53125 C 14.179688 29.703125 13.511719 28.742188 13.035156 27.640625 C 12.390625 26.144531 11.933594 24.59375 11.664062 22.984375 C 11.457031 21.886719 11.332031 20.777344 11.292969 19.660156 C 11.273438 17.640625 11.957031 15.90625 13.347656 14.460938 C 14.152344 13.640625 15.050781 12.949219 16.046875 12.386719 C 16.605469 12.082031 17.171875 11.808594 17.75 11.558594 Z M 17.75 11.558594 "/>
</g>
</defs>
<g id="surface1">
<use xlink:href="#surface6" mask="url(#mask0)"/>
</g>
</svg>
