<?xml version="1.0" encoding="UTF-8"?>
<svg xmlns="http://www.w3.org/2000/svg" xmlns:xlink="http://www.w3.org/1999/xlink" width="50pt" height="50pt" viewBox="0 0 50 50" version="1.1">
<defs>
<filter id="alpha" filterUnits="objectBoundingBox" x="0%" y="0%" width="100%" height="100%">
  <feColorMatrix type="matrix" in="SourceGraphic" values="0 0 0 0 1 0 0 0 0 1 0 0 0 0 1 0 0 0 1 0"/>
</filter>
<mask id="mask0">
  <g filter="url(#alpha)">
<rect x="0" y="0" width="50" height="50" style="fill:rgb(0%,0%,0%);fill-opacity:0.784314;stroke:none;"/>
  </g>
</mask>
<clipPath id="clip1">
  <rect width="50" height="50"/>
</clipPath>
<g id="surface6" clip-path="url(#clip1)">
<path style=" stroke:none;fill-rule:evenodd;fill:rgb(1.176471%,1.568627%,1.568627%);fill-opacity:1;" d="M 47.433594 0.601562 C 47.511719 0.601562 47.59375 0.601562 47.671875 0.601562 C 47.636719 0.828125 47.507812 0.988281 47.289062 1.078125 C 47.195312 1.003906 47.171875 0.910156 47.21875 0.792969 C 47.296875 0.734375 47.367188 0.667969 47.433594 0.601562 Z M 47.433594 0.601562 "/>
</g>
<mask id="mask1">
  <g filter="url(#alpha)">
<rect x="0" y="0" width="50" height="50" style="fill:rgb(0%,0%,0%);fill-opacity:0.776471;stroke:none;"/>
  </g>
</mask>
<clipPath id="clip2">
  <rect width="50" height="50"/>
</clipPath>
<g id="surface9" clip-path="url(#clip2)">
<path style=" stroke:none;fill-rule:evenodd;fill:rgb(1.176471%,1.568627%,1.568627%);fill-opacity:1;" d="M 46.519531 1.367188 C 46.695312 1.332031 46.769531 1.394531 46.738281 1.558594 C 46.527344 1.804688 46.285156 2.011719 46.015625 2.183594 C 45.917969 2.128906 45.886719 2.050781 45.921875 1.945312 C 46.144531 1.773438 46.34375 1.582031 46.519531 1.367188 Z M 46.519531 1.367188 "/>
</g>
<mask id="mask2">
  <g filter="url(#alpha)">
<rect x="0" y="0" width="50" height="50" style="fill:rgb(0%,0%,0%);fill-opacity:0.796078;stroke:none;"/>
  </g>
</mask>
<clipPath id="clip3">
  <rect width="50" height="50"/>
</clipPath>
<g id="surface12" clip-path="url(#clip3)">
<path style=" stroke:none;fill-rule:evenodd;fill:rgb(1.176471%,1.568627%,1.568627%);fill-opacity:1;" d="M 45.273438 2.472656 C 45.335938 2.472656 45.402344 2.472656 45.464844 2.472656 C 45.496094 2.652344 45.433594 2.789062 45.273438 2.878906 C 45.132812 2.972656 45.003906 3.085938 44.890625 3.214844 C 44.8125 3.238281 44.730469 3.246094 44.648438 3.238281 C 44.636719 3.152344 44.652344 3.074219 44.699219 3 C 44.890625 2.820312 45.082031 2.644531 45.273438 2.472656 Z M 45.273438 2.472656 "/>
</g>
<mask id="mask3">
  <g filter="url(#alpha)">
<rect x="0" y="0" width="50" height="50" style="fill:rgb(0%,0%,0%);fill-opacity:0.811765;stroke:none;"/>
  </g>
</mask>
<clipPath id="clip4">
  <rect width="50" height="50"/>
</clipPath>
<g id="surface15" clip-path="url(#clip4)">
<path style=" stroke:none;fill-rule:evenodd;fill:rgb(1.176471%,1.568627%,1.568627%);fill-opacity:1;" d="M 36.730469 3.285156 C 37.007812 3.433594 37.28125 3.59375 37.546875 3.765625 C 37.59375 3.839844 37.609375 3.921875 37.597656 4.007812 C 37.515625 4.015625 37.433594 4.007812 37.355469 3.984375 C 37.164062 3.855469 36.972656 3.726562 36.78125 3.597656 C 36.675781 3.507812 36.660156 3.402344 36.730469 3.285156 Z M 36.730469 3.285156 "/>
</g>
<mask id="mask4">
  <g filter="url(#alpha)">
<rect x="0" y="0" width="50" height="50" style="fill:rgb(0%,0%,0%);fill-opacity:0.788235;stroke:none;"/>
  </g>
</mask>
<clipPath id="clip5">
  <rect width="50" height="50"/>
</clipPath>
<g id="surface18" clip-path="url(#clip5)">
<path style=" stroke:none;fill-rule:evenodd;fill:rgb(1.176471%,1.568627%,1.568627%);fill-opacity:1;" d="M 44.027344 3.574219 C 44.089844 3.574219 44.152344 3.574219 44.21875 3.574219 C 44.238281 3.695312 44.203125 3.800781 44.121094 3.886719 C 43.945312 4.03125 43.769531 4.175781 43.59375 4.320312 C 43.53125 4.34375 43.46875 4.351562 43.402344 4.34375 C 43.394531 4.261719 43.402344 4.179688 43.425781 4.101562 C 43.636719 3.933594 43.835938 3.757812 44.027344 3.574219 Z M 44.027344 3.574219 "/>
</g>
<mask id="mask5">
  <g filter="url(#alpha)">
<rect x="0" y="0" width="50" height="50" style="fill:rgb(0%,0%,0%);fill-opacity:0.8;stroke:none;"/>
  </g>
</mask>
<clipPath id="clip6">
  <rect width="50" height="50"/>
</clipPath>
<g id="surface21" clip-path="url(#clip6)">
<path style=" stroke:none;fill-rule:evenodd;fill:rgb(1.176471%,1.568627%,1.568627%);fill-opacity:1;" d="M 36.394531 4.007812 C 36.574219 4.019531 36.632812 4.117188 36.5625 4.292969 C 36.464844 4.511719 36.375 4.738281 36.300781 4.964844 C 36.234375 5.035156 36.15625 5.066406 36.058594 5.0625 C 36.113281 4.691406 36.226562 4.339844 36.394531 4.007812 Z M 36.394531 4.007812 "/>
</g>
<mask id="mask6">
  <g filter="url(#alpha)">
<rect x="0" y="0" width="50" height="50" style="fill:rgb(0%,0%,0%);fill-opacity:0.835294;stroke:none;"/>
  </g>
</mask>
<clipPath id="clip7">
  <rect width="50" height="50"/>
</clipPath>
<g id="surface24" clip-path="url(#clip7)">
<path style=" stroke:none;fill-rule:evenodd;fill:rgb(1.176471%,1.568627%,1.568627%);fill-opacity:1;" d="M 38.074219 4.246094 C 38.15625 4.238281 38.238281 4.246094 38.316406 4.269531 C 38.507812 4.398438 38.699219 4.527344 38.890625 4.65625 C 38.972656 4.722656 39.003906 4.8125 38.988281 4.917969 C 38.90625 4.925781 38.824219 4.917969 38.746094 4.894531 C 38.546875 4.75 38.339844 4.613281 38.125 4.488281 C 38.078125 4.414062 38.0625 4.332031 38.074219 4.246094 Z M 38.074219 4.246094 "/>
</g>
<mask id="mask7">
  <g filter="url(#alpha)">
<rect x="0" y="0" width="50" height="50" style="fill:rgb(0%,0%,0%);fill-opacity:0.803922;stroke:none;"/>
  </g>
</mask>
<clipPath id="clip8">
  <rect width="50" height="50"/>
</clipPath>
<g id="surface27" clip-path="url(#clip8)">
<path style=" stroke:none;fill-rule:evenodd;fill:rgb(1.176471%,1.568627%,1.568627%);fill-opacity:1;" d="M 42.730469 4.679688 C 42.808594 4.679688 42.890625 4.679688 42.96875 4.679688 C 42.929688 4.886719 42.820312 5.054688 42.632812 5.183594 C 42.523438 5.246094 42.429688 5.324219 42.347656 5.421875 C 42.285156 5.445312 42.21875 5.453125 42.15625 5.445312 C 42.148438 5.363281 42.15625 5.285156 42.179688 5.207031 C 42.378906 5.046875 42.5625 4.871094 42.730469 4.679688 Z M 42.730469 4.679688 "/>
</g>
<mask id="mask8">
  <g filter="url(#alpha)">
<rect x="0" y="0" width="50" height="50" style="fill:rgb(0%,0%,0%);fill-opacity:0.807843;stroke:none;"/>
  </g>
</mask>
<clipPath id="clip9">
  <rect width="50" height="50"/>
</clipPath>
<g id="surface30" clip-path="url(#clip9)">
<path style=" stroke:none;fill-rule:evenodd;fill:rgb(1.176471%,1.568627%,1.568627%);fill-opacity:1;" d="M 39.46875 5.160156 C 39.550781 5.152344 39.628906 5.160156 39.707031 5.183594 C 39.898438 5.308594 40.089844 5.4375 40.28125 5.566406 C 40.417969 5.683594 40.410156 5.785156 40.257812 5.878906 C 40.003906 5.726562 39.757812 5.566406 39.515625 5.398438 C 39.46875 5.324219 39.453125 5.246094 39.46875 5.160156 Z M 39.46875 5.160156 "/>
</g>
<mask id="mask9">
  <g filter="url(#alpha)">
<rect x="0" y="0" width="50" height="50" style="fill:rgb(0%,0%,0%);fill-opacity:0.796078;stroke:none;"/>
  </g>
</mask>
<clipPath id="clip10">
  <rect width="50" height="50"/>
</clipPath>
<g id="surface33" clip-path="url(#clip10)">
<path style=" stroke:none;fill-rule:evenodd;fill:rgb(1.176471%,1.568627%,1.568627%);fill-opacity:1;" d="M 35.773438 5.589844 C 35.890625 5.566406 35.96875 5.605469 36.011719 5.710938 C 35.902344 5.972656 35.796875 6.234375 35.699219 6.5 C 35.632812 6.582031 35.542969 6.613281 35.4375 6.597656 C 35.507812 6.25 35.617188 5.914062 35.773438 5.589844 Z M 35.773438 5.589844 "/>
</g>
<mask id="mask10">
  <g filter="url(#alpha)">
<rect x="0" y="0" width="50" height="50" style="fill:rgb(0%,0%,0%);fill-opacity:0.803922;stroke:none;"/>
  </g>
</mask>
<clipPath id="clip11">
  <rect width="50" height="50"/>
</clipPath>
<g id="surface36" clip-path="url(#clip11)">
<path style=" stroke:none;fill-rule:evenodd;fill:rgb(1.176471%,1.568627%,1.568627%);fill-opacity:1;" d="M 41.484375 5.78125 C 41.5625 5.78125 41.644531 5.78125 41.722656 5.78125 C 41.730469 5.847656 41.722656 5.910156 41.699219 5.972656 C 41.542969 6.105469 41.390625 6.242188 41.242188 6.382812 C 40.992188 6.425781 40.863281 6.324219 40.859375 6.070312 C 40.953125 6.058594 41.042969 6.074219 41.121094 6.117188 C 41.242188 6 41.363281 5.886719 41.484375 5.78125 Z M 41.484375 5.78125 "/>
</g>
<mask id="mask11">
  <g filter="url(#alpha)">
<rect x="0" y="0" width="50" height="50" style="fill:rgb(0%,0%,0%);fill-opacity:0.803922;stroke:none;"/>
  </g>
</mask>
<clipPath id="clip12">
  <rect width="50" height="50"/>
</clipPath>
<g id="surface39" clip-path="url(#clip12)">
<path style=" stroke:none;fill-rule:evenodd;fill:rgb(1.176471%,1.568627%,1.568627%);fill-opacity:1;" d="M 35.195312 7.125 C 35.3125 7.105469 35.378906 7.152344 35.390625 7.269531 C 35.304688 7.511719 35.21875 7.75 35.125 7.988281 C 35.039062 8.210938 34.9375 8.230469 34.8125 8.039062 C 34.929688 7.726562 35.058594 7.421875 35.195312 7.125 Z M 35.195312 7.125 "/>
</g>
<mask id="mask12">
  <g filter="url(#alpha)">
<rect x="0" y="0" width="50" height="50" style="fill:rgb(0%,0%,0%);fill-opacity:0.803922;stroke:none;"/>
  </g>
</mask>
<clipPath id="clip13">
  <rect width="50" height="50"/>
</clipPath>
<g id="surface42" clip-path="url(#clip13)">
<path style=" stroke:none;fill-rule:evenodd;fill:rgb(1.176471%,1.568627%,1.568627%);fill-opacity:1;" d="M 29.582031 7.703125 C 29.753906 7.695312 29.808594 7.777344 29.75 7.941406 C 29.585938 8.191406 29.410156 8.429688 29.222656 8.660156 C 29.117188 8.589844 29.085938 8.496094 29.125 8.375 C 29.289062 8.15625 29.441406 7.929688 29.582031 7.703125 Z M 29.582031 7.703125 "/>
</g>
<mask id="mask13">
  <g filter="url(#alpha)">
<rect x="0" y="0" width="50" height="50" style="fill:rgb(0%,0%,0%);fill-opacity:0.784314;stroke:none;"/>
  </g>
</mask>
<clipPath id="clip14">
  <rect width="50" height="50"/>
</clipPath>
<g id="surface45" clip-path="url(#clip14)">
<path style=" stroke:none;fill-rule:evenodd;fill:rgb(1.176471%,1.568627%,1.568627%);fill-opacity:1;" d="M 30.160156 8.324219 C 30.238281 8.316406 30.320312 8.324219 30.398438 8.347656 C 30.566406 8.535156 30.75 8.703125 30.949219 8.851562 C 30.996094 8.972656 30.972656 9.066406 30.878906 9.140625 C 30.625 8.960938 30.394531 8.75 30.183594 8.515625 C 30.160156 8.457031 30.152344 8.390625 30.160156 8.324219 Z M 30.160156 8.324219 "/>
</g>
<mask id="mask14">
  <g filter="url(#alpha)">
<rect x="0" y="0" width="50" height="50" style="fill:rgb(0%,0%,0%);fill-opacity:0.823529;stroke:none;"/>
  </g>
</mask>
<clipPath id="clip15">
  <rect width="50" height="50"/>
</clipPath>
<g id="surface48" clip-path="url(#clip15)">
<path style=" stroke:none;fill-rule:evenodd;fill:rgb(1.176471%,1.568627%,1.568627%);fill-opacity:1;" d="M 34.574219 8.710938 C 34.636719 8.710938 34.699219 8.710938 34.765625 8.710938 C 34.722656 9.023438 34.632812 9.328125 34.5 9.621094 C 34.378906 9.757812 34.292969 9.742188 34.238281 9.574219 C 34.332031 9.277344 34.441406 8.988281 34.574219 8.710938 Z M 34.574219 8.710938 "/>
</g>
<mask id="mask15">
  <g filter="url(#alpha)">
<rect x="0" y="0" width="50" height="50" style="fill:rgb(0%,0%,0%);fill-opacity:0.788235;stroke:none;"/>
  </g>
</mask>
<clipPath id="clip16">
  <rect width="50" height="50"/>
</clipPath>
<g id="surface51" clip-path="url(#clip16)">
<path style=" stroke:none;fill-rule:evenodd;fill:rgb(1.176471%,1.568627%,1.568627%);fill-opacity:1;" d="M 28.621094 9.09375 C 28.6875 9.09375 28.75 9.09375 28.816406 9.09375 C 28.804688 9.15625 28.824219 9.210938 28.863281 9.261719 C 28.710938 9.476562 28.558594 9.691406 28.40625 9.910156 C 28.335938 9.988281 28.25 10.019531 28.144531 10.003906 C 28.132812 9.886719 28.15625 9.773438 28.214844 9.667969 C 28.363281 9.484375 28.5 9.292969 28.621094 9.09375 Z M 28.621094 9.09375 "/>
</g>
<mask id="mask16">
  <g filter="url(#alpha)">
<rect x="0" y="0" width="50" height="50" style="fill:rgb(0%,0%,0%);fill-opacity:0.827451;stroke:none;"/>
  </g>
</mask>
<clipPath id="clip17">
  <rect width="50" height="50"/>
</clipPath>
<g id="surface54" clip-path="url(#clip17)">
<path style=" stroke:none;fill-rule:evenodd;fill:rgb(1.176471%,1.568627%,1.568627%);fill-opacity:1;" d="M 31.40625 9.476562 C 31.488281 9.46875 31.566406 9.476562 31.644531 9.5 C 31.8125 9.667969 31.980469 9.835938 32.148438 10.003906 C 32.171875 10.082031 32.179688 10.164062 32.171875 10.246094 C 32.109375 10.253906 32.042969 10.246094 31.980469 10.222656 C 31.820312 10.042969 31.644531 9.882812 31.453125 9.742188 C 31.410156 9.660156 31.394531 9.570312 31.40625 9.476562 Z M 31.40625 9.476562 "/>
</g>
<mask id="mask17">
  <g filter="url(#alpha)">
<rect x="0" y="0" width="50" height="50" style="fill:rgb(0%,0%,0%);fill-opacity:0.784314;stroke:none;"/>
  </g>
</mask>
<clipPath id="clip18">
  <rect width="50" height="50"/>
</clipPath>
<g id="surface57" clip-path="url(#clip18)">
<path style=" stroke:none;fill-rule:evenodd;fill:rgb(1.176471%,1.568627%,1.568627%);fill-opacity:1;" d="M 33.949219 10.246094 C 34.082031 10.214844 34.160156 10.265625 34.1875 10.390625 C 34.101562 10.628906 34.011719 10.867188 33.925781 11.109375 C 33.816406 11.324219 33.710938 11.332031 33.613281 11.132812 C 33.738281 10.839844 33.851562 10.546875 33.949219 10.246094 Z M 33.949219 10.246094 "/>
</g>
<mask id="mask18">
  <g filter="url(#alpha)">
<rect x="0" y="0" width="50" height="50" style="fill:rgb(0%,0%,0%);fill-opacity:0.776471;stroke:none;"/>
  </g>
</mask>
<clipPath id="clip19">
  <rect width="50" height="50"/>
</clipPath>
<g id="surface60" clip-path="url(#clip19)">
<path style=" stroke:none;fill-rule:evenodd;fill:rgb(1.176471%,1.568627%,1.568627%);fill-opacity:1;" d="M 27.664062 10.4375 C 27.726562 10.4375 27.792969 10.4375 27.855469 10.4375 C 27.863281 10.519531 27.855469 10.597656 27.832031 10.675781 C 27.664062 10.929688 27.464844 11.15625 27.230469 11.347656 C 27.136719 11.273438 27.113281 11.179688 27.160156 11.058594 C 27.335938 10.859375 27.503906 10.652344 27.664062 10.4375 Z M 27.664062 10.4375 "/>
</g>
<mask id="mask19">
  <g filter="url(#alpha)">
<rect x="0" y="0" width="50" height="50" style="fill:rgb(0%,0%,0%);fill-opacity:0.796078;stroke:none;"/>
  </g>
</mask>
<clipPath id="clip20">
  <rect width="50" height="50"/>
</clipPath>
<g id="surface63" clip-path="url(#clip20)">
<path style=" stroke:none;fill-rule:evenodd;fill:rgb(1.176471%,1.568627%,1.568627%);fill-opacity:1;" d="M 32.605469 10.628906 C 32.6875 10.621094 32.765625 10.628906 32.84375 10.652344 C 32.992188 10.8125 33.152344 10.957031 33.324219 11.085938 C 33.410156 11.171875 33.441406 11.273438 33.421875 11.394531 C 33.316406 11.402344 33.222656 11.378906 33.132812 11.324219 C 32.964844 11.15625 32.796875 10.988281 32.628906 10.820312 C 32.605469 10.757812 32.597656 10.695312 32.605469 10.628906 Z M 32.605469 10.628906 "/>
</g>
<mask id="mask20">
  <g filter="url(#alpha)">
<rect x="0" y="0" width="50" height="50" style="fill:rgb(0%,0%,0%);fill-opacity:0.929412;stroke:none;"/>
  </g>
</mask>
<clipPath id="clip21">
  <rect width="50" height="50"/>
</clipPath>
<g id="surface66" clip-path="url(#clip21)">
<path style=" stroke:none;fill-rule:evenodd;fill:rgb(1.176471%,0%,0%);fill-opacity:1;" d="M 24.113281 13.171875 C 24.097656 13.324219 24.113281 13.46875 24.160156 13.605469 C 24.066406 13.839844 23.90625 14.015625 23.679688 14.132812 C 23.605469 14.152344 23.53125 14.183594 23.464844 14.226562 C 23.441406 14.210938 23.417969 14.195312 23.390625 14.179688 C 23.484375 14.125 23.566406 14.0625 23.632812 13.988281 C 23.664062 13.988281 23.679688 13.972656 23.679688 13.941406 C 23.953125 13.796875 24.039062 13.574219 23.945312 13.269531 C 23.253906 12.078125 22.222656 11.558594 20.847656 11.707031 C 20.21875 11.796875 19.59375 11.925781 18.976562 12.09375 C 17.304688 12.605469 15.625 13.101562 13.941406 13.578125 C 12.96875 13.738281 11.992188 13.851562 11.011719 13.914062 C 11.234375 13.964844 11.457031 14 11.683594 14.011719 C 12.660156 14.042969 13.636719 14.042969 14.609375 14.011719 C 15.75 13.917969 16.839844 13.628906 17.875 13.148438 C 17.964844 13.042969 18.070312 12.953125 18.1875 12.882812 C 18.328125 12.929688 18.378906 13.023438 18.332031 13.171875 C 17.839844 13.679688 17.304688 14.132812 16.722656 14.539062 C 15.839844 14.941406 14.910156 15.183594 13.941406 15.257812 C 12.46875 15.363281 10.996094 15.460938 9.523438 15.546875 C 9.140625 15.589844 8.757812 15.636719 8.375 15.691406 C 8.285156 15.699219 8.222656 15.742188 8.179688 15.8125 C 8.179688 15.84375 8.199219 15.859375 8.230469 15.859375 C 8.253906 15.925781 8.300781 15.957031 8.375 15.953125 C 8.390625 15.953125 8.40625 15.953125 8.421875 15.953125 C 8.4375 15.996094 8.46875 16.011719 8.515625 16.003906 C 8.660156 16.027344 8.804688 16.050781 8.949219 16.074219 C 10.132812 16.082031 11.316406 16.113281 12.5 16.171875 C 12.835938 16.304688 12.867188 16.480469 12.597656 16.699219 C 11.332031 16.792969 10.101562 17.050781 8.902344 17.464844 C 8.78125 17.550781 8.652344 17.625 8.515625 17.683594 C 8.484375 17.683594 8.46875 17.699219 8.46875 17.730469 C 8.453125 17.730469 8.4375 17.730469 8.421875 17.730469 C 8.390625 17.730469 8.375 17.746094 8.375 17.777344 C 7.699219 18.054688 7.171875 18.5 6.789062 19.121094 C 6.757812 19.121094 6.742188 19.136719 6.742188 19.167969 C 6.710938 19.167969 6.695312 19.1875 6.695312 19.21875 C 6.507812 19.417969 6.429688 19.660156 6.453125 19.9375 C 7.234375 19.554688 8.035156 19.210938 8.851562 18.90625 C 9.199219 18.800781 9.550781 18.769531 9.910156 18.808594 C 10.085938 18.933594 10.144531 19.101562 10.078125 19.3125 C 9.839844 19.761719 9.625 20.21875 9.429688 20.679688 C 9.457031 20.949219 9.601562 21.046875 9.859375 20.96875 C 11.042969 20.363281 12.164062 19.660156 13.21875 18.859375 C 13.339844 18.792969 13.457031 18.738281 13.578125 18.691406 C 13.707031 18.691406 13.792969 18.75 13.84375 18.859375 C 13.675781 19.1875 13.472656 19.5 13.242188 19.792969 C 13.1875 19.902344 13.148438 20.011719 13.125 20.128906 C 13.058594 20.144531 13.058594 20.160156 13.125 20.175781 C 13.105469 20.296875 13.152344 20.359375 13.269531 20.371094 C 13.457031 20.308594 13.632812 20.21875 13.796875 20.105469 C 14.433594 19.5 15.074219 18.894531 15.714844 18.28125 C 16.039062 18.078125 16.390625 18 16.769531 18.042969 C 16.796875 18.0625 16.8125 18.085938 16.820312 18.113281 C 16.882812 18.195312 16.882812 18.273438 16.820312 18.355469 C 16.460938 18.355469 16.125 18.445312 15.8125 18.617188 C 15.316406 19.097656 14.835938 19.59375 14.371094 20.105469 C 14.113281 20.332031 13.824219 20.507812 13.507812 20.632812 C 12.976562 20.804688 12.726562 20.621094 12.765625 20.082031 C 12.816406 19.847656 12.921875 19.640625 13.074219 19.457031 C 13.058594 19.441406 13.042969 19.425781 13.027344 19.410156 C 12.316406 19.871094 11.613281 20.34375 10.917969 20.824219 C 10.648438 20.964844 10.378906 21.09375 10.101562 21.210938 C 9.347656 21.402344 9.054688 21.121094 9.214844 20.371094 C 9.339844 20.101562 9.472656 19.847656 9.621094 19.601562 C 9.722656 19.476562 9.785156 19.335938 9.8125 19.167969 C 9.800781 19.113281 9.769531 19.078125 9.71875 19.074219 C 9.175781 19.113281 8.648438 19.25 8.132812 19.480469 C 7.6875 19.707031 7.238281 19.929688 6.789062 20.152344 C 6.253906 20.34375 6.039062 20.160156 6.140625 19.601562 C 6.464844 18.757812 7.015625 18.113281 7.796875 17.660156 C 8.648438 17.175781 9.5625 16.855469 10.53125 16.699219 C 11.121094 16.605469 11.714844 16.53125 12.308594 16.484375 C 12.375 16.492188 12.4375 16.480469 12.5 16.457031 C 12.347656 16.394531 12.1875 16.371094 12.019531 16.386719 C 11.078125 16.394531 10.132812 16.386719 9.1875 16.363281 C 8.882812 16.351562 8.578125 16.320312 8.277344 16.265625 C 7.949219 16.195312 7.8125 15.996094 7.871094 15.667969 C 8.019531 15.476562 8.21875 15.378906 8.46875 15.378906 C 9.070312 15.332031 9.660156 15.265625 10.246094 15.1875 C 11.234375 15.121094 12.226562 15.066406 13.21875 15.019531 C 14.382812 14.945312 15.503906 14.691406 16.578125 14.25 C 16.722656 14.15625 16.847656 14.046875 16.960938 13.914062 C 16.246094 14.125 15.507812 14.269531 14.753906 14.347656 C 13.746094 14.378906 12.738281 14.378906 11.730469 14.347656 C 10.761719 14.285156 9.816406 14.09375 8.902344 13.773438 C 8.710938 13.644531 8.710938 13.515625 8.902344 13.386719 C 11.058594 13.671875 13.1875 13.496094 15.28125 12.859375 C 16.855469 12.3125 18.457031 11.867188 20.082031 11.515625 C 20.769531 11.394531 21.457031 11.378906 22.144531 11.46875 C 22.550781 11.542969 22.902344 11.71875 23.199219 11.996094 C 23.417969 12.210938 23.632812 12.429688 23.847656 12.644531 C 23.96875 12.804688 24.058594 12.980469 24.113281 13.171875 Z M 22.433594 13.554688 C 22.578125 13.605469 22.671875 13.699219 22.722656 13.84375 C 22.609375 13.761719 22.511719 13.667969 22.433594 13.554688 Z M 22.433594 13.554688 "/>
</g>
<mask id="mask21">
  <g filter="url(#alpha)">
<rect x="0" y="0" width="50" height="50" style="fill:rgb(0%,0%,0%);fill-opacity:0.996078;stroke:none;"/>
  </g>
</mask>
<clipPath id="clip22">
  <rect width="50" height="50"/>
</clipPath>
<g id="surface69" clip-path="url(#clip22)">
<path style=" stroke:none;fill-rule:evenodd;fill:rgb(65.490196%,22.745098%,17.647059%);fill-opacity:1;" d="M 23.679688 13.941406 C 23.648438 13.941406 23.632812 13.957031 23.632812 13.988281 C 23.457031 13.773438 23.289062 13.546875 23.128906 13.316406 C 22.730469 12.933594 22.261719 12.683594 21.714844 12.570312 C 21.085938 12.410156 20.492188 12.492188 19.9375 12.8125 C 19.554688 13.082031 19.167969 13.355469 18.785156 13.628906 C 17.78125 14.972656 17.125 16.46875 16.820312 18.113281 C 16.8125 18.085938 16.796875 18.0625 16.769531 18.042969 C 16.390625 18 16.039062 18.078125 15.714844 18.28125 C 15.074219 18.894531 14.433594 19.5 13.796875 20.105469 C 13.632812 20.21875 13.457031 20.308594 13.269531 20.371094 C 13.152344 20.359375 13.105469 20.296875 13.125 20.175781 C 13.125 20.160156 13.125 20.144531 13.125 20.128906 C 13.148438 20.011719 13.1875 19.902344 13.242188 19.792969 C 13.472656 19.5 13.675781 19.1875 13.84375 18.859375 C 13.792969 18.75 13.707031 18.691406 13.578125 18.691406 C 13.457031 18.738281 13.339844 18.792969 13.21875 18.859375 C 12.164062 19.660156 11.042969 20.363281 9.859375 20.96875 C 9.601562 21.046875 9.457031 20.949219 9.429688 20.679688 C 9.625 20.21875 9.839844 19.761719 10.078125 19.3125 C 10.144531 19.101562 10.085938 18.933594 9.910156 18.808594 C 9.550781 18.769531 9.199219 18.800781 8.851562 18.90625 C 8.035156 19.210938 7.234375 19.554688 6.453125 19.9375 C 6.429688 19.660156 6.507812 19.417969 6.695312 19.21875 C 6.726562 19.21875 6.742188 19.203125 6.742188 19.167969 C 6.773438 19.167969 6.789062 19.152344 6.789062 19.121094 C 7.289062 18.636719 7.820312 18.1875 8.375 17.777344 C 8.40625 17.777344 8.421875 17.761719 8.421875 17.730469 C 8.4375 17.730469 8.453125 17.730469 8.46875 17.730469 C 8.5 17.730469 8.515625 17.714844 8.515625 17.683594 C 8.652344 17.625 8.78125 17.550781 8.902344 17.464844 C 10.101562 17.050781 11.332031 16.792969 12.597656 16.699219 C 12.867188 16.480469 12.835938 16.304688 12.5 16.171875 C 11.316406 16.113281 10.132812 16.082031 8.949219 16.074219 C 8.804688 16.050781 8.660156 16.027344 8.515625 16.003906 C 8.5 15.960938 8.46875 15.945312 8.421875 15.953125 C 8.40625 15.953125 8.390625 15.953125 8.375 15.953125 C 8.351562 15.886719 8.300781 15.855469 8.230469 15.859375 C 8.199219 15.859375 8.179688 15.84375 8.179688 15.8125 C 8.222656 15.742188 8.285156 15.699219 8.375 15.691406 C 8.757812 15.636719 9.140625 15.589844 9.523438 15.546875 C 10.996094 15.460938 12.46875 15.363281 13.941406 15.257812 C 14.910156 15.183594 15.839844 14.941406 16.722656 14.539062 C 17.304688 14.132812 17.839844 13.679688 18.332031 13.171875 C 18.378906 13.023438 18.328125 12.929688 18.1875 12.882812 C 18.070312 12.953125 17.964844 13.042969 17.875 13.148438 C 16.839844 13.628906 15.75 13.917969 14.609375 14.011719 C 13.636719 14.042969 12.660156 14.042969 11.683594 14.011719 C 11.457031 14 11.234375 13.964844 11.011719 13.914062 C 11.992188 13.851562 12.96875 13.738281 13.941406 13.578125 C 15.625 13.101562 17.304688 12.605469 18.976562 12.09375 C 19.59375 11.925781 20.21875 11.796875 20.847656 11.707031 C 22.222656 11.558594 23.253906 12.078125 23.945312 13.269531 C 24.039062 13.574219 23.953125 13.796875 23.679688 13.941406 Z M 22.433594 13.554688 C 22.578125 13.605469 22.671875 13.699219 22.722656 13.84375 C 22.609375 13.761719 22.511719 13.667969 22.433594 13.554688 Z M 22.433594 13.554688 "/>
</g>
<mask id="mask22">
  <g filter="url(#alpha)">
<rect x="0" y="0" width="50" height="50" style="fill:rgb(0%,0%,0%);fill-opacity:0.803922;stroke:none;"/>
  </g>
</mask>
<clipPath id="clip23">
  <rect width="50" height="50"/>
</clipPath>
<g id="surface72" clip-path="url(#clip23)">
<path style=" stroke:none;fill-rule:evenodd;fill:rgb(1.176471%,1.568627%,1.568627%);fill-opacity:1;" d="M 26.65625 11.730469 C 26.703125 11.730469 26.75 11.730469 26.800781 11.730469 C 26.808594 11.8125 26.800781 11.894531 26.777344 11.972656 C 26.613281 12.175781 26.445312 12.375 26.273438 12.570312 C 26.210938 12.59375 26.144531 12.601562 26.078125 12.597656 C 26.070312 12.515625 26.078125 12.433594 26.105469 12.355469 C 26.28125 12.136719 26.464844 11.929688 26.65625 11.730469 Z M 26.65625 11.730469 "/>
</g>
<mask id="mask23">
  <g filter="url(#alpha)">
<rect x="0" y="0" width="50" height="50" style="fill:rgb(0%,0%,0%);fill-opacity:0.964706;stroke:none;"/>
  </g>
</mask>
<clipPath id="clip24">
  <rect width="50" height="50"/>
</clipPath>
<g id="surface75" clip-path="url(#clip24)">
<path style=" stroke:none;fill-rule:evenodd;fill:rgb(12.156863%,12.156863%,12.156863%);fill-opacity:1;" d="M 23.632812 13.988281 C 23.566406 14.0625 23.484375 14.125 23.390625 14.179688 C 23.417969 14.195312 23.441406 14.210938 23.464844 14.226562 C 23.53125 14.183594 23.605469 14.152344 23.679688 14.132812 C 23.792969 14.554688 23.855469 14.988281 23.871094 15.425781 C 23.90625 15.507812 23.96875 15.539062 24.0625 15.523438 C 24.113281 15.523438 24.160156 15.523438 24.207031 15.523438 C 23.890625 15.496094 23.570312 15.527344 23.25 15.617188 C 23.316406 15.089844 23.21875 14.59375 22.960938 14.132812 C 22.960938 14.097656 22.945312 14.082031 22.914062 14.082031 C 22.921875 14.035156 22.90625 14.003906 22.863281 13.988281 C 22.863281 13.957031 22.847656 13.941406 22.816406 13.941406 C 22.816406 13.90625 22.800781 13.890625 22.769531 13.890625 C 22.769531 13.859375 22.753906 13.84375 22.722656 13.84375 C 22.671875 13.699219 22.578125 13.605469 22.433594 13.554688 C 22.433594 13.523438 22.417969 13.507812 22.386719 13.507812 C 22.386719 13.476562 22.367188 13.460938 22.335938 13.460938 C 22.335938 13.425781 22.320312 13.410156 22.289062 13.410156 C 21.769531 13.109375 21.210938 12.988281 20.609375 13.050781 C 20.238281 13.183594 19.902344 13.375 19.601562 13.628906 C 19.496094 13.667969 19.40625 13.644531 19.335938 13.554688 C 19.132812 13.714844 18.941406 13.890625 18.761719 14.082031 C 17.910156 15.386719 17.382812 16.808594 17.179688 18.355469 C 16.976562 19.546875 17.285156 20.582031 18.113281 21.449219 C 18.664062 21.832031 19.257812 21.910156 19.890625 21.6875 C 20.300781 21.484375 20.703125 21.261719 21.089844 21.015625 C 21.304688 20.867188 21.488281 20.679688 21.640625 20.464844 C 22.214844 19.433594 22.683594 18.378906 23.054688 17.296875 C 23.300781 17.152344 23.542969 16.992188 23.777344 16.820312 C 23.730469 17.285156 23.609375 17.734375 23.417969 18.164062 C 23.085938 18.871094 22.742188 19.574219 22.386719 20.273438 C 22.597656 20.320312 22.804688 20.296875 23.007812 20.203125 C 23.925781 19.839844 24.839844 19.464844 25.742188 19.074219 C 25.867188 19.074219 25.964844 19.027344 26.03125 18.929688 C 26.082031 18.875 26.144531 18.839844 26.222656 18.832031 C 26.605469 18.707031 26.957031 18.53125 27.277344 18.304688 C 28.320312 17.691406 29.375 17.097656 30.445312 16.53125 C 30.433594 16.679688 30.449219 16.824219 30.496094 16.960938 C 29.359375 17.59375 28.257812 18.273438 27.183594 19 C 26.558594 19.296875 25.953125 19.617188 25.359375 19.960938 C 24.796875 20.144531 24.238281 20.335938 23.679688 20.539062 C 23.597656 20.644531 23.542969 20.761719 23.511719 20.898438 C 23.246094 22.152344 22.949219 23.402344 22.625 24.640625 C 22.523438 24.773438 22.445312 24.914062 22.386719 25.070312 C 22.410156 25.140625 22.457031 25.171875 22.527344 25.167969 C 22.1875 26.398438 21.941406 27.644531 21.785156 28.910156 C 21.691406 29.238281 21.605469 29.566406 21.519531 29.894531 C 21.539062 29.949219 21.558594 30.003906 21.570312 30.0625 C 21.347656 30.804688 21.089844 31.53125 20.800781 32.246094 C 20.828125 32.316406 20.863281 32.390625 20.898438 32.460938 C 21.039062 32.519531 21.183594 32.566406 21.328125 32.605469 C 21.324219 32.636719 21.308594 32.660156 21.28125 32.675781 C 21.183594 32.695312 21.089844 32.710938 20.992188 32.726562 C 20.9375 32.835938 20.859375 32.925781 20.753906 32.988281 C 20.714844 32.882812 20.636719 32.832031 20.511719 32.84375 C 20.515625 32.933594 20.476562 33 20.394531 33.039062 C 20.371094 32.730469 20.339844 32.425781 20.296875 32.125 C 20.460938 31.65625 20.636719 31.191406 20.824219 30.734375 C 21.582031 27.390625 22.390625 24.066406 23.25 20.753906 C 23.234375 20.738281 23.214844 20.722656 23.199219 20.707031 C 22.6875 20.867188 22.175781 21.035156 21.664062 21.210938 C 21.433594 21.382812 21.195312 21.542969 20.945312 21.6875 C 20.632812 21.78125 20.34375 21.925781 20.082031 22.121094 C 19.808594 22.214844 19.53125 22.253906 19.242188 22.242188 C 18.957031 22.238281 18.675781 22.214844 18.402344 22.167969 C 17.640625 22.652344 16.859375 23.101562 16.050781 23.511719 C 15.984375 23.558594 15.953125 23.621094 15.953125 23.703125 C 16.160156 24.78125 16.351562 25.863281 16.53125 26.945312 C 16.351562 26.855469 16.207031 26.886719 16.097656 27.039062 C 15.976562 26.070312 15.808594 25.113281 15.59375 24.160156 C 15.039062 25.703125 14.40625 27.214844 13.699219 28.695312 C 14.300781 29.035156 14.910156 29.363281 15.523438 29.679688 C 15.714844 29.871094 15.925781 30.046875 16.148438 30.207031 C 16.191406 30.148438 16.207031 30.085938 16.195312 30.015625 C 16.316406 30.070312 16.4375 30.136719 16.554688 30.207031 C 16.441406 29.347656 16.339844 28.480469 16.242188 27.613281 C 16.417969 27.460938 16.511719 27.269531 16.53125 27.039062 C 16.804688 28.714844 17.042969 30.402344 17.25 32.101562 C 17.261719 32.78125 17.167969 33.445312 16.960938 34.09375 C 16.847656 34.074219 16.773438 34.125 16.746094 34.238281 C 16.601562 34.683594 16.433594 35.113281 16.242188 35.53125 C 16.316406 35.246094 16.378906 34.960938 16.433594 34.667969 C 16.570312 34.078125 16.730469 33.496094 16.914062 32.917969 C 16.824219 32.289062 16.746094 31.65625 16.675781 31.023438 C 16.617188 31.011719 16.570312 31.027344 16.53125 31.070312 C 16.648438 31.207031 16.65625 31.351562 16.554688 31.5 C 16.214844 31.988281 15.773438 32.347656 15.234375 32.582031 C 14.511719 32.609375 14.3125 32.296875 14.636719 31.644531 C 15.023438 31.175781 15.496094 30.816406 16.050781 30.566406 C 15.6875 30.378906 15.335938 30.175781 14.996094 29.964844 C 14.460938 29.609375 13.902344 29.289062 13.316406 29.007812 C 13.226562 28.898438 13.203125 28.769531 13.242188 28.621094 C 14.097656 26.871094 14.851562 25.078125 15.5 23.25 C 15.617188 23.160156 15.738281 23.074219 15.859375 22.984375 C 16.578125 22.65625 17.265625 22.28125 17.921875 21.855469 C 17.144531 21.144531 16.757812 20.257812 16.769531 19.195312 C 16.777344 18.914062 16.796875 18.632812 16.820312 18.355469 C 16.882812 18.273438 16.882812 18.195312 16.820312 18.113281 C 17.125 16.46875 17.78125 14.972656 18.785156 13.628906 C 19.167969 13.355469 19.554688 13.082031 19.9375 12.8125 C 20.492188 12.492188 21.085938 12.410156 21.714844 12.570312 C 22.261719 12.683594 22.730469 12.933594 23.128906 13.316406 C 23.289062 13.546875 23.457031 13.773438 23.632812 13.988281 Z M 22.433594 13.554688 C 22.578125 13.605469 22.671875 13.699219 22.722656 13.84375 C 22.609375 13.761719 22.511719 13.667969 22.433594 13.554688 Z M 16.242188 27.613281 C 16.339844 28.480469 16.441406 29.347656 16.554688 30.207031 C 16.4375 30.136719 16.316406 30.070312 16.195312 30.015625 C 15.835938 29.519531 15.484375 29.015625 15.140625 28.503906 C 15.46875 28.160156 15.835938 27.867188 16.242188 27.613281 Z M 16.097656 31.214844 C 15.910156 31.476562 15.6875 31.707031 15.425781 31.910156 C 15.304688 31.988281 15.175781 32.035156 15.042969 32.054688 C 15.316406 31.671875 15.667969 31.390625 16.097656 31.214844 Z M 16.097656 31.214844 "/>
</g>
<mask id="mask24">
  <g filter="url(#alpha)">
<rect x="0" y="0" width="50" height="50" style="fill:rgb(0%,0%,0%);fill-opacity:0.882353;stroke:none;"/>
  </g>
</mask>
<clipPath id="clip25">
  <rect width="50" height="50"/>
</clipPath>
<g id="surface78" clip-path="url(#clip25)">
<path style=" stroke:none;fill-rule:evenodd;fill:rgb(11.372549%,11.372549%,11.372549%);fill-opacity:1;" d="M 33.277344 15.953125 C 33.484375 15.777344 33.726562 15.667969 33.996094 15.617188 C 34.484375 15.554688 34.75 15.285156 34.789062 14.804688 C 34.609375 14.628906 34.410156 14.613281 34.1875 14.753906 C 34.09375 14.714844 34.042969 14.644531 34.046875 14.539062 C 34.277344 14.144531 34.519531 13.753906 34.765625 13.363281 C 34.742188 13.347656 34.71875 13.332031 34.691406 13.316406 C 34.421875 13.460938 34.214844 13.667969 34.070312 13.941406 C 33.976562 14.242188 33.898438 14.546875 33.828125 14.851562 C 33.660156 14.988281 33.492188 15.125 33.324219 15.257812 C 33.445312 15.304688 33.539062 15.378906 33.613281 15.476562 C 33.441406 15.589844 33.25 15.671875 33.039062 15.714844 C 33.046875 15.617188 33.039062 15.523438 33.011719 15.425781 C 32.3125 15.8125 31.628906 16.230469 30.972656 16.675781 C 30.953125 16.523438 30.871094 16.410156 30.734375 16.339844 C 31.382812 15.925781 32.054688 15.550781 32.75 15.210938 C 33.042969 15.046875 33.304688 14.847656 33.542969 14.609375 C 33.546875 13.859375 33.871094 13.308594 34.523438 12.957031 C 34.988281 12.828125 35.171875 12.996094 35.078125 13.460938 C 34.9375 13.722656 34.785156 13.980469 34.621094 14.226562 C 35.183594 14.441406 35.335938 14.824219 35.078125 15.378906 C 34.644531 16.085938 34.042969 16.277344 33.277344 15.953125 Z M 33.996094 15.617188 C 34.003906 15.554688 33.988281 15.5 33.949219 15.449219 C 33.835938 15.425781 33.722656 15.433594 33.613281 15.476562 C 33.539062 15.378906 33.445312 15.304688 33.324219 15.257812 C 33.492188 15.125 33.660156 14.988281 33.828125 14.851562 C 33.898438 14.546875 33.976562 14.242188 34.070312 13.941406 C 34.214844 13.667969 34.421875 13.460938 34.691406 13.316406 C 34.71875 13.332031 34.742188 13.347656 34.765625 13.363281 C 34.519531 13.753906 34.277344 14.144531 34.046875 14.539062 C 34.042969 14.644531 34.09375 14.714844 34.1875 14.753906 C 34.410156 14.613281 34.609375 14.628906 34.789062 14.804688 C 34.75 15.285156 34.484375 15.554688 33.996094 15.617188 Z M 33.996094 15.617188 "/>
</g>
<mask id="mask25">
  <g filter="url(#alpha)">
<rect x="0" y="0" width="50" height="50" style="fill:rgb(0%,0%,0%);fill-opacity:0.909804;stroke:none;"/>
  </g>
</mask>
<clipPath id="clip26">
  <rect width="50" height="50"/>
</clipPath>
<g id="surface81" clip-path="url(#clip26)">
<path style=" stroke:none;fill-rule:evenodd;fill:rgb(47.058824%,16.078431%,12.54902%);fill-opacity:1;" d="M 10.246094 15.1875 C 9.660156 15.265625 9.070312 15.332031 8.46875 15.378906 C 9.046875 15.257812 9.640625 15.195312 10.246094 15.1875 Z M 10.246094 15.1875 "/>
</g>
<mask id="mask26">
  <g filter="url(#alpha)">
<rect x="0" y="0" width="50" height="50" style="fill:rgb(0%,0%,0%);fill-opacity:0.627451;stroke:none;"/>
  </g>
</mask>
<clipPath id="clip27">
  <rect width="50" height="50"/>
</clipPath>
<g id="surface84" clip-path="url(#clip27)">
<path style=" stroke:none;fill-rule:evenodd;fill:rgb(94.509804%,93.333333%,90.196078%);fill-opacity:1;" d="M 23.871094 15.425781 C 23.945312 15.449219 24.007812 15.484375 24.0625 15.523438 C 23.96875 15.539062 23.90625 15.507812 23.871094 15.425781 Z M 23.871094 15.425781 "/>
</g>
<mask id="mask27">
  <g filter="url(#alpha)">
<rect x="0" y="0" width="50" height="50" style="fill:rgb(0%,0%,0%);fill-opacity:0.92549;stroke:none;"/>
  </g>
</mask>
<clipPath id="clip28">
  <rect width="50" height="50"/>
</clipPath>
<g id="surface87" clip-path="url(#clip28)">
<path style=" stroke:none;fill-rule:evenodd;fill:rgb(0.784314%,0.784314%,0.784314%);fill-opacity:1;" d="M 33.996094 15.617188 C 33.726562 15.667969 33.484375 15.777344 33.277344 15.953125 C 32.515625 16.355469 31.773438 16.789062 31.046875 17.25 C 31.085938 17.601562 30.980469 17.894531 30.734375 18.136719 C 29.488281 19.160156 28.238281 20.1875 26.992188 21.210938 C 25.84375 22.199219 24.722656 23.222656 23.632812 24.28125 C 23.261719 24.578125 22.894531 24.871094 22.527344 25.167969 C 22.457031 25.171875 22.410156 25.140625 22.386719 25.070312 C 22.445312 24.914062 22.523438 24.773438 22.625 24.640625 C 25.121094 22.246094 27.714844 19.964844 30.398438 17.800781 C 30.457031 17.757812 30.496094 17.703125 30.519531 17.632812 C 30.550781 17.40625 30.542969 17.183594 30.496094 16.960938 C 30.449219 16.824219 30.433594 16.679688 30.445312 16.53125 C 30.488281 16.398438 30.585938 16.332031 30.734375 16.339844 C 30.871094 16.410156 30.953125 16.523438 30.972656 16.675781 C 30.964844 16.773438 30.972656 16.867188 31 16.960938 C 31.683594 16.550781 32.363281 16.136719 33.039062 15.714844 C 33.25 15.671875 33.441406 15.589844 33.613281 15.476562 C 33.722656 15.433594 33.835938 15.425781 33.949219 15.449219 C 33.988281 15.5 34.003906 15.554688 33.996094 15.617188 Z M 33.996094 15.617188 "/>
</g>
<mask id="mask28">
  <g filter="url(#alpha)">
<rect x="0" y="0" width="50" height="50" style="fill:rgb(0%,0%,0%);fill-opacity:0.956863;stroke:none;"/>
  </g>
</mask>
<clipPath id="clip29">
  <rect width="50" height="50"/>
</clipPath>
<g id="surface90" clip-path="url(#clip29)">
<path style=" stroke:none;fill-rule:evenodd;fill:rgb(2.745098%,2.745098%,2.745098%);fill-opacity:1;" d="M 24.207031 15.523438 C 24.519531 15.570312 24.65625 15.746094 24.617188 16.050781 C 24.417969 16.398438 24.140625 16.65625 23.777344 16.820312 C 23.542969 16.992188 23.300781 17.152344 23.054688 17.296875 C 22.664062 17.550781 22.28125 17.816406 21.90625 18.089844 C 21.683594 18.167969 21.597656 18.09375 21.640625 17.875 C 22.167969 17.527344 22.6875 17.175781 23.199219 16.820312 C 23.421875 16.691406 23.628906 16.546875 23.824219 16.386719 C 23.855469 16.371094 23.886719 16.355469 23.921875 16.339844 C 23.953125 16.339844 23.96875 16.324219 23.96875 16.289062 C 24 16.289062 24.015625 16.273438 24.015625 16.242188 C 24.160156 16.195312 24.257812 16.097656 24.304688 15.953125 C 24.335938 15.953125 24.351562 15.9375 24.351562 15.90625 C 24.222656 15.804688 24.070312 15.738281 23.894531 15.714844 C 23.859375 15.71875 23.835938 15.734375 23.824219 15.761719 C 23.589844 15.765625 23.367188 15.796875 23.152344 15.859375 C 22.746094 15.925781 22.375 16.085938 22.050781 16.339844 C 22.03125 16.324219 22.015625 16.308594 22 16.289062 C 22.363281 15.964844 22.78125 15.742188 23.25 15.617188 C 23.570312 15.527344 23.890625 15.496094 24.207031 15.523438 Z M 24.304688 15.953125 C 24.257812 16.097656 24.160156 16.195312 24.015625 16.242188 C 24.097656 16.128906 24.191406 16.035156 24.304688 15.953125 Z M 24.304688 15.953125 "/>
</g>
<mask id="mask29">
  <g filter="url(#alpha)">
<rect x="0" y="0" width="50" height="50" style="fill:rgb(0%,0%,0%);fill-opacity:0.890196;stroke:none;"/>
  </g>
</mask>
<clipPath id="clip30">
  <rect width="50" height="50"/>
</clipPath>
<g id="surface93" clip-path="url(#clip30)">
<path style=" stroke:none;fill-rule:evenodd;fill:rgb(90.980392%,89.411765%,86.666667%);fill-opacity:1;" d="M 24.351562 15.90625 C 24.320312 15.90625 24.304688 15.921875 24.304688 15.953125 C 24.191406 16.035156 24.097656 16.128906 24.015625 16.242188 C 23.984375 16.242188 23.96875 16.257812 23.96875 16.289062 C 23.9375 16.289062 23.921875 16.308594 23.921875 16.339844 C 23.886719 16.355469 23.855469 16.371094 23.824219 16.386719 C 23.824219 16.179688 23.824219 15.972656 23.824219 15.761719 C 23.835938 15.734375 23.859375 15.71875 23.894531 15.714844 C 24.070312 15.738281 24.222656 15.804688 24.351562 15.90625 Z M 24.351562 15.90625 "/>
</g>
<mask id="mask30">
  <g filter="url(#alpha)">
<rect x="0" y="0" width="50" height="50" style="fill:rgb(0%,0%,0%);fill-opacity:0.482353;stroke:none;"/>
  </g>
</mask>
<clipPath id="clip31">
  <rect width="50" height="50"/>
</clipPath>
<g id="surface96" clip-path="url(#clip31)">
<path style=" stroke:none;fill-rule:evenodd;fill:rgb(56.862745%,19.607843%,15.294118%);fill-opacity:1;" d="M 12.019531 16.386719 C 12.1875 16.371094 12.347656 16.394531 12.5 16.457031 C 12.4375 16.480469 12.375 16.492188 12.308594 16.484375 C 12.210938 16.449219 12.117188 16.417969 12.019531 16.386719 Z M 12.019531 16.386719 "/>
</g>
<mask id="mask31">
  <g filter="url(#alpha)">
<rect x="0" y="0" width="50" height="50" style="fill:rgb(0%,0%,0%);fill-opacity:0.917647;stroke:none;"/>
  </g>
</mask>
<clipPath id="clip32">
  <rect width="50" height="50"/>
</clipPath>
<g id="surface99" clip-path="url(#clip32)">
<path style=" stroke:none;fill-rule:evenodd;fill:rgb(11.764706%,11.764706%,11.764706%);fill-opacity:1;" d="M 16.050781 35.964844 C 16.082031 35.949219 16.113281 35.933594 16.148438 35.917969 C 16.074219 36.070312 16.011719 36.230469 15.953125 36.394531 C 15.046875 36.679688 14.132812 36.949219 13.21875 37.210938 C 13.1875 37.210938 13.171875 37.226562 13.171875 37.261719 C 13.140625 37.261719 13.109375 37.261719 13.074219 37.261719 C 13.027344 37.25 12.996094 37.269531 12.980469 37.308594 C 12.964844 37.308594 12.949219 37.308594 12.933594 37.308594 C 12.871094 37.296875 12.820312 37.3125 12.789062 37.355469 C 10.949219 37.789062 9.109375 38.226562 7.269531 38.675781 C 5.847656 38.886719 4.421875 39.085938 3 39.277344 C 3.199219 39.878906 3.382812 40.484375 3.550781 41.097656 C 3.914062 42.707031 4.308594 44.304688 4.726562 45.898438 C 4.773438 45.914062 4.824219 45.929688 4.871094 45.945312 C 6.4375 45.84375 8.003906 45.742188 9.574219 45.632812 C 11.449219 45.308594 13.320312 44.957031 15.1875 44.578125 C 17.488281 43.878906 19.761719 43.097656 22 42.226562 C 25.21875 40.765625 28.160156 38.890625 30.832031 36.613281 C 32.601562 34.957031 34.394531 33.328125 36.203125 31.71875 C 36.5 31.4375 36.742188 31.117188 36.925781 30.757812 C 36.984375 30.734375 37.050781 30.726562 37.117188 30.734375 C 37.238281 30.75 37.363281 30.757812 37.5 30.757812 C 38.347656 31.878906 39.140625 33.039062 39.875 34.238281 C 40.046875 34.4375 40.207031 34.644531 40.355469 34.859375 C 40.378906 34.796875 40.386719 34.734375 40.378906 34.667969 C 40.496094 34.105469 40.566406 33.53125 40.59375 32.941406 C 40.632812 32.125 40.65625 31.308594 40.667969 30.496094 C 40.589844 27.496094 40.492188 24.503906 40.378906 21.519531 C 40.375 20.207031 40.335938 18.898438 40.257812 17.585938 C 40.226562 17.613281 40.199219 17.644531 40.1875 17.683594 C 40.15625 17.683594 40.140625 17.699219 40.140625 17.730469 C 39.601562 18.191406 39.039062 18.632812 38.460938 19.050781 C 36.324219 20.382812 34.167969 21.679688 31.980469 22.9375 C 30.320312 23.800781 28.625 24.582031 26.894531 25.289062 C 28.066406 25.53125 29.230469 25.78125 30.398438 26.03125 C 30.414062 26.03125 30.429688 26.03125 30.445312 26.03125 C 30.445312 26.0625 30.460938 26.078125 30.496094 26.078125 C 31.003906 26.121094 31.507812 26.203125 32.003906 26.320312 C 32.125 26.214844 32.226562 26.097656 32.316406 25.960938 C 32.695312 25.910156 32.800781 26.0625 32.628906 26.414062 C 32.234375 27 31.78125 27.535156 31.261719 28.023438 C 30.363281 28.777344 29.453125 29.511719 28.527344 30.230469 C 26.925781 31.285156 25.261719 32.246094 23.535156 33.109375 C 23.800781 33.199219 24.058594 33.304688 24.304688 33.421875 C 23.785156 33.316406 23.289062 33.15625 22.816406 32.941406 C 24.472656 32.160156 26.058594 31.265625 27.566406 30.253906 C 27.976562 30.019531 28.363281 29.746094 28.71875 29.4375 C 29.476562 28.785156 30.246094 28.136719 31.023438 27.496094 C 31.265625 27.269531 31.464844 27.019531 31.621094 26.75 C 31.023438 26.65625 30.421875 26.550781 29.824219 26.441406 C 28.695312 26.128906 27.558594 25.859375 26.414062 25.625 C 26.277344 25.589844 26.148438 25.535156 26.03125 25.457031 C 25.96875 25.339844 25.976562 25.226562 26.054688 25.121094 C 27 24.765625 27.933594 24.390625 28.863281 23.992188 C 29.824219 23.527344 30.78125 23.066406 31.742188 22.601562 C 33.988281 21.34375 36.214844 20.046875 38.410156 18.714844 C 39.074219 18.210938 39.738281 17.707031 40.402344 17.203125 C 40.503906 17.238281 40.605469 17.261719 40.714844 17.273438 C 40.816406 18.667969 40.886719 20.070312 40.929688 21.472656 C 40.96875 23.753906 41.039062 26.03125 41.148438 28.3125 C 41.117188 29.824219 41.078125 31.335938 41.027344 32.84375 C 40.976562 33.722656 40.824219 34.578125 40.570312 35.414062 C 40.488281 35.445312 40.40625 35.4375 40.332031 35.390625 C 40.121094 35.140625 39.921875 34.882812 39.730469 34.621094 C 39 33.460938 38.230469 32.324219 37.429688 31.214844 C 37.058594 31.773438 36.621094 32.277344 36.109375 32.726562 C 34.671875 34.019531 33.246094 35.332031 31.835938 36.660156 C 29.195312 39.011719 26.269531 40.945312 23.054688 42.464844 C 20.519531 43.492188 17.929688 44.355469 15.28125 45.058594 C 13.433594 45.394531 11.578125 45.695312 9.71875 45.96875 C 8.390625 46.0625 7.0625 46.113281 5.734375 46.113281 C 5.1875 46.15625 4.644531 46.210938 4.101562 46.28125 C 3.9375 46.292969 3.890625 46.230469 3.957031 46.089844 C 4.097656 46.027344 4.242188 45.988281 4.390625 45.96875 C 3.988281 44.335938 3.597656 42.695312 3.214844 41.050781 C 3.066406 40.496094 2.890625 39.953125 2.6875 39.417969 C 2.636719 39.269531 2.675781 39.148438 2.808594 39.058594 C 4.3125 38.832031 5.816406 38.59375 7.316406 38.339844 C 9.378906 37.8125 11.445312 37.285156 13.507812 36.757812 C 14.363281 36.515625 15.210938 36.253906 16.050781 35.964844 Z M 40.140625 17.730469 C 39.730469 18.191406 39.285156 18.617188 38.796875 19 C 36.777344 20.410156 34.679688 21.707031 32.507812 22.890625 C 31.164062 23.625 29.804688 24.335938 28.429688 25.023438 C 28.371094 25.0625 28.371094 25.101562 28.429688 25.144531 C 29.09375 25.4375 29.75 25.730469 30.398438 26.03125 C 29.230469 25.78125 28.066406 25.53125 26.894531 25.289062 C 28.625 24.582031 30.320312 23.800781 31.980469 22.9375 C 34.167969 21.679688 36.324219 20.382812 38.460938 19.050781 C 39.039062 18.632812 39.601562 18.191406 40.140625 17.730469 Z M 40.378906 21.519531 C 40.492188 24.503906 40.589844 27.496094 40.667969 30.496094 C 40.65625 31.308594 40.632812 32.125 40.59375 32.941406 C 40.566406 33.53125 40.496094 34.105469 40.378906 34.667969 C 40.378906 30.285156 40.378906 25.902344 40.378906 21.519531 Z M 40.378906 21.519531 "/>
</g>
<mask id="mask32">
  <g filter="url(#alpha)">
<rect x="0" y="0" width="50" height="50" style="fill:rgb(0%,0%,0%);fill-opacity:0.992157;stroke:none;"/>
  </g>
</mask>
<clipPath id="clip33">
  <rect width="50" height="50"/>
</clipPath>
<g id="surface102" clip-path="url(#clip33)">
<path style=" stroke:none;fill-rule:evenodd;fill:rgb(57.647059%,60.784314%,70.980392%);fill-opacity:1;" d="M 40.378906 21.519531 C 40.378906 25.902344 40.378906 30.285156 40.378906 34.667969 C 40.386719 34.734375 40.378906 34.796875 40.355469 34.859375 C 40.207031 34.644531 40.046875 34.4375 39.875 34.238281 C 39.140625 33.039062 38.347656 31.878906 37.5 30.757812 C 37.363281 30.757812 37.238281 30.75 37.117188 30.734375 C 37.039062 30.570312 36.925781 30.449219 36.78125 30.375 C 33.1875 34.082031 29.222656 37.296875 24.878906 40.019531 C 22.507812 41.417969 19.980469 42.441406 17.296875 43.089844 C 16.546875 43.28125 15.796875 43.464844 15.042969 43.640625 C 15.246094 43.050781 15.039062 42.675781 14.417969 42.515625 C 14.164062 42.480469 13.90625 42.480469 13.652344 42.515625 C 13.535156 42.527344 13.433594 42.570312 13.339844 42.632812 C 13.984375 41.472656 14.679688 40.339844 15.425781 39.226562 C 15.855469 38.863281 16.273438 38.480469 16.675781 38.074219 C 17.125 37.863281 17.445312 37.527344 17.632812 37.066406 C 18.070312 36.535156 18.445312 35.957031 18.761719 35.339844 C 19.085938 35.144531 19.429688 35.023438 19.792969 34.980469 C 21.085938 35.363281 22.378906 35.707031 23.679688 36.011719 C 23.5 36.828125 23.257812 37.628906 22.960938 38.410156 C 22.984375 38.578125 23.078125 38.660156 23.25 38.652344 C 23.242188 38.828125 23.320312 38.949219 23.488281 39.011719 C 24.308594 39.011719 25.078125 38.800781 25.792969 38.386719 C 26.125 38.214844 26.359375 37.949219 26.488281 37.597656 C 26.554688 37.242188 26.417969 37.007812 26.078125 36.898438 C 25.21875 36.808594 24.441406 37.023438 23.753906 37.546875 C 24.023438 36.402344 24.277344 35.253906 24.519531 34.09375 C 24.550781 33.933594 24.550781 33.773438 24.519531 33.613281 C 24.484375 33.503906 24.414062 33.441406 24.304688 33.421875 C 24.058594 33.304688 23.800781 33.199219 23.535156 33.109375 C 25.261719 32.246094 26.925781 31.285156 28.527344 30.230469 C 29.453125 29.511719 30.363281 28.777344 31.261719 28.023438 C 31.78125 27.535156 32.234375 27 32.628906 26.414062 C 32.800781 26.0625 32.695312 25.910156 32.316406 25.960938 C 32.226562 26.097656 32.125 26.214844 32.003906 26.320312 C 31.507812 26.203125 31.003906 26.121094 30.496094 26.078125 C 30.460938 26.078125 30.445312 26.0625 30.445312 26.03125 C 30.429688 26.03125 30.414062 26.03125 30.398438 26.03125 C 29.75 25.730469 29.09375 25.4375 28.429688 25.144531 C 28.371094 25.101562 28.371094 25.0625 28.429688 25.023438 C 29.804688 24.335938 31.164062 23.625 32.507812 22.890625 C 34.679688 21.707031 36.777344 20.410156 38.796875 19 C 39.285156 18.617188 39.730469 18.191406 40.140625 17.730469 C 40.171875 17.730469 40.1875 17.714844 40.1875 17.683594 C 40.199219 17.644531 40.226562 17.613281 40.257812 17.585938 C 40.335938 18.898438 40.375 20.207031 40.378906 21.519531 Z M 40.378906 21.519531 "/>
</g>
<mask id="mask33">
  <g filter="url(#alpha)">
<rect x="0" y="0" width="50" height="50" style="fill:rgb(0%,0%,0%);fill-opacity:0.376471;stroke:none;"/>
  </g>
</mask>
<clipPath id="clip34">
  <rect width="50" height="50"/>
</clipPath>
<g id="surface105" clip-path="url(#clip34)">
<path style=" stroke:none;fill-rule:evenodd;fill:rgb(56.862745%,51.764706%,53.333333%);fill-opacity:1;" d="M 27.277344 18.304688 C 26.957031 18.53125 26.605469 18.707031 26.222656 18.832031 C 26.558594 18.632812 26.914062 18.457031 27.277344 18.304688 Z M 27.277344 18.304688 "/>
</g>
<mask id="mask34">
  <g filter="url(#alpha)">
<rect x="0" y="0" width="50" height="50" style="fill:rgb(0%,0%,0%);fill-opacity:0.67451;stroke:none;"/>
  </g>
</mask>
<clipPath id="clip35">
  <rect width="50" height="50"/>
</clipPath>
<g id="surface108" clip-path="url(#clip35)">
<path style=" stroke:none;fill-rule:evenodd;fill:rgb(52.156863%,47.45098%,49.019608%);fill-opacity:1;" d="M 26.03125 18.929688 C 25.964844 19.027344 25.867188 19.074219 25.742188 19.074219 C 25.824219 19 25.921875 18.953125 26.03125 18.929688 Z M 26.03125 18.929688 "/>
</g>
<mask id="mask35">
  <g filter="url(#alpha)">
<rect x="0" y="0" width="50" height="50" style="fill:rgb(0%,0%,0%);fill-opacity:0.760784;stroke:none;"/>
  </g>
</mask>
<clipPath id="clip36">
  <rect width="50" height="50"/>
</clipPath>
<g id="surface111" clip-path="url(#clip36)">
<path style=" stroke:none;fill-rule:evenodd;fill:rgb(61.960784%,21.568627%,16.470588%);fill-opacity:1;" d="M 9.71875 19.074219 C 9.769531 19.078125 9.800781 19.113281 9.8125 19.167969 C 9.785156 19.335938 9.722656 19.476562 9.621094 19.601562 C 9.652344 19.425781 9.683594 19.25 9.71875 19.074219 Z M 9.71875 19.074219 "/>
</g>
<mask id="mask36">
  <g filter="url(#alpha)">
<rect x="0" y="0" width="50" height="50" style="fill:rgb(0%,0%,0%);fill-opacity:0.941176;stroke:none;"/>
  </g>
</mask>
<clipPath id="clip37">
  <rect width="50" height="50"/>
</clipPath>
<g id="surface114" clip-path="url(#clip37)">
<path style=" stroke:none;fill-rule:evenodd;fill:rgb(0.784314%,0.784314%,0.784314%);fill-opacity:1;" d="M 16.53125 26.945312 C 16.53125 26.976562 16.53125 27.007812 16.53125 27.039062 C 16.511719 27.269531 16.417969 27.460938 16.242188 27.613281 C 15.835938 27.867188 15.46875 28.160156 15.140625 28.503906 C 15.484375 29.015625 15.835938 29.519531 16.195312 30.015625 C 16.207031 30.085938 16.191406 30.148438 16.148438 30.207031 C 15.925781 30.046875 15.714844 29.871094 15.523438 29.679688 C 15.320312 29.386719 15.101562 29.097656 14.875 28.816406 C 14.804688 28.691406 14.75 28.5625 14.707031 28.429688 C 15.019531 28 15.402344 27.640625 15.859375 27.351562 C 15.96875 27.265625 16.046875 27.164062 16.097656 27.039062 C 16.207031 26.886719 16.351562 26.855469 16.53125 26.945312 Z M 16.53125 26.945312 "/>
</g>
<mask id="mask37">
  <g filter="url(#alpha)">
<rect x="0" y="0" width="50" height="50" style="fill:rgb(0%,0%,0%);fill-opacity:0.815686;stroke:none;"/>
  </g>
</mask>
<clipPath id="clip38">
  <rect width="50" height="50"/>
</clipPath>
<g id="surface117" clip-path="url(#clip38)">
<path style=" stroke:none;fill-rule:evenodd;fill:rgb(60%,54.509804%,56.078431%);fill-opacity:1;" d="M 13.316406 29.007812 C 13.902344 29.289062 14.460938 29.609375 14.996094 29.964844 C 14.378906 29.796875 13.828125 29.511719 13.339844 29.101562 C 13.316406 29.074219 13.308594 29.042969 13.316406 29.007812 Z M 13.316406 29.007812 "/>
</g>
<mask id="mask38">
  <g filter="url(#alpha)">
<rect x="0" y="0" width="50" height="50" style="fill:rgb(0%,0%,0%);fill-opacity:0.768627;stroke:none;"/>
  </g>
</mask>
<clipPath id="clip39">
  <rect width="50" height="50"/>
</clipPath>
<g id="surface120" clip-path="url(#clip39)">
<path style=" stroke:none;fill-rule:evenodd;fill:rgb(50.588235%,53.333333%,61.960784%);fill-opacity:1;" d="M 28.71875 29.4375 C 28.363281 29.746094 27.976562 30.019531 27.566406 30.253906 C 27.925781 29.945312 28.308594 29.671875 28.71875 29.4375 Z M 28.71875 29.4375 "/>
</g>
<mask id="mask39">
  <g filter="url(#alpha)">
<rect x="0" y="0" width="50" height="50" style="fill:rgb(0%,0%,0%);fill-opacity:0.992157;stroke:none;"/>
  </g>
</mask>
<clipPath id="clip40">
  <rect width="50" height="50"/>
</clipPath>
<g id="surface123" clip-path="url(#clip40)">
<path style=" stroke:none;fill-rule:evenodd;fill:rgb(5.098039%,5.098039%,5.098039%);fill-opacity:1;" d="M 22.816406 32.941406 C 23.289062 33.15625 23.785156 33.316406 24.304688 33.421875 C 24.203125 34.179688 24.058594 34.933594 23.871094 35.675781 C 23.9375 35.855469 23.871094 35.964844 23.679688 36.011719 C 22.378906 35.707031 21.085938 35.363281 19.792969 34.980469 C 19.429688 35.023438 19.085938 35.144531 18.761719 35.339844 C 18.445312 35.957031 18.070312 36.535156 17.632812 37.066406 C 17.3125 37.40625 16.992188 37.742188 16.675781 38.074219 C 16.273438 38.480469 15.855469 38.863281 15.425781 39.226562 C 15.1875 39.207031 15.140625 39.101562 15.28125 38.914062 C 15.207031 38.90625 15.144531 38.882812 15.089844 38.84375 C 15.367188 38.023438 15.652344 37.207031 15.953125 36.394531 C 16.011719 36.230469 16.074219 36.070312 16.148438 35.917969 C 16.179688 35.789062 16.210938 35.660156 16.242188 35.53125 C 16.433594 35.113281 16.601562 34.683594 16.746094 34.238281 C 16.773438 34.125 16.847656 34.074219 16.960938 34.09375 C 17.941406 33.851562 18.914062 33.605469 19.890625 33.347656 C 20.199219 33.269531 20.484375 33.152344 20.753906 32.988281 C 20.859375 32.925781 20.9375 32.835938 20.992188 32.726562 C 21.089844 32.710938 21.183594 32.695312 21.28125 32.675781 C 21.308594 32.660156 21.324219 32.636719 21.328125 32.605469 C 21.375 32.574219 21.425781 32.542969 21.472656 32.507812 C 21.914062 32.671875 22.363281 32.816406 22.816406 32.941406 Z M 22.816406 32.941406 "/>
</g>
<mask id="mask40">
  <g filter="url(#alpha)">
<rect x="0" y="0" width="50" height="50" style="fill:rgb(0%,0%,0%);fill-opacity:0.631373;stroke:none;"/>
  </g>
</mask>
<clipPath id="clip41">
  <rect width="50" height="50"/>
</clipPath>
<g id="surface126" clip-path="url(#clip41)">
<path style=" stroke:none;fill-rule:evenodd;fill:rgb(55.686275%,50.588235%,52.54902%);fill-opacity:1;" d="M 16.433594 34.667969 C 16.378906 34.960938 16.316406 35.246094 16.242188 35.53125 C 16.210938 35.660156 16.179688 35.789062 16.148438 35.917969 C 16.113281 35.933594 16.082031 35.949219 16.050781 35.964844 C 16.140625 35.515625 16.269531 35.085938 16.433594 34.667969 Z M 16.433594 34.667969 "/>
</g>
<mask id="mask41">
  <g filter="url(#alpha)">
<rect x="0" y="0" width="50" height="50" style="fill:rgb(0%,0%,0%);fill-opacity:0.992157;stroke:none;"/>
  </g>
</mask>
<clipPath id="clip42">
  <rect width="50" height="50"/>
</clipPath>
<g id="surface129" clip-path="url(#clip42)">
<path style=" stroke:none;fill-rule:evenodd;fill:rgb(57.647059%,60.784314%,70.980392%);fill-opacity:1;" d="M 15.953125 36.394531 C 15.652344 37.207031 15.367188 38.023438 15.089844 38.84375 C 15.03125 38.875 15.03125 38.917969 15.089844 38.964844 C 15 39.070312 14.929688 39.191406 14.875 39.324219 C 14.109375 40.539062 13.339844 41.753906 12.570312 42.96875 C 12.5625 43.078125 12.53125 43.171875 12.476562 43.257812 C 12.441406 43.367188 12.449219 43.472656 12.5 43.570312 C 12.863281 43.691406 13.214844 43.828125 13.554688 43.976562 C 11.660156 44.339844 9.75 44.566406 7.820312 44.648438 C 7.558594 44.632812 7.292969 44.617188 7.03125 44.601562 C 5.941406 43.050781 4.855469 41.5 3.765625 39.945312 C 5.796875 39.417969 7.828125 38.867188 9.859375 38.292969 C 10.851562 38.011719 11.828125 37.699219 12.789062 37.355469 C 12.851562 37.367188 12.898438 37.351562 12.933594 37.308594 C 12.949219 37.308594 12.964844 37.308594 12.980469 37.308594 C 13.027344 37.316406 13.058594 37.300781 13.074219 37.261719 C 13.109375 37.261719 13.140625 37.261719 13.171875 37.261719 C 13.203125 37.261719 13.21875 37.242188 13.21875 37.210938 C 14.132812 36.949219 15.046875 36.679688 15.953125 36.394531 Z M 15.953125 36.394531 "/>
</g>
<mask id="mask42">
  <g filter="url(#alpha)">
<rect x="0" y="0" width="50" height="50" style="fill:rgb(0%,0%,0%);fill-opacity:0.988235;stroke:none;"/>
  </g>
</mask>
<clipPath id="clip43">
  <rect width="50" height="50"/>
</clipPath>
<g id="surface132" clip-path="url(#clip43)">
<path style=" stroke:none;fill-rule:evenodd;fill:rgb(12.54902%,12.54902%,12.941176%);fill-opacity:1;" d="M 15.089844 38.84375 C 15.144531 38.882812 15.207031 38.90625 15.28125 38.914062 C 15.140625 39.101562 15.1875 39.207031 15.425781 39.226562 C 14.679688 40.339844 13.984375 41.472656 13.339844 42.632812 C 13.433594 42.570312 13.535156 42.527344 13.652344 42.515625 C 13.90625 42.480469 14.164062 42.480469 14.417969 42.515625 C 15.039062 42.675781 15.246094 43.050781 15.042969 43.640625 C 14.921875 43.792969 14.761719 43.878906 14.5625 43.90625 C 14.230469 43.964844 13.894531 43.988281 13.554688 43.976562 C 13.214844 43.828125 12.863281 43.691406 12.5 43.570312 C 12.449219 43.472656 12.441406 43.367188 12.476562 43.257812 C 12.53125 43.171875 12.5625 43.078125 12.570312 42.96875 C 13.339844 41.753906 14.109375 40.539062 14.875 39.324219 C 14.929688 39.191406 15 39.070312 15.089844 38.964844 C 15.03125 38.917969 15.03125 38.875 15.089844 38.84375 Z M 15.089844 38.84375 "/>
</g>
</defs>
<g id="surface1">
<use xlink:href="#surface6" mask="url(#mask0)"/>
<use xlink:href="#surface9" mask="url(#mask1)"/>
<use xlink:href="#surface12" mask="url(#mask2)"/>
<use xlink:href="#surface15" mask="url(#mask3)"/>
<use xlink:href="#surface18" mask="url(#mask4)"/>
<use xlink:href="#surface21" mask="url(#mask5)"/>
<use xlink:href="#surface24" mask="url(#mask6)"/>
<use xlink:href="#surface27" mask="url(#mask7)"/>
<use xlink:href="#surface30" mask="url(#mask8)"/>
<use xlink:href="#surface33" mask="url(#mask9)"/>
<use xlink:href="#surface36" mask="url(#mask10)"/>
<use xlink:href="#surface39" mask="url(#mask11)"/>
<use xlink:href="#surface42" mask="url(#mask12)"/>
<use xlink:href="#surface45" mask="url(#mask13)"/>
<use xlink:href="#surface48" mask="url(#mask14)"/>
<use xlink:href="#surface51" mask="url(#mask15)"/>
<use xlink:href="#surface54" mask="url(#mask16)"/>
<use xlink:href="#surface57" mask="url(#mask17)"/>
<use xlink:href="#surface60" mask="url(#mask18)"/>
<use xlink:href="#surface63" mask="url(#mask19)"/>
<use xlink:href="#surface66" mask="url(#mask20)"/>
<use xlink:href="#surface69" mask="url(#mask21)"/>
<use xlink:href="#surface72" mask="url(#mask22)"/>
<use xlink:href="#surface75" mask="url(#mask23)"/>
<use xlink:href="#surface78" mask="url(#mask24)"/>
<path style=" stroke:none;fill-rule:evenodd;fill:rgb(94.117647%,92.54902%,89.803922%);fill-opacity:1;" d="M 22.289062 13.410156 C 22.320312 13.410156 22.335938 13.425781 22.335938 13.460938 C 22.367188 13.460938 22.386719 13.476562 22.386719 13.507812 C 22.417969 13.507812 22.433594 13.523438 22.433594 13.554688 C 22.511719 13.667969 22.609375 13.761719 22.722656 13.84375 C 22.753906 13.84375 22.769531 13.859375 22.769531 13.890625 C 22.800781 13.890625 22.816406 13.90625 22.816406 13.941406 C 22.847656 13.941406 22.863281 13.957031 22.863281 13.988281 C 22.855469 14.035156 22.871094 14.066406 22.914062 14.082031 C 22.945312 14.082031 22.960938 14.097656 22.960938 14.132812 C 23.21875 14.59375 23.316406 15.089844 23.25 15.617188 C 22.78125 15.742188 22.363281 15.964844 22 16.289062 C 22.015625 16.308594 22.03125 16.324219 22.050781 16.339844 C 22.375 16.085938 22.746094 15.925781 23.152344 15.859375 C 23.214844 15.941406 23.246094 16.046875 23.25 16.171875 C 23.230469 16.386719 23.214844 16.601562 23.199219 16.820312 C 22.6875 17.175781 22.167969 17.527344 21.640625 17.875 C 21.597656 18.09375 21.683594 18.167969 21.90625 18.089844 C 22.28125 17.816406 22.664062 17.550781 23.054688 17.296875 C 22.683594 18.378906 22.214844 19.433594 21.640625 20.464844 C 21.488281 20.679688 21.304688 20.867188 21.089844 21.015625 C 20.703125 21.261719 20.300781 21.484375 19.890625 21.6875 C 19.257812 21.910156 18.664062 21.832031 18.113281 21.449219 C 17.285156 20.582031 16.976562 19.546875 17.179688 18.355469 C 17.382812 16.808594 17.910156 15.386719 18.761719 14.082031 C 18.941406 13.890625 19.132812 13.714844 19.335938 13.554688 C 19.40625 13.644531 19.496094 13.667969 19.601562 13.628906 C 19.902344 13.375 20.238281 13.183594 20.609375 13.050781 C 21.210938 12.988281 21.769531 13.109375 22.289062 13.410156 Z M 22.289062 13.410156 "/>
<path style=" stroke:none;fill-rule:evenodd;fill:rgb(49.411765%,17.254902%,13.333333%);fill-opacity:1;" d="M 24.113281 13.171875 C 24.265625 13.300781 24.28125 13.445312 24.160156 13.605469 C 24.113281 13.46875 24.097656 13.324219 24.113281 13.171875 Z M 24.113281 13.171875 "/>
<path style=" stroke:none;fill-rule:evenodd;fill:rgb(5.490196%,5.490196%,5.098039%);fill-opacity:1;" d="M 22.480469 14.226562 C 22.785156 14.1875 22.921875 14.316406 22.890625 14.609375 C 22.753906 14.6875 22.648438 14.65625 22.578125 14.515625 C 22.53125 14.554688 22.5 14.601562 22.480469 14.660156 C 22.386719 14.726562 22.320312 14.703125 22.289062 14.585938 C 22.335938 14.457031 22.398438 14.335938 22.480469 14.226562 Z M 22.480469 14.226562 "/>
<path style=" stroke:none;fill-rule:evenodd;fill:rgb(7.058824%,6.666667%,6.666667%);fill-opacity:1;" d="M 20.226562 14.417969 C 20.585938 14.386719 20.769531 14.546875 20.777344 14.898438 C 20.582031 15.050781 20.472656 15.003906 20.441406 14.753906 C 20.390625 14.707031 20.335938 14.699219 20.273438 14.730469 C 20.101562 14.9375 19.972656 15.167969 19.890625 15.425781 C 19.832031 15.472656 19.769531 15.488281 19.699219 15.476562 C 19.75 15.054688 19.925781 14.703125 20.226562 14.417969 Z M 20.226562 14.417969 "/>
<use xlink:href="#surface81" mask="url(#mask25)"/>
<use xlink:href="#surface84" mask="url(#mask26)"/>
<use xlink:href="#surface87" mask="url(#mask27)"/>
<use xlink:href="#surface90" mask="url(#mask28)"/>
<path style=" stroke:none;fill-rule:evenodd;fill:rgb(12.941176%,12.941176%,12.941176%);fill-opacity:1;" d="M 23.824219 15.761719 C 23.824219 15.972656 23.824219 16.179688 23.824219 16.386719 C 23.628906 16.546875 23.421875 16.691406 23.199219 16.820312 C 23.214844 16.601562 23.230469 16.386719 23.25 16.171875 C 23.246094 16.046875 23.214844 15.941406 23.152344 15.859375 C 23.367188 15.796875 23.589844 15.765625 23.824219 15.761719 Z M 23.824219 15.761719 "/>
<use xlink:href="#surface93" mask="url(#mask29)"/>
<use xlink:href="#surface96" mask="url(#mask30)"/>
<path style=" stroke:none;fill-rule:evenodd;fill:rgb(62.352941%,56.470588%,58.431373%);fill-opacity:1;" d="M 30.496094 16.960938 C 30.542969 17.183594 30.550781 17.40625 30.519531 17.632812 C 30.496094 17.703125 30.457031 17.757812 30.398438 17.800781 C 27.714844 19.964844 25.121094 22.246094 22.625 24.640625 C 22.949219 23.402344 23.246094 22.152344 23.511719 20.898438 C 23.542969 20.761719 23.597656 20.644531 23.679688 20.539062 C 24.238281 20.335938 24.796875 20.144531 25.359375 19.960938 C 25.953125 19.617188 26.558594 19.296875 27.183594 19 C 28.257812 18.273438 29.359375 17.59375 30.496094 16.960938 Z M 30.496094 16.960938 "/>
<use xlink:href="#surface99" mask="url(#mask31)"/>
<use xlink:href="#surface102" mask="url(#mask32)"/>
<use xlink:href="#surface105" mask="url(#mask33)"/>
<path style=" stroke:none;fill-rule:evenodd;fill:rgb(7.058824%,6.666667%,6.666667%);fill-opacity:1;" d="M 19.839844 18.785156 C 19.890625 18.777344 19.941406 18.785156 19.984375 18.808594 C 20.167969 19.140625 20.4375 19.355469 20.800781 19.457031 C 20.886719 19.453125 20.96875 19.429688 21.042969 19.386719 C 21.152344 19.242188 21.265625 19.097656 21.378906 18.953125 C 21.492188 18.917969 21.574219 18.957031 21.617188 19.074219 C 21.167969 19.84375 20.648438 19.894531 20.058594 19.21875 C 19.960938 19.085938 19.886719 18.941406 19.839844 18.785156 Z M 19.839844 18.785156 "/>
<use xlink:href="#surface108" mask="url(#mask34)"/>
<use xlink:href="#surface111" mask="url(#mask35)"/>
<path style=" stroke:none;fill-rule:evenodd;fill:rgb(62.745098%,56.862745%,58.823529%);fill-opacity:1;" d="M 20.753906 32.988281 C 20.484375 33.152344 20.199219 33.269531 19.890625 33.347656 C 18.914062 33.605469 17.941406 33.851562 16.960938 34.09375 C 17.167969 33.445312 17.261719 32.78125 17.25 32.101562 C 17.042969 30.402344 16.804688 28.714844 16.53125 27.039062 C 16.53125 27.007812 16.53125 26.976562 16.53125 26.945312 C 16.351562 25.863281 16.160156 24.78125 15.953125 23.703125 C 15.953125 23.621094 15.984375 23.558594 16.050781 23.511719 C 16.859375 23.101562 17.640625 22.652344 18.402344 22.167969 C 18.675781 22.214844 18.957031 22.238281 19.242188 22.242188 C 19.53125 22.253906 19.808594 22.214844 20.082031 22.121094 C 20.34375 21.925781 20.632812 21.78125 20.945312 21.6875 C 21.195312 21.542969 21.433594 21.382812 21.664062 21.210938 C 22.175781 21.035156 22.6875 20.867188 23.199219 20.707031 C 23.214844 20.722656 23.234375 20.738281 23.25 20.753906 C 22.390625 24.066406 21.582031 27.390625 20.824219 30.734375 C 20.636719 31.191406 20.460938 31.65625 20.296875 32.125 C 20.339844 32.425781 20.371094 32.730469 20.394531 33.039062 C 20.476562 33 20.515625 32.933594 20.511719 32.84375 C 20.636719 32.832031 20.714844 32.882812 20.753906 32.988281 Z M 20.753906 32.988281 "/>
<path style=" stroke:none;fill-rule:evenodd;fill:rgb(61.960784%,56.078431%,58.039216%);fill-opacity:1;" d="M 16.097656 27.039062 C 16.046875 27.164062 15.96875 27.265625 15.859375 27.351562 C 15.402344 27.640625 15.019531 28 14.707031 28.429688 C 14.75 28.5625 14.804688 28.691406 14.875 28.816406 C 15.101562 29.097656 15.320312 29.386719 15.523438 29.679688 C 14.910156 29.363281 14.300781 29.035156 13.699219 28.695312 C 14.40625 27.214844 15.039062 25.703125 15.59375 24.160156 C 15.808594 25.113281 15.976562 26.070312 16.097656 27.039062 Z M 16.097656 27.039062 "/>
<use xlink:href="#surface114" mask="url(#mask36)"/>
<use xlink:href="#surface117" mask="url(#mask37)"/>
<use xlink:href="#surface120" mask="url(#mask38)"/>
<use xlink:href="#surface123" mask="url(#mask39)"/>
<path style=" stroke:none;fill-rule:evenodd;fill:rgb(98.431373%,98.431373%,98.431373%);fill-opacity:1;" d="M 21.425781 32.652344 C 22.347656 32.949219 23.277344 33.238281 24.207031 33.515625 C 24.046875 34.265625 23.902344 35.015625 23.777344 35.773438 C 22.199219 35.347656 20.632812 34.890625 19.074219 34.40625 C 18.972656 34.367188 18.878906 34.375 18.785156 34.429688 C 18.171875 35.5625 17.492188 36.648438 16.746094 37.691406 C 16.332031 38.179688 15.828125 38.546875 15.234375 38.796875 C 15.738281 37.273438 16.28125 35.753906 16.867188 34.238281 C 18.078125 33.894531 19.292969 33.566406 20.511719 33.253906 C 20.835938 33.074219 21.140625 32.875 21.425781 32.652344 Z M 21.425781 32.652344 "/>
<path style=" stroke:none;fill-rule:evenodd;fill:rgb(12.54902%,12.54902%,12.54902%);fill-opacity:1;" d="M 24.304688 33.421875 C 24.414062 33.441406 24.484375 33.503906 24.519531 33.613281 C 24.550781 33.773438 24.550781 33.933594 24.519531 34.09375 C 24.277344 35.253906 24.023438 36.402344 23.753906 37.546875 C 24.441406 37.023438 25.21875 36.808594 26.078125 36.898438 C 26.417969 37.007812 26.554688 37.242188 26.488281 37.597656 C 26.359375 37.949219 26.125 38.214844 25.792969 38.386719 C 25.078125 38.800781 24.308594 39.011719 23.488281 39.011719 C 23.320312 38.949219 23.242188 38.828125 23.25 38.652344 C 23.078125 38.660156 22.984375 38.578125 22.960938 38.410156 C 23.257812 37.628906 23.5 36.828125 23.679688 36.011719 C 23.871094 35.964844 23.9375 35.855469 23.871094 35.675781 C 24.058594 34.933594 24.203125 34.179688 24.304688 33.421875 Z M 24.304688 33.421875 "/>
<use xlink:href="#surface126" mask="url(#mask40)"/>
<use xlink:href="#surface129" mask="url(#mask41)"/>
<path style=" stroke:none;fill-rule:evenodd;fill:rgb(97.647059%,97.647059%,97.647059%);fill-opacity:1;" d="M 25.40625 37.308594 C 25.648438 37.300781 25.886719 37.308594 26.128906 37.332031 C 26.320312 37.402344 26.363281 37.523438 26.246094 37.691406 C 25.929688 38.015625 25.554688 38.246094 25.121094 38.386719 C 24.652344 38.5625 24.171875 38.640625 23.679688 38.628906 C 23.507812 38.5625 23.453125 38.445312 23.511719 38.269531 C 23.667969 38.078125 23.851562 37.925781 24.0625 37.8125 C 24.5 37.601562 24.949219 37.433594 25.40625 37.308594 Z M 25.40625 37.308594 "/>
<path style=" stroke:none;fill-rule:evenodd;fill:rgb(59.215686%,54.117647%,56.470588%);fill-opacity:1;" d="M 17.632812 37.066406 C 17.445312 37.527344 17.125 37.863281 16.675781 38.074219 C 16.992188 37.742188 17.3125 37.40625 17.632812 37.066406 Z M 17.632812 37.066406 "/>
<use xlink:href="#surface132" mask="url(#mask42)"/>
<path style=" stroke:none;fill-rule:evenodd;fill:rgb(97.647059%,97.647059%,97.647059%);fill-opacity:1;" d="M 13.699219 42.777344 C 13.992188 42.761719 14.28125 42.785156 14.5625 42.851562 C 14.929688 43.039062 14.945312 43.261719 14.609375 43.523438 C 14.183594 43.746094 13.734375 43.792969 13.269531 43.667969 C 13.046875 43.566406 12.972656 43.398438 13.050781 43.164062 C 13.238281 42.976562 13.453125 42.847656 13.699219 42.777344 Z M 13.699219 42.777344 "/>
</g>
</svg>
