<?xml version="1.0" encoding="UTF-8"?>
<svg xmlns="http://www.w3.org/2000/svg" xmlns:xlink="http://www.w3.org/1999/xlink" width="50pt" height="50pt" viewBox="0 0 50 50" version="1.1">
<defs>
<filter id="alpha" filterUnits="objectBoundingBox" x="0%" y="0%" width="100%" height="100%">
  <feColorMatrix type="matrix" in="SourceGraphic" values="0 0 0 0 1 0 0 0 0 1 0 0 0 0 1 0 0 0 1 0"/>
</filter>
<mask id="mask0">
  <g filter="url(#alpha)">
<rect x="0" y="0" width="50" height="50" style="fill:rgb(0%,0%,0%);fill-opacity:0.988235;stroke:none;"/>
  </g>
</mask>
<clipPath id="clip1">
  <rect width="50" height="50"/>
</clipPath>
<g id="surface6" clip-path="url(#clip1)">
<path style=" stroke:none;fill-rule:evenodd;fill:rgb(66.666667%,23.137255%,18.039216%);fill-opacity:1;" d="M -0.0117188 33.882812 C -0.0117188 33.777344 -0.0117188 33.671875 -0.0117188 33.570312 C 0.191406 33.273438 0.417969 32.992188 0.671875 32.730469 C 2.308594 30.691406 3.933594 28.640625 5.542969 26.585938 C 6.0625 25.945312 6.59375 25.3125 7.128906 24.6875 C 7.246094 24.539062 7.378906 24.40625 7.523438 24.292969 C 7.667969 24.242188 7.8125 24.242188 7.957031 24.292969 C 8.082031 24.414062 8.203125 24.539062 8.328125 24.664062 C 8.464844 24.625 8.597656 24.636719 8.726562 24.699219 C 10.277344 26.496094 11.898438 28.226562 13.597656 29.898438 C 13.761719 29.800781 13.914062 29.695312 14.054688 29.574219 C 14.582031 29.054688 15.082031 28.515625 15.554688 27.953125 C 16.011719 27.382812 16.464844 26.816406 16.921875 26.25 C 19.414062 23.355469 21.851562 20.425781 24.230469 17.449219 C 24.40625 17.394531 24.574219 17.410156 24.734375 17.5 C 24.839844 17.601562 24.945312 17.707031 25.046875 17.8125 C 25.152344 17.820312 25.257812 17.828125 25.359375 17.835938 C 25.390625 17.851562 25.425781 17.867188 25.457031 17.882812 C 26.742188 19.164062 28.023438 20.449219 29.296875 21.746094 C 29.9375 22.363281 30.585938 22.972656 31.242188 23.570312 C 31.292969 23.613281 31.351562 23.648438 31.410156 23.679688 C 32.488281 22.585938 33.578125 21.496094 34.671875 20.402344 C 35.808594 19.304688 36.953125 18.222656 38.105469 17.152344 C 37.136719 15.890625 36.171875 14.625 35.214844 13.359375 C 35.152344 13.058594 35.261719 12.84375 35.539062 12.722656 C 39.554688 12.363281 43.550781 11.847656 47.527344 11.171875 C 47.796875 11.183594 47.960938 11.320312 48.019531 11.582031 C 48.035156 11.589844 48.050781 11.597656 48.066406 11.605469 C 48.363281 11.515625 48.582031 11.601562 48.726562 11.871094 C 48.730469 11.925781 48.734375 11.980469 48.738281 12.039062 C 48.046875 15.566406 47.363281 19.09375 46.6875 22.625 C 46.5 23.519531 46.308594 24.417969 46.113281 25.3125 C 46.058594 25.789062 45.804688 25.953125 45.355469 25.804688 C 45.246094 25.6875 45.144531 25.5625 45.054688 25.433594 C 44.925781 25.492188 44.792969 25.496094 44.660156 25.445312 C 44.382812 25.132812 44.121094 24.808594 43.878906 24.472656 C 43.398438 23.792969 42.929688 23.105469 42.476562 22.40625 C 38.972656 25.5625 35.597656 28.855469 32.34375 32.285156 C 32.1875 32.382812 32.027344 32.390625 31.863281 32.308594 C 31.722656 32.195312 31.578125 32.085938 31.433594 31.972656 C 31.308594 31.960938 31.1875 31.929688 31.074219 31.878906 C 30.078125 31.066406 29.117188 30.210938 28.191406 29.308594 C 27.148438 28.269531 26.105469 27.222656 25.070312 26.175781 C 24.363281 27.027344 23.628906 27.859375 22.875 28.671875 C 21.226562 30.394531 19.585938 32.121094 17.953125 33.855469 C 16.957031 34.941406 16.003906 36.0625 15.097656 37.21875 C 14.929688 37.417969 14.726562 37.460938 14.484375 37.351562 C 14.359375 37.246094 14.238281 37.132812 14.125 37.015625 C 13.972656 37.015625 13.828125 36.984375 13.695312 36.917969 C 12.507812 35.789062 11.316406 34.667969 10.117188 33.558594 C 9.496094 32.945312 8.882812 32.324219 8.28125 31.695312 C 6.789062 33.398438 5.296875 35.097656 3.804688 36.796875 C 3.605469 36.910156 3.40625 36.910156 3.203125 36.796875 C 3.101562 36.695312 2.996094 36.589844 2.890625 36.484375 C 2.738281 36.507812 2.59375 36.476562 2.460938 36.390625 C 1.621094 35.5625 0.796875 34.726562 -0.0117188 33.882812 Z M -0.0117188 33.882812 "/>
</g>
</defs>
<g id="surface1">
<use xlink:href="#surface6" mask="url(#mask0)"/>
<path style=" stroke:none;fill-rule:evenodd;fill:rgb(99.607843%,99.607843%,99.607843%);fill-opacity:1;" d="M 46.84375 12.183594 C 46.894531 12.175781 46.941406 12.183594 46.988281 12.207031 C 46.371094 15.207031 45.78125 18.214844 45.222656 21.230469 C 45.039062 22.144531 44.847656 23.058594 44.648438 23.96875 C 43.917969 22.917969 43.203125 21.851562 42.511719 20.773438 C 42.316406 20.570312 42.097656 20.535156 41.851562 20.667969 C 39.71875 22.574219 37.628906 24.535156 35.585938 26.546875 C 34.289062 27.835938 33 29.132812 31.722656 30.4375 C 31.617188 30.527344 31.503906 30.609375 31.386719 30.675781 C 31.175781 30.753906 30.988281 30.714844 30.832031 30.558594 C 30.222656 29.972656 29.609375 29.394531 28.984375 28.828125 C 27.570312 27.394531 26.152344 25.964844 24.734375 24.53125 C 24.539062 24.417969 24.347656 24.421875 24.160156 24.542969 C 23.375 25.511719 22.5625 26.453125 21.722656 27.375 C 19.9375 29.234375 18.164062 31.097656 16.394531 32.96875 C 15.785156 33.644531 15.191406 34.332031 14.617188 35.035156 C 14.484375 35.164062 14.355469 35.296875 14.222656 35.429688 C 13.957031 35.636719 13.691406 35.636719 13.429688 35.429688 C 12.382812 34.390625 11.316406 33.363281 10.238281 32.355469 C 9.476562 31.601562 8.738281 30.828125 8.027344 30.027344 C 7.851562 29.898438 7.664062 29.890625 7.476562 30.003906 C 5.894531 31.789062 4.320312 33.578125 2.75 35.371094 C 2.1875 34.820312 1.632812 34.269531 1.082031 33.714844 C 1.0625 33.6875 1.0625 33.664062 1.082031 33.640625 C 1.425781 33.234375 1.769531 32.824219 2.113281 32.417969 C 3.910156 30.140625 5.703125 27.863281 7.5 25.589844 C 7.710938 25.480469 7.882812 25.523438 8.015625 25.71875 C 8.71875 26.511719 9.433594 27.296875 10.152344 28.074219 C 11.183594 29.117188 12.210938 30.160156 13.238281 31.203125 C 13.417969 31.328125 13.613281 31.34375 13.8125 31.253906 C 17.367188 27.1875 20.847656 23.066406 24.257812 18.890625 C 24.480469 18.75 24.703125 18.75 24.929688 18.890625 C 25.179688 19.0625 25.398438 19.265625 25.589844 19.503906 C 25.929688 19.949219 26.296875 20.375 26.691406 20.773438 C 27.894531 22.007812 29.136719 23.1875 30.425781 24.316406 C 30.664062 24.507812 30.90625 24.699219 31.144531 24.890625 C 31.363281 24.96875 31.550781 24.925781 31.710938 24.761719 C 32.796875 23.574219 33.921875 22.417969 35.082031 21.292969 C 36.4375 19.996094 37.796875 18.707031 39.148438 17.414062 C 39.199219 17.332031 39.214844 17.246094 39.199219 17.152344 C 39.164062 17.050781 39.117188 16.953125 39.054688 16.863281 C 38.796875 16.566406 38.550781 16.261719 38.308594 15.949219 C 37.710938 15.144531 37.109375 14.347656 36.496094 13.550781 C 39.582031 13.238281 42.652344 12.851562 45.714844 12.386719 C 46.097656 12.332031 46.472656 12.261719 46.84375 12.183594 Z M 46.84375 12.183594 "/>
</g>
</svg>
