<?xml version="1.0" encoding="UTF-8"?>
<svg xmlns="http://www.w3.org/2000/svg" xmlns:xlink="http://www.w3.org/1999/xlink" width="50pt" height="50pt" viewBox="0 0 50 50" version="1.1">
<defs>
<filter id="alpha" filterUnits="objectBoundingBox" x="0%" y="0%" width="100%" height="100%">
  <feColorMatrix type="matrix" in="SourceGraphic" values="0 0 0 0 1 0 0 0 0 1 0 0 0 0 1 0 0 0 1 0"/>
</filter>
<mask id="mask0">
  <g filter="url(#alpha)">
<rect x="0" y="0" width="50" height="50" style="fill:rgb(0%,0%,0%);fill-opacity:0.988235;stroke:none;"/>
  </g>
</mask>
<clipPath id="clip1">
  <rect width="50" height="50"/>
</clipPath>
<g id="surface6" clip-path="url(#clip1)">
<path style=" stroke:none;fill-rule:evenodd;fill:rgb(0%,0%,0%);fill-opacity:1;" d="M 34.648438 9.6875 C 37.851562 9.742188 41.050781 9.769531 44.25 9.769531 C 45 9.800781 45.378906 10.191406 45.378906 10.945312 C 45.265625 11.945312 45.296875 12.941406 45.464844 13.933594 C 45.683594 15.308594 45.894531 16.683594 46.085938 18.0625 C 46.363281 19.488281 46.652344 20.914062 46.953125 22.335938 C 47.25 23.953125 47.507812 25.578125 47.71875 27.207031 C 47.945312 29.261719 47.976562 31.316406 47.816406 33.378906 C 47.753906 34.023438 47.648438 34.664062 47.503906 35.296875 C 47.09375 36.691406 46.160156 37.4375 44.707031 37.542969 C 44.417969 37.566406 44.132812 37.578125 43.84375 37.578125 C 42.195312 37.550781 40.546875 37.496094 38.898438 37.421875 C 36.308594 37.242188 33.714844 37.070312 31.121094 36.917969 C 30.242188 36.828125 29.363281 36.757812 28.480469 36.703125 C 27.410156 36.695312 26.335938 36.6875 25.265625 36.679688 C 23.25 36.570312 21.234375 36.53125 19.214844 36.558594 C 18.570312 36.640625 17.921875 36.703125 17.269531 36.75 C 15.175781 36.726562 13.078125 36.71875 10.980469 36.726562 C 10.070312 36.78125 9.15625 36.824219 8.246094 36.859375 C 7.714844 36.839844 7.1875 36.8125 6.660156 36.773438 C 6.164062 36.753906 5.691406 36.636719 5.246094 36.414062 C 4.902344 36.191406 4.667969 35.882812 4.535156 35.488281 C 4.453125 35.238281 4.398438 34.984375 4.367188 34.722656 C 4.324219 34.167969 4.285156 33.617188 4.25 33.066406 C 4.136719 32.257812 4.015625 31.449219 3.886719 30.640625 C 3.6875 27.941406 3.382812 25.253906 2.976562 22.574219 C 2.8125 21.5625 2.628906 20.554688 2.425781 19.550781 C 2.339844 18.984375 2.28125 18.417969 2.257812 17.847656 C 2.246094 16.542969 2.199219 15.238281 2.113281 13.933594 C 1.871094 13.859375 1.71875 13.699219 1.65625 13.453125 C 1.636719 13.261719 1.644531 13.070312 1.679688 12.878906 C 1.757812 12.695312 1.890625 12.574219 2.078125 12.507812 C 2.789062 12.363281 3.507812 12.273438 4.238281 12.242188 C 4.667969 12.171875 5.101562 12.097656 5.53125 12.027344 C 6.394531 12.023438 7.253906 11.945312 8.101562 11.785156 C 9.753906 11.679688 11.410156 11.621094 13.070312 11.617188 C 13.613281 11.59375 14.160156 11.5625 14.703125 11.523438 C 17.054688 11.296875 19.410156 11.054688 21.757812 10.800781 C 24.390625 10.503906 27.023438 10.21875 29.65625 9.9375 C 31.320312 9.785156 32.984375 9.703125 34.648438 9.6875 Z M 31.914062 11.078125 C 31.292969 11.132812 30.667969 11.171875 30.039062 11.199219 C 30.660156 11.136719 31.285156 11.097656 31.914062 11.078125 Z M 2.796875 13.742188 C 3.996094 21.066406 5.207031 28.386719 6.421875 35.707031 C 6.140625 35.710938 5.878906 35.652344 5.628906 35.527344 C 5.441406 35.335938 5.332031 35.109375 5.304688 34.839844 C 5.226562 34.21875 5.167969 33.59375 5.136719 32.96875 C 4.996094 32.066406 4.851562 31.160156 4.703125 30.257812 C 4.421875 27.082031 3.980469 23.929688 3.382812 20.800781 C 3.113281 19.757812 2.914062 18.699219 2.785156 17.628906 C 2.691406 16.40625 2.589844 15.183594 2.484375 13.957031 C 2.589844 13.894531 2.695312 13.820312 2.796875 13.742188 Z M 44.492188 14.824219 C 44.699219 16.097656 44.894531 17.378906 45.078125 18.664062 C 45.414062 20.238281 45.742188 21.8125 46.0625 23.390625 C 46.484375 25.476562 46.746094 27.582031 46.855469 29.703125 C 46.898438 31.019531 46.859375 32.332031 46.734375 33.640625 C 46.703125 34.316406 46.535156 34.957031 46.230469 35.5625 C 45.964844 35.984375 45.585938 36.246094 45.089844 36.34375 C 44.871094 36.386719 44.644531 36.40625 44.417969 36.402344 C 44.433594 29.207031 44.460938 22.015625 44.492188 14.824219 Z M 44.492188 14.824219 "/>
</g>
<mask id="mask1">
  <g filter="url(#alpha)">
<rect x="0" y="0" width="50" height="50" style="fill:rgb(0%,0%,0%);fill-opacity:0.996078;stroke:none;"/>
  </g>
</mask>
<clipPath id="clip2">
  <rect width="50" height="50"/>
</clipPath>
<g id="surface9" clip-path="url(#clip2)">
<path style=" stroke:none;fill-rule:evenodd;fill:rgb(72.941176%,71.372549%,69.411765%);fill-opacity:1;" d="M 44.492188 14.824219 C 44.460938 22.015625 44.433594 29.207031 44.417969 36.402344 C 44.320312 36.421875 44.214844 36.433594 44.105469 36.4375 C 42.882812 36.460938 41.65625 36.445312 40.433594 36.390625 C 37.234375 36.183594 34.03125 35.976562 30.832031 35.765625 C 30.25 35.710938 29.664062 35.65625 29.082031 35.597656 C 27.976562 35.570312 26.871094 35.550781 25.769531 35.550781 C 23.753906 35.429688 21.738281 35.378906 19.71875 35.40625 C 18.644531 35.476562 17.574219 35.554688 16.503906 35.644531 C 14.855469 35.640625 13.207031 35.632812 11.558594 35.621094 C 10.445312 35.699219 9.335938 35.769531 8.222656 35.824219 C 7.617188 35.816406 7.015625 35.777344 6.421875 35.707031 C 5.207031 28.386719 3.996094 21.066406 2.796875 13.742188 C 2.800781 13.726562 2.808594 13.714844 2.820312 13.707031 C 3.332031 13.648438 3.84375 13.601562 4.355469 13.5625 C 4.875 13.46875 5.394531 13.378906 5.917969 13.296875 C 6.285156 13.289062 6.652344 13.28125 7.019531 13.273438 C 7.4375 13.203125 7.851562 13.140625 8.269531 13.082031 C 10.011719 12.996094 11.757812 12.929688 13.503906 12.890625 C 15.28125 12.765625 17.058594 12.605469 18.832031 12.410156 C 21.617188 12.097656 24.402344 11.777344 27.183594 11.449219 C 27.898438 11.375 28.613281 11.304688 29.320312 11.246094 C 29.445312 11.253906 29.566406 11.246094 29.679688 11.222656 C 29.804688 11.230469 29.925781 11.222656 30.039062 11.199219 C 30.667969 11.171875 31.292969 11.132812 31.914062 11.078125 C 32.039062 11.085938 32.15625 11.078125 32.273438 11.054688 C 32.40625 11.0625 32.535156 11.054688 32.65625 11.03125 C 33.578125 10.976562 34.496094 10.949219 35.417969 10.945312 C 37.65625 10.917969 39.898438 10.902344 42.140625 10.898438 C 42.84375 10.894531 43.546875 10.875 44.25 10.851562 C 44.28125 10.894531 44.296875 10.945312 44.300781 11.003906 C 44.230469 11.539062 44.210938 12.074219 44.238281 12.613281 C 44.316406 13.351562 44.398438 14.085938 44.492188 14.824219 Z M 44.492188 14.824219 "/>
</g>
</defs>
<g id="surface1">
<use xlink:href="#surface6" mask="url(#mask0)"/>
<use xlink:href="#surface9" mask="url(#mask1)"/>
<path style=" stroke:none;fill-rule:evenodd;fill:rgb(0%,0%,0%);fill-opacity:1;" d="M 39.785156 13.167969 C 40.351562 13.160156 40.910156 13.210938 41.464844 13.320312 C 42.082031 13.433594 42.46875 13.789062 42.628906 14.390625 C 42.691406 14.703125 42.757812 15.015625 42.824219 15.328125 C 42.863281 15.394531 42.894531 15.46875 42.917969 15.542969 C 42.925781 15.703125 42.933594 15.863281 42.941406 16.023438 C 43.015625 16.207031 43.046875 16.398438 43.039062 16.597656 C 43.214844 17.488281 43.34375 18.382812 43.421875 19.285156 C 43.453125 21.4375 43.46875 23.589844 43.472656 25.742188 C 43.527344 26.648438 43.59375 27.554688 43.664062 28.457031 C 43.753906 29.097656 43.851562 29.738281 43.949219 30.375 C 43.929688 31.015625 43.976562 31.648438 44.09375 32.273438 C 44.125 32.527344 44.132812 32.785156 44.117188 33.042969 C 44.03125 33.507812 43.753906 33.789062 43.289062 33.894531 C 42.648438 34.027344 42 34.085938 41.347656 34.074219 C 40.617188 34.050781 39.890625 34.046875 39.164062 34.0625 C 38.035156 34.160156 36.917969 34.304688 35.800781 34.492188 C 35.617188 34.5 35.433594 34.515625 35.25 34.542969 C 34.082031 34.578125 32.914062 34.585938 31.746094 34.566406 C 29.625 34.476562 27.503906 34.4375 25.382812 34.445312 C 24.007812 34.507812 22.632812 34.5625 21.253906 34.613281 C 19.527344 34.613281 17.796875 34.605469 16.070312 34.589844 C 15.078125 34.613281 14.09375 34.722656 13.117188 34.925781 C 12.703125 35 12.289062 35.023438 11.871094 34.996094 C 11.492188 34.929688 11.125 34.828125 10.765625 34.6875 C 10.660156 34.667969 10.558594 34.652344 10.453125 34.636719 C 9.878906 34.644531 9.300781 34.644531 8.726562 34.636719 C 8.058594 34.570312 7.558594 34.246094 7.226562 33.664062 C 6.636719 32.710938 6.214844 31.6875 5.953125 30.59375 C 5.753906 29.769531 5.601562 28.9375 5.496094 28.097656 C 5.300781 27.058594 5.074219 26.027344 4.824219 25 C 4.632812 24.152344 4.496094 23.296875 4.417969 22.429688 C 4.402344 21.839844 4.375 21.246094 4.34375 20.65625 C 4.277344 20.183594 4.207031 19.710938 4.128906 19.238281 C 4.121094 18.855469 4.113281 18.472656 4.105469 18.085938 C 4.042969 17.742188 3.980469 17.398438 3.914062 17.054688 C 3.78125 16.410156 3.84375 15.785156 4.105469 15.183594 C 4.148438 15.128906 4.203125 15.085938 4.261719 15.050781 C 4.417969 15.011719 4.578125 15.003906 4.742188 15.027344 C 4.824219 15.070312 4.902344 15.125 4.96875 15.183594 C 5.414062 15.128906 5.859375 15.058594 6.300781 14.976562 C 9.796875 15.019531 13.277344 14.804688 16.742188 14.332031 C 17.03125 14.304688 17.320312 14.277344 17.605469 14.257812 C 19.023438 14.253906 20.4375 14.253906 21.855469 14.257812 C 22.664062 14.210938 23.472656 14.152344 24.28125 14.089844 C 24.808594 14.066406 25.335938 14.046875 25.863281 14.042969 C 26.039062 13.898438 26.214844 13.898438 26.390625 14.042969 C 27.996094 14.023438 29.59375 13.945312 31.191406 13.800781 C 32.964844 13.59375 34.742188 13.40625 36.523438 13.25 C 37.613281 13.203125 38.703125 13.175781 39.785156 13.167969 Z M 39.785156 13.167969 "/>
<path style=" stroke:none;fill-rule:evenodd;fill:rgb(65.490196%,63.921569%,62.352941%);fill-opacity:1;" d="M 39.714844 14.054688 C 39.898438 14.003906 39.917969 14.035156 39.773438 14.148438 C 39.757812 14.113281 39.738281 14.082031 39.714844 14.054688 Z M 39.714844 14.054688 "/>
<path style=" stroke:none;fill-rule:evenodd;fill:rgb(49.803922%,48.627451%,47.058824%);fill-opacity:1;" d="M 36.402344 14.054688 C 36.488281 14.054688 36.492188 14.078125 36.414062 14.125 C 36.402344 14.101562 36.398438 14.078125 36.402344 14.054688 Z M 36.402344 14.054688 "/>
<path style=" stroke:none;fill-rule:evenodd;fill:rgb(64.705882%,63.529412%,61.568627%);fill-opacity:1;" d="M 34 14.269531 C 34.058594 14.265625 34.113281 14.269531 34.167969 14.28125 C 34.101562 14.34375 34.039062 14.410156 33.988281 14.484375 C 33.992188 14.414062 33.996094 14.34375 34 14.269531 Z M 34 14.269531 "/>
<path style=" stroke:none;fill-rule:evenodd;fill:rgb(61.960784%,60.392157%,58.823529%);fill-opacity:1;" d="M 41.515625 14.269531 C 41.523438 14.246094 41.539062 14.242188 41.5625 14.257812 C 41.648438 14.335938 41.703125 14.425781 41.730469 14.535156 C 41.703125 14.539062 41.679688 14.53125 41.660156 14.511719 C 41.632812 14.414062 41.585938 14.332031 41.515625 14.269531 Z M 41.515625 14.269531 "/>
<path style=" stroke:none;fill-rule:evenodd;fill:rgb(67.45098%,66.27451%,64.313725%);fill-opacity:1;" d="M 31.960938 14.484375 C 32.035156 14.480469 32.105469 14.488281 32.175781 14.5 C 32.089844 14.613281 32.007812 14.726562 31.925781 14.847656 C 31.867188 14.710938 31.777344 14.613281 31.648438 14.546875 C 31.753906 14.519531 31.859375 14.5 31.960938 14.484375 Z M 31.960938 14.484375 "/>
<path style=" stroke:none;fill-rule:evenodd;fill:rgb(69.411765%,67.843137%,65.882353%);fill-opacity:1;" d="M 30.570312 14.605469 C 30.65625 14.601562 30.746094 14.605469 30.832031 14.617188 C 30.71875 14.714844 30.605469 14.8125 30.496094 14.917969 C 30.484375 14.820312 30.453125 14.726562 30.402344 14.640625 C 30.460938 14.636719 30.519531 14.625 30.570312 14.605469 Z M 30.570312 14.605469 "/>
<path style=" stroke:none;fill-rule:evenodd;fill:rgb(61.960784%,60.784314%,59.215686%);fill-opacity:1;" d="M 33.042969 14.679688 C 33.058594 14.675781 33.074219 14.679688 33.089844 14.691406 C 33.058594 14.71875 33.035156 14.75 33.015625 14.785156 C 32.894531 14.839844 32.78125 14.902344 32.679688 14.976562 C 32.785156 14.855469 32.90625 14.753906 33.042969 14.679688 Z M 33.042969 14.679688 "/>
<path style=" stroke:none;fill-rule:evenodd;fill:rgb(60.784314%,59.607843%,58.039216%);fill-opacity:1;" d="M 24.808594 14.796875 C 24.898438 14.769531 24.996094 14.765625 25.097656 14.785156 C 25.066406 14.824219 25.035156 14.863281 25 14.894531 C 24.941406 14.847656 24.878906 14.816406 24.808594 14.796875 Z M 24.808594 14.796875 "/>
<path style=" stroke:none;fill-rule:evenodd;fill:rgb(23.529412%,22.745098%,22.352941%);fill-opacity:1;" d="M 18.109375 14.894531 C 18.226562 14.867188 18.347656 14.863281 18.472656 14.882812 C 18.445312 14.894531 18.421875 14.90625 18.398438 14.917969 C 18.308594 14.894531 18.210938 14.886719 18.109375 14.894531 Z M 18.109375 14.894531 "/>
<path style=" stroke:none;fill-rule:evenodd;fill:rgb(67.058824%,65.882353%,63.921569%);fill-opacity:1;" d="M 23.175781 14.894531 C 23.234375 14.867188 23.300781 14.863281 23.367188 14.882812 C 23.335938 14.945312 23.296875 15.003906 23.257812 15.0625 C 23.242188 15 23.214844 14.941406 23.175781 14.894531 Z M 23.175781 14.894531 "/>
<path style=" stroke:none;fill-rule:evenodd;fill:rgb(67.843137%,66.666667%,64.705882%);fill-opacity:1;" d="M 18.109375 14.894531 C 18.210938 14.886719 18.308594 14.894531 18.398438 14.917969 C 18.3125 14.953125 18.230469 15 18.160156 15.0625 C 18.132812 15.007812 18.117188 14.953125 18.109375 14.894531 Z M 18.109375 14.894531 "/>
<path style=" stroke:none;fill-rule:evenodd;fill:rgb(71.764706%,70.196078%,68.235294%);fill-opacity:1;" d="M 20.390625 14.917969 C 20.910156 14.933594 21.429688 14.949219 21.953125 14.964844 C 21.882812 15.097656 21.792969 15.21875 21.6875 15.328125 C 21.535156 15.246094 21.375 15.214844 21.207031 15.242188 C 21.0625 15.289062 20.925781 15.351562 20.800781 15.433594 C 20.71875 15.4375 20.640625 15.457031 20.570312 15.496094 C 20.367188 15.355469 20.136719 15.300781 19.886719 15.339844 C 19.59375 15.414062 19.339844 15.5625 19.132812 15.78125 C 19.136719 15.695312 19.152344 15.605469 19.179688 15.519531 C 19.21875 15.320312 19.1875 15.136719 19.082031 14.964844 C 19.0625 14.9375 19.035156 14.917969 19 14.90625 C 19.464844 14.902344 19.925781 14.90625 20.390625 14.917969 Z M 20.390625 14.917969 "/>
<path style=" stroke:none;fill-rule:evenodd;fill:rgb(27.058824%,26.27451%,25.882353%);fill-opacity:1;" d="M 20.390625 14.917969 C 20.917969 14.910156 21.449219 14.917969 21.976562 14.941406 C 21.972656 14.957031 21.964844 14.964844 21.953125 14.964844 C 21.429688 14.949219 20.910156 14.933594 20.390625 14.917969 Z M 20.390625 14.917969 "/>
<path style=" stroke:none;fill-rule:evenodd;fill:rgb(67.843137%,66.27451%,64.705882%);fill-opacity:1;" d="M 22.429688 14.917969 C 22.464844 14.914062 22.496094 14.917969 22.527344 14.929688 C 22.492188 14.964844 22.457031 15.003906 22.417969 15.039062 C 22.402344 14.996094 22.410156 14.957031 22.429688 14.917969 Z M 22.429688 14.917969 "/>
<path style=" stroke:none;fill-rule:evenodd;fill:rgb(63.529412%,62.352941%,60.392157%);fill-opacity:1;" d="M 16.933594 14.941406 C 17.058594 14.929688 17.074219 14.953125 16.984375 15.015625 C 16.949219 15.003906 16.933594 14.976562 16.933594 14.941406 Z M 16.933594 14.941406 "/>
<path style=" stroke:none;fill-rule:evenodd;fill:rgb(69.019608%,67.45098%,65.490196%);fill-opacity:1;" d="M 14.628906 15.207031 C 14.695312 15.203125 14.757812 15.207031 14.824219 15.21875 C 14.511719 15.535156 14.214844 15.859375 13.921875 16.191406 C 14.097656 15.894531 14.257812 15.582031 14.402344 15.253906 C 14.480469 15.238281 14.558594 15.222656 14.628906 15.207031 Z M 14.628906 15.207031 "/>
<path style=" stroke:none;fill-rule:evenodd;fill:rgb(39.215686%,38.431373%,37.254902%);fill-opacity:1;" d="M 13.046875 15.351562 C 13.113281 15.324219 13.183594 15.320312 13.261719 15.339844 C 13.25 15.355469 13.234375 15.367188 13.214844 15.375 C 13.164062 15.351562 13.109375 15.34375 13.046875 15.351562 Z M 13.046875 15.351562 "/>
<path style=" stroke:none;fill-rule:evenodd;fill:rgb(67.843137%,66.27451%,64.705882%);fill-opacity:1;" d="M 13.046875 15.351562 C 13.109375 15.34375 13.164062 15.351562 13.214844 15.375 C 12.65625 15.527344 12.089844 15.585938 11.511719 15.554688 C 11.464844 15.496094 11.410156 15.457031 11.34375 15.433594 C 11.910156 15.398438 12.476562 15.371094 13.046875 15.351562 Z M 13.046875 15.351562 "/>
<path style=" stroke:none;fill-rule:evenodd;fill:rgb(66.27451%,65.098039%,63.137255%);fill-opacity:1;" d="M 10.117188 15.445312 C 10.398438 15.441406 10.679688 15.445312 10.957031 15.457031 C 10.867188 15.492188 10.777344 15.53125 10.695312 15.578125 C 10.324219 15.589844 9.957031 15.589844 9.589844 15.578125 C 9.472656 15.664062 9.464844 15.757812 9.566406 15.867188 C 9.496094 15.921875 9.425781 15.976562 9.347656 16.023438 C 9.304688 15.835938 9.234375 15.660156 9.132812 15.496094 C 9.464844 15.476562 9.792969 15.460938 10.117188 15.445312 Z M 10.117188 15.445312 "/>
<path style=" stroke:none;fill-rule:evenodd;fill:rgb(69.803922%,68.235294%,66.27451%);fill-opacity:1;" d="M 4.859375 15.804688 C 4.839844 15.773438 4.828125 15.734375 4.835938 15.6875 C 4.867188 15.59375 4.925781 15.574219 5.003906 15.625 C 4.960938 15.691406 4.914062 15.75 4.859375 15.804688 Z M 4.859375 15.804688 "/>
<path style=" stroke:none;fill-rule:evenodd;fill:rgb(41.568627%,40.392157%,39.215686%);fill-opacity:1;" d="M 4.835938 15.6875 C 4.828125 15.734375 4.839844 15.773438 4.859375 15.804688 C 4.855469 15.824219 4.84375 15.839844 4.824219 15.855469 C 4.804688 15.792969 4.808594 15.738281 4.835938 15.6875 Z M 4.835938 15.6875 "/>
<path style=" stroke:none;fill-rule:evenodd;fill:rgb(71.372549%,69.803922%,67.843137%);fill-opacity:1;" d="M 12.566406 15.804688 C 12.621094 15.800781 12.679688 15.804688 12.734375 15.820312 C 12.292969 16.203125 11.878906 16.613281 11.496094 17.054688 C 11.488281 17.101562 11.480469 17.152344 11.472656 17.199219 C 11.351562 17.136719 11.21875 17.113281 11.078125 17.125 C 11.199219 16.863281 11.324219 16.601562 11.449219 16.335938 C 11.5 16.1875 11.535156 16.035156 11.558594 15.878906 C 11.898438 15.886719 12.234375 15.863281 12.566406 15.804688 Z M 12.566406 15.804688 "/>
<path style=" stroke:none;fill-rule:evenodd;fill:rgb(65.882353%,64.705882%,62.745098%);fill-opacity:1;" d="M 5.507812 15.855469 C 5.527344 15.851562 5.542969 15.855469 5.558594 15.867188 C 5.433594 16.039062 5.289062 16.195312 5.125 16.335938 C 5.101562 16.304688 5.105469 16.273438 5.136719 16.238281 C 5.199219 16.144531 5.265625 16.046875 5.328125 15.949219 C 5.386719 15.910156 5.445312 15.878906 5.507812 15.855469 Z M 5.507812 15.855469 "/>
<path style=" stroke:none;fill-rule:evenodd;fill:rgb(70.588235%,69.019608%,67.058824%);fill-opacity:1;" d="M 6.636719 15.757812 C 6.648438 15.761719 6.65625 15.769531 6.660156 15.78125 C 6.589844 15.90625 6.53125 16.03125 6.480469 16.167969 C 6.464844 16.292969 6.464844 16.421875 6.480469 16.550781 C 6.488281 16.613281 6.511719 16.671875 6.554688 16.71875 C 6.570312 16.75 6.570312 16.78125 6.554688 16.816406 C 6.238281 17.367188 5.882812 17.894531 5.496094 18.398438 C 5.640625 17.882812 5.824219 17.378906 6.050781 16.886719 C 6.117188 16.6875 6.183594 16.488281 6.242188 16.285156 C 6.390625 16.121094 6.523438 15.945312 6.636719 15.757812 Z M 6.636719 15.757812 "/>
<path style=" stroke:none;fill-rule:evenodd;fill:rgb(70.588235%,69.019608%,67.058824%);fill-opacity:1;" d="M 33.761719 16 C 33.863281 16.050781 33.96875 16.085938 34.085938 16.09375 C 34.1875 16.074219 34.285156 16.050781 34.386719 16.023438 C 34.394531 16.03125 34.402344 16.039062 34.410156 16.046875 C 34.234375 16.253906 34.058594 16.460938 33.882812 16.671875 C 33.855469 16.472656 33.78125 16.292969 33.664062 16.128906 C 33.710938 16.097656 33.746094 16.050781 33.761719 16 Z M 33.761719 16 "/>
<path style=" stroke:none;fill-rule:evenodd;fill:rgb(34.509804%,33.72549%,32.941176%);fill-opacity:1;" d="M 38.105469 16 C 38.15625 16.007812 38.15625 16.03125 38.105469 16.070312 C 38.09375 16.054688 38.09375 16.027344 38.105469 16 Z M 38.105469 16 "/>
<path style=" stroke:none;fill-rule:evenodd;fill:rgb(69.411765%,68.235294%,66.27451%);fill-opacity:1;" d="M 10.910156 16.167969 C 10.929688 16.164062 10.945312 16.171875 10.957031 16.191406 C 10.894531 16.363281 10.820312 16.53125 10.730469 16.695312 C 10.433594 17.144531 10.136719 17.589844 9.839844 18.039062 C 9.816406 17.992188 9.808594 17.945312 9.816406 17.894531 C 10.042969 17.4375 10.300781 16.996094 10.585938 16.574219 C 10.691406 16.433594 10.796875 16.296875 10.910156 16.167969 Z M 10.910156 16.167969 "/>
<path style=" stroke:none;fill-rule:evenodd;fill:rgb(70.588235%,69.019608%,67.058824%);fill-opacity:1;" d="M 5.558594 16.597656 C 5.570312 16.601562 5.578125 16.609375 5.582031 16.621094 C 5.449219 16.90625 5.328125 17.195312 5.207031 17.488281 C 5.128906 17.320312 5.082031 17.140625 5.066406 16.957031 C 5.257812 16.875 5.421875 16.757812 5.558594 16.597656 Z M 5.558594 16.597656 "/>
<path style=" stroke:none;fill-rule:evenodd;fill:rgb(70.588235%,69.019608%,67.058824%);fill-opacity:1;" d="M 12.902344 16.480469 C 12.925781 16.488281 12.929688 16.503906 12.914062 16.527344 C 12.542969 16.953125 12.214844 17.410156 11.929688 17.894531 C 11.832031 17.941406 11.738281 17.996094 11.652344 18.0625 C 11.644531 18.046875 11.636719 18.03125 11.628906 18.015625 C 11.660156 17.832031 11.683594 17.648438 11.703125 17.460938 C 11.792969 17.492188 11.882812 17.480469 11.964844 17.425781 C 12.28125 17.113281 12.59375 16.796875 12.902344 16.480469 Z M 12.902344 16.480469 "/>
<path style=" stroke:none;fill-rule:evenodd;fill:rgb(18.431373%,18.039216%,17.647059%);fill-opacity:1;" d="M 39.640625 16.789062 C 39.636719 16.882812 39.601562 16.972656 39.535156 17.054688 C 39.554688 16.964844 39.59375 16.875 39.640625 16.789062 Z M 39.640625 16.789062 "/>
<path style=" stroke:none;fill-rule:evenodd;fill:rgb(71.372549%,69.803922%,67.843137%);fill-opacity:1;" d="M 8.484375 16.382812 C 8.507812 16.378906 8.523438 16.386719 8.535156 16.40625 C 7.71875 17.640625 6.898438 18.875 6.074219 20.101562 C 5.949219 20.277344 5.824219 20.445312 5.6875 20.605469 C 6.105469 19.546875 6.53125 18.492188 6.972656 17.4375 C 7.214844 17.605469 7.445312 17.59375 7.667969 17.402344 C 7.785156 17.3125 7.890625 17.210938 7.992188 17.101562 C 8.164062 16.867188 8.328125 16.625 8.484375 16.382812 Z M 8.484375 16.382812 "/>
<path style=" stroke:none;fill-rule:evenodd;fill:rgb(48.235294%,47.058824%,45.882353%);fill-opacity:1;" d="M 21.230469 17.460938 C 21.257812 17.511719 21.25 17.558594 21.207031 17.605469 C 21.199219 17.597656 21.191406 17.589844 21.183594 17.582031 C 21.207031 17.546875 21.222656 17.503906 21.230469 17.460938 Z M 21.230469 17.460938 "/>
<path style=" stroke:none;fill-rule:evenodd;fill:rgb(57.647059%,60.784314%,70.980392%);fill-opacity:1;" d="M 38.082031 22.214844 C 38.058594 22.253906 38.042969 22.292969 38.035156 22.335938 C 37.660156 23.023438 37.292969 23.71875 36.941406 24.425781 C 36.792969 24.84375 36.632812 25.257812 36.460938 25.671875 C 36.308594 26.046875 36.078125 26.371094 35.777344 26.644531 C 35.308594 26.960938 34.890625 26.910156 34.515625 26.488281 C 34.320312 26.210938 34.179688 25.90625 34.085938 25.574219 C 34.003906 25.238281 33.914062 24.902344 33.820312 24.566406 C 33.398438 23.761719 32.984375 22.953125 32.574219 22.144531 C 32.492188 21.652344 32.695312 21.351562 33.183594 21.242188 C 33.4375 21.210938 33.640625 21.296875 33.796875 21.496094 C 34.15625 22.152344 34.515625 22.808594 34.878906 23.464844 C 35.070312 23.796875 35.210938 24.148438 35.308594 24.519531 C 35.433594 24.144531 35.578125 23.777344 35.742188 23.414062 C 36.152344 22.597656 36.558594 21.78125 36.964844 20.96875 C 37.191406 20.285156 37.464844 19.621094 37.78125 18.976562 C 37.960938 18.636719 38.230469 18.398438 38.585938 18.265625 C 38.921875 18.1875 39.210938 18.261719 39.460938 18.496094 C 39.679688 18.796875 39.695312 19.109375 39.511719 19.429688 C 39.40625 19.542969 39.292969 19.648438 39.175781 19.742188 C 39.117188 19.839844 39.0625 19.933594 39.007812 20.03125 C 38.710938 20.765625 38.402344 21.492188 38.082031 22.214844 Z M 38.082031 22.214844 "/>
<path style=" stroke:none;fill-rule:evenodd;fill:rgb(69.803922%,68.235294%,66.27451%);fill-opacity:1;" d="M 8.414062 18.421875 C 8.441406 18.4375 8.457031 18.464844 8.460938 18.507812 C 8.488281 18.605469 8.5 18.707031 8.496094 18.808594 C 8.375 19.074219 8.246094 19.335938 8.113281 19.597656 C 7.855469 19.984375 7.601562 20.367188 7.34375 20.75 C 7.660156 19.960938 8.015625 19.183594 8.414062 18.421875 Z M 8.414062 18.421875 "/>
<path style=" stroke:none;fill-rule:evenodd;fill:rgb(69.019608%,67.45098%,65.882353%);fill-opacity:1;" d="M 42.476562 19.457031 C 42.484375 19.5625 42.472656 19.667969 42.449219 19.765625 C 42.296875 19.746094 42.15625 19.777344 42.03125 19.863281 C 42.179688 19.402344 42.300781 18.929688 42.390625 18.445312 C 42.445312 18.78125 42.472656 19.117188 42.476562 19.457031 Z M 42.476562 19.457031 "/>
<path style=" stroke:none;fill-rule:evenodd;fill:rgb(63.529412%,62.352941%,60.784314%);fill-opacity:1;" d="M 5.507812 19.046875 C 5.527344 19.042969 5.542969 19.046875 5.558594 19.058594 C 5.496094 19.164062 5.445312 19.269531 5.402344 19.382812 C 5.375 19.328125 5.367188 19.273438 5.375 19.214844 C 5.4375 19.167969 5.480469 19.113281 5.507812 19.046875 Z M 5.507812 19.046875 "/>
<path style=" stroke:none;fill-rule:evenodd;fill:rgb(61.568627%,60.392157%,58.431373%);fill-opacity:1;" d="M 25.167969 19.117188 C 25.1875 19.117188 25.203125 19.121094 25.214844 19.132812 C 25.148438 19.207031 25.085938 19.292969 25.035156 19.382812 C 25.019531 19.351562 25.019531 19.320312 25.035156 19.285156 C 25.074219 19.226562 25.121094 19.171875 25.167969 19.117188 Z M 25.167969 19.117188 "/>
<path style=" stroke:none;fill-rule:evenodd;fill:rgb(45.098039%,44.313725%,42.745098%);fill-opacity:1;" d="M 33.546875 19.144531 C 33.566406 19.183594 33.554688 19.226562 33.507812 19.261719 C 33.507812 19.21875 33.519531 19.179688 33.546875 19.144531 Z M 33.546875 19.144531 "/>
<path style=" stroke:none;fill-rule:evenodd;fill:rgb(56.862745%,55.686275%,54.117647%);fill-opacity:1;" d="M 10.09375 19.503906 C 10.09375 19.488281 10.09375 19.472656 10.09375 19.457031 C 10.289062 19.070312 10.496094 18.683594 10.707031 18.304688 C 10.722656 18.273438 10.734375 18.273438 10.742188 18.304688 C 10.523438 18.703125 10.308594 19.105469 10.09375 19.503906 Z M 10.09375 19.503906 "/>
<path style=" stroke:none;fill-rule:evenodd;fill:rgb(65.882353%,22.745098%,17.647059%);fill-opacity:1;" d="M 17.605469 20.773438 C 17.582031 20.746094 17.550781 20.730469 17.511719 20.726562 C 16.609375 20.367188 15.777344 20.484375 15.015625 21.074219 C 14.429688 21.640625 13.976562 22.300781 13.65625 23.054688 C 13.136719 24.25 12.761719 25.492188 12.53125 26.777344 C 12.382812 27.597656 12.25 28.421875 12.121094 29.25 C 12.027344 29.4375 11.871094 29.523438 11.652344 29.511719 C 11.644531 29.492188 11.628906 29.484375 11.605469 29.488281 C 11.359375 29.453125 11.222656 29.316406 11.199219 29.070312 C 11.363281 27.464844 11.652344 25.886719 12.0625 24.328125 C 12.140625 24.140625 12.203125 23.949219 12.253906 23.75 C 12.539062 22.929688 12.902344 22.144531 13.347656 21.398438 C 13.714844 20.816406 14.175781 20.316406 14.726562 19.898438 C 15.371094 19.480469 16.074219 19.3125 16.839844 19.394531 C 18.164062 19.582031 19.257812 20.1875 20.113281 21.207031 C 20.683594 21.949219 21.148438 22.757812 21.507812 23.632812 C 21.730469 24.21875 21.976562 24.796875 22.25 25.359375 C 22.386719 25.648438 22.582031 25.882812 22.839844 26.066406 C 23.046875 26.179688 23.253906 26.179688 23.464844 26.066406 C 23.582031 26.015625 23.695312 25.953125 23.800781 25.875 C 24.449219 25.234375 25.125 24.617188 25.816406 24.027344 C 26.101562 23.796875 26.40625 23.597656 26.726562 23.429688 C 27.136719 23.394531 27.40625 23.574219 27.53125 23.96875 C 27.585938 24.207031 27.535156 24.425781 27.386719 24.617188 C 27.085938 24.832031 26.785156 25.054688 26.488281 25.277344 C 25.984375 25.730469 25.480469 26.1875 24.976562 26.644531 C 24.539062 27.046875 24.027344 27.3125 23.441406 27.4375 C 22.839844 27.523438 22.3125 27.371094 21.855469 26.980469 C 21.484375 26.621094 21.203125 26.199219 21.003906 25.71875 C 20.636719 24.726562 20.210938 23.761719 19.730469 22.816406 C 19.308594 22.050781 18.730469 21.429688 17.992188 20.957031 C 17.863281 20.886719 17.738281 20.828125 17.605469 20.773438 Z M 17.605469 20.773438 "/>
<path style=" stroke:none;fill-rule:evenodd;fill:rgb(71.372549%,69.803922%,67.843137%);fill-opacity:1;" d="M 10.09375 19.457031 C 10.09375 19.472656 10.09375 19.488281 10.09375 19.503906 C 9.871094 19.929688 9.621094 20.34375 9.347656 20.738281 C 9.222656 20.746094 9.117188 20.789062 9.027344 20.871094 C 8.472656 21.757812 7.902344 22.613281 7.308594 23.441406 C 7.46875 23.011719 7.640625 22.585938 7.824219 22.167969 C 8.164062 21.410156 8.515625 20.65625 8.882812 19.910156 C 8.890625 19.902344 8.898438 19.894531 8.90625 19.886719 C 9.132812 20.109375 9.382812 20.140625 9.660156 19.972656 C 9.820312 19.808594 9.964844 19.636719 10.09375 19.457031 Z M 10.09375 19.457031 "/>
<path style=" stroke:none;fill-rule:evenodd;fill:rgb(35.294118%,34.509804%,33.333333%);fill-opacity:1;" d="M 42.476562 19.457031 C 42.507812 19.5625 42.507812 19.675781 42.476562 19.792969 C 42.460938 19.789062 42.453125 19.78125 42.449219 19.765625 C 42.472656 19.667969 42.484375 19.5625 42.476562 19.457031 Z M 42.476562 19.457031 "/>
<path style=" stroke:none;fill-rule:evenodd;fill:rgb(55.686275%,54.509804%,53.333333%);fill-opacity:1;" d="M 31.3125 19.933594 C 31.304688 20.050781 31.25 20.15625 31.15625 20.246094 C 31.207031 20.148438 31.257812 20.042969 31.3125 19.933594 Z M 31.3125 19.933594 "/>
<path style=" stroke:none;fill-rule:evenodd;fill:rgb(64.705882%,62.745098%,61.176471%);fill-opacity:1;" d="M 17.511719 20.726562 C 17.550781 20.730469 17.582031 20.746094 17.605469 20.773438 C 17.523438 20.894531 17.4375 21.015625 17.355469 21.136719 C 17.390625 20.996094 17.445312 20.859375 17.511719 20.726562 Z M 17.511719 20.726562 "/>
<path style=" stroke:none;fill-rule:evenodd;fill:rgb(71.372549%,69.803922%,67.843137%);fill-opacity:1;" d="M 12.445312 20.582031 C 12.46875 20.59375 12.472656 20.609375 12.457031 20.632812 C 12.074219 21.292969 11.699219 21.957031 11.328125 22.625 C 10.769531 23.515625 10.199219 24.402344 9.625 25.289062 C 9.300781 25.8125 9.011719 26.355469 8.761719 26.921875 C 8.574219 27.183594 8.398438 27.457031 8.234375 27.738281 C 8.339844 27.261719 8.480469 26.796875 8.664062 26.34375 C 8.921875 25.847656 9.167969 25.34375 9.398438 24.832031 C 9.460938 24.785156 9.519531 24.738281 9.578125 24.6875 C 9.789062 24.328125 10.011719 23.976562 10.25 23.632812 C 10.976562 22.613281 11.710938 21.59375 12.445312 20.582031 Z M 12.445312 20.582031 "/>
<path style=" stroke:none;fill-rule:evenodd;fill:rgb(70.588235%,69.019608%,67.058824%);fill-opacity:1;" d="M 39.1875 22.695312 C 39.535156 22.035156 39.914062 21.398438 40.328125 20.773438 C 40.324219 20.910156 40.359375 21.035156 40.433594 21.148438 C 40.335938 21.355469 40.222656 21.554688 40.097656 21.746094 C 39.972656 21.777344 39.875 21.84375 39.796875 21.953125 C 39.605469 22.210938 39.402344 22.457031 39.1875 22.695312 Z M 39.1875 22.695312 "/>
<path style=" stroke:none;fill-rule:evenodd;fill:rgb(64.705882%,63.137255%,61.568627%);fill-opacity:1;" d="M 24.617188 20.824219 C 24.640625 20.820312 24.664062 20.824219 24.6875 20.835938 C 24.539062 20.976562 24.398438 21.125 24.269531 21.28125 C 24.300781 21.148438 24.347656 21.019531 24.410156 20.894531 C 24.484375 20.878906 24.550781 20.855469 24.617188 20.824219 Z M 24.617188 20.824219 "/>
<path style=" stroke:none;fill-rule:evenodd;fill:rgb(67.843137%,66.27451%,64.313725%);fill-opacity:1;" d="M 42.449219 20.847656 C 42.480469 20.964844 42.480469 21.082031 42.449219 21.207031 C 42.402344 21.195312 42.359375 21.171875 42.332031 21.136719 C 42.378906 21.042969 42.421875 20.945312 42.449219 20.847656 Z M 42.449219 20.847656 "/>
<path style=" stroke:none;fill-rule:evenodd;fill:rgb(70.588235%,69.019608%,67.45098%);fill-opacity:1;" d="M 10.5 20.941406 C 10.527344 20.953125 10.53125 20.96875 10.515625 20.992188 C 10 21.808594 9.488281 22.625 8.976562 23.441406 C 8.867188 23.496094 8.777344 23.574219 8.714844 23.679688 C 8.546875 24.121094 8.320312 24.527344 8.042969 24.902344 C 8.164062 24.507812 8.308594 24.113281 8.472656 23.726562 C 8.714844 23.183594 8.953125 22.640625 9.195312 22.09375 C 9.472656 22.117188 9.699219 22.011719 9.867188 21.785156 C 10.066406 21.492188 10.277344 21.214844 10.5 20.941406 Z M 10.5 20.941406 "/>
<path style=" stroke:none;fill-rule:evenodd;fill:rgb(70.980392%,69.411765%,67.45098%);fill-opacity:1;" d="M 6.253906 21.136719 C 6.089844 21.621094 5.910156 22.109375 5.714844 22.601562 C 5.6875 22.320312 5.679688 22.039062 5.6875 21.757812 C 5.898438 21.570312 6.085938 21.359375 6.253906 21.136719 Z M 6.253906 21.136719 "/>
<path style=" stroke:none;fill-rule:evenodd;fill:rgb(67.843137%,66.27451%,64.705882%);fill-opacity:1;" d="M 38.035156 22.335938 C 38.042969 22.292969 38.058594 22.253906 38.082031 22.214844 C 38.175781 22.148438 38.269531 22.078125 38.359375 22 C 38.296875 22.140625 38.21875 22.273438 38.128906 22.40625 C 38.085938 22.394531 38.054688 22.371094 38.035156 22.335938 Z M 38.035156 22.335938 "/>
<path style=" stroke:none;fill-rule:evenodd;fill:rgb(53.333333%,52.156863%,50.588235%);fill-opacity:1;" d="M 42.425781 22.863281 C 42.457031 22.6875 42.457031 22.511719 42.425781 22.335938 C 42.4375 22.289062 42.449219 22.238281 42.460938 22.191406 C 42.484375 22.425781 42.480469 22.65625 42.449219 22.886719 C 42.4375 22.882812 42.429688 22.875 42.425781 22.863281 Z M 42.425781 22.863281 "/>
<path style=" stroke:none;fill-rule:evenodd;fill:rgb(69.411765%,67.843137%,65.882353%);fill-opacity:1;" d="M 42.425781 22.335938 C 42.457031 22.511719 42.457031 22.6875 42.425781 22.863281 C 42.433594 22.738281 42.417969 22.609375 42.378906 22.480469 C 42.390625 22.429688 42.40625 22.382812 42.425781 22.335938 Z M 42.425781 22.335938 "/>
<path style=" stroke:none;fill-rule:evenodd;fill:rgb(39.215686%,38.823529%,37.254902%);fill-opacity:1;" d="M 39.1875 22.695312 C 39.1875 22.726562 39.175781 22.75 39.148438 22.769531 C 39.136719 22.730469 39.148438 22.707031 39.1875 22.695312 Z M 39.1875 22.695312 "/>
<path style=" stroke:none;fill-rule:evenodd;fill:rgb(69.411765%,67.843137%,65.882353%);fill-opacity:1;" d="M 27.015625 22.3125 C 27.042969 22.320312 27.042969 22.335938 27.027344 22.359375 C 26.460938 23 25.898438 23.648438 25.347656 24.304688 C 25.453125 24.027344 25.574219 23.757812 25.707031 23.488281 C 26.207031 23.167969 26.644531 22.777344 27.015625 22.3125 Z M 27.015625 22.3125 "/>
<path style=" stroke:none;fill-rule:evenodd;fill:rgb(54.901961%,53.72549%,52.156863%);fill-opacity:1;" d="M 30.617188 22.984375 C 30.691406 22.984375 30.703125 23.007812 30.652344 23.054688 C 30.628906 23.039062 30.617188 23.015625 30.617188 22.984375 Z M 30.617188 22.984375 "/>
<path style=" stroke:none;fill-rule:evenodd;fill:rgb(69.803922%,68.235294%,66.27451%);fill-opacity:1;" d="M 27.90625 23.511719 C 27.949219 23.707031 28.027344 23.886719 28.144531 24.050781 C 27.882812 24.386719 27.632812 24.726562 27.386719 25.070312 C 27.550781 24.550781 27.722656 24.03125 27.90625 23.511719 Z M 27.90625 23.511719 "/>
<path style=" stroke:none;fill-rule:evenodd;fill:rgb(70.980392%,69.411765%,67.45098%);fill-opacity:1;" d="M 12.253906 23.75 C 12.203125 23.949219 12.140625 24.140625 12.0625 24.328125 C 11.71875 24.859375 11.371094 25.386719 11.019531 25.914062 C 10.871094 26.144531 10.734375 26.382812 10.609375 26.632812 C 10.472656 26.808594 10.34375 26.992188 10.226562 27.183594 C 10.175781 27.347656 10.1875 27.507812 10.261719 27.664062 C 10.214844 27.757812 10.160156 27.847656 10.09375 27.929688 C 9.957031 27.804688 9.796875 27.75 9.613281 27.761719 C 9.652344 27.636719 9.703125 27.515625 9.769531 27.398438 C 10.605469 26.1875 11.433594 24.96875 12.253906 23.75 Z M 12.253906 23.75 "/>
<path style=" stroke:none;fill-rule:evenodd;fill:rgb(60.784314%,59.607843%,58.039216%);fill-opacity:1;" d="M 6.132812 24.328125 C 6.148438 24.332031 6.15625 24.34375 6.15625 24.363281 C 6.132812 24.480469 6.113281 24.59375 6.097656 24.710938 C 6.070312 24.625 6.039062 24.539062 6.011719 24.449219 C 6.058594 24.414062 6.097656 24.375 6.132812 24.328125 Z M 6.132812 24.328125 "/>
<path style=" stroke:none;fill-rule:evenodd;fill:rgb(69.803922%,68.235294%,66.666667%);fill-opacity:1;" d="M 42.425781 24.542969 C 42.457031 24.765625 42.457031 24.988281 42.425781 25.214844 C 42.375 25.238281 42.328125 25.265625 42.28125 25.300781 C 42.183594 25.414062 42.082031 25.53125 41.984375 25.648438 C 42.121094 25.28125 42.269531 24.910156 42.425781 24.542969 Z M 42.425781 24.542969 "/>
<path style=" stroke:none;fill-rule:evenodd;fill:rgb(70.588235%,69.019608%,67.058824%);fill-opacity:1;" d="M 6.253906 25.40625 C 6.425781 25.519531 6.609375 25.535156 6.804688 25.457031 C 6.820312 25.464844 6.835938 25.472656 6.851562 25.480469 C 6.71875 25.792969 6.605469 26.113281 6.503906 26.441406 C 6.417969 26.097656 6.332031 25.753906 6.253906 25.40625 Z M 6.253906 25.40625 "/>
<path style=" stroke:none;fill-rule:evenodd;fill:rgb(32.941176%,32.156863%,31.372549%);fill-opacity:1;" d="M 15.902344 25.984375 C 15.972656 25.953125 16.042969 25.953125 16.117188 25.984375 C 16.117188 26 16.109375 26.007812 16.09375 26.007812 C 16.035156 25.984375 15.972656 25.976562 15.902344 25.984375 Z M 15.902344 25.984375 "/>
<path style=" stroke:none;fill-rule:evenodd;fill:rgb(71.764706%,70.588235%,68.627451%);fill-opacity:1;" d="M 15.902344 25.984375 C 15.972656 25.976562 16.035156 25.984375 16.09375 26.007812 C 16.035156 26.101562 16.003906 26.207031 16 26.320312 C 16.023438 26.480469 16.066406 26.632812 16.128906 26.777344 C 16.046875 26.894531 15.980469 27.023438 15.925781 27.160156 C 15.863281 27.136719 15.800781 27.128906 15.734375 27.148438 C 15.652344 27.199219 15.582031 27.269531 15.53125 27.351562 C 15.441406 27.253906 15.339844 27.171875 15.230469 27.101562 C 15.289062 26.976562 15.316406 26.84375 15.3125 26.703125 C 15.378906 26.585938 15.433594 26.46875 15.484375 26.34375 C 15.5625 26.238281 15.636719 26.125 15.699219 26.007812 C 15.765625 25.984375 15.832031 25.976562 15.902344 25.984375 Z M 15.902344 25.984375 "/>
<path style=" stroke:none;fill-rule:evenodd;fill:rgb(61.568627%,60.392157%,58.431373%);fill-opacity:1;" d="M 37.050781 26.199219 C 37.082031 26.199219 37.105469 26.210938 37.121094 26.234375 C 36.933594 26.546875 36.910156 26.535156 37.050781 26.199219 Z M 37.050781 26.199219 "/>
<path style=" stroke:none;fill-rule:evenodd;fill:rgb(71.764706%,70.196078%,68.235294%);fill-opacity:1;" d="M 26.152344 26.632812 C 26.21875 26.6875 26.28125 26.746094 26.34375 26.8125 C 26.460938 26.882812 26.589844 26.914062 26.726562 26.910156 C 25.722656 28.226562 24.726562 29.550781 23.738281 30.882812 C 23.53125 31.097656 23.332031 31.320312 23.140625 31.554688 C 23.125 31.488281 23.132812 31.421875 23.164062 31.359375 C 23.476562 30.769531 23.835938 30.207031 24.242188 29.679688 C 24.4375 29.332031 24.636719 28.988281 24.84375 28.648438 C 25.277344 27.972656 25.710938 27.300781 26.152344 26.632812 Z M 26.152344 26.632812 "/>
<path style=" stroke:none;fill-rule:evenodd;fill:rgb(70.980392%,69.411765%,67.45098%);fill-opacity:1;" d="M 40.53125 26.703125 C 40.542969 26.710938 40.554688 26.722656 40.554688 26.742188 C 40.414062 27.132812 40.238281 27.511719 40.039062 27.878906 C 39.996094 28.003906 39.972656 28.132812 39.964844 28.265625 C 39.871094 28.429688 39.769531 28.589844 39.65625 28.746094 C 39.535156 28.617188 39.386719 28.558594 39.210938 28.566406 C 39.675781 27.960938 40.113281 27.339844 40.53125 26.703125 Z M 40.53125 26.703125 "/>
<path style=" stroke:none;fill-rule:evenodd;fill:rgb(68.627451%,67.45098%,65.490196%);fill-opacity:1;" d="M 42.5 27.183594 C 42.523438 27.234375 42.53125 27.289062 42.523438 27.351562 C 42.492188 27.351562 42.457031 27.351562 42.425781 27.351562 C 42.457031 27.300781 42.480469 27.242188 42.5 27.183594 Z M 42.5 27.183594 "/>
<path style=" stroke:none;fill-rule:evenodd;fill:rgb(32.156863%,31.372549%,30.588235%);fill-opacity:1;" d="M 42.5 27.183594 C 42.5 27.171875 42.507812 27.164062 42.523438 27.160156 C 42.546875 27.230469 42.554688 27.300781 42.546875 27.375 C 42.5 27.382812 42.460938 27.375 42.425781 27.351562 C 42.457031 27.351562 42.492188 27.351562 42.523438 27.351562 C 42.53125 27.289062 42.523438 27.234375 42.5 27.183594 Z M 42.5 27.183594 "/>
<path style=" stroke:none;fill-rule:evenodd;fill:rgb(56.078431%,54.901961%,53.333333%);fill-opacity:1;" d="M 35.441406 27.230469 C 35.40625 27.382812 35.34375 27.535156 35.261719 27.6875 C 35.246094 27.675781 35.234375 27.660156 35.226562 27.640625 C 35.304688 27.507812 35.375 27.371094 35.441406 27.230469 Z M 35.441406 27.230469 "/>
<path style=" stroke:none;fill-rule:evenodd;fill:rgb(70.980392%,69.411765%,67.843137%);fill-opacity:1;" d="M 6.972656 29.007812 C 6.957031 29.03125 6.941406 29.058594 6.925781 29.082031 C 6.859375 28.589844 6.804688 28.101562 6.757812 27.617188 C 6.890625 27.675781 7.027344 27.675781 7.164062 27.617188 C 7.171875 27.632812 7.179688 27.648438 7.1875 27.664062 C 7.066406 28.101562 6.992188 28.550781 6.972656 29.007812 Z M 6.972656 29.007812 "/>
<path style=" stroke:none;fill-rule:evenodd;fill:rgb(70.196078%,68.627451%,67.058824%);fill-opacity:1;" d="M 16.117188 27.832031 C 16.199219 27.859375 16.269531 27.90625 16.335938 27.964844 C 16.113281 28.292969 15.925781 28.640625 15.769531 29.007812 C 15.59375 29.230469 15.40625 29.445312 15.21875 29.65625 C 15.238281 29.578125 15.261719 29.496094 15.289062 29.417969 C 15.574219 28.890625 15.847656 28.363281 16.117188 27.832031 Z M 16.117188 27.832031 "/>
<path style=" stroke:none;fill-rule:evenodd;fill:rgb(49.019608%,47.843137%,46.27451%);fill-opacity:1;" d="M 21.976562 28.527344 C 22.035156 28.554688 22.035156 28.585938 21.976562 28.625 C 21.964844 28.597656 21.964844 28.566406 21.976562 28.527344 Z M 21.976562 28.527344 "/>
<path style=" stroke:none;fill-rule:evenodd;fill:rgb(61.960784%,60.784314%,58.823529%);fill-opacity:1;" d="M 37.816406 28.625 C 37.832031 28.625 37.839844 28.632812 37.84375 28.648438 C 37.765625 28.785156 37.691406 28.921875 37.613281 29.058594 C 37.585938 29.042969 37.558594 29.027344 37.53125 29.007812 C 37.636719 28.886719 37.730469 28.757812 37.816406 28.625 Z M 37.816406 28.625 "/>
<path style=" stroke:none;fill-rule:evenodd;fill:rgb(51.764706%,50.588235%,49.411765%);fill-opacity:1;" d="M 6.972656 29.007812 C 6.976562 29.097656 6.972656 29.183594 6.960938 29.273438 C 6.941406 29.210938 6.929688 29.144531 6.925781 29.082031 C 6.941406 29.058594 6.957031 29.03125 6.972656 29.007812 Z M 6.972656 29.007812 "/>
<path style=" stroke:none;fill-rule:evenodd;fill:rgb(71.372549%,69.803922%,67.843137%);fill-opacity:1;" d="M 34.671875 29.03125 C 34.699219 29.03125 34.714844 29.042969 34.722656 29.070312 C 34.632812 29.273438 34.574219 29.484375 34.542969 29.703125 C 34.4375 29.804688 34.328125 29.898438 34.21875 29.992188 C 34.132812 29.78125 33.972656 29.675781 33.738281 29.679688 C 33.839844 29.492188 33.941406 29.300781 34.050781 29.117188 C 34.265625 29.113281 34.472656 29.085938 34.671875 29.03125 Z M 34.671875 29.03125 "/>
<path style=" stroke:none;fill-rule:evenodd;fill:rgb(54.509804%,53.333333%,51.764706%);fill-opacity:1;" d="M 40.722656 29.175781 C 40.746094 29.207031 40.742188 29.238281 40.710938 29.273438 C 40.671875 29.242188 40.675781 29.207031 40.722656 29.175781 Z M 40.722656 29.175781 "/>
<path style=" stroke:none;fill-rule:evenodd;fill:rgb(71.372549%,69.803922%,67.843137%);fill-opacity:1;" d="M 6.972656 29.296875 C 7.042969 29.515625 7.195312 29.648438 7.429688 29.691406 C 7.523438 29.699219 7.621094 29.707031 7.71875 29.714844 C 7.585938 30.101562 7.527344 30.496094 7.539062 30.90625 C 7.613281 31.144531 7.777344 31.273438 8.027344 31.289062 C 8 31.449219 7.96875 31.609375 7.933594 31.769531 C 7.953125 32.082031 8.113281 32.285156 8.414062 32.382812 C 8.425781 32.402344 8.433594 32.425781 8.4375 32.453125 C 8.371094 32.707031 8.375 32.960938 8.449219 33.210938 C 7.679688 32.011719 7.1875 30.707031 6.972656 29.296875 Z M 6.972656 29.296875 "/>
<path style=" stroke:none;fill-rule:evenodd;fill:rgb(71.372549%,69.803922%,67.843137%);fill-opacity:1;" d="M 11.605469 29.488281 C 11.628906 29.484375 11.644531 29.492188 11.652344 29.511719 C 11.492188 29.824219 11.371094 30.152344 11.292969 30.496094 C 10.976562 30.34375 10.679688 30.375 10.40625 30.59375 C 10.382812 30.535156 10.375 30.46875 10.382812 30.402344 C 10.734375 30.15625 11.070312 29.886719 11.390625 29.597656 C 11.476562 29.585938 11.546875 29.550781 11.605469 29.488281 Z M 11.605469 29.488281 "/>
<path style=" stroke:none;fill-rule:evenodd;fill:rgb(69.803922%,68.235294%,66.27451%);fill-opacity:1;" d="M 16.214844 29.777344 C 16.242188 29.792969 16.246094 29.820312 16.226562 29.847656 C 16.117188 30.078125 16 30.300781 15.878906 30.519531 C 15.804688 30.539062 15.734375 30.5625 15.664062 30.582031 C 15.558594 30.644531 15.453125 30.699219 15.351562 30.75 C 15.3125 30.730469 15.300781 30.699219 15.3125 30.664062 C 15.660156 30.414062 15.957031 30.117188 16.214844 29.777344 Z M 16.214844 29.777344 "/>
<path style=" stroke:none;fill-rule:evenodd;fill:rgb(68.235294%,66.666667%,64.705882%);fill-opacity:1;" d="M 32.152344 30.472656 C 32.226562 30.589844 32.324219 30.691406 32.441406 30.773438 C 32.175781 30.894531 31.949219 31.066406 31.757812 31.289062 C 31.90625 31.03125 32.039062 30.757812 32.152344 30.472656 Z M 32.152344 30.472656 "/>
<path style=" stroke:none;fill-rule:evenodd;fill:rgb(30.980392%,30.196078%,29.411765%);fill-opacity:1;" d="M 10.382812 30.402344 C 10.375 30.46875 10.382812 30.535156 10.40625 30.59375 C 10.402344 30.605469 10.394531 30.613281 10.382812 30.617188 C 10.351562 30.542969 10.351562 30.46875 10.382812 30.402344 Z M 10.382812 30.402344 "/>
<path style=" stroke:none;fill-rule:evenodd;fill:rgb(63.137255%,61.568627%,60%);fill-opacity:1;" d="M 14.199219 30.738281 C 14.242188 30.753906 14.253906 30.785156 14.234375 30.832031 C 14.1875 30.875 14.132812 30.902344 14.078125 30.917969 C 14.125 30.859375 14.164062 30.800781 14.199219 30.738281 Z M 14.199219 30.738281 "/>
<path style=" stroke:none;fill-rule:evenodd;fill:rgb(68.235294%,66.666667%,65.098039%);fill-opacity:1;" d="M 31.433594 31.554688 C 31.449219 31.550781 31.46875 31.554688 31.480469 31.566406 C 31.265625 31.777344 31.039062 31.976562 30.796875 32.152344 C 30.847656 31.984375 30.914062 31.820312 31 31.660156 C 31.089844 31.652344 31.175781 31.644531 31.265625 31.636719 C 31.328125 31.621094 31.386719 31.59375 31.433594 31.554688 Z M 31.433594 31.554688 "/>
<path style=" stroke:none;fill-rule:evenodd;fill:rgb(59.215686%,58.039216%,56.078431%);fill-opacity:1;" d="M 28.839844 32.082031 C 28.867188 32.148438 28.839844 32.199219 28.757812 32.226562 C 28.742188 32.210938 28.742188 32.191406 28.757812 32.175781 C 28.789062 32.148438 28.816406 32.117188 28.839844 32.082031 Z M 28.839844 32.082031 "/>
<path style=" stroke:none;fill-rule:evenodd;fill:rgb(69.411765%,67.843137%,66.27451%);fill-opacity:1;" d="M 31.792969 32.609375 C 31.804688 32.609375 31.8125 32.617188 31.816406 32.632812 C 31.671875 32.882812 31.558594 33.148438 31.480469 33.425781 C 30.734375 33.410156 29.992188 33.371094 29.25 33.304688 C 29.289062 33.25 29.335938 33.199219 29.394531 33.160156 C 29.671875 33.285156 29.925781 33.253906 30.160156 33.066406 C 30.253906 33.207031 30.386719 33.273438 30.558594 33.257812 C 30.632812 33.253906 30.710938 33.242188 30.785156 33.222656 C 31.152344 33.058594 31.488281 32.855469 31.792969 32.609375 Z M 31.792969 32.609375 "/>
<path style=" stroke:none;fill-rule:evenodd;fill:rgb(71.764706%,70.196078%,68.235294%);fill-opacity:1;" d="M 21.785156 33.351562 C 21.574219 33.371094 21.367188 33.386719 21.160156 33.402344 C 20.3125 33.402344 19.464844 33.402344 18.613281 33.402344 C 18.445312 33.386719 18.277344 33.371094 18.109375 33.351562 C 18.261719 33.320312 18.371094 33.238281 18.445312 33.101562 C 18.726562 33.050781 18.972656 32.933594 19.191406 32.753906 C 19.273438 32.863281 19.386719 32.929688 19.527344 32.957031 C 19.648438 33.195312 19.839844 33.289062 20.101562 33.246094 C 20.417969 33.1875 20.691406 33.046875 20.917969 32.824219 C 21.097656 33.082031 21.332031 33.160156 21.628906 33.066406 C 21.660156 33.082031 21.699219 33.089844 21.734375 33.089844 C 21.75 33.175781 21.765625 33.265625 21.785156 33.351562 Z M 21.785156 33.351562 "/>
<path style=" stroke:none;fill-rule:evenodd;fill:rgb(60%,58.431373%,56.862745%);fill-opacity:1;" d="M 39.617188 32.921875 C 39.640625 32.957031 39.648438 32.996094 39.640625 33.042969 C 39.605469 33.046875 39.574219 33.039062 39.546875 33.015625 C 39.570312 32.984375 39.59375 32.953125 39.617188 32.921875 Z M 39.617188 32.921875 "/>
<path style=" stroke:none;fill-rule:evenodd;fill:rgb(70.196078%,68.627451%,66.666667%);fill-opacity:1;" d="M 34.699219 33.402344 C 34.699219 33.425781 34.699219 33.449219 34.699219 33.472656 C 34.550781 33.480469 34.40625 33.472656 34.265625 33.449219 C 34.457031 33.296875 34.636719 33.128906 34.804688 32.945312 C 34.78125 33.035156 34.75 33.121094 34.710938 33.210938 C 34.699219 33.273438 34.695312 33.335938 34.699219 33.402344 Z M 34.699219 33.402344 "/>
<path style=" stroke:none;fill-rule:evenodd;fill:rgb(69.019608%,67.45098%,65.882353%);fill-opacity:1;" d="M 25.71875 33.210938 C 25.699219 33.238281 25.667969 33.253906 25.625 33.257812 C 25.585938 33.257812 25.554688 33.25 25.527344 33.234375 C 25.574219 33.179688 25.621094 33.125 25.660156 33.066406 C 25.691406 33.109375 25.710938 33.15625 25.71875 33.210938 Z M 25.71875 33.210938 "/>
<path style=" stroke:none;fill-rule:evenodd;fill:rgb(67.45098%,65.882353%,64.313725%);fill-opacity:1;" d="M 9.613281 33.234375 C 9.660156 33.277344 9.683594 33.332031 9.6875 33.402344 C 9.605469 33.40625 9.523438 33.402344 9.445312 33.390625 C 9.5 33.332031 9.554688 33.28125 9.613281 33.234375 Z M 9.613281 33.234375 "/>
<path style=" stroke:none;fill-rule:evenodd;fill:rgb(68.627451%,67.058824%,65.098039%);fill-opacity:1;" d="M 13.335938 33.183594 C 13.355469 33.277344 13.367188 33.371094 13.371094 33.472656 C 13.382812 33.523438 13.402344 33.566406 13.429688 33.605469 C 13.421875 33.613281 13.414062 33.621094 13.40625 33.628906 C 13.207031 33.664062 13.007812 33.6875 12.804688 33.703125 C 12.996094 33.539062 13.171875 33.367188 13.335938 33.183594 Z M 13.335938 33.183594 "/>
<path style=" stroke:none;fill-rule:evenodd;fill:rgb(63.529412%,62.352941%,60.784314%);fill-opacity:1;" d="M 36.304688 33.210938 C 36.34375 33.242188 36.375 33.285156 36.402344 33.328125 C 36.324219 33.359375 36.242188 33.371094 36.160156 33.367188 C 36.230469 33.332031 36.277344 33.28125 36.304688 33.210938 Z M 36.304688 33.210938 "/>
<path style=" stroke:none;fill-rule:evenodd;fill:rgb(69.803922%,68.235294%,66.27451%);fill-opacity:1;" d="M 23.03125 33.257812 C 23.0625 33.273438 23.085938 33.296875 23.105469 33.328125 C 23.050781 33.355469 22.992188 33.359375 22.9375 33.339844 C 22.980469 33.324219 23.011719 33.296875 23.03125 33.257812 Z M 23.03125 33.257812 "/>
<path style=" stroke:none;fill-rule:evenodd;fill:rgb(42.352941%,41.176471%,40%);fill-opacity:1;" d="M 25.71875 33.210938 C 25.742188 33.226562 25.75 33.25 25.742188 33.28125 C 25.664062 33.289062 25.582031 33.28125 25.503906 33.257812 C 25.507812 33.242188 25.515625 33.234375 25.527344 33.234375 C 25.554688 33.25 25.585938 33.257812 25.625 33.257812 C 25.667969 33.253906 25.699219 33.238281 25.71875 33.210938 Z M 25.71875 33.210938 "/>
<path style=" stroke:none;fill-rule:evenodd;fill:rgb(60.392157%,59.215686%,57.647059%);fill-opacity:1;" d="M 15.972656 33.28125 C 16 33.28125 16.023438 33.28125 16.046875 33.28125 C 16.046875 33.3125 16.046875 33.34375 16.046875 33.378906 C 15.996094 33.382812 15.949219 33.378906 15.902344 33.367188 C 15.929688 33.339844 15.957031 33.3125 15.972656 33.28125 Z M 15.972656 33.28125 "/>
<path style=" stroke:none;fill-rule:evenodd;fill:rgb(34.901961%,34.117647%,32.941176%);fill-opacity:1;" d="M 18.109375 33.351562 C 18.277344 33.371094 18.445312 33.386719 18.613281 33.402344 C 18.414062 33.40625 18.214844 33.402344 18.015625 33.390625 C 18.046875 33.378906 18.082031 33.367188 18.109375 33.351562 Z M 18.109375 33.351562 "/>
<path style=" stroke:none;fill-rule:evenodd;fill:rgb(52.941176%,51.764706%,50.196078%);fill-opacity:1;" d="M 21.785156 33.351562 C 21.796875 33.355469 21.804688 33.363281 21.808594 33.378906 C 21.59375 33.402344 21.375 33.410156 21.160156 33.402344 C 21.367188 33.386719 21.574219 33.371094 21.785156 33.351562 Z M 21.785156 33.351562 "/>
<path style=" stroke:none;fill-rule:evenodd;fill:rgb(58.039216%,56.470588%,54.901961%);fill-opacity:1;" d="M 32.992188 33.351562 C 33.015625 33.394531 33.023438 33.445312 33.015625 33.496094 C 32.972656 33.503906 32.933594 33.496094 32.898438 33.472656 C 32.929688 33.433594 32.960938 33.394531 32.992188 33.351562 Z M 32.992188 33.351562 "/>
<path style=" stroke:none;fill-rule:evenodd;fill:rgb(38.431373%,37.647059%,36.470588%);fill-opacity:1;" d="M 34.699219 33.402344 C 34.71875 33.425781 34.726562 33.457031 34.722656 33.496094 C 34.554688 33.5 34.386719 33.496094 34.21875 33.484375 C 34.230469 33.46875 34.246094 33.457031 34.265625 33.449219 C 34.40625 33.472656 34.550781 33.480469 34.699219 33.472656 C 34.699219 33.449219 34.699219 33.425781 34.699219 33.402344 Z M 34.699219 33.402344 "/>
</g>
</svg>
