<?xml version="1.0" encoding="UTF-8"?>
<svg xmlns="http://www.w3.org/2000/svg" xmlns:xlink="http://www.w3.org/1999/xlink" width="50pt" height="50pt" viewBox="0 0 50 50" version="1.1">
<defs>
<filter id="alpha" filterUnits="objectBoundingBox" x="0%" y="0%" width="100%" height="100%">
  <feColorMatrix type="matrix" in="SourceGraphic" values="0 0 0 0 1 0 0 0 0 1 0 0 0 0 1 0 0 0 1 0"/>
</filter>
<mask id="mask0">
  <g filter="url(#alpha)">
<rect x="0" y="0" width="50" height="50" style="fill:rgb(0%,0%,0%);fill-opacity:0.878431;stroke:none;"/>
  </g>
</mask>
<clipPath id="clip1">
  <rect width="50" height="50"/>
</clipPath>
<g id="surface6" clip-path="url(#clip1)">
<path style=" stroke:none;fill-rule:evenodd;fill:rgb(0.392157%,0.392157%,0.392157%);fill-opacity:1;" d="M 11.445312 8.179688 C 11.386719 8.121094 11.324219 8.121094 11.253906 8.179688 C 11.257812 8.210938 11.273438 8.226562 11.300781 8.230469 C 11.710938 9.378906 12.121094 10.53125 12.523438 11.683594 C 13.054688 12.886719 13.644531 14.054688 14.300781 15.1875 C 14.429688 15.492188 14.5 15.8125 14.515625 16.148438 C 15.695312 16.21875 16.519531 16.796875 16.988281 17.875 C 17.191406 18.566406 16.945312 18.980469 16.242188 19.121094 C 16.539062 19.765625 16.898438 20.371094 17.324219 20.945312 C 18.4375 22.046875 19.503906 23.1875 20.511719 24.375 C 20.808594 24.628906 21.113281 24.867188 21.425781 25.097656 C 21.535156 25.128906 21.648438 25.128906 21.761719 25.097656 C 21.839844 24.984375 21.921875 24.871094 22 24.761719 C 22.0625 24.738281 22.128906 24.730469 22.191406 24.734375 C 22.191406 24.800781 22.191406 24.863281 22.191406 24.929688 C 22.304688 24.929688 22.417969 24.929688 22.527344 24.929688 C 22.9375 25.015625 23.335938 25.144531 23.726562 25.3125 C 23.832031 25.328125 23.921875 25.375 23.992188 25.457031 C 24.148438 25.128906 24.339844 24.824219 24.566406 24.542969 C 25.453125 23.578125 26.359375 22.625 27.277344 21.6875 C 27.679688 21.394531 28.09375 21.121094 28.527344 20.875 C 28.894531 20.519531 29.25 20.152344 29.582031 19.769531 C 30.925781 18.730469 32.332031 17.789062 33.804688 16.9375 C 34.261719 16.601562 34.726562 16.273438 35.195312 15.953125 C 35.066406 15.65625 35.089844 15.367188 35.269531 15.089844 C 35.746094 14.574219 36.335938 14.351562 37.042969 14.417969 C 37.84375 14.382812 38.53125 14.636719 39.109375 15.1875 C 39.585938 15.984375 39.386719 16.554688 38.507812 16.890625 C 38.363281 16.929688 38.222656 16.960938 38.074219 16.988281 C 37.671875 17.011719 37.273438 16.996094 36.875 16.9375 C 37.675781 17.878906 38.488281 18.808594 39.324219 19.722656 C 39.886719 20.234375 40.460938 20.730469 41.050781 21.210938 C 42.234375 22.074219 43.417969 22.9375 44.601562 23.800781 C 45.097656 24.246094 45.574219 24.710938 46.042969 25.191406 C 46.257812 25.101562 46.480469 25.003906 46.714844 24.902344 C 47.351562 24.707031 47.957031 24.773438 48.535156 25.097656 C 49.007812 25.617188 49.09375 26.199219 48.800781 26.847656 C 48.347656 27.503906 47.714844 27.820312 46.90625 27.808594 C 46.394531 27.800781 45.917969 27.679688 45.464844 27.445312 C 45.183594 27.1875 45.109375 26.875 45.25 26.511719 C 45.328125 26.320312 45.433594 26.144531 45.5625 25.984375 C 45.503906 25.96875 45.449219 25.953125 45.394531 25.9375 C 44.730469 26.019531 44.066406 26.074219 43.402344 26.105469 C 40.730469 26.105469 38.058594 26.140625 35.390625 26.199219 C 33.574219 26.355469 31.769531 26.5625 29.964844 26.824219 C 28.546875 26.894531 27.140625 27.054688 25.742188 27.304688 C 25.421875 27.332031 25.101562 27.324219 24.785156 27.277344 C 24.785156 27.378906 24.765625 27.472656 24.734375 27.566406 C 24.5625 27.96875 24.324219 28.328125 24.015625 28.648438 C 24.027344 28.664062 24.042969 28.675781 24.0625 28.671875 C 25.574219 29.769531 27.078125 30.882812 28.574219 32.003906 C 28.804688 32.132812 29.027344 32.269531 29.246094 32.414062 C 29.75 31.945312 30.339844 31.761719 31.023438 31.863281 C 31.503906 31.996094 31.746094 32.316406 31.742188 32.820312 C 31.691406 33.738281 31.277344 34.425781 30.496094 34.886719 C 29.792969 35.085938 29.121094 35.007812 28.480469 34.644531 C 28.210938 34.390625 28.097656 34.078125 28.144531 33.710938 C 28.175781 33.480469 28.265625 33.273438 28.40625 33.085938 C 28.578125 32.921875 28.769531 32.796875 28.984375 32.703125 C 28.992188 32.621094 28.953125 32.574219 28.863281 32.558594 C 27.167969 31.34375 25.488281 30.101562 23.824219 28.839844 C 23.492188 28.898438 23.171875 28.859375 22.863281 28.71875 C 21.929688 29.980469 21.089844 31.308594 20.34375 32.703125 C 19.324219 34.179688 18.324219 35.660156 17.347656 37.140625 C 17.769531 38.222656 17.464844 39.019531 16.433594 39.539062 C 15.679688 39.710938 15.277344 39.40625 15.234375 38.628906 C 15.230469 38.28125 15.328125 37.96875 15.523438 37.691406 C 15.816406 37.28125 16.214844 37.09375 16.722656 37.140625 C 16.761719 37.15625 16.792969 37.179688 16.820312 37.210938 C 15.984375 37.257812 15.535156 37.695312 15.476562 38.53125 C 15.457031 38.734375 15.503906 38.917969 15.617188 39.082031 C 15.617188 39.117188 15.636719 39.132812 15.667969 39.132812 C 15.773438 39.253906 15.910156 39.316406 16.074219 39.324219 C 16.640625 39.175781 17.023438 38.824219 17.226562 38.269531 C 17.273438 37.765625 17.160156 37.300781 16.890625 36.875 C 16.835938 36.808594 16.765625 36.773438 16.675781 36.78125 C 16.558594 36.796875 16.445312 36.832031 16.339844 36.875 C 16.285156 36.867188 16.238281 36.851562 16.195312 36.828125 C 16.242188 36.582031 16.394531 36.472656 16.652344 36.492188 C 16.917969 36.503906 17.109375 36.632812 17.226562 36.875 C 18.128906 35.414062 19.089844 33.988281 20.105469 32.605469 C 20.472656 31.980469 20.839844 31.359375 21.210938 30.734375 C 21.710938 30.058594 22.183594 29.363281 22.625 28.648438 C 21.65625 27.816406 21.320312 26.777344 21.617188 25.527344 C 21.394531 25.539062 21.269531 25.433594 21.234375 25.214844 C 20.570312 24.769531 19.96875 24.242188 19.433594 23.632812 C 18.683594 22.738281 17.882812 21.890625 17.035156 21.089844 C 16.632812 20.464844 16.234375 19.839844 15.835938 19.21875 C 15.804688 19.132812 15.8125 19.054688 15.859375 18.976562 C 16.179688 18.886719 16.457031 18.726562 16.699219 18.5 C 16.761719 18 16.59375 17.582031 16.195312 17.25 C 15.894531 16.847656 15.496094 16.585938 14.996094 16.457031 C 14.230469 16.277344 13.679688 16.539062 13.339844 17.25 C 13.1875 17.660156 13.273438 18.003906 13.605469 18.28125 C 14.1875 18.644531 14.828125 18.804688 15.523438 18.761719 C 15.566406 18.828125 15.582031 18.898438 15.570312 18.976562 C 14.683594 19.089844 13.898438 18.863281 13.21875 18.304688 C 13.207031 18.269531 13.183594 18.234375 13.148438 18.210938 C 12.6875 18.492188 12.214844 18.757812 11.730469 19 C 10.738281 19.40625 9.730469 19.777344 8.710938 20.105469 C 8.25 20.289062 7.800781 20.496094 7.367188 20.730469 C 7.800781 21.457031 7.640625 22.015625 6.886719 22.410156 C 6.828125 22.496094 6.789062 22.585938 6.765625 22.671875 C 7.308594 23.25 7.851562 23.824219 8.398438 24.398438 C 9.042969 24.03125 9.691406 24.023438 10.339844 24.375 C 10.566406 24.585938 10.621094 24.835938 10.507812 25.121094 C 10.445312 25.28125 10.355469 25.425781 10.246094 25.550781 C 10.089844 25.660156 10.089844 25.722656 10.246094 25.742188 C 13.996094 26.277344 17.769531 26.722656 21.570312 27.085938 C 21.570312 27.152344 21.570312 27.214844 21.570312 27.277344 C 17.859375 27.046875 14.167969 26.679688 10.484375 26.175781 C 9.734375 26.683594 8.980469 26.671875 8.230469 26.152344 C 7.679688 25.636719 7.664062 25.109375 8.179688 24.566406 C 7.484375 24 6.894531 23.34375 6.40625 22.601562 C 6.160156 22.585938 5.921875 22.546875 5.6875 22.480469 C 5.5 22.371094 5.308594 22.257812 5.109375 22.144531 C 5.0625 22.164062 5.0625 22.199219 5.109375 22.242188 C 5.207031 22.320312 5.304688 22.402344 5.398438 22.480469 C 5.574219 22.648438 5.757812 22.808594 5.949219 22.960938 C 6.003906 22.886719 6.074219 22.855469 6.167969 22.863281 C 5.925781 23.394531 5.644531 23.90625 5.328125 24.398438 C 4.601562 26.039062 3.800781 27.640625 2.925781 29.199219 C 2.707031 29.796875 2.515625 30.402344 2.351562 31.023438 C 2.292969 31.136719 2.238281 31.246094 2.183594 31.359375 C 1.914062 31.605469 1.960938 31.660156 2.328125 31.527344 C 2.75 31.453125 3.152344 31.515625 3.527344 31.71875 C 3.765625 31.867188 3.894531 32.085938 3.910156 32.367188 C 3.875 32.777344 3.699219 33.121094 3.382812 33.398438 C 3.054688 33.707031 2.671875 33.914062 2.230469 34.019531 C 1.792969 34.097656 1.375 34.03125 0.984375 33.828125 C 0.652344 33.605469 0.507812 33.292969 0.550781 32.894531 C 0.625 32.699219 0.710938 32.507812 0.816406 32.316406 C 1.109375 32.015625 1.40625 31.726562 1.703125 31.453125 C 1.863281 31.265625 2 31.058594 2.109375 30.832031 C 2.273438 30.25 2.449219 29.671875 2.640625 29.101562 C 3.558594 27.535156 4.390625 25.921875 5.132812 24.257812 C 5.34375 23.925781 5.558594 23.597656 5.78125 23.273438 C 5.195312 22.90625 4.738281 22.421875 4.414062 21.808594 C 4.207031 21.273438 4.269531 20.777344 4.605469 20.320312 C 4.867188 20.070312 5.179688 19.960938 5.542969 19.984375 C 6.097656 20.007812 6.609375 20.167969 7.078125 20.464844 C 7.464844 20.300781 7.847656 20.132812 8.230469 19.960938 C 9.390625 19.589844 10.542969 19.191406 11.683594 18.761719 C 12.15625 18.535156 12.621094 18.292969 13.074219 18.042969 C 12.945312 17.652344 12.984375 17.277344 13.195312 16.914062 C 13.457031 16.484375 13.832031 16.210938 14.324219 16.097656 C 14.289062 15.886719 14.230469 15.679688 14.15625 15.476562 C 13.558594 14.457031 13 13.417969 12.476562 12.355469 C 12.050781 11.332031 11.667969 10.292969 11.324219 9.238281 C 10.929688 9.019531 10.523438 8.820312 10.101562 8.636719 C 9.476562 8 9.355469 7.273438 9.742188 6.453125 C 10.339844 5.59375 11.101562 5.425781 12.019531 5.949219 C 12.625 6.421875 12.777344 7.003906 12.476562 7.703125 C 12.207031 8.023438 11.863281 8.183594 11.445312 8.179688 Z M 11.78125 6.261719 C 12.09375 6.449219 12.269531 6.726562 12.308594 7.101562 C 12.285156 7.347656 12.171875 7.53125 11.972656 7.652344 C 12.148438 7.152344 12.082031 6.691406 11.78125 6.261719 Z M 10.101562 8.085938 C 10.378906 8.246094 10.683594 8.328125 11.011719 8.324219 C 11.039062 8.46875 11.085938 8.605469 11.15625 8.734375 C 10.738281 8.628906 10.386719 8.410156 10.101562 8.085938 Z M 38.890625 15.570312 C 39.101562 15.96875 38.992188 16.257812 38.554688 16.433594 C 38.828125 16.210938 38.9375 15.921875 38.890625 15.570312 Z M 35.292969 16.195312 C 35.550781 16.4375 35.855469 16.605469 36.203125 16.699219 C 36.921875 17.535156 37.632812 18.375 38.339844 19.21875 C 39.367188 20.292969 40.476562 21.261719 41.675781 22.121094 C 42.648438 22.789062 43.609375 23.476562 44.554688 24.183594 C 45.019531 24.585938 45.441406 25.007812 45.824219 25.457031 C 45.800781 25.480469 45.777344 25.503906 45.753906 25.527344 C 44.863281 25.65625 43.964844 25.734375 43.066406 25.769531 C 40.523438 25.773438 37.980469 25.804688 35.4375 25.863281 C 32.828125 26.15625 30.222656 26.445312 27.613281 26.726562 C 27.054688 26.816406 26.496094 26.914062 25.9375 27.015625 C 25.566406 27.054688 25.199219 27.046875 24.832031 26.992188 C 24.898438 26.449219 24.722656 26.003906 24.304688 25.648438 C 24.460938 25.234375 24.695312 24.867188 25 24.542969 C 25.578125 23.996094 26.121094 23.421875 26.632812 22.816406 C 27.28125 22.070312 28.039062 21.472656 28.910156 21.015625 C 29.292969 20.523438 29.726562 20.074219 30.207031 19.671875 C 31.910156 18.519531 33.605469 17.359375 35.292969 16.195312 Z M 16.195312 17.25 C 16.59375 17.582031 16.761719 18 16.699219 18.5 C 16.457031 18.726562 16.179688 18.886719 15.859375 18.976562 C 16.273438 18.464844 16.386719 17.886719 16.195312 17.25 Z M 5.925781 20.417969 C 6.160156 20.472656 6.386719 20.558594 6.597656 20.679688 C 6.539062 20.734375 6.476562 20.773438 6.40625 20.800781 C 6.265625 20.652344 6.105469 20.523438 5.925781 20.417969 Z M 6.261719 22.191406 C 6.527344 21.875 6.621094 21.507812 6.550781 21.089844 C 6.695312 21.046875 6.832031 20.980469 6.957031 20.898438 C 7.398438 21.320312 7.359375 21.695312 6.835938 22.023438 C 6.660156 22.132812 6.46875 22.191406 6.261719 22.191406 Z M 9.09375 24.59375 C 9.398438 24.515625 9.703125 24.539062 10.003906 24.664062 C 10.179688 24.816406 10.179688 24.96875 10.003906 25.121094 C 9.769531 24.832031 9.464844 24.65625 9.09375 24.59375 Z M 48.25 26.894531 C 48.261719 26.179688 47.910156 25.753906 47.191406 25.625 C 46.902344 25.589844 46.617188 25.597656 46.328125 25.648438 C 46.546875 25.347656 46.847656 25.195312 47.242188 25.191406 C 47.824219 25.089844 48.265625 25.289062 48.558594 25.792969 C 48.652344 26.222656 48.550781 26.589844 48.25 26.894531 Z M 31.214844 33.613281 C 31.195312 33.117188 30.953125 32.773438 30.496094 32.582031 C 30.277344 32.5 30.050781 32.441406 29.824219 32.414062 C 30.265625 32.113281 30.726562 32.074219 31.214844 32.292969 C 31.460938 32.585938 31.515625 32.914062 31.382812 33.277344 C 31.351562 33.40625 31.292969 33.519531 31.214844 33.613281 Z M 1.03125 33.421875 C 1.570312 33.59375 2.113281 33.609375 2.664062 33.46875 C 2.253906 33.773438 1.804688 33.832031 1.320312 33.636719 C 1.195312 33.597656 1.097656 33.527344 1.03125 33.421875 Z M 1.03125 33.421875 "/>
</g>
<mask id="mask1">
  <g filter="url(#alpha)">
<rect x="0" y="0" width="50" height="50" style="fill:rgb(0%,0%,0%);fill-opacity:0.980392;stroke:none;"/>
  </g>
</mask>
<clipPath id="clip2">
  <rect width="50" height="50"/>
</clipPath>
<g id="surface9" clip-path="url(#clip2)">
<path style=" stroke:none;fill-rule:evenodd;fill:rgb(62.352941%,56.470588%,58.431373%);fill-opacity:1;" d="M 11.589844 6.117188 C 11.605469 6.160156 11.636719 6.175781 11.683594 6.167969 C 11.683594 6.199219 11.699219 6.214844 11.730469 6.214844 C 11.730469 6.246094 11.75 6.261719 11.78125 6.261719 C 12.082031 6.691406 12.148438 7.152344 11.972656 7.652344 C 11.695312 7.9375 11.390625 7.960938 11.058594 7.726562 C 10.945312 7.679688 10.863281 7.710938 10.820312 7.820312 C 10.878906 7.992188 10.941406 8.160156 11.011719 8.324219 C 10.683594 8.328125 10.378906 8.246094 10.101562 8.085938 C 10.101562 8.054688 10.085938 8.039062 10.054688 8.039062 C 9.769531 7.472656 9.808594 6.929688 10.171875 6.40625 C 10.574219 5.953125 11.046875 5.855469 11.589844 6.117188 Z M 11.589844 6.117188 "/>
</g>
<mask id="mask2">
  <g filter="url(#alpha)">
<rect x="0" y="0" width="50" height="50" style="fill:rgb(0%,0%,0%);fill-opacity:0.345098;stroke:none;"/>
  </g>
</mask>
<clipPath id="clip3">
  <rect width="50" height="50"/>
</clipPath>
<g id="surface12" clip-path="url(#clip3)">
<path style=" stroke:none;fill-rule:evenodd;fill:rgb(52.54902%,47.843137%,49.411765%);fill-opacity:1;" d="M 11.445312 8.179688 C 11.402344 8.210938 11.355469 8.226562 11.300781 8.230469 C 11.273438 8.226562 11.257812 8.210938 11.253906 8.179688 C 11.324219 8.121094 11.386719 8.121094 11.445312 8.179688 Z M 11.445312 8.179688 "/>
</g>
<mask id="mask3">
  <g filter="url(#alpha)">
<rect x="0" y="0" width="50" height="50" style="fill:rgb(0%,0%,0%);fill-opacity:0.996078;stroke:none;"/>
  </g>
</mask>
<clipPath id="clip4">
  <rect width="50" height="50"/>
</clipPath>
<g id="surface15" clip-path="url(#clip4)">
<path style=" stroke:none;fill-rule:evenodd;fill:rgb(61.960784%,56.470588%,58.039216%);fill-opacity:1;" d="M 38.890625 15.570312 C 38.9375 15.921875 38.828125 16.210938 38.554688 16.433594 C 38.523438 16.433594 38.507812 16.449219 38.507812 16.484375 C 38.460938 16.472656 38.429688 16.492188 38.410156 16.53125 C 37.535156 16.824219 36.769531 16.65625 36.109375 16.027344 C 36.042969 15.996094 35.980469 15.996094 35.917969 16.027344 C 35.84375 16.175781 35.765625 16.175781 35.675781 16.027344 C 35.863281 15.960938 36.054688 15.9375 36.253906 15.953125 C 36.253906 15.90625 36.253906 15.859375 36.253906 15.8125 C 36.023438 15.796875 35.800781 15.8125 35.582031 15.859375 C 35.453125 15.648438 35.460938 15.441406 35.605469 15.234375 C 35.855469 14.964844 36.167969 14.8125 36.539062 14.777344 C 37.265625 14.648438 37.9375 14.777344 38.554688 15.164062 C 38.695312 15.28125 38.808594 15.414062 38.890625 15.570312 Z M 38.890625 15.570312 "/>
</g>
<mask id="mask4">
  <g filter="url(#alpha)">
<rect x="0" y="0" width="50" height="50" style="fill:rgb(0%,0%,0%);fill-opacity:0.980392;stroke:none;"/>
  </g>
</mask>
<clipPath id="clip5">
  <rect width="50" height="50"/>
</clipPath>
<g id="surface18" clip-path="url(#clip5)">
<path style=" stroke:none;fill-rule:evenodd;fill:rgb(62.352941%,56.470588%,58.431373%);fill-opacity:1;" d="M 16.195312 17.25 C 16.386719 17.886719 16.273438 18.464844 15.859375 18.976562 C 15.128906 19.539062 14.394531 19.546875 13.652344 19 C 13.464844 18.796875 13.320312 18.5625 13.21875 18.304688 C 13.898438 18.863281 14.683594 19.089844 15.570312 18.976562 C 15.582031 18.898438 15.566406 18.828125 15.523438 18.761719 C 14.828125 18.804688 14.1875 18.644531 13.605469 18.28125 C 13.273438 18.003906 13.1875 17.660156 13.339844 17.25 C 13.679688 16.539062 14.230469 16.277344 14.996094 16.457031 C 15.496094 16.585938 15.894531 16.847656 16.195312 17.25 Z M 16.195312 17.25 "/>
</g>
<mask id="mask5">
  <g filter="url(#alpha)">
<rect x="0" y="0" width="50" height="50" style="fill:rgb(0%,0%,0%);fill-opacity:0.972549;stroke:none;"/>
  </g>
</mask>
<clipPath id="clip6">
  <rect width="50" height="50"/>
</clipPath>
<g id="surface21" clip-path="url(#clip6)">
<path style=" stroke:none;fill-rule:evenodd;fill:rgb(61.568627%,56.078431%,57.647059%);fill-opacity:1;" d="M 5.832031 20.371094 C 5.847656 20.410156 5.878906 20.425781 5.925781 20.417969 C 6.105469 20.523438 6.265625 20.652344 6.40625 20.800781 C 5.976562 21.046875 5.511719 21.214844 5.015625 21.304688 C 4.890625 21.347656 4.785156 21.417969 4.703125 21.519531 C 4.5625 20.648438 4.9375 20.261719 5.832031 20.371094 Z M 5.832031 20.371094 "/>
</g>
<mask id="mask6">
  <g filter="url(#alpha)">
<rect x="0" y="0" width="50" height="50" style="fill:rgb(0%,0%,0%);fill-opacity:0.980392;stroke:none;"/>
  </g>
</mask>
<clipPath id="clip7">
  <rect width="50" height="50"/>
</clipPath>
<g id="surface24" clip-path="url(#clip7)">
<path style=" stroke:none;fill-rule:evenodd;fill:rgb(61.568627%,55.686275%,57.647059%);fill-opacity:1;" d="M 6.550781 21.089844 C 6.621094 21.507812 6.527344 21.875 6.261719 22.191406 C 6.125 22.21875 5.980469 22.210938 5.832031 22.167969 C 5.535156 22.027344 5.246094 21.878906 4.964844 21.714844 C 4.996094 21.652344 5.042969 21.609375 5.109375 21.59375 C 5.617188 21.496094 6.097656 21.328125 6.550781 21.089844 Z M 6.550781 21.089844 "/>
</g>
<mask id="mask7">
  <g filter="url(#alpha)">
<rect x="0" y="0" width="50" height="50" style="fill:rgb(0%,0%,0%);fill-opacity:0.819608;stroke:none;"/>
  </g>
</mask>
<clipPath id="clip8">
  <rect width="50" height="50"/>
</clipPath>
<g id="surface27" clip-path="url(#clip8)">
<path style=" stroke:none;fill-rule:evenodd;fill:rgb(58.431373%,52.941176%,54.901961%);fill-opacity:1;" d="M 5.6875 22.480469 C 5.589844 22.480469 5.496094 22.480469 5.398438 22.480469 C 5.304688 22.402344 5.207031 22.320312 5.109375 22.242188 C 5.0625 22.199219 5.0625 22.164062 5.109375 22.144531 C 5.308594 22.257812 5.5 22.371094 5.6875 22.480469 Z M 5.6875 22.480469 "/>
</g>
<mask id="mask8">
  <g filter="url(#alpha)">
<rect x="0" y="0" width="50" height="50" style="fill:rgb(0%,0%,0%);fill-opacity:0.984314;stroke:none;"/>
  </g>
</mask>
<clipPath id="clip9">
  <rect width="50" height="50"/>
</clipPath>
<g id="surface30" clip-path="url(#clip9)">
<path style=" stroke:none;fill-rule:evenodd;fill:rgb(62.352941%,56.470588%,58.431373%);fill-opacity:1;" d="M 9.09375 24.59375 C 9.464844 24.65625 9.769531 24.832031 10.003906 25.121094 C 9.917969 25.34375 9.796875 25.550781 9.644531 25.742188 C 9.605469 25.871094 9.628906 25.980469 9.71875 26.078125 C 9.140625 26.222656 8.671875 26.0625 8.300781 25.601562 C 8.230469 25.429688 8.214844 25.253906 8.253906 25.070312 C 8.460938 24.78125 8.742188 24.621094 9.09375 24.59375 Z M 9.09375 24.59375 "/>
</g>
<mask id="mask9">
  <g filter="url(#alpha)">
<rect x="0" y="0" width="50" height="50" style="fill:rgb(0%,0%,0%);fill-opacity:0.670588;stroke:none;"/>
  </g>
</mask>
<clipPath id="clip10">
  <rect width="50" height="50"/>
</clipPath>
<g id="surface33" clip-path="url(#clip10)">
<path style=" stroke:none;fill-rule:evenodd;fill:rgb(54.117647%,49.019608%,50.588235%);fill-opacity:1;" d="M 22.527344 24.929688 C 22.988281 24.882812 23.390625 25.011719 23.726562 25.3125 C 23.335938 25.144531 22.9375 25.015625 22.527344 24.929688 Z M 22.527344 24.929688 "/>
</g>
<mask id="mask10">
  <g filter="url(#alpha)">
<rect x="0" y="0" width="50" height="50" style="fill:rgb(0%,0%,0%);fill-opacity:0.690196;stroke:none;"/>
  </g>
</mask>
<clipPath id="clip11">
  <rect width="50" height="50"/>
</clipPath>
<g id="surface36" clip-path="url(#clip11)">
<path style=" stroke:none;fill-rule:evenodd;fill:rgb(55.294118%,50.196078%,52.156863%);fill-opacity:1;" d="M 10.246094 25.550781 C 10.246094 25.617188 10.246094 25.679688 10.246094 25.742188 C 10.089844 25.722656 10.089844 25.660156 10.246094 25.550781 Z M 10.246094 25.550781 "/>
</g>
<mask id="mask11">
  <g filter="url(#alpha)">
<rect x="0" y="0" width="50" height="50" style="fill:rgb(0%,0%,0%);fill-opacity:0.984314;stroke:none;"/>
  </g>
</mask>
<clipPath id="clip12">
  <rect width="50" height="50"/>
</clipPath>
<g id="surface39" clip-path="url(#clip12)">
<path style=" stroke:none;fill-rule:evenodd;fill:rgb(62.352941%,56.470588%,58.431373%);fill-opacity:1;" d="M 48.25 26.894531 C 48.214844 27 48.152344 27.085938 48.054688 27.160156 C 47.296875 27.554688 46.527344 27.570312 45.753906 27.207031 C 45.679688 27.136719 45.609375 27.0625 45.539062 26.992188 C 45.519531 26.722656 45.597656 26.480469 45.777344 26.273438 C 45.953125 26.054688 46.136719 25.847656 46.328125 25.648438 C 46.617188 25.597656 46.902344 25.589844 47.191406 25.625 C 47.910156 25.753906 48.261719 26.179688 48.25 26.894531 Z M 48.25 26.894531 "/>
</g>
<mask id="mask12">
  <g filter="url(#alpha)">
<rect x="0" y="0" width="50" height="50" style="fill:rgb(0%,0%,0%);fill-opacity:0.721569;stroke:none;"/>
  </g>
</mask>
<clipPath id="clip13">
  <rect width="50" height="50"/>
</clipPath>
<g id="surface42" clip-path="url(#clip13)">
<path style=" stroke:none;fill-rule:evenodd;fill:rgb(60%,54.117647%,56.078431%);fill-opacity:1;" d="M 24.734375 27.566406 C 24.71875 28.070312 24.492188 28.4375 24.0625 28.671875 C 24.042969 28.675781 24.027344 28.664062 24.015625 28.648438 C 24.324219 28.328125 24.5625 27.96875 24.734375 27.566406 Z M 24.734375 27.566406 "/>
</g>
<mask id="mask13">
  <g filter="url(#alpha)">
<rect x="0" y="0" width="50" height="50" style="fill:rgb(0%,0%,0%);fill-opacity:0.843137;stroke:none;"/>
  </g>
</mask>
<clipPath id="clip14">
  <rect width="50" height="50"/>
</clipPath>
<g id="surface45" clip-path="url(#clip14)">
<path style=" stroke:none;fill-rule:evenodd;fill:rgb(60.784314%,54.901961%,56.862745%);fill-opacity:1;" d="M 3.910156 32.367188 C 3.894531 32.085938 3.765625 31.867188 3.527344 31.71875 C 3.152344 31.515625 2.75 31.453125 2.328125 31.527344 C 1.960938 31.660156 1.914062 31.605469 2.183594 31.359375 C 2.78125 31.234375 3.320312 31.359375 3.789062 31.742188 C 3.929688 31.941406 3.96875 32.148438 3.910156 32.367188 Z M 3.910156 32.367188 "/>
</g>
<mask id="mask14">
  <g filter="url(#alpha)">
<rect x="0" y="0" width="50" height="50" style="fill:rgb(0%,0%,0%);fill-opacity:0.827451;stroke:none;"/>
  </g>
</mask>
<clipPath id="clip15">
  <rect width="50" height="50"/>
</clipPath>
<g id="surface48" clip-path="url(#clip15)">
<path style=" stroke:none;fill-rule:evenodd;fill:rgb(59.607843%,54.117647%,56.078431%);fill-opacity:1;" d="M 1.703125 31.453125 C 1.40625 31.726562 1.109375 32.015625 0.816406 32.316406 C 0.710938 32.507812 0.625 32.699219 0.550781 32.894531 C 0.511719 32.417969 0.6875 32.042969 1.078125 31.765625 C 1.277344 31.636719 1.484375 31.53125 1.703125 31.453125 Z M 1.703125 31.453125 "/>
</g>
<mask id="mask15">
  <g filter="url(#alpha)">
<rect x="0" y="0" width="50" height="50" style="fill:rgb(0%,0%,0%);fill-opacity:0.988235;stroke:none;"/>
  </g>
</mask>
<clipPath id="clip16">
  <rect width="50" height="50"/>
</clipPath>
<g id="surface51" clip-path="url(#clip16)">
<path style=" stroke:none;fill-rule:evenodd;fill:rgb(62.352941%,56.470588%,58.431373%);fill-opacity:1;" d="M 2.710938 33.46875 C 2.695312 33.46875 2.679688 33.46875 2.664062 33.46875 C 2.113281 33.609375 1.570312 33.59375 1.03125 33.421875 C 0.878906 33.324219 0.816406 33.179688 0.839844 32.988281 C 0.921875 32.585938 1.140625 32.265625 1.488281 32.03125 C 1.460938 32.21875 1.460938 32.410156 1.488281 32.605469 C 1.554688 32.65625 1.625 32.664062 1.703125 32.628906 C 1.707031 32.019531 2.019531 31.738281 2.640625 31.789062 C 3.023438 31.769531 3.339844 31.894531 3.597656 32.171875 C 3.652344 32.605469 3.5 32.949219 3.144531 33.207031 C 3.011719 33.320312 2.867188 33.40625 2.710938 33.46875 Z M 2.710938 33.46875 "/>
</g>
<mask id="mask16">
  <g filter="url(#alpha)">
<rect x="0" y="0" width="50" height="50" style="fill:rgb(0%,0%,0%);fill-opacity:0.988235;stroke:none;"/>
  </g>
</mask>
<clipPath id="clip17">
  <rect width="50" height="50"/>
</clipPath>
<g id="surface54" clip-path="url(#clip17)">
<path style=" stroke:none;fill-rule:evenodd;fill:rgb(62.352941%,56.470588%,58.431373%);fill-opacity:1;" d="M 29.824219 32.414062 C 30.050781 32.441406 30.277344 32.5 30.496094 32.582031 C 30.953125 32.773438 31.195312 33.117188 31.214844 33.613281 C 30.9375 34.449219 30.363281 34.808594 29.488281 34.691406 C 29.195312 34.644531 28.925781 34.546875 28.671875 34.40625 C 28.378906 34.050781 28.355469 33.675781 28.597656 33.277344 C 28.65625 33.203125 28.730469 33.148438 28.816406 33.109375 C 29.074219 33.105469 29.332031 33.074219 29.582031 33.011719 C 29.632812 32.878906 29.601562 32.757812 29.488281 32.652344 C 29.558594 32.515625 29.671875 32.4375 29.824219 32.414062 Z M 29.824219 32.414062 "/>
</g>
<mask id="mask17">
  <g filter="url(#alpha)">
<rect x="0" y="0" width="50" height="50" style="fill:rgb(0%,0%,0%);fill-opacity:0.768627;stroke:none;"/>
  </g>
</mask>
<clipPath id="clip18">
  <rect width="50" height="50"/>
</clipPath>
<g id="surface57" clip-path="url(#clip18)">
<path style=" stroke:none;fill-rule:evenodd;fill:rgb(58.823529%,53.333333%,55.294118%);fill-opacity:1;" d="M 28.863281 32.558594 C 28.953125 32.574219 28.992188 32.621094 28.984375 32.703125 C 28.769531 32.796875 28.578125 32.921875 28.40625 33.085938 C 28.265625 33.273438 28.175781 33.480469 28.144531 33.710938 C 28.085938 33.332031 28.214844 33.019531 28.527344 32.773438 C 28.640625 32.699219 28.753906 32.628906 28.863281 32.558594 Z M 28.863281 32.558594 "/>
</g>
<mask id="mask18">
  <g filter="url(#alpha)">
<rect x="0" y="0" width="50" height="50" style="fill:rgb(0%,0%,0%);fill-opacity:0.988235;stroke:none;"/>
  </g>
</mask>
<clipPath id="clip19">
  <rect width="50" height="50"/>
</clipPath>
<g id="surface60" clip-path="url(#clip19)">
<path style=" stroke:none;fill-rule:evenodd;fill:rgb(61.960784%,56.078431%,58.039216%);fill-opacity:1;" d="M 15.667969 39.132812 C 15.636719 39.132812 15.617188 39.117188 15.617188 39.082031 C 15.503906 38.917969 15.457031 38.734375 15.476562 38.53125 C 15.535156 37.695312 15.984375 37.257812 16.820312 37.210938 C 16.792969 37.179688 16.761719 37.15625 16.722656 37.140625 C 16.214844 37.09375 15.816406 37.28125 15.523438 37.691406 C 15.632812 37.3125 15.855469 37.023438 16.195312 36.828125 C 16.238281 36.851562 16.285156 36.867188 16.339844 36.875 C 16.445312 36.832031 16.558594 36.796875 16.675781 36.78125 C 16.765625 36.773438 16.835938 36.808594 16.890625 36.875 C 17.160156 37.300781 17.273438 37.765625 17.226562 38.269531 C 17.023438 38.824219 16.640625 39.175781 16.074219 39.324219 C 15.910156 39.316406 15.773438 39.253906 15.667969 39.132812 Z M 15.667969 39.132812 "/>
</g>
</defs>
<g id="surface1">
<use xlink:href="#surface6" mask="url(#mask0)"/>
<use xlink:href="#surface9" mask="url(#mask1)"/>
<use xlink:href="#surface12" mask="url(#mask2)"/>
<use xlink:href="#surface15" mask="url(#mask3)"/>
<use xlink:href="#surface18" mask="url(#mask4)"/>
<use xlink:href="#surface21" mask="url(#mask5)"/>
<use xlink:href="#surface24" mask="url(#mask6)"/>
<use xlink:href="#surface27" mask="url(#mask7)"/>
<use xlink:href="#surface30" mask="url(#mask8)"/>
<use xlink:href="#surface33" mask="url(#mask9)"/>
<path style=" stroke:none;fill-rule:evenodd;fill:rgb(62.352941%,56.470588%,58.431373%);fill-opacity:1;" d="M 22.289062 25.214844 C 22.914062 25.265625 23.492188 25.464844 24.015625 25.816406 C 24.441406 26.113281 24.636719 26.519531 24.59375 27.039062 C 24.300781 27.042969 24.15625 27.1875 24.160156 27.472656 C 24.273438 27.4375 24.371094 27.375 24.449219 27.277344 C 24.40625 27.746094 24.199219 28.140625 23.824219 28.453125 C 23.746094 28.460938 23.675781 28.4375 23.609375 28.382812 C 23.496094 28.40625 23.472656 28.464844 23.535156 28.550781 C 23.316406 28.597656 23.105469 28.566406 22.914062 28.453125 C 21.878906 27.695312 21.535156 26.695312 21.882812 25.457031 C 22.007812 25.355469 22.144531 25.277344 22.289062 25.214844 Z M 22.289062 25.214844 "/>
<use xlink:href="#surface36" mask="url(#mask10)"/>
<use xlink:href="#surface39" mask="url(#mask11)"/>
<use xlink:href="#surface42" mask="url(#mask12)"/>
<use xlink:href="#surface45" mask="url(#mask13)"/>
<use xlink:href="#surface48" mask="url(#mask14)"/>
<use xlink:href="#surface51" mask="url(#mask15)"/>
<use xlink:href="#surface54" mask="url(#mask16)"/>
<use xlink:href="#surface57" mask="url(#mask17)"/>
<use xlink:href="#surface60" mask="url(#mask18)"/>
</g>
</svg>
