<?xml version="1.0" encoding="UTF-8"?>
<svg xmlns="http://www.w3.org/2000/svg" xmlns:xlink="http://www.w3.org/1999/xlink" width="50pt" height="50pt" viewBox="0 0 50 50" version="1.1">
<defs>
<filter id="alpha" filterUnits="objectBoundingBox" x="0%" y="0%" width="100%" height="100%">
  <feColorMatrix type="matrix" in="SourceGraphic" values="0 0 0 0 1 0 0 0 0 1 0 0 0 0 1 0 0 0 1 0"/>
</filter>
<mask id="mask0">
  <g filter="url(#alpha)">
<rect x="0" y="0" width="50" height="50" style="fill:rgb(0%,0%,0%);fill-opacity:0.996078;stroke:none;"/>
  </g>
</mask>
<clipPath id="clip1">
  <rect width="50" height="50"/>
</clipPath>
<g id="surface6" clip-path="url(#clip1)">
<path style=" stroke:none;fill-rule:evenodd;fill:rgb(66.666667%,23.137255%,18.039216%);fill-opacity:1;" d="M 23.609375 2.652344 C 27.585938 2.570312 31.289062 3.523438 34.722656 5.519531 C 35.46875 5.964844 36.207031 6.429688 36.929688 6.914062 C 38.953125 8.328125 40.929688 9.808594 42.859375 11.355469 C 45.199219 13.476562 46.898438 16.035156 47.960938 19.023438 C 50.480469 26.132812 49.382812 32.613281 44.671875 38.464844 C 42.363281 41.191406 39.640625 43.386719 36.496094 45.054688 C 31.101562 47.910156 25.414062 48.71875 19.429688 47.480469 C 13.886719 46.226562 9.296875 43.4375 5.664062 39.113281 C 3.195312 36.101562 1.578125 32.667969 0.816406 28.816406 C 0.273438 25.953125 0.433594 23.128906 1.296875 20.34375 C 1.929688 18.363281 2.777344 16.484375 3.839844 14.703125 C 4.433594 13.699219 5.058594 12.714844 5.714844 11.75 C 8.78125 7.855469 12.6875 5.164062 17.4375 3.671875 C 19.453125 3.0625 21.511719 2.722656 23.609375 2.652344 Z M 43.386719 34.890625 C 43.386719 34.925781 43.371094 34.949219 43.339844 34.960938 C 43.335938 34.925781 43.351562 34.902344 43.386719 34.890625 Z M 43.339844 34.960938 C 42.613281 35.976562 41.789062 36.914062 40.867188 37.769531 C 41.699219 36.839844 42.523438 35.90625 43.339844 34.960938 Z M 43.339844 34.960938 "/>
</g>
</defs>
<g id="surface1">
<use xlink:href="#surface6" mask="url(#mask0)"/>
<path style=" stroke:none;fill-rule:evenodd;fill:rgb(99.607843%,99.607843%,99.607843%);fill-opacity:1;" d="M 43.578125 34.648438 C 43.554688 34.679688 43.53125 34.710938 43.507812 34.746094 C 43.492188 34.746094 43.484375 34.753906 43.484375 34.769531 C 43.46875 34.769531 43.457031 34.777344 43.457031 34.792969 C 43.4375 34.800781 43.429688 34.816406 43.433594 34.839844 C 43.417969 34.839844 43.410156 34.847656 43.410156 34.867188 C 43.394531 34.867188 43.386719 34.875 43.386719 34.890625 C 43.351562 34.902344 43.335938 34.925781 43.339844 34.960938 C 42.523438 35.90625 41.699219 36.839844 40.867188 37.769531 C 40.851562 37.769531 40.84375 37.777344 40.84375 37.792969 C 40.828125 37.792969 40.820312 37.800781 40.820312 37.816406 C 40.800781 37.816406 40.792969 37.824219 40.792969 37.84375 C 40.777344 37.84375 40.769531 37.851562 40.769531 37.867188 C 40.753906 37.867188 40.746094 37.875 40.746094 37.890625 C 40.730469 37.890625 40.722656 37.898438 40.722656 37.914062 C 40.707031 37.914062 40.699219 37.921875 40.699219 37.9375 C 38.625 39.902344 36.304688 41.511719 33.738281 42.773438 C 30.042969 44.476562 26.171875 45.109375 22.121094 44.671875 C 18.519531 44.238281 15.253906 42.964844 12.324219 40.855469 C 9.757812 39.019531 7.699219 36.734375 6.144531 34 C 3.261719 28.738281 3.160156 23.417969 5.832031 18.039062 C 6.625 16.464844 7.511719 14.953125 8.496094 13.503906 C 11.195312 10.070312 14.664062 7.785156 18.902344 6.648438 C 21.785156 5.910156 24.691406 5.8125 27.617188 6.359375 C 29.652344 6.769531 31.558594 7.515625 33.328125 8.59375 C 34.804688 9.527344 36.269531 10.480469 37.722656 11.449219 C 38.875 12.238281 39.972656 13.101562 41.011719 14.042969 C 42.617188 15.546875 43.835938 17.316406 44.671875 19.359375 C 46.023438 22.605469 46.414062 25.96875 45.847656 29.441406 C 45.484375 31.355469 44.726562 33.089844 43.578125 34.648438 Z M 43.578125 34.648438 "/>
<path style=" stroke:none;fill-rule:evenodd;fill:rgb(66.666667%,23.137255%,18.039216%);fill-opacity:1;" d="M 18.878906 19.792969 C 19.171875 19.773438 19.449219 19.816406 19.71875 19.921875 C 19.835938 20.015625 19.929688 20.132812 19.996094 20.269531 C 20.054688 20.425781 20.117188 20.578125 20.1875 20.726562 C 20.460938 21.136719 20.726562 21.554688 20.980469 21.976562 C 21.085938 22.210938 21.195312 22.441406 21.316406 22.671875 C 21.398438 22.792969 21.492188 22.910156 21.589844 23.019531 C 21.75 23.054688 21.84375 23.144531 21.878906 23.296875 C 22.214844 23.3125 22.542969 23.375 22.863281 23.476562 C 23.128906 23.570312 23.273438 23.757812 23.296875 24.039062 C 23.257812 24.277344 23.242188 24.519531 23.257812 24.761719 C 23.351562 24.941406 23.414062 25.132812 23.453125 25.335938 C 23.515625 26.21875 23.675781 27.082031 23.933594 27.929688 C 23.988281 28.167969 24.035156 28.40625 24.074219 28.648438 C 24.136719 28.988281 24.121094 29.324219 24.027344 29.65625 C 24 29.78125 23.925781 29.855469 23.800781 29.886719 C 23.640625 29.902344 23.480469 29.902344 23.320312 29.886719 C 22.585938 29.800781 21.855469 29.71875 21.125 29.632812 C 21.09375 29.640625 21.066406 29.648438 21.039062 29.65625 C 21.074219 30.371094 20.820312 30.960938 20.269531 31.421875 C 19.871094 31.664062 19.507812 31.621094 19.179688 31.289062 C 19.042969 31.042969 18.964844 30.777344 18.9375 30.496094 C 18.933594 30.148438 18.921875 29.800781 18.902344 29.453125 C 18.152344 29.417969 17.398438 29.410156 16.648438 29.429688 C 15.667969 29.476562 14.691406 29.539062 13.71875 29.621094 C 13.484375 29.632812 13.253906 29.636719 13.023438 29.632812 C 13.09375 30.332031 12.914062 30.957031 12.480469 31.503906 C 11.917969 31.953125 11.511719 31.839844 11.257812 31.167969 C 11.117188 30.65625 11.089844 30.132812 11.171875 29.609375 C 11.152344 29.589844 11.128906 29.578125 11.101562 29.574219 C 10.734375 29.550781 10.363281 29.519531 9.996094 29.476562 C 9.566406 29.398438 9.355469 29.140625 9.375 28.695312 C 9.449219 28.308594 9.507812 27.914062 9.554688 27.519531 C 9.535156 26.136719 9.519531 24.75 9.503906 23.367188 C 9.535156 23.316406 9.578125 23.292969 9.636719 23.296875 C 10.054688 23.359375 10.46875 23.355469 10.886719 23.285156 C 11.128906 22.792969 11.402344 22.328125 11.714844 21.878906 C 11.988281 21.363281 12.285156 20.863281 12.613281 20.378906 C 12.683594 20.332031 12.753906 20.292969 12.828125 20.257812 C 13.324219 20.117188 13.828125 20.011719 14.34375 19.945312 C 15.726562 19.917969 17.109375 19.882812 18.496094 19.851562 C 18.625 19.832031 18.753906 19.808594 18.878906 19.792969 Z M 18.878906 19.792969 "/>
<path style=" stroke:none;fill-rule:evenodd;fill:rgb(0%,0%,0%);fill-opacity:1;" d="M 35.945312 19.792969 C 36.238281 19.769531 36.515625 19.816406 36.785156 19.921875 C 36.835938 19.949219 36.878906 19.988281 36.917969 20.03125 C 37.054688 20.269531 37.175781 20.519531 37.277344 20.773438 C 37.492188 21.101562 37.710938 21.429688 37.925781 21.757812 C 38.089844 22.101562 38.265625 22.4375 38.453125 22.769531 C 38.519531 22.859375 38.597656 22.941406 38.683594 23.019531 C 38.824219 23.0625 38.914062 23.15625 38.945312 23.296875 C 39.359375 23.308594 39.75 23.402344 40.121094 23.570312 C 40.273438 23.679688 40.355469 23.828125 40.363281 24.015625 C 40.320312 24.253906 40.308594 24.496094 40.328125 24.734375 C 40.390625 24.929688 40.453125 25.121094 40.519531 25.3125 C 40.5625 25.679688 40.601562 26.046875 40.636719 26.417969 C 40.808594 27.152344 40.976562 27.890625 41.144531 28.625 C 41.214844 29.027344 41.175781 29.421875 41.023438 29.800781 C 40.984375 29.835938 40.941406 29.867188 40.890625 29.886719 C 40.683594 29.902344 40.472656 29.902344 40.265625 29.886719 C 39.546875 29.789062 38.828125 29.703125 38.105469 29.632812 C 38.148438 30.359375 37.894531 30.953125 37.339844 31.421875 C 36.839844 31.710938 36.441406 31.613281 36.148438 31.121094 C 36.074219 30.910156 36.027344 30.695312 36.003906 30.472656 C 36 30.132812 35.988281 29.789062 35.96875 29.453125 C 35.21875 29.417969 34.464844 29.410156 33.714844 29.429688 C 32.503906 29.507812 31.296875 29.574219 30.089844 29.632812 C 30.160156 30.277344 30.011719 30.859375 29.644531 31.386719 C 29.480469 31.605469 29.265625 31.730469 28.996094 31.769531 C 28.660156 31.742188 28.441406 31.566406 28.347656 31.242188 C 28.191406 30.695312 28.152344 30.144531 28.242188 29.585938 C 27.84375 29.535156 27.441406 29.5 27.039062 29.476562 C 26.640625 29.398438 26.4375 29.15625 26.441406 28.746094 C 26.519531 28.324219 26.578125 27.898438 26.621094 27.472656 C 26.613281 26.101562 26.597656 24.734375 26.570312 23.367188 C 26.601562 23.316406 26.644531 23.292969 26.703125 23.296875 C 27.121094 23.359375 27.535156 23.355469 27.953125 23.285156 C 28.203125 22.777344 28.488281 22.292969 28.804688 21.832031 C 29.058594 21.355469 29.328125 20.890625 29.621094 20.4375 C 29.699219 20.359375 29.792969 20.300781 29.898438 20.257812 C 30.390625 20.105469 30.894531 20.003906 31.410156 19.945312 C 32.792969 19.917969 34.175781 19.882812 35.5625 19.851562 C 35.691406 19.832031 35.820312 19.808594 35.945312 19.792969 Z M 35.945312 19.792969 "/>
<path style=" stroke:none;fill-rule:evenodd;fill:rgb(99.607843%,99.607843%,99.607843%);fill-opacity:1;" d="M 18.664062 20.367188 C 18.863281 20.363281 19.0625 20.367188 19.261719 20.378906 C 19.335938 20.382812 19.394531 20.414062 19.441406 20.464844 C 19.5 20.644531 19.574219 20.820312 19.660156 20.992188 C 19.859375 21.355469 20.070312 21.714844 20.285156 22.070312 C 20.472656 22.460938 20.667969 22.84375 20.871094 23.222656 C 20.828125 23.230469 20.785156 23.238281 20.738281 23.246094 C 19.34375 23.136719 17.949219 23.097656 16.550781 23.140625 C 15.863281 23.1875 15.175781 23.222656 14.484375 23.246094 C 13.789062 23.210938 13.09375 23.171875 12.398438 23.128906 C 12.089844 23.117188 11.785156 23.140625 11.484375 23.199219 C 11.460938 23.191406 11.4375 23.183594 11.414062 23.175781 C 11.644531 22.722656 11.902344 22.292969 12.195312 21.878906 C 12.371094 21.515625 12.578125 21.171875 12.816406 20.847656 C 12.890625 20.773438 12.976562 20.710938 13.070312 20.667969 C 13.457031 20.566406 13.851562 20.488281 14.246094 20.425781 C 15.722656 20.425781 17.195312 20.40625 18.664062 20.367188 Z M 18.664062 20.367188 "/>
<path style=" stroke:none;fill-rule:evenodd;fill:rgb(99.215686%,99.215686%,99.215686%);fill-opacity:1;" d="M 35.515625 20.367188 C 35.792969 20.363281 36.074219 20.367188 36.355469 20.378906 C 36.414062 20.390625 36.464844 20.417969 36.511719 20.464844 C 36.574219 20.679688 36.664062 20.890625 36.773438 21.085938 C 36.972656 21.429688 37.175781 21.777344 37.375 22.121094 C 37.554688 22.492188 37.746094 22.859375 37.9375 23.222656 C 37.890625 23.230469 37.84375 23.238281 37.792969 23.246094 C 36.402344 23.144531 35.011719 23.105469 33.617188 23.140625 C 32.910156 23.199219 32.203125 23.234375 31.492188 23.246094 C 30.789062 23.210938 30.085938 23.171875 29.378906 23.128906 C 29.078125 23.132812 28.777344 23.15625 28.480469 23.199219 C 28.527344 23.046875 28.597656 22.902344 28.683594 22.769531 C 29.027344 22.265625 29.339844 21.746094 29.621094 21.207031 C 29.734375 21.042969 29.859375 20.890625 29.992188 20.738281 C 30.519531 20.550781 31.0625 20.441406 31.625 20.402344 C 32.21875 20.390625 32.808594 20.394531 33.402344 20.414062 C 34.109375 20.402344 34.8125 20.386719 35.515625 20.367188 Z M 35.515625 20.367188 "/>
<path style=" stroke:none;fill-rule:evenodd;fill:rgb(99.607843%,99.215686%,99.215686%);fill-opacity:1;" d="M 20.007812 25.265625 C 20.671875 25.234375 21.097656 25.539062 21.292969 26.175781 C 21.359375 26.949219 21.035156 27.488281 20.320312 27.796875 C 19.960938 27.9375 19.589844 27.960938 19.214844 27.867188 C 18.636719 27.660156 18.410156 27.253906 18.53125 26.65625 C 18.710938 26.140625 19.027344 25.726562 19.480469 25.421875 C 19.65625 25.355469 19.832031 25.304688 20.007812 25.265625 Z M 20.007812 25.265625 "/>
<path style=" stroke:none;fill-rule:evenodd;fill:rgb(99.215686%,99.215686%,99.215686%);fill-opacity:1;" d="M 37.027344 25.265625 C 37.710938 25.21875 38.15625 25.523438 38.359375 26.175781 C 38.4375 26.835938 38.195312 27.335938 37.625 27.675781 C 37.121094 27.96875 36.597656 28 36.066406 27.773438 C 35.667969 27.546875 35.503906 27.207031 35.574219 26.753906 C 35.726562 26.230469 36.015625 25.800781 36.449219 25.46875 C 36.636719 25.378906 36.828125 25.308594 37.027344 25.265625 Z M 37.027344 25.265625 "/>
<path style=" stroke:none;fill-rule:evenodd;fill:rgb(99.607843%,99.215686%,99.215686%);fill-opacity:1;" d="M 12.351562 25.433594 C 12.859375 25.378906 13.296875 25.527344 13.65625 25.886719 C 13.90625 26.234375 13.953125 26.613281 13.800781 27.015625 C 13.515625 27.714844 13.007812 27.964844 12.277344 27.773438 C 11.726562 27.519531 11.480469 27.089844 11.546875 26.488281 C 11.566406 25.941406 11.835938 25.589844 12.351562 25.433594 Z M 12.351562 25.433594 "/>
<path style=" stroke:none;fill-rule:evenodd;fill:rgb(99.215686%,99.215686%,99.215686%);fill-opacity:1;" d="M 29.417969 25.433594 C 29.929688 25.378906 30.363281 25.527344 30.726562 25.886719 C 30.925781 26.144531 30.996094 26.429688 30.941406 26.753906 C 30.84375 27.269531 30.550781 27.628906 30.066406 27.820312 C 29.390625 27.921875 28.914062 27.660156 28.636719 27.039062 C 28.554688 26.601562 28.621094 26.183594 28.828125 25.792969 C 28.992188 25.613281 29.1875 25.492188 29.417969 25.433594 Z M 29.417969 25.433594 "/>
</g>
</svg>
