<?xml version="1.0" encoding="UTF-8"?>
<svg xmlns="http://www.w3.org/2000/svg" xmlns:xlink="http://www.w3.org/1999/xlink" width="50pt" height="50pt" viewBox="0 0 50 50" version="1.1">
<defs>
<filter id="alpha" filterUnits="objectBoundingBox" x="0%" y="0%" width="100%" height="100%">
  <feColorMatrix type="matrix" in="SourceGraphic" values="0 0 0 0 1 0 0 0 0 1 0 0 0 0 1 0 0 0 1 0"/>
</filter>
<mask id="mask0">
  <g filter="url(#alpha)">
<rect x="0" y="0" width="50" height="50" style="fill:rgb(0%,0%,0%);fill-opacity:0.996078;stroke:none;"/>
  </g>
</mask>
<clipPath id="clip1">
  <rect width="50" height="50"/>
</clipPath>
<g id="surface6" clip-path="url(#clip1)">
<path style=" stroke:none;fill-rule:evenodd;fill:rgb(83.529412%,80.784314%,81.568627%);fill-opacity:1;" d="M 48.585938 4.101562 C 48.542969 4.117188 48.527344 4.152344 48.535156 4.199219 C 48.285156 4.964844 48.035156 5.730469 47.792969 6.5 C 47.667969 7.140625 47.546875 7.78125 47.433594 8.421875 C 47.402344 8.421875 47.386719 8.4375 47.386719 8.46875 C 47.242188 8.964844 47.058594 9.445312 46.832031 9.910156 C 45.75 12.15625 44.605469 14.363281 43.402344 16.53125 C 43.371094 16.53125 43.355469 16.546875 43.355469 16.578125 C 43.355469 16.59375 43.355469 16.609375 43.355469 16.625 C 43.320312 16.625 43.304688 16.644531 43.304688 16.675781 C 43.289062 16.707031 43.273438 16.738281 43.257812 16.769531 C 43.226562 16.769531 43.210938 16.785156 43.210938 16.820312 C 43.210938 16.835938 43.210938 16.851562 43.210938 16.867188 C 43.179688 16.867188 43.164062 16.882812 43.164062 16.914062 C 43.121094 16.929688 43.105469 16.964844 43.113281 17.011719 C 43.082031 17.011719 43.066406 17.027344 43.066406 17.058594 C 43.066406 17.074219 43.066406 17.089844 43.066406 17.105469 C 43.035156 17.105469 43.019531 17.121094 43.019531 17.15625 C 42.976562 17.171875 42.960938 17.203125 42.96875 17.25 C 42.929688 17.265625 42.914062 17.300781 42.921875 17.347656 C 42.890625 17.347656 42.875 17.363281 42.875 17.394531 C 42.835938 17.410156 42.816406 17.441406 42.828125 17.492188 C 42.742188 17.546875 42.695312 17.625 42.683594 17.730469 C 42.402344 18.128906 42.148438 18.546875 41.914062 18.976562 C 41.882812 18.976562 41.867188 18.992188 41.867188 19.027344 C 41.835938 19.027344 41.820312 19.042969 41.820312 19.074219 C 41.820312 19.089844 41.820312 19.105469 41.820312 19.121094 C 41.785156 19.121094 41.769531 19.136719 41.769531 19.167969 C 41.738281 19.167969 41.722656 19.1875 41.722656 19.21875 C 40.707031 20.769531 39.644531 22.289062 38.53125 23.777344 C 38.304688 24.148438 38.144531 24.550781 38.050781 24.976562 C 37.601562 25.585938 37.234375 26.242188 36.949219 26.945312 C 36.558594 27.574219 36.160156 28.199219 35.75 28.816406 C 35.210938 29.527344 34.679688 30.246094 34.164062 30.972656 C 33.824219 31.269531 33.480469 31.554688 33.132812 31.835938 C 33.101562 31.835938 33.085938 31.855469 33.085938 31.886719 C 33.054688 31.886719 33.039062 31.902344 33.039062 31.933594 C 33.003906 31.933594 32.988281 31.949219 32.988281 31.980469 C 32.957031 31.980469 32.941406 31.996094 32.941406 32.03125 C 32.410156 32.40625 31.898438 32.804688 31.40625 33.230469 C 31.195312 33.054688 30.957031 32.996094 30.6875 33.0625 C 30.503906 33.15625 30.308594 33.234375 30.109375 33.300781 C 29.984375 33.402344 29.886719 33.523438 29.824219 33.660156 C 29.78125 33.632812 29.730469 33.617188 29.679688 33.613281 C 29.671875 33.40625 29.679688 33.195312 29.703125 32.988281 C 30.09375 32.265625 30.464844 31.53125 30.804688 30.78125 C 31.292969 30.222656 31.597656 29.582031 31.71875 28.863281 C 31.636719 28.8125 31.546875 28.804688 31.453125 28.839844 C 31.320312 29.175781 31.183594 29.523438 31.046875 29.871094 C 30.570312 30.582031 30.105469 31.300781 29.65625 32.03125 C 29.390625 32.507812 29.167969 33.003906 28.984375 33.515625 C 28.773438 33.800781 28.523438 34.039062 28.238281 34.238281 C 28.222656 34.238281 28.207031 34.238281 28.191406 34.238281 C 28.230469 33.859375 28.070312 33.609375 27.710938 33.492188 C 27.355469 33.390625 27.003906 33.398438 26.65625 33.515625 C 26.597656 33.265625 26.550781 33.007812 26.511719 32.75 C 26.511719 32.664062 26.535156 32.582031 26.582031 32.507812 C 27.300781 31.652344 27.949219 30.738281 28.527344 29.773438 C 29.007812 29.289062 29.476562 28.792969 29.941406 28.285156 C 30.070312 28.148438 30.078125 28.011719 29.964844 27.878906 C 29.804688 27.820312 29.71875 27.878906 29.703125 28.046875 C 29.027344 28.738281 28.371094 29.441406 27.734375 30.160156 C 27.71875 30.222656 27.703125 30.285156 27.6875 30.351562 C 27.230469 30.941406 26.800781 31.550781 26.390625 32.171875 C 25.917969 32.59375 25.480469 33.042969 25.070312 33.515625 C 25.039062 33.515625 25.023438 33.535156 25.023438 33.566406 C 24.992188 33.566406 24.976562 33.582031 24.976562 33.613281 C 24.945312 33.613281 24.929688 33.628906 24.929688 33.660156 C 24.878906 33.652344 24.847656 33.667969 24.832031 33.710938 C 24.800781 33.710938 24.785156 33.726562 24.785156 33.757812 C 24.683594 33.828125 24.570312 33.859375 24.449219 33.851562 C 24.4375 33.6875 24.398438 33.527344 24.328125 33.375 C 24.152344 33.171875 23.953125 33.011719 23.726562 32.894531 C 23.980469 32.277344 24.21875 31.65625 24.449219 31.023438 C 24.449219 31.007812 24.449219 30.988281 24.449219 30.972656 C 24.480469 30.972656 24.496094 30.957031 24.496094 30.925781 C 24.996094 29.941406 25.484375 28.949219 25.960938 27.949219 C 26.222656 27.625 26.488281 27.296875 26.75 26.96875 C 27.289062 27.15625 27.832031 27.347656 28.382812 27.542969 C 28.917969 27.695312 29.460938 27.757812 30.015625 27.734375 C 30.632812 27.5625 30.898438 27.152344 30.804688 26.511719 C 30.59375 25.929688 30.28125 25.410156 29.871094 24.953125 C 30.265625 25.164062 30.683594 25.359375 31.117188 25.527344 C 31.898438 25.695312 32.285156 25.386719 32.269531 24.59375 C 32.261719 24.464844 32.253906 24.335938 32.246094 24.207031 C 32.175781 24.050781 32.121094 23.890625 32.078125 23.726562 C 32.871094 23.726562 33.238281 23.324219 33.179688 22.527344 C 33.191406 22.296875 33.152344 22.070312 33.0625 21.855469 C 32.699219 21.304688 32.34375 20.746094 32.003906 20.175781 C 31.648438 19.746094 31.3125 19.300781 31 18.832031 C 30.648438 18.527344 30.304688 18.214844 29.964844 17.898438 C 29.621094 17.671875 29.285156 17.429688 28.957031 17.179688 C 29.800781 17.511719 30.617188 17.910156 31.40625 18.378906 C 31.738281 18.511719 32.074219 18.527344 32.414062 18.425781 C 32.597656 18.300781 32.675781 18.125 32.652344 17.898438 C 32.652344 17.757812 32.628906 17.621094 32.582031 17.492188 C 32.285156 16.871094 31.875 16.335938 31.359375 15.882812 C 30.023438 14.796875 28.632812 13.796875 27.183594 12.882812 C 27.183594 12.867188 27.183594 12.851562 27.183594 12.835938 C 27.214844 12.835938 27.230469 12.820312 27.230469 12.789062 C 27.246094 12.757812 27.261719 12.722656 27.277344 12.691406 C 27.3125 12.691406 27.328125 12.675781 27.328125 12.644531 C 27.359375 12.644531 27.375 12.628906 27.375 12.597656 C 27.40625 12.597656 27.421875 12.578125 27.421875 12.546875 C 27.457031 12.546875 27.472656 12.53125 27.472656 12.5 C 31.089844 8.726562 34.722656 4.960938 38.363281 1.199219 C 39 0.863281 39.679688 0.695312 40.402344 0.695312 C 41.898438 0.800781 43.332031 1.160156 44.699219 1.777344 C 46.011719 2.378906 47.277344 3.066406 48.488281 3.839844 C 48.566406 3.90625 48.601562 3.996094 48.585938 4.101562 Z M 26.511719 32.75 C 26.550781 33.007812 26.597656 33.265625 26.65625 33.515625 C 26.457031 33.582031 26.269531 33.675781 26.105469 33.804688 C 26.148438 33.417969 26.285156 33.066406 26.511719 32.75 Z M 26.511719 32.75 "/>
</g>
<mask id="mask1">
  <g filter="url(#alpha)">
<rect x="0" y="0" width="50" height="50" style="fill:rgb(0%,0%,0%);fill-opacity:0.94902;stroke:none;"/>
  </g>
</mask>
<clipPath id="clip2">
  <rect width="50" height="50"/>
</clipPath>
<g id="surface9" clip-path="url(#clip2)">
<path style=" stroke:none;fill-rule:evenodd;fill:rgb(9.411765%,9.411765%,9.019608%);fill-opacity:1;" d="M 30.542969 8.230469 C 29.9375 8.941406 29.335938 9.660156 28.742188 10.390625 C 28.585938 10.671875 28.394531 10.925781 28.167969 11.15625 C 28.070312 11.355469 27.964844 11.546875 27.855469 11.730469 C 27.539062 12.054688 27.269531 12.414062 27.039062 12.8125 C 27.066406 12.847656 27.097656 12.871094 27.136719 12.882812 C 27.152344 12.882812 27.167969 12.882812 27.183594 12.882812 C 28.632812 13.796875 30.023438 14.796875 31.359375 15.882812 C 31.875 16.335938 32.285156 16.871094 32.582031 17.492188 C 32.628906 17.621094 32.652344 17.757812 32.652344 17.898438 C 32.675781 18.125 32.597656 18.300781 32.414062 18.425781 C 32.074219 18.527344 31.738281 18.511719 31.40625 18.378906 C 30.617188 17.910156 29.800781 17.511719 28.957031 17.179688 C 29.285156 17.429688 29.621094 17.671875 29.964844 17.898438 C 30.304688 18.214844 30.648438 18.527344 31 18.832031 C 31.3125 19.300781 31.648438 19.746094 32.003906 20.175781 C 32.34375 20.746094 32.699219 21.304688 33.0625 21.855469 C 33.152344 22.070312 33.191406 22.296875 33.179688 22.527344 C 33.238281 23.324219 32.871094 23.726562 32.078125 23.726562 C 32.121094 23.890625 32.175781 24.050781 32.246094 24.207031 C 32.253906 24.335938 32.261719 24.464844 32.269531 24.59375 C 32.285156 25.386719 31.898438 25.695312 31.117188 25.527344 C 30.683594 25.359375 30.265625 25.164062 29.871094 24.953125 C 30.28125 25.410156 30.59375 25.929688 30.804688 26.511719 C 30.898438 27.152344 30.632812 27.5625 30.015625 27.734375 C 29.460938 27.757812 28.917969 27.695312 28.382812 27.542969 C 27.832031 27.347656 27.289062 27.15625 26.75 26.96875 C 26.488281 27.296875 26.222656 27.625 25.960938 27.949219 C 25.484375 28.949219 24.996094 29.941406 24.496094 30.925781 C 24.464844 30.925781 24.449219 30.941406 24.449219 30.972656 C 24.449219 30.988281 24.449219 31.007812 24.449219 31.023438 C 23.902344 31.667969 23.375 32.332031 22.863281 33.011719 C 23.0625 32.96875 23.261719 32.910156 23.464844 32.84375 C 23.554688 32.855469 23.644531 32.871094 23.726562 32.894531 C 23.953125 33.011719 24.152344 33.171875 24.328125 33.375 C 24.398438 33.527344 24.4375 33.6875 24.449219 33.851562 C 24.570312 33.859375 24.683594 33.828125 24.785156 33.757812 C 24.816406 33.757812 24.832031 33.742188 24.832031 33.710938 C 24.878906 33.71875 24.910156 33.703125 24.929688 33.660156 C 24.960938 33.660156 24.976562 33.644531 24.976562 33.613281 C 25.007812 33.613281 25.023438 33.597656 25.023438 33.566406 C 25.054688 33.566406 25.070312 33.550781 25.070312 33.515625 C 25.480469 33.042969 25.917969 32.59375 26.390625 32.171875 C 26.800781 31.550781 27.230469 30.941406 27.6875 30.351562 C 27.703125 30.285156 27.71875 30.222656 27.734375 30.160156 C 28.371094 29.441406 29.027344 28.738281 29.703125 28.046875 C 29.71875 27.878906 29.804688 27.820312 29.964844 27.878906 C 30.078125 28.011719 30.070312 28.148438 29.941406 28.285156 C 29.476562 28.792969 29.007812 29.289062 28.527344 29.773438 C 27.949219 30.738281 27.300781 31.652344 26.582031 32.507812 C 26.535156 32.582031 26.511719 32.664062 26.511719 32.75 C 26.285156 33.066406 26.148438 33.417969 26.105469 33.804688 C 26.269531 33.675781 26.457031 33.582031 26.65625 33.515625 C 27.003906 33.398438 27.355469 33.390625 27.710938 33.492188 C 28.070312 33.609375 28.230469 33.859375 28.191406 34.238281 C 28.207031 34.300781 28.222656 34.300781 28.238281 34.238281 C 28.523438 34.039062 28.773438 33.800781 28.984375 33.515625 C 29.167969 33.003906 29.390625 32.507812 29.65625 32.03125 C 30.105469 31.300781 30.570312 30.582031 31.046875 29.871094 C 31.183594 29.523438 31.320312 29.175781 31.453125 28.839844 C 31.546875 28.804688 31.636719 28.8125 31.71875 28.863281 C 31.597656 29.582031 31.292969 30.222656 30.804688 30.78125 C 30.464844 31.53125 30.09375 32.265625 29.703125 32.988281 C 29.679688 33.195312 29.671875 33.40625 29.679688 33.613281 C 29.660156 33.972656 29.707031 33.988281 29.824219 33.660156 C 29.886719 33.523438 29.984375 33.402344 30.109375 33.300781 C 30.308594 33.234375 30.503906 33.15625 30.6875 33.0625 C 30.957031 32.996094 31.195312 33.054688 31.40625 33.230469 C 31.507812 33.300781 31.578125 33.398438 31.621094 33.515625 C 31.65625 33.488281 31.699219 33.464844 31.742188 33.445312 C 32.152344 32.980469 32.550781 32.507812 32.941406 32.03125 C 32.972656 32.03125 32.988281 32.015625 32.988281 31.980469 C 33.019531 31.980469 33.039062 31.964844 33.039062 31.933594 C 33.070312 31.933594 33.085938 31.917969 33.085938 31.886719 C 33.117188 31.886719 33.132812 31.871094 33.132812 31.835938 C 33.480469 31.554688 33.824219 31.269531 34.164062 30.972656 C 34.679688 30.246094 35.210938 29.527344 35.75 28.816406 C 36.160156 28.199219 36.558594 27.574219 36.949219 26.945312 C 37.234375 26.242188 37.601562 25.585938 38.050781 24.976562 C 38.144531 24.550781 38.304688 24.148438 38.53125 23.777344 C 39.644531 22.289062 40.707031 20.769531 41.722656 19.21875 C 41.753906 19.21875 41.769531 19.203125 41.769531 19.167969 C 41.800781 19.167969 41.820312 19.152344 41.820312 19.121094 C 41.820312 19.105469 41.820312 19.089844 41.820312 19.074219 C 41.851562 19.074219 41.867188 19.058594 41.867188 19.027344 C 41.898438 19.027344 41.914062 19.011719 41.914062 18.976562 C 42.21875 18.59375 42.472656 18.179688 42.683594 17.730469 C 42.765625 17.675781 42.8125 17.59375 42.828125 17.492188 C 42.867188 17.472656 42.882812 17.441406 42.875 17.394531 C 42.90625 17.394531 42.921875 17.378906 42.921875 17.347656 C 42.960938 17.328125 42.976562 17.296875 42.96875 17.25 C 43.011719 17.234375 43.027344 17.203125 43.019531 17.15625 C 43.050781 17.15625 43.066406 17.136719 43.066406 17.105469 C 43.066406 17.089844 43.066406 17.074219 43.066406 17.058594 C 43.097656 17.058594 43.113281 17.042969 43.113281 17.011719 C 43.15625 16.996094 43.171875 16.960938 43.164062 16.914062 C 43.195312 16.914062 43.210938 16.898438 43.210938 16.867188 C 43.210938 16.851562 43.210938 16.835938 43.210938 16.820312 C 43.242188 16.820312 43.257812 16.800781 43.257812 16.769531 C 43.273438 16.738281 43.289062 16.707031 43.304688 16.675781 C 43.339844 16.675781 43.355469 16.660156 43.355469 16.625 C 43.355469 16.609375 43.355469 16.59375 43.355469 16.578125 C 43.386719 16.578125 43.402344 16.5625 43.402344 16.53125 C 44.605469 14.363281 45.75 12.15625 46.832031 9.910156 C 47.058594 9.445312 47.242188 8.964844 47.386719 8.46875 C 47.417969 8.46875 47.433594 8.453125 47.433594 8.421875 C 47.546875 7.78125 47.667969 7.140625 47.792969 6.5 C 48.035156 5.730469 48.285156 4.964844 48.535156 4.199219 C 48.578125 4.183594 48.59375 4.148438 48.585938 4.101562 C 48.785156 3.886719 48.945312 3.636719 49.0625 3.359375 C 49.269531 3.285156 49.394531 3.347656 49.449219 3.550781 C 49.308594 3.78125 49.203125 4.03125 49.136719 4.292969 C 48.71875 5.78125 48.257812 7.253906 47.746094 8.710938 C 47.574219 9.550781 47.320312 10.367188 46.976562 11.15625 C 46.332031 12.339844 45.722656 13.539062 45.152344 14.753906 C 44.875 15.121094 44.617188 15.507812 44.386719 15.90625 C 44.023438 16.324219 43.765625 16.804688 43.617188 17.347656 C 43.203125 17.921875 42.785156 18.5 42.371094 19.074219 C 40.953125 21.457031 39.46875 23.792969 37.90625 26.078125 C 37.578125 26.640625 37.25 27.199219 36.925781 27.757812 C 37.164062 28.136719 37.363281 28.535156 37.523438 28.957031 C 40.464844 33.832031 43.390625 38.710938 46.304688 43.59375 C 46.359375 43.753906 46.304688 43.851562 46.136719 43.882812 C 46.046875 43.863281 45.976562 43.816406 45.921875 43.738281 C 45.203125 42.523438 44.480469 41.308594 43.761719 40.089844 C 43.636719 39.917969 43.492188 39.757812 43.332031 39.609375 C 42.660156 38.683594 41.988281 37.757812 41.316406 36.828125 C 41.160156 36.480469 41.015625 36.128906 40.882812 35.773438 C 40.457031 35.058594 39.992188 34.371094 39.492188 33.710938 C 39.273438 33.28125 39.113281 32.835938 39.011719 32.367188 C 38.808594 32.003906 38.617188 31.636719 38.4375 31.261719 C 37.992188 30.578125 37.527344 29.90625 37.042969 29.246094 C 36.882812 28.957031 36.722656 28.671875 36.5625 28.382812 C 36.070312 29.039062 35.574219 29.695312 35.078125 30.351562 C 34.960938 30.597656 34.832031 30.835938 34.691406 31.070312 C 34.492188 31.21875 34.300781 31.378906 34.117188 31.550781 C 33.453125 32.390625 32.707031 33.148438 31.886719 33.828125 C 31.484375 34.101562 31.054688 34.308594 30.589844 34.453125 C 30.300781 34.484375 30.015625 34.484375 29.726562 34.453125 C 29.472656 34.3125 29.199219 34.226562 28.910156 34.1875 C 28.5625 34.53125 28.175781 34.828125 27.757812 35.078125 C 27.539062 35.164062 27.316406 35.234375 27.085938 35.292969 C 27.613281 36.691406 28.117188 38.097656 28.597656 39.515625 C 28.628906 39.707031 28.664062 39.898438 28.695312 40.089844 C 28.96875 40.890625 29.238281 41.691406 29.511719 42.492188 C 29.59375 42.757812 29.640625 43.027344 29.65625 43.304688 C 29.820312 43.691406 29.929688 44.089844 29.992188 44.503906 C 30.394531 45.34375 30.648438 46.226562 30.757812 47.144531 C 30.832031 47.441406 30.90625 47.734375 30.972656 48.03125 C 30.960938 48.183594 30.929688 48.328125 30.878906 48.464844 C 30.703125 48.53125 30.597656 48.472656 30.566406 48.296875 C 30.484375 47.84375 30.390625 47.398438 30.277344 46.953125 C 29.792969 45.332031 29.34375 43.699219 28.933594 42.058594 C 28.570312 41.050781 28.25 40.027344 27.976562 38.988281 C 27.828125 38.589844 27.652344 38.207031 27.445312 37.835938 C 27.292969 37.417969 27.179688 36.984375 27.109375 36.539062 C 26.964844 36.125 26.796875 35.714844 26.609375 35.316406 C 25.851562 35 25.539062 34.429688 25.671875 33.613281 C 25.339844 33.910156 24.996094 34.191406 24.640625 34.453125 C 24.097656 34.832031 23.507812 34.945312 22.863281 34.789062 C 22.085938 34.4375 21.902344 33.886719 22.3125 33.132812 C 22.886719 32.351562 23.476562 31.585938 24.089844 30.832031 C 24.296875 30.5625 24.457031 30.273438 24.566406 29.964844 C 23.738281 30.953125 22.949219 31.96875 22.191406 33.011719 C 21.996094 33.058594 21.800781 33.121094 21.617188 33.207031 C 21.28125 33.257812 20.960938 33.210938 20.65625 33.0625 C 20.53125 32.96875 20.445312 32.847656 20.394531 32.703125 C 20.164062 33.207031 19.902344 33.6875 19.601562 34.140625 C 19.324219 34.378906 19.109375 34.667969 18.953125 35.003906 C 18.40625 36.402344 17.847656 37.792969 17.273438 39.179688 C 17.15625 39.984375 16.867188 40.71875 16.410156 41.386719 C 16.261719 41.945312 16.03125 42.464844 15.714844 42.945312 C 15.636719 42.980469 15.566406 42.972656 15.5 42.921875 C 15.441406 42.722656 15.480469 42.554688 15.617188 42.417969 C 15.773438 41.914062 15.972656 41.425781 16.21875 40.953125 C 16.496094 40.175781 16.800781 39.410156 17.128906 38.652344 C 17.414062 37.566406 17.78125 36.511719 18.234375 35.484375 C 18.847656 34.285156 19.539062 33.132812 20.296875 32.03125 C 20.488281 31.421875 20.679688 30.816406 20.875 30.207031 C 21.007812 29.953125 21.128906 29.699219 21.234375 29.4375 C 21.265625 29.4375 21.28125 29.421875 21.28125 29.390625 C 21.28125 29.375 21.28125 29.359375 21.28125 29.34375 C 21.40625 29.207031 21.527344 29.0625 21.640625 28.910156 C 22 28.253906 22.382812 27.617188 22.792969 26.992188 C 22.964844 26.671875 23.117188 26.34375 23.25 26.007812 C 23.15625 26 23.085938 26.039062 23.03125 26.128906 C 22.855469 26.546875 22.546875 26.804688 22.097656 26.894531 C 21.542969 27.226562 20.96875 27.523438 20.371094 27.78125 C 19.257812 28.09375 18.722656 27.671875 18.761719 26.511719 C 18.894531 25.945312 19.117188 25.417969 19.433594 24.929688 C 19.710938 24.476562 20.007812 24.035156 20.320312 23.609375 C 19.792969 23.328125 19.28125 23.023438 18.785156 22.695312 C 18.503906 22.351562 18.167969 22.082031 17.777344 21.882812 C 17.648438 21.738281 17.523438 21.59375 17.394531 21.449219 C 17.003906 21.230469 16.601562 21.019531 16.195312 20.824219 C 15.59375 20.375 15.003906 19.910156 14.417969 19.433594 C 14.136719 19.253906 13.847656 19.085938 13.554688 18.929688 C 13.464844 18.871094 13.378906 18.808594 13.292969 18.738281 C 13 18.890625 12.839844 19.128906 12.8125 19.457031 C 12.542969 19.945312 12.289062 20.441406 12.042969 20.945312 C 11.675781 21.410156 11.308594 21.871094 10.941406 22.335938 C 10.769531 22.667969 10.609375 23.003906 10.460938 23.34375 C 10.0625 23.980469 9.648438 24.605469 9.214844 25.214844 C 7.402344 28.324219 5.933594 31.585938 4.796875 35.003906 C 4.714844 35.222656 4.5625 35.292969 4.34375 35.222656 C 4.289062 35.136719 4.28125 35.050781 4.320312 34.957031 C 4.417969 34.777344 4.5 34.585938 4.558594 34.382812 C 4.75 33.699219 4.910156 33.011719 5.039062 32.316406 C 5.289062 31.765625 5.578125 31.238281 5.902344 30.734375 C 6.277344 29.890625 6.675781 29.058594 7.101562 28.238281 C 7.183594 28.128906 7.261719 28.015625 7.339844 27.902344 C 7.75 27.074219 8.152344 26.242188 8.542969 25.40625 C 8.742188 25.046875 8.984375 24.710938 9.261719 24.398438 C 10.085938 22.96875 10.949219 21.558594 11.851562 20.175781 C 12.078125 19.738281 12.320312 19.304688 12.570312 18.882812 C 12.621094 18.738281 12.660156 18.597656 12.691406 18.449219 C 12.691406 18.375 12.660156 18.320312 12.597656 18.28125 C 11.597656 17.628906 10.589844 16.992188 9.574219 16.363281 C 8.886719 16.167969 8.230469 15.894531 7.605469 15.546875 C 7.195312 15.238281 6.796875 14.917969 6.40625 14.585938 C 5.972656 14.355469 5.558594 14.097656 5.160156 13.820312 C 4.371094 13.410156 3.585938 13 2.808594 12.597656 C 2.738281 12.5 2.644531 12.449219 2.519531 12.453125 C 1.890625 12.1875 1.234375 12.035156 0.550781 11.996094 C 0.441406 11.75 0.519531 11.644531 0.792969 11.683594 C 1.40625 11.71875 2 11.855469 2.566406 12.09375 C 4.132812 12.828125 5.636719 13.660156 7.078125 14.585938 C 7.835938 14.992188 8.589844 15.40625 9.332031 15.835938 C 10.210938 16.136719 11.011719 16.578125 11.730469 17.15625 C 11.730469 17.1875 11.75 17.203125 11.78125 17.203125 C 11.804688 17.269531 11.851562 17.300781 11.925781 17.296875 C 12.503906 17.734375 13.113281 18.136719 13.746094 18.5 C 13.847656 18.660156 13.992188 18.773438 14.179688 18.832031 C 15.320312 19.597656 16.457031 20.375 17.585938 21.160156 C 18.339844 21.769531 19.109375 22.363281 19.890625 22.9375 C 20.5 23.183594 21.089844 23.472656 21.664062 23.800781 C 21.855469 23.863281 22.050781 23.929688 22.242188 23.992188 C 23.324219 24.710938 24.476562 25.300781 25.695312 25.769531 C 26.109375 25.972656 26.507812 26.195312 26.894531 26.441406 C 27.433594 26.558594 27.964844 26.71875 28.480469 26.917969 C 28.777344 27.195312 29.128906 27.339844 29.535156 27.351562 C 29.785156 27.398438 30.023438 27.375 30.253906 27.277344 C 30.390625 27.140625 30.421875 26.980469 30.351562 26.800781 C 30.164062 26.914062 29.960938 26.992188 29.75 27.039062 C 29.507812 27.042969 29.300781 26.960938 29.125 26.800781 C 29.0625 26.523438 28.949219 26.265625 28.789062 26.03125 C 28.722656 25.859375 28.707031 25.683594 28.742188 25.503906 C 28.949219 25.289062 29.140625 25.082031 29.320312 24.878906 C 28.992188 24.601562 28.679688 24.304688 28.382812 23.992188 C 26.785156 23 25.242188 21.9375 23.753906 20.800781 C 23.675781 20.582031 23.75 20.492188 23.96875 20.539062 C 25.035156 21.34375 26.152344 22.082031 27.328125 22.746094 C 27.835938 23.109375 28.332031 23.496094 28.816406 23.894531 C 29.4375 24.265625 30.0625 24.632812 30.6875 25 C 30.820312 25.078125 30.964844 25.136719 31.117188 25.167969 C 31.386719 25.324219 31.636719 25.289062 31.863281 25.070312 C 31.914062 24.984375 31.941406 24.886719 31.933594 24.785156 C 31.726562 24.8125 31.519531 24.828125 31.308594 24.832031 C 31.109375 24.847656 30.957031 24.769531 30.855469 24.59375 C 30.738281 24.328125 30.644531 24.054688 30.566406 23.777344 C 30.433594 23.3125 30.601562 23.066406 31.070312 23.03125 C 30.75 22.761719 30.429688 22.488281 30.109375 22.21875 C 29.125 21.558594 28.152344 20.886719 27.183594 20.203125 C 26.945312 20.011719 26.722656 19.804688 26.511719 19.578125 C 26.039062 19.285156 25.574219 18.980469 25.121094 18.667969 C 25.035156 18.464844 25.097656 18.371094 25.3125 18.378906 C 25.910156 18.765625 26.503906 19.164062 27.085938 19.578125 C 27.183594 19.660156 27.265625 19.753906 27.328125 19.867188 C 28.605469 20.394531 29.757812 21.113281 30.78125 22.023438 C 31.121094 22.378906 31.441406 22.746094 31.742188 23.128906 C 32.351562 23.457031 32.671875 23.273438 32.703125 22.578125 C 32.414062 22.617188 32.125 22.625 31.835938 22.601562 C 31.78125 22.542969 31.726562 22.488281 31.667969 22.433594 C 31.542969 22.015625 31.457031 21.59375 31.40625 21.160156 C 31.421875 20.894531 31.566406 20.761719 31.835938 20.753906 C 31.808594 20.566406 31.726562 20.40625 31.597656 20.273438 C 31.316406 19.863281 30.980469 19.496094 30.589844 19.167969 C 29.757812 18.328125 28.84375 17.585938 27.855469 16.9375 C 27.746094 16.855469 27.664062 16.75 27.613281 16.625 C 27.617188 16.539062 27.660156 16.476562 27.734375 16.433594 C 28.152344 16.527344 28.558594 16.644531 28.957031 16.792969 C 29.90625 17.210938 30.835938 17.667969 31.742188 18.164062 C 31.757812 18.152344 31.773438 18.144531 31.789062 18.136719 C 31.535156 17.933594 31.335938 17.683594 31.191406 17.394531 C 31.113281 17.019531 31.234375 16.730469 31.550781 16.53125 C 30.238281 15.355469 28.828125 14.308594 27.328125 13.386719 C 26.902344 13.167969 26.472656 12.960938 26.03125 12.765625 C 24.371094 11.605469 22.628906 10.582031 20.800781 9.691406 C 20.363281 9.367188 19.898438 9.082031 19.410156 8.828125 C 19.289062 8.628906 19.113281 8.53125 18.882812 8.542969 C 18.675781 8.378906 18.476562 8.210938 18.28125 8.039062 C 18.238281 8.277344 18.125 8.324219 17.945312 8.179688 C 17.9375 8.0625 17.929688 7.949219 17.921875 7.84375 C 17.464844 7.648438 17 7.464844 16.53125 7.292969 C 15.945312 6.703125 15.257812 6.273438 14.46875 6 C 14.308594 5.886719 14.164062 5.761719 14.035156 5.613281 C 12.839844 4.9375 11.703125 4.175781 10.628906 3.335938 C 10.632812 3.089844 10.746094 3.03125 10.964844 3.167969 C 11.445312 3.539062 11.941406 3.890625 12.453125 4.222656 C 14.386719 5.269531 16.289062 6.363281 18.164062 7.507812 C 18.589844 6.820312 19.042969 6.148438 19.53125 5.496094 C 19.746094 5.214844 19.992188 4.964844 20.273438 4.75 C 21.089844 4.261719 21.546875 4.492188 21.640625 5.445312 C 22.121094 4.710938 22.671875 4.03125 23.296875 3.40625 C 23.570312 3.222656 23.855469 3.0625 24.160156 2.925781 C 25.15625 2.722656 25.652344 3.140625 25.648438 4.175781 C 25.648438 4.507812 25.570312 4.820312 25.40625 5.109375 C 25.234375 5.335938 25.128906 5.59375 25.097656 5.878906 C 25.222656 5.75 25.328125 5.605469 25.40625 5.445312 C 25.949219 4.945312 26.523438 4.488281 27.136719 4.078125 C 27.5 3.894531 27.84375 3.917969 28.167969 4.152344 C 28.382812 4.691406 28.382812 5.234375 28.167969 5.78125 C 28.054688 6.070312 27.917969 6.34375 27.757812 6.597656 C 27.582031 6.835938 27.449219 7.09375 27.351562 7.367188 C 27.480469 7.292969 27.582031 7.199219 27.664062 7.078125 C 28.246094 6.519531 28.917969 6.097656 29.679688 5.804688 C 30.695312 5.527344 31.117188 5.902344 30.949219 6.933594 C 31.171875 6.691406 31.386719 6.441406 31.597656 6.191406 C 31.660156 6.15625 31.726562 6.125 31.789062 6.09375 C 33.035156 4.894531 34.300781 3.710938 35.582031 2.542969 C 36.207031 2.117188 36.8125 1.671875 37.402344 1.199219 C 37.554688 1.109375 37.714844 1.078125 37.882812 1.105469 C 37.949219 1.214844 37.949219 1.328125 37.882812 1.441406 C 36.558594 2.269531 35.359375 3.261719 34.285156 4.414062 C 32.882812 5.539062 31.632812 6.808594 30.542969 8.230469 Z M 25.167969 4.007812 C 24.863281 3.855469 24.542969 3.824219 24.207031 3.910156 C 24.3125 3.710938 24.390625 3.503906 24.449219 3.285156 C 24.964844 3.257812 25.203125 3.5 25.167969 4.007812 Z M 23.871094 3.621094 C 23.835938 3.855469 23.773438 4.078125 23.679688 4.292969 C 23.5625 4.355469 23.453125 4.425781 23.34375 4.511719 C 22.773438 5.074219 22.214844 5.640625 21.664062 6.214844 C 21.828125 5.835938 22.074219 5.515625 22.410156 5.253906 C 22.550781 5.023438 22.675781 4.78125 22.792969 4.535156 C 23.132812 4.203125 23.492188 3.898438 23.871094 3.621094 Z M 27.757812 5.6875 C 27.730469 5.53125 27.675781 5.390625 27.589844 5.253906 C 27.484375 5.175781 27.363281 5.144531 27.230469 5.160156 C 27.34375 4.828125 27.5625 4.605469 27.878906 4.488281 C 27.933594 4.589844 27.972656 4.703125 28 4.824219 C 27.964844 5.03125 27.921875 5.238281 27.878906 5.445312 C 27.859375 5.542969 27.820312 5.621094 27.757812 5.6875 Z M 27.085938 4.582031 C 26.863281 4.953125 26.734375 5.351562 26.703125 5.78125 C 26.453125 5.90625 26.191406 5.984375 25.910156 6.023438 C 25.785156 6.003906 25.683594 5.957031 25.601562 5.878906 C 26.03125 5.367188 26.527344 4.9375 27.085938 4.582031 Z M 20.800781 4.871094 C 20.882812 4.863281 20.960938 4.871094 21.042969 4.894531 C 20.890625 5.222656 20.679688 5.511719 20.417969 5.757812 C 20.304688 5.78125 20.195312 5.789062 20.082031 5.78125 C 20.074219 5.683594 20.082031 5.589844 20.105469 5.496094 C 20.285156 5.226562 20.515625 5.019531 20.800781 4.871094 Z M 20.464844 6.167969 C 19.972656 6.789062 19.460938 7.394531 18.929688 7.988281 C 18.792969 7.894531 18.648438 7.804688 18.5 7.726562 C 18.886719 7.097656 19.296875 6.480469 19.722656 5.878906 C 19.757812 5.964844 19.816406 6.035156 19.890625 6.09375 C 20.082031 6.117188 20.273438 6.140625 20.464844 6.167969 Z M 30.445312 7.125 C 30.449219 6.941406 30.417969 6.765625 30.351562 6.597656 C 30.179688 6.691406 30.003906 6.773438 29.824219 6.835938 C 29.847656 6.609375 29.960938 6.429688 30.160156 6.308594 C 30.203125 6.253906 30.21875 6.1875 30.207031 6.117188 C 30.34375 6.097656 30.464844 6.128906 30.566406 6.214844 C 30.617188 6.535156 30.578125 6.839844 30.445312 7.125 Z M 29.292969 7.125 C 28.605469 7.511719 27.902344 7.855469 27.183594 8.15625 C 27.25 8.0625 27.300781 7.957031 27.328125 7.84375 C 27.785156 7.460938 28.246094 7.085938 28.71875 6.71875 C 29.015625 6.503906 29.335938 6.34375 29.679688 6.238281 C 29.507812 6.515625 29.378906 6.8125 29.292969 7.125 Z M 11.78125 17.203125 C 11.851562 17.199219 11.902344 17.230469 11.925781 17.296875 C 11.851562 17.300781 11.804688 17.269531 11.78125 17.203125 Z M 11.925781 17.296875 C 12.605469 17.613281 13.230469 18.015625 13.796875 18.5 C 13.78125 18.5 13.761719 18.5 13.746094 18.5 C 13.113281 18.136719 12.503906 17.734375 11.925781 17.296875 Z M 42.828125 17.492188 C 42.8125 17.59375 42.765625 17.675781 42.683594 17.730469 C 42.695312 17.625 42.742188 17.546875 42.828125 17.492188 Z M 42.683594 17.730469 C 42.472656 18.179688 42.21875 18.59375 41.914062 18.976562 C 42.148438 18.546875 42.402344 18.128906 42.683594 17.730469 Z M 24.207031 25.648438 C 24.265625 25.6875 24.328125 25.71875 24.398438 25.742188 C 23.523438 27.480469 22.660156 29.222656 21.808594 30.972656 C 21.566406 30.964844 21.328125 30.980469 21.089844 31.023438 C 21.355469 30.203125 21.746094 29.449219 22.265625 28.765625 C 22.648438 27.96875 23.078125 27.203125 23.558594 26.464844 C 23.664062 26.183594 23.703125 25.898438 23.679688 25.601562 C 23.742188 25.585938 23.808594 25.570312 23.871094 25.550781 C 23.980469 25.597656 24.09375 25.628906 24.207031 25.648438 Z M 21.28125 29.34375 C 21.542969 28.523438 21.816406 27.707031 22.097656 26.894531 C 22.546875 26.804688 22.855469 26.546875 23.03125 26.128906 C 23.085938 26.039062 23.15625 26 23.25 26.007812 C 23.117188 26.34375 22.964844 26.671875 22.792969 26.992188 C 22.382812 27.617188 22 28.253906 21.640625 28.910156 C 21.527344 29.0625 21.40625 29.207031 21.28125 29.34375 Z M 24.449219 31.023438 C 24.21875 31.65625 23.980469 32.277344 23.726562 32.894531 C 23.644531 32.871094 23.554688 32.855469 23.464844 32.84375 C 23.261719 32.910156 23.0625 32.96875 22.863281 33.011719 C 23.375 32.332031 23.902344 31.667969 24.449219 31.023438 Z M 21.570312 31.308594 C 21.476562 31.550781 21.363281 31.78125 21.234375 32.003906 C 21.4375 32.148438 21.628906 32.300781 21.808594 32.460938 C 21.558594 32.882812 21.277344 32.914062 20.96875 32.558594 C 20.84375 32.417969 20.757812 32.257812 20.707031 32.078125 C 20.828125 31.632812 21.117188 31.378906 21.570312 31.308594 Z M 32.941406 32.03125 C 32.550781 32.507812 32.152344 32.980469 31.742188 33.445312 C 31.699219 33.464844 31.65625 33.488281 31.621094 33.515625 C 31.578125 33.398438 31.507812 33.300781 31.40625 33.230469 C 31.898438 32.804688 32.410156 32.40625 32.941406 32.03125 Z M 26.511719 32.75 C 26.550781 33.007812 26.597656 33.265625 26.65625 33.515625 C 26.457031 33.582031 26.269531 33.675781 26.105469 33.804688 C 26.148438 33.417969 26.285156 33.066406 26.511719 32.75 Z M 23.585938 33.277344 C 23.550781 33.421875 23.519531 33.566406 23.488281 33.710938 C 23.703125 33.714844 23.910156 33.746094 24.113281 33.804688 C 24.097656 33.957031 24.019531 34.058594 23.871094 34.117188 C 23.550781 34.265625 23.230469 34.265625 22.914062 34.117188 C 22.699219 33.96875 22.625 33.769531 22.695312 33.515625 C 22.738281 33.460938 22.796875 33.417969 22.863281 33.398438 C 23.054688 33.394531 23.230469 33.34375 23.390625 33.253906 C 23.46875 33.214844 23.53125 33.226562 23.585938 33.277344 Z M 31.117188 33.46875 C 31.21875 33.546875 31.234375 33.640625 31.167969 33.757812 C 30.949219 33.875 30.722656 33.976562 30.496094 34.070312 C 30.351562 34.101562 30.207031 34.101562 30.0625 34.070312 C 30.125 33.96875 30.171875 33.867188 30.207031 33.757812 C 30.347656 33.773438 30.484375 33.804688 30.613281 33.851562 C 30.777344 33.714844 30.945312 33.585938 31.117188 33.46875 Z M 29.679688 33.613281 C 29.730469 33.617188 29.78125 33.632812 29.824219 33.660156 C 29.707031 33.988281 29.660156 33.972656 29.679688 33.613281 Z M 26.703125 33.902344 C 26.730469 34.027344 26.746094 34.15625 26.75 34.285156 C 27.074219 34.3125 27.394531 34.34375 27.710938 34.382812 C 27.613281 34.515625 27.496094 34.628906 27.351562 34.71875 C 27.328125 34.761719 27.320312 34.808594 27.328125 34.859375 C 26.890625 34.992188 26.515625 34.894531 26.199219 34.574219 C 26.175781 34.523438 26.152344 34.476562 26.128906 34.429688 C 26.257812 34.1875 26.449219 34.011719 26.703125 33.902344 Z M 26.703125 33.902344 "/>
</g>
<mask id="mask2">
  <g filter="url(#alpha)">
<rect x="0" y="0" width="50" height="50" style="fill:rgb(0%,0%,0%);fill-opacity:0.976471;stroke:none;"/>
  </g>
</mask>
<clipPath id="clip3">
  <rect width="50" height="50"/>
</clipPath>
<g id="surface12" clip-path="url(#clip3)">
<path style=" stroke:none;fill-rule:evenodd;fill:rgb(65.490196%,22.745098%,17.647059%);fill-opacity:1;" d="M 25.167969 4.007812 C 25.152344 4.21875 25.109375 4.425781 25.046875 4.628906 C 24.699219 4.835938 24.363281 4.820312 24.039062 4.582031 C 24.023438 4.34375 24.082031 4.117188 24.207031 3.910156 C 24.542969 3.824219 24.863281 3.855469 25.167969 4.007812 Z M 25.167969 4.007812 "/>
</g>
<mask id="mask3">
  <g filter="url(#alpha)">
<rect x="0" y="0" width="50" height="50" style="fill:rgb(0%,0%,0%);fill-opacity:0.992157;stroke:none;"/>
  </g>
</mask>
<clipPath id="clip4">
  <rect width="50" height="50"/>
</clipPath>
<g id="surface15" clip-path="url(#clip4)">
<path style=" stroke:none;fill-rule:evenodd;fill:rgb(65.882353%,22.745098%,17.647059%);fill-opacity:1;" d="M 23.679688 4.292969 C 23.652344 4.769531 23.875 5.035156 24.351562 5.085938 C 24.546875 5.09375 24.742188 5.101562 24.929688 5.109375 C 24.453125 6.347656 23.855469 7.515625 23.128906 8.613281 C 23.085938 8.738281 23.050781 8.867188 23.03125 8.996094 C 22.894531 9.207031 22.785156 9.429688 22.695312 9.667969 C 22.660156 9.824219 22.667969 9.976562 22.722656 10.125 C 22.871094 10.175781 22.992188 10.132812 23.082031 10.003906 C 23.371094 9.402344 23.628906 8.777344 23.847656 8.132812 C 24.355469 7.371094 24.898438 6.636719 25.480469 5.925781 C 25.511719 5.890625 25.550781 5.875 25.601562 5.878906 C 25.683594 5.957031 25.785156 6.003906 25.910156 6.023438 C 26.191406 5.984375 26.453125 5.90625 26.703125 5.78125 C 26.820312 6.113281 27.0625 6.25 27.421875 6.191406 C 27.464844 6.222656 27.496094 6.261719 27.519531 6.308594 C 27.210938 6.847656 26.914062 7.390625 26.632812 7.941406 C 26.054688 8.4375 25.605469 9.03125 25.289062 9.71875 C 25.203125 10.175781 25.058594 10.625 24.855469 11.058594 C 24.636719 11.199219 24.636719 11.328125 24.855469 11.445312 C 24.949219 11.421875 25.03125 11.371094 25.097656 11.300781 C 25.238281 10.941406 25.398438 10.589844 25.574219 10.246094 C 26.046875 9.652344 26.449219 9.011719 26.777344 8.324219 C 26.9375 8.136719 27.121094 7.976562 27.328125 7.84375 C 27.300781 7.957031 27.25 8.0625 27.183594 8.15625 C 27.902344 7.855469 28.605469 7.511719 29.292969 7.125 C 29.230469 7.402344 29.238281 7.671875 29.320312 7.941406 C 29.359375 7.980469 29.398438 8.019531 29.4375 8.0625 C 29.601562 8.074219 29.761719 8.097656 29.917969 8.132812 C 29.96875 8.175781 29.976562 8.222656 29.941406 8.277344 C 29.007812 9.421875 28.128906 10.605469 27.304688 11.828125 C 27.039062 12.050781 26.824219 12.304688 26.65625 12.597656 C 25.886719 12.117188 25.105469 11.660156 24.304688 11.226562 C 24 10.964844 23.679688 10.726562 23.34375 10.507812 C 21.789062 9.800781 20.316406 8.960938 18.929688 7.988281 C 19.460938 7.394531 19.972656 6.789062 20.464844 6.167969 C 20.496094 6.167969 20.511719 6.148438 20.511719 6.117188 C 20.558594 6.09375 20.609375 6.070312 20.65625 6.046875 C 20.84375 5.820312 21.039062 5.601562 21.234375 5.398438 C 21.21875 5.476562 21.238281 5.539062 21.28125 5.589844 C 21.277344 5.738281 21.253906 5.882812 21.210938 6.023438 C 20.832031 6.589844 20.625 7.214844 20.585938 7.894531 C 20.695312 7.960938 20.789062 7.945312 20.875 7.84375 C 20.890625 7.734375 20.90625 7.621094 20.921875 7.507812 C 21.164062 7.101562 21.398438 6.6875 21.617188 6.261719 C 21.648438 6.261719 21.664062 6.246094 21.664062 6.214844 C 22.214844 5.640625 22.773438 5.074219 23.34375 4.511719 C 23.453125 4.425781 23.5625 4.355469 23.679688 4.292969 Z M 23.679688 4.292969 "/>
</g>
<mask id="mask4">
  <g filter="url(#alpha)">
<rect x="0" y="0" width="50" height="50" style="fill:rgb(0%,0%,0%);fill-opacity:0.827451;stroke:none;"/>
  </g>
</mask>
<clipPath id="clip5">
  <rect width="50" height="50"/>
</clipPath>
<g id="surface18" clip-path="url(#clip5)">
<path style=" stroke:none;fill-rule:evenodd;fill:rgb(61.960784%,21.960784%,17.254902%);fill-opacity:1;" d="M 25.40625 5.109375 C 25.40625 5.222656 25.40625 5.335938 25.40625 5.445312 C 25.328125 5.605469 25.222656 5.75 25.097656 5.878906 C 25.128906 5.59375 25.234375 5.335938 25.40625 5.109375 Z M 25.40625 5.109375 "/>
</g>
<mask id="mask5">
  <g filter="url(#alpha)">
<rect x="0" y="0" width="50" height="50" style="fill:rgb(0%,0%,0%);fill-opacity:0.937255;stroke:none;"/>
  </g>
</mask>
<clipPath id="clip6">
  <rect width="50" height="50"/>
</clipPath>
<g id="surface21" clip-path="url(#clip6)">
<path style=" stroke:none;fill-rule:evenodd;fill:rgb(65.490196%,22.745098%,17.647059%);fill-opacity:1;" d="M 27.230469 5.160156 C 27.363281 5.144531 27.484375 5.175781 27.589844 5.253906 C 27.675781 5.390625 27.730469 5.53125 27.757812 5.6875 C 27.78125 5.953125 27.699219 6.007812 27.519531 5.855469 C 27.359375 5.832031 27.199219 5.820312 27.039062 5.832031 C 27.015625 5.578125 27.082031 5.355469 27.230469 5.160156 Z M 27.230469 5.160156 "/>
</g>
<mask id="mask6">
  <g filter="url(#alpha)">
<rect x="0" y="0" width="50" height="50" style="fill:rgb(0%,0%,0%);fill-opacity:0.968627;stroke:none;"/>
  </g>
</mask>
<clipPath id="clip7">
  <rect width="50" height="50"/>
</clipPath>
<g id="surface24" clip-path="url(#clip7)">
<path style=" stroke:none;fill-rule:evenodd;fill:rgb(65.098039%,22.745098%,17.647059%);fill-opacity:1;" d="M 30.445312 7.125 C 30.417969 7.410156 30.304688 7.648438 30.109375 7.84375 C 29.941406 7.777344 29.765625 7.746094 29.582031 7.75 C 29.558594 7.441406 29.621094 7.152344 29.773438 6.886719 C 29.804688 6.886719 29.824219 6.871094 29.824219 6.835938 C 30.003906 6.773438 30.179688 6.691406 30.351562 6.597656 C 30.417969 6.765625 30.449219 6.941406 30.445312 7.125 Z M 30.445312 7.125 "/>
</g>
<mask id="mask7">
  <g filter="url(#alpha)">
<rect x="0" y="0" width="50" height="50" style="fill:rgb(0%,0%,0%);fill-opacity:0.811765;stroke:none;"/>
  </g>
</mask>
<clipPath id="clip8">
  <rect width="50" height="50"/>
</clipPath>
<g id="surface27" clip-path="url(#clip8)">
<path style=" stroke:none;fill-rule:evenodd;fill:rgb(61.568627%,21.568627%,16.862745%);fill-opacity:1;" d="M 27.757812 6.597656 C 27.742188 6.761719 27.710938 6.921875 27.664062 7.078125 C 27.582031 7.199219 27.480469 7.292969 27.351562 7.367188 C 27.449219 7.09375 27.582031 6.835938 27.757812 6.597656 Z M 27.757812 6.597656 "/>
</g>
<mask id="mask8">
  <g filter="url(#alpha)">
<rect x="0" y="0" width="50" height="50" style="fill:rgb(0%,0%,0%);fill-opacity:0.901961;stroke:none;"/>
  </g>
</mask>
<clipPath id="clip9">
  <rect width="50" height="50"/>
</clipPath>
<g id="surface30" clip-path="url(#clip9)">
<path style=" stroke:none;fill-rule:evenodd;fill:rgb(64.705882%,22.745098%,17.647059%);fill-opacity:1;" d="M 30.542969 8.230469 C 30.566406 8.421875 30.527344 8.597656 30.421875 8.757812 C 29.828125 9.53125 29.210938 10.28125 28.574219 11.011719 C 28.316406 11.238281 28.078125 11.476562 27.855469 11.730469 C 27.964844 11.546875 28.070312 11.355469 28.167969 11.15625 C 28.394531 10.925781 28.585938 10.671875 28.742188 10.390625 C 29.335938 9.660156 29.9375 8.941406 30.542969 8.230469 Z M 30.542969 8.230469 "/>
</g>
<mask id="mask9">
  <g filter="url(#alpha)">
<rect x="0" y="0" width="50" height="50" style="fill:rgb(0%,0%,0%);fill-opacity:0.784314;stroke:none;"/>
  </g>
</mask>
<clipPath id="clip10">
  <rect width="50" height="50"/>
</clipPath>
<g id="surface33" clip-path="url(#clip10)">
<path style=" stroke:none;fill-rule:evenodd;fill:rgb(79.607843%,80%,79.607843%);fill-opacity:1;" d="M 2.519531 12.453125 C 2.644531 12.449219 2.738281 12.5 2.808594 12.597656 C 2.695312 12.574219 2.601562 12.523438 2.519531 12.453125 Z M 2.519531 12.453125 "/>
</g>
<mask id="mask10">
  <g filter="url(#alpha)">
<rect x="0" y="0" width="50" height="50" style="fill:rgb(0%,0%,0%);fill-opacity:0.996078;stroke:none;"/>
  </g>
</mask>
<clipPath id="clip11">
  <rect width="50" height="50"/>
</clipPath>
<g id="surface36" clip-path="url(#clip11)">
<path style=" stroke:none;fill-rule:evenodd;fill:rgb(66.27451%,22.745098%,17.647059%);fill-opacity:1;" d="M 13.554688 18.929688 C 13.847656 19.085938 14.136719 19.253906 14.417969 19.433594 C 15.003906 19.910156 15.59375 20.375 16.195312 20.824219 C 16.601562 21.019531 17.003906 21.230469 17.394531 21.449219 C 17.523438 21.59375 17.648438 21.738281 17.777344 21.882812 C 18.167969 22.082031 18.503906 22.351562 18.785156 22.695312 C 19.28125 23.023438 19.792969 23.328125 20.320312 23.609375 C 20.007812 24.035156 19.710938 24.476562 19.433594 24.929688 C 19.117188 25.417969 18.894531 25.945312 18.761719 26.511719 C 18.722656 27.671875 19.257812 28.09375 20.371094 27.78125 C 20.96875 27.523438 21.542969 27.226562 22.097656 26.894531 C 21.816406 27.707031 21.542969 28.523438 21.28125 29.34375 C 21.28125 29.359375 21.28125 29.375 21.28125 29.390625 C 21.25 29.390625 21.234375 29.40625 21.234375 29.4375 C 21.128906 29.699219 21.007812 29.953125 20.875 30.207031 C 20.679688 30.816406 20.488281 31.421875 20.296875 32.03125 C 19.539062 33.132812 18.847656 34.285156 18.234375 35.484375 C 17.78125 36.511719 17.414062 37.566406 17.128906 38.652344 C 16.800781 39.410156 16.496094 40.175781 16.21875 40.953125 C 15.972656 41.425781 15.773438 41.914062 15.617188 42.417969 C 15.480469 42.554688 15.441406 42.722656 15.5 42.921875 C 15.566406 42.972656 15.636719 42.980469 15.714844 42.945312 C 16.03125 42.464844 16.261719 41.945312 16.410156 41.386719 C 16.867188 40.71875 17.15625 39.984375 17.273438 39.179688 C 17.847656 37.792969 18.40625 36.402344 18.953125 35.003906 C 19.109375 34.667969 19.324219 34.378906 19.601562 34.140625 C 18.5625 37.210938 17.523438 40.28125 16.484375 43.355469 C 13.394531 43.007812 10.628906 41.898438 8.179688 40.019531 C 6.875 38.914062 5.914062 37.5625 5.300781 35.964844 C 8.039062 30.28125 10.792969 24.601562 13.554688 18.929688 Z M 13.554688 18.929688 "/>
</g>
<mask id="mask11">
  <g filter="url(#alpha)">
<rect x="0" y="0" width="50" height="50" style="fill:rgb(0%,0%,0%);fill-opacity:0.984314;stroke:none;"/>
  </g>
</mask>
<clipPath id="clip12">
  <rect width="50" height="50"/>
</clipPath>
<g id="surface39" clip-path="url(#clip12)">
<path style=" stroke:none;fill-rule:evenodd;fill:rgb(83.137255%,80.392157%,81.176471%);fill-opacity:1;" d="M 24.398438 25.742188 C 25.101562 26.0625 25.789062 26.40625 26.464844 26.777344 C 26.246094 27.109375 25.996094 27.421875 25.71875 27.710938 C 25.65625 27.839844 25.589844 27.96875 25.527344 28.09375 C 24.96875 28.699219 24.410156 29.308594 23.847656 29.917969 C 23.476562 30.488281 23.09375 31.046875 22.695312 31.597656 C 22.492188 31.253906 22.195312 31.042969 21.808594 30.972656 C 22.660156 29.222656 23.523438 27.480469 24.398438 25.742188 Z M 24.398438 25.742188 "/>
</g>
<mask id="mask12">
  <g filter="url(#alpha)">
<rect x="0" y="0" width="50" height="50" style="fill:rgb(0%,0%,0%);fill-opacity:0.945098;stroke:none;"/>
  </g>
</mask>
<clipPath id="clip13">
  <rect width="50" height="50"/>
</clipPath>
<g id="surface42" clip-path="url(#clip13)">
<path style=" stroke:none;fill-rule:evenodd;fill:rgb(82.745098%,80%,80.784314%);fill-opacity:1;" d="M 21.570312 31.308594 C 21.964844 31.292969 22.25 31.460938 22.433594 31.8125 C 22.25 32.054688 22.039062 32.269531 21.808594 32.460938 C 21.628906 32.300781 21.4375 32.148438 21.234375 32.003906 C 21.363281 31.78125 21.476562 31.550781 21.570312 31.308594 Z M 21.570312 31.308594 "/>
</g>
<mask id="mask13">
  <g filter="url(#alpha)">
<rect x="0" y="0" width="50" height="50" style="fill:rgb(0%,0%,0%);fill-opacity:0.886275;stroke:none;"/>
  </g>
</mask>
<clipPath id="clip14">
  <rect width="50" height="50"/>
</clipPath>
<g id="surface45" clip-path="url(#clip14)">
<path style=" stroke:none;fill-rule:evenodd;fill:rgb(82.352941%,80%,80.392157%);fill-opacity:1;" d="M 23.585938 33.277344 C 23.875 33.34375 24.050781 33.519531 24.113281 33.804688 C 23.910156 33.746094 23.703125 33.714844 23.488281 33.710938 C 23.519531 33.566406 23.550781 33.421875 23.585938 33.277344 Z M 23.585938 33.277344 "/>
</g>
<mask id="mask14">
  <g filter="url(#alpha)">
<rect x="0" y="0" width="50" height="50" style="fill:rgb(0%,0%,0%);fill-opacity:0.866667;stroke:none;"/>
  </g>
</mask>
<clipPath id="clip15">
  <rect width="50" height="50"/>
</clipPath>
<g id="surface48" clip-path="url(#clip15)">
<path style=" stroke:none;fill-rule:evenodd;fill:rgb(81.568627%,79.215686%,80%);fill-opacity:1;" d="M 31.117188 33.46875 C 30.945312 33.585938 30.777344 33.714844 30.613281 33.851562 C 30.484375 33.804688 30.347656 33.773438 30.207031 33.757812 C 30.207031 33.683594 30.238281 33.628906 30.300781 33.589844 C 30.546875 33.464844 30.804688 33.402344 31.070312 33.398438 C 31.097656 33.414062 31.113281 33.441406 31.117188 33.46875 Z M 31.117188 33.46875 "/>
</g>
<mask id="mask15">
  <g filter="url(#alpha)">
<rect x="0" y="0" width="50" height="50" style="fill:rgb(0%,0%,0%);fill-opacity:0.956863;stroke:none;"/>
  </g>
</mask>
<clipPath id="clip16">
  <rect width="50" height="50"/>
</clipPath>
<g id="surface51" clip-path="url(#clip16)">
<path style=" stroke:none;fill-rule:evenodd;fill:rgb(81.568627%,78.823529%,79.607843%);fill-opacity:1;" d="M 27.710938 34.382812 C 27.394531 34.34375 27.074219 34.3125 26.75 34.285156 C 26.746094 34.15625 26.730469 34.027344 26.703125 33.902344 C 27.089844 33.632812 27.464844 33.648438 27.832031 33.949219 C 27.863281 34.0625 27.863281 34.171875 27.832031 34.285156 C 27.796875 34.328125 27.757812 34.359375 27.710938 34.382812 Z M 27.710938 34.382812 "/>
</g>
</defs>
<g id="surface1">
<use xlink:href="#surface6" mask="url(#mask0)"/>
<use xlink:href="#surface9" mask="url(#mask1)"/>
<path style=" stroke:none;fill-rule:evenodd;fill:rgb(99.607843%,99.607843%,99.607843%);fill-opacity:1;" d="M 10.628906 3.335938 C 11.703125 4.175781 12.839844 4.9375 14.035156 5.613281 C 14.164062 5.761719 14.308594 5.886719 14.46875 6 C 15.257812 6.273438 15.945312 6.703125 16.53125 7.292969 C 17 7.464844 17.464844 7.648438 17.921875 7.84375 C 17.929688 7.949219 17.9375 8.0625 17.945312 8.179688 C 18.125 8.324219 18.238281 8.277344 18.28125 8.039062 C 18.476562 8.210938 18.675781 8.378906 18.882812 8.542969 C 19.113281 8.53125 19.289062 8.628906 19.410156 8.828125 C 19.898438 9.082031 20.363281 9.367188 20.800781 9.691406 C 22.628906 10.582031 24.371094 11.605469 26.03125 12.765625 C 26.472656 12.960938 26.902344 13.167969 27.328125 13.386719 C 28.828125 14.308594 30.238281 15.355469 31.550781 16.53125 C 31.234375 16.730469 31.113281 17.019531 31.191406 17.394531 C 31.335938 17.683594 31.535156 17.933594 31.789062 18.136719 C 31.773438 18.144531 31.757812 18.152344 31.742188 18.164062 C 30.835938 17.667969 29.90625 17.210938 28.957031 16.792969 C 28.558594 16.644531 28.152344 16.527344 27.734375 16.433594 C 27.660156 16.476562 27.617188 16.539062 27.613281 16.625 C 27.664062 16.75 27.746094 16.855469 27.855469 16.9375 C 28.84375 17.585938 29.757812 18.328125 30.589844 19.167969 C 30.910156 19.550781 31.246094 19.921875 31.597656 20.273438 C 31.726562 20.40625 31.808594 20.566406 31.835938 20.753906 C 31.566406 20.761719 31.421875 20.894531 31.40625 21.160156 C 31.457031 21.59375 31.542969 22.015625 31.667969 22.433594 C 31.726562 22.488281 31.78125 22.542969 31.835938 22.601562 C 32.125 22.625 32.414062 22.617188 32.703125 22.578125 C 32.671875 23.273438 32.351562 23.457031 31.742188 23.128906 C 31.441406 22.746094 31.121094 22.378906 30.78125 22.023438 C 29.757812 21.113281 28.605469 20.394531 27.328125 19.867188 C 27.265625 19.753906 27.183594 19.660156 27.085938 19.578125 C 26.503906 19.164062 25.910156 18.765625 25.3125 18.378906 C 25.097656 18.371094 25.035156 18.464844 25.121094 18.667969 C 25.574219 18.980469 26.039062 19.285156 26.511719 19.578125 C 26.722656 19.804688 26.945312 20.011719 27.183594 20.203125 C 28.152344 20.886719 29.125 21.558594 30.109375 22.21875 C 30.429688 22.488281 30.75 22.761719 31.070312 23.03125 C 30.601562 23.066406 30.433594 23.3125 30.566406 23.777344 C 30.644531 24.054688 30.738281 24.328125 30.855469 24.59375 C 30.957031 24.769531 31.109375 24.847656 31.308594 24.832031 C 31.304688 24.984375 31.242188 25.097656 31.117188 25.167969 C 30.964844 25.136719 30.820312 25.078125 30.6875 25 C 30.0625 24.632812 29.4375 24.265625 28.816406 23.894531 C 28.332031 23.496094 27.835938 23.109375 27.328125 22.746094 C 26.152344 22.082031 25.035156 21.34375 23.96875 20.539062 C 23.75 20.492188 23.675781 20.582031 23.753906 20.800781 C 25.242188 21.9375 26.785156 23 28.382812 23.992188 C 28.679688 24.304688 28.992188 24.601562 29.320312 24.878906 C 29.140625 25.082031 28.949219 25.289062 28.742188 25.503906 C 28.707031 25.683594 28.722656 25.859375 28.789062 26.03125 C 28.949219 26.265625 29.0625 26.523438 29.125 26.800781 C 29.300781 26.960938 29.507812 27.042969 29.75 27.039062 C 29.960938 26.992188 30.164062 26.914062 30.351562 26.800781 C 30.421875 26.980469 30.390625 27.140625 30.253906 27.277344 C 30.023438 27.375 29.785156 27.398438 29.535156 27.351562 C 29.128906 27.339844 28.777344 27.195312 28.480469 26.917969 C 27.964844 26.71875 27.433594 26.558594 26.894531 26.441406 C 26.507812 26.195312 26.109375 25.972656 25.695312 25.769531 C 24.476562 25.300781 23.324219 24.710938 22.242188 23.992188 C 22.050781 23.929688 21.855469 23.863281 21.664062 23.800781 C 21.089844 23.472656 20.5 23.183594 19.890625 22.9375 C 19.109375 22.363281 18.339844 21.769531 17.585938 21.160156 C 16.457031 20.375 15.320312 19.597656 14.179688 18.832031 C 14.070312 18.699219 13.945312 18.589844 13.796875 18.5 C 13.230469 18.015625 12.605469 17.613281 11.925781 17.296875 C 11.902344 17.230469 11.851562 17.199219 11.78125 17.203125 C 11.75 17.203125 11.730469 17.1875 11.730469 17.15625 C 11.011719 16.578125 10.210938 16.136719 9.332031 15.835938 C 8.589844 15.40625 7.835938 14.992188 7.078125 14.585938 C 5.636719 13.660156 4.132812 12.828125 2.566406 12.09375 C 2 11.855469 1.40625 11.71875 0.792969 11.683594 C 0.738281 11.632812 0.675781 11.59375 0.601562 11.5625 C 0.574219 11.328125 0.613281 11.09375 0.71875 10.867188 C 1.007812 10.226562 1.390625 9.652344 1.871094 9.140625 C 3.234375 7.800781 4.726562 6.640625 6.359375 5.664062 C 7.738281 4.8125 9.160156 4.035156 10.628906 3.335938 Z M 10.628906 3.335938 "/>
<use xlink:href="#surface12" mask="url(#mask2)"/>
<use xlink:href="#surface15" mask="url(#mask3)"/>
<use xlink:href="#surface18" mask="url(#mask4)"/>
<use xlink:href="#surface21" mask="url(#mask5)"/>
<use xlink:href="#surface24" mask="url(#mask6)"/>
<use xlink:href="#surface27" mask="url(#mask7)"/>
<use xlink:href="#surface30" mask="url(#mask8)"/>
<path style=" stroke:none;fill-rule:evenodd;fill:rgb(64.705882%,43.137255%,32.941176%);fill-opacity:1;" d="M 28.574219 11.011719 C 28.21875 11.515625 27.851562 12.011719 27.472656 12.5 C 27.4375 12.5 27.421875 12.515625 27.421875 12.546875 C 27.390625 12.546875 27.375 12.5625 27.375 12.597656 C 27.34375 12.597656 27.328125 12.613281 27.328125 12.644531 C 27.296875 12.644531 27.277344 12.660156 27.277344 12.691406 C 27.261719 12.722656 27.246094 12.757812 27.230469 12.789062 C 27.199219 12.789062 27.183594 12.804688 27.183594 12.835938 C 27.152344 12.835938 27.136719 12.851562 27.136719 12.882812 C 27.097656 12.871094 27.066406 12.847656 27.039062 12.8125 C 27.269531 12.414062 27.539062 12.054688 27.855469 11.730469 C 28.078125 11.476562 28.316406 11.238281 28.574219 11.011719 Z M 28.574219 11.011719 "/>
<use xlink:href="#surface33" mask="url(#mask9)"/>
<path style=" stroke:none;fill-rule:evenodd;fill:rgb(96.078431%,96.078431%,96.078431%);fill-opacity:1;" d="M 32.03125 17.203125 C 32.082031 17.433594 32.082031 17.65625 32.03125 17.875 C 31.761719 17.699219 31.585938 17.460938 31.5 17.15625 C 31.503906 16.886719 31.625 16.808594 31.863281 16.914062 C 31.929688 17.003906 31.984375 17.101562 32.03125 17.203125 Z M 32.03125 17.203125 "/>
<path style=" stroke:none;fill-rule:evenodd;fill:rgb(77.647059%,75.294118%,75.686275%);fill-opacity:1;" d="M 32.03125 17.203125 C 32.214844 17.445312 32.320312 17.714844 32.339844 18.019531 C 32.21875 17.996094 32.117188 17.949219 32.03125 17.875 C 32.082031 17.65625 32.082031 17.433594 32.03125 17.203125 Z M 32.03125 17.203125 "/>
<path style=" stroke:none;fill-rule:evenodd;fill:rgb(62.745098%,27.058824%,22.352941%);fill-opacity:1;" d="M 13.746094 18.5 C 13.761719 18.5 13.78125 18.5 13.796875 18.5 C 13.945312 18.589844 14.070312 18.699219 14.179688 18.832031 C 13.992188 18.773438 13.847656 18.660156 13.746094 18.5 Z M 13.746094 18.5 "/>
<use xlink:href="#surface36" mask="url(#mask10)"/>
<path style=" stroke:none;fill-rule:evenodd;fill:rgb(81.568627%,78.823529%,79.607843%);fill-opacity:1;" d="M 30.589844 19.167969 C 30.980469 19.496094 31.316406 19.863281 31.597656 20.273438 C 31.246094 19.921875 30.910156 19.550781 30.589844 19.167969 Z M 30.589844 19.167969 "/>
<path style=" stroke:none;fill-rule:evenodd;fill:rgb(96.078431%,96.078431%,96.078431%);fill-opacity:1;" d="M 31.835938 21.042969 C 31.921875 21.027344 32.003906 21.042969 32.078125 21.089844 C 32.398438 21.40625 32.589844 21.792969 32.652344 22.242188 C 32.46875 22.238281 32.292969 22.269531 32.125 22.335938 C 31.972656 22.285156 31.882812 22.171875 31.863281 22 C 31.8125 21.746094 31.773438 21.492188 31.742188 21.234375 C 31.757812 21.15625 31.789062 21.089844 31.835938 21.042969 Z M 31.835938 21.042969 "/>
<path style=" stroke:none;fill-rule:evenodd;fill:rgb(96.862745%,96.862745%,96.862745%);fill-opacity:1;" d="M 31.835938 24.113281 C 31.722656 24.226562 31.628906 24.355469 31.550781 24.496094 C 31.367188 24.523438 31.214844 24.476562 31.09375 24.351562 C 31.035156 24.105469 30.953125 23.867188 30.855469 23.632812 C 30.804688 23.503906 30.84375 23.414062 30.972656 23.367188 C 31.132812 23.335938 31.292969 23.335938 31.453125 23.367188 C 31.617188 23.601562 31.742188 23.847656 31.835938 24.113281 Z M 31.835938 24.113281 "/>
<path style=" stroke:none;fill-rule:evenodd;fill:rgb(64.705882%,23.137255%,18.039216%);fill-opacity:1;" d="M 20.707031 23.871094 C 20.53125 24.285156 20.304688 24.671875 20.035156 25.023438 C 19.917969 24.980469 19.878906 24.902344 19.914062 24.785156 C 20.171875 24.460938 20.378906 24.109375 20.539062 23.726562 C 20.59375 23.78125 20.648438 23.832031 20.707031 23.871094 Z M 20.707031 23.871094 "/>
<path style=" stroke:none;fill-rule:evenodd;fill:rgb(65.490196%,46.666667%,35.686275%);fill-opacity:1;" d="M 20.707031 23.871094 C 20.816406 23.894531 20.910156 23.941406 20.992188 24.015625 C 20.785156 24.464844 20.527344 24.882812 20.226562 25.265625 C 20.164062 25.183594 20.097656 25.105469 20.035156 25.023438 C 20.304688 24.671875 20.53125 24.285156 20.707031 23.871094 Z M 20.707031 23.871094 "/>
<path style=" stroke:none;fill-rule:evenodd;fill:rgb(65.098039%,37.254902%,32.156863%);fill-opacity:1;" d="M 20.992188 24.015625 C 21.378906 24.210938 21.765625 24.402344 22.144531 24.59375 C 22.316406 24.757812 22.511719 24.902344 22.722656 25.023438 C 22.582031 25.40625 22.457031 25.789062 22.335938 26.175781 C 22.261719 26.277344 22.164062 26.359375 22.050781 26.414062 C 21.4375 26.699219 20.800781 26.90625 20.128906 27.039062 C 20.425781 26.867188 20.570312 26.605469 20.5625 26.246094 C 20.511719 25.898438 20.398438 25.570312 20.226562 25.265625 C 20.527344 24.882812 20.785156 24.464844 20.992188 24.015625 Z M 20.992188 24.015625 "/>
<path style=" stroke:none;fill-rule:evenodd;fill:rgb(80%,77.647059%,78.431373%);fill-opacity:1;" d="M 31.835938 24.113281 C 31.90625 24.207031 31.9375 24.320312 31.933594 24.449219 C 31.804688 24.453125 31.675781 24.46875 31.550781 24.496094 C 31.628906 24.355469 31.722656 24.226562 31.835938 24.113281 Z M 31.835938 24.113281 "/>
<path style=" stroke:none;fill-rule:evenodd;fill:rgb(79.215686%,76.862745%,77.254902%);fill-opacity:1;" d="M 31.117188 25.167969 C 31.242188 25.097656 31.304688 24.984375 31.308594 24.832031 C 31.519531 24.828125 31.726562 24.8125 31.933594 24.785156 C 31.941406 24.886719 31.914062 24.984375 31.863281 25.070312 C 31.636719 25.289062 31.386719 25.324219 31.117188 25.167969 Z M 31.117188 25.167969 "/>
<path style=" stroke:none;fill-rule:evenodd;fill:rgb(95.294118%,94.117647%,94.117647%);fill-opacity:1;" d="M 22.144531 24.59375 C 22.601562 24.828125 23.066406 25.050781 23.535156 25.265625 C 23.234375 25.316406 22.964844 25.234375 22.722656 25.023438 C 22.511719 24.902344 22.316406 24.757812 22.144531 24.59375 Z M 22.144531 24.59375 "/>
<path style=" stroke:none;fill-rule:evenodd;fill:rgb(82.352941%,79.607843%,80.392157%);fill-opacity:1;" d="M 22.722656 25.023438 C 22.964844 25.234375 23.234375 25.316406 23.535156 25.265625 C 23.769531 25.382812 23.992188 25.511719 24.207031 25.648438 C 24.09375 25.628906 23.980469 25.597656 23.871094 25.550781 C 23.808594 25.570312 23.742188 25.585938 23.679688 25.601562 C 23.679688 25.402344 23.585938 25.332031 23.390625 25.382812 C 23.03125 25.640625 22.679688 25.90625 22.335938 26.175781 C 22.457031 25.789062 22.582031 25.40625 22.722656 25.023438 Z M 22.722656 25.023438 "/>
<path style=" stroke:none;fill-rule:evenodd;fill:rgb(63.137255%,22.745098%,17.647059%);fill-opacity:1;" d="M 19.792969 25.3125 C 19.550781 25.703125 19.359375 26.117188 19.21875 26.558594 C 19.164062 26.546875 19.128906 26.503906 19.121094 26.441406 C 19.246094 26.015625 19.421875 25.617188 19.648438 25.238281 C 19.722656 25.210938 19.769531 25.234375 19.792969 25.3125 Z M 19.792969 25.3125 "/>
<path style=" stroke:none;fill-rule:evenodd;fill:rgb(98.039216%,98.039216%,98.039216%);fill-opacity:1;" d="M 29.628906 25.265625 C 29.824219 25.679688 30.015625 26.09375 30.207031 26.511719 C 29.972656 26.703125 29.71875 26.742188 29.4375 26.632812 C 29.328125 26.320312 29.183594 26.023438 29.007812 25.742188 C 29.144531 25.597656 29.273438 25.445312 29.390625 25.289062 C 29.46875 25.265625 29.550781 25.257812 29.628906 25.265625 Z M 29.628906 25.265625 "/>
<path style=" stroke:none;fill-rule:evenodd;fill:rgb(65.490196%,46.666667%,35.294118%);fill-opacity:1;" d="M 19.792969 25.3125 C 19.90625 25.375 19.96875 25.46875 19.984375 25.601562 C 19.757812 25.960938 19.578125 26.347656 19.457031 26.75 C 19.367188 26.699219 19.289062 26.632812 19.21875 26.558594 C 19.359375 26.117188 19.550781 25.703125 19.792969 25.3125 Z M 19.792969 25.3125 "/>
<path style=" stroke:none;fill-rule:evenodd;fill:rgb(80%,77.647059%,78.039216%);fill-opacity:1;" d="M 29.628906 25.265625 C 29.96875 25.546875 30.175781 25.90625 30.253906 26.34375 C 30.253906 26.410156 30.238281 26.464844 30.207031 26.511719 C 30.015625 26.09375 29.824219 25.679688 29.628906 25.265625 Z M 29.628906 25.265625 "/>
<path style=" stroke:none;fill-rule:evenodd;fill:rgb(63.529412%,36.470588%,31.372549%);fill-opacity:1;" d="M 19.984375 25.601562 C 20.199219 25.867188 20.269531 26.167969 20.203125 26.511719 C 20.0625 26.703125 19.871094 26.816406 19.625 26.847656 C 19.554688 26.832031 19.5 26.800781 19.457031 26.75 C 19.578125 26.347656 19.757812 25.960938 19.984375 25.601562 Z M 19.984375 25.601562 "/>
<use xlink:href="#surface39" mask="url(#mask11)"/>
<path style=" stroke:none;fill-rule:evenodd;fill:rgb(64.313725%,45.490196%,34.509804%);fill-opacity:1;" d="M 22.050781 26.414062 C 21.945312 26.511719 21.832031 26.597656 21.714844 26.679688 C 21.390625 26.808594 21.070312 26.9375 20.753906 27.0625 C 20.628906 27.164062 20.503906 27.25 20.371094 27.328125 C 20.039062 27.414062 19.71875 27.390625 19.410156 27.253906 C 19.332031 27.199219 19.28125 27.128906 19.265625 27.039062 C 19.550781 27.160156 19.839844 27.160156 20.128906 27.039062 C 20.800781 26.90625 21.4375 26.699219 22.050781 26.414062 Z M 22.050781 26.414062 "/>
<path style=" stroke:none;fill-rule:evenodd;fill:rgb(61.960784%,22.745098%,17.647059%);fill-opacity:1;" d="M 19.265625 27.039062 C 19.28125 27.128906 19.332031 27.199219 19.410156 27.253906 C 19.71875 27.390625 20.039062 27.414062 20.371094 27.328125 C 20.363281 27.355469 20.347656 27.378906 20.320312 27.398438 C 20.035156 27.429688 19.746094 27.429688 19.457031 27.398438 C 19.238281 27.292969 19.117188 27.125 19.097656 26.894531 C 19.152344 26.949219 19.207031 26.996094 19.265625 27.039062 Z M 19.265625 27.039062 "/>
<use xlink:href="#surface42" mask="url(#mask12)"/>
<use xlink:href="#surface45" mask="url(#mask13)"/>
<use xlink:href="#surface48" mask="url(#mask14)"/>
<use xlink:href="#surface51" mask="url(#mask15)"/>
</g>
</svg>
