<?xml version="1.0" encoding="UTF-8"?>
<svg xmlns="http://www.w3.org/2000/svg" xmlns:xlink="http://www.w3.org/1999/xlink" width="50pt" height="50pt" viewBox="0 0 50 50" version="1.1">
<defs>
<filter id="alpha" filterUnits="objectBoundingBox" x="0%" y="0%" width="100%" height="100%">
  <feColorMatrix type="matrix" in="SourceGraphic" values="0 0 0 0 1 0 0 0 0 1 0 0 0 0 1 0 0 0 1 0"/>
</filter>
<mask id="mask0">
  <g filter="url(#alpha)">
<rect x="0" y="0" width="50" height="50" style="fill:rgb(0%,0%,0%);fill-opacity:0.984314;stroke:none;"/>
  </g>
</mask>
<clipPath id="clip1">
  <rect width="50" height="50"/>
</clipPath>
<g id="surface6" clip-path="url(#clip1)">
<path style=" stroke:none;fill-rule:evenodd;fill:rgb(66.27451%,23.137255%,17.647059%);fill-opacity:1;" d="M -0.0117188 23.679688 C -0.0117188 23.535156 -0.0117188 23.390625 -0.0117188 23.246094 C 0.03125 23.160156 0.0742188 23.074219 0.121094 22.984375 C 0.328125 22.777344 0.535156 22.566406 0.742188 22.359375 C 1.449219 21.40625 2.144531 20.445312 2.832031 19.480469 C 3.472656 18.648438 4.113281 17.816406 4.753906 16.984375 C 5.078125 16.527344 5.390625 16.0625 5.6875 15.589844 C 5.914062 15.3125 6.199219 15.230469 6.542969 15.339844 C 6.914062 15.496094 7.105469 15.78125 7.117188 16.191406 C 6.894531 18.304688 7.363281 20.25 8.519531 22.023438 C 8.894531 22.539062 9.316406 23.011719 9.792969 23.441406 C 9.996094 23.925781 9.867188 24.289062 9.398438 24.53125 C 9.09375 24.640625 8.8125 24.601562 8.558594 24.410156 C 7.316406 23.269531 6.4375 21.890625 5.929688 20.269531 C 5.605469 21.300781 5.570312 22.339844 5.832031 23.390625 C 5.976562 23.945312 6.128906 24.5 6.289062 25.046875 C 6.351562 25.277344 6.40625 25.511719 6.445312 25.742188 C 6.375 26.183594 6.121094 26.371094 5.675781 26.308594 C 5.496094 26.257812 5.363281 26.152344 5.28125 25.984375 C 4.859375 24.964844 4.5625 23.90625 4.394531 22.816406 C 4.300781 22.125 4.324219 21.4375 4.464844 20.75 C 4.535156 20.421875 4.605469 20.09375 4.679688 19.765625 C 3.847656 20.945312 3.023438 22.128906 2.207031 23.320312 C 2.003906 23.601562 1.769531 23.855469 1.5 24.074219 C 1.234375 24.265625 0.9375 24.335938 0.613281 24.292969 C 0.296875 24.195312 0.0859375 23.992188 -0.0117188 23.679688 Z M -0.0117188 23.679688 "/>
</g>
<mask id="mask1">
  <g filter="url(#alpha)">
<rect x="0" y="0" width="50" height="50" style="fill:rgb(0%,0%,0%);fill-opacity:0.976471;stroke:none;"/>
  </g>
</mask>
<clipPath id="clip2">
  <rect width="50" height="50"/>
</clipPath>
<g id="surface9" clip-path="url(#clip2)">
<path style=" stroke:none;fill-rule:evenodd;fill:rgb(66.27451%,23.137255%,17.647059%);fill-opacity:1;" d="M 46.074219 16.453125 C 46.445312 16.398438 46.714844 16.535156 46.878906 16.863281 C 47.011719 17.214844 47.125 17.570312 47.226562 17.929688 C 47.140625 18.46875 46.828125 18.691406 46.292969 18.601562 C 46.097656 18.527344 45.957031 18.394531 45.871094 18.207031 C 45.742188 17.851562 45.644531 17.492188 45.570312 17.125 C 45.574219 16.925781 45.644531 16.753906 45.789062 16.609375 C 45.882812 16.550781 45.976562 16.5 46.074219 16.453125 Z M 46.074219 16.453125 "/>
</g>
<mask id="mask2">
  <g filter="url(#alpha)">
<rect x="0" y="0" width="50" height="50" style="fill:rgb(0%,0%,0%);fill-opacity:0.980392;stroke:none;"/>
  </g>
</mask>
<clipPath id="clip3">
  <rect width="50" height="50"/>
</clipPath>
<g id="surface12" clip-path="url(#clip3)">
<path style=" stroke:none;fill-rule:evenodd;fill:rgb(66.27451%,23.137255%,17.647059%);fill-opacity:1;" d="M 47.417969 23.199219 C 47.839844 23.140625 48.113281 23.308594 48.246094 23.703125 C 48.316406 24.378906 48.203125 25.015625 47.910156 25.625 C 47.628906 25.9375 47.296875 25.996094 46.914062 25.804688 C 46.679688 25.617188 46.578125 25.371094 46.617188 25.070312 C 46.675781 24.914062 46.730469 24.753906 46.785156 24.59375 C 46.859375 24.238281 46.933594 23.886719 47 23.535156 C 47.101562 23.375 47.242188 23.261719 47.417969 23.199219 Z M 47.417969 23.199219 "/>
</g>
<mask id="mask3">
  <g filter="url(#alpha)">
<rect x="0" y="0" width="50" height="50" style="fill:rgb(0%,0%,0%);fill-opacity:0.976471;stroke:none;"/>
  </g>
</mask>
<clipPath id="clip4">
  <rect width="50" height="50"/>
</clipPath>
<g id="surface15" clip-path="url(#clip4)">
<path style=" stroke:none;fill-rule:evenodd;fill:rgb(66.27451%,23.137255%,17.647059%);fill-opacity:1;" d="M 43.652344 30.953125 C 44.292969 30.925781 44.582031 31.230469 44.527344 31.863281 C 44.519531 31.914062 44.503906 31.964844 44.480469 32.007812 C 44.277344 32.320312 44.078125 32.632812 43.878906 32.945312 C 43.558594 33.273438 43.203125 33.320312 42.8125 33.078125 C 42.53125 32.796875 42.46875 32.472656 42.628906 32.105469 C 42.847656 31.792969 43.0625 31.480469 43.277344 31.167969 C 43.386719 31.070312 43.511719 30.996094 43.652344 30.953125 Z M 43.652344 30.953125 "/>
</g>
<mask id="mask4">
  <g filter="url(#alpha)">
<rect x="0" y="0" width="50" height="50" style="fill:rgb(0%,0%,0%);fill-opacity:0.980392;stroke:none;"/>
  </g>
</mask>
<clipPath id="clip5">
  <rect width="50" height="50"/>
</clipPath>
<g id="surface18" clip-path="url(#clip5)">
<path style=" stroke:none;fill-rule:evenodd;fill:rgb(66.27451%,23.137255%,17.647059%);fill-opacity:1;" d="M 6.828125 31.3125 C 7.082031 31.300781 7.289062 31.398438 7.441406 31.601562 C 7.800781 32.160156 8.167969 32.710938 8.546875 33.257812 C 8.773438 33.539062 9.023438 33.800781 9.300781 34.039062 C 9.972656 34.605469 10.675781 35.125 11.414062 35.597656 C 11.65625 35.738281 11.90625 35.875 12.15625 36.003906 C 12.425781 36.269531 12.46875 36.570312 12.289062 36.90625 C 12.109375 37.117188 11.878906 37.191406 11.605469 37.132812 C 11.015625 36.90625 10.464844 36.609375 9.949219 36.246094 C 9.253906 35.734375 8.59375 35.179688 7.96875 34.578125 C 7.351562 33.816406 6.800781 33.007812 6.3125 32.152344 C 6.230469 31.710938 6.402344 31.429688 6.828125 31.3125 Z M 6.828125 31.3125 "/>
</g>
<mask id="mask5">
  <g filter="url(#alpha)">
<rect x="0" y="0" width="50" height="50" style="fill:rgb(0%,0%,0%);fill-opacity:0.980392;stroke:none;"/>
  </g>
</mask>
<clipPath id="clip6">
  <rect width="50" height="50"/>
</clipPath>
<g id="surface21" clip-path="url(#clip6)">
<path style=" stroke:none;fill-rule:evenodd;fill:rgb(66.27451%,23.137255%,17.647059%);fill-opacity:1;" d="M 38.035156 36.976562 C 38.480469 36.945312 38.734375 37.152344 38.800781 37.589844 C 38.792969 37.78125 38.726562 37.945312 38.597656 38.082031 C 38.089844 38.597656 37.523438 39.042969 36.90625 39.414062 C 36.203125 39.8125 35.496094 40.214844 34.792969 40.613281 C 34.472656 40.824219 34.152344 41.03125 33.832031 41.238281 C 33.503906 41.324219 33.230469 41.238281 33.003906 40.988281 C 32.808594 40.628906 32.851562 40.304688 33.136719 40.015625 C 33.515625 39.742188 33.910156 39.484375 34.3125 39.246094 C 35.316406 38.707031 36.289062 38.132812 37.242188 37.519531 C 37.402344 37.390625 37.5625 37.261719 37.722656 37.132812 C 37.820312 37.066406 37.925781 37.015625 38.035156 36.976562 Z M 38.035156 36.976562 "/>
</g>
<mask id="mask6">
  <g filter="url(#alpha)">
<rect x="0" y="0" width="50" height="50" style="fill:rgb(0%,0%,0%);fill-opacity:0.980392;stroke:none;"/>
  </g>
</mask>
<clipPath id="clip7">
  <rect width="50" height="50"/>
</clipPath>
<g id="surface24" clip-path="url(#clip7)">
<path style=" stroke:none;fill-rule:evenodd;fill:rgb(66.27451%,23.137255%,17.647059%);fill-opacity:1;" d="M 19.40625 40.960938 C 19.535156 40.957031 19.664062 40.960938 19.792969 40.972656 C 20.535156 41.175781 21.289062 41.292969 22.058594 41.324219 C 22.386719 41.308594 22.714844 41.285156 23.042969 41.25 C 23.476562 41.261719 23.714844 41.480469 23.75 41.910156 C 23.738281 42.191406 23.613281 42.398438 23.367188 42.535156 C 22.359375 42.714844 21.351562 42.707031 20.34375 42.511719 C 19.996094 42.445312 19.652344 42.371094 19.3125 42.292969 C 18.949219 42.101562 18.816406 41.800781 18.914062 41.394531 C 19.015625 41.175781 19.179688 41.03125 19.40625 40.960938 Z M 19.40625 40.960938 "/>
</g>
</defs>
<g id="surface1">
<use xlink:href="#surface6" mask="url(#mask0)"/>
<use xlink:href="#surface9" mask="url(#mask1)"/>
<use xlink:href="#surface12" mask="url(#mask2)"/>
<use xlink:href="#surface15" mask="url(#mask3)"/>
<use xlink:href="#surface18" mask="url(#mask4)"/>
<use xlink:href="#surface21" mask="url(#mask5)"/>
<use xlink:href="#surface24" mask="url(#mask6)"/>
</g>
</svg>
