<?xml version="1.0" encoding="UTF-8"?>
<svg xmlns="http://www.w3.org/2000/svg" xmlns:xlink="http://www.w3.org/1999/xlink" width="50pt" height="50pt" viewBox="0 0 50 50" version="1.1">
<defs>
<filter id="alpha" filterUnits="objectBoundingBox" x="0%" y="0%" width="100%" height="100%">
  <feColorMatrix type="matrix" in="SourceGraphic" values="0 0 0 0 1 0 0 0 0 1 0 0 0 0 1 0 0 0 1 0"/>
</filter>
<mask id="mask0">
  <g filter="url(#alpha)">
<rect x="0" y="0" width="50" height="50" style="fill:rgb(0%,0%,0%);fill-opacity:0.988235;stroke:none;"/>
  </g>
</mask>
<clipPath id="clip1">
  <rect width="50" height="50"/>
</clipPath>
<g id="surface6" clip-path="url(#clip1)">
<path style=" stroke:none;fill-rule:evenodd;fill:rgb(1.176471%,0.784314%,0.784314%);fill-opacity:1;" d="M 16.734375 11.183594 C 16.800781 11.179688 16.855469 11.152344 16.898438 11.109375 C 17.269531 10.863281 17.664062 10.667969 18.085938 10.515625 C 18.441406 10.394531 18.773438 10.433594 19.089844 10.636719 C 19.148438 10.675781 19.195312 10.722656 19.238281 10.777344 C 19.351562 10.910156 19.445312 11.054688 19.515625 11.214844 C 19.621094 11.449219 19.714844 11.691406 19.800781 11.933594 C 19.863281 11.996094 19.933594 12.023438 20.019531 12.023438 C 20.101562 12.019531 20.183594 12.003906 20.257812 11.980469 C 20.824219 11.824219 21.398438 11.769531 21.984375 11.804688 C 22.351562 11.878906 22.589844 12.089844 22.703125 12.445312 C 22.734375 12.566406 22.757812 12.691406 22.773438 12.820312 C 22.769531 13.089844 22.769531 13.359375 22.773438 13.628906 C 22.820312 13.816406 22.9375 13.9375 23.125 13.988281 C 23.371094 14.046875 23.613281 14.105469 23.859375 14.160156 C 24.214844 14.300781 24.4375 14.558594 24.527344 14.933594 C 24.539062 15.074219 24.554688 15.214844 24.574219 15.355469 C 24.613281 15.421875 24.667969 15.472656 24.746094 15.496094 C 24.8125 15.515625 24.882812 15.53125 24.953125 15.542969 C 25.300781 15.570312 25.644531 15.597656 25.988281 15.617188 C 26.425781 15.660156 26.847656 15.769531 27.25 15.945312 C 27.476562 16.042969 27.699219 16.148438 27.910156 16.269531 C 28.066406 16.371094 28.226562 16.464844 28.390625 16.554688 C 28.398438 16.554688 28.40625 16.558594 28.40625 16.570312 C 28.414062 16.589844 28.425781 16.601562 28.449219 16.597656 C 29.148438 17.023438 29.671875 17.609375 30.011719 18.355469 C 30.175781 18.695312 30.339844 19.035156 30.503906 19.375 C 30.574219 19.609375 30.582031 19.84375 30.527344 20.078125 C 30.511719 20.125 30.484375 20.164062 30.445312 20.191406 C 30.9375 20.773438 31.429688 21.355469 31.921875 21.941406 C 32.289062 22.347656 32.667969 22.742188 33.054688 23.132812 C 33.140625 23.203125 33.230469 23.269531 33.324219 23.328125 C 33.820312 23.59375 34.335938 23.8125 34.871094 23.988281 C 35.378906 24.136719 35.894531 24.203125 36.421875 24.191406 C 36.726562 24.191406 37.027344 24.179688 37.332031 24.152344 C 38.25 24.015625 39.171875 23.886719 40.089844 23.761719 C 40.300781 23.738281 40.503906 23.691406 40.707031 23.628906 C 40.789062 23.59375 40.863281 23.546875 40.929688 23.492188 C 41.0625 23.367188 41.1875 23.238281 41.304688 23.101562 C 41.492188 22.941406 41.699219 22.804688 41.921875 22.699219 C 42.480469 22.421875 43.050781 22.171875 43.632812 21.945312 C 44.089844 21.878906 44.546875 21.792969 44.996094 21.691406 C 45.25 21.640625 45.503906 21.628906 45.761719 21.664062 C 45.925781 21.683594 46.015625 21.777344 46.039062 21.941406 C 46.050781 22.058594 46.039062 22.171875 46.003906 22.285156 C 45.96875 22.296875 45.96875 22.3125 45.996094 22.328125 C 46.167969 22.289062 46.339844 22.257812 46.511719 22.238281 C 46.757812 22.234375 47.003906 22.253906 47.246094 22.292969 C 47.835938 22.398438 48.425781 22.503906 49.015625 22.605469 C 49.1875 22.644531 49.257812 22.746094 49.226562 22.914062 C 49.1875 22.96875 49.148438 23.023438 49.105469 23.078125 C 48.96875 23.207031 48.808594 23.300781 48.628906 23.355469 C 48.839844 23.363281 49.019531 23.449219 49.160156 23.605469 C 49.308594 23.878906 49.253906 24.105469 49.003906 24.289062 C 48.917969 24.332031 48.835938 24.371094 48.746094 24.40625 C 48.992188 24.546875 49.074219 24.75 48.996094 25.015625 C 48.859375 25.285156 48.640625 25.4375 48.34375 25.472656 C 48.203125 25.476562 48.0625 25.488281 47.921875 25.503906 C 48.007812 25.644531 48 25.78125 47.898438 25.914062 C 47.78125 26.050781 47.632812 26.140625 47.457031 26.191406 C 47.085938 26.289062 46.710938 26.363281 46.332031 26.417969 C 46.164062 26.421875 45.992188 26.425781 45.820312 26.433594 C 45.59375 26.460938 45.363281 26.480469 45.132812 26.492188 C 45.027344 26.496094 44.929688 26.515625 44.832031 26.550781 C 44.148438 26.882812 43.488281 27.253906 42.851562 27.664062 C 42.335938 27.941406 41.828125 28.226562 41.320312 28.519531 C 40.746094 28.890625 40.179688 29.277344 39.625 29.679688 C 39.078125 30.046875 38.527344 30.410156 37.976562 30.777344 C 37.945312 30.78125 37.917969 30.792969 37.902344 30.820312 C 37.878906 30.820312 37.863281 30.828125 37.855469 30.851562 C 37.851562 30.863281 37.839844 30.867188 37.828125 30.867188 C 37.804688 30.863281 37.789062 30.875 37.78125 30.894531 C 36.964844 31.40625 36.125 31.882812 35.261719 32.320312 C 35.238281 32.320312 35.222656 32.328125 35.214844 32.351562 C 35.191406 32.375 35.160156 32.386719 35.125 32.394531 C 34.503906 32.6875 33.882812 32.992188 33.273438 33.3125 C 33.265625 33.351562 33.261719 33.390625 33.265625 33.429688 C 33.238281 33.550781 33.164062 33.59375 33.039062 33.558594 C 33.023438 33.550781 33.011719 33.542969 32.996094 33.535156 C 32.984375 33.511719 32.96875 33.5 32.941406 33.492188 C 32.863281 33.523438 32.792969 33.5625 32.726562 33.609375 C 32.398438 33.789062 32.0625 33.941406 31.714844 34.074219 C 31.628906 34.25 31.550781 34.425781 31.472656 34.601562 C 31.382812 34.898438 31.289062 35.191406 31.1875 35.484375 C 31.109375 35.683594 30.988281 35.847656 30.820312 35.972656 C 30.769531 36.003906 30.714844 36.023438 30.65625 36.035156 C 30.460938 36.042969 30.273438 36.070312 30.085938 36.125 C 29.6875 36.125 29.289062 36.140625 28.894531 36.175781 C 28.738281 36.175781 28.585938 36.152344 28.433594 36.109375 C 28.414062 36.101562 28.398438 36.089844 28.390625 36.070312 C 28.363281 36.023438 28.355469 35.976562 28.367188 35.921875 C 28.40625 35.839844 28.464844 35.785156 28.546875 35.757812 C 28.609375 35.769531 28.652344 35.804688 28.675781 35.859375 C 28.765625 35.882812 28.859375 35.890625 28.953125 35.890625 C 29.308594 35.867188 29.667969 35.855469 30.027344 35.855469 C 30.210938 35.796875 30.402344 35.769531 30.59375 35.777344 C 30.679688 35.738281 30.753906 35.679688 30.8125 35.605469 C 30.875 35.511719 30.929688 35.410156 30.976562 35.304688 C 31.058594 35.066406 31.136719 34.824219 31.21875 34.585938 C 31.277344 34.445312 31.34375 34.3125 31.421875 34.179688 C 31.414062 34.175781 31.40625 34.171875 31.398438 34.164062 C 30.171875 34.574219 28.925781 34.898438 27.65625 35.132812 C 27.917969 35.398438 28.121094 35.699219 28.269531 36.042969 C 28.476562 36.601562 28.441406 37.144531 28.171875 37.675781 C 28.035156 37.824219 27.867188 37.867188 27.671875 37.804688 C 27.574219 37.773438 27.476562 37.738281 27.386719 37.699219 C 27.230469 37.609375 27.070312 37.53125 26.90625 37.457031 C 26.867188 37.441406 26.828125 37.433594 26.785156 37.4375 C 26.882812 37.632812 26.972656 37.832031 27.0625 38.035156 C 27.207031 38.410156 27.242188 38.796875 27.167969 39.191406 C 27.054688 39.613281 26.789062 39.765625 26.363281 39.648438 C 26.261719 39.601562 26.167969 39.539062 26.082031 39.46875 C 25.835938 39.210938 25.589844 38.957031 25.335938 38.710938 C 25.34375 38.761719 25.351562 38.8125 25.367188 38.863281 C 25.5 39.222656 25.613281 39.59375 25.699219 39.972656 C 25.730469 40.332031 25.648438 40.664062 25.441406 40.960938 C 25.253906 41.234375 25.035156 41.488281 24.789062 41.71875 C 24.613281 41.878906 24.40625 41.972656 24.167969 41.996094 C 23.992188 41.988281 23.863281 41.910156 23.777344 41.757812 C 23.699219 41.550781 23.640625 41.34375 23.597656 41.125 C 23.410156 40.386719 23.042969 39.753906 22.496094 39.230469 C 22.332031 39.074219 22.152344 38.949219 21.953125 38.847656 C 21.976562 38.925781 22.019531 39.003906 22.082031 39.070312 C 22.4375 39.640625 22.480469 40.230469 22.21875 40.839844 C 22.066406 41.082031 21.859375 41.148438 21.59375 41.042969 C 21.519531 41.011719 21.449219 40.972656 21.382812 40.925781 C 20.949219 40.574219 20.519531 40.21875 20.09375 39.859375 C 19.917969 39.722656 19.738281 39.589844 19.554688 39.46875 C 18.984375 39.144531 18.425781 38.804688 17.875 38.449219 C 17.527344 38.246094 17.175781 38.050781 16.824219 37.855469 C 16.808594 37.863281 16.792969 37.871094 16.777344 37.878906 C 16.675781 37.882812 16.574219 37.882812 16.472656 37.886719 C 15.949219 37.871094 15.425781 37.867188 14.902344 37.878906 C 14.410156 37.933594 13.914062 37.984375 13.417969 38.035156 C 12.804688 37.972656 12.1875 37.90625 11.574219 37.839844 C 10.996094 37.808594 10.417969 37.789062 9.832031 37.78125 C 9.808594 37.765625 9.777344 37.761719 9.742188 37.765625 C 9.738281 37.785156 9.746094 37.800781 9.757812 37.8125 C 9.730469 37.890625 9.679688 37.90625 9.609375 37.855469 C 9.597656 37.835938 9.59375 37.816406 9.59375 37.796875 C 9.539062 37.769531 9.480469 37.757812 9.414062 37.757812 C 9.023438 37.726562 8.632812 37.710938 8.242188 37.714844 C 8.191406 37.722656 8.148438 37.738281 8.109375 37.765625 C 7.964844 37.8125 7.824219 37.804688 7.6875 37.734375 C 7.621094 37.671875 7.5625 37.601562 7.507812 37.527344 C 7.441406 37.414062 7.386719 37.300781 7.335938 37.179688 C 7.242188 36.921875 7.148438 36.660156 7.050781 36.402344 C 6.894531 36.082031 6.734375 35.769531 6.570312 35.457031 C 6.511719 35.3125 6.480469 35.164062 6.480469 35.007812 C 6.03125 34.8125 5.585938 34.605469 5.152344 34.375 C 4.988281 34.269531 4.816406 34.171875 4.644531 34.074219 C 4.636719 34.054688 4.621094 34.042969 4.597656 34.046875 C 4.589844 34.023438 4.574219 34.015625 4.554688 34.015625 C 4.546875 33.996094 4.53125 33.984375 4.507812 33.984375 C 4.347656 33.886719 4.1875 33.785156 4.027344 33.6875 C 4.019531 33.664062 4.003906 33.65625 3.984375 33.65625 C 3.683594 33.507812 3.390625 33.347656 3.097656 33.183594 C 2.855469 33.03125 2.652344 32.839844 2.492188 32.605469 C 2.285156 32.261719 2.265625 31.90625 2.429688 31.539062 C 2.609375 31.234375 2.773438 30.917969 2.925781 30.59375 C 3.070312 30.199219 3.203125 29.796875 3.332031 29.394531 C 3.554688 28.824219 3.804688 28.265625 4.082031 27.714844 C 4.480469 26.90625 4.886719 26.101562 5.296875 25.300781 C 5.414062 25.085938 5.539062 24.875 5.671875 24.671875 C 6.039062 24.125 6.398438 23.574219 6.75 23.019531 C 7.128906 22.484375 7.527344 21.964844 7.941406 21.460938 C 8.074219 21.292969 8.203125 21.128906 8.332031 20.964844 C 8.542969 20.707031 8.78125 20.484375 9.054688 20.296875 C 9.351562 20.128906 9.652344 19.957031 9.953125 19.785156 C 10.476562 19.496094 11.03125 19.300781 11.617188 19.203125 C 11.785156 19.144531 11.949219 19.085938 12.113281 19.023438 C 12.300781 18.96875 12.488281 18.941406 12.683594 18.9375 C 12.902344 18.957031 13.125 18.957031 13.34375 18.945312 C 13.625 18.910156 13.90625 18.871094 14.183594 18.828125 C 14.347656 18.808594 14.511719 18.800781 14.679688 18.804688 C 14.707031 18.804688 14.738281 18.804688 14.769531 18.804688 C 14.8125 18.824219 14.847656 18.824219 14.875 18.804688 C 14.824219 18.746094 14.769531 18.6875 14.707031 18.632812 C 14.335938 18.34375 13.976562 18.039062 13.628906 17.714844 C 13.445312 17.523438 13.273438 17.320312 13.117188 17.109375 C 12.738281 16.5 12.503906 15.835938 12.421875 15.113281 C 12.3125 14.390625 12.296875 13.664062 12.375 12.9375 C 12.40625 12.785156 12.445312 12.636719 12.488281 12.488281 C 12.570312 12.308594 12.640625 12.125 12.699219 11.933594 C 12.800781 11.507812 12.960938 11.101562 13.171875 10.71875 C 13.398438 10.355469 13.675781 10.03125 14.003906 9.75 C 14.527344 9.378906 15.09375 9.308594 15.699219 9.539062 C 15.914062 9.621094 16.085938 9.753906 16.214844 9.9375 C 16.269531 10.027344 16.308594 10.125 16.335938 10.222656 C 16.386719 10.457031 16.429688 10.691406 16.472656 10.929688 C 16.488281 10.996094 16.507812 11.058594 16.53125 11.125 C 16.589844 11.175781 16.65625 11.195312 16.734375 11.183594 Z M 20.605469 12.171875 C 20.550781 12.210938 20.492188 12.242188 20.425781 12.265625 C 20.410156 12.25 20.402344 12.238281 20.394531 12.21875 C 20.460938 12.195312 20.53125 12.179688 20.605469 12.171875 Z M 12.894531 19.195312 C 12.625 19.242188 12.355469 19.28125 12.082031 19.3125 C 12.34375 19.21875 12.613281 19.179688 12.894531 19.195312 Z M 48.71875 24.789062 C 48.738281 24.855469 48.730469 24.914062 48.6875 24.96875 C 48.703125 24.910156 48.710938 24.851562 48.71875 24.789062 Z M 42.851562 27.308594 C 42.703125 27.414062 42.542969 27.503906 42.371094 27.582031 C 42.519531 27.46875 42.679688 27.378906 42.851562 27.308594 Z M 42.371094 27.582031 C 42.363281 27.601562 42.351562 27.609375 42.328125 27.609375 C 42.332031 27.589844 42.347656 27.578125 42.371094 27.582031 Z M 26.933594 38.785156 C 26.945312 38.792969 26.949219 38.800781 26.949219 38.816406 C 26.9375 38.886719 26.933594 38.957031 26.925781 39.027344 C 26.921875 39.070312 26.910156 39.109375 26.890625 39.144531 C 26.90625 39.027344 26.921875 38.90625 26.933594 38.785156 Z M 22.015625 40.601562 C 21.984375 40.695312 21.925781 40.761719 21.835938 40.796875 C 21.894531 40.730469 21.957031 40.667969 22.015625 40.601562 Z M 23.90625 41.398438 C 23.984375 41.507812 24.058594 41.625 24.128906 41.742188 C 24.0625 41.714844 24.007812 41.671875 23.972656 41.605469 C 23.941406 41.539062 23.917969 41.46875 23.90625 41.398438 Z M 23.90625 41.398438 "/>
</g>
<mask id="mask1">
  <g filter="url(#alpha)">
<rect x="0" y="0" width="50" height="50" style="fill:rgb(0%,0%,0%);fill-opacity:0.996078;stroke:none;"/>
  </g>
</mask>
<clipPath id="clip2">
  <rect width="50" height="50"/>
</clipPath>
<g id="surface9" clip-path="url(#clip2)">
<path style=" stroke:none;fill-rule:evenodd;fill:rgb(98.823529%,98.823529%,98.823529%);fill-opacity:1;" d="M 16.117188 10.386719 C 16.113281 10.417969 16.121094 10.441406 16.132812 10.464844 C 16.144531 10.546875 16.15625 10.632812 16.164062 10.71875 C 16.097656 10.675781 16.03125 10.617188 15.96875 10.546875 C 15.546875 10.210938 15.070312 10.066406 14.527344 10.109375 C 14.28125 10.125 14.046875 10.1875 13.824219 10.296875 C 14.292969 9.699219 14.886719 9.527344 15.609375 9.78125 C 15.890625 9.890625 16.0625 10.09375 16.117188 10.386719 Z M 16.117188 10.386719 "/>
</g>
<mask id="mask2">
  <g filter="url(#alpha)">
<rect x="0" y="0" width="50" height="50" style="fill:rgb(0%,0%,0%);fill-opacity:0.960784;stroke:none;"/>
  </g>
</mask>
<clipPath id="clip3">
  <rect width="50" height="50"/>
</clipPath>
<g id="surface12" clip-path="url(#clip3)">
<path style=" stroke:none;fill-rule:evenodd;fill:rgb(65.882353%,22.745098%,17.647059%);fill-opacity:1;" d="M 19.238281 10.777344 C 19.4375 10.902344 19.609375 11.058594 19.757812 11.242188 C 19.945312 11.472656 20.113281 11.71875 20.257812 11.980469 C 20.183594 12.003906 20.101562 12.019531 20.019531 12.023438 C 19.933594 12.023438 19.863281 11.996094 19.800781 11.933594 C 19.714844 11.691406 19.621094 11.449219 19.515625 11.214844 C 19.445312 11.054688 19.351562 10.910156 19.238281 10.777344 Z M 19.238281 10.777344 "/>
</g>
<mask id="mask3">
  <g filter="url(#alpha)">
<rect x="0" y="0" width="50" height="50" style="fill:rgb(0%,0%,0%);fill-opacity:0.415686;stroke:none;"/>
  </g>
</mask>
<clipPath id="clip4">
  <rect width="50" height="50"/>
</clipPath>
<g id="surface15" clip-path="url(#clip4)">
<path style=" stroke:none;fill-rule:evenodd;fill:rgb(60%,20.784314%,16.078431%);fill-opacity:1;" d="M 16.898438 11.109375 C 16.855469 11.152344 16.800781 11.179688 16.734375 11.183594 C 16.78125 11.148438 16.835938 11.121094 16.898438 11.109375 Z M 16.898438 11.109375 "/>
</g>
<mask id="mask4">
  <g filter="url(#alpha)">
<rect x="0" y="0" width="50" height="50" style="fill:rgb(0%,0%,0%);fill-opacity:0.827451;stroke:none;"/>
  </g>
</mask>
<clipPath id="clip5">
  <rect width="50" height="50"/>
</clipPath>
<g id="surface18" clip-path="url(#clip5)">
<path style=" stroke:none;fill-rule:evenodd;fill:rgb(95.294118%,95.294118%,95.294118%);fill-opacity:1;" d="M 12.699219 11.933594 C 12.640625 12.125 12.570312 12.308594 12.488281 12.488281 C 12.484375 12.40625 12.496094 12.324219 12.527344 12.25 C 12.578125 12.136719 12.632812 12.03125 12.699219 11.933594 Z M 12.699219 11.933594 "/>
</g>
<mask id="mask5">
  <g filter="url(#alpha)">
<rect x="0" y="0" width="50" height="50" style="fill:rgb(0%,0%,0%);fill-opacity:0.984314;stroke:none;"/>
  </g>
</mask>
<clipPath id="clip6">
  <rect width="50" height="50"/>
</clipPath>
<g id="surface21" clip-path="url(#clip6)">
<path style=" stroke:none;fill-rule:evenodd;fill:rgb(98.431373%,97.647059%,97.254902%);fill-opacity:1;" d="M 21.160156 12.082031 C 21.183594 12.078125 21.203125 12.085938 21.21875 12.097656 C 20.964844 12.214844 20.757812 12.390625 20.597656 12.625 C 20.535156 12.503906 20.476562 12.386719 20.425781 12.265625 C 20.492188 12.242188 20.550781 12.210938 20.605469 12.171875 C 20.621094 12.175781 20.628906 12.171875 20.632812 12.160156 C 20.808594 12.121094 20.984375 12.09375 21.160156 12.082031 Z M 21.160156 12.082031 "/>
</g>
<mask id="mask6">
  <g filter="url(#alpha)">
<rect x="0" y="0" width="50" height="50" style="fill:rgb(0%,0%,0%);fill-opacity:0.956863;stroke:none;"/>
  </g>
</mask>
<clipPath id="clip7">
  <rect width="50" height="50"/>
</clipPath>
<g id="surface24" clip-path="url(#clip7)">
<path style=" stroke:none;fill-rule:evenodd;fill:rgb(65.882353%,22.745098%,17.647059%);fill-opacity:1;" d="M 22.703125 12.445312 C 22.792969 12.578125 22.855469 12.722656 22.890625 12.878906 C 22.960938 13.25 23.039062 13.621094 23.125 13.988281 C 22.9375 13.9375 22.820312 13.816406 22.773438 13.628906 C 22.769531 13.359375 22.769531 13.089844 22.773438 12.820312 C 22.757812 12.691406 22.734375 12.566406 22.703125 12.445312 Z M 22.703125 12.445312 "/>
</g>
<mask id="mask7">
  <g filter="url(#alpha)">
<rect x="0" y="0" width="50" height="50" style="fill:rgb(0%,0%,0%);fill-opacity:0.580392;stroke:none;"/>
  </g>
</mask>
<clipPath id="clip8">
  <rect width="50" height="50"/>
</clipPath>
<g id="surface27" clip-path="url(#clip8)">
<path style=" stroke:none;fill-rule:evenodd;fill:rgb(90.196078%,90.196078%,90.196078%);fill-opacity:1;" d="M 27.910156 16.269531 C 28.085938 16.339844 28.246094 16.433594 28.390625 16.554688 C 28.226562 16.464844 28.066406 16.371094 27.910156 16.269531 Z M 27.910156 16.269531 "/>
</g>
<mask id="mask8">
  <g filter="url(#alpha)">
<rect x="0" y="0" width="50" height="50" style="fill:rgb(0%,0%,0%);fill-opacity:0.239216;stroke:none;"/>
  </g>
</mask>
<clipPath id="clip9">
  <rect width="50" height="50"/>
</clipPath>
<g id="surface30" clip-path="url(#clip9)">
<path style=" stroke:none;fill-rule:evenodd;fill:rgb(72.156863%,72.156863%,72.156863%);fill-opacity:1;" d="M 28.40625 16.570312 C 28.429688 16.566406 28.441406 16.578125 28.449219 16.597656 C 28.425781 16.601562 28.414062 16.589844 28.40625 16.570312 Z M 28.40625 16.570312 "/>
</g>
<mask id="mask9">
  <g filter="url(#alpha)">
<rect x="0" y="0" width="50" height="50" style="fill:rgb(0%,0%,0%);fill-opacity:0.960784;stroke:none;"/>
  </g>
</mask>
<clipPath id="clip10">
  <rect width="50" height="50"/>
</clipPath>
<g id="surface33" clip-path="url(#clip10)">
<path style=" stroke:none;fill-rule:evenodd;fill:rgb(65.882353%,22.745098%,17.647059%);fill-opacity:1;" d="M 13.117188 17.109375 C 13.273438 17.320312 13.445312 17.523438 13.628906 17.714844 C 13.976562 18.039062 14.335938 18.34375 14.707031 18.632812 C 14.769531 18.6875 14.824219 18.746094 14.875 18.804688 C 14.839844 18.804688 14.804688 18.804688 14.769531 18.804688 C 14.738281 18.804688 14.707031 18.804688 14.679688 18.804688 C 14.34375 18.753906 14.0625 18.605469 13.832031 18.355469 C 13.515625 17.984375 13.277344 17.570312 13.117188 17.109375 Z M 13.117188 17.109375 "/>
</g>
<mask id="mask10">
  <g filter="url(#alpha)">
<rect x="0" y="0" width="50" height="50" style="fill:rgb(0%,0%,0%);fill-opacity:0.941176;stroke:none;"/>
  </g>
</mask>
<clipPath id="clip11">
  <rect width="50" height="50"/>
</clipPath>
<g id="surface36" clip-path="url(#clip11)">
<path style=" stroke:none;fill-rule:evenodd;fill:rgb(65.098039%,22.352941%,17.647059%);fill-opacity:1;" d="M 30.011719 18.355469 C 30.230469 18.472656 30.394531 18.648438 30.5 18.878906 C 30.546875 19.042969 30.546875 19.207031 30.503906 19.375 C 30.339844 19.035156 30.175781 18.695312 30.011719 18.355469 Z M 30.011719 18.355469 "/>
</g>
<mask id="mask11">
  <g filter="url(#alpha)">
<rect x="0" y="0" width="50" height="50" style="fill:rgb(0%,0%,0%);fill-opacity:0.996078;stroke:none;"/>
  </g>
</mask>
<clipPath id="clip12">
  <rect width="50" height="50"/>
</clipPath>
<g id="surface39" clip-path="url(#clip12)">
<path style=" stroke:none;fill-rule:evenodd;fill:rgb(99.215686%,99.215686%,99.215686%);fill-opacity:1;" d="M 17.453125 21.476562 C 16.585938 20.890625 15.71875 20.296875 14.859375 19.695312 C 14.738281 19.695312 14.617188 19.699219 14.5 19.710938 C 12.886719 19.867188 11.28125 20.042969 9.683594 20.246094 C 10.015625 20.054688 10.355469 19.882812 10.703125 19.726562 C 10.972656 19.628906 11.25 19.554688 11.527344 19.5 C 11.707031 19.433594 11.890625 19.371094 12.070312 19.3125 C 12.074219 19.3125 12.078125 19.3125 12.082031 19.3125 C 12.355469 19.28125 12.625 19.242188 12.894531 19.195312 C 13.097656 19.195312 13.304688 19.1875 13.507812 19.171875 C 13.757812 19.125 14.007812 19.085938 14.257812 19.050781 C 14.488281 19.042969 14.71875 19.042969 14.949219 19.050781 C 15.058594 19.203125 15.1875 19.332031 15.339844 19.441406 C 16.027344 20.140625 16.734375 20.816406 17.453125 21.476562 Z M 17.453125 21.476562 "/>
</g>
<mask id="mask12">
  <g filter="url(#alpha)">
<rect x="0" y="0" width="50" height="50" style="fill:rgb(0%,0%,0%);fill-opacity:0.729412;stroke:none;"/>
  </g>
</mask>
<clipPath id="clip13">
  <rect width="50" height="50"/>
</clipPath>
<g id="surface42" clip-path="url(#clip13)">
<path style=" stroke:none;fill-rule:evenodd;fill:rgb(92.156863%,92.156863%,92.156863%);fill-opacity:1;" d="M 8.332031 20.964844 C 8.203125 21.128906 8.074219 21.292969 7.941406 21.460938 C 8.027344 21.257812 8.160156 21.09375 8.332031 20.964844 Z M 8.332031 20.964844 "/>
</g>
<mask id="mask13">
  <g filter="url(#alpha)">
<rect x="0" y="0" width="50" height="50" style="fill:rgb(0%,0%,0%);fill-opacity:0.8;stroke:none;"/>
  </g>
</mask>
<clipPath id="clip14">
  <rect width="50" height="50"/>
</clipPath>
<g id="surface45" clip-path="url(#clip14)">
<path style=" stroke:none;fill-rule:evenodd;fill:rgb(87.058824%,87.058824%,87.058824%);fill-opacity:1;" d="M 46.511719 22.238281 C 46.339844 22.257812 46.167969 22.289062 45.996094 22.328125 C 45.96875 22.3125 45.96875 22.296875 46.003906 22.285156 C 46.171875 22.257812 46.339844 22.242188 46.511719 22.238281 Z M 46.511719 22.238281 "/>
</g>
<mask id="mask14">
  <g filter="url(#alpha)">
<rect x="0" y="0" width="50" height="50" style="fill:rgb(0%,0%,0%);fill-opacity:0.768627;stroke:none;"/>
  </g>
</mask>
<clipPath id="clip15">
  <rect width="50" height="50"/>
</clipPath>
<g id="surface48" clip-path="url(#clip15)">
<path style=" stroke:none;fill-rule:evenodd;fill:rgb(96.470588%,96.470588%,96.470588%);fill-opacity:1;" d="M 49.226562 22.914062 C 49.265625 22.917969 49.277344 22.9375 49.265625 22.976562 C 49.21875 23.023438 49.167969 23.058594 49.105469 23.078125 C 49.148438 23.023438 49.1875 22.96875 49.226562 22.914062 Z M 49.226562 22.914062 "/>
</g>
<mask id="mask15">
  <g filter="url(#alpha)">
<rect x="0" y="0" width="50" height="50" style="fill:rgb(0%,0%,0%);fill-opacity:0.788235;stroke:none;"/>
  </g>
</mask>
<clipPath id="clip16">
  <rect width="50" height="50"/>
</clipPath>
<g id="surface51" clip-path="url(#clip16)">
<path style=" stroke:none;fill-rule:evenodd;fill:rgb(94.901961%,94.901961%,94.901961%);fill-opacity:1;" d="M 39.625 29.679688 C 39.574219 29.738281 39.519531 29.796875 39.460938 29.851562 C 38.980469 30.183594 38.484375 30.492188 37.976562 30.777344 C 38.527344 30.410156 39.078125 30.046875 39.625 29.679688 Z M 39.625 29.679688 "/>
</g>
<mask id="mask16">
  <g filter="url(#alpha)">
<rect x="0" y="0" width="50" height="50" style="fill:rgb(0%,0%,0%);fill-opacity:0.709804;stroke:none;"/>
  </g>
</mask>
<clipPath id="clip17">
  <rect width="50" height="50"/>
</clipPath>
<g id="surface54" clip-path="url(#clip17)">
<path style=" stroke:none;fill-rule:evenodd;fill:rgb(85.490196%,85.490196%,85.490196%);fill-opacity:1;" d="M 37.976562 30.777344 C 37.957031 30.800781 37.933594 30.816406 37.902344 30.820312 C 37.917969 30.792969 37.945312 30.78125 37.976562 30.777344 Z M 37.976562 30.777344 "/>
</g>
<mask id="mask17">
  <g filter="url(#alpha)">
<rect x="0" y="0" width="50" height="50" style="fill:rgb(0%,0%,0%);fill-opacity:0.0627451;stroke:none;"/>
  </g>
</mask>
<clipPath id="clip18">
  <rect width="50" height="50"/>
</clipPath>
<g id="surface57" clip-path="url(#clip18)">
<path style=" stroke:none;fill-rule:evenodd;fill:rgb(91.764706%,91.764706%,91.764706%);fill-opacity:1;" d="M 37.902344 30.820312 C 37.894531 30.839844 37.878906 30.851562 37.855469 30.851562 C 37.863281 30.828125 37.878906 30.820312 37.902344 30.820312 Z M 37.902344 30.820312 "/>
</g>
<mask id="mask18">
  <g filter="url(#alpha)">
<rect x="0" y="0" width="50" height="50" style="fill:rgb(0%,0%,0%);fill-opacity:0.0627451;stroke:none;"/>
  </g>
</mask>
<clipPath id="clip19">
  <rect width="50" height="50"/>
</clipPath>
<g id="surface60" clip-path="url(#clip19)">
<path style=" stroke:none;fill-rule:evenodd;fill:rgb(85.098039%,85.098039%,85.098039%);fill-opacity:1;" d="M 37.828125 30.867188 C 37.820312 30.886719 37.804688 30.898438 37.78125 30.894531 C 37.789062 30.875 37.804688 30.863281 37.828125 30.867188 Z M 37.828125 30.867188 "/>
</g>
<mask id="mask19">
  <g filter="url(#alpha)">
<rect x="0" y="0" width="50" height="50" style="fill:rgb(0%,0%,0%);fill-opacity:0.0627451;stroke:none;"/>
  </g>
</mask>
<clipPath id="clip20">
  <rect width="50" height="50"/>
</clipPath>
<g id="surface63" clip-path="url(#clip20)">
<path style=" stroke:none;fill-rule:evenodd;fill:rgb(74.901961%,74.901961%,74.901961%);fill-opacity:1;" d="M 35.261719 32.320312 C 35.253906 32.34375 35.238281 32.351562 35.214844 32.351562 C 35.222656 32.328125 35.238281 32.320312 35.261719 32.320312 Z M 35.261719 32.320312 "/>
</g>
<mask id="mask20">
  <g filter="url(#alpha)">
<rect x="0" y="0" width="50" height="50" style="fill:rgb(0%,0%,0%);fill-opacity:0.87451;stroke:none;"/>
  </g>
</mask>
<clipPath id="clip21">
  <rect width="50" height="50"/>
</clipPath>
<g id="surface66" clip-path="url(#clip21)">
<path style=" stroke:none;fill-rule:evenodd;fill:rgb(96.470588%,96.470588%,96.470588%);fill-opacity:1;" d="M 35.125 32.394531 C 34.511719 32.75 33.890625 33.09375 33.265625 33.429688 C 33.261719 33.390625 33.265625 33.351562 33.273438 33.3125 C 33.882812 32.992188 34.503906 32.6875 35.125 32.394531 Z M 35.125 32.394531 "/>
</g>
<mask id="mask21">
  <g filter="url(#alpha)">
<rect x="0" y="0" width="50" height="50" style="fill:rgb(0%,0%,0%);fill-opacity:0.811765;stroke:none;"/>
  </g>
</mask>
<clipPath id="clip22">
  <rect width="50" height="50"/>
</clipPath>
<g id="surface69" clip-path="url(#clip22)">
<path style=" stroke:none;fill-rule:evenodd;fill:rgb(94.117647%,94.117647%,94.117647%);fill-opacity:1;" d="M 32.996094 33.535156 C 32.90625 33.566406 32.816406 33.59375 32.726562 33.609375 C 32.792969 33.5625 32.863281 33.523438 32.941406 33.492188 C 32.96875 33.5 32.984375 33.511719 32.996094 33.535156 Z M 32.996094 33.535156 "/>
</g>
<mask id="mask22">
  <g filter="url(#alpha)">
<rect x="0" y="0" width="50" height="50" style="fill:rgb(0%,0%,0%);fill-opacity:0.647059;stroke:none;"/>
  </g>
</mask>
<clipPath id="clip23">
  <rect width="50" height="50"/>
</clipPath>
<g id="surface72" clip-path="url(#clip23)">
<path style=" stroke:none;fill-rule:evenodd;fill:rgb(44.313725%,46.666667%,54.509804%);fill-opacity:1;" d="M 3.984375 33.65625 C 4.003906 33.65625 4.019531 33.664062 4.027344 33.6875 C 4.003906 33.6875 3.988281 33.675781 3.984375 33.65625 Z M 3.984375 33.65625 "/>
</g>
<mask id="mask23">
  <g filter="url(#alpha)">
<rect x="0" y="0" width="50" height="50" style="fill:rgb(0%,0%,0%);fill-opacity:0.788235;stroke:none;"/>
  </g>
</mask>
<clipPath id="clip24">
  <rect width="50" height="50"/>
</clipPath>
<g id="surface75" clip-path="url(#clip24)">
<path style=" stroke:none;fill-rule:evenodd;fill:rgb(68.627451%,68.627451%,68.627451%);fill-opacity:1;" d="M 4.507812 33.984375 C 4.53125 33.984375 4.546875 33.996094 4.554688 34.015625 C 4.53125 34.015625 4.515625 34.007812 4.507812 33.984375 Z M 4.507812 33.984375 "/>
</g>
<mask id="mask24">
  <g filter="url(#alpha)">
<rect x="0" y="0" width="50" height="50" style="fill:rgb(0%,0%,0%);fill-opacity:0.815686;stroke:none;"/>
  </g>
</mask>
<clipPath id="clip25">
  <rect width="50" height="50"/>
</clipPath>
<g id="surface78" clip-path="url(#clip25)">
<path style=" stroke:none;fill-rule:evenodd;fill:rgb(75.686275%,75.686275%,75.686275%);fill-opacity:1;" d="M 4.554688 34.015625 C 4.574219 34.015625 4.589844 34.023438 4.597656 34.046875 C 4.574219 34.046875 4.558594 34.035156 4.554688 34.015625 Z M 4.554688 34.015625 "/>
</g>
<mask id="mask25">
  <g filter="url(#alpha)">
<rect x="0" y="0" width="50" height="50" style="fill:rgb(0%,0%,0%);fill-opacity:0.839216;stroke:none;"/>
  </g>
</mask>
<clipPath id="clip26">
  <rect width="50" height="50"/>
</clipPath>
<g id="surface81" clip-path="url(#clip26)">
<path style=" stroke:none;fill-rule:evenodd;fill:rgb(84.313725%,84.313725%,84.313725%);fill-opacity:1;" d="M 4.597656 34.046875 C 4.621094 34.042969 4.636719 34.054688 4.644531 34.074219 C 4.621094 34.078125 4.605469 34.066406 4.597656 34.046875 Z M 4.597656 34.046875 "/>
</g>
<mask id="mask26">
  <g filter="url(#alpha)">
<rect x="0" y="0" width="50" height="50" style="fill:rgb(0%,0%,0%);fill-opacity:0.470588;stroke:none;"/>
  </g>
</mask>
<clipPath id="clip27">
  <rect width="50" height="50"/>
</clipPath>
<g id="surface84" clip-path="url(#clip27)">
<path style=" stroke:none;fill-rule:evenodd;fill:rgb(89.019608%,89.019608%,89.019608%);fill-opacity:1;" d="M 4.644531 34.074219 C 4.816406 34.171875 4.988281 34.269531 5.152344 34.375 C 4.96875 34.296875 4.796875 34.199219 4.644531 34.074219 Z M 4.644531 34.074219 "/>
</g>
<mask id="mask27">
  <g filter="url(#alpha)">
<rect x="0" y="0" width="50" height="50" style="fill:rgb(0%,0%,0%);fill-opacity:0.819608;stroke:none;"/>
  </g>
</mask>
<clipPath id="clip28">
  <rect width="50" height="50"/>
</clipPath>
<g id="surface87" clip-path="url(#clip28)">
<path style=" stroke:none;fill-rule:evenodd;fill:rgb(56.078431%,59.215686%,69.019608%);fill-opacity:1;" d="M 7.507812 37.527344 C 7.5625 37.601562 7.621094 37.671875 7.6875 37.734375 C 7.636719 37.734375 7.589844 37.734375 7.539062 37.734375 C 7.535156 37.664062 7.523438 37.59375 7.507812 37.527344 Z M 7.507812 37.527344 "/>
</g>
<mask id="mask28">
  <g filter="url(#alpha)">
<rect x="0" y="0" width="50" height="50" style="fill:rgb(0%,0%,0%);fill-opacity:0.878431;stroke:none;"/>
  </g>
</mask>
<clipPath id="clip29">
  <rect width="50" height="50"/>
</clipPath>
<g id="surface90" clip-path="url(#clip29)">
<path style=" stroke:none;fill-rule:evenodd;fill:rgb(93.72549%,93.72549%,93.72549%);fill-opacity:1;" d="M 9.59375 37.796875 C 9.097656 37.789062 8.601562 37.777344 8.109375 37.765625 C 8.148438 37.738281 8.191406 37.722656 8.242188 37.714844 C 8.632812 37.710938 9.023438 37.726562 9.414062 37.757812 C 9.480469 37.757812 9.539062 37.769531 9.59375 37.796875 Z M 9.59375 37.796875 "/>
</g>
<mask id="mask29">
  <g filter="url(#alpha)">
<rect x="0" y="0" width="50" height="50" style="fill:rgb(0%,0%,0%);fill-opacity:0.690196;stroke:none;"/>
  </g>
</mask>
<clipPath id="clip30">
  <rect width="50" height="50"/>
</clipPath>
<g id="surface93" clip-path="url(#clip30)">
<path style=" stroke:none;fill-rule:evenodd;fill:rgb(94.117647%,94.117647%,94.117647%);fill-opacity:1;" d="M 9.832031 37.78125 C 10.417969 37.789062 10.996094 37.808594 11.574219 37.839844 C 10.96875 37.832031 10.363281 37.820312 9.757812 37.8125 C 9.773438 37.785156 9.800781 37.773438 9.832031 37.78125 Z M 9.832031 37.78125 "/>
</g>
</defs>
<g id="surface1">
<use xlink:href="#surface6" mask="url(#mask0)"/>
<use xlink:href="#surface9" mask="url(#mask1)"/>
<path style=" stroke:none;fill-rule:evenodd;fill:rgb(66.27451%,23.137255%,18.039216%);fill-opacity:1;" d="M 16.164062 10.71875 C 16.179688 10.917969 16.234375 11.105469 16.320312 11.289062 C 16.464844 11.484375 16.648438 11.53125 16.871094 11.429688 C 17.109375 11.3125 17.339844 11.175781 17.558594 11.027344 C 17.8125 10.878906 18.082031 10.773438 18.371094 10.710938 C 18.578125 10.675781 18.769531 10.722656 18.9375 10.847656 C 19.132812 11.03125 19.273438 11.246094 19.367188 11.5 C 19.433594 11.667969 19.492188 11.835938 19.546875 12.007812 C 19.664062 12.226562 19.847656 12.316406 20.09375 12.269531 C 20.191406 12.242188 20.292969 12.226562 20.394531 12.21875 C 20.402344 12.238281 20.410156 12.25 20.425781 12.265625 C 20.476562 12.386719 20.535156 12.503906 20.597656 12.625 C 20.757812 12.390625 20.964844 12.214844 21.21875 12.097656 C 21.238281 12.09375 21.253906 12.082031 21.265625 12.070312 C 21.53125 12.015625 21.796875 12.03125 22.058594 12.105469 C 22.332031 12.222656 22.476562 12.433594 22.503906 12.730469 C 22.5 13.054688 22.5 13.378906 22.503906 13.703125 C 22.550781 13.894531 22.660156 14.039062 22.824219 14.144531 C 22.957031 14.226562 23.097656 14.28125 23.246094 14.320312 C 23.382812 14.632812 23.589844 14.894531 23.859375 15.105469 C 23.984375 15.195312 24.113281 15.273438 24.25 15.339844 C 24.3125 15.601562 24.476562 15.757812 24.746094 15.8125 C 24.828125 15.828125 24.914062 15.839844 25 15.855469 C 25.472656 15.878906 25.941406 15.917969 26.410156 15.976562 C 27.246094 16.214844 27.996094 16.609375 28.660156 17.152344 C 28.832031 17.386719 28.925781 17.644531 28.9375 17.933594 C 29.132812 17.988281 29.324219 18.050781 29.515625 18.113281 C 29.769531 18.570312 30 19.039062 30.199219 19.523438 C 30.222656 19.601562 30.234375 19.683594 30.234375 19.765625 C 30.191406 19.789062 30.148438 19.808594 30.101562 19.824219 C 29.875 19.601562 29.628906 19.402344 29.367188 19.230469 C 29.003906 18.984375 28.640625 18.746094 28.269531 18.511719 C 27.519531 18.0625 26.703125 17.855469 25.824219 17.890625 C 25.8125 17.875 25.796875 17.867188 25.78125 17.859375 C 25.285156 17.625 24.765625 17.476562 24.21875 17.417969 C 23.726562 17.453125 23.253906 17.382812 22.792969 17.207031 C 22.3125 16.976562 21.953125 16.625 21.714844 16.148438 C 21.46875 14.917969 20.726562 14.230469 19.480469 14.085938 C 19.070312 14.078125 18.660156 14.078125 18.25 14.085938 C 17.820312 14.097656 17.425781 14.214844 17.0625 14.4375 C 16.597656 14.585938 16.257812 14.882812 16.042969 15.324219 C 15.699219 15.671875 15.472656 16.085938 15.363281 16.570312 C 15.289062 16.851562 15.242188 17.136719 15.210938 17.425781 C 15.1875 17.863281 15.15625 18.304688 15.128906 18.746094 C 15.113281 18.746094 15.097656 18.746094 15.085938 18.746094 C 14.945312 18.621094 14.816406 18.488281 14.695312 18.347656 C 14.222656 17.984375 13.800781 17.574219 13.425781 17.109375 C 13.019531 16.535156 12.773438 15.894531 12.691406 15.1875 C 12.660156 14.945312 12.632812 14.699219 12.609375 14.453125 C 12.625 14.351562 12.628906 14.246094 12.625 14.140625 C 12.660156 13.585938 12.707031 13.039062 12.773438 12.488281 C 12.917969 12.046875 13.070312 11.605469 13.230469 11.167969 C 13.386719 10.847656 13.582031 10.558594 13.824219 10.296875 C 14.046875 10.1875 14.28125 10.125 14.527344 10.109375 C 15.070312 10.066406 15.546875 10.210938 15.96875 10.546875 C 16.03125 10.617188 16.097656 10.675781 16.164062 10.71875 Z M 20.605469 12.171875 C 20.550781 12.210938 20.492188 12.242188 20.425781 12.265625 C 20.410156 12.25 20.402344 12.238281 20.394531 12.21875 C 20.460938 12.195312 20.53125 12.179688 20.605469 12.171875 Z M 20.605469 12.171875 "/>
<use xlink:href="#surface12" mask="url(#mask2)"/>
<use xlink:href="#surface15" mask="url(#mask3)"/>
<use xlink:href="#surface18" mask="url(#mask4)"/>
<path style=" stroke:none;fill-rule:evenodd;fill:rgb(58.039216%,54.117647%,53.72549%);fill-opacity:1;" d="M 21.160156 12.082031 C 21.191406 12.070312 21.226562 12.0625 21.265625 12.070312 C 21.253906 12.082031 21.238281 12.09375 21.21875 12.097656 C 21.203125 12.085938 21.183594 12.078125 21.160156 12.082031 Z M 21.160156 12.082031 "/>
<use xlink:href="#surface21" mask="url(#mask5)"/>
<use xlink:href="#surface24" mask="url(#mask6)"/>
<path style=" stroke:none;fill-rule:evenodd;fill:rgb(94.117647%,93.333333%,93.333333%);fill-opacity:1;" d="M 12.773438 12.488281 C 12.707031 13.039062 12.660156 13.585938 12.625 14.140625 C 12.613281 14.179688 12.605469 14.21875 12.59375 14.257812 C 12.554688 13.785156 12.578125 13.316406 12.660156 12.847656 C 12.691406 12.722656 12.726562 12.605469 12.773438 12.488281 Z M 12.773438 12.488281 "/>
<path style=" stroke:none;fill-rule:evenodd;fill:rgb(69.803922%,47.45098%,44.705882%);fill-opacity:1;" d="M 12.625 14.140625 C 12.628906 14.246094 12.625 14.351562 12.609375 14.453125 C 12.601562 14.390625 12.597656 14.324219 12.59375 14.257812 C 12.605469 14.21875 12.613281 14.179688 12.625 14.140625 Z M 12.625 14.140625 "/>
<path style=" stroke:none;fill-rule:evenodd;fill:rgb(98.823529%,98.431373%,98.431373%);fill-opacity:1;" d="M 23.246094 14.320312 C 23.503906 14.339844 23.742188 14.417969 23.964844 14.550781 C 24.105469 14.65625 24.191406 14.792969 24.226562 14.964844 C 24.234375 15.089844 24.242188 15.214844 24.25 15.339844 C 24.113281 15.273438 23.984375 15.195312 23.859375 15.105469 C 23.589844 14.894531 23.382812 14.632812 23.246094 14.320312 Z M 23.246094 14.320312 "/>
<path style=" stroke:none;fill-rule:evenodd;fill:rgb(66.27451%,23.529412%,18.431373%);fill-opacity:1;" d="M 21.101562 15.234375 C 20.285156 14.820312 19.429688 14.527344 18.535156 14.363281 C 18.890625 14.351562 19.246094 14.347656 19.597656 14.355469 C 20.144531 14.433594 20.609375 14.671875 20.988281 15.070312 C 21.035156 15.117188 21.070312 15.171875 21.101562 15.234375 Z M 21.101562 15.234375 "/>
<path style=" stroke:none;fill-rule:evenodd;fill:rgb(99.607843%,99.607843%,99.607843%);fill-opacity:1;" d="M 18.535156 14.363281 C 19.429688 14.527344 20.285156 14.820312 21.101562 15.234375 C 21.230469 15.40625 21.332031 15.597656 21.40625 15.804688 C 21.574219 16.316406 21.652344 16.839844 21.648438 17.378906 C 21.625 17.394531 21.613281 17.414062 21.601562 17.4375 C 21.601562 17.769531 21.589844 18.101562 21.570312 18.429688 C 21.523438 18.6875 21.417969 18.914062 21.257812 19.121094 C 20.789062 19.664062 20.203125 20.011719 19.496094 20.160156 C 19.132812 20.230469 18.765625 20.246094 18.398438 20.207031 C 17.894531 20.121094 17.390625 20.039062 16.882812 19.96875 C 16.296875 19.855469 15.804688 19.578125 15.40625 19.132812 C 15.382812 19.101562 15.359375 19.066406 15.339844 19.03125 C 15.394531 18.890625 15.429688 18.746094 15.445312 18.59375 C 15.644531 18.433594 15.761719 18.222656 15.796875 17.964844 C 15.804688 17.898438 15.816406 17.835938 15.828125 17.769531 C 15.828125 17.195312 15.835938 16.617188 15.847656 16.042969 C 15.910156 15.910156 15.988281 15.785156 16.082031 15.667969 C 16.425781 15.296875 16.804688 14.964844 17.214844 14.671875 C 17.621094 14.4375 18.0625 14.335938 18.535156 14.363281 Z M 18.535156 14.363281 "/>
<path style=" stroke:none;fill-rule:evenodd;fill:rgb(96.470588%,95.294118%,94.901961%);fill-opacity:1;" d="M 17.0625 14.4375 C 16.707031 14.710938 16.367188 15.007812 16.042969 15.324219 C 16.257812 14.882812 16.597656 14.585938 17.0625 14.4375 Z M 17.0625 14.4375 "/>
<path style=" stroke:none;fill-rule:evenodd;fill:rgb(1.568627%,1.568627%,1.568627%);fill-opacity:1;" d="M 20.230469 15.847656 C 20.472656 15.855469 20.542969 15.972656 20.433594 16.195312 C 20.316406 16.320312 20.191406 16.328125 20.058594 16.222656 C 20.039062 16.125 20.074219 16.050781 20.160156 16 C 20.167969 15.96875 20.171875 15.9375 20.175781 15.910156 C 20.199219 15.890625 20.214844 15.871094 20.230469 15.847656 Z M 20.230469 15.847656 "/>
<path style=" stroke:none;fill-rule:evenodd;fill:rgb(3.529412%,3.529412%,3.529412%);fill-opacity:1;" d="M 17.902344 15.9375 C 18.035156 15.949219 18.082031 16.015625 18.046875 16.148438 C 18.015625 16.269531 17.9375 16.328125 17.8125 16.320312 C 17.78125 16.300781 17.765625 16.273438 17.769531 16.230469 C 17.777344 16.160156 17.785156 16.085938 17.792969 16.015625 C 17.824219 15.980469 17.863281 15.957031 17.902344 15.9375 Z M 17.902344 15.9375 "/>
<path style=" stroke:none;fill-rule:evenodd;fill:rgb(65.882353%,23.137255%,18.039216%);fill-opacity:1;" d="M 15.847656 16.042969 C 15.835938 16.617188 15.828125 17.195312 15.828125 17.769531 C 15.816406 17.835938 15.804688 17.898438 15.796875 17.964844 C 15.761719 18.222656 15.644531 18.433594 15.445312 18.59375 C 15.425781 17.90625 15.492188 17.226562 15.648438 16.554688 C 15.695312 16.375 15.761719 16.203125 15.847656 16.042969 Z M 15.847656 16.042969 "/>
<path style=" stroke:none;fill-rule:evenodd;fill:rgb(98.823529%,98.431373%,98.431373%);fill-opacity:1;" d="M 21.714844 16.148438 C 21.953125 16.625 22.3125 16.976562 22.792969 17.207031 C 23.253906 17.382812 23.726562 17.453125 24.21875 17.417969 C 24.765625 17.476562 25.285156 17.625 25.78125 17.859375 C 25.65625 17.875 25.53125 17.878906 25.40625 17.875 C 24.546875 17.851562 23.699219 17.765625 22.855469 17.613281 C 22.523438 17.589844 22.191406 17.613281 21.863281 17.679688 C 21.867188 17.597656 21.863281 17.519531 21.855469 17.4375 C 21.851562 17.421875 21.839844 17.40625 21.828125 17.394531 C 21.828125 16.976562 21.792969 16.558594 21.714844 16.148438 Z M 21.714844 16.148438 "/>
<path style=" stroke:none;fill-rule:evenodd;fill:rgb(3.137255%,3.137255%,3.137255%);fill-opacity:1;" d="M 18.953125 16.269531 C 19.007812 16.257812 19.050781 16.273438 19.082031 16.3125 C 19.105469 16.660156 19.136719 17.003906 19.171875 17.347656 C 19.1875 17.519531 19.191406 17.6875 19.1875 17.859375 C 19.148438 17.96875 19.082031 17.988281 18.992188 17.917969 C 18.980469 17.894531 18.96875 17.871094 18.960938 17.84375 C 18.945312 17.425781 18.925781 17.007812 18.910156 16.589844 C 18.910156 16.5 18.914062 16.40625 18.917969 16.3125 C 18.933594 16.300781 18.945312 16.285156 18.953125 16.269531 Z M 18.953125 16.269531 "/>
<use xlink:href="#surface27" mask="url(#mask7)"/>
<use xlink:href="#surface30" mask="url(#mask8)"/>
<use xlink:href="#surface33" mask="url(#mask9)"/>
<path style=" stroke:none;fill-rule:evenodd;fill:rgb(98.039216%,97.647059%,97.254902%);fill-opacity:1;" d="M 28.660156 17.152344 C 29.007812 17.417969 29.292969 17.738281 29.515625 18.113281 C 29.324219 18.050781 29.132812 17.988281 28.9375 17.933594 C 28.925781 17.644531 28.832031 17.386719 28.660156 17.152344 Z M 28.660156 17.152344 "/>
<path style=" stroke:none;fill-rule:evenodd;fill:rgb(99.607843%,99.607843%,99.607843%);fill-opacity:1;" d="M 22.570312 22.105469 C 22.542969 22.1875 22.527344 22.269531 22.523438 22.359375 C 22.410156 22.929688 22.210938 23.46875 21.925781 23.972656 C 21.886719 24 21.84375 24.011719 21.796875 24.011719 C 21.335938 23.886719 20.90625 23.699219 20.5 23.449219 C 19.902344 23.046875 19.308594 22.640625 18.714844 22.230469 C 18.519531 22.082031 18.328125 21.929688 18.144531 21.765625 C 17.496094 21.191406 16.855469 20.609375 16.222656 20.011719 C 16.382812 20.0625 16.542969 20.113281 16.703125 20.160156 C 17.289062 20.285156 17.878906 20.386719 18.472656 20.460938 C 19.386719 20.523438 20.214844 20.292969 20.964844 19.773438 C 21.300781 19.515625 21.558594 19.199219 21.738281 18.820312 C 21.84375 18.503906 21.890625 18.179688 21.878906 17.84375 C 22.09375 17.828125 22.308594 17.820312 22.523438 17.820312 C 22.515625 17.828125 22.507812 17.835938 22.503906 17.84375 C 22.492188 17.914062 22.492188 17.984375 22.503906 18.054688 C 22.53125 18.230469 22.566406 18.40625 22.605469 18.578125 C 22.601562 19.046875 22.644531 19.511719 22.726562 19.972656 C 22.746094 20.140625 22.757812 20.304688 22.765625 20.46875 C 22.730469 21.019531 22.664062 21.5625 22.570312 22.105469 Z M 22.570312 22.105469 "/>
<path style=" stroke:none;fill-rule:evenodd;fill:rgb(98.823529%,98.823529%,98.823529%);fill-opacity:1;" d="M 26.394531 18.160156 C 27.148438 18.582031 27.898438 19.011719 28.644531 19.441406 C 28.929688 19.597656 29.222656 19.722656 29.53125 19.816406 C 29.601562 19.835938 29.667969 19.847656 29.742188 19.855469 C 29.921875 20.007812 30.089844 20.171875 30.242188 20.347656 C 30.679688 20.867188 31.105469 21.390625 31.519531 21.925781 C 31.925781 22.382812 32.34375 22.828125 32.769531 23.265625 C 33.035156 23.492188 33.328125 23.664062 33.65625 23.785156 C 33.652344 23.824219 33.640625 23.859375 33.617188 23.890625 C 33.609375 23.933594 33.609375 23.980469 33.609375 24.023438 C 33.628906 24.027344 33.648438 24.023438 33.664062 24.011719 C 33.632812 24.257812 33.589844 24.503906 33.527344 24.746094 C 33.476562 24.671875 33.414062 24.609375 33.339844 24.558594 C 33.238281 24.492188 33.132812 24.433594 33.027344 24.386719 C 33.054688 24.203125 33.074219 24.023438 33.09375 23.84375 C 32.222656 22.894531 31.328125 21.960938 30.414062 21.046875 C 30.109375 20.761719 29.804688 20.476562 29.5 20.191406 C 29.183594 19.902344 28.84375 19.644531 28.480469 19.410156 C 28.074219 19.199219 27.648438 19.035156 27.207031 18.917969 C 26.488281 18.714844 25.765625 18.5625 25.03125 18.453125 C 24.46875 18.371094 23.90625 18.304688 23.34375 18.25 C 23.304688 18.25 23.269531 18.261719 23.238281 18.28125 C 23.148438 18.789062 23.058594 19.300781 22.96875 19.808594 C 22.964844 19.847656 22.953125 19.875 22.929688 19.898438 C 22.867188 19.46875 22.824219 19.03125 22.800781 18.59375 C 22.753906 18.425781 22.703125 18.253906 22.652344 18.085938 C 22.644531 18 22.632812 17.917969 22.613281 17.835938 C 22.699219 17.828125 22.785156 17.828125 22.871094 17.835938 C 23.179688 17.875 23.492188 17.921875 23.800781 17.972656 C 24.109375 18.003906 24.417969 18.035156 24.730469 18.0625 C 25.285156 18.089844 25.839844 18.121094 26.394531 18.160156 Z M 26.394531 18.160156 "/>
<path style=" stroke:none;fill-rule:evenodd;fill:rgb(51.764706%,50.980392%,50.980392%);fill-opacity:1;" d="M 25.78125 17.859375 C 25.796875 17.867188 25.8125 17.875 25.824219 17.890625 C 25.683594 17.894531 25.542969 17.890625 25.40625 17.875 C 25.53125 17.878906 25.65625 17.875 25.78125 17.859375 Z M 25.78125 17.859375 "/>
<path style=" stroke:none;fill-rule:evenodd;fill:rgb(66.27451%,23.137255%,18.039216%);fill-opacity:1;" d="M 26.394531 18.160156 C 26.949219 18.195312 27.46875 18.347656 27.957031 18.617188 C 28.433594 18.929688 28.90625 19.242188 29.378906 19.5625 C 29.507812 19.652344 29.628906 19.75 29.742188 19.855469 C 29.667969 19.847656 29.601562 19.835938 29.53125 19.816406 C 29.222656 19.722656 28.929688 19.597656 28.644531 19.441406 C 27.898438 19.011719 27.148438 18.582031 26.394531 18.160156 Z M 26.394531 18.160156 "/>
<path style=" stroke:none;fill-rule:evenodd;fill:rgb(57.647059%,60.784314%,70.980392%);fill-opacity:1;" d="M 33.027344 24.386719 C 32.777344 24.308594 32.589844 24.382812 32.464844 24.609375 C 32.339844 24.8125 32.335938 25.019531 32.449219 25.226562 C 32.5625 25.335938 32.699219 25.394531 32.859375 25.40625 C 32.628906 26.914062 32.410156 28.421875 32.207031 29.933594 C 32.097656 31.011719 32.011719 32.09375 31.953125 33.175781 C 31.140625 33.371094 30.332031 33.582031 29.53125 33.8125 C 28.910156 33.925781 28.285156 33.988281 27.65625 33.992188 C 27.175781 34.007812 26.695312 34 26.214844 33.972656 C 26.191406 33.972656 26.171875 33.976562 26.15625 33.984375 C 25.949219 33.851562 25.738281 33.71875 25.523438 33.589844 C 25.304688 33.496094 25.074219 33.4375 24.835938 33.410156 C 24.605469 33.359375 24.375 33.328125 24.144531 33.3125 C 24.164062 33.3125 24.1875 33.3125 24.203125 33.304688 C 23.34375 32.996094 22.480469 32.703125 21.609375 32.417969 C 21.417969 32.359375 21.222656 32.308594 21.023438 32.269531 C 20.960938 32.234375 20.898438 32.195312 20.84375 32.148438 C 20.652344 31.964844 20.46875 31.773438 20.296875 31.570312 C 19.429688 30.511719 18.589844 29.433594 17.777344 28.332031 C 17.296875 27.679688 16.824219 27.023438 16.351562 26.363281 C 15.195312 25.308594 14.042969 24.253906 12.886719 23.199219 C 13.351562 24.375 13.820312 25.550781 14.296875 26.726562 C 14.703125 27.078125 15.105469 27.433594 15.503906 27.789062 C 13.886719 28.429688 12.476562 29.367188 11.265625 30.609375 C 10.378906 31.550781 9.753906 32.644531 9.390625 33.894531 C 9.246094 34.453125 9.164062 35.015625 9.144531 35.589844 C 8.699219 35.535156 8.261719 35.433594 7.839844 35.285156 C 7.496094 35.152344 7.164062 35.003906 6.832031 34.847656 C 6.773438 34.738281 6.683594 34.699219 6.5625 34.726562 C 6.265625 34.59375 5.972656 34.453125 5.679688 34.308594 C 5.921875 34.058594 5.933594 33.800781 5.714844 33.535156 C 5.367188 33.191406 4.980469 33.140625 4.554688 33.394531 C 4.476562 33.4375 4.417969 33.5 4.378906 33.582031 C 3.976562 33.363281 3.578125 33.136719 3.1875 32.898438 C 2.980469 32.753906 2.808594 32.578125 2.671875 32.367188 C 2.582031 32.140625 2.582031 31.917969 2.671875 31.691406 C 2.851562 31.339844 3.03125 30.992188 3.210938 30.640625 C 3.328125 30.304688 3.441406 29.964844 3.539062 29.621094 C 3.824219 28.933594 4.125 28.253906 4.441406 27.582031 C 4.558594 27.335938 4.683594 27.097656 4.808594 26.859375 C 5.203125 26.132812 5.605469 25.40625 6.007812 24.683594 C 6.402344 24.058594 6.804688 23.4375 7.214844 22.824219 C 7.640625 22.28125 8.066406 21.734375 8.492188 21.191406 C 8.835938 20.804688 9.230469 20.488281 9.683594 20.246094 C 11.28125 20.042969 12.886719 19.867188 14.5 19.710938 C 14.617188 19.699219 14.738281 19.695312 14.859375 19.695312 C 15.71875 20.296875 16.585938 20.890625 17.453125 21.476562 C 17.707031 21.703125 17.960938 21.933594 18.21875 22.15625 C 18.460938 22.34375 18.707031 22.523438 18.953125 22.699219 C 19.40625 23.003906 19.855469 23.308594 20.304688 23.613281 C 20.605469 23.800781 20.917969 23.960938 21.25 24.085938 C 21.523438 24.285156 21.804688 24.480469 22.089844 24.671875 C 22.097656 24.667969 22.105469 24.660156 22.113281 24.65625 C 22.148438 24.425781 22.191406 24.199219 22.238281 23.972656 C 22.238281 23.957031 22.234375 23.945312 22.226562 23.933594 C 22.339844 23.695312 22.449219 23.449219 22.546875 23.199219 C 22.683594 22.777344 22.785156 22.347656 22.847656 21.910156 C 22.882812 21.480469 22.929688 21.050781 22.980469 20.621094 C 23 20.375 22.980469 20.136719 22.929688 19.898438 C 22.953125 19.875 22.964844 19.847656 22.96875 19.808594 C 23.058594 19.300781 23.148438 18.789062 23.238281 18.28125 C 23.269531 18.261719 23.304688 18.25 23.34375 18.25 C 23.90625 18.304688 24.46875 18.371094 25.03125 18.453125 C 25.765625 18.5625 26.488281 18.714844 27.207031 18.917969 C 27.648438 19.035156 28.074219 19.199219 28.480469 19.410156 C 28.84375 19.644531 29.183594 19.902344 29.5 20.191406 C 29.804688 20.476562 30.109375 20.761719 30.414062 21.046875 C 31.328125 21.960938 32.222656 22.894531 33.09375 23.84375 C 33.074219 24.023438 33.054688 24.203125 33.027344 24.386719 Z M 33.027344 24.386719 "/>
<use xlink:href="#surface36" mask="url(#mask10)"/>
<path style=" stroke:none;fill-rule:evenodd;fill:rgb(1.568627%,1.568627%,1.568627%);fill-opacity:1;" d="M 20.09375 18.550781 C 20.234375 18.53125 20.285156 18.59375 20.253906 18.730469 C 20.132812 18.96875 19.960938 19.164062 19.734375 19.308594 C 19.457031 19.429688 19.210938 19.386719 19 19.171875 C 18.867188 19.109375 18.75 19.027344 18.648438 18.925781 C 18.625 18.882812 18.605469 18.839844 18.59375 18.796875 C 18.609375 18.734375 18.652344 18.714844 18.714844 18.738281 C 18.75 18.785156 18.789062 18.832031 18.835938 18.871094 C 18.976562 18.933594 19.109375 19.011719 19.238281 19.097656 C 19.386719 19.191406 19.53125 19.183594 19.675781 19.082031 C 19.730469 19.039062 19.785156 18.992188 19.832031 18.9375 C 19.921875 18.8125 20.011719 18.679688 20.09375 18.550781 Z M 20.09375 18.550781 "/>
<path style=" stroke:none;fill-rule:evenodd;fill:rgb(89.803922%,84.313725%,83.921569%);fill-opacity:1;" d="M 15.085938 18.746094 C 15.097656 18.746094 15.113281 18.746094 15.128906 18.746094 C 15.117188 18.78125 15.101562 18.78125 15.085938 18.746094 Z M 15.085938 18.746094 "/>
<use xlink:href="#surface39" mask="url(#mask11)"/>
<path style=" stroke:none;fill-rule:evenodd;fill:rgb(91.764706%,89.411765%,89.411765%);fill-opacity:1;" d="M 30.234375 19.765625 C 30.242188 19.824219 30.21875 19.871094 30.167969 19.898438 C 30.140625 19.875 30.121094 19.851562 30.101562 19.824219 C 30.148438 19.808594 30.191406 19.789062 30.234375 19.765625 Z M 30.234375 19.765625 "/>
<path style=" stroke:none;fill-rule:evenodd;fill:rgb(1.568627%,1.568627%,1.960784%);fill-opacity:1;" d="M 27.355469 20.09375 C 27.757812 20.085938 28.023438 20.269531 28.15625 20.648438 C 28.210938 21.007812 28.066406 21.25 27.730469 21.378906 C 27.414062 21.441406 27.160156 21.34375 26.972656 21.085938 C 26.910156 20.945312 26.890625 20.800781 26.914062 20.648438 C 26.945312 20.480469 27 20.316406 27.070312 20.160156 C 27.117188 20.144531 27.15625 20.160156 27.183594 20.199219 C 27.238281 20.160156 27.296875 20.125 27.355469 20.09375 Z M 27.355469 20.09375 "/>
<path style=" stroke:none;fill-rule:evenodd;fill:rgb(98.823529%,98.823529%,98.823529%);fill-opacity:1;" d="M 27.398438 20.304688 C 27.671875 20.300781 27.859375 20.425781 27.960938 20.679688 C 28.015625 20.945312 27.910156 21.121094 27.65625 21.210938 C 27.378906 21.238281 27.1875 21.128906 27.078125 20.875 C 27.066406 20.734375 27.074219 20.59375 27.101562 20.453125 C 27.144531 20.46875 27.191406 20.46875 27.234375 20.460938 C 27.289062 20.40625 27.34375 20.355469 27.398438 20.304688 Z M 27.398438 20.304688 "/>
<use xlink:href="#surface42" mask="url(#mask12)"/>
<path style=" stroke:none;fill-rule:evenodd;fill:rgb(2.745098%,2.745098%,3.137255%);fill-opacity:1;" d="M 10.089844 22.34375 C 10.09375 22.355469 10.101562 22.367188 10.109375 22.375 C 10.113281 22.46875 10.125 22.566406 10.140625 22.660156 C 10.175781 22.738281 10.230469 22.789062 10.3125 22.816406 C 10.601562 22.929688 10.835938 22.863281 11.011719 22.613281 C 11.066406 22.53125 11.078125 22.441406 11.042969 22.34375 C 10.886719 22.128906 10.679688 22.050781 10.417969 22.113281 C 10.359375 22.183594 10.289062 22.242188 10.207031 22.285156 C 10.1875 22.28125 10.167969 22.273438 10.148438 22.269531 C 10.113281 22.21875 10.109375 22.164062 10.140625 22.105469 C 10.292969 21.910156 10.484375 21.855469 10.71875 21.933594 C 11.03125 22 11.199219 22.195312 11.222656 22.507812 C 11.117188 22.855469 10.886719 23.023438 10.523438 23.011719 C 10.128906 22.988281 9.949219 22.78125 9.992188 22.390625 C 10.011719 22.351562 10.046875 22.339844 10.089844 22.34375 Z M 10.089844 22.34375 "/>
<path style=" stroke:none;fill-rule:evenodd;fill:rgb(99.607843%,99.607843%,99.607843%);fill-opacity:1;" d="M 48.71875 24.789062 C 48.710938 24.851562 48.703125 24.910156 48.6875 24.96875 C 48.6875 24.976562 48.6875 24.980469 48.6875 24.984375 C 48.625 25.085938 48.535156 25.148438 48.417969 25.171875 C 48.25 25.203125 48.078125 25.21875 47.90625 25.21875 C 47.777344 25.234375 47.652344 25.269531 47.53125 25.324219 C 47.425781 25.46875 47.460938 25.5625 47.636719 25.609375 C 47.71875 25.671875 47.714844 25.730469 47.621094 25.789062 C 47.5625 25.835938 47.5 25.871094 47.425781 25.894531 C 46.855469 26.082031 46.273438 26.164062 45.671875 26.148438 C 45.421875 26.210938 45.167969 26.242188 44.90625 26.238281 C 44.867188 26.246094 44.828125 26.257812 44.785156 26.269531 C 44.441406 26.449219 44.089844 26.625 43.738281 26.792969 C 43.433594 26.957031 43.140625 27.128906 42.851562 27.308594 C 42.679688 27.378906 42.519531 27.46875 42.371094 27.582031 C 42.347656 27.578125 42.332031 27.589844 42.328125 27.609375 C 42.3125 27.609375 42.300781 27.613281 42.296875 27.625 C 42.285156 27.625 42.28125 27.628906 42.28125 27.640625 C 42.265625 27.636719 42.257812 27.644531 42.25 27.65625 C 41.761719 27.910156 41.289062 28.1875 40.828125 28.488281 C 40.136719 28.953125 39.453125 29.421875 38.769531 29.898438 C 37.648438 30.632812 36.492188 31.316406 35.304688 31.953125 C 34.625 32.277344 33.953125 32.609375 33.28125 32.949219 C 33.269531 32.125 33.261719 31.300781 33.25 30.476562 C 33.25 30.289062 33.25 30.105469 33.257812 29.921875 C 33.304688 29.539062 33.351562 29.160156 33.410156 28.78125 C 33.414062 28.570312 33.417969 28.359375 33.421875 28.148438 C 33.5 27.585938 33.574219 27.019531 33.648438 26.457031 C 33.804688 25.738281 33.964844 25.023438 34.128906 24.308594 C 34.175781 24.265625 34.207031 24.210938 34.226562 24.152344 C 34.226562 24.105469 34.207031 24.082031 34.160156 24.085938 C 34.015625 24.117188 33.921875 24.203125 33.875 24.339844 C 33.839844 24.421875 33.8125 24.507812 33.789062 24.59375 C 33.777344 24.585938 33.773438 24.570312 33.777344 24.550781 C 33.816406 24.339844 33.847656 24.132812 33.875 23.917969 C 33.878906 23.914062 33.886719 23.90625 33.894531 23.90625 C 34.859375 24.367188 35.875 24.554688 36.941406 24.46875 C 37.175781 24.449219 37.410156 24.429688 37.644531 24.40625 C 38.609375 24.246094 39.574219 24.09375 40.542969 23.957031 C 40.808594 23.894531 41.035156 23.769531 41.230469 23.582031 C 41.523438 23.246094 41.875 22.992188 42.28125 22.816406 C 42.636719 22.660156 42.992188 22.5 43.347656 22.335938 C 43.648438 22.207031 43.964844 22.132812 44.292969 22.113281 C 44.71875 22.003906 45.15625 21.933594 45.597656 21.910156 C 45.75 21.878906 45.8125 21.9375 45.785156 22.089844 C 45.765625 22.160156 45.738281 22.226562 45.695312 22.285156 C 45.632812 22.347656 45.570312 22.410156 45.507812 22.472656 C 45.457031 22.488281 45.40625 22.503906 45.355469 22.523438 C 45.347656 22.550781 45.335938 22.578125 45.328125 22.605469 C 45.15625 22.71875 44.988281 22.835938 44.824219 22.960938 C 44.804688 23.035156 44.820312 23.097656 44.878906 23.148438 C 44.996094 23.199219 45.117188 23.246094 45.238281 23.296875 C 45.394531 23.40625 45.523438 23.542969 45.621094 23.710938 C 45.691406 23.875 45.761719 24.039062 45.828125 24.203125 C 45.894531 24.316406 45.984375 24.359375 46.105469 24.332031 C 46.257812 24.160156 46.222656 24.046875 46.003906 23.996094 C 45.902344 23.664062 45.726562 23.382812 45.476562 23.148438 C 45.390625 23.097656 45.300781 23.046875 45.207031 23.003906 C 45.34375 22.902344 45.484375 22.804688 45.628906 22.710938 C 45.703125 22.652344 45.773438 22.585938 45.835938 22.515625 C 46.15625 22.441406 46.484375 22.414062 46.8125 22.441406 C 47.523438 22.554688 48.230469 22.695312 48.925781 22.871094 C 48.839844 22.949219 48.738281 23.011719 48.628906 23.058594 C 48.347656 23.136719 48.066406 23.21875 47.789062 23.296875 C 47.714844 23.328125 47.652344 23.371094 47.601562 23.425781 C 47.554688 23.492188 47.550781 23.5625 47.585938 23.636719 C 47.617188 23.667969 47.652344 23.683594 47.699219 23.6875 C 48.011719 23.671875 48.328125 23.660156 48.640625 23.65625 C 48.753906 23.664062 48.851562 23.699219 48.933594 23.769531 C 48.996094 23.878906 48.972656 23.972656 48.867188 24.046875 C 48.710938 24.140625 48.539062 24.179688 48.355469 24.167969 C 48.210938 24.1875 48.074219 24.222656 47.9375 24.273438 C 47.863281 24.34375 47.859375 24.417969 47.921875 24.496094 C 48.09375 24.511719 48.261719 24.535156 48.433594 24.574219 C 48.53125 24.597656 48.621094 24.644531 48.695312 24.714844 C 48.710938 24.738281 48.71875 24.761719 48.71875 24.789062 Z M 48.71875 24.789062 "/>
<path style=" stroke:none;fill-rule:evenodd;fill:rgb(98.823529%,98.823529%,98.823529%);fill-opacity:1;" d="M 10.089844 22.34375 C 10.113281 22.324219 10.132812 22.296875 10.148438 22.269531 C 10.167969 22.273438 10.1875 22.28125 10.207031 22.285156 C 10.289062 22.242188 10.359375 22.183594 10.417969 22.113281 C 10.679688 22.050781 10.886719 22.128906 11.042969 22.34375 C 11.078125 22.441406 11.066406 22.53125 11.011719 22.613281 C 10.835938 22.863281 10.601562 22.929688 10.3125 22.816406 C 10.230469 22.789062 10.175781 22.738281 10.140625 22.660156 C 10.125 22.566406 10.113281 22.46875 10.109375 22.375 C 10.101562 22.367188 10.09375 22.355469 10.089844 22.34375 Z M 10.089844 22.34375 "/>
<path style=" stroke:none;fill-rule:evenodd;fill:rgb(56.862745%,59.215686%,67.058824%);fill-opacity:1;" d="M 22.570312 22.105469 C 22.566406 22.195312 22.550781 22.277344 22.523438 22.359375 C 22.527344 22.269531 22.542969 22.1875 22.570312 22.105469 Z M 22.570312 22.105469 "/>
<use xlink:href="#surface45" mask="url(#mask13)"/>
<path style=" stroke:none;fill-rule:evenodd;fill:rgb(1.960784%,2.352941%,2.352941%);fill-opacity:1;" d="M 15.625 22.839844 C 15.945312 22.832031 16.160156 22.976562 16.277344 23.273438 C 16.289062 23.582031 16.140625 23.769531 15.835938 23.835938 C 15.566406 23.855469 15.394531 23.738281 15.316406 23.484375 C 15.296875 23.46875 15.28125 23.449219 15.273438 23.425781 C 15.238281 23.132812 15.355469 22.9375 15.625 22.839844 Z M 15.625 22.839844 "/>
<use xlink:href="#surface48" mask="url(#mask14)"/>
<path style=" stroke:none;fill-rule:evenodd;fill:rgb(98.039216%,98.039216%,98.039216%);fill-opacity:1;" d="M 15.625 23.035156 C 15.847656 23.019531 16.007812 23.117188 16.097656 23.320312 C 16.101562 23.503906 16.015625 23.621094 15.835938 23.671875 C 15.640625 23.703125 15.511719 23.628906 15.445312 23.449219 C 15.449219 23.347656 15.46875 23.25 15.496094 23.15625 C 15.527344 23.101562 15.570312 23.0625 15.625 23.035156 Z M 15.625 23.035156 "/>
<path style=" stroke:none;fill-rule:evenodd;fill:rgb(97.647059%,97.647059%,98.039216%);fill-opacity:1;" d="M 22.226562 23.933594 C 22.234375 23.945312 22.238281 23.957031 22.238281 23.972656 C 22.191406 24.199219 22.148438 24.425781 22.113281 24.65625 C 22.105469 24.660156 22.097656 24.667969 22.089844 24.671875 C 21.804688 24.480469 21.523438 24.285156 21.25 24.085938 C 21.410156 24.136719 21.570312 24.1875 21.730469 24.242188 C 21.8125 24.261719 21.898438 24.269531 21.984375 24.257812 C 22.027344 24.242188 22.0625 24.21875 22.097656 24.191406 C 22.148438 24.109375 22.191406 24.023438 22.226562 23.933594 Z M 22.226562 23.933594 "/>
<path style=" stroke:none;fill-rule:evenodd;fill:rgb(99.215686%,99.215686%,99.215686%);fill-opacity:1;" d="M 24.144531 33.3125 C 23.964844 33.296875 23.785156 33.273438 23.605469 33.242188 C 23.226562 33.125 22.84375 33.003906 22.464844 32.882812 C 22.304688 32.84375 22.144531 32.808594 21.984375 32.777344 C 21.691406 32.753906 21.394531 32.726562 21.101562 32.703125 C 20.898438 32.660156 20.714844 32.582031 20.542969 32.464844 C 20.476562 32.390625 20.414062 32.3125 20.355469 32.230469 C 20.238281 31.972656 20.121094 31.71875 19.996094 31.464844 C 19.59375 30.800781 19.128906 30.179688 18.601562 29.605469 C 18.304688 29.304688 18.015625 29 17.738281 28.699219 C 17.421875 28.355469 17.089844 28.03125 16.75 27.714844 C 16.707031 27.660156 16.664062 27.605469 16.621094 27.550781 C 16.316406 27.261719 16.015625 26.964844 15.722656 26.664062 C 15.488281 26.371094 15.242188 26.085938 14.988281 25.808594 C 14.894531 25.65625 14.800781 25.503906 14.714844 25.34375 C 14.550781 25.15625 14.382812 24.96875 14.207031 24.789062 C 14.050781 24.566406 13.902344 24.34375 13.757812 24.113281 C 13.714844 24.078125 13.664062 24.042969 13.613281 24.015625 C 13.585938 23.941406 13.527344 23.894531 13.449219 23.875 C 13.40625 23.878906 13.375 23.898438 13.351562 23.933594 C 13.339844 24 13.339844 24.066406 13.351562 24.128906 C 13.355469 24.144531 13.363281 24.15625 13.375 24.167969 C 13.332031 24.191406 13.316406 24.230469 13.335938 24.28125 C 13.816406 24.816406 14.296875 25.351562 14.777344 25.886719 C 14.769531 25.914062 14.761719 25.941406 14.753906 25.976562 C 14.757812 26.011719 14.769531 26.046875 14.792969 26.082031 C 14.921875 26.253906 15.046875 26.425781 15.167969 26.605469 C 15.359375 26.8125 15.554688 27.015625 15.757812 27.210938 C 16.226562 27.640625 16.6875 28.078125 17.140625 28.523438 C 17.132812 28.53125 17.128906 28.535156 17.125 28.539062 C 16.492188 28.304688 15.851562 28.285156 15.203125 28.472656 C 14.628906 28.679688 14.089844 28.949219 13.582031 29.28125 C 13.355469 29.445312 13.132812 29.609375 12.910156 29.777344 C 12.550781 30.171875 12.183594 30.558594 11.804688 30.941406 C 11.320312 31.570312 10.910156 32.25 10.574219 32.980469 C 10.269531 33.339844 10.042969 33.742188 9.902344 34.195312 C 9.855469 34.582031 9.8125 34.964844 9.78125 35.351562 C 9.75 35.460938 9.703125 35.566406 9.644531 35.667969 C 9.636719 35.675781 9.628906 35.679688 9.617188 35.679688 C 9.460938 35.648438 9.300781 35.617188 9.144531 35.589844 C 9.164062 35.015625 9.246094 34.453125 9.390625 33.894531 C 9.753906 32.644531 10.378906 31.550781 11.265625 30.609375 C 12.476562 29.367188 13.886719 28.429688 15.503906 27.789062 C 15.105469 27.433594 14.703125 27.078125 14.296875 26.726562 C 13.820312 25.550781 13.351562 24.375 12.886719 23.199219 C 14.042969 24.253906 15.195312 25.308594 16.351562 26.363281 C 16.824219 27.023438 17.296875 27.679688 17.777344 28.332031 C 18.589844 29.433594 19.429688 30.511719 20.296875 31.570312 C 20.46875 31.773438 20.652344 31.964844 20.84375 32.148438 C 20.898438 32.195312 20.960938 32.234375 21.023438 32.269531 C 21.222656 32.308594 21.417969 32.359375 21.609375 32.417969 C 22.480469 32.703125 23.34375 32.996094 24.203125 33.304688 C 24.1875 33.3125 24.164062 33.3125 24.144531 33.3125 Z M 24.144531 33.3125 "/>
<path style=" stroke:none;fill-rule:evenodd;fill:rgb(99.215686%,99.215686%,99.215686%);fill-opacity:1;" d="M 26.15625 33.984375 C 26.171875 33.976562 26.191406 33.972656 26.214844 33.972656 C 26.695312 34 27.175781 34.007812 27.65625 33.992188 C 28.285156 33.988281 28.910156 33.925781 29.53125 33.8125 C 30.332031 33.582031 31.140625 33.371094 31.953125 33.175781 C 32.011719 32.09375 32.097656 31.011719 32.207031 29.933594 C 32.410156 28.421875 32.628906 26.914062 32.859375 25.40625 C 32.9375 25.40625 33.011719 25.40625 33.085938 25.398438 C 33.171875 25.320312 33.164062 25.25 33.070312 25.1875 C 32.929688 25.1875 32.796875 25.160156 32.664062 25.105469 C 32.652344 25.082031 32.632812 25.0625 32.613281 25.046875 C 32.578125 24.851562 32.640625 24.699219 32.800781 24.585938 C 32.894531 24.582031 32.984375 24.605469 33.070312 24.648438 C 33.199219 24.699219 33.300781 24.78125 33.378906 24.894531 C 33.390625 25.011719 33.410156 25.125 33.429688 25.238281 C 33.40625 25.375 33.378906 25.511719 33.347656 25.644531 C 33.226562 26.066406 33.117188 26.492188 33.019531 26.921875 C 32.996094 27.191406 32.964844 27.460938 32.929688 27.730469 C 32.824219 28.277344 32.730469 28.828125 32.644531 29.378906 C 32.578125 29.882812 32.523438 30.390625 32.476562 30.894531 C 32.453125 31.378906 32.449219 31.867188 32.464844 32.351562 C 32.519531 32.640625 32.570312 32.929688 32.613281 33.222656 C 32.621094 33.246094 32.640625 33.269531 32.664062 33.28125 C 32.425781 33.417969 32.175781 33.542969 31.914062 33.648438 C 31.476562 33.8125 31.03125 33.964844 30.582031 34.097656 C 29.800781 34.308594 29.023438 34.511719 28.242188 34.714844 C 27.949219 34.769531 27.65625 34.816406 27.363281 34.855469 C 27.09375 34.675781 26.820312 34.5 26.546875 34.324219 C 26.40625 34.222656 26.277344 34.109375 26.15625 33.984375 Z M 26.15625 33.984375 "/>
<path style=" stroke:none;fill-rule:evenodd;fill:rgb(69.019608%,69.019608%,69.019608%);fill-opacity:1;" d="M 33.777344 24.550781 C 33.773438 24.570312 33.777344 24.585938 33.789062 24.59375 C 33.753906 24.796875 33.710938 24.996094 33.664062 25.195312 C 33.683594 24.976562 33.71875 24.761719 33.777344 24.550781 Z M 33.777344 24.550781 "/>
<path style=" stroke:none;fill-rule:evenodd;fill:rgb(89.019608%,89.411765%,90.588235%);fill-opacity:1;" d="M 6.007812 24.683594 C 5.605469 25.40625 5.203125 26.132812 4.808594 26.859375 C 5.132812 26.183594 5.484375 25.523438 5.867188 24.878906 C 5.910156 24.8125 5.957031 24.746094 6.007812 24.683594 Z M 6.007812 24.683594 "/>
<path style=" stroke:none;fill-rule:evenodd;fill:rgb(1.568627%,1.568627%,1.568627%);fill-opacity:1;" d="M 20.589844 26.484375 C 20.570312 26.664062 20.597656 26.832031 20.671875 26.996094 C 20.742188 27.0625 20.824219 27.085938 20.917969 27.0625 C 21.160156 26.996094 21.285156 26.839844 21.289062 26.589844 C 21.257812 26.515625 21.207031 26.476562 21.128906 26.460938 C 21.078125 26.453125 21.03125 26.453125 20.980469 26.460938 C 20.933594 26.511719 20.878906 26.542969 20.816406 26.558594 C 20.765625 26.546875 20.730469 26.515625 20.710938 26.46875 C 20.695312 26.441406 20.691406 26.410156 20.703125 26.378906 C 20.847656 26.230469 21.019531 26.1875 21.21875 26.253906 C 21.4375 26.339844 21.523438 26.496094 21.480469 26.726562 C 21.375 27.125 21.117188 27.289062 20.710938 27.226562 C 20.546875 27.148438 20.457031 27.015625 20.445312 26.832031 C 20.4375 26.714844 20.4375 26.601562 20.445312 26.484375 C 20.496094 26.425781 20.542969 26.425781 20.589844 26.484375 Z M 20.589844 26.484375 "/>
<path style=" stroke:none;fill-rule:evenodd;fill:rgb(98.431373%,98.431373%,98.431373%);fill-opacity:1;" d="M 20.589844 26.484375 C 20.628906 26.476562 20.667969 26.472656 20.710938 26.46875 C 20.730469 26.515625 20.765625 26.546875 20.816406 26.558594 C 20.878906 26.542969 20.933594 26.511719 20.980469 26.460938 C 21.03125 26.453125 21.078125 26.453125 21.128906 26.460938 C 21.207031 26.476562 21.257812 26.515625 21.289062 26.589844 C 21.285156 26.839844 21.160156 26.996094 20.917969 27.0625 C 20.824219 27.085938 20.742188 27.0625 20.671875 26.996094 C 20.597656 26.832031 20.570312 26.664062 20.589844 26.484375 Z M 20.589844 26.484375 "/>
<path style=" stroke:none;fill-rule:evenodd;fill:rgb(1.960784%,1.960784%,2.352941%);fill-opacity:1;" d="M 26.589844 26.980469 C 26.613281 26.980469 26.628906 26.992188 26.644531 27.011719 C 26.675781 27.113281 26.722656 27.207031 26.777344 27.296875 C 26.863281 27.367188 26.957031 27.375 27.054688 27.316406 C 27.335938 27.046875 27.292969 26.855469 26.921875 26.746094 C 26.859375 26.738281 26.800781 26.738281 26.738281 26.746094 C 26.691406 26.785156 26.632812 26.8125 26.574219 26.832031 C 26.503906 26.816406 26.476562 26.769531 26.492188 26.695312 C 26.566406 26.59375 26.671875 26.542969 26.800781 26.546875 C 27.003906 26.550781 27.175781 26.625 27.316406 26.769531 C 27.4375 27.003906 27.398438 27.210938 27.207031 27.394531 C 27.089844 27.484375 26.960938 27.511719 26.816406 27.484375 C 26.757812 27.453125 26.703125 27.417969 26.65625 27.371094 C 26.597656 27.265625 26.550781 27.15625 26.515625 27.039062 C 26.523438 27 26.546875 26.976562 26.589844 26.980469 Z M 26.589844 26.980469 "/>
<path style=" stroke:none;fill-rule:evenodd;fill:rgb(83.921569%,83.921569%,83.921569%);fill-opacity:1;" d="M 33.117188 28.074219 C 33.121094 28.054688 33.113281 28.039062 33.101562 28.03125 C 33.15625 27.652344 33.203125 27.269531 33.242188 26.890625 C 33.292969 26.671875 33.347656 26.457031 33.410156 26.246094 C 33.316406 26.855469 33.21875 27.46875 33.117188 28.074219 Z M 33.117188 28.074219 "/>
<path style=" stroke:none;fill-rule:evenodd;fill:rgb(98.039216%,98.039216%,98.039216%);fill-opacity:1;" d="M 26.589844 26.980469 C 26.578125 26.933594 26.570312 26.882812 26.574219 26.832031 C 26.632812 26.8125 26.691406 26.785156 26.738281 26.746094 C 26.800781 26.738281 26.859375 26.738281 26.921875 26.746094 C 27.292969 26.855469 27.335938 27.046875 27.054688 27.316406 C 26.957031 27.375 26.863281 27.367188 26.777344 27.296875 C 26.722656 27.207031 26.675781 27.113281 26.644531 27.011719 C 26.628906 26.992188 26.613281 26.980469 26.589844 26.980469 Z M 26.589844 26.980469 "/>
<path style=" stroke:none;fill-rule:evenodd;fill:rgb(1.960784%,1.960784%,2.352941%);fill-opacity:1;" d="M 8.875 28.136719 C 8.886719 28.207031 8.894531 28.28125 8.894531 28.359375 C 8.972656 28.59375 9.125 28.667969 9.351562 28.578125 C 9.460938 28.496094 9.535156 28.386719 9.570312 28.253906 C 9.582031 28.199219 9.574219 28.152344 9.539062 28.105469 C 9.453125 27.984375 9.335938 27.917969 9.1875 27.910156 C 9.042969 27.921875 8.914062 27.972656 8.796875 28.058594 C 8.691406 28.054688 8.648438 28 8.671875 27.894531 C 8.863281 27.738281 9.078125 27.679688 9.324219 27.722656 C 9.777344 27.890625 9.875 28.179688 9.617188 28.585938 C 9.4375 28.808594 9.21875 28.855469 8.964844 28.726562 C 8.773438 28.574219 8.714844 28.382812 8.789062 28.148438 C 8.816406 28.136719 8.84375 28.132812 8.875 28.136719 Z M 8.875 28.136719 "/>
<path style=" stroke:none;fill-rule:evenodd;fill:rgb(98.431373%,98.431373%,98.823529%);fill-opacity:1;" d="M 8.875 28.136719 C 8.832031 28.128906 8.808594 28.101562 8.796875 28.058594 C 8.914062 27.972656 9.042969 27.921875 9.1875 27.910156 C 9.335938 27.917969 9.453125 27.984375 9.539062 28.105469 C 9.574219 28.152344 9.582031 28.199219 9.570312 28.253906 C 9.535156 28.386719 9.460938 28.496094 9.351562 28.578125 C 9.125 28.667969 8.972656 28.59375 8.894531 28.359375 C 8.894531 28.28125 8.886719 28.207031 8.875 28.136719 Z M 8.875 28.136719 "/>
<path style=" stroke:none;fill-rule:evenodd;fill:rgb(96.078431%,96.078431%,96.078431%);fill-opacity:1;" d="M 33.101562 28.03125 C 33.113281 28.039062 33.121094 28.054688 33.117188 28.074219 C 33.105469 28.335938 33.097656 28.59375 33.09375 28.855469 C 33.03125 29.222656 32.984375 29.59375 32.957031 29.964844 C 32.953125 31.019531 32.949219 32.074219 32.941406 33.128906 C 32.910156 33.148438 32.878906 33.167969 32.847656 33.191406 C 32.792969 32.90625 32.738281 32.621094 32.6875 32.335938 C 32.664062 30.886719 32.800781 29.449219 33.101562 28.03125 Z M 33.101562 28.03125 "/>
<path style=" stroke:none;fill-rule:evenodd;fill:rgb(98.431373%,98.431373%,98.431373%);fill-opacity:1;" d="M 16.089844 28.480469 C 16.496094 28.476562 16.890625 28.539062 17.273438 28.667969 C 17.152344 28.71875 17.027344 28.757812 16.898438 28.789062 C 16.71875 28.816406 16.539062 28.839844 16.359375 28.863281 C 16.519531 28.808594 16.679688 28.75 16.839844 28.683594 C 16.890625 28.589844 16.859375 28.554688 16.75 28.578125 C 16.242188 28.746094 15.738281 28.914062 15.234375 29.089844 C 14.351562 29.425781 13.59375 29.949219 12.960938 30.65625 C 12.8125 30.824219 12.667969 30.992188 12.519531 31.15625 C 12.039062 31.546875 11.574219 31.960938 11.132812 32.394531 C 11.449219 31.722656 11.878906 31.128906 12.421875 30.609375 C 12.644531 30.324219 12.890625 30.0625 13.164062 29.824219 C 13.597656 29.476562 14.070312 29.179688 14.574219 28.9375 C 14.894531 28.777344 15.230469 28.652344 15.578125 28.5625 C 15.75 28.527344 15.921875 28.5 16.089844 28.480469 Z M 16.089844 28.480469 "/>
<path style=" stroke:none;fill-rule:evenodd;fill:rgb(99.607843%,99.607843%,99.607843%);fill-opacity:1;" d="M 26.933594 38.785156 C 26.921875 38.90625 26.90625 39.027344 26.890625 39.144531 C 26.875 39.164062 26.871094 39.183594 26.875 39.207031 C 26.804688 39.417969 26.664062 39.480469 26.457031 39.394531 C 26.363281 39.339844 26.277344 39.277344 26.199219 39.207031 C 25.988281 38.964844 25.761719 38.738281 25.523438 38.523438 C 25.449219 38.472656 25.371094 38.425781 25.285156 38.390625 C 25.179688 38.375 25.117188 38.421875 25.097656 38.53125 C 25.085938 38.601562 25.085938 38.671875 25.097656 38.742188 C 25.210938 39.136719 25.328125 39.53125 25.441406 39.925781 C 25.476562 40.082031 25.46875 40.238281 25.425781 40.390625 C 25.378906 40.53125 25.320312 40.667969 25.246094 40.796875 C 25.058594 41.082031 24.839844 41.34375 24.59375 41.585938 C 24.496094 41.660156 24.382812 41.71875 24.265625 41.765625 C 24.226562 41.773438 24.183594 41.773438 24.144531 41.765625 C 24.136719 41.757812 24.132812 41.75 24.128906 41.742188 C 24.058594 41.625 23.984375 41.507812 23.90625 41.398438 C 23.90625 41.382812 23.902344 41.371094 23.890625 41.367188 C 23.722656 40.507812 23.339844 39.765625 22.734375 39.140625 C 22.597656 39.019531 22.460938 38.902344 22.316406 38.792969 C 22.21875 38.730469 22.121094 38.675781 22.015625 38.628906 C 21.9375 38.597656 21.855469 38.582031 21.773438 38.582031 C 21.746094 38.589844 21.730469 38.609375 21.722656 38.636719 C 21.691406 38.738281 21.695312 38.835938 21.738281 38.9375 C 21.84375 39.117188 21.945312 39.304688 22.039062 39.492188 C 22.164062 39.847656 22.167969 40.199219 22.042969 40.554688 C 22.035156 40.554688 22.03125 40.5625 22.03125 40.570312 C 22.015625 40.578125 22.011719 40.585938 22.015625 40.601562 C 21.957031 40.667969 21.894531 40.730469 21.835938 40.796875 C 21.789062 40.816406 21.746094 40.8125 21.699219 40.789062 C 21.621094 40.746094 21.546875 40.703125 21.476562 40.652344 C 21.085938 40.324219 20.695312 39.992188 20.304688 39.664062 C 19.859375 39.328125 19.390625 39.027344 18.894531 38.765625 C 18.554688 38.539062 18.207031 38.316406 17.859375 38.105469 C 17.433594 37.886719 17.015625 37.660156 16.597656 37.429688 C 16.023438 37.109375 15.414062 36.886719 14.769531 36.753906 C 14.296875 36.691406 13.820312 36.640625 13.34375 36.605469 C 12.691406 36.496094 12.046875 36.347656 11.410156 36.167969 C 10.996094 36.054688 10.585938 35.933594 10.179688 35.808594 C 10.21875 35.742188 10.246094 35.667969 10.261719 35.589844 C 10.289062 35.347656 10.347656 35.113281 10.441406 34.886719 C 10.835938 33.804688 11.386719 32.8125 12.089844 31.914062 C 13.222656 30.867188 14.476562 29.992188 15.847656 29.28125 C 16.253906 29.144531 16.667969 29.039062 17.09375 28.96875 C 17.210938 28.929688 17.324219 28.882812 17.433594 28.824219 C 17.972656 29.367188 18.492188 29.925781 18.992188 30.503906 C 19.457031 31.117188 19.847656 31.777344 20.160156 32.484375 C 20.289062 32.6875 20.464844 32.824219 20.695312 32.898438 C 21.019531 33.015625 21.355469 33.066406 21.699219 33.046875 C 21.851562 33.070312 22 33.09375 22.148438 33.125 C 22.609375 33.257812 23.070312 33.394531 23.53125 33.527344 C 23.878906 33.589844 24.226562 33.640625 24.578125 33.679688 C 24.800781 33.71875 25.019531 33.757812 25.238281 33.796875 C 25.617188 33.953125 25.945312 34.171875 26.230469 34.457031 C 26.636719 34.726562 27.035156 35.011719 27.414062 35.3125 C 27.769531 35.613281 28 35.992188 28.097656 36.445312 C 28.121094 36.746094 28.097656 37.039062 28.023438 37.332031 C 27.96875 37.558594 27.835938 37.621094 27.625 37.519531 C 27.417969 37.417969 27.210938 37.3125 27.011719 37.203125 C 26.871094 37.136719 26.730469 37.136719 26.589844 37.203125 C 26.503906 37.277344 26.472656 37.371094 26.492188 37.480469 C 26.585938 37.671875 26.683594 37.859375 26.777344 38.050781 C 26.890625 38.285156 26.941406 38.527344 26.933594 38.785156 Z M 22.015625 40.601562 C 21.984375 40.695312 21.925781 40.761719 21.835938 40.796875 C 21.894531 40.730469 21.957031 40.667969 22.015625 40.601562 Z M 22.015625 40.601562 "/>
<path style=" stroke:none;fill-rule:evenodd;fill:rgb(56.470588%,56.470588%,56.470588%);fill-opacity:1;" d="M 15.324219 29.230469 C 15.324219 29.21875 15.320312 29.214844 15.308594 29.214844 C 15.335938 29.195312 15.363281 29.1875 15.398438 29.191406 C 15.375 29.207031 15.347656 29.21875 15.324219 29.230469 Z M 15.324219 29.230469 "/>
<path style=" stroke:none;fill-rule:evenodd;fill:rgb(95.294118%,95.294118%,95.294118%);fill-opacity:1;" d="M 15.308594 29.214844 C 15.320312 29.214844 15.324219 29.21875 15.324219 29.230469 C 14.710938 29.570312 14.121094 29.941406 13.554688 30.347656 C 13.429688 30.445312 13.304688 30.535156 13.179688 30.617188 C 13.773438 29.972656 14.480469 29.507812 15.308594 29.214844 Z M 15.308594 29.214844 "/>
<use xlink:href="#surface51" mask="url(#mask15)"/>
<path style=" stroke:none;fill-rule:evenodd;fill:rgb(1.960784%,2.352941%,2.352941%);fill-opacity:1;" d="M 30.671875 30.851562 C 30.695312 30.851562 30.710938 30.859375 30.722656 30.878906 C 30.734375 30.976562 30.757812 31.066406 30.796875 31.152344 C 30.847656 31.207031 30.910156 31.230469 30.984375 31.226562 C 31.132812 31.226562 31.261719 31.175781 31.367188 31.074219 C 31.433594 30.984375 31.449219 30.882812 31.421875 30.777344 C 31.386719 30.738281 31.347656 30.710938 31.300781 30.691406 C 31.097656 30.609375 30.890625 30.566406 30.671875 30.566406 C 30.585938 30.542969 30.550781 30.488281 30.574219 30.402344 C 30.628906 30.347656 30.695312 30.328125 30.777344 30.339844 C 31.039062 30.363281 31.285156 30.445312 31.511719 30.589844 C 31.636719 30.710938 31.664062 30.851562 31.59375 31.015625 C 31.484375 31.261719 31.289062 31.378906 31.015625 31.359375 C 30.75 31.355469 30.621094 31.214844 30.625 30.949219 C 30.628906 30.921875 30.628906 30.894531 30.632812 30.867188 C 30.644531 30.855469 30.65625 30.847656 30.671875 30.851562 Z M 30.671875 30.851562 "/>
<path style=" stroke:none;fill-rule:evenodd;fill:rgb(1.960784%,1.960784%,2.352941%);fill-opacity:1;" d="M 22.269531 30.476562 C 22.410156 30.460938 22.546875 30.484375 22.675781 30.542969 C 22.824219 30.667969 22.882812 30.824219 22.847656 31.015625 C 22.753906 31.316406 22.550781 31.492188 22.238281 31.546875 C 22.046875 31.570312 21.878906 31.515625 21.738281 31.390625 C 21.664062 31.242188 21.695312 31.121094 21.828125 31.03125 C 21.839844 30.734375 21.988281 30.550781 22.269531 30.476562 Z M 22.269531 30.476562 "/>
<path style=" stroke:none;fill-rule:evenodd;fill:rgb(98.823529%,98.823529%,98.823529%);fill-opacity:1;" d="M 30.671875 30.566406 C 30.890625 30.566406 31.097656 30.609375 31.300781 30.691406 C 31.347656 30.710938 31.386719 30.738281 31.421875 30.777344 C 31.449219 30.882812 31.433594 30.984375 31.367188 31.074219 C 31.261719 31.175781 31.132812 31.226562 30.984375 31.226562 C 30.910156 31.230469 30.847656 31.207031 30.796875 31.152344 C 30.757812 31.066406 30.734375 30.976562 30.722656 30.878906 C 30.710938 30.859375 30.695312 30.851562 30.671875 30.851562 C 30.671875 30.753906 30.671875 30.660156 30.671875 30.566406 Z M 30.671875 30.566406 "/>
<path style=" stroke:none;fill-rule:evenodd;fill:rgb(98.039216%,98.039216%,98.039216%);fill-opacity:1;" d="M 22.269531 30.640625 C 22.617188 30.628906 22.726562 30.785156 22.59375 31.105469 C 22.453125 31.289062 22.269531 31.359375 22.042969 31.324219 C 21.992188 31.308594 21.949219 31.285156 21.910156 31.25 C 21.984375 31.191406 22.070312 31.15625 22.164062 31.136719 C 22.207031 31.074219 22.203125 31.015625 22.148438 30.964844 C 22.085938 30.957031 22.019531 30.957031 21.953125 30.96875 C 21.988281 30.792969 22.09375 30.679688 22.269531 30.640625 Z M 22.269531 30.640625 "/>
<path style=" stroke:none;fill-rule:evenodd;fill:rgb(34.509804%,34.509804%,34.509804%);fill-opacity:1;" d="M 33.25 30.476562 C 33.261719 31.300781 33.269531 32.125 33.28125 32.949219 C 33.28125 32.957031 33.273438 32.964844 33.265625 32.964844 C 33.25 32.136719 33.246094 31.304688 33.25 30.476562 Z M 33.25 30.476562 "/>
<use xlink:href="#surface54" mask="url(#mask16)"/>
<use xlink:href="#surface57" mask="url(#mask17)"/>
<use xlink:href="#surface60" mask="url(#mask18)"/>
<use xlink:href="#surface63" mask="url(#mask19)"/>
<path style=" stroke:none;fill-rule:evenodd;fill:rgb(97.254902%,97.254902%,97.254902%);fill-opacity:1;" d="M 11.589844 32.367188 C 11.054688 33.15625 10.617188 34.003906 10.277344 34.914062 C 10.28125 34.546875 10.332031 34.179688 10.425781 33.820312 C 10.453125 33.714844 10.496094 33.617188 10.546875 33.519531 C 10.664062 33.355469 10.789062 33.195312 10.921875 33.039062 C 11.136719 32.808594 11.359375 32.582031 11.589844 32.367188 Z M 11.589844 32.367188 "/>
<use xlink:href="#surface66" mask="url(#mask20)"/>
<path style=" stroke:none;fill-rule:evenodd;fill:rgb(98.431373%,98.431373%,98.431373%);fill-opacity:1;" d="M 5.003906 33.402344 C 5.285156 33.402344 5.503906 33.519531 5.65625 33.761719 C 5.6875 33.816406 5.699219 33.878906 5.6875 33.941406 C 5.632812 34.058594 5.570312 34.175781 5.5 34.285156 C 5.167969 34.132812 4.84375 33.976562 4.515625 33.820312 C 4.492188 33.730469 4.511719 33.644531 4.566406 33.574219 C 4.703125 33.492188 4.847656 33.433594 5.003906 33.402344 Z M 5.003906 33.402344 "/>
<use xlink:href="#surface69" mask="url(#mask21)"/>
<use xlink:href="#surface72" mask="url(#mask22)"/>
<use xlink:href="#surface75" mask="url(#mask23)"/>
<use xlink:href="#surface78" mask="url(#mask24)"/>
<use xlink:href="#surface81" mask="url(#mask25)"/>
<path style=" stroke:none;fill-rule:evenodd;fill:rgb(98.431373%,98.431373%,98.431373%);fill-opacity:1;" d="M 28.390625 36.070312 C 28.351562 36.058594 28.3125 36.050781 28.269531 36.042969 C 28.121094 35.699219 27.917969 35.398438 27.65625 35.132812 C 28.925781 34.898438 30.171875 34.574219 31.398438 34.164062 C 31.40625 34.171875 31.414062 34.175781 31.421875 34.179688 C 31.34375 34.3125 31.277344 34.445312 31.21875 34.585938 C 31.136719 34.824219 31.058594 35.066406 30.976562 35.304688 C 30.929688 35.410156 30.875 35.511719 30.8125 35.605469 C 30.753906 35.679688 30.679688 35.738281 30.59375 35.777344 C 30.402344 35.769531 30.210938 35.796875 30.027344 35.855469 C 29.667969 35.855469 29.308594 35.867188 28.953125 35.890625 C 28.859375 35.890625 28.765625 35.882812 28.675781 35.859375 C 28.652344 35.804688 28.609375 35.769531 28.546875 35.757812 C 28.464844 35.785156 28.40625 35.839844 28.367188 35.921875 C 28.355469 35.976562 28.363281 36.023438 28.390625 36.070312 Z M 28.390625 36.070312 "/>
<use xlink:href="#surface84" mask="url(#mask26)"/>
<path style=" stroke:none;fill-rule:evenodd;fill:rgb(58.431373%,61.176471%,71.372549%);fill-opacity:1;" d="M 31.089844 34.617188 C 31.105469 34.613281 31.121094 34.617188 31.136719 34.625 C 30.949219 34.882812 30.761719 35.136719 30.574219 35.394531 C 30.554688 35.421875 30.53125 35.441406 30.503906 35.457031 C 29.832031 35.539062 29.15625 35.613281 28.480469 35.671875 C 28.6875 35.453125 28.886719 35.226562 29.082031 35 C 29.753906 34.878906 30.421875 34.75 31.089844 34.617188 Z M 31.089844 34.617188 "/>
<path style=" stroke:none;fill-rule:evenodd;fill:rgb(98.431373%,98.431373%,98.431373%);fill-opacity:1;" d="M 8.527344 35.757812 C 8.601562 35.796875 8.675781 35.832031 8.753906 35.859375 C 8.675781 35.902344 8.621094 35.960938 8.589844 36.042969 C 8.515625 36.054688 8.4375 36.054688 8.363281 36.035156 C 8 35.964844 7.632812 35.898438 7.269531 35.832031 C 7.269531 35.960938 7.285156 36.089844 7.3125 36.222656 C 7.3125 36.234375 7.308594 36.246094 7.296875 36.25 C 7.261719 36.148438 7.21875 36.050781 7.171875 35.949219 C 7.054688 35.753906 6.941406 35.554688 6.832031 35.351562 C 6.855469 35.335938 6.882812 35.332031 6.90625 35.335938 C 6.910156 35.304688 6.90625 35.277344 6.902344 35.246094 C 6.878906 35.210938 6.867188 35.175781 6.855469 35.140625 C 7.285156 35.339844 7.722656 35.519531 8.167969 35.671875 C 8.289062 35.699219 8.410156 35.726562 8.527344 35.757812 Z M 8.527344 35.757812 "/>
<path style=" stroke:none;fill-rule:evenodd;fill:rgb(89.019608%,89.019608%,89.019608%);fill-opacity:1;" d="M 10.027344 35.5625 C 10.042969 35.628906 10.046875 35.699219 10.042969 35.769531 C 10.023438 35.769531 10.003906 35.769531 9.984375 35.769531 C 9.984375 35.699219 10 35.628906 10.027344 35.5625 Z M 10.027344 35.5625 "/>
<path style=" stroke:none;fill-rule:evenodd;fill:rgb(56.078431%,59.215686%,68.235294%);fill-opacity:1;" d="M 8.527344 35.757812 C 8.628906 35.773438 8.730469 35.792969 8.828125 35.824219 C 8.804688 35.835938 8.777344 35.847656 8.753906 35.859375 C 8.675781 35.832031 8.601562 35.796875 8.527344 35.757812 Z M 8.527344 35.757812 "/>
<path style=" stroke:none;fill-rule:evenodd;fill:rgb(57.647059%,60.784314%,70.980392%);fill-opacity:1;" d="M 8.589844 36.042969 C 8.585938 36.125 8.625 36.167969 8.707031 36.167969 C 8.589844 36.285156 8.570312 36.417969 8.65625 36.566406 C 8.773438 36.671875 8.902344 36.683594 9.039062 36.605469 C 9.203125 36.449219 9.273438 36.257812 9.25 36.027344 C 9.261719 36.078125 9.269531 36.132812 9.261719 36.191406 C 10.398438 36.390625 11.53125 36.585938 12.667969 36.777344 C 12.6875 36.777344 12.703125 36.769531 12.714844 36.761719 C 12.734375 36.757812 12.75 36.761719 12.757812 36.777344 C 12.746094 36.773438 12.738281 36.777344 12.730469 36.785156 C 12.90625 36.820312 13.089844 36.855469 13.269531 36.882812 C 13.984375 37 14.703125 37.113281 15.421875 37.226562 C 15.441406 37.226562 15.460938 37.222656 15.472656 37.210938 C 15.601562 37.253906 15.726562 37.304688 15.847656 37.359375 C 14.414062 37.402344 12.984375 37.464844 11.558594 37.542969 C 11.34375 37.523438 11.128906 37.511719 10.914062 37.511719 C 10.921875 37.230469 10.800781 37.03125 10.554688 36.902344 C 10.277344 36.851562 10.023438 36.90625 9.789062 37.070312 C 9.660156 37.171875 9.597656 37.304688 9.59375 37.464844 C 9.21875 37.445312 8.84375 37.425781 8.46875 37.40625 C 8.363281 37.40625 8.257812 37.414062 8.152344 37.429688 C 8.078125 37.457031 8.003906 37.476562 7.929688 37.496094 C 7.851562 37.476562 7.792969 37.433594 7.753906 37.359375 C 7.726562 37.300781 7.695312 37.242188 7.664062 37.179688 C 7.554688 36.867188 7.429688 36.554688 7.296875 36.25 C 7.308594 36.246094 7.3125 36.234375 7.3125 36.222656 C 7.285156 36.089844 7.269531 35.960938 7.269531 35.832031 C 7.632812 35.898438 8 35.964844 8.363281 36.035156 C 8.4375 36.054688 8.515625 36.054688 8.589844 36.042969 Z M 8.589844 36.042969 "/>
<path style=" stroke:none;fill-rule:evenodd;fill:rgb(97.254902%,97.254902%,97.254902%);fill-opacity:1;" d="M 12.714844 36.761719 C 12.703125 36.769531 12.6875 36.777344 12.667969 36.777344 C 11.53125 36.585938 10.398438 36.390625 9.261719 36.191406 C 9.269531 36.132812 9.261719 36.078125 9.25 36.027344 C 9.234375 35.960938 9.199219 35.90625 9.144531 35.867188 C 9.292969 35.882812 9.445312 35.910156 9.59375 35.945312 C 10.269531 36.113281 10.9375 36.296875 11.605469 36.5 C 11.972656 36.589844 12.34375 36.679688 12.714844 36.761719 Z M 12.714844 36.761719 "/>
<path style=" stroke:none;fill-rule:evenodd;fill:rgb(94.117647%,94.509804%,94.901961%);fill-opacity:1;" d="M 9.054688 36.144531 C 8.964844 36.140625 8.878906 36.128906 8.796875 36.101562 C 8.867188 36.007812 8.949219 35.992188 9.046875 36.054688 C 9.054688 36.085938 9.054688 36.117188 9.054688 36.144531 Z M 9.054688 36.144531 "/>
<path style=" stroke:none;fill-rule:evenodd;fill:rgb(56.470588%,59.607843%,69.411765%);fill-opacity:1;" d="M 8.796875 36.101562 C 8.878906 36.128906 8.964844 36.140625 9.054688 36.144531 C 9.054688 36.277344 9.003906 36.386719 8.902344 36.46875 C 8.820312 36.488281 8.769531 36.457031 8.753906 36.371094 C 8.773438 36.316406 8.796875 36.261719 8.828125 36.214844 C 8.824219 36.175781 8.804688 36.148438 8.769531 36.132812 C 8.773438 36.117188 8.785156 36.105469 8.796875 36.101562 Z M 8.796875 36.101562 "/>
<path style=" stroke:none;fill-rule:evenodd;fill:rgb(69.411765%,70.196078%,72.941176%);fill-opacity:1;" d="M 12.757812 36.777344 C 12.9375 36.800781 13.113281 36.832031 13.285156 36.867188 C 13.273438 36.867188 13.269531 36.871094 13.269531 36.882812 C 13.089844 36.855469 12.90625 36.820312 12.730469 36.785156 C 12.738281 36.777344 12.746094 36.773438 12.757812 36.777344 Z M 12.757812 36.777344 "/>
<path style=" stroke:none;fill-rule:evenodd;fill:rgb(96.078431%,96.078431%,96.470588%);fill-opacity:1;" d="M 13.269531 36.882812 C 13.269531 36.871094 13.273438 36.867188 13.285156 36.867188 C 13.710938 36.890625 14.136719 36.925781 14.558594 36.980469 C 14.871094 37.035156 15.175781 37.113281 15.472656 37.210938 C 15.460938 37.222656 15.441406 37.226562 15.421875 37.226562 C 14.703125 37.113281 13.984375 37 13.269531 36.882812 Z M 13.269531 36.882812 "/>
<path style=" stroke:none;fill-rule:evenodd;fill:rgb(56.470588%,59.607843%,69.411765%);fill-opacity:1;" d="M 10.296875 37.0625 C 10.5 37.066406 10.632812 37.164062 10.695312 37.359375 C 10.703125 37.40625 10.707031 37.449219 10.703125 37.496094 C 10.386719 37.496094 10.074219 37.492188 9.757812 37.480469 C 9.765625 37.371094 9.816406 37.285156 9.910156 37.21875 C 10.035156 37.152344 10.164062 37.101562 10.296875 37.0625 Z M 10.296875 37.0625 "/>
<path style=" stroke:none;fill-rule:evenodd;fill:rgb(97.254902%,97.254902%,97.254902%);fill-opacity:1;" d="M 15.847656 37.359375 C 16.003906 37.417969 16.152344 37.484375 16.300781 37.5625 C 15.996094 37.566406 15.6875 37.566406 15.382812 37.554688 C 15.128906 37.558594 14.875 37.566406 14.617188 37.578125 C 14.257812 37.628906 13.898438 37.679688 13.539062 37.730469 C 13.414062 37.738281 13.289062 37.738281 13.164062 37.730469 C 12.628906 37.652344 12.09375 37.589844 11.558594 37.542969 C 12.984375 37.464844 14.414062 37.402344 15.847656 37.359375 Z M 15.847656 37.359375 "/>
<use xlink:href="#surface87" mask="url(#mask27)"/>
<use xlink:href="#surface90" mask="url(#mask28)"/>
<path style=" stroke:none;fill-rule:evenodd;fill:rgb(33.72549%,33.72549%,33.72549%);fill-opacity:1;" d="M 9.832031 37.78125 C 9.800781 37.773438 9.773438 37.785156 9.757812 37.8125 C 9.746094 37.800781 9.738281 37.785156 9.742188 37.765625 C 9.777344 37.761719 9.808594 37.765625 9.832031 37.78125 Z M 9.832031 37.78125 "/>
<use xlink:href="#surface93" mask="url(#mask29)"/>
</g>
</svg>
