<?xml version="1.0" encoding="UTF-8"?>
<svg xmlns="http://www.w3.org/2000/svg" xmlns:xlink="http://www.w3.org/1999/xlink" width="50pt" height="50pt" viewBox="0 0 50 50" version="1.1">
<defs>
<filter id="alpha" filterUnits="objectBoundingBox" x="0%" y="0%" width="100%" height="100%">
  <feColorMatrix type="matrix" in="SourceGraphic" values="0 0 0 0 1 0 0 0 0 1 0 0 0 0 1 0 0 0 1 0"/>
</filter>
<mask id="mask0">
  <g filter="url(#alpha)">
<rect x="0" y="0" width="50" height="50" style="fill:rgb(0%,0%,0%);fill-opacity:0.976471;stroke:none;"/>
  </g>
</mask>
<clipPath id="clip1">
  <rect width="50" height="50"/>
</clipPath>
<g id="surface6" clip-path="url(#clip1)">
<path style=" stroke:none;fill-rule:evenodd;fill:rgb(72.941176%,71.372549%,69.411765%);fill-opacity:1;" d="M 39.257812 1.667969 C 38.90625 1.566406 38.578125 1.617188 38.273438 1.824219 C 38.179688 1.894531 38.082031 1.96875 37.984375 2.039062 C 37.417969 2.65625 36.835938 3.253906 36.234375 3.839844 C 32.917969 6.828125 29.679688 9.914062 26.523438 13.09375 C 23.097656 16.628906 19.761719 20.238281 16.515625 23.917969 C 15.316406 25.367188 14.105469 26.808594 12.890625 28.242188 C 11.042969 30.3125 9.195312 32.386719 7.34375 34.457031 C 7.402344 34.15625 7.292969 33.9375 7.019531 33.796875 C 6.96875 33.773438 6.910156 33.761719 6.851562 33.761719 C 17.152344 22.664062 27.460938 11.570312 37.769531 0.480469 C 37.785156 0.464844 37.800781 0.464844 37.816406 0.480469 C 38.296875 0.882812 38.777344 1.277344 39.257812 1.667969 Z M 39.257812 1.667969 "/>
</g>
<mask id="mask1">
  <g filter="url(#alpha)">
<rect x="0" y="0" width="50" height="50" style="fill:rgb(0%,0%,0%);fill-opacity:0.996078;stroke:none;"/>
  </g>
</mask>
<clipPath id="clip2">
  <rect width="50" height="50"/>
</clipPath>
<g id="surface9" clip-path="url(#clip2)">
<path style=" stroke:none;fill-rule:evenodd;fill:rgb(0.392157%,0.392157%,0%);fill-opacity:1;" d="M 39.257812 1.667969 C 39.609375 1.800781 39.886719 2.027344 40.097656 2.339844 C 40.765625 3.097656 41.535156 3.730469 42.402344 4.238281 C 42.414062 4.269531 42.4375 4.285156 42.476562 4.285156 C 43.542969 4.914062 44.652344 5.453125 45.8125 5.90625 C 46.222656 6.089844 46.585938 6.339844 46.902344 6.660156 C 47.21875 7.082031 47.234375 7.515625 46.953125 7.957031 C 46.679688 8.210938 46.371094 8.414062 46.027344 8.570312 C 45.867188 8.671875 45.714844 8.785156 45.570312 8.90625 C 45.046875 9.378906 44.539062 9.871094 44.046875 10.382812 C 44.09375 10.78125 44.019531 11.160156 43.820312 11.511719 C 43.453125 11.929688 42.988281 12.101562 42.425781 12.027344 C 41.164062 13.398438 39.917969 14.785156 38.695312 16.191406 C 38.167969 16.773438 37.628906 17.351562 37.085938 17.917969 C 35.167969 19.941406 33.199219 21.933594 31.179688 23.894531 C 31.160156 24.042969 31.074219 24.128906 30.929688 24.148438 C 30.394531 24.691406 29.847656 25.226562 29.296875 25.757812 C 29.570312 25.898438 29.609375 26.089844 29.417969 26.332031 C 29.367188 26.367188 29.308594 26.386719 29.25 26.390625 C 29.117188 26.34375 28.992188 26.28125 28.875 26.199219 C 28.785156 26.277344 28.691406 26.351562 28.601562 26.429688 C 25.746094 29.246094 22.882812 32.050781 20.007812 34.839844 C 19.324219 35.519531 18.65625 36.207031 18.003906 36.90625 C 16.859375 38.160156 15.714844 39.417969 14.570312 40.675781 C 13.394531 41.824219 12.226562 42.984375 11.066406 44.15625 C 10.421875 44.859375 9.804688 45.589844 9.21875 46.339844 C 8.980469 46.59375 8.726562 46.828125 8.460938 47.046875 C 7.925781 47.402344 7.441406 47.339844 7.007812 46.867188 C 6.855469 46.695312 6.71875 46.511719 6.601562 46.316406 C 6.328125 45.773438 6.035156 45.242188 5.714844 44.730469 C 5.359375 44.28125 5.007812 43.835938 4.65625 43.386719 C 4.382812 42.957031 4.101562 42.535156 3.816406 42.113281 C 3.625 41.902344 3.429688 41.695312 3.230469 41.492188 C 2.753906 41.027344 2.363281 40.5 2.0625 39.90625 C 1.890625 39.503906 1.890625 39.105469 2.0625 38.707031 C 2.460938 38.070312 2.917969 37.480469 3.433594 36.929688 C 4.476562 35.898438 5.523438 34.871094 6.566406 33.84375 C 6.652344 33.78125 6.746094 33.753906 6.851562 33.761719 C 6.910156 33.761719 6.96875 33.773438 7.019531 33.796875 C 7.292969 33.9375 7.402344 34.15625 7.34375 34.457031 C 9.195312 32.386719 11.042969 30.3125 12.890625 28.242188 C 14.105469 26.808594 15.316406 25.367188 16.515625 23.917969 C 19.761719 20.238281 23.097656 16.628906 26.523438 13.09375 C 29.679688 9.914062 32.917969 6.828125 36.234375 3.839844 C 36.835938 3.253906 37.417969 2.65625 37.984375 2.039062 C 38.082031 1.96875 38.179688 1.894531 38.273438 1.824219 C 38.578125 1.617188 38.90625 1.566406 39.257812 1.667969 Z M 39.257812 1.667969 "/>
</g>
<mask id="mask2">
  <g filter="url(#alpha)">
<rect x="0" y="0" width="50" height="50" style="fill:rgb(0%,0%,0%);fill-opacity:0.843137;stroke:none;"/>
  </g>
</mask>
<clipPath id="clip3">
  <rect width="50" height="50"/>
</clipPath>
<g id="surface12" clip-path="url(#clip3)">
<path style=" stroke:none;fill-rule:evenodd;fill:rgb(70.588235%,69.019608%,67.058824%);fill-opacity:1;" d="M 40.097656 2.339844 C 40.867188 2.972656 41.636719 3.605469 42.402344 4.238281 C 41.535156 3.730469 40.765625 3.097656 40.097656 2.339844 Z M 40.097656 2.339844 "/>
</g>
<mask id="mask3">
  <g filter="url(#alpha)">
<rect x="0" y="0" width="50" height="50" style="fill:rgb(0%,0%,0%);fill-opacity:0.0627451;stroke:none;"/>
  </g>
</mask>
<clipPath id="clip4">
  <rect width="50" height="50"/>
</clipPath>
<g id="surface15" clip-path="url(#clip4)">
<path style=" stroke:none;fill-rule:evenodd;fill:rgb(65.882353%,64.313725%,62.352941%);fill-opacity:1;" d="M 42.402344 4.238281 C 42.441406 4.234375 42.464844 4.25 42.476562 4.285156 C 42.4375 4.285156 42.414062 4.269531 42.402344 4.238281 Z M 42.402344 4.238281 "/>
</g>
<mask id="mask4">
  <g filter="url(#alpha)">
<rect x="0" y="0" width="50" height="50" style="fill:rgb(0%,0%,0%);fill-opacity:0.984314;stroke:none;"/>
  </g>
</mask>
<clipPath id="clip5">
  <rect width="50" height="50"/>
</clipPath>
<g id="surface18" clip-path="url(#clip5)">
<path style=" stroke:none;fill-rule:evenodd;fill:rgb(66.27451%,22.745098%,17.647059%);fill-opacity:1;" d="M 43.820312 11.511719 C 44.007812 11.785156 44.203125 12.058594 44.40625 12.324219 C 44.421875 12.351562 44.421875 12.375 44.40625 12.398438 C 32.226562 24.578125 20.042969 36.761719 7.859375 48.945312 C 7.824219 48.957031 7.796875 48.945312 7.777344 48.90625 C 5.953125 46.761719 4.128906 44.617188 2.304688 42.476562 C 2.289062 42.449219 2.289062 42.425781 2.304688 42.402344 C 2.609375 42.09375 2.917969 41.789062 3.230469 41.492188 C 3.429688 41.695312 3.625 41.902344 3.816406 42.113281 C 4.101562 42.535156 4.382812 42.957031 4.65625 43.386719 C 5.007812 43.835938 5.359375 44.28125 5.714844 44.730469 C 6.035156 45.242188 6.328125 45.773438 6.601562 46.316406 C 6.71875 46.511719 6.855469 46.695312 7.007812 46.867188 C 7.441406 47.339844 7.925781 47.402344 8.460938 47.046875 C 8.726562 46.828125 8.980469 46.59375 9.21875 46.339844 C 9.804688 45.589844 10.421875 44.859375 11.066406 44.15625 C 12.226562 42.984375 13.394531 41.824219 14.570312 40.675781 C 15.714844 39.417969 16.859375 38.160156 18.003906 36.90625 C 18.65625 36.207031 19.324219 35.519531 20.007812 34.839844 C 22.882812 32.050781 25.746094 29.246094 28.601562 26.429688 C 28.691406 26.351562 28.785156 26.277344 28.875 26.199219 C 28.992188 26.28125 29.117188 26.34375 29.25 26.390625 C 29.308594 26.386719 29.367188 26.367188 29.417969 26.332031 C 29.609375 26.089844 29.570312 25.898438 29.296875 25.757812 C 29.847656 25.226562 30.394531 24.691406 30.929688 24.148438 C 31.074219 24.128906 31.160156 24.042969 31.179688 23.894531 C 33.199219 21.933594 35.167969 19.941406 37.085938 17.917969 C 37.628906 17.351562 38.167969 16.773438 38.695312 16.191406 C 39.917969 14.785156 41.164062 13.398438 42.425781 12.027344 C 42.988281 12.101562 43.453125 11.929688 43.820312 11.511719 Z M 43.820312 11.511719 "/>
</g>
</defs>
<g id="surface1">
<use xlink:href="#surface6" mask="url(#mask0)"/>
<use xlink:href="#surface9" mask="url(#mask1)"/>
<use xlink:href="#surface12" mask="url(#mask2)"/>
<path style=" stroke:none;fill-rule:evenodd;fill:rgb(72.941176%,71.372549%,69.411765%);fill-opacity:1;" d="M 46.027344 7.164062 C 46.085938 7.203125 46.136719 7.257812 46.171875 7.320312 C 46.152344 7.355469 46.132812 7.394531 46.113281 7.429688 C 45.902344 7.589844 45.683594 7.726562 45.453125 7.847656 C 45.136719 8.089844 44.84375 8.359375 44.574219 8.652344 C 44.28125 9.003906 43.976562 9.347656 43.664062 9.6875 C 43.316406 9.378906 42.914062 9.265625 42.449219 9.335938 C 42.378906 9.355469 42.304688 9.375 42.234375 9.398438 C 41.203125 7.992188 40.175781 6.585938 39.148438 5.171875 C 39.132812 5.148438 39.113281 5.144531 39.089844 5.160156 C 27.386719 17.027344 15.683594 28.890625 3.972656 40.746094 C 3.855469 40.640625 3.738281 40.527344 3.625 40.410156 C 3.394531 40.152344 3.195312 39.871094 3.023438 39.570312 C 2.988281 39.476562 2.960938 39.378906 2.941406 39.28125 C 2.964844 39.152344 3.019531 39.03125 3.097656 38.921875 C 4.242188 37.5625 5.457031 36.308594 6.746094 35.152344 C 6.679688 35.21875 6.617188 35.28125 6.554688 35.34375 C 6.46875 35.523438 6.519531 35.597656 6.710938 35.574219 C 8.625 33.472656 10.550781 31.382812 12.480469 29.296875 C 13.769531 27.839844 15.050781 26.375 16.324219 24.902344 C 17.761719 23.304688 19.21875 21.722656 20.691406 20.152344 C 22.539062 18.238281 24.386719 16.328125 26.234375 14.414062 C 27.441406 13.203125 28.652344 11.996094 29.871094 10.800781 C 32.347656 8.496094 34.828125 6.199219 37.3125 3.914062 C 37.542969 3.675781 37.777344 3.449219 38.023438 3.230469 C 38.167969 3.035156 38.332031 2.855469 38.515625 2.6875 C 38.621094 2.601562 38.742188 2.542969 38.875 2.507812 C 38.960938 2.523438 39.039062 2.550781 39.113281 2.59375 C 40.230469 3.859375 41.535156 4.886719 43.027344 5.664062 C 43.976562 6.136719 44.929688 6.597656 45.882812 7.058594 C 45.933594 7.089844 45.984375 7.125 46.027344 7.164062 Z M 46.027344 7.164062 "/>
<use xlink:href="#surface15" mask="url(#mask3)"/>
<path style=" stroke:none;fill-rule:evenodd;fill:rgb(66.27451%,22.745098%,18.039216%);fill-opacity:1;" d="M 42.234375 9.398438 C 41.808594 9.582031 41.550781 9.902344 41.453125 10.359375 C 41.351562 10.878906 41.484375 11.332031 41.851562 11.714844 C 40.917969 12.78125 39.980469 13.839844 39.03125 14.894531 C 39.003906 14.828125 38.96875 14.769531 38.921875 14.714844 C 38.25 14.394531 37.609375 14.027344 37 13.609375 C 36.898438 13.523438 36.792969 13.433594 36.691406 13.347656 C 36.484375 13.207031 36.320312 13.242188 36.199219 13.453125 C 36.179688 13.550781 36.1875 13.648438 36.222656 13.742188 C 36.929688 14.402344 37.707031 14.957031 38.5625 15.410156 C 37.925781 16.105469 37.277344 16.789062 36.617188 17.460938 C 36.105469 17.238281 35.632812 16.957031 35.203125 16.609375 C 34.789062 16.519531 34.617188 16.683594 34.6875 17.101562 C 34.703125 17.144531 34.730469 17.179688 34.769531 17.210938 C 35.171875 17.535156 35.613281 17.808594 36.089844 18.027344 C 34.277344 19.871094 32.4375 21.679688 30.570312 23.453125 C 30.535156 23.46875 30.503906 23.46875 30.472656 23.453125 C 29.363281 22.890625 28.355469 22.183594 27.449219 21.339844 C 27.277344 21.277344 27.167969 21.332031 27.113281 21.507812 C 27.117188 21.546875 27.128906 21.582031 27.148438 21.617188 C 28.058594 22.484375 29.0625 23.21875 30.160156 23.824219 C 29.660156 24.328125 29.148438 24.820312 28.625 25.300781 C 27.4375 24.660156 26.34375 23.882812 25.335938 22.972656 C 25.175781 22.789062 25.007812 22.613281 24.832031 22.445312 C 24.585938 22.363281 24.441406 22.449219 24.398438 22.707031 C 24.402344 22.769531 24.414062 22.828125 24.4375 22.886719 C 25.007812 23.53125 25.644531 24.09375 26.34375 24.578125 C 26.925781 24.976562 27.515625 25.359375 28.121094 25.71875 C 28.144531 25.730469 28.148438 25.75 28.132812 25.769531 C 26.996094 26.855469 25.859375 27.945312 24.722656 29.03125 C 24.726562 28.925781 24.695312 28.828125 24.628906 28.746094 C 24.472656 28.566406 24.308594 28.394531 24.136719 28.230469 C 23.9375 28.121094 23.78125 28.164062 23.667969 28.359375 C 23.648438 28.457031 23.65625 28.554688 23.691406 28.648438 C 23.863281 28.828125 24.042969 29 24.230469 29.164062 C 24.300781 29.222656 24.382812 29.253906 24.472656 29.261719 C 23.644531 30.066406 22.808594 30.863281 21.964844 31.648438 C 22.117188 31.296875 22.164062 30.929688 22.109375 30.542969 C 21.878906 29.796875 21.371094 29.464844 20.582031 29.546875 C 20.011719 29.671875 19.664062 30.019531 19.539062 30.59375 C 19.457031 31.117188 19.597656 31.566406 19.960938 31.949219 C 20.3125 32.210938 20.703125 32.296875 21.136719 32.214844 C 21.25 32.179688 21.363281 32.148438 21.472656 32.117188 C 20.734375 32.796875 20.007812 33.484375 19.285156 34.179688 C 19.167969 34.132812 19.0625 34.050781 18.976562 33.941406 C 18.78125 33.808594 18.582031 33.800781 18.375 33.917969 C 18.207031 34.105469 18.1875 34.308594 18.316406 34.53125 C 18.394531 34.632812 18.480469 34.730469 18.578125 34.816406 C 18.59375 34.832031 18.59375 34.847656 18.578125 34.867188 C 17.9375 35.476562 17.3125 36.101562 16.695312 36.738281 C 16.296875 36.34375 15.898438 35.957031 15.496094 35.574219 C 14.777344 35.050781 14.089844 34.488281 13.429688 33.894531 C 13.089844 33.722656 12.839844 33.804688 12.675781 34.144531 C 12.625 34.34375 12.679688 34.503906 12.828125 34.636719 C 13.078125 34.863281 13.335938 35.078125 13.597656 35.285156 C 14.46875 35.933594 15.324219 36.597656 16.167969 37.277344 C 15.746094 37.730469 15.328125 38.183594 14.90625 38.632812 C 14.964844 38.195312 14.867188 37.796875 14.617188 37.433594 C 14.265625 37.070312 13.839844 36.929688 13.335938 37.015625 C 12.679688 37.195312 12.335938 37.628906 12.300781 38.308594 C 12.367188 39.300781 12.894531 39.769531 13.886719 39.714844 C 12.890625 40.773438 11.855469 41.792969 10.789062 42.773438 C 10.304688 43.242188 9.839844 43.726562 9.398438 44.226562 C 9.222656 44.015625 9.050781 43.800781 8.882812 43.578125 C 8.613281 43.175781 8.339844 42.78125 8.054688 42.390625 C 7.730469 42.246094 7.535156 42.34375 7.476562 42.691406 C 7.476562 42.75 7.488281 42.804688 7.511719 42.859375 C 7.964844 43.515625 8.449219 44.148438 8.964844 44.753906 C 8.648438 45.203125 8.285156 45.613281 7.875 45.980469 C 7.792969 45.890625 7.71875 45.792969 7.65625 45.691406 C 7.546875 45.453125 7.433594 45.210938 7.320312 44.972656 C 7.1875 44.738281 7.046875 44.515625 6.890625 44.300781 C 6.539062 43.859375 6.179688 43.429688 5.808594 43.003906 C 5.429688 42.480469 5.046875 41.957031 4.65625 41.441406 C 4.425781 41.214844 4.195312 40.980469 3.972656 40.746094 C 15.683594 28.890625 27.386719 17.027344 39.089844 5.160156 C 39.113281 5.144531 39.132812 5.148438 39.148438 5.171875 C 40.175781 6.585938 41.203125 7.992188 42.234375 9.398438 Z M 42.234375 9.398438 "/>
<use xlink:href="#surface18" mask="url(#mask4)"/>
<path style=" stroke:none;fill-rule:evenodd;fill:rgb(1.960784%,0.392157%,0%);fill-opacity:1;" d="M 32.273438 19.550781 C 32.363281 19.546875 32.453125 19.558594 32.539062 19.585938 C 32.636719 19.703125 32.738281 19.820312 32.835938 19.933594 C 32.90625 20.179688 32.8125 20.304688 32.5625 20.308594 C 32.417969 20.222656 32.285156 20.121094 32.164062 20.007812 C 32.058594 19.816406 32.09375 19.664062 32.273438 19.550781 Z M 32.273438 19.550781 "/>
<path style=" stroke:none;fill-rule:evenodd;fill:rgb(1.176471%,0%,0%);fill-opacity:1;" d="M 9.445312 39.714844 C 9.539062 39.703125 9.628906 39.722656 9.710938 39.773438 C 10.332031 40.363281 10.933594 40.96875 11.523438 41.585938 C 11.578125 41.855469 11.472656 42.015625 11.210938 42.066406 C 11.132812 42.070312 11.066406 42.050781 11.003906 42.007812 C 10.417969 41.425781 9.835938 40.839844 9.265625 40.242188 C 9.144531 40 9.203125 39.824219 9.445312 39.714844 Z M 9.445312 39.714844 "/>
</g>
</svg>
