<?xml version="1.0" encoding="UTF-8"?>
<svg xmlns="http://www.w3.org/2000/svg" xmlns:xlink="http://www.w3.org/1999/xlink" width="50pt" height="50pt" viewBox="0 0 50 50" version="1.1">
<defs>
<filter id="alpha" filterUnits="objectBoundingBox" x="0%" y="0%" width="100%" height="100%">
  <feColorMatrix type="matrix" in="SourceGraphic" values="0 0 0 0 1 0 0 0 0 1 0 0 0 0 1 0 0 0 1 0"/>
</filter>
<mask id="mask0">
  <g filter="url(#alpha)">
<rect x="0" y="0" width="50" height="50" style="fill:rgb(0%,0%,0%);fill-opacity:0.992157;stroke:none;"/>
  </g>
</mask>
<clipPath id="clip1">
  <rect width="50" height="50"/>
</clipPath>
<g id="surface6" clip-path="url(#clip1)">
<path style=" stroke:none;fill-rule:evenodd;fill:rgb(66.666667%,23.137255%,18.039216%);fill-opacity:1;" d="M 30.113281 13.621094 C 30.097656 13.636719 30.089844 13.65625 30.089844 13.683594 C 30.101562 13.75 30.113281 13.816406 30.125 13.886719 C 30.1875 13.917969 30.257812 13.9375 30.328125 13.945312 C 31.503906 13.894531 32.679688 13.867188 33.855469 13.863281 C 34.898438 13.839844 35.9375 13.828125 36.976562 13.828125 C 37.160156 13.832031 37.335938 13.867188 37.507812 13.921875 C 37.613281 13.960938 37.699219 14.019531 37.769531 14.101562 C 37.976562 14.359375 38.09375 14.65625 38.117188 14.992188 C 38.140625 15.171875 38.15625 15.359375 38.167969 15.542969 C 38.199219 17.578125 38.164062 19.609375 38.070312 21.640625 C 38.519531 21.148438 39.019531 20.722656 39.570312 20.367188 C 40.398438 19.9375 41.277344 19.699219 42.210938 19.660156 C 43.085938 19.605469 43.949219 19.679688 44.804688 19.875 C 45.628906 20.132812 46.320312 20.59375 46.878906 21.253906 C 47.71875 22.324219 48.257812 23.53125 48.5 24.878906 C 48.742188 26.214844 48.84375 27.558594 48.800781 28.914062 C 48.730469 30.605469 48.296875 32.199219 47.503906 33.6875 C 47.109375 34.371094 46.628906 34.984375 46.050781 35.527344 C 45.472656 36.054688 44.800781 36.425781 44.035156 36.628906 C 43.65625 36.726562 43.273438 36.761719 42.882812 36.726562 C 41.695312 36.601562 40.542969 36.332031 39.425781 35.921875 C 39.402344 35.921875 39.378906 35.921875 39.355469 35.921875 C 39.128906 35.816406 38.898438 35.722656 38.65625 35.632812 C 38.65625 35.621094 38.648438 35.613281 38.632812 35.609375 C 38.601562 35.757812 38.601562 35.902344 38.632812 36.042969 C 38.730469 37.792969 38.820312 39.546875 38.910156 41.296875 C 38.929688 41.957031 38.917969 42.613281 38.875 43.265625 C 38.835938 43.609375 38.765625 43.945312 38.671875 44.273438 C 38.574219 44.515625 38.402344 44.671875 38.152344 44.742188 C 37.582031 44.839844 37.003906 44.902344 36.425781 44.933594 C 35.011719 45.011719 33.59375 45.082031 32.175781 45.152344 C 31.71875 45.175781 31.261719 45.160156 30.808594 45.101562 C 29.980469 44.921875 29.535156 44.40625 29.476562 43.554688 C 29.457031 43.074219 29.464844 42.59375 29.5 42.113281 C 29.621094 41.140625 29.734375 40.164062 29.835938 39.1875 C 29.914062 37.289062 29.1875 35.78125 27.664062 34.660156 C 26.558594 33.945312 25.339844 33.597656 24.015625 33.617188 C 23.121094 33.550781 22.289062 33.746094 21.519531 34.207031 C 20.914062 34.558594 20.378906 34.992188 19.910156 35.515625 C 18.921875 36.660156 18.535156 37.988281 18.746094 39.5 C 18.914062 40.539062 19.273438 41.507812 19.828125 42.402344 C 20.042969 42.710938 20.296875 42.984375 20.582031 43.230469 C 20.664062 43.296875 20.753906 43.347656 20.847656 43.386719 C 20.996094 43.488281 21.15625 43.574219 21.328125 43.640625 C 21.554688 43.777344 21.667969 43.984375 21.664062 44.25 C 21.648438 44.578125 21.515625 44.835938 21.253906 45.03125 C 21.179688 45.078125 21.101562 45.109375 21.015625 45.128906 C 18.507812 45.148438 16.003906 45.097656 13.503906 44.972656 C 12.792969 44.925781 12.082031 44.875 11.367188 44.828125 C 10.90625 44.804688 10.449219 44.746094 9.996094 44.648438 C 9.519531 44.519531 9.242188 44.210938 9.167969 43.722656 C 9.0625 42.78125 9 41.835938 8.976562 40.890625 C 8.902344 38.316406 8.84375 35.738281 8.808594 33.160156 C 8.808594 32.792969 8.789062 32.425781 8.75 32.058594 C 7.316406 32.664062 5.90625 32.613281 4.523438 31.902344 C 3.6875 31.367188 3.074219 30.644531 2.6875 29.730469 C 2.273438 28.707031 2.039062 27.640625 1.992188 26.535156 C 1.894531 25.148438 2.070312 23.796875 2.519531 22.480469 C 3.082031 20.972656 4.101562 19.90625 5.582031 19.273438 C 7.320312 18.6875 8.90625 18.96875 10.332031 20.113281 C 10.5625 20.300781 10.78125 20.5 10.992188 20.703125 C 11.039062 18.773438 11.078125 16.847656 11.113281 14.917969 C 11.132812 14.578125 11.171875 14.242188 11.234375 13.910156 C 11.335938 13.480469 11.59375 13.199219 12.015625 13.058594 C 12.164062 13.011719 12.316406 12.980469 12.46875 12.960938 C 13.636719 12.917969 14.804688 12.921875 15.972656 12.972656 C 16.082031 11.871094 16.183594 10.765625 16.273438 9.660156 C 16.65625 7.351562 17.835938 5.578125 19.816406 4.34375 C 20.8125 3.808594 21.875 3.550781 23.007812 3.566406 C 24.269531 3.589844 25.5 3.792969 26.703125 4.175781 C 27.453125 4.417969 28.117188 4.804688 28.695312 5.328125 C 29.257812 5.929688 29.613281 6.636719 29.765625 7.453125 C 29.921875 8.351562 30.007812 9.253906 30.027344 10.164062 C 30.046875 11.320312 30.074219 12.472656 30.113281 13.621094 Z M 17.390625 14.125 C 17.417969 14.207031 17.433594 14.296875 17.4375 14.390625 C 17.398438 14.390625 17.359375 14.390625 17.320312 14.390625 C 17.347656 14.304688 17.371094 14.214844 17.390625 14.125 Z M 8.605469 21.015625 C 7.773438 21.039062 6.972656 21.210938 6.203125 21.53125 C 5.117188 22.046875 4.472656 22.898438 4.273438 24.085938 C 4.132812 25.519531 4.332031 26.90625 4.871094 28.242188 C 5.3125 29.363281 6.050781 30.21875 7.09375 30.808594 C 5.859375 30.914062 4.953125 30.425781 4.367188 29.34375 C 3.839844 28.257812 3.59375 27.109375 3.636719 25.898438 C 3.636719 25.011719 3.769531 24.144531 4.03125 23.296875 C 4.34375 22.40625 4.875 21.683594 5.628906 21.125 C 6.457031 20.578125 7.339844 20.480469 8.269531 20.835938 C 8.386719 20.890625 8.5 20.949219 8.605469 21.015625 Z M 46.21875 23.128906 C 45.257812 22.9375 44.300781 22.941406 43.339844 23.140625 C 42.019531 23.417969 40.765625 23.878906 39.582031 24.519531 C 39.570312 23.785156 39.566406 23.046875 39.570312 22.3125 C 40.304688 21.660156 41.167969 21.3125 42.164062 21.265625 C 42.699219 21.21875 43.234375 21.226562 43.769531 21.292969 C 44.589844 21.378906 45.25 21.742188 45.75 22.382812 C 45.933594 22.617188 46.085938 22.863281 46.21875 23.128906 Z M 11.34375 43.195312 C 11.140625 43.175781 10.941406 43.152344 10.742188 43.121094 C 10.660156 42.117188 10.609375 41.109375 10.585938 40.097656 C 10.527344 37.265625 10.472656 34.433594 10.417969 31.601562 C 10.410156 31.472656 10.394531 31.34375 10.382812 31.21875 C 10.644531 31.191406 10.898438 31.136719 11.148438 31.050781 C 11.230469 35.097656 11.296875 39.144531 11.34375 43.195312 Z M 27.738281 32.777344 C 28.984375 33.085938 29.972656 33.765625 30.699219 34.816406 C 31.417969 35.976562 31.828125 37.242188 31.925781 38.609375 C 32.023438 39.742188 31.996094 40.871094 31.839844 41.996094 C 33.636719 42.3125 35.429688 42.636719 37.21875 42.980469 C 37.195312 43.039062 37.1875 43.105469 37.195312 43.171875 C 35.378906 43.300781 33.5625 43.394531 31.746094 43.457031 C 31.570312 43.457031 31.398438 43.449219 31.230469 43.433594 C 31.148438 42.792969 31.160156 42.15625 31.253906 41.515625 C 31.328125 40.964844 31.402344 40.410156 31.46875 39.859375 C 31.765625 37.316406 30.945312 35.226562 29.007812 33.582031 C 28.605469 33.277344 28.183594 33.007812 27.738281 32.777344 Z M 27.738281 32.777344 "/>
</g>
<mask id="mask1">
  <g filter="url(#alpha)">
<rect x="0" y="0" width="50" height="50" style="fill:rgb(0%,0%,0%);fill-opacity:0.937255;stroke:none;"/>
  </g>
</mask>
<clipPath id="clip2">
  <rect width="50" height="50"/>
</clipPath>
<g id="surface9" clip-path="url(#clip2)">
<path style=" stroke:none;fill-rule:evenodd;fill:rgb(94.117647%,91.764706%,89.019608%);fill-opacity:1;" d="M 30.113281 13.621094 C 31.363281 13.695312 32.613281 13.773438 33.855469 13.863281 C 32.679688 13.867188 31.503906 13.894531 30.328125 13.945312 C 30.257812 13.9375 30.1875 13.917969 30.125 13.886719 C 30.113281 13.816406 30.101562 13.75 30.089844 13.683594 C 30.089844 13.65625 30.097656 13.636719 30.113281 13.621094 Z M 30.113281 13.621094 "/>
</g>
<mask id="mask2">
  <g filter="url(#alpha)">
<rect x="0" y="0" width="50" height="50" style="fill:rgb(0%,0%,0%);fill-opacity:0.988235;stroke:none;"/>
  </g>
</mask>
<clipPath id="clip3">
  <rect width="50" height="50"/>
</clipPath>
<g id="surface12" clip-path="url(#clip3)">
<path style=" stroke:none;fill-rule:evenodd;fill:rgb(94.509804%,92.941176%,90.196078%);fill-opacity:1;" d="M 37.769531 14.101562 C 38.371094 14.128906 38.972656 14.160156 39.570312 14.199219 C 39.570312 16.253906 39.570312 18.3125 39.570312 20.367188 C 39.019531 20.722656 38.519531 21.148438 38.070312 21.640625 C 38.164062 19.609375 38.199219 17.578125 38.167969 15.542969 C 38.15625 15.359375 38.140625 15.171875 38.117188 14.992188 C 38.09375 14.65625 37.976562 14.359375 37.769531 14.101562 Z M 37.769531 14.101562 "/>
</g>
<mask id="mask3">
  <g filter="url(#alpha)">
<rect x="0" y="0" width="50" height="50" style="fill:rgb(0%,0%,0%);fill-opacity:0.980392;stroke:none;"/>
  </g>
</mask>
<clipPath id="clip4">
  <rect width="50" height="50"/>
</clipPath>
<g id="surface15" clip-path="url(#clip4)">
<path style=" stroke:none;fill-rule:evenodd;fill:rgb(94.509804%,92.941176%,90.196078%);fill-opacity:1;" d="M 48.5 24.878906 C 48.707031 25.214844 48.863281 25.574219 48.96875 25.960938 C 49.210938 26.839844 49.316406 27.734375 49.292969 28.648438 C 49.316406 30.273438 49.054688 31.847656 48.511719 33.378906 C 48.03125 34.691406 47.238281 35.769531 46.125 36.605469 C 44.484375 37.695312 42.742188 37.90625 40.890625 37.230469 C 40.375 37.019531 39.945312 36.695312 39.605469 36.257812 C 39.527344 36.15625 39.46875 36.042969 39.425781 35.921875 C 40.542969 36.332031 41.695312 36.601562 42.882812 36.726562 C 43.273438 36.761719 43.65625 36.726562 44.035156 36.628906 C 44.800781 36.425781 45.472656 36.054688 46.050781 35.527344 C 46.628906 34.984375 47.109375 34.371094 47.503906 33.6875 C 48.296875 32.199219 48.730469 30.605469 48.800781 28.914062 C 48.84375 27.558594 48.742188 26.214844 48.5 24.878906 Z M 48.5 24.878906 "/>
</g>
<mask id="mask4">
  <g filter="url(#alpha)">
<rect x="0" y="0" width="50" height="50" style="fill:rgb(0%,0%,0%);fill-opacity:0.988235;stroke:none;"/>
  </g>
</mask>
<clipPath id="clip5">
  <rect width="50" height="50"/>
</clipPath>
<g id="surface18" clip-path="url(#clip5)">
<path style=" stroke:none;fill-rule:evenodd;fill:rgb(94.509804%,92.941176%,90.196078%);fill-opacity:1;" d="M 19.910156 35.515625 C 19.628906 36.335938 19.550781 37.175781 19.683594 38.035156 C 19.851562 39.109375 20.160156 40.144531 20.621094 41.128906 C 20.941406 41.839844 21.3125 42.519531 21.734375 43.171875 C 21.445312 43.257812 21.148438 43.328125 20.847656 43.386719 C 20.753906 43.347656 20.664062 43.296875 20.582031 43.230469 C 20.296875 42.984375 20.042969 42.710938 19.828125 42.402344 C 19.273438 41.507812 18.914062 40.539062 18.746094 39.5 C 18.535156 37.988281 18.921875 36.660156 19.910156 35.515625 Z M 19.910156 35.515625 "/>
</g>
<mask id="mask5">
  <g filter="url(#alpha)">
<rect x="0" y="0" width="50" height="50" style="fill:rgb(0%,0%,0%);fill-opacity:0.984314;stroke:none;"/>
  </g>
</mask>
<clipPath id="clip6">
  <rect width="50" height="50"/>
</clipPath>
<g id="surface21" clip-path="url(#clip6)">
<path style=" stroke:none;fill-rule:evenodd;fill:rgb(94.509804%,92.941176%,90.196078%);fill-opacity:1;" d="M 38.65625 35.632812 C 38.898438 35.722656 39.128906 35.816406 39.355469 35.921875 C 39.429688 38.410156 39.5 40.898438 39.570312 43.386719 C 39.335938 43.363281 39.101562 43.324219 38.875 43.265625 C 38.917969 42.613281 38.929688 41.957031 38.910156 41.296875 C 38.820312 39.546875 38.730469 37.792969 38.632812 36.042969 C 38.625 35.902344 38.632812 35.765625 38.65625 35.632812 Z M 38.65625 35.632812 "/>
</g>
<mask id="mask6">
  <g filter="url(#alpha)">
<rect x="0" y="0" width="50" height="50" style="fill:rgb(0%,0%,0%);fill-opacity:0.94902;stroke:none;"/>
  </g>
</mask>
<clipPath id="clip7">
  <rect width="50" height="50"/>
</clipPath>
<g id="surface24" clip-path="url(#clip7)">
<path style=" stroke:none;fill-rule:evenodd;fill:rgb(94.509804%,92.54902%,89.803922%);fill-opacity:1;" d="M 11.367188 44.828125 C 12.082031 44.875 12.792969 44.925781 13.503906 44.972656 C 12.789062 45.125 12.078125 45.277344 11.367188 45.425781 C 11.367188 45.226562 11.367188 45.027344 11.367188 44.828125 Z M 11.367188 44.828125 "/>
</g>
</defs>
<g id="surface1">
<use xlink:href="#surface6" mask="url(#mask0)"/>
<path style=" stroke:none;fill-rule:evenodd;fill:rgb(94.509804%,92.941176%,90.196078%);fill-opacity:1;" d="M 39.570312 22.3125 C 39.566406 23.046875 39.570312 23.785156 39.582031 24.519531 C 40.765625 23.878906 42.019531 23.417969 43.339844 23.140625 C 44.300781 22.941406 45.257812 22.9375 46.21875 23.128906 C 46.242188 23.136719 46.261719 23.15625 46.28125 23.175781 C 46.671875 23.964844 46.925781 24.796875 47.046875 25.671875 C 47.246094 27.207031 47.253906 28.742188 47.070312 30.28125 C 46.839844 31.675781 46.277344 32.914062 45.390625 34 C 44.988281 34.476562 44.496094 34.824219 43.914062 35.046875 C 43.417969 35.191406 42.914062 35.214844 42.402344 35.117188 C 41.714844 34.976562 41.035156 34.800781 40.363281 34.589844 C 39.816406 34.441406 39.296875 34.234375 38.800781 33.964844 C 38.65625 33.863281 38.515625 33.757812 38.371094 33.652344 C 37.996094 33.496094 37.664062 33.558594 37.375 33.832031 C 37.3125 33.921875 37.265625 34.019531 37.230469 34.121094 C 37.101562 34.589844 37.050781 35.066406 37.074219 35.550781 C 37.136719 37 37.1875 38.453125 37.230469 39.90625 C 37.25 40.929688 37.246094 41.953125 37.21875 42.980469 C 35.429688 42.636719 33.636719 42.3125 31.839844 41.996094 C 31.996094 40.871094 32.023438 39.742188 31.925781 38.609375 C 31.828125 37.242188 31.417969 35.976562 30.699219 34.816406 C 29.972656 33.765625 28.984375 33.085938 27.738281 32.777344 C 27.730469 32.777344 27.71875 32.777344 27.710938 32.777344 C 26.050781 32.015625 24.3125 31.789062 22.503906 32.09375 C 21.4375 32.332031 20.488281 32.796875 19.648438 33.484375 C 17.359375 35.414062 16.597656 37.835938 17.355469 40.746094 C 17.609375 41.707031 18.011719 42.59375 18.566406 43.410156 C 18.222656 43.425781 17.878906 43.441406 17.535156 43.457031 C 15.851562 43.453125 14.171875 43.398438 12.492188 43.304688 C 12.105469 43.269531 11.722656 43.234375 11.34375 43.195312 C 11.296875 39.144531 11.230469 35.097656 11.148438 31.050781 C 10.898438 31.136719 10.644531 31.191406 10.382812 31.21875 C 10.21875 30.1875 9.640625 29.855469 8.652344 30.222656 C 8.324219 30.394531 7.988281 30.554688 7.644531 30.699219 C 7.464844 30.757812 7.28125 30.792969 7.09375 30.808594 C 6.050781 30.21875 5.3125 29.363281 4.871094 28.242188 C 4.332031 26.90625 4.132812 25.519531 4.273438 24.085938 C 4.472656 22.898438 5.117188 22.046875 6.203125 21.53125 C 6.972656 21.210938 7.773438 21.039062 8.605469 21.015625 C 8.734375 21.058594 8.851562 21.117188 8.964844 21.195312 C 9.699219 21.746094 10.328125 22.398438 10.851562 23.152344 C 11.050781 23.398438 11.300781 23.570312 11.605469 23.667969 C 11.914062 23.722656 12.195312 23.660156 12.445312 23.476562 C 12.570312 23.34375 12.644531 23.1875 12.675781 23.007812 C 12.714844 20.664062 12.761719 18.320312 12.816406 15.972656 C 12.847656 15.550781 12.871094 15.125 12.890625 14.703125 C 13.191406 14.6875 13.496094 14.679688 13.800781 14.679688 C 14.816406 14.699219 15.828125 14.722656 16.839844 14.738281 C 17.039062 14.675781 17.199219 14.558594 17.320312 14.390625 C 17.359375 14.390625 17.398438 14.390625 17.4375 14.390625 C 17.433594 14.296875 17.417969 14.207031 17.390625 14.125 C 17.367188 13.796875 17.347656 13.46875 17.332031 13.140625 C 17.457031 11.894531 17.585938 10.644531 17.714844 9.398438 C 17.863281 8.671875 18.152344 8.007812 18.578125 7.40625 C 19.054688 6.726562 19.636719 6.15625 20.320312 5.6875 C 21.308594 5.117188 22.371094 4.882812 23.511719 4.992188 C 24.542969 5.042969 25.542969 5.246094 26.511719 5.59375 C 26.96875 5.777344 27.371094 6.035156 27.722656 6.371094 C 28.035156 6.753906 28.242188 7.183594 28.347656 7.667969 C 28.464844 8.253906 28.535156 8.847656 28.566406 9.445312 C 28.589844 10.804688 28.605469 12.164062 28.613281 13.527344 C 28.609375 13.875 28.675781 14.210938 28.804688 14.535156 C 28.972656 14.871094 29.230469 15.109375 29.585938 15.242188 C 29.859375 15.324219 30.140625 15.382812 30.425781 15.410156 C 31.984375 15.382812 33.546875 15.363281 35.105469 15.351562 C 35.609375 15.355469 36.113281 15.363281 36.617188 15.375 C 36.644531 16.191406 36.648438 17.007812 36.628906 17.824219 C 36.582031 19.359375 36.53125 20.894531 36.472656 22.429688 C 36.453125 22.9375 36.511719 23.433594 36.652344 23.917969 C 36.941406 24.347656 37.324219 24.449219 37.792969 24.21875 C 37.910156 24.128906 38.015625 24.027344 38.117188 23.917969 C 38.496094 23.480469 38.871094 23.039062 39.246094 22.601562 C 39.34375 22.488281 39.453125 22.394531 39.570312 22.3125 Z M 39.570312 22.3125 "/>
<use xlink:href="#surface9" mask="url(#mask1)"/>
<use xlink:href="#surface12" mask="url(#mask2)"/>
<use xlink:href="#surface15" mask="url(#mask3)"/>
<use xlink:href="#surface18" mask="url(#mask4)"/>
<path style=" stroke:none;fill-rule:evenodd;fill:rgb(85.098039%,70.588235%,67.45098%);fill-opacity:1;" d="M 38.65625 35.632812 C 38.632812 35.765625 38.625 35.902344 38.632812 36.042969 C 38.601562 35.902344 38.601562 35.757812 38.632812 35.609375 C 38.648438 35.613281 38.65625 35.621094 38.65625 35.632812 Z M 38.65625 35.632812 "/>
<use xlink:href="#surface21" mask="url(#mask5)"/>
<path style=" stroke:none;fill-rule:evenodd;fill:rgb(87.45098%,76.862745%,73.72549%);fill-opacity:1;" d="M 18.566406 43.410156 C 18.585938 43.417969 18.601562 43.429688 18.613281 43.445312 C 18.253906 43.457031 17.894531 43.464844 17.535156 43.457031 C 17.878906 43.441406 18.222656 43.425781 18.566406 43.410156 Z M 18.566406 43.410156 "/>
<use xlink:href="#surface24" mask="url(#mask6)"/>
</g>
</svg>
