<?xml version="1.0" encoding="UTF-8"?>
<svg xmlns="http://www.w3.org/2000/svg" xmlns:xlink="http://www.w3.org/1999/xlink" width="50pt" height="50pt" viewBox="0 0 50 50" version="1.1">
<defs>
<filter id="alpha" filterUnits="objectBoundingBox" x="0%" y="0%" width="100%" height="100%">
  <feColorMatrix type="matrix" in="SourceGraphic" values="0 0 0 0 1 0 0 0 0 1 0 0 0 0 1 0 0 0 1 0"/>
</filter>
<mask id="mask0">
  <g filter="url(#alpha)">
<rect x="0" y="0" width="50" height="50" style="fill:rgb(0%,0%,0%);fill-opacity:0.988235;stroke:none;"/>
  </g>
</mask>
<clipPath id="clip1">
  <rect width="50" height="50"/>
</clipPath>
<g id="surface6" clip-path="url(#clip1)">
<path style=" stroke:none;fill-rule:evenodd;fill:rgb(66.27451%,22.745098%,17.647059%);fill-opacity:1;" d="M 21.953125 45.835938 C 25.066406 46.15625 28.152344 46 31.21875 45.367188 C 32.914062 44.976562 34.554688 44.425781 36.136719 43.710938 C 37.558594 43.0625 38.8125 42.1875 39.90625 41.082031 C 40.121094 41.542969 40.457031 41.664062 40.914062 41.453125 C 41.65625 40.347656 42.453125 39.277344 43.304688 38.25 C 43.871094 37.53125 44.367188 36.761719 44.792969 35.945312 C 45.679688 33.992188 46.207031 31.945312 46.375 29.800781 C 46.539062 27.890625 46.445312 25.996094 46.085938 24.113281 C 45.746094 21.992188 45.179688 19.9375 44.382812 17.941406 C 43.847656 16.570312 43.128906 15.316406 42.222656 14.175781 C 41.613281 13.386719 40.945312 12.644531 40.21875 11.953125 C 39.113281 10.996094 37.886719 10.210938 36.546875 9.601562 C 31.183594 7.144531 25.617188 6.519531 19.839844 7.730469 C 19.578125 7.800781 19.3125 7.859375 19.046875 7.910156 C 22.695312 6.453125 26.46875 5.960938 30.375 6.433594 C 34.96875 7.03125 38.96875 8.875 42.378906 11.953125 C 45.070312 14.449219 46.921875 17.46875 47.9375 21.015625 C 49.328125 26.445312 48.570312 31.550781 45.65625 36.328125 C 42.960938 40.488281 39.273438 43.414062 34.601562 45.101562 C 30.449219 46.542969 26.234375 46.785156 21.953125 45.835938 Z M 21.953125 45.835938 "/>
</g>
<mask id="mask1">
  <g filter="url(#alpha)">
<rect x="0" y="0" width="50" height="50" style="fill:rgb(0%,0%,0%);fill-opacity:0.996078;stroke:none;"/>
  </g>
</mask>
<clipPath id="clip2">
  <rect width="50" height="50"/>
</clipPath>
<g id="surface9" clip-path="url(#clip2)">
<path style=" stroke:none;fill-rule:evenodd;fill:rgb(0%,0%,0%);fill-opacity:1;" d="M 19.046875 7.910156 C 19.3125 7.859375 19.578125 7.800781 19.839844 7.730469 C 25.617188 6.519531 31.183594 7.144531 36.546875 9.601562 C 37.886719 10.210938 39.113281 10.996094 40.21875 11.953125 C 40.945312 12.644531 41.613281 13.386719 42.222656 14.175781 C 43.128906 15.316406 43.847656 16.570312 44.382812 17.941406 C 45.179688 19.9375 45.746094 21.992188 46.085938 24.113281 C 46.445312 25.996094 46.539062 27.890625 46.375 29.800781 C 46.207031 31.945312 45.679688 33.992188 44.792969 35.945312 C 44.367188 36.761719 43.871094 37.53125 43.304688 38.25 C 42.453125 39.277344 41.65625 40.347656 40.914062 41.453125 C 40.457031 41.664062 40.121094 41.542969 39.90625 41.082031 C 38.8125 42.1875 37.558594 43.0625 36.136719 43.710938 C 34.554688 44.425781 32.914062 44.976562 31.21875 45.367188 C 28.152344 46 25.066406 46.15625 21.953125 45.835938 C 18.664062 45.542969 15.550781 44.652344 12.613281 43.160156 C 8.878906 41.089844 6.066406 38.144531 4.175781 34.3125 C 2.292969 30.445312 1.746094 26.398438 2.542969 22.167969 C 2.871094 20.785156 3.414062 19.496094 4.175781 18.304688 C 6.550781 14.769531 9.609375 12.003906 13.359375 10.007812 C 13.066406 9.640625 12.957031 9.21875 13.035156 8.75 C 13.183594 7.984375 13.585938 7.398438 14.246094 6.984375 C 14.933594 6.5625 15.675781 6.394531 16.480469 6.480469 C 16.917969 6.546875 17.273438 6.75 17.546875 7.09375 C 17.777344 7.40625 18.003906 7.722656 18.230469 8.042969 C 18.265625 8.0625 18.300781 8.074219 18.339844 8.078125 C 18.574219 8.019531 18.8125 7.960938 19.046875 7.910156 Z M 15.855469 7.140625 C 16.292969 7.085938 16.664062 7.214844 16.972656 7.523438 C 17.148438 7.792969 17.335938 8.050781 17.535156 8.304688 C 16.308594 8.691406 15.117188 9.164062 13.957031 9.722656 C 13.929688 9.738281 13.90625 9.734375 13.886719 9.710938 C 13.601562 9.359375 13.550781 8.976562 13.730469 8.558594 C 14.03125 7.886719 14.539062 7.457031 15.253906 7.273438 C 15.457031 7.21875 15.65625 7.171875 15.855469 7.140625 Z M 15.855469 7.140625 "/>
</g>
</defs>
<g id="surface1">
<use xlink:href="#surface6" mask="url(#mask0)"/>
<use xlink:href="#surface9" mask="url(#mask1)"/>
<path style=" stroke:none;fill-rule:evenodd;fill:rgb(99.607843%,99.607843%,99.607843%);fill-opacity:1;" d="M 24.808594 8.460938 C 29.351562 8.378906 33.582031 9.46875 37.507812 11.738281 C 39.234375 12.839844 40.636719 14.261719 41.71875 16 C 42.664062 17.535156 43.375 19.175781 43.855469 20.917969 C 44.4375 22.976562 44.796875 25.074219 44.933594 27.207031 C 45.035156 29.636719 44.664062 31.988281 43.832031 34.265625 C 43.472656 35.210938 43 36.089844 42.414062 36.90625 C 41.828125 37.679688 41.265625 38.46875 40.734375 39.28125 C 40.464844 39.519531 40.214844 39.769531 39.976562 40.039062 C 38.871094 41.148438 37.613281 42.050781 36.210938 42.75 C 32.429688 44.472656 28.460938 45.238281 24.304688 45.054688 C 21.273438 44.9375 18.335938 44.355469 15.496094 43.304688 C 11.089844 41.511719 7.75 38.53125 5.472656 34.363281 C 3.664062 30.773438 3.046875 26.988281 3.625 23.007812 C 3.867188 21.554688 4.386719 20.210938 5.183594 18.976562 C 5.925781 17.863281 6.769531 16.832031 7.71875 15.878906 C 11.511719 11.949219 16.125 9.578125 21.566406 8.761719 C 22.644531 8.601562 23.726562 8.5 24.808594 8.460938 Z M 24.808594 8.460938 "/>
<path style=" stroke:none;fill-rule:evenodd;fill:rgb(2.352941%,2.352941%,2.352941%);fill-opacity:1;" d="M 20.941406 11.199219 C 21.078125 11.164062 21.167969 11.214844 21.207031 11.34375 C 21.160156 11.460938 21.105469 11.578125 21.039062 11.691406 C 20.890625 11.738281 20.8125 11.6875 20.800781 11.535156 C 20.640625 11.617188 20.480469 11.691406 20.320312 11.761719 C 19.921875 11.878906 19.527344 12.015625 19.144531 12.171875 C 19.101562 12.179688 19.078125 12.203125 19.070312 12.242188 C 19.097656 12.476562 19.148438 12.703125 19.226562 12.925781 C 19.601562 13.714844 19.871094 14.539062 20.042969 15.398438 C 20.089844 15.554688 20.144531 15.707031 20.210938 15.855469 C 20.222656 15.917969 20.226562 15.980469 20.222656 16.046875 C 20.628906 15.933594 21.039062 15.828125 21.449219 15.722656 C 21.777344 15.59375 22.105469 15.457031 22.429688 15.3125 C 22.636719 15.261719 22.726562 15.339844 22.707031 15.542969 C 22.6875 15.578125 22.660156 15.605469 22.625 15.625 C 22.394531 15.652344 22.1875 15.734375 22 15.867188 C 21.476562 16.039062 20.949219 16.191406 20.414062 16.324219 C 19.96875 16.484375 19.519531 16.644531 19.070312 16.800781 C 18.808594 16.847656 18.554688 16.914062 18.304688 16.996094 C 18.199219 17.046875 18.101562 17.109375 18.015625 17.1875 C 17.855469 17.210938 17.777344 17.140625 17.785156 16.984375 C 17.914062 16.871094 18.050781 16.777344 18.207031 16.707031 C 18.507812 16.617188 18.8125 16.535156 19.117188 16.464844 C 19.425781 16.351562 19.730469 16.230469 20.03125 16.105469 C 19.957031 15.957031 19.898438 15.800781 19.851562 15.636719 C 19.71875 15.082031 19.566406 14.527344 19.394531 13.980469 C 19.226562 13.59375 19.070312 13.199219 18.914062 12.804688 C 18.878906 12.648438 18.851562 12.488281 18.832031 12.324219 C 17.964844 12.65625 17.171875 13.105469 16.453125 13.683594 C 16.292969 13.746094 16.226562 13.695312 16.25 13.527344 C 16.699219 13.152344 17.183594 12.828125 17.703125 12.554688 C 18.535156 12.113281 19.398438 11.753906 20.296875 11.472656 C 20.507812 11.367188 20.722656 11.273438 20.941406 11.199219 Z M 20.941406 11.199219 "/>
<path style=" stroke:none;fill-rule:evenodd;fill:rgb(1.176471%,1.176471%,1.176471%);fill-opacity:1;" d="M 26.558594 11.511719 C 27.011719 11.476562 27.230469 11.683594 27.21875 12.132812 C 27.1875 12.199219 27.15625 12.261719 27.125 12.324219 C 26.957031 12.496094 26.792969 12.667969 26.632812 12.84375 C 26.472656 12.945312 26.292969 12.976562 26.105469 12.9375 C 25.839844 12.808594 25.734375 12.597656 25.78125 12.300781 C 25.804688 12.234375 25.835938 12.167969 25.875 12.109375 C 26.082031 11.878906 26.308594 11.679688 26.558594 11.511719 Z M 26.558594 11.511719 "/>
<path style=" stroke:none;fill-rule:evenodd;fill:rgb(1.568627%,1.568627%,1.568627%);fill-opacity:1;" d="M 30.617188 12.878906 C 30.894531 12.839844 31.035156 12.960938 31.035156 13.238281 C 30.933594 13.476562 30.800781 13.695312 30.640625 13.898438 C 30.398438 14.007812 30.226562 13.941406 30.125 13.695312 C 30.109375 13.621094 30.109375 13.550781 30.125 13.476562 C 30.234375 13.3125 30.355469 13.152344 30.484375 13 C 30.527344 12.953125 30.570312 12.914062 30.617188 12.878906 Z M 30.617188 12.878906 "/>
<path style=" stroke:none;fill-rule:evenodd;fill:rgb(1.568627%,1.568627%,1.568627%);fill-opacity:1;" d="M 33.59375 14.292969 C 33.78125 14.300781 33.894531 14.398438 33.929688 14.582031 C 33.921875 14.640625 33.910156 14.695312 33.894531 14.75 C 33.730469 14.929688 33.566406 15.109375 33.402344 15.289062 C 33.277344 15.359375 33.148438 15.367188 33.015625 15.3125 C 32.863281 15.175781 32.835938 15.011719 32.933594 14.824219 C 33.097656 14.683594 33.253906 14.535156 33.402344 14.378906 C 33.460938 14.335938 33.527344 14.308594 33.59375 14.292969 Z M 33.59375 14.292969 "/>
<path style=" stroke:none;fill-rule:evenodd;fill:rgb(0.784314%,0.392157%,0.392157%);fill-opacity:1;" d="M 25.886719 23.367188 C 25.769531 23.984375 25.703125 24.609375 25.683594 25.238281 C 25.65625 25.339844 25.59375 25.417969 25.503906 25.46875 C 25.667969 25.820312 25.703125 26.183594 25.613281 26.558594 C 25.476562 27.15625 25.179688 27.652344 24.722656 28.046875 C 24.71875 28.316406 24.6875 28.578125 24.628906 28.839844 C 24.488281 29.367188 24.355469 29.894531 24.230469 30.425781 C 23.988281 31.5 23.757812 32.582031 23.546875 33.664062 C 23.277344 34.894531 22.910156 36.09375 22.445312 37.265625 C 22.351562 37.578125 22.253906 37.890625 22.15625 38.203125 C 22.015625 38.578125 21.773438 38.671875 21.421875 38.476562 C 21.382812 38.429688 21.347656 38.375 21.316406 38.320312 C 21.222656 37.992188 21.175781 37.65625 21.183594 37.3125 C 21.261719 36.195312 21.277344 35.074219 21.230469 33.953125 C 21.230469 33.488281 21.246094 33.023438 21.265625 32.5625 C 21.378906 31.65625 21.484375 30.753906 21.589844 29.847656 C 21.601562 29.410156 21.613281 28.96875 21.628906 28.527344 C 21.0625 27.824219 20.839844 27.023438 20.957031 26.128906 C 21.019531 25.824219 21.148438 25.550781 21.339844 25.3125 C 21.347656 25.253906 21.363281 25.195312 21.386719 25.144531 C 21.59375 24.867188 21.847656 24.648438 22.15625 24.496094 C 22.425781 23.929688 22.679688 23.351562 22.910156 22.769531 C 23.730469 20.757812 24.472656 18.71875 25.132812 16.648438 C 25.226562 16.402344 25.363281 16.191406 25.550781 16.011719 C 25.851562 15.820312 26.070312 15.886719 26.210938 16.214844 C 26.234375 16.308594 26.25 16.40625 26.25 16.503906 C 26.199219 16.816406 26.148438 17.128906 26.09375 17.4375 C 26.113281 18.382812 26.121094 19.328125 26.117188 20.269531 C 26.058594 21.304688 25.984375 22.335938 25.886719 23.367188 Z M 25.886719 23.367188 "/>
<path style=" stroke:none;fill-rule:evenodd;fill:rgb(1.176471%,1.176471%,1.176471%);fill-opacity:1;" d="M 12.46875 15.972656 C 12.597656 15.960938 12.714844 15.980469 12.828125 16.035156 C 13.113281 16.285156 13.339844 16.578125 13.515625 16.910156 C 13.550781 17.328125 13.371094 17.46875 12.972656 17.332031 C 12.882812 17.214844 12.796875 17.089844 12.722656 16.957031 C 12.585938 16.824219 12.449219 16.6875 12.3125 16.550781 C 12.195312 16.308594 12.246094 16.117188 12.46875 15.972656 Z M 12.46875 15.972656 "/>
<path style=" stroke:none;fill-rule:evenodd;fill:rgb(1.960784%,1.960784%,1.960784%);fill-opacity:1;" d="M 37 16.335938 C 37.261719 16.359375 37.335938 16.496094 37.230469 16.742188 C 36.925781 17.054688 36.585938 17.324219 36.210938 17.546875 C 35.75 18.050781 35.261719 18.527344 34.746094 18.976562 C 34.734375 18.996094 34.726562 19.023438 34.722656 19.046875 C 34.863281 19.542969 35.023438 20.03125 35.203125 20.511719 C 35.453125 20.347656 35.695312 20.167969 35.921875 19.972656 C 36.34375 19.542969 36.769531 19.121094 37.207031 18.710938 C 37.339844 18.554688 37.460938 18.390625 37.578125 18.21875 C 37.652344 18.199219 37.71875 18.210938 37.78125 18.253906 C 37.796875 18.335938 37.785156 18.417969 37.757812 18.496094 C 37.703125 18.625 37.632812 18.746094 37.542969 18.855469 C 37.097656 19.273438 36.664062 19.703125 36.234375 20.140625 C 35.941406 20.398438 35.636719 20.640625 35.320312 20.859375 C 35.464844 21.269531 35.660156 21.648438 35.910156 22 C 36.09375 22.222656 36.320312 22.378906 36.59375 22.46875 C 36.949219 22.515625 37.25 22.410156 37.492188 22.144531 C 37.609375 21.980469 37.667969 21.796875 37.660156 21.589844 C 37.734375 21.503906 37.8125 21.496094 37.902344 21.566406 C 38.03125 22.113281 37.835938 22.503906 37.3125 22.730469 C 36.8125 22.925781 36.347656 22.859375 35.921875 22.539062 C 35.679688 22.320312 35.484375 22.070312 35.332031 21.785156 C 35.183594 21.472656 35.039062 21.164062 34.902344 20.847656 C 34.738281 20.34375 34.574219 19.835938 34.410156 19.335938 C 34.230469 19.535156 34.039062 19.722656 33.832031 19.898438 C 33.710938 19.9375 33.636719 19.894531 33.617188 19.765625 C 33.839844 19.523438 34.0625 19.273438 34.277344 19.023438 C 34.261719 18.824219 34.355469 18.722656 34.554688 18.722656 C 35.035156 18.28125 35.492188 17.816406 35.921875 17.332031 C 36.222656 17.132812 36.503906 16.910156 36.773438 16.671875 C 36.84375 16.550781 36.921875 16.441406 37 16.335938 Z M 37 16.335938 "/>
<path style=" stroke:none;fill-rule:evenodd;fill:rgb(1.176471%,1.176471%,1.176471%);fill-opacity:1;" d="M 10.667969 18.589844 C 10.761719 18.585938 10.851562 18.605469 10.933594 18.652344 C 11.261719 18.847656 11.597656 19.03125 11.941406 19.203125 C 12.175781 19.289062 12.417969 19.355469 12.660156 19.394531 C 12.839844 19.597656 12.816406 19.777344 12.589844 19.921875 C 12.234375 19.957031 11.898438 19.894531 11.582031 19.730469 C 11.246094 19.554688 10.910156 19.378906 10.574219 19.203125 C 10.445312 19.101562 10.398438 18.96875 10.441406 18.808594 C 10.484375 18.695312 10.558594 18.625 10.667969 18.589844 Z M 10.667969 18.589844 "/>
<path style=" stroke:none;fill-rule:evenodd;fill:rgb(98.823529%,98.823529%,98.823529%);fill-opacity:1;" d="M 25.097656 22.9375 C 24.738281 22.808594 24.371094 22.730469 23.992188 22.695312 C 23.917969 22.679688 23.847656 22.664062 23.777344 22.648438 C 24.289062 21.347656 24.800781 20.042969 25.300781 18.734375 C 25.320312 19.4375 25.3125 20.144531 25.277344 20.847656 C 25.222656 21.542969 25.160156 22.238281 25.097656 22.9375 Z M 25.097656 22.9375 "/>
<path style=" stroke:none;fill-rule:evenodd;fill:rgb(1.176471%,1.176471%,1.176471%);fill-opacity:1;" d="M 9.347656 22.144531 C 9.714844 22.203125 10.050781 22.332031 10.359375 22.539062 C 10.484375 22.664062 10.511719 22.8125 10.441406 22.984375 C 10.34375 23.097656 10.21875 23.144531 10.070312 23.117188 C 9.765625 23.019531 9.472656 22.90625 9.179688 22.78125 C 9.007812 22.503906 9.066406 22.292969 9.347656 22.144531 Z M 9.347656 22.144531 "/>
<path style=" stroke:none;fill-rule:evenodd;fill:rgb(78.823529%,56.470588%,53.72549%);fill-opacity:1;" d="M 23.777344 22.648438 C 23.847656 22.664062 23.917969 22.679688 23.992188 22.695312 C 23.910156 22.695312 23.832031 22.695312 23.75 22.695312 C 23.746094 22.671875 23.753906 22.65625 23.777344 22.648438 Z M 23.777344 22.648438 "/>
<path style=" stroke:none;fill-rule:evenodd;fill:rgb(66.27451%,22.745098%,17.647059%);fill-opacity:1;" d="M 23.75 22.695312 C 23.832031 22.695312 23.910156 22.695312 23.992188 22.695312 C 24.371094 22.730469 24.738281 22.808594 25.097656 22.9375 C 25 23.550781 24.917969 24.164062 24.84375 24.785156 C 24.695312 24.679688 24.527344 24.605469 24.351562 24.554688 C 24.09375 24.507812 23.835938 24.441406 23.582031 24.363281 C 23.398438 24.359375 23.214844 24.347656 23.03125 24.328125 C 23.285156 23.789062 23.527344 23.246094 23.75 22.695312 Z M 23.75 22.695312 "/>
<path style=" stroke:none;fill-rule:evenodd;fill:rgb(66.27451%,23.137255%,18.039216%);fill-opacity:1;" d="M 22.910156 22.769531 C 22.679688 23.351562 22.425781 23.929688 22.15625 24.496094 C 21.847656 24.648438 21.59375 24.867188 21.386719 25.144531 C 21.363281 25.195312 21.347656 25.253906 21.339844 25.3125 C 21.148438 25.550781 21.019531 25.824219 20.957031 26.128906 C 20.839844 27.023438 21.0625 27.824219 21.628906 28.527344 C 21.613281 28.96875 21.601562 29.410156 21.589844 29.847656 C 20.558594 29.179688 19.964844 28.226562 19.804688 26.992188 C 19.703125 25.472656 20.257812 24.257812 21.472656 23.355469 C 21.910156 23.058594 22.390625 22.863281 22.910156 22.769531 Z M 22.910156 22.769531 "/>
<path style=" stroke:none;fill-rule:evenodd;fill:rgb(66.27451%,23.137255%,18.039216%);fill-opacity:1;" d="M 25.886719 23.367188 C 27.109375 24.25 27.664062 25.453125 27.554688 26.96875 C 27.3125 28.660156 26.378906 29.777344 24.761719 30.316406 C 24.585938 30.363281 24.410156 30.398438 24.230469 30.425781 C 24.355469 29.894531 24.488281 29.367188 24.628906 28.839844 C 24.6875 28.578125 24.71875 28.316406 24.722656 28.046875 C 25.179688 27.652344 25.476562 27.15625 25.613281 26.558594 C 25.703125 26.183594 25.667969 25.820312 25.503906 25.46875 C 25.59375 25.417969 25.65625 25.339844 25.683594 25.238281 C 25.703125 24.609375 25.769531 23.984375 25.886719 23.367188 Z M 25.886719 23.367188 "/>
<path style=" stroke:none;fill-rule:evenodd;fill:rgb(64.313725%,22.352941%,17.647059%);fill-opacity:1;" d="M 23.296875 25.046875 C 23.402344 25.101562 23.496094 25.167969 23.582031 25.253906 C 23.292969 25.375 23.148438 25.59375 23.152344 25.914062 C 23.160156 26.292969 23.289062 26.625 23.535156 26.910156 C 23.589844 26.949219 23.648438 26.988281 23.703125 27.027344 C 23.535156 27.097656 23.386719 27.066406 23.257812 26.945312 C 23.074219 26.703125 22.953125 26.429688 22.898438 26.128906 C 22.886719 25.914062 22.917969 25.707031 22.996094 25.503906 C 23.070312 25.4375 23.148438 25.382812 23.234375 25.335938 C 23.261719 25.253906 23.242188 25.183594 23.175781 25.132812 C 23.21875 25.101562 23.257812 25.074219 23.296875 25.046875 Z M 23.296875 25.046875 "/>
<path style=" stroke:none;fill-rule:evenodd;fill:rgb(63.529412%,21.960784%,17.254902%);fill-opacity:1;" d="M 22.550781 25.144531 C 22.570312 25.140625 22.585938 25.144531 22.601562 25.15625 C 22.367188 25.414062 22.214844 25.714844 22.144531 26.054688 C 22.019531 25.804688 22.054688 25.582031 22.25 25.382812 C 22.347656 25.296875 22.445312 25.214844 22.550781 25.144531 Z M 22.550781 25.144531 "/>
<path style=" stroke:none;fill-rule:evenodd;fill:rgb(59.215686%,21.176471%,16.470588%);fill-opacity:1;" d="M 24.015625 25.214844 C 24.128906 25.214844 24.242188 25.242188 24.351562 25.300781 C 24.386719 25.335938 24.410156 25.382812 24.425781 25.433594 C 24.410156 25.457031 24.394531 25.460938 24.375 25.445312 C 24.253906 25.367188 24.136719 25.292969 24.015625 25.214844 Z M 24.015625 25.214844 "/>
<path style=" stroke:none;fill-rule:evenodd;fill:rgb(65.490196%,22.745098%,17.647059%);fill-opacity:1;" d="M 21.6875 25.433594 C 21.542969 26.1875 21.710938 26.867188 22.191406 27.472656 C 22.105469 27.503906 22.03125 27.554688 21.964844 27.617188 C 21.871094 27.777344 21.800781 27.945312 21.746094 28.121094 C 21.300781 27.476562 21.164062 26.773438 21.339844 26.007812 C 21.414062 25.789062 21.527344 25.597656 21.6875 25.433594 Z M 21.6875 25.433594 "/>
<path style=" stroke:none;fill-rule:evenodd;fill:rgb(0.784314%,0.784314%,0.784314%);fill-opacity:1;" d="M 8.773438 25.503906 C 9.296875 25.5 9.816406 25.523438 10.332031 25.5625 C 10.546875 25.671875 10.640625 25.84375 10.609375 26.082031 C 10.542969 26.269531 10.410156 26.375 10.214844 26.402344 C 9.699219 26.449219 9.1875 26.449219 8.675781 26.402344 C 8.386719 26.191406 8.339844 25.9375 8.535156 25.636719 C 8.613281 25.582031 8.691406 25.539062 8.773438 25.503906 Z M 8.773438 25.503906 "/>
<path style=" stroke:none;fill-rule:evenodd;fill:rgb(63.921569%,22.352941%,17.254902%);fill-opacity:1;" d="M 23.945312 25.671875 C 24.039062 25.769531 24.113281 25.882812 24.171875 26.007812 C 24.179688 26.246094 24.125 26.261719 24.003906 26.054688 C 23.957031 25.933594 23.9375 25.804688 23.945312 25.671875 Z M 23.945312 25.671875 "/>
<path style=" stroke:none;fill-rule:evenodd;fill:rgb(57.647059%,20.784314%,16.470588%);fill-opacity:1;" d="M 24.785156 25.742188 C 24.8125 25.796875 24.835938 25.851562 24.855469 25.914062 C 24.824219 25.976562 24.796875 26.039062 24.773438 26.105469 C 24.769531 25.984375 24.773438 25.863281 24.785156 25.742188 Z M 24.785156 25.742188 "/>
<path style=" stroke:none;fill-rule:evenodd;fill:rgb(64.313725%,22.352941%,17.254902%);fill-opacity:1;" d="M 23.632812 25.792969 C 23.679688 25.941406 23.738281 26.09375 23.8125 26.25 C 23.855469 26.316406 23.90625 26.375 23.96875 26.429688 C 23.777344 26.507812 23.636719 26.457031 23.546875 26.273438 C 23.511719 26.097656 23.542969 25.9375 23.632812 25.792969 Z M 23.632812 25.792969 "/>
<path style=" stroke:none;fill-rule:evenodd;fill:rgb(63.921569%,22.352941%,17.254902%);fill-opacity:1;" d="M 24.328125 26.464844 C 24.355469 26.472656 24.371094 26.492188 24.375 26.523438 C 24.28125 26.828125 24.097656 26.898438 23.824219 26.742188 C 24.035156 26.722656 24.203125 26.628906 24.328125 26.464844 Z M 24.328125 26.464844 "/>
<path style=" stroke:none;fill-rule:evenodd;fill:rgb(58.039216%,20.784314%,16.470588%);fill-opacity:1;" d="M 24.808594 26.558594 C 24.824219 26.566406 24.832031 26.578125 24.832031 26.597656 C 24.820312 26.632812 24.808594 26.667969 24.796875 26.703125 C 24.78125 26.652344 24.785156 26.605469 24.808594 26.558594 Z M 24.808594 26.558594 "/>
<path style=" stroke:none;fill-rule:evenodd;fill:rgb(0.784314%,0.784314%,0.784314%);fill-opacity:1;" d="M 40.386719 26.609375 C 40.730469 26.574219 40.902344 26.726562 40.902344 27.0625 C 40.792969 27.308594 40.613281 27.480469 40.363281 27.582031 C 39.9375 27.695312 39.503906 27.78125 39.066406 27.832031 C 38.789062 27.789062 38.65625 27.628906 38.671875 27.351562 C 38.699219 27.1875 38.792969 27.070312 38.945312 27.003906 C 39.371094 26.957031 39.789062 26.871094 40.195312 26.742188 C 40.257812 26.691406 40.320312 26.644531 40.386719 26.609375 Z M 40.386719 26.609375 "/>
<path style=" stroke:none;fill-rule:evenodd;fill:rgb(56.470588%,20.392157%,16.078431%);fill-opacity:1;" d="M 22.457031 26.082031 C 22.46875 26.480469 22.621094 26.820312 22.910156 27.101562 C 22.757812 27.019531 22.640625 26.894531 22.5625 26.726562 C 22.476562 26.519531 22.441406 26.304688 22.457031 26.082031 Z M 22.457031 26.082031 "/>
<path style=" stroke:none;fill-rule:evenodd;fill:rgb(64.313725%,22.352941%,17.647059%);fill-opacity:1;" d="M 24.472656 27.015625 C 24.601562 27.527344 24.402344 27.742188 23.871094 27.652344 C 23.554688 27.558594 23.570312 27.519531 23.917969 27.53125 C 24.171875 27.429688 24.355469 27.257812 24.472656 27.015625 Z M 24.472656 27.015625 "/>
<path style=" stroke:none;fill-rule:evenodd;fill:rgb(52.54902%,18.823529%,14.901961%);fill-opacity:1;" d="M 23.007812 27.207031 C 23.085938 27.214844 23.15625 27.25 23.222656 27.316406 C 23.144531 27.300781 23.074219 27.261719 23.007812 27.207031 Z M 23.007812 27.207031 "/>
<path style=" stroke:none;fill-rule:evenodd;fill:rgb(65.882353%,22.745098%,17.647059%);fill-opacity:1;" d="M 22.601562 27.878906 C 22.878906 28.085938 23.191406 28.226562 23.535156 28.300781 C 23.632812 28.3125 23.726562 28.316406 23.824219 28.3125 C 23.816406 28.519531 23.777344 28.71875 23.703125 28.914062 C 23.390625 29.058594 23.070312 29.070312 22.742188 28.949219 C 22.621094 28.890625 22.5 28.828125 22.382812 28.757812 C 22.363281 28.632812 22.375 28.507812 22.417969 28.382812 C 22.480469 28.214844 22.539062 28.046875 22.601562 27.878906 Z M 22.601562 27.878906 "/>
<path style=" stroke:none;fill-rule:evenodd;fill:rgb(1.960784%,1.960784%,1.960784%);fill-opacity:1;" d="M 9.566406 28.839844 C 9.820312 28.84375 10.019531 28.953125 10.152344 29.175781 C 10.378906 29.515625 10.589844 29.867188 10.777344 30.234375 C 11.078125 30.851562 11.382812 31.46875 11.691406 32.082031 C 11.707031 32.097656 11.722656 32.113281 11.738281 32.128906 C 11.832031 31.992188 11.941406 31.976562 12.074219 32.082031 C 12.125 32.25 12.117188 32.417969 12.050781 32.585938 C 11.886719 32.6875 11.730469 32.675781 11.582031 32.550781 C 11.511719 32.488281 11.453125 32.421875 11.402344 32.34375 C 11.054688 31.628906 10.703125 30.917969 10.34375 30.207031 C 10.179688 29.898438 9.996094 29.605469 9.792969 29.320312 C 9.777344 29.480469 9.785156 29.640625 9.816406 29.800781 C 9.925781 30.179688 10.007812 30.5625 10.070312 30.953125 C 10.066406 31.46875 9.832031 31.613281 9.375 31.398438 C 9.167969 31.144531 8.941406 30.902344 8.703125 30.675781 C 8.175781 30.296875 7.679688 29.875 7.214844 29.417969 C 7.1875 29.472656 7.179688 29.527344 7.199219 29.585938 C 7.324219 29.878906 7.421875 30.183594 7.488281 30.496094 C 7.726562 31.191406 7.980469 31.878906 8.257812 32.5625 C 8.449219 33.097656 8.617188 33.640625 8.761719 34.195312 C 8.777344 34.296875 8.777344 34.402344 8.761719 34.503906 C 8.722656 34.613281 8.644531 34.652344 8.535156 34.613281 C 8.503906 34.601562 8.484375 34.582031 8.472656 34.554688 C 8.46875 34.410156 8.449219 34.265625 8.425781 34.121094 C 8.128906 33.109375 7.777344 32.117188 7.371094 31.144531 C 7.21875 30.671875 7.066406 30.199219 6.914062 29.730469 C 6.871094 29.585938 6.855469 29.441406 6.863281 29.296875 C 6.980469 29.039062 7.160156 28.984375 7.40625 29.140625 C 7.9375 29.644531 8.496094 30.117188 9.085938 30.558594 C 9.210938 30.691406 9.328125 30.828125 9.433594 30.976562 C 9.492188 31.050781 9.5625 31.109375 9.648438 31.144531 C 9.667969 31.140625 9.683594 31.132812 9.699219 31.121094 C 9.707031 30.96875 9.699219 30.816406 9.671875 30.664062 C 9.589844 30.320312 9.507812 29.976562 9.433594 29.632812 C 9.40625 29.390625 9.421875 29.148438 9.480469 28.914062 C 9.507812 28.886719 9.535156 28.859375 9.566406 28.839844 Z M 9.566406 28.839844 "/>
<path style=" stroke:none;fill-rule:evenodd;fill:rgb(65.882353%,23.137255%,18.039216%);fill-opacity:1;" d="M 23.34375 30.449219 C 22.996094 30.425781 22.660156 30.355469 22.335938 30.234375 C 22.332031 29.863281 22.335938 29.496094 22.347656 29.128906 C 22.738281 29.375 23.152344 29.441406 23.597656 29.320312 C 23.511719 29.695312 23.425781 30.070312 23.34375 30.449219 Z M 23.34375 30.449219 "/>
<path style=" stroke:none;fill-rule:evenodd;fill:rgb(98.431373%,98.431373%,98.431373%);fill-opacity:1;" d="M 22.335938 30.234375 C 22.660156 30.355469 22.996094 30.425781 23.34375 30.449219 C 23.128906 31.453125 22.925781 32.460938 22.730469 33.472656 C 22.554688 34.234375 22.347656 34.984375 22.109375 35.730469 C 22.089844 34.691406 22.089844 33.648438 22.109375 32.609375 C 22.15625 31.8125 22.230469 31.019531 22.335938 30.234375 Z M 22.335938 30.234375 "/>
<path style=" stroke:none;fill-rule:evenodd;fill:rgb(1.176471%,1.176471%,1.176471%);fill-opacity:1;" d="M 37.984375 30.832031 C 38.660156 30.820312 39.332031 30.839844 40.003906 30.894531 C 40.269531 30.960938 40.386719 31.132812 40.351562 31.410156 C 40.296875 31.566406 40.191406 31.65625 40.027344 31.683594 C 39.890625 31.699219 39.753906 31.714844 39.617188 31.734375 C 39.066406 31.75 38.515625 31.75 37.960938 31.734375 C 37.640625 31.582031 37.558594 31.34375 37.710938 31.023438 C 37.792969 30.945312 37.886719 30.878906 37.984375 30.832031 Z M 37.984375 30.832031 "/>
<path style=" stroke:none;fill-rule:evenodd;fill:rgb(0.784314%,0.784314%,0.784314%);fill-opacity:1;" d="M 35.96875 33.351562 C 36.058594 33.355469 36.148438 33.367188 36.234375 33.390625 C 36.839844 33.558594 37.445312 33.707031 38.058594 33.84375 C 38.257812 33.910156 38.40625 34.035156 38.503906 34.21875 C 38.542969 34.453125 38.445312 34.585938 38.214844 34.625 C 38.101562 34.578125 37.984375 34.535156 37.867188 34.492188 C 37.199219 34.398438 36.542969 34.261719 35.898438 34.085938 C 35.691406 33.941406 35.636719 33.753906 35.742188 33.519531 C 35.808594 33.449219 35.886719 33.394531 35.96875 33.351562 Z M 35.96875 33.351562 "/>
<path style=" stroke:none;fill-rule:evenodd;fill:rgb(0.784314%,0.784314%,0.784314%);fill-opacity:1;" d="M 33.210938 35.851562 C 33.289062 35.84375 33.371094 35.851562 33.449219 35.863281 C 34.042969 36.085938 34.605469 36.375 35.128906 36.726562 C 35.21875 36.796875 35.304688 36.871094 35.394531 36.941406 C 35.628906 37.140625 35.664062 37.367188 35.5 37.625 C 35.378906 37.722656 35.238281 37.761719 35.082031 37.734375 C 34.425781 37.34375 33.746094 37 33.042969 36.703125 C 32.8125 36.484375 32.792969 36.246094 32.980469 35.992188 C 33.058594 35.941406 33.132812 35.894531 33.210938 35.851562 Z M 33.210938 35.851562 "/>
<path style=" stroke:none;fill-rule:evenodd;fill:rgb(0.392157%,0.392157%,0.392157%);fill-opacity:1;" d="M 13.453125 36.832031 C 13.933594 36.789062 14.15625 37.007812 14.113281 37.480469 C 13.773438 38.160156 13.433594 38.839844 13.105469 39.523438 C 12.765625 39.765625 12.503906 39.703125 12.3125 39.332031 C 12.289062 39.132812 12.304688 38.941406 12.363281 38.753906 C 12.617188 38.164062 12.898438 37.589844 13.203125 37.027344 C 13.273438 36.941406 13.359375 36.875 13.453125 36.832031 Z M 13.453125 36.832031 "/>
<path style=" stroke:none;fill-rule:evenodd;fill:rgb(1.960784%,1.960784%,1.960784%);fill-opacity:1;" d="M 27.640625 37.027344 C 27.742188 37.007812 27.828125 37.042969 27.890625 37.121094 C 27.894531 37.261719 27.917969 37.398438 27.964844 37.53125 C 28.070312 37.75 28.183594 37.964844 28.300781 38.179688 C 28.421875 38.503906 28.539062 38.832031 28.648438 39.164062 C 28.796875 39.050781 28.957031 39.023438 29.128906 39.078125 C 29.214844 39.28125 29.140625 39.386719 28.914062 39.390625 C 28.851562 39.410156 28.800781 39.445312 28.769531 39.5 C 29.042969 40.261719 29.398438 40.980469 29.835938 41.660156 C 29.875 41.875 29.792969 41.960938 29.585938 41.910156 C 29.304688 41.554688 29.078125 41.167969 28.902344 40.746094 C 28.75 40.410156 28.601562 40.074219 28.457031 39.738281 C 28.308594 39.871094 28.148438 39.988281 27.976562 40.085938 C 27.605469 40.28125 27.230469 40.460938 26.847656 40.625 C 27.019531 41.226562 27.257812 41.804688 27.554688 42.355469 C 27.589844 42.386719 27.621094 42.417969 27.652344 42.449219 C 27.773438 42.378906 27.882812 42.386719 27.988281 42.476562 C 28.003906 42.507812 28.003906 42.539062 27.988281 42.570312 C 27.894531 42.640625 27.8125 42.714844 27.738281 42.800781 C 27.640625 42.8125 27.550781 42.785156 27.472656 42.726562 C 27.242188 42.480469 27.070312 42.195312 26.957031 41.875 C 26.824219 41.515625 26.6875 41.160156 26.535156 40.804688 C 26.289062 40.886719 26.039062 40.972656 25.792969 41.070312 C 25.652344 41.121094 25.570312 41.070312 25.550781 40.925781 C 25.554688 40.875 25.578125 40.835938 25.625 40.804688 C 25.832031 40.726562 26.039062 40.644531 26.25 40.566406 C 26.304688 40.546875 26.351562 40.515625 26.390625 40.46875 C 26.03125 39.722656 25.621094 39.003906 25.15625 38.320312 C 25.082031 38.125 25.148438 38.039062 25.359375 38.070312 C 25.871094 38.796875 26.320312 39.5625 26.714844 40.363281 C 27.101562 40.164062 27.492188 39.96875 27.878906 39.773438 C 28.050781 39.664062 28.203125 39.53125 28.335938 39.378906 C 28.242188 39.046875 28.132812 38.71875 28.011719 38.394531 C 27.847656 38.109375 27.707031 37.8125 27.582031 37.507812 C 27.550781 37.378906 27.542969 37.25 27.554688 37.121094 C 27.589844 37.09375 27.617188 37.0625 27.640625 37.027344 Z M 27.640625 37.027344 "/>
<path style=" stroke:none;fill-rule:evenodd;fill:rgb(0.784314%,0.784314%,0.784314%);fill-opacity:1;" d="M 15.207031 40.097656 C 15.597656 40.0625 15.777344 40.238281 15.746094 40.625 C 15.6875 40.824219 15.617188 41.015625 15.53125 41.203125 C 15.296875 41.402344 15.074219 41.394531 14.859375 41.179688 C 14.8125 41.101562 14.792969 41.015625 14.796875 40.925781 C 14.835938 40.675781 14.917969 40.441406 15.039062 40.21875 C 15.089844 40.171875 15.148438 40.132812 15.207031 40.097656 Z M 15.207031 40.097656 "/>
<path style=" stroke:none;fill-rule:evenodd;fill:rgb(1.568627%,1.568627%,1.568627%);fill-opacity:1;" d="M 18.519531 40.914062 C 18.8125 40.878906 19.007812 41 19.105469 41.273438 C 19.117188 41.472656 19.09375 41.664062 19.035156 41.851562 C 18.890625 42.0625 18.691406 42.125 18.445312 42.03125 C 18.339844 41.957031 18.273438 41.859375 18.242188 41.730469 C 18.222656 41.5625 18.214844 41.394531 18.21875 41.226562 C 18.277344 41.078125 18.375 40.976562 18.519531 40.914062 Z M 18.519531 40.914062 "/>
<path style=" stroke:none;fill-rule:evenodd;fill:rgb(1.568627%,1.568627%,1.568627%);fill-opacity:1;" d="M 22.289062 41.996094 C 22.5 41.96875 22.65625 42.050781 22.753906 42.234375 C 22.816406 42.578125 22.910156 42.910156 23.03125 43.230469 C 23.027344 43.394531 22.945312 43.507812 22.792969 43.566406 C 22.644531 43.605469 22.519531 43.570312 22.417969 43.457031 C 22.203125 43.085938 22.074219 42.683594 22.035156 42.257812 C 22.09375 42.140625 22.175781 42.054688 22.289062 41.996094 Z M 22.289062 41.996094 "/>
</g>
</svg>
