<?xml version="1.0" encoding="UTF-8"?>
<svg xmlns="http://www.w3.org/2000/svg" xmlns:xlink="http://www.w3.org/1999/xlink" width="50pt" height="50pt" viewBox="0 0 50 50" version="1.1">
<defs>
<filter id="alpha" filterUnits="objectBoundingBox" x="0%" y="0%" width="100%" height="100%">
  <feColorMatrix type="matrix" in="SourceGraphic" values="0 0 0 0 1 0 0 0 0 1 0 0 0 0 1 0 0 0 1 0"/>
</filter>
<mask id="mask0">
  <g filter="url(#alpha)">
<rect x="0" y="0" width="50" height="50" style="fill:rgb(0%,0%,0%);fill-opacity:0.980392;stroke:none;"/>
  </g>
</mask>
<clipPath id="clip1">
  <rect width="50" height="50"/>
</clipPath>
<g id="surface6" clip-path="url(#clip1)">
<path style=" stroke:none;fill-rule:evenodd;fill:rgb(0.392157%,0.392157%,0.392157%);fill-opacity:1;" d="M 23.632812 7.269531 C 26.054688 7.097656 28.179688 7.792969 30.015625 9.355469 C 31.039062 10.28125 31.671875 11.421875 31.910156 12.789062 C 32.046875 13.820312 31.820312 14.765625 31.238281 15.617188 C 30.777344 17.132812 29.761719 17.972656 28.191406 18.136719 C 27.496094 18.183594 26.808594 18.132812 26.128906 17.996094 C 25.4375 17.972656 24.75 17.941406 24.0625 17.898438 C 22.835938 17.769531 21.601562 17.660156 20.371094 17.5625 C 19.554688 17.53125 18.738281 17.53125 17.921875 17.5625 C 17.574219 17.636719 17.238281 17.746094 16.914062 17.898438 C 16.792969 18.097656 16.753906 18.316406 16.792969 18.546875 C 17.070312 19.316406 17.589844 19.851562 18.355469 20.152344 C 18.769531 20.316406 19.203125 20.414062 19.648438 20.441406 C 20.707031 20.457031 21.761719 20.472656 22.816406 20.488281 C 23.09375 20.53125 23.363281 20.585938 23.632812 20.65625 C 23.894531 20.101562 24.292969 19.964844 24.832031 20.25 C 24.886719 20.332031 24.933594 20.421875 24.976562 20.511719 C 25.148438 20.535156 25.253906 20.628906 25.289062 20.800781 C 25.4375 19.789062 26.023438 19.203125 27.039062 19.050781 C 27.636719 19.003906 28.226562 19.035156 28.816406 19.144531 C 29.566406 19.316406 30.308594 19.515625 31.046875 19.746094 C 32.648438 19.332031 34.257812 19.308594 35.867188 19.671875 C 37.398438 20.199219 38.839844 20.902344 40.1875 21.785156 C 41.433594 22.617188 42.683594 23.449219 43.929688 24.28125 C 44.152344 24.457031 44.378906 24.632812 44.601562 24.808594 C 45.277344 25.582031 45.992188 26.324219 46.738281 27.039062 C 47.117188 27.660156 47.519531 28.269531 47.9375 28.863281 C 48.09375 29.15625 48.222656 29.457031 48.320312 29.773438 C 48.445312 30.554688 48.558594 31.339844 48.65625 32.125 C 48.835938 33.605469 48.5 34.949219 47.648438 36.15625 C 47.390625 36.847656 47.074219 37.503906 46.6875 38.125 C 46.21875 38.582031 45.820312 39.09375 45.488281 39.660156 C 44.746094 40.570312 43.777344 41.042969 42.585938 41.074219 C 41.152344 41.265625 39.746094 41.15625 38.363281 40.738281 C 37.808594 40.558594 37.265625 40.351562 36.730469 40.113281 C 35.800781 39.933594 34.875 39.742188 33.949219 39.539062 C 32.1875 39.128906 30.636719 38.332031 29.292969 37.140625 C 28.109375 35.984375 26.890625 34.867188 25.648438 33.78125 C 25.265625 33.398438 24.878906 33.011719 24.496094 32.628906 C 23.292969 31.84375 22.277344 30.859375 21.449219 29.679688 C 20.707031 28.390625 20.660156 27.078125 21.304688 25.742188 C 21.542969 25.363281 21.796875 24.996094 22.074219 24.640625 C 22.140625 24.21875 22.234375 23.800781 22.359375 23.390625 C 22.5625 22.839844 22.78125 22.296875 23.007812 21.761719 C 22.65625 21.71875 22.304688 21.710938 21.953125 21.738281 C 21.421875 21.886719 20.894531 22.046875 20.371094 22.21875 C 19.839844 22.3125 19.3125 22.3125 18.785156 22.21875 C 17.441406 21.917969 16.207031 21.375 15.089844 20.585938 C 14.53125 20.140625 14.195312 19.5625 14.082031 18.859375 C 14.117188 18.59375 14.21875 18.363281 14.394531 18.164062 C 14.59375 17.960938 14.796875 17.761719 14.996094 17.5625 C 15.484375 17.230469 15.980469 16.910156 16.484375 16.601562 C 18.386719 15.980469 20.335938 15.722656 22.335938 15.835938 C 23.539062 16.03125 24.722656 16.304688 25.886719 16.652344 C 27.347656 16.761719 28.644531 16.363281 29.773438 15.449219 C 30.113281 15.109375 30.257812 14.695312 30.207031 14.203125 C 30.167969 12.636719 29.445312 11.5 28.046875 10.796875 C 27.714844 10.640625 27.378906 10.496094 27.039062 10.363281 C 25.6875 9.9375 24.3125 9.628906 22.914062 9.429688 C 21.960938 9.554688 21.03125 9.789062 20.128906 10.125 C 19.5 10.566406 18.828125 10.933594 18.113281 11.226562 C 17.527344 11.390625 16.953125 11.582031 16.386719 11.804688 C 15.777344 11.964844 15.171875 12.125 14.5625 12.285156 C 13.058594 12.867188 11.539062 13.414062 10.003906 13.914062 C 9.152344 14.167969 8.289062 14.359375 7.414062 14.492188 C 7.09375 14.523438 6.773438 14.523438 6.453125 14.492188 C 5.863281 14.414062 5.269531 14.339844 4.679688 14.277344 C 3.882812 14.417969 3.085938 14.476562 2.277344 14.445312 C 1.796875 14.390625 1.390625 14.191406 1.054688 13.84375 C 0.867188 13.425781 0.96875 13.097656 1.367188 12.859375 C 1.941406 12.585938 2.550781 12.449219 3.191406 12.453125 C 4.421875 12.589844 5.65625 12.734375 6.886719 12.882812 C 8.105469 12.789062 9.304688 12.574219 10.484375 12.234375 C 11.933594 11.800781 13.371094 11.335938 14.804688 10.84375 C 15.488281 10.644531 16.175781 10.453125 16.867188 10.269531 C 17.75 9.8125 18.644531 9.378906 19.554688 8.972656 C 20.75 8.007812 22.109375 7.441406 23.632812 7.269531 Z M 25.503906 8.613281 C 26.027344 8.660156 26.519531 8.789062 26.992188 8.996094 C 26.484375 8.890625 25.988281 8.761719 25.503906 8.613281 Z M 15.714844 19.363281 C 15.457031 19.214844 15.402344 19.023438 15.546875 18.785156 C 15.597656 18.980469 15.65625 19.171875 15.714844 19.363281 Z M 46.855469 33.996094 C 46.757812 34.566406 46.621094 35.125 46.449219 35.675781 C 46.253906 35.972656 46.054688 36.261719 45.847656 36.539062 C 46.199219 35.695312 46.535156 34.847656 46.855469 33.996094 Z M 46.855469 33.996094 "/>
</g>
<mask id="mask1">
  <g filter="url(#alpha)">
<rect x="0" y="0" width="50" height="50" style="fill:rgb(0%,0%,0%);fill-opacity:0.984314;stroke:none;"/>
  </g>
</mask>
<clipPath id="clip2">
  <rect width="50" height="50"/>
</clipPath>
<g id="surface9" clip-path="url(#clip2)">
<path style=" stroke:none;fill-rule:evenodd;fill:rgb(0%,0%,0%);fill-opacity:1;" d="M 16.003906 17.730469 C 15.921875 18.738281 16.289062 19.578125 17.105469 20.25 C 17.226562 20.335938 17.347656 20.425781 17.464844 20.511719 C 17.472656 20.695312 17.398438 20.839844 17.25 20.945312 C 16.441406 20.671875 15.742188 20.222656 15.164062 19.601562 C 14.992188 19.386719 14.871094 19.148438 14.804688 18.882812 C 15.144531 18.429688 15.542969 18.046875 16.003906 17.730469 Z M 15.714844 19.363281 C 15.65625 19.171875 15.597656 18.980469 15.546875 18.785156 C 15.402344 19.023438 15.457031 19.214844 15.714844 19.363281 Z M 15.714844 19.363281 "/>
</g>
</defs>
<g id="surface1">
<use xlink:href="#surface6" mask="url(#mask0)"/>
<path style=" stroke:none;fill-rule:evenodd;fill:rgb(8.235294%,8.627451%,8.235294%);fill-opacity:1;" d="M 23.585938 7.796875 C 26.132812 7.597656 28.296875 8.398438 30.085938 10.195312 C 30.632812 10.8125 31.035156 11.515625 31.285156 12.308594 C 31.59375 13.417969 31.417969 14.441406 30.757812 15.378906 C 30.175781 17.113281 28.96875 17.859375 27.136719 17.609375 C 26.101562 17.472656 25.0625 17.394531 24.015625 17.371094 C 22.878906 17.261719 21.746094 17.148438 20.609375 17.035156 C 19.648438 17.003906 18.691406 17.003906 17.730469 17.035156 C 17.40625 17.136719 17.089844 17.25 16.769531 17.371094 C 16.480469 17.507812 16.3125 17.742188 16.265625 18.066406 C 16.226562 18.875 16.523438 19.539062 17.15625 20.058594 C 17.847656 20.585938 18.632812 20.890625 19.503906 20.96875 C 20.5625 20.984375 21.617188 21 22.671875 21.015625 C 23.113281 21.074219 23.542969 21.164062 23.96875 21.28125 C 23.96875 21.34375 23.96875 21.410156 23.96875 21.472656 C 23.75 21.460938 23.542969 21.40625 23.34375 21.304688 C 22.769531 21.179688 22.195312 21.164062 21.617188 21.257812 C 21.128906 21.445312 20.632812 21.605469 20.128906 21.738281 C 18.414062 21.734375 16.863281 21.222656 15.476562 20.203125 C 15.070312 19.898438 14.792969 19.503906 14.636719 19.027344 C 14.601562 18.945312 14.601562 18.867188 14.636719 18.785156 C 14.84375 18.46875 15.09375 18.191406 15.378906 17.945312 C 15.828125 17.660156 16.273438 17.371094 16.722656 17.082031 C 16.894531 17.003906 17.070312 16.941406 17.25 16.890625 C 17.863281 16.792969 18.472656 16.664062 19.074219 16.507812 C 20.464844 16.289062 21.859375 16.289062 23.25 16.507812 C 24.109375 16.746094 24.972656 16.96875 25.839844 17.179688 C 27.222656 17.261719 28.503906 16.941406 29.679688 16.21875 C 29.957031 15.988281 30.222656 15.742188 30.46875 15.476562 C 31.113281 13.183594 30.382812 11.464844 28.285156 10.316406 C 27.503906 9.941406 26.6875 9.65625 25.839844 9.453125 C 25.183594 9.308594 24.527344 9.164062 23.871094 9.019531 C 23.296875 8.949219 22.722656 8.929688 22.144531 8.972656 C 21.417969 9.144531 20.695312 9.351562 19.984375 9.597656 C 19.324219 10.054688 18.621094 10.4375 17.875 10.75 C 16.570312 11.1875 15.25 11.582031 13.914062 11.925781 C 12.03125 12.746094 10.085938 13.390625 8.085938 13.867188 C 7.691406 13.945312 7.289062 13.988281 6.886719 13.988281 C 6.136719 13.90625 5.382812 13.839844 4.628906 13.796875 C 4.011719 13.820312 3.398438 13.867188 2.78125 13.941406 C 2.445312 13.941406 2.117188 13.886719 1.800781 13.773438 C 1.671875 13.707031 1.574219 13.609375 1.511719 13.484375 C 1.523438 13.421875 1.554688 13.375 1.609375 13.339844 C 2.109375 13.074219 2.644531 12.953125 3.214844 12.980469 C 4.234375 13.09375 5.25 13.226562 6.261719 13.386719 C 6.679688 13.417969 7.09375 13.417969 7.507812 13.386719 C 8.148438 13.277344 8.789062 13.164062 9.429688 13.050781 C 11.414062 12.511719 13.382812 11.90625 15.332031 11.226562 C 15.890625 11.078125 16.449219 10.933594 17.011719 10.796875 C 17.921875 10.324219 18.851562 9.875 19.792969 9.453125 C 20.074219 9.273438 20.347656 9.082031 20.609375 8.878906 C 21.648438 8.773438 22.6875 8.742188 23.726562 8.78125 C 25.078125 9.050781 26.40625 9.402344 27.710938 9.835938 C 28.652344 10.199219 29.445312 10.765625 30.085938 11.539062 C 30.230469 11.734375 30.351562 11.941406 30.445312 12.164062 C 30.636719 12.191406 30.8125 12.144531 30.972656 12.019531 C 30.214844 10.328125 28.96875 9.152344 27.230469 8.492188 C 25.875 7.996094 24.484375 7.867188 23.054688 8.109375 C 22.363281 8.289062 21.675781 8.464844 20.992188 8.636719 C 21.808594 8.195312 22.671875 7.914062 23.585938 7.796875 Z M 15.714844 19.363281 C 15.65625 19.171875 15.597656 18.980469 15.546875 18.785156 C 15.402344 19.023438 15.457031 19.214844 15.714844 19.363281 Z M 15.714844 19.363281 "/>
<use xlink:href="#surface9" mask="url(#mask1)"/>
<path style=" stroke:none;fill-rule:evenodd;fill:rgb(8.235294%,8.235294%,8.235294%);fill-opacity:1;" d="M 27.039062 19.554688 C 27.839844 19.519531 28.621094 19.609375 29.390625 19.816406 C 29.214844 19.835938 29.039062 19.863281 28.863281 19.890625 C 28.261719 19.765625 27.652344 19.726562 27.039062 19.769531 C 26.40625 19.914062 26.054688 20.304688 25.984375 20.945312 C 25.921875 20.984375 25.863281 21.03125 25.816406 21.089844 C 25.804688 20.242188 26.214844 19.730469 27.039062 19.554688 Z M 27.039062 19.554688 "/>
<path style=" stroke:none;fill-rule:evenodd;fill:rgb(90.196078%,88.627451%,85.882353%);fill-opacity:1;" d="M 32.652344 19.9375 C 33.324219 19.929688 33.996094 19.9375 34.667969 19.960938 C 35.570312 20.109375 36.433594 20.378906 37.261719 20.777344 C 37.699219 20.988281 38.132812 21.214844 38.554688 21.449219 C 36.492188 20.925781 34.414062 20.460938 32.316406 20.058594 C 32.300781 20.042969 32.285156 20.027344 32.269531 20.007812 C 32.40625 20 32.535156 19.976562 32.652344 19.9375 Z M 32.652344 19.9375 "/>
<path style=" stroke:none;fill-rule:evenodd;fill:rgb(7.843137%,8.235294%,7.843137%);fill-opacity:1;" d="M 30.496094 20.371094 C 31.132812 20.367188 31.773438 20.4375 32.414062 20.585938 C 33.160156 20.761719 33.894531 20.972656 34.621094 21.210938 C 34.105469 21.160156 33.59375 21.082031 33.085938 20.96875 C 32.21875 20.785156 31.351562 20.585938 30.496094 20.371094 Z M 30.496094 20.371094 "/>
<path style=" stroke:none;fill-rule:evenodd;fill:rgb(7.843137%,8.235294%,7.843137%);fill-opacity:1;" d="M 28.621094 20.417969 C 28.867188 20.417969 29.109375 20.457031 29.34375 20.539062 C 28.296875 20.644531 27.332031 20.972656 26.441406 21.519531 C 26.429688 21.503906 26.421875 21.488281 26.414062 21.472656 C 26.53125 21.230469 26.726562 21.0625 26.992188 20.96875 C 27.523438 20.730469 28.066406 20.546875 28.621094 20.417969 Z M 28.621094 20.417969 "/>
<path style=" stroke:none;fill-rule:evenodd;fill:rgb(94.117647%,92.54902%,89.803922%);fill-opacity:1;" d="M 29.199219 21.042969 C 29.953125 21.027344 30.703125 21.050781 31.453125 21.113281 C 34.363281 21.722656 37.132812 22.730469 39.753906 24.136719 C 38.605469 24.378906 37.535156 24.8125 36.539062 25.433594 C 36.203125 25.523438 35.867188 25.617188 35.53125 25.71875 C 34.988281 26.039062 34.445312 26.359375 33.902344 26.679688 C 33.625 26.71875 33.355469 26.703125 33.085938 26.632812 C 32.574219 26.390625 32.09375 26.105469 31.644531 25.769531 C 30.78125 25.03125 29.917969 24.296875 29.054688 23.558594 C 28.328125 23.109375 27.589844 22.667969 26.847656 22.242188 C 27.222656 22.058594 27.609375 21.890625 28 21.738281 C 28.386719 21.480469 28.789062 21.246094 29.199219 21.042969 Z M 29.199219 21.042969 "/>
<path style=" stroke:none;fill-rule:evenodd;fill:rgb(8.235294%,8.627451%,8.235294%);fill-opacity:1;" d="M 37.644531 21.808594 C 38.71875 22.042969 39.761719 22.417969 40.761719 22.9375 C 41.957031 23.589844 43.089844 24.324219 44.167969 25.144531 C 44.296875 25.273438 44.425781 25.398438 44.554688 25.527344 C 43.988281 25.222656 43.445312 24.871094 42.921875 24.472656 C 42.179688 24.011719 41.425781 23.5625 40.667969 23.128906 C 39.667969 22.664062 38.660156 22.226562 37.644531 21.808594 Z M 37.644531 21.808594 "/>
<path style=" stroke:none;fill-rule:evenodd;fill:rgb(8.235294%,8.627451%,8.235294%);fill-opacity:1;" d="M 23.535156 21.953125 C 23.601562 21.953125 23.664062 21.953125 23.726562 21.953125 C 23.308594 22.824219 22.996094 23.738281 22.792969 24.6875 C 22.53125 26.289062 22.660156 27.855469 23.175781 29.390625 C 23.511719 30.15625 23.945312 30.859375 24.472656 31.5 C 25.378906 32.453125 26.296875 33.390625 27.230469 34.308594 C 27.714844 34.570312 28.058594 34.945312 28.261719 35.4375 C 26.875 34.222656 25.546875 32.941406 24.28125 31.597656 C 23.328125 30.476562 22.753906 29.179688 22.554688 27.710938 C 22.253906 25.679688 22.582031 23.761719 23.535156 21.953125 Z M 23.535156 21.953125 "/>
<path style=" stroke:none;fill-rule:evenodd;fill:rgb(8.235294%,8.627451%,8.235294%);fill-opacity:1;" d="M 37.261719 22.433594 C 37.3125 22.378906 37.375 22.371094 37.453125 22.410156 C 38.714844 22.808594 39.914062 23.351562 41.050781 24.039062 C 40.921875 24.074219 40.796875 24.074219 40.667969 24.039062 C 39.554688 23.453125 38.417969 22.917969 37.261719 22.433594 Z M 37.261719 22.433594 "/>
<path style=" stroke:none;fill-rule:evenodd;fill:rgb(94.117647%,92.54902%,89.803922%);fill-opacity:1;" d="M 25.550781 22.914062 C 27.292969 23.972656 28.875 25.242188 30.300781 26.726562 C 30.898438 27.25 31.570312 27.648438 32.316406 27.925781 C 32.707031 28.023438 33.089844 28.023438 33.46875 27.925781 C 32.785156 28.597656 32.15625 29.308594 31.574219 30.0625 C 30.902344 30.988281 30.230469 31.917969 29.558594 32.84375 C 29.308594 33.160156 29.003906 33.398438 28.648438 33.566406 C 27.398438 31.617188 26.410156 29.535156 25.671875 27.328125 C 25.316406 26.136719 25.125 24.921875 25.097656 23.679688 C 25.238281 23.414062 25.390625 23.15625 25.550781 22.914062 Z M 25.550781 22.914062 "/>
<path style=" stroke:none;fill-rule:evenodd;fill:rgb(91.764706%,90.196078%,87.45098%);fill-opacity:1;" d="M 23.585938 24.015625 C 23.625 24.011719 23.660156 24.027344 23.679688 24.0625 C 23.246094 25.542969 23.382812 26.964844 24.089844 28.335938 C 24.796875 29.5625 25.371094 30.84375 25.816406 32.171875 C 23.484375 30.058594 22.667969 27.449219 23.367188 24.351562 C 23.410156 24.222656 23.484375 24.109375 23.585938 24.015625 Z M 23.585938 24.015625 "/>
<path style=" stroke:none;fill-rule:evenodd;fill:rgb(7.843137%,8.235294%,7.843137%);fill-opacity:1;" d="M 23.96875 25.3125 C 24.070312 25.75 24.15625 26.199219 24.230469 26.65625 C 24.386719 27.253906 24.546875 27.847656 24.710938 28.429688 C 24.214844 27.609375 23.949219 26.722656 23.921875 25.769531 C 23.921875 25.613281 23.9375 25.460938 23.96875 25.3125 Z M 23.96875 25.3125 "/>
<path style=" stroke:none;fill-rule:evenodd;fill:rgb(94.509804%,92.941176%,90.196078%);fill-opacity:1;" d="M 40.617188 25.359375 C 41.222656 25.363281 41.816406 25.449219 42.394531 25.625 C 43.203125 26.117188 43.988281 26.644531 44.746094 27.207031 C 45.742188 28.039062 46.484375 29.054688 46.976562 30.253906 C 46.996094 30.984375 46.917969 31.703125 46.738281 32.414062 C 46.203125 34.535156 45.355469 36.519531 44.195312 38.363281 C 44.152344 38.421875 44.09375 38.460938 44.027344 38.484375 C 43.34375 38.597656 42.65625 38.628906 41.960938 38.578125 C 40.363281 38.472656 38.765625 38.375 37.164062 38.292969 C 35.679688 38.179688 34.222656 37.90625 32.796875 37.476562 C 31.917969 36.972656 31.054688 36.445312 30.207031 35.890625 C 29.925781 35.546875 29.648438 35.203125 29.367188 34.859375 C 29.304688 34.785156 29.273438 34.707031 29.269531 34.621094 C 29.785156 34.316406 30.234375 33.933594 30.613281 33.46875 C 31.578125 31.996094 32.648438 30.601562 33.828125 29.292969 C 34.742188 28.316406 35.742188 27.445312 36.828125 26.679688 C 37.847656 26.527344 38.808594 26.191406 39.707031 25.671875 C 40.011719 25.550781 40.316406 25.449219 40.617188 25.359375 Z M 40.617188 25.359375 "/>
<path style=" stroke:none;fill-rule:evenodd;fill:rgb(90.588235%,89.019608%,86.666667%);fill-opacity:1;" d="M 21.90625 25.792969 C 21.9375 26.046875 21.96875 26.304688 22 26.558594 C 21.984375 28.0625 22.328125 29.472656 23.03125 30.78125 C 22.167969 30 21.609375 29.039062 21.351562 27.902344 C 21.28125 27.132812 21.464844 26.425781 21.90625 25.792969 Z M 21.90625 25.792969 "/>
<path style=" stroke:none;fill-rule:evenodd;fill:rgb(36.862745%,36.078431%,35.294118%);fill-opacity:1;" d="M 22 26.558594 C 21.96875 26.304688 21.9375 26.046875 21.90625 25.792969 C 21.929688 25.746094 21.953125 25.695312 21.976562 25.648438 C 22 25.953125 22.007812 26.253906 22 26.558594 Z M 22 26.558594 "/>
<path style=" stroke:none;fill-rule:evenodd;fill:rgb(8.235294%,8.627451%,8.235294%);fill-opacity:1;" d="M 34.765625 27.566406 C 34.800781 27.5625 34.832031 27.570312 34.859375 27.589844 C 33.984375 28.371094 33.179688 29.210938 32.4375 30.109375 C 31.621094 31.214844 30.804688 32.316406 29.992188 33.421875 C 29.695312 33.742188 29.351562 33.996094 28.957031 34.1875 C 28.914062 34.148438 28.882812 34.101562 28.863281 34.046875 C 29.261719 33.847656 29.605469 33.578125 29.894531 33.230469 C 30.535156 32.378906 31.160156 31.515625 31.765625 30.636719 C 32.535156 29.644531 33.375 28.710938 34.285156 27.832031 C 34.46875 27.777344 34.628906 27.691406 34.765625 27.566406 Z M 34.765625 27.566406 "/>
<path style=" stroke:none;fill-rule:evenodd;fill:rgb(7.843137%,8.235294%,7.843137%);fill-opacity:1;" d="M 35.582031 38.652344 C 35.625 38.621094 35.683594 38.605469 35.75 38.605469 C 36.203125 38.675781 36.65625 38.734375 37.117188 38.773438 C 39.273438 38.933594 41.433594 39.027344 43.59375 39.058594 C 43.886719 39.011719 44.175781 38.964844 44.457031 38.914062 C 44.421875 38.988281 44.375 39.050781 44.3125 39.109375 C 44.078125 39.179688 43.839844 39.226562 43.59375 39.25 C 42.953125 39.285156 42.3125 39.285156 41.675781 39.25 C 40.285156 39.164062 38.890625 39.085938 37.5 39.011719 C 36.863281 38.875 36.222656 38.757812 35.582031 38.652344 Z M 35.582031 38.652344 "/>
<path style=" stroke:none;fill-rule:evenodd;fill:rgb(7.843137%,8.235294%,7.843137%);fill-opacity:1;" d="M 35.246094 39.324219 C 35.289062 39.292969 35.347656 39.277344 35.414062 39.277344 C 36.152344 39.386719 36.898438 39.476562 37.644531 39.539062 C 38.796875 39.863281 39.964844 40.117188 41.148438 40.308594 C 41.886719 40.363281 42.625 40.332031 43.355469 40.210938 C 43.816406 40.117188 44.214844 39.910156 44.554688 39.585938 C 44.679688 39.535156 44.808594 39.5 44.9375 39.492188 C 44.175781 40.261719 43.25 40.625 42.15625 40.570312 C 41.589844 40.554688 41.03125 40.496094 40.476562 40.402344 C 39.410156 40.191406 38.355469 39.953125 37.308594 39.683594 C 36.621094 39.554688 35.933594 39.433594 35.246094 39.324219 Z M 35.246094 39.324219 "/>
<path style=" stroke:none;fill-rule:evenodd;fill:rgb(63.529412%,62.745098%,60.784314%);fill-opacity:1;" d="M 41.484375 39.753906 C 41.390625 39.742188 41.3125 39.757812 41.242188 39.804688 C 40.96875 39.777344 40.695312 39.738281 40.425781 39.683594 C 40.789062 39.648438 41.140625 39.675781 41.484375 39.753906 Z M 41.484375 39.753906 "/>
<path style=" stroke:none;fill-rule:evenodd;fill:rgb(83.921569%,82.745098%,80%);fill-opacity:1;" d="M 41.242188 39.804688 C 41.3125 39.757812 41.390625 39.742188 41.484375 39.753906 C 41.914062 39.777344 42.347656 39.804688 42.777344 39.828125 C 42.265625 39.859375 41.753906 39.851562 41.242188 39.804688 Z M 41.242188 39.804688 "/>
</g>
</svg>
