<?xml version="1.0" encoding="UTF-8"?>
<svg xmlns="http://www.w3.org/2000/svg" xmlns:xlink="http://www.w3.org/1999/xlink" width="50pt" height="50pt" viewBox="0 0 50 50" version="1.1">
<defs>
<filter id="alpha" filterUnits="objectBoundingBox" x="0%" y="0%" width="100%" height="100%">
  <feColorMatrix type="matrix" in="SourceGraphic" values="0 0 0 0 1 0 0 0 0 1 0 0 0 0 1 0 0 0 1 0"/>
</filter>
<mask id="mask0">
  <g filter="url(#alpha)">
<rect x="0" y="0" width="50" height="50" style="fill:rgb(0%,0%,0%);fill-opacity:0.992157;stroke:none;"/>
  </g>
</mask>
<clipPath id="clip1">
  <rect width="50" height="50"/>
</clipPath>
<g id="surface6" clip-path="url(#clip1)">
<path style=" stroke:none;fill-rule:evenodd;fill:rgb(0.392157%,0.392157%,0.392157%);fill-opacity:1;" d="M 41.921875 2.246094 C 41.894531 2.425781 41.890625 2.609375 41.910156 2.796875 C 42.074219 4.03125 42.152344 5.269531 42.140625 6.515625 C 42.136719 7.5 42.117188 8.484375 42.078125 9.46875 C 41.992188 11.300781 41.90625 13.132812 41.816406 14.964844 C 41.769531 16.0625 41.738281 17.160156 41.71875 18.253906 C 41.675781 23.113281 41.714844 27.96875 41.839844 32.824219 C 41.953125 36.273438 42.1875 39.714844 42.535156 43.148438 C 42.628906 44.113281 42.773438 45.074219 42.96875 46.027344 C 43 46.296875 42.972656 46.5625 42.894531 46.820312 C 42.710938 47.09375 42.449219 47.242188 42.113281 47.261719 C 41.785156 47.261719 41.457031 47.261719 41.128906 47.261719 C 40.484375 47.375 39.835938 47.398438 39.1875 47.335938 C 38.832031 47.292969 38.480469 47.238281 38.128906 47.179688 C 37.796875 47.121094 37.46875 47.046875 37.144531 46.953125 C 36.097656 46.621094 35.046875 46.285156 34 45.941406 C 32.796875 45.492188 31.675781 44.890625 30.640625 44.144531 C 30.070312 43.90625 29.558594 43.585938 29.105469 43.183594 C 28.546875 42.570312 27.941406 42.019531 27.28125 41.527344 C 27.1875 41.4375 27.097656 41.34375 27.015625 41.25 C 26.882812 41.019531 26.683594 40.878906 26.429688 40.820312 C 26.367188 40.820312 26.304688 40.832031 26.25 40.855469 C 25.933594 41.03125 25.613281 41.199219 25.289062 41.359375 C 21.917969 42.742188 18.554688 44.148438 15.207031 45.582031 C 15.074219 45.644531 14.945312 45.714844 14.824219 45.789062 C 14.488281 45.972656 14.132812 46.074219 13.753906 46.097656 C 13.417969 46.101562 13.152344 45.96875 12.960938 45.691406 C 11.722656 43.410156 10.578125 41.082031 9.53125 38.707031 C 8.96875 37.5 8.550781 36.25 8.269531 34.949219 C 8.472656 34.230469 8.683594 33.515625 8.90625 32.800781 C 8.898438 32.675781 8.929688 32.566406 9 32.464844 C 9.023438 32.339844 9.035156 32.210938 9.039062 32.082031 C 9.003906 31.375 8.957031 30.671875 8.90625 29.96875 C 8.769531 28.960938 8.648438 27.953125 8.546875 26.945312 C 8.484375 25.726562 8.507812 24.511719 8.617188 23.296875 C 8.75 21.933594 8.886719 20.574219 9.027344 19.214844 C 9.273438 16.386719 9.375 13.554688 9.335938 10.71875 C 9.386719 10.046875 9.441406 9.371094 9.503906 8.703125 C 9.542969 7.773438 9.578125 6.84375 9.601562 5.917969 C 9.628906 4.945312 9.824219 4.011719 10.175781 3.109375 C 10.265625 2.789062 10.46875 2.667969 10.789062 2.738281 C 11.128906 2.933594 11.464844 3.140625 11.796875 3.347656 C 13.839844 4.621094 15.898438 5.878906 17.96875 7.117188 C 20.671875 6.359375 23.375 5.605469 26.082031 4.847656 C 26.292969 4.785156 26.507812 4.757812 26.726562 4.765625 C 27.167969 4.792969 27.609375 4.824219 28.046875 4.859375 C 29.5625 4.988281 31.074219 5.117188 32.585938 5.246094 C 32.613281 5.265625 32.644531 5.277344 32.679688 5.28125 C 33.089844 5.332031 33.496094 5.355469 33.90625 5.351562 C 34.585938 4.988281 35.25 4.601562 35.898438 4.1875 C 37.8125 3.050781 39.734375 1.917969 41.660156 0.792969 C 42.070312 0.769531 42.25 0.96875 42.199219 1.378906 C 42.136719 1.484375 42.0625 1.578125 41.984375 1.667969 C 41.945312 1.859375 41.925781 2.050781 41.921875 2.246094 Z M 41.921875 2.246094 "/>
</g>
<mask id="mask1">
  <g filter="url(#alpha)">
<rect x="0" y="0" width="50" height="50" style="fill:rgb(0%,0%,0%);fill-opacity:0.988235;stroke:none;"/>
  </g>
</mask>
<clipPath id="clip2">
  <rect width="50" height="50"/>
</clipPath>
<g id="surface9" clip-path="url(#clip2)">
<path style=" stroke:none;fill-rule:evenodd;fill:rgb(66.27451%,22.745098%,17.647059%);fill-opacity:1;" d="M 38.128906 47.179688 C 38.480469 47.238281 38.832031 47.292969 39.1875 47.335938 C 39.835938 47.398438 40.484375 47.375 41.128906 47.261719 C 41.457031 47.261719 41.785156 47.261719 42.113281 47.261719 C 42.449219 47.242188 42.710938 47.09375 42.894531 46.820312 C 42.972656 46.5625 43 46.296875 42.96875 46.027344 C 42.773438 45.074219 42.628906 44.113281 42.535156 43.148438 C 42.1875 39.714844 41.953125 36.273438 41.839844 32.824219 C 41.714844 27.96875 41.675781 23.113281 41.71875 18.253906 C 41.738281 17.160156 41.769531 16.0625 41.816406 14.964844 C 41.90625 13.132812 41.992188 11.300781 42.078125 9.46875 C 42.117188 8.484375 42.136719 7.5 42.140625 6.515625 C 42.152344 5.269531 42.074219 4.03125 41.910156 2.796875 C 41.890625 2.609375 41.894531 2.425781 41.921875 2.246094 C 42.191406 2.160156 42.460938 2.070312 42.726562 1.980469 C 42.726562 6.792969 42.820312 11.601562 43.015625 16.40625 C 43.039062 17.199219 43.050781 17.992188 43.050781 18.78125 C 43.015625 21.421875 42.964844 24.0625 42.894531 26.703125 C 42.871094 29.890625 42.964844 33.078125 43.183594 36.257812 C 43.402344 39.605469 43.640625 42.949219 43.902344 46.292969 C 43.953125 46.960938 43.976562 47.636719 43.976562 48.308594 C 43.96875 48.394531 43.957031 48.484375 43.949219 48.570312 C 43.945312 48.628906 43.921875 48.679688 43.890625 48.726562 C 41.882812 48.535156 39.960938 48.015625 38.128906 47.179688 Z M 38.128906 47.179688 "/>
</g>
<mask id="mask2">
  <g filter="url(#alpha)">
<rect x="0" y="0" width="50" height="50" style="fill:rgb(0%,0%,0%);fill-opacity:0.980392;stroke:none;"/>
  </g>
</mask>
<clipPath id="clip3">
  <rect width="50" height="50"/>
</clipPath>
<g id="surface12" clip-path="url(#clip3)">
<path style=" stroke:none;fill-rule:evenodd;fill:rgb(66.27451%,22.745098%,17.647059%);fill-opacity:1;" d="M 28.046875 4.859375 C 27.609375 4.824219 27.167969 4.792969 26.726562 4.765625 C 26.507812 4.757812 26.292969 4.785156 26.082031 4.847656 C 23.375 5.605469 20.671875 6.359375 17.96875 7.117188 C 15.898438 5.878906 13.839844 4.621094 11.796875 3.347656 C 11.804688 2.980469 11.820312 2.613281 11.847656 2.246094 C 13.636719 3.574219 15.429688 4.902344 17.222656 6.230469 C 19.847656 5.652344 22.46875 5.082031 25.097656 4.511719 C 26.085938 4.601562 27.070312 4.71875 28.046875 4.859375 Z M 28.046875 4.859375 "/>
</g>
<mask id="mask3">
  <g filter="url(#alpha)">
<rect x="0" y="0" width="50" height="50" style="fill:rgb(0%,0%,0%);fill-opacity:0.956863;stroke:none;"/>
  </g>
</mask>
<clipPath id="clip4">
  <rect width="50" height="50"/>
</clipPath>
<g id="surface15" clip-path="url(#clip4)">
<path style=" stroke:none;fill-rule:evenodd;fill:rgb(65.098039%,22.352941%,17.647059%);fill-opacity:1;" d="M 35.898438 4.1875 C 35.25 4.601562 34.585938 4.988281 33.90625 5.351562 C 33.496094 5.355469 33.089844 5.332031 32.679688 5.28125 C 32.644531 5.277344 32.613281 5.265625 32.585938 5.246094 C 33.691406 4.898438 34.796875 4.546875 35.898438 4.1875 Z M 35.898438 4.1875 "/>
</g>
<mask id="mask4">
  <g filter="url(#alpha)">
<rect x="0" y="0" width="50" height="50" style="fill:rgb(0%,0%,0%);fill-opacity:0.988235;stroke:none;"/>
  </g>
</mask>
<clipPath id="clip5">
  <rect width="50" height="50"/>
</clipPath>
<g id="surface18" clip-path="url(#clip5)">
<path style=" stroke:none;fill-rule:evenodd;fill:rgb(66.27451%,22.745098%,17.647059%);fill-opacity:1;" d="M 27.015625 41.25 C 23.226562 43.3125 19.4375 45.375 15.652344 47.445312 C 15.375 46.890625 15.097656 46.339844 14.824219 45.789062 C 14.945312 45.714844 15.074219 45.644531 15.207031 45.582031 C 18.554688 44.148438 21.917969 42.742188 25.289062 41.359375 C 25.613281 41.199219 25.933594 41.03125 26.25 40.855469 C 26.304688 40.832031 26.367188 40.820312 26.429688 40.820312 C 26.683594 40.878906 26.882812 41.019531 27.015625 41.25 Z M 27.015625 41.25 "/>
</g>
</defs>
<g id="surface1">
<use xlink:href="#surface6" mask="url(#mask0)"/>
<use xlink:href="#surface9" mask="url(#mask1)"/>
<path style=" stroke:none;fill-rule:evenodd;fill:rgb(99.607843%,99.607843%,99.607843%);fill-opacity:1;" d="M 41.15625 17.292969 C 41.132812 17.355469 41.125 17.417969 41.128906 17.488281 C 41.054688 17.480469 40.984375 17.492188 40.914062 17.523438 C 40.492188 17.746094 40.089844 18 39.703125 18.277344 C 39.691406 18.265625 39.6875 18.25 39.691406 18.230469 C 39.929688 17.449219 40.132812 16.65625 40.300781 15.855469 C 40.453125 15.175781 40.339844 14.542969 39.964844 13.957031 C 39.757812 13.695312 39.59375 13.40625 39.472656 13.09375 C 39.5 12.929688 39.460938 12.785156 39.355469 12.660156 C 39.304688 12.324219 39.21875 11.996094 39.101562 11.679688 C 38.964844 11.386719 38.75 11.167969 38.464844 11.019531 C 37.933594 10.714844 37.363281 10.617188 36.761719 10.730469 C 36.507812 10.832031 36.304688 10.996094 36.148438 11.222656 C 35.960938 11.589844 35.730469 11.929688 35.464844 12.242188 C 35.277344 12.398438 35.0625 12.492188 34.816406 12.519531 C 34.777344 12.519531 34.738281 12.519531 34.699219 12.519531 C 34.664062 11.8125 34.605469 11.109375 34.515625 10.40625 C 34.410156 9.679688 34.304688 8.949219 34.207031 8.222656 C 34.1875 7.996094 34.1875 7.773438 34.207031 7.550781 C 34.253906 7.332031 34.320312 7.125 34.410156 6.925781 C 34.359375 6.714844 34.230469 6.648438 34.027344 6.722656 C 33.871094 6.914062 33.769531 7.132812 33.726562 7.382812 C 33.675781 7.75 33.675781 8.117188 33.726562 8.484375 C 33.929688 9.777344 34.085938 11.070312 34.195312 12.375 C 34.191406 12.417969 34.175781 12.449219 34.144531 12.46875 C 33.550781 12.316406 32.960938 12.152344 32.371094 11.976562 C 31.488281 11.671875 30.605469 11.359375 29.730469 11.042969 C 29.304688 10.90625 28.875 10.8125 28.433594 10.753906 C 28.039062 10.714844 27.664062 10.773438 27.304688 10.933594 C 27.328125 10.40625 27.332031 9.878906 27.316406 9.347656 C 27.230469 8.625 27.167969 7.894531 27.125 7.164062 C 27 6.703125 26.878906 6.238281 26.765625 5.773438 C 26.671875 5.636719 26.554688 5.617188 26.417969 5.714844 C 26.347656 5.765625 26.316406 5.832031 26.320312 5.917969 C 26.375 6.230469 26.457031 6.53125 26.570312 6.828125 C 26.605469 6.941406 26.628906 7.050781 26.644531 7.164062 C 26.683594 7.773438 26.742188 8.382812 26.8125 8.988281 C 26.84375 9.75 26.859375 10.507812 26.847656 11.269531 C 26.632812 11.511719 26.460938 11.785156 26.332031 12.085938 C 26.164062 12.5 26.003906 12.914062 25.851562 13.335938 C 25.660156 13.917969 25.296875 14.351562 24.761719 14.640625 C 24.207031 14.925781 23.644531 15.199219 23.078125 15.457031 C 22.628906 15.636719 22.179688 15.820312 21.734375 16.011719 C 21.113281 16.214844 20.472656 16.308594 19.816406 16.296875 C 19.605469 16.316406 19.398438 16.316406 19.191406 16.296875 C 18.824219 16.21875 18.496094 16.0625 18.207031 15.832031 C 18.273438 13.796875 18.292969 11.765625 18.265625 9.734375 C 18.246094 9.425781 18.226562 9.117188 18.207031 8.808594 C 18.207031 8.597656 18.222656 8.382812 18.253906 8.171875 C 18.25 8.042969 18.1875 7.960938 18.0625 7.933594 C 20.894531 7.148438 23.726562 6.367188 26.558594 5.59375 C 28.921875 5.777344 31.28125 5.984375 33.640625 6.21875 C 33.914062 6.261719 34.167969 6.222656 34.410156 6.097656 C 36.699219 4.71875 38.996094 3.355469 41.296875 2.003906 C 41.359375 3.070312 41.433594 4.132812 41.527344 5.195312 C 41.542969 6.550781 41.535156 7.902344 41.503906 9.253906 C 41.351562 11.933594 41.238281 14.613281 41.15625 17.292969 Z M 41.15625 17.292969 "/>
<use xlink:href="#surface12" mask="url(#mask2)"/>
<path style=" stroke:none;fill-rule:evenodd;fill:rgb(99.607843%,99.607843%,99.607843%);fill-opacity:1;" d="M 17.96875 7.957031 C 17.933594 7.992188 17.90625 8.035156 17.882812 8.078125 C 17.859375 8.308594 17.847656 8.539062 17.847656 8.773438 C 17.878906 9.289062 17.894531 9.804688 17.894531 10.320312 C 17.878906 11.382812 17.867188 12.441406 17.859375 13.503906 C 17.855469 14.171875 17.824219 14.835938 17.773438 15.496094 C 17.007812 14.898438 16.289062 14.246094 15.613281 13.539062 C 15.363281 13.300781 15.074219 13.125 14.75 13.011719 C 14.464844 12.960938 14.222656 13.039062 14.019531 13.238281 C 13.953125 13.324219 13.910156 13.421875 13.886719 13.527344 C 13.765625 13.453125 13.65625 13.46875 13.5625 13.574219 C 13.25 14.023438 12.960938 14.484375 12.699219 14.964844 C 12.503906 15.441406 12.410156 15.9375 12.410156 16.453125 C 12.339844 17.714844 12.460938 18.953125 12.769531 20.175781 C 12.933594 20.714844 13.082031 21.261719 13.214844 21.808594 C 12.296875 21.234375 11.386719 20.652344 10.476562 20.066406 C 10.238281 19.902344 10.015625 19.722656 9.804688 19.527344 C 10.066406 16.484375 10.179688 13.4375 10.152344 10.382812 C 10.171875 9.980469 10.210938 9.578125 10.273438 9.179688 C 10.320312 8.140625 10.351562 7.101562 10.371094 6.0625 C 10.398438 5.261719 10.542969 4.488281 10.800781 3.734375 C 13.046875 5.066406 15.285156 6.429688 17.511719 7.824219 C 17.648438 7.925781 17.800781 7.96875 17.96875 7.957031 Z M 17.96875 7.957031 "/>
<use xlink:href="#surface15" mask="url(#mask3)"/>
<path style=" stroke:none;fill-rule:evenodd;fill:rgb(63.137255%,57.647059%,59.215686%);fill-opacity:1;" d="M 27.304688 10.933594 C 27.140625 11.027344 26.988281 11.140625 26.847656 11.269531 C 26.859375 10.507812 26.84375 9.75 26.8125 8.988281 C 26.742188 8.382812 26.683594 7.773438 26.644531 7.164062 C 26.628906 7.050781 26.605469 6.941406 26.570312 6.828125 C 26.457031 6.53125 26.375 6.230469 26.320312 5.917969 C 26.316406 5.832031 26.347656 5.765625 26.417969 5.714844 C 26.554688 5.617188 26.671875 5.636719 26.765625 5.773438 C 26.878906 6.238281 27 6.703125 27.125 7.164062 C 27.167969 7.894531 27.230469 8.625 27.316406 9.347656 C 27.332031 9.878906 27.328125 10.40625 27.304688 10.933594 Z M 27.304688 10.933594 "/>
<path style=" stroke:none;fill-rule:evenodd;fill:rgb(63.137255%,57.254902%,59.215686%);fill-opacity:1;" d="M 34.816406 12.519531 C 34.589844 12.554688 34.367188 12.539062 34.144531 12.46875 C 34.175781 12.449219 34.191406 12.417969 34.195312 12.375 C 34.085938 11.070312 33.929688 9.777344 33.726562 8.484375 C 33.675781 8.117188 33.675781 7.75 33.726562 7.382812 C 33.769531 7.132812 33.871094 6.914062 34.027344 6.722656 C 34.230469 6.648438 34.359375 6.714844 34.410156 6.925781 C 34.320312 7.125 34.253906 7.332031 34.207031 7.550781 C 34.1875 7.773438 34.1875 7.996094 34.207031 8.222656 C 34.304688 8.949219 34.410156 9.679688 34.515625 10.40625 C 34.605469 11.109375 34.664062 11.8125 34.699219 12.519531 C 34.738281 12.519531 34.777344 12.519531 34.816406 12.519531 Z M 34.816406 12.519531 "/>
<path style=" stroke:none;fill-rule:evenodd;fill:rgb(63.529412%,57.647059%,59.607843%);fill-opacity:1;" d="M 18.0625 7.933594 C 18.1875 7.960938 18.25 8.042969 18.253906 8.171875 C 18.222656 8.382812 18.207031 8.597656 18.207031 8.808594 C 18.226562 9.117188 18.246094 9.425781 18.265625 9.734375 C 18.292969 11.765625 18.273438 13.796875 18.207031 15.832031 C 18.0625 15.71875 17.917969 15.605469 17.773438 15.496094 C 17.824219 14.835938 17.855469 14.171875 17.859375 13.503906 C 17.867188 12.441406 17.878906 11.382812 17.894531 10.320312 C 17.894531 9.804688 17.878906 9.289062 17.847656 8.773438 C 17.847656 8.539062 17.859375 8.308594 17.882812 8.078125 C 17.90625 8.035156 17.933594 7.992188 17.96875 7.957031 C 17.992188 7.933594 18.023438 7.925781 18.0625 7.933594 Z M 18.0625 7.933594 "/>
<path style=" stroke:none;fill-rule:evenodd;fill:rgb(66.666667%,23.529412%,18.431373%);fill-opacity:1;" d="M 12.46875 9.230469 C 12.621094 9.210938 12.738281 9.269531 12.816406 9.398438 C 12.828125 9.964844 12.902344 10.527344 13.035156 11.078125 C 13.09375 11.285156 13.175781 11.484375 13.273438 11.679688 C 13.390625 11.863281 13.519531 12.039062 13.65625 12.207031 C 13.679688 12.457031 13.5625 12.574219 13.308594 12.554688 C 13.132812 12.472656 12.984375 12.359375 12.867188 12.207031 C 12.683594 11.929688 12.546875 11.636719 12.457031 11.316406 C 12.269531 10.699219 12.199219 10.066406 12.242188 9.421875 C 12.292969 9.324219 12.371094 9.261719 12.46875 9.230469 Z M 12.46875 9.230469 "/>
<path style=" stroke:none;fill-rule:evenodd;fill:rgb(1.176471%,1.176471%,1.176471%);fill-opacity:1;" d="M 39.355469 12.660156 C 39.207031 12.539062 39.039062 12.496094 38.851562 12.542969 C 38.816406 12.117188 38.640625 11.769531 38.320312 11.496094 C 37.9375 11.269531 37.519531 11.15625 37.074219 11.160156 C 36.855469 11.214844 36.671875 11.328125 36.535156 11.511719 C 36.359375 11.78125 36.183594 12.054688 36.003906 12.324219 C 35.699219 12.761719 35.277344 12.984375 34.746094 13 C 34.566406 13.003906 34.390625 12.988281 34.21875 12.949219 C 33.625 12.785156 33.035156 12.613281 32.441406 12.433594 C 31.585938 12.136719 30.730469 11.84375 29.871094 11.546875 C 29.375 11.390625 28.871094 11.273438 28.359375 11.1875 C 27.980469 11.125 27.636719 11.210938 27.328125 11.4375 C 27.140625 11.585938 26.988281 11.761719 26.871094 11.964844 C 26.769531 12.144531 26.675781 12.328125 26.597656 12.519531 C 26.414062 13.085938 26.183594 13.628906 25.898438 14.148438 C 25.644531 14.550781 25.296875 14.84375 24.855469 15.027344 C 23.78125 15.542969 22.683594 16.007812 21.566406 16.417969 C 21.082031 16.566406 20.585938 16.636719 20.078125 16.632812 C 19.734375 16.652344 19.390625 16.652344 19.046875 16.632812 C 18.730469 16.570312 18.433594 16.457031 18.160156 16.285156 C 18.03125 16.1875 17.894531 16.101562 17.75 16.023438 C 16.824219 15.328125 15.941406 14.574219 15.109375 13.753906 C 14.988281 13.664062 14.851562 13.613281 14.703125 13.609375 C 14.605469 13.675781 14.519531 13.746094 14.4375 13.828125 C 14.25 13.902344 14.09375 13.859375 13.96875 13.695312 C 13.804688 13.988281 13.621094 14.265625 13.417969 14.535156 C 12.996094 15.171875 12.800781 15.875 12.84375 16.648438 C 12.800781 17.558594 12.863281 18.464844 13.035156 19.359375 C 13.222656 20.089844 13.421875 20.816406 13.632812 21.542969 C 13.671875 21.753906 13.71875 21.960938 13.765625 22.167969 C 13.8125 22.429688 13.820312 22.695312 13.789062 22.960938 C 13.75 23.339844 13.625 23.691406 13.417969 24.015625 C 13.074219 24.453125 12.714844 24.878906 12.339844 25.289062 C 11.820312 25.996094 11.609375 26.785156 11.714844 27.664062 C 11.792969 28.320312 12.007812 28.929688 12.363281 29.488281 C 13.179688 30.722656 13.996094 31.953125 14.808594 33.183594 C 15.097656 33.714844 15.386719 34.242188 15.675781 34.769531 C 15.84375 35.019531 16.039062 35.242188 16.261719 35.441406 C 16.390625 35.585938 16.550781 35.683594 16.742188 35.730469 C 16.875 35.757812 17.011719 35.761719 17.152344 35.742188 C 17.496094 35.597656 17.839844 35.445312 18.183594 35.285156 C 18.457031 35.199219 18.730469 35.207031 19 35.308594 C 19.054688 35.351562 19.109375 35.390625 19.167969 35.429688 C 19.347656 35.652344 19.519531 35.878906 19.683594 36.113281 C 19.863281 36.339844 20.082031 36.511719 20.34375 36.628906 C 20.652344 36.71875 20.957031 36.703125 21.253906 36.582031 C 21.640625 36.351562 22.023438 36.117188 22.40625 35.886719 C 23.324219 35.378906 24.300781 35.195312 25.335938 35.332031 C 25.691406 35.4375 26.039062 35.570312 26.367188 35.742188 C 26.472656 35.773438 26.574219 35.800781 26.679688 35.824219 C 26.832031 35.867188 26.984375 35.910156 27.136719 35.945312 C 27.546875 36.042969 27.949219 36.175781 28.335938 36.34375 C 28.683594 36.460938 29.035156 36.558594 29.394531 36.628906 C 29.914062 36.707031 30.402344 36.609375 30.855469 36.34375 C 31.191406 36.117188 31.527344 35.894531 31.863281 35.667969 C 32.296875 35.371094 32.777344 35.207031 33.304688 35.175781 C 33.519531 35.1875 33.726562 35.226562 33.929688 35.296875 C 34.082031 35.363281 34.226562 35.449219 34.363281 35.550781 C 34.628906 35.777344 34.894531 36.007812 35.152344 36.246094 C 35.335938 36.390625 35.535156 36.5 35.753906 36.582031 C 35.964844 36.625 36.15625 36.585938 36.328125 36.460938 C 36.464844 36.34375 36.578125 36.210938 36.679688 36.066406 C 37.113281 35.359375 37.410156 34.601562 37.566406 33.785156 C 37.613281 33.378906 37.613281 32.96875 37.566406 32.5625 C 37.519531 32.363281 37.457031 32.171875 37.375 31.984375 C 37.035156 31.40625 36.753906 30.796875 36.535156 30.160156 C 36.210938 29.183594 36.269531 28.234375 36.703125 27.304688 C 36.808594 27.085938 36.917969 26.867188 37.039062 26.65625 C 37.5 25.871094 37.964844 25.089844 38.429688 24.304688 C 38.710938 23.8125 38.878906 23.28125 38.933594 22.71875 C 38.949219 22.039062 38.945312 21.359375 38.921875 20.679688 C 38.90625 20.140625 38.929688 19.605469 38.996094 19.070312 C 39.046875 18.78125 39.105469 18.492188 39.175781 18.207031 C 39.429688 17.386719 39.644531 16.554688 39.824219 15.710938 C 39.929688 15.210938 39.855469 14.738281 39.605469 14.292969 C 39.484375 14.105469 39.363281 13.921875 39.234375 13.742188 C 39.296875 13.515625 39.375 13.300781 39.472656 13.09375 C 39.59375 13.40625 39.757812 13.695312 39.964844 13.957031 C 40.339844 14.542969 40.453125 15.175781 40.300781 15.855469 C 40.132812 16.65625 39.929688 17.449219 39.691406 18.230469 C 39.554688 18.664062 39.476562 19.113281 39.449219 19.574219 C 39.414062 19.921875 39.398438 20.269531 39.402344 20.621094 C 39.445312 21.410156 39.433594 22.195312 39.367188 22.984375 C 39.28125 23.617188 39.074219 24.210938 38.742188 24.761719 C 38.351562 25.429688 37.953125 26.09375 37.542969 26.753906 C 37.183594 27.3125 36.941406 27.921875 36.820312 28.578125 C 36.785156 29 36.824219 29.417969 36.941406 29.824219 C 37.015625 30.070312 37.105469 30.308594 37.207031 30.542969 C 37.441406 31.035156 37.679688 31.523438 37.925781 32.007812 C 38.0625 32.386719 38.125 32.78125 38.105469 33.183594 C 38.101562 33.820312 37.988281 34.4375 37.757812 35.035156 C 37.550781 35.542969 37.296875 36.023438 36.988281 36.472656 C 36.515625 37.109375 35.925781 37.238281 35.226562 36.871094 C 34.863281 36.617188 34.527344 36.328125 34.21875 36.003906 C 34.125 35.9375 34.027344 35.878906 33.929688 35.824219 C 33.742188 35.703125 33.535156 35.640625 33.304688 35.632812 C 33.035156 35.632812 32.777344 35.691406 32.539062 35.8125 C 32.089844 36.0625 31.65625 36.332031 31.242188 36.628906 C 30.5 37.058594 29.71875 37.171875 28.886719 36.964844 C 28.425781 36.828125 27.96875 36.667969 27.519531 36.484375 C 27.410156 36.449219 27.296875 36.421875 27.183594 36.402344 C 27.019531 36.359375 26.851562 36.320312 26.679688 36.28125 C 26.195312 36.09375 25.707031 35.90625 25.214844 35.71875 C 23.972656 35.59375 22.859375 35.914062 21.878906 36.679688 C 21.039062 37.257812 20.25 37.199219 19.515625 36.496094 C 19.347656 36.265625 19.179688 36.035156 19.011719 35.800781 C 18.785156 35.566406 18.523438 35.523438 18.230469 35.667969 C 17.992188 35.789062 17.75 35.910156 17.511719 36.03125 C 17.378906 36.082031 17.242188 36.117188 17.101562 36.136719 C 16.792969 36.179688 16.503906 36.125 16.238281 35.96875 C 15.863281 35.71875 15.554688 35.398438 15.3125 35.007812 C 15.042969 34.511719 14.769531 34.015625 14.5 33.519531 C 14.136719 33 13.777344 32.480469 13.417969 31.960938 C 12.925781 31.167969 12.421875 30.386719 11.90625 29.609375 C 11.203125 28.425781 11.058594 27.175781 11.472656 25.863281 C 11.699219 25.367188 11.992188 24.917969 12.363281 24.519531 C 12.652344 24.242188 12.910156 23.9375 13.128906 23.609375 C 13.316406 23.296875 13.390625 22.960938 13.359375 22.601562 C 13.347656 22.328125 13.300781 22.0625 13.214844 21.808594 C 13.082031 21.261719 12.933594 20.714844 12.769531 20.175781 C 12.460938 18.953125 12.339844 17.714844 12.410156 16.453125 C 12.410156 15.9375 12.503906 15.441406 12.699219 14.964844 C 12.960938 14.484375 13.25 14.023438 13.5625 13.574219 C 13.65625 13.46875 13.765625 13.453125 13.886719 13.527344 C 13.910156 13.421875 13.953125 13.324219 14.019531 13.238281 C 14.222656 13.039062 14.464844 12.960938 14.75 13.011719 C 15.074219 13.125 15.363281 13.300781 15.613281 13.539062 C 16.289062 14.246094 17.007812 14.898438 17.773438 15.496094 C 17.917969 15.605469 18.0625 15.71875 18.207031 15.832031 C 18.496094 16.0625 18.824219 16.21875 19.191406 16.296875 C 19.398438 16.316406 19.605469 16.316406 19.816406 16.296875 C 20.472656 16.308594 21.113281 16.214844 21.734375 16.011719 C 22.179688 15.820312 22.628906 15.636719 23.078125 15.457031 C 23.644531 15.199219 24.207031 14.925781 24.761719 14.640625 C 25.296875 14.351562 25.660156 13.917969 25.851562 13.335938 C 26.003906 12.914062 26.164062 12.5 26.332031 12.085938 C 26.460938 11.785156 26.632812 11.511719 26.847656 11.269531 C 26.988281 11.140625 27.140625 11.027344 27.304688 10.933594 C 27.664062 10.773438 28.039062 10.714844 28.433594 10.753906 C 28.875 10.8125 29.304688 10.90625 29.730469 11.042969 C 30.605469 11.359375 31.488281 11.671875 32.371094 11.976562 C 32.960938 12.152344 33.550781 12.316406 34.144531 12.46875 C 34.367188 12.539062 34.589844 12.554688 34.816406 12.519531 C 35.0625 12.492188 35.277344 12.398438 35.464844 12.242188 C 35.730469 11.929688 35.960938 11.589844 36.148438 11.222656 C 36.304688 10.996094 36.507812 10.832031 36.761719 10.730469 C 37.363281 10.617188 37.933594 10.714844 38.464844 11.019531 C 38.75 11.167969 38.964844 11.386719 39.101562 11.679688 C 39.21875 11.996094 39.304688 12.324219 39.355469 12.660156 Z M 39.355469 12.660156 "/>
<path style=" stroke:none;fill-rule:evenodd;fill:rgb(99.607843%,99.607843%,99.607843%);fill-opacity:1;" d="M 34.21875 12.949219 C 34.347656 15.8125 34.265625 18.667969 33.964844 21.519531 C 33.917969 22.152344 33.878906 22.785156 33.84375 23.414062 C 33.695312 23.570312 33.523438 23.695312 33.328125 23.789062 C 33.257812 23.804688 33.183594 23.804688 33.113281 23.789062 C 32.863281 23.628906 32.609375 23.476562 32.34375 23.332031 C 32 23.242188 31.660156 23.121094 31.335938 22.972656 C 31.097656 22.761719 30.855469 22.554688 30.617188 22.347656 C 29.925781 22.023438 29.246094 21.679688 28.578125 21.316406 C 28.417969 21.203125 28.257812 21.089844 28.097656 20.980469 C 27.84375 20.734375 27.582031 20.5 27.316406 20.269531 C 27.441406 18.226562 27.5 16.175781 27.496094 14.125 C 27.492188 13.703125 27.488281 13.277344 27.484375 12.855469 C 27.433594 12.382812 27.378906 11.910156 27.328125 11.4375 C 27.636719 11.210938 27.980469 11.125 28.359375 11.1875 C 28.871094 11.273438 29.375 11.390625 29.871094 11.546875 C 30.730469 11.84375 31.585938 12.136719 32.441406 12.433594 C 33.035156 12.613281 33.625 12.785156 34.21875 12.949219 Z M 34.21875 12.949219 "/>
<path style=" stroke:none;fill-rule:evenodd;fill:rgb(99.607843%,99.607843%,99.607843%);fill-opacity:1;" d="M 38.851562 12.542969 C 38.746094 12.601562 38.664062 12.679688 38.597656 12.78125 C 38.316406 13.441406 38.195312 14.128906 38.238281 14.847656 C 38.347656 15.125 38.542969 15.214844 38.828125 15.121094 C 38.96875 15.058594 39.0625 14.949219 39.101562 14.796875 C 39.089844 14.4375 39.132812 14.085938 39.234375 13.742188 C 39.363281 13.921875 39.484375 14.105469 39.605469 14.292969 C 39.855469 14.738281 39.929688 15.210938 39.824219 15.710938 C 39.644531 16.554688 39.429688 17.386719 39.175781 18.207031 C 39.105469 18.492188 39.046875 18.78125 38.996094 19.070312 C 38.914062 19.144531 38.847656 19.234375 38.800781 19.335938 C 38.804688 19.183594 38.800781 19.03125 38.789062 18.878906 C 38.609375 18.566406 38.355469 18.488281 38.035156 18.652344 C 37.949219 18.714844 37.886719 18.800781 37.855469 18.902344 C 37.871094 19.171875 37.824219 19.429688 37.710938 19.671875 C 37.5 20.070312 37.28125 20.464844 37.050781 20.847656 C 36.199219 21.359375 35.382812 21.921875 34.601562 22.539062 C 34.566406 22.597656 34.523438 22.652344 34.46875 22.695312 C 34.464844 22.429688 34.472656 22.167969 34.492188 21.902344 C 34.621094 20.65625 34.71875 19.410156 34.78125 18.160156 C 34.804688 16.4375 34.792969 14.71875 34.746094 13 C 35.277344 12.984375 35.699219 12.761719 36.003906 12.324219 C 36.183594 12.054688 36.359375 11.78125 36.535156 11.511719 C 36.671875 11.328125 36.855469 11.214844 37.074219 11.160156 C 37.519531 11.15625 37.9375 11.269531 38.320312 11.496094 C 38.640625 11.769531 38.816406 12.117188 38.851562 12.542969 Z M 38.851562 12.542969 "/>
<path style=" stroke:none;fill-rule:evenodd;fill:rgb(63.137255%,57.254902%,59.215686%);fill-opacity:1;" d="M 27.328125 11.4375 C 27.378906 11.910156 27.433594 12.382812 27.484375 12.855469 C 27.488281 13.277344 27.492188 13.703125 27.496094 14.125 C 27.5 16.175781 27.441406 18.226562 27.316406 20.269531 C 27.582031 20.5 27.84375 20.734375 28.097656 20.980469 C 28.257812 21.089844 28.417969 21.203125 28.578125 21.316406 C 29.246094 21.679688 29.925781 22.023438 30.617188 22.347656 C 30.855469 22.554688 31.097656 22.761719 31.335938 22.972656 C 31.660156 23.121094 32 23.242188 32.34375 23.332031 C 32.609375 23.476562 32.863281 23.628906 33.113281 23.789062 C 33.183594 23.804688 33.257812 23.804688 33.328125 23.789062 C 33.523438 23.695312 33.695312 23.570312 33.84375 23.414062 C 33.878906 22.785156 33.917969 22.152344 33.964844 21.519531 C 34.265625 18.667969 34.347656 15.8125 34.21875 12.949219 C 34.390625 12.988281 34.566406 13.003906 34.746094 13 C 34.792969 14.71875 34.804688 16.4375 34.78125 18.160156 C 34.71875 19.410156 34.621094 20.65625 34.492188 21.902344 C 34.472656 22.167969 34.464844 22.429688 34.46875 22.695312 C 34.523438 22.652344 34.566406 22.597656 34.601562 22.539062 C 35.382812 21.921875 36.199219 21.359375 37.050781 20.847656 C 36.917969 21.121094 36.964844 21.351562 37.195312 21.542969 C 36.570312 21.929688 35.960938 22.34375 35.371094 22.78125 C 35.027344 23.097656 34.710938 23.4375 34.421875 23.800781 C 34.371094 24.664062 34.335938 25.527344 34.3125 26.390625 C 34.257812 26.476562 34.199219 26.554688 34.132812 26.632812 C 34.054688 26.847656 34.101562 27.03125 34.265625 27.183594 C 34.261719 27.503906 34.25 27.824219 34.230469 28.144531 C 34.078125 29.757812 33.984375 31.375 33.941406 32.992188 C 33.929688 33.761719 33.925781 34.53125 33.929688 35.296875 C 33.726562 35.226562 33.519531 35.1875 33.304688 35.175781 C 33.296875 34.183594 33.308594 33.191406 33.339844 32.199219 C 33.433594 30.71875 33.539062 29.238281 33.652344 27.761719 C 33.714844 26.609375 33.765625 25.457031 33.796875 24.304688 C 33.523438 24.472656 33.234375 24.515625 32.921875 24.4375 C 32.660156 24.300781 32.414062 24.148438 32.175781 23.980469 C 31.859375 23.867188 31.539062 23.765625 31.21875 23.667969 C 30.914062 23.511719 30.648438 23.304688 30.425781 23.042969 C 30.332031 22.984375 30.246094 22.921875 30.160156 22.851562 C 29.714844 22.609375 29.257812 22.382812 28.792969 22.179688 C 28.367188 21.960938 27.96875 21.703125 27.59375 21.410156 C 27.476562 21.3125 27.367188 21.203125 27.269531 21.085938 C 27.214844 21.878906 27.175781 22.671875 27.148438 23.464844 C 27.121094 25.535156 27.109375 27.609375 27.113281 29.679688 C 26.96875 29.714844 26.824219 29.738281 26.679688 29.753906 C 26.675781 27.90625 26.679688 26.054688 26.691406 24.207031 C 26.726562 23.121094 26.769531 22.03125 26.824219 20.941406 C 26.824219 20.855469 26.816406 20.773438 26.800781 20.691406 C 26.695312 20.636719 26.582031 20.621094 26.464844 20.644531 C 26.183594 20.882812 25.871094 21.074219 25.527344 21.21875 C 23.953125 21.78125 22.394531 22.382812 20.847656 23.019531 C 20.242188 23.28125 19.664062 23.59375 19.117188 23.957031 C 19.035156 24.019531 18.953125 24.089844 18.878906 24.160156 C 18.761719 23.976562 18.660156 23.785156 18.566406 23.582031 C 19.050781 23.242188 19.5625 22.941406 20.101562 22.683594 C 21.832031 21.90625 23.59375 21.210938 25.382812 20.59375 C 25.632812 20.480469 25.855469 20.328125 26.054688 20.140625 C 26.304688 19.953125 26.578125 19.910156 26.871094 20.007812 C 27.011719 17.601562 27.054688 15.191406 27.003906 12.78125 C 26.976562 12.535156 26.945312 12.285156 26.910156 12.039062 C 26.902344 12.007812 26.890625 11.984375 26.871094 11.964844 C 26.988281 11.761719 27.140625 11.585938 27.328125 11.4375 Z M 27.328125 11.4375 "/>
<path style=" stroke:none;fill-rule:evenodd;fill:rgb(99.607843%,99.607843%,99.607843%);fill-opacity:1;" d="M 26.871094 11.964844 C 26.890625 11.984375 26.902344 12.007812 26.910156 12.039062 C 26.945312 12.285156 26.976562 12.535156 27.003906 12.78125 C 27.054688 15.191406 27.011719 17.601562 26.871094 20.007812 C 26.578125 19.910156 26.304688 19.953125 26.054688 20.140625 C 25.855469 20.328125 25.632812 20.480469 25.382812 20.59375 C 23.59375 21.210938 21.832031 21.90625 20.101562 22.683594 C 19.5625 22.941406 19.050781 23.242188 18.566406 23.582031 C 18.445312 23.394531 18.277344 23.34375 18.0625 23.429688 C 17.960938 23.492188 17.914062 23.585938 17.917969 23.703125 C 17.925781 23.824219 17.957031 23.933594 18.015625 24.039062 C 17.855469 24.152344 17.6875 24.257812 17.511719 24.351562 C 17.503906 24.316406 17.496094 24.28125 17.488281 24.242188 C 17.796875 21.597656 18.019531 18.945312 18.160156 16.285156 C 18.433594 16.457031 18.730469 16.570312 19.046875 16.632812 C 19.390625 16.652344 19.734375 16.652344 20.078125 16.632812 C 20.585938 16.636719 21.082031 16.566406 21.566406 16.417969 C 22.683594 16.007812 23.78125 15.542969 24.855469 15.027344 C 25.296875 14.84375 25.644531 14.550781 25.898438 14.148438 C 26.183594 13.628906 26.414062 13.085938 26.597656 12.519531 C 26.675781 12.328125 26.769531 12.144531 26.871094 11.964844 Z M 26.871094 11.964844 "/>
<path style=" stroke:none;fill-rule:evenodd;fill:rgb(66.666667%,23.529412%,18.431373%);fill-opacity:1;" d="M 39.355469 12.660156 C 39.460938 12.785156 39.5 12.929688 39.472656 13.09375 C 39.375 13.300781 39.296875 13.515625 39.234375 13.742188 C 39.132812 14.085938 39.089844 14.4375 39.101562 14.796875 C 39.0625 14.949219 38.96875 15.058594 38.828125 15.121094 C 38.542969 15.214844 38.347656 15.125 38.238281 14.847656 C 38.195312 14.128906 38.316406 13.441406 38.597656 12.78125 C 38.664062 12.679688 38.746094 12.601562 38.851562 12.542969 C 39.039062 12.496094 39.207031 12.539062 39.355469 12.660156 Z M 39.355469 12.660156 "/>
<path style=" stroke:none;fill-rule:evenodd;fill:rgb(99.607843%,99.607843%,99.607843%);fill-opacity:1;" d="M 17.75 16.023438 C 17.679688 17.410156 17.582031 18.792969 17.449219 20.175781 C 17.3125 21.585938 17.167969 22.992188 17.019531 24.398438 C 16.765625 24.25 16.539062 24.070312 16.335938 23.859375 C 15.511719 23.246094 14.652344 22.683594 13.765625 22.167969 C 13.71875 21.960938 13.671875 21.753906 13.632812 21.542969 C 13.421875 20.816406 13.222656 20.089844 13.035156 19.359375 C 12.863281 18.464844 12.800781 17.558594 12.84375 16.648438 C 12.800781 15.875 12.996094 15.171875 13.417969 14.535156 C 13.621094 14.265625 13.804688 13.988281 13.96875 13.695312 C 14.09375 13.859375 14.25 13.902344 14.4375 13.828125 C 14.519531 13.746094 14.605469 13.675781 14.703125 13.609375 C 14.851562 13.613281 14.988281 13.664062 15.109375 13.753906 C 15.941406 14.574219 16.824219 15.328125 17.75 16.023438 Z M 17.75 16.023438 "/>
<path style=" stroke:none;fill-rule:evenodd;fill:rgb(63.529412%,57.647059%,59.607843%);fill-opacity:1;" d="M 17.75 16.023438 C 17.894531 16.101562 18.03125 16.1875 18.160156 16.285156 C 18.019531 18.945312 17.796875 21.597656 17.488281 24.242188 C 17.496094 24.28125 17.503906 24.316406 17.511719 24.351562 C 17.6875 24.257812 17.855469 24.152344 18.015625 24.039062 C 18.125 24.21875 18.230469 24.402344 18.328125 24.59375 C 18.066406 24.785156 17.777344 24.929688 17.460938 25.023438 C 17.453125 25.070312 17.445312 25.121094 17.4375 25.167969 C 17.398438 26.199219 17.347656 27.234375 17.28125 28.265625 C 17.121094 29.664062 16.980469 31.0625 16.851562 32.464844 C 16.8125 33.554688 16.777344 34.640625 16.742188 35.730469 C 16.550781 35.683594 16.390625 35.585938 16.261719 35.441406 C 16.289062 34.335938 16.332031 33.234375 16.394531 32.128906 C 16.527344 30.808594 16.671875 29.488281 16.828125 28.167969 C 16.90625 27.121094 16.949219 26.074219 16.957031 25.023438 C 16.761719 24.949219 16.574219 24.847656 16.40625 24.722656 C 15.601562 24.050781 14.746094 23.445312 13.839844 22.910156 C 13.820312 22.929688 13.804688 22.945312 13.789062 22.960938 C 13.820312 22.695312 13.8125 22.429688 13.765625 22.167969 C 14.652344 22.683594 15.511719 23.246094 16.335938 23.859375 C 16.539062 24.070312 16.765625 24.25 17.019531 24.398438 C 17.167969 22.992188 17.3125 21.585938 17.449219 20.175781 C 17.582031 18.792969 17.679688 17.410156 17.75 16.023438 Z M 17.75 16.023438 "/>
<path style=" stroke:none;fill-rule:evenodd;fill:rgb(66.666667%,23.529412%,18.431373%);fill-opacity:1;" d="M 14.824219 16.933594 C 15.082031 16.917969 15.277344 17.023438 15.410156 17.246094 C 15.582031 17.542969 15.71875 17.855469 15.820312 18.183594 C 16.101562 18.605469 16.320312 19.058594 16.480469 19.539062 C 16.46875 19.707031 16.390625 19.828125 16.238281 19.898438 C 16 19.988281 15.8125 19.925781 15.675781 19.71875 C 15.535156 19.304688 15.351562 18.914062 15.121094 18.542969 C 15.042969 18.320312 14.960938 18.09375 14.882812 17.871094 C 14.796875 17.710938 14.699219 17.558594 14.59375 17.414062 C 14.5625 17.203125 14.636719 17.042969 14.824219 16.933594 Z M 14.824219 16.933594 "/>
<path style=" stroke:none;fill-rule:evenodd;fill:rgb(62.745098%,56.862745%,58.823529%);fill-opacity:1;" d="M 41.15625 17.292969 C 41.152344 17.359375 41.15625 17.421875 41.167969 17.488281 C 41.417969 17.601562 41.492188 17.785156 41.382812 18.039062 C 41.316406 18.109375 41.242188 18.164062 41.15625 18.207031 C 41.136719 18.347656 41.121094 18.484375 41.105469 18.613281 C 41.109375 18.488281 41.105469 18.359375 41.09375 18.230469 C 40.5625 18.492188 40.089844 18.835938 39.679688 19.261719 C 39.605469 19.371094 39.53125 19.476562 39.449219 19.574219 C 39.476562 19.113281 39.554688 18.664062 39.691406 18.230469 C 39.6875 18.25 39.691406 18.265625 39.703125 18.277344 C 40.089844 18 40.492188 17.746094 40.914062 17.523438 C 40.984375 17.492188 41.054688 17.480469 41.128906 17.488281 C 41.125 17.417969 41.132812 17.355469 41.15625 17.292969 Z M 41.15625 17.292969 "/>
<path style=" stroke:none;fill-rule:evenodd;fill:rgb(99.607843%,99.607843%,99.607843%);fill-opacity:1;" d="M 41.105469 18.613281 C 41.078125 22.03125 41.074219 25.449219 41.09375 28.863281 C 41.148438 33.476562 41.386719 38.078125 41.816406 42.667969 C 41.898438 43.328125 41.980469 43.992188 42.054688 44.660156 C 42.132812 45.125 42.222656 45.589844 42.320312 46.050781 C 42.335938 46.1875 42.335938 46.324219 42.320312 46.460938 C 42.300781 46.519531 42.265625 46.566406 42.210938 46.589844 C 41.625 46.585938 41.039062 46.617188 40.457031 46.6875 C 39.640625 46.746094 38.832031 46.671875 38.035156 46.472656 C 36.585938 46.085938 35.160156 45.625 33.761719 45.089844 C 33.851562 45.039062 33.910156 44.957031 33.941406 44.851562 C 33.953125 41.84375 33.949219 38.835938 33.929688 35.824219 C 34.027344 35.878906 34.125 35.9375 34.21875 36.003906 C 34.527344 36.328125 34.863281 36.617188 35.226562 36.871094 C 35.925781 37.238281 36.515625 37.109375 36.988281 36.472656 C 37.296875 36.023438 37.550781 35.542969 37.757812 35.035156 C 37.988281 34.4375 38.101562 33.820312 38.105469 33.183594 C 38.125 32.78125 38.0625 32.386719 37.925781 32.007812 C 37.679688 31.523438 37.441406 31.035156 37.207031 30.542969 C 37.105469 30.308594 37.015625 30.070312 36.941406 29.824219 C 36.824219 29.417969 36.785156 29 36.820312 28.578125 C 36.941406 27.921875 37.183594 27.3125 37.542969 26.753906 C 37.953125 26.09375 38.351562 25.429688 38.742188 24.761719 C 39.074219 24.210938 39.28125 23.617188 39.367188 22.984375 C 39.433594 22.195312 39.445312 21.410156 39.402344 20.621094 C 39.398438 20.269531 39.414062 19.921875 39.449219 19.574219 C 39.53125 19.476562 39.605469 19.371094 39.679688 19.261719 C 40.089844 18.835938 40.5625 18.492188 41.09375 18.230469 C 41.105469 18.359375 41.109375 18.488281 41.105469 18.613281 Z M 41.105469 18.613281 "/>
<path style=" stroke:none;fill-rule:evenodd;fill:rgb(66.666667%,23.137255%,18.039216%);fill-opacity:1;" d="M 38.800781 19.335938 C 38.761719 19.601562 38.6875 19.859375 38.574219 20.101562 C 38.414062 20.4375 38.230469 20.753906 38.035156 21.0625 C 37.945312 21.21875 37.851562 21.363281 37.746094 21.507812 C 37.566406 21.605469 37.382812 21.617188 37.195312 21.542969 C 36.964844 21.351562 36.917969 21.121094 37.050781 20.847656 C 37.28125 20.464844 37.5 20.070312 37.710938 19.671875 C 37.824219 19.429688 37.871094 19.171875 37.855469 18.902344 C 37.886719 18.800781 37.949219 18.714844 38.035156 18.652344 C 38.355469 18.488281 38.609375 18.566406 38.789062 18.878906 C 38.800781 19.03125 38.804688 19.183594 38.800781 19.335938 Z M 38.800781 19.335938 "/>
<path style=" stroke:none;fill-rule:evenodd;fill:rgb(62.745098%,56.470588%,58.039216%);fill-opacity:1;" d="M 38.996094 19.070312 C 38.929688 19.605469 38.90625 20.140625 38.921875 20.679688 C 38.902344 20.605469 38.890625 20.523438 38.886719 20.4375 C 38.652344 20.714844 38.367188 20.925781 38.035156 21.0625 C 38.230469 20.753906 38.414062 20.4375 38.574219 20.101562 C 38.6875 19.859375 38.761719 19.601562 38.800781 19.335938 C 38.847656 19.234375 38.914062 19.144531 38.996094 19.070312 Z M 38.996094 19.070312 "/>
<path style=" stroke:none;fill-rule:evenodd;fill:rgb(63.137255%,57.254902%,59.215686%);fill-opacity:1;" d="M 9.804688 19.527344 C 10.015625 19.722656 10.238281 19.902344 10.476562 20.066406 C 11.386719 20.652344 12.296875 21.234375 13.214844 21.808594 C 13.300781 22.0625 13.347656 22.328125 13.359375 22.601562 C 12.128906 21.851562 10.921875 21.074219 9.734375 20.269531 C 9.605469 20.148438 9.472656 20.027344 9.335938 19.910156 C 9.25 19.710938 9.300781 19.5625 9.492188 19.46875 C 9.609375 19.4375 9.714844 19.460938 9.804688 19.527344 Z M 9.804688 19.527344 "/>
<path style=" stroke:none;fill-rule:evenodd;fill:rgb(99.607843%,99.607843%,99.607843%);fill-opacity:1;" d="M 9.734375 20.269531 C 10.921875 21.074219 12.128906 21.851562 13.359375 22.601562 C 13.390625 22.960938 13.316406 23.296875 13.128906 23.609375 C 12.910156 23.9375 12.652344 24.242188 12.363281 24.519531 C 11.992188 24.917969 11.699219 25.367188 11.472656 25.863281 C 11.058594 27.175781 11.203125 28.425781 11.90625 29.609375 C 12.421875 30.386719 12.925781 31.167969 13.417969 31.960938 C 13.777344 32.480469 14.136719 33 14.5 33.519531 C 14.769531 34.015625 15.042969 34.511719 15.3125 35.007812 C 15.554688 35.398438 15.863281 35.71875 16.238281 35.96875 C 16.136719 37.28125 16.09375 38.59375 16.105469 39.90625 C 16.09375 40.125 16.046875 40.332031 15.960938 40.53125 C 15.816406 40.773438 15.695312 41.03125 15.601562 41.296875 C 15.554688 41.503906 15.535156 41.710938 15.542969 41.921875 C 15.554688 42.273438 15.566406 42.625 15.578125 42.980469 C 15.578125 43.339844 15.667969 43.675781 15.84375 43.988281 C 16.007812 44.210938 16.21875 44.277344 16.480469 44.191406 C 16.617188 44.058594 16.632812 43.917969 16.527344 43.757812 C 16.433594 43.722656 16.339844 43.6875 16.25 43.652344 C 16.207031 43.574219 16.171875 43.496094 16.15625 43.410156 C 16.136719 43.265625 16.121094 43.125 16.105469 42.980469 C 16.097656 42.5625 16.085938 42.148438 16.070312 41.730469 C 16.070312 41.625 16.082031 41.519531 16.105469 41.417969 C 16.226562 41.164062 16.347656 40.90625 16.464844 40.652344 C 16.53125 40.445312 16.582031 40.238281 16.609375 40.027344 C 16.605469 39.332031 16.605469 38.632812 16.609375 37.9375 C 16.648438 37.347656 16.683594 36.753906 16.71875 36.160156 C 16.851562 36.167969 16.980469 36.160156 17.101562 36.136719 C 17.242188 36.117188 17.378906 36.082031 17.511719 36.03125 C 17.75 35.910156 17.992188 35.789062 18.230469 35.667969 C 18.523438 35.523438 18.785156 35.566406 19.011719 35.800781 C 19.179688 36.035156 19.347656 36.265625 19.515625 36.496094 C 20.25 37.199219 21.039062 37.257812 21.878906 36.679688 C 22.859375 35.914062 23.972656 35.59375 25.214844 35.71875 C 25.707031 35.90625 26.195312 36.09375 26.679688 36.28125 C 26.6875 37.089844 26.675781 37.898438 26.644531 38.707031 C 26.617188 38.988281 26.585938 39.265625 26.546875 39.546875 C 26.519531 39.753906 26.476562 39.953125 26.417969 40.144531 C 26.277344 40.152344 26.140625 40.179688 26.007812 40.230469 C 25.582031 40.453125 25.152344 40.660156 24.710938 40.855469 C 24.054688 41.109375 23.398438 41.367188 22.742188 41.621094 C 19.921875 42.820312 17.097656 44.015625 14.269531 45.199219 C 14.078125 45.289062 13.878906 45.328125 13.671875 45.320312 C 13.640625 45.292969 13.613281 45.261719 13.585938 45.234375 C 12.976562 44.101562 12.382812 42.957031 11.808594 41.800781 C 11.132812 40.320312 10.46875 38.832031 9.816406 37.339844 C 9.53125 36.558594 9.296875 35.769531 9.109375 34.960938 C 9.367188 34.140625 9.621094 33.316406 9.867188 32.488281 C 9.886719 31.476562 9.828125 30.46875 9.699219 29.464844 C 9.464844 28.179688 9.347656 26.882812 9.347656 25.574219 C 9.34375 24.96875 9.363281 24.359375 9.410156 23.75 C 9.503906 22.589844 9.613281 21.429688 9.734375 20.269531 Z M 9.734375 20.269531 "/>
<path style=" stroke:none;fill-rule:evenodd;fill:rgb(99.607843%,99.607843%,99.607843%);fill-opacity:1;" d="M 38.921875 20.679688 C 38.945312 21.359375 38.949219 22.039062 38.933594 22.71875 C 38.878906 23.28125 38.710938 23.8125 38.429688 24.304688 C 37.964844 25.089844 37.5 25.871094 37.039062 26.65625 C 36.917969 26.867188 36.808594 27.085938 36.703125 27.304688 C 36.269531 28.234375 36.210938 29.183594 36.535156 30.160156 C 36.753906 30.796875 37.035156 31.40625 37.375 31.984375 C 37.457031 32.171875 37.519531 32.363281 37.566406 32.5625 C 37.613281 32.96875 37.613281 33.378906 37.566406 33.785156 C 37.410156 34.601562 37.113281 35.359375 36.679688 36.066406 C 36.578125 36.210938 36.464844 36.34375 36.328125 36.460938 C 36.15625 36.585938 35.964844 36.625 35.753906 36.582031 C 35.535156 36.5 35.335938 36.390625 35.152344 36.246094 C 34.894531 36.007812 34.628906 35.777344 34.363281 35.550781 C 34.226562 35.449219 34.082031 35.363281 33.929688 35.296875 C 33.925781 34.53125 33.929688 33.761719 33.941406 32.992188 C 33.984375 31.375 34.078125 29.757812 34.230469 28.144531 C 34.25 27.824219 34.261719 27.503906 34.265625 27.183594 C 34.421875 27.273438 34.582031 27.277344 34.746094 27.195312 C 35.15625 26.746094 35.578125 26.300781 36.003906 25.863281 C 36.214844 25.609375 36.398438 25.335938 36.558594 25.046875 C 36.613281 24.984375 36.679688 24.925781 36.75 24.878906 C 36.921875 24.609375 36.878906 24.378906 36.617188 24.195312 C 36.449219 24.136719 36.289062 24.152344 36.136719 24.242188 C 36.023438 24.351562 35.914062 24.46875 35.8125 24.59375 C 35.683594 24.8125 35.546875 25.027344 35.40625 25.238281 C 35.046875 25.628906 34.683594 26.015625 34.3125 26.390625 C 34.335938 25.527344 34.371094 24.664062 34.421875 23.800781 C 34.710938 23.4375 35.027344 23.097656 35.371094 22.78125 C 35.960938 22.34375 36.570312 21.929688 37.195312 21.542969 C 37.382812 21.617188 37.566406 21.605469 37.746094 21.507812 C 37.851562 21.363281 37.945312 21.21875 38.035156 21.0625 C 38.367188 20.925781 38.652344 20.714844 38.886719 20.4375 C 38.890625 20.523438 38.902344 20.605469 38.921875 20.679688 Z M 38.921875 20.679688 "/>
<path style=" stroke:none;fill-rule:evenodd;fill:rgb(99.607843%,99.607843%,99.607843%);fill-opacity:1;" d="M 26.679688 29.753906 C 26.394531 29.882812 26.105469 29.878906 25.816406 29.742188 C 25.421875 29.6875 25.246094 29.859375 25.300781 30.257812 C 25.34375 30.40625 25.445312 30.496094 25.601562 30.53125 C 25.925781 30.664062 26.261719 30.703125 26.609375 30.640625 C 26.632812 30.640625 26.65625 30.640625 26.679688 30.640625 C 26.679688 32.371094 26.679688 34.097656 26.679688 35.824219 C 26.574219 35.800781 26.472656 35.773438 26.367188 35.742188 C 26.039062 35.570312 25.691406 35.4375 25.335938 35.332031 C 24.300781 35.195312 23.324219 35.378906 22.40625 35.886719 C 22.023438 36.117188 21.640625 36.351562 21.253906 36.582031 C 20.957031 36.703125 20.652344 36.71875 20.34375 36.628906 C 20.082031 36.511719 19.863281 36.339844 19.683594 36.113281 C 19.519531 35.878906 19.347656 35.652344 19.167969 35.429688 C 19.109375 35.390625 19.054688 35.351562 19 35.308594 C 18.730469 35.207031 18.457031 35.199219 18.183594 35.285156 C 17.839844 35.445312 17.496094 35.597656 17.152344 35.742188 C 17.011719 35.761719 16.875 35.757812 16.742188 35.730469 C 16.777344 34.640625 16.8125 33.554688 16.851562 32.464844 C 16.980469 31.0625 17.121094 29.664062 17.28125 28.265625 C 17.347656 27.234375 17.398438 26.199219 17.4375 25.167969 C 17.445312 25.121094 17.453125 25.070312 17.460938 25.023438 C 17.777344 24.929688 18.066406 24.785156 18.328125 24.59375 C 18.59375 25 18.898438 25.378906 19.238281 25.730469 C 19.667969 25.863281 19.839844 25.707031 19.753906 25.265625 C 19.414062 24.933594 19.121094 24.566406 18.878906 24.160156 C 18.953125 24.089844 19.035156 24.019531 19.117188 23.957031 C 19.664062 23.59375 20.242188 23.28125 20.847656 23.019531 C 22.394531 22.382812 23.953125 21.78125 25.527344 21.21875 C 25.871094 21.074219 26.183594 20.882812 26.464844 20.644531 C 26.582031 20.621094 26.695312 20.636719 26.800781 20.691406 C 26.816406 20.773438 26.824219 20.855469 26.824219 20.941406 C 26.769531 22.03125 26.726562 23.121094 26.691406 24.207031 C 26.679688 26.054688 26.675781 27.90625 26.679688 29.753906 Z M 26.679688 29.753906 "/>
<path style=" stroke:none;fill-rule:evenodd;fill:rgb(99.607843%,99.607843%,99.607843%);fill-opacity:1;" d="M 33.304688 35.175781 C 32.777344 35.207031 32.296875 35.371094 31.863281 35.667969 C 31.527344 35.894531 31.191406 36.117188 30.855469 36.34375 C 30.402344 36.609375 29.914062 36.707031 29.394531 36.628906 C 29.035156 36.558594 28.683594 36.460938 28.335938 36.34375 C 27.949219 36.175781 27.546875 36.042969 27.136719 35.945312 C 27.113281 34.144531 27.105469 32.34375 27.113281 30.542969 C 27.148438 30.523438 27.191406 30.515625 27.230469 30.53125 C 27.449219 30.757812 27.675781 30.769531 27.917969 30.570312 C 28.023438 30.429688 28.050781 30.277344 27.988281 30.113281 C 27.777344 29.804688 27.484375 29.660156 27.113281 29.679688 C 27.109375 27.609375 27.121094 25.535156 27.148438 23.464844 C 27.175781 22.671875 27.214844 21.878906 27.269531 21.085938 C 27.367188 21.203125 27.476562 21.3125 27.59375 21.410156 C 27.96875 21.703125 28.367188 21.960938 28.792969 22.179688 C 29.257812 22.382812 29.714844 22.609375 30.160156 22.851562 C 30.246094 22.921875 30.332031 22.984375 30.425781 23.042969 C 30.648438 23.304688 30.914062 23.511719 31.21875 23.667969 C 31.539062 23.765625 31.859375 23.867188 32.175781 23.980469 C 32.414062 24.148438 32.660156 24.300781 32.921875 24.4375 C 33.234375 24.515625 33.523438 24.472656 33.796875 24.304688 C 33.765625 25.457031 33.714844 26.609375 33.652344 27.761719 C 33.539062 29.238281 33.433594 30.71875 33.339844 32.199219 C 33.308594 33.191406 33.296875 34.183594 33.304688 35.175781 Z M 33.304688 35.175781 "/>
<path style=" stroke:none;fill-rule:evenodd;fill:rgb(99.607843%,99.607843%,99.607843%);fill-opacity:1;" d="M 16.261719 35.441406 C 16.039062 35.242188 15.84375 35.019531 15.675781 34.769531 C 15.386719 34.242188 15.097656 33.714844 14.808594 33.183594 C 13.996094 31.953125 13.179688 30.722656 12.363281 29.488281 C 12.007812 28.929688 11.792969 28.320312 11.714844 27.664062 C 11.609375 26.785156 11.820312 25.996094 12.339844 25.289062 C 12.714844 24.878906 13.074219 24.453125 13.417969 24.015625 C 13.625 23.691406 13.75 23.339844 13.789062 22.960938 C 13.804688 22.945312 13.820312 22.929688 13.839844 22.910156 C 14.746094 23.445312 15.601562 24.050781 16.40625 24.722656 C 16.574219 24.847656 16.761719 24.949219 16.957031 25.023438 C 16.949219 26.074219 16.90625 27.121094 16.828125 28.167969 C 16.671875 29.488281 16.527344 30.808594 16.394531 32.128906 C 16.332031 33.234375 16.289062 34.335938 16.261719 35.441406 Z M 16.261719 35.441406 "/>
<path style=" stroke:none;fill-rule:evenodd;fill:rgb(66.666667%,23.529412%,18.431373%);fill-opacity:1;" d="M 18.566406 23.582031 C 18.660156 23.785156 18.761719 23.976562 18.878906 24.160156 C 19.121094 24.566406 19.414062 24.933594 19.753906 25.265625 C 19.839844 25.707031 19.667969 25.863281 19.238281 25.730469 C 18.898438 25.378906 18.59375 25 18.328125 24.59375 C 18.230469 24.402344 18.125 24.21875 18.015625 24.039062 C 17.957031 23.933594 17.925781 23.824219 17.917969 23.703125 C 17.914062 23.585938 17.960938 23.492188 18.0625 23.429688 C 18.277344 23.34375 18.445312 23.394531 18.566406 23.582031 Z M 18.566406 23.582031 "/>
<path style=" stroke:none;fill-rule:evenodd;fill:rgb(66.666667%,23.529412%,18.431373%);fill-opacity:1;" d="M 34.265625 27.183594 C 34.101562 27.03125 34.054688 26.847656 34.132812 26.632812 C 34.199219 26.554688 34.257812 26.476562 34.3125 26.390625 C 34.683594 26.015625 35.046875 25.628906 35.40625 25.238281 C 35.546875 25.027344 35.683594 24.8125 35.8125 24.59375 C 35.914062 24.46875 36.023438 24.351562 36.136719 24.242188 C 36.289062 24.152344 36.449219 24.136719 36.617188 24.195312 C 36.878906 24.378906 36.921875 24.609375 36.75 24.878906 C 36.679688 24.925781 36.613281 24.984375 36.558594 25.046875 C 36.398438 25.335938 36.214844 25.609375 36.003906 25.863281 C 35.578125 26.300781 35.15625 26.746094 34.746094 27.195312 C 34.582031 27.277344 34.421875 27.273438 34.265625 27.183594 Z M 34.265625 27.183594 "/>
<path style=" stroke:none;fill-rule:evenodd;fill:rgb(66.666667%,23.529412%,18.431373%);fill-opacity:1;" d="M 20.894531 27.855469 C 20.984375 27.851562 21.074219 27.863281 21.160156 27.890625 C 21.796875 28.25 22.453125 28.570312 23.128906 28.851562 C 23.382812 29 23.457031 29.203125 23.34375 29.464844 C 23.308594 29.496094 23.265625 29.527344 23.222656 29.546875 C 23.085938 29.566406 22.953125 29.566406 22.816406 29.546875 C 22.101562 29.226562 21.410156 28.863281 20.738281 28.457031 C 20.601562 28.203125 20.652344 28.003906 20.894531 27.855469 Z M 20.894531 27.855469 "/>
<path style=" stroke:none;fill-rule:evenodd;fill:rgb(66.666667%,23.529412%,18.431373%);fill-opacity:1;" d="M 31.625 27.976562 C 31.875 27.941406 32.027344 28.042969 32.082031 28.289062 C 31.941406 28.625 31.78125 28.953125 31.601562 29.273438 C 31.765625 29.328125 31.933594 29.375 32.105469 29.40625 C 32.277344 29.394531 32.4375 29.433594 32.585938 29.523438 C 32.652344 29.632812 32.726562 29.730469 32.8125 29.824219 C 32.910156 30.21875 32.757812 30.449219 32.355469 30.519531 C 32.304688 30.519531 32.25 30.503906 32.199219 30.484375 C 32.113281 30.417969 32.015625 30.359375 31.914062 30.316406 C 31.652344 30.242188 31.386719 30.1875 31.121094 30.148438 C 30.921875 30.519531 30.765625 30.90625 30.652344 31.3125 C 30.589844 31.542969 30.449219 31.707031 30.234375 31.804688 C 29.8125 31.847656 29.609375 31.660156 29.621094 31.242188 C 29.808594 30.761719 30.027344 30.296875 30.28125 29.847656 C 29.914062 29.683594 29.554688 29.5 29.199219 29.308594 C 28.976562 29.007812 29.023438 28.757812 29.34375 28.566406 C 29.441406 28.546875 29.535156 28.546875 29.632812 28.566406 C 29.9375 28.699219 30.242188 28.835938 30.542969 28.972656 C 30.640625 29.011719 30.734375 29.035156 30.832031 29.042969 C 31.058594 28.746094 31.273438 28.4375 31.46875 28.121094 C 31.519531 28.066406 31.570312 28.019531 31.625 27.976562 Z M 31.625 27.976562 "/>
<path style=" stroke:none;fill-rule:evenodd;fill:rgb(66.666667%,23.529412%,18.431373%);fill-opacity:1;" d="M 27.113281 29.679688 C 27.484375 29.660156 27.777344 29.804688 27.988281 30.113281 C 28.050781 30.277344 28.023438 30.429688 27.917969 30.570312 C 27.675781 30.769531 27.449219 30.757812 27.230469 30.53125 C 27.191406 30.515625 27.148438 30.523438 27.113281 30.542969 C 26.9375 30.566406 26.769531 30.597656 26.609375 30.640625 C 26.261719 30.703125 25.925781 30.664062 25.601562 30.53125 C 25.445312 30.496094 25.34375 30.40625 25.300781 30.257812 C 25.246094 29.859375 25.421875 29.6875 25.816406 29.742188 C 26.105469 29.878906 26.394531 29.882812 26.679688 29.753906 C 26.824219 29.738281 26.96875 29.714844 27.113281 29.679688 Z M 27.113281 29.679688 "/>
<path style=" stroke:none;fill-rule:evenodd;fill:rgb(63.137255%,56.862745%,58.823529%);fill-opacity:1;" d="M 27.113281 30.542969 C 27.105469 32.34375 27.113281 34.144531 27.136719 35.945312 C 26.984375 35.910156 26.832031 35.867188 26.679688 35.824219 C 26.679688 34.097656 26.679688 32.371094 26.679688 30.640625 C 26.65625 30.640625 26.632812 30.640625 26.609375 30.640625 C 26.769531 30.597656 26.9375 30.566406 27.113281 30.542969 Z M 27.113281 30.542969 "/>
<path style=" stroke:none;fill-rule:evenodd;fill:rgb(99.607843%,99.607843%,99.607843%);fill-opacity:1;" d="M 33.304688 35.632812 C 33.308594 38.710938 33.324219 41.789062 33.351562 44.863281 C 33.351562 44.882812 33.34375 44.894531 33.328125 44.898438 C 32.511719 44.539062 31.742188 44.09375 31.023438 43.566406 C 30.675781 43.390625 30.332031 43.203125 29.992188 43.015625 C 29.5625 42.632812 29.144531 42.230469 28.746094 41.816406 C 28.40625 41.527344 28.0625 41.25 27.710938 40.972656 C 27.519531 40.78125 27.328125 40.589844 27.136719 40.398438 C 27.042969 40.332031 26.949219 40.273438 26.847656 40.21875 C 26.839844 40.203125 26.832031 40.1875 26.824219 40.171875 C 26.964844 39.503906 27.054688 38.832031 27.101562 38.152344 C 27.109375 37.5625 27.136719 36.976562 27.183594 36.402344 C 27.296875 36.421875 27.410156 36.449219 27.519531 36.484375 C 27.96875 36.667969 28.425781 36.828125 28.886719 36.964844 C 29.71875 37.171875 30.5 37.058594 31.242188 36.628906 C 31.65625 36.332031 32.089844 36.0625 32.539062 35.8125 C 32.777344 35.691406 33.035156 35.632812 33.304688 35.632812 Z M 33.304688 35.632812 "/>
<path style=" stroke:none;fill-rule:evenodd;fill:rgb(63.137255%,57.647059%,59.607843%);fill-opacity:1;" d="M 33.304688 35.632812 C 33.535156 35.640625 33.742188 35.703125 33.929688 35.824219 C 33.949219 38.835938 33.953125 41.84375 33.941406 44.851562 C 33.910156 44.957031 33.851562 45.039062 33.761719 45.089844 C 33.574219 45.113281 33.429688 45.050781 33.328125 44.898438 C 33.34375 44.894531 33.351562 44.882812 33.351562 44.863281 C 33.324219 41.789062 33.308594 38.710938 33.304688 35.632812 Z M 33.304688 35.632812 "/>
<path style=" stroke:none;fill-rule:evenodd;fill:rgb(63.137255%,57.254902%,59.215686%);fill-opacity:1;" d="M 16.238281 35.96875 C 16.503906 36.125 16.792969 36.179688 17.101562 36.136719 C 16.980469 36.160156 16.851562 36.167969 16.71875 36.160156 C 16.683594 36.753906 16.648438 37.347656 16.609375 37.9375 C 16.605469 38.632812 16.605469 39.332031 16.609375 40.027344 C 16.582031 40.238281 16.53125 40.445312 16.464844 40.652344 C 16.347656 40.90625 16.226562 41.164062 16.105469 41.417969 C 16.082031 41.519531 16.070312 41.625 16.070312 41.730469 C 16.085938 42.148438 16.097656 42.5625 16.105469 42.980469 C 16.121094 43.125 16.136719 43.265625 16.15625 43.410156 C 16.171875 43.496094 16.207031 43.574219 16.25 43.652344 C 16.339844 43.6875 16.433594 43.722656 16.527344 43.757812 C 16.632812 43.917969 16.617188 44.058594 16.480469 44.191406 C 16.21875 44.277344 16.007812 44.210938 15.84375 43.988281 C 15.667969 43.675781 15.578125 43.339844 15.578125 42.980469 C 15.566406 42.625 15.554688 42.273438 15.542969 41.921875 C 15.535156 41.710938 15.554688 41.503906 15.601562 41.296875 C 15.695312 41.03125 15.816406 40.773438 15.960938 40.53125 C 16.046875 40.332031 16.09375 40.125 16.105469 39.90625 C 16.09375 38.59375 16.136719 37.28125 16.238281 35.96875 Z M 16.238281 35.96875 "/>
<path style=" stroke:none;fill-rule:evenodd;fill:rgb(63.137255%,57.647059%,59.607843%);fill-opacity:1;" d="M 26.679688 36.28125 C 26.851562 36.320312 27.019531 36.359375 27.183594 36.402344 C 27.136719 36.976562 27.109375 37.5625 27.101562 38.152344 C 27.054688 38.832031 26.964844 39.503906 26.824219 40.171875 C 26.832031 40.1875 26.839844 40.203125 26.847656 40.21875 C 26.800781 40.359375 26.746094 40.503906 26.691406 40.652344 C 26.574219 40.722656 26.472656 40.707031 26.378906 40.601562 C 26.367188 40.449219 26.378906 40.296875 26.417969 40.144531 C 26.476562 39.953125 26.519531 39.753906 26.546875 39.546875 C 26.585938 39.265625 26.617188 38.988281 26.644531 38.707031 C 26.675781 37.898438 26.6875 37.089844 26.679688 36.28125 Z M 26.679688 36.28125 "/>
<use xlink:href="#surface18" mask="url(#mask4)"/>
</g>
</svg>
