<?xml version="1.0" encoding="UTF-8"?>
<svg xmlns="http://www.w3.org/2000/svg" xmlns:xlink="http://www.w3.org/1999/xlink" width="50pt" height="50pt" viewBox="0 0 50 50" version="1.1">
<defs>
<filter id="alpha" filterUnits="objectBoundingBox" x="0%" y="0%" width="100%" height="100%">
  <feColorMatrix type="matrix" in="SourceGraphic" values="0 0 0 0 1 0 0 0 0 1 0 0 0 0 1 0 0 0 1 0"/>
</filter>
<mask id="mask0">
  <g filter="url(#alpha)">
<rect x="0" y="0" width="50" height="50" style="fill:rgb(0%,0%,0%);fill-opacity:0.988235;stroke:none;"/>
  </g>
</mask>
<clipPath id="clip1">
  <rect width="50" height="50"/>
</clipPath>
<g id="surface6" clip-path="url(#clip1)">
<path style=" stroke:none;fill-rule:evenodd;fill:rgb(0.392157%,0.392157%,0.392157%);fill-opacity:1;" d="M 30.496094 3.109375 C 31.238281 3.449219 31.980469 3.785156 32.730469 4.117188 C 33.777344 4.617188 34.761719 5.210938 35.683594 5.90625 C 36.898438 6.792969 38.039062 7.78125 39.101562 8.871094 C 39.980469 9.796875 40.707031 10.828125 41.285156 11.964844 C 41.765625 13.03125 42.15625 14.125 42.460938 15.253906 C 42.914062 16.910156 43.289062 18.582031 43.589844 20.269531 C 43.8125 21.417969 44.007812 22.570312 44.167969 23.726562 C 44.265625 24.828125 44.328125 25.933594 44.359375 27.039062 C 44.402344 27.082031 44.433594 27.128906 44.457031 27.183594 C 44.5 27.59375 44.550781 28 44.597656 28.410156 C 44.605469 28.785156 44.613281 29.160156 44.625 29.535156 C 44.703125 30.222656 44.757812 30.910156 44.777344 31.601562 C 44.761719 32.425781 44.679688 33.242188 44.527344 34.050781 C 44.460938 34.367188 44.3125 34.640625 44.082031 34.867188 C 43.96875 34.945312 43.859375 35.027344 43.746094 35.105469 C 43.554688 35.191406 43.355469 35.253906 43.148438 35.285156 C 42.871094 35.3125 42.59375 35.332031 42.320312 35.34375 C 41.382812 35.296875 40.445312 35.25 39.511719 35.203125 C 38.570312 35.21875 37.636719 35.316406 36.714844 35.5 C 36.53125 35.519531 36.347656 35.519531 36.160156 35.5 C 35.851562 35.40625 35.679688 35.195312 35.644531 34.867188 C 35.464844 33.257812 35.234375 31.65625 34.949219 30.066406 C 34.90625 29.753906 34.871094 29.441406 34.839844 29.128906 C 34.648438 29.078125 34.550781 28.949219 34.542969 28.746094 C 34.519531 28.601562 34.503906 28.457031 34.492188 28.3125 C 34.550781 27.480469 34.464844 26.664062 34.230469 25.863281 C 34 25.113281 33.773438 24.363281 33.558594 23.609375 C 33.207031 22.285156 32.847656 20.964844 32.476562 19.648438 C 32.105469 18.273438 31.519531 17 30.726562 15.832031 C 30.472656 15.488281 30.191406 15.167969 29.886719 14.871094 C 29.726562 14.664062 29.566406 14.453125 29.40625 14.246094 C 28.679688 13.574219 27.867188 13.027344 26.96875 12.613281 C 26.664062 12.449219 26.355469 12.308594 26.03125 12.183594 C 25.328125 11.878906 24.589844 11.75 23.824219 11.796875 C 23.703125 11.816406 23.585938 11.835938 23.464844 11.859375 C 23.441406 11.863281 23.425781 11.875 23.414062 11.894531 C 22.511719 12.160156 21.597656 12.40625 20.679688 12.625 C 20.09375 12.777344 19.609375 13.085938 19.226562 13.550781 C 18.984375 13.882812 18.75 14.21875 18.519531 14.558594 C 18.421875 14.695312 18.328125 14.828125 18.230469 14.964844 C 18.019531 15.261719 17.832031 15.574219 17.667969 15.902344 C 17.53125 16.300781 17.402344 16.699219 17.28125 17.101562 C 17.070312 17.648438 16.855469 18.191406 16.632812 18.734375 C 16.550781 18.945312 16.484375 19.164062 16.429688 19.382812 C 16.0625 20.453125 15.898438 21.558594 15.9375 22.695312 C 15.972656 23.285156 16.019531 23.867188 16.070312 24.449219 C 16.070312 24.984375 16.070312 25.519531 16.070312 26.054688 C 16.042969 26.429688 16.039062 26.804688 16.058594 27.183594 C 16.066406 27.355469 16.085938 27.527344 16.117188 27.6875 C 16.332031 28.75 16.535156 29.816406 16.730469 30.882812 C 16.753906 31.019531 16.765625 31.160156 16.765625 31.300781 C 16.761719 31.472656 16.75 31.648438 16.730469 31.816406 C 16.960938 32.566406 17.207031 33.3125 17.476562 34.050781 C 17.636719 34.515625 17.703125 34.996094 17.667969 35.488281 C 17.609375 35.960938 17.351562 36.253906 16.886719 36.367188 C 16.421875 36.496094 15.949219 36.585938 15.46875 36.628906 C 13.535156 36.746094 11.597656 36.855469 9.660156 36.953125 C 9.414062 36.9375 9.164062 36.925781 8.917969 36.917969 C 8.84375 36.898438 8.773438 36.878906 8.703125 36.859375 C 8.683594 36.835938 8.660156 36.820312 8.628906 36.808594 C 8.394531 36.683594 8.230469 36.488281 8.136719 36.234375 C 8.003906 35.84375 7.933594 35.445312 7.921875 35.035156 C 7.910156 34.648438 7.894531 34.265625 7.875 33.882812 C 7.804688 33.273438 7.730469 32.664062 7.65625 32.058594 C 7.605469 31.425781 7.617188 30.792969 7.691406 30.160156 C 7.6875 30.121094 7.683594 30.082031 7.679688 30.039062 C 7.511719 29.792969 7.472656 29.53125 7.5625 29.25 C 7.628906 29.15625 7.714844 29.09375 7.824219 29.058594 C 7.832031 28.964844 7.847656 28.878906 7.875 28.792969 C 7.914062 28.738281 7.964844 28.707031 8.027344 28.695312 C 8.058594 28.691406 8.074219 28.667969 8.078125 28.636719 C 8.078125 28.609375 8.070312 28.589844 8.054688 28.578125 C 7.753906 27.5 7.507812 26.414062 7.320312 25.3125 C 7.171875 24.128906 7.140625 22.945312 7.226562 21.757812 C 7.265625 20.054688 7.59375 18.40625 8.210938 16.816406 C 9.09375 14.722656 10.09375 12.691406 11.210938 10.71875 C 12.121094 9.398438 13.097656 8.125 14.136719 6.902344 C 14.632812 6.351562 15.164062 5.84375 15.734375 5.375 C 17.527344 4.101562 19.484375 3.164062 21.617188 2.570312 C 22.519531 2.320312 23.433594 2.105469 24.351562 1.921875 C 25.441406 1.695312 26.519531 1.734375 27.59375 2.039062 C 28.589844 2.332031 29.554688 2.6875 30.496094 3.109375 Z M 7.550781 23.054688 C 7.609375 24.183594 7.714844 25.3125 7.859375 26.441406 C 7.628906 25.328125 7.523438 24.199219 7.550781 23.054688 Z M 7.550781 23.054688 "/>
</g>
<mask id="mask1">
  <g filter="url(#alpha)">
<rect x="0" y="0" width="50" height="50" style="fill:rgb(0%,0%,0%);fill-opacity:0.694118;stroke:none;"/>
  </g>
</mask>
<clipPath id="clip2">
  <rect width="50" height="50"/>
</clipPath>
<g id="surface9" clip-path="url(#clip2)">
<path style=" stroke:none;fill-rule:evenodd;fill:rgb(70.980392%,70.196078%,71.764706%);fill-opacity:1;" d="M 30.496094 3.109375 C 31.273438 3.375 32.019531 3.710938 32.730469 4.117188 C 31.980469 3.785156 31.238281 3.449219 30.496094 3.109375 Z M 30.496094 3.109375 "/>
</g>
<mask id="mask2">
  <g filter="url(#alpha)">
<rect x="0" y="0" width="50" height="50" style="fill:rgb(0%,0%,0%);fill-opacity:0.886275;stroke:none;"/>
  </g>
</mask>
<clipPath id="clip3">
  <rect width="50" height="50"/>
</clipPath>
<g id="surface12" clip-path="url(#clip3)">
<path style=" stroke:none;fill-rule:evenodd;fill:rgb(76.470588%,75.686275%,77.254902%);fill-opacity:1;" d="M 23.824219 11.796875 C 24.546875 11.890625 25.269531 12.027344 25.984375 12.207031 C 26.007812 12.203125 26.023438 12.195312 26.03125 12.183594 C 26.355469 12.308594 26.664062 12.449219 26.96875 12.613281 C 25.816406 12.21875 24.632812 11.976562 23.414062 11.894531 C 23.425781 11.875 23.441406 11.863281 23.464844 11.859375 C 23.585938 11.835938 23.703125 11.816406 23.824219 11.796875 Z M 23.824219 11.796875 "/>
</g>
<mask id="mask3">
  <g filter="url(#alpha)">
<rect x="0" y="0" width="50" height="50" style="fill:rgb(0%,0%,0%);fill-opacity:0.890196;stroke:none;"/>
  </g>
</mask>
<clipPath id="clip4">
  <rect width="50" height="50"/>
</clipPath>
<g id="surface15" clip-path="url(#clip4)">
<path style=" stroke:none;fill-rule:evenodd;fill:rgb(77.647059%,76.862745%,78.431373%);fill-opacity:1;" d="M 18.519531 14.558594 C 17.730469 16.8125 17.09375 19.105469 16.609375 21.449219 C 16.410156 22.398438 16.230469 23.351562 16.070312 24.304688 C 16.0625 23.882812 16.070312 23.46875 16.09375 23.054688 C 16.089844 23.175781 16.09375 23.296875 16.105469 23.414062 C 16.628906 20.542969 17.335938 17.726562 18.230469 14.964844 C 18.328125 14.828125 18.421875 14.695312 18.519531 14.558594 Z M 18.519531 14.558594 "/>
</g>
<mask id="mask4">
  <g filter="url(#alpha)">
<rect x="0" y="0" width="50" height="50" style="fill:rgb(0%,0%,0%);fill-opacity:0.929412;stroke:none;"/>
  </g>
</mask>
<clipPath id="clip5">
  <rect width="50" height="50"/>
</clipPath>
<g id="surface18" clip-path="url(#clip5)">
<path style=" stroke:none;fill-rule:evenodd;fill:rgb(76.078431%,75.294118%,76.862745%);fill-opacity:1;" d="M 7.765625 19.71875 C 7.53125 22.46875 7.691406 25.191406 8.246094 27.890625 C 8.234375 27.960938 8.222656 28.027344 8.222656 28.097656 C 8.117188 27.648438 8.011719 27.199219 7.910156 26.753906 C 7.917969 26.691406 7.910156 26.636719 7.886719 26.585938 C 7.890625 26.53125 7.882812 26.484375 7.859375 26.441406 C 7.714844 25.3125 7.609375 24.183594 7.550781 23.054688 C 7.53125 21.933594 7.601562 20.820312 7.765625 19.71875 Z M 7.765625 19.71875 "/>
</g>
<mask id="mask5">
  <g filter="url(#alpha)">
<rect x="0" y="0" width="50" height="50" style="fill:rgb(0%,0%,0%);fill-opacity:0.701961;stroke:none;"/>
  </g>
</mask>
<clipPath id="clip6">
  <rect width="50" height="50"/>
</clipPath>
<g id="surface21" clip-path="url(#clip6)">
<path style=" stroke:none;fill-rule:evenodd;fill:rgb(59.607843%,54.117647%,56.078431%);fill-opacity:1;" d="M 16.070312 26.054688 C 16.078125 26.601562 16.09375 27.144531 16.117188 27.6875 C 16.085938 27.527344 16.066406 27.355469 16.058594 27.183594 C 16.039062 26.804688 16.042969 26.429688 16.070312 26.054688 Z M 16.070312 26.054688 "/>
</g>
<mask id="mask6">
  <g filter="url(#alpha)">
<rect x="0" y="0" width="50" height="50" style="fill:rgb(0%,0%,0%);fill-opacity:0.729412;stroke:none;"/>
  </g>
</mask>
<clipPath id="clip7">
  <rect width="50" height="50"/>
</clipPath>
<g id="surface24" clip-path="url(#clip7)">
<path style=" stroke:none;fill-rule:evenodd;fill:rgb(67.843137%,67.058824%,68.627451%);fill-opacity:1;" d="M 8.054688 28.578125 C 8.070312 28.589844 8.078125 28.609375 8.078125 28.636719 C 8.074219 28.667969 8.058594 28.691406 8.027344 28.695312 C 8.046875 28.660156 8.054688 28.621094 8.054688 28.578125 Z M 8.054688 28.578125 "/>
</g>
<mask id="mask7">
  <g filter="url(#alpha)">
<rect x="0" y="0" width="50" height="50" style="fill:rgb(0%,0%,0%);fill-opacity:0.792157;stroke:none;"/>
  </g>
</mask>
<clipPath id="clip8">
  <rect width="50" height="50"/>
</clipPath>
<g id="surface27" clip-path="url(#clip8)">
<path style=" stroke:none;fill-rule:evenodd;fill:rgb(74.509804%,73.72549%,75.294118%);fill-opacity:1;" d="M 44.082031 34.867188 C 44.089844 34.933594 44.074219 34.992188 44.035156 35.046875 C 43.945312 35.089844 43.847656 35.109375 43.746094 35.105469 C 43.859375 35.027344 43.96875 34.945312 44.082031 34.867188 Z M 44.082031 34.867188 "/>
</g>
<mask id="mask8">
  <g filter="url(#alpha)">
<rect x="0" y="0" width="50" height="50" style="fill:rgb(0%,0%,0%);fill-opacity:0.376471;stroke:none;"/>
  </g>
</mask>
<clipPath id="clip9">
  <rect width="50" height="50"/>
</clipPath>
<g id="surface30" clip-path="url(#clip9)">
<path style=" stroke:none;fill-rule:evenodd;fill:rgb(72.54902%,71.764706%,73.333333%);fill-opacity:1;" d="M 8.628906 36.808594 C 8.660156 36.820312 8.683594 36.835938 8.703125 36.859375 C 8.660156 36.863281 8.636719 36.847656 8.628906 36.808594 Z M 8.628906 36.808594 "/>
</g>
<mask id="mask9">
  <g filter="url(#alpha)">
<rect x="0" y="0" width="50" height="50" style="fill:rgb(0%,0%,0%);fill-opacity:0.988235;stroke:none;"/>
  </g>
</mask>
<clipPath id="clip10">
  <rect width="50" height="50"/>
</clipPath>
<g id="surface33" clip-path="url(#clip10)">
<path style=" stroke:none;fill-rule:evenodd;fill:rgb(83.137255%,82.352941%,80%);fill-opacity:1;" d="M 19.070312 47.132812 C 19.011719 46.988281 18.917969 46.867188 18.796875 46.769531 C 18.394531 45.496094 18.125 44.191406 17.992188 42.859375 C 17.992188 42.84375 17.984375 42.835938 17.96875 42.835938 C 17.96875 42.792969 17.96875 42.753906 17.96875 42.714844 C 17.972656 42.667969 17.964844 42.628906 17.941406 42.59375 C 17.929688 42.296875 17.890625 42 17.835938 41.707031 C 17.832031 41.664062 17.808594 41.632812 17.773438 41.609375 C 17.738281 41.628906 17.695312 41.636719 17.65625 41.632812 C 17.40625 41.351562 17.101562 41.273438 16.742188 41.40625 C 16.585938 41.488281 16.425781 41.566406 16.261719 41.632812 C 16.171875 41.609375 16.074219 41.601562 15.972656 41.609375 C 15.96875 40.296875 15.972656 38.984375 15.988281 37.675781 C 16.332031 38.605469 16.671875 39.535156 17.007812 40.46875 C 17.84375 40.472656 18.679688 40.488281 19.515625 40.507812 C 20.417969 42.457031 21.308594 44.414062 22.191406 46.375 C 22.183594 46.398438 22.164062 46.414062 22.144531 46.421875 C 21.117188 46.660156 20.09375 46.894531 19.070312 47.132812 Z M 19.070312 47.132812 "/>
</g>
<mask id="mask10">
  <g filter="url(#alpha)">
<rect x="0" y="0" width="50" height="50" style="fill:rgb(0%,0%,0%);fill-opacity:0.976471;stroke:none;"/>
  </g>
</mask>
<clipPath id="clip11">
  <rect width="50" height="50"/>
</clipPath>
<g id="surface36" clip-path="url(#clip11)">
<path style=" stroke:none;fill-rule:evenodd;fill:rgb(0.392157%,0.392157%,0.392157%);fill-opacity:1;" d="M 42.691406 39.738281 C 42.6875 39.988281 42.699219 40.234375 42.714844 40.484375 C 42.953125 40.464844 43.1875 40.414062 43.410156 40.328125 C 43.523438 40.308594 43.632812 40.296875 43.746094 40.289062 C 43.851562 40.332031 43.957031 40.378906 44.058594 40.433594 C 44.058594 40.449219 44.066406 40.457031 44.082031 40.457031 C 44.171875 40.570312 44.246094 40.691406 44.3125 40.820312 C 44.410156 41.175781 44.519531 41.527344 44.648438 41.875 C 45.050781 42.761719 45.464844 43.640625 45.894531 44.515625 C 45.945312 44.621094 46 44.726562 46.0625 44.828125 C 46.207031 44.933594 46.328125 45.058594 46.421875 45.210938 C 46.480469 45.394531 46.464844 45.570312 46.375 45.738281 C 46.308594 45.800781 46.25 45.867188 46.195312 45.929688 C 45.695312 46.070312 45.339844 45.902344 45.128906 45.425781 C 44.769531 44.289062 44.402344 43.152344 44.023438 42.019531 C 43.953125 41.742188 43.90625 41.460938 43.878906 41.179688 C 43.855469 40.972656 43.742188 40.851562 43.542969 40.820312 C 43.355469 40.855469 43.164062 40.902344 42.980469 40.949219 C 42.785156 40.972656 42.59375 40.964844 42.402344 40.925781 C 42.359375 40.898438 42.324219 40.863281 42.292969 40.820312 C 42.191406 40.21875 42.199219 39.617188 42.320312 39.019531 C 42.460938 38.628906 42.589844 38.238281 42.703125 37.84375 C 42.859375 37.753906 42.976562 37.785156 43.0625 37.9375 C 43.078125 37.992188 43.078125 38.050781 43.0625 38.105469 C 42.980469 38.421875 42.886719 38.734375 42.773438 39.042969 C 42.730469 39.273438 42.703125 39.503906 42.691406 39.738281 Z M 42.691406 39.738281 "/>
</g>
<mask id="mask11">
  <g filter="url(#alpha)">
<rect x="0" y="0" width="50" height="50" style="fill:rgb(0%,0%,0%);fill-opacity:0.992157;stroke:none;"/>
  </g>
</mask>
<clipPath id="clip12">
  <rect width="50" height="50"/>
</clipPath>
<g id="surface39" clip-path="url(#clip12)">
<path style=" stroke:none;fill-rule:evenodd;fill:rgb(99.607843%,99.607843%,99.607843%);fill-opacity:1;" d="M 46.195312 45.929688 C 46.25 45.867188 46.308594 45.800781 46.375 45.738281 C 46.464844 45.570312 46.480469 45.394531 46.421875 45.210938 C 46.328125 45.058594 46.207031 44.933594 46.0625 44.828125 C 46 44.726562 45.945312 44.621094 45.894531 44.515625 C 45.464844 43.640625 45.050781 42.761719 44.648438 41.875 C 44.519531 41.527344 44.410156 41.175781 44.3125 40.820312 C 44.246094 40.691406 44.171875 40.570312 44.082031 40.457031 C 44.066406 40.457031 44.058594 40.449219 44.058594 40.433594 C 44.046875 40.363281 44.019531 40.296875 43.988281 40.230469 C 43.898438 40.226562 43.820312 40.25 43.746094 40.289062 C 43.632812 40.296875 43.523438 40.308594 43.410156 40.328125 C 43.1875 40.414062 42.953125 40.464844 42.714844 40.484375 C 42.699219 40.234375 42.6875 39.988281 42.691406 39.738281 C 42.855469 39.125 43.023438 38.507812 43.195312 37.890625 C 43.597656 38.410156 44 38.933594 44.394531 39.460938 C 45.027344 39.320312 45.660156 39.171875 46.292969 39.007812 C 46.332031 38.988281 46.371094 38.988281 46.410156 39.007812 C 47.410156 40.65625 48.40625 42.308594 49.398438 43.964844 C 49.414062 44 49.398438 44.027344 49.363281 44.046875 C 48.371094 44.828125 47.382812 45.613281 46.398438 46.410156 C 46.324219 46.253906 46.257812 46.09375 46.195312 45.929688 Z M 44.058594 40.433594 C 43.957031 40.378906 43.851562 40.332031 43.746094 40.289062 C 43.820312 40.25 43.898438 40.226562 43.988281 40.230469 C 44.019531 40.296875 44.046875 40.363281 44.058594 40.433594 Z M 44.058594 40.433594 "/>
</g>
<mask id="mask12">
  <g filter="url(#alpha)">
<rect x="0" y="0" width="50" height="50" style="fill:rgb(0%,0%,0%);fill-opacity:0.988235;stroke:none;"/>
  </g>
</mask>
<clipPath id="clip13">
  <rect width="50" height="50"/>
</clipPath>
<g id="surface42" clip-path="url(#clip13)">
<path style=" stroke:none;fill-rule:evenodd;fill:rgb(94.509804%,92.941176%,90.196078%);fill-opacity:1;" d="M 35.152344 45.667969 C 35.3125 45.648438 35.472656 45.621094 35.632812 45.582031 C 35.882812 45.445312 35.992188 45.234375 35.957031 44.945312 C 35.917969 44.8125 35.847656 44.699219 35.753906 44.597656 C 35.804688 44.460938 35.863281 44.332031 35.933594 44.203125 C 36.121094 43.90625 36.320312 43.617188 36.535156 43.339844 C 36.984375 42.785156 37.421875 42.226562 37.855469 41.660156 C 38.101562 41.339844 38.257812 40.980469 38.320312 40.578125 C 38.3125 40.300781 38.167969 40.152344 37.890625 40.132812 C 37.699219 40.140625 37.507812 40.140625 37.3125 40.132812 C 37.261719 40.121094 37.238281 40.089844 37.242188 40.039062 C 37.265625 39.957031 37.300781 39.882812 37.351562 39.808594 C 37.429688 39.691406 37.515625 39.578125 37.613281 39.472656 C 37.910156 39.1875 38.210938 38.910156 38.515625 38.632812 C 38.671875 38.515625 38.832031 38.394531 38.996094 38.273438 C 39.039062 38.976562 39.074219 39.683594 39.101562 40.386719 C 39.105469 40.429688 39.117188 40.46875 39.136719 40.507812 C 39.605469 40.859375 40.058594 41.222656 40.507812 41.597656 C 39.144531 43.671875 37.773438 45.738281 36.402344 47.804688 C 35.980469 47.097656 35.5625 46.382812 35.152344 45.667969 Z M 35.152344 45.667969 "/>
</g>
<mask id="mask13">
  <g filter="url(#alpha)">
<rect x="0" y="0" width="50" height="50" style="fill:rgb(0%,0%,0%);fill-opacity:0.972549;stroke:none;"/>
  </g>
</mask>
<clipPath id="clip14">
  <rect width="50" height="50"/>
</clipPath>
<g id="surface45" clip-path="url(#clip14)">
<path style=" stroke:none;fill-rule:evenodd;fill:rgb(0%,0%,0%);fill-opacity:1;" d="M 16.261719 41.632812 C 16.425781 41.566406 16.585938 41.488281 16.742188 41.40625 C 17.101562 41.273438 17.40625 41.351562 17.65625 41.632812 C 17.710938 41.722656 17.753906 41.820312 17.785156 41.921875 C 17.835938 42.148438 17.890625 42.375 17.941406 42.59375 C 17.9375 42.640625 17.945312 42.679688 17.96875 42.714844 C 17.96875 42.753906 17.96875 42.792969 17.96875 42.835938 C 17.984375 42.835938 17.992188 42.84375 17.992188 42.859375 C 18.125 44.191406 18.394531 45.496094 18.796875 46.769531 C 18.917969 46.867188 19.011719 46.988281 19.070312 47.132812 C 19.109375 47.285156 19.089844 47.425781 19.011719 47.5625 C 18.898438 47.699219 18.769531 47.808594 18.613281 47.886719 C 18.328125 47.984375 18.09375 47.914062 17.90625 47.683594 C 17.832031 47.503906 17.777344 47.320312 17.738281 47.132812 C 17.652344 46.597656 17.582031 46.0625 17.523438 45.523438 C 17.40625 44.339844 17.3125 43.15625 17.234375 41.972656 C 17.203125 41.882812 17.136719 41.835938 17.042969 41.828125 C 16.847656 41.894531 16.660156 41.976562 16.480469 42.078125 C 15.75 42.34375 15.371094 42.089844 15.339844 41.324219 C 15.261719 40.359375 15.292969 39.398438 15.433594 38.441406 C 15.472656 38.367188 15.539062 38.335938 15.625 38.347656 C 15.746094 38.347656 15.816406 38.40625 15.832031 38.527344 C 15.746094 39.230469 15.738281 39.933594 15.804688 40.636719 C 15.785156 40.898438 15.78125 41.160156 15.792969 41.417969 C 15.847656 41.714844 16 41.785156 16.261719 41.632812 Z M 16.261719 41.632812 "/>
</g>
<mask id="mask14">
  <g filter="url(#alpha)">
<rect x="0" y="0" width="50" height="50" style="fill:rgb(0%,0%,0%);fill-opacity:0.980392;stroke:none;"/>
  </g>
</mask>
<clipPath id="clip15">
  <rect width="50" height="50"/>
</clipPath>
<g id="surface48" clip-path="url(#clip15)">
<path style=" stroke:none;fill-rule:evenodd;fill:rgb(0.784314%,0.784314%,0.784314%);fill-opacity:1;" d="M 38.515625 38.632812 C 38.210938 38.910156 37.910156 39.1875 37.613281 39.472656 C 37.515625 39.578125 37.429688 39.691406 37.351562 39.808594 C 37.300781 39.882812 37.265625 39.957031 37.242188 40.039062 C 37.238281 40.089844 37.261719 40.121094 37.3125 40.132812 C 37.507812 40.140625 37.699219 40.140625 37.890625 40.132812 C 38.167969 40.152344 38.3125 40.300781 38.320312 40.578125 C 38.257812 40.980469 38.101562 41.339844 37.855469 41.660156 C 37.421875 42.226562 36.984375 42.785156 36.535156 43.339844 C 36.320312 43.617188 36.121094 43.90625 35.933594 44.203125 C 35.863281 44.332031 35.804688 44.460938 35.753906 44.597656 C 35.847656 44.699219 35.917969 44.8125 35.957031 44.945312 C 35.992188 45.234375 35.882812 45.445312 35.632812 45.582031 C 35.472656 45.621094 35.3125 45.648438 35.152344 45.667969 C 34.632812 45.605469 34.417969 45.320312 34.515625 44.804688 C 34.542969 44.742188 34.574219 44.6875 34.613281 44.636719 C 35.023438 44.234375 35.410156 43.808594 35.765625 43.363281 C 36.078125 43.023438 36.402344 42.695312 36.738281 42.378906 C 37.167969 42.007812 37.566406 41.601562 37.925781 41.15625 C 38.039062 40.988281 38.097656 40.800781 38.09375 40.601562 C 38.007812 40.484375 37.902344 40.453125 37.769531 40.507812 C 37.550781 40.582031 37.324219 40.59375 37.097656 40.542969 C 36.917969 40.480469 36.804688 40.355469 36.761719 40.171875 C 36.757812 40.089844 36.765625 40.007812 36.785156 39.929688 C 36.875 39.707031 36.996094 39.507812 37.15625 39.332031 C 37.5 38.988281 37.855469 38.664062 38.226562 38.359375 C 38.460938 38.308594 38.558594 38.402344 38.515625 38.632812 Z M 38.515625 38.632812 "/>
</g>
<mask id="mask15">
  <g filter="url(#alpha)">
<rect x="0" y="0" width="50" height="50" style="fill:rgb(0%,0%,0%);fill-opacity:0.980392;stroke:none;"/>
  </g>
</mask>
<clipPath id="clip16">
  <rect width="50" height="50"/>
</clipPath>
<g id="surface51" clip-path="url(#clip16)">
<path style=" stroke:none;fill-rule:evenodd;fill:rgb(0%,0%,0%);fill-opacity:1;" d="M 11.917969 40.699219 C 11.726562 41.117188 11.574219 41.546875 11.460938 41.996094 C 11.414062 42.148438 11.367188 42.300781 11.316406 42.449219 C 11.242188 42.554688 11.210938 42.664062 11.222656 42.785156 C 11.382812 42.71875 11.527344 42.625 11.652344 42.511719 C 11.804688 42.355469 11.957031 42.210938 12.109375 42.066406 C 12.28125 41.871094 12.496094 41.761719 12.757812 41.730469 C 13.304688 41.699219 13.539062 41.953125 13.464844 42.5 C 13.074219 43.871094 12.722656 45.257812 12.410156 46.652344 C 12.222656 47.296875 12.023438 47.9375 11.808594 48.570312 C 11.792969 48.667969 11.792969 48.765625 11.808594 48.859375 C 11.894531 48.953125 11.957031 49.054688 11.988281 49.171875 C 12.011719 49.351562 11.96875 49.511719 11.859375 49.652344 C 11.773438 49.734375 11.691406 49.820312 11.605469 49.902344 C 11.53125 49.933594 11.460938 49.964844 11.390625 49.988281 C 11.359375 49.988281 11.324219 49.988281 11.292969 49.988281 C 10.863281 49.871094 10.660156 49.589844 10.695312 49.136719 C 10.699219 48.765625 10.777344 48.410156 10.921875 48.066406 C 11.148438 47.578125 11.355469 47.082031 11.546875 46.578125 C 11.878906 45.515625 12.214844 44.449219 12.554688 43.386719 C 12.671875 43.070312 12.796875 42.757812 12.925781 42.449219 C 12.988281 42.402344 13.007812 42.339844 12.984375 42.257812 C 12.898438 42.210938 12.808594 42.199219 12.710938 42.222656 C 12.53125 42.308594 12.382812 42.425781 12.253906 42.570312 C 12.046875 42.796875 11.816406 42.992188 11.558594 43.160156 C 11.316406 43.300781 11.0625 43.339844 10.789062 43.277344 C 10.738281 43.257812 10.703125 43.21875 10.683594 43.171875 C 10.667969 43.082031 10.664062 42.996094 10.667969 42.90625 C 10.753906 42.613281 10.839844 42.316406 10.933594 42.019531 C 11.144531 41.363281 11.371094 40.71875 11.617188 40.074219 C 11.6875 39.757812 11.765625 39.449219 11.859375 39.136719 C 11.960938 38.789062 12.1875 38.582031 12.542969 38.515625 C 12.660156 38.519531 12.726562 38.585938 12.734375 38.707031 C 12.726562 38.84375 12.65625 38.929688 12.519531 38.957031 C 12.441406 39.03125 12.382812 39.117188 12.339844 39.210938 C 12.246094 39.527344 12.167969 39.847656 12.097656 40.171875 C 12.039062 40.347656 11.980469 40.523438 11.917969 40.699219 Z M 11.917969 40.699219 "/>
</g>
<mask id="mask16">
  <g filter="url(#alpha)">
<rect x="0" y="0" width="50" height="50" style="fill:rgb(0%,0%,0%);fill-opacity:0.87451;stroke:none;"/>
  </g>
</mask>
<clipPath id="clip17">
  <rect width="50" height="50"/>
</clipPath>
<g id="surface54" clip-path="url(#clip17)">
<path style=" stroke:none;fill-rule:evenodd;fill:rgb(77.254902%,76.470588%,78.039216%);fill-opacity:1;" d="M 11.460938 41.996094 C 11.574219 41.546875 11.726562 41.117188 11.917969 40.699219 C 12.4375 40.023438 12.960938 39.351562 13.488281 38.683594 C 13.496094 38.691406 13.5 38.699219 13.503906 38.707031 C 12.828125 39.808594 12.148438 40.902344 11.460938 41.996094 Z M 11.460938 41.996094 "/>
</g>
<mask id="mask17">
  <g filter="url(#alpha)">
<rect x="0" y="0" width="50" height="50" style="fill:rgb(0%,0%,0%);fill-opacity:0.74902;stroke:none;"/>
  </g>
</mask>
<clipPath id="clip18">
  <rect width="50" height="50"/>
</clipPath>
<g id="surface57" clip-path="url(#clip18)">
<path style=" stroke:none;fill-rule:evenodd;fill:rgb(94.509804%,93.333333%,90.196078%);fill-opacity:1;" d="M 36.785156 39.929688 C 36.765625 40.007812 36.757812 40.089844 36.761719 40.171875 C 36.695312 40.148438 36.628906 40.121094 36.570312 40.085938 C 36.644531 40.035156 36.714844 39.980469 36.785156 39.929688 Z M 36.785156 39.929688 "/>
</g>
<mask id="mask18">
  <g filter="url(#alpha)">
<rect x="0" y="0" width="50" height="50" style="fill:rgb(0%,0%,0%);fill-opacity:0.921569;stroke:none;"/>
  </g>
</mask>
<clipPath id="clip19">
  <rect width="50" height="50"/>
</clipPath>
<g id="surface60" clip-path="url(#clip19)">
<path style=" stroke:none;fill-rule:evenodd;fill:rgb(92.54902%,90.980392%,88.235294%);fill-opacity:1;" d="M 37.769531 40.507812 C 37.902344 40.453125 38.007812 40.484375 38.09375 40.601562 C 38.097656 40.800781 38.039062 40.988281 37.925781 41.15625 C 37.566406 41.601562 37.167969 42.007812 36.738281 42.378906 C 37.175781 41.789062 37.613281 41.199219 38.058594 40.613281 C 37.96875 40.566406 37.871094 40.53125 37.769531 40.507812 Z M 37.769531 40.507812 "/>
</g>
<mask id="mask19">
  <g filter="url(#alpha)">
<rect x="0" y="0" width="50" height="50" style="fill:rgb(0%,0%,0%);fill-opacity:0.992157;stroke:none;"/>
  </g>
</mask>
<clipPath id="clip20">
  <rect width="50" height="50"/>
</clipPath>
<g id="surface63" clip-path="url(#clip20)">
<path style=" stroke:none;fill-rule:evenodd;fill:rgb(77.647059%,76.862745%,78.431373%);fill-opacity:1;" d="M 11.988281 49.171875 C 11.957031 49.054688 11.894531 48.953125 11.808594 48.859375 C 11.792969 48.765625 11.792969 48.667969 11.808594 48.570312 C 12.023438 47.9375 12.222656 47.296875 12.410156 46.652344 C 12.722656 45.257812 13.074219 43.871094 13.464844 42.5 C 13.539062 41.953125 13.304688 41.699219 12.757812 41.730469 C 13.226562 41.476562 13.695312 41.230469 14.175781 40.988281 C 14.183594 41.011719 14.191406 41.035156 14.199219 41.058594 C 14.347656 43.542969 14.472656 46.027344 14.582031 48.511719 C 13.71875 48.738281 12.855469 48.960938 11.988281 49.171875 Z M 11.988281 49.171875 "/>
</g>
<mask id="mask20">
  <g filter="url(#alpha)">
<rect x="0" y="0" width="50" height="50" style="fill:rgb(0%,0%,0%);fill-opacity:0.905882;stroke:none;"/>
  </g>
</mask>
<clipPath id="clip21">
  <rect width="50" height="50"/>
</clipPath>
<g id="surface66" clip-path="url(#clip21)">
<path style=" stroke:none;fill-rule:evenodd;fill:rgb(77.254902%,76.470588%,78.039216%);fill-opacity:1;" d="M 10.933594 42.019531 C 10.839844 42.316406 10.753906 42.613281 10.667969 42.90625 C 10.527344 42.9375 10.382812 42.972656 10.238281 43.003906 C 10.222656 42.996094 10.207031 42.988281 10.191406 42.980469 C 10.425781 42.648438 10.675781 42.328125 10.933594 42.019531 Z M 10.933594 42.019531 "/>
</g>
<mask id="mask21">
  <g filter="url(#alpha)">
<rect x="0" y="0" width="50" height="50" style="fill:rgb(0%,0%,0%);fill-opacity:0.92549;stroke:none;"/>
  </g>
</mask>
<clipPath id="clip22">
  <rect width="50" height="50"/>
</clipPath>
<g id="surface69" clip-path="url(#clip22)">
<path style=" stroke:none;fill-rule:evenodd;fill:rgb(75.686275%,74.901961%,76.470588%);fill-opacity:1;" d="M 12.109375 42.066406 C 11.957031 42.210938 11.804688 42.355469 11.652344 42.511719 C 11.527344 42.625 11.382812 42.71875 11.222656 42.785156 C 11.210938 42.664062 11.242188 42.554688 11.316406 42.449219 C 11.578125 42.316406 11.84375 42.1875 12.109375 42.066406 Z M 12.109375 42.066406 "/>
</g>
<mask id="mask22">
  <g filter="url(#alpha)">
<rect x="0" y="0" width="50" height="50" style="fill:rgb(0%,0%,0%);fill-opacity:0.941176;stroke:none;"/>
  </g>
</mask>
<clipPath id="clip23">
  <rect width="50" height="50"/>
</clipPath>
<g id="surface72" clip-path="url(#clip23)">
<path style=" stroke:none;fill-rule:evenodd;fill:rgb(75.686275%,74.901961%,76.470588%);fill-opacity:1;" d="M 12.925781 42.449219 C 12.703125 42.492188 12.476562 42.53125 12.253906 42.570312 C 12.382812 42.425781 12.53125 42.308594 12.710938 42.222656 C 12.808594 42.199219 12.898438 42.210938 12.984375 42.257812 C 13.007812 42.339844 12.988281 42.402344 12.925781 42.449219 Z M 12.925781 42.449219 "/>
</g>
</defs>
<g id="surface1">
<use xlink:href="#surface6" mask="url(#mask0)"/>
<path style=" stroke:none;fill-rule:evenodd;fill:rgb(99.607843%,99.607843%,99.607843%);fill-opacity:1;" d="M 42.761719 20.558594 C 42.917969 21.539062 43.085938 22.515625 43.265625 23.488281 C 43.375 24.398438 43.476562 25.3125 43.566406 26.222656 C 43.589844 26.730469 43.574219 27.234375 43.519531 27.738281 C 43.5 27.78125 43.472656 27.816406 43.433594 27.84375 C 41.660156 28.261719 39.859375 28.445312 38.035156 28.398438 C 37.484375 28.433594 36.929688 28.460938 36.378906 28.480469 C 36.296875 26.457031 36.117188 24.4375 35.835938 22.429688 C 35.683594 21.292969 35.417969 20.179688 35.046875 19.09375 C 34.074219 16.660156 32.753906 14.441406 31.085938 12.445312 C 29.453125 10.589844 27.570312 9.058594 25.433594 7.847656 C 24.386719 7.410156 23.332031 7.386719 22.261719 7.777344 C 21.238281 8.179688 20.308594 8.742188 19.480469 9.457031 C 18.511719 10.292969 17.636719 11.207031 16.851562 12.207031 C 15.378906 14.078125 14.121094 16.09375 13.082031 18.253906 C 12.789062 18.941406 12.582031 19.652344 12.457031 20.390625 C 12.25 21.726562 12.171875 23.070312 12.21875 24.425781 C 12.273438 26.289062 12.429688 28.144531 12.6875 29.992188 C 12.351562 29.96875 12.015625 29.96875 11.679688 29.992188 C 11.402344 29.996094 11.128906 29.96875 10.863281 29.910156 C 10.261719 29.902344 9.660156 29.894531 9.0625 29.886719 C 8.894531 29.867188 8.734375 29.828125 8.582031 29.765625 C 8.496094 29.710938 8.429688 29.644531 8.378906 29.5625 C 8.359375 29.070312 8.308594 28.582031 8.222656 28.097656 C 8.222656 28.027344 8.234375 27.960938 8.246094 27.890625 C 7.691406 25.191406 7.53125 22.46875 7.765625 19.71875 C 7.929688 18.625 8.230469 17.570312 8.664062 16.550781 C 9.03125 15.679688 9.457031 14.839844 9.9375 14.03125 C 10.34375 13.195312 10.765625 12.371094 11.210938 11.558594 C 11.628906 10.921875 12.078125 10.304688 12.554688 9.710938 C 13.203125 8.933594 13.851562 8.15625 14.5 7.382812 C 14.910156 6.925781 15.347656 6.5 15.804688 6.097656 C 16.050781 5.921875 16.296875 5.753906 16.550781 5.59375 C 17.308594 5.195312 18.0625 4.789062 18.808594 4.367188 C 19.699219 3.890625 20.636719 3.523438 21.617188 3.265625 C 22.589844 3.007812 23.574219 2.789062 24.566406 2.617188 C 25.734375 2.453125 26.871094 2.570312 27.976562 2.976562 C 29.671875 3.554688 31.3125 4.257812 32.898438 5.089844 C 34.972656 6.265625 36.839844 7.71875 38.503906 9.445312 C 39.644531 10.675781 40.507812 12.082031 41.09375 13.671875 C 41.433594 14.589844 41.710938 15.523438 41.933594 16.480469 C 42.226562 17.835938 42.503906 19.195312 42.761719 20.558594 Z M 42.761719 20.558594 "/>
<use xlink:href="#surface9" mask="url(#mask1)"/>
<path style=" stroke:none;fill-rule:evenodd;fill:rgb(62.745098%,56.862745%,58.823529%);fill-opacity:1;" d="M 36.378906 28.480469 C 36.015625 28.492188 35.65625 28.476562 35.296875 28.433594 C 35.265625 27.875 35.242188 27.3125 35.238281 26.753906 C 35.222656 26.65625 35.207031 26.558594 35.191406 26.464844 C 34.875 25.324219 34.546875 24.1875 34.207031 23.054688 C 33.816406 21.488281 33.375 19.9375 32.886719 18.398438 C 32.183594 16.410156 31.050781 14.707031 29.488281 13.296875 C 28.410156 12.410156 27.199219 11.738281 25.863281 11.28125 C 25.195312 11.054688 24.507812 10.957031 23.800781 10.992188 C 22.636719 11.246094 21.484375 11.53125 20.34375 11.859375 C 19.625 12.070312 19.027344 12.46875 18.554688 13.046875 C 18.066406 13.742188 17.578125 14.4375 17.089844 15.132812 C 17.019531 15.265625 16.957031 15.402344 16.898438 15.542969 C 16.683594 16.207031 16.464844 16.871094 16.25 17.535156 C 15.996094 18.148438 15.761719 18.773438 15.554688 19.40625 C 15.152344 20.972656 15.054688 22.558594 15.265625 24.160156 C 15.269531 25.28125 15.285156 26.402344 15.3125 27.519531 C 15.347656 27.753906 15.378906 27.984375 15.410156 28.214844 C 15.597656 29.0625 15.769531 29.910156 15.925781 30.761719 C 15.914062 30.875 15.898438 30.984375 15.878906 31.097656 C 15.699219 31.007812 15.515625 30.929688 15.328125 30.867188 C 14.988281 30.789062 14.652344 30.699219 14.316406 30.605469 C 13.972656 30.460938 13.628906 30.308594 13.285156 30.148438 C 13.089844 30.078125 12.890625 30.027344 12.6875 29.992188 C 12.429688 28.144531 12.273438 26.289062 12.21875 24.425781 C 12.171875 23.070312 12.25 21.726562 12.457031 20.390625 C 12.582031 19.652344 12.789062 18.941406 13.082031 18.253906 C 14.121094 16.09375 15.378906 14.078125 16.851562 12.207031 C 17.636719 11.207031 18.511719 10.292969 19.480469 9.457031 C 20.308594 8.742188 21.238281 8.179688 22.261719 7.777344 C 23.332031 7.386719 24.386719 7.410156 25.433594 7.847656 C 27.570312 9.058594 29.453125 10.589844 31.085938 12.445312 C 32.753906 14.441406 34.074219 16.660156 35.046875 19.09375 C 35.417969 20.179688 35.683594 21.292969 35.835938 22.429688 C 36.117188 24.4375 36.296875 26.457031 36.378906 28.480469 Z M 36.378906 28.480469 "/>
<path style=" stroke:none;fill-rule:evenodd;fill:rgb(94.509804%,94.509804%,94.509804%);fill-opacity:1;" d="M 26.03125 12.183594 C 26.023438 12.195312 26.007812 12.203125 25.984375 12.207031 C 25.269531 12.027344 24.546875 11.890625 23.824219 11.796875 C 24.589844 11.75 25.328125 11.878906 26.03125 12.183594 Z M 26.03125 12.183594 "/>
<use xlink:href="#surface12" mask="url(#mask2)"/>
<use xlink:href="#surface15" mask="url(#mask3)"/>
<path style=" stroke:none;fill-rule:evenodd;fill:rgb(98.823529%,98.431373%,98.823529%);fill-opacity:1;" d="M 18.230469 14.964844 C 17.335938 17.726562 16.628906 20.542969 16.105469 23.414062 C 16.09375 23.296875 16.089844 23.175781 16.09375 23.054688 C 16.140625 21.824219 16.253906 20.601562 16.429688 19.382812 C 16.484375 19.164062 16.550781 18.945312 16.632812 18.734375 C 16.855469 18.191406 17.070312 17.648438 17.28125 17.101562 C 17.402344 16.699219 17.53125 16.300781 17.667969 15.902344 C 17.832031 15.574219 18.019531 15.261719 18.230469 14.964844 Z M 18.230469 14.964844 "/>
<path style=" stroke:none;fill-rule:evenodd;fill:rgb(61.176471%,55.686275%,57.647059%);fill-opacity:1;" d="M 16.429688 19.382812 C 16.253906 20.601562 16.140625 21.824219 16.09375 23.054688 C 16.070312 23.46875 16.0625 23.882812 16.070312 24.304688 C 16.070312 24.351562 16.070312 24.398438 16.070312 24.449219 C 16.019531 23.867188 15.972656 23.285156 15.9375 22.695312 C 15.898438 21.558594 16.0625 20.453125 16.429688 19.382812 Z M 16.429688 19.382812 "/>
<use xlink:href="#surface18" mask="url(#mask4)"/>
<path style=" stroke:none;fill-rule:evenodd;fill:rgb(69.411765%,69.019608%,70.196078%);fill-opacity:1;" d="M 42.761719 20.558594 C 43.015625 21.519531 43.183594 22.496094 43.265625 23.488281 C 43.085938 22.515625 42.917969 21.539062 42.761719 20.558594 Z M 42.761719 20.558594 "/>
<use xlink:href="#surface21" mask="url(#mask5)"/>
<path style=" stroke:none;fill-rule:evenodd;fill:rgb(99.607843%,99.607843%,99.607843%);fill-opacity:1;" d="M 44.011719 29.992188 C 44.023438 30.800781 44.03125 31.609375 44.035156 32.417969 C 44.03125 32.953125 43.972656 33.480469 43.855469 34 C 43.734375 34.296875 43.523438 34.492188 43.21875 34.589844 C 42.859375 34.683594 42.496094 34.71875 42.125 34.699219 C 41.523438 34.6875 40.917969 34.660156 40.3125 34.613281 C 39.015625 34.566406 37.726562 34.664062 36.449219 34.914062 C 36.460938 33.03125 36.445312 31.152344 36.402344 29.273438 C 36.488281 29.28125 36.566406 29.273438 36.640625 29.25 C 37.929688 29.1875 39.21875 29.136719 40.507812 29.09375 C 41.566406 28.988281 42.613281 28.820312 43.652344 28.589844 C 43.765625 28.570312 43.875 28.53125 43.976562 28.480469 C 43.988281 28.765625 43.984375 29.046875 43.964844 29.332031 C 43.972656 29.554688 43.988281 29.773438 44.011719 29.992188 Z M 44.011719 29.992188 "/>
<use xlink:href="#surface24" mask="url(#mask6)"/>
<path style=" stroke:none;fill-rule:evenodd;fill:rgb(62.745098%,56.862745%,58.823529%);fill-opacity:1;" d="M 36.640625 29.25 C 36.566406 29.273438 36.488281 29.28125 36.402344 29.273438 C 36.445312 31.152344 36.460938 33.03125 36.449219 34.914062 C 36.410156 34.921875 36.378906 34.910156 36.355469 34.890625 C 36.28125 34.324219 36.183594 33.761719 36.066406 33.210938 C 35.828125 31.886719 35.601562 30.558594 35.394531 29.226562 C 35.808594 29.246094 36.226562 29.253906 36.640625 29.25 Z M 36.640625 29.25 "/>
<path style=" stroke:none;fill-rule:evenodd;fill:rgb(66.27451%,65.490196%,66.666667%);fill-opacity:1;" d="M 44.011719 29.992188 C 44.039062 30.125 44.058594 30.261719 44.070312 30.402344 C 44.085938 30.984375 44.085938 31.570312 44.070312 32.152344 C 44.066406 32.246094 44.054688 32.332031 44.035156 32.417969 C 44.03125 31.609375 44.023438 30.800781 44.011719 29.992188 Z M 44.011719 29.992188 "/>
<path style=" stroke:none;fill-rule:evenodd;fill:rgb(99.607843%,99.607843%,99.607843%);fill-opacity:1;" d="M 8.199219 30.472656 C 8.394531 30.578125 8.601562 30.644531 8.820312 30.675781 C 9.375 30.683594 9.925781 30.691406 10.476562 30.699219 C 11.15625 30.789062 11.835938 30.8125 12.519531 30.773438 C 12.617188 30.785156 12.710938 30.804688 12.804688 30.832031 C 13.085938 32.582031 13.398438 34.328125 13.742188 36.066406 C 13.042969 36.152344 12.335938 36.195312 11.628906 36.199219 C 10.753906 36.320312 9.875 36.359375 8.988281 36.316406 C 8.867188 36.285156 8.785156 36.207031 8.738281 36.089844 C 8.667969 35.894531 8.621094 35.695312 8.605469 35.488281 C 8.582031 35.195312 8.550781 34.898438 8.519531 34.601562 C 8.515625 34.570312 8.503906 34.546875 8.484375 34.53125 C 8.476562 34.191406 8.453125 33.855469 8.414062 33.519531 C 8.417969 33.433594 8.414062 33.34375 8.402344 33.257812 C 8.394531 33.226562 8.382812 33.203125 8.367188 33.183594 C 8.347656 33.082031 8.339844 32.976562 8.339844 32.875 C 8.308594 32.308594 8.25 31.746094 8.171875 31.191406 C 8.164062 30.949219 8.171875 30.707031 8.199219 30.472656 Z M 8.199219 30.472656 "/>
<path style=" stroke:none;fill-rule:evenodd;fill:rgb(49.803922%,49.411765%,49.803922%);fill-opacity:1;" d="M 8.199219 30.472656 C 8.171875 30.707031 8.164062 30.949219 8.171875 31.191406 C 8.171875 31.304688 8.171875 31.417969 8.171875 31.527344 C 8.140625 31.171875 8.140625 30.8125 8.171875 30.449219 C 8.1875 30.453125 8.195312 30.460938 8.199219 30.472656 Z M 8.199219 30.472656 "/>
<path style=" stroke:none;fill-rule:evenodd;fill:rgb(62.745098%,56.862745%,58.823529%);fill-opacity:1;" d="M 12.804688 30.832031 C 13.160156 30.972656 13.511719 31.121094 13.863281 31.277344 C 14.421875 31.441406 14.972656 31.625 15.519531 31.828125 C 15.691406 31.871094 15.871094 31.910156 16.046875 31.9375 C 16.082031 32.113281 16.125 32.289062 16.179688 32.464844 C 16.441406 33.167969 16.671875 33.878906 16.875 34.601562 C 16.949219 34.875 16.972656 35.15625 16.945312 35.441406 C 16.894531 35.558594 16.8125 35.640625 16.695312 35.695312 C 16.300781 35.792969 15.898438 35.875 15.496094 35.933594 C 14.910156 35.988281 14.328125 36.03125 13.742188 36.066406 C 13.398438 34.328125 13.085938 32.582031 12.804688 30.832031 Z M 12.804688 30.832031 "/>
<path style=" stroke:none;fill-rule:evenodd;fill:rgb(74.901961%,74.117647%,75.686275%);fill-opacity:1;" d="M 8.171875 31.191406 C 8.25 31.746094 8.308594 32.308594 8.339844 32.875 C 8.25 32.433594 8.195312 31.984375 8.171875 31.527344 C 8.171875 31.417969 8.171875 31.304688 8.171875 31.191406 Z M 8.171875 31.191406 "/>
<path style=" stroke:none;fill-rule:evenodd;fill:rgb(65.490196%,65.098039%,65.882353%);fill-opacity:1;" d="M 8.367188 33.183594 C 8.382812 33.203125 8.394531 33.226562 8.402344 33.257812 C 8.414062 33.34375 8.417969 33.433594 8.414062 33.519531 C 8.390625 33.414062 8.375 33.300781 8.367188 33.183594 Z M 8.367188 33.183594 "/>
<path style=" stroke:none;fill-rule:evenodd;fill:rgb(93.333333%,92.941176%,93.333333%);fill-opacity:1;" d="M 36.066406 33.210938 C 36.183594 33.761719 36.28125 34.324219 36.355469 34.890625 C 36.277344 34.820312 36.230469 34.734375 36.222656 34.625 C 36.175781 34.152344 36.125 33.679688 36.066406 33.210938 Z M 36.066406 33.210938 "/>
<use xlink:href="#surface27" mask="url(#mask7)"/>
<path style=" stroke:none;fill-rule:evenodd;fill:rgb(72.54902%,71.764706%,73.333333%);fill-opacity:1;" d="M 8.484375 34.53125 C 8.503906 34.546875 8.515625 34.570312 8.519531 34.601562 C 8.550781 34.898438 8.582031 35.195312 8.605469 35.488281 C 8.539062 35.175781 8.5 34.855469 8.484375 34.53125 Z M 8.484375 34.53125 "/>
<use xlink:href="#surface30" mask="url(#mask8)"/>
<use xlink:href="#surface33" mask="url(#mask9)"/>
<use xlink:href="#surface36" mask="url(#mask10)"/>
<use xlink:href="#surface39" mask="url(#mask11)"/>
<use xlink:href="#surface42" mask="url(#mask12)"/>
<use xlink:href="#surface45" mask="url(#mask13)"/>
<use xlink:href="#surface48" mask="url(#mask14)"/>
<use xlink:href="#surface51" mask="url(#mask15)"/>
<use xlink:href="#surface54" mask="url(#mask16)"/>
<use xlink:href="#surface57" mask="url(#mask17)"/>
<use xlink:href="#surface60" mask="url(#mask18)"/>
<use xlink:href="#surface63" mask="url(#mask19)"/>
<use xlink:href="#surface66" mask="url(#mask20)"/>
<use xlink:href="#surface69" mask="url(#mask21)"/>
<use xlink:href="#surface72" mask="url(#mask22)"/>
</g>
</svg>
