<?xml version="1.0" encoding="UTF-8"?>
<svg xmlns="http://www.w3.org/2000/svg" xmlns:xlink="http://www.w3.org/1999/xlink" width="50pt" height="50pt" viewBox="0 0 50 50" version="1.1">
<defs>
<filter id="alpha" filterUnits="objectBoundingBox" x="0%" y="0%" width="100%" height="100%">
  <feColorMatrix type="matrix" in="SourceGraphic" values="0 0 0 0 1 0 0 0 0 1 0 0 0 0 1 0 0 0 1 0"/>
</filter>
<mask id="mask0">
  <g filter="url(#alpha)">
<rect x="0" y="0" width="50" height="50" style="fill:rgb(0%,0%,0%);fill-opacity:0.972549;stroke:none;"/>
  </g>
</mask>
<clipPath id="clip1">
  <rect width="50" height="50"/>
</clipPath>
<g id="surface6" clip-path="url(#clip1)">
<path style=" stroke:none;fill-rule:evenodd;fill:rgb(1.960784%,1.960784%,2.352941%);fill-opacity:1;" d="M 40.769531 10.980469 C 41.636719 10.964844 42.5 11 43.363281 11.089844 C 43.851562 11.109375 44.308594 11.238281 44.730469 11.472656 C 45.015625 11.710938 45.203125 12.011719 45.296875 12.375 C 45.335938 12.539062 45.367188 12.707031 45.390625 12.878906 C 45.621094 14.609375 45.859375 16.335938 46.113281 18.0625 C 46.230469 19.003906 46.328125 19.949219 46.398438 20.894531 C 46.449219 21.496094 46.378906 22.078125 46.183594 22.648438 C 46.09375 22.867188 45.972656 23.066406 45.824219 23.246094 C 44.976562 24.132812 43.949219 24.65625 42.738281 24.820312 C 42.148438 24.988281 41.558594 25.148438 40.960938 25.300781 C 39.570312 25.554688 38.171875 25.632812 36.761719 25.539062 C 36.015625 25.457031 35.28125 25.332031 34.554688 25.15625 C 33.542969 24.730469 32.628906 24.15625 31.804688 23.441406 C 31.453125 22.9375 31.257812 22.378906 31.230469 21.757812 C 31.21875 20.636719 31.160156 19.515625 31.0625 18.398438 C 31.007812 17.160156 31.082031 15.925781 31.277344 14.703125 C 31.453125 13.675781 31.894531 12.792969 32.609375 12.050781 C 33.171875 11.613281 33.8125 11.414062 34.53125 11.449219 C 35.289062 11.445312 36.050781 11.429688 36.808594 11.402344 C 37.539062 11.3125 38.265625 11.214844 38.996094 11.113281 C 39.589844 11.070312 40.183594 11.023438 40.769531 10.980469 Z M 34.433594 11.917969 C 34.289062 11.957031 34.136719 11.972656 33.976562 11.964844 C 34.125 11.929688 34.277344 11.914062 34.433594 11.917969 Z M 34.433594 11.917969 "/>
</g>
<mask id="mask1">
  <g filter="url(#alpha)">
<rect x="0" y="0" width="50" height="50" style="fill:rgb(0%,0%,0%);fill-opacity:0.980392;stroke:none;"/>
  </g>
</mask>
<clipPath id="clip2">
  <rect width="50" height="50"/>
</clipPath>
<g id="surface9" clip-path="url(#clip2)">
<path style=" stroke:none;fill-rule:evenodd;fill:rgb(1.960784%,1.960784%,2.352941%);fill-opacity:1;" d="M 15.328125 16.117188 C 15.734375 16.117188 16.109375 16.226562 16.453125 16.441406 C 16.925781 16.734375 17.351562 17.085938 17.738281 17.488281 C 18.011719 17.804688 18.28125 18.125 18.542969 18.445312 C 18.917969 18.25 19.296875 18.054688 19.671875 17.859375 C 20.160156 17.617188 20.675781 17.46875 21.21875 17.414062 C 21.746094 17.433594 21.9375 17.699219 21.796875 18.207031 C 21.714844 18.382812 21.601562 18.53125 21.449219 18.652344 C 21.109375 18.882812 20.765625 19.109375 20.414062 19.324219 C 20.085938 19.472656 19.765625 19.636719 19.457031 19.816406 C 19.804688 20.316406 20.136719 20.828125 20.453125 21.351562 C 20.742188 21.902344 20.996094 22.46875 21.207031 23.054688 C 21.226562 23.082031 21.253906 23.085938 21.28125 23.066406 C 21.628906 22.886719 21.972656 22.691406 22.3125 22.492188 C 22.679688 22.277344 23.074219 22.164062 23.5 22.144531 C 23.757812 22.128906 23.984375 22.207031 24.171875 22.382812 C 24.34375 22.652344 24.335938 22.914062 24.148438 23.175781 C 24.03125 23.308594 23.898438 23.425781 23.75 23.523438 C 23.4375 23.695312 23.125 23.871094 22.816406 24.050781 C 22.402344 24.234375 22 24.441406 21.617188 24.675781 C 21.789062 25.8125 21.761719 26.941406 21.53125 28.074219 C 21.421875 28.703125 21.132812 29.226562 20.65625 29.644531 C 20.367188 29.847656 20.046875 29.953125 19.695312 29.96875 C 19.667969 30.039062 19.621094 30.09375 19.550781 30.125 C 18.863281 30.34375 18.15625 30.488281 17.4375 30.558594 C 16.460938 30.574219 15.484375 30.566406 14.511719 30.53125 C 13.769531 30.53125 13.042969 30.441406 12.324219 30.269531 C 11.640625 30.082031 11.09375 29.699219 10.683594 29.128906 C 10.054688 28.171875 9.472656 27.1875 8.929688 26.175781 C 8.835938 26.3125 8.730469 26.4375 8.617188 26.558594 C 7.878906 27.273438 7.207031 28.042969 6.601562 28.863281 C 5.414062 30.792969 4.832031 32.894531 4.859375 35.164062 C 4.851562 35.714844 4.878906 36.265625 4.945312 36.808594 C 5.019531 37.234375 5.164062 37.632812 5.375 38.011719 C 5.957031 38.992188 6.652344 39.890625 7.453125 40.710938 C 8.652344 41.800781 10.046875 42.160156 11.628906 41.789062 C 13.414062 41.132812 15.253906 40.851562 17.152344 40.949219 C 17.929688 41.003906 18.65625 41.21875 19.335938 41.597656 C 19.664062 41.816406 19.949219 42.085938 20.1875 42.402344 C 20.417969 42.808594 20.347656 43.15625 19.984375 43.445312 C 19.707031 43.613281 19.425781 43.621094 19.144531 43.472656 C 18.804688 43.140625 18.421875 42.875 17.992188 42.679688 C 17.132812 42.40625 16.25 42.308594 15.351562 42.390625 C 14.644531 42.433594 13.945312 42.546875 13.261719 42.726562 C 10.222656 43.878906 7.707031 43.179688 5.714844 40.625 C 5.0625 39.8125 4.523438 38.925781 4.105469 37.960938 C 3.839844 37.203125 3.726562 36.425781 3.757812 35.621094 C 3.699219 33.242188 4.253906 31.023438 5.425781 28.960938 C 6.253906 27.601562 7.332031 26.480469 8.652344 25.589844 C 8.195312 24.667969 7.855469 23.703125 7.632812 22.695312 C 7.472656 22.019531 7.625 21.429688 8.089844 20.917969 C 8.207031 20.792969 8.332031 20.679688 8.460938 20.570312 C 9.292969 19.945312 10.125 19.324219 10.957031 18.699219 C 11.710938 18.234375 12.460938 17.769531 13.214844 17.308594 C 13.460938 17.125 13.691406 16.925781 13.910156 16.707031 C 13.957031 16.699219 14.007812 16.691406 14.054688 16.683594 C 14.429688 16.378906 14.851562 16.191406 15.328125 16.117188 Z M 15.832031 16.742188 C 16.023438 16.792969 16.199219 16.878906 16.359375 16.996094 C 16.898438 17.386719 17.371094 17.847656 17.773438 18.375 C 17.113281 17.847656 16.464844 17.304688 15.832031 16.742188 Z M 17.847656 29.921875 C 17.714844 29.949219 17.578125 29.96875 17.4375 29.980469 C 16.871094 29.996094 16.300781 29.992188 15.734375 29.96875 C 16.433594 29.949219 17.140625 29.933594 17.847656 29.921875 Z M 17.847656 29.921875 "/>
</g>
<mask id="mask2">
  <g filter="url(#alpha)">
<rect x="0" y="0" width="50" height="50" style="fill:rgb(0%,0%,0%);fill-opacity:0.996078;stroke:none;"/>
  </g>
</mask>
<clipPath id="clip3">
  <rect width="50" height="50"/>
</clipPath>
<g id="surface12" clip-path="url(#clip3)">
<path style=" stroke:none;fill-rule:evenodd;fill:rgb(99.607843%,99.607843%,99.607843%);fill-opacity:1;" d="M 15.804688 16.71875 C 15.804688 16.734375 15.816406 16.742188 15.832031 16.742188 C 16.464844 17.304688 17.113281 17.847656 17.773438 18.375 C 17.773438 18.390625 17.78125 18.398438 17.800781 18.398438 C 17.800781 18.414062 17.808594 18.421875 17.824219 18.421875 C 17.894531 18.503906 17.964844 18.582031 18.039062 18.664062 C 17.847656 18.75 17.65625 18.839844 17.460938 18.925781 C 17.417969 18.925781 17.378906 18.914062 17.34375 18.890625 C 16.824219 18.398438 16.21875 18.070312 15.519531 17.90625 C 14.761719 17.835938 14.308594 18.175781 14.164062 18.925781 C 14.09375 19.5 14.125 20.070312 14.257812 20.632812 C 14.839844 22.800781 15.921875 24.667969 17.511719 26.234375 C 17.972656 26.667969 18.484375 27.027344 19.046875 27.316406 C 19.382812 27.46875 19.734375 27.53125 20.101562 27.507812 C 20.542969 27.40625 20.828125 27.136719 20.957031 26.703125 C 21.085938 26.164062 21.097656 25.617188 20.992188 25.070312 C 21.046875 25.015625 21.113281 24.96875 21.183594 24.929688 C 21.203125 25.046875 21.222656 25.167969 21.242188 25.289062 C 21.273438 26.035156 21.25 26.777344 21.171875 27.519531 C 21.101562 28.054688 20.917969 28.539062 20.621094 28.984375 C 20.203125 29.472656 19.695312 29.59375 19.09375 29.355469 C 17.886719 28.8125 16.867188 28.023438 16.035156 26.992188 C 15.539062 26.289062 15.089844 25.550781 14.691406 24.785156 C 14 23.5 13.417969 22.171875 12.9375 20.800781 C 12.886719 20.609375 12.84375 20.417969 12.804688 20.222656 C 12.871094 19.785156 12.9375 19.34375 13.011719 18.902344 C 13.117188 18.535156 13.261719 18.183594 13.441406 17.847656 C 13.90625 17.390625 14.429688 17.019531 15.015625 16.730469 C 15.277344 16.625 15.542969 16.621094 15.804688 16.71875 Z M 15.804688 16.71875 "/>
</g>
</defs>
<g id="surface1">
<use xlink:href="#surface6" mask="url(#mask0)"/>
<path style=" stroke:none;fill-rule:evenodd;fill:rgb(99.607843%,99.607843%,99.607843%);fill-opacity:1;" d="M 41.464844 11.4375 C 41.574219 11.460938 41.6875 11.46875 41.800781 11.460938 C 41.910156 11.484375 42.023438 11.492188 42.140625 11.484375 C 42.238281 11.507812 42.34375 11.515625 42.449219 11.511719 C 42.558594 11.535156 42.671875 11.542969 42.785156 11.535156 C 42.894531 11.558594 43.007812 11.566406 43.121094 11.558594 C 43.230469 11.582031 43.34375 11.589844 43.457031 11.582031 C 43.558594 11.605469 43.664062 11.613281 43.769531 11.605469 C 44.394531 11.632812 44.777344 11.953125 44.910156 12.566406 C 45.300781 15.28125 45.660156 18.003906 45.992188 20.726562 C 46.050781 21.21875 46.035156 21.707031 45.941406 22.191406 C 45.859375 22.476562 45.730469 22.742188 45.558594 22.984375 C 44.855469 23.789062 43.980469 24.308594 42.929688 24.542969 C 42.890625 24.535156 42.851562 24.527344 42.8125 24.519531 C 42.746094 24.386719 42.640625 24.335938 42.5 24.363281 C 42.003906 24.507812 41.507812 24.652344 41.011719 24.796875 C 39.628906 25.066406 38.238281 25.164062 36.832031 25.085938 C 36.242188 24.992188 35.648438 24.902344 35.058594 24.820312 C 34.636719 24.714844 34.234375 24.554688 33.855469 24.339844 C 33.398438 24.050781 32.941406 23.753906 32.488281 23.453125 C 32.082031 23.117188 31.828125 22.691406 31.734375 22.167969 C 31.707031 21.984375 31.683594 21.800781 31.660156 21.617188 C 31.632812 20.992188 31.617188 20.367188 31.613281 19.742188 C 31.546875 19.097656 31.511719 18.449219 31.503906 17.800781 C 31.53125 16.785156 31.609375 15.777344 31.734375 14.773438 C 31.882812 13.890625 32.257812 13.121094 32.847656 12.457031 C 33.140625 12.175781 33.484375 12.011719 33.882812 11.964844 C 33.914062 11.964844 33.945312 11.964844 33.976562 11.964844 C 34.136719 11.972656 34.289062 11.957031 34.433594 11.917969 C 34.496094 11.925781 34.550781 11.917969 34.601562 11.894531 C 35.304688 11.890625 36.011719 11.878906 36.714844 11.859375 C 37.777344 11.730469 38.839844 11.609375 39.90625 11.496094 C 40.425781 11.445312 40.945312 11.425781 41.464844 11.4375 Z M 41.464844 11.4375 "/>
<path style=" stroke:none;fill-rule:evenodd;fill:rgb(3.137255%,3.137255%,3.529412%);fill-opacity:1;" d="M 38.082031 14.054688 C 38.867188 14.085938 39.648438 14.101562 40.433594 14.101562 C 40.980469 14.097656 41.523438 14.09375 42.066406 14.089844 C 42.375 14.109375 42.613281 14.25 42.773438 14.511719 C 42.953125 14.917969 43.113281 15.335938 43.253906 15.757812 C 44.0625 17.226562 44.398438 18.792969 44.261719 20.464844 C 44.230469 21.234375 43.90625 21.847656 43.289062 22.300781 C 43.167969 22.367188 43.039062 22.425781 42.90625 22.46875 C 42.335938 22.625 41.761719 22.761719 41.179688 22.875 C 40.339844 22.953125 39.5 23.011719 38.65625 23.042969 C 38.097656 23.113281 37.539062 23.183594 36.976562 23.257812 C 36.535156 23.304688 36.105469 23.265625 35.683594 23.140625 C 35.3125 22.96875 35.078125 22.683594 34.972656 22.289062 C 34.914062 22.015625 34.859375 21.742188 34.804688 21.472656 C 34.703125 21.175781 34.597656 20.878906 34.492188 20.582031 C 34.277344 19.523438 34.042969 18.46875 33.796875 17.414062 C 33.679688 16.882812 33.6875 16.355469 33.820312 15.832031 C 33.992188 15.414062 34.285156 15.113281 34.699219 14.929688 C 34.753906 14.84375 34.824219 14.769531 34.914062 14.714844 C 35.265625 14.648438 35.617188 14.585938 35.96875 14.523438 C 36.671875 14.351562 37.375 14.195312 38.082031 14.054688 Z M 38.082031 14.054688 "/>
<path style=" stroke:none;fill-rule:evenodd;fill:rgb(98.823529%,98.823529%,98.823529%);fill-opacity:1;" d="M 38.011719 14.484375 C 39.371094 14.515625 40.730469 14.539062 42.089844 14.546875 C 42.207031 14.566406 42.300781 14.625 42.367188 14.726562 C 42.667969 15.53125 43.003906 16.324219 43.375 17.101562 C 43.800781 18.277344 43.933594 19.484375 43.78125 20.726562 C 43.652344 21.394531 43.273438 21.84375 42.644531 22.082031 C 41.941406 22.320312 41.222656 22.464844 40.484375 22.515625 C 39.753906 22.566406 39.027344 22.613281 38.296875 22.660156 C 37.828125 22.734375 37.355469 22.800781 36.882812 22.851562 C 36.582031 22.875 36.289062 22.859375 35.992188 22.804688 C 35.632812 22.691406 35.410156 22.445312 35.332031 22.070312 C 35.285156 21.804688 35.226562 21.542969 35.164062 21.28125 C 34.847656 20.484375 34.632812 19.660156 34.515625 18.808594 C 34.394531 18.34375 34.273438 17.878906 34.15625 17.414062 C 34.042969 16.90625 34.027344 16.394531 34.109375 15.878906 C 34.242188 15.546875 34.464844 15.300781 34.78125 15.132812 C 34.851562 15.226562 34.945312 15.253906 35.058594 15.21875 C 36.039062 14.953125 37.023438 14.710938 38.011719 14.484375 Z M 38.011719 14.484375 "/>
<path style=" stroke:none;fill-rule:evenodd;fill:rgb(94.509804%,92.941176%,90.196078%);fill-opacity:1;" d="M 39.425781 14.726562 C 40.890625 14.652344 41.996094 15.234375 42.75 16.480469 C 42.921875 16.8125 43.042969 17.164062 43.109375 17.535156 C 43.140625 17.808594 43.179688 18.082031 43.230469 18.351562 C 43.394531 19.875 42.832031 21.039062 41.539062 21.84375 C 41.226562 22.011719 40.898438 22.132812 40.554688 22.203125 C 39.882812 22.300781 39.210938 22.394531 38.539062 22.492188 C 37.003906 22.566406 35.882812 21.929688 35.164062 20.582031 C 35.0625 20.351562 34.984375 20.109375 34.925781 19.863281 C 34.804688 19.269531 34.742188 18.667969 34.734375 18.0625 C 34.910156 16.6875 35.632812 15.722656 36.90625 15.171875 C 37.070312 15.109375 37.238281 15.0625 37.410156 15.027344 C 38.085938 14.933594 38.757812 14.832031 39.425781 14.726562 Z M 39.425781 14.726562 "/>
<use xlink:href="#surface9" mask="url(#mask1)"/>
<use xlink:href="#surface12" mask="url(#mask2)"/>
<path style=" stroke:none;fill-rule:evenodd;fill:rgb(3.137255%,3.137255%,3.137255%);fill-opacity:1;" d="M 40.410156 17.007812 C 40.929688 16.984375 41.355469 17.167969 41.695312 17.558594 C 41.910156 17.859375 41.960938 18.1875 41.839844 18.542969 C 41.480469 19.4375 40.851562 19.714844 39.953125 19.371094 C 39.574219 19.125 39.425781 18.777344 39.511719 18.328125 C 39.535156 18.230469 39.558594 18.136719 39.582031 18.039062 C 39.632812 17.960938 39.675781 17.882812 39.714844 17.800781 C 39.660156 17.6875 39.65625 17.574219 39.703125 17.460938 C 39.910156 17.265625 40.148438 17.113281 40.410156 17.007812 Z M 40.410156 17.007812 "/>
<path style=" stroke:none;fill-rule:evenodd;fill:rgb(3.137255%,3.137255%,3.529412%);fill-opacity:1;" d="M 36.402344 17.460938 C 36.707031 17.429688 36.976562 17.503906 37.21875 17.691406 C 37.53125 17.960938 37.75 18.292969 37.878906 18.6875 C 37.976562 19.21875 37.820312 19.664062 37.410156 20.019531 C 36.988281 20.277344 36.578125 20.253906 36.1875 19.945312 C 35.796875 19.597656 35.625 19.164062 35.667969 18.640625 C 35.714844 18.316406 35.804688 18.007812 35.945312 17.714844 C 36.09375 17.617188 36.246094 17.535156 36.402344 17.460938 Z M 36.402344 17.460938 "/>
<path style=" stroke:none;fill-rule:evenodd;fill:rgb(93.72549%,92.54902%,89.803922%);fill-opacity:1;" d="M 40.53125 17.488281 C 40.898438 17.507812 41.199219 17.660156 41.429688 17.941406 C 41.507812 18.125 41.507812 18.308594 41.429688 18.496094 C 41.308594 18.769531 41.113281 18.972656 40.84375 19.105469 C 40.535156 19.195312 40.253906 19.144531 40.003906 18.949219 C 39.867188 18.816406 39.8125 18.652344 39.835938 18.457031 C 39.828125 18.171875 39.929688 17.929688 40.144531 17.738281 C 40.265625 17.636719 40.394531 17.554688 40.53125 17.488281 Z M 40.53125 17.488281 "/>
<path style=" stroke:none;fill-rule:evenodd;fill:rgb(98.823529%,98.823529%,98.823529%);fill-opacity:1;" d="M 21.015625 17.773438 C 21.128906 17.769531 21.238281 17.773438 21.351562 17.785156 C 21.488281 17.886719 21.507812 18.011719 21.410156 18.160156 C 21.351562 18.21875 21.292969 18.277344 21.230469 18.339844 C 20.816406 18.585938 20.410156 18.839844 20.007812 19.105469 C 19.859375 19.1875 19.707031 19.257812 19.550781 19.324219 C 19.3125 19.5 19.054688 19.652344 18.78125 19.777344 C 18.28125 19.9375 17.785156 20.113281 17.292969 20.308594 C 17.007812 20.476562 16.746094 20.679688 16.503906 20.90625 C 16.328125 21.027344 16.136719 21.070312 15.925781 21.027344 C 15.722656 20.929688 15.664062 20.773438 15.746094 20.558594 C 15.804688 20.386719 15.902344 20.246094 16.046875 20.140625 C 16.414062 19.964844 16.78125 19.789062 17.152344 19.609375 C 17.34375 19.484375 17.535156 19.355469 17.726562 19.226562 C 18.097656 19.0625 18.464844 18.894531 18.832031 18.722656 C 19.375 18.359375 19.957031 18.078125 20.582031 17.882812 C 20.730469 17.847656 20.875 17.808594 21.015625 17.773438 Z M 21.015625 17.773438 "/>
<path style=" stroke:none;fill-rule:evenodd;fill:rgb(94.509804%,92.941176%,90.196078%);fill-opacity:1;" d="M 17.460938 18.925781 C 17.324219 19.023438 17.179688 19.117188 17.03125 19.203125 C 16.648438 19.386719 16.261719 19.570312 15.878906 19.753906 C 15.738281 19.820312 15.617188 19.902344 15.507812 20.007812 C 15.480469 20.144531 15.523438 20.253906 15.636719 20.332031 C 15.449219 20.582031 15.429688 20.839844 15.578125 21.113281 C 15.699219 21.269531 15.859375 21.339844 16.058594 21.328125 C 16.277344 21.316406 16.480469 21.257812 16.671875 21.148438 C 16.867188 21.011719 17.050781 20.859375 17.222656 20.691406 C 17.339844 20.621094 17.457031 20.558594 17.582031 20.5 C 17.925781 20.390625 18.269531 20.292969 18.613281 20.199219 C 19.382812 21.171875 20.011719 22.226562 20.511719 23.367188 C 19.945312 23.675781 19.363281 23.941406 18.757812 24.171875 C 18.519531 24.28125 18.292969 24.40625 18.074219 24.542969 C 18.015625 24.746094 18.09375 24.867188 18.304688 24.914062 C 18.167969 25.203125 18.109375 25.5 18.121094 25.816406 C 18.234375 26.191406 18.492188 26.359375 18.890625 26.320312 C 19.078125 26.335938 19.25 26.289062 19.40625 26.1875 C 19.550781 25.996094 19.710938 25.820312 19.886719 25.660156 C 20.171875 25.507812 20.457031 25.363281 20.75 25.226562 C 20.828125 25.167969 20.90625 25.117188 20.992188 25.070312 C 21.097656 25.617188 21.085938 26.164062 20.957031 26.703125 C 20.828125 27.136719 20.542969 27.40625 20.101562 27.507812 C 19.734375 27.53125 19.382812 27.46875 19.046875 27.316406 C 18.484375 27.027344 17.972656 26.667969 17.511719 26.234375 C 15.921875 24.667969 14.839844 22.800781 14.257812 20.632812 C 14.125 20.070312 14.09375 19.5 14.164062 18.925781 C 14.308594 18.175781 14.761719 17.835938 15.519531 17.90625 C 16.21875 18.070312 16.824219 18.398438 17.34375 18.890625 C 17.378906 18.914062 17.417969 18.925781 17.460938 18.925781 Z M 17.460938 18.925781 "/>
<path style=" stroke:none;fill-rule:evenodd;fill:rgb(93.72549%,92.156863%,89.411765%);fill-opacity:1;" d="M 36.546875 17.894531 C 36.71875 17.90625 36.871094 17.964844 37 18.074219 C 37.238281 18.292969 37.410156 18.550781 37.519531 18.855469 C 37.550781 19.265625 37.394531 19.582031 37.050781 19.804688 C 36.824219 19.867188 36.613281 19.828125 36.425781 19.683594 C 36.125 19.433594 35.972656 19.113281 35.96875 18.722656 C 35.980469 18.515625 36.015625 18.3125 36.066406 18.109375 C 36.113281 18.113281 36.164062 18.109375 36.210938 18.097656 C 36.320312 18.023438 36.433594 17.957031 36.546875 17.894531 Z M 36.546875 17.894531 "/>
<path style=" stroke:none;fill-rule:evenodd;fill:rgb(99.607843%,99.607843%,99.607843%);fill-opacity:1;" d="M 17.847656 29.921875 C 17.140625 29.933594 16.433594 29.949219 15.734375 29.96875 C 15.144531 29.949219 14.550781 29.9375 13.957031 29.933594 C 13.355469 29.917969 12.773438 29.816406 12.207031 29.621094 C 11.789062 29.441406 11.441406 29.175781 11.160156 28.816406 C 10.1875 27.4375 9.371094 25.96875 8.714844 24.398438 C 8.511719 23.839844 8.324219 23.269531 8.160156 22.695312 C 8.003906 22.148438 8.117188 21.667969 8.496094 21.253906 C 8.628906 21.113281 8.769531 20.984375 8.917969 20.859375 C 9.699219 20.304688 10.460938 19.71875 11.199219 19.105469 C 11.707031 18.742188 12.222656 18.386719 12.746094 18.039062 C 12.617188 18.367188 12.515625 18.703125 12.433594 19.046875 C 12.382812 19.390625 12.367188 19.734375 12.386719 20.078125 C 12.433594 20.15625 12.496094 20.21875 12.566406 20.269531 C 12.648438 20.804688 12.789062 21.324219 12.984375 21.832031 C 13.648438 23.578125 14.453125 25.25 15.410156 26.847656 C 16.269531 28.132812 17.402344 29.097656 18.808594 29.742188 C 18.492188 29.832031 18.171875 29.890625 17.847656 29.921875 Z M 17.847656 29.921875 "/>
<path style=" stroke:none;fill-rule:evenodd;fill:rgb(98.431373%,98.431373%,98.431373%);fill-opacity:1;" d="M 20.511719 23.367188 C 20.011719 22.226562 19.382812 21.171875 18.613281 20.199219 C 18.734375 20.152344 18.851562 20.105469 18.976562 20.054688 C 19.597656 20.878906 20.121094 21.769531 20.546875 22.71875 C 20.628906 22.90625 20.695312 23.101562 20.75 23.296875 C 20.671875 23.320312 20.589844 23.34375 20.511719 23.367188 Z M 20.511719 23.367188 "/>
<path style=" stroke:none;fill-rule:evenodd;fill:rgb(98.823529%,98.823529%,98.823529%);fill-opacity:1;" d="M 23.273438 22.550781 C 23.414062 22.546875 23.558594 22.550781 23.703125 22.5625 C 23.882812 22.648438 23.917969 22.769531 23.8125 22.9375 C 23.75 22.996094 23.691406 23.054688 23.632812 23.117188 C 22.953125 23.523438 22.257812 23.898438 21.542969 24.242188 C 21.226562 24.445312 20.914062 24.652344 20.605469 24.867188 C 20.3125 25.015625 20.015625 25.160156 19.71875 25.300781 C 19.640625 25.355469 19.558594 25.414062 19.480469 25.46875 C 19.367188 25.605469 19.246094 25.734375 19.117188 25.851562 C 18.617188 26.03125 18.398438 25.859375 18.457031 25.335938 C 18.511719 25.109375 18.597656 24.890625 18.710938 24.6875 C 19.058594 24.53125 19.414062 24.386719 19.765625 24.242188 C 20.285156 23.96875 20.8125 23.722656 21.351562 23.5 C 21.828125 23.253906 22.300781 22.996094 22.769531 22.730469 C 22.933594 22.660156 23.101562 22.597656 23.273438 22.550781 Z M 23.273438 22.550781 "/>
</g>
</svg>
