<?xml version="1.0" encoding="UTF-8"?>
<svg xmlns="http://www.w3.org/2000/svg" xmlns:xlink="http://www.w3.org/1999/xlink" width="50pt" height="50pt" viewBox="0 0 50 50" version="1.1">
<defs>
<filter id="alpha" filterUnits="objectBoundingBox" x="0%" y="0%" width="100%" height="100%">
  <feColorMatrix type="matrix" in="SourceGraphic" values="0 0 0 0 1 0 0 0 0 1 0 0 0 0 1 0 0 0 1 0"/>
</filter>
<mask id="mask0">
  <g filter="url(#alpha)">
<rect x="0" y="0" width="50" height="50" style="fill:rgb(0%,0%,0%);fill-opacity:0.992157;stroke:none;"/>
  </g>
</mask>
<clipPath id="clip1">
  <rect width="50" height="50"/>
</clipPath>
<g id="surface6" clip-path="url(#clip1)">
<path style=" stroke:none;fill-rule:evenodd;fill:rgb(0%,0%,0%);fill-opacity:1;" d="M 37.914062 45.210938 C 37.484375 45.109375 37.054688 45.011719 36.617188 44.921875 C 36.585938 44.949219 36.585938 44.972656 36.617188 44.996094 C 36.667969 45.574219 36.59375 46.132812 36.390625 46.675781 C 36.351562 46.929688 36.328125 47.1875 36.316406 47.445312 C 36.105469 48.558594 35.488281 48.882812 34.457031 48.414062 C 33.769531 48.078125 33.082031 47.742188 32.394531 47.40625 C 31.539062 47.070312 30.660156 46.820312 29.753906 46.664062 C 27.296875 46.167969 24.839844 45.679688 22.382812 45.199219 C 20.988281 44.894531 19.597656 44.574219 18.207031 44.238281 C 16.609375 43.761719 15.007812 43.289062 13.40625 42.824219 C 13.195312 42.707031 13.089844 42.527344 13.09375 42.28125 C 12.71875 42.289062 12.339844 42.273438 11.964844 42.246094 C 11.472656 42.152344 11.164062 41.859375 11.042969 41.371094 C 11 41.1875 10.980469 41.003906 10.980469 40.820312 C 11.007812 40.242188 11.039062 39.667969 11.066406 39.089844 C 11.113281 38.613281 11.25 38.167969 11.472656 37.746094 C 11.492188 37.601562 11.488281 37.457031 11.460938 37.3125 C 10.933594 37.59375 10.375 37.722656 9.78125 37.710938 C 9.554688 37.589844 9.445312 37.402344 9.445312 37.144531 C 9.480469 36.804688 9.640625 36.535156 9.925781 36.34375 C 10.390625 36.0625 10.894531 35.929688 11.4375 35.945312 C 11.429688 34.484375 11.453125 33.023438 11.511719 31.566406 C 11.5 31.449219 11.492188 31.332031 11.484375 31.21875 C 11.148438 31.035156 10.785156 30.925781 10.40625 30.894531 C 10.042969 31.15625 9.652344 31.367188 9.230469 31.515625 C 8.953125 31.613281 8.691406 31.589844 8.4375 31.445312 C 8.097656 31.140625 8.085938 30.824219 8.402344 30.496094 C 8.730469 30.144531 9.132812 29.929688 9.613281 29.859375 C 9.917969 29.824219 10.222656 29.816406 10.527344 29.835938 C 10.878906 29.621094 11.222656 29.394531 11.558594 29.152344 C 11.605469 27.449219 11.671875 25.738281 11.75 24.027344 C 11.742188 23.945312 11.734375 23.859375 11.726562 23.777344 C 11.496094 23.546875 11.390625 23.265625 11.414062 22.9375 C 11.402344 22.496094 11.550781 22.121094 11.859375 21.808594 C 11.925781 20.511719 11.964844 19.214844 11.976562 17.917969 C 11.707031 18.125 11.4375 18.332031 11.171875 18.542969 C 10.847656 18.769531 10.519531 19 10.191406 19.226562 C 9.84375 19.402344 9.5 19.402344 9.15625 19.226562 C 8.996094 19.089844 8.914062 18.914062 8.917969 18.699219 C 8.964844 18.300781 9.121094 17.953125 9.386719 17.65625 C 9.851562 17.105469 10.421875 16.714844 11.101562 16.480469 C 11.367188 16.386719 11.636719 16.328125 11.917969 16.3125 C 11.957031 16.3125 11.996094 16.3125 12.039062 16.3125 C 12.046875 15.84375 12.039062 15.378906 12.015625 14.917969 C 11.976562 13.742188 11.910156 12.5625 11.820312 11.390625 C 11.472656 11.460938 11.183594 11.628906 10.957031 11.894531 C 10.746094 12.101562 10.566406 12.332031 10.417969 12.589844 C 10.195312 12.761719 9.996094 12.734375 9.816406 12.519531 C 9.765625 12.394531 9.773438 12.273438 9.839844 12.15625 C 10.128906 11.707031 10.484375 11.320312 10.910156 11.003906 C 11.039062 10.953125 11.167969 10.894531 11.292969 10.824219 C 11.445312 10.769531 11.601562 10.726562 11.761719 10.695312 C 11.761719 10.195312 11.75 9.699219 11.726562 9.207031 C 11.722656 8.988281 11.726562 8.773438 11.738281 8.558594 C 11.78125 8.433594 11.871094 8.371094 12 8.367188 C 12.132812 8.371094 12.222656 8.433594 12.265625 8.558594 C 12.277344 8.667969 12.28125 8.78125 12.277344 8.894531 C 12.28125 9.503906 12.304688 10.109375 12.351562 10.71875 C 13.230469 10.8125 13.964844 11.1875 14.546875 11.847656 C 14.859375 12.300781 14.96875 12.804688 14.882812 13.359375 C 14.621094 14.578125 14.097656 15.664062 13.308594 16.621094 C 14.039062 17.105469 14.523438 17.769531 14.761719 18.613281 C 15.035156 19.59375 14.992188 20.558594 14.628906 21.507812 C 15.28125 22.234375 15.550781 23.085938 15.433594 24.0625 C 15.179688 25.832031 14.441406 27.359375 13.226562 28.648438 C 12.992188 28.890625 12.753906 29.121094 12.507812 29.34375 C 12.488281 29.792969 12.488281 30.242188 12.507812 30.6875 C 13.289062 31.523438 13.691406 32.515625 13.71875 33.664062 C 13.722656 34.730469 13.378906 35.664062 12.6875 36.460938 C 12.925781 36.738281 13.113281 37.042969 13.25 37.386719 C 13.390625 37.789062 13.511719 38.195312 13.609375 38.609375 C 13.640625 39.0625 13.429688 39.300781 12.972656 39.332031 C 12.851562 39.324219 12.742188 39.292969 12.636719 39.234375 C 12.632812 39.214844 12.621094 39.199219 12.601562 39.1875 C 12.582031 39.34375 12.585938 39.496094 12.613281 39.640625 C 12.613281 39.753906 12.613281 39.867188 12.613281 39.976562 C 12.613281 40.195312 12.613281 40.410156 12.613281 40.625 C 12.75 40.625 12.886719 40.625 13.023438 40.625 C 13.253906 40.652344 13.484375 40.65625 13.71875 40.636719 C 14.175781 40.59375 14.628906 40.546875 15.085938 40.496094 C 15.390625 40.488281 15.695312 40.476562 16 40.46875 C 16.476562 40.410156 16.957031 40.355469 17.4375 40.300781 C 21.109375 40.261719 24.773438 40.109375 28.433594 39.847656 C 31.871094 39.511719 35.3125 39.175781 38.753906 38.839844 C 39.328125 38.769531 39.90625 38.695312 40.484375 38.621094 C 40.636719 38.589844 40.789062 38.554688 40.9375 38.515625 C 40.988281 38.5 40.996094 38.476562 40.960938 38.441406 C 40.558594 36.644531 40.128906 34.851562 39.679688 33.066406 C 39.320312 31.4375 38.980469 29.804688 38.65625 28.167969 C 38.65625 28.152344 38.648438 28.144531 38.632812 28.144531 C 38.632812 28.121094 38.632812 28.097656 38.632812 28.074219 C 38.636719 28.046875 38.628906 28.03125 38.609375 28.023438 C 38.609375 28.007812 38.609375 27.992188 38.609375 27.976562 C 38.617188 27.945312 38.609375 27.921875 38.585938 27.90625 C 38.585938 27.898438 38.585938 27.886719 38.585938 27.878906 C 38.59375 27.84375 38.585938 27.808594 38.5625 27.785156 C 38.570312 27.738281 38.5625 27.699219 38.539062 27.664062 C 38.15625 25.507812 37.644531 23.390625 37 21.304688 C 37.007812 21.265625 37 21.234375 36.976562 21.207031 C 36.984375 21.175781 36.976562 21.152344 36.953125 21.136719 C 36.953125 21.128906 36.953125 21.121094 36.953125 21.113281 C 36.960938 21.082031 36.953125 21.054688 36.929688 21.039062 C 36.929688 21.03125 36.929688 21.023438 36.929688 21.015625 C 36.933594 20.992188 36.925781 20.976562 36.90625 20.96875 C 36.90625 20.953125 36.90625 20.933594 36.90625 20.917969 C 36.910156 20.894531 36.902344 20.878906 36.882812 20.871094 C 35.988281 17.734375 35.089844 14.597656 34.179688 11.460938 C 33.332031 8.527344 32.578125 5.566406 31.925781 2.582031 C 31.898438 2.324219 31.867188 2.066406 31.828125 1.8125 C 31.765625 1.898438 31.679688 1.957031 31.578125 1.992188 C 31.328125 2.082031 31.078125 2.179688 30.832031 2.28125 C 29.417969 2.730469 28.011719 3.195312 26.609375 3.671875 C 25.265625 4.238281 23.910156 4.78125 22.550781 5.304688 C 19.945312 6.203125 17.335938 7.097656 14.726562 7.980469 C 14.710938 7.980469 14.703125 7.988281 14.703125 8.003906 C 14.6875 8.003906 14.671875 8.003906 14.65625 8.003906 C 14.636719 8.003906 14.628906 8.011719 14.628906 8.027344 C 14.613281 8.027344 14.597656 8.027344 14.582031 8.027344 C 14.566406 8.027344 14.558594 8.039062 14.558594 8.054688 C 14.550781 8.054688 14.542969 8.054688 14.535156 8.054688 C 14.511719 8.050781 14.496094 8.058594 14.484375 8.078125 C 14.476562 8.078125 14.46875 8.078125 14.460938 8.078125 C 14.4375 8.074219 14.421875 8.082031 14.414062 8.101562 C 14.40625 8.101562 14.398438 8.101562 14.390625 8.101562 C 14.367188 8.097656 14.351562 8.105469 14.34375 8.125 C 14.335938 8.125 14.328125 8.125 14.316406 8.125 C 14.292969 8.121094 14.277344 8.128906 14.269531 8.148438 C 14.238281 8.144531 14.214844 8.152344 14.199219 8.171875 C 14.167969 8.167969 14.144531 8.175781 14.125 8.199219 C 13.8125 8.296875 13.496094 8.390625 13.179688 8.484375 C 13.113281 8.492188 13.066406 8.46875 13.035156 8.414062 C 13.003906 8.308594 13.023438 8.214844 13.09375 8.136719 C 16.019531 7.007812 18.957031 5.90625 21.902344 4.824219 C 22.414062 4.617188 22.925781 4.410156 23.441406 4.199219 C 25.433594 3.253906 27.472656 2.421875 29.5625 1.703125 C 30.191406 1.453125 30.8125 1.1875 31.433594 0.914062 C 32.171875 0.632812 32.671875 0.859375 32.933594 1.597656 C 33.496094 4.234375 34.144531 6.851562 34.878906 9.445312 C 35.96875 13.332031 37.113281 17.207031 38.308594 21.0625 C 38.679688 22.367188 39.003906 23.675781 39.292969 25 C 39.761719 27.308594 40.242188 29.613281 40.734375 31.914062 C 41.007812 33.085938 41.296875 34.253906 41.597656 35.417969 C 41.710938 35.945312 41.824219 36.472656 41.933594 37 C 42.078125 37.527344 42.230469 38.046875 42.390625 38.5625 C 42.449219 39.082031 42.234375 39.449219 41.753906 39.65625 C 41.492188 39.757812 41.21875 39.828125 40.9375 39.871094 C 40.285156 39.976562 39.628906 40.066406 38.96875 40.132812 C 39.042969 40.207031 39.105469 40.292969 39.148438 40.386719 C 39.179688 40.675781 39.257812 40.945312 39.390625 41.203125 C 39.679688 41.585938 39.964844 41.972656 40.253906 42.355469 C 40.332031 42.503906 40.40625 42.65625 40.46875 42.8125 C 40.601562 43.230469 40.738281 43.644531 40.878906 44.058594 C 40.992188 44.339844 41.152344 44.585938 41.359375 44.804688 C 41.539062 45.160156 41.480469 45.464844 41.179688 45.726562 C 41.085938 45.78125 40.984375 45.808594 40.878906 45.8125 C 40.246094 45.671875 39.609375 45.558594 38.96875 45.464844 C 38.617188 45.386719 38.261719 45.300781 37.914062 45.210938 Z M 11.148438 17.292969 C 11.148438 17.40625 11.148438 17.519531 11.148438 17.628906 C 10.734375 17.914062 10.324219 18.214844 9.925781 18.53125 C 9.863281 18.585938 9.792969 18.613281 9.710938 18.613281 C 9.722656 18.503906 9.765625 18.410156 9.839844 18.328125 C 10.128906 17.964844 10.46875 17.664062 10.863281 17.425781 C 10.957031 17.375 11.050781 17.332031 11.148438 17.292969 Z M 37 21.304688 C 37.644531 23.390625 38.15625 25.507812 38.539062 27.664062 C 38.007812 25.550781 37.496094 23.429688 37 21.304688 Z M 37 21.304688 "/>
</g>
<mask id="mask1">
  <g filter="url(#alpha)">
<rect x="0" y="0" width="50" height="50" style="fill:rgb(0%,0%,0%);fill-opacity:0.980392;stroke:none;"/>
  </g>
</mask>
<clipPath id="clip2">
  <rect width="50" height="50"/>
</clipPath>
<g id="surface9" clip-path="url(#clip2)">
<path style=" stroke:none;fill-rule:evenodd;fill:rgb(72.54902%,70.980392%,69.019608%);fill-opacity:1;" d="M 11.726562 9.207031 C 11.75 9.699219 11.761719 10.195312 11.761719 10.695312 C 11.601562 10.726562 11.445312 10.769531 11.292969 10.824219 C 11.167969 10.894531 11.039062 10.953125 10.910156 11.003906 C 10.894531 10.589844 10.894531 10.171875 10.910156 9.757812 C 11.183594 9.574219 11.457031 9.390625 11.726562 9.207031 Z M 11.726562 9.207031 "/>
</g>
<mask id="mask2">
  <g filter="url(#alpha)">
<rect x="0" y="0" width="50" height="50" style="fill:rgb(0%,0%,0%);fill-opacity:0.988235;stroke:none;"/>
  </g>
</mask>
<clipPath id="clip3">
  <rect width="50" height="50"/>
</clipPath>
<g id="surface12" clip-path="url(#clip3)">
<path style=" stroke:none;fill-rule:evenodd;fill:rgb(72.54902%,70.980392%,69.411765%);fill-opacity:1;" d="M 12.015625 14.917969 C 12.015625 15.375 12.015625 15.832031 12.015625 16.285156 C 11.976562 16.28125 11.945312 16.289062 11.917969 16.3125 C 11.636719 16.328125 11.367188 16.386719 11.101562 16.480469 C 11.054688 14.949219 11.003906 13.421875 10.957031 11.894531 C 11.183594 11.628906 11.472656 11.460938 11.820312 11.390625 C 11.910156 12.5625 11.976562 13.742188 12.015625 14.917969 Z M 12.015625 14.917969 "/>
</g>
<mask id="mask3">
  <g filter="url(#alpha)">
<rect x="0" y="0" width="50" height="50" style="fill:rgb(0%,0%,0%);fill-opacity:0.992157;stroke:none;"/>
  </g>
</mask>
<clipPath id="clip4">
  <rect width="50" height="50"/>
</clipPath>
<g id="surface15" clip-path="url(#clip4)">
<path style=" stroke:none;fill-rule:evenodd;fill:rgb(70.588235%,69.019608%,67.058824%);fill-opacity:1;" d="M 11.148438 17.628906 C 11.148438 17.519531 11.148438 17.40625 11.148438 17.292969 C 11.363281 17.171875 11.597656 17.109375 11.847656 17.113281 C 11.679688 17.25 11.511719 17.386719 11.34375 17.523438 C 11.28125 17.566406 11.214844 17.601562 11.148438 17.628906 Z M 11.148438 17.628906 "/>
</g>
<mask id="mask4">
  <g filter="url(#alpha)">
<rect x="0" y="0" width="50" height="50" style="fill:rgb(0%,0%,0%);fill-opacity:0.972549;stroke:none;"/>
  </g>
</mask>
<clipPath id="clip5">
  <rect width="50" height="50"/>
</clipPath>
<g id="surface18" clip-path="url(#clip5)">
<path style=" stroke:none;fill-rule:evenodd;fill:rgb(72.54902%,70.980392%,69.019608%);fill-opacity:1;" d="M 11.558594 29.152344 C 11.429688 25.617188 11.300781 22.078125 11.171875 18.542969 C 11.4375 18.332031 11.707031 18.125 11.976562 17.917969 C 11.964844 19.214844 11.925781 20.511719 11.859375 21.808594 C 11.550781 22.121094 11.402344 22.496094 11.414062 22.9375 C 11.390625 23.265625 11.496094 23.546875 11.726562 23.777344 C 11.734375 23.859375 11.742188 23.945312 11.75 24.027344 C 11.671875 25.738281 11.605469 27.449219 11.558594 29.152344 Z M 11.558594 29.152344 "/>
</g>
<mask id="mask5">
  <g filter="url(#alpha)">
<rect x="0" y="0" width="50" height="50" style="fill:rgb(0%,0%,0%);fill-opacity:0.745098;stroke:none;"/>
  </g>
</mask>
<clipPath id="clip6">
  <rect width="50" height="50"/>
</clipPath>
<g id="surface21" clip-path="url(#clip6)">
<path style=" stroke:none;fill-rule:evenodd;fill:rgb(58.823529%,20.392157%,15.686275%);fill-opacity:1;" d="M 37.914062 45.210938 C 37.480469 45.148438 37.046875 45.078125 36.617188 44.996094 C 36.585938 44.972656 36.585938 44.949219 36.617188 44.921875 C 37.054688 45.011719 37.484375 45.109375 37.914062 45.210938 Z M 37.914062 45.210938 "/>
</g>
</defs>
<g id="surface1">
<use xlink:href="#surface6" mask="url(#mask0)"/>
<path style=" stroke:none;fill-rule:evenodd;fill:rgb(72.941176%,71.372549%,69.411765%);fill-opacity:1;" d="M 36.882812 20.871094 C 36.878906 20.894531 36.886719 20.910156 36.90625 20.917969 C 36.90625 20.933594 36.90625 20.953125 36.90625 20.96875 C 36.902344 20.992188 36.910156 21.007812 36.929688 21.015625 C 36.929688 21.023438 36.929688 21.03125 36.929688 21.039062 C 36.925781 21.070312 36.933594 21.09375 36.953125 21.113281 C 36.953125 21.121094 36.953125 21.128906 36.953125 21.136719 C 36.949219 21.167969 36.957031 21.191406 36.976562 21.207031 C 36.972656 21.246094 36.980469 21.277344 37 21.304688 C 37.496094 23.429688 38.007812 25.550781 38.539062 27.664062 C 38.53125 27.710938 38.539062 27.75 38.5625 27.785156 C 38.554688 27.824219 38.5625 27.855469 38.585938 27.878906 C 38.585938 27.886719 38.585938 27.898438 38.585938 27.90625 C 38.582031 27.933594 38.589844 27.960938 38.609375 27.976562 C 38.609375 27.992188 38.609375 28.007812 38.609375 28.023438 C 38.605469 28.046875 38.613281 28.0625 38.632812 28.074219 C 38.632812 28.097656 38.632812 28.121094 38.632812 28.144531 C 38.648438 28.144531 38.65625 28.152344 38.65625 28.167969 C 38.980469 29.804688 39.320312 31.4375 39.679688 33.066406 C 40.128906 34.851562 40.558594 36.644531 40.960938 38.441406 C 40.960938 38.46875 40.953125 38.492188 40.9375 38.515625 C 40.789062 38.554688 40.636719 38.589844 40.484375 38.621094 C 39.90625 38.695312 39.328125 38.769531 38.753906 38.839844 C 35.3125 39.175781 31.871094 39.511719 28.433594 39.847656 C 24.773438 40.109375 21.109375 40.261719 17.4375 40.300781 C 16.957031 40.355469 16.476562 40.410156 16 40.46875 C 15.695312 40.476562 15.390625 40.488281 15.085938 40.496094 C 14.628906 40.546875 14.175781 40.59375 13.71875 40.636719 C 13.484375 40.65625 13.253906 40.652344 13.023438 40.625 C 12.898438 40.601562 12.769531 40.59375 12.636719 40.601562 C 12.644531 40.390625 12.636719 40.183594 12.613281 39.976562 C 12.613281 39.867188 12.613281 39.753906 12.613281 39.640625 C 12.605469 39.5 12.613281 39.367188 12.636719 39.234375 C 12.742188 39.292969 12.851562 39.324219 12.972656 39.332031 C 13.429688 39.300781 13.640625 39.0625 13.609375 38.609375 C 13.511719 38.195312 13.390625 37.789062 13.25 37.386719 C 13.113281 37.042969 12.925781 36.738281 12.6875 36.460938 C 13.378906 35.664062 13.722656 34.730469 13.71875 33.664062 C 13.691406 32.515625 13.289062 31.523438 12.507812 30.6875 C 12.488281 30.242188 12.488281 29.792969 12.507812 29.34375 C 12.753906 29.121094 12.992188 28.890625 13.226562 28.648438 C 14.441406 27.359375 15.179688 25.832031 15.433594 24.0625 C 15.550781 23.085938 15.28125 22.234375 14.628906 21.507812 C 14.992188 20.558594 15.035156 19.59375 14.761719 18.613281 C 14.523438 17.769531 14.039062 17.105469 13.308594 16.621094 C 14.097656 15.664062 14.621094 14.578125 14.882812 13.359375 C 14.96875 12.804688 14.859375 12.300781 14.546875 11.847656 C 13.964844 11.1875 13.230469 10.8125 12.351562 10.71875 C 12.304688 10.109375 12.28125 9.503906 12.277344 8.894531 C 12.902344 8.675781 13.515625 8.441406 14.125 8.199219 C 14.15625 8.203125 14.179688 8.195312 14.199219 8.171875 C 14.230469 8.179688 14.253906 8.171875 14.269531 8.148438 C 14.292969 8.152344 14.308594 8.144531 14.316406 8.125 C 14.328125 8.125 14.335938 8.125 14.34375 8.125 C 14.367188 8.128906 14.382812 8.121094 14.390625 8.101562 C 14.398438 8.101562 14.40625 8.101562 14.414062 8.101562 C 14.4375 8.105469 14.453125 8.097656 14.460938 8.078125 C 14.46875 8.078125 14.476562 8.078125 14.484375 8.078125 C 14.511719 8.082031 14.527344 8.074219 14.535156 8.054688 C 14.542969 8.054688 14.550781 8.054688 14.558594 8.054688 C 14.574219 8.054688 14.582031 8.046875 14.582031 8.027344 C 14.597656 8.027344 14.613281 8.027344 14.628906 8.027344 C 14.644531 8.027344 14.65625 8.019531 14.65625 8.003906 C 14.671875 8.003906 14.6875 8.003906 14.703125 8.003906 C 14.71875 8.003906 14.726562 7.996094 14.726562 7.980469 C 17.335938 7.097656 19.945312 6.203125 22.550781 5.304688 C 23.910156 4.78125 25.265625 4.238281 26.609375 3.671875 C 28.011719 3.195312 29.417969 2.730469 30.832031 2.28125 C 31.078125 2.179688 31.328125 2.082031 31.578125 1.992188 C 31.679688 1.957031 31.765625 1.898438 31.828125 1.8125 C 31.867188 2.066406 31.898438 2.324219 31.925781 2.582031 C 32.578125 5.566406 33.332031 8.527344 34.179688 11.460938 C 35.089844 14.597656 35.988281 17.734375 36.882812 20.871094 Z M 36.882812 20.871094 "/>
<path style=" stroke:none;fill-rule:evenodd;fill:rgb(66.27451%,23.137255%,18.039216%);fill-opacity:1;" d="M 30.570312 5.269531 C 30.601562 5.269531 30.632812 5.269531 30.664062 5.269531 C 32.929688 14.636719 35.199219 24.007812 37.46875 33.378906 C 37.527344 33.617188 37.574219 33.859375 37.613281 34.097656 C 30.484375 35.015625 23.351562 35.917969 16.214844 36.808594 C 16.066406 27.863281 15.921875 18.917969 15.78125 9.972656 C 20.71875 8.417969 25.648438 6.851562 30.570312 5.269531 Z M 30.570312 5.269531 "/>
<use xlink:href="#surface9" mask="url(#mask1)"/>
<path style=" stroke:none;fill-rule:evenodd;fill:rgb(0.392157%,0%,0%);fill-opacity:1;" d="M 25.433594 9.230469 C 25.628906 9.207031 25.75 9.292969 25.792969 9.480469 C 25.722656 9.710938 25.570312 9.863281 25.335938 9.9375 C 25.058594 10.007812 24.777344 10.070312 24.496094 10.128906 C 23.320312 10.511719 22.136719 10.863281 20.941406 11.1875 C 20.394531 11.351562 19.851562 11.527344 19.3125 11.714844 C 19.125 11.738281 19.003906 11.660156 18.9375 11.484375 C 18.898438 11.320312 18.933594 11.175781 19.046875 11.054688 C 19.273438 10.945312 19.503906 10.851562 19.742188 10.777344 C 21.320312 10.25 22.910156 9.785156 24.519531 9.386719 C 24.765625 9.359375 25.015625 9.34375 25.265625 9.335938 C 25.328125 9.3125 25.386719 9.277344 25.433594 9.230469 Z M 25.433594 9.230469 "/>
<use xlink:href="#surface12" mask="url(#mask2)"/>
<path style=" stroke:none;fill-rule:evenodd;fill:rgb(72.941176%,71.372549%,69.411765%);fill-opacity:1;" d="M 12.734375 16.285156 C 12.71875 16.109375 12.703125 15.933594 12.6875 15.757812 C 12.640625 14.308594 12.542969 12.859375 12.398438 11.414062 C 12.882812 11.511719 13.324219 11.707031 13.71875 12 C 14.210938 12.4375 14.375 12.976562 14.210938 13.621094 C 13.929688 14.632812 13.4375 15.519531 12.734375 16.285156 Z M 12.734375 16.285156 "/>
<path style=" stroke:none;fill-rule:evenodd;fill:rgb(0.392157%,0%,0%);fill-opacity:1;" d="M 29.273438 15.230469 C 29.695312 15.148438 29.847656 15.308594 29.730469 15.710938 C 29.640625 15.792969 29.542969 15.800781 29.441406 15.734375 C 25.886719 16.589844 22.347656 17.515625 18.832031 18.507812 C 18.636719 18.527344 18.496094 18.453125 18.410156 18.277344 C 18.316406 18.046875 18.378906 17.867188 18.589844 17.738281 C 20.589844 17.140625 22.597656 16.574219 24.617188 16.035156 C 26.152344 15.652344 27.703125 15.382812 29.273438 15.230469 Z M 29.273438 15.230469 "/>
<path style=" stroke:none;fill-rule:evenodd;fill:rgb(49.411765%,48.235294%,47.058824%);fill-opacity:1;" d="M 12.015625 14.917969 C 12.039062 15.378906 12.046875 15.84375 12.039062 16.3125 C 11.996094 16.3125 11.957031 16.3125 11.917969 16.3125 C 11.945312 16.289062 11.976562 16.28125 12.015625 16.285156 C 12.015625 15.832031 12.015625 15.375 12.015625 14.917969 Z M 12.015625 14.917969 "/>
<path style=" stroke:none;fill-rule:evenodd;fill:rgb(30.196078%,29.411765%,28.627451%);fill-opacity:1;" d="M 12.6875 15.757812 C 12.703125 15.933594 12.71875 16.109375 12.734375 16.285156 C 12.726562 16.304688 12.714844 16.320312 12.699219 16.335938 C 12.6875 16.144531 12.683594 15.949219 12.6875 15.757812 Z M 12.6875 15.757812 "/>
<use xlink:href="#surface15" mask="url(#mask3)"/>
<path style=" stroke:none;fill-rule:evenodd;fill:rgb(72.54902%,70.980392%,69.019608%);fill-opacity:1;" d="M 12.734375 17.246094 C 13.148438 17.464844 13.472656 17.777344 13.707031 18.183594 C 14.246094 19.121094 14.347656 20.105469 14.007812 21.136719 C 13.546875 21.058594 13.101562 21.097656 12.660156 21.253906 C 12.683594 19.917969 12.707031 18.582031 12.734375 17.246094 Z M 12.734375 17.246094 "/>
<use xlink:href="#surface18" mask="url(#mask4)"/>
<path style=" stroke:none;fill-rule:evenodd;fill:rgb(0.392157%,0%,0%);fill-opacity:1;" d="M 26.273438 21.304688 C 26.628906 21.296875 26.828125 21.46875 26.871094 21.820312 C 26.871094 22.023438 26.78125 22.175781 26.609375 22.277344 C 26.484375 22.324219 26.355469 22.363281 26.222656 22.394531 C 25.324219 22.476562 24.453125 22.679688 23.609375 22.996094 C 23.257812 23.015625 23.046875 22.851562 22.984375 22.503906 C 23.015625 22.265625 23.144531 22.101562 23.367188 22.011719 C 24.214844 21.707031 25.085938 21.507812 25.984375 21.410156 C 26.085938 21.382812 26.183594 21.347656 26.273438 21.304688 Z M 26.273438 21.304688 "/>
<path style=" stroke:none;fill-rule:evenodd;fill:rgb(71.764706%,70.196078%,68.627451%);fill-opacity:1;" d="M 12.636719 23.152344 C 12.613281 23.050781 12.605469 22.949219 12.613281 22.839844 C 12.609375 22.597656 12.613281 22.359375 12.625 22.121094 C 12.753906 22.035156 12.894531 21.976562 13.046875 21.941406 C 13.238281 21.921875 13.429688 21.925781 13.621094 21.953125 C 13.519531 22.175781 13.390625 22.386719 13.226562 22.574219 C 13.046875 22.785156 12.851562 22.980469 12.636719 23.152344 Z M 12.636719 23.152344 "/>
<path style=" stroke:none;fill-rule:evenodd;fill:rgb(72.54902%,70.980392%,69.019608%);fill-opacity:1;" d="M 14.175781 22.40625 C 14.296875 22.527344 14.386719 22.671875 14.449219 22.839844 C 14.59375 23.234375 14.640625 23.644531 14.59375 24.0625 C 14.375 25.714844 13.683594 27.128906 12.53125 28.3125 C 12.507812 26.847656 12.527344 25.382812 12.578125 23.917969 C 12.832031 23.800781 13.070312 23.652344 13.285156 23.476562 C 13.636719 23.160156 13.933594 22.804688 14.175781 22.40625 Z M 14.175781 22.40625 "/>
<path style=" stroke:none;fill-rule:evenodd;fill:rgb(29.803922%,29.019608%,28.235294%);fill-opacity:1;" d="M 12.613281 22.839844 C 12.605469 22.949219 12.613281 23.050781 12.636719 23.152344 C 12.636719 23.164062 12.628906 23.171875 12.613281 23.175781 C 12.582031 23.058594 12.582031 22.949219 12.613281 22.839844 Z M 12.613281 22.839844 "/>
<path style=" stroke:none;fill-rule:evenodd;fill:rgb(35.294118%,34.117647%,33.333333%);fill-opacity:1;" d="M 12.566406 32.65625 C 12.542969 32.84375 12.535156 33.035156 12.542969 33.234375 C 12.515625 33.011719 12.511719 32.789062 12.53125 32.5625 C 12.539062 32.59375 12.550781 32.625 12.566406 32.65625 Z M 12.566406 32.65625 "/>
<path style=" stroke:none;fill-rule:evenodd;fill:rgb(70.980392%,69.411765%,67.843137%);fill-opacity:1;" d="M 12.566406 32.65625 C 12.8125 33.398438 12.820312 34.144531 12.589844 34.890625 C 12.574219 34.570312 12.558594 34.25 12.542969 33.929688 C 12.542969 33.699219 12.542969 33.464844 12.542969 33.234375 C 12.535156 33.035156 12.542969 32.84375 12.566406 32.65625 Z M 12.566406 32.65625 "/>
<path style=" stroke:none;fill-rule:evenodd;fill:rgb(29.019608%,27.843137%,27.45098%);fill-opacity:1;" d="M 12.542969 33.929688 C 12.558594 34.25 12.574219 34.570312 12.589844 34.890625 C 12.582031 34.910156 12.570312 34.925781 12.554688 34.9375 C 12.542969 34.601562 12.539062 34.265625 12.542969 33.929688 Z M 12.542969 33.929688 "/>
<path style=" stroke:none;fill-rule:evenodd;fill:rgb(34.509804%,33.72549%,32.941176%);fill-opacity:1;" d="M 40.960938 38.441406 C 40.996094 38.476562 40.988281 38.5 40.9375 38.515625 C 40.953125 38.492188 40.960938 38.46875 40.960938 38.441406 Z M 40.960938 38.441406 "/>
<path style=" stroke:none;fill-rule:evenodd;fill:rgb(53.72549%,52.54902%,50.980392%);fill-opacity:1;" d="M 12.636719 39.234375 C 12.613281 39.367188 12.605469 39.5 12.613281 39.640625 C 12.585938 39.496094 12.582031 39.34375 12.601562 39.1875 C 12.621094 39.199219 12.632812 39.214844 12.636719 39.234375 Z M 12.636719 39.234375 "/>
<path style=" stroke:none;fill-rule:evenodd;fill:rgb(39.607843%,38.823529%,37.647059%);fill-opacity:1;" d="M 12.613281 39.976562 C 12.636719 40.183594 12.644531 40.390625 12.636719 40.601562 C 12.769531 40.59375 12.898438 40.601562 13.023438 40.625 C 12.886719 40.625 12.75 40.625 12.613281 40.625 C 12.613281 40.410156 12.613281 40.195312 12.613281 39.976562 Z M 12.613281 39.976562 "/>
<path style=" stroke:none;fill-rule:evenodd;fill:rgb(65.882353%,22.745098%,17.647059%);fill-opacity:1;" d="M 20.464844 42.332031 C 19.589844 42.1875 18.71875 42.035156 17.847656 41.875 C 18.40625 41.894531 18.96875 41.898438 19.527344 41.886719 C 21.703125 41.75 23.878906 41.628906 26.054688 41.527344 C 28.46875 41.28125 30.875 41.007812 33.28125 40.710938 C 34.847656 40.546875 36.417969 40.394531 37.984375 40.253906 C 37.847656 40.652344 37.859375 41.050781 38.023438 41.441406 C 38.097656 41.609375 38.1875 41.769531 38.285156 41.921875 C 38.585938 42.296875 38.875 42.683594 39.148438 43.074219 C 39.378906 43.535156 39.558594 44.015625 39.691406 44.515625 C 38.726562 44.300781 37.757812 44.097656 36.785156 43.902344 C 36.136719 43.800781 35.488281 43.703125 34.839844 43.613281 C 32.105469 43.328125 29.371094 43.066406 26.632812 42.824219 C 24.574219 42.671875 22.519531 42.507812 20.464844 42.332031 Z M 20.464844 42.332031 "/>
<path style=" stroke:none;fill-rule:evenodd;fill:rgb(68.235294%,65.882353%,63.921569%);fill-opacity:1;" d="M 17.847656 41.875 C 18.71875 42.035156 19.589844 42.1875 20.464844 42.332031 C 19.332031 42.257812 18.214844 42.128906 17.101562 41.933594 C 17.347656 41.886719 17.597656 41.867188 17.847656 41.875 Z M 17.847656 41.875 "/>
<path style=" stroke:none;fill-rule:evenodd;fill:rgb(52.156863%,50.980392%,49.803922%);fill-opacity:1;" d="M 18.878906 43.050781 C 18.847656 43.046875 18.824219 43.054688 18.808594 43.074219 C 18.726562 43.054688 18.648438 43.035156 18.566406 43.015625 C 18.675781 43.007812 18.78125 43.019531 18.878906 43.050781 Z M 18.878906 43.050781 "/>
<path style=" stroke:none;fill-rule:evenodd;fill:rgb(72.54902%,70.980392%,69.019608%);fill-opacity:1;" d="M 18.808594 43.074219 C 18.824219 43.054688 18.847656 43.046875 18.878906 43.050781 C 21.300781 43.296875 23.726562 43.515625 26.152344 43.710938 C 28.699219 43.960938 31.242188 44.230469 33.785156 44.515625 C 34.300781 44.605469 34.820312 44.691406 35.34375 44.777344 C 35.25 44.929688 35.175781 45.089844 35.117188 45.257812 C 35.089844 45.523438 35.074219 45.785156 35.070312 46.050781 C 34.984375 46.390625 34.933594 46.734375 34.914062 47.082031 C 33.613281 46.359375 32.238281 45.835938 30.785156 45.511719 C 30.25 45.394531 29.714844 45.285156 29.175781 45.175781 C 26.226562 44.679688 23.289062 44.113281 20.367188 43.472656 C 19.84375 43.351562 19.324219 43.21875 18.808594 43.074219 Z M 18.808594 43.074219 "/>
<path style=" stroke:none;fill-rule:evenodd;fill:rgb(63.529412%,23.921569%,19.215686%);fill-opacity:1;" d="M 33.785156 44.515625 C 34.324219 44.566406 34.863281 44.640625 35.394531 44.742188 C 35.378906 44.761719 35.363281 44.773438 35.34375 44.777344 C 34.820312 44.691406 34.300781 44.605469 33.785156 44.515625 Z M 33.785156 44.515625 "/>
<use xlink:href="#surface21" mask="url(#mask5)"/>
</g>
</svg>
