<?xml version="1.0" encoding="UTF-8"?>
<svg xmlns="http://www.w3.org/2000/svg" xmlns:xlink="http://www.w3.org/1999/xlink" width="50pt" height="50pt" viewBox="0 0 50 50" version="1.1">
<defs>
<filter id="alpha" filterUnits="objectBoundingBox" x="0%" y="0%" width="100%" height="100%">
  <feColorMatrix type="matrix" in="SourceGraphic" values="0 0 0 0 1 0 0 0 0 1 0 0 0 0 1 0 0 0 1 0"/>
</filter>
<mask id="mask0">
  <g filter="url(#alpha)">
<rect x="0" y="0" width="50" height="50" style="fill:rgb(0%,0%,0%);fill-opacity:0.980392;stroke:none;"/>
  </g>
</mask>
<clipPath id="clip1">
  <rect width="50" height="50"/>
</clipPath>
<g id="surface6" clip-path="url(#clip1)">
<path style=" stroke:none;fill-rule:evenodd;fill:rgb(9.411765%,9.411765%,8.627451%);fill-opacity:1;" d="M 30.0625 12.402344 C 29.460938 12.507812 28.851562 12.570312 28.238281 12.597656 C 27.742188 12.566406 27.246094 12.519531 26.75 12.453125 C 26.589844 12.367188 26.414062 12.320312 26.222656 12.308594 C 23.703125 11.492188 22.359375 9.753906 22.191406 7.101562 C 22.398438 4.402344 23.710938 2.449219 26.128906 1.246094 C 28.195312 0.359375 30.289062 0.277344 32.414062 1.007812 C 33.910156 1.609375 34.957031 2.65625 35.554688 4.152344 C 35.824219 4.292969 35.882812 4.492188 35.722656 4.75 C 36.191406 6.636719 35.796875 8.324219 34.550781 9.8125 C 33.332031 11.152344 31.835938 12.015625 30.0625 12.402344 Z M 29.628906 1.175781 C 31.277344 1.109375 32.710938 1.636719 33.925781 2.757812 C 34.085938 2.945312 34.238281 3.136719 34.382812 3.335938 C 32.964844 2.265625 31.378906 1.546875 29.628906 1.175781 Z M 29.628906 1.175781 "/>
</g>
<mask id="mask1">
  <g filter="url(#alpha)">
<rect x="0" y="0" width="50" height="50" style="fill:rgb(0%,0%,0%);fill-opacity:0.976471;stroke:none;"/>
  </g>
</mask>
<clipPath id="clip2">
  <rect width="50" height="50"/>
</clipPath>
<g id="surface9" clip-path="url(#clip2)">
<path style=" stroke:none;fill-rule:evenodd;fill:rgb(9.411765%,9.411765%,8.627451%);fill-opacity:1;" d="M 15.523438 0.9375 C 17.15625 0.875 18.640625 1.300781 19.984375 2.207031 C 20.792969 2.839844 21.382812 3.628906 21.761719 4.582031 C 22.019531 4.738281 22.085938 4.945312 21.953125 5.207031 C 22.402344 7.109375 21.996094 8.804688 20.730469 10.292969 C 18.546875 12.5625 15.898438 13.417969 12.789062 12.859375 C 10.078125 12.125 8.621094 10.359375 8.421875 7.558594 C 8.589844 5.070312 9.742188 3.191406 11.875 1.917969 C 13.027344 1.335938 14.246094 1.007812 15.523438 0.9375 Z M 15.523438 0.9375 "/>
</g>
<mask id="mask2">
  <g filter="url(#alpha)">
<rect x="0" y="0" width="50" height="50" style="fill:rgb(0%,0%,0%);fill-opacity:0.992157;stroke:none;"/>
  </g>
</mask>
<clipPath id="clip3">
  <rect width="50" height="50"/>
</clipPath>
<g id="surface12" clip-path="url(#clip3)">
<path style=" stroke:none;fill-rule:evenodd;fill:rgb(57.647059%,60.784314%,70.980392%);fill-opacity:1;" d="M 29.628906 1.175781 C 31.378906 1.546875 32.964844 2.265625 34.382812 3.335938 C 34.382812 3.367188 34.398438 3.382812 34.429688 3.382812 C 34.664062 3.648438 34.839844 3.953125 34.957031 4.292969 C 33.761719 4.652344 32.5625 4.996094 31.359375 5.328125 C 31.277344 5.359375 31.199219 5.359375 31.117188 5.328125 C 30.730469 4.820312 30.21875 4.523438 29.582031 4.4375 C 29.621094 3.351562 29.636719 2.265625 29.628906 1.175781 Z M 29.628906 1.175781 "/>
</g>
<mask id="mask3">
  <g filter="url(#alpha)">
<rect x="0" y="0" width="50" height="50" style="fill:rgb(0%,0%,0%);fill-opacity:0.964706;stroke:none;"/>
  </g>
</mask>
<clipPath id="clip4">
  <rect width="50" height="50"/>
</clipPath>
<g id="surface15" clip-path="url(#clip4)">
<path style=" stroke:none;fill-rule:evenodd;fill:rgb(9.411765%,9.411765%,8.627451%);fill-opacity:1;" d="M 46.761719 10.054688 C 46.960938 10.015625 47.113281 10.078125 47.21875 10.246094 C 47.308594 11.171875 47.308594 12.101562 47.21875 13.027344 C 46.433594 19.59375 45.601562 26.152344 44.722656 32.703125 C 44.578125 32.863281 44.410156 32.886719 44.21875 32.773438 C 42.082031 30.539062 39.824219 28.445312 37.453125 26.488281 C 37.394531 26.449219 37.328125 26.425781 37.261719 26.414062 C 36.488281 26.523438 35.722656 26.652344 34.957031 26.800781 C 34.636719 27.976562 34.179688 29.097656 33.589844 30.160156 C 33.203125 30.644531 32.699219 30.941406 32.078125 31.046875 C 30.898438 31.257812 29.714844 31.449219 28.527344 31.621094 C 28.332031 32.28125 28.148438 32.945312 27.976562 33.613281 C 27.960938 33.699219 27.921875 33.773438 27.855469 33.828125 C 26.066406 33.886719 24.277344 33.933594 22.480469 33.972656 C 23.441406 35.695312 24.410156 37.414062 25.382812 39.132812 C 26.046875 40.265625 26.734375 41.386719 27.445312 42.492188 C 27.507812 42.90625 27.339844 43.039062 26.945312 42.898438 C 25.179688 40.085938 23.507812 37.214844 21.929688 34.285156 C 21.875 34.195312 21.851562 34.101562 21.855469 33.996094 C 21.234375 34.023438 20.609375 34.054688 19.984375 34.09375 C 19.992188 34.195312 19.96875 34.292969 19.914062 34.382812 C 18.910156 35.859375 17.964844 37.378906 17.082031 38.941406 C 16.171875 40.605469 15.28125 42.285156 14.417969 43.976562 C 14.035156 44.148438 13.867188 44.019531 13.914062 43.59375 C 15.5 40.324219 17.28125 37.179688 19.265625 34.164062 C 17.75 34.230469 16.238281 34.363281 14.730469 34.574219 C 14.289062 34.601562 13.96875 34.425781 13.773438 34.046875 C 13.746094 33.375 13.738281 32.703125 13.746094 32.03125 C 12.21875 31.929688 10.699219 31.746094 9.1875 31.476562 C 7.808594 31.078125 7.234375 30.160156 7.460938 28.71875 C 7.476562 24.046875 7.757812 19.394531 8.300781 14.753906 C 8.492188 13.832031 9.058594 13.359375 10.003906 13.339844 C 17.710938 12.949219 25.421875 12.808594 33.132812 12.90625 C 33.824219 13.023438 34.28125 13.417969 34.5 14.082031 C 35.007812 15.359375 35.382812 16.671875 35.628906 18.019531 C 36.425781 17.984375 37.226562 17.953125 38.027344 17.921875 C 38.09375 17.929688 38.160156 17.945312 38.21875 17.96875 C 40.4375 15.90625 42.675781 13.863281 44.9375 11.851562 C 45.570312 11.277344 46.175781 10.675781 46.761719 10.054688 Z M 33.230469 13.554688 C 33.429688 13.636719 33.597656 13.765625 33.734375 13.941406 C 33.9375 14.335938 34.089844 14.753906 34.1875 15.1875 C 33.890625 14.632812 33.570312 14.085938 33.230469 13.554688 Z M 35.820312 18.59375 C 35.882812 19.1875 35.882812 19.78125 35.820312 20.371094 C 35.769531 19.800781 35.726562 19.226562 35.699219 18.640625 C 35.734375 18.605469 35.773438 18.589844 35.820312 18.59375 Z M 35.101562 22.722656 C 34.910156 25.09375 34.292969 27.347656 33.253906 29.488281 C 33.03125 29.867188 32.71875 30.148438 32.316406 30.328125 C 31.925781 30.449219 31.523438 30.535156 31.117188 30.589844 C 32.042969 29.894531 32.769531 29.03125 33.300781 28 C 34.128906 26.3125 34.726562 24.550781 35.101562 22.722656 Z M 8.375 30.253906 C 9.058594 30.582031 9.761719 30.855469 10.484375 31.070312 C 9.777344 31.039062 9.121094 30.839844 8.515625 30.46875 C 8.4375 30.417969 8.390625 30.34375 8.375 30.253906 Z M 8.375 30.253906 "/>
</g>
<mask id="mask4">
  <g filter="url(#alpha)">
<rect x="0" y="0" width="50" height="50" style="fill:rgb(0%,0%,0%);fill-opacity:0.717647;stroke:none;"/>
  </g>
</mask>
<clipPath id="clip5">
  <rect width="50" height="50"/>
</clipPath>
<g id="surface18" clip-path="url(#clip5)">
<path style=" stroke:none;fill-rule:evenodd;fill:rgb(53.72549%,56.862745%,66.27451%);fill-opacity:1;" d="M 30.0625 12.402344 C 28.960938 12.761719 27.859375 12.777344 26.75 12.453125 C 27.246094 12.519531 27.742188 12.566406 28.238281 12.597656 C 28.851562 12.570312 29.460938 12.507812 30.0625 12.402344 Z M 30.0625 12.402344 "/>
</g>
<mask id="mask5">
  <g filter="url(#alpha)">
<rect x="0" y="0" width="50" height="50" style="fill:rgb(0%,0%,0%);fill-opacity:0.988235;stroke:none;"/>
  </g>
</mask>
<clipPath id="clip6">
  <rect width="50" height="50"/>
</clipPath>
<g id="surface21" clip-path="url(#clip6)">
<path style=" stroke:none;fill-rule:evenodd;fill:rgb(94.117647%,92.54902%,89.803922%);fill-opacity:1;" d="M 35.820312 18.59375 C 36.523438 18.59375 37.226562 18.59375 37.933594 18.59375 C 37.980469 18.59375 38.027344 18.59375 38.074219 18.59375 C 38.074219 18.691406 38.074219 18.785156 38.074219 18.882812 C 38.035156 19.367188 37.972656 19.84375 37.882812 20.320312 C 37.199219 20.398438 36.507812 20.460938 35.820312 20.511719 C 35.820312 20.464844 35.820312 20.417969 35.820312 20.371094 C 35.882812 19.78125 35.882812 19.1875 35.820312 18.59375 Z M 35.820312 18.59375 "/>
</g>
</defs>
<g id="surface1">
<use xlink:href="#surface6" mask="url(#mask0)"/>
<use xlink:href="#surface9" mask="url(#mask1)"/>
<path style=" stroke:none;fill-rule:evenodd;fill:rgb(57.647059%,60.784314%,70.980392%);fill-opacity:1;" d="M 28.429688 1.175781 C 28.640625 1.175781 28.847656 1.175781 29.054688 1.175781 C 29.015625 2.261719 29 3.351562 29.007812 4.4375 C 28.3125 4.476562 27.726562 4.746094 27.253906 5.253906 C 26.296875 4.601562 25.410156 3.855469 24.59375 3.023438 C 25.691406 2.035156 26.972656 1.417969 28.429688 1.175781 Z M 28.429688 1.175781 "/>
<use xlink:href="#surface12" mask="url(#mask2)"/>
<path style=" stroke:none;fill-rule:evenodd;fill:rgb(94.117647%,92.54902%,89.803922%);fill-opacity:1;" d="M 15.8125 1.558594 C 17.507812 1.53125 18.972656 2.089844 20.203125 3.238281 C 20.601562 3.683594 20.929688 4.179688 21.183594 4.726562 C 19.945312 5.125 18.691406 5.476562 17.417969 5.78125 C 17.222656 5.632812 17.039062 5.464844 16.867188 5.277344 C 16.542969 5.066406 16.191406 4.945312 15.8125 4.917969 C 15.8125 3.796875 15.8125 2.679688 15.8125 1.558594 Z M 15.8125 1.558594 "/>
<path style=" stroke:none;fill-rule:evenodd;fill:rgb(94.117647%,92.54902%,89.803922%);fill-opacity:1;" d="M 15.042969 1.609375 C 15.105469 1.609375 15.171875 1.609375 15.234375 1.609375 C 15.234375 1.945312 15.234375 2.277344 15.234375 2.613281 C 15.234375 3.367188 15.234375 4.117188 15.234375 4.871094 C 14.539062 4.921875 13.949219 5.195312 13.460938 5.6875 C 12.5 5.054688 11.617188 4.316406 10.820312 3.480469 C 12.003906 2.359375 13.410156 1.738281 15.042969 1.609375 Z M 15.042969 1.609375 "/>
<path style=" stroke:none;fill-rule:evenodd;fill:rgb(38.039216%,37.254902%,35.686275%);fill-opacity:1;" d="M 15.042969 1.609375 C 15.109375 1.5625 15.191406 1.546875 15.28125 1.558594 C 15.296875 1.921875 15.28125 2.273438 15.234375 2.613281 C 15.234375 2.277344 15.234375 1.945312 15.234375 1.609375 C 15.171875 1.609375 15.105469 1.609375 15.042969 1.609375 Z M 15.042969 1.609375 "/>
<path style=" stroke:none;fill-rule:evenodd;fill:rgb(57.254902%,60.392157%,70.588235%);fill-opacity:1;" d="M 24.160156 3.480469 C 25.035156 4.285156 25.949219 5.042969 26.894531 5.757812 C 26.707031 6.214844 26.660156 6.6875 26.75 7.171875 C 26.742188 7.203125 26.726562 7.226562 26.703125 7.246094 C 25.472656 7.566406 24.242188 7.875 23.007812 8.179688 C 22.722656 7.03125 22.824219 5.914062 23.320312 4.824219 C 23.566406 4.347656 23.84375 3.902344 24.160156 3.480469 Z M 24.160156 3.480469 "/>
<path style=" stroke:none;fill-rule:evenodd;fill:rgb(94.117647%,92.54902%,89.803922%);fill-opacity:1;" d="M 10.390625 3.910156 C 11.226562 4.742188 12.132812 5.496094 13.101562 6.167969 C 13.046875 6.371094 12.984375 6.578125 12.90625 6.789062 C 12.875 7.09375 12.882812 7.398438 12.933594 7.703125 C 11.671875 8.015625 10.40625 8.320312 9.140625 8.613281 C 8.84375 6.851562 9.257812 5.285156 10.390625 3.910156 Z M 10.390625 3.910156 "/>
<path style=" stroke:none;fill-rule:evenodd;fill:rgb(57.254902%,60.392157%,70.588235%);fill-opacity:1;" d="M 35.054688 4.871094 C 35.101562 4.871094 35.148438 4.871094 35.195312 4.871094 C 35.589844 6.9375 35 8.664062 33.421875 10.054688 C 32.992188 9.746094 32.601562 9.394531 32.246094 8.996094 C 31.863281 8.550781 31.476562 8.101562 31.09375 7.652344 C 31.0625 7.605469 31.0625 7.558594 31.09375 7.507812 C 31.4375 7.011719 31.542969 6.46875 31.40625 5.878906 C 32.636719 5.578125 33.851562 5.242188 35.054688 4.871094 Z M 35.054688 4.871094 "/>
<path style=" stroke:none;fill-rule:evenodd;fill:rgb(99.215686%,99.215686%,99.215686%);fill-opacity:1;" d="M 28.765625 5.015625 C 29.292969 4.953125 29.785156 5.042969 30.253906 5.277344 C 30.957031 5.84375 31.058594 6.507812 30.566406 7.269531 C 29.84375 8.03125 28.988281 8.246094 28 7.917969 C 27.40625 7.5625 27.175781 7.042969 27.304688 6.359375 C 27.539062 5.632812 28.027344 5.183594 28.765625 5.015625 Z M 28.765625 5.015625 "/>
<path style=" stroke:none;fill-rule:evenodd;fill:rgb(94.117647%,92.54902%,89.803922%);fill-opacity:1;" d="M 21.136719 5.351562 C 21.230469 5.339844 21.320312 5.355469 21.402344 5.398438 C 21.785156 7.433594 21.203125 9.128906 19.648438 10.484375 C 19.285156 10.226562 18.941406 9.9375 18.617188 9.621094 C 18.191406 9.089844 17.746094 8.578125 17.273438 8.085938 C 17.429688 7.824219 17.542969 7.539062 17.609375 7.222656 C 17.648438 6.945312 17.640625 6.675781 17.585938 6.40625 C 18.773438 6.050781 19.957031 5.699219 21.136719 5.351562 Z M 21.136719 5.351562 "/>
<path style=" stroke:none;fill-rule:evenodd;fill:rgb(99.215686%,99.215686%,98.823529%);fill-opacity:1;" d="M 15.042969 5.445312 C 15.601562 5.375 16.113281 5.496094 16.578125 5.804688 C 17.007812 6.183594 17.160156 6.65625 17.035156 7.222656 C 16.746094 7.921875 16.226562 8.347656 15.476562 8.492188 C 14.464844 8.703125 13.800781 8.328125 13.484375 7.367188 C 13.4375 6.777344 13.636719 6.289062 14.082031 5.902344 C 14.375 5.683594 14.695312 5.53125 15.042969 5.445312 Z M 15.042969 5.445312 "/>
<path style=" stroke:none;fill-rule:evenodd;fill:rgb(57.254902%,60.392157%,70.588235%);fill-opacity:1;" d="M 26.75 7.796875 C 26.851562 7.78125 26.949219 7.800781 27.039062 7.84375 C 27.3125 8.207031 27.664062 8.445312 28.09375 8.566406 C 27.832031 9.667969 27.566406 10.769531 27.304688 11.875 C 27.050781 11.929688 26.804688 11.902344 26.558594 11.804688 C 24.988281 11.355469 23.863281 10.386719 23.175781 8.902344 C 23.152344 8.839844 23.144531 8.773438 23.152344 8.710938 C 24.367188 8.441406 25.566406 8.136719 26.75 7.796875 Z M 26.75 7.796875 "/>
<path style=" stroke:none;fill-rule:evenodd;fill:rgb(57.254902%,60.392157%,70.588235%);fill-opacity:1;" d="M 30.589844 8.039062 C 30.664062 8.039062 30.71875 8.070312 30.757812 8.132812 C 31.410156 8.972656 32.136719 9.738281 32.941406 10.4375 C 31.425781 11.542969 29.730469 12.054688 27.855469 11.972656 C 28.132812 10.867188 28.40625 9.765625 28.671875 8.660156 C 29.390625 8.683594 30.03125 8.476562 30.589844 8.039062 Z M 30.589844 8.039062 "/>
<path style=" stroke:none;fill-rule:evenodd;fill:rgb(93.72549%,92.156863%,89.803922%);fill-opacity:1;" d="M 13.074219 8.230469 C 13.125 8.222656 13.175781 8.230469 13.21875 8.253906 C 13.480469 8.601562 13.816406 8.847656 14.226562 8.996094 C 14.242188 9.027344 14.257812 9.0625 14.277344 9.09375 C 14.042969 10.152344 13.792969 11.207031 13.53125 12.261719 C 13.464844 12.316406 13.386719 12.351562 13.292969 12.355469 C 11.429688 12.003906 10.109375 10.964844 9.332031 9.238281 C 10.582031 8.902344 11.832031 8.566406 13.074219 8.230469 Z M 13.074219 8.230469 "/>
<path style=" stroke:none;fill-rule:evenodd;fill:rgb(93.72549%,92.156863%,89.411765%);fill-opacity:1;" d="M 16.820312 8.46875 C 17.28125 8.945312 17.71875 9.4375 18.136719 9.957031 C 18.453125 10.304688 18.796875 10.617188 19.167969 10.890625 C 17.65625 11.988281 15.960938 12.507812 14.082031 12.453125 C 14.324219 11.34375 14.589844 10.238281 14.875 9.140625 C 15.605469 9.140625 16.253906 8.917969 16.820312 8.46875 Z M 16.820312 8.46875 "/>
<use xlink:href="#surface15" mask="url(#mask3)"/>
<path style=" stroke:none;fill-rule:evenodd;fill:rgb(65.098039%,22.745098%,17.647059%);fill-opacity:1;" d="M 46.617188 11.058594 C 46.671875 11.644531 46.679688 12.234375 46.640625 12.835938 C 45.851562 19.1875 45.054688 25.535156 44.242188 31.886719 C 44.050781 31.695312 43.859375 31.5 43.667969 31.308594 C 43.460938 30.476562 43.398438 29.628906 43.472656 28.765625 C 43.769531 27.109375 44.167969 25.476562 44.671875 23.871094 C 45.703125 19.859375 46.164062 15.78125 46.066406 11.636719 C 46.257812 11.449219 46.441406 11.257812 46.617188 11.058594 Z M 46.617188 11.058594 "/>
<path style=" stroke:none;fill-rule:evenodd;fill:rgb(94.117647%,92.54902%,90.196078%);fill-opacity:1;" d="M 45.226562 17.441406 C 45.160156 17.734375 45.128906 18.039062 45.128906 18.355469 C 44.992188 19.511719 44.808594 20.664062 44.578125 21.808594 C 44.050781 23.789062 43.539062 25.773438 43.042969 27.757812 C 42.878906 28.699219 42.832031 29.640625 42.898438 30.589844 C 41.316406 29.039062 39.679688 27.558594 37.980469 26.152344 C 37.886719 26.082031 37.824219 25.996094 37.789062 25.886719 C 37.855469 25.601562 37.910156 25.3125 37.957031 25.023438 C 38.226562 22.800781 38.492188 20.578125 38.746094 18.355469 C 39.179688 17.929688 39.621094 17.511719 40.066406 17.105469 C 40.058594 17.765625 39.972656 18.410156 39.804688 19.050781 C 39.808594 19.101562 39.824219 19.152344 39.851562 19.195312 C 39.929688 19.21875 40.007812 19.226562 40.089844 19.21875 C 40.261719 18.410156 40.363281 17.59375 40.402344 16.769531 C 40.519531 16.648438 40.636719 16.535156 40.761719 16.433594 C 40.8125 16.921875 40.828125 17.417969 40.8125 17.921875 C 40.8125 18.210938 40.8125 18.5 40.8125 18.785156 C 40.890625 18.785156 40.972656 18.785156 41.050781 18.785156 C 41.121094 17.875 41.164062 16.964844 41.171875 16.050781 C 41.265625 16.011719 41.335938 15.949219 41.386719 15.859375 C 41.425781 16.144531 41.449219 16.433594 41.457031 16.722656 C 41.527344 16.804688 41.613281 16.835938 41.722656 16.820312 C 41.707031 16.386719 41.722656 15.953125 41.769531 15.523438 C 43.007812 14.4375 44.230469 13.332031 45.441406 12.210938 C 45.472656 13.027344 45.472656 13.84375 45.441406 14.660156 C 45.378906 15.589844 45.308594 16.515625 45.226562 17.441406 Z M 45.226562 17.441406 "/>
<path style=" stroke:none;fill-rule:evenodd;fill:rgb(43.529412%,45.882353%,52.941176%);fill-opacity:1;" d="M 26.222656 12.308594 C 26.414062 12.320312 26.589844 12.367188 26.75 12.453125 C 26.558594 12.441406 26.382812 12.390625 26.222656 12.308594 Z M 26.222656 12.308594 "/>
<use xlink:href="#surface18" mask="url(#mask4)"/>
<path style=" stroke:none;fill-rule:evenodd;fill:rgb(94.117647%,92.54902%,89.803922%);fill-opacity:1;" d="M 33.230469 13.554688 C 33.570312 14.085938 33.890625 14.632812 34.1875 15.1875 C 34.179688 15.234375 34.195312 15.265625 34.238281 15.28125 C 34.230469 15.332031 34.246094 15.363281 34.285156 15.378906 C 35.089844 17.765625 35.363281 20.210938 35.101562 22.722656 C 34.726562 24.550781 34.128906 26.3125 33.300781 28 C 32.769531 29.03125 32.042969 29.894531 31.117188 30.589844 C 24.332031 31.800781 17.519531 31.976562 10.675781 31.117188 C 10.625 31.074219 10.5625 31.058594 10.484375 31.070312 C 9.761719 30.855469 9.058594 30.582031 8.375 30.253906 C 8.222656 30.132812 8.136719 29.972656 8.109375 29.773438 C 8.023438 24.8125 8.28125 19.871094 8.878906 14.945312 C 8.945312 14.386719 9.257812 14.058594 9.8125 13.964844 C 9.957031 13.949219 10.101562 13.929688 10.246094 13.914062 C 17.695312 13.570312 25.148438 13.410156 32.605469 13.4375 C 32.816406 13.464844 33.023438 13.507812 33.230469 13.554688 Z M 33.230469 13.554688 "/>
<path style=" stroke:none;fill-rule:evenodd;fill:rgb(66.27451%,25.098039%,20%);fill-opacity:1;" d="M 13.890625 14.46875 C 13.640625 14.398438 13.386719 14.363281 13.125 14.371094 C 13.425781 14.027344 13.679688 14.058594 13.890625 14.46875 Z M 13.890625 14.46875 "/>
<path style=" stroke:none;fill-rule:evenodd;fill:rgb(9.803922%,9.411765%,8.627451%);fill-opacity:1;" d="M 13.125 14.371094 C 13.386719 14.363281 13.640625 14.398438 13.890625 14.46875 C 14.914062 15.046875 15.164062 15.859375 14.636719 16.914062 C 14.128906 17.601562 13.515625 17.71875 12.789062 17.273438 C 12.269531 16.804688 12.023438 16.222656 12.042969 15.523438 C 12.195312 15.292969 12.320312 15.054688 12.429688 14.804688 C 12.617188 14.589844 12.851562 14.445312 13.125 14.371094 Z M 13.125 14.371094 "/>
<path style=" stroke:none;fill-rule:evenodd;fill:rgb(65.490196%,22.745098%,17.647059%);fill-opacity:1;" d="M 13.171875 14.945312 C 13.710938 14.957031 14.085938 15.214844 14.300781 15.714844 C 14.359375 16.082031 14.277344 16.417969 14.058594 16.722656 C 13.632812 17.066406 13.25 17.019531 12.90625 16.578125 C 12.699219 16.273438 12.621094 15.9375 12.667969 15.570312 C 12.785156 15.449219 12.863281 15.304688 12.90625 15.140625 C 12.980469 15.042969 13.066406 14.980469 13.171875 14.945312 Z M 13.171875 14.945312 "/>
<path style=" stroke:none;fill-rule:evenodd;fill:rgb(66.666667%,30.980392%,25.882353%);fill-opacity:1;" d="M 24.59375 15.1875 C 24.492188 15.1875 24.398438 15.171875 24.304688 15.140625 C 24.292969 15.082031 24.308594 15.035156 24.351562 14.996094 C 24.445312 15.046875 24.523438 15.113281 24.59375 15.1875 Z M 24.59375 15.1875 "/>
<path style=" stroke:none;fill-rule:evenodd;fill:rgb(9.803922%,9.411765%,8.627451%);fill-opacity:1;" d="M 24.304688 15.140625 C 24.398438 15.171875 24.492188 15.1875 24.59375 15.1875 C 24.773438 15.277344 24.949219 15.382812 25.121094 15.5 C 25.601562 15.667969 26.066406 15.875 26.511719 16.121094 C 26.835938 16.226562 27.15625 16.335938 27.472656 16.457031 C 27.707031 16.589844 27.765625 16.773438 27.640625 17.011719 C 27.558594 17.070312 27.472656 17.109375 27.375 17.128906 C 26.40625 17.253906 25.445312 17.421875 24.496094 17.632812 C 24.328125 17.636719 24.226562 17.554688 24.183594 17.394531 C 24.085938 16.675781 24.050781 15.957031 24.089844 15.234375 C 24.152344 15.183594 24.222656 15.152344 24.304688 15.140625 Z M 24.304688 15.140625 "/>
<path style=" stroke:none;fill-rule:evenodd;fill:rgb(65.098039%,22.745098%,17.647059%);fill-opacity:1;" d="M 24.640625 15.953125 C 25.242188 16.136719 25.820312 16.382812 26.367188 16.699219 C 25.828125 16.796875 25.28125 16.867188 24.734375 16.914062 C 24.699219 16.59375 24.667969 16.273438 24.640625 15.953125 Z M 24.640625 15.953125 "/>
<path style=" stroke:none;fill-rule:evenodd;fill:rgb(51.372549%,50.588235%,48.627451%);fill-opacity:1;" d="M 40.761719 16.433594 C 40.765625 16.410156 40.78125 16.394531 40.8125 16.386719 C 40.875 16.90625 40.875 17.417969 40.8125 17.921875 C 40.828125 17.417969 40.8125 16.921875 40.761719 16.433594 Z M 40.761719 16.433594 "/>
<path style=" stroke:none;fill-rule:evenodd;fill:rgb(10.196078%,10.196078%,9.411765%);fill-opacity:1;" d="M 31.023438 17.539062 C 31.328125 17.53125 31.628906 17.539062 31.933594 17.5625 C 31.988281 17.617188 32.046875 17.675781 32.101562 17.730469 C 32.203125 19.378906 32.3125 21.027344 32.4375 22.671875 C 32.46875 23.664062 32.46875 24.65625 32.4375 25.648438 C 32.394531 26.160156 32.253906 26.640625 32.003906 27.085938 C 31.824219 27.316406 31.59375 27.46875 31.308594 27.542969 C 30.53125 27.683594 29.746094 27.75 28.957031 27.734375 C 28.828125 27.671875 28.761719 27.570312 28.765625 27.421875 C 29.34375 26.152344 29.613281 24.816406 29.582031 23.417969 C 29.535156 22.15625 29.433594 20.902344 29.269531 19.648438 C 29.214844 19.058594 29.199219 18.46875 29.222656 17.875 C 29.265625 17.816406 29.320312 17.777344 29.390625 17.753906 C 29.945312 17.707031 30.488281 17.636719 31.023438 17.539062 Z M 31.023438 17.539062 "/>
<path style=" stroke:none;fill-rule:evenodd;fill:rgb(47.45098%,26.27451%,23.137255%);fill-opacity:1;" d="M 45.226562 17.441406 C 45.226562 17.757812 45.195312 18.0625 45.128906 18.355469 C 45.128906 18.039062 45.160156 17.734375 45.226562 17.441406 Z M 45.226562 17.441406 "/>
<path style=" stroke:none;fill-rule:evenodd;fill:rgb(50.980392%,50.980392%,50.588235%);fill-opacity:1;" d="M 31.070312 18.164062 C 31.21875 18.113281 31.378906 18.097656 31.550781 18.113281 C 31.550781 18.195312 31.550781 18.273438 31.550781 18.355469 C 31.503906 18.304688 31.488281 18.238281 31.5 18.164062 C 31.359375 18.164062 31.214844 18.164062 31.070312 18.164062 Z M 31.070312 18.164062 "/>
<path style=" stroke:none;fill-rule:evenodd;fill:rgb(98.823529%,98.823529%,98.823529%);fill-opacity:1;" d="M 31.070312 18.164062 C 31.214844 18.164062 31.359375 18.164062 31.5 18.164062 C 31.488281 18.238281 31.503906 18.304688 31.550781 18.355469 C 31.675781 19.9375 31.78125 21.519531 31.863281 23.105469 C 31.894531 23.9375 31.894531 24.769531 31.863281 25.601562 C 31.820312 25.988281 31.707031 26.355469 31.527344 26.703125 C 31.425781 26.847656 31.289062 26.933594 31.117188 26.96875 C 30.578125 27.078125 30.035156 27.144531 29.488281 27.160156 C 29.863281 26.230469 30.082031 25.261719 30.132812 24.257812 C 30.167969 23.808594 30.167969 23.359375 30.132812 22.914062 C 30.035156 21.566406 29.929688 20.222656 29.824219 18.882812 C 29.824219 18.691406 29.824219 18.5 29.824219 18.304688 C 29.898438 18.320312 29.964844 18.304688 30.015625 18.257812 C 30.363281 18.195312 30.714844 18.164062 31.070312 18.164062 Z M 31.070312 18.164062 "/>
<path style=" stroke:none;fill-rule:evenodd;fill:rgb(10.196078%,10.196078%,9.411765%);fill-opacity:1;" d="M 11.636719 18.304688 C 12.5625 18.398438 13.492188 18.488281 14.417969 18.570312 C 18.484375 18.609375 22.546875 18.6875 26.609375 18.808594 C 27.167969 18.890625 27.464844 19.21875 27.496094 19.792969 C 27.785156 21.816406 27.882812 23.847656 27.78125 25.886719 C 27.71875 26.703125 27.277344 27.160156 26.464844 27.253906 C 23.464844 27.632812 20.457031 27.9375 17.441406 28.167969 C 16.066406 28.257812 14.691406 28.257812 13.316406 28.167969 C 12.792969 28.140625 12.296875 28.015625 11.828125 27.78125 C 11.539062 27.535156 11.371094 27.226562 11.324219 26.847656 C 10.820312 23.972656 10.925781 21.125 11.636719 18.304688 Z M 11.636719 18.304688 "/>
<path style=" stroke:none;fill-rule:evenodd;fill:rgb(70.980392%,70.980392%,70.588235%);fill-opacity:1;" d="M 30.015625 18.257812 C 29.964844 18.304688 29.898438 18.320312 29.824219 18.304688 C 29.824219 18.5 29.824219 18.691406 29.824219 18.882812 C 29.773438 18.683594 29.757812 18.476562 29.773438 18.257812 C 29.855469 18.257812 29.933594 18.257812 30.015625 18.257812 Z M 30.015625 18.257812 "/>
<use xlink:href="#surface21" mask="url(#mask5)"/>
<path style=" stroke:none;fill-rule:evenodd;fill:rgb(49.411765%,48.627451%,47.058824%);fill-opacity:1;" d="M 37.933594 18.59375 C 37.984375 18.550781 38.046875 18.535156 38.125 18.546875 C 38.136719 18.667969 38.121094 18.78125 38.074219 18.882812 C 38.074219 18.785156 38.074219 18.691406 38.074219 18.59375 C 38.027344 18.59375 37.980469 18.59375 37.933594 18.59375 Z M 37.933594 18.59375 "/>
<path style=" stroke:none;fill-rule:evenodd;fill:rgb(99.607843%,99.607843%,99.607843%);fill-opacity:1;" d="M 11.636719 22.097656 C 11.710938 21.773438 11.742188 21.4375 11.730469 21.089844 C 11.796875 20.367188 11.90625 19.65625 12.066406 18.953125 C 12.597656 18.972656 13.125 19.023438 13.652344 19.097656 C 17.96875 19.207031 22.289062 19.300781 26.609375 19.386719 C 26.800781 19.476562 26.90625 19.628906 26.917969 19.839844 C 27.253906 21.945312 27.316406 24.054688 27.109375 26.175781 C 27.015625 26.433594 26.832031 26.582031 26.558594 26.632812 C 23.210938 27.082031 19.851562 27.417969 16.484375 27.640625 C 15.164062 27.714844 13.851562 27.652344 12.546875 27.445312 C 12.320312 27.394531 12.136719 27.273438 11.996094 27.085938 C 11.871094 26.796875 11.792969 26.492188 11.757812 26.175781 C 11.589844 24.820312 11.550781 23.460938 11.636719 22.097656 Z M 11.636719 22.097656 "/>
<path style=" stroke:none;fill-rule:evenodd;fill:rgb(97.254902%,97.254902%,97.254902%);fill-opacity:1;" d="M 37.210938 20.65625 C 37.4375 20.65625 37.660156 20.65625 37.882812 20.65625 C 37.863281 20.894531 37.832031 21.125 37.789062 21.351562 C 37.117188 21.429688 36.445312 21.488281 35.773438 21.519531 C 35.757812 21.285156 35.773438 21.050781 35.820312 20.824219 C 36.292969 20.792969 36.757812 20.734375 37.210938 20.65625 Z M 37.210938 20.65625 "/>
<path style=" stroke:none;fill-rule:evenodd;fill:rgb(93.72549%,92.156863%,89.411765%);fill-opacity:1;" d="M 37.597656 21.664062 C 37.644531 21.664062 37.691406 21.664062 37.738281 21.664062 C 37.628906 22.867188 37.492188 24.066406 37.332031 25.265625 C 37.320312 25.550781 37.183594 25.753906 36.925781 25.863281 C 36.328125 25.941406 35.734375 26.046875 35.148438 26.175781 C 35.492188 24.738281 35.699219 23.285156 35.773438 21.808594 C 36.390625 21.777344 36.996094 21.730469 37.597656 21.664062 Z M 37.597656 21.664062 "/>
<path style=" stroke:none;fill-rule:evenodd;fill:rgb(70.980392%,70.196078%,68.627451%);fill-opacity:1;" d="M 11.730469 21.089844 C 11.742188 21.4375 11.710938 21.773438 11.636719 22.097656 C 11.640625 21.75 11.671875 21.414062 11.730469 21.089844 Z M 11.730469 21.089844 "/>
<path style=" stroke:none;fill-rule:evenodd;fill:rgb(65.490196%,22.745098%,17.647059%);fill-opacity:1;" d="M 27.472656 31.695312 C 27.601562 31.679688 27.730469 31.695312 27.855469 31.742188 C 27.703125 32.234375 27.558594 32.730469 27.421875 33.230469 C 26.878906 33.285156 26.335938 33.292969 25.792969 33.253906 C 26.070312 32.816406 26.261719 32.34375 26.367188 31.835938 C 26.746094 31.832031 27.113281 31.785156 27.472656 31.695312 Z M 27.472656 31.695312 "/>
<path style=" stroke:none;fill-rule:evenodd;fill:rgb(65.098039%,22.745098%,17.647059%);fill-opacity:1;" d="M 25.40625 33.277344 C 25.015625 33.292969 24.632812 33.277344 24.257812 33.230469 C 24.410156 32.828125 24.535156 32.421875 24.640625 32.003906 C 25.082031 31.984375 25.523438 31.941406 25.960938 31.886719 C 26 31.902344 26.039062 31.917969 26.078125 31.933594 C 25.929688 32.425781 25.707031 32.871094 25.40625 33.277344 Z M 25.40625 33.277344 "/>
<path style=" stroke:none;fill-rule:evenodd;fill:rgb(64.705882%,22.352941%,17.647059%);fill-opacity:1;" d="M 14.324219 32.078125 C 14.757812 32.089844 15.1875 32.121094 15.617188 32.171875 C 15.4375 32.773438 15.214844 33.359375 14.945312 33.925781 C 14.769531 33.957031 14.59375 33.957031 14.417969 33.925781 C 14.390625 33.890625 14.367188 33.847656 14.347656 33.804688 C 14.324219 33.230469 14.316406 32.652344 14.324219 32.078125 Z M 14.324219 32.078125 "/>
<path style=" stroke:none;fill-rule:evenodd;fill:rgb(65.098039%,22.745098%,17.647059%);fill-opacity:1;" d="M 23.632812 32.078125 C 23.855469 32.078125 24.082031 32.078125 24.304688 32.078125 C 24.226562 32.5 24.082031 32.898438 23.871094 33.277344 C 23.328125 33.332031 22.785156 33.363281 22.242188 33.375 C 22.390625 32.96875 22.503906 32.550781 22.578125 32.125 C 22.9375 32.140625 23.289062 32.125 23.632812 32.078125 Z M 23.632812 32.078125 "/>
<path style=" stroke:none;fill-rule:evenodd;fill:rgb(65.098039%,22.745098%,17.647059%);fill-opacity:1;" d="M 15.90625 32.171875 C 16.175781 32.160156 16.4375 32.175781 16.699219 32.222656 C 16.625 32.761719 16.472656 33.28125 16.242188 33.78125 C 15.9375 33.804688 15.632812 33.828125 15.332031 33.851562 C 15.542969 33.300781 15.734375 32.742188 15.90625 32.171875 Z M 15.90625 32.171875 "/>
<path style=" stroke:none;fill-rule:evenodd;fill:rgb(64.705882%,22.352941%,17.647059%);fill-opacity:1;" d="M 21.425781 32.171875 C 21.714844 32.171875 22 32.171875 22.289062 32.171875 C 22.207031 32.589844 22.070312 32.988281 21.882812 33.375 C 21.507812 33.4375 21.132812 33.4375 20.753906 33.375 C 20.925781 33.007812 21.019531 32.625 21.042969 32.222656 C 21.179688 32.238281 21.308594 32.21875 21.425781 32.171875 Z M 21.425781 32.171875 "/>
<path style=" stroke:none;fill-rule:evenodd;fill:rgb(65.490196%,22.745098%,17.647059%);fill-opacity:1;" d="M 17.011719 32.222656 C 17.332031 32.222656 17.648438 32.222656 17.96875 32.222656 C 17.988281 32.714844 17.875 33.179688 17.632812 33.613281 C 17.300781 33.679688 16.964844 33.710938 16.625 33.710938 C 16.714844 33.371094 16.820312 33.035156 16.9375 32.703125 C 16.988281 32.546875 17.011719 32.386719 17.011719 32.222656 Z M 17.011719 32.222656 "/>
<path style=" stroke:none;fill-rule:evenodd;fill:rgb(65.098039%,22.745098%,17.647059%);fill-opacity:1;" d="M 19.699219 32.222656 C 20.050781 32.222656 20.402344 32.222656 20.753906 32.222656 C 20.734375 32.667969 20.609375 33.074219 20.371094 33.445312 C 20.015625 33.480469 19.664062 33.496094 19.3125 33.492188 C 19.503906 33.085938 19.632812 32.664062 19.699219 32.222656 Z M 19.699219 32.222656 "/>
<path style=" stroke:none;fill-rule:evenodd;fill:rgb(65.098039%,22.745098%,17.647059%);fill-opacity:1;" d="M 18.257812 32.222656 C 18.640625 32.222656 19.027344 32.222656 19.410156 32.222656 C 19.328125 32.667969 19.191406 33.101562 19 33.515625 C 18.664062 33.589844 18.320312 33.613281 17.96875 33.589844 C 18.171875 33.15625 18.265625 32.699219 18.257812 32.222656 Z M 18.257812 32.222656 "/>
<path style=" stroke:none;fill-rule:evenodd;fill:rgb(29.803922%,13.72549%,11.372549%);fill-opacity:1;" d="M 24.257812 33.230469 C 24.632812 33.277344 25.015625 33.292969 25.40625 33.277344 C 25.015625 33.339844 24.617188 33.339844 24.207031 33.277344 C 24.214844 33.25 24.230469 33.230469 24.257812 33.230469 Z M 24.257812 33.230469 "/>
</g>
</svg>
