<?xml version="1.0" encoding="UTF-8"?>
<svg xmlns="http://www.w3.org/2000/svg" xmlns:xlink="http://www.w3.org/1999/xlink" width="50pt" height="50pt" viewBox="0 0 50 50" version="1.1">
<defs>
<filter id="alpha" filterUnits="objectBoundingBox" x="0%" y="0%" width="100%" height="100%">
  <feColorMatrix type="matrix" in="SourceGraphic" values="0 0 0 0 1 0 0 0 0 1 0 0 0 0 1 0 0 0 1 0"/>
</filter>
<mask id="mask0">
  <g filter="url(#alpha)">
<rect x="0" y="0" width="50" height="50" style="fill:rgb(0%,0%,0%);fill-opacity:0.992157;stroke:none;"/>
  </g>
</mask>
<clipPath id="clip1">
  <rect width="50" height="50"/>
</clipPath>
<g id="surface6" clip-path="url(#clip1)">
<path style=" stroke:none;fill-rule:evenodd;fill:rgb(0%,0%,0%);fill-opacity:1;" d="M 24.902344 3.804688 C 24.734375 4.035156 24.613281 4.292969 24.53125 4.574219 C 24.359375 5.359375 24.183594 6.140625 24.003906 6.925781 C 23.976562 7.128906 23.964844 7.332031 23.96875 7.539062 C 23.964844 7.824219 23.984375 8.105469 24.015625 8.390625 C 23.996094 8.679688 23.957031 8.964844 23.90625 9.253906 C 23.890625 9.5 23.890625 9.75 23.90625 9.996094 C 23.980469 10.46875 24.042969 10.941406 24.101562 11.414062 C 24.046875 12.46875 24.257812 13.460938 24.734375 14.390625 C 24.925781 14.855469 25.109375 15.328125 25.277344 15.804688 C 25.46875 16.207031 25.765625 16.488281 26.175781 16.660156 C 26.949219 16.925781 27.671875 17.292969 28.335938 17.761719 C 29.058594 18.285156 29.761719 18.828125 30.449219 19.394531 C 31.433594 20.261719 32.253906 21.257812 32.910156 22.382812 C 33.925781 24.390625 34.304688 26.507812 34.050781 28.746094 C 35.351562 28.871094 36.625 29.140625 37.867188 29.546875 C 38.25 29.703125 38.460938 29.988281 38.503906 30.402344 C 38.519531 30.554688 38.515625 30.707031 38.488281 30.855469 C 38.554688 31.003906 38.574219 31.15625 38.550781 31.3125 C 38.476562 31.484375 38.394531 31.652344 38.308594 31.816406 C 38.265625 31.992188 38.246094 32.167969 38.25 32.34375 C 38.320312 33.300781 38.417969 34.253906 38.550781 35.203125 C 38.632812 36.96875 38.777344 38.726562 38.980469 40.484375 C 39.128906 42.34375 39.210938 44.207031 39.222656 46.074219 C 39.230469 46.875 39.242188 47.675781 39.257812 48.476562 C 39.316406 49.277344 38.949219 49.632812 38.152344 49.542969 C 37.835938 49.457031 37.640625 49.253906 37.566406 48.933594 C 37.632812 45.429688 37.511719 41.933594 37.207031 38.441406 C 37.160156 37.539062 37.113281 36.632812 37.0625 35.730469 C 37.011719 35.136719 36.945312 34.542969 36.871094 33.953125 C 36.832031 33.335938 36.800781 32.722656 36.773438 32.105469 C 36.328125 32.242188 35.878906 32.347656 35.417969 32.429688 C 34.628906 32.566406 33.835938 32.671875 33.042969 32.753906 C 33.042969 32.820312 33.03125 32.882812 33.003906 32.945312 C 32.644531 33.707031 32.25 34.453125 31.828125 35.175781 C 31.703125 35.375 31.566406 35.570312 31.421875 35.753906 C 31.140625 36.070312 30.875 36.398438 30.628906 36.738281 C 30.125 37.515625 29.5625 38.25 28.949219 38.945312 C 28.570312 39.328125 28.1875 39.707031 27.808594 40.085938 C 27.035156 40.78125 26.273438 41.492188 25.527344 42.222656 C 25.390625 42.339844 25.25 42.457031 25.109375 42.570312 C 25.101562 43.691406 25.09375 44.8125 25.085938 45.929688 C 25.039062 46.144531 24.914062 46.292969 24.710938 46.375 C 24.398438 46.472656 24.128906 46.40625 23.90625 46.171875 C 23.882812 46.125 23.859375 46.074219 23.835938 46.027344 C 23.800781 45.101562 23.789062 44.171875 23.800781 43.242188 C 23.324219 43.3125 22.933594 43.164062 22.636719 42.785156 C 22.421875 42.484375 22.238281 42.164062 22.082031 41.828125 C 21.871094 41.460938 21.632812 41.117188 21.363281 40.792969 C 20.90625 40.304688 20.464844 39.800781 20.042969 39.28125 C 19.414062 38.398438 18.765625 37.523438 18.097656 36.664062 C 17.09375 35.53125 16.054688 34.429688 14.976562 33.351562 C 14.929688 33.296875 14.902344 33.234375 14.894531 33.160156 C 14.359375 33.089844 13.832031 32.984375 13.308594 32.847656 C 13.289062 33.023438 13.292969 33.199219 13.320312 33.378906 C 13.324219 34.65625 13.347656 35.9375 13.394531 37.21875 C 13.519531 39.003906 13.648438 40.785156 13.777344 42.570312 C 13.851562 44.035156 13.914062 45.5 13.957031 46.964844 C 13.964844 47.195312 13.929688 47.417969 13.851562 47.636719 C 13.652344 47.894531 13.394531 47.984375 13.070312 47.910156 C 12.8125 47.835938 12.640625 47.671875 12.554688 47.417969 C 12.53125 47.308594 12.515625 47.195312 12.507812 47.082031 C 12.460938 45.539062 12.398438 43.996094 12.3125 42.449219 C 12.183594 40.714844 12.054688 38.976562 11.929688 37.242188 C 11.871094 35.625 11.855469 34.011719 11.882812 32.394531 C 11.898438 32.273438 11.925781 32.15625 11.964844 32.046875 C 11.8125 31.136719 12.140625 30.464844 12.949219 30.027344 C 13.121094 29.945312 13.296875 29.871094 13.476562 29.8125 C 13.214844 29.285156 13.050781 28.730469 12.984375 28.144531 C 12.886719 27.132812 12.960938 26.132812 13.203125 25.144531 C 13.480469 23.976562 13.890625 22.855469 14.425781 21.785156 C 14.570312 21.527344 14.738281 21.285156 14.929688 21.0625 C 15.582031 20.410156 16.199219 19.730469 16.777344 19.023438 C 17.1875 18.574219 17.632812 18.171875 18.109375 17.8125 C 18.707031 17.390625 19.355469 17.09375 20.054688 16.921875 C 19.878906 16.183594 19.746094 15.433594 19.660156 14.679688 C 19.488281 13.9375 19.335938 13.195312 19.203125 12.445312 C 19.15625 12.121094 19.125 11.792969 19.105469 11.460938 C 19.070312 10.652344 19.042969 9.847656 19.023438 9.039062 C 19.007812 8.535156 19.0625 8.039062 19.179688 7.550781 C 19.28125 7.148438 19.492188 6.820312 19.816406 6.566406 C 19.78125 6.503906 19.753906 6.441406 19.730469 6.371094 C 19.703125 5.851562 19.726562 5.332031 19.804688 4.8125 C 19.871094 4.417969 20.007812 4.050781 20.210938 3.707031 C 20.386719 3.417969 20.554688 3.121094 20.714844 2.820312 C 20.941406 2.464844 21.265625 2.28125 21.6875 2.269531 C 21.890625 2.285156 22.089844 2.320312 22.289062 2.375 C 22.558594 2.472656 22.832031 2.570312 23.105469 2.664062 C 23.222656 2.695312 23.34375 2.71875 23.464844 2.738281 C 24.023438 2.75 24.585938 2.742188 25.144531 2.710938 C 25.347656 2.816406 25.414062 2.980469 25.347656 3.203125 C 25.1875 3.398438 25.039062 3.597656 24.902344 3.804688 Z M 24.902344 3.804688 "/>
</g>
<mask id="mask1">
  <g filter="url(#alpha)">
<rect x="0" y="0" width="50" height="50" style="fill:rgb(0%,0%,0%);fill-opacity:0.984314;stroke:none;"/>
  </g>
</mask>
<clipPath id="clip2">
  <rect width="50" height="50"/>
</clipPath>
<g id="surface9" clip-path="url(#clip2)">
<path style=" stroke:none;fill-rule:evenodd;fill:rgb(72.54902%,70.980392%,69.019608%);fill-opacity:1;" d="M 24.902344 3.804688 C 24.847656 7.332031 24.792969 10.863281 24.734375 14.390625 C 24.257812 13.460938 24.046875 12.46875 24.101562 11.414062 C 24.042969 10.941406 23.980469 10.46875 23.90625 9.996094 C 23.890625 9.75 23.890625 9.5 23.90625 9.253906 C 23.957031 8.964844 23.996094 8.679688 24.015625 8.390625 C 23.984375 8.105469 23.964844 7.824219 23.96875 7.539062 C 23.964844 7.332031 23.976562 7.128906 24.003906 6.925781 C 24.183594 6.140625 24.359375 5.359375 24.53125 4.574219 C 24.613281 4.292969 24.734375 4.035156 24.902344 3.804688 Z M 24.902344 3.804688 "/>
</g>
</defs>
<g id="surface1">
<use xlink:href="#surface6" mask="url(#mask0)"/>
<path style=" stroke:none;fill-rule:evenodd;fill:rgb(72.941176%,71.372549%,69.411765%);fill-opacity:1;" d="M 21.542969 2.917969 C 21.671875 2.910156 21.800781 2.925781 21.925781 2.953125 C 22.253906 3.058594 22.574219 3.179688 22.886719 3.3125 C 23.253906 3.425781 23.628906 3.472656 24.015625 3.457031 C 23.773438 3.816406 23.585938 4.207031 23.453125 4.621094 C 23.261719 5.257812 23.074219 5.898438 22.898438 6.542969 C 22.824219 6.863281 22.789062 7.191406 22.792969 7.523438 C 22.460938 7.425781 22.152344 7.285156 21.855469 7.105469 C 21.5625 6.882812 21.25 6.691406 20.917969 6.527344 C 20.839844 6.5 20.761719 6.480469 20.679688 6.46875 C 20.699219 6.046875 20.710938 5.621094 20.714844 5.195312 C 20.773438 4.777344 20.910156 4.386719 21.125 4.019531 C 21.214844 3.734375 21.296875 3.449219 21.363281 3.15625 C 21.40625 3.0625 21.464844 2.980469 21.542969 2.917969 Z M 21.542969 2.917969 "/>
<use xlink:href="#surface9" mask="url(#mask1)"/>
<path style=" stroke:none;fill-rule:evenodd;fill:rgb(72.941176%,71.372549%,69.411765%);fill-opacity:1;" d="M 32.394531 24.160156 C 32.386719 24.191406 32.394531 24.214844 32.417969 24.230469 C 32.421875 24.292969 32.4375 24.347656 32.464844 24.398438 C 32.457031 24.4375 32.46875 24.46875 32.488281 24.496094 C 32.628906 25.015625 32.734375 25.542969 32.800781 26.082031 C 32.132812 25.816406 31.4375 25.667969 30.714844 25.636719 C 29.421875 25.578125 28.136719 25.601562 26.847656 25.707031 C 24.898438 25.871094 22.953125 26.097656 21.015625 26.378906 C 18.808594 26.707031 16.605469 27.078125 14.414062 27.496094 C 14.390625 26.632812 14.507812 25.785156 14.761719 24.953125 C 14.972656 24.214844 15.226562 23.492188 15.53125 22.792969 C 15.691406 22.445312 15.898438 22.136719 16.15625 21.855469 C 16.386719 21.628906 16.613281 21.398438 16.828125 21.160156 C 17.296875 20.550781 17.804688 19.96875 18.351562 19.417969 C 18.753906 19.039062 19.210938 18.734375 19.71875 18.507812 C 20.023438 18.398438 20.335938 18.335938 20.65625 18.316406 C 21.296875 18.207031 21.589844 17.828125 21.53125 17.175781 C 21.351562 16.324219 21.199219 15.46875 21.074219 14.605469 C 20.878906 13.769531 20.707031 12.929688 20.558594 12.085938 C 20.566406 12.023438 20.558594 11.96875 20.535156 11.917969 C 20.542969 11.847656 20.535156 11.785156 20.511719 11.726562 C 20.453125 10.667969 20.398438 9.613281 20.34375 8.558594 C 20.328125 8.265625 20.371094 7.988281 20.476562 7.71875 C 20.492188 7.703125 20.507812 7.683594 20.523438 7.667969 C 20.972656 7.847656 21.417969 8.042969 21.855469 8.257812 C 22.148438 8.375 22.453125 8.453125 22.769531 8.496094 C 22.851562 8.683594 22.984375 8.820312 23.175781 8.90625 C 23.214844 8.917969 23.253906 8.921875 23.296875 8.917969 C 23.386719 9.84375 23.527344 10.765625 23.714844 11.679688 C 23.816406 12.691406 23.992188 13.691406 24.242188 14.679688 C 24.308594 15.25 24.425781 15.8125 24.605469 16.359375 C 24.75 16.746094 25.003906 17.046875 25.359375 17.257812 C 25.523438 17.351562 25.691406 17.441406 25.863281 17.523438 C 26.289062 17.679688 26.703125 17.855469 27.113281 18.050781 C 28.445312 18.824219 29.625 19.789062 30.652344 20.941406 C 31.144531 21.515625 31.558594 22.140625 31.902344 22.816406 C 32.085938 23.257812 32.25 23.707031 32.394531 24.160156 Z M 32.394531 24.160156 "/>
<path style=" stroke:none;fill-rule:evenodd;fill:rgb(2.745098%,2.745098%,2.745098%);fill-opacity:1;" d="M 27.710938 19.792969 C 28.148438 19.769531 28.488281 19.9375 28.734375 20.296875 C 29.007812 20.6875 29.097656 21.121094 28.996094 21.589844 C 28.851562 22.035156 28.554688 22.207031 28.097656 22.109375 C 27.6875 21.941406 27.414062 21.648438 27.269531 21.230469 C 27.09375 20.8125 27.125 20.410156 27.363281 20.03125 C 27.464844 19.925781 27.582031 19.84375 27.710938 19.792969 Z M 27.710938 19.792969 "/>
<path style=" stroke:none;fill-rule:evenodd;fill:rgb(72.54902%,70.980392%,69.019608%);fill-opacity:1;" d="M 27.738281 19.984375 C 27.949219 19.953125 28.144531 20.007812 28.3125 20.140625 C 28.828125 20.578125 28.96875 21.109375 28.734375 21.734375 C 28.476562 22 28.199219 22.019531 27.90625 21.796875 C 27.441406 21.402344 27.277344 20.910156 27.414062 20.320312 C 27.476562 20.164062 27.585938 20.050781 27.738281 19.984375 Z M 27.738281 19.984375 "/>
<path style=" stroke:none;fill-rule:evenodd;fill:rgb(66.27451%,23.137255%,18.039216%);fill-opacity:1;" d="M 32.800781 26.082031 C 32.902344 26.929688 32.894531 27.777344 32.777344 28.625 C 30.976562 28.519531 29.179688 28.484375 27.375 28.515625 C 26.003906 28.566406 24.636719 28.660156 23.273438 28.804688 C 22.726562 28.828125 22.183594 28.855469 21.640625 28.875 C 19.824219 28.878906 18.007812 28.894531 16.191406 28.925781 C 15.863281 28.9375 15.640625 29.09375 15.519531 29.394531 C 15.304688 29.441406 15.089844 29.476562 14.871094 29.488281 C 14.875 29.417969 14.871094 29.34375 14.859375 29.273438 C 14.582031 28.710938 14.433594 28.121094 14.414062 27.496094 C 16.605469 27.078125 18.808594 26.707031 21.015625 26.378906 C 22.953125 26.097656 24.898438 25.871094 26.847656 25.707031 C 28.136719 25.601562 29.421875 25.578125 30.714844 25.636719 C 31.4375 25.667969 32.132812 25.816406 32.800781 26.082031 Z M 32.800781 26.082031 "/>
<path style=" stroke:none;fill-rule:evenodd;fill:rgb(99.215686%,99.215686%,99.215686%);fill-opacity:1;" d="M 27.761719 29.296875 C 30.191406 29.269531 32.609375 29.449219 35.007812 29.835938 C 35.832031 29.988281 36.636719 30.1875 37.433594 30.4375 C 37.460938 30.476562 37.464844 30.523438 37.445312 30.570312 C 37.273438 30.652344 37.144531 30.777344 37.050781 30.941406 C 36.304688 31.132812 35.554688 31.285156 34.792969 31.398438 C 32.839844 31.675781 30.886719 31.953125 28.9375 32.238281 C 26.582031 32.480469 24.222656 32.570312 21.855469 32.5 C 20.15625 32.480469 18.460938 32.402344 16.765625 32.261719 C 16.011719 32.175781 15.261719 32.082031 14.511719 31.972656 C 14.164062 31.917969 13.816406 31.847656 13.476562 31.757812 C 13.363281 31.539062 13.1875 31.398438 12.949219 31.335938 C 12.953125 31.253906 12.980469 31.183594 13.035156 31.121094 C 13.09375 31.042969 13.160156 30.976562 13.238281 30.917969 C 13.957031 30.457031 14.738281 30.183594 15.589844 30.089844 C 15.695312 30.1875 15.816406 30.265625 15.949219 30.316406 C 16.335938 30.300781 16.71875 30.285156 17.101562 30.269531 C 19.472656 30.09375 21.84375 29.886719 24.207031 29.644531 C 25.386719 29.449219 26.570312 29.332031 27.761719 29.296875 Z M 27.761719 29.296875 "/>
<path style=" stroke:none;fill-rule:evenodd;fill:rgb(66.27451%,22.745098%,17.647059%);fill-opacity:1;" d="M 31.3125 32.992188 C 31.347656 32.988281 31.378906 32.996094 31.410156 33.015625 C 31.144531 33.605469 30.835938 34.164062 30.484375 34.699219 C 29.902344 35.40625 29.359375 36.144531 28.851562 36.90625 C 28.589844 37.242188 28.316406 37.570312 28.035156 37.890625 C 27.082031 38.851562 26.105469 39.789062 25.109375 40.699219 C 25.101562 39.910156 25.113281 39.121094 25.144531 38.335938 C 25.148438 37.21875 25.023438 36.117188 24.773438 35.035156 C 24.753906 34.875 24.738281 34.714844 24.734375 34.554688 C 24.714844 34.316406 24.785156 34.105469 24.941406 33.929688 C 24.980469 33.863281 25.011719 33.789062 25.023438 33.714844 C 27.148438 33.679688 29.242188 33.441406 31.3125 32.992188 Z M 31.3125 32.992188 "/>
<path style=" stroke:none;fill-rule:evenodd;fill:rgb(66.27451%,22.745098%,17.647059%);fill-opacity:1;" d="M 21.808594 33.714844 C 22.40625 33.730469 23.007812 33.746094 23.609375 33.761719 C 23.519531 34.117188 23.492188 34.476562 23.523438 34.839844 C 23.632812 35.707031 23.738281 36.570312 23.835938 37.433594 C 23.851562 38.882812 23.851562 40.332031 23.835938 41.777344 C 23.691406 41.882812 23.578125 41.851562 23.5 41.683594 C 23.398438 41.46875 23.300781 41.253906 23.210938 41.035156 C 23.082031 40.832031 22.945312 40.628906 22.804688 40.433594 C 21.753906 39.28125 20.785156 38.0625 19.898438 36.785156 C 18.988281 35.621094 18.007812 34.511719 16.957031 33.460938 C 17.789062 33.535156 18.621094 33.601562 19.457031 33.652344 C 20.238281 33.695312 21.023438 33.714844 21.808594 33.714844 Z M 21.808594 33.714844 "/>
<path style=" stroke:none;fill-rule:evenodd;fill:rgb(25.490196%,8.627451%,7.058824%);fill-opacity:1;" d="M 21.808594 33.714844 C 22.414062 33.707031 23.023438 33.714844 23.632812 33.738281 C 23.628906 33.753906 23.621094 33.761719 23.609375 33.761719 C 23.007812 33.746094 22.40625 33.730469 21.808594 33.714844 Z M 21.808594 33.714844 "/>
</g>
</svg>
