<?xml version="1.0" encoding="UTF-8"?>
<svg xmlns="http://www.w3.org/2000/svg" xmlns:xlink="http://www.w3.org/1999/xlink" width="50pt" height="50pt" viewBox="0 0 50 50" version="1.1">
<defs>
<filter id="alpha" filterUnits="objectBoundingBox" x="0%" y="0%" width="100%" height="100%">
  <feColorMatrix type="matrix" in="SourceGraphic" values="0 0 0 0 1 0 0 0 0 1 0 0 0 0 1 0 0 0 1 0"/>
</filter>
<mask id="mask0">
  <g filter="url(#alpha)">
<rect x="0" y="0" width="50" height="50" style="fill:rgb(0%,0%,0%);fill-opacity:0.992157;stroke:none;"/>
  </g>
</mask>
<clipPath id="clip1">
  <rect width="50" height="50"/>
</clipPath>
<g id="surface6" clip-path="url(#clip1)">
<path style=" stroke:none;fill-rule:evenodd;fill:rgb(0%,0%,0%);fill-opacity:1;" d="M 32.898438 20.03125 C 32.378906 19.738281 31.859375 19.449219 31.335938 19.15625 C 30.84375 18.847656 30.355469 18.535156 29.871094 18.21875 C 29.691406 18.113281 29.507812 18.011719 29.320312 17.917969 C 29.039062 17.773438 28.742188 17.660156 28.433594 17.582031 C 28.480469 17.898438 28.550781 18.210938 28.636719 18.519531 C 29.003906 19.632812 29.316406 20.757812 29.574219 21.902344 C 29.859375 23.535156 30.136719 25.167969 30.414062 26.800781 C 30.652344 28.089844 30.980469 29.351562 31.398438 30.59375 C 31.765625 31.578125 32.109375 32.570312 32.429688 33.570312 C 32.714844 34.621094 32.988281 35.675781 33.246094 36.738281 C 33.582031 38.066406 34.125 39.296875 34.878906 40.433594 C 35.160156 40.910156 35.335938 41.421875 35.40625 41.972656 C 35.46875 42.375 35.363281 42.722656 35.082031 43.015625 C 34.96875 43.105469 34.839844 43.167969 34.699219 43.207031 C 33.632812 43.417969 32.558594 43.585938 31.480469 43.710938 C 31.136719 43.765625 30.792969 43.828125 30.449219 43.902344 C 28.578125 44.335938 26.707031 44.75 24.832031 45.152344 C 23.167969 45.578125 21.503906 46.007812 19.839844 46.433594 C 19.863281 47.070312 19.914062 47.703125 19.996094 48.332031 C 20.0625 48.800781 19.882812 49.132812 19.457031 49.328125 C 19.203125 49.425781 18.960938 49.402344 18.734375 49.257812 C 18.667969 49.199219 18.617188 49.128906 18.578125 49.050781 C 18.507812 48.785156 18.460938 48.511719 18.433594 48.234375 C 18.378906 47.78125 18.34375 47.324219 18.328125 46.867188 C 17.984375 46.96875 17.640625 47.070312 17.292969 47.167969 C 16.902344 47.277344 16.5 47.320312 16.09375 47.289062 C 15.734375 47.214844 15.488281 47 15.363281 46.652344 C 15.234375 46.234375 15.324219 45.878906 15.636719 45.582031 C 15.699219 45.558594 15.753906 45.527344 15.804688 45.488281 C 16.621094 45.277344 17.4375 45.070312 18.253906 44.875 C 18.191406 39.191406 18.386719 33.519531 18.84375 27.855469 C 19.082031 25.34375 19.339844 22.828125 19.609375 20.320312 C 19.664062 19.902344 19.683594 19.488281 19.671875 19.070312 C 19.480469 19.152344 19.296875 19.242188 19.117188 19.347656 C 18.539062 19.722656 17.953125 20.089844 17.367188 20.453125 C 15.722656 21.292969 14.132812 22.210938 12.589844 23.210938 C 12.007812 23.644531 11.429688 24.082031 10.863281 24.53125 C 10.386719 24.882812 9.875 25.171875 9.324219 25.394531 C 8.894531 25.519531 8.515625 25.4375 8.183594 25.144531 C 8.027344 24.894531 7.960938 24.625 7.980469 24.328125 C 8.007812 23.695312 8.1875 23.113281 8.519531 22.574219 C 8.679688 22.3125 8.847656 22.058594 9.027344 21.808594 C 9.96875 20.546875 10.925781 19.296875 11.90625 18.0625 C 12.34375 17.535156 12.792969 17.015625 13.25 16.503906 C 15.160156 14.511719 17 12.464844 18.769531 10.359375 C 20.253906 8.585938 21.714844 6.800781 23.164062 5.003906 C 23.675781 4.332031 24.164062 3.644531 24.628906 2.941406 C 24.992188 2.4375 25.429688 2.011719 25.9375 1.65625 C 26.808594 1.210938 27.617188 1.308594 28.359375 1.945312 C 28.683594 2.242188 28.957031 2.574219 29.1875 2.941406 C 29.421875 3.335938 29.640625 3.746094 29.835938 4.164062 C 30.195312 5.019531 30.589844 5.859375 31.011719 6.683594 C 32.25 8.863281 33.5625 10.992188 34.949219 13.070312 C 35.46875 13.949219 35.925781 14.859375 36.316406 15.804688 C 36.738281 16.867188 37.167969 17.925781 37.613281 18.976562 C 37.867188 19.523438 38.015625 20.101562 38.058594 20.703125 C 38.023438 21.828125 37.480469 22.191406 36.425781 21.796875 C 35.222656 21.257812 34.046875 20.667969 32.898438 20.03125 Z M 28.71875 6.589844 C 29.097656 7.347656 29.503906 8.089844 29.933594 8.820312 C 30.980469 10.539062 32.042969 12.242188 33.125 13.933594 C 34.152344 15.597656 34.964844 17.359375 35.5625 19.214844 C 34.371094 18.59375 33.195312 17.953125 32.03125 17.292969 C 30.929688 13.726562 29.824219 10.15625 28.71875 6.589844 Z M 23.871094 7.285156 C 21.28125 10.957031 18.679688 14.628906 16.070312 18.289062 C 16.398438 18.320312 16.726562 18.339844 17.054688 18.351562 C 16.792969 18.535156 16.519531 18.707031 16.238281 18.867188 C 14.742188 19.648438 13.277344 20.476562 11.847656 21.351562 C 12.699219 20.167969 13.613281 19.03125 14.59375 17.941406 C 15.726562 16.789062 16.828125 15.613281 17.90625 14.414062 C 19.863281 12.011719 21.851562 9.636719 23.871094 7.285156 Z M 23.871094 7.285156 "/>
</g>
<mask id="mask1">
  <g filter="url(#alpha)">
<rect x="0" y="0" width="50" height="50" style="fill:rgb(0%,0%,0%);fill-opacity:0.972549;stroke:none;"/>
  </g>
</mask>
<clipPath id="clip2">
  <rect width="50" height="50"/>
</clipPath>
<g id="surface9" clip-path="url(#clip2)">
<path style=" stroke:none;fill-rule:evenodd;fill:rgb(72.941176%,71.372549%,69.411765%);fill-opacity:1;" d="M 29.320312 17.917969 C 29.507812 18.011719 29.691406 18.113281 29.871094 18.21875 C 30.355469 18.535156 30.84375 18.847656 31.335938 19.15625 C 31.859375 19.449219 32.378906 19.738281 32.898438 20.03125 C 33.199219 21.023438 33.5 22.015625 33.796875 23.007812 C 32.292969 21.320312 30.800781 19.625 29.320312 17.917969 Z M 29.320312 17.917969 "/>
</g>
</defs>
<g id="surface1">
<use xlink:href="#surface6" mask="url(#mask0)"/>
<path style=" stroke:none;fill-rule:evenodd;fill:rgb(72.941176%,71.372549%,69.411765%);fill-opacity:1;" d="M 28.71875 6.566406 C 28.71875 6.574219 28.71875 6.582031 28.71875 6.589844 C 29.824219 10.15625 30.929688 13.726562 32.03125 17.292969 C 31.46875 16.984375 30.910156 16.667969 30.351562 16.347656 C 29.664062 15.945312 28.929688 15.683594 28.144531 15.554688 C 27.328125 15.476562 26.8125 15.832031 26.597656 16.621094 C 26.515625 16.996094 26.492188 17.371094 26.523438 17.75 C 26.578125 18.179688 26.65625 18.605469 26.765625 19.023438 C 26.988281 19.785156 27.21875 20.546875 27.460938 21.304688 C 27.675781 22.078125 27.84375 22.863281 27.964844 23.65625 C 28.179688 25.300781 28.460938 26.929688 28.804688 28.550781 C 28.898438 28.964844 29.003906 29.371094 29.117188 29.777344 C 29.621094 31.273438 30.125 32.769531 30.628906 34.265625 C 30.898438 35.289062 31.164062 36.3125 31.421875 37.339844 C 31.65625 38.25 31.976562 39.128906 32.382812 39.976562 C 32.675781 40.496094 32.976562 41.007812 33.28125 41.515625 C 32.425781 41.640625 31.570312 41.765625 30.714844 41.886719 C 30.523438 41.929688 30.328125 41.96875 30.136719 42.007812 C 28.175781 42.46875 26.207031 42.910156 24.230469 43.328125 C 22.757812 43.699219 21.285156 44.078125 19.816406 44.46875 C 19.882812 42.164062 19.933594 39.859375 19.972656 37.554688 C 20.15625 33.835938 20.40625 30.125 20.714844 26.417969 C 20.921875 24.449219 21.167969 22.488281 21.460938 20.535156 C 21.503906 20.128906 21.546875 19.71875 21.578125 19.3125 C 21.625 18.84375 21.570312 18.386719 21.410156 17.941406 C 21.160156 17.320312 20.703125 17.007812 20.03125 17.007812 C 19.367188 17.089844 18.75 17.308594 18.183594 17.667969 C 17.839844 17.875 17.503906 18.089844 17.175781 18.316406 C 17.136719 18.339844 17.097656 18.351562 17.054688 18.351562 C 16.726562 18.339844 16.398438 18.320312 16.070312 18.289062 C 18.679688 14.628906 21.28125 10.957031 23.871094 7.285156 C 23.886719 7.285156 23.894531 7.277344 23.894531 7.261719 C 23.910156 7.261719 23.917969 7.253906 23.917969 7.238281 C 23.941406 7.230469 23.949219 7.214844 23.945312 7.1875 C 23.960938 7.1875 23.96875 7.179688 23.96875 7.164062 C 23.992188 7.132812 24.015625 7.101562 24.039062 7.070312 C 24.851562 6.054688 25.613281 5.007812 26.332031 3.925781 C 26.527344 3.695312 26.738281 3.484375 26.96875 3.300781 C 27.0625 3.359375 27.144531 3.429688 27.21875 3.515625 C 27.570312 3.972656 27.855469 4.46875 28.085938 5.003906 C 28.296875 5.527344 28.511719 6.046875 28.71875 6.566406 Z M 28.71875 6.566406 "/>
<use xlink:href="#surface9" mask="url(#mask1)"/>
</g>
</svg>
