<?xml version="1.0" encoding="UTF-8"?>
<svg xmlns="http://www.w3.org/2000/svg" xmlns:xlink="http://www.w3.org/1999/xlink" width="50pt" height="50pt" viewBox="0 0 50 50" version="1.1">
<defs>
<filter id="alpha" filterUnits="objectBoundingBox" x="0%" y="0%" width="100%" height="100%">
  <feColorMatrix type="matrix" in="SourceGraphic" values="0 0 0 0 1 0 0 0 0 1 0 0 0 0 1 0 0 0 1 0"/>
</filter>
<mask id="mask0">
  <g filter="url(#alpha)">
<rect x="0" y="0" width="50" height="50" style="fill:rgb(0%,0%,0%);fill-opacity:0.956863;stroke:none;"/>
  </g>
</mask>
<clipPath id="clip1">
  <rect width="50" height="50"/>
</clipPath>
<g id="surface6" clip-path="url(#clip1)">
<path style=" stroke:none;fill-rule:evenodd;fill:rgb(10.588235%,10.196078%,9.803922%);fill-opacity:1;" d="M 29.007812 23.007812 C 28.851562 22.9375 28.820312 22.824219 28.910156 22.671875 C 29.171875 22.472656 29.46875 22.363281 29.796875 22.335938 C 30.574219 22.460938 31.347656 22.578125 32.125 22.695312 C 32.757812 22.757812 33.382812 22.710938 33.996094 22.554688 C 34.566406 22.332031 35.113281 22.058594 35.628906 21.738281 C 38.027344 19.949219 40.28125 17.980469 42.394531 15.835938 C 42.507812 15.800781 42.621094 15.757812 42.730469 15.714844 C 43.664062 14.851562 44.503906 13.910156 45.25 12.882812 C 46.417969 11.351562 47.511719 9.765625 48.535156 8.132812 C 48.355469 8.070312 48.179688 8.078125 48.007812 8.15625 C 47.691406 8.90625 47.1875 9.492188 46.496094 9.910156 C 46.25 9.839844 46.171875 9.679688 46.257812 9.429688 C 46.542969 8.757812 46.976562 8.199219 47.554688 7.75 C 47.609375 7.644531 47.632812 7.53125 47.625 7.414062 C 47.066406 7.515625 46.570312 7.75 46.136719 8.109375 C 45.84375 8.375 45.539062 8.632812 45.226562 8.878906 C 44.871094 9.007812 44.734375 8.886719 44.816406 8.515625 C 45.207031 8.128906 45.558594 7.714844 45.875 7.269531 C 46.382812 6.304688 46.136719 6 45.128906 6.359375 C 44.917969 7.015625 44.53125 7.550781 43.976562 7.964844 C 43.589844 8.203125 43.421875 8.097656 43.472656 7.652344 C 43.734375 7.089844 44.085938 6.59375 44.53125 6.167969 C 44.546875 5.929688 44.433594 5.785156 44.195312 5.734375 C 43.742188 6.003906 43.285156 6.269531 42.828125 6.527344 C 41.90625 7.332031 41.035156 8.1875 40.210938 9.09375 C 39.652344 9.761719 39.078125 10.417969 38.484375 11.058594 C 38.128906 11.832031 37.625 12.496094 36.972656 13.050781 C 36.058594 13.652344 35.164062 14.277344 34.285156 14.921875 C 33.613281 15.300781 32.933594 15.660156 32.246094 16.003906 C 31.269531 17.847656 30.03125 19.496094 28.527344 20.945312 C 27.730469 21.6875 26.878906 22.367188 25.984375 22.984375 C 25.738281 23.097656 25.484375 23.128906 25.214844 23.082031 C 25.085938 22.953125 25.101562 22.84375 25.265625 22.746094 C 26.363281 21.996094 27.378906 21.140625 28.3125 20.175781 C 28.332031 20.148438 28.339844 20.117188 28.335938 20.082031 C 30.082031 18.21875 31.394531 16.078125 32.269531 13.652344 C 29.425781 12.6875 26.515625 11.980469 23.535156 11.539062 C 22.609375 11.339844 21.671875 11.226562 20.730469 11.203125 C 20.292969 11.121094 19.851562 11.074219 19.410156 11.058594 C 19.148438 11.050781 18.890625 11.082031 18.640625 11.15625 C 16.214844 10.96875 13.863281 11.3125 11.589844 12.1875 C 10.710938 12.492188 9.878906 12.886719 9.09375 13.363281 C 8.640625 13.597656 8.191406 13.847656 7.75 14.109375 C 7.675781 14.214844 7.613281 14.324219 7.558594 14.445312 C 6.753906 14.703125 6.15625 15.207031 5.757812 15.953125 C 5.511719 16.402344 5.304688 16.867188 5.132812 17.347656 C 4.414062 19.574219 3.867188 21.847656 3.503906 24.160156 C 3.242188 26.316406 3.183594 28.472656 3.335938 30.636719 C 3.738281 30.832031 4.152344 30.984375 4.582031 31.09375 C 5.125 31.144531 5.667969 31.175781 6.214844 31.191406 C 7.269531 31.351562 8.324219 31.511719 9.382812 31.667969 C 10.292969 31.726562 11.207031 31.800781 12.117188 31.886719 C 12.191406 31.886719 12.253906 31.871094 12.308594 31.835938 C 12.601562 31.847656 12.890625 31.898438 13.171875 31.980469 C 13.171875 32.015625 13.1875 32.03125 13.21875 32.03125 C 13.234375 32.03125 13.25 32.03125 13.269531 32.03125 C 13.316406 32.148438 13.351562 32.148438 13.363281 32.03125 C 13.59375 30.6875 13.722656 29.328125 13.746094 27.949219 C 13.6875 26.457031 13.6875 24.960938 13.746094 23.464844 C 13.683594 21.96875 13.601562 20.472656 13.507812 18.976562 C 13.507812 18.714844 13.636719 18.625 13.890625 18.714844 C 14.015625 19.210938 14.117188 19.714844 14.203125 20.226562 C 14.210938 22.453125 14.292969 24.675781 14.445312 26.894531 C 14.488281 28.671875 14.445312 30.449219 14.324219 32.222656 C 14.316406 32.464844 14.332031 32.703125 14.371094 32.941406 C 14.195312 33.671875 14.082031 34.414062 14.035156 35.171875 C 14.074219 35.972656 14.492188 36.460938 15.28125 36.636719 C 15.957031 36.78125 16.613281 36.714844 17.25 36.445312 C 17.894531 36.277344 18.53125 36.117188 19.167969 35.964844 C 19.730469 35.894531 20.242188 35.703125 20.707031 35.390625 C 21.519531 34.964844 22.300781 34.496094 23.054688 33.972656 C 23.5625 33.277344 24.183594 32.714844 24.929688 32.292969 C 25.894531 31.761719 26.867188 31.25 27.855469 30.757812 C 28.574219 30.507812 29.277344 30.21875 29.964844 29.894531 C 30.121094 29.835938 30.28125 29.8125 30.445312 29.824219 C 30.851562 29.910156 31.125 30.148438 31.261719 30.542969 C 31.296875 30.65625 31.359375 30.671875 31.453125 30.589844 C 32.121094 30.375 32.59375 30.585938 32.871094 31.214844 C 32.953125 31.710938 32.800781 32.117188 32.414062 32.4375 C 32.675781 32.40625 32.9375 32.382812 33.207031 32.367188 C 33.460938 32.363281 33.707031 32.402344 33.949219 32.484375 C 34.046875 32.535156 34.09375 32.613281 34.09375 32.726562 C 34.066406 32.828125 34.050781 32.933594 34.046875 33.039062 C 34.003906 33.03125 33.972656 33.046875 33.949219 33.085938 C 33.984375 33.148438 34.015625 33.148438 34.046875 33.085938 C 34.609375 33.1875 34.871094 33.523438 34.835938 34.09375 C 34.734375 34.507812 34.542969 34.875 34.261719 35.195312 C 33.179688 36.351562 31.957031 37.308594 30.589844 38.074219 C 29.816406 38.484375 29.050781 38.910156 28.285156 39.347656 C 25.792969 41.15625 23.105469 42.644531 20.226562 43.808594 C 17.976562 44.59375 15.671875 45.15625 13.316406 45.488281 C 12.628906 45.511719 11.941406 45.519531 11.253906 45.511719 C 10.664062 45.464844 10.089844 45.351562 9.523438 45.175781 C 9.507812 45.203125 9.492188 45.226562 9.476562 45.25 C 9.875 46.457031 10.242188 47.671875 10.582031 48.894531 C 10.476562 49.191406 10.308594 49.230469 10.078125 49.015625 C 9.699219 47.660156 9.285156 46.316406 8.828125 44.984375 C 8.648438 44.867188 8.464844 44.753906 8.277344 44.648438 C 7.328125 44.109375 6.535156 43.386719 5.902344 42.492188 C 5.578125 42.191406 5.25 41.902344 4.917969 41.625 C 4.257812 40.960938 3.832031 40.160156 3.648438 39.226562 C 3.089844 37 2.671875 34.742188 2.398438 32.460938 C 1.777344 27.273438 2.464844 22.265625 4.460938 17.441406 C 5.078125 15.867188 6 14.496094 7.222656 13.339844 C 8.757812 12.164062 10.484375 11.421875 12.402344 11.109375 C 12.375 10.957031 12.320312 10.8125 12.234375 10.675781 C 11.65625 9.980469 11.4375 9.179688 11.589844 8.277344 C 11.558594 8.222656 11.515625 8.175781 11.46875 8.132812 C 11.398438 7.550781 11.480469 6.992188 11.707031 6.453125 C 12.136719 5.574219 12.527344 4.691406 12.882812 3.816406 C 12.359375 3.957031 11.878906 4.1875 11.445312 4.511719 C 11.386719 4.589844 11.347656 4.675781 11.324219 4.773438 C 11.1875 4.898438 11.050781 4.898438 10.917969 4.773438 C 10.820312 4.582031 10.820312 4.398438 10.917969 4.222656 C 11.578125 3.730469 12.3125 3.394531 13.125 3.214844 C 12.476562 2.9375 11.804688 2.828125 11.109375 2.878906 C 10.90625 2.695312 10.921875 2.535156 11.15625 2.398438 C 12.125 2.304688 13.027344 2.503906 13.867188 3 C 13.902344 2.96875 13.945312 2.945312 13.988281 2.925781 C 13.480469 2.304688 13.160156 1.59375 13.027344 0.792969 C 13.082031 0.5625 13.226562 0.492188 13.460938 0.574219 C 13.625 0.957031 13.761719 1.347656 13.867188 1.75 C 14.035156 2.175781 14.308594 2.511719 14.683594 2.757812 C 14.730469 1.964844 14.953125 1.230469 15.355469 0.550781 C 15.476562 0.382812 15.636719 0.269531 15.835938 0.214844 C 15.992188 0.222656 16.078125 0.300781 16.097656 0.457031 C 15.90625 0.71875 15.722656 0.992188 15.546875 1.273438 C 15.359375 1.789062 15.25 2.316406 15.210938 2.855469 C 15.410156 2.707031 15.570312 2.738281 15.691406 2.949219 C 15.898438 2.804688 16.082031 2.828125 16.242188 3.023438 C 16.558594 3.0625 16.832031 3.1875 17.058594 3.40625 C 17.808594 4.023438 18.285156 4.808594 18.5 5.757812 C 18.480469 5.828125 18.445312 5.894531 18.402344 5.949219 C 18.554688 6.164062 18.671875 6.398438 18.761719 6.644531 C 19.019531 7.445312 19.273438 8.246094 19.53125 9.046875 C 19.683594 9.570312 19.59375 10.050781 19.265625 10.484375 C 19.277344 10.511719 19.292969 10.535156 19.3125 10.554688 C 19.917969 10.589844 20.519531 10.546875 21.113281 10.4375 C 25.3125 10.890625 29.414062 11.777344 33.421875 13.101562 C 33.515625 13.203125 33.539062 13.324219 33.492188 13.460938 C 33.421875 13.53125 33.347656 13.605469 33.277344 13.675781 C 33.132812 14.074219 32.972656 14.464844 32.796875 14.851562 C 33.585938 14.464844 34.386719 14.054688 35.195312 13.628906 C 36.113281 12.820312 36.988281 11.964844 37.8125 11.058594 C 38.003906 10.675781 38.195312 10.292969 38.386719 9.910156 C 38.632812 9.582031 38.898438 9.269531 39.179688 8.972656 C 39.867188 8.367188 40.539062 7.742188 41.195312 7.101562 C 42.050781 6.488281 42.898438 5.867188 43.738281 5.230469 C 43.980469 5.15625 44.21875 5.171875 44.457031 5.277344 C 44.671875 5.394531 44.855469 5.546875 45.007812 5.734375 C 45.5 5.429688 45.984375 5.421875 46.472656 5.710938 C 46.742188 5.984375 46.832031 6.3125 46.738281 6.695312 C 46.667969 6.890625 46.605469 7.082031 46.546875 7.269531 C 47.007812 6.980469 47.511719 6.863281 48.054688 6.910156 C 48.113281 6.933594 48.152344 6.972656 48.175781 7.03125 C 48.199219 7.171875 48.207031 7.316406 48.199219 7.460938 C 48.859375 7.414062 49.230469 7.71875 49.304688 8.375 C 49.261719 8.742188 49.15625 9.09375 48.992188 9.429688 C 48.679688 10.03125 48.328125 10.605469 47.9375 11.15625 C 47.398438 11.8125 46.839844 12.453125 46.257812 13.074219 C 45.3125 13.957031 44.398438 14.871094 43.523438 15.8125 C 43.507812 15.875 43.488281 15.9375 43.472656 16.003906 C 41.394531 18.21875 39.148438 20.226562 36.730469 22.023438 C 36.050781 22.503906 35.332031 22.917969 34.574219 23.273438 C 33.742188 23.519531 32.894531 23.601562 32.03125 23.511719 C 31.015625 23.375 30.007812 23.207031 29.007812 23.007812 Z M 15.140625 3.046875 C 15.378906 3.507812 15.507812 4.003906 15.523438 4.535156 C 15.175781 4.53125 14.839844 4.59375 14.515625 4.726562 C 14.523438 4.230469 14.628906 3.75 14.828125 3.285156 C 14.957031 3.234375 15.058594 3.15625 15.140625 3.046875 Z M 12.355469 6.359375 C 12.691406 5.578125 13.054688 4.8125 13.4375 4.054688 C 13.613281 3.789062 13.847656 3.578125 14.132812 3.429688 C 14.097656 3.964844 13.996094 4.492188 13.820312 5.015625 C 13.246094 5.371094 12.757812 5.820312 12.355469 6.359375 Z M 17.730469 5.207031 C 17.234375 4.835938 16.671875 4.613281 16.050781 4.535156 C 16.027344 4.183594 15.964844 3.839844 15.859375 3.503906 C 15.875 3.480469 15.890625 3.453125 15.90625 3.429688 C 16.160156 3.503906 16.402344 3.605469 16.625 3.742188 C 16.875 3.992188 17.121094 4.238281 17.371094 4.488281 C 17.542969 4.703125 17.660156 4.941406 17.730469 5.207031 Z M 28.910156 22.671875 C 28.800781 22.089844 28.671875 21.515625 28.527344 20.945312 C 30.03125 19.496094 31.269531 17.847656 32.246094 16.003906 C 32.933594 15.660156 33.613281 15.300781 34.285156 14.921875 C 35.164062 14.277344 36.058594 13.652344 36.972656 13.050781 C 37.625 12.496094 38.128906 11.832031 38.484375 11.058594 C 39.078125 10.417969 39.652344 9.761719 40.210938 9.09375 C 41.035156 8.1875 41.90625 7.332031 42.828125 6.527344 C 43.285156 6.269531 43.742188 6.003906 44.195312 5.734375 C 44.433594 5.785156 44.546875 5.929688 44.53125 6.167969 C 44.085938 6.59375 43.734375 7.089844 43.472656 7.652344 C 43.421875 8.097656 43.589844 8.203125 43.976562 7.964844 C 44.53125 7.550781 44.917969 7.015625 45.128906 6.359375 C 46.136719 6 46.382812 6.304688 45.875 7.269531 C 45.558594 7.714844 45.207031 8.128906 44.816406 8.515625 C 44.734375 8.886719 44.871094 9.007812 45.226562 8.878906 C 45.539062 8.632812 45.84375 8.375 46.136719 8.109375 C 46.570312 7.75 47.066406 7.515625 47.625 7.414062 C 47.632812 7.53125 47.609375 7.644531 47.554688 7.75 C 46.976562 8.199219 46.542969 8.757812 46.257812 9.429688 C 46.171875 9.679688 46.25 9.839844 46.496094 9.910156 C 47.1875 9.492188 47.691406 8.90625 48.007812 8.15625 C 48.179688 8.078125 48.355469 8.070312 48.535156 8.132812 C 47.511719 9.765625 46.417969 11.351562 45.25 12.882812 C 44.503906 13.910156 43.664062 14.851562 42.730469 15.714844 C 42.621094 15.757812 42.507812 15.800781 42.394531 15.835938 C 40.28125 17.980469 38.027344 19.949219 35.628906 21.738281 C 35.113281 22.058594 34.566406 22.332031 33.996094 22.554688 C 33.382812 22.710938 32.757812 22.757812 32.125 22.695312 C 31.347656 22.578125 30.574219 22.460938 29.796875 22.335938 C 29.46875 22.363281 29.171875 22.472656 28.910156 22.671875 Z M 48.390625 9.382812 C 48.054688 10.085938 47.625 10.726562 47.097656 11.300781 C 47.503906 10.644531 47.9375 10.003906 48.390625 9.382812 Z M 18.832031 10.195312 C 18.75 10.292969 18.667969 10.398438 18.59375 10.507812 C 18.339844 10.53125 18.082031 10.539062 17.828125 10.53125 C 18.15625 10.414062 18.492188 10.300781 18.832031 10.195312 Z M 47.097656 11.300781 C 47.101562 11.375 47.070312 11.421875 47 11.445312 C 46.996094 11.371094 47.03125 11.324219 47.097656 11.300781 Z M 23.535156 11.539062 C 26.515625 11.980469 29.425781 12.6875 32.269531 13.652344 C 31.394531 16.078125 30.082031 18.21875 28.335938 20.082031 C 28.011719 18.425781 27.652344 16.777344 27.253906 15.140625 C 26.175781 13.765625 24.9375 12.566406 23.535156 11.539062 Z M 9.09375 13.363281 C 7.230469 16.210938 5.847656 19.28125 4.941406 22.578125 C 4.816406 23.113281 4.746094 23.65625 4.726562 24.207031 C 4.921875 25.921875 5.03125 27.640625 5.0625 29.367188 C 5.0625 29.675781 5.046875 29.976562 5.015625 30.277344 C 7.453125 30.796875 9.882812 31.316406 12.308594 31.835938 C 12.253906 31.871094 12.191406 31.886719 12.117188 31.886719 C 11.207031 31.800781 10.292969 31.726562 9.382812 31.667969 C 8.324219 31.511719 7.269531 31.351562 6.214844 31.191406 C 5.667969 31.175781 5.125 31.144531 4.582031 31.09375 C 4.152344 30.984375 3.738281 30.832031 3.335938 30.636719 C 3.183594 28.472656 3.242188 26.316406 3.503906 24.160156 C 3.867188 21.847656 4.414062 19.574219 5.132812 17.347656 C 5.304688 16.867188 5.511719 16.402344 5.757812 15.953125 C 6.15625 15.207031 6.753906 14.703125 7.558594 14.445312 C 7.613281 14.324219 7.675781 14.214844 7.75 14.109375 C 8.191406 13.847656 8.640625 13.597656 9.09375 13.363281 Z M 29.773438 30.636719 C 28.671875 31.238281 27.550781 31.8125 26.414062 32.367188 C 26.429688 32.332031 26.449219 32.300781 26.464844 32.269531 C 26.566406 32.257812 26.648438 32.210938 26.703125 32.125 C 26.777344 32.128906 26.824219 32.097656 26.847656 32.03125 C 26.953125 32.019531 27.03125 31.96875 27.085938 31.886719 C 27.191406 31.875 27.273438 31.824219 27.328125 31.742188 C 27.375 31.75 27.40625 31.734375 27.421875 31.695312 C 27.496094 31.699219 27.542969 31.664062 27.566406 31.597656 C 28.058594 31.335938 28.554688 31.070312 29.054688 30.804688 C 29.292969 30.742188 29.535156 30.6875 29.773438 30.636719 Z M 3.429688 31.695312 C 3.539062 32.621094 3.632812 33.546875 3.71875 34.476562 C 3.5625 33.640625 3.453125 32.792969 3.382812 31.933594 C 3.382812 31.84375 3.398438 31.765625 3.429688 31.695312 Z M 13.269531 32.03125 C 13.300781 32.03125 13.332031 32.03125 13.363281 32.03125 C 13.351562 32.148438 13.316406 32.148438 13.269531 32.03125 Z M 14.324219 32.222656 C 14.570312 32.28125 14.820312 32.347656 15.066406 32.414062 C 15.082031 32.925781 15.097656 33.4375 15.113281 33.949219 C 15.164062 34.675781 15.40625 35.332031 15.835938 35.917969 C 16.046875 36.128906 16.296875 36.289062 16.578125 36.394531 C 16.160156 36.511719 15.726562 36.589844 15.28125 36.636719 C 14.492188 36.460938 14.074219 35.972656 14.035156 35.171875 C 14.082031 34.414062 14.195312 33.671875 14.371094 32.941406 C 14.332031 32.703125 14.316406 32.464844 14.324219 32.222656 Z M 12.597656 32.75 C 12.804688 32.742188 13.011719 32.75 13.21875 32.773438 C 13.28125 32.792969 13.3125 32.832031 13.316406 32.894531 C 13.066406 32.859375 12.828125 32.808594 12.597656 32.75 Z M 13.269531 34.667969 C 13.3125 35.1875 13.441406 35.683594 13.652344 36.15625 C 13.355469 35.820312 13.210938 35.417969 13.21875 34.957031 C 13.21875 34.851562 13.234375 34.753906 13.269531 34.667969 Z M 32.75 35.917969 C 32.726562 35.984375 32.679688 36.015625 32.605469 36.011719 C 32.628906 35.945312 32.675781 35.914062 32.75 35.917969 Z M 32.605469 36.011719 C 32.410156 36.226562 32.183594 36.402344 31.933594 36.539062 C 32.101562 36.371094 32.277344 36.210938 32.460938 36.058594 C 32.503906 36.03125 32.550781 36.015625 32.605469 36.011719 Z M 31.886719 36.589844 C 31.863281 36.65625 31.816406 36.6875 31.742188 36.683594 C 31.765625 36.617188 31.8125 36.585938 31.886719 36.589844 Z M 4.4375 39.707031 C 4.515625 39.769531 4.539062 39.847656 4.511719 39.945312 C 4.460938 39.875 4.4375 39.792969 4.4375 39.707031 Z M 15.332031 44.554688 C 15.28125 44.585938 15.234375 44.617188 15.1875 44.648438 C 14.867188 44.671875 14.546875 44.6875 14.226562 44.699219 C 14.585938 44.625 14.953125 44.578125 15.332031 44.554688 Z M 15.332031 44.554688 "/>
</g>
<mask id="mask1">
  <g filter="url(#alpha)">
<rect x="0" y="0" width="50" height="50" style="fill:rgb(0%,0%,0%);fill-opacity:0.996078;stroke:none;"/>
  </g>
</mask>
<clipPath id="clip2">
  <rect width="50" height="50"/>
</clipPath>
<g id="surface9" clip-path="url(#clip2)">
<path style=" stroke:none;fill-rule:evenodd;fill:rgb(66.27451%,22.745098%,17.647059%);fill-opacity:1;" d="M 23.535156 11.539062 C 24.9375 12.566406 26.175781 13.765625 27.253906 15.140625 C 27.652344 16.777344 28.011719 18.425781 28.335938 20.082031 C 28.339844 20.117188 28.332031 20.148438 28.3125 20.175781 C 27.378906 21.140625 26.363281 21.996094 25.265625 22.746094 C 25.101562 22.84375 25.085938 22.953125 25.214844 23.082031 C 25.484375 23.128906 25.738281 23.097656 25.984375 22.984375 C 26.878906 22.367188 27.730469 21.6875 28.527344 20.945312 C 28.671875 21.515625 28.800781 22.089844 28.910156 22.671875 C 28.820312 22.824219 28.851562 22.9375 29.007812 23.007812 C 29.492188 25.277344 29.972656 27.550781 30.445312 29.824219 C 30.28125 29.8125 30.121094 29.835938 29.964844 29.894531 C 29.277344 30.21875 28.574219 30.507812 27.855469 30.757812 C 26.867188 31.25 25.894531 31.761719 24.929688 32.292969 C 24.183594 32.714844 23.5625 33.277344 23.054688 33.972656 C 22.300781 34.496094 21.519531 34.964844 20.707031 35.390625 C 20.179688 35.554688 19.667969 35.746094 19.167969 35.964844 C 18.53125 36.117188 17.894531 36.277344 17.25 36.445312 C 17.023438 36.441406 16.800781 36.425781 16.578125 36.394531 C 16.296875 36.289062 16.046875 36.128906 15.835938 35.917969 C 15.40625 35.332031 15.164062 34.675781 15.113281 33.949219 C 15.097656 33.4375 15.082031 32.925781 15.066406 32.414062 C 14.820312 32.347656 14.570312 32.28125 14.324219 32.222656 C 14.445312 30.449219 14.488281 28.671875 14.445312 26.894531 C 14.292969 24.675781 14.210938 22.453125 14.203125 20.226562 C 14.117188 19.714844 14.015625 19.210938 13.890625 18.714844 C 13.636719 18.625 13.507812 18.714844 13.507812 18.976562 C 13.601562 20.472656 13.683594 21.96875 13.746094 23.464844 C 13.6875 24.960938 13.6875 26.457031 13.746094 27.949219 C 13.722656 29.328125 13.59375 30.6875 13.363281 32.03125 C 13.332031 32.03125 13.300781 32.03125 13.269531 32.03125 C 13.25 32.03125 13.234375 32.03125 13.21875 32.03125 C 13.1875 32.03125 13.171875 32.015625 13.171875 31.980469 C 12.890625 31.898438 12.601562 31.847656 12.308594 31.835938 C 9.882812 31.316406 7.453125 30.796875 5.015625 30.277344 C 5.046875 29.976562 5.0625 29.675781 5.0625 29.367188 C 5.03125 27.640625 4.921875 25.921875 4.726562 24.207031 C 4.746094 23.65625 4.816406 23.113281 4.941406 22.578125 C 5.847656 19.28125 7.230469 16.210938 9.09375 13.363281 C 9.878906 12.886719 10.710938 12.492188 11.589844 12.1875 C 13.863281 11.3125 16.214844 10.96875 18.640625 11.15625 C 18.890625 11.082031 19.148438 11.050781 19.410156 11.058594 C 19.851562 11.074219 20.292969 11.121094 20.730469 11.203125 C 21.671875 11.226562 22.609375 11.339844 23.535156 11.539062 Z M 23.535156 11.539062 "/>
</g>
<mask id="mask2">
  <g filter="url(#alpha)">
<rect x="0" y="0" width="50" height="50" style="fill:rgb(0%,0%,0%);fill-opacity:0.996078;stroke:none;"/>
  </g>
</mask>
<clipPath id="clip3">
  <rect width="50" height="50"/>
</clipPath>
<g id="surface12" clip-path="url(#clip3)">
<path style=" stroke:none;fill-rule:evenodd;fill:rgb(99.607843%,99.607843%,99.607843%);fill-opacity:1;" d="M 29.199219 38.027344 C 26.550781 39.488281 23.863281 40.886719 21.136719 42.226562 C 19.457031 43.019531 17.746094 43.742188 16.003906 44.386719 C 15.832031 44.449219 15.65625 44.488281 15.476562 44.503906 C 15.425781 44.496094 15.394531 44.511719 15.378906 44.554688 C 15.363281 44.554688 15.347656 44.554688 15.332031 44.554688 C 14.953125 44.578125 14.585938 44.625 14.226562 44.699219 C 14.058594 44.683594 13.898438 44.699219 13.746094 44.746094 C 10.976562 44.816406 8.515625 43.992188 6.359375 42.273438 C 5.953125 41.773438 5.625 41.222656 5.375 40.617188 C 4.617188 38.773438 4.082031 36.867188 3.765625 34.910156 C 3.78125 34.753906 3.765625 34.609375 3.71875 34.476562 C 3.632812 33.546875 3.539062 32.621094 3.429688 31.695312 C 3.488281 31.617188 3.566406 31.578125 3.671875 31.574219 C 3.894531 31.542969 4.117188 31.542969 4.34375 31.574219 C 5.558594 31.734375 6.773438 31.886719 7.988281 32.03125 C 8.089844 32.078125 8.203125 32.09375 8.324219 32.078125 C 8.410156 32.125 8.507812 32.140625 8.613281 32.125 C 8.699219 32.171875 8.792969 32.1875 8.902344 32.171875 C 9.003906 32.21875 9.113281 32.234375 9.238281 32.222656 C 9.320312 32.269531 9.417969 32.285156 9.523438 32.269531 C 9.609375 32.316406 9.707031 32.332031 9.8125 32.316406 C 9.914062 32.363281 10.027344 32.378906 10.148438 32.367188 C 10.234375 32.410156 10.328125 32.429688 10.4375 32.414062 C 11.035156 32.539062 11.640625 32.636719 12.261719 32.703125 C 12.359375 32.746094 12.472656 32.765625 12.597656 32.75 C 12.828125 32.808594 13.066406 32.859375 13.316406 32.894531 C 13.273438 33.484375 13.257812 34.074219 13.269531 34.667969 C 13.234375 34.753906 13.21875 34.851562 13.21875 34.957031 C 13.210938 35.417969 13.355469 35.820312 13.652344 36.15625 C 13.902344 36.878906 14.414062 37.269531 15.1875 37.332031 C 16.296875 37.328125 17.382812 37.167969 18.449219 36.851562 C 19.597656 36.410156 20.75 35.980469 21.90625 35.554688 C 22.613281 35.183594 23.222656 34.6875 23.726562 34.070312 C 24.492188 33.550781 25.257812 33.046875 26.03125 32.558594 C 26.078125 32.566406 26.109375 32.550781 26.128906 32.507812 C 26.175781 32.519531 26.207031 32.5 26.222656 32.460938 C 26.269531 32.46875 26.304688 32.453125 26.320312 32.414062 C 26.367188 32.421875 26.398438 32.40625 26.414062 32.367188 C 27.550781 31.8125 28.671875 31.238281 29.773438 30.636719 C 29.820312 30.644531 29.855469 30.628906 29.871094 30.589844 C 30.117188 30.488281 30.375 30.433594 30.636719 30.421875 C 30.8125 30.53125 30.867188 30.683594 30.804688 30.878906 C 30.175781 31.21875 29.671875 31.691406 29.292969 32.292969 C 29.316406 32.503906 29.425781 32.582031 29.628906 32.535156 C 30.351562 32.277344 30.910156 31.828125 31.308594 31.191406 C 32.261719 31.066406 32.476562 31.394531 31.957031 32.171875 C 31.488281 32.617188 30.976562 33 30.421875 33.324219 C 30.34375 33.613281 30.445312 33.734375 30.734375 33.683594 C 31.359375 33.339844 32.015625 33.066406 32.703125 32.871094 C 32.957031 32.84375 33.210938 32.835938 33.46875 32.84375 C 33.453125 32.976562 33.40625 33.097656 33.324219 33.207031 C 32.585938 33.492188 32 33.960938 31.574219 34.621094 C 31.527344 34.910156 31.644531 35.011719 31.933594 34.933594 C 32.609375 34.695312 33.152344 34.289062 33.566406 33.710938 C 33.789062 33.632812 33.996094 33.65625 34.1875 33.78125 C 32.601562 35.300781 30.9375 36.714844 29.199219 38.027344 Z M 13.269531 32.03125 C 13.300781 32.03125 13.332031 32.03125 13.363281 32.03125 C 13.351562 32.148438 13.316406 32.148438 13.269531 32.03125 Z M 14.324219 32.222656 C 14.570312 32.28125 14.820312 32.347656 15.066406 32.414062 C 15.082031 32.925781 15.097656 33.4375 15.113281 33.949219 C 15.164062 34.675781 15.40625 35.332031 15.835938 35.917969 C 16.046875 36.128906 16.296875 36.289062 16.578125 36.394531 C 16.160156 36.511719 15.726562 36.589844 15.28125 36.636719 C 14.492188 36.460938 14.074219 35.972656 14.035156 35.171875 C 14.082031 34.414062 14.195312 33.671875 14.371094 32.941406 C 14.332031 32.703125 14.316406 32.464844 14.324219 32.222656 Z M 12.597656 32.75 C 12.804688 32.742188 13.011719 32.75 13.21875 32.773438 C 13.28125 32.792969 13.3125 32.832031 13.316406 32.894531 C 13.066406 32.859375 12.828125 32.808594 12.597656 32.75 Z M 13.269531 34.667969 C 13.3125 35.1875 13.441406 35.683594 13.652344 36.15625 C 13.355469 35.820312 13.210938 35.417969 13.21875 34.957031 C 13.21875 34.851562 13.234375 34.753906 13.269531 34.667969 Z M 13.269531 34.667969 "/>
</g>
<mask id="mask3">
  <g filter="url(#alpha)">
<rect x="0" y="0" width="50" height="50" style="fill:rgb(0%,0%,0%);fill-opacity:0.501961;stroke:none;"/>
  </g>
</mask>
<clipPath id="clip4">
  <rect width="50" height="50"/>
</clipPath>
<g id="surface15" clip-path="url(#clip4)">
<path style=" stroke:none;fill-rule:evenodd;fill:rgb(93.333333%,93.333333%,93.333333%);fill-opacity:1;" d="M 31.261719 30.542969 C 31.339844 30.53125 31.402344 30.546875 31.453125 30.589844 C 31.359375 30.671875 31.296875 30.65625 31.261719 30.542969 Z M 31.261719 30.542969 "/>
</g>
<mask id="mask4">
  <g filter="url(#alpha)">
<rect x="0" y="0" width="50" height="50" style="fill:rgb(0%,0%,0%);fill-opacity:0.0627451;stroke:none;"/>
  </g>
</mask>
<clipPath id="clip5">
  <rect width="50" height="50"/>
</clipPath>
<g id="surface18" clip-path="url(#clip5)">
<path style=" stroke:none;fill-rule:evenodd;fill:rgb(58.431373%,21.176471%,16.862745%);fill-opacity:1;" d="M 27.566406 31.597656 C 27.542969 31.664062 27.496094 31.699219 27.421875 31.695312 C 27.445312 31.625 27.492188 31.59375 27.566406 31.597656 Z M 27.566406 31.597656 "/>
</g>
<mask id="mask5">
  <g filter="url(#alpha)">
<rect x="0" y="0" width="50" height="50" style="fill:rgb(0%,0%,0%);fill-opacity:0.592157;stroke:none;"/>
  </g>
</mask>
<clipPath id="clip6">
  <rect width="50" height="50"/>
</clipPath>
<g id="surface21" clip-path="url(#clip6)">
<path style=" stroke:none;fill-rule:evenodd;fill:rgb(57.254902%,20.784314%,16.470588%);fill-opacity:1;" d="M 27.328125 31.742188 C 27.273438 31.824219 27.191406 31.875 27.085938 31.886719 C 27.144531 31.800781 27.222656 31.753906 27.328125 31.742188 Z M 27.328125 31.742188 "/>
</g>
<mask id="mask6">
  <g filter="url(#alpha)">
<rect x="0" y="0" width="50" height="50" style="fill:rgb(0%,0%,0%);fill-opacity:0.65098;stroke:none;"/>
  </g>
</mask>
<clipPath id="clip7">
  <rect width="50" height="50"/>
</clipPath>
<g id="surface24" clip-path="url(#clip7)">
<path style=" stroke:none;fill-rule:evenodd;fill:rgb(58.039216%,20.784314%,16.470588%);fill-opacity:1;" d="M 27.085938 31.886719 C 27.03125 31.96875 26.953125 32.019531 26.847656 32.03125 C 26.902344 31.945312 26.984375 31.898438 27.085938 31.886719 Z M 27.085938 31.886719 "/>
</g>
<mask id="mask7">
  <g filter="url(#alpha)">
<rect x="0" y="0" width="50" height="50" style="fill:rgb(0%,0%,0%);fill-opacity:0.12549;stroke:none;"/>
  </g>
</mask>
<clipPath id="clip8">
  <rect width="50" height="50"/>
</clipPath>
<g id="surface27" clip-path="url(#clip8)">
<path style=" stroke:none;fill-rule:evenodd;fill:rgb(62.745098%,21.960784%,17.254902%);fill-opacity:1;" d="M 26.847656 32.03125 C 26.824219 32.097656 26.777344 32.128906 26.703125 32.125 C 26.726562 32.058594 26.773438 32.027344 26.847656 32.03125 Z M 26.847656 32.03125 "/>
</g>
<mask id="mask8">
  <g filter="url(#alpha)">
<rect x="0" y="0" width="50" height="50" style="fill:rgb(0%,0%,0%);fill-opacity:0.533333;stroke:none;"/>
  </g>
</mask>
<clipPath id="clip9">
  <rect width="50" height="50"/>
</clipPath>
<g id="surface30" clip-path="url(#clip9)">
<path style=" stroke:none;fill-rule:evenodd;fill:rgb(58.431373%,21.176471%,16.862745%);fill-opacity:1;" d="M 26.703125 32.125 C 26.648438 32.210938 26.566406 32.257812 26.464844 32.269531 C 26.519531 32.1875 26.597656 32.136719 26.703125 32.125 Z M 26.703125 32.125 "/>
</g>
<mask id="mask9">
  <g filter="url(#alpha)">
<rect x="0" y="0" width="50" height="50" style="fill:rgb(0%,0%,0%);fill-opacity:0.0627451;stroke:none;"/>
  </g>
</mask>
<clipPath id="clip10">
  <rect width="50" height="50"/>
</clipPath>
<g id="surface33" clip-path="url(#clip10)">
<path style=" stroke:none;fill-rule:evenodd;fill:rgb(61.568627%,21.960784%,17.254902%);fill-opacity:1;" d="M 26.464844 32.269531 C 26.449219 32.300781 26.429688 32.332031 26.414062 32.367188 C 26.382812 32.367188 26.351562 32.367188 26.320312 32.367188 C 26.34375 32.296875 26.390625 32.265625 26.464844 32.269531 Z M 26.464844 32.269531 "/>
</g>
<mask id="mask10">
  <g filter="url(#alpha)">
<rect x="0" y="0" width="50" height="50" style="fill:rgb(0%,0%,0%);fill-opacity:0.972549;stroke:none;"/>
  </g>
</mask>
<clipPath id="clip11">
  <rect width="50" height="50"/>
</clipPath>
<g id="surface36" clip-path="url(#clip11)">
<path style=" stroke:none;fill-rule:evenodd;fill:rgb(63.529412%,63.529412%,63.137255%);fill-opacity:1;" d="M 34.046875 33.039062 C 34.046875 33.054688 34.046875 33.070312 34.046875 33.085938 C 34.015625 33.148438 33.984375 33.148438 33.949219 33.085938 C 33.972656 33.046875 34.003906 33.03125 34.046875 33.039062 Z M 34.046875 33.039062 "/>
</g>
<mask id="mask11">
  <g filter="url(#alpha)">
<rect x="0" y="0" width="50" height="50" style="fill:rgb(0%,0%,0%);fill-opacity:0.905882;stroke:none;"/>
  </g>
</mask>
<clipPath id="clip12">
  <rect width="50" height="50"/>
</clipPath>
<g id="surface39" clip-path="url(#clip12)">
<path style=" stroke:none;fill-rule:evenodd;fill:rgb(92.941176%,92.941176%,92.941176%);fill-opacity:1;" d="M 32.796875 35.867188 C 32.765625 35.867188 32.75 35.882812 32.75 35.917969 C 32.675781 35.914062 32.628906 35.945312 32.605469 36.011719 C 32.550781 36.015625 32.503906 36.03125 32.460938 36.058594 C 32.945312 35.585938 33.441406 35.113281 33.949219 34.644531 C 33.980469 34.613281 34.011719 34.613281 34.046875 34.644531 C 33.667969 35.097656 33.25 35.503906 32.796875 35.867188 Z M 32.796875 35.867188 "/>
</g>
<mask id="mask12">
  <g filter="url(#alpha)">
<rect x="0" y="0" width="50" height="50" style="fill:rgb(0%,0%,0%);fill-opacity:0.878431;stroke:none;"/>
  </g>
</mask>
<clipPath id="clip13">
  <rect width="50" height="50"/>
</clipPath>
<g id="surface42" clip-path="url(#clip13)">
<path style=" stroke:none;fill-rule:evenodd;fill:rgb(95.686275%,95.294118%,95.294118%);fill-opacity:1;" d="M 16.578125 36.394531 C 16.800781 36.425781 17.023438 36.441406 17.25 36.445312 C 16.613281 36.714844 15.957031 36.78125 15.28125 36.636719 C 15.726562 36.589844 16.160156 36.511719 16.578125 36.394531 Z M 16.578125 36.394531 "/>
</g>
<mask id="mask13">
  <g filter="url(#alpha)">
<rect x="0" y="0" width="50" height="50" style="fill:rgb(0%,0%,0%);fill-opacity:0.992157;stroke:none;"/>
  </g>
</mask>
<clipPath id="clip14">
  <rect width="50" height="50"/>
</clipPath>
<g id="surface45" clip-path="url(#clip14)">
<path style=" stroke:none;fill-rule:evenodd;fill:rgb(66.27451%,22.745098%,17.647059%);fill-opacity:1;" d="M 30.589844 38.074219 C 30.933594 38.5 31.003906 38.960938 30.804688 39.46875 C 31.757812 41.210938 32.710938 42.953125 33.660156 44.699219 C 33.652344 44.726562 33.636719 44.75 33.613281 44.769531 C 26.5625 46.433594 19.511719 48.070312 12.453125 49.6875 C 12.058594 48.292969 11.660156 46.902344 11.253906 45.511719 C 11.941406 45.519531 12.628906 45.511719 13.316406 45.488281 C 15.671875 45.15625 17.976562 44.59375 20.226562 43.808594 C 23.105469 42.644531 25.792969 41.15625 28.285156 39.347656 C 29.050781 38.910156 29.816406 38.484375 30.589844 38.074219 Z M 30.589844 38.074219 "/>
</g>
<mask id="mask14">
  <g filter="url(#alpha)">
<rect x="0" y="0" width="50" height="50" style="fill:rgb(0%,0%,0%);fill-opacity:0.988235;stroke:none;"/>
  </g>
</mask>
<clipPath id="clip15">
  <rect width="50" height="50"/>
</clipPath>
<g id="surface48" clip-path="url(#clip15)">
<path style=" stroke:none;fill-rule:evenodd;fill:rgb(65.490196%,23.921569%,18.823529%);fill-opacity:1;" d="M 29.199219 38.027344 C 28.746094 38.421875 28.269531 38.78125 27.757812 39.109375 C 25.679688 40.277344 23.566406 41.394531 21.425781 42.464844 C 19.8125 43.238281 18.148438 43.878906 16.433594 44.386719 C 16.027344 44.515625 15.609375 44.601562 15.1875 44.648438 C 15.234375 44.617188 15.28125 44.585938 15.332031 44.554688 C 15.347656 44.554688 15.363281 44.554688 15.378906 44.554688 C 15.425781 44.5625 15.457031 44.546875 15.476562 44.503906 C 15.65625 44.488281 15.832031 44.449219 16.003906 44.386719 C 17.746094 43.742188 19.457031 43.019531 21.136719 42.226562 C 23.863281 40.886719 26.550781 39.488281 29.199219 38.027344 Z M 29.199219 38.027344 "/>
</g>
<mask id="mask15">
  <g filter="url(#alpha)">
<rect x="0" y="0" width="50" height="50" style="fill:rgb(0%,0%,0%);fill-opacity:0.92549;stroke:none;"/>
  </g>
</mask>
<clipPath id="clip16">
  <rect width="50" height="50"/>
</clipPath>
<g id="surface51" clip-path="url(#clip16)">
<path style=" stroke:none;fill-rule:evenodd;fill:rgb(98.039216%,98.039216%,98.039216%);fill-opacity:1;" d="M 4.917969 41.625 C 5.25 41.902344 5.578125 42.191406 5.902344 42.492188 C 6.535156 43.386719 7.328125 44.109375 8.277344 44.648438 C 6.550781 44.316406 5.433594 43.308594 4.917969 41.625 Z M 4.917969 41.625 "/>
</g>
</defs>
<g id="surface1">
<use xlink:href="#surface6" mask="url(#mask0)"/>
<path style=" stroke:none;fill-rule:evenodd;fill:rgb(98.823529%,98.823529%,98.823529%);fill-opacity:1;" d="M 18.832031 10.195312 C 18.492188 10.300781 18.15625 10.414062 17.828125 10.53125 C 16.238281 10.652344 14.65625 10.8125 13.074219 11.011719 C 13.015625 11.007812 12.957031 10.992188 12.90625 10.964844 C 12.832031 10.617188 12.65625 10.328125 12.378906 10.101562 C 11.917969 9.214844 11.902344 8.320312 12.332031 7.414062 C 12.609375 6.796875 13 6.269531 13.507812 5.832031 C 13.523438 5.847656 13.539062 5.863281 13.554688 5.878906 C 13.441406 6.171875 13.328125 6.46875 13.21875 6.765625 C 13.28125 6.957031 13.410156 7.019531 13.605469 6.957031 C 13.832031 6.453125 14.03125 5.933594 14.203125 5.398438 C 14.5625 5.171875 14.953125 5.058594 15.378906 5.0625 C 15.402344 5.3125 15.527344 5.394531 15.761719 5.300781 C 15.816406 5.234375 15.863281 5.164062 15.90625 5.085938 C 16.738281 5.105469 17.402344 5.449219 17.898438 6.117188 C 18.066406 6.359375 18.210938 6.613281 18.332031 6.886719 C 18.585938 7.6875 18.84375 8.484375 19.097656 9.285156 C 19.148438 9.628906 19.0625 9.933594 18.832031 10.195312 Z M 18.832031 10.195312 "/>
<path style=" stroke:none;fill-rule:evenodd;fill:rgb(12.54902%,12.54902%,12.156863%);fill-opacity:1;" d="M 15.378906 6.835938 C 15.53125 6.8125 15.648438 6.859375 15.738281 6.980469 C 15.707031 7.570312 15.792969 8.136719 16.003906 8.683594 C 16.003906 8.765625 15.972656 8.832031 15.90625 8.878906 C 15.796875 8.914062 15.695312 8.90625 15.59375 8.851562 C 15.273438 8.199219 15.203125 7.53125 15.378906 6.835938 Z M 15.378906 6.835938 "/>
<path style=" stroke:none;fill-rule:evenodd;fill:rgb(16.078431%,16.078431%,15.686275%);fill-opacity:1;" d="M 16.960938 7.316406 C 17.234375 7.277344 17.355469 7.390625 17.324219 7.652344 C 17.179688 7.84375 17.035156 7.84375 16.890625 7.652344 C 16.851562 7.523438 16.875 7.414062 16.960938 7.316406 Z M 16.960938 7.316406 "/>
<path style=" stroke:none;fill-rule:evenodd;fill:rgb(11.372549%,11.372549%,10.980392%);fill-opacity:1;" d="M 13.796875 8.085938 C 14.164062 8.042969 14.257812 8.179688 14.082031 8.492188 C 13.761719 8.53125 13.664062 8.394531 13.796875 8.085938 Z M 13.796875 8.085938 "/>
<path style=" stroke:none;fill-rule:evenodd;fill:rgb(11.764706%,11.764706%,11.372549%);fill-opacity:1;" d="M 16.820312 9.046875 C 16.929688 9.03125 17.027344 9.066406 17.105469 9.140625 C 17.160156 9.296875 17.167969 9.457031 17.128906 9.621094 C 16.425781 10.101562 15.648438 10.289062 14.804688 10.171875 C 14.558594 10.085938 14.4375 9.917969 14.445312 9.667969 C 14.496094 9.589844 14.570312 9.542969 14.660156 9.523438 C 14.789062 9.570312 14.902344 9.640625 14.996094 9.742188 C 15.582031 9.785156 16.132812 9.664062 16.652344 9.382812 C 16.65625 9.242188 16.714844 9.128906 16.820312 9.046875 Z M 16.820312 9.046875 "/>
<use xlink:href="#surface9" mask="url(#mask1)"/>
<path style=" stroke:none;fill-rule:evenodd;fill:rgb(45.882353%,18.039216%,14.901961%);fill-opacity:1;" d="M 9.859375 12.402344 C 9.859375 12.386719 9.859375 12.371094 9.859375 12.355469 C 10.050781 12.230469 10.257812 12.15625 10.484375 12.140625 C 10.277344 12.230469 10.066406 12.316406 9.859375 12.402344 Z M 9.859375 12.402344 "/>
<use xlink:href="#surface12" mask="url(#mask2)"/>
<use xlink:href="#surface15" mask="url(#mask3)"/>
<use xlink:href="#surface18" mask="url(#mask4)"/>
<use xlink:href="#surface21" mask="url(#mask5)"/>
<use xlink:href="#surface24" mask="url(#mask6)"/>
<use xlink:href="#surface27" mask="url(#mask7)"/>
<use xlink:href="#surface30" mask="url(#mask8)"/>
<use xlink:href="#surface33" mask="url(#mask9)"/>
<use xlink:href="#surface36" mask="url(#mask10)"/>
<use xlink:href="#surface39" mask="url(#mask11)"/>
<path style=" stroke:none;fill-rule:evenodd;fill:rgb(91.764706%,88.627451%,88.235294%);fill-opacity:1;" d="M 20.707031 35.390625 C 20.242188 35.703125 19.730469 35.894531 19.167969 35.964844 C 19.667969 35.746094 20.179688 35.554688 20.707031 35.390625 Z M 20.707031 35.390625 "/>
<use xlink:href="#surface42" mask="url(#mask12)"/>
<use xlink:href="#surface45" mask="url(#mask13)"/>
<use xlink:href="#surface48" mask="url(#mask14)"/>
<path style=" stroke:none;fill-rule:evenodd;fill:rgb(85.098039%,85.098039%,85.098039%);fill-opacity:1;" d="M 4.582031 39.996094 C 4.722656 40.214844 4.8125 40.457031 4.847656 40.714844 C 4.675781 40.503906 4.589844 40.265625 4.582031 39.996094 Z M 4.582031 39.996094 "/>
<use xlink:href="#surface51" mask="url(#mask15)"/>
<path style=" stroke:none;fill-rule:evenodd;fill:rgb(52.941176%,52.941176%,52.941176%);fill-opacity:1;" d="M 8.375 44.121094 C 8.25 44.089844 8.136719 44.035156 8.039062 43.953125 C 8.171875 43.957031 8.285156 44.015625 8.375 44.121094 Z M 8.375 44.121094 "/>
<path style=" stroke:none;fill-rule:evenodd;fill:rgb(85.490196%,85.490196%,85.490196%);fill-opacity:1;" d="M 8.375 44.121094 C 9.074219 44.421875 9.792969 44.667969 10.53125 44.867188 C 9.746094 44.804688 9.027344 44.554688 8.375 44.121094 Z M 8.375 44.121094 "/>
</g>
</svg>
