<?xml version="1.0" encoding="UTF-8"?>
<svg xmlns="http://www.w3.org/2000/svg" xmlns:xlink="http://www.w3.org/1999/xlink" width="50pt" height="50pt" viewBox="0 0 50 50" version="1.1">
<defs>
<filter id="alpha" filterUnits="objectBoundingBox" x="0%" y="0%" width="100%" height="100%">
  <feColorMatrix type="matrix" in="SourceGraphic" values="0 0 0 0 1 0 0 0 0 1 0 0 0 0 1 0 0 0 1 0"/>
</filter>
<mask id="mask0">
  <g filter="url(#alpha)">
<rect x="0" y="0" width="50" height="50" style="fill:rgb(0%,0%,0%);fill-opacity:0.952941;stroke:none;"/>
  </g>
</mask>
<clipPath id="clip1">
  <rect width="50" height="50"/>
</clipPath>
<g id="surface6" clip-path="url(#clip1)">
<path style=" stroke:none;fill-rule:evenodd;fill:rgb(0%,0%,0%);fill-opacity:1;" d="M 25.265625 0.121094 C 26.542969 0.0703125 27.597656 0.523438 28.429688 1.488281 C 28.863281 1.601562 29.304688 1.675781 29.75 1.703125 C 30.1875 1.671875 30.617188 1.605469 31.046875 1.511719 C 31.78125 1.628906 31.917969 1.972656 31.453125 2.542969 C 31.261719 2.660156 31.050781 2.742188 30.832031 2.78125 C 30.398438 2.855469 29.964844 2.917969 29.535156 2.976562 C 30.273438 3.71875 31.121094 4.3125 32.078125 4.75 C 32.289062 5.039062 32.222656 5.261719 31.886719 5.421875 C 31.746094 5.484375 31.601562 5.5 31.453125 5.46875 C 30.816406 5.199219 30.226562 4.855469 29.679688 4.4375 C 29.664062 4.445312 29.648438 4.453125 29.628906 4.460938 C 29.703125 4.816406 29.734375 5.175781 29.726562 5.542969 C 29.9375 5.515625 30.089844 5.59375 30.183594 5.78125 C 30.980469 7.125 31.78125 8.46875 32.582031 9.8125 C 32.613281 9.894531 32.613281 9.972656 32.582031 10.054688 C 32.300781 10.261719 31.988281 10.335938 31.644531 10.269531 C 30.964844 9.1875 30.300781 8.089844 29.65625 6.980469 C 29.3125 8.765625 28.40625 10.179688 26.945312 11.226562 C 25.074219 12.199219 23.3125 12.023438 21.664062 10.699219 C 21.316406 10.398438 21.019531 10.054688 20.777344 9.667969 C 20.796875 10.226562 20.796875 10.789062 20.777344 11.347656 C 20.679688 11.488281 20.542969 11.578125 20.371094 11.613281 C 20.179688 11.648438 19.996094 11.640625 19.816406 11.589844 C 19.722656 10.121094 19.660156 8.648438 19.625 7.171875 C 19.441406 6.496094 19.3125 5.808594 19.242188 5.109375 C 17.9375 5.894531 16.632812 6.6875 15.332031 7.484375 C 15.09375 7.542969 14.855469 7.582031 14.609375 7.605469 C 14.5 7.613281 14.40625 7.582031 14.324219 7.507812 C 14.441406 7.394531 14.570312 7.289062 14.707031 7.199219 C 15.960938 6.441406 17.199219 5.664062 18.425781 4.871094 C 18.664062 4.457031 18.917969 4.058594 19.195312 3.671875 C 19.242188 3.203125 19.308594 2.742188 19.386719 2.277344 C 19.675781 2.035156 20.003906 1.964844 20.371094 2.0625 C 20.40625 2.128906 20.429688 2.203125 20.441406 2.277344 C 21.796875 0.992188 23.402344 0.269531 25.265625 0.121094 Z M 24.59375 0.648438 C 25.785156 0.554688 26.738281 0.984375 27.445312 1.945312 C 27.46875 2.046875 27.460938 2.152344 27.421875 2.253906 C 27.4375 2.347656 27.460938 2.433594 27.496094 2.519531 C 27.632812 2.652344 27.792969 2.746094 27.976562 2.808594 C 29.066406 5.164062 28.941406 7.453125 27.589844 9.667969 C 26.773438 10.574219 25.75 11.085938 24.519531 11.203125 C 24.011719 11.179688 23.554688 11.011719 23.152344 10.699219 C 21.988281 9.695312 21.164062 8.453125 20.679688 6.980469 C 20.664062 6.597656 20.648438 6.214844 20.632812 5.832031 C 20.554688 5.730469 20.460938 5.648438 20.34375 5.589844 C 20.242188 4.9375 20.210938 4.28125 20.25 3.621094 C 21.164062 2.425781 22.308594 1.523438 23.679688 0.910156 C 23.984375 0.800781 24.289062 0.714844 24.59375 0.648438 Z M 24.59375 0.648438 "/>
</g>
<mask id="mask1">
  <g filter="url(#alpha)">
<rect x="0" y="0" width="50" height="50" style="fill:rgb(0%,0%,0%);fill-opacity:0.94902;stroke:none;"/>
  </g>
</mask>
<clipPath id="clip2">
  <rect width="50" height="50"/>
</clipPath>
<g id="surface9" clip-path="url(#clip2)">
<path style=" stroke:none;fill-rule:evenodd;fill:rgb(0%,0%,0%);fill-opacity:1;" d="M 13.890625 2.136719 C 14.273438 2.15625 14.640625 2.246094 14.996094 2.398438 C 15.96875 2.664062 16.941406 2.683594 17.921875 2.445312 C 18.113281 2.414062 18.304688 2.414062 18.5 2.445312 C 18.769531 2.71875 18.738281 2.960938 18.402344 3.167969 C 17.015625 3.5625 15.625 3.578125 14.226562 3.214844 C 13.921875 3.136719 13.632812 3.015625 13.363281 2.855469 C 13.265625 2.617188 13.328125 2.433594 13.554688 2.304688 C 13.671875 2.246094 13.785156 2.1875 13.890625 2.136719 Z M 13.890625 2.136719 "/>
</g>
<mask id="mask2">
  <g filter="url(#alpha)">
<rect x="0" y="0" width="50" height="50" style="fill:rgb(0%,0%,0%);fill-opacity:0.917647;stroke:none;"/>
  </g>
</mask>
<clipPath id="clip3">
  <rect width="50" height="50"/>
</clipPath>
<g id="surface12" clip-path="url(#clip3)">
<path style=" stroke:none;fill-rule:evenodd;fill:rgb(0%,0%,0%);fill-opacity:1;" d="M 25.601562 2.710938 C 26.179688 2.636719 26.425781 2.890625 26.34375 3.480469 C 26.054688 3.726562 25.734375 3.773438 25.382812 3.621094 C 25.296875 3.453125 25.226562 3.277344 25.167969 3.09375 C 25.253906 2.894531 25.398438 2.769531 25.601562 2.710938 Z M 25.601562 2.710938 "/>
</g>
<mask id="mask3">
  <g filter="url(#alpha)">
<rect x="0" y="0" width="50" height="50" style="fill:rgb(0%,0%,0%);fill-opacity:0.901961;stroke:none;"/>
  </g>
</mask>
<clipPath id="clip4">
  <rect width="50" height="50"/>
</clipPath>
<g id="surface15" clip-path="url(#clip4)">
<path style=" stroke:none;fill-rule:evenodd;fill:rgb(0%,0%,0%);fill-opacity:1;" d="M 22.242188 3.429688 C 22.804688 3.472656 22.917969 3.722656 22.578125 4.175781 C 22.3125 4.285156 22.0625 4.261719 21.832031 4.101562 C 21.738281 3.730469 21.875 3.503906 22.242188 3.429688 Z M 22.242188 3.429688 "/>
</g>
<mask id="mask4">
  <g filter="url(#alpha)">
<rect x="0" y="0" width="50" height="50" style="fill:rgb(0%,0%,0%);fill-opacity:0.937255;stroke:none;"/>
  </g>
</mask>
<clipPath id="clip5">
  <rect width="50" height="50"/>
</clipPath>
<g id="surface18" clip-path="url(#clip5)">
<path style=" stroke:none;fill-rule:evenodd;fill:rgb(0%,0%,0%);fill-opacity:1;" d="M 26.078125 5.832031 C 26.382812 5.785156 26.566406 5.914062 26.632812 6.214844 C 26.941406 7.207031 26.644531 7.96875 25.742188 8.492188 C 24.84375 8.992188 23.933594 9.023438 23.007812 8.589844 C 22.484375 8.222656 22.238281 7.71875 22.265625 7.078125 C 22.550781 6.890625 22.863281 6.816406 23.199219 6.863281 C 23.363281 7.375 23.632812 7.824219 24.015625 8.207031 C 24.648438 8.671875 25.152344 8.550781 25.527344 7.84375 C 25.644531 7.550781 25.691406 7.246094 25.671875 6.933594 C 25.613281 6.65625 25.550781 6.382812 25.480469 6.117188 C 25.664062 5.980469 25.863281 5.882812 26.078125 5.832031 Z M 26.078125 5.832031 "/>
</g>
<mask id="mask5">
  <g filter="url(#alpha)">
<rect x="0" y="0" width="50" height="50" style="fill:rgb(0%,0%,0%);fill-opacity:0.972549;stroke:none;"/>
  </g>
</mask>
<clipPath id="clip6">
  <rect width="50" height="50"/>
</clipPath>
<g id="surface21" clip-path="url(#clip6)">
<path style=" stroke:none;fill-rule:evenodd;fill:rgb(0%,0%,0%);fill-opacity:1;" d="M 31.070312 35.195312 C 30.410156 36.101562 29.515625 36.515625 28.382812 36.445312 C 28.40625 36.910156 28.4375 37.375 28.480469 37.835938 C 28.664062 40.894531 29.019531 43.933594 29.535156 46.953125 C 29.46875 47.238281 29.292969 47.421875 29.007812 47.503906 C 28.742188 47.613281 28.484375 47.597656 28.238281 47.457031 C 28.207031 47.421875 28.183594 47.378906 28.167969 47.335938 C 27.617188 44.144531 27.257812 40.929688 27.085938 37.691406 C 27.09375 37.144531 27.0625 36.601562 26.992188 36.058594 C 26.644531 35.875 26.339844 35.632812 26.078125 35.339844 C 25.855469 35.058594 25.65625 34.753906 25.480469 34.429688 C 25.183594 35.394531 24.679688 36.226562 23.96875 36.925781 C 23.746094 37.140625 23.511719 37.347656 23.273438 37.546875 C 23.265625 37.898438 23.273438 38.25 23.296875 38.605469 C 23.484375 41.65625 23.652344 44.714844 23.800781 47.769531 C 23.722656 47.988281 23.570312 48.125 23.34375 48.175781 C 23.136719 48.183594 22.925781 48.207031 22.722656 48.25 C 22.667969 48.390625 22.570312 48.496094 22.433594 48.558594 C 21.761719 48.929688 21.089844 49.296875 20.417969 49.664062 C 20.105469 49.773438 19.785156 49.804688 19.457031 49.761719 C 19.285156 49.695312 19.230469 49.578125 19.289062 49.398438 C 19.363281 49.328125 19.433594 49.257812 19.503906 49.183594 C 20.234375 48.746094 20.988281 48.347656 21.761719 47.984375 C 21.980469 47.925781 22.203125 47.902344 22.433594 47.914062 C 22.257812 44.953125 22.097656 41.996094 21.953125 39.035156 C 21.953125 38.828125 21.953125 38.621094 21.953125 38.410156 C 21.746094 38.484375 21.539062 38.554688 21.328125 38.628906 C 21.203125 38.660156 21.074219 38.660156 20.945312 38.628906 C 20.75 35.085938 20.757812 31.542969 20.96875 28 C 21.082031 26.476562 21.191406 24.957031 21.304688 23.441406 C 21.121094 23.671875 20.921875 23.886719 20.707031 24.089844 C 20.425781 24.28125 20.171875 24.496094 19.9375 24.734375 C 19.828125 24.808594 19.714844 24.878906 19.601562 24.953125 C 18.753906 25.265625 17.921875 25.617188 17.105469 26.007812 C 16.898438 26.167969 16.722656 26.359375 16.578125 26.582031 C 16.246094 26.757812 15.894531 26.824219 15.523438 26.777344 C 15.414062 26.636719 15.40625 26.484375 15.5 26.320312 C 15.964844 25.691406 16.277344 25.003906 16.433594 24.257812 C 15.953125 24.542969 15.441406 24.632812 14.898438 24.519531 C 14.484375 24.277344 14.347656 23.917969 14.492188 23.441406 C 14.945312 22.328125 15.644531 21.394531 16.578125 20.632812 C 17.757812 19.722656 19.054688 19.011719 20.464844 18.5 C 20.964844 18.261719 21.484375 18.082031 22.023438 17.96875 C 22.171875 16.925781 22.339844 15.886719 22.527344 14.851562 C 22.605469 14.316406 22.710938 13.789062 22.839844 13.269531 C 23.125 13.054688 23.4375 13 23.777344 13.101562 C 23.804688 13.160156 23.820312 13.222656 23.824219 13.292969 C 23.734375 13.796875 23.640625 14.300781 23.535156 14.804688 C 22.125 22.410156 21.574219 30.089844 21.882812 37.835938 C 21.898438 37.597656 21.914062 37.355469 21.929688 37.117188 C 22.023438 36.992188 22.140625 36.902344 22.289062 36.851562 C 22.570312 36.816406 22.839844 36.832031 23.105469 36.898438 C 24.332031 35.570312 24.882812 33.992188 24.761719 32.171875 C 24.734375 31.882812 24.695312 31.597656 24.640625 31.308594 C 24.730469 31.015625 24.941406 30.871094 25.265625 30.878906 C 25.394531 30.878906 25.515625 30.910156 25.625 30.972656 C 25.714844 31.863281 25.90625 32.726562 26.199219 33.566406 C 26.453125 33.992188 26.691406 34.421875 26.917969 34.859375 C 27.230469 35.292969 27.640625 35.429688 28.144531 35.269531 C 28.402344 35.179688 28.644531 35.050781 28.863281 34.886719 C 29.417969 34.410156 29.921875 33.890625 30.375 33.324219 C 30.308594 32.621094 30.214844 31.914062 30.085938 31.214844 C 29.175781 25.671875 28.242188 20.140625 27.277344 14.609375 C 27.164062 13.875 27.042969 13.140625 26.917969 12.402344 C 26.820312 12.074219 26.9375 11.871094 27.277344 11.804688 C 27.515625 11.683594 27.730469 11.710938 27.925781 11.875 C 28.117188 13.027344 28.300781 14.179688 28.480469 15.332031 C 28.53125 15.324219 28.578125 15.332031 28.621094 15.355469 C 29.085938 15.867188 29.566406 16.363281 30.0625 16.84375 C 31.265625 17.804688 32.480469 18.75 33.710938 19.671875 C 34.691406 20.480469 35.515625 21.414062 36.179688 22.480469 C 36.394531 22.84375 36.554688 23.226562 36.660156 23.632812 C 36.8125 24.226562 36.644531 24.699219 36.15625 25.046875 C 35.828125 25.167969 35.527344 25.128906 35.246094 24.929688 C 34.683594 25.207031 34.152344 25.152344 33.660156 24.761719 C 33.394531 24.492188 33.160156 24.195312 32.964844 23.871094 C 32.589844 23.183594 32.269531 22.480469 32.003906 21.761719 C 32.226562 21.542969 32.492188 21.472656 32.796875 21.546875 C 33.238281 22.3125 33.699219 23.066406 34.1875 23.800781 C 34.40625 23.703125 34.636719 23.628906 34.886719 23.585938 C 34.964844 23.589844 35.035156 23.613281 35.101562 23.65625 C 35.222656 23.804688 35.367188 23.921875 35.53125 24.015625 C 35.585938 23.941406 35.59375 23.859375 35.554688 23.777344 C 35.222656 22.800781 34.726562 21.921875 34.070312 21.136719 C 33.773438 20.824219 33.460938 20.527344 33.132812 20.25 C 32.015625 19.386719 30.894531 18.523438 29.773438 17.660156 C 29.425781 17.324219 29.074219 17.027344 28.71875 16.769531 C 29.667969 22.367188 30.59375 27.964844 31.5 33.566406 C 31.507812 34.15625 31.363281 34.699219 31.070312 35.195312 Z M 20.371094 19.363281 C 20.269531 20.738281 20.15625 22.113281 20.035156 23.488281 C 19.324219 24.265625 18.460938 24.789062 17.441406 25.046875 C 17.761719 24.410156 17.921875 23.738281 17.921875 23.03125 C 17.636719 22.941406 17.347656 22.941406 17.058594 23.03125 C 16.644531 23.269531 16.21875 23.484375 15.785156 23.679688 C 15.699219 23.488281 15.699219 23.296875 15.785156 23.105469 C 15.910156 22.808594 16.070312 22.535156 16.265625 22.289062 C 17.386719 20.96875 18.753906 19.992188 20.371094 19.363281 Z M 20.371094 19.363281 "/>
</g>
<mask id="mask6">
  <g filter="url(#alpha)">
<rect x="0" y="0" width="50" height="50" style="fill:rgb(0%,0%,0%);fill-opacity:0.980392;stroke:none;"/>
  </g>
</mask>
<clipPath id="clip7">
  <rect width="50" height="50"/>
</clipPath>
<g id="surface24" clip-path="url(#clip7)">
<path style=" stroke:none;fill-rule:evenodd;fill:rgb(65.882353%,22.745098%,17.647059%);fill-opacity:1;" d="M 22.527344 14.851562 C 22.339844 15.886719 22.171875 16.925781 22.023438 17.96875 C 21.484375 18.082031 20.964844 18.261719 20.464844 18.5 C 20.558594 17.296875 20.65625 16.097656 20.753906 14.898438 C 21.34375 14.875 21.9375 14.855469 22.527344 14.851562 Z M 22.527344 14.851562 "/>
</g>
<mask id="mask7">
  <g filter="url(#alpha)">
<rect x="0" y="0" width="50" height="50" style="fill:rgb(0%,0%,0%);fill-opacity:0.984314;stroke:none;"/>
  </g>
</mask>
<clipPath id="clip8">
  <rect width="50" height="50"/>
</clipPath>
<g id="surface27" clip-path="url(#clip8)">
<path style=" stroke:none;fill-rule:evenodd;fill:rgb(65.882353%,22.745098%,17.647059%);fill-opacity:1;" d="M 20.035156 23.488281 C 20.15625 22.113281 20.269531 20.738281 20.371094 19.363281 C 20.390625 19.316406 20.421875 19.277344 20.464844 19.242188 C 20.941406 19.042969 21.421875 18.859375 21.90625 18.691406 C 21.742188 19.832031 21.601562 20.976562 21.472656 22.121094 C 21.363281 22.222656 21.234375 22.304688 21.089844 22.359375 C 20.753906 22.753906 20.402344 23.128906 20.035156 23.488281 Z M 20.035156 23.488281 "/>
</g>
<mask id="mask8">
  <g filter="url(#alpha)">
<rect x="0" y="0" width="50" height="50" style="fill:rgb(0%,0%,0%);fill-opacity:0.984314;stroke:none;"/>
  </g>
</mask>
<clipPath id="clip9">
  <rect width="50" height="50"/>
</clipPath>
<g id="surface30" clip-path="url(#clip9)">
<path style=" stroke:none;fill-rule:evenodd;fill:rgb(66.27451%,22.745098%,17.647059%);fill-opacity:1;" d="M 21.953125 39.035156 C 20.863281 39.355469 19.773438 39.691406 18.691406 40.042969 C 19.078125 34.945312 19.492188 29.839844 19.9375 24.734375 C 20.171875 24.496094 20.425781 24.28125 20.707031 24.089844 C 20.921875 23.886719 21.121094 23.671875 21.304688 23.441406 C 21.191406 24.957031 21.082031 26.476562 20.96875 28 C 20.757812 31.542969 20.75 35.085938 20.945312 38.628906 C 21.074219 38.660156 21.203125 38.660156 21.328125 38.628906 C 21.539062 38.554688 21.746094 38.484375 21.953125 38.410156 C 21.953125 38.621094 21.953125 38.828125 21.953125 39.035156 Z M 21.953125 39.035156 "/>
</g>
<mask id="mask9">
  <g filter="url(#alpha)">
<rect x="0" y="0" width="50" height="50" style="fill:rgb(0%,0%,0%);fill-opacity:0.976471;stroke:none;"/>
  </g>
</mask>
<clipPath id="clip10">
  <rect width="50" height="50"/>
</clipPath>
<g id="surface33" clip-path="url(#clip10)">
<path style=" stroke:none;fill-rule:evenodd;fill:rgb(66.27451%,22.745098%,17.647059%);fill-opacity:1;" d="M 31.070312 35.195312 C 31.25 36.152344 31.410156 37.113281 31.550781 38.074219 C 30.527344 37.984375 29.503906 37.90625 28.480469 37.835938 C 28.4375 37.375 28.40625 36.910156 28.382812 36.445312 C 29.515625 36.515625 30.410156 36.101562 31.070312 35.195312 Z M 31.070312 35.195312 "/>
</g>
<mask id="mask10">
  <g filter="url(#alpha)">
<rect x="0" y="0" width="50" height="50" style="fill:rgb(0%,0%,0%);fill-opacity:0.945098;stroke:none;"/>
  </g>
</mask>
<clipPath id="clip11">
  <rect width="50" height="50"/>
</clipPath>
<g id="surface36" clip-path="url(#clip11)">
<path style=" stroke:none;fill-rule:evenodd;fill:rgb(65.098039%,22.352941%,17.254902%);fill-opacity:1;" d="M 26.078125 35.339844 C 26.339844 35.632812 26.644531 35.875 26.992188 36.058594 C 27.0625 36.601562 27.09375 37.144531 27.085938 37.691406 C 26.933594 37.714844 26.796875 37.683594 26.679688 37.597656 C 26.457031 36.847656 26.257812 36.097656 26.078125 35.339844 Z M 26.078125 35.339844 "/>
</g>
<mask id="mask11">
  <g filter="url(#alpha)">
<rect x="0" y="0" width="50" height="50" style="fill:rgb(0%,0%,0%);fill-opacity:0.917647;stroke:none;"/>
  </g>
</mask>
<clipPath id="clip12">
  <rect width="50" height="50"/>
</clipPath>
<g id="surface39" clip-path="url(#clip12)">
<path style=" stroke:none;fill-rule:evenodd;fill:rgb(65.098039%,22.352941%,17.647059%);fill-opacity:1;" d="M 23.96875 36.925781 C 23.824219 37.488281 23.648438 38.039062 23.441406 38.578125 C 23.394531 38.601562 23.347656 38.609375 23.296875 38.605469 C 23.273438 38.25 23.265625 37.898438 23.273438 37.546875 C 23.511719 37.347656 23.746094 37.140625 23.96875 36.925781 Z M 23.96875 36.925781 "/>
</g>
<mask id="mask12">
  <g filter="url(#alpha)">
<rect x="0" y="0" width="50" height="50" style="fill:rgb(0%,0%,0%);fill-opacity:0.945098;stroke:none;"/>
  </g>
</mask>
<clipPath id="clip13">
  <rect width="50" height="50"/>
</clipPath>
<g id="surface42" clip-path="url(#clip13)">
<path style=" stroke:none;fill-rule:evenodd;fill:rgb(0%,0%,0%);fill-opacity:1;" d="M 28.910156 47.578125 C 29.980469 47.582031 31.003906 47.796875 31.980469 48.222656 C 32.035156 48.308594 32.042969 48.394531 32.003906 48.488281 C 31.65625 48.769531 31.257812 48.929688 30.804688 48.96875 C 29.929688 48.636719 29.027344 48.417969 28.09375 48.320312 C 27.964844 48.164062 27.980469 48.019531 28.144531 47.890625 C 28.386719 47.742188 28.640625 47.636719 28.910156 47.578125 Z M 28.910156 47.578125 "/>
</g>
</defs>
<g id="surface1">
<use xlink:href="#surface6" mask="url(#mask0)"/>
<use xlink:href="#surface9" mask="url(#mask1)"/>
<use xlink:href="#surface12" mask="url(#mask2)"/>
<use xlink:href="#surface15" mask="url(#mask3)"/>
<use xlink:href="#surface18" mask="url(#mask4)"/>
<use xlink:href="#surface21" mask="url(#mask5)"/>
<path style=" stroke:none;fill-rule:evenodd;fill:rgb(66.27451%,22.745098%,17.647059%);fill-opacity:1;" d="M 27.277344 14.609375 C 28.242188 20.140625 29.175781 25.671875 30.085938 31.214844 C 30.214844 31.914062 30.308594 32.621094 30.375 33.324219 C 29.921875 33.890625 29.417969 34.410156 28.863281 34.886719 C 28.644531 35.050781 28.402344 35.179688 28.144531 35.269531 C 27.640625 35.429688 27.230469 35.292969 26.917969 34.859375 C 26.691406 34.421875 26.453125 33.992188 26.199219 33.566406 C 25.90625 32.726562 25.714844 31.863281 25.625 30.972656 C 25.515625 30.910156 25.394531 30.878906 25.265625 30.878906 C 24.941406 30.871094 24.730469 31.015625 24.640625 31.308594 C 24.695312 31.597656 24.734375 31.882812 24.761719 32.171875 C 24.882812 33.992188 24.332031 35.570312 23.105469 36.898438 C 22.839844 36.832031 22.570312 36.816406 22.289062 36.851562 C 22.140625 36.902344 22.023438 36.992188 21.929688 37.117188 C 21.914062 37.355469 21.898438 37.597656 21.882812 37.835938 C 21.574219 30.089844 22.125 22.410156 23.535156 14.804688 C 24.785156 14.742188 26.03125 14.679688 27.277344 14.609375 Z M 27.277344 14.609375 "/>
<use xlink:href="#surface24" mask="url(#mask6)"/>
<use xlink:href="#surface27" mask="url(#mask7)"/>
<use xlink:href="#surface30" mask="url(#mask8)"/>
<use xlink:href="#surface33" mask="url(#mask9)"/>
<use xlink:href="#surface36" mask="url(#mask10)"/>
<use xlink:href="#surface39" mask="url(#mask11)"/>
<use xlink:href="#surface42" mask="url(#mask12)"/>
</g>
</svg>
