<?xml version="1.0" encoding="UTF-8"?>
<svg xmlns="http://www.w3.org/2000/svg" xmlns:xlink="http://www.w3.org/1999/xlink" width="50pt" height="50pt" viewBox="0 0 50 50" version="1.1">
<g id="surface1">
<path style=" stroke:none;fill-rule:evenodd;fill:rgb(66.666667%,23.137255%,18.039216%);fill-opacity:1;" d="M 26.585938 1.765625 C 28.601562 1.804688 30.570312 2.136719 32.488281 2.761719 C 34.632812 3.390625 36.667969 4.269531 38.585938 5.402344 C 40.535156 6.613281 42.265625 8.089844 43.78125 9.828125 C 45.035156 11.378906 45.953125 13.117188 46.542969 15.039062 C 47.328125 17.742188 47.863281 20.496094 48.152344 23.296875 C 48.796875 30.855469 46.425781 37.277344 41.035156 42.558594 C 38.339844 44.984375 35.238281 46.707031 31.722656 47.71875 C 25.289062 49.53125 19.09375 48.925781 13.140625 45.894531 C 10.398438 44.453125 8.136719 42.457031 6.359375 39.90625 C 5.019531 37.941406 3.886719 35.851562 2.953125 33.640625 C 2.582031 32.828125 2.253906 31.996094 1.96875 31.144531 C 1.507812 29.511719 1.25 27.847656 1.199219 26.152344 C 1.082031 23.089844 1.402344 20.070312 2.160156 17.101562 C 2.386719 16.242188 2.691406 15.410156 3.074219 14.605469 C 4.199219 12.84375 5.472656 11.1875 6.890625 9.636719 C 8.96875 7.414062 11.46875 5.851562 14.390625 4.945312 C 17.195312 3.972656 20.019531 3.070312 22.863281 2.230469 C 24.089844 1.933594 25.328125 1.777344 26.585938 1.765625 Z M 26.585938 1.765625 "/>
<path style=" stroke:none;fill-rule:evenodd;fill:rgb(99.607843%,99.607843%,99.607843%);fill-opacity:1;" d="M 12.132812 18.472656 C 13.207031 18.363281 14.199219 18.59375 15.109375 19.15625 C 15.355469 19.328125 15.558594 19.539062 15.722656 19.792969 C 15.863281 20.320312 15.691406 20.71875 15.207031 20.980469 C 14.902344 21.113281 14.617188 21.085938 14.34375 20.90625 C 14.085938 20.636719 13.773438 20.460938 13.40625 20.378906 C 12.730469 20.207031 12.082031 20.28125 11.460938 20.59375 C 10.851562 21.003906 10.648438 21.570312 10.851562 22.289062 C 11 22.773438 11.234375 23.214844 11.546875 23.609375 C 11.9375 24.121094 12.375 24.597656 12.855469 25.035156 C 13.671875 25.734375 14.46875 26.457031 15.242188 27.207031 C 15.761719 27.800781 15.921875 28.484375 15.722656 29.25 C 15.507812 29.910156 15.140625 30.472656 14.628906 30.941406 C 14.074219 31.441406 13.4375 31.792969 12.710938 31.996094 C 12.246094 32.105469 11.78125 32.105469 11.316406 31.996094 C 10.160156 31.546875 9.101562 30.933594 8.148438 30.148438 C 7.789062 29.84375 7.53125 29.472656 7.371094 29.03125 C 7.242188 28.34375 7.480469 27.820312 8.078125 27.460938 C 8.769531 27.195312 9.234375 27.414062 9.480469 28.121094 C 9.496094 28.320312 9.496094 28.523438 9.480469 28.71875 C 9.582031 28.84375 9.6875 28.960938 9.804688 29.070312 C 10.425781 29.59375 11.097656 30.039062 11.820312 30.414062 C 12.027344 30.484375 12.234375 30.492188 12.445312 30.4375 C 13.222656 30.25 13.789062 29.796875 14.136719 29.082031 C 14.238281 28.816406 14.214844 28.570312 14.066406 28.335938 C 13.539062 27.824219 12.980469 27.347656 12.398438 26.910156 C 11.519531 26.175781 10.722656 25.363281 10.007812 24.472656 C 9.539062 23.859375 9.203125 23.179688 9 22.429688 C 8.765625 20.878906 9.324219 19.707031 10.667969 18.914062 C 11.136719 18.6875 11.625 18.539062 12.132812 18.472656 Z M 12.132812 18.472656 "/>
<path style=" stroke:none;fill-rule:evenodd;fill:rgb(99.607843%,99.607843%,99.607843%);fill-opacity:1;" d="M 38.464844 18.613281 C 39.230469 18.589844 39.980469 18.667969 40.722656 18.84375 C 41.496094 19.042969 42.15625 19.433594 42.703125 20.007812 C 43.363281 20.851562 43.582031 21.804688 43.351562 22.863281 C 43.003906 24.105469 42.359375 25.167969 41.417969 26.042969 C 40.796875 26.628906 40.097656 27.105469 39.332031 27.484375 C 39.175781 27.546875 39.019531 27.609375 38.863281 27.664062 C 38.890625 28.015625 38.921875 28.367188 38.957031 28.71875 C 38.988281 29.175781 38.996094 29.632812 38.980469 30.089844 C 38.914062 30.496094 38.859375 30.902344 38.828125 31.3125 C 38.832031 31.394531 38.835938 31.472656 38.839844 31.554688 C 39.089844 32.382812 38.78125 32.847656 37.914062 32.945312 C 37.269531 32.878906 36.847656 32.535156 36.652344 31.914062 C 36.609375 31.707031 36.589844 31.5 36.59375 31.289062 C 36.617188 30.929688 36.65625 30.566406 36.703125 30.207031 C 36.71875 29.847656 36.71875 29.488281 36.703125 29.128906 C 36.625 28.488281 36.558594 27.851562 36.511719 27.207031 C 36.339844 26.917969 36.285156 26.605469 36.34375 26.273438 C 36.390625 26.164062 36.417969 26.054688 36.425781 25.9375 C 36.3125 24.425781 36.28125 22.914062 36.328125 21.398438 C 35.988281 21.546875 35.644531 21.695312 35.296875 21.84375 C 34.652344 21.992188 34.222656 21.753906 34.011719 21.136719 C 33.933594 20.710938 34.058594 20.363281 34.386719 20.089844 C 35.125 19.679688 35.882812 19.308594 36.664062 18.988281 C 37.253906 18.785156 37.851562 18.660156 38.464844 18.613281 Z M 38.464844 18.613281 "/>
<path style=" stroke:none;fill-rule:evenodd;fill:rgb(99.607843%,99.607843%,99.607843%);fill-opacity:1;" d="M 22.71875 19.625 C 22.71875 19.695312 22.71875 19.765625 22.71875 19.839844 C 22.835938 19.847656 22.949219 19.839844 23.054688 19.816406 C 23.789062 19.789062 24.519531 19.773438 25.253906 19.765625 C 25.632812 19.765625 26.011719 19.777344 26.390625 19.804688 C 26.878906 19.992188 27.089844 20.347656 27.027344 20.871094 C 26.925781 21.3125 26.648438 21.566406 26.199219 21.628906 C 25.882812 21.648438 25.570312 21.660156 25.253906 21.664062 C 24.390625 21.640625 23.53125 21.609375 22.671875 21.566406 C 22.675781 23.046875 22.671875 24.527344 22.660156 26.007812 C 22.601562 27.59375 22.5625 29.175781 22.539062 30.761719 C 22.527344 31.242188 22.390625 31.679688 22.132812 32.082031 C 21.832031 32.449219 21.460938 32.558594 21.015625 32.40625 C 20.691406 32.195312 20.511719 31.894531 20.476562 31.503906 C 20.460938 31.34375 20.460938 31.183594 20.476562 31.023438 C 20.539062 30.546875 20.578125 30.066406 20.59375 29.585938 C 20.632812 28.441406 20.671875 27.296875 20.714844 26.152344 C 20.746094 24.585938 20.757812 23.015625 20.75 21.449219 C 19.488281 21.382812 18.222656 21.324219 16.957031 21.265625 C 16.542969 21.105469 16.386719 20.804688 16.492188 20.367188 C 16.597656 20.101562 16.792969 19.953125 17.078125 19.921875 C 18.328125 19.90625 19.574219 19.886719 20.824219 19.863281 C 20.886719 19.394531 21.152344 19.101562 21.617188 18.988281 C 21.980469 18.921875 22.296875 19.011719 22.5625 19.261719 C 22.652344 19.367188 22.703125 19.488281 22.71875 19.625 Z M 22.71875 19.625 "/>
<path style=" stroke:none;fill-rule:evenodd;fill:rgb(88.627451%,74.901961%,73.333333%);fill-opacity:1;" d="M 22.71875 19.625 C 22.742188 19.683594 22.75 19.746094 22.742188 19.816406 C 22.847656 19.816406 22.953125 19.816406 23.054688 19.816406 C 22.949219 19.839844 22.835938 19.847656 22.71875 19.839844 C 22.71875 19.765625 22.71875 19.695312 22.71875 19.625 Z M 22.71875 19.625 "/>
<path style=" stroke:none;fill-rule:evenodd;fill:rgb(66.666667%,23.137255%,18.039216%);fill-opacity:1;" d="M 38.683594 20.824219 C 39.273438 20.828125 39.839844 20.941406 40.386719 21.171875 C 40.882812 21.367188 41.085938 21.722656 41 22.238281 C 40.941406 22.535156 40.828125 22.804688 40.664062 23.054688 C 40.160156 23.847656 39.5 24.472656 38.683594 24.929688 C 38.664062 24.890625 38.652344 24.851562 38.644531 24.808594 C 38.589844 23.480469 38.601562 22.152344 38.683594 20.824219 Z M 38.683594 20.824219 "/>
<path style=" stroke:none;fill-rule:evenodd;fill:rgb(99.607843%,99.607843%,99.607843%);fill-opacity:1;" d="M 28.914062 22.289062 C 30.273438 22.34375 31.53125 22.738281 32.679688 23.476562 C 33.8125 24.339844 34.441406 25.488281 34.566406 26.921875 C 34.664062 28.273438 34.375 29.539062 33.703125 30.714844 C 32.515625 32.539062 30.902344 33.054688 28.863281 32.261719 C 27.585938 31.664062 26.65625 30.722656 26.066406 29.441406 C 25.542969 28.3125 25.421875 27.144531 25.707031 25.9375 C 25.847656 25.347656 26.007812 24.761719 26.1875 24.183594 C 26.292969 24.023438 26.417969 23.890625 26.570312 23.777344 C 27.011719 23.230469 27.542969 22.800781 28.167969 22.492188 C 28.414062 22.398438 28.660156 22.328125 28.914062 22.289062 Z M 28.914062 22.289062 "/>
<path style=" stroke:none;fill-rule:evenodd;fill:rgb(66.666667%,23.137255%,18.039216%);fill-opacity:1;" d="M 29.175781 24.785156 C 29.988281 24.832031 30.757812 25.042969 31.480469 25.421875 C 31.945312 25.726562 32.25 26.144531 32.40625 26.679688 C 32.644531 27.902344 32.398438 29.011719 31.660156 30.015625 C 31.242188 30.480469 30.726562 30.636719 30.113281 30.484375 C 29.085938 30.1875 28.371094 29.542969 27.964844 28.550781 C 27.832031 28.234375 27.726562 27.90625 27.652344 27.570312 C 27.617188 26.976562 27.699219 26.402344 27.890625 25.839844 C 28.007812 25.796875 28.117188 25.734375 28.214844 25.660156 C 28.542969 25.371094 28.859375 25.078125 29.175781 24.785156 Z M 29.175781 24.785156 "/>
</g>
</svg>
