<?xml version="1.0" encoding="UTF-8"?>
<svg xmlns="http://www.w3.org/2000/svg" xmlns:xlink="http://www.w3.org/1999/xlink" width="50pt" height="50pt" viewBox="0 0 50 50" version="1.1">
<defs>
<filter id="alpha" filterUnits="objectBoundingBox" x="0%" y="0%" width="100%" height="100%">
  <feColorMatrix type="matrix" in="SourceGraphic" values="0 0 0 0 1 0 0 0 0 1 0 0 0 0 1 0 0 0 1 0"/>
</filter>
<mask id="mask0">
  <g filter="url(#alpha)">
<rect x="0" y="0" width="50" height="50" style="fill:rgb(0%,0%,0%);fill-opacity:0.992157;stroke:none;"/>
  </g>
</mask>
<clipPath id="clip1">
  <rect width="50" height="50"/>
</clipPath>
<g id="surface6" clip-path="url(#clip1)">
<path style=" stroke:none;fill-rule:evenodd;fill:rgb(66.666667%,23.137255%,18.039216%);fill-opacity:1;" d="M 25.886719 3.828125 C 25.941406 4.179688 25.988281 4.53125 26.03125 4.886719 C 26.136719 5.761719 26.199219 6.640625 26.222656 7.523438 C 26.230469 8.269531 26.21875 9.015625 26.1875 9.757812 C 26.175781 10.140625 26.078125 10.5 25.898438 10.835938 C 25.425781 11.414062 24.859375 11.515625 24.207031 11.136719 C 23.851562 10.90625 23.597656 10.589844 23.453125 10.191406 C 23.164062 9.339844 22.9375 8.476562 22.769531 7.597656 C 22.613281 6.730469 22.5 5.859375 22.429688 4.980469 C 22.175781 4.980469 21.917969 4.980469 21.664062 4.980469 C 21.632812 4.714844 21.550781 4.464844 21.410156 4.238281 C 21.375 4.140625 21.347656 4.042969 21.328125 3.949219 C 21.191406 3.367188 21.199219 2.785156 21.351562 2.207031 C 21.714844 1.121094 22.464844 0.660156 23.609375 0.816406 C 24.324219 0.980469 24.871094 1.378906 25.253906 2.003906 C 25.570312 2.574219 25.785156 3.183594 25.886719 3.828125 Z M 25.097656 3.851562 C 24.105469 3.867188 23.113281 3.890625 22.121094 3.925781 C 21.949219 3.359375 21.960938 2.800781 22.15625 2.246094 C 22.433594 1.675781 22.886719 1.457031 23.511719 1.585938 C 24.03125 1.753906 24.417969 2.078125 24.675781 2.554688 C 24.882812 2.96875 25.019531 3.398438 25.097656 3.851562 Z M 25.097656 3.851562 "/>
</g>
<mask id="mask1">
  <g filter="url(#alpha)">
<rect x="0" y="0" width="50" height="50" style="fill:rgb(0%,0%,0%);fill-opacity:0.992157;stroke:none;"/>
  </g>
</mask>
<clipPath id="clip2">
  <rect width="50" height="50"/>
</clipPath>
<g id="surface9" clip-path="url(#clip2)">
<path style=" stroke:none;fill-rule:evenodd;fill:rgb(0%,0%,0%);fill-opacity:1;" d="M 21.328125 3.949219 C 21.347656 4.042969 21.375 4.140625 21.410156 4.238281 C 21.550781 4.464844 21.632812 4.714844 21.664062 4.980469 C 16.703125 5.109375 11.742188 5.28125 6.78125 5.496094 C 6.246094 5.507812 5.707031 5.511719 5.171875 5.507812 C 5.175781 6.53125 5.171875 7.558594 5.160156 8.582031 C 5.09375 10.574219 5.03125 12.566406 4.96875 14.558594 C 4.804688 24.417969 4.871094 34.273438 5.160156 44.132812 C 5.1875 44.964844 5.226562 45.796875 5.28125 46.628906 C 5.292969 47.164062 5.296875 47.699219 5.292969 48.234375 C 5.4375 48.207031 5.578125 48.175781 5.726562 48.152344 C 10.011719 48.050781 14.300781 47.988281 18.589844 47.960938 C 27.28125 47.910156 35.96875 47.972656 44.660156 48.140625 C 44.535156 46.894531 44.445312 45.644531 44.382812 44.394531 C 44.308594 42.683594 44.238281 40.972656 44.167969 39.257812 C 43.589844 28.007812 43.015625 16.757812 42.4375 5.507812 C 42.292969 5.332031 42.175781 5.140625 42.078125 4.933594 C 42.015625 4.804688 41.980469 4.667969 41.972656 4.523438 C 36.65625 4.585938 31.34375 4.703125 26.03125 4.886719 C 25.988281 4.53125 25.941406 4.179688 25.886719 3.828125 C 31.371094 3.679688 36.855469 3.558594 42.34375 3.46875 C 42.691406 3.449219 42.898438 3.609375 42.96875 3.949219 C 43.152344 4.09375 43.246094 4.285156 43.253906 4.523438 C 43.316406 4.582031 43.363281 4.644531 43.398438 4.714844 C 43.441406 4.996094 43.464844 5.273438 43.472656 5.558594 C 44.164062 19.167969 44.867188 32.777344 45.582031 46.386719 C 45.597656 47.171875 45.597656 47.957031 45.582031 48.738281 C 45.550781 48.828125 45.5 48.90625 45.425781 48.96875 C 45.324219 49.015625 45.230469 49.070312 45.140625 49.136719 C 44.980469 49.164062 44.820312 49.175781 44.660156 49.171875 C 31.773438 48.917969 18.886719 48.917969 6 49.171875 C 5.710938 49.175781 5.429688 49.128906 5.160156 49.027344 C 5.003906 49.183594 4.816406 49.238281 4.597656 49.183594 C 4.453125 49.113281 4.367188 49 4.34375 48.835938 C 4.226562 48.097656 4.164062 47.351562 4.152344 46.601562 C 4.070312 42.753906 3.988281 38.90625 3.914062 35.058594 C 3.820312 29.304688 3.8125 23.550781 3.886719 17.800781 C 3.9375 15.023438 3.976562 12.246094 4.007812 9.46875 C 4.023438 8.734375 4.046875 7.996094 4.082031 7.261719 C 4.132812 6.460938 4.179688 5.660156 4.226562 4.859375 C 4.292969 4.730469 4.402344 4.652344 4.546875 4.632812 C 5.449219 4.535156 6.355469 4.464844 7.261719 4.417969 C 11.949219 4.246094 16.636719 4.089844 21.328125 3.949219 Z M 21.328125 3.949219 "/>
</g>
<mask id="mask2">
  <g filter="url(#alpha)">
<rect x="0" y="0" width="50" height="50" style="fill:rgb(0%,0%,0%);fill-opacity:0.988235;stroke:none;"/>
  </g>
</mask>
<clipPath id="clip3">
  <rect width="50" height="50"/>
</clipPath>
<g id="surface12" clip-path="url(#clip3)">
<path style=" stroke:none;fill-rule:evenodd;fill:rgb(0%,0%,0%);fill-opacity:1;" d="M 25.097656 3.851562 C 25.1875 4.203125 25.242188 4.566406 25.265625 4.933594 C 24.777344 4.902344 24.289062 4.902344 23.800781 4.933594 C 23.589844 4.933594 23.382812 4.933594 23.175781 4.933594 C 23.175781 4.707031 23.167969 4.484375 23.152344 4.261719 C 23.152344 4.238281 23.152344 4.210938 23.152344 4.1875 C 23.035156 4.179688 22.921875 4.1875 22.816406 4.210938 C 22.609375 4.214844 22.398438 4.210938 22.191406 4.199219 C 22.160156 4.113281 22.132812 4.019531 22.121094 3.925781 C 23.113281 3.890625 24.105469 3.867188 25.097656 3.851562 Z M 25.097656 3.851562 "/>
</g>
</defs>
<g id="surface1">
<use xlink:href="#surface6" mask="url(#mask0)"/>
<use xlink:href="#surface9" mask="url(#mask1)"/>
<use xlink:href="#surface12" mask="url(#mask2)"/>
<path style=" stroke:none;fill-rule:evenodd;fill:rgb(30.588235%,10.588235%,8.235294%);fill-opacity:1;" d="M 22.816406 4.210938 C 22.921875 4.1875 23.035156 4.179688 23.152344 4.1875 C 23.152344 4.210938 23.152344 4.238281 23.152344 4.261719 C 23.046875 4.214844 22.933594 4.199219 22.816406 4.210938 Z M 22.816406 4.210938 "/>
<path style=" stroke:none;fill-rule:evenodd;fill:rgb(99.607843%,99.607843%,99.607843%);fill-opacity:1;" d="M 21.664062 4.980469 C 21.917969 4.980469 22.175781 4.980469 22.429688 4.980469 C 22.5 5.859375 22.613281 6.730469 22.769531 7.597656 C 17.402344 7.75 12.035156 7.882812 6.660156 8.003906 C 6.433594 17.285156 6.242188 26.566406 6.097656 35.851562 C 6.039062 39.027344 6.03125 42.203125 6.074219 45.378906 C 6.085938 45.75 6.113281 46.117188 6.15625 46.484375 C 18.351562 46.199219 30.542969 45.914062 42.738281 45.621094 C 42.800781 45.886719 42.800781 46.15625 42.738281 46.421875 C 41.675781 46.390625 40.609375 46.347656 39.546875 46.304688 C 39.171875 46.289062 38.792969 46.289062 38.417969 46.304688 C 38.230469 46.335938 38.046875 46.382812 37.867188 46.449219 C 37.78125 46.511719 37.773438 46.585938 37.84375 46.664062 C 38.199219 46.832031 38.574219 46.929688 38.96875 46.953125 C 40.199219 46.980469 41.429688 47.035156 42.65625 47.109375 C 42.898438 47.140625 43.113281 47.085938 43.304688 46.941406 C 43.445312 46.714844 43.503906 46.464844 43.484375 46.195312 C 43.464844 45.875 43.429688 45.554688 43.375 45.234375 C 43.3125 44.105469 43.25 42.980469 43.183594 41.851562 C 43.078125 41.621094 42.90625 41.546875 42.667969 41.621094 C 42.621094 41.664062 42.582031 41.707031 42.546875 41.753906 C 42.527344 41.738281 42.515625 41.710938 42.511719 41.683594 C 41.800781 30.183594 41.101562 18.6875 40.410156 7.1875 C 35.683594 7.304688 30.953125 7.417969 26.222656 7.523438 C 26.199219 6.640625 26.136719 5.761719 26.03125 4.886719 C 31.34375 4.703125 36.65625 4.585938 41.972656 4.523438 C 41.980469 4.667969 42.015625 4.804688 42.078125 4.933594 C 42.175781 5.140625 42.292969 5.332031 42.4375 5.507812 C 43.015625 16.757812 43.589844 28.007812 44.167969 39.257812 C 44.238281 40.972656 44.308594 42.683594 44.382812 44.394531 C 44.445312 45.644531 44.535156 46.894531 44.660156 48.140625 C 35.96875 47.972656 27.28125 47.910156 18.589844 47.960938 C 14.300781 47.988281 10.011719 48.050781 5.726562 48.152344 C 5.578125 48.175781 5.4375 48.207031 5.292969 48.234375 C 5.296875 47.699219 5.292969 47.164062 5.28125 46.628906 C 5.226562 45.796875 5.1875 44.964844 5.160156 44.132812 C 4.871094 34.273438 4.804688 24.417969 4.96875 14.558594 C 5.03125 12.566406 5.09375 10.574219 5.160156 8.582031 C 5.171875 7.558594 5.175781 6.53125 5.171875 5.507812 C 5.707031 5.511719 6.246094 5.507812 6.78125 5.496094 C 11.742188 5.28125 16.703125 5.109375 21.664062 4.980469 Z M 21.664062 4.980469 "/>
<path style=" stroke:none;fill-rule:evenodd;fill:rgb(67.45098%,64.313725%,63.921569%);fill-opacity:1;" d="M 23.175781 4.933594 C 23.382812 4.933594 23.589844 4.933594 23.800781 4.933594 C 23.605469 4.957031 23.402344 4.964844 23.199219 4.957031 C 23.199219 4.996094 23.199219 5.035156 23.199219 5.078125 C 23.175781 5.035156 23.167969 4.988281 23.175781 4.933594 Z M 23.175781 4.933594 "/>
<path style=" stroke:none;fill-rule:evenodd;fill:rgb(99.607843%,99.215686%,99.215686%);fill-opacity:1;" d="M 25.265625 4.933594 C 25.28125 4.949219 25.292969 4.976562 25.300781 5.003906 C 25.382812 5.785156 25.4375 6.570312 25.457031 7.355469 C 25.457031 7.421875 25.457031 7.484375 25.457031 7.550781 C 24.816406 7.566406 24.175781 7.582031 23.535156 7.597656 C 23.371094 6.765625 23.257812 5.925781 23.199219 5.078125 C 23.199219 5.035156 23.199219 4.996094 23.199219 4.957031 C 23.402344 4.964844 23.605469 4.957031 23.800781 4.933594 C 24.289062 4.902344 24.777344 4.902344 25.265625 4.933594 Z M 25.265625 4.933594 "/>
<path style=" stroke:none;fill-rule:evenodd;fill:rgb(1.176471%,1.176471%,1.176471%);fill-opacity:1;" d="M 7.453125 6.035156 C 8.183594 6.03125 8.910156 6.042969 9.636719 6.074219 C 9.84375 6.152344 9.917969 6.300781 9.867188 6.515625 C 9.835938 6.609375 9.777344 6.667969 9.6875 6.695312 C 8.902344 6.683594 8.117188 6.683594 7.332031 6.695312 C 7.085938 6.742188 6.835938 6.742188 6.589844 6.695312 C 6.484375 6.664062 6.402344 6.605469 6.335938 6.515625 C 6.359375 8.027344 6.378906 9.542969 6.386719 11.054688 C 6.429688 11.101562 6.449219 11.15625 6.445312 11.222656 C 6.429688 11.421875 6.386719 11.613281 6.3125 11.796875 C 6.132812 11.90625 5.964844 11.890625 5.808594 11.75 C 5.789062 11.710938 5.773438 11.671875 5.761719 11.628906 C 5.710938 9.898438 5.761719 8.171875 5.90625 6.445312 C 5.925781 6.394531 5.960938 6.355469 6.011719 6.335938 C 6.089844 6.320312 6.167969 6.324219 6.242188 6.347656 C 6.332031 6.242188 6.449219 6.171875 6.589844 6.144531 C 6.878906 6.105469 7.167969 6.070312 7.453125 6.035156 Z M 7.453125 6.035156 "/>
<path style=" stroke:none;fill-rule:evenodd;fill:rgb(94.509804%,92.941176%,90.588235%);fill-opacity:1;" d="M 42.546875 41.753906 C 42.53125 41.792969 42.523438 41.832031 42.523438 41.875 C 42.609375 43.121094 42.683594 44.371094 42.738281 45.621094 C 30.542969 45.914062 18.351562 46.199219 6.15625 46.484375 C 6.113281 46.117188 6.085938 45.75 6.074219 45.378906 C 6.03125 42.203125 6.039062 39.027344 6.097656 35.851562 C 6.242188 26.566406 6.433594 17.285156 6.660156 8.003906 C 12.035156 7.882812 17.402344 7.75 22.769531 7.597656 C 22.9375 8.476562 23.164062 9.339844 23.453125 10.191406 C 23.597656 10.589844 23.851562 10.90625 24.207031 11.136719 C 24.859375 11.515625 25.425781 11.414062 25.898438 10.835938 C 26.078125 10.5 26.175781 10.140625 26.1875 9.757812 C 26.21875 9.015625 26.230469 8.269531 26.222656 7.523438 C 30.953125 7.417969 35.683594 7.304688 40.410156 7.1875 C 41.101562 18.6875 41.800781 30.183594 42.511719 41.683594 C 42.515625 41.710938 42.527344 41.738281 42.546875 41.753906 Z M 42.546875 41.753906 "/>
<path style=" stroke:none;fill-rule:evenodd;fill:rgb(94.509804%,92.54902%,89.803922%);fill-opacity:1;" d="M 25.457031 7.355469 C 25.5 8.265625 25.480469 9.179688 25.394531 10.09375 C 25.367188 10.265625 25.289062 10.414062 25.167969 10.539062 C 25.035156 10.613281 24.898438 10.628906 24.761719 10.585938 C 24.480469 10.464844 24.285156 10.257812 24.171875 9.972656 C 23.902344 9.195312 23.691406 8.40625 23.535156 7.597656 C 24.175781 7.582031 24.816406 7.566406 25.457031 7.550781 C 25.457031 7.484375 25.457031 7.421875 25.457031 7.355469 Z M 25.457031 7.355469 "/>
<path style=" stroke:none;fill-rule:evenodd;fill:rgb(0.784314%,0.784314%,0.784314%);fill-opacity:1;" d="M 42.738281 45.621094 C 42.683594 44.371094 42.609375 43.121094 42.523438 41.875 C 42.523438 41.832031 42.53125 41.792969 42.546875 41.753906 C 42.582031 41.707031 42.621094 41.664062 42.667969 41.621094 C 42.90625 41.546875 43.078125 41.621094 43.183594 41.851562 C 43.25 42.980469 43.3125 44.105469 43.375 45.234375 C 43.429688 45.554688 43.464844 45.875 43.484375 46.195312 C 43.503906 46.464844 43.445312 46.714844 43.304688 46.941406 C 43.113281 47.085938 42.898438 47.140625 42.65625 47.109375 C 41.429688 47.035156 40.199219 46.980469 38.96875 46.953125 C 38.574219 46.929688 38.199219 46.832031 37.84375 46.664062 C 37.773438 46.585938 37.78125 46.511719 37.867188 46.449219 C 38.046875 46.382812 38.230469 46.335938 38.417969 46.304688 C 38.792969 46.289062 39.171875 46.289062 39.546875 46.304688 C 40.609375 46.347656 41.675781 46.390625 42.738281 46.421875 C 42.800781 46.15625 42.800781 45.886719 42.738281 45.621094 Z M 42.738281 45.621094 "/>
</g>
</svg>
