<?xml version="1.0" encoding="UTF-8"?>
<svg xmlns="http://www.w3.org/2000/svg" xmlns:xlink="http://www.w3.org/1999/xlink" width="50pt" height="50pt" viewBox="0 0 50 50" version="1.1">
<defs>
<filter id="alpha" filterUnits="objectBoundingBox" x="0%" y="0%" width="100%" height="100%">
  <feColorMatrix type="matrix" in="SourceGraphic" values="0 0 0 0 1 0 0 0 0 1 0 0 0 0 1 0 0 0 1 0"/>
</filter>
<mask id="mask0">
  <g filter="url(#alpha)">
<rect x="0" y="0" width="50" height="50" style="fill:rgb(0%,0%,0%);fill-opacity:0.972549;stroke:none;"/>
  </g>
</mask>
<clipPath id="clip1">
  <rect width="50" height="50"/>
</clipPath>
<g id="surface6" clip-path="url(#clip1)">
<path style=" stroke:none;fill-rule:evenodd;fill:rgb(0.392157%,0.392157%,0.392157%);fill-opacity:1;" d="M 13.238281 1.644531 C 13.140625 2.097656 13.050781 2.550781 12.960938 3.011719 C 12.875 3.335938 12.78125 3.65625 12.675781 3.972656 C 12.648438 4.121094 12.621094 4.269531 12.589844 4.417969 C 12.597656 4.4375 12.605469 4.457031 12.613281 4.476562 C 12.785156 4.558594 12.828125 4.683594 12.746094 4.859375 C 12.710938 4.890625 12.675781 4.917969 12.636719 4.945312 C 11.628906 5.367188 10.636719 5.335938 9.660156 4.847656 C 9.484375 4.703125 9.292969 4.585938 9.085938 4.488281 C 8.980469 4.386719 8.945312 4.261719 8.976562 4.117188 C 9.085938 3.796875 9.15625 3.46875 9.179688 3.132812 C 9.316406 2.535156 9.445312 1.9375 9.566406 1.332031 C 9.230469 1.425781 8.925781 1.585938 8.652344 1.8125 C 7.886719 2.332031 7.519531 3.058594 7.550781 3.996094 C 7.527344 5.046875 7.945312 5.875 8.796875 6.480469 C 8.984375 6.597656 9.175781 6.703125 9.375 6.792969 C 9.910156 6.984375 10.453125 7.152344 11.003906 7.296875 C 11.269531 7.300781 11.535156 7.316406 11.796875 7.34375 C 11.949219 7.398438 11.996094 7.5 11.929688 7.644531 C 11.894531 7.691406 11.851562 7.722656 11.796875 7.742188 C 11.59375 7.828125 11.375 7.859375 11.148438 7.835938 C 10.890625 7.820312 10.632812 7.777344 10.382812 7.707031 C 9.984375 7.566406 9.585938 7.441406 9.179688 7.320312 C 8.945312 7.214844 8.722656 7.089844 8.507812 6.949219 C 8.375 6.867188 8.25 6.769531 8.136719 6.660156 C 8.273438 7.027344 8.402344 7.394531 8.535156 7.765625 C 8.835938 8.929688 8.992188 10.113281 9 11.316406 C 9.050781 12.929688 9.003906 14.539062 8.855469 16.144531 C 8.835938 17.023438 8.816406 17.902344 8.796875 18.78125 C 8.75 19.589844 8.710938 20.398438 8.675781 21.207031 C 8.738281 22.207031 8.773438 23.207031 8.785156 24.207031 C 8.902344 25.746094 8.992188 27.28125 9.0625 28.816406 C 9.074219 29.136719 9.082031 29.457031 9.085938 29.777344 C 9.054688 29.925781 9.054688 30.0625 9.085938 30.183594 C 9.269531 30.128906 9.453125 30.066406 9.636719 30.003906 C 9.792969 29.960938 9.953125 29.933594 10.117188 29.921875 C 10.253906 29.902344 10.3125 29.957031 10.296875 30.089844 C 9.636719 30.351562 9.007812 30.675781 8.414062 31.0625 C 8.207031 31.25 8.03125 31.460938 7.886719 31.695312 C 7.871094 31.695312 7.859375 31.703125 7.859375 31.722656 C 7.839844 31.730469 7.832031 31.746094 7.835938 31.769531 C 6.976562 32.789062 6.828125 33.910156 7.394531 35.128906 C 7.601562 35.609375 7.902344 36.023438 8.292969 36.367188 C 8.441406 36.46875 8.601562 36.550781 8.773438 36.617188 C 8.78125 36.605469 8.789062 36.59375 8.796875 36.582031 C 8.761719 36.457031 8.730469 36.332031 8.703125 36.210938 C 8.714844 36.203125 8.722656 36.191406 8.726562 36.171875 C 8.5625 35.484375 8.476562 34.78125 8.472656 34.074219 C 8.496094 33.503906 8.753906 33.089844 9.253906 32.824219 C 9.269531 32.824219 9.277344 32.816406 9.277344 32.800781 C 9.285156 32.800781 9.292969 32.800781 9.300781 32.800781 C 9.316406 32.800781 9.324219 32.792969 9.324219 32.777344 C 9.347656 32.78125 9.367188 32.773438 9.375 32.753906 C 9.664062 32.660156 9.960938 32.589844 10.261719 32.550781 C 10.488281 32.53125 10.710938 32.542969 10.933594 32.585938 C 10.933594 32.601562 10.941406 32.609375 10.957031 32.609375 C 11.175781 32.691406 11.355469 32.828125 11.496094 33.015625 C 11.847656 33.441406 12.09375 33.921875 12.242188 34.457031 C 12.394531 35.066406 12.523438 35.683594 12.625 36.304688 C 12.699219 36.242188 12.761719 36.171875 12.804688 36.089844 C 13.015625 35.84375 13.203125 35.578125 13.371094 35.296875 C 13.546875 34.941406 13.640625 34.566406 13.65625 34.167969 C 13.679688 33.777344 13.671875 33.386719 13.632812 32.992188 C 13.613281 32.859375 13.574219 32.730469 13.527344 32.609375 C 13.4375 32.28125 13.269531 32 13.023438 31.769531 C 12.847656 31.550781 12.664062 31.339844 12.46875 31.132812 C 12.332031 31.023438 12.179688 30.941406 12.015625 30.882812 C 11.828125 30.808594 11.636719 30.761719 11.4375 30.738281 C 11.414062 30.679688 11.414062 30.625 11.4375 30.570312 C 11.703125 30.5625 11.96875 30.59375 12.230469 30.664062 C 12.417969 30.71875 12.585938 30.8125 12.734375 30.941406 C 13.035156 31.265625 13.339844 31.582031 13.65625 31.890625 C 13.988281 32.433594 14.140625 33.027344 14.125 33.664062 C 14.125 33.808594 14.113281 33.953125 14.101562 34.097656 C 14.058594 34.535156 13.96875 34.96875 13.839844 35.394531 C 13.8125 35.480469 13.769531 35.558594 13.71875 35.632812 C 13.511719 35.933594 13.300781 36.226562 13.082031 36.523438 C 12.953125 36.660156 12.816406 36.785156 12.675781 36.90625 C 12.65625 36.9375 12.644531 36.96875 12.636719 37 C 12.515625 37.113281 12.378906 37.125 12.230469 37.039062 C 12.199219 37.015625 12.179688 36.988281 12.171875 36.953125 C 12.164062 36.738281 12.148438 36.519531 12.121094 36.304688 C 11.988281 35.613281 11.828125 34.921875 11.640625 34.242188 C 11.460938 33.828125 11.214844 33.457031 10.910156 33.125 C 10.753906 33.035156 10.585938 32.992188 10.40625 32.992188 C 10.035156 33.007812 9.675781 33.078125 9.324219 33.199219 C 9.136719 33.273438 8.988281 33.398438 8.882812 33.570312 C 8.855469 33.679688 8.84375 33.792969 8.84375 33.90625 C 8.867188 34.28125 8.894531 34.65625 8.929688 35.035156 C 9.046875 35.570312 9.164062 36.105469 9.289062 36.640625 C 9.304688 36.746094 9.304688 36.851562 9.289062 36.953125 C 9.261719 37.015625 9.21875 37.058594 9.15625 37.085938 C 8.867188 37.152344 8.585938 37.121094 8.316406 36.988281 C 7.875 36.730469 7.519531 36.382812 7.25 35.945312 C 6.734375 35.164062 6.511719 34.308594 6.578125 33.378906 C 6.625 32.914062 6.769531 32.480469 7.007812 32.082031 C 7.300781 31.574219 7.65625 31.113281 8.078125 30.699219 C 8.210938 30.589844 8.351562 30.5 8.507812 30.425781 C 8.527344 30.121094 8.542969 29.816406 8.558594 29.511719 C 8.460938 27.945312 8.359375 26.375 8.257812 24.808594 C 8.21875 23.632812 8.175781 22.457031 8.125 21.28125 C 8.195312 19.625 8.265625 17.96875 8.328125 16.3125 C 8.382812 15.503906 8.441406 14.695312 8.496094 13.886719 C 8.519531 12.550781 8.527344 11.214844 8.519531 9.878906 C 8.46875 8.675781 8.246094 7.507812 7.847656 6.371094 C 7.417969 5.914062 7.15625 5.367188 7.058594 4.742188 C 6.910156 3.917969 7.023438 3.132812 7.394531 2.386719 C 7.902344 1.597656 8.621094 1.125 9.554688 0.972656 C 9.652344 0.988281 9.753906 1 9.855469 1.007812 C 9.902344 1.074219 9.925781 1.152344 9.925781 1.234375 C 9.890625 1.550781 9.847656 1.863281 9.792969 2.171875 C 9.664062 2.835938 9.539062 3.5 9.421875 4.164062 C 9.625 4.277344 9.824219 4.390625 10.023438 4.511719 C 10.707031 4.785156 11.402344 4.824219 12.109375 4.632812 C 12.15625 4.613281 12.199219 4.59375 12.242188 4.574219 C 12.277344 4.441406 12.324219 4.3125 12.386719 4.1875 C 12.402344 4.058594 12.425781 3.929688 12.457031 3.804688 C 12.726562 3.023438 12.925781 2.222656 13.058594 1.402344 C 13.121094 1.34375 13.183594 1.34375 13.25 1.402344 C 13.261719 1.484375 13.257812 1.566406 13.238281 1.644531 Z M 8.507812 6.949219 C 8.515625 7.222656 8.523438 7.492188 8.535156 7.765625 C 8.402344 7.394531 8.273438 7.027344 8.136719 6.660156 C 8.25 6.769531 8.375 6.867188 8.507812 6.949219 Z M 7.835938 31.769531 C 7.652344 32.3125 7.550781 32.875 7.523438 33.449219 C 7.558594 34.527344 7.949219 35.449219 8.703125 36.210938 C 8.730469 36.332031 8.761719 36.457031 8.796875 36.582031 C 8.789062 36.59375 8.78125 36.605469 8.773438 36.617188 C 8.601562 36.550781 8.441406 36.46875 8.292969 36.367188 C 7.902344 36.023438 7.601562 35.609375 7.394531 35.128906 C 6.828125 33.910156 6.976562 32.789062 7.835938 31.769531 Z M 10.933594 32.585938 C 10.710938 32.542969 10.488281 32.53125 10.261719 32.550781 C 9.960938 32.589844 9.664062 32.660156 9.375 32.753906 C 9.773438 32.476562 10.214844 32.382812 10.695312 32.476562 C 10.785156 32.496094 10.863281 32.535156 10.933594 32.585938 Z M 10.933594 32.585938 "/>
</g>
<mask id="mask1">
  <g filter="url(#alpha)">
<rect x="0" y="0" width="50" height="50" style="fill:rgb(0%,0%,0%);fill-opacity:0.988235;stroke:none;"/>
  </g>
</mask>
<clipPath id="clip2">
  <rect width="50" height="50"/>
</clipPath>
<g id="surface9" clip-path="url(#clip2)">
<path style=" stroke:none;fill-rule:evenodd;fill:rgb(0.784314%,0.784314%,0.784314%);fill-opacity:1;" d="M 13.789062 7.019531 C 13.59375 7.132812 13.40625 7.261719 13.226562 7.40625 C 13.027344 7.804688 12.878906 8.21875 12.78125 8.652344 C 12.722656 8.90625 12.671875 9.164062 12.625 9.421875 C 12.617188 9.660156 12.609375 9.902344 12.601562 10.140625 C 12.535156 10.5 12.492188 10.859375 12.46875 11.222656 C 12.402344 11.773438 12.386719 12.324219 12.421875 12.878906 C 12.460938 13.375 12.453125 13.871094 12.398438 14.367188 C 12.292969 14.875 12.183594 15.386719 12.074219 15.902344 C 12.039062 16.113281 12.015625 16.324219 12.015625 16.539062 C 12.054688 16.902344 12.085938 17.265625 12.109375 17.628906 C 12.039062 18.6875 12.019531 19.742188 12.050781 20.800781 C 12.136719 21.492188 12.152344 22.191406 12.097656 22.886719 C 12.085938 23.824219 12.082031 24.761719 12.085938 25.695312 C 12.082031 26.113281 12.09375 26.527344 12.121094 26.945312 C 12.242188 27.941406 12.3125 28.941406 12.339844 29.945312 C 12.355469 30.105469 12.398438 30.257812 12.46875 30.402344 C 12.445312 30.539062 12.367188 30.617188 12.230469 30.640625 C 12.117188 30.628906 12.03125 30.574219 11.976562 30.472656 C 11.9375 30.355469 11.90625 30.234375 11.882812 30.113281 C 11.855469 29.601562 11.824219 29.089844 11.785156 28.578125 C 11.777344 28.390625 11.742188 28.203125 11.691406 28.023438 C 11.6875 27.542969 11.664062 27.0625 11.617188 26.585938 C 11.601562 25.875 11.589844 25.167969 11.582031 24.460938 C 11.589844 23.726562 11.613281 22.996094 11.652344 22.261719 C 11.648438 22.0625 11.644531 21.863281 11.640625 21.664062 C 11.605469 21.441406 11.582031 21.214844 11.570312 20.992188 C 11.558594 20.414062 11.546875 19.839844 11.535156 19.261719 C 11.535156 18.867188 11.5625 18.476562 11.617188 18.085938 C 11.617188 17.390625 11.617188 16.695312 11.617188 16 C 11.691406 15.507812 11.78125 15.019531 11.894531 14.535156 C 11.9375 14.183594 11.953125 13.832031 11.941406 13.476562 C 11.933594 12.195312 11.996094 10.914062 12.121094 9.636719 C 12.210938 9.023438 12.375 8.429688 12.613281 7.859375 C 12.640625 7.8125 12.664062 7.757812 12.6875 7.707031 C 12.683594 7.6875 12.675781 7.675781 12.660156 7.667969 C 12.570312 7.679688 12.488281 7.65625 12.421875 7.597656 C 12.289062 7.433594 12.296875 7.277344 12.445312 7.128906 C 12.5625 7.09375 12.675781 7.046875 12.78125 6.984375 C 13.03125 6.804688 13.285156 6.636719 13.550781 6.480469 C 14.433594 5.652344 14.765625 4.640625 14.546875 3.445312 C 14.507812 3.277344 14.445312 3.117188 14.367188 2.964844 C 14.367188 2.949219 14.359375 2.941406 14.34375 2.941406 C 14.34375 2.933594 14.34375 2.925781 14.34375 2.917969 C 14.347656 2.894531 14.339844 2.875 14.316406 2.867188 C 14.261719 2.726562 14.195312 2.589844 14.113281 2.460938 C 13.875 2.144531 13.617188 1.847656 13.335938 1.570312 C 13.273438 1.433594 13.3125 1.347656 13.453125 1.308594 C 13.527344 1.339844 13.601562 1.375 13.671875 1.417969 C 14.71875 2.226562 15.195312 3.296875 15.097656 4.621094 C 14.996094 5.261719 14.757812 5.847656 14.378906 6.371094 C 14.273438 6.507812 14.171875 6.644531 14.066406 6.78125 C 13.984375 6.875 13.890625 6.957031 13.789062 7.019531 Z M 13.789062 7.019531 "/>
</g>
<mask id="mask2">
  <g filter="url(#alpha)">
<rect x="0" y="0" width="50" height="50" style="fill:rgb(0%,0%,0%);fill-opacity:0.980392;stroke:none;"/>
  </g>
</mask>
<clipPath id="clip3">
  <rect width="50" height="50"/>
</clipPath>
<g id="surface12" clip-path="url(#clip3)">
<path style=" stroke:none;fill-rule:evenodd;fill:rgb(0.784314%,0.784314%,0.784314%);fill-opacity:1;" d="M 22.742188 3.902344 C 22.742188 3.851562 22.742188 3.804688 22.742188 3.757812 C 22.75 3.695312 22.742188 3.640625 22.71875 3.589844 C 22.707031 3.164062 22.691406 2.742188 22.671875 2.316406 C 22.671875 2.277344 22.671875 2.238281 22.671875 2.195312 C 22.507812 2.214844 22.347656 2.238281 22.191406 2.269531 C 22.046875 2.261719 21.902344 2.269531 21.757812 2.292969 C 21.703125 2.308594 21.667969 2.351562 21.652344 2.414062 C 21.601562 2.660156 21.53125 2.898438 21.433594 3.132812 C 21.1875 3.566406 20.9375 3.996094 20.691406 4.429688 C 20.359375 5.226562 20.117188 6.050781 19.972656 6.902344 C 19.855469 7.53125 19.773438 8.160156 19.71875 8.796875 C 19.730469 9.140625 19.78125 9.476562 19.875 9.804688 C 20.097656 10.589844 20.425781 11.324219 20.859375 12.015625 C 21.046875 12.3125 21.238281 12.609375 21.433594 12.902344 C 21.613281 13.117188 21.808594 13.308594 22.023438 13.476562 C 22.121094 13.574219 22.226562 13.664062 22.335938 13.753906 C 22.953125 14.167969 23.558594 14.589844 24.160156 15.027344 C 24.25 15.082031 24.34375 15.117188 24.449219 15.132812 C 24.585938 14.804688 24.765625 14.5 24.988281 14.222656 C 25.089844 14.042969 25.1875 13.859375 25.277344 13.671875 C 25.367188 13.539062 25.492188 13.457031 25.648438 13.417969 C 25.019531 12.660156 24.355469 11.933594 23.65625 11.234375 C 23.535156 11.128906 23.414062 11.027344 23.296875 10.921875 C 23.140625 10.835938 22.984375 10.75 22.828125 10.667969 C 22.757812 10.558594 22.726562 10.441406 22.730469 10.308594 C 22.710938 9.949219 22.714844 9.589844 22.742188 9.230469 C 22.722656 9.199219 22.699219 9.171875 22.671875 9.144531 C 22.40625 9.035156 22.167969 8.878906 21.964844 8.675781 C 21.761719 8.371094 21.585938 8.050781 21.433594 7.71875 C 21.371094 7.144531 21.476562 6.609375 21.746094 6.109375 C 21.996094 5.75 22.335938 5.550781 22.769531 5.507812 C 22.929688 5.515625 22.984375 5.59375 22.921875 5.75 C 22.570312 5.910156 22.289062 6.160156 22.082031 6.492188 C 21.980469 6.839844 21.925781 7.191406 21.914062 7.550781 C 22.046875 7.835938 22.191406 8.117188 22.347656 8.390625 C 22.5625 8.554688 22.789062 8.703125 23.03125 8.832031 C 23.207031 8.960938 23.21875 9.101562 23.066406 9.253906 C 23.046875 9.613281 23.054688 9.972656 23.089844 10.332031 C 23.101562 10.367188 23.121094 10.394531 23.152344 10.417969 C 23.242188 10.4375 23.328125 10.472656 23.402344 10.527344 C 23.441406 10.207031 23.449219 9.886719 23.429688 9.566406 C 23.40625 9.441406 23.375 9.324219 23.332031 9.207031 C 23.308594 9.085938 23.324219 8.976562 23.378906 8.871094 C 24.070312 8.332031 24.277344 7.644531 24.003906 6.804688 C 23.933594 6.460938 23.769531 6.179688 23.511719 5.953125 C 23.398438 5.894531 23.28125 5.84375 23.164062 5.796875 C 23.105469 5.625 23.167969 5.539062 23.34375 5.53125 C 23.320312 4.722656 23.300781 3.910156 23.296875 3.097656 C 23.292969 2.761719 23.304688 2.429688 23.332031 2.101562 C 23.359375 2.066406 23.394531 2.046875 23.441406 2.039062 C 23.875 2.054688 24.308594 2.011719 24.734375 1.910156 C 24.867188 1.917969 24.996094 1.9375 25.121094 1.96875 C 25.1875 2.042969 25.210938 2.128906 25.191406 2.21875 C 25.167969 2.257812 25.164062 2.296875 25.179688 2.339844 C 25.640625 3.136719 26.066406 3.953125 26.453125 4.789062 C 26.78125 5.78125 27.003906 6.796875 27.125 7.835938 C 27.148438 8.316406 27.109375 8.785156 27.003906 9.253906 C 26.800781 10.179688 26.546875 11.09375 26.25 11.988281 C 26.160156 12.300781 26.015625 12.582031 25.816406 12.828125 C 25.878906 12.90625 25.949219 12.976562 26.019531 13.046875 C 26.140625 12.945312 26.25 12.953125 26.355469 13.070312 C 26.488281 13.304688 26.648438 13.523438 26.835938 13.71875 C 26.945312 13.855469 27.039062 13.996094 27.125 14.148438 C 27.6875 15.390625 28.117188 16.679688 28.410156 18.015625 C 28.671875 19.386719 28.949219 20.753906 29.238281 22.121094 C 29.46875 23.484375 29.605469 24.863281 29.644531 26.25 C 29.816406 28.585938 29.605469 30.890625 29.019531 33.160156 C 28.847656 33.738281 28.632812 34.296875 28.371094 34.839844 C 28.214844 35.5 28.023438 36.148438 27.796875 36.785156 C 27.671875 37.078125 27.515625 37.351562 27.328125 37.601562 C 27.277344 37.648438 27.21875 37.695312 27.160156 37.734375 C 27.082031 37.75 27 37.75 26.921875 37.734375 C 26.660156 37.636719 26.402344 37.523438 26.152344 37.398438 C 26.0625 37.308594 26.035156 37.199219 26.066406 37.074219 C 26.132812 36.949219 26.207031 36.828125 26.285156 36.714844 C 26.335938 36.625 26.378906 36.527344 26.402344 36.425781 C 26.5 35.976562 26.601562 35.527344 26.714844 35.082031 C 27.023438 34.390625 27.238281 33.667969 27.363281 32.921875 C 27.535156 32.109375 27.621094 31.289062 27.617188 30.460938 C 27.558594 28.722656 27.53125 26.980469 27.53125 25.238281 C 27.507812 24.003906 27.292969 22.804688 26.882812 21.640625 C 26.207031 20.019531 25.5 18.410156 24.761719 16.816406 C 24.761719 16.777344 24.746094 16.753906 24.710938 16.742188 C 24.691406 16.734375 24.683594 16.71875 24.6875 16.695312 C 24.558594 16.421875 24.40625 16.167969 24.230469 15.925781 C 24.234375 15.890625 24.21875 15.867188 24.183594 15.855469 C 24.132812 15.785156 24.082031 15.710938 24.027344 15.636719 C 23.832031 15.433594 23.628906 15.238281 23.414062 15.0625 C 23.328125 14.976562 23.230469 14.894531 23.128906 14.824219 C 23.105469 14.851562 23.097656 14.882812 23.105469 14.917969 C 23.101562 14.972656 23.082031 15.019531 23.042969 15.0625 C 22.9375 15.164062 22.839844 15.277344 22.753906 15.398438 C 22.660156 15.632812 22.554688 15.867188 22.445312 16.09375 C 22.210938 16.414062 21.980469 16.734375 21.746094 17.054688 C 21.328125 17.816406 20.917969 18.582031 20.523438 19.359375 C 20.15625 20.21875 19.847656 21.101562 19.597656 22 C 19.316406 22.78125 19.15625 23.589844 19.117188 24.425781 C 18.988281 26.136719 18.863281 27.847656 18.746094 29.5625 C 18.71875 30.601562 18.75 31.644531 18.84375 32.679688 C 18.863281 32.867188 18.890625 33.050781 18.925781 33.234375 C 18.925781 33.328125 18.953125 33.417969 19 33.496094 C 18.992188 33.5625 19.007812 33.617188 19.046875 33.664062 C 19.078125 33.839844 19.125 34.007812 19.191406 34.167969 C 19.347656 34.6875 19.519531 35.199219 19.707031 35.707031 C 19.765625 35.863281 19.839844 36.003906 19.933594 36.136719 C 20.140625 36.445312 20.347656 36.757812 20.546875 37.074219 C 20.605469 37.265625 20.574219 37.441406 20.453125 37.601562 C 20.253906 37.828125 20.011719 37.988281 19.730469 38.082031 C 19.566406 38.054688 19.429688 37.972656 19.324219 37.84375 C 19.097656 37.609375 18.882812 37.371094 18.675781 37.121094 C 18.570312 36.980469 18.480469 36.828125 18.410156 36.664062 C 18.253906 36.164062 18.046875 35.683594 17.785156 35.226562 C 17.496094 34.457031 17.199219 33.6875 16.898438 32.921875 C 16.394531 31.609375 16.113281 30.246094 16.058594 28.839844 C 15.996094 27.757812 15.941406 26.671875 15.902344 25.589844 C 15.910156 23.746094 16.136719 21.933594 16.585938 20.152344 C 16.863281 19.140625 17.140625 18.132812 17.425781 17.125 C 17.722656 16.152344 18.105469 15.21875 18.578125 14.316406 C 18.914062 13.734375 19.359375 13.25 19.910156 12.867188 C 19.949219 12.855469 19.992188 12.851562 20.03125 12.855469 C 20.074219 12.90625 20.082031 12.960938 20.054688 13.023438 C 19.449219 13.660156 18.972656 14.390625 18.628906 15.207031 C 18.453125 15.617188 18.292969 16.035156 18.148438 16.453125 C 17.746094 17.652344 17.386719 18.859375 17.066406 20.078125 C 16.882812 20.925781 16.707031 21.773438 16.539062 22.625 C 16.503906 22.863281 16.480469 23.101562 16.464844 23.34375 C 16.449219 24.375 16.449219 25.40625 16.464844 26.441406 C 16.542969 27.414062 16.59375 28.390625 16.609375 29.367188 C 16.671875 30.042969 16.78125 30.707031 16.945312 31.359375 C 17.214844 32.191406 17.503906 33.015625 17.8125 33.832031 C 18.222656 34.761719 18.613281 35.699219 18.988281 36.640625 C 19.210938 36.96875 19.46875 37.253906 19.765625 37.492188 C 19.839844 37.429688 19.902344 37.363281 19.960938 37.289062 C 19.972656 37.289062 19.984375 37.28125 19.996094 37.265625 C 20.011719 37.21875 20.011719 37.171875 19.996094 37.121094 C 19.652344 36.625 19.382812 36.085938 19.179688 35.515625 C 18.9375 34.785156 18.710938 34.046875 18.507812 33.304688 C 18.371094 32.601562 18.3125 31.886719 18.328125 31.167969 C 18.324219 30.578125 18.328125 29.984375 18.339844 29.394531 C 18.382812 28.777344 18.425781 28.160156 18.472656 27.542969 C 18.550781 26.644531 18.628906 25.742188 18.699219 24.832031 C 18.761719 23.980469 18.898438 23.140625 19.105469 22.3125 C 19.410156 21.246094 19.777344 20.207031 20.210938 19.191406 C 20.523438 18.539062 20.84375 17.890625 21.171875 17.246094 C 21.308594 17.011719 21.453125 16.777344 21.601562 16.550781 C 21.855469 16.226562 22.105469 15.898438 22.347656 15.566406 C 22.507812 15.304688 22.617188 15.023438 22.683594 14.726562 C 22.710938 14.671875 22.753906 14.636719 22.816406 14.617188 C 22.554688 14.433594 22.289062 14.253906 22.023438 14.078125 C 21.730469 13.835938 21.445312 13.582031 21.171875 13.308594 C 20.941406 13 20.730469 12.679688 20.535156 12.351562 C 20.042969 11.535156 19.664062 10.671875 19.394531 9.757812 C 19.273438 9.332031 19.234375 8.902344 19.273438 8.460938 C 19.359375 7.421875 19.535156 6.398438 19.804688 5.390625 C 19.925781 4.933594 20.101562 4.503906 20.332031 4.09375 C 20.558594 3.734375 20.777344 3.363281 20.980469 2.988281 C 21.09375 2.679688 21.195312 2.367188 21.292969 2.050781 C 21.417969 1.914062 21.574219 1.839844 21.757812 1.824219 C 22.144531 1.785156 22.527344 1.785156 22.910156 1.824219 C 22.945312 1.835938 22.972656 1.855469 22.996094 1.882812 C 23.027344 1.964844 23.046875 2.050781 23.054688 2.136719 C 22.992188 3.164062 22.921875 4.195312 22.839844 5.222656 C 22.8125 4.777344 22.777344 4.335938 22.742188 3.902344 Z M 22.671875 2.316406 C 22.511719 2.300781 22.351562 2.285156 22.191406 2.269531 C 22.347656 2.238281 22.507812 2.214844 22.671875 2.195312 C 22.671875 2.238281 22.671875 2.277344 22.671875 2.316406 Z M 28.023438 25.289062 C 28.296875 26.269531 28.550781 27.261719 28.78125 28.265625 C 28.867188 28.75 28.882812 29.238281 28.828125 29.730469 C 28.738281 30.613281 28.585938 31.484375 28.371094 32.34375 C 28 33.824219 27.554688 35.28125 27.027344 36.714844 C 27.015625 36.78125 27.03125 36.847656 27.0625 36.90625 C 27.011719 36.996094 26.949219 37.074219 26.871094 37.144531 C 26.808594 37.097656 26.742188 37.050781 26.679688 37 C 26.769531 36.855469 26.84375 36.703125 26.910156 36.546875 C 26.996094 36.121094 27.089844 35.695312 27.195312 35.273438 C 27.277344 35.058594 27.375 34.851562 27.484375 34.648438 C 27.707031 33.917969 27.867188 33.175781 27.964844 32.417969 C 28.066406 31.652344 28.136719 30.882812 28.167969 30.113281 C 28.09375 28.503906 28.046875 26.898438 28.023438 25.289062 Z M 28.023438 25.289062 "/>
</g>
<mask id="mask3">
  <g filter="url(#alpha)">
<rect x="0" y="0" width="50" height="50" style="fill:rgb(0%,0%,0%);fill-opacity:0.964706;stroke:none;"/>
  </g>
</mask>
<clipPath id="clip4">
  <rect width="50" height="50"/>
</clipPath>
<g id="surface15" clip-path="url(#clip4)">
<path style=" stroke:none;fill-rule:evenodd;fill:rgb(93.72549%,92.156863%,89.411765%);fill-opacity:1;" d="M 25.191406 2.21875 C 25.328125 2.214844 25.464844 2.21875 25.601562 2.230469 C 27.390625 4.648438 27.84375 7.300781 26.957031 10.191406 C 26.773438 10.8125 26.539062 11.414062 26.25 11.988281 C 26.546875 11.09375 26.800781 10.179688 27.003906 9.253906 C 27.109375 8.785156 27.148438 8.316406 27.125 7.835938 C 27.003906 6.796875 26.78125 5.78125 26.453125 4.789062 C 26.066406 3.953125 25.640625 3.136719 25.179688 2.339844 C 25.164062 2.296875 25.167969 2.257812 25.191406 2.21875 Z M 25.191406 2.21875 "/>
</g>
<mask id="mask4">
  <g filter="url(#alpha)">
<rect x="0" y="0" width="50" height="50" style="fill:rgb(0%,0%,0%);fill-opacity:0.980392;stroke:none;"/>
  </g>
</mask>
<clipPath id="clip5">
  <rect width="50" height="50"/>
</clipPath>
<g id="surface18" clip-path="url(#clip5)">
<path style=" stroke:none;fill-rule:evenodd;fill:rgb(0.392157%,0.392157%,0.392157%);fill-opacity:1;" d="M 42.140625 23.945312 C 42.121094 23.96875 42.109375 24.003906 42.101562 24.039062 C 42.023438 25.328125 41.976562 26.613281 41.972656 27.90625 C 41.984375 29.328125 42.011719 30.753906 42.054688 32.175781 C 42.070312 32.472656 42.09375 32.769531 42.125 33.066406 C 42.292969 33.863281 42.441406 34.664062 42.570312 35.464844 C 42.601562 35.664062 42.515625 35.757812 42.320312 35.753906 C 42.273438 35.75 42.230469 35.746094 42.1875 35.742188 C 42.128906 35.703125 42.074219 35.660156 42.019531 35.621094 C 41.179688 35.542969 40.339844 35.464844 39.5 35.382812 C 39.398438 35.351562 39.320312 35.292969 39.269531 35.203125 C 39.207031 35.082031 39.167969 34.953125 39.148438 34.816406 C 39.066406 33.953125 38.992188 33.089844 38.933594 32.226562 C 38.9375 30.273438 38.941406 28.320312 38.945312 26.367188 C 38.886719 23.8125 38.777344 21.261719 38.621094 18.710938 C 38.613281 17.175781 38.605469 15.636719 38.597656 14.101562 C 38.527344 12.566406 38.484375 11.03125 38.464844 9.492188 C 38.460938 9.058594 38.476562 8.628906 38.515625 8.199219 C 38.546875 8.132812 38.5625 8.058594 38.5625 7.980469 C 37.714844 7.957031 36.867188 7.953125 36.019531 7.96875 C 35.449219 7.988281 34.878906 8.03125 34.3125 8.101562 C 34.1875 8.101562 34.058594 8.101562 33.929688 8.101562 C 33.921875 8.132812 33.933594 8.15625 33.953125 8.171875 C 33.945312 8.289062 33.886719 8.351562 33.773438 8.367188 C 33.601562 8.351562 33.492188 8.265625 33.4375 8.101562 C 33.394531 8 33.371094 7.898438 33.367188 7.789062 C 33.347656 7.445312 33.328125 7.101562 33.304688 6.757812 C 33.128906 6.753906 33.070312 6.664062 33.125 6.492188 C 33.144531 6.457031 33.171875 6.429688 33.210938 6.410156 C 33.53125 6.359375 33.835938 6.253906 34.121094 6.097656 C 34.394531 5.9375 34.664062 5.777344 34.9375 5.617188 C 35.59375 5.160156 36.257812 4.710938 36.929688 4.273438 C 37.25 4.085938 37.578125 3.917969 37.914062 3.769531 C 38.527344 3.664062 39.144531 3.574219 39.761719 3.503906 C 40.304688 3.464844 40.851562 3.445312 41.394531 3.445312 C 42.34375 3.46875 43.289062 3.492188 44.238281 3.515625 C 44.769531 3.496094 45.304688 3.492188 45.835938 3.503906 C 46.058594 3.519531 46.261719 3.585938 46.449219 3.707031 C 46.492188 3.773438 46.511719 3.84375 46.507812 3.925781 C 46.332031 4.964844 46.234375 6.019531 46.21875 7.082031 C 46.210938 7.335938 46.234375 7.589844 46.292969 7.835938 C 46.289062 7.871094 46.28125 7.902344 46.265625 7.933594 C 46.390625 8.066406 46.421875 8.21875 46.351562 8.390625 C 46.261719 8.492188 46.152344 8.53125 46.015625 8.507812 C 45.539062 8.457031 45.0625 8.40625 44.585938 8.351562 C 43.773438 8.382812 42.960938 8.363281 42.152344 8.292969 C 42.109375 8.292969 42.070312 8.300781 42.03125 8.316406 C 42.015625 8.613281 42.015625 8.910156 42.03125 9.207031 C 42.074219 9.679688 42.121094 10.148438 42.175781 10.621094 C 42.199219 10.914062 42.210938 11.207031 42.210938 11.496094 C 42.183594 12.367188 42.148438 13.234375 42.101562 14.101562 C 42.097656 14.546875 42.09375 14.992188 42.089844 15.433594 C 42.128906 17.410156 42.160156 19.386719 42.1875 21.363281 C 42.191406 22.222656 42.175781 23.085938 42.140625 23.945312 Z M 42.546875 3.972656 C 41.28125 3.972656 40.019531 3.972656 38.753906 3.972656 C 39.402344 3.914062 40.054688 3.890625 40.710938 3.902344 C 41.328125 3.890625 41.941406 3.914062 42.546875 3.972656 Z M 45.8125 6.445312 C 45.789062 6.882812 45.78125 7.324219 45.789062 7.765625 C 45.738281 7.765625 45.691406 7.765625 45.644531 7.765625 C 45.691406 7.320312 45.746094 6.878906 45.8125 6.445312 Z M 39.425781 31.433594 C 39.457031 31.925781 39.472656 32.421875 39.472656 32.921875 C 39.453125 32.828125 39.441406 32.734375 39.4375 32.632812 C 39.425781 32.234375 39.421875 31.832031 39.425781 31.433594 Z M 39.425781 31.433594 "/>
</g>
<mask id="mask5">
  <g filter="url(#alpha)">
<rect x="0" y="0" width="50" height="50" style="fill:rgb(0%,0%,0%);fill-opacity:0.996078;stroke:none;"/>
  </g>
</mask>
<clipPath id="clip6">
  <rect width="50" height="50"/>
</clipPath>
<g id="surface21" clip-path="url(#clip6)">
<path style=" stroke:none;fill-rule:evenodd;fill:rgb(94.509804%,92.941176%,90.196078%);fill-opacity:1;" d="M 38.753906 3.972656 C 40.019531 3.972656 41.28125 3.972656 42.546875 3.972656 C 42.644531 3.972656 42.738281 3.972656 42.835938 3.972656 C 43.71875 4.011719 44.605469 4.03125 45.5 4.03125 C 45.695312 4.058594 45.886719 4.09375 46.074219 4.140625 C 46.074219 4.179688 46.074219 4.21875 46.074219 4.261719 C 45.972656 4.917969 45.890625 5.582031 45.835938 6.253906 C 45.8125 6.3125 45.804688 6.375 45.8125 6.445312 C 45.746094 6.878906 45.691406 7.320312 45.644531 7.765625 C 41.9375 7.605469 38.234375 7.433594 34.53125 7.25 C 34.28125 7.054688 34.023438 6.871094 33.761719 6.695312 C 33.742188 6.679688 33.734375 6.660156 33.738281 6.636719 C 34.136719 6.480469 34.519531 6.292969 34.890625 6.074219 C 35.746094 5.511719 36.613281 4.960938 37.480469 4.417969 C 37.707031 4.289062 37.945312 4.207031 38.203125 4.175781 C 38.25 4.121094 38.285156 4.058594 38.296875 3.984375 C 38.449219 3.972656 38.601562 3.96875 38.753906 3.972656 Z M 38.753906 3.972656 "/>
</g>
<mask id="mask6">
  <g filter="url(#alpha)">
<rect x="0" y="0" width="50" height="50" style="fill:rgb(0%,0%,0%);fill-opacity:0.996078;stroke:none;"/>
  </g>
</mask>
<clipPath id="clip7">
  <rect width="50" height="50"/>
</clipPath>
<g id="surface24" clip-path="url(#clip7)">
<path style=" stroke:none;fill-rule:evenodd;fill:rgb(94.509804%,92.941176%,90.196078%);fill-opacity:1;" d="M 8.507812 6.949219 C 8.722656 7.089844 8.945312 7.214844 9.179688 7.320312 C 9.585938 7.441406 9.984375 7.566406 10.382812 7.707031 C 10.632812 7.777344 10.890625 7.820312 11.148438 7.835938 C 11.128906 8.980469 11.210938 10.113281 11.402344 11.246094 C 11.46875 12.445312 11.5 13.644531 11.484375 14.847656 C 11.433594 19.539062 11.324219 24.234375 11.148438 28.925781 C 11.1875 29.472656 11.230469 30.019531 11.269531 30.570312 C 11.324219 30.570312 11.382812 30.570312 11.4375 30.570312 C 11.414062 30.625 11.414062 30.679688 11.4375 30.738281 C 11.636719 30.761719 11.828125 30.808594 12.015625 30.882812 C 12.300781 31.183594 12.53125 31.527344 12.699219 31.914062 C 12.929688 32.4375 13.097656 32.980469 13.203125 33.546875 C 13.292969 34.207031 13.234375 34.855469 13.035156 35.488281 C 12.964844 35.691406 12.890625 35.894531 12.804688 36.089844 C 12.761719 36.171875 12.699219 36.242188 12.625 36.304688 C 12.523438 35.683594 12.394531 35.066406 12.242188 34.457031 C 12.09375 33.921875 11.847656 33.441406 11.496094 33.015625 C 11.355469 32.828125 11.175781 32.691406 10.957031 32.609375 C 10.941406 32.609375 10.933594 32.601562 10.933594 32.585938 C 10.863281 32.535156 10.785156 32.496094 10.695312 32.476562 C 10.214844 32.382812 9.773438 32.476562 9.375 32.753906 C 9.351562 32.75 9.332031 32.757812 9.324219 32.777344 C 9.308594 32.777344 9.300781 32.785156 9.300781 32.800781 C 9.292969 32.800781 9.285156 32.800781 9.277344 32.800781 C 9.261719 32.800781 9.253906 32.808594 9.253906 32.824219 C 8.753906 33.089844 8.496094 33.503906 8.472656 34.074219 C 8.476562 34.78125 8.5625 35.484375 8.726562 36.171875 C 8.722656 36.191406 8.714844 36.203125 8.703125 36.210938 C 7.949219 35.449219 7.558594 34.527344 7.523438 33.449219 C 7.550781 32.875 7.652344 32.3125 7.835938 31.769531 C 7.855469 31.761719 7.867188 31.746094 7.859375 31.722656 C 7.878906 31.722656 7.886719 31.714844 7.886719 31.695312 C 8.03125 31.460938 8.207031 31.25 8.414062 31.0625 C 9.007812 30.675781 9.636719 30.351562 10.296875 30.089844 C 10.3125 29.957031 10.253906 29.902344 10.117188 29.921875 C 9.953125 29.933594 9.792969 29.960938 9.636719 30.003906 C 9.453125 30.066406 9.269531 30.128906 9.085938 30.183594 C 9.085938 30.046875 9.085938 29.914062 9.085938 29.777344 C 9.082031 29.457031 9.074219 29.136719 9.0625 28.816406 C 8.980469 25.46875 8.894531 22.125 8.796875 18.78125 C 8.816406 17.902344 8.835938 17.023438 8.855469 16.144531 C 9.003906 14.539062 9.050781 12.929688 9 11.316406 C 8.992188 10.113281 8.835938 8.929688 8.535156 7.765625 C 8.523438 7.492188 8.515625 7.222656 8.507812 6.949219 Z M 10.933594 32.585938 C 10.710938 32.542969 10.488281 32.53125 10.261719 32.550781 C 9.960938 32.589844 9.664062 32.660156 9.375 32.753906 C 9.773438 32.476562 10.214844 32.382812 10.695312 32.476562 C 10.785156 32.496094 10.863281 32.535156 10.933594 32.585938 Z M 10.933594 32.585938 "/>
</g>
<mask id="mask7">
  <g filter="url(#alpha)">
<rect x="0" y="0" width="50" height="50" style="fill:rgb(0%,0%,0%);fill-opacity:0.929412;stroke:none;"/>
  </g>
</mask>
<clipPath id="clip8">
  <rect width="50" height="50"/>
</clipPath>
<g id="surface27" clip-path="url(#clip8)">
<path style=" stroke:none;fill-rule:evenodd;fill:rgb(92.54902%,91.372549%,88.627451%);fill-opacity:1;" d="M 13.789062 7.019531 C 13.488281 7.589844 13.152344 8.132812 12.78125 8.652344 C 12.878906 8.21875 13.027344 7.804688 13.226562 7.40625 C 13.40625 7.261719 13.59375 7.132812 13.789062 7.019531 Z M 13.789062 7.019531 "/>
</g>
<mask id="mask8">
  <g filter="url(#alpha)">
<rect x="0" y="0" width="50" height="50" style="fill:rgb(0%,0%,0%);fill-opacity:0.937255;stroke:none;"/>
  </g>
</mask>
<clipPath id="clip9">
  <rect width="50" height="50"/>
</clipPath>
<g id="surface30" clip-path="url(#clip9)">
<path style=" stroke:none;fill-rule:evenodd;fill:rgb(92.156863%,90.588235%,87.843137%);fill-opacity:1;" d="M 38.515625 8.199219 C 36.992188 8.230469 35.472656 8.222656 33.953125 8.171875 C 34.066406 8.132812 34.1875 8.109375 34.3125 8.101562 C 34.878906 8.03125 35.449219 7.988281 36.019531 7.96875 C 36.867188 7.953125 37.714844 7.957031 38.5625 7.980469 C 38.5625 8.058594 38.546875 8.132812 38.515625 8.199219 Z M 38.515625 8.199219 "/>
</g>
<mask id="mask9">
  <g filter="url(#alpha)">
<rect x="0" y="0" width="50" height="50" style="fill:rgb(0%,0%,0%);fill-opacity:0.996078;stroke:none;"/>
  </g>
</mask>
<clipPath id="clip10">
  <rect width="50" height="50"/>
</clipPath>
<g id="surface33" clip-path="url(#clip10)">
<path style=" stroke:none;fill-rule:evenodd;fill:rgb(62.745098%,56.862745%,58.823529%);fill-opacity:1;" d="M 39.570312 8.054688 C 39.488281 8.046875 39.410156 8.054688 39.332031 8.078125 C 39.316406 8.109375 39.308594 8.140625 39.304688 8.171875 C 39.53125 17.085938 39.75 26 39.953125 34.914062 C 40.085938 34.90625 40.214844 34.914062 40.339844 34.9375 C 40.15625 34.941406 39.96875 34.9375 39.785156 34.925781 C 39.738281 34.914062 39.695312 34.894531 39.65625 34.867188 C 39.628906 34.796875 39.613281 34.722656 39.605469 34.648438 C 39.566406 34.101562 39.523438 33.558594 39.472656 33.015625 C 39.472656 32.984375 39.472656 32.953125 39.472656 32.921875 C 39.472656 32.421875 39.457031 31.925781 39.425781 31.433594 C 39.402344 29.335938 39.398438 27.242188 39.414062 25.144531 C 39.351562 23.710938 39.292969 22.28125 39.246094 20.847656 C 39.199219 20.289062 39.160156 19.726562 39.125 19.167969 C 39.121094 17.765625 39.121094 16.367188 39.125 14.964844 C 39.066406 13.964844 39.011719 12.964844 38.957031 11.964844 C 38.929688 10.925781 38.914062 9.886719 38.910156 8.84375 C 38.890625 8.5625 38.863281 8.285156 38.828125 8.003906 C 39.078125 8.015625 39.328125 8.03125 39.570312 8.054688 Z M 39.570312 8.054688 "/>
</g>
<mask id="mask10">
  <g filter="url(#alpha)">
<rect x="0" y="0" width="50" height="50" style="fill:rgb(0%,0%,0%);fill-opacity:0.537255;stroke:none;"/>
  </g>
</mask>
<clipPath id="clip11">
  <rect width="50" height="50"/>
</clipPath>
<g id="surface36" clip-path="url(#clip11)">
<path style=" stroke:none;fill-rule:evenodd;fill:rgb(78.431373%,77.254902%,74.901961%);fill-opacity:1;" d="M 12.46875 11.222656 C 12.464844 11.773438 12.449219 12.328125 12.421875 12.878906 C 12.386719 12.324219 12.402344 11.773438 12.46875 11.222656 Z M 12.46875 11.222656 "/>
</g>
<mask id="mask11">
  <g filter="url(#alpha)">
<rect x="0" y="0" width="50" height="50" style="fill:rgb(0%,0%,0%);fill-opacity:0.996078;stroke:none;"/>
  </g>
</mask>
<clipPath id="clip12">
  <rect width="50" height="50"/>
</clipPath>
<g id="surface39" clip-path="url(#clip12)">
<path style=" stroke:none;fill-rule:evenodd;fill:rgb(94.117647%,92.54902%,89.803922%);fill-opacity:1;" d="M 27.0625 36.90625 C 27.03125 36.847656 27.015625 36.78125 27.027344 36.714844 C 27.554688 35.28125 28 33.824219 28.371094 32.34375 C 28.585938 31.484375 28.738281 30.613281 28.828125 29.730469 C 28.882812 29.238281 28.867188 28.75 28.78125 28.265625 C 28.550781 27.261719 28.296875 26.269531 28.023438 25.289062 C 27.988281 23.988281 27.746094 22.734375 27.292969 21.519531 C 26.792969 20.371094 26.289062 19.226562 25.78125 18.085938 C 25.382812 17.203125 24.90625 16.371094 24.351562 15.589844 C 24.433594 15.574219 24.511719 15.558594 24.59375 15.542969 C 24.632812 15.535156 24.667969 15.519531 24.699219 15.496094 C 24.855469 15.054688 25.085938 14.660156 25.394531 14.316406 C 25.464844 14.171875 25.535156 14.027344 25.613281 13.886719 C 25.75 13.832031 25.820312 13.726562 25.816406 13.574219 C 25.953125 13.609375 26.066406 13.570312 26.152344 13.453125 C 26.773438 14.421875 27.242188 15.460938 27.554688 16.574219 C 28.417969 19.738281 28.945312 22.953125 29.140625 26.222656 C 29.15625 27.152344 29.15625 28.082031 29.140625 29.007812 C 29.125 29.257812 29.109375 29.503906 29.09375 29.753906 C 28.960938 30.550781 28.851562 31.351562 28.757812 32.152344 C 28.550781 33.03125 28.238281 33.871094 27.820312 34.671875 C 27.644531 35.28125 27.46875 35.890625 27.292969 36.496094 C 27.242188 36.648438 27.164062 36.785156 27.0625 36.90625 Z M 27.0625 36.90625 "/>
</g>
<mask id="mask12">
  <g filter="url(#alpha)">
<rect x="0" y="0" width="50" height="50" style="fill:rgb(0%,0%,0%);fill-opacity:0.933333;stroke:none;"/>
  </g>
</mask>
<clipPath id="clip13">
  <rect width="50" height="50"/>
</clipPath>
<g id="surface42" clip-path="url(#clip13)">
<path style=" stroke:none;fill-rule:evenodd;fill:rgb(92.54902%,90.980392%,88.235294%);fill-opacity:1;" d="M 12.398438 14.367188 C 12.300781 18.148438 12.195312 21.921875 12.085938 25.695312 C 12.082031 24.761719 12.085938 23.824219 12.097656 22.886719 C 12.152344 22.191406 12.136719 21.492188 12.050781 20.800781 C 12.019531 19.742188 12.039062 18.6875 12.109375 17.628906 C 12.085938 17.265625 12.054688 16.902344 12.015625 16.539062 C 12.015625 16.324219 12.039062 16.113281 12.074219 15.902344 C 12.183594 15.386719 12.292969 14.875 12.398438 14.367188 Z M 12.398438 14.367188 "/>
</g>
<mask id="mask13">
  <g filter="url(#alpha)">
<rect x="0" y="0" width="50" height="50" style="fill:rgb(0%,0%,0%);fill-opacity:0.752941;stroke:none;"/>
  </g>
</mask>
<clipPath id="clip14">
  <rect width="50" height="50"/>
</clipPath>
<g id="surface45" clip-path="url(#clip14)">
<path style=" stroke:none;fill-rule:evenodd;fill:rgb(85.490196%,83.921569%,81.568627%);fill-opacity:1;" d="M 23.414062 15.0625 C 23.308594 15.019531 23.203125 14.972656 23.105469 14.917969 C 23.097656 14.882812 23.105469 14.851562 23.128906 14.824219 C 23.230469 14.894531 23.328125 14.976562 23.414062 15.0625 Z M 23.414062 15.0625 "/>
</g>
<mask id="mask14">
  <g filter="url(#alpha)">
<rect x="0" y="0" width="50" height="50" style="fill:rgb(0%,0%,0%);fill-opacity:0.12549;stroke:none;"/>
  </g>
</mask>
<clipPath id="clip15">
  <rect width="50" height="50"/>
</clipPath>
<g id="surface48" clip-path="url(#clip15)">
<path style=" stroke:none;fill-rule:evenodd;fill:rgb(86.666667%,85.098039%,82.745098%);fill-opacity:1;" d="M 24.183594 15.855469 C 24.21875 15.867188 24.234375 15.890625 24.230469 15.925781 C 24.199219 15.914062 24.183594 15.890625 24.183594 15.855469 Z M 24.183594 15.855469 "/>
</g>
<mask id="mask15">
  <g filter="url(#alpha)">
<rect x="0" y="0" width="50" height="50" style="fill:rgb(0%,0%,0%);fill-opacity:0.470588;stroke:none;"/>
  </g>
</mask>
<clipPath id="clip16">
  <rect width="50" height="50"/>
</clipPath>
<g id="surface51" clip-path="url(#clip16)">
<path style=" stroke:none;fill-rule:evenodd;fill:rgb(87.058824%,85.490196%,83.137255%);fill-opacity:1;" d="M 24.230469 15.925781 C 24.40625 16.167969 24.558594 16.421875 24.6875 16.695312 C 24.515625 16.453125 24.363281 16.195312 24.230469 15.925781 Z M 24.230469 15.925781 "/>
</g>
<mask id="mask16">
  <g filter="url(#alpha)">
<rect x="0" y="0" width="50" height="50" style="fill:rgb(0%,0%,0%);fill-opacity:0.533333;stroke:none;"/>
  </g>
</mask>
<clipPath id="clip17">
  <rect width="50" height="50"/>
</clipPath>
<g id="surface54" clip-path="url(#clip17)">
<path style=" stroke:none;fill-rule:evenodd;fill:rgb(58.431373%,57.647059%,55.686275%);fill-opacity:1;" d="M 24.710938 16.742188 C 24.746094 16.753906 24.761719 16.777344 24.761719 16.816406 C 24.726562 16.804688 24.710938 16.78125 24.710938 16.742188 Z M 24.710938 16.742188 "/>
</g>
<mask id="mask17">
  <g filter="url(#alpha)">
<rect x="0" y="0" width="50" height="50" style="fill:rgb(0%,0%,0%);fill-opacity:0.964706;stroke:none;"/>
  </g>
</mask>
<clipPath id="clip18">
  <rect width="50" height="50"/>
</clipPath>
<g id="surface57" clip-path="url(#clip18)">
<path style=" stroke:none;fill-rule:evenodd;fill:rgb(93.72549%,92.156863%,89.411765%);fill-opacity:1;" d="M 28.410156 18.015625 C 29.964844 22.898438 30.351562 27.875 29.574219 32.945312 C 29.375 34.132812 29.015625 35.269531 28.492188 36.355469 C 28.246094 36.839844 27.921875 37.269531 27.519531 37.636719 C 27.484375 37.660156 27.449219 37.679688 27.414062 37.699219 C 27.378906 37.667969 27.351562 37.636719 27.328125 37.601562 C 27.515625 37.351562 27.671875 37.078125 27.796875 36.785156 C 28.023438 36.148438 28.214844 35.5 28.371094 34.839844 C 28.632812 34.296875 28.847656 33.738281 29.019531 33.160156 C 29.605469 30.890625 29.816406 28.585938 29.644531 26.25 C 29.605469 24.863281 29.46875 23.484375 29.238281 22.121094 C 28.949219 20.753906 28.671875 19.386719 28.410156 18.015625 Z M 28.410156 18.015625 "/>
</g>
<mask id="mask18">
  <g filter="url(#alpha)">
<rect x="0" y="0" width="50" height="50" style="fill:rgb(0%,0%,0%);fill-opacity:0.827451;stroke:none;"/>
  </g>
</mask>
<clipPath id="clip19">
  <rect width="50" height="50"/>
</clipPath>
<g id="surface60" clip-path="url(#clip19)">
<path style=" stroke:none;fill-rule:evenodd;fill:rgb(87.058824%,85.490196%,83.137255%);fill-opacity:1;" d="M 19.597656 22 C 19.445312 22.8125 19.285156 23.621094 19.117188 24.425781 C 19.15625 23.589844 19.316406 22.78125 19.597656 22 Z M 19.597656 22 "/>
</g>
<mask id="mask19">
  <g filter="url(#alpha)">
<rect x="0" y="0" width="50" height="50" style="fill:rgb(0%,0%,0%);fill-opacity:0.976471;stroke:none;"/>
  </g>
</mask>
<clipPath id="clip20">
  <rect width="50" height="50"/>
</clipPath>
<g id="surface63" clip-path="url(#clip20)">
<path style=" stroke:none;fill-rule:evenodd;fill:rgb(93.72549%,92.156863%,89.411765%);fill-opacity:1;" d="M 42.140625 23.945312 C 42.414062 27.777344 42.703125 31.609375 43.003906 35.441406 C 43 35.488281 42.996094 35.539062 42.992188 35.585938 C 42.855469 35.53125 42.714844 35.492188 42.570312 35.464844 C 42.441406 34.664062 42.292969 33.863281 42.125 33.066406 C 42.09375 32.769531 42.070312 32.472656 42.054688 32.175781 C 42.011719 30.753906 41.984375 29.328125 41.972656 27.90625 C 41.976562 26.613281 42.023438 25.328125 42.101562 24.039062 C 42.109375 24.003906 42.121094 23.96875 42.140625 23.945312 Z M 42.140625 23.945312 "/>
</g>
<mask id="mask20">
  <g filter="url(#alpha)">
<rect x="0" y="0" width="50" height="50" style="fill:rgb(0%,0%,0%);fill-opacity:0.941176;stroke:none;"/>
  </g>
</mask>
<clipPath id="clip21">
  <rect width="50" height="50"/>
</clipPath>
<g id="surface66" clip-path="url(#clip21)">
<path style=" stroke:none;fill-rule:evenodd;fill:rgb(70.980392%,69.803922%,67.843137%);fill-opacity:1;" d="M 18.925781 33.234375 C 18.964844 33.316406 18.988281 33.402344 19 33.496094 C 18.953125 33.417969 18.925781 33.328125 18.925781 33.234375 Z M 18.925781 33.234375 "/>
</g>
<mask id="mask21">
  <g filter="url(#alpha)">
<rect x="0" y="0" width="50" height="50" style="fill:rgb(0%,0%,0%);fill-opacity:0.823529;stroke:none;"/>
  </g>
</mask>
<clipPath id="clip22">
  <rect width="50" height="50"/>
</clipPath>
<g id="surface69" clip-path="url(#clip22)">
<path style=" stroke:none;fill-rule:evenodd;fill:rgb(58.039216%,52.54902%,54.117647%);fill-opacity:1;" d="M 14.101562 34.097656 C 14.15625 34.453125 14.121094 34.796875 13.996094 35.128906 C 13.953125 35.226562 13.902344 35.316406 13.839844 35.394531 C 13.96875 34.96875 14.058594 34.535156 14.101562 34.097656 Z M 14.101562 34.097656 "/>
</g>
<mask id="mask22">
  <g filter="url(#alpha)">
<rect x="0" y="0" width="50" height="50" style="fill:rgb(0%,0%,0%);fill-opacity:0.678431;stroke:none;"/>
  </g>
</mask>
<clipPath id="clip23">
  <rect width="50" height="50"/>
</clipPath>
<g id="surface72" clip-path="url(#clip23)">
<path style=" stroke:none;fill-rule:evenodd;fill:rgb(88.235294%,86.666667%,83.921569%);fill-opacity:1;" d="M 19.191406 34.121094 C 19.425781 34.796875 19.671875 35.46875 19.933594 36.136719 C 19.839844 36.003906 19.765625 35.863281 19.707031 35.707031 C 19.519531 35.199219 19.347656 34.6875 19.191406 34.167969 C 19.191406 34.152344 19.191406 34.136719 19.191406 34.121094 Z M 19.191406 34.121094 "/>
</g>
<mask id="mask23">
  <g filter="url(#alpha)">
<rect x="0" y="0" width="50" height="50" style="fill:rgb(0%,0%,0%);fill-opacity:0.894118;stroke:none;"/>
  </g>
</mask>
<clipPath id="clip24">
  <rect width="50" height="50"/>
</clipPath>
<g id="surface75" clip-path="url(#clip24)">
<path style=" stroke:none;fill-rule:evenodd;fill:rgb(92.156863%,90.588235%,88.235294%);fill-opacity:1;" d="M 13.71875 35.632812 C 13.589844 36.136719 13.324219 36.546875 12.925781 36.871094 C 12.835938 36.929688 12.742188 36.972656 12.636719 37 C 12.644531 36.96875 12.65625 36.9375 12.675781 36.90625 C 12.816406 36.785156 12.953125 36.660156 13.082031 36.523438 C 13.300781 36.226562 13.511719 35.933594 13.71875 35.632812 Z M 13.71875 35.632812 "/>
</g>
<mask id="mask24">
  <g filter="url(#alpha)">
<rect x="0" y="0" width="50" height="50" style="fill:rgb(0%,0%,0%);fill-opacity:0.964706;stroke:none;"/>
  </g>
</mask>
<clipPath id="clip25">
  <rect width="50" height="50"/>
</clipPath>
<g id="surface78" clip-path="url(#clip25)">
<path style=" stroke:none;fill-rule:evenodd;fill:rgb(0.392157%,0.392157%,0.392157%);fill-opacity:1;" d="M 27.710938 48.140625 C 28.238281 47.589844 28.871094 47.410156 29.609375 47.601562 C 29.777344 47.707031 29.953125 47.804688 30.136719 47.886719 C 31.003906 47.988281 31.867188 48.105469 32.730469 48.246094 C 35.046875 48.550781 37.375 48.71875 39.714844 48.75 C 40.273438 48.707031 40.835938 48.660156 41.394531 48.609375 C 43.050781 48.585938 44.699219 48.46875 46.339844 48.246094 C 46.707031 48.1875 47.078125 48.125 47.445312 48.054688 C 47.542969 48.019531 47.613281 47.953125 47.648438 47.851562 C 47.765625 47.433594 47.816406 47.003906 47.804688 46.566406 C 47.800781 46.394531 47.792969 46.222656 47.78125 46.050781 C 47.785156 46.011719 47.777344 45.980469 47.753906 45.957031 C 47.753906 45.929688 47.753906 45.90625 47.753906 45.882812 C 47.761719 45.84375 47.753906 45.8125 47.730469 45.789062 C 47.730469 45.769531 47.730469 45.753906 47.730469 45.738281 C 47.738281 45.707031 47.730469 45.683594 47.707031 45.667969 C 47.707031 45.652344 47.707031 45.636719 47.707031 45.621094 C 47.710938 45.59375 47.703125 45.578125 47.683594 45.570312 C 47.613281 45.210938 47.46875 44.882812 47.25 44.585938 C 47.25 44.570312 47.242188 44.5625 47.226562 44.5625 C 47.125 44.289062 46.949219 44.078125 46.699219 43.925781 C 46.460938 43.945312 46.324219 43.835938 46.292969 43.601562 C 46.292969 43.429688 46.375 43.34375 46.542969 43.339844 C 46.613281 43.347656 46.679688 43.355469 46.746094 43.363281 C 46.695312 43.203125 46.582031 43.121094 46.410156 43.109375 C 45.964844 43.042969 45.519531 43.007812 45.066406 43.003906 C 43.089844 43.050781 41.113281 43.125 39.136719 43.230469 C 38.105469 43.246094 37.074219 43.242188 36.042969 43.21875 C 33.960938 43.160156 31.917969 43.417969 29.921875 44 C 29.6875 44.066406 29.464844 44.152344 29.25 44.25 C 29.167969 44.273438 29.089844 44.300781 29.007812 44.324219 C 28.933594 44.433594 28.828125 44.46875 28.695312 44.429688 C 28.359375 44.179688 28.066406 43.890625 27.808594 43.554688 C 27.800781 43.535156 27.789062 43.519531 27.773438 43.507812 C 27.753906 43.726562 27.757812 43.941406 27.785156 44.15625 C 27.777344 44.347656 27.785156 44.539062 27.808594 44.730469 C 28.089844 44.679688 28.1875 44.792969 28.109375 45.066406 C 28.089844 45.105469 28.0625 45.128906 28.023438 45.140625 C 27.953125 45.140625 27.878906 45.140625 27.808594 45.140625 C 27.800781 45.214844 27.808594 45.289062 27.832031 45.355469 C 27.902344 46.179688 27.9375 47.003906 27.941406 47.828125 C 27.847656 47.949219 27.734375 47.976562 27.59375 47.910156 C 27.546875 47.875 27.511719 47.832031 27.496094 47.78125 C 27.496094 47.753906 27.496094 47.730469 27.496094 47.707031 C 27.546875 46.933594 27.558594 46.15625 27.519531 45.378906 C 27.519531 45.292969 27.519531 45.203125 27.519531 45.113281 C 27.226562 45.105469 26.941406 45.113281 26.65625 45.140625 C 25.226562 45.1875 23.792969 45.199219 22.359375 45.175781 C 21.207031 45.136719 20.054688 45.085938 18.902344 45.019531 C 16.972656 44.835938 15.039062 44.757812 13.09375 44.792969 C 12.675781 44.808594 12.261719 44.832031 11.847656 44.863281 C 10.726562 44.980469 9.605469 45.085938 8.484375 45.175781 C 7.941406 45.207031 7.398438 45.214844 6.851562 45.199219 C 6.839844 45.246094 6.8125 45.285156 6.78125 45.320312 C 5.988281 45.566406 5.179688 45.75 4.355469 45.871094 C 4.976562 46.167969 5.59375 46.472656 6.203125 46.785156 C 6.265625 46.792969 6.320312 46.8125 6.371094 46.84375 C 6.394531 46.828125 6.417969 46.820312 6.445312 46.820312 C 7.285156 46.707031 8.125 46.597656 8.964844 46.496094 C 9.957031 46.40625 10.949219 46.371094 11.941406 46.398438 C 13.183594 46.4375 14.421875 46.476562 15.664062 46.519531 C 16.765625 46.53125 17.871094 46.535156 18.976562 46.53125 C 20.539062 46.59375 22.109375 46.589844 23.679688 46.519531 C 24.148438 46.496094 24.613281 46.453125 25.070312 46.386719 C 25.367188 46.371094 25.664062 46.359375 25.960938 46.363281 C 26.046875 46.359375 26.128906 46.367188 26.210938 46.386719 C 26.449219 46.445312 26.683594 46.5 26.921875 46.554688 C 26.929688 46.574219 26.945312 46.582031 26.96875 46.578125 C 27.324219 46.585938 27.445312 46.753906 27.328125 47.082031 C 27.28125 47.105469 27.234375 47.121094 27.183594 47.132812 C 26.859375 47.0625 26.539062 46.96875 26.222656 46.855469 C 26.058594 46.8125 25.890625 46.792969 25.71875 46.796875 C 24.984375 46.867188 24.25 46.929688 23.511719 46.976562 C 22.914062 47 22.320312 47.011719 21.722656 47.011719 C 19.742188 46.988281 17.761719 46.960938 15.78125 46.925781 C 14.183594 46.859375 12.582031 46.808594 10.980469 46.769531 C 10.277344 46.785156 9.574219 46.8125 8.871094 46.855469 C 8.132812 46.960938 7.390625 47.035156 6.648438 47.082031 C 6.539062 47.046875 6.445312 47.066406 6.371094 47.144531 C 6.265625 47.164062 6.164062 47.15625 6.0625 47.121094 C 5.457031 46.828125 4.863281 46.519531 4.285156 46.183594 C 4.03125 46.207031 3.953125 46.109375 4.042969 45.882812 C 3.972656 45.820312 3.957031 45.742188 3.996094 45.65625 C 4.832031 45.488281 5.65625 45.273438 6.46875 45.007812 C 7.121094 44.992188 7.777344 44.957031 8.4375 44.910156 C 9.308594 44.816406 10.183594 44.722656 11.054688 44.625 C 12.554688 44.476562 14.058594 44.425781 15.566406 44.480469 C 18.007812 44.625 20.445312 44.753906 22.886719 44.863281 C 24.425781 44.902344 25.960938 44.867188 27.496094 44.753906 C 27.492188 44.378906 27.507812 44 27.542969 43.628906 C 27.601562 43.480469 27.617188 43.328125 27.59375 43.171875 C 27.65625 43.136719 27.722656 43.101562 27.785156 43.0625 C 27.84375 43.046875 27.898438 43.054688 27.953125 43.085938 C 27.988281 43.160156 28.027344 43.238281 28.058594 43.316406 C 28.257812 43.511719 28.453125 43.707031 28.648438 43.902344 C 28.765625 43.976562 28.886719 44.046875 29.007812 44.105469 C 29.246094 43.9375 29.503906 43.796875 29.777344 43.6875 C 31.390625 43.117188 33.054688 42.820312 34.769531 42.800781 C 37.214844 42.839844 39.652344 42.769531 42.089844 42.582031 C 43.296875 42.527344 44.507812 42.503906 45.714844 42.511719 C 45.957031 42.527344 46.195312 42.550781 46.433594 42.582031 C 46.78125 42.605469 47.035156 42.769531 47.191406 43.074219 C 47.230469 43.28125 47.148438 43.40625 46.941406 43.445312 C 47.164062 43.578125 47.359375 43.742188 47.527344 43.9375 C 48.097656 44.757812 48.378906 45.664062 48.378906 46.664062 C 48.367188 47.054688 48.320312 47.441406 48.246094 47.828125 C 48.207031 48.070312 48.105469 48.28125 47.949219 48.464844 C 47.761719 48.570312 47.5625 48.636719 47.347656 48.65625 C 46.535156 48.761719 45.71875 48.851562 44.898438 48.917969 C 43.449219 49.011719 42.003906 49.097656 40.554688 49.183594 C 39.851562 49.199219 39.144531 49.199219 38.441406 49.183594 C 37.464844 49.128906 36.488281 49.058594 35.515625 48.96875 C 33.648438 48.796875 31.785156 48.621094 29.921875 48.441406 C 29.847656 48.414062 29.773438 48.382812 29.703125 48.34375 C 29.574219 48.230469 29.429688 48.132812 29.273438 48.054688 C 28.871094 47.988281 28.503906 48.070312 28.167969 48.308594 C 28.074219 48.566406 27.921875 48.609375 27.710938 48.429688 C 27.648438 48.332031 27.648438 48.234375 27.710938 48.140625 Z M 46.746094 43.363281 C 46.679688 43.355469 46.613281 43.347656 46.542969 43.339844 C 46.375 43.34375 46.292969 43.429688 46.292969 43.601562 C 46.324219 43.835938 46.460938 43.945312 46.699219 43.925781 C 46.949219 44.078125 47.125 44.289062 47.226562 44.5625 C 46.816406 44.277344 46.359375 44.097656 45.859375 44.023438 C 44.878906 43.875 43.890625 43.804688 42.894531 43.820312 C 39.644531 43.914062 36.390625 43.992188 33.136719 44.046875 C 31.839844 44.085938 30.542969 44.152344 29.25 44.25 C 29.464844 44.152344 29.6875 44.066406 29.921875 44 C 31.917969 43.417969 33.960938 43.160156 36.042969 43.21875 C 37.074219 43.242188 38.105469 43.246094 39.136719 43.230469 C 41.113281 43.125 43.089844 43.050781 45.066406 43.003906 C 45.519531 43.007812 45.964844 43.042969 46.410156 43.109375 C 46.582031 43.121094 46.695312 43.203125 46.746094 43.363281 Z M 18.902344 45.019531 C 15.039062 45.109375 11.175781 45.191406 7.308594 45.269531 C 6.949219 45.425781 6.597656 45.59375 6.253906 45.773438 C 6.589844 45.863281 6.925781 45.953125 7.261719 46.039062 C 6.984375 46.296875 6.710938 46.554688 6.445312 46.820312 C 6.417969 46.820312 6.394531 46.828125 6.371094 46.84375 C 6.320312 46.8125 6.265625 46.792969 6.203125 46.785156 C 5.59375 46.472656 4.976562 46.167969 4.355469 45.871094 C 5.179688 45.75 5.988281 45.566406 6.78125 45.320312 C 6.8125 45.285156 6.839844 45.246094 6.851562 45.199219 C 7.398438 45.214844 7.941406 45.207031 8.484375 45.175781 C 9.605469 45.085938 10.726562 44.980469 11.847656 44.863281 C 12.261719 44.832031 12.675781 44.808594 13.09375 44.792969 C 15.039062 44.757812 16.972656 44.835938 18.902344 45.019531 Z M 25.960938 46.363281 C 26.238281 46.316406 26.507812 46.34375 26.777344 46.449219 C 26.832031 46.476562 26.878906 46.515625 26.921875 46.554688 C 26.683594 46.5 26.449219 46.445312 26.210938 46.386719 C 26.128906 46.367188 26.046875 46.359375 25.960938 46.363281 Z M 25.070312 46.386719 C 24.613281 46.453125 24.148438 46.496094 23.679688 46.519531 C 22.109375 46.589844 20.539062 46.59375 18.976562 46.53125 C 21.007812 46.492188 23.039062 46.445312 25.070312 46.386719 Z M 25.070312 46.386719 "/>
</g>
<mask id="mask25">
  <g filter="url(#alpha)">
<rect x="0" y="0" width="50" height="50" style="fill:rgb(0%,0%,0%);fill-opacity:0.541176;stroke:none;"/>
  </g>
</mask>
<clipPath id="clip26">
  <rect width="50" height="50"/>
</clipPath>
<g id="surface81" clip-path="url(#clip26)">
<path style=" stroke:none;fill-rule:evenodd;fill:rgb(84.313725%,82.745098%,80.392157%);fill-opacity:1;" d="M 27.59375 43.171875 C 27.617188 43.328125 27.601562 43.480469 27.542969 43.628906 C 27.535156 43.46875 27.550781 43.316406 27.59375 43.171875 Z M 27.59375 43.171875 "/>
</g>
<mask id="mask26">
  <g filter="url(#alpha)">
<rect x="0" y="0" width="50" height="50" style="fill:rgb(0%,0%,0%);fill-opacity:0.996078;stroke:none;"/>
  </g>
</mask>
<clipPath id="clip27">
  <rect width="50" height="50"/>
</clipPath>
<g id="surface84" clip-path="url(#clip27)">
<path style=" stroke:none;fill-rule:evenodd;fill:rgb(94.509804%,92.941176%,90.196078%);fill-opacity:1;" d="M 27.808594 43.554688 C 28.066406 43.890625 28.359375 44.179688 28.695312 44.429688 C 28.828125 44.46875 28.933594 44.433594 29.007812 44.324219 C 29.089844 44.300781 29.167969 44.273438 29.25 44.25 C 30.542969 44.152344 31.839844 44.085938 33.136719 44.046875 C 36.390625 43.992188 39.644531 43.914062 42.894531 43.820312 C 43.890625 43.804688 44.878906 43.875 45.859375 44.023438 C 46.359375 44.097656 46.816406 44.277344 47.226562 44.5625 C 47.242188 44.5625 47.25 44.570312 47.25 44.585938 C 47.46875 44.882812 47.613281 45.210938 47.683594 45.570312 C 47.679688 45.59375 47.6875 45.609375 47.707031 45.621094 C 47.707031 45.636719 47.707031 45.652344 47.707031 45.667969 C 47.703125 45.699219 47.710938 45.722656 47.730469 45.738281 C 47.730469 45.753906 47.730469 45.769531 47.730469 45.789062 C 47.726562 45.824219 47.734375 45.859375 47.753906 45.882812 C 47.753906 45.90625 47.753906 45.929688 47.753906 45.957031 C 47.75 45.992188 47.757812 46.027344 47.78125 46.050781 C 47.792969 46.222656 47.800781 46.394531 47.804688 46.566406 C 47.816406 47.003906 47.765625 47.433594 47.648438 47.851562 C 47.613281 47.953125 47.542969 48.019531 47.445312 48.054688 C 47.078125 48.125 46.707031 48.1875 46.339844 48.246094 C 44.699219 48.46875 43.050781 48.585938 41.394531 48.609375 C 40.835938 48.660156 40.273438 48.707031 39.714844 48.75 C 37.375 48.71875 35.046875 48.550781 32.730469 48.246094 C 31.867188 48.105469 31.003906 47.988281 30.136719 47.886719 C 29.953125 47.804688 29.777344 47.707031 29.609375 47.601562 C 28.871094 47.410156 28.238281 47.589844 27.710938 48.140625 C 27.640625 48.128906 27.570312 48.105469 27.507812 48.066406 C 27.496094 47.972656 27.492188 47.875 27.496094 47.78125 C 27.511719 47.832031 27.546875 47.875 27.59375 47.910156 C 27.734375 47.976562 27.847656 47.949219 27.941406 47.828125 C 27.9375 47.003906 27.902344 46.179688 27.832031 45.355469 C 27.832031 45.292969 27.832031 45.226562 27.832031 45.164062 C 27.902344 45.171875 27.964844 45.164062 28.023438 45.140625 C 28.0625 45.128906 28.089844 45.105469 28.109375 45.066406 C 28.1875 44.792969 28.089844 44.679688 27.808594 44.730469 C 27.785156 44.539062 27.777344 44.347656 27.785156 44.15625 C 27.777344 43.949219 27.785156 43.75 27.808594 43.554688 Z M 27.808594 43.554688 "/>
</g>
<mask id="mask27">
  <g filter="url(#alpha)">
<rect x="0" y="0" width="50" height="50" style="fill:rgb(0%,0%,0%);fill-opacity:0.992157;stroke:none;"/>
  </g>
</mask>
<clipPath id="clip28">
  <rect width="50" height="50"/>
</clipPath>
<g id="surface87" clip-path="url(#clip28)">
<path style=" stroke:none;fill-rule:evenodd;fill:rgb(94.509804%,92.941176%,90.196078%);fill-opacity:1;" d="M 18.902344 45.019531 C 20.054688 45.085938 21.207031 45.136719 22.359375 45.175781 C 23.792969 45.199219 25.226562 45.1875 26.65625 45.140625 C 26.9375 45.140625 27.214844 45.140625 27.496094 45.140625 C 27.488281 45.222656 27.496094 45.304688 27.519531 45.378906 C 27.558594 46.15625 27.546875 46.933594 27.496094 47.707031 C 27.46875 47.492188 27.414062 47.285156 27.328125 47.082031 C 27.445312 46.753906 27.324219 46.585938 26.96875 46.578125 C 26.960938 46.558594 26.945312 46.550781 26.921875 46.554688 C 26.878906 46.515625 26.832031 46.476562 26.777344 46.449219 C 26.507812 46.34375 26.238281 46.316406 25.960938 46.363281 C 25.664062 46.359375 25.367188 46.371094 25.070312 46.386719 C 23.039062 46.445312 21.007812 46.492188 18.976562 46.53125 C 17.871094 46.535156 16.765625 46.53125 15.664062 46.519531 C 14.421875 46.476562 13.183594 46.4375 11.941406 46.398438 C 10.949219 46.371094 9.957031 46.40625 8.964844 46.496094 C 8.125 46.597656 7.285156 46.707031 6.445312 46.820312 C 6.710938 46.554688 6.984375 46.296875 7.261719 46.039062 C 6.925781 45.953125 6.589844 45.863281 6.253906 45.773438 C 6.597656 45.59375 6.949219 45.425781 7.308594 45.269531 C 11.175781 45.191406 15.039062 45.109375 18.902344 45.019531 Z M 25.960938 46.363281 C 26.238281 46.316406 26.507812 46.34375 26.777344 46.449219 C 26.832031 46.476562 26.878906 46.515625 26.921875 46.554688 C 26.683594 46.5 26.449219 46.445312 26.210938 46.386719 C 26.128906 46.367188 26.046875 46.359375 25.960938 46.363281 Z M 25.070312 46.386719 C 24.613281 46.453125 24.148438 46.496094 23.679688 46.519531 C 22.109375 46.589844 20.539062 46.59375 18.976562 46.53125 C 21.007812 46.492188 23.039062 46.445312 25.070312 46.386719 Z M 25.070312 46.386719 "/>
</g>
</defs>
<g id="surface1">
<use xlink:href="#surface6" mask="url(#mask0)"/>
<use xlink:href="#surface9" mask="url(#mask1)"/>
<path style=" stroke:none;fill-rule:evenodd;fill:rgb(62.745098%,56.862745%,58.823529%);fill-opacity:1;" d="M 9.179688 3.132812 C 9.183594 3.121094 9.179688 3.113281 9.167969 3.109375 C 9.0625 3.46875 8.957031 3.828125 8.855469 4.1875 C 8.796875 3.390625 8.726562 2.601562 8.652344 1.8125 C 8.925781 1.585938 9.230469 1.425781 9.566406 1.332031 C 9.445312 1.9375 9.316406 2.535156 9.179688 3.132812 Z M 9.179688 3.132812 "/>
<path style=" stroke:none;fill-rule:evenodd;fill:rgb(94.117647%,92.54902%,89.803922%);fill-opacity:1;" d="M 13.238281 1.644531 C 13.660156 2 14.019531 2.410156 14.316406 2.867188 C 14.3125 2.890625 14.320312 2.910156 14.34375 2.917969 C 14.34375 2.925781 14.34375 2.933594 14.34375 2.941406 C 14.359375 2.941406 14.367188 2.949219 14.367188 2.964844 C 14.445312 3.117188 14.507812 3.277344 14.546875 3.445312 C 14.765625 4.640625 14.433594 5.652344 13.550781 6.480469 C 13.285156 6.636719 13.03125 6.804688 12.78125 6.984375 C 12.675781 7.046875 12.5625 7.09375 12.445312 7.128906 C 12.296875 7.277344 12.289062 7.433594 12.421875 7.597656 C 12.238281 7.742188 12.027344 7.792969 11.796875 7.742188 C 11.851562 7.722656 11.894531 7.691406 11.929688 7.644531 C 11.996094 7.5 11.949219 7.398438 11.796875 7.34375 C 11.535156 7.316406 11.269531 7.300781 11.003906 7.296875 C 10.453125 7.152344 9.910156 6.984375 9.375 6.792969 C 9.175781 6.703125 8.984375 6.597656 8.796875 6.480469 C 7.945312 5.875 7.527344 5.046875 7.550781 3.996094 C 7.519531 3.058594 7.886719 2.332031 8.652344 1.8125 C 8.726562 2.601562 8.796875 3.390625 8.855469 4.1875 C 8.957031 3.828125 9.0625 3.46875 9.167969 3.109375 C 9.179688 3.113281 9.183594 3.121094 9.179688 3.132812 C 9.15625 3.46875 9.085938 3.796875 8.976562 4.117188 C 8.945312 4.261719 8.980469 4.386719 9.085938 4.488281 C 9.292969 4.585938 9.484375 4.703125 9.660156 4.847656 C 10.636719 5.335938 11.628906 5.367188 12.636719 4.945312 C 12.675781 4.917969 12.710938 4.890625 12.746094 4.859375 C 12.828125 4.683594 12.785156 4.558594 12.613281 4.476562 C 12.605469 4.457031 12.597656 4.4375 12.589844 4.417969 C 12.621094 4.269531 12.648438 4.121094 12.675781 3.972656 C 12.78125 3.65625 12.875 3.335938 12.960938 3.011719 C 13.050781 2.550781 13.140625 2.097656 13.238281 1.644531 Z M 13.238281 1.644531 "/>
<use xlink:href="#surface12" mask="url(#mask2)"/>
<use xlink:href="#surface15" mask="url(#mask3)"/>
<path style=" stroke:none;fill-rule:evenodd;fill:rgb(94.509804%,92.941176%,90.196078%);fill-opacity:1;" d="M 22.191406 2.269531 C 22.351562 2.285156 22.511719 2.300781 22.671875 2.316406 C 22.691406 2.742188 22.707031 3.164062 22.71875 3.589844 C 22.710938 3.648438 22.71875 3.707031 22.742188 3.757812 C 22.742188 3.804688 22.742188 3.851562 22.742188 3.902344 C 22.746094 4.4375 22.753906 4.972656 22.769531 5.507812 C 22.335938 5.550781 21.996094 5.75 21.746094 6.109375 C 21.476562 6.609375 21.371094 7.144531 21.433594 7.71875 C 21.585938 8.050781 21.761719 8.371094 21.964844 8.675781 C 22.167969 8.878906 22.40625 9.035156 22.671875 9.144531 C 22.699219 9.171875 22.722656 9.199219 22.742188 9.230469 C 22.714844 9.589844 22.710938 9.949219 22.730469 10.308594 C 22.726562 10.441406 22.757812 10.558594 22.828125 10.667969 C 22.984375 10.75 23.140625 10.835938 23.296875 10.921875 C 23.414062 11.027344 23.535156 11.128906 23.65625 11.234375 C 24.355469 11.933594 25.019531 12.660156 25.648438 13.417969 C 25.492188 13.457031 25.367188 13.539062 25.277344 13.671875 C 25.1875 13.859375 25.089844 14.042969 24.988281 14.222656 C 24.765625 14.5 24.585938 14.804688 24.449219 15.132812 C 24.34375 15.117188 24.25 15.082031 24.160156 15.027344 C 23.558594 14.589844 22.953125 14.167969 22.335938 13.753906 C 22.226562 13.664062 22.121094 13.574219 22.023438 13.476562 C 21.5 12.9375 21.105469 12.3125 20.835938 11.605469 C 20.398438 10.378906 20.199219 9.113281 20.234375 7.8125 C 20.257812 7.535156 20.304688 7.265625 20.378906 6.996094 C 20.824219 5.425781 21.285156 3.855469 21.757812 2.292969 C 21.902344 2.269531 22.046875 2.261719 22.191406 2.269531 Z M 22.191406 2.269531 "/>
<path style=" stroke:none;fill-rule:evenodd;fill:rgb(94.117647%,92.941176%,90.196078%);fill-opacity:1;" d="M 23.558594 2.316406 C 23.589844 2.332031 23.621094 2.34375 23.65625 2.351562 C 23.984375 2.371094 24.3125 2.359375 24.640625 2.316406 C 24.769531 2.332031 24.894531 2.363281 25.011719 2.414062 C 25.324219 3.1875 25.652344 3.953125 25.996094 4.714844 C 26.253906 5.367188 26.429688 6.039062 26.523438 6.734375 C 26.59375 7.152344 26.636719 7.570312 26.65625 7.992188 C 26.644531 8.394531 26.601562 8.789062 26.523438 9.179688 C 26.328125 10.148438 26.058594 11.09375 25.707031 12.015625 C 25.65625 12.175781 25.570312 12.320312 25.457031 12.445312 C 25.433594 12.433594 25.40625 12.421875 25.382812 12.410156 C 25.042969 12.085938 24.71875 11.746094 24.410156 11.390625 C 24.21875 11.203125 24.019531 11.027344 23.8125 10.863281 C 23.824219 10.488281 23.84375 10.117188 23.871094 9.746094 C 23.882812 9.539062 23.859375 9.339844 23.800781 9.144531 C 24.300781 8.753906 24.566406 8.238281 24.59375 7.597656 C 24.578125 7 24.40625 6.457031 24.074219 5.964844 C 23.910156 5.757812 23.699219 5.625 23.441406 5.570312 C 23.453125 5.558594 23.464844 5.542969 23.476562 5.53125 C 23.5 5.054688 23.511719 4.574219 23.511719 4.09375 C 23.527344 3.5 23.542969 2.910156 23.558594 2.316406 Z M 23.558594 2.316406 "/>
<path style=" stroke:none;fill-rule:evenodd;fill:rgb(51.764706%,50.980392%,49.411765%);fill-opacity:1;" d="M 23.558594 2.316406 C 23.542969 2.910156 23.527344 3.5 23.511719 4.09375 C 23.503906 3.492188 23.511719 2.890625 23.535156 2.292969 C 23.550781 2.296875 23.558594 2.304688 23.558594 2.316406 Z M 23.558594 2.316406 "/>
<path style=" stroke:none;fill-rule:evenodd;fill:rgb(62.352941%,56.470588%,58.431373%);fill-opacity:1;" d="M 21.757812 2.292969 C 21.285156 3.855469 20.824219 5.425781 20.378906 6.996094 C 20.304688 7.265625 20.257812 7.535156 20.234375 7.8125 C 20.199219 9.113281 20.398438 10.378906 20.835938 11.605469 C 21.105469 12.3125 21.5 12.9375 22.023438 13.476562 C 21.808594 13.308594 21.613281 13.117188 21.433594 12.902344 C 21.238281 12.609375 21.046875 12.3125 20.859375 12.015625 C 20.425781 11.324219 20.097656 10.589844 19.875 9.804688 C 19.78125 9.476562 19.730469 9.140625 19.71875 8.796875 C 19.773438 8.160156 19.855469 7.53125 19.972656 6.902344 C 20.117188 6.050781 20.359375 5.226562 20.691406 4.429688 C 20.9375 3.996094 21.1875 3.566406 21.433594 3.132812 C 21.53125 2.898438 21.601562 2.660156 21.652344 2.414062 C 21.667969 2.351562 21.703125 2.308594 21.757812 2.292969 Z M 21.757812 2.292969 "/>
<use xlink:href="#surface18" mask="url(#mask4)"/>
<use xlink:href="#surface21" mask="url(#mask5)"/>
<path style=" stroke:none;fill-rule:evenodd;fill:rgb(62.352941%,56.862745%,58.431373%);fill-opacity:1;" d="M 33.738281 6.636719 C 33.734375 6.660156 33.742188 6.679688 33.761719 6.695312 C 34.023438 6.871094 34.28125 7.054688 34.53125 7.25 C 38.234375 7.433594 41.9375 7.605469 45.644531 7.765625 C 45.691406 7.765625 45.738281 7.765625 45.789062 7.765625 C 45.808594 7.816406 45.808594 7.875 45.789062 7.933594 C 45.507812 7.902344 45.226562 7.867188 44.945312 7.824219 C 44.21875 7.828125 43.492188 7.828125 42.761719 7.824219 C 41.714844 7.761719 40.664062 7.679688 39.617188 7.585938 C 38.378906 7.535156 37.136719 7.542969 35.898438 7.609375 C 35.261719 7.667969 34.628906 7.753906 34 7.859375 C 33.9375 7.851562 33.875 7.84375 33.808594 7.835938 C 33.796875 7.804688 33.78125 7.773438 33.773438 7.742188 C 33.753906 7.40625 33.710938 7.074219 33.640625 6.746094 C 33.640625 6.675781 33.671875 6.640625 33.738281 6.636719 Z M 33.738281 6.636719 "/>
<use xlink:href="#surface24" mask="url(#mask6)"/>
<use xlink:href="#surface27" mask="url(#mask7)"/>
<path style=" stroke:none;fill-rule:evenodd;fill:rgb(62.745098%,56.862745%,58.823529%);fill-opacity:1;" d="M 12.421875 7.597656 C 12.488281 7.65625 12.570312 7.679688 12.660156 7.667969 C 12.59375 7.722656 12.578125 7.785156 12.613281 7.859375 C 12.375 8.429688 12.210938 9.023438 12.121094 9.636719 C 11.996094 10.914062 11.933594 12.195312 11.941406 13.476562 C 11.910156 13.785156 11.886719 14.097656 11.871094 14.414062 C 11.871094 14.460938 11.878906 14.5 11.894531 14.535156 C 11.78125 15.019531 11.691406 15.507812 11.617188 16 C 11.617188 16.695312 11.617188 17.390625 11.617188 18.085938 C 11.5625 18.476562 11.535156 18.867188 11.535156 19.261719 C 11.546875 19.839844 11.558594 20.414062 11.570312 20.992188 C 11.582031 21.214844 11.605469 21.441406 11.640625 21.664062 C 11.644531 21.863281 11.648438 22.0625 11.652344 22.261719 C 11.613281 22.996094 11.589844 23.726562 11.582031 24.460938 C 11.589844 25.167969 11.601562 25.875 11.617188 26.585938 C 11.664062 27.0625 11.6875 27.542969 11.691406 28.023438 C 11.742188 28.203125 11.777344 28.390625 11.785156 28.578125 C 11.824219 29.089844 11.855469 29.601562 11.882812 30.113281 C 11.90625 30.234375 11.9375 30.355469 11.976562 30.472656 C 12.03125 30.574219 12.117188 30.628906 12.230469 30.640625 C 12.230469 30.648438 12.230469 30.65625 12.230469 30.664062 C 11.96875 30.59375 11.703125 30.5625 11.4375 30.570312 C 11.382812 30.570312 11.324219 30.570312 11.269531 30.570312 C 11.230469 30.019531 11.1875 29.472656 11.148438 28.925781 C 11.324219 24.234375 11.433594 19.539062 11.484375 14.847656 C 11.5 13.644531 11.46875 12.445312 11.402344 11.246094 C 11.210938 10.113281 11.128906 8.980469 11.148438 7.835938 C 11.375 7.859375 11.59375 7.828125 11.796875 7.742188 C 12.027344 7.792969 12.238281 7.742188 12.421875 7.597656 Z M 12.421875 7.597656 "/>
<path style=" stroke:none;fill-rule:evenodd;fill:rgb(85.098039%,83.529412%,81.176471%);fill-opacity:1;" d="M 12.660156 7.667969 C 12.675781 7.675781 12.683594 7.6875 12.6875 7.707031 C 12.664062 7.757812 12.640625 7.8125 12.613281 7.859375 C 12.578125 7.785156 12.59375 7.722656 12.660156 7.667969 Z M 12.660156 7.667969 "/>
<use xlink:href="#surface30" mask="url(#mask8)"/>
<use xlink:href="#surface33" mask="url(#mask9)"/>
<path style=" stroke:none;fill-rule:evenodd;fill:rgb(94.509804%,92.941176%,90.196078%);fill-opacity:1;" d="M 39.570312 8.054688 C 40.339844 8.113281 41.109375 8.183594 41.875 8.269531 C 41.738281 9.113281 41.71875 9.960938 41.816406 10.8125 C 41.832031 11.0625 41.832031 11.308594 41.816406 11.558594 C 41.722656 12.53125 41.65625 13.507812 41.621094 14.484375 C 41.640625 17.191406 41.664062 19.894531 41.695312 22.601562 C 41.628906 23.839844 41.558594 25.082031 41.480469 26.320312 C 41.460938 28.066406 41.460938 29.808594 41.480469 31.554688 C 41.484375 32.191406 41.539062 32.820312 41.648438 33.449219 C 41.757812 33.953125 41.859375 34.457031 41.945312 34.960938 C 41.945312 34.984375 41.945312 35.007812 41.945312 35.035156 C 41.914062 35.035156 41.882812 35.035156 41.851562 35.035156 C 41.347656 35.003906 40.84375 34.972656 40.339844 34.9375 C 40.214844 34.914062 40.085938 34.90625 39.953125 34.914062 C 39.75 26 39.53125 17.085938 39.304688 8.171875 C 39.308594 8.140625 39.316406 8.109375 39.332031 8.078125 C 39.410156 8.054688 39.488281 8.046875 39.570312 8.054688 Z M 39.570312 8.054688 "/>
<path style=" stroke:none;fill-rule:evenodd;fill:rgb(58.431373%,57.647059%,55.686275%);fill-opacity:1;" d="M 34.3125 8.101562 C 34.1875 8.109375 34.066406 8.132812 33.953125 8.171875 C 33.933594 8.15625 33.921875 8.132812 33.929688 8.101562 C 34.058594 8.101562 34.1875 8.101562 34.3125 8.101562 Z M 34.3125 8.101562 "/>
<use xlink:href="#surface36" mask="url(#mask10)"/>
<path style=" stroke:none;fill-rule:evenodd;fill:rgb(1.960784%,1.960784%,1.568627%);fill-opacity:1;" d="M 22.984375 12.15625 C 23.558594 12.160156 23.902344 12.441406 24.015625 13 C 23.996094 13.273438 23.859375 13.46875 23.609375 13.585938 C 23.300781 13.71875 23.011719 13.6875 22.742188 13.488281 C 22.691406 13.429688 22.644531 13.359375 22.613281 13.285156 C 22.585938 13.132812 22.5625 12.980469 22.539062 12.828125 C 22.488281 12.625 22.539062 12.453125 22.695312 12.3125 C 22.789062 12.253906 22.886719 12.203125 22.984375 12.15625 Z M 22.984375 12.15625 "/>
<path style=" stroke:none;fill-rule:evenodd;fill:rgb(94.117647%,92.54902%,90.196078%);fill-opacity:1;" d="M 20.535156 12.351562 C 20.730469 12.679688 20.941406 13 21.171875 13.308594 C 21.445312 13.582031 21.730469 13.835938 22.023438 14.078125 C 19.914062 16.347656 18.53125 19.011719 17.882812 22.070312 C 17.683594 23.128906 17.597656 24.199219 17.628906 25.277344 C 17.628906 27.21875 17.703125 29.160156 17.859375 31.097656 C 17.957031 32.117188 18.117188 33.125 18.339844 34.121094 C 18.519531 34.828125 18.800781 35.492188 19.179688 36.113281 C 19.414062 36.523438 19.675781 36.914062 19.960938 37.289062 C 19.902344 37.363281 19.839844 37.429688 19.765625 37.492188 C 19.46875 37.253906 19.210938 36.96875 18.988281 36.640625 C 18.613281 35.699219 18.222656 34.761719 17.8125 33.832031 C 17.503906 33.015625 17.214844 32.191406 16.945312 31.359375 C 16.78125 30.707031 16.671875 30.042969 16.609375 29.367188 C 16.59375 28.390625 16.542969 27.414062 16.464844 26.441406 C 16.449219 25.40625 16.449219 24.375 16.464844 23.34375 C 16.480469 23.101562 16.503906 22.863281 16.539062 22.625 C 16.707031 21.773438 16.882812 20.925781 17.066406 20.078125 C 17.386719 18.859375 17.746094 17.652344 18.148438 16.453125 C 18.292969 16.035156 18.453125 15.617188 18.628906 15.207031 C 18.972656 14.390625 19.449219 13.660156 20.054688 13.023438 C 20.082031 12.960938 20.074219 12.90625 20.03125 12.855469 C 20.191406 12.679688 20.359375 12.511719 20.535156 12.351562 Z M 20.535156 12.351562 "/>
<path style=" stroke:none;fill-rule:evenodd;fill:rgb(92.941176%,91.372549%,88.627451%);fill-opacity:1;" d="M 23.105469 12.613281 C 23.386719 12.605469 23.5625 12.738281 23.632812 13.011719 C 23.609375 13.160156 23.519531 13.25 23.367188 13.273438 C 23.191406 13.316406 23.035156 13.277344 22.898438 13.167969 C 22.851562 13.089844 22.835938 13.011719 22.851562 12.925781 C 22.9375 12.820312 23.019531 12.714844 23.105469 12.613281 Z M 23.105469 12.613281 "/>
<use xlink:href="#surface39" mask="url(#mask11)"/>
<path style=" stroke:none;fill-rule:evenodd;fill:rgb(77.647059%,75.294118%,74.117647%);fill-opacity:1;" d="M 11.941406 13.476562 C 11.953125 13.832031 11.9375 14.183594 11.894531 14.535156 C 11.878906 14.5 11.871094 14.460938 11.871094 14.414062 C 11.886719 14.097656 11.910156 13.785156 11.941406 13.476562 Z M 11.941406 13.476562 "/>
<path style=" stroke:none;fill-rule:evenodd;fill:rgb(62.745098%,56.862745%,58.823529%);fill-opacity:1;" d="M 22.023438 14.078125 C 22.289062 14.253906 22.554688 14.433594 22.816406 14.617188 C 22.753906 14.636719 22.710938 14.671875 22.683594 14.726562 C 22.617188 15.023438 22.507812 15.304688 22.347656 15.566406 C 22.105469 15.898438 21.855469 16.226562 21.601562 16.550781 C 21.453125 16.777344 21.308594 17.011719 21.171875 17.246094 C 20.84375 17.890625 20.523438 18.539062 20.210938 19.191406 C 19.777344 20.207031 19.410156 21.246094 19.105469 22.3125 C 18.898438 23.140625 18.761719 23.980469 18.699219 24.832031 C 18.628906 25.742188 18.550781 26.644531 18.472656 27.542969 C 18.472656 27.519531 18.46875 27.496094 18.457031 27.472656 C 18.269531 28.367188 18.1875 29.269531 18.21875 30.183594 C 18.234375 30.480469 18.257812 30.777344 18.289062 31.074219 C 18.296875 31.109375 18.308594 31.140625 18.328125 31.167969 C 18.3125 31.886719 18.371094 32.601562 18.507812 33.304688 C 18.710938 34.046875 18.9375 34.785156 19.179688 35.515625 C 19.382812 36.085938 19.652344 36.625 19.996094 37.121094 C 20.011719 37.171875 20.011719 37.21875 19.996094 37.265625 C 19.984375 37.28125 19.972656 37.289062 19.960938 37.289062 C 19.675781 36.914062 19.414062 36.523438 19.179688 36.113281 C 18.800781 35.492188 18.519531 34.828125 18.339844 34.121094 C 18.117188 33.125 17.957031 32.117188 17.859375 31.097656 C 17.703125 29.160156 17.628906 27.21875 17.628906 25.277344 C 17.597656 24.199219 17.683594 23.128906 17.882812 22.070312 C 18.53125 19.011719 19.914062 16.347656 22.023438 14.078125 Z M 22.023438 14.078125 "/>
<use xlink:href="#surface42" mask="url(#mask12)"/>
<use xlink:href="#surface45" mask="url(#mask13)"/>
<path style=" stroke:none;fill-rule:evenodd;fill:rgb(37.254902%,36.862745%,35.686275%);fill-opacity:1;" d="M 24.59375 15.542969 C 24.511719 15.558594 24.433594 15.574219 24.351562 15.589844 C 24.339844 15.589844 24.332031 15.582031 24.328125 15.566406 C 24.414062 15.542969 24.503906 15.535156 24.59375 15.542969 Z M 24.59375 15.542969 "/>
<use xlink:href="#surface48" mask="url(#mask14)"/>
<use xlink:href="#surface51" mask="url(#mask15)"/>
<use xlink:href="#surface54" mask="url(#mask16)"/>
<use xlink:href="#surface57" mask="url(#mask17)"/>
<use xlink:href="#surface60" mask="url(#mask18)"/>
<use xlink:href="#surface63" mask="url(#mask19)"/>
<path style=" stroke:none;fill-rule:evenodd;fill:rgb(89.411765%,87.843137%,85.490196%);fill-opacity:1;" d="M 18.472656 27.542969 C 18.425781 28.160156 18.382812 28.777344 18.339844 29.394531 C 18.328125 29.984375 18.324219 30.578125 18.328125 31.167969 C 18.308594 31.140625 18.296875 31.109375 18.289062 31.074219 C 18.257812 30.777344 18.234375 30.480469 18.21875 30.183594 C 18.1875 29.269531 18.269531 28.367188 18.457031 27.472656 C 18.46875 27.496094 18.472656 27.519531 18.472656 27.542969 Z M 18.472656 27.542969 "/>
<path style=" stroke:none;fill-rule:evenodd;fill:rgb(62.745098%,56.862745%,58.823529%);fill-opacity:1;" d="M 12.015625 30.882812 C 12.179688 30.941406 12.332031 31.023438 12.46875 31.132812 C 12.664062 31.339844 12.847656 31.550781 13.023438 31.769531 C 12.996094 31.777344 12.992188 31.792969 13.011719 31.816406 C 13.195312 32.085938 13.363281 32.367188 13.515625 32.65625 C 13.523438 32.644531 13.53125 32.628906 13.527344 32.609375 C 13.574219 32.730469 13.613281 32.859375 13.632812 32.992188 C 13.671875 33.386719 13.679688 33.777344 13.65625 34.167969 C 13.640625 34.566406 13.546875 34.941406 13.371094 35.296875 C 13.203125 35.578125 13.015625 35.84375 12.804688 36.089844 C 12.890625 35.894531 12.964844 35.691406 13.035156 35.488281 C 13.234375 34.855469 13.292969 34.207031 13.203125 33.546875 C 13.097656 32.980469 12.929688 32.4375 12.699219 31.914062 C 12.53125 31.527344 12.300781 31.183594 12.015625 30.882812 Z M 12.015625 30.882812 "/>
<path style=" stroke:none;fill-rule:evenodd;fill:rgb(88.235294%,86.666667%,84.313725%);fill-opacity:1;" d="M 13.023438 31.769531 C 13.269531 32 13.4375 32.28125 13.527344 32.609375 C 13.53125 32.628906 13.523438 32.644531 13.515625 32.65625 C 13.363281 32.367188 13.195312 32.085938 13.011719 31.816406 C 12.992188 31.792969 12.996094 31.777344 13.023438 31.769531 Z M 13.023438 31.769531 "/>
<use xlink:href="#surface66" mask="url(#mask20)"/>
<path style=" stroke:none;fill-rule:evenodd;fill:rgb(69.411765%,68.627451%,66.27451%);fill-opacity:1;" d="M 19 33.496094 C 19.035156 33.546875 19.050781 33.601562 19.046875 33.664062 C 19.007812 33.617188 18.992188 33.5625 19 33.496094 Z M 19 33.496094 "/>
<path style=" stroke:none;fill-rule:evenodd;fill:rgb(63.921569%,62.745098%,60.784314%);fill-opacity:1;" d="M 19.046875 33.664062 C 19.105469 33.8125 19.152344 33.964844 19.191406 34.121094 C 19.191406 34.136719 19.191406 34.152344 19.191406 34.167969 C 19.125 34.007812 19.078125 33.839844 19.046875 33.664062 Z M 19.046875 33.664062 "/>
<use xlink:href="#surface69" mask="url(#mask21)"/>
<use xlink:href="#surface72" mask="url(#mask22)"/>
<path style=" stroke:none;fill-rule:evenodd;fill:rgb(42.745098%,42.352941%,41.176471%);fill-opacity:1;" d="M 41.945312 34.960938 C 41.96875 34.988281 41.976562 35.019531 41.972656 35.058594 C 41.925781 35.0625 41.886719 35.054688 41.851562 35.035156 C 41.882812 35.035156 41.914062 35.035156 41.945312 35.035156 C 41.945312 35.007812 41.945312 34.984375 41.945312 34.960938 Z M 41.945312 34.960938 "/>
<use xlink:href="#surface75" mask="url(#mask23)"/>
<use xlink:href="#surface78" mask="url(#mask24)"/>
<use xlink:href="#surface81" mask="url(#mask25)"/>
<use xlink:href="#surface84" mask="url(#mask26)"/>
<path style=" stroke:none;fill-rule:evenodd;fill:rgb(34.901961%,34.509804%,33.333333%);fill-opacity:1;" d="M 27.808594 43.554688 C 27.785156 43.75 27.777344 43.949219 27.785156 44.15625 C 27.757812 43.941406 27.753906 43.726562 27.773438 43.507812 C 27.789062 43.519531 27.800781 43.535156 27.808594 43.554688 Z M 27.808594 43.554688 "/>
<use xlink:href="#surface87" mask="url(#mask27)"/>
<path style=" stroke:none;fill-rule:evenodd;fill:rgb(67.058824%,66.27451%,64.313725%);fill-opacity:1;" d="M 26.65625 45.140625 C 26.941406 45.113281 27.226562 45.105469 27.519531 45.113281 C 27.519531 45.203125 27.519531 45.292969 27.519531 45.378906 C 27.496094 45.304688 27.488281 45.222656 27.496094 45.140625 C 27.214844 45.140625 26.9375 45.140625 26.65625 45.140625 Z M 26.65625 45.140625 "/>
<path style=" stroke:none;fill-rule:evenodd;fill:rgb(49.803922%,49.019608%,47.45098%);fill-opacity:1;" d="M 28.023438 45.140625 C 27.964844 45.164062 27.902344 45.171875 27.832031 45.164062 C 27.832031 45.226562 27.832031 45.292969 27.832031 45.355469 C 27.808594 45.289062 27.800781 45.214844 27.808594 45.140625 C 27.878906 45.140625 27.953125 45.140625 28.023438 45.140625 Z M 28.023438 45.140625 "/>
</g>
</svg>
