<?xml version="1.0" encoding="UTF-8"?>
<svg xmlns="http://www.w3.org/2000/svg" xmlns:xlink="http://www.w3.org/1999/xlink" width="50pt" height="50pt" viewBox="0 0 50 50" version="1.1">
<defs>
<filter id="alpha" filterUnits="objectBoundingBox" x="0%" y="0%" width="100%" height="100%">
  <feColorMatrix type="matrix" in="SourceGraphic" values="0 0 0 0 1 0 0 0 0 1 0 0 0 0 1 0 0 0 1 0"/>
</filter>
<mask id="mask0">
  <g filter="url(#alpha)">
<rect x="0" y="0" width="50" height="50" style="fill:rgb(0%,0%,0%);fill-opacity:0.992157;stroke:none;"/>
  </g>
</mask>
<clipPath id="clip1">
  <rect width="50" height="50"/>
</clipPath>
<g id="surface6" clip-path="url(#clip1)">
<path style=" stroke:none;fill-rule:evenodd;fill:rgb(0%,0%,0%);fill-opacity:1;" d="M 11.871094 48.882812 C 11.34375 48.773438 10.8125 48.652344 10.285156 48.523438 C 9.597656 48.390625 8.980469 48.105469 8.4375 47.671875 C 8.035156 47.246094 7.746094 46.753906 7.5625 46.195312 C 7.253906 45.105469 7.007812 44 6.816406 42.882812 C 6.386719 40.550781 6.179688 38.199219 6.191406 35.824219 C 6.210938 35.480469 6.234375 35.136719 6.265625 34.792969 C 6.410156 33.503906 6.566406 32.214844 6.734375 30.929688 C 6.847656 29.855469 6.890625 28.773438 6.863281 27.6875 C 6.863281 27.355469 6.84375 27.027344 6.804688 26.703125 C 6.683594 24.871094 6.5625 23.039062 6.433594 21.207031 C 6.390625 20.792969 6.351562 20.375 6.3125 19.960938 C 6.273438 19.488281 6.308594 19.027344 6.410156 18.566406 C 6.625 17.953125 7.035156 17.523438 7.644531 17.28125 C 8.191406 17.054688 8.75 16.871094 9.324219 16.730469 C 10.320312 16.453125 11.328125 16.242188 12.351562 16.09375 C 12.761719 16.074219 13.175781 16.058594 13.585938 16.046875 C 14.144531 16.066406 14.699219 16.097656 15.253906 16.144531 C 15.320312 16.136719 15.382812 16.132812 15.445312 16.128906 C 15.5 16.078125 15.550781 16.027344 15.601562 15.972656 C 15.59375 15.246094 15.59375 14.519531 15.601562 13.789062 C 15.644531 13.132812 15.8125 12.507812 16.105469 11.917969 C 16.894531 10.4375 17.953125 9.1875 19.285156 8.160156 C 19.886719 7.726562 20.535156 7.378906 21.230469 7.117188 C 22.578125 6.625 23.90625 6.675781 25.214844 7.273438 C 26.609375 7.945312 27.730469 8.925781 28.589844 10.214844 C 28.722656 10.46875 28.835938 10.730469 28.925781 11.003906 C 29.007812 11.355469 29.078125 11.707031 29.140625 12.0625 C 29.292969 13.070312 29.445312 14.078125 29.597656 15.085938 C 29.644531 15.558594 29.664062 16.03125 29.65625 16.503906 C 30.871094 16.46875 32.078125 16.398438 33.28125 16.285156 C 33.9375 16.21875 34.59375 16.167969 35.25 16.144531 C 34.980469 14.859375 34.664062 13.585938 34.300781 12.324219 C 33.417969 9.460938 31.925781 6.976562 29.824219 4.871094 C 26.449219 1.59375 22.707031 1.113281 18.589844 3.433594 C 16.605469 4.636719 15.0625 6.257812 13.957031 8.292969 C 13.941406 8.292969 13.933594 8.300781 13.933594 8.316406 C 13.933594 8.324219 13.933594 8.332031 13.933594 8.339844 C 13.917969 8.339844 13.910156 8.347656 13.910156 8.367188 C 13.910156 8.375 13.910156 8.382812 13.910156 8.390625 C 13.890625 8.398438 13.882812 8.414062 13.886719 8.4375 C 13.867188 8.445312 13.859375 8.460938 13.863281 8.484375 C 13.84375 8.492188 13.835938 8.507812 13.839844 8.535156 C 12.761719 10.53125 12.148438 12.667969 12 14.941406 C 11.980469 15.335938 11.96875 15.726562 11.964844 16.117188 C 11.933594 16.117188 11.902344 16.117188 11.871094 16.117188 C 11.574219 13.722656 11.824219 11.386719 12.625 9.109375 C 13.984375 5.640625 16.339844 3.089844 19.695312 1.464844 C 23.453125 -0.214844 26.925781 0.230469 30.113281 2.808594 C 31.59375 4.078125 32.84375 5.539062 33.871094 7.1875 C 35.109375 9.246094 36.015625 11.449219 36.582031 13.789062 C 36.757812 14.550781 36.929688 15.308594 37.097656 16.070312 C 37.675781 16.066406 38.25 16.070312 38.828125 16.082031 C 39.332031 16.09375 39.804688 16.222656 40.242188 16.464844 C 40.664062 16.789062 40.898438 17.21875 40.949219 17.75 C 41 18.285156 41.039062 18.820312 41.070312 19.359375 C 41.089844 19.496094 41.113281 19.632812 41.144531 19.765625 C 41.359375 20.585938 41.589844 21.402344 41.839844 22.214844 C 41.972656 22.757812 42.101562 23.300781 42.222656 23.847656 C 42.445312 24.566406 42.671875 25.289062 42.894531 26.007812 C 43.183594 27.136719 43.402344 28.28125 43.542969 29.441406 C 43.785156 31.304688 43.9375 33.179688 44 35.058594 C 44.054688 37.082031 44.070312 39.105469 44.046875 41.128906 C 44.046875 41.832031 43.980469 42.527344 43.855469 43.21875 C 43.617188 44.421875 42.964844 45.324219 41.898438 45.917969 C 41.253906 46.261719 40.574219 46.511719 39.859375 46.664062 C 38.695312 46.90625 37.519531 47.066406 36.328125 47.144531 C 33.101562 47.332031 29.886719 47.632812 26.679688 48.054688 C 24.777344 48.332031 22.871094 48.605469 20.96875 48.871094 C 18.921875 49.15625 16.863281 49.269531 14.796875 49.207031 C 13.8125 49.167969 12.835938 49.0625 11.871094 48.882812 Z M 16.648438 14.175781 C 16.929688 13.4375 17.21875 12.703125 17.511719 11.964844 C 18.1875 10.941406 19.019531 10.058594 20.007812 9.3125 C 20.765625 8.75 21.613281 8.398438 22.550781 8.257812 C 23.125 8.171875 23.675781 8.246094 24.207031 8.472656 C 25.230469 8.976562 26.121094 9.652344 26.882812 10.5 C 27.242188 10.933594 27.460938 11.429688 27.53125 11.988281 C 27.585938 12.46875 27.632812 12.949219 27.675781 13.429688 C 27.777344 13.996094 27.867188 14.5625 27.941406 15.132812 C 27.957031 15.300781 27.957031 15.46875 27.941406 15.636719 C 27.910156 15.941406 27.882812 16.246094 27.855469 16.550781 C 26.914062 16.570312 25.96875 16.585938 25.023438 16.597656 C 23.398438 16.546875 21.773438 16.488281 20.152344 16.417969 C 18.9375 16.332031 17.738281 16.15625 16.550781 15.890625 C 16.5 15.886719 16.460938 15.867188 16.429688 15.832031 C 16.503906 15.277344 16.578125 14.726562 16.648438 14.175781 Z M 40.699219 24.085938 C 41.195312 25.617188 41.582031 27.179688 41.863281 28.769531 C 42.199219 31.078125 42.410156 33.398438 42.488281 35.730469 C 42.554688 37.597656 42.589844 39.460938 42.59375 41.324219 C 41.960938 35.578125 41.328125 29.832031 40.699219 24.085938 Z M 41.5625 44.417969 C 41.234375 44.710938 40.859375 44.933594 40.433594 45.078125 C 39.914062 45.277344 39.375 45.414062 38.828125 45.5 C 38.226562 45.476562 37.625 45.453125 37.027344 45.425781 C 38.535156 45.085938 40.046875 44.75 41.5625 44.417969 Z M 41.5625 44.417969 "/>
</g>
<mask id="mask1">
  <g filter="url(#alpha)">
<rect x="0" y="0" width="50" height="50" style="fill:rgb(0%,0%,0%);fill-opacity:0.862745;stroke:none;"/>
  </g>
</mask>
<clipPath id="clip2">
  <rect width="50" height="50"/>
</clipPath>
<g id="surface9" clip-path="url(#clip2)">
<path style=" stroke:none;fill-rule:evenodd;fill:rgb(93.72549%,93.72549%,93.72549%);fill-opacity:1;" d="M 17.511719 11.964844 C 17.21875 12.703125 16.929688 13.4375 16.648438 14.175781 C 16.769531 13.371094 17.058594 12.632812 17.511719 11.964844 Z M 17.511719 11.964844 "/>
</g>
<mask id="mask2">
  <g filter="url(#alpha)">
<rect x="0" y="0" width="50" height="50" style="fill:rgb(0%,0%,0%);fill-opacity:0.839216;stroke:none;"/>
  </g>
</mask>
<clipPath id="clip3">
  <rect width="50" height="50"/>
</clipPath>
<g id="surface12" clip-path="url(#clip3)">
<path style=" stroke:none;fill-rule:evenodd;fill:rgb(85.098039%,83.529412%,81.176471%);fill-opacity:1;" d="M 6.804688 26.703125 C 6.84375 27.027344 6.863281 27.355469 6.863281 27.6875 C 6.890625 28.773438 6.847656 29.855469 6.734375 30.929688 C 6.773438 29.519531 6.796875 28.113281 6.804688 26.703125 Z M 6.804688 26.703125 "/>
</g>
<mask id="mask3">
  <g filter="url(#alpha)">
<rect x="0" y="0" width="50" height="50" style="fill:rgb(0%,0%,0%);fill-opacity:0.701961;stroke:none;"/>
  </g>
</mask>
<clipPath id="clip4">
  <rect width="50" height="50"/>
</clipPath>
<g id="surface15" clip-path="url(#clip4)">
<path style=" stroke:none;fill-rule:evenodd;fill:rgb(81.960784%,80.392157%,78.039216%);fill-opacity:1;" d="M 10.285156 48.523438 C 10.8125 48.652344 11.34375 48.773438 11.871094 48.882812 C 11.320312 48.84375 10.792969 48.722656 10.285156 48.523438 Z M 10.285156 48.523438 "/>
</g>
</defs>
<g id="surface1">
<use xlink:href="#surface6" mask="url(#mask0)"/>
<path style=" stroke:none;fill-rule:evenodd;fill:rgb(99.607843%,99.607843%,99.607843%);fill-opacity:1;" d="M 33.28125 16.285156 C 33.257812 16.285156 33.234375 16.285156 33.210938 16.285156 C 33.40625 15.109375 33.21875 13.996094 32.644531 12.949219 C 32.390625 12.484375 32.109375 12.039062 31.804688 11.605469 C 30.867188 10.378906 29.945312 9.136719 29.042969 7.886719 C 28.734375 7.40625 28.421875 6.925781 28.109375 6.445312 C 27.292969 5.371094 26.214844 4.960938 24.878906 5.207031 C 23.964844 5.441406 23.117188 5.816406 22.335938 6.335938 C 21.953125 6.578125 21.585938 6.839844 21.230469 7.117188 C 20.535156 7.378906 19.886719 7.726562 19.285156 8.160156 C 17.953125 9.1875 16.894531 10.4375 16.105469 11.917969 C 15.8125 12.507812 15.644531 13.132812 15.601562 13.789062 C 15.59375 14.519531 15.59375 15.246094 15.601562 15.972656 C 15.550781 16.027344 15.5 16.078125 15.445312 16.128906 C 15.382812 16.132812 15.320312 16.136719 15.253906 16.144531 C 14.699219 16.097656 14.144531 16.066406 13.585938 16.046875 C 13.175781 16.058594 12.761719 16.074219 12.351562 16.09375 C 12.242188 16.054688 12.132812 16.027344 12.015625 16.011719 C 12 15.964844 11.992188 15.917969 11.988281 15.867188 C 12.253906 13.332031 12.871094 10.886719 13.839844 8.535156 C 13.859375 8.523438 13.867188 8.507812 13.863281 8.484375 C 13.882812 8.476562 13.890625 8.460938 13.886719 8.4375 C 13.90625 8.429688 13.914062 8.414062 13.910156 8.390625 C 13.910156 8.382812 13.910156 8.375 13.910156 8.367188 C 13.925781 8.367188 13.933594 8.355469 13.933594 8.339844 C 13.933594 8.332031 13.933594 8.324219 13.933594 8.316406 C 13.949219 8.316406 13.957031 8.308594 13.957031 8.292969 C 15.0625 6.257812 16.605469 4.636719 18.589844 3.433594 C 22.707031 1.113281 26.449219 1.59375 29.824219 4.871094 C 31.925781 6.976562 33.417969 9.460938 34.300781 12.324219 C 34.664062 13.585938 34.980469 14.859375 35.25 16.144531 C 34.59375 16.167969 33.9375 16.21875 33.28125 16.285156 Z M 33.28125 16.285156 "/>
<path style=" stroke:none;fill-rule:evenodd;fill:rgb(94.509804%,92.941176%,90.196078%);fill-opacity:1;" d="M 33.28125 16.285156 C 32.078125 16.398438 30.871094 16.46875 29.65625 16.503906 C 29.664062 16.03125 29.644531 15.558594 29.597656 15.085938 C 29.445312 14.078125 29.292969 13.070312 29.140625 12.0625 C 29.078125 11.707031 29.007812 11.355469 28.925781 11.003906 C 28.835938 10.730469 28.722656 10.46875 28.589844 10.214844 C 27.730469 8.925781 26.609375 7.945312 25.214844 7.273438 C 23.90625 6.675781 22.578125 6.625 21.230469 7.117188 C 21.585938 6.839844 21.953125 6.578125 22.335938 6.335938 C 23.117188 5.816406 23.964844 5.441406 24.878906 5.207031 C 26.214844 4.960938 27.292969 5.371094 28.109375 6.445312 C 28.421875 6.925781 28.734375 7.40625 29.042969 7.886719 C 29.945312 9.136719 30.867188 10.378906 31.804688 11.605469 C 32.109375 12.039062 32.390625 12.484375 32.644531 12.949219 C 33.21875 13.996094 33.40625 15.109375 33.210938 16.285156 C 33.234375 16.285156 33.257812 16.285156 33.28125 16.285156 Z M 33.28125 16.285156 "/>
<path style=" stroke:none;fill-rule:evenodd;fill:rgb(1.568627%,1.568627%,1.568627%);fill-opacity:1;" d="M 17.558594 5.988281 C 17.703125 5.976562 17.757812 6.042969 17.714844 6.179688 C 17.382812 6.4375 17.074219 6.71875 16.777344 7.019531 C 16.1875 7.855469 15.664062 8.734375 15.21875 9.660156 C 14.757812 10.773438 14.40625 11.914062 14.164062 13.09375 C 14.042969 13.636719 13.933594 14.179688 13.828125 14.726562 C 13.738281 14.832031 13.632812 14.851562 13.515625 14.773438 C 13.488281 14.730469 13.46875 14.679688 13.453125 14.628906 C 13.679688 13.367188 13.972656 12.117188 14.332031 10.886719 C 14.582031 10.085938 14.917969 9.328125 15.339844 8.605469 C 15.648438 8.101562 15.964844 7.605469 16.296875 7.117188 C 16.445312 6.929688 16.601562 6.75 16.765625 6.578125 C 17.027344 6.375 17.292969 6.179688 17.558594 5.988281 Z M 17.558594 5.988281 "/>
<use xlink:href="#surface9" mask="url(#mask1)"/>
<path style=" stroke:none;fill-rule:evenodd;fill:rgb(94.509804%,92.941176%,90.196078%);fill-opacity:1;" d="M 16.886719 17.871094 C 16.605469 21.96875 16.515625 26.074219 16.609375 30.183594 C 16.65625 31.71875 16.785156 33.25 16.996094 34.769531 C 17.570312 38.355469 19.316406 41.207031 22.238281 43.328125 C 23.847656 44.421875 25.621094 45.039062 27.570312 45.175781 C 30.722656 45.191406 33.875 45.277344 37.027344 45.425781 C 37.625 45.453125 38.226562 45.476562 38.828125 45.5 C 38.808594 45.519531 38.785156 45.53125 38.753906 45.535156 C 38.386719 45.582031 38.015625 45.632812 37.648438 45.679688 C 33.546875 45.96875 29.457031 46.402344 25.382812 46.976562 C 23.53125 47.273438 21.671875 47.5625 19.816406 47.839844 C 18.546875 48.007812 17.277344 48.078125 16 48.054688 C 14.46875 48.003906 12.949219 47.859375 11.4375 47.625 C 10.910156 47.539062 10.398438 47.394531 9.902344 47.191406 C 9.195312 46.867188 8.742188 46.328125 8.546875 45.570312 C 8.046875 43.5625 7.65625 41.527344 7.371094 39.472656 C 7.289062 38.78125 7.234375 38.085938 7.199219 37.386719 C 7.183594 36.25 7.183594 35.113281 7.199219 33.976562 C 7.289062 32.035156 7.359375 30.089844 7.40625 28.144531 C 7.332031 25.230469 7.320312 22.320312 7.371094 19.40625 C 7.449219 18.878906 7.75 18.546875 8.269531 18.410156 C 9.355469 18.207031 10.433594 17.972656 11.511719 17.714844 C 12.820312 17.460938 14.140625 17.414062 15.46875 17.570312 C 15.582031 17.667969 15.710938 17.738281 15.855469 17.785156 C 16.199219 17.820312 16.542969 17.851562 16.886719 17.871094 Z M 16.886719 17.871094 "/>
<path style=" stroke:none;fill-rule:evenodd;fill:rgb(99.607843%,99.607843%,99.607843%);fill-opacity:1;" d="M 40.699219 24.085938 C 41.328125 29.832031 41.960938 35.578125 42.59375 41.324219 C 42.628906 42.121094 42.488281 42.890625 42.175781 43.628906 C 42.027344 43.9375 41.824219 44.199219 41.5625 44.417969 C 40.046875 44.75 38.535156 45.085938 37.027344 45.425781 C 33.875 45.277344 30.722656 45.191406 27.570312 45.175781 C 25.621094 45.039062 23.847656 44.421875 22.238281 43.328125 C 19.316406 41.207031 17.570312 38.355469 16.996094 34.769531 C 16.785156 33.25 16.65625 31.71875 16.609375 30.183594 C 16.515625 26.074219 16.605469 21.96875 16.886719 17.871094 C 19.046875 17.949219 21.207031 18.050781 23.367188 18.171875 C 23.894531 18.195312 24.421875 18.207031 24.953125 18.207031 C 27.007812 18.160156 29.066406 18.101562 31.121094 18.027344 C 32.960938 17.894531 34.800781 17.78125 36.640625 17.691406 C 37.296875 17.6875 37.953125 17.683594 38.609375 17.679688 C 38.746094 17.679688 38.882812 17.691406 39.019531 17.714844 C 39.085938 17.742188 39.144531 17.777344 39.199219 17.824219 C 39.25 17.914062 39.292969 18.007812 39.316406 18.109375 C 39.359375 18.914062 39.476562 19.707031 39.679688 20.488281 C 40.042969 21.683594 40.382812 22.886719 40.699219 24.085938 Z M 40.699219 24.085938 "/>
<path style=" stroke:none;fill-rule:evenodd;fill:rgb(1.568627%,1.568627%,1.568627%);fill-opacity:1;" d="M 9.613281 20.894531 C 9.746094 20.882812 9.824219 20.9375 9.855469 21.0625 C 9.613281 21.871094 9.480469 22.695312 9.457031 23.535156 C 9.414062 26.558594 9.550781 29.578125 9.867188 32.585938 C 9.902344 33.167969 9.933594 33.753906 9.960938 34.335938 C 10.222656 37.125 10.519531 39.910156 10.851562 42.691406 C 10.871094 42.90625 10.878906 43.121094 10.875 43.339844 C 10.777344 43.488281 10.65625 43.515625 10.5 43.421875 C 10.464844 43.367188 10.4375 43.308594 10.417969 43.242188 C 10.339844 42.449219 10.246094 41.65625 10.128906 40.867188 C 10.03125 39.695312 9.910156 38.527344 9.769531 37.363281 C 9.546875 34.695312 9.304688 32.03125 9.050781 29.367188 C 8.953125 27.28125 8.945312 25.191406 9.027344 23.105469 C 9.089844 22.375 9.257812 21.671875 9.53125 20.992188 C 9.546875 20.945312 9.574219 20.914062 9.613281 20.894531 Z M 9.613281 20.894531 "/>
<path style=" stroke:none;fill-rule:evenodd;fill:rgb(0.392157%,0%,0%);fill-opacity:1;" d="M 24.136719 23.128906 C 24.460938 23.113281 24.78125 23.148438 25.097656 23.234375 C 25.660156 23.472656 26.238281 23.679688 26.824219 23.859375 C 27.476562 24.109375 27.960938 24.546875 28.277344 25.167969 C 29.085938 26.832031 29.054688 28.480469 28.179688 30.113281 C 28.078125 30.265625 27.976562 30.421875 27.878906 30.582031 C 28.007812 30.835938 28.003906 31.085938 27.867188 31.335938 C 27.796875 31.429688 27.703125 31.492188 27.59375 31.527344 C 27.507812 32.125 27.53125 32.71875 27.652344 33.304688 C 27.859375 34.035156 28.042969 34.769531 28.203125 35.515625 C 28.429688 36.65625 28.65625 37.800781 28.875 38.945312 C 28.910156 39.300781 28.871094 39.644531 28.757812 39.976562 C 28.5625 40.367188 28.246094 40.59375 27.808594 40.664062 C 27.160156 40.722656 26.511719 40.792969 25.863281 40.878906 C 25.519531 40.921875 25.191406 40.863281 24.878906 40.710938 C 24.648438 40.535156 24.496094 40.308594 24.410156 40.027344 C 24.355469 39.828125 24.308594 39.628906 24.269531 39.425781 C 24.230469 38.832031 24.183594 38.242188 24.125 37.648438 C 23.9375 36.730469 23.761719 35.8125 23.597656 34.890625 C 23.511719 33.871094 23.5625 32.855469 23.75 31.851562 C 22.980469 31.570312 22.433594 31.046875 22.109375 30.28125 C 21.835938 29.578125 21.675781 28.851562 21.628906 28.097656 C 21.597656 27.367188 21.621094 26.636719 21.699219 25.914062 C 21.777344 25.300781 21.976562 24.730469 22.300781 24.207031 C 22.753906 23.578125 23.363281 23.21875 24.136719 23.128906 Z M 24.136719 23.128906 "/>
<path style=" stroke:none;fill-rule:evenodd;fill:rgb(66.27451%,22.745098%,17.647059%);fill-opacity:1;" d="M 24.0625 24.496094 C 24.257812 24.488281 24.449219 24.5 24.640625 24.53125 C 25.183594 24.6875 25.71875 24.863281 26.25 25.058594 C 26.792969 25.277344 27.1875 25.648438 27.4375 26.175781 C 27.832031 27.105469 28.007812 28.074219 27.964844 29.082031 C 27.933594 29.523438 27.828125 29.945312 27.652344 30.351562 C 27.007812 30.117188 26.558594 30.316406 26.308594 30.953125 C 26.164062 31.761719 26.164062 32.570312 26.308594 33.378906 C 26.582031 34.578125 26.859375 35.78125 27.148438 36.976562 C 27.28125 37.667969 27.417969 38.355469 27.554688 39.042969 C 27.578125 39.132812 27.570312 39.222656 27.53125 39.304688 C 27.453125 39.371094 27.359375 39.417969 27.257812 39.4375 C 26.730469 39.515625 26.199219 39.585938 25.671875 39.65625 C 25.660156 39.667969 25.648438 39.679688 25.636719 39.691406 C 25.636719 39.054688 25.578125 38.421875 25.46875 37.792969 C 25.328125 37.019531 25.152344 36.25 24.941406 35.488281 C 24.859375 35.101562 24.792969 34.707031 24.746094 34.3125 C 24.71875 33.671875 24.710938 33.035156 24.722656 32.394531 C 24.757812 32.160156 24.796875 31.929688 24.84375 31.695312 C 24.886719 31.4375 24.839844 31.195312 24.699219 30.976562 C 24.621094 30.902344 24.527344 30.851562 24.425781 30.820312 C 23.792969 30.792969 23.335938 30.5 23.042969 29.945312 C 22.804688 29.417969 22.675781 28.867188 22.660156 28.289062 C 22.617188 27.527344 22.679688 26.773438 22.851562 26.03125 C 22.949219 25.648438 23.105469 25.296875 23.332031 24.976562 C 23.527344 24.734375 23.769531 24.574219 24.0625 24.496094 Z M 24.0625 24.496094 "/>
<use xlink:href="#surface12" mask="url(#mask2)"/>
<path style=" stroke:none;fill-rule:evenodd;fill:rgb(1.568627%,1.568627%,1.568627%);fill-opacity:1;" d="M 19.480469 45.570312 C 19.777344 45.527344 19.890625 45.648438 19.828125 45.929688 C 19.785156 45.980469 19.734375 46.019531 19.671875 46.039062 C 18.289062 46.257812 16.894531 46.363281 15.496094 46.351562 C 15.058594 46.3125 14.636719 46.222656 14.222656 46.085938 C 14.082031 46.015625 14.046875 45.90625 14.113281 45.761719 C 14.144531 45.71875 14.183594 45.695312 14.234375 45.691406 C 14.976562 45.898438 15.734375 45.964844 16.503906 45.894531 C 17.503906 45.851562 18.496094 45.742188 19.480469 45.570312 Z M 19.480469 45.570312 "/>
<use xlink:href="#surface15" mask="url(#mask3)"/>
</g>
</svg>
