<?xml version="1.0" encoding="UTF-8"?>
<svg xmlns="http://www.w3.org/2000/svg" xmlns:xlink="http://www.w3.org/1999/xlink" width="50pt" height="50pt" viewBox="0 0 50 50" version="1.1">
<defs>
<filter id="alpha" filterUnits="objectBoundingBox" x="0%" y="0%" width="100%" height="100%">
  <feColorMatrix type="matrix" in="SourceGraphic" values="0 0 0 0 1 0 0 0 0 1 0 0 0 0 1 0 0 0 1 0"/>
</filter>
<mask id="mask0">
  <g filter="url(#alpha)">
<rect x="0" y="0" width="50" height="50" style="fill:rgb(0%,0%,0%);fill-opacity:0.996078;stroke:none;"/>
  </g>
</mask>
<clipPath id="clip1">
  <rect width="50" height="50"/>
</clipPath>
<g id="surface6" clip-path="url(#clip1)">
<path style=" stroke:none;fill-rule:evenodd;fill:rgb(66.666667%,23.137255%,18.039216%);fill-opacity:1;" d="M 22.9375 2.84375 C 25.390625 2.835938 27.6875 3.433594 29.824219 4.632812 C 30.914062 5.246094 31.828125 6.058594 32.574219 7.070312 C 33.640625 8.644531 33.78125 10.300781 33.003906 12.039062 C 32.769531 12.542969 32.472656 13.007812 32.117188 13.429688 C 31.597656 14.457031 31.175781 15.519531 30.84375 16.621094 C 30.714844 17.101562 30.605469 17.585938 30.519531 18.074219 C 32.769531 18.015625 34.550781 18.890625 35.863281 20.703125 C 36.984375 22.421875 37.261719 24.269531 36.703125 26.25 C 36.175781 28.015625 35.171875 29.445312 33.6875 30.53125 C 32.476562 31.382812 31.148438 31.996094 29.703125 32.371094 C 29.730469 32.441406 29.75 32.511719 29.765625 32.585938 C 29.75 35.425781 29.714844 38.265625 29.65625 41.105469 C 30.34375 41.238281 30.898438 41.582031 31.324219 42.140625 C 31.996094 43.105469 32.164062 44.152344 31.828125 45.285156 C 31.421875 46.339844 30.664062 46.992188 29.5625 47.238281 C 28.15625 47.5 26.96875 47.113281 25.996094 46.074219 C 25.347656 45.230469 25.097656 44.28125 25.253906 43.21875 C 25.363281 42.472656 25.628906 41.792969 26.054688 41.179688 C 24.417969 38.570312 23.320312 35.746094 22.769531 32.707031 C 20.910156 32.476562 19.148438 31.9375 17.488281 31.085938 C 16.359375 30.496094 15.4375 29.675781 14.714844 28.625 C 13.613281 26.761719 13.523438 24.847656 14.449219 22.886719 C 14.8125 22.109375 15.320312 21.441406 15.972656 20.882812 C 16.480469 20.472656 17.054688 20.214844 17.703125 20.113281 C 18.425781 20.042969 19.09375 20.199219 19.707031 20.582031 C 19.371094 19.402344 19.035156 18.21875 18.699219 17.03125 C 18.167969 15.492188 17.574219 13.980469 16.921875 12.492188 C 16.539062 11.996094 16.210938 11.460938 15.9375 10.886719 C 15.523438 9.960938 15.402344 9 15.578125 8.003906 C 16.292969 5.472656 17.921875 3.871094 20.464844 3.191406 C 21.277344 2.984375 22.101562 2.867188 22.9375 2.84375 Z M 22.9375 2.84375 "/>
</g>
</defs>
<g id="surface1">
<use xlink:href="#surface6" mask="url(#mask0)"/>
<path style=" stroke:none;fill-rule:evenodd;fill:rgb(76.862745%,76.078431%,77.647059%);fill-opacity:1;" d="M 22.480469 5.652344 C 23.734375 5.601562 24.957031 5.765625 26.152344 6.144531 C 27.054688 6.417969 27.917969 6.777344 28.746094 7.226562 C 29.308594 7.550781 29.800781 7.960938 30.222656 8.460938 C 30.679688 9.058594 30.808594 9.722656 30.605469 10.453125 C 30.296875 11.410156 29.699219 12.125 28.816406 12.601562 C 28.183594 12.929688 27.511719 13.121094 26.800781 13.179688 C 24.113281 13.339844 21.679688 12.632812 19.503906 11.066406 C 19.089844 10.75 18.726562 10.386719 18.410156 9.972656 C 18.191406 9.664062 18.023438 9.328125 17.90625 8.964844 C 17.878906 8.886719 17.871094 8.808594 17.882812 8.726562 C 18.359375 7.914062 18.96875 7.222656 19.71875 6.648438 C 20.554688 6.078125 21.472656 5.746094 22.480469 5.652344 Z M 22.480469 5.652344 "/>
<path style=" stroke:none;fill-rule:evenodd;fill:rgb(99.607843%,99.607843%,99.607843%);fill-opacity:1;" d="M 20.414062 14.824219 C 22.589844 15.777344 24.863281 16.15625 27.230469 15.960938 C 27.859375 15.878906 28.476562 15.738281 29.082031 15.542969 C 29.097656 15.550781 29.113281 15.558594 29.128906 15.566406 C 28.414062 17.089844 28 18.6875 27.878906 20.367188 C 27.855469 20.71875 27.894531 21.0625 28 21.398438 C 27.519531 21.417969 27.070312 21.550781 26.65625 21.796875 C 25.21875 22.734375 23.683594 22.933594 22.046875 22.394531 C 22.039062 22.386719 22.03125 22.378906 22.023438 22.371094 C 22.109375 22.253906 22.171875 22.121094 22.203125 21.976562 C 22.28125 21.054688 22.214844 20.140625 22.011719 19.238281 C 21.765625 18.105469 21.40625 17.007812 20.929688 15.949219 C 20.757812 15.574219 20.585938 15.199219 20.414062 14.824219 Z M 20.414062 14.824219 "/>
<path style=" stroke:none;fill-rule:evenodd;fill:rgb(89.411765%,76.862745%,75.294118%);fill-opacity:1;" d="M 30.714844 20.535156 C 30.636719 20.558594 30.558594 20.566406 30.472656 20.558594 C 30.480469 20.621094 30.472656 20.675781 30.449219 20.726562 C 30.449219 20.664062 30.449219 20.597656 30.449219 20.535156 C 30.535156 20.535156 30.625 20.535156 30.714844 20.535156 Z M 30.714844 20.535156 "/>
<path style=" stroke:none;fill-rule:evenodd;fill:rgb(99.607843%,99.607843%,99.607843%);fill-opacity:1;" d="M 30.714844 20.535156 C 32.449219 20.621094 33.648438 21.46875 34.300781 23.078125 C 34.5625 23.945312 34.535156 24.800781 34.230469 25.648438 C 33.824219 26.621094 33.230469 27.457031 32.441406 28.15625 C 31.335938 29.113281 30.0625 29.746094 28.625 30.054688 C 26.890625 30.390625 25.144531 30.445312 23.390625 30.222656 C 22.109375 30.113281 20.867188 29.824219 19.671875 29.355469 C 18.769531 28.992188 17.988281 28.453125 17.332031 27.738281 C 16.320312 26.503906 16.144531 25.160156 16.800781 23.703125 C 17.460938 22.542969 18.441406 21.804688 19.742188 21.484375 C 19.835938 21.421875 19.910156 21.347656 19.972656 21.253906 C 20.140625 21.617188 20.316406 21.976562 20.5 22.335938 C 20.523438 22.359375 20.546875 22.382812 20.570312 22.40625 C 20.5625 22.5 20.550781 22.589844 20.535156 22.683594 C 20.535156 22.765625 20.554688 22.839844 20.59375 22.910156 C 21.519531 23.859375 22.640625 24.40625 23.96875 24.554688 C 25.253906 24.632812 26.472656 24.375 27.617188 23.789062 C 28.097656 23.53125 28.441406 23.152344 28.648438 22.648438 C 29.023438 22.871094 29.398438 22.867188 29.777344 22.636719 C 30 22.4375 30.15625 22.191406 30.246094 21.902344 C 30.371094 21.523438 30.441406 21.128906 30.449219 20.726562 C 30.472656 20.675781 30.480469 20.621094 30.472656 20.558594 C 30.558594 20.566406 30.636719 20.558594 30.714844 20.535156 Z M 30.714844 20.535156 "/>
<path style=" stroke:none;fill-rule:evenodd;fill:rgb(72.941176%,71.372549%,69.411765%);fill-opacity:1;" d="M 27.207031 32.800781 C 27.242188 32.800781 27.273438 32.800781 27.304688 32.800781 C 27.304688 32.898438 27.304688 32.992188 27.304688 33.089844 C 27.277344 34.898438 27.242188 36.707031 27.195312 38.515625 C 26.101562 36.734375 25.195312 34.863281 24.472656 32.898438 C 25.128906 32.878906 25.785156 32.867188 26.441406 32.859375 C 26.695312 32.839844 26.953125 32.820312 27.207031 32.800781 Z M 27.207031 32.800781 "/>
<path style=" stroke:none;fill-rule:evenodd;fill:rgb(68.235294%,38.039216%,34.117647%);fill-opacity:1;" d="M 27.207031 32.800781 C 27.242188 32.777344 27.28125 32.769531 27.328125 32.777344 C 27.335938 32.886719 27.328125 32.988281 27.304688 33.089844 C 27.304688 32.992188 27.304688 32.898438 27.304688 32.800781 C 27.273438 32.800781 27.242188 32.800781 27.207031 32.800781 Z M 27.207031 32.800781 "/>
<path style=" stroke:none;fill-rule:evenodd;fill:rgb(99.215686%,98.431373%,98.431373%);fill-opacity:1;" d="M 29.105469 43.675781 C 29.277344 43.707031 29.382812 43.8125 29.429688 43.988281 C 29.496094 44.621094 29.210938 44.910156 28.578125 44.851562 C 28.625 44.582031 28.695312 44.320312 28.78125 44.058594 C 28.859375 43.902344 28.96875 43.777344 29.105469 43.675781 Z M 29.105469 43.675781 "/>
</g>
</svg>
