<?xml version="1.0" encoding="UTF-8"?>
<svg xmlns="http://www.w3.org/2000/svg" xmlns:xlink="http://www.w3.org/1999/xlink" width="50pt" height="50pt" viewBox="0 0 50 50" version="1.1">
<defs>
<filter id="alpha" filterUnits="objectBoundingBox" x="0%" y="0%" width="100%" height="100%">
  <feColorMatrix type="matrix" in="SourceGraphic" values="0 0 0 0 1 0 0 0 0 1 0 0 0 0 1 0 0 0 1 0"/>
</filter>
<mask id="mask0">
  <g filter="url(#alpha)">
<rect x="0" y="0" width="50" height="50" style="fill:rgb(0%,0%,0%);fill-opacity:0.976471;stroke:none;"/>
  </g>
</mask>
<clipPath id="clip1">
  <rect width="50" height="50"/>
</clipPath>
<g id="surface6" clip-path="url(#clip1)">
<path style=" stroke:none;fill-rule:evenodd;fill:rgb(7.843137%,14.509804%,15.294118%);fill-opacity:1;" d="M 46.328125 21.234375 C 45.640625 21.167969 45.035156 20.90625 44.503906 20.441406 C 44.191406 20.152344 43.902344 19.839844 43.640625 19.503906 C 43.515625 19.929688 43.371094 20.34375 43.210938 20.753906 C 42.90625 21.5625 42.363281 22.144531 41.578125 22.503906 C 41.28125 22.585938 40.976562 22.625 40.667969 22.625 C 39.722656 22.457031 38.929688 22.011719 38.292969 21.28125 C 37.90625 20.792969 37.515625 20.3125 37.117188 19.839844 C 37.105469 19.75 37.058594 19.6875 36.972656 19.648438 C 36.976562 19.578125 36.945312 19.527344 36.875 19.503906 C 36.84375 19.503906 36.828125 19.488281 36.828125 19.457031 C 36.824219 19.355469 36.777344 19.292969 36.683594 19.265625 C 36.640625 19.226562 36.609375 19.179688 36.589844 19.121094 C 36.585938 19.019531 36.539062 18.957031 36.445312 18.929688 C 36.402344 18.890625 36.367188 18.84375 36.347656 18.785156 C 36.351562 18.710938 36.320312 18.664062 36.253906 18.640625 C 36.21875 18.640625 36.203125 18.625 36.203125 18.59375 C 36.207031 18.519531 36.175781 18.472656 36.109375 18.449219 C 35.636719 17.699219 35.164062 16.949219 34.691406 16.195312 C 34.40625 15.714844 34.40625 15.234375 34.691406 14.753906 C 34.871094 14.503906 35.089844 14.296875 35.339844 14.132812 C 35.863281 13.886719 36.40625 13.832031 36.972656 13.964844 C 37.363281 14.078125 37.730469 14.238281 38.074219 14.445312 C 38.464844 14.734375 38.832031 15.042969 39.179688 15.378906 C 39.191406 15.449219 39.214844 15.511719 39.25 15.570312 C 39.515625 15.875 39.753906 16.195312 39.972656 16.53125 C 39.988281 16.082031 40.003906 15.636719 40.019531 15.1875 C 40.195312 14.148438 40.792969 13.707031 41.820312 13.867188 C 42.589844 14.3125 43.261719 14.878906 43.832031 15.570312 C 43.835938 15.597656 43.851562 15.613281 43.882812 15.617188 C 43.945312 15.324219 43.945312 15.035156 43.882812 14.753906 C 43.921875 13.949219 44.070312 13.164062 44.335938 12.402344 C 44.789062 11.199219 45.660156 10.574219 46.953125 10.53125 C 47.578125 10.59375 48.1875 10.730469 48.777344 10.941406 C 48.816406 10.980469 48.855469 11.019531 48.894531 11.058594 C 49.050781 12.800781 49.097656 14.542969 49.039062 16.289062 C 48.988281 17.382812 48.765625 18.4375 48.367188 19.457031 C 48.121094 20.027344 47.761719 20.515625 47.289062 20.921875 C 46.996094 21.105469 46.675781 21.210938 46.328125 21.234375 Z M 36.589844 14.5625 C 37.066406 14.660156 37.5 14.859375 37.882812 15.164062 C 38.292969 15.5 38.660156 15.875 38.988281 16.289062 C 38.949219 16.480469 38.90625 16.675781 38.867188 16.867188 C 38.128906 16.074219 37.371094 15.304688 36.589844 14.5625 Z M 48.152344 15.140625 C 48.105469 16.152344 48.015625 17.15625 47.890625 18.164062 C 47.742188 18.765625 47.460938 19.292969 47.050781 19.746094 C 47.210938 18.15625 47.578125 16.621094 48.152344 15.140625 Z M 42.632812 20.035156 C 42.476562 20.664062 42.175781 21.210938 41.722656 21.664062 C 41.929688 20.984375 42.113281 20.296875 42.273438 19.601562 C 42.386719 19.753906 42.507812 19.898438 42.632812 20.035156 Z M 42.632812 20.035156 "/>
</g>
<mask id="mask1">
  <g filter="url(#alpha)">
<rect x="0" y="0" width="50" height="50" style="fill:rgb(0%,0%,0%);fill-opacity:0.996078;stroke:none;"/>
  </g>
</mask>
<clipPath id="clip2">
  <rect width="50" height="50"/>
</clipPath>
<g id="surface9" clip-path="url(#clip2)">
<path style=" stroke:none;fill-rule:evenodd;fill:rgb(94.117647%,92.54902%,89.803922%);fill-opacity:1;" d="M 48.152344 15.140625 C 47.578125 16.621094 47.210938 18.15625 47.050781 19.746094 C 46.695312 20.273438 46.199219 20.488281 45.5625 20.394531 C 45.21875 20.261719 44.917969 20.066406 44.648438 19.816406 C 44.285156 19.453125 43.957031 19.0625 43.667969 18.640625 C 43.460938 18.503906 43.269531 18.519531 43.089844 18.691406 C 43.078125 18.996094 42.964844 19.253906 42.753906 19.457031 C 42.730469 19.660156 42.6875 19.851562 42.632812 20.035156 C 42.507812 19.898438 42.386719 19.753906 42.273438 19.601562 C 42.113281 20.296875 41.929688 20.984375 41.722656 21.664062 C 41.652344 21.746094 41.589844 21.832031 41.53125 21.929688 C 40.878906 22.148438 40.273438 22.070312 39.707031 21.6875 C 39.394531 21.359375 39.066406 21.046875 38.722656 20.753906 C 38.546875 20.546875 38.371094 20.335938 38.195312 20.128906 C 37.125 18.738281 36.050781 17.347656 34.980469 15.953125 C 34.9375 15.253906 35.25 14.78125 35.917969 14.539062 C 36.144531 14.503906 36.367188 14.511719 36.589844 14.5625 C 37.371094 15.304688 38.128906 16.074219 38.867188 16.867188 C 38.90625 16.675781 38.949219 16.480469 38.988281 16.289062 C 39.128906 16.414062 39.25 16.558594 39.347656 16.722656 C 39.554688 17.0625 39.753906 17.40625 39.945312 17.753906 C 40.027344 17.785156 40.105469 17.785156 40.1875 17.753906 C 40.246094 17.671875 40.324219 17.621094 40.425781 17.609375 C 40.503906 17.507812 40.542969 17.386719 40.546875 17.25 C 40.550781 16.609375 40.582031 15.96875 40.644531 15.332031 C 40.894531 14.5 41.378906 14.332031 42.105469 14.828125 C 42.765625 15.46875 43.402344 16.125 44.027344 16.792969 C 44.304688 16.855469 44.449219 16.742188 44.457031 16.457031 C 44.511719 15.128906 44.742188 13.824219 45.152344 12.546875 C 45.640625 11.507812 46.449219 11.117188 47.578125 11.371094 C 47.808594 11.421875 48.007812 11.523438 48.175781 11.683594 C 48.214844 12.835938 48.207031 13.988281 48.152344 15.140625 Z M 36.589844 14.5625 C 37.066406 14.660156 37.5 14.859375 37.882812 15.164062 C 38.292969 15.5 38.660156 15.875 38.988281 16.289062 C 38.949219 16.480469 38.90625 16.675781 38.867188 16.867188 C 38.128906 16.074219 37.371094 15.304688 36.589844 14.5625 Z M 36.589844 14.5625 "/>
</g>
<mask id="mask2">
  <g filter="url(#alpha)">
<rect x="0" y="0" width="50" height="50" style="fill:rgb(0%,0%,0%);fill-opacity:0.956863;stroke:none;"/>
  </g>
</mask>
<clipPath id="clip3">
  <rect width="50" height="50"/>
</clipPath>
<g id="surface12" clip-path="url(#clip3)">
<path style=" stroke:none;fill-rule:evenodd;fill:rgb(93.72549%,92.156863%,89.411765%);fill-opacity:1;" d="M 43.882812 14.898438 C 43.898438 15.132812 43.882812 15.355469 43.832031 15.570312 C 43.261719 14.878906 42.589844 14.3125 41.820312 13.867188 C 40.792969 13.707031 40.195312 14.148438 40.019531 15.1875 C 40.003906 15.636719 39.988281 16.082031 39.972656 16.53125 C 39.753906 16.195312 39.515625 15.875 39.25 15.570312 C 39.214844 15.511719 39.191406 15.449219 39.179688 15.378906 C 39.265625 15.0625 39.351562 14.746094 39.445312 14.417969 C 39.957031 13.527344 40.734375 13.148438 41.769531 13.292969 C 42.1875 13.390625 42.53125 13.605469 42.800781 13.941406 C 43.121094 14.332031 43.449219 14.714844 43.785156 15.089844 C 43.816406 15.023438 43.851562 14.957031 43.882812 14.898438 Z M 43.882812 14.898438 "/>
</g>
<mask id="mask3">
  <g filter="url(#alpha)">
<rect x="0" y="0" width="50" height="50" style="fill:rgb(0%,0%,0%);fill-opacity:0.87451;stroke:none;"/>
  </g>
</mask>
<clipPath id="clip4">
  <rect width="50" height="50"/>
</clipPath>
<g id="surface15" clip-path="url(#clip4)">
<path style=" stroke:none;fill-rule:evenodd;fill:rgb(92.156863%,90.980392%,88.235294%);fill-opacity:1;" d="M 35.339844 14.132812 C 35.089844 14.296875 34.871094 14.503906 34.691406 14.753906 C 34.40625 15.234375 34.40625 15.714844 34.691406 16.195312 C 35.164062 16.949219 35.636719 17.699219 36.109375 18.449219 C 35.484375 17.65625 34.886719 16.839844 34.308594 16.003906 C 33.933594 15.246094 34.117188 14.664062 34.859375 14.25 C 35.015625 14.1875 35.175781 14.148438 35.339844 14.132812 Z M 35.339844 14.132812 "/>
</g>
<mask id="mask4">
  <g filter="url(#alpha)">
<rect x="0" y="0" width="50" height="50" style="fill:rgb(0%,0%,0%);fill-opacity:0.733333;stroke:none;"/>
  </g>
</mask>
<clipPath id="clip5">
  <rect width="50" height="50"/>
</clipPath>
<g id="surface18" clip-path="url(#clip5)">
<path style=" stroke:none;fill-rule:evenodd;fill:rgb(88.627451%,87.45098%,84.705882%);fill-opacity:1;" d="M 31.742188 15.761719 C 31.140625 15.503906 30.519531 15.421875 29.871094 15.523438 C 30.339844 15.339844 30.820312 15.332031 31.308594 15.5 C 31.472656 15.5625 31.617188 15.652344 31.742188 15.761719 Z M 31.742188 15.761719 "/>
</g>
<mask id="mask5">
  <g filter="url(#alpha)">
<rect x="0" y="0" width="50" height="50" style="fill:rgb(0%,0%,0%);fill-opacity:0.980392;stroke:none;"/>
  </g>
</mask>
<clipPath id="clip6">
  <rect width="50" height="50"/>
</clipPath>
<g id="surface21" clip-path="url(#clip6)">
<path style=" stroke:none;fill-rule:evenodd;fill:rgb(8.235294%,14.509804%,15.294118%);fill-opacity:1;" d="M 31.742188 15.761719 C 32.332031 15.753906 32.554688 16.042969 32.414062 16.625 C 32.542969 18.484375 32.535156 20.339844 32.390625 22.191406 C 32.261719 23.242188 31.925781 24.21875 31.382812 25.121094 C 30.558594 26.246094 29.558594 26.429688 28.382812 25.671875 C 27.914062 25.304688 27.480469 24.898438 27.085938 24.449219 C 27.042969 24.503906 27.027344 24.570312 27.039062 24.640625 C 26.902344 25.261719 26.664062 25.839844 26.320312 26.367188 C 25.175781 27.726562 23.878906 27.878906 22.433594 26.824219 C 22.171875 26.609375 21.921875 26.378906 21.6875 26.128906 C 20.832031 25.085938 20.027344 24.015625 19.265625 22.914062 C 18.789062 22.199219 18.351562 21.464844 17.945312 20.707031 C 17.882812 19.710938 18.339844 19.097656 19.3125 18.859375 C 20.070312 18.742188 20.773438 18.886719 21.425781 19.289062 C 22.253906 19.832031 22.917969 20.527344 23.417969 21.378906 C 23.425781 20.863281 23.457031 20.351562 23.511719 19.839844 C 23.59375 19.40625 23.824219 19.085938 24.207031 18.882812 C 24.664062 18.621094 25.113281 18.628906 25.550781 18.90625 C 26.226562 19.371094 26.824219 19.925781 27.351562 20.5625 C 27.367188 20.03125 27.390625 19.503906 27.421875 18.976562 C 27.488281 18.09375 27.75 17.277344 28.214844 16.53125 C 28.625 15.96875 29.179688 15.632812 29.871094 15.523438 C 30.519531 15.421875 31.140625 15.503906 31.742188 15.761719 Z M 28.671875 17.492188 C 28.640625 18.449219 28.617188 19.410156 28.597656 20.371094 C 28.429688 20.191406 28.261719 20.015625 28.09375 19.839844 C 28.207031 19.03125 28.398438 18.25 28.671875 17.492188 Z M 20.992188 19.890625 C 21.726562 20.34375 22.324219 20.933594 22.792969 21.664062 C 22.929688 21.90625 23.066406 22.144531 23.199219 22.386719 C 23.191406 22.484375 23.167969 22.578125 23.128906 22.671875 C 22.429688 21.734375 21.714844 20.808594 20.992188 19.890625 Z M 18.59375 20.128906 C 18.59375 20.433594 18.609375 20.738281 18.640625 21.042969 C 18.402344 20.753906 18.386719 20.449219 18.59375 20.128906 Z M 18.59375 20.128906 "/>
</g>
<mask id="mask6">
  <g filter="url(#alpha)">
<rect x="0" y="0" width="50" height="50" style="fill:rgb(0%,0%,0%);fill-opacity:0.996078;stroke:none;"/>
  </g>
</mask>
<clipPath id="clip7">
  <rect width="50" height="50"/>
</clipPath>
<g id="surface24" clip-path="url(#clip7)">
<path style=" stroke:none;fill-rule:evenodd;fill:rgb(94.117647%,92.54902%,89.803922%);fill-opacity:1;" d="M 18.640625 21.042969 C 18.609375 20.738281 18.59375 20.433594 18.59375 20.128906 C 18.773438 19.773438 19.058594 19.542969 19.457031 19.433594 C 19.949219 19.371094 20.394531 19.476562 20.800781 19.746094 C 20.816406 19.785156 20.851562 19.800781 20.898438 19.792969 C 20.898438 19.824219 20.914062 19.839844 20.945312 19.839844 C 20.945312 19.875 20.960938 19.890625 20.992188 19.890625 C 21.714844 20.808594 22.429688 21.734375 23.128906 22.671875 C 23.167969 22.578125 23.191406 22.484375 23.199219 22.386719 C 23.257812 22.472656 23.320312 22.5625 23.390625 22.648438 C 23.441406 22.65625 23.488281 22.664062 23.535156 22.671875 C 23.675781 22.621094 23.8125 22.558594 23.945312 22.480469 C 23.996094 21.761719 24.042969 21.042969 24.089844 20.320312 C 24.296875 19.4375 24.785156 19.234375 25.550781 19.722656 C 26.195312 20.332031 26.800781 20.972656 27.375 21.640625 C 27.621094 21.773438 27.808594 21.71875 27.925781 21.472656 C 27.902344 20.917969 27.957031 20.371094 28.09375 19.839844 C 28.261719 20.015625 28.429688 20.191406 28.597656 20.371094 C 28.617188 19.410156 28.640625 18.449219 28.671875 17.492188 C 28.839844 16.835938 29.253906 16.425781 29.917969 16.265625 C 30.515625 16.171875 31.085938 16.261719 31.621094 16.53125 C 31.683594 18.453125 31.632812 20.371094 31.476562 22.289062 C 31.433594 23.503906 30.929688 24.472656 29.964844 25.191406 C 29.550781 25.414062 29.136719 25.414062 28.71875 25.191406 C 28.425781 24.976562 28.144531 24.746094 27.878906 24.496094 C 27.597656 24.152344 27.320312 23.808594 27.039062 23.464844 C 26.828125 23.398438 26.660156 23.453125 26.535156 23.632812 C 26.511719 23.824219 26.480469 24.019531 26.441406 24.207031 C 26.347656 24.253906 26.265625 24.316406 26.199219 24.398438 C 26.125 25.335938 25.75 26.128906 25.070312 26.777344 C 24.425781 27.039062 23.800781 26.988281 23.199219 26.632812 C 22.859375 26.273438 22.496094 25.929688 22.121094 25.601562 C 20.914062 24.113281 19.753906 22.59375 18.640625 21.042969 Z M 20.992188 19.890625 C 21.726562 20.34375 22.324219 20.933594 22.792969 21.664062 C 22.929688 21.90625 23.066406 22.144531 23.199219 22.386719 C 23.191406 22.484375 23.167969 22.578125 23.128906 22.671875 C 22.429688 21.734375 21.714844 20.808594 20.992188 19.890625 Z M 20.992188 19.890625 "/>
</g>
<mask id="mask7">
  <g filter="url(#alpha)">
<rect x="0" y="0" width="50" height="50" style="fill:rgb(0%,0%,0%);fill-opacity:0.956863;stroke:none;"/>
  </g>
</mask>
<clipPath id="clip8">
  <rect width="50" height="50"/>
</clipPath>
<g id="surface27" clip-path="url(#clip8)">
<path style=" stroke:none;fill-rule:evenodd;fill:rgb(93.72549%,92.156863%,89.411765%);fill-opacity:1;" d="M 32.414062 16.625 C 32.511719 16.765625 32.566406 16.925781 32.582031 17.105469 C 32.652344 17.601562 32.699219 18.097656 32.726562 18.59375 C 32.792969 20.902344 32.730469 23.203125 32.535156 25.503906 C 32.253906 26.488281 31.597656 27.015625 30.566406 27.085938 C 30.042969 27.0625 29.570312 26.894531 29.152344 26.582031 C 28.410156 25.980469 27.707031 25.332031 27.039062 24.640625 C 27.027344 24.570312 27.042969 24.503906 27.085938 24.449219 C 27.480469 24.898438 27.914062 25.304688 28.382812 25.671875 C 29.558594 26.429688 30.558594 26.246094 31.382812 25.121094 C 31.925781 24.21875 32.261719 23.242188 32.390625 22.191406 C 32.535156 20.339844 32.542969 18.484375 32.414062 16.625 Z M 32.414062 16.625 "/>
</g>
<mask id="mask8">
  <g filter="url(#alpha)">
<rect x="0" y="0" width="50" height="50" style="fill:rgb(0%,0%,0%);fill-opacity:0.972549;stroke:none;"/>
  </g>
</mask>
<clipPath id="clip9">
  <rect width="50" height="50"/>
</clipPath>
<g id="surface30" clip-path="url(#clip9)">
<path style=" stroke:none;fill-rule:evenodd;fill:rgb(93.72549%,92.54902%,89.803922%);fill-opacity:1;" d="M 27.421875 18.976562 C 27.390625 19.503906 27.367188 20.03125 27.351562 20.5625 C 26.824219 19.925781 26.226562 19.371094 25.550781 18.90625 C 25.113281 18.628906 24.664062 18.621094 24.207031 18.882812 C 24.753906 18.261719 25.441406 18.011719 26.273438 18.136719 C 26.457031 18.171875 26.632812 18.238281 26.800781 18.332031 C 27.050781 18.507812 27.257812 18.726562 27.421875 18.976562 Z M 27.421875 18.976562 "/>
</g>
<mask id="mask9">
  <g filter="url(#alpha)">
<rect x="0" y="0" width="50" height="50" style="fill:rgb(0%,0%,0%);fill-opacity:0.0627451;stroke:none;"/>
  </g>
</mask>
<clipPath id="clip10">
  <rect width="50" height="50"/>
</clipPath>
<g id="surface33" clip-path="url(#clip10)">
<path style=" stroke:none;fill-rule:evenodd;fill:rgb(85.490196%,84.705882%,82.352941%);fill-opacity:1;" d="M 36.109375 18.449219 C 36.175781 18.472656 36.207031 18.519531 36.203125 18.59375 C 36.136719 18.570312 36.105469 18.523438 36.109375 18.449219 Z M 36.109375 18.449219 "/>
</g>
<mask id="mask10">
  <g filter="url(#alpha)">
<rect x="0" y="0" width="50" height="50" style="fill:rgb(0%,0%,0%);fill-opacity:0.956863;stroke:none;"/>
  </g>
</mask>
<clipPath id="clip11">
  <rect width="50" height="50"/>
</clipPath>
<g id="surface36" clip-path="url(#clip11)">
<path style=" stroke:none;fill-rule:evenodd;fill:rgb(94.117647%,92.54902%,89.803922%);fill-opacity:1;" d="M 16.050781 21.714844 C 16.019531 21.273438 15.976562 20.824219 15.929688 20.371094 C 15.871094 20.296875 15.800781 20.238281 15.714844 20.203125 C 15.269531 20.082031 14.824219 19.96875 14.371094 19.867188 C 13.34375 19.742188 12.496094 20.066406 11.828125 20.847656 C 12.082031 19.769531 12.738281 19.074219 13.796875 18.761719 C 15.246094 18.722656 16.0625 19.429688 16.242188 20.875 C 16.238281 21.171875 16.171875 21.453125 16.050781 21.714844 Z M 16.050781 21.714844 "/>
</g>
<mask id="mask11">
  <g filter="url(#alpha)">
<rect x="0" y="0" width="50" height="50" style="fill:rgb(0%,0%,0%);fill-opacity:0.298039;stroke:none;"/>
  </g>
</mask>
<clipPath id="clip12">
  <rect width="50" height="50"/>
</clipPath>
<g id="surface39" clip-path="url(#clip12)">
<path style=" stroke:none;fill-rule:evenodd;fill:rgb(74.901961%,74.509804%,72.54902%);fill-opacity:1;" d="M 36.253906 18.640625 C 36.320312 18.664062 36.351562 18.710938 36.347656 18.785156 C 36.28125 18.761719 36.25 18.714844 36.253906 18.640625 Z M 36.253906 18.640625 "/>
</g>
<mask id="mask12">
  <g filter="url(#alpha)">
<rect x="0" y="0" width="50" height="50" style="fill:rgb(0%,0%,0%);fill-opacity:0.94902;stroke:none;"/>
  </g>
</mask>
<clipPath id="clip13">
  <rect width="50" height="50"/>
</clipPath>
<g id="surface42" clip-path="url(#clip13)">
<path style=" stroke:none;fill-rule:evenodd;fill:rgb(57.647059%,59.215686%,57.647059%);fill-opacity:1;" d="M 36.445312 18.929688 C 36.539062 18.957031 36.585938 19.019531 36.589844 19.121094 C 36.515625 19.078125 36.46875 19.011719 36.445312 18.929688 Z M 36.445312 18.929688 "/>
</g>
<mask id="mask13">
  <g filter="url(#alpha)">
<rect x="0" y="0" width="50" height="50" style="fill:rgb(0%,0%,0%);fill-opacity:0.909804;stroke:none;"/>
  </g>
</mask>
<clipPath id="clip14">
  <rect width="50" height="50"/>
</clipPath>
<g id="surface45" clip-path="url(#clip14)">
<path style=" stroke:none;fill-rule:evenodd;fill:rgb(63.529412%,64.705882%,63.137255%);fill-opacity:1;" d="M 36.683594 19.265625 C 36.777344 19.292969 36.824219 19.355469 36.828125 19.457031 C 36.757812 19.414062 36.710938 19.347656 36.683594 19.265625 Z M 36.683594 19.265625 "/>
</g>
<mask id="mask14">
  <g filter="url(#alpha)">
<rect x="0" y="0" width="50" height="50" style="fill:rgb(0%,0%,0%);fill-opacity:0.12549;stroke:none;"/>
  </g>
</mask>
<clipPath id="clip15">
  <rect width="50" height="50"/>
</clipPath>
<g id="surface48" clip-path="url(#clip15)">
<path style=" stroke:none;fill-rule:evenodd;fill:rgb(81.568627%,81.176471%,78.823529%);fill-opacity:1;" d="M 36.875 19.503906 C 36.945312 19.527344 36.976562 19.578125 36.972656 19.648438 C 36.90625 19.628906 36.871094 19.578125 36.875 19.503906 Z M 36.875 19.503906 "/>
</g>
<mask id="mask15">
  <g filter="url(#alpha)">
<rect x="0" y="0" width="50" height="50" style="fill:rgb(0%,0%,0%);fill-opacity:0.968627;stroke:none;"/>
  </g>
</mask>
<clipPath id="clip16">
  <rect width="50" height="50"/>
</clipPath>
<g id="surface51" clip-path="url(#clip16)">
<path style=" stroke:none;fill-rule:evenodd;fill:rgb(93.72549%,92.156863%,89.411765%);fill-opacity:1;" d="M 46.328125 21.234375 C 45.605469 21.90625 44.804688 22.007812 43.929688 21.546875 C 43.660156 21.300781 43.421875 21.035156 43.210938 20.753906 C 43.371094 20.34375 43.515625 19.929688 43.640625 19.503906 C 43.902344 19.839844 44.191406 20.152344 44.503906 20.441406 C 45.035156 20.90625 45.640625 21.167969 46.328125 21.234375 Z M 46.328125 21.234375 "/>
</g>
<mask id="mask16">
  <g filter="url(#alpha)">
<rect x="0" y="0" width="50" height="50" style="fill:rgb(0%,0%,0%);fill-opacity:0.0627451;stroke:none;"/>
  </g>
</mask>
<clipPath id="clip17">
  <rect width="50" height="50"/>
</clipPath>
<g id="surface54" clip-path="url(#clip17)">
<path style=" stroke:none;fill-rule:evenodd;fill:rgb(83.137255%,82.352941%,80.392157%);fill-opacity:1;" d="M 36.972656 19.648438 C 37.058594 19.6875 37.105469 19.75 37.117188 19.839844 C 37.03125 19.804688 36.984375 19.742188 36.972656 19.648438 Z M 36.972656 19.648438 "/>
</g>
<mask id="mask17">
  <g filter="url(#alpha)">
<rect x="0" y="0" width="50" height="50" style="fill:rgb(0%,0%,0%);fill-opacity:0.980392;stroke:none;"/>
  </g>
</mask>
<clipPath id="clip18">
  <rect width="50" height="50"/>
</clipPath>
<g id="surface57" clip-path="url(#clip18)">
<path style=" stroke:none;fill-rule:evenodd;fill:rgb(7.843137%,14.509804%,15.294118%);fill-opacity:1;" d="M 16.050781 21.714844 C 16.097656 23.007812 16.109375 24.304688 16.074219 25.601562 C 16.03125 26.90625 15.710938 28.136719 15.113281 29.292969 C 14.828125 29.804688 14.421875 30.179688 13.890625 30.421875 C 13.671875 30.480469 13.449219 30.503906 13.21875 30.496094 C 12.449219 30.355469 11.792969 30.003906 11.253906 29.4375 C 11.058594 29.230469 10.867188 29.019531 10.675781 28.816406 C 10.542969 29.273438 10.382812 29.71875 10.195312 30.160156 C 9.574219 31.597656 8.503906 32.125 6.980469 31.742188 C 6.304688 31.445312 5.722656 31.015625 5.230469 30.445312 C 3.933594 28.875 2.765625 27.210938 1.726562 25.457031 C 1.425781 24.949219 1.441406 24.453125 1.777344 23.96875 C 1.886719 23.824219 2.003906 23.699219 2.136719 23.585938 C 2.734375 23.171875 3.390625 23.066406 4.101562 23.273438 C 4.535156 23.402344 4.933594 23.59375 5.300781 23.847656 C 5.710938 24.152344 6.078125 24.496094 6.40625 24.878906 C 6.582031 25.199219 6.78125 25.5 7.003906 25.792969 C 7 25.210938 7.046875 24.632812 7.148438 24.0625 C 7.28125 23.738281 7.480469 23.464844 7.75 23.25 C 8.027344 23.085938 8.332031 23.023438 8.660156 23.054688 C 8.933594 23.152344 9.191406 23.289062 9.429688 23.464844 C 9.808594 23.816406 10.191406 24.164062 10.582031 24.496094 C 10.671875 24.660156 10.792969 24.804688 10.941406 24.929688 C 10.980469 24.757812 10.972656 24.597656 10.917969 24.449219 C 10.914062 23.457031 11.082031 22.496094 11.421875 21.570312 C 11.53125 21.3125 11.667969 21.074219 11.828125 20.847656 C 12.496094 20.066406 13.34375 19.742188 14.371094 19.867188 C 14.824219 19.96875 15.269531 20.082031 15.714844 20.203125 C 15.800781 20.238281 15.871094 20.296875 15.929688 20.371094 C 15.976562 20.824219 16.019531 21.273438 16.050781 21.714844 Z M 15.1875 23.726562 C 15.171875 24.980469 15.082031 26.230469 14.921875 27.472656 C 14.785156 28.003906 14.542969 28.484375 14.203125 28.910156 C 14.121094 29 14.035156 29.082031 13.941406 29.152344 C 14.210938 27.921875 14.476562 26.691406 14.730469 25.457031 C 14.855469 24.867188 15.007812 24.289062 15.1875 23.726562 Z M 6.117188 25.695312 C 6.007812 26.117188 5.871094 26.535156 5.710938 26.945312 C 4.808594 25.9375 3.953125 24.898438 3.144531 23.824219 C 3.644531 23.78125 4.105469 23.898438 4.535156 24.183594 C 5.164062 24.582031 5.691406 25.085938 6.117188 25.695312 Z M 9.621094 29.488281 C 9.429688 30.167969 9.0625 30.734375 8.515625 31.191406 C 8.253906 31.28125 7.980469 31.320312 7.703125 31.308594 C 8.332031 30.621094 8.820312 29.839844 9.164062 28.957031 C 9.316406 29.136719 9.46875 29.3125 9.621094 29.488281 Z M 9.621094 29.488281 "/>
</g>
<mask id="mask18">
  <g filter="url(#alpha)">
<rect x="0" y="0" width="50" height="50" style="fill:rgb(0%,0%,0%);fill-opacity:0.913725;stroke:none;"/>
  </g>
</mask>
<clipPath id="clip19">
  <rect width="50" height="50"/>
</clipPath>
<g id="surface60" clip-path="url(#clip19)">
<path style=" stroke:none;fill-rule:evenodd;fill:rgb(92.941176%,91.372549%,88.627451%);fill-opacity:1;" d="M 37.117188 19.839844 C 37.515625 20.3125 37.90625 20.792969 38.292969 21.28125 C 38.929688 22.011719 39.722656 22.457031 40.667969 22.625 C 39.746094 22.925781 38.988281 22.699219 38.386719 21.953125 C 37.976562 21.238281 37.550781 20.535156 37.117188 19.839844 Z M 37.117188 19.839844 "/>
</g>
<mask id="mask19">
  <g filter="url(#alpha)">
<rect x="0" y="0" width="50" height="50" style="fill:rgb(0%,0%,0%);fill-opacity:0.992157;stroke:none;"/>
  </g>
</mask>
<clipPath id="clip20">
  <rect width="50" height="50"/>
</clipPath>
<g id="surface63" clip-path="url(#clip20)">
<path style=" stroke:none;fill-rule:evenodd;fill:rgb(94.117647%,92.54902%,89.803922%);fill-opacity:1;" d="M 15.1875 23.726562 C 15.007812 24.289062 14.855469 24.867188 14.730469 25.457031 C 14.476562 26.691406 14.210938 27.921875 13.941406 29.152344 C 13.636719 29.578125 13.222656 29.761719 12.691406 29.703125 C 12.375 29.59375 12.089844 29.433594 11.828125 29.222656 C 11.402344 28.789062 11 28.332031 10.628906 27.855469 C 10.410156 27.757812 10.242188 27.804688 10.125 28 C 10.078125 28.191406 10.027344 28.382812 9.980469 28.574219 C 9.910156 28.609375 9.84375 28.660156 9.789062 28.71875 C 9.757812 28.941406 9.726562 29.167969 9.691406 29.390625 C 9.679688 29.433594 9.65625 29.464844 9.621094 29.488281 C 9.46875 29.3125 9.316406 29.136719 9.164062 28.957031 C 8.820312 29.839844 8.332031 30.621094 7.703125 31.308594 C 7.371094 31.289062 7.066406 31.183594 6.789062 31 C 6.429688 30.625 6.054688 30.261719 5.664062 29.917969 C 4.421875 28.367188 3.207031 26.800781 2.015625 25.214844 C 1.953125 24.652344 2.167969 24.230469 2.664062 23.945312 C 2.808594 23.847656 2.96875 23.808594 3.144531 23.824219 C 3.953125 24.898438 4.808594 25.9375 5.710938 26.945312 C 5.871094 26.535156 6.007812 26.117188 6.117188 25.695312 C 6.234375 25.8125 6.335938 25.941406 6.429688 26.078125 C 6.617188 26.390625 6.800781 26.703125 6.980469 27.015625 C 7.183594 27.042969 7.359375 26.988281 7.507812 26.847656 C 7.589844 26.195312 7.628906 25.539062 7.628906 24.878906 C 7.773438 23.820312 8.296875 23.570312 9.1875 24.136719 C 9.816406 24.730469 10.40625 25.355469 10.964844 26.007812 C 11.285156 26.167969 11.476562 26.070312 11.539062 25.71875 C 11.53125 25.628906 11.5 25.550781 11.445312 25.480469 C 11.550781 24.667969 11.6875 23.859375 11.851562 23.054688 C 11.953125 22.5625 12.09375 22.082031 12.285156 21.617188 C 12.804688 20.746094 13.5625 20.417969 14.5625 20.632812 C 14.789062 20.703125 14.996094 20.796875 15.1875 20.921875 C 15.25 21.855469 15.25 22.792969 15.1875 23.726562 Z M 15.1875 23.726562 "/>
</g>
<mask id="mask20">
  <g filter="url(#alpha)">
<rect x="0" y="0" width="50" height="50" style="fill:rgb(0%,0%,0%);fill-opacity:0.74902;stroke:none;"/>
  </g>
</mask>
<clipPath id="clip21">
  <rect width="50" height="50"/>
</clipPath>
<g id="surface66" clip-path="url(#clip21)">
<path style=" stroke:none;fill-rule:evenodd;fill:rgb(90.588235%,89.411765%,86.666667%);fill-opacity:1;" d="M 8.660156 23.054688 C 9.144531 23.085938 9.554688 23.277344 9.886719 23.632812 C 10.128906 23.914062 10.359375 24.203125 10.582031 24.496094 C 10.191406 24.164062 9.808594 23.816406 9.429688 23.464844 C 9.191406 23.289062 8.933594 23.152344 8.660156 23.054688 Z M 8.660156 23.054688 "/>
</g>
<mask id="mask21">
  <g filter="url(#alpha)">
<rect x="0" y="0" width="50" height="50" style="fill:rgb(0%,0%,0%);fill-opacity:0.937255;stroke:none;"/>
  </g>
</mask>
<clipPath id="clip22">
  <rect width="50" height="50"/>
</clipPath>
<g id="surface69" clip-path="url(#clip22)">
<path style=" stroke:none;fill-rule:evenodd;fill:rgb(93.72549%,92.156863%,89.411765%);fill-opacity:1;" d="M 19.265625 22.914062 C 20.027344 24.015625 20.832031 25.085938 21.6875 26.128906 C 21.921875 26.378906 22.171875 26.609375 22.433594 26.824219 C 23.878906 27.878906 25.175781 27.726562 26.320312 26.367188 C 26.234375 27.027344 25.960938 27.59375 25.503906 28.070312 C 24.875 28.5625 24.1875 28.675781 23.441406 28.40625 C 23.210938 28.273438 23.011719 28.105469 22.839844 27.902344 C 21.742188 26.660156 20.734375 25.347656 19.816406 23.96875 C 19.621094 23.621094 19.4375 23.269531 19.265625 22.914062 Z M 19.265625 22.914062 "/>
</g>
<mask id="mask22">
  <g filter="url(#alpha)">
<rect x="0" y="0" width="50" height="50" style="fill:rgb(0%,0%,0%);fill-opacity:0.937255;stroke:none;"/>
  </g>
</mask>
<clipPath id="clip23">
  <rect width="50" height="50"/>
</clipPath>
<g id="surface72" clip-path="url(#clip23)">
<path style=" stroke:none;fill-rule:evenodd;fill:rgb(92.54902%,91.372549%,88.627451%);fill-opacity:1;" d="M 7.75 23.25 C 7.480469 23.464844 7.28125 23.738281 7.148438 24.0625 C 7.046875 24.632812 7 25.210938 7.003906 25.792969 C 6.78125 25.5 6.582031 25.199219 6.40625 24.878906 C 6.585938 24.105469 7.03125 23.558594 7.75 23.25 Z M 7.75 23.25 "/>
</g>
<mask id="mask23">
  <g filter="url(#alpha)">
<rect x="0" y="0" width="50" height="50" style="fill:rgb(0%,0%,0%);fill-opacity:0.960784;stroke:none;"/>
  </g>
</mask>
<clipPath id="clip24">
  <rect width="50" height="50"/>
</clipPath>
<g id="surface75" clip-path="url(#clip24)">
<path style=" stroke:none;fill-rule:evenodd;fill:rgb(94.117647%,92.54902%,89.803922%);fill-opacity:1;" d="M 2.136719 23.585938 C 2.003906 23.699219 1.886719 23.824219 1.777344 23.96875 C 1.441406 24.453125 1.425781 24.949219 1.726562 25.457031 C 2.765625 27.210938 3.933594 28.875 5.230469 30.445312 C 5.722656 31.015625 6.304688 31.445312 6.980469 31.742188 C 6.515625 31.9375 6.054688 31.929688 5.589844 31.71875 C 4.863281 31.375 4.246094 30.886719 3.742188 30.253906 C 2.59375 28.679688 1.683594 26.96875 1.007812 25.121094 C 0.910156 24.265625 1.289062 23.753906 2.136719 23.585938 Z M 2.136719 23.585938 "/>
</g>
<mask id="mask24">
  <g filter="url(#alpha)">
<rect x="0" y="0" width="50" height="50" style="fill:rgb(0%,0%,0%);fill-opacity:0.972549;stroke:none;"/>
  </g>
</mask>
<clipPath id="clip25">
  <rect width="50" height="50"/>
</clipPath>
<g id="surface78" clip-path="url(#clip25)">
<path style=" stroke:none;fill-rule:evenodd;fill:rgb(93.72549%,92.156863%,89.411765%);fill-opacity:1;" d="M 13.21875 30.496094 C 12.441406 31.109375 11.609375 31.179688 10.722656 30.710938 C 10.539062 30.53125 10.363281 30.347656 10.195312 30.160156 C 10.382812 29.71875 10.542969 29.273438 10.675781 28.816406 C 10.867188 29.019531 11.058594 29.230469 11.253906 29.4375 C 11.792969 30.003906 12.449219 30.355469 13.21875 30.496094 Z M 13.21875 30.496094 "/>
</g>
</defs>
<g id="surface1">
<use xlink:href="#surface6" mask="url(#mask0)"/>
<use xlink:href="#surface9" mask="url(#mask1)"/>
<path style=" stroke:none;fill-rule:evenodd;fill:rgb(9.019608%,15.294118%,16.078431%);fill-opacity:1;" d="M 47.144531 11.972656 C 47.25 11.957031 47.339844 11.988281 47.410156 12.066406 C 47.6875 12.578125 47.785156 13.121094 47.695312 13.699219 C 47.644531 13.921875 47.507812 13.992188 47.289062 13.914062 C 47.265625 13.890625 47.242188 13.867188 47.21875 13.84375 C 47.304688 13.261719 47.25 12.695312 47.050781 12.140625 C 47.070312 12.078125 47.105469 12.023438 47.144531 11.972656 Z M 47.144531 11.972656 "/>
<use xlink:href="#surface12" mask="url(#mask2)"/>
<use xlink:href="#surface15" mask="url(#mask3)"/>
<path style=" stroke:none;fill-rule:evenodd;fill:rgb(38.823529%,41.960784%,41.176471%);fill-opacity:1;" d="M 43.882812 14.753906 C 43.945312 15.035156 43.945312 15.324219 43.882812 15.617188 C 43.851562 15.613281 43.835938 15.597656 43.832031 15.570312 C 43.882812 15.355469 43.898438 15.132812 43.882812 14.898438 C 43.882812 14.851562 43.882812 14.804688 43.882812 14.753906 Z M 43.882812 14.753906 "/>
<use xlink:href="#surface18" mask="url(#mask4)"/>
<use xlink:href="#surface21" mask="url(#mask5)"/>
<use xlink:href="#surface24" mask="url(#mask6)"/>
<use xlink:href="#surface27" mask="url(#mask7)"/>
<path style=" stroke:none;fill-rule:evenodd;fill:rgb(10.196078%,16.470588%,17.254902%);fill-opacity:1;" d="M 30.636719 16.867188 C 30.730469 16.855469 30.800781 16.890625 30.855469 16.960938 C 31.207031 17.539062 31.285156 18.144531 31.09375 18.785156 C 30.9375 18.921875 30.792969 18.90625 30.664062 18.738281 C 30.671875 18.386719 30.671875 18.035156 30.664062 17.683594 C 30.632812 17.476562 30.578125 17.273438 30.496094 17.082031 C 30.535156 17.003906 30.582031 16.933594 30.636719 16.867188 Z M 30.636719 16.867188 "/>
<use xlink:href="#surface30" mask="url(#mask8)"/>
<use xlink:href="#surface33" mask="url(#mask9)"/>
<use xlink:href="#surface36" mask="url(#mask10)"/>
<use xlink:href="#surface39" mask="url(#mask11)"/>
<use xlink:href="#surface42" mask="url(#mask12)"/>
<use xlink:href="#surface45" mask="url(#mask13)"/>
<use xlink:href="#surface48" mask="url(#mask14)"/>
<use xlink:href="#surface51" mask="url(#mask15)"/>
<path style=" stroke:none;fill-rule:evenodd;fill:rgb(9.411765%,15.686275%,16.470588%);fill-opacity:1;" d="M 39.324219 19.648438 C 39.394531 19.636719 39.457031 19.652344 39.515625 19.699219 C 39.824219 20.125 40.199219 20.476562 40.644531 20.753906 C 40.734375 21.023438 40.648438 21.125 40.378906 21.066406 C 39.933594 20.730469 39.574219 20.324219 39.300781 19.839844 C 39.273438 19.773438 39.28125 19.710938 39.324219 19.648438 Z M 39.324219 19.648438 "/>
<use xlink:href="#surface54" mask="url(#mask16)"/>
<path style=" stroke:none;fill-rule:evenodd;fill:rgb(10.588235%,16.862745%,17.647059%);fill-opacity:1;" d="M 38.554688 19.648438 C 38.628906 19.648438 38.683594 19.683594 38.722656 19.746094 C 38.9375 20.039062 39.167969 20.320312 39.417969 20.585938 C 39.648438 20.753906 39.863281 20.9375 40.066406 21.136719 C 40.125 21.335938 40.050781 21.410156 39.851562 21.351562 C 39.28125 20.929688 38.835938 20.398438 38.507812 19.769531 C 38.519531 19.726562 38.535156 19.6875 38.554688 19.648438 Z M 38.554688 19.648438 "/>
<use xlink:href="#surface57" mask="url(#mask17)"/>
<use xlink:href="#surface60" mask="url(#mask18)"/>
<use xlink:href="#surface63" mask="url(#mask19)"/>
<path style=" stroke:none;fill-rule:evenodd;fill:rgb(9.019608%,15.294118%,16.078431%);fill-opacity:1;" d="M 14.179688 21.234375 C 14.285156 21.21875 14.375 21.25 14.445312 21.328125 C 14.777344 21.9375 14.835938 22.558594 14.609375 23.199219 C 14.460938 23.277344 14.339844 23.246094 14.25 23.105469 C 14.328125 22.523438 14.269531 21.957031 14.082031 21.402344 C 14.105469 21.339844 14.136719 21.28125 14.179688 21.234375 Z M 14.179688 21.234375 "/>
<use xlink:href="#surface66" mask="url(#mask20)"/>
<use xlink:href="#surface69" mask="url(#mask21)"/>
<use xlink:href="#surface72" mask="url(#mask22)"/>
<use xlink:href="#surface75" mask="url(#mask23)"/>
<path style=" stroke:none;fill-rule:evenodd;fill:rgb(68.627451%,69.019608%,67.45098%);fill-opacity:1;" d="M 10.917969 24.449219 C 10.972656 24.597656 10.980469 24.757812 10.941406 24.929688 C 10.792969 24.804688 10.671875 24.660156 10.582031 24.496094 C 10.675781 24.566406 10.761719 24.644531 10.84375 24.734375 C 10.882812 24.644531 10.90625 24.546875 10.917969 24.449219 Z M 10.917969 24.449219 "/>
<path style=" stroke:none;fill-rule:evenodd;fill:rgb(10.588235%,16.862745%,17.254902%);fill-opacity:1;" d="M 22 24.59375 C 22.050781 24.585938 22.097656 24.59375 22.144531 24.617188 C 22.519531 25.164062 22.976562 25.636719 23.511719 26.03125 C 23.535156 26.109375 23.542969 26.191406 23.535156 26.273438 C 23.417969 26.28125 23.304688 26.257812 23.199219 26.199219 C 22.6875 25.773438 22.273438 25.269531 21.953125 24.6875 C 21.96875 24.65625 21.988281 24.625 22 24.59375 Z M 22 24.59375 "/>
<path style=" stroke:none;fill-rule:evenodd;fill:rgb(10.588235%,16.862745%,17.647059%);fill-opacity:1;" d="M 22.769531 24.542969 C 22.820312 24.535156 22.867188 24.546875 22.914062 24.566406 C 23.261719 25.011719 23.667969 25.386719 24.136719 25.695312 C 24.183594 25.929688 24.097656 26.03125 23.871094 26.007812 C 23.410156 25.65625 23.035156 25.234375 22.746094 24.734375 C 22.71875 24.667969 22.726562 24.605469 22.769531 24.542969 Z M 22.769531 24.542969 "/>
<use xlink:href="#surface78" mask="url(#mask24)"/>
<path style=" stroke:none;fill-rule:evenodd;fill:rgb(10.196078%,16.470588%,17.254902%);fill-opacity:1;" d="M 6.359375 28.910156 C 6.410156 28.902344 6.457031 28.910156 6.5 28.933594 C 6.847656 29.359375 7.238281 29.734375 7.675781 30.0625 C 7.75 30.277344 7.675781 30.382812 7.460938 30.375 C 6.976562 30.015625 6.589844 29.566406 6.308594 29.03125 C 6.320312 28.988281 6.335938 28.949219 6.359375 28.910156 Z M 6.359375 28.910156 "/>
<path style=" stroke:none;fill-rule:evenodd;fill:rgb(10.196078%,16.078431%,16.862745%);fill-opacity:1;" d="M 5.589844 28.957031 C 5.828125 29.09375 6.011719 29.285156 6.140625 29.535156 C 6.453125 29.832031 6.773438 30.121094 7.101562 30.398438 C 7.15625 30.597656 7.085938 30.671875 6.886719 30.613281 C 6.410156 30.285156 6.019531 29.875 5.710938 29.390625 C 5.609375 29.253906 5.566406 29.109375 5.589844 28.957031 Z M 5.589844 28.957031 "/>
</g>
</svg>
