<?xml version="1.0" encoding="UTF-8"?>
<svg xmlns="http://www.w3.org/2000/svg" xmlns:xlink="http://www.w3.org/1999/xlink" width="50pt" height="50pt" viewBox="0 0 50 50" version="1.1">
<defs>
<filter id="alpha" filterUnits="objectBoundingBox" x="0%" y="0%" width="100%" height="100%">
  <feColorMatrix type="matrix" in="SourceGraphic" values="0 0 0 0 1 0 0 0 0 1 0 0 0 0 1 0 0 0 1 0"/>
</filter>
<mask id="mask0">
  <g filter="url(#alpha)">
<rect x="0" y="0" width="50" height="50" style="fill:rgb(0%,0%,0%);fill-opacity:0.960784;stroke:none;"/>
  </g>
</mask>
<clipPath id="clip1">
  <rect width="50" height="50"/>
</clipPath>
<g id="surface6" clip-path="url(#clip1)">
<path style=" stroke:none;fill-rule:evenodd;fill:rgb(3.137255%,3.137255%,3.529412%);fill-opacity:1;" d="M 49.640625 18.210938 C 49.546875 18.882812 49.386719 19.539062 49.160156 20.175781 C 49.140625 20.222656 49.105469 20.261719 49.0625 20.296875 C 48.960938 20.304688 48.855469 20.3125 48.753906 20.320312 C 48.039062 20.261719 47.328125 20.261719 46.617188 20.320312 C 46.261719 21.09375 45.8125 21.804688 45.273438 22.457031 C 45.695312 23.160156 46.070312 23.890625 46.402344 24.640625 C 46.457031 24.839844 46.386719 24.976562 46.183594 25.046875 C 44.964844 25.691406 43.667969 26.101562 42.296875 26.273438 C 42.21875 26.257812 42.144531 26.226562 42.082031 26.175781 C 41.808594 25.414062 41.464844 24.683594 41.050781 23.992188 C 40.238281 24.019531 39.421875 24.019531 38.605469 23.992188 C 38.238281 24.667969 37.878906 25.347656 37.523438 26.03125 C 37.464844 26.097656 37.390625 26.144531 37.308594 26.175781 C 36.042969 25.683594 34.980469 24.917969 34.117188 23.871094 C 34.085938 23.777344 34.085938 23.679688 34.117188 23.585938 C 34.585938 22.949219 35.023438 22.292969 35.4375 21.617188 C 34.90625 20.84375 34.449219 20.027344 34.070312 19.167969 C 33.269531 19.371094 32.464844 19.53125 31.644531 19.648438 C 31.539062 19.65625 31.453125 19.625 31.382812 19.554688 C 31 17.890625 31.121094 16.269531 31.742188 14.683594 C 31.796875 14.652344 31.851562 14.628906 31.910156 14.609375 C 32.777344 14.847656 33.648438 15.070312 34.523438 15.28125 C 34.558594 15.265625 34.589844 15.25 34.621094 15.234375 C 35.015625 14.460938 35.449219 13.707031 35.917969 12.980469 C 35.421875 12.308594 34.972656 11.605469 34.574219 10.867188 C 34.6875 10.679688 34.832031 10.511719 35.003906 10.363281 C 35.925781 9.625 36.933594 9.015625 38.027344 8.542969 C 38.25 8.46875 38.402344 8.539062 38.484375 8.757812 C 38.855469 9.464844 39.199219 10.183594 39.515625 10.917969 C 39.5625 10.933594 39.609375 10.949219 39.660156 10.964844 C 40.519531 10.855469 41.386719 10.808594 42.25 10.820312 C 42.644531 9.992188 43.089844 9.203125 43.59375 8.445312 C 43.640625 8.4375 43.691406 8.429688 43.738281 8.421875 C 44.042969 8.519531 44.332031 8.652344 44.601562 8.828125 C 45.652344 9.460938 46.621094 10.207031 47.503906 11.058594 C 47.664062 11.253906 47.664062 11.445312 47.503906 11.636719 C 47.007812 12.308594 46.539062 12.996094 46.089844 13.699219 C 46.363281 14.347656 46.621094 15.003906 46.855469 15.667969 C 47.722656 15.785156 48.570312 15.984375 49.398438 16.265625 C 49.5 16.304688 49.589844 16.359375 49.664062 16.433594 C 49.75 17.03125 49.738281 17.621094 49.640625 18.210938 Z M 39.996094 15.042969 C 41.347656 15.105469 41.945312 15.808594 41.792969 17.15625 C 41.367188 18.292969 40.558594 18.714844 39.371094 18.425781 C 38.777344 18.25 38.523438 17.851562 38.605469 17.226562 C 38.589844 16.488281 38.84375 15.863281 39.371094 15.355469 C 39.570312 15.222656 39.777344 15.121094 39.996094 15.042969 Z M 39.996094 15.042969 "/>
</g>
<mask id="mask1">
  <g filter="url(#alpha)">
<rect x="0" y="0" width="50" height="50" style="fill:rgb(0%,0%,0%);fill-opacity:0.952941;stroke:none;"/>
  </g>
</mask>
<clipPath id="clip2">
  <rect width="50" height="50"/>
</clipPath>
<g id="surface9" clip-path="url(#clip2)">
<path style=" stroke:none;fill-rule:evenodd;fill:rgb(2.745098%,2.745098%,3.137255%);fill-opacity:1;" d="M 15.523438 44.890625 C 15.550781 44.878906 15.566406 44.855469 15.570312 44.816406 C 15.527344 44.617188 15.488281 44.417969 15.449219 44.21875 C 15.433594 44.191406 15.410156 44.175781 15.378906 44.167969 C 15.082031 42.964844 14.445312 41.980469 13.460938 41.21875 C 12.851562 40.769531 12.179688 40.609375 11.445312 40.738281 C 10.363281 41.003906 9.375 41.449219 8.46875 42.082031 C 8.203125 42.316406 7.96875 42.582031 7.773438 42.875 C 7.613281 43.097656 7.429688 43.121094 7.222656 42.945312 C 6.035156 42 4.921875 40.96875 3.886719 39.851562 C 3.523438 39.429688 3.171875 38.996094 2.832031 38.554688 C 2.800781 38.425781 2.800781 38.300781 2.832031 38.171875 C 4.421875 36.808594 5.175781 35.082031 5.085938 32.988281 C 4.941406 32.476562 4.664062 32.054688 4.246094 31.71875 C 3.070312 30.914062 1.777344 30.402344 0.359375 30.183594 C 0.273438 30.167969 0.199219 30.128906 0.144531 30.0625 C 0.46875 27.617188 1.089844 25.25 2.015625 22.960938 C 2.070312 22.890625 2.140625 22.859375 2.230469 22.863281 C 3.675781 23.285156 5.097656 23.230469 6.5 22.695312 C 7.1875 22.40625 7.707031 21.933594 8.0625 21.28125 C 8.75 20.105469 8.992188 18.84375 8.78125 17.492188 C 8.675781 16.902344 8.523438 16.324219 8.324219 15.761719 C 8.320312 15.648438 8.367188 15.558594 8.46875 15.5 C 9.296875 15.132812 10.144531 14.8125 11.011719 14.539062 C 12.480469 14.085938 13.953125 13.644531 15.425781 13.21875 C 15.515625 13.214844 15.589844 13.246094 15.644531 13.316406 C 15.640625 13.589844 15.6875 13.863281 15.785156 14.132812 C 17.109375 16.84375 19.277344 18.035156 22.289062 17.707031 C 23.59375 17.351562 24.664062 16.648438 25.503906 15.59375 C 25.605469 15.566406 25.703125 15.582031 25.792969 15.644531 C 27.316406 17.230469 28.730469 18.902344 30.039062 20.65625 C 30.320312 21.054688 30.585938 21.460938 30.832031 21.882812 C 30.8125 21.941406 30.789062 21.996094 30.757812 22.050781 C 28.890625 23.59375 28.203125 25.558594 28.695312 27.949219 C 29.402344 30.046875 30.816406 31.414062 32.941406 32.054688 C 32.976562 32.121094 33.011719 32.195312 33.039062 32.269531 C 32.375 34.609375 31.433594 36.824219 30.207031 38.914062 C 30.152344 38.945312 30.097656 38.96875 30.039062 38.988281 C 29.402344 38.707031 28.757812 38.457031 28.09375 38.242188 C 26.203125 37.667969 24.757812 38.21875 23.753906 39.898438 C 23.421875 40.519531 23.199219 41.175781 23.082031 41.867188 C 22.945312 42.726562 22.832031 43.589844 22.746094 44.457031 C 22.726562 44.5 22.703125 44.542969 22.671875 44.578125 C 20.417969 45.085938 18.140625 45.378906 15.835938 45.464844 C 15.746094 45.433594 15.664062 45.386719 15.59375 45.320312 C 15.578125 45.175781 15.554688 45.03125 15.523438 44.890625 Z M 12.980469 31.023438 C 12.941406 30.726562 12.894531 30.4375 12.835938 30.160156 C 12.910156 28.347656 13.613281 26.835938 14.945312 25.625 C 16.21875 24.648438 17.597656 24.472656 19.074219 25.097656 C 20.664062 26.09375 21.496094 27.542969 21.570312 29.4375 C 21.5 31.183594 20.734375 32.519531 19.265625 33.445312 C 17.226562 34.371094 15.410156 34.042969 13.820312 32.460938 C 13.453125 32.03125 13.171875 31.550781 12.980469 31.023438 Z M 12.980469 31.023438 "/>
</g>
<mask id="mask2">
  <g filter="url(#alpha)">
<rect x="0" y="0" width="50" height="50" style="fill:rgb(0%,0%,0%);fill-opacity:0.968627;stroke:none;"/>
  </g>
</mask>
<clipPath id="clip3">
  <rect width="50" height="50"/>
</clipPath>
<g id="surface12" clip-path="url(#clip3)">
<path style=" stroke:none;fill-rule:evenodd;fill:rgb(3.529412%,3.529412%,3.921569%);fill-opacity:1;" d="M 41.386719 18.5 C 40.8125 18.910156 40.171875 19.046875 39.46875 18.90625 C 39.019531 18.8125 38.652344 18.59375 38.363281 18.257812 C 38.058594 17.347656 38.132812 16.46875 38.578125 15.617188 C 39.320312 14.554688 40.253906 14.335938 41.386719 14.972656 C 42.425781 15.867188 42.578125 16.898438 41.84375 18.066406 C 41.695312 18.21875 41.546875 18.363281 41.386719 18.5 Z M 39.996094 15.042969 C 39.777344 15.121094 39.570312 15.222656 39.371094 15.355469 C 38.84375 15.863281 38.589844 16.488281 38.605469 17.226562 C 38.523438 17.851562 38.777344 18.25 39.371094 18.425781 C 40.558594 18.714844 41.367188 18.292969 41.792969 17.15625 C 41.945312 15.808594 41.347656 15.105469 39.996094 15.042969 Z M 39.996094 15.042969 "/>
</g>
<mask id="mask3">
  <g filter="url(#alpha)">
<rect x="0" y="0" width="50" height="50" style="fill:rgb(0%,0%,0%);fill-opacity:0.839216;stroke:none;"/>
  </g>
</mask>
<clipPath id="clip4">
  <rect width="50" height="50"/>
</clipPath>
<g id="surface15" clip-path="url(#clip4)">
<path style=" stroke:none;fill-rule:evenodd;fill:rgb(73.72549%,73.333333%,74.509804%);fill-opacity:1;" d="M 49.640625 18.210938 C 49.753906 18.324219 49.800781 18.46875 49.785156 18.640625 C 49.746094 19.097656 49.625 19.527344 49.425781 19.9375 C 49.371094 20.0625 49.285156 20.140625 49.160156 20.175781 C 49.386719 19.539062 49.546875 18.882812 49.640625 18.210938 Z M 49.640625 18.210938 "/>
</g>
<mask id="mask4">
  <g filter="url(#alpha)">
<rect x="0" y="0" width="50" height="50" style="fill:rgb(0%,0%,0%);fill-opacity:0.960784;stroke:none;"/>
  </g>
</mask>
<clipPath id="clip5">
  <rect width="50" height="50"/>
</clipPath>
<g id="surface18" clip-path="url(#clip5)">
<path style=" stroke:none;fill-rule:evenodd;fill:rgb(3.137255%,3.137255%,3.529412%);fill-opacity:1;" d="M 20.945312 26.03125 C 22.414062 28.140625 22.46875 30.28125 21.113281 32.460938 C 20.210938 33.691406 19.003906 34.378906 17.492188 34.523438 C 15.667969 34.546875 14.207031 33.84375 13.101562 32.414062 C 12.34375 31.292969 12.136719 30.078125 12.476562 28.765625 C 12.804688 27.394531 13.484375 26.234375 14.515625 25.289062 C 15.867188 24.199219 17.371094 23.925781 19.027344 24.472656 C 19.789062 24.84375 20.429688 25.363281 20.945312 26.03125 Z M 12.980469 31.023438 C 12.941406 30.726562 12.894531 30.4375 12.835938 30.160156 C 12.910156 28.347656 13.613281 26.835938 14.945312 25.625 C 16.21875 24.648438 17.597656 24.472656 19.074219 25.097656 C 20.664062 26.09375 21.496094 27.542969 21.570312 29.4375 C 21.5 31.183594 20.734375 32.519531 19.265625 33.445312 C 17.226562 34.371094 15.410156 34.042969 13.820312 32.460938 C 13.453125 32.03125 13.171875 31.550781 12.980469 31.023438 Z M 12.980469 31.023438 "/>
</g>
<mask id="mask5">
  <g filter="url(#alpha)">
<rect x="0" y="0" width="50" height="50" style="fill:rgb(0%,0%,0%);fill-opacity:0.282353;stroke:none;"/>
  </g>
</mask>
<clipPath id="clip6">
  <rect width="50" height="50"/>
</clipPath>
<g id="surface21" clip-path="url(#clip6)">
<path style=" stroke:none;fill-rule:evenodd;fill:rgb(82.745098%,82.745098%,82.745098%);fill-opacity:1;" d="M 12.835938 30.160156 C 12.894531 30.4375 12.941406 30.726562 12.980469 31.023438 C 12.871094 30.75 12.824219 30.460938 12.835938 30.160156 Z M 12.835938 30.160156 "/>
</g>
<mask id="mask6">
  <g filter="url(#alpha)">
<rect x="0" y="0" width="50" height="50" style="fill:rgb(0%,0%,0%);fill-opacity:0.705882;stroke:none;"/>
  </g>
</mask>
<clipPath id="clip7">
  <rect width="50" height="50"/>
</clipPath>
<g id="surface24" clip-path="url(#clip7)">
<path style=" stroke:none;fill-rule:evenodd;fill:rgb(69.019608%,68.627451%,69.803922%);fill-opacity:1;" d="M 15.378906 44.167969 C 15.410156 44.175781 15.433594 44.191406 15.449219 44.21875 C 15.488281 44.417969 15.527344 44.617188 15.570312 44.816406 C 15.566406 44.855469 15.550781 44.878906 15.523438 44.890625 C 15.402344 44.667969 15.355469 44.425781 15.378906 44.167969 Z M 15.378906 44.167969 "/>
</g>
</defs>
<g id="surface1">
<use xlink:href="#surface6" mask="url(#mask0)"/>
<path style=" stroke:none;fill-rule:evenodd;fill:rgb(99.215686%,99.215686%,99.215686%);fill-opacity:1;" d="M 49.257812 17.875 C 48.890625 17.804688 48.59375 17.917969 48.367188 18.210938 C 48.222656 18.546875 48.082031 18.882812 47.9375 19.21875 C 47.902344 19.429688 47.910156 19.636719 47.960938 19.839844 C 47.414062 19.824219 46.871094 19.847656 46.328125 19.914062 C 45.941406 20.796875 45.4375 21.605469 44.816406 22.335938 C 44.785156 22.386719 44.785156 22.433594 44.816406 22.480469 C 45.21875 23.1875 45.59375 23.90625 45.945312 24.640625 C 45.902344 24.683594 45.855469 24.714844 45.800781 24.734375 C 45.742188 24.449219 45.582031 24.234375 45.320312 24.089844 C 45.144531 24.054688 44.96875 24.054688 44.792969 24.089844 C 44.449219 24.257812 44.089844 24.375 43.714844 24.449219 C 43.664062 24.433594 43.640625 24.398438 43.640625 24.351562 C 43.789062 24.011719 43.949219 23.675781 44.121094 23.34375 C 44.082031 23.292969 44.03125 23.285156 43.976562 23.320312 C 43.761719 23.726562 43.554688 24.132812 43.355469 24.542969 C 42.78125 24.488281 42.378906 24.710938 42.15625 25.214844 C 41.941406 24.664062 41.679688 24.132812 41.363281 23.632812 C 41.285156 23.558594 41.1875 23.527344 41.074219 23.535156 C 40.734375 23.59375 40.390625 23.625 40.042969 23.632812 C 39.484375 23.589844 38.921875 23.566406 38.363281 23.558594 C 37.984375 24.210938 37.625 24.875 37.285156 25.550781 C 37.25 25.59375 37.210938 25.625 37.164062 25.648438 C 36.71875 25.457031 36.300781 25.214844 35.917969 24.929688 C 35.878906 24.886719 35.832031 24.851562 35.773438 24.832031 C 35.773438 24.800781 35.757812 24.785156 35.722656 24.785156 C 35.664062 24.738281 35.597656 24.6875 35.53125 24.640625 C 35.175781 24.371094 34.855469 24.058594 34.574219 23.703125 C 35.03125 23.054688 35.46875 22.390625 35.890625 21.714844 C 35.925781 21.632812 35.925781 21.554688 35.890625 21.472656 C 35.6875 21.210938 35.496094 20.9375 35.316406 20.65625 C 34.980469 20.027344 34.652344 19.394531 34.332031 18.761719 C 34.203125 18.730469 34.078125 18.730469 33.949219 18.761719 C 33.226562 18.910156 32.507812 19.0625 31.789062 19.21875 C 31.761719 19.207031 31.738281 19.191406 31.71875 19.167969 C 31.441406 17.777344 31.550781 16.417969 32.054688 15.089844 C 32.886719 15.328125 33.726562 15.542969 34.574219 15.738281 C 34.683594 15.773438 34.785156 15.765625 34.886719 15.714844 C 35.347656 14.765625 35.851562 13.847656 36.394531 12.957031 C 36.289062 12.699219 36.136719 12.464844 35.941406 12.261719 C 35.648438 11.820312 35.367188 11.371094 35.101562 10.917969 C 35.976562 10.109375 36.96875 9.46875 38.074219 8.996094 C 38.523438 9.746094 38.90625 10.53125 39.226562 11.347656 C 39.285156 11.414062 39.355469 11.445312 39.445312 11.445312 C 39.828125 11.34375 40.21875 11.289062 40.617188 11.277344 C 41.242188 11.265625 41.867188 11.265625 42.492188 11.277344 C 42.898438 10.457031 43.34375 9.664062 43.832031 8.902344 C 45.050781 9.566406 46.152344 10.382812 47.144531 11.347656 C 46.65625 12.066406 46.167969 12.789062 45.679688 13.507812 C 45.671875 13.554688 45.664062 13.605469 45.65625 13.652344 C 45.9375 14.457031 46.234375 15.253906 46.546875 16.050781 C 46.570312 16.074219 46.59375 16.097656 46.617188 16.121094 C 47.507812 16.183594 48.371094 16.371094 49.207031 16.675781 C 49.257812 17.074219 49.273438 17.472656 49.257812 17.875 Z M 39.996094 15.042969 C 39.777344 15.121094 39.570312 15.222656 39.371094 15.355469 C 38.84375 15.863281 38.589844 16.488281 38.605469 17.226562 C 38.523438 17.851562 38.777344 18.25 39.371094 18.425781 C 40.558594 18.714844 41.367188 18.292969 41.792969 17.15625 C 41.945312 15.808594 41.347656 15.105469 39.996094 15.042969 Z M 39.996094 15.042969 "/>
<path style=" stroke:none;fill-rule:evenodd;fill:rgb(9.411765%,9.411765%,9.803922%);fill-opacity:1;" d="M 36.925781 10.101562 C 37.011719 10.132812 37.035156 10.199219 36.996094 10.292969 C 36.804688 10.679688 36.585938 11.046875 36.347656 11.394531 C 36.300781 11.378906 36.269531 11.347656 36.253906 11.300781 C 36.488281 10.90625 36.714844 10.507812 36.925781 10.101562 Z M 36.925781 10.101562 "/>
<path style=" stroke:none;fill-rule:evenodd;fill:rgb(9.411765%,9.411765%,9.803922%);fill-opacity:1;" d="M 44.121094 10.390625 C 44.210938 10.421875 44.234375 10.488281 44.195312 10.582031 C 43.570312 11.910156 42.984375 13.253906 42.441406 14.609375 C 42.386719 14.519531 42.378906 14.421875 42.417969 14.324219 C 42.921875 12.984375 43.488281 11.671875 44.121094 10.390625 Z M 44.121094 10.390625 "/>
<path style=" stroke:none;fill-rule:evenodd;fill:rgb(8.235294%,8.235294%,8.235294%);fill-opacity:1;" d="M 37.882812 11.109375 C 37.933594 11.109375 37.980469 11.109375 38.027344 11.109375 C 37.09375 13.515625 36.269531 15.960938 35.554688 18.449219 C 35.53125 18.582031 35.476562 18.695312 35.390625 18.785156 C 35.332031 18.695312 35.324219 18.597656 35.363281 18.5 C 36.09375 15.992188 36.933594 13.53125 37.882812 11.109375 Z M 37.882812 11.109375 "/>
<path style=" stroke:none;fill-rule:evenodd;fill:rgb(8.627451%,8.627451%,9.019608%);fill-opacity:1;" d="M 39.082031 12.066406 C 39.132812 12.066406 39.179688 12.066406 39.226562 12.066406 C 38.789062 13.105469 38.347656 14.144531 37.90625 15.1875 C 37.414062 16.523438 36.949219 17.867188 36.515625 19.21875 C 36.472656 19.1875 36.449219 19.148438 36.445312 19.097656 C 37.128906 16.679688 38.011719 14.335938 39.082031 12.066406 Z M 39.082031 12.066406 "/>
<path style=" stroke:none;fill-rule:evenodd;fill:rgb(9.019608%,9.019608%,9.019608%);fill-opacity:1;" d="M 40.953125 12.402344 C 41.011719 12.421875 41.042969 12.460938 41.050781 12.523438 C 40.882812 13.058594 40.714844 13.59375 40.546875 14.132812 C 40.476562 14.191406 40.4375 14.167969 40.425781 14.058594 C 40.570312 13.492188 40.746094 12.941406 40.953125 12.402344 Z M 40.953125 12.402344 "/>
<path style=" stroke:none;fill-rule:evenodd;fill:rgb(9.019608%,9.019608%,9.019608%);fill-opacity:1;" d="M 43.019531 17.539062 C 42.734375 18.121094 42.464844 18.714844 42.203125 19.3125 C 41.65625 20.457031 41.121094 21.605469 40.59375 22.769531 C 40.464844 22.898438 40.417969 22.863281 40.449219 22.671875 C 40.90625 21.71875 41.34375 20.757812 41.769531 19.792969 C 42.152344 18.980469 42.539062 18.164062 42.921875 17.347656 C 43.601562 15.859375 44.28125 14.371094 44.960938 12.882812 C 45.015625 12.738281 45.097656 12.613281 45.203125 12.5 C 45.234375 12.523438 45.257812 12.558594 45.273438 12.597656 C 44.507812 14.238281 43.757812 15.886719 43.019531 17.539062 Z M 43.019531 17.539062 "/>
<use xlink:href="#surface9" mask="url(#mask1)"/>
<path style=" stroke:none;fill-rule:evenodd;fill:rgb(99.607843%,99.607843%,99.607843%);fill-opacity:1;" d="M 32.03125 32.316406 C 31.519531 33.304688 30.984375 34.28125 30.421875 35.246094 C 29.902344 36.019531 29.425781 36.820312 28.984375 37.644531 C 28.972656 37.75 28.949219 37.847656 28.910156 37.933594 C 26.050781 36.847656 24.042969 37.710938 22.890625 40.523438 C 22.601562 41.535156 22.398438 42.558594 22.289062 43.59375 C 22.164062 43.265625 21.925781 43.089844 21.570312 43.066406 C 19.691406 43.625 17.769531 43.832031 15.8125 43.691406 C 15.34375 42.171875 14.402344 41.0625 12.980469 40.355469 C 12.363281 40.171875 11.742188 40.140625 11.109375 40.257812 C 10.003906 40.546875 8.996094 41.027344 8.085938 41.699219 C 7.851562 41.925781 7.628906 42.15625 7.414062 42.394531 C 5.941406 41.210938 4.613281 39.882812 3.429688 38.410156 C 4.8125 37.066406 5.5625 35.425781 5.6875 33.492188 C 5.640625 32.621094 5.289062 31.902344 4.628906 31.332031 C 3.453125 30.484375 2.140625 29.949219 0.695312 29.726562 C 0.800781 29.132812 0.910156 28.542969 1.03125 27.949219 C 1.078125 27.898438 1.09375 27.835938 1.078125 27.757812 C 1.410156 26.316406 1.84375 24.902344 2.375 23.511719 C 3.863281 23.824219 5.316406 23.710938 6.742188 23.175781 C 7.460938 22.839844 8.027344 22.335938 8.445312 21.664062 C 9.507812 19.820312 9.660156 17.902344 8.902344 15.90625 C 9.621094 15.585938 10.355469 15.304688 11.109375 15.066406 C 12.460938 14.636719 13.820312 14.230469 15.1875 13.84375 C 15.886719 16.003906 17.324219 17.421875 19.503906 18.089844 C 21.914062 18.695312 23.953125 18.078125 25.625 16.242188 C 27.300781 17.964844 28.8125 19.8125 30.160156 21.785156 C 28.503906 23.34375 27.808594 25.253906 28.070312 27.519531 C 28.410156 29.246094 29.296875 30.613281 30.734375 31.621094 C 31.15625 31.878906 31.585938 32.113281 32.03125 32.316406 Z M 12.980469 31.023438 C 12.941406 30.726562 12.894531 30.4375 12.835938 30.160156 C 12.910156 28.347656 13.613281 26.835938 14.945312 25.625 C 16.21875 24.648438 17.597656 24.472656 19.074219 25.097656 C 20.664062 26.09375 21.496094 27.542969 21.570312 29.4375 C 21.5 31.183594 20.734375 32.519531 19.265625 33.445312 C 17.226562 34.371094 15.410156 34.042969 13.820312 32.460938 C 13.453125 32.03125 13.171875 31.550781 12.980469 31.023438 Z M 12.980469 31.023438 "/>
<use xlink:href="#surface12" mask="url(#mask2)"/>
<path style=" stroke:none;fill-rule:evenodd;fill:rgb(9.411765%,9.411765%,9.411765%);fill-opacity:1;" d="M 45.464844 16.195312 C 45.511719 16.195312 45.5625 16.195312 45.609375 16.195312 C 44.59375 18.59375 43.515625 20.960938 42.371094 23.296875 C 42.304688 23.242188 42.289062 23.179688 42.324219 23.105469 C 43.382812 20.804688 44.429688 18.503906 45.464844 16.195312 Z M 45.464844 16.195312 "/>
<path style=" stroke:none;fill-rule:evenodd;fill:rgb(10.196078%,10.196078%,10.196078%);fill-opacity:1;" d="M 33.566406 16.242188 C 33.648438 16.28125 33.675781 16.347656 33.636719 16.433594 C 33.351562 17.039062 33.046875 17.628906 32.726562 18.210938 C 32.691406 18.183594 32.667969 18.152344 32.652344 18.113281 C 32.945312 17.480469 33.25 16.859375 33.566406 16.242188 Z M 33.566406 16.242188 "/>
<path style=" stroke:none;fill-rule:evenodd;fill:rgb(9.019608%,9.019608%,9.411765%);fill-opacity:1;" d="M 47.050781 17.105469 C 47.097656 17.105469 47.144531 17.105469 47.191406 17.105469 C 47.199219 17.171875 47.191406 17.238281 47.167969 17.296875 C 46.738281 18.097656 46.304688 18.898438 45.875 19.699219 C 45.742188 19.824219 45.695312 19.792969 45.730469 19.601562 C 46.183594 18.773438 46.621094 17.941406 47.050781 17.105469 Z M 47.050781 17.105469 "/>
<path style=" stroke:none;fill-rule:evenodd;fill:rgb(76.862745%,76.078431%,77.647059%);fill-opacity:1;" d="M 42.921875 17.347656 C 42.539062 18.164062 42.152344 18.980469 41.769531 19.792969 C 41.769531 19.769531 41.75 19.75 41.722656 19.746094 C 40.9375 20.191406 40.121094 20.246094 39.277344 19.914062 C 38.878906 19.734375 38.519531 19.503906 38.195312 19.21875 C 38.121094 19.015625 38.105469 18.808594 38.148438 18.59375 C 38.230469 18.488281 38.304688 18.375 38.363281 18.257812 C 38.652344 18.59375 39.019531 18.8125 39.46875 18.90625 C 40.171875 19.046875 40.8125 18.910156 41.386719 18.5 C 41.390625 18.523438 41.40625 18.539062 41.433594 18.546875 C 41.890625 18.257812 42.210938 17.867188 42.394531 17.371094 C 42.566406 17.285156 42.742188 17.277344 42.921875 17.347656 Z M 42.921875 17.347656 "/>
<path style=" stroke:none;fill-rule:evenodd;fill:rgb(75.294118%,74.509804%,76.078431%);fill-opacity:1;" d="M 43.019531 17.539062 C 42.933594 18.03125 42.765625 18.492188 42.515625 18.929688 C 42.417969 19.066406 42.3125 19.195312 42.203125 19.3125 C 42.464844 18.714844 42.734375 18.121094 43.019531 17.539062 Z M 43.019531 17.539062 "/>
<path style=" stroke:none;fill-rule:evenodd;fill:rgb(76.862745%,76.078431%,77.647059%);fill-opacity:1;" d="M 49.257812 17.875 C 49.203125 18.550781 49.058594 19.207031 48.824219 19.839844 C 48.539062 19.855469 48.253906 19.855469 47.960938 19.839844 C 47.910156 19.636719 47.902344 19.429688 47.9375 19.21875 C 48.082031 18.882812 48.222656 18.546875 48.367188 18.210938 C 48.59375 17.917969 48.890625 17.804688 49.257812 17.875 Z M 49.257812 17.875 "/>
<use xlink:href="#surface15" mask="url(#mask3)"/>
<path style=" stroke:none;fill-rule:evenodd;fill:rgb(9.019608%,9.019608%,9.019608%);fill-opacity:1;" d="M 37.882812 19.121094 C 37.933594 19.121094 37.980469 19.121094 38.027344 19.121094 C 37.472656 20.566406 36.90625 22.003906 36.324219 23.441406 C 36.265625 23.582031 36.191406 23.707031 36.109375 23.824219 C 36.058594 23.808594 36.027344 23.777344 36.011719 23.726562 C 36.65625 22.199219 37.277344 20.664062 37.882812 19.121094 Z M 37.882812 19.121094 "/>
<path style=" stroke:none;fill-rule:evenodd;fill:rgb(9.019608%,9.019608%,9.411765%);fill-opacity:1;" d="M 39.515625 20.082031 C 39.585938 20.078125 39.636719 20.109375 39.660156 20.175781 C 39.359375 20.925781 39.0625 21.679688 38.773438 22.433594 C 38.710938 22.589844 38.628906 22.734375 38.53125 22.863281 C 38.5 22.839844 38.472656 22.808594 38.460938 22.769531 C 38.8125 21.871094 39.164062 20.976562 39.515625 20.082031 Z M 39.515625 20.082031 "/>
<path style=" stroke:none;fill-rule:evenodd;fill:rgb(9.411765%,9.411765%,9.803922%);fill-opacity:1;" d="M 43.640625 24.351562 C 43.59375 24.441406 43.546875 24.539062 43.5 24.640625 C 43.457031 24.683594 43.410156 24.699219 43.355469 24.6875 C 43.355469 24.640625 43.355469 24.59375 43.355469 24.542969 C 43.554688 24.132812 43.761719 23.726562 43.976562 23.320312 C 44.03125 23.285156 44.082031 23.292969 44.121094 23.34375 C 43.949219 23.675781 43.789062 24.011719 43.640625 24.351562 Z M 43.640625 24.351562 "/>
<path style=" stroke:none;fill-rule:evenodd;fill:rgb(76.862745%,76.078431%,77.647059%);fill-opacity:1;" d="M 45.800781 24.734375 C 44.734375 25.316406 43.601562 25.652344 42.394531 25.742188 C 42.324219 25.5625 42.242188 25.386719 42.15625 25.214844 C 42.378906 24.710938 42.78125 24.488281 43.355469 24.542969 C 43.355469 24.59375 43.355469 24.640625 43.355469 24.6875 C 43.410156 24.699219 43.457031 24.683594 43.5 24.640625 C 43.546875 24.539062 43.59375 24.441406 43.640625 24.351562 C 43.640625 24.398438 43.664062 24.433594 43.714844 24.449219 C 44.089844 24.375 44.449219 24.257812 44.792969 24.089844 C 44.96875 24.054688 45.144531 24.054688 45.320312 24.089844 C 45.582031 24.234375 45.742188 24.449219 45.800781 24.734375 Z M 45.800781 24.734375 "/>
<use xlink:href="#surface18" mask="url(#mask4)"/>
<path style=" stroke:none;fill-rule:evenodd;fill:rgb(77.647059%,76.862745%,78.431373%);fill-opacity:1;" d="M 17.492188 34.523438 C 19.003906 34.378906 20.210938 33.691406 21.113281 32.460938 C 22.46875 30.28125 22.414062 28.140625 20.945312 26.03125 C 20.960938 25.855469 21.042969 25.710938 21.183594 25.601562 C 21.507812 26.039062 21.820312 26.488281 22.121094 26.945312 C 22.777344 28.390625 22.890625 29.878906 22.457031 31.40625 C 22.089844 32.109375 21.671875 32.78125 21.210938 33.421875 C 19.914062 34.785156 18.324219 35.386719 16.433594 35.222656 C 15.929688 34.929688 15.433594 34.625 14.945312 34.308594 C 15.03125 34.238281 15.128906 34.222656 15.234375 34.261719 C 15.988281 34.617188 16.769531 34.710938 17.585938 34.550781 C 17.558594 34.527344 17.527344 34.519531 17.492188 34.523438 Z M 17.492188 34.523438 "/>
<use xlink:href="#surface21" mask="url(#mask5)"/>
<path style=" stroke:none;fill-rule:evenodd;fill:rgb(77.254902%,76.470588%,78.039216%);fill-opacity:1;" d="M 32.03125 32.316406 C 32.15625 32.351562 32.285156 32.382812 32.414062 32.414062 C 31.820312 34.496094 30.988281 36.480469 29.917969 38.363281 C 29.574219 38.230469 29.238281 38.085938 28.910156 37.933594 C 28.949219 37.847656 28.972656 37.75 28.984375 37.644531 C 29.425781 36.820312 29.902344 36.019531 30.421875 35.246094 C 30.984375 34.28125 31.519531 33.304688 32.03125 32.316406 Z M 32.03125 32.316406 "/>
<path style=" stroke:none;fill-rule:evenodd;fill:rgb(77.647059%,76.862745%,78.431373%);fill-opacity:1;" d="M 22.289062 43.59375 C 22.304688 43.78125 22.285156 43.96875 22.242188 44.144531 C 20.199219 44.582031 18.136719 44.828125 16.050781 44.890625 C 16.039062 44.476562 15.957031 44.074219 15.8125 43.691406 C 17.769531 43.832031 19.691406 43.625 21.570312 43.066406 C 21.925781 43.089844 22.164062 43.265625 22.289062 43.59375 Z M 22.289062 43.59375 "/>
<use xlink:href="#surface24" mask="url(#mask6)"/>
</g>
</svg>
