<?xml version="1.0" encoding="UTF-8"?>
<svg xmlns="http://www.w3.org/2000/svg" xmlns:xlink="http://www.w3.org/1999/xlink" width="50pt" height="50pt" viewBox="0 0 50 50" version="1.1">
<defs>
<filter id="alpha" filterUnits="objectBoundingBox" x="0%" y="0%" width="100%" height="100%">
  <feColorMatrix type="matrix" in="SourceGraphic" values="0 0 0 0 1 0 0 0 0 1 0 0 0 0 1 0 0 0 1 0"/>
</filter>
<mask id="mask0">
  <g filter="url(#alpha)">
<rect x="0" y="0" width="50" height="50" style="fill:rgb(0%,0%,0%);fill-opacity:0.968627;stroke:none;"/>
  </g>
</mask>
<clipPath id="clip1">
  <rect width="50" height="50"/>
</clipPath>
<g id="surface6" clip-path="url(#clip1)">
<path style=" stroke:none;fill-rule:evenodd;fill:rgb(1.176471%,1.176471%,1.568627%);fill-opacity:1;" d="M 4.453125 4.980469 C 4.710938 4.9375 4.867188 5.042969 4.921875 5.292969 C 5.191406 8.046875 5.371094 10.808594 5.460938 13.574219 C 5.519531 13.574219 5.574219 13.5625 5.628906 13.539062 C 5.835938 13.367188 6.050781 13.363281 6.265625 13.527344 C 6.402344 13.773438 6.367188 13.996094 6.15625 14.1875 C 5.960938 14.339844 5.734375 14.421875 5.484375 14.4375 C 5.570312 17.792969 5.675781 21.144531 5.796875 24.496094 C 5.964844 24.523438 6.132812 24.558594 6.300781 24.605469 C 6.457031 24.765625 6.457031 24.925781 6.300781 25.085938 C 6.144531 25.136719 5.984375 25.171875 5.820312 25.191406 C 5.875 26.128906 5.9375 27.066406 6 28 C 6.015625 30.089844 6.167969 32.171875 6.457031 34.242188 C 6.5625 34.949219 6.691406 35.652344 6.839844 36.355469 C 6.910156 36.714844 6.910156 37.074219 6.839844 37.433594 C 6.804688 37.632812 6.765625 37.835938 6.722656 38.035156 C 6.699219 38.164062 6.707031 38.292969 6.746094 38.417969 C 7.65625 38.621094 8.582031 38.769531 9.515625 38.863281 C 11.148438 39.011719 12.78125 39.136719 14.414062 39.234375 C 14.371094 38.921875 14.359375 38.613281 14.378906 38.296875 C 14.535156 38.070312 14.71875 38.046875 14.929688 38.226562 C 14.96875 38.585938 15.019531 38.949219 15.085938 39.304688 C 15.261719 39.316406 15.4375 39.328125 15.613281 39.34375 C 17.765625 39.355469 19.917969 39.386719 22.070312 39.4375 C 24.9375 39.515625 27.800781 39.59375 30.664062 39.667969 C 30.648438 39.410156 30.660156 39.152344 30.699219 38.898438 C 30.734375 38.785156 30.8125 38.738281 30.929688 38.753906 C 31.023438 38.742188 31.097656 38.773438 31.15625 38.851562 C 31.214844 39.128906 31.269531 39.410156 31.3125 39.691406 C 34.761719 39.765625 38.210938 39.753906 41.660156 39.65625 C 42.652344 39.617188 43.644531 39.570312 44.636719 39.511719 C 44.675781 39.300781 44.71875 39.089844 44.765625 38.875 C 44.859375 38.679688 44.929688 38.480469 44.984375 38.273438 C 45.035156 38.152344 45.128906 38.097656 45.257812 38.105469 C 45.546875 38.140625 45.644531 38.300781 45.558594 38.585938 C 45.464844 38.867188 45.421875 39.15625 45.425781 39.449219 C 45.929688 39.410156 46.433594 39.382812 46.941406 39.367188 C 47.117188 39.496094 47.152344 39.660156 47.046875 39.859375 C 46.996094 39.929688 46.929688 39.972656 46.84375 39.992188 C 46.394531 40.027344 45.949219 40.066406 45.5 40.097656 C 45.527344 40.296875 45.582031 40.488281 45.65625 40.675781 C 45.640625 41.003906 45.46875 41.144531 45.140625 41.09375 C 45.066406 41.070312 45.003906 41.023438 44.960938 40.960938 C 44.839844 40.703125 44.761719 40.429688 44.730469 40.144531 C 42.613281 40.277344 40.492188 40.355469 38.371094 40.375 C 36.066406 40.386719 33.761719 40.378906 31.457031 40.351562 C 31.566406 40.828125 31.628906 41.3125 31.648438 41.800781 C 31.636719 42.125 31.476562 42.246094 31.167969 42.175781 C 31.117188 42.128906 31.070312 42.078125 31.035156 42.019531 C 30.929688 41.453125 30.828125 40.882812 30.738281 40.3125 C 25.625 40.15625 20.511719 40.039062 15.398438 39.953125 C 15.351562 39.960938 15.300781 39.96875 15.253906 39.976562 C 15.398438 40.449219 15.433594 40.929688 15.363281 41.417969 C 15.246094 41.640625 15.074219 41.691406 14.847656 41.574219 C 14.796875 41.53125 14.757812 41.480469 14.738281 41.417969 C 14.75 40.90625 14.691406 40.402344 14.558594 39.90625 C 13.335938 39.804688 12.109375 39.714844 10.886719 39.628906 C 9.449219 39.527344 8.027344 39.34375 6.613281 39.078125 C 6.308594 38.988281 6.136719 38.78125 6.097656 38.464844 C 6.082031 38.3125 6.082031 38.160156 6.097656 38.011719 C 6.167969 37.636719 6.226562 37.257812 6.277344 36.882812 C 5.847656 34.878906 5.570312 32.855469 5.449219 30.808594 C 5.390625 28.957031 5.296875 27.109375 5.160156 25.265625 C 4.609375 25.359375 4.054688 25.394531 3.492188 25.371094 C 3.308594 25.265625 3.25 25.109375 3.3125 24.902344 C 3.339844 24.820312 3.390625 24.761719 3.46875 24.722656 C 4.03125 24.679688 4.589844 24.621094 5.148438 24.542969 C 5.035156 21.175781 4.929688 17.808594 4.835938 14.4375 C 4.605469 14.417969 4.378906 14.367188 4.164062 14.28125 C 4.003906 14.089844 4.003906 13.898438 4.164062 13.707031 C 4.230469 13.664062 4.300781 13.640625 4.378906 13.632812 C 4.527344 13.625 4.667969 13.613281 4.8125 13.597656 C 4.722656 10.832031 4.546875 8.070312 4.285156 5.316406 C 4.253906 5.15625 4.308594 5.042969 4.453125 4.980469 Z M 4.453125 4.980469 "/>
</g>
<mask id="mask1">
  <g filter="url(#alpha)">
<rect x="0" y="0" width="50" height="50" style="fill:rgb(0%,0%,0%);fill-opacity:0.976471;stroke:none;"/>
  </g>
</mask>
<clipPath id="clip2">
  <rect width="50" height="50"/>
</clipPath>
<g id="surface9" clip-path="url(#clip2)">
<path style=" stroke:none;fill-rule:evenodd;fill:rgb(66.27451%,23.137255%,17.647059%);fill-opacity:1;" d="M 45.378906 12.109375 C 45.90625 12.105469 46.128906 12.363281 46.039062 12.878906 C 45.6875 13.691406 45.3125 14.492188 44.910156 15.277344 C 44.59375 15.859375 44.164062 16.34375 43.628906 16.730469 C 42.953125 17.121094 42.25 17.1875 41.515625 16.921875 C 41.195312 16.789062 40.890625 16.628906 40.601562 16.441406 C 40.195312 16.148438 39.792969 15.847656 39.402344 15.53125 C 39.046875 15.261719 38.65625 15.0625 38.226562 14.929688 C 37.605469 14.84375 37.019531 14.953125 36.472656 15.265625 C 36.230469 15.410156 35.996094 15.570312 35.777344 15.746094 C 35.136719 16.402344 34.480469 17.042969 33.808594 17.667969 C 33.300781 18.175781 32.90625 18.765625 32.621094 19.429688 C 32.15625 20.558594 31.804688 21.71875 31.566406 22.910156 C 31.472656 23.617188 31.359375 24.324219 31.230469 25.023438 C 31.09375 25.703125 30.820312 26.320312 30.414062 26.871094 C 29.609375 27.773438 28.636719 28.03125 27.496094 27.652344 C 26.742188 27.28125 25.988281 26.90625 25.238281 26.523438 C 24.816406 26.246094 24.4375 25.914062 24.101562 25.527344 C 23.636719 24.9375 23.195312 24.328125 22.78125 23.703125 C 21.324219 21.835938 19.425781 21.101562 17.078125 21.507812 C 14.886719 22.039062 13.207031 23.265625 12.050781 25.191406 C 11.578125 26.097656 11.363281 27.0625 11.414062 28.085938 C 11.433594 28.683594 11.449219 29.285156 11.460938 29.886719 C 11.464844 30.265625 11.445312 30.644531 11.402344 31.023438 C 11.304688 31.316406 11.109375 31.414062 10.8125 31.324219 C 10.664062 31.246094 10.578125 31.121094 10.5625 30.953125 C 10.382812 29.75 10.3125 28.542969 10.34375 27.328125 C 10.394531 26.03125 10.804688 24.863281 11.570312 23.824219 C 12.949219 21.972656 14.769531 20.785156 17.03125 20.257812 C 19.832031 19.832031 22.109375 20.726562 23.859375 22.9375 C 24.21875 23.441406 24.578125 23.945312 24.941406 24.449219 C 25.289062 24.894531 25.707031 25.25 26.199219 25.515625 C 26.804688 25.796875 27.398438 26.097656 27.976562 26.429688 C 28.589844 26.65625 29.121094 26.535156 29.574219 26.054688 C 29.921875 25.597656 30.171875 25.085938 30.316406 24.519531 C 30.488281 23.769531 30.648438 23.019531 30.796875 22.261719 C 31.0625 21.28125 31.371094 20.3125 31.734375 19.359375 C 31.996094 18.640625 32.378906 18 32.886719 17.4375 C 33.691406 16.65625 34.484375 15.871094 35.273438 15.074219 C 36.144531 14.335938 37.15625 14 38.296875 14.066406 C 38.648438 14.128906 38.976562 14.25 39.28125 14.425781 C 39.472656 14.546875 39.667969 14.667969 39.859375 14.785156 C 40.410156 15.21875 40.992188 15.601562 41.609375 15.9375 C 42.183594 16.222656 42.722656 16.167969 43.21875 15.769531 C 43.519531 15.484375 43.773438 15.160156 43.976562 14.796875 C 44.09375 14.585938 44.207031 14.371094 44.3125 14.148438 C 44.570312 13.546875 44.832031 12.945312 45.101562 12.351562 C 45.171875 12.238281 45.261719 12.15625 45.378906 12.109375 Z M 45.378906 12.109375 "/>
</g>
</defs>
<g id="surface1">
<use xlink:href="#surface6" mask="url(#mask0)"/>
<use xlink:href="#surface9" mask="url(#mask1)"/>
</g>
</svg>
