<?xml version="1.0" encoding="UTF-8"?>
<svg xmlns="http://www.w3.org/2000/svg" xmlns:xlink="http://www.w3.org/1999/xlink" width="50pt" height="50pt" viewBox="0 0 50 50" version="1.1">
<defs>
<filter id="alpha" filterUnits="objectBoundingBox" x="0%" y="0%" width="100%" height="100%">
  <feColorMatrix type="matrix" in="SourceGraphic" values="0 0 0 0 1 0 0 0 0 1 0 0 0 0 1 0 0 0 1 0"/>
</filter>
<mask id="mask0">
  <g filter="url(#alpha)">
<rect x="0" y="0" width="50" height="50" style="fill:rgb(0%,0%,0%);fill-opacity:0.933333;stroke:none;"/>
  </g>
</mask>
<clipPath id="clip1">
  <rect width="50" height="50"/>
</clipPath>
<g id="surface6" clip-path="url(#clip1)">
<path style=" stroke:none;fill-rule:evenodd;fill:rgb(9.019608%,9.019608%,8.627451%);fill-opacity:1;" d="M 30.734375 8.230469 C 30.128906 8.941406 29.527344 9.660156 28.933594 10.390625 C 28.386719 11.152344 27.851562 11.917969 27.328125 12.691406 C 27.269531 12.78125 27.207031 12.871094 27.136719 12.957031 C 27.1875 13.011719 27.25 13.035156 27.328125 13.027344 C 29.023438 14.0625 30.613281 15.246094 32.101562 16.578125 C 32.378906 16.921875 32.621094 17.289062 32.820312 17.683594 C 33.128906 18.621094 32.804688 18.980469 31.835938 18.761719 C 31.484375 18.617188 31.148438 18.449219 30.832031 18.257812 C 30.398438 18.011719 29.949219 17.785156 29.488281 17.585938 C 29.359375 17.601562 29.359375 17.617188 29.488281 17.632812 C 29.488281 17.667969 29.503906 17.683594 29.535156 17.683594 C 30.105469 18.117188 30.65625 18.582031 31.191406 19.074219 C 31.535156 19.613281 31.921875 20.125 32.339844 20.609375 C 32.652344 21.167969 32.988281 21.714844 33.347656 22.242188 C 33.488281 22.699219 33.503906 23.164062 33.398438 23.632812 C 33.222656 23.972656 32.941406 24.164062 32.558594 24.207031 C 32.472656 24.15625 32.375 24.144531 32.269531 24.183594 C 32.300781 24.257812 32.347656 24.3125 32.414062 24.351562 C 32.609375 24.835938 32.601562 25.316406 32.390625 25.792969 C 32.117188 26.0625 31.789062 26.148438 31.40625 26.054688 C 30.960938 25.929688 30.542969 25.753906 30.160156 25.527344 C 30.539062 25.957031 30.820312 26.445312 31 26.992188 C 31.140625 27.660156 30.890625 28.097656 30.253906 28.3125 C 29.054688 28.328125 27.925781 28.046875 26.871094 27.472656 C 26.617188 27.835938 26.347656 28.1875 26.054688 28.527344 C 25.585938 29.53125 25.089844 30.523438 24.566406 31.5 C 23.988281 32.25 23.40625 32.992188 22.816406 33.734375 C 23.394531 33.4375 23.898438 33.542969 24.328125 34.046875 C 24.429688 34.207031 24.484375 34.382812 24.496094 34.574219 C 24.644531 34.546875 24.789062 34.507812 24.929688 34.453125 C 25.226562 34.140625 25.503906 33.8125 25.769531 33.46875 C 25.992188 33.226562 26.234375 33.003906 26.488281 32.796875 C 26.949219 32.082031 27.417969 31.378906 27.902344 30.6875 C 28.625 29.921875 29.335938 29.15625 30.039062 28.382812 C 30.265625 28.460938 30.3125 28.601562 30.183594 28.816406 C 29.691406 29.382812 29.179688 29.925781 28.648438 30.445312 C 28.382812 30.933594 28.082031 31.398438 27.734375 31.835938 C 27.71875 31.9375 27.6875 32.035156 27.640625 32.125 C 27.546875 32.171875 27.464844 32.234375 27.398438 32.316406 C 27.175781 32.605469 26.953125 32.894531 26.726562 33.179688 C 26.441406 33.609375 26.25 34.074219 26.152344 34.574219 C 26.746094 34.070312 27.394531 33.980469 28.09375 34.308594 C 28.269531 34.503906 28.367188 34.738281 28.382812 35.003906 C 28.671875 34.769531 28.921875 34.5 29.125 34.1875 C 29.652344 32.917969 30.324219 31.734375 31.140625 30.636719 C 31.347656 30.242188 31.515625 29.832031 31.644531 29.414062 C 31.960938 29.339844 32.066406 29.457031 31.957031 29.773438 C 31.738281 30.40625 31.417969 30.980469 31 31.5 C 30.65625 32.25 30.289062 32.988281 29.894531 33.710938 C 29.863281 34.011719 29.863281 34.316406 29.894531 34.621094 C 29.960938 34.390625 30.082031 34.191406 30.253906 34.019531 C 30.589844 33.84375 30.941406 33.75 31.308594 33.734375 C 31.574219 33.8125 31.75 33.980469 31.835938 34.238281 C 31.886719 34.214844 31.933594 34.1875 31.980469 34.164062 C 32.453125 33.582031 32.941406 33.015625 33.445312 32.460938 C 33.648438 32.273438 33.863281 32.105469 34.09375 31.957031 C 34.753906 31.238281 35.335938 30.460938 35.84375 29.628906 C 36.652344 28.613281 37.324219 27.507812 37.859375 26.320312 C 38.257812 25.839844 38.53125 25.296875 38.675781 24.6875 C 38.757812 24.503906 38.855469 24.328125 38.964844 24.160156 C 39.414062 23.597656 39.847656 23.023438 40.257812 22.433594 C 40.914062 21.472656 41.570312 20.511719 42.226562 19.554688 C 42.386719 19.363281 42.546875 19.167969 42.707031 18.976562 C 44.671875 15.589844 46.464844 12.101562 48.082031 8.515625 C 48.203125 7.710938 48.363281 6.910156 48.558594 6.117188 C 48.773438 5.457031 49 4.800781 49.230469 4.152344 C 49.417969 3.84375 49.601562 3.542969 49.785156 3.238281 C 49.839844 3.195312 49.90625 3.179688 49.976562 3.191406 C 49.976562 3.445312 49.976562 3.703125 49.976562 3.957031 C 49.5 5.511719 48.996094 7.066406 48.464844 8.613281 C 48.097656 10.355469 47.425781 11.972656 46.449219 13.460938 C 46.011719 14.589844 45.40625 15.613281 44.625 16.53125 C 44.445312 16.90625 44.285156 17.289062 44.144531 17.683594 C 43.726562 18.210938 43.328125 18.757812 42.945312 19.3125 C 41.371094 21.953125 39.722656 24.542969 38.003906 27.085938 C 37.785156 27.511719 37.550781 27.929688 37.308594 28.335938 C 37.574219 28.742188 37.789062 29.171875 37.957031 29.628906 C 40.972656 34.613281 43.964844 39.601562 46.929688 44.601562 C 46.992188 44.761719 46.941406 44.859375 46.785156 44.890625 C 46.703125 44.890625 46.640625 44.859375 46.59375 44.792969 C 45.808594 43.480469 45.027344 42.171875 44.242188 40.859375 C 44.113281 40.730469 43.984375 40.601562 43.859375 40.476562 C 43.1875 39.546875 42.515625 38.621094 41.84375 37.691406 C 41.394531 36.554688 40.785156 35.515625 40.019531 34.574219 C 39.746094 34.054688 39.539062 33.511719 39.394531 32.941406 C 39.199219 32.660156 39.039062 32.355469 38.914062 32.03125 C 38.207031 31.03125 37.535156 30.007812 36.898438 28.957031 C 36.21875 29.828125 35.59375 30.742188 35.027344 31.695312 C 34.4375 32.191406 33.910156 32.75 33.445312 33.375 C 32.917969 33.933594 32.332031 34.421875 31.695312 34.835938 C 31.164062 35.175781 30.589844 35.304688 29.964844 35.222656 C 29.667969 35.078125 29.355469 34.976562 29.03125 34.910156 C 28.539062 35.503906 27.925781 35.894531 27.183594 36.085938 C 27.730469 37.519531 28.25 38.96875 28.742188 40.425781 C 28.765625 40.621094 28.796875 40.8125 28.839844 41.003906 C 29.15625 41.910156 29.460938 42.820312 29.75 43.738281 C 29.773438 44.207031 29.886719 44.65625 30.085938 45.082031 C 30.113281 45.257812 30.144531 45.433594 30.183594 45.609375 C 30.652344 46.515625 30.921875 47.472656 31 48.488281 C 31.066406 48.730469 31.136719 48.96875 31.214844 49.207031 C 31.164062 49.34375 31.113281 49.480469 31.070312 49.617188 C 30.894531 49.679688 30.792969 49.625 30.757812 49.449219 C 30.675781 48.929688 30.566406 48.417969 30.421875 47.914062 C 29.933594 46.292969 29.488281 44.660156 29.078125 43.019531 C 28.691406 41.964844 28.355469 40.890625 28.070312 39.804688 C 27.921875 39.40625 27.746094 39.023438 27.542969 38.652344 C 27.386719 38.230469 27.273438 37.800781 27.207031 37.355469 C 27.042969 36.917969 26.867188 36.488281 26.679688 36.058594 C 25.855469 35.742188 25.550781 35.148438 25.769531 34.285156 C 25.199219 34.902344 24.519531 35.339844 23.726562 35.605469 C 23.046875 35.734375 22.511719 35.519531 22.121094 34.957031 C 22 34.570312 22.050781 34.199219 22.265625 33.851562 C 22.882812 33.003906 23.519531 32.171875 24.183594 31.359375 C 24.367188 31.101562 24.511719 30.828125 24.617188 30.542969 C 23.75 31.574219 22.929688 32.640625 22.144531 33.734375 C 21.941406 33.765625 21.75 33.832031 21.570312 33.925781 C 21.191406 33.984375 20.839844 33.921875 20.511719 33.734375 C 20.410156 33.648438 20.339844 33.546875 20.296875 33.421875 C 20.046875 33.910156 19.78125 34.390625 19.503906 34.859375 C 19.246094 35.097656 19.03125 35.367188 18.859375 35.675781 C 18.277344 37.152344 17.683594 38.625 17.082031 40.089844 C 16.964844 40.894531 16.675781 41.628906 16.21875 42.296875 C 16.066406 42.695312 15.921875 43.09375 15.785156 43.5 C 15.660156 43.671875 15.527344 43.832031 15.378906 43.976562 C 15.207031 43.90625 15.152344 43.777344 15.210938 43.59375 C 15.292969 43.527344 15.355469 43.449219 15.402344 43.355469 C 15.511719 42.894531 15.6875 42.464844 15.929688 42.058594 C 16.167969 41.410156 16.425781 40.769531 16.699219 40.140625 C 16.953125 39.339844 17.210938 38.539062 17.464844 37.738281 C 17.644531 37.269531 17.835938 36.808594 18.042969 36.347656 C 18.6875 35.085938 19.410156 33.871094 20.203125 32.703125 C 20.394531 32.09375 20.585938 31.488281 20.777344 30.878906 C 20.917969 30.589844 21.054688 30.304688 21.183594 30.015625 C 21.226562 29.996094 21.242188 29.964844 21.234375 29.917969 C 21.359375 29.785156 21.480469 29.640625 21.59375 29.488281 C 21.9375 28.820312 22.324219 28.183594 22.746094 27.566406 C 22.945312 27.230469 23.089844 26.878906 23.175781 26.511719 C 23.140625 26.542969 23.101562 26.566406 23.054688 26.582031 C 22.859375 27.027344 22.523438 27.308594 22.050781 27.421875 C 21.679688 27.589844 21.328125 27.792969 20.992188 28.023438 C 20.492188 28.332031 19.945312 28.476562 19.363281 28.453125 C 18.765625 28.167969 18.519531 27.699219 18.617188 27.039062 C 18.800781 26.351562 19.089844 25.710938 19.480469 25.121094 C 19.707031 24.804688 19.921875 24.488281 20.128906 24.160156 C 20.171875 24.125 20.21875 24.101562 20.273438 24.089844 C 19.691406 23.789062 19.132812 23.453125 18.59375 23.082031 C 18.433594 22.90625 18.273438 22.730469 18.113281 22.554688 C 17.746094 22.394531 17.441406 22.152344 17.203125 21.832031 C 16.808594 21.613281 16.410156 21.40625 16.003906 21.210938 C 15.460938 20.777344 14.914062 20.34375 14.371094 19.914062 C 14.007812 19.667969 13.640625 19.4375 13.269531 19.21875 C 13.082031 19.03125 12.898438 19.03125 12.714844 19.21875 C 12.390625 19.945312 12.039062 20.664062 11.660156 21.378906 C 11.289062 21.796875 10.9375 22.226562 10.605469 22.671875 C 10.242188 23.546875 9.761719 24.347656 9.164062 25.070312 C 7.117188 28.484375 5.46875 32.082031 4.222656 35.867188 C 4.035156 36.101562 3.867188 36.101562 3.71875 35.867188 C 3.835938 35.65625 3.921875 35.433594 3.984375 35.195312 C 4.1875 34.464844 4.367188 33.730469 4.511719 32.988281 C 4.761719 32.4375 5.050781 31.910156 5.375 31.40625 C 5.765625 30.527344 6.179688 29.664062 6.621094 28.816406 C 6.703125 28.703125 6.78125 28.589844 6.863281 28.480469 C 7.277344 27.613281 7.695312 26.75 8.109375 25.886719 C 8.3125 25.523438 8.550781 25.1875 8.828125 24.878906 C 9.703125 23.367188 10.617188 21.882812 11.5625 20.417969 C 11.777344 20.011719 12 19.609375 12.234375 19.21875 C 12.289062 19.03125 12.34375 18.847656 12.402344 18.667969 C 11.3125 17.941406 10.210938 17.238281 9.09375 16.554688 C 8.714844 16.410156 8.332031 16.285156 7.941406 16.171875 C 7.226562 15.832031 6.589844 15.390625 6.023438 14.851562 C 4.871094 14.09375 3.671875 13.421875 2.421875 12.835938 C 2.355469 12.738281 2.257812 12.691406 2.136719 12.691406 C 2.066406 12.59375 1.972656 12.546875 1.847656 12.546875 C 1.25 12.289062 0.625 12.144531 -0.0234375 12.117188 C -0.0234375 12.003906 -0.0234375 11.890625 -0.0234375 11.78125 C 0.0234375 11.78125 0.0703125 11.78125 0.121094 11.78125 C 0.863281 11.8125 1.566406 12 2.230469 12.332031 C 3.0625 12.765625 3.894531 13.195312 4.726562 13.628906 C 6.542969 14.777344 8.429688 15.800781 10.390625 16.699219 C 10.71875 16.917969 11.039062 17.152344 11.347656 17.394531 C 11.347656 17.425781 11.363281 17.441406 11.394531 17.441406 C 11.414062 17.441406 11.429688 17.441406 11.445312 17.441406 C 11.445312 17.472656 11.460938 17.492188 11.492188 17.492188 C 12.121094 17.972656 12.777344 18.421875 13.460938 18.832031 C 13.601562 18.96875 13.761719 19.082031 13.941406 19.167969 C 15.949219 20.484375 17.902344 21.882812 19.792969 23.367188 C 20.40625 23.617188 20.996094 23.90625 21.570312 24.230469 C 21.714844 24.28125 21.855469 24.328125 22 24.375 C 22.921875 24.925781 23.867188 25.4375 24.832031 25.910156 C 25.597656 26.175781 26.316406 26.527344 26.992188 26.96875 C 27.535156 27.078125 28.0625 27.238281 28.574219 27.445312 C 28.75 27.558594 28.925781 27.671875 29.101562 27.78125 C 29.351562 27.796875 29.589844 27.84375 29.824219 27.925781 C 30.347656 28.035156 30.585938 27.835938 30.542969 27.328125 C 30.179688 27.597656 29.796875 27.636719 29.390625 27.445312 C 29.316406 27.371094 29.261719 27.285156 29.222656 27.183594 C 29.136719 26.917969 29.023438 26.660156 28.886719 26.414062 C 28.855469 26.289062 28.855469 26.160156 28.886719 26.03125 C 29.058594 25.78125 29.273438 25.582031 29.535156 25.433594 C 29.195312 25.078125 28.84375 24.742188 28.480469 24.425781 C 26.953125 23.476562 25.484375 22.453125 24.0625 21.351562 C 23.980469 21.285156 23.882812 21.234375 23.777344 21.210938 C 23.671875 20.988281 23.734375 20.890625 23.96875 20.921875 C 25.003906 21.695312 26.09375 22.398438 27.230469 23.03125 C 27.785156 23.378906 28.296875 23.777344 28.765625 24.230469 C 29.4375 24.632812 30.109375 25.03125 30.78125 25.433594 C 30.992188 25.554688 31.21875 25.640625 31.453125 25.695312 C 31.824219 25.796875 32.0625 25.667969 32.171875 25.3125 C 31.972656 25.300781 31.765625 25.300781 31.550781 25.3125 C 31.363281 25.332031 31.210938 25.269531 31.09375 25.121094 C 30.878906 24.675781 30.765625 24.214844 30.757812 23.726562 C 30.871094 23.570312 31.023438 23.464844 31.214844 23.417969 C 30.941406 23.175781 30.671875 22.9375 30.398438 22.695312 C 29.296875 21.964844 28.210938 21.210938 27.136719 20.441406 C 26.957031 20.265625 26.78125 20.089844 26.609375 19.914062 C 26.101562 19.632812 25.621094 19.3125 25.167969 18.953125 C 25.082031 18.804688 25.121094 18.714844 25.289062 18.691406 C 25.398438 18.710938 25.503906 18.75 25.601562 18.808594 C 26.113281 19.160156 26.625 19.515625 27.136719 19.867188 C 27.238281 19.960938 27.335938 20.066406 27.421875 20.175781 C 28.542969 20.671875 29.582031 21.289062 30.542969 22.023438 C 31.058594 22.507812 31.535156 23.019531 31.980469 23.558594 C 32.621094 23.886719 32.941406 23.6875 32.941406 22.960938 C 32.675781 23.046875 32.40625 23.070312 32.125 23.03125 C 32.039062 22.996094 31.96875 22.9375 31.910156 22.863281 C 31.703125 22.355469 31.628906 21.824219 31.695312 21.28125 C 31.8125 21.183594 31.9375 21.105469 32.078125 21.042969 C 31.984375 20.851562 31.871094 20.675781 31.742188 20.511719 C 31.742188 20.480469 31.726562 20.464844 31.695312 20.464844 C 31.695312 20.433594 31.679688 20.417969 31.644531 20.417969 C 31.644531 20.386719 31.628906 20.371094 31.597656 20.371094 C 31.597656 20.335938 31.582031 20.320312 31.550781 20.320312 C 31.535156 20.289062 31.519531 20.257812 31.5 20.226562 C 31.5 20.195312 31.484375 20.175781 31.453125 20.175781 C 31.453125 20.144531 31.4375 20.128906 31.40625 20.128906 C 31.40625 20.097656 31.390625 20.082031 31.359375 20.082031 C 31.359375 20.050781 31.34375 20.035156 31.308594 20.035156 C 31.308594 20 31.292969 19.984375 31.261719 19.984375 C 31.261719 19.953125 31.246094 19.9375 31.214844 19.9375 C 31.214844 19.90625 31.199219 19.890625 31.167969 19.890625 C 31.167969 19.859375 31.148438 19.839844 31.117188 19.839844 C 31.117188 19.808594 31.101562 19.792969 31.070312 19.792969 C 30.121094 18.773438 29.066406 17.886719 27.902344 17.128906 C 27.804688 17.058594 27.738281 16.960938 27.710938 16.84375 C 27.734375 16.753906 27.792969 16.699219 27.878906 16.675781 C 28.296875 16.765625 28.703125 16.886719 29.101562 17.035156 C 30.035156 17.445312 30.945312 17.890625 31.835938 18.378906 C 31.886719 18.410156 31.933594 18.410156 31.980469 18.378906 C 31.722656 18.183594 31.539062 17.933594 31.429688 17.632812 C 31.378906 17.398438 31.410156 17.171875 31.527344 16.960938 C 31.589844 16.867188 31.675781 16.8125 31.789062 16.792969 C 30.507812 15.605469 29.113281 14.566406 27.613281 13.675781 C 27.109375 13.367188 26.582031 13.09375 26.03125 12.859375 C 25.542969 12.464844 25.015625 12.128906 24.449219 11.851562 C 23.289062 11.066406 22.074219 10.378906 20.800781 9.789062 C 20.386719 9.46875 19.9375 9.195312 19.457031 8.972656 C 19.3125 8.894531 19.203125 8.78125 19.121094 8.636719 C 18.722656 8.558594 18.394531 8.359375 18.136719 8.039062 C 18.101562 8.210938 18 8.28125 17.828125 8.253906 C 17.785156 8.105469 17.769531 7.960938 17.777344 7.820312 C 17.300781 7.636719 16.824219 7.460938 16.339844 7.292969 C 16.085938 7.070312 15.828125 6.847656 15.570312 6.621094 C 15.132812 6.371094 14.683594 6.148438 14.226562 5.949219 C 13.363281 5.3125 12.46875 4.71875 11.539062 4.175781 C 11.089844 3.867188 10.65625 3.542969 10.246094 3.191406 C 10.25 2.945312 10.363281 2.890625 10.582031 3.023438 C 11.242188 3.527344 11.929688 3.988281 12.644531 4.414062 C 14.457031 5.386719 16.238281 6.402344 17.996094 7.460938 C 18.054688 7.449219 18.101562 7.417969 18.136719 7.367188 C 18.558594 6.605469 19.039062 5.886719 19.578125 5.207031 C 19.777344 4.988281 19.996094 4.789062 20.226562 4.605469 C 21.007812 4.195312 21.460938 4.425781 21.59375 5.300781 C 22.105469 4.582031 22.675781 3.902344 23.296875 3.261719 C 23.609375 3.050781 23.945312 2.875 24.304688 2.734375 C 24.957031 2.570312 25.398438 2.800781 25.625 3.429688 C 25.757812 3.980469 25.703125 4.511719 25.457031 5.015625 C 25.285156 5.285156 25.140625 5.570312 25.023438 5.878906 C 25.066406 5.917969 25.105469 5.898438 25.144531 5.832031 C 25.257812 5.691406 25.363281 5.546875 25.457031 5.398438 C 25.914062 4.929688 26.410156 4.503906 26.945312 4.125 C 27.257812 3.894531 27.609375 3.796875 28 3.839844 C 28.359375 4.03125 28.519531 4.335938 28.480469 4.75 C 28.425781 5.425781 28.21875 6.039062 27.855469 6.597656 C 27.699219 6.828125 27.554688 7.066406 27.421875 7.316406 C 27.429688 7.332031 27.4375 7.351562 27.445312 7.367188 C 27.5625 7.257812 27.667969 7.148438 27.757812 7.03125 C 27.792969 7.03125 27.808594 7.015625 27.808594 6.980469 C 28.25 6.628906 28.714844 6.300781 29.199219 6 C 29.710938 5.703125 30.253906 5.609375 30.832031 5.710938 C 31.074219 5.875 31.203125 6.105469 31.214844 6.40625 C 31.171875 6.582031 31.144531 6.757812 31.140625 6.933594 C 31.375 6.683594 31.59375 6.417969 31.789062 6.140625 C 32.09375 5.835938 32.429688 5.566406 32.796875 5.328125 C 34.328125 3.777344 35.960938 2.355469 37.691406 1.054688 C 37.828125 1.011719 37.957031 0.945312 38.074219 0.863281 C 38.246094 0.832031 38.339844 0.902344 38.363281 1.078125 C 38.363281 1.152344 38.332031 1.210938 38.269531 1.246094 C 36.921875 2.09375 35.707031 3.101562 34.621094 4.269531 C 33.167969 5.441406 31.875 6.761719 30.734375 8.230469 Z M 25.214844 3.863281 C 24.890625 3.71875 24.554688 3.6875 24.207031 3.765625 C 24.308594 3.582031 24.398438 3.390625 24.472656 3.191406 C 24.992188 3.109375 25.238281 3.335938 25.214844 3.863281 Z M 23.679688 4.152344 C 23.484375 4.292969 23.289062 4.445312 23.105469 4.605469 C 22.613281 5.089844 22.132812 5.578125 21.664062 6.070312 C 21.800781 5.765625 22 5.507812 22.265625 5.300781 C 22.453125 5.007812 22.628906 4.703125 22.792969 4.390625 C 23.132812 4.03125 23.507812 3.734375 23.921875 3.503906 C 23.835938 3.71875 23.753906 3.933594 23.679688 4.152344 Z M 27.902344 5.589844 C 27.832031 5.449219 27.761719 5.308594 27.6875 5.160156 C 27.597656 5.085938 27.492188 5.054688 27.375 5.0625 C 27.429688 4.726562 27.621094 4.527344 27.949219 4.460938 C 27.980469 4.425781 28.003906 4.386719 28.023438 4.34375 C 28.132812 4.773438 28.089844 5.1875 27.902344 5.589844 Z M 27.183594 4.488281 C 26.929688 4.863281 26.800781 5.28125 26.800781 5.734375 C 26.535156 5.835938 26.265625 5.898438 25.984375 5.925781 C 25.855469 5.933594 25.742188 5.902344 25.648438 5.832031 C 26.085938 5.296875 26.597656 4.847656 27.183594 4.488281 Z M 20.707031 4.773438 C 20.792969 4.761719 20.871094 4.777344 20.945312 4.824219 C 20.78125 5.121094 20.589844 5.402344 20.371094 5.664062 C 20.242188 5.6875 20.113281 5.695312 19.984375 5.6875 C 20.058594 5.257812 20.300781 4.957031 20.707031 4.773438 Z M 20.417969 6.070312 C 19.871094 6.695312 19.328125 7.320312 18.785156 7.941406 C 18.675781 7.886719 18.566406 7.832031 18.449219 7.773438 C 18.402344 7.722656 18.394531 7.667969 18.425781 7.605469 C 18.800781 6.980469 19.203125 6.375 19.625 5.78125 C 19.644531 5.914062 19.714844 6 19.839844 6.046875 C 20.03125 6.070312 20.226562 6.078125 20.417969 6.070312 Z M 30.636719 7.078125 C 30.640625 6.894531 30.609375 6.71875 30.542969 6.550781 C 30.347656 6.648438 30.15625 6.742188 29.964844 6.835938 C 30.03125 6.582031 30.164062 6.375 30.375 6.214844 C 30.398438 6.152344 30.40625 6.089844 30.398438 6.023438 C 30.664062 6.015625 30.804688 6.140625 30.832031 6.40625 C 30.796875 6.644531 30.730469 6.867188 30.636719 7.078125 Z M 29.488281 7.078125 C 28.777344 7.457031 28.054688 7.824219 27.328125 8.179688 C 27.3125 8.171875 27.296875 8.164062 27.277344 8.15625 C 27.347656 8.0625 27.394531 7.957031 27.421875 7.84375 C 27.894531 7.445312 28.375 7.054688 28.863281 6.667969 C 29.160156 6.457031 29.480469 6.296875 29.824219 6.191406 C 29.664062 6.46875 29.550781 6.765625 29.488281 7.078125 Z M 21.664062 6.070312 C 21.667969 6.144531 21.636719 6.191406 21.570312 6.214844 C 21.566406 6.140625 21.597656 6.09375 21.664062 6.070312 Z M 11.492188 17.492188 C 12.214844 17.851562 12.886719 18.28125 13.507812 18.785156 C 13.507812 18.816406 13.492188 18.832031 13.460938 18.832031 C 12.777344 18.421875 12.121094 17.972656 11.492188 17.492188 Z M 32.316406 17.632812 C 32.449219 17.800781 32.53125 17.996094 32.558594 18.210938 C 32.464844 18.222656 32.386719 18.207031 32.316406 18.164062 C 32.316406 17.984375 32.316406 17.808594 32.316406 17.632812 Z M 32.078125 24.640625 C 32.105469 24.714844 32.136719 24.785156 32.171875 24.855469 C 32.0625 24.886719 31.949219 24.910156 31.835938 24.929688 C 31.894531 24.8125 31.976562 24.714844 32.078125 24.640625 Z M 31.453125 25.695312 C 31.496094 25.570312 31.527344 25.441406 31.550781 25.3125 C 31.765625 25.300781 31.972656 25.300781 32.171875 25.3125 C 32.0625 25.667969 31.824219 25.796875 31.453125 25.695312 Z M 22.769531 25.601562 C 22.949219 25.699219 23.144531 25.777344 23.34375 25.839844 C 23.027344 26.058594 22.722656 26.300781 22.433594 26.558594 C 22.527344 26.230469 22.640625 25.910156 22.769531 25.601562 Z M 29.917969 25.9375 C 30.203125 26.1875 30.363281 26.507812 30.398438 26.894531 C 30.214844 26.589844 30.054688 26.269531 29.917969 25.9375 Z M 23.679688 25.984375 C 23.882812 26.0625 24.09375 26.125 24.304688 26.175781 C 25.03125 26.5625 25.765625 26.9375 26.511719 27.304688 C 26.144531 27.730469 25.820312 28.1875 25.527344 28.671875 C 24.90625 29.355469 24.28125 30.046875 23.65625 30.734375 C 23.355469 31.253906 23.019531 31.75 22.648438 32.222656 C 22.234375 31.640625 21.683594 31.464844 20.992188 31.695312 C 21.273438 30.839844 21.683594 30.058594 22.21875 29.34375 C 22.65625 28.496094 23.121094 27.664062 23.609375 26.847656 C 23.671875 26.5625 23.695312 26.273438 23.679688 25.984375 Z M 21.234375 29.917969 C 21.484375 29.082031 21.757812 28.25 22.050781 27.421875 C 22.523438 27.308594 22.859375 27.027344 23.054688 26.582031 C 23.101562 26.566406 23.140625 26.542969 23.175781 26.511719 C 23.089844 26.878906 22.945312 27.230469 22.746094 27.566406 C 22.324219 28.183594 21.9375 28.820312 21.59375 29.488281 C 21.480469 29.640625 21.359375 29.785156 21.234375 29.917969 Z M 21.378906 31.980469 C 21.816406 31.9375 22.136719 32.105469 22.335938 32.484375 C 22.050781 32.898438 21.707031 33.242188 21.304688 33.515625 C 20.957031 33.378906 20.726562 33.128906 20.609375 32.773438 C 20.714844 32.355469 20.96875 32.09375 21.378906 31.980469 Z M 23.34375 33.949219 C 23.597656 33.960938 23.8125 34.054688 23.992188 34.238281 C 24.171875 34.46875 24.148438 34.667969 23.921875 34.835938 C 23.46875 35.097656 23.058594 35.039062 22.695312 34.667969 C 22.570312 34.269531 22.722656 34.066406 23.152344 34.070312 C 23.226562 34.039062 23.292969 34 23.34375 33.949219 Z M 31.070312 34.09375 C 31.328125 34.109375 31.441406 34.238281 31.40625 34.476562 C 31.15625 34.609375 30.898438 34.730469 30.636719 34.835938 C 30.507812 34.875 30.378906 34.867188 30.253906 34.8125 C 30.316406 34.667969 30.382812 34.523438 30.445312 34.382812 C 30.667969 34.300781 30.875 34.207031 31.070312 34.09375 Z M 27.183594 34.476562 C 27.484375 34.445312 27.734375 34.542969 27.925781 34.765625 C 27.960938 34.882812 27.945312 34.996094 27.878906 35.101562 C 27.773438 35.273438 27.632812 35.402344 27.445312 35.484375 C 27.425781 35.53125 27.417969 35.578125 27.421875 35.628906 C 27.042969 35.726562 26.691406 35.671875 26.367188 35.460938 C 26.296875 35.375 26.234375 35.289062 26.175781 35.195312 C 26.308594 35.078125 26.421875 34.941406 26.511719 34.789062 C 26.734375 34.671875 26.957031 34.566406 27.183594 34.476562 Z M 27.183594 34.476562 "/>
</g>
<mask id="mask1">
  <g filter="url(#alpha)">
<rect x="0" y="0" width="50" height="50" style="fill:rgb(0%,0%,0%);fill-opacity:0.972549;stroke:none;"/>
  </g>
</mask>
<clipPath id="clip2">
  <rect width="50" height="50"/>
</clipPath>
<g id="surface9" clip-path="url(#clip2)">
<path style=" stroke:none;fill-rule:evenodd;fill:rgb(65.098039%,22.745098%,17.647059%);fill-opacity:1;" d="M 25.214844 3.863281 C 25.207031 4.089844 25.167969 4.316406 25.097656 4.535156 C 24.808594 4.683594 24.515625 4.707031 24.207031 4.605469 C 24.039062 4.515625 23.984375 4.378906 24.039062 4.199219 C 24.101562 4.054688 24.15625 3.910156 24.207031 3.765625 C 24.554688 3.6875 24.890625 3.71875 25.214844 3.863281 Z M 25.214844 3.863281 "/>
</g>
<mask id="mask2">
  <g filter="url(#alpha)">
<rect x="0" y="0" width="50" height="50" style="fill:rgb(0%,0%,0%);fill-opacity:0.819608;stroke:none;"/>
  </g>
</mask>
<clipPath id="clip3">
  <rect width="50" height="50"/>
</clipPath>
<g id="surface12" clip-path="url(#clip3)">
<path style=" stroke:none;fill-rule:evenodd;fill:rgb(60%,21.176471%,16.862745%);fill-opacity:1;" d="M 25.457031 5.015625 C 25.457031 5.140625 25.457031 5.269531 25.457031 5.398438 C 25.363281 5.546875 25.257812 5.691406 25.144531 5.832031 C 25.105469 5.898438 25.066406 5.917969 25.023438 5.878906 C 25.140625 5.570312 25.285156 5.285156 25.457031 5.015625 Z M 25.457031 5.015625 "/>
</g>
<mask id="mask3">
  <g filter="url(#alpha)">
<rect x="0" y="0" width="50" height="50" style="fill:rgb(0%,0%,0%);fill-opacity:0.945098;stroke:none;"/>
  </g>
</mask>
<clipPath id="clip4">
  <rect width="50" height="50"/>
</clipPath>
<g id="surface15" clip-path="url(#clip4)">
<path style=" stroke:none;fill-rule:evenodd;fill:rgb(65.098039%,22.745098%,17.647059%);fill-opacity:1;" d="M 27.375 5.0625 C 27.492188 5.054688 27.597656 5.085938 27.6875 5.160156 C 27.761719 5.308594 27.832031 5.449219 27.902344 5.589844 C 27.886719 5.695312 27.847656 5.792969 27.78125 5.878906 C 27.59375 5.804688 27.390625 5.761719 27.183594 5.757812 C 27.097656 5.484375 27.164062 5.253906 27.375 5.0625 Z M 27.375 5.0625 "/>
</g>
<mask id="mask4">
  <g filter="url(#alpha)">
<rect x="0" y="0" width="50" height="50" style="fill:rgb(0%,0%,0%);fill-opacity:0.968627;stroke:none;"/>
  </g>
</mask>
<clipPath id="clip5">
  <rect width="50" height="50"/>
</clipPath>
<g id="surface18" clip-path="url(#clip5)">
<path style=" stroke:none;fill-rule:evenodd;fill:rgb(65.490196%,22.745098%,17.647059%);fill-opacity:1;" d="M 30.636719 7.078125 C 30.613281 7.320312 30.535156 7.542969 30.398438 7.75 C 30.191406 7.777344 29.984375 7.777344 29.773438 7.75 C 29.734375 7.417969 29.800781 7.113281 29.964844 6.835938 C 30.15625 6.742188 30.347656 6.648438 30.542969 6.550781 C 30.609375 6.71875 30.640625 6.894531 30.636719 7.078125 Z M 30.636719 7.078125 "/>
</g>
<mask id="mask5">
  <g filter="url(#alpha)">
<rect x="0" y="0" width="50" height="50" style="fill:rgb(0%,0%,0%);fill-opacity:0.858824;stroke:none;"/>
  </g>
</mask>
<clipPath id="clip6">
  <rect width="50" height="50"/>
</clipPath>
<g id="surface21" clip-path="url(#clip6)">
<path style=" stroke:none;fill-rule:evenodd;fill:rgb(62.352941%,21.960784%,17.254902%);fill-opacity:1;" d="M 27.855469 6.597656 C 27.839844 6.726562 27.824219 6.855469 27.808594 6.980469 C 27.773438 6.980469 27.757812 6.996094 27.757812 7.03125 C 27.667969 7.148438 27.5625 7.257812 27.445312 7.367188 C 27.4375 7.351562 27.429688 7.332031 27.421875 7.316406 C 27.554688 7.066406 27.699219 6.828125 27.855469 6.597656 Z M 27.855469 6.597656 "/>
</g>
<mask id="mask6">
  <g filter="url(#alpha)">
<rect x="0" y="0" width="50" height="50" style="fill:rgb(0%,0%,0%);fill-opacity:0.996078;stroke:none;"/>
  </g>
</mask>
<clipPath id="clip7">
  <rect width="50" height="50"/>
</clipPath>
<g id="surface24" clip-path="url(#clip7)">
<path style=" stroke:none;fill-rule:evenodd;fill:rgb(65.882353%,22.745098%,17.647059%);fill-opacity:1;" d="M 23.679688 4.152344 C 23.648438 4.632812 23.871094 4.914062 24.351562 4.992188 C 24.539062 5.027344 24.722656 5.019531 24.902344 4.964844 C 24.503906 6.257812 23.914062 7.460938 23.128906 8.566406 C 23.023438 8.96875 22.863281 9.351562 22.648438 9.71875 C 22.605469 9.898438 22.628906 10.066406 22.722656 10.222656 C 22.84375 10.242188 22.949219 10.203125 23.03125 10.101562 C 23.339844 9.46875 23.613281 8.8125 23.847656 8.132812 C 24.375 7.34375 24.941406 6.582031 25.550781 5.855469 C 25.582031 5.832031 25.613281 5.824219 25.648438 5.832031 C 25.742188 5.902344 25.855469 5.933594 25.984375 5.925781 C 26.265625 5.898438 26.535156 5.835938 26.800781 5.734375 C 26.917969 6.066406 27.15625 6.203125 27.519531 6.140625 C 27.558594 6.175781 27.59375 6.214844 27.613281 6.261719 C 27.292969 6.832031 26.980469 7.40625 26.679688 7.988281 C 26.207031 8.398438 25.808594 8.859375 25.480469 9.382812 C 25.347656 9.671875 25.265625 9.976562 25.238281 10.292969 C 25.128906 10.527344 25.035156 10.765625 24.953125 11.011719 C 24.90625 11.105469 24.84375 11.1875 24.761719 11.253906 C 24.707031 11.398438 24.757812 11.496094 24.902344 11.539062 C 25.027344 11.496094 25.125 11.414062 25.191406 11.300781 C 25.308594 10.992188 25.433594 10.6875 25.574219 10.390625 C 26.082031 9.710938 26.53125 8.988281 26.917969 8.230469 C 27.082031 8.089844 27.25 7.964844 27.421875 7.84375 C 27.394531 7.957031 27.347656 8.0625 27.277344 8.15625 C 27.296875 8.164062 27.3125 8.171875 27.328125 8.179688 C 28.054688 7.824219 28.777344 7.457031 29.488281 7.078125 C 29.414062 7.382812 29.421875 7.6875 29.511719 7.988281 C 29.726562 8.050781 29.945312 8.117188 30.160156 8.179688 C 29.46875 9.070312 28.789062 9.964844 28.117188 10.867188 C 27.90625 11.210938 27.683594 11.546875 27.445312 11.875 C 27.167969 12.121094 26.929688 12.394531 26.726562 12.691406 C 25.902344 12.222656 25.082031 11.75 24.257812 11.277344 C 24.03125 11.066406 23.789062 10.875 23.535156 10.699219 C 22.847656 10.324219 22.144531 9.972656 21.425781 9.644531 C 20.59375 9.132812 19.761719 8.621094 18.929688 8.109375 C 18.855469 8.074219 18.808594 8.015625 18.785156 7.941406 C 19.328125 7.320312 19.871094 6.695312 20.417969 6.070312 C 20.507812 6.011719 20.597656 5.949219 20.679688 5.878906 C 20.808594 5.664062 20.960938 5.472656 21.136719 5.300781 C 21.125 5.363281 21.140625 5.414062 21.183594 5.445312 C 21.191406 5.589844 21.183594 5.734375 21.160156 5.878906 C 20.773438 6.480469 20.550781 7.136719 20.488281 7.84375 C 20.585938 7.910156 20.679688 7.910156 20.777344 7.84375 C 20.796875 7.644531 20.84375 7.453125 20.921875 7.269531 C 21.144531 6.949219 21.347656 6.613281 21.519531 6.261719 C 21.554688 6.261719 21.570312 6.246094 21.570312 6.214844 C 21.636719 6.191406 21.667969 6.144531 21.664062 6.070312 C 22.132812 5.578125 22.613281 5.089844 23.105469 4.605469 C 23.289062 4.445312 23.484375 4.292969 23.679688 4.152344 Z M 21.664062 6.070312 C 21.667969 6.144531 21.636719 6.191406 21.570312 6.214844 C 21.566406 6.140625 21.597656 6.09375 21.664062 6.070312 Z M 21.664062 6.070312 "/>
</g>
<mask id="mask7">
  <g filter="url(#alpha)">
<rect x="0" y="0" width="50" height="50" style="fill:rgb(0%,0%,0%);fill-opacity:0.901961;stroke:none;"/>
  </g>
</mask>
<clipPath id="clip8">
  <rect width="50" height="50"/>
</clipPath>
<g id="surface27" clip-path="url(#clip8)">
<path style=" stroke:none;fill-rule:evenodd;fill:rgb(64.705882%,22.745098%,17.647059%);fill-opacity:1;" d="M 30.734375 8.230469 C 30.75 8.394531 30.726562 8.554688 30.664062 8.710938 C 29.941406 9.574219 29.246094 10.453125 28.574219 11.347656 C 28.140625 11.78125 27.726562 12.230469 27.328125 12.691406 C 27.851562 11.917969 28.386719 11.152344 28.933594 10.390625 C 29.527344 9.660156 30.128906 8.941406 30.734375 8.230469 Z M 30.734375 8.230469 "/>
</g>
<mask id="mask8">
  <g filter="url(#alpha)">
<rect x="0" y="0" width="50" height="50" style="fill:rgb(0%,0%,0%);fill-opacity:0.807843;stroke:none;"/>
  </g>
</mask>
<clipPath id="clip9">
  <rect width="50" height="50"/>
</clipPath>
<g id="surface30" clip-path="url(#clip9)">
<path style=" stroke:none;fill-rule:evenodd;fill:rgb(40%,67.058824%,58.039216%);fill-opacity:1;" d="M 28.574219 11.347656 C 28.160156 11.910156 27.742188 12.46875 27.328125 13.027344 C 27.25 13.035156 27.1875 13.011719 27.136719 12.957031 C 27.207031 12.871094 27.269531 12.78125 27.328125 12.691406 C 27.726562 12.230469 28.140625 11.78125 28.574219 11.347656 Z M 28.574219 11.347656 "/>
</g>
<mask id="mask9">
  <g filter="url(#alpha)">
<rect x="0" y="0" width="50" height="50" style="fill:rgb(0%,0%,0%);fill-opacity:0.67451;stroke:none;"/>
  </g>
</mask>
<clipPath id="clip10">
  <rect width="50" height="50"/>
</clipPath>
<g id="surface33" clip-path="url(#clip10)">
<path style=" stroke:none;fill-rule:evenodd;fill:rgb(83.137255%,83.137255%,83.137255%);fill-opacity:1;" d="M 1.847656 12.546875 C 1.972656 12.546875 2.066406 12.59375 2.136719 12.691406 C 2.023438 12.667969 1.929688 12.621094 1.847656 12.546875 Z M 1.847656 12.546875 "/>
</g>
<mask id="mask10">
  <g filter="url(#alpha)">
<rect x="0" y="0" width="50" height="50" style="fill:rgb(0%,0%,0%);fill-opacity:0.564706;stroke:none;"/>
  </g>
</mask>
<clipPath id="clip11">
  <rect width="50" height="50"/>
</clipPath>
<g id="surface36" clip-path="url(#clip11)">
<path style=" stroke:none;fill-rule:evenodd;fill:rgb(78.823529%,78.823529%,78.823529%);fill-opacity:1;" d="M 2.136719 12.691406 C 2.257812 12.691406 2.355469 12.738281 2.421875 12.835938 C 2.3125 12.8125 2.214844 12.765625 2.136719 12.691406 Z M 2.136719 12.691406 "/>
</g>
<mask id="mask11">
  <g filter="url(#alpha)">
<rect x="0" y="0" width="50" height="50" style="fill:rgb(0%,0%,0%);fill-opacity:0.976471;stroke:none;"/>
  </g>
</mask>
<clipPath id="clip12">
  <rect width="50" height="50"/>
</clipPath>
<g id="surface39" clip-path="url(#clip12)">
<path style=" stroke:none;fill-rule:evenodd;fill:rgb(96.862745%,96.862745%,96.862745%);fill-opacity:1;" d="M 32.316406 17.585938 C 32.316406 17.601562 32.316406 17.617188 32.316406 17.632812 C 32.316406 17.808594 32.316406 17.984375 32.316406 18.164062 C 32.007812 18.003906 31.816406 17.757812 31.742188 17.417969 C 31.773438 17.082031 31.90625 17.027344 32.148438 17.25 C 32.207031 17.367188 32.265625 17.480469 32.316406 17.585938 Z M 32.316406 17.585938 "/>
</g>
<mask id="mask12">
  <g filter="url(#alpha)">
<rect x="0" y="0" width="50" height="50" style="fill:rgb(0%,0%,0%);fill-opacity:0.52549;stroke:none;"/>
  </g>
</mask>
<clipPath id="clip13">
  <rect width="50" height="50"/>
</clipPath>
<g id="surface42" clip-path="url(#clip13)">
<path style=" stroke:none;fill-rule:evenodd;fill:rgb(92.941176%,92.941176%,92.941176%);fill-opacity:1;" d="M 29.488281 17.632812 C 29.488281 17.617188 29.488281 17.601562 29.488281 17.585938 C 29.949219 17.785156 30.398438 18.011719 30.832031 18.257812 C 30.378906 18.105469 29.949219 17.914062 29.535156 17.683594 C 29.503906 17.683594 29.488281 17.667969 29.488281 17.632812 Z M 29.488281 17.632812 "/>
</g>
<mask id="mask13">
  <g filter="url(#alpha)">
<rect x="0" y="0" width="50" height="50" style="fill:rgb(0%,0%,0%);fill-opacity:0.988235;stroke:none;"/>
  </g>
</mask>
<clipPath id="clip14">
  <rect width="50" height="50"/>
</clipPath>
<g id="surface45" clip-path="url(#clip14)">
<path style=" stroke:none;fill-rule:evenodd;fill:rgb(63.921569%,25.490196%,20.784314%);fill-opacity:1;" d="M 13.507812 18.785156 C 13.664062 18.902344 13.804688 19.03125 13.941406 19.167969 C 13.761719 19.082031 13.601562 18.96875 13.460938 18.832031 C 13.492188 18.832031 13.507812 18.816406 13.507812 18.785156 Z M 13.507812 18.785156 "/>
</g>
<mask id="mask14">
  <g filter="url(#alpha)">
<rect x="0" y="0" width="50" height="50" style="fill:rgb(0%,0%,0%);fill-opacity:0.996078;stroke:none;"/>
  </g>
</mask>
<clipPath id="clip15">
  <rect width="50" height="50"/>
</clipPath>
<g id="surface48" clip-path="url(#clip15)">
<path style=" stroke:none;fill-rule:evenodd;fill:rgb(66.27451%,22.745098%,17.647059%);fill-opacity:1;" d="M 13.269531 19.21875 C 13.640625 19.4375 14.007812 19.667969 14.371094 19.914062 C 14.914062 20.34375 15.460938 20.777344 16.003906 21.210938 C 16.410156 21.40625 16.808594 21.613281 17.203125 21.832031 C 17.441406 22.152344 17.746094 22.394531 18.113281 22.554688 C 18.273438 22.730469 18.433594 22.90625 18.59375 23.082031 C 19.132812 23.453125 19.691406 23.789062 20.273438 24.089844 C 20.21875 24.101562 20.171875 24.125 20.128906 24.160156 C 19.921875 24.488281 19.707031 24.804688 19.480469 25.121094 C 19.089844 25.710938 18.800781 26.351562 18.617188 27.039062 C 18.519531 27.699219 18.765625 28.167969 19.363281 28.453125 C 19.945312 28.476562 20.492188 28.332031 20.992188 28.023438 C 21.328125 27.792969 21.679688 27.589844 22.050781 27.421875 C 21.757812 28.25 21.484375 29.082031 21.234375 29.917969 C 21.191406 29.933594 21.175781 29.964844 21.183594 30.015625 C 21.054688 30.304688 20.917969 30.589844 20.777344 30.878906 C 20.585938 31.488281 20.394531 32.09375 20.203125 32.703125 C 19.410156 33.871094 18.6875 35.085938 18.042969 36.347656 C 17.835938 36.808594 17.644531 37.269531 17.464844 37.738281 C 17.210938 38.539062 16.953125 39.339844 16.699219 40.140625 C 16.425781 40.769531 16.167969 41.410156 15.929688 42.058594 C 15.6875 42.464844 15.511719 42.894531 15.402344 43.355469 C 15.355469 43.449219 15.292969 43.527344 15.210938 43.59375 C 15.152344 43.777344 15.207031 43.90625 15.378906 43.976562 C 15.527344 43.832031 15.660156 43.671875 15.785156 43.5 C 15.921875 43.09375 16.066406 42.695312 16.21875 42.296875 C 16.675781 41.628906 16.964844 40.894531 17.082031 40.089844 C 17.683594 38.625 18.277344 37.152344 18.859375 35.675781 C 19.03125 35.367188 19.246094 35.097656 19.503906 34.859375 C 18.429688 38.011719 17.351562 41.164062 16.265625 44.3125 C 13.679688 44.054688 11.273438 43.246094 9.046875 41.890625 C 7.082031 40.679688 5.667969 39.007812 4.796875 36.875 C 4.765625 36.796875 4.765625 36.714844 4.796875 36.636719 C 7.648438 30.839844 10.472656 25.035156 13.269531 19.21875 Z M 13.269531 19.21875 "/>
</g>
<mask id="mask15">
  <g filter="url(#alpha)">
<rect x="0" y="0" width="50" height="50" style="fill:rgb(0%,0%,0%);fill-opacity:0.988235;stroke:none;"/>
  </g>
</mask>
<clipPath id="clip16">
  <rect width="50" height="50"/>
</clipPath>
<g id="surface51" clip-path="url(#clip16)">
<path style=" stroke:none;fill-rule:evenodd;fill:rgb(97.647059%,97.647059%,97.647059%);fill-opacity:1;" d="M 32.078125 24.640625 C 31.976562 24.714844 31.894531 24.8125 31.835938 24.929688 C 31.6875 24.988281 31.535156 24.988281 31.382812 24.929688 C 31.230469 24.601562 31.117188 24.265625 31.046875 23.921875 C 31.070312 23.894531 31.09375 23.871094 31.117188 23.847656 C 31.308594 23.816406 31.5 23.816406 31.695312 23.847656 C 31.894531 24.078125 32.019531 24.34375 32.078125 24.640625 Z M 32.078125 24.640625 "/>
</g>
<mask id="mask16">
  <g filter="url(#alpha)">
<rect x="0" y="0" width="50" height="50" style="fill:rgb(0%,0%,0%);fill-opacity:0.627451;stroke:none;"/>
  </g>
</mask>
<clipPath id="clip17">
  <rect width="50" height="50"/>
</clipPath>
<g id="surface54" clip-path="url(#clip17)">
<path style=" stroke:none;fill-rule:evenodd;fill:rgb(85.882353%,85.882353%,85.882353%);fill-opacity:1;" d="M 32.558594 24.207031 C 32.527344 24.273438 32.476562 24.320312 32.414062 24.351562 C 32.347656 24.3125 32.300781 24.257812 32.269531 24.183594 C 32.375 24.144531 32.472656 24.15625 32.558594 24.207031 Z M 32.558594 24.207031 "/>
</g>
<mask id="mask17">
  <g filter="url(#alpha)">
<rect x="0" y="0" width="50" height="50" style="fill:rgb(0%,0%,0%);fill-opacity:0.862745;stroke:none;"/>
  </g>
</mask>
<clipPath id="clip18">
  <rect width="50" height="50"/>
</clipPath>
<g id="surface57" clip-path="url(#clip18)">
<path style=" stroke:none;fill-rule:evenodd;fill:rgb(90.980392%,90.980392%,90.588235%);fill-opacity:1;" d="M 22.097656 25.070312 C 22.847656 25.414062 23.582031 25.785156 24.304688 26.175781 C 24.09375 26.125 23.882812 26.0625 23.679688 25.984375 C 23.605469 25.859375 23.496094 25.8125 23.34375 25.839844 C 23.144531 25.777344 22.949219 25.699219 22.769531 25.601562 C 22.738281 25.535156 22.6875 25.488281 22.625 25.457031 C 22.4375 25.339844 22.261719 25.210938 22.097656 25.070312 Z M 22.097656 25.070312 "/>
</g>
<mask id="mask18">
  <g filter="url(#alpha)">
<rect x="0" y="0" width="50" height="50" style="fill:rgb(0%,0%,0%);fill-opacity:0.823529;stroke:none;"/>
  </g>
</mask>
<clipPath id="clip19">
  <rect width="50" height="50"/>
</clipPath>
<g id="surface60" clip-path="url(#clip19)">
<path style=" stroke:none;fill-rule:evenodd;fill:rgb(45.490196%,61.960784%,53.72549%);fill-opacity:1;" d="M 22.625 25.457031 C 22.6875 25.488281 22.738281 25.535156 22.769531 25.601562 C 22.640625 25.910156 22.527344 26.230469 22.433594 26.558594 C 22.371094 26.652344 22.289062 26.734375 22.191406 26.800781 C 22.316406 26.34375 22.460938 25.898438 22.625 25.457031 Z M 22.625 25.457031 "/>
</g>
<mask id="mask19">
  <g filter="url(#alpha)">
<rect x="0" y="0" width="50" height="50" style="fill:rgb(0%,0%,0%);fill-opacity:0.964706;stroke:none;"/>
  </g>
</mask>
<clipPath id="clip20">
  <rect width="50" height="50"/>
</clipPath>
<g id="surface63" clip-path="url(#clip20)">
<path style=" stroke:none;fill-rule:evenodd;fill:rgb(98.431373%,98.431373%,98.431373%);fill-opacity:1;" d="M 29.773438 25.742188 C 29.773438 25.777344 29.789062 25.792969 29.824219 25.792969 C 29.824219 25.824219 29.839844 25.839844 29.871094 25.839844 C 29.863281 25.886719 29.878906 25.917969 29.917969 25.9375 C 30.054688 26.269531 30.214844 26.589844 30.398438 26.894531 C 30.40625 26.957031 30.390625 27.015625 30.351562 27.0625 C 30.097656 27.242188 29.832031 27.265625 29.558594 27.136719 C 29.46875 26.824219 29.351562 26.527344 29.199219 26.246094 C 29.289062 26.066406 29.417969 25.90625 29.582031 25.769531 C 29.644531 25.746094 29.707031 25.734375 29.773438 25.742188 Z M 29.773438 25.742188 "/>
</g>
</defs>
<g id="surface1">
<use xlink:href="#surface6" mask="url(#mask0)"/>
<path style=" stroke:none;fill-rule:evenodd;fill:rgb(99.607843%,99.607843%,99.607843%);fill-opacity:1;" d="M 10.246094 3.191406 C 10.65625 3.542969 11.089844 3.867188 11.539062 4.175781 C 12.46875 4.71875 13.363281 5.3125 14.226562 5.949219 C 14.683594 6.148438 15.132812 6.371094 15.570312 6.621094 C 15.828125 6.847656 16.085938 7.070312 16.339844 7.292969 C 16.824219 7.460938 17.300781 7.636719 17.777344 7.820312 C 17.769531 7.960938 17.785156 8.105469 17.828125 8.253906 C 18 8.28125 18.101562 8.210938 18.136719 8.039062 C 18.394531 8.359375 18.722656 8.558594 19.121094 8.636719 C 19.203125 8.78125 19.3125 8.894531 19.457031 8.972656 C 19.9375 9.195312 20.386719 9.46875 20.800781 9.789062 C 22.074219 10.378906 23.289062 11.066406 24.449219 11.851562 C 25.015625 12.128906 25.542969 12.464844 26.03125 12.859375 C 26.582031 13.09375 27.109375 13.367188 27.613281 13.675781 C 29.113281 14.566406 30.507812 15.605469 31.789062 16.792969 C 31.675781 16.8125 31.589844 16.867188 31.527344 16.960938 C 31.410156 17.171875 31.378906 17.398438 31.429688 17.632812 C 31.539062 17.933594 31.722656 18.183594 31.980469 18.378906 C 31.933594 18.410156 31.886719 18.410156 31.835938 18.378906 C 30.945312 17.890625 30.035156 17.445312 29.101562 17.035156 C 28.703125 16.886719 28.296875 16.765625 27.878906 16.675781 C 27.792969 16.699219 27.734375 16.753906 27.710938 16.84375 C 27.738281 16.960938 27.804688 17.058594 27.902344 17.128906 C 29.066406 17.886719 30.121094 18.773438 31.070312 19.792969 C 31.101562 19.792969 31.117188 19.808594 31.117188 19.839844 C 31.148438 19.839844 31.167969 19.859375 31.167969 19.890625 C 31.199219 19.890625 31.214844 19.90625 31.214844 19.9375 C 31.246094 19.9375 31.261719 19.953125 31.261719 19.984375 C 31.292969 19.984375 31.308594 20 31.308594 20.035156 C 31.34375 20.035156 31.359375 20.050781 31.359375 20.082031 C 31.390625 20.082031 31.40625 20.097656 31.40625 20.128906 C 31.4375 20.128906 31.453125 20.144531 31.453125 20.175781 C 31.484375 20.175781 31.5 20.195312 31.5 20.226562 C 31.519531 20.257812 31.535156 20.289062 31.550781 20.320312 C 31.582031 20.320312 31.597656 20.335938 31.597656 20.371094 C 31.628906 20.371094 31.644531 20.386719 31.644531 20.417969 C 31.679688 20.417969 31.695312 20.433594 31.695312 20.464844 C 31.726562 20.464844 31.742188 20.480469 31.742188 20.511719 C 31.871094 20.675781 31.984375 20.851562 32.078125 21.042969 C 31.9375 21.105469 31.8125 21.183594 31.695312 21.28125 C 31.628906 21.824219 31.703125 22.355469 31.910156 22.863281 C 31.96875 22.9375 32.039062 22.996094 32.125 23.03125 C 32.40625 23.070312 32.675781 23.046875 32.941406 22.960938 C 32.941406 23.6875 32.621094 23.886719 31.980469 23.558594 C 31.535156 23.019531 31.058594 22.507812 30.542969 22.023438 C 29.582031 21.289062 28.542969 20.671875 27.421875 20.175781 C 27.335938 20.066406 27.238281 19.960938 27.136719 19.867188 C 26.625 19.515625 26.113281 19.160156 25.601562 18.808594 C 25.503906 18.75 25.398438 18.710938 25.289062 18.691406 C 25.121094 18.714844 25.082031 18.804688 25.167969 18.953125 C 25.621094 19.3125 26.101562 19.632812 26.609375 19.914062 C 26.78125 20.089844 26.957031 20.265625 27.136719 20.441406 C 28.210938 21.210938 29.296875 21.964844 30.398438 22.695312 C 30.671875 22.9375 30.941406 23.175781 31.214844 23.417969 C 31.023438 23.464844 30.871094 23.570312 30.757812 23.726562 C 30.765625 24.214844 30.878906 24.675781 31.09375 25.121094 C 31.210938 25.269531 31.363281 25.332031 31.550781 25.3125 C 31.527344 25.441406 31.496094 25.570312 31.453125 25.695312 C 31.21875 25.640625 30.992188 25.554688 30.78125 25.433594 C 30.109375 25.03125 29.4375 24.632812 28.765625 24.230469 C 28.296875 23.777344 27.785156 23.378906 27.230469 23.03125 C 26.09375 22.398438 25.003906 21.695312 23.96875 20.921875 C 23.734375 20.890625 23.671875 20.988281 23.777344 21.210938 C 23.882812 21.234375 23.980469 21.285156 24.0625 21.351562 C 25.484375 22.453125 26.953125 23.476562 28.480469 24.425781 C 28.84375 24.742188 29.195312 25.078125 29.535156 25.433594 C 29.273438 25.582031 29.058594 25.78125 28.886719 26.03125 C 28.855469 26.160156 28.855469 26.289062 28.886719 26.414062 C 29.023438 26.660156 29.136719 26.917969 29.222656 27.183594 C 29.261719 27.285156 29.316406 27.371094 29.390625 27.445312 C 29.796875 27.636719 30.179688 27.597656 30.542969 27.328125 C 30.585938 27.835938 30.347656 28.035156 29.824219 27.925781 C 29.589844 27.84375 29.351562 27.796875 29.101562 27.78125 C 28.925781 27.671875 28.75 27.558594 28.574219 27.445312 C 28.0625 27.238281 27.535156 27.078125 26.992188 26.96875 C 26.316406 26.527344 25.597656 26.175781 24.832031 25.910156 C 23.867188 25.4375 22.921875 24.925781 22 24.375 C 21.855469 24.328125 21.714844 24.28125 21.570312 24.230469 C 20.996094 23.90625 20.40625 23.617188 19.792969 23.367188 C 17.902344 21.882812 15.949219 20.484375 13.941406 19.167969 C 13.804688 19.03125 13.664062 18.902344 13.507812 18.785156 C 12.886719 18.28125 12.214844 17.851562 11.492188 17.492188 C 11.460938 17.492188 11.445312 17.472656 11.445312 17.441406 C 11.429688 17.441406 11.414062 17.441406 11.394531 17.441406 C 11.363281 17.441406 11.347656 17.425781 11.347656 17.394531 C 11.039062 17.152344 10.71875 16.917969 10.390625 16.699219 C 8.429688 15.800781 6.542969 14.777344 4.726562 13.628906 C 3.894531 13.195312 3.0625 12.765625 2.230469 12.332031 C 1.566406 12 0.863281 11.8125 0.121094 11.78125 C 0.0820312 11.738281 0.0351562 11.703125 -0.0234375 11.683594 C -0.0234375 11.492188 -0.0234375 11.300781 -0.0234375 11.109375 C 0.246094 10.507812 0.589844 9.945312 1.007812 9.429688 C 2.265625 8.105469 3.664062 6.964844 5.207031 6 C 6.824219 4.964844 8.503906 4.027344 10.246094 3.191406 Z M 10.246094 3.191406 "/>
<use xlink:href="#surface9" mask="url(#mask1)"/>
<use xlink:href="#surface12" mask="url(#mask2)"/>
<use xlink:href="#surface15" mask="url(#mask3)"/>
<use xlink:href="#surface18" mask="url(#mask4)"/>
<use xlink:href="#surface21" mask="url(#mask5)"/>
<use xlink:href="#surface24" mask="url(#mask6)"/>
<use xlink:href="#surface27" mask="url(#mask7)"/>
<use xlink:href="#surface30" mask="url(#mask8)"/>
<use xlink:href="#surface33" mask="url(#mask9)"/>
<use xlink:href="#surface36" mask="url(#mask10)"/>
<use xlink:href="#surface39" mask="url(#mask11)"/>
<use xlink:href="#surface42" mask="url(#mask12)"/>
<use xlink:href="#surface45" mask="url(#mask13)"/>
<use xlink:href="#surface48" mask="url(#mask14)"/>
<path style=" stroke:none;fill-rule:evenodd;fill:rgb(95.686275%,95.686275%,95.686275%);fill-opacity:1;" d="M 32.03125 21.425781 C 32.128906 21.417969 32.222656 21.425781 32.316406 21.449219 C 32.644531 21.792969 32.835938 22.199219 32.894531 22.671875 C 32.660156 22.714844 32.425781 22.714844 32.199219 22.671875 C 32.078125 22.3125 31.992188 21.945312 31.933594 21.570312 C 31.953125 21.507812 31.988281 21.460938 32.03125 21.425781 Z M 32.03125 21.425781 "/>
<use xlink:href="#surface51" mask="url(#mask15)"/>
<use xlink:href="#surface54" mask="url(#mask16)"/>
<path style=" stroke:none;fill-rule:evenodd;fill:rgb(64.705882%,22.745098%,17.647059%);fill-opacity:1;" d="M 20.800781 24.398438 C 20.617188 24.863281 20.363281 25.28125 20.035156 25.648438 C 19.957031 25.539062 19.859375 25.441406 19.746094 25.359375 C 19.90625 25.070312 20.089844 24.800781 20.296875 24.542969 C 20.371094 24.425781 20.421875 24.296875 20.441406 24.160156 C 20.554688 24.25 20.675781 24.332031 20.800781 24.398438 Z M 20.800781 24.398438 "/>
<path style=" stroke:none;fill-rule:evenodd;fill:rgb(65.098039%,36.862745%,31.764706%);fill-opacity:1;" d="M 20.800781 24.398438 C 21.230469 24.636719 21.660156 24.863281 22.097656 25.070312 C 22.261719 25.210938 22.4375 25.339844 22.625 25.457031 C 22.460938 25.898438 22.316406 26.34375 22.191406 26.800781 C 22.011719 26.925781 21.835938 27.0625 21.664062 27.207031 C 21.453125 27.289062 21.246094 27.375 21.042969 27.472656 C 21.039062 27.445312 21.023438 27.429688 20.992188 27.421875 C 20.5625 27.609375 20.117188 27.703125 19.648438 27.710938 C 19.867188 27.632812 20.074219 27.53125 20.273438 27.398438 C 20.417969 27.136719 20.476562 26.859375 20.441406 26.558594 C 20.355469 26.230469 20.21875 25.925781 20.035156 25.648438 C 20.363281 25.28125 20.617188 24.863281 20.800781 24.398438 Z M 20.800781 24.398438 "/>
<use xlink:href="#surface57" mask="url(#mask17)"/>
<use xlink:href="#surface60" mask="url(#mask18)"/>
<path style=" stroke:none;fill-rule:evenodd;fill:rgb(64.705882%,22.745098%,17.647059%);fill-opacity:1;" d="M 19.839844 26.03125 C 19.5625 26.386719 19.367188 26.785156 19.265625 27.230469 C 19.128906 27.183594 19.035156 27.097656 18.976562 26.96875 C 19.109375 26.515625 19.304688 26.09375 19.554688 25.695312 C 19.6875 25.78125 19.78125 25.890625 19.839844 26.03125 Z M 19.839844 26.03125 "/>
<use xlink:href="#surface63" mask="url(#mask19)"/>
<path style=" stroke:none;fill-rule:evenodd;fill:rgb(63.529412%,36.078431%,30.980392%);fill-opacity:1;" d="M 19.839844 26.03125 C 20.0625 26.3125 20.152344 26.632812 20.105469 26.992188 C 19.945312 27.246094 19.710938 27.363281 19.410156 27.351562 C 19.359375 27.308594 19.308594 27.269531 19.265625 27.230469 C 19.367188 26.785156 19.5625 26.386719 19.839844 26.03125 Z M 19.839844 26.03125 "/>
<path style=" stroke:none;fill-rule:evenodd;fill:rgb(64.313725%,22.745098%,17.647059%);fill-opacity:1;" d="M 21.042969 27.472656 C 20.675781 27.621094 20.324219 27.796875 19.984375 28 C 19.746094 27.96875 19.507812 27.941406 19.265625 27.925781 C 19.207031 27.855469 19.136719 27.796875 19.050781 27.757812 C 18.988281 27.667969 18.972656 27.574219 19 27.472656 C 19.179688 27.65625 19.394531 27.738281 19.648438 27.710938 C 20.117188 27.703125 20.5625 27.609375 20.992188 27.421875 C 21.023438 27.429688 21.039062 27.445312 21.042969 27.472656 Z M 21.042969 27.472656 "/>
</g>
</svg>
