<?xml version="1.0" encoding="UTF-8"?>
<svg xmlns="http://www.w3.org/2000/svg" xmlns:xlink="http://www.w3.org/1999/xlink" width="50pt" height="50pt" viewBox="0 0 50 50" version="1.1">
<defs>
<filter id="alpha" filterUnits="objectBoundingBox" x="0%" y="0%" width="100%" height="100%">
  <feColorMatrix type="matrix" in="SourceGraphic" values="0 0 0 0 1 0 0 0 0 1 0 0 0 0 1 0 0 0 1 0"/>
</filter>
<mask id="mask0">
  <g filter="url(#alpha)">
<rect x="0" y="0" width="50" height="50" style="fill:rgb(0%,0%,0%);fill-opacity:0.976471;stroke:none;"/>
  </g>
</mask>
<clipPath id="clip1">
  <rect width="50" height="50"/>
</clipPath>
<g id="surface6" clip-path="url(#clip1)">
<path style=" stroke:none;fill-rule:evenodd;fill:rgb(0%,0%,0%);fill-opacity:1;" d="M 28.097656 3.085938 C 30.304688 2.976562 32.074219 3.792969 33.414062 5.53125 C 34.539062 7.207031 34.796875 9.007812 34.179688 10.933594 C 33.429688 12.910156 32.035156 14.167969 29.992188 14.714844 C 27.613281 15.1875 25.625 14.519531 24.027344 12.710938 C 22.761719 11.058594 22.410156 9.226562 22.972656 7.214844 C 23.625 5.28125 24.914062 3.988281 26.847656 3.335938 C 27.261719 3.214844 27.675781 3.132812 28.097656 3.085938 Z M 24.136719 6.324219 C 23.671875 7.613281 23.488281 8.941406 23.582031 10.308594 C 23.214844 8.90625 23.398438 7.578125 24.136719 6.324219 Z M 24.375 12.015625 C 25.171875 12.742188 26.058594 13.335938 27.039062 13.800781 C 27.328125 13.917969 27.617188 14.027344 27.90625 14.125 C 26.433594 13.90625 25.257812 13.203125 24.375 12.015625 Z M 24.375 12.015625 "/>
</g>
<mask id="mask1">
  <g filter="url(#alpha)">
<rect x="0" y="0" width="50" height="50" style="fill:rgb(0%,0%,0%);fill-opacity:0.980392;stroke:none;"/>
  </g>
</mask>
<clipPath id="clip2">
  <rect width="50" height="50"/>
</clipPath>
<g id="surface9" clip-path="url(#clip2)">
<path style=" stroke:none;fill-rule:evenodd;fill:rgb(0.392157%,0.392157%,0.392157%);fill-opacity:1;" d="M 42.8125 20.367188 C 42.371094 20.410156 41.933594 20.425781 41.492188 20.414062 C 40.007812 20.304688 38.742188 19.730469 37.699219 18.6875 C 37.578125 18.558594 37.457031 18.429688 37.339844 18.304688 C 36.167969 16.875 35.71875 15.246094 35.980469 13.40625 C 36.367188 11.367188 37.472656 9.867188 39.304688 8.90625 C 40.910156 8.164062 42.542969 8.097656 44.203125 8.714844 C 46.140625 9.539062 47.359375 10.976562 47.863281 13.023438 C 48.265625 15.09375 47.777344 16.917969 46.398438 18.496094 C 45.421875 19.527344 44.222656 20.152344 42.8125 20.367188 Z M 40.84375 9.132812 C 39.523438 9.652344 38.394531 10.445312 37.457031 11.511719 C 38.257812 10.261719 39.386719 9.46875 40.84375 9.132812 Z M 45.378906 10.261719 C 46.273438 11 46.855469 11.9375 47.132812 13.070312 C 46.699219 12.035156 46.113281 11.101562 45.378906 10.261719 Z M 45.378906 10.261719 "/>
</g>
<mask id="mask2">
  <g filter="url(#alpha)">
<rect x="0" y="0" width="50" height="50" style="fill:rgb(0%,0%,0%);fill-opacity:0.984314;stroke:none;"/>
  </g>
</mask>
<clipPath id="clip3">
  <rect width="50" height="50"/>
</clipPath>
<g id="surface12" clip-path="url(#clip3)">
<path style=" stroke:none;fill-rule:evenodd;fill:rgb(0%,0%,0%);fill-opacity:1;" d="M 11.148438 8.484375 C 14.425781 8.496094 17.046875 9.800781 19.011719 12.398438 C 20.675781 14.839844 21.140625 17.496094 20.402344 20.367188 C 19.53125 23.207031 17.746094 25.234375 15.039062 26.453125 C 12.507812 27.460938 9.996094 27.421875 7.5 26.332031 C 4.753906 24.992188 3.015625 22.835938 2.28125 19.863281 C 1.660156 16.652344 2.433594 13.835938 4.609375 11.414062 C 6.398438 9.582031 8.578125 8.605469 11.148438 8.484375 Z M 12.109375 9.613281 C 10.925781 9.574219 9.765625 9.726562 8.628906 10.070312 C 9.753906 9.648438 10.914062 9.496094 12.109375 9.613281 Z M 17.078125 11.847656 C 18.765625 13.480469 19.632812 15.480469 19.671875 17.847656 C 19.613281 20.378906 18.636719 22.476562 16.742188 24.136719 C 17.746094 23.03125 18.535156 21.78125 19.105469 20.390625 C 19.414062 19.640625 19.585938 18.859375 19.625 18.050781 C 19.546875 17 19.3125 15.988281 18.914062 15.015625 C 18.457031 13.863281 17.84375 12.804688 17.078125 11.847656 Z M 3.277344 19.261719 C 3.761719 20.851562 4.574219 22.242188 5.714844 23.441406 C 6.453125 24.210938 7.273438 24.875 8.171875 25.433594 C 6.246094 24.589844 4.828125 23.222656 3.914062 21.328125 C 3.601562 20.667969 3.390625 19.980469 3.277344 19.261719 Z M 3.277344 19.261719 "/>
</g>
<mask id="mask3">
  <g filter="url(#alpha)">
<rect x="0" y="0" width="50" height="50" style="fill:rgb(0%,0%,0%);fill-opacity:0.996078;stroke:none;"/>
  </g>
</mask>
<clipPath id="clip4">
  <rect width="50" height="50"/>
</clipPath>
<g id="surface15" clip-path="url(#clip4)">
<path style=" stroke:none;fill-rule:evenodd;fill:rgb(99.607843%,99.607843%,99.607843%);fill-opacity:1;" d="M 12.109375 9.613281 C 13.714844 9.738281 15.152344 10.289062 16.429688 11.257812 C 16.617188 11.402344 16.792969 11.558594 16.957031 11.726562 C 16.957031 11.742188 16.964844 11.75 16.984375 11.75 C 16.984375 11.765625 16.992188 11.773438 17.007812 11.773438 C 17.007812 11.789062 17.015625 11.796875 17.03125 11.796875 C 17.03125 11.8125 17.039062 11.820312 17.054688 11.820312 C 17.054688 11.839844 17.0625 11.847656 17.078125 11.847656 C 17.84375 12.804688 18.457031 13.863281 18.914062 15.015625 C 19.3125 15.988281 19.546875 17 19.625 18.050781 C 19.585938 18.859375 19.414062 19.640625 19.105469 20.390625 C 18.535156 21.78125 17.746094 23.03125 16.742188 24.136719 C 15.359375 25.320312 13.75 25.972656 11.917969 26.09375 C 10.648438 26.1875 9.433594 25.980469 8.269531 25.480469 C 8.261719 25.460938 8.246094 25.453125 8.222656 25.457031 C 8.214844 25.4375 8.195312 25.429688 8.171875 25.433594 C 7.273438 24.875 6.453125 24.210938 5.714844 23.441406 C 4.574219 22.242188 3.761719 20.851562 3.277344 19.261719 C 3.28125 19.226562 3.273438 19.191406 3.253906 19.167969 C 3.257812 19.128906 3.25 19.097656 3.230469 19.070312 C 2.855469 15.960938 3.855469 13.398438 6.230469 11.378906 C 6.742188 10.976562 7.296875 10.636719 7.886719 10.359375 C 7.910156 10.363281 7.925781 10.355469 7.933594 10.332031 C 7.980469 10.328125 8.019531 10.308594 8.054688 10.285156 C 8.078125 10.289062 8.09375 10.28125 8.101562 10.261719 C 8.132812 10.265625 8.15625 10.257812 8.171875 10.238281 C 8.195312 10.242188 8.214844 10.234375 8.222656 10.214844 C 8.253906 10.21875 8.277344 10.210938 8.292969 10.191406 C 8.316406 10.195312 8.332031 10.1875 8.339844 10.164062 C 8.371094 10.171875 8.394531 10.164062 8.414062 10.140625 C 8.445312 10.148438 8.46875 10.140625 8.484375 10.117188 C 8.515625 10.125 8.539062 10.117188 8.558594 10.09375 C 8.589844 10.097656 8.613281 10.089844 8.628906 10.070312 C 9.765625 9.726562 10.925781 9.574219 12.109375 9.613281 Z M 12.109375 9.613281 "/>
</g>
<mask id="mask4">
  <g filter="url(#alpha)">
<rect x="0" y="0" width="50" height="50" style="fill:rgb(0%,0%,0%);fill-opacity:0.345098;stroke:none;"/>
  </g>
</mask>
<clipPath id="clip5">
  <rect width="50" height="50"/>
</clipPath>
<g id="surface18" clip-path="url(#clip5)">
<path style=" stroke:none;fill-rule:evenodd;fill:rgb(87.45098%,87.45098%,87.45098%);fill-opacity:1;" d="M 37.339844 18.304688 C 37.457031 18.429688 37.578125 18.558594 37.699219 18.6875 C 37.542969 18.589844 37.425781 18.460938 37.339844 18.304688 Z M 37.339844 18.304688 "/>
</g>
<mask id="mask5">
  <g filter="url(#alpha)">
<rect x="0" y="0" width="50" height="50" style="fill:rgb(0%,0%,0%);fill-opacity:0.980392;stroke:none;"/>
  </g>
</mask>
<clipPath id="clip6">
  <rect width="50" height="50"/>
</clipPath>
<g id="surface21" clip-path="url(#clip6)">
<path style=" stroke:none;fill-rule:evenodd;fill:rgb(0.392157%,0.392157%,0.392157%);fill-opacity:1;" d="M 28.769531 33.042969 C 28.003906 33.121094 27.253906 33.058594 26.511719 32.859375 C 26.367188 32.820312 26.222656 32.773438 26.082031 32.730469 C 24.246094 32.019531 23.03125 30.722656 22.445312 28.839844 C 21.933594 26.796875 22.339844 24.964844 23.667969 23.34375 C 25.359375 21.570312 27.394531 20.992188 29.777344 21.601562 C 31.972656 22.34375 33.328125 23.84375 33.84375 26.105469 C 34.195312 28.363281 33.519531 30.25 31.816406 31.757812 C 30.925781 32.472656 29.910156 32.902344 28.769531 33.042969 Z M 27.878906 22.046875 C 26.886719 22.324219 25.917969 22.675781 24.976562 23.105469 C 25.828125 22.449219 26.796875 22.097656 27.878906 22.046875 Z M 27.878906 22.046875 "/>
</g>
<mask id="mask6">
  <g filter="url(#alpha)">
<rect x="0" y="0" width="50" height="50" style="fill:rgb(0%,0%,0%);fill-opacity:0.905882;stroke:none;"/>
  </g>
</mask>
<clipPath id="clip7">
  <rect width="50" height="50"/>
</clipPath>
<g id="surface24" clip-path="url(#clip7)">
<path style=" stroke:none;fill-rule:evenodd;fill:rgb(96.078431%,96.078431%,96.078431%);fill-opacity:1;" d="M 26.082031 32.730469 C 26.222656 32.773438 26.367188 32.820312 26.511719 32.859375 C 27.253906 33.058594 28.003906 33.121094 28.769531 33.042969 C 28.050781 33.300781 27.328125 33.296875 26.609375 33.027344 C 26.417969 32.945312 26.242188 32.847656 26.082031 32.730469 Z M 26.082031 32.730469 "/>
</g>
<mask id="mask7">
  <g filter="url(#alpha)">
<rect x="0" y="0" width="50" height="50" style="fill:rgb(0%,0%,0%);fill-opacity:0.980392;stroke:none;"/>
  </g>
</mask>
<clipPath id="clip8">
  <rect width="50" height="50"/>
</clipPath>
<g id="surface27" clip-path="url(#clip8)">
<path style=" stroke:none;fill-rule:evenodd;fill:rgb(0.392157%,0.392157%,0.392157%);fill-opacity:1;" d="M 21.207031 46.386719 C 20.117188 46.445312 19.085938 46.230469 18.109375 45.738281 C 16.441406 44.828125 15.421875 43.4375 15.050781 41.5625 C 14.742188 39.335938 15.425781 37.484375 17.101562 36.003906 C 18.71875 34.753906 20.519531 34.394531 22.503906 34.925781 C 24.519531 35.582031 25.84375 36.921875 26.476562 38.945312 C 26.972656 40.90625 26.605469 42.683594 25.371094 44.273438 C 24.28125 45.554688 22.890625 46.257812 21.207031 46.386719 Z M 16.144531 38.371094 C 15.761719 40.023438 15.859375 41.648438 16.429688 43.242188 C 15.820312 42.265625 15.570312 41.203125 15.675781 40.050781 C 15.734375 39.460938 15.890625 38.898438 16.144531 38.371094 Z M 16.144531 38.371094 "/>
</g>
<mask id="mask8">
  <g filter="url(#alpha)">
<rect x="0" y="0" width="50" height="50" style="fill:rgb(0%,0%,0%);fill-opacity:0.917647;stroke:none;"/>
  </g>
</mask>
<clipPath id="clip9">
  <rect width="50" height="50"/>
</clipPath>
<g id="surface30" clip-path="url(#clip9)">
<path style=" stroke:none;fill-rule:evenodd;fill:rgb(97.647059%,97.647059%,97.647059%);fill-opacity:1;" d="M 18.109375 45.738281 C 19.085938 46.230469 20.117188 46.445312 21.207031 46.386719 C 20.050781 46.746094 19.019531 46.527344 18.109375 45.738281 Z M 18.109375 45.738281 "/>
</g>
</defs>
<g id="surface1">
<use xlink:href="#surface6" mask="url(#mask0)"/>
<path style=" stroke:none;fill-rule:evenodd;fill:rgb(99.607843%,99.607843%,99.607843%);fill-opacity:1;" d="M 27.976562 14.148438 C 27.960938 14.128906 27.933594 14.121094 27.90625 14.125 C 27.617188 14.027344 27.328125 13.917969 27.039062 13.800781 C 26.058594 13.335938 25.171875 12.742188 24.375 12.015625 C 23.988281 11.503906 23.726562 10.9375 23.582031 10.308594 C 23.488281 8.941406 23.671875 7.613281 24.136719 6.324219 C 24.15625 6.316406 24.164062 6.300781 24.160156 6.277344 C 24.179688 6.269531 24.1875 6.253906 24.183594 6.230469 C 24.960938 4.992188 26.066406 4.203125 27.496094 3.863281 C 29.613281 3.503906 31.363281 4.140625 32.742188 5.773438 C 33.84375 7.28125 34.105469 8.929688 33.535156 10.71875 C 32.90625 12.371094 31.75 13.460938 30.066406 13.996094 C 29.378906 14.183594 28.683594 14.238281 27.976562 14.148438 Z M 27.976562 14.148438 "/>
<path style=" stroke:none;fill-rule:evenodd;fill:rgb(1.176471%,1.176471%,1.176471%);fill-opacity:1;" d="M 28.121094 4.546875 C 29.796875 4.441406 31.152344 5.042969 32.1875 6.347656 C 32.535156 6.832031 32.777344 7.367188 32.921875 7.945312 C 32.914062 7.976562 32.898438 8 32.875 8.015625 C 32.75 8.046875 32.625 8.074219 32.5 8.101562 C 32.46875 8.09375 32.445312 8.078125 32.429688 8.054688 C 32 6.527344 31.019531 5.554688 29.488281 5.136719 C 28.984375 5.042969 28.480469 5.03125 27.976562 5.101562 C 27.949219 5.09375 27.929688 5.078125 27.917969 5.054688 C 27.890625 4.902344 27.871094 4.75 27.855469 4.597656 C 27.949219 4.59375 28.039062 4.578125 28.121094 4.546875 Z M 28.121094 4.546875 "/>
<use xlink:href="#surface9" mask="url(#mask1)"/>
<use xlink:href="#surface12" mask="url(#mask2)"/>
<path style=" stroke:none;fill-rule:evenodd;fill:rgb(99.607843%,99.607843%,99.607843%);fill-opacity:1;" d="M 45.285156 10.164062 C 45.285156 10.179688 45.292969 10.191406 45.308594 10.191406 C 45.308594 10.207031 45.316406 10.214844 45.332031 10.214844 C 45.332031 10.230469 45.339844 10.238281 45.355469 10.238281 C 45.355469 10.253906 45.363281 10.261719 45.378906 10.261719 C 46.113281 11.101562 46.699219 12.035156 47.132812 13.070312 C 47.128906 13.09375 47.136719 13.109375 47.15625 13.117188 C 47.148438 13.148438 47.15625 13.171875 47.179688 13.191406 C 47.527344 14.949219 47.132812 16.519531 45.992188 17.894531 C 44.671875 19.324219 43.042969 19.921875 41.105469 19.683594 C 39.269531 19.339844 37.9375 18.335938 37.109375 16.671875 C 36.441406 15.179688 36.421875 13.683594 37.0625 12.183594 C 37.152344 11.976562 37.261719 11.785156 37.386719 11.605469 C 37.402344 11.605469 37.410156 11.597656 37.410156 11.582031 C 37.429688 11.574219 37.4375 11.558594 37.433594 11.535156 C 37.449219 11.535156 37.457031 11.527344 37.457031 11.511719 C 38.394531 10.445312 39.523438 9.652344 40.84375 9.132812 C 40.867188 9.136719 40.882812 9.128906 40.890625 9.109375 C 42.261719 8.84375 43.550781 9.0625 44.753906 9.769531 C 44.945312 9.882812 45.121094 10.015625 45.285156 10.164062 Z M 45.285156 10.164062 "/>
<use xlink:href="#surface15" mask="url(#mask3)"/>
<path style=" stroke:none;fill-rule:evenodd;fill:rgb(0.784314%,0.784314%,0.784314%);fill-opacity:1;" d="M 11.054688 10.8125 C 11.132812 10.8125 11.214844 10.8125 11.292969 10.8125 C 11.292969 11.078125 11.292969 11.34375 11.292969 11.605469 C 9.089844 11.710938 7.375 12.667969 6.144531 14.484375 C 5.539062 15.453125 5.214844 16.511719 5.171875 17.65625 C 4.910156 17.65625 4.644531 17.648438 4.378906 17.628906 C 4.492188 15.410156 5.410156 13.617188 7.140625 12.242188 C 8.300781 11.375 9.605469 10.898438 11.054688 10.8125 Z M 11.054688 10.8125 "/>
<path style=" stroke:none;fill-rule:evenodd;fill:rgb(1.568627%,1.568627%,1.568627%);fill-opacity:1;" d="M 37.480469 13.550781 C 37.648438 13.582031 37.816406 13.605469 37.984375 13.621094 C 37.761719 15.214844 38.257812 16.53125 39.472656 17.570312 C 39.941406 17.925781 40.460938 18.175781 41.035156 18.328125 C 40.988281 18.484375 40.957031 18.644531 40.9375 18.808594 C 39.417969 18.425781 38.347656 17.515625 37.734375 16.070312 C 37.414062 15.253906 37.332031 14.414062 37.480469 13.550781 Z M 37.480469 13.550781 "/>
<use xlink:href="#surface18" mask="url(#mask4)"/>
<path style=" stroke:none;fill-rule:evenodd;fill:rgb(69.803922%,69.803922%,69.803922%);fill-opacity:1;" d="M 42.8125 20.367188 C 42.375 20.472656 41.933594 20.488281 41.492188 20.414062 C 41.933594 20.425781 42.371094 20.410156 42.8125 20.367188 Z M 42.8125 20.367188 "/>
<use xlink:href="#surface21" mask="url(#mask5)"/>
<path style=" stroke:none;fill-rule:evenodd;fill:rgb(99.607843%,99.607843%,99.607843%);fill-opacity:1;" d="M 23.65625 29.898438 C 23.660156 29.871094 23.652344 29.855469 23.632812 29.847656 C 23.621094 29.820312 23.605469 29.796875 23.582031 29.777344 C 23.589844 29.753906 23.578125 29.738281 23.558594 29.730469 C 23.5625 29.703125 23.554688 29.6875 23.535156 29.679688 C 22.765625 28.242188 22.683594 26.761719 23.285156 25.238281 C 23.640625 24.367188 24.195312 23.65625 24.953125 23.105469 C 24.960938 23.105469 24.96875 23.105469 24.976562 23.105469 C 25.917969 22.675781 26.886719 22.324219 27.878906 22.046875 C 29.886719 22.023438 31.433594 22.847656 32.523438 24.519531 C 33.492188 26.226562 33.53125 27.953125 32.644531 29.703125 C 31.617188 31.449219 30.085938 32.351562 28.046875 32.417969 C 26.441406 32.367188 25.117188 31.734375 24.074219 30.519531 C 23.929688 30.316406 23.789062 30.105469 23.65625 29.898438 Z M 23.65625 29.898438 "/>
<path style=" stroke:none;fill-rule:evenodd;fill:rgb(1.176471%,1.176471%,1.176471%);fill-opacity:1;" d="M 25.71875 23.488281 C 25.769531 23.5 25.808594 23.53125 25.828125 23.582031 C 25.898438 23.691406 25.953125 23.804688 25.996094 23.917969 C 24.636719 24.859375 24.046875 26.15625 24.21875 27.808594 C 24.304688 28.265625 24.453125 28.703125 24.664062 29.117188 C 24.660156 29.136719 24.652344 29.152344 24.640625 29.164062 C 24.507812 29.226562 24.382812 29.296875 24.257812 29.367188 C 23.703125 28.382812 23.546875 27.332031 23.789062 26.222656 C 24.085938 25.0625 24.730469 24.148438 25.71875 23.488281 Z M 25.71875 23.488281 "/>
<use xlink:href="#surface24" mask="url(#mask6)"/>
<use xlink:href="#surface27" mask="url(#mask7)"/>
<path style=" stroke:none;fill-rule:evenodd;fill:rgb(99.607843%,99.607843%,99.607843%);fill-opacity:1;" d="M 24.761719 43.914062 C 23.625 45.203125 22.191406 45.808594 20.464844 45.726562 C 18.710938 45.558594 17.367188 44.738281 16.429688 43.265625 C 16.429688 43.257812 16.429688 43.25 16.429688 43.242188 C 15.859375 41.648438 15.761719 40.023438 16.144531 38.371094 C 16.519531 37.527344 17.085938 36.832031 17.847656 36.292969 C 19.398438 35.261719 21.046875 35.078125 22.792969 35.742188 C 24.460938 36.472656 25.503906 37.722656 25.925781 39.5 C 26.1875 40.957031 25.90625 42.300781 25.085938 43.53125 C 24.972656 43.65625 24.863281 43.785156 24.761719 43.914062 Z M 24.761719 43.914062 "/>
<path style=" stroke:none;fill-rule:evenodd;fill:rgb(1.568627%,1.568627%,1.568627%);fill-opacity:1;" d="M 18.472656 36.808594 C 18.507812 36.820312 18.535156 36.84375 18.554688 36.882812 C 18.628906 37.003906 18.691406 37.121094 18.746094 37.242188 C 17.367188 38.191406 16.777344 39.503906 16.972656 41.179688 C 17.058594 41.621094 17.203125 42.042969 17.414062 42.4375 C 17.410156 42.457031 17.402344 42.472656 17.390625 42.488281 C 17.257812 42.550781 17.132812 42.617188 17.007812 42.691406 C 16.746094 42.261719 16.574219 41.796875 16.492188 41.296875 C 16.25 39.398438 16.910156 37.902344 18.472656 36.808594 Z M 18.472656 36.808594 "/>
<use xlink:href="#surface30" mask="url(#mask8)"/>
</g>
</svg>
