<?xml version="1.0" encoding="UTF-8"?>
<svg xmlns="http://www.w3.org/2000/svg" xmlns:xlink="http://www.w3.org/1999/xlink" width="50pt" height="50pt" viewBox="0 0 50 50" version="1.1">
<defs>
<filter id="alpha" filterUnits="objectBoundingBox" x="0%" y="0%" width="100%" height="100%">
  <feColorMatrix type="matrix" in="SourceGraphic" values="0 0 0 0 1 0 0 0 0 1 0 0 0 0 1 0 0 0 1 0"/>
</filter>
<mask id="mask0">
  <g filter="url(#alpha)">
<rect x="0" y="0" width="50" height="50" style="fill:rgb(0%,0%,0%);fill-opacity:0.996078;stroke:none;"/>
  </g>
</mask>
<clipPath id="clip1">
  <rect width="50" height="50"/>
</clipPath>
<g id="surface6" clip-path="url(#clip1)">
<path style=" stroke:none;fill-rule:evenodd;fill:rgb(0.784314%,0.392157%,0.392157%);fill-opacity:1;" d="M 11.941406 4.210938 C 11.953125 4.960938 11.96875 5.703125 11.988281 6.445312 C 11.980469 6.84375 11.988281 7.246094 12.015625 7.644531 C 12.097656 7.613281 12.1875 7.59375 12.277344 7.585938 C 13.726562 7.542969 15.175781 7.507812 16.621094 7.476562 C 16.636719 7.476562 16.65625 7.476562 16.671875 7.476562 C 16.742188 7.476562 16.816406 7.476562 16.886719 7.476562 C 16.886719 7.300781 16.886719 7.125 16.886719 6.949219 C 16.894531 5.921875 16.9375 4.898438 17.019531 3.875 C 17.125 3.773438 17.222656 3.78125 17.308594 3.902344 C 17.3125 5.445312 17.332031 6.988281 17.367188 8.535156 C 17.386719 9.535156 17.414062 10.535156 17.449219 11.535156 C 17.464844 11.613281 17.476562 11.695312 17.488281 11.773438 C 17.519531 12.019531 17.632812 12.226562 17.824219 12.386719 C 17.847656 12.402344 17.871094 12.402344 17.894531 12.386719 C 18.089844 12.214844 18.222656 12 18.289062 11.75 C 18.335938 11.574219 18.375 11.398438 18.398438 11.222656 C 18.425781 10.933594 18.441406 10.644531 18.445312 10.359375 C 18.46875 10.265625 18.488281 10.171875 18.496094 10.070312 C 18.550781 9.542969 18.582031 9.015625 18.589844 8.484375 C 18.65625 6.957031 18.652344 5.429688 18.578125 3.902344 C 18.5625 3.574219 18.488281 3.261719 18.363281 2.964844 C 18.273438 2.800781 18.136719 2.707031 17.953125 2.675781 C 17.804688 2.707031 17.660156 2.753906 17.523438 2.820312 C 17.417969 2.808594 17.359375 2.75 17.34375 2.652344 C 17.429688 2.269531 17.667969 2.105469 18.0625 2.160156 C 18.476562 2.238281 18.738281 2.484375 18.84375 2.890625 C 18.863281 2.988281 18.878906 3.082031 18.890625 3.179688 C 18.933594 4.636719 18.957031 6.09375 18.949219 7.550781 C 19.925781 7.503906 20.902344 7.46875 21.878906 7.441406 C 22.449219 7.40625 23.019531 7.355469 23.582031 7.285156 C 23.671875 7.285156 23.761719 7.285156 23.847656 7.285156 C 23.851562 6.15625 23.894531 5.027344 23.980469 3.902344 C 24.0625 3.78125 24.160156 3.773438 24.269531 3.875 C 24.273438 5.347656 24.296875 6.820312 24.328125 8.292969 C 24.34375 9.453125 24.382812 10.613281 24.449219 11.773438 C 24.496094 12.015625 24.605469 12.21875 24.785156 12.386719 C 24.808594 12.402344 24.832031 12.402344 24.855469 12.386719 C 25.101562 12.171875 25.25 11.90625 25.300781 11.582031 C 25.332031 11.445312 25.351562 11.3125 25.359375 11.171875 C 25.390625 10.917969 25.40625 10.664062 25.40625 10.40625 C 25.503906 9.691406 25.558594 8.972656 25.574219 8.246094 C 25.636719 6.910156 25.632812 5.574219 25.5625 4.238281 C 25.550781 3.945312 25.519531 3.660156 25.46875 3.371094 C 25.429688 3.214844 25.375 3.0625 25.300781 2.917969 C 25.09375 2.640625 24.851562 2.605469 24.566406 2.808594 C 24.503906 2.824219 24.4375 2.820312 24.375 2.796875 C 24.332031 2.765625 24.304688 2.722656 24.304688 2.664062 C 24.359375 2.320312 24.566406 2.148438 24.914062 2.148438 C 25.320312 2.164062 25.601562 2.355469 25.757812 2.722656 C 25.804688 2.863281 25.835938 3.007812 25.851562 3.15625 C 25.886719 4.484375 25.917969 5.8125 25.9375 7.140625 C 26.070312 7.109375 26.207031 7.089844 26.34375 7.082031 C 27.785156 7.058594 29.226562 7.03125 30.664062 6.996094 C 30.710938 7.015625 30.757812 7.023438 30.808594 7.019531 C 30.828125 5.980469 30.871094 4.941406 30.941406 3.902344 C 31.027344 3.785156 31.125 3.777344 31.230469 3.875 C 31.234375 5.269531 31.253906 6.660156 31.289062 8.054688 C 31.304688 9.183594 31.335938 10.308594 31.371094 11.4375 C 31.382812 11.554688 31.402344 11.667969 31.433594 11.773438 C 31.457031 12.019531 31.5625 12.222656 31.746094 12.386719 C 31.769531 12.402344 31.792969 12.402344 31.816406 12.386719 C 32.09375 12.128906 32.253906 11.816406 32.296875 11.4375 C 32.351562 10.757812 32.414062 10.078125 32.488281 9.398438 C 32.488281 9.285156 32.496094 9.171875 32.511719 9.0625 C 32.550781 8.40625 32.566406 7.75 32.5625 7.09375 C 32.574219 6.074219 32.550781 5.054688 32.488281 4.042969 C 32.5 3.699219 32.449219 3.363281 32.332031 3.035156 C 32.300781 2.984375 32.265625 2.9375 32.226562 2.890625 C 32.226562 2.875 32.21875 2.867188 32.199219 2.867188 C 32.199219 2.851562 32.191406 2.84375 32.175781 2.84375 C 32.175781 2.828125 32.167969 2.820312 32.152344 2.820312 C 32.121094 2.765625 32.074219 2.734375 32.007812 2.722656 C 31.992188 2.703125 31.96875 2.695312 31.9375 2.699219 C 31.910156 2.695312 31.878906 2.6875 31.851562 2.675781 C 31.71875 2.722656 31.585938 2.769531 31.457031 2.820312 C 31.359375 2.816406 31.292969 2.769531 31.265625 2.675781 C 31.316406 2.324219 31.519531 2.148438 31.878906 2.148438 C 32.453125 2.207031 32.765625 2.523438 32.8125 3.109375 C 32.851562 3.414062 32.855469 3.714844 32.824219 4.019531 C 32.863281 5.011719 32.882812 6.003906 32.886719 6.996094 C 32.988281 6.960938 33.097656 6.945312 33.210938 6.949219 C 33.707031 6.972656 34.199219 6.980469 34.699219 6.972656 C 35.726562 6.996094 36.757812 7.003906 37.792969 6.996094 C 37.800781 6.9375 37.792969 6.878906 37.769531 6.828125 C 37.789062 5.851562 37.835938 4.875 37.902344 3.902344 C 37.910156 3.878906 37.921875 3.863281 37.9375 3.851562 C 38.027344 3.78125 38.113281 3.792969 38.191406 3.875 C 38.195312 4.957031 38.214844 6.039062 38.238281 7.117188 C 38.347656 7.261719 38.347656 7.40625 38.238281 7.550781 C 38.226562 7.597656 38.222656 7.644531 38.226562 7.691406 C 38.257812 9.019531 38.308594 10.339844 38.371094 11.652344 C 38.382812 11.960938 38.507812 12.207031 38.742188 12.398438 C 38.980469 12.234375 39.128906 12.011719 39.1875 11.726562 C 39.238281 11.558594 39.277344 11.378906 39.292969 11.199219 C 39.40625 10.0625 39.484375 8.929688 39.523438 7.789062 C 39.558594 6.582031 39.546875 5.371094 39.484375 4.164062 C 39.480469 3.804688 39.425781 3.453125 39.316406 3.109375 C 39.300781 3.058594 39.273438 3.019531 39.234375 2.988281 C 39.148438 2.765625 38.988281 2.675781 38.753906 2.710938 C 38.644531 2.753906 38.539062 2.789062 38.429688 2.820312 C 38.359375 2.832031 38.300781 2.804688 38.261719 2.75 C 38.246094 2.355469 38.4375 2.15625 38.839844 2.148438 C 39.34375 2.179688 39.648438 2.445312 39.75 2.941406 C 39.773438 3.066406 39.789062 3.195312 39.796875 3.324219 C 39.816406 4.460938 39.835938 5.597656 39.859375 6.734375 C 39.832031 6.847656 39.828125 6.96875 39.847656 7.09375 C 40.203125 6.992188 40.566406 6.921875 40.9375 6.890625 C 42.355469 6.746094 43.769531 6.613281 45.1875 6.492188 C 45.457031 6.484375 45.71875 6.457031 45.980469 6.421875 C 46.28125 6.375 46.582031 6.308594 46.878906 6.230469 C 47.074219 6.238281 47.214844 6.324219 47.3125 6.492188 C 47.371094 6.828125 47.421875 7.164062 47.457031 7.5 C 47.480469 7.527344 47.496094 7.558594 47.503906 7.597656 C 47.46875 16.78125 47.683594 25.957031 48.152344 35.128906 C 48.285156 37.605469 48.476562 40.078125 48.726562 42.546875 C 48.785156 43.054688 48.558594 43.324219 48.042969 43.351562 C 47.058594 43.386719 46.074219 43.410156 45.089844 43.421875 C 43.058594 43.429688 41.027344 43.4375 38.996094 43.445312 C 36.277344 43.75 33.558594 44.011719 30.832031 44.226562 C 23.566406 44.820312 16.316406 45.578125 9.085938 46.496094 C 6.773438 46.804688 4.464844 47.144531 2.160156 47.515625 C 2.074219 47.503906 2.011719 47.464844 1.96875 47.394531 C 2.054688 45.394531 2.167969 43.394531 2.304688 41.394531 C 2.691406 35.359375 3.105469 29.328125 3.539062 23.296875 C 3.71875 20.960938 3.898438 18.621094 4.082031 16.285156 C 4.1875 13.867188 4.316406 11.453125 4.464844 9.039062 C 4.492188 8.984375 4.527344 8.941406 4.574219 8.90625 C 4.523438 8.667969 4.550781 8.441406 4.65625 8.222656 C 4.71875 8.144531 4.796875 8.082031 4.886719 8.042969 C 5.136719 7.972656 5.390625 7.921875 5.652344 7.898438 C 7.066406 7.742188 8.480469 7.671875 9.902344 7.691406 C 9.910156 6.589844 9.941406 5.484375 9.996094 4.378906 C 10.019531 4.257812 10.03125 4.128906 10.023438 3.996094 C 10.023438 3.929688 10.046875 3.871094 10.09375 3.828125 C 10.199219 3.78125 10.277344 3.804688 10.332031 3.902344 C 10.339844 5.523438 10.363281 7.148438 10.40625 8.773438 C 10.421875 9.714844 10.453125 10.648438 10.5 11.582031 C 10.5 11.917969 10.628906 12.191406 10.886719 12.398438 C 11.121094 12.242188 11.261719 12.027344 11.316406 11.75 C 11.371094 11.589844 11.40625 11.421875 11.425781 11.246094 C 11.496094 10.40625 11.566406 9.566406 11.628906 8.726562 C 11.707031 7.050781 11.691406 5.378906 11.582031 3.707031 C 11.570312 3.417969 11.496094 3.144531 11.355469 2.890625 C 11.300781 2.839844 11.25 2.789062 11.199219 2.738281 C 11.132812 2.707031 11.066406 2.6875 10.992188 2.675781 C 10.851562 2.699219 10.71875 2.746094 10.597656 2.820312 C 10.410156 2.828125 10.34375 2.742188 10.394531 2.554688 C 10.492188 2.28125 10.6875 2.144531 10.980469 2.148438 C 11.519531 2.203125 11.828125 2.5 11.90625 3.035156 C 11.9375 3.425781 11.949219 3.820312 11.941406 4.210938 Z M 32.007812 2.722656 C 32.074219 2.734375 32.121094 2.765625 32.152344 2.820312 C 32.097656 2.800781 32.046875 2.769531 32.007812 2.722656 Z M 32.488281 4.042969 C 32.550781 5.054688 32.574219 6.074219 32.5625 7.09375 C 32.539062 7.09375 32.511719 7.09375 32.488281 7.09375 C 32.488281 6.078125 32.488281 5.0625 32.488281 4.042969 Z M 9.039062 8.269531 C 7.910156 8.332031 6.78125 8.386719 5.652344 8.4375 C 6.777344 8.28125 7.90625 8.222656 9.039062 8.269531 Z M 9.039062 8.269531 "/>
</g>
<mask id="mask1">
  <g filter="url(#alpha)">
<rect x="0" y="0" width="50" height="50" style="fill:rgb(0%,0%,0%);fill-opacity:0.992157;stroke:none;"/>
  </g>
</mask>
<clipPath id="clip2">
  <rect width="50" height="50"/>
</clipPath>
<g id="surface9" clip-path="url(#clip2)">
<path style=" stroke:none;fill-rule:evenodd;fill:rgb(98.431373%,98.431373%,98.431373%);fill-opacity:1;" d="M 17.34375 2.652344 C 17.359375 2.75 17.417969 2.808594 17.523438 2.820312 C 17.660156 2.753906 17.804688 2.707031 17.953125 2.675781 C 18.136719 2.707031 18.273438 2.800781 18.363281 2.964844 C 18.488281 3.261719 18.5625 3.574219 18.578125 3.902344 C 18.652344 5.429688 18.65625 6.957031 18.589844 8.484375 C 18.550781 8.484375 18.511719 8.484375 18.472656 8.484375 C 18.480469 7.105469 18.472656 5.730469 18.445312 4.355469 C 18.382812 3.949219 18.148438 3.691406 17.75 3.578125 C 17.351562 3.507812 17.03125 3.632812 16.789062 3.949219 C 16.894531 3.480469 17.082031 3.050781 17.34375 2.652344 Z M 17.34375 2.652344 "/>
</g>
<mask id="mask2">
  <g filter="url(#alpha)">
<rect x="0" y="0" width="50" height="50" style="fill:rgb(0%,0%,0%);fill-opacity:0.984314;stroke:none;"/>
  </g>
</mask>
<clipPath id="clip3">
  <rect width="50" height="50"/>
</clipPath>
<g id="surface12" clip-path="url(#clip3)">
<path style=" stroke:none;fill-rule:evenodd;fill:rgb(98.823529%,98.431373%,98.431373%);fill-opacity:1;" d="M 11.582031 3.707031 C 11.117188 3.464844 10.699219 3.53125 10.332031 3.902344 C 10.277344 3.804688 10.199219 3.78125 10.09375 3.828125 C 10.238281 3.480469 10.40625 3.144531 10.597656 2.820312 C 10.71875 2.746094 10.851562 2.699219 10.992188 2.675781 C 11.066406 2.6875 11.132812 2.707031 11.199219 2.738281 C 11.25 2.789062 11.300781 2.839844 11.355469 2.890625 C 11.496094 3.144531 11.570312 3.417969 11.582031 3.707031 Z M 11.582031 3.707031 "/>
</g>
<mask id="mask3">
  <g filter="url(#alpha)">
<rect x="0" y="0" width="50" height="50" style="fill:rgb(0%,0%,0%);fill-opacity:0.996078;stroke:none;"/>
  </g>
</mask>
<clipPath id="clip4">
  <rect width="50" height="50"/>
</clipPath>
<g id="surface15" clip-path="url(#clip4)">
<path style=" stroke:none;fill-rule:evenodd;fill:rgb(96.470588%,96.470588%,96.470588%);fill-opacity:1;" d="M 25.574219 8.246094 C 25.519531 8.246094 25.464844 8.246094 25.40625 8.246094 C 25.414062 6.804688 25.40625 5.363281 25.394531 3.925781 C 25.238281 3.398438 24.878906 3.152344 24.328125 3.191406 C 24.285156 3.21875 24.234375 3.230469 24.183594 3.230469 C 24.242188 3.082031 24.308594 2.9375 24.375 2.796875 C 24.4375 2.820312 24.503906 2.824219 24.566406 2.808594 C 24.851562 2.605469 25.09375 2.640625 25.300781 2.917969 C 25.375 3.0625 25.429688 3.214844 25.46875 3.371094 C 25.519531 3.660156 25.550781 3.945312 25.5625 4.238281 C 25.632812 5.574219 25.636719 6.910156 25.574219 8.246094 Z M 25.574219 8.246094 "/>
</g>
<mask id="mask4">
  <g filter="url(#alpha)">
<rect x="0" y="0" width="50" height="50" style="fill:rgb(0%,0%,0%);fill-opacity:0.996078;stroke:none;"/>
  </g>
</mask>
<clipPath id="clip5">
  <rect width="50" height="50"/>
</clipPath>
<g id="surface18" clip-path="url(#clip5)">
<path style=" stroke:none;fill-rule:evenodd;fill:rgb(66.27451%,22.745098%,17.647059%);fill-opacity:1;" d="M 31.265625 2.675781 C 31.292969 2.769531 31.359375 2.816406 31.457031 2.820312 C 31.585938 2.769531 31.71875 2.722656 31.851562 2.675781 C 31.878906 2.6875 31.910156 2.695312 31.9375 2.699219 C 31.953125 2.722656 31.976562 2.730469 32.007812 2.722656 C 32.046875 2.769531 32.097656 2.800781 32.152344 2.820312 C 32.167969 2.820312 32.175781 2.828125 32.175781 2.84375 C 32.191406 2.84375 32.199219 2.851562 32.199219 2.867188 C 32.21875 2.867188 32.226562 2.875 32.226562 2.890625 C 32.265625 2.9375 32.300781 2.984375 32.332031 3.035156 C 32.449219 3.363281 32.5 3.699219 32.488281 4.042969 C 32.488281 5.0625 32.488281 6.078125 32.488281 7.09375 C 32.464844 7.394531 32.457031 7.695312 32.464844 8.003906 C 32.417969 8 32.378906 8.007812 32.34375 8.027344 C 31.992188 8.027344 31.640625 8.035156 31.289062 8.054688 C 31.253906 6.660156 31.234375 5.269531 31.230469 3.875 C 31.125 3.777344 31.027344 3.785156 30.941406 3.902344 C 30.871094 4.941406 30.828125 5.980469 30.808594 7.019531 C 30.757812 7.023438 30.710938 7.015625 30.664062 6.996094 C 30.660156 5.78125 30.664062 4.566406 30.675781 3.347656 C 30.765625 3.03125 30.964844 2.804688 31.265625 2.675781 Z M 31.265625 2.675781 "/>
</g>
<mask id="mask5">
  <g filter="url(#alpha)">
<rect x="0" y="0" width="50" height="50" style="fill:rgb(0%,0%,0%);fill-opacity:0.996078;stroke:none;"/>
  </g>
</mask>
<clipPath id="clip6">
  <rect width="50" height="50"/>
</clipPath>
<g id="surface21" clip-path="url(#clip6)">
<path style=" stroke:none;fill-rule:evenodd;fill:rgb(65.882353%,22.745098%,17.647059%);fill-opacity:1;" d="M 39.234375 2.988281 C 39.273438 3.019531 39.300781 3.058594 39.316406 3.109375 C 39.425781 3.453125 39.480469 3.804688 39.484375 4.164062 C 39.546875 5.371094 39.558594 6.582031 39.523438 7.789062 C 39.097656 7.808594 38.675781 7.824219 38.25 7.835938 C 38.257812 7.785156 38.25 7.734375 38.226562 7.691406 C 38.222656 7.644531 38.226562 7.597656 38.238281 7.550781 C 38.347656 7.40625 38.347656 7.261719 38.238281 7.117188 C 38.214844 6.039062 38.195312 4.957031 38.191406 3.875 C 38.113281 3.792969 38.027344 3.78125 37.9375 3.851562 C 37.949219 3.367188 38.191406 3.058594 38.65625 2.929688 C 38.855469 2.898438 39.050781 2.917969 39.234375 2.988281 Z M 39.234375 2.988281 "/>
</g>
<mask id="mask6">
  <g filter="url(#alpha)">
<rect x="0" y="0" width="50" height="50" style="fill:rgb(0%,0%,0%);fill-opacity:0.996078;stroke:none;"/>
  </g>
</mask>
<clipPath id="clip7">
  <rect width="50" height="50"/>
</clipPath>
<g id="surface24" clip-path="url(#clip7)">
<path style=" stroke:none;fill-rule:evenodd;fill:rgb(66.27451%,23.137255%,18.039216%);fill-opacity:1;" d="M 25.40625 8.246094 C 25.046875 8.253906 24.6875 8.273438 24.328125 8.292969 C 24.296875 6.820312 24.273438 5.347656 24.269531 3.875 C 24.160156 3.773438 24.0625 3.78125 23.980469 3.902344 C 23.894531 5.027344 23.851562 6.15625 23.847656 7.285156 C 23.761719 7.285156 23.671875 7.285156 23.582031 7.285156 C 23.578125 6.15625 23.582031 5.027344 23.597656 3.902344 C 23.675781 3.574219 23.871094 3.347656 24.183594 3.230469 C 24.234375 3.230469 24.285156 3.21875 24.328125 3.191406 C 24.878906 3.152344 25.238281 3.398438 25.394531 3.925781 C 25.40625 5.363281 25.414062 6.804688 25.40625 8.246094 Z M 25.40625 8.246094 "/>
</g>
<mask id="mask7">
  <g filter="url(#alpha)">
<rect x="0" y="0" width="50" height="50" style="fill:rgb(0%,0%,0%);fill-opacity:0.992157;stroke:none;"/>
  </g>
</mask>
<clipPath id="clip8">
  <rect width="50" height="50"/>
</clipPath>
<g id="surface27" clip-path="url(#clip8)">
<path style=" stroke:none;fill-rule:evenodd;fill:rgb(66.27451%,23.137255%,18.039216%);fill-opacity:1;" d="M 18.445312 4.355469 C 18.445312 5.734375 18.445312 7.109375 18.445312 8.484375 C 18.085938 8.496094 17.726562 8.511719 17.367188 8.535156 C 17.332031 6.988281 17.3125 5.445312 17.308594 3.902344 C 17.222656 3.78125 17.125 3.773438 17.019531 3.875 C 16.9375 4.898438 16.894531 5.921875 16.886719 6.949219 C 16.863281 7.113281 16.855469 7.28125 16.863281 7.453125 C 16.792969 7.445312 16.730469 7.453125 16.671875 7.476562 C 16.65625 7.476562 16.636719 7.476562 16.621094 7.476562 C 16.617188 6.445312 16.621094 5.414062 16.632812 4.378906 C 16.652344 4.222656 16.703125 4.078125 16.789062 3.949219 C 17.03125 3.632812 17.351562 3.507812 17.75 3.578125 C 18.148438 3.691406 18.382812 3.949219 18.445312 4.355469 Z M 18.445312 4.355469 "/>
</g>
<mask id="mask8">
  <g filter="url(#alpha)">
<rect x="0" y="0" width="50" height="50" style="fill:rgb(0%,0%,0%);fill-opacity:0.580392;stroke:none;"/>
  </g>
</mask>
<clipPath id="clip9">
  <rect width="50" height="50"/>
</clipPath>
<g id="surface30" clip-path="url(#clip9)">
<path style=" stroke:none;fill-rule:evenodd;fill:rgb(97.254902%,97.254902%,97.254902%);fill-opacity:1;" d="M 10.023438 3.996094 C 10.03125 4.128906 10.019531 4.257812 9.996094 4.378906 C 9.980469 4.332031 9.972656 4.28125 9.972656 4.226562 C 9.96875 4.140625 9.984375 4.066406 10.023438 3.996094 Z M 10.023438 3.996094 "/>
</g>
<mask id="mask9">
  <g filter="url(#alpha)">
<rect x="0" y="0" width="50" height="50" style="fill:rgb(0%,0%,0%);fill-opacity:0.560784;stroke:none;"/>
  </g>
</mask>
<clipPath id="clip10">
  <rect width="50" height="50"/>
</clipPath>
<g id="surface33" clip-path="url(#clip10)">
<path style=" stroke:none;fill-rule:evenodd;fill:rgb(58.823529%,20.392157%,15.686275%);fill-opacity:1;" d="M 11.941406 4.210938 C 11.960938 4.238281 11.972656 4.269531 11.976562 4.308594 C 11.988281 5.019531 11.992188 5.734375 11.988281 6.445312 C 11.96875 5.703125 11.953125 4.960938 11.941406 4.210938 Z M 11.941406 4.210938 "/>
</g>
<mask id="mask10">
  <g filter="url(#alpha)">
<rect x="0" y="0" width="50" height="50" style="fill:rgb(0%,0%,0%);fill-opacity:0.933333;stroke:none;"/>
  </g>
</mask>
<clipPath id="clip11">
  <rect width="50" height="50"/>
</clipPath>
<g id="surface36" clip-path="url(#clip11)">
<path style=" stroke:none;fill-rule:evenodd;fill:rgb(97.647059%,97.647059%,97.647059%);fill-opacity:1;" d="M 45.1875 6.46875 C 45.1875 6.476562 45.1875 6.484375 45.1875 6.492188 C 43.769531 6.613281 42.355469 6.746094 40.9375 6.890625 C 40.566406 6.921875 40.203125 6.992188 39.847656 7.09375 C 39.828125 6.96875 39.832031 6.847656 39.859375 6.734375 C 41.632812 6.632812 43.410156 6.542969 45.1875 6.46875 Z M 45.1875 6.46875 "/>
</g>
<mask id="mask11">
  <g filter="url(#alpha)">
<rect x="0" y="0" width="50" height="50" style="fill:rgb(0%,0%,0%);fill-opacity:0.890196;stroke:none;"/>
  </g>
</mask>
<clipPath id="clip12">
  <rect width="50" height="50"/>
</clipPath>
<g id="surface39" clip-path="url(#clip12)">
<path style=" stroke:none;fill-rule:evenodd;fill:rgb(95.686275%,95.686275%,95.686275%);fill-opacity:1;" d="M 37.769531 6.828125 C 37.792969 6.878906 37.800781 6.9375 37.792969 6.996094 C 36.757812 7.003906 35.726562 6.996094 34.699219 6.972656 C 35.722656 6.933594 36.746094 6.886719 37.769531 6.828125 Z M 37.769531 6.828125 "/>
</g>
<mask id="mask12">
  <g filter="url(#alpha)">
<rect x="0" y="0" width="50" height="50" style="fill:rgb(0%,0%,0%);fill-opacity:0.988235;stroke:none;"/>
  </g>
</mask>
<clipPath id="clip13">
  <rect width="50" height="50"/>
</clipPath>
<g id="surface42" clip-path="url(#clip13)">
<path style=" stroke:none;fill-rule:evenodd;fill:rgb(94.901961%,94.117647%,93.333333%);fill-opacity:1;" d="M 32.488281 7.09375 C 32.511719 7.09375 32.539062 7.09375 32.5625 7.09375 C 32.566406 7.75 32.550781 8.40625 32.511719 9.0625 C 32.488281 8.410156 32.480469 7.753906 32.488281 7.09375 Z M 32.488281 7.09375 "/>
</g>
<mask id="mask13">
  <g filter="url(#alpha)">
<rect x="0" y="0" width="50" height="50" style="fill:rgb(0%,0%,0%);fill-opacity:0.996078;stroke:none;"/>
  </g>
</mask>
<clipPath id="clip14">
  <rect width="50" height="50"/>
</clipPath>
<g id="surface45" clip-path="url(#clip14)">
<path style=" stroke:none;fill-rule:evenodd;fill:rgb(99.607843%,99.607843%,99.607843%);fill-opacity:1;" d="M 9.039062 8.269531 C 9.238281 8.269531 9.4375 8.269531 9.636719 8.269531 C 9.71875 8.292969 9.808594 8.300781 9.902344 8.292969 C 9.902344 8.460938 9.902344 8.628906 9.902344 8.796875 C 8.523438 8.839844 7.148438 8.886719 5.773438 8.941406 C 5.882812 11.789062 5.984375 14.636719 6.085938 17.488281 C 5.796875 17.523438 5.511719 17.546875 5.222656 17.558594 C 5.199219 15.335938 5.171875 13.109375 5.136719 10.886719 C 5.109375 10.828125 5.066406 10.78125 5.015625 10.742188 C 5 10.484375 5 10.230469 5.015625 9.972656 C 5.089844 9.933594 5.125 9.871094 5.125 9.78125 C 5.035156 9.363281 5.007812 8.945312 5.054688 8.519531 C 5.214844 8.476562 5.375 8.449219 5.53125 8.4375 C 5.574219 8.4375 5.613281 8.4375 5.652344 8.4375 C 6.78125 8.386719 7.910156 8.332031 9.039062 8.269531 Z M 9.039062 8.269531 "/>
</g>
<mask id="mask14">
  <g filter="url(#alpha)">
<rect x="0" y="0" width="50" height="50" style="fill:rgb(0%,0%,0%);fill-opacity:0.976471;stroke:none;"/>
  </g>
</mask>
<clipPath id="clip15">
  <rect width="50" height="50"/>
</clipPath>
<g id="surface48" clip-path="url(#clip15)">
<path style=" stroke:none;fill-rule:evenodd;fill:rgb(62.352941%,56.470588%,58.431373%);fill-opacity:1;" d="M 3.539062 23.296875 C 3.105469 29.328125 2.691406 35.359375 2.304688 41.394531 C 2.167969 43.394531 2.054688 45.394531 1.96875 47.394531 C 2.011719 47.464844 2.074219 47.503906 2.160156 47.515625 C 4.464844 47.144531 6.773438 46.804688 9.085938 46.496094 C 16.316406 45.578125 23.566406 44.820312 30.832031 44.226562 C 21.042969 45.65625 11.25 47.074219 1.453125 48.476562 C 2.089844 39.816406 2.730469 31.160156 3.371094 22.503906 C 3.429688 22.769531 3.488281 23.035156 3.539062 23.296875 Z M 3.539062 23.296875 "/>
</g>
</defs>
<g id="surface1">
<use xlink:href="#surface6" mask="url(#mask0)"/>
<use xlink:href="#surface9" mask="url(#mask1)"/>
<use xlink:href="#surface12" mask="url(#mask2)"/>
<use xlink:href="#surface15" mask="url(#mask3)"/>
<use xlink:href="#surface18" mask="url(#mask4)"/>
<use xlink:href="#surface21" mask="url(#mask5)"/>
<use xlink:href="#surface24" mask="url(#mask6)"/>
<path style=" stroke:none;fill-rule:evenodd;fill:rgb(66.27451%,22.745098%,18.039216%);fill-opacity:1;" d="M 11.582031 3.707031 C 11.691406 5.378906 11.707031 7.050781 11.628906 8.726562 C 11.222656 8.742188 10.8125 8.757812 10.40625 8.773438 C 10.363281 7.148438 10.339844 5.523438 10.332031 3.902344 C 10.699219 3.53125 11.117188 3.464844 11.582031 3.707031 Z M 11.582031 3.707031 "/>
<use xlink:href="#surface27" mask="url(#mask7)"/>
<use xlink:href="#surface30" mask="url(#mask8)"/>
<use xlink:href="#surface33" mask="url(#mask9)"/>
<path style=" stroke:none;fill-rule:evenodd;fill:rgb(82.352941%,63.529412%,61.176471%);fill-opacity:1;" d="M 18.445312 4.355469 C 18.472656 5.730469 18.480469 7.105469 18.472656 8.484375 C 18.464844 9.019531 18.472656 9.546875 18.496094 10.070312 C 18.488281 10.171875 18.46875 10.265625 18.445312 10.359375 C 18.445312 9.734375 18.445312 9.109375 18.445312 8.484375 C 18.445312 7.109375 18.445312 5.734375 18.445312 4.355469 Z M 18.445312 4.355469 "/>
<path style=" stroke:none;fill-rule:evenodd;fill:rgb(66.27451%,66.27451%,66.27451%);fill-opacity:1;" d="M 45.980469 6.421875 C 45.71875 6.457031 45.457031 6.484375 45.1875 6.492188 C 45.1875 6.484375 45.1875 6.476562 45.1875 6.46875 C 45.445312 6.441406 45.710938 6.425781 45.980469 6.421875 Z M 45.980469 6.421875 "/>
<use xlink:href="#surface36" mask="url(#mask10)"/>
<use xlink:href="#surface39" mask="url(#mask11)"/>
<path style=" stroke:none;fill-rule:evenodd;fill:rgb(48.235294%,16.470588%,12.54902%);fill-opacity:1;" d="M 16.886719 6.949219 C 16.886719 7.125 16.886719 7.300781 16.886719 7.476562 C 16.816406 7.476562 16.742188 7.476562 16.671875 7.476562 C 16.730469 7.453125 16.792969 7.445312 16.863281 7.453125 C 16.855469 7.28125 16.863281 7.113281 16.886719 6.949219 Z M 16.886719 6.949219 "/>
<path style=" stroke:none;fill-rule:evenodd;fill:rgb(98.039216%,98.039216%,98.039216%);fill-opacity:1;" d="M 46.242188 15.664062 C 46.183594 13.652344 46.140625 11.632812 46.113281 9.613281 C 46.09375 8.972656 46.097656 8.332031 46.125 7.691406 C 44.027344 7.683594 41.929688 7.714844 39.835938 7.789062 C 39.835938 7.667969 39.835938 7.550781 39.835938 7.429688 C 40.011719 7.433594 40.1875 7.429688 40.363281 7.417969 C 42.164062 7.203125 43.972656 7.082031 45.789062 7.046875 C 45.957031 7.050781 46.125 7.054688 46.292969 7.058594 C 46.34375 7.0625 46.398438 7.074219 46.449219 7.09375 C 46.464844 7.398438 46.484375 7.699219 46.496094 8.003906 C 46.507812 10.558594 46.519531 13.109375 46.53125 15.664062 C 46.433594 15.664062 46.339844 15.664062 46.242188 15.664062 Z M 46.242188 15.664062 "/>
<use xlink:href="#surface42" mask="url(#mask12)"/>
<path style=" stroke:none;fill-rule:evenodd;fill:rgb(98.823529%,98.823529%,98.823529%);fill-opacity:1;" d="M 30.664062 7.597656 C 30.664062 7.757812 30.664062 7.917969 30.664062 8.078125 C 29.082031 8.125 27.496094 8.175781 25.914062 8.222656 C 25.914062 8.027344 25.914062 7.835938 25.914062 7.644531 C 26.078125 7.679688 26.246094 7.695312 26.417969 7.691406 C 27.832031 7.628906 29.246094 7.597656 30.664062 7.597656 Z M 30.664062 7.597656 "/>
<path style=" stroke:none;fill-rule:evenodd;fill:rgb(97.254902%,97.254902%,97.254902%);fill-opacity:1;" d="M 37.769531 7.859375 C 36.136719 7.894531 34.503906 7.945312 32.875 8.003906 C 32.871094 7.859375 32.875 7.71875 32.886719 7.574219 C 32.910156 7.589844 32.9375 7.601562 32.96875 7.609375 C 34.570312 7.664062 36.167969 7.683594 37.769531 7.667969 C 37.769531 7.734375 37.769531 7.796875 37.769531 7.859375 Z M 37.769531 7.859375 "/>
<path style=" stroke:none;fill-rule:evenodd;fill:rgb(94.509804%,92.941176%,90.196078%);fill-opacity:1;" d="M 25.914062 7.644531 C 25.914062 7.835938 25.914062 8.027344 25.914062 8.222656 C 27.496094 8.175781 29.082031 8.125 30.664062 8.078125 C 30.65625 9.085938 30.664062 10.09375 30.6875 11.101562 C 30.292969 11.640625 30.191406 12.230469 30.390625 12.878906 C 30.683594 13.769531 31.28125 14.070312 32.175781 13.777344 C 32.707031 13.601562 33.101562 13.269531 33.367188 12.78125 C 33.582031 12.207031 33.496094 11.679688 33.113281 11.210938 C 33.019531 11.117188 32.90625 11.074219 32.777344 11.078125 C 32.8125 10.054688 32.84375 9.03125 32.875 8.003906 C 34.503906 7.945312 36.136719 7.894531 37.769531 7.859375 C 37.777344 8.925781 37.769531 9.988281 37.746094 11.054688 C 37.492188 11.285156 37.34375 11.570312 37.300781 11.917969 C 37.214844 12.523438 37.359375 13.070312 37.734375 13.550781 C 38.09375 13.863281 38.507812 13.957031 38.96875 13.828125 C 39.625 13.683594 40.09375 13.3125 40.375 12.710938 C 40.570312 12.121094 40.453125 11.605469 40.027344 11.160156 C 39.988281 11.136719 39.949219 11.117188 39.90625 11.101562 C 39.863281 11.078125 39.816406 11.070312 39.761719 11.078125 C 39.761719 11.054688 39.761719 11.03125 39.761719 11.003906 C 39.785156 9.933594 39.808594 8.863281 39.835938 7.789062 C 41.929688 7.714844 44.027344 7.683594 46.125 7.691406 C 46.097656 8.332031 46.09375 8.972656 46.113281 9.613281 C 46.140625 11.632812 46.183594 13.652344 46.242188 15.664062 C 44.351562 15.8125 42.453125 15.96875 40.554688 16.128906 C 40.4375 16.21875 40.429688 16.316406 40.53125 16.417969 C 42.164062 16.433594 43.796875 16.429688 45.425781 16.40625 C 45.699219 16.40625 45.972656 16.40625 46.242188 16.40625 C 46.234375 16.5625 46.242188 16.714844 46.265625 16.863281 C 45.375 17.058594 44.472656 17.179688 43.554688 17.234375 C 34.773438 17.730469 25.988281 18.097656 17.199219 18.339844 C 14.574219 18.355469 11.949219 18.355469 9.324219 18.339844 C 8.519531 18.304688 7.71875 18.277344 6.914062 18.253906 C 6.652344 18.257812 6.394531 18.265625 6.132812 18.277344 C 6.117188 18.167969 6.109375 18.054688 6.109375 17.941406 C 11.300781 17.722656 16.492188 17.507812 21.6875 17.308594 C 24.296875 17.148438 26.902344 17.003906 29.511719 16.875 C 31.585938 16.839844 33.65625 16.800781 35.730469 16.753906 C 36.546875 16.71875 37.363281 16.65625 38.179688 16.5625 C 38.257812 16.449219 38.226562 16.390625 38.082031 16.394531 C 37.21875 16.378906 36.355469 16.378906 35.488281 16.394531 C 33.363281 16.523438 31.234375 16.640625 29.105469 16.753906 C 26.777344 16.800781 24.449219 16.84375 22.121094 16.875 C 17.429688 17.039062 12.742188 17.207031 8.054688 17.378906 C 7.394531 17.398438 6.738281 17.433594 6.085938 17.488281 C 5.984375 14.636719 5.882812 11.789062 5.773438 8.941406 C 7.148438 8.886719 8.523438 8.839844 9.902344 8.796875 C 9.894531 9.480469 9.902344 10.160156 9.925781 10.835938 C 9.929688 10.902344 9.925781 10.964844 9.914062 11.03125 C 9.691406 11.210938 9.546875 11.441406 9.480469 11.726562 C 9.328125 12.347656 9.433594 12.925781 9.792969 13.453125 C 10.125 13.828125 10.535156 13.960938 11.03125 13.851562 C 11.621094 13.730469 12.078125 13.421875 12.410156 12.925781 C 12.628906 12.46875 12.644531 12.003906 12.457031 11.535156 C 12.375 11.378906 12.269531 11.246094 12.132812 11.136719 C 12.082031 11.105469 12.027344 11.082031 11.964844 11.078125 C 11.964844 10.238281 11.964844 9.398438 11.964844 8.558594 C 11.957031 8.417969 11.964844 8.28125 11.988281 8.148438 C 11.988281 8.339844 11.988281 8.535156 11.988281 8.726562 C 13.535156 8.664062 15.078125 8.609375 16.621094 8.558594 C 16.613281 9.355469 16.621094 10.144531 16.648438 10.933594 C 16.664062 11.023438 16.679688 11.109375 16.695312 11.199219 C 16.347656 11.765625 16.289062 12.367188 16.515625 13 C 16.84375 13.800781 17.425781 14.058594 18.253906 13.777344 C 18.871094 13.585938 19.289062 13.191406 19.515625 12.589844 C 19.644531 12.058594 19.53125 11.589844 19.167969 11.1875 C 19.078125 11.109375 18.972656 11.074219 18.855469 11.078125 C 18.875 10.207031 18.902344 9.332031 18.925781 8.460938 C 20.480469 8.414062 22.03125 8.363281 23.582031 8.316406 C 23.578125 9.214844 23.582031 10.109375 23.597656 11.003906 C 23.617188 11.070312 23.636719 11.132812 23.65625 11.199219 C 23.242188 11.90625 23.238281 12.617188 23.644531 13.335938 C 23.871094 13.691406 24.199219 13.875 24.628906 13.886719 C 25.390625 13.835938 25.976562 13.492188 26.378906 12.855469 C 26.625 12.304688 26.578125 11.785156 26.234375 11.292969 C 26.128906 11.152344 25.992188 11.078125 25.816406 11.078125 C 25.847656 9.929688 25.882812 8.785156 25.914062 7.644531 Z M 25.914062 7.644531 "/>
<path style=" stroke:none;fill-rule:evenodd;fill:rgb(63.529412%,21.568627%,17.254902%);fill-opacity:1;" d="M 38.226562 7.691406 C 38.25 7.734375 38.257812 7.785156 38.25 7.835938 C 38.675781 7.824219 39.097656 7.808594 39.523438 7.789062 C 39.484375 8.929688 39.40625 10.0625 39.292969 11.199219 C 39.277344 11.378906 39.238281 11.558594 39.1875 11.726562 C 38.902344 11.808594 38.632812 11.785156 38.371094 11.652344 C 38.308594 10.339844 38.257812 9.019531 38.226562 7.691406 Z M 38.226562 7.691406 "/>
<path style=" stroke:none;fill-rule:evenodd;fill:rgb(98.039216%,98.039216%,98.039216%);fill-opacity:1;" d="M 23.582031 8.027344 C 23.582031 8.125 23.582031 8.222656 23.582031 8.316406 C 22.03125 8.363281 20.480469 8.414062 18.925781 8.460938 C 18.925781 8.292969 18.925781 8.125 18.925781 7.957031 C 19.105469 7.988281 19.285156 8.003906 19.46875 8.003906 C 20.476562 7.945312 21.492188 7.925781 22.503906 7.945312 C 22.863281 7.976562 23.222656 8.007812 23.582031 8.027344 Z M 23.582031 8.027344 "/>
<path style=" stroke:none;fill-rule:evenodd;fill:rgb(63.529412%,21.960784%,17.254902%);fill-opacity:1;" d="M 32.34375 8.027344 C 32.386719 8.027344 32.425781 8.027344 32.464844 8.027344 C 32.457031 8.488281 32.464844 8.945312 32.488281 9.398438 C 32.414062 10.078125 32.351562 10.757812 32.296875 11.4375 C 32.066406 11.6875 31.777344 11.796875 31.433594 11.773438 C 31.402344 11.667969 31.382812 11.554688 31.371094 11.4375 C 31.335938 10.308594 31.304688 9.183594 31.289062 8.054688 C 31.640625 8.035156 31.992188 8.027344 32.34375 8.027344 Z M 32.34375 8.027344 "/>
<path style=" stroke:none;fill-rule:evenodd;fill:rgb(71.764706%,43.137255%,39.607843%);fill-opacity:1;" d="M 32.488281 7.09375 C 32.480469 7.753906 32.488281 8.410156 32.511719 9.0625 C 32.496094 9.171875 32.488281 9.285156 32.488281 9.398438 C 32.464844 8.945312 32.457031 8.488281 32.464844 8.027344 C 32.425781 8.027344 32.386719 8.027344 32.34375 8.027344 C 32.378906 8.007812 32.417969 8 32.464844 8.003906 C 32.457031 7.695312 32.464844 7.394531 32.488281 7.09375 Z M 32.488281 7.09375 "/>
<path style=" stroke:none;fill-rule:evenodd;fill:rgb(63.137255%,21.568627%,16.862745%);fill-opacity:1;" d="M 30.6875 11.101562 C 30.664062 10.09375 30.65625 9.085938 30.664062 8.078125 C 30.664062 7.917969 30.664062 7.757812 30.664062 7.597656 C 30.707031 7.574219 30.753906 7.566406 30.808594 7.574219 C 30.8125 8.726562 30.808594 9.878906 30.796875 11.03125 C 30.765625 11.0625 30.730469 11.085938 30.6875 11.101562 Z M 30.6875 11.101562 "/>
<path style=" stroke:none;fill-rule:evenodd;fill:rgb(98.823529%,98.823529%,98.823529%);fill-opacity:1;" d="M 15.46875 8.101562 C 15.855469 8.101562 16.238281 8.101562 16.621094 8.101562 C 16.621094 8.253906 16.621094 8.40625 16.621094 8.558594 C 15.078125 8.609375 13.535156 8.664062 11.988281 8.726562 C 11.988281 8.535156 11.988281 8.339844 11.988281 8.148438 C 12.164062 8.164062 12.339844 8.171875 12.519531 8.171875 C 13.503906 8.15625 14.488281 8.132812 15.46875 8.101562 Z M 15.46875 8.101562 "/>
<path style=" stroke:none;fill-rule:evenodd;fill:rgb(92.941176%,91.372549%,88.627451%);fill-opacity:1;" d="M 25.40625 8.246094 C 25.464844 8.246094 25.519531 8.246094 25.574219 8.246094 C 25.558594 8.972656 25.503906 9.691406 25.40625 10.40625 C 25.40625 9.6875 25.40625 8.964844 25.40625 8.246094 Z M 25.40625 8.246094 "/>
<use xlink:href="#surface45" mask="url(#mask13)"/>
<path style=" stroke:none;fill-rule:evenodd;fill:rgb(63.529412%,21.960784%,17.254902%);fill-opacity:1;" d="M 25.40625 8.246094 C 25.40625 8.964844 25.40625 9.6875 25.40625 10.40625 C 25.40625 10.664062 25.390625 10.917969 25.359375 11.171875 C 25.183594 11.566406 24.878906 11.765625 24.449219 11.773438 C 24.382812 10.613281 24.34375 9.453125 24.328125 8.292969 C 24.6875 8.273438 25.046875 8.253906 25.40625 8.246094 Z M 25.40625 8.246094 "/>
<path style=" stroke:none;fill-rule:evenodd;fill:rgb(38.039216%,38.039216%,37.254902%);fill-opacity:1;" d="M 9.636719 8.269531 C 9.734375 8.269531 9.828125 8.269531 9.925781 8.269531 C 9.925781 9.125 9.925781 9.980469 9.925781 10.835938 C 9.902344 10.160156 9.894531 9.480469 9.902344 8.796875 C 9.902344 8.628906 9.902344 8.460938 9.902344 8.292969 C 9.808594 8.300781 9.71875 8.292969 9.636719 8.269531 Z M 9.636719 8.269531 "/>
<path style=" stroke:none;fill-rule:evenodd;fill:rgb(63.529412%,23.529412%,18.823529%);fill-opacity:1;" d="M 23.65625 11.199219 C 23.636719 11.132812 23.617188 11.070312 23.597656 11.003906 C 23.582031 10.109375 23.578125 9.214844 23.582031 8.316406 C 23.582031 8.222656 23.582031 8.125 23.582031 8.027344 C 23.671875 8.03125 23.761719 8.023438 23.847656 8.003906 C 23.851562 9.011719 23.847656 10.023438 23.835938 11.03125 C 23.777344 11.089844 23.71875 11.148438 23.65625 11.199219 Z M 23.65625 11.199219 "/>
<path style=" stroke:none;fill-rule:evenodd;fill:rgb(92.54902%,90.980392%,88.627451%);fill-opacity:1;" d="M 18.472656 8.484375 C 18.511719 8.484375 18.550781 8.484375 18.589844 8.484375 C 18.582031 9.015625 18.550781 9.542969 18.496094 10.070312 C 18.472656 9.546875 18.464844 9.019531 18.472656 8.484375 Z M 18.472656 8.484375 "/>
<path style=" stroke:none;fill-rule:evenodd;fill:rgb(63.529412%,21.960784%,17.254902%);fill-opacity:1;" d="M 18.445312 8.484375 C 18.445312 9.109375 18.445312 9.734375 18.445312 10.359375 C 18.441406 10.644531 18.425781 10.933594 18.398438 11.222656 C 18.21875 11.601562 17.914062 11.785156 17.488281 11.773438 C 17.476562 11.695312 17.464844 11.613281 17.449219 11.535156 C 17.414062 10.535156 17.386719 9.535156 17.367188 8.535156 C 17.726562 8.511719 18.085938 8.496094 18.445312 8.484375 Z M 18.445312 8.484375 "/>
<path style=" stroke:none;fill-rule:evenodd;fill:rgb(79.607843%,72.156863%,69.803922%);fill-opacity:1;" d="M 15.46875 8.101562 C 15.859375 8.078125 16.25 8.070312 16.648438 8.078125 C 16.648438 9.03125 16.648438 9.980469 16.648438 10.933594 C 16.621094 10.144531 16.613281 9.355469 16.621094 8.558594 C 16.621094 8.40625 16.621094 8.253906 16.621094 8.101562 C 16.238281 8.101562 15.855469 8.101562 15.46875 8.101562 Z M 15.46875 8.101562 "/>
<path style=" stroke:none;fill-rule:evenodd;fill:rgb(63.137255%,21.568627%,16.862745%);fill-opacity:1;" d="M 16.695312 11.199219 C 16.679688 11.109375 16.664062 11.023438 16.648438 10.933594 C 16.648438 9.980469 16.648438 9.03125 16.648438 8.078125 C 16.71875 8.082031 16.785156 8.074219 16.851562 8.054688 C 16.875 9.046875 16.882812 10.039062 16.875 11.03125 C 16.804688 11.078125 16.746094 11.132812 16.695312 11.199219 Z M 16.695312 11.199219 "/>
<path style=" stroke:none;fill-rule:evenodd;fill:rgb(63.529412%,21.960784%,17.254902%);fill-opacity:1;" d="M 11.628906 8.726562 C 11.566406 9.566406 11.496094 10.40625 11.425781 11.246094 C 11.40625 11.421875 11.371094 11.589844 11.316406 11.75 C 11.019531 11.816406 10.746094 11.761719 10.5 11.582031 C 10.453125 10.648438 10.421875 9.714844 10.40625 8.773438 C 10.8125 8.757812 11.222656 8.742188 11.628906 8.726562 Z M 11.628906 8.726562 "/>
<path style=" stroke:none;fill-rule:evenodd;fill:rgb(59.215686%,20.784314%,16.470588%);fill-opacity:1;" d="M 11.964844 8.558594 C 11.964844 9.398438 11.964844 10.238281 11.964844 11.078125 C 11.941406 11.078125 11.917969 11.078125 11.894531 11.078125 C 11.910156 10.234375 11.933594 9.394531 11.964844 8.558594 Z M 11.964844 8.558594 "/>
<path style=" stroke:none;fill-rule:evenodd;fill:rgb(38.039216%,35.294118%,34.117647%);fill-opacity:1;" d="M 39.761719 11.003906 C 39.761719 11.03125 39.761719 11.054688 39.761719 11.078125 C 39.816406 11.070312 39.863281 11.078125 39.90625 11.101562 C 39.851562 11.101562 39.792969 11.101562 39.738281 11.101562 C 39.730469 11.0625 39.738281 11.03125 39.761719 11.003906 Z M 39.761719 11.003906 "/>
<path style=" stroke:none;fill-rule:evenodd;fill:rgb(93.333333%,91.372549%,88.627451%);fill-opacity:1;" d="M 25.359375 11.171875 C 25.351562 11.3125 25.332031 11.445312 25.300781 11.582031 C 25.25 11.90625 25.101562 12.171875 24.855469 12.386719 C 24.832031 12.402344 24.808594 12.402344 24.785156 12.386719 C 24.605469 12.21875 24.496094 12.015625 24.449219 11.773438 C 24.878906 11.765625 25.183594 11.566406 25.359375 11.171875 Z M 25.359375 11.171875 "/>
<path style=" stroke:none;fill-rule:evenodd;fill:rgb(93.333333%,91.372549%,88.627451%);fill-opacity:1;" d="M 18.398438 11.222656 C 18.375 11.398438 18.335938 11.574219 18.289062 11.75 C 18.222656 12 18.089844 12.214844 17.894531 12.386719 C 17.871094 12.402344 17.847656 12.402344 17.824219 12.386719 C 17.632812 12.226562 17.519531 12.019531 17.488281 11.773438 C 17.914062 11.785156 18.21875 11.601562 18.398438 11.222656 Z M 18.398438 11.222656 "/>
<path style=" stroke:none;fill-rule:evenodd;fill:rgb(93.333333%,91.372549%,88.627451%);fill-opacity:1;" d="M 32.296875 11.4375 C 32.253906 11.816406 32.09375 12.128906 31.816406 12.386719 C 31.792969 12.402344 31.769531 12.402344 31.746094 12.386719 C 31.5625 12.222656 31.457031 12.019531 31.433594 11.773438 C 31.777344 11.796875 32.066406 11.6875 32.296875 11.4375 Z M 32.296875 11.4375 "/>
<path style=" stroke:none;fill-rule:evenodd;fill:rgb(92.941176%,90.980392%,88.235294%);fill-opacity:1;" d="M 10.5 11.582031 C 10.746094 11.761719 11.019531 11.816406 11.316406 11.75 C 11.261719 12.027344 11.121094 12.242188 10.886719 12.398438 C 10.628906 12.191406 10.5 11.917969 10.5 11.582031 Z M 10.5 11.582031 "/>
<path style=" stroke:none;fill-rule:evenodd;fill:rgb(92.54902%,90.980392%,88.235294%);fill-opacity:1;" d="M 38.371094 11.652344 C 38.632812 11.785156 38.902344 11.808594 39.1875 11.726562 C 39.128906 12.011719 38.980469 12.234375 38.742188 12.398438 C 38.507812 12.207031 38.382812 11.960938 38.371094 11.652344 Z M 38.371094 11.652344 "/>
<path style=" stroke:none;fill-rule:evenodd;fill:rgb(92.54902%,90.980392%,88.235294%);fill-opacity:1;" d="M 11.773438 11.773438 C 11.808594 11.773438 11.839844 11.789062 11.859375 11.820312 C 12.023438 12.09375 12.03125 12.375 11.882812 12.660156 C 11.535156 13.144531 11.066406 13.347656 10.476562 13.273438 C 10.203125 13.105469 10.039062 12.863281 9.984375 12.542969 C 9.929688 12.296875 9.9375 12.058594 10.007812 11.820312 C 10.066406 12.148438 10.195312 12.445312 10.394531 12.710938 C 10.761719 13.046875 11.109375 13.023438 11.425781 12.636719 C 11.609375 12.378906 11.726562 12.089844 11.773438 11.773438 Z M 11.773438 11.773438 "/>
<path style=" stroke:none;fill-rule:evenodd;fill:rgb(92.156863%,90.588235%,88.235294%);fill-opacity:1;" d="M 18.757812 11.773438 C 18.84375 11.84375 18.902344 11.933594 18.9375 12.039062 C 18.996094 12.398438 18.890625 12.699219 18.613281 12.9375 C 18.253906 13.242188 17.847656 13.347656 17.390625 13.25 C 17.15625 13.0625 17.007812 12.816406 16.945312 12.519531 C 16.890625 12.28125 16.898438 12.050781 16.972656 11.820312 C 17.027344 12.164062 17.164062 12.464844 17.378906 12.734375 C 17.703125 13.027344 18.023438 13.019531 18.339844 12.710938 C 18.546875 12.429688 18.6875 12.117188 18.757812 11.773438 Z M 18.757812 11.773438 "/>
<path style=" stroke:none;fill-rule:evenodd;fill:rgb(92.156863%,90.588235%,87.843137%);fill-opacity:1;" d="M 25.71875 11.773438 C 25.894531 11.914062 25.960938 12.101562 25.925781 12.324219 C 25.816406 12.753906 25.558594 13.042969 25.144531 13.203125 C 24.519531 13.460938 24.113281 13.261719 23.933594 12.613281 C 23.855469 12.347656 23.855469 12.085938 23.933594 11.820312 C 23.992188 12.117188 24.101562 12.390625 24.269531 12.636719 C 24.601562 13.035156 24.957031 13.050781 25.324219 12.6875 C 25.523438 12.410156 25.65625 12.109375 25.71875 11.773438 Z M 25.71875 11.773438 "/>
<path style=" stroke:none;fill-rule:evenodd;fill:rgb(92.156863%,90.588235%,87.843137%);fill-opacity:1;" d="M 32.679688 11.773438 C 32.738281 11.832031 32.789062 11.894531 32.835938 11.964844 C 32.941406 12.40625 32.808594 12.753906 32.441406 13.011719 C 32.191406 13.191406 31.910156 13.292969 31.601562 13.308594 C 31.289062 13.285156 31.078125 13.125 30.964844 12.828125 C 30.820312 12.496094 30.796875 12.148438 30.894531 11.796875 C 30.960938 12.207031 31.144531 12.554688 31.433594 12.84375 C 31.757812 13.023438 32.042969 12.972656 32.285156 12.6875 C 32.488281 12.414062 32.621094 12.109375 32.679688 11.773438 Z M 32.679688 11.773438 "/>
<path style=" stroke:none;fill-rule:evenodd;fill:rgb(92.54902%,90.980392%,88.235294%);fill-opacity:1;" d="M 39.640625 11.773438 C 39.761719 11.839844 39.828125 11.945312 39.847656 12.085938 C 39.882812 12.457031 39.75 12.757812 39.449219 12.984375 C 38.472656 13.609375 37.925781 13.34375 37.816406 12.195312 C 37.820312 12.109375 37.824219 12.027344 37.828125 11.941406 C 37.835938 11.914062 37.847656 11.890625 37.867188 11.871094 C 37.9375 12.167969 38.0625 12.4375 38.238281 12.6875 C 38.589844 13.042969 38.933594 13.035156 39.269531 12.660156 C 39.460938 12.394531 39.585938 12.097656 39.640625 11.773438 Z M 39.640625 11.773438 "/>
<path style=" stroke:none;fill-rule:evenodd;fill:rgb(99.215686%,99.215686%,99.215686%);fill-opacity:1;" d="M 46.242188 16.40625 C 46.339844 16.40625 46.433594 16.40625 46.53125 16.40625 C 46.53125 16.542969 46.53125 16.679688 46.53125 16.816406 C 46.449219 16.835938 46.359375 16.851562 46.265625 16.863281 C 46.242188 16.714844 46.234375 16.5625 46.242188 16.40625 Z M 46.242188 16.40625 "/>
<path style=" stroke:none;fill-rule:evenodd;fill:rgb(53.72549%,53.333333%,52.941176%);fill-opacity:1;" d="M 45.425781 16.40625 C 45.800781 16.382812 46.175781 16.375 46.554688 16.382812 C 46.5625 16.53125 46.554688 16.675781 46.53125 16.816406 C 46.53125 16.679688 46.53125 16.542969 46.53125 16.40625 C 46.433594 16.40625 46.339844 16.40625 46.242188 16.40625 C 45.972656 16.40625 45.699219 16.40625 45.425781 16.40625 Z M 45.425781 16.40625 "/>
<path style=" stroke:none;fill-rule:evenodd;fill:rgb(94.509804%,92.941176%,90.196078%);fill-opacity:1;" d="M 46.265625 17.800781 C 46.445312 25.152344 46.597656 32.503906 46.722656 39.859375 C 46.722656 40.28125 46.714844 40.699219 46.699219 41.117188 C 45.621094 41.1875 44.539062 41.226562 43.457031 41.238281 C 40.84375 41.289062 38.226562 41.328125 35.609375 41.359375 C 26.070312 41.464844 16.535156 41.546875 6.996094 41.609375 C 6.730469 34.234375 6.457031 26.855469 6.179688 19.480469 C 7.359375 19.449219 8.535156 19.382812 9.710938 19.273438 C 11.78125 19.167969 13.855469 19.0625 15.925781 18.964844 C 23.410156 18.710938 30.890625 18.398438 38.371094 18.027344 C 40.273438 17.925781 42.179688 17.824219 44.082031 17.714844 C 44.8125 17.703125 45.539062 17.730469 46.265625 17.800781 Z M 46.265625 17.800781 "/>
<path style=" stroke:none;fill-rule:evenodd;fill:rgb(99.215686%,99.215686%,99.215686%);fill-opacity:1;" d="M 46.265625 17.800781 C 46.363281 17.800781 46.460938 17.800781 46.554688 17.800781 C 46.609375 20.609375 46.675781 23.417969 46.757812 26.222656 C 46.941406 30.488281 47.144531 34.753906 47.359375 39.019531 C 47.410156 40.042969 47.449219 41.066406 47.46875 42.089844 C 46.425781 42.089844 45.386719 42.105469 44.347656 42.125 C 40.746094 42.234375 37.144531 42.324219 33.546875 42.390625 C 28.382812 42.457031 23.222656 42.539062 18.0625 42.644531 C 17.589844 42.648438 17.117188 42.644531 16.648438 42.628906 C 13.40625 42.472656 10.164062 42.324219 6.925781 42.1875 C 6.5 39.707031 6.050781 37.234375 5.582031 34.769531 C 5.339844 29.660156 5.222656 24.546875 5.222656 19.429688 C 5.539062 19.464844 5.859375 19.480469 6.179688 19.480469 C 6.457031 26.855469 6.730469 34.234375 6.996094 41.609375 C 16.535156 41.546875 26.070312 41.464844 35.609375 41.359375 C 38.226562 41.328125 40.84375 41.289062 43.457031 41.238281 C 44.539062 41.226562 45.621094 41.1875 46.699219 41.117188 C 46.714844 40.699219 46.722656 40.28125 46.722656 39.859375 C 46.597656 32.503906 46.445312 25.152344 46.265625 17.800781 Z M 46.265625 17.800781 "/>
<path style=" stroke:none;fill-rule:evenodd;fill:rgb(98.823529%,98.823529%,98.823529%);fill-opacity:1;" d="M 6.109375 17.941406 C 6.109375 18.054688 6.117188 18.167969 6.132812 18.277344 C 5.820312 18.289062 5.507812 18.316406 5.195312 18.351562 C 5.195312 18.214844 5.195312 18.078125 5.195312 17.941406 C 5.5 17.941406 5.804688 17.941406 6.109375 17.941406 Z M 6.109375 17.941406 "/>
<path style=" stroke:none;fill-rule:evenodd;fill:rgb(1.176471%,1.176471%,1.176471%);fill-opacity:1;" d="M 36.304688 27.328125 C 36.304688 27.777344 36.304688 28.222656 36.304688 28.671875 C 36.390625 28.679688 36.472656 28.671875 36.546875 28.648438 C 38.046875 28.511719 39.550781 28.414062 41.058594 28.359375 C 41.128906 28.292969 41.210938 28.25 41.3125 28.242188 C 41.542969 28.257812 41.753906 28.335938 41.945312 28.46875 C 42.082031 28.664062 42.066406 28.847656 41.898438 29.019531 C 41.859375 29.042969 41.820312 29.058594 41.777344 29.070312 C 39.949219 29.070312 38.125 29.152344 36.304688 29.320312 C 36.289062 30.519531 36.28125 31.722656 36.28125 32.921875 C 37.632812 32.898438 38.980469 32.785156 40.3125 32.574219 C 40.835938 32.449219 41.359375 32.3125 41.875 32.164062 C 42.191406 32.09375 42.511719 32.039062 42.835938 31.996094 C 43.027344 31.980469 43.21875 31.980469 43.410156 31.996094 C 43.601562 32.09375 43.652344 32.242188 43.566406 32.441406 C 43.539062 32.496094 43.492188 32.53125 43.433594 32.550781 C 43.078125 32.550781 42.726562 32.582031 42.378906 32.644531 C 41.6875 32.804688 41 32.972656 40.3125 33.148438 C 38.984375 33.328125 37.648438 33.4375 36.304688 33.472656 C 36.375 34.355469 36.472656 35.238281 36.605469 36.113281 C 36.652344 36.488281 36.679688 36.863281 36.691406 37.242188 C 36.691406 37.378906 36.679688 37.515625 36.652344 37.648438 C 36.546875 37.765625 36.414062 37.800781 36.257812 37.757812 C 36.175781 37.699219 36.097656 37.644531 36.019531 37.589844 C 35.949219 37.542969 35.90625 37.480469 35.898438 37.398438 C 35.9375 37.285156 35.984375 37.175781 36.042969 37.074219 C 35.90625 35.890625 35.800781 34.707031 35.730469 33.519531 C 33.792969 33.554688 31.855469 33.582031 29.921875 33.605469 C 29.144531 33.632812 28.367188 33.679688 27.59375 33.75 C 27.566406 33.761719 27.550781 33.78125 27.542969 33.808594 C 27.683594 34.394531 27.796875 34.988281 27.878906 35.585938 C 28.015625 35.671875 28.058594 35.789062 28.011719 35.945312 C 27.949219 36.105469 27.847656 36.238281 27.710938 36.34375 C 27.589844 36.386719 27.472656 36.386719 27.351562 36.34375 C 27.296875 36.296875 27.257812 36.234375 27.246094 36.160156 C 27.238281 35.882812 27.222656 35.601562 27.195312 35.320312 C 27.128906 34.816406 27.054688 34.3125 26.96875 33.808594 C 25.550781 33.925781 24.136719 34.039062 22.71875 34.15625 C 21.207031 34.328125 19.695312 34.492188 18.183594 34.648438 C 18.175781 35.269531 18.230469 35.886719 18.339844 36.496094 C 18.394531 36.582031 18.460938 36.664062 18.53125 36.738281 C 18.558594 36.976562 18.457031 37.113281 18.21875 37.144531 C 17.949219 37.085938 17.800781 36.917969 17.761719 36.640625 C 17.691406 35.996094 17.648438 35.347656 17.628906 34.699219 C 15.71875 34.828125 13.808594 34.863281 11.894531 34.804688 C 11.796875 34.703125 11.796875 34.597656 11.894531 34.492188 C 13.800781 34.457031 15.703125 34.371094 17.605469 34.242188 C 17.597656 32.902344 17.542969 31.566406 17.4375 30.234375 C 17.4375 30.183594 17.4375 30.136719 17.4375 30.089844 C 16.957031 30.089844 16.480469 30.089844 16 30.089844 C 15.140625 30.09375 14.285156 30.050781 13.429688 29.957031 C 13.300781 29.882812 13.25 29.777344 13.273438 29.632812 C 13.296875 29.582031 13.332031 29.546875 13.382812 29.523438 C 13.957031 29.53125 14.535156 29.554688 15.109375 29.597656 C 15.863281 29.609375 16.613281 29.613281 17.367188 29.609375 C 17.242188 28.664062 17.125 27.722656 17.019531 26.777344 C 16.996094 26.105469 16.984375 25.433594 16.984375 24.761719 C 17.007812 24.539062 17.015625 24.316406 17.007812 24.085938 C 16.882812 24.082031 16.761719 24.089844 16.648438 24.113281 C 15.117188 24.152344 13.589844 24.164062 12.0625 24.148438 C 12.019531 24.136719 11.988281 24.109375 11.976562 24.0625 C 11.9375 23.9375 11.972656 23.847656 12.085938 23.789062 C 13.726562 23.75 15.367188 23.691406 17.007812 23.609375 C 17.019531 23.191406 17.035156 22.777344 17.042969 22.359375 C 17.160156 22.234375 17.28125 22.234375 17.402344 22.359375 C 17.414062 22.765625 17.417969 23.175781 17.414062 23.582031 C 20.238281 23.402344 23.0625 23.246094 25.886719 23.117188 C 26.710938 23.089844 27.535156 23.066406 28.359375 23.042969 C 30.777344 23.019531 33.195312 22.992188 35.609375 22.960938 C 35.570312 22.480469 35.558594 22 35.574219 21.519531 C 35.644531 21.460938 35.722656 21.457031 35.800781 21.507812 C 35.816406 21.527344 35.828125 21.546875 35.835938 21.566406 C 35.84375 22.027344 35.878906 22.480469 35.945312 22.9375 C 36.726562 22.890625 37.5 22.816406 38.273438 22.707031 C 38.929688 22.578125 39.585938 22.453125 40.242188 22.324219 C 40.753906 22.316406 41.265625 22.308594 41.777344 22.300781 C 41.847656 22.261719 41.910156 22.210938 41.972656 22.15625 C 42.230469 22.074219 42.398438 22.160156 42.476562 22.417969 C 42.515625 22.695312 42.40625 22.863281 42.140625 22.921875 C 41.570312 22.953125 41.003906 22.96875 40.433594 22.972656 C 39.683594 23.105469 38.929688 23.242188 38.179688 23.378906 C 37.46875 23.46875 36.757812 23.527344 36.042969 23.558594 C 36.257812 24.808594 36.34375 26.0625 36.304688 27.328125 Z M 36.304688 27.328125 "/>
<use xlink:href="#surface48" mask="url(#mask14)"/>
<path style=" stroke:none;fill-rule:evenodd;fill:rgb(94.509804%,92.941176%,90.196078%);fill-opacity:1;" d="M 26.390625 23.726562 C 26.496094 23.710938 26.601562 23.695312 26.703125 23.679688 C 29.695312 23.644531 32.6875 23.613281 35.683594 23.582031 C 35.75 24.167969 35.800781 24.75 35.835938 25.335938 C 35.851562 26.464844 35.847656 27.59375 35.824219 28.71875 C 35.058594 28.761719 34.289062 28.804688 33.519531 28.851562 C 31.3125 28.882812 29.105469 28.929688 26.894531 28.984375 C 26.734375 27.769531 26.59375 26.554688 26.476562 25.335938 C 26.453125 24.800781 26.421875 24.261719 26.390625 23.726562 Z M 26.390625 23.726562 "/>
<path style=" stroke:none;fill-rule:evenodd;fill:rgb(67.45098%,66.666667%,64.313725%);fill-opacity:1;" d="M 26.703125 23.679688 C 26.601562 23.695312 26.496094 23.710938 26.390625 23.726562 C 26.378906 23.726562 26.371094 23.71875 26.367188 23.703125 C 26.480469 23.679688 26.589844 23.671875 26.703125 23.679688 Z M 26.703125 23.679688 "/>
<path style=" stroke:none;fill-rule:evenodd;fill:rgb(94.509804%,92.941176%,90.196078%);fill-opacity:1;" d="M 25.433594 23.703125 C 25.632812 23.699219 25.832031 23.703125 26.03125 23.714844 C 26.003906 24.101562 26 24.488281 26.019531 24.878906 C 26.042969 25.328125 26.066406 25.777344 26.09375 26.222656 C 26.179688 27.160156 26.273438 28.097656 26.367188 29.03125 C 26.046875 29.03125 25.726562 29.042969 25.40625 29.070312 C 22.890625 29.28125 20.371094 29.453125 17.847656 29.585938 C 17.769531 29 17.6875 28.414062 17.59375 27.832031 C 17.425781 26.582031 17.367188 25.324219 17.414062 24.0625 C 20.089844 23.957031 22.765625 23.835938 25.433594 23.703125 Z M 25.433594 23.703125 "/>
<path style=" stroke:none;fill-rule:evenodd;fill:rgb(36.078431%,35.686275%,34.509804%);fill-opacity:1;" d="M 16.648438 24.113281 C 16.761719 24.089844 16.882812 24.082031 17.007812 24.085938 C 17.015625 24.316406 17.007812 24.539062 16.984375 24.761719 C 16.984375 24.542969 16.984375 24.328125 16.984375 24.113281 C 16.871094 24.113281 16.757812 24.113281 16.648438 24.113281 Z M 16.648438 24.113281 "/>
<path style=" stroke:none;fill-rule:evenodd;fill:rgb(32.156863%,29.019608%,30.196078%);fill-opacity:1;" d="M 3.707031 27.089844 C 3.714844 26.996094 3.707031 26.90625 3.683594 26.824219 C 3.699219 26.664062 3.710938 26.503906 3.71875 26.34375 C 3.742188 26.597656 3.738281 26.84375 3.707031 27.089844 Z M 3.707031 27.089844 "/>
<path style=" stroke:none;fill-rule:evenodd;fill:rgb(61.960784%,56.078431%,58.039216%);fill-opacity:1;" d="M 3.683594 26.824219 C 3.707031 26.90625 3.714844 26.996094 3.707031 27.089844 C 3.535156 33.28125 3.425781 39.472656 3.382812 45.667969 C 3.414062 45.792969 3.496094 45.859375 3.625 45.859375 C 7.125 45.589844 10.625 45.320312 14.125 45.054688 C 17.542969 44.800781 20.957031 44.566406 24.375 44.347656 C 24.445312 44.339844 24.507812 44.347656 24.566406 44.371094 C 18.867188 44.890625 13.175781 45.527344 7.5 46.28125 C 5.796875 46.527344 4.089844 46.777344 2.386719 47.035156 C 2.746094 40.292969 3.179688 33.558594 3.683594 26.824219 Z M 3.683594 26.824219 "/>
<path style=" stroke:none;fill-rule:evenodd;fill:rgb(53.72549%,52.941176%,51.372549%);fill-opacity:1;" d="M 36.304688 27.328125 C 36.328125 27.765625 36.335938 28.203125 36.328125 28.648438 C 36.402344 28.648438 36.472656 28.648438 36.546875 28.648438 C 36.472656 28.671875 36.390625 28.679688 36.304688 28.671875 C 36.304688 28.222656 36.304688 27.777344 36.304688 27.328125 Z M 36.304688 27.328125 "/>
<path style=" stroke:none;fill-rule:evenodd;fill:rgb(62.352941%,56.470588%,58.431373%);fill-opacity:1;" d="M 4.164062 28.71875 C 4.21875 32.261719 4.34375 35.808594 4.535156 39.355469 C 4.628906 40.738281 4.730469 42.125 4.847656 43.507812 C 4.941406 43.8125 5.144531 43.960938 5.460938 43.964844 C 8.339844 43.867188 11.222656 43.800781 14.101562 43.757812 C 18.710938 43.695312 23.320312 43.640625 27.929688 43.589844 C 27.175781 43.648438 26.421875 43.714844 25.671875 43.78125 C 18.398438 44.289062 11.128906 44.820312 3.863281 45.378906 C 3.859375 43.761719 3.878906 42.148438 3.914062 40.53125 C 3.988281 36.59375 4.074219 32.65625 4.164062 28.71875 Z M 4.164062 28.71875 "/>
<path style=" stroke:none;fill-rule:evenodd;fill:rgb(94.509804%,92.941176%,90.196078%);fill-opacity:1;" d="M 35.488281 29.367188 C 35.59375 29.367188 35.699219 29.367188 35.800781 29.367188 C 35.75 30.570312 35.726562 31.769531 35.730469 32.96875 C 34.050781 33.027344 32.371094 33.054688 30.6875 33.054688 C 29.652344 33.074219 28.613281 33.132812 27.582031 33.234375 C 27.535156 33.226562 27.492188 33.21875 27.449219 33.210938 C 27.289062 31.992188 27.128906 30.777344 26.96875 29.5625 C 28.976562 29.523438 30.984375 29.496094 32.992188 29.476562 C 33.828125 29.457031 34.660156 29.421875 35.488281 29.367188 Z M 35.488281 29.367188 "/>
<path style=" stroke:none;fill-rule:evenodd;fill:rgb(94.509804%,92.941176%,90.196078%);fill-opacity:1;" d="M 18.253906 34.167969 C 18.222656 34.167969 18.191406 34.167969 18.160156 34.167969 C 18.164062 34.117188 18.15625 34.066406 18.136719 34.027344 C 18.085938 32.703125 18.011719 31.382812 17.917969 30.066406 C 19.070312 30.03125 20.222656 29.980469 21.375 29.910156 C 23.0625 29.761719 24.75 29.660156 26.441406 29.597656 C 26.574219 30.832031 26.710938 32.066406 26.847656 33.304688 C 24.375 33.476562 21.910156 33.730469 19.457031 34.0625 C 19.054688 34.109375 18.65625 34.144531 18.253906 34.167969 Z M 18.253906 34.167969 "/>
<path style=" stroke:none;fill-rule:evenodd;fill:rgb(57.647059%,56.862745%,55.294118%);fill-opacity:1;" d="M 16 30.089844 C 16.480469 30.089844 16.957031 30.089844 17.4375 30.089844 C 17.4375 30.136719 17.4375 30.183594 17.4375 30.234375 C 17.414062 30.199219 17.40625 30.160156 17.414062 30.113281 C 16.9375 30.121094 16.464844 30.113281 16 30.089844 Z M 16 30.089844 "/>
<path style=" stroke:none;fill-rule:evenodd;fill:rgb(54.901961%,54.117647%,52.54902%);fill-opacity:1;" d="M 18.136719 34.027344 C 18.15625 34.066406 18.164062 34.117188 18.160156 34.167969 C 18.191406 34.167969 18.222656 34.167969 18.253906 34.167969 C 18.222656 34.191406 18.179688 34.199219 18.136719 34.195312 C 18.136719 34.136719 18.136719 34.082031 18.136719 34.027344 Z M 18.136719 34.027344 "/>
<path style=" stroke:none;fill-rule:evenodd;fill:rgb(62.745098%,56.862745%,58.823529%);fill-opacity:1;" d="M 5.582031 34.769531 C 6.050781 37.234375 6.5 39.707031 6.925781 42.1875 C 10.164062 42.324219 13.40625 42.472656 16.648438 42.628906 C 17.117188 42.644531 17.589844 42.648438 18.0625 42.644531 C 14.042969 42.726562 10.019531 42.769531 5.988281 42.773438 C 5.847656 40.109375 5.710938 37.441406 5.582031 34.769531 Z M 5.582031 34.769531 "/>
<path style=" stroke:none;fill-rule:evenodd;fill:rgb(37.254902%,33.72549%,34.901961%);fill-opacity:1;" d="M 24.566406 44.371094 C 24.507812 44.347656 24.445312 44.339844 24.375 44.347656 C 24.730469 44.308594 25.089844 44.289062 25.457031 44.285156 C 25.160156 44.316406 24.863281 44.347656 24.566406 44.371094 Z M 24.566406 44.371094 "/>
</g>
</svg>
