<?xml version="1.0" encoding="UTF-8"?>
<svg xmlns="http://www.w3.org/2000/svg" xmlns:xlink="http://www.w3.org/1999/xlink" width="50pt" height="50pt" viewBox="0 0 50 50" version="1.1">
<defs>
<filter id="alpha" filterUnits="objectBoundingBox" x="0%" y="0%" width="100%" height="100%">
  <feColorMatrix type="matrix" in="SourceGraphic" values="0 0 0 0 1 0 0 0 0 1 0 0 0 0 1 0 0 0 1 0"/>
</filter>
<mask id="mask0">
  <g filter="url(#alpha)">
<rect x="0" y="0" width="50" height="50" style="fill:rgb(0%,0%,0%);fill-opacity:0.964706;stroke:none;"/>
  </g>
</mask>
<clipPath id="clip1">
  <rect width="50" height="50"/>
</clipPath>
<g id="surface6" clip-path="url(#clip1)">
<path style=" stroke:none;fill-rule:evenodd;fill:rgb(10.196078%,10.196078%,9.803922%);fill-opacity:1;" d="M 28.910156 42.105469 C 28.582031 41.011719 28.296875 39.910156 28.046875 38.796875 C 27.574219 38.878906 27.109375 38.996094 26.65625 39.15625 C 25.90625 39.480469 25.171875 39.832031 24.449219 40.210938 C 23.5625 40.488281 22.683594 40.777344 21.808594 41.074219 C 20.546875 41.359375 19.265625 41.472656 17.96875 41.410156 C 17.371094 41.335938 16.777344 41.222656 16.195312 41.074219 C 15.75 41.015625 15.300781 40.976562 14.851562 40.953125 C 14.78125 40.917969 14.703125 40.890625 14.609375 40.882812 C 14.226562 40.859375 13.84375 40.851562 13.460938 40.859375 C 13.199219 40.847656 12.945312 40.816406 12.691406 40.761719 C 12.691406 40.730469 12.675781 40.714844 12.644531 40.714844 C 12.613281 40.714844 12.578125 40.714844 12.546875 40.714844 C 12.53125 40.675781 12.5 40.660156 12.453125 40.667969 C 12.421875 40.601562 12.386719 40.601562 12.355469 40.667969 C 12.265625 40.589844 12.191406 40.605469 12.140625 40.714844 C 12.003906 41.59375 11.90625 42.472656 11.851562 43.355469 C 11.949219 43.476562 12.039062 43.605469 12.117188 43.738281 C 11.910156 43.765625 11.703125 43.78125 11.492188 43.785156 C 11.207031 43.554688 10.957031 43.28125 10.75 42.96875 C 10.304688 42.128906 9.871094 41.28125 9.453125 40.425781 C 9.039062 39.363281 8.894531 38.257812 9.019531 37.117188 C 9.089844 36.339844 9.257812 35.589844 9.523438 34.859375 C 9.566406 34.84375 9.582031 34.8125 9.574219 34.765625 C 9.777344 34.472656 9.992188 34.183594 10.222656 33.902344 C 10.945312 33.222656 11.660156 32.527344 12.355469 31.8125 C 13.015625 31.386719 13.527344 30.835938 13.890625 30.160156 C 13.921875 30.160156 13.941406 30.140625 13.941406 30.109375 C 13.972656 30.109375 13.988281 30.09375 13.988281 30.0625 C 14.289062 29.625 14.648438 29.242188 15.066406 28.910156 C 15.289062 28.488281 15.542969 28.085938 15.835938 27.710938 C 15.960938 27.445312 16.070312 27.171875 16.171875 26.894531 C 16.203125 25.886719 16.203125 24.878906 16.171875 23.871094 C 16.097656 23 15.84375 22.183594 15.402344 21.425781 C 15.082031 20.9375 14.753906 20.457031 14.417969 19.984375 C 14.304688 19.796875 14.160156 19.628906 13.988281 19.480469 C 13.65625 19.363281 13.320312 19.257812 12.980469 19.167969 C 12.964844 19.128906 12.929688 19.113281 12.882812 19.121094 C 12.867188 19.121094 12.851562 19.121094 12.835938 19.121094 C 12.820312 19.082031 12.789062 19.066406 12.738281 19.074219 C 12.722656 19.074219 12.707031 19.074219 12.691406 19.074219 C 12.691406 19.042969 12.675781 19.027344 12.644531 19.027344 C 12.628906 19.027344 12.613281 19.027344 12.597656 19.027344 C 12.597656 18.992188 12.578125 18.976562 12.546875 18.976562 C 12.453125 18.945312 12.355469 18.914062 12.261719 18.882812 C 12.261719 18.851562 12.242188 18.832031 12.210938 18.832031 C 12.039062 18.816406 11.882812 18.769531 11.730469 18.691406 C 11.097656 19.207031 10.496094 19.765625 9.933594 20.371094 C 7.765625 22.933594 5.65625 25.542969 3.597656 28.191406 C 3.453125 28.382812 3.335938 28.59375 3.238281 28.816406 C 3.207031 28.816406 3.191406 28.832031 3.191406 28.863281 C 3.152344 28.878906 3.132812 28.910156 3.144531 28.957031 C 3.042969 29.082031 2.976562 29.226562 2.949219 29.390625 C 2.882812 29.453125 2.851562 29.53125 2.855469 29.628906 C 2.816406 29.648438 2.800781 29.679688 2.808594 29.726562 C 2.765625 29.761719 2.746094 29.808594 2.757812 29.871094 C 2.71875 29.886719 2.703125 29.917969 2.710938 29.964844 C 2.640625 30.027344 2.609375 30.109375 2.613281 30.207031 C 2.574219 30.222656 2.558594 30.253906 2.566406 30.300781 C 2.523438 30.335938 2.507812 30.382812 2.519531 30.445312 C 1.867188 31.730469 1.433594 33.089844 1.222656 34.523438 C 1.222656 34.539062 1.222656 34.558594 1.222656 34.574219 C 1.179688 34.605469 1.164062 34.65625 1.175781 34.71875 C 0.933594 35.929688 0.925781 37.148438 1.152344 38.363281 C 1.605469 39.75 2.082031 41.125 2.589844 42.492188 C 2.625 42.632812 2.648438 42.777344 2.664062 42.921875 C 2.613281 42.921875 2.566406 42.921875 2.519531 42.921875 C 2.324219 42.914062 2.132812 42.929688 1.945312 42.96875 C 1.460938 41.972656 1.046875 40.945312 0.695312 39.898438 C 0.597656 39.554688 0.523438 39.203125 0.480469 38.84375 C 0.207031 35.945312 0.609375 33.144531 1.679688 30.445312 C 1.933594 29.902344 2.238281 29.390625 2.589844 28.910156 C 2.976562 27.867188 3.519531 26.925781 4.222656 26.078125 C 4.609375 25.6875 5 25.300781 5.398438 24.929688 C 6.09375 24.335938 6.691406 23.664062 7.199219 22.914062 C 7.378906 22.566406 7.546875 22.214844 7.703125 21.855469 C 7.96875 21.117188 8.449219 20.566406 9.140625 20.203125 C 9.769531 19.457031 10.507812 18.847656 11.347656 18.378906 C 11.230469 18.324219 11.101562 18.300781 10.964844 18.304688 C 10.355469 18.375 9.746094 18.367188 9.140625 18.28125 C 8.886719 18.226562 8.742188 18.074219 8.710938 17.828125 C 8.792969 17.433594 8.976562 17.097656 9.261719 16.820312 C 9.355469 16.648438 9.433594 16.472656 9.5 16.289062 C 9.765625 15.226562 10.003906 14.152344 10.222656 13.074219 C 10.5625 11.914062 11.011719 10.792969 11.5625 9.71875 C 11.988281 8.898438 12.660156 8.480469 13.578125 8.46875 C 13.703125 8.472656 13.824219 8.488281 13.941406 8.515625 C 14.117188 8.363281 14.324219 8.277344 14.5625 8.253906 C 14.835938 8.230469 15.105469 8.222656 15.378906 8.230469 C 16.265625 8.480469 17.023438 8.945312 17.660156 9.621094 C 18.003906 10.117188 18.320312 10.628906 18.617188 11.15625 C 18.84375 11.367188 19.050781 11.589844 19.242188 11.828125 C 19.507812 12.539062 19.886719 13.179688 20.371094 13.746094 C 20.636719 14.105469 20.949219 14.425781 21.304688 14.707031 C 21.375 14.859375 21.390625 15.019531 21.351562 15.1875 C 20.964844 15.816406 20.460938 16.335938 19.839844 16.746094 C 19.640625 16.828125 19.433594 16.878906 19.21875 16.890625 C 20.65625 17.195312 22.113281 17.332031 23.585938 17.296875 C 25.398438 17.386719 27.15625 17.121094 28.863281 16.507812 C 30.558594 15.707031 32.039062 14.613281 33.300781 13.21875 C 34.710938 11.535156 36.039062 9.792969 37.285156 7.988281 C 37.554688 7.863281 37.789062 7.675781 37.980469 7.4375 C 39.101562 6.5625 40.382812 6.082031 41.820312 6 C 43.832031 5.871094 45.832031 5.996094 47.816406 6.382812 C 48.386719 6.460938 48.90625 6.660156 49.375 6.980469 C 49.699219 7.609375 49.53125 8.046875 48.871094 8.300781 C 47.609375 8.425781 46.347656 8.535156 45.082031 8.636719 C 45.335938 8.746094 45.4375 8.929688 45.394531 9.1875 C 45.257812 9.324219 45.089844 9.398438 44.890625 9.40625 C 44.648438 9.4375 44.410156 9.4375 44.167969 9.40625 C 43.503906 9.253906 42.832031 9.207031 42.15625 9.261719 C 41.875 9.3125 41.601562 9.382812 41.339844 9.476562 C 41.398438 9.703125 41.523438 9.886719 41.722656 10.027344 C 42.464844 10.394531 43.25 10.519531 44.074219 10.414062 C 44.464844 10.378906 44.847656 10.316406 45.226562 10.222656 C 45.289062 10.1875 45.289062 10.15625 45.226562 10.125 C 45.085938 10.042969 44.949219 9.953125 44.816406 9.859375 C 44.765625 9.691406 44.804688 9.558594 44.9375 9.453125 C 45.484375 9.441406 45.890625 9.675781 46.160156 10.148438 C 46.195312 10.265625 46.179688 10.378906 46.113281 10.484375 C 45.84375 10.621094 45.5625 10.730469 45.273438 10.820312 C 45.761719 11.199219 45.898438 11.679688 45.679688 12.261719 C 45.484375 12.5625 45.203125 12.707031 44.839844 12.691406 C 44.851562 12.792969 44.835938 12.886719 44.792969 12.980469 C 44.28125 13.371094 43.707031 13.523438 43.066406 13.4375 C 42.949219 13.605469 42.886719 13.78125 42.875 13.964844 C 42.683594 14.253906 42.5 14.550781 42.324219 14.851562 C 41.859375 15.25 41.394531 15.652344 40.929688 16.050781 C 40.394531 17.019531 39.679688 17.84375 38.796875 18.523438 C 37.894531 19.230469 36.96875 19.902344 36.011719 20.539062 C 34.40625 21.367188 32.789062 22.179688 31.167969 22.984375 C 30.398438 23.496094 29.566406 23.882812 28.671875 24.136719 C 27 24.578125 25.304688 24.898438 23.585938 25.097656 C 25.003906 28.503906 26.324219 31.949219 27.542969 35.4375 C 27.632812 35.511719 27.726562 35.578125 27.832031 35.628906 C 27.882812 35.777344 27.839844 35.898438 27.710938 35.988281 C 28.117188 36.089844 28.195312 36.304688 27.949219 36.636719 C 27.960938 36.6875 27.976562 36.734375 28 36.78125 C 28.25 36.90625 28.296875 37.09375 28.144531 37.332031 C 28.175781 37.410156 28.214844 37.480469 28.261719 37.546875 C 28.453125 37.453125 28.574219 37.507812 28.621094 37.714844 C 28.570312 37.855469 28.492188 37.976562 28.382812 38.074219 C 28.785156 39.335938 29.152344 40.609375 29.488281 41.890625 C 29.472656 41.953125 29.441406 42.003906 29.390625 42.035156 C 29.234375 42.074219 29.074219 42.097656 28.910156 42.105469 Z M 18.304688 17.875 C 19.511719 18.105469 20.726562 18.238281 21.953125 18.28125 C 24.371094 18.460938 26.738281 18.207031 29.054688 17.515625 C 30.519531 16.914062 31.828125 16.082031 32.988281 15.019531 C 33.429688 14.628906 33.851562 14.222656 34.261719 13.796875 C 35.082031 12.816406 35.863281 11.808594 36.613281 10.773438 C 36.976562 10.1875 37.328125 9.597656 37.667969 8.996094 C 37.746094 8.871094 37.84375 8.757812 37.957031 8.660156 C 38.035156 8.519531 38.050781 8.375 38.003906 8.230469 C 38.609375 7.59375 39.335938 7.152344 40.1875 6.910156 C 40.738281 6.757812 41.296875 6.664062 41.867188 6.621094 C 43.746094 6.550781 45.617188 6.628906 47.480469 6.863281 C 47.730469 6.957031 47.984375 7.03125 48.25 7.078125 C 48.257812 7.335938 48.25 7.589844 48.222656 7.84375 C 48.171875 7.878906 48.117188 7.902344 48.054688 7.917969 C 47.210938 7.976562 46.363281 8.011719 45.511719 8.011719 C 44.402344 8.09375 43.300781 8.191406 42.203125 8.300781 C 41.273438 8.457031 40.5625 8.929688 40.066406 9.71875 C 40.054688 10.089844 40.222656 10.191406 40.570312 10.027344 C 40.628906 9.953125 40.703125 9.898438 40.785156 9.859375 C 41.003906 10.15625 41.269531 10.40625 41.578125 10.605469 C 41.410156 10.695312 41.355469 10.832031 41.410156 11.011719 C 41.5 11.101562 41.585938 11.1875 41.675781 11.277344 C 41.519531 11.335938 41.4375 11.449219 41.433594 11.613281 C 41.539062 12.371094 41.921875 12.929688 42.585938 13.292969 C 42.40625 13.628906 42.203125 13.957031 41.988281 14.277344 C 41.652344 14.578125 41.316406 14.882812 40.980469 15.1875 C 40.046875 16.425781 38.964844 17.519531 37.738281 18.472656 C 36.292969 19.574219 34.773438 20.566406 33.179688 21.449219 C 32.894531 21.5625 32.605469 21.671875 32.316406 21.785156 C 30.183594 23.035156 27.894531 23.898438 25.457031 24.375 C 25.011719 24.464844 24.5625 24.523438 24.113281 24.542969 C 23.816406 24.550781 23.527344 24.511719 23.25 24.425781 C 22.550781 23.292969 21.871094 22.148438 21.210938 20.992188 C 21.121094 20.863281 21 20.785156 20.847656 20.753906 C 20.089844 19.714844 19.242188 18.757812 18.304688 17.875 Z M 13.605469 8.902344 C 13.171875 9.589844 12.828125 10.328125 12.570312 11.109375 C 11.863281 13.238281 11.230469 15.390625 10.675781 17.5625 C 11.113281 17.671875 11.5625 17.742188 12.019531 17.777344 C 11.992188 17.832031 11.949219 17.878906 11.898438 17.921875 C 11.207031 17.863281 10.511719 17.863281 9.8125 17.921875 C 9.699219 17.914062 9.589844 17.90625 9.476562 17.898438 C 9.363281 17.890625 9.285156 17.832031 9.238281 17.730469 C 9.488281 17.367188 9.707031 16.984375 9.886719 16.578125 C 9.972656 16.324219 10.054688 16.070312 10.125 15.8125 C 10.410156 13.695312 11.050781 11.695312 12.042969 9.8125 C 12.402344 9.238281 12.921875 8.933594 13.605469 8.902344 Z M 42.058594 10.820312 C 42.945312 11.035156 43.84375 11.066406 44.746094 10.917969 C 44.738281 11.019531 44.761719 11.117188 44.816406 11.203125 C 45.386719 11.609375 45.339844 11.929688 44.671875 12.164062 C 43.660156 11.972656 42.789062 11.527344 42.058594 10.820312 Z M 42.011719 11.589844 C 42.695312 12.074219 43.445312 12.433594 44.265625 12.667969 C 43.304688 13.09375 42.578125 12.847656 42.082031 11.925781 C 42.035156 11.816406 42.011719 11.703125 42.011719 11.589844 Z M 18.164062 16.433594 C 18.242188 16.433594 18.320312 16.433594 18.402344 16.433594 C 18.289062 16.515625 18.242188 16.628906 18.257812 16.769531 C 18.175781 16.777344 18.097656 16.769531 18.019531 16.746094 C 18.0625 16.636719 18.109375 16.53125 18.164062 16.433594 Z M 17.539062 16.675781 C 17.558594 16.792969 17.511719 16.855469 17.394531 16.867188 C 17.417969 16.785156 17.46875 16.71875 17.539062 16.675781 Z M 13.890625 18.066406 C 14.246094 18.140625 14.597656 18.226562 14.945312 18.332031 C 15.097656 18.449219 15.25 18.570312 15.402344 18.691406 C 15.460938 18.875 15.546875 19.042969 15.667969 19.195312 C 15.636719 19.226562 15.601562 19.226562 15.570312 19.195312 C 15.144531 18.75 14.648438 18.429688 14.082031 18.234375 C 13.984375 18.210938 13.921875 18.152344 13.890625 18.066406 Z M 12.980469 19.167969 C 13.320312 19.257812 13.65625 19.363281 13.988281 19.480469 C 14.160156 19.628906 14.304688 19.796875 14.417969 19.984375 C 13.9375 19.714844 13.460938 19.441406 12.980469 19.167969 Z M 17.296875 19.457031 C 17.816406 19.507812 17.878906 19.683594 17.492188 19.984375 C 17.417969 19.894531 17.335938 19.808594 17.25 19.722656 C 17.292969 19.640625 17.308594 19.550781 17.296875 19.457031 Z M 17.828125 20.417969 C 17.828125 20.390625 17.84375 20.375 17.875 20.371094 C 17.925781 20.410156 17.933594 20.457031 17.898438 20.511719 C 17.886719 20.46875 17.859375 20.4375 17.828125 20.417969 Z M 20.035156 20.511719 C 20.152344 20.640625 20.265625 20.777344 20.371094 20.921875 C 20.242188 20.878906 20.121094 20.804688 20.007812 20.707031 C 20 20.640625 20.007812 20.578125 20.035156 20.511719 Z M 17.96875 20.800781 C 17.96875 20.621094 18 20.613281 18.066406 20.777344 C 18.039062 20.800781 18.003906 20.808594 17.96875 20.800781 Z M 18.546875 21.042969 C 18.632812 21.234375 18.660156 21.445312 18.617188 21.664062 C 18.558594 21.605469 18.519531 21.53125 18.5 21.449219 C 18.539062 21.316406 18.554688 21.179688 18.546875 21.042969 Z M 19.363281 21.472656 C 19.667969 22.050781 19.917969 22.660156 20.105469 23.296875 C 20.152344 23.433594 20.121094 23.542969 20.007812 23.632812 C 19.742188 22.929688 19.527344 22.210938 19.363281 21.472656 Z M 20.65625 21.953125 C 20.746094 21.96875 20.820312 22.019531 20.875 22.097656 C 20.917969 22.242188 20.949219 22.386719 20.96875 22.527344 C 20.828125 22.355469 20.722656 22.164062 20.65625 21.953125 Z M 17.25 22.671875 C 17.339844 22.722656 17.402344 22.792969 17.441406 22.890625 C 17.277344 22.917969 17.214844 22.847656 17.25 22.671875 Z M 19.21875 22.816406 C 19.292969 22.914062 19.316406 23.027344 19.289062 23.152344 C 19.230469 23.046875 19.207031 22.9375 19.21875 22.816406 Z M 17.96875 24.257812 C 18.25 24.789062 18.265625 25.335938 18.019531 25.886719 C 17.945312 25.828125 17.871094 25.828125 17.800781 25.886719 C 17.867188 25.335938 17.921875 24.792969 17.96875 24.257812 Z M 19.839844 24.449219 C 19.902344 24.511719 19.945312 24.59375 19.960938 24.6875 C 20.058594 25.117188 20.148438 25.550781 20.226562 25.984375 C 20.210938 26.078125 20.171875 26.15625 20.105469 26.222656 C 19.953125 25.832031 19.800781 25.4375 19.648438 25.046875 C 19.679688 24.835938 19.746094 24.636719 19.839844 24.449219 Z M 20.65625 25.023438 C 20.765625 25.058594 20.773438 25.105469 20.679688 25.167969 C 20.660156 25.121094 20.648438 25.074219 20.65625 25.023438 Z M 22.578125 25.214844 C 22.699219 25.335938 22.773438 25.480469 22.792969 25.648438 C 22.695312 25.515625 22.621094 25.371094 22.578125 25.214844 Z M 21.90625 25.457031 C 22.070312 25.746094 22.230469 26.039062 22.386719 26.34375 C 22.324219 26.375 22.265625 26.367188 22.21875 26.320312 C 22.097656 26.035156 21.996094 25.746094 21.90625 25.457031 Z M 20.992188 25.550781 C 21.027344 25.570312 21.050781 25.605469 21.066406 25.648438 C 21.105469 25.894531 21.144531 26.144531 21.183594 26.390625 C 21.15625 26.53125 21.113281 26.667969 21.066406 26.800781 C 21.015625 26.464844 20.945312 26.136719 20.847656 25.816406 C 20.902344 25.730469 20.953125 25.640625 20.992188 25.550781 Z M 18.691406 26.992188 C 18.714844 26.71875 18.742188 26.449219 18.761719 26.175781 C 18.832031 26.410156 18.851562 26.652344 18.808594 26.894531 C 18.777344 26.9375 18.734375 26.96875 18.691406 26.992188 Z M 21.664062 26.414062 C 21.875 26.875 22.066406 27.347656 22.242188 27.832031 C 22.234375 27.871094 22.226562 27.910156 22.21875 27.949219 C 22.167969 27.765625 22.09375 27.589844 22 27.421875 C 21.925781 27.382812 21.84375 27.367188 21.761719 27.375 C 21.746094 27.054688 21.710938 26.734375 21.664062 26.414062 Z M 19.3125 26.945312 C 19.398438 27.285156 19.4375 27.636719 19.433594 28 C 19.410156 27.941406 19.371094 27.902344 19.3125 27.878906 C 19.355469 27.570312 19.355469 27.257812 19.3125 26.945312 Z M 23.871094 28.046875 C 23.695312 27.746094 23.535156 27.4375 23.390625 27.109375 C 23.441406 27.085938 23.488281 27.0625 23.535156 27.039062 C 23.695312 27.359375 23.808594 27.695312 23.871094 28.046875 Z M 21.28125 27.519531 C 21.375 27.640625 21.414062 27.785156 21.402344 27.949219 C 21.339844 27.890625 21.265625 27.84375 21.183594 27.808594 C 21.246094 27.71875 21.277344 27.625 21.28125 27.519531 Z M 18.785156 28.429688 C 18.855469 28.675781 18.757812 28.792969 18.5 28.789062 C 18.585938 28.664062 18.683594 28.542969 18.785156 28.429688 Z M 3.144531 28.957031 C 3.117188 29.121094 3.054688 29.265625 2.949219 29.390625 C 2.976562 29.226562 3.042969 29.082031 3.144531 28.957031 Z M 18.546875 29.292969 C 18.59375 29.292969 18.625 29.316406 18.640625 29.367188 C 18.574219 29.640625 18.535156 29.921875 18.523438 30.207031 C 18.441406 30.300781 18.363281 30.398438 18.28125 30.496094 C 18.132812 30.339844 18.023438 30.164062 17.945312 29.964844 C 17.890625 29.898438 17.816406 29.859375 17.730469 29.847656 C 17.84375 29.832031 17.953125 29.8125 18.066406 29.796875 C 18.09375 29.710938 18.128906 29.621094 18.164062 29.535156 C 18.292969 29.453125 18.421875 29.375 18.546875 29.292969 Z M 2.949219 29.390625 C 2.957031 29.488281 2.921875 29.570312 2.855469 29.628906 C 2.851562 29.53125 2.882812 29.453125 2.949219 29.390625 Z M 22.960938 29.535156 C 23.003906 29.621094 23.050781 29.707031 23.105469 29.796875 C 23.058594 29.828125 23.019531 29.820312 22.984375 29.773438 C 22.960938 29.695312 22.953125 29.617188 22.960938 29.535156 Z M 24.929688 29.773438 C 25.097656 30.136719 25.207031 30.519531 25.265625 30.925781 C 25.125 30.554688 25.011719 30.171875 24.929688 29.773438 Z M 2.710938 29.964844 C 2.714844 30.066406 2.683594 30.144531 2.613281 30.207031 C 2.609375 30.109375 2.640625 30.027344 2.710938 29.964844 Z M 13.890625 30.160156 C 13.527344 30.835938 13.015625 31.386719 12.355469 31.8125 C 11.660156 32.527344 10.945312 33.222656 10.222656 33.902344 C 9.992188 34.183594 9.777344 34.472656 9.574219 34.765625 C 9.597656 33.765625 9.996094 32.957031 10.773438 32.339844 C 11.867188 31.683594 12.90625 30.957031 13.890625 30.160156 Z M 19.167969 30.160156 C 19.234375 30.253906 19.226562 30.351562 19.144531 30.445312 C 19.046875 30.339844 19.054688 30.242188 19.167969 30.160156 Z M 2.519531 30.445312 C 2.019531 31.789062 1.585938 33.148438 1.222656 34.523438 C 1.433594 33.089844 1.867188 31.730469 2.519531 30.445312 Z M 17.683594 30.734375 C 17.808594 30.789062 17.847656 30.882812 17.800781 31.023438 C 17.703125 31.136719 17.59375 31.230469 17.464844 31.308594 C 17.441406 31.285156 17.417969 31.261719 17.394531 31.238281 C 17.5 31.074219 17.597656 30.90625 17.683594 30.734375 Z M 19.363281 30.878906 C 19.464844 30.941406 19.546875 31.03125 19.601562 31.140625 C 19.574219 31.222656 19.519531 31.28125 19.433594 31.308594 C 19.378906 31.171875 19.355469 31.027344 19.363281 30.878906 Z M 21.953125 31.023438 C 22.117188 31.273438 22.140625 31.546875 22.023438 31.835938 C 21.929688 31.570312 21.90625 31.296875 21.953125 31.023438 Z M 13.460938 31.597656 C 13.546875 31.753906 13.675781 31.800781 13.84375 31.742188 C 13.953125 31.777344 14.066406 31.800781 14.179688 31.8125 C 14.019531 31.960938 13.875 32.121094 13.746094 32.292969 C 13.429688 32.195312 13.277344 32.316406 13.292969 32.652344 C 13.15625 32.832031 13.042969 33.023438 12.957031 33.230469 C 12.792969 32.980469 12.730469 32.707031 12.765625 32.414062 C 12.851562 32.257812 12.949219 32.117188 13.050781 31.980469 C 13.195312 31.859375 13.332031 31.730469 13.460938 31.597656 Z M 14.515625 31.597656 C 14.5 31.671875 14.453125 31.703125 14.371094 31.695312 C 14.394531 31.625 14.441406 31.59375 14.515625 31.597656 Z M 18.640625 31.597656 C 18.703125 31.664062 18.695312 31.726562 18.617188 31.789062 C 18.609375 31.726562 18.617188 31.664062 18.640625 31.597656 Z M 16.097656 31.835938 C 16.148438 31.78125 16.1875 31.71875 16.21875 31.644531 C 16.261719 31.761719 16.222656 31.828125 16.097656 31.835938 Z M 19.648438 31.742188 C 19.691406 31.777344 19.710938 31.824219 19.699219 31.886719 C 19.648438 31.894531 19.597656 31.886719 19.554688 31.863281 C 19.597656 31.828125 19.628906 31.789062 19.648438 31.742188 Z M 17.539062 31.835938 C 17.675781 31.898438 17.808594 31.898438 17.945312 31.835938 C 17.988281 32 17.964844 32.152344 17.875 32.292969 C 17.34375 32.613281 17.191406 32.492188 17.417969 31.933594 C 17.464844 31.90625 17.507812 31.875 17.539062 31.835938 Z M 24.542969 31.886719 C 24.609375 31.933594 24.632812 32 24.617188 32.078125 C 24.558594 32.027344 24.535156 31.960938 24.542969 31.886719 Z M 20.609375 32.894531 C 20.535156 32.730469 20.511719 32.554688 20.539062 32.367188 C 20.582031 32.539062 20.605469 32.714844 20.609375 32.894531 Z M 22.191406 32.367188 C 22.574219 32.738281 22.664062 33.167969 22.457031 33.660156 C 22.390625 33.222656 22.304688 32.792969 22.191406 32.367188 Z M 15.953125 32.460938 C 16.074219 32.523438 16.082031 32.601562 15.980469 32.703125 C 15.832031 32.636719 15.824219 32.558594 15.953125 32.460938 Z M 12.164062 32.652344 C 12.191406 32.65625 12.207031 32.671875 12.210938 32.703125 C 11.882812 33.652344 11.683594 34.625 11.613281 35.628906 C 11.59375 37.164062 11.5625 38.699219 11.515625 40.234375 C 11.414062 40.328125 11.34375 40.441406 11.300781 40.570312 C 11.332031 40.695312 11.386719 40.808594 11.46875 40.90625 C 11.476562 41.019531 11.484375 41.128906 11.492188 41.242188 C 11.476562 41.710938 11.4375 42.175781 11.371094 42.632812 C 10.902344 42.097656 10.519531 41.507812 10.222656 40.859375 C 10.042969 40.105469 9.867188 39.355469 9.691406 38.605469 C 9.660156 37.929688 9.675781 37.257812 9.742188 36.589844 C 9.773438 36.210938 9.851562 35.839844 9.980469 35.484375 C 10.15625 35.101562 10.332031 34.71875 10.507812 34.332031 C 11.046875 33.757812 11.597656 33.195312 12.164062 32.652344 Z M 18.738281 32.75 C 18.824219 32.960938 18.78125 33.15625 18.617188 33.324219 C 18.582031 33.265625 18.554688 33.203125 18.546875 33.132812 C 18.589844 32.992188 18.652344 32.867188 18.738281 32.75 Z M 19.792969 32.75 C 19.882812 32.894531 19.90625 33.054688 19.867188 33.230469 C 19.835938 33.089844 19.796875 32.953125 19.746094 32.820312 C 19.773438 32.804688 19.789062 32.777344 19.792969 32.75 Z M 17.683594 32.796875 C 17.847656 32.832031 17.855469 32.914062 17.707031 33.039062 C 17.632812 32.957031 17.625 32.878906 17.683594 32.796875 Z M 14.996094 32.988281 C 15.042969 33.007812 15.050781 33.039062 15.019531 33.085938 C 14.847656 33.207031 14.71875 33.367188 14.636719 33.566406 C 14.601562 33.484375 14.601562 33.40625 14.636719 33.324219 C 14.75 33.203125 14.871094 33.089844 14.996094 32.988281 Z M 19.3125 33.179688 C 19.367188 33.1875 19.398438 33.21875 19.410156 33.277344 C 19.445312 33.402344 19.460938 33.53125 19.457031 33.660156 C 19.410156 33.660156 19.363281 33.660156 19.3125 33.660156 C 19.28125 33.496094 19.28125 33.335938 19.3125 33.179688 Z M 25.984375 33.179688 C 26.074219 33.199219 26.148438 33.246094 26.199219 33.324219 C 26.269531 33.53125 26.304688 33.738281 26.296875 33.949219 C 26.144531 33.859375 26.007812 33.746094 25.886719 33.613281 C 25.957031 33.476562 25.988281 33.332031 25.984375 33.179688 Z M 13.890625 33.515625 C 13.929688 33.554688 13.953125 33.601562 13.964844 33.660156 C 13.996094 33.871094 13.996094 34.078125 13.964844 34.285156 C 13.867188 34.222656 13.773438 34.222656 13.675781 34.285156 C 13.691406 34.09375 13.722656 33.902344 13.773438 33.710938 C 13.792969 33.628906 13.835938 33.566406 13.890625 33.515625 Z M 24.640625 33.851562 C 24.546875 33.761719 24.507812 33.648438 24.519531 33.515625 C 24.585938 33.621094 24.628906 33.734375 24.640625 33.851562 Z M 24.640625 33.851562 C 24.707031 33.914062 24.742188 33.996094 24.734375 34.09375 C 24.667969 34.03125 24.636719 33.953125 24.640625 33.851562 Z M 24.785156 34.1875 C 24.980469 34.25 25.171875 34.234375 25.359375 34.140625 C 25.40625 34.164062 25.445312 34.195312 25.480469 34.238281 C 25.480469 34.5625 25.433594 34.882812 25.335938 35.195312 C 25.078125 34.902344 24.894531 34.566406 24.785156 34.1875 Z M 15.859375 34.1875 C 15.878906 34.453125 15.941406 34.707031 16.050781 34.957031 C 15.722656 35.476562 15.601562 35.441406 15.691406 34.859375 C 15.761719 34.640625 15.816406 34.414062 15.859375 34.1875 Z M 24.257812 34.332031 C 24.296875 34.328125 24.332031 34.34375 24.351562 34.382812 C 24.484375 34.734375 24.660156 35.0625 24.878906 35.363281 C 24.707031 35.417969 24.53125 35.433594 24.351562 35.414062 C 24.425781 35.285156 24.472656 35.152344 24.496094 35.003906 C 24.441406 34.769531 24.363281 34.542969 24.257812 34.332031 Z M 18.832031 34.382812 C 18.886719 34.386719 18.917969 34.417969 18.929688 34.476562 C 18.976562 34.636719 18.984375 34.796875 18.953125 34.957031 C 18.933594 34.980469 18.910156 34.996094 18.882812 35.003906 C 18.8125 34.84375 18.761719 34.675781 18.738281 34.5 C 18.765625 34.453125 18.796875 34.414062 18.832031 34.382812 Z M 19.363281 34.382812 C 19.4375 34.417969 19.515625 34.433594 19.601562 34.429688 C 19.714844 34.652344 19.652344 34.777344 19.410156 34.8125 C 19.417969 34.664062 19.398438 34.523438 19.363281 34.382812 Z M 22.527344 34.476562 C 22.589844 34.476562 22.636719 34.5 22.671875 34.550781 C 22.609375 34.582031 22.542969 34.582031 22.480469 34.550781 C 22.507812 34.53125 22.523438 34.507812 22.527344 34.476562 Z M 26.75 34.621094 C 26.808594 34.691406 26.832031 34.769531 26.824219 34.859375 C 26.761719 34.792969 26.738281 34.714844 26.75 34.621094 Z M 17.441406 34.667969 C 17.417969 34.746094 17.371094 34.769531 17.296875 34.742188 C 17.335938 34.691406 17.382812 34.667969 17.441406 34.667969 Z M 20.511719 34.667969 C 20.550781 34.683594 20.582031 34.707031 20.609375 34.742188 C 20.546875 34.765625 20.515625 34.742188 20.511719 34.667969 Z M 18.210938 34.765625 C 18.257812 34.933594 18.257812 35.109375 18.210938 35.292969 C 18.074219 35.289062 18.011719 35.214844 18.019531 35.078125 C 18.050781 34.953125 18.117188 34.851562 18.210938 34.765625 Z M 23.824219 34.8125 C 23.871094 34.808594 23.914062 34.824219 23.945312 34.859375 C 24.039062 35.421875 23.808594 35.636719 23.25 35.507812 C 23.515625 35.28125 23.5 35.074219 23.199219 34.886719 C 23.304688 34.878906 23.40625 34.886719 23.511719 34.910156 C 23.632812 34.910156 23.734375 34.878906 23.824219 34.8125 Z M 14.609375 34.859375 C 14.671875 34.886719 14.714844 34.9375 14.730469 35.003906 C 14.800781 35.292969 14.785156 35.582031 14.683594 35.867188 C 14.566406 36.167969 14.421875 36.457031 14.25 36.730469 C 14.355469 36.339844 14.453125 35.9375 14.539062 35.53125 C 14.550781 35.304688 14.574219 35.082031 14.609375 34.859375 Z M 12.308594 35.003906 C 12.371094 35.253906 12.371094 35.507812 12.308594 35.773438 C 12.300781 35.523438 12.300781 35.265625 12.308594 35.003906 Z M 20.800781 35.773438 C 21.160156 35.597656 21.503906 35.390625 21.832031 35.148438 C 22.089844 35.207031 22.347656 35.191406 22.601562 35.101562 C 22.824219 35.210938 22.816406 35.316406 22.578125 35.414062 C 22.011719 35.660156 21.417969 35.78125 20.800781 35.773438 Z M 16.484375 35.292969 C 16.535156 35.328125 16.542969 35.375 16.507812 35.4375 C 16.421875 35.394531 16.414062 35.347656 16.484375 35.292969 Z M 18.976562 35.675781 C 19.0625 35.691406 19.085938 35.742188 19.050781 35.820312 C 19 35.785156 18.976562 35.738281 18.976562 35.675781 Z M 12.738281 36.492188 C 12.804688 36.484375 12.859375 36.5 12.90625 36.539062 C 12.921875 36.90625 13.011719 37.25 13.171875 37.570312 C 13.21875 37.597656 13.269531 37.621094 13.316406 37.644531 C 13.484375 37.582031 13.628906 37.488281 13.746094 37.355469 C 13.785156 37.371094 13.820312 37.394531 13.84375 37.429688 C 13.628906 37.753906 13.363281 38.035156 13.050781 38.269531 C 12.992188 38.253906 12.941406 38.222656 12.90625 38.171875 C 12.890625 37.867188 12.855469 37.5625 12.8125 37.261719 C 12.734375 37.195312 12.679688 37.113281 12.644531 37.019531 C 12.671875 36.839844 12.703125 36.664062 12.738281 36.492188 Z M 13.363281 36.492188 C 13.457031 36.554688 13.554688 36.621094 13.652344 36.683594 C 13.589844 36.789062 13.519531 36.886719 13.4375 36.972656 C 13.417969 36.808594 13.394531 36.648438 13.363281 36.492188 Z M 16.53125 36.683594 C 16.835938 36.675781 17.140625 36.683594 17.441406 36.707031 C 17.410156 36.757812 17.378906 36.804688 17.347656 36.851562 C 16.96875 36.984375 16.582031 37.015625 16.195312 36.949219 C 16.292969 36.835938 16.40625 36.75 16.53125 36.683594 Z M 15.425781 37.355469 C 15.511719 37.222656 15.535156 37.078125 15.5 36.925781 C 15.464844 36.894531 15.421875 36.871094 15.378906 36.851562 C 15.480469 36.761719 15.59375 36.738281 15.714844 36.78125 C 15.582031 36.914062 15.550781 37.066406 15.617188 37.234375 C 15.574219 37.308594 15.507812 37.347656 15.425781 37.355469 Z M 27.277344 36.78125 C 27.304688 36.78125 27.320312 36.800781 27.328125 36.828125 C 27.214844 36.929688 27.105469 36.9375 26.992188 36.851562 C 27.097656 36.84375 27.191406 36.820312 27.277344 36.78125 Z M 12.019531 37.019531 C 12.105469 37.039062 12.152344 37.097656 12.164062 37.1875 C 12.117188 37.433594 12.078125 37.683594 12.042969 37.933594 C 12.019531 37.628906 12.011719 37.324219 12.019531 37.019531 Z M 25.40625 37.164062 C 25.65625 37.148438 25.898438 37.1875 26.128906 37.285156 C 26.09375 37.300781 26.0625 37.316406 26.03125 37.332031 C 24.90625 37.5625 23.785156 37.820312 22.671875 38.101562 C 21.765625 38.304688 20.855469 38.464844 19.9375 38.578125 C 20.617188 38.347656 21.304688 38.140625 22 37.957031 C 23.140625 37.6875 24.277344 37.425781 25.40625 37.164062 Z M 20.035156 37.261719 C 20.128906 37.253906 20.226562 37.261719 20.320312 37.285156 C 19.828125 37.507812 19.316406 37.683594 18.785156 37.8125 C 18.480469 37.84375 18.179688 37.84375 17.875 37.8125 C 17.722656 37.808594 17.578125 37.773438 17.441406 37.714844 C 17.699219 37.589844 17.953125 37.460938 18.210938 37.332031 C 18.515625 37.304688 18.820312 37.3125 19.121094 37.355469 C 19.433594 37.335938 19.738281 37.304688 20.035156 37.261719 Z M 15.953125 37.402344 C 16.199219 37.417969 16.207031 37.464844 15.980469 37.546875 C 15.957031 37.503906 15.949219 37.453125 15.953125 37.402344 Z M 27.566406 37.546875 C 27.613281 37.542969 27.65625 37.558594 27.6875 37.597656 C 27.707031 37.691406 27.75 37.78125 27.808594 37.859375 C 27.730469 37.910156 27.660156 37.964844 27.589844 38.027344 C 27.5625 37.882812 27.488281 37.761719 27.375 37.667969 C 27.441406 37.625 27.503906 37.582031 27.566406 37.546875 Z M 15.042969 37.597656 C 14.871094 37.746094 14.679688 37.875 14.46875 37.980469 C 14.453125 37.964844 14.433594 37.949219 14.417969 37.933594 C 14.578125 37.734375 14.785156 37.621094 15.042969 37.597656 Z M 26.464844 38.027344 C 26.5625 38.019531 26.65625 38.027344 26.75 38.050781 C 25.320312 38.722656 23.832031 39.21875 22.289062 39.539062 C 23.691406 39.046875 25.082031 38.542969 26.464844 38.027344 Z M 13.027344 39.277344 C 13.175781 39.128906 13.351562 39.015625 13.554688 38.941406 C 13.59375 38.953125 13.625 38.976562 13.652344 39.011719 C 13.453125 39.125 13.246094 39.214844 13.027344 39.277344 Z M 21.90625 39.035156 C 21.339844 39.25 20.761719 39.449219 20.175781 39.636719 C 20.046875 39.675781 19.984375 39.765625 19.984375 39.898438 C 19.472656 39.90625 18.960938 39.898438 18.449219 39.875 C 18.53125 39.753906 18.5625 39.617188 18.546875 39.46875 C 19.675781 39.402344 20.796875 39.257812 21.90625 39.035156 Z M 13.125 39.945312 C 13.164062 40.003906 13.214844 40.058594 13.269531 40.113281 C 13.417969 40.113281 13.546875 40.164062 13.652344 40.257812 C 13.378906 40.253906 13.105469 40.222656 12.835938 40.164062 C 12.945312 40.101562 13.039062 40.03125 13.125 39.945312 Z M 14.5625 40.476562 C 16.683594 40.417969 18.808594 40.410156 20.945312 40.449219 C 19.464844 40.652344 17.976562 40.714844 16.484375 40.644531 C 15.851562 40.496094 15.210938 40.4375 14.5625 40.476562 Z M 13.460938 40.859375 C 13.84375 40.851562 14.226562 40.859375 14.609375 40.882812 C 14.703125 40.890625 14.78125 40.917969 14.851562 40.953125 C 14.378906 40.960938 13.914062 40.929688 13.460938 40.859375 Z M 13.460938 40.859375 "/>
</g>
<mask id="mask1">
  <g filter="url(#alpha)">
<rect x="0" y="0" width="50" height="50" style="fill:rgb(0%,0%,0%);fill-opacity:0.847059;stroke:none;"/>
  </g>
</mask>
<clipPath id="clip2">
  <rect width="50" height="50"/>
</clipPath>
<g id="surface9" clip-path="url(#clip2)">
<path style=" stroke:none;fill-rule:evenodd;fill:rgb(64.313725%,22.352941%,17.647059%);fill-opacity:1;" d="M 20.371094 13.746094 C 19.886719 13.179688 19.507812 12.539062 19.242188 11.828125 C 19.050781 11.589844 18.84375 11.367188 18.617188 11.15625 C 18.320312 10.628906 18.003906 10.117188 17.660156 9.621094 C 17.023438 8.945312 16.265625 8.480469 15.378906 8.230469 C 15.601562 8.171875 15.824219 8.148438 16.050781 8.15625 C 16.800781 8.734375 17.542969 9.320312 18.28125 9.910156 C 18.992188 11.183594 19.6875 12.464844 20.371094 13.746094 Z M 20.371094 13.746094 "/>
</g>
<mask id="mask2">
  <g filter="url(#alpha)">
<rect x="0" y="0" width="50" height="50" style="fill:rgb(0%,0%,0%);fill-opacity:0.980392;stroke:none;"/>
  </g>
</mask>
<clipPath id="clip3">
  <rect width="50" height="50"/>
</clipPath>
<g id="surface12" clip-path="url(#clip3)">
<path style=" stroke:none;fill-rule:evenodd;fill:rgb(66.27451%,23.137255%,18.039216%);fill-opacity:1;" d="M 13.605469 8.902344 C 14.179688 8.941406 14.65625 9.171875 15.042969 9.597656 C 14.03125 9.851562 13.390625 10.480469 13.125 11.492188 C 12.75 12.089844 12.617188 12.746094 12.714844 13.460938 C 12.75 13.773438 12.804688 14.078125 12.882812 14.371094 C 12.863281 14.855469 12.902344 15.335938 13.003906 15.8125 C 13.082031 16.082031 13.234375 16.296875 13.460938 16.457031 C 13.523438 16.480469 13.585938 16.492188 13.652344 16.484375 C 13.652344 16.515625 13.667969 16.53125 13.699219 16.53125 C 13.679688 16.660156 13.613281 16.765625 13.507812 16.84375 C 13.042969 17.121094 12.59375 17.425781 12.164062 17.753906 C 12.117188 17.777344 12.070312 17.785156 12.019531 17.777344 C 11.5625 17.742188 11.113281 17.671875 10.675781 17.5625 C 11.230469 15.390625 11.863281 13.238281 12.570312 11.109375 C 12.828125 10.328125 13.171875 9.589844 13.605469 8.902344 Z M 13.605469 8.902344 "/>
</g>
<mask id="mask3">
  <g filter="url(#alpha)">
<rect x="0" y="0" width="50" height="50" style="fill:rgb(0%,0%,0%);fill-opacity:0.996078;stroke:none;"/>
  </g>
</mask>
<clipPath id="clip4">
  <rect width="50" height="50"/>
</clipPath>
<g id="surface15" clip-path="url(#clip4)">
<path style=" stroke:none;fill-rule:evenodd;fill:rgb(65.882353%,22.745098%,17.647059%);fill-opacity:1;" d="M 18.402344 16.433594 C 18.320312 16.433594 18.242188 16.433594 18.164062 16.433594 C 18.15625 16.40625 18.140625 16.382812 18.113281 16.363281 C 18.328125 15.929688 18.480469 15.472656 18.570312 14.996094 C 18.667969 14.214844 18.703125 13.429688 18.667969 12.644531 C 18.589844 12.207031 18.460938 11.789062 18.28125 11.394531 C 18.488281 11.636719 18.699219 11.875 18.90625 12.117188 C 19.367188 13.242188 20.046875 14.210938 20.945312 15.019531 C 20.558594 15.695312 19.996094 16.160156 19.265625 16.410156 C 18.976562 16.433594 18.691406 16.441406 18.402344 16.433594 Z M 18.402344 16.433594 "/>
</g>
<mask id="mask4">
  <g filter="url(#alpha)">
<rect x="0" y="0" width="50" height="50" style="fill:rgb(0%,0%,0%);fill-opacity:0.858824;stroke:none;"/>
  </g>
</mask>
<clipPath id="clip5">
  <rect width="50" height="50"/>
</clipPath>
<g id="surface18" clip-path="url(#clip5)">
<path style=" stroke:none;fill-rule:evenodd;fill:rgb(64.313725%,22.745098%,18.039216%);fill-opacity:1;" d="M 14.035156 17.203125 C 14.066406 17.246094 14.082031 17.292969 14.082031 17.347656 C 14.082031 17.363281 14.082031 17.378906 14.082031 17.394531 C 13.792969 17.375 13.777344 17.3125 14.035156 17.203125 Z M 14.035156 17.203125 "/>
</g>
<mask id="mask5">
  <g filter="url(#alpha)">
<rect x="0" y="0" width="50" height="50" style="fill:rgb(0%,0%,0%);fill-opacity:0.929412;stroke:none;"/>
  </g>
</mask>
<clipPath id="clip6">
  <rect width="50" height="50"/>
</clipPath>
<g id="surface21" clip-path="url(#clip6)">
<path style=" stroke:none;fill-rule:evenodd;fill:rgb(90.588235%,89.803922%,89.803922%);fill-opacity:1;" d="M 14.132812 17.441406 C 14.140625 17.394531 14.125 17.363281 14.082031 17.347656 C 14.082031 17.292969 14.066406 17.246094 14.035156 17.203125 C 14.070312 17.152344 14.121094 17.144531 14.179688 17.179688 C 14.285156 17.28125 14.386719 17.386719 14.492188 17.492188 C 14.523438 17.539062 14.523438 17.585938 14.492188 17.632812 C 14.359375 17.589844 14.238281 17.523438 14.132812 17.441406 Z M 14.132812 17.441406 "/>
</g>
<mask id="mask6">
  <g filter="url(#alpha)">
<rect x="0" y="0" width="50" height="50" style="fill:rgb(0%,0%,0%);fill-opacity:0.996078;stroke:none;"/>
  </g>
</mask>
<clipPath id="clip7">
  <rect width="50" height="50"/>
</clipPath>
<g id="surface24" clip-path="url(#clip7)">
<path style=" stroke:none;fill-rule:evenodd;fill:rgb(99.607843%,99.607843%,99.607843%);fill-opacity:1;" d="M 12.210938 18.832031 C 12.242188 18.832031 12.261719 18.851562 12.261719 18.882812 C 12.355469 18.914062 12.453125 18.945312 12.546875 18.976562 C 12.578125 18.976562 12.597656 18.992188 12.597656 19.027344 C 12.613281 19.027344 12.628906 19.027344 12.644531 19.027344 C 12.675781 19.027344 12.691406 19.042969 12.691406 19.074219 C 12.707031 19.074219 12.722656 19.074219 12.738281 19.074219 C 12.757812 19.113281 12.789062 19.128906 12.835938 19.121094 C 12.851562 19.121094 12.867188 19.121094 12.882812 19.121094 C 12.898438 19.160156 12.933594 19.179688 12.980469 19.167969 C 13.460938 19.441406 13.9375 19.714844 14.417969 19.984375 C 14.753906 20.457031 15.082031 20.9375 15.402344 21.425781 C 15.84375 22.183594 16.097656 23 16.171875 23.871094 C 16.203125 24.878906 16.203125 25.886719 16.171875 26.894531 C 16.070312 27.171875 15.960938 27.445312 15.835938 27.710938 C 15.542969 28.085938 15.289062 28.488281 15.066406 28.910156 C 14.648438 29.242188 14.289062 29.625 13.988281 30.0625 C 13.957031 30.0625 13.941406 30.078125 13.941406 30.109375 C 13.90625 30.109375 13.890625 30.125 13.890625 30.160156 C 12.90625 30.957031 11.867188 31.683594 10.773438 32.339844 C 9.996094 32.957031 9.597656 33.765625 9.574219 34.765625 C 9.53125 34.78125 9.515625 34.8125 9.523438 34.859375 C 9.257812 35.589844 9.089844 36.339844 9.019531 37.117188 C 8.894531 38.257812 9.039062 39.363281 9.453125 40.425781 C 9.871094 41.28125 10.304688 42.128906 10.75 42.96875 C 10.957031 43.28125 11.207031 43.554688 11.492188 43.785156 C 10.800781 43.835938 10.113281 43.917969 9.429688 44.027344 C 7.113281 43.707031 4.808594 43.339844 2.519531 42.921875 C 2.566406 42.921875 2.613281 42.921875 2.664062 42.921875 C 2.648438 42.777344 2.625 42.632812 2.589844 42.492188 C 2.082031 41.125 1.605469 39.75 1.152344 38.363281 C 0.925781 37.148438 0.933594 35.929688 1.175781 34.71875 C 1.21875 34.683594 1.234375 34.636719 1.222656 34.574219 C 1.222656 34.558594 1.222656 34.539062 1.222656 34.523438 C 1.585938 33.148438 2.019531 31.789062 2.519531 30.445312 C 2.5625 30.414062 2.578125 30.363281 2.566406 30.300781 C 2.605469 30.285156 2.625 30.253906 2.613281 30.207031 C 2.683594 30.144531 2.714844 30.066406 2.710938 29.964844 C 2.75 29.949219 2.765625 29.917969 2.757812 29.871094 C 2.800781 29.835938 2.820312 29.789062 2.808594 29.726562 C 2.847656 29.710938 2.863281 29.679688 2.855469 29.628906 C 2.921875 29.570312 2.957031 29.488281 2.949219 29.390625 C 3.054688 29.265625 3.117188 29.121094 3.144531 28.957031 C 3.183594 28.941406 3.199219 28.910156 3.191406 28.863281 C 3.222656 28.863281 3.238281 28.847656 3.238281 28.816406 C 3.335938 28.59375 3.453125 28.382812 3.597656 28.191406 C 5.65625 25.542969 7.765625 22.933594 9.933594 20.371094 C 10.496094 19.765625 11.097656 19.207031 11.730469 18.691406 C 11.882812 18.769531 12.039062 18.816406 12.210938 18.832031 Z M 12.210938 18.832031 "/>
</g>
<mask id="mask7">
  <g filter="url(#alpha)">
<rect x="0" y="0" width="50" height="50" style="fill:rgb(0%,0%,0%);fill-opacity:0.87451;stroke:none;"/>
  </g>
</mask>
<clipPath id="clip8">
  <rect width="50" height="50"/>
</clipPath>
<g id="surface27" clip-path="url(#clip8)">
<path style=" stroke:none;fill-rule:evenodd;fill:rgb(97.254902%,97.254902%,97.254902%);fill-opacity:1;" d="M 7.703125 21.855469 C 7.546875 22.214844 7.378906 22.566406 7.199219 22.914062 C 6.691406 23.664062 6.09375 24.335938 5.398438 24.929688 C 6.074219 23.835938 6.839844 22.8125 7.703125 21.855469 Z M 7.703125 21.855469 "/>
</g>
<mask id="mask8">
  <g filter="url(#alpha)">
<rect x="0" y="0" width="50" height="50" style="fill:rgb(0%,0%,0%);fill-opacity:0.988235;stroke:none;"/>
  </g>
</mask>
<clipPath id="clip9">
  <rect width="50" height="50"/>
</clipPath>
<g id="surface30" clip-path="url(#clip9)">
<path style=" stroke:none;fill-rule:evenodd;fill:rgb(99.215686%,99.215686%,99.215686%);fill-opacity:1;" d="M 28.910156 42.105469 C 27.726562 42.144531 26.542969 42.128906 25.359375 42.058594 C 24.3125 42.085938 23.273438 42.191406 22.242188 42.371094 C 20.5 42.699219 18.757812 43.003906 17.011719 43.28125 C 16.054688 43.40625 15.09375 43.46875 14.132812 43.472656 C 13.476562 43.671875 12.804688 43.761719 12.117188 43.738281 C 12.039062 43.605469 11.949219 43.476562 11.851562 43.355469 C 11.90625 42.472656 12.003906 41.59375 12.140625 40.714844 C 12.191406 40.605469 12.265625 40.589844 12.355469 40.667969 C 12.386719 40.667969 12.421875 40.667969 12.453125 40.667969 C 12.46875 40.707031 12.5 40.722656 12.546875 40.714844 C 12.578125 40.714844 12.613281 40.714844 12.644531 40.714844 C 12.675781 40.714844 12.691406 40.730469 12.691406 40.761719 C 12.945312 40.816406 13.199219 40.847656 13.460938 40.859375 C 13.914062 40.929688 14.378906 40.960938 14.851562 40.953125 C 15.300781 40.976562 15.75 41.015625 16.195312 41.074219 C 16.777344 41.222656 17.371094 41.335938 17.96875 41.410156 C 19.265625 41.472656 20.546875 41.359375 21.808594 41.074219 C 22.683594 40.777344 23.5625 40.488281 24.449219 40.210938 C 25.171875 39.832031 25.90625 39.480469 26.65625 39.15625 C 27.109375 38.996094 27.574219 38.878906 28.046875 38.796875 C 28.296875 39.910156 28.582031 41.011719 28.910156 42.105469 Z M 13.460938 40.859375 C 13.84375 40.851562 14.226562 40.859375 14.609375 40.882812 C 14.703125 40.890625 14.78125 40.917969 14.851562 40.953125 C 14.378906 40.960938 13.914062 40.929688 13.460938 40.859375 Z M 13.460938 40.859375 "/>
</g>
<mask id="mask9">
  <g filter="url(#alpha)">
<rect x="0" y="0" width="50" height="50" style="fill:rgb(0%,0%,0%);fill-opacity:0.827451;stroke:none;"/>
  </g>
</mask>
<clipPath id="clip10">
  <rect width="50" height="50"/>
</clipPath>
<g id="surface33" clip-path="url(#clip10)">
<path style=" stroke:none;fill-rule:evenodd;fill:rgb(94.901961%,94.901961%,94.901961%);fill-opacity:1;" d="M 0.695312 39.898438 C 1.046875 40.945312 1.460938 41.972656 1.945312 42.96875 C 1.855469 42.996094 1.777344 42.996094 1.703125 42.96875 C 1.195312 42.003906 0.859375 40.980469 0.695312 39.898438 Z M 0.695312 39.898438 "/>
</g>
</defs>
<g id="surface1">
<use xlink:href="#surface6" mask="url(#mask0)"/>
<use xlink:href="#surface9" mask="url(#mask1)"/>
<path style=" stroke:none;fill-rule:evenodd;fill:rgb(64.705882%,22.352941%,17.647059%);fill-opacity:1;" d="M 14.851562 8.660156 C 16 8.710938 16.902344 9.207031 17.5625 10.148438 C 17.777344 10.46875 17.953125 10.804688 18.089844 11.15625 C 17.761719 10.683594 17.351562 10.289062 16.867188 9.980469 C 16.390625 9.769531 15.910156 9.578125 15.425781 9.40625 C 15.257812 9.21875 15.074219 9.050781 14.875 8.902344 C 14.851562 8.824219 14.84375 8.742188 14.851562 8.660156 Z M 14.851562 8.660156 "/>
<use xlink:href="#surface12" mask="url(#mask2)"/>
<path style=" stroke:none;fill-rule:evenodd;fill:rgb(98.823529%,98.823529%,98.823529%);fill-opacity:1;" d="M 18.257812 13.074219 C 18.246094 13.683594 18.222656 14.292969 18.1875 14.898438 C 18.035156 15.441406 17.851562 15.96875 17.632812 16.484375 C 17.59375 16.5 17.578125 16.53125 17.585938 16.578125 C 17.546875 16.59375 17.53125 16.628906 17.539062 16.675781 C 17.46875 16.71875 17.417969 16.785156 17.394531 16.867188 C 17.316406 16.925781 17.261719 17.007812 17.226562 17.105469 C 16.246094 16.425781 15.183594 16.203125 14.035156 16.433594 C 14.089844 16.339844 14.089844 16.242188 14.035156 16.148438 C 13.6875 16.175781 13.488281 16.015625 13.4375 15.667969 C 13.257812 14.304688 13.289062 12.945312 13.53125 11.589844 C 13.621094 11.167969 13.820312 10.816406 14.132812 10.53125 C 14.769531 10.226562 15.441406 10.121094 16.148438 10.222656 C 16.488281 10.304688 16.785156 10.472656 17.035156 10.722656 C 17.617188 11.414062 18.027344 12.195312 18.257812 13.074219 Z M 18.257812 13.074219 "/>
<path style=" stroke:none;fill-rule:evenodd;fill:rgb(63.921569%,24.313725%,19.607843%);fill-opacity:1;" d="M 18.257812 13.074219 C 18.027344 12.195312 17.617188 11.414062 17.035156 10.722656 C 16.785156 10.472656 16.488281 10.304688 16.148438 10.222656 C 15.441406 10.121094 14.769531 10.226562 14.132812 10.53125 C 14.460938 10.167969 14.875 9.972656 15.378906 9.957031 C 16.800781 10.152344 17.734375 10.9375 18.1875 12.308594 C 18.277344 12.566406 18.304688 12.824219 18.257812 13.074219 Z M 18.257812 13.074219 "/>
<use xlink:href="#surface15" mask="url(#mask3)"/>
<path style=" stroke:none;fill-rule:evenodd;fill:rgb(96.078431%,92.941176%,92.54902%);fill-opacity:1;" d="M 13.125 11.492188 C 12.921875 12.441406 12.84375 13.398438 12.882812 14.371094 C 12.804688 14.078125 12.75 13.773438 12.714844 13.460938 C 12.617188 12.746094 12.75 12.089844 13.125 11.492188 Z M 13.125 11.492188 "/>
<path style=" stroke:none;fill-rule:evenodd;fill:rgb(11.764706%,11.764706%,11.372549%);fill-opacity:1;" d="M 16.242188 11.972656 C 16.367188 11.953125 16.46875 11.984375 16.554688 12.066406 C 16.710938 12.703125 16.902344 13.328125 17.128906 13.941406 C 17.167969 14.082031 17.160156 14.214844 17.105469 14.347656 C 16.984375 14.390625 16.882812 14.367188 16.792969 14.277344 C 16.539062 13.601562 16.339844 12.914062 16.195312 12.210938 C 16.199219 12.128906 16.214844 12.046875 16.242188 11.972656 Z M 16.242188 11.972656 "/>
<path style=" stroke:none;fill-rule:evenodd;fill:rgb(12.54902%,12.54902%,12.156863%);fill-opacity:1;" d="M 14.277344 12.308594 C 14.710938 12.390625 15.128906 12.542969 15.523438 12.765625 C 15.714844 12.90625 15.714844 13.050781 15.523438 13.195312 C 15.363281 13.210938 15.203125 13.226562 15.042969 13.242188 C 14.921875 13.269531 14.824219 13.335938 14.753906 13.4375 C 14.53125 13.460938 14.441406 13.355469 14.492188 13.125 C 14.570312 13.035156 14.660156 12.953125 14.753906 12.882812 C 14.578125 12.816406 14.410156 12.738281 14.25 12.644531 C 14.21875 12.527344 14.226562 12.414062 14.277344 12.308594 Z M 14.277344 12.308594 "/>
<path style=" stroke:none;fill-rule:evenodd;fill:rgb(12.54902%,12.54902%,12.156863%);fill-opacity:1;" d="M 17.394531 12.546875 C 17.492188 12.539062 17.585938 12.546875 17.683594 12.570312 C 17.746094 12.609375 17.777344 12.667969 17.777344 12.738281 C 17.722656 12.847656 17.671875 12.957031 17.632812 13.074219 C 17.386719 13.234375 17.242188 13.164062 17.203125 12.859375 C 17.234375 12.738281 17.300781 12.632812 17.394531 12.546875 Z M 17.394531 12.546875 "/>
<path style=" stroke:none;fill-rule:evenodd;fill:rgb(12.54902%,12.54902%,12.156863%);fill-opacity:1;" d="M 15.378906 14.804688 C 15.429688 14.796875 15.476562 14.804688 15.523438 14.828125 C 15.699219 15.085938 15.925781 15.292969 16.195312 15.449219 C 16.375 15.488281 16.550781 15.46875 16.722656 15.402344 C 16.808594 15.265625 16.921875 15.164062 17.058594 15.089844 C 17.234375 15.136719 17.289062 15.25 17.226562 15.425781 C 17.105469 15.675781 16.90625 15.828125 16.625 15.882812 C 16.160156 15.925781 15.769531 15.773438 15.449219 15.425781 C 15.359375 15.300781 15.289062 15.164062 15.234375 15.019531 C 15.273438 14.941406 15.320312 14.867188 15.378906 14.804688 Z M 15.378906 14.804688 "/>
<path style=" stroke:none;fill-rule:evenodd;fill:rgb(45.882353%,45.490196%,45.490196%);fill-opacity:1;" d="M 14.035156 16.433594 C 14.03125 16.464844 14.015625 16.488281 13.988281 16.507812 C 13.894531 16.53125 13.796875 16.539062 13.699219 16.53125 C 13.667969 16.53125 13.652344 16.515625 13.652344 16.484375 C 13.78125 16.488281 13.910156 16.472656 14.035156 16.433594 Z M 14.035156 16.433594 "/>
<use xlink:href="#surface18" mask="url(#mask4)"/>
<use xlink:href="#surface21" mask="url(#mask5)"/>
<path style=" stroke:none;fill-rule:evenodd;fill:rgb(78.039216%,78.039216%,78.039216%);fill-opacity:1;" d="M 14.945312 17.347656 C 15.0625 17.289062 15.15625 17.324219 15.234375 17.441406 C 15.21875 17.457031 15.203125 17.472656 15.1875 17.492188 C 15.113281 17.429688 15.035156 17.382812 14.945312 17.347656 Z M 14.945312 17.347656 "/>
<path style=" stroke:none;fill-rule:evenodd;fill:rgb(63.921569%,63.921569%,63.921569%);fill-opacity:1;" d="M 15.425781 17.683594 C 15.429688 17.65625 15.445312 17.640625 15.476562 17.632812 C 15.691406 17.734375 15.898438 17.847656 16.097656 17.96875 C 16.082031 17.984375 16.066406 18.003906 16.050781 18.019531 C 15.847656 17.894531 15.640625 17.78125 15.425781 17.683594 Z M 15.425781 17.683594 "/>
<use xlink:href="#surface24" mask="url(#mask6)"/>
<path style=" stroke:none;fill-rule:evenodd;fill:rgb(42.352941%,42.352941%,42.352941%);fill-opacity:1;" d="M 8.660156 21.136719 C 8.6875 21.140625 8.703125 21.15625 8.710938 21.183594 C 8.488281 21.429688 8.472656 21.414062 8.660156 21.136719 Z M 8.660156 21.136719 "/>
<use xlink:href="#surface27" mask="url(#mask7)"/>
<path style=" stroke:none;fill-rule:evenodd;fill:rgb(51.764706%,51.764706%,51.764706%);fill-opacity:1;" d="M 17.347656 24.832031 C 17.386719 24.824219 17.421875 24.839844 17.441406 24.878906 C 17.410156 24.972656 17.386719 25.070312 17.371094 25.167969 C 17.347656 25.058594 17.339844 24.945312 17.347656 24.832031 Z M 17.347656 24.832031 "/>
<path style=" stroke:none;fill-rule:evenodd;fill:rgb(80.784314%,80.784314%,80.784314%);fill-opacity:1;" d="M 27.902344 38.316406 C 27.957031 38.378906 27.941406 38.433594 27.855469 38.484375 C 27.792969 38.515625 27.726562 38.515625 27.664062 38.484375 C 27.75 38.433594 27.832031 38.378906 27.902344 38.316406 Z M 27.902344 38.316406 "/>
<use xlink:href="#surface30" mask="url(#mask8)"/>
<path style=" stroke:none;fill-rule:evenodd;fill:rgb(79.607843%,79.607843%,79.607843%);fill-opacity:1;" d="M 0.984375 39.179688 C 1.25 39.792969 1.433594 40.433594 1.535156 41.097656 C 1.28125 40.480469 1.097656 39.839844 0.984375 39.179688 Z M 0.984375 39.179688 "/>
<use xlink:href="#surface33" mask="url(#mask9)"/>
</g>
</svg>
