<?xml version="1.0" encoding="UTF-8"?>
<svg xmlns="http://www.w3.org/2000/svg" xmlns:xlink="http://www.w3.org/1999/xlink" width="50pt" height="50pt" viewBox="0 0 50 50" version="1.1">
<defs>
<filter id="alpha" filterUnits="objectBoundingBox" x="0%" y="0%" width="100%" height="100%">
  <feColorMatrix type="matrix" in="SourceGraphic" values="0 0 0 0 1 0 0 0 0 1 0 0 0 0 1 0 0 0 1 0"/>
</filter>
<mask id="mask0">
  <g filter="url(#alpha)">
<rect x="0" y="0" width="50" height="50" style="fill:rgb(0%,0%,0%);fill-opacity:0.984314;stroke:none;"/>
  </g>
</mask>
<clipPath id="clip1">
  <rect width="50" height="50"/>
</clipPath>
<g id="surface6" clip-path="url(#clip1)">
<path style=" stroke:none;fill-rule:evenodd;fill:rgb(0.392157%,0.392157%,0.392157%);fill-opacity:1;" d="M 23.945312 16.671875 C 23.96875 17.183594 23.917969 17.6875 23.800781 18.183594 C 23.808594 18.234375 23.792969 18.28125 23.75 18.316406 C 23.429688 18.496094 23.085938 18.558594 22.71875 18.507812 C 22.261719 18.414062 21.820312 18.273438 21.398438 18.074219 C 20.957031 17.890625 20.496094 17.804688 20.019531 17.824219 C 19.550781 17.84375 19.082031 17.847656 18.613281 17.835938 C 18 17.789062 17.507812 17.519531 17.140625 17.03125 C 16.8125 16.515625 16.492188 15.996094 16.179688 15.46875 C 15.902344 15.140625 15.613281 14.820312 15.3125 14.511719 C 15.023438 14.183594 14.820312 13.808594 14.703125 13.382812 C 14.4375 13.136719 14.28125 12.832031 14.234375 12.46875 C 14.074219 11.046875 14.277344 9.679688 14.835938 8.367188 C 15.601562 6.722656 16.601562 5.242188 17.835938 3.925781 C 18.808594 2.933594 19.9375 2.175781 21.230469 1.65625 C 22.144531 1.300781 23.089844 1.179688 24.0625 1.296875 C 24.589844 1.414062 25.109375 1.550781 25.625 1.703125 C 25.808594 1.738281 25.992188 1.769531 26.175781 1.800781 C 27.804688 1.859375 29.429688 1.96875 31.050781 2.136719 C 32.359375 2.28125 33.582031 2.683594 34.722656 3.335938 C 35.007812 3.527344 35.28125 3.734375 35.539062 3.960938 C 36.113281 4.53125 36.699219 5.089844 37.289062 5.640625 C 37.601562 5.960938 37.886719 6.300781 38.140625 6.660156 C 38.511719 7.386719 38.925781 8.085938 39.390625 8.75 C 39.640625 9.207031 39.84375 9.6875 39.992188 10.191406 C 40.140625 10.726562 40.292969 11.261719 40.445312 11.796875 C 40.691406 12.621094 40.8125 13.460938 40.820312 14.316406 C 40.792969 15.109375 40.757812 15.902344 40.710938 16.695312 C 40.648438 17.410156 40.480469 18.097656 40.207031 18.757812 C 39.675781 19.808594 39.140625 20.859375 38.597656 21.902344 C 38.257812 22.539062 37.820312 23.097656 37.277344 23.582031 C 36.929688 23.972656 36.683594 24.421875 36.535156 24.929688 C 36.425781 25.160156 36.304688 25.382812 36.171875 25.601562 C 35.566406 26.472656 34.949219 27.335938 34.324219 28.191406 C 34.046875 28.613281 33.796875 29.054688 33.582031 29.511719 C 33.375 30.019531 33.414062 30.507812 33.703125 30.976562 C 33.917969 31.296875 34.140625 31.609375 34.375 31.914062 C 34.53125 32.109375 34.632812 32.335938 34.671875 32.585938 C 34.640625 32.851562 34.503906 33.050781 34.265625 33.171875 C 34.109375 33.257812 33.949219 33.332031 33.785156 33.390625 C 32.507812 33.839844 31.210938 34.222656 29.898438 34.542969 C 29.476562 34.757812 29.027344 34.851562 28.550781 34.816406 C 28.085938 34.804688 27.625 34.777344 27.160156 34.734375 C 26.945312 34.71875 26.726562 34.71875 26.511719 34.734375 C 25.554688 34.828125 24.597656 34.929688 23.644531 35.035156 C 22.988281 35.074219 22.589844 34.777344 22.445312 34.144531 C 22.421875 33.976562 22.410156 33.808594 22.40625 33.640625 C 22.429688 32.082031 22.433594 30.519531 22.417969 28.960938 C 22.398438 27.976562 22.660156 27.082031 23.210938 26.273438 C 23.386719 26.027344 23.570312 25.785156 23.765625 25.550781 C 24.269531 25.015625 24.773438 24.480469 25.277344 23.945312 C 26.5 22.515625 27.5 20.941406 28.277344 19.214844 C 29.121094 17.277344 29.28125 15.285156 28.757812 13.238281 C 28.699219 13.050781 28.632812 12.863281 28.550781 12.6875 C 28.089844 12.179688 27.59375 11.710938 27.0625 11.28125 C 26.675781 10.984375 26.246094 10.777344 25.769531 10.65625 C 24.867188 10.511719 24.214844 10.84375 23.8125 11.652344 C 23.5625 12.347656 23.484375 13.058594 23.570312 13.789062 C 23.664062 14.503906 23.765625 15.214844 23.882812 15.925781 C 23.921875 16.171875 23.941406 16.421875 23.945312 16.671875 Z M 20.558594 2.675781 C 20.546875 2.710938 20.523438 2.726562 20.488281 2.722656 C 20.5 2.691406 20.523438 2.675781 20.558594 2.675781 Z M 20.4375 2.75 C 20.410156 2.789062 20.371094 2.8125 20.320312 2.820312 C 20.347656 2.777344 20.386719 2.753906 20.4375 2.75 Z M 20.320312 2.820312 C 20.269531 2.878906 20.203125 2.917969 20.128906 2.941406 C 20.179688 2.882812 20.242188 2.839844 20.320312 2.820312 Z M 20.128906 2.941406 C 20.117188 2.972656 20.09375 2.988281 20.054688 2.988281 C 20.066406 2.953125 20.089844 2.9375 20.128906 2.941406 Z M 20.054688 2.988281 C 20.042969 3.023438 20.019531 3.039062 19.984375 3.035156 C 19.996094 3.003906 20.019531 2.988281 20.054688 2.988281 Z M 19.984375 3.035156 C 19.972656 3.070312 19.949219 3.085938 19.910156 3.085938 C 19.921875 3.050781 19.945312 3.035156 19.984375 3.035156 Z M 19.910156 3.085938 C 19.808594 3.175781 19.695312 3.257812 19.574219 3.324219 C 19.671875 3.222656 19.78125 3.140625 19.910156 3.085938 Z M 19.574219 3.324219 C 19.558594 3.367188 19.523438 3.390625 19.480469 3.398438 C 19.496094 3.355469 19.53125 3.332031 19.574219 3.324219 Z M 19.480469 3.398438 C 19.460938 3.4375 19.429688 3.460938 19.382812 3.46875 C 19.402344 3.425781 19.433594 3.402344 19.480469 3.398438 Z M 19.359375 3.492188 C 19.339844 3.535156 19.308594 3.558594 19.261719 3.566406 C 19.28125 3.523438 19.3125 3.5 19.359375 3.492188 Z M 19.238281 3.589844 C 19.222656 3.632812 19.1875 3.65625 19.144531 3.660156 C 19.160156 3.617188 19.195312 3.59375 19.238281 3.589844 Z M 30.6875 4.042969 C 31.074219 4.175781 31.402344 4.390625 31.671875 4.691406 C 31.347656 4.46875 31.019531 4.253906 30.6875 4.042969 Z M 25.914062 7.382812 C 26.117188 7.464844 26.277344 7.601562 26.390625 7.789062 C 26.230469 7.652344 26.070312 7.515625 25.914062 7.382812 Z M 33.738281 7.597656 C 34.3125 8.382812 34.738281 9.246094 35.007812 10.191406 C 34.613281 9.3125 34.1875 8.449219 33.738281 7.597656 Z M 25.433594 24.640625 C 24.890625 25.308594 24.324219 25.957031 23.726562 26.585938 C 23.90625 26.296875 24.113281 26.023438 24.339844 25.769531 C 24.699219 25.386719 25.066406 25.011719 25.433594 24.640625 Z M 23.726562 26.585938 C 23.730469 26.621094 23.714844 26.644531 23.679688 26.65625 C 23.679688 26.621094 23.695312 26.59375 23.726562 26.585938 Z M 29.464844 28.839844 C 29.222656 28.988281 28.980469 29.144531 28.746094 29.308594 C 28.597656 29.429688 28.460938 29.5625 28.335938 29.703125 C 28.429688 29.296875 28.679688 29.027344 29.082031 28.902344 C 29.207031 28.863281 29.335938 28.84375 29.464844 28.839844 Z M 23.03125 34.027344 C 23.996094 34.070312 24.957031 34.117188 25.914062 34.167969 C 25.132812 34.265625 24.351562 34.363281 23.570312 34.457031 C 23.265625 34.464844 23.085938 34.320312 23.03125 34.027344 Z M 23.03125 34.027344 "/>
</g>
<mask id="mask1">
  <g filter="url(#alpha)">
<rect x="0" y="0" width="50" height="50" style="fill:rgb(0%,0%,0%);fill-opacity:0.745098;stroke:none;"/>
  </g>
</mask>
<clipPath id="clip2">
  <rect width="50" height="50"/>
</clipPath>
<g id="surface9" clip-path="url(#clip2)">
<path style=" stroke:none;fill-rule:evenodd;fill:rgb(52.941176%,48.235294%,49.803922%);fill-opacity:1;" d="M 23.945312 16.671875 C 24.003906 17.132812 23.984375 17.597656 23.882812 18.0625 C 23.878906 18.121094 23.851562 18.164062 23.800781 18.183594 C 23.917969 17.6875 23.96875 17.183594 23.945312 16.671875 Z M 23.945312 16.671875 "/>
</g>
<mask id="mask2">
  <g filter="url(#alpha)">
<rect x="0" y="0" width="50" height="50" style="fill:rgb(0%,0%,0%);fill-opacity:0.984314;stroke:none;"/>
  </g>
</mask>
<clipPath id="clip3">
  <rect width="50" height="50"/>
</clipPath>
<g id="surface12" clip-path="url(#clip3)">
<path style=" stroke:none;fill-rule:evenodd;fill:rgb(0%,0%,0%);fill-opacity:1;" d="M 32.464844 38.203125 C 32.933594 38.15625 33.375 38.246094 33.785156 38.476562 C 34.125 38.699219 34.46875 38.917969 34.816406 39.125 C 35.113281 39.234375 35.390625 39.371094 35.65625 39.535156 C 35.863281 39.6875 36.027344 39.875 36.148438 40.097656 C 36.367188 40.535156 36.558594 40.984375 36.726562 41.441406 C 36.972656 42.441406 36.925781 43.425781 36.582031 44.394531 C 36.339844 44.933594 36.011719 45.414062 35.597656 45.835938 C 34.941406 46.445312 34.292969 47.058594 33.640625 47.671875 C 32.210938 48.789062 30.605469 49.167969 28.816406 48.800781 C 27.839844 48.550781 26.953125 48.125 26.152344 47.527344 C 25.507812 47.003906 25.089844 46.335938 24.890625 45.523438 C 24.71875 45.003906 24.675781 44.476562 24.773438 43.9375 C 24.796875 43.859375 24.824219 43.785156 24.855469 43.710938 C 24.820312 43.648438 24.804688 43.578125 24.808594 43.507812 C 24.875 42.804688 25.117188 42.171875 25.539062 41.609375 C 26.011719 40.992188 26.578125 40.476562 27.230469 40.0625 C 27.792969 39.789062 28.351562 39.519531 28.914062 39.246094 C 30.046875 38.726562 31.234375 38.375 32.464844 38.203125 Z M 25.816406 43.171875 C 25.644531 43.832031 25.542969 44.503906 25.503906 45.1875 C 25.34375 44.773438 25.324219 44.347656 25.445312 43.914062 C 25.5 43.859375 25.554688 43.804688 25.613281 43.746094 C 25.664062 43.546875 25.734375 43.355469 25.816406 43.171875 Z M 25.816406 43.171875 "/>
</g>
</defs>
<g id="surface1">
<use xlink:href="#surface6" mask="url(#mask0)"/>
<path style=" stroke:none;fill-rule:evenodd;fill:rgb(99.607843%,99.607843%,99.607843%);fill-opacity:1;" d="M 30.570312 3.972656 C 30.578125 3.992188 30.59375 4 30.617188 3.996094 C 30.617188 4.011719 30.625 4.019531 30.640625 4.019531 C 30.648438 4.039062 30.664062 4.046875 30.6875 4.042969 C 31.019531 4.253906 31.347656 4.46875 31.671875 4.691406 C 31.671875 4.707031 31.679688 4.714844 31.695312 4.714844 C 31.695312 4.734375 31.703125 4.742188 31.722656 4.742188 C 31.722656 4.757812 31.730469 4.765625 31.746094 4.765625 C 31.832031 4.832031 31.910156 4.914062 31.972656 5.003906 C 32.179688 5.324219 32.390625 5.644531 32.597656 5.964844 C 32.964844 6.460938 33.320312 6.964844 33.664062 7.476562 C 33.660156 7.5 33.667969 7.515625 33.6875 7.523438 C 33.6875 7.542969 33.699219 7.550781 33.714844 7.550781 C 33.710938 7.574219 33.71875 7.589844 33.738281 7.597656 C 34.1875 8.449219 34.613281 9.3125 35.007812 10.191406 C 35.003906 10.21875 35.011719 10.246094 35.035156 10.261719 C 35.03125 10.285156 35.039062 10.300781 35.058594 10.308594 C 35.050781 10.339844 35.058594 10.363281 35.082031 10.382812 C 35.078125 10.40625 35.085938 10.421875 35.105469 10.429688 C 35.550781 11.738281 35.824219 13.082031 35.933594 14.460938 C 35.957031 15.269531 35.941406 16.078125 35.886719 16.886719 C 35.796875 17.800781 35.699219 18.710938 35.585938 19.625 C 35.5625 19.65625 35.554688 19.695312 35.5625 19.742188 C 35.539062 19.769531 35.53125 19.800781 35.539062 19.839844 C 35.515625 19.863281 35.507812 19.898438 35.515625 19.933594 C 35.492188 19.960938 35.484375 19.992188 35.488281 20.03125 C 35.46875 20.046875 35.460938 20.070312 35.464844 20.101562 C 35.414062 20.273438 35.34375 20.441406 35.261719 20.605469 C 34.996094 21.0625 34.734375 21.519531 34.46875 21.976562 C 33.574219 23.921875 32.558594 25.796875 31.421875 27.59375 C 31.199219 27.871094 30.9375 28.109375 30.640625 28.300781 C 30.261719 28.5 29.878906 28.679688 29.488281 28.839844 C 29.480469 28.839844 29.472656 28.839844 29.464844 28.839844 C 29.335938 28.84375 29.207031 28.863281 29.082031 28.902344 C 28.679688 29.027344 28.429688 29.296875 28.335938 29.703125 C 27.90625 30.300781 27.789062 30.957031 27.988281 31.671875 C 28.0625 32.117188 28.175781 32.546875 28.324219 32.96875 C 28.511719 33.300781 28.734375 33.605469 28.996094 33.882812 C 29.054688 33.972656 29.117188 34.0625 29.1875 34.144531 C 29.199219 34.167969 29.203125 34.191406 29.199219 34.21875 C 29.003906 34.25 28.800781 34.265625 28.601562 34.265625 C 28.152344 34.25 27.703125 34.214844 27.257812 34.15625 C 26.808594 34.152344 26.359375 34.15625 25.914062 34.167969 C 24.957031 34.117188 23.996094 34.070312 23.03125 34.027344 C 23.035156 32.207031 23.03125 30.382812 23.019531 28.550781 C 23.035156 27.871094 23.238281 27.253906 23.632812 26.703125 C 23.648438 26.703125 23.65625 26.695312 23.65625 26.679688 C 23.671875 26.679688 23.679688 26.671875 23.679688 26.65625 C 23.714844 26.644531 23.730469 26.621094 23.726562 26.585938 C 24.324219 25.957031 24.890625 25.308594 25.433594 24.640625 C 25.449219 24.640625 25.457031 24.632812 25.457031 24.617188 C 25.472656 24.617188 25.480469 24.609375 25.480469 24.59375 C 25.496094 24.59375 25.503906 24.585938 25.503906 24.566406 C 25.519531 24.566406 25.527344 24.558594 25.527344 24.542969 C 25.566406 24.496094 25.605469 24.449219 25.648438 24.398438 C 26.816406 23.132812 27.789062 21.722656 28.566406 20.175781 C 29.109375 19.089844 29.480469 17.945312 29.667969 16.742188 C 29.828125 15.582031 29.75 14.4375 29.429688 13.308594 C 29.0625 12.136719 28.558594 11.023438 27.917969 9.972656 C 27.496094 9.222656 27.011719 8.519531 26.464844 7.859375 C 26.464844 7.84375 26.457031 7.835938 26.441406 7.835938 C 26.441406 7.820312 26.433594 7.8125 26.417969 7.8125 C 26.417969 7.796875 26.410156 7.789062 26.390625 7.789062 C 26.277344 7.601562 26.117188 7.464844 25.914062 7.382812 C 24.746094 6.65625 23.660156 6.757812 22.648438 7.679688 C 21.941406 8.449219 21.402344 9.324219 21.027344 10.308594 C 20.59375 11.445312 20.410156 12.621094 20.476562 13.839844 C 20.507812 14.261719 20.648438 14.648438 20.894531 14.992188 C 20.886719 15 20.878906 15.007812 20.871094 15.015625 C 20.230469 14.816406 19.589844 14.613281 18.949219 14.402344 C 18.433594 14.273438 17.921875 14.132812 17.414062 13.980469 C 17.363281 13.957031 17.308594 13.941406 17.246094 13.933594 C 17.230469 13.914062 17.207031 13.90625 17.175781 13.910156 C 17.15625 13.886719 17.132812 13.878906 17.101562 13.886719 C 17.085938 13.863281 17.0625 13.855469 17.03125 13.863281 C 17.015625 13.839844 16.988281 13.832031 16.957031 13.839844 C 16.941406 13.816406 16.917969 13.808594 16.886719 13.8125 C 16.859375 13.792969 16.828125 13.785156 16.789062 13.789062 C 16.773438 13.769531 16.75 13.761719 16.71875 13.765625 C 16.703125 13.746094 16.675781 13.738281 16.648438 13.742188 C 16.628906 13.71875 16.605469 13.710938 16.574219 13.71875 C 16.558594 13.695312 16.535156 13.6875 16.503906 13.695312 C 16.050781 13.550781 15.621094 13.351562 15.21875 13.09375 C 15.195312 13.011719 15.144531 12.949219 15.074219 12.902344 C 14.941406 12.722656 14.851562 12.523438 14.808594 12.300781 C 14.675781 10.703125 15.019531 9.214844 15.84375 7.835938 C 16.519531 6.617188 17.328125 5.488281 18.265625 4.453125 C 18.433594 4.304688 18.597656 4.152344 18.757812 3.996094 C 18.773438 3.996094 18.78125 3.988281 18.78125 3.972656 C 18.800781 3.972656 18.808594 3.964844 18.808594 3.949219 C 18.824219 3.949219 18.832031 3.941406 18.832031 3.925781 C 18.863281 3.898438 18.894531 3.875 18.925781 3.851562 C 18.941406 3.851562 18.949219 3.84375 18.949219 3.828125 C 18.96875 3.828125 18.976562 3.820312 18.976562 3.804688 C 18.992188 3.804688 19 3.796875 19 3.78125 C 19.015625 3.78125 19.023438 3.773438 19.023438 3.757812 C 19.046875 3.761719 19.0625 3.753906 19.070312 3.734375 C 19.085938 3.734375 19.09375 3.722656 19.09375 3.707031 C 19.109375 3.707031 19.117188 3.699219 19.117188 3.683594 C 19.136719 3.683594 19.144531 3.675781 19.144531 3.660156 C 19.1875 3.65625 19.222656 3.632812 19.238281 3.589844 C 19.253906 3.589844 19.261719 3.582031 19.261719 3.566406 C 19.308594 3.558594 19.339844 3.535156 19.359375 3.492188 C 19.375 3.492188 19.382812 3.484375 19.382812 3.46875 C 19.429688 3.460938 19.460938 3.4375 19.480469 3.398438 C 19.523438 3.390625 19.558594 3.367188 19.574219 3.324219 C 19.695312 3.257812 19.808594 3.175781 19.910156 3.085938 C 19.949219 3.085938 19.972656 3.070312 19.984375 3.035156 C 20.019531 3.039062 20.042969 3.023438 20.054688 2.988281 C 20.09375 2.988281 20.117188 2.972656 20.128906 2.941406 C 20.203125 2.917969 20.269531 2.878906 20.320312 2.820312 C 20.371094 2.8125 20.410156 2.789062 20.4375 2.75 C 20.464844 2.753906 20.480469 2.746094 20.488281 2.722656 C 20.523438 2.726562 20.546875 2.710938 20.558594 2.675781 C 20.582031 2.679688 20.597656 2.671875 20.605469 2.652344 C 20.632812 2.65625 20.648438 2.648438 20.65625 2.628906 C 20.671875 2.628906 20.679688 2.621094 20.679688 2.605469 C 20.703125 2.609375 20.71875 2.601562 20.726562 2.582031 C 20.75 2.585938 20.765625 2.578125 20.773438 2.554688 C 20.800781 2.558594 20.816406 2.550781 20.824219 2.53125 C 20.847656 2.535156 20.863281 2.527344 20.871094 2.507812 C 20.894531 2.511719 20.910156 2.503906 20.917969 2.484375 C 20.933594 2.484375 20.941406 2.476562 20.941406 2.460938 C 20.96875 2.464844 20.984375 2.457031 20.992188 2.4375 C 21.601562 2.121094 22.25 1.925781 22.9375 1.847656 C 23.304688 1.828125 23.671875 1.835938 24.039062 1.871094 C 24.453125 1.96875 24.859375 2.082031 25.265625 2.207031 C 25.824219 2.304688 26.386719 2.410156 26.945312 2.519531 C 27.425781 2.734375 27.898438 2.964844 28.359375 3.214844 C 29.097656 3.464844 29.835938 3.71875 30.570312 3.972656 Z M 25.914062 7.382812 C 26.117188 7.464844 26.277344 7.601562 26.390625 7.789062 C 26.230469 7.652344 26.070312 7.515625 25.914062 7.382812 Z M 25.914062 7.382812 "/>
<path style=" stroke:none;fill-rule:evenodd;fill:rgb(62.745098%,56.862745%,58.823529%);fill-opacity:1;" d="M 36.976562 23.535156 C 36.960938 23.535156 36.953125 23.542969 36.953125 23.558594 C 36.929688 23.589844 36.90625 23.621094 36.882812 23.65625 C 36.867188 23.65625 36.859375 23.664062 36.859375 23.679688 C 36.636719 24.027344 36.464844 24.40625 36.34375 24.808594 C 36.132812 25.203125 35.875 25.5625 35.574219 25.886719 C 34.914062 26.546875 34.277344 27.21875 33.652344 27.90625 C 33.289062 28.339844 32.992188 28.820312 32.765625 29.34375 C 32.539062 30.050781 32.601562 30.734375 32.957031 31.386719 C 33.191406 31.75 33.429688 32.113281 33.664062 32.476562 C 32.722656 32.84375 31.761719 33.152344 30.785156 33.414062 C 30.398438 33.539062 30.015625 33.671875 29.632812 33.808594 C 29.410156 33.570312 29.199219 33.324219 28.996094 33.066406 C 28.75 32.683594 28.582031 32.265625 28.492188 31.816406 C 28.40625 31.453125 28.375 31.085938 28.398438 30.714844 C 28.445312 30.441406 28.554688 30.203125 28.734375 29.992188 C 28.941406 29.769531 29.175781 29.582031 29.441406 29.429688 C 29.949219 29.1875 30.453125 28.9375 30.953125 28.683594 C 31.441406 28.355469 31.828125 27.9375 32.117188 27.425781 C 32.507812 26.753906 32.902344 26.082031 33.292969 25.40625 C 33.875 24.296875 34.441406 23.175781 34.996094 22.046875 C 35.296875 21.570312 35.574219 21.082031 35.835938 20.582031 C 35.992188 20.246094 36.089844 19.894531 36.125 19.527344 C 36.210938 18.71875 36.300781 17.910156 36.390625 17.101562 C 36.566406 15.480469 36.488281 13.871094 36.148438 12.277344 C 35.910156 11.183594 35.589844 10.109375 35.191406 9.0625 C 35.003906 8.621094 34.789062 8.195312 34.542969 7.789062 C 33.84375 6.773438 33.148438 5.757812 32.453125 4.742188 C 31.933594 4.0625 31.265625 3.59375 30.449219 3.335938 C 29.953125 3.175781 29.457031 3.015625 28.960938 2.855469 C 29.753906 2.808594 30.542969 2.808594 31.335938 2.855469 C 32.355469 3.015625 33.320312 3.324219 34.242188 3.792969 C 34.558594 3.972656 34.855469 4.179688 35.128906 4.417969 C 35.652344 4.914062 36.179688 5.402344 36.714844 5.882812 C 37.132812 6.242188 37.488281 6.65625 37.78125 7.117188 C 38.105469 7.726562 38.464844 8.3125 38.863281 8.871094 C 39.0625 9.191406 39.238281 9.527344 39.390625 9.878906 C 39.730469 10.8125 40.007812 11.765625 40.230469 12.734375 C 40.289062 13.050781 40.339844 13.371094 40.375 13.695312 C 40.414062 14.492188 40.421875 15.292969 40.398438 16.09375 C 40.382812 17.078125 40.183594 18.023438 39.796875 18.925781 C 39.316406 19.898438 38.828125 20.867188 38.335938 21.832031 C 38.160156 22.128906 37.976562 22.414062 37.78125 22.695312 C 37.519531 22.980469 37.25 23.261719 36.976562 23.535156 Z M 36.976562 23.535156 "/>
<path style=" stroke:none;fill-rule:evenodd;fill:rgb(62.745098%,56.862745%,58.823529%);fill-opacity:1;" d="M 24.085938 7.332031 C 24.691406 7.265625 25.226562 7.421875 25.695312 7.800781 C 26.15625 8.253906 26.550781 8.753906 26.882812 9.300781 C 27.25 9.878906 27.570312 10.480469 27.84375 11.101562 C 27.308594 10.621094 26.6875 10.289062 25.984375 10.105469 C 24.386719 9.886719 23.4375 10.570312 23.140625 12.15625 C 23.0625 12.796875 23.070312 13.4375 23.164062 14.078125 C 23.320312 14.871094 23.488281 15.664062 23.667969 16.453125 C 23.722656 16.929688 23.714844 17.398438 23.644531 17.871094 C 23.34375 17.609375 23.035156 17.359375 22.71875 17.113281 C 22.285156 16.730469 21.992188 16.253906 21.84375 15.6875 C 21.800781 15.492188 21.757812 15.300781 21.710938 15.109375 C 21.195312 14.921875 20.90625 14.554688 20.835938 14.007812 C 20.691406 11.914062 21.253906 10.03125 22.515625 8.367188 C 22.816406 7.992188 23.179688 7.699219 23.609375 7.488281 C 23.765625 7.425781 23.925781 7.371094 24.085938 7.332031 Z M 24.085938 7.332031 "/>
<path style=" stroke:none;fill-rule:evenodd;fill:rgb(66.27451%,22.745098%,17.647059%);fill-opacity:1;" d="M 15.300781 13.621094 C 15.800781 13.882812 16.320312 14.09375 16.863281 14.257812 C 18.113281 14.601562 19.363281 14.964844 20.605469 15.339844 C 20.785156 15.375 20.96875 15.414062 21.148438 15.445312 C 21.171875 15.457031 21.1875 15.472656 21.195312 15.496094 C 21.3125 16.160156 21.585938 16.753906 22.011719 17.269531 C 22.222656 17.476562 22.445312 17.671875 22.671875 17.859375 C 22.566406 17.863281 22.460938 17.847656 22.359375 17.8125 C 22.023438 17.695312 21.691406 17.574219 21.363281 17.4375 C 21.019531 17.308594 20.664062 17.246094 20.296875 17.246094 C 19.769531 17.296875 19.242188 17.316406 18.710938 17.308594 C 18.230469 17.261719 17.84375 17.050781 17.546875 16.671875 C 17.238281 16.21875 16.953125 15.753906 16.683594 15.277344 C 16.339844 14.847656 15.972656 14.441406 15.578125 14.054688 C 15.46875 13.921875 15.375 13.777344 15.300781 13.621094 Z M 15.300781 13.621094 "/>
<use xlink:href="#surface9" mask="url(#mask1)"/>
<use xlink:href="#surface12" mask="url(#mask2)"/>
<path style=" stroke:none;fill-rule:evenodd;fill:rgb(62.352941%,56.862745%,58.823529%);fill-opacity:1;" d="M 29.296875 39.570312 C 29.320312 39.574219 29.335938 39.566406 29.34375 39.546875 C 29.367188 39.550781 29.382812 39.542969 29.394531 39.523438 C 29.421875 39.527344 29.449219 39.519531 29.464844 39.5 C 29.488281 39.503906 29.503906 39.496094 29.511719 39.472656 C 30.429688 39.160156 31.363281 38.921875 32.320312 38.765625 C 32.742188 38.691406 33.132812 38.765625 33.496094 38.980469 C 33.761719 39.191406 34.035156 39.390625 34.3125 39.582031 C 34.617188 39.71875 34.921875 39.855469 35.226562 39.992188 C 35.308594 40.050781 35.386719 40.117188 35.453125 40.195312 C 36.269531 41.421875 36.421875 42.726562 35.910156 44.105469 C 35.695312 44.5625 35.40625 44.960938 35.046875 45.308594 C 35.355469 43.582031 34.832031 42.167969 33.472656 41.070312 C 32.6875 40.480469 31.816406 40.066406 30.855469 39.824219 C 30.335938 39.714844 29.816406 39.632812 29.296875 39.570312 Z M 29.296875 39.570312 "/>
<path style=" stroke:none;fill-rule:evenodd;fill:rgb(99.607843%,99.607843%,99.607843%);fill-opacity:1;" d="M 25.503906 45.1875 C 25.542969 44.503906 25.644531 43.832031 25.816406 43.171875 C 25.816406 43.164062 25.816406 43.15625 25.816406 43.148438 C 25.835938 43.128906 25.847656 43.105469 25.839844 43.074219 C 26.214844 42.152344 26.832031 41.425781 27.6875 40.902344 C 28.214844 40.597656 28.785156 40.46875 29.394531 40.519531 C 30.742188 40.578125 31.953125 41.019531 33.015625 41.839844 C 34.144531 42.8125 34.519531 44.027344 34.132812 45.476562 C 33.75 46.507812 33.058594 47.253906 32.058594 47.71875 C 30.605469 48.339844 29.164062 48.308594 27.738281 47.625 C 27.082031 47.332031 26.519531 46.917969 26.042969 46.386719 C 25.769531 46.03125 25.589844 45.628906 25.503906 45.1875 Z M 25.503906 45.1875 "/>
</g>
</svg>
