<?xml version="1.0" encoding="UTF-8"?>
<svg xmlns="http://www.w3.org/2000/svg" xmlns:xlink="http://www.w3.org/1999/xlink" width="50pt" height="50pt" viewBox="0 0 50 50" version="1.1">
<defs>
<filter id="alpha" filterUnits="objectBoundingBox" x="0%" y="0%" width="100%" height="100%">
  <feColorMatrix type="matrix" in="SourceGraphic" values="0 0 0 0 1 0 0 0 0 1 0 0 0 0 1 0 0 0 1 0"/>
</filter>
<mask id="mask0">
  <g filter="url(#alpha)">
<rect x="0" y="0" width="50" height="50" style="fill:rgb(0%,0%,0%);fill-opacity:0.980392;stroke:none;"/>
  </g>
</mask>
<clipPath id="clip1">
  <rect width="50" height="50"/>
</clipPath>
<g id="surface6" clip-path="url(#clip1)">
<path style=" stroke:none;fill-rule:evenodd;fill:rgb(62.745098%,56.862745%,58.823529%);fill-opacity:1;" d="M 37.691406 17.011719 C 37.453125 16.8125 37.203125 16.621094 36.949219 16.433594 C 36.785156 15.113281 36.5625 13.800781 36.277344 12.5 C 35.960938 11.140625 35.640625 9.777344 35.316406 8.421875 C 35.050781 7.261719 34.585938 6.191406 33.925781 5.207031 C 33.453125 4.660156 32.867188 4.492188 32.171875 4.703125 C 30.828125 5.507812 29.621094 6.492188 28.550781 7.652344 C 27.878906 8.390625 27.207031 9.125 26.535156 9.859375 C 25.199219 11.183594 23.847656 12.484375 22.480469 13.773438 C 22.394531 13.769531 22.316406 13.738281 22.242188 13.675781 C 22.144531 13.644531 22.050781 13.644531 21.953125 13.675781 C 20.703125 14.03125 19.457031 14.390625 18.210938 14.753906 C 18.285156 14.300781 18.476562 13.898438 18.785156 13.554688 C 22.195312 10.777344 25.765625 8.210938 29.488281 5.855469 C 30.289062 5.355469 31.105469 4.875 31.933594 4.414062 C 33.269531 4.035156 34.398438 4.363281 35.316406 5.398438 C 35.46875 5.640625 35.597656 5.898438 35.699219 6.167969 C 36.578125 9.742188 37.242188 13.355469 37.691406 17.011719 Z M 37.691406 17.011719 "/>
</g>
<mask id="mask1">
  <g filter="url(#alpha)">
<rect x="0" y="0" width="50" height="50" style="fill:rgb(0%,0%,0%);fill-opacity:0.996078;stroke:none;"/>
  </g>
</mask>
<clipPath id="clip2">
  <rect width="50" height="50"/>
</clipPath>
<g id="surface9" clip-path="url(#clip2)">
<path style=" stroke:none;fill-rule:evenodd;fill:rgb(7.843137%,14.509804%,15.294118%);fill-opacity:1;" d="M 37.691406 17.011719 C 37.917969 17.21875 38.140625 17.429688 38.363281 17.632812 C 38.460938 17.761719 38.570312 17.875 38.699219 17.96875 C 40.195312 19.410156 41.578125 20.945312 42.851562 22.578125 C 43.679688 23.671875 44.492188 24.777344 45.296875 25.886719 C 45.371094 26.070312 45.449219 26.246094 45.539062 26.414062 C 45.546875 26.503906 45.554688 26.589844 45.5625 26.679688 C 44.90625 29.65625 43.96875 32.542969 42.753906 35.339844 C 41.988281 37.0625 41.175781 38.757812 40.308594 40.425781 C 39.792969 41.351562 39.144531 42.175781 38.363281 42.898438 C 38.121094 43.117188 37.847656 43.285156 37.546875 43.402344 C 36.972656 43.675781 36.363281 43.800781 35.722656 43.785156 C 34.941406 43.769531 34.175781 43.652344 33.421875 43.425781 C 27.445312 41.605469 21.464844 39.796875 15.476562 38.003906 C 13.523438 37.425781 11.601562 36.753906 9.71875 35.988281 C 8.734375 35.621094 7.878906 35.070312 7.148438 34.332031 C 6.738281 33.753906 6.539062 33.105469 6.550781 32.390625 C 6.613281 31.460938 6.796875 30.558594 7.101562 29.679688 C 7.992188 27.441406 8.871094 25.203125 9.742188 22.960938 C 10.6875 20.800781 11.769531 18.714844 12.980469 16.699219 C 13.34375 16.496094 13.710938 16.289062 14.082031 16.074219 C 14.488281 15.886719 14.90625 15.726562 15.332031 15.59375 C 16.300781 15.339844 17.257812 15.058594 18.210938 14.753906 C 19.457031 14.390625 20.703125 14.03125 21.953125 13.675781 C 22.050781 13.644531 22.144531 13.644531 22.242188 13.675781 C 22.316406 13.738281 22.394531 13.769531 22.480469 13.773438 C 23.847656 12.484375 25.199219 11.183594 26.535156 9.859375 C 27.207031 9.125 27.878906 8.390625 28.550781 7.652344 C 29.621094 6.492188 30.828125 5.507812 32.171875 4.703125 C 32.867188 4.492188 33.453125 4.660156 33.925781 5.207031 C 34.585938 6.191406 35.050781 7.261719 35.316406 8.421875 C 35.640625 9.777344 35.960938 11.140625 36.277344 12.5 C 36.5625 13.800781 36.785156 15.113281 36.949219 16.433594 C 37.203125 16.621094 37.453125 16.8125 37.691406 17.011719 Z M 37.691406 17.011719 "/>
</g>
<mask id="mask2">
  <g filter="url(#alpha)">
<rect x="0" y="0" width="50" height="50" style="fill:rgb(0%,0%,0%);fill-opacity:0.988235;stroke:none;"/>
  </g>
</mask>
<clipPath id="clip3">
  <rect width="50" height="50"/>
</clipPath>
<g id="surface12" clip-path="url(#clip3)">
<path style=" stroke:none;fill-rule:evenodd;fill:rgb(94.509804%,92.941176%,90.196078%);fill-opacity:1;" d="M 18.785156 13.554688 C 18.476562 13.898438 18.285156 14.300781 18.210938 14.753906 C 17.257812 15.058594 16.300781 15.339844 15.332031 15.59375 C 14.90625 15.726562 14.488281 15.886719 14.082031 16.074219 C 13.710938 16.289062 13.34375 16.496094 12.980469 16.699219 C 11.769531 18.714844 10.6875 20.800781 9.742188 22.960938 C 8.871094 25.203125 7.992188 27.441406 7.101562 29.679688 C 6.796875 30.558594 6.613281 31.460938 6.550781 32.390625 C 6.539062 33.105469 6.738281 33.753906 7.148438 34.332031 C 7.878906 35.070312 8.734375 35.621094 9.71875 35.988281 C 11.601562 36.753906 13.523438 37.425781 15.476562 38.003906 C 21.464844 39.796875 27.445312 41.605469 33.421875 43.425781 C 34.175781 43.652344 34.941406 43.769531 35.722656 43.785156 C 36.363281 43.800781 36.972656 43.675781 37.546875 43.402344 C 36.183594 44.460938 34.628906 44.882812 32.894531 44.671875 C 32.230469 44.609375 31.574219 44.496094 30.925781 44.335938 C 25.613281 43.011719 20.320312 41.621094 15.042969 40.164062 C 12.289062 39.425781 9.664062 38.371094 7.171875 36.996094 C 6.175781 36.414062 5.234375 35.757812 4.34375 35.027344 C 3.691406 34.398438 3.441406 33.636719 3.597656 32.75 C 4.417969 30.21875 5.203125 27.675781 5.949219 25.121094 C 6.585938 23.03125 7.402344 21.015625 8.398438 19.074219 C 9.050781 17.765625 9.9375 16.636719 11.058594 15.691406 C 12.425781 14.710938 13.945312 14.089844 15.617188 13.820312 C 16.667969 13.648438 17.722656 13.558594 18.785156 13.554688 Z M 18.785156 13.554688 "/>
</g>
<mask id="mask3">
  <g filter="url(#alpha)">
<rect x="0" y="0" width="50" height="50" style="fill:rgb(0%,0%,0%);fill-opacity:0.12549;stroke:none;"/>
  </g>
</mask>
<clipPath id="clip4">
  <rect width="50" height="50"/>
</clipPath>
<g id="surface15" clip-path="url(#clip4)">
<path style=" stroke:none;fill-rule:evenodd;fill:rgb(83.529412%,82.745098%,80.392157%);fill-opacity:1;" d="M 38.363281 17.632812 C 38.523438 17.699219 38.636719 17.808594 38.699219 17.96875 C 38.570312 17.875 38.460938 17.761719 38.363281 17.632812 Z M 38.363281 17.632812 "/>
</g>
<mask id="mask4">
  <g filter="url(#alpha)">
<rect x="0" y="0" width="50" height="50" style="fill:rgb(0%,0%,0%);fill-opacity:0.996078;stroke:none;"/>
  </g>
</mask>
<clipPath id="clip5">
  <rect width="50" height="50"/>
</clipPath>
<g id="surface18" clip-path="url(#clip5)">
<path style=" stroke:none;fill-rule:evenodd;fill:rgb(62.352941%,56.862745%,58.431373%);fill-opacity:1;" d="M 31.261719 24.304688 C 31.261719 24.335938 31.261719 24.367188 31.261719 24.398438 C 31.207031 24.621094 31.167969 24.84375 31.140625 25.070312 C 31.105469 26.0625 31.113281 27.054688 31.167969 28.046875 C 31.101562 29.035156 30.6875 29.835938 29.917969 30.445312 C 29.832031 30.351562 29.75 30.246094 29.679688 30.132812 C 29.863281 30.078125 29.984375 29.957031 30.039062 29.773438 C 30.246094 28.410156 30.46875 27.050781 30.710938 25.695312 C 30.804688 25.191406 30.992188 24.726562 31.261719 24.304688 Z M 31.261719 24.304688 "/>
</g>
</defs>
<g id="surface1">
<use xlink:href="#surface6" mask="url(#mask0)"/>
<use xlink:href="#surface9" mask="url(#mask1)"/>
<path style=" stroke:none;fill-rule:evenodd;fill:rgb(62.745098%,56.862745%,58.823529%);fill-opacity:1;" d="M 31.789062 6.886719 C 32.175781 6.847656 32.542969 6.902344 32.894531 7.054688 C 33.476562 7.414062 33.886719 7.917969 34.117188 8.566406 C 34.265625 8.957031 34.394531 9.359375 34.5 9.765625 C 35.023438 11.953125 35.457031 14.164062 35.796875 16.386719 C 35.941406 17.976562 36.078125 19.570312 36.203125 21.160156 C 36.253906 21.769531 36.136719 22.335938 35.84375 22.863281 C 35.589844 23.085938 35.292969 23.160156 34.957031 23.082031 C 34.628906 22.996094 34.308594 22.882812 33.996094 22.746094 C 33.210938 22.328125 32.394531 21.976562 31.550781 21.6875 C 31.261719 21.605469 31.03125 21.675781 30.855469 21.90625 C 30.507812 22.527344 30.234375 23.183594 30.039062 23.871094 C 29.910156 24.417969 29.78125 24.960938 29.65625 25.503906 C 29.449219 26.769531 29.242188 28.03125 29.03125 29.292969 C 27.796875 27.882812 26.269531 27.429688 24.449219 27.925781 C 23.535156 28.15625 22.636719 28.425781 21.761719 28.742188 C 23.167969 26.046875 24.519531 23.320312 25.816406 20.5625 C 25.925781 20.308594 25.910156 20.070312 25.769531 19.839844 C 25.6875 19.785156 25.601562 19.742188 25.503906 19.722656 C 24.628906 19.589844 23.746094 19.476562 22.863281 19.386719 C 22.148438 19.308594 21.5 19.058594 20.921875 18.640625 C 20.667969 18.246094 20.636719 17.832031 20.824219 17.394531 C 21.085938 16.890625 21.40625 16.425781 21.785156 16.003906 C 24.554688 13.472656 27.25 10.855469 29.871094 8.15625 C 30.425781 7.601562 31.066406 7.175781 31.789062 6.886719 Z M 31.789062 6.886719 "/>
<path style=" stroke:none;fill-rule:evenodd;fill:rgb(8.235294%,14.509804%,15.294118%);fill-opacity:1;" d="M 28 11.253906 C 28.503906 11.21875 28.65625 11.425781 28.453125 11.875 C 27.359375 12.972656 26.261719 14.066406 25.167969 15.164062 C 24.941406 15.21875 24.816406 15.128906 24.785156 14.898438 C 24.804688 14.773438 24.863281 14.660156 24.953125 14.5625 C 25.890625 13.390625 26.90625 12.289062 28 11.253906 Z M 28 11.253906 "/>
<path style=" stroke:none;fill-rule:evenodd;fill:rgb(8.235294%,14.901961%,15.686275%);fill-opacity:1;" d="M 29.101562 11.78125 C 29.527344 11.714844 29.695312 11.890625 29.605469 12.308594 C 29.472656 12.492188 29.320312 12.660156 29.152344 12.8125 C 28.574219 13.324219 28 13.835938 27.421875 14.347656 C 27.089844 14.359375 26.984375 14.210938 27.109375 13.890625 C 27.753906 13.164062 28.417969 12.457031 29.101562 11.78125 Z M 29.101562 11.78125 "/>
<use xlink:href="#surface12" mask="url(#mask2)"/>
<path style=" stroke:none;fill-rule:evenodd;fill:rgb(61.960784%,56.470588%,58.431373%);fill-opacity:1;" d="M 19.21875 17.96875 C 19.226562 17.683594 19.21875 17.394531 19.195312 17.105469 C 18.785156 16.738281 18.472656 16.304688 18.257812 15.8125 C 19.316406 15.484375 20.375 15.179688 21.425781 14.898438 C 20.570312 15.839844 19.835938 16.863281 19.21875 17.96875 Z M 19.21875 17.96875 "/>
<path style=" stroke:none;fill-rule:evenodd;fill:rgb(94.117647%,92.54902%,89.803922%);fill-opacity:1;" d="M 18.257812 15.8125 C 18.472656 16.304688 18.785156 16.738281 19.195312 17.105469 C 19.21875 17.394531 19.226562 17.683594 19.21875 17.96875 C 19.050781 18.285156 18.902344 18.605469 18.761719 18.929688 C 18.671875 19.242188 18.761719 19.492188 19.027344 19.671875 C 19.886719 19.820312 20.753906 19.957031 21.617188 20.082031 C 20.621094 21.332031 19.648438 22.59375 18.691406 23.871094 C 17.144531 21.429688 15.417969 19.121094 13.507812 16.9375 C 14.054688 16.890625 14.601562 16.808594 15.140625 16.699219 C 16.175781 16.394531 17.21875 16.097656 18.257812 15.8125 Z M 18.257812 15.8125 "/>
<use xlink:href="#surface15" mask="url(#mask3)"/>
<path style=" stroke:none;fill-rule:evenodd;fill:rgb(62.352941%,56.862745%,58.823529%);fill-opacity:1;" d="M 38.027344 18.691406 C 38.046875 19.5 38.023438 20.316406 37.957031 21.136719 C 37.863281 21.800781 37.617188 22.390625 37.210938 22.914062 C 37.21875 21.777344 37.210938 20.640625 37.1875 19.503906 C 37.132812 18.882812 37.101562 18.257812 37.09375 17.632812 C 37.414062 17.980469 37.726562 18.332031 38.027344 18.691406 Z M 38.027344 18.691406 "/>
<path style=" stroke:none;fill-rule:evenodd;fill:rgb(94.509804%,92.941176%,90.196078%);fill-opacity:1;" d="M 17.921875 24.929688 C 17.277344 26.398438 17.550781 27.6875 18.738281 28.789062 C 19.109375 29.078125 19.511719 29.308594 19.9375 29.488281 C 16.140625 30.589844 12.367188 31.765625 8.613281 33.011719 C 8.527344 33.050781 8.449219 33.042969 8.375 32.988281 C 8.027344 32.378906 7.90625 31.722656 8.011719 31.023438 C 8.128906 30.367188 8.304688 29.726562 8.542969 29.101562 C 9.546875 26.769531 10.507812 24.417969 11.421875 22.050781 C 12.027344 20.632812 12.660156 19.222656 13.316406 17.828125 C 14.875 20.179688 16.410156 22.546875 17.921875 24.929688 Z M 17.921875 24.929688 "/>
<path style=" stroke:none;fill-rule:evenodd;fill:rgb(94.509804%,92.941176%,90.196078%);fill-opacity:1;" d="M 38.027344 18.691406 C 39.273438 20.09375 40.496094 21.519531 41.699219 22.960938 C 42.496094 23.949219 43.273438 24.957031 44.027344 25.984375 C 43.425781 26.230469 42.816406 26.460938 42.203125 26.679688 C 38.714844 27.792969 35.257812 28.992188 31.835938 30.277344 C 31.300781 30.488281 30.773438 30.71875 30.253906 30.972656 C 30.121094 30.808594 30.007812 30.632812 29.917969 30.445312 C 30.6875 29.835938 31.101562 29.035156 31.167969 28.046875 C 31.113281 27.054688 31.105469 26.0625 31.140625 25.070312 C 31.167969 24.84375 31.207031 24.621094 31.261719 24.398438 C 31.300781 24.382812 31.316406 24.351562 31.308594 24.304688 C 31.351562 24.289062 31.367188 24.253906 31.359375 24.207031 C 31.453125 24.019531 31.597656 23.875 31.789062 23.777344 C 32.640625 24.0625 33.511719 24.222656 34.40625 24.257812 C 34.734375 24.246094 35.0625 24.230469 35.390625 24.207031 C 35.746094 24.347656 36.097656 24.5 36.445312 24.664062 C 36.785156 24.691406 37.019531 24.539062 37.140625 24.207031 C 37.152344 23.773438 37.175781 23.34375 37.210938 22.914062 C 37.617188 22.390625 37.863281 21.800781 37.957031 21.136719 C 38.023438 20.316406 38.046875 19.5 38.027344 18.691406 Z M 38.027344 18.691406 "/>
<path style=" stroke:none;fill-rule:evenodd;fill:rgb(62.745098%,56.862745%,58.823529%);fill-opacity:1;" d="M 21.617188 20.082031 C 22.414062 20.230469 23.195312 20.429688 23.96875 20.679688 C 24.125 20.742188 24.203125 20.851562 24.207031 21.015625 C 23.941406 21.867188 23.644531 22.707031 23.320312 23.535156 C 22.640625 25.074219 21.921875 26.59375 21.160156 28.09375 C 20.371094 26.660156 19.550781 25.253906 18.691406 23.871094 C 19.648438 22.59375 20.621094 21.332031 21.617188 20.082031 Z M 21.617188 20.082031 "/>
<path style=" stroke:none;fill-rule:evenodd;fill:rgb(62.352941%,56.862745%,58.823529%);fill-opacity:1;" d="M 35.390625 24.207031 C 35.0625 24.230469 34.734375 24.246094 34.40625 24.257812 C 33.511719 24.222656 32.640625 24.0625 31.789062 23.777344 C 32.222656 23.425781 32.71875 23.308594 33.277344 23.417969 C 34.027344 23.574219 34.730469 23.835938 35.390625 24.207031 Z M 35.390625 24.207031 "/>
<use xlink:href="#surface18" mask="url(#mask4)"/>
<path style=" stroke:none;fill-rule:evenodd;fill:rgb(62.745098%,56.862745%,58.823529%);fill-opacity:1;" d="M 17.921875 24.929688 C 18.851562 26.324219 19.75 27.746094 20.609375 29.199219 C 20.382812 29.292969 20.160156 29.390625 19.9375 29.488281 C 19.511719 29.308594 19.109375 29.078125 18.738281 28.789062 C 17.550781 27.6875 17.277344 26.398438 17.921875 24.929688 Z M 17.921875 24.929688 "/>
<path style=" stroke:none;fill-rule:evenodd;fill:rgb(94.117647%,92.54902%,89.803922%);fill-opacity:1;" d="M 43.976562 27.230469 C 44.035156 27.222656 44.082031 27.238281 44.121094 27.277344 C 43.429688 30.222656 42.496094 33.085938 41.316406 35.867188 C 40.574219 37.539062 39.621094 39.066406 38.460938 40.449219 C 38.03125 40.871094 37.535156 41.183594 36.972656 41.386719 C 36.980469 41.335938 36.972656 41.289062 36.949219 41.242188 C 34.867188 38.011719 32.765625 34.796875 30.636719 31.597656 C 33.707031 30.914062 36.714844 30.007812 39.660156 28.886719 C 41.109375 28.347656 42.546875 27.796875 43.976562 27.230469 Z M 43.976562 27.230469 "/>
<path style=" stroke:none;fill-rule:evenodd;fill:rgb(8.627451%,14.901961%,15.686275%);fill-opacity:1;" d="M 40.28125 29.582031 C 40.652344 29.574219 40.804688 29.75 40.738281 30.109375 C 39.535156 31.144531 38.136719 31.683594 36.539062 31.71875 C 36.394531 31.582031 36.359375 31.421875 36.445312 31.238281 C 37.824219 30.90625 39.105469 30.355469 40.28125 29.582031 Z M 40.28125 29.582031 "/>
<path style=" stroke:none;fill-rule:evenodd;fill:rgb(62.745098%,56.862745%,58.823529%);fill-opacity:1;" d="M 28.335938 31.117188 C 26.214844 30.890625 24.117188 30.523438 22.050781 30.015625 C 24.359375 29.179688 26.457031 29.550781 28.335938 31.117188 Z M 28.335938 31.117188 "/>
<path style=" stroke:none;fill-rule:evenodd;fill:rgb(94.509804%,92.941176%,90.196078%);fill-opacity:1;" d="M 22.050781 30.015625 C 24.117188 30.523438 26.214844 30.890625 28.335938 31.117188 C 28.972656 31.617188 29.554688 32.179688 30.085938 32.796875 C 31.109375 34.042969 32.035156 35.351562 32.871094 36.730469 C 33.839844 38.402344 34.824219 40.066406 35.820312 41.722656 C 35.808594 41.75 35.792969 41.773438 35.773438 41.792969 C 34.375 41.972656 32.984375 41.9375 31.597656 41.699219 C 30.511719 41.480469 29.441406 41.207031 28.382812 40.882812 C 26.152344 40.117188 23.929688 39.335938 21.714844 38.53125 C 20.023438 38.085938 18.328125 37.652344 16.625 37.234375 C 14.683594 36.765625 12.808594 36.09375 11.011719 35.222656 C 10.320312 34.847656 9.679688 34.398438 9.09375 33.878906 C 12.257812 32.886719 15.425781 31.894531 18.59375 30.902344 C 19.734375 30.5625 20.886719 30.265625 22.050781 30.015625 Z M 22.050781 30.015625 "/>
<path style=" stroke:none;fill-rule:evenodd;fill:rgb(8.627451%,15.294118%,15.686275%);fill-opacity:1;" d="M 41.195312 30.351562 C 41.546875 30.324219 41.683594 30.484375 41.601562 30.832031 C 40.953125 31.429688 40.191406 31.839844 39.324219 32.054688 C 39.097656 32.109375 38.875 32.164062 38.652344 32.222656 C 38.5 32.179688 38.421875 32.074219 38.410156 31.910156 C 38.425781 31.847656 38.457031 31.800781 38.507812 31.765625 C 39.511719 31.480469 40.40625 31.007812 41.195312 30.351562 Z M 41.195312 30.351562 "/>
<path style=" stroke:none;fill-rule:evenodd;fill:rgb(8.627451%,14.901961%,15.686275%);fill-opacity:1;" d="M 19.984375 31.261719 C 20.421875 31.304688 20.515625 31.503906 20.273438 31.863281 C 19.121094 32.40625 17.9375 32.871094 16.722656 33.253906 C 16.546875 33.265625 16.453125 33.175781 16.433594 32.988281 C 16.453125 32.898438 16.5 32.828125 16.578125 32.773438 C 17.691406 32.207031 18.828125 31.703125 19.984375 31.261719 Z M 19.984375 31.261719 "/>
<path style=" stroke:none;fill-rule:evenodd;fill:rgb(8.627451%,14.901961%,15.686275%);fill-opacity:1;" d="M 21.90625 31.742188 C 22.292969 31.707031 22.460938 31.882812 22.410156 32.269531 C 22.386719 32.359375 22.328125 32.414062 22.242188 32.4375 C 21.019531 32.832031 19.789062 33.167969 18.546875 33.445312 C 18.398438 33.261719 18.433594 33.117188 18.640625 33.011719 C 19.738281 32.601562 20.828125 32.175781 21.90625 31.742188 Z M 21.90625 31.742188 "/>
</g>
</svg>
