<?xml version="1.0" encoding="UTF-8"?>
<svg xmlns="http://www.w3.org/2000/svg" xmlns:xlink="http://www.w3.org/1999/xlink" width="50pt" height="50pt" viewBox="0 0 50 50" version="1.1">
<defs>
<filter id="alpha" filterUnits="objectBoundingBox" x="0%" y="0%" width="100%" height="100%">
  <feColorMatrix type="matrix" in="SourceGraphic" values="0 0 0 0 1 0 0 0 0 1 0 0 0 0 1 0 0 0 1 0"/>
</filter>
<mask id="mask0">
  <g filter="url(#alpha)">
<rect x="0" y="0" width="50" height="50" style="fill:rgb(0%,0%,0%);fill-opacity:0.988235;stroke:none;"/>
  </g>
</mask>
<clipPath id="clip1">
  <rect width="50" height="50"/>
</clipPath>
<g id="surface6" clip-path="url(#clip1)">
<path style=" stroke:none;fill-rule:evenodd;fill:rgb(0%,0%,0%);fill-opacity:1;" d="M 46.433594 45.859375 C 46.117188 45.914062 45.796875 45.953125 45.476562 45.96875 C 40.8125 46.253906 36.148438 46.5 31.480469 46.699219 C 27.402344 46.875 23.320312 46.933594 19.238281 46.878906 C 15.808594 46.828125 12.382812 46.664062 8.964844 46.386719 C 8.855469 46.367188 8.742188 46.351562 8.628906 46.339844 C 7.683594 46.214844 7.082031 45.695312 6.816406 44.777344 C 6.710938 44.378906 6.65625 43.96875 6.648438 43.554688 C 6.621094 38.425781 6.589844 33.296875 6.554688 28.167969 C 6.488281 23.375 6.433594 18.582031 6.386719 13.789062 C 6.363281 10.816406 6.382812 7.84375 6.445312 4.871094 C 6.449219 4.691406 6.433594 4.511719 6.398438 4.332031 C 6.480469 3.933594 6.714844 3.804688 7.105469 3.949219 C 7.789062 3.839844 8.472656 3.746094 9.15625 3.660156 C 9.238281 3.667969 9.320312 3.660156 9.398438 3.636719 C 9.546875 3.597656 9.699219 3.585938 9.855469 3.601562 C 10.019531 3.664062 10.101562 3.789062 10.09375 3.972656 C 10.097656 4.066406 10.070312 4.148438 10.023438 4.226562 C 10.132812 4.46875 10.160156 4.71875 10.105469 4.980469 C 10.054688 5.199219 9.972656 5.40625 9.867188 5.605469 C 9.695312 5.855469 9.519531 6.105469 9.335938 6.347656 C 8.953125 6.988281 9.019531 7.578125 9.542969 8.113281 C 10.042969 8.484375 10.570312 8.53125 11.125 8.246094 C 11.625 7.953125 11.839844 7.519531 11.773438 6.949219 C 11.609375 6.480469 11.339844 6.082031 10.96875 5.75 C 10.914062 5.65625 10.863281 5.5625 10.824219 5.460938 C 10.640625 5.335938 10.53125 5.160156 10.488281 4.933594 C 10.394531 4.472656 10.378906 4.007812 10.441406 3.539062 C 10.449219 3.371094 10.523438 3.25 10.667969 3.167969 C 11.691406 3.132812 12.71875 3.105469 13.742188 3.097656 C 13.859375 3.03125 13.980469 3.023438 14.101562 3.074219 C 14.351562 3.246094 14.414062 3.472656 14.292969 3.746094 C 14.378906 4.203125 14.460938 4.664062 14.535156 5.125 C 14.527344 5.28125 14.484375 5.425781 14.402344 5.558594 C 14.328125 5.625 14.246094 5.671875 14.148438 5.699219 C 13.730469 6.375 13.6875 7.070312 14.019531 7.789062 C 14.289062 8.214844 14.675781 8.429688 15.183594 8.4375 C 16.074219 8.398438 16.558594 7.9375 16.648438 7.058594 C 16.582031 6.277344 16.164062 5.804688 15.398438 5.640625 C 15.332031 5.527344 15.246094 5.425781 15.144531 5.339844 C 15.117188 4.601562 15.019531 3.875 14.847656 3.15625 C 14.878906 2.894531 15.027344 2.769531 15.289062 2.773438 C 15.929688 2.867188 16.574219 2.902344 17.222656 2.878906 C 17.574219 2.84375 17.925781 2.800781 18.277344 2.761719 C 18.351562 2.742188 18.414062 2.710938 18.472656 2.664062 C 18.585938 2.644531 18.695312 2.652344 18.808594 2.6875 C 18.855469 2.746094 18.910156 2.792969 18.976562 2.832031 C 19.101562 2.957031 19.125 3.101562 19.046875 3.265625 C 19.214844 3.871094 19.34375 4.484375 19.429688 5.101562 C 19.429688 5.171875 19.402344 5.230469 19.359375 5.28125 C 18.953125 5.261719 18.710938 5.449219 18.628906 5.84375 C 18.542969 6.601562 18.835938 7.160156 19.503906 7.511719 C 20.027344 7.695312 20.5 7.609375 20.917969 7.25 C 21.410156 6.660156 21.394531 6.082031 20.871094 5.519531 C 20.636719 5.34375 20.375 5.238281 20.078125 5.207031 C 20 5.171875 19.949219 5.109375 19.921875 5.027344 C 19.757812 4.457031 19.667969 3.871094 19.648438 3.277344 C 19.644531 3.074219 19.6875 2.882812 19.777344 2.699219 C 19.832031 2.640625 19.890625 2.585938 19.960938 2.542969 C 20.632812 2.542969 21.304688 2.5625 21.976562 2.605469 C 22.417969 2.570312 22.855469 2.574219 23.296875 2.617188 C 23.523438 2.648438 23.703125 2.757812 23.835938 2.941406 C 23.894531 3.101562 23.882812 3.257812 23.800781 3.410156 C 23.753906 3.453125 23.695312 3.472656 23.632812 3.46875 C 23.777344 4.070312 23.894531 4.679688 23.992188 5.292969 C 23.976562 5.351562 23.957031 5.40625 23.933594 5.460938 C 23.335938 5.855469 23.128906 6.398438 23.308594 7.09375 C 23.492188 7.605469 23.859375 7.90625 24.398438 7.992188 C 25.109375 8.054688 25.695312 7.816406 26.164062 7.285156 C 26.386719 7.003906 26.511719 6.683594 26.535156 6.324219 C 26.527344 5.863281 26.304688 5.570312 25.863281 5.449219 C 25.609375 5.464844 25.351562 5.472656 25.097656 5.472656 C 25.003906 5.414062 24.953125 5.328125 24.941406 5.222656 C 24.78125 5.160156 24.679688 5.050781 24.628906 4.886719 C 24.507812 4.296875 24.480469 3.703125 24.542969 3.109375 C 24.398438 2.933594 24.386719 2.75 24.507812 2.554688 C 24.554688 2.519531 24.605469 2.488281 24.664062 2.472656 C 26.042969 2.316406 27.429688 2.199219 28.816406 2.125 C 29.132812 2.160156 29.257812 2.335938 29.1875 2.652344 C 29.179688 2.683594 29.167969 2.710938 29.152344 2.738281 C 29.488281 3.324219 29.621094 3.949219 29.546875 4.621094 C 29.542969 4.789062 29.464844 4.914062 29.320312 4.992188 C 28.722656 5.257812 28.453125 5.71875 28.515625 6.371094 C 28.578125 6.664062 28.726562 6.902344 28.960938 7.082031 C 29.765625 7.546875 30.542969 7.5 31.289062 6.9375 C 31.722656 6.578125 31.878906 6.125 31.757812 5.582031 C 31.648438 5.304688 31.449219 5.117188 31.167969 5.015625 C 31.007812 4.972656 30.851562 4.933594 30.6875 4.898438 C 30.574219 4.816406 30.503906 4.710938 30.472656 4.574219 C 30.253906 4.644531 30.089844 4.578125 29.980469 4.378906 C 29.964844 4.292969 29.964844 4.203125 29.980469 4.117188 C 30.027344 3.863281 30.058594 3.605469 30.078125 3.347656 C 30.085938 2.980469 30.09375 2.613281 30.101562 2.246094 C 30.15625 2.117188 30.246094 2.035156 30.375 1.992188 C 31.828125 2.011719 33.277344 2.105469 34.722656 2.28125 C 34.894531 2.332031 34.984375 2.445312 34.984375 2.628906 C 34.972656 2.722656 34.945312 2.816406 34.914062 2.90625 C 34.976562 3.496094 35.070312 4.085938 35.191406 4.667969 C 35.234375 4.84375 35.1875 4.992188 35.058594 5.113281 C 34.875 5.1875 34.699219 5.277344 34.53125 5.375 C 34.246094 5.628906 34.136719 5.945312 34.207031 6.324219 C 34.296875 6.65625 34.503906 6.878906 34.828125 6.996094 C 35.171875 7.121094 35.511719 7.109375 35.851562 6.960938 C 36.28125 6.785156 36.605469 6.492188 36.820312 6.085938 C 36.933594 5.703125 36.800781 5.433594 36.425781 5.28125 C 36.308594 5.230469 36.1875 5.191406 36.066406 5.160156 C 35.925781 5.050781 35.875 4.910156 35.921875 4.742188 C 35.828125 4.699219 35.769531 4.625 35.742188 4.523438 C 35.707031 3.933594 35.683594 3.339844 35.667969 2.75 C 35.683594 2.628906 35.714844 2.519531 35.765625 2.414062 C 35.882812 2.304688 35.988281 2.1875 36.089844 2.0625 C 36.136719 2.046875 36.183594 2.03125 36.234375 2.027344 C 37.253906 2.113281 38.261719 2.046875 39.257812 1.824219 C 39.515625 1.792969 39.769531 1.773438 40.027344 1.777344 C 40.078125 1.8125 40.128906 1.847656 40.183594 1.882812 C 40.441406 2.546875 40.585938 3.238281 40.613281 3.949219 C 40.585938 4.089844 40.519531 4.203125 40.410156 4.296875 C 40.207031 4.386719 40.007812 4.484375 39.808594 4.585938 C 39.285156 5.023438 39.183594 5.546875 39.511719 6.15625 C 39.824219 6.589844 40.25 6.808594 40.792969 6.804688 C 41.285156 6.792969 41.71875 6.628906 42.089844 6.3125 C 42.421875 5.964844 42.546875 5.550781 42.460938 5.078125 C 42.40625 4.90625 42.296875 4.785156 42.140625 4.703125 C 41.957031 4.652344 41.769531 4.601562 41.585938 4.5625 C 41.484375 4.460938 41.410156 4.347656 41.359375 4.210938 C 41.257812 3.535156 41.121094 2.863281 40.949219 2.195312 C 40.910156 2.027344 40.945312 1.878906 41.058594 1.753906 C 41.101562 1.71875 41.148438 1.695312 41.203125 1.679688 C 41.363281 1.671875 41.523438 1.664062 41.683594 1.65625 C 42.882812 1.65625 44.085938 1.632812 45.285156 1.585938 C 45.898438 1.617188 46.25 1.941406 46.328125 2.554688 C 46.375 2.898438 46.371094 3.238281 46.316406 3.578125 C 46.421875 3.660156 46.484375 3.765625 46.496094 3.902344 C 47.617188 17.207031 48.121094 30.539062 48.007812 43.890625 C 48.003906 44.3125 47.90625 44.714844 47.71875 45.089844 C 47.40625 45.535156 46.980469 45.789062 46.433594 45.859375 Z M 8.796875 5.582031 C 8.882812 5.21875 8.980469 4.859375 9.085938 4.5 C 9.183594 4.484375 9.285156 4.46875 9.386719 4.453125 C 9.378906 4.675781 9.3125 4.890625 9.195312 5.101562 C 9.082031 5.28125 8.949219 5.4375 8.796875 5.582031 Z M 11.199219 4.765625 C 11.246094 4.882812 11.292969 5.003906 11.34375 5.125 C 11.269531 5.128906 11.199219 5.125 11.125 5.113281 C 11.160156 5 11.183594 4.882812 11.199219 4.765625 Z M 46.292969 12.855469 C 46.820312 20.988281 47.109375 29.132812 47.15625 37.289062 C 46.855469 29.148438 46.566406 21.003906 46.292969 12.855469 Z M 26.417969 45.882812 C 26.613281 45.898438 26.804688 45.933594 26.992188 45.980469 C 25 46.03125 23.007812 46.058594 21.015625 46.050781 C 22.8125 45.984375 24.613281 45.929688 26.417969 45.882812 Z M 26.417969 45.882812 "/>
</g>
<mask id="mask1">
  <g filter="url(#alpha)">
<rect x="0" y="0" width="50" height="50" style="fill:rgb(0%,0%,0%);fill-opacity:0.635294;stroke:none;"/>
  </g>
</mask>
<clipPath id="clip2">
  <rect width="50" height="50"/>
</clipPath>
<g id="surface9" clip-path="url(#clip2)">
<path style=" stroke:none;fill-rule:evenodd;fill:rgb(90.196078%,90.196078%,90.196078%);fill-opacity:1;" d="M 9.398438 3.636719 C 9.320312 3.660156 9.238281 3.667969 9.15625 3.660156 C 9.214844 3.628906 9.28125 3.605469 9.347656 3.589844 C 9.378906 3.59375 9.394531 3.609375 9.398438 3.636719 Z M 9.398438 3.636719 "/>
</g>
<mask id="mask2">
  <g filter="url(#alpha)">
<rect x="0" y="0" width="50" height="50" style="fill:rgb(0%,0%,0%);fill-opacity:0.866667;stroke:none;"/>
  </g>
</mask>
<clipPath id="clip3">
  <rect width="50" height="50"/>
</clipPath>
<g id="surface12" clip-path="url(#clip3)">
<path style=" stroke:none;fill-rule:evenodd;fill:rgb(96.470588%,96.470588%,96.470588%);fill-opacity:1;" d="M 11.773438 6.949219 C 11.839844 7.519531 11.625 7.953125 11.125 8.246094 C 11.46875 7.878906 11.6875 7.445312 11.773438 6.949219 Z M 11.773438 6.949219 "/>
</g>
<mask id="mask3">
  <g filter="url(#alpha)">
<rect x="0" y="0" width="50" height="50" style="fill:rgb(0%,0%,0%);fill-opacity:0.996078;stroke:none;"/>
  </g>
</mask>
<clipPath id="clip4">
  <rect width="50" height="50"/>
</clipPath>
<g id="surface15" clip-path="url(#clip4)">
<path style=" stroke:none;fill-rule:evenodd;fill:rgb(99.607843%,99.607843%,99.607843%);fill-opacity:1;" d="M 26.417969 45.882812 C 24.613281 45.929688 22.8125 45.984375 21.015625 46.050781 C 19.183594 46.046875 17.351562 46.011719 15.519531 45.941406 C 13.566406 45.851562 11.613281 45.753906 9.660156 45.65625 C 9.269531 45.632812 8.886719 45.566406 8.507812 45.464844 C 8.007812 45.277344 7.699219 44.917969 7.585938 44.394531 C 7.535156 44.15625 7.507812 43.917969 7.5 43.675781 C 7.5 43.363281 7.5 43.050781 7.5 42.738281 C 13.109375 43.667969 18.71875 44.59375 24.328125 45.511719 C 25.03125 45.621094 25.726562 45.746094 26.417969 45.882812 Z M 26.417969 45.882812 "/>
</g>
<mask id="mask4">
  <g filter="url(#alpha)">
<rect x="0" y="0" width="50" height="50" style="fill:rgb(0%,0%,0%);fill-opacity:0.992157;stroke:none;"/>
  </g>
</mask>
<clipPath id="clip5">
  <rect width="50" height="50"/>
</clipPath>
<g id="surface18" clip-path="url(#clip5)">
<path style=" stroke:none;fill-rule:evenodd;fill:rgb(94.509804%,92.941176%,90.196078%);fill-opacity:1;" d="M 46.433594 45.859375 C 46.46875 46.96875 46.519531 48.078125 46.578125 49.183594 C 46.550781 49.1875 46.523438 49.191406 46.496094 49.195312 C 41.484375 48.371094 36.480469 47.539062 31.480469 46.699219 C 36.148438 46.5 40.8125 46.253906 45.476562 45.96875 C 45.796875 45.953125 46.117188 45.914062 46.433594 45.859375 Z M 46.433594 45.859375 "/>
</g>
<mask id="mask5">
  <g filter="url(#alpha)">
<rect x="0" y="0" width="50" height="50" style="fill:rgb(0%,0%,0%);fill-opacity:0.537255;stroke:none;"/>
  </g>
</mask>
<clipPath id="clip6">
  <rect width="50" height="50"/>
</clipPath>
<g id="surface21" clip-path="url(#clip6)">
<path style=" stroke:none;fill-rule:evenodd;fill:rgb(94.509804%,94.509804%,94.509804%);fill-opacity:1;" d="M 8.628906 46.339844 C 8.742188 46.351562 8.855469 46.367188 8.964844 46.386719 C 8.875 46.414062 8.777344 46.417969 8.675781 46.398438 C 8.65625 46.382812 8.640625 46.363281 8.628906 46.339844 Z M 8.628906 46.339844 "/>
</g>
</defs>
<g id="surface1">
<use xlink:href="#surface6" mask="url(#mask0)"/>
<path style=" stroke:none;fill-rule:evenodd;fill:rgb(99.607843%,99.607843%,99.607843%);fill-opacity:1;" d="M 46.292969 12.734375 C 46.292969 12.773438 46.292969 12.8125 46.292969 12.855469 C 46.566406 21.003906 46.855469 29.148438 47.15625 37.289062 C 47.148438 39.441406 47.160156 41.59375 47.191406 43.746094 C 47.160156 44.140625 47.019531 44.488281 46.769531 44.792969 C 46.671875 44.878906 46.558594 44.945312 46.433594 44.996094 C 46.410156 44.996094 46.390625 44.988281 46.375 44.972656 C 45.886719 33.417969 45.394531 21.863281 44.898438 10.308594 C 32.480469 10.4375 20.0625 10.578125 7.644531 10.730469 C 7.601562 10.773438 7.574219 10.824219 7.5625 10.886719 C 7.472656 11.398438 7.414062 11.910156 7.382812 12.421875 C 7.359375 9.949219 7.3125 7.476562 7.238281 5.003906 C 7.230469 4.882812 7.238281 4.761719 7.261719 4.644531 C 7.84375 4.597656 8.429688 4.539062 9.011719 4.476562 C 9.042969 4.476562 9.066406 4.484375 9.085938 4.5 C 8.980469 4.859375 8.882812 5.21875 8.796875 5.582031 C 8.300781 6.160156 8.136719 6.824219 8.304688 7.574219 C 8.5625 8.582031 9.207031 9.144531 10.238281 9.265625 C 11.234375 9.296875 11.96875 8.878906 12.433594 8.003906 C 12.75 7.140625 12.628906 6.339844 12.074219 5.605469 C 11.871094 5.378906 11.625 5.21875 11.34375 5.125 C 11.292969 5.003906 11.246094 4.882812 11.199219 4.765625 C 11.199219 4.628906 11.199219 4.492188 11.199219 4.355469 C 11.222656 4.21875 11.230469 4.074219 11.222656 3.925781 C 11.84375 3.933594 12.457031 3.925781 13.070312 3.902344 C 13.269531 3.894531 13.472656 3.902344 13.671875 3.925781 C 13.703125 4.332031 13.726562 4.738281 13.742188 5.148438 C 12.898438 6.050781 12.75 7.058594 13.296875 8.171875 C 13.757812 8.863281 14.40625 9.214844 15.242188 9.230469 C 15.980469 9.203125 16.589844 8.917969 17.066406 8.367188 C 17.492188 7.738281 17.578125 7.066406 17.332031 6.347656 C 17.050781 5.632812 16.542969 5.175781 15.804688 4.980469 C 15.8125 4.792969 15.820312 4.605469 15.832031 4.417969 C 15.800781 4.15625 15.777344 3.898438 15.757812 3.636719 C 16.398438 3.703125 17.035156 3.722656 17.679688 3.695312 C 17.914062 3.664062 18.144531 3.621094 18.375 3.566406 C 18.414062 3.960938 18.46875 4.351562 18.542969 4.742188 C 18.519531 4.84375 18.453125 4.910156 18.351562 4.945312 C 17.765625 5.574219 17.648438 6.28125 18.003906 7.070312 C 18.597656 8.230469 19.519531 8.636719 20.773438 8.28125 C 21.710938 7.882812 22.152344 7.175781 22.109375 6.15625 C 21.933594 5.273438 21.40625 4.722656 20.535156 4.5 C 20.449219 4.105469 20.421875 3.703125 20.453125 3.300781 C 20.460938 3.277344 20.476562 3.261719 20.5 3.253906 C 20.6875 3.285156 20.875 3.3125 21.0625 3.335938 C 21.6875 3.382812 22.3125 3.394531 22.9375 3.371094 C 23.03125 3.933594 23.113281 4.496094 23.175781 5.066406 C 23.167969 5.109375 23.160156 5.152344 23.152344 5.195312 C 22.785156 5.503906 22.566406 5.894531 22.492188 6.371094 C 22.398438 7.652344 22.96875 8.449219 24.207031 8.761719 C 25.402344 8.894531 26.335938 8.464844 27.003906 7.476562 C 27.304688 6.96875 27.394531 6.421875 27.269531 5.84375 C 26.992188 5.132812 26.472656 4.714844 25.71875 4.597656 C 25.585938 4.605469 25.457031 4.636719 25.335938 4.691406 C 25.316406 4.589844 25.304688 4.484375 25.300781 4.378906 C 25.289062 3.949219 25.285156 3.515625 25.289062 3.085938 C 26.292969 3.0625 27.296875 3.019531 28.300781 2.964844 C 28.398438 2.964844 28.496094 2.972656 28.589844 2.988281 C 28.792969 3.472656 28.859375 3.980469 28.792969 4.5 C 28.078125 4.828125 27.707031 5.386719 27.6875 6.179688 C 27.734375 7.03125 28.144531 7.636719 28.914062 7.992188 C 30.085938 8.414062 31.128906 8.203125 32.046875 7.355469 C 32.800781 6.507812 32.851562 5.617188 32.1875 4.691406 C 31.765625 4.230469 31.257812 4.074219 30.664062 4.226562 C 30.789062 3.789062 30.863281 3.34375 30.882812 2.890625 C 30.917969 2.855469 30.96875 2.839844 31.023438 2.84375 C 32.089844 2.925781 33.152344 2.988281 34.21875 3.035156 C 34.214844 3.253906 34.21875 3.46875 34.230469 3.683594 C 34.265625 4.003906 34.296875 4.324219 34.324219 4.644531 C 33.726562 4.941406 33.417969 5.425781 33.402344 6.097656 C 33.410156 6.9375 33.808594 7.496094 34.601562 7.777344 C 35.5 8.003906 36.308594 7.828125 37.027344 7.25 C 37.515625 6.828125 37.734375 6.296875 37.6875 5.652344 C 37.589844 5.101562 37.292969 4.714844 36.785156 4.488281 C 36.652344 4.460938 36.515625 4.449219 36.378906 4.453125 C 36.386719 3.882812 36.402344 3.316406 36.425781 2.75 C 37.226562 2.839844 38.023438 2.84375 38.828125 2.761719 C 39.128906 2.71875 39.421875 2.660156 39.714844 2.582031 C 39.777344 2.976562 39.808594 3.378906 39.796875 3.78125 C 39.160156 3.96875 38.746094 4.386719 38.550781 5.027344 C 38.324219 6.1875 38.75 6.996094 39.835938 7.464844 C 40.808594 7.773438 41.714844 7.632812 42.546875 7.03125 C 43.25 6.449219 43.476562 5.714844 43.230469 4.835938 C 43 4.25 42.570312 3.921875 41.945312 3.851562 C 41.949219 3.375 41.898438 2.902344 41.800781 2.4375 C 42.929688 2.417969 44.058594 2.40625 45.1875 2.398438 C 45.425781 2.496094 45.558594 2.675781 45.582031 2.941406 C 45.867188 6.207031 46.101562 9.46875 46.292969 12.734375 Z M 11.199219 4.765625 C 11.246094 4.882812 11.292969 5.003906 11.34375 5.125 C 11.269531 5.128906 11.199219 5.125 11.125 5.113281 C 11.160156 5 11.183594 4.882812 11.199219 4.765625 Z M 11.199219 4.765625 "/>
<path style=" stroke:none;fill-rule:evenodd;fill:rgb(31.764706%,31.764706%,31.764706%);fill-opacity:1;" d="M 31.023438 2.84375 C 30.96875 2.839844 30.917969 2.855469 30.882812 2.890625 C 30.882812 2.867188 30.882812 2.84375 30.882812 2.820312 C 30.933594 2.8125 30.984375 2.820312 31.023438 2.84375 Z M 31.023438 2.84375 "/>
<use xlink:href="#surface9" mask="url(#mask1)"/>
<path style=" stroke:none;fill-rule:evenodd;fill:rgb(53.333333%,53.333333%,53.333333%);fill-opacity:1;" d="M 13.070312 3.902344 C 12.457031 3.925781 11.84375 3.933594 11.222656 3.925781 C 11.230469 4.074219 11.222656 4.21875 11.199219 4.355469 C 11.199219 4.203125 11.199219 4.050781 11.199219 3.902344 C 11.820312 3.902344 12.445312 3.902344 13.070312 3.902344 Z M 13.070312 3.902344 "/>
<path style=" stroke:none;fill-rule:evenodd;fill:rgb(71.764706%,71.764706%,71.764706%);fill-opacity:1;" d="M 7.261719 4.644531 C 7.238281 4.761719 7.230469 4.882812 7.238281 5.003906 C 7.222656 4.949219 7.214844 4.890625 7.214844 4.824219 C 7.214844 4.753906 7.230469 4.695312 7.261719 4.644531 Z M 7.261719 4.644531 "/>
<use xlink:href="#surface12" mask="url(#mask2)"/>
<path style=" stroke:none;fill-rule:evenodd;fill:rgb(94.509804%,92.941176%,90.196078%);fill-opacity:1;" d="M 46.433594 44.996094 C 46.015625 45.125 45.585938 45.191406 45.140625 45.199219 C 44.722656 45.207031 44.308594 45.214844 43.890625 45.222656 C 38.328125 45.574219 32.765625 45.832031 27.195312 46.003906 C 27.128906 45.984375 27.0625 45.976562 26.992188 45.980469 C 26.804688 45.933594 26.613281 45.898438 26.417969 45.882812 C 25.726562 45.746094 25.03125 45.621094 24.328125 45.511719 C 18.71875 44.59375 13.109375 43.667969 7.5 42.738281 C 7.5 43.050781 7.5 43.363281 7.5 43.675781 C 7.425781 33.261719 7.386719 22.84375 7.382812 12.421875 C 7.414062 11.910156 7.472656 11.398438 7.5625 10.886719 C 7.574219 10.824219 7.601562 10.773438 7.644531 10.730469 C 20.0625 10.578125 32.480469 10.4375 44.898438 10.308594 C 45.394531 21.863281 45.886719 33.417969 46.375 44.972656 C 46.390625 44.988281 46.410156 44.996094 46.433594 44.996094 Z M 46.433594 44.996094 "/>
<path style=" stroke:none;fill-rule:evenodd;fill:rgb(0.784314%,0.392157%,0.392157%);fill-opacity:1;" d="M 25.40625 16.527344 C 29.496094 16.488281 33.585938 16.542969 37.675781 16.683594 C 39.554688 16.753906 41.4375 16.859375 43.316406 16.996094 C 43.546875 17.085938 43.605469 17.242188 43.496094 17.460938 C 43.433594 17.519531 43.363281 17.550781 43.277344 17.558594 C 38.4375 17.371094 33.589844 17.269531 28.746094 17.246094 C 23.707031 17.246094 18.675781 17.386719 13.644531 17.667969 C 13.085938 17.722656 12.527344 17.78125 11.964844 17.835938 C 11.308594 17.910156 10.660156 17.871094 10.023438 17.714844 C 9.816406 17.550781 9.832031 17.414062 10.070312 17.308594 C 10.457031 17.164062 10.859375 17.070312 11.269531 17.019531 C 13.621094 16.917969 15.972656 16.8125 18.328125 16.707031 C 20.691406 16.621094 23.050781 16.558594 25.40625 16.527344 Z M 25.40625 16.527344 "/>
<path style=" stroke:none;fill-rule:evenodd;fill:rgb(0.784314%,0.784314%,0.784314%);fill-opacity:1;" d="M 39.953125 22.238281 C 41.332031 22.234375 42.707031 22.246094 44.082031 22.277344 C 44.320312 22.347656 44.398438 22.503906 44.3125 22.742188 C 44.261719 22.820312 44.195312 22.875 44.105469 22.898438 C 41.796875 23.039062 39.484375 23.125 37.171875 23.164062 C 33.847656 23.207031 30.527344 23.253906 27.207031 23.308594 C 23.960938 23.402344 20.710938 23.496094 17.460938 23.597656 C 15.03125 23.671875 12.597656 23.671875 10.164062 23.597656 C 9.964844 23.476562 9.921875 23.3125 10.035156 23.105469 C 10.097656 23.027344 10.183594 22.992188 10.285156 22.996094 C 12.476562 22.839844 14.667969 22.746094 16.863281 22.707031 C 20.464844 22.671875 24.0625 22.621094 27.664062 22.5625 C 31.765625 22.4375 35.859375 22.332031 39.953125 22.238281 Z M 39.953125 22.238281 "/>
<path style=" stroke:none;fill-rule:evenodd;fill:rgb(0.392157%,0.392157%,0.392157%);fill-opacity:1;" d="M 38.777344 28.9375 C 40.691406 28.933594 42.601562 28.9375 44.515625 28.949219 C 44.71875 29.046875 44.777344 29.203125 44.695312 29.417969 C 44.648438 29.511719 44.570312 29.574219 44.46875 29.597656 C 42.171875 29.664062 39.875 29.710938 37.578125 29.742188 C 28.742188 29.84375 19.902344 29.949219 11.066406 30.066406 C 10.703125 30.0625 10.335938 30.058594 9.972656 30.054688 C 9.8125 29.992188 9.734375 29.878906 9.734375 29.703125 C 9.734375 29.558594 9.796875 29.449219 9.925781 29.378906 C 10.1875 29.351562 10.453125 29.335938 10.71875 29.332031 C 20.074219 29.214844 29.429688 29.082031 38.777344 28.9375 Z M 38.777344 28.9375 "/>
<path style=" stroke:none;fill-rule:evenodd;fill:rgb(0.784314%,0.784314%,0.784314%);fill-opacity:1;" d="M 43.53125 34.769531 C 43.738281 34.765625 43.945312 34.769531 44.15625 34.78125 C 44.367188 34.886719 44.425781 35.050781 44.335938 35.273438 C 44.277344 35.371094 44.195312 35.433594 44.082031 35.453125 C 36.859375 35.816406 29.628906 35.988281 22.394531 35.96875 C 19.710938 35.980469 17.027344 35.957031 14.34375 35.898438 C 13.636719 35.921875 12.933594 35.925781 12.230469 35.910156 C 11.714844 35.894531 11.210938 35.8125 10.71875 35.667969 C 10.613281 35.570312 10.59375 35.453125 10.65625 35.320312 C 10.691406 35.296875 10.726562 35.277344 10.765625 35.261719 C 11.3125 35.148438 11.863281 35.097656 12.421875 35.105469 C 14.070312 35.191406 15.71875 35.234375 17.367188 35.238281 C 26.097656 35.320312 34.816406 35.164062 43.53125 34.769531 Z M 43.53125 34.769531 "/>
<path style=" stroke:none;fill-rule:evenodd;fill:rgb(0.392157%,0.392157%,0.392157%);fill-opacity:1;" d="M 39.523438 40.601562 C 40.425781 40.597656 41.332031 40.601562 42.234375 40.613281 C 42.988281 40.625 43.742188 40.667969 44.492188 40.734375 C 44.6875 40.828125 44.746094 40.976562 44.671875 41.179688 C 44.644531 41.238281 44.597656 41.28125 44.539062 41.3125 C 44.1875 41.351562 43.835938 41.375 43.484375 41.382812 C 42.84375 41.402344 42.203125 41.414062 41.5625 41.417969 C 35.792969 41.320312 30.023438 41.332031 24.257812 41.453125 C 20.171875 41.582031 16.085938 41.664062 12 41.707031 C 11.453125 41.703125 10.90625 41.699219 10.359375 41.695312 C 10.167969 41.570312 10.144531 41.417969 10.285156 41.238281 C 10.390625 41.191406 10.503906 41.164062 10.621094 41.167969 C 14.339844 40.925781 18.058594 40.796875 21.785156 40.78125 C 26.65625 40.71875 31.527344 40.679688 36.402344 40.664062 C 37.445312 40.648438 38.484375 40.628906 39.523438 40.601562 Z M 39.523438 40.601562 "/>
<use xlink:href="#surface15" mask="url(#mask3)"/>
<use xlink:href="#surface18" mask="url(#mask4)"/>
<use xlink:href="#surface21" mask="url(#mask5)"/>
</g>
</svg>
