<?xml version="1.0" encoding="UTF-8"?>
<svg xmlns="http://www.w3.org/2000/svg" xmlns:xlink="http://www.w3.org/1999/xlink" width="50pt" height="50pt" viewBox="0 0 50 50" version="1.1">
<defs>
<filter id="alpha" filterUnits="objectBoundingBox" x="0%" y="0%" width="100%" height="100%">
  <feColorMatrix type="matrix" in="SourceGraphic" values="0 0 0 0 1 0 0 0 0 1 0 0 0 0 1 0 0 0 1 0"/>
</filter>
<mask id="mask0">
  <g filter="url(#alpha)">
<rect x="0" y="0" width="50" height="50" style="fill:rgb(0%,0%,0%);fill-opacity:0.964706;stroke:none;"/>
  </g>
</mask>
<clipPath id="clip1">
  <rect width="50" height="50"/>
</clipPath>
<g id="surface6" clip-path="url(#clip1)">
<path style=" stroke:none;fill-rule:evenodd;fill:rgb(0.392157%,0.392157%,0.392157%);fill-opacity:1;" d="M 12.710938 19.382812 C 12.523438 19.390625 12.335938 19.40625 12.15625 19.429688 C 11.191406 19.449219 10.292969 19.207031 9.46875 18.699219 C 8.515625 18.078125 7.675781 17.324219 6.960938 16.429688 C 6.9375 16.953125 6.925781 17.480469 6.925781 18.003906 C 6.949219 21.128906 6.960938 24.25 6.960938 27.375 C 6.890625 27.980469 6.847656 28.582031 6.828125 29.1875 C 6.996094 31.957031 7.1875 34.71875 7.40625 37.480469 C 7.636719 37.691406 7.882812 37.878906 8.148438 38.046875 C 8.703125 38.367188 9.261719 38.679688 9.828125 38.980469 C 10.230469 39.238281 10.628906 39.496094 11.03125 39.75 C 11.371094 39.933594 11.714844 40.109375 12.0625 40.277344 C 12.21875 40.4375 12.21875 40.597656 12.0625 40.757812 C 12.007812 40.796875 11.949219 40.816406 11.882812 40.820312 C 11.480469 40.640625 11.082031 40.441406 10.695312 40.230469 C 9.839844 39.632812 8.953125 39.089844 8.027344 38.597656 C 7.824219 38.46875 7.636719 38.324219 7.464844 38.152344 C 7.496094 38.792969 7.539062 39.433594 7.585938 40.074219 C 7.601562 40.304688 7.601562 40.539062 7.585938 40.769531 C 7.566406 40.824219 7.527344 40.859375 7.476562 40.878906 C 7.328125 40.925781 7.21875 40.882812 7.152344 40.746094 C 7.074219 39.785156 6.984375 38.824219 6.890625 37.867188 C 6.65625 38.105469 6.417969 38.335938 6.167969 38.5625 C 5.609375 39.179688 5.054688 39.804688 4.511719 40.433594 C 3.992188 41.027344 3.421875 41.558594 2.796875 42.03125 C 2.605469 42.070312 2.519531 41.996094 2.542969 41.800781 C 2.617188 41.714844 2.6875 41.625 2.761719 41.539062 C 3.207031 41.113281 3.648438 40.683594 4.082031 40.242188 C 4.601562 39.621094 5.128906 39.003906 5.664062 38.394531 C 5.898438 38.152344 6.136719 37.921875 6.386719 37.699219 C 6.480469 37.5625 6.582031 37.429688 6.683594 37.300781 C 6.742188 37.289062 6.796875 37.285156 6.851562 37.289062 C 6.699219 35.261719 6.53125 33.230469 6.347656 31.203125 C 6.359375 31.113281 6.40625 31.046875 6.480469 31 C 6.484375 30.953125 6.488281 30.90625 6.492188 30.855469 C 6.429688 30.152344 6.410156 29.449219 6.433594 28.746094 C 6.488281 28.175781 6.539062 27.609375 6.578125 27.039062 C 6.570312 24.550781 6.570312 22.0625 6.578125 19.574219 C 6.585938 18.925781 6.59375 18.277344 6.601562 17.628906 C 6.609375 17.121094 6.636719 16.613281 6.683594 16.105469 C 5.996094 15.148438 5.289062 14.199219 4.574219 13.261719 C 4.574219 13.226562 4.558594 13.203125 4.523438 13.191406 C 4.5 13.183594 4.484375 13.167969 4.476562 13.140625 C 3.921875 12.386719 3.320312 11.664062 2.675781 10.980469 C 2.347656 10.648438 2.039062 10.296875 1.753906 9.925781 C 1.578125 9.578125 1.546875 9.21875 1.65625 8.84375 C 1.671875 8.824219 1.691406 8.808594 1.714844 8.796875 C 1.800781 8.78125 1.867188 8.804688 1.921875 8.871094 C 1.878906 9.25 1.96875 9.59375 2.183594 9.902344 C 3.160156 10.898438 4.070312 11.945312 4.910156 13.046875 C 5.53125 13.84375 6.144531 14.652344 6.746094 15.46875 C 6.757812 15.375 6.773438 15.277344 6.792969 15.183594 C 6.867188 15.121094 6.945312 15.121094 7.019531 15.183594 C 7.03125 15.207031 7.039062 15.230469 7.046875 15.253906 C 7.019531 15.4375 7.007812 15.621094 7.007812 15.804688 C 7.40625 16.3125 7.835938 16.792969 8.292969 17.246094 C 8.929688 17.886719 9.664062 18.378906 10.5 18.722656 C 11.242188 19.003906 12 19.078125 12.78125 18.9375 C 13.1875 18.839844 13.554688 18.664062 13.886719 18.410156 C 13.9375 18.351562 13.984375 18.292969 14.03125 18.230469 C 14.046875 18.230469 14.054688 18.222656 14.054688 18.207031 C 14.070312 18.207031 14.078125 18.199219 14.078125 18.183594 C 14.203125 18.0625 14.289062 17.917969 14.34375 17.75 C 14.34375 17.742188 14.34375 17.734375 14.34375 17.726562 C 14.359375 17.726562 14.367188 17.71875 14.367188 17.703125 C 14.367188 17.695312 14.367188 17.6875 14.367188 17.679688 C 14.382812 17.679688 14.390625 17.671875 14.390625 17.65625 C 14.519531 17.125 14.515625 16.597656 14.378906 16.070312 C 14.183594 15.429688 13.902344 14.828125 13.539062 14.269531 C 12.746094 12.972656 11.789062 11.800781 10.667969 10.753906 C 9.957031 10.097656 9.238281 9.449219 8.507812 8.808594 C 8.015625 8.40625 7.503906 8.03125 6.972656 7.679688 C 6.550781 7.457031 6.101562 7.304688 5.628906 7.226562 C 4.773438 7.085938 3.914062 7.027344 3.046875 7.046875 C 2.957031 7.050781 2.875 7.078125 2.796875 7.117188 C 2.773438 7.113281 2.757812 7.121094 2.75 7.140625 C 2.386719 7.230469 2.164062 7.453125 2.078125 7.8125 C 2.050781 7.933594 2.0625 8.054688 2.113281 8.171875 C 2.242188 8.46875 2.410156 8.742188 2.617188 8.988281 C 2.664062 9.132812 2.617188 9.234375 2.484375 9.289062 C 2.402344 9.308594 2.320312 9.300781 2.246094 9.265625 C 2.066406 9.027344 1.898438 8.78125 1.742188 8.535156 C 1.394531 7.722656 1.617188 7.125 2.414062 6.746094 C 2.808594 6.613281 3.21875 6.554688 3.636719 6.566406 C 4.496094 6.578125 5.34375 6.6875 6.179688 6.890625 C 6.699219 7.035156 7.179688 7.261719 7.621094 7.5625 C 9.148438 8.703125 10.578125 9.972656 11.90625 11.367188 C 12.945312 12.492188 13.800781 13.75 14.472656 15.132812 C 14.746094 15.71875 14.894531 16.335938 14.917969 16.984375 C 14.953125 17.695312 14.703125 18.28125 14.175781 18.746094 C 13.738281 19.078125 13.25 19.289062 12.710938 19.382812 Z M 2.75 7.140625 C 2.5 7.339844 2.277344 7.566406 2.078125 7.8125 C 2.164062 7.453125 2.386719 7.230469 2.75 7.140625 Z M 14.34375 17.75 C 14.289062 17.917969 14.203125 18.0625 14.078125 18.183594 C 14.152344 18.03125 14.242188 17.886719 14.34375 17.75 Z M 14.34375 17.75 "/>
</g>
<mask id="mask1">
  <g filter="url(#alpha)">
<rect x="0" y="0" width="50" height="50" style="fill:rgb(0%,0%,0%);fill-opacity:0.968627;stroke:none;"/>
  </g>
</mask>
<clipPath id="clip2">
  <rect width="50" height="50"/>
</clipPath>
<g id="surface9" clip-path="url(#clip2)">
<path style=" stroke:none;fill-rule:evenodd;fill:rgb(0.784314%,0.784314%,0.784314%);fill-opacity:1;" d="M 22.480469 17.460938 C 21.902344 16.089844 21.253906 14.75 20.523438 13.453125 C 20.125 12.777344 19.734375 12.097656 19.347656 11.414062 C 19.023438 10.792969 18.71875 10.160156 18.433594 9.515625 C 18.289062 9.238281 18.085938 9.011719 17.824219 8.832031 C 17.566406 8.710938 17.300781 8.695312 17.03125 8.785156 C 16.816406 8.921875 16.75 9.109375 16.828125 9.347656 C 16.890625 9.40625 16.96875 9.445312 17.054688 9.457031 C 17.457031 9.398438 17.796875 9.515625 18.074219 9.804688 C 18.148438 9.910156 18.21875 10.011719 18.289062 10.117188 C 18.8125 11.238281 19.332031 12.359375 19.851562 13.476562 C 20.441406 14.683594 21.0625 15.867188 21.710938 17.03125 C 21.710938 17.046875 21.71875 17.054688 21.734375 17.054688 C 21.734375 17.089844 21.75 17.117188 21.785156 17.125 C 21.839844 17.265625 21.917969 17.394531 22.011719 17.511719 C 22.070312 17.585938 22.148438 17.636719 22.238281 17.65625 C 22.316406 17.675781 22.398438 17.683594 22.480469 17.679688 C 22.699219 17.632812 22.820312 17.722656 22.839844 17.941406 C 22.839844 18.066406 22.785156 18.148438 22.671875 18.195312 C 22.132812 18.304688 21.726562 18.125 21.460938 17.65625 C 20.761719 16.332031 20.074219 15.003906 19.394531 13.671875 C 19.027344 12.714844 18.613281 11.777344 18.160156 10.863281 C 18.078125 10.636719 17.964844 10.429688 17.824219 10.238281 C 17.824219 10.199219 17.808594 10.175781 17.773438 10.164062 C 17.71875 10.09375 17.65625 10.03125 17.582031 9.972656 C 17.542969 9.9375 17.496094 9.917969 17.4375 9.925781 C 17.023438 9.976562 16.675781 9.847656 16.394531 9.542969 C 16.230469 9.058594 16.359375 8.679688 16.789062 8.402344 C 17.277344 8.164062 17.742188 8.203125 18.183594 8.519531 C 18.457031 8.765625 18.679688 9.046875 18.84375 9.375 C 19.175781 10.109375 19.527344 10.839844 19.898438 11.558594 C 20.644531 12.828125 21.332031 14.132812 21.964844 15.46875 C 22.226562 16.058594 22.472656 16.648438 22.707031 17.246094 C 22.757812 17.449219 22.683594 17.523438 22.480469 17.460938 Z M 21.734375 17.054688 C 21.769531 17.066406 21.785156 17.089844 21.785156 17.125 C 21.75 17.117188 21.734375 17.089844 21.734375 17.054688 Z M 21.734375 17.054688 "/>
</g>
<mask id="mask2">
  <g filter="url(#alpha)">
<rect x="0" y="0" width="50" height="50" style="fill:rgb(0%,0%,0%);fill-opacity:0.996078;stroke:none;"/>
  </g>
</mask>
<clipPath id="clip3">
  <rect width="50" height="50"/>
</clipPath>
<g id="surface12" clip-path="url(#clip3)">
<path style=" stroke:none;fill-rule:evenodd;fill:rgb(98.431373%,98.431373%,98.431373%);fill-opacity:1;" d="M 22.480469 17.460938 C 22.480469 17.535156 22.480469 17.605469 22.480469 17.679688 C 22.398438 17.683594 22.316406 17.675781 22.238281 17.65625 C 22.085938 17.476562 21.933594 17.300781 21.785156 17.125 C 21.785156 17.089844 21.769531 17.066406 21.734375 17.054688 C 21.71875 17.054688 21.710938 17.046875 21.710938 17.03125 C 21.0625 15.867188 20.441406 14.683594 19.851562 13.476562 C 19.332031 12.359375 18.8125 11.238281 18.289062 10.117188 C 18.21875 10.011719 18.148438 9.910156 18.074219 9.804688 C 17.796875 9.515625 17.457031 9.398438 17.054688 9.457031 C 16.96875 9.445312 16.890625 9.40625 16.828125 9.347656 C 16.75 9.109375 16.816406 8.921875 17.03125 8.785156 C 17.300781 8.695312 17.566406 8.710938 17.824219 8.832031 C 18.085938 9.011719 18.289062 9.238281 18.433594 9.515625 C 18.71875 10.160156 19.023438 10.792969 19.347656 11.414062 C 19.734375 12.097656 20.125 12.777344 20.523438 13.453125 C 21.253906 14.75 21.902344 16.089844 22.480469 17.460938 Z M 22.480469 17.460938 "/>
</g>
<mask id="mask3">
  <g filter="url(#alpha)">
<rect x="0" y="0" width="50" height="50" style="fill:rgb(0%,0%,0%);fill-opacity:0.219608;stroke:none;"/>
  </g>
</mask>
<clipPath id="clip4">
  <rect width="50" height="50"/>
</clipPath>
<g id="surface15" clip-path="url(#clip4)">
<path style=" stroke:none;fill-rule:evenodd;fill:rgb(91.372549%,91.372549%,91.372549%);fill-opacity:1;" d="M 17.4375 9.925781 C 17.496094 9.917969 17.542969 9.9375 17.582031 9.972656 C 17.527344 9.972656 17.480469 9.957031 17.4375 9.925781 Z M 17.4375 9.925781 "/>
</g>
<mask id="mask4">
  <g filter="url(#alpha)">
<rect x="0" y="0" width="50" height="50" style="fill:rgb(0%,0%,0%);fill-opacity:0.0627451;stroke:none;"/>
  </g>
</mask>
<clipPath id="clip5">
  <rect width="50" height="50"/>
</clipPath>
<g id="surface18" clip-path="url(#clip5)">
<path style=" stroke:none;fill-rule:evenodd;fill:rgb(80.784314%,80.784314%,80.784314%);fill-opacity:1;" d="M 17.773438 10.164062 C 17.808594 10.175781 17.824219 10.199219 17.824219 10.238281 C 17.789062 10.226562 17.773438 10.203125 17.773438 10.164062 Z M 17.773438 10.164062 "/>
</g>
<mask id="mask5">
  <g filter="url(#alpha)">
<rect x="0" y="0" width="50" height="50" style="fill:rgb(0%,0%,0%);fill-opacity:0.509804;stroke:none;"/>
  </g>
</mask>
<clipPath id="clip6">
  <rect width="50" height="50"/>
</clipPath>
<g id="surface21" clip-path="url(#clip6)">
<path style=" stroke:none;fill-rule:evenodd;fill:rgb(90.588235%,90.588235%,90.588235%);fill-opacity:1;" d="M 17.824219 10.238281 C 17.964844 10.429688 18.078125 10.636719 18.160156 10.863281 C 18.035156 10.660156 17.921875 10.453125 17.824219 10.238281 Z M 17.824219 10.238281 "/>
</g>
<mask id="mask6">
  <g filter="url(#alpha)">
<rect x="0" y="0" width="50" height="50" style="fill:rgb(0%,0%,0%);fill-opacity:0.964706;stroke:none;"/>
  </g>
</mask>
<clipPath id="clip7">
  <rect width="50" height="50"/>
</clipPath>
<g id="surface24" clip-path="url(#clip7)">
<path style=" stroke:none;fill-rule:evenodd;fill:rgb(0%,0%,0%);fill-opacity:1;" d="M 48.546875 15.160156 C 48.730469 15.480469 48.828125 15.824219 48.835938 16.191406 C 48.757812 16.839844 48.453125 17.355469 47.921875 17.738281 C 47.273438 18.148438 46.5625 18.34375 45.789062 18.328125 C 45.011719 18.296875 44.253906 18.179688 43.507812 17.96875 C 43.457031 18.734375 43.410156 19.503906 43.363281 20.269531 C 43.378906 20.957031 43.394531 21.640625 43.410156 22.324219 C 43.355469 23.769531 43.304688 25.21875 43.265625 26.667969 C 43.265625 27.113281 43.277344 27.558594 43.304688 28 C 43.410156 29.121094 43.503906 30.238281 43.589844 31.359375 C 43.695312 33.542969 43.75 35.730469 43.757812 37.914062 C 43.984375 38.171875 44.234375 38.390625 44.515625 38.574219 C 45.195312 38.96875 45.882812 39.355469 46.578125 39.726562 C 47 39.980469 47.417969 40.246094 47.828125 40.519531 C 48.0625 40.671875 48.265625 40.859375 48.441406 41.082031 C 48.507812 41.257812 48.480469 41.414062 48.355469 41.550781 C 48.246094 41.617188 48.136719 41.625 48.019531 41.574219 C 47.621094 41.191406 47.191406 40.855469 46.722656 40.566406 C 45.984375 40.136719 45.238281 39.710938 44.492188 39.292969 C 44.242188 39.152344 44.003906 38.988281 43.78125 38.800781 C 43.796875 39.097656 43.796875 39.394531 43.78125 39.691406 C 43.773438 39.84375 43.746094 39.996094 43.710938 40.144531 C 43.625 40.273438 43.507812 40.308594 43.363281 40.253906 C 43.285156 40.210938 43.226562 40.152344 43.183594 40.074219 C 43.089844 39.929688 43.015625 39.777344 42.953125 39.617188 C 42.988281 39.449219 43.09375 39.367188 43.265625 39.378906 C 43.253906 39 43.25 38.625 43.253906 38.25 C 43.199219 38.179688 43.144531 38.105469 43.085938 38.035156 C 42.953125 38.160156 42.8125 38.273438 42.667969 38.382812 C 42.429688 38.476562 42.203125 38.597656 41.996094 38.742188 C 41.433594 39.183594 40.867188 39.617188 40.289062 40.039062 C 39.53125 40.707031 38.796875 41.402344 38.082031 42.125 C 37.777344 42.417969 37.457031 42.6875 37.121094 42.941406 C 36.972656 42.972656 36.878906 42.917969 36.832031 42.773438 C 36.871094 42.6875 36.925781 42.617188 37 42.558594 C 37.191406 42.40625 37.378906 42.246094 37.554688 42.078125 C 38.210938 41.398438 38.875 40.726562 39.546875 40.0625 C 39.707031 39.917969 39.867188 39.773438 40.027344 39.628906 C 40.613281 39.171875 41.199219 38.707031 41.777344 38.238281 C 41.984375 38.101562 42.199219 37.980469 42.425781 37.878906 C 42.617188 37.703125 42.824219 37.550781 43.050781 37.421875 C 43.121094 37.410156 43.195312 37.40625 43.265625 37.410156 C 43.246094 35.070312 43.175781 32.734375 43.0625 30.402344 C 42.941406 29.15625 42.859375 27.90625 42.8125 26.65625 C 42.867188 25.230469 42.929688 23.808594 42.992188 22.382812 C 43 21.511719 43.007812 20.640625 43.015625 19.765625 C 43.074219 19.132812 43.128906 18.503906 43.183594 17.871094 C 41.523438 17.34375 39.929688 16.667969 38.394531 15.84375 C 37.910156 15.578125 37.429688 15.3125 36.953125 15.039062 C 36.726562 14.894531 36.496094 14.757812 36.257812 14.628906 C 36.160156 14.605469 36.121094 14.539062 36.136719 14.4375 C 36.199219 14.34375 36.277344 14.324219 36.378906 14.378906 C 38.246094 15.476562 40.195312 16.398438 42.234375 17.140625 C 43.148438 17.46875 44.082031 17.710938 45.042969 17.859375 C 45.703125 17.941406 46.351562 17.894531 46.988281 17.714844 C 47.148438 17.652344 47.300781 17.574219 47.445312 17.488281 C 47.460938 17.488281 47.46875 17.480469 47.46875 17.460938 C 47.476562 17.460938 47.484375 17.460938 47.492188 17.460938 C 47.507812 17.460938 47.515625 17.453125 47.515625 17.4375 C 47.53125 17.429688 47.546875 17.421875 47.5625 17.414062 C 47.578125 17.414062 47.585938 17.40625 47.585938 17.390625 C 48.191406 17.019531 48.441406 16.484375 48.34375 15.78125 C 48.261719 15.566406 48.152344 15.363281 48.007812 15.183594 C 47.71875 14.867188 47.394531 14.601562 47.035156 14.378906 C 46.550781 14.101562 46.0625 13.828125 45.570312 13.5625 C 45.074219 13.214844 44.570312 12.878906 44.058594 12.554688 C 42.945312 11.980469 41.777344 11.546875 40.554688 11.257812 C 39.945312 11.136719 39.328125 11.097656 38.707031 11.136719 C 37.875 11.265625 37.042969 11.394531 36.210938 11.523438 C 36.082031 11.546875 35.972656 11.609375 35.886719 11.703125 C 35.863281 11.804688 35.878906 11.902344 35.933594 11.988281 C 36.011719 12.097656 36.101562 12.191406 36.210938 12.265625 C 36.753906 12.617188 37.3125 12.945312 37.890625 13.25 C 38.027344 13.386719 38.011719 13.507812 37.84375 13.609375 C 37.792969 13.625 37.746094 13.625 37.699219 13.609375 C 37.171875 13.386719 36.660156 13.140625 36.160156 12.867188 C 36.027344 12.761719 35.890625 12.660156 35.753906 12.566406 C 35.445312 12.289062 35.328125 11.945312 35.40625 11.535156 C 35.488281 11.320312 35.636719 11.171875 35.851562 11.089844 C 36.03125 11.039062 36.214844 10.996094 36.402344 10.96875 C 37.242188 10.851562 38.082031 10.738281 38.921875 10.632812 C 39.90625 10.621094 40.867188 10.769531 41.800781 11.089844 C 42.605469 11.351562 43.382812 11.679688 44.132812 12.074219 C 44.769531 12.464844 45.402344 12.863281 46.027344 13.273438 C 46.546875 13.566406 47.058594 13.871094 47.5625 14.1875 C 47.953125 14.449219 48.28125 14.773438 48.546875 15.160156 Z M 48.546875 15.160156 "/>
</g>
<mask id="mask7">
  <g filter="url(#alpha)">
<rect x="0" y="0" width="50" height="50" style="fill:rgb(0%,0%,0%);fill-opacity:0.756863;stroke:none;"/>
  </g>
</mask>
<clipPath id="clip8">
  <rect width="50" height="50"/>
</clipPath>
<g id="surface27" clip-path="url(#clip8)">
<path style=" stroke:none;fill-rule:evenodd;fill:rgb(94.509804%,94.509804%,94.509804%);fill-opacity:1;" d="M 2.675781 10.980469 C 3.320312 11.664062 3.921875 12.386719 4.476562 13.140625 C 3.839844 12.449219 3.242188 11.730469 2.675781 10.980469 Z M 2.675781 10.980469 "/>
</g>
<mask id="mask8">
  <g filter="url(#alpha)">
<rect x="0" y="0" width="50" height="50" style="fill:rgb(0%,0%,0%);fill-opacity:0.121569;stroke:none;"/>
  </g>
</mask>
<clipPath id="clip9">
  <rect width="50" height="50"/>
</clipPath>
<g id="surface30" clip-path="url(#clip9)">
<path style=" stroke:none;fill-rule:evenodd;fill:rgb(61.960784%,61.960784%,61.960784%);fill-opacity:1;" d="M 4.523438 13.191406 C 4.558594 13.203125 4.574219 13.226562 4.574219 13.261719 C 4.539062 13.25 4.523438 13.226562 4.523438 13.191406 Z M 4.523438 13.191406 "/>
</g>
<mask id="mask9">
  <g filter="url(#alpha)">
<rect x="0" y="0" width="50" height="50" style="fill:rgb(0%,0%,0%);fill-opacity:0.972549;stroke:none;"/>
  </g>
</mask>
<clipPath id="clip10">
  <rect width="50" height="50"/>
</clipPath>
<g id="surface33" clip-path="url(#clip10)">
<path style=" stroke:none;fill-rule:evenodd;fill:rgb(0.784314%,0.784314%,0.784314%);fill-opacity:1;" d="M 33.304688 14.773438 C 33.417969 14.871094 33.539062 14.957031 33.664062 15.039062 C 33.875 15.191406 33.972656 15.398438 33.953125 15.664062 C 33.9375 16.210938 33.660156 16.539062 33.125 16.648438 C 33.046875 16.632812 32.972656 16.613281 32.898438 16.585938 C 32.796875 16.507812 32.703125 16.421875 32.609375 16.335938 C 31.859375 16.761719 31.15625 17.253906 30.496094 17.8125 C 29.484375 18.664062 28.480469 19.539062 27.496094 20.425781 C 27.21875 20.601562 26.941406 20.769531 26.65625 20.929688 C 26.457031 21.109375 26.246094 21.277344 26.03125 21.433594 C 25.890625 21.488281 25.773438 21.449219 25.683594 21.328125 C 25.523438 20.679688 25.6875 20.132812 26.175781 19.683594 C 26.226562 19.660156 26.277344 19.648438 26.332031 19.648438 C 26.402344 19.660156 26.46875 19.664062 26.535156 19.660156 C 26.992188 19.335938 27.441406 19 27.878906 18.652344 C 29.101562 17.53125 30.324219 16.421875 31.554688 15.3125 C 31.800781 15.144531 32.050781 14.976562 32.296875 14.808594 C 32.429688 14.636719 32.601562 14.507812 32.800781 14.425781 C 32.925781 14.390625 33.035156 14.421875 33.125 14.511719 C 33.164062 14.613281 33.222656 14.703125 33.304688 14.773438 Z M 33.402344 15.925781 C 33.394531 15.972656 33.371094 16.003906 33.328125 16.023438 C 33.335938 15.976562 33.359375 15.945312 33.402344 15.925781 Z M 33.402344 15.925781 "/>
</g>
<mask id="mask10">
  <g filter="url(#alpha)">
<rect x="0" y="0" width="50" height="50" style="fill:rgb(0%,0%,0%);fill-opacity:0.729412;stroke:none;"/>
  </g>
</mask>
<clipPath id="clip11">
  <rect width="50" height="50"/>
</clipPath>
<g id="surface36" clip-path="url(#clip11)">
<path style=" stroke:none;fill-rule:evenodd;fill:rgb(89.803922%,89.803922%,89.803922%);fill-opacity:1;" d="M 36.257812 14.628906 C 36.496094 14.757812 36.726562 14.894531 36.953125 15.039062 C 36.738281 14.929688 36.523438 14.824219 36.304688 14.714844 C 36.273438 14.695312 36.257812 14.667969 36.257812 14.628906 Z M 36.257812 14.628906 "/>
</g>
<mask id="mask11">
  <g filter="url(#alpha)">
<rect x="0" y="0" width="50" height="50" style="fill:rgb(0%,0%,0%);fill-opacity:0.654902;stroke:none;"/>
  </g>
</mask>
<clipPath id="clip12">
  <rect width="50" height="50"/>
</clipPath>
<g id="surface39" clip-path="url(#clip12)">
<path style=" stroke:none;fill-rule:evenodd;fill:rgb(93.333333%,93.333333%,93.333333%);fill-opacity:1;" d="M 33.304688 14.773438 C 33.460938 14.820312 33.582031 14.90625 33.664062 15.039062 C 33.539062 14.957031 33.417969 14.871094 33.304688 14.773438 Z M 33.304688 14.773438 "/>
</g>
<mask id="mask12">
  <g filter="url(#alpha)">
<rect x="0" y="0" width="50" height="50" style="fill:rgb(0%,0%,0%);fill-opacity:0.996078;stroke:none;"/>
  </g>
</mask>
<clipPath id="clip13">
  <rect width="50" height="50"/>
</clipPath>
<g id="surface42" clip-path="url(#clip13)">
<path style=" stroke:none;fill-rule:evenodd;fill:rgb(98.039216%,98.039216%,98.039216%);fill-opacity:1;" d="M 33.449219 15.855469 C 33.433594 15.855469 33.425781 15.863281 33.425781 15.878906 C 33.40625 15.886719 33.398438 15.902344 33.402344 15.925781 C 33.359375 15.945312 33.335938 15.976562 33.328125 16.023438 C 33.3125 16.023438 33.304688 16.03125 33.304688 16.046875 C 33.289062 16.046875 33.28125 16.054688 33.28125 16.070312 C 33.265625 16.070312 33.257812 16.078125 33.257812 16.09375 C 33.242188 16.09375 33.234375 16.101562 33.234375 16.117188 C 33.179688 16.144531 33.125 16.148438 33.066406 16.128906 C 32.984375 16.03125 32.894531 15.933594 32.800781 15.84375 C 32.722656 15.808594 32.644531 15.800781 32.5625 15.820312 C 31.820312 16.21875 31.125 16.679688 30.472656 17.210938 C 29.347656 18.144531 28.234375 19.097656 27.136719 20.066406 C 26.902344 20.222656 26.664062 20.367188 26.417969 20.5 C 26.332031 20.566406 26.25 20.636719 26.164062 20.703125 C 26.148438 20.664062 26.148438 20.625 26.164062 20.582031 C 26.253906 20.382812 26.378906 20.207031 26.535156 20.054688 C 27.105469 19.699219 27.65625 19.320312 28.191406 18.914062 C 29.363281 17.839844 30.546875 16.785156 31.746094 15.746094 C 31.933594 15.585938 32.132812 15.441406 32.34375 15.3125 C 32.488281 15.175781 32.640625 15.050781 32.800781 14.929688 C 32.816406 14.914062 32.832031 14.914062 32.847656 14.929688 C 33.039062 15.109375 33.234375 15.28125 33.4375 15.445312 C 33.511719 15.582031 33.515625 15.71875 33.449219 15.855469 Z M 33.449219 15.855469 "/>
</g>
<mask id="mask13">
  <g filter="url(#alpha)">
<rect x="0" y="0" width="50" height="50" style="fill:rgb(0%,0%,0%);fill-opacity:0.866667;stroke:none;"/>
  </g>
</mask>
<clipPath id="clip14">
  <rect width="50" height="50"/>
</clipPath>
<g id="surface45" clip-path="url(#clip14)">
<path style=" stroke:none;fill-rule:evenodd;fill:rgb(94.509804%,94.509804%,94.509804%);fill-opacity:1;" d="M 48.546875 15.160156 C 48.902344 15.429688 48.996094 15.773438 48.835938 16.191406 C 48.828125 15.824219 48.730469 15.480469 48.546875 15.160156 Z M 48.546875 15.160156 "/>
</g>
<mask id="mask14">
  <g filter="url(#alpha)">
<rect x="0" y="0" width="50" height="50" style="fill:rgb(0%,0%,0%);fill-opacity:0.984314;stroke:none;"/>
  </g>
</mask>
<clipPath id="clip15">
  <rect width="50" height="50"/>
</clipPath>
<g id="surface48" clip-path="url(#clip15)">
<path style=" stroke:none;fill-rule:evenodd;fill:rgb(0.392157%,0.392157%,0.392157%);fill-opacity:1;" d="M 35.128906 29.753906 C 35.082031 29.714844 35.035156 29.671875 34.984375 29.632812 C 34.957031 29.664062 34.964844 29.6875 35.007812 29.703125 C 35.109375 30.15625 35.175781 30.613281 35.214844 31.074219 C 35.261719 32.082031 35.285156 33.089844 35.285156 34.097656 C 35.277344 34.515625 35.238281 34.933594 35.164062 35.34375 C 34.945312 36.167969 34.769531 37 34.636719 37.84375 C 34.429688 38.296875 34.246094 38.761719 34.085938 39.234375 C 34.019531 39.375 33.949219 39.511719 33.871094 39.640625 C 33.703125 39.832031 33.527344 40.019531 33.339844 40.195312 C 33.175781 40.472656 33 40.746094 32.8125 41.011719 C 32.492188 41.285156 32.203125 41.589844 31.949219 41.921875 C 31.546875 42.316406 31.113281 42.664062 30.640625 42.96875 C 30.371094 43.121094 30.085938 43.214844 29.777344 43.253906 C 28.542969 43.285156 27.3125 43.300781 26.082031 43.304688 C 25.5 43.351562 24.921875 43.394531 24.339844 43.433594 C 22.808594 43.558594 21.308594 43.386719 19.839844 42.917969 C 17.3125 42.175781 15.25 40.761719 13.65625 38.683594 C 13.050781 37.894531 12.675781 37.007812 12.53125 36.019531 C 12.109375 33.410156 12.710938 31.074219 14.332031 29.007812 C 14.539062 28.78125 14.765625 28.574219 15.003906 28.382812 C 15.003906 28.289062 15.027344 28.203125 15.074219 28.121094 C 15.304688 27.921875 15.5 27.695312 15.664062 27.4375 C 15.1875 27.484375 14.714844 27.5625 14.246094 27.675781 C 14.085938 27.683594 13.925781 27.691406 13.765625 27.699219 C 13.546875 27.773438 13.332031 27.855469 13.117188 27.941406 C 12.808594 28.003906 12.554688 27.914062 12.363281 27.664062 C 12.265625 27.425781 12.144531 27.203125 12 26.992188 C 11.464844 26.488281 11 25.929688 10.609375 25.3125 C 10.554688 25.226562 10.519531 25.132812 10.5 25.035156 C 10.503906 24.921875 10.558594 24.851562 10.667969 24.820312 C 10.433594 24.113281 10.453125 23.414062 10.730469 22.71875 C 11.058594 21.960938 11.574219 21.363281 12.277344 20.929688 C 12.625 20.710938 12.984375 20.515625 13.359375 20.34375 C 13.375 20.285156 13.398438 20.230469 13.417969 20.175781 C 13.882812 19.667969 14.402344 19.222656 14.964844 18.84375 C 15.425781 18.574219 15.921875 18.453125 16.453125 18.472656 C 17.679688 18.480469 18.855469 18.722656 19.984375 19.203125 C 20.4375 19.398438 20.832031 19.675781 21.171875 20.03125 C 21.253906 20.132812 21.320312 20.246094 21.375 20.367188 C 21.617188 20.398438 21.796875 20.519531 21.914062 20.726562 C 22.175781 21.371094 22.332031 22.039062 22.382812 22.730469 C 22.40625 23.351562 22.1875 23.871094 21.734375 24.292969 C 21.570312 24.417969 21.410156 24.554688 21.253906 24.699219 C 21.742188 24.644531 22.230469 24.589844 22.71875 24.53125 C 23.488281 24.285156 24.277344 24.160156 25.085938 24.160156 C 25.535156 24.179688 25.988281 24.183594 26.441406 24.171875 C 27.015625 24.121094 27.59375 24.074219 28.167969 24.027344 C 28.679688 23.996094 29.191406 23.988281 29.703125 24.003906 C 29.824219 24.023438 29.9375 24.0625 30.039062 24.125 C 30.191406 24.21875 30.335938 24.324219 30.472656 24.4375 C 30.953125 24.699219 31.425781 24.976562 31.890625 25.265625 C 31.898438 25.257812 31.90625 25.246094 31.914062 25.238281 C 31.796875 24.589844 31.75 23.933594 31.78125 23.273438 C 32.097656 22.257812 32.734375 21.519531 33.6875 21.050781 C 34.046875 20.917969 34.414062 20.855469 34.792969 20.871094 C 35.597656 20.910156 36.390625 21.023438 37.171875 21.21875 C 37.757812 21.480469 38.335938 21.769531 38.898438 22.082031 C 39.378906 22.421875 39.800781 22.824219 40.160156 23.296875 C 40.308594 23.601562 40.351562 23.921875 40.289062 24.257812 C 40.476562 24.269531 40.539062 24.367188 40.46875 24.542969 C 40.226562 25.144531 40.003906 25.753906 39.796875 26.367188 C 39.429688 27.277344 39.042969 28.183594 38.644531 29.082031 C 38.371094 29.585938 37.949219 29.902344 37.386719 30.027344 C 36.59375 30.246094 35.839844 30.15625 35.128906 29.753906 Z M 20.847656 25.457031 C 20.675781 25.535156 20.5 25.609375 20.320312 25.671875 C 20.445312 25.496094 20.621094 25.421875 20.847656 25.457031 Z M 38.179688 28.886719 C 38.65625 27.800781 39.113281 26.707031 39.546875 25.601562 C 39.59375 25.566406 39.636719 25.523438 39.679688 25.480469 C 39.628906 25.640625 39.570312 25.800781 39.511719 25.960938 C 39.117188 26.808594 38.738281 27.664062 38.382812 28.527344 C 38.324219 28.65625 38.257812 28.777344 38.179688 28.886719 Z M 18.878906 26.296875 C 18.847656 26.332031 18.808594 26.347656 18.757812 26.34375 C 18.789062 26.308594 18.828125 26.292969 18.878906 26.296875 Z M 18.710938 26.367188 C 17.917969 26.773438 17.136719 27.1875 16.359375 27.617188 C 16.492188 27.421875 16.652344 27.25 16.839844 27.101562 C 17.460938 26.855469 18.085938 26.609375 18.710938 26.367188 Z M 14.941406 28.914062 C 14.613281 29.417969 14.289062 29.929688 13.96875 30.449219 C 13.820312 30.730469 13.671875 31.011719 13.527344 31.289062 C 13.800781 30.582031 14.148438 29.917969 14.570312 29.296875 C 14.683594 29.15625 14.804688 29.027344 14.941406 28.914062 Z M 13.527344 31.289062 C 13.527344 31.339844 13.511719 31.378906 13.476562 31.410156 C 13.476562 31.359375 13.492188 31.320312 13.527344 31.289062 Z M 13.527344 31.289062 "/>
</g>
<mask id="mask15">
  <g filter="url(#alpha)">
<rect x="0" y="0" width="50" height="50" style="fill:rgb(0%,0%,0%);fill-opacity:0.529412;stroke:none;"/>
  </g>
</mask>
<clipPath id="clip16">
  <rect width="50" height="50"/>
</clipPath>
<g id="surface51" clip-path="url(#clip16)">
<path style=" stroke:none;fill-rule:evenodd;fill:rgb(83.137255%,83.137255%,83.137255%);fill-opacity:1;" d="M 12.710938 19.382812 C 12.574219 19.425781 12.429688 19.449219 12.277344 19.457031 C 12.234375 19.453125 12.191406 19.445312 12.15625 19.429688 C 12.335938 19.40625 12.523438 19.390625 12.710938 19.382812 Z M 12.710938 19.382812 "/>
</g>
<mask id="mask16">
  <g filter="url(#alpha)">
<rect x="0" y="0" width="50" height="50" style="fill:rgb(0%,0%,0%);fill-opacity:0.992157;stroke:none;"/>
  </g>
</mask>
<clipPath id="clip17">
  <rect width="50" height="50"/>
</clipPath>
<g id="surface54" clip-path="url(#clip17)">
<path style=" stroke:none;fill-rule:evenodd;fill:rgb(99.215686%,99.215686%,99.215686%);fill-opacity:1;" d="M 39.546875 25.601562 C 39.113281 26.707031 38.65625 27.800781 38.179688 28.886719 C 38.089844 29.117188 37.929688 29.28125 37.699219 29.378906 C 36.679688 29.84375 35.757812 29.703125 34.9375 28.960938 C 35.617188 28.84375 36.234375 28.578125 36.785156 28.15625 C 37.519531 27.570312 38.167969 26.902344 38.730469 26.152344 C 39.027344 26.007812 39.300781 25.824219 39.546875 25.601562 Z M 39.546875 25.601562 "/>
</g>
<mask id="mask17">
  <g filter="url(#alpha)">
<rect x="0" y="0" width="50" height="50" style="fill:rgb(0%,0%,0%);fill-opacity:0.666667;stroke:none;"/>
  </g>
</mask>
<clipPath id="clip18">
  <rect width="50" height="50"/>
</clipPath>
<g id="surface57" clip-path="url(#clip18)">
<path style=" stroke:none;fill-rule:evenodd;fill:rgb(78.431373%,78.431373%,78.431373%);fill-opacity:1;" d="M 35.128906 29.753906 C 35.085938 29.742188 35.046875 29.726562 35.007812 29.703125 C 34.964844 29.6875 34.957031 29.664062 34.984375 29.632812 C 35.035156 29.671875 35.082031 29.714844 35.128906 29.753906 Z M 35.128906 29.753906 "/>
</g>
</defs>
<g id="surface1">
<use xlink:href="#surface6" mask="url(#mask0)"/>
<path style=" stroke:none;fill-rule:evenodd;fill:rgb(99.607843%,99.607843%,99.607843%);fill-opacity:1;" d="M 14.390625 17.65625 C 14.375 17.65625 14.367188 17.664062 14.367188 17.679688 C 14.367188 17.6875 14.367188 17.695312 14.367188 17.703125 C 14.351562 17.703125 14.34375 17.710938 14.34375 17.726562 C 14.34375 17.734375 14.34375 17.742188 14.34375 17.75 C 14.242188 17.886719 14.152344 18.03125 14.078125 18.183594 C 14.0625 18.183594 14.054688 18.191406 14.054688 18.207031 C 14.039062 18.207031 14.03125 18.214844 14.03125 18.230469 C 13.984375 18.292969 13.9375 18.351562 13.886719 18.410156 C 13.554688 18.664062 13.1875 18.839844 12.78125 18.9375 C 12 19.078125 11.242188 19.003906 10.5 18.722656 C 9.664062 18.378906 8.929688 17.886719 8.292969 17.246094 C 8.324219 17.222656 8.355469 17.226562 8.390625 17.257812 C 9.269531 17.875 10.246094 18.25 11.316406 18.386719 C 11.867188 18.453125 12.378906 18.347656 12.855469 18.074219 C 12.945312 17.984375 13.039062 17.890625 13.128906 17.800781 C 13.332031 17.453125 13.300781 17.132812 13.035156 16.839844 C 12.796875 16.613281 12.527344 16.433594 12.230469 16.296875 C 11.753906 16.167969 11.289062 16 10.835938 15.792969 C 9.949219 15.367188 9.101562 14.878906 8.292969 14.332031 C 7.1875 13.496094 6.460938 12.402344 6.121094 11.054688 C 6.023438 10.632812 5.941406 10.210938 5.882812 9.78125 C 5.664062 9.261719 5.316406 8.847656 4.835938 8.546875 C 4.585938 8.421875 4.332031 8.40625 4.070312 8.496094 C 3.832031 8.585938 3.628906 8.714844 3.457031 8.894531 C 3.34375 9.105469 3.320312 9.332031 3.382812 9.566406 C 3.460938 9.832031 3.550781 10.097656 3.648438 10.359375 C 4.050781 11.257812 4.480469 12.144531 4.933594 13.023438 C 4.929688 13.035156 4.921875 13.042969 4.910156 13.046875 C 4.070312 11.945312 3.160156 10.898438 2.183594 9.902344 C 1.96875 9.59375 1.878906 9.25 1.921875 8.871094 C 1.867188 8.804688 1.800781 8.78125 1.714844 8.796875 C 1.730469 8.710938 1.738281 8.621094 1.742188 8.535156 C 1.898438 8.78125 2.066406 9.027344 2.246094 9.265625 C 2.320312 9.300781 2.402344 9.308594 2.484375 9.289062 C 2.617188 9.234375 2.664062 9.132812 2.617188 8.988281 C 2.410156 8.742188 2.242188 8.46875 2.113281 8.171875 C 2.0625 8.054688 2.050781 7.933594 2.078125 7.8125 C 2.277344 7.566406 2.5 7.339844 2.75 7.140625 C 2.773438 7.144531 2.789062 7.136719 2.796875 7.117188 C 2.875 7.078125 2.957031 7.050781 3.046875 7.046875 C 3.914062 7.027344 4.773438 7.085938 5.628906 7.226562 C 6.101562 7.304688 6.550781 7.457031 6.972656 7.679688 C 7.503906 8.03125 8.015625 8.40625 8.507812 8.808594 C 9.238281 9.449219 9.957031 10.097656 10.667969 10.753906 C 11.789062 11.800781 12.746094 12.972656 13.539062 14.269531 C 13.902344 14.828125 14.183594 15.429688 14.378906 16.070312 C 14.515625 16.597656 14.519531 17.125 14.390625 17.65625 Z M 14.390625 17.65625 "/>
<use xlink:href="#surface9" mask="url(#mask1)"/>
<path style=" stroke:none;fill-rule:evenodd;fill:rgb(63.137255%,57.254902%,59.215686%);fill-opacity:1;" d="M 8.292969 17.246094 C 7.835938 16.792969 7.40625 16.3125 7.007812 15.804688 C 7.007812 15.621094 7.019531 15.4375 7.046875 15.253906 C 7.039062 15.230469 7.03125 15.207031 7.019531 15.183594 C 6.945312 15.121094 6.867188 15.121094 6.792969 15.183594 C 6.773438 15.277344 6.757812 15.375 6.746094 15.46875 C 6.144531 14.652344 5.53125 13.84375 4.910156 13.046875 C 4.921875 13.042969 4.929688 13.035156 4.933594 13.023438 C 4.480469 12.144531 4.050781 11.257812 3.648438 10.359375 C 3.550781 10.097656 3.460938 9.832031 3.382812 9.566406 C 3.320312 9.332031 3.34375 9.105469 3.457031 8.894531 C 3.628906 8.714844 3.832031 8.585938 4.070312 8.496094 C 4.332031 8.40625 4.585938 8.421875 4.835938 8.546875 C 5.316406 8.847656 5.664062 9.261719 5.882812 9.78125 C 5.941406 10.210938 6.023438 10.632812 6.121094 11.054688 C 6.460938 12.402344 7.1875 13.496094 8.292969 14.332031 C 9.101562 14.878906 9.949219 15.367188 10.835938 15.792969 C 11.289062 16 11.753906 16.167969 12.230469 16.296875 C 12.527344 16.433594 12.796875 16.613281 13.035156 16.839844 C 13.300781 17.132812 13.332031 17.453125 13.128906 17.800781 C 13.039062 17.890625 12.945312 17.984375 12.855469 18.074219 C 12.378906 18.347656 11.867188 18.453125 11.316406 18.386719 C 10.246094 18.25 9.269531 17.875 8.390625 17.257812 C 8.355469 17.226562 8.324219 17.222656 8.292969 17.246094 Z M 8.292969 17.246094 "/>
<use xlink:href="#surface12" mask="url(#mask2)"/>
<use xlink:href="#surface15" mask="url(#mask3)"/>
<use xlink:href="#surface18" mask="url(#mask4)"/>
<use xlink:href="#surface21" mask="url(#mask5)"/>
<use xlink:href="#surface24" mask="url(#mask6)"/>
<use xlink:href="#surface27" mask="url(#mask7)"/>
<path style=" stroke:none;fill-rule:evenodd;fill:rgb(99.215686%,99.215686%,99.215686%);fill-opacity:1;" d="M 47.585938 17.390625 C 47.570312 17.390625 47.5625 17.398438 47.5625 17.414062 C 47.546875 17.421875 47.53125 17.429688 47.515625 17.4375 C 47.5 17.4375 47.492188 17.445312 47.492188 17.460938 C 47.484375 17.460938 47.476562 17.460938 47.46875 17.460938 C 47.453125 17.460938 47.445312 17.472656 47.445312 17.488281 C 47.300781 17.574219 47.148438 17.652344 46.988281 17.714844 C 46.351562 17.894531 45.703125 17.941406 45.042969 17.859375 C 44.082031 17.710938 43.148438 17.46875 42.234375 17.140625 C 40.195312 16.398438 38.246094 15.476562 36.378906 14.378906 C 36.277344 14.324219 36.199219 14.34375 36.136719 14.4375 C 35.945312 14.105469 35.796875 13.753906 35.695312 13.382812 C 35.65625 13.191406 35.648438 13 35.667969 12.804688 C 35.6875 12.71875 35.714844 12.640625 35.753906 12.566406 C 35.890625 12.660156 36.027344 12.761719 36.160156 12.867188 C 36.660156 13.140625 37.171875 13.386719 37.699219 13.609375 C 37.746094 13.625 37.792969 13.625 37.84375 13.609375 C 38.011719 13.507812 38.027344 13.386719 37.890625 13.25 C 37.3125 12.945312 36.753906 12.617188 36.210938 12.265625 C 36.101562 12.191406 36.011719 12.097656 35.933594 11.988281 C 35.878906 11.902344 35.863281 11.804688 35.886719 11.703125 C 35.972656 11.609375 36.082031 11.546875 36.210938 11.523438 C 37.042969 11.394531 37.875 11.265625 38.707031 11.136719 C 39.328125 11.097656 39.945312 11.136719 40.554688 11.257812 C 41.777344 11.546875 42.945312 11.980469 44.058594 12.554688 C 44.570312 12.878906 45.074219 13.214844 45.570312 13.5625 C 46.0625 13.828125 46.550781 14.101562 47.035156 14.378906 C 47.394531 14.601562 47.71875 14.867188 48.007812 15.183594 C 48.152344 15.363281 48.261719 15.566406 48.34375 15.78125 C 48.441406 16.484375 48.191406 17.019531 47.585938 17.390625 Z M 47.585938 17.390625 "/>
<path style=" stroke:none;fill-rule:evenodd;fill:rgb(63.137255%,57.254902%,59.215686%);fill-opacity:1;" d="M 38.683594 11.535156 C 39.507812 11.496094 40.324219 11.570312 41.128906 11.761719 C 42.261719 12.023438 43.34375 12.425781 44.371094 12.960938 C 45.363281 13.554688 46.167969 14.34375 46.785156 15.328125 C 46.953125 15.601562 47.058594 15.898438 47.109375 16.214844 C 47.117188 16.441406 47.011719 16.582031 46.796875 16.632812 C 46.601562 16.652344 46.410156 16.652344 46.21875 16.632812 C 46.199219 16.613281 46.175781 16.597656 46.148438 16.585938 C 45.886719 16.160156 45.59375 15.753906 45.269531 15.375 C 44.890625 14.972656 44.503906 14.574219 44.105469 14.1875 C 43.28125 13.453125 42.320312 12.988281 41.226562 12.792969 C 40.703125 12.734375 40.183594 12.75 39.667969 12.84375 C 39.214844 12.875 38.765625 12.851562 38.320312 12.769531 C 38.105469 12.722656 37.914062 12.625 37.757812 12.46875 C 37.664062 12.277344 37.6875 12.101562 37.828125 11.941406 C 38.070312 11.710938 38.355469 11.574219 38.683594 11.535156 Z M 38.683594 11.535156 "/>
<path style=" stroke:none;fill-rule:evenodd;fill:rgb(1.176471%,1.176471%,1.176471%);fill-opacity:1;" d="M 8.246094 12.015625 C 8.566406 11.964844 8.691406 12.09375 8.617188 12.398438 C 8.597656 12.417969 8.578125 12.4375 8.558594 12.457031 C 8.449219 12.496094 8.335938 12.519531 8.222656 12.53125 C 8.179688 12.574219 8.148438 12.628906 8.125 12.6875 C 7.988281 12.792969 7.875 12.777344 7.777344 12.636719 C 7.742188 12.4375 7.8125 12.28125 7.980469 12.171875 C 8.078125 12.128906 8.167969 12.078125 8.246094 12.015625 Z M 8.246094 12.015625 "/>
<use xlink:href="#surface30" mask="url(#mask8)"/>
<path style=" stroke:none;fill-rule:evenodd;fill:rgb(2.352941%,2.352941%,2.352941%);fill-opacity:1;" d="M 41.777344 14.148438 C 41.929688 14.128906 42.027344 14.195312 42.066406 14.34375 C 42.179688 14.277344 42.292969 14.28125 42.402344 14.355469 C 42.484375 14.550781 42.417969 14.6875 42.210938 14.761719 C 41.800781 14.910156 41.613281 14.769531 41.648438 14.34375 C 41.671875 14.261719 41.71875 14.199219 41.777344 14.148438 Z M 41.777344 14.148438 "/>
<use xlink:href="#surface33" mask="url(#mask9)"/>
<use xlink:href="#surface36" mask="url(#mask10)"/>
<use xlink:href="#surface39" mask="url(#mask11)"/>
<use xlink:href="#surface42" mask="url(#mask12)"/>
<use xlink:href="#surface45" mask="url(#mask13)"/>
<use xlink:href="#surface48" mask="url(#mask14)"/>
<path style=" stroke:none;fill-rule:evenodd;fill:rgb(99.607843%,99.607843%,99.607843%);fill-opacity:1;" d="M 11.003906 23.390625 C 11.027344 23.359375 11.035156 23.316406 11.03125 23.273438 C 11.050781 23.253906 11.058594 23.230469 11.054688 23.199219 C 11.078125 23.175781 11.085938 23.140625 11.078125 23.105469 C 11.097656 23.085938 11.109375 23.0625 11.101562 23.03125 C 11.125 23.015625 11.132812 22.992188 11.125 22.960938 C 11.144531 22.953125 11.152344 22.933594 11.148438 22.910156 C 11.171875 22.894531 11.179688 22.871094 11.171875 22.839844 C 11.195312 22.832031 11.203125 22.816406 11.199219 22.792969 C 11.222656 22.757812 11.238281 22.71875 11.246094 22.671875 C 11.265625 22.664062 11.273438 22.648438 11.269531 22.625 C 11.289062 22.617188 11.296875 22.597656 11.292969 22.574219 C 11.5625 22.078125 11.929688 21.667969 12.398438 21.339844 C 12.753906 21.085938 13.132812 20.863281 13.527344 20.667969 C 13.722656 20.695312 13.882812 20.632812 14.007812 20.476562 C 14.070312 20.445312 14.132812 20.421875 14.199219 20.402344 C 14.757812 20.265625 15.316406 20.128906 15.878906 19.996094 C 15.953125 19.875 15.921875 19.808594 15.78125 19.792969 C 15.355469 19.859375 14.933594 19.929688 14.511719 19.996094 C 14.886719 19.570312 15.351562 19.28125 15.902344 19.132812 C 17.226562 19.054688 18.507812 19.253906 19.742188 19.730469 C 20.125 19.886719 20.464844 20.109375 20.761719 20.390625 C 20.96875 20.640625 21 20.910156 20.859375 21.207031 C 20.425781 22.085938 19.804688 22.800781 19 23.355469 C 18.789062 23.46875 18.582031 23.578125 18.375 23.691406 C 17.484375 24.085938 16.597656 24.484375 15.710938 24.890625 C 15.1875 25.113281 14.652344 25.296875 14.101562 25.445312 C 13.410156 25.5625 12.714844 25.601562 12.015625 25.5625 C 11.710938 25.476562 11.464844 25.304688 11.28125 25.046875 C 10.972656 24.535156 10.882812 23.980469 11.003906 23.390625 Z M 11.003906 23.390625 "/>
<use xlink:href="#surface51" mask="url(#mask15)"/>
<path style=" stroke:none;fill-rule:evenodd;fill:rgb(99.215686%,99.215686%,99.215686%);fill-opacity:1;" d="M 13.765625 27.183594 C 13.734375 27.1875 13.703125 27.183594 13.671875 27.171875 C 14.027344 26.9375 14.363281 26.671875 14.679688 26.378906 C 14.988281 26.074219 15.292969 25.765625 15.589844 25.457031 C 16.488281 25.046875 17.390625 24.652344 18.304688 24.269531 C 19.078125 23.949219 19.746094 23.480469 20.308594 22.863281 C 20.695312 22.425781 21.023438 21.945312 21.292969 21.421875 C 21.367188 21.273438 21.414062 21.113281 21.433594 20.941406 C 21.472656 20.996094 21.503906 21.050781 21.53125 21.113281 C 21.628906 21.464844 21.734375 21.816406 21.84375 22.167969 C 22 22.902344 21.804688 23.523438 21.253906 24.027344 C 20.9375 24.273438 20.640625 24.546875 20.367188 24.84375 C 19.503906 24.941406 18.6875 25.1875 17.917969 25.589844 C 17.4375 25.859375 16.972656 26.15625 16.527344 26.476562 C 16.414062 26.570312 16.300781 26.667969 16.191406 26.765625 C 16.027344 26.824219 15.859375 26.871094 15.6875 26.910156 C 15.214844 26.992188 14.742188 27.082031 14.269531 27.171875 C 14.101562 27.183594 13.933594 27.1875 13.765625 27.183594 Z M 13.765625 27.183594 "/>
<path style=" stroke:none;fill-rule:evenodd;fill:rgb(99.607843%,99.607843%,99.607843%);fill-opacity:1;" d="M 35.105469 25.839844 C 34.601562 25.648438 34.152344 25.363281 33.761719 24.988281 C 33.359375 24.582031 33.007812 24.136719 32.707031 23.65625 C 32.785156 23.503906 32.757812 23.375 32.621094 23.273438 C 32.511719 23.125 32.511719 22.980469 32.621094 22.839844 C 32.625 22.675781 32.679688 22.53125 32.789062 22.40625 C 33.390625 21.578125 34.203125 21.230469 35.226562 21.363281 C 35.714844 21.433594 36.203125 21.507812 36.691406 21.578125 C 36.886719 21.628906 37.078125 21.695312 37.265625 21.769531 C 37.707031 22.007812 38.15625 22.230469 38.609375 22.445312 C 38.6875 22.484375 38.757812 22.535156 38.828125 22.585938 C 39.128906 22.914062 39.433594 23.226562 39.75 23.535156 C 39.867188 23.765625 39.890625 24.003906 39.824219 24.257812 C 39.492188 25.234375 38.816406 25.804688 37.792969 25.972656 C 36.910156 26.070312 36.078125 25.902344 35.296875 25.46875 C 34.765625 25.175781 34.289062 24.8125 33.871094 24.375 C 33.621094 24.023438 33.34375 23.691406 33.042969 23.378906 C 32.878906 23.351562 32.808594 23.417969 32.835938 23.582031 C 33.148438 24.015625 33.46875 24.4375 33.796875 24.855469 C 34.203125 25.226562 34.640625 25.554688 35.105469 25.839844 Z M 35.105469 25.839844 "/>
<path style=" stroke:none;fill-rule:evenodd;fill:rgb(92.54902%,92.156863%,92.156863%);fill-opacity:1;" d="M 32.417969 23.726562 C 32.390625 23.921875 32.355469 24.117188 32.320312 24.304688 C 32.296875 24.085938 32.296875 23.871094 32.320312 23.65625 C 32.355469 23.679688 32.386719 23.703125 32.417969 23.726562 Z M 32.417969 23.726562 "/>
<path style=" stroke:none;fill-rule:evenodd;fill:rgb(62.745098%,56.862745%,58.823529%);fill-opacity:1;" d="M 32.707031 23.65625 C 33.007812 24.136719 33.359375 24.582031 33.761719 24.988281 C 34.152344 25.363281 34.601562 25.648438 35.105469 25.839844 C 35.867188 26.261719 36.683594 26.457031 37.554688 26.429688 C 37.960938 26.394531 38.351562 26.300781 38.730469 26.152344 C 38.167969 26.902344 37.519531 27.570312 36.785156 28.15625 C 36.234375 28.578125 35.617188 28.84375 34.9375 28.960938 C 34.84375 28.878906 34.75 28.789062 34.660156 28.695312 C 34.339844 27.855469 33.894531 27.09375 33.316406 26.417969 C 33.101562 26.214844 32.886719 26.015625 32.667969 25.816406 C 32.476562 25.332031 32.359375 24.828125 32.320312 24.304688 C 32.355469 24.117188 32.390625 23.921875 32.417969 23.726562 C 32.523438 23.742188 32.621094 23.71875 32.707031 23.65625 Z M 32.707031 23.65625 "/>
<path style=" stroke:none;fill-rule:evenodd;fill:rgb(98.823529%,98.823529%,98.823529%);fill-opacity:1;" d="M 29.730469 42.570312 C 28.773438 42.578125 27.820312 42.570312 26.871094 42.546875 C 27.875 42.042969 28.820312 41.445312 29.703125 40.757812 C 30.269531 40.320312 30.824219 39.863281 31.359375 39.390625 C 32.070312 38.738281 32.609375 37.964844 32.980469 37.074219 C 33.546875 35.664062 33.9375 34.207031 34.15625 32.707031 C 34.234375 32.042969 34.257812 31.378906 34.230469 30.714844 C 34.175781 30.066406 33.992188 29.457031 33.675781 28.886719 C 33.117188 27.871094 32.359375 27.027344 31.410156 26.355469 C 30.761719 25.976562 30.074219 25.699219 29.34375 25.515625 C 27.675781 25.113281 25.988281 24.824219 24.28125 24.652344 C 25.0625 24.621094 25.847656 24.605469 26.632812 24.605469 C 27.300781 24.542969 27.96875 24.5 28.636719 24.472656 C 28.9375 24.46875 29.238281 24.488281 29.535156 24.53125 C 29.628906 24.566406 29.714844 24.605469 29.800781 24.652344 C 30.167969 24.941406 30.570312 25.179688 31 25.371094 C 31.476562 25.667969 31.921875 26.007812 32.332031 26.390625 C 32.441406 26.597656 32.570312 26.789062 32.71875 26.96875 C 32.964844 27.242188 33.207031 27.519531 33.4375 27.808594 C 33.605469 28.144531 33.796875 28.464844 34.011719 28.769531 C 34.351562 29.605469 34.546875 30.480469 34.589844 31.386719 C 34.625 32.3125 34.632812 33.242188 34.613281 34.167969 C 34.574219 34.570312 34.527344 34.972656 34.46875 35.371094 C 34.269531 36.128906 34.101562 36.898438 33.964844 37.675781 C 33.875 37.902344 33.769531 38.128906 33.652344 38.347656 C 33.566406 38.664062 33.445312 38.96875 33.292969 39.257812 C 33.09375 39.449219 32.902344 39.648438 32.71875 39.859375 C 32.605469 40.050781 32.492188 40.242188 32.382812 40.433594 C 32.164062 40.625 31.957031 40.824219 31.757812 41.035156 C 31.332031 41.53125 30.859375 41.964844 30.328125 42.34375 C 30.148438 42.46875 29.949219 42.542969 29.730469 42.570312 Z M 29.730469 42.570312 "/>
<path style=" stroke:none;fill-rule:evenodd;fill:rgb(99.607843%,99.607843%,99.607843%);fill-opacity:1;" d="M 13.335938 31.769531 C 13.355469 31.761719 13.363281 31.746094 13.359375 31.722656 C 13.378906 31.703125 13.386719 31.679688 13.382812 31.648438 C 13.402344 31.632812 13.410156 31.609375 13.40625 31.578125 C 13.425781 31.570312 13.433594 31.554688 13.429688 31.527344 C 13.453125 31.511719 13.460938 31.488281 13.453125 31.457031 C 13.472656 31.449219 13.480469 31.433594 13.476562 31.410156 C 13.511719 31.378906 13.527344 31.339844 13.527344 31.289062 C 13.671875 31.011719 13.820312 30.730469 13.96875 30.449219 C 14.289062 29.929688 14.613281 29.417969 14.941406 28.914062 C 14.957031 28.914062 14.964844 28.90625 14.964844 28.886719 C 15.027344 28.789062 15.105469 28.703125 15.207031 28.636719 C 15.382812 28.65625 15.53125 28.605469 15.664062 28.492188 C 15.910156 28.210938 16.140625 27.917969 16.359375 27.617188 C 17.136719 27.1875 17.917969 26.773438 18.710938 26.367188 C 18.734375 26.371094 18.75 26.363281 18.757812 26.34375 C 18.808594 26.347656 18.847656 26.332031 18.878906 26.296875 C 18.902344 26.300781 18.917969 26.292969 18.925781 26.273438 C 18.949219 26.277344 18.96875 26.269531 18.976562 26.25 C 19 26.253906 19.015625 26.246094 19.023438 26.222656 C 19.046875 26.226562 19.0625 26.21875 19.070312 26.199219 C 19.101562 26.207031 19.125 26.199219 19.144531 26.175781 C 19.167969 26.179688 19.183594 26.171875 19.191406 26.152344 C 19.214844 26.15625 19.230469 26.148438 19.238281 26.128906 C 19.261719 26.132812 19.277344 26.125 19.285156 26.105469 C 19.636719 25.984375 19.972656 25.839844 20.296875 25.671875 C 20.304688 25.671875 20.3125 25.671875 20.320312 25.671875 C 20.5 25.609375 20.675781 25.535156 20.847656 25.457031 C 21.488281 25.386719 22.128906 25.3125 22.769531 25.226562 C 22.976562 25.210938 23.183594 25.210938 23.390625 25.226562 C 25.050781 25.402344 26.699219 25.648438 28.335938 25.972656 C 29.039062 26.109375 29.71875 26.320312 30.375 26.597656 C 31.117188 26.933594 31.742188 27.417969 32.261719 28.046875 C 32.71875 28.574219 33.085938 29.15625 33.367188 29.800781 C 33.574219 30.441406 33.644531 31.097656 33.582031 31.769531 C 33.5 32.839844 33.308594 33.886719 33.003906 34.914062 C 32.765625 35.660156 32.5 36.394531 32.214844 37.121094 C 31.820312 37.894531 31.296875 38.570312 30.640625 39.148438 C 29.546875 40.164062 28.347656 41.027344 27.039062 41.742188 C 26.183594 42.203125 25.28125 42.53125 24.328125 42.726562 C 23.355469 42.863281 22.386719 42.832031 21.421875 42.628906 C 19.625 42.3125 17.976562 41.640625 16.480469 40.613281 C 15.398438 39.828125 14.488281 38.882812 13.753906 37.769531 C 13.242188 36.898438 12.980469 35.953125 12.960938 34.9375 C 12.902344 33.859375 13.027344 32.800781 13.335938 31.769531 Z M 13.335938 31.769531 "/>
<path style=" stroke:none;fill-rule:evenodd;fill:rgb(62.352941%,56.470588%,58.431373%);fill-opacity:1;" d="M 15.589844 25.457031 C 15.292969 25.765625 14.988281 26.074219 14.679688 26.378906 C 14.363281 26.671875 14.027344 26.9375 13.671875 27.171875 C 13.703125 27.183594 13.734375 27.1875 13.765625 27.183594 C 13.671875 27.203125 13.578125 27.222656 13.476562 27.246094 C 13.339844 27.328125 13.195312 27.398438 13.046875 27.460938 C 12.921875 27.496094 12.820312 27.460938 12.746094 27.351562 C 12.636719 27.0625 12.484375 26.796875 12.289062 26.558594 C 12.039062 26.332031 11.792969 26.097656 11.558594 25.851562 C 11.785156 25.945312 12.023438 26.003906 12.277344 26.019531 C 13.007812 26.078125 13.726562 26.019531 14.4375 25.851562 C 14.828125 25.738281 15.210938 25.605469 15.589844 25.457031 Z M 15.589844 25.457031 "/>
<use xlink:href="#surface54" mask="url(#mask16)"/>
<path style=" stroke:none;fill-rule:evenodd;fill:rgb(1.176471%,1.176471%,1.176471%);fill-opacity:1;" d="M 26.175781 40.410156 C 25.75 39.773438 25.433594 39.085938 25.226562 38.347656 C 25.175781 38.15625 25.148438 37.964844 25.144531 37.769531 C 24.933594 37.78125 24.726562 37.808594 24.519531 37.855469 C 24.203125 37.9375 23.976562 37.839844 23.835938 37.554688 C 23.820312 37.714844 23.753906 37.847656 23.632812 37.949219 C 23.589844 37.964844 23.550781 37.964844 23.511719 37.949219 C 23.371094 37.878906 23.234375 37.800781 23.105469 37.710938 C 22.925781 37.566406 22.75 37.421875 22.574219 37.277344 C 22.433594 37.152344 22.308594 37.011719 22.203125 36.859375 C 22.15625 37.234375 22.066406 37.601562 21.941406 37.960938 C 21.757812 38.398438 21.476562 38.492188 21.085938 38.238281 C 20.773438 37.9375 20.570312 37.574219 20.476562 37.144531 C 20.34375 36.5625 20.289062 35.96875 20.308594 35.371094 C 20.359375 35.003906 20.433594 34.644531 20.523438 34.289062 C 20.558594 34.011719 20.566406 33.730469 20.546875 33.449219 C 20.496094 33.132812 20.460938 32.8125 20.453125 32.488281 C 20.441406 32.066406 20.433594 31.640625 20.425781 31.21875 C 20.371094 30.730469 20.324219 30.242188 20.285156 29.753906 C 20.277344 29.535156 20.203125 29.347656 20.054688 29.1875 C 19.925781 29.1875 19.835938 29.246094 19.777344 29.367188 C 19.679688 29.625 19.609375 29.890625 19.5625 30.160156 C 19.472656 31.15625 19.382812 32.152344 19.285156 33.148438 C 19.292969 33.445312 19.332031 33.738281 19.394531 34.027344 C 19.367188 34.675781 19.394531 35.324219 19.46875 35.96875 C 19.558594 36.398438 19.664062 36.820312 19.777344 37.242188 C 19.824219 37.386719 19.886719 37.523438 19.972656 37.648438 C 20.175781 37.835938 20.394531 38 20.632812 38.140625 C 22.035156 39.003906 23.492188 39.78125 25 40.46875 C 25.015625 40.496094 25.03125 40.515625 25.046875 40.53125 C 25.078125 40.761719 24.972656 40.871094 24.734375 40.855469 C 23.179688 40.132812 21.691406 39.300781 20.269531 38.359375 C 20.078125 38.21875 19.886719 38.070312 19.707031 37.914062 C 19.632812 37.808594 19.566406 37.699219 19.515625 37.578125 C 19.183594 36.5625 19.054688 35.523438 19.132812 34.457031 C 19.085938 34.191406 19.03125 33.925781 18.964844 33.664062 C 18.949219 33.550781 18.9375 33.433594 18.925781 33.316406 C 19 32.441406 19.070312 31.566406 19.132812 30.6875 C 19.167969 30.210938 19.261719 29.746094 19.417969 29.296875 C 19.523438 29.035156 19.710938 28.875 19.984375 28.816406 C 20.238281 28.847656 20.410156 28.984375 20.5 29.226562 C 20.59375 29.539062 20.65625 29.859375 20.691406 30.183594 C 20.699219 30.554688 20.722656 30.921875 20.761719 31.289062 C 20.769531 31.714844 20.78125 32.136719 20.789062 32.5625 C 20.796875 32.730469 20.816406 32.898438 20.847656 33.066406 C 20.910156 32.964844 20.988281 32.878906 21.085938 32.8125 C 21.269531 32.726562 21.4375 32.75 21.589844 32.886719 C 21.703125 32.980469 21.792969 33.085938 21.867188 33.210938 C 22.238281 32.863281 22.648438 32.796875 23.105469 33.003906 C 23.15625 33.058594 23.207031 33.109375 23.257812 33.160156 C 23.277344 33.074219 23.292969 32.984375 23.308594 32.898438 C 23.214844 31.71875 23.367188 30.574219 23.765625 29.464844 C 23.859375 29.199219 24.03125 29.003906 24.28125 28.875 C 24.542969 28.8125 24.753906 28.890625 24.914062 29.105469 C 25.078125 29.414062 25.164062 29.742188 25.179688 30.089844 C 25.1875 30.972656 25.199219 31.855469 25.214844 32.742188 C 25.222656 33.066406 25.203125 33.390625 25.15625 33.714844 C 25.394531 33.574219 25.640625 33.5625 25.886719 33.675781 C 26.085938 33.882812 26.230469 34.117188 26.332031 34.386719 C 26.390625 34.726562 26.441406 35.070312 26.476562 35.417969 C 26.5 36.027344 26.371094 36.605469 26.09375 37.144531 C 25.914062 37.339844 25.707031 37.5 25.480469 37.625 C 25.472656 37.65625 25.464844 37.691406 25.457031 37.722656 C 25.660156 38.609375 26.03125 39.417969 26.570312 40.144531 C 26.628906 40.203125 26.683594 40.257812 26.742188 40.3125 C 26.777344 40.554688 26.679688 40.664062 26.441406 40.636719 C 26.332031 40.582031 26.246094 40.507812 26.175781 40.410156 Z M 26.175781 40.410156 "/>
<path style=" stroke:none;fill-rule:evenodd;fill:rgb(62.352941%,56.862745%,58.431373%);fill-opacity:1;" d="M 26.175781 40.410156 C 25.792969 40.433594 25.417969 40.472656 25.046875 40.53125 C 25.03125 40.515625 25.015625 40.496094 25 40.46875 C 23.492188 39.78125 22.035156 39.003906 20.632812 38.140625 C 20.394531 38 20.175781 37.835938 19.972656 37.648438 C 19.886719 37.523438 19.824219 37.386719 19.777344 37.242188 C 19.664062 36.820312 19.558594 36.398438 19.46875 35.96875 C 19.394531 35.324219 19.367188 34.675781 19.394531 34.027344 C 19.332031 33.738281 19.292969 33.445312 19.285156 33.148438 C 19.382812 32.152344 19.472656 31.15625 19.5625 30.160156 C 19.609375 29.890625 19.679688 29.625 19.777344 29.367188 C 19.835938 29.246094 19.925781 29.1875 20.054688 29.1875 C 20.203125 29.347656 20.277344 29.535156 20.285156 29.753906 C 20.324219 30.242188 20.371094 30.730469 20.425781 31.21875 C 20.433594 31.640625 20.441406 32.066406 20.453125 32.488281 C 20.460938 32.8125 20.496094 33.132812 20.546875 33.449219 C 20.566406 33.730469 20.558594 34.011719 20.523438 34.289062 C 20.433594 34.644531 20.359375 35.003906 20.308594 35.371094 C 20.289062 35.96875 20.34375 36.5625 20.476562 37.144531 C 20.570312 37.574219 20.773438 37.9375 21.085938 38.238281 C 21.476562 38.492188 21.757812 38.398438 21.941406 37.960938 C 22.066406 37.601562 22.15625 37.234375 22.203125 36.859375 C 22.308594 37.011719 22.433594 37.152344 22.574219 37.277344 C 22.75 37.421875 22.925781 37.566406 23.105469 37.710938 C 23.234375 37.800781 23.371094 37.878906 23.511719 37.949219 C 23.550781 37.964844 23.589844 37.964844 23.632812 37.949219 C 23.753906 37.847656 23.820312 37.714844 23.835938 37.554688 C 23.976562 37.839844 24.203125 37.9375 24.519531 37.855469 C 24.726562 37.808594 24.933594 37.78125 25.144531 37.769531 C 25.148438 37.964844 25.175781 38.15625 25.226562 38.347656 C 25.433594 39.085938 25.75 39.773438 26.175781 40.410156 Z M 26.175781 40.410156 "/>
<path style=" stroke:none;fill-rule:evenodd;fill:rgb(62.352941%,56.470588%,58.431373%);fill-opacity:1;" d="M 24.472656 29.25 C 24.546875 29.351562 24.617188 29.441406 24.6875 29.511719 C 24.722656 29.570312 24.742188 29.632812 24.746094 29.703125 C 24.757812 29.855469 24.773438 30.007812 24.796875 30.160156 C 24.8125 31.210938 24.820312 32.257812 24.820312 33.304688 C 24.789062 33.496094 24.734375 33.679688 24.652344 33.855469 C 24.4375 34.136719 24.207031 34.398438 23.957031 34.648438 C 23.898438 34.730469 23.84375 34.808594 23.789062 34.890625 C 23.722656 34.453125 23.640625 34.019531 23.535156 33.59375 C 23.558594 33.382812 23.59375 33.175781 23.644531 32.96875 C 23.570312 31.84375 23.714844 30.746094 24.074219 29.679688 C 24.128906 29.515625 24.222656 29.375 24.351562 29.261719 C 24.390625 29.25 24.429688 29.246094 24.472656 29.25 Z M 24.472656 29.25 "/>
<path style=" stroke:none;fill-rule:evenodd;fill:rgb(89.803922%,89.803922%,89.803922%);fill-opacity:1;" d="M 24.472656 29.25 C 24.59375 29.292969 24.667969 29.382812 24.6875 29.511719 C 24.617188 29.441406 24.546875 29.351562 24.472656 29.25 Z M 24.472656 29.25 "/>
<use xlink:href="#surface57" mask="url(#mask17)"/>
<path style=" stroke:none;fill-rule:evenodd;fill:rgb(62.352941%,56.470588%,58.431373%);fill-opacity:1;" d="M 21.253906 33.136719 C 21.367188 33.183594 21.460938 33.253906 21.53125 33.351562 C 21.675781 33.605469 21.757812 33.878906 21.769531 34.167969 C 21.785156 34.640625 21.808594 35.113281 21.84375 35.585938 C 21.875 36.164062 21.847656 36.742188 21.769531 37.3125 C 21.726562 37.5 21.667969 37.683594 21.601562 37.867188 C 21.558594 37.929688 21.5 37.96875 21.421875 37.984375 C 21.203125 37.929688 21.054688 37.792969 20.980469 37.578125 C 20.9375 37.457031 20.898438 37.335938 20.859375 37.21875 C 20.777344 36.789062 20.707031 36.355469 20.644531 35.921875 C 20.628906 35.683594 20.628906 35.441406 20.644531 35.203125 C 20.703125 34.871094 20.777344 34.542969 20.859375 34.21875 C 20.886719 34.003906 20.902344 33.785156 20.90625 33.570312 C 21.007812 33.410156 21.121094 33.265625 21.253906 33.136719 Z M 21.253906 33.136719 "/>
<path style=" stroke:none;fill-rule:evenodd;fill:rgb(62.352941%,56.470588%,58.431373%);fill-opacity:1;" d="M 22.457031 33.210938 C 22.757812 33.144531 22.976562 33.25 23.117188 33.519531 C 23.183594 33.648438 23.230469 33.785156 23.257812 33.929688 C 23.332031 34.261719 23.386719 34.597656 23.429688 34.9375 C 23.453125 35.730469 23.472656 36.523438 23.488281 37.3125 C 23.480469 37.386719 23.472656 37.457031 23.464844 37.53125 C 23.179688 37.316406 22.90625 37.089844 22.636719 36.859375 C 22.429688 36.636719 22.285156 36.382812 22.203125 36.089844 C 22.1875 35.449219 22.164062 34.808594 22.132812 34.167969 C 22.105469 33.96875 22.070312 33.765625 22.023438 33.570312 C 22.042969 33.476562 22.089844 33.402344 22.167969 33.339844 C 22.261719 33.289062 22.359375 33.246094 22.457031 33.210938 Z M 22.457031 33.210938 "/>
<path style=" stroke:none;fill-rule:evenodd;fill:rgb(62.352941%,56.470588%,58.431373%);fill-opacity:1;" d="M 23.847656 36.160156 C 23.832031 36.035156 23.816406 35.90625 23.800781 35.777344 C 23.761719 35.320312 23.929688 34.957031 24.304688 34.6875 C 24.402344 34.710938 24.492188 34.6875 24.566406 34.613281 C 24.773438 34.285156 25.0625 34.0625 25.433594 33.941406 C 25.558594 33.902344 25.660156 33.9375 25.730469 34.050781 C 25.859375 34.242188 25.949219 34.449219 25.996094 34.671875 C 26.015625 35.058594 26.042969 35.441406 26.066406 35.824219 C 26.011719 36.195312 25.898438 36.546875 25.730469 36.882812 C 25.335938 37.269531 24.859375 37.441406 24.304688 37.398438 C 24.273438 37.375 24.253906 37.347656 24.242188 37.3125 C 24.144531 36.96875 24.167969 36.632812 24.316406 36.304688 C 24.394531 36.152344 24.515625 36.085938 24.6875 36.101562 C 24.816406 36.019531 24.859375 35.90625 24.820312 35.753906 C 24.792969 35.695312 24.746094 35.648438 24.6875 35.621094 C 24.394531 35.578125 24.15625 35.679688 23.980469 35.921875 C 23.929688 36 23.886719 36.078125 23.847656 36.160156 Z M 23.847656 36.160156 "/>
<path style=" stroke:none;fill-rule:evenodd;fill:rgb(35.294118%,31.764706%,32.941176%);fill-opacity:1;" d="M 23.800781 35.777344 C 23.816406 35.90625 23.832031 36.035156 23.847656 36.160156 C 23.839844 36.179688 23.828125 36.195312 23.8125 36.210938 C 23.800781 36.066406 23.796875 35.921875 23.800781 35.777344 Z M 23.800781 35.777344 "/>
<path style=" stroke:none;fill-rule:evenodd;fill:rgb(75.294118%,75.294118%,75.294118%);fill-opacity:1;" d="M 26.871094 42.546875 C 27.820312 42.570312 28.773438 42.578125 29.730469 42.570312 C 28.757812 42.597656 27.78125 42.601562 26.800781 42.582031 C 26.824219 42.570312 26.847656 42.558594 26.871094 42.546875 Z M 26.871094 42.546875 "/>
</g>
</svg>
