<?xml version="1.0" encoding="UTF-8"?>
<svg xmlns="http://www.w3.org/2000/svg" xmlns:xlink="http://www.w3.org/1999/xlink" width="50pt" height="50pt" viewBox="0 0 50 50" version="1.1">
<defs>
<filter id="alpha" filterUnits="objectBoundingBox" x="0%" y="0%" width="100%" height="100%">
  <feColorMatrix type="matrix" in="SourceGraphic" values="0 0 0 0 1 0 0 0 0 1 0 0 0 0 1 0 0 0 1 0"/>
</filter>
<mask id="mask0">
  <g filter="url(#alpha)">
<rect x="0" y="0" width="50" height="50" style="fill:rgb(0%,0%,0%);fill-opacity:0.972549;stroke:none;"/>
  </g>
</mask>
<clipPath id="clip1">
  <rect width="50" height="50"/>
</clipPath>
<g id="surface6" clip-path="url(#clip1)">
<path style=" stroke:none;fill-rule:evenodd;fill:rgb(1.176471%,1.176471%,1.568627%);fill-opacity:1;" d="M 49.988281 42.332031 C 49.988281 42.5625 49.988281 42.792969 49.988281 43.027344 C 49.628906 43.042969 49.265625 43.070312 48.90625 43.097656 C 48.941406 43.289062 48.992188 43.472656 49.0625 43.652344 C 49.113281 43.96875 48.976562 44.15625 48.65625 44.203125 C 48.496094 44.183594 48.375 44.101562 48.296875 43.964844 C 48.191406 43.699219 48.121094 43.429688 48.089844 43.148438 C 44.550781 43.359375 41.007812 43.445312 37.457031 43.398438 C 36.25 43.390625 35.042969 43.371094 33.832031 43.339844 C 33.964844 43.925781 34.023438 44.515625 34.011719 45.113281 C 33.96875 45.28125 33.859375 45.359375 33.6875 45.355469 C 33.519531 45.359375 33.410156 45.28125 33.367188 45.113281 C 33.257812 44.523438 33.15625 43.933594 33.066406 43.339844 C 30.042969 43.25 27.015625 43.167969 23.992188 43.085938 C 21.886719 43.03125 19.785156 43 17.679688 42.992188 C 17.261719 42.984375 16.84375 42.964844 16.429688 42.929688 C 16.5625 43.417969 16.605469 43.914062 16.5625 44.417969 C 16.472656 44.75 16.277344 44.835938 15.972656 44.671875 C 15.859375 44.53125 15.824219 44.371094 15.878906 44.191406 C 15.851562 43.75 15.789062 43.3125 15.6875 42.882812 C 14.222656 42.777344 12.757812 42.667969 11.292969 42.558594 C 9.90625 42.449219 8.53125 42.265625 7.164062 42.007812 C 6.84375 41.925781 6.65625 41.722656 6.601562 41.394531 C 6.585938 41.195312 6.585938 40.996094 6.601562 40.792969 C 6.679688 40.410156 6.742188 40.019531 6.78125 39.628906 C 6.601562 38.726562 6.4375 37.816406 6.289062 36.90625 C 5.976562 34.734375 5.808594 32.546875 5.785156 30.351562 C 5.71875 29.296875 5.660156 28.242188 5.605469 27.183594 C 5.199219 27.226562 4.789062 27.261719 4.378906 27.292969 C 4.203125 27.308594 4.027344 27.308594 3.851562 27.292969 C 3.671875 27.234375 3.574219 27.109375 3.566406 26.921875 C 3.578125 26.753906 3.65625 26.640625 3.804688 26.570312 C 4.398438 26.539062 4.992188 26.480469 5.582031 26.390625 C 5.449219 22.777344 5.335938 19.160156 5.246094 15.542969 C 5.019531 15.511719 4.792969 15.46875 4.574219 15.410156 C 4.375 15.261719 4.328125 15.074219 4.441406 14.847656 C 4.542969 14.722656 4.675781 14.660156 4.835938 14.667969 C 4.964844 14.65625 5.09375 14.648438 5.222656 14.65625 C 5.113281 11.675781 4.921875 8.703125 4.644531 5.738281 C 4.605469 5.574219 4.660156 5.460938 4.8125 5.402344 C 4.980469 5.359375 5.128906 5.394531 5.257812 5.507812 C 5.300781 5.582031 5.324219 5.664062 5.328125 5.75 C 5.613281 8.703125 5.8125 11.664062 5.917969 14.628906 C 6.050781 14.597656 6.171875 14.535156 6.277344 14.449219 C 6.617188 14.378906 6.816406 14.511719 6.878906 14.847656 C 6.855469 15.050781 6.761719 15.207031 6.589844 15.3125 C 6.390625 15.441406 6.175781 15.515625 5.941406 15.542969 C 6.03125 19.144531 6.136719 22.742188 6.253906 26.34375 C 6.449219 26.367188 6.640625 26.410156 6.828125 26.476562 C 6.964844 26.652344 6.957031 26.820312 6.804688 26.980469 C 6.636719 27.023438 6.46875 27.058594 6.300781 27.089844 C 6.363281 28.214844 6.433594 29.34375 6.503906 30.472656 C 6.511719 33.375 6.808594 36.25 7.394531 39.089844 C 7.464844 39.464844 7.464844 39.839844 7.394531 40.21875 C 7.332031 40.5 7.28125 40.785156 7.238281 41.070312 C 7.226562 41.199219 7.273438 41.296875 7.382812 41.359375 C 8.320312 41.519531 9.265625 41.65625 10.214844 41.765625 C 11.988281 41.925781 13.765625 42.066406 15.542969 42.1875 C 15.480469 41.863281 15.460938 41.535156 15.484375 41.203125 C 15.527344 41.039062 15.632812 40.957031 15.804688 40.960938 C 15.945312 40.96875 16.042969 41.03125 16.105469 41.15625 C 16.117188 41.527344 16.171875 41.890625 16.261719 42.246094 C 16.480469 42.265625 16.695312 42.28125 16.910156 42.292969 C 18.824219 42.300781 20.734375 42.324219 22.648438 42.367188 C 26.089844 42.453125 29.527344 42.546875 32.96875 42.644531 C 32.960938 42.351562 32.980469 42.066406 33.027344 41.777344 C 33.082031 41.6875 33.160156 41.640625 33.269531 41.632812 C 33.375 41.640625 33.457031 41.6875 33.507812 41.777344 C 33.5625 42.050781 33.617188 42.324219 33.675781 42.59375 C 33.695312 42.628906 33.722656 42.648438 33.761719 42.65625 C 38.523438 42.78125 43.285156 42.722656 48.042969 42.476562 C 48.03125 42.238281 48.058594 42.003906 48.128906 41.777344 C 48.222656 41.566406 48.300781 41.351562 48.367188 41.128906 C 48.464844 40.972656 48.605469 40.917969 48.789062 40.972656 C 48.886719 41.011719 48.957031 41.078125 48.992188 41.179688 C 49.003906 41.292969 48.996094 41.402344 48.96875 41.515625 C 48.871094 41.804688 48.824219 42.097656 48.835938 42.402344 C 49.21875 42.382812 49.605469 42.359375 49.988281 42.332031 Z M 49.988281 42.332031 "/>
</g>
<mask id="mask1">
  <g filter="url(#alpha)">
<rect x="0" y="0" width="50" height="50" style="fill:rgb(0%,0%,0%);fill-opacity:0.976471;stroke:none;"/>
  </g>
</mask>
<clipPath id="clip2">
  <rect width="50" height="50"/>
</clipPath>
<g id="surface9" clip-path="url(#clip2)">
<path style=" stroke:none;fill-rule:evenodd;fill:rgb(66.27451%,23.137255%,17.647059%);fill-opacity:1;" d="M 39.617188 10.5 C 40.117188 10.53125 40.34375 10.796875 40.300781 11.292969 C 40.257812 11.410156 40.191406 11.511719 40.109375 11.605469 C 39.496094 12.152344 38.890625 12.703125 38.285156 13.261719 C 37.550781 14.09375 36.839844 14.941406 36.148438 15.804688 C 35.828125 16.152344 35.515625 16.503906 35.214844 16.863281 C 33.917969 18.214844 32.613281 19.558594 31.300781 20.894531 C 30.253906 22.085938 29.1875 23.261719 28.109375 24.425781 C 27.851562 24.769531 27.566406 25.09375 27.257812 25.394531 C 26.648438 25.800781 26.089844 25.734375 25.589844 25.191406 C 25.398438 24.953125 25.195312 24.726562 24.976562 24.507812 C 24.472656 24.125 23.976562 23.734375 23.488281 23.332031 C 22.648438 22.722656 21.828125 22.085938 21.027344 21.421875 C 20.671875 21.785156 20.34375 22.167969 20.042969 22.574219 C 19.632812 23.144531 19.230469 23.71875 18.84375 24.304688 C 17.222656 26.917969 15.679688 29.582031 14.210938 32.296875 C 13.632812 33.4375 13.066406 34.582031 12.507812 35.730469 C 12.210938 36.246094 11.898438 36.75 11.570312 37.242188 C 11.476562 37.421875 11.429688 37.613281 11.425781 37.816406 C 11.296875 38.136719 11.066406 38.234375 10.742188 38.117188 C 10.648438 38.058594 10.597656 37.972656 10.585938 37.867188 C 10.527344 37.480469 10.585938 37.113281 10.753906 36.761719 C 11.019531 36.3125 11.28125 35.867188 11.546875 35.417969 C 11.980469 34.515625 12.402344 33.613281 12.816406 32.707031 C 13.3125 31.710938 13.824219 30.726562 14.355469 29.753906 C 15.4375 27.804688 16.546875 25.875 17.691406 23.96875 C 18.375 22.929688 19.085938 21.914062 19.828125 20.917969 C 20.027344 20.679688 20.265625 20.480469 20.535156 20.332031 C 20.9375 20.171875 21.320312 20.210938 21.6875 20.453125 C 22.84375 21.351562 24.011719 22.230469 25.191406 23.089844 C 25.429688 23.277344 25.660156 23.46875 25.886719 23.667969 C 26.097656 23.890625 26.304688 24.117188 26.511719 24.339844 C 26.546875 24.347656 26.578125 24.339844 26.609375 24.316406 C 27.828125 22.9375 29.046875 21.554688 30.269531 20.175781 C 31.613281 18.757812 32.964844 17.351562 34.324219 15.949219 C 35.34375 14.773438 36.351562 13.589844 37.351562 12.398438 C 37.539062 12.210938 37.726562 12.023438 37.914062 11.832031 C 38.363281 11.449219 38.808594 11.066406 39.257812 10.683594 C 39.367188 10.59375 39.488281 10.535156 39.617188 10.5 Z M 39.617188 10.5 "/>
</g>
</defs>
<g id="surface1">
<use xlink:href="#surface6" mask="url(#mask0)"/>
<use xlink:href="#surface9" mask="url(#mask1)"/>
</g>
</svg>
