<?xml version="1.0" encoding="UTF-8"?>
<svg xmlns="http://www.w3.org/2000/svg" xmlns:xlink="http://www.w3.org/1999/xlink" width="50pt" height="50pt" viewBox="0 0 50 50" version="1.1">
<defs>
<filter id="alpha" filterUnits="objectBoundingBox" x="0%" y="0%" width="100%" height="100%">
  <feColorMatrix type="matrix" in="SourceGraphic" values="0 0 0 0 1 0 0 0 0 1 0 0 0 0 1 0 0 0 1 0"/>
</filter>
<mask id="mask0">
  <g filter="url(#alpha)">
<rect x="0" y="0" width="50" height="50" style="fill:rgb(0%,0%,0%);fill-opacity:0.996078;stroke:none;"/>
  </g>
</mask>
<clipPath id="clip1">
  <rect width="50" height="50"/>
</clipPath>
<g id="surface6" clip-path="url(#clip1)">
<path style=" stroke:none;fill-rule:evenodd;fill:rgb(66.666667%,23.137255%,18.039216%);fill-opacity:1;" d="M 23.917969 -0.0117188 C 24.457031 -0.0117188 24.992188 -0.0117188 25.527344 -0.0117188 C 26.667969 0.199219 27.722656 0.617188 28.695312 1.25 C 29.402344 1.730469 29.972656 2.332031 30.414062 3.058594 C 30.710938 3.644531 30.917969 4.261719 31.035156 4.910156 C 31.289062 5.960938 31.367188 7.023438 31.277344 8.101562 C 31.003906 10.085938 30.082031 11.679688 28.503906 12.890625 C 26.476562 14.242188 24.285156 14.59375 21.925781 13.945312 C 20.214844 13.449219 18.929688 12.421875 18.074219 10.863281 C 17.710938 10.207031 17.40625 9.527344 17.164062 8.820312 C 16.96875 8 16.90625 7.167969 16.972656 6.324219 C 17.015625 5.59375 17.148438 4.882812 17.378906 4.1875 C 17.449219 3.984375 17.546875 3.792969 17.667969 3.613281 C 18.058594 3.054688 18.492188 2.53125 18.976562 2.039062 C 19.390625 1.664062 19.855469 1.359375 20.367188 1.128906 C 21.535156 0.691406 22.71875 0.3125 23.917969 -0.0117188 Z M 23.917969 -0.0117188 "/>
</g>
<mask id="mask1">
  <g filter="url(#alpha)">
<rect x="0" y="0" width="50" height="50" style="fill:rgb(0%,0%,0%);fill-opacity:0.996078;stroke:none;"/>
  </g>
</mask>
<clipPath id="clip2">
  <rect width="50" height="50"/>
</clipPath>
<g id="surface9" clip-path="url(#clip2)">
<path style=" stroke:none;fill-rule:evenodd;fill:rgb(66.666667%,23.137255%,18.039216%);fill-opacity:1;" d="M 6.734375 0.539062 C 7.484375 0.535156 8.226562 0.597656 8.964844 0.71875 C 9.582031 0.855469 10.15625 1.085938 10.695312 1.417969 C 11.589844 2.015625 12.472656 2.640625 13.335938 3.289062 C 14.054688 3.976562 14.546875 4.804688 14.808594 5.773438 C 15.144531 6.804688 15.207031 7.851562 15.003906 8.917969 C 14.847656 9.597656 14.550781 10.203125 14.113281 10.742188 C 13.382812 11.59375 12.554688 12.335938 11.628906 12.960938 C 9.730469 14.089844 7.714844 14.363281 5.582031 13.777344 C 3.730469 13.171875 2.308594 12.03125 1.320312 10.359375 C 0.625 9.113281 0.375 7.785156 0.574219 6.371094 C 0.78125 5.503906 1.125 4.695312 1.609375 3.949219 C 2.105469 3.070312 2.78125 2.359375 3.636719 1.824219 C 4.449219 1.28125 5.332031 0.882812 6.277344 0.625 C 6.429688 0.589844 6.582031 0.5625 6.734375 0.539062 Z M 6.734375 0.539062 "/>
</g>
<mask id="mask2">
  <g filter="url(#alpha)">
<rect x="0" y="0" width="50" height="50" style="fill:rgb(0%,0%,0%);fill-opacity:0.988235;stroke:none;"/>
  </g>
</mask>
<clipPath id="clip3">
  <rect width="50" height="50"/>
</clipPath>
<g id="surface12" clip-path="url(#clip3)">
<path style=" stroke:none;fill-rule:evenodd;fill:rgb(66.666667%,23.137255%,18.039216%);fill-opacity:1;" d="M 49.988281 29.199219 C 49.988281 29.3125 49.988281 29.425781 49.988281 29.535156 C 49.894531 29.707031 49.75 29.816406 49.554688 29.859375 C 48.910156 29.851562 48.269531 29.832031 47.625 29.800781 C 47.171875 29.804688 46.71875 29.816406 46.265625 29.835938 C 44.441406 29.949219 42.617188 30.078125 40.792969 30.222656 C 39.679688 30.261719 38.5625 30.296875 37.445312 30.328125 C 37.078125 30.347656 36.722656 30.296875 36.378906 30.171875 C 36.082031 30.050781 35.976562 29.828125 36.054688 29.511719 C 36.085938 29.433594 36.117188 29.351562 36.148438 29.273438 C 38.15625 24.847656 40.148438 20.414062 42.125 15.972656 C 42.234375 15.773438 42.398438 15.703125 42.617188 15.757812 C 42.917969 15.632812 43.179688 15.6875 43.398438 15.925781 C 43.679688 16.585938 44 17.226562 44.359375 17.847656 C 44.945312 18.816406 45.546875 19.773438 46.160156 20.726562 C 46.910156 21.992188 47.574219 23.304688 48.152344 24.664062 C 48.78125 26.171875 49.394531 27.683594 49.988281 29.199219 Z M 49.988281 29.199219 "/>
</g>
<mask id="mask3">
  <g filter="url(#alpha)">
<rect x="0" y="0" width="50" height="50" style="fill:rgb(0%,0%,0%);fill-opacity:0.992157;stroke:none;"/>
  </g>
</mask>
<clipPath id="clip4">
  <rect width="50" height="50"/>
</clipPath>
<g id="surface15" clip-path="url(#clip4)">
<path style=" stroke:none;fill-rule:evenodd;fill:rgb(66.666667%,23.137255%,18.039216%);fill-opacity:1;" d="M 31.144531 20.632812 C 31.144531 20.667969 31.160156 20.691406 31.191406 20.703125 C 31.410156 21.164062 31.636719 21.621094 31.863281 22.070312 C 32.488281 23.382812 32.644531 24.75 32.332031 26.175781 C 31.878906 28.246094 30.683594 29.714844 28.746094 30.582031 C 26.90625 31.351562 25.015625 31.496094 23.078125 31.011719 C 20.890625 30.359375 19.246094 29.035156 18.148438 27.039062 C 17.167969 25.121094 17.007812 23.136719 17.667969 21.085938 C 18.039062 20.074219 18.640625 19.230469 19.480469 18.554688 C 20.152344 18.027344 20.871094 17.570312 21.640625 17.1875 C 23.195312 16.535156 24.796875 16.398438 26.441406 16.777344 C 28.613281 17.332031 30.179688 18.617188 31.144531 20.632812 Z M 31.144531 20.632812 "/>
</g>
<mask id="mask4">
  <g filter="url(#alpha)">
<rect x="0" y="0" width="50" height="50" style="fill:rgb(0%,0%,0%);fill-opacity:0.992157;stroke:none;"/>
  </g>
</mask>
<clipPath id="clip5">
  <rect width="50" height="50"/>
</clipPath>
<g id="surface18" clip-path="url(#clip5)">
<path style=" stroke:none;fill-rule:evenodd;fill:rgb(66.666667%,23.137255%,18.039216%);fill-opacity:1;" d="M -0.0117188 24.449219 C -0.0117188 24.105469 -0.0117188 23.761719 -0.0117188 23.414062 C 0.117188 22.464844 0.417969 21.570312 0.886719 20.726562 C 1.949219 18.691406 3.59375 17.382812 5.820312 16.800781 C 7.566406 16.378906 9.230469 16.589844 10.8125 17.425781 C 11.84375 18.054688 12.820312 18.761719 13.742188 19.539062 C 14.960938 20.816406 15.585938 22.34375 15.613281 24.125 C 15.597656 25.523438 15.160156 26.777344 14.304688 27.878906 C 12.988281 29.519531 11.296875 30.5625 9.230469 31.011719 C 6.332031 31.476562 3.871094 30.65625 1.847656 28.550781 C 0.8125 27.375 0.191406 26.007812 -0.0117188 24.449219 Z M -0.0117188 24.449219 "/>
</g>
<mask id="mask5">
  <g filter="url(#alpha)">
<rect x="0" y="0" width="50" height="50" style="fill:rgb(0%,0%,0%);fill-opacity:0.67451;stroke:none;"/>
  </g>
</mask>
<clipPath id="clip6">
  <rect width="50" height="50"/>
</clipPath>
<g id="surface21" clip-path="url(#clip6)">
<path style=" stroke:none;fill-rule:evenodd;fill:rgb(88.235294%,73.72549%,71.764706%);fill-opacity:1;" d="M 31.144531 20.632812 C 31.179688 20.644531 31.195312 20.667969 31.191406 20.703125 C 31.160156 20.691406 31.144531 20.667969 31.144531 20.632812 Z M 31.144531 20.632812 "/>
</g>
<mask id="mask6">
  <g filter="url(#alpha)">
<rect x="0" y="0" width="50" height="50" style="fill:rgb(0%,0%,0%);fill-opacity:0.729412;stroke:none;"/>
  </g>
</mask>
<clipPath id="clip7">
  <rect width="50" height="50"/>
</clipPath>
<g id="surface24" clip-path="url(#clip7)">
<path style=" stroke:none;fill-rule:evenodd;fill:rgb(97.647059%,95.294118%,94.901961%);fill-opacity:1;" d="M 31.191406 20.703125 C 31.488281 21.121094 31.710938 21.578125 31.863281 22.070312 C 31.636719 21.621094 31.410156 21.164062 31.191406 20.703125 Z M 31.191406 20.703125 "/>
</g>
<mask id="mask7">
  <g filter="url(#alpha)">
<rect x="0" y="0" width="50" height="50" style="fill:rgb(0%,0%,0%);fill-opacity:0.988235;stroke:none;"/>
  </g>
</mask>
<clipPath id="clip8">
  <rect width="50" height="50"/>
</clipPath>
<g id="surface27" clip-path="url(#clip8)">
<path style=" stroke:none;fill-rule:evenodd;fill:rgb(66.666667%,23.137255%,18.039216%);fill-opacity:1;" d="M 24.183594 34.503906 C 26.167969 34.410156 27.921875 34.988281 29.441406 36.246094 C 30.070312 36.828125 30.585938 37.496094 30.988281 38.25 C 31.351562 38.9375 31.695312 39.632812 32.019531 40.339844 C 32.507812 41.5625 32.613281 42.816406 32.332031 44.105469 C 31.890625 46.101562 30.75 47.546875 28.914062 48.441406 C 26.933594 49.316406 24.902344 49.460938 22.816406 48.871094 C 20.429688 48.070312 18.753906 46.503906 17.785156 44.179688 C 17.144531 42.472656 17.105469 40.753906 17.667969 39.019531 C 18.007812 38.09375 18.546875 37.304688 19.285156 36.652344 C 20.109375 35.964844 21.011719 35.40625 22 34.972656 C 22.710938 34.71875 23.4375 34.5625 24.183594 34.503906 Z M 24.183594 34.503906 "/>
</g>
<mask id="mask8">
  <g filter="url(#alpha)">
<rect x="0" y="0" width="50" height="50" style="fill:rgb(0%,0%,0%);fill-opacity:0.988235;stroke:none;"/>
  </g>
</mask>
<clipPath id="clip9">
  <rect width="50" height="50"/>
</clipPath>
<g id="surface30" clip-path="url(#clip9)">
<path style=" stroke:none;fill-rule:evenodd;fill:rgb(66.666667%,23.137255%,18.039216%);fill-opacity:1;" d="M 8.84375 49.988281 C 8.109375 49.988281 7.375 49.988281 6.636719 49.988281 C 4.152344 49.589844 2.253906 48.324219 0.9375 46.195312 C 0.425781 45.304688 0.109375 44.351562 -0.0117188 43.339844 C -0.0117188 42.996094 -0.0117188 42.652344 -0.0117188 42.308594 C 0.132812 41.242188 0.488281 40.25 1.054688 39.332031 C 2.238281 37.289062 3.996094 36.042969 6.324219 35.597656 C 8.09375 35.300781 9.734375 35.628906 11.246094 36.582031 C 12.039062 37.105469 12.808594 37.667969 13.550781 38.261719 C 14.53125 39.175781 15.167969 40.292969 15.457031 41.609375 C 15.875 43.605469 15.441406 45.390625 14.164062 46.964844 C 12.757812 48.609375 10.984375 49.617188 8.84375 49.988281 Z M 8.84375 49.988281 "/>
</g>
</defs>
<g id="surface1">
<use xlink:href="#surface6" mask="url(#mask0)"/>
<use xlink:href="#surface9" mask="url(#mask1)"/>
<path style=" stroke:none;fill-rule:evenodd;fill:rgb(99.215686%,98.823529%,98.431373%);fill-opacity:1;" d="M 20.199219 5.027344 C 20.558594 4.988281 20.894531 5.058594 21.207031 5.234375 C 21.320312 5.3125 21.390625 5.414062 21.421875 5.542969 C 21.371094 5.757812 21.234375 5.847656 21.015625 5.808594 C 20.8125 5.617188 20.570312 5.554688 20.296875 5.617188 C 19.921875 5.710938 19.804688 5.941406 19.945312 6.300781 C 20.082031 6.570312 20.261719 6.808594 20.488281 7.007812 C 20.761719 7.246094 21.03125 7.488281 21.292969 7.742188 C 21.40625 7.898438 21.445312 8.074219 21.410156 8.269531 C 21.25 8.742188 20.925781 9.042969 20.4375 9.167969 C 20.285156 9.191406 20.132812 9.183594 19.984375 9.144531 C 19.65625 8.996094 19.351562 8.8125 19.070312 8.59375 C 18.890625 8.445312 18.816406 8.257812 18.84375 8.027344 C 18.976562 7.71875 19.175781 7.660156 19.441406 7.859375 C 19.492188 7.957031 19.515625 8.0625 19.515625 8.171875 C 19.714844 8.375 19.941406 8.539062 20.199219 8.664062 C 20.5 8.691406 20.726562 8.578125 20.882812 8.316406 C 20.9375 8.207031 20.929688 8.101562 20.859375 8.003906 C 20.445312 7.6875 20.0625 7.335938 19.707031 6.949219 C 19.507812 6.71875 19.382812 6.457031 19.324219 6.15625 C 19.292969 5.757812 19.441406 5.441406 19.765625 5.207031 C 19.90625 5.132812 20.050781 5.070312 20.199219 5.027344 Z M 20.199219 5.027344 "/>
<path style=" stroke:none;fill-rule:evenodd;fill:rgb(99.607843%,99.215686%,99.215686%);fill-opacity:1;" d="M 28.144531 5.078125 C 28.585938 5.023438 29 5.101562 29.394531 5.304688 C 29.800781 5.605469 29.933594 6 29.789062 6.492188 C 29.535156 7.125 29.09375 7.570312 28.46875 7.835938 C 28.496094 8.207031 28.484375 8.574219 28.433594 8.941406 C 28.542969 9.289062 28.414062 9.453125 28.046875 9.433594 C 27.910156 9.390625 27.816406 9.296875 27.773438 9.15625 C 27.773438 8.8125 27.773438 8.46875 27.773438 8.125 C 27.757812 7.910156 27.722656 7.695312 27.664062 7.488281 C 27.675781 6.972656 27.675781 6.457031 27.664062 5.941406 C 27.558594 5.972656 27.453125 6.015625 27.351562 6.074219 C 27.179688 6.113281 27.054688 6.054688 26.980469 5.894531 C 26.933594 5.730469 26.976562 5.597656 27.113281 5.496094 C 27.4375 5.308594 27.78125 5.167969 28.144531 5.078125 Z M 28.144531 5.078125 "/>
<path style=" stroke:none;fill-rule:evenodd;fill:rgb(99.215686%,98.431373%,98.431373%);fill-opacity:1;" d="M 23.175781 5.171875 C 23.382812 5.152344 23.5 5.238281 23.535156 5.4375 C 23.894531 5.414062 24.253906 5.410156 24.617188 5.425781 C 24.839844 5.507812 24.898438 5.65625 24.796875 5.867188 C 24.75 5.929688 24.6875 5.976562 24.617188 6 C 24.246094 6.015625 23.878906 6.011719 23.511719 5.988281 C 23.511719 6.933594 23.496094 7.878906 23.476562 8.820312 C 23.453125 8.949219 23.414062 9.066406 23.355469 9.179688 C 23.222656 9.316406 23.078125 9.335938 22.921875 9.230469 C 22.863281 9.132812 22.835938 9.03125 22.839844 8.917969 C 22.902344 7.925781 22.925781 6.933594 22.910156 5.941406 C 22.519531 5.921875 22.128906 5.902344 21.734375 5.882812 C 21.628906 5.808594 21.59375 5.710938 21.628906 5.582031 C 21.664062 5.535156 21.707031 5.5 21.757812 5.472656 C 22.152344 5.46875 22.542969 5.457031 22.9375 5.4375 C 22.984375 5.316406 23.0625 5.230469 23.175781 5.171875 Z M 23.175781 5.171875 "/>
<path style=" stroke:none;fill-rule:evenodd;fill:rgb(99.607843%,99.607843%,99.215686%);fill-opacity:1;" d="M 3.253906 7.117188 C 3.445312 7.085938 3.636719 7.085938 3.828125 7.117188 C 4.5625 7.144531 5.300781 7.148438 6.035156 7.128906 C 6.140625 7.109375 6.246094 7.09375 6.347656 7.082031 C 5.53125 7.070312 4.71875 7.066406 3.902344 7.070312 C 3.371094 7.070312 2.84375 7.070312 2.316406 7.070312 C 2.09375 7.019531 1.984375 6.878906 1.980469 6.648438 C 1.984375 6.457031 2.070312 6.320312 2.246094 6.242188 C 4.96875 6.21875 7.6875 6.121094 10.40625 5.953125 C 10.53125 5.761719 10.707031 5.691406 10.933594 5.738281 C 11.175781 5.855469 11.433594 5.910156 11.703125 5.90625 C 11.980469 6.011719 12.089844 6.21875 12.027344 6.515625 C 11.984375 6.703125 11.867188 6.800781 11.679688 6.816406 C 11.460938 6.824219 11.246094 6.824219 11.03125 6.816406 C 10.90625 6.886719 10.78125 6.941406 10.644531 6.984375 C 10.285156 7.066406 9.925781 7.148438 9.566406 7.226562 C 10.277344 7.273438 10.988281 7.296875 11.703125 7.296875 C 11.925781 7.328125 12.140625 7.382812 12.351562 7.464844 C 12.484375 7.550781 12.539062 7.675781 12.507812 7.835938 C 12.445312 8.023438 12.320312 8.144531 12.132812 8.210938 C 12.015625 8.25 11.894531 8.28125 11.773438 8.304688 C 10.902344 8.308594 10.03125 8.308594 9.15625 8.304688 C 8.339844 8.378906 7.523438 8.457031 6.710938 8.546875 C 6.382812 8.574219 6.054688 8.582031 5.726562 8.570312 C 5.492188 8.417969 5.453125 8.222656 5.605469 7.992188 C 5.054688 8.039062 4.503906 8.054688 3.949219 8.042969 C 3.574219 8.03125 3.207031 7.984375 2.84375 7.898438 C 2.652344 7.75 2.601562 7.5625 2.6875 7.332031 C 2.847656 7.191406 3.035156 7.121094 3.253906 7.117188 Z M 3.253906 7.117188 "/>
<path style=" stroke:none;fill-rule:evenodd;fill:rgb(67.058824%,24.705882%,19.215686%);fill-opacity:1;" d="M 28.382812 5.75 C 28.625 5.75 28.84375 5.816406 29.042969 5.941406 C 29.117188 6.066406 29.117188 6.195312 29.042969 6.324219 C 28.902344 6.621094 28.6875 6.84375 28.398438 6.996094 C 28.355469 6.582031 28.351562 6.164062 28.382812 5.75 Z M 28.382812 5.75 "/>
<path style=" stroke:none;fill-rule:evenodd;fill:rgb(99.607843%,98.823529%,98.823529%);fill-opacity:1;" d="M 25.289062 6.203125 C 25.894531 6.179688 26.410156 6.382812 26.835938 6.804688 C 27.144531 7.261719 27.222656 7.757812 27.078125 8.292969 C 26.753906 9.304688 26.117188 9.582031 25.167969 9.121094 C 24.675781 8.773438 24.414062 8.296875 24.375 7.691406 C 24.40625 7.363281 24.484375 7.042969 24.605469 6.734375 C 24.789062 6.496094 25.015625 6.320312 25.289062 6.203125 Z M 25.289062 6.203125 "/>
<path style=" stroke:none;fill-rule:evenodd;fill:rgb(66.666667%,23.137255%,18.039216%);fill-opacity:1;" d="M 25.457031 6.972656 C 25.78125 6.972656 26.074219 7.066406 26.332031 7.261719 C 26.515625 7.527344 26.558594 7.816406 26.453125 8.125 C 26.398438 8.347656 26.28125 8.527344 26.105469 8.664062 C 25.617188 8.722656 25.285156 8.519531 25.109375 8.054688 C 25.007812 7.816406 25 7.574219 25.085938 7.332031 C 25.21875 7.226562 25.34375 7.105469 25.457031 6.972656 Z M 25.457031 6.972656 "/>
<path style=" stroke:none;fill-rule:evenodd;fill:rgb(77.254902%,49.411765%,46.27451%);fill-opacity:1;" d="M 2.316406 7.070312 C 2.84375 7.070312 3.371094 7.070312 3.902344 7.070312 C 3.875 7.085938 3.851562 7.101562 3.828125 7.117188 C 3.636719 7.085938 3.445312 7.085938 3.253906 7.117188 C 2.941406 7.101562 2.628906 7.085938 2.316406 7.070312 Z M 2.316406 7.070312 "/>
<path style=" stroke:none;fill-rule:evenodd;fill:rgb(67.058824%,24.313725%,19.215686%);fill-opacity:1;" d="M 3.902344 7.070312 C 4.71875 7.066406 5.53125 7.070312 6.347656 7.082031 C 6.246094 7.09375 6.140625 7.109375 6.035156 7.128906 C 5.300781 7.148438 4.5625 7.144531 3.828125 7.117188 C 3.851562 7.101562 3.875 7.085938 3.902344 7.070312 Z M 3.902344 7.070312 "/>
<use xlink:href="#surface12" mask="url(#mask2)"/>
<use xlink:href="#surface15" mask="url(#mask3)"/>
<use xlink:href="#surface18" mask="url(#mask4)"/>
<path style=" stroke:none;fill-rule:evenodd;fill:rgb(99.607843%,99.607843%,99.607843%);fill-opacity:1;" d="M 42.761719 17.03125 C 42.785156 17.027344 42.800781 17.035156 42.8125 17.054688 C 43.078125 17.59375 43.359375 18.121094 43.664062 18.640625 C 44.171875 19.476562 44.695312 20.308594 45.222656 21.136719 C 46.042969 22.476562 46.753906 23.878906 47.359375 25.335938 C 47.847656 26.503906 48.308594 27.679688 48.738281 28.863281 C 48.339844 28.847656 47.941406 28.828125 47.539062 28.804688 C 47.15625 28.789062 46.769531 28.789062 46.386719 28.804688 C 44.195312 28.945312 42 29.097656 39.808594 29.261719 C 38.960938 29.261719 38.113281 29.28125 37.265625 29.320312 C 39.109375 25.226562 40.941406 21.132812 42.761719 17.03125 Z M 42.761719 17.03125 "/>
<path style=" stroke:none;fill-rule:evenodd;fill:rgb(99.607843%,99.607843%,99.607843%);fill-opacity:1;" d="M 26.96875 19.574219 C 25.546875 19.039062 24.152344 19.109375 22.792969 19.777344 C 22.65625 19.890625 22.515625 19.996094 22.371094 20.101562 C 22.339844 20.15625 22.316406 20.210938 22.300781 20.269531 C 22.292969 21.464844 22.285156 22.65625 22.277344 23.847656 C 22.097656 24.078125 22.097656 24.3125 22.277344 24.542969 C 22.289062 24.589844 22.292969 24.640625 22.289062 24.6875 C 21.425781 25.628906 20.554688 26.5625 19.683594 27.496094 C 18.523438 25.902344 18.113281 24.136719 18.457031 22.191406 C 18.640625 21.378906 19 20.660156 19.539062 20.03125 C 20.472656 19.039062 21.578125 18.316406 22.863281 17.859375 C 24.628906 17.398438 26.300781 17.621094 27.878906 18.519531 C 27.90625 18.539062 27.910156 18.5625 27.890625 18.589844 C 27.59375 18.933594 27.285156 19.261719 26.96875 19.574219 Z M 26.96875 19.574219 "/>
<path style=" stroke:none;fill-rule:evenodd;fill:rgb(99.607843%,99.607843%,99.607843%);fill-opacity:1;" d="M 7.140625 22.984375 C 6.285156 23 5.429688 23.027344 4.574219 23.066406 C 5.042969 22.652344 5.472656 22.199219 5.855469 21.710938 C 5.953125 21.410156 5.871094 21.171875 5.605469 21.003906 C 5.433594 20.917969 5.265625 20.925781 5.101562 21.027344 C 4.445312 21.730469 3.761719 22.398438 3.046875 23.03125 C 2.933594 23.164062 2.835938 23.308594 2.761719 23.464844 C 2.699219 23.71875 2.765625 23.929688 2.964844 24.101562 C 3.601562 24.492188 4.179688 24.960938 4.691406 25.503906 C 3.996094 26.269531 3.320312 27.054688 2.664062 27.855469 C 0.828125 25.757812 0.589844 23.484375 1.945312 21.039062 C 3.023438 19.058594 4.691406 17.945312 6.949219 17.691406 C 8.421875 17.585938 9.757812 17.953125 10.957031 18.796875 C 10.980469 18.820312 10.984375 18.847656 10.96875 18.878906 C 9.890625 20.054688 8.808594 21.230469 7.730469 22.40625 C 7.535156 22.605469 7.339844 22.796875 7.140625 22.984375 Z M 7.140625 22.984375 "/>
<path style=" stroke:none;fill-rule:evenodd;fill:rgb(0.784314%,0.784314%,0.784314%);fill-opacity:1;" d="M 26.96875 19.574219 C 26.730469 19.863281 26.480469 20.140625 26.222656 20.414062 C 25.472656 20.253906 24.71875 20.257812 23.96875 20.425781 C 23.753906 20.480469 23.550781 20.566406 23.367188 20.679688 C 23.34375 21.628906 23.335938 22.578125 23.34375 23.535156 C 23 23.925781 22.648438 24.3125 22.289062 24.6875 C 22.292969 24.640625 22.289062 24.589844 22.277344 24.542969 C 22.097656 24.3125 22.097656 24.078125 22.277344 23.847656 C 22.285156 22.65625 22.292969 21.464844 22.300781 20.269531 C 22.316406 20.210938 22.339844 20.15625 22.371094 20.101562 C 22.515625 19.996094 22.65625 19.890625 22.792969 19.777344 C 24.152344 19.109375 25.546875 19.039062 26.96875 19.574219 Z M 26.96875 19.574219 "/>
<path style=" stroke:none;fill-rule:evenodd;fill:rgb(99.607843%,99.607843%,99.607843%);fill-opacity:1;" d="M 22.214844 27.113281 C 22.214844 27.578125 22.234375 28.042969 22.277344 28.503906 C 22.289062 28.988281 22.53125 29.210938 23.007812 29.164062 C 23.097656 29.140625 23.171875 29.097656 23.234375 29.03125 C 23.339844 28.875 23.398438 28.703125 23.414062 28.515625 C 23.355469 28.332031 23.300781 28.144531 23.257812 27.953125 C 23.238281 27.289062 23.25 26.625 23.296875 25.960938 C 23.464844 25.761719 23.640625 25.566406 23.824219 25.382812 C 24.84375 25.625 25.796875 25.460938 26.679688 24.890625 C 27.308594 24.496094 27.816406 23.980469 28.203125 23.34375 C 28.625 22.5625 28.691406 21.753906 28.398438 20.917969 C 28.347656 20.804688 28.289062 20.703125 28.214844 20.605469 C 28.511719 20.25 28.8125 19.898438 29.128906 19.550781 C 29.339844 19.765625 29.527344 19.996094 29.691406 20.246094 C 30.234375 21.097656 30.707031 21.984375 31.109375 22.910156 C 31.472656 23.820312 31.558594 24.757812 31.371094 25.71875 C 31.191406 26.761719 30.757812 27.683594 30.078125 28.480469 C 29.585938 28.976562 29.011719 29.355469 28.359375 29.621094 C 26.875 30.195312 25.347656 30.355469 23.777344 30.101562 C 22.667969 29.863281 21.679688 29.386719 20.8125 28.671875 C 20.828125 28.613281 20.859375 28.558594 20.90625 28.503906 C 21.339844 28.035156 21.777344 27.570312 22.214844 27.113281 Z M 22.214844 27.113281 "/>
<path style=" stroke:none;fill-rule:evenodd;fill:rgb(99.607843%,99.607843%,99.607843%);fill-opacity:1;" d="M 8.390625 24.015625 C 8.917969 24.035156 9.445312 24.042969 9.972656 24.039062 C 9.992188 25.207031 10.003906 26.375 10.007812 27.542969 C 10.046875 27.757812 10.171875 27.898438 10.382812 27.964844 C 10.617188 28.003906 10.8125 27.9375 10.96875 27.761719 C 11 27.699219 11.023438 27.632812 11.042969 27.570312 C 11.058594 26.257812 11.058594 24.945312 11.042969 23.632812 C 11.019531 23.359375 10.886719 23.164062 10.644531 23.042969 C 10.511719 22.996094 10.378906 22.964844 10.238281 22.949219 C 9.957031 22.933594 9.675781 22.9375 9.398438 22.960938 C 10.359375 21.886719 11.328125 20.820312 12.300781 19.753906 C 12.324219 19.738281 12.351562 19.738281 12.375 19.753906 C 13.84375 20.875 14.578125 22.367188 14.582031 24.230469 C 14.597656 25.277344 14.289062 26.214844 13.65625 27.039062 C 12.570312 28.394531 11.199219 29.335938 9.542969 29.859375 C 7.53125 30.382812 5.65625 30.082031 3.925781 28.949219 C 3.898438 28.929688 3.882812 28.90625 3.875 28.875 C 4.261719 28.378906 4.667969 27.894531 5.089844 27.425781 C 6.160156 26.261719 7.261719 25.125 8.390625 24.015625 Z M 8.390625 24.015625 "/>
<path style=" stroke:none;fill-rule:evenodd;fill:rgb(0.392157%,0.392157%,0.392157%);fill-opacity:1;" d="M 42.835938 20.128906 C 43.007812 20.105469 43.167969 20.140625 43.316406 20.234375 C 43.410156 20.328125 43.457031 20.4375 43.457031 20.570312 C 43.378906 21.703125 43.34375 22.835938 43.351562 23.96875 C 43.320312 24.144531 43.3125 24.320312 43.328125 24.496094 C 43.453125 24.632812 43.492188 24.792969 43.445312 24.976562 C 43.308594 25.359375 43.050781 25.480469 42.667969 25.347656 C 42.472656 25.191406 42.367188 24.988281 42.34375 24.734375 C 42.320312 24.578125 42.308594 24.417969 42.308594 24.257812 C 42.332031 23 42.386719 21.742188 42.460938 20.488281 C 42.523438 20.296875 42.644531 20.175781 42.835938 20.128906 Z M 42.835938 20.128906 "/>
<path style=" stroke:none;fill-rule:evenodd;fill:rgb(99.607843%,99.215686%,99.215686%);fill-opacity:1;" d="M 26.222656 20.414062 C 25.28125 21.449219 24.335938 22.480469 23.390625 23.511719 C 23.367188 22.570312 23.359375 21.628906 23.367188 20.679688 C 23.550781 20.566406 23.753906 20.480469 23.96875 20.425781 C 24.71875 20.257812 25.472656 20.253906 26.222656 20.414062 Z M 26.222656 20.414062 "/>
<path style=" stroke:none;fill-rule:evenodd;fill:rgb(0.392157%,0.392157%,0.392157%);fill-opacity:1;" d="M 28.214844 20.605469 C 28.289062 20.703125 28.347656 20.804688 28.398438 20.917969 C 28.691406 21.753906 28.625 22.5625 28.203125 23.34375 C 27.816406 23.980469 27.308594 24.496094 26.679688 24.890625 C 25.796875 25.460938 24.84375 25.625 23.824219 25.382812 C 24.113281 25.070312 24.402344 24.757812 24.6875 24.449219 C 25.347656 24.40625 25.929688 24.179688 26.441406 23.765625 C 26.9375 23.378906 27.289062 22.886719 27.484375 22.289062 C 27.535156 22 27.53125 21.710938 27.472656 21.421875 C 27.703125 21.136719 27.953125 20.863281 28.214844 20.605469 Z M 28.214844 20.605469 "/>
<path style=" stroke:none;fill-rule:evenodd;fill:rgb(79.215686%,78.823529%,78.823529%);fill-opacity:1;" d="M 23.367188 20.679688 C 23.359375 21.628906 23.367188 22.570312 23.390625 23.511719 C 23.382812 23.53125 23.367188 23.539062 23.34375 23.535156 C 23.335938 22.578125 23.34375 21.628906 23.367188 20.679688 Z M 23.367188 20.679688 "/>
<use xlink:href="#surface21" mask="url(#mask5)"/>
<use xlink:href="#surface24" mask="url(#mask6)"/>
<path style=" stroke:none;fill-rule:evenodd;fill:rgb(0.784314%,0.392157%,0.392157%);fill-opacity:1;" d="M 7.140625 22.984375 C 6.832031 23.328125 6.511719 23.664062 6.179688 23.992188 C 6.0625 23.984375 5.953125 23.992188 5.84375 24.015625 C 5.488281 24.015625 5.136719 24.050781 4.789062 24.125 C 4.96875 24.363281 5.167969 24.582031 5.390625 24.785156 C 5.171875 25.039062 4.941406 25.277344 4.691406 25.503906 C 4.179688 24.960938 3.601562 24.492188 2.964844 24.101562 C 2.765625 23.929688 2.699219 23.71875 2.761719 23.464844 C 2.835938 23.308594 2.933594 23.164062 3.046875 23.03125 C 3.761719 22.398438 4.445312 21.730469 5.101562 21.027344 C 5.265625 20.925781 5.433594 20.917969 5.605469 21.003906 C 5.871094 21.171875 5.953125 21.410156 5.855469 21.710938 C 5.472656 22.199219 5.042969 22.652344 4.574219 23.066406 C 5.429688 23.027344 6.285156 23 7.140625 22.984375 Z M 7.140625 22.984375 "/>
<path style=" stroke:none;fill-rule:evenodd;fill:rgb(98.823529%,98.823529%,98.823529%);fill-opacity:1;" d="M 27.472656 21.421875 C 27.53125 21.710938 27.535156 22 27.484375 22.289062 C 27.289062 22.886719 26.9375 23.378906 26.441406 23.765625 C 25.929688 24.179688 25.347656 24.40625 24.6875 24.449219 C 25.609375 23.429688 26.539062 22.421875 27.472656 21.421875 Z M 27.472656 21.421875 "/>
<path style=" stroke:none;fill-rule:evenodd;fill:rgb(0.392157%,0.392157%,0.392157%);fill-opacity:1;" d="M 8.390625 24.015625 C 8.71875 23.65625 9.054688 23.304688 9.398438 22.960938 C 9.675781 22.9375 9.957031 22.933594 10.238281 22.949219 C 10.378906 22.964844 10.511719 22.996094 10.644531 23.042969 C 10.886719 23.164062 11.019531 23.359375 11.042969 23.632812 C 11.058594 24.945312 11.058594 26.257812 11.042969 27.570312 C 11.023438 27.632812 11 27.699219 10.96875 27.761719 C 10.8125 27.9375 10.617188 28.003906 10.382812 27.964844 C 10.171875 27.898438 10.046875 27.757812 10.007812 27.542969 C 10.003906 26.375 9.992188 25.207031 9.972656 24.039062 C 9.445312 24.042969 8.917969 24.035156 8.390625 24.015625 Z M 8.390625 24.015625 "/>
<path style=" stroke:none;fill-rule:evenodd;fill:rgb(53.333333%,49.411765%,49.019608%);fill-opacity:1;" d="M 5.84375 24.015625 C 5.953125 23.992188 6.0625 23.984375 6.179688 23.992188 C 6.171875 24.015625 6.15625 24.03125 6.132812 24.039062 C 6.042969 24.015625 5.945312 24.007812 5.84375 24.015625 Z M 5.84375 24.015625 "/>
<path style=" stroke:none;fill-rule:evenodd;fill:rgb(98.039216%,97.647059%,97.647059%);fill-opacity:1;" d="M 5.84375 24.015625 C 5.945312 24.007812 6.042969 24.015625 6.132812 24.039062 C 5.894531 24.296875 5.644531 24.542969 5.390625 24.785156 C 5.167969 24.582031 4.96875 24.363281 4.789062 24.125 C 5.136719 24.050781 5.488281 24.015625 5.84375 24.015625 Z M 5.84375 24.015625 "/>
<path style=" stroke:none;fill-rule:evenodd;fill:rgb(0.392157%,0.392157%,0.392157%);fill-opacity:1;" d="M 23.296875 25.960938 C 23.25 26.625 23.238281 27.289062 23.257812 27.953125 C 23.300781 28.144531 23.355469 28.332031 23.414062 28.515625 C 23.398438 28.703125 23.339844 28.875 23.234375 29.03125 C 23.171875 29.097656 23.097656 29.140625 23.007812 29.164062 C 22.53125 29.210938 22.289062 28.988281 22.277344 28.503906 C 22.234375 28.042969 22.214844 27.578125 22.214844 27.113281 C 22.574219 26.726562 22.9375 26.34375 23.296875 25.960938 Z M 23.296875 25.960938 "/>
<path style=" stroke:none;fill-rule:evenodd;fill:rgb(0.392157%,0.392157%,0.392157%);fill-opacity:1;" d="M 42.785156 26.679688 C 43.246094 26.652344 43.527344 26.863281 43.640625 27.304688 C 43.6875 27.90625 43.410156 28.203125 42.8125 28.203125 C 42.648438 28.179688 42.515625 28.105469 42.414062 27.976562 C 42.335938 27.8125 42.265625 27.644531 42.199219 27.472656 C 42.179688 27.046875 42.375 26.785156 42.785156 26.679688 Z M 42.785156 26.679688 "/>
<use xlink:href="#surface27" mask="url(#mask7)"/>
<use xlink:href="#surface30" mask="url(#mask8)"/>
<path style=" stroke:none;fill-rule:evenodd;fill:rgb(99.607843%,99.607843%,99.607843%);fill-opacity:1;" d="M 24.015625 35.5625 C 25.703125 35.445312 27.214844 35.898438 28.550781 36.917969 C 29.035156 37.3125 29.441406 37.773438 29.765625 38.296875 C 30.144531 38.933594 30.503906 39.582031 30.84375 40.242188 C 31.582031 41.722656 31.652344 43.234375 31.0625 44.777344 C 30.621094 45.972656 29.835938 46.847656 28.695312 47.40625 C 27.199219 48.066406 25.640625 48.289062 24.015625 48.078125 C 21.285156 47.515625 19.480469 45.914062 18.601562 43.265625 C 18.210938 41.96875 18.234375 40.679688 18.675781 39.402344 C 19.023438 38.550781 19.554688 37.835938 20.269531 37.253906 C 20.890625 36.769531 21.554688 36.355469 22.261719 36.003906 C 22.832031 35.785156 23.417969 35.636719 24.015625 35.5625 Z M 24.015625 35.5625 "/>
<path style=" stroke:none;fill-rule:evenodd;fill:rgb(99.607843%,99.607843%,99.607843%);fill-opacity:1;" d="M 7.046875 36.570312 C 8.3125 36.496094 9.492188 36.789062 10.574219 37.445312 C 11.15625 37.816406 11.734375 38.203125 12.300781 38.597656 C 13.65625 39.582031 14.414062 40.914062 14.570312 42.59375 C 14.71875 44.011719 14.316406 45.242188 13.371094 46.292969 C 12.367188 47.414062 11.15625 48.214844 9.734375 48.703125 C 6.945312 49.449219 4.5625 48.773438 2.59375 46.675781 C 0.84375 44.621094 0.613281 42.40625 1.894531 40.027344 C 3 37.96875 4.714844 36.816406 7.046875 36.570312 Z M 7.046875 36.570312 "/>
<path style=" stroke:none;fill-rule:evenodd;fill:rgb(66.666667%,23.529412%,18.431373%);fill-opacity:1;" d="M 21.832031 42.140625 C 21.859375 41.703125 21.863281 41.261719 21.84375 40.820312 C 21.828125 40.832031 21.8125 40.847656 21.808594 40.867188 C 21.375 41.3125 20.957031 41.769531 20.546875 42.234375 C 20.335938 42.480469 20.101562 42.507812 19.839844 42.320312 C 19.691406 42.167969 19.632812 41.984375 19.660156 41.777344 C 19.722656 41.632812 19.8125 41.507812 19.921875 41.394531 C 20.550781 40.765625 21.144531 40.109375 21.699219 39.425781 C 21.839844 39.210938 21.980469 38.996094 22.121094 38.777344 C 22.316406 38.589844 22.53125 38.5625 22.769531 38.695312 C 23.011719 38.882812 23.230469 39.09375 23.429688 39.332031 C 23.757812 39.800781 24.078125 40.28125 24.386719 40.769531 C 24.515625 40.9375 24.652344 41.097656 24.796875 41.25 C 24.984375 41.503906 24.964844 41.738281 24.734375 41.957031 C 24.410156 42.140625 24.125 42.089844 23.882812 41.800781 C 23.558594 41.265625 23.222656 40.738281 22.875 40.21875 C 22.859375 41.035156 22.851562 41.851562 22.851562 42.667969 C 22.90625 43.226562 22.960938 43.789062 23.019531 44.347656 C 23.035156 44.578125 23.035156 44.8125 23.019531 45.042969 C 22.925781 45.375 22.703125 45.511719 22.359375 45.464844 C 22.199219 45.421875 22.089844 45.320312 22.035156 45.164062 C 22.019531 44.464844 21.964844 43.769531 21.867188 43.074219 C 21.84375 42.761719 21.832031 42.449219 21.832031 42.140625 Z M 21.832031 42.140625 "/>
<path style=" stroke:none;fill-rule:evenodd;fill:rgb(0.392157%,0.392157%,0.392157%);fill-opacity:1;" d="M 28.097656 42.785156 C 28.070312 43.054688 28.066406 43.328125 28.085938 43.601562 C 28.101562 43.589844 28.113281 43.574219 28.121094 43.554688 C 28.3125 43.320312 28.535156 43.125 28.792969 42.96875 C 29.265625 42.90625 29.511719 43.109375 29.523438 43.578125 C 29.5 43.628906 29.476562 43.675781 29.453125 43.722656 C 29.261719 43.882812 29.085938 44.058594 28.925781 44.25 C 28.628906 44.644531 28.332031 45.035156 28.035156 45.425781 C 27.855469 45.671875 27.617188 45.816406 27.316406 45.859375 C 27.144531 45.84375 27 45.773438 26.882812 45.644531 C 26.726562 45.367188 26.574219 45.085938 26.429688 44.804688 C 26.207031 44.507812 26 44.203125 25.804688 43.890625 C 25.667969 43.507812 25.789062 43.246094 26.175781 43.109375 C 26.355469 43.082031 26.507812 43.125 26.644531 43.242188 C 26.773438 43.449219 26.898438 43.660156 27.027344 43.867188 C 27.035156 43.332031 27.042969 42.792969 27.050781 42.257812 C 27.113281 41.242188 27.167969 40.226562 27.21875 39.210938 C 27.367188 38.832031 27.636719 38.707031 28.023438 38.839844 C 28.125 38.898438 28.203125 38.984375 28.253906 39.089844 C 28.246094 39.949219 28.207031 40.804688 28.132812 41.660156 C 28.109375 42.035156 28.097656 42.410156 28.097656 42.785156 Z M 28.097656 42.785156 "/>
<path style=" stroke:none;fill-rule:evenodd;fill:rgb(89.411765%,77.254902%,75.686275%);fill-opacity:1;" d="M 21.832031 42.140625 C 21.839844 41.710938 21.832031 41.285156 21.808594 40.867188 C 21.8125 40.847656 21.828125 40.832031 21.84375 40.820312 C 21.863281 41.261719 21.859375 41.703125 21.832031 42.140625 Z M 21.832031 42.140625 "/>
<path style=" stroke:none;fill-rule:evenodd;fill:rgb(66.666667%,23.529412%,18.431373%);fill-opacity:1;" d="M 5.894531 44.417969 C 5.894531 44.308594 5.894531 44.195312 5.894531 44.082031 C 5.867188 44.082031 5.84375 44.082031 5.820312 44.082031 C 5.210938 44.078125 4.601562 44.101562 3.996094 44.15625 C 4.015625 44.386719 3.953125 44.589844 3.804688 44.765625 C 3.664062 44.863281 3.550781 44.84375 3.457031 44.707031 C 3.40625 44.519531 3.382812 44.328125 3.398438 44.132812 C 3.242188 44.132812 3.089844 44.113281 2.941406 44.070312 C 2.878906 44.039062 2.84375 43.984375 2.832031 43.914062 C 2.875 43.65625 2.898438 43.390625 2.890625 43.121094 C 2.878906 42.785156 2.871094 42.449219 2.867188 42.113281 C 3.019531 42.121094 3.171875 42.113281 3.324219 42.089844 C 3.464844 41.84375 3.605469 41.59375 3.746094 41.347656 C 3.789062 41.265625 3.851562 41.199219 3.925781 41.144531 C 4.074219 41.105469 4.226562 41.074219 4.378906 41.046875 C 4.882812 41.039062 5.382812 41.019531 5.882812 40.988281 C 5.980469 40.980469 6.070312 41 6.15625 41.046875 C 6.335938 41.339844 6.511719 41.640625 6.671875 41.945312 C 6.800781 42.089844 6.964844 42.167969 7.164062 42.175781 C 7.207031 42.195312 7.242188 42.222656 7.273438 42.257812 C 7.320312 42.769531 7.40625 43.273438 7.539062 43.769531 C 7.554688 43.875 7.554688 43.980469 7.539062 44.082031 C 7.535156 44.136719 7.511719 44.179688 7.476562 44.214844 C 7.171875 44.214844 6.867188 44.195312 6.566406 44.15625 C 6.578125 44.429688 6.464844 44.632812 6.230469 44.765625 C 6.003906 44.769531 5.890625 44.652344 5.894531 44.417969 Z M 5.894531 44.417969 "/>
<path style=" stroke:none;fill-rule:evenodd;fill:rgb(0.784314%,0.784314%,0.784314%);fill-opacity:1;" d="M 8.871094 44.46875 C 8.871094 44.347656 8.871094 44.226562 8.871094 44.105469 C 8.8125 44.105469 8.757812 44.105469 8.703125 44.105469 C 8.535156 44.140625 8.402344 44.09375 8.304688 43.964844 C 8.339844 43.714844 8.359375 43.460938 8.367188 43.207031 C 8.347656 42.84375 8.339844 42.480469 8.339844 42.113281 C 8.484375 42.117188 8.628906 42.113281 8.773438 42.101562 C 8.9375 41.839844 9.09375 41.574219 9.242188 41.296875 C 9.277344 41.230469 9.328125 41.179688 9.398438 41.144531 C 9.5625 41.085938 9.730469 41.054688 9.902344 41.046875 C 10.394531 41.039062 10.886719 41.019531 11.378906 40.988281 C 11.46875 40.980469 11.550781 41.003906 11.628906 41.046875 C 11.800781 41.347656 11.972656 41.644531 12.144531 41.945312 C 12.195312 42 12.246094 42.046875 12.300781 42.089844 C 12.453125 42.113281 12.589844 42.160156 12.722656 42.234375 C 12.742188 42.265625 12.753906 42.296875 12.757812 42.332031 C 12.734375 42.417969 12.730469 42.507812 12.746094 42.59375 C 12.8125 43 12.902344 43.398438 13.011719 43.796875 C 13.039062 43.941406 13.019531 44.082031 12.949219 44.214844 C 12.644531 44.210938 12.339844 44.191406 12.039062 44.15625 C 12.042969 44.414062 11.9375 44.609375 11.726562 44.742188 C 11.578125 44.792969 11.46875 44.746094 11.402344 44.609375 C 11.351562 44.4375 11.332031 44.261719 11.34375 44.082031 C 10.71875 44.078125 10.09375 44.09375 9.46875 44.132812 C 9.492188 44.390625 9.410156 44.609375 9.230469 44.792969 C 9.074219 44.863281 8.964844 44.820312 8.90625 44.660156 C 8.886719 44.597656 8.875 44.53125 8.871094 44.46875 Z M 8.871094 44.46875 "/>
<path style=" stroke:none;fill-rule:evenodd;fill:rgb(99.215686%,98.431373%,98.431373%);fill-opacity:1;" d="M 4.378906 41.179688 C 4.933594 41.175781 5.484375 41.179688 6.035156 41.191406 C 6.1875 41.484375 6.335938 41.777344 6.492188 42.066406 C 5.828125 42.0625 5.164062 42.070312 4.5 42.089844 C 4.164062 42.085938 3.828125 42.070312 3.492188 42.042969 C 3.648438 41.789062 3.808594 41.535156 3.972656 41.285156 C 4.113281 41.261719 4.25 41.222656 4.378906 41.179688 Z M 4.378906 41.179688 "/>
<path style=" stroke:none;fill-rule:evenodd;fill:rgb(98.039216%,98.039216%,98.039216%);fill-opacity:1;" d="M 9.855469 41.179688 C 10.398438 41.175781 10.941406 41.179688 11.484375 41.191406 C 11.65625 41.476562 11.816406 41.769531 11.964844 42.066406 C 10.96875 42.070312 9.972656 42.078125 8.976562 42.089844 C 8.945312 42.082031 8.9375 42.066406 8.953125 42.042969 C 9.097656 41.824219 9.234375 41.601562 9.363281 41.371094 C 9.398438 41.324219 9.441406 41.289062 9.492188 41.261719 C 9.617188 41.238281 9.738281 41.210938 9.855469 41.179688 Z M 9.855469 41.179688 "/>
<path style=" stroke:none;fill-rule:evenodd;fill:rgb(99.215686%,98.431373%,98.039216%);fill-opacity:1;" d="M 6.179688 42.738281 C 6.539062 42.734375 6.6875 42.910156 6.625 43.265625 C 6.492188 43.511719 6.289062 43.617188 6.011719 43.589844 C 5.808594 43.53125 5.726562 43.402344 5.761719 43.195312 C 5.832031 42.976562 5.972656 42.824219 6.179688 42.738281 Z M 6.179688 42.738281 "/>
<path style=" stroke:none;fill-rule:evenodd;fill:rgb(98.039216%,98.039216%,98.039216%);fill-opacity:1;" d="M 11.652344 42.738281 C 11.832031 42.722656 11.96875 42.785156 12.074219 42.929688 C 12.175781 43.285156 12.042969 43.507812 11.679688 43.589844 C 11.230469 43.578125 11.113281 43.375 11.328125 42.980469 C 11.417969 42.863281 11.523438 42.785156 11.652344 42.738281 Z M 11.652344 42.738281 "/>
<path style=" stroke:none;fill-rule:evenodd;fill:rgb(99.215686%,98.039216%,97.647059%);fill-opacity:1;" d="M 3.78125 42.785156 C 4.230469 42.8125 4.359375 43.03125 4.175781 43.433594 C 3.914062 43.652344 3.699219 43.613281 3.527344 43.316406 C 3.46875 43.0625 3.554688 42.886719 3.78125 42.785156 Z M 3.78125 42.785156 "/>
<path style=" stroke:none;fill-rule:evenodd;fill:rgb(97.647059%,97.647059%,97.647059%);fill-opacity:1;" d="M 9.277344 42.785156 C 9.675781 42.816406 9.808594 43.015625 9.671875 43.386719 C 9.476562 43.632812 9.269531 43.640625 9.050781 43.410156 C 8.949219 43.203125 8.976562 43.015625 9.132812 42.847656 C 9.183594 42.828125 9.230469 42.804688 9.277344 42.785156 Z M 9.277344 42.785156 "/>
<path style=" stroke:none;fill-rule:evenodd;fill:rgb(47.843137%,47.843137%,47.843137%);fill-opacity:1;" d="M 28.097656 42.785156 C 28.089844 43.046875 28.097656 43.304688 28.121094 43.554688 C 28.113281 43.574219 28.101562 43.589844 28.085938 43.601562 C 28.066406 43.328125 28.070312 43.054688 28.097656 42.785156 Z M 28.097656 42.785156 "/>
<path style=" stroke:none;fill-rule:evenodd;fill:rgb(53.72549%,53.72549%,53.72549%);fill-opacity:1;" d="M 8.703125 44.105469 C 8.757812 44.105469 8.8125 44.105469 8.871094 44.105469 C 8.871094 44.226562 8.871094 44.347656 8.871094 44.46875 C 8.847656 44.359375 8.835938 44.246094 8.84375 44.132812 C 8.792969 44.136719 8.742188 44.128906 8.703125 44.105469 Z M 8.703125 44.105469 "/>
<path style=" stroke:none;fill-rule:evenodd;fill:rgb(87.45098%,73.333333%,71.764706%);fill-opacity:1;" d="M 5.820312 44.082031 C 5.84375 44.082031 5.867188 44.082031 5.894531 44.082031 C 5.894531 44.195312 5.894531 44.308594 5.894531 44.417969 C 5.882812 44.304688 5.859375 44.191406 5.820312 44.082031 Z M 5.820312 44.082031 "/>
</g>
</svg>
