<?xml version="1.0" encoding="UTF-8"?>
<svg xmlns="http://www.w3.org/2000/svg" xmlns:xlink="http://www.w3.org/1999/xlink" width="50pt" height="50pt" viewBox="0 0 50 50" version="1.1">
<defs>
<filter id="alpha" filterUnits="objectBoundingBox" x="0%" y="0%" width="100%" height="100%">
  <feColorMatrix type="matrix" in="SourceGraphic" values="0 0 0 0 1 0 0 0 0 1 0 0 0 0 1 0 0 0 1 0"/>
</filter>
<mask id="mask0">
  <g filter="url(#alpha)">
<rect x="0" y="0" width="50" height="50" style="fill:rgb(0%,0%,0%);fill-opacity:0.992157;stroke:none;"/>
  </g>
</mask>
<clipPath id="clip1">
  <rect width="50" height="50"/>
</clipPath>
<g id="surface6" clip-path="url(#clip1)">
<path style=" stroke:none;fill-rule:evenodd;fill:rgb(0.392157%,0.392157%,0.392157%);fill-opacity:1;" d="M 44.074219 22.816406 C 42.878906 23.621094 41.679688 24.429688 40.476562 25.238281 C 37.707031 27.054688 34.765625 28.542969 31.644531 29.703125 C 28.308594 30.945312 24.902344 31.1875 21.425781 30.421875 C 18.960938 29.835938 16.640625 28.890625 14.46875 27.589844 C 12.347656 26.308594 10.363281 24.835938 8.515625 23.175781 C 8.425781 23.109375 8.328125 23.050781 8.230469 23.007812 C 8.066406 22.789062 7.867188 22.613281 7.628906 22.480469 C 6.625 22.949219 5.609375 23.386719 4.582031 23.800781 C 3.925781 23.898438 3.484375 23.636719 3.261719 23.007812 C 3.171875 22.640625 3.261719 22.332031 3.527344 22.074219 C 4.429688 21.644531 5.34375 21.230469 6.261719 20.824219 C 6.46875 20.398438 6.804688 20.238281 7.269531 20.34375 C 9.273438 19.351562 11.335938 18.503906 13.460938 17.800781 C 15.890625 17.117188 18.371094 16.71875 20.898438 16.601562 C 22.257812 16.53125 23.617188 16.464844 24.976562 16.410156 C 25.5 16.046875 25.996094 15.648438 26.464844 15.210938 C 26.726562 15.105469 26.984375 15.121094 27.230469 15.257812 C 27.335938 15.371094 27.449219 15.476562 27.566406 15.570312 C 27.957031 15.4375 28.355469 15.359375 28.765625 15.332031 C 29.460938 15.386719 29.734375 15.753906 29.582031 16.433594 C 33.015625 16.542969 36.390625 17.046875 39.707031 17.945312 C 41.589844 18.566406 43.421875 19.3125 45.203125 20.175781 C 45.867188 19.625 46.546875 19.085938 47.242188 18.570312 C 47.914062 18.492188 48.226562 18.785156 48.175781 19.457031 C 48.132812 19.582031 48.0625 19.6875 47.960938 19.769531 C 47.515625 20.101562 47.082031 20.457031 46.664062 20.824219 C 46.929688 20.945312 47.195312 21.066406 47.457031 21.183594 C 47.6875 20.863281 48.007812 20.703125 48.417969 20.707031 C 49.214844 20.765625 49.667969 21.191406 49.785156 21.976562 C 49.738281 22.414062 49.699219 22.855469 49.664062 23.296875 C 49.382812 24.105469 48.816406 24.464844 47.960938 24.375 C 47.8125 24.324219 47.667969 24.261719 47.527344 24.183594 C 46.65625 23.464844 45.71875 22.832031 44.722656 22.289062 C 44.507812 22.472656 44.289062 22.648438 44.074219 22.816406 Z M 20.511719 18.738281 C 16.730469 19.667969 13.050781 20.917969 9.476562 22.480469 C 9.277344 22.289062 9.070312 22.105469 8.851562 21.929688 C 11.1875 20.746094 13.636719 19.867188 16.195312 19.289062 C 17.621094 19.011719 19.0625 18.828125 20.511719 18.738281 Z M 40.523438 20.464844 C 41.488281 20.753906 42.414062 21.128906 43.304688 21.59375 C 43.183594 21.691406 43.054688 21.78125 42.921875 21.855469 C 42.152344 21.34375 41.351562 20.878906 40.523438 20.464844 Z M 40.523438 20.464844 "/>
</g>
<mask id="mask1">
  <g filter="url(#alpha)">
<rect x="0" y="0" width="50" height="50" style="fill:rgb(0%,0%,0%);fill-opacity:0.996078;stroke:none;"/>
  </g>
</mask>
<clipPath id="clip2">
  <rect width="50" height="50"/>
</clipPath>
<g id="surface9" clip-path="url(#clip2)">
<path style=" stroke:none;fill-rule:evenodd;fill:rgb(90.588235%,90.588235%,90.588235%);fill-opacity:1;" d="M 25.742188 18.546875 C 25.882812 18.53125 26.011719 18.546875 26.128906 18.59375 C 25.351562 19.332031 24.75 20.195312 24.328125 21.183594 C 24.238281 21.433594 24.175781 21.691406 24.136719 21.953125 C 24.125 22.515625 24.15625 23.074219 24.230469 23.632812 C 24.296875 23.90625 24.425781 24.148438 24.617188 24.351562 C 24.632812 24.71875 24.65625 25.089844 24.6875 25.457031 C 24.636719 25.789062 24.613281 26.125 24.617188 26.464844 C 24.683594 26.730469 24.851562 26.890625 25.121094 26.945312 C 25.5 28.035156 26.269531 28.507812 27.421875 28.359375 C 27.65625 28.316406 27.875 28.230469 28.070312 28.09375 C 28.109375 28.476562 28.195312 28.84375 28.335938 29.199219 C 28.308594 29.230469 28.277344 29.253906 28.238281 29.269531 C 24.414062 29.8125 20.753906 29.269531 17.25 27.640625 C 14.402344 26.289062 11.8125 24.570312 9.476562 22.480469 C 13.050781 20.917969 16.730469 19.667969 20.511719 18.738281 C 21.566406 18.609375 22.621094 18.554688 23.679688 18.570312 C 23.25 18.96875 22.859375 19.390625 22.503906 19.839844 C 22.480469 20.355469 22.722656 20.65625 23.222656 20.753906 C 23.40625 20.734375 23.574219 20.679688 23.726562 20.585938 C 23.90625 20.441406 24.082031 20.296875 24.257812 20.152344 C 24.761719 19.621094 25.257812 19.085938 25.742188 18.546875 Z M 25.742188 18.546875 "/>
</g>
<mask id="mask2">
  <g filter="url(#alpha)">
<rect x="0" y="0" width="50" height="50" style="fill:rgb(0%,0%,0%);fill-opacity:0.992157;stroke:none;"/>
  </g>
</mask>
<clipPath id="clip3">
  <rect width="50" height="50"/>
</clipPath>
<g id="surface12" clip-path="url(#clip3)">
<path style=" stroke:none;fill-rule:evenodd;fill:rgb(90.588235%,90.588235%,90.588235%);fill-opacity:1;" d="M 44.074219 22.816406 C 44.3125 23.046875 44.539062 23.296875 44.746094 23.558594 C 41.375 26.410156 37.632812 28.683594 33.515625 30.375 C 21.875 35.042969 10.792969 33.996094 0.265625 27.230469 C 0.210938 27.164062 0.226562 27.109375 0.3125 27.0625 C 2.886719 25.585938 5.523438 24.234375 8.230469 23.007812 C 8.328125 23.050781 8.425781 23.109375 8.515625 23.175781 C 10.363281 24.835938 12.347656 26.308594 14.46875 27.589844 C 16.640625 28.890625 18.960938 29.835938 21.425781 30.421875 C 24.902344 31.1875 28.308594 30.945312 31.644531 29.703125 C 34.765625 28.542969 37.707031 27.054688 40.476562 25.238281 C 41.679688 24.429688 42.878906 23.621094 44.074219 22.816406 Z M 44.074219 22.816406 "/>
</g>
</defs>
<g id="surface1">
<use xlink:href="#surface6" mask="url(#mask0)"/>
<path style=" stroke:none;fill-rule:evenodd;fill:rgb(48.627451%,48.627451%,48.627451%);fill-opacity:1;" d="M 25.742188 18.546875 C 25.894531 18.492188 26.054688 18.484375 26.222656 18.523438 C 26.199219 18.554688 26.164062 18.582031 26.128906 18.59375 C 26.011719 18.546875 25.882812 18.53125 25.742188 18.546875 Z M 25.742188 18.546875 "/>
<use xlink:href="#surface9" mask="url(#mask1)"/>
<path style=" stroke:none;fill-rule:evenodd;fill:rgb(90.588235%,90.588235%,90.588235%);fill-opacity:1;" d="M 40.332031 20.371094 C 40.347656 20.410156 40.378906 20.425781 40.425781 20.417969 C 40.445312 20.457031 40.476562 20.472656 40.523438 20.464844 C 41.351562 20.878906 42.152344 21.34375 42.921875 21.855469 C 39.398438 24.492188 35.59375 26.675781 31.5 28.40625 C 30.902344 28.628906 30.292969 28.804688 29.679688 28.933594 C 30.359375 27.929688 30.894531 26.851562 31.285156 25.695312 C 31.761719 24.304688 32.175781 22.898438 32.535156 21.472656 C 32.730469 20.535156 32.5 19.730469 31.835938 19.050781 C 31.574219 18.890625 31.285156 18.800781 30.972656 18.785156 C 30.683594 18.84375 30.398438 18.90625 30.109375 18.976562 C 30.109375 18.851562 30.109375 18.722656 30.109375 18.59375 C 32.921875 18.683594 35.6875 19.078125 38.410156 19.769531 C 39.0625 19.9375 39.703125 20.136719 40.332031 20.371094 Z M 40.332031 20.371094 "/>
<path style=" stroke:none;fill-rule:evenodd;fill:rgb(62.745098%,62.745098%,62.745098%);fill-opacity:1;" d="M 28.191406 18.929688 C 28.242188 18.921875 28.289062 18.929688 28.335938 18.953125 C 28.191406 19.035156 28.046875 19.097656 27.902344 19.144531 C 27.992188 19.0625 28.089844 18.988281 28.191406 18.929688 Z M 28.191406 18.929688 "/>
<path style=" stroke:none;fill-rule:evenodd;fill:rgb(85.490196%,85.490196%,85.490196%);fill-opacity:1;" d="M 30.542969 20.5625 C 30.847656 20.699219 31.015625 20.941406 31.046875 21.28125 C 31.046875 21.789062 30.964844 22.285156 30.804688 22.769531 C 30.683594 22.578125 30.578125 22.378906 30.496094 22.167969 C 30.601562 21.636719 30.617188 21.101562 30.542969 20.5625 Z M 30.542969 20.5625 "/>
<path style=" stroke:none;fill-rule:evenodd;fill:rgb(85.098039%,85.098039%,85.098039%);fill-opacity:1;" d="M 29.628906 20.898438 C 29.691406 20.996094 29.726562 21.117188 29.726562 21.257812 C 29.707031 21.503906 29.691406 21.753906 29.679688 22 C 29.476562 22.015625 29.292969 22.082031 29.125 22.191406 C 29.117188 22.167969 29.109375 22.144531 29.101562 22.121094 C 29.300781 21.722656 29.476562 21.3125 29.628906 20.898438 Z M 29.628906 20.898438 "/>
<use xlink:href="#surface12" mask="url(#mask2)"/>
<path style=" stroke:none;fill-rule:evenodd;fill:rgb(51.764706%,51.764706%,51.764706%);fill-opacity:1;" d="M 27.039062 23.007812 C 27.144531 23.027344 27.144531 23.074219 27.039062 23.152344 C 27.011719 23.117188 27.011719 23.070312 27.039062 23.007812 Z M 27.039062 23.007812 "/>
<path style=" stroke:none;fill-rule:evenodd;fill:rgb(89.411765%,89.411765%,89.411765%);fill-opacity:1;" d="M 29.101562 23.535156 C 29.152344 23.535156 29.183594 23.558594 29.199219 23.609375 C 28.808594 24.632812 28.335938 25.617188 27.78125 26.558594 C 27.644531 26.777344 27.460938 26.945312 27.230469 27.0625 C 26.695312 27.101562 26.382812 26.855469 26.296875 26.320312 C 26.945312 25.675781 27.511719 24.972656 28 24.207031 C 28.394531 24.019531 28.761719 23.796875 29.101562 23.535156 Z M 29.101562 23.535156 "/>
</g>
</svg>
