<?xml version="1.0" encoding="UTF-8"?>
<svg xmlns="http://www.w3.org/2000/svg" xmlns:xlink="http://www.w3.org/1999/xlink" width="50pt" height="50pt" viewBox="0 0 50 50" version="1.1">
<defs>
<filter id="alpha" filterUnits="objectBoundingBox" x="0%" y="0%" width="100%" height="100%">
  <feColorMatrix type="matrix" in="SourceGraphic" values="0 0 0 0 1 0 0 0 0 1 0 0 0 0 1 0 0 0 1 0"/>
</filter>
<mask id="mask0">
  <g filter="url(#alpha)">
<rect x="0" y="0" width="50" height="50" style="fill:rgb(0%,0%,0%);fill-opacity:0.988235;stroke:none;"/>
  </g>
</mask>
<clipPath id="clip1">
  <rect width="50" height="50"/>
</clipPath>
<g id="surface6" clip-path="url(#clip1)">
<path style=" stroke:none;fill-rule:evenodd;fill:rgb(0%,0%,0%);fill-opacity:1;" d="M 42.113281 44.707031 C 41.785156 44.855469 41.441406 44.945312 41.082031 44.984375 C 40.679688 45.113281 40.273438 45.226562 39.859375 45.320312 C 39.285156 45.363281 38.71875 45.445312 38.152344 45.558594 C 37.578125 45.710938 37.011719 45.875 36.449219 46.050781 C 35.921875 46.199219 35.386719 46.300781 34.839844 46.351562 C 33.601562 46.449219 32.363281 46.527344 31.121094 46.589844 C 30.363281 46.667969 29.613281 46.769531 28.863281 46.902344 C 27.03125 47.230469 25.199219 47.558594 23.367188 47.886719 C 22.289062 48.066406 21.207031 48.164062 20.113281 48.1875 C 18.902344 48.199219 17.722656 48.011719 16.574219 47.625 C 16.5 47.585938 16.425781 47.546875 16.347656 47.515625 C 16.121094 47.570312 15.929688 47.515625 15.769531 47.347656 C 15.648438 47.164062 15.546875 46.96875 15.46875 46.757812 C 15.191406 46.757812 14.917969 46.707031 14.65625 46.617188 C 14.25 46.417969 13.886719 46.167969 13.5625 45.859375 C 12.980469 45.132812 12.886719 44.34375 13.285156 43.496094 C 12.664062 43.421875 12.140625 43.164062 11.714844 42.714844 C 11.375 42.277344 11.238281 41.78125 11.304688 41.226562 C 11.375 40.796875 11.519531 40.398438 11.738281 40.027344 C 12.011719 39.675781 12.367188 39.445312 12.804688 39.34375 C 12.761719 39.230469 12.730469 39.113281 12.710938 38.996094 C 12.566406 39.050781 12.425781 39.054688 12.277344 39.007812 C 11.988281 38.871094 11.71875 38.710938 11.460938 38.527344 C 11.160156 38.269531 10.972656 37.945312 10.898438 37.554688 C 10.816406 36.953125 10.878906 36.367188 11.089844 35.800781 C 11.242188 35.515625 11.4375 35.261719 11.679688 35.046875 C 11.632812 34.863281 11.582031 34.683594 11.535156 34.503906 C 10.539062 34.238281 10.019531 33.589844 9.972656 32.5625 C 9.972656 31.929688 10.210938 31.410156 10.695312 31.011719 C 10.636719 30.769531 10.589844 30.527344 10.550781 30.28125 C 9.261719 30.09375 8.640625 29.347656 8.6875 28.046875 C 8.757812 27.304688 9.113281 26.753906 9.757812 26.390625 C 9.765625 26.371094 9.773438 26.351562 9.78125 26.332031 C 9.753906 26.199219 9.730469 26.070312 9.710938 25.9375 C 8.042969 25.792969 7.382812 24.90625 7.730469 23.273438 C 7.824219 22.789062 8.074219 22.417969 8.484375 22.15625 C 8.589844 22.089844 8.703125 22.046875 8.820312 22.023438 C 8.855469 22.027344 8.882812 22.007812 8.894531 21.976562 C 8.808594 21.507812 8.699219 21.042969 8.570312 20.582031 C 8.554688 20.554688 8.539062 20.554688 8.535156 20.582031 C 8.058594 20.5 7.664062 20.277344 7.34375 19.910156 C 6.644531 18.996094 6.535156 18.011719 7.007812 16.957031 C 7.144531 16.699219 7.339844 16.5 7.597656 16.359375 C 7.613281 16.253906 7.609375 16.152344 7.585938 16.046875 C 6.503906 15.835938 5.792969 15.203125 5.449219 14.148438 C 5.246094 13.460938 5.359375 12.828125 5.785156 12.253906 C 5.949219 12.066406 6.144531 11.925781 6.371094 11.832031 C 6.105469 11.574219 5.816406 11.34375 5.507812 11.136719 C 4.917969 10.613281 4.554688 9.960938 4.417969 9.179688 C 4.347656 8.621094 4.457031 8.097656 4.742188 7.609375 C 4.484375 7.402344 4.304688 7.140625 4.199219 6.828125 C 4.132812 6.203125 4.382812 5.757812 4.957031 5.496094 C 5.390625 5.339844 5.832031 5.320312 6.277344 5.449219 C 6.886719 5.585938 7.390625 5.894531 7.789062 6.371094 C 8.558594 6.085938 9.34375 5.851562 10.140625 5.664062 C 11.078125 5.453125 12.015625 5.238281 12.949219 5.015625 C 15.746094 4.304688 18.546875 3.609375 21.351562 2.929688 C 22.929688 2.5625 24.523438 2.265625 26.128906 2.039062 C 27.375 1.855469 28.621094 1.6875 29.871094 1.535156 C 31.460938 1.371094 33.042969 1.1875 34.625 0.984375 C 35.261719 0.898438 35.746094 1.128906 36.078125 1.667969 C 36.359375 2.304688 36.582031 2.960938 36.75 3.636719 C 36.886719 4.171875 37.011719 4.714844 37.121094 5.257812 C 37.3125 6.277344 37.492188 7.296875 37.660156 8.316406 C 37.78125 8.960938 37.917969 9.601562 38.070312 10.238281 C 38.597656 12.25 39.109375 14.265625 39.605469 16.285156 C 40.152344 18.222656 40.707031 20.160156 41.261719 22.09375 C 41.800781 24.464844 42.34375 26.832031 42.894531 29.199219 C 43.039062 29.730469 43.191406 30.257812 43.351562 30.785156 C 43.519531 31.523438 43.695312 32.257812 43.878906 32.992188 C 44.046875 33.488281 44.214844 33.984375 44.382812 34.480469 C 44.53125 34.976562 44.585938 35.480469 44.550781 35.992188 C 44.5 36.523438 44.234375 36.886719 43.746094 37.085938 C 43.308594 37.179688 42.867188 37.269531 42.425781 37.363281 C 42.410156 38.105469 42.394531 38.851562 42.378906 39.59375 C 42.378906 40.1875 42.410156 40.78125 42.460938 41.371094 C 42.554688 41.882812 42.632812 42.394531 42.703125 42.90625 C 42.730469 43.253906 42.714844 43.597656 42.65625 43.9375 C 42.570312 44.265625 42.390625 44.523438 42.113281 44.707031 Z M 36.378906 9.039062 C 35.6875 6.738281 35.007812 4.433594 34.335938 2.125 C 34.527344 2.050781 34.714844 2.0625 34.890625 2.160156 C 35.035156 2.359375 35.136719 2.578125 35.191406 2.820312 C 35.65625 4.878906 36.054688 6.953125 36.378906 9.039062 Z M 28.71875 2.796875 C 23.40625 3.914062 18.085938 5.015625 12.757812 6.109375 C 15.925781 5.292969 19.113281 4.527344 22.3125 3.816406 C 24.433594 3.375 26.566406 3.035156 28.71875 2.796875 Z M 5.4375 6.421875 C 5.925781 6.402344 6.375 6.527344 6.78125 6.792969 C 6.867188 6.875 6.941406 6.964844 6.996094 7.070312 C 6.980469 7.089844 6.960938 7.105469 6.9375 7.117188 C 6.628906 6.976562 6.304688 6.882812 5.964844 6.839844 C 5.792969 6.832031 5.625 6.851562 5.460938 6.890625 C 5.378906 6.800781 5.308594 6.703125 5.246094 6.601562 C 5.289062 6.519531 5.355469 6.460938 5.4375 6.421875 Z M 5.796875 7.765625 C 6.054688 7.800781 6.300781 7.867188 6.542969 7.96875 C 6.554688 7.984375 6.5625 8 6.566406 8.015625 C 6.457031 8.472656 6.375 8.933594 6.324219 9.398438 C 6.339844 9.574219 6.359375 9.75 6.386719 9.925781 C 6.523438 10.441406 6.636719 10.960938 6.722656 11.484375 C 6.476562 11.238281 6.214844 11.011719 5.941406 10.800781 C 5.363281 10.285156 5.082031 9.640625 5.089844 8.871094 C 5.175781 8.402344 5.414062 8.035156 5.796875 7.765625 Z M 6.828125 8.367188 C 6.792969 8.46875 6.753906 8.574219 6.710938 8.675781 C 6.722656 8.53125 6.753906 8.386719 6.792969 8.246094 C 6.800781 8.289062 6.8125 8.328125 6.828125 8.367188 Z M 6.925781 12.46875 C 7.121094 13.332031 7.28125 14.195312 7.40625 15.0625 C 6.773438 14.796875 6.394531 14.324219 6.265625 13.644531 C 6.234375 13.253906 6.347656 12.914062 6.613281 12.625 C 6.710938 12.558594 6.816406 12.507812 6.925781 12.46875 Z M 7.859375 17.75 C 7.980469 18.335938 8.105469 18.917969 8.234375 19.503906 C 7.734375 19 7.609375 18.414062 7.859375 17.75 Z M 9.085938 23.105469 C 9.105469 23.207031 9.136719 23.300781 9.179688 23.390625 C 9.308594 23.964844 9.425781 24.542969 9.542969 25.121094 C 8.71875 24.964844 8.445312 24.492188 8.714844 23.703125 C 8.777344 23.464844 8.902344 23.261719 9.085938 23.105469 Z M 10.453125 27.351562 C 10.710938 28.070312 10.953125 28.800781 11.171875 29.535156 C 11.007812 29.53125 10.84375 29.507812 10.683594 29.464844 C 10.550781 28.792969 10.425781 28.121094 10.308594 27.449219 C 10.324219 27.371094 10.371094 27.335938 10.453125 27.351562 Z M 9.996094 27.59375 C 10.128906 28.195312 10.246094 28.804688 10.359375 29.417969 C 9.859375 29.335938 9.613281 29.039062 9.613281 28.527344 C 9.636719 28.257812 9.714844 28 9.839844 27.761719 C 9.894531 27.703125 9.945312 27.644531 9.996094 27.59375 Z M 11.390625 30.136719 C 11.460938 30.375 11.535156 30.617188 11.605469 30.855469 C 11.394531 30.84375 11.191406 30.867188 10.992188 30.929688 C 10.949219 30.722656 10.902344 30.511719 10.863281 30.304688 C 11.03125 30.308594 11.191406 30.269531 11.34375 30.195312 C 11.355469 30.171875 11.371094 30.152344 11.390625 30.136719 Z M 11.894531 31.722656 C 12.230469 32.726562 12.558594 33.734375 12.878906 34.746094 C 12.570312 34.734375 12.277344 34.78125 11.988281 34.890625 C 11.9375 34.773438 11.898438 34.65625 11.871094 34.53125 C 12.09375 34.433594 12.175781 34.265625 12.121094 34.027344 C 12.035156 33.847656 11.890625 33.757812 11.691406 33.761719 C 11.527344 33.105469 11.363281 32.449219 11.199219 31.792969 C 11.203125 31.738281 11.238281 31.710938 11.292969 31.710938 C 11.496094 31.695312 11.695312 31.699219 11.894531 31.722656 Z M 11.316406 33.640625 C 11.195312 33.601562 11.09375 33.53125 11.019531 33.425781 C 10.730469 32.988281 10.699219 32.53125 10.921875 32.058594 C 11.074219 32.578125 11.207031 33.105469 11.316406 33.640625 Z M 13.285156 35.945312 C 13.671875 37.121094 14.054688 38.296875 14.4375 39.472656 C 14.179688 39.421875 13.925781 39.363281 13.671875 39.292969 C 13.484375 39.265625 13.300781 39.257812 13.117188 39.269531 C 12.808594 38.214844 12.519531 37.148438 12.253906 36.078125 C 12.261719 36.046875 12.277344 36.023438 12.300781 36.003906 C 12.621094 35.851562 12.949219 35.832031 13.285156 35.945312 Z M 11.964844 36.355469 C 11.980469 36.355469 11.992188 36.363281 12 36.378906 C 12.171875 37.019531 12.328125 37.65625 12.480469 38.296875 C 12.3125 38.199219 12.148438 38.089844 11.988281 37.972656 C 11.738281 37.734375 11.636719 37.445312 11.691406 37.097656 C 11.730469 36.828125 11.820312 36.582031 11.964844 36.355469 Z M 14.824219 40.601562 C 14.972656 41.097656 15.132812 41.585938 15.300781 42.066406 C 15.324219 42.167969 15.339844 42.273438 15.351562 42.378906 C 14.953125 42.324219 14.574219 42.378906 14.210938 42.546875 C 13.917969 41.824219 13.660156 41.085938 13.429688 40.339844 C 13.445312 40.332031 13.460938 40.324219 13.476562 40.3125 C 13.925781 40.421875 14.375 40.515625 14.824219 40.601562 Z M 13.070312 40.363281 C 13.085938 40.363281 13.097656 40.371094 13.105469 40.386719 C 13.34375 41.128906 13.589844 41.867188 13.851562 42.59375 C 13.640625 42.542969 13.429688 42.5 13.214844 42.460938 C 12.402344 42.21875 12.160156 41.699219 12.480469 40.914062 C 12.550781 40.785156 12.625 40.660156 12.710938 40.542969 C 12.832031 40.480469 12.949219 40.417969 13.070312 40.363281 Z M 14.992188 43.484375 C 15.203125 43.511719 15.410156 43.5625 15.613281 43.640625 C 15.628906 43.65625 15.640625 43.675781 15.652344 43.699219 C 15.722656 44.035156 15.804688 44.371094 15.890625 44.707031 C 15.929688 44.800781 15.992188 44.875 16.082031 44.921875 C 16.070312 45.09375 16.023438 45.257812 15.949219 45.414062 C 15.75 45.441406 15.558594 45.492188 15.375 45.570312 C 15.277344 45.390625 15.203125 45.199219 15.144531 44.996094 C 15.0625 44.519531 14.914062 44.070312 14.703125 43.640625 C 14.789062 43.566406 14.886719 43.515625 14.992188 43.484375 Z M 14.964844 45.523438 C 14.332031 45.324219 14.078125 44.902344 14.210938 44.25 C 14.257812 44.109375 14.328125 43.980469 14.425781 43.867188 C 14.53125 44.046875 14.613281 44.238281 14.667969 44.441406 C 14.761719 44.804688 14.863281 45.164062 14.964844 45.523438 Z M 16.671875 46.316406 C 16.714844 46.40625 16.75 46.5 16.765625 46.601562 C 16.683594 46.527344 16.652344 46.429688 16.671875 46.316406 Z M 22.71875 46.867188 C 21.71875 47.039062 20.707031 47.136719 19.683594 47.15625 C 19.386719 47.160156 19.09375 47.144531 18.808594 47.109375 C 20.109375 47.023438 21.414062 46.941406 22.71875 46.867188 Z M 22.71875 46.867188 "/>
</g>
<mask id="mask1">
  <g filter="url(#alpha)">
<rect x="0" y="0" width="50" height="50" style="fill:rgb(0%,0%,0%);fill-opacity:0.996078;stroke:none;"/>
  </g>
</mask>
<clipPath id="clip2">
  <rect width="50" height="50"/>
</clipPath>
<g id="surface9" clip-path="url(#clip2)">
<path style=" stroke:none;fill-rule:evenodd;fill:rgb(72.941176%,70.980392%,69.019608%);fill-opacity:1;" d="M 34.335938 2.125 C 35.007812 4.433594 35.6875 6.738281 36.378906 9.039062 C 36.371094 9.074219 36.378906 9.109375 36.402344 9.132812 C 36.949219 11.4375 37.519531 13.730469 38.117188 16.023438 C 38.726562 18.269531 39.359375 20.507812 40.015625 22.742188 C 40.199219 23.453125 40.367188 24.164062 40.519531 24.878906 C 40.753906 26.082031 40.992188 27.28125 41.238281 28.480469 C 41.515625 29.523438 41.804688 30.5625 42.101562 31.601562 C 42.226562 32.113281 42.347656 32.625 42.460938 33.136719 C 42.679688 33.804688 42.886719 34.480469 43.085938 35.152344 C 43.136719 35.375 43.152344 35.597656 43.136719 35.824219 C 42.914062 35.851562 42.691406 35.890625 42.476562 35.945312 C 39.496094 25.222656 36.535156 14.496094 33.59375 3.757812 C 25.304688 5.132812 17.019531 6.519531 8.738281 7.910156 C 8.769531 8.132812 8.808594 8.359375 8.855469 8.582031 C 10.695312 16.949219 12.523438 25.316406 14.34375 33.6875 C 14.347656 33.714844 14.339844 33.730469 14.316406 33.738281 C 13.320312 30.390625 12.421875 27.015625 11.617188 23.609375 C 10.640625 19.441406 9.625 15.28125 8.570312 11.125 C 8.375 10.453125 8.175781 9.78125 7.96875 9.109375 C 7.855469 8.679688 7.746094 8.246094 7.644531 7.8125 C 7.796875 7.800781 7.921875 7.738281 8.015625 7.621094 C 8.078125 7.5 8.132812 7.375 8.171875 7.25 C 9.070312 6.929688 9.980469 6.679688 10.910156 6.492188 C 10.988281 6.488281 11.058594 6.472656 11.125 6.445312 C 11.171875 6.453125 11.210938 6.445312 11.246094 6.421875 C 11.292969 6.429688 11.332031 6.417969 11.367188 6.398438 C 11.410156 6.402344 11.453125 6.394531 11.484375 6.371094 C 11.53125 6.378906 11.570312 6.371094 11.605469 6.347656 C 11.644531 6.355469 11.675781 6.347656 11.703125 6.324219 C 11.746094 6.332031 11.789062 6.324219 11.820312 6.300781 C 11.867188 6.308594 11.90625 6.300781 11.941406 6.277344 C 11.988281 6.285156 12.027344 6.277344 12.0625 6.253906 C 12.109375 6.261719 12.148438 6.25 12.183594 6.230469 C 12.21875 6.234375 12.253906 6.226562 12.277344 6.203125 C 12.324219 6.210938 12.363281 6.203125 12.398438 6.179688 C 12.445312 6.1875 12.484375 6.179688 12.519531 6.15625 C 12.5625 6.164062 12.605469 6.15625 12.636719 6.132812 C 12.683594 6.140625 12.722656 6.132812 12.757812 6.109375 C 18.085938 5.015625 23.40625 3.914062 28.71875 2.796875 C 28.765625 2.804688 28.804688 2.796875 28.839844 2.773438 C 28.886719 2.777344 28.925781 2.769531 28.960938 2.75 C 30.753906 2.535156 32.542969 2.324219 34.335938 2.125 Z M 34.335938 2.125 "/>
</g>
<mask id="mask2">
  <g filter="url(#alpha)">
<rect x="0" y="0" width="50" height="50" style="fill:rgb(0%,0%,0%);fill-opacity:0.996078;stroke:none;"/>
  </g>
</mask>
<clipPath id="clip3">
  <rect width="50" height="50"/>
</clipPath>
<g id="surface12" clip-path="url(#clip3)">
<path style=" stroke:none;fill-rule:evenodd;fill:rgb(71.764706%,70.196078%,68.235294%);fill-opacity:1;" d="M 6.828125 8.367188 C 7.039062 9.125 7.257812 9.886719 7.488281 10.644531 C 7.59375 11.035156 7.683594 11.425781 7.765625 11.820312 C 7.523438 11.78125 7.289062 11.730469 7.058594 11.679688 C 6.910156 11.003906 6.757812 10.332031 6.601562 9.660156 C 6.574219 9.351562 6.601562 9.046875 6.683594 8.75 C 6.707031 8.730469 6.714844 8.707031 6.710938 8.675781 C 6.753906 8.574219 6.792969 8.46875 6.828125 8.367188 Z M 6.828125 8.367188 "/>
</g>
<mask id="mask3">
  <g filter="url(#alpha)">
<rect x="0" y="0" width="50" height="50" style="fill:rgb(0%,0%,0%);fill-opacity:0.768627;stroke:none;"/>
  </g>
</mask>
<clipPath id="clip4">
  <rect width="50" height="50"/>
</clipPath>
<g id="surface15" clip-path="url(#clip4)">
<path style=" stroke:none;fill-rule:evenodd;fill:rgb(67.058824%,65.882353%,63.921569%);fill-opacity:1;" d="M 8.820312 22.023438 C 8.722656 21.542969 8.625 21.0625 8.535156 20.582031 C 8.539062 20.554688 8.554688 20.554688 8.570312 20.582031 C 8.699219 21.042969 8.808594 21.507812 8.894531 21.976562 C 8.882812 22.007812 8.855469 22.027344 8.820312 22.023438 Z M 8.820312 22.023438 "/>
</g>
<mask id="mask4">
  <g filter="url(#alpha)">
<rect x="0" y="0" width="50" height="50" style="fill:rgb(0%,0%,0%);fill-opacity:0.988235;stroke:none;"/>
  </g>
</mask>
<clipPath id="clip5">
  <rect width="50" height="50"/>
</clipPath>
<g id="surface18" clip-path="url(#clip5)">
<path style=" stroke:none;fill-rule:evenodd;fill:rgb(72.54902%,70.980392%,69.019608%);fill-opacity:1;" d="M 10.453125 27.351562 C 10.609375 27.324219 10.769531 27.328125 10.933594 27.363281 C 11.144531 27.429688 11.355469 27.503906 11.558594 27.59375 C 11.859375 28.71875 12.152344 29.847656 12.445312 30.976562 C 12.164062 30.945312 11.882812 30.90625 11.605469 30.855469 C 11.535156 30.617188 11.460938 30.375 11.390625 30.136719 C 11.429688 30.019531 11.441406 29.898438 11.425781 29.777344 C 11.382812 29.667969 11.308594 29.59375 11.199219 29.5625 C 11.199219 29.542969 11.191406 29.535156 11.171875 29.535156 C 10.953125 28.800781 10.710938 28.070312 10.453125 27.351562 Z M 10.453125 27.351562 "/>
</g>
<mask id="mask5">
  <g filter="url(#alpha)">
<rect x="0" y="0" width="50" height="50" style="fill:rgb(0%,0%,0%);fill-opacity:0.980392;stroke:none;"/>
  </g>
</mask>
<clipPath id="clip6">
  <rect width="50" height="50"/>
</clipPath>
<g id="surface21" clip-path="url(#clip6)">
<path style=" stroke:none;fill-rule:evenodd;fill:rgb(72.156863%,70.588235%,69.019608%);fill-opacity:1;" d="M 11.894531 31.722656 C 12.074219 31.75 12.253906 31.773438 12.433594 31.792969 C 12.511719 31.796875 12.582031 31.78125 12.648438 31.746094 C 12.949219 32.792969 13.238281 33.839844 13.515625 34.890625 C 13.316406 34.824219 13.113281 34.785156 12.902344 34.769531 C 12.902344 34.753906 12.894531 34.746094 12.878906 34.746094 C 12.558594 33.734375 12.230469 32.726562 11.894531 31.722656 Z M 11.894531 31.722656 "/>
</g>
<mask id="mask6">
  <g filter="url(#alpha)">
<rect x="0" y="0" width="50" height="50" style="fill:rgb(0%,0%,0%);fill-opacity:0.968627;stroke:none;"/>
  </g>
</mask>
<clipPath id="clip7">
  <rect width="50" height="50"/>
</clipPath>
<g id="surface24" clip-path="url(#clip7)">
<path style=" stroke:none;fill-rule:evenodd;fill:rgb(72.156863%,70.588235%,68.627451%);fill-opacity:1;" d="M 14.4375 39.472656 C 14.054688 38.296875 13.671875 37.121094 13.285156 35.945312 C 13.484375 35.972656 13.679688 36.027344 13.875 36.113281 C 14.214844 37.246094 14.507812 38.390625 14.75 39.546875 C 14.640625 39.539062 14.539062 39.515625 14.4375 39.472656 Z M 14.4375 39.472656 "/>
</g>
<mask id="mask7">
  <g filter="url(#alpha)">
<rect x="0" y="0" width="50" height="50" style="fill:rgb(0%,0%,0%);fill-opacity:0.870588;stroke:none;"/>
  </g>
</mask>
<clipPath id="clip8">
  <rect width="50" height="50"/>
</clipPath>
<g id="surface27" clip-path="url(#clip8)">
<path style=" stroke:none;fill-rule:evenodd;fill:rgb(69.411765%,67.843137%,65.882353%);fill-opacity:1;" d="M 14.824219 40.601562 C 14.917969 40.601562 14.984375 40.640625 15.027344 40.722656 C 15.125 41.167969 15.21875 41.617188 15.300781 42.066406 C 15.132812 41.585938 14.972656 41.097656 14.824219 40.601562 Z M 14.824219 40.601562 "/>
</g>
<mask id="mask8">
  <g filter="url(#alpha)">
<rect x="0" y="0" width="50" height="50" style="fill:rgb(0%,0%,0%);fill-opacity:0.976471;stroke:none;"/>
  </g>
</mask>
<clipPath id="clip9">
  <rect width="50" height="50"/>
</clipPath>
<g id="surface30" clip-path="url(#clip9)">
<path style=" stroke:none;fill-rule:evenodd;fill:rgb(72.156863%,70.980392%,69.019608%);fill-opacity:1;" d="M 42.113281 44.707031 C 42.148438 45.042969 42.179688 45.378906 42.210938 45.714844 C 40.289062 45.820312 38.371094 45.933594 36.449219 46.050781 C 37.011719 45.875 37.578125 45.710938 38.152344 45.558594 C 38.71875 45.445312 39.285156 45.363281 39.859375 45.320312 C 40.273438 45.226562 40.679688 45.113281 41.082031 44.984375 C 41.441406 44.945312 41.785156 44.855469 42.113281 44.707031 Z M 42.113281 44.707031 "/>
</g>
</defs>
<g id="surface1">
<use xlink:href="#surface6" mask="url(#mask0)"/>
<use xlink:href="#surface9" mask="url(#mask1)"/>
<path style=" stroke:none;fill-rule:evenodd;fill:rgb(66.27451%,22.745098%,18.039216%);fill-opacity:1;" d="M 42.476562 35.945312 C 42.382812 35.984375 42.289062 36.015625 42.1875 36.042969 C 41.808594 35.898438 41.511719 35.996094 41.296875 36.328125 C 40.359375 36.574219 39.414062 36.792969 38.464844 36.988281 C 37.128906 37.234375 35.792969 37.484375 34.457031 37.734375 C 33.835938 37.871094 33.21875 38.03125 32.609375 38.214844 C 31.476562 38.578125 30.339844 38.9375 29.199219 39.292969 C 27.476562 39.75 25.753906 40.21875 24.039062 40.710938 C 22.5625 41.214844 21.089844 41.726562 19.625 42.246094 C 19.042969 42.472656 18.484375 42.734375 17.941406 43.039062 C 17.570312 43.175781 17.183594 43.246094 16.789062 43.242188 C 16.539062 42.234375 16.277344 41.226562 16.011719 40.21875 C 15.792969 39.15625 15.550781 38.101562 15.289062 37.050781 C 15 36.042969 14.707031 35.035156 14.414062 34.027344 C 14.40625 33.90625 14.378906 33.796875 14.34375 33.6875 C 12.523438 25.316406 10.695312 16.949219 8.855469 8.582031 C 8.808594 8.359375 8.769531 8.132812 8.738281 7.910156 C 17.019531 6.519531 25.304688 5.132812 33.59375 3.757812 C 36.535156 14.496094 39.496094 25.222656 42.476562 35.945312 Z M 42.476562 35.945312 "/>
<path style=" stroke:none;fill-rule:evenodd;fill:rgb(0.392157%,0%,0%);fill-opacity:1;" d="M 16.574219 16.910156 C 16.683594 16.894531 16.789062 16.871094 16.886719 16.839844 C 17.828125 16.664062 18.769531 16.507812 19.71875 16.371094 C 21.671875 16.136719 23.625 15.890625 25.574219 15.625 C 26.597656 15.460938 27.613281 15.269531 28.625 15.050781 C 28.839844 15 29.046875 14.929688 29.25 14.835938 C 29.339844 14.746094 29.367188 14.636719 29.332031 14.511719 C 28.699219 12.652344 28.1875 10.761719 27.808594 8.832031 C 27.796875 8.8125 27.78125 8.792969 27.761719 8.785156 C 27.648438 8.769531 27.535156 8.769531 27.425781 8.785156 C 26.792969 8.917969 26.15625 9.035156 25.515625 9.132812 C 25.476562 9.136719 25.449219 9.121094 25.433594 9.085938 C 25.460938 9.046875 25.5 9.027344 25.550781 9.027344 C 26.0625 8.914062 26.574219 8.808594 27.089844 8.714844 C 27.382812 8.644531 27.644531 8.515625 27.878906 8.328125 C 28.085938 8.277344 28.257812 8.328125 28.398438 8.484375 C 28.457031 8.574219 28.503906 8.671875 28.539062 8.773438 C 28.621094 9.183594 28.71875 9.59375 28.828125 9.996094 C 29.183594 11.097656 29.519531 12.203125 29.835938 13.308594 C 29.988281 13.707031 30.125 14.105469 30.246094 14.511719 C 30.304688 15.054688 30.085938 15.433594 29.585938 15.652344 C 29.421875 15.714844 29.253906 15.773438 29.082031 15.820312 C 27.3125 16.097656 25.542969 16.386719 23.777344 16.683594 C 22.207031 16.910156 20.636719 17.148438 19.070312 17.402344 C 18.363281 17.535156 17.660156 17.679688 16.957031 17.835938 C 16.726562 17.917969 16.507812 18.027344 16.3125 18.171875 C 15.972656 18.257812 15.738281 18.140625 15.601562 17.824219 C 15.527344 17.53125 15.617188 17.3125 15.878906 17.164062 C 16.097656 17.042969 16.328125 16.957031 16.574219 16.910156 Z M 16.574219 16.910156 "/>
<use xlink:href="#surface12" mask="url(#mask2)"/>
<path style=" stroke:none;fill-rule:evenodd;fill:rgb(0.392157%,0%,0%);fill-opacity:1;" d="M 16.816406 16.816406 C 16.714844 16.855469 16.613281 16.871094 16.503906 16.863281 C 16.378906 16.839844 16.292969 16.765625 16.25 16.648438 C 15.972656 15.769531 15.707031 14.890625 15.457031 14.007812 C 15.289062 13.300781 15.144531 12.585938 15.027344 11.871094 C 14.980469 11.605469 15.019531 11.359375 15.144531 11.125 C 15.242188 11.023438 15.355469 10.964844 15.496094 10.945312 C 16.148438 10.964844 16.796875 10.914062 17.4375 10.800781 C 18.449219 10.578125 19.457031 10.347656 20.464844 10.105469 C 20.667969 10.070312 20.75 10.152344 20.714844 10.359375 C 20.703125 10.402344 20.675781 10.429688 20.632812 10.441406 C 19.03125 10.898438 17.414062 11.277344 15.78125 11.582031 C 15.902344 12.4375 16.066406 13.285156 16.273438 14.125 C 16.503906 14.882812 16.746094 15.632812 16.996094 16.382812 C 17.027344 16.566406 16.96875 16.710938 16.816406 16.816406 Z M 16.816406 16.816406 "/>
<path style=" stroke:none;fill-rule:evenodd;fill:rgb(71.764706%,70.196078%,68.235294%);fill-opacity:1;" d="M 7.214844 12.46875 C 7.460938 12.445312 7.703125 12.476562 7.945312 12.566406 C 8.253906 13.8125 8.5625 15.0625 8.871094 16.3125 C 8.546875 16.21875 8.21875 16.195312 7.886719 16.238281 C 7.875 16.152344 7.855469 16.070312 7.835938 15.988281 C 8.003906 15.914062 8.152344 15.8125 8.28125 15.6875 C 8.441406 15.398438 8.378906 15.171875 8.101562 15.003906 C 7.960938 14.949219 7.828125 14.953125 7.691406 15.015625 C 7.546875 14.160156 7.386719 13.3125 7.214844 12.46875 Z M 7.214844 12.46875 "/>
<path style=" stroke:none;fill-rule:evenodd;fill:rgb(41.176471%,14.117647%,10.980392%);fill-opacity:1;" d="M 16.816406 16.816406 C 16.832031 16.835938 16.855469 16.84375 16.886719 16.839844 C 16.789062 16.871094 16.683594 16.894531 16.574219 16.910156 C 16.550781 16.894531 16.527344 16.878906 16.503906 16.863281 C 16.613281 16.871094 16.714844 16.855469 16.816406 16.816406 Z M 16.816406 16.816406 "/>
<path style=" stroke:none;fill-rule:evenodd;fill:rgb(72.156863%,70.588235%,68.627451%);fill-opacity:1;" d="M 8.199219 17.269531 C 8.5625 17.324219 8.894531 17.460938 9.195312 17.679688 C 9.539062 19.113281 9.878906 20.550781 10.214844 21.988281 C 10.09375 21.984375 9.972656 21.96875 9.855469 21.941406 C 9.613281 21.925781 9.375 21.921875 9.132812 21.925781 C 9.054688 21.480469 8.960938 21.035156 8.84375 20.59375 C 8.976562 20.546875 9.101562 20.476562 9.21875 20.390625 C 9.367188 20.132812 9.316406 19.925781 9.0625 19.777344 C 8.925781 19.75 8.789062 19.726562 8.652344 19.707031 C 8.625 19.695312 8.605469 19.675781 8.59375 19.648438 C 8.398438 18.894531 8.226562 18.140625 8.078125 17.378906 C 8.101562 17.320312 8.140625 17.285156 8.199219 17.269531 Z M 8.199219 17.269531 "/>
<use xlink:href="#surface15" mask="url(#mask3)"/>
<path style=" stroke:none;fill-rule:evenodd;fill:rgb(72.156863%,70.588235%,68.627451%);fill-opacity:1;" d="M 10.117188 26.273438 C 10.117188 26.257812 10.109375 26.25 10.09375 26.25 C 10.097656 26.21875 10.089844 26.191406 10.070312 26.175781 C 10.058594 26.097656 10.042969 26.023438 10.023438 25.949219 C 10.066406 25.894531 10.117188 25.851562 10.175781 25.816406 C 10.355469 25.460938 10.246094 25.253906 9.855469 25.191406 C 9.695312 24.445312 9.539062 23.703125 9.375 22.960938 C 9.75 22.9375 10.113281 22.992188 10.464844 23.128906 C 10.730469 24.199219 10.984375 25.273438 11.234375 26.34375 C 10.871094 26.214844 10.496094 26.191406 10.117188 26.273438 Z M 10.117188 26.273438 "/>
<path style=" stroke:none;fill-rule:evenodd;fill:rgb(58.823529%,57.647059%,56.078431%);fill-opacity:1;" d="M 9.179688 23.390625 C 9.136719 23.300781 9.105469 23.207031 9.085938 23.105469 C 9.085938 23.089844 9.09375 23.082031 9.109375 23.078125 C 9.144531 23.179688 9.167969 23.285156 9.179688 23.390625 Z M 9.179688 23.390625 "/>
<use xlink:href="#surface18" mask="url(#mask4)"/>
<use xlink:href="#surface21" mask="url(#mask5)"/>
<path style=" stroke:none;fill-rule:evenodd;fill:rgb(60.784314%,49.803922%,47.45098%);fill-opacity:1;" d="M 14.34375 33.6875 C 14.378906 33.796875 14.40625 33.90625 14.414062 34.027344 C 14.378906 33.933594 14.347656 33.835938 14.316406 33.738281 C 14.339844 33.730469 14.347656 33.714844 14.34375 33.6875 Z M 14.34375 33.6875 "/>
<use xlink:href="#surface24" mask="url(#mask6)"/>
<path style=" stroke:none;fill-rule:evenodd;fill:rgb(72.941176%,71.372549%,69.411765%);fill-opacity:1;" d="M 22.71875 46.867188 C 21.414062 46.941406 20.109375 47.023438 18.808594 47.109375 C 18.15625 47.085938 17.527344 46.96875 16.910156 46.757812 C 16.839844 46.726562 16.792969 46.671875 16.765625 46.601562 C 16.75 46.5 16.714844 46.40625 16.671875 46.316406 C 16.636719 46.1875 16.640625 46.058594 16.683594 45.929688 C 16.769531 45.609375 16.863281 45.289062 16.972656 44.972656 C 16.988281 44.863281 17.011719 44.753906 17.03125 44.648438 C 17.460938 44.585938 17.886719 44.5 18.304688 44.382812 C 18.804688 44.140625 19.300781 43.882812 19.792969 43.613281 C 21.394531 42.972656 23.019531 42.390625 24.664062 41.863281 C 24.820312 41.808594 24.980469 41.765625 25.144531 41.742188 C 24.890625 41.902344 24.796875 42.128906 24.867188 42.425781 C 24.898438 42.554688 24.964844 42.652344 25.070312 42.726562 C 25.199219 42.777344 25.332031 42.808594 25.46875 42.8125 C 26.546875 42.519531 27.632812 42.242188 28.71875 41.984375 C 30.375 41.691406 32.03125 41.402344 33.6875 41.117188 C 33.816406 40.9375 33.769531 40.820312 33.558594 40.769531 C 31.898438 41.007812 30.230469 41.15625 28.550781 41.214844 C 27.808594 41.273438 27.0625 41.339844 26.320312 41.417969 C 26.296875 41.421875 26.28125 41.414062 26.273438 41.394531 C 27.316406 41.125 28.355469 40.839844 29.394531 40.542969 C 30.441406 40.210938 31.492188 39.875 32.539062 39.535156 C 33.5 39.234375 34.472656 38.992188 35.464844 38.8125 C 37.414062 38.503906 39.351562 38.125 41.273438 37.675781 C 41.25 38.667969 41.246094 39.65625 41.261719 40.652344 C 41.292969 41.066406 41.335938 41.484375 41.382812 41.898438 C 41.484375 42.339844 41.546875 42.789062 41.5625 43.242188 C 41.5625 43.386719 41.550781 43.53125 41.527344 43.675781 C 41.484375 43.738281 41.421875 43.78125 41.347656 43.808594 C 41.125 43.847656 40.898438 43.890625 40.675781 43.925781 C 40.371094 44.03125 40.070312 44.125 39.761719 44.214844 C 39.1875 44.265625 38.621094 44.355469 38.058594 44.480469 C 37.34375 44.667969 36.632812 44.859375 35.921875 45.054688 C 35.097656 45.234375 34.265625 45.34375 33.425781 45.390625 C 31.671875 45.40625 29.9375 45.582031 28.214844 45.917969 C 27.011719 46.152344 25.800781 46.378906 24.59375 46.589844 C 23.96875 46.703125 23.347656 46.796875 22.71875 46.867188 Z M 22.71875 46.867188 "/>
<use xlink:href="#surface27" mask="url(#mask7)"/>
<path style=" stroke:none;fill-rule:evenodd;fill:rgb(26.666667%,25.882353%,25.490196%);fill-opacity:1;" d="M 26.273438 41.394531 C 26.28125 41.414062 26.296875 41.421875 26.320312 41.417969 C 26.269531 41.445312 26.214844 41.449219 26.152344 41.429688 C 26.195312 41.421875 26.234375 41.410156 26.273438 41.394531 Z M 26.273438 41.394531 "/>
<path style=" stroke:none;fill-rule:evenodd;fill:rgb(0.392157%,0.392157%,0.392157%);fill-opacity:1;" d="M 38.800781 42.570312 C 39.144531 42.566406 39.492188 42.570312 39.835938 42.582031 C 40.035156 42.613281 40.078125 42.710938 39.953125 42.871094 C 39.351562 42.988281 38.75 43.117188 38.152344 43.253906 C 35.128906 43.675781 32.105469 44.101562 29.082031 44.527344 C 28.480469 44.597656 27.878906 44.667969 27.28125 44.742188 C 26.609375 44.859375 25.9375 44.972656 25.265625 45.078125 C 24.769531 45.148438 24.273438 45.15625 23.777344 45.101562 C 23.621094 45.074219 23.46875 45.035156 23.320312 44.984375 C 23.078125 44.796875 23.019531 44.558594 23.140625 44.273438 C 23.273438 44.039062 23.480469 43.9375 23.75 43.976562 C 23.851562 44.015625 23.953125 44.039062 24.0625 44.046875 C 24.246094 44.0625 24.433594 44.0625 24.617188 44.046875 C 25.285156 43.925781 25.957031 43.816406 26.632812 43.710938 C 29.410156 43.347656 32.195312 43.019531 34.984375 42.726562 C 36.257812 42.617188 37.53125 42.566406 38.800781 42.570312 Z M 38.800781 42.570312 "/>
<use xlink:href="#surface30" mask="url(#mask8)"/>
</g>
</svg>
