<?xml version="1.0" encoding="UTF-8"?>
<svg xmlns="http://www.w3.org/2000/svg" xmlns:xlink="http://www.w3.org/1999/xlink" width="50pt" height="50pt" viewBox="0 0 50 50" version="1.1">
<defs>
<filter id="alpha" filterUnits="objectBoundingBox" x="0%" y="0%" width="100%" height="100%">
  <feColorMatrix type="matrix" in="SourceGraphic" values="0 0 0 0 1 0 0 0 0 1 0 0 0 0 1 0 0 0 1 0"/>
</filter>
<mask id="mask0">
  <g filter="url(#alpha)">
<rect x="0" y="0" width="50" height="50" style="fill:rgb(0%,0%,0%);fill-opacity:0.984314;stroke:none;"/>
  </g>
</mask>
<clipPath id="clip1">
  <rect width="50" height="50"/>
</clipPath>
<g id="surface6" clip-path="url(#clip1)">
<path style=" stroke:none;fill-rule:evenodd;fill:rgb(66.27451%,23.137255%,17.647059%);fill-opacity:1;" d="M 30.160156 7.980469 C 31.246094 7.898438 32.203125 8.199219 33.042969 8.882812 C 34.015625 9.761719 34.722656 10.820312 35.164062 12.0625 C 35.5 12.984375 35.730469 13.933594 35.851562 14.90625 C 38.289062 15.40625 40.382812 16.53125 42.125 18.277344 C 42.441406 18.625 42.738281 18.984375 43.015625 19.359375 C 44.4375 21.503906 45.792969 23.695312 47.070312 25.9375 C 47.179688 25.152344 47.289062 24.367188 47.40625 23.582031 C 47.429688 22.640625 47.457031 21.695312 47.480469 20.75 C 47.554688 20.460938 47.742188 20.296875 48.042969 20.257812 C 48.496094 20.222656 48.753906 20.425781 48.824219 20.871094 C 48.839844 21.675781 48.859375 22.480469 48.882812 23.285156 C 48.878906 23.511719 48.867188 23.738281 48.847656 23.96875 C 48.769531 24.589844 48.695312 25.214844 48.632812 25.839844 C 48.570312 27.144531 48.503906 28.449219 48.441406 29.753906 C 48.351562 30.46875 47.953125 30.769531 47.25 30.652344 C 47.097656 30.597656 46.980469 30.5 46.890625 30.363281 C 46.585938 30.210938 46.347656 29.984375 46.183594 29.679688 C 46.03125 29.363281 45.886719 29.042969 45.75 28.71875 C 45.660156 28.621094 45.558594 28.527344 45.453125 28.445312 C 44.117188 27.628906 42.75 26.871094 41.347656 26.164062 C 41 26 40.648438 25.847656 40.289062 25.707031 C 39.808594 25.4375 39.6875 25.046875 39.917969 24.542969 C 40.113281 24.265625 40.382812 24.144531 40.722656 24.171875 C 42.160156 24.707031 43.546875 25.359375 44.875 26.128906 C 44.882812 26.121094 44.890625 26.113281 44.898438 26.105469 C 43.753906 24.167969 42.574219 22.253906 41.359375 20.367188 C 40.070312 18.707031 38.429688 17.550781 36.425781 16.898438 C 36.261719 16.84375 36.09375 16.800781 35.921875 16.765625 C 35.789062 20.542969 34.527344 23.878906 32.140625 26.777344 C 31.710938 27.28125 31.199219 27.683594 30.617188 27.988281 C 29.789062 28.363281 28.964844 28.355469 28.144531 27.964844 C 27.75 27.746094 27.382812 27.488281 27.039062 27.195312 C 26.59375 26.78125 26.179688 26.335938 25.804688 25.863281 C 25.222656 25.105469 24.621094 24.363281 24.003906 23.632812 C 22.9375 22.515625 21.667969 21.703125 20.199219 21.195312 C 18.863281 20.699219 17.488281 20.515625 16.070312 20.644531 C 14.738281 20.808594 13.5625 21.320312 12.542969 22.179688 C 14.304688 23.035156 15.5625 24.367188 16.324219 26.175781 C 16.992188 27.96875 17.085938 29.792969 16.609375 31.648438 C 16.332031 32.882812 15.878906 34.042969 15.242188 35.128906 C 14.804688 35.863281 14.242188 36.484375 13.550781 36.988281 C 12.871094 37.445312 12.183594 37.453125 11.484375 37.015625 C 11.050781 36.730469 10.667969 36.382812 10.34375 35.96875 C 9.164062 34.375 8.492188 32.585938 8.328125 30.59375 C 8.128906 28.179688 8.601562 25.90625 9.746094 23.777344 C 9.890625 23.519531 10.046875 23.265625 10.214844 23.019531 C 8.300781 22.972656 6.527344 23.4375 4.886719 24.410156 C 2.765625 25.792969 1.652344 27.757812 1.535156 30.304688 C 1.5 31.507812 1.632812 32.691406 1.945312 33.855469 C 2.066406 34.289062 2.191406 34.722656 2.316406 35.152344 C 2.269531 35.472656 2.082031 35.640625 1.753906 35.65625 C 1.53125 35.648438 1.363281 35.550781 1.25 35.371094 C 0.472656 33.335938 0.210938 31.242188 0.457031 29.082031 C 0.992188 25.863281 2.765625 23.636719 5.773438 22.394531 C 7.273438 21.785156 8.835938 21.527344 10.453125 21.628906 C 10.714844 21.652344 10.96875 21.699219 11.222656 21.757812 C 13.085938 19.953125 15.316406 19.171875 17.917969 19.417969 C 20.253906 19.644531 22.328125 20.492188 24.136719 21.964844 C 24.632812 22.414062 25.089844 22.898438 25.515625 23.414062 C 26.097656 24.179688 26.703125 24.925781 27.339844 25.648438 C 27.703125 26.058594 28.105469 26.414062 28.550781 26.714844 C 29.085938 27.039062 29.621094 27.046875 30.160156 26.742188 C 30.628906 26.4375 31.03125 26.066406 31.371094 25.625 C 33.191406 23.253906 34.234375 20.574219 34.492188 17.582031 C 34.523438 17.207031 34.535156 16.832031 34.515625 16.453125 C 33.441406 16.28125 32.375 16.066406 31.3125 15.820312 C 30.382812 15.589844 29.503906 15.238281 28.671875 14.761719 C 27.8125 14.230469 27.207031 13.492188 26.859375 12.542969 C 26.386719 10.546875 27.078125 9.125 28.9375 8.28125 C 29.335938 8.132812 29.742188 8.03125 30.160156 7.980469 Z M 30.402344 9.46875 C 31.148438 9.4375 31.796875 9.671875 32.34375 10.175781 C 32.996094 10.832031 33.480469 11.597656 33.796875 12.46875 C 34.0625 13.171875 34.257812 13.890625 34.386719 14.628906 C 33.121094 14.5 31.878906 14.242188 30.664062 13.851562 C 30.089844 13.664062 29.570312 13.382812 29.105469 13.011719 C 28.324219 12.304688 28.136719 11.46875 28.539062 10.5 C 28.855469 10.058594 29.273438 9.757812 29.800781 9.601562 C 30 9.546875 30.203125 9.503906 30.402344 9.46875 Z M 11.460938 23.273438 C 12.40625 23.59375 13.210938 24.128906 13.875 24.878906 C 15.0625 26.253906 15.621094 27.855469 15.554688 29.679688 C 15.445312 31.234375 15.039062 32.707031 14.332031 34.097656 C 14.003906 34.738281 13.574219 35.300781 13.046875 35.789062 C 12.894531 35.921875 12.726562 36.03125 12.542969 36.113281 C 12.273438 36.046875 12.03125 35.921875 11.820312 35.742188 C 11.097656 35.027344 10.558594 34.191406 10.203125 33.234375 C 9.285156 30.738281 9.261719 28.234375 10.128906 25.71875 C 10.457031 24.835938 10.898438 24.019531 11.460938 23.273438 Z M 11.460938 23.273438 "/>
</g>
</defs>
<g id="surface1">
<use xlink:href="#surface6" mask="url(#mask0)"/>
</g>
</svg>
