<?xml version="1.0" encoding="UTF-8"?>
<svg xmlns="http://www.w3.org/2000/svg" xmlns:xlink="http://www.w3.org/1999/xlink" width="50pt" height="50pt" viewBox="0 0 50 50" version="1.1">
<defs>
<filter id="alpha" filterUnits="objectBoundingBox" x="0%" y="0%" width="100%" height="100%">
  <feColorMatrix type="matrix" in="SourceGraphic" values="0 0 0 0 1 0 0 0 0 1 0 0 0 0 1 0 0 0 1 0"/>
</filter>
<mask id="mask0">
  <g filter="url(#alpha)">
<rect x="0" y="0" width="50" height="50" style="fill:rgb(0%,0%,0%);fill-opacity:0.905882;stroke:none;"/>
  </g>
</mask>
<clipPath id="clip1">
  <rect width="50" height="50"/>
</clipPath>
<g id="surface6" clip-path="url(#clip1)">
<path style=" stroke:none;fill-rule:evenodd;fill:rgb(2.352941%,2.352941%,2.745098%);fill-opacity:1;" d="M 15.667969 12.402344 C 15.847656 12.039062 15.992188 11.652344 16.097656 11.253906 C 16.25 10.921875 16.425781 10.601562 16.625 10.292969 C 16.777344 10.171875 16.898438 10.203125 16.988281 10.390625 C 16.816406 11.539062 16.566406 12.671875 16.242188 13.796875 C 16.25 13.828125 16.257812 13.859375 16.265625 13.890625 C 16.566406 13.621094 16.894531 13.390625 17.25 13.195312 C 17.414062 13.152344 17.566406 13.175781 17.707031 13.269531 C 17.765625 13.589844 17.695312 13.878906 17.492188 14.132812 C 17.316406 14.308594 17.175781 14.507812 17.058594 14.730469 C 17.128906 14.757812 17.191406 14.75 17.25 14.707031 C 17.628906 14.621094 18.011719 14.59375 18.402344 14.636719 C 18.472656 14.65625 18.527344 14.699219 18.570312 14.753906 C 18.613281 15.128906 18.480469 15.425781 18.164062 15.644531 C 18.675781 15.734375 18.722656 15.941406 18.304688 16.265625 C 18.394531 16.308594 18.445312 16.382812 18.449219 16.484375 C 18.402344 16.730469 18.257812 16.898438 18.019531 16.988281 C 18.296875 17.085938 18.585938 17.164062 18.882812 17.226562 C 18.925781 17.308594 18.941406 17.394531 18.929688 17.492188 C 18.675781 17.441406 18.417969 17.394531 18.164062 17.347656 C 17.953125 17.234375 17.730469 17.148438 17.492188 17.082031 C 17.359375 16.925781 17.390625 16.867188 17.585938 16.914062 C 17.683594 16.777344 17.808594 16.679688 17.96875 16.625 C 18.035156 16.609375 18.035156 16.59375 17.96875 16.578125 C 17.796875 16.53125 17.738281 16.421875 17.800781 16.242188 C 17.878906 16.152344 17.964844 16.082031 18.066406 16.027344 C 17.679688 16.023438 17.585938 15.855469 17.777344 15.523438 C 17.9375 15.390625 18.089844 15.246094 18.234375 15.089844 C 18.265625 15.03125 18.257812 14.972656 18.210938 14.921875 C 17.863281 14.929688 17.519531 14.972656 17.179688 15.042969 C 17.070312 15.039062 16.964844 15.023438 16.867188 14.996094 C 16.835938 14.988281 16.8125 14.972656 16.792969 14.945312 C 16.761719 14.851562 16.761719 14.753906 16.792969 14.660156 C 16.898438 14.480469 17.003906 14.304688 17.105469 14.132812 C 17.25 13.941406 17.335938 13.734375 17.371094 13.507812 C 17.082031 13.6875 16.816406 13.894531 16.578125 14.132812 C 16.445312 14.175781 16.316406 14.234375 16.195312 14.300781 C 16.101562 14.324219 16.003906 14.332031 15.90625 14.324219 C 15.898438 14.128906 15.90625 13.9375 15.929688 13.746094 C 16.003906 13.460938 16.058594 13.175781 16.097656 12.882812 C 16.292969 12.324219 16.429688 11.75 16.507812 11.15625 C 16.355469 11.488281 16.21875 11.824219 16.097656 12.164062 C 15.90625 12.625 15.699219 13.078125 15.476562 13.53125 C 15.398438 13.566406 15.324219 13.558594 15.257812 13.507812 C 15.242188 13.15625 15.21875 12.804688 15.1875 12.453125 C 15.167969 11.792969 15.113281 11.136719 15.019531 10.484375 C 14.976562 10.746094 14.921875 11 14.851562 11.253906 C 14.695312 11.902344 14.546875 12.558594 14.394531 13.21875 C 14.355469 13.394531 14.265625 13.539062 14.132812 13.652344 C 14 13.625 13.929688 13.542969 13.914062 13.410156 C 13.882812 12.910156 13.820312 12.414062 13.722656 11.925781 C 13.472656 12.527344 13.234375 13.136719 13.003906 13.746094 C 12.71875 13.925781 12.542969 13.847656 12.476562 13.507812 C 12.363281 12.953125 12.21875 12.410156 12.042969 11.875 C 11.789062 13.265625 11.566406 14.65625 11.371094 16.050781 C 12.246094 14.933594 13.375 14.574219 14.753906 14.972656 C 15.808594 15.160156 16.550781 15.746094 16.988281 16.722656 C 17.050781 16.957031 17.089844 17.199219 17.105469 17.441406 C 17.496094 17.453125 17.878906 17.5 18.257812 17.585938 C 18.261719 17.65625 18.246094 17.71875 18.210938 17.777344 C 17.855469 17.726562 17.503906 17.660156 17.15625 17.585938 C 17.121094 18.085938 16.992188 18.558594 16.769531 19 C 16.894531 19.03125 17.007812 19.089844 17.105469 19.167969 C 18.246094 20.375 18.878906 21.816406 19 23.488281 C 19.121094 24.519531 19.070312 25.542969 18.859375 26.558594 C 18.820312 26.707031 18.730469 26.8125 18.59375 26.871094 C 19.035156 27.363281 19.523438 27.800781 20.058594 28.191406 C 20.097656 28.289062 20.089844 28.386719 20.035156 28.480469 C 19.890625 28.550781 19.746094 28.621094 19.601562 28.695312 C 20.003906 28.769531 20.402344 28.753906 20.800781 28.648438 C 21.042969 28.472656 21.28125 28.296875 21.519531 28.117188 C 21.730469 28.066406 21.921875 28.097656 22.097656 28.214844 C 22.605469 28.835938 22.707031 29.515625 22.410156 30.253906 C 22.246094 30.582031 21.996094 30.667969 21.664062 30.519531 C 21.578125 30.433594 21.523438 30.328125 21.496094 30.207031 C 21.480469 29.898438 21.441406 29.59375 21.378906 29.292969 C 20.507812 29.738281 19.644531 30.160156 18.785156 30.566406 C 18.582031 30.34375 18.382812 30.109375 18.1875 29.871094 C 18.097656 29.726562 18.011719 29.582031 17.921875 29.4375 C 17.734375 29.554688 17.542969 29.65625 17.347656 29.75 C 17.242188 29.78125 17.148438 29.765625 17.058594 29.703125 C 16.785156 29.300781 16.449219 28.964844 16.050781 28.695312 C 15.867188 28.460938 15.664062 28.246094 15.449219 28.046875 C 14.566406 28.335938 13.691406 28.652344 12.835938 29.007812 C 12.726562 28.976562 12.648438 28.914062 12.597656 28.816406 C 12.457031 28.878906 12.34375 28.972656 12.261719 29.101562 C 12.632812 29.832031 13.191406 30.367188 13.941406 30.710938 C 14.191406 30.914062 14.175781 31.105469 13.890625 31.285156 C 13.171875 31.695312 12.421875 32.03125 11.636719 32.292969 C 11.414062 32.324219 11.1875 32.324219 10.964844 32.292969 C 10.738281 32.183594 10.679688 32.015625 10.796875 31.789062 C 11.285156 31.3125 11.867188 31.046875 12.546875 31 C 12.167969 30.507812 11.808594 30.003906 11.46875 29.488281 C 11.257812 29.070312 11.050781 28.652344 10.84375 28.238281 C 10.757812 27.992188 10.84375 27.855469 11.109375 27.832031 C 11.460938 27.753906 11.8125 27.683594 12.164062 27.613281 C 12.089844 27.496094 12.109375 27.394531 12.210938 27.304688 C 12.5 27.230469 12.789062 27.160156 13.074219 27.085938 C 13.300781 27.046875 13.507812 26.96875 13.699219 26.847656 C 13.695312 26.816406 13.675781 26.800781 13.652344 26.800781 C 13.691406 25.886719 13.667969 24.976562 13.578125 24.0625 C 12.644531 24.75 11.597656 25.167969 10.4375 25.3125 C 10.230469 25.578125 9.957031 25.667969 9.621094 25.574219 C 9.230469 25.363281 9.078125 25.035156 9.164062 24.59375 C 9.300781 24.375 9.476562 24.34375 9.691406 24.496094 C 9.15625 23.878906 8.628906 23.238281 8.109375 22.578125 C 8.085938 22.515625 8.078125 22.449219 8.085938 22.386719 C 8.191406 22.371094 8.28125 22.402344 8.347656 22.480469 C 8.792969 23.09375 9.28125 23.667969 9.8125 24.207031 C 9.945312 24.074219 10.105469 24.035156 10.292969 24.089844 C 10.351562 24.132812 10.390625 24.1875 10.414062 24.257812 C 10.464844 24.125 10.5625 24.042969 10.699219 24.015625 C 10.910156 23.472656 11.210938 22.992188 11.613281 22.578125 C 11.972656 21.980469 12.332031 21.390625 12.691406 20.800781 C 12.738281 20.742188 12.785156 20.675781 12.835938 20.609375 C 12.8125 20.570312 12.78125 20.554688 12.738281 20.5625 C 11.304688 20.042969 10.65625 19.019531 10.796875 17.492188 C 10.859375 17.121094 10.972656 16.769531 11.132812 16.433594 C 11.359375 14.816406 11.609375 13.199219 11.875 11.589844 C 11.996094 11.523438 12.101562 11.539062 12.1875 11.636719 C 12.316406 11.914062 12.402344 12.199219 12.453125 12.5 C 12.503906 12.863281 12.597656 13.214844 12.738281 13.554688 C 12.765625 13.605469 12.796875 13.613281 12.835938 13.578125 C 12.886719 13.515625 12.917969 13.445312 12.933594 13.363281 C 13.085938 12.894531 13.253906 12.433594 13.4375 11.972656 C 13.496094 11.753906 13.628906 11.648438 13.84375 11.660156 C 13.902344 11.703125 13.941406 11.757812 13.964844 11.828125 C 14.027344 12.152344 14.082031 12.472656 14.132812 12.789062 C 14.117188 12.882812 14.101562 12.980469 14.082031 13.074219 C 14.113281 13.261719 14.152344 13.261719 14.203125 13.074219 C 14.375 12.261719 14.542969 11.445312 14.707031 10.628906 C 14.734375 10.429688 14.789062 10.238281 14.875 10.054688 C 14.964844 9.953125 15.070312 9.9375 15.1875 10.003906 C 15.3125 10.3125 15.382812 10.632812 15.402344 10.964844 C 15.441406 11.605469 15.472656 12.242188 15.5 12.882812 C 15.550781 12.722656 15.605469 12.5625 15.667969 12.402344 Z M 15.1875 12.453125 C 15.054688 12.0625 14.941406 11.664062 14.851562 11.253906 C 14.921875 11 14.976562 10.746094 15.019531 10.484375 C 15.113281 11.136719 15.167969 11.792969 15.1875 12.453125 Z M 16.097656 12.882812 C 16.097656 12.644531 16.097656 12.402344 16.097656 12.164062 C 16.21875 11.824219 16.355469 11.488281 16.507812 11.15625 C 16.429688 11.75 16.292969 12.324219 16.097656 12.882812 Z M 17.105469 14.132812 C 16.929688 14.132812 16.753906 14.132812 16.578125 14.132812 C 16.816406 13.894531 17.082031 13.6875 17.371094 13.507812 C 17.335938 13.734375 17.25 13.941406 17.105469 14.132812 Z M 17.777344 15.523438 C 17.46875 15.410156 17.167969 15.28125 16.867188 15.140625 C 16.816406 15.09375 16.816406 15.046875 16.867188 14.996094 C 16.964844 15.023438 17.070312 15.039062 17.179688 15.042969 C 17.519531 14.972656 17.863281 14.929688 18.210938 14.921875 C 18.257812 14.972656 18.265625 15.03125 18.234375 15.089844 C 18.089844 15.246094 17.9375 15.390625 17.777344 15.523438 Z M 17.492188 20.371094 C 17.574219 20.425781 17.621094 20.503906 17.632812 20.609375 C 17.550781 20.554688 17.503906 20.472656 17.492188 20.371094 Z M 17.632812 20.609375 C 17.71875 20.664062 17.765625 20.746094 17.777344 20.847656 C 17.695312 20.792969 17.644531 20.714844 17.632812 20.609375 Z M 14.707031 21.328125 C 14.980469 21.585938 15.222656 21.875 15.425781 22.191406 C 14.964844 22.574219 14.5 22.960938 14.035156 23.34375 C 13.941406 22.902344 13.902344 22.453125 13.914062 22 C 14.167969 21.757812 14.433594 21.535156 14.707031 21.328125 Z M 12.5 21.617188 C 12.773438 21.628906 13.042969 21.652344 13.316406 21.6875 C 13.359375 21.707031 13.390625 21.738281 13.410156 21.785156 C 13.359375 21.84375 13.359375 21.898438 13.410156 21.953125 C 12.632812 22.917969 11.808594 23.84375 10.941406 24.734375 C 10.910156 24.558594 10.910156 24.382812 10.941406 24.207031 C 11.015625 24.070312 11.082031 23.925781 11.132812 23.777344 C 11.636719 23.085938 12.09375 22.367188 12.5 21.617188 Z M 13.363281 22.289062 C 13.460938 22.390625 13.511719 22.519531 13.507812 22.671875 C 13.550781 23.023438 13.558594 23.375 13.53125 23.726562 C 12.824219 24.292969 12.03125 24.6875 11.15625 24.902344 C 11.804688 24.207031 12.4375 23.496094 13.050781 22.769531 C 13.167969 22.617188 13.273438 22.457031 13.363281 22.289062 Z M 10.054688 24.304688 C 10.101562 24.304688 10.148438 24.304688 10.195312 24.304688 C 10.253906 24.492188 10.277344 24.683594 10.269531 24.878906 C 10.152344 24.792969 10.03125 24.714844 9.910156 24.640625 C 9.933594 24.515625 9.984375 24.402344 10.054688 24.304688 Z M 9.429688 24.734375 C 9.707031 24.886719 9.996094 25.019531 10.292969 25.144531 C 9.847656 25.457031 9.542969 25.347656 9.382812 24.808594 C 9.40625 24.789062 9.421875 24.765625 9.429688 24.734375 Z M 10.582031 24.734375 C 10.675781 24.757812 10.691406 24.804688 10.628906 24.878906 C 10.585938 24.839844 10.570312 24.792969 10.582031 24.734375 Z M 18.113281 28.957031 C 18.433594 28.6875 18.753906 28.414062 19.074219 28.144531 C 18.726562 27.75 18.390625 27.351562 18.066406 26.945312 C 18.117188 26.941406 18.167969 26.925781 18.210938 26.894531 C 18.265625 27.007812 18.320312 27.117188 18.378906 27.230469 C 18.765625 27.59375 19.15625 27.945312 19.554688 28.285156 C 19.097656 28.5625 18.617188 28.785156 18.113281 28.957031 Z M 12.117188 27.808594 C 12.179688 27.800781 12.234375 27.816406 12.285156 27.855469 C 12.328125 28.058594 12.386719 28.257812 12.453125 28.453125 C 12.316406 28.640625 12.164062 28.808594 11.996094 28.957031 C 11.957031 29.132812 11.988281 29.292969 12.09375 29.4375 C 12.515625 30.109375 13.085938 30.621094 13.796875 30.972656 C 13.140625 31.40625 12.4375 31.75 11.683594 32.003906 C 11.496094 32.0625 11.304688 32.078125 11.109375 32.054688 C 11.078125 32.023438 11.042969 31.988281 11.011719 31.957031 C 11.515625 31.5 12.105469 31.253906 12.789062 31.214844 C 12.851562 31.066406 12.84375 30.921875 12.765625 30.78125 C 12.066406 29.996094 11.515625 29.117188 11.109375 28.144531 C 11.445312 28.023438 11.78125 27.914062 12.117188 27.808594 Z M 13.652344 28.382812 C 13.394531 28.5 13.128906 28.609375 12.859375 28.71875 C 12.808594 28.683594 12.785156 28.636719 12.789062 28.574219 C 13.070312 28.496094 13.359375 28.433594 13.652344 28.382812 Z M 21.664062 28.382812 C 21.800781 28.363281 21.90625 28.410156 21.976562 28.527344 C 22.285156 28.964844 22.382812 29.445312 22.265625 29.964844 C 22.203125 30.140625 22.089844 30.269531 21.929688 30.351562 C 21.8125 30.3125 21.75 30.234375 21.738281 30.109375 C 21.691406 29.777344 21.660156 29.441406 21.640625 29.101562 C 21.625 29.023438 21.578125 28.972656 21.496094 28.957031 C 20.605469 29.375 19.734375 29.824219 18.882812 30.300781 C 18.617188 30 18.363281 29.6875 18.113281 29.367188 C 18.421875 29.222656 18.734375 29.089844 19.050781 28.957031 C 19.667969 29.09375 20.28125 29.085938 20.898438 28.933594 C 21.164062 28.761719 21.417969 28.578125 21.664062 28.382812 Z M 21.664062 28.382812 "/>
</g>
<mask id="mask1">
  <g filter="url(#alpha)">
<rect x="0" y="0" width="50" height="50" style="fill:rgb(0%,0%,0%);fill-opacity:0.843137;stroke:none;"/>
  </g>
</mask>
<clipPath id="clip2">
  <rect width="50" height="50"/>
</clipPath>
<g id="surface9" clip-path="url(#clip2)">
<path style=" stroke:none;fill-rule:evenodd;fill:rgb(54.117647%,56.862745%,66.27451%);fill-opacity:1;" d="M 14.707031 10.628906 C 14.542969 11.445312 14.375 12.261719 14.203125 13.074219 C 14.152344 13.261719 14.113281 13.261719 14.082031 13.074219 C 14.101562 12.980469 14.117188 12.882812 14.132812 12.789062 C 14.261719 11.96875 14.414062 11.152344 14.585938 10.339844 C 14.628906 10.441406 14.667969 10.539062 14.707031 10.628906 Z M 14.707031 10.628906 "/>
</g>
<mask id="mask2">
  <g filter="url(#alpha)">
<rect x="0" y="0" width="50" height="50" style="fill:rgb(0%,0%,0%);fill-opacity:0.678431;stroke:none;"/>
  </g>
</mask>
<clipPath id="clip3">
  <rect width="50" height="50"/>
</clipPath>
<g id="surface12" clip-path="url(#clip3)">
<path style=" stroke:none;fill-rule:evenodd;fill:rgb(55.294118%,58.431373%,68.235294%);fill-opacity:1;" d="M 16.097656 11.253906 C 15.992188 11.652344 15.847656 12.039062 15.667969 12.402344 C 15.789062 11.9375 15.925781 11.472656 16.074219 11.011719 C 16.097656 11.089844 16.105469 11.171875 16.097656 11.253906 Z M 16.097656 11.253906 "/>
</g>
<mask id="mask3">
  <g filter="url(#alpha)">
<rect x="0" y="0" width="50" height="50" style="fill:rgb(0%,0%,0%);fill-opacity:0.988235;stroke:none;"/>
  </g>
</mask>
<clipPath id="clip4">
  <rect width="50" height="50"/>
</clipPath>
<g id="surface15" clip-path="url(#clip4)">
<path style=" stroke:none;fill-rule:evenodd;fill:rgb(56.862745%,60%,69.803922%);fill-opacity:1;" d="M 14.851562 11.253906 C 14.941406 11.664062 15.054688 12.0625 15.1875 12.453125 C 15.21875 12.804688 15.242188 13.15625 15.257812 13.507812 C 15.324219 13.558594 15.398438 13.566406 15.476562 13.53125 C 15.699219 13.078125 15.90625 12.625 16.097656 12.164062 C 16.097656 12.402344 16.097656 12.644531 16.097656 12.882812 C 16.058594 13.175781 16.003906 13.460938 15.929688 13.746094 C 15.90625 13.9375 15.898438 14.128906 15.90625 14.324219 C 16.003906 14.332031 16.101562 14.324219 16.195312 14.300781 C 16.316406 14.234375 16.445312 14.175781 16.578125 14.132812 C 16.753906 14.132812 16.929688 14.132812 17.105469 14.132812 C 17.003906 14.304688 16.898438 14.480469 16.792969 14.660156 C 16.761719 14.753906 16.761719 14.851562 16.792969 14.945312 C 16.8125 14.972656 16.835938 14.988281 16.867188 14.996094 C 16.816406 15.046875 16.816406 15.09375 16.867188 15.140625 C 17.167969 15.28125 17.46875 15.410156 17.777344 15.523438 C 17.585938 15.855469 17.679688 16.023438 18.066406 16.027344 C 17.964844 16.082031 17.878906 16.152344 17.800781 16.242188 C 17.738281 16.421875 17.796875 16.53125 17.96875 16.578125 C 17.96875 16.59375 17.96875 16.609375 17.96875 16.625 C 17.808594 16.679688 17.683594 16.777344 17.585938 16.914062 C 17.390625 16.867188 17.359375 16.925781 17.492188 17.082031 C 17.730469 17.148438 17.953125 17.234375 18.164062 17.347656 C 18.269531 17.5 18.378906 17.652344 18.5 17.800781 C 18.402344 17.8125 18.308594 17.804688 18.210938 17.777344 C 18.246094 17.71875 18.261719 17.65625 18.257812 17.585938 C 17.878906 17.5 17.496094 17.453125 17.105469 17.441406 C 17.089844 17.199219 17.050781 16.957031 16.988281 16.722656 C 16.550781 15.746094 15.808594 15.160156 14.753906 14.972656 C 13.375 14.574219 12.246094 14.933594 11.371094 16.050781 C 11.566406 14.65625 11.789062 13.265625 12.042969 11.875 C 12.21875 12.410156 12.363281 12.953125 12.476562 13.507812 C 12.542969 13.847656 12.71875 13.925781 13.003906 13.746094 C 13.234375 13.136719 13.472656 12.527344 13.722656 11.925781 C 13.820312 12.414062 13.882812 12.910156 13.914062 13.410156 C 13.929688 13.542969 14 13.625 14.132812 13.652344 C 14.265625 13.539062 14.355469 13.394531 14.394531 13.21875 C 14.546875 12.558594 14.695312 11.902344 14.851562 11.253906 Z M 14.851562 11.253906 "/>
</g>
<mask id="mask4">
  <g filter="url(#alpha)">
<rect x="0" y="0" width="50" height="50" style="fill:rgb(0%,0%,0%);fill-opacity:0.92549;stroke:none;"/>
  </g>
</mask>
<clipPath id="clip5">
  <rect width="50" height="50"/>
</clipPath>
<g id="surface18" clip-path="url(#clip5)">
<path style=" stroke:none;fill-rule:evenodd;fill:rgb(3.137255%,3.137255%,3.529412%);fill-opacity:1;" d="M 43.355469 15.859375 C 43.257812 16.070312 43.175781 16.296875 43.113281 16.53125 C 42.957031 16.816406 42.746094 17.058594 42.492188 17.25 C 42.25 17.386719 42.011719 17.523438 41.769531 17.660156 C 41.796875 17.707031 41.828125 17.746094 41.867188 17.777344 C 42.03125 18.226562 42.199219 18.675781 42.371094 19.121094 C 42.414062 19.242188 42.390625 19.335938 42.296875 19.410156 C 42.234375 19.457031 42.171875 19.503906 42.105469 19.554688 C 42.222656 19.71875 42.335938 19.886719 42.441406 20.058594 C 42.515625 20.085938 42.5625 20.0625 42.585938 19.984375 C 42.742188 19.914062 42.902344 19.847656 43.066406 19.792969 C 43.140625 19.796875 43.1875 19.765625 43.210938 19.699219 C 43.4375 19.617188 43.628906 19.488281 43.785156 19.3125 C 43.859375 19.316406 43.90625 19.285156 43.929688 19.21875 C 44.074219 19.035156 44.242188 18.875 44.433594 18.738281 C 44.417969 18.582031 44.417969 18.421875 44.433594 18.257812 C 44.542969 18.023438 44.71875 17.960938 44.960938 18.066406 C 45.136719 17.925781 45.339844 17.828125 45.5625 17.777344 C 45.726562 17.792969 45.824219 17.878906 45.847656 18.042969 C 46.179688 18.089844 46.277344 18.273438 46.136719 18.59375 C 46.34375 18.898438 46.277344 19.148438 45.945312 19.335938 C 45.742188 19.433594 45.535156 19.457031 45.320312 19.410156 C 45.257812 19.339844 45.1875 19.277344 45.105469 19.21875 C 45.050781 19.300781 44.992188 19.378906 44.9375 19.457031 C 44.777344 19.738281 44.570312 19.988281 44.3125 20.203125 C 43.828125 20.558594 43.316406 20.878906 42.777344 21.160156 C 42.515625 21.210938 42.324219 21.121094 42.203125 20.898438 C 41.820312 20.613281 41.453125 20.308594 41.097656 19.984375 C 41.089844 19.929688 41.105469 19.882812 41.148438 19.839844 C 41.535156 19.6875 41.902344 19.496094 42.25 19.265625 C 42.039062 18.746094 41.855469 18.21875 41.699219 17.683594 C 41.472656 18.457031 41.226562 19.226562 40.953125 19.984375 C 40.894531 20.082031 40.878906 20.179688 40.90625 20.273438 C 40.351562 21.726562 39.992188 23.230469 39.828125 24.785156 C 39.792969 24.8125 39.75 24.839844 39.707031 24.855469 C 39.46875 24.871094 39.226562 24.886719 38.988281 24.902344 C 39.238281 25.332031 39.46875 25.773438 39.683594 26.222656 C 39.726562 26.34375 39.703125 26.449219 39.609375 26.535156 C 39.449219 26.558594 39.289062 26.589844 39.132812 26.632812 C 39.3125 26.894531 39.511719 27.140625 39.730469 27.375 C 39.761719 27.472656 39.761719 27.566406 39.730469 27.664062 C 39.128906 28.066406 38.527344 28.472656 37.933594 28.886719 C 37.410156 29.15625 36.898438 29.4375 36.394531 29.726562 C 36.359375 29.71875 36.328125 29.726562 36.300781 29.75 C 36.242188 29.785156 36.242188 29.808594 36.300781 29.824219 C 36.535156 30.117188 36.679688 30.453125 36.730469 30.832031 C 36.683594 31.207031 36.476562 31.339844 36.109375 31.238281 C 35.96875 31.175781 35.839844 31.097656 35.722656 31 C 35.242188 30.550781 34.835938 30.046875 34.5 29.488281 C 34.425781 29.21875 34.496094 29.003906 34.71875 28.839844 C 35.417969 28.433594 36.171875 28.160156 36.972656 28.023438 C 37.316406 27.875 37.636719 27.691406 37.933594 27.472656 C 37.867188 27.328125 37.804688 27.183594 37.738281 27.039062 C 37.59375 27.058594 37.449219 27.023438 37.308594 26.945312 C 37.074219 26.679688 36.871094 26.394531 36.707031 26.078125 C 36.671875 26.054688 36.632812 26.035156 36.589844 26.03125 C 36.15625 26.199219 35.726562 26.367188 35.292969 26.535156 C 35.085938 26.589844 34.902344 26.550781 34.742188 26.414062 C 34.726562 26.476562 34.703125 26.53125 34.667969 26.582031 C 33.808594 26.710938 32.941406 26.808594 32.078125 26.871094 C 31.417969 26.003906 31.039062 25.019531 30.949219 23.921875 C 30.921875 23.894531 30.890625 23.878906 30.855469 23.871094 C 30.628906 24.027344 30.382812 24.125 30.109375 24.160156 C 29.863281 24.179688 29.734375 24.070312 29.726562 23.824219 C 29.859375 23.164062 30.261719 22.753906 30.925781 22.601562 C 31.261719 22.570312 31.597656 22.554688 31.933594 22.554688 C 32 22.609375 32.039062 22.679688 32.054688 22.769531 C 32.078125 22.929688 32.085938 23.085938 32.078125 23.25 C 32.082031 23.574219 32.121094 23.894531 32.199219 24.207031 C 32.371094 24.601562 32.554688 24.984375 32.75 25.359375 C 32.785156 25.453125 32.839844 25.53125 32.917969 25.601562 C 33.082031 25.539062 33.25 25.492188 33.421875 25.457031 C 33.601562 25.4375 33.777344 25.394531 33.949219 25.335938 C 33.921875 25.289062 33.890625 25.25 33.851562 25.214844 C 33.835938 25.109375 33.871094 25.019531 33.949219 24.953125 C 34.351562 24.867188 34.734375 24.730469 35.101562 24.542969 C 35.152344 24.550781 35.199219 24.542969 35.246094 24.519531 C 35.304688 24.488281 35.304688 24.464844 35.246094 24.449219 C 35.328125 23.625 35.535156 22.832031 35.867188 22.074219 C 35.832031 21.996094 35.78125 21.921875 35.722656 21.855469 C 34.820312 21.410156 34.175781 20.722656 33.78125 19.792969 C 33.703125 19.5 33.777344 19.253906 33.996094 19.050781 C 34.417969 18.753906 34.878906 18.5625 35.390625 18.472656 C 35.691406 18.417969 35.996094 18.371094 36.300781 18.332031 C 36.828125 17.984375 37.375 17.664062 37.933594 17.371094 C 37.445312 17.042969 37.101562 16.605469 36.898438 16.050781 C 36.773438 16.148438 36.636719 16.230469 36.492188 16.289062 C 36.363281 16.265625 36.289062 16.183594 36.277344 16.050781 C 36.042969 16.222656 35.785156 16.351562 35.507812 16.433594 C 35.355469 16.421875 35.308594 16.34375 35.363281 16.195312 C 35.527344 16.042969 35.664062 15.898438 35.773438 15.761719 C 35.101562 15.992188 34.414062 16.128906 33.710938 16.171875 C 33.644531 16.089844 33.644531 16.011719 33.710938 15.929688 C 34.515625 15.769531 35.316406 15.578125 36.109375 15.355469 C 35.503906 15.398438 34.894531 15.441406 34.285156 15.476562 C 33.765625 15.449219 33.253906 15.378906 32.75 15.257812 C 32.6875 15.179688 32.6875 15.097656 32.75 15.019531 C 33.40625 14.925781 34.0625 14.820312 34.71875 14.707031 C 34.707031 14.617188 34.738281 14.542969 34.8125 14.492188 C 35.191406 14.339844 35.578125 14.195312 35.964844 14.058594 C 35.515625 14.101562 35.066406 14.175781 34.621094 14.277344 C 34.507812 14.257812 34.445312 14.195312 34.429688 14.082031 C 34.433594 13.992188 34.480469 13.933594 34.574219 13.914062 C 35.515625 13.707031 36.457031 13.503906 37.402344 13.316406 C 37.503906 13.371094 37.519531 13.441406 37.453125 13.53125 C 37.3125 13.585938 37.167969 13.625 37.019531 13.652344 C 37.027344 13.734375 37.019531 13.8125 36.996094 13.890625 C 36.871094 13.988281 36.734375 14.070312 36.589844 14.132812 C 36.539062 14.15625 36.53125 14.1875 36.5625 14.226562 C 36.777344 14.15625 36.992188 14.089844 37.210938 14.035156 C 37.589844 13.363281 38.117188 12.84375 38.796875 12.476562 C 38.453125 12.613281 38.117188 12.78125 37.789062 12.980469 C 37.65625 12.902344 37.617188 12.792969 37.667969 12.644531 C 38.269531 12.199219 38.941406 11.925781 39.683594 11.828125 C 39.984375 11.859375 40.28125 11.914062 40.570312 11.996094 C 41.441406 12.394531 42.152344 12.976562 42.707031 13.746094 C 42.914062 13.652344 42.996094 13.714844 42.945312 13.941406 C 42.921875 13.964844 42.898438 13.988281 42.875 14.011719 C 43.253906 14.566406 43.414062 15.183594 43.355469 15.859375 Z M 40.332031 12.789062 C 40.109375 12.734375 39.886719 12.703125 39.660156 12.691406 C 39.792969 12.578125 39.9375 12.578125 40.089844 12.691406 C 40.167969 12.652344 40.246094 12.636719 40.332031 12.644531 C 40.332031 12.691406 40.332031 12.738281 40.332031 12.789062 Z M 36.972656 14.277344 C 37.023438 14.269531 37.070312 14.277344 37.117188 14.300781 C 36.707031 14.519531 36.277344 14.664062 35.820312 14.730469 C 36.195312 14.546875 36.578125 14.394531 36.972656 14.277344 Z M 36.972656 14.660156 C 36.902344 14.941406 36.871094 15.230469 36.875 15.523438 C 36.675781 15.558594 36.484375 15.621094 36.300781 15.714844 C 36.296875 15.664062 36.28125 15.609375 36.253906 15.546875 C 36.417969 15.476562 36.566406 15.390625 36.707031 15.28125 C 36.75 15.082031 36.660156 14.984375 36.445312 14.996094 C 36.238281 15.046875 36.03125 15.070312 35.820312 15.066406 C 36.210938 14.945312 36.59375 14.808594 36.972656 14.660156 Z M 35.246094 14.804688 C 35.300781 14.84375 35.300781 14.890625 35.246094 14.945312 C 35.265625 15.027344 35.316406 15.082031 35.390625 15.113281 C 34.816406 15.21875 34.242188 15.234375 33.660156 15.164062 C 34.203125 15.070312 34.730469 14.949219 35.246094 14.804688 Z M 37.597656 17.828125 C 37.632812 17.820312 37.664062 17.828125 37.691406 17.851562 C 37.5625 18.011719 37.4375 18.171875 37.308594 18.332031 C 37.179688 18.363281 37.050781 18.363281 36.925781 18.332031 C 37.160156 18.171875 37.382812 18.003906 37.597656 17.828125 Z M 44.9375 18.304688 C 44.875 18.402344 44.792969 18.480469 44.699219 18.546875 C 44.605469 18.257812 44.6875 18.179688 44.9375 18.304688 Z M 45.753906 18.640625 C 45.753906 18.5625 45.753906 18.480469 45.753906 18.402344 C 45.816406 18.332031 45.894531 18.300781 45.992188 18.304688 C 46.003906 18.484375 45.925781 18.597656 45.753906 18.640625 Z M 36.730469 18.738281 C 36.507812 19.152344 36.285156 19.570312 36.058594 19.984375 C 35.804688 19.925781 35.550781 19.867188 35.292969 19.816406 C 35.578125 19.417969 35.914062 19.066406 36.300781 18.761719 C 36.445312 18.738281 36.585938 18.730469 36.730469 18.738281 Z M 37.308594 18.832031 C 37.480469 18.777344 37.65625 18.785156 37.835938 18.859375 C 37.867188 18.90625 37.867188 18.960938 37.835938 19.027344 C 37.65625 18.976562 37.480469 18.910156 37.308594 18.832031 Z M 45.609375 19.167969 C 45.636719 19.09375 45.652344 19.011719 45.65625 18.929688 C 45.78125 18.910156 45.894531 18.863281 45.992188 18.785156 C 46.03125 18.800781 46.0625 18.824219 46.089844 18.859375 C 45.972656 19.03125 45.8125 19.136719 45.609375 19.167969 Z M 34.859375 19.167969 C 34.636719 19.28125 34.414062 19.394531 34.1875 19.503906 C 34.378906 19.316406 34.601562 19.171875 34.859375 19.074219 C 34.90625 19.097656 34.90625 19.128906 34.859375 19.167969 Z M 39.179688 20.035156 C 38.871094 19.757812 38.550781 19.503906 38.21875 19.265625 C 38.21875 19.21875 38.21875 19.167969 38.21875 19.121094 C 38.632812 19.324219 38.953125 19.628906 39.179688 20.035156 Z M 44.074219 20.035156 C 44.050781 20.101562 44.003906 20.132812 43.929688 20.128906 C 43.953125 20.0625 44 20.03125 44.074219 20.035156 Z M 43.929688 20.128906 C 43.867188 20.242188 43.773438 20.304688 43.640625 20.320312 C 43.722656 20.234375 43.816406 20.167969 43.929688 20.128906 Z M 35.148438 20.175781 C 35.230469 20.210938 35.261719 20.273438 35.246094 20.371094 C 35.1875 20.320312 35.15625 20.257812 35.148438 20.175781 Z M 36.589844 21.617188 C 36.234375 21.601562 35.914062 21.488281 35.628906 21.28125 C 35.445312 20.929688 35.382812 20.5625 35.4375 20.175781 C 35.554688 20.167969 35.664062 20.183594 35.773438 20.226562 C 35.910156 20.773438 36.179688 21.234375 36.589844 21.617188 Z M 43.640625 20.320312 C 43.621094 20.390625 43.570312 20.421875 43.5 20.417969 C 43.519531 20.351562 43.570312 20.316406 43.640625 20.320312 Z M 34.765625 20.417969 C 34.910156 20.5625 35.039062 20.722656 35.148438 20.898438 C 34.933594 20.808594 34.804688 20.648438 34.765625 20.417969 Z M 43.402344 20.464844 C 43.378906 20.53125 43.332031 20.566406 43.257812 20.5625 C 43.28125 20.492188 43.328125 20.460938 43.402344 20.464844 Z M 36.394531 20.945312 C 36.648438 21.246094 36.949219 21.46875 37.308594 21.617188 C 37.183594 21.65625 37.074219 21.648438 36.972656 21.59375 C 36.71875 21.425781 36.527344 21.210938 36.394531 20.945312 Z M 36.394531 22.050781 C 36.714844 22.101562 37.035156 22.109375 37.355469 22.074219 C 37.050781 22.292969 36.730469 22.324219 36.394531 22.167969 C 36.34375 22.132812 36.34375 22.09375 36.394531 22.050781 Z M 36.203125 22.386719 C 36.207031 22.359375 36.222656 22.34375 36.253906 22.335938 C 36.542969 22.488281 36.847656 22.523438 37.164062 22.433594 C 37.070312 22.539062 36.949219 22.601562 36.804688 22.625 C 36.585938 22.585938 36.386719 22.507812 36.203125 22.386719 Z M 30.015625 23.726562 C 30.175781 23.726562 30.335938 23.726562 30.496094 23.726562 C 30.382812 23.816406 30.253906 23.878906 30.109375 23.921875 C 30.03125 23.882812 30 23.816406 30.015625 23.726562 Z M 38.988281 26.75 C 38.832031 26.796875 38.671875 26.8125 38.507812 26.800781 C 38.636719 26.75 38.773438 26.699219 38.914062 26.65625 C 38.949219 26.679688 38.972656 26.714844 38.988281 26.75 Z M 36.109375 30.832031 C 36.203125 30.832031 36.300781 30.832031 36.394531 30.832031 C 36.304688 30.949219 36.207031 30.949219 36.109375 30.832031 Z M 36.109375 30.832031 "/>
</g>
<mask id="mask5">
  <g filter="url(#alpha)">
<rect x="0" y="0" width="50" height="50" style="fill:rgb(0%,0%,0%);fill-opacity:0.866667;stroke:none;"/>
  </g>
</mask>
<clipPath id="clip6">
  <rect width="50" height="50"/>
</clipPath>
<g id="surface21" clip-path="url(#clip6)">
<path style=" stroke:none;fill-rule:evenodd;fill:rgb(54.901961%,57.647059%,67.45098%);fill-opacity:1;" d="M 12.453125 12.5 C 12.613281 12.789062 12.773438 13.074219 12.933594 13.363281 C 12.917969 13.445312 12.886719 13.515625 12.835938 13.578125 C 12.796875 13.613281 12.765625 13.605469 12.738281 13.554688 C 12.597656 13.214844 12.503906 12.863281 12.453125 12.5 Z M 12.453125 12.5 "/>
</g>
<mask id="mask6">
  <g filter="url(#alpha)">
<rect x="0" y="0" width="50" height="50" style="fill:rgb(0%,0%,0%);fill-opacity:0.933333;stroke:none;"/>
  </g>
</mask>
<clipPath id="clip7">
  <rect width="50" height="50"/>
</clipPath>
<g id="surface24" clip-path="url(#clip7)">
<path style=" stroke:none;fill-rule:evenodd;fill:rgb(90.588235%,89.019608%,86.27451%);fill-opacity:1;" d="M 39.660156 12.691406 C 39.886719 12.703125 40.109375 12.734375 40.332031 12.789062 C 40.371094 13.242188 40.210938 13.328125 39.851562 13.050781 C 39.773438 12.9375 39.710938 12.820312 39.660156 12.691406 Z M 39.660156 12.691406 "/>
</g>
<mask id="mask7">
  <g filter="url(#alpha)">
<rect x="0" y="0" width="50" height="50" style="fill:rgb(0%,0%,0%);fill-opacity:0.847059;stroke:none;"/>
  </g>
</mask>
<clipPath id="clip8">
  <rect width="50" height="50"/>
</clipPath>
<g id="surface27" clip-path="url(#clip8)">
<path style=" stroke:none;fill-rule:evenodd;fill:rgb(55.686275%,58.431373%,68.235294%);fill-opacity:1;" d="M 17.492188 14.132812 C 17.601562 14.125 17.714844 14.132812 17.828125 14.15625 C 17.640625 14.351562 17.449219 14.535156 17.25 14.707031 C 17.191406 14.75 17.128906 14.757812 17.058594 14.730469 C 17.175781 14.507812 17.316406 14.308594 17.492188 14.132812 Z M 17.492188 14.132812 "/>
</g>
<mask id="mask8">
  <g filter="url(#alpha)">
<rect x="0" y="0" width="50" height="50" style="fill:rgb(0%,0%,0%);fill-opacity:0.996078;stroke:none;"/>
  </g>
</mask>
<clipPath id="clip9">
  <rect width="50" height="50"/>
</clipPath>
<g id="surface30" clip-path="url(#clip9)">
<path style=" stroke:none;fill-rule:evenodd;fill:rgb(93.72549%,92.156863%,89.411765%);fill-opacity:1;" d="M 11.78125 16.195312 C 11.8125 16.195312 11.828125 16.179688 11.828125 16.148438 C 11.859375 16.148438 11.875 16.128906 11.875 16.097656 C 11.910156 16.097656 11.925781 16.082031 11.925781 16.050781 C 11.957031 16.050781 11.972656 16.035156 11.972656 16.003906 C 12.003906 16.003906 12.019531 15.988281 12.019531 15.953125 C 12.050781 15.953125 12.066406 15.9375 12.066406 15.90625 C 12.101562 15.90625 12.117188 15.890625 12.117188 15.859375 C 12.148438 15.859375 12.164062 15.84375 12.164062 15.8125 C 12.195312 15.8125 12.210938 15.796875 12.210938 15.761719 C 12.839844 15.253906 13.5625 15.085938 14.371094 15.257812 C 15.359375 15.371094 16.085938 15.859375 16.554688 16.722656 C 16.921875 18.140625 16.480469 19.234375 15.234375 20.007812 C 13.992188 20.613281 12.851562 20.460938 11.804688 19.554688 C 11.152344 18.804688 10.992188 17.957031 11.324219 17.011719 C 11.425781 16.707031 11.578125 16.4375 11.78125 16.195312 Z M 11.78125 16.195312 "/>
</g>
<mask id="mask9">
  <g filter="url(#alpha)">
<rect x="0" y="0" width="50" height="50" style="fill:rgb(0%,0%,0%);fill-opacity:0.968627;stroke:none;"/>
  </g>
</mask>
<clipPath id="clip10">
  <rect width="50" height="50"/>
</clipPath>
<g id="surface33" clip-path="url(#clip10)">
<path style=" stroke:none;fill-rule:evenodd;fill:rgb(3.529412%,2.745098%,2.745098%);fill-opacity:1;" d="M 10.003906 17.875 C 9.996094 18.019531 10.027344 18.144531 10.101562 18.257812 C 10.175781 18.875 10.101562 19.484375 9.886719 20.082031 C 9.820312 20.246094 9.730469 20.386719 9.621094 20.511719 C 8.882812 21.371094 7.9375 21.800781 6.789062 21.808594 C 4.648438 21.640625 3.730469 20.488281 4.03125 18.355469 C 4.191406 17.585938 4.582031 16.972656 5.207031 16.507812 C 5.386719 16.386719 5.578125 16.289062 5.78125 16.21875 C 6.832031 15.957031 7.855469 16.035156 8.851562 16.457031 C 9.4375 16.765625 9.824219 17.238281 10.003906 17.875 Z M 5.925781 16.675781 C 5.550781 16.964844 5.183594 17.269531 4.824219 17.585938 C 5.070312 17.132812 5.4375 16.832031 5.925781 16.675781 Z M 4.535156 19.792969 C 4.753906 20.15625 5.011719 20.492188 5.300781 20.800781 C 5.101562 20.820312 4.949219 20.738281 4.847656 20.5625 C 4.683594 20.355469 4.5625 20.121094 4.488281 19.867188 C 4.488281 19.828125 4.507812 19.804688 4.535156 19.792969 Z M 4.535156 19.792969 "/>
</g>
<mask id="mask10">
  <g filter="url(#alpha)">
<rect x="0" y="0" width="50" height="50" style="fill:rgb(0%,0%,0%);fill-opacity:0.894118;stroke:none;"/>
  </g>
</mask>
<clipPath id="clip11">
  <rect width="50" height="50"/>
</clipPath>
<g id="surface36" clip-path="url(#clip11)">
<path style=" stroke:none;fill-rule:evenodd;fill:rgb(80%,78.431373%,76.078431%);fill-opacity:1;" d="M 43.355469 15.859375 C 43.347656 16.113281 43.265625 16.335938 43.113281 16.53125 C 43.175781 16.296875 43.257812 16.070312 43.355469 15.859375 Z M 43.355469 15.859375 "/>
</g>
<mask id="mask11">
  <g filter="url(#alpha)">
<rect x="0" y="0" width="50" height="50" style="fill:rgb(0%,0%,0%);fill-opacity:0.960784;stroke:none;"/>
  </g>
</mask>
<clipPath id="clip12">
  <rect width="50" height="50"/>
</clipPath>
<g id="surface39" clip-path="url(#clip12)">
<path style=" stroke:none;fill-rule:evenodd;fill:rgb(75.294118%,46.27451%,37.647059%);fill-opacity:1;" d="M 4.824219 17.585938 C 5.183594 17.269531 5.550781 16.964844 5.925781 16.675781 C 6.070312 16.636719 6.210938 16.625 6.359375 16.652344 C 5.996094 17.5 5.371094 18.003906 4.488281 18.164062 C 4.550781 17.9375 4.664062 17.746094 4.824219 17.585938 Z M 4.824219 17.585938 "/>
</g>
<mask id="mask12">
  <g filter="url(#alpha)">
<rect x="0" y="0" width="50" height="50" style="fill:rgb(0%,0%,0%);fill-opacity:0.717647;stroke:none;"/>
  </g>
</mask>
<clipPath id="clip13">
  <rect width="50" height="50"/>
</clipPath>
<g id="surface42" clip-path="url(#clip13)">
<path style=" stroke:none;fill-rule:evenodd;fill:rgb(88.235294%,86.666667%,83.921569%);fill-opacity:1;" d="M 42.492188 17.25 C 42.351562 17.503906 42.144531 17.679688 41.867188 17.777344 C 41.828125 17.746094 41.796875 17.707031 41.769531 17.660156 C 42.011719 17.523438 42.25 17.386719 42.492188 17.25 Z M 42.492188 17.25 "/>
</g>
<mask id="mask13">
  <g filter="url(#alpha)">
<rect x="0" y="0" width="50" height="50" style="fill:rgb(0%,0%,0%);fill-opacity:0.996078;stroke:none;"/>
  </g>
</mask>
<clipPath id="clip14">
  <rect width="50" height="50"/>
</clipPath>
<g id="surface45" clip-path="url(#clip14)">
<path style=" stroke:none;fill-rule:evenodd;fill:rgb(62.352941%,56.470588%,58.431373%);fill-opacity:1;" d="M 39.5625 17.96875 C 39.648438 18.015625 39.742188 18.03125 39.851562 18.019531 C 39.964844 18.082031 40.074219 18.082031 40.1875 18.019531 C 40.554688 17.957031 40.925781 17.898438 41.289062 17.851562 C 40.703125 19.433594 40.183594 21.042969 39.730469 22.671875 C 39.585938 23.273438 39.515625 23.878906 39.515625 24.496094 C 38.234375 24.457031 36.953125 24.375 35.675781 24.257812 C 35.742188 23.597656 35.917969 22.972656 36.203125 22.386719 C 36.386719 22.507812 36.585938 22.585938 36.804688 22.625 C 36.949219 22.601562 37.070312 22.539062 37.164062 22.433594 C 37.265625 22.34375 37.375 22.261719 37.5 22.191406 C 37.539062 22.117188 37.554688 22.039062 37.546875 21.953125 C 38.304688 21.800781 39.007812 21.519531 39.660156 21.113281 C 39.902344 20.921875 39.992188 20.671875 39.921875 20.371094 C 39.492188 19.582031 38.894531 18.957031 38.125 18.5 C 38.105469 18.457031 38.074219 18.441406 38.027344 18.449219 C 37.992188 18.40625 37.945312 18.390625 37.882812 18.402344 C 37.992188 18.109375 38.132812 17.835938 38.316406 17.585938 C 38.707031 17.800781 39.121094 17.929688 39.5625 17.96875 Z M 39.5625 17.96875 "/>
</g>
<mask id="mask14">
  <g filter="url(#alpha)">
<rect x="0" y="0" width="50" height="50" style="fill:rgb(0%,0%,0%);fill-opacity:0.992157;stroke:none;"/>
  </g>
</mask>
<clipPath id="clip15">
  <rect width="50" height="50"/>
</clipPath>
<g id="surface48" clip-path="url(#clip15)">
<path style=" stroke:none;fill-rule:evenodd;fill:rgb(61.176471%,55.294118%,57.254902%);fill-opacity:1;" d="M 41.097656 19.984375 C 41.050781 19.984375 41.003906 19.984375 40.953125 19.984375 C 41.226562 19.226562 41.472656 18.457031 41.699219 17.683594 C 41.855469 18.21875 42.039062 18.746094 42.25 19.265625 C 41.902344 19.496094 41.535156 19.6875 41.148438 19.839844 C 41.105469 19.882812 41.089844 19.929688 41.097656 19.984375 Z M 41.097656 19.984375 "/>
</g>
<mask id="mask15">
  <g filter="url(#alpha)">
<rect x="0" y="0" width="50" height="50" style="fill:rgb(0%,0%,0%);fill-opacity:0.847059;stroke:none;"/>
  </g>
</mask>
<clipPath id="clip16">
  <rect width="50" height="50"/>
</clipPath>
<g id="surface51" clip-path="url(#clip16)">
<path style=" stroke:none;fill-rule:evenodd;fill:rgb(1.176471%,1.568627%,1.568627%);fill-opacity:1;" d="M 32.460938 18.164062 C 32.589844 18.15625 32.71875 18.164062 32.84375 18.1875 C 32.910156 18.265625 32.910156 18.347656 32.84375 18.425781 C 31.152344 18.613281 29.457031 18.636719 27.757812 18.5 C 27.726562 18.351562 27.78125 18.269531 27.925781 18.257812 C 29.449219 18.398438 30.960938 18.367188 32.460938 18.164062 Z M 32.460938 18.164062 "/>
</g>
<mask id="mask16">
  <g filter="url(#alpha)">
<rect x="0" y="0" width="50" height="50" style="fill:rgb(0%,0%,0%);fill-opacity:0.972549;stroke:none;"/>
  </g>
</mask>
<clipPath id="clip17">
  <rect width="50" height="50"/>
</clipPath>
<g id="surface54" clip-path="url(#clip17)">
<path style=" stroke:none;fill-rule:evenodd;fill:rgb(89.411765%,87.843137%,85.490196%);fill-opacity:1;" d="M 44.9375 18.304688 C 45 18.34375 45.054688 18.390625 45.105469 18.449219 C 45.109375 18.570312 45.148438 18.675781 45.226562 18.761719 C 45.183594 18.828125 45.167969 18.898438 45.175781 18.976562 C 44.925781 18.933594 44.765625 18.792969 44.699219 18.546875 C 44.792969 18.480469 44.875 18.402344 44.9375 18.304688 Z M 44.9375 18.304688 "/>
</g>
<mask id="mask17">
  <g filter="url(#alpha)">
<rect x="0" y="0" width="50" height="50" style="fill:rgb(0%,0%,0%);fill-opacity:0.866667;stroke:none;"/>
  </g>
</mask>
<clipPath id="clip18">
  <rect width="50" height="50"/>
</clipPath>
<g id="surface57" clip-path="url(#clip18)">
<path style=" stroke:none;fill-rule:evenodd;fill:rgb(88.627451%,87.058824%,84.705882%);fill-opacity:1;" d="M 45.753906 18.402344 C 45.753906 18.480469 45.753906 18.5625 45.753906 18.640625 C 45.746094 18.671875 45.730469 18.695312 45.707031 18.714844 C 45.59375 18.746094 45.480469 18.746094 45.371094 18.714844 C 45.527344 18.644531 45.65625 18.539062 45.753906 18.402344 Z M 45.753906 18.402344 "/>
</g>
<mask id="mask18">
  <g filter="url(#alpha)">
<rect x="0" y="0" width="50" height="50" style="fill:rgb(0%,0%,0%);fill-opacity:0.870588;stroke:none;"/>
  </g>
</mask>
<clipPath id="clip19">
  <rect width="50" height="50"/>
</clipPath>
<g id="surface60" clip-path="url(#clip19)">
<path style=" stroke:none;fill-rule:evenodd;fill:rgb(63.921569%,21.960784%,17.254902%);fill-opacity:1;" d="M 36.058594 19.984375 C 36.285156 19.570312 36.507812 19.152344 36.730469 18.738281 C 36.808594 18.691406 36.886719 18.683594 36.972656 18.714844 C 37.019531 18.75 37.027344 18.789062 36.996094 18.832031 C 36.726562 19.195312 36.496094 19.578125 36.300781 19.984375 C 36.214844 20.046875 36.132812 20.046875 36.058594 19.984375 Z M 36.058594 19.984375 "/>
</g>
<mask id="mask19">
  <g filter="url(#alpha)">
<rect x="0" y="0" width="50" height="50" style="fill:rgb(0%,0%,0%);fill-opacity:0.980392;stroke:none;"/>
  </g>
</mask>
<clipPath id="clip20">
  <rect width="50" height="50"/>
</clipPath>
<g id="surface63" clip-path="url(#clip20)">
<path style=" stroke:none;fill-rule:evenodd;fill:rgb(65.882353%,22.745098%,17.647059%);fill-opacity:1;" d="M 37.308594 18.832031 C 37.480469 18.910156 37.65625 18.976562 37.835938 19.027344 C 37.742188 19.402344 37.675781 19.789062 37.644531 20.175781 C 37.65625 20.632812 37.722656 21.082031 37.835938 21.519531 C 37.660156 21.554688 37.484375 21.585938 37.308594 21.617188 C 36.949219 21.46875 36.648438 21.246094 36.394531 20.945312 C 36.394531 20.914062 36.378906 20.898438 36.347656 20.898438 C 36.355469 20.851562 36.339844 20.816406 36.300781 20.800781 C 36.300781 20.769531 36.285156 20.753906 36.253906 20.753906 C 36.261719 20.707031 36.246094 20.671875 36.203125 20.65625 C 36.128906 20.539062 36.082031 20.410156 36.058594 20.273438 C 36.214844 20.296875 36.347656 20.265625 36.46875 20.175781 C 36.6875 19.6875 36.96875 19.238281 37.308594 18.832031 Z M 37.308594 18.832031 "/>
</g>
<mask id="mask20">
  <g filter="url(#alpha)">
<rect x="0" y="0" width="50" height="50" style="fill:rgb(0%,0%,0%);fill-opacity:0.976471;stroke:none;"/>
  </g>
</mask>
<clipPath id="clip21">
  <rect width="50" height="50"/>
</clipPath>
<g id="surface66" clip-path="url(#clip21)">
<path style=" stroke:none;fill-rule:evenodd;fill:rgb(92.941176%,91.372549%,88.627451%);fill-opacity:1;" d="M 44.121094 19.984375 C 44.089844 19.984375 44.074219 20 44.074219 20.035156 C 44 20.03125 43.953125 20.0625 43.929688 20.128906 C 43.816406 20.167969 43.722656 20.234375 43.640625 20.320312 C 43.570312 20.316406 43.519531 20.351562 43.5 20.417969 C 43.449219 20.410156 43.417969 20.425781 43.402344 20.464844 C 43.328125 20.460938 43.28125 20.492188 43.257812 20.5625 C 43.210938 20.554688 43.179688 20.570312 43.164062 20.609375 C 43.128906 20.609375 43.113281 20.625 43.113281 20.65625 C 43.066406 20.648438 43.035156 20.664062 43.019531 20.707031 C 42.984375 20.707031 42.96875 20.722656 42.96875 20.753906 C 42.921875 20.746094 42.890625 20.761719 42.875 20.800781 C 42.757812 20.847656 42.65625 20.910156 42.5625 20.992188 C 42.183594 20.664062 41.792969 20.351562 41.386719 20.058594 C 41.324219 20.007812 41.324219 19.960938 41.386719 19.914062 C 41.570312 19.796875 41.761719 19.695312 41.960938 19.601562 C 42.089844 19.761719 42.195312 19.9375 42.273438 20.128906 C 42.324219 20.195312 42.390625 20.246094 42.464844 20.273438 C 43.304688 19.957031 44.03125 19.476562 44.648438 18.832031 C 44.753906 18.957031 44.878906 19.046875 45.035156 19.097656 C 44.765625 19.4375 44.460938 19.734375 44.121094 19.984375 Z M 44.121094 19.984375 "/>
</g>
<mask id="mask21">
  <g filter="url(#alpha)">
<rect x="0" y="0" width="50" height="50" style="fill:rgb(0%,0%,0%);fill-opacity:0.772549;stroke:none;"/>
  </g>
</mask>
<clipPath id="clip22">
  <rect width="50" height="50"/>
</clipPath>
<g id="surface69" clip-path="url(#clip22)">
<path style=" stroke:none;fill-rule:evenodd;fill:rgb(1.176471%,1.568627%,1.568627%);fill-opacity:1;" d="M 48.152344 18.882812 C 48.257812 18.886719 48.308594 18.941406 48.296875 19.050781 C 48.265625 19.242188 48.210938 19.425781 48.128906 19.601562 C 47.800781 20.148438 47.40625 20.644531 46.953125 21.089844 C 46.835938 21.046875 46.796875 20.96875 46.832031 20.847656 C 47.21875 20.445312 47.570312 20.011719 47.890625 19.554688 C 48.015625 19.34375 48.105469 19.121094 48.152344 18.882812 Z M 48.152344 18.882812 "/>
</g>
<mask id="mask22">
  <g filter="url(#alpha)">
<rect x="0" y="0" width="50" height="50" style="fill:rgb(0%,0%,0%);fill-opacity:0.894118;stroke:none;"/>
  </g>
</mask>
<clipPath id="clip23">
  <rect width="50" height="50"/>
</clipPath>
<g id="surface72" clip-path="url(#clip23)">
<path style=" stroke:none;fill-rule:evenodd;fill:rgb(88.627451%,87.058824%,84.705882%);fill-opacity:1;" d="M 45.65625 18.929688 C 45.652344 19.011719 45.636719 19.09375 45.609375 19.167969 C 45.578125 19.167969 45.5625 19.1875 45.5625 19.21875 C 45.4375 19.21875 45.34375 19.171875 45.273438 19.074219 C 45.367188 18.945312 45.492188 18.898438 45.65625 18.929688 Z M 45.65625 18.929688 "/>
</g>
<mask id="mask23">
  <g filter="url(#alpha)">
<rect x="0" y="0" width="50" height="50" style="fill:rgb(0%,0%,0%);fill-opacity:0.866667;stroke:none;"/>
  </g>
</mask>
<clipPath id="clip24">
  <rect width="50" height="50"/>
</clipPath>
<g id="surface75" clip-path="url(#clip24)">
<path style=" stroke:none;fill-rule:evenodd;fill:rgb(64.705882%,22.352941%,17.254902%);fill-opacity:1;" d="M 34.859375 19.167969 C 34.714844 19.460938 34.570312 19.75 34.429688 20.035156 C 34.429688 20 34.414062 19.984375 34.382812 19.984375 C 34.390625 19.9375 34.375 19.90625 34.332031 19.890625 C 34.332031 19.859375 34.316406 19.839844 34.285156 19.839844 C 34.25 19.753906 34.203125 19.675781 34.140625 19.601562 C 34.160156 19.570312 34.175781 19.535156 34.1875 19.503906 C 34.414062 19.394531 34.636719 19.28125 34.859375 19.167969 Z M 34.859375 19.167969 "/>
</g>
<mask id="mask24">
  <g filter="url(#alpha)">
<rect x="0" y="0" width="50" height="50" style="fill:rgb(0%,0%,0%);fill-opacity:0.792157;stroke:none;"/>
  </g>
</mask>
<clipPath id="clip25">
  <rect width="50" height="50"/>
</clipPath>
<g id="surface78" clip-path="url(#clip25)">
<path style=" stroke:none;fill-rule:evenodd;fill:rgb(1.176471%,1.568627%,1.568627%);fill-opacity:1;" d="M 47.050781 19.21875 C 47.113281 19.21875 47.175781 19.21875 47.242188 19.21875 C 47.125 19.578125 46.957031 19.914062 46.738281 20.226562 C 46.671875 20.269531 46.601562 20.285156 46.519531 20.273438 C 46.511719 20.191406 46.519531 20.113281 46.546875 20.035156 C 46.714844 19.761719 46.882812 19.488281 47.050781 19.21875 Z M 47.050781 19.21875 "/>
</g>
<mask id="mask25">
  <g filter="url(#alpha)">
<rect x="0" y="0" width="50" height="50" style="fill:rgb(0%,0%,0%);fill-opacity:0.772549;stroke:none;"/>
  </g>
</mask>
<clipPath id="clip26">
  <rect width="50" height="50"/>
</clipPath>
<g id="surface81" clip-path="url(#clip26)">
<path style=" stroke:none;fill-rule:evenodd;fill:rgb(83.529412%,81.960784%,79.607843%);fill-opacity:1;" d="M 45.320312 19.410156 C 45.195312 19.425781 45.066406 19.441406 44.9375 19.457031 C 44.992188 19.378906 45.050781 19.300781 45.105469 19.21875 C 45.1875 19.277344 45.257812 19.339844 45.320312 19.410156 Z M 45.320312 19.410156 "/>
</g>
<mask id="mask26">
  <g filter="url(#alpha)">
<rect x="0" y="0" width="50" height="50" style="fill:rgb(0%,0%,0%);fill-opacity:0.964706;stroke:none;"/>
  </g>
</mask>
<clipPath id="clip27">
  <rect width="50" height="50"/>
</clipPath>
<g id="surface84" clip-path="url(#clip27)">
<path style=" stroke:none;fill-rule:evenodd;fill:rgb(65.490196%,22.745098%,17.647059%);fill-opacity:1;" d="M 38.21875 19.265625 C 38.550781 19.503906 38.871094 19.757812 39.179688 20.035156 C 39.179688 20.066406 39.195312 20.082031 39.226562 20.082031 C 39.226562 20.113281 39.242188 20.128906 39.277344 20.128906 C 39.277344 20.160156 39.292969 20.175781 39.324219 20.175781 C 39.34375 20.234375 39.375 20.285156 39.417969 20.320312 C 39.628906 20.511719 39.613281 20.671875 39.371094 20.800781 C 39.3125 20.820312 39.265625 20.855469 39.226562 20.898438 C 39.167969 20.917969 39.121094 20.949219 39.082031 20.992188 C 38.820312 21.132812 38.546875 21.261719 38.269531 21.378906 C 38.027344 20.804688 37.96875 20.214844 38.101562 19.601562 C 38.105469 19.472656 38.148438 19.359375 38.21875 19.265625 Z M 38.21875 19.265625 "/>
</g>
<mask id="mask27">
  <g filter="url(#alpha)">
<rect x="0" y="0" width="50" height="50" style="fill:rgb(0%,0%,0%);fill-opacity:0.815686;stroke:none;"/>
  </g>
</mask>
<clipPath id="clip28">
  <rect width="50" height="50"/>
</clipPath>
<g id="surface87" clip-path="url(#clip28)">
<path style=" stroke:none;fill-rule:evenodd;fill:rgb(1.176471%,1.568627%,1.568627%);fill-opacity:1;" d="M 33.039062 19.457031 C 33.199219 19.453125 33.265625 19.53125 33.230469 19.699219 C 32.5 19.792969 31.773438 19.839844 31.046875 19.839844 C 31.011719 19.78125 31.019531 19.722656 31.070312 19.671875 C 31.734375 19.597656 32.386719 19.523438 33.039062 19.457031 Z M 33.039062 19.457031 "/>
</g>
<mask id="mask28">
  <g filter="url(#alpha)">
<rect x="0" y="0" width="50" height="50" style="fill:rgb(0%,0%,0%);fill-opacity:0.866667;stroke:none;"/>
  </g>
</mask>
<clipPath id="clip29">
  <rect width="50" height="50"/>
</clipPath>
<g id="surface90" clip-path="url(#clip29)">
<path style=" stroke:none;fill-rule:evenodd;fill:rgb(87.058824%,85.490196%,83.137255%);fill-opacity:1;" d="M 42.296875 19.410156 C 42.386719 19.609375 42.480469 19.800781 42.585938 19.984375 C 42.5625 20.0625 42.515625 20.085938 42.441406 20.058594 C 42.335938 19.886719 42.222656 19.71875 42.105469 19.554688 C 42.171875 19.503906 42.234375 19.457031 42.296875 19.410156 Z M 42.296875 19.410156 "/>
</g>
<mask id="mask29">
  <g filter="url(#alpha)">
<rect x="0" y="0" width="50" height="50" style="fill:rgb(0%,0%,0%);fill-opacity:0.976471;stroke:none;"/>
  </g>
</mask>
<clipPath id="clip30">
  <rect width="50" height="50"/>
</clipPath>
<g id="surface93" clip-path="url(#clip30)">
<path style=" stroke:none;fill-rule:evenodd;fill:rgb(75.294118%,46.27451%,37.647059%);fill-opacity:1;" d="M 5.300781 20.800781 C 5.011719 20.492188 4.753906 20.15625 4.535156 19.792969 C 5.046875 19.804688 5.539062 19.726562 6.023438 19.554688 C 6.03125 19.652344 6.054688 19.75 6.09375 19.839844 C 6.226562 20.074219 6.355469 20.296875 6.476562 20.511719 C 6.121094 20.777344 5.730469 20.871094 5.300781 20.800781 Z M 5.300781 20.800781 "/>
</g>
<mask id="mask30">
  <g filter="url(#alpha)">
<rect x="0" y="0" width="50" height="50" style="fill:rgb(0%,0%,0%);fill-opacity:0.85098;stroke:none;"/>
  </g>
</mask>
<clipPath id="clip31">
  <rect width="50" height="50"/>
</clipPath>
<g id="surface96" clip-path="url(#clip31)">
<path style=" stroke:none;fill-rule:evenodd;fill:rgb(91.372549%,89.803922%,87.45098%);fill-opacity:1;" d="M 40.953125 19.984375 C 41.003906 19.984375 41.050781 19.984375 41.097656 19.984375 C 41.453125 20.308594 41.820312 20.613281 42.203125 20.898438 C 41.761719 20.703125 41.332031 20.492188 40.90625 20.273438 C 40.878906 20.179688 40.894531 20.082031 40.953125 19.984375 Z M 40.953125 19.984375 "/>
</g>
<mask id="mask31">
  <g filter="url(#alpha)">
<rect x="0" y="0" width="50" height="50" style="fill:rgb(0%,0%,0%);fill-opacity:0.996078;stroke:none;"/>
  </g>
</mask>
<clipPath id="clip32">
  <rect width="50" height="50"/>
</clipPath>
<g id="surface99" clip-path="url(#clip32)">
<path style=" stroke:none;fill-rule:evenodd;fill:rgb(66.27451%,22.745098%,17.647059%);fill-opacity:1;" d="M 17.296875 20.082031 C 17.289062 20.128906 17.304688 20.160156 17.347656 20.175781 C 17.347656 20.210938 17.363281 20.226562 17.394531 20.226562 C 17.386719 20.273438 17.402344 20.304688 17.441406 20.320312 C 17.441406 20.351562 17.457031 20.371094 17.492188 20.371094 C 17.503906 20.472656 17.550781 20.554688 17.632812 20.609375 C 17.644531 20.714844 17.695312 20.792969 17.777344 20.847656 C 17.769531 20.898438 17.785156 20.929688 17.828125 20.945312 C 17.828125 20.976562 17.84375 20.992188 17.875 20.992188 C 17.867188 21.039062 17.882812 21.074219 17.921875 21.089844 C 17.914062 21.136719 17.929688 21.167969 17.96875 21.183594 C 17.960938 21.234375 17.976562 21.265625 18.019531 21.28125 C 18.480469 22.339844 18.6875 23.453125 18.640625 24.617188 C 18.652344 25.222656 18.597656 25.824219 18.472656 26.414062 C 18.371094 26.496094 18.25 26.535156 18.113281 26.535156 C 17.472656 26.59375 16.835938 26.648438 16.195312 26.703125 C 15.492188 26.707031 14.785156 26.691406 14.082031 26.65625 C 14.085938 25.679688 14.0625 24.703125 14.011719 23.726562 C 14.558594 23.25 15.109375 22.777344 15.667969 22.3125 C 15.738281 22.265625 15.820312 22.242188 15.90625 22.242188 C 16.34375 21.492188 16.785156 20.742188 17.226562 19.984375 C 17.238281 20.03125 17.265625 20.0625 17.296875 20.082031 Z M 17.296875 20.082031 "/>
</g>
<mask id="mask32">
  <g filter="url(#alpha)">
<rect x="0" y="0" width="50" height="50" style="fill:rgb(0%,0%,0%);fill-opacity:0.878431;stroke:none;"/>
  </g>
</mask>
<clipPath id="clip33">
  <rect width="50" height="50"/>
</clipPath>
<g id="surface102" clip-path="url(#clip33)">
<path style=" stroke:none;fill-rule:evenodd;fill:rgb(64.313725%,22.352941%,17.254902%);fill-opacity:1;" d="M 35.148438 20.175781 C 35.15625 20.257812 35.1875 20.320312 35.246094 20.371094 C 35.242188 20.578125 35.257812 20.785156 35.292969 20.992188 C 35.277344 20.992188 35.261719 20.992188 35.246094 20.992188 C 35.246094 20.960938 35.230469 20.945312 35.195312 20.945312 C 35.195312 20.914062 35.179688 20.898438 35.148438 20.898438 C 35.039062 20.722656 34.910156 20.5625 34.765625 20.417969 C 34.773438 20.292969 34.8125 20.179688 34.886719 20.082031 C 34.953125 20.160156 35.042969 20.191406 35.148438 20.175781 Z M 35.148438 20.175781 "/>
</g>
<mask id="mask33">
  <g filter="url(#alpha)">
<rect x="0" y="0" width="50" height="50" style="fill:rgb(0%,0%,0%);fill-opacity:0.313725;stroke:none;"/>
  </g>
</mask>
<clipPath id="clip34">
  <rect width="50" height="50"/>
</clipPath>
<g id="surface105" clip-path="url(#clip34)">
<path style=" stroke:none;fill-rule:evenodd;fill:rgb(55.686275%,19.215686%,15.294118%);fill-opacity:1;" d="M 12.738281 20.5625 C 12.78125 20.554688 12.8125 20.570312 12.835938 20.609375 C 12.785156 20.675781 12.738281 20.742188 12.691406 20.800781 C 12.699219 20.71875 12.714844 20.640625 12.738281 20.5625 Z M 12.738281 20.5625 "/>
</g>
<mask id="mask34">
  <g filter="url(#alpha)">
<rect x="0" y="0" width="50" height="50" style="fill:rgb(0%,0%,0%);fill-opacity:0.988235;stroke:none;"/>
  </g>
</mask>
<clipPath id="clip35">
  <rect width="50" height="50"/>
</clipPath>
<g id="surface108" clip-path="url(#clip35)">
<path style=" stroke:none;fill-rule:evenodd;fill:rgb(63.137255%,21.960784%,16.862745%);fill-opacity:1;" d="M 13.796875 21.425781 C 13.75 21.203125 13.71875 20.980469 13.699219 20.753906 C 14.105469 20.753906 14.507812 20.714844 14.898438 20.632812 C 14.628906 20.824219 14.375 21.03125 14.132812 21.257812 C 14.03125 21.339844 13.917969 21.394531 13.796875 21.425781 Z M 13.796875 21.425781 "/>
</g>
<mask id="mask35">
  <g filter="url(#alpha)">
<rect x="0" y="0" width="50" height="50" style="fill:rgb(0%,0%,0%);fill-opacity:0.831373;stroke:none;"/>
  </g>
</mask>
<clipPath id="clip36">
  <rect width="50" height="50"/>
</clipPath>
<g id="surface111" clip-path="url(#clip36)">
<path style=" stroke:none;fill-rule:evenodd;fill:rgb(74.117647%,45.490196%,37.254902%);fill-opacity:1;" d="M 9.621094 20.511719 C 9.269531 21.242188 8.695312 21.679688 7.894531 21.832031 C 7.515625 21.871094 7.148438 21.863281 6.789062 21.808594 C 7.9375 21.800781 8.882812 21.371094 9.621094 20.511719 Z M 9.621094 20.511719 "/>
</g>
<mask id="mask36">
  <g filter="url(#alpha)">
<rect x="0" y="0" width="50" height="50" style="fill:rgb(0%,0%,0%);fill-opacity:0.772549;stroke:none;"/>
  </g>
</mask>
<clipPath id="clip37">
  <rect width="50" height="50"/>
</clipPath>
<g id="surface114" clip-path="url(#clip37)">
<path style=" stroke:none;fill-rule:evenodd;fill:rgb(61.568627%,21.176471%,16.470588%);fill-opacity:1;" d="M 15.425781 22.191406 C 15.222656 21.875 14.980469 21.585938 14.707031 21.328125 C 14.699219 21.292969 14.710938 21.261719 14.730469 21.234375 C 15.0625 21.46875 15.328125 21.765625 15.523438 22.121094 C 15.496094 22.15625 15.464844 22.179688 15.425781 22.191406 Z M 15.425781 22.191406 "/>
</g>
<mask id="mask37">
  <g filter="url(#alpha)">
<rect x="0" y="0" width="50" height="50" style="fill:rgb(0%,0%,0%);fill-opacity:0.733333;stroke:none;"/>
  </g>
</mask>
<clipPath id="clip38">
  <rect width="50" height="50"/>
</clipPath>
<g id="surface117" clip-path="url(#clip38)">
<path style=" stroke:none;fill-rule:evenodd;fill:rgb(1.176471%,1.568627%,1.568627%);fill-opacity:1;" d="M 8.902344 21.855469 C 8.972656 21.859375 9.03125 21.890625 9.070312 21.953125 C 9.222656 22.226562 9.398438 22.480469 9.597656 22.722656 C 9.632812 22.796875 9.625 22.871094 9.574219 22.9375 C 9.539062 22.96875 9.507812 22.96875 9.476562 22.9375 C 9.226562 22.636719 9.019531 22.308594 8.851562 21.953125 C 8.871094 21.921875 8.886719 21.886719 8.902344 21.855469 Z M 8.902344 21.855469 "/>
</g>
<mask id="mask38">
  <g filter="url(#alpha)">
<rect x="0" y="0" width="50" height="50" style="fill:rgb(0%,0%,0%);fill-opacity:0.988235;stroke:none;"/>
  </g>
</mask>
<clipPath id="clip39">
  <rect width="50" height="50"/>
</clipPath>
<g id="surface120" clip-path="url(#clip39)">
<path style=" stroke:none;fill-rule:evenodd;fill:rgb(92.54902%,90.980392%,88.235294%);fill-opacity:1;" d="M 31.789062 25.886719 C 31.796875 25.839844 31.78125 25.808594 31.742188 25.792969 C 31.753906 25.730469 31.738281 25.683594 31.695312 25.648438 C 31.707031 25.585938 31.6875 25.539062 31.644531 25.503906 C 31.652344 25.457031 31.636719 25.425781 31.597656 25.40625 C 31.609375 25.347656 31.59375 25.296875 31.550781 25.265625 C 31.5625 25.203125 31.546875 25.152344 31.5 25.121094 C 31.511719 25.058594 31.496094 25.011719 31.453125 24.976562 C 31.460938 24.929688 31.445312 24.894531 31.40625 24.878906 C 31.417969 24.816406 31.402344 24.769531 31.359375 24.734375 C 31.253906 24.375 31.179688 24.007812 31.140625 23.632812 C 31.027344 23.578125 30.90625 23.570312 30.78125 23.609375 C 30.691406 23.664062 30.59375 23.703125 30.496094 23.726562 C 30.335938 23.726562 30.175781 23.726562 30.015625 23.726562 C 30.375 22.964844 30.984375 22.648438 31.835938 22.769531 C 31.855469 23.285156 31.910156 23.796875 32.003906 24.304688 C 32.214844 24.785156 32.421875 25.265625 32.628906 25.742188 C 32.6875 25.832031 32.765625 25.878906 32.871094 25.886719 C 33.195312 25.761719 33.523438 25.640625 33.851562 25.527344 C 33.933594 25.496094 34.011719 25.496094 34.09375 25.527344 C 34.328125 25.769531 34.535156 26.035156 34.71875 26.320312 C 34.058594 26.390625 33.386719 26.476562 32.703125 26.582031 C 32.527344 26.617188 32.351562 26.617188 32.171875 26.582031 C 32.027344 26.359375 31.898438 26.125 31.789062 25.886719 Z M 31.789062 25.886719 "/>
</g>
<mask id="mask39">
  <g filter="url(#alpha)">
<rect x="0" y="0" width="50" height="50" style="fill:rgb(0%,0%,0%);fill-opacity:0.807843;stroke:none;"/>
  </g>
</mask>
<clipPath id="clip40">
  <rect width="50" height="50"/>
</clipPath>
<g id="surface123" clip-path="url(#clip40)">
<path style=" stroke:none;fill-rule:evenodd;fill:rgb(90.980392%,89.411765%,87.058824%);fill-opacity:1;" d="M 32.078125 23.25 C 32.328125 23.9375 32.554688 24.644531 32.75 25.359375 C 32.554688 24.984375 32.371094 24.601562 32.199219 24.207031 C 32.121094 23.894531 32.082031 23.574219 32.078125 23.25 Z M 32.078125 23.25 "/>
</g>
<mask id="mask40">
  <g filter="url(#alpha)">
<rect x="0" y="0" width="50" height="50" style="fill:rgb(0%,0%,0%);fill-opacity:0.894118;stroke:none;"/>
  </g>
</mask>
<clipPath id="clip41">
  <rect width="50" height="50"/>
</clipPath>
<g id="surface126" clip-path="url(#clip41)">
<path style=" stroke:none;fill-rule:evenodd;fill:rgb(54.901961%,49.411765%,51.372549%);fill-opacity:1;" d="M 35.246094 24.449219 C 35.304688 24.464844 35.304688 24.488281 35.246094 24.519531 C 35.199219 24.542969 35.152344 24.550781 35.101562 24.542969 C 35.140625 24.5 35.1875 24.46875 35.246094 24.449219 Z M 35.246094 24.449219 "/>
</g>
<mask id="mask41">
  <g filter="url(#alpha)">
<rect x="0" y="0" width="50" height="50" style="fill:rgb(0%,0%,0%);fill-opacity:0.756863;stroke:none;"/>
  </g>
</mask>
<clipPath id="clip42">
  <rect width="50" height="50"/>
</clipPath>
<g id="surface129" clip-path="url(#clip42)">
<path style=" stroke:none;fill-rule:evenodd;fill:rgb(88.235294%,87.058824%,84.313725%);fill-opacity:1;" d="M 33.851562 25.214844 C 33.890625 25.25 33.921875 25.289062 33.949219 25.335938 C 33.777344 25.394531 33.601562 25.4375 33.421875 25.457031 C 33.554688 25.355469 33.695312 25.277344 33.851562 25.214844 Z M 33.851562 25.214844 "/>
</g>
<mask id="mask42">
  <g filter="url(#alpha)">
<rect x="0" y="0" width="50" height="50" style="fill:rgb(0%,0%,0%);fill-opacity:0.835294;stroke:none;"/>
  </g>
</mask>
<clipPath id="clip43">
  <rect width="50" height="50"/>
</clipPath>
<g id="surface132" clip-path="url(#clip43)">
<path style=" stroke:none;fill-rule:evenodd;fill:rgb(1.176471%,1.568627%,1.568627%);fill-opacity:1;" d="M 29.246094 26.65625 C 29.328125 26.648438 29.40625 26.65625 29.488281 26.679688 C 29.550781 26.742188 29.550781 26.808594 29.488281 26.871094 C 28.839844 27.007812 28.191406 27.144531 27.542969 27.277344 C 27.488281 27.273438 27.441406 27.257812 27.398438 27.230469 C 27.375 27.152344 27.367188 27.074219 27.375 26.992188 C 28.003906 26.875 28.628906 26.761719 29.246094 26.65625 Z M 29.246094 26.65625 "/>
</g>
<mask id="mask43">
  <g filter="url(#alpha)">
<rect x="0" y="0" width="50" height="50" style="fill:rgb(0%,0%,0%);fill-opacity:0.996078;stroke:none;"/>
  </g>
</mask>
<clipPath id="clip44">
  <rect width="50" height="50"/>
</clipPath>
<g id="surface135" clip-path="url(#clip44)">
<path style=" stroke:none;fill-rule:evenodd;fill:rgb(92.941176%,91.372549%,88.627451%);fill-opacity:1;" d="M 38.988281 26.75 C 39.160156 26.964844 39.328125 27.191406 39.492188 27.421875 C 39.527344 27.476562 39.519531 27.527344 39.46875 27.566406 C 39.324219 27.640625 39.179688 27.710938 39.035156 27.78125 C 38.679688 28.058594 38.3125 28.3125 37.933594 28.550781 C 37.253906 28.894531 36.589844 29.253906 35.941406 29.628906 C 35.910156 29.710938 35.910156 29.789062 35.941406 29.871094 C 36.183594 30.148438 36.335938 30.46875 36.394531 30.832031 C 36.300781 30.832031 36.203125 30.832031 36.109375 30.832031 C 35.792969 30.589844 35.5 30.316406 35.222656 30.015625 C 35.113281 29.78125 34.96875 29.574219 34.789062 29.390625 C 34.757812 29.328125 34.757812 29.261719 34.789062 29.199219 C 35.007812 29.003906 35.257812 28.851562 35.53125 28.742188 C 36.027344 28.523438 36.539062 28.363281 37.066406 28.261719 C 37.4375 28.121094 37.78125 27.9375 38.101562 27.710938 C 38.144531 27.628906 38.167969 27.542969 38.171875 27.445312 C 38.109375 27.25 38.0625 27.050781 38.027344 26.847656 C 38.167969 26.863281 38.292969 26.847656 38.410156 26.800781 C 38.445312 26.800781 38.476562 26.800781 38.507812 26.800781 C 38.671875 26.8125 38.832031 26.796875 38.988281 26.75 Z M 38.988281 26.75 "/>
</g>
<mask id="mask44">
  <g filter="url(#alpha)">
<rect x="0" y="0" width="50" height="50" style="fill:rgb(0%,0%,0%);fill-opacity:0.572549;stroke:none;"/>
  </g>
</mask>
<clipPath id="clip45">
  <rect width="50" height="50"/>
</clipPath>
<g id="surface138" clip-path="url(#clip45)">
<path style=" stroke:none;fill-rule:evenodd;fill:rgb(54.509804%,49.411765%,50.980392%);fill-opacity:1;" d="M 13.652344 26.800781 C 13.675781 26.800781 13.695312 26.816406 13.699219 26.847656 C 13.507812 26.96875 13.300781 27.046875 13.074219 27.085938 C 13.265625 26.992188 13.457031 26.898438 13.652344 26.800781 Z M 13.652344 26.800781 "/>
</g>
<mask id="mask45">
  <g filter="url(#alpha)">
<rect x="0" y="0" width="50" height="50" style="fill:rgb(0%,0%,0%);fill-opacity:0.988235;stroke:none;"/>
  </g>
</mask>
<clipPath id="clip46">
  <rect width="50" height="50"/>
</clipPath>
<g id="surface141" clip-path="url(#clip46)">
<path style=" stroke:none;fill-rule:evenodd;fill:rgb(62.352941%,56.470588%,58.431373%);fill-opacity:1;" d="M 18.066406 26.945312 C 18.390625 27.351562 18.726562 27.75 19.074219 28.144531 C 18.753906 28.414062 18.433594 28.6875 18.113281 28.957031 C 18.066406 28.949219 18.035156 28.964844 18.019531 29.007812 C 17.984375 29.007812 17.96875 29.023438 17.96875 29.054688 C 17.921875 29.046875 17.890625 29.0625 17.875 29.101562 C 17.664062 29.246094 17.441406 29.351562 17.203125 29.414062 C 17.011719 29.175781 16.804688 28.953125 16.578125 28.742188 C 16.183594 28.472656 15.855469 28.148438 15.59375 27.757812 C 15.019531 27.949219 14.453125 28.140625 13.890625 28.335938 C 13.816406 28.320312 13.75 28.339844 13.699219 28.382812 C 13.683594 28.382812 13.667969 28.382812 13.652344 28.382812 C 13.359375 28.433594 13.070312 28.496094 12.789062 28.574219 C 12.726562 28.546875 12.6875 28.5 12.667969 28.429688 C 12.589844 28.109375 12.488281 27.796875 12.355469 27.496094 C 12.839844 27.339844 13.3125 27.15625 13.773438 26.945312 C 13.851562 27 13.9375 27.042969 14.035156 27.0625 C 15.382812 27.121094 16.726562 27.078125 18.066406 26.945312 Z M 18.066406 26.945312 "/>
</g>
<mask id="mask46">
  <g filter="url(#alpha)">
<rect x="0" y="0" width="50" height="50" style="fill:rgb(0%,0%,0%);fill-opacity:0.843137;stroke:none;"/>
  </g>
</mask>
<clipPath id="clip47">
  <rect width="50" height="50"/>
</clipPath>
<g id="surface144" clip-path="url(#clip47)">
<path style=" stroke:none;fill-rule:evenodd;fill:rgb(1.176471%,1.568627%,1.568627%);fill-opacity:1;" d="M 29.152344 27.375 C 29.394531 27.363281 29.441406 27.453125 29.292969 27.640625 C 27.742188 27.800781 26.199219 28.019531 24.664062 28.285156 C 24.476562 28.304688 24.417969 28.234375 24.496094 28.070312 C 26.046875 27.777344 27.597656 27.546875 29.152344 27.375 Z M 29.152344 27.375 "/>
</g>
<mask id="mask47">
  <g filter="url(#alpha)">
<rect x="0" y="0" width="50" height="50" style="fill:rgb(0%,0%,0%);fill-opacity:0.376471;stroke:none;"/>
  </g>
</mask>
<clipPath id="clip48">
  <rect width="50" height="50"/>
</clipPath>
<g id="surface147" clip-path="url(#clip48)">
<path style=" stroke:none;fill-rule:evenodd;fill:rgb(90.980392%,89.803922%,87.058824%);fill-opacity:1;" d="M 36.394531 29.726562 C 36.378906 29.773438 36.347656 29.804688 36.300781 29.824219 C 36.242188 29.808594 36.242188 29.785156 36.300781 29.75 C 36.328125 29.726562 36.359375 29.71875 36.394531 29.726562 Z M 36.394531 29.726562 "/>
</g>
<mask id="mask48">
  <g filter="url(#alpha)">
<rect x="0" y="0" width="50" height="50" style="fill:rgb(0%,0%,0%);fill-opacity:0.811765;stroke:none;"/>
  </g>
</mask>
<clipPath id="clip49">
  <rect width="50" height="50"/>
</clipPath>
<g id="surface150" clip-path="url(#clip49)">
<path style=" stroke:none;fill-rule:evenodd;fill:rgb(1.176471%,1.568627%,1.568627%);fill-opacity:1;" d="M 36.78125 31.886719 C 36.949219 31.917969 37 32.015625 36.925781 32.171875 C 36.835938 32.238281 36.757812 32.308594 36.683594 32.390625 C 36.429688 32.511719 36.351562 32.441406 36.445312 32.171875 C 36.558594 32.074219 36.671875 31.980469 36.78125 31.886719 Z M 36.78125 31.886719 "/>
</g>
</defs>
<g id="surface1">
<use xlink:href="#surface6" mask="url(#mask0)"/>
<use xlink:href="#surface9" mask="url(#mask1)"/>
<use xlink:href="#surface12" mask="url(#mask2)"/>
<use xlink:href="#surface15" mask="url(#mask3)"/>
<use xlink:href="#surface18" mask="url(#mask4)"/>
<use xlink:href="#surface21" mask="url(#mask5)"/>
<use xlink:href="#surface24" mask="url(#mask6)"/>
<path style=" stroke:none;fill-rule:evenodd;fill:rgb(81.960784%,80.784314%,78.431373%);fill-opacity:1;" d="M 39.277344 12.980469 C 39.355469 12.917969 39.425781 12.933594 39.492188 13.027344 C 39.550781 13.152344 39.566406 13.28125 39.539062 13.410156 C 39.472656 13.25 39.386719 13.105469 39.277344 12.980469 Z M 39.277344 12.980469 "/>
<path style=" stroke:none;fill-rule:evenodd;fill:rgb(90.588235%,89.019608%,86.27451%);fill-opacity:1;" d="M 38.941406 12.933594 C 39.003906 12.921875 39.058594 12.941406 39.109375 12.980469 C 39.269531 13.300781 39.453125 13.605469 39.660156 13.890625 C 39.742188 13.707031 39.804688 13.515625 39.851562 13.316406 C 40.261719 13.578125 40.511719 13.464844 40.59375 12.980469 C 40.648438 13.140625 40.71875 13.292969 40.8125 13.4375 C 41.007812 13.460938 41.128906 13.371094 41.171875 13.171875 C 41.269531 13.3125 41.371094 13.449219 41.484375 13.578125 C 41.636719 13.695312 41.757812 13.671875 41.84375 13.507812 C 41.925781 13.660156 42.054688 13.757812 42.226562 13.796875 C 42.25 13.839844 42.257812 13.890625 42.25 13.941406 C 41.601562 14.074219 40.945312 14.113281 40.28125 14.058594 C 39.53125 13.941406 38.792969 13.765625 38.074219 13.53125 C 38.199219 13.394531 38.332031 13.273438 38.484375 13.171875 C 38.484375 13.300781 38.484375 13.425781 38.484375 13.554688 C 38.539062 13.613281 38.597656 13.613281 38.652344 13.554688 C 38.691406 13.320312 38.789062 13.109375 38.941406 12.933594 Z M 38.941406 12.933594 "/>
<path style=" stroke:none;fill-rule:evenodd;fill:rgb(93.333333%,91.764706%,89.019608%);fill-opacity:1;" d="M 39.945312 14.660156 C 39.996094 14.691406 40.042969 14.722656 40.089844 14.753906 C 40.128906 14.9375 40.222656 15.082031 40.378906 15.1875 C 40.410156 15.007812 40.347656 14.863281 40.1875 14.753906 C 40.1875 14.722656 40.203125 14.707031 40.234375 14.707031 C 40.796875 14.683594 41.355469 14.675781 41.914062 14.683594 C 41.863281 14.730469 41.808594 14.769531 41.746094 14.804688 C 41.71875 14.851562 41.734375 14.882812 41.792969 14.898438 C 41.953125 14.832031 42.089844 14.738281 42.203125 14.609375 C 42.277344 14.566406 42.355469 14.550781 42.441406 14.5625 C 42.460938 14.460938 42.417969 14.398438 42.324219 14.371094 C 41.40625 14.519531 40.488281 14.546875 39.5625 14.445312 C 38.957031 14.292969 38.347656 14.140625 37.738281 13.988281 C 37.792969 13.832031 37.898438 13.734375 38.050781 13.699219 C 38.585938 13.855469 39.121094 14.007812 39.660156 14.15625 C 40.578125 14.335938 41.488281 14.3125 42.394531 14.082031 C 43.199219 15.078125 43.152344 16.03125 42.25 16.9375 C 41.246094 17.589844 40.15625 17.765625 38.988281 17.464844 C 37.339844 16.839844 36.890625 15.738281 37.644531 14.15625 C 37.738281 14.125 37.835938 14.125 37.933594 14.15625 C 38.582031 14.40625 39.253906 14.574219 39.945312 14.660156 Z M 39.945312 14.660156 "/>
<use xlink:href="#surface27" mask="url(#mask7)"/>
<path style=" stroke:none;fill-rule:evenodd;fill:rgb(40.784314%,40%,39.215686%);fill-opacity:1;" d="M 39.945312 14.660156 C 40.054688 14.644531 40.152344 14.660156 40.234375 14.707031 C 40.203125 14.707031 40.1875 14.722656 40.1875 14.753906 C 40.15625 14.753906 40.125 14.753906 40.089844 14.753906 C 40.042969 14.722656 39.996094 14.691406 39.945312 14.660156 Z M 39.945312 14.660156 "/>
<path style=" stroke:none;fill-rule:evenodd;fill:rgb(9.411765%,9.411765%,9.411765%);fill-opacity:1;" d="M 40.089844 14.753906 C 40.125 14.753906 40.15625 14.753906 40.1875 14.753906 C 40.347656 14.863281 40.410156 15.007812 40.378906 15.1875 C 40.222656 15.082031 40.128906 14.9375 40.089844 14.753906 Z M 40.089844 14.753906 "/>
<path style=" stroke:none;fill-rule:evenodd;fill:rgb(20%,19.607843%,19.215686%);fill-opacity:1;" d="M 42.296875 14.898438 C 42.472656 14.890625 42.523438 14.964844 42.441406 15.113281 C 42.261719 15.136719 42.210938 15.066406 42.296875 14.898438 Z M 42.296875 14.898438 "/>
<path style=" stroke:none;fill-rule:evenodd;fill:rgb(6.666667%,6.666667%,6.666667%);fill-opacity:1;" d="M 39.660156 15.1875 C 39.824219 15.152344 39.90625 15.214844 39.898438 15.378906 C 39.820312 15.378906 39.738281 15.378906 39.660156 15.378906 C 39.660156 15.316406 39.660156 15.25 39.660156 15.1875 Z M 39.660156 15.1875 "/>
<use xlink:href="#surface30" mask="url(#mask8)"/>
<path style=" stroke:none;fill-rule:evenodd;fill:rgb(9.411765%,9.411765%,9.411765%);fill-opacity:1;" d="M 41.289062 15.234375 C 41.617188 15.390625 41.785156 15.648438 41.792969 16.003906 C 41.757812 16.210938 41.6875 16.234375 41.578125 16.074219 C 41.644531 15.949219 41.636719 15.832031 41.554688 15.714844 C 41.457031 15.617188 41.363281 15.523438 41.265625 15.425781 C 41.238281 15.359375 41.246094 15.292969 41.289062 15.234375 Z M 41.289062 15.234375 "/>
<path style=" stroke:none;fill-rule:evenodd;fill:rgb(8.235294%,8.235294%,8.235294%);fill-opacity:1;" d="M 38.410156 15.667969 C 38.589844 15.628906 38.699219 15.691406 38.746094 15.859375 C 38.679688 16.046875 38.632812 16.238281 38.605469 16.433594 C 38.800781 16.414062 38.984375 16.445312 39.15625 16.53125 C 39.199219 16.726562 39.257812 16.917969 39.324219 17.105469 C 39.253906 17.265625 39.167969 17.28125 39.058594 17.15625 C 39.015625 17 38.976562 16.851562 38.941406 16.699219 C 38.363281 16.699219 38.21875 16.441406 38.507812 15.929688 C 38.296875 15.945312 38.089844 15.988281 37.882812 16.050781 C 37.835938 16.035156 37.789062 16.019531 37.738281 16.003906 C 37.964844 15.890625 38.1875 15.777344 38.410156 15.667969 Z M 38.410156 15.667969 "/>
<use xlink:href="#surface33" mask="url(#mask9)"/>
<path style=" stroke:none;fill-rule:evenodd;fill:rgb(3.529412%,3.529412%,3.921569%);fill-opacity:1;" d="M 13.796875 16.289062 C 13.855469 16.347656 13.890625 16.429688 13.890625 16.53125 C 13.875 16.609375 13.859375 16.691406 13.84375 16.769531 C 13.816406 16.761719 13.792969 16.746094 13.773438 16.722656 C 13.734375 16.574219 13.746094 16.429688 13.796875 16.289062 Z M 13.796875 16.289062 "/>
<use xlink:href="#surface36" mask="url(#mask10)"/>
<path style=" stroke:none;fill-rule:evenodd;fill:rgb(75.686275%,46.27451%,38.039216%);fill-opacity:1;" d="M 6.789062 16.484375 C 7.015625 16.46875 7.238281 16.484375 7.460938 16.53125 C 7.511719 16.773438 7.488281 17.015625 7.390625 17.25 C 7.035156 18.082031 6.484375 18.746094 5.734375 19.242188 C 5.28125 19.40625 4.816406 19.445312 4.34375 19.363281 C 4.328125 19.117188 4.34375 18.878906 4.390625 18.640625 C 4.992188 18.492188 5.535156 18.230469 6.023438 17.851562 C 6.394531 17.460938 6.652344 17.007812 6.789062 16.484375 Z M 6.789062 16.484375 "/>
<use xlink:href="#surface39" mask="url(#mask11)"/>
<path style=" stroke:none;fill-rule:evenodd;fill:rgb(74.509804%,45.882353%,37.254902%);fill-opacity:1;" d="M 7.894531 16.578125 C 8.617188 16.683594 9.164062 17.054688 9.523438 17.683594 C 8.921875 17.769531 8.347656 17.683594 7.796875 17.417969 C 7.777344 17.398438 7.757812 17.375 7.75 17.347656 C 7.84375 17.097656 7.890625 16.84375 7.894531 16.578125 Z M 7.894531 16.578125 "/>
<path style=" stroke:none;fill-rule:evenodd;fill:rgb(9.019608%,9.019608%,9.019608%);fill-opacity:1;" d="M 11.875 16.722656 C 11.964844 16.757812 11.988281 16.820312 11.949219 16.914062 C 11.867188 17.109375 11.765625 17.285156 11.636719 17.441406 C 11.617188 17.175781 11.695312 16.9375 11.875 16.722656 Z M 11.875 16.722656 "/>
<path style=" stroke:none;fill-rule:evenodd;fill:rgb(8.235294%,7.843137%,8.235294%);fill-opacity:1;" d="M 15.140625 17.15625 C 15.1875 17.15625 15.234375 17.15625 15.28125 17.15625 C 15.277344 17.269531 15.230469 17.367188 15.140625 17.441406 C 15.550781 17.402344 15.894531 17.53125 16.171875 17.828125 C 16.285156 18.046875 16.261719 18.246094 16.097656 18.425781 C 15.878906 18.5 15.65625 18.515625 15.425781 18.472656 C 15.160156 18.359375 14.894531 18.242188 14.636719 18.113281 C 14.074219 18.566406 13.441406 18.886719 12.738281 19.074219 C 12.707031 19.058594 12.675781 19.042969 12.644531 19.027344 C 13.507812 18.734375 14.253906 18.253906 14.875 17.585938 C 14.941406 17.425781 15.027344 17.28125 15.140625 17.15625 Z M 15.140625 17.15625 "/>
<use xlink:href="#surface42" mask="url(#mask12)"/>
<use xlink:href="#surface45" mask="url(#mask13)"/>
<path style=" stroke:none;fill-rule:evenodd;fill:rgb(88.235294%,87.058824%,84.313725%);fill-opacity:1;" d="M 15.28125 17.585938 C 15.640625 17.5625 15.902344 17.703125 16.074219 18.019531 C 16.121094 18.179688 16.066406 18.28125 15.90625 18.332031 C 15.761719 18.363281 15.617188 18.363281 15.476562 18.332031 C 15.222656 18.222656 14.984375 18.09375 14.753906 17.945312 C 14.777344 17.921875 14.804688 17.898438 14.828125 17.875 C 15.066406 17.972656 15.3125 18.019531 15.570312 18.019531 C 15.578125 17.953125 15.5625 17.898438 15.523438 17.851562 C 15.34375 17.808594 15.167969 17.761719 14.996094 17.707031 C 15.089844 17.65625 15.1875 17.617188 15.28125 17.585938 Z M 15.28125 17.585938 "/>
<path style=" stroke:none;fill-rule:evenodd;fill:rgb(75.686275%,46.666667%,38.039216%);fill-opacity:1;" d="M 7.558594 17.730469 C 8.210938 18.054688 8.898438 18.167969 9.621094 18.066406 C 9.695312 18.273438 9.726562 18.492188 9.71875 18.714844 C 9.707031 18.945312 9.691406 19.179688 9.667969 19.410156 C 8.835938 19.421875 8.066406 19.207031 7.367188 18.761719 C 7.257812 18.679688 7.179688 18.574219 7.125 18.449219 C 7.308594 18.230469 7.449219 17.992188 7.558594 17.730469 Z M 7.558594 17.730469 "/>
<use xlink:href="#surface48" mask="url(#mask14)"/>
<path style=" stroke:none;fill-rule:evenodd;fill:rgb(90.980392%,89.411765%,86.666667%);fill-opacity:1;" d="M 45.417969 17.96875 C 45.550781 17.941406 45.628906 17.988281 45.65625 18.113281 C 45.617188 18.304688 45.515625 18.449219 45.34375 18.546875 C 45.273438 18.433594 45.203125 18.320312 45.128906 18.210938 C 45.210938 18.105469 45.304688 18.027344 45.417969 17.96875 Z M 45.417969 17.96875 "/>
<use xlink:href="#surface51" mask="url(#mask15)"/>
<path style=" stroke:none;fill-rule:evenodd;fill:rgb(60%,36.862745%,30.196078%);fill-opacity:1;" d="M 10.003906 17.875 C 10.078125 17.988281 10.109375 18.113281 10.101562 18.257812 C 10.027344 18.144531 9.996094 18.019531 10.003906 17.875 Z M 10.003906 17.875 "/>
<use xlink:href="#surface54" mask="url(#mask16)"/>
<use xlink:href="#surface57" mask="url(#mask17)"/>
<use xlink:href="#surface60" mask="url(#mask18)"/>
<path style=" stroke:none;fill-rule:evenodd;fill:rgb(76.078431%,46.666667%,38.039216%);fill-opacity:1;" d="M 6.835938 18.785156 C 7.3125 19.230469 7.871094 19.527344 8.515625 19.671875 C 8.847656 19.753906 9.183594 19.792969 9.523438 19.792969 C 9.492188 19.96875 9.421875 20.128906 9.308594 20.273438 C 9.011719 20.644531 8.652344 20.929688 8.230469 21.136719 C 7.390625 20.929688 6.789062 20.433594 6.429688 19.648438 C 6.382812 19.523438 6.367188 19.394531 6.382812 19.265625 C 6.578125 19.144531 6.730469 18.984375 6.835938 18.785156 Z M 6.835938 18.785156 "/>
<use xlink:href="#surface63" mask="url(#mask19)"/>
<use xlink:href="#surface66" mask="url(#mask20)"/>
<use xlink:href="#surface69" mask="url(#mask21)"/>
<use xlink:href="#surface72" mask="url(#mask22)"/>
<use xlink:href="#surface75" mask="url(#mask23)"/>
<use xlink:href="#surface78" mask="url(#mask24)"/>
<path style=" stroke:none;fill-rule:evenodd;fill:rgb(66.27451%,65.098039%,63.137255%);fill-opacity:1;" d="M 43.929688 19.21875 C 43.90625 19.285156 43.859375 19.316406 43.785156 19.3125 C 43.808594 19.246094 43.855469 19.214844 43.929688 19.21875 Z M 43.929688 19.21875 "/>
<use xlink:href="#surface81" mask="url(#mask25)"/>
<use xlink:href="#surface84" mask="url(#mask26)"/>
<use xlink:href="#surface87" mask="url(#mask27)"/>
<use xlink:href="#surface90" mask="url(#mask28)"/>
<path style=" stroke:none;fill-rule:evenodd;fill:rgb(81.176471%,80%,77.647059%);fill-opacity:1;" d="M 43.785156 19.3125 C 43.628906 19.488281 43.4375 19.617188 43.210938 19.699219 C 43.386719 19.546875 43.578125 19.417969 43.785156 19.3125 Z M 43.785156 19.3125 "/>
<path style=" stroke:none;fill-rule:evenodd;fill:rgb(65.098039%,22.352941%,17.647059%);fill-opacity:1;" d="M 16.769531 19.457031 C 16.960938 19.542969 17.035156 19.6875 16.988281 19.890625 C 16.703125 20.378906 16.429688 20.875 16.171875 21.378906 C 16.03125 21.578125 15.878906 21.773438 15.714844 21.953125 C 15.492188 21.632812 15.21875 21.359375 14.898438 21.136719 C 15.539062 20.59375 16.160156 20.035156 16.769531 19.457031 Z M 16.769531 19.457031 "/>
<use xlink:href="#surface93" mask="url(#mask29)"/>
<path style=" stroke:none;fill-rule:evenodd;fill:rgb(50.980392%,50.196078%,48.627451%);fill-opacity:1;" d="M 43.210938 19.699219 C 43.1875 19.765625 43.140625 19.796875 43.066406 19.792969 C 43.089844 19.726562 43.136719 19.695312 43.210938 19.699219 Z M 43.210938 19.699219 "/>
<use xlink:href="#surface96" mask="url(#mask30)"/>
<use xlink:href="#surface99" mask="url(#mask31)"/>
<use xlink:href="#surface102" mask="url(#mask32)"/>
<use xlink:href="#surface105" mask="url(#mask33)"/>
<path style=" stroke:none;fill-rule:evenodd;fill:rgb(61.176471%,21.176471%,16.470588%);fill-opacity:1;" d="M 12.980469 20.65625 C 13.082031 20.644531 13.175781 20.660156 13.269531 20.707031 C 13.34375 20.957031 13.390625 21.210938 13.410156 21.472656 C 13.125 21.480469 12.835938 21.472656 12.546875 21.449219 C 12.6875 21.179688 12.832031 20.914062 12.980469 20.65625 Z M 12.980469 20.65625 "/>
<use xlink:href="#surface108" mask="url(#mask34)"/>
<use xlink:href="#surface111" mask="url(#mask35)"/>
<path style=" stroke:none;fill-rule:evenodd;fill:rgb(73.333333%,45.098039%,36.862745%);fill-opacity:1;" d="M 6.695312 20.800781 C 6.988281 20.988281 7.292969 21.164062 7.605469 21.328125 C 7.007812 21.476562 6.414062 21.449219 5.832031 21.257812 C 5.8125 21.242188 5.796875 21.226562 5.78125 21.210938 C 6.136719 21.167969 6.4375 21.035156 6.695312 20.800781 Z M 6.695312 20.800781 "/>
<use xlink:href="#surface114" mask="url(#mask36)"/>
<use xlink:href="#surface117" mask="url(#mask37)"/>
<use xlink:href="#surface120" mask="url(#mask38)"/>
<use xlink:href="#surface123" mask="url(#mask39)"/>
<use xlink:href="#surface126" mask="url(#mask40)"/>
<path style=" stroke:none;fill-rule:evenodd;fill:rgb(61.960784%,56.078431%,58.039216%);fill-opacity:1;" d="M 35.339844 24.542969 C 35.511719 24.605469 35.6875 24.652344 35.867188 24.6875 C 36.078125 25.039062 36.285156 25.390625 36.492188 25.742188 C 36.105469 25.9375 35.707031 26.105469 35.292969 26.246094 C 35.179688 26.28125 35.070312 26.28125 34.957031 26.246094 C 34.714844 25.867188 34.441406 25.507812 34.140625 25.167969 C 34.578125 25.023438 34.976562 24.8125 35.339844 24.542969 Z M 35.339844 24.542969 "/>
<path style=" stroke:none;fill-rule:evenodd;fill:rgb(61.960784%,56.078431%,58.039216%);fill-opacity:1;" d="M 36.058594 24.734375 C 36.128906 24.703125 36.210938 24.6875 36.300781 24.6875 C 37.066406 24.75 37.835938 24.804688 38.605469 24.855469 C 38.945312 25.304688 39.214844 25.792969 39.417969 26.320312 C 38.769531 26.425781 38.128906 26.5625 37.5 26.726562 C 37.253906 26.417969 37.039062 26.089844 36.851562 25.742188 C 36.578125 25.414062 36.3125 25.078125 36.058594 24.734375 Z M 36.058594 24.734375 "/>
<use xlink:href="#surface129" mask="url(#mask41)"/>
<use xlink:href="#surface132" mask="url(#mask42)"/>
<path style=" stroke:none;fill-rule:evenodd;fill:rgb(30.196078%,21.568627%,21.568627%);fill-opacity:1;" d="M 14.082031 26.65625 C 14.785156 26.691406 15.492188 26.707031 16.195312 26.703125 C 15.914062 26.734375 15.628906 26.75 15.332031 26.75 C 14.90625 26.761719 14.488281 26.726562 14.082031 26.65625 Z M 14.082031 26.65625 "/>
<use xlink:href="#surface135" mask="url(#mask43)"/>
<use xlink:href="#surface138" mask="url(#mask44)"/>
<use xlink:href="#surface141" mask="url(#mask45)"/>
<use xlink:href="#surface144" mask="url(#mask46)"/>
<use xlink:href="#surface147" mask="url(#mask47)"/>
<use xlink:href="#surface150" mask="url(#mask48)"/>
</g>
</svg>
