<?xml version="1.0" encoding="UTF-8"?>
<svg xmlns="http://www.w3.org/2000/svg" xmlns:xlink="http://www.w3.org/1999/xlink" width="50pt" height="50pt" viewBox="0 0 50 50" version="1.1">
<defs>
<filter id="alpha" filterUnits="objectBoundingBox" x="0%" y="0%" width="100%" height="100%">
  <feColorMatrix type="matrix" in="SourceGraphic" values="0 0 0 0 1 0 0 0 0 1 0 0 0 0 1 0 0 0 1 0"/>
</filter>
<mask id="mask0">
  <g filter="url(#alpha)">
<rect x="0" y="0" width="50" height="50" style="fill:rgb(0%,0%,0%);fill-opacity:0.976471;stroke:none;"/>
  </g>
</mask>
<clipPath id="clip1">
  <rect width="50" height="50"/>
</clipPath>
<g id="surface6" clip-path="url(#clip1)">
<path style=" stroke:none;fill-rule:evenodd;fill:rgb(66.27451%,23.137255%,17.647059%);fill-opacity:1;" d="M 28.914062 1.164062 C 30.074219 1.1875 31.105469 1.558594 32.007812 2.28125 C 33.375 3.398438 34.308594 4.8125 34.804688 6.515625 C 35.335938 8.429688 35.445312 10.363281 35.140625 12.324219 C 34.824219 14.207031 34.257812 16.007812 33.4375 17.726562 C 33.003906 18.609375 32.550781 19.46875 32.082031 20.308594 C 34.71875 21.117188 37.371094 21.148438 40.027344 20.402344 C 42.585938 19.597656 44.714844 18.171875 46.421875 16.117188 C 48.535156 13.34375 48.75 10.425781 47.070312 7.355469 C 46.386719 6.140625 45.429688 5.203125 44.203125 4.535156 C 43.226562 4.039062 42.195312 3.847656 41.105469 3.960938 C 40.152344 4.117188 39.492188 4.640625 39.125 5.53125 C 38.855469 6.171875 38.832031 6.820312 39.054688 7.476562 C 39.375 8.199219 39.929688 8.605469 40.710938 8.703125 C 40.972656 8.707031 41.199219 8.625 41.394531 8.449219 C 41.484375 8.316406 41.582031 8.1875 41.683594 8.066406 C 41.894531 7.96875 42.074219 8.015625 42.222656 8.199219 C 42.289062 8.328125 42.300781 8.464844 42.246094 8.605469 C 41.921875 9.226562 41.40625 9.546875 40.699219 9.566406 C 39.566406 9.453125 38.753906 8.886719 38.261719 7.859375 C 37.859375 6.664062 38.003906 5.535156 38.695312 4.476562 C 39.363281 3.59375 40.253906 3.109375 41.371094 3.023438 C 42.78125 2.980469 44.074219 3.339844 45.257812 4.105469 C 47.277344 5.5 48.519531 7.40625 48.992188 9.828125 C 49.328125 11.800781 49.007812 13.65625 48.03125 15.398438 C 47.09375 16.984375 45.867188 18.300781 44.347656 19.347656 C 40.71875 21.789062 36.773438 22.488281 32.511719 21.433594 C 32.183594 21.351562 31.859375 21.25 31.542969 21.136719 C 30.402344 22.867188 29.15625 24.515625 27.796875 26.082031 C 25.855469 28.328125 23.753906 30.410156 21.496094 32.332031 C 20.121094 33.460938 18.753906 34.597656 17.390625 35.742188 C 14.148438 38.632812 11.199219 41.78125 8.546875 45.1875 C 7.796875 46.164062 7.042969 47.136719 6.277344 48.105469 C 6.429688 48.089844 6.582031 48.058594 6.734375 48.007812 C 7.007812 47.921875 7.28125 47.824219 7.550781 47.71875 C 8.417969 47.347656 9.292969 46.980469 10.164062 46.617188 C 11.6875 46.101562 13.207031 45.578125 14.726562 45.054688 C 15.3125 44.863281 15.914062 44.734375 16.527344 44.671875 C 16.808594 44.65625 17.085938 44.65625 17.367188 44.671875 C 17.867188 44.664062 18.085938 44.910156 18.027344 45.402344 C 17.988281 45.585938 17.878906 45.699219 17.703125 45.75 C 16.695312 45.832031 15.710938 46.023438 14.75 46.328125 C 13.292969 46.847656 11.832031 47.34375 10.359375 47.816406 C 9.527344 48.167969 8.695312 48.519531 7.859375 48.871094 C 7.121094 49.164062 6.351562 49.328125 5.558594 49.363281 C 5.214844 49.371094 4.886719 49.3125 4.574219 49.183594 C 4.382812 49.074219 4.265625 48.910156 4.226562 48.691406 C 4.132812 48.183594 4.1875 47.6875 4.394531 47.203125 C 4.710938 46.542969 4.984375 45.863281 5.207031 45.164062 C 5.648438 43.691406 5.976562 42.195312 6.191406 40.675781 C 6.460938 38.640625 6.734375 36.609375 7.007812 34.578125 C 7.128906 33.792969 7.28125 33.019531 7.464844 32.25 C 7.707031 32.003906 7.957031 32.003906 8.210938 32.25 C 8.285156 32.375 8.308594 32.511719 8.28125 32.65625 C 8.121094 33.453125 7.984375 34.253906 7.875 35.058594 C 7.660156 36.839844 7.453125 38.625 7.25 40.410156 C 6.988281 42.546875 6.527344 44.636719 5.855469 46.675781 C 7.78125 44.183594 9.820312 41.78125 11.976562 39.472656 C 13.578125 37.800781 15.246094 36.203125 16.984375 34.6875 C 18.105469 33.75 19.230469 32.820312 20.367188 31.902344 C 23.183594 29.527344 25.761719 26.921875 28.109375 24.085938 C 28.96875 23.011719 29.777344 21.90625 30.542969 20.761719 C 29.476562 20.304688 28.507812 19.699219 27.640625 18.9375 C 26.238281 17.664062 25.050781 16.21875 24.074219 14.605469 C 23.3125 13.320312 22.90625 11.925781 22.851562 10.429688 C 22.726562 9.003906 22.828125 7.59375 23.164062 6.203125 C 23.554688 4.582031 24.40625 3.265625 25.71875 2.257812 C 26.671875 1.5625 27.738281 1.199219 28.914062 1.164062 Z M 28.746094 2.148438 C 29.789062 2.144531 30.707031 2.476562 31.503906 3.144531 C 32.542969 4.058594 33.28125 5.175781 33.726562 6.492188 C 34.242188 8.003906 34.425781 9.558594 34.277344 11.148438 C 34.140625 12.566406 33.828125 13.941406 33.339844 15.277344 C 32.75 16.921875 31.984375 18.472656 31.050781 19.933594 C 29.921875 19.460938 28.914062 18.808594 28.023438 17.980469 C 26.53125 16.5625 25.328125 14.933594 24.410156 13.09375 C 24.054688 12.285156 23.855469 11.4375 23.8125 10.550781 C 23.71875 9.292969 23.789062 8.042969 24.027344 6.804688 C 24.335938 5.257812 25.105469 4.003906 26.34375 3.046875 C 27.0625 2.523438 27.863281 2.226562 28.746094 2.148438 Z M 28.746094 2.148438 "/>
</g>
</defs>
<g id="surface1">
<use xlink:href="#surface6" mask="url(#mask0)"/>
</g>
</svg>
