<?xml version="1.0" encoding="UTF-8"?>
<svg xmlns="http://www.w3.org/2000/svg" xmlns:xlink="http://www.w3.org/1999/xlink" width="50pt" height="50pt" viewBox="0 0 50 50" version="1.1">
<defs>
<filter id="alpha" filterUnits="objectBoundingBox" x="0%" y="0%" width="100%" height="100%">
  <feColorMatrix type="matrix" in="SourceGraphic" values="0 0 0 0 1 0 0 0 0 1 0 0 0 0 1 0 0 0 1 0"/>
</filter>
<mask id="mask0">
  <g filter="url(#alpha)">
<rect x="0" y="0" width="50" height="50" style="fill:rgb(0%,0%,0%);fill-opacity:0.988235;stroke:none;"/>
  </g>
</mask>
<clipPath id="clip1">
  <rect width="50" height="50"/>
</clipPath>
<g id="surface6" clip-path="url(#clip1)">
<path style=" stroke:none;fill-rule:evenodd;fill:rgb(0%,0%,0%);fill-opacity:1;" d="M 49.988281 13.957031 C 49.988281 14.117188 49.988281 14.277344 49.988281 14.4375 C 49.757812 14.960938 49.367188 15.148438 48.8125 15.003906 C 48.648438 14.925781 48.496094 14.828125 48.355469 14.714844 C 46.871094 13.253906 45.539062 11.671875 44.359375 9.972656 C 43.789062 9.144531 43.226562 8.3125 42.667969 7.476562 C 42.636719 7.488281 42.609375 7.507812 42.582031 7.523438 C 42.566406 8.484375 42.570312 9.445312 42.59375 10.40625 C 42.609375 11.546875 42.542969 12.683594 42.390625 13.8125 C 42.269531 14.59375 42.125 15.371094 41.957031 16.144531 C 41.664062 16.773438 41.203125 16.925781 40.578125 16.609375 C 40.320312 16.378906 40.199219 16.085938 40.21875 15.734375 C 40.359375 14.597656 40.507812 13.460938 40.664062 12.324219 C 40.777344 11.457031 40.828125 10.585938 40.804688 9.710938 C 40.765625 8.925781 40.714844 8.140625 40.652344 7.355469 C 40.597656 7.328125 40.546875 7.328125 40.496094 7.355469 C 38.824219 10.730469 36.734375 13.804688 34.21875 16.585938 C 33.726562 16.90625 33.28125 16.84375 32.886719 16.40625 C 32.738281 16.171875 32.6875 15.914062 32.742188 15.636719 C 32.78125 15.484375 32.84375 15.339844 32.933594 15.207031 C 36.117188 11.632812 38.566406 7.59375 40.277344 3.085938 C 40.46875 2.75 40.746094 2.523438 41.105469 2.398438 C 41.324219 2.355469 41.523438 2.394531 41.707031 2.519531 C 41.789062 2.605469 41.875 2.6875 41.957031 2.773438 C 42.953125 4.445312 43.988281 6.09375 45.054688 7.71875 C 46.144531 9.34375 47.34375 10.886719 48.65625 12.351562 C 49.046875 12.75 49.433594 13.160156 49.808594 13.574219 C 49.875 13.703125 49.9375 13.828125 49.988281 13.957031 Z M 49.988281 13.957031 "/>
</g>
<mask id="mask1">
  <g filter="url(#alpha)">
<rect x="0" y="0" width="50" height="50" style="fill:rgb(0%,0%,0%);fill-opacity:0.984314;stroke:none;"/>
  </g>
</mask>
<clipPath id="clip2">
  <rect width="50" height="50"/>
</clipPath>
<g id="surface9" clip-path="url(#clip2)">
<path style=" stroke:none;fill-rule:evenodd;fill:rgb(0%,0%,0%);fill-opacity:1;" d="M 39.113281 20.703125 C 39.511719 20.664062 39.84375 20.792969 40.109375 21.085938 C 40.234375 21.320312 40.277344 21.566406 40.230469 21.832031 C 40.207031 21.960938 40.175781 22.089844 40.132812 22.214844 C 39.363281 24.132812 38.546875 26.027344 37.6875 27.90625 C 37.359375 28.464844 37.003906 29.007812 36.628906 29.535156 C 36.398438 29.726562 36.15625 29.894531 35.898438 30.039062 C 35.742188 29.941406 35.582031 29.851562 35.417969 29.765625 C 35.167969 29.636719 35.035156 29.433594 35.023438 29.152344 C 35 28.964844 35.015625 28.78125 35.070312 28.601562 C 35.734375 27.703125 36.261719 26.726562 36.652344 25.671875 C 37.203125 24.125 37.832031 22.613281 38.550781 21.136719 C 38.675781 20.90625 38.863281 20.761719 39.113281 20.703125 Z M 39.113281 20.703125 "/>
</g>
<mask id="mask2">
  <g filter="url(#alpha)">
<rect x="0" y="0" width="50" height="50" style="fill:rgb(0%,0%,0%);fill-opacity:0.984314;stroke:none;"/>
  </g>
</mask>
<clipPath id="clip3">
  <rect width="50" height="50"/>
</clipPath>
<g id="surface12" clip-path="url(#clip3)">
<path style=" stroke:none;fill-rule:evenodd;fill:rgb(0%,0%,0%);fill-opacity:1;" d="M 32.25 33.882812 C 33.117188 33.800781 33.535156 34.191406 33.507812 35.058594 C 33.296875 35.289062 33.066406 35.5 32.824219 35.695312 C 32.609375 35.785156 32.402344 35.886719 32.199219 36.003906 C 31.152344 36.96875 30.097656 37.917969 29.03125 38.863281 C 28.355469 39.402344 27.660156 39.914062 26.945312 40.398438 C 26.320312 40.550781 25.898438 40.324219 25.683594 39.714844 C 25.632812 39.433594 25.695312 39.1875 25.875 38.96875 C 26.53125 38.414062 27.207031 37.878906 27.90625 37.375 C 28.996094 36.515625 30.019531 35.578125 30.976562 34.566406 C 31.335938 34.210938 31.757812 33.984375 32.25 33.882812 Z M 32.25 33.882812 "/>
</g>
<mask id="mask3">
  <g filter="url(#alpha)">
<rect x="0" y="0" width="50" height="50" style="fill:rgb(0%,0%,0%);fill-opacity:0.984314;stroke:none;"/>
  </g>
</mask>
<clipPath id="clip4">
  <rect width="50" height="50"/>
</clipPath>
<g id="surface15" clip-path="url(#clip4)">
<path style=" stroke:none;fill-rule:evenodd;fill:rgb(0%,0%,0%);fill-opacity:1;" d="M 21.976562 41.632812 C 22.664062 41.613281 23.066406 41.941406 23.1875 42.617188 C 23.203125 42.722656 23.203125 42.828125 23.1875 42.929688 C 23.0625 43.070312 22.941406 43.210938 22.816406 43.351562 C 22.742188 43.410156 22.664062 43.457031 22.574219 43.496094 C 20.28125 44.386719 17.945312 45.144531 15.566406 45.773438 C 14.832031 45.910156 14.410156 45.609375 14.292969 44.875 C 14.351562 44.445312 14.582031 44.15625 14.992188 44 C 17.316406 43.191406 19.644531 42.40625 21.976562 41.632812 Z M 21.976562 41.632812 "/>
</g>
<mask id="mask4">
  <g filter="url(#alpha)">
<rect x="0" y="0" width="50" height="50" style="fill:rgb(0%,0%,0%);fill-opacity:0.988235;stroke:none;"/>
  </g>
</mask>
<clipPath id="clip5">
  <rect width="50" height="50"/>
</clipPath>
<g id="surface18" clip-path="url(#clip5)">
<path style=" stroke:none;fill-rule:evenodd;fill:rgb(0%,0%,0%);fill-opacity:1;" d="M 8.582031 44.875 C 8.988281 45 9.386719 45.136719 9.78125 45.296875 C 10 45.378906 10.179688 45.511719 10.320312 45.691406 C 10.496094 46.148438 10.402344 46.546875 10.046875 46.878906 C 9.972656 46.933594 9.890625 46.972656 9.804688 47 C 9.605469 47.035156 9.40625 47.042969 9.207031 47.023438 C 8.863281 46.96875 8.519531 46.933594 8.171875 46.914062 C 6.21875 47.113281 4.269531 47.324219 2.316406 47.539062 C 1.972656 47.550781 1.664062 47.457031 1.390625 47.25 C 1.105469 46.855469 1.089844 46.449219 1.34375 46.027344 C 1.453125 45.890625 1.59375 45.796875 1.765625 45.75 C 4.019531 45.492188 6.277344 45.242188 8.535156 45.007812 C 8.554688 44.964844 8.574219 44.921875 8.582031 44.875 Z M 8.582031 44.875 "/>
</g>
</defs>
<g id="surface1">
<use xlink:href="#surface6" mask="url(#mask0)"/>
<use xlink:href="#surface9" mask="url(#mask1)"/>
<use xlink:href="#surface12" mask="url(#mask2)"/>
<use xlink:href="#surface15" mask="url(#mask3)"/>
<use xlink:href="#surface18" mask="url(#mask4)"/>
</g>
</svg>
