<?xml version="1.0" encoding="UTF-8"?>
<svg xmlns="http://www.w3.org/2000/svg" xmlns:xlink="http://www.w3.org/1999/xlink" width="50pt" height="50pt" viewBox="0 0 50 50" version="1.1">
<defs>
<filter id="alpha" filterUnits="objectBoundingBox" x="0%" y="0%" width="100%" height="100%">
  <feColorMatrix type="matrix" in="SourceGraphic" values="0 0 0 0 1 0 0 0 0 1 0 0 0 0 1 0 0 0 1 0"/>
</filter>
<mask id="mask0">
  <g filter="url(#alpha)">
<rect x="0" y="0" width="50" height="50" style="fill:rgb(0%,0%,0%);fill-opacity:0.972549;stroke:none;"/>
  </g>
</mask>
<clipPath id="clip1">
  <rect width="50" height="50"/>
</clipPath>
<g id="surface6" clip-path="url(#clip1)">
<path style=" stroke:none;fill-rule:evenodd;fill:rgb(93.72549%,92.54902%,89.803922%);fill-opacity:1;" d="M 31.453125 27.855469 C 31.523438 27.261719 31.601562 26.667969 31.695312 26.078125 C 33.652344 26.082031 35.605469 25.964844 37.546875 25.71875 C 39.742188 25.4375 41.871094 24.894531 43.929688 24.089844 C 44.984375 23.628906 45.921875 22.996094 46.738281 22.191406 C 47.726562 20.976562 48.125 19.585938 47.9375 18.019531 C 47.554688 15.988281 46.472656 14.445312 44.699219 13.386719 C 42.375 12.074219 39.925781 11.761719 37.355469 12.453125 C 37.339844 12.421875 37.324219 12.386719 37.308594 12.355469 C 37.863281 10.421875 37.585938 8.632812 36.46875 6.980469 C 35.359375 5.679688 33.945312 4.96875 32.222656 4.847656 C 29.824219 4.617188 27.617188 5.144531 25.601562 6.429688 C 24.667969 7.074219 23.9375 7.898438 23.417969 8.902344 C 23.296875 8.628906 23.175781 8.355469 23.054688 8.085938 C 25.570312 5.28125 28.707031 4.121094 32.460938 4.605469 C 35.503906 5.234375 37.351562 7.066406 38.003906 10.101562 C 38.042969 10.5 38.085938 10.898438 38.125 11.300781 C 40.699219 10.933594 43.050781 11.484375 45.175781 12.957031 C 47.765625 15.011719 48.796875 17.675781 48.273438 20.945312 C 47.828125 22.65625 46.894531 24.023438 45.464844 25.046875 C 43.84375 26.117188 42.066406 26.820312 40.140625 27.160156 C 38.949219 27.386719 37.75 27.546875 36.539062 27.640625 C 34.847656 27.75 33.148438 27.820312 31.453125 27.855469 Z M 31.453125 27.855469 "/>
</g>
<mask id="mask1">
  <g filter="url(#alpha)">
<rect x="0" y="0" width="50" height="50" style="fill:rgb(0%,0%,0%);fill-opacity:0.992157;stroke:none;"/>
  </g>
</mask>
<clipPath id="clip2">
  <rect width="50" height="50"/>
</clipPath>
<g id="surface9" clip-path="url(#clip2)">
<path style=" stroke:none;fill-rule:evenodd;fill:rgb(7.843137%,14.509804%,15.294118%);fill-opacity:1;" d="M 31.453125 27.855469 C 31.277344 28.996094 31.070312 30.132812 30.832031 31.261719 C 30.703125 31.628906 30.621094 32.015625 30.589844 32.414062 C 32.527344 32.402344 34.460938 32.417969 36.394531 32.460938 C 36.863281 32.480469 37.324219 32.519531 37.789062 32.582031 C 38.046875 32.738281 38.117188 32.953125 38.003906 33.230469 C 36.351562 34.648438 34.679688 36.039062 32.988281 37.402344 C 32.917969 37.402344 32.867188 37.433594 32.84375 37.5 C 32.84375 37.53125 32.828125 37.546875 32.796875 37.546875 C 32.691406 37.574219 32.609375 37.640625 32.558594 37.738281 C 30.28125 39.519531 27.976562 41.265625 25.648438 42.96875 C 25.449219 43.152344 25.226562 43.292969 24.976562 43.402344 C 24.859375 43.375 24.746094 43.335938 24.640625 43.28125 C 24.390625 43.054688 24.132812 42.839844 23.871094 42.632812 C 23.085938 41.945312 22.289062 41.273438 21.472656 40.617188 C 18.753906 38.304688 16.074219 35.9375 13.4375 33.515625 C 13.261719 33.25 13.304688 33.019531 13.554688 32.820312 C 14.144531 32.738281 14.734375 32.683594 15.332031 32.652344 C 16.976562 32.574219 18.625 32.519531 20.273438 32.484375 C 20.242188 32.25 20.210938 32.015625 20.175781 31.789062 C 20.03125 30.28125 19.777344 28.796875 19.410156 27.328125 C 19.328125 26.902344 19.214844 26.488281 19.074219 26.078125 C 16.449219 25.945312 13.824219 25.777344 11.203125 25.574219 C 10.199219 25.476562 9.207031 25.308594 8.230469 25.070312 C 5.992188 24.523438 4.5 23.164062 3.742188 20.992188 C 3.253906 18.820312 3.855469 17.011719 5.542969 15.570312 C 6.582031 14.765625 7.765625 14.347656 9.09375 14.324219 C 9.507812 14.316406 9.914062 14.363281 10.316406 14.46875 C 10.339844 14.453125 10.363281 14.433594 10.390625 14.417969 C 10.054688 13.273438 10.070312 12.136719 10.4375 11.011719 C 11.140625 9.375 12.273438 8.117188 13.84375 7.246094 C 15.582031 6.246094 17.457031 5.824219 19.457031 5.972656 C 20.996094 6.128906 22.195312 6.832031 23.054688 8.085938 C 23.175781 8.355469 23.296875 8.628906 23.417969 8.902344 C 23.9375 7.898438 24.667969 7.074219 25.601562 6.429688 C 27.617188 5.144531 29.824219 4.617188 32.222656 4.847656 C 33.945312 4.96875 35.359375 5.679688 36.46875 6.980469 C 37.585938 8.632812 37.863281 10.421875 37.308594 12.355469 C 37.324219 12.386719 37.339844 12.421875 37.355469 12.453125 C 39.925781 11.761719 42.375 12.074219 44.699219 13.386719 C 46.472656 14.445312 47.554688 15.988281 47.9375 18.019531 C 48.125 19.585938 47.726562 20.976562 46.738281 22.191406 C 45.921875 22.996094 44.984375 23.628906 43.929688 24.089844 C 41.871094 24.894531 39.742188 25.4375 37.546875 25.71875 C 35.605469 25.964844 33.652344 26.082031 31.695312 26.078125 C 31.601562 26.667969 31.523438 27.261719 31.453125 27.855469 Z M 20.128906 27.375 C 20.445312 27.433594 20.765625 27.464844 21.089844 27.472656 C 20.816406 27.574219 20.546875 27.683594 20.273438 27.808594 C 20.234375 27.660156 20.1875 27.515625 20.128906 27.375 Z M 20.128906 27.375 "/>
</g>
<mask id="mask2">
  <g filter="url(#alpha)">
<rect x="0" y="0" width="50" height="50" style="fill:rgb(0%,0%,0%);fill-opacity:0.937255;stroke:none;"/>
  </g>
</mask>
<clipPath id="clip3">
  <rect width="50" height="50"/>
</clipPath>
<g id="surface12" clip-path="url(#clip3)">
<path style=" stroke:none;fill-rule:evenodd;fill:rgb(93.72549%,92.156863%,89.411765%);fill-opacity:1;" d="M 19.457031 5.972656 C 17.457031 5.824219 15.582031 6.246094 13.84375 7.246094 C 12.273438 8.117188 11.140625 9.375 10.4375 11.011719 C 10.820312 9.519531 11.601562 8.277344 12.789062 7.292969 C 14.777344 5.648438 17 5.210938 19.457031 5.972656 Z M 19.457031 5.972656 "/>
</g>
<mask id="mask3">
  <g filter="url(#alpha)">
<rect x="0" y="0" width="50" height="50" style="fill:rgb(0%,0%,0%);fill-opacity:0.67451;stroke:none;"/>
  </g>
</mask>
<clipPath id="clip4">
  <rect width="50" height="50"/>
</clipPath>
<g id="surface15" clip-path="url(#clip4)">
<path style=" stroke:none;fill-rule:evenodd;fill:rgb(89.019608%,87.843137%,85.490196%);fill-opacity:1;" d="M 9.09375 14.324219 C 7.765625 14.347656 6.582031 14.765625 5.542969 15.570312 C 6.535156 14.609375 7.71875 14.195312 9.09375 14.324219 Z M 9.09375 14.324219 "/>
</g>
<mask id="mask4">
  <g filter="url(#alpha)">
<rect x="0" y="0" width="50" height="50" style="fill:rgb(0%,0%,0%);fill-opacity:0.968627;stroke:none;"/>
  </g>
</mask>
<clipPath id="clip5">
  <rect width="50" height="50"/>
</clipPath>
<g id="surface18" clip-path="url(#clip5)">
<path style=" stroke:none;fill-rule:evenodd;fill:rgb(94.117647%,92.54902%,89.803922%);fill-opacity:1;" d="M 8.230469 25.070312 C 9.207031 25.308594 10.199219 25.476562 11.203125 25.574219 C 13.824219 25.777344 16.449219 25.945312 19.074219 26.078125 C 19.214844 26.488281 19.328125 26.902344 19.410156 27.328125 C 16.925781 27.019531 14.445312 26.660156 11.972656 26.246094 C 10.671875 26.003906 9.425781 25.609375 8.230469 25.070312 Z M 8.230469 25.070312 "/>
</g>
<mask id="mask5">
  <g filter="url(#alpha)">
<rect x="0" y="0" width="50" height="50" style="fill:rgb(0%,0%,0%);fill-opacity:0.996078;stroke:none;"/>
  </g>
</mask>
<clipPath id="clip6">
  <rect width="50" height="50"/>
</clipPath>
<g id="surface21" clip-path="url(#clip6)">
<path style=" stroke:none;fill-rule:evenodd;fill:rgb(94.117647%,92.54902%,90.196078%);fill-opacity:1;" d="M 20.847656 26.078125 C 21.34375 26.078125 21.839844 26.078125 22.335938 26.078125 C 25.265625 26.113281 28.191406 26.144531 31.117188 26.175781 C 30.992188 26.621094 30.882812 27.066406 30.78125 27.519531 C 30.539062 27.175781 30.222656 26.925781 29.824219 26.777344 C 27.496094 26.625 25.175781 26.722656 22.863281 27.0625 C 22.269531 27.199219 21.679688 27.335938 21.089844 27.472656 C 20.765625 27.464844 20.445312 27.433594 20.128906 27.375 C 19.96875 26.960938 19.808594 26.542969 19.648438 26.128906 C 20.039062 26.078125 20.441406 26.0625 20.847656 26.078125 Z M 20.847656 26.078125 "/>
</g>
<mask id="mask6">
  <g filter="url(#alpha)">
<rect x="0" y="0" width="50" height="50" style="fill:rgb(0%,0%,0%);fill-opacity:0.976471;stroke:none;"/>
  </g>
</mask>
<clipPath id="clip7">
  <rect width="50" height="50"/>
</clipPath>
<g id="surface24" clip-path="url(#clip7)">
<path style=" stroke:none;fill-rule:evenodd;fill:rgb(57.254902%,60.392157%,70.588235%);fill-opacity:1;" d="M 36.394531 32.460938 C 34.460938 32.417969 32.527344 32.402344 30.589844 32.414062 C 30.621094 32.015625 30.703125 31.628906 30.832031 31.261719 C 31.726562 31.25 32.621094 31.234375 33.515625 31.214844 C 34.015625 31.210938 34.511719 31.234375 35.003906 31.285156 C 35.636719 31.480469 36.101562 31.871094 36.394531 32.460938 Z M 36.394531 32.460938 "/>
</g>
<mask id="mask7">
  <g filter="url(#alpha)">
<rect x="0" y="0" width="50" height="50" style="fill:rgb(0%,0%,0%);fill-opacity:0.972549;stroke:none;"/>
  </g>
</mask>
<clipPath id="clip8">
  <rect width="50" height="50"/>
</clipPath>
<g id="surface27" clip-path="url(#clip8)">
<path style=" stroke:none;fill-rule:evenodd;fill:rgb(57.647059%,60.784314%,70.980392%);fill-opacity:1;" d="M 20.175781 31.789062 C 20.210938 32.015625 20.242188 32.25 20.273438 32.484375 C 18.625 32.519531 16.976562 32.574219 15.332031 32.652344 C 15.660156 32.136719 16.121094 31.808594 16.722656 31.667969 C 17.875 31.65625 19.027344 31.695312 20.175781 31.789062 Z M 20.175781 31.789062 "/>
</g>
<mask id="mask8">
  <g filter="url(#alpha)">
<rect x="0" y="0" width="50" height="50" style="fill:rgb(0%,0%,0%);fill-opacity:0.0627451;stroke:none;"/>
  </g>
</mask>
<clipPath id="clip9">
  <rect width="50" height="50"/>
</clipPath>
<g id="surface30" clip-path="url(#clip9)">
<path style=" stroke:none;fill-rule:evenodd;fill:rgb(53.333333%,56.470588%,65.882353%);fill-opacity:1;" d="M 32.988281 37.402344 C 32.964844 37.472656 32.917969 37.503906 32.84375 37.5 C 32.867188 37.433594 32.917969 37.402344 32.988281 37.402344 Z M 32.988281 37.402344 "/>
</g>
<mask id="mask9">
  <g filter="url(#alpha)">
<rect x="0" y="0" width="50" height="50" style="fill:rgb(0%,0%,0%);fill-opacity:0.0627451;stroke:none;"/>
  </g>
</mask>
<clipPath id="clip10">
  <rect width="50" height="50"/>
</clipPath>
<g id="surface33" clip-path="url(#clip10)">
<path style=" stroke:none;fill-rule:evenodd;fill:rgb(54.117647%,57.647059%,67.058824%);fill-opacity:1;" d="M 32.796875 37.546875 C 32.746094 37.648438 32.664062 37.710938 32.558594 37.738281 C 32.609375 37.640625 32.691406 37.574219 32.796875 37.546875 Z M 32.796875 37.546875 "/>
</g>
<mask id="mask10">
  <g filter="url(#alpha)">
<rect x="0" y="0" width="50" height="50" style="fill:rgb(0%,0%,0%);fill-opacity:0.898039;stroke:none;"/>
  </g>
</mask>
<clipPath id="clip11">
  <rect width="50" height="50"/>
</clipPath>
<g id="surface36" clip-path="url(#clip11)">
<path style=" stroke:none;fill-rule:evenodd;fill:rgb(56.470588%,59.607843%,69.803922%);fill-opacity:1;" d="M 32.558594 37.738281 C 30.875 39.140625 29.230469 40.585938 27.613281 42.082031 C 27.03125 42.535156 26.375 42.832031 25.648438 42.96875 C 27.976562 41.265625 30.28125 39.519531 32.558594 37.738281 Z M 32.558594 37.738281 "/>
</g>
<mask id="mask11">
  <g filter="url(#alpha)">
<rect x="0" y="0" width="50" height="50" style="fill:rgb(0%,0%,0%);fill-opacity:0.752941;stroke:none;"/>
  </g>
</mask>
<clipPath id="clip12">
  <rect width="50" height="50"/>
</clipPath>
<g id="surface39" clip-path="url(#clip12)">
<path style=" stroke:none;fill-rule:evenodd;fill:rgb(54.901961%,58.431373%,67.843137%);fill-opacity:1;" d="M 21.472656 40.617188 C 22.289062 41.273438 23.085938 41.945312 23.871094 42.632812 C 23.5625 42.488281 23.273438 42.304688 23.007812 42.082031 C 22.488281 41.601562 21.976562 41.113281 21.472656 40.617188 Z M 21.472656 40.617188 "/>
</g>
</defs>
<g id="surface1">
<use xlink:href="#surface6" mask="url(#mask0)"/>
<use xlink:href="#surface9" mask="url(#mask1)"/>
<use xlink:href="#surface12" mask="url(#mask2)"/>
<path style=" stroke:none;fill-rule:evenodd;fill:rgb(94.509804%,92.941176%,90.196078%);fill-opacity:1;" d="M 30.351562 5.636719 C 31.449219 5.5625 32.519531 5.695312 33.566406 6.046875 C 35.363281 6.742188 36.394531 8.042969 36.660156 9.957031 C 36.691406 10.355469 36.691406 10.757812 36.660156 11.15625 C 36.597656 11.75 36.492188 12.332031 36.347656 12.90625 C 36.332031 13.355469 36.539062 13.546875 36.972656 13.484375 C 39.683594 12.402344 42.226562 12.707031 44.601562 14.394531 C 46.183594 15.652344 46.960938 17.289062 46.929688 19.3125 C 46.707031 20.878906 45.914062 22.054688 44.554688 22.839844 C 42.957031 23.726562 41.261719 24.351562 39.46875 24.710938 C 37.222656 25.097656 34.957031 25.296875 32.675781 25.3125 C 29.121094 25.316406 25.5625 25.308594 22 25.289062 C 18.296875 25.242188 14.601562 25.035156 10.917969 24.664062 C 9.53125 24.503906 8.203125 24.132812 6.933594 23.558594 C 4.902344 22.375 4.140625 20.625 4.65625 18.304688 C 5.132812 16.835938 6.101562 15.835938 7.558594 15.308594 C 8.125 15.101562 8.707031 15.015625 9.308594 15.042969 C 9.65625 15.042969 10 15.066406 10.339844 15.113281 C 10.550781 15.148438 10.742188 15.222656 10.917969 15.332031 C 11.238281 15.351562 11.390625 15.210938 11.371094 14.898438 C 11.203125 14.828125 11.113281 14.699219 11.109375 14.515625 C 10.824219 13.066406 11.058594 11.707031 11.804688 10.4375 C 13.039062 8.53125 14.773438 7.339844 17.011719 6.863281 C 18.933594 6.480469 20.574219 6.984375 21.929688 8.375 C 22.472656 9.042969 22.863281 9.792969 23.105469 10.628906 C 23.277344 10.789062 23.46875 10.8125 23.679688 10.699219 C 23.710938 10.664062 23.734375 10.625 23.753906 10.582031 C 23.769531 10.328125 23.746094 10.082031 23.679688 9.835938 C 24.820312 7.785156 26.53125 6.476562 28.816406 5.902344 C 29.328125 5.792969 29.839844 5.703125 30.351562 5.636719 Z M 30.351562 5.636719 "/>
<path style=" stroke:none;fill-rule:evenodd;fill:rgb(9.019608%,15.294118%,16.078431%);fill-opacity:1;" d="M 32.703125 6.789062 C 33.894531 6.910156 34.734375 7.519531 35.222656 8.613281 C 35.355469 8.898438 35.3125 9.144531 35.101562 9.355469 C 35.035156 9.390625 34.972656 9.390625 34.910156 9.355469 C 34.703125 8.886719 34.472656 8.433594 34.214844 7.988281 C 33.804688 7.542969 33.300781 7.261719 32.703125 7.148438 C 32.644531 7.03125 32.644531 6.910156 32.703125 6.789062 Z M 32.703125 6.789062 "/>
<path style=" stroke:none;fill-rule:evenodd;fill:rgb(8.627451%,15.294118%,16.078431%);fill-opacity:1;" d="M 33.085938 8.039062 C 33.25 8.015625 33.390625 8.054688 33.515625 8.15625 C 34.257812 8.757812 34.5 9.507812 34.238281 10.414062 C 34.085938 10.460938 33.949219 10.4375 33.828125 10.339844 C 33.921875 9.515625 33.648438 8.84375 33.011719 8.324219 C 32.976562 8.214844 33 8.117188 33.085938 8.039062 Z M 33.085938 8.039062 "/>
<use xlink:href="#surface15" mask="url(#mask3)"/>
<path style=" stroke:none;fill-rule:evenodd;fill:rgb(9.803922%,16.078431%,16.470588%);fill-opacity:1;" d="M 5.972656 20.320312 C 6.054688 20.3125 6.125 20.328125 6.191406 20.371094 C 6.394531 21.191406 6.851562 21.820312 7.558594 22.265625 C 7.765625 22.359375 7.964844 22.464844 8.15625 22.578125 C 8.183594 22.902344 8.039062 23.011719 7.726562 22.914062 C 6.550781 22.4375 5.96875 21.570312 5.972656 20.320312 Z M 5.972656 20.320312 "/>
<path style=" stroke:none;fill-rule:evenodd;fill:rgb(9.019608%,15.294118%,16.078431%);fill-opacity:1;" d="M 7.414062 20.417969 C 7.5 20.402344 7.578125 20.417969 7.652344 20.464844 C 8.144531 21.121094 8.742188 21.648438 9.453125 22.050781 C 9.515625 22.386719 9.378906 22.503906 9.046875 22.410156 C 8.277344 22 7.71875 21.402344 7.367188 20.609375 C 7.382812 20.542969 7.398438 20.480469 7.414062 20.417969 Z M 7.414062 20.417969 "/>
<use xlink:href="#surface18" mask="url(#mask4)"/>
<path style=" stroke:none;fill-rule:evenodd;fill:rgb(51.372549%,52.941176%,52.156863%);fill-opacity:1;" d="M 20.847656 26.078125 C 20.441406 26.0625 20.039062 26.078125 19.648438 26.128906 C 19.625 26.125 19.609375 26.109375 19.601562 26.078125 C 20.023438 26.015625 20.441406 26.015625 20.847656 26.078125 Z M 20.847656 26.078125 "/>
<use xlink:href="#surface21" mask="url(#mask5)"/>
<path style=" stroke:none;fill-rule:evenodd;fill:rgb(36.862745%,40%,39.607843%);fill-opacity:1;" d="M 22.335938 26.078125 C 25.28125 26.0625 28.222656 26.078125 31.167969 26.128906 C 31.160156 26.15625 31.144531 26.171875 31.117188 26.175781 C 28.191406 26.144531 25.265625 26.113281 22.335938 26.078125 Z M 22.335938 26.078125 "/>
<path style=" stroke:none;fill-rule:evenodd;fill:rgb(57.647059%,60.784314%,70.980392%);fill-opacity:1;" d="M 30.78125 27.519531 C 30.347656 29.296875 29.964844 31.089844 29.628906 32.894531 C 29.664062 33.148438 29.804688 33.292969 30.0625 33.324219 C 30.964844 33.253906 31.867188 33.222656 32.773438 33.230469 C 34.015625 33.214844 35.253906 33.261719 36.492188 33.375 C 33.800781 35.6875 31.035156 37.902344 28.191406 40.019531 C 27.53125 40.664062 26.824219 41.257812 26.078125 41.792969 C 25.574219 42.089844 25.046875 42.136719 24.496094 41.9375 C 24.007812 41.703125 23.542969 41.433594 23.105469 41.121094 C 21.925781 40.136719 20.808594 39.082031 19.746094 37.957031 C 18.140625 36.558594 16.546875 35.140625 14.972656 33.710938 C 14.949219 33.664062 14.941406 33.617188 14.945312 33.566406 C 16.921875 33.46875 18.890625 33.269531 20.847656 32.964844 C 20.875 32.941406 20.898438 32.917969 20.921875 32.894531 C 20.996094 32.382812 21.011719 31.871094 20.96875 31.359375 C 20.851562 30.148438 20.617188 28.964844 20.273438 27.808594 C 20.546875 27.683594 20.816406 27.574219 21.089844 27.472656 C 21.679688 27.335938 22.269531 27.199219 22.863281 27.0625 C 25.175781 26.722656 27.496094 26.625 29.824219 26.777344 C 30.222656 26.925781 30.539062 27.175781 30.78125 27.519531 Z M 30.78125 27.519531 "/>
<use xlink:href="#surface24" mask="url(#mask6)"/>
<use xlink:href="#surface27" mask="url(#mask7)"/>
<path style=" stroke:none;fill-rule:evenodd;fill:rgb(8.235294%,14.901961%,16.078431%);fill-opacity:1;" d="M 20.035156 37.019531 C 20.097656 37.011719 20.164062 37.019531 20.226562 37.042969 C 21.035156 37.792969 21.875 38.503906 22.746094 39.179688 C 22.792969 39.4375 22.6875 39.554688 22.433594 39.539062 C 21.503906 38.914062 20.679688 38.171875 19.960938 37.308594 C 19.925781 37.195312 19.949219 37.101562 20.035156 37.019531 Z M 20.035156 37.019531 "/>
<path style=" stroke:none;fill-rule:evenodd;fill:rgb(8.235294%,14.901961%,15.686275%);fill-opacity:1;" d="M 21.519531 37.164062 C 21.609375 37.164062 21.6875 37.1875 21.761719 37.234375 C 22.535156 37.882812 23.3125 38.53125 24.089844 39.179688 C 24.152344 39.386719 24.082031 39.515625 23.871094 39.5625 C 23.726562 39.523438 23.597656 39.449219 23.488281 39.347656 C 22.835938 38.664062 22.15625 38.015625 21.449219 37.402344 C 21.417969 37.308594 21.445312 37.226562 21.519531 37.164062 Z M 21.519531 37.164062 "/>
<use xlink:href="#surface30" mask="url(#mask8)"/>
<use xlink:href="#surface33" mask="url(#mask9)"/>
<use xlink:href="#surface36" mask="url(#mask10)"/>
<use xlink:href="#surface39" mask="url(#mask11)"/>
</g>
</svg>
