<?xml version="1.0" encoding="UTF-8"?>
<svg xmlns="http://www.w3.org/2000/svg" xmlns:xlink="http://www.w3.org/1999/xlink" width="50pt" height="50pt" viewBox="0 0 50 50" version="1.1">
<defs>
<filter id="alpha" filterUnits="objectBoundingBox" x="0%" y="0%" width="100%" height="100%">
  <feColorMatrix type="matrix" in="SourceGraphic" values="0 0 0 0 1 0 0 0 0 1 0 0 0 0 1 0 0 0 1 0"/>
</filter>
<mask id="mask0">
  <g filter="url(#alpha)">
<rect x="0" y="0" width="50" height="50" style="fill:rgb(0%,0%,0%);fill-opacity:0.996078;stroke:none;"/>
  </g>
</mask>
<clipPath id="clip1">
  <rect width="50" height="50"/>
</clipPath>
<g id="surface6" clip-path="url(#clip1)">
<path style=" stroke:none;fill-rule:evenodd;fill:rgb(66.666667%,23.137255%,18.039216%);fill-opacity:1;" d="M 24.160156 3.566406 C 27.960938 3.570312 31.488281 4.539062 34.746094 6.480469 C 36.042969 7.265625 37.296875 8.105469 38.515625 9 C 39.570312 9.792969 40.625 10.585938 41.683594 11.378906 C 44.453125 13.582031 46.425781 16.363281 47.601562 19.71875 C 50.007812 26.59375 48.960938 32.875 44.457031 38.5625 C 42.164062 41.300781 39.449219 43.507812 36.304688 45.175781 C 30.992188 47.980469 25.390625 48.765625 19.503906 47.527344 C 13.355469 46.101562 8.46875 42.828125 4.847656 37.699219 C 2.832031 34.753906 1.59375 31.503906 1.128906 27.953125 C 0.820312 25.140625 1.171875 22.410156 2.183594 19.765625 C 2.785156 18.199219 3.511719 16.695312 4.367188 15.253906 C 4.976562 14.226562 5.621094 13.226562 6.3125 12.253906 C 9.277344 8.597656 13.007812 6.046875 17.511719 4.609375 C 19.679688 3.933594 21.894531 3.585938 24.160156 3.566406 Z M 17.582031 7.980469 C 16.421875 8.488281 15.269531 9.027344 14.125 9.589844 C 15.214844 8.925781 16.367188 8.390625 17.582031 7.980469 Z M 17.582031 7.980469 "/>
</g>
</defs>
<g id="surface1">
<use xlink:href="#surface6" mask="url(#mask0)"/>
<path style=" stroke:none;fill-rule:evenodd;fill:rgb(99.607843%,99.607843%,99.607843%);fill-opacity:1;" d="M 22.984375 23.128906 C 21.070312 23.179688 19.160156 23.234375 17.246094 23.285156 C 16.484375 23.328125 15.722656 23.382812 14.964844 23.453125 C 16.292969 22.238281 17.554688 20.960938 18.746094 19.625 C 19.140625 19.121094 19.226562 18.570312 19.011719 17.96875 C 18.609375 17.113281 17.949219 16.773438 17.03125 16.945312 C 16.894531 17.007812 16.765625 17.078125 16.648438 17.164062 C 15.664062 18.21875 14.65625 19.25 13.621094 20.257812 C 12.558594 21.289062 11.484375 22.300781 10.394531 23.296875 C 10.070312 23.648438 9.796875 24.042969 9.578125 24.472656 C 9.300781 25.222656 9.449219 25.875 10.023438 26.429688 C 11.125 27.132812 12.191406 27.894531 13.214844 28.707031 C 13.996094 29.398438 14.730469 30.128906 15.421875 30.90625 C 13.601562 32.859375 11.835938 34.859375 10.128906 36.90625 C 9.832031 37.28125 9.539062 37.65625 9.242188 38.035156 C 6.710938 35.296875 5.128906 32.082031 4.488281 28.382812 C 4.191406 26.292969 4.328125 24.226562 4.898438 22.191406 C 5.386719 20.507812 6.058594 18.898438 6.914062 17.367188 C 7.515625 16.300781 8.15625 15.261719 8.832031 14.246094 C 10.246094 12.394531 11.949219 10.875 13.933594 9.6875 C 13.957031 9.691406 13.972656 9.683594 13.980469 9.660156 C 14.007812 9.664062 14.023438 9.65625 14.03125 9.636719 C 14.054688 9.640625 14.070312 9.632812 14.078125 9.613281 C 14.101562 9.617188 14.117188 9.609375 14.125 9.589844 C 15.269531 9.027344 16.421875 8.488281 17.582031 7.980469 C 17.605469 7.984375 17.621094 7.976562 17.628906 7.957031 C 17.660156 7.964844 17.6875 7.953125 17.703125 7.933594 C 17.726562 7.9375 17.742188 7.929688 17.75 7.910156 C 17.773438 7.914062 17.789062 7.90625 17.800781 7.886719 C 17.828125 7.890625 17.855469 7.882812 17.871094 7.859375 C 20.816406 6.882812 23.824219 6.621094 26.894531 7.082031 C 29.015625 7.425781 31.007812 8.128906 32.875 9.195312 C 33.511719 9.578125 34.132812 9.984375 34.746094 10.40625 C 31.5625 13.96875 28.332031 17.5 25.058594 20.992188 C 24.363281 21.699219 23.671875 22.414062 22.984375 23.128906 Z M 22.984375 23.128906 "/>
<path style=" stroke:none;fill-rule:evenodd;fill:rgb(99.607843%,99.607843%,99.607843%);fill-opacity:1;" d="M 26.679688 26.273438 C 28.328125 26.308594 29.976562 26.332031 31.625 26.34375 C 31.59375 26.929688 31.605469 27.511719 31.660156 28.097656 C 31.667969 31.066406 31.675781 34.035156 31.683594 37 C 31.808594 37.796875 32.269531 38.257812 33.066406 38.382812 C 33.578125 38.429688 34.035156 38.292969 34.433594 37.972656 C 34.664062 37.742188 34.8125 37.46875 34.878906 37.144531 C 34.902344 33.152344 34.894531 29.160156 34.855469 25.167969 C 34.78125 24.039062 34.191406 23.355469 33.089844 23.117188 C 32.820312 23.058594 32.546875 23.019531 32.273438 22.996094 C 31.433594 22.972656 30.59375 22.992188 29.753906 23.054688 C 32.792969 19.78125 35.800781 16.480469 38.777344 13.152344 C 38.8125 13.148438 38.84375 13.15625 38.875 13.179688 C 39.992188 14.015625 41.019531 14.957031 41.957031 16 C 43.621094 18.070312 44.742188 20.414062 45.320312 23.03125 C 45.890625 25.507812 45.90625 27.988281 45.367188 30.472656 C 44.976562 32.054688 44.3125 33.511719 43.375 34.839844 C 42.027344 36.703125 40.445312 38.347656 38.632812 39.773438 C 37.015625 41.0625 35.261719 42.148438 33.378906 43.039062 C 29.34375 44.835938 25.152344 45.347656 20.800781 44.574219 C 17.898438 44.019531 15.25 42.898438 12.855469 41.203125 C 14.445312 39.222656 16.105469 37.292969 17.835938 35.417969 C 19.035156 34.152344 20.234375 32.890625 21.433594 31.625 C 23.1875 29.84375 24.9375 28.058594 26.679688 26.273438 Z M 26.679688 26.273438 "/>
<path style=" stroke:none;fill-rule:evenodd;fill:rgb(0%,0%,0%);fill-opacity:1;" d="M 22.984375 23.128906 C 21.976562 24.160156 20.96875 25.191406 19.960938 26.222656 C 18.527344 26.246094 17.101562 26.363281 15.6875 26.570312 C 16.089844 27.054688 16.496094 27.539062 16.898438 28.023438 C 17.117188 28.246094 17.335938 28.460938 17.558594 28.671875 C 16.855469 29.425781 16.144531 30.167969 15.421875 30.90625 C 14.730469 30.128906 13.996094 29.398438 13.214844 28.707031 C 12.191406 27.894531 11.125 27.132812 10.023438 26.429688 C 9.449219 25.875 9.300781 25.222656 9.578125 24.472656 C 9.796875 24.042969 10.070312 23.648438 10.394531 23.296875 C 11.484375 22.300781 12.558594 21.289062 13.621094 20.257812 C 14.65625 19.25 15.664062 18.21875 16.648438 17.164062 C 16.765625 17.078125 16.894531 17.007812 17.03125 16.945312 C 17.949219 16.773438 18.609375 17.113281 19.011719 17.96875 C 19.226562 18.570312 19.140625 19.121094 18.746094 19.625 C 17.554688 20.960938 16.292969 22.238281 14.964844 23.453125 C 15.722656 23.382812 16.484375 23.328125 17.246094 23.285156 C 19.160156 23.234375 21.070312 23.179688 22.984375 23.128906 Z M 22.984375 23.128906 "/>
<path style=" stroke:none;fill-rule:evenodd;fill:rgb(0%,0%,0%);fill-opacity:1;" d="M 26.679688 26.273438 C 27.714844 25.207031 28.738281 24.132812 29.753906 23.054688 C 30.59375 22.992188 31.433594 22.972656 32.273438 22.996094 C 32.546875 23.019531 32.820312 23.058594 33.089844 23.117188 C 34.191406 23.355469 34.78125 24.039062 34.855469 25.167969 C 34.894531 29.160156 34.902344 33.152344 34.878906 37.144531 C 34.8125 37.46875 34.664062 37.742188 34.433594 37.972656 C 34.035156 38.292969 33.578125 38.429688 33.066406 38.382812 C 32.269531 38.257812 31.808594 37.796875 31.683594 37 C 31.675781 34.035156 31.667969 31.066406 31.660156 28.097656 C 31.605469 27.511719 31.59375 26.929688 31.625 26.34375 C 29.976562 26.332031 28.328125 26.308594 26.679688 26.273438 Z M 26.679688 26.273438 "/>
<path style=" stroke:none;fill-rule:evenodd;fill:rgb(99.215686%,98.823529%,98.823529%);fill-opacity:1;" d="M 19.960938 26.222656 C 19.167969 27.046875 18.367188 27.863281 17.558594 28.671875 C 17.335938 28.460938 17.117188 28.246094 16.898438 28.023438 C 16.496094 27.539062 16.089844 27.054688 15.6875 26.570312 C 17.101562 26.363281 18.527344 26.246094 19.960938 26.222656 Z M 19.960938 26.222656 "/>
</g>
</svg>
