<?xml version="1.0" encoding="UTF-8"?>
<svg xmlns="http://www.w3.org/2000/svg" xmlns:xlink="http://www.w3.org/1999/xlink" width="50pt" height="50pt" viewBox="0 0 50 50" version="1.1">
<defs>
<filter id="alpha" filterUnits="objectBoundingBox" x="0%" y="0%" width="100%" height="100%">
  <feColorMatrix type="matrix" in="SourceGraphic" values="0 0 0 0 1 0 0 0 0 1 0 0 0 0 1 0 0 0 1 0"/>
</filter>
<mask id="mask0">
  <g filter="url(#alpha)">
<rect x="0" y="0" width="50" height="50" style="fill:rgb(0%,0%,0%);fill-opacity:0.960784;stroke:none;"/>
  </g>
</mask>
<clipPath id="clip1">
  <rect width="50" height="50"/>
</clipPath>
<g id="surface6" clip-path="url(#clip1)">
<path style=" stroke:none;fill-rule:evenodd;fill:rgb(66.27451%,23.137255%,17.647059%);fill-opacity:1;" d="M 48.871094 22.578125 C 49.285156 22.613281 49.40625 22.820312 49.230469 23.199219 C 47.214844 25.332031 44.886719 27.035156 42.25 28.3125 C 38.953125 29.816406 35.59375 29.972656 32.171875 28.789062 C 30.238281 28.066406 28.664062 26.875 27.445312 25.214844 C 24.566406 30.015625 20.3125 32.542969 14.683594 32.796875 C 11.183594 32.738281 8.078125 31.621094 5.375 29.4375 C 4.339844 30.472656 3.339844 31.535156 2.375 32.628906 C 2.171875 32.824219 1.933594 32.945312 1.65625 32.988281 C 1.308594 32.953125 1.15625 32.761719 1.199219 32.414062 C 1.238281 32.332031 1.28125 32.253906 1.320312 32.171875 C 1.128906 32.03125 1.027344 31.839844 1.007812 31.597656 C 0.957031 31.191406 0.933594 30.785156 0.9375 30.375 C 1.003906 28.589844 1.070312 26.804688 1.128906 25.023438 C 1.046875 24.921875 0.960938 24.824219 0.863281 24.734375 C 0.644531 24.0625 0.890625 23.75 1.609375 23.800781 C 1.714844 23.894531 1.835938 23.964844 1.96875 24.015625 C 3.144531 23.828125 4.328125 23.746094 5.519531 23.777344 C 6.964844 23.792969 8.414062 23.832031 9.859375 23.894531 C 10.238281 24.140625 10.328125 24.46875 10.125 24.878906 C 10.066406 24.953125 9.996094 25.011719 9.910156 25.046875 C 9.746094 25.089844 9.585938 25.136719 9.429688 25.191406 C 8.339844 26.296875 7.269531 27.417969 6.214844 28.550781 C 9.007812 30.75 12.191406 31.742188 15.761719 31.527344 C 20.839844 30.894531 24.542969 28.308594 26.871094 23.777344 C 27.089844 23.484375 27.371094 23.414062 27.710938 23.558594 C 29.171875 26.011719 31.300781 27.5625 34.09375 28.214844 C 36.953125 28.800781 39.707031 28.464844 42.347656 27.207031 C 44.769531 26.003906 46.945312 24.460938 48.871094 22.578125 Z M 7.703125 25.359375 C 7.847656 25.351562 7.992188 25.359375 8.132812 25.382812 C 7.214844 26.191406 6.3125 27.011719 5.421875 27.855469 C 4.644531 27.0625 3.886719 26.253906 3.144531 25.433594 C 3.902344 25.445312 4.664062 25.46875 5.421875 25.503906 C 6.191406 25.492188 6.953125 25.441406 7.703125 25.359375 Z M 2.328125 26.367188 C 3.015625 27.175781 3.753906 27.953125 4.535156 28.695312 C 3.792969 29.484375 3.03125 30.261719 2.253906 31.023438 C 2.261719 29.472656 2.285156 27.917969 2.328125 26.367188 Z M 2.328125 26.367188 "/>
</g>
</defs>
<g id="surface1">
<use xlink:href="#surface6" mask="url(#mask0)"/>
</g>
</svg>
