<?xml version="1.0" encoding="UTF-8"?>
<svg xmlns="http://www.w3.org/2000/svg" xmlns:xlink="http://www.w3.org/1999/xlink" width="50pt" height="50pt" viewBox="0 0 50 50" version="1.1">
<defs>
<filter id="alpha" filterUnits="objectBoundingBox" x="0%" y="0%" width="100%" height="100%">
  <feColorMatrix type="matrix" in="SourceGraphic" values="0 0 0 0 1 0 0 0 0 1 0 0 0 0 1 0 0 0 1 0"/>
</filter>
<mask id="mask0">
  <g filter="url(#alpha)">
<rect x="0" y="0" width="50" height="50" style="fill:rgb(0%,0%,0%);fill-opacity:0.988235;stroke:none;"/>
  </g>
</mask>
<clipPath id="clip1">
  <rect width="50" height="50"/>
</clipPath>
<g id="surface6" clip-path="url(#clip1)">
<path style=" stroke:none;fill-rule:evenodd;fill:rgb(1.568627%,1.568627%,1.960784%);fill-opacity:1;" d="M 30.519531 7.238281 C 31.296875 7.230469 32.074219 7.242188 32.847656 7.273438 C 33.839844 7.355469 34.832031 7.429688 35.824219 7.488281 C 36.714844 7.539062 37.578125 7.707031 38.417969 7.992188 C 39.355469 8.335938 40.007812 8.972656 40.375 9.902344 C 40.621094 10.5625 40.78125 11.242188 40.855469 11.941406 C 41.386719 15.976562 41.949219 20.011719 42.535156 24.039062 C 42.746094 25.824219 42.945312 27.605469 43.136719 29.394531 C 43.246094 30.566406 43.269531 31.742188 43.207031 32.921875 C 43.09375 34.589844 42.425781 35.988281 41.203125 37.109375 C 39.847656 38.351562 38.277344 39.230469 36.496094 39.75 C 35.898438 39.910156 35.292969 40 34.671875 40.015625 C 34.605469 40.121094 34.507812 40.191406 34.386719 40.230469 C 34.144531 40.277344 33.902344 40.335938 33.664062 40.398438 C 32.890625 40.628906 32.113281 40.863281 31.335938 41.09375 C 30.230469 41.359375 29.109375 41.550781 27.976562 41.671875 C 26.257812 41.886719 24.535156 42.011719 22.804688 42.042969 C 21.835938 42.035156 20.871094 41.976562 19.910156 41.863281 C 18.675781 41.691406 17.441406 41.5 16.214844 41.285156 C 15.34375 41.128906 14.519531 40.839844 13.742188 40.421875 C 12.03125 39.542969 10.421875 38.507812 8.917969 37.324219 C 8.21875 36.675781 7.742188 35.886719 7.488281 34.960938 C 7.253906 34.136719 7.117188 33.296875 7.082031 32.441406 C 7.054688 31.359375 7.03125 30.28125 7.007812 29.199219 C 6.886719 27.449219 6.773438 25.695312 6.671875 23.945312 C 6.628906 21.410156 6.796875 18.890625 7.175781 16.382812 C 7.507812 14.304688 8.292969 12.425781 9.53125 10.742188 C 10.589844 9.355469 11.992188 8.589844 13.742188 8.449219 C 14.222656 8.398438 14.703125 8.367188 15.183594 8.351562 C 16.382812 8.34375 17.582031 8.335938 18.78125 8.328125 C 19.738281 8.3125 20.691406 8.242188 21.640625 8.113281 C 23.035156 7.898438 24.4375 7.703125 25.839844 7.539062 C 27.402344 7.417969 28.964844 7.316406 30.519531 7.238281 Z M 30.519531 7.238281 "/>
</g>
</defs>
<g id="surface1">
<use xlink:href="#surface6" mask="url(#mask0)"/>
<path style=" stroke:none;fill-rule:evenodd;fill:rgb(99.607843%,99.607843%,99.607843%);fill-opacity:1;" d="M 29.898438 8.292969 C 30.5625 8.289062 31.226562 8.292969 31.890625 8.304688 C 32.441406 8.34375 32.992188 8.375 33.546875 8.402344 C 34.738281 8.511719 35.929688 8.605469 37.121094 8.6875 C 37.621094 8.757812 38.09375 8.910156 38.539062 9.144531 C 38.957031 9.390625 39.257812 9.738281 39.4375 10.191406 C 39.632812 10.667969 39.761719 11.164062 39.824219 11.679688 C 40.019531 13.46875 40.257812 15.25 40.542969 17.03125 C 40.835938 19.265625 41.140625 21.496094 41.453125 23.726562 C 41.746094 26.054688 42.023438 28.382812 42.292969 30.714844 C 42.363281 31.496094 42.371094 32.28125 42.320312 33.066406 C 42.179688 34.347656 41.667969 35.453125 40.78125 36.378906 C 39.488281 37.628906 37.996094 38.578125 36.304688 39.222656 C 35.792969 39.421875 35.265625 39.53125 34.722656 39.558594 C 34.621094 39.285156 34.425781 39.136719 34.132812 39.113281 C 33.746094 39.179688 33.367188 39.269531 32.992188 39.390625 C 32.359375 39.605469 31.71875 39.804688 31.074219 39.992188 C 29.78125 40.285156 28.476562 40.503906 27.160156 40.636719 C 26.351562 40.726562 25.542969 40.808594 24.734375 40.878906 C 23.71875 40.933594 22.703125 40.949219 21.6875 40.925781 C 21.085938 40.898438 20.484375 40.839844 19.886719 40.757812 C 18.609375 40.535156 17.328125 40.335938 16.046875 40.160156 C 15.175781 39.941406 14.355469 39.617188 13.574219 39.175781 C 12.445312 38.507812 11.339844 37.804688 10.261719 37.0625 C 9.082031 36.179688 8.40625 35 8.234375 33.519531 C 8.15625 32.898438 8.097656 32.273438 8.066406 31.648438 C 8.042969 30.386719 8.019531 29.121094 7.992188 27.855469 C 7.824219 26.066406 7.753906 24.277344 7.777344 22.480469 C 7.855469 20.933594 7.960938 19.390625 8.089844 17.847656 C 8.210938 16.015625 8.699219 14.285156 9.554688 12.660156 C 9.980469 11.851562 10.539062 11.132812 11.222656 10.515625 C 11.8125 10.035156 12.484375 9.722656 13.238281 9.578125 C 13.714844 9.484375 14.195312 9.429688 14.679688 9.410156 C 16.582031 9.421875 18.488281 9.382812 20.390625 9.289062 C 21.652344 9.183594 22.910156 9.03125 24.160156 8.832031 C 26.070312 8.613281 27.984375 8.433594 29.898438 8.292969 Z M 29.898438 8.292969 "/>
<path style=" stroke:none;fill-rule:evenodd;fill:rgb(1.960784%,1.960784%,2.352941%);fill-opacity:1;" d="M 23.703125 14.558594 C 24.761719 14.574219 25.816406 14.605469 26.871094 14.65625 C 28.675781 14.640625 30.480469 14.621094 32.285156 14.605469 C 32.6875 14.605469 33.082031 14.652344 33.472656 14.738281 C 33.941406 14.878906 34.304688 15.15625 34.566406 15.566406 C 34.683594 15.769531 34.785156 15.976562 34.878906 16.191406 C 35.132812 16.910156 35.390625 17.628906 35.644531 18.351562 C 36.078125 19.269531 36.5 20.1875 36.917969 21.113281 C 37.871094 23.578125 38.3125 26.140625 38.238281 28.792969 C 38.246094 29.820312 38.085938 30.820312 37.757812 31.792969 C 37.320312 32.824219 36.632812 33.652344 35.707031 34.277344 C 35.339844 34.46875 34.957031 34.613281 34.554688 34.710938 C 33.847656 34.886719 33.144531 35.0625 32.441406 35.238281 C 31.421875 35.480469 30.390625 35.640625 29.34375 35.71875 C 27.839844 35.789062 26.335938 35.878906 24.832031 35.980469 C 23.5625 36.148438 22.289062 36.308594 21.015625 36.460938 C 20.359375 36.496094 19.703125 36.503906 19.046875 36.484375 C 18.328125 36.453125 17.671875 36.238281 17.078125 35.835938 C 16.578125 35.410156 16.238281 34.878906 16.058594 34.242188 C 15.886719 33.566406 15.734375 32.886719 15.601562 32.199219 C 15.355469 31.480469 15.105469 30.761719 14.859375 30.039062 C 14.636719 29.035156 14.425781 28.027344 14.234375 27.015625 C 13.882812 25.648438 13.5625 24.269531 13.273438 22.886719 C 13.042969 21.816406 12.976562 20.738281 13.082031 19.648438 C 13.21875 18.570312 13.726562 17.71875 14.605469 17.089844 C 14.882812 16.902344 15.171875 16.730469 15.46875 16.574219 C 15.542969 16.371094 15.679688 16.222656 15.878906 16.128906 C 17.964844 15.75 20.039062 15.3125 22.09375 14.808594 C 22.628906 14.6875 23.164062 14.605469 23.703125 14.558594 Z M 23.703125 14.558594 "/>
<path style=" stroke:none;fill-rule:evenodd;fill:rgb(99.607843%,99.607843%,99.215686%);fill-opacity:1;" d="M 23.726562 15.566406 C 24.648438 15.601562 25.566406 15.632812 26.488281 15.652344 C 28.601562 15.660156 30.714844 15.667969 32.824219 15.675781 C 33.203125 15.710938 33.484375 15.894531 33.675781 16.214844 C 33.757812 16.363281 33.832031 16.515625 33.894531 16.671875 C 34.117188 17.378906 34.371094 18.074219 34.660156 18.757812 C 35.015625 19.566406 35.382812 20.363281 35.765625 21.160156 C 36.957031 24.023438 37.390625 27 37.0625 30.089844 C 36.96875 30.882812 36.703125 31.609375 36.269531 32.273438 C 35.847656 32.832031 35.316406 33.253906 34.671875 33.535156 C 32.855469 34.21875 30.976562 34.617188 29.03125 34.734375 C 27.558594 34.8125 26.085938 34.898438 24.617188 34.996094 C 23.453125 35.140625 22.292969 35.292969 21.136719 35.453125 C 20.449219 35.507812 19.761719 35.527344 19.070312 35.5 C 18.554688 35.464844 18.082031 35.304688 17.65625 35.023438 C 17.25 34.644531 16.988281 34.1875 16.875 33.640625 C 16.757812 33.011719 16.625 32.390625 16.464844 31.769531 C 16.164062 30.976562 15.894531 30.179688 15.652344 29.367188 C 15.363281 28.117188 15.101562 26.859375 14.859375 25.601562 C 14.570312 24.582031 14.308594 23.558594 14.066406 22.527344 C 13.851562 21.464844 13.785156 20.390625 13.875 19.3125 C 13.976562 18.589844 14.316406 18.007812 14.894531 17.570312 C 15.101562 17.410156 15.320312 17.269531 15.554688 17.152344 C 15.671875 17.273438 15.816406 17.335938 15.988281 17.34375 C 16.5 17.277344 17.007812 17.175781 17.511719 17.042969 C 19.214844 16.539062 20.933594 16.097656 22.671875 15.722656 C 23.027344 15.660156 23.378906 15.605469 23.726562 15.566406 Z M 23.726562 15.566406 "/>
<path style=" stroke:none;fill-rule:evenodd;fill:rgb(94.509804%,92.941176%,90.196078%);fill-opacity:1;" d="M 26.824219 16.144531 C 29.46875 16.007812 31.6875 16.90625 33.484375 18.832031 C 34.546875 20.042969 35.195312 21.453125 35.429688 23.054688 C 35.523438 23.703125 35.617188 24.351562 35.71875 25 C 36.011719 27.792969 35.144531 30.148438 33.113281 32.070312 C 32.015625 33.039062 30.742188 33.671875 29.296875 33.964844 C 27.617188 34.222656 25.9375 34.460938 24.257812 34.6875 C 21.46875 34.777344 19.195312 33.757812 17.425781 31.625 C 16.65625 30.644531 16.144531 29.542969 15.890625 28.3125 C 15.734375 27.402344 15.597656 26.492188 15.484375 25.574219 C 15.265625 22.523438 16.367188 20.070312 18.78125 18.21875 C 19.648438 17.597656 20.597656 17.167969 21.640625 16.921875 C 23.367188 16.644531 25.097656 16.382812 26.824219 16.144531 Z M 26.824219 16.144531 "/>
<path style=" stroke:none;fill-rule:evenodd;fill:rgb(1.960784%,1.960784%,2.352941%);fill-opacity:1;" d="M 29.226562 21.566406 C 29.875 21.546875 30.472656 21.710938 31.023438 22.058594 C 32.769531 23.1875 33.027344 24.597656 31.804688 26.296875 C 31.117188 27.292969 30.171875 27.714844 28.960938 27.554688 C 28.265625 27.476562 27.683594 27.175781 27.21875 26.65625 C 26.917969 26.246094 26.777344 25.785156 26.800781 25.277344 C 26.785156 24.609375 26.96875 24.003906 27.351562 23.464844 C 27.160156 23.222656 27.140625 22.964844 27.292969 22.695312 C 27.726562 22.257812 28.226562 21.917969 28.792969 21.675781 C 28.9375 21.636719 29.082031 21.601562 29.226562 21.566406 Z M 29.226562 21.566406 "/>
<path style=" stroke:none;fill-rule:evenodd;fill:rgb(1.960784%,1.960784%,2.352941%);fill-opacity:1;" d="M 19.574219 22.671875 C 20.3125 22.617188 20.953125 22.835938 21.496094 23.332031 C 22.203125 23.992188 22.695312 24.789062 22.972656 25.71875 C 23.117188 26.289062 23.070312 26.839844 22.828125 27.375 C 22.597656 27.894531 22.273438 28.347656 21.855469 28.734375 C 21.136719 29.261719 20.367188 29.34375 19.550781 28.972656 C 18.328125 28.328125 17.703125 27.3125 17.679688 25.925781 C 17.671875 25.652344 17.695312 25.386719 17.738281 25.121094 C 17.863281 24.546875 18.03125 23.988281 18.242188 23.441406 C 18.300781 23.289062 18.40625 23.207031 18.566406 23.1875 C 18.863281 22.933594 19.199219 22.761719 19.574219 22.671875 Z M 19.574219 22.671875 "/>
<path style=" stroke:none;fill-rule:evenodd;fill:rgb(94.509804%,92.941176%,90.196078%);fill-opacity:1;" d="M 29.296875 22.742188 C 30.105469 22.78125 30.78125 23.101562 31.324219 23.703125 C 31.601562 24.101562 31.648438 24.523438 31.46875 24.976562 C 31.234375 25.570312 30.859375 26.0625 30.351562 26.453125 C 29.640625 26.769531 28.9375 26.753906 28.242188 26.402344 C 27.863281 26.179688 27.648438 25.847656 27.605469 25.40625 C 27.53125 24.851562 27.636719 24.332031 27.917969 23.847656 C 28.269531 23.339844 28.726562 22.972656 29.296875 22.742188 Z M 29.296875 22.742188 "/>
<path style=" stroke:none;fill-rule:evenodd;fill:rgb(94.509804%,92.941176%,90.196078%);fill-opacity:1;" d="M 19.765625 23.726562 C 20.042969 23.699219 20.300781 23.761719 20.535156 23.90625 C 21.335938 24.480469 21.867188 25.246094 22.132812 26.199219 C 22.152344 26.410156 22.136719 26.617188 22.082031 26.824219 C 21.910156 27.296875 21.640625 27.710938 21.28125 28.058594 C 20.902344 28.351562 20.484375 28.417969 20.03125 28.253906 C 19.066406 27.816406 18.527344 27.066406 18.410156 26.007812 C 18.382812 25.402344 18.464844 24.808594 18.652344 24.230469 C 18.738281 24.230469 18.832031 24.226562 18.925781 24.21875 C 18.964844 24.199219 19.003906 24.183594 19.046875 24.171875 C 19.253906 23.96875 19.496094 23.820312 19.765625 23.726562 Z M 19.765625 23.726562 "/>
</g>
</svg>
