<?xml version="1.0" encoding="UTF-8"?>
<svg xmlns="http://www.w3.org/2000/svg" xmlns:xlink="http://www.w3.org/1999/xlink" width="50pt" height="50pt" viewBox="0 0 50 50" version="1.1">
<defs>
<filter id="alpha" filterUnits="objectBoundingBox" x="0%" y="0%" width="100%" height="100%">
  <feColorMatrix type="matrix" in="SourceGraphic" values="0 0 0 0 1 0 0 0 0 1 0 0 0 0 1 0 0 0 1 0"/>
</filter>
<mask id="mask0">
  <g filter="url(#alpha)">
<rect x="0" y="0" width="50" height="50" style="fill:rgb(0%,0%,0%);fill-opacity:0.929412;stroke:none;"/>
  </g>
</mask>
<clipPath id="clip1">
  <rect width="50" height="50"/>
</clipPath>
<g id="surface6" clip-path="url(#clip1)">
<path style=" stroke:none;fill-rule:evenodd;fill:rgb(66.27451%,23.137255%,17.647059%);fill-opacity:1;" d="M 22.960938 4.964844 C 23.003906 4.960938 23.035156 4.976562 23.054688 5.015625 C 23.433594 5.691406 23.691406 6.410156 23.824219 7.171875 C 23.839844 7.328125 23.773438 7.382812 23.632812 7.339844 C 23.476562 7.171875 23.34375 6.988281 23.222656 6.789062 C 23.472656 9.230469 23.601562 11.675781 23.609375 14.132812 C 23.417969 14.324219 23.222656 14.324219 23.03125 14.132812 C 22.996094 12.449219 22.914062 10.769531 22.792969 9.09375 C 22.769531 8.5 22.769531 7.910156 22.792969 7.316406 C 22.734375 7.566406 22.578125 7.710938 22.3125 7.75 C 22.179688 7.734375 22.105469 7.664062 22.097656 7.535156 C 22.363281 6.671875 22.652344 5.816406 22.960938 4.964844 Z M 22.960938 4.964844 "/>
</g>
<mask id="mask1">
  <g filter="url(#alpha)">
<rect x="0" y="0" width="50" height="50" style="fill:rgb(0%,0%,0%);fill-opacity:0.917647;stroke:none;"/>
  </g>
</mask>
<clipPath id="clip2">
  <rect width="50" height="50"/>
</clipPath>
<g id="surface9" clip-path="url(#clip2)">
<path style=" stroke:none;fill-rule:evenodd;fill:rgb(66.27451%,23.137255%,17.647059%);fill-opacity:1;" d="M 37.980469 9.1875 C 38.023438 9.183594 38.054688 9.199219 38.074219 9.238281 C 37.496094 10.296875 37.027344 11.398438 36.660156 12.546875 C 36.503906 12.875 36.394531 12.855469 36.324219 12.5 C 36.308594 12.277344 36.292969 12.050781 36.277344 11.828125 C 34.636719 13.324219 32.980469 14.804688 31.308594 16.265625 C 30.902344 16.371094 30.75 16.21875 30.855469 15.8125 C 32.253906 14.570312 33.652344 13.332031 35.054688 12.09375 C 35.296875 11.898438 35.550781 11.722656 35.820312 11.5625 C 35.59375 11.542969 35.378906 11.484375 35.171875 11.394531 C 35.109375 11.175781 35.167969 10.992188 35.339844 10.84375 C 35.542969 10.875 35.753906 10.898438 35.964844 10.917969 C 36.390625 10.882812 36.734375 10.691406 36.996094 10.339844 C 37.335938 9.960938 37.664062 9.578125 37.980469 9.1875 Z M 37.980469 9.1875 "/>
</g>
<mask id="mask2">
  <g filter="url(#alpha)">
<rect x="0" y="0" width="50" height="50" style="fill:rgb(0%,0%,0%);fill-opacity:0.917647;stroke:none;"/>
  </g>
</mask>
<clipPath id="clip3">
  <rect width="50" height="50"/>
</clipPath>
<g id="surface12" clip-path="url(#clip3)">
<path style=" stroke:none;fill-rule:evenodd;fill:rgb(66.27451%,23.137255%,17.647059%);fill-opacity:1;" d="M 10.195312 9.382812 C 10.597656 9.664062 10.964844 9.988281 11.300781 10.363281 C 11.769531 10.683594 12.238281 10.996094 12.714844 11.300781 C 12.75 11.363281 12.742188 11.417969 12.691406 11.46875 C 12.53125 11.484375 12.371094 11.5 12.210938 11.515625 C 13.101562 12.484375 13.972656 13.46875 14.828125 14.46875 C 15.246094 14.867188 15.644531 15.285156 16.027344 15.714844 C 16.097656 16.089844 15.945312 16.242188 15.570312 16.171875 C 14.472656 15.050781 13.425781 13.890625 12.429688 12.691406 C 12.074219 12.226562 11.738281 11.746094 11.421875 11.253906 C 11.40625 11.460938 11.386719 11.667969 11.371094 11.875 C 11.191406 12 11.007812 12 10.820312 11.875 C 10.785156 11.539062 10.742188 11.203125 10.699219 10.867188 C 10.535156 10.371094 10.367188 9.875 10.195312 9.382812 Z M 10.195312 9.382812 "/>
</g>
<mask id="mask3">
  <g filter="url(#alpha)">
<rect x="0" y="0" width="50" height="50" style="fill:rgb(0%,0%,0%);fill-opacity:0.929412;stroke:none;"/>
  </g>
</mask>
<clipPath id="clip4">
  <rect width="50" height="50"/>
</clipPath>
<g id="surface15" clip-path="url(#clip4)">
<path style=" stroke:none;fill-rule:evenodd;fill:rgb(66.27451%,23.137255%,17.647059%);fill-opacity:1;" d="M 23.054688 16.242188 C 24.785156 16.222656 26.5 16.390625 28.191406 16.746094 C 28.984375 16.925781 29.753906 17.183594 30.496094 17.515625 C 30.675781 17.8125 30.605469 18.011719 30.277344 18.113281 C 28.597656 17.410156 26.847656 17.019531 25.023438 16.9375 C 22.519531 16.757812 20.054688 16.996094 17.632812 17.660156 C 16.15625 18.078125 14.8125 18.75 13.605469 19.671875 C 12.710938 20.398438 12.125 21.320312 11.851562 22.433594 C 11.671875 23.394531 11.863281 24.273438 12.429688 25.070312 C 13.234375 26.023438 14.21875 26.734375 15.378906 27.207031 C 19.125 28.671875 22.996094 29.183594 26.992188 28.742188 C 28.960938 28.453125 30.816406 27.828125 32.558594 26.871094 C 33.417969 26.378906 34.148438 25.730469 34.742188 24.929688 C 35.921875 23.019531 35.640625 21.347656 33.902344 19.914062 C 32.988281 19.25 32.03125 18.65625 31.023438 18.136719 C 30.980469 18.089844 30.964844 18.035156 30.972656 17.96875 C 32.054688 18.078125 33.027344 18.453125 33.902344 19.097656 C 34.761719 19.703125 35.410156 20.476562 35.84375 21.425781 C 36.296875 22.90625 36.054688 24.265625 35.125 25.503906 C 34.011719 26.777344 32.660156 27.710938 31.070312 28.3125 C 27.703125 29.570312 24.25 29.890625 20.707031 29.269531 C 18.363281 28.976562 16.140625 28.304688 14.035156 27.253906 C 12.925781 26.65625 12.066406 25.800781 11.46875 24.6875 C 10.914062 23.097656 11.136719 21.625 12.140625 20.273438 C 13.320312 18.917969 14.769531 17.949219 16.484375 17.371094 C 18.617188 16.628906 20.808594 16.253906 23.054688 16.242188 Z M 17.347656 22.050781 C 17.675781 22.058594 17.820312 22.234375 17.777344 22.578125 C 17.703125 23.21875 17.351562 23.484375 16.722656 23.367188 C 16.605469 23.289062 16.558594 23.179688 16.578125 23.03125 C 16.628906 22.542969 16.886719 22.214844 17.347656 22.050781 Z M 21.714844 22.050781 C 21.980469 22.070312 22.085938 22.214844 22.023438 22.480469 C 21.898438 22.664062 21.722656 22.777344 21.496094 22.816406 C 21.300781 22.78125 21.238281 22.671875 21.304688 22.480469 C 21.371094 22.265625 21.507812 22.121094 21.714844 22.050781 Z M 29.007812 22.050781 C 29.273438 22.070312 29.378906 22.214844 29.320312 22.480469 C 29.191406 22.664062 29.015625 22.777344 28.789062 22.816406 C 28.59375 22.78125 28.53125 22.671875 28.597656 22.480469 C 28.664062 22.265625 28.800781 22.121094 29.007812 22.050781 Z M 31.597656 22.050781 C 31.785156 22.027344 31.90625 22.105469 31.957031 22.289062 C 32.082031 23.109375 31.738281 23.46875 30.925781 23.367188 C 30.824219 23.28125 30.777344 23.167969 30.78125 23.03125 C 30.871094 22.542969 31.140625 22.214844 31.597656 22.050781 Z M 31.597656 22.050781 "/>
</g>
<mask id="mask4">
  <g filter="url(#alpha)">
<rect x="0" y="0" width="50" height="50" style="fill:rgb(0%,0%,0%);fill-opacity:0.886275;stroke:none;"/>
  </g>
</mask>
<clipPath id="clip5">
  <rect width="50" height="50"/>
</clipPath>
<g id="surface18" clip-path="url(#clip5)">
<path style=" stroke:none;fill-rule:evenodd;fill:rgb(66.27451%,23.137255%,17.647059%);fill-opacity:1;" d="M 24.0625 20.898438 C 24.128906 20.898438 24.191406 20.898438 24.257812 20.898438 C 24.222656 21.28125 24.316406 21.625 24.542969 21.929688 C 24.65625 21.980469 24.777344 22.003906 24.902344 22 C 25.136719 21.972656 25.367188 21.957031 25.601562 21.953125 C 25.613281 22.0625 25.597656 22.167969 25.550781 22.265625 C 25.1875 22.324219 24.816406 22.363281 24.449219 22.386719 C 24.554688 22.8125 24.683594 23.238281 24.832031 23.65625 C 24.777344 23.882812 24.652344 23.929688 24.449219 23.800781 C 24.375 23.726562 24.316406 23.636719 24.28125 23.535156 C 24.238281 23.144531 24.160156 22.757812 24.039062 22.386719 C 23.710938 22.269531 23.375 22.175781 23.03125 22.097656 C 23 22.019531 23.007812 21.949219 23.054688 21.882812 C 23.34375 21.855469 23.632812 21.847656 23.921875 21.855469 C 23.878906 21.632812 23.871094 21.410156 23.894531 21.183594 C 23.921875 21.070312 23.980469 20.976562 24.0625 20.898438 Z M 24.0625 20.898438 "/>
</g>
<mask id="mask5">
  <g filter="url(#alpha)">
<rect x="0" y="0" width="50" height="50" style="fill:rgb(0%,0%,0%);fill-opacity:0.87451;stroke:none;"/>
  </g>
</mask>
<clipPath id="clip6">
  <rect width="50" height="50"/>
</clipPath>
<g id="surface21" clip-path="url(#clip6)">
<path style=" stroke:none;fill-rule:evenodd;fill:rgb(66.27451%,23.137255%,17.647059%);fill-opacity:1;" d="M 14.996094 21.328125 C 15.226562 21.292969 15.402344 21.371094 15.523438 21.570312 C 15.484375 21.632812 15.4375 21.6875 15.378906 21.738281 C 15.070312 21.792969 14.804688 21.929688 14.585938 22.144531 C 14.554688 22.257812 14.554688 22.367188 14.585938 22.480469 C 14.625 22.511719 14.664062 22.535156 14.707031 22.554688 C 15.089844 22.570312 15.476562 22.585938 15.859375 22.601562 C 15.980469 22.65625 16.046875 22.75 16.050781 22.890625 C 15.902344 23.371094 15.59375 23.699219 15.113281 23.871094 C 14.925781 23.804688 14.902344 23.703125 15.042969 23.558594 C 15.332031 23.425781 15.523438 23.207031 15.617188 22.914062 C 15.296875 22.921875 14.980469 22.914062 14.660156 22.890625 C 14.140625 22.730469 14.007812 22.402344 14.25 21.90625 C 14.460938 21.660156 14.710938 21.46875 14.996094 21.328125 Z M 14.996094 21.328125 "/>
</g>
<mask id="mask6">
  <g filter="url(#alpha)">
<rect x="0" y="0" width="50" height="50" style="fill:rgb(0%,0%,0%);fill-opacity:0.894118;stroke:none;"/>
  </g>
</mask>
<clipPath id="clip7">
  <rect width="50" height="50"/>
</clipPath>
<g id="surface24" clip-path="url(#clip7)">
<path style=" stroke:none;fill-rule:evenodd;fill:rgb(66.27451%,23.137255%,17.647059%);fill-opacity:1;" d="M 25.648438 21.570312 C 26.226562 21.558594 26.800781 21.582031 27.375 21.640625 C 27.625 21.796875 27.683594 22.015625 27.542969 22.289062 C 27.273438 22.632812 26.992188 22.96875 26.703125 23.296875 C 27.085938 23.335938 27.46875 23.359375 27.855469 23.367188 C 27.949219 23.546875 27.898438 23.65625 27.710938 23.703125 C 27.1875 23.789062 26.65625 23.84375 26.128906 23.871094 C 26.148438 23.585938 26.21875 23.316406 26.34375 23.054688 C 26.574219 22.679688 26.835938 22.328125 27.136719 22 C 27.125 21.972656 27.109375 21.949219 27.085938 21.929688 C 26.640625 21.914062 26.191406 21.898438 25.742188 21.882812 C 25.660156 21.796875 25.628906 21.691406 25.648438 21.570312 Z M 25.648438 21.570312 "/>
</g>
<mask id="mask7">
  <g filter="url(#alpha)">
<rect x="0" y="0" width="50" height="50" style="fill:rgb(0%,0%,0%);fill-opacity:0.890196;stroke:none;"/>
  </g>
</mask>
<clipPath id="clip8">
  <rect width="50" height="50"/>
</clipPath>
<g id="surface27" clip-path="url(#clip8)">
<path style=" stroke:none;fill-rule:evenodd;fill:rgb(66.27451%,23.137255%,17.647059%);fill-opacity:1;" d="M 17.105469 21.714844 C 17.621094 21.609375 17.996094 21.785156 18.234375 22.242188 C 18.296875 22.734375 18.382812 23.222656 18.5 23.703125 C 18.460938 23.875 18.363281 23.929688 18.210938 23.871094 C 18.105469 23.726562 18 23.582031 17.898438 23.441406 C 17.523438 23.734375 17.101562 23.839844 16.625 23.753906 C 16.308594 23.636719 16.148438 23.40625 16.148438 23.054688 C 16.226562 22.433594 16.546875 21.984375 17.105469 21.714844 Z M 17.347656 22.050781 C 16.886719 22.214844 16.628906 22.542969 16.578125 23.03125 C 16.558594 23.179688 16.605469 23.289062 16.722656 23.367188 C 17.351562 23.484375 17.703125 23.21875 17.777344 22.578125 C 17.820312 22.234375 17.675781 22.058594 17.347656 22.050781 Z M 17.347656 22.050781 "/>
</g>
<mask id="mask8">
  <g filter="url(#alpha)">
<rect x="0" y="0" width="50" height="50" style="fill:rgb(0%,0%,0%);fill-opacity:0.890196;stroke:none;"/>
  </g>
</mask>
<clipPath id="clip9">
  <rect width="50" height="50"/>
</clipPath>
<g id="surface30" clip-path="url(#clip9)">
<path style=" stroke:none;fill-rule:evenodd;fill:rgb(66.27451%,23.137255%,17.647059%);fill-opacity:1;" d="M 21.472656 21.714844 C 22.320312 21.625 22.601562 21.976562 22.3125 22.769531 C 22.039062 23.078125 21.722656 23.269531 21.351562 23.34375 C 21.519531 23.457031 21.703125 23.503906 21.90625 23.488281 C 22.191406 23.441406 22.480469 23.417969 22.769531 23.417969 C 22.875 23.496094 22.890625 23.59375 22.816406 23.703125 C 22.261719 23.941406 21.71875 23.925781 21.183594 23.65625 C 20.800781 23.289062 20.699219 22.847656 20.875 22.335938 C 20.988281 22.039062 21.1875 21.832031 21.472656 21.714844 Z M 21.714844 22.050781 C 21.507812 22.121094 21.371094 22.265625 21.304688 22.480469 C 21.238281 22.671875 21.300781 22.78125 21.496094 22.816406 C 21.722656 22.777344 21.898438 22.664062 22.023438 22.480469 C 22.085938 22.214844 21.980469 22.070312 21.714844 22.050781 Z M 21.714844 22.050781 "/>
</g>
<mask id="mask9">
  <g filter="url(#alpha)">
<rect x="0" y="0" width="50" height="50" style="fill:rgb(0%,0%,0%);fill-opacity:0.890196;stroke:none;"/>
  </g>
</mask>
<clipPath id="clip10">
  <rect width="50" height="50"/>
</clipPath>
<g id="surface33" clip-path="url(#clip10)">
<path style=" stroke:none;fill-rule:evenodd;fill:rgb(66.27451%,23.137255%,17.647059%);fill-opacity:1;" d="M 28.765625 21.714844 C 29.613281 21.625 29.894531 21.976562 29.605469 22.769531 C 29.335938 23.078125 29.015625 23.269531 28.648438 23.34375 C 28.8125 23.457031 28.996094 23.503906 29.199219 23.488281 C 29.484375 23.441406 29.773438 23.417969 30.0625 23.417969 C 30.167969 23.496094 30.183594 23.59375 30.109375 23.703125 C 29.558594 23.941406 29.011719 23.925781 28.480469 23.65625 C 28.101562 23.285156 27.996094 22.847656 28.167969 22.335938 C 28.28125 22.039062 28.480469 21.832031 28.765625 21.714844 Z M 29.007812 22.050781 C 28.800781 22.121094 28.664062 22.265625 28.597656 22.480469 C 28.53125 22.671875 28.59375 22.78125 28.789062 22.816406 C 29.015625 22.777344 29.191406 22.664062 29.320312 22.480469 C 29.378906 22.214844 29.273438 22.070312 29.007812 22.050781 Z M 29.007812 22.050781 "/>
</g>
<mask id="mask10">
  <g filter="url(#alpha)">
<rect x="0" y="0" width="50" height="50" style="fill:rgb(0%,0%,0%);fill-opacity:0.898039;stroke:none;"/>
  </g>
</mask>
<clipPath id="clip11">
  <rect width="50" height="50"/>
</clipPath>
<g id="surface36" clip-path="url(#clip11)">
<path style=" stroke:none;fill-rule:evenodd;fill:rgb(66.27451%,23.137255%,17.647059%);fill-opacity:1;" d="M 31.359375 21.714844 C 31.664062 21.679688 31.953125 21.734375 32.222656 21.882812 C 32.285156 21.949219 32.339844 22.019531 32.390625 22.097656 C 32.507812 22.621094 32.609375 23.148438 32.703125 23.679688 C 32.632812 23.9375 32.511719 23.96875 32.339844 23.777344 C 32.277344 23.648438 32.214844 23.519531 32.148438 23.390625 C 31.738281 23.769531 31.265625 23.875 30.734375 23.703125 C 30.46875 23.5625 30.355469 23.339844 30.398438 23.03125 C 30.449219 22.398438 30.769531 21.957031 31.359375 21.714844 Z M 31.597656 22.050781 C 31.140625 22.214844 30.871094 22.542969 30.78125 23.03125 C 30.777344 23.167969 30.824219 23.28125 30.925781 23.367188 C 31.738281 23.46875 32.082031 23.109375 31.957031 22.289062 C 31.90625 22.105469 31.785156 22.027344 31.597656 22.050781 Z M 31.597656 22.050781 "/>
</g>
<mask id="mask11">
  <g filter="url(#alpha)">
<rect x="0" y="0" width="50" height="50" style="fill:rgb(0%,0%,0%);fill-opacity:0.898039;stroke:none;"/>
  </g>
</mask>
<clipPath id="clip12">
  <rect width="50" height="50"/>
</clipPath>
<g id="surface39" clip-path="url(#clip12)">
<path style=" stroke:none;fill-rule:evenodd;fill:rgb(66.27451%,23.137255%,17.647059%);fill-opacity:1;" d="M 20.035156 22 C 20.222656 21.988281 20.398438 22.03125 20.5625 22.121094 C 20.78125 22.351562 20.75 22.519531 20.464844 22.625 C 20.355469 22.570312 20.25 22.507812 20.152344 22.433594 C 19.894531 22.542969 19.773438 22.742188 19.792969 23.03125 C 19.878906 23.292969 19.894531 23.558594 19.839844 23.824219 C 19.726562 23.886719 19.613281 23.878906 19.503906 23.800781 C 19.101562 23.371094 18.832031 22.867188 18.691406 22.289062 C 18.722656 22.113281 18.816406 22.066406 18.976562 22.144531 C 19.121094 22.335938 19.242188 22.546875 19.335938 22.769531 C 19.464844 22.410156 19.695312 22.152344 20.035156 22 Z M 20.035156 22 "/>
</g>
<mask id="mask12">
  <g filter="url(#alpha)">
<rect x="0" y="0" width="50" height="50" style="fill:rgb(0%,0%,0%);fill-opacity:0.956863;stroke:none;"/>
  </g>
</mask>
<clipPath id="clip13">
  <rect width="50" height="50"/>
</clipPath>
<g id="surface42" clip-path="url(#clip13)">
<path style=" stroke:none;fill-rule:evenodd;fill:rgb(66.27451%,23.137255%,17.647059%);fill-opacity:1;" d="M 47.816406 22.191406 C 48.375 22.585938 48.96875 22.929688 49.59375 23.222656 C 49.164062 23.667969 48.667969 24.023438 48.105469 24.28125 C 48.011719 24.304688 47.914062 24.3125 47.816406 24.304688 C 47.808594 24.222656 47.816406 24.144531 47.839844 24.0625 C 48.003906 23.804688 48.203125 23.570312 48.441406 23.367188 C 47.996094 23.398438 47.546875 23.433594 47.097656 23.464844 C 44.203125 23.496094 41.308594 23.496094 38.410156 23.464844 C 38.292969 23.304688 38.285156 23.136719 38.386719 22.960938 C 38.421875 22.929688 38.464844 22.90625 38.507812 22.890625 C 41.339844 22.890625 44.167969 22.90625 47 22.9375 C 47.289062 22.976562 47.578125 22.996094 47.863281 22.984375 C 47.371094 22.753906 47.355469 22.488281 47.816406 22.191406 Z M 47.816406 22.191406 "/>
</g>
<mask id="mask13">
  <g filter="url(#alpha)">
<rect x="0" y="0" width="50" height="50" style="fill:rgb(0%,0%,0%);fill-opacity:0.933333;stroke:none;"/>
  </g>
</mask>
<clipPath id="clip14">
  <rect width="50" height="50"/>
</clipPath>
<g id="surface45" clip-path="url(#clip14)">
<path style=" stroke:none;fill-rule:evenodd;fill:rgb(66.27451%,23.137255%,17.647059%);fill-opacity:1;" d="M 1.945312 22.289062 C 2.175781 22.351562 2.320312 22.503906 2.375 22.746094 C 2.34375 22.839844 2.28125 22.902344 2.183594 22.9375 C 4.644531 22.863281 7.109375 22.847656 9.574219 22.890625 C 9.714844 22.933594 9.777344 23.03125 9.765625 23.175781 C 9.769531 23.285156 9.734375 23.382812 9.667969 23.464844 C 7.398438 23.496094 5.125 23.496094 2.855469 23.464844 C 2.5 23.425781 2.148438 23.390625 1.800781 23.367188 C 2.011719 23.628906 2.15625 23.925781 2.230469 24.257812 C 2.234375 24.339844 2.195312 24.390625 2.109375 24.398438 C 1.941406 24.34375 1.789062 24.253906 1.65625 24.136719 C 1.292969 23.796875 0.957031 23.4375 0.648438 23.054688 C 0.949219 22.90625 1.253906 22.753906 1.558594 22.601562 C 1.699219 22.507812 1.828125 22.402344 1.945312 22.289062 Z M 1.945312 22.289062 "/>
</g>
<mask id="mask14">
  <g filter="url(#alpha)">
<rect x="0" y="0" width="50" height="50" style="fill:rgb(0%,0%,0%);fill-opacity:0.921569;stroke:none;"/>
  </g>
</mask>
<clipPath id="clip15">
  <rect width="50" height="50"/>
</clipPath>
<g id="surface48" clip-path="url(#clip15)">
<path style=" stroke:none;fill-rule:evenodd;fill:rgb(66.27451%,23.137255%,17.647059%);fill-opacity:1;" d="M 15.953125 29.726562 C 16.027344 29.722656 16.074219 29.753906 16.097656 29.824219 C 16.003906 29.972656 15.890625 30.109375 15.761719 30.230469 C 14.515625 31.300781 13.269531 32.375 12.019531 33.445312 C 11.347656 34.007812 10.660156 34.550781 9.957031 35.078125 C 10.320312 35.222656 10.648438 35.421875 10.941406 35.675781 C 10.988281 35.75 11.011719 35.828125 11.011719 35.917969 C 10.851562 35.925781 10.691406 35.917969 10.53125 35.890625 C 9.847656 35.710938 9.160156 35.566406 8.46875 35.460938 C 8.808594 34.882812 9.175781 34.332031 9.574219 33.804688 C 9.863281 33.785156 10.03125 33.914062 10.078125 34.1875 C 11.449219 33.050781 12.816406 31.90625 14.179688 30.757812 C 14.746094 30.363281 15.335938 30.019531 15.953125 29.726562 Z M 15.953125 29.726562 "/>
</g>
<mask id="mask15">
  <g filter="url(#alpha)">
<rect x="0" y="0" width="50" height="50" style="fill:rgb(0%,0%,0%);fill-opacity:0.921569;stroke:none;"/>
  </g>
</mask>
<clipPath id="clip16">
  <rect width="50" height="50"/>
</clipPath>
<g id="surface51" clip-path="url(#clip16)">
<path style=" stroke:none;fill-rule:evenodd;fill:rgb(66.27451%,23.137255%,17.647059%);fill-opacity:1;" d="M 33.085938 30.253906 C 33.199219 30.246094 33.308594 30.253906 33.421875 30.277344 C 35.246094 32.007812 36.992188 33.804688 38.652344 35.675781 C 38.753906 35.417969 38.898438 35.183594 39.082031 34.980469 C 39.167969 34.910156 39.257812 34.902344 39.347656 34.957031 C 39.3125 35.265625 39.289062 35.578125 39.277344 35.890625 C 39.308594 36.300781 39.332031 36.707031 39.347656 37.117188 C 39.011719 36.796875 38.636719 36.53125 38.21875 36.324219 C 37.9375 36.246094 37.648438 36.191406 37.355469 36.15625 C 37.160156 35.679688 37.316406 35.480469 37.835938 35.554688 C 36.230469 33.933594 34.605469 32.328125 32.964844 30.734375 C 32.910156 30.546875 32.949219 30.386719 33.085938 30.253906 Z M 33.085938 30.253906 "/>
</g>
<mask id="mask16">
  <g filter="url(#alpha)">
<rect x="0" y="0" width="50" height="50" style="fill:rgb(0%,0%,0%);fill-opacity:0.929412;stroke:none;"/>
  </g>
</mask>
<clipPath id="clip17">
  <rect width="50" height="50"/>
</clipPath>
<g id="surface54" clip-path="url(#clip17)">
<path style=" stroke:none;fill-rule:evenodd;fill:rgb(66.27451%,23.137255%,17.647059%);fill-opacity:1;" d="M 23.679688 30.636719 C 23.8125 30.652344 23.933594 30.699219 24.039062 30.78125 C 24.074219 33.101562 24.074219 35.421875 24.039062 37.738281 C 24.007812 38.09375 23.976562 38.445312 23.945312 38.796875 C 24.167969 38.410156 24.417969 38.042969 24.6875 37.691406 C 24.753906 37.621094 24.832031 37.589844 24.929688 37.597656 C 24.683594 38.550781 24.300781 39.449219 23.777344 40.28125 C 23.554688 39.710938 23.257812 39.183594 22.890625 38.699219 C 22.800781 38.308594 22.953125 38.15625 23.34375 38.242188 C 23.417969 38.300781 23.476562 38.375 23.511719 38.460938 C 23.4375 35.917969 23.421875 33.375 23.464844 30.832031 C 23.53125 30.753906 23.601562 30.691406 23.679688 30.636719 Z M 23.679688 30.636719 "/>
</g>
</defs>
<g id="surface1">
<use xlink:href="#surface6" mask="url(#mask0)"/>
<use xlink:href="#surface9" mask="url(#mask1)"/>
<use xlink:href="#surface12" mask="url(#mask2)"/>
<use xlink:href="#surface15" mask="url(#mask3)"/>
<use xlink:href="#surface18" mask="url(#mask4)"/>
<use xlink:href="#surface21" mask="url(#mask5)"/>
<use xlink:href="#surface24" mask="url(#mask6)"/>
<use xlink:href="#surface27" mask="url(#mask7)"/>
<use xlink:href="#surface30" mask="url(#mask8)"/>
<use xlink:href="#surface33" mask="url(#mask9)"/>
<use xlink:href="#surface36" mask="url(#mask10)"/>
<use xlink:href="#surface39" mask="url(#mask11)"/>
<use xlink:href="#surface42" mask="url(#mask12)"/>
<use xlink:href="#surface45" mask="url(#mask13)"/>
<use xlink:href="#surface48" mask="url(#mask14)"/>
<use xlink:href="#surface51" mask="url(#mask15)"/>
<use xlink:href="#surface54" mask="url(#mask16)"/>
</g>
</svg>
