<?xml version="1.0" encoding="UTF-8"?>
<svg xmlns="http://www.w3.org/2000/svg" xmlns:xlink="http://www.w3.org/1999/xlink" width="50pt" height="50pt" viewBox="0 0 50 50" version="1.1">
<defs>
<filter id="alpha" filterUnits="objectBoundingBox" x="0%" y="0%" width="100%" height="100%">
  <feColorMatrix type="matrix" in="SourceGraphic" values="0 0 0 0 1 0 0 0 0 1 0 0 0 0 1 0 0 0 1 0"/>
</filter>
<mask id="mask0">
  <g filter="url(#alpha)">
<rect x="0" y="0" width="50" height="50" style="fill:rgb(0%,0%,0%);fill-opacity:0.992157;stroke:none;"/>
  </g>
</mask>
<clipPath id="clip1">
  <rect width="50" height="50"/>
</clipPath>
<g id="surface6" clip-path="url(#clip1)">
<path style=" stroke:none;fill-rule:evenodd;fill:rgb(0.392157%,0%,0%);fill-opacity:1;" d="M 13.453125 10.164062 C 13.730469 10.136719 14 10.101562 14.269531 10.070312 C 14.523438 10.039062 14.78125 10.027344 15.039062 10.035156 C 15.203125 10.082031 15.289062 10.1875 15.300781 10.359375 C 15.636719 10.304688 15.972656 10.296875 16.3125 10.332031 C 16.574219 10.324219 16.839844 10.3125 17.101562 10.296875 C 17.765625 10.242188 18.429688 10.1875 19.09375 10.128906 C 20.574219 10.09375 22.054688 10.046875 23.535156 9.984375 C 25.742188 9.941406 27.941406 10.035156 30.136719 10.273438 C 31.566406 10.46875 33 10.652344 34.433594 10.824219 C 36.234375 10.953125 38.03125 11.0625 39.835938 11.160156 C 41.570312 11.3125 43.296875 11.511719 45.019531 11.761719 C 45.203125 11.808594 45.382812 11.882812 45.546875 11.976562 C 46.082031 12 46.558594 12.167969 46.988281 12.480469 C 47.75 13.074219 48.304688 13.824219 48.65625 14.726562 C 48.972656 15.601562 49.109375 16.507812 49.0625 17.4375 C 49.128906 17.816406 49.195312 18.191406 49.269531 18.566406 C 49.269531 18.75 49.199219 18.898438 49.050781 19.011719 C 48.933594 19.074219 48.808594 19.121094 48.679688 19.144531 C 48.542969 19.753906 48.476562 20.375 48.476562 21.003906 C 48.492188 21.558594 48.507812 22.117188 48.523438 22.671875 C 48.472656 24.269531 48.429688 25.863281 48.402344 27.460938 C 48.410156 28.4375 48.425781 29.414062 48.453125 30.390625 C 48.460938 30.910156 48.4375 31.429688 48.378906 31.949219 C 48.394531 32.066406 48.40625 32.179688 48.414062 32.296875 C 48.597656 32.695312 48.511719 33.027344 48.164062 33.292969 C 47.914062 33.425781 47.691406 33.394531 47.492188 33.199219 C 47.46875 33.179688 47.445312 33.179688 47.417969 33.199219 C 46.433594 33.757812 45.417969 34.261719 44.371094 34.710938 C 42.601562 35.605469 40.863281 36.558594 39.164062 37.566406 C 38.707031 37.867188 38.257812 38.179688 37.816406 38.503906 C 37.765625 38.542969 37.734375 38.59375 37.722656 38.65625 C 37.816406 38.90625 37.777344 39.125 37.601562 39.316406 C 37.558594 39.351562 37.511719 39.375 37.457031 39.390625 C 37.257812 39.40625 37.058594 39.398438 36.859375 39.367188 C 35.1875 39.132812 33.53125 38.828125 31.890625 38.453125 C 29.992188 38.128906 28.078125 37.9375 26.152344 37.878906 C 23.757812 37.84375 21.367188 37.769531 18.976562 37.660156 C 17.03125 37.523438 15.085938 37.371094 13.140625 37.207031 C 10.746094 37.015625 8.34375 36.953125 5.941406 37.027344 C 5.296875 37.074219 4.851562 36.800781 4.609375 36.210938 C 4.5 35.816406 4.386719 35.425781 4.273438 35.035156 C 4.015625 34.402344 3.773438 33.761719 3.550781 33.113281 C 3.125 31.667969 2.675781 30.226562 2.207031 28.792969 C 1.855469 27.804688 1.453125 26.835938 1.007812 25.886719 C 0.933594 25.695312 0.898438 25.496094 0.898438 25.289062 C 0.753906 25.296875 0.609375 25.285156 0.46875 25.253906 C 0.285156 25.058594 0.277344 24.855469 0.445312 24.640625 C 0.417969 24.570312 0.414062 24.496094 0.433594 24.425781 C 0.519531 24.113281 0.609375 23.800781 0.695312 23.488281 C 0.742188 23.132812 0.796875 22.78125 0.863281 22.429688 C 1.621094 19.488281 2.996094 16.886719 4.992188 14.628906 C 7.289062 12.175781 10.113281 10.6875 13.453125 10.164062 Z M 43.578125 12.542969 C 43.546875 12.542969 43.515625 12.542969 43.484375 12.542969 C 36.40625 12.011719 29.332031 11.46875 22.261719 10.910156 C 24.71875 10.824219 27.167969 10.910156 29.609375 11.160156 C 31.058594 11.347656 32.503906 11.53125 33.953125 11.714844 C 35.769531 11.847656 37.585938 11.96875 39.402344 12.074219 C 40.800781 12.199219 42.195312 12.355469 43.578125 12.542969 Z M 43.578125 12.542969 "/>
</g>
<mask id="mask1">
  <g filter="url(#alpha)">
<rect x="0" y="0" width="50" height="50" style="fill:rgb(0%,0%,0%);fill-opacity:0.415686;stroke:none;"/>
  </g>
</mask>
<clipPath id="clip2">
  <rect width="50" height="50"/>
</clipPath>
<g id="surface9" clip-path="url(#clip2)">
<path style=" stroke:none;fill-rule:evenodd;fill:rgb(74.117647%,74.117647%,74.117647%);fill-opacity:1;" d="M 14.269531 10.070312 C 14 10.101562 13.730469 10.136719 13.453125 10.164062 C 13.71875 10.09375 13.992188 10.0625 14.269531 10.070312 Z M 14.269531 10.070312 "/>
</g>
</defs>
<g id="surface1">
<use xlink:href="#surface6" mask="url(#mask0)"/>
<use xlink:href="#surface9" mask="url(#mask1)"/>
<path style=" stroke:none;fill-rule:evenodd;fill:rgb(99.607843%,99.607843%,99.607843%);fill-opacity:1;" d="M 22.261719 10.910156 C 29.332031 11.46875 36.40625 12.011719 43.484375 12.542969 C 42.585938 12.601562 41.769531 12.894531 41.035156 13.417969 C 40.480469 13.828125 39.988281 14.304688 39.558594 14.847656 C 38.929688 15.675781 38.394531 16.5625 37.949219 17.511719 C 37.355469 18.789062 36.871094 20.109375 36.496094 21.472656 C 36.261719 22.144531 36.085938 22.832031 35.96875 23.535156 C 35.730469 24.453125 35.539062 25.378906 35.394531 26.320312 C 35.328125 26.65625 35.28125 26.992188 35.25 27.328125 C 35.050781 27.21875 34.84375 27.125 34.625 27.050781 C 34.546875 27.035156 34.464844 27.035156 34.386719 27.050781 C 34.335938 27.085938 34.277344 27.105469 34.21875 27.113281 C 32.578125 26.851562 30.941406 26.605469 29.296875 26.378906 C 26.183594 26.035156 23.070312 25.6875 19.960938 25.335938 C 19.820312 24.867188 19.667969 24.402344 19.503906 23.945312 C 19.503906 23.871094 19.503906 23.800781 19.503906 23.726562 C 18.175781 23.492188 16.847656 23.25 15.519531 23.007812 C 15.84375 22.882812 16.179688 22.78125 16.527344 22.707031 C 17.074219 22.664062 17.621094 22.660156 18.171875 22.695312 C 18.414062 22.675781 18.652344 22.644531 18.890625 22.601562 C 18.976562 22.589844 19.054688 22.613281 19.117188 22.671875 C 19.148438 22.609375 19.152344 22.546875 19.132812 22.480469 C 19.070312 22.429688 19.003906 22.394531 18.925781 22.371094 C 18.753906 22.34375 18.578125 22.328125 18.398438 22.324219 C 17.667969 22.121094 16.921875 22.042969 16.167969 22.082031 C 15.734375 22.199219 15.292969 22.234375 14.847656 22.191406 C 14.734375 22.199219 14.621094 22.214844 14.511719 22.238281 C 14.15625 22.101562 13.878906 22.191406 13.683594 22.503906 C 13.574219 22.8125 13.648438 23.066406 13.898438 23.273438 C 13.964844 23.808594 14.035156 24.34375 14.101562 24.878906 C 11.820312 24.835938 9.542969 24.792969 7.261719 24.746094 C 5.570312 24.703125 3.882812 24.632812 2.195312 24.53125 C 1.875 24.519531 1.554688 24.515625 1.234375 24.519531 C 1.144531 24.527344 1.054688 24.519531 0.972656 24.496094 C 1.046875 24.246094 1.132812 23.996094 1.222656 23.75 C 1.390625 22.824219 1.625 21.910156 1.921875 21.015625 C 2.773438 18.832031 3.976562 16.871094 5.519531 15.132812 C 7.34375 13.222656 9.53125 11.90625 12.085938 11.1875 C 13.007812 10.933594 13.941406 10.824219 14.894531 10.863281 C 14.960938 11.0625 15.097656 11.136719 15.300781 11.089844 C 15.347656 11.066406 15.390625 11.035156 15.421875 10.992188 C 15.515625 10.988281 15.605469 10.984375 15.699219 10.980469 C 16.085938 11.03125 16.472656 11.054688 16.863281 11.054688 C 18.660156 10.972656 20.460938 10.925781 22.261719 10.910156 Z M 22.261719 10.910156 "/>
<path style=" stroke:none;fill-rule:evenodd;fill:rgb(62.745098%,56.862745%,58.823529%);fill-opacity:1;" d="M 43.484375 12.542969 C 43.515625 12.542969 43.546875 12.542969 43.578125 12.542969 C 43.140625 12.777344 42.6875 13.003906 42.210938 13.226562 C 41.234375 13.8125 40.398438 14.558594 39.703125 15.46875 C 39.101562 16.253906 38.574219 17.085938 38.117188 17.96875 C 37.503906 19.105469 36.964844 20.273438 36.496094 21.472656 C 36.871094 20.109375 37.355469 18.789062 37.949219 17.511719 C 38.394531 16.5625 38.929688 15.675781 39.558594 14.847656 C 39.988281 14.304688 40.480469 13.828125 41.035156 13.417969 C 41.769531 12.894531 42.585938 12.601562 43.484375 12.542969 Z M 43.484375 12.542969 "/>
<path style=" stroke:none;fill-rule:evenodd;fill:rgb(62.745098%,56.862745%,58.823529%);fill-opacity:1;" d="M 45.5 12.878906 C 45.679688 12.898438 45.847656 12.957031 46.003906 13.058594 C 47.023438 13.746094 47.644531 14.703125 47.863281 15.925781 C 47.914062 16.414062 47.9375 16.902344 47.9375 17.390625 C 47.972656 17.703125 48.015625 18.015625 48.054688 18.328125 C 47.925781 18.398438 47.792969 18.464844 47.660156 18.53125 C 46.695312 19.191406 45.71875 19.828125 44.730469 20.453125 C 43.722656 21.164062 42.730469 21.898438 41.753906 22.660156 C 41.167969 23.070312 40.582031 23.484375 40.003906 23.90625 C 39.539062 24.308594 39.074219 24.707031 38.609375 25.109375 C 38.054688 25.496094 37.5 25.886719 36.953125 26.285156 C 36.664062 26.527344 36.386719 26.785156 36.125 27.0625 C 36.113281 26.953125 36.121094 26.839844 36.148438 26.726562 C 36.253906 26.261719 36.367188 25.796875 36.484375 25.335938 C 36.605469 24.640625 36.734375 23.941406 36.871094 23.246094 C 37.121094 22.253906 37.464844 21.292969 37.902344 20.367188 C 38.527344 19.011719 39.253906 17.726562 40.085938 16.503906 C 40.648438 15.738281 41.300781 15.0625 42.042969 14.472656 C 42.285156 14.304688 42.53125 14.144531 42.785156 13.996094 C 43.316406 13.738281 43.84375 13.480469 44.371094 13.226562 C 44.574219 13.140625 44.78125 13.066406 44.996094 13.011719 C 45.082031 13.007812 45.171875 13.007812 45.257812 13.011719 C 45.339844 12.957031 45.417969 12.914062 45.5 12.878906 Z M 45.5 12.878906 "/>
<path style=" stroke:none;fill-rule:evenodd;fill:rgb(62.745098%,56.862745%,58.823529%);fill-opacity:1;" d="M 47.875 19.550781 C 47.890625 19.558594 47.898438 19.570312 47.898438 19.585938 C 47.742188 20.15625 47.640625 20.738281 47.601562 21.328125 C 47.503906 23.21875 47.378906 25.105469 47.214844 26.992188 C 47.207031 28.375 47.199219 29.761719 47.191406 31.144531 C 47.121094 31.597656 47.117188 32.050781 47.179688 32.5 C 47.175781 32.527344 47.167969 32.550781 47.15625 32.574219 C 46.574219 32.824219 45.996094 33.089844 45.425781 33.367188 C 42.671875 34.480469 40.054688 35.84375 37.578125 37.457031 C 37.5625 36.21875 37.421875 34.996094 37.15625 33.785156 C 36.894531 32.558594 36.621094 31.332031 36.34375 30.113281 C 36.152344 29.511719 35.964844 28.914062 35.777344 28.3125 C 35.890625 28.300781 35.984375 28.257812 36.066406 28.179688 C 37.03125 27.300781 38.070312 26.527344 39.1875 25.851562 C 39.660156 25.460938 40.128906 25.066406 40.601562 24.675781 C 41.84375 23.816406 43.058594 22.917969 44.25 21.988281 C 45.460938 21.175781 46.667969 20.363281 47.875 19.550781 Z M 47.875 19.550781 "/>
<path style=" stroke:none;fill-rule:evenodd;fill:rgb(66.27451%,22.745098%,17.647059%);fill-opacity:1;" d="M 15.519531 23.007812 C 16.847656 23.25 18.175781 23.492188 19.503906 23.726562 C 19.503906 23.800781 19.503906 23.871094 19.503906 23.945312 C 19.410156 23.851562 19.320312 23.851562 19.226562 23.945312 C 19.210938 24.0625 19.210938 24.183594 19.226562 24.304688 C 19.269531 24.625 19.304688 24.945312 19.335938 25.265625 C 17.777344 25.105469 16.21875 24.988281 14.65625 24.914062 C 14.589844 24.519531 14.523438 24.125 14.449219 23.726562 C 14.4375 23.589844 14.425781 23.457031 14.425781 23.320312 C 14.476562 23.296875 14.527344 23.273438 14.582031 23.257812 C 14.671875 23.183594 14.765625 23.121094 14.871094 23.066406 C 15.089844 23.066406 15.304688 23.042969 15.519531 23.007812 Z M 15.519531 23.007812 "/>
<path style=" stroke:none;fill-rule:evenodd;fill:rgb(60%,54.901961%,56.470588%);fill-opacity:1;" d="M 35.96875 23.535156 C 35.839844 24.480469 35.648438 25.410156 35.394531 26.320312 C 35.539062 25.378906 35.730469 24.453125 35.96875 23.535156 Z M 35.96875 23.535156 "/>
<path style=" stroke:none;fill-rule:evenodd;fill:rgb(48.627451%,48.627451%,48.627451%);fill-opacity:1;" d="M 0.972656 24.496094 C 1.054688 24.519531 1.144531 24.527344 1.234375 24.519531 C 1.144531 24.550781 1.046875 24.550781 0.949219 24.519531 C 0.949219 24.503906 0.960938 24.496094 0.972656 24.496094 Z M 0.972656 24.496094 "/>
<path style=" stroke:none;fill-rule:evenodd;fill:rgb(99.607843%,99.607843%,99.607843%);fill-opacity:1;" d="M 35.273438 29.199219 C 35.5625 32.210938 35.859375 35.21875 36.160156 38.226562 C 35.558594 38.1875 34.957031 38.109375 34.363281 38 C 33.578125 37.824219 32.796875 37.65625 32.007812 37.492188 C 30.535156 37.257812 29.054688 37.082031 27.570312 36.964844 C 24.839844 36.875 22.113281 36.789062 19.382812 36.703125 C 17.515625 36.578125 15.652344 36.417969 13.789062 36.222656 C 11.929688 36.054688 10.066406 35.960938 8.199219 35.945312 C 7.363281 35.96875 6.53125 35.996094 5.699219 36.03125 C 5.589844 35.992188 5.523438 35.914062 5.496094 35.800781 C 5.417969 35.515625 5.335938 35.226562 5.257812 34.9375 C 5.007812 34.378906 4.773438 33.808594 4.5625 33.234375 C 4.101562 31.875 3.65625 30.515625 3.214844 29.152344 C 2.800781 27.9375 2.28125 26.769531 1.65625 25.648438 C 1.582031 25.527344 1.53125 25.398438 1.5 25.265625 C 3.253906 25.351562 5.003906 25.4375 6.757812 25.515625 C 9.214844 25.585938 11.671875 25.664062 14.125 25.742188 C 14.085938 26.582031 14.171875 27.40625 14.378906 28.214844 C 14.4375 28.523438 14.617188 28.710938 14.917969 28.78125 C 15.78125 28.757812 16.648438 28.742188 17.511719 28.734375 C 17.75 28.765625 17.992188 28.804688 18.230469 28.851562 C 18.648438 28.832031 19.054688 28.878906 19.457031 28.996094 C 19.738281 29.058594 19.972656 28.984375 20.164062 28.769531 C 20.210938 28.6875 20.242188 28.597656 20.257812 28.503906 C 20.316406 27.757812 20.296875 27.015625 20.199219 26.273438 C 23.175781 26.652344 26.152344 27.015625 29.128906 27.363281 C 30.742188 27.597656 32.347656 27.851562 33.953125 28.132812 C 34.238281 28.199219 34.519531 28.289062 34.792969 28.398438 C 34.90625 28.40625 35.019531 28.40625 35.128906 28.398438 C 35.179688 28.664062 35.226562 28.933594 35.273438 29.199219 Z M 35.273438 29.199219 "/>
<path style=" stroke:none;fill-rule:evenodd;fill:rgb(66.27451%,23.137255%,18.039216%);fill-opacity:1;" d="M 14.703125 25.792969 C 16.28125 25.875 17.859375 26.007812 19.429688 26.1875 C 19.46875 26.414062 19.484375 26.640625 19.480469 26.871094 C 19.46875 27.222656 19.460938 27.578125 19.457031 27.929688 C 17.957031 27.808594 16.460938 27.679688 14.964844 27.542969 C 14.871094 26.960938 14.78125 26.378906 14.703125 25.792969 Z M 14.703125 25.792969 "/>
<path style=" stroke:none;fill-rule:evenodd;fill:rgb(98.039216%,97.254902%,97.254902%);fill-opacity:1;" d="M 14.703125 25.792969 C 14.78125 26.378906 14.871094 26.960938 14.964844 27.542969 C 16.460938 27.679688 17.957031 27.808594 19.457031 27.929688 C 19.457031 28.007812 19.457031 28.089844 19.457031 28.167969 C 19.335938 28.144531 19.214844 28.125 19.09375 28.109375 C 18.445312 28.097656 17.796875 28.058594 17.152344 28 C 16.421875 28.054688 15.691406 28.113281 14.964844 28.179688 C 14.835938 27.738281 14.742188 27.285156 14.691406 26.824219 C 14.671875 26.460938 14.675781 26.117188 14.703125 25.792969 Z M 14.703125 25.792969 "/>
<path style=" stroke:none;fill-rule:evenodd;fill:rgb(62.352941%,56.470588%,58.431373%);fill-opacity:1;" d="M 35.273438 29.199219 C 35.355469 29.546875 35.421875 29.898438 35.476562 30.257812 C 35.71875 31.742188 35.941406 33.230469 36.148438 34.722656 C 36.199219 35.113281 36.234375 35.503906 36.246094 35.898438 C 36.253906 36.554688 36.261719 37.210938 36.269531 37.867188 C 36.277344 37.996094 36.292969 38.121094 36.304688 38.25 C 36.257812 38.25 36.207031 38.242188 36.160156 38.226562 C 35.859375 35.21875 35.5625 32.210938 35.273438 29.199219 Z M 35.273438 29.199219 "/>
</g>
</svg>
