<?xml version="1.0" encoding="UTF-8"?>
<svg xmlns="http://www.w3.org/2000/svg" xmlns:xlink="http://www.w3.org/1999/xlink" width="50pt" height="50pt" viewBox="0 0 50 50" version="1.1">
<defs>
<filter id="alpha" filterUnits="objectBoundingBox" x="0%" y="0%" width="100%" height="100%">
  <feColorMatrix type="matrix" in="SourceGraphic" values="0 0 0 0 1 0 0 0 0 1 0 0 0 0 1 0 0 0 1 0"/>
</filter>
<mask id="mask0">
  <g filter="url(#alpha)">
<rect x="0" y="0" width="50" height="50" style="fill:rgb(0%,0%,0%);fill-opacity:0.988235;stroke:none;"/>
  </g>
</mask>
<clipPath id="clip1">
  <rect width="50" height="50"/>
</clipPath>
<g id="surface6" clip-path="url(#clip1)">
<path style=" stroke:none;fill-rule:evenodd;fill:rgb(0%,0%,0%);fill-opacity:1;" d="M 26.441406 1.980469 C 27.371094 1.921875 28.234375 2.132812 29.03125 2.617188 C 29.859375 3.171875 30.558594 3.855469 31.132812 4.667969 C 32.402344 6.539062 33.324219 8.570312 33.894531 10.765625 C 34.277344 12.421875 34.21875 14.0625 33.726562 15.6875 C 33.261719 17.113281 32.652344 18.472656 31.902344 19.765625 C 31.292969 20.8125 30.679688 21.855469 30.054688 22.886719 C 29.765625 23.386719 29.488281 23.890625 29.210938 24.398438 C 28.777344 25.3125 28.359375 26.230469 27.964844 27.160156 C 27.480469 28.210938 26.859375 29.160156 26.09375 30.015625 C 25.859375 30.34375 25.667969 30.699219 25.515625 31.074219 C 25.382812 31.503906 25.230469 31.929688 25.058594 32.34375 C 24.773438 32.976562 24.355469 33.5 23.800781 33.917969 C 23.363281 34.175781 22.90625 34.210938 22.429688 34.011719 C 21.71875 33.691406 21.394531 33.132812 21.460938 32.34375 C 21.476562 32.214844 21.507812 32.085938 21.554688 31.960938 C 21.710938 31.695312 21.855469 31.425781 21.988281 31.144531 C 22.203125 30.621094 22.414062 30.09375 22.613281 29.5625 C 22.804688 29.113281 23.042969 28.699219 23.332031 28.3125 C 23.738281 27.832031 24.15625 27.359375 24.578125 26.894531 C 24.941406 26.433594 25.25 25.9375 25.515625 25.40625 C 25.9375 24.492188 26.378906 23.589844 26.835938 22.695312 C 27.683594 21.351562 28.558594 20.023438 29.453125 18.710938 C 30.203125 17.582031 30.824219 16.378906 31.324219 15.109375 C 31.695312 14.136719 31.902344 13.128906 31.9375 12.085938 C 31.921875 11.632812 31.871094 11.183594 31.78125 10.742188 C 31.355469 8.886719 30.699219 7.117188 29.8125 5.4375 C 29.378906 4.660156 28.816406 3.992188 28.121094 3.433594 C 27.339844 2.878906 26.484375 2.71875 25.550781 2.953125 C 25.226562 3.046875 24.90625 3.15625 24.59375 3.289062 C 23.601562 3.742188 22.625 4.222656 21.664062 4.730469 C 21.101562 5.109375 20.625 5.574219 20.234375 6.132812 C 19.984375 6.480469 19.753906 6.839844 19.539062 7.214844 C 19.429688 7.28125 19.382812 7.25 19.394531 7.117188 C 19.824219 6.191406 20.40625 5.371094 21.136719 4.65625 C 21.261719 4.554688 21.390625 4.449219 21.519531 4.34375 C 22.519531 3.6875 23.550781 3.082031 24.617188 2.519531 C 25.199219 2.242188 25.804688 2.0625 26.441406 1.980469 Z M 26.441406 1.980469 "/>
</g>
<mask id="mask1">
  <g filter="url(#alpha)">
<rect x="0" y="0" width="50" height="50" style="fill:rgb(0%,0%,0%);fill-opacity:0.992157;stroke:none;"/>
  </g>
</mask>
<clipPath id="clip2">
  <rect width="50" height="50"/>
</clipPath>
<g id="surface9" clip-path="url(#clip2)">
<path style=" stroke:none;fill-rule:evenodd;fill:rgb(0%,0%,0%);fill-opacity:1;" d="M 23.777344 41.5625 C 24.65625 41.53125 25.457031 41.765625 26.175781 42.269531 C 26.742188 42.734375 27.082031 43.328125 27.195312 44.058594 C 27.242188 44.328125 27.261719 44.601562 27.257812 44.875 C 27.25 45.625 27.183594 46.371094 27.050781 47.109375 C 26.464844 49.015625 25.226562 49.628906 23.34375 48.945312 C 22.480469 48.550781 21.765625 47.980469 21.195312 47.226562 C 20.808594 46.640625 20.621094 45.992188 20.632812 45.285156 C 20.675781 44.496094 20.789062 43.71875 20.980469 42.953125 C 21.0625 42.648438 21.257812 42.449219 21.566406 42.367188 C 21.648438 42.34375 21.734375 42.332031 21.820312 42.332031 C 21.910156 42.339844 22.003906 42.34375 22.09375 42.34375 C 22.574219 41.90625 23.136719 41.648438 23.777344 41.5625 Z M 23.777344 41.5625 "/>
</g>
</defs>
<g id="surface1">
<use xlink:href="#surface6" mask="url(#mask0)"/>
<use xlink:href="#surface9" mask="url(#mask1)"/>
<path style=" stroke:none;fill-rule:evenodd;fill:rgb(98.823529%,98.823529%,98.823529%);fill-opacity:1;" d="M 24.0625 44.179688 C 24.136719 44.175781 24.207031 44.179688 24.28125 44.191406 C 24.382812 44.230469 24.484375 44.261719 24.59375 44.285156 C 24.707031 44.375 24.765625 44.492188 24.773438 44.636719 C 24.789062 45.21875 24.78125 45.804688 24.746094 46.386719 C 24.753906 46.585938 24.703125 46.765625 24.59375 46.925781 C 24.390625 46.949219 24.199219 46.917969 24.015625 46.832031 C 23.769531 46.714844 23.539062 46.578125 23.320312 46.421875 C 23.515625 46.21875 23.632812 45.972656 23.667969 45.691406 C 23.628906 45.203125 23.71875 44.738281 23.933594 44.300781 C 23.976562 44.257812 24.019531 44.214844 24.0625 44.179688 Z M 24.0625 44.179688 "/>
</g>
</svg>
