<?xml version="1.0" encoding="UTF-8"?>
<svg xmlns="http://www.w3.org/2000/svg" xmlns:xlink="http://www.w3.org/1999/xlink" width="50pt" height="50pt" viewBox="0 0 50 50" version="1.1">
<defs>
<filter id="alpha" filterUnits="objectBoundingBox" x="0%" y="0%" width="100%" height="100%">
  <feColorMatrix type="matrix" in="SourceGraphic" values="0 0 0 0 1 0 0 0 0 1 0 0 0 0 1 0 0 0 1 0"/>
</filter>
<mask id="mask0">
  <g filter="url(#alpha)">
<rect x="0" y="0" width="50" height="50" style="fill:rgb(0%,0%,0%);fill-opacity:0.984314;stroke:none;"/>
  </g>
</mask>
<clipPath id="clip1">
  <rect width="50" height="50"/>
</clipPath>
<g id="surface6" clip-path="url(#clip1)">
<path style=" stroke:none;fill-rule:evenodd;fill:rgb(0.392157%,0.392157%,0.392157%);fill-opacity:1;" d="M 6.492188 14.992188 C 6.472656 15.035156 6.460938 15.082031 6.457031 15.132812 C 6.433594 15.5625 6.449219 15.988281 6.492188 16.40625 C 6.78125 19.082031 6.871094 21.761719 6.769531 24.449219 C 6.847656 25.617188 6.929688 26.785156 7.007812 27.953125 C 7.035156 28.105469 7.105469 28.238281 7.214844 28.347656 C 7.871094 28.84375 8.496094 29.375 9.097656 29.945312 C 9.589844 30.597656 9.871094 31.332031 9.9375 32.152344 C 10.023438 33.210938 10.015625 34.265625 9.914062 35.320312 C 9.828125 36.296875 9.523438 37.191406 9 38.011719 C 8.804688 38.289062 8.542969 38.488281 8.222656 38.597656 C 7.054688 38.679688 5.886719 38.75 4.714844 38.800781 C 4.433594 38.832031 4.1875 38.757812 3.972656 38.574219 C 3.195312 37.769531 2.65625 36.820312 2.351562 35.730469 C 1.945312 34.367188 1.890625 32.988281 2.183594 31.601562 C 2.417969 30.699219 2.882812 29.941406 3.589844 29.332031 C 3.777344 29.179688 3.960938 29.023438 4.140625 28.863281 C 4.085938 28.714844 4.050781 28.566406 4.03125 28.410156 C 3.96875 27.746094 3.914062 27.082031 3.863281 26.417969 C 3.855469 25.230469 3.871094 24.046875 3.914062 22.863281 C 3.929688 22.351562 3.964844 21.839844 4.019531 21.328125 C 4.078125 20.960938 4.101562 20.589844 4.09375 20.210938 C 4.082031 18.808594 3.953125 17.421875 3.707031 16.046875 C 3.570312 15.40625 3.53125 14.757812 3.589844 14.101562 C 3.617188 13.890625 3.644531 13.675781 3.671875 13.453125 C 3.707031 13.363281 3.765625 13.296875 3.851562 13.25 C 3.804688 13.230469 3.757812 13.21875 3.707031 13.214844 C 3.492188 13.164062 3.320312 13.054688 3.191406 12.878906 C 3.117188 12.710938 3.152344 12.578125 3.300781 12.480469 C 3.558594 12.382812 3.824219 12.371094 4.09375 12.457031 C 4.722656 12.621094 5.347656 12.804688 5.964844 13.011719 C 6.261719 13.117188 6.523438 13.28125 6.746094 13.503906 C 6.769531 13.539062 6.789062 13.578125 6.804688 13.621094 C 6.792969 13.699219 6.789062 13.78125 6.792969 13.863281 C 6.617188 14.21875 6.515625 14.59375 6.492188 14.992188 Z M 3.875 12.710938 C 3.875 12.75 3.867188 12.792969 3.851562 12.828125 C 3.53125 12.753906 3.539062 12.714844 3.875 12.710938 Z M 4.789062 12.878906 C 5.289062 12.976562 5.769531 13.132812 6.230469 13.347656 C 6.328125 13.402344 6.414062 13.472656 6.492188 13.550781 C 6.421875 13.578125 6.375 13.625 6.347656 13.695312 C 5.824219 13.429688 5.304688 13.15625 4.789062 12.878906 Z M 4.789062 12.878906 "/>
</g>
<mask id="mask1">
  <g filter="url(#alpha)">
<rect x="0" y="0" width="50" height="50" style="fill:rgb(0%,0%,0%);fill-opacity:0.984314;stroke:none;"/>
  </g>
</mask>
<clipPath id="clip2">
  <rect width="50" height="50"/>
</clipPath>
<g id="surface9" clip-path="url(#clip2)">
<path style=" stroke:none;fill-rule:evenodd;fill:rgb(72.156863%,70.588235%,68.627451%);fill-opacity:1;" d="M 4.742188 12.855469 C 4.75 12.875 4.765625 12.882812 4.789062 12.878906 C 5.304688 13.15625 5.824219 13.429688 6.347656 13.695312 C 6.332031 13.792969 6.285156 13.867188 6.203125 13.921875 C 5.949219 14.058594 5.675781 14.105469 5.390625 14.066406 C 5.023438 14.007812 4.6875 13.875 4.378906 13.671875 C 4.429688 13.402344 4.324219 13.234375 4.070312 13.167969 C 4.101562 13.085938 4.097656 13.003906 4.058594 12.925781 C 3.984375 12.902344 3.914062 12.867188 3.851562 12.828125 C 3.867188 12.792969 3.875 12.75 3.875 12.710938 C 4.171875 12.707031 4.460938 12.753906 4.742188 12.855469 Z M 4.742188 12.855469 "/>
</g>
<mask id="mask2">
  <g filter="url(#alpha)">
<rect x="0" y="0" width="50" height="50" style="fill:rgb(0%,0%,0%);fill-opacity:0.811765;stroke:none;"/>
  </g>
</mask>
<clipPath id="clip3">
  <rect width="50" height="50"/>
</clipPath>
<g id="surface12" clip-path="url(#clip3)">
<path style=" stroke:none;fill-rule:evenodd;fill:rgb(69.803922%,68.235294%,66.27451%);fill-opacity:1;" d="M 3.707031 13.214844 C 3.757812 13.21875 3.804688 13.230469 3.851562 13.25 C 3.765625 13.296875 3.707031 13.363281 3.671875 13.453125 C 3.644531 13.675781 3.617188 13.890625 3.589844 14.101562 C 3.5625 13.796875 3.601562 13.5 3.707031 13.214844 Z M 3.707031 13.214844 "/>
</g>
<mask id="mask3">
  <g filter="url(#alpha)">
<rect x="0" y="0" width="50" height="50" style="fill:rgb(0%,0%,0%);fill-opacity:0.984314;stroke:none;"/>
  </g>
</mask>
<clipPath id="clip4">
  <rect width="50" height="50"/>
</clipPath>
<g id="surface15" clip-path="url(#clip4)">
<path style=" stroke:none;fill-rule:evenodd;fill:rgb(0.392157%,0%,0%);fill-opacity:1;" d="M 26.128906 15.972656 C 26.066406 16.085938 26.023438 16.207031 25.996094 16.335938 C 25.933594 16.6875 25.859375 17.039062 25.78125 17.390625 C 25.769531 17.605469 25.773438 17.824219 25.792969 18.039062 C 25.773438 18.25 25.757812 18.460938 25.742188 18.675781 C 25.824219 19.269531 25.882812 19.863281 25.925781 20.464844 C 26.066406 20.851562 26.214844 21.238281 26.367188 21.617188 C 26.433594 21.824219 26.546875 22.003906 26.703125 22.15625 C 26.996094 22.296875 27.292969 22.433594 27.59375 22.5625 C 28.523438 23.121094 29.335938 23.820312 30.027344 24.664062 C 30.808594 25.820312 31.117188 27.089844 30.953125 28.480469 C 31.570312 28.535156 32.179688 28.652344 32.777344 28.828125 C 33.132812 28.925781 33.285156 29.160156 33.234375 29.523438 C 33.300781 29.703125 33.273438 29.867188 33.148438 30.015625 C 33.125 30.125 33.113281 30.230469 33.113281 30.339844 C 33.140625 30.761719 33.183594 31.183594 33.246094 31.601562 C 33.339844 32.921875 33.441406 34.242188 33.558594 35.5625 C 33.605469 36.671875 33.621094 37.785156 33.605469 38.898438 C 33.488281 39.113281 33.308594 39.199219 33.066406 39.148438 C 32.921875 39.117188 32.820312 39.035156 32.765625 38.898438 C 32.761719 37.699219 32.738281 36.496094 32.691406 35.296875 C 32.605469 34.171875 32.53125 33.042969 32.476562 31.914062 C 32.402344 31.347656 32.351562 30.777344 32.320312 30.207031 C 32.117188 30.273438 31.910156 30.328125 31.695312 30.363281 C 31.277344 30.425781 30.863281 30.492188 30.449219 30.570312 C 30.25 30.984375 30.035156 31.390625 29.8125 31.792969 C 29.367188 32.359375 28.9375 32.9375 28.515625 33.519531 C 27.835938 34.234375 27.121094 34.914062 26.378906 35.5625 C 26.371094 36.144531 26.363281 36.730469 26.355469 37.3125 C 26.261719 37.519531 26.105469 37.589844 25.886719 37.519531 C 25.824219 37.496094 25.773438 37.460938 25.730469 37.410156 C 25.695312 36.914062 25.683594 36.417969 25.695312 35.921875 C 25.460938 35.949219 25.265625 35.878906 25.109375 35.707031 C 24.933594 35.429688 24.765625 35.148438 24.605469 34.867188 C 24.347656 34.554688 24.085938 34.25 23.8125 33.953125 C 23.046875 32.828125 22.167969 31.796875 21.171875 30.855469 C 21.15625 30.820312 21.132812 30.78125 21.113281 30.75 C 20.835938 30.699219 20.566406 30.652344 20.296875 30.605469 C 20.3125 30.695312 20.328125 30.785156 20.332031 30.882812 C 20.339844 31.464844 20.347656 32.050781 20.355469 32.632812 C 20.410156 33.53125 20.476562 34.425781 20.546875 35.320312 C 20.589844 36.144531 20.628906 36.96875 20.65625 37.792969 C 20.695312 38.199219 20.519531 38.363281 20.128906 38.285156 C 19.980469 38.207031 19.90625 38.082031 19.898438 37.914062 C 19.855469 36.277344 19.757812 34.644531 19.609375 33.015625 C 19.574219 32.105469 19.566406 31.191406 19.585938 30.28125 C 19.59375 30.238281 19.609375 30.199219 19.625 30.160156 C 19.539062 29.617188 19.753906 29.257812 20.269531 29.082031 C 20.328125 29.070312 20.367188 29.042969 20.390625 28.996094 C 20.324219 28.855469 20.273438 28.707031 20.234375 28.550781 C 20.226562 28.539062 20.214844 28.53125 20.199219 28.527344 C 20.101562 27.960938 20.105469 27.390625 20.210938 26.824219 C 20.351562 26.136719 20.585938 25.480469 20.90625 24.855469 C 20.972656 24.746094 21.046875 24.644531 21.125 24.542969 C 21.582031 24.050781 22.042969 23.558594 22.503906 23.066406 C 22.875 22.746094 23.296875 22.527344 23.777344 22.40625 C 23.640625 21.644531 23.492188 20.886719 23.332031 20.128906 C 23.257812 19.394531 23.234375 18.65625 23.257812 17.917969 C 23.277344 17.589844 23.402344 17.316406 23.632812 17.089844 C 23.605469 17.015625 23.589844 16.941406 23.582031 16.863281 C 23.582031 16.535156 23.628906 16.214844 23.714844 15.902344 C 23.863281 15.582031 24.042969 15.28125 24.257812 15.003906 C 24.445312 14.890625 24.644531 14.867188 24.855469 14.929688 C 25.054688 15 25.253906 15.0625 25.457031 15.121094 C 25.730469 15.140625 26.007812 15.136719 26.285156 15.109375 C 26.460938 15.113281 26.535156 15.199219 26.5 15.375 C 26.339844 15.550781 26.214844 15.75 26.128906 15.972656 Z M 24.808594 15.300781 C 24.726562 15.292969 24.648438 15.285156 24.566406 15.277344 C 24.433594 15.703125 24.28125 16.121094 24.113281 16.527344 C 24.140625 16.246094 24.222656 15.980469 24.363281 15.734375 C 24.394531 15.589844 24.4375 15.445312 24.484375 15.300781 C 24.515625 15.265625 24.554688 15.242188 24.605469 15.230469 C 24.679688 15.246094 24.746094 15.269531 24.808594 15.300781 Z M 24.808594 15.300781 "/>
</g>
<mask id="mask4">
  <g filter="url(#alpha)">
<rect x="0" y="0" width="50" height="50" style="fill:rgb(0%,0%,0%);fill-opacity:0.992157;stroke:none;"/>
  </g>
</mask>
<clipPath id="clip5">
  <rect width="50" height="50"/>
</clipPath>
<g id="surface18" clip-path="url(#clip5)">
<path style=" stroke:none;fill-rule:evenodd;fill:rgb(72.54902%,70.980392%,69.019608%);fill-opacity:1;" d="M 24.808594 15.300781 C 25 15.355469 25.195312 15.414062 25.382812 15.484375 C 25.519531 15.488281 25.65625 15.5 25.792969 15.519531 C 25.679688 15.699219 25.589844 15.894531 25.515625 16.09375 C 25.4375 16.367188 25.355469 16.640625 25.277344 16.910156 C 25.214844 17.132812 25.179688 17.355469 25.167969 17.582031 C 25.015625 17.542969 24.871094 17.484375 24.734375 17.402344 C 24.546875 17.238281 24.328125 17.125 24.085938 17.054688 C 24.109375 16.878906 24.117188 16.703125 24.113281 16.527344 C 24.28125 16.121094 24.433594 15.703125 24.566406 15.277344 C 24.648438 15.285156 24.726562 15.292969 24.808594 15.300781 Z M 24.808594 15.300781 "/>
</g>
<mask id="mask5">
  <g filter="url(#alpha)">
<rect x="0" y="0" width="50" height="50" style="fill:rgb(0%,0%,0%);fill-opacity:0.960784;stroke:none;"/>
  </g>
</mask>
<clipPath id="clip6">
  <rect width="50" height="50"/>
</clipPath>
<g id="surface21" clip-path="url(#clip6)">
<path style=" stroke:none;fill-rule:evenodd;fill:rgb(0.392157%,0.392157%,0.392157%);fill-opacity:1;" d="M 16.789062 15.878906 C 17.488281 15.914062 17.902344 16.273438 18.027344 16.957031 C 18.082031 17.46875 17.910156 17.882812 17.511719 18.195312 C 17.242188 18.363281 16.960938 18.386719 16.671875 18.265625 C 16.5 18.175781 16.332031 18.082031 16.167969 17.980469 C 16.128906 17.902344 16.109375 17.816406 16.105469 17.726562 C 15.492188 17.261719 15.453125 16.753906 16 16.203125 C 16.230469 16.015625 16.496094 15.90625 16.789062 15.878906 Z M 16.789062 15.878906 "/>
</g>
<mask id="mask6">
  <g filter="url(#alpha)">
<rect x="0" y="0" width="50" height="50" style="fill:rgb(0%,0%,0%);fill-opacity:0.972549;stroke:none;"/>
  </g>
</mask>
<clipPath id="clip7">
  <rect width="50" height="50"/>
</clipPath>
<g id="surface24" clip-path="url(#clip7)">
<path style=" stroke:none;fill-rule:evenodd;fill:rgb(72.156863%,70.588235%,68.627451%);fill-opacity:1;" d="M 26.128906 15.972656 C 26.214844 17.855469 26.292969 19.734375 26.367188 21.617188 C 26.214844 21.238281 26.066406 20.851562 25.925781 20.464844 C 25.882812 19.863281 25.824219 19.269531 25.742188 18.675781 C 25.757812 18.460938 25.773438 18.25 25.792969 18.039062 C 25.773438 17.824219 25.769531 17.605469 25.78125 17.390625 C 25.859375 17.039062 25.933594 16.6875 25.996094 16.335938 C 26.023438 16.207031 26.066406 16.085938 26.128906 15.972656 Z M 26.128906 15.972656 "/>
</g>
<mask id="mask7">
  <g filter="url(#alpha)">
<rect x="0" y="0" width="50" height="50" style="fill:rgb(0%,0%,0%);fill-opacity:0.913725;stroke:none;"/>
  </g>
</mask>
<clipPath id="clip8">
  <rect width="50" height="50"/>
</clipPath>
<g id="surface27" clip-path="url(#clip8)">
<path style=" stroke:none;fill-rule:evenodd;fill:rgb(69.803922%,68.235294%,66.27451%);fill-opacity:1;" d="M 3.707031 16.046875 C 3.953125 17.421875 4.082031 18.808594 4.09375 20.210938 C 4.101562 20.589844 4.078125 20.960938 4.019531 21.328125 C 3.917969 19.566406 3.8125 17.808594 3.707031 16.046875 Z M 3.707031 16.046875 "/>
</g>
<mask id="mask8">
  <g filter="url(#alpha)">
<rect x="0" y="0" width="50" height="50" style="fill:rgb(0%,0%,0%);fill-opacity:0.992157;stroke:none;"/>
  </g>
</mask>
<clipPath id="clip9">
  <rect width="50" height="50"/>
</clipPath>
<g id="surface30" clip-path="url(#clip9)">
<path style=" stroke:none;fill-rule:evenodd;fill:rgb(72.54902%,70.980392%,69.019608%);fill-opacity:1;" d="M 17.605469 17.292969 C 17.585938 17.320312 17.578125 17.351562 17.582031 17.390625 C 17.5625 17.40625 17.554688 17.433594 17.558594 17.460938 C 17.539062 17.480469 17.527344 17.503906 17.535156 17.535156 C 17.335938 17.941406 17.039062 18.027344 16.648438 17.785156 C 16.609375 17.742188 16.589844 17.691406 16.585938 17.628906 C 16.40625 17.492188 16.230469 17.347656 16.058594 17.199219 C 15.996094 17.085938 15.984375 16.964844 16.023438 16.839844 C 16.042969 16.832031 16.050781 16.816406 16.046875 16.789062 C 16.066406 16.78125 16.074219 16.765625 16.070312 16.742188 C 16.089844 16.734375 16.097656 16.71875 16.09375 16.695312 C 16.117188 16.675781 16.132812 16.652344 16.144531 16.621094 C 16.417969 16.28125 16.761719 16.1875 17.175781 16.347656 C 17.542969 16.558594 17.6875 16.875 17.605469 17.292969 Z M 17.605469 17.292969 "/>
</g>
<mask id="mask9">
  <g filter="url(#alpha)">
<rect x="0" y="0" width="50" height="50" style="fill:rgb(0%,0%,0%);fill-opacity:0.956863;stroke:none;"/>
  </g>
</mask>
<clipPath id="clip10">
  <rect width="50" height="50"/>
</clipPath>
<g id="surface33" clip-path="url(#clip10)">
<path style=" stroke:none;fill-rule:evenodd;fill:rgb(0%,0%,0%);fill-opacity:1;" d="M 13.476562 18.230469 C 13.628906 18.335938 13.789062 18.429688 13.957031 18.507812 C 14.261719 18.539062 14.386719 18.398438 14.332031 18.085938 C 14.148438 17.722656 13.863281 17.589844 13.476562 17.691406 C 13.4375 17.71875 13.414062 17.753906 13.40625 17.800781 C 13.359375 17.828125 13.324219 17.867188 13.296875 17.917969 C 13.214844 18.082031 13.144531 18.25 13.082031 18.421875 C 12.960938 18.550781 12.84375 18.550781 12.722656 18.421875 C 12.675781 17.84375 12.921875 17.449219 13.453125 17.234375 C 13.878906 17.183594 14.234375 17.3125 14.523438 17.628906 C 14.765625 17.960938 14.789062 18.304688 14.59375 18.664062 C 14.363281 18.929688 14.089844 18.988281 13.765625 18.84375 C 13.605469 18.753906 13.445312 18.667969 13.285156 18.578125 C 13.1875 18.460938 13.195312 18.347656 13.308594 18.242188 C 13.367188 18.230469 13.421875 18.226562 13.476562 18.230469 Z M 13.476562 18.230469 "/>
</g>
<mask id="mask10">
  <g filter="url(#alpha)">
<rect x="0" y="0" width="50" height="50" style="fill:rgb(0%,0%,0%);fill-opacity:0.992157;stroke:none;"/>
  </g>
</mask>
<clipPath id="clip11">
  <rect width="50" height="50"/>
</clipPath>
<g id="surface36" clip-path="url(#clip11)">
<path style=" stroke:none;fill-rule:evenodd;fill:rgb(72.156863%,70.588235%,68.627451%);fill-opacity:1;" d="M 13.476562 18.230469 C 13.4375 18.089844 13.410156 17.945312 13.40625 17.800781 C 13.414062 17.753906 13.4375 17.71875 13.476562 17.691406 C 13.863281 17.589844 14.148438 17.722656 14.332031 18.085938 C 14.386719 18.398438 14.261719 18.539062 13.957031 18.507812 C 13.789062 18.429688 13.628906 18.335938 13.476562 18.230469 Z M 13.476562 18.230469 "/>
</g>
<mask id="mask11">
  <g filter="url(#alpha)">
<rect x="0" y="0" width="50" height="50" style="fill:rgb(0%,0%,0%);fill-opacity:0.960784;stroke:none;"/>
  </g>
</mask>
<clipPath id="clip12">
  <rect width="50" height="50"/>
</clipPath>
<g id="surface39" clip-path="url(#clip12)">
<path style=" stroke:none;fill-rule:evenodd;fill:rgb(0%,0%,0%);fill-opacity:1;" d="M 15.160156 19.71875 C 15.679688 19.699219 15.976562 19.945312 16.046875 20.464844 C 15.992188 21.011719 15.695312 21.246094 15.160156 21.171875 C 15.003906 21.101562 14.875 20.996094 14.773438 20.859375 C 14.632812 20.875 14.539062 20.816406 14.5 20.679688 C 14.460938 20.179688 14.679688 19.859375 15.160156 19.71875 Z M 15.160156 19.71875 "/>
</g>
<mask id="mask12">
  <g filter="url(#alpha)">
<rect x="0" y="0" width="50" height="50" style="fill:rgb(0%,0%,0%);fill-opacity:0.976471;stroke:none;"/>
  </g>
</mask>
<clipPath id="clip13">
  <rect width="50" height="50"/>
</clipPath>
<g id="surface42" clip-path="url(#clip13)">
<path style=" stroke:none;fill-rule:evenodd;fill:rgb(0.392157%,0%,0%);fill-opacity:1;" d="M 13.765625 22.503906 C 13.847656 22.5 13.925781 22.503906 14.007812 22.515625 C 14.460938 22.667969 14.929688 22.742188 15.410156 22.742188 C 15.804688 22.710938 16.203125 22.699219 16.597656 22.707031 C 16.828125 22.777344 16.953125 22.933594 16.972656 23.175781 C 16.988281 23.667969 17.007812 24.160156 17.03125 24.652344 C 16.988281 27.722656 16.941406 30.796875 16.886719 33.871094 C 16.890625 34.144531 16.902344 34.421875 16.921875 34.699219 C 16.992188 35.234375 17.058594 35.769531 17.113281 36.304688 C 17.164062 36.773438 17.113281 37.230469 16.972656 37.675781 C 16.875 37.910156 16.734375 38.113281 16.550781 38.285156 C 16.207031 38.578125 15.820312 38.8125 15.398438 38.980469 C 14.878906 39.164062 14.460938 39.03125 14.136719 38.585938 C 13.832031 38.101562 13.640625 37.574219 13.5625 37 C 13.515625 36.488281 13.457031 35.976562 13.394531 35.464844 C 13.378906 33.839844 13.378906 32.21875 13.394531 30.59375 C 13.429688 30.132812 13.457031 29.671875 13.476562 29.210938 C 13.453125 27.488281 13.441406 25.765625 13.441406 24.039062 C 13.476562 23.75 13.527344 23.460938 13.585938 23.175781 C 13.59375 23.015625 13.601562 22.855469 13.609375 22.695312 C 13.640625 22.613281 13.695312 22.546875 13.765625 22.503906 Z M 14.054688 35.875 C 14.128906 36.605469 14.234375 37.332031 14.367188 38.058594 C 14.21875 37.753906 14.109375 37.433594 14.042969 37.097656 C 13.964844 36.726562 13.921875 36.347656 13.910156 35.96875 C 13.957031 35.9375 14.007812 35.90625 14.054688 35.875 Z M 14.054688 35.875 "/>
</g>
<mask id="mask13">
  <g filter="url(#alpha)">
<rect x="0" y="0" width="50" height="50" style="fill:rgb(0%,0%,0%);fill-opacity:0.976471;stroke:none;"/>
  </g>
</mask>
<clipPath id="clip14">
  <rect width="50" height="50"/>
</clipPath>
<g id="surface45" clip-path="url(#clip14)">
<path style=" stroke:none;fill-rule:evenodd;fill:rgb(66.27451%,22.745098%,17.647059%);fill-opacity:1;" d="M 41.035156 25.648438 C 40.90625 25.949219 40.78125 26.253906 40.664062 26.558594 C 40.53125 27.050781 40.429688 27.546875 40.363281 28.046875 C 40.402344 28.625 40.59375 29.144531 40.9375 29.609375 C 40.515625 29.496094 40.148438 29.277344 39.847656 28.960938 C 39.730469 28.710938 39.675781 28.445312 39.691406 28.167969 C 39.75 27.28125 39.921875 26.417969 40.207031 25.574219 C 40.320312 25.222656 40.441406 24.871094 40.566406 24.519531 C 40.582031 24.488281 40.597656 24.488281 40.613281 24.519531 C 40.71875 24.910156 40.859375 25.285156 41.035156 25.648438 Z M 41.035156 25.648438 "/>
</g>
<mask id="mask14">
  <g filter="url(#alpha)">
<rect x="0" y="0" width="50" height="50" style="fill:rgb(0%,0%,0%);fill-opacity:0.980392;stroke:none;"/>
  </g>
</mask>
<clipPath id="clip15">
  <rect width="50" height="50"/>
</clipPath>
<g id="surface48" clip-path="url(#clip15)">
<path style=" stroke:none;fill-rule:evenodd;fill:rgb(0.392157%,0.392157%,0.392157%);fill-opacity:1;" d="M 41.753906 25.359375 C 41.828125 26.0625 42.136719 26.636719 42.679688 27.089844 C 42.792969 27.230469 42.902344 27.375 43.003906 27.519531 C 43.136719 27.832031 43.15625 28.152344 43.0625 28.480469 C 42.980469 28.828125 42.828125 29.140625 42.605469 29.417969 C 42.457031 29.558594 42.320312 29.707031 42.1875 29.859375 C 42.0625 29.960938 41.929688 30.054688 41.789062 30.136719 C 41.742188 30.367188 41.707031 30.601562 41.683594 30.832031 C 41.734375 30.839844 41.785156 30.847656 41.839844 30.855469 C 42.820312 30.789062 43.800781 30.792969 44.777344 30.867188 C 45.023438 30.894531 45.261719 30.933594 45.5 30.988281 C 45.96875 31.121094 46.4375 31.230469 46.914062 31.324219 C 47.148438 31.371094 47.320312 31.496094 47.429688 31.695312 C 47.460938 31.996094 47.328125 32.183594 47.035156 32.261719 C 46.683594 32.347656 46.355469 32.488281 46.050781 32.679688 C 46.15625 32.898438 46.265625 33.113281 46.375 33.328125 C 46.601562 33.625 46.816406 33.929688 47.023438 34.242188 C 47.425781 35.058594 47.769531 35.898438 48.054688 36.761719 C 48.183594 37.15625 48.222656 37.554688 48.175781 37.960938 C 48.121094 38.28125 47.957031 38.527344 47.683594 38.695312 C 47.027344 39.003906 46.339844 39.199219 45.621094 39.269531 C 44.058594 39.40625 42.507812 39.597656 40.960938 39.847656 C 39.933594 39.96875 38.898438 39.992188 37.867188 39.917969 C 37.347656 39.847656 36.875 39.664062 36.449219 39.367188 C 36.167969 39.15625 35.910156 38.921875 35.667969 38.65625 C 35.261719 38.128906 35.125 37.539062 35.261719 36.882812 C 35.488281 35.964844 35.761719 35.0625 36.078125 34.167969 C 36.257812 33.738281 36.457031 33.3125 36.679688 32.898438 C 36.722656 32.820312 36.78125 32.761719 36.859375 32.71875 C 36.457031 32.570312 36.039062 32.492188 35.609375 32.476562 C 35.492188 32.453125 35.378906 32.410156 35.273438 32.355469 C 35.152344 32.214844 35.148438 32.066406 35.261719 31.914062 C 35.324219 31.84375 35.390625 31.785156 35.464844 31.734375 C 35.613281 31.683594 35.765625 31.640625 35.921875 31.613281 C 36.023438 31.546875 36.136719 31.503906 36.257812 31.492188 C 36.273438 31.476562 36.289062 31.460938 36.304688 31.445312 C 37.996094 31.261719 39.683594 31.074219 41.371094 30.882812 C 41.390625 30.597656 41.417969 30.320312 41.453125 30.039062 C 41.234375 29.953125 41.0625 29.808594 40.9375 29.609375 C 40.59375 29.144531 40.402344 28.625 40.363281 28.046875 C 40.429688 27.546875 40.53125 27.050781 40.664062 26.558594 C 40.78125 26.253906 40.90625 25.949219 41.035156 25.648438 C 41.175781 25.40625 41.28125 25.152344 41.359375 24.878906 C 41.371094 24.835938 41.398438 24.808594 41.441406 24.796875 C 41.546875 24.769531 41.636719 24.789062 41.71875 24.855469 C 41.753906 25.019531 41.765625 25.1875 41.753906 25.359375 Z M 42.761719 27.976562 C 42.765625 28.527344 42.578125 29 42.199219 29.394531 C 42.085938 29.503906 41.976562 29.617188 41.863281 29.730469 C 41.851562 29.691406 41.847656 29.648438 41.851562 29.609375 C 42.15625 29.066406 42.457031 28.519531 42.761719 27.976562 Z M 42.953125 31.191406 C 43.832031 31.164062 44.695312 31.242188 45.546875 31.433594 C 44.679688 31.367188 43.8125 31.289062 42.953125 31.191406 Z M 39.136719 31.503906 C 38.238281 31.652344 37.335938 31.777344 36.425781 31.890625 C 36.449219 31.84375 36.449219 31.800781 36.425781 31.757812 C 37.332031 31.683594 38.234375 31.597656 39.136719 31.503906 Z M 46.820312 31.722656 C 46.875 31.742188 46.929688 31.761719 46.988281 31.78125 C 47.019531 31.796875 47.019531 31.8125 46.988281 31.828125 C 46.820312 31.914062 46.644531 31.976562 46.460938 32.007812 C 46.578125 31.914062 46.699219 31.816406 46.820312 31.722656 Z M 36.976562 33.546875 C 36.976562 34.128906 36.976562 34.714844 36.976562 35.296875 C 36.738281 35.289062 36.496094 35.277344 36.257812 35.261719 C 36.378906 34.894531 36.511719 34.53125 36.652344 34.167969 C 36.75 33.953125 36.855469 33.742188 36.976562 33.546875 Z M 46.339844 34.167969 C 46.570312 34.460938 46.757812 34.78125 46.902344 35.128906 C 47.132812 35.636719 47.320312 36.15625 47.46875 36.691406 C 47.078125 35.855469 46.703125 35.015625 46.339844 34.167969 Z M 47.636719 37.914062 C 47.605469 38.019531 47.546875 38.113281 47.46875 38.191406 C 47.3125 38.292969 47.144531 38.367188 46.964844 38.417969 C 47.179688 38.238281 47.402344 38.070312 47.636719 37.914062 Z M 37.914062 39.257812 C 38.402344 39.3125 38.890625 39.367188 39.378906 39.425781 C 38.964844 39.453125 38.550781 39.457031 38.128906 39.4375 C 37.878906 39.417969 37.640625 39.367188 37.410156 39.28125 C 37.578125 39.277344 37.746094 39.269531 37.914062 39.257812 Z M 37.914062 39.257812 "/>
</g>
<mask id="mask15">
  <g filter="url(#alpha)">
<rect x="0" y="0" width="50" height="50" style="fill:rgb(0%,0%,0%);fill-opacity:0.913725;stroke:none;"/>
  </g>
</mask>
<clipPath id="clip16">
  <rect width="50" height="50"/>
</clipPath>
<g id="surface51" clip-path="url(#clip16)">
<path style=" stroke:none;fill-rule:evenodd;fill:rgb(71.372549%,70.196078%,68.235294%);fill-opacity:1;" d="M 41.753906 25.359375 C 42.195312 26.066406 42.613281 26.785156 43.003906 27.519531 C 42.902344 27.375 42.792969 27.230469 42.679688 27.089844 C 42.136719 26.636719 41.828125 26.0625 41.753906 25.359375 Z M 41.753906 25.359375 "/>
</g>
<mask id="mask16">
  <g filter="url(#alpha)">
<rect x="0" y="0" width="50" height="50" style="fill:rgb(0%,0%,0%);fill-opacity:0.980392;stroke:none;"/>
  </g>
</mask>
<clipPath id="clip17">
  <rect width="50" height="50"/>
</clipPath>
<g id="surface54" clip-path="url(#clip17)">
<path style=" stroke:none;fill-rule:evenodd;fill:rgb(72.54902%,70.588235%,68.627451%);fill-opacity:1;" d="M 42.761719 27.976562 C 42.457031 28.519531 42.15625 29.066406 41.851562 29.609375 C 41.851562 29.464844 41.851562 29.320312 41.851562 29.175781 C 42.175781 28.746094 42.269531 28.265625 42.125 27.738281 C 42.058594 27.527344 41.96875 27.328125 41.863281 27.136719 C 41.636719 26.800781 41.425781 26.453125 41.226562 26.105469 C 41.28125 25.976562 41.351562 25.859375 41.429688 25.742188 C 41.546875 26.214844 41.761719 26.632812 42.078125 26.992188 C 42.320312 27.226562 42.539062 27.484375 42.726562 27.761719 C 42.753906 27.828125 42.765625 27.902344 42.761719 27.976562 Z M 42.761719 27.976562 "/>
</g>
<mask id="mask17">
  <g filter="url(#alpha)">
<rect x="0" y="0" width="50" height="50" style="fill:rgb(0%,0%,0%);fill-opacity:0.866667;stroke:none;"/>
  </g>
</mask>
<clipPath id="clip18">
  <rect width="50" height="50"/>
</clipPath>
<g id="surface57" clip-path="url(#clip18)">
<path style=" stroke:none;fill-rule:evenodd;fill:rgb(67.843137%,66.27451%,64.705882%);fill-opacity:1;" d="M 20.199219 28.527344 C 20.214844 28.53125 20.226562 28.539062 20.234375 28.550781 C 20.273438 28.707031 20.324219 28.855469 20.390625 28.996094 C 20.367188 29.042969 20.328125 29.070312 20.269531 29.082031 C 20.242188 28.898438 20.214844 28.714844 20.199219 28.527344 Z M 20.199219 28.527344 "/>
</g>
<mask id="mask18">
  <g filter="url(#alpha)">
<rect x="0" y="0" width="50" height="50" style="fill:rgb(0%,0%,0%);fill-opacity:0.996078;stroke:none;"/>
  </g>
</mask>
<clipPath id="clip19">
  <rect width="50" height="50"/>
</clipPath>
<g id="surface60" clip-path="url(#clip19)">
<path style=" stroke:none;fill-rule:evenodd;fill:rgb(66.27451%,22.745098%,17.647059%);fill-opacity:1;" d="M 13.839844 30.542969 C 13.863281 30.542969 13.886719 30.542969 13.910156 30.542969 C 13.980469 30.648438 14.078125 30.726562 14.199219 30.773438 C 14.367188 30.839844 14.542969 30.875 14.726562 30.882812 C 15.25 30.90625 15.777344 30.914062 16.3125 30.90625 C 16.304688 30.9375 16.3125 30.960938 16.335938 30.976562 C 16.390625 31.421875 16.457031 31.859375 16.527344 32.296875 C 16.488281 33.542969 16.5625 34.785156 16.753906 36.019531 C 16.769531 36.355469 16.769531 36.691406 16.753906 37.027344 C 16.734375 37.191406 16.6875 37.351562 16.621094 37.507812 C 16.601562 37.515625 16.59375 37.53125 16.597656 37.554688 C 16.582031 37.554688 16.574219 37.5625 16.574219 37.578125 C 16.554688 37.585938 16.546875 37.601562 16.550781 37.625 C 16.53125 37.632812 16.523438 37.648438 16.527344 37.675781 C 16.503906 37.691406 16.488281 37.71875 16.480469 37.746094 C 16.347656 37.929688 16.1875 38.085938 16 38.214844 C 15.730469 38.390625 15.441406 38.523438 15.132812 38.621094 C 14.980469 38.652344 14.835938 38.628906 14.703125 38.550781 C 14.53125 38.421875 14.421875 38.257812 14.367188 38.058594 C 14.234375 37.332031 14.128906 36.605469 14.054688 35.875 C 14.054688 35.800781 14.054688 35.730469 14.054688 35.65625 C 14.144531 35.605469 14.171875 35.523438 14.136719 35.417969 C 14.101562 35.382812 14.054688 35.359375 14.007812 35.34375 C 13.957031 34.664062 13.910156 33.984375 13.863281 33.304688 C 13.859375 33.078125 13.84375 32.851562 13.8125 32.632812 C 13.804688 31.933594 13.8125 31.238281 13.839844 30.542969 Z M 13.839844 30.542969 "/>
</g>
<mask id="mask19">
  <g filter="url(#alpha)">
<rect x="0" y="0" width="50" height="50" style="fill:rgb(0%,0%,0%);fill-opacity:0.992157;stroke:none;"/>
  </g>
</mask>
<clipPath id="clip20">
  <rect width="50" height="50"/>
</clipPath>
<g id="surface63" clip-path="url(#clip20)">
<path style=" stroke:none;fill-rule:evenodd;fill:rgb(72.54902%,70.980392%,69.019608%);fill-opacity:1;" d="M 42.953125 31.191406 C 43.8125 31.289062 44.679688 31.367188 45.546875 31.433594 C 45.972656 31.515625 46.394531 31.613281 46.820312 31.722656 C 46.699219 31.816406 46.578125 31.914062 46.460938 32.007812 C 46.222656 32.132812 45.984375 32.246094 45.738281 32.355469 C 45.660156 32.347656 45.582031 32.347656 45.5 32.355469 C 45.425781 32.40625 45.363281 32.460938 45.308594 32.523438 C 44.128906 32.90625 42.921875 33.050781 41.683594 32.957031 C 41.644531 32.722656 41.628906 32.488281 41.632812 32.25 C 41.644531 31.914062 41.652344 31.578125 41.660156 31.242188 C 42.089844 31.207031 42.523438 31.191406 42.953125 31.191406 Z M 42.953125 31.191406 "/>
</g>
<mask id="mask20">
  <g filter="url(#alpha)">
<rect x="0" y="0" width="50" height="50" style="fill:rgb(0%,0%,0%);fill-opacity:0.992157;stroke:none;"/>
  </g>
</mask>
<clipPath id="clip21">
  <rect width="50" height="50"/>
</clipPath>
<g id="surface66" clip-path="url(#clip21)">
<path style=" stroke:none;fill-rule:evenodd;fill:rgb(72.54902%,70.980392%,69.019608%);fill-opacity:1;" d="M 36.425781 31.890625 C 37.335938 31.777344 38.238281 31.652344 39.136719 31.503906 C 39.199219 31.511719 39.253906 31.503906 39.304688 31.480469 C 39.367188 31.488281 39.421875 31.480469 39.472656 31.457031 C 39.535156 31.464844 39.589844 31.457031 39.640625 31.433594 C 40.207031 31.351562 40.777344 31.304688 41.347656 31.289062 C 41.308594 31.835938 41.316406 32.378906 41.371094 32.921875 C 40.777344 32.871094 40.1875 32.828125 39.59375 32.789062 C 38.84375 32.734375 38.105469 32.601562 37.386719 32.382812 C 37.011719 32.25 36.636719 32.132812 36.257812 32.019531 C 36.324219 31.988281 36.378906 31.945312 36.425781 31.890625 Z M 36.425781 31.890625 "/>
</g>
<mask id="mask21">
  <g filter="url(#alpha)">
<rect x="0" y="0" width="50" height="50" style="fill:rgb(0%,0%,0%);fill-opacity:0.996078;stroke:none;"/>
  </g>
</mask>
<clipPath id="clip22">
  <rect width="50" height="50"/>
</clipPath>
<g id="surface69" clip-path="url(#clip22)">
<path style=" stroke:none;fill-rule:evenodd;fill:rgb(72.941176%,71.372549%,69.411765%);fill-opacity:1;" d="M 36.976562 35.296875 C 36.976562 34.714844 36.976562 34.128906 36.976562 33.546875 C 36.992188 33.441406 37.03125 33.347656 37.085938 33.257812 C 37.160156 33.167969 37.230469 33.082031 37.300781 32.992188 C 37.304688 32.933594 37.308594 32.878906 37.3125 32.824219 C 37.785156 32.964844 38.265625 33.0625 38.753906 33.125 C 39.65625 33.226562 40.558594 33.300781 41.464844 33.351562 C 41.546875 33.816406 41.625 34.28125 41.707031 34.746094 C 40.707031 34.910156 39.699219 35.011719 38.683594 35.046875 C 38.109375 35.109375 37.542969 35.195312 36.976562 35.296875 Z M 36.976562 35.296875 "/>
</g>
<mask id="mask22">
  <g filter="url(#alpha)">
<rect x="0" y="0" width="50" height="50" style="fill:rgb(0%,0%,0%);fill-opacity:0.992157;stroke:none;"/>
  </g>
</mask>
<clipPath id="clip23">
  <rect width="50" height="50"/>
</clipPath>
<g id="surface72" clip-path="url(#clip23)">
<path style=" stroke:none;fill-rule:evenodd;fill:rgb(72.54902%,70.980392%,69.019608%);fill-opacity:1;" d="M 46.316406 34.121094 C 46.3125 34.144531 46.320312 34.160156 46.339844 34.167969 C 46.703125 35.015625 47.078125 35.855469 47.46875 36.691406 C 47.464844 36.714844 47.472656 36.730469 47.492188 36.738281 C 47.488281 36.761719 47.496094 36.777344 47.515625 36.785156 C 47.648438 37.101562 47.707031 37.429688 47.695312 37.769531 C 47.691406 37.824219 47.671875 37.875 47.636719 37.914062 C 47.402344 38.070312 47.179688 38.238281 46.964844 38.417969 C 46.941406 38.414062 46.921875 38.421875 46.914062 38.441406 C 46.722656 38.515625 46.519531 38.574219 46.316406 38.609375 C 46.542969 38.3125 46.695312 37.976562 46.769531 37.601562 C 46.886719 37.367188 46.949219 37.121094 46.953125 36.859375 C 47.003906 36.304688 46.914062 35.777344 46.6875 35.273438 C 46.546875 34.96875 46.402344 34.667969 46.242188 34.375 C 46.109375 34.292969 45.96875 34.25 45.8125 34.242188 C 44.542969 34.386719 43.28125 34.53125 42.019531 34.671875 C 41.917969 34.246094 41.839844 33.8125 41.777344 33.378906 C 43.054688 33.4375 44.296875 33.269531 45.511719 32.875 C 45.554688 32.894531 45.585938 32.925781 45.605469 32.96875 C 45.652344 33.089844 45.699219 33.210938 45.75 33.328125 C 45.9375 33.597656 46.125 33.863281 46.316406 34.121094 Z M 46.316406 34.121094 "/>
</g>
<mask id="mask23">
  <g filter="url(#alpha)">
<rect x="0" y="0" width="50" height="50" style="fill:rgb(0%,0%,0%);fill-opacity:0.92549;stroke:none;"/>
  </g>
</mask>
<clipPath id="clip24">
  <rect width="50" height="50"/>
</clipPath>
<g id="surface75" clip-path="url(#clip24)">
<path style=" stroke:none;fill-rule:evenodd;fill:rgb(71.372549%,68.235294%,66.27451%);fill-opacity:1;" d="M 36.976562 39.089844 C 37.296875 39.132812 37.609375 39.1875 37.914062 39.257812 C 37.746094 39.269531 37.578125 39.277344 37.410156 39.28125 C 37.246094 39.257812 37.105469 39.191406 36.976562 39.089844 Z M 36.976562 39.089844 "/>
</g>
</defs>
<g id="surface1">
<use xlink:href="#surface6" mask="url(#mask0)"/>
<use xlink:href="#surface9" mask="url(#mask1)"/>
<use xlink:href="#surface12" mask="url(#mask2)"/>
<path style=" stroke:none;fill-rule:evenodd;fill:rgb(72.941176%,71.372549%,69.411765%);fill-opacity:1;" d="M 9.375 32.609375 C 9.386719 32.722656 9.371094 32.828125 9.324219 32.921875 C 8.875 32.832031 8.417969 32.804688 7.957031 32.835938 C 7.347656 32.898438 6.742188 32.960938 6.132812 33.027344 C 5.242188 33.050781 4.355469 33.101562 3.46875 33.171875 C 3.296875 33.195312 3.128906 33.226562 2.964844 33.269531 C 2.933594 33.289062 2.917969 33.316406 2.917969 33.351562 C 2.84375 33.351562 2.773438 33.351562 2.699219 33.351562 C 2.691406 32.777344 2.753906 32.207031 2.890625 31.648438 C 2.914062 31.632812 2.921875 31.609375 2.917969 31.578125 C 2.9375 31.558594 2.945312 31.535156 2.941406 31.503906 C 2.960938 31.488281 2.96875 31.464844 2.964844 31.433594 C 2.984375 31.414062 2.996094 31.390625 2.988281 31.359375 C 3.011719 31.34375 3.019531 31.320312 3.011719 31.289062 C 3.03125 31.28125 3.039062 31.265625 3.035156 31.242188 C 3.058594 31.222656 3.066406 31.199219 3.058594 31.167969 C 3.082031 31.152344 3.089844 31.128906 3.085938 31.097656 C 3.105469 31.089844 3.113281 31.074219 3.109375 31.050781 C 3.128906 31.03125 3.136719 31.007812 3.132812 30.976562 C 3.269531 30.652344 3.460938 30.355469 3.695312 30.089844 C 4.070312 29.691406 4.476562 29.339844 4.921875 29.03125 C 4.945312 28.988281 4.957031 28.941406 4.957031 28.886719 C 4.910156 28.773438 4.867188 28.652344 4.824219 28.527344 C 4.722656 27.828125 4.648438 27.125 4.609375 26.417969 C 4.597656 25.070312 4.613281 23.726562 4.65625 22.382812 C 4.902344 20.136719 4.804688 17.90625 4.367188 15.6875 C 4.277344 15.113281 4.265625 14.535156 4.332031 13.957031 C 4.339844 13.925781 4.347656 13.894531 4.355469 13.863281 C 4.835938 14.171875 5.355469 14.289062 5.917969 14.210938 C 6.003906 14.191406 6.089844 14.164062 6.167969 14.125 C 5.996094 14.808594 5.941406 15.507812 6 16.214844 C 6.179688 18.265625 6.277344 20.324219 6.289062 22.382812 C 6.246094 22.8125 6.21875 23.238281 6.203125 23.667969 C 6.289062 25.152344 6.378906 26.636719 6.480469 28.121094 C 6.511719 28.273438 6.570312 28.417969 6.648438 28.550781 C 7.171875 29.027344 7.703125 29.488281 8.246094 29.933594 C 9.015625 30.652344 9.390625 31.546875 9.375 32.609375 Z M 9.375 32.609375 "/>
<use xlink:href="#surface15" mask="url(#mask3)"/>
<use xlink:href="#surface18" mask="url(#mask4)"/>
<path style=" stroke:none;fill-rule:evenodd;fill:rgb(58.039216%,56.862745%,55.294118%);fill-opacity:1;" d="M 6.492188 14.992188 C 6.492188 15.460938 6.492188 15.933594 6.492188 16.40625 C 6.449219 15.988281 6.433594 15.5625 6.457031 15.132812 C 6.460938 15.082031 6.472656 15.035156 6.492188 14.992188 Z M 6.492188 14.992188 "/>
<use xlink:href="#surface21" mask="url(#mask5)"/>
<use xlink:href="#surface24" mask="url(#mask6)"/>
<use xlink:href="#surface27" mask="url(#mask7)"/>
<use xlink:href="#surface30" mask="url(#mask8)"/>
<use xlink:href="#surface33" mask="url(#mask9)"/>
<use xlink:href="#surface36" mask="url(#mask10)"/>
<path style=" stroke:none;fill-rule:evenodd;fill:rgb(72.941176%,71.372549%,69.411765%);fill-opacity:1;" d="M 30.304688 27.113281 C 29.988281 26.984375 29.660156 26.910156 29.320312 26.882812 C 28.558594 26.859375 27.800781 26.875 27.039062 26.933594 C 24.96875 27.140625 22.914062 27.441406 20.871094 27.832031 C 20.871094 27.367188 20.9375 26.910156 21.074219 26.464844 C 21.199219 25.988281 21.382812 25.542969 21.628906 25.121094 C 21.964844 24.765625 22.285156 24.398438 22.585938 24.015625 C 22.847656 23.703125 23.15625 23.453125 23.511719 23.257812 C 23.738281 23.175781 23.96875 23.121094 24.207031 23.089844 C 24.371094 23.054688 24.472656 22.957031 24.507812 22.792969 C 24.523438 22.664062 24.523438 22.535156 24.507812 22.40625 C 24.347656 21.507812 24.179688 20.613281 24.003906 19.71875 C 23.980469 19.152344 23.953125 18.582031 23.917969 18.015625 C 23.921875 17.90625 23.941406 17.804688 23.980469 17.703125 C 23.988281 17.691406 24 17.683594 24.015625 17.679688 C 24.253906 17.765625 24.484375 17.867188 24.710938 17.980469 C 24.851562 18.03125 24.996094 18.074219 25.144531 18.097656 C 25.199219 18.132812 25.242188 18.179688 25.265625 18.242188 C 25.3125 18.289062 25.367188 18.308594 25.433594 18.304688 C 25.585938 19.519531 25.789062 20.726562 26.042969 21.925781 C 26.101562 22.210938 26.246094 22.429688 26.488281 22.585938 C 27.53125 22.984375 28.421875 23.59375 29.164062 24.425781 C 29.832031 25.195312 30.210938 26.089844 30.304688 27.113281 Z M 30.304688 27.113281 "/>
<use xlink:href="#surface39" mask="url(#mask11)"/>
<path style=" stroke:none;fill-rule:evenodd;fill:rgb(71.372549%,69.803922%,67.843137%);fill-opacity:1;" d="M 15.230469 20.101562 C 15.484375 20.101562 15.625 20.226562 15.664062 20.476562 C 15.636719 20.710938 15.507812 20.820312 15.277344 20.8125 C 15.183594 20.738281 15.09375 20.660156 15.015625 20.570312 C 14.984375 20.558594 14.953125 20.554688 14.917969 20.558594 C 14.917969 20.335938 15.023438 20.183594 15.230469 20.101562 Z M 15.230469 20.101562 "/>
<use xlink:href="#surface42" mask="url(#mask12)"/>
<path style=" stroke:none;fill-rule:evenodd;fill:rgb(72.941176%,71.372549%,69.411765%);fill-opacity:1;" d="M 16.503906 29.871094 C 16.511719 30.101562 16.503906 30.324219 16.480469 30.542969 C 16.453125 30.519531 16.421875 30.5 16.382812 30.484375 C 15.757812 30.476562 15.132812 30.46875 14.511719 30.460938 C 14.410156 30.429688 14.324219 30.382812 14.246094 30.316406 C 14.023438 30.230469 13.910156 30.308594 13.910156 30.542969 C 13.886719 30.542969 13.863281 30.542969 13.839844 30.542969 C 13.859375 30.273438 13.886719 30 13.921875 29.730469 C 13.933594 27.816406 13.949219 25.902344 13.96875 23.992188 C 14.011719 23.765625 14.058594 23.542969 14.113281 23.320312 C 14.132812 23.292969 14.164062 23.277344 14.199219 23.273438 C 14.375 23.300781 14.550781 23.332031 14.726562 23.355469 C 15.261719 23.367188 15.792969 23.378906 16.324219 23.390625 C 16.367188 23.609375 16.414062 23.824219 16.464844 24.039062 C 16.46875 24.828125 16.464844 25.617188 16.453125 26.402344 C 16.476562 27.558594 16.492188 28.714844 16.503906 29.871094 Z M 16.503906 29.871094 "/>
<path style=" stroke:none;fill-rule:evenodd;fill:rgb(5.098039%,5.098039%,4.705882%);fill-opacity:1;" d="M 27.664062 23.894531 C 27.988281 23.878906 28.207031 24.023438 28.324219 24.328125 C 28.414062 24.550781 28.398438 24.765625 28.277344 24.976562 C 28.101562 25.132812 27.921875 25.136719 27.738281 24.988281 C 27.425781 24.703125 27.355469 24.371094 27.53125 23.992188 C 27.574219 23.957031 27.621094 23.925781 27.664062 23.894531 Z M 27.664062 23.894531 "/>
<path style=" stroke:none;fill-rule:evenodd;fill:rgb(71.764706%,70.196078%,68.235294%);fill-opacity:1;" d="M 27.738281 23.96875 C 28.019531 24.023438 28.199219 24.191406 28.277344 24.472656 C 28.296875 24.59375 28.289062 24.714844 28.253906 24.832031 C 28.164062 24.980469 28.042969 25.027344 27.878906 24.964844 C 27.554688 24.75 27.457031 24.457031 27.582031 24.085938 C 27.628906 24.039062 27.679688 24 27.738281 23.96875 Z M 27.738281 23.96875 "/>
<use xlink:href="#surface45" mask="url(#mask13)"/>
<use xlink:href="#surface48" mask="url(#mask14)"/>
<use xlink:href="#surface51" mask="url(#mask15)"/>
<use xlink:href="#surface54" mask="url(#mask16)"/>
<path style=" stroke:none;fill-rule:evenodd;fill:rgb(65.882353%,22.745098%,17.647059%);fill-opacity:1;" d="M 41.226562 26.105469 C 41.425781 26.453125 41.636719 26.800781 41.863281 27.136719 C 41.96875 27.328125 42.058594 27.527344 42.125 27.738281 C 42.269531 28.265625 42.175781 28.746094 41.851562 29.175781 C 41.859375 28.953125 41.863281 28.730469 41.863281 28.503906 C 41.832031 28.386719 41.769531 28.289062 41.683594 28.203125 C 41.558594 28.183594 41.496094 28.234375 41.492188 28.359375 C 41.503906 28.4375 41.535156 28.511719 41.574219 28.578125 C 41.578125 28.632812 41.582031 28.6875 41.585938 28.746094 C 41.550781 29.023438 41.53125 29.304688 41.527344 29.585938 C 41.519531 29.605469 41.507812 29.621094 41.492188 29.632812 C 41.320312 29.523438 41.1875 29.378906 41.09375 29.199219 C 40.949219 28.949219 40.835938 28.6875 40.757812 28.410156 C 40.703125 28.027344 40.726562 27.652344 40.832031 27.28125 C 40.902344 26.867188 41.035156 26.472656 41.226562 26.105469 Z M 41.226562 26.105469 "/>
<path style=" stroke:none;fill-rule:evenodd;fill:rgb(66.27451%,23.137255%,18.039216%);fill-opacity:1;" d="M 30.304688 27.113281 C 30.335938 27.542969 30.335938 27.976562 30.304688 28.410156 C 29.234375 28.363281 28.160156 28.351562 27.089844 28.371094 C 26.328125 28.429688 25.566406 28.484375 24.808594 28.539062 C 23.808594 28.546875 22.808594 28.558594 21.808594 28.566406 C 21.640625 28.566406 21.519531 28.644531 21.449219 28.792969 C 21.335938 28.828125 21.226562 28.851562 21.113281 28.863281 C 21.117188 28.808594 21.109375 28.753906 21.097656 28.695312 C 20.957031 28.425781 20.882812 28.136719 20.871094 27.832031 C 22.914062 27.441406 24.96875 27.140625 27.039062 26.933594 C 27.800781 26.875 28.558594 26.859375 29.320312 26.882812 C 29.660156 26.910156 29.988281 26.984375 30.304688 27.113281 Z M 30.304688 27.113281 "/>
<use xlink:href="#surface57" mask="url(#mask17)"/>
<path style=" stroke:none;fill-rule:evenodd;fill:rgb(99.215686%,99.215686%,99.215686%);fill-opacity:1;" d="M 27.257812 28.769531 C 28.722656 28.730469 30.179688 28.828125 31.625 29.070312 C 31.984375 29.136719 32.335938 29.230469 32.679688 29.34375 C 32.714844 29.367188 32.714844 29.394531 32.679688 29.417969 C 32.597656 29.457031 32.535156 29.515625 32.488281 29.597656 C 32.371094 29.632812 32.25 29.664062 32.128906 29.691406 C 30.914062 29.882812 29.699219 30.070312 28.480469 30.246094 C 27.898438 30.308594 27.3125 30.359375 26.726562 30.390625 C 25.441406 30.414062 24.152344 30.398438 22.863281 30.339844 C 22.039062 30.289062 21.222656 30.1875 20.414062 30.027344 C 20.34375 29.917969 20.246094 29.832031 20.128906 29.777344 C 20.167969 29.699219 20.226562 29.628906 20.296875 29.574219 C 20.667969 29.332031 21.078125 29.207031 21.519531 29.1875 C 21.542969 29.222656 21.578125 29.246094 21.617188 29.261719 C 21.917969 29.269531 22.222656 29.261719 22.527344 29.238281 C 24.113281 29.117188 25.6875 28.960938 27.257812 28.769531 Z M 27.257812 28.769531 "/>
<path style=" stroke:none;fill-rule:evenodd;fill:rgb(29.019608%,27.843137%,27.45098%);fill-opacity:1;" d="M 16.503906 29.871094 C 16.53125 30.117188 16.535156 30.363281 16.515625 30.617188 C 16.503906 30.59375 16.492188 30.566406 16.480469 30.542969 C 16.503906 30.324219 16.511719 30.101562 16.503906 29.871094 Z M 16.503906 29.871094 "/>
<use xlink:href="#surface60" mask="url(#mask18)"/>
<path style=" stroke:none;fill-rule:evenodd;fill:rgb(65.882353%,22.745098%,17.647059%);fill-opacity:1;" d="M 29.441406 30.664062 C 29.492188 30.65625 29.539062 30.664062 29.585938 30.6875 C 29.492188 30.871094 29.402344 31.058594 29.308594 31.242188 C 28.914062 31.75 28.539062 32.269531 28.179688 32.800781 C 27.621094 33.429688 27.023438 34.023438 26.390625 34.578125 C 26.371094 33.9375 26.359375 33.296875 26.355469 32.65625 C 26.296875 32.257812 26.238281 31.855469 26.175781 31.457031 C 26.175781 31.375 26.1875 31.292969 26.210938 31.21875 C 26.261719 31.167969 26.296875 31.113281 26.320312 31.050781 C 26.929688 31.003906 27.535156 30.949219 28.144531 30.894531 C 28.582031 30.839844 29.015625 30.761719 29.441406 30.664062 Z M 29.441406 30.664062 "/>
<path style=" stroke:none;fill-rule:evenodd;fill:rgb(1.176471%,1.176471%,1.176471%);fill-opacity:1;" d="M 7.261719 31.121094 C 7.292969 31.160156 7.324219 31.203125 7.355469 31.242188 C 7.34375 31.503906 7.460938 31.671875 7.707031 31.746094 C 7.871094 31.714844 7.964844 31.613281 7.980469 31.445312 C 7.972656 31.285156 7.898438 31.171875 7.765625 31.097656 C 7.695312 31.144531 7.625 31.1875 7.550781 31.230469 C 7.492188 31.246094 7.433594 31.242188 7.382812 31.21875 C 7.355469 31.175781 7.324219 31.144531 7.285156 31.121094 C 7.265625 31.003906 7.296875 30.902344 7.382812 30.820312 C 7.804688 30.578125 8.121094 30.679688 8.328125 31.121094 C 8.488281 31.574219 8.355469 31.90625 7.933594 32.117188 C 7.503906 32.210938 7.203125 32.058594 7.03125 31.648438 C 6.96875 31.511719 6.945312 31.367188 6.960938 31.21875 C 7.039062 31.105469 7.136719 31.074219 7.261719 31.121094 Z M 7.261719 31.121094 "/>
<path style=" stroke:none;fill-rule:evenodd;fill:rgb(71.764706%,69.411765%,67.058824%);fill-opacity:1;" d="M 16.527344 32.296875 C 16.457031 31.859375 16.390625 31.421875 16.335938 30.976562 C 16.335938 30.945312 16.335938 30.914062 16.335938 30.882812 C 16.433594 30.882812 16.492188 30.832031 16.515625 30.738281 C 16.527344 31.257812 16.53125 31.777344 16.527344 32.296875 Z M 16.527344 32.296875 "/>
<path style=" stroke:none;fill-rule:evenodd;fill:rgb(49.411765%,18.039216%,14.117647%);fill-opacity:1;" d="M 14.726562 30.882812 C 15.261719 30.882812 15.796875 30.882812 16.335938 30.882812 C 16.335938 30.914062 16.335938 30.945312 16.335938 30.976562 C 16.3125 30.960938 16.304688 30.9375 16.3125 30.90625 C 15.777344 30.914062 15.25 30.90625 14.726562 30.882812 Z M 14.726562 30.882812 "/>
<path style=" stroke:none;fill-rule:evenodd;fill:rgb(66.27451%,22.745098%,17.647059%);fill-opacity:1;" d="M 22.214844 30.929688 C 22.261719 30.914062 22.316406 30.90625 22.371094 30.90625 C 23.445312 31.011719 24.519531 31.050781 25.601562 31.023438 C 25.550781 31.253906 25.539062 31.484375 25.5625 31.722656 C 25.609375 32.097656 25.65625 32.472656 25.707031 32.847656 C 25.722656 33.617188 25.722656 34.386719 25.707031 35.152344 C 25.640625 35.191406 25.582031 35.175781 25.539062 35.105469 C 25.460938 34.910156 25.367188 34.726562 25.253906 34.554688 C 24.59375 33.808594 23.980469 33.03125 23.402344 32.226562 C 23.023438 31.777344 22.628906 31.34375 22.214844 30.929688 Z M 22.214844 30.929688 "/>
<path style=" stroke:none;fill-rule:evenodd;fill:rgb(71.764706%,70.196078%,68.235294%);fill-opacity:1;" d="M 7.355469 31.242188 C 7.355469 31.226562 7.363281 31.21875 7.382812 31.21875 C 7.433594 31.242188 7.492188 31.246094 7.550781 31.230469 C 7.625 31.1875 7.695312 31.144531 7.765625 31.097656 C 7.898438 31.171875 7.972656 31.285156 7.980469 31.445312 C 7.964844 31.613281 7.871094 31.714844 7.707031 31.746094 C 7.460938 31.671875 7.34375 31.503906 7.355469 31.242188 Z M 7.355469 31.242188 "/>
<path style=" stroke:none;fill-rule:evenodd;fill:rgb(35.686275%,34.901961%,34.117647%);fill-opacity:1;" d="M 7.261719 31.121094 C 7.269531 31.121094 7.277344 31.121094 7.285156 31.121094 C 7.324219 31.144531 7.355469 31.175781 7.382812 31.21875 C 7.363281 31.21875 7.355469 31.226562 7.355469 31.242188 C 7.324219 31.203125 7.292969 31.160156 7.261719 31.121094 Z M 7.261719 31.121094 "/>
<use xlink:href="#surface63" mask="url(#mask19)"/>
<use xlink:href="#surface66" mask="url(#mask20)"/>
<path style=" stroke:none;fill-rule:evenodd;fill:rgb(0.784314%,0%,0%);fill-opacity:1;" d="M 15.207031 32.199219 C 15.640625 32.183594 15.832031 32.394531 15.769531 32.824219 C 15.675781 33.101562 15.480469 33.21875 15.183594 33.171875 C 14.90625 33.050781 14.796875 32.835938 14.859375 32.539062 C 14.894531 32.457031 14.9375 32.378906 14.992188 32.308594 C 15.058594 32.257812 15.128906 32.222656 15.207031 32.199219 Z M 15.207031 32.199219 "/>
<path style=" stroke:none;fill-rule:evenodd;fill:rgb(37.647059%,36.470588%,35.686275%);fill-opacity:1;" d="M 9.375 32.609375 C 9.398438 32.714844 9.40625 32.828125 9.398438 32.945312 C 9.367188 32.949219 9.34375 32.941406 9.324219 32.921875 C 9.371094 32.828125 9.386719 32.722656 9.375 32.609375 Z M 9.375 32.609375 "/>
<use xlink:href="#surface69" mask="url(#mask21)"/>
<use xlink:href="#surface72" mask="url(#mask22)"/>
<path style=" stroke:none;fill-rule:evenodd;fill:rgb(58.039216%,53.333333%,51.372549%);fill-opacity:1;" d="M 13.8125 32.632812 C 13.84375 32.851562 13.859375 33.078125 13.863281 33.304688 C 13.839844 34.027344 13.832031 34.757812 13.839844 35.488281 C 13.8125 34.542969 13.804688 33.589844 13.8125 32.632812 Z M 13.8125 32.632812 "/>
<path style=" stroke:none;fill-rule:evenodd;fill:rgb(70.588235%,69.019608%,67.45098%);fill-opacity:1;" d="M 8.917969 33.351562 C 7.75 33.351562 6.582031 33.351562 5.414062 33.351562 C 6.117188 33.300781 6.820312 33.234375 7.523438 33.148438 C 8.027344 33.113281 8.53125 33.097656 9.039062 33.101562 C 9.117188 33.113281 9.191406 33.132812 9.265625 33.160156 C 9.28125 33.183594 9.277344 33.203125 9.253906 33.222656 C 9.148438 33.28125 9.035156 33.324219 8.917969 33.351562 Z M 8.917969 33.351562 "/>
<path style=" stroke:none;fill-rule:evenodd;fill:rgb(72.54902%,70.196078%,68.235294%);fill-opacity:1;" d="M 13.863281 33.304688 C 13.910156 33.984375 13.957031 34.664062 14.007812 35.34375 C 13.914062 35.355469 13.863281 35.40625 13.863281 35.5 C 13.871094 35.621094 13.9375 35.671875 14.054688 35.65625 C 14.054688 35.730469 14.054688 35.800781 14.054688 35.875 C 14.007812 35.90625 13.957031 35.9375 13.910156 35.96875 C 13.878906 35.8125 13.855469 35.652344 13.839844 35.488281 C 13.832031 34.757812 13.839844 34.027344 13.863281 33.304688 Z M 13.863281 33.304688 "/>
<path style=" stroke:none;fill-rule:evenodd;fill:rgb(64.705882%,22.352941%,17.254902%);fill-opacity:1;" d="M 2.699219 33.351562 C 2.773438 33.351562 2.84375 33.351562 2.917969 33.351562 C 2.90625 33.460938 2.953125 33.527344 3.058594 33.546875 C 3.839844 33.40625 4.621094 33.34375 5.414062 33.351562 C 6.582031 33.351562 7.75 33.351562 8.917969 33.351562 C 8.753906 33.375 8.585938 33.386719 8.414062 33.390625 C 7.933594 33.484375 7.453125 33.570312 6.972656 33.652344 C 6.15625 33.675781 5.339844 33.699219 4.523438 33.714844 C 4.195312 33.710938 3.867188 33.707031 3.539062 33.703125 C 3.25 33.695312 2.976562 33.625 2.722656 33.484375 C 2.703125 33.445312 2.695312 33.402344 2.699219 33.351562 Z M 2.699219 33.351562 "/>
<path style=" stroke:none;fill-rule:evenodd;fill:rgb(66.27451%,22.745098%,17.647059%);fill-opacity:1;" d="M 3.277344 36.210938 C 3.28125 36.179688 3.273438 36.15625 3.253906 36.136719 C 3.257812 36.105469 3.25 36.082031 3.230469 36.066406 C 3.234375 36.035156 3.226562 36.011719 3.203125 35.992188 C 3.210938 35.960938 3.203125 35.9375 3.179688 35.921875 C 3.1875 35.890625 3.179688 35.867188 3.15625 35.851562 C 3.164062 35.820312 3.152344 35.792969 3.132812 35.777344 C 3.136719 35.746094 3.128906 35.722656 3.109375 35.707031 C 3.113281 35.675781 3.105469 35.652344 3.085938 35.632812 C 3.089844 35.601562 3.082031 35.578125 3.058594 35.5625 C 3.066406 35.53125 3.058594 35.507812 3.035156 35.488281 C 3.042969 35.457031 3.035156 35.433594 3.011719 35.417969 C 3.019531 35.386719 3.011719 35.363281 2.988281 35.34375 C 2.996094 35.316406 2.984375 35.289062 2.964844 35.273438 C 2.96875 35.242188 2.960938 35.21875 2.941406 35.203125 C 2.816406 34.746094 2.75 34.28125 2.738281 33.808594 C 2.949219 33.886719 3.167969 33.941406 3.398438 33.964844 C 3.988281 33.980469 4.582031 33.980469 5.171875 33.964844 C 5.730469 33.929688 6.292969 33.90625 6.851562 33.894531 C 7.300781 33.847656 7.742188 33.757812 8.171875 33.628906 C 8.429688 33.589844 8.683594 33.558594 8.941406 33.535156 C 9.09375 33.503906 9.242188 33.457031 9.386719 33.402344 C 9.40625 34.417969 9.292969 35.417969 9.050781 36.402344 C 8.921875 36.894531 8.695312 37.332031 8.378906 37.722656 C 8.285156 37.808594 8.183594 37.882812 8.078125 37.949219 C 6.894531 38.015625 5.707031 38.0625 4.523438 38.09375 C 4.238281 37.847656 3.992188 37.5625 3.792969 37.242188 C 3.582031 36.914062 3.410156 36.570312 3.277344 36.210938 Z M 3.277344 36.210938 "/>
<path style=" stroke:none;fill-rule:evenodd;fill:rgb(65.098039%,22.352941%,17.647059%);fill-opacity:1;" d="M 45.644531 34.625 C 45.734375 34.617188 45.820312 34.625 45.90625 34.648438 C 45.894531 34.671875 45.878906 34.691406 45.859375 34.710938 C 45.503906 34.847656 45.167969 35.023438 44.851562 35.238281 C 44.417969 35.472656 43.964844 35.640625 43.484375 35.742188 C 43.085938 35.816406 42.683594 35.875 42.28125 35.910156 C 42.308594 35.851562 42.3125 35.792969 42.292969 35.730469 C 42.246094 35.570312 42.199219 35.410156 42.152344 35.25 C 42.132812 35.203125 42.136719 35.160156 42.164062 35.117188 C 43.054688 34.960938 43.949219 34.851562 44.851562 34.78125 C 45.121094 34.753906 45.386719 34.699219 45.644531 34.625 Z M 45.644531 34.625 "/>
<path style=" stroke:none;fill-rule:evenodd;fill:rgb(69.411765%,66.666667%,64.705882%);fill-opacity:1;" d="M 46.769531 36.523438 C 46.65625 35.964844 46.449219 35.445312 46.148438 34.960938 C 46.179688 34.917969 46.214844 34.878906 46.253906 34.839844 C 46.460938 35.222656 46.621094 35.625 46.734375 36.042969 C 46.765625 36.199219 46.777344 36.359375 46.769531 36.523438 Z M 46.769531 36.523438 "/>
<path style=" stroke:none;fill-rule:evenodd;fill:rgb(66.27451%,22.745098%,17.647059%);fill-opacity:1;" d="M 46.148438 34.960938 C 46.449219 35.445312 46.65625 35.964844 46.769531 36.523438 C 46.792969 36.863281 46.738281 37.191406 46.617188 37.507812 C 46.472656 37.6875 46.375 37.894531 46.316406 38.117188 C 46.316406 38.234375 46.375 38.269531 46.484375 38.226562 C 46.515625 37.984375 46.613281 37.777344 46.769531 37.601562 C 46.695312 37.976562 46.542969 38.3125 46.316406 38.609375 C 45.929688 38.699219 45.535156 38.769531 45.140625 38.8125 C 44.464844 38.867188 43.792969 38.933594 43.121094 39.007812 C 42.132812 39.164062 41.140625 39.296875 40.144531 39.414062 C 39.890625 39.425781 39.632812 39.429688 39.378906 39.425781 C 38.890625 39.367188 38.402344 39.3125 37.914062 39.257812 C 37.609375 39.1875 37.296875 39.132812 36.976562 39.089844 C 36.660156 38.890625 36.371094 38.660156 36.101562 38.394531 C 35.773438 38.003906 35.652344 37.558594 35.742188 37.050781 C 35.808594 36.734375 35.886719 36.421875 35.980469 36.113281 C 35.992188 36.089844 36.007812 36.074219 36.03125 36.066406 C 36.132812 36.117188 36.242188 36.152344 36.355469 36.171875 C 36.714844 36.222656 37.078125 36.285156 37.433594 36.367188 C 38.835938 36.507812 40.234375 36.507812 41.632812 36.367188 C 42.1875 36.300781 42.738281 36.230469 43.289062 36.148438 C 44.0625 36.046875 44.765625 35.773438 45.402344 35.332031 C 45.652344 35.207031 45.902344 35.085938 46.148438 34.960938 Z M 46.148438 34.960938 "/>
<path style=" stroke:none;fill-rule:evenodd;fill:rgb(65.098039%,22.352941%,17.647059%);fill-opacity:1;" d="M 41.660156 35.175781 C 41.722656 35.171875 41.78125 35.179688 41.839844 35.203125 C 41.890625 35.421875 41.957031 35.636719 42.03125 35.851562 C 42.050781 35.894531 42.078125 35.929688 42.113281 35.957031 C 41.523438 36.042969 40.933594 36.097656 40.339844 36.125 C 39.570312 36.140625 38.800781 36.140625 38.035156 36.125 C 37.734375 36.113281 37.441406 36.082031 37.144531 36.03125 C 36.859375 35.964844 36.574219 35.914062 36.28125 35.886719 C 36.125 35.828125 36.132812 35.78125 36.304688 35.742188 C 36.5625 35.75 36.816406 35.75 37.074219 35.742188 C 38.234375 35.550781 39.402344 35.414062 40.578125 35.332031 C 40.941406 35.292969 41.304688 35.238281 41.660156 35.175781 Z M 41.660156 35.175781 "/>
<path style=" stroke:none;fill-rule:evenodd;fill:rgb(3.529412%,3.137255%,3.137255%);fill-opacity:1;" d="M 14.007812 35.34375 C 14.054688 35.359375 14.101562 35.382812 14.136719 35.417969 C 14.171875 35.523438 14.144531 35.605469 14.054688 35.65625 C 13.9375 35.671875 13.871094 35.621094 13.863281 35.5 C 13.863281 35.40625 13.914062 35.355469 14.007812 35.34375 Z M 14.007812 35.34375 "/>
<path style=" stroke:none;fill-rule:evenodd;fill:rgb(3.529412%,0.784314%,0.392157%);fill-opacity:1;" d="M 15.328125 35.371094 C 15.949219 35.390625 16.25 35.710938 16.226562 36.328125 C 16.179688 36.527344 16.097656 36.710938 15.988281 36.882812 C 15.785156 37.101562 15.554688 37.128906 15.300781 36.964844 C 14.992188 36.738281 14.878906 36.433594 14.964844 36.054688 C 14.957031 35.972656 14.921875 35.902344 14.859375 35.851562 C 14.84375 35.816406 14.84375 35.785156 14.859375 35.753906 C 14.988281 35.589844 15.140625 35.460938 15.328125 35.371094 Z M 15.328125 35.371094 "/>
<path style=" stroke:none;fill-rule:evenodd;fill:rgb(65.882353%,22.745098%,17.647059%);fill-opacity:1;" d="M 15.398438 35.65625 C 15.6875 35.644531 15.882812 35.773438 15.988281 36.042969 C 16.03125 36.34375 15.957031 36.613281 15.757812 36.847656 C 15.605469 36.925781 15.464844 36.90625 15.328125 36.796875 C 15.183594 36.703125 15.097656 36.570312 15.074219 36.402344 C 15.058594 36.257812 15.058594 36.113281 15.074219 35.96875 C 15.179688 35.859375 15.289062 35.753906 15.398438 35.65625 Z M 15.398438 35.65625 "/>
<use xlink:href="#surface75" mask="url(#mask23)"/>
</g>
</svg>
