<?xml version="1.0" encoding="UTF-8"?>
<svg xmlns="http://www.w3.org/2000/svg" xmlns:xlink="http://www.w3.org/1999/xlink" width="50pt" height="50pt" viewBox="0 0 50 50" version="1.1">
<defs>
<filter id="alpha" filterUnits="objectBoundingBox" x="0%" y="0%" width="100%" height="100%">
  <feColorMatrix type="matrix" in="SourceGraphic" values="0 0 0 0 1 0 0 0 0 1 0 0 0 0 1 0 0 0 1 0"/>
</filter>
<mask id="mask0">
  <g filter="url(#alpha)">
<rect x="0" y="0" width="50" height="50" style="fill:rgb(0%,0%,0%);fill-opacity:0.992157;stroke:none;"/>
  </g>
</mask>
<clipPath id="clip1">
  <rect width="50" height="50"/>
</clipPath>
<g id="surface6" clip-path="url(#clip1)">
<path style=" stroke:none;fill-rule:evenodd;fill:rgb(66.27451%,22.745098%,17.647059%);fill-opacity:1;" d="M 23.632812 5.125 C 23.429688 5.582031 23.222656 6.035156 23.019531 6.492188 C 22.773438 7.101562 22.582031 7.726562 22.445312 8.367188 C 22.238281 9.394531 22.054688 10.425781 21.890625 11.460938 C 21.773438 12.546875 21.933594 13.585938 22.371094 14.582031 C 22.742188 15.425781 23.203125 16.210938 23.75 16.933594 C 22.566406 16.605469 21.503906 16.046875 20.570312 15.253906 C 20.320312 14.941406 20.144531 14.589844 20.042969 14.199219 C 19.90625 13.605469 19.839844 13.007812 19.839844 12.398438 C 19.894531 10.769531 20.109375 9.160156 20.476562 7.574219 C 20.921875 5.542969 21.484375 3.539062 22.15625 1.570312 C 22.535156 2.804688 23.023438 3.988281 23.632812 5.125 Z M 23.632812 5.125 "/>
</g>
<mask id="mask1">
  <g filter="url(#alpha)">
<rect x="0" y="0" width="50" height="50" style="fill:rgb(0%,0%,0%);fill-opacity:0.996078;stroke:none;"/>
  </g>
</mask>
<clipPath id="clip2">
  <rect width="50" height="50"/>
</clipPath>
<g id="surface9" clip-path="url(#clip2)">
<path style=" stroke:none;fill-rule:evenodd;fill:rgb(0%,0%,0%);fill-opacity:1;" d="M 29.992188 13.117188 C 29.863281 13.828125 29.640625 14.507812 29.332031 15.160156 C 29.191406 15.40625 29.039062 15.648438 28.875 15.878906 C 28.636719 16.164062 28.398438 16.453125 28.167969 16.742188 C 27.703125 17.332031 27.160156 17.832031 26.535156 18.242188 C 26.46875 18.285156 26.398438 18.3125 26.320312 18.328125 C 26.257812 18.8125 26.195312 19.300781 26.140625 19.792969 C 26.117188 20.070312 26.105469 20.351562 26.105469 20.632812 C 28.398438 20.410156 30.699219 20.28125 33.003906 20.246094 C 34.402344 20.234375 35.789062 20.332031 37.171875 20.546875 C 38.117188 20.730469 39.0625 20.933594 40.003906 21.148438 C 40.515625 21.234375 41.027344 21.324219 41.539062 21.410156 C 42.074219 21.496094 42.570312 21.679688 43.027344 21.964844 C 43.65625 22.570312 43.667969 23.183594 43.050781 23.8125 C 42.886719 23.941406 42.710938 24.054688 42.523438 24.148438 C 41.910156 24.394531 41.292969 24.632812 40.675781 24.867188 C 40.226562 25.09375 39.785156 25.328125 39.355469 25.574219 C 39.640625 26.050781 39.898438 26.535156 40.132812 27.039062 C 40.222656 27.195312 40.320312 27.347656 40.421875 27.496094 C 40.921875 28.160156 41.433594 28.816406 41.957031 29.464844 C 42.203125 29.808594 42.433594 30.160156 42.65625 30.519531 C 43.261719 31.742188 43.863281 32.964844 44.457031 34.195312 C 45.1875 35.695312 45.761719 37.257812 46.183594 38.875 C 46.414062 39.703125 46.460938 40.542969 46.328125 41.394531 C 46.144531 42.371094 45.628906 43.113281 44.777344 43.613281 C 43.367188 44.304688 41.894531 44.832031 40.363281 45.199219 C 39.996094 45.269531 39.628906 45.332031 39.257812 45.390625 C 36.566406 45.757812 33.878906 46.144531 31.191406 46.542969 C 29.347656 46.84375 27.503906 47.179688 25.671875 47.550781 C 22.917969 48.007812 20.144531 48.261719 17.355469 48.308594 C 16.28125 48.320312 15.222656 48.210938 14.175781 47.984375 C 12.9375 47.679688 11.820312 47.140625 10.8125 46.375 C 10 45.792969 9.265625 45.117188 8.617188 44.347656 C 7.589844 43 7.179688 41.480469 7.394531 39.785156 C 7.484375 39.046875 7.628906 38.320312 7.824219 37.601562 C 8.132812 36.410156 8.445312 35.214844 8.761719 34.027344 C 9.058594 32.96875 9.378906 31.921875 9.722656 30.882812 C 9.863281 30.484375 10.015625 30.09375 10.175781 29.703125 C 10.535156 28.96875 10.871094 28.226562 11.1875 27.472656 C 11.355469 27.152344 11.582031 26.882812 11.871094 26.667969 C 11.304688 26.511719 10.738281 26.378906 10.164062 26.261719 C 9.550781 26.195312 8.933594 26.148438 8.316406 26.117188 C 7.847656 26.082031 7.410156 25.953125 6.996094 25.730469 C 6.734375 25.492188 6.652344 25.199219 6.746094 24.855469 C 6.976562 24.257812 7.40625 23.875 8.027344 23.714844 C 8.328125 23.648438 8.625 23.566406 8.917969 23.476562 C 9.09375 23.378906 9.269531 23.28125 9.445312 23.1875 C 9.566406 23.167969 9.6875 23.171875 9.804688 23.199219 C 9.863281 23.136719 9.921875 23.066406 9.972656 22.996094 C 10.046875 22.945312 10.125 22.914062 10.214844 22.898438 C 11.410156 22.769531 12.601562 22.617188 13.789062 22.445312 C 16.390625 22.039062 18.992188 21.632812 21.589844 21.21875 C 22.78125 21.039062 23.972656 20.882812 25.167969 20.75 C 25.191406 19.890625 25.273438 19.035156 25.40625 18.183594 C 25.429688 18.164062 25.4375 18.140625 25.433594 18.109375 C 25.40625 18.109375 25.382812 18.109375 25.359375 18.109375 C 24.964844 17.992188 24.613281 17.792969 24.304688 17.523438 C 24.105469 17.335938 23.921875 17.140625 23.75 16.933594 C 23.203125 16.210938 22.742188 15.425781 22.371094 14.582031 C 21.933594 13.585938 21.773438 12.546875 21.890625 11.460938 C 22.054688 10.425781 22.238281 9.394531 22.445312 8.367188 C 22.582031 7.726562 22.773438 7.101562 23.019531 6.492188 C 23.222656 6.035156 23.429688 5.582031 23.632812 5.125 C 24.03125 4.300781 24.347656 3.445312 24.578125 2.554688 C 24.792969 2.335938 25.046875 2.285156 25.335938 2.398438 C 25.507812 2.480469 25.613281 2.613281 25.660156 2.796875 C 25.640625 4.453125 26.078125 5.972656 26.980469 7.355469 C 27.09375 7.5 27.203125 7.644531 27.316406 7.789062 C 27.8125 8.316406 28.324219 8.828125 28.851562 9.324219 C 29.273438 9.753906 29.609375 10.242188 29.859375 10.789062 C 30.113281 11.554688 30.15625 12.332031 29.992188 13.117188 Z M 11.558594 23.679688 C 11.179688 23.824219 10.796875 23.960938 10.40625 24.085938 C 10.40625 23.992188 10.398438 23.894531 10.382812 23.800781 C 10.773438 23.753906 11.164062 23.714844 11.558594 23.679688 Z M 44.492188 38.488281 C 44.808594 39.25 44.929688 40.042969 44.863281 40.867188 C 44.839844 41.082031 44.777344 41.28125 44.683594 41.464844 C 44.640625 40.472656 44.574219 39.480469 44.492188 38.488281 Z M 44.492188 38.488281 "/>
</g>
<mask id="mask2">
  <g filter="url(#alpha)">
<rect x="0" y="0" width="50" height="50" style="fill:rgb(0%,0%,0%);fill-opacity:0.937255;stroke:none;"/>
  </g>
</mask>
<clipPath id="clip3">
  <rect width="50" height="50"/>
</clipPath>
<g id="surface12" clip-path="url(#clip3)">
<path style=" stroke:none;fill-rule:evenodd;fill:rgb(71.764706%,70.196078%,68.235294%);fill-opacity:1;" d="M 29.992188 13.117188 C 30.132812 13.636719 30.105469 14.148438 29.910156 14.65625 C 29.515625 15.507812 28.9375 16.203125 28.167969 16.742188 C 28.398438 16.453125 28.636719 16.164062 28.875 15.878906 C 29.039062 15.648438 29.191406 15.40625 29.332031 15.160156 C 29.640625 14.507812 29.863281 13.828125 29.992188 13.117188 Z M 29.992188 13.117188 "/>
</g>
</defs>
<g id="surface1">
<use xlink:href="#surface6" mask="url(#mask0)"/>
<use xlink:href="#surface9" mask="url(#mask1)"/>
<path style=" stroke:none;fill-rule:evenodd;fill:rgb(72.941176%,70.980392%,69.019608%);fill-opacity:1;" d="M 26.441406 15.519531 C 27.484375 13.984375 27.640625 12.359375 26.910156 10.644531 C 26.757812 10.308594 26.589844 9.980469 26.402344 9.660156 C 25.644531 8.5625 24.921875 7.441406 24.230469 6.300781 C 24.40625 5.9375 24.585938 5.578125 24.773438 5.222656 C 24.789062 5.1875 24.804688 5.1875 24.820312 5.222656 C 25.066406 6.011719 25.386719 6.773438 25.78125 7.5 C 26.015625 7.875 26.28125 8.226562 26.570312 8.558594 C 27.15625 9.164062 27.746094 9.765625 28.347656 10.359375 C 28.695312 10.71875 28.933594 11.144531 29.070312 11.628906 C 29.128906 12.65625 28.96875 13.648438 28.589844 14.605469 C 28.472656 14.839844 28.34375 15.0625 28.203125 15.277344 C 27.742188 15.902344 27.242188 16.5 26.703125 17.066406 C 26.613281 17.144531 26.519531 17.21875 26.429688 17.292969 C 26.410156 16.703125 26.414062 16.109375 26.441406 15.519531 Z M 26.441406 15.519531 "/>
<path style=" stroke:none;fill-rule:evenodd;fill:rgb(66.27451%,22.745098%,17.647059%);fill-opacity:1;" d="M 24.230469 6.300781 C 24.921875 7.441406 25.644531 8.5625 26.402344 9.660156 C 26.589844 9.980469 26.757812 10.308594 26.910156 10.644531 C 27.640625 12.359375 27.484375 13.984375 26.441406 15.519531 C 26.445312 14.933594 26.441406 14.351562 26.429688 13.765625 C 26.371094 13.421875 26.246094 13.109375 26.042969 12.828125 C 25.8125 12.554688 25.570312 12.542969 25.324219 12.804688 C 25.246094 12.933594 25.222656 13.066406 25.253906 13.214844 C 25.339844 13.347656 25.417969 13.480469 25.492188 13.621094 C 25.589844 13.953125 25.621094 14.289062 25.589844 14.628906 C 25.558594 14.863281 25.535156 15.09375 25.515625 15.328125 C 25.503906 15.804688 25.5 16.285156 25.503906 16.765625 C 25.457031 16.816406 25.414062 16.871094 25.382812 16.933594 C 25.261719 16.882812 25.152344 16.8125 25.046875 16.730469 C 24.6875 16.421875 24.386719 16.066406 24.148438 15.664062 C 23.722656 15.003906 23.386719 14.296875 23.140625 13.550781 C 22.949219 12.882812 22.886719 12.203125 22.949219 11.511719 C 23.082031 10.183594 23.339844 8.878906 23.714844 7.597656 C 23.859375 7.152344 24.03125 6.71875 24.230469 6.300781 Z M 24.230469 6.300781 "/>
<use xlink:href="#surface12" mask="url(#mask2)"/>
<path style=" stroke:none;fill-rule:evenodd;fill:rgb(68.627451%,65.098039%,63.137255%);fill-opacity:1;" d="M 25.503906 16.765625 C 25.511719 16.839844 25.503906 16.914062 25.480469 16.984375 C 25.449219 16.964844 25.414062 16.949219 25.382812 16.933594 C 25.414062 16.871094 25.457031 16.816406 25.503906 16.765625 Z M 25.503906 16.765625 "/>
<path style=" stroke:none;fill-rule:evenodd;fill:rgb(61.960784%,60.784314%,58.823529%);fill-opacity:1;" d="M 25.359375 18.109375 C 25.382812 18.109375 25.40625 18.109375 25.433594 18.109375 C 25.4375 18.140625 25.429688 18.164062 25.40625 18.183594 C 25.390625 18.160156 25.375 18.136719 25.359375 18.109375 Z M 25.359375 18.109375 "/>
<path style=" stroke:none;fill-rule:evenodd;fill:rgb(72.941176%,71.372549%,69.411765%);fill-opacity:1;" d="M 31.265625 21.375 C 33.5 21.316406 35.714844 21.480469 37.914062 21.867188 C 39.226562 22.179688 40.546875 22.453125 41.875 22.683594 C 42.027344 22.710938 42.160156 22.777344 42.269531 22.886719 C 42.289062 22.914062 42.285156 22.9375 42.257812 22.960938 C 42.039062 23.101562 41.808594 23.214844 41.5625 23.308594 C 41.15625 23.429688 40.757812 23.566406 40.363281 23.714844 C 39.691406 24.042969 39.027344 24.382812 38.371094 24.734375 C 37.867188 24.542969 37.515625 24.699219 37.3125 25.203125 C 33.757812 26.5 30.085938 27.070312 26.296875 26.921875 C 26.191406 26.484375 26.125 26.046875 26.09375 25.601562 C 26.085938 24.320312 26.089844 23.039062 26.105469 21.757812 C 27.824219 21.574219 29.542969 21.445312 31.265625 21.375 Z M 31.265625 21.375 "/>
<path style=" stroke:none;fill-rule:evenodd;fill:rgb(72.941176%,71.372549%,69.411765%);fill-opacity:1;" d="M 25.382812 26.800781 C 25.265625 26.847656 25.136719 26.863281 25 26.847656 C 22.902344 26.746094 20.808594 26.640625 18.710938 26.523438 C 16.058594 26.3125 13.476562 25.777344 10.957031 24.914062 C 10.601562 24.820312 10.242188 24.746094 9.878906 24.699219 C 10 24.609375 10.125 24.515625 10.25 24.425781 C 10.320312 24.320312 10.375 24.207031 10.40625 24.085938 C 10.796875 23.960938 11.179688 23.824219 11.558594 23.679688 C 12.671875 23.546875 13.78125 23.40625 14.894531 23.257812 C 17.375 22.902344 19.855469 22.550781 22.335938 22.203125 C 23.28125 22.085938 24.222656 21.980469 25.167969 21.878906 C 25.164062 22.992188 25.167969 24.105469 25.179688 25.214844 C 25.226562 25.746094 25.292969 26.277344 25.382812 26.800781 Z M 25.382812 26.800781 "/>
<path style=" stroke:none;fill-rule:evenodd;fill:rgb(72.941176%,71.372549%,69.411765%);fill-opacity:1;" d="M 44.492188 38.488281 C 44.574219 39.480469 44.640625 40.472656 44.683594 41.464844 C 44.644531 41.613281 44.574219 41.75 44.480469 41.875 C 44.140625 42.234375 43.738281 42.492188 43.265625 42.65625 C 42.460938 42.988281 41.636719 43.261719 40.792969 43.484375 C 41.503906 42.523438 41.953125 41.453125 42.140625 40.265625 C 42.371094 39.722656 42.511719 39.15625 42.558594 38.5625 C 42.707031 37.207031 42.5625 35.886719 42.125 34.601562 C 41.988281 34.226562 41.835938 33.859375 41.671875 33.496094 C 41.234375 32.597656 40.777344 31.710938 40.300781 30.832031 C 40.054688 30.585938 39.753906 30.4375 39.402344 30.390625 C 39.097656 30.355469 38.792969 30.347656 38.488281 30.363281 C 37.515625 30.542969 36.539062 30.710938 35.5625 30.867188 C 33.953125 31.089844 32.34375 31.3125 30.738281 31.542969 C 29.671875 31.71875 28.605469 31.914062 27.542969 32.128906 C 27.429688 31.730469 27.320312 31.332031 27.21875 30.929688 C 27.007812 30.019531 26.804688 29.105469 26.609375 28.191406 C 27.003906 28.152344 27.402344 28.128906 27.808594 28.121094 C 31.246094 28.089844 34.574219 27.472656 37.792969 26.261719 C 37.824219 26.242188 37.859375 26.242188 37.890625 26.261719 C 37.96875 26.328125 38.035156 26.40625 38.09375 26.488281 C 38.238281 26.796875 38.375 27.109375 38.503906 27.425781 C 38.824219 27.921875 39.167969 28.402344 39.535156 28.863281 C 40.136719 29.542969 40.703125 30.246094 41.238281 30.976562 C 42.640625 33.339844 43.726562 35.84375 44.492188 38.488281 Z M 44.492188 38.488281 "/>
<path style=" stroke:none;fill-rule:evenodd;fill:rgb(45.098039%,43.921569%,42.745098%);fill-opacity:1;" d="M 25.382812 26.800781 C 25.40625 26.816406 25.414062 26.839844 25.40625 26.871094 C 25.265625 26.878906 25.132812 26.871094 25 26.847656 C 25.136719 26.863281 25.265625 26.847656 25.382812 26.800781 Z M 25.382812 26.800781 "/>
<path style=" stroke:none;fill-rule:evenodd;fill:rgb(72.941176%,71.372549%,69.411765%);fill-opacity:1;" d="M 13.070312 26.96875 C 14.664062 27.355469 16.28125 27.613281 17.917969 27.75 C 20.5 27.925781 23.085938 28.039062 25.671875 28.097656 C 25.96875 29.5 26.289062 30.902344 26.632812 32.296875 C 25.082031 32.617188 23.523438 32.867188 21.953125 33.054688 C 20.140625 33.21875 18.332031 33.417969 16.527344 33.652344 C 15.558594 33.8125 14.597656 34.015625 13.644531 34.253906 C 13.203125 34.34375 12.753906 34.417969 12.300781 34.46875 C 11.851562 34.484375 11.398438 34.480469 10.945312 34.457031 C 10.699219 34.460938 10.457031 34.484375 10.214844 34.53125 C 10.542969 33.207031 10.957031 31.910156 11.449219 30.640625 C 11.699219 30.128906 11.945312 29.617188 12.195312 29.105469 C 12.320312 28.699219 12.503906 28.324219 12.746094 27.976562 C 12.890625 27.871094 13.011719 27.742188 13.105469 27.59375 C 13.195312 27.378906 13.183594 27.167969 13.070312 26.96875 Z M 13.070312 26.96875 "/>
<path style=" stroke:none;fill-rule:evenodd;fill:rgb(42.745098%,41.568627%,40.392157%);fill-opacity:1;" d="M 27.808594 28.121094 C 27.402344 28.128906 27.003906 28.152344 26.609375 28.191406 C 26.585938 28.175781 26.578125 28.152344 26.585938 28.121094 C 26.992188 28.121094 27.398438 28.121094 27.808594 28.121094 Z M 27.808594 28.121094 "/>
<path style=" stroke:none;fill-rule:evenodd;fill:rgb(65.882353%,22.745098%,17.647059%);fill-opacity:1;" d="M 38.707031 31.503906 C 38.882812 31.503906 39.058594 31.503906 39.234375 31.503906 C 39.214844 31.617188 39.148438 31.703125 39.042969 31.757812 C 38.59375 31.953125 38.152344 32.171875 37.722656 32.40625 C 37.023438 32.832031 36.324219 33.261719 35.632812 33.703125 C 34.375 34.386719 33.046875 34.882812 31.648438 35.191406 C 30.5625 35.410156 29.476562 35.609375 28.382812 35.789062 C 28.515625 35.667969 28.558594 35.519531 28.515625 35.34375 C 28.269531 34.691406 28.054688 34.027344 27.878906 33.351562 C 29.214844 33.101562 30.550781 32.867188 31.890625 32.644531 C 33.339844 32.449219 34.785156 32.25 36.234375 32.046875 C 36.570312 31.988281 36.90625 31.921875 37.242188 31.851562 C 37.730469 31.71875 38.214844 31.601562 38.707031 31.503906 Z M 38.707031 31.503906 "/>
<path style=" stroke:none;fill-rule:evenodd;fill:rgb(71.764706%,69.803922%,67.843137%);fill-opacity:1;" d="M 42.019531 36.976562 C 42.027344 37.070312 42.019531 37.160156 41.996094 37.242188 C 41.597656 35.523438 40.925781 33.921875 39.976562 32.441406 C 40.085938 32.34375 40.171875 32.230469 40.242188 32.105469 C 40.257812 32.074219 40.273438 32.074219 40.289062 32.105469 C 40.761719 32.941406 41.171875 33.804688 41.527344 34.699219 C 41.816406 35.429688 41.980469 36.191406 42.019531 36.976562 Z M 42.019531 36.976562 "/>
<path style=" stroke:none;fill-rule:evenodd;fill:rgb(66.27451%,22.745098%,17.647059%);fill-opacity:1;" d="M 39.976562 32.441406 C 40.925781 33.921875 41.597656 35.523438 41.996094 37.242188 C 41.996094 37.296875 42.011719 37.34375 42.042969 37.386719 C 42.066406 38.015625 42.019531 38.640625 41.910156 39.257812 C 41.847656 39.484375 41.773438 39.707031 41.695312 39.929688 C 41.523438 40.273438 41.339844 40.609375 41.144531 40.9375 C 40.949219 41.265625 40.84375 41.617188 40.820312 41.996094 C 40.792969 42.28125 40.921875 42.398438 41.203125 42.34375 C 41.269531 42.324219 41.316406 42.277344 41.335938 42.210938 C 41.332031 41.945312 41.382812 41.6875 41.480469 41.441406 C 41.675781 41.035156 41.894531 40.640625 42.140625 40.265625 C 41.953125 41.453125 41.503906 42.523438 40.792969 43.484375 C 39.933594 43.710938 39.0625 43.890625 38.179688 44.023438 C 35.699219 44.363281 33.21875 44.707031 30.738281 45.054688 C 29.171875 45.316406 27.609375 45.605469 26.054688 45.917969 C 24.402344 46.226562 22.738281 46.453125 21.0625 46.601562 C 18.882812 46.503906 16.707031 46.324219 14.535156 46.0625 C 13.890625 45.976562 13.25 45.875 12.613281 45.761719 C 11.816406 45.273438 11.0625 44.714844 10.359375 44.09375 C 9.179688 42.984375 8.6875 41.617188 8.882812 40.003906 C 8.925781 39.566406 9 39.132812 9.097656 38.707031 C 9.238281 38.121094 9.382812 37.539062 9.53125 36.953125 C 9.535156 36.902344 9.558594 36.863281 9.601562 36.832031 C 9.878906 36.96875 10.171875 37.058594 10.476562 37.109375 C 11.464844 37.230469 12.449219 37.375 13.429688 37.542969 C 14.289062 37.65625 15.15625 37.722656 16.023438 37.734375 C 18.335938 37.78125 20.648438 37.734375 22.960938 37.589844 C 23.890625 37.511719 24.816406 37.414062 25.742188 37.300781 C 27.441406 37.046875 29.140625 36.773438 30.832031 36.484375 C 32.007812 36.28125 33.160156 35.984375 34.289062 35.597656 C 34.898438 35.363281 35.492188 35.09375 36.066406 34.78125 C 36.703125 34.378906 37.335938 33.972656 37.960938 33.558594 C 38.472656 33.273438 38.992188 33.011719 39.523438 32.765625 C 39.679688 32.660156 39.828125 32.554688 39.976562 32.441406 Z M 39.976562 32.441406 "/>
<path style=" stroke:none;fill-rule:evenodd;fill:rgb(65.882353%,22.745098%,17.647059%);fill-opacity:1;" d="M 26.824219 33.546875 C 26.894531 33.535156 26.953125 33.550781 27.003906 33.59375 C 27.203125 34.28125 27.429688 34.960938 27.675781 35.632812 C 27.746094 35.765625 27.851562 35.84375 28 35.863281 C 25.371094 36.378906 22.714844 36.675781 20.03125 36.75 C 18.359375 36.800781 16.6875 36.816406 15.015625 36.796875 C 13.910156 36.746094 12.8125 36.617188 11.726562 36.414062 C 11.316406 36.371094 10.910156 36.328125 10.5 36.292969 C 10.300781 36.265625 10.117188 36.199219 9.949219 36.089844 C 10.15625 35.953125 10.378906 35.859375 10.621094 35.8125 C 11 35.800781 11.375 35.8125 11.75 35.851562 C 12.03125 35.84375 12.308594 35.828125 12.589844 35.8125 C 14.027344 35.542969 15.46875 35.277344 16.910156 35.023438 C 18.941406 34.742188 20.972656 34.476562 23.007812 34.230469 C 24.289062 34.03125 25.5625 33.800781 26.824219 33.546875 Z M 26.824219 33.546875 "/>
<path style=" stroke:none;fill-rule:evenodd;fill:rgb(42.745098%,37.647059%,36.078431%);fill-opacity:1;" d="M 42.019531 36.976562 C 42.042969 37.109375 42.050781 37.246094 42.042969 37.386719 C 42.011719 37.34375 41.996094 37.296875 41.996094 37.242188 C 42.019531 37.160156 42.027344 37.070312 42.019531 36.976562 Z M 42.019531 36.976562 "/>
<path style=" stroke:none;fill-rule:evenodd;fill:rgb(72.156863%,70.196078%,68.235294%);fill-opacity:1;" d="M 12.613281 45.761719 C 13.25 45.875 13.890625 45.976562 14.535156 46.0625 C 16.707031 46.324219 18.882812 46.503906 21.0625 46.601562 C 20.050781 46.699219 19.03125 46.777344 18.015625 46.832031 C 16.984375 46.886719 15.960938 46.832031 14.941406 46.664062 C 14.097656 46.53125 13.320312 46.230469 12.613281 45.761719 Z M 12.613281 45.761719 "/>
</g>
</svg>
