<?xml version="1.0" encoding="UTF-8"?>
<svg xmlns="http://www.w3.org/2000/svg" xmlns:xlink="http://www.w3.org/1999/xlink" width="50pt" height="50pt" viewBox="0 0 50 50" version="1.1">
<defs>
<filter id="alpha" filterUnits="objectBoundingBox" x="0%" y="0%" width="100%" height="100%">
  <feColorMatrix type="matrix" in="SourceGraphic" values="0 0 0 0 1 0 0 0 0 1 0 0 0 0 1 0 0 0 1 0"/>
</filter>
<mask id="mask0">
  <g filter="url(#alpha)">
<rect x="0" y="0" width="50" height="50" style="fill:rgb(0%,0%,0%);fill-opacity:0.988235;stroke:none;"/>
  </g>
</mask>
<clipPath id="clip1">
  <rect width="50" height="50"/>
</clipPath>
<g id="surface6" clip-path="url(#clip1)">
<path style=" stroke:none;fill-rule:evenodd;fill:rgb(0.392157%,0.392157%,0.392157%);fill-opacity:1;" d="M 18.019531 2.902344 C 18.394531 2.820312 18.761719 2.722656 19.121094 2.613281 C 20.046875 2.496094 20.972656 2.449219 21.90625 2.472656 C 25.738281 2.21875 28.851562 3.578125 31.238281 6.550781 C 33.015625 8.886719 34.164062 11.511719 34.691406 14.417969 C 35.21875 17.328125 35.238281 20.238281 34.742188 23.152344 C 34.394531 25.570312 33.882812 27.957031 33.207031 30.300781 C 32.667969 31.984375 31.949219 33.585938 31.046875 35.101562 C 29.847656 36.890625 28.648438 38.683594 27.445312 40.476562 C 27.058594 41.035156 26.617188 41.554688 26.128906 42.035156 C 25.832031 42.144531 25.542969 42.125 25.265625 41.988281 C 24.96875 41.761719 24.710938 41.496094 24.496094 41.195312 C 24.140625 41.191406 23.847656 41.066406 23.609375 40.8125 C 23.21875 39.667969 22.769531 38.546875 22.265625 37.453125 C 20.929688 34.808594 19.617188 32.15625 18.332031 29.488281 C 17.5625 28.195312 16.941406 26.835938 16.457031 25.40625 C 16.082031 24.785156 15.730469 24.144531 15.402344 23.488281 C 15.21875 22.886719 15.007812 22.296875 14.777344 21.714844 C 14.21875 20.78125 13.707031 19.824219 13.242188 18.832031 C 12.652344 17.332031 12.058594 15.828125 11.46875 14.324219 C 11.113281 13.535156 10.746094 12.75 10.363281 11.972656 C 10.324219 11.730469 10.371094 11.507812 10.507812 11.300781 C 10.523438 10.949219 10.539062 10.597656 10.554688 10.246094 C 10.589844 10.027344 10.65625 9.820312 10.75 9.621094 C 11.472656 8.542969 12.160156 7.4375 12.8125 6.308594 C 13.421875 5.800781 14.039062 5.296875 14.660156 4.796875 C 14.835938 4.6875 15.019531 4.664062 15.210938 4.726562 C 15.964844 3.835938 16.902344 3.226562 18.019531 2.902344 Z M 18.019531 2.902344 "/>
</g>
<mask id="mask1">
  <g filter="url(#alpha)">
<rect x="0" y="0" width="50" height="50" style="fill:rgb(0%,0%,0%);fill-opacity:0.615686;stroke:none;"/>
  </g>
</mask>
<clipPath id="clip2">
  <rect width="50" height="50"/>
</clipPath>
<g id="surface9" clip-path="url(#clip2)">
<path style=" stroke:none;fill-rule:evenodd;fill:rgb(78.039216%,76.862745%,74.509804%);fill-opacity:1;" d="M 19.121094 2.613281 C 18.761719 2.722656 18.394531 2.820312 18.019531 2.902344 C 18.355469 2.710938 18.722656 2.613281 19.121094 2.613281 Z M 19.121094 2.613281 "/>
</g>
</defs>
<g id="surface1">
<use xlink:href="#surface6" mask="url(#mask0)"/>
<use xlink:href="#surface9" mask="url(#mask1)"/>
<path style=" stroke:none;fill-rule:evenodd;fill:rgb(94.509804%,92.941176%,90.196078%);fill-opacity:1;" d="M 20.226562 3.910156 C 21.25 3.902344 22.273438 3.910156 23.296875 3.933594 C 25.488281 4.046875 27.390625 4.828125 29.007812 6.285156 C 30.878906 8.167969 32.167969 10.398438 32.871094 12.980469 C 33.589844 15.605469 33.8125 18.277344 33.542969 20.992188 C 33.242188 24.199219 32.601562 27.335938 31.621094 30.398438 C 31.179688 31.683594 30.621094 32.914062 29.941406 34.09375 C 28.726562 35.917969 27.511719 37.738281 26.296875 39.5625 C 26.117188 39.824219 25.917969 40.0625 25.695312 40.28125 C 25.429688 39.800781 25.230469 39.289062 25.097656 38.746094 C 24.652344 36.824219 24.140625 34.921875 23.558594 33.039062 C 22.757812 30.691406 21.972656 28.339844 21.210938 25.984375 C 20.304688 23.699219 19.410156 21.414062 18.523438 19.121094 C 18.050781 17.96875 17.539062 16.832031 16.988281 15.714844 C 17.023438 15.476562 17.039062 15.238281 17.035156 14.996094 C 16.644531 14.554688 16.34375 14.058594 16.121094 13.507812 C 15.777344 12.597656 15.492188 11.667969 15.257812 10.722656 C 15.164062 9.875 15.164062 9.027344 15.257812 8.179688 C 15.558594 6.171875 16.671875 4.851562 18.59375 4.222656 C 19.140625 4.089844 19.683594 3.984375 20.226562 3.910156 Z M 20.226562 3.910156 "/>
<path style=" stroke:none;fill-rule:evenodd;fill:rgb(0.784314%,0.784314%,0.784314%);fill-opacity:1;" d="M 29.628906 9.910156 C 30.082031 10.636719 30.546875 11.359375 31.023438 12.066406 C 32.175781 14.191406 32.34375 16.402344 31.527344 18.691406 C 30.308594 21.859375 28.078125 22.957031 24.832031 21.976562 C 23.074219 21.320312 21.707031 20.191406 20.730469 18.59375 C 20.117188 17.503906 19.605469 16.367188 19.195312 15.1875 C 18.566406 13.308594 18.664062 11.46875 19.480469 9.667969 C 19.546875 8.683594 19.9375 7.863281 20.65625 7.199219 C 21.132812 6.863281 21.660156 6.671875 22.242188 6.621094 C 23.097656 6.558594 23.953125 6.488281 24.808594 6.40625 C 25.890625 6.398438 26.84375 6.742188 27.664062 7.4375 C 28.4375 8.171875 29.09375 8.996094 29.628906 9.910156 Z M 29.628906 9.910156 "/>
<path style=" stroke:none;fill-rule:evenodd;fill:rgb(57.647059%,60.784314%,70.980392%);fill-opacity:1;" d="M 20.371094 14.035156 C 20.402344 13.972656 20.417969 13.902344 20.417969 13.820312 C 20.378906 13.257812 20.3125 12.707031 20.226562 12.164062 C 20.253906 11.9375 20.300781 11.710938 20.371094 11.492188 C 20.539062 11.417969 20.675781 11.308594 20.777344 11.15625 C 20.835938 10.777344 20.867188 10.390625 20.875 10.003906 C 21.160156 9.445312 21.40625 8.875 21.617188 8.300781 C 21.910156 8.117188 22.226562 8.019531 22.578125 8.011719 C 23.332031 7.980469 24.082031 7.925781 24.832031 7.84375 C 25.582031 7.851562 26.238281 8.101562 26.800781 8.589844 C 27.167969 8.933594 27.496094 9.308594 27.78125 9.71875 C 28.441406 10.710938 29.082031 11.71875 29.703125 12.738281 C 29.921875 13.164062 30.132812 13.597656 30.328125 14.035156 C 30.78125 15.945312 30.527344 17.753906 29.558594 19.457031 C 28.453125 20.898438 27.039062 21.308594 25.3125 20.679688 C 23.925781 20.078125 22.8125 19.144531 21.976562 17.875 C 21.277344 16.660156 20.742188 15.382812 20.371094 14.035156 Z M 20.371094 14.035156 "/>
<path style=" stroke:none;fill-rule:evenodd;fill:rgb(56.078431%,58.823529%,67.843137%);fill-opacity:1;" d="M 29.628906 9.910156 C 30.25 10.519531 30.714844 11.242188 31.023438 12.066406 C 30.546875 11.359375 30.082031 10.636719 29.628906 9.910156 Z M 29.628906 9.910156 "/>
<path style=" stroke:none;fill-rule:evenodd;fill:rgb(80%,78.823529%,77.647059%);fill-opacity:1;" d="M 20.226562 12.164062 C 20.3125 12.707031 20.378906 13.257812 20.417969 13.820312 C 20.417969 13.902344 20.402344 13.972656 20.371094 14.035156 C 20.1875 13.421875 20.140625 12.796875 20.226562 12.164062 Z M 20.226562 12.164062 "/>
<path style=" stroke:none;fill-rule:evenodd;fill:rgb(56.862745%,60%,69.803922%);fill-opacity:1;" d="M 13.941406 7.269531 C 13.96875 7.28125 13.984375 7.304688 13.988281 7.339844 C 13.761719 8.296875 13.6875 9.265625 13.773438 10.246094 C 13.921875 11.121094 14.066406 12.003906 14.203125 12.882812 C 14.363281 13.476562 14.570312 14.054688 14.828125 14.609375 C 15.558594 16.011719 16.238281 17.433594 16.867188 18.882812 C 16.238281 18.84375 15.671875 19.003906 15.164062 19.363281 C 15.050781 19.167969 14.9375 18.976562 14.828125 18.785156 C 14.8125 18.5625 14.796875 18.339844 14.777344 18.113281 C 14.699219 17.90625 14.554688 17.761719 14.347656 17.683594 C 14.28125 17.570312 14.273438 17.457031 14.324219 17.347656 C 14.609375 17.238281 14.859375 17.078125 15.066406 16.867188 C 15.269531 16.125 14.988281 15.765625 14.226562 15.785156 C 14.058594 15.863281 13.898438 15.949219 13.746094 16.050781 C 13.542969 15.546875 13.335938 15.042969 13.125 14.539062 C 13.460938 14.328125 13.773438 14.082031 14.058594 13.796875 C 14.371094 13.167969 14.1875 12.769531 13.507812 12.597656 C 13.1875 12.636719 12.929688 12.789062 12.738281 13.050781 C 12.679688 13.097656 12.617188 13.113281 12.546875 13.101562 C 12.355469 12.683594 12.144531 12.277344 11.925781 11.875 C 12.292969 11.800781 12.554688 11.59375 12.714844 11.253906 C 12.914062 11.027344 13.136719 10.835938 13.386719 10.675781 C 13.628906 10.296875 13.605469 9.9375 13.316406 9.597656 C 13.050781 9.476562 12.78125 9.445312 12.5 9.5 C 12.980469 8.929688 13.375 8.296875 13.675781 7.605469 C 13.765625 7.492188 13.851562 7.378906 13.941406 7.269531 Z M 13.941406 7.269531 "/>
<path style=" stroke:none;fill-rule:evenodd;fill:rgb(56.862745%,59.607843%,69.803922%);fill-opacity:1;" d="M 17.296875 20.273438 C 17.363281 20.265625 17.417969 20.28125 17.464844 20.320312 C 17.613281 20.707031 17.765625 21.089844 17.921875 21.472656 C 17.738281 21.472656 17.546875 21.480469 17.347656 21.496094 C 17.1875 21.574219 17.046875 21.671875 16.914062 21.785156 C 16.75 21.808594 16.589844 21.851562 16.433594 21.90625 C 16.28125 21.527344 16.121094 21.152344 15.953125 20.777344 C 16 20.675781 16.042969 20.570312 16.074219 20.464844 C 16.125 20.433594 16.183594 20.410156 16.242188 20.394531 C 16.546875 20.378906 16.851562 20.363281 17.15625 20.34375 C 17.214844 20.335938 17.261719 20.308594 17.296875 20.273438 Z M 17.296875 20.273438 "/>
<path style=" stroke:none;fill-rule:evenodd;fill:rgb(56.470588%,59.607843%,69.803922%);fill-opacity:1;" d="M 18.257812 22.433594 C 18.777344 23.664062 19.265625 24.910156 19.722656 26.175781 C 20.535156 28.644531 21.367188 31.109375 22.21875 33.566406 C 22.328125 33.882812 22.40625 34.203125 22.457031 34.523438 C 21.640625 32.828125 20.824219 31.132812 20.007812 29.4375 C 19.5625 28.640625 19.113281 27.839844 18.667969 27.039062 C 18.632812 26.992188 18.632812 26.945312 18.667969 26.894531 C 19 26.503906 19.007812 26.113281 18.691406 25.71875 C 18.492188 25.632812 18.285156 25.574219 18.066406 25.550781 C 17.738281 24.761719 17.355469 24 16.914062 23.273438 C 17.203125 23.191406 17.492188 23.097656 17.777344 22.984375 C 18 22.851562 18.160156 22.667969 18.257812 22.433594 Z M 18.257812 22.433594 "/>
</g>
</svg>
