<?xml version="1.0" encoding="UTF-8"?>
<svg xmlns="http://www.w3.org/2000/svg" xmlns:xlink="http://www.w3.org/1999/xlink" width="50pt" height="50pt" viewBox="0 0 50 50" version="1.1">
<defs>
<filter id="alpha" filterUnits="objectBoundingBox" x="0%" y="0%" width="100%" height="100%">
  <feColorMatrix type="matrix" in="SourceGraphic" values="0 0 0 0 1 0 0 0 0 1 0 0 0 0 1 0 0 0 1 0"/>
</filter>
<mask id="mask0">
  <g filter="url(#alpha)">
<rect x="0" y="0" width="50" height="50" style="fill:rgb(0%,0%,0%);fill-opacity:0.996078;stroke:none;"/>
  </g>
</mask>
<clipPath id="clip1">
  <rect width="50" height="50"/>
</clipPath>
<g id="surface6" clip-path="url(#clip1)">
<path style=" stroke:none;fill-rule:evenodd;fill:rgb(66.666667%,23.137255%,18.039216%);fill-opacity:1;" d="M 23.679688 1.308594 C 28.296875 1.257812 32.578125 2.425781 36.523438 4.800781 C 39.21875 6.492188 41.425781 8.679688 43.136719 11.367188 C 43.800781 12.40625 44.414062 13.480469 44.984375 14.582031 C 45.757812 16.128906 46.515625 17.679688 47.261719 19.238281 C 48.859375 22.695312 49.402344 26.3125 48.894531 30.089844 C 48.035156 36.960938 44.582031 42.046875 38.539062 45.34375 C 34.984375 47.167969 31.207031 48.152344 27.207031 48.296875 C 20.191406 48.570312 14.0625 46.410156 8.820312 41.816406 C 4.359375 37.738281 1.660156 32.691406 0.71875 26.679688 C 0.179688 22.828125 0.570312 19.074219 1.894531 15.421875 C 2.671875 13.339844 3.800781 11.484375 5.28125 9.855469 C 6.738281 8.289062 8.359375 6.933594 10.140625 5.785156 C 11.425781 4.953125 12.746094 4.175781 14.101562 3.457031 C 17.148438 2.082031 20.339844 1.363281 23.679688 1.308594 Z M 23.679688 1.308594 "/>
</g>
</defs>
<g id="surface1">
<use xlink:href="#surface6" mask="url(#mask0)"/>
<path style=" stroke:none;fill-rule:evenodd;fill:rgb(99.607843%,99.607843%,99.607843%);fill-opacity:1;" d="M 31.527344 10.933594 C 29.019531 9.921875 26.421875 9.566406 23.726562 9.867188 C 21.769531 10.050781 19.917969 10.601562 18.183594 11.523438 C 17.984375 11.632812 17.824219 11.785156 17.703125 11.976562 C 17.054688 12.171875 16.667969 12.597656 16.539062 13.261719 C 16.53125 17.007812 16.523438 20.75 16.515625 24.496094 C 15.933594 25.144531 15.871094 25.839844 16.324219 26.585938 C 16.378906 26.664062 16.441406 26.734375 16.515625 26.800781 C 16.527344 26.953125 16.53125 27.105469 16.527344 27.257812 C 13.769531 30.257812 10.996094 33.25 8.210938 36.234375 C 5.394531 32.402344 3.953125 28.101562 3.875 23.332031 C 3.820312 18.1875 5.710938 13.921875 9.542969 10.539062 C 11.472656 8.90625 13.570312 7.515625 15.832031 6.359375 C 19.09375 4.914062 22.5 4.378906 26.054688 4.753906 C 29.097656 5.074219 31.921875 6.023438 34.53125 7.609375 C 33.53125 8.722656 32.53125 9.832031 31.527344 10.933594 Z M 31.527344 10.933594 "/>
<path style=" stroke:none;fill-rule:evenodd;fill:rgb(0%,0%,0%);fill-opacity:1;" d="M 31.527344 10.933594 C 30.710938 11.832031 29.894531 12.726562 29.082031 13.621094 C 27.554688 13.210938 26.003906 13.074219 24.425781 13.203125 C 23.167969 13.292969 21.953125 13.554688 20.773438 13.996094 C 20.476562 14.117188 20.1875 14.253906 19.910156 14.414062 C 19.886719 17.484375 19.878906 20.554688 19.886719 23.632812 C 18.773438 24.847656 17.652344 26.054688 16.527344 27.257812 C 16.53125 27.105469 16.527344 26.953125 16.515625 26.800781 C 16.441406 26.734375 16.378906 26.664062 16.324219 26.585938 C 15.871094 25.839844 15.933594 25.144531 16.515625 24.496094 C 16.523438 20.75 16.53125 17.007812 16.539062 13.261719 C 16.667969 12.597656 17.054688 12.171875 17.703125 11.976562 C 17.824219 11.785156 17.984375 11.632812 18.183594 11.523438 C 19.917969 10.601562 21.769531 10.050781 23.726562 9.867188 C 26.421875 9.566406 29.019531 9.921875 31.527344 10.933594 Z M 31.527344 10.933594 "/>
<path style=" stroke:none;fill-rule:evenodd;fill:rgb(99.607843%,99.607843%,99.607843%);fill-opacity:1;" d="M 16.285156 34.960938 C 16.261719 36.40625 16.320312 37.847656 16.464844 39.28125 C 16.53125 39.710938 16.609375 40.132812 16.707031 40.554688 C 16.910156 41.046875 17.265625 41.371094 17.773438 41.527344 C 18.304688 41.671875 18.808594 41.605469 19.285156 41.335938 C 19.488281 41.199219 19.636719 41.015625 19.730469 40.792969 C 19.898438 40.472656 20.027344 40.136719 20.113281 39.785156 C 20.1875 39.269531 20.058594 38.816406 19.730469 38.417969 C 19.566406 37.136719 19.507812 35.847656 19.5625 34.554688 C 19.601562 33.457031 19.652344 32.359375 19.71875 31.265625 C 20.277344 30.640625 20.847656 30.023438 21.421875 29.417969 C 22.472656 29.722656 23.546875 29.863281 24.640625 29.835938 C 26.417969 29.726562 28.089844 29.246094 29.65625 28.398438 C 31.722656 27.273438 33.449219 25.757812 34.828125 23.847656 C 35.734375 22.585938 36.320312 21.1875 36.582031 19.648438 C 36.730469 18.4375 36.648438 17.246094 36.34375 16.070312 C 36.140625 15.371094 35.839844 14.726562 35.441406 14.125 C 36.3125 13.171875 37.183594 12.210938 38.046875 11.246094 C 38.171875 11.09375 38.28125 10.933594 38.382812 10.765625 C 39.046875 11.484375 39.644531 12.253906 40.183594 13.070312 C 41.1875 14.726562 42.15625 16.40625 43.085938 18.109375 C 43.9375 19.679688 44.640625 21.3125 45.199219 23.007812 C 45.75 24.875 45.941406 26.777344 45.773438 28.71875 C 45.515625 31.824219 44.574219 34.695312 42.941406 37.339844 C 41.859375 39.054688 40.464844 40.457031 38.753906 41.550781 C 36.988281 42.617188 35.109375 43.417969 33.113281 43.949219 C 29.949219 44.8125 26.734375 45.109375 23.464844 44.839844 C 19.042969 44.371094 15.128906 42.734375 11.714844 39.929688 C 11.714844 39.886719 11.730469 39.847656 11.761719 39.808594 C 13.265625 38.1875 14.773438 36.574219 16.285156 34.960938 Z M 16.285156 34.960938 "/>
<path style=" stroke:none;fill-rule:evenodd;fill:rgb(99.607843%,99.607843%,99.607843%);fill-opacity:1;" d="M 29.082031 13.621094 C 26.039062 16.949219 22.992188 20.269531 19.933594 23.582031 C 19.910156 20.53125 19.902344 17.476562 19.910156 14.414062 C 20.1875 14.253906 20.476562 14.117188 20.773438 13.996094 C 21.953125 13.554688 23.167969 13.292969 24.425781 13.203125 C 26.003906 13.074219 27.554688 13.210938 29.082031 13.621094 Z M 29.082031 13.621094 "/>
<path style=" stroke:none;fill-rule:evenodd;fill:rgb(0%,0%,0%);fill-opacity:1;" d="M 35.441406 14.125 C 35.839844 14.726562 36.140625 15.371094 36.34375 16.070312 C 36.648438 17.246094 36.730469 18.4375 36.582031 19.648438 C 36.320312 21.1875 35.734375 22.585938 34.828125 23.847656 C 33.449219 25.757812 31.722656 27.273438 29.65625 28.398438 C 28.089844 29.246094 26.417969 29.726562 24.640625 29.835938 C 23.546875 29.863281 22.472656 29.722656 21.421875 29.417969 C 22.328125 28.410156 23.246094 27.417969 24.183594 26.441406 C 25.316406 26.445312 26.398438 26.210938 27.425781 25.730469 C 29.4375 24.78125 31.058594 23.378906 32.285156 21.519531 C 33.058594 20.285156 33.371094 18.9375 33.222656 17.488281 C 33.1875 17.246094 33.128906 17.015625 33.042969 16.789062 C 33.835938 15.898438 34.636719 15.007812 35.441406 14.125 Z M 35.441406 14.125 "/>
<path style=" stroke:none;fill-rule:evenodd;fill:rgb(79.215686%,78.823529%,78.823529%);fill-opacity:1;" d="M 19.910156 14.414062 C 19.902344 17.476562 19.910156 20.53125 19.933594 23.582031 C 19.925781 23.609375 19.910156 23.625 19.886719 23.632812 C 19.878906 20.554688 19.886719 17.484375 19.910156 14.414062 Z M 19.910156 14.414062 "/>
<path style=" stroke:none;fill-rule:evenodd;fill:rgb(99.607843%,99.607843%,99.607843%);fill-opacity:1;" d="M 33.042969 16.789062 C 33.128906 17.015625 33.1875 17.246094 33.222656 17.488281 C 33.371094 18.9375 33.058594 20.285156 32.285156 21.519531 C 31.058594 23.378906 29.4375 24.78125 27.425781 25.730469 C 26.398438 26.210938 25.316406 26.445312 24.183594 26.441406 C 27.136719 23.222656 30.089844 20.007812 33.042969 16.789062 Z M 33.042969 16.789062 "/>
<path style=" stroke:none;fill-rule:evenodd;fill:rgb(0%,0%,0%);fill-opacity:1;" d="M 19.71875 31.265625 C 19.652344 32.359375 19.601562 33.457031 19.5625 34.554688 C 19.507812 35.847656 19.566406 37.136719 19.730469 38.417969 C 20.058594 38.816406 20.1875 39.269531 20.113281 39.785156 C 20.027344 40.136719 19.898438 40.472656 19.730469 40.792969 C 19.636719 41.015625 19.488281 41.199219 19.285156 41.335938 C 18.808594 41.605469 18.304688 41.671875 17.773438 41.527344 C 17.265625 41.371094 16.910156 41.046875 16.707031 40.554688 C 16.609375 40.132812 16.53125 39.710938 16.464844 39.28125 C 16.320312 37.847656 16.261719 36.40625 16.285156 34.960938 C 17.414062 33.714844 18.558594 32.480469 19.71875 31.265625 Z M 19.71875 31.265625 "/>
</g>
</svg>
