<?xml version="1.0" encoding="UTF-8"?>
<svg xmlns="http://www.w3.org/2000/svg" xmlns:xlink="http://www.w3.org/1999/xlink" width="50pt" height="50pt" viewBox="0 0 50 50" version="1.1">
<defs>
<filter id="alpha" filterUnits="objectBoundingBox" x="0%" y="0%" width="100%" height="100%">
  <feColorMatrix type="matrix" in="SourceGraphic" values="0 0 0 0 1 0 0 0 0 1 0 0 0 0 1 0 0 0 1 0"/>
</filter>
<mask id="mask0">
  <g filter="url(#alpha)">
<rect x="0" y="0" width="50" height="50" style="fill:rgb(0%,0%,0%);fill-opacity:0.972549;stroke:none;"/>
  </g>
</mask>
<clipPath id="clip1">
  <rect width="50" height="50"/>
</clipPath>
<g id="surface6" clip-path="url(#clip1)">
<path style=" stroke:none;fill-rule:evenodd;fill:rgb(1.960784%,1.960784%,2.352941%);fill-opacity:1;" d="M 31.769531 38.945312 C 31.296875 39.074219 30.816406 39.148438 30.328125 39.175781 C 28.367188 39.253906 26.40625 39.359375 24.449219 39.484375 C 23.675781 39.492188 22.90625 39.503906 22.144531 39.523438 C 21.277344 39.527344 20.414062 39.527344 19.550781 39.535156 C 19.261719 39.523438 18.980469 39.472656 18.710938 39.378906 C 18.597656 39.300781 18.46875 39.257812 18.328125 39.246094 C 18.265625 39.21875 18.210938 39.1875 18.160156 39.148438 C 18.0625 39.050781 17.984375 38.941406 17.917969 38.828125 C 17.6875 38.105469 17.871094 37.519531 18.472656 37.0625 C 18.78125 36.867188 19.101562 36.683594 19.429688 36.511719 C 19.671875 36.34375 19.902344 36.167969 20.128906 35.980469 C 20.085938 35.945312 20.058594 35.894531 20.054688 35.835938 C 20.175781 35.449219 20.289062 35.0625 20.402344 34.671875 C 20.476562 34.371094 20.53125 34.066406 20.570312 33.761719 C 20.585938 33.273438 20.585938 32.785156 20.570312 32.296875 C 20.554688 31.835938 20.375 31.457031 20.03125 31.15625 C 17.566406 31.160156 15.101562 31.160156 12.636719 31.15625 C 10.886719 31.214844 9.132812 31.246094 7.382812 31.253906 C 7.152344 31.246094 6.929688 31.214844 6.710938 31.15625 C 6.46875 31.066406 6.226562 30.972656 5.988281 30.867188 C 5.796875 30.722656 5.65625 30.535156 5.570312 30.304688 C 5.503906 30.125 5.453125 29.941406 5.425781 29.753906 C 5.316406 29.148438 5.230469 28.539062 5.160156 27.929688 C 4.949219 26.230469 4.804688 24.527344 4.730469 22.816406 C 4.683594 20.679688 4.640625 18.542969 4.609375 16.40625 C 4.574219 15.316406 4.507812 14.230469 4.417969 13.140625 C 4.394531 12.652344 4.382812 12.167969 4.378906 11.679688 C 4.402344 10.488281 4.425781 9.300781 4.453125 8.113281 C 4.421875 7.324219 4.410156 6.539062 4.417969 5.75 C 4.4375 5.261719 4.566406 4.804688 4.800781 4.378906 C 4.910156 4.261719 5.011719 4.140625 5.101562 4.007812 C 5.847656 3.894531 6.589844 3.773438 7.332031 3.648438 C 8.300781 3.550781 9.265625 3.476562 10.238281 3.433594 C 11.109375 3.328125 11.980469 3.222656 12.855469 3.121094 C 14.957031 2.921875 17.0625 2.730469 19.167969 2.542969 C 21.824219 2.410156 24.480469 2.257812 27.136719 2.089844 C 27.992188 2.0625 28.847656 2.042969 29.703125 2.027344 C 31.46875 1.984375 33.230469 1.921875 34.984375 1.835938 C 37.546875 1.710938 40.105469 1.578125 42.667969 1.441406 C 42.699219 1.453125 42.730469 1.472656 42.75 1.5 C 42.761719 1.546875 42.78125 1.59375 42.8125 1.632812 C 43.175781 1.625 43.476562 1.757812 43.710938 2.027344 C 43.90625 2.335938 44.03125 2.671875 44.09375 3.035156 C 44.15625 3.3125 44.203125 3.59375 44.238281 3.875 C 44.34375 5.085938 44.449219 6.292969 44.550781 7.5 C 44.652344 9.347656 44.730469 11.195312 44.792969 13.046875 C 44.921875 14.949219 45.039062 16.855469 45.152344 18.757812 C 45.179688 19.640625 45.199219 20.519531 45.210938 21.398438 C 45.183594 23.457031 45.128906 25.511719 45.054688 27.570312 C 45.015625 28.136719 44.839844 28.65625 44.527344 29.128906 C 44.367188 29.289062 44.210938 29.453125 44.058594 29.621094 C 43.640625 29.769531 43.207031 29.859375 42.761719 29.886719 C 40.800781 29.957031 38.84375 30.035156 36.882812 30.125 C 34.746094 30.320312 32.609375 30.503906 30.472656 30.664062 C 30.4375 30.710938 30.390625 30.738281 30.328125 30.75 C 30.234375 30.933594 30.171875 31.128906 30.148438 31.335938 C 30.042969 32.015625 30.042969 32.695312 30.148438 33.378906 C 30.226562 33.90625 30.339844 34.425781 30.484375 34.9375 C 30.59375 35.15625 30.722656 35.367188 30.867188 35.5625 C 30.894531 35.632812 30.910156 35.703125 30.917969 35.777344 C 31.011719 35.886719 31.117188 35.980469 31.242188 36.054688 C 31.496094 36.1875 31.742188 36.332031 31.984375 36.484375 C 32.308594 36.761719 32.535156 37.101562 32.667969 37.507812 C 32.753906 38.226562 32.453125 38.707031 31.769531 38.945312 Z M 43.746094 3.398438 C 43.625 3.199219 43.464844 3.035156 43.265625 2.90625 C 42.746094 2.617188 42.195312 2.417969 41.609375 2.304688 C 41.113281 2.207031 40.617188 2.121094 40.121094 2.050781 C 40.972656 2.003906 41.820312 1.9375 42.667969 1.859375 C 43.21875 1.949219 43.542969 2.269531 43.640625 2.820312 C 43.679688 3.011719 43.714844 3.203125 43.746094 3.398438 Z M 15.902344 3.253906 C 14.652344 3.398438 13.394531 3.527344 12.132812 3.636719 C 13.382812 3.476562 14.640625 3.347656 15.902344 3.253906 Z M 9.542969 3.902344 C 8.105469 4.054688 6.664062 4.207031 5.222656 4.355469 C 5.257812 4.296875 5.316406 4.261719 5.390625 4.25 C 5.710938 4.234375 6.03125 4.210938 6.347656 4.175781 C 6.925781 4.085938 7.5 4.007812 8.078125 3.9375 C 8.566406 3.90625 9.054688 3.894531 9.542969 3.902344 Z M 4.957031 4.8125 C 4.917969 6.746094 4.871094 8.671875 4.8125 10.597656 C 4.8125 9.976562 4.820312 9.355469 4.835938 8.738281 C 4.808594 7.683594 4.796875 6.632812 4.800781 5.582031 C 4.816406 5.3125 4.867188 5.058594 4.957031 4.8125 Z M 44.394531 14.292969 C 44.496094 16.175781 44.597656 18.054688 44.695312 19.933594 C 44.730469 22.425781 44.699219 24.914062 44.597656 27.398438 C 44.589844 28.015625 44.382812 28.558594 43.988281 29.019531 C 43.929688 29.0625 43.875 29.101562 43.820312 29.140625 C 43.59375 29.21875 43.359375 29.269531 43.121094 29.296875 C 43.546875 24.292969 43.96875 19.292969 44.394531 14.292969 Z M 33.160156 29.898438 C 31.894531 30.015625 30.621094 30.113281 29.34375 30.183594 C 29.34375 30.128906 29.34375 30.074219 29.34375 30.015625 C 30.617188 29.972656 31.890625 29.933594 33.160156 29.898438 Z M 25.886719 30.113281 C 24.085938 30.253906 22.277344 30.382812 20.464844 30.507812 C 20.40625 30.511719 20.351562 30.527344 20.296875 30.542969 C 20.304688 30.5625 20.3125 30.578125 20.320312 30.59375 C 17.800781 30.625 15.277344 30.644531 12.757812 30.652344 C 11.308594 30.703125 9.863281 30.742188 8.414062 30.773438 C 8.042969 30.804688 7.667969 30.832031 7.296875 30.855469 C 7.070312 30.851562 6.851562 30.8125 6.636719 30.75 C 6.601562 30.738281 6.578125 30.71875 6.566406 30.6875 C 13.007812 30.496094 19.445312 30.304688 25.886719 30.113281 Z M 30.6875 37.914062 C 30.273438 37.542969 29.863281 37.167969 29.453125 36.785156 C 29.40625 34.761719 29.371094 32.738281 29.34375 30.714844 C 29.53125 30.699219 29.714844 30.699219 29.898438 30.714844 C 29.738281 31.148438 29.648438 31.59375 29.621094 32.058594 C 29.546875 33.078125 29.625 34.085938 29.859375 35.082031 C 29.917969 35.359375 30.042969 35.605469 30.234375 35.8125 C 30.332031 35.886719 30.445312 35.9375 30.570312 35.957031 C 30.65625 36.09375 30.757812 36.210938 30.882812 36.316406 C 31.148438 36.480469 31.414062 36.648438 31.671875 36.820312 C 31.832031 36.96875 31.960938 37.140625 32.058594 37.339844 C 32.007812 37.492188 31.902344 37.589844 31.746094 37.636719 C 31.398438 37.746094 31.042969 37.835938 30.6875 37.914062 Z M 20.992188 32.992188 C 21.183594 33.496094 21.394531 33.992188 21.628906 34.480469 C 21.683594 34.746094 21.660156 35 21.554688 35.25 C 21.316406 35.746094 21.003906 36.195312 20.621094 36.59375 C 20.054688 37.164062 19.457031 37.691406 18.832031 38.179688 C 18.578125 38.207031 18.421875 38.101562 18.351562 37.867188 C 18.4375 37.664062 18.574219 37.5 18.757812 37.375 C 19.035156 37.199219 19.316406 37.03125 19.597656 36.871094 C 19.75 36.757812 19.894531 36.640625 20.03125 36.511719 C 20.132812 36.417969 20.222656 36.316406 20.308594 36.210938 C 20.464844 35.886719 20.601562 35.546875 20.714844 35.203125 C 20.796875 34.84375 20.878906 34.480469 20.957031 34.121094 C 20.988281 33.746094 21 33.371094 20.992188 32.992188 Z M 31.386719 38.585938 C 31.25 38.46875 31.121094 38.339844 31 38.203125 C 31.296875 38.148438 31.589844 38.074219 31.878906 37.984375 C 32.003906 37.9375 32.117188 37.875 32.226562 37.792969 C 32.195312 38.140625 32.011719 38.378906 31.671875 38.503906 C 31.578125 38.539062 31.484375 38.566406 31.386719 38.585938 Z M 18.542969 38.394531 C 18.464844 38.449219 18.382812 38.507812 18.304688 38.5625 C 18.265625 38.445312 18.253906 38.324219 18.265625 38.203125 C 18.277344 38.238281 18.296875 38.265625 18.328125 38.285156 C 18.402344 38.324219 18.472656 38.359375 18.542969 38.394531 Z M 18.542969 38.394531 "/>
</g>
<mask id="mask1">
  <g filter="url(#alpha)">
<rect x="0" y="0" width="50" height="50" style="fill:rgb(0%,0%,0%);fill-opacity:0.760784;stroke:none;"/>
  </g>
</mask>
<clipPath id="clip2">
  <rect width="50" height="50"/>
</clipPath>
<g id="surface9" clip-path="url(#clip2)">
<path style=" stroke:none;fill-rule:evenodd;fill:rgb(69.019608%,67.45098%,65.882353%);fill-opacity:1;" d="M 34.984375 1.835938 C 33.230469 1.921875 31.46875 1.984375 29.703125 2.027344 C 31.460938 1.914062 33.21875 1.851562 34.984375 1.835938 Z M 34.984375 1.835938 "/>
</g>
<mask id="mask2">
  <g filter="url(#alpha)">
<rect x="0" y="0" width="50" height="50" style="fill:rgb(0%,0%,0%);fill-opacity:0.996078;stroke:none;"/>
  </g>
</mask>
<clipPath id="clip3">
  <rect width="50" height="50"/>
</clipPath>
<g id="surface12" clip-path="url(#clip3)">
<path style=" stroke:none;fill-rule:evenodd;fill:rgb(72.941176%,71.372549%,69.411765%);fill-opacity:1;" d="M 40.121094 2.050781 C 40.617188 2.121094 41.113281 2.207031 41.609375 2.304688 C 42.195312 2.417969 42.746094 2.617188 43.265625 2.90625 C 43.464844 3.035156 43.625 3.199219 43.746094 3.398438 C 43.742188 3.421875 43.75 3.4375 43.769531 3.445312 C 43.839844 3.800781 43.882812 4.160156 43.902344 4.523438 C 43.9375 5.375 43.984375 6.222656 44.046875 7.070312 C 44.0625 8.464844 44.132812 9.855469 44.261719 11.246094 C 44.285156 12.261719 44.328125 13.28125 44.394531 14.292969 C 43.96875 19.292969 43.546875 24.292969 43.121094 29.296875 C 42.914062 29.339844 42.695312 29.367188 42.476562 29.378906 C 40.808594 29.441406 39.144531 29.503906 37.480469 29.574219 C 36.042969 29.683594 34.601562 29.792969 33.160156 29.898438 C 31.890625 29.933594 30.617188 29.972656 29.34375 30.015625 C 29.320312 29.984375 29.3125 29.941406 29.320312 29.898438 C 28.175781 29.976562 27.03125 30.046875 25.886719 30.113281 C 19.445312 30.304688 13.007812 30.496094 6.566406 30.6875 C 6.269531 30.605469 6.054688 30.421875 5.929688 30.136719 C 5.875 30.003906 5.828125 29.867188 5.785156 29.730469 C 5.597656 28.527344 5.460938 27.316406 5.375 26.105469 C 5.347656 25.796875 5.308594 25.496094 5.257812 25.191406 C 5.203125 23.800781 5.148438 22.40625 5.089844 21.015625 C 5.070312 19.308594 5.015625 17.605469 4.921875 15.902344 C 4.925781 14.890625 4.886719 13.882812 4.800781 12.878906 C 4.792969 12.117188 4.796875 11.359375 4.8125 10.597656 C 4.871094 8.671875 4.917969 6.746094 4.957031 4.8125 C 4.976562 4.671875 5.027344 4.542969 5.113281 4.429688 C 5.140625 4.390625 5.175781 4.367188 5.222656 4.355469 C 6.664062 4.207031 8.105469 4.054688 9.542969 3.902344 C 10.179688 3.867188 10.8125 3.804688 11.4375 3.707031 C 11.515625 3.714844 11.585938 3.707031 11.652344 3.683594 C 11.738281 3.691406 11.820312 3.683594 11.894531 3.660156 C 11.980469 3.667969 12.058594 3.660156 12.132812 3.636719 C 13.394531 3.527344 14.652344 3.398438 15.902344 3.253906 C 15.988281 3.261719 16.066406 3.253906 16.144531 3.230469 C 16.226562 3.234375 16.308594 3.226562 16.382812 3.203125 C 16.46875 3.210938 16.546875 3.203125 16.621094 3.179688 C 16.707031 3.1875 16.789062 3.179688 16.863281 3.15625 C 22 2.78125 27.148438 2.503906 32.296875 2.328125 C 34.910156 2.3125 37.515625 2.21875 40.121094 2.050781 Z M 40.121094 2.050781 "/>
</g>
<mask id="mask3">
  <g filter="url(#alpha)">
<rect x="0" y="0" width="50" height="50" style="fill:rgb(0%,0%,0%);fill-opacity:0.972549;stroke:none;"/>
  </g>
</mask>
<clipPath id="clip4">
  <rect width="50" height="50"/>
</clipPath>
<g id="surface15" clip-path="url(#clip4)">
<path style=" stroke:none;fill-rule:evenodd;fill:rgb(92.941176%,91.372549%,88.627451%);fill-opacity:1;" d="M 29.34375 30.015625 C 29.34375 30.074219 29.34375 30.128906 29.34375 30.183594 C 27.46875 30.332031 25.589844 30.457031 23.703125 30.558594 C 22.574219 30.589844 21.449219 30.601562 20.320312 30.59375 C 20.3125 30.578125 20.304688 30.5625 20.296875 30.542969 C 20.351562 30.527344 20.40625 30.511719 20.464844 30.507812 C 22.277344 30.382812 24.085938 30.253906 25.886719 30.113281 C 27.03125 30.046875 28.175781 29.976562 29.320312 29.898438 C 29.3125 29.941406 29.320312 29.984375 29.34375 30.015625 Z M 29.34375 30.015625 "/>
</g>
<mask id="mask4">
  <g filter="url(#alpha)">
<rect x="0" y="0" width="50" height="50" style="fill:rgb(0%,0%,0%);fill-opacity:0.996078;stroke:none;"/>
  </g>
</mask>
<clipPath id="clip5">
  <rect width="50" height="50"/>
</clipPath>
<g id="surface18" clip-path="url(#clip5)">
<path style=" stroke:none;fill-rule:evenodd;fill:rgb(94.509804%,92.941176%,90.196078%);fill-opacity:1;" d="M 29.34375 30.714844 C 29.371094 32.738281 29.40625 34.761719 29.453125 36.785156 C 29.863281 37.167969 30.273438 37.542969 30.6875 37.914062 C 30.589844 37.949219 30.488281 37.96875 30.375 37.972656 C 30.175781 37.980469 29.976562 37.988281 29.777344 38 C 29.203125 38.066406 28.625 38.121094 28.046875 38.167969 C 27.046875 38.175781 26.046875 38.183594 25.046875 38.191406 C 24.679688 38.242188 24.3125 38.238281 23.945312 38.179688 C 23.941406 38.210938 23.949219 38.238281 23.96875 38.261719 C 24.105469 38.328125 24.25 38.378906 24.398438 38.40625 C 24.660156 38.429688 24.917969 38.441406 25.179688 38.441406 C 26.320312 38.425781 27.460938 38.414062 28.601562 38.40625 C 29.402344 38.359375 30.203125 38.289062 31 38.203125 C 31.121094 38.339844 31.25 38.46875 31.386719 38.585938 C 31.160156 38.648438 30.929688 38.695312 30.6875 38.71875 C 30.417969 38.746094 30.144531 38.769531 29.871094 38.789062 C 28.03125 38.886719 26.191406 38.992188 24.351562 39.101562 C 22.882812 39.105469 21.414062 39.125 19.945312 39.164062 C 19.484375 39.195312 19.03125 39.140625 18.589844 39.007812 C 18.46875 38.875 18.375 38.726562 18.304688 38.5625 C 18.382812 38.507812 18.464844 38.449219 18.542969 38.394531 C 19.070312 38.414062 19.601562 38.394531 20.128906 38.335938 C 20.550781 38.328125 20.976562 38.316406 21.398438 38.308594 C 21.609375 38.261719 21.617188 38.199219 21.421875 38.117188 C 20.621094 38.085938 19.820312 38.113281 19.023438 38.203125 C 18.953125 38.203125 18.890625 38.195312 18.832031 38.179688 C 19.457031 37.691406 20.054688 37.164062 20.621094 36.59375 C 21.003906 36.195312 21.316406 35.746094 21.554688 35.25 C 21.660156 35 21.683594 34.746094 21.628906 34.480469 C 21.394531 33.992188 21.183594 33.496094 20.992188 32.992188 C 20.992188 32.597656 20.949219 32.203125 20.859375 31.816406 C 20.773438 31.558594 20.632812 31.335938 20.4375 31.144531 C 21.71875 31.109375 23 31.070312 24.28125 31.035156 C 25.96875 30.921875 27.65625 30.8125 29.34375 30.714844 Z M 29.34375 30.714844 "/>
</g>
<mask id="mask5">
  <g filter="url(#alpha)">
<rect x="0" y="0" width="50" height="50" style="fill:rgb(0%,0%,0%);fill-opacity:0.929412;stroke:none;"/>
  </g>
</mask>
<clipPath id="clip6">
  <rect width="50" height="50"/>
</clipPath>
<g id="surface21" clip-path="url(#clip6)">
<path style=" stroke:none;fill-rule:evenodd;fill:rgb(93.72549%,92.156863%,89.411765%);fill-opacity:1;" d="M 17.917969 38.828125 C 17.984375 38.941406 18.0625 39.050781 18.160156 39.148438 C 18.210938 39.1875 18.265625 39.21875 18.328125 39.246094 C 18.46875 39.257812 18.597656 39.300781 18.710938 39.378906 C 18.214844 39.378906 17.71875 39.359375 17.222656 39.316406 C 17.464844 39.167969 17.699219 39.003906 17.917969 38.828125 Z M 17.917969 38.828125 "/>
</g>
<mask id="mask6">
  <g filter="url(#alpha)">
<rect x="0" y="0" width="50" height="50" style="fill:rgb(0%,0%,0%);fill-opacity:0.968627;stroke:none;"/>
  </g>
</mask>
<clipPath id="clip7">
  <rect width="50" height="50"/>
</clipPath>
<g id="surface24" clip-path="url(#clip7)">
<path style=" stroke:none;fill-rule:evenodd;fill:rgb(92.941176%,91.372549%,88.627451%);fill-opacity:1;" d="M 31.769531 38.945312 C 31.984375 39.167969 32.195312 39.390625 32.40625 39.617188 C 32.460938 39.683594 32.503906 39.753906 32.539062 39.835938 C 32.417969 39.84375 32.296875 39.851562 32.175781 39.859375 C 28.832031 39.742188 25.488281 39.628906 22.144531 39.523438 C 22.90625 39.503906 23.675781 39.492188 24.449219 39.484375 C 26.40625 39.359375 28.367188 39.253906 30.328125 39.175781 C 30.816406 39.148438 31.296875 39.074219 31.769531 38.945312 Z M 31.769531 38.945312 "/>
</g>
<mask id="mask7">
  <g filter="url(#alpha)">
<rect x="0" y="0" width="50" height="50" style="fill:rgb(0%,0%,0%);fill-opacity:0.956863;stroke:none;"/>
  </g>
</mask>
<clipPath id="clip8">
  <rect width="50" height="50"/>
</clipPath>
<g id="surface27" clip-path="url(#clip8)">
<path style=" stroke:none;fill-rule:evenodd;fill:rgb(2.745098%,2.745098%,3.137255%);fill-opacity:1;" d="M 44.828125 46.292969 C 44.566406 46.527344 44.265625 46.683594 43.914062 46.757812 C 43.410156 46.851562 42.902344 46.902344 42.390625 46.914062 C 42.195312 46.914062 41.996094 46.898438 41.800781 46.867188 C 41.460938 46.917969 41.132812 46.875 40.820312 46.734375 C 40.238281 46.472656 39.738281 46.101562 39.316406 45.621094 C 38.761719 44.960938 38.207031 44.296875 37.660156 43.628906 C 37.492188 43.324219 37.328125 43.019531 37.171875 42.714844 C 37.085938 42.523438 37.050781 42.324219 37.0625 42.113281 C 37.085938 42.082031 37.109375 42.082031 37.132812 42.113281 C 37.164062 42.277344 37.21875 42.429688 37.289062 42.570312 C 37.40625 42.859375 37.554688 43.132812 37.734375 43.386719 C 38.289062 43.988281 38.824219 44.605469 39.34375 45.234375 C 39.75 45.695312 40.226562 46.070312 40.769531 46.351562 C 40.894531 46.402344 41.023438 46.445312 41.15625 46.484375 C 41.199219 46.449219 41.253906 46.433594 41.3125 46.433594 C 42.15625 46.667969 43.007812 46.6875 43.867188 46.496094 C 44.292969 46.390625 44.621094 46.15625 44.851562 45.789062 C 45.003906 45.460938 45 45.132812 44.839844 44.804688 C 44.601562 44.316406 44.296875 43.875 43.925781 43.484375 C 43.53125 43.0625 43.128906 42.652344 42.714844 42.246094 C 42.136719 41.75 41.480469 41.40625 40.746094 41.214844 C 40.792969 41.261719 40.839844 41.308594 40.890625 41.347656 C 41.011719 41.519531 41.117188 41.707031 41.214844 41.898438 C 41.238281 42.042969 41.179688 42.09375 41.035156 42.054688 C 40.890625 41.757812 40.699219 41.492188 40.457031 41.261719 C 40.398438 41.199219 40.328125 41.164062 40.242188 41.15625 C 40.242188 41.136719 40.234375 41.128906 40.21875 41.128906 C 40.164062 41.09375 40.097656 41.074219 40.027344 41.070312 C 39.371094 41.011719 38.753906 41.140625 38.179688 41.453125 C 38.292969 41.464844 38.40625 41.484375 38.515625 41.515625 C 39.070312 41.707031 39.445312 42.078125 39.640625 42.628906 C 39.601562 42.777344 39.523438 42.796875 39.414062 42.691406 C 39.203125 42.15625 38.824219 41.8125 38.273438 41.660156 C 38.140625 41.632812 38.003906 41.621094 37.867188 41.621094 C 37.628906 41.769531 37.453125 41.972656 37.339844 42.222656 C 37.304688 42.238281 37.273438 42.238281 37.242188 42.222656 C 37.175781 41.953125 37.257812 41.726562 37.480469 41.550781 C 38.632812 40.71875 39.882812 40.542969 41.226562 41.023438 C 41.917969 41.28125 42.535156 41.65625 43.074219 42.152344 C 43.667969 42.695312 44.207031 43.285156 44.695312 43.914062 C 44.933594 44.25 45.109375 44.621094 45.222656 45.019531 C 45.339844 45.523438 45.207031 45.949219 44.828125 46.292969 Z M 40.21875 41.128906 C 39.605469 41.058594 39.035156 41.1875 38.515625 41.515625 C 38.40625 41.484375 38.292969 41.464844 38.179688 41.453125 C 38.753906 41.140625 39.371094 41.011719 40.027344 41.070312 C 40.097656 41.074219 40.164062 41.09375 40.21875 41.128906 Z M 44.851562 45.789062 C 44.78125 45.175781 44.570312 44.613281 44.214844 44.105469 C 43.328125 42.917969 42.21875 41.996094 40.890625 41.347656 C 40.839844 41.308594 40.792969 41.261719 40.746094 41.214844 C 41.480469 41.40625 42.136719 41.75 42.714844 42.246094 C 43.128906 42.652344 43.53125 43.0625 43.925781 43.484375 C 44.296875 43.875 44.601562 44.316406 44.839844 44.804688 C 45 45.132812 45.003906 45.460938 44.851562 45.789062 Z M 44.851562 45.789062 "/>
</g>
<mask id="mask8">
  <g filter="url(#alpha)">
<rect x="0" y="0" width="50" height="50" style="fill:rgb(0%,0%,0%);fill-opacity:0.996078;stroke:none;"/>
  </g>
</mask>
<clipPath id="clip9">
  <rect width="50" height="50"/>
</clipPath>
<g id="surface30" clip-path="url(#clip9)">
<path style=" stroke:none;fill-rule:evenodd;fill:rgb(94.509804%,92.941176%,90.196078%);fill-opacity:1;" d="M 40.21875 41.128906 C 40.234375 41.128906 40.242188 41.136719 40.242188 41.15625 C 40.328125 41.164062 40.398438 41.199219 40.457031 41.261719 C 40.699219 41.492188 40.890625 41.757812 41.035156 42.054688 C 41.179688 42.09375 41.238281 42.042969 41.214844 41.898438 C 41.117188 41.707031 41.011719 41.519531 40.890625 41.347656 C 42.21875 41.996094 43.328125 42.917969 44.214844 44.105469 C 44.570312 44.613281 44.78125 45.175781 44.851562 45.789062 C 44.621094 46.15625 44.292969 46.390625 43.867188 46.496094 C 43.007812 46.6875 42.15625 46.667969 41.3125 46.433594 C 41.253906 46.433594 41.199219 46.449219 41.15625 46.484375 C 41.023438 46.445312 40.894531 46.402344 40.769531 46.351562 C 40.226562 46.070312 39.75 45.695312 39.34375 45.234375 C 38.824219 44.605469 38.289062 43.988281 37.734375 43.386719 C 37.554688 43.132812 37.40625 42.859375 37.289062 42.570312 C 37.445312 42.402344 37.605469 42.242188 37.769531 42.078125 C 37.941406 41.941406 38.109375 41.800781 38.273438 41.660156 C 38.824219 41.8125 39.203125 42.15625 39.414062 42.691406 C 39.523438 42.796875 39.601562 42.777344 39.640625 42.628906 C 39.445312 42.078125 39.070312 41.707031 38.515625 41.515625 C 39.035156 41.1875 39.605469 41.058594 40.21875 41.128906 Z M 40.21875 41.128906 "/>
</g>
<mask id="mask9">
  <g filter="url(#alpha)">
<rect x="0" y="0" width="50" height="50" style="fill:rgb(0%,0%,0%);fill-opacity:0.976471;stroke:none;"/>
  </g>
</mask>
<clipPath id="clip10">
  <rect width="50" height="50"/>
</clipPath>
<g id="surface33" clip-path="url(#clip10)">
<path style=" stroke:none;fill-rule:evenodd;fill:rgb(3.137255%,2.745098%,3.137255%);fill-opacity:1;" d="M 36.160156 48.859375 C 36.082031 48.84375 36 48.835938 35.910156 48.835938 C 34.089844 48.917969 32.269531 48.953125 30.449219 48.945312 C 29.984375 48.960938 29.519531 48.980469 29.058594 49.003906 C 28.3125 48.972656 27.566406 48.917969 26.824219 48.847656 C 26.582031 48.84375 26.335938 48.839844 26.09375 48.835938 C 24.390625 48.878906 22.691406 48.921875 20.992188 48.96875 C 18 48.964844 15.007812 48.996094 12.015625 49.0625 C 10.179688 49.078125 8.347656 49.078125 6.515625 49.0625 C 5.996094 49.046875 5.476562 49.019531 4.957031 48.980469 C 4.792969 48.972656 4.632812 48.953125 4.476562 48.917969 C 4.441406 48.851562 4.390625 48.800781 4.320312 48.765625 C 4.277344 48.644531 4.242188 48.527344 4.210938 48.402344 C 4.257812 48.203125 4.257812 48.003906 4.210938 47.804688 C 4.207031 47.746094 4.230469 47.707031 4.285156 47.683594 C 4.253906 47.609375 4.238281 47.535156 4.238281 47.457031 C 4.339844 46.859375 4.519531 46.285156 4.777344 45.738281 C 5.210938 44.875 5.683594 44.035156 6.191406 43.21875 C 6.394531 42.769531 6.59375 42.324219 6.792969 41.875 C 6.820312 41.835938 6.859375 41.808594 6.902344 41.789062 C 7.027344 41.792969 7.144531 41.820312 7.261719 41.875 C 8.265625 41.71875 9.277344 41.582031 10.285156 41.453125 C 11.46875 41.390625 12.65625 41.320312 13.839844 41.238281 C 14.296875 41.214844 14.757812 41.203125 15.21875 41.203125 C 16.617188 41.230469 18.011719 41.285156 19.40625 41.359375 C 24.007812 41.367188 28.609375 41.375 33.210938 41.382812 C 33.335938 41.511719 33.335938 41.640625 33.210938 41.765625 C 33.171875 41.789062 33.132812 41.804688 33.089844 41.800781 C 33.199219 42.191406 33.378906 42.542969 33.628906 42.859375 C 34.078125 43.429688 34.535156 44 34.996094 44.5625 C 35.660156 45.28125 36.273438 46.03125 36.847656 46.820312 C 36.980469 47.035156 37.082031 47.269531 37.144531 47.515625 C 37.132812 47.644531 37.058594 47.714844 36.929688 47.730469 C 36.957031 48.003906 36.933594 48.269531 36.859375 48.535156 C 36.933594 48.667969 36.917969 48.789062 36.808594 48.894531 C 36.707031 48.949219 36.613281 48.941406 36.523438 48.871094 C 36.402344 48.859375 36.28125 48.855469 36.160156 48.859375 Z M 32.96875 42.617188 C 32.847656 42.460938 32.726562 42.296875 32.609375 42.125 C 24.230469 42.167969 15.855469 42.214844 7.476562 42.269531 C 7.433594 42.277344 7.394531 42.289062 7.355469 42.308594 C 6.542969 43.894531 5.722656 45.480469 4.898438 47.058594 C 4.894531 47.210938 4.898438 47.363281 4.910156 47.515625 C 4.789062 47.519531 4.667969 47.523438 4.546875 47.527344 C 4.5 47.386719 4.527344 47.261719 4.632812 47.15625 C 4.789062 46.597656 4.996094 46.0625 5.257812 45.546875 C 5.363281 45.429688 5.460938 45.300781 5.542969 45.164062 C 5.789062 44.707031 6.042969 44.257812 6.3125 43.820312 C 6.554688 43.253906 6.8125 42.691406 7.082031 42.140625 C 7.121094 42.105469 7.167969 42.078125 7.214844 42.054688 C 7.542969 42.046875 7.871094 42.03125 8.199219 42.007812 C 8.941406 41.921875 9.683594 41.847656 10.429688 41.789062 C 11.070312 41.78125 11.710938 41.773438 12.351562 41.765625 C 13.230469 41.65625 14.113281 41.597656 15.003906 41.585938 C 16.457031 41.628906 17.90625 41.6875 19.359375 41.765625 C 23.832031 41.789062 28.304688 41.800781 32.777344 41.800781 C 32.796875 42.085938 32.859375 42.359375 32.96875 42.617188 Z M 34.21875 44.417969 C 34.847656 45.191406 35.484375 45.957031 36.125 46.722656 C 36.269531 46.925781 36.410156 47.128906 36.546875 47.335938 C 36.414062 47.398438 36.28125 47.441406 36.136719 47.46875 C 36.140625 47.371094 36.136719 47.273438 36.125 47.179688 C 35.476562 46.265625 34.839844 45.347656 34.21875 44.417969 Z M 36.160156 48.453125 C 36.148438 48.277344 36.140625 48.101562 36.136719 47.921875 C 36.289062 47.90625 36.433594 47.867188 36.570312 47.804688 C 36.578125 47.820312 36.585938 47.835938 36.59375 47.851562 C 36.542969 48.050781 36.492188 48.25 36.449219 48.453125 C 36.355469 48.453125 36.257812 48.453125 36.160156 48.453125 Z M 4.453125 47.851562 C 4.609375 47.886719 4.769531 47.902344 4.933594 47.898438 C 4.929688 48.164062 4.9375 48.429688 4.957031 48.691406 C 4.851562 48.691406 4.75 48.691406 4.644531 48.691406 C 4.65625 48.578125 4.628906 48.472656 4.5625 48.378906 C 4.539062 48.199219 4.5 48.023438 4.453125 47.851562 Z M 4.453125 47.851562 "/>
</g>
<mask id="mask10">
  <g filter="url(#alpha)">
<rect x="0" y="0" width="50" height="50" style="fill:rgb(0%,0%,0%);fill-opacity:0.992157;stroke:none;"/>
  </g>
</mask>
<clipPath id="clip11">
  <rect width="50" height="50"/>
</clipPath>
<g id="surface36" clip-path="url(#clip11)">
<path style=" stroke:none;fill-rule:evenodd;fill:rgb(94.509804%,92.941176%,90.196078%);fill-opacity:1;" d="M 32.96875 42.617188 C 32.964844 42.644531 32.972656 42.660156 32.992188 42.667969 C 32.992188 42.683594 33 42.691406 33.015625 42.691406 C 33.011719 42.714844 33.019531 42.730469 33.042969 42.738281 C 33.347656 43.261719 33.691406 43.757812 34.074219 44.226562 C 34.074219 44.242188 34.082031 44.25 34.097656 44.25 C 34.09375 44.273438 34.101562 44.289062 34.121094 44.300781 C 34.121094 44.316406 34.128906 44.324219 34.144531 44.324219 C 34.144531 44.339844 34.152344 44.347656 34.167969 44.347656 C 34.164062 44.371094 34.171875 44.386719 34.195312 44.394531 C 34.195312 44.410156 34.203125 44.417969 34.21875 44.417969 C 34.839844 45.347656 35.476562 46.265625 36.125 47.179688 C 36.136719 47.273438 36.140625 47.371094 36.136719 47.46875 C 35.886719 47.515625 35.628906 47.527344 35.371094 47.503906 C 34.945312 47.453125 34.519531 47.386719 34.097656 47.3125 C 33.53125 47.265625 32.960938 47.246094 32.394531 47.25 C 29.152344 47.269531 25.914062 47.28125 22.671875 47.289062 C 21.128906 47.347656 19.582031 47.402344 18.039062 47.457031 C 13.660156 47.457031 9.285156 47.480469 4.910156 47.515625 C 4.898438 47.363281 4.894531 47.210938 4.898438 47.058594 C 5.722656 45.480469 6.542969 43.894531 7.355469 42.308594 C 7.394531 42.289062 7.433594 42.277344 7.476562 42.269531 C 15.855469 42.214844 24.230469 42.167969 32.609375 42.125 C 32.726562 42.296875 32.847656 42.460938 32.96875 42.617188 Z M 32.96875 42.617188 "/>
</g>
<mask id="mask11">
  <g filter="url(#alpha)">
<rect x="0" y="0" width="50" height="50" style="fill:rgb(0%,0%,0%);fill-opacity:0.976471;stroke:none;"/>
  </g>
</mask>
<clipPath id="clip12">
  <rect width="50" height="50"/>
</clipPath>
<g id="surface39" clip-path="url(#clip12)">
<path style=" stroke:none;fill-rule:evenodd;fill:rgb(94.117647%,92.54902%,89.803922%);fill-opacity:1;" d="M 37.171875 42.714844 C 37.328125 43.019531 37.492188 43.324219 37.660156 43.628906 C 38.207031 44.296875 38.761719 44.960938 39.316406 45.621094 C 39.738281 46.101562 40.238281 46.472656 40.820312 46.734375 C 41.132812 46.875 41.460938 46.917969 41.800781 46.867188 C 41.996094 46.898438 42.195312 46.914062 42.390625 46.914062 C 42.902344 46.902344 43.410156 46.851562 43.914062 46.757812 C 44.265625 46.683594 44.566406 46.527344 44.828125 46.292969 C 44.8125 46.632812 44.6875 46.925781 44.441406 47.167969 C 44.335938 47.234375 44.226562 47.292969 44.105469 47.335938 C 43.820312 47.363281 43.53125 47.382812 43.242188 47.382812 C 42.726562 47.457031 42.203125 47.507812 41.683594 47.539062 C 41.046875 47.550781 40.46875 47.371094 39.953125 47 C 39.75 46.835938 39.554688 46.664062 39.367188 46.484375 C 38.445312 45.4375 37.601562 44.332031 36.832031 43.171875 C 36.945312 43.019531 37.058594 42.867188 37.171875 42.714844 Z M 37.171875 42.714844 "/>
</g>
<mask id="mask12">
  <g filter="url(#alpha)">
<rect x="0" y="0" width="50" height="50" style="fill:rgb(0%,0%,0%);fill-opacity:0.952941;stroke:none;"/>
  </g>
</mask>
<clipPath id="clip13">
  <rect width="50" height="50"/>
</clipPath>
<g id="surface42" clip-path="url(#clip13)">
<path style=" stroke:none;fill-rule:evenodd;fill:rgb(92.54902%,90.980392%,88.235294%);fill-opacity:1;" d="M 36.160156 48.859375 C 36.160156 48.988281 36.160156 49.117188 36.160156 49.242188 C 25.761719 49.195312 15.359375 49.15625 4.957031 49.125 C 4.957031 49.074219 4.957031 49.027344 4.957031 48.980469 C 5.476562 49.019531 5.996094 49.046875 6.515625 49.0625 C 8.347656 49.078125 10.179688 49.078125 12.015625 49.0625 C 15.007812 48.996094 18 48.964844 20.992188 48.96875 C 22.691406 48.921875 24.390625 48.878906 26.09375 48.835938 C 26.335938 48.839844 26.582031 48.84375 26.824219 48.847656 C 27.566406 48.917969 28.3125 48.972656 29.058594 49.003906 C 29.519531 48.980469 29.984375 48.960938 30.449219 48.945312 C 32.269531 48.953125 34.089844 48.917969 35.910156 48.835938 C 36 48.835938 36.082031 48.84375 36.160156 48.859375 Z M 36.160156 48.859375 "/>
</g>
</defs>
<g id="surface1">
<use xlink:href="#surface6" mask="url(#mask0)"/>
<use xlink:href="#surface9" mask="url(#mask1)"/>
<use xlink:href="#surface12" mask="url(#mask2)"/>
<path style=" stroke:none;fill-rule:evenodd;fill:rgb(3.137255%,3.137255%,3.529412%);fill-opacity:1;" d="M 16.070312 27.0625 C 15.757812 27.066406 15.445312 27.09375 15.132812 27.148438 C 14.480469 27.289062 13.824219 27.417969 13.167969 27.53125 C 12.523438 27.554688 11.882812 27.601562 11.246094 27.675781 C 10.761719 27.792969 10.28125 27.921875 9.804688 28.058594 C 9.324219 28.195312 8.835938 28.226562 8.339844 28.15625 C 8.050781 28.085938 7.789062 27.960938 7.5625 27.785156 C 7.515625 25.285156 7.386719 22.789062 7.175781 20.296875 C 7.214844 18.28125 7.132812 16.273438 6.9375 14.269531 C 6.914062 13.300781 6.945312 12.332031 7.03125 11.367188 C 7.050781 11.023438 7.050781 10.675781 7.03125 10.332031 C 6.992188 9.910156 6.941406 9.484375 6.890625 9.0625 C 6.894531 8.382812 6.894531 7.703125 6.890625 7.019531 C 6.859375 6.839844 6.808594 6.660156 6.734375 6.492188 C 6.742188 6.476562 6.75 6.460938 6.757812 6.445312 C 6.804688 6.492188 6.839844 6.546875 6.863281 6.613281 C 6.925781 6.800781 6.972656 6.992188 7.007812 7.1875 C 7.03125 7.75 7.0625 8.308594 7.105469 8.871094 C 7.175781 9.375 7.246094 9.878906 7.320312 10.382812 C 7.28125 11.644531 7.261719 12.910156 7.273438 14.175781 C 7.460938 16.121094 7.539062 18.074219 7.511719 20.03125 C 7.667969 21.949219 7.785156 23.871094 7.875 25.792969 C 7.910156 26.425781 7.917969 27.054688 7.898438 27.6875 C 8.253906 27.878906 8.632812 27.945312 9.039062 27.890625 C 9.296875 27.855469 9.554688 27.800781 9.804688 27.722656 C 10.25 27.574219 10.699219 27.4375 11.148438 27.316406 C 11.59375 27.25 12.042969 27.21875 12.492188 27.21875 C 12.75 27.179688 13.003906 27.148438 13.261719 27.125 C 13.945312 26.996094 14.625 26.863281 15.300781 26.714844 C 15.4375 26.703125 15.574219 26.6875 15.710938 26.667969 C 16.328125 26.648438 16.941406 26.621094 17.558594 26.597656 C 18.214844 26.515625 18.871094 26.4375 19.527344 26.355469 C 20.359375 26.296875 21.191406 26.222656 22.023438 26.140625 C 22.550781 26.117188 23.082031 26.085938 23.609375 26.042969 C 24.117188 25.949219 24.628906 25.875 25.144531 25.816406 C 26.140625 25.683594 27.140625 25.574219 28.144531 25.492188 C 29.394531 25.492188 30.640625 25.46875 31.890625 25.421875 C 33.886719 25.15625 35.886719 24.921875 37.890625 24.722656 C 38.6875 24.644531 39.488281 24.589844 40.289062 24.554688 C 40.558594 24.519531 40.789062 24.402344 40.972656 24.207031 C 41.003906 24.152344 41.03125 24.097656 41.058594 24.039062 C 40.949219 24.011719 40.855469 23.957031 40.78125 23.871094 C 40.742188 23.722656 40.71875 23.570312 40.710938 23.414062 C 40.621094 22.136719 40.566406 20.855469 40.542969 19.574219 C 40.527344 16.300781 40.527344 13.03125 40.542969 9.757812 C 40.5625 8.113281 40.628906 6.476562 40.746094 4.835938 C 40.769531 4.785156 40.777344 4.730469 40.769531 4.667969 C 40.714844 4.660156 40.667969 4.667969 40.625 4.691406 C 39.289062 4.753906 37.953125 4.832031 36.617188 4.921875 C 36.144531 4.996094 35.675781 5.070312 35.203125 5.136719 C 34.742188 5.140625 34.28125 5.136719 33.820312 5.125 C 33.480469 5.125 33.140625 5.136719 32.800781 5.160156 C 32.003906 5.257812 31.210938 5.375 30.425781 5.507812 C 28.871094 5.585938 27.320312 5.675781 25.769531 5.785156 C 23.496094 5.8125 21.222656 5.832031 18.949219 5.832031 C 17.375 5.933594 15.800781 6.007812 14.222656 6.050781 C 13.707031 6.109375 13.195312 6.183594 12.6875 6.265625 C 12.101562 6.273438 11.519531 6.28125 10.933594 6.289062 C 10.523438 6.339844 10.117188 6.398438 9.710938 6.457031 C 9.121094 6.464844 8.53125 6.492188 7.945312 6.542969 C 7.519531 6.585938 7.152344 6.46875 6.839844 6.179688 C 6.8125 6.078125 6.847656 6.015625 6.949219 5.988281 C 7.21875 6.210938 7.53125 6.316406 7.886719 6.300781 C 8.425781 6.238281 8.972656 6.195312 9.515625 6.167969 C 9.925781 6.097656 10.332031 6.03125 10.742188 5.976562 C 11.40625 5.96875 12.070312 5.960938 12.734375 5.953125 C 13.214844 5.878906 13.695312 5.808594 14.175781 5.738281 C 16.09375 5.609375 18.011719 5.535156 19.933594 5.507812 C 20.128906 5.507812 20.320312 5.507812 20.511719 5.507812 C 22.015625 5.511719 23.519531 5.507812 25.023438 5.496094 C 26.828125 5.347656 28.636719 5.234375 30.449219 5.160156 C 31.21875 5.074219 31.988281 4.960938 32.753906 4.824219 C 34.089844 4.84375 35.417969 4.761719 36.738281 4.585938 C 37.714844 4.539062 38.691406 4.46875 39.667969 4.367188 C 40.113281 4.335938 40.5625 4.328125 41.011719 4.34375 C 41.097656 4.433594 41.105469 4.527344 41.035156 4.632812 C 41.046875 4.644531 41.058594 4.65625 41.070312 4.667969 C 41.167969 5.898438 41.230469 7.132812 41.261719 8.367188 C 41.292969 11.863281 41.308594 15.359375 41.3125 18.855469 C 41.367188 19.992188 41.433594 21.128906 41.503906 22.261719 C 41.507812 22.792969 41.511719 23.320312 41.515625 23.847656 C 41.507812 24.316406 41.289062 24.648438 40.867188 24.84375 C 40.574219 24.960938 40.269531 25.023438 39.953125 25.035156 C 39.125 25.039062 38.300781 25.109375 37.480469 25.253906 C 35.632812 25.429688 33.785156 25.632812 31.9375 25.851562 C 31.664062 25.867188 31.394531 25.882812 31.121094 25.898438 C 29.992188 25.902344 28.863281 25.917969 27.738281 25.949219 C 26.363281 26.074219 24.996094 26.234375 23.632812 26.429688 C 22.21875 26.558594 20.800781 26.667969 19.382812 26.765625 C 18.792969 26.847656 18.199219 26.929688 17.605469 27.003906 C 17.089844 27.027344 16.578125 27.046875 16.070312 27.0625 Z M 16.070312 27.0625 "/>
<path style=" stroke:none;fill-rule:evenodd;fill:rgb(72.941176%,71.372549%,69.411765%);fill-opacity:1;" d="M 40.625 4.691406 C 40.667969 4.691406 40.707031 4.691406 40.746094 4.691406 C 40.746094 4.742188 40.746094 4.789062 40.746094 4.835938 C 40.628906 6.476562 40.5625 8.113281 40.542969 9.757812 C 40.527344 13.03125 40.527344 16.300781 40.542969 19.574219 C 40.566406 20.855469 40.621094 22.136719 40.710938 23.414062 C 40.71875 23.570312 40.742188 23.722656 40.78125 23.871094 C 40.855469 23.957031 40.949219 24.011719 41.058594 24.039062 C 41.03125 24.097656 41.003906 24.152344 40.972656 24.207031 C 40.789062 24.402344 40.558594 24.519531 40.289062 24.554688 C 39.488281 24.589844 38.6875 24.644531 37.890625 24.722656 C 35.886719 24.921875 33.886719 25.15625 31.890625 25.421875 C 30.640625 25.46875 29.394531 25.492188 28.144531 25.492188 C 27.140625 25.574219 26.140625 25.683594 25.144531 25.816406 C 25.164062 25.785156 25.195312 25.769531 25.238281 25.769531 C 30.089844 25.023438 34.9375 24.28125 39.785156 23.535156 C 39.847656 17.535156 39.886719 11.535156 39.90625 5.53125 C 36.746094 5.515625 33.585938 5.507812 30.425781 5.507812 C 31.210938 5.375 32.003906 5.257812 32.800781 5.160156 C 33.140625 5.136719 33.480469 5.125 33.820312 5.125 C 34.28125 5.136719 34.742188 5.140625 35.203125 5.136719 C 35.675781 5.070312 36.144531 4.996094 36.617188 4.921875 C 37.953125 4.832031 39.289062 4.753906 40.625 4.691406 Z M 40.625 4.691406 "/>
<path style=" stroke:none;fill-rule:evenodd;fill:rgb(37.647059%,36.862745%,35.686275%);fill-opacity:1;" d="M 40.625 4.691406 C 40.667969 4.667969 40.714844 4.660156 40.769531 4.667969 C 40.777344 4.730469 40.769531 4.785156 40.746094 4.835938 C 40.746094 4.789062 40.746094 4.742188 40.746094 4.691406 C 40.707031 4.691406 40.667969 4.691406 40.625 4.691406 Z M 40.625 4.691406 "/>
<path style=" stroke:none;fill-rule:evenodd;fill:rgb(94.509804%,92.941176%,90.196078%);fill-opacity:1;" d="M 20.128906 5.460938 C 20.0625 5.476562 20 5.492188 19.933594 5.507812 C 18.011719 5.535156 16.09375 5.609375 14.175781 5.738281 C 13.695312 5.808594 13.214844 5.878906 12.734375 5.953125 C 12.070312 5.960938 11.40625 5.96875 10.742188 5.976562 C 10.332031 6.03125 9.925781 6.097656 9.515625 6.167969 C 8.972656 6.195312 8.425781 6.238281 7.886719 6.300781 C 7.53125 6.316406 7.21875 6.210938 6.949219 5.988281 C 6.847656 6.015625 6.8125 6.078125 6.839844 6.179688 C 7.152344 6.46875 7.519531 6.585938 7.945312 6.542969 C 8.53125 6.492188 9.121094 6.464844 9.710938 6.457031 C 10.117188 6.398438 10.523438 6.339844 10.933594 6.289062 C 11.519531 6.28125 12.101562 6.273438 12.6875 6.265625 C 13.195312 6.183594 13.707031 6.109375 14.222656 6.050781 C 15.800781 6.007812 17.375 5.933594 18.949219 5.832031 C 21.222656 5.832031 23.496094 5.8125 25.769531 5.785156 C 27.320312 5.675781 28.871094 5.585938 30.425781 5.507812 C 33.585938 5.507812 36.746094 5.515625 39.90625 5.53125 C 39.886719 11.535156 39.847656 17.535156 39.785156 23.535156 C 34.9375 24.28125 30.089844 25.023438 25.238281 25.769531 C 25.195312 25.769531 25.164062 25.785156 25.144531 25.816406 C 24.628906 25.875 24.117188 25.949219 23.609375 26.042969 C 23.082031 26.085938 22.550781 26.117188 22.023438 26.140625 C 21.191406 26.222656 20.359375 26.296875 19.527344 26.355469 C 18.871094 26.4375 18.214844 26.515625 17.558594 26.597656 C 16.941406 26.621094 16.328125 26.648438 15.710938 26.667969 C 15.574219 26.6875 15.4375 26.703125 15.300781 26.714844 C 14.625 26.863281 13.945312 26.996094 13.261719 27.125 C 13.003906 27.148438 12.75 27.179688 12.492188 27.21875 C 12.042969 27.21875 11.59375 27.25 11.148438 27.316406 C 10.699219 27.4375 10.25 27.574219 9.804688 27.722656 C 9.554688 27.800781 9.296875 27.855469 9.039062 27.890625 C 8.632812 27.945312 8.253906 27.878906 7.898438 27.6875 C 7.917969 27.054688 7.910156 26.425781 7.875 25.792969 C 7.785156 23.871094 7.667969 21.949219 7.511719 20.03125 C 7.539062 18.074219 7.460938 16.121094 7.273438 14.175781 C 7.261719 12.910156 7.28125 11.644531 7.320312 10.382812 C 7.246094 9.878906 7.175781 9.375 7.105469 8.871094 C 7.0625 8.308594 7.03125 7.75 7.007812 7.1875 C 6.972656 6.992188 6.925781 6.800781 6.863281 6.613281 C 6.839844 6.546875 6.804688 6.492188 6.757812 6.445312 C 6.75 6.460938 6.742188 6.476562 6.734375 6.492188 C 6.808594 6.660156 6.859375 6.839844 6.890625 7.019531 C 6.894531 7.703125 6.894531 8.382812 6.890625 9.0625 C 6.941406 9.484375 6.992188 9.910156 7.03125 10.332031 C 7.050781 10.675781 7.050781 11.023438 7.03125 11.367188 C 6.945312 12.332031 6.914062 13.300781 6.9375 14.269531 C 7.132812 16.273438 7.214844 18.28125 7.175781 20.296875 C 7.386719 22.789062 7.515625 25.285156 7.5625 27.785156 C 7.789062 27.960938 8.050781 28.085938 8.339844 28.15625 C 8.835938 28.226562 9.324219 28.195312 9.804688 28.058594 C 10.28125 27.921875 10.761719 27.792969 11.246094 27.675781 C 11.882812 27.601562 12.523438 27.554688 13.167969 27.53125 C 13.824219 27.417969 14.480469 27.289062 15.132812 27.148438 C 15.445312 27.09375 15.757812 27.066406 16.070312 27.0625 C 16.285156 27.058594 16.503906 27.0625 16.71875 27.078125 C 13.574219 27.5625 10.429688 28.039062 7.285156 28.503906 C 7.039062 20.808594 6.789062 13.109375 6.542969 5.414062 C 11.070312 5.441406 15.597656 5.457031 20.128906 5.460938 Z M 20.128906 5.460938 "/>
<path style=" stroke:none;fill-rule:evenodd;fill:rgb(85.098039%,83.529412%,81.176471%);fill-opacity:1;" d="M 20.128906 5.460938 C 21.382812 5.457031 22.640625 5.460938 23.894531 5.472656 C 22.761719 5.476562 21.636719 5.488281 20.511719 5.507812 C 20.320312 5.507812 20.128906 5.507812 19.933594 5.507812 C 20 5.492188 20.0625 5.476562 20.128906 5.460938 Z M 20.128906 5.460938 "/>
<use xlink:href="#surface15" mask="url(#mask3)"/>
<use xlink:href="#surface18" mask="url(#mask4)"/>
<use xlink:href="#surface21" mask="url(#mask5)"/>
<use xlink:href="#surface24" mask="url(#mask6)"/>
<use xlink:href="#surface27" mask="url(#mask7)"/>
<use xlink:href="#surface30" mask="url(#mask8)"/>
<use xlink:href="#surface33" mask="url(#mask9)"/>
<use xlink:href="#surface36" mask="url(#mask10)"/>
<path style=" stroke:none;fill-rule:evenodd;fill:rgb(3.921569%,3.921569%,4.313725%);fill-opacity:1;" d="M 17.75 46.003906 C 17.734375 45.972656 17.707031 45.957031 17.667969 45.957031 C 17.632812 45.957031 17.605469 45.964844 17.582031 45.980469 C 16.773438 46.035156 15.964844 46.097656 15.160156 46.160156 C 14.839844 46.175781 14.519531 46.175781 14.199219 46.160156 C 13.371094 46.113281 12.542969 46.078125 11.714844 46.050781 C 11.414062 46.054688 11.113281 46.066406 10.8125 46.085938 C 10.113281 46.171875 9.40625 46.234375 8.703125 46.28125 C 8.078125 46.300781 7.453125 46.292969 6.828125 46.253906 C 6.589844 46.179688 6.351562 46.117188 6.109375 46.0625 C 6.074219 46.015625 6.058594 45.964844 6.0625 45.90625 C 6.097656 45.667969 6.179688 45.441406 6.3125 45.234375 C 6.488281 44.964844 6.664062 44.691406 6.839844 44.417969 C 6.953125 44.191406 7.066406 43.964844 7.1875 43.746094 C 7.167969 43.726562 7.144531 43.71875 7.117188 43.722656 C 7.117188 43.699219 7.117188 43.675781 7.117188 43.652344 C 7.167969 43.667969 7.214844 43.667969 7.261719 43.652344 C 7.429688 43.429688 7.59375 43.207031 7.753906 42.980469 C 7.796875 42.878906 7.824219 42.773438 7.835938 42.667969 C 7.882812 42.660156 7.929688 42.667969 7.96875 42.691406 C 7.984375 42.800781 7.972656 42.902344 7.945312 43.003906 C 8.078125 42.886719 8.234375 42.820312 8.414062 42.800781 C 9.15625 42.808594 9.902344 42.808594 10.644531 42.800781 C 12.132812 42.691406 13.621094 42.621094 15.109375 42.59375 C 15.070312 42.496094 15.101562 42.460938 15.207031 42.488281 C 15.226562 42.511719 15.242188 42.539062 15.253906 42.570312 C 17.414062 42.59375 19.574219 42.601562 21.734375 42.59375 C 21.730469 42.445312 21.792969 42.414062 21.914062 42.5 C 21.925781 42.53125 21.929688 42.5625 21.925781 42.59375 C 22.253906 42.59375 22.582031 42.59375 22.910156 42.59375 C 22.898438 42.488281 22.9375 42.457031 23.03125 42.5 C 23.050781 42.527344 23.058594 42.558594 23.054688 42.59375 C 24.960938 42.589844 26.863281 42.59375 28.769531 42.605469 C 28.863281 42.699219 28.855469 42.789062 28.746094 42.871094 C 28.800781 42.96875 28.851562 43.070312 28.902344 43.171875 C 28.996094 43.457031 29.101562 43.738281 29.210938 44.011719 C 29.386719 44.296875 29.523438 44.601562 29.621094 44.921875 C 29.636719 45.019531 29.636719 45.113281 29.621094 45.210938 C 29.613281 45.253906 29.59375 45.292969 29.5625 45.320312 C 29.601562 45.398438 29.582031 45.460938 29.511719 45.511719 C 28.910156 45.640625 28.300781 45.742188 27.6875 45.8125 C 27.691406 45.894531 27.679688 45.972656 27.652344 46.050781 C 27.589844 46.113281 27.53125 46.113281 27.472656 46.050781 C 27.441406 45.992188 27.425781 45.925781 27.425781 45.859375 C 26.617188 45.914062 25.808594 45.953125 25 45.980469 C 24.9375 46.09375 24.863281 46.101562 24.785156 46.003906 C 23.140625 45.972656 21.496094 45.941406 19.851562 45.90625 C 19.246094 45.910156 18.644531 45.921875 18.039062 45.941406 C 17.953125 45.957031 17.878906 45.992188 17.824219 46.050781 C 17.785156 46.050781 17.761719 46.035156 17.75 46.003906 Z M 17.75 46.003906 "/>
<path style=" stroke:none;fill-rule:evenodd;fill:rgb(3.921569%,3.921569%,4.313725%);fill-opacity:1;" d="M 30.472656 42.714844 C 30.738281 42.710938 31 42.714844 31.265625 42.726562 C 31.699219 42.75 32.039062 42.9375 32.285156 43.289062 C 32.488281 43.601562 32.679688 43.921875 32.859375 44.25 C 33.0625 44.503906 33.246094 44.765625 33.414062 45.042969 C 33.484375 45.160156 33.546875 45.28125 33.605469 45.402344 C 33.621094 45.492188 33.621094 45.578125 33.605469 45.667969 C 33.550781 45.730469 33.480469 45.75 33.402344 45.726562 C 33.335938 45.664062 33.269531 45.601562 33.199219 45.546875 C 32.324219 45.648438 31.449219 45.691406 30.570312 45.679688 C 30.53125 45.636719 30.511719 45.585938 30.507812 45.523438 C 30.394531 45.574219 30.316406 45.542969 30.269531 45.425781 C 30.253906 44.84375 30.136719 44.285156 29.910156 43.746094 C 29.8125 43.53125 29.710938 43.320312 29.609375 43.109375 C 29.664062 42.984375 29.761719 42.894531 29.898438 42.847656 C 30.089844 42.800781 30.28125 42.753906 30.472656 42.714844 Z M 30.472656 42.714844 "/>
<use xlink:href="#surface39" mask="url(#mask11)"/>
<path style=" stroke:none;fill-rule:evenodd;fill:rgb(31.372549%,30.588235%,29.803922%);fill-opacity:1;" d="M 15.496094 42.859375 C 16.632812 42.828125 17.777344 42.828125 18.925781 42.859375 C 18.925781 42.875 18.917969 42.882812 18.902344 42.882812 C 18.550781 42.851562 18.199219 42.851562 17.847656 42.882812 C 17.832031 42.882812 17.816406 42.882812 17.800781 42.882812 C 17.429688 42.851562 17.0625 42.851562 16.695312 42.882812 C 16.679688 42.882812 16.664062 42.882812 16.648438 42.882812 C 16.265625 42.859375 15.882812 42.851562 15.496094 42.859375 Z M 15.496094 42.859375 "/>
<path style=" stroke:none;fill-rule:evenodd;fill:rgb(30.588235%,29.803922%,29.019608%);fill-opacity:1;" d="M 21.757812 42.859375 C 21.359375 42.859375 20.960938 42.859375 20.558594 42.859375 C 20.515625 42.855469 20.476562 42.863281 20.4375 42.882812 C 19.972656 42.859375 19.5 42.851562 19.023438 42.859375 C 19.921875 42.828125 20.832031 42.828125 21.757812 42.859375 Z M 21.757812 42.859375 "/>
<path style=" stroke:none;fill-rule:evenodd;fill:rgb(32.54902%,31.764706%,30.980392%);fill-opacity:1;" d="M 22.457031 42.859375 C 22.296875 42.859375 22.136719 42.859375 21.976562 42.859375 C 21.976562 42.890625 21.976562 42.921875 21.976562 42.953125 C 21.953125 42.921875 21.945312 42.878906 21.953125 42.835938 C 22.125 42.828125 22.292969 42.835938 22.457031 42.859375 Z M 22.457031 42.859375 "/>
<path style=" stroke:none;fill-rule:evenodd;fill:rgb(93.333333%,91.764706%,89.019608%);fill-opacity:1;" d="M 13.910156 42.859375 C 14.335938 42.859375 14.757812 42.859375 15.183594 42.859375 C 15.1875 43.167969 15.144531 43.472656 15.0625 43.769531 C 14.589844 43.777344 14.117188 43.769531 13.644531 43.746094 C 13.789062 43.464844 13.875 43.167969 13.910156 42.859375 Z M 13.910156 42.859375 "/>
<path style=" stroke:none;fill-rule:evenodd;fill:rgb(94.117647%,92.54902%,89.803922%);fill-opacity:1;" d="M 15.496094 42.859375 C 15.882812 42.851562 16.265625 42.859375 16.648438 42.882812 C 16.609375 43.179688 16.53125 43.46875 16.40625 43.746094 C 16.03125 43.777344 15.65625 43.777344 15.277344 43.746094 C 15.339844 43.453125 15.363281 43.160156 15.351562 42.859375 C 15.398438 42.859375 15.445312 42.859375 15.496094 42.859375 Z M 15.496094 42.859375 "/>
<path style=" stroke:none;fill-rule:evenodd;fill:rgb(94.117647%,92.54902%,89.803922%);fill-opacity:1;" d="M 16.695312 42.882812 C 17.0625 42.851562 17.429688 42.851562 17.800781 42.882812 C 17.777344 42.949219 17.765625 43.023438 17.761719 43.097656 C 17.75 43.324219 17.746094 43.546875 17.75 43.769531 C 17.367188 43.777344 16.980469 43.769531 16.597656 43.746094 C 16.703125 43.464844 16.738281 43.175781 16.695312 42.882812 Z M 16.695312 42.882812 "/>
<path style=" stroke:none;fill-rule:evenodd;fill:rgb(93.72549%,92.156863%,89.411765%);fill-opacity:1;" d="M 17.847656 42.882812 C 18.199219 42.851562 18.550781 42.851562 18.902344 42.882812 C 18.992188 43.171875 19.046875 43.46875 19.070312 43.769531 C 18.679688 43.769531 18.285156 43.769531 17.894531 43.769531 C 17.898438 43.484375 17.894531 43.195312 17.882812 42.90625 C 17.875 42.894531 17.863281 42.886719 17.847656 42.882812 Z M 17.847656 42.882812 "/>
<path style=" stroke:none;fill-rule:evenodd;fill:rgb(94.117647%,92.54902%,89.803922%);fill-opacity:1;" d="M 19.023438 42.859375 C 19.5 42.851562 19.972656 42.859375 20.4375 42.882812 C 20.414062 43.101562 20.40625 43.328125 20.414062 43.554688 C 20.390625 43.613281 20.382812 43.675781 20.390625 43.746094 C 20.023438 43.746094 19.65625 43.746094 19.285156 43.746094 C 19.234375 43.441406 19.144531 43.148438 19.023438 42.859375 Z M 19.023438 42.859375 "/>
<path style=" stroke:none;fill-rule:evenodd;fill:rgb(93.72549%,92.156863%,89.411765%);fill-opacity:1;" d="M 20.558594 42.859375 C 20.960938 42.859375 21.359375 42.859375 21.757812 42.859375 C 21.789062 43.1875 21.820312 43.515625 21.855469 43.84375 C 21.441406 43.792969 21.023438 43.769531 20.605469 43.769531 C 20.597656 43.464844 20.582031 43.160156 20.558594 42.859375 Z M 20.558594 42.859375 "/>
<path style=" stroke:none;fill-rule:evenodd;fill:rgb(93.72549%,92.156863%,89.411765%);fill-opacity:1;" d="M 22.457031 42.859375 C 22.640625 42.859375 22.824219 42.859375 23.007812 42.859375 C 23.058594 43.1875 23.105469 43.515625 23.152344 43.84375 C 23.152344 43.875 23.152344 43.90625 23.152344 43.9375 C 23.070312 43.9375 22.992188 43.9375 22.910156 43.9375 C 22.648438 43.941406 22.386719 43.917969 22.132812 43.867188 C 22.070312 43.5625 22.019531 43.261719 21.976562 42.953125 C 21.976562 42.921875 21.976562 42.890625 21.976562 42.859375 C 22.136719 42.859375 22.296875 42.859375 22.457031 42.859375 Z M 22.457031 42.859375 "/>
<path style=" stroke:none;fill-rule:evenodd;fill:rgb(93.72549%,92.156863%,89.411765%);fill-opacity:1;" d="M 23.152344 42.859375 C 24.160156 42.855469 25.167969 42.859375 26.175781 42.871094 C 26.152344 42.894531 26.148438 42.925781 26.164062 42.953125 C 26.300781 43.035156 26.410156 43.136719 26.5 43.265625 C 26.605469 43.425781 26.695312 43.59375 26.777344 43.769531 C 26.433594 43.792969 26.089844 43.8125 25.742188 43.820312 C 25.671875 43.429688 25.449219 43.167969 25.085938 43.027344 C 25.007812 43.03125 24.972656 43.074219 24.988281 43.148438 C 25.253906 43.296875 25.425781 43.519531 25.503906 43.820312 C 25.167969 43.863281 24.832031 43.878906 24.496094 43.867188 C 24.398438 43.59375 24.296875 43.320312 24.195312 43.050781 C 24.121094 43.011719 24.070312 43.03125 24.039062 43.109375 C 24.117188 43.371094 24.199219 43.632812 24.28125 43.890625 C 23.984375 43.933594 23.6875 43.941406 23.390625 43.914062 C 23.296875 43.566406 23.214844 43.214844 23.152344 42.859375 Z M 23.152344 42.859375 "/>
<path style=" stroke:none;fill-rule:evenodd;fill:rgb(93.72549%,92.156863%,89.803922%);fill-opacity:1;" d="M 27.617188 43.699219 C 27.566406 43.738281 27.511719 43.761719 27.449219 43.769531 C 27.304688 43.777344 27.160156 43.769531 27.015625 43.746094 C 26.871094 43.46875 26.6875 43.214844 26.464844 42.992188 C 26.40625 42.941406 26.34375 42.902344 26.273438 42.871094 C 26.734375 42.855469 27.199219 42.855469 27.664062 42.871094 C 27.585938 43.140625 27.570312 43.417969 27.617188 43.699219 Z M 27.617188 43.699219 "/>
<path style=" stroke:none;fill-rule:evenodd;fill:rgb(93.72549%,92.156863%,89.411765%);fill-opacity:1;" d="M 28.648438 43.769531 C 28.394531 43.753906 28.140625 43.738281 27.878906 43.722656 C 27.839844 43.4375 27.820312 43.152344 27.832031 42.871094 C 28.066406 42.855469 28.296875 42.855469 28.527344 42.871094 C 28.699219 43.144531 28.804688 43.445312 28.839844 43.769531 C 28.777344 43.769531 28.710938 43.769531 28.648438 43.769531 Z M 28.648438 43.769531 "/>
<path style=" stroke:none;fill-rule:evenodd;fill:rgb(93.333333%,91.764706%,89.019608%);fill-opacity:1;" d="M 13.117188 42.882812 C 13.335938 42.882812 13.550781 42.882812 13.765625 42.882812 C 13.710938 43.199219 13.59375 43.484375 13.40625 43.746094 C 12.925781 43.777344 12.445312 43.777344 11.964844 43.746094 C 12.132812 43.496094 12.242188 43.222656 12.300781 42.929688 C 12.578125 42.921875 12.851562 42.90625 13.117188 42.882812 Z M 13.117188 42.882812 "/>
<path style=" stroke:none;fill-rule:evenodd;fill:rgb(92.54902%,91.372549%,88.627451%);fill-opacity:1;" d="M 33.066406 45.210938 C 32.953125 45.226562 32.839844 45.242188 32.730469 45.257812 C 32.625 45.261719 32.519531 45.269531 32.417969 45.285156 C 32.289062 44.996094 32.160156 44.707031 32.03125 44.417969 C 32.152344 44.394531 32.273438 44.367188 32.394531 44.335938 C 32.46875 44.207031 32.425781 44.144531 32.273438 44.144531 C 32.136719 44.140625 32 44.128906 31.863281 44.105469 C 31.808594 44 31.742188 43.894531 31.671875 43.796875 C 31.78125 43.757812 31.894531 43.742188 32.007812 43.746094 C 32.015625 43.699219 32.007812 43.65625 31.984375 43.613281 C 31.832031 43.605469 31.679688 43.605469 31.527344 43.613281 C 31.390625 43.433594 31.214844 43.300781 31 43.21875 C 30.929688 43.230469 30.902344 43.269531 30.917969 43.339844 C 31.0625 43.4375 31.191406 43.550781 31.3125 43.675781 C 31.105469 43.746094 30.890625 43.769531 30.675781 43.746094 C 30.566406 43.476562 30.441406 43.210938 30.304688 42.953125 C 30.699219 42.917969 31.089844 42.929688 31.480469 42.992188 C 31.640625 43.023438 31.777344 43.101562 31.890625 43.21875 C 32.152344 43.574219 32.371094 43.960938 32.550781 44.371094 C 32.734375 44.644531 32.90625 44.925781 33.066406 45.210938 Z M 33.066406 45.210938 "/>
<path style=" stroke:none;fill-rule:evenodd;fill:rgb(93.72549%,92.156863%,89.411765%);fill-opacity:1;" d="M 11.773438 43.769531 C 11.402344 43.777344 11.035156 43.769531 10.667969 43.746094 C 10.722656 43.523438 10.726562 43.300781 10.683594 43.074219 C 10.660156 43.054688 10.640625 43.035156 10.621094 43.015625 C 11.050781 43.007812 11.480469 42.988281 11.90625 42.953125 C 12.007812 42.957031 12.105469 42.960938 12.207031 42.96875 C 12.085938 43.25 11.941406 43.515625 11.773438 43.769531 Z M 11.773438 43.769531 "/>
<path style=" stroke:none;fill-rule:evenodd;fill:rgb(91.764706%,90.196078%,87.45098%);fill-opacity:1;" d="M 29.992188 42.980469 C 30.070312 42.972656 30.148438 42.980469 30.222656 43.003906 C 30.320312 43.246094 30.40625 43.492188 30.472656 43.746094 C 30.382812 43.730469 30.300781 43.6875 30.234375 43.628906 C 30.203125 43.636719 30.1875 43.65625 30.183594 43.6875 C 30.277344 43.796875 30.398438 43.875 30.542969 43.914062 C 30.601562 44.046875 30.640625 44.183594 30.664062 44.324219 C 30.566406 44.328125 30.46875 44.328125 30.375 44.324219 C 30.21875 43.886719 30.003906 43.480469 29.730469 43.109375 C 29.8125 43.054688 29.902344 43.007812 29.992188 42.980469 Z M 29.992188 42.980469 "/>
<path style=" stroke:none;fill-rule:evenodd;fill:rgb(92.54902%,90.980392%,88.235294%);fill-opacity:1;" d="M 8.199219 43.003906 C 8.332031 43.003906 8.46875 43.003906 8.605469 43.003906 C 8.542969 43.300781 8.429688 43.574219 8.269531 43.832031 C 8.050781 43.839844 7.835938 43.824219 7.621094 43.78125 C 7.570312 43.78125 7.53125 43.761719 7.5 43.722656 C 7.628906 43.546875 7.746094 43.363281 7.847656 43.171875 C 7.96875 43.117188 8.082031 43.0625 8.199219 43.003906 Z M 8.199219 43.003906 "/>
<path style=" stroke:none;fill-rule:evenodd;fill:rgb(93.333333%,91.764706%,89.019608%);fill-opacity:1;" d="M 8.726562 43.003906 C 9.308594 43.023438 9.894531 43.03125 10.476562 43.027344 C 10.480469 43.242188 10.476562 43.460938 10.464844 43.675781 C 10.460938 43.714844 10.445312 43.75 10.429688 43.78125 C 10.15625 43.796875 9.886719 43.800781 9.613281 43.796875 C 9.648438 43.621094 9.667969 43.445312 9.660156 43.265625 C 9.628906 43.265625 9.597656 43.265625 9.566406 43.265625 C 9.574219 43.449219 9.542969 43.621094 9.46875 43.78125 C 9.132812 43.824219 8.796875 43.839844 8.460938 43.832031 C 8.605469 43.574219 8.691406 43.296875 8.726562 43.003906 Z M 8.726562 43.003906 "/>
<path style=" stroke:none;fill-rule:evenodd;fill:rgb(4.705882%,4.705882%,5.098039%);fill-opacity:1;" d="M 41.707031 43.121094 C 41.914062 43.113281 42.117188 43.136719 42.320312 43.195312 C 42.398438 43.269531 42.394531 43.347656 42.308594 43.421875 C 42.082031 43.410156 41.859375 43.410156 41.632812 43.421875 C 41.21875 43.523438 40.800781 43.625 40.386719 43.734375 C 40.226562 43.769531 40.066406 43.777344 39.90625 43.757812 C 39.84375 43.703125 39.84375 43.648438 39.90625 43.589844 C 40.101562 43.574219 40.292969 43.542969 40.484375 43.496094 C 40.886719 43.347656 41.296875 43.222656 41.707031 43.121094 Z M 41.707031 43.121094 "/>
<path style=" stroke:none;fill-rule:evenodd;fill:rgb(39.607843%,38.823529%,38.039216%);fill-opacity:1;" d="M 20.414062 43.554688 C 20.414062 43.628906 20.414062 43.699219 20.414062 43.769531 C 20.035156 43.777344 19.660156 43.769531 19.285156 43.746094 C 19.65625 43.746094 20.023438 43.746094 20.390625 43.746094 C 20.382812 43.675781 20.390625 43.613281 20.414062 43.554688 Z M 20.414062 43.554688 "/>
<path style=" stroke:none;fill-rule:evenodd;fill:rgb(49.411765%,48.627451%,47.45098%);fill-opacity:1;" d="M 27.617188 43.699219 C 27.636719 43.714844 27.644531 43.738281 27.640625 43.769531 C 27.578125 43.769531 27.511719 43.769531 27.449219 43.769531 C 27.511719 43.761719 27.566406 43.738281 27.617188 43.699219 Z M 27.617188 43.699219 "/>
<path style=" stroke:none;fill-rule:evenodd;fill:rgb(48.235294%,47.058824%,45.882353%);fill-opacity:1;" d="M 27.878906 43.722656 C 28.140625 43.738281 28.394531 43.753906 28.648438 43.769531 C 28.382812 43.785156 28.128906 43.769531 27.878906 43.722656 Z M 27.878906 43.722656 "/>
<path style=" stroke:none;fill-rule:evenodd;fill:rgb(35.686275%,34.901961%,34.117647%);fill-opacity:1;" d="M 10.667969 43.746094 C 11.035156 43.769531 11.402344 43.777344 11.773438 43.769531 C 11.402344 43.804688 11.027344 43.804688 10.644531 43.769531 C 10.648438 43.757812 10.65625 43.75 10.667969 43.746094 Z M 10.667969 43.746094 "/>
<path style=" stroke:none;fill-rule:evenodd;fill:rgb(93.72549%,92.156863%,89.411765%);fill-opacity:1;" d="M 7.429688 43.820312 C 7.679688 43.890625 7.9375 43.941406 8.199219 43.964844 C 8.019531 44.234375 7.855469 44.515625 7.707031 44.804688 C 7.652344 44.835938 7.609375 44.824219 7.574219 44.765625 C 7.480469 44.746094 7.445312 44.78125 7.464844 44.875 C 7.519531 44.902344 7.566406 44.941406 7.597656 44.996094 C 7.398438 45.324219 7.230469 45.667969 7.09375 46.027344 C 6.835938 45.996094 6.578125 45.957031 6.324219 45.90625 C 6.34375 45.699219 6.414062 45.507812 6.527344 45.332031 C 6.828125 44.917969 7.082031 44.476562 7.296875 44.011719 C 7.347656 43.949219 7.390625 43.886719 7.429688 43.820312 Z M 7.429688 43.820312 "/>
<path style=" stroke:none;fill-rule:evenodd;fill:rgb(92.54902%,90.980392%,88.235294%);fill-opacity:1;" d="M 31.3125 43.84375 C 31.359375 43.835938 31.402344 43.84375 31.445312 43.867188 C 31.503906 43.960938 31.554688 44.054688 31.601562 44.15625 C 31.386719 44.199219 31.171875 44.242188 30.953125 44.273438 C 30.929688 44.273438 30.910156 44.265625 30.894531 44.25 C 30.839844 44.140625 30.796875 44.027344 30.761719 43.914062 C 30.953125 43.925781 31.136719 43.898438 31.3125 43.84375 Z M 31.3125 43.84375 "/>
<path style=" stroke:none;fill-rule:evenodd;fill:rgb(48.235294%,47.45098%,45.882353%);fill-opacity:1;" d="M 23.152344 43.84375 C 23.175781 43.878906 23.183594 43.917969 23.175781 43.964844 C 23.082031 43.96875 22.996094 43.960938 22.910156 43.9375 C 22.992188 43.9375 23.070312 43.9375 23.152344 43.9375 C 23.152344 43.90625 23.152344 43.875 23.152344 43.84375 Z M 23.152344 43.84375 "/>
<path style=" stroke:none;fill-rule:evenodd;fill:rgb(93.72549%,92.156863%,89.411765%);fill-opacity:1;" d="M 8.390625 43.964844 C 8.726562 43.957031 9.0625 43.964844 9.398438 43.988281 C 9.214844 44.320312 9.03125 44.652344 8.84375 44.984375 C 8.554688 45 8.269531 44.992188 7.980469 44.960938 C 7.929688 44.957031 7.890625 44.9375 7.859375 44.898438 C 8.03125 44.582031 8.207031 44.269531 8.390625 43.964844 Z M 8.390625 43.964844 "/>
<path style=" stroke:none;fill-rule:evenodd;fill:rgb(93.333333%,91.764706%,89.019608%);fill-opacity:1;" d="M 9.542969 43.964844 C 9.820312 43.957031 10.101562 43.964844 10.382812 43.976562 C 10.234375 44.304688 10.058594 44.617188 9.855469 44.910156 C 9.589844 44.925781 9.324219 44.941406 9.0625 44.960938 C 9.25 44.640625 9.410156 44.308594 9.542969 43.964844 Z M 9.542969 43.964844 "/>
<path style=" stroke:none;fill-rule:evenodd;fill:rgb(94.117647%,92.54902%,89.803922%);fill-opacity:1;" d="M 10.789062 44.898438 C 10.5625 44.90625 10.335938 44.898438 10.117188 44.875 C 10.3125 44.59375 10.472656 44.296875 10.597656 43.976562 C 10.949219 43.964844 11.300781 43.957031 11.652344 43.964844 C 11.539062 44.273438 11.410156 44.574219 11.269531 44.875 C 11.109375 44.898438 10.949219 44.90625 10.789062 44.898438 Z M 10.789062 44.898438 "/>
<path style=" stroke:none;fill-rule:evenodd;fill:rgb(54.117647%,52.941176%,51.764706%);fill-opacity:1;" d="M 13.527344 43.988281 C 14.011719 43.964844 14.5 43.957031 14.992188 43.964844 C 14.996094 43.992188 14.988281 44.019531 14.964844 44.035156 C 14.496094 43.988281 14.015625 43.972656 13.527344 43.988281 Z M 13.527344 43.988281 "/>
<path style=" stroke:none;fill-rule:evenodd;fill:rgb(74.901961%,73.72549%,71.372549%);fill-opacity:1;" d="M 17.917969 43.988281 C 18.308594 43.964844 18.699219 43.957031 19.09375 43.964844 C 19.09375 44.027344 19.09375 44.089844 19.09375 44.15625 C 19.070312 44.105469 19.0625 44.046875 19.070312 43.988281 C 18.6875 43.988281 18.304688 43.988281 17.917969 43.988281 Z M 17.917969 43.988281 "/>
<path style=" stroke:none;fill-rule:evenodd;fill:rgb(47.058824%,46.27451%,45.098039%);fill-opacity:1;" d="M 21.015625 43.988281 C 20.886719 43.988281 20.757812 43.988281 20.632812 43.988281 C 20.632812 44.019531 20.632812 44.050781 20.632812 44.082031 C 20.609375 44.050781 20.601562 44.007812 20.605469 43.964844 C 20.746094 43.957031 20.882812 43.964844 21.015625 43.988281 Z M 21.015625 43.988281 "/>
<path style=" stroke:none;fill-rule:evenodd;fill:rgb(69.411765%,68.235294%,65.882353%);fill-opacity:1;" d="M 26.871094 43.988281 C 26.519531 43.988281 26.167969 43.988281 25.816406 43.988281 C 25.816406 44.011719 25.816406 44.035156 25.816406 44.058594 C 25.792969 44.035156 25.785156 44 25.792969 43.964844 C 26.15625 43.957031 26.515625 43.964844 26.871094 43.988281 Z M 26.871094 43.988281 "/>
<path style=" stroke:none;fill-rule:evenodd;fill:rgb(48.235294%,47.058824%,45.882353%);fill-opacity:1;" d="M 27.664062 43.988281 C 27.492188 43.980469 27.324219 43.988281 27.160156 44.011719 C 27.148438 44.007812 27.140625 44 27.136719 43.988281 C 27.316406 43.957031 27.492188 43.957031 27.664062 43.988281 Z M 27.664062 43.988281 "/>
<path style=" stroke:none;fill-rule:evenodd;fill:rgb(93.333333%,91.764706%,89.019608%);fill-opacity:1;" d="M 11.847656 43.964844 C 12.324219 43.957031 12.804688 43.964844 13.285156 43.976562 C 13.121094 44.257812 12.960938 44.546875 12.804688 44.839844 C 12.375 44.871094 11.941406 44.875 11.511719 44.851562 C 11.632812 44.558594 11.742188 44.261719 11.847656 43.964844 Z M 11.847656 43.964844 "/>
<path style=" stroke:none;fill-rule:evenodd;fill:rgb(94.117647%,92.54902%,89.803922%);fill-opacity:1;" d="M 13.527344 43.988281 C 14.015625 43.972656 14.496094 43.988281 14.964844 44.035156 C 14.894531 44.273438 14.824219 44.515625 14.75 44.753906 C 14.277344 44.757812 13.804688 44.773438 13.335938 44.804688 C 13.257812 44.8125 13.183594 44.800781 13.117188 44.777344 C 13.234375 44.503906 13.371094 44.238281 13.527344 43.988281 Z M 13.527344 43.988281 "/>
<path style=" stroke:none;fill-rule:evenodd;fill:rgb(92.156863%,90.588235%,87.843137%);fill-opacity:1;" d="M 15.230469 43.964844 C 15.589844 43.957031 15.949219 43.964844 16.3125 43.988281 C 16.203125 44.246094 16.144531 44.519531 16.144531 44.804688 C 15.765625 44.800781 15.390625 44.777344 15.015625 44.730469 C 15.101562 44.480469 15.171875 44.222656 15.230469 43.964844 Z M 15.230469 43.964844 "/>
<path style=" stroke:none;fill-rule:evenodd;fill:rgb(93.333333%,91.764706%,89.019608%);fill-opacity:1;" d="M 16.742188 44.804688 C 16.621094 44.804688 16.503906 44.804688 16.382812 44.804688 C 16.382812 44.777344 16.382812 44.753906 16.382812 44.730469 C 16.347656 44.460938 16.394531 44.210938 16.527344 43.976562 C 16.925781 43.964844 17.328125 43.957031 17.726562 43.964844 C 17.726562 44.210938 17.726562 44.460938 17.726562 44.707031 C 17.398438 44.75 17.070312 44.78125 16.742188 44.804688 Z M 16.742188 44.804688 "/>
<path style=" stroke:none;fill-rule:evenodd;fill:rgb(93.333333%,92.156863%,89.411765%);fill-opacity:1;" d="M 17.917969 43.988281 C 18.304688 43.988281 18.6875 43.988281 19.070312 43.988281 C 19.0625 44.046875 19.070312 44.105469 19.09375 44.15625 C 19.109375 44.292969 19.09375 44.425781 19.046875 44.550781 C 18.667969 44.558594 18.292969 44.59375 17.917969 44.660156 C 17.917969 44.433594 17.917969 44.210938 17.917969 43.988281 Z M 17.917969 43.988281 "/>
<path style=" stroke:none;fill-rule:evenodd;fill:rgb(94.509804%,92.941176%,90.196078%);fill-opacity:1;" d="M 19.3125 43.988281 C 19.671875 43.988281 20.03125 43.988281 20.390625 43.988281 C 20.390625 44.164062 20.390625 44.339844 20.390625 44.515625 C 20.105469 44.507812 19.828125 44.515625 19.550781 44.539062 C 19.480469 44.539062 19.40625 44.539062 19.335938 44.539062 C 19.339844 44.355469 19.332031 44.171875 19.3125 43.988281 Z M 19.3125 43.988281 "/>
<path style=" stroke:none;fill-rule:evenodd;fill:rgb(92.54902%,90.980392%,88.235294%);fill-opacity:1;" d="M 21.015625 43.988281 C 21.304688 44.007812 21.589844 44.03125 21.878906 44.058594 C 21.890625 44.214844 21.914062 44.367188 21.953125 44.515625 C 21.519531 44.535156 21.085938 44.542969 20.65625 44.539062 C 20.65625 44.386719 20.648438 44.234375 20.632812 44.082031 C 20.632812 44.050781 20.632812 44.019531 20.632812 43.988281 C 20.757812 43.988281 20.886719 43.988281 21.015625 43.988281 Z M 21.015625 43.988281 "/>
<path style=" stroke:none;fill-rule:evenodd;fill:rgb(93.333333%,91.764706%,89.019608%);fill-opacity:1;" d="M 26.871094 43.988281 C 26.917969 44.089844 26.960938 44.199219 26.992188 44.3125 C 26.988281 44.328125 26.980469 44.34375 26.96875 44.359375 C 26.601562 44.367188 26.230469 44.378906 25.863281 44.394531 C 25.847656 44.28125 25.832031 44.171875 25.816406 44.058594 C 25.816406 44.035156 25.816406 44.011719 25.816406 43.988281 C 26.167969 43.988281 26.519531 43.988281 26.871094 43.988281 Z M 26.871094 43.988281 "/>
<path style=" stroke:none;fill-rule:evenodd;fill:rgb(92.941176%,91.372549%,88.627451%);fill-opacity:1;" d="M 27.664062 43.988281 C 27.710938 44.09375 27.742188 44.203125 27.761719 44.324219 C 27.601562 44.332031 27.441406 44.324219 27.28125 44.300781 C 27.238281 44.203125 27.199219 44.105469 27.160156 44.011719 C 27.324219 43.988281 27.492188 43.980469 27.664062 43.988281 Z M 27.664062 43.988281 "/>
<path style=" stroke:none;fill-rule:evenodd;fill:rgb(94.117647%,92.54902%,89.803922%);fill-opacity:1;" d="M 27.976562 43.988281 C 28.289062 43.984375 28.601562 43.988281 28.914062 44 C 28.953125 44.089844 28.996094 44.183594 29.03125 44.273438 C 28.703125 44.300781 28.375 44.308594 28.046875 44.300781 C 28.019531 44.195312 27.996094 44.09375 27.976562 43.988281 Z M 27.976562 43.988281 "/>
<path style=" stroke:none;fill-rule:evenodd;fill:rgb(92.54902%,90.980392%,88.235294%);fill-opacity:1;" d="M 25.574219 44.324219 C 25.574219 44.347656 25.574219 44.371094 25.574219 44.394531 C 25.484375 44.386719 25.394531 44.394531 25.3125 44.417969 C 25.105469 44.417969 24.894531 44.417969 24.6875 44.417969 C 24.65625 44.304688 24.617188 44.191406 24.566406 44.082031 C 24.894531 44.03125 25.222656 44 25.550781 43.988281 C 25.5625 44.097656 25.570312 44.210938 25.574219 44.324219 Z M 25.574219 44.324219 "/>
<path style=" stroke:none;fill-rule:evenodd;fill:rgb(38.431373%,37.647059%,36.470588%);fill-opacity:1;" d="M 22.289062 44.105469 C 22.246094 44.105469 22.207031 44.105469 22.167969 44.105469 C 22.167969 44.132812 22.167969 44.15625 22.167969 44.179688 C 22.144531 44.152344 22.136719 44.121094 22.144531 44.082031 C 22.195312 44.074219 22.246094 44.085938 22.289062 44.105469 Z M 22.289062 44.105469 "/>
<path style=" stroke:none;fill-rule:evenodd;fill:rgb(92.941176%,91.372549%,88.627451%);fill-opacity:1;" d="M 22.289062 44.105469 C 22.597656 44.144531 22.910156 44.160156 23.222656 44.15625 C 23.242188 44.265625 23.257812 44.378906 23.273438 44.492188 C 22.925781 44.492188 22.582031 44.492188 22.238281 44.492188 C 22.199219 44.390625 22.175781 44.285156 22.167969 44.179688 C 22.167969 44.15625 22.167969 44.132812 22.167969 44.105469 C 22.207031 44.105469 22.246094 44.105469 22.289062 44.105469 Z M 22.289062 44.105469 "/>
<path style=" stroke:none;fill-rule:evenodd;fill:rgb(91.764706%,90.196078%,87.45098%);fill-opacity:1;" d="M 23.464844 44.179688 C 23.535156 44.164062 23.609375 44.148438 23.679688 44.132812 C 23.894531 44.113281 24.113281 44.101562 24.328125 44.09375 C 24.371094 44.207031 24.40625 44.324219 24.425781 44.441406 C 24.128906 44.457031 23.832031 44.460938 23.535156 44.457031 C 23.5 44.367188 23.476562 44.273438 23.464844 44.179688 Z M 23.464844 44.179688 "/>
<path style=" stroke:none;fill-rule:evenodd;fill:rgb(44.313725%,43.137255%,42.352941%);fill-opacity:1;" d="M 23.679688 44.132812 C 23.609375 44.148438 23.535156 44.164062 23.464844 44.179688 C 23.449219 44.175781 23.441406 44.167969 23.441406 44.15625 C 23.519531 44.132812 23.597656 44.125 23.679688 44.132812 Z M 23.679688 44.132812 "/>
<path style=" stroke:none;fill-rule:evenodd;fill:rgb(45.098039%,43.921569%,43.137255%);fill-opacity:1;" d="M 25.574219 44.324219 C 25.597656 44.347656 25.605469 44.378906 25.601562 44.417969 C 25.503906 44.417969 25.40625 44.417969 25.3125 44.417969 C 25.394531 44.394531 25.484375 44.386719 25.574219 44.394531 C 25.574219 44.371094 25.574219 44.347656 25.574219 44.324219 Z M 25.574219 44.324219 "/>
<path style=" stroke:none;fill-rule:evenodd;fill:rgb(92.54902%,90.980392%,88.235294%);fill-opacity:1;" d="M 31.601562 44.441406 C 31.648438 44.441406 31.695312 44.441406 31.746094 44.441406 C 31.84375 44.734375 31.957031 45.023438 32.082031 45.308594 C 31.882812 45.355469 31.683594 45.390625 31.480469 45.402344 C 31.460938 45.265625 31.398438 45.144531 31.300781 45.042969 C 31.195312 44.882812 31.105469 44.714844 31.023438 44.539062 C 31.222656 44.507812 31.414062 44.476562 31.601562 44.441406 Z M 31.601562 44.441406 "/>
<path style=" stroke:none;fill-rule:evenodd;fill:rgb(71.764706%,70.588235%,68.627451%);fill-opacity:1;" d="M 19.3125 43.988281 C 19.675781 43.964844 20.042969 43.957031 20.414062 43.964844 C 20.414062 44.15625 20.414062 44.347656 20.414062 44.539062 C 20.128906 44.539062 19.839844 44.539062 19.550781 44.539062 C 19.828125 44.515625 20.105469 44.507812 20.390625 44.515625 C 20.390625 44.339844 20.390625 44.164062 20.390625 43.988281 C 20.03125 43.988281 19.671875 43.988281 19.3125 43.988281 Z M 19.3125 43.988281 "/>
<path style=" stroke:none;fill-rule:evenodd;fill:rgb(92.54902%,90.980392%,88.235294%);fill-opacity:1;" d="M 30.449219 44.539062 C 30.558594 44.53125 30.667969 44.539062 30.773438 44.5625 C 30.886719 44.867188 31.035156 45.152344 31.21875 45.414062 C 30.992188 45.460938 30.765625 45.480469 30.542969 45.476562 C 30.59375 45.378906 30.605469 45.273438 30.582031 45.164062 C 30.542969 44.953125 30.5 44.746094 30.449219 44.539062 Z M 30.449219 44.539062 "/>
<path style=" stroke:none;fill-rule:evenodd;fill:rgb(37.647059%,36.470588%,35.686275%);fill-opacity:1;" d="M 28.816406 44.585938 C 28.609375 44.601562 28.402344 44.617188 28.191406 44.636719 C 28.179688 44.632812 28.171875 44.625 28.167969 44.609375 C 28.382812 44.585938 28.601562 44.578125 28.816406 44.585938 Z M 28.816406 44.585938 "/>
<path style=" stroke:none;fill-rule:evenodd;fill:rgb(92.941176%,91.372549%,88.627451%);fill-opacity:1;" d="M 28.816406 44.585938 C 28.9375 44.585938 29.058594 44.585938 29.175781 44.585938 C 29.234375 44.8125 29.289062 45.035156 29.34375 45.257812 C 29.078125 45.300781 28.816406 45.347656 28.550781 45.402344 C 28.40625 45.160156 28.289062 44.90625 28.191406 44.636719 C 28.402344 44.617188 28.609375 44.601562 28.816406 44.585938 Z M 28.816406 44.585938 "/>
<path style=" stroke:none;fill-rule:evenodd;fill:rgb(92.941176%,91.372549%,88.627451%);fill-opacity:1;" d="M 26.007812 44.585938 C 26.367188 44.582031 26.726562 44.585938 27.089844 44.597656 C 27.242188 44.90625 27.328125 45.230469 27.351562 45.570312 C 27.027344 45.597656 26.703125 45.621094 26.378906 45.644531 C 26.335938 45.636719 26.292969 45.628906 26.25 45.621094 C 26.046875 45.3125 25.9375 44.976562 25.914062 44.609375 C 25.949219 44.617188 25.984375 44.609375 26.007812 44.585938 Z M 26.007812 44.585938 "/>
<path style=" stroke:none;fill-rule:evenodd;fill:rgb(93.333333%,91.764706%,89.019608%);fill-opacity:1;" d="M 27.425781 44.609375 C 27.578125 44.609375 27.730469 44.609375 27.878906 44.609375 C 27.96875 44.902344 28.097656 45.171875 28.265625 45.425781 C 28.074219 45.460938 27.882812 45.484375 27.6875 45.5 C 27.644531 45.191406 27.554688 44.894531 27.425781 44.609375 Z M 27.425781 44.609375 "/>
<path style=" stroke:none;fill-rule:evenodd;fill:rgb(92.941176%,91.372549%,88.627451%);fill-opacity:1;" d="M 25.863281 45.621094 C 25.628906 45.644531 25.386719 45.652344 25.144531 45.644531 C 25.097656 45.644531 25.046875 45.644531 25 45.644531 C 24.921875 45.308594 24.847656 44.972656 24.785156 44.636719 C 25.054688 44.617188 25.328125 44.613281 25.601562 44.625 C 25.628906 44.972656 25.71875 45.304688 25.863281 45.621094 Z M 25.863281 45.621094 "/>
<path style=" stroke:none;fill-rule:evenodd;fill:rgb(93.72549%,92.156863%,89.411765%);fill-opacity:1;" d="M 22.359375 44.753906 C 22.523438 44.714844 22.691406 44.691406 22.863281 44.683594 C 23.023438 44.679688 23.183594 44.683594 23.34375 44.695312 C 23.488281 44.933594 23.597656 45.183594 23.667969 45.453125 C 23.714844 45.484375 23.765625 45.484375 23.8125 45.453125 C 23.847656 45.164062 23.777344 44.902344 23.609375 44.671875 C 23.902344 44.65625 24.199219 44.65625 24.496094 44.671875 C 24.5625 44.996094 24.625 45.316406 24.6875 45.644531 C 23.960938 45.625 23.230469 45.613281 22.503906 45.605469 C 22.550781 45.503906 22.5625 45.398438 22.539062 45.285156 C 22.492188 45.101562 22.429688 44.925781 22.359375 44.753906 Z M 22.359375 44.753906 "/>
<path style=" stroke:none;fill-rule:evenodd;fill:rgb(45.490196%,44.705882%,43.529412%);fill-opacity:1;" d="M 22.863281 44.683594 C 22.691406 44.691406 22.523438 44.714844 22.359375 44.753906 C 22.335938 44.738281 22.328125 44.714844 22.335938 44.683594 C 22.511719 44.683594 22.6875 44.683594 22.863281 44.683594 Z M 22.863281 44.683594 "/>
<path style=" stroke:none;fill-rule:evenodd;fill:rgb(93.72549%,92.156863%,89.411765%);fill-opacity:1;" d="M 20.558594 45.546875 C 20.152344 45.59375 19.734375 45.609375 19.3125 45.59375 C 19.3125 45.546875 19.3125 45.5 19.3125 45.453125 C 19.3125 45.21875 19.3125 44.988281 19.3125 44.753906 C 19.6875 44.734375 20.0625 44.726562 20.4375 44.730469 C 20.4375 45.011719 20.476562 45.28125 20.558594 45.546875 Z M 20.558594 45.546875 "/>
<path style=" stroke:none;fill-rule:evenodd;fill:rgb(92.54902%,91.372549%,88.627451%);fill-opacity:1;" d="M 21.136719 45.621094 C 21.027344 45.59375 20.917969 45.585938 20.800781 45.59375 C 20.804688 45.535156 20.796875 45.476562 20.773438 45.425781 C 20.742188 45.1875 20.71875 44.949219 20.703125 44.707031 C 21.148438 44.699219 21.59375 44.707031 22.035156 44.730469 C 22.148438 45.019531 22.238281 45.308594 22.3125 45.605469 C 21.917969 45.621094 21.527344 45.625 21.136719 45.621094 Z M 21.136719 45.621094 "/>
<path style=" stroke:none;fill-rule:evenodd;fill:rgb(41.568627%,40.784314%,39.607843%);fill-opacity:1;" d="M 13.117188 44.777344 C 13.183594 44.800781 13.257812 44.8125 13.335938 44.804688 C 13.257812 44.835938 13.175781 44.835938 13.09375 44.804688 C 13.097656 44.789062 13.105469 44.78125 13.117188 44.777344 Z M 13.117188 44.777344 "/>
<path style=" stroke:none;fill-rule:evenodd;fill:rgb(30.980392%,30.196078%,29.411765%);fill-opacity:1;" d="M 16.382812 44.730469 C 16.382812 44.753906 16.382812 44.777344 16.382812 44.804688 C 16.503906 44.804688 16.621094 44.804688 16.742188 44.804688 C 16.621094 44.828125 16.492188 44.835938 16.359375 44.828125 C 16.351562 44.789062 16.359375 44.757812 16.382812 44.730469 Z M 16.382812 44.730469 "/>
<path style=" stroke:none;fill-rule:evenodd;fill:rgb(93.333333%,91.764706%,89.019608%);fill-opacity:1;" d="M 18.808594 44.777344 C 18.894531 44.777344 18.984375 44.777344 19.070312 44.777344 C 19.050781 45.058594 19.042969 45.339844 19.046875 45.621094 C 18.679688 45.628906 18.3125 45.636719 17.941406 45.644531 C 17.941406 45.386719 17.941406 45.132812 17.941406 44.875 C 18.234375 44.847656 18.523438 44.816406 18.808594 44.777344 Z M 18.808594 44.777344 "/>
<path style=" stroke:none;fill-rule:evenodd;fill:rgb(31.764706%,30.588235%,30.196078%);fill-opacity:1;" d="M 10.117188 44.875 C 10.335938 44.898438 10.5625 44.90625 10.789062 44.898438 C 10.5625 44.929688 10.328125 44.929688 10.09375 44.898438 C 10.097656 44.882812 10.105469 44.875 10.117188 44.875 Z M 10.117188 44.875 "/>
<path style=" stroke:none;fill-rule:evenodd;fill:rgb(93.72549%,92.156863%,89.411765%);fill-opacity:1;" d="M 17.605469 44.921875 C 17.648438 44.921875 17.6875 44.921875 17.726562 44.921875 C 17.707031 45.171875 17.699219 45.417969 17.703125 45.667969 C 17.253906 45.699219 16.804688 45.738281 16.359375 45.789062 C 16.320312 45.78125 16.277344 45.769531 16.238281 45.761719 C 16.28125 45.515625 16.3125 45.269531 16.335938 45.019531 C 16.765625 45.019531 17.1875 44.988281 17.605469 44.921875 Z M 17.605469 44.921875 "/>
<path style=" stroke:none;fill-rule:evenodd;fill:rgb(93.72549%,92.156863%,89.411765%);fill-opacity:1;" d="M 14.511719 45.835938 C 14.417969 45.859375 14.324219 45.867188 14.222656 45.859375 C 13.75 45.839844 13.277344 45.824219 12.804688 45.8125 C 12.828125 45.539062 12.890625 45.28125 13 45.03125 C 13.105469 45.003906 13.21875 44.984375 13.335938 44.984375 C 13.78125 44.953125 14.230469 44.945312 14.679688 44.960938 C 14.554688 45.238281 14.5 45.53125 14.511719 45.835938 Z M 14.511719 45.835938 "/>
<path style=" stroke:none;fill-rule:evenodd;fill:rgb(93.333333%,91.764706%,89.019608%);fill-opacity:1;" d="M 15.351562 45.859375 C 15.105469 45.867188 14.867188 45.859375 14.628906 45.835938 C 14.765625 45.554688 14.871094 45.257812 14.941406 44.945312 C 15.324219 44.980469 15.710938 44.996094 16.09375 44.996094 C 16.03125 45.269531 16 45.550781 16 45.835938 C 15.78125 45.855469 15.566406 45.863281 15.351562 45.859375 Z M 15.351562 45.859375 "/>
<path style=" stroke:none;fill-rule:evenodd;fill:rgb(93.72549%,92.156863%,89.411765%);fill-opacity:1;" d="M 7.765625 45.066406 C 8.09375 45.160156 8.429688 45.1875 8.773438 45.152344 C 8.671875 45.335938 8.605469 45.53125 8.570312 45.738281 C 8.550781 45.832031 8.5625 45.917969 8.605469 46.003906 C 8.171875 46.027344 7.742188 46.035156 7.308594 46.027344 C 7.324219 45.9375 7.351562 45.847656 7.394531 45.761719 C 7.515625 45.53125 7.640625 45.300781 7.765625 45.066406 Z M 7.765625 45.066406 "/>
<path style=" stroke:none;fill-rule:evenodd;fill:rgb(93.333333%,91.764706%,89.019608%);fill-opacity:1;" d="M 9.039062 46.003906 C 8.9375 46.011719 8.839844 46.003906 8.75 45.980469 C 8.78125 45.683594 8.859375 45.40625 8.988281 45.140625 C 9.230469 45.109375 9.46875 45.105469 9.710938 45.128906 C 9.582031 45.324219 9.46875 45.527344 9.363281 45.738281 C 9.363281 45.859375 9.410156 45.882812 9.503906 45.8125 C 9.636719 45.574219 9.785156 45.34375 9.949219 45.128906 C 10.339844 45.109375 10.734375 45.109375 11.125 45.128906 C 11.035156 45.28125 10.945312 45.4375 10.863281 45.59375 C 10.925781 45.691406 10.996094 45.691406 11.066406 45.59375 C 11.183594 45.4375 11.289062 45.273438 11.390625 45.101562 C 11.832031 45.097656 12.269531 45.078125 12.710938 45.042969 C 12.621094 45.28125 12.574219 45.53125 12.566406 45.789062 C 12.15625 45.785156 11.75 45.789062 11.34375 45.800781 C 10.574219 45.875 9.804688 45.941406 9.039062 46.003906 Z M 9.039062 46.003906 "/>
<path style=" stroke:none;fill-rule:evenodd;fill:rgb(36.862745%,36.078431%,35.294118%);fill-opacity:1;" d="M 33.066406 45.210938 C 33.078125 45.210938 33.085938 45.21875 33.089844 45.234375 C 32.96875 45.257812 32.851562 45.265625 32.730469 45.257812 C 32.839844 45.242188 32.953125 45.226562 33.066406 45.210938 Z M 33.066406 45.210938 "/>
<path style=" stroke:none;fill-rule:evenodd;fill:rgb(59.215686%,58.039216%,56.470588%);fill-opacity:1;" d="M 19.3125 45.453125 C 19.3125 45.5 19.3125 45.546875 19.3125 45.59375 C 19.734375 45.609375 20.152344 45.59375 20.558594 45.546875 C 20.582031 45.5625 20.589844 45.589844 20.582031 45.621094 C 20.152344 45.621094 19.71875 45.621094 19.285156 45.621094 C 19.28125 45.558594 19.289062 45.5 19.3125 45.453125 Z M 19.3125 45.453125 "/>
<path style=" stroke:none;fill-rule:evenodd;fill:rgb(49.411765%,48.235294%,47.45098%);fill-opacity:1;" d="M 20.773438 45.425781 C 20.796875 45.476562 20.804688 45.535156 20.800781 45.59375 C 20.917969 45.585938 21.027344 45.59375 21.136719 45.621094 C 21.015625 45.621094 20.894531 45.621094 20.773438 45.621094 C 20.773438 45.554688 20.773438 45.492188 20.773438 45.425781 Z M 20.773438 45.425781 "/>
<path style=" stroke:none;fill-rule:evenodd;fill:rgb(31.372549%,30.980392%,29.803922%);fill-opacity:1;" d="M 25.863281 45.621094 C 25.878906 45.621094 25.886719 45.628906 25.886719 45.644531 C 25.636719 45.675781 25.386719 45.675781 25.144531 45.644531 C 25.386719 45.652344 25.628906 45.644531 25.863281 45.621094 Z M 25.863281 45.621094 "/>
<path style=" stroke:none;fill-rule:evenodd;fill:rgb(63.921569%,62.745098%,61.176471%);fill-opacity:1;" d="M 14.511719 45.835938 C 14.550781 45.867188 14.589844 45.867188 14.628906 45.835938 C 14.867188 45.859375 15.105469 45.867188 15.351562 45.859375 C 14.972656 45.890625 14.597656 45.890625 14.222656 45.859375 C 14.324219 45.867188 14.417969 45.859375 14.511719 45.835938 Z M 14.511719 45.835938 "/>
<path style=" stroke:none;fill-rule:evenodd;fill:rgb(42.745098%,41.960784%,40.784314%);fill-opacity:1;" d="M 17.582031 45.980469 C 17.605469 45.964844 17.632812 45.957031 17.667969 45.957031 C 17.707031 45.957031 17.734375 45.972656 17.75 46.003906 C 17.699219 45.984375 17.640625 45.972656 17.582031 45.980469 Z M 17.582031 45.980469 "/>
<path style=" stroke:none;fill-rule:evenodd;fill:rgb(48.235294%,47.058824%,45.882353%);fill-opacity:1;" d="M 8.75 45.980469 C 8.839844 46.003906 8.9375 46.011719 9.039062 46.003906 C 8.9375 46.035156 8.832031 46.035156 8.726562 46.003906 C 8.726562 45.988281 8.738281 45.980469 8.75 45.980469 Z M 8.75 45.980469 "/>
<path style=" stroke:none;fill-rule:evenodd;fill:rgb(94.117647%,92.54902%,89.803922%);fill-opacity:1;" d="M 36.136719 47.921875 C 36.140625 48.101562 36.148438 48.277344 36.160156 48.453125 C 35.660156 48.472656 35.15625 48.492188 34.648438 48.511719 C 33.320312 48.519531 31.992188 48.527344 30.664062 48.535156 C 30.121094 48.570312 29.578125 48.597656 29.03125 48.621094 C 28.382812 48.597656 27.734375 48.554688 27.089844 48.488281 C 23.039062 48.550781 18.992188 48.625 14.941406 48.703125 C 11.613281 48.71875 8.285156 48.714844 4.957031 48.691406 C 4.9375 48.429688 4.929688 48.164062 4.933594 47.898438 C 9.441406 47.902344 13.953125 47.898438 18.472656 47.886719 C 19.535156 47.828125 20.597656 47.773438 21.664062 47.71875 C 24.648438 47.710938 27.632812 47.703125 30.617188 47.695312 C 31.761719 47.632812 32.90625 47.648438 34.050781 47.742188 C 34.441406 47.8125 34.832031 47.875 35.226562 47.9375 C 35.53125 47.953125 35.835938 47.949219 36.136719 47.921875 Z M 36.136719 47.921875 "/>
<use xlink:href="#surface42" mask="url(#mask12)"/>
</g>
</svg>
