<?xml version="1.0" encoding="UTF-8"?>
<svg xmlns="http://www.w3.org/2000/svg" xmlns:xlink="http://www.w3.org/1999/xlink" width="50pt" height="50pt" viewBox="0 0 50 50" version="1.1">
<defs>
<filter id="alpha" filterUnits="objectBoundingBox" x="0%" y="0%" width="100%" height="100%">
  <feColorMatrix type="matrix" in="SourceGraphic" values="0 0 0 0 1 0 0 0 0 1 0 0 0 0 1 0 0 0 1 0"/>
</filter>
<mask id="mask0">
  <g filter="url(#alpha)">
<rect x="0" y="0" width="50" height="50" style="fill:rgb(0%,0%,0%);fill-opacity:0.972549;stroke:none;"/>
  </g>
</mask>
<clipPath id="clip1">
  <rect width="50" height="50"/>
</clipPath>
<g id="surface6" clip-path="url(#clip1)">
<path style=" stroke:none;fill-rule:evenodd;fill:rgb(0%,0%,0%);fill-opacity:1;" d="M 49.449219 12.117188 C 49.269531 14.59375 48.164062 16.539062 46.136719 17.945312 C 45.824219 18.171875 45.503906 18.390625 45.175781 18.59375 C 45.144531 18.59375 45.128906 18.609375 45.128906 18.640625 C 45.113281 18.640625 45.097656 18.640625 45.082031 18.640625 C 45.050781 18.640625 45.035156 18.65625 45.035156 18.691406 C 44.984375 18.683594 44.953125 18.699219 44.9375 18.738281 C 44.863281 18.734375 44.816406 18.765625 44.792969 18.832031 C 41.871094 20.179688 38.800781 20.972656 35.582031 21.210938 C 33.59375 21.382812 31.609375 21.359375 29.628906 21.136719 C 29.089844 21.082031 28.546875 21.027344 28 20.96875 C 28.328125 21.214844 28.664062 21.445312 29.007812 21.664062 C 29.246094 21.855469 29.488281 22.050781 29.726562 22.242188 C 30.1875 22.617188 30.667969 22.96875 31.167969 23.296875 C 31.671875 23.710938 32.203125 24.101562 32.75 24.472656 C 33.011719 24.925781 32.917969 25.277344 32.460938 25.527344 C 32.382812 25.550781 32.304688 25.558594 32.222656 25.550781 C 32.039062 25.5625 31.878906 25.507812 31.742188 25.382812 C 30.980469 24.804688 30.214844 24.234375 29.4375 23.679688 C 29.4375 23.648438 29.421875 23.632812 29.390625 23.632812 C 29.359375 23.617188 29.328125 23.601562 29.292969 23.585938 C 29.292969 23.550781 29.277344 23.535156 29.246094 23.535156 C 29.246094 23.503906 29.230469 23.488281 29.199219 23.488281 C 29.167969 23.472656 29.132812 23.457031 29.101562 23.441406 C 29.101562 23.410156 29.085938 23.390625 29.054688 23.390625 C 29.03125 23.324219 28.984375 23.292969 28.910156 23.296875 C 28.894531 23.25 28.863281 23.214844 28.816406 23.199219 C 28.234375 22.679688 27.613281 22.214844 26.945312 21.808594 C 26.46875 21.550781 26.140625 21.167969 25.960938 20.65625 C 25.898438 20.363281 25.945312 20.09375 26.105469 19.839844 C 26.238281 19.707031 26.375 19.570312 26.511719 19.433594 C 28.199219 18.183594 29.878906 16.917969 31.550781 15.644531 C 31.933594 15.402344 32.316406 15.164062 32.703125 14.921875 C 33.050781 14.789062 33.273438 14.902344 33.375 15.257812 C 33.253906 15.523438 33.078125 15.746094 32.84375 15.929688 C 31.222656 17.3125 29.558594 18.640625 27.855469 19.914062 C 28.25 19.988281 28.648438 20.042969 29.054688 20.082031 C 29.613281 20.152344 30.171875 20.183594 30.734375 20.175781 C 34.183594 20.25 37.574219 19.839844 40.90625 18.953125 C 42.742188 18.453125 44.40625 17.621094 45.898438 16.457031 C 46.734375 15.734375 47.367188 14.863281 47.792969 13.84375 C 47.984375 13.332031 48.089844 12.804688 48.105469 12.261719 C 48.183594 11.199219 48 10.175781 47.554688 9.1875 C 47.089844 8.230469 46.527344 7.332031 45.875 6.5 C 45.179688 5.695312 44.46875 4.902344 43.738281 4.125 C 43.710938 4.105469 43.675781 4.097656 43.640625 4.101562 C 43.195312 3.664062 43.195312 3.222656 43.640625 2.78125 C 43.851562 2.6875 44.058594 2.6875 44.265625 2.78125 C 45.785156 4.175781 47.089844 5.734375 48.175781 7.460938 C 49.027344 8.898438 49.449219 10.449219 49.449219 12.117188 Z M 49.449219 12.117188 "/>
</g>
<mask id="mask1">
  <g filter="url(#alpha)">
<rect x="0" y="0" width="50" height="50" style="fill:rgb(0%,0%,0%);fill-opacity:0.964706;stroke:none;"/>
  </g>
</mask>
<clipPath id="clip2">
  <rect width="50" height="50"/>
</clipPath>
<g id="surface9" clip-path="url(#clip2)">
<path style=" stroke:none;fill-rule:evenodd;fill:rgb(89.803922%,89.803922%,89.803922%);fill-opacity:1;" d="M 43.640625 4.101562 C 43.675781 4.097656 43.710938 4.105469 43.738281 4.125 C 44.46875 4.902344 45.179688 5.695312 45.875 6.5 C 46.527344 7.332031 47.089844 8.230469 47.554688 9.1875 C 48 10.175781 48.183594 11.199219 48.105469 12.261719 C 47.863281 11.058594 47.375 9.972656 46.640625 8.996094 C 46.324219 8.566406 45.988281 8.152344 45.632812 7.75 C 44.785156 6.902344 43.9375 6.054688 43.089844 5.207031 C 42.90625 4.839844 42.960938 4.511719 43.257812 4.222656 C 43.375 4.140625 43.5 4.101562 43.640625 4.101562 Z M 43.640625 4.101562 "/>
</g>
<mask id="mask2">
  <g filter="url(#alpha)">
<rect x="0" y="0" width="50" height="50" style="fill:rgb(0%,0%,0%);fill-opacity:0.968627;stroke:none;"/>
  </g>
</mask>
<clipPath id="clip3">
  <rect width="50" height="50"/>
</clipPath>
<g id="surface12" clip-path="url(#clip3)">
<path style=" stroke:none;fill-rule:evenodd;fill:rgb(90.588235%,90.588235%,90.588235%);fill-opacity:1;" d="M 49.449219 12.117188 C 49.871094 14.949219 48.976562 17.273438 46.761719 19.097656 C 44.976562 20.453125 42.992188 21.429688 40.8125 22.023438 C 37.664062 22.957031 34.449219 23.378906 31.167969 23.296875 C 30.667969 22.96875 30.1875 22.617188 29.726562 22.242188 C 33.347656 22.285156 36.898438 21.816406 40.378906 20.824219 C 41.953125 20.367188 43.425781 19.703125 44.792969 18.832031 C 44.867188 18.835938 44.914062 18.804688 44.9375 18.738281 C 44.984375 18.746094 45.015625 18.730469 45.035156 18.691406 C 45.066406 18.691406 45.082031 18.675781 45.082031 18.640625 C 45.097656 18.640625 45.113281 18.640625 45.128906 18.640625 C 45.160156 18.640625 45.175781 18.625 45.175781 18.59375 C 45.503906 18.390625 45.824219 18.171875 46.136719 17.945312 C 48.164062 16.539062 49.269531 14.59375 49.449219 12.117188 Z M 49.449219 12.117188 "/>
</g>
<mask id="mask3">
  <g filter="url(#alpha)">
<rect x="0" y="0" width="50" height="50" style="fill:rgb(0%,0%,0%);fill-opacity:0.972549;stroke:none;"/>
  </g>
</mask>
<clipPath id="clip4">
  <rect width="50" height="50"/>
</clipPath>
<g id="surface15" clip-path="url(#clip4)">
<path style=" stroke:none;fill-rule:evenodd;fill:rgb(0%,0%,0%);fill-opacity:1;" d="M 22.625 18.882812 C 22.082031 19.390625 21.554688 19.917969 21.042969 20.464844 C 20.011719 21.421875 19.003906 22.40625 18.019531 23.417969 C 17.632812 23.738281 17.25 24.054688 16.867188 24.375 C 16.664062 24.550781 16.4375 24.582031 16.195312 24.472656 C 16.003906 24.253906 16.011719 24.039062 16.21875 23.824219 C 16.425781 23.570312 16.632812 23.3125 16.84375 23.054688 C 17.613281 22.261719 18.371094 21.464844 19.121094 20.65625 C 19.152344 20.65625 19.167969 20.640625 19.167969 20.609375 C 19.207031 20.617188 19.238281 20.609375 19.265625 20.585938 C 19.628906 20.230469 19.980469 19.871094 20.320312 19.503906 C 20.386719 19.410156 20.464844 19.328125 20.5625 19.265625 C 20.722656 19.175781 20.867188 19.054688 20.992188 18.90625 C 20.617188 18.867188 20.25 18.875 19.890625 18.929688 C 15.824219 19.09375 11.90625 19.933594 8.132812 21.449219 C 6.601562 22.101562 5.210938 22.964844 3.957031 24.039062 C 2.925781 24.976562 2.230469 26.121094 1.871094 27.472656 C 1.824219 27.660156 1.796875 27.851562 1.800781 28.046875 C 1.757812 28.0625 1.742188 28.09375 1.75 28.144531 C 1.679688 29.503906 2 30.769531 2.710938 31.933594 C 3.371094 32.988281 4.171875 33.941406 5.109375 34.789062 C 5.898438 35.472656 6.6875 36.152344 7.484375 36.828125 C 7.683594 37.226562 7.628906 37.578125 7.316406 37.882812 C 7.105469 37.953125 6.898438 37.945312 6.695312 37.859375 C 5.011719 36.675781 3.535156 35.277344 2.253906 33.660156 C 2.007812 33.289062 1.757812 32.921875 1.511719 32.558594 C -0.390625 28.824219 0.214844 25.570312 3.335938 22.792969 C 5.015625 21.488281 6.871094 20.480469 8.902344 19.769531 C 11.863281 18.691406 14.917969 18.09375 18.066406 17.96875 C 18.941406 17.929688 19.820312 17.90625 20.707031 17.898438 C 19.910156 17.449219 19.109375 17.007812 18.304688 16.578125 C 18.304688 16.546875 18.289062 16.53125 18.257812 16.53125 C 18.242188 16.53125 18.226562 16.53125 18.210938 16.53125 C 18.210938 16.5 18.195312 16.484375 18.164062 16.484375 C 18.144531 16.484375 18.128906 16.484375 18.113281 16.484375 C 18.113281 16.449219 18.097656 16.433594 18.066406 16.433594 C 18.050781 16.433594 18.035156 16.433594 18.019531 16.433594 C 18.019531 16.402344 18.003906 16.386719 17.96875 16.386719 C 17.96875 16.355469 17.953125 16.339844 17.921875 16.339844 C 17.90625 16.339844 17.890625 16.339844 17.875 16.339844 C 17.875 16.308594 17.859375 16.289062 17.828125 16.289062 C 17.808594 16.289062 17.792969 16.289062 17.777344 16.289062 C 17.777344 16.257812 17.761719 16.242188 17.730469 16.242188 C 17.714844 16.203125 17.683594 16.1875 17.632812 16.195312 C 17.617188 16.15625 17.585938 16.136719 17.539062 16.148438 C 17.523438 16.105469 17.488281 16.089844 17.441406 16.097656 C 16.871094 15.730469 16.277344 15.386719 15.667969 15.066406 C 15.328125 14.851562 15.238281 14.558594 15.402344 14.179688 C 15.765625 13.773438 16.175781 13.734375 16.625 14.058594 C 18.46875 15.148438 20.324219 16.222656 22.191406 17.273438 C 22.554688 17.527344 22.761719 17.871094 22.816406 18.304688 C 22.796875 18.515625 22.734375 18.707031 22.625 18.882812 Z M 22.625 18.882812 "/>
</g>
<mask id="mask4">
  <g filter="url(#alpha)">
<rect x="0" y="0" width="50" height="50" style="fill:rgb(0%,0%,0%);fill-opacity:0.968627;stroke:none;"/>
  </g>
</mask>
<clipPath id="clip5">
  <rect width="50" height="50"/>
</clipPath>
<g id="surface18" clip-path="url(#clip5)">
<path style=" stroke:none;fill-rule:evenodd;fill:rgb(90.588235%,90.588235%,90.588235%);fill-opacity:1;" d="M 17.441406 16.097656 C 17.457031 16.140625 17.492188 16.15625 17.539062 16.148438 C 17.554688 16.1875 17.585938 16.203125 17.632812 16.195312 C 17.652344 16.234375 17.683594 16.25 17.730469 16.242188 C 17.761719 16.242188 17.777344 16.257812 17.777344 16.289062 C 17.792969 16.289062 17.808594 16.289062 17.828125 16.289062 C 17.859375 16.289062 17.875 16.308594 17.875 16.339844 C 17.890625 16.339844 17.90625 16.339844 17.921875 16.339844 C 17.953125 16.339844 17.96875 16.355469 17.96875 16.386719 C 18.003906 16.386719 18.019531 16.402344 18.019531 16.433594 C 18.035156 16.433594 18.050781 16.433594 18.066406 16.433594 C 18.097656 16.433594 18.113281 16.449219 18.113281 16.484375 C 18.128906 16.484375 18.144531 16.484375 18.164062 16.484375 C 18.195312 16.484375 18.210938 16.5 18.210938 16.53125 C 18.226562 16.53125 18.242188 16.53125 18.257812 16.53125 C 18.289062 16.53125 18.304688 16.546875 18.304688 16.578125 C 19.109375 17.007812 19.910156 17.449219 20.707031 17.898438 C 19.820312 17.90625 18.941406 17.929688 18.066406 17.96875 C 17.332031 17.554688 16.582031 17.164062 15.8125 16.792969 C 15.519531 16.488281 15.496094 16.160156 15.738281 15.8125 C 15.957031 15.632812 16.203125 15.574219 16.484375 15.644531 C 16.796875 15.808594 17.117188 15.960938 17.441406 16.097656 Z M 17.441406 16.097656 "/>
</g>
<mask id="mask5">
  <g filter="url(#alpha)">
<rect x="0" y="0" width="50" height="50" style="fill:rgb(0%,0%,0%);fill-opacity:0.945098;stroke:none;"/>
  </g>
</mask>
<clipPath id="clip6">
  <rect width="50" height="50"/>
</clipPath>
<g id="surface21" clip-path="url(#clip6)">
<path style=" stroke:none;fill-rule:evenodd;fill:rgb(90.588235%,90.588235%,90.588235%);fill-opacity:1;" d="M 30.734375 20.175781 C 30.171875 20.183594 29.613281 20.152344 29.054688 20.082031 C 30.300781 18.9375 31.613281 17.875 32.988281 16.890625 C 33.203125 16.785156 33.40625 16.808594 33.589844 16.960938 C 33.683594 17.121094 33.683594 17.28125 33.589844 17.441406 C 33.277344 17.800781 32.949219 18.144531 32.605469 18.472656 C 31.972656 19.035156 31.347656 19.601562 30.734375 20.175781 Z M 30.734375 20.175781 "/>
</g>
<mask id="mask6">
  <g filter="url(#alpha)">
<rect x="0" y="0" width="50" height="50" style="fill:rgb(0%,0%,0%);fill-opacity:0.917647;stroke:none;"/>
  </g>
</mask>
<clipPath id="clip7">
  <rect width="50" height="50"/>
</clipPath>
<g id="surface24" clip-path="url(#clip7)">
<path style=" stroke:none;fill-rule:evenodd;fill:rgb(88.235294%,88.235294%,88.235294%);fill-opacity:1;" d="M 19.890625 18.929688 C 20.25 18.875 20.617188 18.867188 20.992188 18.90625 C 20.867188 19.054688 20.722656 19.175781 20.5625 19.265625 C 20.351562 19.128906 20.128906 19.015625 19.890625 18.929688 Z M 19.890625 18.929688 "/>
</g>
<mask id="mask7">
  <g filter="url(#alpha)">
<rect x="0" y="0" width="50" height="50" style="fill:rgb(0%,0%,0%);fill-opacity:0.956863;stroke:none;"/>
  </g>
</mask>
<clipPath id="clip8">
  <rect width="50" height="50"/>
</clipPath>
<g id="surface27" clip-path="url(#clip8)">
<path style=" stroke:none;fill-rule:evenodd;fill:rgb(90.588235%,90.588235%,90.588235%);fill-opacity:1;" d="M 22.625 18.882812 C 23.234375 19.292969 23.355469 19.820312 22.984375 20.464844 C 21.316406 22.246094 19.628906 24.015625 17.921875 25.769531 C 17.730469 25.925781 17.539062 26.085938 17.347656 26.246094 C 16.882812 26.375 16.683594 26.207031 16.746094 25.742188 C 17.113281 25.234375 17.496094 24.738281 17.898438 24.257812 C 18.765625 23.3125 19.613281 22.351562 20.441406 21.378906 C 20.753906 21.066406 21.066406 20.753906 21.378906 20.441406 C 21.265625 20.441406 21.15625 20.449219 21.042969 20.464844 C 21.554688 19.917969 22.082031 19.390625 22.625 18.882812 Z M 22.625 18.882812 "/>
</g>
<mask id="mask8">
  <g filter="url(#alpha)">
<rect x="0" y="0" width="50" height="50" style="fill:rgb(0%,0%,0%);fill-opacity:0.964706;stroke:none;"/>
  </g>
</mask>
<clipPath id="clip9">
  <rect width="50" height="50"/>
</clipPath>
<g id="surface30" clip-path="url(#clip9)">
<path style=" stroke:none;fill-rule:evenodd;fill:rgb(90.588235%,90.588235%,90.588235%);fill-opacity:1;" d="M 20.320312 19.503906 C 19.980469 19.871094 19.628906 20.230469 19.265625 20.585938 C 19.238281 20.609375 19.207031 20.617188 19.167969 20.609375 C 19.136719 20.609375 19.121094 20.625 19.121094 20.65625 C 15.128906 21.109375 11.335938 22.234375 7.75 24.039062 C 6.472656 24.730469 5.328125 25.601562 4.320312 26.65625 C 3.414062 27.652344 2.851562 28.820312 2.640625 30.160156 C 2.597656 30.753906 2.621094 31.34375 2.710938 31.933594 C 2 30.769531 1.679688 29.503906 1.75 28.144531 C 1.792969 28.125 1.808594 28.09375 1.800781 28.046875 C 2.414062 26.75 3.277344 25.640625 4.390625 24.710938 C 6.324219 23.242188 8.453125 22.105469 10.773438 21.304688 C 13.863281 20.214844 17.046875 19.617188 20.320312 19.503906 Z M 20.320312 19.503906 "/>
</g>
<mask id="mask9">
  <g filter="url(#alpha)">
<rect x="0" y="0" width="50" height="50" style="fill:rgb(0%,0%,0%);fill-opacity:0.952941;stroke:none;"/>
  </g>
</mask>
<clipPath id="clip10">
  <rect width="50" height="50"/>
</clipPath>
<g id="surface33" clip-path="url(#clip10)">
<path style=" stroke:none;fill-rule:evenodd;fill:rgb(87.058824%,87.058824%,87.058824%);fill-opacity:1;" d="M 29.628906 21.136719 C 29.4375 21.328125 29.230469 21.503906 29.007812 21.664062 C 28.664062 21.445312 28.328125 21.214844 28 20.96875 C 28.546875 21.027344 29.089844 21.082031 29.628906 21.136719 Z M 29.628906 21.136719 "/>
</g>
<mask id="mask10">
  <g filter="url(#alpha)">
<rect x="0" y="0" width="50" height="50" style="fill:rgb(0%,0%,0%);fill-opacity:0.968627;stroke:none;"/>
  </g>
</mask>
<clipPath id="clip11">
  <rect width="50" height="50"/>
</clipPath>
<g id="surface36" clip-path="url(#clip11)">
<path style=" stroke:none;fill-rule:evenodd;fill:rgb(90.588235%,90.588235%,90.588235%);fill-opacity:1;" d="M 26.945312 21.808594 C 27.613281 22.214844 28.234375 22.679688 28.816406 23.199219 C 28.78125 23.195312 28.746094 23.203125 28.71875 23.222656 C 28.777344 23.261719 28.84375 23.285156 28.910156 23.296875 C 28.933594 23.363281 28.980469 23.394531 29.054688 23.390625 C 29.085938 23.390625 29.101562 23.410156 29.101562 23.441406 C 29.132812 23.457031 29.167969 23.472656 29.199219 23.488281 C 29.230469 23.488281 29.246094 23.503906 29.246094 23.535156 C 29.277344 23.535156 29.292969 23.550781 29.292969 23.585938 C 29.328125 23.601562 29.359375 23.617188 29.390625 23.632812 C 29.421875 23.632812 29.4375 23.648438 29.4375 23.679688 C 30.214844 24.234375 30.980469 24.804688 31.742188 25.382812 C 31.878906 25.507812 32.039062 25.5625 32.222656 25.550781 C 32.625 25.84375 33.042969 26.121094 33.46875 26.390625 C 33.738281 26.652344 33.78125 26.949219 33.589844 27.277344 C 33.28125 27.601562 32.9375 27.640625 32.558594 27.398438 C 30.855469 26.210938 29.128906 25.058594 27.375 23.945312 C 26.988281 23.683594 26.707031 23.339844 26.535156 22.914062 C 26.476562 22.46875 26.613281 22.101562 26.945312 21.808594 Z M 26.945312 21.808594 "/>
</g>
<mask id="mask11">
  <g filter="url(#alpha)">
<rect x="0" y="0" width="50" height="50" style="fill:rgb(0%,0%,0%);fill-opacity:0.960784;stroke:none;"/>
  </g>
</mask>
<clipPath id="clip12">
  <rect width="50" height="50"/>
</clipPath>
<g id="surface39" clip-path="url(#clip12)">
<path style=" stroke:none;fill-rule:evenodd;fill:rgb(90.196078%,90.196078%,90.196078%);fill-opacity:1;" d="M 1.511719 32.558594 C 1.757812 32.921875 2.007812 33.289062 2.253906 33.660156 C 3.535156 35.277344 5.011719 36.675781 6.695312 37.859375 C 6.898438 37.945312 7.105469 37.953125 7.316406 37.882812 C 7.738281 38.183594 8.15625 38.496094 8.566406 38.820312 C 8.878906 39.117188 8.933594 39.460938 8.734375 39.851562 C 8.496094 40.101562 8.214844 40.15625 7.894531 40.019531 C 6.335938 39.003906 4.917969 37.8125 3.648438 36.445312 C 2.636719 35.320312 1.925781 34.023438 1.511719 32.558594 Z M 1.511719 32.558594 "/>
</g>
</defs>
<g id="surface1">
<use xlink:href="#surface6" mask="url(#mask0)"/>
<use xlink:href="#surface9" mask="url(#mask1)"/>
<use xlink:href="#surface12" mask="url(#mask2)"/>
<use xlink:href="#surface15" mask="url(#mask3)"/>
<use xlink:href="#surface18" mask="url(#mask4)"/>
<use xlink:href="#surface21" mask="url(#mask5)"/>
<use xlink:href="#surface24" mask="url(#mask6)"/>
<use xlink:href="#surface27" mask="url(#mask7)"/>
<use xlink:href="#surface30" mask="url(#mask8)"/>
<use xlink:href="#surface33" mask="url(#mask9)"/>
<use xlink:href="#surface36" mask="url(#mask10)"/>
<use xlink:href="#surface39" mask="url(#mask11)"/>
</g>
</svg>
