<?xml version="1.0" encoding="UTF-8"?>
<svg xmlns="http://www.w3.org/2000/svg" xmlns:xlink="http://www.w3.org/1999/xlink" width="50pt" height="50pt" viewBox="0 0 50 50" version="1.1">
<defs>
<filter id="alpha" filterUnits="objectBoundingBox" x="0%" y="0%" width="100%" height="100%">
  <feColorMatrix type="matrix" in="SourceGraphic" values="0 0 0 0 1 0 0 0 0 1 0 0 0 0 1 0 0 0 1 0"/>
</filter>
<mask id="mask0">
  <g filter="url(#alpha)">
<rect x="0" y="0" width="50" height="50" style="fill:rgb(0%,0%,0%);fill-opacity:0.996078;stroke:none;"/>
  </g>
</mask>
<clipPath id="clip1">
  <rect width="50" height="50"/>
</clipPath>
<g id="surface6" clip-path="url(#clip1)">
<path style=" stroke:none;fill-rule:evenodd;fill:rgb(66.27451%,23.137255%,17.647059%);fill-opacity:1;" d="M 31.386719 0.78125 C 32.46875 0.707031 33.386719 1.058594 34.132812 1.835938 C 34.507812 2.304688 34.714844 2.84375 34.757812 3.445312 C 34.679688 8.171875 34.214844 12.859375 33.367188 17.511719 C 32.390625 22.746094 30.628906 27.699219 28.085938 32.371094 C 27.558594 33.324219 27.015625 34.269531 26.453125 35.203125 C 25.28125 37.074219 24.074219 38.925781 22.828125 40.746094 C 22.640625 41.003906 22.445312 41.257812 22.238281 41.503906 C 24.09375 41.597656 25.9375 41.46875 27.761719 41.117188 C 29.824219 40.714844 31.65625 39.839844 33.257812 38.503906 C 33.675781 38.125 34.066406 37.726562 34.433594 37.300781 C 35.351562 36.476562 36.382812 36.300781 37.53125 36.773438 C 38.683594 37.359375 39.367188 38.292969 39.582031 39.570312 C 39.679688 40.449219 39.453125 41.234375 38.910156 41.921875 C 36.78125 44.359375 34.144531 46.015625 31 46.878906 C 28.972656 47.417969 26.90625 47.714844 24.808594 47.769531 C 23.160156 47.816406 21.511719 47.789062 19.863281 47.695312 C 17.589844 47.546875 15.316406 47.386719 13.046875 47.214844 C 11.777344 47.074219 10.867188 46.429688 10.320312 45.285156 C 10.191406 44.976562 10.101562 44.65625 10.058594 44.324219 C 9.933594 42.710938 9.964844 41.105469 10.152344 39.5 C 10.464844 37.15625 10.769531 34.808594 11.066406 32.464844 C 11.242188 30.242188 11.410156 28.015625 11.570312 25.792969 C 11.722656 23.726562 11.945312 21.671875 12.242188 19.625 C 12.324219 18.914062 12.621094 18.316406 13.140625 17.835938 C 13.832031 17.328125 14.597656 17.152344 15.445312 17.308594 C 16.71875 17.554688 17.640625 18.253906 18.21875 19.40625 C 18.425781 19.898438 18.515625 20.410156 18.484375 20.941406 C 18.296875 22.277344 18.144531 23.613281 18.027344 24.953125 C 17.851562 27.449219 17.675781 29.945312 17.5 32.441406 C 17.429688 33.242188 17.34375 34.042969 17.234375 34.839844 C 17.082031 35.929688 16.929688 37.019531 16.777344 38.105469 C 17.492188 37.390625 18.117188 36.605469 18.652344 35.753906 C 19.6875 33.984375 20.734375 32.226562 21.796875 30.472656 C 23.722656 27.226562 25.179688 23.777344 26.164062 20.128906 C 27.058594 16.761719 27.65625 13.347656 27.964844 9.878906 C 28.152344 7.839844 28.28125 5.800781 28.347656 3.757812 C 28.5 2.25 29.304688 1.296875 30.761719 0.886719 C 30.972656 0.84375 31.179688 0.808594 31.386719 0.78125 Z M 31.386719 0.78125 "/>
</g>
</defs>
<g id="surface1">
<use xlink:href="#surface6" mask="url(#mask0)"/>
</g>
</svg>
