<?xml version="1.0" encoding="UTF-8"?>
<svg xmlns="http://www.w3.org/2000/svg" xmlns:xlink="http://www.w3.org/1999/xlink" width="50pt" height="50pt" viewBox="0 0 50 50" version="1.1">
<defs>
<filter id="alpha" filterUnits="objectBoundingBox" x="0%" y="0%" width="100%" height="100%">
  <feColorMatrix type="matrix" in="SourceGraphic" values="0 0 0 0 1 0 0 0 0 1 0 0 0 0 1 0 0 0 1 0"/>
</filter>
<mask id="mask0">
  <g filter="url(#alpha)">
<rect x="0" y="0" width="50" height="50" style="fill:rgb(0%,0%,0%);fill-opacity:0.917647;stroke:none;"/>
  </g>
</mask>
<clipPath id="clip1">
  <rect width="50" height="50"/>
</clipPath>
<g id="surface6" clip-path="url(#clip1)">
<path style=" stroke:none;fill-rule:evenodd;fill:rgb(1.960784%,1.960784%,1.960784%);fill-opacity:1;" d="M 25.9375 32.460938 C 25.78125 32.59375 25.628906 32.734375 25.480469 32.894531 C 24.984375 33.515625 24.488281 34.140625 23.992188 34.765625 C 22.703125 36.605469 21.441406 38.460938 20.203125 40.332031 C 18.15625 43.128906 15.957031 45.808594 13.605469 48.367188 C 13.273438 48.402344 13.183594 48.265625 13.339844 47.960938 C 15.8125 45.285156 18.097656 42.472656 20.203125 39.515625 C 21.238281 37.90625 22.308594 36.324219 23.417969 34.765625 C 24.09375 33.839844 24.804688 32.945312 25.550781 32.078125 C 25.90625 31.699219 26.265625 31.332031 26.632812 30.972656 C 26.808594 30.765625 26.945312 30.535156 27.039062 30.277344 C 26.828125 29.847656 26.523438 29.765625 26.128906 30.039062 C 25.996094 30.074219 25.875 30.050781 25.769531 29.964844 C 25.746094 29.847656 25.707031 29.734375 25.648438 29.628906 C 25.65625 29.597656 25.664062 29.566406 25.671875 29.535156 C 25.792969 29.636719 25.902344 29.636719 26.007812 29.535156 C 26.402344 28.632812 26.753906 27.722656 27.0625 26.800781 C 26.96875 26.832031 26.878906 26.882812 26.800781 26.945312 C 26.800781 27.273438 26.648438 27.382812 26.34375 27.277344 C 26.109375 27.410156 25.859375 27.503906 25.601562 27.566406 C 25.378906 27.566406 25.195312 27.484375 25.046875 27.328125 C 24.792969 26.871094 24.792969 26.40625 25.046875 25.9375 C 25.230469 25.675781 25.429688 25.425781 25.648438 25.191406 C 25.496094 25.058594 25.417969 24.890625 25.40625 24.6875 C 25.539062 24.089844 25.785156 23.546875 26.152344 23.054688 C 26.332031 22.808594 26.523438 22.566406 26.726562 22.335938 C 26.757812 22.257812 26.757812 22.175781 26.726562 22.097656 C 26.628906 22 26.535156 21.902344 26.441406 21.808594 C 26.402344 21.699219 26.410156 21.597656 26.464844 21.496094 C 26.304688 21.542969 26.136719 21.585938 25.960938 21.617188 C 25.769531 21.609375 25.628906 21.53125 25.527344 21.378906 C 24.933594 21.792969 24.503906 22.339844 24.230469 23.007812 C 23.800781 24.046875 23.480469 25.117188 23.273438 26.222656 C 22.957031 27.152344 22.390625 27.875 21.570312 28.382812 C 20.414062 29.273438 19.230469 30.128906 18.019531 30.949219 C 16.53125 31.828125 15.042969 32.710938 13.554688 33.589844 C 12.828125 34.085938 12.109375 34.589844 11.394531 35.101562 C 11.363281 35.101562 11.347656 35.117188 11.347656 35.148438 C 11.316406 35.164062 11.285156 35.179688 11.253906 35.195312 C 11.21875 35.195312 11.203125 35.210938 11.203125 35.246094 C 11.171875 35.246094 11.15625 35.261719 11.15625 35.292969 C 11.125 35.308594 11.09375 35.324219 11.058594 35.339844 C 11.027344 35.339844 11.011719 35.355469 11.011719 35.390625 C 10.980469 35.390625 10.964844 35.40625 10.964844 35.4375 C 10.949219 35.4375 10.933594 35.4375 10.917969 35.4375 C 10.882812 35.4375 10.867188 35.453125 10.867188 35.484375 C 10.835938 35.484375 10.820312 35.5 10.820312 35.53125 C 10.746094 35.527344 10.699219 35.5625 10.675781 35.628906 C 10.585938 35.640625 10.519531 35.6875 10.484375 35.773438 C 9.246094 36.617188 7.953125 37.375 6.597656 38.050781 C 6.238281 38.140625 6.109375 38.011719 6.214844 37.667969 C 7.007812 37.289062 7.773438 36.875 8.515625 36.421875 C 10.117188 35.332031 11.714844 34.246094 13.316406 33.15625 C 14.253906 32.59375 15.199219 32.042969 16.148438 31.5 C 17.933594 30.503906 19.613281 29.351562 21.183594 28.046875 C 21.484375 27.789062 21.792969 27.550781 22.121094 27.328125 C 22.421875 26.929688 22.664062 26.5 22.839844 26.03125 C 22.984375 25.425781 23.128906 24.816406 23.273438 24.207031 C 23.539062 23.355469 23.90625 22.554688 24.375 21.808594 C 24.667969 21.496094 24.976562 21.207031 25.3125 20.945312 C 25.3125 20.363281 25.496094 19.851562 25.863281 19.410156 C 26.332031 18.988281 26.75 18.523438 27.109375 18.019531 C 27.511719 17.621094 27.984375 17.339844 28.527344 17.179688 C 29.269531 17.078125 30.007812 16.933594 30.734375 16.746094 C 30.808594 16.6875 30.863281 16.617188 30.902344 16.53125 C 31.15625 15.730469 31.414062 14.929688 31.667969 14.132812 C 31.707031 14.039062 31.699219 13.949219 31.644531 13.867188 C 30.550781 13.488281 29.589844 12.898438 28.765625 12.09375 C 28.339844 11.652344 27.933594 11.195312 27.542969 10.722656 C 26.914062 9.671875 26.769531 8.550781 27.109375 7.367188 C 27.847656 5.441406 28.988281 3.800781 30.542969 2.445312 C 31.441406 1.832031 32.433594 1.433594 33.515625 1.246094 C 34.085938 1.128906 34.664062 1.054688 35.246094 1.03125 C 35.570312 1.023438 35.890625 1.066406 36.203125 1.152344 C 37.832031 1.753906 39.152344 2.753906 40.164062 4.152344 C 40.523438 4.832031 40.851562 5.527344 41.148438 6.238281 C 41.070312 6.359375 40.988281 6.476562 40.90625 6.597656 C 41.1875 7.960938 41.035156 9.269531 40.449219 10.53125 C 40.015625 11.574219 39.382812 12.476562 38.554688 13.242188 C 36.910156 14.355469 35.109375 14.699219 33.15625 14.277344 C 33.089844 14.277344 33.023438 14.292969 32.964844 14.324219 C 32.847656 14.769531 32.734375 15.214844 32.628906 15.667969 C 32.550781 15.972656 32.445312 16.269531 32.316406 16.554688 C 32.359375 16.59375 32.398438 16.632812 32.4375 16.675781 C 32.726562 16.257812 33.101562 15.945312 33.566406 15.738281 C 33.8125 15.632812 34.054688 15.648438 34.285156 15.785156 C 34.597656 16.097656 34.910156 16.410156 35.222656 16.722656 C 35.464844 17 35.675781 17.304688 35.84375 17.632812 C 36.011719 18.167969 35.996094 18.695312 35.796875 19.21875 C 34.671875 21.382812 33.488281 23.507812 32.246094 25.601562 C 31.640625 26.316406 30.960938 26.949219 30.207031 27.496094 C 29.019531 28.617188 27.941406 29.824219 26.96875 31.117188 C 26.953125 31.214844 26.933594 31.308594 26.917969 31.40625 C 26.5625 31.738281 26.234375 32.089844 25.9375 32.460938 Z M 34.71875 1.511719 C 35.617188 1.425781 36.449219 1.625 37.210938 2.109375 C 38.230469 2.714844 39.101562 3.488281 39.828125 4.4375 C 39.832031 4.613281 39.832031 4.789062 39.828125 4.964844 C 40.058594 5.0625 40.1875 5.238281 40.210938 5.496094 C 41.03125 8.359375 40.367188 10.816406 38.21875 12.859375 C 37.226562 13.617188 36.097656 13.992188 34.835938 13.988281 C 34.3125 13.957031 33.792969 13.902344 33.277344 13.820312 C 33.121094 13.769531 33.09375 13.679688 33.207031 13.554688 C 33.976562 13.578125 34.753906 13.554688 35.53125 13.484375 C 36.214844 13.347656 36.824219 13.0625 37.355469 12.621094 C 38.503906 11.628906 39.277344 10.40625 39.683594 8.949219 C 39.84375 7.761719 39.75 6.59375 39.394531 5.445312 C 39.335938 5.304688 39.253906 5.175781 39.15625 5.0625 C 38.535156 4.394531 37.871094 3.777344 37.164062 3.214844 C 35.746094 2.289062 34.226562 2.082031 32.605469 2.589844 C 31.9375 2.84375 31.347656 3.210938 30.832031 3.695312 C 29.828125 4.632812 29.085938 5.746094 28.597656 7.03125 C 28.082031 8.671875 28.386719 10.144531 29.511719 11.445312 C 30.171875 12.210938 30.964844 12.792969 31.886719 13.195312 C 31.949219 13.257812 31.949219 13.324219 31.886719 13.386719 C 31.324219 13.257812 30.796875 13.035156 30.300781 12.714844 C 29.113281 11.941406 28.191406 10.925781 27.542969 9.667969 C 27.277344 8.988281 27.261719 8.300781 27.496094 7.605469 C 28.207031 5.753906 29.304688 4.179688 30.78125 2.878906 C 31.574219 2.300781 32.453125 1.914062 33.421875 1.726562 C 33.859375 1.65625 34.292969 1.585938 34.71875 1.511719 Z M 37.980469 4.628906 C 37.863281 4.605469 37.75 4.566406 37.644531 4.511719 C 37.324219 4.441406 37.210938 4.558594 37.308594 4.871094 C 38.863281 5.515625 39.527344 6.683594 39.300781 8.375 C 39.210938 9.113281 38.96875 9.800781 38.578125 10.4375 C 38.144531 11.132812 37.625 11.765625 37.019531 12.332031 C 36.472656 12.761719 35.847656 13 35.148438 13.050781 C 32.363281 13.40625 30.339844 12.34375 29.078125 9.859375 C 28.765625 9.039062 28.734375 8.207031 28.984375 7.367188 C 29.675781 5.214844 31.078125 3.734375 33.179688 2.925781 C 35.144531 2.480469 36.746094 3.046875 37.980469 4.628906 Z M 32.222656 14.035156 C 32.355469 14.03125 32.453125 14.085938 32.507812 14.203125 C 32.328125 14.921875 32.128906 15.632812 31.910156 16.339844 C 31.761719 16.542969 31.578125 16.597656 31.359375 16.507812 C 31.640625 15.679688 31.929688 14.855469 32.222656 14.035156 Z M 34.238281 16.484375 C 33.917969 16.488281 33.597656 16.503906 33.277344 16.53125 C 33.460938 16.226562 33.714844 16.121094 34.046875 16.21875 C 34.140625 16.289062 34.203125 16.375 34.238281 16.484375 Z M 33.566406 16.960938 C 34.246094 16.84375 34.8125 17.035156 35.269531 17.539062 C 35.46875 17.878906 35.535156 18.246094 35.460938 18.640625 C 35.398438 18.886719 35.320312 19.128906 35.222656 19.363281 C 34.125 21.359375 33.003906 23.34375 31.863281 25.3125 C 31.644531 25.558594 31.429688 25.808594 31.214844 26.054688 C 29.847656 27.117188 28.625 28.324219 27.542969 29.679688 C 27.800781 28.472656 28.183594 27.304688 28.695312 26.175781 C 28.726562 26.09375 28.726562 26.015625 28.695312 25.9375 C 28.421875 25.84375 28.140625 25.761719 27.855469 25.695312 C 27.738281 25.789062 27.625 25.894531 27.519531 26.007812 C 26.851562 26.339844 26.203125 26.699219 25.574219 27.085938 C 25.410156 27.003906 25.339844 26.867188 25.359375 26.679688 C 25.367188 26.480469 25.425781 26.296875 25.527344 26.128906 C 26.183594 25.070312 27.023438 24.183594 28.046875 23.464844 C 28.660156 23.078125 29.300781 23.015625 29.964844 23.273438 C 30.269531 23.5625 30.4375 23.921875 30.46875 24.351562 C 30.578125 24.496094 30.710938 24.527344 30.878906 24.449219 C 30.960938 23.285156 30.417969 22.675781 29.246094 22.625 C 28.410156 22.730469 27.675781 23.058594 27.039062 23.609375 C 26.71875 23.863281 26.429688 24.152344 26.175781 24.472656 C 26.089844 24.511719 26.011719 24.503906 25.9375 24.449219 C 26.542969 23.015625 27.550781 21.96875 28.957031 21.304688 C 29.394531 21.066406 29.84375 21.035156 30.300781 21.210938 C 31.136719 21.5625 31.65625 22.179688 31.863281 23.054688 C 31.957031 23.210938 32.078125 23.234375 32.222656 23.128906 C 32.292969 23.066406 32.324219 22.984375 32.316406 22.890625 C 31.980469 21.574219 31.140625 20.816406 29.796875 20.609375 C 29.125 20.726562 28.492188 20.957031 27.902344 21.304688 C 27.667969 21.492188 27.417969 21.660156 27.160156 21.808594 C 26.988281 21.78125 26.90625 21.683594 26.917969 21.519531 C 27.199219 21.0625 27.542969 20.65625 27.949219 20.296875 C 28.316406 20.078125 28.667969 19.835938 29.007812 19.578125 C 29.875 19.105469 30.691406 19.1875 31.453125 19.816406 C 31.582031 19.992188 31.710938 20.167969 31.835938 20.34375 C 32.011719 20.394531 32.125 20.328125 32.171875 20.152344 C 31.867188 19.496094 31.355469 19.078125 30.636719 18.90625 C 30.054688 18.765625 29.496094 18.832031 28.957031 19.097656 C 28.535156 19.351562 28.132812 19.636719 27.757812 19.960938 C 27.667969 20.007812 27.574219 20.039062 27.472656 20.058594 C 27.355469 20.207031 27.210938 20.316406 27.039062 20.394531 C 26.769531 20.726562 26.441406 20.992188 26.054688 21.183594 C 25.789062 21.019531 25.691406 20.777344 25.769531 20.464844 C 25.867188 20.105469 26.042969 19.785156 26.296875 19.503906 C 26.648438 19.136719 27.015625 18.785156 27.398438 18.449219 C 27.570312 18.136719 27.816406 17.902344 28.144531 17.753906 C 28.976562 17.585938 29.804688 17.417969 30.636719 17.25 C 30.648438 17.472656 30.65625 17.695312 30.664062 17.921875 C 30.8125 18.046875 30.964844 18.046875 31.117188 17.921875 C 31.101562 17.699219 31.125 17.472656 31.191406 17.25 C 31.308594 17 31.445312 16.976562 31.597656 17.179688 C 31.824219 17.285156 32.023438 17.246094 32.199219 17.058594 C 32.269531 17.140625 32.320312 17.238281 32.339844 17.347656 C 32.390625 17.402344 32.445312 17.453125 32.507812 17.492188 C 32.648438 17.394531 32.757812 17.273438 32.84375 17.128906 C 33.09375 17.082031 33.332031 17.023438 33.566406 16.960938 Z M 25.550781 32.078125 C 24.207031 30.863281 22.882812 29.628906 21.570312 28.382812 C 22.390625 27.875 22.957031 27.152344 23.273438 26.222656 C 23.480469 25.117188 23.800781 24.046875 24.230469 23.007812 C 24.503906 22.339844 24.933594 21.792969 25.527344 21.378906 C 25.628906 21.53125 25.769531 21.609375 25.960938 21.617188 C 26.136719 21.585938 26.304688 21.542969 26.464844 21.496094 C 26.410156 21.597656 26.402344 21.699219 26.441406 21.808594 C 26.535156 21.902344 26.628906 22 26.726562 22.097656 C 26.757812 22.175781 26.757812 22.257812 26.726562 22.335938 C 26.523438 22.566406 26.332031 22.808594 26.152344 23.054688 C 25.785156 23.546875 25.539062 24.089844 25.40625 24.6875 C 25.417969 24.890625 25.496094 25.058594 25.648438 25.191406 C 25.429688 25.425781 25.230469 25.675781 25.046875 25.9375 C 24.792969 26.40625 24.792969 26.871094 25.046875 27.328125 C 25.195312 27.484375 25.378906 27.566406 25.601562 27.566406 C 25.859375 27.503906 26.109375 27.410156 26.34375 27.277344 C 26.648438 27.382812 26.800781 27.273438 26.800781 26.945312 C 26.878906 26.882812 26.96875 26.832031 27.0625 26.800781 C 26.753906 27.722656 26.402344 28.632812 26.007812 29.535156 C 25.902344 29.636719 25.792969 29.636719 25.671875 29.535156 C 25.664062 29.566406 25.65625 29.597656 25.648438 29.628906 C 25.707031 29.734375 25.746094 29.847656 25.769531 29.964844 C 25.875 30.050781 25.996094 30.074219 26.128906 30.039062 C 26.523438 29.765625 26.828125 29.847656 27.039062 30.277344 C 26.945312 30.535156 26.808594 30.765625 26.632812 30.972656 C 26.265625 31.332031 25.90625 31.699219 25.550781 32.078125 Z M 27.902344 26.367188 C 27.960938 26.355469 28.007812 26.371094 28.046875 26.414062 C 27.703125 27.402344 27.375 28.394531 27.0625 29.390625 C 26.90625 29.558594 26.738281 29.574219 26.558594 29.4375 C 26.902344 28.589844 27.246094 27.742188 27.589844 26.894531 C 27.65625 26.691406 27.757812 26.515625 27.902344 26.367188 Z M 10.820312 35.53125 C 10.796875 35.601562 10.75 35.632812 10.675781 35.628906 C 10.699219 35.5625 10.746094 35.527344 10.820312 35.53125 Z M 10.675781 35.628906 C 10.640625 35.714844 10.574219 35.761719 10.484375 35.773438 C 10.519531 35.6875 10.585938 35.640625 10.675781 35.628906 Z M 10.675781 35.628906 "/>
</g>
<mask id="mask1">
  <g filter="url(#alpha)">
<rect x="0" y="0" width="50" height="50" style="fill:rgb(0%,0%,0%);fill-opacity:0.901961;stroke:none;"/>
  </g>
</mask>
<clipPath id="clip2">
  <rect width="50" height="50"/>
</clipPath>
<g id="surface9" clip-path="url(#clip2)">
<path style=" stroke:none;fill-rule:evenodd;fill:rgb(64.705882%,22.352941%,17.254902%);fill-opacity:1;" d="M 21.183594 28.046875 C 19.613281 29.351562 17.933594 30.503906 16.148438 31.5 C 17.722656 30.253906 19.3125 29.023438 20.921875 27.808594 C 21.03125 27.863281 21.121094 27.941406 21.183594 28.046875 Z M 21.183594 28.046875 "/>
</g>
<mask id="mask2">
  <g filter="url(#alpha)">
<rect x="0" y="0" width="50" height="50" style="fill:rgb(0%,0%,0%);fill-opacity:0.992157;stroke:none;"/>
  </g>
</mask>
<clipPath id="clip3">
  <rect width="50" height="50"/>
</clipPath>
<g id="surface12" clip-path="url(#clip3)">
<path style=" stroke:none;fill-rule:evenodd;fill:rgb(66.27451%,22.745098%,17.647059%);fill-opacity:1;" d="M 21.570312 28.382812 C 22.882812 29.628906 24.207031 30.863281 25.550781 32.078125 C 24.804688 32.945312 24.09375 33.839844 23.417969 34.765625 C 22.308594 36.324219 21.238281 37.90625 20.203125 39.515625 C 18.097656 42.472656 15.8125 45.285156 13.339844 47.960938 C 13.183594 48.265625 13.273438 48.402344 13.605469 48.367188 C 15.957031 45.808594 18.15625 43.128906 20.203125 40.332031 C 21.441406 38.460938 22.703125 36.605469 23.992188 34.765625 C 24.488281 34.140625 24.984375 33.515625 25.480469 32.894531 C 25.628906 32.734375 25.78125 32.59375 25.9375 32.460938 C 26.066406 32.519531 26.121094 32.613281 26.105469 32.75 C 22.347656 38.292969 18.605469 43.839844 14.875 49.398438 C 14.59375 49.417969 14.332031 49.347656 14.082031 49.183594 C 13.5625 48.835938 13.066406 48.453125 12.597656 48.03125 C 11.042969 46.496094 9.582031 44.890625 8.207031 43.210938 C 7.257812 42.054688 6.335938 40.878906 5.445312 39.683594 C 7.132812 38.386719 8.8125 37.082031 10.484375 35.773438 C 10.574219 35.761719 10.640625 35.714844 10.675781 35.628906 C 10.75 35.632812 10.796875 35.601562 10.820312 35.53125 C 10.851562 35.53125 10.867188 35.515625 10.867188 35.484375 C 10.902344 35.484375 10.917969 35.46875 10.917969 35.4375 C 10.933594 35.4375 10.949219 35.4375 10.964844 35.4375 C 10.996094 35.4375 11.011719 35.421875 11.011719 35.390625 C 11.042969 35.390625 11.058594 35.371094 11.058594 35.339844 C 11.09375 35.324219 11.125 35.308594 11.15625 35.292969 C 11.1875 35.292969 11.203125 35.277344 11.203125 35.246094 C 11.238281 35.246094 11.253906 35.230469 11.253906 35.195312 C 11.285156 35.179688 11.316406 35.164062 11.347656 35.148438 C 11.378906 35.148438 11.394531 35.132812 11.394531 35.101562 C 12.109375 34.589844 12.828125 34.085938 13.554688 33.589844 C 15.042969 32.710938 16.53125 31.828125 18.019531 30.949219 C 19.230469 30.128906 20.414062 29.273438 21.570312 28.382812 Z M 21.570312 28.382812 "/>
</g>
</defs>
<g id="surface1">
<use xlink:href="#surface6" mask="url(#mask0)"/>
<path style=" stroke:none;fill-rule:evenodd;fill:rgb(69.411765%,68.627451%,66.666667%);fill-opacity:1;" d="M 32.414062 13.316406 C 32.800781 13.332031 32.847656 13.460938 32.558594 13.699219 C 32.304688 13.644531 32.257812 13.519531 32.414062 13.316406 Z M 32.414062 13.316406 "/>
<use xlink:href="#surface9" mask="url(#mask1)"/>
<use xlink:href="#surface12" mask="url(#mask2)"/>
</g>
</svg>
