<?xml version="1.0" encoding="UTF-8"?>
<svg xmlns="http://www.w3.org/2000/svg" xmlns:xlink="http://www.w3.org/1999/xlink" width="50pt" height="50pt" viewBox="0 0 50 50" version="1.1">
<defs>
<filter id="alpha" filterUnits="objectBoundingBox" x="0%" y="0%" width="100%" height="100%">
  <feColorMatrix type="matrix" in="SourceGraphic" values="0 0 0 0 1 0 0 0 0 1 0 0 0 0 1 0 0 0 1 0"/>
</filter>
<mask id="mask0">
  <g filter="url(#alpha)">
<rect x="0" y="0" width="50" height="50" style="fill:rgb(0%,0%,0%);fill-opacity:0.945098;stroke:none;"/>
  </g>
</mask>
<clipPath id="clip1">
  <rect width="50" height="50"/>
</clipPath>
<g id="surface6" clip-path="url(#clip1)">
<path style=" stroke:none;fill-rule:evenodd;fill:rgb(66.27451%,23.137255%,17.647059%);fill-opacity:1;" d="M 19.9375 0.503906 C 20.117188 0.484375 20.285156 0.515625 20.441406 0.601562 C 20.933594 1.332031 21.363281 2.097656 21.738281 2.902344 C 22.136719 4.015625 22.519531 5.136719 22.890625 6.261719 C 23.160156 6.980469 23.496094 7.671875 23.894531 8.324219 C 23.957031 8.777344 23.753906 8.976562 23.296875 8.925781 C 23.167969 8.890625 23.0625 8.820312 22.984375 8.710938 C 22.550781 7.957031 22.183594 7.171875 21.882812 6.359375 C 21.578125 5.429688 21.273438 4.503906 20.96875 3.574219 C 20.609375 2.730469 20.179688 1.929688 19.671875 1.175781 C 19.617188 0.890625 19.703125 0.667969 19.9375 0.503906 Z M 19.9375 0.503906 "/>
</g>
<mask id="mask1">
  <g filter="url(#alpha)">
<rect x="0" y="0" width="50" height="50" style="fill:rgb(0%,0%,0%);fill-opacity:0.945098;stroke:none;"/>
  </g>
</mask>
<clipPath id="clip2">
  <rect width="50" height="50"/>
</clipPath>
<g id="surface9" clip-path="url(#clip2)">
<path style=" stroke:none;fill-rule:evenodd;fill:rgb(66.27451%,23.137255%,17.647059%);fill-opacity:1;" d="M 39.324219 5.109375 C 39.617188 5.089844 39.90625 5.113281 40.1875 5.183594 C 40.359375 5.410156 40.375 5.648438 40.234375 5.902344 C 40.113281 5.972656 39.984375 6.027344 39.851562 6.070312 C 39.113281 7.828125 38.183594 9.464844 37.066406 10.988281 C 36.742188 11.121094 36.492188 11.03125 36.324219 10.722656 C 36.292969 10.574219 36.308594 10.433594 36.371094 10.292969 C 37.480469 8.746094 38.394531 7.082031 39.109375 5.300781 C 39.175781 5.226562 39.246094 5.164062 39.324219 5.109375 Z M 39.324219 5.109375 "/>
</g>
<mask id="mask2">
  <g filter="url(#alpha)">
<rect x="0" y="0" width="50" height="50" style="fill:rgb(0%,0%,0%);fill-opacity:0.941176;stroke:none;"/>
  </g>
</mask>
<clipPath id="clip3">
  <rect width="50" height="50"/>
</clipPath>
<g id="surface12" clip-path="url(#clip3)">
<path style=" stroke:none;fill-rule:evenodd;fill:rgb(66.27451%,23.137255%,17.647059%);fill-opacity:1;" d="M 6.644531 5.300781 C 6.777344 5.296875 6.90625 5.324219 7.03125 5.375 C 8.164062 6.539062 9.367188 7.628906 10.628906 8.636719 C 11.382812 9.308594 12.046875 10.054688 12.621094 10.867188 C 12.714844 11.394531 12.496094 11.625 11.972656 11.5625 C 11.464844 10.882812 10.90625 10.242188 10.292969 9.644531 C 9.332031 8.8125 8.375 7.980469 7.414062 7.148438 C 7.019531 6.773438 6.644531 6.378906 6.285156 5.972656 C 6.21875 5.644531 6.339844 5.421875 6.644531 5.300781 Z M 6.644531 5.300781 "/>
</g>
<mask id="mask3">
  <g filter="url(#alpha)">
<rect x="0" y="0" width="50" height="50" style="fill:rgb(0%,0%,0%);fill-opacity:0.964706;stroke:none;"/>
  </g>
</mask>
<clipPath id="clip4">
  <rect width="50" height="50"/>
</clipPath>
<g id="surface15" clip-path="url(#clip4)">
<path style=" stroke:none;fill-rule:evenodd;fill:rgb(66.27451%,23.137255%,17.647059%);fill-opacity:1;" d="M 24.640625 12.738281 C 27.167969 12.609375 29.515625 13.175781 31.695312 14.445312 C 34.269531 16.191406 35.683594 18.628906 35.941406 21.761719 C 35.980469 22.65625 35.964844 23.554688 35.890625 24.449219 C 35.769531 25.4375 35.65625 26.429688 35.554688 27.421875 C 35.433594 28.304688 35.160156 29.136719 34.742188 29.917969 C 34.148438 30.816406 33.605469 31.742188 33.109375 32.703125 C 32.78125 33.285156 32.324219 33.742188 31.742188 34.070312 C 31.390625 34.230469 31.039062 34.390625 30.6875 34.550781 C 30.261719 34.914062 29.800781 35.214844 29.292969 35.460938 C 27.941406 35.992188 26.597656 36.554688 25.265625 37.140625 C 23.578125 38.066406 22.082031 39.242188 20.777344 40.667969 C 20.453125 41.070312 20.152344 41.484375 19.867188 41.914062 C 19.265625 42.988281 18.691406 44.074219 18.136719 45.175781 C 17.5625 46.34375 16.785156 47.363281 15.8125 48.222656 C 14.75 49.09375 13.535156 49.496094 12.164062 49.425781 C 10.355469 49.148438 9.257812 48.117188 8.878906 46.328125 C 8.734375 45.257812 8.859375 44.21875 9.261719 43.210938 C 9.476562 42.6875 9.714844 42.175781 9.980469 41.675781 C 10.777344 40.386719 11.558594 39.089844 12.332031 37.789062 C 12.410156 37.644531 12.523438 37.53125 12.667969 37.453125 C 12.988281 36.207031 13.292969 34.960938 13.578125 33.710938 C 13.789062 32.289062 13.957031 30.867188 14.082031 29.4375 C 14.050781 28.859375 13.996094 28.285156 13.914062 27.710938 C 13.652344 26.484375 13.410156 25.253906 13.195312 24.015625 C 12.890625 22.046875 13.242188 20.210938 14.25 18.5 C 15.453125 16.546875 17.089844 15.082031 19.167969 14.109375 C 20.914062 13.320312 22.738281 12.863281 24.640625 12.738281 Z M 25.214844 13.746094 C 26.757812 13.714844 28.179688 14.105469 29.488281 14.921875 C 31.105469 15.949219 32.457031 17.253906 33.542969 18.832031 C 34.589844 20.730469 35.003906 22.761719 34.789062 24.929688 C 34.214844 28.390625 32.652344 31.308594 30.109375 33.683594 C 29.117188 34.140625 28.140625 34.636719 27.183594 35.171875 C 26.46875 35.464844 25.765625 35.785156 25.070312 36.132812 C 24.582031 36.308594 24.085938 36.457031 23.585938 36.589844 C 23.550781 36.46875 23.519531 36.347656 23.488281 36.226562 C 25.730469 34.378906 27.335938 32.082031 28.3125 29.34375 C 28.445312 28.816406 28.460938 28.289062 28.359375 27.757812 C 28.027344 26.867188 27.394531 26.523438 26.464844 26.726562 C 25.742188 27 25.09375 27.394531 24.519531 27.902344 C 24.535156 26.832031 24.25 25.855469 23.65625 24.976562 C 22.773438 23.972656 21.722656 23.757812 20.511719 24.328125 C 19.769531 24.832031 19.21875 25.496094 18.859375 26.320312 C 18.519531 27.171875 18.28125 28.050781 18.136719 28.957031 C 17.707031 31.699219 17.347656 34.453125 17.058594 37.210938 C 16.957031 37.21875 16.859375 37.195312 16.769531 37.140625 C 16.109375 36.695312 15.402344 36.328125 14.660156 36.035156 C 14.53125 36.007812 14.402344 35.984375 14.277344 35.964844 C 14.34375 35.324219 14.414062 34.683594 14.492188 34.046875 C 14.804688 32.847656 15.011719 31.632812 15.113281 30.398438 C 15.148438 29.757812 15.125 29.117188 15.042969 28.480469 C 15.097656 27.808594 15.105469 27.136719 15.066406 26.464844 C 14.949219 25.503906 14.84375 24.546875 14.753906 23.585938 C 14.785156 22.320312 14.9375 21.074219 15.210938 19.839844 C 15.523438 18.730469 16.105469 17.796875 16.960938 17.035156 C 18.167969 16.070312 19.464844 15.238281 20.847656 14.539062 C 21.320312 14.367188 21.800781 14.222656 22.289062 14.109375 C 23.269531 13.957031 24.242188 13.835938 25.214844 13.746094 Z M 21.425781 24.976562 C 21.933594 24.910156 22.378906 25.039062 22.769531 25.359375 C 22.214844 25.578125 21.789062 25.945312 21.496094 26.464844 C 20.699219 27.917969 20.378906 29.46875 20.539062 31.117188 C 20.621094 31.707031 20.882812 32.195312 21.328125 32.582031 C 21.894531 32.890625 22.4375 32.859375 22.960938 32.484375 C 23.5625 31.835938 23.96875 31.074219 24.183594 30.207031 C 24.277344 29.839844 24.355469 29.472656 24.425781 29.101562 C 24.980469 28.691406 25.546875 28.300781 26.128906 27.925781 C 26.375 27.789062 26.640625 27.703125 26.917969 27.664062 C 27.230469 27.671875 27.40625 27.832031 27.445312 28.144531 C 27.507812 28.871094 27.363281 29.558594 27.015625 30.207031 C 25.914062 32.347656 24.433594 34.195312 22.578125 35.75 C 21.742188 36.550781 20.941406 37.382812 20.175781 38.242188 C 19.449219 38.015625 18.714844 37.796875 17.96875 37.597656 C 18.292969 34.3125 18.765625 31.046875 19.386719 27.808594 C 19.558594 27.097656 19.84375 26.441406 20.25 25.839844 C 20.554688 25.429688 20.949219 25.140625 21.425781 24.976562 Z M 22.863281 26.367188 C 23.101562 26.34375 23.269531 26.441406 23.367188 26.65625 C 23.359375 27.046875 23.335938 27.4375 23.296875 27.832031 C 23.292969 28.148438 23.355469 28.453125 23.488281 28.742188 C 23.386719 29.710938 23.09375 30.617188 22.601562 31.453125 C 22.476562 31.636719 22.308594 31.746094 22.097656 31.789062 C 21.945312 31.78125 21.828125 31.71875 21.738281 31.597656 C 21.5 31.207031 21.394531 30.785156 21.425781 30.328125 C 21.484375 29.113281 21.796875 27.972656 22.359375 26.894531 C 22.507812 26.695312 22.675781 26.519531 22.863281 26.367188 Z M 13.84375 36.683594 C 13.914062 36.730469 13.976562 36.785156 14.035156 36.851562 C 14.859375 37.078125 15.609375 37.449219 16.289062 37.957031 C 16.488281 38.070312 16.695312 38.160156 16.914062 38.21875 C 16.953125 38.757812 17.226562 38.910156 17.730469 38.675781 C 17.765625 38.617188 17.804688 38.558594 17.851562 38.507812 C 18.40625 38.699219 18.957031 38.898438 19.503906 39.109375 C 19.222656 39.4375 18.960938 39.78125 18.714844 40.140625 C 18.703125 40.238281 18.679688 40.335938 18.640625 40.425781 C 16.835938 39.765625 15.140625 38.902344 13.554688 37.835938 C 13.683594 37.460938 13.777344 37.074219 13.84375 36.683594 Z M 22.050781 38.125 C 22.105469 37.960938 22.21875 37.890625 22.386719 37.90625 C 22.277344 37.992188 22.164062 38.0625 22.050781 38.125 Z M 13.21875 38.84375 C 14.757812 39.871094 16.40625 40.691406 18.164062 41.316406 C 17.617188 41.949219 17.160156 42.644531 16.792969 43.402344 C 16.507812 44.292969 16.234375 45.1875 15.980469 46.089844 C 15.84375 46.414062 15.644531 46.695312 15.378906 46.929688 C 15.070312 47.070312 14.75 47.179688 14.417969 47.265625 C 13.980469 47.492188 13.546875 47.734375 13.125 47.984375 C 12.0625 48.300781 11.128906 48.085938 10.316406 47.335938 C 9.886719 46.765625 9.726562 46.125 9.835938 45.417969 C 9.996094 44.359375 10.347656 43.367188 10.890625 42.441406 C 11.039062 42.496094 11.191406 42.503906 11.347656 42.464844 C 12.207031 41.382812 12.828125 40.175781 13.21875 38.84375 Z M 13.21875 38.84375 "/>
</g>
<mask id="mask4">
  <g filter="url(#alpha)">
<rect x="0" y="0" width="50" height="50" style="fill:rgb(0%,0%,0%);fill-opacity:0.956863;stroke:none;"/>
  </g>
</mask>
<clipPath id="clip5">
  <rect width="50" height="50"/>
</clipPath>
<g id="surface18" clip-path="url(#clip5)">
<path style=" stroke:none;fill-rule:evenodd;fill:rgb(66.27451%,23.137255%,17.647059%);fill-opacity:1;" d="M 46.90625 23.679688 C 47.441406 23.601562 47.65625 23.824219 47.554688 24.351562 C 47.511719 24.457031 47.441406 24.527344 47.335938 24.566406 C 47.070312 24.652344 46.796875 24.714844 46.519531 24.761719 C 44.902344 24.929688 43.277344 25.066406 41.652344 25.167969 C 41.257812 25.148438 40.867188 25.125 40.476562 25.097656 C 40.152344 24.972656 40.050781 24.738281 40.164062 24.398438 C 40.203125 24.296875 40.273438 24.222656 40.378906 24.183594 C 41.242188 24.230469 42.105469 24.214844 42.96875 24.136719 C 44.007812 24.019531 45.046875 23.921875 46.089844 23.847656 C 46.375 23.832031 46.648438 23.773438 46.90625 23.679688 Z M 46.90625 23.679688 "/>
</g>
</defs>
<g id="surface1">
<use xlink:href="#surface6" mask="url(#mask0)"/>
<use xlink:href="#surface9" mask="url(#mask1)"/>
<use xlink:href="#surface12" mask="url(#mask2)"/>
<use xlink:href="#surface15" mask="url(#mask3)"/>
<use xlink:href="#surface18" mask="url(#mask4)"/>
</g>
</svg>
