<?xml version="1.0" encoding="UTF-8"?>
<svg xmlns="http://www.w3.org/2000/svg" xmlns:xlink="http://www.w3.org/1999/xlink" width="50pt" height="50pt" viewBox="0 0 50 50" version="1.1">
<defs>
<filter id="alpha" filterUnits="objectBoundingBox" x="0%" y="0%" width="100%" height="100%">
  <feColorMatrix type="matrix" in="SourceGraphic" values="0 0 0 0 1 0 0 0 0 1 0 0 0 0 1 0 0 0 1 0"/>
</filter>
<mask id="mask0">
  <g filter="url(#alpha)">
<rect x="0" y="0" width="50" height="50" style="fill:rgb(0%,0%,0%);fill-opacity:0.960784;stroke:none;"/>
  </g>
</mask>
<clipPath id="clip1">
  <rect width="50" height="50"/>
</clipPath>
<g id="surface6" clip-path="url(#clip1)">
<path style=" stroke:none;fill-rule:evenodd;fill:rgb(0%,0%,0%);fill-opacity:1;" d="M 47.671875 17.394531 C 48.15625 17.332031 48.414062 17.539062 48.441406 18.019531 C 48.449219 18.175781 48.410156 18.320312 48.320312 18.449219 C 47.089844 19.375 46.003906 20.449219 45.058594 21.664062 C 44.4375 22.300781 43.808594 22.914062 43.164062 23.511719 C 42.652344 23.921875 42.074219 24.066406 41.433594 23.945312 C 41.140625 23.835938 40.871094 23.695312 40.617188 23.511719 C 40.242188 23.152344 39.882812 22.773438 39.539062 22.386719 C 39.066406 22.859375 38.609375 23.347656 38.171875 23.847656 C 37.898438 24.113281 37.578125 24.304688 37.210938 24.425781 C 36.71875 24.527344 36.269531 24.429688 35.867188 24.136719 C 35.714844 23.984375 35.566406 23.832031 35.414062 23.679688 C 34.695312 22.425781 33.945312 21.191406 33.15625 19.984375 C 32.996094 19.664062 32.835938 19.347656 32.675781 19.027344 C 32.507812 18.71875 32.472656 18.398438 32.582031 18.066406 C 32.933594 17.746094 33.289062 17.746094 33.636719 18.066406 C 34.0625 19.15625 34.621094 20.160156 35.316406 21.089844 C 35.660156 21.796875 36.066406 22.460938 36.539062 23.082031 C 36.632812 23.15625 36.738281 23.210938 36.851562 23.25 C 36.941406 23.214844 37.03125 23.175781 37.117188 23.128906 C 37.675781 22.582031 38.222656 22.023438 38.746094 21.449219 C 38.273438 20.960938 37.785156 20.488281 37.285156 20.035156 C 36.816406 19.566406 36.382812 19.070312 35.988281 18.546875 C 35.695312 17.984375 35.863281 17.648438 36.492188 17.539062 C 36.652344 17.550781 36.796875 17.609375 36.925781 17.707031 C 37.132812 17.992188 37.351562 18.269531 37.570312 18.546875 C 38.242188 19.21875 38.914062 19.890625 39.585938 20.5625 C 40.429688 19.734375 41.285156 18.929688 42.15625 18.136719 C 42.347656 18.011719 42.539062 17.882812 42.730469 17.753906 C 43.378906 17.746094 43.609375 18.058594 43.425781 18.691406 C 42.367188 19.554688 41.367188 20.492188 40.425781 21.496094 C 40.765625 21.980469 41.179688 22.378906 41.675781 22.695312 C 41.878906 22.742188 42.070312 22.710938 42.25 22.601562 C 42.8125 22.183594 43.332031 21.710938 43.808594 21.183594 C 44.566406 20.253906 45.371094 19.367188 46.234375 18.523438 C 46.707031 18.132812 47.1875 17.757812 47.671875 17.394531 Z M 47.671875 17.394531 "/>
</g>
<mask id="mask1">
  <g filter="url(#alpha)">
<rect x="0" y="0" width="50" height="50" style="fill:rgb(0%,0%,0%);fill-opacity:0.960784;stroke:none;"/>
  </g>
</mask>
<clipPath id="clip2">
  <rect width="50" height="50"/>
</clipPath>
<g id="surface9" clip-path="url(#clip2)">
<path style=" stroke:none;fill-rule:evenodd;fill:rgb(0%,0%,0%);fill-opacity:1;" d="M 10.003906 17.539062 C 10.402344 17.441406 10.699219 17.570312 10.890625 17.921875 C 10.925781 18.066406 10.925781 18.210938 10.890625 18.355469 C 10.636719 18.625 10.398438 18.914062 10.171875 19.21875 C 9.527344 20.277344 8.910156 21.359375 8.324219 22.457031 C 8.667969 23.023438 9.082031 23.535156 9.574219 23.992188 C 10.035156 24.355469 10.480469 24.335938 10.917969 23.945312 C 12.515625 22.152344 14.117188 20.363281 15.714844 18.570312 C 16.023438 18.355469 16.359375 18.292969 16.722656 18.378906 C 17.082031 18.714844 17.097656 19.066406 16.769531 19.433594 C 16.558594 19.492188 16.375 19.597656 16.21875 19.746094 C 16.074219 19.953125 15.929688 20.160156 15.785156 20.371094 C 14.660156 21.554688 13.585938 22.789062 12.570312 24.0625 C 12.207031 24.460938 11.816406 24.820312 11.394531 25.144531 C 10.460938 25.675781 9.582031 25.597656 8.757812 24.902344 C 8.332031 24.519531 7.953125 24.097656 7.628906 23.632812 C 7.265625 24.25 6.914062 24.871094 6.574219 25.503906 C 5.710938 26.71875 4.847656 26.71875 3.984375 25.503906 C 3.722656 24.96875 3.449219 24.441406 3.167969 23.921875 C 2.703125 23.234375 2.238281 22.542969 1.777344 21.855469 C 1.648438 21.621094 1.539062 21.382812 1.441406 21.136719 C 1.449219 20.585938 1.726562 20.335938 2.277344 20.394531 C 2.363281 20.429688 2.4375 20.488281 2.496094 20.5625 C 2.652344 20.894531 2.828125 21.214844 3.023438 21.519531 C 3.800781 22.53125 4.457031 23.617188 4.992188 24.785156 C 5.074219 24.949219 5.195312 25.050781 5.351562 25.097656 C 5.867188 24.285156 6.347656 23.457031 6.789062 22.601562 C 6.363281 22.109375 5.96875 21.589844 5.613281 21.042969 C 5.429688 20.546875 5.1875 20.082031 4.894531 19.648438 C 4.835938 19.035156 5.117188 18.789062 5.734375 18.90625 C 5.964844 19.011719 6.132812 19.179688 6.238281 19.410156 C 6.460938 19.859375 6.6875 20.308594 6.910156 20.753906 C 7.066406 21 7.25 21.222656 7.460938 21.425781 C 8.109375 20.242188 8.804688 19.089844 9.550781 17.96875 C 9.695312 17.816406 9.847656 17.671875 10.003906 17.539062 Z M 10.003906 17.539062 "/>
</g>
<mask id="mask2">
  <g filter="url(#alpha)">
<rect x="0" y="0" width="50" height="50" style="fill:rgb(0%,0%,0%);fill-opacity:0.960784;stroke:none;"/>
  </g>
</mask>
<clipPath id="clip3">
  <rect width="50" height="50"/>
</clipPath>
<g id="surface12" clip-path="url(#clip3)">
<path style=" stroke:none;fill-rule:evenodd;fill:rgb(0%,0%,0%);fill-opacity:1;" d="M 30.207031 18.164062 C 30.695312 18.109375 30.984375 18.328125 31.070312 18.808594 C 31.03125 18.953125 30.976562 19.089844 30.902344 19.21875 C 30.242188 20.148438 29.605469 21.09375 28.984375 22.050781 C 28.597656 22.5625 28.214844 23.074219 27.832031 23.585938 C 27.433594 24.0625 26.945312 24.40625 26.367188 24.617188 C 25.867188 24.695312 25.402344 24.597656 24.976562 24.328125 C 24.367188 23.894531 23.796875 23.40625 23.273438 22.863281 C 22.9375 23.429688 22.5625 23.964844 22.144531 24.472656 C 21.835938 24.699219 21.5 24.746094 21.136719 24.617188 C 20.601562 24.238281 20.160156 23.765625 19.816406 23.199219 C 19.28125 22.367188 18.832031 21.488281 18.472656 20.5625 C 18.386719 19.832031 18.699219 19.570312 19.410156 19.769531 C 19.601562 20.019531 19.734375 20.300781 19.816406 20.609375 C 20.261719 21.578125 20.8125 22.476562 21.472656 23.296875 C 21.832031 22.855469 22.152344 22.382812 22.433594 21.882812 C 21.910156 21.214844 21.40625 20.535156 20.921875 19.839844 C 20.757812 19.238281 20.988281 18.941406 21.617188 18.953125 C 21.699219 18.976562 21.78125 19.007812 21.855469 19.050781 C 22.265625 19.585938 22.671875 20.121094 23.082031 20.65625 C 23.246094 20.320312 23.410156 19.996094 23.585938 19.671875 C 23.945312 19.472656 24.257812 19.527344 24.519531 19.839844 C 24.585938 20.011719 24.605469 20.1875 24.566406 20.371094 C 24.390625 20.835938 24.175781 21.285156 23.921875 21.714844 C 24.429688 22.3125 25.007812 22.832031 25.648438 23.273438 C 25.769531 23.34375 25.898438 23.398438 26.03125 23.441406 C 26.164062 23.398438 26.292969 23.34375 26.414062 23.273438 C 27.039062 22.601562 27.605469 21.890625 28.117188 21.136719 C 28.59375 20.425781 29.058594 19.707031 29.511719 18.976562 C 29.71875 18.679688 29.953125 18.410156 30.207031 18.164062 Z M 30.207031 18.164062 "/>
</g>
</defs>
<g id="surface1">
<use xlink:href="#surface6" mask="url(#mask0)"/>
<use xlink:href="#surface9" mask="url(#mask1)"/>
<use xlink:href="#surface12" mask="url(#mask2)"/>
</g>
</svg>
