<?xml version="1.0" encoding="UTF-8"?>
<svg xmlns="http://www.w3.org/2000/svg" xmlns:xlink="http://www.w3.org/1999/xlink" width="50pt" height="50pt" viewBox="0 0 50 50" version="1.1">
<defs>
<filter id="alpha" filterUnits="objectBoundingBox" x="0%" y="0%" width="100%" height="100%">
  <feColorMatrix type="matrix" in="SourceGraphic" values="0 0 0 0 1 0 0 0 0 1 0 0 0 0 1 0 0 0 1 0"/>
</filter>
<mask id="mask0">
  <g filter="url(#alpha)">
<rect x="0" y="0" width="50" height="50" style="fill:rgb(0%,0%,0%);fill-opacity:0.996078;stroke:none;"/>
  </g>
</mask>
<clipPath id="clip1">
  <rect width="50" height="50"/>
</clipPath>
<g id="surface6" clip-path="url(#clip1)">
<path style=" stroke:none;fill-rule:evenodd;fill:rgb(66.666667%,23.137255%,18.039216%);fill-opacity:1;" d="M 25.574219 0.78125 C 26.371094 0.703125 26.992188 0.992188 27.4375 1.644531 C 28.386719 3.878906 29.472656 6.039062 30.699219 8.125 C 31.199219 8.96875 31.703125 9.808594 32.214844 10.644531 C 33.707031 13.003906 35.195312 15.363281 36.679688 17.726562 C 38.203125 20.207031 39.585938 22.777344 40.832031 25.433594 C 42.332031 28.636719 43.75 31.875 45.078125 35.152344 C 46.480469 38.644531 47.867188 42.140625 49.230469 45.644531 C 49.425781 46.195312 49.328125 46.691406 48.945312 47.132812 C 48.492188 47.585938 47.945312 47.816406 47.300781 47.816406 C 46.941406 47.832031 46.578125 47.832031 46.21875 47.816406 C 45.371094 47.757812 44.523438 47.6875 43.675781 47.601562 C 43.285156 47.574219 42.890625 47.554688 42.5 47.539062 C 38.964844 47.574219 35.4375 47.722656 31.914062 47.984375 C 28.710938 48.214844 25.511719 48.464844 22.3125 48.726562 C 18.53125 49.027344 14.75 49.179688 10.957031 49.183594 C 9.800781 49.25 8.644531 49.304688 7.488281 49.339844 C 6.550781 49.351562 5.625 49.246094 4.714844 49.015625 C 4.292969 48.894531 3.890625 48.71875 3.515625 48.488281 C 3.0625 48.058594 2.890625 47.53125 3 46.914062 C 3.027344 46.734375 3.078125 46.558594 3.144531 46.386719 C 7.828125 35.953125 12.535156 25.527344 17.257812 15.109375 C 19.246094 10.695312 21.214844 6.269531 23.164062 1.835938 C 23.5 1.078125 24.070312 0.796875 24.878906 0.996094 C 25.105469 0.898438 25.339844 0.828125 25.574219 0.78125 Z M 35.707031 22.71875 C 36.675781 24.4375 37.574219 26.199219 38.394531 28 C 37.484375 26.246094 36.589844 24.488281 35.707031 22.71875 Z M 35.707031 22.71875 "/>
</g>
</defs>
<g id="surface1">
<use xlink:href="#surface6" mask="url(#mask0)"/>
<path style=" stroke:none;fill-rule:evenodd;fill:rgb(99.607843%,99.607843%,99.607843%);fill-opacity:1;" d="M 35.515625 22.335938 C 35.507812 22.359375 35.515625 22.375 35.539062 22.382812 C 35.535156 22.40625 35.542969 22.421875 35.5625 22.429688 C 35.558594 22.457031 35.566406 22.472656 35.585938 22.480469 C 35.582031 22.503906 35.589844 22.519531 35.609375 22.527344 C 35.605469 22.550781 35.613281 22.566406 35.632812 22.574219 C 35.628906 22.597656 35.636719 22.617188 35.65625 22.625 C 35.652344 22.648438 35.660156 22.664062 35.683594 22.671875 C 35.675781 22.695312 35.6875 22.710938 35.707031 22.71875 C 36.589844 24.488281 37.484375 26.246094 38.394531 28 C 38.390625 28.023438 38.398438 28.039062 38.417969 28.046875 C 38.414062 28.070312 38.421875 28.089844 38.441406 28.097656 C 38.4375 28.121094 38.445312 28.136719 38.464844 28.144531 C 38.460938 28.167969 38.46875 28.183594 38.488281 28.191406 C 38.484375 28.214844 38.492188 28.230469 38.515625 28.242188 C 38.511719 28.265625 38.519531 28.28125 38.539062 28.289062 C 38.535156 28.3125 38.542969 28.328125 38.5625 28.335938 C 38.558594 28.359375 38.566406 28.375 38.585938 28.382812 C 38.582031 28.410156 38.589844 28.425781 38.609375 28.433594 C 38.605469 28.457031 38.613281 28.472656 38.632812 28.480469 C 38.628906 28.503906 38.636719 28.519531 38.65625 28.527344 C 38.652344 28.550781 38.660156 28.570312 38.683594 28.578125 C 38.679688 28.601562 38.6875 28.617188 38.707031 28.625 C 38.703125 28.648438 38.710938 28.664062 38.730469 28.671875 C 39.671875 30.699219 40.5625 32.746094 41.40625 34.816406 C 42.691406 38.023438 43.953125 41.242188 45.1875 44.46875 C 44.859375 44.496094 44.53125 44.5 44.203125 44.480469 C 42.875 44.390625 41.546875 44.320312 40.21875 44.261719 C 39.371094 44.246094 38.523438 44.253906 37.675781 44.285156 C 35.6875 44.367188 33.703125 44.480469 31.722656 44.625 C 28.128906 44.890625 24.535156 45.179688 20.941406 45.488281 C 17.058594 45.777344 13.171875 45.890625 9.277344 45.824219 C 8.703125 45.875 8.125 45.921875 7.550781 45.96875 C 7.363281 45.984375 7.179688 45.984375 6.996094 45.96875 C 11.40625 36.164062 15.828125 26.367188 20.257812 16.574219 C 21.96875 12.761719 23.675781 8.945312 25.371094 5.125 C 26.28125 6.96875 27.257812 8.765625 28.300781 10.527344 C 30.089844 13.429688 31.890625 16.328125 33.703125 19.214844 C 34.324219 20.246094 34.929688 21.285156 35.515625 22.335938 Z M 35.515625 22.335938 "/>
<path style=" stroke:none;fill-rule:evenodd;fill:rgb(0%,0%,0%);fill-opacity:1;" d="M 25.769531 15.445312 C 26.371094 15.394531 26.878906 15.589844 27.292969 16.023438 C 27.453125 16.234375 27.550781 16.476562 27.582031 16.742188 C 27.488281 18.808594 27.394531 20.871094 27.292969 22.9375 C 27.285156 24.609375 27.277344 26.28125 27.269531 27.953125 C 27.175781 28.636719 27.144531 29.324219 27.171875 30.015625 C 27.570312 30.371094 27.714844 30.8125 27.605469 31.335938 C 27.515625 31.757812 27.339844 32.132812 27.078125 32.464844 C 26.460938 33.046875 25.769531 33.160156 25 32.8125 C 24.617188 32.558594 24.34375 32.21875 24.171875 31.792969 C 23.867188 30.984375 23.742188 30.148438 23.800781 29.285156 C 23.8125 28.511719 23.851562 27.738281 23.90625 26.96875 C 23.945312 23.597656 24.066406 20.226562 24.269531 16.863281 C 24.367188 16.242188 24.707031 15.816406 25.289062 15.578125 C 25.449219 15.523438 25.609375 15.476562 25.769531 15.445312 Z M 25.769531 15.445312 "/>
<path style=" stroke:none;fill-rule:evenodd;fill:rgb(0%,0%,0%);fill-opacity:1;" d="M 25.503906 37.21875 C 26.886719 37.195312 27.777344 37.84375 28.179688 39.164062 C 28.367188 39.992188 28.214844 40.753906 27.722656 41.441406 C 27.03125 42.210938 26.179688 42.480469 25.167969 42.246094 C 24.414062 41.972656 23.945312 41.441406 23.765625 40.652344 C 23.332031 39.988281 23.273438 39.289062 23.597656 38.5625 C 24.023438 37.820312 24.660156 37.371094 25.503906 37.21875 Z M 25.503906 37.21875 "/>
</g>
</svg>
