<?xml version="1.0" encoding="UTF-8"?>
<svg xmlns="http://www.w3.org/2000/svg" xmlns:xlink="http://www.w3.org/1999/xlink" width="50pt" height="50pt" viewBox="0 0 50 50" version="1.1">
<defs>
<filter id="alpha" filterUnits="objectBoundingBox" x="0%" y="0%" width="100%" height="100%">
  <feColorMatrix type="matrix" in="SourceGraphic" values="0 0 0 0 1 0 0 0 0 1 0 0 0 0 1 0 0 0 1 0"/>
</filter>
<mask id="mask0">
  <g filter="url(#alpha)">
<rect x="0" y="0" width="50" height="50" style="fill:rgb(0%,0%,0%);fill-opacity:0.956863;stroke:none;"/>
  </g>
</mask>
<clipPath id="clip1">
  <rect width="50" height="50"/>
</clipPath>
<g id="surface6" clip-path="url(#clip1)">
<path style=" stroke:none;fill-rule:evenodd;fill:rgb(0%,0%,0%);fill-opacity:1;" d="M 43.546875 13.074219 C 41.242188 13.152344 38.941406 13.203125 36.636719 13.21875 C 36.148438 13.203125 35.667969 13.21875 35.195312 13.269531 C 34.988281 13.269531 34.78125 13.269531 34.574219 13.269531 C 34.292969 13.253906 34.019531 13.269531 33.757812 13.316406 C 32.207031 13.351562 30.652344 13.382812 29.101562 13.410156 C 24.910156 13.3125 20.710938 13.167969 16.507812 12.980469 C 13.617188 13.035156 10.730469 13.15625 7.84375 13.339844 C 6.085938 13.34375 4.324219 13.382812 2.566406 13.460938 C 1.84375 13.535156 1.601562 13.230469 1.847656 12.546875 C 1.925781 12.460938 2.023438 12.40625 2.136719 12.378906 C 5.734375 12.359375 9.335938 12.265625 12.933594 12.09375 C 14.609375 12.058594 16.289062 12.058594 17.96875 12.09375 C 20.578125 12.214844 23.183594 12.34375 25.792969 12.476562 C 29.054688 12.566406 32.316406 12.617188 35.582031 12.621094 C 37.515625 12.695312 39.453125 12.789062 41.386719 12.90625 C 42.105469 12.933594 42.824219 12.941406 43.546875 12.933594 C 43.546875 12.980469 43.546875 13.027344 43.546875 13.074219 Z M 43.546875 13.074219 "/>
</g>
<mask id="mask1">
  <g filter="url(#alpha)">
<rect x="0" y="0" width="50" height="50" style="fill:rgb(0%,0%,0%);fill-opacity:0.996078;stroke:none;"/>
  </g>
</mask>
<clipPath id="clip2">
  <rect width="50" height="50"/>
</clipPath>
<g id="surface9" clip-path="url(#clip2)">
<path style=" stroke:none;fill-rule:evenodd;fill:rgb(94.117647%,92.54902%,89.803922%);fill-opacity:1;" d="M 47.289062 19.265625 C 46.921875 19.199219 46.554688 19.175781 46.183594 19.195312 C 46.082031 19.277344 45.988281 19.363281 45.898438 19.457031 C 45.644531 19.492188 45.386719 19.515625 45.128906 19.53125 C 45.042969 19.554688 44.984375 19.609375 44.960938 19.699219 C 44.855469 20.414062 44.773438 21.132812 44.722656 21.855469 C 44.652344 23.53125 44.566406 25.199219 44.457031 26.871094 C 44.351562 28.046875 44.878906 28.507812 46.042969 28.261719 C 46.5 28.234375 46.957031 28.179688 47.410156 28.09375 C 47.460938 28.097656 47.5 28.113281 47.527344 28.144531 C 47.710938 28.59375 47.886719 29.050781 48.054688 29.511719 C 47.460938 30.941406 46.867188 32.371094 46.28125 33.804688 C 45.371094 33.859375 44.460938 33.867188 43.546875 33.828125 C 41.179688 33.695312 38.8125 33.550781 36.445312 33.398438 C 34.910156 33.339844 33.375 33.285156 31.835938 33.230469 C 27.644531 33.347656 23.457031 33.5 19.265625 33.683594 C 18.417969 33.710938 17.570312 33.71875 16.722656 33.710938 C 12.007812 33.601562 7.289062 33.523438 2.566406 33.46875 C 2.65625 32.84375 2.753906 32.222656 2.855469 31.597656 C 3.269531 31.457031 3.703125 31.371094 4.152344 31.332031 C 6.160156 31.230469 8.160156 31.039062 10.148438 30.757812 C 10.945312 30.664062 11.746094 30.601562 12.546875 30.566406 C 15.339844 30.546875 18.128906 30.523438 20.921875 30.496094 C 23.855469 30.570312 26.792969 30.59375 29.726562 30.566406 C 34.71875 30.417969 39.707031 30.265625 44.699219 30.109375 C 44.722656 30.109375 44.738281 30.089844 44.746094 30.0625 C 44.589844 30.015625 44.429688 30 44.265625 30.015625 C 38.859375 29.933594 33.453125 29.894531 28.046875 29.894531 C 25.839844 29.789062 23.632812 29.675781 21.425781 29.558594 C 18.96875 29.535156 16.515625 29.492188 14.058594 29.4375 C 13.074219 29.433594 12.089844 29.476562 11.109375 29.558594 C 8.523438 29.871094 5.933594 30.128906 3.335938 30.328125 C 3.242188 30.378906 3.148438 30.421875 3.046875 30.445312 C 3.101562 30.117188 3.167969 29.789062 3.238281 29.460938 C 2.808594 28.960938 2.410156 28.441406 2.039062 27.902344 C 2.136719 27.664062 2.230469 27.421875 2.328125 27.183594 C 3.671875 26.804688 5.050781 26.628906 6.453125 26.65625 C 7.15625 26.675781 7.863281 26.683594 8.566406 26.679688 C 9.117188 26.609375 9.398438 26.296875 9.40625 25.742188 C 9.4375 24.878906 9.4375 24.015625 9.40625 23.152344 C 9.238281 22.273438 9.078125 21.394531 8.925781 20.511719 C 8.871094 20.203125 8.683594 20.019531 8.375 19.960938 C 7.964844 19.835938 7.550781 19.738281 7.125 19.671875 C 5.828125 19.625 4.535156 19.566406 3.238281 19.503906 C 3.625 19.003906 4.027344 18.507812 4.4375 18.019531 C 4.242188 17.789062 4.066406 17.550781 3.910156 17.296875 C 4.535156 17.359375 5.160156 17.429688 5.78125 17.515625 C 9.445312 17.582031 13.109375 17.53125 16.769531 17.371094 C 18.242188 17.339844 19.714844 17.339844 21.183594 17.371094 C 26.375 17.503906 31.566406 17.671875 36.757812 17.875 C 38.644531 17.878906 40.523438 17.761719 42.394531 17.515625 C 43.113281 17.480469 43.832031 17.480469 44.554688 17.515625 C 44.828125 17.644531 45.058594 17.585938 45.25 17.347656 C 45.355469 17.011719 45.253906 16.78125 44.9375 16.652344 C 43.519531 16.554688 42.113281 16.632812 40.714844 16.890625 C 39.722656 16.925781 38.730469 16.992188 37.738281 17.082031 C 32.253906 16.996094 26.769531 16.9375 21.28125 16.914062 C 18.289062 16.96875 15.296875 17.074219 12.308594 17.226562 C 10.070312 17.257812 7.828125 17.257812 5.589844 17.226562 C 4.929688 17.175781 4.277344 17.101562 3.621094 17.011719 C 2.890625 16.03125 2.136719 15.0625 1.367188 14.109375 C 5.6875 13.972656 10.003906 13.855469 14.324219 13.746094 C 14.089844 13.90625 13.832031 14.023438 13.554688 14.109375 C 13.210938 14.414062 13.179688 14.75 13.460938 15.113281 C 13.5625 15.191406 13.675781 15.253906 13.796875 15.308594 C 14.199219 15.390625 14.609375 15.460938 15.019531 15.523438 C 15.40625 15.507812 15.765625 15.402344 16.097656 15.210938 C 16.429688 14.882812 16.472656 14.523438 16.21875 14.132812 C 16.019531 13.972656 15.800781 13.84375 15.570312 13.746094 C 17.027344 13.699219 18.480469 13.664062 19.9375 13.652344 C 19.707031 13.808594 19.539062 14.015625 19.433594 14.277344 C 19.28125 14.730469 19.433594 15.042969 19.890625 15.210938 C 20.597656 15.347656 21.285156 15.28125 21.953125 15.019531 C 22.292969 14.796875 22.425781 14.484375 22.359375 14.082031 C 22.226562 13.859375 22.042969 13.699219 21.808594 13.605469 C 24.238281 13.535156 26.671875 13.472656 29.101562 13.410156 C 30.652344 13.382812 32.207031 13.351562 33.757812 13.316406 C 34.039062 13.332031 34.308594 13.316406 34.574219 13.269531 C 34.78125 13.269531 34.988281 13.269531 35.195312 13.269531 C 35.683594 13.285156 36.164062 13.265625 36.636719 13.21875 C 38.941406 13.203125 41.242188 13.152344 43.546875 13.074219 C 44.585938 13.050781 45.625 13.035156 46.664062 13.027344 C 46.65625 14.660156 46.664062 16.289062 46.6875 17.921875 C 46.894531 18.371094 47.09375 18.816406 47.289062 19.265625 Z M 47.289062 19.265625 "/>
</g>
<mask id="mask2">
  <g filter="url(#alpha)">
<rect x="0" y="0" width="50" height="50" style="fill:rgb(0%,0%,0%);fill-opacity:0.992157;stroke:none;"/>
  </g>
</mask>
<clipPath id="clip3">
  <rect width="50" height="50"/>
</clipPath>
<g id="surface12" clip-path="url(#clip3)">
<path style=" stroke:none;fill-rule:evenodd;fill:rgb(0.392157%,0.392157%,0.392157%);fill-opacity:1;" d="M 21.808594 13.605469 C 22.042969 13.699219 22.226562 13.859375 22.359375 14.082031 C 22.425781 14.484375 22.292969 14.796875 21.953125 15.019531 C 21.285156 15.28125 20.597656 15.347656 19.890625 15.210938 C 19.433594 15.042969 19.28125 14.730469 19.433594 14.277344 C 19.539062 14.015625 19.707031 13.808594 19.9375 13.652344 C 20.078125 13.554688 20.238281 13.5 20.417969 13.484375 C 20.769531 13.453125 21.121094 13.453125 21.472656 13.484375 C 21.597656 13.503906 21.710938 13.542969 21.808594 13.605469 Z M 21.808594 13.605469 "/>
</g>
<mask id="mask3">
  <g filter="url(#alpha)">
<rect x="0" y="0" width="50" height="50" style="fill:rgb(0%,0%,0%);fill-opacity:0.996078;stroke:none;"/>
  </g>
</mask>
<clipPath id="clip4">
  <rect width="50" height="50"/>
</clipPath>
<g id="surface15" clip-path="url(#clip4)">
<path style=" stroke:none;fill-rule:evenodd;fill:rgb(1.176471%,1.176471%,1.176471%);fill-opacity:1;" d="M 15.570312 13.746094 C 15.800781 13.84375 16.019531 13.972656 16.21875 14.132812 C 16.472656 14.523438 16.429688 14.882812 16.097656 15.210938 C 15.765625 15.402344 15.40625 15.507812 15.019531 15.523438 C 14.609375 15.460938 14.199219 15.390625 13.796875 15.308594 C 13.675781 15.253906 13.5625 15.191406 13.460938 15.113281 C 13.179688 14.75 13.210938 14.414062 13.554688 14.109375 C 13.832031 14.023438 14.089844 13.90625 14.324219 13.746094 C 14.738281 13.683594 15.15625 13.683594 15.570312 13.746094 Z M 15.570312 13.746094 "/>
</g>
<mask id="mask4">
  <g filter="url(#alpha)">
<rect x="0" y="0" width="50" height="50" style="fill:rgb(0%,0%,0%);fill-opacity:0.996078;stroke:none;"/>
  </g>
</mask>
<clipPath id="clip5">
  <rect width="50" height="50"/>
</clipPath>
<g id="surface18" clip-path="url(#clip5)">
<path style=" stroke:none;fill-rule:evenodd;fill:rgb(1.960784%,1.960784%,1.960784%);fill-opacity:1;" d="M 3.910156 17.296875 C 3.445312 17.253906 2.980469 17.207031 2.519531 17.15625 C 2.460938 17.097656 2.460938 17.042969 2.519531 16.988281 C 2.890625 16.949219 3.257812 16.957031 3.621094 17.011719 C 4.277344 17.101562 4.929688 17.175781 5.589844 17.226562 C 7.828125 17.257812 10.070312 17.257812 12.308594 17.226562 C 15.296875 17.074219 18.289062 16.96875 21.28125 16.914062 C 26.769531 16.9375 32.253906 16.996094 37.738281 17.082031 C 38.730469 16.992188 39.722656 16.925781 40.714844 16.890625 C 42.113281 16.632812 43.519531 16.554688 44.9375 16.652344 C 45.253906 16.78125 45.355469 17.011719 45.25 17.347656 C 45.058594 17.585938 44.828125 17.644531 44.554688 17.515625 C 43.832031 17.480469 43.113281 17.480469 42.394531 17.515625 C 40.523438 17.761719 38.644531 17.878906 36.757812 17.875 C 31.566406 17.671875 26.375 17.503906 21.183594 17.371094 C 19.714844 17.339844 18.242188 17.339844 16.769531 17.371094 C 13.109375 17.53125 9.445312 17.582031 5.78125 17.515625 C 5.160156 17.429688 4.535156 17.359375 3.910156 17.296875 Z M 3.910156 17.296875 "/>
</g>
<mask id="mask5">
  <g filter="url(#alpha)">
<rect x="0" y="0" width="50" height="50" style="fill:rgb(0%,0%,0%);fill-opacity:0.992157;stroke:none;"/>
  </g>
</mask>
<clipPath id="clip6">
  <rect width="50" height="50"/>
</clipPath>
<g id="surface21" clip-path="url(#clip6)">
<path style=" stroke:none;fill-rule:evenodd;fill:rgb(1.960784%,1.568627%,1.568627%);fill-opacity:1;" d="M 47.289062 19.265625 C 47.632812 19.320312 47.710938 19.496094 47.527344 19.792969 C 47.070312 19.753906 46.605469 19.730469 46.136719 19.722656 C 46.097656 19.671875 46.046875 19.632812 45.992188 19.601562 C 45.886719 19.664062 45.773438 19.710938 45.65625 19.746094 C 45.609375 19.746094 45.5625 19.746094 45.511719 19.746094 C 45.5 19.835938 45.515625 19.917969 45.5625 19.984375 C 45.433594 21.824219 45.328125 23.664062 45.25 25.503906 C 45.210938 26.175781 45.21875 26.847656 45.273438 27.519531 C 45.941406 27.597656 46.597656 27.566406 47.242188 27.421875 C 47.78125 27.34375 48.328125 27.320312 48.871094 27.351562 C 49.011719 27.492188 49.050781 27.660156 48.992188 27.855469 C 48.96875 27.941406 48.914062 28 48.824219 28.023438 C 48.390625 28.042969 47.957031 28.085938 47.527344 28.144531 C 47.5 28.113281 47.460938 28.097656 47.410156 28.09375 C 46.957031 28.179688 46.5 28.234375 46.042969 28.261719 C 44.878906 28.507812 44.351562 28.046875 44.457031 26.871094 C 44.566406 25.199219 44.652344 23.53125 44.722656 21.855469 C 44.773438 21.132812 44.855469 20.414062 44.960938 19.699219 C 44.984375 19.609375 45.042969 19.554688 45.128906 19.53125 C 45.386719 19.515625 45.644531 19.492188 45.898438 19.457031 C 45.988281 19.363281 46.082031 19.277344 46.183594 19.195312 C 46.554688 19.175781 46.921875 19.199219 47.289062 19.265625 Z M 47.289062 19.265625 "/>
</g>
<mask id="mask6">
  <g filter="url(#alpha)">
<rect x="0" y="0" width="50" height="50" style="fill:rgb(0%,0%,0%);fill-opacity:0.992157;stroke:none;"/>
  </g>
</mask>
<clipPath id="clip7">
  <rect width="50" height="50"/>
</clipPath>
<g id="surface24" clip-path="url(#clip7)">
<path style=" stroke:none;fill-rule:evenodd;fill:rgb(1.568627%,1.568627%,1.568627%);fill-opacity:1;" d="M 3.238281 19.503906 C 4.535156 19.566406 5.828125 19.625 7.125 19.671875 C 7.550781 19.738281 7.964844 19.835938 8.375 19.960938 C 8.683594 20.019531 8.871094 20.203125 8.925781 20.511719 C 9.078125 21.394531 9.238281 22.273438 9.40625 23.152344 C 9.4375 24.015625 9.4375 24.878906 9.40625 25.742188 C 9.398438 26.296875 9.117188 26.609375 8.566406 26.679688 C 7.863281 26.683594 7.15625 26.675781 6.453125 26.65625 C 5.050781 26.628906 3.671875 26.804688 2.328125 27.183594 C 2.023438 27.289062 1.71875 27.296875 1.414062 27.207031 C 1.277344 27.03125 1.238281 26.832031 1.296875 26.609375 C 1.4375 26.359375 1.644531 26.277344 1.917969 26.367188 C 2.199219 26.300781 2.480469 26.234375 2.757812 26.175781 C 3.289062 26.113281 3.816406 26.042969 4.34375 25.960938 C 5.734375 25.933594 7.125 25.933594 8.515625 25.960938 C 8.585938 25.9375 8.640625 25.898438 8.683594 25.839844 C 8.8125 24.683594 8.777344 23.53125 8.589844 22.386719 C 8.460938 21.796875 8.328125 21.214844 8.179688 20.632812 C 7.113281 20.359375 6.023438 20.230469 4.917969 20.25 C 4.199219 20.152344 3.480469 20.066406 2.757812 19.984375 C 2.671875 19.597656 2.828125 19.4375 3.238281 19.503906 Z M 3.238281 19.503906 "/>
</g>
<mask id="mask7">
  <g filter="url(#alpha)">
<rect x="0" y="0" width="50" height="50" style="fill:rgb(0%,0%,0%);fill-opacity:0.984314;stroke:none;"/>
  </g>
</mask>
<clipPath id="clip8">
  <rect width="50" height="50"/>
</clipPath>
<g id="surface27" clip-path="url(#clip8)">
<path style=" stroke:none;fill-rule:evenodd;fill:rgb(94.117647%,92.54902%,89.803922%);fill-opacity:1;" d="M 47.527344 19.792969 C 47.710938 20.214844 47.886719 20.636719 48.054688 21.066406 C 47.476562 22.351562 46.886719 23.632812 46.28125 24.902344 C 46.625 25.734375 46.945312 26.574219 47.242188 27.421875 C 46.597656 27.566406 45.941406 27.597656 45.273438 27.519531 C 45.21875 26.847656 45.210938 26.175781 45.25 25.503906 C 45.328125 23.664062 45.433594 21.824219 45.5625 19.984375 C 45.554688 19.886719 45.585938 19.808594 45.65625 19.746094 C 45.773438 19.710938 45.886719 19.664062 45.992188 19.601562 C 46.046875 19.632812 46.097656 19.671875 46.136719 19.722656 C 46.605469 19.730469 47.070312 19.753906 47.527344 19.792969 Z M 47.527344 19.792969 "/>
</g>
<mask id="mask8">
  <g filter="url(#alpha)">
<rect x="0" y="0" width="50" height="50" style="fill:rgb(0%,0%,0%);fill-opacity:0.992157;stroke:none;"/>
  </g>
</mask>
<clipPath id="clip9">
  <rect width="50" height="50"/>
</clipPath>
<g id="surface30" clip-path="url(#clip9)">
<path style=" stroke:none;fill-rule:evenodd;fill:rgb(94.509804%,92.941176%,90.196078%);fill-opacity:1;" d="M 2.757812 19.984375 C 3.480469 20.066406 4.199219 20.152344 4.917969 20.25 C 6.023438 20.230469 7.113281 20.359375 8.179688 20.632812 C 8.328125 21.214844 8.460938 21.796875 8.589844 22.386719 C 8.777344 23.53125 8.8125 24.683594 8.683594 25.839844 C 8.640625 25.898438 8.585938 25.9375 8.515625 25.960938 C 7.125 25.933594 5.734375 25.933594 4.34375 25.960938 C 3.816406 26.042969 3.289062 26.113281 2.757812 26.175781 C 3.125 25.367188 3.476562 24.550781 3.816406 23.726562 C 3.121094 22.914062 2.417969 22.105469 1.703125 21.304688 C 2.046875 20.859375 2.398438 20.417969 2.757812 19.984375 Z M 2.757812 19.984375 "/>
</g>
<mask id="mask9">
  <g filter="url(#alpha)">
<rect x="0" y="0" width="50" height="50" style="fill:rgb(0%,0%,0%);fill-opacity:0.952941;stroke:none;"/>
  </g>
</mask>
<clipPath id="clip10">
  <rect width="50" height="50"/>
</clipPath>
<g id="surface33" clip-path="url(#clip10)">
<path style=" stroke:none;fill-rule:evenodd;fill:rgb(1.568627%,1.568627%,1.568627%);fill-opacity:1;" d="M 46.28125 33.804688 C 46.527344 33.785156 46.765625 33.8125 47 33.878906 C 47.140625 34.082031 47.125 34.273438 46.953125 34.453125 C 46.105469 34.484375 45.257812 34.484375 44.410156 34.453125 C 42.679688 34.316406 40.953125 34.179688 39.226562 34.046875 C 34.386719 33.628906 29.539062 33.546875 24.6875 33.804688 C 18.535156 34.089844 12.375 34.171875 6.214844 34.046875 C 5.140625 34.027344 4.070312 34.011719 3 33.996094 C 3.007812 33.96875 3.023438 33.945312 3.046875 33.925781 C 3.523438 33.839844 4.003906 33.792969 4.488281 33.78125 C 5.613281 33.75 6.742188 33.726562 7.871094 33.710938 C 10.828125 33.742188 13.78125 33.742188 16.722656 33.710938 C 17.570312 33.71875 18.417969 33.710938 19.265625 33.683594 C 23.457031 33.5 27.644531 33.347656 31.835938 33.230469 C 33.375 33.285156 34.910156 33.339844 36.445312 33.398438 C 38.8125 33.550781 41.179688 33.695312 43.546875 33.828125 C 44.460938 33.867188 45.371094 33.859375 46.28125 33.804688 Z M 46.28125 33.804688 "/>
</g>
<mask id="mask10">
  <g filter="url(#alpha)">
<rect x="0" y="0" width="50" height="50" style="fill:rgb(0%,0%,0%);fill-opacity:0.898039;stroke:none;"/>
  </g>
</mask>
<clipPath id="clip11">
  <rect width="50" height="50"/>
</clipPath>
<g id="surface36" clip-path="url(#clip11)">
<path style=" stroke:none;fill-rule:evenodd;fill:rgb(90.980392%,89.411765%,86.666667%);fill-opacity:1;" d="M 39.226562 34.046875 C 34.378906 33.984375 29.535156 33.90625 24.6875 33.804688 C 29.539062 33.546875 34.386719 33.628906 39.226562 34.046875 Z M 39.226562 34.046875 "/>
</g>
</defs>
<g id="surface1">
<use xlink:href="#surface6" mask="url(#mask0)"/>
<use xlink:href="#surface9" mask="url(#mask1)"/>
<use xlink:href="#surface12" mask="url(#mask2)"/>
<path style=" stroke:none;fill-rule:evenodd;fill:rgb(1.176471%,1.176471%,1.176471%);fill-opacity:1;" d="M 33.902344 13.605469 C 34.34375 13.640625 34.773438 13.726562 35.195312 13.867188 C 35.738281 14.230469 35.820312 14.679688 35.4375 15.210938 C 35.246094 15.34375 35.039062 15.441406 34.8125 15.5 C 34.269531 15.570312 33.726562 15.585938 33.179688 15.546875 C 32.746094 15.507812 32.367188 15.339844 32.054688 15.042969 C 31.9375 14.800781 31.980469 14.582031 32.171875 14.394531 C 32.347656 14.277344 32.539062 14.210938 32.75 14.203125 C 32.976562 14.027344 33.230469 13.929688 33.515625 13.914062 C 33.625 13.78125 33.753906 13.679688 33.902344 13.605469 Z M 33.902344 13.605469 "/>
<use xlink:href="#surface15" mask="url(#mask3)"/>
<path style=" stroke:none;fill-rule:evenodd;fill:rgb(0.784314%,0.784314%,0.784314%);fill-opacity:1;" d="M 8.757812 13.988281 C 9.0625 13.980469 9.367188 13.988281 9.667969 14.011719 C 10.238281 14.226562 10.40625 14.621094 10.171875 15.1875 C 9.867188 15.507812 9.492188 15.691406 9.046875 15.738281 C 8.726562 15.769531 8.40625 15.769531 8.085938 15.738281 C 7.414062 15.542969 7.246094 15.136719 7.582031 14.515625 C 7.933594 14.238281 8.324219 14.0625 8.757812 13.988281 Z M 8.757812 13.988281 "/>
<path style=" stroke:none;fill-rule:evenodd;fill:rgb(1.176471%,1.176471%,1.176471%);fill-opacity:1;" d="M 27.085938 13.988281 C 27.378906 13.980469 27.664062 14.003906 27.949219 14.058594 C 28.265625 14.097656 28.570312 14.175781 28.863281 14.300781 C 28.976562 14.535156 29.128906 14.734375 29.320312 14.898438 C 29.355469 15.265625 29.195312 15.394531 28.839844 15.28125 C 28.558594 15.53125 28.230469 15.667969 27.855469 15.691406 C 27.503906 15.722656 27.152344 15.722656 26.800781 15.691406 C 26.394531 15.628906 26.082031 15.429688 25.863281 15.089844 C 25.769531 14.65625 25.9375 14.378906 26.367188 14.25 C 26.496094 14.234375 26.625 14.21875 26.75 14.203125 C 26.851562 14.105469 26.964844 14.035156 27.085938 13.988281 Z M 27.085938 13.988281 "/>
<path style=" stroke:none;fill-rule:evenodd;fill:rgb(1.568627%,1.568627%,1.176471%);fill-opacity:1;" d="M 39.851562 14.035156 C 40.542969 14.023438 41.230469 14.0625 41.914062 14.15625 C 42.019531 14.195312 42.089844 14.265625 42.128906 14.371094 C 42.261719 14.691406 42.207031 14.972656 41.960938 15.210938 C 41.390625 15.46875 40.792969 15.585938 40.164062 15.570312 C 39.769531 15.554688 39.375 15.511719 38.988281 15.449219 C 38.515625 15.292969 38.363281 14.980469 38.53125 14.515625 C 38.65625 14.371094 38.804688 14.265625 38.988281 14.203125 C 39.285156 14.15625 39.570312 14.101562 39.851562 14.035156 Z M 39.851562 14.035156 "/>
<path style=" stroke:none;fill-rule:evenodd;fill:rgb(1.176471%,1.176471%,1.176471%);fill-opacity:1;" d="M 3.671875 14.179688 C 3.910156 14.171875 4.152344 14.179688 4.390625 14.203125 C 4.8125 14.355469 4.980469 14.648438 4.894531 15.089844 C 4.800781 15.390625 4.601562 15.574219 4.292969 15.644531 C 3.730469 15.769531 3.242188 15.632812 2.832031 15.234375 C 2.6875 14.910156 2.757812 14.648438 3.046875 14.445312 C 3.25 14.332031 3.457031 14.242188 3.671875 14.179688 Z M 3.671875 14.179688 "/>
<use xlink:href="#surface18" mask="url(#mask4)"/>
<path style=" stroke:none;fill-rule:evenodd;fill:rgb(1.960784%,1.960784%,1.960784%);fill-opacity:1;" d="M 18.976562 18.785156 C 19.570312 18.777344 20.160156 18.785156 20.753906 18.808594 C 20.847656 18.832031 20.945312 18.859375 21.042969 18.882812 C 21.3125 18.726562 21.542969 18.773438 21.738281 19.027344 C 21.785156 19.121094 21.832031 19.21875 21.882812 19.3125 C 21.914062 19.617188 21.914062 19.921875 21.882812 20.226562 C 21.757812 21.09375 21.667969 21.964844 21.617188 22.839844 C 21.664062 23.738281 21.726562 24.632812 21.808594 25.527344 C 21.851562 25.898438 21.777344 26.242188 21.59375 26.558594 C 21.257812 26.765625 20.898438 26.917969 20.511719 27.015625 C 19.4375 27.253906 18.351562 27.367188 17.25 27.351562 C 15.738281 27.121094 14.234375 26.847656 12.738281 26.535156 C 12.355469 26.4375 12.140625 26.191406 12.09375 25.792969 C 11.902344 24.519531 11.773438 23.238281 11.707031 21.953125 C 11.625 21.398438 11.496094 20.855469 11.324219 20.320312 C 11.207031 19.816406 11.390625 19.488281 11.875 19.335938 C 12.179688 19.277344 12.480469 19.230469 12.789062 19.195312 C 14.859375 19.042969 16.921875 18.90625 18.976562 18.785156 Z M 18.976562 18.785156 "/>
<path style=" stroke:none;fill-rule:evenodd;fill:rgb(2.745098%,2.352941%,2.352941%);fill-opacity:1;" d="M 30.0625 18.976562 C 31.054688 18.96875 32.046875 19.003906 33.039062 19.074219 C 33.039062 19.152344 33.007812 19.214844 32.941406 19.265625 C 32.96875 19.652344 33.007812 20.035156 33.0625 20.417969 C 33.078125 20.960938 33.09375 21.503906 33.109375 22.050781 C 33.238281 22.8125 33.351562 23.582031 33.445312 24.351562 C 33.460938 25.3125 33.476562 26.273438 33.492188 27.230469 C 33.605469 27.621094 33.589844 28.007812 33.445312 28.382812 C 33.277344 28.542969 33.074219 28.648438 32.84375 28.695312 C 31.789062 28.785156 30.730469 28.898438 29.679688 29.03125 C 27.988281 29.0625 26.308594 28.933594 24.640625 28.648438 C 24.070312 28.613281 23.691406 28.335938 23.511719 27.808594 C 23.425781 27.476562 23.363281 27.140625 23.320312 26.800781 C 23.1875 25.457031 23.171875 24.113281 23.273438 22.769531 C 23.382812 22.070312 23.464844 21.363281 23.511719 20.65625 C 23.664062 19.992188 24.070312 19.585938 24.734375 19.433594 C 25.226562 19.34375 25.722656 19.28125 26.222656 19.242188 C 27.515625 19.207031 28.792969 19.121094 30.0625 18.976562 Z M 30.0625 18.976562 "/>
<use xlink:href="#surface21" mask="url(#mask5)"/>
<path style=" stroke:none;fill-rule:evenodd;fill:rgb(94.117647%,92.54902%,89.803922%);fill-opacity:1;" d="M 19.746094 19.265625 C 20.128906 19.265625 20.511719 19.265625 20.898438 19.265625 C 20.917969 19.433594 20.988281 19.578125 21.113281 19.699219 C 21.132812 20.226562 21.101562 20.753906 21.015625 21.28125 C 20.984375 21.96875 20.984375 22.65625 21.015625 23.34375 C 21.117188 24.082031 21.230469 24.816406 21.351562 25.550781 C 21.460938 26.066406 21.261719 26.375 20.753906 26.488281 C 20.5625 26.535156 20.371094 26.582031 20.175781 26.632812 C 19.433594 26.71875 18.6875 26.804688 17.945312 26.894531 C 16.324219 26.667969 14.71875 26.371094 13.125 26.007812 C 12.859375 25.96875 12.707031 25.816406 12.667969 25.550781 C 12.609375 24.253906 12.511719 22.957031 12.378906 21.664062 C 12.320312 21.152344 12.203125 20.65625 12.019531 20.175781 C 12.023438 20.105469 12.054688 20.046875 12.117188 20.007812 C 14.574219 19.75 17.039062 19.523438 19.503906 19.335938 C 19.597656 19.328125 19.675781 19.304688 19.746094 19.265625 Z M 19.746094 19.265625 "/>
<path style=" stroke:none;fill-rule:evenodd;fill:rgb(94.117647%,92.54902%,89.803922%);fill-opacity:1;" d="M 31.167969 19.3125 C 31.5 19.3125 31.835938 19.3125 32.171875 19.3125 C 32.164062 19.601562 32.171875 19.890625 32.199219 20.175781 C 32.273438 20.414062 32.335938 20.65625 32.390625 20.898438 C 32.40625 21.441406 32.421875 21.984375 32.4375 22.527344 C 32.566406 23.070312 32.679688 23.613281 32.773438 24.160156 C 32.785156 25.441406 32.832031 26.722656 32.917969 28 C 32.785156 28.101562 32.632812 28.15625 32.460938 28.167969 C 31.171875 28.257812 29.886719 28.363281 28.597656 28.480469 C 27.222656 28.441406 25.855469 28.304688 24.496094 28.070312 C 24.242188 28.023438 24.105469 27.871094 24.089844 27.613281 C 23.882812 26.199219 23.820312 24.773438 23.894531 23.34375 C 23.972656 22.414062 24.050781 21.488281 24.136719 20.5625 C 24.316406 20.164062 24.628906 19.945312 25.070312 19.914062 C 27.113281 19.734375 29.144531 19.535156 31.167969 19.3125 Z M 31.167969 19.3125 "/>
<use xlink:href="#surface24" mask="url(#mask6)"/>
<path style=" stroke:none;fill-rule:evenodd;fill:rgb(3.137255%,3.137255%,2.745098%);fill-opacity:1;" d="M 42.441406 19.503906 C 42.730469 19.496094 43.019531 19.503906 43.304688 19.53125 C 43.570312 19.601562 43.738281 19.769531 43.808594 20.035156 C 43.835938 20.179688 43.867188 20.324219 43.90625 20.464844 C 43.886719 21.3125 43.863281 22.160156 43.832031 23.007812 C 43.867188 23.886719 43.875 24.769531 43.859375 25.648438 C 43.851562 26.195312 43.667969 26.664062 43.304688 27.0625 C 43.144531 27.167969 42.96875 27.230469 42.777344 27.253906 C 41.800781 27.257812 40.824219 27.304688 39.851562 27.398438 C 38.765625 27.488281 37.695312 27.40625 36.636719 27.160156 C 36.144531 27.015625 35.6875 26.800781 35.269531 26.511719 C 35.222656 26.414062 35.171875 26.320312 35.125 26.222656 C 34.84375 24.652344 34.921875 23.101562 35.363281 21.570312 C 35.617188 20.917969 36.089844 20.523438 36.78125 20.394531 C 37.519531 20.253906 38.257812 20.09375 38.988281 19.914062 C 39.792969 19.867188 40.589844 19.789062 41.386719 19.671875 C 41.425781 19.628906 41.472656 19.597656 41.53125 19.578125 C 41.84375 19.570312 42.148438 19.546875 42.441406 19.503906 Z M 42.441406 19.503906 "/>
<use xlink:href="#surface27" mask="url(#mask7)"/>
<path style=" stroke:none;fill-rule:evenodd;fill:rgb(43.921569%,43.137255%,41.960784%);fill-opacity:1;" d="M 45.65625 19.746094 C 45.585938 19.808594 45.554688 19.886719 45.5625 19.984375 C 45.515625 19.917969 45.5 19.835938 45.511719 19.746094 C 45.5625 19.746094 45.609375 19.746094 45.65625 19.746094 Z M 45.65625 19.746094 "/>
<path style=" stroke:none;fill-rule:evenodd;fill:rgb(94.117647%,92.54902%,89.803922%);fill-opacity:1;" d="M 40.859375 19.9375 C 41.003906 19.9375 41.148438 19.9375 41.289062 19.9375 C 41.296875 20.085938 41.363281 20.207031 41.484375 20.296875 C 42.042969 20.335938 42.605469 20.328125 43.164062 20.273438 C 43.234375 20.617188 43.265625 20.972656 43.257812 21.328125 C 43.222656 22.800781 43.214844 24.273438 43.234375 25.742188 C 43.203125 26 43.121094 26.238281 42.996094 26.464844 C 42.910156 26.566406 42.808594 26.636719 42.683594 26.679688 C 41.671875 26.679688 40.664062 26.726562 39.660156 26.824219 C 38.570312 26.910156 37.5 26.816406 36.445312 26.535156 C 35.988281 26.472656 35.691406 26.222656 35.554688 25.792969 C 35.472656 24.816406 35.441406 23.839844 35.460938 22.863281 C 35.472656 22.105469 35.753906 21.476562 36.300781 20.96875 C 36.5 20.871094 36.707031 20.789062 36.925781 20.730469 C 37.597656 20.570312 38.269531 20.410156 38.941406 20.25 C 39.589844 20.160156 40.226562 20.054688 40.859375 19.9375 Z M 40.859375 19.9375 "/>
<use xlink:href="#surface30" mask="url(#mask8)"/>
<path style=" stroke:none;fill-rule:evenodd;fill:rgb(1.176471%,1.176471%,0.784314%);fill-opacity:1;" d="M 44.265625 30.015625 C 44.410156 30.046875 44.554688 30.078125 44.699219 30.109375 C 39.707031 30.265625 34.71875 30.417969 29.726562 30.566406 C 26.792969 30.59375 23.855469 30.570312 20.921875 30.496094 C 18.128906 30.523438 15.339844 30.546875 12.546875 30.566406 C 11.746094 30.601562 10.945312 30.664062 10.148438 30.757812 C 8.160156 31.039062 6.160156 31.230469 4.152344 31.332031 C 3.703125 31.371094 3.269531 31.457031 2.855469 31.597656 C 2.398438 31.515625 2.230469 31.242188 2.351562 30.78125 C 2.519531 30.550781 2.753906 30.4375 3.046875 30.445312 C 3.148438 30.421875 3.242188 30.378906 3.335938 30.328125 C 5.933594 30.128906 8.523438 29.871094 11.109375 29.558594 C 12.089844 29.476562 13.074219 29.433594 14.058594 29.4375 C 16.515625 29.492188 18.96875 29.535156 21.425781 29.558594 C 23.632812 29.675781 25.839844 29.789062 28.046875 29.894531 C 33.453125 29.894531 38.859375 29.933594 44.265625 30.015625 Z M 44.265625 30.015625 "/>
<path style=" stroke:none;fill-rule:evenodd;fill:rgb(30.980392%,30.588235%,29.803922%);fill-opacity:1;" d="M 44.265625 30.015625 C 44.429688 30 44.589844 30.015625 44.746094 30.0625 C 44.738281 30.089844 44.722656 30.109375 44.699219 30.109375 C 44.554688 30.078125 44.410156 30.046875 44.265625 30.015625 Z M 44.265625 30.015625 "/>
<path style=" stroke:none;fill-rule:evenodd;fill:rgb(1.568627%,1.568627%,1.568627%);fill-opacity:1;" d="M 18.449219 31.023438 C 18.855469 30.957031 19.21875 31.054688 19.53125 31.308594 C 20.222656 32.632812 19.816406 33.203125 18.304688 33.011719 C 17.953125 32.996094 17.640625 32.875 17.371094 32.652344 C 17.09375 32.210938 17.167969 31.835938 17.585938 31.527344 C 17.886719 31.367188 18.171875 31.199219 18.449219 31.023438 Z M 18.449219 31.023438 "/>
<path style=" stroke:none;fill-rule:evenodd;fill:rgb(1.176471%,1.176471%,1.176471%);fill-opacity:1;" d="M 25.648438 31.308594 C 26.390625 31.234375 26.804688 31.570312 26.894531 32.316406 C 26.851562 32.554688 26.707031 32.664062 26.464844 32.652344 C 26.0625 33.167969 25.535156 33.398438 24.878906 33.347656 C 24.546875 33.230469 24.230469 33.085938 23.921875 32.917969 C 23.496094 32.648438 23.390625 32.289062 23.609375 31.835938 C 23.675781 31.777344 23.75 31.71875 23.824219 31.667969 C 24.347656 31.5625 24.875 31.480469 25.40625 31.429688 C 25.503906 31.410156 25.582031 31.371094 25.648438 31.308594 Z M 25.648438 31.308594 "/>
<path style=" stroke:none;fill-rule:evenodd;fill:rgb(1.176471%,1.176471%,1.176471%);fill-opacity:1;" d="M 36.972656 31.359375 C 37.433594 31.347656 37.808594 31.523438 38.101562 31.886719 C 38.316406 32.449219 38.117188 32.746094 37.5 32.773438 C 36.941406 32.867188 36.4375 32.746094 35.988281 32.414062 C 35.765625 31.972656 35.882812 31.660156 36.347656 31.476562 C 36.5625 31.441406 36.773438 31.402344 36.972656 31.359375 Z M 36.972656 31.359375 "/>
<path style=" stroke:none;fill-rule:evenodd;fill:rgb(1.176471%,1.176471%,1.176471%);fill-opacity:1;" d="M 42.011719 31.359375 C 42.363281 31.351562 42.714844 31.359375 43.066406 31.382812 C 43.554688 31.535156 43.738281 31.863281 43.617188 32.367188 C 43.402344 33.027344 42.941406 33.328125 42.226562 33.277344 C 41.902344 33.285156 41.621094 33.183594 41.386719 32.964844 C 41.183594 32.785156 40.980469 32.601562 40.785156 32.414062 C 40.660156 32.121094 40.703125 31.855469 40.90625 31.621094 C 41.269531 31.488281 41.636719 31.398438 42.011719 31.359375 Z M 42.011719 31.359375 "/>
<path style=" stroke:none;fill-rule:evenodd;fill:rgb(1.176471%,1.176471%,1.176471%);fill-opacity:1;" d="M 6.886719 31.550781 C 7.253906 31.5625 7.621094 31.585938 7.988281 31.621094 C 8.304688 31.796875 8.410156 32.0625 8.300781 32.414062 C 8.253906 32.617188 8.148438 32.785156 7.988281 32.917969 C 7.253906 33.230469 6.484375 33.359375 5.6875 33.300781 C 5.125 33.074219 4.996094 32.703125 5.300781 32.199219 C 5.484375 32.050781 5.691406 31.972656 5.925781 31.957031 C 6.253906 31.832031 6.574219 31.695312 6.886719 31.550781 Z M 6.886719 31.550781 "/>
<path style=" stroke:none;fill-rule:evenodd;fill:rgb(0.784314%,0.784314%,0.784314%);fill-opacity:1;" d="M 12.261719 31.550781 C 12.738281 31.542969 13.21875 31.550781 13.699219 31.574219 C 14.371094 31.699219 14.585938 32.074219 14.347656 32.703125 C 14.265625 32.804688 14.160156 32.875 14.035156 32.917969 C 13.453125 33.101562 12.859375 33.148438 12.261719 33.0625 C 11.753906 32.800781 11.617188 32.410156 11.851562 31.886719 C 11.96875 31.746094 12.105469 31.632812 12.261719 31.550781 Z M 12.261719 31.550781 "/>
<path style=" stroke:none;fill-rule:evenodd;fill:rgb(1.568627%,1.568627%,1.568627%);fill-opacity:1;" d="M 32.03125 31.550781 C 32.53125 31.59375 32.769531 31.875 32.75 32.390625 C 32.75 32.476562 32.71875 32.546875 32.652344 32.605469 C 32.484375 32.734375 32.308594 32.855469 32.125 32.964844 C 31.574219 33.128906 31.070312 33.042969 30.613281 32.703125 C 30.289062 32.292969 30.34375 31.949219 30.78125 31.667969 C 31.066406 31.628906 31.347656 31.652344 31.621094 31.742188 C 31.742188 31.640625 31.878906 31.574219 32.03125 31.550781 Z M 32.03125 31.550781 "/>
<use xlink:href="#surface33" mask="url(#mask9)"/>
<use xlink:href="#surface36" mask="url(#mask10)"/>
</g>
</svg>
