<?xml version="1.0" encoding="UTF-8"?>
<svg xmlns="http://www.w3.org/2000/svg" xmlns:xlink="http://www.w3.org/1999/xlink" width="50pt" height="50pt" viewBox="0 0 50 50" version="1.1">
<g id="surface1">
<path style=" stroke:none;fill-rule:evenodd;fill:rgb(66.666667%,23.137255%,18.039216%);fill-opacity:1;" d="M 21.421875 4.210938 C 23.277344 4.1875 25.125 4.28125 26.96875 4.488281 C 29.539062 4.800781 31.910156 5.65625 34.074219 7.058594 C 36.695312 8.796875 39.261719 10.613281 41.777344 12.507812 C 43.515625 14.019531 44.832031 15.839844 45.726562 17.96875 C 46.449219 19.6875 46.984375 21.460938 47.335938 23.296875 C 47.792969 25.980469 47.664062 28.636719 46.953125 31.265625 C 46.40625 33 45.550781 34.550781 44.382812 35.921875 C 43.230469 37.242188 42 38.496094 40.699219 39.679688 C 39.25 41.011719 37.683594 42.179688 35.992188 43.183594 C 32.164062 45.359375 28.042969 46.359375 23.632812 46.183594 C 19.667969 46.042969 16.011719 44.925781 12.660156 42.824219 C 9.246094 40.695312 6.5625 37.875 4.609375 34.363281 C 3.238281 31.785156 2.4375 29.039062 2.207031 26.128906 C 2.070312 23.808594 2.429688 21.566406 3.289062 19.40625 C 3.996094 17.675781 4.851562 16.027344 5.855469 14.460938 C 6.351562 13.691406 6.863281 12.929688 7.394531 12.183594 C 7.898438 11.554688 8.445312 10.96875 9.039062 10.417969 C 11.949219 7.898438 15.246094 6.015625 18.925781 4.777344 C 19.746094 4.507812 20.578125 4.320312 21.421875 4.210938 Z M 21.421875 4.210938 "/>
<path style=" stroke:none;fill-rule:evenodd;fill:rgb(99.607843%,99.607843%,99.607843%);fill-opacity:1;" d="M 30.304688 24.902344 C 30.285156 24.910156 30.269531 24.921875 30.257812 24.941406 C 30.328125 24.953125 30.398438 24.957031 30.472656 24.953125 C 32.496094 25.101562 34.519531 25.164062 36.546875 25.132812 C 37.46875 25.15625 38.339844 25.371094 39.164062 25.78125 C 39.5 26.125 39.59375 26.527344 39.4375 26.992188 C 39.261719 27.347656 39 27.621094 38.65625 27.820312 C 38.085938 28.117188 37.480469 28.265625 36.832031 28.277344 C 35.007812 28.289062 33.183594 28.277344 31.359375 28.242188 C 30.671875 28.238281 29.984375 28.25 29.296875 28.277344 C 28.414062 28.328125 27.535156 28.398438 26.65625 28.492188 C 25.226562 28.664062 23.792969 28.824219 22.359375 28.972656 C 21.128906 29.082031 19.898438 29.140625 18.664062 29.140625 C 18.214844 29.074219 17.929688 28.824219 17.8125 28.382812 C 17.710938 27.933594 17.828125 27.554688 18.160156 27.246094 C 17.144531 27.351562 16.128906 27.433594 15.109375 27.484375 C 13.261719 27.558594 11.429688 27.414062 9.613281 27.050781 C 9.183594 26.878906 8.933594 26.5625 8.855469 26.105469 C 8.761719 25.558594 8.960938 25.164062 9.445312 24.914062 C 9.960938 24.710938 10.5 24.589844 11.054688 24.554688 C 11.40625 24.539062 11.757812 24.539062 12.109375 24.554688 C 12.804688 24.617188 13.5 24.660156 14.199219 24.675781 C 15.894531 24.691406 17.589844 24.691406 19.285156 24.675781 C 19.695312 24.601562 20.101562 24.535156 20.511719 24.472656 C 20.558594 24.476562 20.597656 24.464844 20.632812 24.4375 C 19.871094 24.425781 19.109375 24.417969 18.351562 24.425781 C 14.847656 24.433594 11.339844 24.445312 7.835938 24.460938 C 7.257812 24.320312 6.917969 23.957031 6.816406 23.367188 C 6.734375 22.785156 6.929688 22.324219 7.40625 21.988281 C 7.578125 21.894531 7.761719 21.835938 7.957031 21.820312 C 15.167969 21.820312 22.367188 21.585938 29.5625 21.125 C 30.707031 21.078125 31.851562 21.027344 32.992188 20.96875 C 33.378906 20.386719 33.914062 20.175781 34.601562 20.332031 C 35 20.496094 35.40625 20.632812 35.824219 20.738281 C 36.234375 20.78125 36.640625 20.816406 37.050781 20.835938 C 37.628906 21.046875 37.960938 21.457031 38.046875 22.070312 C 38.113281 22.503906 38.015625 22.898438 37.757812 23.246094 C 37.578125 23.441406 37.359375 23.566406 37.097656 23.621094 C 36.792969 23.664062 36.484375 23.683594 36.171875 23.679688 C 35.753906 23.664062 35.332031 23.660156 34.914062 23.667969 C 34.4375 23.90625 33.941406 24.097656 33.425781 24.242188 C 32.390625 24.484375 31.347656 24.703125 30.304688 24.902344 Z M 30.304688 24.902344 "/>
<path style=" stroke:none;fill-rule:evenodd;fill:rgb(81.568627%,58.823529%,56.470588%);fill-opacity:1;" d="M 18.351562 24.425781 C 19.109375 24.417969 19.871094 24.425781 20.632812 24.4375 C 20.597656 24.464844 20.558594 24.476562 20.511719 24.472656 C 19.792969 24.457031 19.070312 24.441406 18.351562 24.425781 Z M 18.351562 24.425781 "/>
<path style=" stroke:none;fill-rule:evenodd;fill:rgb(77.647059%,50.196078%,47.45098%);fill-opacity:1;" d="M 30.304688 24.902344 C 30.359375 24.921875 30.417969 24.9375 30.472656 24.953125 C 30.398438 24.957031 30.328125 24.953125 30.257812 24.941406 C 30.269531 24.921875 30.285156 24.910156 30.304688 24.902344 Z M 30.304688 24.902344 "/>
<path style=" stroke:none;fill-rule:evenodd;fill:rgb(82.352941%,59.607843%,56.862745%);fill-opacity:1;" d="M 19.816406 26.96875 C 20.101562 26.964844 20.390625 26.96875 20.679688 26.980469 C 20.382812 27.011719 20.085938 27.019531 19.792969 27.003906 C 19.804688 26.996094 19.8125 26.984375 19.816406 26.96875 Z M 19.816406 26.96875 "/>
</g>
</svg>
