<?xml version="1.0" encoding="UTF-8"?>
<svg xmlns="http://www.w3.org/2000/svg" xmlns:xlink="http://www.w3.org/1999/xlink" width="50pt" height="50pt" viewBox="0 0 50 50" version="1.1">
<defs>
<filter id="alpha" filterUnits="objectBoundingBox" x="0%" y="0%" width="100%" height="100%">
  <feColorMatrix type="matrix" in="SourceGraphic" values="0 0 0 0 1 0 0 0 0 1 0 0 0 0 1 0 0 0 1 0"/>
</filter>
<mask id="mask0">
  <g filter="url(#alpha)">
<rect x="0" y="0" width="50" height="50" style="fill:rgb(0%,0%,0%);fill-opacity:0.992157;stroke:none;"/>
  </g>
</mask>
<clipPath id="clip1">
  <rect width="50" height="50"/>
</clipPath>
<g id="surface6" clip-path="url(#clip1)">
<path style=" stroke:none;fill-rule:evenodd;fill:rgb(0%,0%,0%);fill-opacity:1;" d="M 45.8125 3.589844 C 46.210938 3.523438 46.519531 3.660156 46.734375 3.996094 C 46.84375 4.601562 46.90625 5.207031 46.925781 5.820312 C 47.007812 8.046875 47.105469 10.269531 47.214844 12.492188 C 47.402344 14.511719 47.609375 16.527344 47.839844 18.542969 C 48.023438 20.65625 48.101562 22.773438 48.066406 24.890625 C 48.035156 30.578125 47.984375 36.261719 47.910156 41.945312 C 47.847656 42.394531 47.59375 42.679688 47.15625 42.800781 C 45.394531 42.820312 43.632812 42.851562 41.875 42.894531 C 40.921875 42.914062 39.96875 42.96875 39.019531 43.0625 C 38.578125 43.132812 38.191406 43.316406 37.867188 43.613281 C 37.480469 43.835938 37.089844 43.851562 36.691406 43.664062 C 36.527344 43.566406 36.417969 43.425781 36.367188 43.242188 C 36.242188 42.671875 36.226562 42.09375 36.316406 41.515625 C 36.429688 40.84375 36.527344 40.171875 36.605469 39.5 C 36.699219 38.53125 36.597656 37.585938 36.292969 36.664062 C 35.78125 35.511719 34.992188 34.597656 33.929688 33.917969 C 32.445312 33.03125 30.835938 32.625 29.105469 32.691406 C 28.332031 32.695312 27.589844 32.839844 26.871094 33.125 C 26.3125 33.386719 25.828125 33.75 25.421875 34.21875 C 24.167969 35.691406 23.507812 37.398438 23.441406 39.34375 C 23.410156 40.332031 23.660156 41.238281 24.195312 42.066406 C 24.339844 42.257812 24.472656 42.457031 24.59375 42.667969 C 25.234375 42.820312 25.492188 43.21875 25.371094 43.867188 C 25.203125 44.230469 24.917969 44.449219 24.519531 44.527344 C 24.21875 44.609375 23.917969 44.664062 23.609375 44.695312 C 21.195312 44.828125 18.785156 44.773438 16.382812 44.527344 C 15.546875 44.441406 14.722656 44.296875 13.910156 44.09375 C 13.574219 44.007812 13.28125 43.84375 13.035156 43.601562 C 12.824219 43.285156 12.703125 42.929688 12.675781 42.546875 C 12.589844 41.109375 12.523438 39.667969 12.480469 38.226562 C 12.449219 36.058594 12.4375 33.890625 12.445312 31.722656 C 11.792969 31.898438 11.128906 32.015625 10.453125 32.070312 C 8.816406 32.242188 7.175781 32.285156 5.53125 32.1875 C 4.78125 32.132812 4.109375 31.875 3.515625 31.421875 C 2.046875 30.269531 1.167969 28.761719 0.886719 26.894531 C 0.613281 25.113281 0.828125 23.394531 1.535156 21.734375 C 2.976562 18.765625 5.355469 17.335938 8.675781 17.449219 C 9.246094 17.46875 9.796875 17.574219 10.332031 17.761719 C 10.765625 17.9375 11.183594 18.132812 11.59375 18.351562 C 11.601562 18.34375 11.609375 18.335938 11.617188 18.328125 C 11.632812 18.109375 11.632812 17.894531 11.617188 17.679688 C 11.425781 15.097656 11.1875 12.519531 10.898438 9.949219 C 10.75 9.03125 10.605469 8.109375 10.464844 7.1875 C 10.386719 7.019531 10.328125 6.84375 10.296875 6.660156 C 10.25 6.042969 10.527344 5.664062 11.125 5.519531 C 11.609375 5.527344 12.089844 5.496094 12.566406 5.425781 C 14.082031 5.140625 15.59375 4.835938 17.101562 4.511719 C 18.792969 4.195312 20.496094 4.082031 22.214844 4.175781 C 22.652344 4.15625 23.089844 4.121094 23.523438 4.070312 C 23.980469 4.046875 24.355469 4.207031 24.652344 4.546875 C 24.90625 4.988281 25 5.457031 24.941406 5.964844 C 24.875 6.640625 24.753906 7.304688 24.578125 7.957031 C 24.542969 8.460938 24.535156 8.964844 24.554688 9.46875 C 24.613281 10.640625 24.703125 11.808594 24.820312 12.972656 C 24.90625 13.738281 25.097656 14.472656 25.394531 15.183594 C 25.84375 16.230469 26.632812 16.835938 27.761719 16.996094 C 29.585938 17.230469 31.234375 16.796875 32.707031 15.699219 C 33.195312 15.34375 33.628906 14.933594 34.011719 14.460938 C 34.484375 13.855469 34.773438 13.167969 34.878906 12.398438 C 35.066406 11.054688 35.082031 9.710938 34.925781 8.367188 C 34.84375 7.886719 34.769531 7.40625 34.710938 6.925781 C 34.527344 5.148438 35.328125 4.261719 37.109375 4.261719 C 37.386719 4.277344 37.664062 4.296875 37.9375 4.320312 C 38.664062 4.421875 39.394531 4.511719 40.121094 4.585938 C 41.328125 4.683594 42.511719 4.574219 43.675781 4.25 C 44.398438 4.054688 45.109375 3.835938 45.8125 3.589844 Z M 45.476562 8.460938 C 42.628906 8.378906 39.777344 8.296875 36.929688 8.222656 C 36.847656 7.75 36.769531 7.277344 36.703125 6.804688 C 36.683594 6.621094 36.6875 6.4375 36.714844 6.253906 C 37.746094 6.25 38.78125 6.292969 39.808594 6.386719 C 41.746094 6.5 43.613281 6.183594 45.402344 5.4375 C 45.417969 5.441406 45.429688 5.449219 45.4375 5.460938 C 45.464844 5.867188 45.484375 6.277344 45.5 6.683594 C 45.476562 7.277344 45.46875 7.867188 45.476562 8.460938 Z M 30.015625 19 C 29.03125 19.484375 27.992188 19.785156 26.894531 19.898438 C 25.382812 19.996094 24.152344 19.457031 23.210938 18.277344 C 22.566406 17.394531 22.109375 16.417969 21.84375 15.351562 C 21.492188 13.980469 21.292969 12.585938 21.242188 11.171875 C 21.191406 10.003906 21.210938 8.835938 21.304688 7.667969 C 18.222656 7.660156 15.140625 7.667969 12.0625 7.691406 C 12.042969 7.753906 12.03125 7.820312 12.027344 7.886719 C 12.015625 8.355469 12.011719 8.828125 12.015625 9.300781 C 11.894531 8.777344 11.78125 8.25 11.679688 7.71875 C 11.683594 7.679688 11.699219 7.652344 11.726562 7.632812 C 12.160156 7.585938 12.59375 7.523438 13.023438 7.441406 C 14.125 7.191406 15.230469 6.945312 16.335938 6.695312 C 18.53125 6.214844 20.75 6.015625 22.984375 6.097656 C 22.804688 6.867188 22.679688 7.648438 22.613281 8.4375 C 22.617188 9.757812 22.675781 11.078125 22.78125 12.398438 C 22.84375 13.441406 23.042969 14.457031 23.378906 15.445312 C 24.308594 17.929688 26.105469 19.136719 28.769531 19.070312 C 29.1875 19.078125 29.601562 19.050781 30.015625 19 Z M 36.714844 6.132812 C 36.773438 6.132812 36.777344 6.148438 36.726562 6.179688 C 36.714844 6.167969 36.710938 6.152344 36.714844 6.132812 Z M 45.929688 17.941406 C 46.097656 19.390625 46.1875 20.847656 46.207031 22.3125 C 46.226562 24.011719 46.214844 25.707031 46.171875 27.398438 C 46.085938 24.25 46.007812 21.097656 45.929688 17.941406 Z M 9.542969 19.238281 C 8.394531 19.230469 7.28125 19.417969 6.203125 19.804688 C 4.652344 20.417969 3.554688 21.492188 2.917969 23.03125 C 3.90625 20.285156 5.867188 18.976562 8.796875 19.105469 C 9.054688 19.125 9.300781 19.167969 9.542969 19.238281 Z M 38.464844 37.433594 C 38.257812 36.078125 37.691406 34.894531 36.773438 33.882812 C 35.070312 32.042969 32.960938 31.039062 30.449219 30.867188 C 29.128906 30.738281 27.839844 30.882812 26.585938 31.300781 C 25.414062 31.75 24.449219 32.472656 23.691406 33.472656 C 23.070312 34.296875 22.578125 35.191406 22.214844 36.160156 C 22.339844 34.699219 22.777344 33.339844 23.523438 32.082031 C 24.589844 30.464844 26.074219 29.4375 27.976562 28.996094 C 29.808594 28.597656 31.640625 28.597656 33.472656 28.996094 C 36.285156 29.664062 37.945312 31.421875 38.453125 34.265625 C 38.625 35.320312 38.628906 36.378906 38.464844 37.433594 Z M 3.492188 28.792969 C 4.109375 29.402344 4.828125 29.855469 5.652344 30.148438 C 6.027344 30.28125 6.402344 30.398438 6.78125 30.496094 C 6.453125 30.5 6.125 30.488281 5.796875 30.460938 C 5.59375 30.445312 5.394531 30.414062 5.195312 30.363281 C 4.496094 29.984375 3.925781 29.457031 3.492188 28.792969 Z M 46.074219 37.722656 C 46.0625 38.792969 46.054688 39.867188 46.050781 40.9375 C 43.839844 40.925781 41.632812 40.980469 39.425781 41.09375 C 39.0625 41.125 38.703125 41.175781 38.347656 41.25 C 38.339844 41.234375 38.328125 41.21875 38.320312 41.203125 C 38.539062 40.113281 38.601562 39.019531 38.515625 37.914062 C 41.035156 37.835938 43.554688 37.773438 46.074219 37.722656 Z M 21.6875 40.195312 C 21.769531 41.199219 22.082031 42.128906 22.625 42.980469 C 22.429688 43.015625 22.234375 43.03125 22.035156 43.027344 C 20.566406 42.980469 19.097656 42.914062 17.628906 42.824219 C 16.605469 42.75 15.589844 42.605469 14.582031 42.390625 C 14.535156 42.28125 14.519531 42.167969 14.535156 42.042969 C 15.472656 41.828125 16.410156 41.597656 17.34375 41.359375 C 18.792969 40.972656 20.242188 40.585938 21.6875 40.195312 Z M 21.6875 40.195312 "/>
</g>
</defs>
<g id="surface1">
<use xlink:href="#surface6" mask="url(#mask0)"/>
<path style=" stroke:none;fill-rule:evenodd;fill:rgb(99.607843%,99.607843%,99.607843%);fill-opacity:1;" d="M 30.015625 19 C 30.039062 19.003906 30.058594 18.996094 30.066406 18.976562 C 31.804688 18.675781 33.328125 17.9375 34.625 16.753906 C 35.929688 15.59375 36.691406 14.140625 36.917969 12.398438 C 37.089844 11.007812 37.09375 9.613281 36.929688 8.222656 C 39.777344 8.296875 42.628906 8.378906 45.476562 8.460938 C 45.464844 9.894531 45.476562 11.324219 45.511719 12.757812 C 45.535156 13.269531 45.566406 13.78125 45.605469 14.292969 C 45.710938 15.511719 45.820312 16.726562 45.929688 17.941406 C 46.007812 21.097656 46.085938 24.25 46.171875 27.398438 C 46.164062 30.84375 46.132812 34.285156 46.074219 37.722656 C 43.554688 37.773438 41.035156 37.835938 38.515625 37.914062 C 38.484375 37.757812 38.46875 37.597656 38.464844 37.433594 C 38.628906 36.378906 38.625 35.320312 38.453125 34.265625 C 37.945312 31.421875 36.285156 29.664062 33.472656 28.996094 C 31.640625 28.597656 29.808594 28.597656 27.976562 28.996094 C 26.074219 29.4375 24.589844 30.464844 23.523438 32.082031 C 22.777344 33.339844 22.339844 34.699219 22.214844 36.160156 C 21.988281 36.84375 21.824219 37.539062 21.722656 38.25 C 21.65625 38.898438 21.644531 39.546875 21.6875 40.195312 C 20.242188 40.585938 18.792969 40.972656 17.34375 41.359375 C 16.410156 41.597656 15.472656 41.828125 14.535156 42.042969 C 14.464844 41.417969 14.398438 40.796875 14.332031 40.171875 C 14.199219 37.363281 14.132812 34.554688 14.136719 31.746094 C 14.183594 31.398438 14.238281 31.054688 14.304688 30.714844 C 14.332031 30.398438 14.316406 30.085938 14.257812 29.777344 C 14.070312 29.265625 13.703125 29.058594 13.167969 29.164062 C 12.972656 29.242188 12.789062 29.339844 12.613281 29.453125 C 12.332031 29.683594 12.054688 29.917969 11.773438 30.148438 C 11.441406 30.226562 11.105469 30.292969 10.765625 30.339844 C 9.441406 30.46875 8.113281 30.519531 6.78125 30.496094 C 6.402344 30.398438 6.027344 30.28125 5.652344 30.148438 C 4.828125 29.855469 4.109375 29.402344 3.492188 28.792969 C 3.492188 28.777344 3.484375 28.769531 3.46875 28.769531 C 3.46875 28.753906 3.460938 28.746094 3.445312 28.746094 C 3.449219 28.722656 3.441406 28.703125 3.421875 28.695312 C 3.421875 28.679688 3.414062 28.671875 3.398438 28.671875 C 3.074219 28.167969 2.839844 27.625 2.6875 27.039062 C 2.402344 25.859375 2.421875 24.683594 2.75 23.511719 C 2.769531 23.496094 2.777344 23.472656 2.773438 23.441406 C 2.792969 23.421875 2.800781 23.398438 2.796875 23.367188 C 2.816406 23.351562 2.824219 23.328125 2.820312 23.296875 C 2.84375 23.277344 2.851562 23.253906 2.84375 23.222656 C 2.863281 23.214844 2.871094 23.199219 2.867188 23.175781 C 2.890625 23.160156 2.898438 23.132812 2.890625 23.105469 C 2.914062 23.085938 2.921875 23.0625 2.917969 23.03125 C 3.554688 21.492188 4.652344 20.417969 6.203125 19.804688 C 7.28125 19.417969 8.394531 19.230469 9.542969 19.238281 C 9.757812 19.273438 9.964844 19.332031 10.164062 19.417969 C 10.644531 19.648438 11.132812 19.855469 11.628906 20.042969 C 11.871094 20.121094 12.121094 20.15625 12.375 20.140625 C 12.679688 20.054688 12.878906 19.859375 12.960938 19.550781 C 13.085938 18.972656 13.128906 18.390625 13.082031 17.800781 C 12.808594 14.957031 12.453125 12.125 12.015625 9.300781 C 12.011719 8.828125 12.015625 8.355469 12.027344 7.886719 C 12.03125 7.820312 12.042969 7.753906 12.0625 7.691406 C 15.140625 7.667969 18.222656 7.660156 21.304688 7.667969 C 21.210938 8.835938 21.191406 10.003906 21.242188 11.171875 C 21.292969 12.585938 21.492188 13.980469 21.84375 15.351562 C 22.109375 16.417969 22.566406 17.394531 23.210938 18.277344 C 24.152344 19.457031 25.382812 19.996094 26.894531 19.898438 C 27.992188 19.785156 29.03125 19.484375 30.015625 19 Z M 38.464844 37.433594 C 38.257812 36.078125 37.691406 34.894531 36.773438 33.882812 C 35.070312 32.042969 32.960938 31.039062 30.449219 30.867188 C 29.128906 30.738281 27.839844 30.882812 26.585938 31.300781 C 25.414062 31.75 24.449219 32.472656 23.691406 33.472656 C 23.070312 34.296875 22.578125 35.191406 22.214844 36.160156 C 22.339844 34.699219 22.777344 33.339844 23.523438 32.082031 C 24.589844 30.464844 26.074219 29.4375 27.976562 28.996094 C 29.808594 28.597656 31.640625 28.597656 33.472656 28.996094 C 36.285156 29.664062 37.945312 31.421875 38.453125 34.265625 C 38.625 35.320312 38.628906 36.378906 38.464844 37.433594 Z M 38.464844 37.433594 "/>
</g>
</svg>
