<?xml version="1.0" encoding="UTF-8"?>
<svg xmlns="http://www.w3.org/2000/svg" xmlns:xlink="http://www.w3.org/1999/xlink" width="50pt" height="50pt" viewBox="0 0 50 50" version="1.1">
<defs>
<filter id="alpha" filterUnits="objectBoundingBox" x="0%" y="0%" width="100%" height="100%">
  <feColorMatrix type="matrix" in="SourceGraphic" values="0 0 0 0 1 0 0 0 0 1 0 0 0 0 1 0 0 0 1 0"/>
</filter>
<mask id="mask0">
  <g filter="url(#alpha)">
<rect x="0" y="0" width="50" height="50" style="fill:rgb(0%,0%,0%);fill-opacity:0.960784;stroke:none;"/>
  </g>
</mask>
<clipPath id="clip1">
  <rect width="50" height="50"/>
</clipPath>
<g id="surface6" clip-path="url(#clip1)">
<path style=" stroke:none;fill-rule:evenodd;fill:rgb(1.960784%,1.568627%,1.960784%);fill-opacity:1;" d="M 33.804688 1.511719 C 33.867188 1.964844 33.953125 2.414062 34.070312 2.855469 C 34.320312 3.492188 34.558594 4.132812 34.789062 4.773438 C 34.839844 5.042969 34.808594 5.300781 34.691406 5.542969 C 34.417969 5.835938 34.128906 5.851562 33.828125 5.589844 C 33.070312 4.453125 32.628906 3.207031 32.507812 1.847656 C 32.515625 1.78125 32.507812 1.71875 32.484375 1.65625 C 30.445312 2.0625 28.421875 2.550781 26.414062 3.117188 C 26.375 3.167969 26.359375 3.222656 26.367188 3.285156 C 26.070312 3.292969 25.773438 3.324219 25.480469 3.382812 C 25.359375 3.378906 25.238281 3.359375 25.121094 3.335938 C 22.847656 3.867188 20.578125 4.402344 18.304688 4.941406 C 16.535156 5.582031 14.730469 6.09375 12.882812 6.476562 C 12.394531 6.5625 12.195312 6.363281 12.285156 5.878906 C 12.359375 5.804688 12.449219 5.75 12.546875 5.710938 C 16.34375 4.671875 20.148438 3.683594 23.96875 2.734375 C 24.699219 2.558594 25.433594 2.417969 26.175781 2.304688 C 28.367188 1.558594 30.589844 0.917969 32.84375 0.382812 C 33.292969 0.253906 33.589844 0.402344 33.734375 0.839844 C 33.757812 1.0625 33.78125 1.289062 33.804688 1.511719 Z M 33.804688 1.511719 "/>
</g>
<mask id="mask1">
  <g filter="url(#alpha)">
<rect x="0" y="0" width="50" height="50" style="fill:rgb(0%,0%,0%);fill-opacity:0.996078;stroke:none;"/>
  </g>
</mask>
<clipPath id="clip2">
  <rect width="50" height="50"/>
</clipPath>
<g id="surface9" clip-path="url(#clip2)">
<path style=" stroke:none;fill-rule:evenodd;fill:rgb(66.27451%,22.745098%,17.647059%);fill-opacity:1;" d="M 25.839844 32.316406 C 25.839844 32.191406 25.839844 32.0625 25.839844 31.933594 C 27.367188 31.664062 28.820312 31.183594 30.207031 30.496094 C 30.449219 30.636719 30.675781 30.613281 30.878906 30.421875 C 30.957031 30.40625 31.039062 30.390625 31.117188 30.375 C 31.066406 30.292969 31.097656 30.242188 31.214844 30.230469 C 33.691406 29.597656 36.171875 28.976562 38.652344 28.359375 C 39.222656 28.234375 39.511719 27.882812 39.515625 27.304688 C 39.488281 27.039062 39.449219 26.773438 39.394531 26.511719 C 38.554688 24.027344 37.945312 21.484375 37.570312 18.882812 C 37.4375 17.988281 37.308594 17.089844 37.1875 16.195312 C 36.929688 15.753906 36.566406 15.648438 36.109375 15.882812 C 36.074219 15.941406 36.035156 16 35.988281 16.050781 C 36.300781 19.878906 37.09375 23.605469 38.363281 27.230469 C 35.609375 28.039062 32.839844 28.816406 30.0625 29.558594 C 29.539062 29.8125 29.011719 30.050781 28.480469 30.277344 C 26.390625 30.984375 24.246094 31.441406 22.050781 31.644531 C 21.3125 29.457031 20.558594 27.273438 19.792969 25.097656 C 20.738281 25.117188 21.679688 25.117188 22.625 25.097656 C 23.339844 25.070312 24.027344 24.925781 24.6875 24.664062 C 25.148438 24.4375 25.316406 24.078125 25.191406 23.585938 C 25.070312 23.289062 24.910156 23.019531 24.710938 22.769531 C 23.335938 21.363281 21.695312 20.378906 19.792969 19.816406 C 19.355469 19.6875 18.90625 19.636719 18.449219 19.671875 C 18.28125 19.722656 18.113281 19.777344 17.945312 19.839844 C 17.792969 19.785156 17.664062 19.6875 17.5625 19.554688 C 17.21875 18.972656 16.933594 18.367188 16.699219 17.730469 C 15.496094 14.085938 14.464844 10.390625 13.605469 6.644531 C 19.890625 5 26.195312 3.402344 32.507812 1.847656 C 32.628906 3.207031 33.070312 4.453125 33.828125 5.589844 C 34.128906 5.851562 34.417969 5.835938 34.691406 5.542969 C 34.808594 5.300781 34.839844 5.042969 34.789062 4.773438 C 34.558594 4.132812 34.320312 3.492188 34.070312 2.855469 C 33.953125 2.414062 33.867188 1.964844 33.804688 1.511719 C 34.21875 1.398438 34.636719 1.289062 35.054688 1.175781 C 35.722656 5.300781 36.402344 9.429688 37.09375 13.554688 C 37.59375 16.472656 38.136719 19.386719 38.722656 22.289062 C 39.09375 24.226562 39.585938 26.128906 40.210938 28 C 40.292969 28.207031 40.414062 28.394531 40.570312 28.550781 C 35.667969 29.828125 30.757812 31.085938 25.839844 32.316406 Z M 25.839844 32.316406 "/>
</g>
<mask id="mask2">
  <g filter="url(#alpha)">
<rect x="0" y="0" width="50" height="50" style="fill:rgb(0%,0%,0%);fill-opacity:0.698039;stroke:none;"/>
  </g>
</mask>
<clipPath id="clip3">
  <rect width="50" height="50"/>
</clipPath>
<g id="surface12" clip-path="url(#clip3)">
<path style=" stroke:none;fill-rule:evenodd;fill:rgb(83.137255%,82.745098%,80%);fill-opacity:1;" d="M 12.738281 1.945312 C 12.945312 1.964844 12.980469 2.054688 12.835938 2.207031 C 12.789062 2.230469 12.742188 2.238281 12.691406 2.230469 C 12.683594 2.128906 12.699219 2.035156 12.738281 1.945312 Z M 12.738281 1.945312 "/>
</g>
<mask id="mask3">
  <g filter="url(#alpha)">
<rect x="0" y="0" width="50" height="50" style="fill:rgb(0%,0%,0%);fill-opacity:0.956863;stroke:none;"/>
  </g>
</mask>
<clipPath id="clip4">
  <rect width="50" height="50"/>
</clipPath>
<g id="surface15" clip-path="url(#clip4)">
<path style=" stroke:none;fill-rule:evenodd;fill:rgb(1.568627%,1.568627%,1.960784%);fill-opacity:1;" d="M 22.050781 31.644531 C 24.246094 31.441406 26.390625 30.984375 28.480469 30.277344 C 29.011719 30.050781 29.539062 29.8125 30.0625 29.558594 C 32.839844 28.816406 35.609375 28.039062 38.363281 27.230469 C 37.09375 23.605469 36.300781 19.878906 35.988281 16.050781 C 36.035156 16 36.074219 15.941406 36.109375 15.882812 C 36.566406 15.648438 36.929688 15.753906 37.1875 16.195312 C 37.308594 17.089844 37.4375 17.988281 37.570312 18.882812 C 37.945312 21.484375 38.554688 24.027344 39.394531 26.511719 C 39.449219 26.773438 39.488281 27.039062 39.515625 27.304688 C 39.511719 27.882812 39.222656 28.234375 38.652344 28.359375 C 36.171875 28.976562 33.691406 29.597656 31.214844 30.230469 C 31.097656 30.242188 31.066406 30.292969 31.117188 30.375 C 31.039062 30.390625 30.957031 30.40625 30.878906 30.421875 C 30.675781 30.613281 30.449219 30.636719 30.207031 30.496094 C 28.820312 31.183594 27.367188 31.664062 25.839844 31.933594 C 25.839844 32.0625 25.839844 32.191406 25.839844 32.316406 C 25.8125 32.554688 25.738281 32.777344 25.625 32.988281 C 25.117188 33.988281 24.574219 34.964844 23.992188 35.917969 C 23.984375 36.027344 23.976562 36.140625 23.96875 36.253906 C 24.058594 37.714844 24.242188 39.171875 24.519531 40.617188 C 24.859375 40.128906 25.203125 39.640625 25.550781 39.15625 C 25.664062 39.125 25.777344 39.125 25.886719 39.15625 C 26.042969 39.339844 26.1875 39.53125 26.320312 39.730469 C 26.578125 39.636719 26.738281 39.726562 26.800781 39.996094 C 26.683594 40.230469 26.5 40.390625 26.246094 40.476562 C 26.15625 40.46875 26.078125 40.4375 26.007812 40.378906 C 25.9375 40.171875 25.839844 39.980469 25.71875 39.804688 C 25.34375 40.308594 24.96875 40.8125 24.59375 41.316406 C 24.953125 43.617188 25.304688 45.917969 25.648438 48.222656 C 25.582031 48.628906 25.359375 48.769531 24.976562 48.65625 C 24.878906 48.597656 24.820312 48.507812 24.808594 48.390625 C 24.488281 46.28125 24.167969 44.167969 23.847656 42.058594 C 23.542969 42.246094 23.214844 42.285156 22.863281 42.179688 C 22.46875 42.011719 22.082031 41.820312 21.714844 41.601562 C 21.332031 41.4375 20.960938 41.46875 20.609375 41.699219 C 20.226562 42.019531 19.839844 42.339844 19.457031 42.660156 C 19 43.039062 18.480469 43.175781 17.898438 43.066406 C 17.648438 45.1875 17.199219 47.265625 16.554688 49.304688 C 16.441406 49.574219 16.242188 49.660156 15.953125 49.566406 C 15.726562 49.449219 15.65625 49.265625 15.738281 49.015625 C 16.398438 46.933594 16.835938 44.804688 17.058594 42.632812 C 16.804688 42.300781 16.664062 41.925781 16.625 41.507812 C 16.648438 41.1875 16.800781 41.097656 17.082031 41.242188 C 17.097656 41.210938 17.113281 41.179688 17.128906 41.148438 C 17.1875 40.085938 17.148438 39.03125 17.011719 37.980469 C 16.867188 38.011719 16.722656 38.019531 16.578125 38.003906 C 16.6875 37.871094 16.792969 37.734375 16.890625 37.597656 C 16.863281 37.394531 16.871094 37.195312 16.914062 36.996094 C 16.742188 35.988281 16.527344 34.988281 16.265625 33.996094 C 15.550781 32.933594 14.847656 31.863281 14.15625 30.78125 C 13.5625 29.671875 13.339844 28.488281 13.484375 27.230469 C 13.507812 26.84375 13.558594 26.460938 13.628906 26.078125 C 13.679688 25.917969 13.753906 25.765625 13.84375 25.625 C 13.589844 25.527344 13.4375 25.34375 13.386719 25.070312 C 13.171875 24.082031 13.019531 23.082031 12.933594 22.074219 C 12.945312 21.578125 13.082031 21.121094 13.339844 20.707031 C 13.550781 20.480469 13.773438 20.273438 14.011719 20.082031 C 14.121094 19.902344 14.152344 19.710938 14.109375 19.503906 C 13.539062 17.984375 12.890625 16.496094 12.164062 15.042969 C 12.128906 14.984375 12.085938 14.984375 12.042969 15.042969 C 11.707031 14.390625 11.371094 13.734375 11.035156 13.074219 C 11.003906 13.015625 11.011719 12.957031 11.058594 12.90625 C 11.011719 12.867188 10.964844 12.828125 10.917969 12.789062 C 10.84375 12.558594 10.730469 12.351562 10.582031 12.164062 C 10.621094 12.117188 10.628906 12.070312 10.605469 12.019531 C 10.507812 11.9375 10.425781 11.84375 10.363281 11.730469 C 10.359375 11.492188 10.296875 11.265625 10.171875 11.058594 C 9.996094 10.957031 9.859375 10.8125 9.765625 10.628906 C 9.808594 10.578125 9.839844 10.523438 9.859375 10.460938 C 9.769531 10.257812 9.65625 10.0625 9.523438 9.886719 C 9.554688 9.808594 9.601562 9.742188 9.667969 9.691406 C 9.609375 9.492188 9.671875 9.332031 9.859375 9.214844 C 10.105469 9.109375 10.3125 8.957031 10.484375 8.757812 C 10.589844 8.707031 10.703125 8.671875 10.820312 8.660156 C 10.804688 8.546875 10.78125 8.4375 10.75 8.324219 C 10.578125 8.027344 10.417969 7.726562 10.269531 7.414062 C 10.296875 6.996094 10.511719 6.859375 10.917969 7.003906 C 11.203125 7.398438 11.4375 7.820312 11.613281 8.277344 C 11.75 8.414062 11.871094 8.398438 11.972656 8.230469 C 11.796875 7.71875 11.621094 7.207031 11.445312 6.695312 C 11.511719 6.425781 11.570312 6.152344 11.613281 5.878906 C 11.742188 5.75 11.867188 5.75 11.996094 5.878906 C 12.34375 7.375 12.90625 8.78125 13.675781 10.101562 C 13.664062 10.226562 13.664062 10.355469 13.675781 10.484375 C 14.339844 12.773438 15.011719 15.0625 15.691406 17.347656 C 15.839844 17.8125 16 18.277344 16.171875 18.738281 C 16.578125 19.601562 16.945312 20.480469 17.273438 21.378906 C 17.347656 21.425781 17.417969 21.417969 17.492188 21.351562 C 17.605469 21.164062 17.703125 20.960938 17.777344 20.753906 C 17.90625 20.640625 18.050781 20.554688 18.210938 20.488281 C 18.753906 20.449219 19.300781 20.464844 19.839844 20.539062 C 20.324219 20.75 20.820312 20.925781 21.328125 21.066406 C 22.230469 21.46875 22.972656 22.070312 23.558594 22.863281 C 23.707031 23.167969 23.757812 23.488281 23.703125 23.824219 C 23.648438 23.945312 23.558594 24.03125 23.441406 24.089844 C 22.691406 24.164062 21.941406 24.179688 21.183594 24.136719 C 20.605469 24.070312 20.03125 24.007812 19.457031 23.945312 C 19.433594 23.96875 19.410156 23.992188 19.386719 24.015625 C 19.339844 24.269531 19.308594 24.527344 19.289062 24.785156 C 19.046875 25.363281 19.015625 25.957031 19.195312 26.558594 C 19.621094 27.6875 20.070312 28.804688 20.539062 29.917969 C 20.757812 30.375 21.011719 30.804688 21.304688 31.214844 C 21.417969 31.488281 21.53125 31.757812 21.640625 32.03125 C 21.679688 31.796875 21.816406 31.671875 22.050781 31.644531 Z M 12.210938 9.046875 C 12.277344 9.035156 12.332031 9.054688 12.378906 9.09375 C 13.039062 10.632812 13.550781 12.214844 13.914062 13.84375 C 13.160156 12.335938 12.515625 10.785156 11.972656 9.1875 C 12.050781 9.132812 12.132812 9.082031 12.210938 9.046875 Z M 16.050781 22.625 C 15.804688 22.289062 15.601562 21.921875 15.449219 21.519531 C 15.25 20.695312 15.007812 19.878906 14.730469 19.074219 C 14.347656 18.179688 13.964844 17.28125 13.578125 16.386719 C 12.519531 14.179688 11.441406 11.980469 10.339844 9.789062 C 10.585938 9.59375 10.859375 9.464844 11.15625 9.40625 C 11.507812 10.289062 11.851562 11.175781 12.1875 12.066406 C 12.820312 13.367188 13.429688 14.679688 14.011719 16.003906 C 14.5 17.355469 14.917969 18.730469 15.257812 20.128906 C 15.507812 20.96875 15.773438 21.800781 16.050781 22.625 Z M 14.277344 20.707031 C 14.699219 21.628906 15.097656 22.5625 15.476562 23.511719 C 14.984375 24.082031 14.511719 24.667969 14.058594 25.265625 C 13.90625 25.035156 13.882812 24.804688 13.988281 24.566406 C 13.800781 23.753906 13.691406 22.929688 13.652344 22.097656 C 13.613281 21.515625 13.820312 21.054688 14.277344 20.707031 Z M 16.386719 21.042969 C 16.472656 21.152344 16.519531 21.277344 16.53125 21.425781 C 16.445312 21.316406 16.398438 21.1875 16.386719 21.042969 Z M 22.386719 32.605469 C 22.441406 32.777344 22.492188 32.953125 22.527344 33.132812 C 23.25 32.980469 23.96875 32.820312 24.6875 32.652344 C 24.222656 33.601562 23.71875 34.53125 23.175781 35.4375 C 22.945312 36.035156 22.957031 36.609375 23.199219 37.164062 C 23.167969 37.226562 23.136719 37.292969 23.105469 37.355469 C 23.335938 38.640625 23.542969 39.945312 23.726562 41.265625 C 23.710938 41.324219 23.695312 41.378906 23.679688 41.433594 C 23.425781 41.605469 23.152344 41.648438 22.863281 41.554688 C 22.507812 41.339844 22.140625 41.148438 21.761719 40.980469 C 21.246094 40.84375 20.765625 40.921875 20.320312 41.21875 C 19.875 41.585938 19.425781 41.953125 18.976562 42.324219 C 18.667969 42.519531 18.332031 42.585938 17.96875 42.515625 C 17.941406 42.4375 17.925781 42.359375 17.921875 42.273438 C 18.050781 40.523438 18.035156 38.769531 17.875 37.019531 C 17.808594 37.019531 17.746094 37.019531 17.683594 37.019531 C 17.59375 35.425781 17.152344 33.941406 16.363281 32.558594 C 15.878906 31.929688 15.417969 31.292969 14.972656 30.636719 C 14.265625 29.261719 14.089844 27.824219 14.445312 26.320312 C 14.539062 26.128906 14.636719 25.9375 14.730469 25.742188 C 15.933594 24.21875 17.175781 22.726562 18.449219 21.257812 C 19.289062 21.175781 20.089844 21.328125 20.847656 21.714844 C 20.839844 21.664062 20.863281 21.617188 20.921875 21.570312 C 21.933594 21.886719 22.695312 22.507812 23.199219 23.441406 C 23.175781 23.488281 23.144531 23.527344 23.105469 23.558594 C 21.894531 23.640625 20.695312 23.570312 19.503906 23.34375 C 19.195312 23.320312 18.976562 23.449219 18.859375 23.726562 C 18.816406 24.265625 18.722656 24.792969 18.570312 25.3125 C 18.496094 25.902344 18.5625 26.480469 18.761719 27.039062 C 19.125 27.914062 19.476562 28.796875 19.816406 29.679688 C 20.132812 30.355469 20.484375 31.011719 20.875 31.644531 C 20.992188 31.929688 21.09375 32.21875 21.183594 32.507812 C 21.285156 32.621094 21.398438 32.628906 21.519531 32.535156 C 21.597656 32.445312 21.636719 32.34375 21.640625 32.222656 C 21.664062 32.34375 21.722656 32.445312 21.808594 32.535156 C 21.996094 32.597656 22.1875 32.621094 22.386719 32.605469 Z M 22.386719 32.605469 "/>
</g>
<mask id="mask4">
  <g filter="url(#alpha)">
<rect x="0" y="0" width="50" height="50" style="fill:rgb(0%,0%,0%);fill-opacity:0.952941;stroke:none;"/>
  </g>
</mask>
<clipPath id="clip5">
  <rect width="50" height="50"/>
</clipPath>
<g id="surface18" clip-path="url(#clip5)">
<path style=" stroke:none;fill-rule:evenodd;fill:rgb(65.098039%,22.352941%,17.647059%);fill-opacity:1;" d="M 24.6875 32.652344 C 23.96875 32.820312 23.25 32.980469 22.527344 33.132812 C 22.492188 32.953125 22.441406 32.777344 22.386719 32.605469 C 23.210938 32.4375 24.042969 32.277344 24.878906 32.125 C 24.886719 32.320312 24.824219 32.496094 24.6875 32.652344 Z M 24.6875 32.652344 "/>
</g>
</defs>
<g id="surface1">
<use xlink:href="#surface6" mask="url(#mask0)"/>
<use xlink:href="#surface9" mask="url(#mask1)"/>
<use xlink:href="#surface12" mask="url(#mask2)"/>
<path style=" stroke:none;fill-rule:evenodd;fill:rgb(4.313725%,3.137255%,3.137255%);fill-opacity:1;" d="M 23.535156 4.824219 C 23.648438 4.816406 23.761719 4.824219 23.871094 4.847656 C 24.019531 5.019531 23.984375 5.144531 23.777344 5.230469 C 23.523438 5.320312 23.265625 5.398438 23.007812 5.46875 C 20.527344 5.847656 18.113281 6.46875 15.761719 7.339844 C 15.554688 7.375 15.347656 7.375 15.140625 7.339844 C 15 7.25 14.964844 7.132812 15.042969 6.980469 C 15.25 6.941406 15.457031 6.917969 15.667969 6.910156 C 17.449219 6.25 19.273438 5.738281 21.136719 5.375 C 21.972656 5.3125 22.769531 5.128906 23.535156 4.824219 Z M 23.535156 4.824219 "/>
<use xlink:href="#surface15" mask="url(#mask3)"/>
<path style=" stroke:none;fill-rule:evenodd;fill:rgb(4.705882%,3.137255%,3.137255%);fill-opacity:1;" d="M 25.648438 14.898438 C 25.859375 14.851562 26.003906 14.925781 26.078125 15.113281 C 26.050781 15.191406 26.003906 15.257812 25.9375 15.308594 C 24.558594 15.585938 23.230469 16.015625 21.953125 16.601562 C 20.960938 17.082031 19.96875 17.5625 18.976562 18.042969 C 18.667969 18.117188 18.554688 18.003906 18.640625 17.707031 C 20.355469 16.816406 22.117188 16.035156 23.921875 15.355469 C 24.496094 15.171875 25.070312 15.019531 25.648438 14.898438 Z M 25.648438 14.898438 "/>
<path style=" stroke:none;fill-rule:evenodd;fill:rgb(62.745098%,61.568627%,60%);fill-opacity:1;" d="M 14.609375 15.570312 C 14.722656 15.6875 14.796875 15.832031 14.828125 16.003906 C 14.925781 16.40625 15.042969 16.804688 15.1875 17.203125 C 15.082031 17.234375 15.007812 17.1875 14.972656 17.058594 C 14.925781 16.902344 14.867188 16.75 14.804688 16.601562 C 14.816406 16.5625 14.832031 16.519531 14.851562 16.484375 C 14.703125 16.242188 14.589844 15.988281 14.515625 15.714844 C 14.546875 15.667969 14.582031 15.617188 14.609375 15.570312 Z M 14.609375 15.570312 "/>
<path style=" stroke:none;fill-rule:evenodd;fill:rgb(4.705882%,3.529412%,3.529412%);fill-opacity:1;" d="M 26.128906 15.953125 C 26.339844 15.941406 26.546875 15.964844 26.75 16.027344 C 26.816406 16.140625 26.816406 16.25 26.75 16.363281 C 26.066406 16.390625 25.394531 16.503906 24.734375 16.699219 C 23.359375 17.214844 21.992188 17.75 20.632812 18.304688 C 20.320312 18.441406 20.175781 18.34375 20.203125 18.019531 C 20.300781 17.941406 20.40625 17.867188 20.511719 17.800781 C 21.664062 17.453125 22.78125 17.019531 23.871094 16.507812 C 24.613281 16.253906 25.363281 16.070312 26.128906 15.953125 Z M 26.128906 15.953125 "/>
<path style=" stroke:none;fill-rule:evenodd;fill:rgb(5.882353%,4.313725%,3.921569%);fill-opacity:1;" d="M 25.167969 17.730469 C 25.34375 17.722656 25.519531 17.730469 25.695312 17.753906 C 25.828125 17.898438 25.8125 18.023438 25.648438 18.136719 C 24.628906 18.316406 23.675781 18.675781 22.792969 19.21875 C 22.515625 19.070312 22.507812 18.902344 22.769531 18.714844 C 23.542969 18.304688 24.339844 17.976562 25.167969 17.730469 Z M 25.167969 17.730469 "/>
<use xlink:href="#surface18" mask="url(#mask4)"/>
</g>
</svg>
