<?xml version="1.0" encoding="UTF-8"?>
<svg xmlns="http://www.w3.org/2000/svg" xmlns:xlink="http://www.w3.org/1999/xlink" width="50pt" height="50pt" viewBox="0 0 50 50" version="1.1">
<defs>
<filter id="alpha" filterUnits="objectBoundingBox" x="0%" y="0%" width="100%" height="100%">
  <feColorMatrix type="matrix" in="SourceGraphic" values="0 0 0 0 1 0 0 0 0 1 0 0 0 0 1 0 0 0 1 0"/>
</filter>
<mask id="mask0">
  <g filter="url(#alpha)">
<rect x="0" y="0" width="50" height="50" style="fill:rgb(0%,0%,0%);fill-opacity:0.980392;stroke:none;"/>
  </g>
</mask>
<clipPath id="clip1">
  <rect width="50" height="50"/>
</clipPath>
<g id="surface6" clip-path="url(#clip1)">
<path style=" stroke:none;fill-rule:evenodd;fill:rgb(66.666667%,23.137255%,18.039216%);fill-opacity:1;" d="M 15.949219 6.445312 C 15.730469 6.773438 15.523438 7.109375 15.328125 7.453125 C 13.84375 9.988281 12.320312 12.503906 10.765625 14.992188 C 10.464844 15.445312 10.152344 15.894531 9.828125 16.335938 C 9.675781 16.535156 9.503906 16.550781 9.3125 16.382812 C 9.257812 16.074219 9.214844 15.761719 9.195312 15.445312 C 9.1875 15.425781 9.175781 15.410156 9.15625 15.398438 C 8.976562 15.546875 8.785156 15.679688 8.582031 15.792969 C 8.320312 15.820312 8.203125 15.707031 8.234375 15.445312 C 8.449219 15.070312 8.632812 14.675781 8.785156 14.269531 C 8.808594 14.207031 8.816406 14.144531 8.808594 14.078125 C 8.371094 14.324219 7.925781 14.558594 7.476562 14.785156 C 7.1875 14.828125 7.074219 14.703125 7.128906 14.414062 C 7.40625 14.042969 7.628906 13.640625 7.789062 13.203125 C 7.859375 13.03125 7.871094 12.859375 7.824219 12.6875 C 7.804688 12.644531 7.777344 12.605469 7.742188 12.578125 C 7.253906 12.324219 6.738281 12.207031 6.191406 12.230469 C 5.914062 12.167969 5.839844 12.007812 5.976562 11.75 C 8.027344 8.429688 10.09375 5.117188 12.171875 1.8125 C 12.253906 1.683594 12.34375 1.558594 12.445312 1.441406 C 12.601562 1.371094 12.730469 1.402344 12.84375 1.523438 C 13.007812 2.261719 13.179688 3 13.359375 3.734375 C 13.753906 3.476562 14.144531 3.21875 14.535156 2.953125 C 14.726562 2.851562 14.875 2.894531 14.976562 3.085938 C 14.96875 3.4375 14.960938 3.789062 14.953125 4.140625 C 15.078125 4.03125 15.203125 3.925781 15.328125 3.816406 C 15.46875 3.761719 15.59375 3.789062 15.699219 3.902344 C 15.765625 4.167969 15.839844 4.429688 15.914062 4.691406 C 16.144531 4.550781 16.378906 4.417969 16.621094 4.296875 C 16.894531 4.273438 17.011719 4.398438 16.972656 4.667969 C 16.625 5.257812 16.285156 5.851562 15.949219 6.445312 Z M 15.949219 6.445312 "/>
</g>
<mask id="mask1">
  <g filter="url(#alpha)">
<rect x="0" y="0" width="50" height="50" style="fill:rgb(0%,0%,0%);fill-opacity:0.988235;stroke:none;"/>
  </g>
</mask>
<clipPath id="clip2">
  <rect width="50" height="50"/>
</clipPath>
<g id="surface9" clip-path="url(#clip2)">
<path style=" stroke:none;fill-rule:evenodd;fill:rgb(0.392157%,0.392157%,0.392157%);fill-opacity:1;" d="M 42.257812 36.257812 C 41.914062 36.585938 41.5625 36.90625 41.203125 37.21875 C 41.273438 35.875 41.320312 34.53125 41.335938 33.183594 C 41.4375 25.6875 41.445312 18.191406 41.359375 10.695312 C 41.285156 9.628906 41.265625 8.566406 41.296875 7.5 C 41.320312 7.441406 41.328125 7.378906 41.324219 7.308594 C 41.261719 7.300781 41.207031 7.308594 41.15625 7.332031 C 34.722656 7.339844 28.289062 7.359375 21.855469 7.394531 C 19.679688 7.394531 17.503906 7.414062 15.328125 7.453125 C 15.523438 7.109375 15.730469 6.773438 15.949219 6.445312 C 23.421875 6.425781 30.898438 6.398438 38.371094 6.359375 C 39.011719 6.34375 39.648438 6.332031 40.289062 6.324219 C 40.789062 6.320312 41.285156 6.339844 41.777344 6.386719 C 41.871094 6.414062 41.957031 6.457031 42.03125 6.515625 C 42.128906 6.664062 42.183594 6.820312 42.199219 6.996094 C 42.265625 7.484375 42.304688 7.972656 42.320312 8.460938 C 42.335938 11.269531 42.359375 14.078125 42.390625 16.886719 C 42.425781 23.34375 42.382812 29.800781 42.257812 36.257812 Z M 42.257812 36.257812 "/>
</g>
<mask id="mask2">
  <g filter="url(#alpha)">
<rect x="0" y="0" width="50" height="50" style="fill:rgb(0%,0%,0%);fill-opacity:0.992157;stroke:none;"/>
  </g>
</mask>
<clipPath id="clip3">
  <rect width="50" height="50"/>
</clipPath>
<g id="surface12" clip-path="url(#clip3)">
<path style=" stroke:none;fill-rule:evenodd;fill:rgb(0.392157%,0.392157%,0.392157%);fill-opacity:1;" d="M 10.765625 14.992188 C 10.851562 15.980469 10.910156 16.972656 10.945312 17.96875 C 11.054688 21.101562 11.136719 24.238281 11.1875 27.375 C 11.203125 29.890625 11.203125 32.402344 11.1875 34.914062 C 11.128906 37.699219 11.074219 40.484375 11.019531 43.265625 C 10.996094 43.714844 10.957031 44.164062 10.910156 44.609375 C 12.003906 44.691406 13.101562 44.75 14.199219 44.777344 C 15.839844 44.894531 17.488281 44.96875 19.144531 45.007812 C 22.519531 45.089844 25.898438 45.042969 29.273438 44.863281 C 30.546875 44.78125 31.820312 44.683594 33.089844 44.5625 C 33.136719 44.546875 33.183594 44.539062 33.234375 44.539062 C 33.15625 44.691406 33.179688 44.820312 33.304688 44.933594 C 33.746094 45.039062 34.148438 45.226562 34.503906 45.5 C 33.976562 45.558594 33.449219 45.605469 32.921875 45.644531 C 30.035156 45.8125 27.144531 45.925781 24.257812 45.992188 C 20.933594 46.042969 17.613281 45.984375 14.292969 45.8125 C 13.019531 45.746094 11.746094 45.644531 10.476562 45.511719 C 10.351562 45.480469 10.253906 45.414062 10.175781 45.308594 C 10.140625 45.175781 10.082031 45.058594 10.007812 44.945312 C 9.953125 44.332031 9.933594 43.714844 9.960938 43.097656 C 10.101562 40.789062 10.183594 38.476562 10.203125 36.160156 C 10.316406 29.546875 10.191406 22.9375 9.828125 16.335938 C 10.152344 15.894531 10.464844 15.445312 10.765625 14.992188 Z M 10.765625 14.992188 "/>
</g>
<mask id="mask3">
  <g filter="url(#alpha)">
<rect x="0" y="0" width="50" height="50" style="fill:rgb(0%,0%,0%);fill-opacity:0.984314;stroke:none;"/>
  </g>
</mask>
<clipPath id="clip4">
  <rect width="50" height="50"/>
</clipPath>
<g id="surface15" clip-path="url(#clip4)">
<path style=" stroke:none;fill-rule:evenodd;fill:rgb(66.666667%,23.137255%,18.039216%);fill-opacity:1;" d="M 42.257812 36.257812 C 42.488281 36.207031 42.625 36.296875 42.667969 36.523438 C 42.613281 37.25 42.574219 37.976562 42.546875 38.707031 C 43.039062 38.558594 43.53125 38.40625 44.023438 38.25 C 44.179688 38.277344 44.269531 38.371094 44.300781 38.527344 C 44.199219 38.847656 44.097656 39.167969 43.988281 39.484375 C 43.996094 39.5 44.003906 39.511719 44.011719 39.523438 C 44.167969 39.433594 44.332031 39.363281 44.503906 39.304688 C 44.710938 39.335938 44.800781 39.457031 44.777344 39.667969 C 44.761719 39.882812 44.753906 40.097656 44.753906 40.3125 C 45.046875 40.234375 45.34375 40.175781 45.644531 40.132812 C 45.859375 40.242188 45.902344 40.398438 45.773438 40.601562 C 44.660156 41.6875 43.542969 42.769531 42.425781 43.855469 C 40.550781 45.667969 38.648438 47.441406 36.714844 49.183594 C 36.378906 49.46875 36.035156 49.734375 35.683594 49.988281 C 35.59375 49.988281 35.503906 49.988281 35.417969 49.988281 C 35.335938 49.925781 35.289062 49.84375 35.273438 49.734375 C 35.324219 49.460938 35.375 49.183594 35.417969 48.90625 C 35.410156 48.882812 35.402344 48.859375 35.394531 48.835938 C 35.175781 48.925781 34.953125 49 34.722656 49.050781 C 34.539062 49.050781 34.453125 48.957031 34.457031 48.777344 C 34.457031 48.71875 34.46875 48.667969 34.492188 48.621094 C 34.863281 48.28125 35.179688 47.902344 35.441406 47.480469 C 34.933594 47.578125 34.425781 47.6875 33.917969 47.804688 C 33.707031 47.773438 33.617188 47.65625 33.652344 47.445312 C 33.667969 47.410156 33.683594 47.378906 33.703125 47.347656 C 34.140625 47.015625 34.5 46.613281 34.78125 46.148438 C 34.832031 46.039062 34.847656 45.929688 34.828125 45.8125 C 34.738281 45.6875 34.632812 45.582031 34.503906 45.5 C 34.148438 45.226562 33.746094 45.039062 33.304688 44.933594 C 33.179688 44.820312 33.15625 44.691406 33.234375 44.539062 C 33.601562 44.195312 33.96875 43.851562 34.335938 43.507812 C 34.402344 43.46875 34.46875 43.425781 34.53125 43.375 C 36.742188 41.308594 38.96875 39.257812 41.203125 37.21875 C 41.5625 36.90625 41.914062 36.585938 42.257812 36.257812 Z M 42.257812 36.257812 "/>
</g>
<mask id="mask4">
  <g filter="url(#alpha)">
<rect x="0" y="0" width="50" height="50" style="fill:rgb(0%,0%,0%);fill-opacity:0.988235;stroke:none;"/>
  </g>
</mask>
<clipPath id="clip5">
  <rect width="50" height="50"/>
</clipPath>
<g id="surface18" clip-path="url(#clip5)">
<path style=" stroke:none;fill-rule:evenodd;fill:rgb(94.509804%,92.941176%,90.196078%);fill-opacity:1;" d="M 32.921875 45.644531 C 32.875 46.011719 32.816406 46.382812 32.753906 46.746094 C 28.398438 46.769531 24.046875 46.820312 19.695312 46.902344 C 18.460938 46.929688 17.230469 46.976562 16 47.046875 C 15.527344 47.0625 15.0625 47.121094 14.605469 47.226562 C 14.582031 47.226562 14.5625 47.21875 14.546875 47.203125 C 14.523438 47.132812 14.5 47.058594 14.472656 46.988281 C 14.402344 46.597656 14.339844 46.203125 14.292969 45.8125 C 17.613281 45.984375 20.933594 46.042969 24.257812 45.992188 C 27.144531 45.925781 30.035156 45.8125 32.921875 45.644531 Z M 32.921875 45.644531 "/>
</g>
</defs>
<g id="surface1">
<use xlink:href="#surface6" mask="url(#mask0)"/>
<path style=" stroke:none;fill-rule:evenodd;fill:rgb(94.509804%,92.941176%,90.196078%);fill-opacity:1;" d="M 12.46875 2.339844 C 12.617188 2.917969 12.75 3.5 12.867188 4.09375 C 12.882812 4.199219 12.921875 4.300781 12.972656 4.394531 C 13.078125 4.464844 13.191406 4.472656 13.308594 4.417969 C 13.667969 4.160156 14.035156 3.925781 14.414062 3.707031 C 14.398438 4.09375 14.386719 4.476562 14.378906 4.859375 C 14.457031 5.070312 14.597656 5.121094 14.796875 5.015625 C 14.960938 4.863281 15.132812 4.714844 15.300781 4.574219 C 15.378906 4.792969 15.4375 5.015625 15.484375 5.246094 C 15.535156 5.332031 15.609375 5.375 15.710938 5.363281 C 15.816406 5.355469 15.910156 5.328125 16 5.28125 C 14.222656 8.339844 12.402344 11.367188 10.539062 14.367188 C 10.28125 14.761719 10.015625 15.15625 9.746094 15.542969 C 9.722656 15.269531 9.691406 14.996094 9.648438 14.726562 C 9.546875 14.578125 9.414062 14.546875 9.253906 14.628906 C 9.246094 14.621094 9.238281 14.613281 9.230469 14.605469 C 9.355469 14.332031 9.402344 14.042969 9.363281 13.742188 C 9.335938 13.515625 9.210938 13.398438 8.988281 13.394531 C 8.695312 13.546875 8.398438 13.691406 8.101562 13.828125 C 8.320312 13.460938 8.414062 13.0625 8.378906 12.636719 C 8.328125 12.421875 8.210938 12.25 8.027344 12.121094 C 7.59375 11.910156 7.136719 11.761719 6.660156 11.679688 C 8.589844 8.5625 10.527344 5.449219 12.46875 2.339844 Z M 12.46875 2.339844 "/>
<use xlink:href="#surface9" mask="url(#mask1)"/>
<path style=" stroke:none;fill-rule:evenodd;fill:rgb(99.607843%,99.607843%,99.607843%);fill-opacity:1;" d="M 41.15625 7.332031 C 41.203125 7.332031 41.25 7.332031 41.296875 7.332031 C 41.296875 7.390625 41.296875 7.445312 41.296875 7.5 C 41.265625 8.566406 41.285156 9.628906 41.359375 10.695312 C 41.445312 18.191406 41.4375 25.6875 41.335938 33.183594 C 41.320312 34.53125 41.273438 35.875 41.203125 37.21875 C 38.96875 39.257812 36.742188 41.308594 34.53125 43.375 C 34.46875 43.425781 34.402344 43.46875 34.335938 43.507812 C 33.96875 43.535156 33.601562 43.558594 33.234375 43.578125 C 33.398438 42.441406 33.558594 41.308594 33.714844 40.171875 C 33.820312 40.179688 33.925781 40.171875 34.027344 40.144531 C 35.007812 40.109375 35.992188 40.082031 36.976562 40.0625 C 37.214844 39.953125 37.273438 39.78125 37.15625 39.546875 C 37.125 39.515625 37.089844 39.488281 37.050781 39.460938 C 35.976562 39.472656 34.90625 39.5 33.832031 39.546875 C 34.019531 38.273438 34.203125 37.003906 34.386719 35.730469 C 35.25 35.734375 36.113281 35.730469 36.976562 35.71875 C 37.207031 35.628906 37.269531 35.472656 37.15625 35.25 C 37.128906 35.210938 37.09375 35.183594 37.050781 35.164062 C 36.347656 35.105469 35.644531 35.070312 34.9375 35.058594 C 34.796875 35.035156 34.652344 35.027344 34.503906 35.035156 C 34.722656 33.53125 34.9375 32.027344 35.152344 30.519531 C 35.632812 30.527344 36.113281 30.507812 36.59375 30.460938 C 36.777344 30.425781 36.964844 30.386719 37.144531 30.339844 C 37.28125 30.261719 37.324219 30.144531 37.277344 29.992188 C 37.234375 29.925781 37.175781 29.890625 37.097656 29.886719 C 36.53125 29.796875 35.964844 29.777344 35.394531 29.824219 C 35.355469 29.824219 35.3125 29.824219 35.273438 29.824219 C 35.46875 28.421875 35.675781 27.023438 35.898438 25.625 C 35.976562 25.632812 36.046875 25.625 36.113281 25.601562 C 36.496094 25.589844 36.875 25.535156 37.242188 25.433594 C 37.34375 25.292969 37.332031 25.164062 37.21875 25.035156 C 37.160156 25 37.09375 24.972656 37.027344 24.964844 C 36.683594 24.933594 36.339844 24.921875 35.992188 24.929688 C 36.691406 20.269531 37.386719 15.613281 38.082031 10.957031 C 29.648438 11.3125 21.214844 11.664062 12.78125 12.015625 C 12.980469 18.257812 13.203125 24.496094 13.453125 30.738281 C 13.359375 30.839844 13.359375 30.941406 13.453125 31.050781 C 13.644531 35.628906 13.894531 40.207031 14.199219 44.777344 C 13.101562 44.75 12.003906 44.691406 10.910156 44.609375 C 10.957031 44.164062 10.996094 43.714844 11.019531 43.265625 C 11.074219 40.484375 11.128906 37.699219 11.1875 34.914062 C 11.203125 32.402344 11.203125 29.890625 11.1875 27.375 C 11.136719 24.238281 11.054688 21.101562 10.945312 17.96875 C 10.910156 16.972656 10.851562 15.980469 10.765625 14.992188 C 12.320312 12.503906 13.84375 9.988281 15.328125 7.453125 C 17.503906 7.414062 19.679688 7.394531 21.855469 7.394531 C 28.289062 7.359375 34.722656 7.339844 41.15625 7.332031 Z M 41.15625 7.332031 "/>
<path style=" stroke:none;fill-rule:evenodd;fill:rgb(43.137255%,43.137255%,43.137255%);fill-opacity:1;" d="M 41.15625 7.332031 C 41.207031 7.308594 41.261719 7.300781 41.324219 7.308594 C 41.328125 7.378906 41.320312 7.441406 41.296875 7.5 C 41.296875 7.445312 41.296875 7.390625 41.296875 7.332031 C 41.25 7.332031 41.203125 7.332031 41.15625 7.332031 Z M 41.15625 7.332031 "/>
<path style=" stroke:none;fill-rule:evenodd;fill:rgb(94.509804%,92.941176%,90.196078%);fill-opacity:1;" d="M 35.992188 24.929688 C 34.132812 25.039062 32.265625 25.109375 30.402344 25.132812 C 28.082031 25.179688 25.761719 25.179688 23.441406 25.132812 C 21.183594 25.070312 18.925781 25.011719 16.671875 24.964844 C 15.910156 24.949219 15.152344 24.949219 14.390625 24.964844 C 14.183594 25 14.144531 25.105469 14.269531 25.277344 C 14.984375 25.386719 15.707031 25.46875 16.429688 25.515625 C 18.003906 25.632812 19.582031 25.707031 21.160156 25.730469 C 26.144531 25.808594 31.128906 25.765625 36.113281 25.601562 C 36.046875 25.625 35.976562 25.632812 35.898438 25.625 C 35.675781 27.023438 35.46875 28.421875 35.273438 29.824219 C 35.3125 29.824219 35.355469 29.824219 35.394531 29.824219 C 34.988281 29.863281 34.582031 29.894531 34.167969 29.910156 C 31.480469 29.996094 28.792969 30.085938 26.105469 30.171875 C 23.320312 30.234375 20.535156 30.304688 17.75 30.390625 C 16.949219 30.421875 16.148438 30.472656 15.351562 30.53125 C 14.714844 30.574219 14.082031 30.644531 13.453125 30.738281 C 13.203125 24.496094 12.980469 18.257812 12.78125 12.015625 C 21.214844 11.664062 29.648438 11.3125 38.082031 10.957031 C 37.386719 15.613281 36.691406 20.269531 35.992188 24.929688 Z M 35.992188 24.929688 "/>
<path style=" stroke:none;fill-rule:evenodd;fill:rgb(1.176471%,1.176471%,1.176471%);fill-opacity:1;" d="M 36.210938 12.542969 C 36.496094 12.539062 36.785156 12.542969 37.074219 12.554688 C 37.199219 12.664062 37.226562 12.796875 37.15625 12.949219 C 37.121094 12.996094 37.078125 13.03125 37.027344 13.058594 C 36.9375 13.066406 36.851562 13.074219 36.761719 13.082031 C 30.199219 13.335938 23.640625 13.582031 17.078125 13.828125 C 15.917969 13.859375 14.757812 13.875 13.597656 13.875 C 13.496094 13.785156 13.476562 13.675781 13.539062 13.550781 C 13.558594 13.519531 13.585938 13.5 13.621094 13.488281 C 14.613281 13.410156 15.605469 13.34375 16.597656 13.296875 C 23.140625 13.042969 29.675781 12.792969 36.210938 12.542969 Z M 36.210938 12.542969 "/>
<use xlink:href="#surface12" mask="url(#mask2)"/>
<path style=" stroke:none;fill-rule:evenodd;fill:rgb(0.784314%,0.784314%,0.784314%);fill-opacity:1;" d="M 32.25 18.640625 C 33.089844 18.632812 33.929688 18.644531 34.769531 18.675781 C 35.203125 18.691406 35.636719 18.730469 36.066406 18.796875 C 36.230469 18.886719 36.277344 19.015625 36.199219 19.191406 C 36.167969 19.21875 36.140625 19.246094 36.113281 19.273438 C 35.875 19.320312 35.636719 19.34375 35.394531 19.347656 C 35.03125 19.355469 34.664062 19.367188 34.300781 19.382812 C 32.46875 19.320312 30.636719 19.28125 28.804688 19.261719 C 24.238281 19.277344 19.671875 19.363281 15.109375 19.527344 C 14.738281 19.550781 14.378906 19.503906 14.03125 19.382812 C 13.957031 19.320312 13.949219 19.25 14.007812 19.179688 C 14.316406 19.035156 14.644531 18.953125 14.992188 18.9375 C 17.175781 18.875 19.359375 18.8125 21.542969 18.746094 C 24.742188 18.699219 27.945312 18.675781 31.144531 18.675781 C 31.515625 18.671875 31.886719 18.660156 32.25 18.640625 Z M 32.25 18.640625 "/>
<path style=" stroke:none;fill-rule:evenodd;fill:rgb(1.176471%,1.176471%,0.784314%);fill-opacity:1;" d="M 35.992188 24.929688 C 36.339844 24.921875 36.683594 24.933594 37.027344 24.964844 C 37.09375 24.972656 37.160156 25 37.21875 25.035156 C 37.332031 25.164062 37.34375 25.292969 37.242188 25.433594 C 36.875 25.535156 36.496094 25.589844 36.113281 25.601562 C 31.128906 25.765625 26.144531 25.808594 21.160156 25.730469 C 19.582031 25.707031 18.003906 25.632812 16.429688 25.515625 C 15.707031 25.46875 14.984375 25.386719 14.269531 25.277344 C 14.144531 25.105469 14.183594 25 14.390625 24.964844 C 15.152344 24.949219 15.910156 24.949219 16.671875 24.964844 C 18.925781 25.011719 21.183594 25.070312 23.441406 25.132812 C 25.761719 25.179688 28.082031 25.179688 30.402344 25.132812 C 32.265625 25.109375 34.132812 25.039062 35.992188 24.929688 Z M 35.992188 24.929688 "/>
<path style=" stroke:none;fill-rule:evenodd;fill:rgb(0.784314%,0.784314%,0.784314%);fill-opacity:1;" d="M 35.152344 30.519531 C 31.984375 30.589844 28.816406 30.679688 25.648438 30.796875 C 23.007812 30.914062 20.367188 31.019531 17.726562 31.109375 C 16.636719 31.125 15.550781 31.125 14.460938 31.109375 C 14.125 31.105469 13.789062 31.085938 13.453125 31.050781 C 13.359375 30.941406 13.359375 30.839844 13.453125 30.738281 C 14.082031 30.644531 14.714844 30.574219 15.351562 30.53125 C 16.148438 30.472656 16.949219 30.421875 17.75 30.390625 C 20.535156 30.304688 23.320312 30.234375 26.105469 30.171875 C 28.792969 30.085938 31.480469 29.996094 34.167969 29.910156 C 34.582031 29.894531 34.988281 29.863281 35.394531 29.824219 C 35.964844 29.777344 36.53125 29.796875 37.097656 29.886719 C 37.175781 29.890625 37.234375 29.925781 37.277344 29.992188 C 37.324219 30.144531 37.28125 30.261719 37.144531 30.339844 C 36.964844 30.386719 36.777344 30.425781 36.59375 30.460938 C 36.113281 30.507812 35.632812 30.527344 35.152344 30.519531 Z M 35.152344 30.519531 "/>
<path style=" stroke:none;fill-rule:evenodd;fill:rgb(94.509804%,92.941176%,90.196078%);fill-opacity:1;" d="M 35.152344 30.519531 C 34.9375 32.027344 34.722656 33.53125 34.503906 35.035156 C 34.652344 35.027344 34.796875 35.035156 34.9375 35.058594 C 30.0625 35.039062 25.191406 35.128906 20.320312 35.332031 C 18.1875 35.410156 16.066406 35.601562 13.957031 35.910156 C 13.742188 35.976562 13.710938 36.097656 13.863281 36.269531 C 13.914062 36.292969 13.972656 36.304688 14.03125 36.304688 C 16.882812 36.21875 19.730469 36.078125 22.574219 35.886719 C 26.511719 35.691406 30.445312 35.636719 34.386719 35.730469 C 34.203125 37.003906 34.019531 38.273438 33.832031 39.546875 C 27.644531 39.75 21.46875 40.121094 15.300781 40.664062 C 14.988281 40.710938 14.675781 40.773438 14.367188 40.855469 C 14.25 40.929688 14.242188 41.019531 14.34375 41.117188 C 14.820312 41.15625 15.300781 41.164062 15.78125 41.144531 C 21.859375 40.707031 27.9375 40.375 34.027344 40.144531 C 33.925781 40.171875 33.820312 40.179688 33.714844 40.171875 C 33.558594 41.308594 33.398438 42.441406 33.234375 43.578125 C 33.183594 43.90625 33.132812 44.234375 33.089844 44.5625 C 31.820312 44.683594 30.546875 44.78125 29.273438 44.863281 C 25.898438 45.042969 22.519531 45.089844 19.144531 45.007812 C 17.488281 44.96875 15.839844 44.894531 14.199219 44.777344 C 13.894531 40.207031 13.644531 35.628906 13.453125 31.050781 C 13.789062 31.085938 14.125 31.105469 14.460938 31.109375 C 15.550781 31.125 16.636719 31.125 17.726562 31.109375 C 20.367188 31.019531 23.007812 30.914062 25.648438 30.796875 C 28.816406 30.679688 31.984375 30.589844 35.152344 30.519531 Z M 35.152344 30.519531 "/>
<path style=" stroke:none;fill-rule:evenodd;fill:rgb(0.784314%,0.784314%,0.784314%);fill-opacity:1;" d="M 34.9375 35.058594 C 35.644531 35.070312 36.347656 35.105469 37.050781 35.164062 C 37.09375 35.183594 37.128906 35.210938 37.15625 35.25 C 37.269531 35.472656 37.207031 35.628906 36.976562 35.71875 C 36.113281 35.730469 35.25 35.734375 34.386719 35.730469 C 30.445312 35.636719 26.511719 35.691406 22.574219 35.886719 C 19.730469 36.078125 16.882812 36.21875 14.03125 36.304688 C 13.972656 36.304688 13.914062 36.292969 13.863281 36.269531 C 13.710938 36.097656 13.742188 35.976562 13.957031 35.910156 C 16.066406 35.601562 18.1875 35.410156 20.320312 35.332031 C 25.191406 35.128906 30.0625 35.039062 34.9375 35.058594 Z M 34.9375 35.058594 "/>
<use xlink:href="#surface15" mask="url(#mask3)"/>
<path style=" stroke:none;fill-rule:evenodd;fill:rgb(94.509804%,92.941176%,90.196078%);fill-opacity:1;" d="M 42.042969 37.144531 C 42.074219 37.171875 42.089844 37.207031 42.089844 37.253906 C 42.054688 37.800781 42.019531 38.351562 41.996094 38.898438 C 41.917969 39.21875 42.035156 39.367188 42.355469 39.34375 C 42.757812 39.207031 43.160156 39.074219 43.566406 38.945312 C 43.578125 38.953125 43.589844 38.960938 43.601562 38.96875 C 43.484375 39.3125 43.367188 39.65625 43.253906 40.003906 C 43.226562 40.265625 43.339844 40.375 43.601562 40.328125 C 43.804688 40.226562 44.003906 40.125 44.203125 40.027344 C 44.214844 40.265625 44.21875 40.507812 44.214844 40.746094 C 44.25 40.859375 44.328125 40.921875 44.441406 40.9375 C 44.523438 40.914062 44.601562 40.902344 44.683594 40.902344 C 42.28125 43.257812 39.847656 45.578125 37.386719 47.863281 C 36.910156 48.289062 36.429688 48.710938 35.945312 49.125 C 35.9375 49.109375 35.929688 49.09375 35.921875 49.074219 C 35.996094 48.800781 36.03125 48.519531 36.03125 48.234375 C 35.941406 48.117188 35.824219 48.070312 35.683594 48.105469 C 35.890625 47.847656 36.011719 47.558594 36.042969 47.226562 C 36.058594 47.015625 35.96875 46.886719 35.765625 46.84375 C 35.457031 46.914062 35.148438 46.984375 34.839844 47.058594 C 34.832031 47.050781 34.824219 47.042969 34.816406 47.035156 C 35.023438 46.808594 35.1875 46.550781 35.308594 46.265625 C 35.46875 45.796875 35.347656 45.425781 34.9375 45.152344 C 34.648438 44.917969 34.328125 44.734375 33.976562 44.597656 C 36.664062 42.109375 39.351562 39.625 42.042969 37.144531 Z M 42.042969 37.144531 "/>
<path style=" stroke:none;fill-rule:evenodd;fill:rgb(0.784314%,0.784314%,0.784314%);fill-opacity:1;" d="M 34.027344 40.144531 C 27.9375 40.375 21.859375 40.707031 15.78125 41.144531 C 15.300781 41.164062 14.820312 41.15625 14.34375 41.117188 C 14.242188 41.019531 14.25 40.929688 14.367188 40.855469 C 14.675781 40.773438 14.988281 40.710938 15.300781 40.664062 C 21.46875 40.121094 27.644531 39.75 33.832031 39.546875 C 34.90625 39.5 35.976562 39.472656 37.050781 39.460938 C 37.089844 39.488281 37.125 39.515625 37.15625 39.546875 C 37.273438 39.78125 37.214844 39.953125 36.976562 40.0625 C 35.992188 40.082031 35.007812 40.109375 34.027344 40.144531 Z M 34.027344 40.144531 "/>
<use xlink:href="#surface18" mask="url(#mask4)"/>
</g>
</svg>
