<?xml version="1.0" encoding="UTF-8"?>
<svg xmlns="http://www.w3.org/2000/svg" xmlns:xlink="http://www.w3.org/1999/xlink" width="50pt" height="50pt" viewBox="0 0 50 50" version="1.1">
<defs>
<filter id="alpha" filterUnits="objectBoundingBox" x="0%" y="0%" width="100%" height="100%">
  <feColorMatrix type="matrix" in="SourceGraphic" values="0 0 0 0 1 0 0 0 0 1 0 0 0 0 1 0 0 0 1 0"/>
</filter>
<mask id="mask0">
  <g filter="url(#alpha)">
<rect x="0" y="0" width="50" height="50" style="fill:rgb(0%,0%,0%);fill-opacity:0.894118;stroke:none;"/>
  </g>
</mask>
<clipPath id="clip1">
  <rect width="50" height="50"/>
</clipPath>
<g id="surface6" clip-path="url(#clip1)">
<path style=" stroke:none;fill-rule:evenodd;fill:rgb(0%,0%,0%);fill-opacity:1;" d="M 43.832031 26.175781 C 44.128906 27.417969 44.914062 27.921875 46.183594 27.6875 C 46.84375 27.542969 47.390625 27.214844 47.816406 26.703125 C 47.847656 26.703125 47.863281 26.6875 47.863281 26.65625 C 47.863281 26.640625 47.863281 26.625 47.863281 26.609375 C 48.183594 26.308594 48.390625 25.941406 48.488281 25.503906 C 48.371094 25.082031 48.101562 24.828125 47.671875 24.734375 C 47.578125 24.664062 47.464844 24.625 47.335938 24.617188 C 46.789062 24.507812 46.246094 24.523438 45.707031 24.664062 C 45.515625 24.738281 45.347656 24.84375 45.203125 24.976562 C 45.027344 25.382812 44.882812 25.796875 44.769531 26.222656 C 44.496094 26.449219 44.367188 26.386719 44.386719 26.03125 C 44.535156 25.671875 44.664062 25.304688 44.769531 24.929688 C 45.078125 24.464844 45.519531 24.21875 46.089844 24.183594 C 46.425781 24.160156 46.761719 24.152344 47.097656 24.160156 C 47.582031 24.203125 48.03125 24.355469 48.441406 24.617188 C 48.867188 24.945312 49.003906 25.371094 48.847656 25.886719 C 48.050781 27.640625 46.699219 28.355469 44.792969 28.023438 C 44.144531 27.742188 43.714844 27.261719 43.5 26.582031 C 42.789062 26.453125 42.085938 26.292969 41.386719 26.105469 C 37.664062 25.679688 33.984375 25.007812 30.351562 24.089844 C 29.746094 23.992188 29.140625 23.941406 28.527344 23.945312 C 28.09375 23.886719 27.75 23.683594 27.496094 23.34375 C 27.460938 25.855469 27.496094 28.367188 27.589844 30.878906 C 27.699219 32.617188 27.890625 34.34375 28.167969 36.058594 C 28.199219 36.414062 28.199219 36.765625 28.167969 37.117188 C 28.152344 37.175781 28.128906 37.234375 28.09375 37.285156 C 28.507812 37.128906 28.941406 37.042969 29.390625 37.019531 C 30.21875 37 30.851562 37.335938 31.285156 38.027344 C 31.472656 38.78125 31.253906 39.398438 30.636719 39.875 C 29.585938 40.554688 28.480469 40.648438 27.328125 40.164062 C 26.78125 39.847656 26.566406 39.375 26.679688 38.746094 C 26.800781 38.175781 27.023438 37.648438 27.351562 37.164062 C 27.46875 37.054688 27.605469 36.972656 27.757812 36.925781 C 27.773438 36.804688 27.792969 36.683594 27.808594 36.5625 C 27.296875 33 27.089844 29.417969 27.183594 25.816406 C 27.1875 24.976562 27.203125 24.136719 27.230469 23.296875 C 27.183594 23.296875 27.136719 23.296875 27.085938 23.296875 C 27.085938 23.214844 27.085938 23.136719 27.085938 23.054688 C 27.152344 23.054688 27.214844 23.054688 27.277344 23.054688 C 27.269531 22.757812 27.300781 22.460938 27.375 22.167969 C 27.359375 22.144531 27.34375 22.121094 27.328125 22.097656 C 27.183594 22.183594 27.039062 22.273438 26.894531 22.359375 C 26.589844 22.683594 26.269531 22.984375 25.9375 23.273438 C 25.425781 23.574219 24.929688 23.894531 24.449219 24.230469 C 23.152344 25.496094 21.855469 26.757812 20.5625 28.023438 C 17.492188 30.851562 14.4375 33.699219 11.394531 36.5625 C 11.707031 36.933594 11.808594 37.355469 11.707031 37.835938 C 11.523438 38.546875 11.195312 39.179688 10.722656 39.730469 C 10.054688 40.140625 9.335938 40.25 8.566406 40.066406 C 7.285156 39.730469 6.765625 38.90625 7.003906 37.597656 C 7.152344 36.578125 7.703125 35.882812 8.660156 35.507812 C 8.898438 35.453125 9.140625 35.414062 9.382812 35.390625 C 9.285156 35.074219 9.222656 34.753906 9.1875 34.429688 C 9.199219 31.269531 8.773438 28.167969 7.917969 25.121094 C 7.894531 24.898438 7.886719 24.671875 7.894531 24.449219 C 7.988281 24.4375 8.074219 24.453125 8.15625 24.496094 C 8.171875 24.640625 8.1875 24.785156 8.207031 24.929688 C 9.007812 27.734375 9.480469 30.597656 9.621094 33.515625 C 9.542969 34.171875 9.605469 34.820312 9.8125 35.460938 C 9.820312 35.558594 9.789062 35.636719 9.71875 35.699219 C 9.496094 35.765625 9.273438 35.816406 9.046875 35.84375 C 9.691406 35.839844 10.316406 35.953125 10.917969 36.179688 C 11.023438 36.246094 11.128906 36.320312 11.226562 36.394531 C 12.230469 35.378906 13.246094 34.378906 14.277344 33.398438 C 17.546875 30.429688 20.746094 27.375 23.871094 24.230469 C 24.441406 23.726562 25.066406 23.292969 25.742188 22.9375 C 26.015625 22.664062 26.289062 22.394531 26.558594 22.121094 C 25.273438 22.183594 23.984375 22.253906 22.695312 22.335938 C 18.722656 22.191406 14.746094 22.0625 10.773438 21.953125 C 10.625 22.960938 10.113281 23.722656 9.238281 24.230469 C 7.617188 24.578125 6.460938 23.996094 5.757812 22.480469 C 5.476562 21.777344 5.476562 21.074219 5.757812 20.371094 C 5.871094 20.113281 5.980469 19.859375 6.09375 19.601562 C 6.1875 19.476562 6.273438 19.476562 6.359375 19.601562 C 6.167969 19.953125 6.023438 20.320312 5.925781 20.707031 C 5.925781 20.722656 5.925781 20.738281 5.925781 20.753906 C 5.894531 20.753906 5.878906 20.769531 5.878906 20.800781 C 5.820312 21.023438 5.796875 21.246094 5.804688 21.472656 C 5.894531 21.117188 6 20.765625 6.117188 20.417969 C 6.378906 19.589844 6.9375 19.117188 7.796875 19 C 7.335938 18.28125 6.910156 17.539062 6.527344 16.769531 C 6.019531 15.996094 5.523438 15.210938 5.039062 14.417969 C 4.445312 13.234375 3.855469 12.050781 3.261719 10.867188 C 3.089844 10.582031 2.898438 10.3125 2.6875 10.054688 C 2.570312 9.886719 2.53125 9.710938 2.566406 9.523438 C 1.695312 9.457031 1.171875 8.996094 1.007812 8.132812 C 0.898438 7.601562 1.019531 7.128906 1.367188 6.71875 C 1.878906 6.402344 2.40625 6.378906 2.949219 6.644531 C 3.375 6.8125 3.792969 7.003906 4.199219 7.222656 C 4.882812 7.765625 5.015625 8.421875 4.605469 9.1875 C 4.492188 9.351562 4.339844 9.453125 4.152344 9.5 C 3.75 9.558594 3.351562 9.613281 2.949219 9.667969 C 2.945312 9.71875 2.953125 9.765625 2.976562 9.8125 C 3.160156 10.019531 3.320312 10.242188 3.453125 10.484375 C 4.109375 11.796875 4.765625 13.109375 5.421875 14.417969 C 5.867188 15.167969 6.332031 15.902344 6.8125 16.625 C 7.132812 17.234375 7.453125 17.84375 7.773438 18.449219 C 7.890625 18.648438 8.027344 18.832031 8.179688 19 C 8.414062 19.027344 8.636719 19.082031 8.851562 19.167969 C 9.902344 18.144531 10.976562 17.144531 12.066406 16.171875 C 14.84375 13.878906 17.609375 11.574219 20.371094 9.261719 C 20.828125 8.800781 21.253906 8.3125 21.640625 7.796875 C 21.800781 7.621094 21.980469 7.460938 22.167969 7.316406 C 22.140625 6.28125 22.53125 5.441406 23.34375 4.796875 C 24.375 4.230469 25.308594 4.347656 26.152344 5.160156 C 26.613281 5.976562 26.613281 6.792969 26.152344 7.605469 C 25.757812 8.144531 25.285156 8.597656 24.734375 8.972656 C 24.59375 9.019531 24.453125 9.042969 24.304688 9.046875 C 24.328125 9.59375 24.449219 10.121094 24.664062 10.628906 C 25.292969 12.007812 26.035156 13.308594 26.894531 14.539062 C 27.15625 14.515625 27.414062 14.453125 27.664062 14.347656 C 28.839844 13.816406 30.054688 13.402344 31.308594 13.101562 C 31.097656 12.507812 31.257812 12.046875 31.789062 11.707031 C 32.554688 11.28125 33.371094 11.136719 34.238281 11.277344 C 35 11.511719 35.398438 12.03125 35.4375 12.835938 C 35.398438 13.542969 35.09375 14.09375 34.523438 14.492188 C 34.191406 14.640625 33.855469 14.640625 33.515625 14.492188 C 33.289062 14.390625 33.074219 14.269531 32.871094 14.132812 C 32.804688 14.226562 32.742188 14.324219 32.675781 14.417969 C 32.242188 15.835938 31.777344 17.242188 31.285156 18.640625 C 31.175781 18.9375 31.046875 19.226562 30.902344 19.503906 C 30.703125 19.777344 30.535156 20.0625 30.398438 20.371094 C 30.515625 20.574219 30.636719 20.785156 30.757812 20.992188 C 31.40625 21.285156 31.664062 21.78125 31.527344 22.480469 C 31.316406 23.039062 30.941406 23.449219 30.398438 23.703125 C 33.828125 24.5625 37.296875 25.183594 40.8125 25.574219 C 41.597656 25.730469 42.382812 25.90625 43.164062 26.105469 C 43.382812 26.152344 43.609375 26.175781 43.832031 26.175781 Z M 25.695312 7.414062 C 25.582031 6.316406 24.972656 5.828125 23.871094 5.949219 C 23.175781 6.164062 22.808594 6.636719 22.769531 7.367188 C 22.628906 7.1875 22.589844 6.976562 22.648438 6.742188 C 22.785156 6.113281 23.09375 5.589844 23.585938 5.183594 C 24.339844 4.726562 25.050781 4.78125 25.71875 5.351562 C 26.015625 5.804688 26.109375 6.300781 26.007812 6.835938 C 25.964844 7.066406 25.859375 7.261719 25.695312 7.414062 Z M 2.230469 6.835938 C 1.609375 7.304688 1.417969 7.914062 1.65625 8.660156 C 1.507812 8.5 1.421875 8.308594 1.390625 8.085938 C 1.308594 7.691406 1.382812 7.332031 1.609375 7.003906 C 1.796875 6.886719 2.007812 6.828125 2.230469 6.835938 Z M 22.335938 7.703125 C 22.371094 7.695312 22.40625 7.703125 22.433594 7.726562 C 22.691406 8.03125 22.960938 8.320312 23.25 8.589844 C 23.484375 8.761719 23.738281 8.898438 24.015625 8.996094 C 24.042969 9.71875 24.210938 10.40625 24.519531 11.058594 C 25.109375 12.328125 25.789062 13.535156 26.558594 14.683594 C 25.785156 14.953125 25.015625 15.242188 24.257812 15.546875 C 21.460938 16.777344 18.664062 17.992188 15.859375 19.195312 C 14.703125 19.671875 13.535156 20.117188 12.355469 20.539062 C 11.808594 20.777344 11.28125 21.042969 10.773438 21.328125 C 10.722656 20.894531 10.554688 20.511719 10.269531 20.175781 C 9.945312 19.84375 9.582031 19.554688 9.1875 19.3125 C 9.140625 19.289062 9.132812 19.257812 9.164062 19.21875 C 10.089844 18.328125 11.039062 17.472656 12.019531 16.652344 C 15.046875 14.199219 18.046875 11.710938 21.015625 9.1875 C 21.449219 8.683594 21.890625 8.1875 22.335938 7.703125 Z M 4.488281 8.375 C 4.488281 8.671875 4.378906 8.910156 4.152344 9.09375 C 4.300781 8.871094 4.414062 8.628906 4.488281 8.375 Z M 32.84375 11.78125 C 32.488281 12.078125 32.3125 12.460938 32.316406 12.933594 C 32.109375 12.953125 31.902344 12.96875 31.695312 12.980469 C 31.625 12.785156 31.632812 12.589844 31.71875 12.402344 C 32.007812 12.039062 32.382812 11.832031 32.84375 11.78125 Z M 32.316406 13.074219 C 32.324219 13.355469 32.417969 13.597656 32.605469 13.796875 C 32.382812 14.257812 32.199219 14.738281 32.054688 15.234375 C 31.671875 16.617188 31.226562 17.976562 30.710938 19.3125 C 30.539062 19.578125 30.378906 19.851562 30.230469 20.128906 C 29.484375 18.195312 28.453125 16.445312 27.136719 14.875 C 28.515625 14.269531 29.933594 13.75 31.382812 13.316406 C 31.46875 13.402344 31.558594 13.492188 31.644531 13.578125 C 31.980469 13.613281 32.0625 13.484375 31.886719 13.195312 C 32.027344 13.144531 32.171875 13.105469 32.316406 13.074219 Z M 26.609375 14.996094 C 26.714844 14.980469 26.800781 15.011719 26.871094 15.089844 C 27.828125 16.25 28.625 17.511719 29.269531 18.882812 C 29.496094 19.414062 29.738281 19.941406 29.992188 20.464844 C 30.023438 20.542969 30.015625 20.613281 29.964844 20.679688 C 29.496094 20.625 29.035156 20.65625 28.574219 20.777344 C 28.355469 20.867188 28.164062 20.996094 28 21.160156 C 27.882812 21.175781 27.773438 21.199219 27.664062 21.234375 C 27.632812 21.332031 27.585938 21.421875 27.519531 21.496094 C 27.320312 21.636719 27.113281 21.765625 26.894531 21.882812 C 25.902344 21.90625 24.910156 21.953125 23.921875 22.023438 C 23.296875 22.058594 22.671875 22.058594 22.050781 22.023438 C 18.402344 21.871094 14.753906 21.726562 11.109375 21.59375 C 11.511719 21.34375 11.925781 21.121094 12.355469 20.921875 C 16.335938 19.363281 20.269531 17.699219 24.160156 15.929688 C 24.972656 15.59375 25.789062 15.28125 26.609375 14.996094 Z M 30.207031 21.28125 C 31.128906 21.464844 31.378906 21.960938 30.949219 22.769531 C 30.835938 22.910156 30.699219 23.019531 30.542969 23.105469 C 30.800781 22.425781 30.6875 21.816406 30.207031 21.28125 Z M 27.757812 22.386719 C 27.742188 22.640625 27.789062 22.878906 27.902344 23.105469 C 27.855469 23.109375 27.816406 23.09375 27.78125 23.054688 C 27.640625 22.832031 27.632812 22.605469 27.757812 22.386719 Z M 47.671875 24.734375 C 48.101562 24.828125 48.371094 25.082031 48.488281 25.503906 C 48.390625 25.941406 48.183594 26.308594 47.863281 26.609375 C 48.089844 25.953125 48.023438 25.328125 47.671875 24.734375 Z M 10.148438 36.394531 C 10.4375 36.421875 10.695312 36.523438 10.917969 36.707031 C 10.792969 36.839844 10.667969 36.957031 10.53125 37.066406 C 10.429688 36.828125 10.300781 36.605469 10.148438 36.394531 Z M 10.003906 39.609375 C 10.601562 38.957031 10.808594 38.1875 10.628906 37.308594 C 10.785156 37.175781 10.9375 37.03125 11.085938 36.875 C 11.347656 37.171875 11.414062 37.507812 11.277344 37.882812 C 11.101562 38.359375 10.878906 38.804688 10.605469 39.226562 C 10.433594 39.40625 10.234375 39.535156 10.003906 39.609375 Z M 27.566406 37.644531 C 27.644531 37.414062 27.804688 37.308594 28.046875 37.332031 C 27.878906 37.429688 27.71875 37.53125 27.566406 37.644531 Z M 27.566406 37.644531 "/>
</g>
<mask id="mask1">
  <g filter="url(#alpha)">
<rect x="0" y="0" width="50" height="50" style="fill:rgb(0%,0%,0%);fill-opacity:0.984314;stroke:none;"/>
  </g>
</mask>
<clipPath id="clip2">
  <rect width="50" height="50"/>
</clipPath>
<g id="surface9" clip-path="url(#clip2)">
<path style=" stroke:none;fill-rule:evenodd;fill:rgb(62.745098%,56.862745%,58.823529%);fill-opacity:1;" d="M 25.695312 7.414062 C 25.417969 7.90625 25.035156 8.296875 24.542969 8.589844 C 24.0625 8.652344 23.664062 8.5 23.34375 8.132812 C 23.390625 8.058594 23.398438 7.976562 23.367188 7.894531 C 23.214844 7.804688 23.066406 7.71875 22.914062 7.628906 C 22.832031 7.558594 22.785156 7.46875 22.769531 7.367188 C 22.808594 6.636719 23.175781 6.164062 23.871094 5.949219 C 24.972656 5.828125 25.582031 6.316406 25.695312 7.414062 Z M 25.695312 7.414062 "/>
</g>
<mask id="mask2">
  <g filter="url(#alpha)">
<rect x="0" y="0" width="50" height="50" style="fill:rgb(0%,0%,0%);fill-opacity:0.760784;stroke:none;"/>
  </g>
</mask>
<clipPath id="clip3">
  <rect width="50" height="50"/>
</clipPath>
<g id="surface12" clip-path="url(#clip3)">
<path style=" stroke:none;fill-rule:evenodd;fill:rgb(58.431373%,52.941176%,54.509804%);fill-opacity:1;" d="M 2.949219 6.644531 C 3.476562 6.609375 3.894531 6.800781 4.199219 7.222656 C 3.792969 7.003906 3.375 6.8125 2.949219 6.644531 Z M 2.949219 6.644531 "/>
</g>
<mask id="mask3">
  <g filter="url(#alpha)">
<rect x="0" y="0" width="50" height="50" style="fill:rgb(0%,0%,0%);fill-opacity:0.984314;stroke:none;"/>
  </g>
</mask>
<clipPath id="clip4">
  <rect width="50" height="50"/>
</clipPath>
<g id="surface15" clip-path="url(#clip4)">
<path style=" stroke:none;fill-rule:evenodd;fill:rgb(62.352941%,56.470588%,58.431373%);fill-opacity:1;" d="M 2.230469 6.835938 C 2.894531 6.921875 3.503906 7.152344 4.054688 7.535156 C 4.339844 7.746094 4.484375 8.023438 4.488281 8.375 C 4.414062 8.628906 4.300781 8.871094 4.152344 9.09375 C 4.117188 9.09375 4.101562 9.109375 4.101562 9.140625 C 4.023438 9.179688 3.945312 9.21875 3.863281 9.261719 C 3.589844 9.277344 3.320312 9.292969 3.046875 9.308594 C 2.945312 9.335938 2.847656 9.375 2.757812 9.429688 C 2.785156 9.320312 2.753906 9.214844 2.664062 9.117188 C 2.378906 9.109375 2.105469 9.042969 1.847656 8.925781 C 1.753906 8.855469 1.691406 8.769531 1.65625 8.660156 C 1.417969 7.914062 1.609375 7.304688 2.230469 6.835938 Z M 2.230469 6.835938 "/>
</g>
<mask id="mask4">
  <g filter="url(#alpha)">
<rect x="0" y="0" width="50" height="50" style="fill:rgb(0%,0%,0%);fill-opacity:0.992157;stroke:none;"/>
  </g>
</mask>
<clipPath id="clip5">
  <rect width="50" height="50"/>
</clipPath>
<g id="surface18" clip-path="url(#clip5)">
<path style=" stroke:none;fill-rule:evenodd;fill:rgb(62.352941%,56.470588%,58.431373%);fill-opacity:1;" d="M 32.605469 13.796875 C 32.417969 13.597656 32.324219 13.355469 32.316406 13.074219 C 32.414062 13.074219 32.507812 13.074219 32.605469 13.074219 C 32.605469 13.027344 32.605469 12.980469 32.605469 12.933594 C 32.507812 12.933594 32.414062 12.933594 32.316406 12.933594 C 32.3125 12.460938 32.488281 12.078125 32.84375 11.78125 C 32.878906 11.78125 32.894531 11.765625 32.894531 11.730469 C 33.46875 11.574219 34.027344 11.613281 34.574219 11.851562 C 34.96875 12.226562 35.105469 12.683594 34.980469 13.21875 C 34.886719 13.707031 34.605469 14.035156 34.140625 14.203125 C 33.695312 14.164062 33.296875 14.003906 32.941406 13.722656 C 32.8125 13.683594 32.703125 13.707031 32.605469 13.796875 Z M 32.605469 13.796875 "/>
</g>
<mask id="mask5">
  <g filter="url(#alpha)">
<rect x="0" y="0" width="50" height="50" style="fill:rgb(0%,0%,0%);fill-opacity:0.694118;stroke:none;"/>
  </g>
</mask>
<clipPath id="clip6">
  <rect width="50" height="50"/>
</clipPath>
<g id="surface21" clip-path="url(#clip6)">
<path style=" stroke:none;fill-rule:evenodd;fill:rgb(54.509804%,49.411765%,51.372549%);fill-opacity:1;" d="M 6.117188 20.417969 C 6 20.765625 5.894531 21.117188 5.804688 21.472656 C 5.796875 21.246094 5.820312 21.023438 5.878906 20.800781 C 5.910156 20.800781 5.925781 20.785156 5.925781 20.753906 C 5.925781 20.738281 5.925781 20.722656 5.925781 20.707031 C 5.988281 20.609375 6.054688 20.511719 6.117188 20.417969 Z M 6.117188 20.417969 "/>
</g>
<mask id="mask6">
  <g filter="url(#alpha)">
<rect x="0" y="0" width="50" height="50" style="fill:rgb(0%,0%,0%);fill-opacity:0.988235;stroke:none;"/>
  </g>
</mask>
<clipPath id="clip7">
  <rect width="50" height="50"/>
</clipPath>
<g id="surface24" clip-path="url(#clip7)">
<path style=" stroke:none;fill-rule:evenodd;fill:rgb(62.352941%,56.470588%,58.431373%);fill-opacity:1;" d="M 30.207031 21.28125 C 30.6875 21.816406 30.800781 22.425781 30.542969 23.105469 C 30.511719 23.105469 30.496094 23.121094 30.496094 23.152344 C 30.1875 23.386719 29.835938 23.53125 29.4375 23.585938 C 28.921875 23.507812 28.425781 23.363281 27.949219 23.152344 C 27.949219 23.121094 27.933594 23.105469 27.902344 23.105469 C 27.789062 22.878906 27.742188 22.640625 27.757812 22.386719 C 27.851562 21.867188 28.121094 21.46875 28.574219 21.183594 C 28.640625 21.332031 28.753906 21.394531 28.910156 21.378906 C 29.335938 21.234375 29.765625 21.203125 30.207031 21.28125 Z M 30.207031 21.28125 "/>
</g>
<mask id="mask7">
  <g filter="url(#alpha)">
<rect x="0" y="0" width="50" height="50" style="fill:rgb(0%,0%,0%);fill-opacity:0.984314;stroke:none;"/>
  </g>
</mask>
<clipPath id="clip8">
  <rect width="50" height="50"/>
</clipPath>
<g id="surface27" clip-path="url(#clip8)">
<path style=" stroke:none;fill-rule:evenodd;fill:rgb(62.352941%,56.470588%,58.431373%);fill-opacity:1;" d="M 47.097656 24.160156 C 46.761719 24.152344 46.425781 24.160156 46.089844 24.183594 C 45.519531 24.21875 45.078125 24.464844 44.769531 24.929688 C 44.664062 25.304688 44.535156 25.671875 44.386719 26.03125 C 44.367188 26.386719 44.496094 26.449219 44.769531 26.222656 C 44.882812 25.796875 45.027344 25.382812 45.203125 24.976562 C 45.347656 24.84375 45.515625 24.738281 45.707031 24.664062 C 46.246094 24.523438 46.789062 24.507812 47.335938 24.617188 C 47.464844 24.625 47.578125 24.664062 47.671875 24.734375 C 48.023438 25.328125 48.089844 25.953125 47.863281 26.609375 C 47.863281 26.625 47.863281 26.640625 47.863281 26.65625 C 47.832031 26.65625 47.816406 26.671875 47.816406 26.703125 C 47.390625 27.214844 46.84375 27.542969 46.183594 27.6875 C 44.914062 27.921875 44.128906 27.417969 43.832031 26.175781 C 43.765625 24.726562 44.453125 23.925781 45.898438 23.777344 C 46.351562 23.753906 46.75 23.878906 47.097656 24.160156 Z M 47.097656 24.160156 "/>
</g>
<mask id="mask8">
  <g filter="url(#alpha)">
<rect x="0" y="0" width="50" height="50" style="fill:rgb(0%,0%,0%);fill-opacity:0.988235;stroke:none;"/>
  </g>
</mask>
<clipPath id="clip9">
  <rect width="50" height="50"/>
</clipPath>
<g id="surface30" clip-path="url(#clip9)">
<path style=" stroke:none;fill-rule:evenodd;fill:rgb(62.352941%,56.470588%,58.431373%);fill-opacity:1;" d="M 8.324219 36.15625 C 8.234375 36.332031 8.273438 36.457031 8.445312 36.539062 C 8.59375 36.421875 8.761719 36.332031 8.949219 36.277344 C 9.339844 36.234375 9.722656 36.257812 10.101562 36.347656 C 10.101562 36.378906 10.117188 36.394531 10.148438 36.394531 C 10.300781 36.605469 10.429688 36.828125 10.53125 37.066406 C 10.449219 37.148438 10.386719 37.246094 10.339844 37.355469 C 10.449219 37.417969 10.546875 37.402344 10.628906 37.308594 C 10.808594 38.1875 10.601562 38.957031 10.003906 39.609375 C 9.261719 39.863281 8.554688 39.777344 7.894531 39.347656 C 7.75 39.230469 7.640625 39.09375 7.558594 38.941406 C 7.566406 38.890625 7.550781 38.859375 7.507812 38.84375 C 7.519531 38.78125 7.503906 38.734375 7.460938 38.699219 C 7.472656 38.636719 7.457031 38.589844 7.414062 38.554688 C 7.285156 37.839844 7.421875 37.183594 7.820312 36.589844 C 7.96875 36.417969 8.136719 36.273438 8.324219 36.15625 Z M 8.324219 36.15625 "/>
</g>
<mask id="mask9">
  <g filter="url(#alpha)">
<rect x="0" y="0" width="50" height="50" style="fill:rgb(0%,0%,0%);fill-opacity:0.996078;stroke:none;"/>
  </g>
</mask>
<clipPath id="clip10">
  <rect width="50" height="50"/>
</clipPath>
<g id="surface33" clip-path="url(#clip10)">
<path style=" stroke:none;fill-rule:evenodd;fill:rgb(62.352941%,56.470588%,58.431373%);fill-opacity:1;" d="M 28.863281 37.453125 C 29.644531 37.308594 30.308594 37.519531 30.855469 38.074219 C 31.058594 38.917969 30.746094 39.503906 29.917969 39.828125 C 29.242188 40.105469 28.554688 40.152344 27.855469 39.972656 C 27.035156 39.613281 26.84375 39.046875 27.277344 38.269531 C 27.378906 38.328125 27.476562 38.320312 27.566406 38.242188 C 27.925781 37.855469 28.359375 37.59375 28.863281 37.453125 Z M 28.863281 37.453125 "/>
</g>
</defs>
<g id="surface1">
<use xlink:href="#surface6" mask="url(#mask0)"/>
<use xlink:href="#surface9" mask="url(#mask1)"/>
<use xlink:href="#surface12" mask="url(#mask2)"/>
<use xlink:href="#surface15" mask="url(#mask3)"/>
<use xlink:href="#surface18" mask="url(#mask4)"/>
<path style=" stroke:none;fill-rule:evenodd;fill:rgb(62.745098%,56.862745%,58.823529%);fill-opacity:1;" d="M 7.652344 19.3125 C 9.035156 19.3125 9.988281 19.953125 10.507812 21.234375 C 10.53125 21.359375 10.539062 21.488281 10.53125 21.617188 C 10.328125 21.597656 10.242188 21.695312 10.269531 21.90625 C 10.109375 22.007812 10.066406 22.144531 10.148438 22.3125 C 10.28125 22.324219 10.386719 22.269531 10.460938 22.144531 C 10.300781 22.882812 9.90625 23.464844 9.285156 23.894531 C 8.417969 24.269531 7.617188 24.15625 6.886719 23.558594 C 6.441406 23.191406 6.121094 22.734375 5.925781 22.191406 C 6.0625 21.800781 6.164062 21.402344 6.238281 20.992188 C 6.394531 20.15625 6.867188 19.597656 7.652344 19.3125 Z M 7.652344 19.3125 "/>
<use xlink:href="#surface21" mask="url(#mask5)"/>
<use xlink:href="#surface24" mask="url(#mask6)"/>
<use xlink:href="#surface27" mask="url(#mask7)"/>
<path style=" stroke:none;fill-rule:evenodd;fill:rgb(33.333333%,30.196078%,31.372549%);fill-opacity:1;" d="M 8.324219 36.15625 C 8.347656 36.082031 8.398438 36.054688 8.46875 36.085938 C 8.433594 36.132812 8.386719 36.160156 8.324219 36.15625 Z M 8.324219 36.15625 "/>
<use xlink:href="#surface30" mask="url(#mask8)"/>
<use xlink:href="#surface33" mask="url(#mask9)"/>
</g>
</svg>
