<?xml version="1.0" encoding="UTF-8"?>
<svg xmlns="http://www.w3.org/2000/svg" xmlns:xlink="http://www.w3.org/1999/xlink" width="50pt" height="50pt" viewBox="0 0 50 50" version="1.1">
<defs>
<filter id="alpha" filterUnits="objectBoundingBox" x="0%" y="0%" width="100%" height="100%">
  <feColorMatrix type="matrix" in="SourceGraphic" values="0 0 0 0 1 0 0 0 0 1 0 0 0 0 1 0 0 0 1 0"/>
</filter>
<mask id="mask0">
  <g filter="url(#alpha)">
<rect x="0" y="0" width="50" height="50" style="fill:rgb(0%,0%,0%);fill-opacity:0.996078;stroke:none;"/>
  </g>
</mask>
<clipPath id="clip1">
  <rect width="50" height="50"/>
</clipPath>
<g id="surface6" clip-path="url(#clip1)">
<path style=" stroke:none;fill-rule:evenodd;fill:rgb(0.784314%,0.784314%,0.784314%);fill-opacity:1;" d="M 49.988281 8.84375 C 49.988281 8.949219 49.988281 9.054688 49.988281 9.15625 C 49.953125 9.210938 49.90625 9.257812 49.84375 9.289062 C 49.625 9.351562 49.410156 9.425781 49.195312 9.503906 C 46.914062 10.421875 44.625 11.328125 42.332031 12.21875 C 42.273438 12.234375 42.226562 12.261719 42.1875 12.300781 C 43.625 15.195312 44.628906 18.238281 45.199219 21.421875 C 45.683594 24.058594 45.890625 26.714844 45.824219 29.394531 C 45.78125 31.480469 45.402344 33.503906 44.695312 35.464844 C 43.828125 37.636719 42.464844 39.421875 40.601562 40.832031 C 40.144531 41.179688 39.675781 41.503906 39.1875 41.800781 C 36.40625 43.433594 33.414062 44.46875 30.207031 44.910156 C 26.898438 45.371094 23.59375 45.339844 20.296875 44.816406 C 18.425781 44.515625 16.585938 44.101562 14.773438 43.566406 C 12.035156 42.695312 9.523438 41.40625 7.238281 39.703125 C 5.992188 38.769531 4.996094 37.621094 4.25 36.257812 C 3.375 34.617188 2.792969 32.882812 2.496094 31.050781 C 2.320312 29.585938 2.320312 28.121094 2.496094 26.65625 C 2.78125 24.425781 3.316406 22.257812 4.105469 20.152344 C 4.820312 18.175781 5.71875 16.285156 6.792969 14.484375 C 7.609375 13.195312 8.546875 11.996094 9.601562 10.886719 C 10.601562 9.835938 11.644531 8.839844 12.734375 7.898438 C 13.398438 7.371094 14.09375 6.890625 14.824219 6.457031 C 15.554688 6.089844 16.253906 5.667969 16.910156 5.183594 C 17.09375 5.058594 17.292969 5.003906 17.511719 5.015625 C 17.585938 5.042969 17.644531 5.085938 17.691406 5.148438 C 18.664062 4.761719 19.667969 4.476562 20.703125 4.296875 C 22.769531 3.945312 24.851562 3.839844 26.945312 3.972656 C 29.167969 4.046875 31.363281 4.355469 33.519531 4.898438 C 35.261719 5.351562 36.84375 6.109375 38.273438 7.175781 C 38.886719 7.679688 39.453125 8.226562 39.976562 8.820312 C 41.300781 6.847656 42.609375 4.863281 43.902344 2.867188 C 44.085938 2.730469 44.253906 2.746094 44.40625 2.917969 C 44.445312 2.984375 44.464844 3.054688 44.46875 3.132812 C 44.128906 5.183594 43.785156 7.230469 43.433594 9.277344 C 45.4375 9.105469 47.4375 8.914062 49.4375 8.714844 C 49.570312 8.699219 49.707031 8.699219 49.84375 8.714844 C 49.90625 8.746094 49.953125 8.789062 49.988281 8.84375 Z M 49.988281 8.84375 "/>
</g>
<mask id="mask1">
  <g filter="url(#alpha)">
<rect x="0" y="0" width="50" height="50" style="fill:rgb(0%,0%,0%);fill-opacity:0.988235;stroke:none;"/>
  </g>
</mask>
<clipPath id="clip2">
  <rect width="50" height="50"/>
</clipPath>
<g id="surface9" clip-path="url(#clip2)">
<path style=" stroke:none;fill-rule:evenodd;fill:rgb(66.27451%,22.745098%,17.647059%);fill-opacity:1;" d="M 26.945312 3.972656 C 24.851562 3.839844 22.769531 3.945312 20.703125 4.296875 C 19.667969 4.476562 18.664062 4.761719 17.691406 5.148438 C 17.644531 5.085938 17.585938 5.042969 17.511719 5.015625 C 17.292969 5.003906 17.09375 5.058594 16.910156 5.183594 C 16.253906 5.667969 15.554688 6.089844 14.824219 6.457031 C 14.09375 6.890625 13.398438 7.371094 12.734375 7.898438 C 11.644531 8.839844 10.601562 9.835938 9.601562 10.886719 C 8.546875 11.996094 7.609375 13.195312 6.792969 14.484375 C 5.71875 16.285156 4.820312 18.175781 4.105469 20.152344 C 3.316406 22.257812 2.78125 24.425781 2.496094 26.65625 C 2.320312 28.121094 2.320312 29.585938 2.496094 31.050781 C 2.792969 32.882812 3.375 34.617188 4.25 36.257812 C 4.996094 37.621094 5.992188 38.769531 7.238281 39.703125 C 9.523438 41.40625 12.035156 42.695312 14.773438 43.566406 C 16.585938 44.101562 18.425781 44.515625 20.296875 44.816406 C 23.59375 45.339844 26.898438 45.371094 30.207031 44.910156 C 33.414062 44.46875 36.40625 43.433594 39.1875 41.800781 C 37.574219 43.152344 35.765625 44.179688 33.761719 44.886719 C 31.382812 45.707031 28.933594 46.15625 26.417969 46.230469 C 22.554688 46.375 18.769531 45.910156 15.0625 44.839844 C 12.570312 44.109375 10.257812 43.011719 8.125 41.550781 C 3.476562 38.230469 1.132812 33.695312 1.09375 27.941406 C 1.179688 22.769531 2.679688 18.0625 5.59375 13.8125 C 7.765625 10.675781 10.503906 8.167969 13.8125 6.289062 C 17.933594 4.039062 22.308594 3.269531 26.945312 3.972656 Z M 26.945312 3.972656 "/>
</g>
</defs>
<g id="surface1">
<use xlink:href="#surface6" mask="url(#mask0)"/>
<use xlink:href="#surface9" mask="url(#mask1)"/>
<path style=" stroke:none;fill-rule:evenodd;fill:rgb(99.215686%,99.215686%,99.215686%);fill-opacity:1;" d="M 39.042969 10.332031 C 34.378906 5.933594 28.84375 4.089844 22.429688 4.800781 C 17.476562 5.535156 13.351562 7.773438 10.058594 11.511719 C 6.550781 15.683594 4.964844 20.511719 5.304688 25.984375 C 5.851562 31.773438 8.378906 36.484375 12.878906 40.109375 C 17.351562 43.503906 22.382812 44.832031 27.976562 44.09375 C 33.195312 43.246094 37.449219 40.769531 40.734375 36.664062 C 43.644531 32.847656 45.046875 28.527344 44.945312 23.703125 C 45.304688 26.246094 45.324219 28.789062 45.007812 31.335938 C 44.808594 32.828125 44.425781 34.269531 43.855469 35.65625 C 43.160156 37.269531 42.140625 38.640625 40.792969 39.773438 C 38.539062 41.585938 36 42.875 33.183594 43.640625 C 31 44.214844 28.773438 44.527344 26.511719 44.574219 C 22.285156 44.640625 18.175781 43.992188 14.175781 42.628906 C 11.773438 41.714844 9.550781 40.5 7.5 38.980469 C 6.449219 38.179688 5.597656 37.207031 4.945312 36.066406 C 3.300781 33.007812 2.742188 29.761719 3.265625 26.320312 C 3.792969 22.953125 4.816406 19.746094 6.335938 16.695312 C 7.417969 14.566406 8.785156 12.648438 10.441406 10.933594 C 11.582031 9.769531 12.785156 8.6875 14.054688 7.679688 C 14.757812 7.210938 15.476562 6.761719 16.214844 6.335938 C 16.488281 6.144531 16.757812 5.953125 17.03125 5.761719 C 17.210938 5.652344 17.40625 5.574219 17.605469 5.519531 C 17.65625 5.480469 17.695312 5.433594 17.726562 5.375 C 18.8125 4.96875 19.933594 4.710938 21.085938 4.609375 C 22.640625 4.40625 24.203125 4.320312 25.769531 4.34375 C 27.875 4.417969 29.964844 4.65625 32.03125 5.066406 C 33.644531 5.402344 35.171875 5.960938 36.617188 6.746094 C 37.78125 7.410156 38.800781 8.253906 39.679688 9.277344 C 39.695312 9.300781 39.695312 9.324219 39.679688 9.347656 C 39.460938 9.675781 39.25 10.003906 39.042969 10.332031 Z M 39.042969 10.332031 "/>
<path style=" stroke:none;fill-rule:evenodd;fill:rgb(94.509804%,92.941176%,90.196078%);fill-opacity:1;" d="M 39.042969 10.332031 C 38.316406 11.488281 37.609375 12.65625 36.917969 13.839844 C 36.367188 14.261719 35.8125 14.6875 35.261719 15.109375 C 34.726562 14.207031 34.066406 13.402344 33.28125 12.699219 C 31.824219 11.585938 30.210938 10.777344 28.433594 10.273438 C 27.5 10.019531 26.554688 9.8125 25.601562 9.648438 C 25.011719 9.578125 24.417969 9.53125 23.824219 9.515625 C 22.769531 9.53125 21.742188 9.714844 20.75 10.070312 C 20.664062 9.984375 20.558594 9.957031 20.4375 9.984375 C 20.300781 10.101562 20.148438 10.195312 19.984375 10.273438 C 19.632812 10.402344 19.289062 10.546875 18.949219 10.707031 C 18.730469 10.855469 18.515625 11.011719 18.304688 11.171875 C 18.285156 11.203125 18.273438 11.234375 18.265625 11.269531 C 17.585938 11.984375 16.921875 12.710938 16.273438 13.453125 C 15.796875 14.050781 15.371094 14.679688 15.003906 15.351562 C 14.605469 16.210938 14.179688 17.058594 13.730469 17.894531 C 13.65625 18.0625 13.585938 18.230469 13.515625 18.398438 C 13.214844 19.320312 12.910156 20.242188 12.601562 21.160156 C 11.703125 24.289062 11.832031 27.378906 12.984375 30.425781 C 13.953125 32.800781 15.539062 34.636719 17.75 35.933594 C 19.238281 36.820312 20.835938 37.390625 22.550781 37.636719 C 23.894531 37.765625 25.226562 37.691406 26.546875 37.410156 C 29.226562 36.808594 31.726562 35.789062 34.050781 34.347656 C 35.164062 33.636719 36.183594 32.800781 37.109375 31.839844 C 37.949219 30.859375 38.5 29.730469 38.765625 28.457031 C 39.066406 26.960938 39.066406 25.464844 38.765625 23.96875 C 38.53125 22.726562 38.179688 21.519531 37.710938 20.34375 C 37.234375 19.15625 36.730469 17.980469 36.199219 16.816406 C 36.007812 16.441406 35.8125 16.074219 35.609375 15.710938 C 36.421875 15.078125 37.238281 14.449219 38.058594 13.828125 C 39.066406 13.449219 40.074219 13.066406 41.082031 12.6875 C 41.078125 12.710938 41.082031 12.734375 41.09375 12.757812 C 42.128906 14.191406 42.972656 15.71875 43.628906 17.34375 C 44.382812 19.394531 44.824219 21.515625 44.945312 23.703125 C 45.046875 28.527344 43.644531 32.847656 40.734375 36.664062 C 37.449219 40.769531 33.195312 43.246094 27.976562 44.09375 C 22.382812 44.832031 17.351562 43.503906 12.878906 40.109375 C 8.378906 36.484375 5.851562 31.773438 5.304688 25.984375 C 4.964844 20.511719 6.550781 15.683594 10.058594 11.511719 C 13.351562 7.773438 17.476562 5.535156 22.429688 4.800781 C 28.84375 4.089844 34.378906 5.933594 39.042969 10.332031 Z M 39.042969 10.332031 "/>
<path style=" stroke:none;fill-rule:evenodd;fill:rgb(65.882353%,22.745098%,17.647059%);fill-opacity:1;" d="M 43.53125 4.644531 C 43.546875 4.660156 43.554688 4.679688 43.554688 4.703125 C 43.308594 6.148438 43.066406 7.59375 42.824219 9.039062 C 42.804688 9.167969 42.808594 9.292969 42.835938 9.421875 C 42.8125 9.46875 42.785156 9.515625 42.761719 9.566406 C 41.085938 10.894531 39.398438 12.207031 37.699219 13.503906 C 39.683594 10.585938 41.625 7.636719 43.53125 4.644531 Z M 43.53125 4.644531 "/>
<path style=" stroke:none;fill-rule:evenodd;fill:rgb(65.490196%,22.745098%,17.647059%);fill-opacity:1;" d="M 47.109375 9.542969 C 47.1875 9.539062 47.269531 9.542969 47.347656 9.554688 C 45.414062 10.359375 43.46875 11.144531 41.515625 11.90625 C 40.382812 12.367188 39.253906 12.832031 38.128906 13.296875 C 39.683594 12.160156 41.234375 11.027344 42.785156 9.890625 C 42.863281 9.898438 42.9375 9.933594 43.003906 9.984375 C 43.046875 9.988281 43.089844 9.992188 43.136719 9.996094 C 44.460938 9.816406 45.785156 9.664062 47.109375 9.542969 Z M 47.109375 9.542969 "/>
<path style=" stroke:none;fill-rule:evenodd;fill:rgb(99.607843%,99.607843%,99.607843%);fill-opacity:1;" d="M 26.921875 22.382812 C 26.292969 21.671875 25.527344 21.457031 24.617188 21.746094 C 23.710938 22.179688 23.3125 22.894531 23.429688 23.894531 C 23.609375 24.726562 24.109375 25.25 24.929688 25.46875 C 25.714844 25.597656 26.367188 25.363281 26.882812 24.761719 C 27.277344 24.214844 27.386719 23.613281 27.207031 22.960938 C 27.230469 22.949219 27.253906 22.9375 27.28125 22.921875 C 27.640625 22.539062 28.007812 22.164062 28.382812 21.796875 C 28.863281 21.378906 29.34375 20.964844 29.824219 20.546875 C 29.933594 20.609375 30.035156 20.691406 30.125 20.800781 C 30.566406 21.292969 30.769531 21.875 30.738281 22.539062 C 30.78125 24.1875 30.191406 25.554688 28.960938 26.644531 C 28.246094 27.265625 27.429688 27.714844 26.511719 27.988281 C 24.96875 28.367188 23.535156 28.121094 22.214844 27.246094 C 21.800781 26.949219 21.460938 26.585938 21.195312 26.152344 C 20.992188 25.753906 20.808594 25.34375 20.644531 24.929688 C 20.453125 24.417969 20.414062 23.898438 20.523438 23.367188 C 20.84375 21.839844 21.726562 20.789062 23.175781 20.210938 C 24.269531 19.761719 25.402344 19.582031 26.585938 19.683594 C 27.082031 19.769531 27.578125 19.863281 28.074219 19.972656 C 28.167969 19.988281 28.265625 19.988281 28.359375 19.972656 C 28.394531 19.929688 28.386719 19.898438 28.335938 19.875 C 28.191406 19.867188 28.046875 19.84375 27.90625 19.804688 C 27.550781 19.691406 27.199219 19.578125 26.847656 19.46875 C 25.671875 19.207031 24.507812 19.273438 23.367188 19.660156 C 22.679688 19.9375 22.046875 20.304688 21.472656 20.761719 C 20.703125 21.535156 20.257812 22.46875 20.140625 23.558594 C 20.085938 24.21875 20.1875 24.851562 20.453125 25.457031 C 21.042969 26.902344 22.09375 27.835938 23.609375 28.253906 C 25.03125 28.636719 26.410156 28.507812 27.738281 27.867188 C 28.988281 27.28125 29.960938 26.386719 30.652344 25.191406 C 31.042969 24.386719 31.222656 23.535156 31.191406 22.636719 C 31.1875 21.699219 30.851562 20.90625 30.183594 20.257812 C 31.847656 18.808594 33.535156 17.386719 35.25 16 C 35.722656 16.847656 36.140625 17.71875 36.511719 18.613281 C 37.007812 19.738281 37.457031 20.882812 37.855469 22.046875 C 38.355469 23.609375 38.589844 25.207031 38.550781 26.847656 C 38.46875 29.074219 37.597656 30.925781 35.945312 32.40625 C 34.945312 33.277344 33.847656 34.015625 32.65625 34.613281 C 30.789062 35.582031 28.835938 36.332031 26.800781 36.871094 C 25.449219 37.191406 24.078125 37.289062 22.695312 37.15625 C 19.804688 36.699219 17.367188 35.40625 15.386719 33.28125 C 13.765625 31.367188 12.878906 29.152344 12.722656 26.632812 C 12.488281 24.976562 12.59375 23.34375 13.035156 21.734375 C 13.386719 20.609375 13.761719 19.488281 14.164062 18.375 C 14.660156 17.382812 15.15625 16.390625 15.652344 15.398438 C 16.035156 14.734375 16.46875 14.101562 16.945312 13.503906 C 17.574219 12.773438 18.222656 12.0625 18.902344 11.378906 C 19.0625 11.234375 19.238281 11.113281 19.429688 11.019531 C 19.777344 10.871094 20.121094 10.71875 20.464844 10.5625 C 20.609375 10.480469 20.738281 10.375 20.847656 10.25 C 22.273438 9.792969 23.71875 9.703125 25.191406 9.984375 C 26.570312 10.214844 27.925781 10.554688 29.25 10.992188 C 30.625 11.460938 31.875 12.148438 32.992188 13.058594 C 33.738281 13.707031 34.359375 14.453125 34.855469 15.300781 C 34.882812 15.339844 34.890625 15.378906 34.878906 15.421875 C 33.117188 16.847656 31.386719 18.308594 29.679688 19.804688 C 28.902344 19.339844 28.058594 19.046875 27.148438 18.925781 C 26.984375 18.980469 26.921875 19.09375 26.957031 19.261719 C 26.976562 19.316406 27.011719 19.351562 27.0625 19.371094 C 27.878906 19.441406 28.640625 19.679688 29.34375 20.089844 C 28.828125 20.554688 28.308594 21.007812 27.785156 21.460938 C 27.472656 21.75 27.1875 22.058594 26.921875 22.382812 Z M 26.921875 22.382812 "/>
<path style=" stroke:none;fill-rule:evenodd;fill:rgb(98.039216%,98.039216%,98.039216%);fill-opacity:1;" d="M 43.628906 17.34375 C 42.972656 15.71875 42.128906 14.191406 41.09375 12.757812 C 41.082031 12.734375 41.078125 12.710938 41.082031 12.6875 C 41.285156 12.613281 41.484375 12.53125 41.683594 12.445312 C 42.128906 13.265625 42.515625 14.113281 42.847656 14.992188 C 43.148438 15.761719 43.40625 16.546875 43.628906 17.34375 Z M 43.628906 17.34375 "/>
<path style=" stroke:none;fill-rule:evenodd;fill:rgb(66.666667%,23.137255%,18.039216%);fill-opacity:1;" d="M 26.921875 22.382812 C 27.042969 22.5625 27.136719 22.753906 27.207031 22.960938 C 27.386719 23.613281 27.277344 24.214844 26.882812 24.761719 C 26.367188 25.363281 25.714844 25.597656 24.929688 25.46875 C 24.109375 25.25 23.609375 24.726562 23.429688 23.894531 C 23.3125 22.894531 23.710938 22.179688 24.617188 21.746094 C 25.527344 21.457031 26.292969 21.671875 26.921875 22.382812 Z M 26.921875 22.382812 "/>
</g>
</svg>
