<?xml version="1.0" encoding="UTF-8"?>
<svg xmlns="http://www.w3.org/2000/svg" xmlns:xlink="http://www.w3.org/1999/xlink" width="50pt" height="50pt" viewBox="0 0 50 50" version="1.1">
<defs>
<filter id="alpha" filterUnits="objectBoundingBox" x="0%" y="0%" width="100%" height="100%">
  <feColorMatrix type="matrix" in="SourceGraphic" values="0 0 0 0 1 0 0 0 0 1 0 0 0 0 1 0 0 0 1 0"/>
</filter>
<mask id="mask0">
  <g filter="url(#alpha)">
<rect x="0" y="0" width="50" height="50" style="fill:rgb(0%,0%,0%);fill-opacity:0.980392;stroke:none;"/>
  </g>
</mask>
<clipPath id="clip1">
  <rect width="50" height="50"/>
</clipPath>
<g id="surface6" clip-path="url(#clip1)">
<path style=" stroke:none;fill-rule:evenodd;fill:rgb(0%,0%,0%);fill-opacity:1;" d="M 28.046875 5.460938 C 27.859375 5.625 27.660156 5.769531 27.449219 5.894531 C 27.046875 6.089844 26.628906 6.128906 26.199219 6 C 25.75 5.816406 25.328125 5.582031 24.941406 5.292969 C 24.898438 5.21875 24.871094 5.136719 24.855469 5.054688 C 24.875 4.980469 24.886719 4.90625 24.890625 4.835938 C 24.582031 4.640625 24.316406 4.390625 24.101562 4.09375 C 23.835938 3.644531 23.804688 3.179688 24.003906 2.699219 C 24.511719 1.636719 25.355469 1.121094 26.535156 1.152344 C 27.742188 1.335938 28.46875 2.027344 28.707031 3.230469 C 28.824219 4.078125 28.605469 4.820312 28.046875 5.460938 Z M 25.9375 1.957031 C 25.417969 2.386719 24.984375 2.890625 24.640625 3.46875 C 24.625 3.019531 24.792969 2.648438 25.144531 2.351562 C 25.375 2.15625 25.640625 2.023438 25.9375 1.957031 Z M 25.9375 1.957031 "/>
</g>
<mask id="mask1">
  <g filter="url(#alpha)">
<rect x="0" y="0" width="50" height="50" style="fill:rgb(0%,0%,0%);fill-opacity:0.996078;stroke:none;"/>
  </g>
</mask>
<clipPath id="clip2">
  <rect width="50" height="50"/>
</clipPath>
<g id="surface9" clip-path="url(#clip2)">
<path style=" stroke:none;fill-rule:evenodd;fill:rgb(72.941176%,71.372549%,69.411765%);fill-opacity:1;" d="M 24.640625 3.46875 C 24.984375 2.890625 25.417969 2.386719 25.9375 1.957031 C 26.664062 1.8125 27.246094 2.046875 27.675781 2.652344 C 28.074219 3.390625 28.035156 4.101562 27.554688 4.789062 C 27.285156 5.140625 26.925781 5.289062 26.488281 5.234375 C 26.261719 5.15625 26.054688 5.046875 25.863281 4.910156 C 25.84375 4.839844 25.832031 4.765625 25.828125 4.691406 C 25.8125 4.65625 25.792969 4.625 25.769531 4.597656 C 25.492188 4.398438 25.21875 4.191406 24.953125 3.984375 C 24.832031 3.867188 24.734375 3.734375 24.652344 3.589844 C 24.640625 3.550781 24.636719 3.507812 24.640625 3.46875 Z M 24.640625 3.46875 "/>
</g>
<mask id="mask2">
  <g filter="url(#alpha)">
<rect x="0" y="0" width="50" height="50" style="fill:rgb(0%,0%,0%);fill-opacity:0.984314;stroke:none;"/>
  </g>
</mask>
<clipPath id="clip3">
  <rect width="50" height="50"/>
</clipPath>
<g id="surface12" clip-path="url(#clip3)">
<path style=" stroke:none;fill-rule:evenodd;fill:rgb(0%,0%,0%);fill-opacity:1;" d="M 21.640625 4.691406 C 21.933594 5.046875 22.066406 5.453125 22.046875 5.917969 C 22.015625 6.375 21.824219 6.746094 21.472656 7.03125 C 21.132812 7.246094 20.773438 7.292969 20.390625 7.175781 C 20.183594 7.109375 19.984375 7.019531 19.792969 6.914062 C 19.59375 6.789062 19.394531 6.675781 19.191406 6.566406 C 18.96875 6.351562 18.96875 6.140625 19.191406 5.929688 C 19.328125 5.847656 19.464844 5.847656 19.597656 5.929688 C 19.8125 6.039062 20.019531 6.160156 20.222656 6.289062 C 20.886719 6.648438 21.246094 6.453125 21.292969 5.699219 C 21.179688 5.332031 20.960938 5.046875 20.632812 4.847656 C 19.996094 4.464844 19.492188 4.597656 19.132812 5.246094 C 18.972656 5.550781 18.847656 5.871094 18.757812 6.203125 C 18.578125 6.441406 18.351562 6.484375 18.085938 6.335938 C 18.015625 6.257812 17.976562 6.167969 17.96875 6.0625 C 17.988281 5.167969 18.371094 4.484375 19.117188 4.007812 C 19.773438 3.730469 20.40625 3.777344 21.015625 4.152344 C 21.257812 4.292969 21.464844 4.472656 21.640625 4.691406 Z M 21.640625 4.691406 "/>
</g>
<mask id="mask3">
  <g filter="url(#alpha)">
<rect x="0" y="0" width="50" height="50" style="fill:rgb(0%,0%,0%);fill-opacity:0.996078;stroke:none;"/>
  </g>
</mask>
<clipPath id="clip4">
  <rect width="50" height="50"/>
</clipPath>
<g id="surface15" clip-path="url(#clip4)">
<path style=" stroke:none;fill-rule:evenodd;fill:rgb(72.54902%,70.980392%,69.019608%);fill-opacity:1;" d="M 19.191406 6.566406 C 19.003906 6.496094 18.859375 6.378906 18.757812 6.203125 C 18.847656 5.871094 18.972656 5.550781 19.132812 5.246094 C 19.492188 4.597656 19.996094 4.464844 20.632812 4.847656 C 20.960938 5.046875 21.179688 5.332031 21.292969 5.699219 C 21.246094 6.453125 20.886719 6.648438 20.222656 6.289062 C 20.019531 6.160156 19.8125 6.039062 19.597656 5.929688 C 19.464844 5.847656 19.328125 5.847656 19.191406 5.929688 C 18.96875 6.140625 18.96875 6.351562 19.191406 6.566406 Z M 19.191406 6.566406 "/>
</g>
<mask id="mask4">
  <g filter="url(#alpha)">
<rect x="0" y="0" width="50" height="50" style="fill:rgb(0%,0%,0%);fill-opacity:0.901961;stroke:none;"/>
  </g>
</mask>
<clipPath id="clip5">
  <rect width="50" height="50"/>
</clipPath>
<g id="surface18" clip-path="url(#clip5)">
<path style=" stroke:none;fill-rule:evenodd;fill:rgb(71.372549%,69.803922%,67.843137%);fill-opacity:1;" d="M 21.640625 4.691406 C 21.863281 4.824219 22.035156 5.011719 22.15625 5.246094 C 22.191406 5.386719 22.199219 5.53125 22.179688 5.675781 C 22.152344 5.769531 22.109375 5.847656 22.046875 5.917969 C 22.066406 5.453125 21.933594 5.046875 21.640625 4.691406 Z M 21.640625 4.691406 "/>
</g>
<mask id="mask5">
  <g filter="url(#alpha)">
<rect x="0" y="0" width="50" height="50" style="fill:rgb(0%,0%,0%);fill-opacity:0.835294;stroke:none;"/>
  </g>
</mask>
<clipPath id="clip6">
  <rect width="50" height="50"/>
</clipPath>
<g id="surface21" clip-path="url(#clip6)">
<path style=" stroke:none;fill-rule:evenodd;fill:rgb(70.196078%,68.627451%,67.058824%);fill-opacity:1;" d="M 28.046875 5.460938 C 27.957031 5.753906 27.753906 5.898438 27.449219 5.894531 C 27.660156 5.769531 27.859375 5.625 28.046875 5.460938 Z M 28.046875 5.460938 "/>
</g>
<mask id="mask6">
  <g filter="url(#alpha)">
<rect x="0" y="0" width="50" height="50" style="fill:rgb(0%,0%,0%);fill-opacity:0.980392;stroke:none;"/>
  </g>
</mask>
<clipPath id="clip7">
  <rect width="50" height="50"/>
</clipPath>
<g id="surface24" clip-path="url(#clip7)">
<path style=" stroke:none;fill-rule:evenodd;fill:rgb(0%,0%,0%);fill-opacity:1;" d="M 22.960938 8.894531 C 23.746094 8.835938 24.300781 9.164062 24.628906 9.878906 C 24.785156 10.4375 24.6875 10.949219 24.339844 11.414062 C 23.855469 11.910156 23.308594 11.992188 22.695312 11.664062 C 22.496094 11.515625 22.3125 11.347656 22.144531 11.160156 C 21.84375 11.183594 21.664062 11.050781 21.601562 10.765625 C 21.527344 9.945312 21.859375 9.355469 22.601562 9 C 22.722656 8.960938 22.839844 8.925781 22.960938 8.894531 Z M 22.960938 8.894531 "/>
</g>
<mask id="mask7">
  <g filter="url(#alpha)">
<rect x="0" y="0" width="50" height="50" style="fill:rgb(0%,0%,0%);fill-opacity:0.996078;stroke:none;"/>
  </g>
</mask>
<clipPath id="clip8">
  <rect width="50" height="50"/>
</clipPath>
<g id="surface27" clip-path="url(#clip8)">
<path style=" stroke:none;fill-rule:evenodd;fill:rgb(72.54902%,70.980392%,69.019608%);fill-opacity:1;" d="M 23.609375 9.804688 C 23.609375 9.820312 23.617188 9.828125 23.632812 9.828125 C 23.632812 9.84375 23.640625 9.855469 23.65625 9.855469 C 23.65625 9.871094 23.664062 9.878906 23.679688 9.878906 C 23.679688 9.894531 23.6875 9.902344 23.703125 9.902344 C 23.703125 9.917969 23.710938 9.925781 23.726562 9.925781 C 23.726562 9.941406 23.734375 9.949219 23.75 9.949219 C 23.75 9.964844 23.761719 9.972656 23.777344 9.972656 C 23.773438 9.996094 23.78125 10.011719 23.800781 10.023438 C 23.800781 10.039062 23.808594 10.046875 23.824219 10.046875 C 23.820312 10.070312 23.828125 10.085938 23.847656 10.09375 C 23.847656 10.109375 23.855469 10.117188 23.871094 10.117188 C 23.867188 10.140625 23.875 10.15625 23.894531 10.164062 C 23.992188 10.519531 23.894531 10.8125 23.609375 11.042969 C 23.425781 11.128906 23.25 11.121094 23.078125 11.019531 C 22.925781 10.898438 22.792969 10.761719 22.671875 10.609375 C 22.605469 10.574219 22.53125 10.550781 22.457031 10.550781 C 22.457031 10.027344 22.714844 9.730469 23.234375 9.660156 C 23.378906 9.660156 23.503906 9.707031 23.609375 9.804688 Z M 23.609375 9.804688 "/>
</g>
<mask id="mask8">
  <g filter="url(#alpha)">
<rect x="0" y="0" width="50" height="50" style="fill:rgb(0%,0%,0%);fill-opacity:0.988235;stroke:none;"/>
  </g>
</mask>
<clipPath id="clip9">
  <rect width="50" height="50"/>
</clipPath>
<g id="surface30" clip-path="url(#clip9)">
<path style=" stroke:none;fill-rule:evenodd;fill:rgb(0%,0%,0%);fill-opacity:1;" d="M 20.246094 14.484375 C 20.320312 14.480469 20.390625 14.488281 20.464844 14.5 C 21.445312 14.84375 22.457031 15 23.5 14.964844 C 24.125 14.957031 24.75 14.933594 25.371094 14.894531 C 26.042969 14.835938 26.441406 15.132812 26.570312 15.78125 C 26.582031 16.132812 26.589844 16.488281 26.597656 16.839844 C 26.667969 17.550781 26.695312 18.261719 26.679688 18.976562 C 26.613281 25.167969 26.527344 31.359375 26.417969 37.554688 C 26.417969 38.132812 26.445312 38.707031 26.5 39.28125 C 26.601562 40.089844 26.707031 40.898438 26.8125 41.707031 C 26.910156 42.523438 26.917969 43.339844 26.835938 44.15625 C 26.730469 45.058594 26.34375 45.816406 25.671875 46.421875 C 25.023438 46.972656 24.300781 47.414062 23.511719 47.742188 C 22.75 48.085938 22.035156 48.003906 21.375 47.503906 C 20.945312 47.105469 20.613281 46.636719 20.378906 46.097656 C 19.851562 44.757812 19.570312 43.367188 19.539062 41.921875 C 19.488281 41.5625 19.441406 41.203125 19.394531 40.84375 C 19.355469 37.570312 19.347656 34.296875 19.371094 31.023438 C 19.421875 30.28125 19.46875 29.535156 19.515625 28.792969 C 19.511719 25.144531 19.496094 21.496094 19.46875 17.847656 C 19.476562 17.582031 19.5 17.316406 19.539062 17.054688 C 19.632812 16.625 19.710938 16.191406 19.777344 15.757812 C 19.789062 15.488281 19.796875 15.214844 19.804688 14.941406 C 19.875 14.714844 20.023438 14.5625 20.246094 14.484375 Z M 25.648438 29.730469 C 25.667969 30.097656 25.671875 30.464844 25.660156 30.832031 C 25.644531 30.78125 25.617188 30.742188 25.574219 30.714844 C 25.597656 30.382812 25.621094 30.054688 25.648438 29.730469 Z M 25.695312 34.335938 C 25.613281 33.804688 25.542969 33.269531 25.480469 32.730469 C 25.492188 32.273438 25.515625 31.816406 25.550781 31.359375 C 25.59375 31.320312 25.628906 31.269531 25.660156 31.21875 C 25.691406 32.257812 25.703125 33.296875 25.695312 34.335938 Z M 20.246094 36.113281 C 20.261719 36.136719 20.277344 36.160156 20.296875 36.1875 C 20.382812 37.613281 20.496094 39.035156 20.632812 40.457031 C 20.351562 40.484375 20.253906 40.636719 20.332031 40.914062 C 20.40625 41.050781 20.523438 41.105469 20.679688 41.082031 C 20.785156 42.117188 20.910156 43.148438 21.050781 44.179688 C 21.148438 44.847656 21.273438 45.511719 21.421875 46.171875 C 21.214844 45.808594 21.050781 45.425781 20.929688 45.019531 C 20.605469 44.011719 20.4375 42.980469 20.425781 41.921875 C 20.371094 41.5 20.316406 41.074219 20.257812 40.652344 C 20.214844 39.136719 20.210938 37.625 20.246094 36.113281 Z M 25.984375 44.5625 C 25.890625 44.910156 25.722656 45.214844 25.480469 45.476562 C 25.648438 45.171875 25.816406 44.867188 25.984375 44.5625 Z M 25.984375 44.5625 "/>
</g>
<mask id="mask9">
  <g filter="url(#alpha)">
<rect x="0" y="0" width="50" height="50" style="fill:rgb(0%,0%,0%);fill-opacity:0.996078;stroke:none;"/>
  </g>
</mask>
<clipPath id="clip10">
  <rect width="50" height="50"/>
</clipPath>
<g id="surface33" clip-path="url(#clip10)">
<path style=" stroke:none;fill-rule:evenodd;fill:rgb(66.27451%,22.745098%,17.647059%);fill-opacity:1;" d="M 20.269531 30.714844 C 20.320312 30.714844 20.367188 30.714844 20.414062 30.714844 C 20.453125 30.84375 20.535156 30.945312 20.65625 31.011719 C 21 31.234375 21.375 31.371094 21.785156 31.421875 C 22.152344 31.453125 22.519531 31.464844 22.886719 31.457031 C 23.691406 31.441406 24.492188 31.457031 25.289062 31.503906 C 25.34375 31.917969 25.40625 32.324219 25.480469 32.730469 C 25.542969 33.269531 25.613281 33.804688 25.695312 34.335938 C 25.671875 35.890625 25.710938 37.441406 25.804688 38.996094 C 25.941406 40.066406 26.070312 41.136719 26.1875 42.210938 C 26.203125 42.644531 26.203125 43.074219 26.1875 43.507812 C 26.167969 43.800781 26.125 44.085938 26.054688 44.371094 C 26.035156 44.386719 26.027344 44.414062 26.03125 44.441406 C 26.011719 44.460938 26.003906 44.484375 26.007812 44.515625 C 25.988281 44.523438 25.980469 44.539062 25.984375 44.5625 C 25.816406 44.867188 25.648438 45.171875 25.480469 45.476562 C 25.464844 45.476562 25.457031 45.484375 25.457031 45.5 C 25.4375 45.507812 25.429688 45.523438 25.433594 45.546875 C 25.132812 45.894531 24.78125 46.175781 24.375 46.398438 C 24.070312 46.558594 23.769531 46.71875 23.464844 46.878906 C 23.125 47.054688 22.765625 47.125 22.382812 47.09375 C 21.941406 46.921875 21.621094 46.621094 21.421875 46.195312 C 21.421875 46.1875 21.421875 46.179688 21.421875 46.171875 C 21.273438 45.511719 21.148438 44.847656 21.050781 44.179688 C 20.910156 43.148438 20.785156 42.117188 20.679688 41.082031 C 20.902344 40.972656 20.960938 40.804688 20.859375 40.578125 C 20.796875 40.511719 20.722656 40.46875 20.632812 40.457031 C 20.496094 39.035156 20.382812 37.613281 20.296875 36.1875 C 20.289062 35.78125 20.265625 35.382812 20.222656 34.984375 C 20.21875 33.558594 20.234375 32.132812 20.269531 30.714844 Z M 20.269531 30.714844 "/>
</g>
<mask id="mask10">
  <g filter="url(#alpha)">
<rect x="0" y="0" width="50" height="50" style="fill:rgb(0%,0%,0%);fill-opacity:0.917647;stroke:none;"/>
  </g>
</mask>
<clipPath id="clip11">
  <rect width="50" height="50"/>
</clipPath>
<g id="surface36" clip-path="url(#clip11)">
<path style=" stroke:none;fill-rule:evenodd;fill:rgb(72.54902%,70.196078%,68.235294%);fill-opacity:1;" d="M 25.550781 31.359375 C 25.515625 31.816406 25.492188 32.273438 25.480469 32.730469 C 25.40625 32.324219 25.34375 31.917969 25.289062 31.503906 C 25.289062 31.480469 25.289062 31.457031 25.289062 31.433594 C 25.378906 31.421875 25.46875 31.398438 25.550781 31.359375 Z M 25.550781 31.359375 "/>
</g>
<mask id="mask11">
  <g filter="url(#alpha)">
<rect x="0" y="0" width="50" height="50" style="fill:rgb(0%,0%,0%);fill-opacity:0.960784;stroke:none;"/>
  </g>
</mask>
<clipPath id="clip12">
  <rect width="50" height="50"/>
</clipPath>
<g id="surface39" clip-path="url(#clip12)">
<path style=" stroke:none;fill-rule:evenodd;fill:rgb(1.176471%,0.392157%,0%);fill-opacity:1;" d="M 20.632812 40.457031 C 20.722656 40.46875 20.796875 40.511719 20.859375 40.578125 C 20.960938 40.804688 20.902344 40.972656 20.679688 41.082031 C 20.523438 41.105469 20.40625 41.050781 20.332031 40.914062 C 20.253906 40.636719 20.351562 40.484375 20.632812 40.457031 Z M 20.632812 40.457031 "/>
</g>
</defs>
<g id="surface1">
<use xlink:href="#surface6" mask="url(#mask0)"/>
<use xlink:href="#surface9" mask="url(#mask1)"/>
<use xlink:href="#surface12" mask="url(#mask2)"/>
<use xlink:href="#surface15" mask="url(#mask3)"/>
<use xlink:href="#surface18" mask="url(#mask4)"/>
<use xlink:href="#surface21" mask="url(#mask5)"/>
<use xlink:href="#surface24" mask="url(#mask6)"/>
<use xlink:href="#surface27" mask="url(#mask7)"/>
<use xlink:href="#surface30" mask="url(#mask8)"/>
<path style=" stroke:none;fill-rule:evenodd;fill:rgb(72.941176%,71.372549%,69.411765%);fill-opacity:1;" d="M 25.648438 29.730469 C 25.621094 30.054688 25.597656 30.382812 25.574219 30.714844 C 25.53125 30.679688 25.484375 30.652344 25.433594 30.628906 C 24.257812 30.621094 23.078125 30.613281 21.902344 30.605469 C 21.558594 30.582031 21.253906 30.464844 20.992188 30.246094 C 20.601562 30.15625 20.410156 30.3125 20.414062 30.714844 C 20.367188 30.714844 20.320312 30.714844 20.269531 30.714844 C 20.269531 30.488281 20.285156 30.265625 20.308594 30.039062 C 20.367188 29.617188 20.417969 29.195312 20.453125 28.769531 C 20.46875 25.070312 20.496094 21.375 20.523438 17.679688 C 20.535156 17.542969 20.550781 17.40625 20.570312 17.269531 C 20.664062 16.855469 20.757812 16.4375 20.847656 16.023438 C 21.441406 16.144531 22.042969 16.21875 22.648438 16.25 C 23.449219 16.265625 24.246094 16.273438 25.046875 16.273438 C 25.125 16.246094 25.207031 16.226562 25.289062 16.214844 C 25.285156 16.285156 25.289062 16.359375 25.300781 16.429688 C 25.375 16.761719 25.457031 17.089844 25.539062 17.414062 C 25.570312 17.589844 25.59375 17.765625 25.613281 17.941406 C 25.605469 19.25 25.585938 20.558594 25.550781 21.867188 C 25.589844 24.488281 25.621094 27.109375 25.648438 29.730469 Z M 25.648438 29.730469 "/>
<use xlink:href="#surface33" mask="url(#mask9)"/>
<use xlink:href="#surface36" mask="url(#mask10)"/>
<path style=" stroke:none;fill-rule:evenodd;fill:rgb(50.588235%,18.039216%,13.72549%);fill-opacity:1;" d="M 22.886719 31.457031 C 23.683594 31.433594 24.484375 31.425781 25.289062 31.433594 C 25.289062 31.457031 25.289062 31.480469 25.289062 31.503906 C 24.492188 31.457031 23.691406 31.441406 22.886719 31.457031 Z M 22.886719 31.457031 "/>
<path style=" stroke:none;fill-rule:evenodd;fill:rgb(0.392157%,0%,0%);fill-opacity:1;" d="M 23.054688 34.097656 C 23.644531 34.03125 24.027344 34.277344 24.195312 34.839844 C 24.261719 35.703125 23.867188 36.109375 23.007812 36.054688 C 22.660156 35.960938 22.441406 35.742188 22.347656 35.394531 C 22.21875 34.898438 22.355469 34.5 22.769531 34.207031 C 22.863281 34.160156 22.960938 34.125 23.054688 34.097656 Z M 23.054688 34.097656 "/>
<path style=" stroke:none;fill-rule:evenodd;fill:rgb(63.529412%,55.686275%,53.333333%);fill-opacity:1;" d="M 20.222656 34.984375 C 20.265625 35.382812 20.289062 35.78125 20.296875 36.1875 C 20.277344 36.160156 20.261719 36.136719 20.246094 36.113281 C 20.222656 35.738281 20.214844 35.363281 20.222656 34.984375 Z M 20.222656 34.984375 "/>
<use xlink:href="#surface39" mask="url(#mask11)"/>
<path style=" stroke:none;fill-rule:evenodd;fill:rgb(1.176471%,0%,0%);fill-opacity:1;" d="M 23.320312 40.507812 C 24.1875 40.492188 24.765625 40.894531 25.058594 41.707031 C 25.164062 42.414062 24.996094 43.042969 24.554688 43.601562 C 24.289062 43.890625 23.964844 43.980469 23.582031 43.878906 C 23.226562 43.742188 22.9375 43.523438 22.707031 43.21875 C 22.558594 42.9375 22.5 42.636719 22.527344 42.320312 C 22.523438 42.113281 22.539062 41.910156 22.574219 41.707031 C 22.375 41.617188 22.296875 41.464844 22.347656 41.25 C 22.597656 40.898438 22.921875 40.652344 23.320312 40.507812 Z M 23.320312 40.507812 "/>
<path style=" stroke:none;fill-rule:evenodd;fill:rgb(66.27451%,22.745098%,17.647059%);fill-opacity:1;" d="M 23.441406 41.082031 C 24.046875 41.078125 24.441406 41.367188 24.628906 41.945312 C 24.675781 42.460938 24.558594 42.933594 24.269531 43.363281 C 24.082031 43.570312 23.851562 43.628906 23.582031 43.542969 C 23.320312 43.433594 23.101562 43.269531 22.921875 43.050781 C 22.863281 42.953125 22.8125 42.851562 22.78125 42.738281 C 22.753906 42.394531 22.734375 42.050781 22.71875 41.707031 C 22.757812 41.683594 22.796875 41.664062 22.839844 41.648438 C 23.015625 41.425781 23.214844 41.238281 23.441406 41.082031 Z M 23.441406 41.082031 "/>
</g>
</svg>
