<?xml version="1.0" encoding="UTF-8"?>
<svg xmlns="http://www.w3.org/2000/svg" xmlns:xlink="http://www.w3.org/1999/xlink" width="50pt" height="50pt" viewBox="0 0 50 50" version="1.1">
<defs>
<filter id="alpha" filterUnits="objectBoundingBox" x="0%" y="0%" width="100%" height="100%">
  <feColorMatrix type="matrix" in="SourceGraphic" values="0 0 0 0 1 0 0 0 0 1 0 0 0 0 1 0 0 0 1 0"/>
</filter>
<mask id="mask0">
  <g filter="url(#alpha)">
<rect x="0" y="0" width="50" height="50" style="fill:rgb(0%,0%,0%);fill-opacity:0.94902;stroke:none;"/>
  </g>
</mask>
<clipPath id="clip1">
  <rect width="50" height="50"/>
</clipPath>
<g id="surface6" clip-path="url(#clip1)">
<path style=" stroke:none;fill-rule:evenodd;fill:rgb(0.392157%,0.392157%,0.392157%);fill-opacity:1;" d="M 30.734375 0.457031 C 32.046875 0.398438 33.328125 0.585938 34.574219 1.007812 C 35.605469 1.417969 36.414062 2.082031 36.996094 3 C 37.527344 3.851562 37.925781 4.765625 38.195312 5.734375 C 38.230469 5.804688 38.285156 5.835938 38.363281 5.832031 C 38.375 5.921875 38.339844 5.992188 38.269531 6.046875 C 38.585938 7.273438 38.636719 8.511719 38.410156 9.765625 C 38.558594 9.707031 38.703125 9.636719 38.84375 9.550781 C 39.167969 9.488281 39.402344 9.605469 39.539062 9.910156 C 39.621094 10.277344 39.503906 10.558594 39.179688 10.75 C 38.886719 10.882812 38.585938 10.976562 38.269531 11.035156 C 38.183594 11.167969 38.070312 11.273438 37.933594 11.347656 C 37.296875 13.011719 36.179688 14.21875 34.574219 14.972656 C 34.324219 15.058594 34.066406 15.125 33.804688 15.164062 C 33.441406 15.769531 32.960938 16.265625 32.367188 16.652344 C 31.652344 17.015625 30.933594 17.367188 30.207031 17.707031 C 29.769531 17.828125 29.328125 17.851562 28.886719 17.777344 C 28.835938 18.210938 28.769531 18.640625 28.695312 19.074219 C 27.433594 22.832031 26.167969 26.589844 24.902344 30.351562 C 24.246094 32.484375 23.269531 34.449219 21.976562 36.253906 C 21.191406 37.332031 20.246094 37.492188 19.144531 36.730469 C 19.085938 36.804688 19.015625 36.863281 18.929688 36.898438 C 18.714844 36.90625 18.507812 36.9375 18.304688 36.996094 C 17.953125 37.355469 17.707031 37.78125 17.5625 38.269531 C 17.28125 38.945312 17.171875 39.648438 17.226562 40.378906 C 17.382812 40.804688 17.675781 41.085938 18.113281 41.21875 C 18.558594 41.335938 19.003906 41.429688 19.457031 41.507812 C 20.222656 41.679688 20.679688 42.152344 20.824219 42.921875 C 20.863281 43.355469 20.847656 43.789062 20.777344 44.21875 C 20.5 45.316406 20.117188 46.371094 19.625 47.386719 C 19.402344 47.765625 19.074219 47.933594 18.640625 47.890625 C 18.574219 47.867188 18.515625 47.828125 18.472656 47.769531 C 18.378906 47.558594 18.363281 47.351562 18.425781 47.144531 C 18.53125 46.984375 18.683594 46.914062 18.882812 46.929688 C 18.921875 46.890625 18.960938 46.847656 19 46.808594 C 19.257812 46.148438 19.507812 45.484375 19.746094 44.816406 C 19.996094 44.203125 20.070312 43.574219 19.960938 42.921875 C 19.847656 42.585938 19.617188 42.386719 19.265625 42.324219 C 18.507812 42.261719 17.804688 42.035156 17.15625 41.652344 C 16.609375 41.230469 16.335938 40.671875 16.339844 39.972656 C 16.417969 38.84375 16.742188 37.796875 17.324219 36.828125 C 17.523438 36.539062 17.789062 36.324219 18.113281 36.179688 C 17.511719 35.863281 16.871094 35.636719 16.195312 35.507812 C 15.597656 35.238281 15.398438 34.78125 15.59375 34.140625 C 15.914062 32.492188 16.25 30.84375 16.601562 29.199219 C 17.097656 27.605469 17.65625 26.039062 18.28125 24.496094 C 19.246094 22.742188 20.175781 20.96875 21.066406 19.167969 C 21.796875 17.945312 22.46875 16.679688 23.082031 15.378906 C 23.179688 15.257812 23.265625 15.128906 23.34375 14.996094 C 22.882812 14.746094 22.679688 14.363281 22.746094 13.84375 C 22.863281 13.195312 23.0625 12.570312 23.34375 11.972656 C 23.082031 11.597656 22.890625 11.191406 22.769531 10.75 C 22.800781 10.585938 22.855469 10.433594 22.9375 10.292969 C 23.523438 9.59375 24.089844 8.882812 24.640625 8.15625 C 24.40625 7.203125 24.476562 6.265625 24.855469 5.351562 C 25.0625 4.789062 25.273438 4.230469 25.480469 3.671875 C 25.917969 2.71875 26.566406 1.945312 27.421875 1.34375 C 27.652344 1.21875 27.890625 1.125 28.144531 1.054688 C 29.007812 0.828125 29.871094 0.628906 30.734375 0.457031 Z M 31.214844 1.273438 C 31.957031 1.28125 32.695312 1.363281 33.421875 1.511719 C 33.429688 1.574219 33.414062 1.632812 33.375 1.679688 C 32.582031 1.8125 31.8125 2.027344 31.070312 2.328125 C 31.054688 2.3125 31.039062 2.296875 31.023438 2.277344 C 31.121094 1.949219 31.1875 1.613281 31.214844 1.273438 Z M 30.542969 1.320312 C 30.691406 1.304688 30.832031 1.320312 30.972656 1.367188 C 30.902344 1.742188 30.804688 2.109375 30.6875 2.472656 C 29.964844 2.789062 29.277344 3.148438 28.621094 3.550781 C 28.785156 3.054688 28.910156 2.550781 29.007812 2.039062 C 29.476562 1.691406 29.988281 1.453125 30.542969 1.320312 Z M 28.382812 1.847656 C 28.445312 1.847656 28.511719 1.847656 28.574219 1.847656 C 28.582031 1.910156 28.566406 1.96875 28.527344 2.015625 C 28.011719 2.347656 27.515625 2.707031 27.039062 3.09375 C 26.992188 2.984375 27 2.871094 27.0625 2.757812 C 27.421875 2.324219 27.863281 2.023438 28.382812 1.847656 Z M 33.902344 1.847656 C 34.246094 1.804688 34.566406 1.875 34.859375 2.0625 C 35.367188 2.347656 35.785156 2.730469 36.109375 3.214844 C 35.242188 3.285156 34.378906 3.367188 33.515625 3.453125 C 33.621094 2.941406 33.6875 2.421875 33.710938 1.894531 C 33.785156 1.910156 33.851562 1.890625 33.902344 1.847656 Z M 33.179688 1.945312 C 33.261719 1.9375 33.34375 1.945312 33.421875 1.96875 C 33.378906 2.492188 33.300781 3.011719 33.179688 3.527344 C 32.277344 3.796875 31.398438 4.132812 30.542969 4.535156 C 30.527344 4.519531 30.511719 4.503906 30.496094 4.488281 C 30.667969 3.902344 30.820312 3.308594 30.949219 2.710938 C 30.972656 2.6875 31 2.664062 31.023438 2.640625 C 31.730469 2.351562 32.449219 2.121094 33.179688 1.945312 Z M 28.429688 2.375 C 28.375 2.925781 28.238281 3.46875 28.023438 4.007812 C 27.511719 4.367188 27.015625 4.75 26.535156 5.160156 C 26.464844 5.074219 26.449219 4.976562 26.488281 4.871094 C 26.625 4.441406 26.753906 4.007812 26.871094 3.574219 C 27.371094 3.144531 27.894531 2.746094 28.429688 2.375 Z M 30.542969 2.808594 C 30.589844 2.804688 30.621094 2.828125 30.636719 2.878906 C 30.480469 3.519531 30.296875 4.152344 30.085938 4.773438 C 29.292969 5.234375 28.527344 5.730469 27.78125 6.261719 C 28.019531 5.515625 28.261719 4.765625 28.503906 4.007812 C 29.15625 3.5625 29.835938 3.164062 30.542969 2.808594 Z M 32.894531 6.167969 C 33.082031 5.367188 33.289062 4.574219 33.515625 3.789062 C 34.421875 3.648438 35.335938 3.558594 36.253906 3.527344 C 36.1875 4.203125 36.0625 4.867188 35.867188 5.519531 C 34.871094 5.703125 33.878906 5.917969 32.894531 6.167969 Z M 29.246094 7.652344 C 29.691406 6.773438 30.074219 5.871094 30.398438 4.941406 C 31.261719 4.480469 32.164062 4.117188 33.109375 3.863281 C 32.949219 4.691406 32.734375 5.503906 32.460938 6.308594 C 31.351562 6.664062 30.277344 7.113281 29.246094 7.652344 Z M 26.464844 3.910156 C 26.417969 4.171875 26.34375 4.429688 26.246094 4.679688 C 26.179688 4.589844 26.125 4.496094 26.078125 4.390625 C 26.140625 4.171875 26.269531 4.011719 26.464844 3.910156 Z M 36.253906 5.445312 C 36.355469 4.9375 36.445312 4.425781 36.515625 3.910156 C 36.785156 4.398438 37.015625 4.902344 37.210938 5.421875 C 36.894531 5.445312 36.574219 5.453125 36.253906 5.445312 Z M 27.855469 4.4375 C 27.882812 4.441406 27.898438 4.457031 27.902344 4.488281 C 27.71875 5.082031 27.519531 5.675781 27.304688 6.261719 C 27.070312 5.980469 26.851562 5.683594 26.65625 5.375 C 27.058594 5.0625 27.457031 4.75 27.855469 4.4375 Z M 29.871094 5.207031 C 29.90625 5.199219 29.9375 5.207031 29.964844 5.230469 C 29.664062 6.132812 29.261719 6.988281 28.765625 7.796875 C 28.34375 7.460938 27.960938 7.085938 27.613281 6.667969 C 28.355469 6.15625 29.105469 5.667969 29.871094 5.207031 Z M 25.742188 5.351562 C 25.824219 5.421875 25.886719 5.511719 25.9375 5.613281 C 25.878906 5.691406 25.835938 5.78125 25.816406 5.878906 C 25.6875 5.992188 25.574219 6.121094 25.480469 6.261719 C 25.53125 5.949219 25.621094 5.648438 25.742188 5.351562 Z M 36.445312 5.734375 C 36.746094 5.730469 37.042969 5.761719 37.332031 5.832031 C 37.503906 6.394531 37.625 6.96875 37.691406 7.558594 C 37.6875 7.644531 37.648438 7.710938 37.570312 7.75 C 36.960938 7.683594 36.351562 7.714844 35.75 7.84375 C 35.707031 7.828125 35.667969 7.8125 35.628906 7.796875 C 35.796875 7.15625 35.964844 6.519531 36.132812 5.878906 C 36.226562 5.804688 36.332031 5.757812 36.445312 5.734375 Z M 32.125 8.660156 C 32.320312 7.945312 32.546875 7.242188 32.796875 6.550781 C 33.796875 6.265625 34.804688 6.03125 35.820312 5.855469 C 35.636719 6.542969 35.445312 7.234375 35.246094 7.917969 C 34.1875 8.097656 33.148438 8.34375 32.125 8.660156 Z M 26.078125 5.972656 C 26.300781 6.308594 26.523438 6.644531 26.75 6.980469 C 26.320312 7.355469 25.898438 7.738281 25.480469 8.132812 C 25.246094 7.542969 25.355469 7.03125 25.816406 6.597656 C 25.929688 6.398438 26.019531 6.191406 26.078125 5.972656 Z M 32.222656 6.695312 C 32.269531 6.695312 32.316406 6.695312 32.367188 6.695312 C 32.1875 7.410156 31.960938 8.113281 31.695312 8.804688 C 31.386719 8.929688 31.074219 9.042969 30.757812 9.140625 C 30.160156 8.855469 29.609375 8.503906 29.101562 8.085938 C 30.109375 7.535156 31.148438 7.074219 32.222656 6.695312 Z M 26.847656 7.269531 C 26.546875 7.96875 26.21875 8.65625 25.863281 9.332031 C 25.699219 9.015625 25.601562 8.679688 25.574219 8.324219 C 25.992188 7.964844 26.417969 7.613281 26.847656 7.269531 Z M 26.273438 9.523438 C 26.554688 8.859375 26.867188 8.203125 27.207031 7.558594 C 27.433594 7.824219 27.664062 8.089844 27.902344 8.347656 C 27.324219 8.695312 26.78125 9.085938 26.273438 9.523438 Z M 36.492188 8.085938 C 36.84375 8.070312 37.199219 8.085938 37.546875 8.132812 C 37.351562 8.78125 37.191406 9.4375 37.066406 10.101562 C 36.410156 10.082031 35.757812 10.050781 35.101562 10.003906 C 35.257812 9.433594 35.402344 8.855469 35.53125 8.277344 C 35.855469 8.199219 36.175781 8.136719 36.492188 8.085938 Z M 34.859375 8.324219 C 34.957031 8.324219 35.054688 8.324219 35.148438 8.324219 C 35.035156 8.90625 34.90625 9.480469 34.765625 10.054688 C 33.890625 10.019531 33.027344 9.898438 32.171875 9.691406 C 32.023438 9.664062 31.894531 9.601562 31.789062 9.5 C 31.835938 9.363281 31.898438 9.234375 31.980469 9.117188 C 32.933594 8.808594 33.894531 8.542969 34.859375 8.324219 Z M 28.09375 8.566406 C 28.191406 8.589844 28.273438 8.648438 28.335938 8.734375 C 28.089844 9.289062 27.875 9.855469 27.6875 10.4375 C 27.335938 10.65625 26.976562 10.839844 26.609375 10.988281 C 26.40625 10.667969 26.230469 10.332031 26.078125 9.980469 C 26.71875 9.460938 27.390625 8.988281 28.09375 8.566406 Z M 28.574219 8.949219 C 28.871094 9.171875 29.175781 9.390625 29.488281 9.597656 C 29.027344 9.804688 28.574219 10.023438 28.117188 10.246094 C 28.21875 9.796875 28.371094 9.367188 28.574219 8.949219 Z M 31.40625 9.285156 C 31.480469 9.300781 31.511719 9.347656 31.5 9.429688 C 31.257812 9.429688 31.226562 9.382812 31.40625 9.285156 Z M 37.597656 9.285156 C 37.585938 9.546875 37.535156 9.804688 37.453125 10.054688 C 37.4375 10.027344 37.421875 10.003906 37.402344 9.980469 C 37.460938 9.742188 37.523438 9.507812 37.597656 9.285156 Z M 29.773438 9.859375 C 30.207031 10.03125 30.628906 10.222656 31.046875 10.4375 C 30.929688 10.835938 30.800781 11.234375 30.664062 11.636719 C 30.542969 11.863281 30.410156 12.082031 30.253906 12.285156 C 29.617188 12.492188 28.980469 12.667969 28.335938 12.8125 C 27.925781 12.546875 27.554688 12.226562 27.230469 11.851562 C 27.53125 11.503906 27.769531 11.121094 27.949219 10.699219 C 28.558594 10.40625 29.164062 10.125 29.773438 9.859375 Z M 30.78125 12.117188 C 30.988281 11.648438 31.171875 11.167969 31.332031 10.675781 C 31.359375 10.628906 31.398438 10.597656 31.453125 10.582031 C 32.382812 10.851562 33.328125 11.042969 34.285156 11.15625 C 33.113281 11.46875 31.945312 11.789062 30.78125 12.117188 Z M 27.375 10.964844 C 27.410156 10.957031 27.441406 10.964844 27.472656 10.988281 C 27.335938 11.203125 27.183594 11.402344 27.015625 11.589844 C 26.960938 11.488281 26.886719 11.398438 26.800781 11.324219 C 27.003906 11.214844 27.195312 11.09375 27.375 10.964844 Z M 33.324219 13.269531 C 33.738281 12.6875 34.136719 12.09375 34.523438 11.492188 C 35.28125 11.300781 36.050781 11.222656 36.828125 11.253906 C 36.738281 11.804688 36.511719 12.292969 36.15625 12.714844 C 35.210938 12.882812 34.265625 13.066406 33.324219 13.269531 Z M 31.167969 13.988281 C 30.734375 13.859375 30.300781 13.730469 29.871094 13.605469 C 30.074219 13.246094 30.292969 12.894531 30.519531 12.546875 C 31.675781 12.15625 32.851562 11.84375 34.046875 11.613281 C 33.625 12.226562 33.191406 12.835938 32.75 13.4375 C 32.214844 13.605469 31.6875 13.789062 31.167969 13.988281 Z M 29.964844 12.644531 C 30 12.636719 30.035156 12.644531 30.0625 12.667969 C 29.878906 12.957031 29.6875 13.234375 29.488281 13.507812 C 29.222656 13.367188 28.96875 13.214844 28.71875 13.050781 C 29.144531 12.929688 29.558594 12.792969 29.964844 12.644531 Z M 23.96875 12.933594 C 24.015625 12.953125 24.054688 12.984375 24.089844 13.027344 C 24.121094 13.203125 24.121094 13.378906 24.089844 13.554688 C 24.023438 13.351562 23.984375 13.144531 23.96875 12.933594 Z M 35.53125 13.125 C 35.613281 13.117188 35.695312 13.125 35.773438 13.148438 C 35.25 13.726562 34.609375 14.113281 33.851562 14.300781 C 33.675781 14.308594 33.5 14.316406 33.324219 14.324219 C 33.078125 14.332031 32.839844 14.300781 32.605469 14.226562 C 32.757812 14.003906 32.933594 13.804688 33.132812 13.628906 C 33.9375 13.449219 34.738281 13.28125 35.53125 13.125 Z M 32.414062 13.84375 C 32.34375 13.96875 32.265625 14.089844 32.171875 14.203125 C 32.03125 14.226562 31.886719 14.234375 31.742188 14.226562 C 31.671875 14.175781 31.59375 14.144531 31.5 14.132812 C 31.789062 14 32.09375 13.902344 32.414062 13.84375 Z M 23.96875 14.324219 C 23.789062 14.300781 23.75 14.222656 23.847656 14.082031 C 23.902344 14.15625 23.941406 14.238281 23.96875 14.324219 Z M 24.0625 14.371094 C 24.183594 14.355469 24.289062 14.308594 24.375 14.226562 C 24.414062 14.34375 24.46875 14.445312 24.542969 14.539062 C 24.65625 14.550781 24.761719 14.558594 24.855469 14.5625 C 24.894531 14.675781 24.914062 14.785156 24.902344 14.898438 C 24.640625 14.691406 24.359375 14.515625 24.0625 14.371094 Z M 25.214844 14.46875 C 25.285156 14.511719 25.351562 14.570312 25.40625 14.636719 C 25.265625 14.675781 25.199219 14.621094 25.214844 14.46875 Z M 25.503906 14.753906 C 25.671875 14.878906 25.832031 15.015625 25.984375 15.164062 C 25.867188 15.175781 25.777344 15.234375 25.71875 15.332031 C 25.605469 15.15625 25.535156 14.964844 25.503906 14.753906 Z M 26.175781 15.953125 C 26.074219 15.910156 25.980469 15.855469 25.886719 15.785156 C 25.945312 15.742188 25.984375 15.6875 26.007812 15.617188 C 26.089844 15.71875 26.144531 15.832031 26.175781 15.953125 Z M 26.511719 15.667969 C 26.53125 15.617188 26.5625 15.609375 26.609375 15.644531 C 27.46875 16.296875 28.425781 16.746094 29.488281 16.988281 C 28.542969 16.910156 27.628906 16.6875 26.75 16.316406 C 26.839844 16.246094 26.863281 16.15625 26.824219 16.050781 C 26.707031 15.929688 26.601562 15.800781 26.511719 15.667969 Z M 26.511719 15.667969 "/>
</g>
<mask id="mask1">
  <g filter="url(#alpha)">
<rect x="0" y="0" width="50" height="50" style="fill:rgb(0%,0%,0%);fill-opacity:0.87451;stroke:none;"/>
  </g>
</mask>
<clipPath id="clip2">
  <rect width="50" height="50"/>
</clipPath>
<g id="surface9" clip-path="url(#clip2)">
<path style=" stroke:none;fill-rule:evenodd;fill:rgb(90.980392%,89.411765%,86.666667%);fill-opacity:1;" d="M 29.871094 13.605469 C 30.300781 13.730469 30.734375 13.859375 31.167969 13.988281 C 31.035156 14.121094 30.875 14.160156 30.6875 14.109375 C 30.363281 14.003906 30.058594 13.859375 29.773438 13.675781 C 29.800781 13.640625 29.832031 13.617188 29.871094 13.605469 Z M 29.871094 13.605469 "/>
</g>
</defs>
<g id="surface1">
<use xlink:href="#surface6" mask="url(#mask0)"/>
<path style=" stroke:none;fill-rule:evenodd;fill:rgb(57.254902%,60.392157%,70.196078%);fill-opacity:1;" d="M 25.265625 10.148438 C 24.972656 10.683594 24.667969 11.210938 24.351562 11.730469 C 24.242188 11.582031 24.105469 11.453125 23.945312 11.347656 C 23.847656 11.1875 23.753906 11.027344 23.65625 10.867188 C 23.625 10.820312 23.625 10.773438 23.65625 10.722656 C 24.0625 10.1875 24.476562 9.660156 24.902344 9.140625 C 25.027344 9.476562 25.148438 9.8125 25.265625 10.148438 Z M 25.265625 10.148438 "/>
<path style=" stroke:none;fill-rule:evenodd;fill:rgb(93.72549%,92.156863%,89.411765%);fill-opacity:1;" d="M 25.265625 10.148438 C 25.3125 10.214844 25.34375 10.296875 25.359375 10.390625 C 25.242188 10.652344 25.324219 10.8125 25.601562 10.867188 C 26.140625 11.976562 26.921875 12.863281 27.949219 13.53125 C 28.824219 14.136719 29.765625 14.601562 30.78125 14.921875 C 31.472656 14.96875 32.160156 15.039062 32.84375 15.140625 C 32.121094 16.054688 31.179688 16.429688 30.015625 16.265625 C 28.601562 15.96875 27.367188 15.328125 26.320312 14.347656 C 25.617188 13.644531 24.984375 12.882812 24.425781 12.066406 C 24.367188 11.964844 24.34375 11.851562 24.351562 11.730469 C 24.667969 11.210938 24.972656 10.683594 25.265625 10.148438 Z M 25.265625 10.148438 "/>
<use xlink:href="#surface9" mask="url(#mask1)"/>
<path style=" stroke:none;fill-rule:evenodd;fill:rgb(71.764706%,70.588235%,68.235294%);fill-opacity:1;" d="M 31.5 14.132812 C 31.59375 14.144531 31.671875 14.175781 31.742188 14.226562 C 31.566406 14.234375 31.390625 14.226562 31.214844 14.203125 C 31.296875 14.140625 31.394531 14.117188 31.5 14.132812 Z M 31.5 14.132812 "/>
<path style=" stroke:none;fill-rule:evenodd;fill:rgb(57.254902%,60%,70.196078%);fill-opacity:1;" d="M 24.496094 15.667969 C 23.234375 17.585938 22.226562 19.632812 21.472656 21.808594 C 21.554688 21.460938 21.578125 21.109375 21.546875 20.753906 C 21.453125 20.683594 21.347656 20.636719 21.234375 20.609375 C 22.136719 19.023438 22.996094 17.40625 23.800781 15.761719 C 23.890625 15.613281 24.003906 15.484375 24.136719 15.378906 C 24.265625 15.46875 24.382812 15.5625 24.496094 15.667969 Z M 24.496094 15.667969 "/>
<path style=" stroke:none;fill-rule:evenodd;fill:rgb(94.509804%,92.941176%,90.196078%);fill-opacity:1;" d="M 24.496094 15.667969 C 25.199219 16.371094 26.015625 16.90625 26.945312 17.273438 C 27.3125 17.386719 27.679688 17.488281 28.046875 17.585938 C 28.023438 18.039062 27.96875 18.484375 27.878906 18.929688 C 26.585938 22.78125 25.289062 26.636719 23.992188 30.496094 C 23.324219 32.46875 22.382812 34.292969 21.160156 35.964844 C 20.703125 36.480469 20.199219 36.527344 19.648438 36.109375 C 19.914062 32.292969 20.289062 28.484375 20.777344 24.6875 C 20.933594 23.964844 21.101562 23.242188 21.28125 22.527344 C 21.382812 22.300781 21.445312 22.058594 21.472656 21.808594 C 22.226562 19.632812 23.234375 17.585938 24.496094 15.667969 Z M 24.496094 15.667969 "/>
<path style=" stroke:none;fill-rule:evenodd;fill:rgb(54.901961%,57.647059%,67.45098%);fill-opacity:1;" d="M 21.042969 20.992188 C 21.09375 21.414062 21.035156 21.832031 20.875 22.242188 C 20.820312 22.078125 20.746094 21.925781 20.65625 21.785156 C 20.804688 21.53125 20.933594 21.265625 21.042969 20.992188 Z M 21.042969 20.992188 "/>
<path style=" stroke:none;fill-rule:evenodd;fill:rgb(53.333333%,56.078431%,65.490196%);fill-opacity:1;" d="M 20.175781 22.625 C 20.234375 23.113281 20.242188 23.609375 20.203125 24.113281 C 20.164062 23.808594 20.046875 23.542969 19.839844 23.320312 C 19.949219 23.082031 20.058594 22.851562 20.175781 22.625 Z M 20.175781 22.625 "/>
<path style=" stroke:none;fill-rule:evenodd;fill:rgb(57.254902%,60.392157%,70.196078%);fill-opacity:1;" d="M 21.28125 22.527344 C 21.101562 23.242188 20.933594 23.964844 20.777344 24.6875 C 20.289062 28.484375 19.914062 32.292969 19.648438 36.109375 C 18.714844 35.488281 17.707031 35.039062 16.625 34.765625 C 16.695312 34.625 16.753906 34.484375 16.792969 34.332031 C 16.980469 34.539062 17.125 34.523438 17.226562 34.285156 C 17.214844 33.820312 17.179688 33.355469 17.128906 32.894531 C 17.238281 33.222656 17.367188 33.539062 17.515625 33.851562 C 17.597656 33.988281 17.710938 34.019531 17.851562 33.949219 C 17.882812 33.535156 17.882812 33.117188 17.851562 32.703125 C 17.742188 32.046875 17.660156 31.390625 17.609375 30.734375 C 17.777344 31.3125 17.953125 31.890625 18.136719 32.460938 C 18.25 32.652344 18.363281 32.652344 18.472656 32.460938 C 18.5 31.339844 18.46875 30.21875 18.378906 29.101562 C 18.515625 29.820312 18.628906 30.539062 18.714844 31.261719 C 18.75 31.539062 18.894531 31.617188 19.144531 31.5 C 19.199219 30.914062 19.222656 30.320312 19.21875 29.726562 C 19.195312 28.734375 19.1875 27.742188 19.195312 26.75 C 19.230469 27.1875 19.292969 27.621094 19.386719 28.046875 C 19.480469 28.109375 19.578125 28.109375 19.671875 28.046875 C 19.726562 27.925781 19.757812 27.796875 19.769531 27.664062 C 19.792969 27.023438 19.800781 26.382812 19.792969 25.742188 C 19.824219 25.582031 19.859375 25.425781 19.890625 25.265625 C 19.890625 25.457031 19.945312 25.632812 20.058594 25.792969 C 20.167969 25.917969 20.28125 25.917969 20.394531 25.792969 C 20.515625 25.585938 20.578125 25.359375 20.585938 25.121094 C 20.625 24.382812 20.664062 23.648438 20.707031 22.914062 C 20.8125 22.960938 20.925781 22.972656 21.042969 22.9375 C 21.140625 22.808594 21.222656 22.671875 21.28125 22.527344 Z M 21.28125 22.527344 "/>
<path style=" stroke:none;fill-rule:evenodd;fill:rgb(55.294118%,58.039216%,67.843137%);fill-opacity:1;" d="M 18.785156 28.046875 C 18.800781 28.441406 18.785156 28.824219 18.738281 29.199219 C 18.707031 28.722656 18.621094 28.257812 18.472656 27.808594 C 18.40625 27.714844 18.316406 27.648438 18.210938 27.613281 C 18.117188 27.621094 18.0625 27.667969 18.042969 27.757812 C 18.011719 28.496094 18.011719 29.230469 18.042969 29.964844 C 18.09375 30.445312 18.128906 30.925781 18.136719 31.40625 C 18.007812 30.863281 17.808594 30.351562 17.539062 29.871094 C 17.464844 29.824219 17.382812 29.808594 17.296875 29.824219 C 17.378906 29.417969 17.484375 29.015625 17.609375 28.621094 C 17.929688 27.726562 18.25 26.832031 18.570312 25.9375 C 18.804688 25.273438 19.09375 24.632812 19.433594 24.015625 C 19.425781 24.558594 19.410156 25.101562 19.386719 25.648438 C 19.3125 25.523438 19.207031 25.484375 19.074219 25.527344 C 18.914062 25.675781 18.828125 25.859375 18.808594 26.078125 C 18.785156 26.734375 18.777344 27.390625 18.785156 28.046875 Z M 18.785156 28.046875 "/>
<path style=" stroke:none;fill-rule:evenodd;fill:rgb(29.411765%,30.980392%,36.470588%);fill-opacity:1;" d="M 19.890625 25.265625 C 19.859375 25.425781 19.824219 25.582031 19.792969 25.742188 C 19.785156 25.421875 19.792969 25.105469 19.816406 24.785156 C 19.886719 24.933594 19.910156 25.09375 19.890625 25.265625 Z M 19.890625 25.265625 "/>
<path style=" stroke:none;fill-rule:evenodd;fill:rgb(37.647059%,39.607843%,46.27451%);fill-opacity:1;" d="M 18.785156 28.046875 C 18.839844 28.535156 18.847656 29.03125 18.808594 29.535156 C 18.761719 29.425781 18.738281 29.316406 18.738281 29.199219 C 18.785156 28.824219 18.800781 28.441406 18.785156 28.046875 Z M 18.785156 28.046875 "/>
<path style=" stroke:none;fill-rule:evenodd;fill:rgb(52.54902%,55.686275%,64.705882%);fill-opacity:1;" d="M 17.203125 30.0625 C 17.292969 31.085938 17.414062 32.109375 17.5625 33.132812 C 17.355469 32.589844 17.15625 32.042969 16.960938 31.5 C 17.042969 31.023438 17.121094 30.542969 17.203125 30.0625 Z M 17.203125 30.0625 "/>
<path style=" stroke:none;fill-rule:evenodd;fill:rgb(47.45098%,50.196078%,58.431373%);fill-opacity:1;" d="M 16.722656 32.75 C 16.757812 32.769531 16.78125 32.800781 16.792969 32.84375 C 16.84375 33.066406 16.859375 33.292969 16.84375 33.515625 C 16.671875 33.28125 16.632812 33.023438 16.722656 32.75 Z M 16.722656 32.75 "/>
<path style=" stroke:none;fill-rule:evenodd;fill:rgb(50.196078%,52.941176%,61.568627%);fill-opacity:1;" d="M 16.433594 33.996094 C 16.488281 34.164062 16.496094 34.339844 16.457031 34.523438 C 16.386719 34.585938 16.347656 34.558594 16.339844 34.453125 C 16.375 34.300781 16.40625 34.148438 16.433594 33.996094 Z M 16.433594 33.996094 "/>
</g>
</svg>
