<?xml version="1.0" encoding="UTF-8"?>
<svg xmlns="http://www.w3.org/2000/svg" xmlns:xlink="http://www.w3.org/1999/xlink" width="50pt" height="50pt" viewBox="0 0 50 50" version="1.1">
<defs>
<filter id="alpha" filterUnits="objectBoundingBox" x="0%" y="0%" width="100%" height="100%">
  <feColorMatrix type="matrix" in="SourceGraphic" values="0 0 0 0 1 0 0 0 0 1 0 0 0 0 1 0 0 0 1 0"/>
</filter>
<mask id="mask0">
  <g filter="url(#alpha)">
<rect x="0" y="0" width="50" height="50" style="fill:rgb(0%,0%,0%);fill-opacity:0.988235;stroke:none;"/>
  </g>
</mask>
<clipPath id="clip1">
  <rect width="50" height="50"/>
</clipPath>
<g id="surface6" clip-path="url(#clip1)">
<path style=" stroke:none;fill-rule:evenodd;fill:rgb(0.392157%,0.392157%,0%);fill-opacity:1;" d="M 15.570312 26.847656 C 15.589844 26.226562 15.535156 25.601562 15.402344 24.976562 C 15.1875 23.960938 14.945312 22.957031 14.683594 21.953125 C 14.464844 20.914062 14.253906 19.875 14.058594 18.832031 C 13.832031 17.183594 13.589844 15.539062 13.339844 13.890625 C 13.234375 13.070312 13.179688 12.246094 13.171875 11.421875 C 13.164062 10.929688 13.195312 10.441406 13.269531 9.957031 C 13.351562 9.363281 13.535156 8.804688 13.820312 8.277344 C 14.121094 7.800781 14.441406 7.335938 14.777344 6.886719 C 15.097656 6.214844 15.464844 5.574219 15.882812 4.964844 C 16.386719 4.445312 16.90625 3.941406 17.441406 3.453125 C 18.6875 2.464844 20.109375 1.902344 21.714844 1.777344 C 22.8125 1.675781 23.882812 1.800781 24.929688 2.160156 C 26.414062 2.648438 27.902344 3.125 29.390625 3.597656 C 30.820312 4.132812 31.949219 5.035156 32.773438 6.308594 C 33.71875 8.011719 34.3125 9.835938 34.550781 11.78125 C 34.921875 15.046875 34.472656 18.199219 33.207031 21.234375 C 31.851562 24.726562 30.296875 28.132812 28.550781 31.453125 C 27.53125 33.894531 26.601562 36.375 25.769531 38.890625 C 25.261719 40.710938 24.71875 42.515625 24.136719 44.3125 C 23.566406 45.519531 23.101562 46.769531 22.746094 48.054688 C 22.515625 48.832031 22.011719 49.113281 21.234375 48.894531 C 21.066406 48.730469 20.875 48.601562 20.65625 48.511719 C 20.457031 48.378906 20.339844 48.195312 20.296875 47.960938 C 20.289062 47.441406 20.222656 46.929688 20.105469 46.425781 C 18.714844 41.578125 17.433594 36.699219 16.265625 31.789062 C 15.882812 30.160156 15.652344 28.511719 15.570312 26.847656 Z M 23.105469 41.386719 C 22.765625 42.710938 22.3125 43.992188 21.738281 45.226562 C 21.6875 45.082031 21.648438 44.9375 21.617188 44.792969 C 22.101562 43.648438 22.597656 42.515625 23.105469 41.386719 Z M 23.105469 41.386719 "/>
</g>
<mask id="mask1">
  <g filter="url(#alpha)">
<rect x="0" y="0" width="50" height="50" style="fill:rgb(0%,0%,0%);fill-opacity:0.878431;stroke:none;"/>
  </g>
</mask>
<clipPath id="clip2">
  <rect width="50" height="50"/>
</clipPath>
<g id="surface9" clip-path="url(#clip2)">
<path style=" stroke:none;fill-rule:evenodd;fill:rgb(89.019608%,87.45098%,85.098039%);fill-opacity:1;" d="M 13.269531 9.957031 C 13.195312 10.441406 13.164062 10.929688 13.171875 11.421875 C 13.179688 12.246094 13.234375 13.070312 13.339844 13.890625 C 13.589844 15.539062 13.832031 17.183594 14.058594 18.832031 C 14.253906 19.875 14.464844 20.914062 14.683594 21.953125 C 14.945312 22.957031 15.1875 23.960938 15.402344 24.976562 C 15.535156 25.601562 15.589844 26.226562 15.570312 26.847656 C 14.984375 24.25 14.433594 21.640625 13.914062 19.027344 C 13.414062 16.585938 13.085938 14.121094 12.933594 11.636719 C 12.933594 11.113281 13.003906 10.601562 13.148438 10.101562 C 13.1875 10.050781 13.230469 10 13.269531 9.957031 Z M 13.269531 9.957031 "/>
</g>
</defs>
<g id="surface1">
<use xlink:href="#surface6" mask="url(#mask0)"/>
<path style=" stroke:none;fill-rule:evenodd;fill:rgb(94.509804%,92.941176%,90.196078%);fill-opacity:1;" d="M 23.199219 41.148438 C 23.15625 41.179688 23.140625 41.230469 23.152344 41.289062 C 23.113281 41.308594 23.097656 41.339844 23.105469 41.386719 C 22.597656 42.515625 22.101562 43.648438 21.617188 44.792969 C 21.007812 42.964844 20.472656 41.109375 20.007812 39.226562 C 19.28125 36.367188 18.578125 33.503906 17.898438 30.636719 C 17.644531 28.882812 17.4375 27.125 17.273438 25.359375 C 16.8125 23.1875 16.347656 21.011719 15.882812 18.832031 C 15.550781 16.710938 15.246094 14.582031 14.972656 12.453125 C 14.765625 11.191406 14.972656 10.007812 15.59375 8.902344 C 16.140625 8.101562 16.636719 7.269531 17.082031 6.40625 C 17.78125 5.640625 18.542969 4.945312 19.363281 4.320312 C 20.644531 3.644531 22.003906 3.421875 23.441406 3.648438 C 25.199219 4.09375 26.925781 4.636719 28.621094 5.277344 C 30.148438 5.859375 31.210938 6.90625 31.8125 8.421875 C 33.148438 11.875 33.242188 15.359375 32.101562 18.882812 C 31.210938 21.601562 30.125 24.242188 28.839844 26.800781 C 27.8125 28.648438 26.898438 30.550781 26.105469 32.507812 C 24.976562 35.339844 24.007812 38.21875 23.199219 41.148438 Z M 23.199219 41.148438 "/>
<path style=" stroke:none;fill-rule:evenodd;fill:rgb(0.392157%,0.392157%,0.392157%);fill-opacity:1;" d="M 23.824219 9.046875 C 25.488281 8.960938 26.886719 9.523438 28.023438 10.722656 C 28.890625 11.796875 29.082031 12.980469 28.597656 14.277344 C 28.234375 15.074219 27.816406 15.839844 27.351562 16.578125 C 26.796875 17.148438 26.132812 17.539062 25.359375 17.753906 C 24.230469 18.117188 23.140625 18.023438 22.097656 17.464844 C 20.679688 16.65625 19.9375 15.433594 19.867188 13.796875 C 19.792969 13.09375 19.855469 12.40625 20.058594 11.730469 C 20.261719 11.207031 20.605469 10.800781 21.089844 10.507812 C 21.542969 10.175781 22.007812 9.855469 22.480469 9.550781 C 22.914062 9.316406 23.359375 9.148438 23.824219 9.046875 Z M 23.824219 9.046875 "/>
<use xlink:href="#surface9" mask="url(#mask1)"/>
<path style=" stroke:none;fill-rule:evenodd;fill:rgb(94.117647%,92.54902%,89.803922%);fill-opacity:1;" d="M 23.871094 10.867188 C 24.980469 10.769531 25.914062 11.121094 26.679688 11.925781 C 27.0625 12.472656 27.140625 13.0625 26.917969 13.699219 C 26.601562 14.25 26.300781 14.8125 26.007812 15.378906 C 25.566406 15.75 25.0625 15.996094 24.496094 16.121094 C 24.070312 16.238281 23.652344 16.207031 23.25 16.027344 C 22.773438 15.785156 22.367188 15.457031 22.023438 15.042969 C 22.082031 14.761719 22.101562 14.472656 22.074219 14.179688 C 21.996094 14.015625 21.890625 13.871094 21.761719 13.746094 C 21.707031 13.300781 21.695312 12.851562 21.738281 12.402344 C 21.769531 12.339844 21.800781 12.277344 21.832031 12.210938 C 22.472656 11.695312 23.152344 11.25 23.871094 10.867188 Z M 23.871094 10.867188 "/>
</g>
</svg>
