<?xml version="1.0" encoding="UTF-8"?>
<svg xmlns="http://www.w3.org/2000/svg" xmlns:xlink="http://www.w3.org/1999/xlink" width="50pt" height="50pt" viewBox="0 0 50 50" version="1.1">
<defs>
<filter id="alpha" filterUnits="objectBoundingBox" x="0%" y="0%" width="100%" height="100%">
  <feColorMatrix type="matrix" in="SourceGraphic" values="0 0 0 0 1 0 0 0 0 1 0 0 0 0 1 0 0 0 1 0"/>
</filter>
<mask id="mask0">
  <g filter="url(#alpha)">
<rect x="0" y="0" width="50" height="50" style="fill:rgb(0%,0%,0%);fill-opacity:0.992157;stroke:none;"/>
  </g>
</mask>
<clipPath id="clip1">
  <rect width="50" height="50"/>
</clipPath>
<g id="surface6" clip-path="url(#clip1)">
<path style=" stroke:none;fill-rule:evenodd;fill:rgb(66.666667%,23.529412%,18.431373%);fill-opacity:1;" d="M 36.019531 3.371094 C 36.117188 3.484375 36.226562 3.589844 36.34375 3.683594 C 36.425781 3.828125 36.417969 3.960938 36.316406 4.09375 C 36.1875 4.164062 36.0625 4.246094 35.945312 4.332031 C 35.769531 4.410156 35.601562 4.503906 35.441406 4.609375 C 35.558594 4.714844 35.675781 4.820312 35.789062 4.933594 C 35.871094 5.074219 35.863281 5.210938 35.765625 5.339844 C 35.597656 5.515625 35.441406 5.699219 35.296875 5.894531 C 35.519531 6.070312 35.742188 6.253906 35.957031 6.445312 C 36.027344 6.640625 35.964844 6.78125 35.777344 6.863281 C 32.019531 7.039062 28.257812 7.179688 24.496094 7.285156 C 22.160156 7.367188 19.824219 7.425781 17.488281 7.464844 C 16.285156 7.488281 15.085938 7.480469 13.886719 7.441406 C 13.761719 7.441406 13.640625 7.417969 13.527344 7.371094 C 13.375 7.246094 13.34375 7.097656 13.441406 6.925781 C 13.535156 6.851562 13.625 6.777344 13.71875 6.710938 C 13.945312 6.558594 14.167969 6.402344 14.390625 6.242188 C 14.152344 6.160156 13.917969 6.0625 13.695312 5.953125 C 13.582031 5.855469 13.546875 5.730469 13.585938 5.582031 C 13.648438 5.457031 13.746094 5.398438 13.886719 5.402344 C 14.476562 5.386719 15.050781 5.292969 15.613281 5.113281 C 15.394531 4.980469 15.167969 4.859375 14.941406 4.742188 C 14.691406 4.59375 14.4375 4.457031 14.175781 4.320312 C 14.03125 4.210938 13.992188 4.070312 14.066406 3.902344 C 14.109375 3.847656 14.164062 3.804688 14.222656 3.769531 C 14.449219 3.75 14.671875 3.710938 14.894531 3.660156 C 15.164062 3.589844 15.382812 3.449219 15.554688 3.230469 C 15.589844 3.160156 15.613281 3.085938 15.625 3.011719 C 15.597656 2.308594 15.792969 1.683594 16.214844 1.128906 C 16.261719 1.085938 16.320312 1.0625 16.382812 1.054688 C 22.09375 0.933594 27.808594 0.8125 33.519531 0.695312 C 34.570312 0.679688 35.617188 0.679688 36.664062 0.695312 C 36.886719 0.804688 36.9375 0.96875 36.820312 1.1875 C 36.332031 1.699219 35.855469 2.21875 35.394531 2.75 C 35.59375 2.964844 35.804688 3.171875 36.019531 3.371094 Z M 36.019531 3.371094 "/>
</g>
<mask id="mask1">
  <g filter="url(#alpha)">
<rect x="0" y="0" width="50" height="50" style="fill:rgb(0%,0%,0%);fill-opacity:0.992157;stroke:none;"/>
  </g>
</mask>
<clipPath id="clip2">
  <rect width="50" height="50"/>
</clipPath>
<g id="surface9" clip-path="url(#clip2)">
<path style=" stroke:none;fill-rule:evenodd;fill:rgb(0%,0%,0%);fill-opacity:1;" d="M 7.644531 36.832031 C 7.6875 32.332031 7.667969 27.828125 7.585938 23.320312 C 7.558594 21.769531 7.511719 20.226562 7.453125 18.6875 C 7.316406 14.582031 7.136719 10.476562 6.914062 6.371094 C 6.894531 5.710938 6.871094 5.054688 6.851562 4.394531 C 6.816406 4.128906 6.921875 3.953125 7.164062 3.863281 C 7.285156 3.851562 7.398438 3.863281 7.511719 3.902344 C 8.050781 3.8125 8.589844 3.753906 9.132812 3.71875 C 11.058594 3.652344 12.976562 3.632812 14.894531 3.660156 C 14.671875 3.710938 14.449219 3.75 14.222656 3.769531 C 14.164062 3.804688 14.109375 3.847656 14.066406 3.902344 C 13.992188 4.070312 14.03125 4.210938 14.175781 4.320312 C 14.4375 4.457031 14.691406 4.59375 14.941406 4.742188 C 13.558594 4.671875 12.175781 4.652344 10.789062 4.679688 C 9.996094 4.722656 9.207031 4.75 8.414062 4.765625 C 8.1875 4.765625 7.964844 4.765625 7.742188 4.765625 C 7.734375 4.796875 7.742188 4.820312 7.765625 4.835938 C 7.96875 7 8.109375 9.167969 8.183594 11.34375 C 8.394531 16.070312 8.539062 20.796875 8.617188 25.527344 C 8.675781 31.90625 8.660156 38.28125 8.570312 44.660156 C 8.550781 45.78125 8.496094 46.902344 8.414062 48.019531 C 8.421875 48.082031 8.429688 48.148438 8.4375 48.210938 C 13.589844 48.023438 18.742188 47.859375 23.894531 47.71875 C 28.609375 47.585938 33.320312 47.578125 38.035156 47.695312 C 40.488281 47.769531 42.9375 47.917969 45.378906 48.140625 C 45.320312 46.925781 45.285156 45.707031 45.269531 44.492188 C 45.175781 35.992188 45.050781 27.496094 44.886719 19 C 44.777344 14.082031 44.597656 9.171875 44.347656 4.261719 C 42.730469 4.277344 41.113281 4.304688 39.5 4.34375 C 38.3125 4.363281 37.128906 4.359375 35.945312 4.332031 C 36.0625 4.246094 36.1875 4.164062 36.316406 4.09375 C 36.417969 3.960938 36.425781 3.828125 36.34375 3.683594 C 36.226562 3.589844 36.117188 3.484375 36.019531 3.371094 C 39.007812 3.265625 42 3.226562 44.996094 3.265625 C 45.175781 3.335938 45.28125 3.46875 45.320312 3.660156 C 45.59375 9.074219 45.785156 14.488281 45.894531 19.910156 C 46.039062 28.304688 46.183594 36.699219 46.328125 45.089844 C 46.347656 46.171875 46.34375 47.25 46.316406 48.332031 C 46.363281 48.457031 46.394531 48.589844 46.410156 48.726562 C 46.382812 49.0625 46.199219 49.226562 45.859375 49.21875 C 43.730469 48.992188 41.59375 48.835938 39.449219 48.75 C 37.019531 48.648438 34.585938 48.605469 32.152344 48.621094 C 29.839844 48.613281 27.527344 48.640625 25.214844 48.703125 C 19.769531 48.855469 14.328125 49.011719 8.882812 49.171875 C 8.488281 49.214844 8.125 49.128906 7.800781 48.90625 C 7.710938 48.957031 7.617188 48.992188 7.523438 49.015625 C 7.574219 48.941406 7.621094 48.871094 7.667969 48.800781 C 7.609375 48.726562 7.550781 48.648438 7.488281 48.570312 C 7.46875 48.515625 7.453125 48.460938 7.441406 48.402344 C 7.4375 48.105469 7.433594 47.804688 7.429688 47.503906 C 7.550781 43.949219 7.625 40.390625 7.644531 36.832031 Z M 7.644531 36.832031 "/>
</g>
<mask id="mask2">
  <g filter="url(#alpha)">
<rect x="0" y="0" width="50" height="50" style="fill:rgb(0%,0%,0%);fill-opacity:0.870588;stroke:none;"/>
  </g>
</mask>
<clipPath id="clip3">
  <rect width="50" height="50"/>
</clipPath>
<g id="surface12" clip-path="url(#clip3)">
<path style=" stroke:none;fill-rule:evenodd;fill:rgb(94.117647%,94.117647%,94.117647%);fill-opacity:1;" d="M 7.453125 18.6875 C 7.511719 20.226562 7.558594 21.769531 7.585938 23.320312 C 7.667969 27.828125 7.6875 32.332031 7.644531 36.832031 C 7.574219 30.785156 7.511719 24.734375 7.453125 18.6875 Z M 7.453125 18.6875 "/>
</g>
</defs>
<g id="surface1">
<use xlink:href="#surface6" mask="url(#mask0)"/>
<path style=" stroke:none;fill-rule:evenodd;fill:rgb(94.509804%,92.941176%,90.196078%);fill-opacity:1;" d="M 34.960938 1.285156 C 35.265625 1.28125 35.570312 1.285156 35.875 1.296875 C 35.558594 1.652344 35.234375 2 34.902344 2.339844 C 34.804688 2.445312 34.714844 2.558594 34.636719 2.675781 C 34.617188 2.769531 34.632812 2.859375 34.6875 2.941406 C 34.988281 3.226562 35.289062 3.511719 35.585938 3.804688 C 35.3125 3.988281 35.035156 4.160156 34.746094 4.320312 C 34.613281 4.445312 34.59375 4.585938 34.6875 4.742188 C 34.835938 4.871094 34.984375 5.007812 35.128906 5.148438 C 34.9375 5.378906 34.75 5.609375 34.566406 5.84375 C 34.546875 5.945312 34.5625 6.042969 34.613281 6.132812 C 34.691406 6.191406 34.765625 6.253906 34.839844 6.3125 C 28.921875 6.5625 23 6.75 17.078125 6.863281 C 16.238281 6.882812 15.398438 6.882812 14.558594 6.863281 C 14.816406 6.695312 15.070312 6.515625 15.3125 6.324219 C 15.421875 6.132812 15.386719 5.976562 15.207031 5.855469 C 15.566406 5.78125 15.902344 5.644531 16.214844 5.449219 C 16.386719 5.328125 16.460938 5.164062 16.441406 4.957031 C 16.417969 4.914062 16.390625 4.875 16.359375 4.835938 C 15.984375 4.625 15.605469 4.414062 15.230469 4.199219 C 15.976562 3.933594 16.316406 3.402344 16.25 2.605469 C 16.289062 2.261719 16.394531 1.945312 16.574219 1.65625 C 22.707031 1.53125 28.835938 1.40625 34.960938 1.285156 Z M 34.960938 1.285156 "/>
<use xlink:href="#surface9" mask="url(#mask1)"/>
<path style=" stroke:none;fill-rule:evenodd;fill:rgb(99.607843%,99.607843%,99.607843%);fill-opacity:1;" d="M 7.765625 4.835938 C 7.976562 4.796875 8.191406 4.773438 8.414062 4.765625 C 9.207031 4.75 9.996094 4.722656 10.789062 4.679688 C 12.175781 4.652344 13.558594 4.671875 14.941406 4.742188 C 15.167969 4.859375 15.394531 4.980469 15.613281 5.113281 C 15.050781 5.292969 14.476562 5.386719 13.886719 5.402344 C 13.746094 5.398438 13.648438 5.457031 13.585938 5.582031 C 13.546875 5.730469 13.582031 5.855469 13.695312 5.953125 C 13.917969 6.0625 14.152344 6.160156 14.390625 6.242188 C 14.167969 6.402344 13.945312 6.558594 13.71875 6.710938 C 12.101562 6.632812 10.484375 6.554688 8.871094 6.46875 C 9.839844 18.820312 10.796875 31.175781 11.738281 43.53125 C 11.839844 43.582031 11.949219 43.621094 12.0625 43.640625 C 13.371094 43.8125 14.683594 43.949219 16 44.046875 C 20.019531 44.328125 24.046875 44.578125 28.074219 44.792969 C 33.328125 45.0625 38.578125 45.320312 43.832031 45.570312 C 43.808594 44.898438 43.765625 44.226562 43.710938 43.554688 C 42.796875 31.769531 41.898438 19.984375 41.011719 8.199219 C 35.5 7.914062 29.996094 7.609375 24.496094 7.285156 C 28.257812 7.179688 32.019531 7.039062 35.777344 6.863281 C 35.964844 6.78125 36.027344 6.640625 35.957031 6.445312 C 35.742188 6.253906 35.519531 6.070312 35.296875 5.894531 C 35.441406 5.699219 35.597656 5.515625 35.765625 5.339844 C 35.863281 5.210938 35.871094 5.074219 35.789062 4.933594 C 35.675781 4.820312 35.558594 4.714844 35.441406 4.609375 C 35.601562 4.503906 35.769531 4.410156 35.945312 4.332031 C 37.128906 4.359375 38.3125 4.363281 39.5 4.34375 C 41.113281 4.304688 42.730469 4.277344 44.347656 4.261719 C 44.597656 9.171875 44.777344 14.082031 44.886719 19 C 45.050781 27.496094 45.175781 35.992188 45.269531 44.492188 C 45.285156 45.707031 45.320312 46.925781 45.378906 48.140625 C 42.9375 47.917969 40.488281 47.769531 38.035156 47.695312 C 33.320312 47.578125 28.609375 47.585938 23.894531 47.71875 C 18.742188 47.859375 13.589844 48.023438 8.4375 48.210938 C 8.429688 48.148438 8.421875 48.082031 8.414062 48.019531 C 8.496094 46.902344 8.550781 45.78125 8.570312 44.660156 C 8.660156 38.28125 8.675781 31.90625 8.617188 25.527344 C 8.539062 20.796875 8.394531 16.070312 8.183594 11.34375 C 8.109375 9.167969 7.96875 7 7.765625 4.835938 Z M 7.765625 4.835938 "/>
<path style=" stroke:none;fill-rule:evenodd;fill:rgb(32.54902%,32.54902%,32.54902%);fill-opacity:1;" d="M 8.414062 4.765625 C 8.191406 4.773438 7.976562 4.796875 7.765625 4.835938 C 7.742188 4.820312 7.734375 4.796875 7.742188 4.765625 C 7.964844 4.765625 8.1875 4.765625 8.414062 4.765625 Z M 8.414062 4.765625 "/>
<path style=" stroke:none;fill-rule:evenodd;fill:rgb(0.784314%,0.784314%,0.784314%);fill-opacity:1;" d="M 39.761719 4.859375 C 40.898438 4.894531 42.035156 4.929688 43.171875 4.96875 C 43.710938 5.058594 43.945312 5.378906 43.867188 5.929688 C 43.851562 6.863281 43.832031 7.792969 43.808594 8.726562 C 44.0625 8.917969 44.074219 9.121094 43.84375 9.335938 C 43.617188 9.4375 43.445312 9.378906 43.328125 9.15625 C 43.246094 8.964844 43.207031 8.765625 43.21875 8.558594 C 43.246094 7.613281 43.25 6.667969 43.230469 5.726562 C 43.1875 5.675781 43.136719 5.636719 43.074219 5.617188 C 42.960938 5.59375 42.851562 5.570312 42.738281 5.542969 C 42.332031 5.539062 41.921875 5.523438 41.515625 5.496094 C 40.9375 5.464844 40.359375 5.40625 39.785156 5.328125 C 39.652344 5.25 39.609375 5.132812 39.65625 4.980469 C 39.6875 4.9375 39.722656 4.894531 39.761719 4.859375 Z M 39.761719 4.859375 "/>
<path style=" stroke:none;fill-rule:evenodd;fill:rgb(94.901961%,93.333333%,90.588235%);fill-opacity:1;" d="M 13.71875 6.710938 C 13.625 6.777344 13.535156 6.851562 13.441406 6.925781 C 13.34375 7.097656 13.375 7.246094 13.527344 7.371094 C 13.640625 7.417969 13.761719 7.441406 13.886719 7.441406 C 15.085938 7.480469 16.285156 7.488281 17.488281 7.464844 C 19.824219 7.425781 22.160156 7.367188 24.496094 7.285156 C 29.996094 7.609375 35.5 7.914062 41.011719 8.199219 C 41.898438 19.984375 42.796875 31.769531 43.710938 43.554688 C 43.765625 44.226562 43.808594 44.898438 43.832031 45.570312 C 38.578125 45.320312 33.328125 45.0625 28.074219 44.792969 C 24.046875 44.578125 20.019531 44.328125 16 44.046875 C 14.683594 43.949219 13.371094 43.8125 12.0625 43.640625 C 11.949219 43.621094 11.839844 43.582031 11.738281 43.53125 C 10.796875 31.175781 9.839844 18.820312 8.871094 6.46875 C 10.484375 6.554688 12.101562 6.632812 13.71875 6.710938 Z M 13.71875 6.710938 "/>
<use xlink:href="#surface12" mask="url(#mask2)"/>
<path style=" stroke:none;fill-rule:evenodd;fill:rgb(1.568627%,1.568627%,1.568627%);fill-opacity:1;" d="M 9.230469 41.660156 C 9.355469 41.640625 9.449219 41.6875 9.503906 41.800781 C 9.675781 43.605469 9.777344 45.414062 9.816406 47.226562 C 9.820312 47.277344 9.835938 47.324219 9.855469 47.371094 C 10.867188 47.113281 11.902344 46.988281 12.949219 47 C 13.140625 47.0625 13.214844 47.195312 13.179688 47.394531 C 13.140625 47.496094 13.074219 47.5625 12.972656 47.601562 C 11.796875 47.589844 10.644531 47.753906 9.515625 48.089844 C 9.371094 48.074219 9.277344 47.996094 9.242188 47.851562 C 9.128906 45.828125 9.097656 43.804688 9.144531 41.777344 C 9.167969 41.734375 9.199219 41.695312 9.230469 41.660156 Z M 9.230469 41.660156 "/>
</g>
</svg>
