<?xml version="1.0" encoding="UTF-8"?>
<svg xmlns="http://www.w3.org/2000/svg" xmlns:xlink="http://www.w3.org/1999/xlink" width="50pt" height="50pt" viewBox="0 0 50 50" version="1.1">
<defs>
<filter id="alpha" filterUnits="objectBoundingBox" x="0%" y="0%" width="100%" height="100%">
  <feColorMatrix type="matrix" in="SourceGraphic" values="0 0 0 0 1 0 0 0 0 1 0 0 0 0 1 0 0 0 1 0"/>
</filter>
<mask id="mask0">
  <g filter="url(#alpha)">
<rect x="0" y="0" width="50" height="50" style="fill:rgb(0%,0%,0%);fill-opacity:0.894118;stroke:none;"/>
  </g>
</mask>
<clipPath id="clip1">
  <rect width="50" height="50"/>
</clipPath>
<g id="surface6" clip-path="url(#clip1)">
<path style=" stroke:none;fill-rule:evenodd;fill:rgb(94.901961%,94.901961%,94.901961%);fill-opacity:1;" d="M 23.871094 2.078125 C 23.386719 1.96875 22.898438 1.953125 22.40625 2.027344 C 22.777344 1.792969 23.167969 1.75 23.582031 1.894531 C 23.691406 1.945312 23.785156 2.003906 23.871094 2.078125 Z M 23.871094 2.078125 "/>
</g>
<mask id="mask1">
  <g filter="url(#alpha)">
<rect x="0" y="0" width="50" height="50" style="fill:rgb(0%,0%,0%);fill-opacity:0.980392;stroke:none;"/>
  </g>
</mask>
<clipPath id="clip2">
  <rect width="50" height="50"/>
</clipPath>
<g id="surface9" clip-path="url(#clip2)">
<path style=" stroke:none;fill-rule:evenodd;fill:rgb(0.784314%,0.784314%,0.784314%);fill-opacity:1;" d="M 23.871094 2.078125 C 25.109375 2.460938 25.839844 3.292969 26.066406 4.574219 C 26.101562 5.269531 26.113281 5.964844 26.105469 6.660156 C 26.519531 6.65625 26.9375 6.660156 27.351562 6.671875 C 27.484375 6.714844 27.550781 6.808594 27.542969 6.949219 C 27.542969 7.113281 27.464844 7.203125 27.304688 7.226562 C 26.90625 7.238281 26.503906 7.242188 26.105469 7.238281 C 26.105469 8.003906 26.105469 8.773438 26.105469 9.542969 C 26.527344 9.539062 26.953125 9.542969 27.375 9.554688 C 27.542969 9.652344 27.589844 9.792969 27.507812 9.972656 C 27.457031 10.042969 27.390625 10.089844 27.304688 10.105469 C 26.90625 10.117188 26.503906 10.121094 26.105469 10.117188 C 26.105469 10.886719 26.105469 11.652344 26.105469 12.421875 C 26.527344 12.417969 26.953125 12.421875 27.375 12.433594 C 27.542969 12.53125 27.589844 12.671875 27.507812 12.855469 C 27.472656 12.898438 27.425781 12.933594 27.375 12.960938 C 26.953125 12.972656 26.527344 12.976562 26.105469 12.972656 C 26.105469 13.75 26.105469 14.527344 26.105469 15.300781 C 26.527344 15.296875 26.953125 15.300781 27.375 15.3125 C 27.542969 15.414062 27.589844 15.554688 27.507812 15.734375 C 27.472656 15.78125 27.425781 15.816406 27.375 15.84375 C 26.953125 15.855469 26.527344 15.859375 26.105469 15.855469 C 26.101562 21.367188 26.105469 26.878906 26.117188 32.394531 C 28.371094 33.523438 29.699219 35.339844 30.101562 37.84375 C 30.351562 40.382812 29.523438 42.484375 27.617188 44.15625 C 25.554688 45.730469 23.28125 46.125 20.800781 45.34375 C 20.21875 45.125 19.675781 44.847656 19.167969 44.503906 C 18.96875 44.347656 18.769531 44.199219 18.566406 44.058594 C 16.578125 42.226562 15.820312 39.96875 16.296875 37.289062 C 16.8125 35.128906 18.042969 33.53125 19.996094 32.488281 C 20.003906 23.230469 20.011719 13.972656 20.019531 4.714844 C 20.175781 3.53125 20.792969 2.683594 21.878906 2.183594 C 22.050781 2.117188 22.226562 2.066406 22.40625 2.027344 C 22.898438 1.953125 23.386719 1.96875 23.871094 2.078125 Z M 23.871094 2.078125 "/>
</g>
<mask id="mask2">
  <g filter="url(#alpha)">
<rect x="0" y="0" width="50" height="50" style="fill:rgb(0%,0%,0%);fill-opacity:0.996078;stroke:none;"/>
  </g>
</mask>
<clipPath id="clip3">
  <rect width="50" height="50"/>
</clipPath>
<g id="surface12" clip-path="url(#clip3)">
<path style=" stroke:none;fill-rule:evenodd;fill:rgb(94.509804%,92.941176%,90.196078%);fill-opacity:1;" d="M 18.566406 44.058594 C 18.769531 44.199219 18.96875 44.347656 19.167969 44.503906 C 19.675781 44.847656 20.21875 45.125 20.800781 45.34375 C 23.28125 46.125 25.554688 45.730469 27.617188 44.15625 C 28.386719 44.300781 29.144531 44.496094 29.898438 44.742188 C 30.417969 44.914062 30.898438 45.164062 31.335938 45.488281 C 31.523438 45.632812 31.664062 45.8125 31.757812 46.027344 C 31.816406 46.257812 31.800781 46.480469 31.710938 46.699219 C 31.617188 46.84375 31.507812 46.972656 31.386719 47.09375 C 30.984375 47.402344 30.542969 47.644531 30.066406 47.816406 C 28.671875 48.289062 27.238281 48.585938 25.769531 48.703125 C 22.957031 48.976562 20.164062 48.859375 17.390625 48.34375 C 16.667969 48.195312 15.964844 47.988281 15.277344 47.71875 C 14.8125 47.539062 14.402344 47.28125 14.042969 46.941406 C 13.726562 46.550781 13.707031 46.152344 13.996094 45.738281 C 14.355469 45.375 14.777344 45.101562 15.253906 44.910156 C 16.328125 44.507812 17.433594 44.222656 18.566406 44.058594 Z M 18.566406 44.058594 "/>
</g>
</defs>
<g id="surface1">
<use xlink:href="#surface6" mask="url(#mask0)"/>
<use xlink:href="#surface9" mask="url(#mask1)"/>
<path style=" stroke:none;fill-rule:evenodd;fill:rgb(99.607843%,99.607843%,99.607843%);fill-opacity:1;" d="M 26.824219 44.035156 C 24.347656 43.746094 21.867188 43.71875 19.382812 43.964844 C 17.957031 42.917969 17.089844 41.519531 16.777344 39.761719 C 16.484375 37.375 17.234375 35.386719 19.023438 33.796875 C 19.488281 33.417969 19.996094 33.101562 20.546875 32.847656 C 20.546875 23.421875 20.5625 13.996094 20.59375 4.574219 C 20.824219 3.570312 21.425781 2.910156 22.40625 2.59375 C 23.578125 2.363281 24.5 2.734375 25.179688 3.707031 C 25.347656 3.992188 25.460938 4.296875 25.515625 4.621094 C 25.527344 5.300781 25.53125 5.980469 25.527344 6.660156 C 25.230469 6.65625 24.9375 6.660156 24.640625 6.671875 C 24.386719 6.851562 24.386719 7.027344 24.640625 7.199219 C 24.9375 7.214844 25.230469 7.21875 25.527344 7.214844 C 25.527344 7.988281 25.527344 8.765625 25.527344 9.542969 C 25.230469 9.539062 24.9375 9.542969 24.640625 9.554688 C 24.429688 9.671875 24.394531 9.828125 24.53125 10.023438 C 24.566406 10.042969 24.601562 10.066406 24.640625 10.082031 C 24.9375 10.09375 25.230469 10.097656 25.527344 10.09375 C 25.527344 10.871094 25.527344 11.644531 25.527344 12.421875 C 25.230469 12.417969 24.9375 12.421875 24.640625 12.433594 C 24.382812 12.609375 24.382812 12.789062 24.640625 12.960938 C 24.9375 12.972656 25.230469 12.976562 25.527344 12.972656 C 25.527344 13.75 25.527344 14.527344 25.527344 15.300781 C 25.230469 15.296875 24.9375 15.300781 24.640625 15.3125 C 24.382812 15.492188 24.382812 15.667969 24.640625 15.84375 C 24.9375 15.855469 25.230469 15.859375 25.527344 15.855469 C 25.523438 21.488281 25.527344 27.121094 25.539062 32.753906 C 27.636719 33.664062 28.945312 35.230469 29.476562 37.457031 C 29.828125 39.429688 29.398438 41.207031 28.179688 42.785156 C 27.792969 43.277344 27.339844 43.691406 26.824219 44.035156 Z M 26.824219 44.035156 "/>
<path style=" stroke:none;fill-rule:evenodd;fill:rgb(66.666667%,23.137255%,18.039216%);fill-opacity:1;" d="M 22.070312 18.832031 C 22.632812 18.832031 23.191406 18.832031 23.75 18.832031 C 23.75 23.886719 23.75 28.945312 23.75 34 C 25.546875 34.273438 26.824219 35.234375 27.582031 36.882812 C 28.242188 38.644531 28.011719 40.277344 26.882812 41.777344 C 25.746094 43.085938 24.3125 43.664062 22.574219 43.519531 C 20.714844 43.226562 19.414062 42.210938 18.675781 40.484375 C 18.0625 38.699219 18.339844 37.074219 19.515625 35.609375 C 20.203125 34.832031 21.050781 34.320312 22.058594 34.074219 C 22.070312 28.992188 22.074219 23.910156 22.070312 18.832031 Z M 22.070312 18.832031 "/>
<path style=" stroke:none;fill-rule:evenodd;fill:rgb(94.509804%,92.941176%,90.196078%);fill-opacity:1;" d="M 26.824219 44.035156 C 25.417969 45 23.867188 45.367188 22.167969 45.128906 C 21.140625 44.96875 20.210938 44.582031 19.382812 43.964844 C 21.867188 43.71875 24.347656 43.746094 26.824219 44.035156 Z M 26.824219 44.035156 "/>
<use xlink:href="#surface12" mask="url(#mask2)"/>
</g>
</svg>
