<?xml version="1.0" encoding="UTF-8"?>
<svg xmlns="http://www.w3.org/2000/svg" xmlns:xlink="http://www.w3.org/1999/xlink" width="50pt" height="50pt" viewBox="0 0 50 50" version="1.1">
<defs>
<filter id="alpha" filterUnits="objectBoundingBox" x="0%" y="0%" width="100%" height="100%">
  <feColorMatrix type="matrix" in="SourceGraphic" values="0 0 0 0 1 0 0 0 0 1 0 0 0 0 1 0 0 0 1 0"/>
</filter>
<mask id="mask0">
  <g filter="url(#alpha)">
<rect x="0" y="0" width="50" height="50" style="fill:rgb(0%,0%,0%);fill-opacity:0.984314;stroke:none;"/>
  </g>
</mask>
<clipPath id="clip1">
  <rect width="50" height="50"/>
</clipPath>
<g id="surface6" clip-path="url(#clip1)">
<path style=" stroke:none;fill-rule:evenodd;fill:rgb(0.392157%,0.392157%,0.392157%);fill-opacity:1;" d="M 39.210938 13.980469 C 39.128906 15.195312 38.890625 16.378906 38.503906 17.535156 C 38.097656 18.613281 37.535156 19.597656 36.820312 20.488281 C 36.039062 21.417969 35.289062 22.371094 34.566406 23.34375 C 34.300781 23.617188 34.027344 23.878906 33.75 24.136719 C 33.273438 24.691406 32.78125 25.230469 32.273438 25.757812 C 31.988281 26.027344 31.683594 26.273438 31.359375 26.5 C 30.257812 27.164062 29.183594 27.875 28.144531 28.636719 C 27.835938 28.886719 27.554688 29.164062 27.292969 29.464844 C 26.925781 29.949219 26.566406 30.4375 26.210938 30.929688 C 26.085938 31.171875 26.046875 31.425781 26.09375 31.695312 C 26.085938 32.46875 26.285156 33.179688 26.691406 33.832031 C 26.976562 34.214844 27.28125 34.582031 27.605469 34.9375 C 27.753906 35.136719 27.886719 35.34375 28.011719 35.5625 C 28.039062 35.679688 28.019531 35.792969 27.964844 35.898438 C 27.753906 36.050781 27.519531 36.144531 27.257812 36.171875 C 26.664062 36.199219 26.070312 36.222656 25.480469 36.246094 C 24.777344 36.339844 24.082031 36.457031 23.390625 36.59375 C 22.871094 36.582031 22.457031 36.367188 22.15625 35.945312 C 21.441406 34.851562 20.917969 33.664062 20.59375 32.394531 C 20.265625 31.164062 20.449219 30.019531 21.148438 28.960938 C 21.699219 28.167969 22.328125 27.4375 23.03125 26.765625 C 23.476562 26.390625 23.941406 26.046875 24.425781 25.730469 C 25.066406 25.34375 25.714844 24.957031 26.367188 24.578125 C 27.277344 24.054688 28.097656 23.410156 28.828125 22.648438 C 29.949219 21.324219 30.847656 19.859375 31.527344 18.253906 C 32.042969 17.09375 32.398438 15.886719 32.597656 14.628906 C 32.773438 13.625 32.675781 12.648438 32.308594 11.703125 C 32.105469 11.195312 31.78125 10.789062 31.335938 10.476562 C 30.679688 10.058594 29.992188 10.007812 29.273438 10.320312 C 28.757812 10.539062 28.296875 10.839844 27.890625 11.222656 C 27.457031 11.769531 27.152344 12.382812 26.980469 13.070312 C 26.878906 13.441406 26.8125 13.816406 26.789062 14.199219 C 26.757812 14.6875 26.738281 15.175781 26.726562 15.664062 C 26.667969 16.628906 26.4375 17.558594 26.042969 18.445312 C 25.714844 19.152344 25.238281 19.738281 24.617188 20.199219 C 24.09375 20.527344 23.523438 20.6875 22.898438 20.679688 C 21.082031 20.601562 19.609375 19.859375 18.484375 18.445312 C 17.957031 17.707031 17.667969 16.882812 17.617188 15.972656 C 17.492188 14.335938 17.710938 12.742188 18.265625 11.199219 C 18.636719 10.140625 19.132812 9.148438 19.753906 8.222656 C 20.402344 7.390625 21.148438 6.667969 22 6.050781 C 22.546875 5.519531 23.105469 5.007812 23.679688 4.511719 C 24.328125 4.003906 25.03125 3.578125 25.792969 3.242188 C 26.527344 2.921875 27.277344 2.648438 28.046875 2.425781 C 28.675781 2.238281 29.316406 2.15625 29.96875 2.183594 C 31.140625 2.28125 32.273438 2.53125 33.378906 2.929688 C 33.933594 3.179688 34.4375 3.507812 34.890625 3.914062 C 35.632812 4.664062 36.347656 5.433594 37.039062 6.230469 C 37.621094 6.90625 38.101562 7.648438 38.476562 8.460938 C 38.921875 9.628906 39.171875 10.835938 39.222656 12.085938 C 39.238281 12.71875 39.234375 13.351562 39.210938 13.980469 Z M 21.710938 6.949219 C 20.433594 8.273438 19.433594 9.785156 18.710938 11.484375 C 19.167969 10.058594 19.882812 8.789062 20.859375 7.667969 C 21.121094 7.398438 21.402344 7.15625 21.710938 6.949219 Z M 21.253906 19.816406 C 21.886719 19.886719 22.519531 19.953125 23.152344 20.019531 C 23.308594 20.035156 23.460938 20.0625 23.609375 20.101562 C 22.792969 20.25 22.007812 20.15625 21.253906 19.816406 Z M 30.59375 21.351562 C 30.367188 22.078125 30.144531 22.804688 29.933594 23.535156 C 29.746094 23.945312 29.488281 24.300781 29.152344 24.605469 C 28.625 25.050781 28.054688 25.445312 27.449219 25.78125 C 26.515625 26.277344 25.574219 26.75 24.617188 27.195312 C 23.859375 27.585938 23.214844 28.117188 22.683594 28.792969 C 22.324219 29.308594 22.078125 29.878906 21.941406 30.496094 C 21.710938 31.402344 21.625 32.324219 21.6875 33.257812 C 21.394531 32.5 21.25 31.71875 21.242188 30.90625 C 21.320312 30.308594 21.527344 29.765625 21.867188 29.273438 C 22.476562 28.308594 23.226562 27.464844 24.113281 26.742188 C 24.40625 26.527344 24.710938 26.328125 25.023438 26.140625 C 25.746094 25.757812 26.460938 25.359375 27.160156 24.941406 C 28.230469 24.238281 29.148438 23.371094 29.910156 22.335938 C 30.136719 22.007812 30.367188 21.679688 30.59375 21.351562 Z M 30.59375 21.351562 "/>
</g>
<mask id="mask1">
  <g filter="url(#alpha)">
<rect x="0" y="0" width="50" height="50" style="fill:rgb(0%,0%,0%);fill-opacity:0.972549;stroke:none;"/>
  </g>
</mask>
<clipPath id="clip2">
  <rect width="50" height="50"/>
</clipPath>
<g id="surface9" clip-path="url(#clip2)">
<path style=" stroke:none;fill-rule:evenodd;fill:rgb(98.431373%,98.431373%,98.431373%);fill-opacity:1;" d="M 31.335938 10.476562 C 31.78125 10.789062 32.105469 11.195312 32.308594 11.703125 C 32.675781 12.648438 32.773438 13.625 32.597656 14.628906 C 32.398438 15.886719 32.042969 17.09375 31.527344 18.253906 C 31.683594 17.65625 31.800781 17.046875 31.878906 16.429688 C 31.945312 15.613281 32.011719 14.796875 32.070312 13.980469 C 32.128906 13.234375 32.113281 12.492188 32.019531 11.75 C 31.984375 11.53125 31.910156 11.320312 31.804688 11.125 C 31.648438 10.910156 31.492188 10.691406 31.335938 10.476562 Z M 31.335938 10.476562 "/>
</g>
<mask id="mask2">
  <g filter="url(#alpha)">
<rect x="0" y="0" width="50" height="50" style="fill:rgb(0%,0%,0%);fill-opacity:0.980392;stroke:none;"/>
  </g>
</mask>
<clipPath id="clip3">
  <rect width="50" height="50"/>
</clipPath>
<g id="surface12" clip-path="url(#clip3)">
<path style=" stroke:none;fill-rule:evenodd;fill:rgb(99.215686%,99.215686%,99.215686%);fill-opacity:1;" d="M 39.210938 13.980469 C 39.332031 15.789062 39.105469 17.550781 38.527344 19.261719 C 37.925781 20.863281 36.996094 22.234375 35.730469 23.378906 C 34.867188 24.167969 33.972656 24.914062 33.042969 25.613281 C 32.082031 26.324219 31.121094 27.035156 30.160156 27.75 C 29.507812 28.226562 28.894531 28.757812 28.324219 29.34375 C 27.988281 29.769531 27.699219 30.226562 27.460938 30.714844 C 27.214844 31.296875 27.167969 31.898438 27.316406 32.511719 C 27.5625 33.765625 28.050781 34.910156 28.78125 35.945312 C 28.792969 35.96875 28.796875 35.992188 28.792969 36.019531 C 27.824219 36.25 26.859375 36.476562 25.886719 36.703125 C 25.285156 36.839844 24.675781 36.949219 24.0625 37.039062 C 23.945312 37.054688 23.824219 37.054688 23.703125 37.039062 C 23.621094 36.871094 23.519531 36.726562 23.390625 36.59375 C 24.082031 36.457031 24.777344 36.339844 25.480469 36.246094 C 26.070312 36.222656 26.664062 36.199219 27.257812 36.171875 C 27.519531 36.144531 27.753906 36.050781 27.964844 35.898438 C 28.019531 35.792969 28.039062 35.679688 28.011719 35.5625 C 27.886719 35.34375 27.753906 35.136719 27.605469 34.9375 C 27.28125 34.582031 26.976562 34.214844 26.691406 33.832031 C 26.285156 33.179688 26.085938 32.46875 26.09375 31.695312 C 26.046875 31.425781 26.085938 31.171875 26.210938 30.929688 C 26.566406 30.4375 26.925781 29.949219 27.292969 29.464844 C 27.554688 29.164062 27.835938 28.886719 28.144531 28.636719 C 29.183594 27.875 30.257812 27.164062 31.359375 26.5 C 31.683594 26.273438 31.988281 26.027344 32.273438 25.757812 C 32.78125 25.230469 33.273438 24.691406 33.75 24.136719 C 34.027344 23.878906 34.300781 23.617188 34.566406 23.34375 C 35.289062 22.371094 36.039062 21.417969 36.820312 20.488281 C 37.535156 19.597656 38.097656 18.613281 38.503906 17.535156 C 38.890625 16.378906 39.128906 15.195312 39.210938 13.980469 Z M 39.210938 13.980469 "/>
</g>
<mask id="mask3">
  <g filter="url(#alpha)">
<rect x="0" y="0" width="50" height="50" style="fill:rgb(0%,0%,0%);fill-opacity:0.956863;stroke:none;"/>
  </g>
</mask>
<clipPath id="clip4">
  <rect width="50" height="50"/>
</clipPath>
<g id="surface15" clip-path="url(#clip4)">
<path style=" stroke:none;fill-rule:evenodd;fill:rgb(98.039216%,98.039216%,98.039216%);fill-opacity:1;" d="M 26.726562 15.664062 C 26.808594 16.78125 26.660156 17.871094 26.285156 18.925781 C 26.09375 19.445312 25.753906 19.824219 25.265625 20.066406 C 25.054688 20.148438 24.839844 20.191406 24.617188 20.199219 C 25.238281 19.738281 25.714844 19.152344 26.042969 18.445312 C 26.4375 17.558594 26.667969 16.628906 26.726562 15.664062 Z M 26.726562 15.664062 "/>
</g>
<mask id="mask4">
  <g filter="url(#alpha)">
<rect x="0" y="0" width="50" height="50" style="fill:rgb(0%,0%,0%);fill-opacity:0.984314;stroke:none;"/>
  </g>
</mask>
<clipPath id="clip5">
  <rect width="50" height="50"/>
</clipPath>
<g id="surface18" clip-path="url(#clip5)">
<path style=" stroke:none;fill-rule:evenodd;fill:rgb(0.392157%,0.392157%,0.392157%);fill-opacity:1;" d="M 29.105469 41.972656 C 29.113281 42.089844 29.125 42.210938 29.140625 42.332031 C 29.164062 42.359375 29.195312 42.382812 29.226562 42.402344 C 29.769531 42.894531 30.050781 43.511719 30.066406 44.25 C 30.023438 45.070312 29.753906 45.808594 29.261719 46.460938 C 28.90625 46.941406 28.476562 47.339844 27.976562 47.660156 C 27.703125 47.816406 27.425781 47.953125 27.136719 48.066406 C 26.203125 48.347656 25.289062 48.277344 24.398438 47.863281 C 23.15625 47.273438 22.34375 46.320312 21.964844 44.996094 C 21.660156 43.351562 22.128906 41.972656 23.367188 40.855469 C 24.15625 40.199219 25.070312 39.882812 26.105469 39.90625 C 26.878906 39.878906 27.582031 40.085938 28.214844 40.519531 C 28.707031 40.886719 29 41.367188 29.105469 41.972656 Z M 23.390625 41.828125 C 23.273438 42.238281 23.167969 42.65625 23.078125 43.074219 C 22.882812 43.289062 22.710938 43.519531 22.5625 43.769531 C 22.644531 43.035156 22.917969 42.386719 23.390625 41.828125 Z M 23.054688 44.417969 C 23.0625 44.714844 23.082031 45.011719 23.117188 45.308594 C 23.179688 45.53125 23.28125 45.730469 23.429688 45.90625 C 23.824219 46.320312 24.277344 46.660156 24.785156 46.925781 C 25.289062 47.179688 25.792969 47.433594 26.296875 47.683594 C 24.957031 47.597656 23.898438 47.011719 23.117188 45.929688 C 22.902344 45.605469 22.746094 45.253906 22.648438 44.875 C 22.734375 44.871094 22.804688 44.828125 22.851562 44.753906 C 22.914062 44.636719 22.980469 44.527344 23.054688 44.417969 Z M 23.054688 44.417969 "/>
</g>
<mask id="mask5">
  <g filter="url(#alpha)">
<rect x="0" y="0" width="50" height="50" style="fill:rgb(0%,0%,0%);fill-opacity:0.996078;stroke:none;"/>
  </g>
</mask>
<clipPath id="clip6">
  <rect width="50" height="50"/>
</clipPath>
<g id="surface21" clip-path="url(#clip6)">
<path style=" stroke:none;fill-rule:evenodd;fill:rgb(98.431373%,98.431373%,98.431373%);fill-opacity:1;" d="M 23.078125 43.074219 C 23.167969 42.65625 23.273438 42.238281 23.390625 41.828125 C 23.953125 41.105469 24.699219 40.710938 25.625 40.636719 C 26.339844 40.5625 27.019531 40.683594 27.664062 41 C 27.988281 41.195312 28.230469 41.46875 28.382812 41.816406 C 28.375 41.828125 28.367188 41.839844 28.359375 41.851562 C 27.175781 41.308594 25.992188 41.308594 24.808594 41.851562 C 24.785156 41.839844 24.78125 41.824219 24.796875 41.800781 C 24.882812 41.699219 24.972656 41.59375 25.058594 41.492188 C 25.128906 41.265625 25.046875 41.15625 24.808594 41.167969 C 24.441406 41.46875 24.164062 41.84375 23.980469 42.28125 C 23.644531 42.503906 23.34375 42.769531 23.078125 43.074219 Z M 23.078125 43.074219 "/>
</g>
<mask id="mask6">
  <g filter="url(#alpha)">
<rect x="0" y="0" width="50" height="50" style="fill:rgb(0%,0%,0%);fill-opacity:0.662745;stroke:none;"/>
  </g>
</mask>
<clipPath id="clip7">
  <rect width="50" height="50"/>
</clipPath>
<g id="surface24" clip-path="url(#clip7)">
<path style=" stroke:none;fill-rule:evenodd;fill:rgb(88.235294%,88.235294%,88.235294%);fill-opacity:1;" d="M 29.105469 41.972656 C 29.164062 42.105469 29.203125 42.25 29.226562 42.402344 C 29.195312 42.382812 29.164062 42.359375 29.140625 42.332031 C 29.125 42.210938 29.113281 42.089844 29.105469 41.972656 Z M 29.105469 41.972656 "/>
</g>
<mask id="mask7">
  <g filter="url(#alpha)">
<rect x="0" y="0" width="50" height="50" style="fill:rgb(0%,0%,0%);fill-opacity:0.996078;stroke:none;"/>
  </g>
</mask>
<clipPath id="clip8">
  <rect width="50" height="50"/>
</clipPath>
<g id="surface27" clip-path="url(#clip8)">
<path style=" stroke:none;fill-rule:evenodd;fill:rgb(99.215686%,99.215686%,99.215686%);fill-opacity:1;" d="M 26.296875 47.683594 C 25.792969 47.433594 25.289062 47.179688 24.785156 46.925781 C 24.277344 46.660156 23.824219 46.320312 23.429688 45.90625 C 23.28125 45.730469 23.179688 45.53125 23.117188 45.308594 C 23.082031 45.011719 23.0625 44.714844 23.054688 44.417969 C 23.238281 44.058594 23.472656 43.730469 23.75 43.433594 C 23.792969 43.941406 23.972656 44.390625 24.292969 44.777344 C 24.820312 45.351562 25.460938 45.726562 26.222656 45.894531 C 26.628906 45.941406 27.003906 45.859375 27.351562 45.65625 C 27.5625 45.507812 27.757812 45.34375 27.941406 45.164062 C 28.449219 44.570312 28.820312 43.898438 29.042969 43.148438 C 29.449219 43.703125 29.542969 44.3125 29.332031 44.972656 C 28.902344 46.171875 28.105469 47.03125 26.945312 47.550781 C 26.734375 47.628906 26.519531 47.671875 26.296875 47.683594 Z M 26.296875 47.683594 "/>
</g>
<mask id="mask8">
  <g filter="url(#alpha)">
<rect x="0" y="0" width="50" height="50" style="fill:rgb(0%,0%,0%);fill-opacity:0.870588;stroke:none;"/>
  </g>
</mask>
<clipPath id="clip9">
  <rect width="50" height="50"/>
</clipPath>
<g id="surface30" clip-path="url(#clip9)">
<path style=" stroke:none;fill-rule:evenodd;fill:rgb(96.470588%,96.470588%,96.470588%);fill-opacity:1;" d="M 27.976562 47.660156 C 27.847656 47.921875 27.640625 48.074219 27.351562 48.117188 C 27.277344 48.105469 27.207031 48.089844 27.136719 48.066406 C 27.425781 47.953125 27.703125 47.816406 27.976562 47.660156 Z M 27.976562 47.660156 "/>
</g>
</defs>
<g id="surface1">
<use xlink:href="#surface6" mask="url(#mask0)"/>
<path style=" stroke:none;fill-rule:evenodd;fill:rgb(99.607843%,99.607843%,99.607843%);fill-opacity:1;" d="M 21.6875 33.257812 C 21.625 32.324219 21.710938 31.402344 21.941406 30.496094 C 22.078125 29.878906 22.324219 29.308594 22.683594 28.792969 C 23.214844 28.117188 23.859375 27.585938 24.617188 27.195312 C 25.574219 26.75 26.515625 26.277344 27.449219 25.78125 C 28.054688 25.445312 28.625 25.050781 29.152344 24.605469 C 29.488281 24.300781 29.746094 23.945312 29.933594 23.535156 C 30.144531 22.804688 30.367188 22.078125 30.59375 21.351562 C 30.59375 21.34375 30.59375 21.335938 30.59375 21.328125 C 31.574219 19.738281 32.324219 18.042969 32.835938 16.238281 C 33.132812 15.167969 33.242188 14.082031 33.171875 12.972656 C 33.082031 12.046875 32.746094 11.222656 32.164062 10.5 C 31.300781 9.636719 30.296875 9.421875 29.152344 9.867188 C 28.71875 10.085938 28.292969 10.328125 27.878906 10.585938 C 27.371094 10.992188 27 11.5 26.765625 12.109375 C 26.527344 12.734375 26.382812 13.382812 26.332031 14.054688 C 26.277344 14.921875 26.195312 15.785156 26.09375 16.648438 C 25.953125 17.503906 25.640625 18.285156 25.15625 19 C 24.835938 19.453125 24.425781 19.792969 23.917969 20.019531 C 23.816406 20.050781 23.710938 20.078125 23.609375 20.101562 C 23.460938 20.0625 23.308594 20.035156 23.152344 20.019531 C 22.519531 19.953125 21.886719 19.886719 21.253906 19.816406 C 20.695312 19.605469 20.175781 19.324219 19.695312 18.964844 C 18.773438 18.214844 18.265625 17.242188 18.171875 16.046875 C 18.039062 14.558594 18.195312 13.101562 18.640625 11.679688 C 18.660156 11.660156 18.667969 11.636719 18.664062 11.605469 C 18.683594 11.597656 18.691406 11.582031 18.6875 11.558594 C 18.707031 11.539062 18.714844 11.515625 18.710938 11.484375 C 19.433594 9.785156 20.433594 8.273438 21.710938 6.949219 C 21.726562 6.949219 21.734375 6.941406 21.734375 6.925781 C 21.75 6.925781 21.757812 6.917969 21.757812 6.902344 C 22.074219 6.675781 22.394531 6.457031 22.71875 6.242188 C 23.289062 5.710938 23.882812 5.207031 24.496094 4.730469 C 25.132812 4.320312 25.804688 3.976562 26.511719 3.695312 C 26.898438 3.609375 27.28125 3.511719 27.664062 3.410156 C 28.328125 3.140625 29.015625 2.992188 29.730469 2.964844 C 30.945312 3.023438 32.121094 3.265625 33.257812 3.695312 C 33.738281 3.929688 34.171875 4.234375 34.554688 4.609375 C 35.421875 5.46875 36.222656 6.375 36.964844 7.332031 C 37.835938 8.507812 38.332031 9.828125 38.453125 11.292969 C 38.652344 13.199219 38.515625 15.082031 38.046875 16.933594 C 37.796875 17.695312 37.453125 18.40625 37.015625 19.070312 C 36.828125 19.335938 36.644531 19.597656 36.460938 19.863281 C 35.699219 20.800781 34.957031 21.753906 34.230469 22.71875 C 33.597656 23.371094 32.980469 24.035156 32.382812 24.710938 C 31.90625 25.21875 31.390625 25.667969 30.832031 26.066406 C 30.109375 26.539062 29.378906 27.003906 28.648438 27.460938 C 28.042969 27.855469 27.484375 28.316406 26.980469 28.839844 C 26.691406 29.199219 26.398438 29.550781 26.09375 29.898438 C 25.84375 30.21875 25.644531 30.570312 25.492188 30.953125 C 25.441406 31.140625 25.414062 31.332031 25.40625 31.527344 C 25.433594 32.082031 25.507812 32.625 25.636719 33.160156 C 25.722656 33.476562 25.851562 33.773438 26.019531 34.050781 C 26.386719 34.53125 26.757812 35.011719 27.136719 35.488281 C 27.089844 35.507812 27.042969 35.519531 26.992188 35.527344 C 26.640625 35.539062 26.289062 35.535156 25.9375 35.515625 C 25.40625 35.542969 24.878906 35.59375 24.351562 35.667969 C 24.023438 35.746094 23.691406 35.804688 23.355469 35.851562 C 23.085938 35.828125 22.875 35.699219 22.730469 35.464844 C 22.414062 34.929688 22.125 34.378906 21.867188 33.808594 C 21.785156 33.628906 21.726562 33.445312 21.6875 33.257812 Z M 21.6875 33.257812 "/>
<use xlink:href="#surface9" mask="url(#mask1)"/>
<use xlink:href="#surface12" mask="url(#mask2)"/>
<use xlink:href="#surface15" mask="url(#mask3)"/>
<use xlink:href="#surface18" mask="url(#mask4)"/>
<use xlink:href="#surface21" mask="url(#mask5)"/>
<use xlink:href="#surface24" mask="url(#mask6)"/>
<path style=" stroke:none;fill-rule:evenodd;fill:rgb(99.215686%,99.215686%,99.215686%);fill-opacity:1;" d="M 26.273438 42.164062 C 26.910156 42.113281 27.527344 42.203125 28.121094 42.4375 C 28.234375 42.488281 28.34375 42.550781 28.445312 42.617188 C 28.3125 43.601562 27.867188 44.414062 27.113281 45.054688 C 26.71875 45.300781 26.3125 45.324219 25.886719 45.128906 C 25.339844 44.878906 24.886719 44.515625 24.53125 44.035156 C 24.324219 43.667969 24.277344 43.289062 24.398438 42.894531 C 24.976562 42.523438 25.601562 42.277344 26.273438 42.164062 Z M 26.273438 42.164062 "/>
<use xlink:href="#surface27" mask="url(#mask7)"/>
<use xlink:href="#surface30" mask="url(#mask8)"/>
</g>
</svg>
