<?xml version="1.0" encoding="UTF-8"?>
<svg xmlns="http://www.w3.org/2000/svg" xmlns:xlink="http://www.w3.org/1999/xlink" width="50pt" height="50pt" viewBox="0 0 50 50" version="1.1">
<defs>
<filter id="alpha" filterUnits="objectBoundingBox" x="0%" y="0%" width="100%" height="100%">
  <feColorMatrix type="matrix" in="SourceGraphic" values="0 0 0 0 1 0 0 0 0 1 0 0 0 0 1 0 0 0 1 0"/>
</filter>
<mask id="mask0">
  <g filter="url(#alpha)">
<rect x="0" y="0" width="50" height="50" style="fill:rgb(0%,0%,0%);fill-opacity:0.984314;stroke:none;"/>
  </g>
</mask>
<clipPath id="clip1">
  <rect width="50" height="50"/>
</clipPath>
<g id="surface6" clip-path="url(#clip1)">
<path style=" stroke:none;fill-rule:evenodd;fill:rgb(0%,0%,0%);fill-opacity:1;" d="M 38.828125 17.96875 C 38.984375 17.980469 39.136719 18.023438 39.28125 18.097656 C 42.175781 20.128906 45.34375 21.578125 48.789062 22.445312 C 49.085938 22.558594 49.300781 22.761719 49.425781 23.054688 C 49.445312 23.179688 49.4375 23.296875 49.398438 23.414062 C 49.324219 23.53125 49.242188 23.636719 49.148438 23.738281 C 47.460938 24.992188 45.84375 26.335938 44.300781 27.773438 C 43.445312 28.609375 42.644531 29.488281 41.898438 30.414062 C 41.605469 30.632812 41.300781 30.648438 40.988281 30.460938 C 40.730469 30.214844 40.675781 29.933594 40.832031 29.609375 C 40.878906 29.527344 40.925781 29.449219 40.972656 29.367188 C 41.722656 28.410156 42.542969 27.511719 43.433594 26.667969 C 44.203125 25.960938 44.988281 25.273438 45.789062 24.605469 C 45.761719 24.566406 45.726562 24.546875 45.679688 24.542969 C 44.503906 24.707031 43.324219 24.839844 42.140625 24.941406 C 41.234375 24.960938 40.328125 24.929688 39.425781 24.84375 C 38.863281 24.707031 38.683594 24.367188 38.886719 23.824219 C 38.949219 23.722656 39.03125 23.648438 39.136719 23.597656 C 39.277344 23.542969 39.421875 23.507812 39.570312 23.5 C 40.351562 23.515625 41.128906 23.527344 41.910156 23.535156 C 42.589844 23.554688 43.265625 23.519531 43.9375 23.429688 C 44.523438 23.328125 45.109375 23.226562 45.691406 23.117188 C 45.722656 23.074219 45.722656 23.035156 45.691406 22.996094 C 43.023438 22.046875 40.554688 20.746094 38.285156 19.09375 C 38.070312 18.746094 38.109375 18.421875 38.394531 18.121094 C 38.527344 18.03125 38.671875 17.976562 38.828125 17.96875 Z M 38.828125 17.96875 "/>
</g>
<mask id="mask1">
  <g filter="url(#alpha)">
<rect x="0" y="0" width="50" height="50" style="fill:rgb(0%,0%,0%);fill-opacity:0.984314;stroke:none;"/>
  </g>
</mask>
<clipPath id="clip2">
  <rect width="50" height="50"/>
</clipPath>
<g id="surface9" clip-path="url(#clip2)">
<path style=" stroke:none;fill-rule:evenodd;fill:rgb(0%,0%,0%);fill-opacity:1;" d="M 5.390625 23.03125 C 5.960938 23.027344 6.476562 23.195312 6.9375 23.535156 C 7.152344 23.921875 7.085938 24.257812 6.734375 24.53125 C 6.566406 24.613281 6.390625 24.636719 6.203125 24.605469 C 5.921875 24.527344 5.632812 24.46875 5.339844 24.4375 C 3.867188 24.4375 2.394531 24.445312 0.925781 24.460938 C 0.257812 24.363281 0.0429688 23.996094 0.289062 23.367188 C 0.363281 23.242188 0.46875 23.15625 0.613281 23.117188 C 2.207031 23.074219 3.800781 23.046875 5.390625 23.03125 Z M 5.390625 23.03125 "/>
</g>
<mask id="mask2">
  <g filter="url(#alpha)">
<rect x="0" y="0" width="50" height="50" style="fill:rgb(0%,0%,0%);fill-opacity:0.984314;stroke:none;"/>
  </g>
</mask>
<clipPath id="clip3">
  <rect width="50" height="50"/>
</clipPath>
<g id="surface12" clip-path="url(#clip3)">
<path style=" stroke:none;fill-rule:evenodd;fill:rgb(0%,0%,0%);fill-opacity:1;" d="M 28.265625 23.296875 C 28.335938 23.292969 28.410156 23.296875 28.480469 23.308594 C 29.214844 23.503906 29.964844 23.597656 30.726562 23.582031 C 31.640625 23.558594 32.558594 23.554688 33.472656 23.570312 C 33.84375 23.582031 34.210938 23.605469 34.578125 23.644531 C 34.828125 23.71875 34.976562 23.882812 35.023438 24.136719 C 35.105469 24.566406 34.941406 24.839844 34.53125 24.964844 C 34.425781 24.988281 34.324219 25.003906 34.21875 25.011719 C 32.703125 25.019531 31.191406 24.984375 29.679688 24.914062 C 29.164062 24.851562 28.652344 24.753906 28.144531 24.628906 C 27.949219 24.527344 27.765625 24.40625 27.59375 24.269531 C 27.628906 24.082031 27.664062 23.894531 27.699219 23.703125 C 27.734375 23.589844 27.800781 23.507812 27.90625 23.453125 C 28.019531 23.386719 28.140625 23.332031 28.265625 23.296875 Z M 28.265625 23.296875 "/>
</g>
<mask id="mask3">
  <g filter="url(#alpha)">
<rect x="0" y="0" width="50" height="50" style="fill:rgb(0%,0%,0%);fill-opacity:0.984314;stroke:none;"/>
  </g>
</mask>
<clipPath id="clip4">
  <rect width="50" height="50"/>
</clipPath>
<g id="surface15" clip-path="url(#clip4)">
<path style=" stroke:none;fill-rule:evenodd;fill:rgb(0%,0%,0%);fill-opacity:1;" d="M 12.207031 23.390625 C 13.191406 23.386719 14.175781 23.390625 15.160156 23.402344 C 15.824219 23.488281 16.082031 23.863281 15.9375 24.519531 C 15.929688 24.542969 15.921875 24.566406 15.914062 24.59375 C 15.757812 24.726562 15.578125 24.816406 15.375 24.867188 C 14.117188 24.90625 12.863281 24.914062 11.605469 24.890625 C 10.964844 24.875 10.324219 24.835938 9.6875 24.773438 C 9.410156 24.714844 9.238281 24.550781 9.167969 24.28125 C 9.085938 23.8125 9.273438 23.527344 9.734375 23.429688 C 10.5625 23.421875 11.386719 23.410156 12.207031 23.390625 Z M 12.207031 23.390625 "/>
</g>
<mask id="mask4">
  <g filter="url(#alpha)">
<rect x="0" y="0" width="50" height="50" style="fill:rgb(0%,0%,0%);fill-opacity:0.984314;stroke:none;"/>
  </g>
</mask>
<clipPath id="clip5">
  <rect width="50" height="50"/>
</clipPath>
<g id="surface18" clip-path="url(#clip5)">
<path style=" stroke:none;fill-rule:evenodd;fill:rgb(0%,0%,0%);fill-opacity:1;" d="M 23.75 23.390625 C 24.175781 23.339844 24.574219 23.40625 24.953125 23.597656 C 25.414062 23.882812 25.515625 24.261719 25.253906 24.734375 C 25.214844 24.789062 25.171875 24.832031 25.121094 24.867188 C 24.71875 24.941406 24.328125 24.910156 23.945312 24.785156 C 22.867188 24.851562 21.792969 24.898438 20.714844 24.929688 C 20.160156 24.917969 19.601562 24.898438 19.046875 24.867188 C 18.519531 24.800781 18.296875 24.5 18.386719 23.96875 C 18.453125 23.738281 18.601562 23.589844 18.832031 23.523438 C 18.957031 23.503906 19.085938 23.488281 19.214844 23.488281 C 20.398438 23.566406 21.582031 23.570312 22.769531 23.5 C 23.101562 23.480469 23.429688 23.441406 23.75 23.390625 Z M 23.75 23.390625 "/>
</g>
</defs>
<g id="surface1">
<use xlink:href="#surface6" mask="url(#mask0)"/>
<use xlink:href="#surface9" mask="url(#mask1)"/>
<use xlink:href="#surface12" mask="url(#mask2)"/>
<use xlink:href="#surface15" mask="url(#mask3)"/>
<use xlink:href="#surface18" mask="url(#mask4)"/>
</g>
</svg>
