<?xml version="1.0" encoding="UTF-8"?>
<svg xmlns="http://www.w3.org/2000/svg" xmlns:xlink="http://www.w3.org/1999/xlink" width="50pt" height="50pt" viewBox="0 0 50 50" version="1.1">
<defs>
<filter id="alpha" filterUnits="objectBoundingBox" x="0%" y="0%" width="100%" height="100%">
  <feColorMatrix type="matrix" in="SourceGraphic" values="0 0 0 0 1 0 0 0 0 1 0 0 0 0 1 0 0 0 1 0"/>
</filter>
<mask id="mask0">
  <g filter="url(#alpha)">
<rect x="0" y="0" width="50" height="50" style="fill:rgb(0%,0%,0%);fill-opacity:0.980392;stroke:none;"/>
  </g>
</mask>
<clipPath id="clip1">
  <rect width="50" height="50"/>
</clipPath>
<g id="surface6" clip-path="url(#clip1)">
<path style=" stroke:none;fill-rule:evenodd;fill:rgb(94.117647%,92.54902%,89.803922%);fill-opacity:1;" d="M 36.445312 12.308594 C 35.480469 12.421875 34.554688 12.652344 33.660156 13.003906 C 34.085938 11.429688 33.605469 10.214844 32.222656 9.355469 C 30.398438 8.527344 28.6875 8.71875 27.085938 9.933594 C 26.679688 10.28125 26.316406 10.671875 26.007812 11.109375 C 24.769531 7.933594 22.472656 6.039062 19.121094 5.421875 C 16.257812 5.089844 13.820312 5.949219 11.804688 7.988281 C 9.5625 10.644531 9.058594 13.605469 10.292969 16.867188 C 9.890625 16.941406 9.492188 17.019531 9.09375 17.105469 C 8.589844 14.1875 8.964844 11.390625 10.222656 8.710938 C 11.574219 6.429688 13.566406 5.046875 16.195312 4.558594 C 18.660156 4.132812 21.058594 4.375 23.390625 5.277344 C 24.550781 5.78125 25.453125 6.570312 26.105469 7.652344 C 26.382812 8.199219 26.625 8.757812 26.824219 9.332031 C 28.488281 8.269531 30.300781 7.816406 32.269531 7.964844 C 34.191406 8.242188 35.496094 9.289062 36.179688 11.109375 C 36.300781 11.5 36.390625 11.902344 36.445312 12.308594 Z M 36.445312 12.308594 "/>
</g>
<mask id="mask1">
  <g filter="url(#alpha)">
<rect x="0" y="0" width="50" height="50" style="fill:rgb(0%,0%,0%);fill-opacity:0.996078;stroke:none;"/>
  </g>
</mask>
<clipPath id="clip2">
  <rect width="50" height="50"/>
</clipPath>
<g id="surface9" clip-path="url(#clip2)">
<path style=" stroke:none;fill-rule:evenodd;fill:rgb(7.843137%,14.509804%,15.294118%);fill-opacity:1;" d="M 36.445312 12.308594 C 37.015625 12.253906 37.59375 12.246094 38.171875 12.285156 C 38.519531 12.308594 38.855469 12.367188 39.179688 12.453125 C 43.054688 13.441406 45.0625 15.9375 45.203125 19.9375 C 45.15625 20.078125 45.132812 20.222656 45.128906 20.371094 C 44.925781 21.382812 44.414062 22.207031 43.59375 22.839844 C 42.578125 23.566406 41.457031 24.070312 40.234375 24.351562 C 38.765625 24.699219 37.277344 24.960938 35.773438 25.144531 C 33.535156 25.410156 31.296875 25.640625 29.054688 25.839844 C 28.445312 25.898438 27.839844 25.96875 27.230469 26.054688 C 27.816406 26.765625 28.398438 27.480469 28.984375 28.191406 C 31.160156 30.601562 33.34375 33 35.53125 35.390625 C 35.933594 35.828125 36.324219 36.277344 36.707031 36.730469 C 36.914062 37.230469 36.777344 37.605469 36.300781 37.859375 C 35.265625 38.058594 34.226562 38.082031 33.179688 37.933594 C 32.410156 37.851562 31.644531 37.753906 30.878906 37.644531 C 30.863281 37.78125 30.878906 37.910156 30.925781 38.027344 C 30.992188 39.164062 31.054688 40.300781 31.117188 41.433594 C 31.15625 42.460938 31.203125 43.484375 31.261719 44.503906 C 31.339844 45.15625 31.148438 45.710938 30.6875 46.160156 C 30.234375 46.394531 29.753906 46.523438 29.246094 46.546875 C 28.453125 46.578125 27.664062 46.570312 26.871094 46.519531 C 25.5625 46.652344 24.25 46.746094 22.9375 46.808594 C 22.496094 46.8125 22.054688 46.789062 21.617188 46.738281 C 21.359375 46.707031 21.117188 46.628906 20.898438 46.496094 C 20.78125 46.367188 20.707031 46.214844 20.679688 46.042969 C 20.59375 45.53125 20.554688 45.019531 20.5625 44.503906 C 20.574219 43.101562 20.703125 41.710938 20.945312 40.332031 C 21.015625 39.628906 21.113281 38.933594 21.234375 38.242188 C 19.375 38.191406 17.519531 38.078125 15.667969 37.90625 C 15.34375 37.777344 15.25 37.542969 15.378906 37.210938 C 15.460938 37.1875 15.523438 37.140625 15.570312 37.066406 C 15.453125 36.886719 15.445312 36.691406 15.546875 36.492188 C 16.523438 34.480469 17.707031 32.609375 19.097656 30.878906 C 20.339844 29.421875 21.53125 27.925781 22.671875 26.390625 C 22.644531 26.371094 22.613281 26.359375 22.578125 26.367188 C 19.953125 26.460938 17.332031 26.546875 14.707031 26.632812 C 13.460938 26.664062 12.210938 26.664062 10.964844 26.632812 C 9.761719 26.5625 8.59375 26.332031 7.460938 25.9375 C 6.292969 25.496094 5.4375 24.710938 4.894531 23.585938 C 4.523438 22.519531 4.585938 21.480469 5.085938 20.464844 C 5.992188 18.832031 7.328125 17.714844 9.09375 17.105469 C 9.492188 17.019531 9.890625 16.941406 10.292969 16.867188 C 9.058594 13.605469 9.5625 10.644531 11.804688 7.988281 C 13.820312 5.949219 16.257812 5.089844 19.121094 5.421875 C 22.472656 6.039062 24.769531 7.933594 26.007812 11.109375 C 26.316406 10.671875 26.679688 10.28125 27.085938 9.933594 C 28.6875 8.71875 30.398438 8.527344 32.222656 9.355469 C 33.605469 10.214844 34.085938 11.429688 33.660156 13.003906 C 34.554688 12.652344 35.480469 12.421875 36.445312 12.308594 Z M 36.445312 12.308594 "/>
</g>
<mask id="mask2">
  <g filter="url(#alpha)">
<rect x="0" y="0" width="50" height="50" style="fill:rgb(0%,0%,0%);fill-opacity:0.941176;stroke:none;"/>
  </g>
</mask>
<clipPath id="clip3">
  <rect width="50" height="50"/>
</clipPath>
<g id="surface12" clip-path="url(#clip3)">
<path style=" stroke:none;fill-rule:evenodd;fill:rgb(93.333333%,91.764706%,89.019608%);fill-opacity:1;" d="M 39.179688 12.453125 C 40.914062 12.640625 42.449219 13.289062 43.785156 14.394531 C 45.277344 15.925781 45.796875 17.742188 45.34375 19.839844 C 45.296875 20.03125 45.222656 20.207031 45.128906 20.371094 C 45.132812 20.222656 45.15625 20.078125 45.203125 19.9375 C 45.0625 15.9375 43.054688 13.441406 39.179688 12.453125 Z M 39.179688 12.453125 "/>
</g>
<mask id="mask3">
  <g filter="url(#alpha)">
<rect x="0" y="0" width="50" height="50" style="fill:rgb(0%,0%,0%);fill-opacity:0.964706;stroke:none;"/>
  </g>
</mask>
<clipPath id="clip4">
  <rect width="50" height="50"/>
</clipPath>
<g id="surface15" clip-path="url(#clip4)">
<path style=" stroke:none;fill-rule:evenodd;fill:rgb(93.333333%,92.156863%,89.411765%);fill-opacity:1;" d="M 40.234375 24.351562 C 38.660156 25.019531 37.027344 25.523438 35.339844 25.863281 C 33.507812 26.234375 31.667969 26.496094 29.824219 26.65625 C 29.566406 26.386719 29.3125 26.113281 29.054688 25.839844 C 31.296875 25.640625 33.535156 25.410156 35.773438 25.144531 C 37.277344 24.960938 38.765625 24.699219 40.234375 24.351562 Z M 40.234375 24.351562 "/>
</g>
<mask id="mask4">
  <g filter="url(#alpha)">
<rect x="0" y="0" width="50" height="50" style="fill:rgb(0%,0%,0%);fill-opacity:0.984314;stroke:none;"/>
  </g>
</mask>
<clipPath id="clip5">
  <rect width="50" height="50"/>
</clipPath>
<g id="surface18" clip-path="url(#clip5)">
<path style=" stroke:none;fill-rule:evenodd;fill:rgb(57.647059%,60.784314%,70.980392%);fill-opacity:1;" d="M 29.054688 25.839844 C 29.3125 26.113281 29.566406 26.386719 29.824219 26.65625 C 31.667969 28.972656 33.46875 31.320312 35.222656 33.710938 C 35.5 34.234375 35.605469 34.792969 35.53125 35.390625 C 33.34375 33 31.160156 30.601562 28.984375 28.191406 C 28.398438 27.480469 27.816406 26.765625 27.230469 26.054688 C 27.839844 25.96875 28.445312 25.898438 29.054688 25.839844 Z M 29.054688 25.839844 "/>
</g>
<mask id="mask5">
  <g filter="url(#alpha)">
<rect x="0" y="0" width="50" height="50" style="fill:rgb(0%,0%,0%);fill-opacity:0.952941;stroke:none;"/>
  </g>
</mask>
<clipPath id="clip6">
  <rect width="50" height="50"/>
</clipPath>
<g id="surface21" clip-path="url(#clip6)">
<path style=" stroke:none;fill-rule:evenodd;fill:rgb(92.941176%,91.372549%,88.627451%);fill-opacity:1;" d="M 7.460938 25.9375 C 8.59375 26.332031 9.761719 26.5625 10.964844 26.632812 C 12.210938 26.664062 13.460938 26.664062 14.707031 26.632812 C 17.332031 26.546875 19.953125 26.460938 22.578125 26.367188 C 22.304688 26.609375 22.015625 26.832031 21.714844 27.039062 C 20.777344 27.03125 19.839844 27.046875 18.90625 27.085938 C 16.304688 27.066406 13.707031 27.011719 11.109375 26.917969 C 10.015625 26.84375 8.957031 26.605469 7.941406 26.199219 C 7.769531 26.121094 7.609375 26.035156 7.460938 25.9375 Z M 7.460938 25.9375 "/>
</g>
<mask id="mask6">
  <g filter="url(#alpha)">
<rect x="0" y="0" width="50" height="50" style="fill:rgb(0%,0%,0%);fill-opacity:0.968627;stroke:none;"/>
  </g>
</mask>
<clipPath id="clip7">
  <rect width="50" height="50"/>
</clipPath>
<g id="surface24" clip-path="url(#clip7)">
<path style=" stroke:none;fill-rule:evenodd;fill:rgb(57.647059%,60.784314%,70.588235%);fill-opacity:1;" d="M 22.578125 26.367188 C 22.613281 26.359375 22.644531 26.371094 22.671875 26.390625 C 21.53125 27.925781 20.339844 29.421875 19.097656 30.878906 C 17.707031 32.609375 16.523438 34.480469 15.546875 36.492188 C 15.445312 36.691406 15.453125 36.886719 15.570312 37.066406 C 15.523438 37.140625 15.460938 37.1875 15.378906 37.210938 C 14.40625 36.378906 14.171875 35.371094 14.683594 34.1875 C 14.949219 33.808594 15.308594 33.5625 15.761719 33.445312 C 15.96875 33.417969 16.167969 33.378906 16.363281 33.324219 C 17.925781 31.050781 19.707031 28.957031 21.714844 27.039062 C 22.015625 26.832031 22.304688 26.609375 22.578125 26.367188 Z M 22.578125 26.367188 "/>
</g>
<mask id="mask7">
  <g filter="url(#alpha)">
<rect x="0" y="0" width="50" height="50" style="fill:rgb(0%,0%,0%);fill-opacity:0.960784;stroke:none;"/>
  </g>
</mask>
<clipPath id="clip8">
  <rect width="50" height="50"/>
</clipPath>
<g id="surface27" clip-path="url(#clip8)">
<path style=" stroke:none;fill-rule:evenodd;fill:rgb(56.078431%,59.215686%,69.019608%);fill-opacity:1;" d="M 33.179688 37.933594 C 33.128906 37.96875 33.0625 37.992188 32.988281 38.003906 C 32.300781 38.027344 31.613281 38.035156 30.925781 38.027344 C 30.878906 37.910156 30.863281 37.78125 30.878906 37.644531 C 31.644531 37.753906 32.410156 37.851562 33.179688 37.933594 Z M 33.179688 37.933594 "/>
</g>
<mask id="mask8">
  <g filter="url(#alpha)">
<rect x="0" y="0" width="50" height="50" style="fill:rgb(0%,0%,0%);fill-opacity:0.929412;stroke:none;"/>
  </g>
</mask>
<clipPath id="clip9">
  <rect width="50" height="50"/>
</clipPath>
<g id="surface30" clip-path="url(#clip9)">
<path style=" stroke:none;fill-rule:evenodd;fill:rgb(57.254902%,60.392157%,70.196078%);fill-opacity:1;" d="M 20.945312 40.332031 C 20.703125 41.710938 20.574219 43.101562 20.5625 44.503906 C 20.390625 44.296875 20.273438 44.054688 20.203125 43.785156 C 20.128906 43.40625 20.113281 43.019531 20.152344 42.632812 C 20.421875 41.863281 20.6875 41.097656 20.945312 40.332031 Z M 20.945312 40.332031 "/>
</g>
<mask id="mask9">
  <g filter="url(#alpha)">
<rect x="0" y="0" width="50" height="50" style="fill:rgb(0%,0%,0%);fill-opacity:0.913725;stroke:none;"/>
  </g>
</mask>
<clipPath id="clip10">
  <rect width="50" height="50"/>
</clipPath>
<g id="surface33" clip-path="url(#clip10)">
<path style=" stroke:none;fill-rule:evenodd;fill:rgb(57.254902%,60.392157%,70.196078%);fill-opacity:1;" d="M 31.117188 41.433594 C 31.375 41.996094 31.535156 42.589844 31.597656 43.210938 C 31.613281 43.679688 31.5 44.113281 31.261719 44.503906 C 31.203125 43.484375 31.15625 42.460938 31.117188 41.433594 Z M 31.117188 41.433594 "/>
</g>
</defs>
<g id="surface1">
<use xlink:href="#surface6" mask="url(#mask0)"/>
<use xlink:href="#surface9" mask="url(#mask1)"/>
<path style=" stroke:none;fill-rule:evenodd;fill:rgb(94.509804%,92.941176%,90.196078%);fill-opacity:1;" d="M 17.828125 6.789062 C 20.488281 6.882812 22.527344 8.050781 23.945312 10.292969 C 24.414062 11.054688 24.765625 11.871094 25 12.738281 C 25.175781 13.054688 25.4375 13.160156 25.792969 13.050781 C 25.875 13.027344 25.957031 12.996094 26.03125 12.957031 C 26.375 12.457031 26.734375 11.96875 27.109375 11.492188 C 28.472656 10.113281 30.035156 9.832031 31.789062 10.652344 C 32.34375 11.046875 32.558594 11.582031 32.4375 12.261719 C 32.375 12.664062 32.292969 13.0625 32.199219 13.460938 C 32.164062 13.636719 32.164062 13.8125 32.199219 13.988281 C 32.292969 14.148438 32.355469 14.328125 32.390625 14.515625 C 32.554688 14.769531 32.789062 14.859375 33.085938 14.777344 C 35.496094 13.179688 37.992188 13.039062 40.570312 14.347656 C 41.9375 15.171875 42.96875 16.296875 43.667969 17.730469 C 44.300781 19.484375 43.894531 20.949219 42.441406 22.121094 C 41.59375 22.761719 40.648438 23.207031 39.609375 23.464844 C 38.441406 23.738281 37.257812 23.929688 36.058594 24.039062 C 34.492188 24.113281 32.925781 24.195312 31.359375 24.28125 C 27.492188 24.664062 23.621094 24.933594 19.746094 25.097656 C 17.699219 25.128906 15.652344 25.128906 13.605469 25.097656 C 12.273438 25.027344 10.945312 24.933594 9.621094 24.808594 C 8.746094 23.914062 8.019531 22.914062 7.4375 21.808594 C 6.648438 20.117188 7.121094 18.925781 8.851562 18.234375 C 9.476562 18 10.117188 17.855469 10.773438 17.800781 C 11.003906 17.957031 11.238281 17.949219 11.46875 17.777344 C 11.539062 17.625 11.554688 17.464844 11.515625 17.296875 C 10.890625 15.503906 10.796875 13.679688 11.226562 11.828125 C 12.085938 9.242188 13.839844 7.617188 16.484375 6.957031 C 16.933594 6.875 17.382812 6.820312 17.828125 6.789062 Z M 17.828125 6.789062 "/>
<path style=" stroke:none;fill-rule:evenodd;fill:rgb(8.235294%,14.901961%,15.686275%);fill-opacity:1;" d="M 16.050781 8.757812 C 16.496094 8.761719 16.695312 8.988281 16.652344 9.429688 C 16.613281 9.515625 16.558594 9.585938 16.484375 9.644531 C 14.820312 10.625 13.964844 12.085938 13.914062 14.035156 C 13.574219 14.34375 13.351562 14.28125 13.242188 13.84375 C 13.144531 11.5625 14.078125 9.867188 16.050781 8.757812 Z M 16.050781 8.757812 "/>
<use xlink:href="#surface12" mask="url(#mask2)"/>
<path style=" stroke:none;fill-rule:evenodd;fill:rgb(8.235294%,14.901961%,15.686275%);fill-opacity:1;" d="M 39.5625 15.570312 C 40.027344 15.710938 40.417969 15.96875 40.738281 16.339844 C 41.46875 17.1875 41.726562 18.160156 41.507812 19.265625 C 41.398438 19.578125 41.183594 19.699219 40.859375 19.625 C 40.738281 19.570312 40.652344 19.480469 40.59375 19.363281 C 40.589844 18.765625 40.558594 18.175781 40.5 17.585938 C 40.296875 16.953125 39.929688 16.441406 39.394531 16.050781 C 39.328125 15.839844 39.382812 15.679688 39.5625 15.570312 Z M 39.5625 15.570312 "/>
<use xlink:href="#surface15" mask="url(#mask3)"/>
<use xlink:href="#surface18" mask="url(#mask4)"/>
<use xlink:href="#surface21" mask="url(#mask5)"/>
<use xlink:href="#surface24" mask="url(#mask6)"/>
<path style=" stroke:none;fill-rule:evenodd;fill:rgb(57.647059%,60.784314%,70.980392%);fill-opacity:1;" d="M 25.023438 26.65625 C 25.457031 26.601562 25.855469 26.6875 26.222656 26.917969 C 26.972656 27.507812 27.617188 28.1875 28.167969 28.957031 C 28.789062 29.804688 29.414062 30.652344 30.039062 31.5 C 31.558594 33.175781 33.070312 34.855469 34.574219 36.539062 C 33.367188 36.574219 32.15625 36.558594 30.949219 36.492188 C 30.78125 36.5 30.613281 36.507812 30.445312 36.515625 C 30.394531 36.5625 30.339844 36.601562 30.277344 36.636719 C 29.921875 36.535156 29.648438 36.648438 29.460938 36.972656 C 29.445312 38.605469 29.511719 40.238281 29.65625 41.867188 C 29.78125 42.695312 29.652344 43.476562 29.269531 44.21875 C 28.933594 44.605469 28.511719 44.839844 28 44.914062 C 26.925781 45.003906 25.851562 45.117188 24.785156 45.25 C 24 45.394531 23.28125 45.25 22.625 44.816406 C 22.40625 44.582031 22.304688 44.300781 22.3125 43.976562 C 22.246094 43.097656 22.230469 42.21875 22.265625 41.339844 C 22.394531 40.21875 22.539062 39.097656 22.695312 37.980469 C 22.738281 37.703125 22.722656 37.429688 22.648438 37.164062 C 22.535156 37.003906 22.382812 36.898438 22.191406 36.851562 C 20.113281 36.84375 18.03125 36.890625 15.953125 36.996094 C 16.3125 36.625 16.640625 36.234375 16.9375 35.820312 C 18.097656 34.140625 19.28125 32.476562 20.488281 30.832031 C 21.40625 29.597656 22.4375 28.472656 23.585938 27.445312 C 24.019531 27.09375 24.5 26.832031 25.023438 26.65625 Z M 25.023438 26.65625 "/>
<use xlink:href="#surface27" mask="url(#mask7)"/>
<path style=" stroke:none;fill-rule:evenodd;fill:rgb(7.843137%,14.509804%,15.294118%);fill-opacity:1;" d="M 24.207031 39.515625 C 24.585938 39.515625 24.808594 39.699219 24.878906 40.066406 C 24.722656 40.796875 24.554688 41.523438 24.375 42.25 C 24.296875 42.792969 24.214844 43.339844 24.136719 43.882812 C 23.875 44.101562 23.664062 44.054688 23.511719 43.738281 C 23.304688 42.324219 23.480469 40.964844 24.039062 39.660156 C 24.09375 39.605469 24.152344 39.558594 24.207031 39.515625 Z M 24.207031 39.515625 "/>
<use xlink:href="#surface30" mask="url(#mask8)"/>
<use xlink:href="#surface33" mask="url(#mask9)"/>
</g>
</svg>
