<?xml version="1.0" encoding="UTF-8"?>
<svg xmlns="http://www.w3.org/2000/svg" xmlns:xlink="http://www.w3.org/1999/xlink" width="50pt" height="50pt" viewBox="0 0 50 50" version="1.1">
<defs>
<filter id="alpha" filterUnits="objectBoundingBox" x="0%" y="0%" width="100%" height="100%">
  <feColorMatrix type="matrix" in="SourceGraphic" values="0 0 0 0 1 0 0 0 0 1 0 0 0 0 1 0 0 0 1 0"/>
</filter>
<mask id="mask0">
  <g filter="url(#alpha)">
<rect x="0" y="0" width="50" height="50" style="fill:rgb(0%,0%,0%);fill-opacity:0.980392;stroke:none;"/>
  </g>
</mask>
<clipPath id="clip1">
  <rect width="50" height="50"/>
</clipPath>
<g id="surface6" clip-path="url(#clip1)">
<path style=" stroke:none;fill-rule:evenodd;fill:rgb(66.27451%,22.745098%,17.647059%);fill-opacity:1;" d="M 41.492188 13.527344 C 41.34375 13.527344 41.199219 13.503906 41.058594 13.453125 C 41.027344 13.4375 40.996094 13.421875 40.960938 13.40625 C 40.9375 13.378906 40.90625 13.363281 40.867188 13.359375 C 40.769531 13.253906 40.671875 13.148438 40.578125 13.046875 C 40.351562 12.554688 40.441406 12.125 40.84375 11.761719 C 41.34375 11.472656 41.792969 11.53125 42.199219 11.941406 C 42.503906 12.429688 42.460938 12.882812 42.066406 13.296875 C 41.898438 13.433594 41.707031 13.511719 41.492188 13.527344 Z M 41.492188 13.527344 "/>
</g>
<mask id="mask1">
  <g filter="url(#alpha)">
<rect x="0" y="0" width="50" height="50" style="fill:rgb(0%,0%,0%);fill-opacity:0.988235;stroke:none;"/>
  </g>
</mask>
<clipPath id="clip2">
  <rect width="50" height="50"/>
</clipPath>
<g id="surface9" clip-path="url(#clip2)">
<path style=" stroke:none;fill-rule:evenodd;fill:rgb(66.27451%,23.137255%,18.039216%);fill-opacity:1;" d="M 7.71875 15.109375 C 7.605469 15.238281 7.484375 15.359375 7.355469 15.46875 C 7.339844 15.476562 7.324219 15.488281 7.308594 15.496094 C 7.09375 15.617188 6.871094 15.714844 6.636719 15.78125 C 6.527344 15.792969 6.425781 15.808594 6.324219 15.832031 C 5.332031 15.835938 4.671875 15.371094 4.34375 14.4375 C 4.128906 13.472656 4.4375 12.722656 5.269531 12.195312 C 6.210938 11.769531 7.03125 11.933594 7.730469 12.6875 C 8.292969 13.5 8.289062 14.308594 7.71875 15.109375 Z M 7.71875 15.109375 "/>
</g>
<mask id="mask2">
  <g filter="url(#alpha)">
<rect x="0" y="0" width="50" height="50" style="fill:rgb(0%,0%,0%);fill-opacity:0.980392;stroke:none;"/>
  </g>
</mask>
<clipPath id="clip3">
  <rect width="50" height="50"/>
</clipPath>
<g id="surface12" clip-path="url(#clip3)">
<path style=" stroke:none;fill-rule:evenodd;fill:rgb(0.392157%,0.392157%,0.392157%);fill-opacity:1;" d="M 25.359375 23.152344 C 25.988281 23.277344 26.601562 23.234375 27.207031 23.03125 C 27.859375 22.839844 28.5 22.621094 29.128906 22.371094 C 29.722656 21.777344 30.394531 21.289062 31.144531 20.90625 C 31.578125 20.691406 32.007812 20.476562 32.441406 20.257812 C 32.640625 20.148438 32.832031 20.027344 33.015625 19.898438 C 32.742188 19.332031 32.457031 18.765625 32.164062 18.207031 C 32.074219 18.050781 31.992188 17.890625 31.914062 17.726562 C 31.832031 17.675781 31.773438 17.699219 31.734375 17.800781 C 31.617188 18.242188 31.5 18.679688 31.371094 19.117188 C 31.257812 19.398438 31.054688 19.558594 30.761719 19.597656 C 30.507812 19.582031 30.3125 19.472656 30.171875 19.261719 C 29.917969 18.785156 29.765625 18.269531 29.714844 17.726562 C 29.695312 17.324219 29.703125 16.925781 29.742188 16.527344 C 29.84375 15.84375 29.984375 15.171875 30.171875 14.511719 C 30.40625 13.984375 30.808594 13.683594 31.386719 13.609375 C 31.535156 13.59375 31.6875 13.59375 31.839844 13.609375 C 32.042969 13.648438 32.199219 13.757812 32.308594 13.933594 C 32.429688 14.261719 32.628906 14.539062 32.898438 14.761719 C 33.128906 14.9375 33.351562 15.121094 33.570312 15.3125 C 34.226562 15.996094 34.90625 16.652344 35.609375 17.28125 C 35.835938 17.527344 36.066406 17.765625 36.304688 18.003906 C 36.429688 18.101562 36.558594 18.191406 36.691406 18.277344 C 36.9375 17.984375 37.175781 17.683594 37.398438 17.367188 C 38.148438 16.304688 38.910156 15.246094 39.679688 14.199219 C 39.972656 13.808594 40.273438 13.425781 40.578125 13.046875 C 40.671875 13.148438 40.769531 13.253906 40.867188 13.359375 C 39.773438 14.800781 38.722656 16.269531 37.710938 17.773438 C 37.550781 18.003906 37.382812 18.230469 37.207031 18.445312 C 37.273438 18.644531 37.199219 18.742188 36.976562 18.746094 C 36.691406 19.117188 36.332031 19.390625 35.898438 19.5625 C 35.269531 19.792969 34.628906 19.984375 33.976562 20.140625 C 33.839844 20.183594 33.703125 20.230469 33.570312 20.285156 C 32.800781 20.667969 32.03125 21.050781 31.265625 21.433594 C 30.78125 21.703125 30.328125 22.019531 29.910156 22.382812 C 29.894531 22.457031 29.859375 22.515625 29.800781 22.5625 C 29.671875 22.640625 29.546875 22.722656 29.429688 22.816406 C 29.015625 23.632812 28.824219 24.496094 28.851562 25.40625 C 28.886719 25.625 28.925781 25.839844 28.972656 26.054688 C 29.191406 26.734375 29.421875 27.40625 29.667969 28.074219 C 30.15625 29.0625 30.910156 29.761719 31.9375 30.171875 C 32.75 30.515625 33.597656 30.714844 34.480469 30.773438 C 35.105469 30.789062 35.730469 30.789062 36.355469 30.773438 C 36.554688 30.75 36.753906 30.71875 36.953125 30.675781 C 37.445312 30.539062 37.941406 30.410156 38.441406 30.292969 C 39.792969 29.925781 40.933594 29.222656 41.863281 28.191406 C 42.332031 27.664062 42.628906 27.046875 42.75 26.34375 C 42.84375 25.847656 42.785156 25.367188 42.582031 24.902344 C 42.457031 24.636719 42.3125 24.378906 42.152344 24.136719 C 41.902344 23.910156 41.675781 23.660156 41.480469 23.390625 C 41.453125 23.320312 41.445312 23.25 41.453125 23.175781 C 41.511719 23.070312 41.589844 22.976562 41.683594 22.898438 C 41.945312 22.71875 42.21875 22.550781 42.5 22.394531 C 42.933594 22.0625 43.335938 21.691406 43.699219 21.28125 C 43.714844 21.28125 43.722656 21.269531 43.722656 21.253906 C 43.738281 21.253906 43.746094 21.246094 43.746094 21.230469 C 43.761719 21.230469 43.769531 21.222656 43.769531 21.207031 C 43.785156 21.207031 43.796875 21.199219 43.796875 21.183594 C 43.8125 21.183594 43.820312 21.175781 43.820312 21.160156 C 43.835938 21.160156 43.84375 21.152344 43.84375 21.136719 C 43.859375 21.136719 43.867188 21.128906 43.867188 21.113281 C 44.027344 20.96875 44.171875 20.820312 44.3125 20.65625 C 44.472656 20.472656 44.621094 20.28125 44.753906 20.078125 C 44.769531 20.078125 44.777344 20.070312 44.777344 20.054688 C 44.820312 20.035156 44.84375 20.003906 44.851562 19.960938 C 44.867188 19.960938 44.875 19.953125 44.875 19.933594 C 44.910156 19.925781 44.925781 19.898438 44.921875 19.863281 C 44.9375 19.863281 44.945312 19.855469 44.945312 19.839844 C 44.964844 19.839844 44.972656 19.832031 44.972656 19.816406 C 44.980469 19.800781 44.988281 19.78125 44.996094 19.765625 C 45.011719 19.765625 45.019531 19.757812 45.019531 19.742188 C 45.035156 19.742188 45.042969 19.734375 45.042969 19.71875 C 45.839844 18.652344 46.34375 17.460938 46.554688 16.144531 C 46.722656 16.164062 46.890625 16.171875 47.058594 16.167969 C 46.867188 17.578125 46.367188 18.863281 45.558594 20.03125 C 44.777344 21.160156 43.835938 22.140625 42.738281 22.972656 C 42.554688 23.089844 42.363281 23.191406 42.164062 23.285156 C 42.453125 23.542969 42.691406 23.84375 42.871094 24.183594 C 43.09375 24.585938 43.253906 25.007812 43.351562 25.457031 C 43.441406 26.617188 43.105469 27.632812 42.34375 28.503906 C 41.828125 29.121094 41.226562 29.632812 40.53125 30.027344 C 39.9375 30.34375 39.324219 30.601562 38.683594 30.796875 C 37.925781 31.03125 37.15625 31.210938 36.378906 31.335938 C 36.335938 31.320312 36.285156 31.3125 36.234375 31.3125 C 35.855469 31.328125 35.476562 31.34375 35.105469 31.359375 C 33.613281 31.339844 32.214844 30.972656 30.90625 30.269531 C 30.289062 29.871094 29.800781 29.355469 29.441406 28.71875 C 29.207031 28.273438 29.015625 27.808594 28.863281 27.328125 C 28.648438 26.789062 28.492188 26.226562 28.398438 25.648438 C 28.382812 25.519531 28.378906 25.390625 28.382812 25.265625 C 28.390625 25.109375 28.390625 24.957031 28.382812 24.808594 C 28.046875 24.917969 27.71875 25.046875 27.398438 25.191406 C 27.15625 25.257812 26.910156 25.300781 26.65625 25.324219 C 25.875 25.398438 25.117188 25.320312 24.375 25.085938 C 24.769531 25.988281 24.8125 26.914062 24.507812 27.855469 C 24.308594 28.519531 24.011719 29.136719 23.621094 29.703125 C 23.253906 30.160156 22.832031 30.554688 22.359375 30.894531 C 21.9375 31.191406 21.515625 31.480469 21.085938 31.769531 C 21.050781 31.765625 21.027344 31.785156 21.015625 31.816406 C 20.125 32.394531 19.175781 32.832031 18.160156 33.136719 C 17.167969 33.40625 16.160156 33.46875 15.132812 33.316406 C 13.882812 33.125 12.707031 32.722656 11.605469 32.105469 C 11.386719 31.953125 11.160156 31.804688 10.933594 31.660156 C 10.671875 31.453125 10.414062 31.242188 10.164062 31.023438 C 9.355469 30.253906 8.921875 29.304688 8.871094 28.179688 C 8.878906 27.726562 8.96875 27.292969 9.144531 26.871094 C 9.261719 26.605469 9.367188 26.332031 9.457031 26.054688 C 9.476562 26.015625 9.472656 25.972656 9.445312 25.9375 C 9.148438 25.898438 8.855469 25.859375 8.558594 25.828125 C 8.378906 25.804688 8.203125 25.761719 8.027344 25.707031 C 6.617188 25.238281 5.222656 24.71875 3.851562 24.148438 C 3.308594 23.910156 2.851562 23.5625 2.472656 23.105469 C 2.398438 23.007812 2.339844 22.902344 2.292969 22.792969 C 2.566406 22.910156 2.835938 22.902344 3.109375 22.769531 C 3.425781 23.113281 3.804688 23.382812 4.238281 23.570312 C 5.601562 24.125 6.988281 24.628906 8.390625 25.085938 C 8.851562 25.167969 9.316406 25.230469 9.78125 25.277344 C 9.996094 25.273438 10.136719 25.375 10.203125 25.574219 C 10.210938 25.855469 10.171875 26.128906 10.082031 26.390625 C 9.890625 26.859375 9.714844 27.332031 9.554688 27.808594 C 9.464844 28.238281 9.480469 28.660156 9.601562 29.082031 C 9.878906 29.820312 10.320312 30.441406 10.933594 30.941406 C 12.765625 32.359375 14.835938 32.96875 17.152344 32.765625 C 18.457031 32.53125 19.667969 32.050781 20.773438 31.324219 C 21.378906 30.921875 21.964844 30.488281 22.527344 30.027344 C 23.671875 28.96875 24.203125 27.660156 24.125 26.105469 C 24.054688 25.726562 23.921875 25.375 23.726562 25.046875 C 23.726562 25.03125 23.71875 25.023438 23.703125 25.023438 C 23.695312 25.007812 23.6875 24.992188 23.679688 24.976562 C 23.679688 24.960938 23.671875 24.953125 23.65625 24.953125 C 23.65625 24.945312 23.65625 24.9375 23.65625 24.929688 C 23.65625 24.910156 23.648438 24.902344 23.632812 24.902344 C 23.632812 24.886719 23.625 24.878906 23.609375 24.878906 C 23.609375 24.871094 23.609375 24.863281 23.609375 24.855469 C 23.609375 24.839844 23.601562 24.832031 23.582031 24.832031 C 23.582031 24.824219 23.582031 24.816406 23.582031 24.808594 C 23.582031 24.792969 23.574219 24.785156 23.558594 24.785156 C 23.558594 24.769531 23.550781 24.761719 23.535156 24.761719 C 23.539062 24.734375 23.53125 24.71875 23.511719 24.710938 C 23.511719 24.695312 23.503906 24.6875 23.488281 24.6875 C 23.492188 24.664062 23.484375 24.648438 23.464844 24.640625 C 23.464844 24.625 23.457031 24.617188 23.441406 24.617188 C 23.445312 24.59375 23.4375 24.574219 23.414062 24.566406 C 23.414062 24.550781 23.40625 24.542969 23.390625 24.542969 C 23.390625 24.527344 23.382812 24.519531 23.367188 24.519531 C 23.367188 24.511719 23.367188 24.503906 23.367188 24.496094 C 23.367188 24.480469 23.359375 24.472656 23.34375 24.472656 C 23.34375 24.457031 23.335938 24.449219 23.320312 24.449219 C 23.320312 24.433594 23.3125 24.425781 23.296875 24.425781 C 23.296875 24.414062 23.296875 24.40625 23.296875 24.398438 C 23.296875 24.382812 23.289062 24.375 23.273438 24.375 C 23.273438 24.359375 23.265625 24.351562 23.246094 24.351562 C 23.246094 24.335938 23.238281 24.328125 23.222656 24.328125 C 23.214844 24.3125 23.207031 24.296875 23.199219 24.28125 C 23.199219 24.265625 23.191406 24.257812 23.175781 24.257812 C 23.175781 24.238281 23.167969 24.230469 23.152344 24.230469 C 22.285156 23.175781 21.269531 22.300781 20.101562 21.601562 C 19.367188 21.183594 18.574219 20.996094 17.726562 21.050781 C 17.488281 21.074219 17.253906 21.128906 17.03125 21.21875 C 16.769531 21.269531 16.625 21.160156 16.597656 20.894531 C 15.96875 20.738281 15.335938 20.589844 14.703125 20.453125 C 13.683594 20.128906 12.71875 19.699219 11.796875 19.15625 C 10.152344 18.203125 8.699219 17.015625 7.429688 15.589844 C 7.398438 15.554688 7.375 15.515625 7.355469 15.46875 C 7.484375 15.359375 7.605469 15.238281 7.71875 15.109375 C 8.078125 15.570312 8.46875 16.007812 8.894531 16.417969 C 10.320312 17.753906 11.921875 18.832031 13.707031 19.648438 C 14.105469 19.09375 14.5 18.535156 14.882812 17.96875 C 15.667969 16.519531 16.621094 15.191406 17.738281 13.980469 C 18.238281 13.464844 18.738281 12.949219 19.238281 12.433594 C 19.492188 12.253906 19.742188 12.261719 19.984375 12.457031 C 20.199219 12.6875 20.394531 12.933594 20.570312 13.191406 C 21.121094 13.699219 21.378906 14.328125 21.339844 15.085938 C 21.371094 15.757812 21.378906 16.429688 21.363281 17.101562 C 21.339844 17.535156 21.269531 17.960938 21.148438 18.375 C 20.992188 18.824219 20.683594 19 20.222656 18.890625 C 19.890625 18.757812 19.664062 18.523438 19.539062 18.183594 C 19.457031 17.949219 19.398438 17.710938 19.371094 17.460938 C 19.367188 17.140625 19.34375 16.820312 19.300781 16.503906 C 19.089844 16.6875 18.921875 16.902344 18.796875 17.152344 C 18.238281 18.269531 17.6875 19.394531 17.152344 20.523438 C 18.144531 20.371094 19.09375 20.507812 20.007812 20.929688 C 20.859375 21.339844 21.625 21.867188 22.3125 22.515625 C 22.714844 22.722656 23.136719 22.867188 23.582031 22.949219 C 24.175781 23.027344 24.765625 23.09375 25.359375 23.152344 Z M 41.777344 17.941406 C 41.6875 18.175781 41.558594 18.382812 41.394531 18.566406 C 41.511719 18.351562 41.640625 18.144531 41.777344 17.941406 Z M 41.394531 18.566406 C 41.394531 18.605469 41.378906 18.628906 41.347656 18.640625 C 41.34375 18.601562 41.359375 18.578125 41.394531 18.566406 Z M 44.921875 19.863281 C 44.925781 19.898438 44.910156 19.925781 44.875 19.933594 C 44.875 19.898438 44.890625 19.875 44.921875 19.863281 Z M 44.851562 19.960938 C 44.84375 20.003906 44.820312 20.035156 44.777344 20.054688 C 44.785156 20.007812 44.808594 19.976562 44.851562 19.960938 Z M 44.753906 20.078125 C 44.621094 20.28125 44.472656 20.472656 44.3125 20.65625 C 44.171875 20.820312 44.027344 20.96875 43.867188 21.113281 C 44.15625 20.761719 44.449219 20.417969 44.753906 20.078125 Z M 44.753906 20.078125 "/>
</g>
<mask id="mask3">
  <g filter="url(#alpha)">
<rect x="0" y="0" width="50" height="50" style="fill:rgb(0%,0%,0%);fill-opacity:0.988235;stroke:none;"/>
  </g>
</mask>
<clipPath id="clip4">
  <rect width="50" height="50"/>
</clipPath>
<g id="surface15" clip-path="url(#clip4)">
<path style=" stroke:none;fill-rule:evenodd;fill:rgb(66.27451%,22.745098%,17.647059%);fill-opacity:1;" d="M 47.058594 16.167969 C 46.890625 16.171875 46.722656 16.164062 46.554688 16.144531 C 46.453125 16.117188 46.347656 16.085938 46.242188 16.046875 C 46.105469 15.988281 45.980469 15.914062 45.859375 15.832031 C 45.242188 15.238281 45.125 14.558594 45.511719 13.789062 C 46.015625 13.09375 46.675781 12.890625 47.492188 13.179688 C 48.171875 13.535156 48.472656 14.097656 48.390625 14.871094 C 48.226562 15.589844 47.785156 16.023438 47.058594 16.167969 Z M 47.058594 16.167969 "/>
</g>
<mask id="mask4">
  <g filter="url(#alpha)">
<rect x="0" y="0" width="50" height="50" style="fill:rgb(0%,0%,0%);fill-opacity:0.972549;stroke:none;"/>
  </g>
</mask>
<clipPath id="clip5">
  <rect width="50" height="50"/>
</clipPath>
<g id="surface18" clip-path="url(#clip5)">
<path style=" stroke:none;fill-rule:evenodd;fill:rgb(0.784314%,0.784314%,0.784314%);fill-opacity:1;" d="M 41.058594 13.453125 C 41.199219 13.503906 41.34375 13.527344 41.492188 13.527344 C 41.371094 14.195312 41.199219 14.851562 40.972656 15.496094 C 40.808594 15.902344 40.597656 16.285156 40.351562 16.648438 C 39.65625 17.542969 38.984375 18.457031 38.347656 19.394531 C 38.535156 19.421875 38.722656 19.398438 38.898438 19.324219 C 39.460938 19.078125 39.980469 18.765625 40.457031 18.386719 C 40.78125 18.097656 41.101562 17.808594 41.417969 17.511719 C 41.523438 17.597656 41.617188 17.695312 41.707031 17.800781 C 41.324219 18.191406 40.925781 18.566406 40.507812 18.914062 C 39.960938 19.339844 39.351562 19.652344 38.683594 19.851562 C 38.515625 19.867188 38.347656 19.867188 38.179688 19.851562 C 38.074219 19.816406 37.980469 19.769531 37.890625 19.707031 C 37.839844 19.652344 37.808594 19.589844 37.792969 19.515625 C 37.890625 19.238281 38.023438 18.976562 38.191406 18.734375 C 38.902344 17.828125 39.601562 16.90625 40.277344 15.972656 C 40.65625 15.230469 40.898438 14.449219 41.011719 13.621094 C 41.039062 13.570312 41.054688 13.515625 41.058594 13.453125 Z M 41.058594 13.453125 "/>
</g>
<mask id="mask5">
  <g filter="url(#alpha)">
<rect x="0" y="0" width="50" height="50" style="fill:rgb(0%,0%,0%);fill-opacity:0.972549;stroke:none;"/>
  </g>
</mask>
<clipPath id="clip6">
  <rect width="50" height="50"/>
</clipPath>
<g id="surface21" clip-path="url(#clip6)">
<path style=" stroke:none;fill-rule:evenodd;fill:rgb(0.784314%,0.784314%,0.784314%);fill-opacity:1;" d="M 6.636719 15.78125 C 6.679688 15.957031 6.714844 16.132812 6.746094 16.3125 C 6.996094 17.152344 7.308594 17.964844 7.679688 18.757812 C 8.027344 19.558594 8.5 20.269531 9.097656 20.894531 C 9.269531 21.113281 9.40625 21.355469 9.503906 21.617188 C 9.566406 21.742188 9.554688 21.855469 9.46875 21.964844 C 9.070312 22.148438 8.660156 22.164062 8.246094 22.011719 C 7.828125 21.855469 7.4375 21.65625 7.070312 21.410156 C 6.644531 21.105469 6.210938 20.808594 5.773438 20.523438 C 5.355469 20.207031 4.953125 19.863281 4.574219 19.503906 C 4.714844 19.347656 4.816406 19.171875 4.886719 18.976562 C 5.296875 19.359375 5.722656 19.730469 6.15625 20.089844 C 6.640625 20.441406 7.128906 20.785156 7.621094 21.125 C 7.960938 21.347656 8.328125 21.507812 8.726562 21.601562 C 8.828125 21.621094 8.933594 21.621094 9.039062 21.601562 C 8.980469 21.464844 8.910156 21.335938 8.832031 21.207031 C 8.253906 20.476562 7.765625 19.683594 7.371094 18.832031 C 7.03125 18.078125 6.734375 17.3125 6.480469 16.527344 C 6.417969 16.296875 6.367188 16.066406 6.324219 15.832031 C 6.425781 15.808594 6.527344 15.792969 6.636719 15.78125 Z M 6.636719 15.78125 "/>
</g>
<mask id="mask6">
  <g filter="url(#alpha)">
<rect x="0" y="0" width="50" height="50" style="fill:rgb(0%,0%,0%);fill-opacity:0.976471;stroke:none;"/>
  </g>
</mask>
<clipPath id="clip7">
  <rect width="50" height="50"/>
</clipPath>
<g id="surface24" clip-path="url(#clip7)">
<path style=" stroke:none;fill-rule:evenodd;fill:rgb(1.176471%,1.176471%,1.176471%);fill-opacity:1;" d="M 45.859375 15.832031 C 45.980469 15.914062 46.105469 15.988281 46.242188 16.046875 C 45.574219 17.136719 44.796875 18.148438 43.914062 19.082031 C 43.332031 19.65625 42.660156 20.09375 41.898438 20.402344 C 41.28125 20.597656 40.675781 20.574219 40.074219 20.332031 C 40.027344 20.289062 40.003906 20.238281 40.003906 20.175781 C 40.019531 20.085938 40.054688 20.007812 40.109375 19.933594 C 40.460938 19.609375 40.804688 19.273438 41.144531 18.925781 C 41.191406 18.867188 41.234375 18.800781 41.273438 18.734375 C 41.289062 18.734375 41.296875 18.726562 41.296875 18.710938 C 41.316406 18.710938 41.324219 18.703125 41.324219 18.6875 C 41.324219 18.679688 41.324219 18.671875 41.324219 18.664062 C 41.339844 18.664062 41.347656 18.65625 41.347656 18.640625 C 41.378906 18.628906 41.394531 18.605469 41.394531 18.566406 C 41.558594 18.382812 41.6875 18.175781 41.777344 17.941406 C 41.800781 17.933594 41.808594 17.917969 41.800781 17.894531 C 41.820312 17.894531 41.828125 17.886719 41.828125 17.871094 C 41.828125 17.863281 41.828125 17.855469 41.828125 17.847656 C 41.953125 17.894531 42.082031 17.925781 42.210938 17.941406 C 41.90625 18.613281 41.472656 19.191406 40.914062 19.683594 C 40.777344 19.8125 40.632812 19.933594 40.484375 20.042969 C 40.449219 20.058594 40.449219 20.074219 40.484375 20.089844 C 40.839844 20.191406 41.199219 20.199219 41.5625 20.113281 C 42.285156 19.804688 42.933594 19.382812 43.507812 18.855469 C 44.402344 17.96875 45.171875 16.984375 45.8125 15.902344 C 45.84375 15.890625 45.859375 15.867188 45.859375 15.832031 Z M 45.859375 15.832031 "/>
</g>
<mask id="mask7">
  <g filter="url(#alpha)">
<rect x="0" y="0" width="50" height="50" style="fill:rgb(0%,0%,0%);fill-opacity:0.87451;stroke:none;"/>
  </g>
</mask>
<clipPath id="clip8">
  <rect width="50" height="50"/>
</clipPath>
<g id="surface27" clip-path="url(#clip8)">
<path style=" stroke:none;fill-rule:evenodd;fill:rgb(66.27451%,66.27451%,66.27451%);fill-opacity:1;" d="M 45.859375 15.832031 C 45.859375 15.867188 45.84375 15.890625 45.8125 15.902344 C 45.808594 15.867188 45.824219 15.84375 45.859375 15.832031 Z M 45.859375 15.832031 "/>
</g>
<mask id="mask8">
  <g filter="url(#alpha)">
<rect x="0" y="0" width="50" height="50" style="fill:rgb(0%,0%,0%);fill-opacity:0.847059;stroke:none;"/>
  </g>
</mask>
<clipPath id="clip9">
  <rect width="50" height="50"/>
</clipPath>
<g id="surface30" clip-path="url(#clip9)">
<path style=" stroke:none;fill-rule:evenodd;fill:rgb(95.686275%,95.686275%,95.686275%);fill-opacity:1;" d="M 45.8125 15.902344 C 45.171875 16.984375 44.402344 17.96875 43.507812 18.855469 C 44.1875 17.980469 44.863281 17.101562 45.535156 16.214844 C 45.625 16.105469 45.714844 16 45.8125 15.902344 Z M 45.8125 15.902344 "/>
</g>
<mask id="mask9">
  <g filter="url(#alpha)">
<rect x="0" y="0" width="50" height="50" style="fill:rgb(0%,0%,0%);fill-opacity:0.980392;stroke:none;"/>
  </g>
</mask>
<clipPath id="clip10">
  <rect width="50" height="50"/>
</clipPath>
<g id="surface33" clip-path="url(#clip10)">
<path style=" stroke:none;fill-rule:evenodd;fill:rgb(66.27451%,22.745098%,17.647059%);fill-opacity:1;" d="M 42.210938 17.941406 C 42.082031 17.925781 41.953125 17.894531 41.828125 17.847656 C 41.796875 17.8125 41.757812 17.796875 41.707031 17.800781 C 41.617188 17.695312 41.523438 17.597656 41.417969 17.511719 C 41.199219 17.054688 41.273438 16.648438 41.632812 16.296875 C 42.097656 16.007812 42.523438 16.050781 42.917969 16.429688 C 43.226562 16.902344 43.179688 17.339844 42.785156 17.738281 C 42.613281 17.867188 42.421875 17.933594 42.210938 17.941406 Z M 42.210938 17.941406 "/>
</g>
<mask id="mask10">
  <g filter="url(#alpha)">
<rect x="0" y="0" width="50" height="50" style="fill:rgb(0%,0%,0%);fill-opacity:0.984314;stroke:none;"/>
  </g>
</mask>
<clipPath id="clip11">
  <rect width="50" height="50"/>
</clipPath>
<g id="surface36" clip-path="url(#clip11)">
<path style=" stroke:none;fill-rule:evenodd;fill:rgb(66.27451%,22.745098%,17.647059%);fill-opacity:1;" d="M 4.886719 18.976562 C 4.816406 19.171875 4.714844 19.347656 4.574219 19.503906 C 4.519531 19.519531 4.476562 19.550781 4.453125 19.597656 C 4.429688 19.59375 4.414062 19.601562 4.40625 19.625 C 4.257812 19.664062 4.109375 19.695312 3.960938 19.71875 C 3.867188 19.714844 3.773438 19.699219 3.683594 19.671875 C 3.261719 19.527344 3.039062 19.230469 3.011719 18.78125 C 3.0625 18.199219 3.378906 17.886719 3.960938 17.847656 C 4.398438 17.859375 4.691406 18.066406 4.847656 18.472656 C 4.882812 18.636719 4.894531 18.804688 4.886719 18.976562 Z M 4.886719 18.976562 "/>
</g>
<mask id="mask11">
  <g filter="url(#alpha)">
<rect x="0" y="0" width="50" height="50" style="fill:rgb(0%,0%,0%);fill-opacity:0.984314;stroke:none;"/>
  </g>
</mask>
<clipPath id="clip12">
  <rect width="50" height="50"/>
</clipPath>
<g id="surface39" clip-path="url(#clip12)">
<path style=" stroke:none;fill-rule:evenodd;fill:rgb(0.392157%,0.392157%,0.392157%);fill-opacity:1;" d="M 4.40625 19.625 C 4.441406 19.714844 4.5 19.796875 4.574219 19.863281 C 4.589844 19.863281 4.597656 19.871094 4.597656 19.886719 C 4.597656 19.894531 4.597656 19.902344 4.597656 19.910156 C 4.613281 19.910156 4.621094 19.917969 4.621094 19.933594 C 4.773438 20.144531 4.925781 20.355469 5.089844 20.558594 C 5.539062 21.257812 5.996094 21.957031 6.457031 22.648438 C 6.554688 22.832031 6.636719 23.023438 6.695312 23.222656 C 6.71875 23.363281 6.703125 23.5 6.648438 23.632812 C 6.46875 23.816406 6.246094 23.882812 5.988281 23.835938 C 5.707031 23.769531 5.433594 23.671875 5.171875 23.546875 C 4.539062 23.230469 3.90625 22.914062 3.277344 22.601562 C 3.414062 22.40625 3.46875 22.191406 3.445312 21.953125 C 4.140625 22.265625 4.828125 22.597656 5.507812 22.949219 C 5.625 23.007812 5.746094 23.046875 5.867188 23.066406 C 5.308594 22.066406 4.679688 21.109375 3.984375 20.199219 C 3.871094 20.03125 3.769531 19.855469 3.683594 19.671875 C 3.773438 19.699219 3.867188 19.714844 3.960938 19.71875 C 4.109375 19.695312 4.257812 19.664062 4.40625 19.625 Z M 4.40625 19.625 "/>
</g>
<mask id="mask12">
  <g filter="url(#alpha)">
<rect x="0" y="0" width="50" height="50" style="fill:rgb(0%,0%,0%);fill-opacity:0.980392;stroke:none;"/>
  </g>
</mask>
<clipPath id="clip13">
  <rect width="50" height="50"/>
</clipPath>
<g id="surface42" clip-path="url(#clip13)">
<path style=" stroke:none;fill-rule:evenodd;fill:rgb(66.27451%,22.745098%,17.647059%);fill-opacity:1;" d="M 3.445312 21.953125 C 3.46875 22.191406 3.414062 22.40625 3.277344 22.601562 C 3.210938 22.648438 3.15625 22.703125 3.109375 22.769531 C 2.835938 22.902344 2.566406 22.910156 2.292969 22.792969 C 1.914062 22.5625 1.792969 22.234375 1.921875 21.808594 C 2.144531 21.371094 2.492188 21.222656 2.964844 21.363281 C 3.222656 21.476562 3.382812 21.675781 3.445312 21.953125 Z M 3.445312 21.953125 "/>
</g>
<mask id="mask13">
  <g filter="url(#alpha)">
<rect x="0" y="0" width="50" height="50" style="fill:rgb(0%,0%,0%);fill-opacity:0.858824;stroke:none;"/>
  </g>
</mask>
<clipPath id="clip14">
  <rect width="50" height="50"/>
</clipPath>
<g id="surface45" clip-path="url(#clip14)">
<path style=" stroke:none;fill-rule:evenodd;fill:rgb(56.862745%,51.372549%,53.333333%);fill-opacity:1;" d="M 27.207031 23.03125 C 26.601562 23.234375 25.988281 23.277344 25.359375 23.152344 C 25.976562 23.136719 26.59375 23.097656 27.207031 23.03125 Z M 27.207031 23.03125 "/>
</g>
<mask id="mask14">
  <g filter="url(#alpha)">
<rect x="0" y="0" width="50" height="50" style="fill:rgb(0%,0%,0%);fill-opacity:0.960784;stroke:none;"/>
  </g>
</mask>
<clipPath id="clip15">
  <rect width="50" height="50"/>
</clipPath>
<g id="surface48" clip-path="url(#clip15)">
<path style=" stroke:none;fill-rule:evenodd;fill:rgb(61.176471%,55.686275%,57.647059%);fill-opacity:1;" d="M 28.382812 25.265625 C 28.058594 25.234375 27.730469 25.210938 27.398438 25.191406 C 27.71875 25.046875 28.046875 24.917969 28.382812 24.808594 C 28.390625 24.957031 28.390625 25.109375 28.382812 25.265625 Z M 28.382812 25.265625 "/>
</g>
<mask id="mask15">
  <g filter="url(#alpha)">
<rect x="0" y="0" width="50" height="50" style="fill:rgb(0%,0%,0%);fill-opacity:0.721569;stroke:none;"/>
  </g>
</mask>
<clipPath id="clip16">
  <rect width="50" height="50"/>
</clipPath>
<g id="surface51" clip-path="url(#clip16)">
<path style=" stroke:none;fill-rule:evenodd;fill:rgb(92.54902%,92.54902%,92.54902%);fill-opacity:1;" d="M 28.863281 27.328125 C 29.015625 27.808594 29.207031 28.273438 29.441406 28.71875 C 29.128906 28.308594 28.9375 27.84375 28.863281 27.328125 Z M 28.863281 27.328125 "/>
</g>
<mask id="mask16">
  <g filter="url(#alpha)">
<rect x="0" y="0" width="50" height="50" style="fill:rgb(0%,0%,0%);fill-opacity:0.686275;stroke:none;"/>
  </g>
</mask>
<clipPath id="clip17">
  <rect width="50" height="50"/>
</clipPath>
<g id="surface54" clip-path="url(#clip17)">
<path style=" stroke:none;fill-rule:evenodd;fill:rgb(90.588235%,90.588235%,90.588235%);fill-opacity:1;" d="M 10.164062 31.023438 C 10.414062 31.242188 10.671875 31.453125 10.933594 31.660156 C 11.160156 31.804688 11.386719 31.953125 11.605469 32.105469 C 11.039062 31.859375 10.558594 31.5 10.164062 31.023438 Z M 10.164062 31.023438 "/>
</g>
<mask id="mask17">
  <g filter="url(#alpha)">
<rect x="0" y="0" width="50" height="50" style="fill:rgb(0%,0%,0%);fill-opacity:0.0627451;stroke:none;"/>
  </g>
</mask>
<clipPath id="clip18">
  <rect width="50" height="50"/>
</clipPath>
<g id="surface57" clip-path="url(#clip18)">
<path style=" stroke:none;fill-rule:evenodd;fill:rgb(90.980392%,90.980392%,90.980392%);fill-opacity:1;" d="M 21.085938 31.769531 C 21.074219 31.804688 21.050781 31.820312 21.015625 31.816406 C 21.027344 31.785156 21.050781 31.765625 21.085938 31.769531 Z M 21.085938 31.769531 "/>
</g>
<mask id="mask18">
  <g filter="url(#alpha)">
<rect x="0" y="0" width="50" height="50" style="fill:rgb(0%,0%,0%);fill-opacity:0.780392;stroke:none;"/>
  </g>
</mask>
<clipPath id="clip19">
  <rect width="50" height="50"/>
</clipPath>
<g id="surface60" clip-path="url(#clip19)">
<path style=" stroke:none;fill-rule:evenodd;fill:rgb(93.333333%,93.333333%,93.333333%);fill-opacity:1;" d="M 21.015625 31.816406 C 20.179688 32.5 19.230469 32.941406 18.160156 33.136719 C 19.175781 32.832031 20.125 32.394531 21.015625 31.816406 Z M 21.015625 31.816406 "/>
</g>
</defs>
<g id="surface1">
<use xlink:href="#surface6" mask="url(#mask0)"/>
<use xlink:href="#surface9" mask="url(#mask1)"/>
<use xlink:href="#surface12" mask="url(#mask2)"/>
<path style=" stroke:none;fill-rule:evenodd;fill:rgb(62.745098%,56.862745%,58.823529%);fill-opacity:1;" d="M 19.527344 12.757812 C 19.585938 12.753906 19.644531 12.765625 19.695312 12.792969 C 19.761719 12.863281 19.832031 12.929688 19.898438 13 C 20.097656 13.273438 20.3125 13.539062 20.546875 13.789062 C 20.707031 14.015625 20.8125 14.261719 20.859375 14.535156 C 20.972656 15.566406 20.964844 16.597656 20.835938 17.628906 C 20.796875 17.859375 20.722656 18.074219 20.621094 18.277344 C 20.566406 18.371094 20.492188 18.40625 20.390625 18.386719 C 20.21875 18.238281 20.101562 18.046875 20.042969 17.824219 C 19.996094 17.683594 19.964844 17.539062 19.945312 17.390625 C 19.941406 17.09375 19.925781 16.796875 19.898438 16.503906 C 19.886719 16.253906 19.777344 16.066406 19.574219 15.9375 C 19.464844 15.902344 19.351562 15.894531 19.238281 15.914062 C 18.882812 16.054688 18.605469 16.292969 18.410156 16.621094 C 17.71875 17.921875 17.058594 19.234375 16.429688 20.558594 C 15.617188 20.335938 14.800781 20.121094 13.980469 19.910156 C 14.070312 19.699219 14.203125 19.515625 14.378906 19.359375 C 14.972656 18.585938 15.511719 17.769531 15.988281 16.910156 C 16.59375 15.984375 17.273438 15.113281 18.027344 14.292969 C 18.523438 13.777344 19.023438 13.265625 19.527344 12.757812 Z M 19.527344 12.757812 "/>
<use xlink:href="#surface15" mask="url(#mask3)"/>
<path style=" stroke:none;fill-rule:evenodd;fill:rgb(99.607843%,99.607843%,99.607843%);fill-opacity:1;" d="M 40.867188 13.359375 C 40.90625 13.363281 40.9375 13.378906 40.960938 13.40625 C 40.972656 13.484375 40.988281 13.554688 41.011719 13.621094 C 40.898438 14.449219 40.65625 15.230469 40.277344 15.972656 C 39.601562 16.90625 38.902344 17.828125 38.191406 18.734375 C 38.023438 18.976562 37.890625 19.238281 37.792969 19.515625 C 37.808594 19.589844 37.839844 19.652344 37.890625 19.707031 C 37.980469 19.769531 38.074219 19.816406 38.179688 19.851562 C 38.347656 19.867188 38.515625 19.867188 38.683594 19.851562 C 39.351562 19.652344 39.960938 19.339844 40.507812 18.914062 C 40.925781 18.566406 41.324219 18.191406 41.707031 17.800781 C 41.757812 17.796875 41.796875 17.8125 41.828125 17.847656 C 41.828125 17.855469 41.828125 17.863281 41.828125 17.871094 C 41.8125 17.871094 41.800781 17.878906 41.800781 17.894531 C 41.78125 17.902344 41.773438 17.917969 41.777344 17.941406 C 41.640625 18.144531 41.511719 18.351562 41.394531 18.566406 C 41.359375 18.578125 41.34375 18.601562 41.347656 18.640625 C 41.332031 18.640625 41.324219 18.648438 41.324219 18.664062 C 41.324219 18.671875 41.324219 18.679688 41.324219 18.6875 C 41.304688 18.6875 41.296875 18.695312 41.296875 18.710938 C 41.28125 18.710938 41.273438 18.71875 41.273438 18.734375 C 41.234375 18.800781 41.191406 18.867188 41.144531 18.925781 C 40.804688 19.273438 40.460938 19.609375 40.109375 19.933594 C 40.054688 20.007812 40.019531 20.085938 40.003906 20.175781 C 40.003906 20.238281 40.027344 20.289062 40.074219 20.332031 C 40.675781 20.574219 41.28125 20.597656 41.898438 20.402344 C 42.660156 20.09375 43.332031 19.65625 43.914062 19.082031 C 44.796875 18.148438 45.574219 17.136719 46.242188 16.046875 C 46.347656 16.085938 46.453125 16.117188 46.554688 16.144531 C 46.34375 17.460938 45.839844 18.652344 45.042969 19.71875 C 45.027344 19.71875 45.019531 19.726562 45.019531 19.742188 C 45.003906 19.742188 44.996094 19.75 44.996094 19.765625 C 44.988281 19.78125 44.980469 19.800781 44.972656 19.816406 C 44.957031 19.816406 44.945312 19.824219 44.945312 19.839844 C 44.929688 19.839844 44.921875 19.847656 44.921875 19.863281 C 44.890625 19.875 44.875 19.898438 44.875 19.933594 C 44.859375 19.933594 44.851562 19.941406 44.851562 19.960938 C 44.808594 19.976562 44.785156 20.007812 44.777344 20.054688 C 44.761719 20.054688 44.753906 20.0625 44.753906 20.078125 C 44.449219 20.417969 44.15625 20.761719 43.867188 21.113281 C 43.851562 21.113281 43.84375 21.121094 43.84375 21.136719 C 43.828125 21.136719 43.820312 21.144531 43.820312 21.160156 C 43.804688 21.160156 43.796875 21.167969 43.796875 21.183594 C 43.777344 21.183594 43.769531 21.191406 43.769531 21.207031 C 43.753906 21.207031 43.746094 21.214844 43.746094 21.230469 C 43.730469 21.230469 43.722656 21.238281 43.722656 21.253906 C 43.707031 21.253906 43.699219 21.261719 43.699219 21.28125 C 43.335938 21.691406 42.933594 22.0625 42.5 22.394531 C 42.21875 22.550781 41.945312 22.71875 41.683594 22.898438 C 41.589844 22.976562 41.511719 23.070312 41.453125 23.175781 C 41.445312 23.25 41.453125 23.320312 41.480469 23.390625 C 41.675781 23.660156 41.902344 23.910156 42.152344 24.136719 C 42.3125 24.378906 42.457031 24.636719 42.582031 24.902344 C 42.785156 25.367188 42.84375 25.847656 42.75 26.34375 C 42.628906 27.046875 42.332031 27.664062 41.863281 28.191406 C 40.933594 29.222656 39.792969 29.925781 38.441406 30.292969 C 37.941406 30.410156 37.445312 30.539062 36.953125 30.675781 C 36.753906 30.71875 36.554688 30.75 36.355469 30.773438 C 35.730469 30.789062 35.105469 30.789062 34.480469 30.773438 C 33.597656 30.714844 32.75 30.515625 31.9375 30.171875 C 30.910156 29.761719 30.15625 29.0625 29.667969 28.074219 C 29.421875 27.40625 29.191406 26.734375 28.972656 26.054688 C 28.925781 25.839844 28.886719 25.625 28.851562 25.40625 C 28.824219 24.496094 29.015625 23.632812 29.429688 22.816406 C 29.546875 22.722656 29.671875 22.640625 29.800781 22.5625 C 29.859375 22.515625 29.894531 22.457031 29.910156 22.382812 C 30.328125 22.019531 30.78125 21.703125 31.265625 21.433594 C 32.03125 21.050781 32.800781 20.667969 33.570312 20.285156 C 33.703125 20.230469 33.839844 20.183594 33.976562 20.140625 C 34.628906 19.984375 35.269531 19.792969 35.898438 19.5625 C 36.332031 19.390625 36.691406 19.117188 36.976562 18.746094 C 37.199219 18.742188 37.273438 18.644531 37.207031 18.445312 C 37.382812 18.230469 37.550781 18.003906 37.710938 17.773438 C 38.722656 16.269531 39.773438 14.800781 40.867188 13.359375 Z M 41.777344 17.941406 C 41.6875 18.175781 41.558594 18.382812 41.394531 18.566406 C 41.511719 18.351562 41.640625 18.144531 41.777344 17.941406 Z M 41.394531 18.566406 C 41.394531 18.605469 41.378906 18.628906 41.347656 18.640625 C 41.34375 18.601562 41.359375 18.578125 41.394531 18.566406 Z M 41.394531 18.566406 "/>
<use xlink:href="#surface18" mask="url(#mask4)"/>
<path style=" stroke:none;fill-rule:evenodd;fill:rgb(62.745098%,56.862745%,58.823529%);fill-opacity:1;" d="M 31.074219 14.078125 C 31.25 14.074219 31.425781 14.085938 31.601562 14.113281 C 31.671875 14.132812 31.734375 14.164062 31.792969 14.210938 C 31.921875 14.402344 32.042969 14.601562 32.164062 14.796875 C 32.273438 14.90625 32.382812 15.015625 32.488281 15.121094 C 32.792969 15.34375 33.078125 15.585938 33.351562 15.84375 C 33.722656 16.210938 34.089844 16.578125 34.457031 16.945312 C 34.996094 17.40625 35.523438 17.878906 36.042969 18.363281 C 36.25 18.523438 36.484375 18.644531 36.738281 18.722656 C 35.722656 19.09375 34.703125 19.464844 33.6875 19.839844 C 33.640625 19.761719 33.570312 19.707031 33.484375 19.671875 C 33.09375 18.996094 32.6875 18.332031 32.261719 17.679688 C 32.183594 17.578125 32.101562 17.488281 32.007812 17.402344 C 31.871094 17.34375 31.742188 17.359375 31.625 17.449219 C 31.46875 17.644531 31.363281 17.867188 31.300781 18.109375 C 31.238281 18.445312 31.136719 18.765625 30.988281 19.070312 C 30.828125 19.261719 30.667969 19.261719 30.507812 19.070312 C 30.109375 18.214844 29.976562 17.320312 30.101562 16.382812 C 30.207031 15.804688 30.324219 15.226562 30.460938 14.65625 C 30.578125 14.363281 30.78125 14.171875 31.074219 14.078125 Z M 31.074219 14.078125 "/>
<path style=" stroke:none;fill-rule:evenodd;fill:rgb(99.607843%,99.607843%,99.607843%);fill-opacity:1;" d="M 7.308594 15.496094 C 7.335938 15.542969 7.375 15.578125 7.429688 15.589844 C 8.699219 17.015625 10.152344 18.203125 11.796875 19.15625 C 12.71875 19.699219 13.683594 20.128906 14.703125 20.453125 C 15.335938 20.589844 15.96875 20.738281 16.597656 20.894531 C 16.625 21.160156 16.769531 21.269531 17.03125 21.21875 C 17.253906 21.128906 17.488281 21.074219 17.726562 21.050781 C 18.574219 20.996094 19.367188 21.183594 20.101562 21.601562 C 21.269531 22.300781 22.285156 23.175781 23.152344 24.230469 C 23.167969 24.230469 23.175781 24.238281 23.175781 24.257812 C 23.191406 24.257812 23.199219 24.265625 23.199219 24.28125 C 23.207031 24.296875 23.214844 24.3125 23.222656 24.328125 C 23.238281 24.328125 23.246094 24.335938 23.246094 24.351562 C 23.265625 24.351562 23.273438 24.359375 23.273438 24.375 C 23.289062 24.375 23.296875 24.382812 23.296875 24.398438 C 23.296875 24.40625 23.296875 24.414062 23.296875 24.425781 C 23.3125 24.425781 23.320312 24.433594 23.320312 24.449219 C 23.335938 24.449219 23.34375 24.457031 23.34375 24.472656 C 23.359375 24.472656 23.367188 24.480469 23.367188 24.496094 C 23.367188 24.503906 23.367188 24.511719 23.367188 24.519531 C 23.382812 24.519531 23.390625 24.527344 23.390625 24.542969 C 23.40625 24.542969 23.414062 24.550781 23.414062 24.566406 C 23.410156 24.589844 23.417969 24.609375 23.441406 24.617188 C 23.457031 24.617188 23.464844 24.625 23.464844 24.640625 C 23.460938 24.664062 23.46875 24.679688 23.488281 24.6875 C 23.503906 24.6875 23.511719 24.695312 23.511719 24.710938 C 23.507812 24.734375 23.515625 24.75 23.535156 24.761719 C 23.550781 24.761719 23.558594 24.769531 23.558594 24.785156 C 23.574219 24.785156 23.582031 24.792969 23.582031 24.808594 C 23.582031 24.816406 23.582031 24.824219 23.582031 24.832031 C 23.601562 24.832031 23.609375 24.839844 23.609375 24.855469 C 23.609375 24.863281 23.609375 24.871094 23.609375 24.878906 C 23.625 24.878906 23.632812 24.886719 23.632812 24.902344 C 23.648438 24.902344 23.65625 24.910156 23.65625 24.929688 C 23.65625 24.9375 23.65625 24.945312 23.65625 24.953125 C 23.671875 24.953125 23.679688 24.960938 23.679688 24.976562 C 23.6875 24.992188 23.695312 25.007812 23.703125 25.023438 C 23.71875 25.023438 23.726562 25.03125 23.726562 25.046875 C 23.921875 25.375 24.054688 25.726562 24.125 26.105469 C 24.203125 27.660156 23.671875 28.96875 22.527344 30.027344 C 21.964844 30.488281 21.378906 30.921875 20.773438 31.324219 C 19.667969 32.050781 18.457031 32.53125 17.152344 32.765625 C 14.835938 32.96875 12.765625 32.359375 10.933594 30.941406 C 10.320312 30.441406 9.878906 29.820312 9.601562 29.082031 C 9.480469 28.660156 9.464844 28.238281 9.554688 27.808594 C 9.714844 27.332031 9.890625 26.859375 10.082031 26.390625 C 10.171875 26.128906 10.210938 25.855469 10.203125 25.574219 C 10.136719 25.375 9.996094 25.273438 9.78125 25.277344 C 9.316406 25.230469 8.851562 25.167969 8.390625 25.085938 C 6.988281 24.628906 5.601562 24.125 4.238281 23.570312 C 3.804688 23.382812 3.425781 23.113281 3.109375 22.769531 C 3.15625 22.703125 3.210938 22.648438 3.277344 22.601562 C 3.90625 22.914062 4.539062 23.230469 5.171875 23.546875 C 5.433594 23.671875 5.707031 23.769531 5.988281 23.835938 C 6.246094 23.882812 6.46875 23.816406 6.648438 23.632812 C 6.703125 23.5 6.71875 23.363281 6.695312 23.222656 C 6.636719 23.023438 6.554688 22.832031 6.457031 22.648438 C 5.996094 21.957031 5.539062 21.257812 5.089844 20.558594 C 4.925781 20.355469 4.773438 20.144531 4.621094 19.933594 C 4.621094 19.917969 4.613281 19.910156 4.597656 19.910156 C 4.597656 19.902344 4.597656 19.894531 4.597656 19.886719 C 4.597656 19.871094 4.589844 19.863281 4.574219 19.863281 C 4.539062 19.773438 4.5 19.683594 4.453125 19.597656 C 4.476562 19.550781 4.519531 19.519531 4.574219 19.503906 C 4.953125 19.863281 5.355469 20.207031 5.773438 20.523438 C 6.210938 20.808594 6.644531 21.105469 7.070312 21.410156 C 7.4375 21.65625 7.828125 21.855469 8.246094 22.011719 C 8.660156 22.164062 9.070312 22.148438 9.46875 21.964844 C 9.554688 21.855469 9.566406 21.742188 9.503906 21.617188 C 9.40625 21.355469 9.269531 21.113281 9.097656 20.894531 C 8.5 20.269531 8.027344 19.558594 7.679688 18.757812 C 7.308594 17.964844 6.996094 17.152344 6.746094 16.3125 C 6.714844 16.132812 6.679688 15.957031 6.636719 15.78125 C 6.871094 15.714844 7.09375 15.617188 7.308594 15.496094 Z M 7.308594 15.496094 "/>
<use xlink:href="#surface21" mask="url(#mask5)"/>
<use xlink:href="#surface24" mask="url(#mask6)"/>
<use xlink:href="#surface27" mask="url(#mask7)"/>
<use xlink:href="#surface30" mask="url(#mask8)"/>
<use xlink:href="#surface33" mask="url(#mask9)"/>
<use xlink:href="#surface36" mask="url(#mask10)"/>
<use xlink:href="#surface39" mask="url(#mask11)"/>
<use xlink:href="#surface42" mask="url(#mask12)"/>
<path style=" stroke:none;fill-rule:evenodd;fill:rgb(1.176471%,1.176471%,1.176471%);fill-opacity:1;" d="M 35.875 21.757812 C 37.058594 21.703125 38.136719 22.003906 39.113281 22.660156 C 39.8125 23.183594 40.242188 23.875 40.398438 24.734375 C 40.425781 25.4375 40.238281 26.074219 39.847656 26.65625 C 39.277344 27.457031 38.578125 28.117188 37.746094 28.636719 C 37.027344 29.03125 36.257812 29.183594 35.441406 29.09375 C 34.800781 29.019531 34.175781 28.875 33.570312 28.660156 C 32.027344 28.070312 31.28125 26.945312 31.324219 25.289062 C 31.5 24.195312 32.0625 23.367188 33.015625 22.804688 C 33.226562 22.6875 33.441406 22.59375 33.664062 22.515625 C 33.695312 22.4375 33.742188 22.375 33.808594 22.324219 C 34.464844 22.007812 35.152344 21.820312 35.875 21.757812 Z M 35.875 21.757812 "/>
<path style=" stroke:none;fill-rule:evenodd;fill:rgb(1.568627%,1.568627%,1.568627%);fill-opacity:1;" d="M 16.597656 22.046875 C 17.191406 22.019531 17.757812 22.121094 18.304688 22.347656 C 19.554688 22.96875 20.589844 23.84375 21.410156 24.976562 C 21.859375 25.695312 21.964844 26.464844 21.722656 27.28125 C 21.308594 28.601562 20.519531 29.636719 19.359375 30.390625 C 18.367188 30.976562 17.292969 31.199219 16.144531 31.0625 C 15.46875 30.980469 14.8125 30.820312 14.175781 30.582031 C 13.488281 30.273438 12.964844 29.789062 12.601562 29.128906 C 11.699219 27.40625 11.875 25.808594 13.128906 24.328125 C 13.136719 24.257812 13.144531 24.183594 13.152344 24.113281 C 13.371094 23.703125 13.667969 23.371094 14.054688 23.117188 C 14.644531 22.722656 15.277344 22.410156 15.949219 22.179688 C 16.167969 22.128906 16.382812 22.085938 16.597656 22.046875 Z M 16.597656 22.046875 "/>
<path style=" stroke:none;fill-rule:evenodd;fill:rgb(99.607843%,99.607843%,99.607843%);fill-opacity:1;" d="M 16.527344 22.40625 C 17.039062 22.375 17.535156 22.441406 18.015625 22.613281 C 18.667969 22.890625 19.253906 23.273438 19.765625 23.765625 C 20.15625 24.128906 20.523438 24.519531 20.859375 24.929688 C 21.140625 25.28125 21.324219 25.683594 21.410156 26.128906 C 21.449219 26.644531 21.359375 27.140625 21.148438 27.617188 C 20.609375 28.722656 19.8125 29.589844 18.757812 30.222656 C 18.269531 30.464844 17.746094 30.601562 17.199219 30.628906 C 16.257812 30.691406 15.34375 30.554688 14.460938 30.222656 C 14.019531 30.082031 13.65625 29.828125 13.371094 29.464844 C 12.136719 27.820312 12.105469 26.148438 13.273438 24.449219 C 13.351562 24.414062 13.429688 24.375 13.503906 24.328125 C 13.613281 24.085938 13.773438 23.882812 13.980469 23.714844 C 14.585938 23.214844 15.257812 22.820312 16 22.539062 C 16.175781 22.488281 16.351562 22.445312 16.527344 22.40625 Z M 16.527344 22.40625 "/>
<path style=" stroke:none;fill-rule:evenodd;fill:rgb(99.607843%,99.607843%,99.607843%);fill-opacity:1;" d="M 35.683594 22.40625 C 36.507812 22.34375 37.308594 22.453125 38.082031 22.730469 C 38.808594 23.011719 39.359375 23.496094 39.726562 24.183594 C 39.964844 24.734375 39.964844 25.285156 39.726562 25.839844 C 39.53125 26.265625 39.273438 26.648438 38.957031 26.992188 C 38.488281 27.472656 37.972656 27.894531 37.410156 28.253906 C 36.804688 28.554688 36.164062 28.671875 35.488281 28.613281 C 34.625 28.539062 33.820312 28.289062 33.066406 27.867188 C 32.113281 27.230469 31.683594 26.339844 31.78125 25.191406 C 32.027344 24.039062 32.6875 23.222656 33.761719 22.742188 C 33.839844 22.808594 33.925781 22.828125 34.027344 22.804688 C 34.566406 22.609375 35.117188 22.476562 35.683594 22.40625 Z M 35.683594 22.40625 "/>
<use xlink:href="#surface45" mask="url(#mask13)"/>
<path style=" stroke:none;fill-rule:evenodd;fill:rgb(62.352941%,56.470588%,58.431373%);fill-opacity:1;" d="M 28.863281 23.03125 C 28.882812 23.027344 28.898438 23.03125 28.914062 23.042969 C 28.726562 23.429688 28.589844 23.835938 28.503906 24.257812 C 28.378906 24.300781 28.253906 24.328125 28.121094 24.339844 C 27.789062 24.453125 27.460938 24.574219 27.136719 24.699219 C 26.464844 24.851562 25.785156 24.894531 25.097656 24.820312 C 24.738281 24.765625 24.394531 24.660156 24.0625 24.507812 C 23.800781 24.09375 23.496094 23.710938 23.152344 23.355469 C 23.417969 23.414062 23.691406 23.460938 23.96875 23.5 C 24.519531 23.5625 25.070312 23.625 25.625 23.691406 C 25.960938 23.707031 26.296875 23.707031 26.632812 23.691406 C 27.394531 23.527344 28.140625 23.308594 28.863281 23.03125 Z M 28.863281 23.03125 "/>
<use xlink:href="#surface48" mask="url(#mask14)"/>
<use xlink:href="#surface51" mask="url(#mask15)"/>
<use xlink:href="#surface54" mask="url(#mask16)"/>
<path style=" stroke:none;fill-rule:evenodd;fill:rgb(73.333333%,73.333333%,73.333333%);fill-opacity:1;" d="M 36.378906 31.335938 C 35.953125 31.355469 35.53125 31.367188 35.105469 31.359375 C 35.476562 31.34375 35.855469 31.328125 36.234375 31.3125 C 36.285156 31.3125 36.335938 31.320312 36.378906 31.335938 Z M 36.378906 31.335938 "/>
<use xlink:href="#surface57" mask="url(#mask17)"/>
<use xlink:href="#surface60" mask="url(#mask18)"/>
</g>
</svg>
