<?xml version="1.0" encoding="UTF-8"?>
<svg xmlns="http://www.w3.org/2000/svg" xmlns:xlink="http://www.w3.org/1999/xlink" width="50pt" height="50pt" viewBox="0 0 50 50" version="1.1">
<defs>
<filter id="alpha" filterUnits="objectBoundingBox" x="0%" y="0%" width="100%" height="100%">
  <feColorMatrix type="matrix" in="SourceGraphic" values="0 0 0 0 1 0 0 0 0 1 0 0 0 0 1 0 0 0 1 0"/>
</filter>
<mask id="mask0">
  <g filter="url(#alpha)">
<rect x="0" y="0" width="50" height="50" style="fill:rgb(0%,0%,0%);fill-opacity:0.992157;stroke:none;"/>
  </g>
</mask>
<clipPath id="clip1">
  <rect width="50" height="50"/>
</clipPath>
<g id="surface6" clip-path="url(#clip1)">
<path style=" stroke:none;fill-rule:evenodd;fill:rgb(0%,0%,0%);fill-opacity:1;" d="M 45.707031 11.109375 C 45.664062 11.324219 45.640625 11.546875 45.632812 11.78125 C 45.621094 14.535156 45.523438 17.285156 45.34375 20.035156 C 45.28125 21.652344 45.328125 23.269531 45.488281 24.878906 C 45.652344 26.007812 45.835938 27.128906 46.042969 28.238281 C 46.132812 29.359375 46.238281 30.480469 46.351562 31.597656 C 46.582031 32.863281 46.820312 34.128906 47.074219 35.390625 C 47.199219 36.3125 47.265625 37.238281 47.265625 38.171875 C 47.351562 38.585938 47.425781 39 47.480469 39.417969 C 47.4375 40.316406 46.976562 40.851562 46.089844 41.027344 C 44.855469 41.171875 43.625 41.332031 42.394531 41.507812 C 41.628906 41.582031 40.859375 41.628906 40.089844 41.652344 C 37.332031 41.664062 34.574219 41.703125 31.8125 41.769531 C 29.53125 41.699219 27.253906 41.59375 24.976562 41.457031 C 23.023438 41.425781 21.074219 41.425781 19.121094 41.457031 C 18.0625 41.527344 17.007812 41.621094 15.953125 41.746094 C 14.039062 41.835938 12.152344 41.644531 10.292969 41.171875 C 9.550781 40.886719 8.800781 40.628906 8.039062 40.402344 C 7.332031 40.308594 6.628906 40.210938 5.925781 40.113281 C 4.238281 39.832031 3.371094 38.84375 3.335938 37.140625 C 3.417969 36.167969 3.539062 35.199219 3.695312 34.238281 C 3.726562 33.085938 3.710938 31.933594 3.648438 30.78125 C 3.449219 28.464844 3.304688 26.148438 3.214844 23.824219 C 3.199219 22.625 3.175781 21.425781 3.144531 20.226562 C 3.179688 17.667969 3.203125 15.105469 3.214844 12.546875 C 3.242188 12.339844 3.273438 12.132812 3.3125 11.925781 C 3.628906 10.8125 3.917969 9.691406 4.175781 8.566406 C 4.347656 7.945312 4.589844 7.355469 4.894531 6.789062 C 5.332031 6.164062 5.886719 6.042969 6.550781 6.429688 C 6.671875 6.570312 6.777344 6.722656 6.863281 6.886719 C 7.382812 6.644531 7.9375 6.53125 8.515625 6.550781 C 8.910156 6.574219 9.300781 6.589844 9.691406 6.597656 C 15.203125 6.476562 20.714844 6.324219 26.222656 6.140625 C 30.703125 6.085938 35.179688 6.046875 39.660156 6.023438 C 40.980469 6.027344 42.300781 6.042969 43.617188 6.070312 C 44.179688 5.988281 44.730469 5.871094 45.273438 5.710938 C 45.671875 5.585938 46.054688 5.621094 46.425781 5.804688 C 46.84375 6.386719 46.777344 6.914062 46.234375 7.390625 C 46.066406 7.417969 45.945312 7.503906 45.875 7.652344 C 45.839844 7.820312 45.816406 7.988281 45.800781 8.15625 C 45.882812 9.144531 45.847656 10.128906 45.707031 11.109375 Z M 5.542969 11.78125 C 5.5 12.765625 5.4375 13.742188 5.351562 14.707031 C 5.265625 13.714844 5.332031 12.738281 5.542969 11.78125 Z M 44.410156 39.179688 C 43.195312 39.410156 41.964844 39.546875 40.714844 39.585938 C 38.347656 39.628906 35.980469 39.652344 33.613281 39.660156 C 37.203125 39.476562 40.800781 39.316406 44.410156 39.179688 Z M 44.410156 39.179688 "/>
</g>
<mask id="mask1">
  <g filter="url(#alpha)">
<rect x="0" y="0" width="50" height="50" style="fill:rgb(0%,0%,0%);fill-opacity:0.945098;stroke:none;"/>
  </g>
</mask>
<clipPath id="clip2">
  <rect width="50" height="50"/>
</clipPath>
<g id="surface9" clip-path="url(#clip2)">
<path style=" stroke:none;fill-rule:evenodd;fill:rgb(91.764706%,90.196078%,87.45098%);fill-opacity:1;" d="M 45.707031 11.109375 C 45.808594 16.820312 45.917969 22.527344 46.042969 28.238281 C 45.835938 27.128906 45.652344 26.007812 45.488281 24.878906 C 45.328125 23.269531 45.28125 21.652344 45.34375 20.035156 C 45.523438 17.285156 45.621094 14.535156 45.632812 11.78125 C 45.640625 11.546875 45.664062 11.324219 45.707031 11.109375 Z M 45.707031 11.109375 "/>
</g>
</defs>
<g id="surface1">
<use xlink:href="#surface6" mask="url(#mask0)"/>
<path style=" stroke:none;fill-rule:evenodd;fill:rgb(94.117647%,92.54902%,89.803922%);fill-opacity:1;" d="M 26.75 7.703125 C 30.175781 7.695312 33.597656 7.71875 37.019531 7.773438 C 31.75 9.855469 26.679688 12.335938 21.808594 15.210938 C 21.144531 15.535156 20.488281 15.871094 19.839844 16.21875 C 19.429688 16.488281 19.027344 16.777344 18.640625 17.082031 C 18.273438 17.089844 17.953125 16.960938 17.683594 16.699219 C 17.109375 16.042969 16.515625 15.40625 15.90625 14.777344 C 15.300781 14.265625 14.691406 13.753906 14.082031 13.242188 C 12.527344 12.039062 10.941406 10.875 9.332031 9.742188 C 8.605469 9.074219 7.820312 8.484375 6.980469 7.964844 C 7.078125 7.902344 7.171875 7.835938 7.269531 7.773438 C 7.375 7.765625 7.476562 7.757812 7.582031 7.75 C 8.289062 7.828125 9 7.867188 9.71875 7.871094 C 15.402344 7.925781 21.082031 7.871094 26.75 7.703125 Z M 26.75 7.703125 "/>
<path style=" stroke:none;fill-rule:evenodd;fill:rgb(31.372549%,30.980392%,30.196078%);fill-opacity:1;" d="M 43.832031 7.84375 C 43.886719 7.800781 43.949219 7.785156 44.027344 7.796875 C 44.039062 7.890625 44.023438 7.96875 43.976562 8.039062 C 43.976562 7.972656 43.976562 7.910156 43.976562 7.84375 C 43.929688 7.84375 43.882812 7.84375 43.832031 7.84375 Z M 43.832031 7.84375 "/>
<path style=" stroke:none;fill-rule:evenodd;fill:rgb(94.509804%,92.941176%,90.196078%);fill-opacity:1;" d="M 43.832031 7.84375 C 43.882812 7.84375 43.929688 7.84375 43.976562 7.84375 C 43.976562 7.910156 43.976562 7.972656 43.976562 8.039062 C 43.984375 8.566406 43.976562 9.09375 43.953125 9.621094 C 43.839844 10.367188 43.757812 11.121094 43.714844 11.875 C 43.699219 13.269531 43.683594 14.660156 43.667969 16.050781 C 43.574219 17.828125 43.472656 19.601562 43.355469 21.378906 C 42.917969 21.285156 42.484375 21.167969 42.058594 21.015625 C 41.058594 20.382812 40.050781 19.757812 39.035156 19.144531 C 37.808594 18.503906 36.527344 17.992188 35.195312 17.609375 C 33.402344 17.214844 31.628906 16.75 29.871094 16.21875 C 29.351562 16.046875 28.839844 15.855469 28.335938 15.644531 C 27.640625 15.296875 26.9375 14.976562 26.222656 14.683594 C 30.902344 12.128906 35.746094 9.953125 40.761719 8.15625 C 41.0625 8.070312 41.367188 7.988281 41.675781 7.917969 C 42.390625 7.851562 43.113281 7.828125 43.832031 7.84375 Z M 43.832031 7.84375 "/>
<path style=" stroke:none;fill-rule:evenodd;fill:rgb(94.509804%,92.941176%,90.196078%);fill-opacity:1;" d="M 5.398438 20.5625 C 5.351562 18.890625 5.335938 17.210938 5.351562 15.523438 C 5.351562 15.25 5.351562 14.980469 5.351562 14.707031 C 5.4375 13.742188 5.5 12.765625 5.542969 11.78125 C 5.648438 11.035156 5.800781 10.300781 6 9.574219 C 6.066406 9.289062 6.160156 9.015625 6.285156 8.757812 C 6.546875 8.90625 6.796875 9.074219 7.03125 9.261719 C 7.574219 9.820312 8.132812 10.363281 8.710938 10.890625 C 10.691406 12.339844 12.609375 13.867188 14.46875 15.476562 C 13.074219 16.042969 11.714844 16.691406 10.390625 17.417969 C 8.699219 18.429688 7.035156 19.476562 5.398438 20.5625 Z M 5.398438 20.5625 "/>
<use xlink:href="#surface9" mask="url(#mask1)"/>
<path style=" stroke:none;fill-rule:evenodd;fill:rgb(94.509804%,92.941176%,90.196078%);fill-opacity:1;" d="M 44.410156 39.179688 C 40.800781 39.316406 37.203125 39.476562 33.613281 39.660156 C 32.636719 39.667969 31.660156 39.660156 30.6875 39.636719 C 28.65625 39.480469 26.625 39.355469 24.59375 39.25 C 22.59375 39.21875 20.59375 39.21875 18.59375 39.25 C 17.746094 39.292969 16.898438 39.359375 16.050781 39.445312 C 14.710938 39.523438 13.382812 39.429688 12.066406 39.15625 C 10.90625 38.832031 9.757812 38.480469 8.613281 38.101562 C 7.847656 37.980469 7.078125 37.867188 6.308594 37.765625 C 6.085938 37.71875 5.917969 37.601562 5.804688 37.402344 C 5.9375 36.339844 6.03125 35.265625 6.09375 34.1875 C 6.125 33.261719 6.125 32.332031 6.09375 31.40625 C 5.914062 29.050781 5.707031 26.699219 5.46875 24.351562 C 5.394531 23.664062 5.371094 22.976562 5.398438 22.289062 C 5.890625 21.855469 6.402344 21.445312 6.933594 21.066406 C 8.828125 19.8125 10.746094 18.597656 12.691406 17.417969 C 13.46875 16.992188 14.25 16.574219 15.042969 16.171875 C 15.089844 16.140625 15.140625 16.140625 15.1875 16.171875 C 15.777344 16.808594 16.386719 17.433594 17.011719 18.042969 C 17.394531 18.367188 17.835938 18.582031 18.332031 18.691406 C 18.792969 18.675781 19.21875 18.539062 19.601562 18.28125 C 20.058594 17.964844 20.519531 17.664062 20.992188 17.371094 C 22.359375 16.667969 23.726562 15.972656 25.097656 15.28125 C 25.863281 15.667969 26.605469 16.089844 27.328125 16.554688 C 28.601562 17.207031 29.929688 17.71875 31.308594 18.089844 C 32.390625 18.394531 33.480469 18.679688 34.574219 18.953125 C 36.898438 19.691406 39.027344 20.796875 40.953125 22.265625 C 41.15625 22.375 41.363281 22.46875 41.578125 22.554688 C 42.1875 22.714844 42.785156 22.902344 43.378906 23.105469 C 43.511719 24.632812 43.703125 26.152344 43.953125 27.664062 C 44.125 29.101562 44.285156 30.539062 44.433594 31.980469 C 44.75 33.410156 45.007812 34.851562 45.203125 36.300781 C 45.21875 37.035156 45.234375 37.773438 45.25 38.507812 C 45.269531 38.6875 45.308594 38.863281 45.371094 39.035156 C 45.054688 39.113281 44.734375 39.164062 44.410156 39.179688 Z M 44.410156 39.179688 "/>
<path style=" stroke:none;fill-rule:evenodd;fill:rgb(44.705882%,44.313725%,42.745098%);fill-opacity:1;" d="M 5.351562 15.523438 C 5.335938 17.210938 5.351562 18.890625 5.398438 20.5625 C 5.394531 20.585938 5.378906 20.601562 5.351562 20.609375 C 5.285156 18.90625 5.285156 17.210938 5.351562 15.523438 Z M 5.351562 15.523438 "/>
<path style=" stroke:none;fill-rule:evenodd;fill:rgb(0.784314%,0.784314%,0.784314%);fill-opacity:1;" d="M 20.320312 20.945312 C 22.035156 20.839844 23.648438 21.1875 25.167969 21.976562 C 26.222656 22.585938 26.96875 23.457031 27.398438 24.59375 C 27.726562 26.398438 27.09375 27.75 25.503906 28.648438 C 24.441406 29.117188 23.378906 29.125 22.3125 28.671875 C 21.335938 30.050781 20.015625 30.601562 18.355469 30.328125 C 17.230469 29.75 16.757812 28.832031 16.9375 27.566406 C 17.25 25.949219 18.234375 25.109375 19.890625 25.046875 C 20.46875 24.292969 21.1875 24.117188 22.050781 24.519531 C 22.425781 24.878906 22.65625 25.320312 22.746094 25.839844 C 22.832031 26.414062 22.839844 26.988281 22.769531 27.566406 C 24 28.027344 25.015625 27.738281 25.816406 26.703125 C 26.308594 25.890625 26.292969 25.089844 25.769531 24.304688 C 25.261719 23.703125 24.648438 23.246094 23.921875 22.9375 C 22.402344 22.34375 20.851562 22.230469 19.265625 22.601562 C 18.625 22.785156 18.066406 23.105469 17.585938 23.558594 C 16.988281 24.144531 16.453125 24.773438 15.980469 25.457031 C 15.414062 26.382812 15.269531 27.375 15.546875 28.429688 C 15.980469 29.710938 16.585938 30.894531 17.371094 31.980469 C 18.640625 33.390625 20.214844 33.910156 22.097656 33.542969 C 23.28125 33.347656 24.402344 32.964844 25.457031 32.390625 C 26.28125 31.839844 27.128906 31.328125 28 30.855469 C 28.539062 30.769531 28.839844 30.992188 28.910156 31.527344 C 28.933594 31.75 28.855469 31.925781 28.671875 32.054688 C 27.59375 32.921875 26.425781 33.65625 25.167969 34.261719 C 19.683594 36.402344 16.027344 34.683594 14.203125 29.101562 C 13.71875 27.507812 13.910156 26.003906 14.777344 24.59375 C 15.503906 23.5 16.410156 22.578125 17.492188 21.832031 C 18.378906 21.339844 19.324219 21.046875 20.320312 20.945312 Z M 20.320312 20.945312 "/>
<path style=" stroke:none;fill-rule:evenodd;fill:rgb(90.196078%,88.627451%,85.882353%);fill-opacity:1;" d="M 21.089844 25.40625 C 21.257812 25.402344 21.394531 25.464844 21.496094 25.601562 C 21.707031 25.941406 21.785156 26.308594 21.738281 26.703125 C 21.417969 26.390625 21.183594 26.023438 21.042969 25.601562 C 21.058594 25.535156 21.074219 25.472656 21.089844 25.40625 Z M 21.089844 25.40625 "/>
<path style=" stroke:none;fill-rule:evenodd;fill:rgb(93.72549%,92.156863%,89.411765%);fill-opacity:1;" d="M 19.648438 25.648438 C 19.730469 25.648438 19.808594 25.648438 19.890625 25.648438 C 20.140625 26.597656 20.636719 27.398438 21.378906 28.046875 C 20.792969 29.011719 19.945312 29.402344 18.832031 29.222656 C 18.46875 29.03125 18.21875 28.734375 18.089844 28.335938 C 17.929688 27.039062 18.449219 26.144531 19.648438 25.648438 Z M 19.648438 25.648438 "/>
</g>
</svg>
