<?xml version="1.0" encoding="UTF-8"?>
<svg xmlns="http://www.w3.org/2000/svg" xmlns:xlink="http://www.w3.org/1999/xlink" width="50pt" height="50pt" viewBox="0 0 50 50" version="1.1">
<defs>
<filter id="alpha" filterUnits="objectBoundingBox" x="0%" y="0%" width="100%" height="100%">
  <feColorMatrix type="matrix" in="SourceGraphic" values="0 0 0 0 1 0 0 0 0 1 0 0 0 0 1 0 0 0 1 0"/>
</filter>
<mask id="mask0">
  <g filter="url(#alpha)">
<rect x="0" y="0" width="50" height="50" style="fill:rgb(0%,0%,0%);fill-opacity:0.976471;stroke:none;"/>
  </g>
</mask>
<clipPath id="clip1">
  <rect width="50" height="50"/>
</clipPath>
<g id="surface6" clip-path="url(#clip1)">
<path style=" stroke:none;fill-rule:evenodd;fill:rgb(0%,0%,0%);fill-opacity:1;" d="M 37.308594 8.566406 C 36.167969 9.359375 35.066406 10.199219 33.996094 11.085938 C 34.054688 11.199219 34.09375 11.316406 34.117188 11.445312 C 34.367188 11.535156 34.558594 11.695312 34.691406 11.925781 C 37.164062 16.503906 37.59375 21.269531 35.988281 26.222656 C 34.949219 29.15625 33.261719 31.632812 30.925781 33.660156 C 28.882812 35.394531 26.550781 36.585938 23.921875 37.234375 C 22.4375 37.609375 20.9375 37.828125 19.410156 37.882812 C 19.585938 39.960938 19.746094 42.042969 19.890625 44.121094 C 21.796875 43.832031 23.683594 43.445312 25.550781 42.96875 C 26.042969 43.089844 26.210938 43.390625 26.054688 43.882812 C 25.984375 43.953125 25.910156 44.027344 25.839844 44.097656 C 23.921875 44.703125 21.972656 45.160156 19.984375 45.464844 C 20.128906 46.835938 20.21875 48.210938 20.25 49.59375 C 20.0625 49.785156 19.847656 49.828125 19.601562 49.710938 C 19.492188 49.632812 19.417969 49.53125 19.386719 49.398438 C 19.28125 48.121094 19.195312 46.84375 19.121094 45.5625 C 17.238281 45.761719 15.351562 45.835938 13.460938 45.777344 C 13.144531 45.601562 13.039062 45.339844 13.148438 44.984375 C 13.207031 44.78125 13.34375 44.660156 13.554688 44.625 C 15.371094 44.625 17.179688 44.507812 18.976562 44.265625 C 18.839844 42.15625 18.710938 40.042969 18.59375 37.933594 C 14.949219 37.992188 11.507812 37.183594 8.277344 35.507812 C 4.394531 33.367188 2.339844 30.066406 2.109375 25.601562 C 2.007812 22.9375 2.34375 20.328125 3.117188 17.777344 C 3.730469 15.691406 4.542969 13.695312 5.566406 11.78125 C 7.996094 7.449219 11.679688 4.929688 16.625 4.222656 C 18.652344 3.941406 20.683594 3.886719 22.722656 4.054688 C 24.589844 4.203125 26.414062 4.59375 28.191406 5.230469 C 30.574219 6.109375 32.359375 7.671875 33.542969 9.910156 C 34.582031 9.113281 35.613281 8.3125 36.636719 7.507812 C 39.113281 5.628906 41.59375 3.75 44.074219 1.871094 C 41.234375 1.960938 38.402344 1.832031 35.582031 1.488281 C 35.195312 1.28125 35.074219 0.972656 35.222656 0.550781 C 35.332031 0.394531 35.484375 0.316406 35.675781 0.3125 C 39.546875 0.722656 43.402344 0.671875 47.242188 0.167969 C 47.792969 0.277344 48.007812 0.613281 47.890625 1.175781 C 47.539062 2.613281 47.203125 4.050781 46.882812 5.496094 C 46.578125 7.140625 46.292969 8.785156 46.015625 10.4375 C 45.925781 10.84375 45.8125 11.242188 45.679688 11.636719 C 45.390625 12.109375 45 12.214844 44.503906 11.949219 C 44.402344 11.863281 44.332031 11.761719 44.289062 11.636719 C 44.207031 10.035156 44.351562 8.453125 44.722656 6.886719 C 45.117188 5.21875 45.566406 3.570312 46.066406 1.945312 C 43.140625 4.144531 40.222656 6.351562 37.308594 8.566406 Z M 12.980469 6.308594 C 11.585938 7.054688 10.34375 8.015625 9.261719 9.1875 C 8.167969 10.445312 7.402344 11.886719 6.957031 13.507812 C 6.257812 16.167969 5.839844 18.871094 5.710938 21.617188 C 5.597656 23.890625 5.820312 26.128906 6.382812 28.335938 C 7.175781 31.433594 8.960938 33.753906 11.730469 35.292969 C 9.078125 34.59375 6.910156 33.171875 5.230469 31.023438 C 4.167969 29.496094 3.558594 27.800781 3.40625 25.9375 C 3.273438 24.242188 3.367188 22.5625 3.695312 20.898438 C 4.234375 17.929688 5.179688 15.097656 6.527344 12.402344 C 7.664062 10.210938 9.273438 8.441406 11.347656 7.101562 C 11.875 6.796875 12.417969 6.535156 12.980469 6.308594 Z M 12.980469 6.308594 "/>
</g>
<mask id="mask1">
  <g filter="url(#alpha)">
<rect x="0" y="0" width="50" height="50" style="fill:rgb(0%,0%,0%);fill-opacity:0.984314;stroke:none;"/>
  </g>
</mask>
<clipPath id="clip2">
  <rect width="50" height="50"/>
</clipPath>
<g id="surface9" clip-path="url(#clip2)">
<path style=" stroke:none;fill-rule:evenodd;fill:rgb(99.215686%,99.215686%,99.215686%);fill-opacity:1;" d="M 36.636719 7.507812 C 35.613281 8.3125 34.582031 9.113281 33.542969 9.910156 C 32.359375 7.671875 30.574219 6.109375 28.191406 5.230469 C 26.414062 4.59375 24.589844 4.203125 22.722656 4.054688 C 26.347656 3.875 29.898438 4.316406 33.375 5.375 C 34.679688 5.761719 35.769531 6.476562 36.636719 7.507812 Z M 36.636719 7.507812 "/>
</g>
<mask id="mask2">
  <g filter="url(#alpha)">
<rect x="0" y="0" width="50" height="50" style="fill:rgb(0%,0%,0%);fill-opacity:0.988235;stroke:none;"/>
  </g>
</mask>
<clipPath id="clip3">
  <rect width="50" height="50"/>
</clipPath>
<g id="surface12" clip-path="url(#clip3)">
<path style=" stroke:none;fill-rule:evenodd;fill:rgb(99.215686%,99.215686%,99.215686%);fill-opacity:1;" d="M 37.308594 8.566406 C 38.339844 10.714844 38.890625 12.988281 38.964844 15.378906 C 39.183594 19.804688 38.300781 23.996094 36.324219 27.949219 C 35.210938 30.058594 33.683594 31.808594 31.742188 33.207031 C 31.484375 33.382812 31.210938 33.535156 30.925781 33.660156 C 33.261719 31.632812 34.949219 29.15625 35.988281 26.222656 C 37.59375 21.269531 37.164062 16.503906 34.691406 11.925781 C 34.558594 11.695312 34.367188 11.535156 34.117188 11.445312 C 34.09375 11.316406 34.054688 11.199219 33.996094 11.085938 C 35.066406 10.199219 36.167969 9.359375 37.308594 8.566406 Z M 37.308594 8.566406 "/>
</g>
</defs>
<g id="surface1">
<use xlink:href="#surface6" mask="url(#mask0)"/>
<use xlink:href="#surface9" mask="url(#mask1)"/>
<path style=" stroke:none;fill-rule:evenodd;fill:rgb(99.607843%,99.607843%,99.607843%);fill-opacity:1;" d="M 11.828125 35.339844 C 11.8125 35.300781 11.78125 35.285156 11.730469 35.292969 C 8.960938 33.753906 7.175781 31.433594 6.382812 28.335938 C 5.820312 26.128906 5.597656 23.890625 5.710938 21.617188 C 5.839844 18.871094 6.257812 16.167969 6.957031 13.507812 C 7.402344 11.886719 8.167969 10.445312 9.261719 9.1875 C 10.34375 8.015625 11.585938 7.054688 12.980469 6.308594 C 13.027344 6.316406 13.058594 6.300781 13.074219 6.261719 C 13.125 6.269531 13.15625 6.253906 13.171875 6.214844 C 13.21875 6.222656 13.25 6.207031 13.269531 6.167969 C 13.316406 6.175781 13.347656 6.160156 13.363281 6.117188 C 13.410156 6.125 13.441406 6.109375 13.460938 6.070312 C 13.523438 6.082031 13.570312 6.066406 13.605469 6.023438 C 14.65625 5.605469 15.742188 5.3125 16.867188 5.132812 C 19.519531 4.742188 22.175781 4.726562 24.832031 5.085938 C 26.984375 5.367188 28.933594 6.132812 30.6875 7.390625 C 31.6875 8.175781 32.46875 9.132812 33.039062 10.269531 C 32.785156 10.585938 32.785156 10.90625 33.039062 11.226562 C 33.164062 11.320312 33.308594 11.371094 33.46875 11.371094 C 33.5 11.4375 33.535156 11.5 33.566406 11.5625 C 33.242188 11.753906 33.089844 12.035156 33.109375 12.402344 C 33.480469 13.195312 33.832031 13.992188 34.164062 14.804688 C 34.226562 16.304688 34.257812 17.808594 34.261719 19.3125 C 34.386719 19.386719 34.496094 19.367188 34.597656 19.265625 C 34.667969 18.402344 34.71875 17.539062 34.742188 16.675781 C 35.917969 21.800781 34.894531 26.421875 31.667969 30.542969 C 28.890625 33.71875 25.398438 35.582031 21.183594 36.132812 C 20.53125 36.214844 19.875 36.269531 19.21875 36.300781 C 19.109375 35.164062 18.992188 34.027344 18.859375 32.894531 C 18.71875 32.75 18.574219 32.734375 18.425781 32.84375 C 18.417969 33.054688 18.410156 33.261719 18.402344 33.46875 C 18.449219 34.429688 18.480469 35.386719 18.5 36.347656 C 16.21875 36.367188 13.996094 36.03125 11.828125 35.339844 Z M 11.828125 35.339844 "/>
<use xlink:href="#surface12" mask="url(#mask2)"/>
<path style=" stroke:none;fill-rule:evenodd;fill:rgb(66.666667%,23.137255%,18.039216%);fill-opacity:1;" d="M 24.734375 15.90625 C 25.449219 15.867188 26.152344 15.921875 26.847656 16.074219 C 27.363281 16.347656 27.5625 16.769531 27.445312 17.347656 C 27.335938 17.742188 27.117188 18.066406 26.800781 18.332031 C 25.902344 18.96875 24.910156 19.402344 23.824219 19.625 C 20.746094 20.277344 17.644531 20.773438 14.515625 21.113281 C 14.066406 21.164062 13.621094 21.179688 13.171875 21.160156 C 12.550781 20.9375 12.246094 20.488281 12.261719 19.816406 C 12.257812 19.070312 12.59375 18.542969 13.269531 18.234375 C 15.601562 17.964844 17.921875 17.597656 20.226562 17.128906 C 21.730469 16.707031 23.234375 16.296875 24.734375 15.90625 Z M 24.734375 15.90625 "/>
<path style=" stroke:none;fill-rule:evenodd;fill:rgb(66.666667%,23.529412%,18.431373%);fill-opacity:1;" d="M 26.847656 22.480469 C 27.664062 22.433594 28.113281 22.820312 28.191406 23.632812 C 28.152344 24.175781 27.863281 24.503906 27.328125 24.617188 C 22.214844 25.828125 17.035156 26.390625 11.78125 26.296875 C 11.246094 26.058594 11.03125 25.652344 11.132812 25.070312 C 11.238281 24.710938 11.46875 24.480469 11.828125 24.375 C 16.90625 24.253906 21.914062 23.621094 26.847656 22.480469 Z M 26.847656 22.480469 "/>
</g>
</svg>
