<?xml version="1.0" encoding="UTF-8"?>
<svg xmlns="http://www.w3.org/2000/svg" xmlns:xlink="http://www.w3.org/1999/xlink" width="50pt" height="50pt" viewBox="0 0 50 50" version="1.1">
<defs>
<filter id="alpha" filterUnits="objectBoundingBox" x="0%" y="0%" width="100%" height="100%">
  <feColorMatrix type="matrix" in="SourceGraphic" values="0 0 0 0 1 0 0 0 0 1 0 0 0 0 1 0 0 0 1 0"/>
</filter>
<mask id="mask0">
  <g filter="url(#alpha)">
<rect x="0" y="0" width="50" height="50" style="fill:rgb(0%,0%,0%);fill-opacity:0.992157;stroke:none;"/>
  </g>
</mask>
<clipPath id="clip1">
  <rect width="50" height="50"/>
</clipPath>
<g id="surface6" clip-path="url(#clip1)">
<path style=" stroke:none;fill-rule:evenodd;fill:rgb(1.960784%,1.960784%,1.960784%);fill-opacity:1;" d="M 26.296875 43.339844 C 24.386719 44.171875 22.410156 44.789062 20.367188 45.1875 C 19.121094 45.484375 17.855469 45.570312 16.574219 45.4375 C 15.851562 45.371094 15.132812 45.285156 14.414062 45.1875 C 12.546875 44.960938 10.882812 44.261719 9.421875 43.085938 C 8.890625 42.652344 8.390625 42.1875 7.921875 41.683594 C 7.195312 40.917969 6.515625 40.117188 5.882812 39.28125 C 5.660156 38.980469 5.457031 38.667969 5.269531 38.347656 C 5.269531 38.308594 5.253906 38.285156 5.222656 38.273438 C 5.214844 38.222656 5.191406 38.183594 5.148438 38.152344 C 4.71875 37.316406 4.335938 36.460938 3.996094 35.585938 C 3.773438 35.140625 3.578125 34.683594 3.410156 34.21875 C 3.113281 33.246094 3 32.253906 3.074219 31.242188 C 3.234375 29.160156 3.890625 27.257812 5.039062 25.527344 C 5.820312 24.460938 6.652344 23.4375 7.539062 22.457031 C 8.539062 21.363281 9.6875 20.460938 10.980469 19.753906 C 12.003906 19.242188 13.066406 18.839844 14.175781 18.554688 C 15.679688 18.183594 17.199219 17.890625 18.734375 17.679688 C 18.785156 17.007812 19.144531 16.707031 19.816406 16.777344 C 21.707031 16.945312 23.523438 17.402344 25.265625 18.148438 C 26.5 18.703125 27.699219 19.332031 28.851562 20.03125 C 29.351562 19.59375 29.851562 19.160156 30.351562 18.722656 C 32.253906 16.957031 34.191406 15.238281 36.160156 13.5625 C 37.878906 12.195312 39.625 10.867188 41.394531 9.578125 C 41.976562 9.09375 42.582031 8.644531 43.21875 8.234375 C 43.617188 8.003906 44.039062 7.851562 44.492188 7.777344 C 44.886719 7.726562 45.273438 7.777344 45.644531 7.921875 C 46.605469 8.347656 47.257812 9.054688 47.601562 10.046875 C 47.765625 10.714844 47.667969 11.347656 47.3125 11.941406 C 47.003906 12.417969 46.628906 12.847656 46.195312 13.226562 C 45.523438 13.777344 44.859375 14.335938 44.203125 14.90625 C 42.523438 16.023438 40.898438 17.214844 39.332031 18.484375 C 38.410156 19.152344 37.5 19.832031 36.59375 20.523438 C 36.226562 20.816406 35.867188 21.121094 35.515625 21.433594 C 34.863281 22.121094 34.167969 22.75 33.425781 23.320312 C 34.332031 24.214844 35.054688 25.238281 35.597656 26.390625 C 36.210938 27.734375 36.417969 29.132812 36.222656 30.59375 C 35.976562 31.515625 35.761719 32.441406 35.574219 33.378906 C 34.945312 35.542969 33.875 37.449219 32.355469 39.089844 C 30.617188 40.90625 28.597656 42.324219 26.296875 43.339844 Z M 26.296875 43.339844 "/>
</g>
<mask id="mask1">
  <g filter="url(#alpha)">
<rect x="0" y="0" width="50" height="50" style="fill:rgb(0%,0%,0%);fill-opacity:0.745098;stroke:none;"/>
  </g>
</mask>
<clipPath id="clip2">
  <rect width="50" height="50"/>
</clipPath>
<g id="surface9" clip-path="url(#clip2)">
<path style=" stroke:none;fill-rule:evenodd;fill:rgb(92.156863%,92.156863%,92.156863%);fill-opacity:1;" d="M 3.996094 35.585938 C 4.335938 36.460938 4.71875 37.316406 5.148438 38.152344 C 4.628906 37.363281 4.246094 36.507812 3.996094 35.585938 Z M 3.996094 35.585938 "/>
</g>
<mask id="mask2">
  <g filter="url(#alpha)">
<rect x="0" y="0" width="50" height="50" style="fill:rgb(0%,0%,0%);fill-opacity:0.592157;stroke:none;"/>
  </g>
</mask>
<clipPath id="clip3">
  <rect width="50" height="50"/>
</clipPath>
<g id="surface12" clip-path="url(#clip3)">
<path style=" stroke:none;fill-rule:evenodd;fill:rgb(85.490196%,85.490196%,85.490196%);fill-opacity:1;" d="M 5.148438 38.152344 C 5.191406 38.183594 5.214844 38.222656 5.222656 38.273438 C 5.179688 38.246094 5.15625 38.207031 5.148438 38.152344 Z M 5.148438 38.152344 "/>
</g>
<mask id="mask3">
  <g filter="url(#alpha)">
<rect x="0" y="0" width="50" height="50" style="fill:rgb(0%,0%,0%);fill-opacity:0.415686;stroke:none;"/>
  </g>
</mask>
<clipPath id="clip4">
  <rect width="50" height="50"/>
</clipPath>
<g id="surface15" clip-path="url(#clip4)">
<path style=" stroke:none;fill-rule:evenodd;fill:rgb(80.392157%,80.392157%,80.784314%);fill-opacity:1;" d="M 5.222656 38.273438 C 5.253906 38.285156 5.269531 38.308594 5.269531 38.347656 C 5.234375 38.335938 5.21875 38.3125 5.222656 38.273438 Z M 5.222656 38.273438 "/>
</g>
<mask id="mask4">
  <g filter="url(#alpha)">
<rect x="0" y="0" width="50" height="50" style="fill:rgb(0%,0%,0%);fill-opacity:0.870588;stroke:none;"/>
  </g>
</mask>
<clipPath id="clip5">
  <rect width="50" height="50"/>
</clipPath>
<g id="surface18" clip-path="url(#clip5)">
<path style=" stroke:none;fill-rule:evenodd;fill:rgb(94.901961%,94.901961%,94.901961%);fill-opacity:1;" d="M 26.296875 43.339844 C 24.445312 44.34375 22.46875 44.960938 20.367188 45.1875 C 22.410156 44.789062 24.386719 44.171875 26.296875 43.339844 Z M 26.296875 43.339844 "/>
</g>
</defs>
<g id="surface1">
<use xlink:href="#surface6" mask="url(#mask0)"/>
<path style=" stroke:none;fill-rule:evenodd;fill:rgb(99.607843%,99.607843%,99.607843%);fill-opacity:1;" d="M 44.515625 8.726562 C 45.027344 8.679688 45.476562 8.828125 45.859375 9.167969 C 46.214844 9.460938 46.46875 9.824219 46.617188 10.261719 C 46.714844 10.78125 46.585938 11.238281 46.230469 11.628906 C 45.304688 12.5 44.355469 13.34375 43.386719 14.164062 C 42.832031 14.546875 42.273438 14.921875 41.707031 15.289062 C 39.886719 16.699219 38.054688 18.09375 36.210938 19.46875 C 35.75 19.835938 35.292969 20.214844 34.839844 20.59375 C 34.128906 21.3125 33.367188 21.972656 32.5625 22.574219 C 31.617188 21.804688 30.621094 21.109375 29.574219 20.488281 C 29.558594 20.453125 29.574219 20.421875 29.609375 20.402344 C 31.429688 18.851562 33.238281 17.285156 35.035156 15.699219 C 37.503906 13.636719 40.042969 11.660156 42.644531 9.769531 C 43.039062 9.488281 43.445312 9.222656 43.867188 8.976562 C 44.078125 8.875 44.296875 8.792969 44.515625 8.726562 Z M 44.515625 8.726562 "/>
<path style=" stroke:none;fill-rule:evenodd;fill:rgb(2.745098%,2.745098%,3.137255%);fill-opacity:1;" d="M 43.769531 9.925781 C 44.40625 9.898438 44.816406 10.1875 45.007812 10.789062 C 45.0625 11.46875 44.761719 11.886719 44.105469 12.050781 C 43.433594 12.105469 43.011719 11.804688 42.847656 11.148438 C 42.820312 10.484375 43.128906 10.078125 43.769531 9.925781 Z M 43.769531 9.925781 "/>
<path style=" stroke:none;fill-rule:evenodd;fill:rgb(98.431373%,98.431373%,98.431373%);fill-opacity:1;" d="M 43.796875 10.40625 C 44.164062 10.375 44.410156 10.535156 44.527344 10.886719 C 44.523438 11.386719 44.273438 11.613281 43.769531 11.570312 C 43.351562 11.390625 43.234375 11.089844 43.421875 10.667969 C 43.523438 10.542969 43.644531 10.453125 43.796875 10.40625 Z M 43.796875 10.40625 "/>
<path style=" stroke:none;fill-rule:evenodd;fill:rgb(99.215686%,99.215686%,99.215686%);fill-opacity:1;" d="M 26.105469 22.335938 C 24.449219 21.382812 22.695312 20.648438 20.847656 20.140625 C 20.523438 20.117188 20.207031 20.132812 19.886719 20.1875 C 18.347656 20.453125 16.875 20.925781 15.46875 21.601562 C 13.007812 22.796875 10.804688 24.351562 8.855469 26.273438 C 8.492188 26.664062 8.152344 27.070312 7.835938 27.496094 C 7.765625 27.242188 7.695312 26.988281 7.621094 26.726562 C 8.179688 25.957031 8.800781 25.242188 9.492188 24.578125 C 10.140625 23.984375 10.8125 23.425781 11.511719 22.898438 C 12.375 22.257812 13.238281 21.621094 14.101562 20.980469 C 14.234375 20.835938 14.226562 20.699219 14.078125 20.570312 C 13.964844 20.523438 13.855469 20.523438 13.742188 20.570312 C 12.835938 21.277344 11.925781 21.972656 11.003906 22.660156 C 9.941406 23.484375 8.96875 24.40625 8.089844 25.433594 C 7.894531 25.664062 7.710938 25.90625 7.539062 26.152344 C 7.492188 25.9375 7.460938 25.722656 7.441406 25.503906 C 7.425781 25.152344 7.425781 24.800781 7.441406 24.449219 C 8.445312 23.148438 9.625 22.039062 10.980469 21.125 C 12.210938 20.378906 13.515625 19.792969 14.894531 19.371094 C 16.214844 18.964844 17.550781 18.628906 18.902344 18.363281 C 19.058594 18.613281 19.285156 18.773438 19.574219 18.84375 C 21.832031 19.046875 23.976562 19.644531 26.007812 20.644531 C 26.457031 20.875 26.902344 21.105469 27.351562 21.339844 C 26.9375 21.675781 26.523438 22.007812 26.105469 22.335938 Z M 26.105469 22.335938 "/>
<path style=" stroke:none;fill-rule:evenodd;fill:rgb(62.745098%,56.862745%,58.823529%);fill-opacity:1;" d="M 26.105469 22.335938 C 24.5 23.644531 22.789062 24.800781 20.96875 25.804688 C 20.839844 25.9375 20.847656 26.066406 20.992188 26.1875 C 21.050781 26.222656 21.117188 26.230469 21.183594 26.210938 C 22.503906 25.554688 23.765625 24.808594 24.976562 23.980469 C 25.578125 23.554688 26.179688 23.128906 26.777344 22.695312 C 27.351562 23.078125 27.921875 23.472656 28.480469 23.882812 C 28.972656 24.285156 29.453125 24.695312 29.921875 25.121094 C 29.742188 25.363281 29.730469 25.621094 29.886719 25.886719 C 30.113281 26.167969 30.382812 26.214844 30.6875 26.03125 C 31.394531 26.867188 31.886719 27.820312 32.164062 28.886719 C 32.414062 30.136719 32.195312 31.296875 31.515625 32.371094 C 31.160156 32.871094 30.769531 33.339844 30.339844 33.785156 C 28.972656 35.089844 27.457031 36.191406 25.792969 37.085938 C 23.554688 38.328125 21.175781 39.199219 18.664062 39.703125 C 18.757812 39.714844 18.855469 39.71875 18.949219 39.714844 C 17.121094 39.789062 15.296875 39.699219 13.476562 39.4375 C 13.039062 39.367188 12.609375 39.285156 12.183594 39.1875 C 11.777344 38.949219 11.386719 38.675781 11.003906 38.359375 C 9.992188 37.378906 9.066406 36.324219 8.234375 35.203125 C 8.214844 35.175781 8.195312 35.175781 8.171875 35.203125 C 8.199219 35.113281 8.226562 35.023438 8.257812 34.9375 C 8.277344 34.988281 8.3125 35.019531 8.367188 35.035156 C 8.40625 35.035156 8.433594 35.015625 8.4375 34.972656 C 8.40625 34.894531 8.367188 34.820312 8.328125 34.746094 C 8.503906 33.855469 8.765625 32.992188 9.109375 32.152344 C 9.125 32.121094 9.140625 32.121094 9.15625 32.152344 C 9.316406 32.480469 9.496094 32.796875 9.6875 33.101562 C 9.976562 33.171875 10.117188 33.054688 10.105469 32.753906 C 9.882812 32.320312 9.671875 31.886719 9.46875 31.445312 C 9.710938 30.960938 10.011719 30.519531 10.371094 30.113281 C 10.675781 30.898438 11.089844 31.621094 11.617188 32.273438 C 12.40625 33.214844 13.285156 34.066406 14.246094 34.828125 C 14.382812 34.890625 14.507812 34.867188 14.617188 34.769531 C 14.667969 34.679688 14.664062 34.589844 14.605469 34.503906 C 13.625 33.710938 12.722656 32.832031 11.90625 31.863281 C 11.410156 31.234375 11.007812 30.546875 10.695312 29.800781 C 10.886719 29.570312 11.097656 29.351562 11.316406 29.140625 C 12.035156 28.507812 12.804688 27.941406 13.621094 27.449219 C 13.933594 28.808594 14.351562 30.136719 14.882812 31.433594 C 15.273438 32.261719 15.84375 32.941406 16.597656 33.460938 C 17.296875 33.921875 18.015625 34.347656 18.757812 34.734375 C 18.878906 34.75 18.972656 34.707031 19.035156 34.601562 C 19.078125 34.457031 19.042969 34.34375 18.925781 34.253906 C 18.230469 33.808594 17.542969 33.351562 16.863281 32.886719 C 16.492188 32.601562 16.160156 32.277344 15.867188 31.914062 C 15.613281 31.535156 15.398438 31.132812 15.21875 30.714844 C 14.851562 29.804688 14.523438 28.886719 14.234375 27.953125 C 14.179688 27.710938 14.125 27.464844 14.078125 27.21875 C 14.082031 27.203125 14.089844 27.1875 14.101562 27.171875 C 14.746094 26.808594 15.410156 26.484375 16.09375 26.199219 C 16.238281 27.945312 16.746094 29.578125 17.617188 31.097656 C 17.871094 31.535156 18.144531 31.957031 18.433594 32.371094 C 18.609375 32.507812 18.769531 32.492188 18.914062 32.320312 C 18.949219 32.261719 18.957031 32.195312 18.9375 32.128906 C 17.59375 30.335938 16.804688 28.320312 16.574219 26.082031 C 16.582031 26.054688 16.589844 26.03125 16.597656 26.007812 C 17.296875 25.738281 18.007812 25.511719 18.734375 25.324219 C 18.832031 25.230469 18.832031 25.132812 18.734375 25.035156 C 18.664062 25.019531 18.589844 25.019531 18.519531 25.035156 C 17.855469 25.203125 17.199219 25.390625 16.550781 25.601562 C 16.472656 24.503906 16.777344 23.535156 17.476562 22.695312 C 17.609375 22.542969 17.746094 22.390625 17.882812 22.238281 C 18.089844 22.054688 18.289062 21.863281 18.484375 21.664062 C 18.515625 21.53125 18.460938 21.449219 18.328125 21.421875 C 18.265625 21.4375 18.207031 21.464844 18.160156 21.507812 C 17.921875 21.726562 17.6875 21.949219 17.449219 22.167969 C 16.984375 22.640625 16.621094 23.183594 16.371094 23.800781 C 16.167969 24.445312 16.066406 25.113281 16.070312 25.792969 C 15.378906 26.058594 14.699219 26.359375 14.042969 26.703125 C 14.027344 26.320312 14.027344 25.9375 14.042969 25.550781 C 14.097656 24.851562 14.167969 24.152344 14.246094 23.453125 C 14.277344 23.273438 14.203125 23.203125 14.03125 23.234375 C 13.996094 23.246094 13.96875 23.265625 13.945312 23.296875 C 13.710938 24.507812 13.578125 25.730469 13.550781 26.96875 C 12.445312 27.582031 11.429688 28.316406 10.5 29.175781 C 10.433594 29.007812 10.378906 28.832031 10.34375 28.648438 C 10.269531 28.28125 10.207031 27.914062 10.152344 27.542969 C 10.074219 27.464844 9.980469 27.449219 9.878906 27.507812 C 9.847656 27.542969 9.832031 27.582031 9.828125 27.628906 C 9.902344 28.222656 10.007812 28.8125 10.152344 29.394531 C 10.167969 29.441406 10.167969 29.488281 10.152344 29.535156 C 9.785156 29.933594 9.453125 30.359375 9.15625 30.808594 C 8.605469 29.75 8.164062 28.644531 7.835938 27.496094 C 8.152344 27.070312 8.492188 26.664062 8.855469 26.273438 C 10.804688 24.351562 13.007812 22.796875 15.46875 21.601562 C 16.875 20.925781 18.347656 20.453125 19.886719 20.1875 C 20.207031 20.132812 20.523438 20.117188 20.847656 20.140625 C 22.695312 20.648438 24.449219 21.382812 26.105469 22.335938 Z M 26.105469 22.335938 "/>
<path style=" stroke:none;fill-rule:evenodd;fill:rgb(99.607843%,99.215686%,99.607843%);fill-opacity:1;" d="M 29.921875 25.121094 C 29.453125 24.695312 28.972656 24.285156 28.480469 23.882812 C 27.921875 23.472656 27.351562 23.078125 26.777344 22.695312 C 27.191406 22.359375 27.617188 22.03125 28.046875 21.710938 C 29.148438 22.289062 30.199219 22.945312 31.191406 23.679688 C 31.21875 23.691406 31.222656 23.707031 31.203125 23.726562 C 30.753906 24.175781 30.324219 24.640625 29.921875 25.121094 Z M 29.921875 25.121094 "/>
<path style=" stroke:none;fill-rule:evenodd;fill:rgb(99.607843%,99.607843%,99.607843%);fill-opacity:1;" d="M 18.949219 39.714844 C 18.855469 39.71875 18.757812 39.714844 18.664062 39.703125 C 21.175781 39.199219 23.554688 38.328125 25.792969 37.085938 C 27.457031 36.191406 28.972656 35.089844 30.339844 33.785156 C 30.769531 33.339844 31.160156 32.871094 31.515625 32.371094 C 32.195312 31.296875 32.414062 30.136719 32.164062 28.886719 C 31.886719 27.820312 31.394531 26.867188 30.6875 26.03125 C 31.128906 25.480469 31.597656 24.953125 32.09375 24.449219 C 33.261719 25.457031 34.0625 26.703125 34.492188 28.191406 C 34.871094 29.824219 34.625 31.351562 33.75 32.777344 C 33.011719 33.9375 32.097656 34.941406 31 35.789062 C 28.613281 37.566406 25.945312 38.734375 23.007812 39.292969 C 21.667969 39.539062 20.3125 39.679688 18.949219 39.714844 Z M 18.949219 39.714844 "/>
<path style=" stroke:none;fill-rule:evenodd;fill:rgb(98.431373%,98.431373%,98.431373%);fill-opacity:1;" d="M 6.902344 25.097656 C 6.921875 25.324219 6.933594 25.554688 6.9375 25.792969 C 6.976562 26.144531 7.015625 26.496094 7.058594 26.847656 C 6.589844 27.515625 6.179688 28.21875 5.832031 28.960938 C 5.6875 28.265625 5.640625 27.5625 5.6875 26.847656 C 6.0625 26.242188 6.464844 25.65625 6.902344 25.097656 Z M 6.902344 25.097656 "/>
<path style=" stroke:none;fill-rule:evenodd;fill:rgb(98.823529%,98.823529%,98.823529%);fill-opacity:1;" d="M 7.40625 28.191406 C 6.757812 29.269531 6.503906 30.429688 6.636719 31.671875 C 6.367188 30.972656 6.140625 30.261719 5.953125 29.535156 C 5.9375 29.488281 5.9375 29.441406 5.953125 29.394531 C 6.300781 28.664062 6.707031 27.976562 7.175781 27.328125 C 7.253906 27.617188 7.332031 27.90625 7.40625 28.191406 Z M 7.40625 28.191406 "/>
<path style=" stroke:none;fill-rule:evenodd;fill:rgb(62.745098%,56.862745%,58.823529%);fill-opacity:1;" d="M 7.40625 28.191406 C 7.796875 29.308594 8.261719 30.398438 8.796875 31.457031 C 8.421875 32.269531 8.125 33.109375 7.898438 33.976562 C 7.433594 33.234375 7.015625 32.464844 6.636719 31.671875 C 6.503906 30.429688 6.757812 29.269531 7.40625 28.191406 Z M 7.40625 28.191406 "/>
<path style=" stroke:none;fill-rule:evenodd;fill:rgb(98.823529%,98.823529%,98.823529%);fill-opacity:1;" d="M 6.949219 32.824219 C 7.152344 33.414062 7.421875 33.964844 7.765625 34.480469 C 7.734375 34.714844 7.691406 34.949219 7.632812 35.175781 C 7.59375 35.449219 7.707031 35.574219 7.980469 35.550781 C 8.117188 35.476562 8.179688 35.359375 8.171875 35.203125 C 8.195312 35.175781 8.214844 35.175781 8.234375 35.203125 C 9.066406 36.324219 9.992188 37.378906 11.003906 38.359375 C 11.386719 38.675781 11.777344 38.949219 12.183594 39.1875 C 10.390625 38.835938 8.742188 38.152344 7.238281 37.132812 C 6.332031 36.5 5.589844 35.710938 5.015625 34.769531 C 4.445312 33.703125 4.214844 32.570312 4.320312 31.359375 C 4.539062 32.328125 4.941406 33.207031 5.519531 34 C 6.152344 34.824219 6.820312 35.621094 7.523438 36.390625 C 7.726562 36.484375 7.890625 36.441406 8.015625 36.257812 C 8.054688 36.179688 8.0625 36.101562 8.042969 36.019531 C 7.546875 35.378906 7.035156 34.753906 6.503906 34.144531 C 5.691406 33.179688 5.09375 32.089844 4.703125 30.882812 C 4.625 30.566406 4.558594 30.25 4.5 29.933594 C 4.675781 29.007812 4.984375 28.132812 5.425781 27.304688 C 5.402344 28.011719 5.472656 28.707031 5.628906 29.394531 C 5.417969 29.972656 5.214844 30.558594 5.015625 31.144531 C 4.992188 31.289062 5.046875 31.335938 5.183594 31.289062 C 5.359375 30.8125 5.546875 30.339844 5.75 29.871094 C 5.902344 30.378906 6.066406 30.882812 6.242188 31.386719 C 6.457031 31.875 6.695312 32.355469 6.949219 32.824219 Z M 6.949219 32.824219 "/>
<path style=" stroke:none;fill-rule:evenodd;fill:rgb(61.960784%,56.470588%,58.039216%);fill-opacity:1;" d="M 6.949219 32.824219 C 7.246094 33.285156 7.535156 33.75 7.824219 34.21875 C 7.832031 34.3125 7.8125 34.402344 7.765625 34.480469 C 7.421875 33.964844 7.152344 33.414062 6.949219 32.824219 Z M 6.949219 32.824219 "/>
<path style=" stroke:none;fill-rule:evenodd;fill:rgb(98.823529%,98.823529%,98.823529%);fill-opacity:1;" d="M 33.570312 35.515625 C 32.441406 37.652344 30.871094 39.398438 28.863281 40.757812 C 27.65625 41.554688 26.378906 42.21875 25.023438 42.75 C 24.992188 42.765625 24.960938 42.765625 24.929688 42.75 C 24.597656 42.339844 24.28125 41.921875 23.980469 41.492188 C 23.804688 41.226562 23.6875 40.9375 23.632812 40.625 C 27.019531 39.976562 30.027344 38.554688 32.65625 36.367188 C 32.957031 36.074219 33.261719 35.792969 33.570312 35.515625 Z M 33.570312 35.515625 "/>
<use xlink:href="#surface9" mask="url(#mask1)"/>
<path style=" stroke:none;fill-rule:evenodd;fill:rgb(98.823529%,98.823529%,98.823529%);fill-opacity:1;" d="M 5.339844 37.195312 C 6.085938 37.894531 6.910156 38.492188 7.8125 38.980469 C 8.15625 39.152344 8.496094 39.324219 8.832031 39.5 C 8.980469 40.421875 9.253906 41.308594 9.660156 42.152344 C 9.648438 42.1875 9.636719 42.222656 9.625 42.257812 C 9.242188 41.925781 8.875 41.574219 8.519531 41.203125 C 7.929688 40.570312 7.34375 39.929688 6.769531 39.28125 C 6.222656 38.632812 5.746094 37.9375 5.339844 37.195312 Z M 5.339844 37.195312 "/>
<use xlink:href="#surface12" mask="url(#mask2)"/>
<use xlink:href="#surface15" mask="url(#mask3)"/>
<path style=" stroke:none;fill-rule:evenodd;fill:rgb(98.823529%,98.823529%,98.823529%);fill-opacity:1;" d="M 9.542969 39.761719 C 10.332031 40.085938 11.148438 40.324219 11.988281 40.484375 C 11.996094 41.101562 12.109375 41.703125 12.324219 42.28125 C 12.222656 42.3125 12.117188 42.316406 12.015625 42.292969 C 11.515625 42.242188 11.019531 42.1875 10.527344 42.125 C 10.121094 41.371094 9.792969 40.582031 9.542969 39.761719 Z M 9.542969 39.761719 "/>
<path style=" stroke:none;fill-rule:evenodd;fill:rgb(2.745098%,2.745098%,3.137255%);fill-opacity:1;" d="M 27.496094 40.410156 C 27.832031 40.390625 27.964844 40.542969 27.890625 40.867188 C 27.863281 40.925781 27.820312 40.96875 27.761719 41 C 26.976562 41.320312 26.191406 41.640625 25.40625 41.957031 C 25.160156 41.976562 25.0625 41.859375 25.109375 41.609375 C 25.898438 41.195312 26.691406 40.792969 27.496094 40.410156 Z M 27.496094 40.410156 "/>
<path style=" stroke:none;fill-rule:evenodd;fill:rgb(99.215686%,99.215686%,99.215686%);fill-opacity:1;" d="M 12.757812 40.652344 C 13.449219 40.777344 14.144531 40.875 14.847656 40.9375 C 14.921875 41.417969 15.042969 41.886719 15.207031 42.34375 C 14.597656 42.394531 13.992188 42.410156 13.382812 42.390625 C 13.054688 41.851562 12.847656 41.273438 12.757812 40.652344 Z M 12.757812 40.652344 "/>
<path style=" stroke:none;fill-rule:evenodd;fill:rgb(98.431373%,98.431373%,98.431373%);fill-opacity:1;" d="M 18.6875 41.15625 C 18.871094 41.136719 19.054688 41.121094 19.238281 41.105469 C 19.808594 41.089844 20.375 41.0625 20.941406 41.023438 C 21.488281 40.964844 22.03125 40.90625 22.574219 40.84375 C 22.597656 40.980469 22.628906 41.117188 22.671875 41.25 C 22.664062 41.277344 22.648438 41.296875 22.625 41.3125 C 21.871094 41.492188 21.121094 41.667969 20.367188 41.839844 C 20.015625 41.90625 19.664062 41.964844 19.3125 42.019531 C 19.246094 42.019531 19.191406 41.996094 19.15625 41.945312 C 18.984375 41.691406 18.828125 41.425781 18.6875 41.15625 Z M 18.6875 41.15625 "/>
<path style=" stroke:none;fill-rule:evenodd;fill:rgb(99.215686%,99.215686%,99.215686%);fill-opacity:1;" d="M 15.519531 41.011719 C 16.285156 41.050781 17.054688 41.085938 17.824219 41.105469 C 17.890625 41.46875 18.027344 41.804688 18.230469 42.113281 C 18.03125 42.152344 17.832031 42.179688 17.628906 42.199219 C 17.105469 42.222656 16.582031 42.25 16.058594 42.28125 C 15.992188 42.273438 15.921875 42.265625 15.855469 42.257812 C 15.699219 41.855469 15.585938 41.4375 15.519531 41.011719 Z M 15.519531 41.011719 "/>
<path style=" stroke:none;fill-rule:evenodd;fill:rgb(48.627451%,48.627451%,48.627451%);fill-opacity:1;" d="M 19.238281 41.105469 C 19.054688 41.121094 18.871094 41.136719 18.6875 41.15625 C 18.675781 41.152344 18.664062 41.144531 18.664062 41.128906 C 18.855469 41.105469 19.046875 41.097656 19.238281 41.105469 Z M 19.238281 41.105469 "/>
<path style=" stroke:none;fill-rule:evenodd;fill:rgb(98.823529%,98.823529%,98.823529%);fill-opacity:1;" d="M 22.910156 41.996094 C 22.964844 41.988281 23.007812 42.003906 23.042969 42.042969 C 23.277344 42.425781 23.542969 42.785156 23.835938 43.121094 C 23.847656 43.144531 23.851562 43.167969 23.847656 43.195312 C 22.867188 43.511719 21.875 43.792969 20.871094 44.046875 C 20.789062 44.074219 20.71875 44.054688 20.667969 43.988281 C 20.34375 43.582031 20.039062 43.164062 19.742188 42.738281 C 20.8125 42.535156 21.867188 42.289062 22.910156 41.996094 Z M 22.910156 41.996094 "/>
<path style=" stroke:none;fill-rule:evenodd;fill:rgb(98.431373%,98.431373%,98.431373%);fill-opacity:1;" d="M 10.742188 42.59375 C 10.761719 42.578125 10.785156 42.570312 10.8125 42.570312 C 11.398438 42.683594 11.980469 42.792969 12.566406 42.894531 C 12.75 43.269531 12.957031 43.628906 13.191406 43.976562 C 12.472656 43.832031 11.78125 43.589844 11.125 43.253906 C 11 43.03125 10.871094 42.8125 10.742188 42.59375 Z M 10.742188 42.59375 "/>
<path style=" stroke:none;fill-rule:evenodd;fill:rgb(98.823529%,98.823529%,98.823529%);fill-opacity:1;" d="M 18.445312 42.859375 C 18.542969 42.851562 18.632812 42.859375 18.722656 42.882812 C 19.058594 43.378906 19.429688 43.847656 19.839844 44.285156 C 18.949219 44.503906 18.042969 44.59375 17.125 44.550781 C 16.933594 44.347656 16.761719 44.125 16.609375 43.890625 C 16.441406 43.601562 16.285156 43.304688 16.144531 43.003906 C 16.914062 42.953125 17.683594 42.90625 18.445312 42.859375 Z M 18.445312 42.859375 "/>
<path style=" stroke:none;fill-rule:evenodd;fill:rgb(98.431373%,98.431373%,98.431373%);fill-opacity:1;" d="M 14.964844 43.027344 C 15.136719 43.019531 15.304688 43.027344 15.46875 43.050781 C 15.671875 43.546875 15.921875 44.015625 16.214844 44.457031 C 15.695312 44.417969 15.171875 44.359375 14.65625 44.285156 C 14.597656 44.277344 14.554688 44.25 14.523438 44.203125 C 14.25 43.835938 14 43.457031 13.765625 43.0625 C 14.171875 43.058594 14.570312 43.046875 14.964844 43.027344 Z M 14.964844 43.027344 "/>
<use xlink:href="#surface18" mask="url(#mask4)"/>
</g>
</svg>
