<?xml version="1.0" encoding="UTF-8"?>
<svg xmlns="http://www.w3.org/2000/svg" xmlns:xlink="http://www.w3.org/1999/xlink" width="50pt" height="50pt" viewBox="0 0 50 50" version="1.1">
<defs>
<filter id="alpha" filterUnits="objectBoundingBox" x="0%" y="0%" width="100%" height="100%">
  <feColorMatrix type="matrix" in="SourceGraphic" values="0 0 0 0 1 0 0 0 0 1 0 0 0 0 1 0 0 0 1 0"/>
</filter>
<mask id="mask0">
  <g filter="url(#alpha)">
<rect x="0" y="0" width="50" height="50" style="fill:rgb(0%,0%,0%);fill-opacity:0.984314;stroke:none;"/>
  </g>
</mask>
<clipPath id="clip1">
  <rect width="50" height="50"/>
</clipPath>
<g id="surface6" clip-path="url(#clip1)">
<path style=" stroke:none;fill-rule:evenodd;fill:rgb(0.392157%,0.392157%,0.392157%);fill-opacity:1;" d="M 18.832031 3.527344 C 19.519531 3.550781 20.074219 3.835938 20.488281 4.390625 C 20.691406 4.695312 20.867188 5.015625 21.015625 5.351562 C 21.273438 6.054688 21.527344 6.757812 21.785156 7.460938 C 21.800781 7.542969 21.851562 7.589844 21.929688 7.605469 C 24.074219 7.195312 26.226562 6.820312 28.382812 6.476562 C 29.660156 6.417969 30.941406 6.386719 32.222656 6.382812 C 33.285156 6.207031 34.359375 6.109375 35.4375 6.09375 C 36.410156 5.90625 37.386719 5.730469 38.363281 5.566406 C 39.742188 5.425781 41.070312 5.617188 42.347656 6.140625 C 42.820312 6.40625 43.132812 6.796875 43.28125 7.316406 C 43.289062 8.148438 43.402344 8.964844 43.617188 9.765625 C 43.914062 10.542969 44.203125 11.328125 44.480469 12.117188 C 44.539062 12.339844 44.59375 12.566406 44.648438 12.789062 C 44.621094 12.894531 44.589844 12.996094 44.554688 13.101562 C 44.976562 13.984375 45.183594 14.921875 45.175781 15.90625 C 45.441406 17.117188 45.671875 18.332031 45.875 19.554688 C 45.9375 20.433594 45.980469 21.3125 45.992188 22.191406 C 45.902344 24.304688 45.894531 26.414062 45.96875 28.527344 C 46.148438 30.125 46.324219 31.726562 46.496094 33.324219 C 46.660156 34.296875 46.867188 35.253906 47.121094 36.203125 C 47.335938 36.988281 47.253906 37.742188 46.882812 38.460938 C 46.355469 39.015625 45.707031 39.253906 44.9375 39.179688 C 42.613281 39.046875 40.285156 38.949219 37.957031 38.890625 C 33.304688 38.964844 28.65625 39.183594 24.015625 39.539062 C 20.910156 39.792969 17.808594 40.0625 14.707031 40.355469 C 11.445312 40.597656 8.183594 40.691406 4.917969 40.644531 C 4.339844 40.433594 3.980469 40.023438 3.839844 39.417969 C 3.757812 39.105469 3.710938 38.785156 3.695312 38.460938 C 3.679688 33.742188 3.679688 29.023438 3.695312 24.304688 C 3.492188 23.0625 3.238281 21.832031 2.925781 20.609375 C 2.835938 20.015625 2.738281 19.425781 2.640625 18.832031 C 2.625 18.582031 2.511719 18.390625 2.304688 18.257812 C 2.261719 18.183594 2.230469 18.101562 2.207031 18.019531 C 2.136719 17.328125 2.136719 16.640625 2.207031 15.953125 C 2.398438 15.226562 2.558594 14.488281 2.6875 13.746094 C 2.753906 12.753906 2.832031 11.761719 2.925781 10.773438 C 2.941406 9.894531 2.960938 9.011719 2.976562 8.132812 C 3.140625 7.210938 3.265625 6.28125 3.359375 5.351562 C 3.476562 5.085938 3.675781 4.917969 3.957031 4.847656 C 4.402344 4.789062 4.851562 4.757812 5.300781 4.75 C 6.796875 4.417969 8.300781 4.128906 9.8125 3.886719 C 10.417969 3.820312 11.027344 3.78125 11.636719 3.765625 C 13.234375 3.863281 14.835938 3.902344 16.433594 3.886719 C 17.246094 3.800781 18.046875 3.679688 18.832031 3.527344 Z M 11.109375 39.324219 C 9.183594 39.425781 7.246094 39.480469 5.300781 39.492188 C 5.242188 39.480469 5.195312 39.457031 5.160156 39.417969 C 5.734375 39.429688 6.3125 39.414062 6.886719 39.371094 C 8.292969 39.355469 9.699219 39.339844 11.109375 39.324219 Z M 11.109375 39.324219 "/>
</g>
<mask id="mask1">
  <g filter="url(#alpha)">
<rect x="0" y="0" width="50" height="50" style="fill:rgb(0%,0%,0%);fill-opacity:0.878431;stroke:none;"/>
  </g>
</mask>
<clipPath id="clip2">
  <rect width="50" height="50"/>
</clipPath>
<g id="surface9" clip-path="url(#clip2)">
<path style=" stroke:none;fill-rule:evenodd;fill:rgb(75.686275%,71.372549%,71.764706%);fill-opacity:1;" d="M 11.253906 39.277344 C 11.253906 39.292969 11.253906 39.308594 11.253906 39.324219 C 11.203125 39.324219 11.15625 39.324219 11.109375 39.324219 C 9.699219 39.339844 8.292969 39.355469 6.886719 39.371094 C 8.332031 39.300781 9.789062 39.269531 11.253906 39.277344 Z M 11.253906 39.277344 "/>
</g>
</defs>
<g id="surface1">
<use xlink:href="#surface6" mask="url(#mask0)"/>
<path style=" stroke:none;fill-rule:evenodd;fill:rgb(62.745098%,56.862745%,58.823529%);fill-opacity:1;" d="M 18.546875 4.726562 C 18.996094 4.683594 19.355469 4.84375 19.625 5.207031 C 19.707031 5.351562 19.785156 5.496094 19.867188 5.636719 C 20.183594 6.527344 20.519531 7.40625 20.875 8.277344 C 21.238281 8.726562 21.710938 8.878906 22.289062 8.734375 C 24.375 8.328125 26.472656 7.960938 28.574219 7.628906 C 29.019531 7.582031 29.46875 7.558594 29.917969 7.558594 C 31.179688 7.671875 32.425781 7.601562 33.660156 7.339844 C 34.316406 7.324219 34.972656 7.308594 35.628906 7.292969 C 36.507812 7.125 37.390625 6.949219 38.269531 6.765625 C 39.152344 6.714844 40.03125 6.746094 40.90625 6.863281 C 41.242188 6.953125 41.5625 7.078125 41.867188 7.246094 C 41.992188 7.339844 42.078125 7.457031 42.128906 7.605469 C 42.144531 8.039062 42.167969 8.46875 42.203125 8.902344 C 41.707031 8.707031 41.195312 8.554688 40.667969 8.445312 C 37.867188 8.414062 35.070312 8.414062 32.269531 8.445312 C 31.433594 8.492188 30.601562 8.589844 29.773438 8.734375 C 28.335938 9.011719 26.898438 9.285156 25.457031 9.550781 C 24.898438 9.617188 24.410156 9.832031 23.992188 10.195312 C 23.777344 10.480469 23.695312 10.800781 23.753906 11.15625 C 23.824219 11.5625 23.921875 11.960938 24.039062 12.355469 C 24.046875 12.492188 24.054688 12.628906 24.0625 12.765625 C 23.972656 13.53125 23.910156 14.300781 23.871094 15.066406 C 23.34375 15.054688 22.816406 15.054688 22.289062 15.066406 C 19.929688 15.382812 17.578125 15.753906 15.234375 16.171875 C 12.457031 16.460938 9.675781 16.671875 6.886719 16.792969 C 5.703125 16.820312 4.519531 16.828125 3.335938 16.820312 C 3.320312 16.21875 3.421875 15.644531 3.648438 15.089844 C 3.746094 14.613281 3.828125 14.136719 3.886719 13.652344 C 4.074219 11.738281 4.171875 9.816406 4.175781 7.894531 C 4.214844 7.582031 4.28125 7.28125 4.367188 6.980469 C 4.390625 6.644531 4.398438 6.308594 4.390625 5.972656 C 4.710938 5.980469 5.03125 5.972656 5.351562 5.949219 C 6.582031 5.6875 7.8125 5.433594 9.046875 5.183594 C 10.347656 4.976562 11.660156 4.914062 12.980469 4.992188 C 14.433594 5.144531 15.890625 5.144531 17.347656 4.992188 C 17.753906 4.917969 18.15625 4.828125 18.546875 4.726562 Z M 18.546875 4.726562 "/>
<path style=" stroke:none;fill-rule:evenodd;fill:rgb(94.509804%,92.941176%,90.196078%);fill-opacity:1;" d="M 11.253906 39.277344 C 9.789062 39.269531 8.332031 39.300781 6.886719 39.371094 C 6.3125 39.414062 5.734375 39.429688 5.160156 39.417969 C 5.089844 39.402344 5.050781 39.351562 5.039062 39.277344 C 4.949219 38.898438 4.902344 38.511719 4.894531 38.125 C 4.871094 33.582031 4.871094 29.039062 4.894531 24.496094 C 4.738281 23.183594 4.480469 21.886719 4.125 20.609375 C 4.007812 19.773438 3.871094 18.941406 3.71875 18.113281 C 4.429688 18.035156 5.148438 17.988281 5.878906 17.96875 C 7.09375 17.933594 8.308594 17.894531 9.523438 17.851562 C 11.253906 17.710938 12.980469 17.566406 14.707031 17.417969 C 17.210938 16.972656 19.722656 16.570312 22.242188 16.21875 C 22.714844 16.1875 23.183594 16.195312 23.65625 16.242188 C 23.988281 16.222656 24.316406 16.183594 24.640625 16.121094 C 24.777344 16.050781 24.878906 15.945312 24.953125 15.8125 C 24.984375 14.957031 25.066406 14.109375 25.191406 13.269531 C 25.28125 12.570312 25.1875 11.898438 24.902344 11.253906 C 24.871094 11.15625 24.871094 11.058594 24.902344 10.964844 C 25.121094 10.839844 25.351562 10.75 25.601562 10.699219 C 27.070312 10.414062 28.542969 10.125 30.015625 9.835938 C 30.953125 9.703125 31.898438 9.625 32.84375 9.597656 C 35.46875 9.566406 38.089844 9.566406 40.714844 9.597656 C 41.070312 9.730469 41.421875 9.875 41.769531 10.027344 C 41.976562 10.078125 42.1875 10.117188 42.394531 10.148438 C 42.484375 10.617188 42.585938 11.078125 42.707031 11.539062 C 43.109375 12.554688 43.492188 13.582031 43.859375 14.609375 C 43.914062 15.269531 43.996094 15.925781 44.097656 16.578125 C 44.328125 17.53125 44.519531 18.492188 44.671875 19.457031 C 44.765625 20.277344 44.804688 21.101562 44.792969 21.929688 C 44.6875 24.144531 44.679688 26.359375 44.769531 28.574219 C 44.933594 30.144531 45.109375 31.710938 45.296875 33.277344 C 45.507812 34.46875 45.746094 35.652344 46.015625 36.828125 C 46.050781 37.050781 46.050781 37.277344 46.015625 37.5 C 45.921875 37.757812 45.738281 37.910156 45.464844 37.957031 C 43.6875 37.976562 41.910156 37.898438 40.140625 37.714844 C 38.265625 37.675781 36.394531 37.691406 34.523438 37.765625 C 27.90625 38.035156 21.300781 38.5 14.707031 39.15625 C 13.558594 39.230469 12.40625 39.269531 11.253906 39.277344 Z M 11.253906 39.277344 "/>
<path style=" stroke:none;fill-rule:evenodd;fill:rgb(69.019608%,67.843137%,65.882353%);fill-opacity:1;" d="M 5.878906 17.96875 C 5.148438 17.988281 4.429688 18.035156 3.71875 18.113281 C 3.675781 18.082031 3.660156 18.03125 3.671875 17.96875 C 4.40625 17.96875 5.140625 17.96875 5.878906 17.96875 Z M 5.878906 17.96875 "/>
<use xlink:href="#surface9" mask="url(#mask1)"/>
</g>
</svg>
