<?xml version="1.0" encoding="UTF-8"?>
<svg xmlns="http://www.w3.org/2000/svg" xmlns:xlink="http://www.w3.org/1999/xlink" width="50pt" height="50pt" viewBox="0 0 50 50" version="1.1">
<defs>
<filter id="alpha" filterUnits="objectBoundingBox" x="0%" y="0%" width="100%" height="100%">
  <feColorMatrix type="matrix" in="SourceGraphic" values="0 0 0 0 1 0 0 0 0 1 0 0 0 0 1 0 0 0 1 0"/>
</filter>
<mask id="mask0">
  <g filter="url(#alpha)">
<rect x="0" y="0" width="50" height="50" style="fill:rgb(0%,0%,0%);fill-opacity:0.992157;stroke:none;"/>
  </g>
</mask>
<clipPath id="clip1">
  <rect width="50" height="50"/>
</clipPath>
<g id="surface6" clip-path="url(#clip1)">
<path style=" stroke:none;fill-rule:evenodd;fill:rgb(0.392157%,0%,0%);fill-opacity:1;" d="M 20.800781 30.160156 C 20.855469 30.128906 20.910156 30.089844 20.957031 30.039062 C 20.964844 30 20.953125 29.96875 20.917969 29.945312 C 20.804688 29.59375 20.738281 29.234375 20.714844 28.863281 C 20.652344 28.03125 20.582031 27.199219 20.5 26.367188 C 20.472656 25.871094 20.453125 25.375 20.4375 24.878906 C 20.46875 22.871094 20.515625 20.863281 20.582031 18.855469 C 20.6875 17.980469 20.773438 17.101562 20.835938 16.214844 C 20.855469 14.019531 20.726562 11.835938 20.453125 9.660156 C 20.3125 8.789062 20.175781 7.917969 20.042969 7.046875 C 19.941406 5.953125 19.972656 4.863281 20.140625 3.78125 C 20.1875 3.625 20.28125 3.5 20.414062 3.410156 C 20.195312 3.335938 19.980469 3.253906 19.765625 3.15625 C 19.472656 3.027344 19.304688 2.804688 19.261719 2.484375 C 19.265625 2.335938 19.332031 2.21875 19.457031 2.136719 C 19.671875 2.023438 19.90625 1.96875 20.152344 1.980469 C 20.296875 1.980469 20.441406 1.992188 20.582031 2.015625 C 21.84375 2.3125 23.085938 2.679688 24.304688 3.121094 C 24.738281 3.304688 25.109375 3.574219 25.421875 3.925781 C 25.472656 4.007812 25.46875 4.085938 25.40625 4.164062 C 25.449219 4.25 25.460938 4.335938 25.445312 4.429688 C 25.097656 5.164062 24.914062 5.941406 24.890625 6.757812 C 24.871094 7.367188 24.878906 7.972656 24.914062 8.582031 C 25.234375 11.65625 25.421875 14.742188 25.480469 17.835938 C 25.457031 18.832031 25.421875 19.828125 25.371094 20.824219 C 25.355469 21.191406 25.355469 21.558594 25.371094 21.925781 C 25.5 23.6875 25.628906 25.449219 25.757812 27.207031 C 25.761719 27.609375 25.777344 28.007812 25.804688 28.410156 C 25.84375 28.738281 25.992188 29.003906 26.25 29.210938 C 27.167969 29.9375 28.070312 30.683594 28.960938 31.445312 C 29.832031 32.3125 30.390625 33.359375 30.628906 34.578125 C 30.78125 35.339844 30.871094 36.105469 30.894531 36.882812 C 30.949219 38.351562 30.894531 39.816406 30.726562 41.273438 C 30.570312 42.554688 30.203125 43.773438 29.621094 44.921875 C 29.371094 45.386719 29.054688 45.796875 28.671875 46.160156 C 28.28125 46.496094 27.824219 46.664062 27.304688 46.664062 C 25.546875 46.753906 23.792969 46.839844 22.035156 46.914062 C 21.511719 47.015625 21.050781 46.890625 20.65625 46.542969 C 19.582031 45.453125 18.777344 44.183594 18.242188 42.738281 C 17.332031 40.324219 17.078125 37.84375 17.476562 35.296875 C 17.753906 33.597656 18.527344 32.167969 19.792969 31.011719 C 20.125 30.722656 20.460938 30.441406 20.800781 30.160156 Z M 24.878906 3.851562 C 24.84375 3.882812 24.792969 3.898438 24.734375 3.902344 C 24.433594 3.863281 24.140625 3.804688 23.847656 3.71875 C 22.566406 3.363281 21.292969 2.976562 20.03125 2.554688 C 20.070312 2.523438 20.117188 2.503906 20.175781 2.496094 C 20.480469 2.457031 20.785156 2.46875 21.085938 2.519531 C 21.996094 2.734375 22.902344 2.976562 23.800781 3.242188 C 24.207031 3.371094 24.566406 3.574219 24.878906 3.851562 Z M 24.902344 3.875 C 25.023438 3.921875 25.023438 3.945312 24.902344 3.949219 C 24.902344 3.925781 24.902344 3.902344 24.902344 3.875 Z M 18.855469 40.625 C 19.101562 41.316406 19.332031 42.011719 19.550781 42.714844 C 19.238281 42.046875 19.007812 41.351562 18.855469 40.625 Z M 18.855469 40.625 "/>
</g>
<mask id="mask1">
  <g filter="url(#alpha)">
<rect x="0" y="0" width="50" height="50" style="fill:rgb(0%,0%,0%);fill-opacity:0.988235;stroke:none;"/>
  </g>
</mask>
<clipPath id="clip2">
  <rect width="50" height="50"/>
</clipPath>
<g id="surface9" clip-path="url(#clip2)">
<path style=" stroke:none;fill-rule:evenodd;fill:rgb(72.54902%,70.980392%,69.019608%);fill-opacity:1;" d="M 20.03125 2.554688 C 21.292969 2.976562 22.566406 3.363281 23.847656 3.71875 C 24.140625 3.804688 24.433594 3.863281 24.734375 3.902344 C 24.792969 3.898438 24.84375 3.882812 24.878906 3.851562 C 24.894531 3.851562 24.902344 3.859375 24.902344 3.875 C 24.902344 3.902344 24.902344 3.925781 24.902344 3.949219 C 24.878906 3.992188 24.84375 4.023438 24.796875 4.042969 C 24.714844 4.195312 24.632812 4.34375 24.542969 4.488281 C 24.113281 4.769531 23.640625 4.875 23.128906 4.800781 C 22.484375 4.707031 21.890625 4.484375 21.351562 4.128906 C 21.316406 4.089844 21.296875 4.042969 21.304688 3.984375 C 21.378906 3.5625 21.203125 3.339844 20.773438 3.3125 C 20.863281 3.164062 20.867188 3.019531 20.789062 2.867188 C 20.75 2.832031 20.707031 2.804688 20.65625 2.785156 C 20.429688 2.738281 20.214844 2.667969 20.007812 2.570312 C 20.011719 2.558594 20.019531 2.554688 20.03125 2.554688 Z M 20.03125 2.554688 "/>
</g>
<mask id="mask2">
  <g filter="url(#alpha)">
<rect x="0" y="0" width="50" height="50" style="fill:rgb(0%,0%,0%);fill-opacity:0.980392;stroke:none;"/>
  </g>
</mask>
<clipPath id="clip3">
  <rect width="50" height="50"/>
</clipPath>
<g id="surface12" clip-path="url(#clip3)">
<path style=" stroke:none;fill-rule:evenodd;fill:rgb(72.54902%,70.980392%,69.019608%);fill-opacity:1;" d="M 19.765625 3.15625 C 19.980469 3.253906 20.195312 3.335938 20.414062 3.410156 C 20.28125 3.5 20.1875 3.625 20.140625 3.78125 C 19.972656 4.863281 19.941406 5.953125 20.042969 7.046875 C 20.175781 7.917969 20.3125 8.789062 20.453125 9.660156 C 20.726562 11.835938 20.855469 14.019531 20.835938 16.214844 C 20.773438 17.101562 20.6875 17.980469 20.582031 18.855469 C 20.277344 15.144531 19.972656 11.429688 19.671875 7.71875 C 19.707031 6.195312 19.742188 4.675781 19.765625 3.15625 Z M 19.765625 3.15625 "/>
</g>
<mask id="mask3">
  <g filter="url(#alpha)">
<rect x="0" y="0" width="50" height="50" style="fill:rgb(0%,0%,0%);fill-opacity:0.760784;stroke:none;"/>
  </g>
</mask>
<clipPath id="clip4">
  <rect width="50" height="50"/>
</clipPath>
<g id="surface15" clip-path="url(#clip4)">
<path style=" stroke:none;fill-rule:evenodd;fill:rgb(68.235294%,66.666667%,64.705882%);fill-opacity:1;" d="M 20.917969 29.945312 C 20.953125 29.96875 20.964844 30 20.957031 30.039062 C 20.910156 30.089844 20.855469 30.128906 20.800781 30.160156 C 20.832031 30.085938 20.871094 30.015625 20.917969 29.945312 Z M 20.917969 29.945312 "/>
</g>
</defs>
<g id="surface1">
<use xlink:href="#surface6" mask="url(#mask0)"/>
<use xlink:href="#surface9" mask="url(#mask1)"/>
<use xlink:href="#surface12" mask="url(#mask2)"/>
<path style=" stroke:none;fill-rule:evenodd;fill:rgb(72.941176%,71.372549%,69.411765%);fill-opacity:1;" d="M 18.832031 37.648438 C 18.71875 37.648438 18.605469 37.648438 18.496094 37.648438 C 18.496094 37.394531 18.496094 37.136719 18.496094 36.882812 C 18.523438 35.894531 18.695312 34.9375 19.011719 34 C 19.300781 33.253906 19.71875 32.589844 20.257812 32.007812 C 20.765625 31.453125 21.328125 30.972656 21.953125 30.570312 C 22.027344 30.554688 22.035156 30.527344 21.976562 30.496094 C 22.242188 30.410156 22.359375 30.226562 22.324219 29.945312 C 22.300781 29.875 22.261719 29.820312 22.203125 29.777344 C 22.125 29.558594 22.070312 29.335938 22.035156 29.105469 C 21.90625 28.011719 21.804688 26.914062 21.722656 25.816406 C 21.707031 24.878906 21.707031 23.945312 21.722656 23.007812 C 21.765625 21.640625 21.796875 20.269531 21.820312 18.902344 C 21.890625 18.023438 21.960938 17.140625 22.035156 16.261719 C 22.105469 13.324219 21.867188 10.414062 21.316406 7.523438 C 21.15625 6.492188 21.144531 5.460938 21.28125 4.429688 C 22.03125 4.910156 22.855469 5.132812 23.75 5.089844 C 23.964844 5.050781 24.175781 4.992188 24.375 4.910156 C 24.382812 4.925781 24.390625 4.941406 24.398438 4.957031 C 24.238281 5.480469 24.140625 6.015625 24.101562 6.566406 C 24.082031 7.15625 24.082031 7.75 24.101562 8.339844 C 24.195312 9.726562 24.296875 11.109375 24.410156 12.492188 C 24.457031 13.871094 24.523438 15.246094 24.605469 16.621094 C 24.621094 17.359375 24.621094 18.09375 24.605469 18.832031 C 24.535156 19.59375 24.484375 20.359375 24.449219 21.125 C 24.460938 21.574219 24.480469 22.027344 24.507812 22.480469 C 24.644531 23.515625 24.707031 24.554688 24.699219 25.601562 C 24.796875 26.574219 24.863281 27.550781 24.890625 28.527344 C 24.929688 29.058594 25.152344 29.496094 25.550781 29.835938 C 26.359375 30.515625 27.167969 31.195312 27.976562 31.878906 C 29.035156 32.855469 29.640625 34.070312 29.789062 35.515625 C 29.859375 36 29.878906 36.488281 29.847656 36.976562 C 29.75 36.929688 29.644531 36.894531 29.535156 36.871094 C 28.894531 36.765625 28.246094 36.734375 27.59375 36.773438 C 26.535156 36.867188 25.476562 36.976562 24.425781 37.109375 C 23.382812 37.160156 22.34375 37.199219 21.304688 37.230469 C 20.511719 37.269531 19.730469 37.355469 18.949219 37.492188 C 18.878906 37.523438 18.839844 37.574219 18.832031 37.648438 Z M 18.832031 37.648438 "/>
<use xlink:href="#surface15" mask="url(#mask3)"/>
<path style=" stroke:none;fill-rule:evenodd;fill:rgb(34.509804%,33.72549%,32.54902%);fill-opacity:1;" d="M 21.976562 30.496094 C 22.035156 30.527344 22.027344 30.554688 21.953125 30.570312 C 21.914062 30.527344 21.921875 30.503906 21.976562 30.496094 Z M 21.976562 30.496094 "/>
<path style=" stroke:none;fill-rule:evenodd;fill:rgb(0.784314%,0.784314%,0.784314%);fill-opacity:1;" d="M 26.320312 33.90625 C 26.234375 33.695312 26.273438 33.515625 26.441406 33.367188 C 27.066406 32.941406 27.582031 33.050781 27.988281 33.6875 C 28.214844 34.144531 28.222656 34.597656 28.011719 35.058594 C 27.539062 35.667969 26.976562 35.777344 26.320312 35.382812 C 25.902344 35.023438 25.714844 34.574219 25.757812 34.027344 C 25.820312 33.890625 25.929688 33.820312 26.082031 33.808594 C 26.171875 33.816406 26.25 33.851562 26.320312 33.90625 Z M 26.320312 33.90625 "/>
<path style=" stroke:none;fill-rule:evenodd;fill:rgb(72.156863%,70.588235%,68.627451%);fill-opacity:1;" d="M 26.320312 33.90625 C 26.476562 34.054688 26.652344 34.082031 26.847656 33.988281 C 27.035156 33.773438 27.207031 33.785156 27.363281 34.027344 C 27.488281 34.242188 27.503906 34.464844 27.414062 34.699219 C 27.140625 35.015625 26.867188 35.015625 26.597656 34.699219 C 26.464844 34.511719 26.402344 34.300781 26.402344 34.074219 C 26.375 34.015625 26.347656 33.960938 26.320312 33.90625 Z M 26.320312 33.90625 "/>
<path style=" stroke:none;fill-rule:evenodd;fill:rgb(71.764706%,70.196078%,68.235294%);fill-opacity:1;" d="M 29.105469 37.648438 C 27.195312 37.65625 25.292969 37.648438 23.390625 37.625 C 24.546875 37.539062 25.699219 37.429688 26.847656 37.300781 C 27.640625 37.238281 28.429688 37.214844 29.226562 37.230469 C 29.375 37.234375 29.515625 37.261719 29.65625 37.3125 C 29.6875 37.363281 29.679688 37.410156 29.632812 37.445312 C 29.464844 37.535156 29.289062 37.601562 29.105469 37.648438 Z M 29.105469 37.648438 "/>
<path style=" stroke:none;fill-rule:evenodd;fill:rgb(54.901961%,49.019608%,47.058824%);fill-opacity:1;" d="M 18.496094 36.882812 C 18.496094 37.136719 18.496094 37.394531 18.496094 37.648438 C 18.605469 37.648438 18.71875 37.648438 18.832031 37.648438 C 18.832031 37.65625 18.832031 37.667969 18.832031 37.675781 C 18.710938 37.675781 18.589844 37.675781 18.472656 37.675781 C 18.464844 37.40625 18.472656 37.140625 18.496094 36.882812 Z M 18.496094 36.882812 "/>
<path style=" stroke:none;fill-rule:evenodd;fill:rgb(68.235294%,47.843137%,44.705882%);fill-opacity:1;" d="M 23.390625 37.625 C 25.292969 37.648438 27.195312 37.65625 29.105469 37.648438 C 29.070312 37.671875 29.03125 37.679688 28.984375 37.675781 C 26.960938 37.675781 24.9375 37.675781 22.910156 37.675781 C 23.066406 37.644531 23.226562 37.628906 23.390625 37.625 Z M 23.390625 37.625 "/>
<path style=" stroke:none;fill-rule:evenodd;fill:rgb(65.490196%,22.745098%,17.647059%);fill-opacity:1;" d="M 18.472656 37.675781 C 18.589844 37.675781 18.710938 37.675781 18.832031 37.675781 C 18.832031 37.84375 18.917969 37.941406 19.082031 37.960938 C 20.351562 37.757812 21.628906 37.664062 22.910156 37.675781 C 24.9375 37.675781 26.960938 37.675781 28.984375 37.675781 C 28.941406 37.695312 28.894531 37.707031 28.839844 37.710938 C 28.59375 37.71875 28.34375 37.726562 28.097656 37.734375 C 27.535156 37.835938 26.972656 37.949219 26.417969 38.070312 C 26.128906 38.125 25.84375 38.164062 25.550781 38.191406 C 24.191406 38.21875 22.832031 38.246094 21.472656 38.273438 C 21.023438 38.269531 20.574219 38.265625 20.128906 38.261719 C 19.570312 38.265625 19.042969 38.144531 18.542969 37.902344 C 18.480469 37.839844 18.457031 37.765625 18.472656 37.675781 Z M 18.472656 37.675781 "/>
<path style=" stroke:none;fill-rule:evenodd;fill:rgb(66.27451%,22.745098%,17.647059%);fill-opacity:1;" d="M 29.847656 37.769531 C 29.871094 37.957031 29.878906 38.148438 29.871094 38.347656 C 29.851562 39.367188 29.769531 40.382812 29.621094 41.394531 C 29.484375 42.207031 29.265625 43 28.972656 43.769531 C 28.738281 44.375 28.382812 44.890625 27.90625 45.320312 C 27.816406 45.375 27.730469 45.429688 27.640625 45.488281 C 25.625 45.601562 23.609375 45.691406 21.589844 45.75 C 21.199219 45.425781 20.859375 45.050781 20.570312 44.636719 C 20.191406 44.074219 19.867188 43.480469 19.597656 42.859375 C 19.605469 42.828125 19.597656 42.804688 19.574219 42.785156 C 19.582031 42.757812 19.574219 42.730469 19.550781 42.714844 C 19.332031 42.011719 19.101562 41.316406 18.855469 40.625 C 18.859375 40.59375 18.851562 40.570312 18.832031 40.554688 C 18.835938 40.523438 18.828125 40.5 18.808594 40.484375 C 18.636719 39.8125 18.546875 39.132812 18.542969 38.441406 C 18.960938 38.597656 19.390625 38.691406 19.839844 38.71875 C 20.566406 38.753906 21.296875 38.761719 22.023438 38.742188 C 23.199219 38.671875 24.375 38.613281 25.550781 38.574219 C 25.832031 38.550781 26.113281 38.519531 26.390625 38.476562 C 26.933594 38.34375 27.480469 38.214844 28.023438 38.09375 C 28.648438 38.066406 29.257812 37.960938 29.847656 37.769531 Z M 29.847656 37.769531 "/>
<path style=" stroke:none;fill-rule:evenodd;fill:rgb(25.098039%,8.627451%,7.058824%);fill-opacity:1;" d="M 29.847656 37.769531 C 29.851562 37.757812 29.859375 37.75 29.871094 37.746094 C 29.90625 37.949219 29.90625 38.148438 29.871094 38.347656 C 29.878906 38.148438 29.871094 37.957031 29.847656 37.769531 Z M 29.847656 37.769531 "/>
</g>
</svg>
