<?xml version="1.0" encoding="UTF-8"?>
<svg xmlns="http://www.w3.org/2000/svg" xmlns:xlink="http://www.w3.org/1999/xlink" width="50pt" height="50pt" viewBox="0 0 50 50" version="1.1">
<defs>
<filter id="alpha" filterUnits="objectBoundingBox" x="0%" y="0%" width="100%" height="100%">
  <feColorMatrix type="matrix" in="SourceGraphic" values="0 0 0 0 1 0 0 0 0 1 0 0 0 0 1 0 0 0 1 0"/>
</filter>
<mask id="mask0">
  <g filter="url(#alpha)">
<rect x="0" y="0" width="50" height="50" style="fill:rgb(0%,0%,0%);fill-opacity:0.992157;stroke:none;"/>
  </g>
</mask>
<clipPath id="clip1">
  <rect width="50" height="50"/>
</clipPath>
<g id="surface6" clip-path="url(#clip1)">
<path style=" stroke:none;fill-rule:evenodd;fill:rgb(0%,0%,0%);fill-opacity:1;" d="M 17.535156 5.628906 C 17.941406 6.609375 18.417969 7.554688 18.964844 8.460938 C 20.066406 10.292969 21.28125 12.046875 22.613281 13.71875 C 24.0625 15.449219 25.488281 17.203125 26.882812 18.976562 C 27.65625 20.007812 28.417969 21.046875 29.164062 22.09375 C 29.816406 22.886719 30.457031 23.6875 31.085938 24.496094 C 31.339844 24.851562 31.5625 25.230469 31.757812 25.625 C 31.78125 25.527344 31.804688 25.433594 31.828125 25.335938 C 31.980469 24.574219 32.144531 23.8125 32.320312 23.054688 C 32.617188 21.996094 32.972656 20.957031 33.390625 19.933594 C 34.019531 18.601562 34.644531 17.265625 35.261719 15.925781 C 35.566406 15.347656 36.003906 14.898438 36.570312 14.570312 C 36.851562 14.507812 37.105469 14.5625 37.339844 14.738281 C 37.6875 14.996094 37.875 15.347656 37.902344 15.78125 C 37.882812 17.039062 37.976562 18.289062 38.191406 19.527344 C 38.449219 21.390625 38.820312 23.230469 39.304688 25.046875 C 39.550781 25.910156 39.808594 26.765625 40.085938 27.617188 C 41.699219 32.460938 43.457031 37.246094 45.355469 41.972656 C 45.691406 42.898438 46.03125 43.828125 46.375 44.753906 C 46.472656 45.152344 46.324219 45.402344 45.929688 45.511719 C 45.773438 45.535156 45.617188 45.523438 45.464844 45.476562 C 45.234375 45.574219 45 45.59375 44.753906 45.535156 C 44.644531 45.503906 44.53125 45.472656 44.417969 45.4375 C 41.09375 44.058594 37.78125 42.652344 34.480469 41.214844 C 30.933594 39.648438 27.386719 38.070312 23.847656 36.484375 C 23.03125 36.085938 22.238281 35.644531 21.472656 35.164062 C 19.542969 34.113281 17.589844 33.097656 15.613281 32.117188 C 14.765625 31.765625 13.917969 31.414062 13.070312 31.0625 C 12.289062 30.734375 11.554688 30.335938 10.863281 29.859375 C 10.660156 29.722656 10.472656 29.566406 10.296875 29.394531 C 10.035156 28.875 10.136719 28.441406 10.597656 28.085938 C 10.753906 27.992188 10.921875 27.949219 11.101562 27.953125 C 11.320312 27.960938 11.535156 27.992188 11.75 28.035156 C 12.078125 28.121094 12.40625 28.207031 12.734375 28.300781 C 12.875 28.332031 13.019531 28.359375 13.167969 28.371094 C 14.230469 28.398438 15.296875 28.453125 16.359375 28.539062 C 17.628906 28.699219 18.902344 28.84375 20.175781 28.972656 C 20.984375 29.035156 21.792969 29.042969 22.601562 28.996094 C 21.863281 28.40625 21.171875 27.761719 20.523438 27.0625 C 18.9375 25.398438 17.371094 23.71875 15.820312 22.023438 C 13.859375 20.039062 11.863281 18.097656 9.828125 16.203125 C 8.734375 15.136719 7.6875 14.03125 6.695312 12.878906 C 6.378906 12.582031 6.066406 12.277344 5.761719 11.964844 C 5.488281 11.652344 5.296875 11.292969 5.183594 10.886719 C 5.089844 10.386719 5.203125 9.9375 5.519531 9.542969 C 5.90625 9.121094 6.351562 8.78125 6.851562 8.519531 C 7.695312 8.109375 8.542969 7.707031 9.398438 7.320312 C 10.167969 6.914062 10.914062 6.46875 11.628906 5.976562 C 11.988281 5.699219 12.320312 5.390625 12.625 5.054688 C 13.113281 4.390625 13.617188 3.742188 14.136719 3.109375 C 14.398438 2.832031 14.675781 2.570312 14.964844 2.328125 C 15.214844 2.152344 15.480469 2.125 15.757812 2.257812 C 15.96875 2.355469 16.132812 2.5 16.25 2.699219 C 16.453125 3.035156 16.636719 3.378906 16.800781 3.734375 C 17.058594 4.359375 17.304688 4.992188 17.535156 5.628906 Z M 9.421875 9.277344 C 13.339844 14.546875 17.253906 19.820312 21.160156 25.097656 C 19.566406 23.40625 17.980469 21.707031 16.394531 20.007812 C 14.707031 18.3125 12.984375 16.660156 11.222656 15.050781 C 10.140625 14.019531 9.113281 12.941406 8.136719 11.820312 C 7.785156 11.460938 7.425781 11.109375 7.058594 10.765625 C 7.007812 10.691406 6.96875 10.621094 6.9375 10.550781 C 7.320312 10.261719 7.730469 10.015625 8.171875 9.816406 C 8.59375 9.644531 9.007812 9.464844 9.421875 9.277344 Z M 36.929688 20.222656 C 36.027344 20.84375 35.125 21.460938 34.21875 22.070312 C 34.398438 21.425781 34.617188 20.792969 34.878906 20.175781 C 35.199219 19.476562 35.527344 18.78125 35.863281 18.085938 C 36.0625 17.570312 36.285156 17.066406 36.535156 16.574219 C 36.542969 16.933594 36.550781 17.292969 36.558594 17.65625 C 36.660156 18.515625 36.785156 19.371094 36.929688 20.222656 Z M 22.261719 33.425781 C 27.152344 35.261719 32.039062 37.097656 36.929688 38.933594 C 39.191406 39.773438 41.453125 40.601562 43.722656 41.417969 C 44.011719 42.128906 44.277344 42.84375 44.515625 43.554688 C 41.316406 42.164062 38.113281 40.777344 34.914062 39.390625 C 31.746094 37.988281 28.578125 36.589844 25.40625 35.191406 C 24.820312 34.925781 24.242188 34.640625 23.679688 34.324219 C 23.207031 34.023438 22.734375 33.726562 22.261719 33.425781 Z M 22.261719 33.425781 "/>
</g>
<mask id="mask1">
  <g filter="url(#alpha)">
<rect x="0" y="0" width="50" height="50" style="fill:rgb(0%,0%,0%);fill-opacity:0.996078;stroke:none;"/>
  </g>
</mask>
<clipPath id="clip2">
  <rect width="50" height="50"/>
</clipPath>
<g id="surface9" clip-path="url(#clip2)">
<path style=" stroke:none;fill-rule:evenodd;fill:rgb(72.941176%,71.372549%,69.411765%);fill-opacity:1;" d="M 34.195312 22.09375 C 34.210938 22.09375 34.21875 22.085938 34.21875 22.070312 C 35.125 21.460938 36.027344 20.84375 36.929688 20.222656 C 37.128906 21.539062 37.371094 22.851562 37.660156 24.160156 C 38.203125 26.261719 38.84375 28.335938 39.582031 30.375 C 40.039062 31.632812 40.496094 32.890625 40.949219 34.144531 C 41.867188 36.574219 42.792969 38.996094 43.722656 41.417969 C 41.453125 40.601562 39.191406 39.773438 36.929688 38.933594 C 32.039062 37.097656 27.152344 35.261719 22.261719 33.425781 C 22.253906 33.40625 22.238281 33.398438 22.214844 33.402344 C 20.175781 32.402344 18.140625 31.378906 16.117188 30.339844 C 17.277344 30.457031 18.4375 30.585938 19.597656 30.726562 C 21.03125 30.847656 22.464844 30.832031 23.894531 30.675781 C 24.304688 30.617188 24.714844 30.546875 25.121094 30.460938 C 25.472656 30.304688 25.648438 30.027344 25.648438 29.632812 C 25.644531 29.429688 25.582031 29.246094 25.46875 29.082031 C 25.257812 28.859375 25.035156 28.648438 24.808594 28.445312 C 24.226562 27.996094 23.648438 27.542969 23.078125 27.078125 C 22.417969 26.464844 21.792969 25.820312 21.207031 25.144531 C 21.207031 25.128906 21.199219 25.121094 21.183594 25.121094 C 21.183594 25.105469 21.175781 25.097656 21.160156 25.097656 C 17.253906 19.820312 13.339844 14.546875 9.421875 9.277344 C 10.484375 8.722656 11.515625 8.117188 12.519531 7.464844 C 13.078125 7.070312 13.570312 6.605469 13.996094 6.0625 C 14.390625 5.488281 14.800781 4.929688 15.230469 4.378906 C 15.320312 4.554688 15.40625 4.730469 15.484375 4.910156 C 15.8125 5.84375 16.199219 6.753906 16.632812 7.644531 C 17.21875 8.722656 17.859375 9.761719 18.554688 10.765625 C 19.871094 12.652344 21.273438 14.476562 22.753906 16.238281 C 23.613281 17.253906 24.46875 18.269531 25.324219 19.285156 C 26.207031 20.496094 27.082031 21.710938 27.941406 22.9375 C 28.46875 23.558594 28.996094 24.183594 29.523438 24.808594 C 29.742188 25.097656 29.949219 25.394531 30.148438 25.695312 C 30.386719 26.148438 30.617188 26.605469 30.84375 27.0625 C 31.25 27.730469 31.8125 27.921875 32.539062 27.628906 C 32.785156 27.457031 32.941406 27.21875 33.003906 26.921875 C 33.300781 25.285156 33.695312 23.675781 34.195312 22.09375 Z M 34.195312 22.09375 "/>
</g>
<mask id="mask2">
  <g filter="url(#alpha)">
<rect x="0" y="0" width="50" height="50" style="fill:rgb(0%,0%,0%);fill-opacity:0.992157;stroke:none;"/>
  </g>
</mask>
<clipPath id="clip3">
  <rect width="50" height="50"/>
</clipPath>
<g id="surface12" clip-path="url(#clip3)">
<path style=" stroke:none;fill-rule:evenodd;fill:rgb(72.941176%,71.372549%,69.411765%);fill-opacity:1;" d="M 17.535156 5.628906 C 22.464844 11.4375 27.390625 17.246094 32.320312 23.054688 C 32.144531 23.8125 31.980469 24.574219 31.828125 25.335938 C 31.804688 25.433594 31.78125 25.527344 31.757812 25.625 C 31.5625 25.230469 31.339844 24.851562 31.085938 24.496094 C 30.457031 23.6875 29.816406 22.886719 29.164062 22.09375 C 28.417969 21.046875 27.65625 20.007812 26.882812 18.976562 C 25.488281 17.203125 24.0625 15.449219 22.613281 13.71875 C 21.28125 12.046875 20.066406 10.292969 18.964844 8.460938 C 18.417969 7.554688 17.941406 6.609375 17.535156 5.628906 Z M 17.535156 5.628906 "/>
</g>
<mask id="mask3">
  <g filter="url(#alpha)">
<rect x="0" y="0" width="50" height="50" style="fill:rgb(0%,0%,0%);fill-opacity:0.972549;stroke:none;"/>
  </g>
</mask>
<clipPath id="clip4">
  <rect width="50" height="50"/>
</clipPath>
<g id="surface15" clip-path="url(#clip4)">
<path style=" stroke:none;fill-rule:evenodd;fill:rgb(72.54902%,70.980392%,69.019608%);fill-opacity:1;" d="M 39.304688 25.046875 C 41.449219 30.371094 43.539062 35.714844 45.582031 41.082031 C 45.714844 41.421875 45.820312 41.765625 45.90625 42.113281 C 45.71875 42.085938 45.535156 42.039062 45.355469 41.972656 C 43.457031 37.246094 41.699219 32.460938 40.085938 27.617188 C 39.808594 26.765625 39.550781 25.910156 39.304688 25.046875 Z M 39.304688 25.046875 "/>
</g>
</defs>
<g id="surface1">
<use xlink:href="#surface6" mask="url(#mask0)"/>
<use xlink:href="#surface9" mask="url(#mask1)"/>
<use xlink:href="#surface12" mask="url(#mask2)"/>
<use xlink:href="#surface15" mask="url(#mask3)"/>
</g>
</svg>
