<?xml version="1.0" encoding="UTF-8"?>
<svg xmlns="http://www.w3.org/2000/svg" xmlns:xlink="http://www.w3.org/1999/xlink" width="50pt" height="50pt" viewBox="0 0 50 50" version="1.1">
<defs>
<filter id="alpha" filterUnits="objectBoundingBox" x="0%" y="0%" width="100%" height="100%">
  <feColorMatrix type="matrix" in="SourceGraphic" values="0 0 0 0 1 0 0 0 0 1 0 0 0 0 1 0 0 0 1 0"/>
</filter>
<mask id="mask0">
  <g filter="url(#alpha)">
<rect x="0" y="0" width="50" height="50" style="fill:rgb(0%,0%,0%);fill-opacity:0.972549;stroke:none;"/>
  </g>
</mask>
<clipPath id="clip1">
  <rect width="50" height="50"/>
</clipPath>
<g id="surface6" clip-path="url(#clip1)">
<path style=" stroke:none;fill-rule:evenodd;fill:rgb(7.45098%,14.117647%,14.901961%);fill-opacity:1;" d="M 46.042969 33.757812 C 45.878906 35.214844 45.273438 36.445312 44.21875 37.453125 C 43.25 38.285156 42.128906 38.582031 40.859375 38.339844 C 40.507812 38.277344 40.179688 38.15625 39.875 37.980469 C 39.570312 38.410156 39.203125 38.472656 38.773438 38.171875 C 37.984375 32.8125 35.839844 28.09375 32.339844 24.015625 C 27.949219 19.175781 22.488281 16.351562 15.953125 15.546875 C 12.484375 15.164062 9.0625 15.414062 5.6875 16.289062 C 4.816406 16.066406 4.085938 15.621094 3.503906 14.945312 C 3.367188 14.773438 3.261719 14.578125 3.191406 14.371094 C 2.601562 12.890625 2.742188 11.484375 3.621094 10.148438 C 4.097656 9.492188 4.671875 8.9375 5.351562 8.492188 C 6.671875 7.710938 8.097656 7.214844 9.621094 7.003906 C 17.59375 5.988281 25.144531 7.332031 32.269531 11.035156 C 36.585938 13.433594 40.066406 16.722656 42.707031 20.898438 C 44.832031 24.40625 45.976562 28.214844 46.136719 32.316406 C 46.140625 32.804688 46.109375 33.28125 46.042969 33.757812 Z M 40.667969 37.019531 C 40.449219 36.957031 40.238281 36.871094 40.042969 36.757812 C 39.933594 36.730469 39.820312 36.722656 39.707031 36.730469 C 38.550781 29.703125 35.175781 24.019531 29.582031 19.671875 C 23.144531 14.878906 15.980469 13.28125 8.085938 14.875 C 7.277344 15.058594 6.488281 15.289062 5.710938 15.570312 C 5.398438 15.417969 5.117188 15.226562 4.871094 14.996094 C 5.03125 15.003906 5.191406 14.996094 5.351562 14.972656 C 8.738281 14.214844 12.171875 13.808594 15.644531 13.746094 C 20.933594 13.675781 25.855469 14.980469 30.398438 17.660156 C 33.558594 19.605469 36.03125 22.203125 37.8125 25.457031 C 39.441406 28.636719 40.144531 32.011719 39.921875 35.582031 C 40.03125 36.136719 40.28125 36.617188 40.667969 37.019531 Z M 40.667969 37.019531 "/>
</g>
<mask id="mask1">
  <g filter="url(#alpha)">
<rect x="0" y="0" width="50" height="50" style="fill:rgb(0%,0%,0%);fill-opacity:0.996078;stroke:none;"/>
  </g>
</mask>
<clipPath id="clip2">
  <rect width="50" height="50"/>
</clipPath>
<g id="surface9" clip-path="url(#clip2)">
<path style=" stroke:none;fill-rule:evenodd;fill:rgb(94.509804%,92.941176%,90.196078%);fill-opacity:1;" d="M 40.8125 37.117188 C 40.792969 37.074219 40.761719 37.058594 40.714844 37.066406 C 40.714844 37.035156 40.699219 37.019531 40.667969 37.019531 C 40.28125 36.617188 40.03125 36.136719 39.921875 35.582031 C 40.144531 32.011719 39.441406 28.636719 37.8125 25.457031 C 36.03125 22.203125 33.558594 19.605469 30.398438 17.660156 C 25.855469 14.980469 20.933594 13.675781 15.644531 13.746094 C 12.171875 13.808594 8.738281 14.214844 5.351562 14.972656 C 5.191406 14.996094 5.03125 15.003906 4.871094 14.996094 C 4.054688 14.386719 3.710938 13.570312 3.839844 12.546875 C 4.019531 11.847656 4.339844 11.226562 4.796875 10.675781 C 5.929688 9.355469 7.34375 8.515625 9.046875 8.15625 C 14.605469 7.464844 20.078125 7.894531 25.457031 9.453125 C 29.6875 10.71875 33.464844 12.785156 36.78125 15.644531 C 40.167969 18.699219 42.578125 22.402344 44 26.75 C 44.484375 28.550781 44.730469 30.382812 44.746094 32.246094 C 44.746094 33.429688 44.578125 34.589844 44.242188 35.722656 C 43.578125 37.367188 42.4375 37.832031 40.8125 37.117188 Z M 40.8125 37.117188 "/>
</g>
<mask id="mask2">
  <g filter="url(#alpha)">
<rect x="0" y="0" width="50" height="50" style="fill:rgb(0%,0%,0%);fill-opacity:0.937255;stroke:none;"/>
  </g>
</mask>
<clipPath id="clip3">
  <rect width="50" height="50"/>
</clipPath>
<g id="surface12" clip-path="url(#clip3)">
<path style=" stroke:none;fill-rule:evenodd;fill:rgb(93.72549%,92.156863%,89.411765%);fill-opacity:1;" d="M 3.621094 10.148438 C 2.742188 11.484375 2.601562 12.890625 3.191406 14.371094 C 2.480469 13.773438 2.171875 13.003906 2.253906 12.066406 C 2.394531 11.199219 2.847656 10.558594 3.621094 10.148438 Z M 3.621094 10.148438 "/>
</g>
<mask id="mask3">
  <g filter="url(#alpha)">
<rect x="0" y="0" width="50" height="50" style="fill:rgb(0%,0%,0%);fill-opacity:0.968627;stroke:none;"/>
  </g>
</mask>
<clipPath id="clip4">
  <rect width="50" height="50"/>
</clipPath>
<g id="surface15" clip-path="url(#clip4)">
<path style=" stroke:none;fill-rule:evenodd;fill:rgb(7.45098%,14.117647%,14.901961%);fill-opacity:1;" d="M 32.03125 41.339844 C 30.796875 41.539062 29.597656 41.417969 28.429688 40.980469 C 28.101562 40.804688 27.78125 40.621094 27.472656 40.425781 C 27.28125 40.449219 27.089844 40.425781 26.894531 40.355469 C 26.847656 40.316406 26.800781 40.273438 26.75 40.234375 C 26.121094 36.628906 24.457031 33.597656 21.761719 31.140625 C 17.648438 27.601562 12.855469 25.785156 7.390625 25.695312 C 5.648438 26.128906 4.417969 25.535156 3.695312 23.921875 C 3.15625 21.277344 4.125 19.414062 6.597656 18.332031 C 8.078125 17.828125 9.597656 17.652344 11.15625 17.800781 C 15.386719 18.191406 19.371094 19.390625 23.105469 21.402344 C 26.683594 23.398438 29.605469 26.109375 31.863281 29.535156 C 33.558594 32.230469 34.589844 35.164062 34.957031 38.339844 C 34.707031 40.039062 33.730469 41.039062 32.03125 41.339844 Z M 11.636719 19.074219 C 10.433594 19.0625 9.234375 19.09375 8.039062 19.167969 C 8.347656 19.085938 8.664062 19.03125 8.996094 19 C 9.699219 18.96875 10.40625 18.96875 11.109375 19 C 11.292969 19.011719 11.46875 19.035156 11.636719 19.074219 Z M 4.871094 23.921875 C 5.222656 24.167969 5.605469 24.351562 6.023438 24.472656 C 6.628906 24.632812 7.234375 24.734375 7.84375 24.785156 C 7.140625 24.816406 6.441406 24.910156 5.757812 25.070312 C 5.363281 24.765625 5.066406 24.378906 4.871094 23.921875 Z M 25.40625 24.257812 C 25.480469 24.253906 25.527344 24.285156 25.550781 24.351562 C 25.480469 24.355469 25.429688 24.324219 25.40625 24.257812 Z M 25.601562 24.398438 C 28.828125 26.902344 31.171875 30.070312 32.628906 33.902344 C 33.078125 35.089844 33.429688 36.304688 33.683594 37.546875 C 33.726562 38.015625 33.710938 38.480469 33.636719 38.941406 C 33.523438 39.347656 33.292969 39.667969 32.941406 39.898438 C 33.160156 38.035156 32.976562 36.214844 32.390625 34.429688 C 31.5625 32.007812 30.363281 29.800781 28.789062 27.808594 C 27.820312 26.589844 26.757812 25.453125 25.601562 24.398438 Z M 10.195312 24.785156 C 14.960938 24.796875 19.015625 26.476562 22.359375 29.824219 C 22.605469 30.074219 22.824219 30.347656 23.007812 30.636719 C 19.398438 27.273438 15.128906 25.324219 10.195312 24.785156 Z M 10.195312 24.785156 "/>
</g>
<mask id="mask4">
  <g filter="url(#alpha)">
<rect x="0" y="0" width="50" height="50" style="fill:rgb(0%,0%,0%);fill-opacity:0.996078;stroke:none;"/>
  </g>
</mask>
<clipPath id="clip5">
  <rect width="50" height="50"/>
</clipPath>
<g id="surface18" clip-path="url(#clip5)">
<path style=" stroke:none;fill-rule:evenodd;fill:rgb(94.509804%,92.941176%,90.196078%);fill-opacity:1;" d="M 11.636719 19.074219 C 16.058594 19.441406 20.152344 20.792969 23.921875 23.128906 C 24.3125 23.398438 24.699219 23.675781 25.070312 23.96875 C 25.070312 24 25.089844 24.015625 25.121094 24.015625 C 25.15625 24.058594 25.207031 24.089844 25.265625 24.113281 C 25.265625 24.144531 25.28125 24.160156 25.3125 24.160156 C 25.3125 24.191406 25.328125 24.207031 25.359375 24.207031 C 25.359375 24.242188 25.375 24.257812 25.40625 24.257812 C 25.429688 24.324219 25.480469 24.355469 25.550781 24.351562 C 25.550781 24.382812 25.566406 24.398438 25.601562 24.398438 C 26.757812 25.453125 27.820312 26.589844 28.789062 27.808594 C 30.363281 29.800781 31.5625 32.007812 32.390625 34.429688 C 32.976562 36.214844 33.160156 38.035156 32.941406 39.898438 C 32.636719 40.09375 32.300781 40.230469 31.933594 40.308594 C 30.476562 40.480469 29.082031 40.246094 27.757812 39.609375 C 27.375 37.242188 26.484375 35.082031 25.097656 33.132812 C 24.472656 32.328125 23.824219 31.542969 23.152344 30.78125 C 23.152344 30.75 23.136719 30.734375 23.105469 30.734375 C 23.105469 30.703125 23.089844 30.6875 23.054688 30.6875 C 23.054688 30.652344 23.039062 30.636719 23.007812 30.636719 C 22.824219 30.347656 22.605469 30.074219 22.359375 29.824219 C 19.015625 26.476562 14.960938 24.796875 10.195312 24.785156 C 9.414062 24.785156 8.628906 24.785156 7.84375 24.785156 C 7.234375 24.734375 6.628906 24.632812 6.023438 24.472656 C 5.605469 24.351562 5.222656 24.167969 4.871094 23.921875 C 4.632812 23.507812 4.542969 23.058594 4.605469 22.578125 C 4.839844 21.445312 5.425781 20.542969 6.359375 19.867188 C 6.847656 19.496094 7.394531 19.265625 7.988281 19.167969 C 8.003906 19.167969 8.019531 19.167969 8.039062 19.167969 C 9.234375 19.09375 10.433594 19.0625 11.636719 19.074219 Z M 11.636719 19.074219 "/>
</g>
<mask id="mask5">
  <g filter="url(#alpha)">
<rect x="0" y="0" width="50" height="50" style="fill:rgb(0%,0%,0%);fill-opacity:0.984314;stroke:none;"/>
  </g>
</mask>
<clipPath id="clip6">
  <rect width="50" height="50"/>
</clipPath>
<g id="surface21" clip-path="url(#clip6)">
<path style=" stroke:none;fill-rule:evenodd;fill:rgb(7.843137%,14.509804%,15.294118%);fill-opacity:1;" d="M 12.546875 27.902344 C 13.917969 28.261719 15.246094 28.75 16.53125 29.367188 C 17.285156 29.757812 18.035156 30.152344 18.785156 30.542969 C 18.808594 30.609375 18.855469 30.640625 18.929688 30.636719 C 21.960938 32.332031 23.753906 34.910156 24.304688 38.363281 C 24.332031 38.605469 24.339844 38.84375 24.328125 39.082031 C 24.289062 39.195312 24.222656 39.292969 24.136719 39.371094 C 23.929688 40.730469 23.152344 41.570312 21.808594 41.890625 C 20.820312 42.015625 19.917969 41.800781 19.097656 41.242188 C 19.078125 41.253906 19.070312 41.269531 19.074219 41.289062 C 18.6875 41.457031 18.390625 41.359375 18.1875 41.003906 C 17.996094 38.691406 16.898438 36.957031 14.898438 35.796875 C 12.859375 34.699219 10.675781 34.148438 8.347656 34.140625 C 7.8125 34.179688 7.277344 34.203125 6.742188 34.214844 C 6.703125 34.199219 6.671875 34.175781 6.644531 34.140625 C 6.621094 34.042969 6.589844 33.949219 6.550781 33.851562 C 6.074219 33.632812 5.707031 33.296875 5.445312 32.84375 C 5 31.949219 4.960938 31.035156 5.328125 30.109375 C 5.5 29.753906 5.699219 29.417969 5.925781 29.101562 C 6.664062 28.207031 7.605469 27.6875 8.757812 27.542969 C 8.855469 27.632812 8.964844 27.6875 9.09375 27.710938 C 10.253906 27.609375 11.40625 27.671875 12.546875 27.902344 Z M 12.546875 27.902344 "/>
</g>
<mask id="mask6">
  <g filter="url(#alpha)">
<rect x="0" y="0" width="50" height="50" style="fill:rgb(0%,0%,0%);fill-opacity:0.815686;stroke:none;"/>
  </g>
</mask>
<clipPath id="clip7">
  <rect width="50" height="50"/>
</clipPath>
<g id="surface24" clip-path="url(#clip7)">
<path style=" stroke:none;fill-rule:evenodd;fill:rgb(89.803922%,88.627451%,86.27451%);fill-opacity:1;" d="M 12.546875 27.902344 C 14.859375 28.261719 16.9375 29.140625 18.785156 30.542969 C 18.035156 30.152344 17.285156 29.757812 16.53125 29.367188 C 15.246094 28.75 13.917969 28.261719 12.546875 27.902344 Z M 12.546875 27.902344 "/>
</g>
<mask id="mask7">
  <g filter="url(#alpha)">
<rect x="0" y="0" width="50" height="50" style="fill:rgb(0%,0%,0%);fill-opacity:0.92549;stroke:none;"/>
  </g>
</mask>
<clipPath id="clip8">
  <rect width="50" height="50"/>
</clipPath>
<g id="surface27" clip-path="url(#clip8)">
<path style=" stroke:none;fill-rule:evenodd;fill:rgb(92.941176%,91.764706%,89.019608%);fill-opacity:1;" d="M 5.925781 29.101562 C 5.699219 29.417969 5.5 29.753906 5.328125 30.109375 C 4.960938 31.035156 5 31.949219 5.445312 32.84375 C 4.683594 32.148438 4.453125 31.300781 4.75 30.300781 C 4.992188 29.75 5.382812 29.351562 5.925781 29.101562 Z M 5.925781 29.101562 "/>
</g>
<mask id="mask8">
  <g filter="url(#alpha)">
<rect x="0" y="0" width="50" height="50" style="fill:rgb(0%,0%,0%);fill-opacity:0.0627451;stroke:none;"/>
  </g>
</mask>
<clipPath id="clip9">
  <rect width="50" height="50"/>
</clipPath>
<g id="surface30" clip-path="url(#clip9)">
<path style=" stroke:none;fill-rule:evenodd;fill:rgb(84.313725%,83.529412%,81.176471%);fill-opacity:1;" d="M 18.785156 30.542969 C 18.859375 30.539062 18.90625 30.570312 18.929688 30.636719 C 18.855469 30.640625 18.808594 30.609375 18.785156 30.542969 Z M 18.785156 30.542969 "/>
</g>
<mask id="mask9">
  <g filter="url(#alpha)">
<rect x="0" y="0" width="50" height="50" style="fill:rgb(0%,0%,0%);fill-opacity:0.901961;stroke:none;"/>
  </g>
</mask>
<clipPath id="clip10">
  <rect width="50" height="50"/>
</clipPath>
<g id="surface33" clip-path="url(#clip10)">
<path style=" stroke:none;fill-rule:evenodd;fill:rgb(91.372549%,90.196078%,87.45098%);fill-opacity:1;" d="M 46.042969 33.757812 C 46.105469 34.511719 46.015625 35.25 45.777344 35.964844 C 45.433594 36.652344 44.914062 37.144531 44.21875 37.453125 C 45.273438 36.445312 45.878906 35.214844 46.042969 33.757812 Z M 46.042969 33.757812 "/>
</g>
<mask id="mask10">
  <g filter="url(#alpha)">
<rect x="0" y="0" width="50" height="50" style="fill:rgb(0%,0%,0%);fill-opacity:0.980392;stroke:none;"/>
  </g>
</mask>
<clipPath id="clip11">
  <rect width="50" height="50"/>
</clipPath>
<g id="surface36" clip-path="url(#clip11)">
<path style=" stroke:none;fill-rule:evenodd;fill:rgb(7.843137%,14.117647%,14.901961%);fill-opacity:1;" d="M 12.882812 43.164062 C 11.566406 43.9375 10.191406 44.066406 8.757812 43.546875 C 7.484375 43 6.660156 42.058594 6.285156 40.714844 C 5.980469 38.988281 6.546875 37.636719 7.988281 36.660156 C 8.367188 36.464844 8.765625 36.335938 9.1875 36.277344 C 9.285156 36.167969 9.378906 36.054688 9.476562 35.941406 C 11.039062 35.808594 12.464844 36.191406 13.746094 37.09375 C 14.898438 38.164062 15.226562 39.453125 14.730469 40.953125 C 14.367188 41.902344 13.75 42.640625 12.882812 43.164062 Z M 12.882812 43.164062 "/>
</g>
<mask id="mask11">
  <g filter="url(#alpha)">
<rect x="0" y="0" width="50" height="50" style="fill:rgb(0%,0%,0%);fill-opacity:0.933333;stroke:none;"/>
  </g>
</mask>
<clipPath id="clip12">
  <rect width="50" height="50"/>
</clipPath>
<g id="surface39" clip-path="url(#clip12)">
<path style=" stroke:none;fill-rule:evenodd;fill:rgb(92.941176%,91.764706%,89.019608%);fill-opacity:1;" d="M 24.304688 38.363281 C 24.734375 39.394531 24.582031 40.339844 23.847656 41.195312 C 22.832031 42.265625 21.605469 42.625 20.175781 42.273438 C 19.695312 42.070312 19.328125 41.746094 19.074219 41.289062 C 19.070312 41.269531 19.078125 41.253906 19.097656 41.242188 C 19.917969 41.800781 20.820312 42.015625 21.808594 41.890625 C 23.152344 41.570312 23.929688 40.730469 24.136719 39.371094 C 24.222656 39.292969 24.289062 39.195312 24.328125 39.082031 C 24.339844 38.84375 24.332031 38.605469 24.304688 38.363281 Z M 24.304688 38.363281 "/>
</g>
<mask id="mask12">
  <g filter="url(#alpha)">
<rect x="0" y="0" width="50" height="50" style="fill:rgb(0%,0%,0%);fill-opacity:0.94902;stroke:none;"/>
  </g>
</mask>
<clipPath id="clip13">
  <rect width="50" height="50"/>
</clipPath>
<g id="surface42" clip-path="url(#clip13)">
<path style=" stroke:none;fill-rule:evenodd;fill:rgb(93.72549%,92.156863%,89.411765%);fill-opacity:1;" d="M 27.472656 40.425781 C 27.78125 40.621094 28.101562 40.804688 28.429688 40.980469 C 29.597656 41.417969 30.796875 41.539062 32.03125 41.339844 C 31.117188 42.09375 30.09375 42.277344 28.957031 41.890625 C 28.28125 41.585938 27.785156 41.097656 27.472656 40.425781 Z M 27.472656 40.425781 "/>
</g>
<mask id="mask13">
  <g filter="url(#alpha)">
<rect x="0" y="0" width="50" height="50" style="fill:rgb(0%,0%,0%);fill-opacity:0.737255;stroke:none;"/>
  </g>
</mask>
<clipPath id="clip14">
  <rect width="50" height="50"/>
</clipPath>
<g id="surface45" clip-path="url(#clip14)">
<path style=" stroke:none;fill-rule:evenodd;fill:rgb(87.843137%,86.666667%,84.313725%);fill-opacity:1;" d="M 12.882812 43.164062 C 12.324219 43.605469 11.6875 43.871094 10.964844 43.953125 C 10.34375 44.023438 9.734375 43.960938 9.140625 43.761719 C 9 43.703125 8.871094 43.628906 8.757812 43.546875 C 10.191406 44.066406 11.566406 43.9375 12.882812 43.164062 Z M 12.882812 43.164062 "/>
</g>
</defs>
<g id="surface1">
<use xlink:href="#surface6" mask="url(#mask0)"/>
<use xlink:href="#surface9" mask="url(#mask1)"/>
<use xlink:href="#surface12" mask="url(#mask2)"/>
<use xlink:href="#surface15" mask="url(#mask3)"/>
<use xlink:href="#surface18" mask="url(#mask4)"/>
<path style=" stroke:none;fill-rule:evenodd;fill:rgb(8.627451%,14.901961%,15.686275%);fill-opacity:1;" d="M 8.46875 20.417969 C 9 20.332031 9.199219 20.539062 9.070312 21.042969 C 8.539062 21.230469 8.035156 21.480469 7.558594 21.785156 C 7.105469 22.140625 6.761719 22.582031 6.527344 23.105469 C 6.21875 23.261719 6.074219 23.167969 6.09375 22.816406 C 6.511719 21.636719 7.304688 20.839844 8.46875 20.417969 Z M 8.46875 20.417969 "/>
<use xlink:href="#surface21" mask="url(#mask5)"/>
<use xlink:href="#surface24" mask="url(#mask6)"/>
<path style=" stroke:none;fill-rule:evenodd;fill:rgb(94.509804%,92.941176%,90.196078%);fill-opacity:1;" d="M 8.566406 28.480469 C 10.964844 28.507812 13.25 29.027344 15.425781 30.039062 C 16.996094 30.730469 18.449219 31.59375 19.792969 32.628906 C 21.648438 34.246094 22.785156 36.277344 23.199219 38.722656 C 23.007812 40.417969 22.066406 41.136719 20.371094 40.882812 C 20.003906 40.816406 19.652344 40.703125 19.3125 40.546875 C 18.890625 38.105469 17.625 36.234375 15.523438 34.933594 C 13 33.441406 10.296875 32.953125 7.414062 33.46875 C 7.25 33.464844 7.105469 33.410156 6.980469 33.300781 C 5.996094 32.40625 5.796875 31.355469 6.382812 30.160156 C 6.5625 29.882812 6.777344 29.632812 7.03125 29.414062 C 7.519531 29.066406 8.03125 28.753906 8.566406 28.480469 Z M 8.566406 28.480469 "/>
<use xlink:href="#surface27" mask="url(#mask7)"/>
<path style=" stroke:none;fill-rule:evenodd;fill:rgb(8.627451%,14.901961%,15.686275%);fill-opacity:1;" d="M 43.738281 30.445312 C 43.910156 30.417969 44.054688 30.464844 44.167969 30.589844 C 44.347656 31.925781 44.019531 33.125 43.1875 34.1875 C 43 34.410156 42.78125 34.59375 42.539062 34.742188 C 42.238281 34.882812 42.003906 34.8125 41.84375 34.523438 C 41.8125 34.414062 41.8125 34.300781 41.84375 34.1875 C 42.226562 33.675781 42.609375 33.164062 42.996094 32.652344 C 43.105469 32.402344 43.199219 32.148438 43.28125 31.886719 C 43.355469 31.464844 43.449219 31.046875 43.570312 30.636719 C 43.621094 30.570312 43.679688 30.503906 43.738281 30.445312 Z M 43.738281 30.445312 "/>
<use xlink:href="#surface30" mask="url(#mask8)"/>
<use xlink:href="#surface33" mask="url(#mask9)"/>
<use xlink:href="#surface36" mask="url(#mask10)"/>
<path style=" stroke:none;fill-rule:evenodd;fill:rgb(8.627451%,15.294118%,15.686275%);fill-opacity:1;" d="M 21.28125 35.964844 C 21.421875 35.949219 21.535156 35.996094 21.617188 36.109375 C 22.195312 36.988281 22.414062 37.949219 22.265625 38.988281 C 22.183594 39.453125 21.910156 39.726562 21.449219 39.804688 C 21.050781 39.773438 20.894531 39.566406 20.96875 39.179688 C 21.074219 39.007812 21.226562 38.921875 21.425781 38.914062 C 21.472656 38.847656 21.511719 38.777344 21.546875 38.699219 C 21.582031 38.363281 21.5625 38.027344 21.496094 37.691406 C 21.386719 37.195312 21.25 36.707031 21.089844 36.226562 C 21.109375 36.105469 21.171875 36.019531 21.28125 35.964844 Z M 21.28125 35.964844 "/>
<path style=" stroke:none;fill-rule:evenodd;fill:rgb(94.117647%,92.54902%,89.803922%);fill-opacity:1;" d="M 9.523438 36.925781 C 10.5 36.980469 11.445312 37.179688 12.355469 37.523438 C 13.710938 38.21875 14.136719 39.28125 13.628906 40.714844 C 12.816406 42.203125 11.558594 42.882812 9.859375 42.753906 C 8.417969 42.429688 7.5625 41.542969 7.292969 40.089844 C 7.230469 38.882812 7.71875 37.960938 8.757812 37.332031 C 9.011719 37.183594 9.265625 37.046875 9.523438 36.925781 Z M 9.523438 36.925781 "/>
<path style=" stroke:none;fill-rule:evenodd;fill:rgb(8.627451%,14.901961%,15.686275%);fill-opacity:1;" d="M 11.347656 38.171875 C 12.578125 38.148438 13.097656 38.738281 12.90625 39.945312 C 12.808594 40.351562 12.5625 40.550781 12.164062 40.546875 C 11.964844 40.410156 11.890625 40.226562 11.949219 39.996094 C 12.425781 39.25 12.226562 38.824219 11.347656 38.722656 C 11.160156 38.535156 11.160156 38.351562 11.347656 38.171875 Z M 11.347656 38.171875 "/>
<use xlink:href="#surface39" mask="url(#mask11)"/>
<use xlink:href="#surface42" mask="url(#mask12)"/>
<use xlink:href="#surface45" mask="url(#mask13)"/>
</g>
</svg>
