<?xml version="1.0" encoding="UTF-8"?>
<svg xmlns="http://www.w3.org/2000/svg" xmlns:xlink="http://www.w3.org/1999/xlink" width="50pt" height="50pt" viewBox="0 0 50 50" version="1.1">
<defs>
<filter id="alpha" filterUnits="objectBoundingBox" x="0%" y="0%" width="100%" height="100%">
  <feColorMatrix type="matrix" in="SourceGraphic" values="0 0 0 0 1 0 0 0 0 1 0 0 0 0 1 0 0 0 1 0"/>
</filter>
<mask id="mask0">
  <g filter="url(#alpha)">
<rect x="0" y="0" width="50" height="50" style="fill:rgb(0%,0%,0%);fill-opacity:0.984314;stroke:none;"/>
  </g>
</mask>
<clipPath id="clip1">
  <rect width="50" height="50"/>
</clipPath>
<g id="surface6" clip-path="url(#clip1)">
<path style=" stroke:none;fill-rule:evenodd;fill:rgb(0.392157%,0.392157%,0.392157%);fill-opacity:1;" d="M 25.121094 4.140625 C 25.121094 4.078125 25.121094 4.011719 25.121094 3.949219 C 25.125 3.917969 25.117188 3.894531 25.097656 3.875 C 25.085938 3.378906 25.070312 2.882812 25.046875 2.386719 C 25.054688 2.332031 25.046875 2.273438 25.023438 2.21875 C 24.796875 2.246094 24.570312 2.277344 24.351562 2.316406 C 24.207031 2.3125 24.0625 2.320312 23.917969 2.339844 C 23.878906 2.335938 23.839844 2.339844 23.800781 2.351562 C 23.675781 2.542969 23.605469 2.757812 23.597656 2.988281 C 23.492188 3.289062 23.367188 3.574219 23.210938 3.851562 C 22.820312 4.425781 22.492188 5.035156 22.226562 5.675781 C 21.765625 6.984375 21.453125 8.328125 21.292969 9.710938 C 21.234375 10.109375 21.191406 10.507812 21.160156 10.910156 C 21.203125 11.597656 21.351562 12.261719 21.601562 12.902344 C 21.828125 13.554688 22.113281 14.179688 22.46875 14.773438 C 22.8125 15.363281 23.191406 15.929688 23.597656 16.480469 C 23.773438 16.667969 23.960938 16.84375 24.160156 17.007812 C 24.347656 17.183594 24.546875 17.347656 24.761719 17.5 C 25.421875 17.9375 26.070312 18.390625 26.703125 18.867188 C 26.890625 19 27.089844 19.109375 27.304688 19.191406 C 27.472656 18.925781 27.636719 18.652344 27.796875 18.375 C 27.917969 18.207031 28.035156 18.039062 28.15625 17.871094 C 28.265625 17.640625 28.382812 17.414062 28.515625 17.199219 C 28.628906 17.054688 28.777344 16.980469 28.960938 16.972656 C 28.734375 16.722656 28.523438 16.460938 28.324219 16.191406 C 27.777344 15.59375 27.226562 14.996094 26.679688 14.402344 C 26.367188 14.105469 26.039062 13.824219 25.695312 13.5625 C 25.519531 13.511719 25.363281 13.429688 25.226562 13.308594 C 25.15625 13.140625 25.117188 12.964844 25.109375 12.78125 C 25.09375 12.316406 25.09375 11.851562 25.109375 11.390625 C 24.914062 11.277344 24.71875 11.171875 24.519531 11.066406 C 24.242188 10.898438 24.027344 10.671875 23.882812 10.382812 C 23.753906 10.128906 23.617188 9.882812 23.476562 9.636719 C 23.382812 9.3125 23.367188 8.984375 23.429688 8.652344 C 23.453125 7.824219 23.808594 7.1875 24.496094 6.746094 C 24.710938 6.632812 24.933594 6.574219 25.167969 6.566406 C 25.3125 6.550781 25.390625 6.613281 25.40625 6.757812 C 25.398438 6.796875 25.386719 6.835938 25.371094 6.878906 C 24.875 7.085938 24.496094 7.429688 24.242188 7.910156 C 24.160156 8.226562 24.097656 8.546875 24.050781 8.871094 C 24.035156 9.003906 24.035156 9.140625 24.050781 9.277344 C 24.222656 9.625 24.398438 9.96875 24.578125 10.308594 C 24.816406 10.535156 25.085938 10.714844 25.382812 10.851562 C 25.488281 10.90625 25.582031 10.984375 25.660156 11.078125 C 25.730469 11.234375 25.691406 11.363281 25.550781 11.460938 C 25.542969 11.503906 25.535156 11.550781 25.527344 11.59375 C 25.542969 12.03125 25.5625 12.464844 25.589844 12.902344 C 25.59375 12.933594 25.609375 12.960938 25.625 12.984375 C 25.769531 13.019531 25.902344 13.078125 26.019531 13.167969 C 26.050781 12.765625 26.058594 12.367188 26.042969 11.964844 C 26.027344 11.765625 25.976562 11.574219 25.898438 11.390625 C 25.863281 11.230469 25.894531 11.085938 25.996094 10.957031 C 26.890625 10.242188 27.152344 9.339844 26.789062 8.246094 C 26.699219 7.855469 26.519531 7.515625 26.25 7.226562 C 26.097656 7.113281 25.929688 7.03125 25.742188 6.984375 C 25.597656 6.753906 25.664062 6.625 25.9375 6.601562 C 25.890625 5.191406 25.859375 3.777344 25.839844 2.363281 C 25.832031 2.21875 25.886719 2.113281 26.007812 2.039062 C 26.597656 2.039062 27.183594 1.980469 27.761719 1.859375 C 27.921875 1.867188 28.082031 1.886719 28.242188 1.921875 C 28.34375 2.011719 28.386719 2.128906 28.359375 2.269531 C 28.320312 2.300781 28.308594 2.339844 28.324219 2.386719 C 28.539062 2.773438 28.757812 3.15625 28.972656 3.539062 C 29.25 4.136719 29.546875 4.71875 29.859375 5.292969 C 30.367188 6.660156 30.703125 8.066406 30.867188 9.515625 C 30.886719 9.886719 30.886719 10.253906 30.867188 10.621094 C 30.816406 10.984375 30.753906 11.34375 30.675781 11.703125 C 30.421875 12.839844 30.105469 13.960938 29.730469 15.0625 C 29.609375 15.472656 29.417969 15.84375 29.152344 16.179688 C 29.246094 16.273438 29.339844 16.367188 29.441406 16.453125 C 29.566406 16.363281 29.691406 16.359375 29.824219 16.441406 C 29.875 16.535156 29.929688 16.625 29.980469 16.71875 C 30.195312 16.984375 30.414062 17.246094 30.628906 17.511719 C 30.8125 17.773438 30.964844 18.050781 31.085938 18.351562 C 31.710938 19.816406 32.195312 21.328125 32.539062 22.886719 C 32.539062 22.976562 32.5625 23.058594 32.609375 23.128906 C 32.953125 24.921875 33.308594 26.714844 33.675781 28.503906 C 33.933594 30.046875 34.09375 31.597656 34.15625 33.160156 C 34.222656 34.503906 34.246094 35.847656 34.230469 37.195312 C 34.136719 39.230469 33.816406 41.230469 33.269531 43.195312 C 33.070312 43.777344 32.839844 44.34375 32.574219 44.898438 C 32.433594 45.300781 32.324219 45.707031 32.238281 46.125 C 32.070312 46.757812 31.851562 47.371094 31.589844 47.972656 C 31.453125 48.199219 31.3125 48.425781 31.167969 48.644531 C 31.089844 48.726562 31.003906 48.792969 30.90625 48.847656 C 30.824219 48.863281 30.746094 48.863281 30.664062 48.847656 C 30.273438 48.71875 29.898438 48.546875 29.546875 48.332031 C 29.441406 48.160156 29.449219 47.992188 29.574219 47.828125 C 29.6875 47.660156 29.792969 47.484375 29.886719 47.300781 C 30.035156 46.691406 30.179688 46.085938 30.316406 45.476562 C 30.507812 45 30.683594 44.519531 30.84375 44.035156 C 31.089844 43.109375 31.28125 42.171875 31.421875 41.226562 C 31.484375 40.59375 31.519531 39.957031 31.527344 39.316406 C 31.449219 37.582031 31.425781 35.847656 31.457031 34.109375 C 31.464844 32.902344 31.398438 31.695312 31.253906 30.496094 C 31.132812 29.558594 30.910156 28.648438 30.582031 27.761719 C 29.6875 25.589844 28.738281 23.449219 27.738281 21.328125 C 27.523438 20.886719 27.277344 20.472656 26.992188 20.078125 C 26.992188 20.046875 26.976562 20.03125 26.945312 20.03125 C 26.90625 19.964844 26.863281 19.898438 26.8125 19.839844 C 26.5625 19.566406 26.292969 19.320312 26.007812 19.09375 C 25.894531 18.980469 25.773438 18.875 25.636719 18.78125 C 25.625 18.832031 25.621094 18.878906 25.625 18.925781 C 25.484375 19.136719 25.328125 19.335938 25.15625 19.527344 C 25.011719 19.859375 24.859375 20.1875 24.699219 20.511719 C 24.386719 20.90625 24.089844 21.316406 23.8125 21.734375 C 23.265625 22.695312 22.746094 23.671875 22.25 24.664062 C 21.753906 25.804688 21.34375 26.972656 21.015625 28.167969 C 20.644531 29.222656 20.429688 30.3125 20.367188 31.433594 C 20.246094 33.28125 20.105469 35.128906 19.945312 36.976562 C 19.820312 38.8125 19.851562 40.644531 20.042969 42.476562 C 20.070312 42.636719 20.097656 42.796875 20.128906 42.953125 C 20.167969 43.214844 20.238281 43.464844 20.34375 43.699219 C 20.355469 43.8125 20.390625 43.914062 20.4375 44.011719 C 20.433594 44.070312 20.449219 44.117188 20.488281 44.15625 C 20.699219 44.914062 20.949219 45.65625 21.242188 46.386719 C 21.300781 46.527344 21.378906 46.65625 21.472656 46.769531 C 21.683594 47.117188 21.914062 47.453125 22.15625 47.78125 C 22.351562 48.109375 22.324219 48.421875 22.082031 48.714844 C 21.847656 48.949219 21.578125 49.136719 21.28125 49.28125 C 21.117188 49.304688 20.972656 49.261719 20.847656 49.160156 C 20.441406 48.761719 20.0625 48.339844 19.707031 47.898438 C 19.625 47.777344 19.554688 47.648438 19.492188 47.515625 C 19.261719 46.824219 18.976562 46.160156 18.628906 45.523438 C 18.078125 44.121094 17.550781 42.714844 17.042969 41.296875 C 16.664062 39.964844 16.4375 38.605469 16.371094 37.21875 C 16.285156 35.773438 16.21875 34.328125 16.167969 32.886719 C 16.175781 30.410156 16.492188 27.972656 17.113281 25.574219 C 17.472656 24.261719 17.839844 22.949219 18.21875 21.640625 C 18.546875 20.59375 18.949219 19.578125 19.417969 18.589844 C 19.886719 17.644531 20.546875 16.855469 21.398438 16.226562 C 21.453125 16.199219 21.507812 16.1875 21.566406 16.191406 C 21.613281 16.265625 21.625 16.34375 21.601562 16.429688 C 20.785156 17.300781 20.144531 18.292969 19.683594 19.40625 C 19.527344 19.785156 19.378906 20.164062 19.238281 20.546875 C 18.664062 22.238281 18.148438 23.945312 17.691406 25.671875 C 17.464844 26.746094 17.242188 27.816406 17.019531 28.886719 C 16.96875 29.28125 16.929688 29.671875 16.898438 30.066406 C 16.882812 31.378906 16.882812 32.6875 16.898438 34 C 16.925781 34.625 16.964844 35.25 17.019531 35.875 C 16.992188 37.484375 17.175781 39.066406 17.570312 40.625 C 18.164062 42.46875 18.859375 44.265625 19.660156 46.027344 C 19.777344 46.335938 19.890625 46.648438 19.996094 46.964844 C 20.121094 47.28125 20.296875 47.570312 20.523438 47.828125 C 20.707031 48.019531 20.890625 48.210938 21.074219 48.402344 C 21.113281 48.457031 21.144531 48.511719 21.171875 48.570312 C 21.292969 48.480469 21.398438 48.375 21.496094 48.257812 C 21.511719 48.25 21.523438 48.234375 21.53125 48.210938 C 21.546875 48.148438 21.546875 48.082031 21.53125 48.019531 C 21.109375 47.429688 20.773438 46.789062 20.523438 46.097656 C 20.09375 44.898438 19.742188 43.671875 19.46875 42.425781 C 19.382812 41.730469 19.339844 41.03125 19.335938 40.339844 C 19.332031 39.601562 19.335938 38.867188 19.347656 38.128906 C 19.414062 37.082031 19.488281 36.03125 19.574219 34.984375 C 19.65625 33.898438 19.746094 32.808594 19.851562 31.722656 C 19.941406 30.5625 20.144531 29.429688 20.453125 28.3125 C 20.839844 26.976562 21.308594 25.671875 21.867188 24.398438 C 22.261719 23.589844 22.660156 22.78125 23.066406 21.976562 C 23.222656 21.707031 23.382812 21.445312 23.546875 21.183594 C 23.898438 20.730469 24.242188 20.277344 24.578125 19.816406 C 24.8125 19.445312 24.980469 19.042969 25.085938 18.613281 C 25.128906 18.570312 25.179688 18.542969 25.238281 18.53125 C 24.882812 18.285156 24.53125 18.03125 24.183594 17.773438 C 23.542969 17.328125 23.007812 16.777344 22.585938 16.117188 C 22.476562 15.921875 22.359375 15.730469 22.238281 15.542969 C 21.589844 14.464844 21.089844 13.320312 20.738281 12.109375 C 20.59375 11.617188 20.539062 11.113281 20.570312 10.597656 C 20.6875 9.003906 20.972656 7.445312 21.433594 5.917969 C 21.527344 5.65625 21.628906 5.398438 21.746094 5.148438 C 22.101562 4.511719 22.460938 3.878906 22.828125 3.253906 C 22.972656 2.890625 23.089844 2.523438 23.1875 2.148438 C 23.222656 2.046875 23.28125 1.960938 23.367188 1.894531 C 23.496094 1.824219 23.632812 1.777344 23.777344 1.753906 C 24.3125 1.683594 24.847656 1.683594 25.382812 1.753906 C 25.496094 1.863281 25.546875 2 25.527344 2.160156 C 25.453125 3.5 25.363281 4.84375 25.265625 6.179688 C 25.257812 6.121094 25.246094 6.0625 25.238281 6 C 25.214844 5.375 25.175781 4.757812 25.121094 4.140625 Z M 25.046875 2.386719 C 24.816406 2.363281 24.585938 2.339844 24.351562 2.316406 C 24.570312 2.277344 24.796875 2.246094 25.023438 2.21875 C 25.046875 2.273438 25.054688 2.332031 25.046875 2.386719 Z M 32.058594 32.488281 C 32.425781 33.824219 32.765625 35.167969 33.078125 36.523438 C 33.167969 37.105469 33.183594 37.6875 33.125 38.273438 C 33.011719 39.449219 32.8125 40.609375 32.523438 41.753906 C 32.039062 43.707031 31.449219 45.628906 30.75 47.515625 C 30.746094 47.601562 30.765625 47.679688 30.808594 47.753906 C 30.746094 47.878906 30.664062 47.980469 30.558594 48.066406 C 30.472656 48.003906 30.378906 47.953125 30.28125 47.910156 C 30.417969 47.699219 30.527344 47.46875 30.605469 47.226562 C 30.707031 46.722656 30.820312 46.21875 30.941406 45.714844 C 31.066406 45.378906 31.210938 45.050781 31.371094 44.730469 C 31.648438 43.804688 31.851562 42.859375 31.972656 41.898438 C 32.109375 40.890625 32.199219 39.878906 32.25 38.863281 C 32.222656 38.089844 32.1875 37.316406 32.140625 36.546875 C 32.121094 35.191406 32.09375 33.839844 32.058594 32.488281 Z M 32.058594 32.488281 "/>
</g>
<mask id="mask1">
  <g filter="url(#alpha)">
<rect x="0" y="0" width="50" height="50" style="fill:rgb(0%,0%,0%);fill-opacity:0.972549;stroke:none;"/>
  </g>
</mask>
<clipPath id="clip2">
  <rect width="50" height="50"/>
</clipPath>
<g id="surface9" clip-path="url(#clip2)">
<path style=" stroke:none;fill-rule:evenodd;fill:rgb(93.72549%,92.156863%,89.411765%);fill-opacity:1;" d="M 29.730469 15.0625 C 30.105469 13.960938 30.421875 12.839844 30.675781 11.703125 C 30.753906 11.34375 30.816406 10.984375 30.867188 10.621094 C 30.886719 10.253906 30.886719 9.886719 30.867188 9.515625 C 30.703125 8.066406 30.367188 6.660156 29.859375 5.292969 C 29.546875 4.71875 29.25 4.136719 28.972656 3.539062 C 28.757812 3.15625 28.539062 2.773438 28.324219 2.386719 C 28.308594 2.339844 28.320312 2.300781 28.359375 2.269531 C 28.492188 2.269531 28.625 2.261719 28.757812 2.246094 C 28.792969 2.253906 28.828125 2.261719 28.863281 2.269531 C 31.042969 5.144531 31.710938 8.34375 30.867188 11.871094 C 30.617188 12.984375 30.238281 14.046875 29.730469 15.0625 Z M 29.730469 15.0625 "/>
</g>
<mask id="mask2">
  <g filter="url(#alpha)">
<rect x="0" y="0" width="50" height="50" style="fill:rgb(0%,0%,0%);fill-opacity:0.996078;stroke:none;"/>
  </g>
</mask>
<clipPath id="clip3">
  <rect width="50" height="50"/>
</clipPath>
<g id="surface12" clip-path="url(#clip3)">
<path style=" stroke:none;fill-rule:evenodd;fill:rgb(94.117647%,92.54902%,89.803922%);fill-opacity:1;" d="M 30.808594 47.753906 C 30.765625 47.679688 30.746094 47.601562 30.75 47.515625 C 31.449219 45.628906 32.039062 43.707031 32.523438 41.753906 C 32.8125 40.609375 33.011719 39.449219 33.125 38.273438 C 33.183594 37.6875 33.167969 37.105469 33.078125 36.523438 C 32.765625 35.167969 32.425781 33.824219 32.058594 32.488281 C 32.003906 30.390625 31.535156 28.390625 30.652344 26.488281 C 30.09375 25.265625 29.542969 24.042969 28.996094 22.816406 C 28.496094 21.734375 27.898438 20.714844 27.207031 19.753906 C 27.328125 19.746094 27.449219 19.738281 27.570312 19.730469 C 27.632812 19.714844 27.683594 19.679688 27.722656 19.625 C 27.929688 19.050781 28.234375 18.539062 28.636719 18.085938 C 28.710938 17.914062 28.789062 17.746094 28.875 17.582031 C 28.941406 17.53125 29.011719 17.484375 29.082031 17.4375 C 29.128906 17.328125 29.144531 17.21875 29.117188 17.101562 C 29.1875 17.167969 29.273438 17.1875 29.367188 17.164062 C 29.464844 17.117188 29.554688 17.070312 29.632812 17.019531 C 30.046875 17.625 30.394531 18.269531 30.675781 18.949219 C 31.105469 19.953125 31.453125 20.988281 31.710938 22.046875 C 32.464844 25.121094 33.019531 28.234375 33.367188 31.386719 C 33.546875 33.527344 33.59375 35.671875 33.507812 37.816406 C 33.378906 38.832031 33.25 39.851562 33.125 40.867188 C 32.972656 41.726562 32.75 42.566406 32.453125 43.386719 C 32.242188 43.863281 32.027344 44.332031 31.804688 44.804688 C 31.632812 45.316406 31.488281 45.835938 31.371094 46.363281 C 31.277344 46.722656 31.15625 47.074219 31.011719 47.417969 C 30.960938 47.546875 30.894531 47.65625 30.808594 47.753906 Z M 30.808594 47.753906 "/>
</g>
<mask id="mask3">
  <g filter="url(#alpha)">
<rect x="0" y="0" width="50" height="50" style="fill:rgb(0%,0%,0%);fill-opacity:0.815686;stroke:none;"/>
  </g>
</mask>
<clipPath id="clip4">
  <rect width="50" height="50"/>
</clipPath>
<g id="surface15" clip-path="url(#clip4)">
<path style=" stroke:none;fill-rule:evenodd;fill:rgb(89.803922%,88.235294%,85.882353%);fill-opacity:1;" d="M 26.007812 19.09375 C 25.878906 19.039062 25.753906 18.984375 25.625 18.925781 C 25.621094 18.878906 25.625 18.832031 25.636719 18.78125 C 25.773438 18.875 25.894531 18.980469 26.007812 19.09375 Z M 26.007812 19.09375 "/>
</g>
<mask id="mask4">
  <g filter="url(#alpha)">
<rect x="0" y="0" width="50" height="50" style="fill:rgb(0%,0%,0%);fill-opacity:0.976471;stroke:none;"/>
  </g>
</mask>
<clipPath id="clip5">
  <rect width="50" height="50"/>
</clipPath>
<g id="surface18" clip-path="url(#clip5)">
<path style=" stroke:none;fill-rule:evenodd;fill:rgb(63.921569%,63.137255%,61.176471%);fill-opacity:1;" d="M 26.945312 20.03125 C 26.976562 20.03125 26.992188 20.046875 26.992188 20.078125 C 26.96875 20.070312 26.953125 20.054688 26.945312 20.03125 Z M 26.945312 20.03125 "/>
</g>
<mask id="mask5">
  <g filter="url(#alpha)">
<rect x="0" y="0" width="50" height="50" style="fill:rgb(0%,0%,0%);fill-opacity:0.584314;stroke:none;"/>
  </g>
</mask>
<clipPath id="clip6">
  <rect width="50" height="50"/>
</clipPath>
<g id="surface21" clip-path="url(#clip6)">
<path style=" stroke:none;fill-rule:evenodd;fill:rgb(86.666667%,85.098039%,82.745098%);fill-opacity:1;" d="M 26.992188 20.078125 C 27.277344 20.472656 27.523438 20.886719 27.738281 21.328125 C 27.46875 20.925781 27.222656 20.507812 26.992188 20.078125 Z M 26.992188 20.078125 "/>
</g>
<mask id="mask6">
  <g filter="url(#alpha)">
<rect x="0" y="0" width="50" height="50" style="fill:rgb(0%,0%,0%);fill-opacity:0.972549;stroke:none;"/>
  </g>
</mask>
<clipPath id="clip7">
  <rect width="50" height="50"/>
</clipPath>
<g id="surface24" clip-path="url(#clip7)">
<path style=" stroke:none;fill-rule:evenodd;fill:rgb(93.72549%,92.156863%,89.411765%);fill-opacity:1;" d="M 32.609375 23.128906 C 34.375 28.746094 34.972656 34.492188 34.398438 40.363281 C 34.253906 41.867188 33.972656 43.347656 33.558594 44.804688 C 33.273438 45.773438 32.875 46.695312 32.355469 47.5625 C 32.113281 47.96875 31.8125 48.332031 31.457031 48.65625 C 31.386719 48.710938 31.316406 48.765625 31.242188 48.8125 C 31.210938 48.757812 31.1875 48.703125 31.167969 48.644531 C 31.3125 48.425781 31.453125 48.199219 31.589844 47.972656 C 31.851562 47.371094 32.070312 46.757812 32.238281 46.125 C 32.324219 45.707031 32.433594 45.300781 32.574219 44.898438 C 32.839844 44.34375 33.070312 43.777344 33.269531 43.195312 C 33.816406 41.230469 34.136719 39.230469 34.230469 37.195312 C 34.246094 35.847656 34.222656 34.503906 34.15625 33.160156 C 34.09375 31.597656 33.933594 30.046875 33.675781 28.503906 C 33.308594 26.714844 32.953125 24.921875 32.609375 23.128906 Z M 32.609375 23.128906 "/>
</g>
<mask id="mask7">
  <g filter="url(#alpha)">
<rect x="0" y="0" width="50" height="50" style="fill:rgb(0%,0%,0%);fill-opacity:0.85098;stroke:none;"/>
  </g>
</mask>
<clipPath id="clip8">
  <rect width="50" height="50"/>
</clipPath>
<g id="surface27" clip-path="url(#clip8)">
<path style=" stroke:none;fill-rule:evenodd;fill:rgb(88.235294%,86.666667%,84.313725%);fill-opacity:1;" d="M 21.015625 28.167969 C 20.804688 29.261719 20.589844 30.347656 20.367188 31.433594 C 20.429688 30.3125 20.644531 29.222656 21.015625 28.167969 Z M 21.015625 28.167969 "/>
</g>
<mask id="mask8">
  <g filter="url(#alpha)">
<rect x="0" y="0" width="50" height="50" style="fill:rgb(0%,0%,0%);fill-opacity:0.501961;stroke:none;"/>
  </g>
</mask>
<clipPath id="clip9">
  <rect width="50" height="50"/>
</clipPath>
<g id="surface30" clip-path="url(#clip9)">
<path style=" stroke:none;fill-rule:evenodd;fill:rgb(86.27451%,85.098039%,82.352941%);fill-opacity:1;" d="M 20.34375 43.699219 C 20.394531 43.796875 20.425781 43.898438 20.4375 44.011719 C 20.390625 43.914062 20.355469 43.8125 20.34375 43.699219 Z M 20.34375 43.699219 "/>
</g>
<mask id="mask9">
  <g filter="url(#alpha)">
<rect x="0" y="0" width="50" height="50" style="fill:rgb(0%,0%,0%);fill-opacity:0.470588;stroke:none;"/>
  </g>
</mask>
<clipPath id="clip10">
  <rect width="50" height="50"/>
</clipPath>
<g id="surface33" clip-path="url(#clip10)">
<path style=" stroke:none;fill-rule:evenodd;fill:rgb(86.666667%,85.098039%,82.745098%);fill-opacity:1;" d="M 20.4375 44.011719 C 20.46875 44.050781 20.484375 44.101562 20.488281 44.15625 C 20.449219 44.117188 20.433594 44.070312 20.4375 44.011719 Z M 20.4375 44.011719 "/>
</g>
<mask id="mask10">
  <g filter="url(#alpha)">
<rect x="0" y="0" width="50" height="50" style="fill:rgb(0%,0%,0%);fill-opacity:0.733333;stroke:none;"/>
  </g>
</mask>
<clipPath id="clip11">
  <rect width="50" height="50"/>
</clipPath>
<g id="surface36" clip-path="url(#clip11)">
<path style=" stroke:none;fill-rule:evenodd;fill:rgb(89.411765%,87.843137%,85.098039%);fill-opacity:1;" d="M 20.488281 44.15625 C 20.792969 45.035156 21.121094 45.90625 21.472656 46.769531 C 21.378906 46.65625 21.300781 46.527344 21.242188 46.386719 C 20.949219 45.65625 20.699219 44.914062 20.488281 44.15625 Z M 20.488281 44.15625 "/>
</g>
</defs>
<g id="surface1">
<use xlink:href="#surface6" mask="url(#mask0)"/>
<use xlink:href="#surface9" mask="url(#mask1)"/>
<path style=" stroke:none;fill-rule:evenodd;fill:rgb(94.509804%,92.941176%,90.196078%);fill-opacity:1;" d="M 24.351562 2.316406 C 24.585938 2.339844 24.816406 2.363281 25.046875 2.386719 C 25.070312 2.882812 25.085938 3.378906 25.097656 3.875 C 25.089844 3.90625 25.097656 3.929688 25.121094 3.949219 C 25.121094 4.011719 25.121094 4.078125 25.121094 4.140625 C 25.128906 4.949219 25.144531 5.757812 25.167969 6.566406 C 24.933594 6.574219 24.710938 6.632812 24.496094 6.746094 C 23.808594 7.1875 23.453125 7.824219 23.429688 8.652344 C 23.367188 8.984375 23.382812 9.3125 23.476562 9.636719 C 23.617188 9.882812 23.753906 10.128906 23.882812 10.382812 C 24.027344 10.671875 24.242188 10.898438 24.519531 11.066406 C 24.71875 11.171875 24.914062 11.277344 25.109375 11.390625 C 25.09375 11.851562 25.09375 12.316406 25.109375 12.78125 C 25.117188 12.964844 25.15625 13.140625 25.226562 13.308594 C 25.363281 13.429688 25.519531 13.511719 25.695312 13.5625 C 26.039062 13.824219 26.367188 14.105469 26.679688 14.402344 C 27.226562 14.996094 27.777344 15.59375 28.324219 16.191406 C 28.523438 16.460938 28.734375 16.722656 28.960938 16.972656 C 28.777344 16.980469 28.628906 17.054688 28.515625 17.199219 C 28.382812 17.414062 28.265625 17.640625 28.15625 17.871094 C 28.035156 18.039062 27.917969 18.207031 27.796875 18.375 C 27.636719 18.652344 27.472656 18.925781 27.304688 19.191406 C 27.089844 19.109375 26.890625 19 26.703125 18.867188 C 26.070312 18.390625 25.421875 17.9375 24.761719 17.5 C 24.546875 17.347656 24.347656 17.183594 24.160156 17.007812 C 23.789062 16.582031 23.449219 16.132812 23.140625 15.664062 C 22.804688 15.0625 22.546875 14.429688 22.371094 13.765625 C 21.964844 12.386719 21.789062 10.980469 21.84375 9.542969 C 21.867188 9.324219 21.902344 9.109375 21.941406 8.894531 C 22.550781 6.710938 23.179688 4.535156 23.824219 2.363281 C 23.863281 2.371094 23.894531 2.363281 23.917969 2.339844 C 24.0625 2.320312 24.207031 2.3125 24.351562 2.316406 Z M 24.351562 2.316406 "/>
<path style=" stroke:none;fill-rule:evenodd;fill:rgb(62.352941%,56.470588%,58.431373%);fill-opacity:1;" d="M 23.917969 2.339844 C 23.894531 2.363281 23.863281 2.371094 23.824219 2.363281 C 23.179688 4.535156 22.550781 6.710938 21.941406 8.894531 C 21.902344 9.109375 21.867188 9.324219 21.84375 9.542969 C 21.789062 10.980469 21.964844 12.386719 22.371094 13.765625 C 22.546875 14.429688 22.804688 15.0625 23.140625 15.664062 C 23.449219 16.132812 23.789062 16.582031 24.160156 17.007812 C 23.960938 16.84375 23.773438 16.667969 23.597656 16.480469 C 23.191406 15.929688 22.8125 15.363281 22.46875 14.773438 C 22.113281 14.179688 21.828125 13.554688 21.601562 12.902344 C 21.351562 12.261719 21.203125 11.597656 21.160156 10.910156 C 21.191406 10.507812 21.234375 10.109375 21.292969 9.710938 C 21.453125 8.328125 21.765625 6.984375 22.226562 5.675781 C 22.492188 5.035156 22.820312 4.425781 23.210938 3.851562 C 23.367188 3.574219 23.492188 3.289062 23.597656 2.988281 C 23.605469 2.757812 23.675781 2.542969 23.800781 2.351562 C 23.839844 2.339844 23.878906 2.335938 23.917969 2.339844 Z M 23.917969 2.339844 "/>
<path style=" stroke:none;fill-rule:evenodd;fill:rgb(94.509804%,92.941176%,90.196078%);fill-opacity:1;" d="M 26.152344 2.363281 C 26.304688 2.421875 26.464844 2.445312 26.632812 2.4375 C 26.960938 2.425781 27.289062 2.410156 27.617188 2.386719 C 27.785156 2.414062 27.953125 2.445312 28.121094 2.484375 C 28.53125 3.554688 28.976562 4.609375 29.453125 5.652344 C 29.703125 6.296875 29.890625 6.960938 30.003906 7.644531 C 30.097656 8.21875 30.179688 8.796875 30.246094 9.375 C 30.28125 10.210938 30.203125 11.03125 30.003906 11.847656 C 29.746094 13.019531 29.394531 14.160156 28.949219 15.277344 C 28.878906 15.425781 28.792969 15.5625 28.683594 15.6875 C 28.242188 15.316406 27.84375 14.910156 27.484375 14.460938 C 27.183594 14.136719 26.859375 13.835938 26.511719 13.5625 C 26.558594 13.015625 26.597656 12.46875 26.632812 11.917969 C 26.644531 11.71875 26.601562 11.53125 26.511719 11.355469 C 27.320312 10.703125 27.652344 9.859375 27.507812 8.820312 C 27.4375 8.203125 27.222656 7.640625 26.859375 7.140625 C 26.636719 6.886719 26.363281 6.722656 26.03125 6.648438 C 26.066406 6.628906 26.097656 6.601562 26.117188 6.566406 C 26.148438 5.164062 26.160156 3.765625 26.152344 2.363281 Z M 26.152344 2.363281 "/>
<path style=" stroke:none;fill-rule:evenodd;fill:rgb(1.176471%,1.176471%,1.176471%);fill-opacity:1;" d="M 25.433594 15.300781 C 26.199219 15.28125 26.65625 15.644531 26.800781 16.394531 C 26.757812 16.84375 26.519531 17.125 26.082031 17.234375 C 25.75 17.316406 25.445312 17.261719 25.167969 17.066406 C 25.078125 16.988281 25.011719 16.898438 24.964844 16.789062 C 24.925781 16.558594 24.886719 16.324219 24.84375 16.09375 C 24.824219 15.847656 24.910156 15.644531 25.097656 15.484375 C 25.199219 15.402344 25.3125 15.34375 25.433594 15.300781 Z M 25.433594 15.300781 "/>
<path style=" stroke:none;fill-rule:evenodd;fill:rgb(94.509804%,92.941176%,90.196078%);fill-opacity:1;" d="M 22.238281 15.542969 C 22.359375 15.730469 22.476562 15.921875 22.585938 16.117188 C 23.007812 16.777344 23.542969 17.328125 24.183594 17.773438 C 22.148438 20.019531 20.601562 22.570312 19.539062 25.433594 C 18.976562 27.027344 18.625 28.667969 18.484375 30.351562 C 18.394531 33.5 18.464844 36.644531 18.699219 39.785156 C 18.804688 41.457031 19.085938 43.097656 19.539062 44.707031 C 19.710938 45.269531 19.945312 45.804688 20.234375 46.316406 C 20.609375 46.996094 21.027344 47.644531 21.496094 48.257812 C 21.398438 48.375 21.292969 48.480469 21.171875 48.570312 C 21.144531 48.511719 21.113281 48.457031 21.074219 48.402344 C 20.890625 48.210938 20.707031 48.019531 20.523438 47.828125 C 20.296875 47.570312 20.121094 47.28125 19.996094 46.964844 C 19.890625 46.648438 19.777344 46.335938 19.660156 46.027344 C 18.859375 44.265625 18.164062 42.46875 17.570312 40.625 C 17.175781 39.066406 16.992188 37.484375 17.019531 35.875 C 16.964844 35.25 16.925781 34.625 16.898438 34 C 16.882812 32.6875 16.882812 31.378906 16.898438 30.066406 C 16.929688 29.671875 16.96875 29.28125 17.019531 28.886719 C 17.242188 27.816406 17.464844 26.746094 17.691406 25.671875 C 18.148438 23.945312 18.664062 22.238281 19.238281 20.546875 C 19.378906 20.164062 19.527344 19.785156 19.683594 19.40625 C 20.144531 18.292969 20.785156 17.300781 21.601562 16.429688 C 21.625 16.34375 21.613281 16.265625 21.566406 16.191406 C 21.792969 15.972656 22.015625 15.757812 22.238281 15.542969 Z M 22.238281 15.542969 "/>
<path style=" stroke:none;fill-rule:evenodd;fill:rgb(92.54902%,91.372549%,88.627451%);fill-opacity:1;" d="M 25.648438 15.878906 C 25.777344 15.871094 25.894531 15.902344 26.007812 15.960938 C 26.109375 16.046875 26.195312 16.148438 26.261719 16.261719 C 26.34375 16.460938 26.292969 16.605469 26.105469 16.707031 C 25.796875 16.859375 25.527344 16.804688 25.300781 16.550781 C 25.269531 16.472656 25.261719 16.390625 25.277344 16.3125 C 25.347656 16.207031 25.421875 16.101562 25.492188 16 C 25.539062 15.949219 25.589844 15.910156 25.648438 15.878906 Z M 25.648438 15.878906 "/>
<use xlink:href="#surface12" mask="url(#mask2)"/>
<path style=" stroke:none;fill-rule:evenodd;fill:rgb(62.745098%,56.862745%,58.823529%);fill-opacity:1;" d="M 24.183594 17.773438 C 24.53125 18.03125 24.882812 18.285156 25.238281 18.53125 C 25.179688 18.542969 25.128906 18.570312 25.085938 18.613281 C 24.980469 19.042969 24.8125 19.445312 24.578125 19.816406 C 24.242188 20.277344 23.898438 20.730469 23.546875 21.183594 C 23.382812 21.445312 23.222656 21.707031 23.066406 21.976562 C 22.660156 22.78125 22.261719 23.589844 21.867188 24.398438 C 21.308594 25.671875 20.839844 26.976562 20.453125 28.3125 C 20.144531 29.429688 19.941406 30.5625 19.851562 31.722656 C 19.746094 32.808594 19.65625 33.898438 19.574219 34.984375 C 19.410156 35.886719 19.285156 36.800781 19.203125 37.722656 C 19.160156 38.617188 19.203125 39.488281 19.335938 40.339844 C 19.339844 41.03125 19.382812 41.730469 19.46875 42.425781 C 19.742188 43.671875 20.09375 44.898438 20.523438 46.097656 C 20.773438 46.789062 21.109375 47.429688 21.53125 48.019531 C 21.546875 48.082031 21.546875 48.148438 21.53125 48.210938 C 21.523438 48.234375 21.511719 48.25 21.496094 48.257812 C 21.027344 47.644531 20.609375 46.996094 20.234375 46.316406 C 19.945312 45.804688 19.710938 45.269531 19.539062 44.707031 C 19.085938 43.097656 18.804688 41.457031 18.699219 39.785156 C 18.464844 36.644531 18.394531 33.5 18.484375 30.351562 C 18.625 28.667969 18.976562 27.027344 19.539062 25.433594 C 20.601562 22.570312 22.148438 20.019531 24.183594 17.773438 Z M 24.183594 17.773438 "/>
<use xlink:href="#surface15" mask="url(#mask3)"/>
<use xlink:href="#surface18" mask="url(#mask4)"/>
<use xlink:href="#surface21" mask="url(#mask5)"/>
<path style=" stroke:none;fill-rule:evenodd;fill:rgb(65.882353%,65.098039%,63.137255%);fill-opacity:1;" d="M 32.539062 22.886719 C 32.578125 22.960938 32.605469 23.039062 32.609375 23.128906 C 32.5625 23.058594 32.539062 22.976562 32.539062 22.886719 Z M 32.539062 22.886719 "/>
<use xlink:href="#surface24" mask="url(#mask6)"/>
<use xlink:href="#surface27" mask="url(#mask7)"/>
<path style=" stroke:none;fill-rule:evenodd;fill:rgb(90.980392%,89.411765%,86.666667%);fill-opacity:1;" d="M 19.574219 34.984375 C 19.488281 36.03125 19.414062 37.082031 19.347656 38.128906 C 19.335938 38.867188 19.332031 39.601562 19.335938 40.339844 C 19.203125 39.488281 19.160156 38.617188 19.203125 37.722656 C 19.285156 36.800781 19.410156 35.886719 19.574219 34.984375 Z M 19.574219 34.984375 "/>
<path style=" stroke:none;fill-rule:evenodd;fill:rgb(76.470588%,75.294118%,72.941176%);fill-opacity:1;" d="M 20.128906 42.953125 C 20.214844 43.195312 20.285156 43.445312 20.34375 43.699219 C 20.238281 43.464844 20.167969 43.214844 20.128906 42.953125 Z M 20.128906 42.953125 "/>
<use xlink:href="#surface30" mask="url(#mask8)"/>
<use xlink:href="#surface33" mask="url(#mask9)"/>
<use xlink:href="#surface36" mask="url(#mask10)"/>
</g>
</svg>
