<?xml version="1.0" encoding="UTF-8"?>
<svg xmlns="http://www.w3.org/2000/svg" xmlns:xlink="http://www.w3.org/1999/xlink" width="50pt" height="50pt" viewBox="0 0 50 50" version="1.1">
<defs>
<filter id="alpha" filterUnits="objectBoundingBox" x="0%" y="0%" width="100%" height="100%">
  <feColorMatrix type="matrix" in="SourceGraphic" values="0 0 0 0 1 0 0 0 0 1 0 0 0 0 1 0 0 0 1 0"/>
</filter>
<mask id="mask0">
  <g filter="url(#alpha)">
<rect x="0" y="0" width="50" height="50" style="fill:rgb(0%,0%,0%);fill-opacity:0.988235;stroke:none;"/>
  </g>
</mask>
<clipPath id="clip1">
  <rect width="50" height="50"/>
</clipPath>
<g id="surface6" clip-path="url(#clip1)">
<path style=" stroke:none;fill-rule:evenodd;fill:rgb(0.392157%,0.392157%,0.392157%);fill-opacity:1;" d="M 29.65625 32.371094 C 29.59375 32.988281 29.550781 33.613281 29.523438 34.242188 C 29.402344 37.914062 29.417969 41.585938 29.574219 45.257812 C 29.695312 46.253906 29.871094 47.238281 30.101562 48.210938 C 30.175781 48.667969 30.253906 49.125 30.328125 49.578125 C 30.347656 49.757812 30.285156 49.894531 30.136719 49.988281 C 30.015625 49.988281 29.898438 49.988281 29.777344 49.988281 C 29.695312 49.941406 29.625 49.882812 29.5625 49.808594 C 28.269531 49.683594 26.984375 49.558594 25.695312 49.425781 C 25.550781 49.367188 25.441406 49.265625 25.371094 49.125 C 25.28125 48.925781 25.226562 48.71875 25.203125 48.5 C 25.082031 47.222656 24.976562 45.941406 24.890625 44.660156 C 24.902344 41.539062 24.902344 38.417969 24.890625 35.296875 C 24.824219 32.953125 24.742188 30.609375 24.652344 28.265625 C 24.597656 27.296875 24.535156 26.328125 24.460938 25.359375 C 24.4375 24.824219 24.421875 24.289062 24.410156 23.75 C 24.417969 21.945312 24.417969 20.136719 24.410156 18.328125 C 24.28125 15.449219 24.207031 12.566406 24.195312 9.6875 C 24.207031 9.394531 24.238281 9.105469 24.28125 8.820312 C 24.296875 8.71875 24.3125 8.613281 24.328125 8.507812 C 22.734375 8.441406 21.144531 8.445312 19.550781 8.519531 C 19.046875 8.554688 18.542969 8.601562 18.039062 8.664062 C 17.710938 8.6875 17.382812 8.675781 17.054688 8.628906 C 16.984375 8.519531 16.992188 8.421875 17.078125 8.328125 C 17.382812 8.324219 17.6875 8.308594 17.992188 8.28125 C 19.296875 8.007812 20.617188 7.871094 21.953125 7.875 C 23.023438 7.855469 24.097656 7.855469 25.167969 7.875 C 25.625 7.890625 26.082031 7.914062 26.535156 7.945312 C 27.878906 8.078125 29.222656 8.179688 30.570312 8.257812 C 31.648438 8.257812 32.730469 8.257812 33.808594 8.257812 C 34.25 8.320312 34.6875 8.375 35.128906 8.414062 C 35.140625 8.339844 35.148438 8.269531 35.152344 8.199219 C 35.140625 7.898438 35.125 7.597656 35.105469 7.296875 C 35.136719 6.863281 35.160156 6.425781 35.175781 5.988281 C 35.199219 5.929688 35.210938 5.867188 35.203125 5.796875 C 35.203125 5.757812 35.203125 5.71875 35.203125 5.675781 C 35.222656 5.652344 35.230469 5.621094 35.226562 5.582031 C 35.226562 5.523438 35.226562 5.46875 35.226562 5.414062 C 35.242188 5.414062 35.25 5.40625 35.25 5.390625 C 35.285156 5.003906 35.324219 4.621094 35.371094 4.238281 C 35.386719 4.238281 35.394531 4.230469 35.394531 4.210938 C 35.394531 4.164062 35.394531 4.117188 35.394531 4.070312 C 35.414062 4.050781 35.421875 4.027344 35.417969 3.996094 C 35.417969 3.972656 35.417969 3.949219 35.417969 3.925781 C 35.441406 3.890625 35.449219 3.851562 35.441406 3.804688 C 35.441406 3.78125 35.441406 3.757812 35.441406 3.734375 C 35.464844 3.699219 35.472656 3.660156 35.464844 3.613281 C 35.464844 3.582031 35.464844 3.546875 35.464844 3.515625 C 35.488281 3.492188 35.496094 3.457031 35.488281 3.421875 C 35.488281 3.378906 35.488281 3.339844 35.488281 3.300781 C 35.511719 3.273438 35.519531 3.242188 35.515625 3.203125 C 35.515625 3.171875 35.515625 3.140625 35.515625 3.109375 C 35.535156 3.082031 35.542969 3.050781 35.539062 3.011719 C 35.539062 2.988281 35.539062 2.964844 35.539062 2.941406 C 35.558594 2.90625 35.570312 2.867188 35.5625 2.820312 C 35.59375 2.8125 35.59375 2.804688 35.5625 2.796875 C 35.558594 2.78125 35.550781 2.769531 35.539062 2.761719 C 35.238281 2.675781 34.933594 2.621094 34.625 2.59375 C 33.410156 2.589844 32.191406 2.570312 30.976562 2.53125 C 29.855469 2.4375 28.726562 2.382812 27.59375 2.363281 C 26.566406 2.382812 25.542969 2.421875 24.519531 2.484375 C 24.320312 2.496094 24.121094 2.503906 23.917969 2.507812 C 23.921875 2.613281 23.890625 2.707031 23.824219 2.785156 C 23.453125 2.84375 23.101562 2.964844 22.769531 3.144531 C 21.699219 3.785156 20.652344 4.457031 19.625 5.160156 C 19.027344 5.542969 18.410156 5.894531 17.773438 6.21875 C 17.554688 6.316406 17.328125 6.410156 17.101562 6.492188 C 17.007812 6.515625 16.921875 6.546875 16.839844 6.589844 C 16.691406 6.613281 16.542969 6.636719 16.394531 6.660156 C 16.25 6.648438 16.171875 6.566406 16.167969 6.421875 C 16.179688 6.316406 16.226562 6.234375 16.3125 6.167969 C 16.847656 6.082031 17.351562 5.894531 17.824219 5.617188 C 18.203125 5.398438 18.578125 5.175781 18.949219 4.945312 C 19.945312 4.261719 20.945312 3.589844 21.953125 2.929688 C 22.378906 2.679688 22.820312 2.445312 23.273438 2.230469 C 24.03125 2.105469 24.789062 1.984375 25.550781 1.871094 C 26.550781 1.769531 27.550781 1.71875 28.550781 1.714844 C 30.046875 1.757812 31.546875 1.796875 33.042969 1.835938 C 33.542969 1.8125 34.042969 1.789062 34.542969 1.765625 C 34.84375 1.777344 35.144531 1.804688 35.441406 1.847656 C 35.644531 1.882812 35.835938 1.949219 36.019531 2.039062 C 36.234375 2.253906 36.265625 2.488281 36.101562 2.75 C 36.03125 3.542969 35.953125 4.332031 35.863281 5.125 C 35.789062 6.003906 35.765625 6.882812 35.789062 7.765625 C 35.839844 8.003906 35.867188 8.246094 35.863281 8.484375 C 36.054688 8.667969 36.085938 8.875 35.957031 9.109375 C 35.832031 9.246094 35.675781 9.304688 35.488281 9.277344 C 34.800781 9.214844 34.113281 9.136719 33.425781 9.050781 C 32.117188 9.09375 30.8125 9.058594 29.511719 8.941406 C 29.488281 9.363281 29.484375 9.789062 29.5 10.214844 C 29.574219 11.015625 29.652344 11.816406 29.742188 12.613281 C 29.765625 12.984375 29.777344 13.359375 29.777344 13.730469 C 29.742188 14.992188 29.691406 16.25 29.621094 17.511719 C 29.609375 18.175781 29.597656 18.839844 29.585938 19.503906 C 29.648438 22.558594 29.707031 25.617188 29.753906 28.671875 C 29.765625 29.90625 29.734375 31.136719 29.65625 32.371094 Z M 30.976562 2.53125 C 28.820312 2.523438 26.667969 2.507812 24.519531 2.484375 C 25.542969 2.421875 26.566406 2.382812 27.59375 2.363281 C 28.726562 2.382812 29.855469 2.4375 30.976562 2.53125 Z M 29.273438 8.917969 C 29.296875 8.917969 29.3125 8.929688 29.320312 8.953125 C 29.308594 9.003906 29.292969 9.046875 29.273438 9.085938 C 29.273438 9.03125 29.273438 8.972656 29.273438 8.917969 Z M 25.601562 42.378906 C 25.652344 43.628906 25.691406 44.886719 25.71875 46.148438 C 25.664062 45.738281 25.628906 45.320312 25.613281 44.898438 C 25.601562 44.058594 25.597656 43.21875 25.601562 42.378906 Z M 25.601562 42.378906 "/>
</g>
<mask id="mask1">
  <g filter="url(#alpha)">
<rect x="0" y="0" width="50" height="50" style="fill:rgb(0%,0%,0%);fill-opacity:0.996078;stroke:none;"/>
  </g>
</mask>
<clipPath id="clip2">
  <rect width="50" height="50"/>
</clipPath>
<g id="surface9" clip-path="url(#clip2)">
<path style=" stroke:none;fill-rule:evenodd;fill:rgb(62.745098%,56.862745%,58.823529%);fill-opacity:1;" d="M 17.101562 6.492188 C 17.101562 6.53125 17.117188 6.558594 17.152344 6.578125 C 17.535156 6.847656 17.917969 7.121094 18.304688 7.394531 C 23.839844 7.667969 29.375 7.929688 34.914062 8.171875 C 34.996094 8.171875 35.074219 8.179688 35.152344 8.199219 C 35.148438 8.269531 35.140625 8.339844 35.128906 8.414062 C 34.6875 8.375 34.25 8.320312 33.808594 8.257812 C 32.730469 8.257812 31.648438 8.257812 30.570312 8.257812 C 29.222656 8.179688 27.878906 8.078125 26.535156 7.945312 C 26.082031 7.914062 25.625 7.890625 25.167969 7.875 C 24.097656 7.855469 23.023438 7.855469 21.953125 7.875 C 20.617188 7.871094 19.296875 8.007812 17.992188 8.28125 C 17.6875 8.308594 17.382812 8.324219 17.078125 8.328125 C 16.992188 8.421875 16.984375 8.519531 17.054688 8.628906 C 16.964844 8.628906 16.878906 8.628906 16.789062 8.628906 C 16.804688 7.949219 16.820312 7.269531 16.839844 6.589844 C 16.921875 6.546875 17.007812 6.515625 17.101562 6.492188 Z M 17.101562 6.492188 "/>
</g>
<mask id="mask2">
  <g filter="url(#alpha)">
<rect x="0" y="0" width="50" height="50" style="fill:rgb(0%,0%,0%);fill-opacity:0.960784;stroke:none;"/>
  </g>
</mask>
<clipPath id="clip3">
  <rect width="50" height="50"/>
</clipPath>
<g id="surface12" clip-path="url(#clip3)">
<path style=" stroke:none;fill-rule:evenodd;fill:rgb(92.54902%,91.372549%,88.627451%);fill-opacity:1;" d="M 24.28125 8.820312 C 22.3125 8.855469 20.34375 8.851562 18.375 8.808594 C 17.941406 8.800781 17.511719 8.777344 17.078125 8.738281 C 16.996094 8.730469 16.917969 8.714844 16.839844 8.6875 C 16.808594 8.679688 16.792969 8.660156 16.789062 8.628906 C 16.878906 8.628906 16.964844 8.628906 17.054688 8.628906 C 17.382812 8.675781 17.710938 8.6875 18.039062 8.664062 C 18.542969 8.601562 19.046875 8.554688 19.550781 8.519531 C 21.144531 8.445312 22.734375 8.441406 24.328125 8.507812 C 24.3125 8.613281 24.296875 8.71875 24.28125 8.820312 Z M 24.28125 8.820312 "/>
</g>
<mask id="mask3">
  <g filter="url(#alpha)">
<rect x="0" y="0" width="50" height="50" style="fill:rgb(0%,0%,0%);fill-opacity:0.996078;stroke:none;"/>
  </g>
</mask>
<clipPath id="clip4">
  <rect width="50" height="50"/>
</clipPath>
<g id="surface15" clip-path="url(#clip4)">
<path style=" stroke:none;fill-rule:evenodd;fill:rgb(62.745098%,56.862745%,58.823529%);fill-opacity:1;" d="M 25.601562 8.582031 C 25.550781 8.582031 25.503906 8.582031 25.457031 8.582031 C 25.777344 21.976562 26.097656 35.371094 26.417969 48.765625 C 26.328125 48.765625 26.242188 48.765625 26.152344 48.765625 C 26.136719 48.742188 26.109375 48.734375 26.082031 48.738281 C 26.042969 48.722656 26.007812 48.699219 25.972656 48.667969 C 25.945312 48.597656 25.921875 48.523438 25.898438 48.453125 C 25.835938 47.738281 25.773438 47.023438 25.71875 46.316406 C 25.71875 46.257812 25.71875 46.203125 25.71875 46.148438 C 25.691406 44.886719 25.652344 43.628906 25.601562 42.378906 C 25.578125 39.472656 25.574219 36.570312 25.589844 33.664062 C 25.5 31.824219 25.429688 29.984375 25.371094 28.144531 C 25.289062 27.066406 25.226562 25.984375 25.179688 24.902344 C 25.171875 23.015625 25.171875 21.128906 25.179688 19.238281 C 25.078125 17.488281 24.992188 15.734375 24.914062 13.980469 C 24.886719 12.710938 24.871094 11.4375 24.867188 10.164062 C 24.851562 9.617188 24.796875 9.074219 24.710938 8.535156 C 25.011719 8.539062 25.308594 8.558594 25.601562 8.582031 Z M 25.601562 8.582031 "/>
</g>
<mask id="mask4">
  <g filter="url(#alpha)">
<rect x="0" y="0" width="50" height="50" style="fill:rgb(0%,0%,0%);fill-opacity:0.984314;stroke:none;"/>
  </g>
</mask>
<clipPath id="clip5">
  <rect width="50" height="50"/>
</clipPath>
<g id="surface18" clip-path="url(#clip5)">
<path style=" stroke:none;fill-rule:evenodd;fill:rgb(94.117647%,92.54902%,89.803922%);fill-opacity:1;" d="M 29.65625 32.371094 C 30.097656 38.164062 30.53125 43.957031 30.964844 49.746094 C 30.761719 49.65625 30.550781 49.601562 30.328125 49.578125 C 30.253906 49.125 30.175781 48.667969 30.101562 48.210938 C 29.871094 47.238281 29.695312 46.253906 29.574219 45.257812 C 29.417969 41.585938 29.402344 37.914062 29.523438 34.242188 C 29.550781 33.613281 29.59375 32.988281 29.65625 32.371094 Z M 29.65625 32.371094 "/>
</g>
</defs>
<g id="surface1">
<use xlink:href="#surface6" mask="url(#mask0)"/>
<path style=" stroke:none;fill-rule:evenodd;fill:rgb(94.509804%,92.941176%,90.196078%);fill-opacity:1;" d="M 24.519531 2.484375 C 26.667969 2.507812 28.820312 2.523438 30.976562 2.53125 C 32.191406 2.570312 33.410156 2.589844 34.625 2.59375 C 34.933594 2.621094 35.238281 2.675781 35.539062 2.761719 C 35.550781 2.769531 35.558594 2.78125 35.5625 2.796875 C 35.5625 2.804688 35.5625 2.8125 35.5625 2.820312 C 35.539062 2.855469 35.53125 2.894531 35.539062 2.941406 C 35.539062 2.964844 35.539062 2.988281 35.539062 3.011719 C 35.515625 3.039062 35.507812 3.070312 35.515625 3.109375 C 35.515625 3.140625 35.515625 3.171875 35.515625 3.203125 C 35.492188 3.230469 35.484375 3.261719 35.488281 3.300781 C 35.488281 3.339844 35.488281 3.378906 35.488281 3.421875 C 35.46875 3.445312 35.460938 3.476562 35.464844 3.515625 C 35.464844 3.546875 35.464844 3.582031 35.464844 3.613281 C 35.441406 3.648438 35.433594 3.6875 35.441406 3.734375 C 35.441406 3.757812 35.441406 3.78125 35.441406 3.804688 C 35.417969 3.839844 35.410156 3.878906 35.417969 3.925781 C 35.417969 3.949219 35.417969 3.972656 35.417969 3.996094 C 35.394531 4.011719 35.386719 4.039062 35.394531 4.070312 C 35.394531 4.117188 35.394531 4.164062 35.394531 4.210938 C 35.378906 4.210938 35.371094 4.21875 35.371094 4.238281 C 35.324219 4.621094 35.285156 5.003906 35.25 5.390625 C 35.234375 5.390625 35.226562 5.398438 35.226562 5.414062 C 35.226562 5.46875 35.226562 5.523438 35.226562 5.582031 C 35.203125 5.605469 35.195312 5.636719 35.203125 5.675781 C 35.203125 5.71875 35.203125 5.757812 35.203125 5.796875 C 35.179688 5.855469 35.171875 5.917969 35.175781 5.988281 C 35.074219 6.710938 34.984375 7.441406 34.914062 8.171875 C 29.375 7.929688 23.839844 7.667969 18.304688 7.394531 C 17.917969 7.121094 17.535156 6.847656 17.152344 6.578125 C 17.117188 6.558594 17.101562 6.53125 17.101562 6.492188 C 17.328125 6.410156 17.554688 6.316406 17.773438 6.21875 C 18.410156 5.894531 19.027344 5.542969 19.625 5.160156 C 20.652344 4.457031 21.699219 3.785156 22.769531 3.144531 C 23.101562 2.964844 23.453125 2.84375 23.824219 2.785156 C 23.890625 2.707031 23.921875 2.613281 23.917969 2.507812 C 24.121094 2.503906 24.320312 2.496094 24.519531 2.484375 Z M 24.519531 2.484375 "/>
<use xlink:href="#surface9" mask="url(#mask1)"/>
<use xlink:href="#surface12" mask="url(#mask2)"/>
<use xlink:href="#surface15" mask="url(#mask3)"/>
<path style=" stroke:none;fill-rule:evenodd;fill:rgb(94.509804%,92.941176%,90.196078%);fill-opacity:1;" d="M 25.601562 8.582031 C 26.824219 8.683594 28.050781 8.796875 29.273438 8.917969 C 29.273438 8.972656 29.273438 9.03125 29.273438 9.085938 C 29.203125 9.515625 29.152344 9.945312 29.117188 10.382812 C 29.089844 11.160156 29.113281 11.933594 29.1875 12.710938 C 29.203125 13.09375 29.203125 13.476562 29.1875 13.863281 C 28.914062 16.71875 28.820312 19.585938 28.902344 22.457031 C 29 25.0625 29.042969 27.671875 29.019531 30.28125 C 28.988281 31 28.957031 31.722656 28.925781 32.441406 C 28.730469 34.449219 28.640625 36.460938 28.648438 38.476562 C 28.671875 40.410156 28.691406 42.34375 28.707031 44.273438 C 28.726562 44.886719 28.777344 45.492188 28.851562 46.097656 C 29.046875 47.042969 29.238281 47.984375 29.417969 48.933594 C 28.808594 48.882812 28.203125 48.847656 27.59375 48.824219 C 27.320312 48.804688 27.046875 48.777344 26.777344 48.738281 C 26.65625 48.753906 26.535156 48.765625 26.417969 48.765625 C 26.097656 35.371094 25.777344 21.976562 25.457031 8.582031 C 25.503906 8.582031 25.550781 8.582031 25.601562 8.582031 Z M 25.601562 8.582031 "/>
<use xlink:href="#surface18" mask="url(#mask4)"/>
</g>
</svg>
