<?xml version="1.0" encoding="UTF-8"?>
<svg xmlns="http://www.w3.org/2000/svg" xmlns:xlink="http://www.w3.org/1999/xlink" width="50pt" height="50pt" viewBox="0 0 50 50" version="1.1">
<defs>
<filter id="alpha" filterUnits="objectBoundingBox" x="0%" y="0%" width="100%" height="100%">
  <feColorMatrix type="matrix" in="SourceGraphic" values="0 0 0 0 1 0 0 0 0 1 0 0 0 0 1 0 0 0 1 0"/>
</filter>
<mask id="mask0">
  <g filter="url(#alpha)">
<rect x="0" y="0" width="50" height="50" style="fill:rgb(0%,0%,0%);fill-opacity:0.988235;stroke:none;"/>
  </g>
</mask>
<clipPath id="clip1">
  <rect width="50" height="50"/>
</clipPath>
<g id="surface6" clip-path="url(#clip1)">
<path style=" stroke:none;fill-rule:evenodd;fill:rgb(0%,0%,0%);fill-opacity:1;" d="M 23.96875 1.691406 C 28.457031 1.578125 32.714844 2.511719 36.738281 4.488281 C 40.625 6.527344 43.613281 9.476562 45.703125 13.335938 C 47.765625 17.296875 48.734375 21.511719 48.609375 25.984375 C 48.46875 29.921875 47.5 33.644531 45.703125 37.144531 C 43.628906 41.003906 40.664062 43.976562 36.808594 46.0625 C 31.222656 49.042969 25.316406 49.929688 19.09375 48.726562 C 14.367188 47.710938 10.332031 45.484375 6.984375 42.042969 C 3.898438 38.742188 1.996094 34.847656 1.273438 30.351562 C 0.714844 27.070312 0.714844 23.792969 1.273438 20.511719 C 2.800781 12.195312 7.496094 6.492188 15.351562 3.410156 C 18.132812 2.363281 21.003906 1.792969 23.96875 1.691406 Z M 23.96875 1.691406 "/>
</g>
</defs>
<g id="surface1">
<use xlink:href="#surface6" mask="url(#mask0)"/>
<path style=" stroke:none;fill-rule:evenodd;fill:rgb(99.607843%,99.607843%,99.607843%);fill-opacity:1;" d="M 23.945312 2.582031 C 28.464844 2.492188 32.730469 3.488281 36.738281 5.570312 C 40.976562 7.847656 44.011719 11.210938 45.847656 15.664062 C 48.1875 21.535156 48.3125 27.457031 46.230469 33.425781 C 44.074219 39.199219 40.214844 43.414062 34.648438 46.0625 C 29.125 48.574219 23.433594 49.011719 17.582031 47.382812 C 13.472656 46.183594 9.984375 44.003906 7.128906 40.84375 C 4.636719 37.960938 2.988281 34.640625 2.183594 30.882812 C 1.214844 26.234375 1.507812 21.675781 3.074219 17.199219 C 5.585938 10.382812 10.300781 5.871094 17.222656 3.671875 C 19.417969 3.015625 21.660156 2.652344 23.945312 2.582031 Z M 23.945312 2.582031 "/>
<path style=" stroke:none;fill-rule:evenodd;fill:rgb(94.509804%,92.941176%,90.196078%);fill-opacity:1;" d="M 28.167969 4.835938 C 23.609375 4.199219 19.238281 4.84375 15.0625 6.769531 C 8.464844 10.007812 4.726562 15.292969 3.839844 22.625 C 3.367188 26.851562 3.976562 30.917969 5.664062 34.816406 C 7.515625 38.796875 10.382812 41.808594 14.269531 43.855469 C 17.78125 45.617188 21.5 46.410156 25.433594 46.230469 C 27.699219 46.132812 29.90625 45.71875 32.058594 44.996094 C 32.058594 45.019531 32.046875 45.035156 32.019531 45.042969 C 27.25 47.035156 22.382812 47.3125 17.414062 45.871094 C 12.082031 44.160156 7.996094 40.902344 5.160156 36.089844 C 2.566406 31.421875 1.78125 26.460938 2.808594 21.207031 C 3.8125 16.636719 6.039062 12.792969 9.492188 9.671875 C 14.046875 5.738281 19.34375 3.980469 25.382812 4.394531 C 26.328125 4.464844 27.257812 4.613281 28.167969 4.835938 Z M 28.167969 4.835938 "/>
<path style=" stroke:none;fill-rule:evenodd;fill:rgb(0.392157%,0.392157%,0.392157%);fill-opacity:1;" d="M 28.167969 4.835938 C 32.230469 5.441406 35.816406 7.058594 38.921875 9.699219 C 41.851562 12.34375 43.839844 15.578125 44.886719 19.40625 C 46.230469 24.613281 45.789062 29.660156 43.566406 34.554688 C 41.164062 39.617188 37.328125 43.097656 32.058594 44.996094 C 29.90625 45.71875 27.699219 46.132812 25.433594 46.230469 C 21.5 46.410156 17.78125 45.617188 14.269531 43.855469 C 10.382812 41.808594 7.515625 38.796875 5.664062 34.816406 C 3.976562 30.917969 3.367188 26.851562 3.839844 22.625 C 4.726562 15.292969 8.464844 10.007812 15.0625 6.769531 C 19.238281 4.84375 23.609375 4.199219 28.167969 4.835938 Z M 28.167969 4.835938 "/>
<path style=" stroke:none;fill-rule:evenodd;fill:rgb(63.921569%,21.960784%,17.254902%);fill-opacity:1;" d="M 25.289062 5.53125 C 25.300781 6.199219 25.285156 6.863281 25.253906 7.523438 C 25.070312 7.871094 24.804688 7.960938 24.449219 7.800781 C 24.335938 7.71875 24.257812 7.613281 24.21875 7.476562 C 24.207031 6.835938 24.203125 6.195312 24.207031 5.558594 C 24.234375 5.140625 24.457031 4.949219 24.878906 4.992188 C 25.140625 5.082031 25.277344 5.261719 25.289062 5.53125 Z M 25.289062 5.53125 "/>
<path style=" stroke:none;fill-rule:evenodd;fill:rgb(94.509804%,92.941176%,90.196078%);fill-opacity:1;" d="M 25.289062 5.53125 C 27.386719 5.5625 29.4375 5.898438 31.433594 6.542969 C 31.441406 6.550781 31.449219 6.558594 31.457031 6.566406 C 31.316406 7.011719 31.160156 7.449219 30.988281 7.886719 C 30.875 8.378906 31.070312 8.609375 31.578125 8.570312 C 31.664062 8.542969 31.734375 8.492188 31.78125 8.414062 C 31.960938 7.890625 32.148438 7.371094 32.34375 6.851562 C 34.738281 7.765625 36.859375 9.09375 38.707031 10.835938 C 38.324219 11.199219 37.949219 11.578125 37.589844 11.964844 C 37.371094 12.191406 37.355469 12.429688 37.542969 12.6875 C 37.714844 12.820312 37.90625 12.839844 38.105469 12.746094 C 38.527344 12.316406 38.933594 11.886719 39.332031 11.449219 C 40.851562 13.015625 42.070312 14.796875 42.980469 16.789062 C 42.480469 17.046875 41.976562 17.292969 41.464844 17.523438 C 41.230469 17.710938 41.1875 17.9375 41.335938 18.207031 C 41.445312 18.359375 41.59375 18.421875 41.777344 18.386719 C 42.082031 18.222656 42.394531 18.078125 42.714844 17.953125 C 42.925781 17.84375 43.136719 17.746094 43.339844 17.65625 C 44.261719 19.964844 44.734375 22.367188 44.753906 24.855469 C 44.050781 24.828125 43.347656 24.824219 42.644531 24.84375 C 42.253906 25.007812 42.144531 25.285156 42.320312 25.671875 C 42.398438 25.785156 42.507812 25.863281 42.644531 25.898438 C 42.875 25.910156 43.105469 25.921875 43.339844 25.9375 C 43.792969 25.914062 44.25 25.90625 44.707031 25.914062 C 44.636719 28.046875 44.246094 30.117188 43.53125 32.128906 C 43.476562 32.144531 43.421875 32.140625 43.363281 32.117188 C 43.113281 32.027344 42.863281 31.933594 42.617188 31.828125 C 42.394531 31.730469 42.164062 31.683594 41.921875 31.683594 C 41.675781 31.800781 41.566406 32 41.597656 32.273438 C 41.628906 32.363281 41.683594 32.441406 41.753906 32.5 C 42.246094 32.664062 42.726562 32.84375 43.195312 33.042969 C 42.242188 35.363281 40.902344 37.429688 39.175781 39.234375 C 38.816406 38.886719 38.453125 38.546875 38.082031 38.214844 C 37.78125 38.070312 37.554688 38.144531 37.398438 38.441406 C 37.347656 38.566406 37.355469 38.6875 37.421875 38.800781 C 37.777344 39.164062 38.140625 39.523438 38.515625 39.871094 C 36.96875 41.34375 35.21875 42.523438 33.269531 43.410156 C 33.230469 43.375 33.199219 43.335938 33.171875 43.289062 C 33.015625 42.894531 32.832031 42.507812 32.621094 42.140625 C 32.324219 41.890625 32.058594 41.921875 31.828125 42.234375 C 31.792969 42.328125 31.785156 42.421875 31.804688 42.523438 C 32.019531 42.929688 32.214844 43.34375 32.394531 43.769531 C 32.386719 43.785156 32.378906 43.796875 32.371094 43.808594 C 30.140625 44.699219 27.828125 45.207031 25.433594 45.332031 C 25.371094 45.34375 25.320312 45.328125 25.289062 45.285156 C 25.292969 44.617188 25.289062 43.953125 25.277344 43.289062 C 25.195312 43.023438 25.015625 42.878906 24.734375 42.859375 C 24.476562 42.882812 24.304688 43.019531 24.21875 43.265625 C 24.207031 43.972656 24.203125 44.675781 24.207031 45.378906 C 22.085938 45.378906 20.015625 45.0625 17.992188 44.429688 C 18.089844 44.019531 18.230469 43.617188 18.410156 43.21875 C 18.453125 43.078125 18.488281 42.941406 18.519531 42.800781 C 18.453125 42.445312 18.234375 42.292969 17.871094 42.34375 C 17.789062 42.375 17.722656 42.429688 17.667969 42.5 C 17.5625 42.894531 17.429688 43.277344 17.257812 43.652344 C 17.203125 43.8125 17.152344 43.972656 17.101562 44.132812 C 14.625 43.230469 12.421875 41.886719 10.5 40.109375 C 10.65625 40.109375 10.792969 40.054688 10.910156 39.953125 C 11.246094 39.589844 11.585938 39.230469 11.929688 38.875 C 12.074219 38.667969 12.074219 38.457031 11.929688 38.25 C 11.742188 38.085938 11.535156 38.066406 11.316406 38.191406 C 10.976562 38.546875 10.636719 38.902344 10.296875 39.257812 C 10.175781 39.386719 10.109375 39.539062 10.105469 39.714844 C 8.519531 38.085938 7.296875 36.214844 6.445312 34.097656 C 6.503906 34.097656 6.558594 34.085938 6.613281 34.0625 C 6.949219 33.882812 7.292969 33.722656 7.644531 33.582031 C 7.78125 33.519531 7.90625 33.445312 8.027344 33.367188 C 8.1875 33.226562 8.238281 33.054688 8.183594 32.847656 C 8.105469 32.617188 7.941406 32.507812 7.691406 32.523438 C 7.359375 32.703125 7.015625 32.863281 6.660156 33.003906 C 6.46875 33.101562 6.285156 33.195312 6.109375 33.28125 C 5.253906 30.910156 4.789062 28.460938 4.714844 25.9375 C 4.761719 25.941406 4.800781 25.933594 4.835938 25.914062 C 5.5 25.917969 6.164062 25.914062 6.828125 25.898438 C 7.160156 25.792969 7.292969 25.5625 7.226562 25.214844 C 7.164062 25.019531 7.03125 24.894531 6.828125 24.84375 C 6.117188 24.824219 5.402344 24.828125 4.691406 24.855469 C 4.730469 22.757812 5.074219 20.714844 5.726562 18.722656 C 5.734375 18.710938 5.742188 18.699219 5.75 18.6875 C 6.148438 18.820312 6.539062 18.964844 6.925781 19.132812 C 7.074219 19.183594 7.226562 19.21875 7.382812 19.238281 C 7.738281 19.1875 7.894531 18.980469 7.847656 18.613281 C 7.824219 18.550781 7.785156 18.488281 7.742188 18.433594 C 7.171875 18.238281 6.605469 18.042969 6.035156 17.847656 C 6.980469 15.457031 8.347656 13.351562 10.140625 11.535156 C 10.539062 11.933594 10.945312 12.320312 11.367188 12.699219 C 11.605469 12.828125 11.816406 12.792969 12 12.589844 C 12.113281 12.414062 12.113281 12.238281 12 12.0625 C 11.589844 11.671875 11.1875 11.28125 10.800781 10.886719 C 12.375 9.425781 14.148438 8.257812 16.117188 7.382812 C 16.152344 7.40625 16.179688 7.441406 16.203125 7.476562 C 16.351562 7.777344 16.488281 8.078125 16.609375 8.390625 C 16.683594 8.53125 16.765625 8.664062 16.851562 8.796875 C 17.074219 8.980469 17.300781 8.984375 17.535156 8.808594 C 17.644531 8.699219 17.691406 8.566406 17.667969 8.414062 C 17.417969 7.957031 17.195312 7.484375 17.007812 6.996094 C 19.324219 6.109375 21.726562 5.628906 24.207031 5.558594 C 24.203125 6.195312 24.207031 6.835938 24.21875 7.476562 C 24.257812 7.613281 24.335938 7.71875 24.449219 7.800781 C 24.804688 7.960938 25.070312 7.871094 25.253906 7.523438 C 25.285156 6.863281 25.300781 6.199219 25.289062 5.53125 Z M 25.289062 5.53125 "/>
<path style=" stroke:none;fill-rule:evenodd;fill:rgb(0.392157%,0.392157%,0%);fill-opacity:1;" d="M 26.535156 24.59375 C 26.542969 24.605469 26.554688 24.613281 26.570312 24.617188 C 27.058594 24.441406 27.550781 24.289062 28.046875 24.160156 C 30.046875 23.710938 32.054688 23.660156 34.074219 24.003906 C 34.464844 24.085938 34.847656 24.1875 35.226562 24.316406 C 35.445312 24.398438 35.652344 24.496094 35.851562 24.617188 C 36.117188 24.773438 36.3125 25 36.4375 25.289062 C 36.558594 25.761719 36.4375 26.15625 36.066406 26.476562 C 35.753906 26.726562 35.402344 26.902344 35.007812 27.003906 C 34.246094 27.140625 33.480469 27.21875 32.707031 27.230469 C 31.597656 27.273438 30.496094 27.242188 29.394531 27.136719 C 28.386719 27.042969 27.386719 26.90625 26.390625 26.726562 C 26.351562 26.722656 26.3125 26.714844 26.273438 26.714844 C 25.703125 27.382812 24.988281 27.597656 24.136719 27.363281 C 23.046875 26.957031 22.589844 26.179688 22.769531 25.023438 C 22.890625 24.542969 23.152344 24.160156 23.546875 23.871094 C 23.457031 22.679688 23.363281 21.488281 23.257812 20.296875 C 23.109375 18.53125 23.070312 16.761719 23.140625 14.992188 C 23.195312 13.78125 23.375 12.585938 23.667969 11.414062 C 23.832031 10.8125 24.089844 10.25 24.4375 9.734375 C 24.945312 9.066406 25.515625 9.007812 26.152344 9.554688 C 26.667969 10.035156 27 10.621094 27.148438 11.316406 C 27.304688 12.113281 27.34375 12.910156 27.269531 13.71875 C 27.078125 15.621094 26.894531 17.527344 26.714844 19.429688 C 26.542969 20.957031 26.324219 22.480469 26.066406 23.992188 C 26.257812 24.167969 26.414062 24.367188 26.535156 24.59375 Z M 26.535156 24.59375 "/>
<path style=" stroke:none;fill-rule:evenodd;fill:rgb(63.529412%,21.568627%,16.862745%);fill-opacity:1;" d="M 25.265625 10.214844 C 25.449219 10.21875 25.597656 10.300781 25.707031 10.453125 C 26.136719 11.132812 26.367188 11.878906 26.402344 12.6875 C 26.441406 13.554688 26.410156 14.417969 26.308594 15.277344 C 26.195312 16.152344 26.078125 17.023438 25.949219 17.894531 C 25.765625 19.777344 25.519531 21.648438 25.203125 23.511719 C 25.1875 23.539062 25.164062 23.554688 25.132812 23.558594 C 24.90625 23.507812 24.675781 23.5 24.449219 23.535156 C 24.253906 21.164062 24.144531 18.785156 24.113281 16.40625 C 24.109375 15.050781 24.195312 13.695312 24.363281 12.351562 C 24.46875 11.660156 24.691406 11.011719 25.035156 10.40625 C 25.101562 10.328125 25.179688 10.261719 25.265625 10.214844 Z M 25.265625 10.214844 "/>
<path style=" stroke:none;fill-rule:evenodd;fill:rgb(63.529412%,22.745098%,18.039216%);fill-opacity:1;" d="M 35.851562 24.617188 C 35.652344 24.496094 35.445312 24.398438 35.226562 24.316406 C 34.847656 24.1875 34.464844 24.085938 34.074219 24.003906 C 32.054688 23.660156 30.046875 23.710938 28.046875 24.160156 C 29.585938 23.800781 31.144531 23.574219 32.730469 23.476562 C 33.234375 23.460938 33.738281 23.476562 34.242188 23.523438 C 34.617188 23.570312 34.976562 23.675781 35.320312 23.835938 C 35.636719 24.003906 35.8125 24.261719 35.851562 24.617188 Z M 35.851562 24.617188 "/>
<path style=" stroke:none;fill-rule:evenodd;fill:rgb(63.529412%,24.313725%,19.607843%);fill-opacity:1;" d="M 28.046875 24.160156 C 27.550781 24.289062 27.058594 24.441406 26.570312 24.617188 C 26.554688 24.613281 26.542969 24.605469 26.535156 24.59375 C 26.53125 24.519531 26.5625 24.476562 26.632812 24.460938 C 27.101562 24.34375 27.574219 24.246094 28.046875 24.160156 Z M 28.046875 24.160156 "/>
<path style=" stroke:none;fill-rule:evenodd;fill:rgb(63.529412%,21.568627%,16.862745%);fill-opacity:1;" d="M 24.472656 24.398438 C 24.929688 24.347656 25.308594 24.492188 25.613281 24.832031 C 25.921875 25.367188 25.851562 25.851562 25.40625 26.285156 C 25 26.558594 24.574219 26.582031 24.136719 26.355469 C 23.757812 26.070312 23.59375 25.691406 23.644531 25.214844 C 23.742188 24.761719 24.019531 24.488281 24.472656 24.398438 Z M 24.472656 24.398438 "/>
<path style=" stroke:none;fill-rule:evenodd;fill:rgb(63.529412%,21.568627%,16.862745%);fill-opacity:1;" d="M 26.894531 25.886719 C 26.839844 25.832031 26.777344 25.785156 26.703125 25.742188 C 26.699219 25.679688 26.703125 25.617188 26.714844 25.550781 C 27.484375 25.246094 28.28125 25.046875 29.105469 24.964844 C 30.746094 24.753906 32.386719 24.761719 34.027344 24.988281 C 34.460938 25.054688 34.851562 25.226562 35.191406 25.503906 C 35.367188 25.675781 35.363281 25.839844 35.175781 25.996094 C 35.058594 26.0625 34.929688 26.109375 34.792969 26.140625 C 32.746094 26.40625 30.699219 26.40625 28.648438 26.140625 C 28.0625 26.070312 27.476562 25.988281 26.894531 25.886719 Z M 26.894531 25.886719 "/>
<path style=" stroke:none;fill-rule:evenodd;fill:rgb(63.921569%,21.960784%,17.254902%);fill-opacity:1;" d="M 4.835938 25.914062 C 4.597656 25.886719 4.441406 25.757812 4.367188 25.527344 C 4.304688 25.21875 4.414062 24.992188 4.691406 24.855469 C 5.402344 24.828125 6.117188 24.824219 6.828125 24.84375 C 7.03125 24.894531 7.164062 25.019531 7.226562 25.214844 C 7.292969 25.5625 7.160156 25.792969 6.828125 25.898438 C 6.164062 25.914062 5.5 25.917969 4.835938 25.914062 Z M 4.835938 25.914062 "/>
<path style=" stroke:none;fill-rule:evenodd;fill:rgb(63.921569%,21.960784%,17.254902%);fill-opacity:1;" d="M 44.753906 24.855469 C 45.128906 25.027344 45.226562 25.296875 45.054688 25.671875 C 44.96875 25.796875 44.851562 25.875 44.707031 25.914062 C 44.25 25.90625 43.792969 25.914062 43.339844 25.9375 C 43.105469 25.921875 42.875 25.910156 42.644531 25.898438 C 42.507812 25.863281 42.398438 25.785156 42.320312 25.671875 C 42.144531 25.285156 42.253906 25.007812 42.644531 24.84375 C 43.347656 24.824219 44.050781 24.828125 44.753906 24.855469 Z M 44.753906 24.855469 "/>
<path style=" stroke:none;fill-rule:evenodd;fill:rgb(63.529412%,21.960784%,17.254902%);fill-opacity:1;" d="M 22.769531 25.023438 C 22.589844 26.179688 23.046875 26.957031 24.136719 27.363281 C 24.988281 27.597656 25.703125 27.382812 26.273438 26.714844 C 26.3125 26.714844 26.351562 26.722656 26.390625 26.726562 C 26.164062 27.640625 25.589844 28.1875 24.664062 28.371094 C 23.792969 28.453125 23.109375 28.136719 22.613281 27.425781 C 22.324219 26.929688 22.234375 26.402344 22.347656 25.839844 C 22.417969 25.527344 22.558594 25.257812 22.769531 25.023438 Z M 22.769531 25.023438 "/>
<path style=" stroke:none;fill-rule:evenodd;fill:rgb(82.352941%,77.254902%,74.901961%);fill-opacity:1;" d="M 26.703125 25.742188 C 26.777344 25.785156 26.839844 25.832031 26.894531 25.886719 C 26.832031 25.875 26.769531 25.863281 26.703125 25.851562 C 26.671875 25.8125 26.671875 25.777344 26.703125 25.742188 Z M 26.703125 25.742188 "/>
<path style=" stroke:none;fill-rule:evenodd;fill:rgb(63.921569%,23.529412%,18.431373%);fill-opacity:1;" d="M 29.394531 27.136719 C 30.496094 27.242188 31.597656 27.273438 32.707031 27.230469 C 32.421875 27.289062 32.132812 27.332031 31.839844 27.363281 C 31.269531 27.390625 30.703125 27.375 30.136719 27.316406 C 29.882812 27.269531 29.632812 27.210938 29.394531 27.136719 Z M 29.394531 27.136719 "/>
<path style=" stroke:none;fill-rule:evenodd;fill:rgb(63.921569%,21.960784%,17.254902%);fill-opacity:1;" d="M 25.289062 45.285156 C 25.265625 45.300781 25.257812 45.324219 25.265625 45.355469 C 25.15625 45.675781 24.929688 45.808594 24.59375 45.75 C 24.402344 45.6875 24.277344 45.5625 24.207031 45.378906 C 24.203125 44.675781 24.207031 43.972656 24.21875 43.265625 C 24.304688 43.019531 24.476562 42.882812 24.734375 42.859375 C 25.015625 42.878906 25.195312 43.023438 25.277344 43.289062 C 25.289062 43.953125 25.292969 44.617188 25.289062 45.285156 Z M 25.289062 45.285156 "/>
<path style=" stroke:none;fill-rule:evenodd;fill:rgb(55.294118%,52.156863%,50.588235%);fill-opacity:1;" d="M 25.289062 45.285156 C 25.320312 45.328125 25.371094 45.34375 25.433594 45.332031 C 25.382812 45.355469 25.324219 45.363281 25.265625 45.355469 C 25.257812 45.324219 25.265625 45.300781 25.289062 45.285156 Z M 25.289062 45.285156 "/>
</g>
</svg>
