<?xml version="1.0" encoding="UTF-8"?>
<svg xmlns="http://www.w3.org/2000/svg" xmlns:xlink="http://www.w3.org/1999/xlink" width="50pt" height="50pt" viewBox="0 0 50 50" version="1.1">
<defs>
<filter id="alpha" filterUnits="objectBoundingBox" x="0%" y="0%" width="100%" height="100%">
  <feColorMatrix type="matrix" in="SourceGraphic" values="0 0 0 0 1 0 0 0 0 1 0 0 0 0 1 0 0 0 1 0"/>
</filter>
<mask id="mask0">
  <g filter="url(#alpha)">
<rect x="0" y="0" width="50" height="50" style="fill:rgb(0%,0%,0%);fill-opacity:0.94902;stroke:none;"/>
  </g>
</mask>
<clipPath id="clip1">
  <rect width="50" height="50"/>
</clipPath>
<g id="surface6" clip-path="url(#clip1)">
<path style=" stroke:none;fill-rule:evenodd;fill:rgb(66.27451%,23.137255%,17.647059%);fill-opacity:1;" d="M 4.679688 9.09375 C 4.859375 9.078125 5.039062 9.101562 5.207031 9.164062 C 5.917969 9.925781 6.308594 10.828125 6.382812 11.875 C 6.417969 12.078125 6.480469 12.269531 6.574219 12.453125 C 7.597656 11.769531 8.710938 11.566406 9.910156 11.851562 C 10.179688 11.96875 10.410156 12.136719 10.605469 12.355469 C 10.851562 12.796875 11.09375 13.246094 11.324219 13.699219 C 11.691406 14.101562 12.097656 14.144531 12.546875 13.820312 C 13.027344 13.484375 13.488281 13.132812 13.941406 12.765625 C 14.285156 12.757812 14.421875 12.925781 14.347656 13.269531 C 13.871094 13.742188 13.367188 14.183594 12.835938 14.585938 C 12 15.089844 11.257812 14.988281 10.605469 14.277344 C 10.367188 13.882812 10.144531 13.484375 9.933594 13.074219 C 9.800781 12.902344 9.632812 12.78125 9.429688 12.714844 C 9.074219 12.675781 8.722656 12.695312 8.375 12.765625 C 7.859375 12.933594 7.363281 13.140625 6.886719 13.386719 C 6.308594 13.550781 5.886719 13.367188 5.613281 12.835938 C 5.464844 12.226562 5.304688 11.617188 5.132812 11.011719 C 4.96875 10.605469 4.742188 10.238281 4.460938 9.910156 C 4.335938 9.585938 4.410156 9.3125 4.679688 9.09375 Z M 4.679688 9.09375 "/>
</g>
<mask id="mask1">
  <g filter="url(#alpha)">
<rect x="0" y="0" width="50" height="50" style="fill:rgb(0%,0%,0%);fill-opacity:0.94902;stroke:none;"/>
  </g>
</mask>
<clipPath id="clip2">
  <rect width="50" height="50"/>
</clipPath>
<g id="surface9" clip-path="url(#clip2)">
<path style=" stroke:none;fill-rule:evenodd;fill:rgb(2.745098%,2.745098%,3.137255%);fill-opacity:1;" d="M 22.386719 9.667969 C 22.351562 9.726562 22.332031 9.789062 22.335938 9.859375 C 21.875 9.78125 21.414062 9.757812 20.945312 9.789062 C 20.542969 9.847656 20.167969 9.984375 19.816406 10.195312 C 19.796875 10.28125 19.761719 10.359375 19.722656 10.4375 C 18.238281 12.191406 17.148438 14.171875 16.457031 16.386719 C 16.308594 16.925781 16.171875 17.472656 16.050781 18.019531 C 16.023438 18.144531 16.007812 18.273438 16.003906 18.402344 C 15.972656 18.527344 15.949219 18.65625 15.929688 18.785156 C 15.878906 18.859375 15.804688 18.890625 15.714844 18.882812 C 15.683594 18.867188 15.652344 18.851562 15.617188 18.832031 C 15.628906 18.785156 15.609375 18.753906 15.570312 18.738281 C 15.855469 15.9375 16.808594 13.394531 18.425781 11.109375 C 18.753906 10.703125 19.097656 10.308594 19.457031 9.933594 C 20.34375 9.292969 21.300781 9.148438 22.335938 9.5 C 22.378906 9.550781 22.394531 9.605469 22.386719 9.667969 Z M 22.386719 9.667969 "/>
</g>
<mask id="mask2">
  <g filter="url(#alpha)">
<rect x="0" y="0" width="50" height="50" style="fill:rgb(0%,0%,0%);fill-opacity:0.945098;stroke:none;"/>
  </g>
</mask>
<clipPath id="clip3">
  <rect width="50" height="50"/>
</clipPath>
<g id="surface12" clip-path="url(#clip3)">
<path style=" stroke:none;fill-rule:evenodd;fill:rgb(2.745098%,2.745098%,3.137255%);fill-opacity:1;" d="M 48.488281 22.480469 C 48.453125 22.511719 48.417969 22.554688 48.390625 22.601562 C 48.058594 22.648438 47.738281 22.609375 47.433594 22.480469 C 47.101562 22.40625 46.765625 22.375 46.425781 22.386719 C 45.558594 22.414062 44.695312 22.476562 43.832031 22.578125 C 43.660156 22.621094 43.484375 22.652344 43.304688 22.671875 C 43.191406 22.664062 43.082031 22.671875 42.96875 22.695312 C 43.007812 22.78125 43.03125 22.867188 43.042969 22.960938 C 43.367188 23.3125 43.65625 23.679688 43.90625 24.0625 C 43.710938 23.894531 43.511719 23.734375 43.304688 23.585938 C 43.222656 23.433594 43.125 23.289062 43.019531 23.152344 C 42.980469 23.175781 42.964844 23.207031 42.96875 23.25 C 42.894531 23.238281 42.832031 23.207031 42.777344 23.152344 C 41.253906 21.902344 39.703125 20.6875 38.125 19.503906 C 38.011719 19.402344 37.894531 19.308594 37.765625 19.21875 C 37.746094 19.246094 37.722656 19.261719 37.691406 19.265625 C 37.644531 19.183594 37.582031 19.113281 37.5 19.050781 C 33.710938 16.304688 29.757812 13.804688 25.648438 11.539062 C 25.605469 11.402344 25.527344 11.351562 25.40625 11.394531 C 24.5625 10.925781 23.714844 10.453125 22.863281 9.980469 C 22.785156 9.925781 22.738281 9.855469 22.722656 9.765625 C 22.714844 9.71875 22.734375 9.675781 22.769531 9.644531 C 22.847656 9.613281 22.929688 9.613281 23.007812 9.644531 C 30.035156 13.207031 36.585938 17.46875 42.660156 22.433594 C 44.507812 21.894531 46.371094 21.824219 48.25 22.21875 C 48.398438 22.238281 48.480469 22.328125 48.488281 22.480469 Z M 48.488281 22.480469 "/>
</g>
<mask id="mask3">
  <g filter="url(#alpha)">
<rect x="0" y="0" width="50" height="50" style="fill:rgb(0%,0%,0%);fill-opacity:0.996078;stroke:none;"/>
  </g>
</mask>
<clipPath id="clip4">
  <rect width="50" height="50"/>
</clipPath>
<g id="surface15" clip-path="url(#clip4)">
<path style=" stroke:none;fill-rule:evenodd;fill:rgb(15.686275%,14.901961%,14.901961%);fill-opacity:1;" d="M 25.648438 11.539062 C 27.34375 17.75 26.601562 23.667969 23.417969 29.292969 C 23.046875 29.863281 22.671875 30.421875 22.289062 30.972656 C 22.144531 31.167969 22 31.359375 21.855469 31.550781 C 21.789062 31.652344 21.710938 31.667969 21.617188 31.597656 C 21.699219 31.4375 21.777344 31.277344 21.855469 31.117188 C 21.808594 31.117188 21.761719 31.117188 21.714844 31.117188 C 21.78125 31.078125 21.863281 31.054688 21.953125 31.046875 C 22.332031 30.554688 22.691406 30.050781 23.03125 29.535156 C 26.390625 23.914062 27.222656 17.929688 25.527344 11.589844 C 25.503906 11.511719 25.464844 11.445312 25.40625 11.394531 C 25.527344 11.351562 25.605469 11.402344 25.648438 11.539062 Z M 25.648438 11.539062 "/>
</g>
<mask id="mask4">
  <g filter="url(#alpha)">
<rect x="0" y="0" width="50" height="50" style="fill:rgb(0%,0%,0%);fill-opacity:0.984314;stroke:none;"/>
  </g>
</mask>
<clipPath id="clip5">
  <rect width="50" height="50"/>
</clipPath>
<g id="surface18" clip-path="url(#clip5)">
<path style=" stroke:none;fill-rule:evenodd;fill:rgb(14.117647%,13.333333%,13.72549%);fill-opacity:1;" d="M 19.503906 23.054688 C 19.503906 23.121094 19.503906 23.183594 19.503906 23.25 C 19.164062 23.160156 18.828125 23.046875 18.5 22.914062 C 17.683594 22.585938 16.867188 22.25 16.050781 21.90625 C 16.019531 21.941406 15.984375 21.972656 15.953125 22 C 15.960938 21.949219 15.953125 21.902344 15.929688 21.855469 C 15.800781 21.765625 15.679688 21.671875 15.570312 21.570312 C 15.457031 21.207031 15.359375 20.839844 15.28125 20.464844 C 15.222656 19.933594 15.304688 19.421875 15.523438 18.929688 C 15.570312 18.914062 15.601562 18.882812 15.617188 18.832031 C 15.652344 18.851562 15.683594 18.867188 15.714844 18.882812 C 15.425781 19.625 15.402344 20.375 15.644531 21.136719 C 15.683594 21.316406 15.769531 21.457031 15.90625 21.570312 C 15.96875 21.628906 16.015625 21.699219 16.050781 21.785156 C 16.664062 21.988281 17.273438 22.203125 17.875 22.433594 C 18.273438 22.585938 18.671875 22.734375 19.074219 22.890625 C 19.152344 22.921875 19.222656 22.914062 19.289062 22.863281 C 20.097656 21.398438 20.398438 19.828125 20.203125 18.164062 C 20.570312 19.835938 20.332031 21.421875 19.480469 22.914062 C 19.445312 22.972656 19.453125 23.019531 19.503906 23.054688 Z M 19.503906 23.054688 "/>
</g>
<mask id="mask5">
  <g filter="url(#alpha)">
<rect x="0" y="0" width="50" height="50" style="fill:rgb(0%,0%,0%);fill-opacity:0.454902;stroke:none;"/>
  </g>
</mask>
<clipPath id="clip6">
  <rect width="50" height="50"/>
</clipPath>
<g id="surface21" clip-path="url(#clip6)">
<path style=" stroke:none;fill-rule:evenodd;fill:rgb(75.294118%,74.117647%,71.764706%);fill-opacity:1;" d="M 15.570312 18.738281 C 15.609375 18.753906 15.628906 18.785156 15.617188 18.832031 C 15.601562 18.882812 15.570312 18.914062 15.523438 18.929688 C 15.539062 18.867188 15.554688 18.800781 15.570312 18.738281 Z M 15.570312 18.738281 "/>
</g>
<mask id="mask6">
  <g filter="url(#alpha)">
<rect x="0" y="0" width="50" height="50" style="fill:rgb(0%,0%,0%);fill-opacity:0.945098;stroke:none;"/>
  </g>
</mask>
<clipPath id="clip7">
  <rect width="50" height="50"/>
</clipPath>
<g id="surface24" clip-path="url(#clip7)">
<path style=" stroke:none;fill-rule:evenodd;fill:rgb(66.27451%,23.137255%,17.647059%);fill-opacity:1;" d="M 11.875 19.265625 C 12.25 19.21875 12.402344 19.378906 12.332031 19.746094 C 11.542969 20.730469 10.886719 21.800781 10.363281 22.960938 C 10.109375 23.335938 9.796875 23.390625 9.429688 23.128906 C 8.84375 22.667969 8.28125 22.171875 7.75 21.640625 C 7.308594 21.253906 6.828125 21.191406 6.308594 21.449219 C 5.910156 21.835938 5.492188 22.203125 5.0625 22.554688 C 4.433594 22.894531 3.808594 22.878906 3.191406 22.503906 C 2.773438 22.183594 2.359375 21.863281 1.945312 21.546875 C 1.542969 21.21875 1.511719 20.867188 1.847656 20.488281 C 2.207031 20.335938 2.496094 20.417969 2.710938 20.730469 C 3.082031 21.050781 3.464844 21.355469 3.863281 21.640625 C 4.066406 21.710938 4.273438 21.726562 4.488281 21.6875 C 4.640625 21.605469 4.78125 21.507812 4.917969 21.402344 C 5.226562 21.0625 5.5625 20.757812 5.925781 20.488281 C 6.550781 20.203125 7.171875 20.203125 7.796875 20.488281 C 8.53125 20.984375 9.195312 21.566406 9.789062 22.242188 C 9.902344 21.996094 10.03125 21.753906 10.171875 21.519531 C 10.742188 20.769531 11.308594 20.015625 11.875 19.265625 Z M 11.875 19.265625 "/>
</g>
<mask id="mask7">
  <g filter="url(#alpha)">
<rect x="0" y="0" width="50" height="50" style="fill:rgb(0%,0%,0%);fill-opacity:0.94902;stroke:none;"/>
  </g>
</mask>
<clipPath id="clip8">
  <rect width="50" height="50"/>
</clipPath>
<g id="surface27" clip-path="url(#clip8)">
<path style=" stroke:none;fill-rule:evenodd;fill:rgb(3.137255%,3.137255%,3.529412%);fill-opacity:1;" d="M 15.042969 21.808594 C 15.101562 21.875 15.148438 21.945312 15.1875 22.023438 C 14.6875 24.519531 14.921875 26.941406 15.882812 29.292969 C 15.917969 29.410156 15.910156 29.523438 15.859375 29.628906 C 15.710938 29.707031 15.59375 29.675781 15.5 29.535156 C 14.410156 27.03125 14.207031 24.464844 14.898438 21.832031 C 14.945312 21.808594 14.992188 21.800781 15.042969 21.808594 Z M 15.042969 21.808594 "/>
</g>
<mask id="mask8">
  <g filter="url(#alpha)">
<rect x="0" y="0" width="50" height="50" style="fill:rgb(0%,0%,0%);fill-opacity:0.905882;stroke:none;"/>
  </g>
</mask>
<clipPath id="clip9">
  <rect width="50" height="50"/>
</clipPath>
<g id="surface30" clip-path="url(#clip9)">
<path style=" stroke:none;fill-rule:evenodd;fill:rgb(14.117647%,13.333333%,14.117647%);fill-opacity:1;" d="M 47.433594 22.480469 C 47.738281 22.609375 48.058594 22.648438 48.390625 22.601562 C 48.417969 22.554688 48.453125 22.511719 48.488281 22.480469 C 48.632812 23.523438 48.667969 24.574219 48.585938 25.625 C 48.59375 25.714844 48.625 25.792969 48.679688 25.863281 C 48.558594 26.0625 48.511719 26.277344 48.535156 26.511719 C 48.460938 26.523438 48.394531 26.507812 48.34375 26.464844 C 48.34375 26.304688 48.34375 26.144531 48.34375 25.984375 C 47.648438 26.097656 46.960938 26.242188 46.28125 26.414062 C 46.25 26.398438 46.21875 26.382812 46.183594 26.367188 C 46.257812 26.332031 46.328125 26.300781 46.402344 26.273438 C 46.425781 26.128906 46.433594 25.984375 46.425781 25.839844 C 46.308594 25.855469 46.195312 25.839844 46.089844 25.792969 C 46.832031 25.59375 47.582031 25.449219 48.34375 25.359375 C 48.410156 25.136719 48.410156 24.910156 48.34375 24.6875 C 47.652344 24.757812 46.964844 24.855469 46.28125 24.976562 C 46.25 24.960938 46.21875 24.945312 46.183594 24.929688 C 46.226562 24.886719 46.273438 24.871094 46.328125 24.878906 C 46.3125 24.785156 46.296875 24.6875 46.28125 24.59375 C 46.125 24.582031 45.972656 24.597656 45.824219 24.640625 C 45.800781 24.625 45.777344 24.609375 45.753906 24.59375 C 45.800781 24.574219 45.847656 24.558594 45.898438 24.542969 C 46.707031 24.410156 47.507812 24.265625 48.296875 24.113281 C 48.359375 23.890625 48.390625 23.652344 48.390625 23.390625 C 48.390625 23.132812 48.359375 22.894531 48.296875 22.671875 C 46.984375 22.742188 45.675781 22.796875 44.363281 22.839844 C 44.5 22.917969 44.625 23.003906 44.746094 23.105469 C 44.730469 23.152344 44.699219 23.183594 44.648438 23.199219 C 44.238281 22.914062 43.789062 22.738281 43.304688 22.671875 C 43.484375 22.652344 43.660156 22.621094 43.832031 22.578125 C 43.984375 22.652344 44.136719 22.730469 44.289062 22.816406 C 44.410156 22.738281 44.542969 22.695312 44.699219 22.695312 C 45.617188 22.632812 46.527344 22.558594 47.433594 22.480469 Z M 48.296875 24.304688 C 48.347656 24.308594 48.378906 24.34375 48.390625 24.398438 C 48.390625 24.445312 48.375 24.476562 48.34375 24.496094 C 48.328125 24.433594 48.3125 24.367188 48.296875 24.304688 Z M 48.296875 24.304688 "/>
</g>
<mask id="mask9">
  <g filter="url(#alpha)">
<rect x="0" y="0" width="50" height="50" style="fill:rgb(0%,0%,0%);fill-opacity:0.968627;stroke:none;"/>
  </g>
</mask>
<clipPath id="clip10">
  <rect width="50" height="50"/>
</clipPath>
<g id="surface33" clip-path="url(#clip10)">
<path style=" stroke:none;fill-rule:evenodd;fill:rgb(12.941176%,12.156863%,12.156863%);fill-opacity:1;" d="M 43.304688 23.585938 C 43.671875 24.601562 43.605469 25.59375 43.113281 26.558594 C 43.121094 26.589844 43.136719 26.605469 43.164062 26.609375 C 43.050781 26.707031 42.9375 26.800781 42.828125 26.894531 C 42.792969 26.878906 42.761719 26.863281 42.730469 26.847656 C 42.785156 26.792969 42.816406 26.730469 42.828125 26.65625 C 42.929688 26.488281 43.007812 26.3125 43.066406 26.128906 C 43.105469 26.109375 43.121094 26.078125 43.113281 26.03125 C 43.15625 26.015625 43.171875 25.984375 43.164062 25.9375 C 43.164062 25.917969 43.164062 25.902344 43.164062 25.886719 C 43.195312 25.886719 43.210938 25.871094 43.210938 25.839844 C 43.496094 24.945312 43.417969 24.082031 42.96875 23.25 C 42.964844 23.207031 42.980469 23.175781 43.019531 23.152344 C 43.125 23.289062 43.222656 23.433594 43.304688 23.585938 Z M 43.304688 23.585938 "/>
</g>
<mask id="mask10">
  <g filter="url(#alpha)">
<rect x="0" y="0" width="50" height="50" style="fill:rgb(0%,0%,0%);fill-opacity:0.992157;stroke:none;"/>
  </g>
</mask>
<clipPath id="clip11">
  <rect width="50" height="50"/>
</clipPath>
<g id="surface36" clip-path="url(#clip11)">
<path style=" stroke:none;fill-rule:evenodd;fill:rgb(55.294118%,58.039216%,67.843137%);fill-opacity:1;" d="M 48.296875 24.304688 C 48.3125 24.367188 48.328125 24.433594 48.34375 24.496094 C 47.707031 24.621094 47.070312 24.730469 46.425781 24.832031 C 46.410156 24.734375 46.394531 24.640625 46.378906 24.542969 C 47.019531 24.472656 47.65625 24.394531 48.296875 24.304688 Z M 48.296875 24.304688 "/>
</g>
<mask id="mask11">
  <g filter="url(#alpha)">
<rect x="0" y="0" width="50" height="50" style="fill:rgb(0%,0%,0%);fill-opacity:0.992157;stroke:none;"/>
  </g>
</mask>
<clipPath id="clip12">
  <rect width="50" height="50"/>
</clipPath>
<g id="surface39" clip-path="url(#clip12)">
<path style=" stroke:none;fill-rule:evenodd;fill:rgb(56.078431%,58.823529%,68.627451%);fill-opacity:1;" d="M 48.34375 25.503906 C 48.367188 25.644531 48.335938 25.761719 48.25 25.863281 C 47.679688 25.996094 47.113281 26.132812 46.546875 26.273438 C 46.519531 26.113281 46.511719 25.953125 46.519531 25.792969 C 47.132812 25.710938 47.738281 25.613281 48.34375 25.503906 Z M 48.34375 25.503906 "/>
</g>
<mask id="mask12">
  <g filter="url(#alpha)">
<rect x="0" y="0" width="50" height="50" style="fill:rgb(0%,0%,0%);fill-opacity:0.956863;stroke:none;"/>
  </g>
</mask>
<clipPath id="clip13">
  <rect width="50" height="50"/>
</clipPath>
<g id="surface42" clip-path="url(#clip13)">
<path style=" stroke:none;fill-rule:evenodd;fill:rgb(66.27451%,23.137255%,17.647059%);fill-opacity:1;" d="M 12.738281 25.9375 C 13.066406 25.902344 13.203125 26.046875 13.148438 26.367188 C 12.925781 26.65625 12.699219 26.945312 12.476562 27.230469 C 12.3125 27.589844 12.167969 27.960938 12.042969 28.335938 C 11.839844 28.632812 11.5625 28.816406 11.203125 28.886719 C 10.902344 28.917969 10.597656 28.917969 10.292969 28.886719 C 9.359375 28.675781 8.414062 28.5625 7.460938 28.550781 C 8 28.820312 8.558594 29.046875 9.140625 29.222656 C 9.382812 29.335938 9.597656 29.488281 9.789062 29.679688 C 10.011719 30.175781 9.859375 30.488281 9.332031 30.613281 C 9.109375 30.65625 8.886719 30.683594 8.660156 30.6875 C 7.558594 30.574219 6.457031 30.488281 5.351562 30.421875 C 4.945312 30.125 4.914062 29.789062 5.253906 29.414062 C 5.457031 29.363281 5.667969 29.339844 5.878906 29.34375 C 6.167969 29.363281 6.453125 29.371094 6.742188 29.367188 C 6.109375 28.792969 6.109375 28.234375 6.742188 27.6875 C 6.894531 27.609375 7.054688 27.5625 7.222656 27.542969 C 7.574219 27.511719 7.925781 27.511719 8.277344 27.542969 C 8.984375 27.644531 9.6875 27.773438 10.390625 27.925781 C 10.644531 27.960938 10.902344 27.960938 11.15625 27.925781 C 11.242188 27.890625 11.3125 27.832031 11.371094 27.757812 C 11.460938 27.46875 11.589844 27.195312 11.757812 26.945312 C 12.0625 26.582031 12.390625 26.246094 12.738281 25.9375 Z M 12.738281 25.9375 "/>
</g>
<mask id="mask13">
  <g filter="url(#alpha)">
<rect x="0" y="0" width="50" height="50" style="fill:rgb(0%,0%,0%);fill-opacity:0.913725;stroke:none;"/>
  </g>
</mask>
<clipPath id="clip14">
  <rect width="50" height="50"/>
</clipPath>
<g id="surface45" clip-path="url(#clip14)">
<path style=" stroke:none;fill-rule:evenodd;fill:rgb(13.72549%,13.333333%,13.72549%);fill-opacity:1;" d="M 48.25 26.464844 C 48.257812 26.527344 48.242188 26.582031 48.199219 26.632812 C 47.308594 26.894531 46.414062 27.140625 45.511719 27.375 C 45.109375 27.441406 44.710938 27.519531 44.3125 27.613281 C 44.253906 27.578125 44.253906 27.539062 44.3125 27.496094 C 45.609375 27.074219 46.917969 26.730469 48.25 26.464844 Z M 48.25 26.464844 "/>
</g>
<mask id="mask14">
  <g filter="url(#alpha)">
<rect x="0" y="0" width="50" height="50" style="fill:rgb(0%,0%,0%);fill-opacity:0.972549;stroke:none;"/>
  </g>
</mask>
<clipPath id="clip15">
  <rect width="50" height="50"/>
</clipPath>
<g id="surface48" clip-path="url(#clip15)">
<path style=" stroke:none;fill-rule:evenodd;fill:rgb(13.72549%,12.941176%,12.941176%);fill-opacity:1;" d="M 42.105469 27.328125 C 42.414062 27.503906 42.75 27.582031 43.113281 27.566406 C 43.472656 27.5625 43.824219 27.511719 44.167969 27.421875 C 44.179688 27.488281 44.160156 27.542969 44.121094 27.589844 C 43.871094 27.675781 43.613281 27.738281 43.355469 27.78125 C 43.265625 27.933594 43.1875 28.085938 43.113281 28.238281 C 43.058594 28.226562 43.027344 28.183594 43.019531 28.117188 C 43.058594 28 43.089844 27.878906 43.113281 27.757812 C 42.753906 27.726562 42.417969 27.640625 42.105469 27.496094 C 42.160156 27.582031 42.210938 27.667969 42.25 27.757812 C 42.066406 27.703125 41.921875 27.589844 41.820312 27.421875 C 41.773438 27.339844 41.773438 27.261719 41.820312 27.183594 C 41.914062 27.230469 42.011719 27.28125 42.105469 27.328125 Z M 42.105469 27.328125 "/>
</g>
<mask id="mask15">
  <g filter="url(#alpha)">
<rect x="0" y="0" width="50" height="50" style="fill:rgb(0%,0%,0%);fill-opacity:0.988235;stroke:none;"/>
  </g>
</mask>
<clipPath id="clip16">
  <rect width="50" height="50"/>
</clipPath>
<g id="surface51" clip-path="url(#clip16)">
<path style=" stroke:none;fill-rule:evenodd;fill:rgb(61.960784%,56.078431%,58.039216%);fill-opacity:1;" d="M 43.113281 28.238281 C 43.027344 28.382812 42.996094 28.542969 43.019531 28.71875 C 42.988281 28.8125 42.96875 28.917969 42.96875 29.03125 C 43.105469 31.375 43.222656 33.71875 43.332031 36.058594 C 43.152344 35.851562 42.976562 35.644531 42.800781 35.4375 C 42.78125 35.449219 42.773438 35.464844 42.777344 35.484375 C 42.699219 35.421875 42.617188 35.355469 42.539062 35.292969 C 42.539062 35.261719 42.523438 35.246094 42.492188 35.246094 C 42.492188 34.398438 42.492188 33.550781 42.492188 32.703125 C 42.546875 33.511719 42.601562 34.324219 42.660156 35.148438 C 42.679688 35.171875 42.703125 35.1875 42.730469 35.195312 C 42.746094 35.003906 42.761719 34.8125 42.777344 34.621094 C 42.6875 32.796875 42.585938 30.972656 42.464844 29.152344 C 42.4375 28.722656 42.382812 28.308594 42.296875 27.902344 C 42.296875 27.851562 42.28125 27.800781 42.25 27.757812 C 42.210938 27.667969 42.160156 27.582031 42.105469 27.496094 C 42.417969 27.640625 42.753906 27.726562 43.113281 27.757812 C 43.089844 27.878906 43.058594 28 43.019531 28.117188 C 43.027344 28.183594 43.058594 28.226562 43.113281 28.238281 Z M 43.113281 28.238281 "/>
</g>
<mask id="mask16">
  <g filter="url(#alpha)">
<rect x="0" y="0" width="50" height="50" style="fill:rgb(0%,0%,0%);fill-opacity:0.968627;stroke:none;"/>
  </g>
</mask>
<clipPath id="clip17">
  <rect width="50" height="50"/>
</clipPath>
<g id="surface54" clip-path="url(#clip17)">
<path style=" stroke:none;fill-rule:evenodd;fill:rgb(3.137255%,3.137255%,3.921569%);fill-opacity:1;" d="M 45.511719 27.613281 C 45.660156 27.695312 45.722656 27.824219 45.707031 28 C 45.601562 28.609375 45.480469 29.21875 45.34375 29.824219 C 45.253906 30.414062 45.261719 31.007812 45.371094 31.597656 C 45.410156 31.855469 45.464844 32.113281 45.539062 32.367188 C 45.71875 32.882812 45.902344 33.394531 46.089844 33.902344 C 46.03125 33.9375 45.96875 33.953125 45.898438 33.949219 C 45.769531 33.824219 45.667969 33.679688 45.585938 33.515625 C 45.03125 32.398438 44.792969 31.214844 44.867188 29.964844 C 45.023438 29.222656 45.152344 28.46875 45.25 27.710938 C 45.324219 27.644531 45.414062 27.613281 45.511719 27.613281 Z M 45.511719 27.613281 "/>
</g>
<mask id="mask17">
  <g filter="url(#alpha)">
<rect x="0" y="0" width="50" height="50" style="fill:rgb(0%,0%,0%);fill-opacity:0.905882;stroke:none;"/>
  </g>
</mask>
<clipPath id="clip18">
  <rect width="50" height="50"/>
</clipPath>
<g id="surface57" clip-path="url(#clip18)">
<path style=" stroke:none;fill-rule:evenodd;fill:rgb(14.509804%,13.333333%,13.333333%);fill-opacity:1;" d="M 42.296875 27.902344 C 42.382812 28.308594 42.4375 28.722656 42.464844 29.152344 C 42.585938 30.972656 42.6875 32.796875 42.777344 34.621094 C 42.761719 34.8125 42.746094 35.003906 42.730469 35.195312 C 42.703125 35.1875 42.679688 35.171875 42.660156 35.148438 C 42.601562 34.324219 42.546875 33.511719 42.492188 32.703125 C 42.382812 31.09375 42.320312 29.492188 42.296875 27.902344 Z M 42.296875 27.902344 "/>
</g>
<mask id="mask18">
  <g filter="url(#alpha)">
<rect x="0" y="0" width="50" height="50" style="fill:rgb(0%,0%,0%);fill-opacity:0.952941;stroke:none;"/>
  </g>
</mask>
<clipPath id="clip19">
  <rect width="50" height="50"/>
</clipPath>
<g id="surface60" clip-path="url(#clip19)">
<path style=" stroke:none;fill-rule:evenodd;fill:rgb(2.745098%,2.745098%,3.137255%);fill-opacity:1;" d="M 43.164062 26.609375 C 43.210938 26.601562 43.261719 26.609375 43.304688 26.632812 C 43.164062 26.839844 42.984375 27.015625 42.777344 27.160156 C 42.554688 27.21875 42.332031 27.273438 42.105469 27.328125 C 42.011719 27.28125 41.914062 27.230469 41.820312 27.183594 C 41.773438 27.261719 41.773438 27.339844 41.820312 27.421875 C 35.164062 28.792969 28.507812 30.167969 21.855469 31.550781 C 22 31.359375 22.144531 31.167969 22.289062 30.972656 C 26.925781 30 31.566406 29.039062 36.203125 28.09375 C 35.90625 28.28125 35.589844 28.433594 35.246094 28.550781 C 35.203125 28.597656 35.1875 28.65625 35.195312 28.71875 C 35.855469 28.550781 36.460938 28.277344 37.019531 27.902344 C 38.910156 27.523438 40.800781 27.125 42.683594 26.703125 C 42.734375 26.699219 42.785156 26.683594 42.828125 26.65625 C 42.816406 26.730469 42.785156 26.792969 42.730469 26.847656 C 42.761719 26.863281 42.792969 26.878906 42.828125 26.894531 C 42.9375 26.800781 43.050781 26.707031 43.164062 26.609375 Z M 43.164062 26.609375 "/>
</g>
<mask id="mask19">
  <g filter="url(#alpha)">
<rect x="0" y="0" width="50" height="50" style="fill:rgb(0%,0%,0%);fill-opacity:0.941176;stroke:none;"/>
  </g>
</mask>
<clipPath id="clip20">
  <rect width="50" height="50"/>
</clipPath>
<g id="surface63" clip-path="url(#clip20)">
<path style=" stroke:none;fill-rule:evenodd;fill:rgb(3.137255%,2.745098%,3.137255%);fill-opacity:1;" d="M 18.691406 31.5 C 17.695312 31.660156 16.871094 31.355469 16.21875 30.589844 C 16.125 30.453125 16.046875 30.308594 15.980469 30.160156 C 15.949219 30.089844 15.960938 30.027344 16.003906 29.964844 C 16.078125 29.917969 16.15625 29.910156 16.242188 29.941406 C 16.851562 30.832031 17.703125 31.214844 18.785156 31.09375 C 18.925781 31.269531 18.890625 31.402344 18.691406 31.5 Z M 18.691406 31.5 "/>
</g>
<mask id="mask20">
  <g filter="url(#alpha)">
<rect x="0" y="0" width="50" height="50" style="fill:rgb(0%,0%,0%);fill-opacity:0.945098;stroke:none;"/>
  </g>
</mask>
<clipPath id="clip21">
  <rect width="50" height="50"/>
</clipPath>
<g id="surface66" clip-path="url(#clip21)">
<path style=" stroke:none;fill-rule:evenodd;fill:rgb(3.529412%,3.529412%,3.921569%);fill-opacity:1;" d="M 21.714844 31.117188 C 21.761719 31.117188 21.808594 31.117188 21.855469 31.117188 C 21.777344 31.277344 21.699219 31.4375 21.617188 31.597656 C 21.03125 31.726562 20.4375 31.816406 19.839844 31.863281 C 19.789062 31.796875 19.757812 31.726562 19.746094 31.644531 C 19.800781 31.617188 19.847656 31.574219 19.890625 31.527344 C 20.492188 31.359375 21.097656 31.222656 21.714844 31.117188 Z M 21.714844 31.117188 "/>
</g>
<mask id="mask21">
  <g filter="url(#alpha)">
<rect x="0" y="0" width="50" height="50" style="fill:rgb(0%,0%,0%);fill-opacity:0.854902;stroke:none;"/>
  </g>
</mask>
<clipPath id="clip22">
  <rect width="50" height="50"/>
</clipPath>
<g id="surface69" clip-path="url(#clip22)">
<path style=" stroke:none;fill-rule:evenodd;fill:rgb(56.078431%,59.215686%,69.019608%);fill-opacity:1;" d="M 45.371094 31.597656 C 45.742188 32.28125 46.039062 33 46.257812 33.757812 C 46.28125 33.917969 46.289062 34.078125 46.28125 34.238281 C 46.207031 34.132812 46.140625 34.019531 46.089844 33.902344 C 45.902344 33.394531 45.71875 32.882812 45.539062 32.367188 C 45.464844 32.113281 45.410156 31.855469 45.371094 31.597656 Z M 45.371094 31.597656 "/>
</g>
<mask id="mask22">
  <g filter="url(#alpha)">
<rect x="0" y="0" width="50" height="50" style="fill:rgb(0%,0%,0%);fill-opacity:0.913725;stroke:none;"/>
  </g>
</mask>
<clipPath id="clip23">
  <rect width="50" height="50"/>
</clipPath>
<g id="surface72" clip-path="url(#clip23)">
<path style=" stroke:none;fill-rule:evenodd;fill:rgb(13.72549%,13.333333%,13.72549%);fill-opacity:1;" d="M 46.089844 33.902344 C 46.140625 34.019531 46.207031 34.132812 46.28125 34.238281 C 46.308594 34.511719 46.253906 34.769531 46.113281 35.003906 C 45.851562 35.304688 45.554688 35.5625 45.226562 35.773438 C 44.796875 36.074219 44.378906 36.394531 43.976562 36.730469 C 43.914062 36.785156 43.839844 36.832031 43.761719 36.875 C 43.707031 36.765625 43.636719 36.75 43.546875 36.828125 C 43.449219 36.804688 43.355469 36.78125 43.257812 36.757812 C 43.1875 36.738281 43.140625 36.699219 43.113281 36.636719 C 42.945312 36.476562 42.761719 36.332031 42.5625 36.203125 C 42.457031 36.042969 42.386719 35.867188 42.347656 35.675781 C 42.320312 35.5 42.367188 35.355469 42.492188 35.246094 C 42.523438 35.246094 42.539062 35.261719 42.539062 35.292969 C 42.53125 35.5 42.539062 35.710938 42.5625 35.917969 C 42.808594 36.414062 43.203125 36.625 43.738281 36.539062 C 43.792969 36.554688 43.832031 36.585938 43.859375 36.636719 C 44.351562 36.175781 44.871094 35.753906 45.417969 35.363281 C 45.601562 35.179688 45.785156 34.996094 45.96875 34.8125 C 46.207031 34.5 46.183594 34.214844 45.898438 33.949219 C 45.96875 33.953125 46.03125 33.9375 46.089844 33.902344 Z M 46.089844 33.902344 "/>
</g>
<mask id="mask23">
  <g filter="url(#alpha)">
<rect x="0" y="0" width="50" height="50" style="fill:rgb(0%,0%,0%);fill-opacity:0.803922;stroke:none;"/>
  </g>
</mask>
<clipPath id="clip24">
  <rect width="50" height="50"/>
</clipPath>
<g id="surface75" clip-path="url(#clip24)">
<path style=" stroke:none;fill-rule:evenodd;fill:rgb(55.294118%,58.431373%,68.235294%);fill-opacity:1;" d="M 42.347656 35.675781 C 42.386719 35.867188 42.457031 36.042969 42.5625 36.203125 C 42.761719 36.332031 42.945312 36.476562 43.113281 36.636719 C 42.675781 36.59375 42.386719 36.371094 42.25 35.964844 C 42.253906 35.855469 42.289062 35.757812 42.347656 35.675781 Z M 42.347656 35.675781 "/>
</g>
<mask id="mask24">
  <g filter="url(#alpha)">
<rect x="0" y="0" width="50" height="50" style="fill:rgb(0%,0%,0%);fill-opacity:0.670588;stroke:none;"/>
  </g>
</mask>
<clipPath id="clip25">
  <rect width="50" height="50"/>
</clipPath>
<g id="surface78" clip-path="url(#clip25)">
<path style=" stroke:none;fill-rule:evenodd;fill:rgb(54.509804%,57.254902%,66.666667%);fill-opacity:1;" d="M 45.226562 35.773438 C 44.875 36.1875 44.460938 36.503906 43.976562 36.730469 C 44.378906 36.394531 44.796875 36.074219 45.226562 35.773438 Z M 45.226562 35.773438 "/>
</g>
</defs>
<g id="surface1">
<use xlink:href="#surface6" mask="url(#mask0)"/>
<use xlink:href="#surface9" mask="url(#mask1)"/>
<use xlink:href="#surface12" mask="url(#mask2)"/>
<path style=" stroke:none;fill-rule:evenodd;fill:rgb(93.72549%,92.156863%,89.411765%);fill-opacity:1;" d="M 22.386719 9.667969 C 22.492188 9.714844 22.605469 9.746094 22.722656 9.765625 C 22.738281 9.855469 22.785156 9.925781 22.863281 9.980469 C 23.714844 10.453125 24.5625 10.925781 25.40625 11.394531 C 25.464844 11.445312 25.503906 11.511719 25.527344 11.589844 C 27.222656 17.929688 26.390625 23.914062 23.03125 29.535156 C 22.691406 30.050781 22.332031 30.554688 21.953125 31.046875 C 21.863281 31.054688 21.78125 31.078125 21.714844 31.117188 C 21.097656 31.222656 20.492188 31.359375 19.890625 31.527344 C 19.847656 31.574219 19.800781 31.617188 19.746094 31.644531 C 19.390625 31.617188 19.039062 31.570312 18.691406 31.5 C 18.890625 31.402344 18.925781 31.269531 18.785156 31.09375 C 17.703125 31.214844 16.851562 30.832031 16.242188 29.941406 C 16.15625 29.910156 16.078125 29.917969 16.003906 29.964844 C 15.964844 29.851562 15.917969 29.738281 15.859375 29.628906 C 15.910156 29.523438 15.917969 29.410156 15.882812 29.292969 C 14.921875 26.941406 14.6875 24.519531 15.1875 22.023438 C 15.148438 21.945312 15.101562 21.875 15.042969 21.808594 C 15.113281 21.355469 15.195312 20.90625 15.28125 20.464844 C 15.359375 20.839844 15.457031 21.207031 15.570312 21.570312 C 15.453125 23.167969 15.445312 24.765625 15.546875 26.367188 C 15.640625 27.269531 15.832031 28.148438 16.121094 29.007812 C 16.882812 30.5625 18.007812 30.890625 19.503906 29.992188 C 19.949219 29.652344 20.308594 29.246094 20.585938 28.765625 C 23.398438 23.472656 24.277344 17.875 23.222656 11.972656 C 23.039062 11.257812 22.632812 10.722656 22 10.363281 C 21.425781 10.101562 20.890625 10.15625 20.394531 10.53125 C 20.371094 10.59375 20.363281 10.660156 20.371094 10.722656 C 20.234375 10.816406 20.089844 10.898438 19.9375 10.964844 C 19.96875 10.902344 20 10.835938 20.035156 10.773438 C 19.980469 10.671875 19.90625 10.65625 19.816406 10.722656 C 18.230469 12.90625 17.078125 15.304688 16.363281 17.921875 C 16.277344 18.003906 16.171875 18.039062 16.050781 18.019531 C 16.171875 17.472656 16.308594 16.925781 16.457031 16.386719 C 17.148438 14.171875 18.238281 12.191406 19.722656 10.4375 C 19.761719 10.359375 19.796875 10.28125 19.816406 10.195312 C 20.167969 9.984375 20.542969 9.847656 20.945312 9.789062 C 21.414062 9.757812 21.875 9.78125 22.335938 9.859375 C 22.332031 9.789062 22.351562 9.726562 22.386719 9.667969 Z M 22.386719 9.667969 "/>
<path style=" stroke:none;fill-rule:evenodd;fill:rgb(3.921569%,3.921569%,4.313725%);fill-opacity:1;" d="M 15.570312 21.570312 C 15.679688 21.671875 15.800781 21.765625 15.929688 21.855469 C 15.953125 21.902344 15.960938 21.949219 15.953125 22 C 15.769531 23.949219 15.855469 25.882812 16.21875 27.808594 C 16.316406 28.410156 16.523438 28.96875 16.84375 29.488281 C 17.410156 30.097656 18.074219 30.226562 18.832031 29.871094 C 19.019531 29.824219 19.214844 29.808594 19.410156 29.824219 C 19.410156 29.722656 19.394531 29.628906 19.363281 29.535156 C 19.800781 29.152344 20.160156 28.703125 20.441406 28.191406 C 21.070312 26.917969 21.605469 25.605469 22.050781 24.257812 C 22.121094 24.21875 22.203125 24.203125 22.289062 24.207031 C 22.277344 24.101562 22.246094 24.007812 22.191406 23.921875 C 22.761719 21.976562 23.113281 19.992188 23.25 17.96875 C 23.300781 17.964844 23.332031 17.933594 23.34375 17.875 C 23.332031 17.816406 23.300781 17.785156 23.25 17.777344 C 23.351562 16.140625 23.28125 14.507812 23.03125 12.882812 C 22.988281 12.554688 22.914062 12.234375 22.816406 11.925781 C 22.808594 11.84375 22.777344 11.78125 22.722656 11.730469 C 22.3125 10.683594 21.585938 10.363281 20.539062 10.773438 C 20.476562 10.765625 20.421875 10.75 20.371094 10.722656 C 20.363281 10.660156 20.371094 10.59375 20.394531 10.53125 C 20.890625 10.15625 21.425781 10.101562 22 10.363281 C 22.632812 10.722656 23.039062 11.257812 23.222656 11.972656 C 24.277344 17.875 23.398438 23.472656 20.585938 28.765625 C 20.308594 29.246094 19.949219 29.652344 19.503906 29.992188 C 18.007812 30.890625 16.882812 30.5625 16.121094 29.007812 C 15.832031 28.148438 15.640625 27.269531 15.546875 26.367188 C 15.445312 24.765625 15.453125 23.167969 15.570312 21.570312 Z M 15.570312 21.570312 "/>
<path style=" stroke:none;fill-rule:evenodd;fill:rgb(57.647059%,60.392157%,70.588235%);fill-opacity:1;" d="M 22.722656 11.730469 C 22.179688 11.808594 21.738281 12.0625 21.402344 12.5 C 20.335938 14.050781 19.59375 15.746094 19.167969 17.585938 C 19.128906 17.601562 19.113281 17.632812 19.121094 17.683594 C 18.691406 17.753906 18.257812 17.828125 17.828125 17.898438 C 17.96875 17.921875 18.113281 17.929688 18.257812 17.921875 C 17.707031 17.984375 17.144531 17.984375 16.578125 17.921875 C 17.316406 15.40625 18.433594 13.085938 19.9375 10.964844 C 20.089844 10.898438 20.234375 10.816406 20.371094 10.722656 C 20.421875 10.75 20.476562 10.765625 20.539062 10.773438 C 21.585938 10.363281 22.3125 10.683594 22.722656 11.730469 Z M 22.722656 11.730469 "/>
<path style=" stroke:none;fill-rule:evenodd;fill:rgb(14.509804%,13.72549%,13.72549%);fill-opacity:1;" d="M 19.9375 10.964844 C 18.433594 13.085938 17.316406 15.40625 16.578125 17.921875 C 17.144531 17.984375 17.707031 17.984375 18.257812 17.921875 C 18.882812 17.90625 19.507812 17.921875 20.128906 17.96875 C 19.238281 18.070312 18.339844 18.121094 17.441406 18.113281 C 17.328125 18.105469 17.21875 18.113281 17.105469 18.136719 C 17.15625 18.164062 17.203125 18.1875 17.25 18.210938 C 17.574219 18.347656 17.789062 18.589844 17.898438 18.929688 C 18.058594 19.765625 17.898438 20.53125 17.417969 21.234375 C 17.148438 21.554688 16.804688 21.714844 16.386719 21.714844 C 16.226562 21.707031 16.082031 21.65625 15.953125 21.570312 C 15.917969 21.507812 15.867188 21.449219 15.8125 21.402344 C 15.9375 21.441406 16.066406 21.496094 16.195312 21.570312 C 16.464844 21.65625 16.703125 21.609375 16.914062 21.425781 C 17.375 21.050781 17.660156 20.574219 17.777344 19.984375 C 17.894531 19.503906 17.824219 19.054688 17.5625 18.640625 C 17.476562 18.535156 17.375 18.453125 17.25 18.402344 C 17.121094 18.335938 16.976562 18.304688 16.820312 18.304688 C 16.605469 18.339844 16.398438 18.386719 16.195312 18.449219 C 16.191406 18.316406 16.257812 18.226562 16.386719 18.1875 C 16.207031 18.164062 16.082031 18.234375 16.003906 18.402344 C 16.007812 18.273438 16.023438 18.144531 16.050781 18.019531 C 16.171875 18.039062 16.277344 18.003906 16.363281 17.921875 C 17.078125 15.304688 18.230469 12.90625 19.816406 10.722656 C 19.90625 10.65625 19.980469 10.671875 20.035156 10.773438 C 20 10.835938 19.96875 10.902344 19.9375 10.964844 Z M 19.9375 10.964844 "/>
<use xlink:href="#surface15" mask="url(#mask3)"/>
<path style=" stroke:none;fill-rule:evenodd;fill:rgb(94.509804%,92.941176%,90.196078%);fill-opacity:1;" d="M 25.648438 11.539062 C 29.757812 13.804688 33.710938 16.304688 37.5 19.050781 C 37.582031 19.113281 37.644531 19.183594 37.691406 19.265625 C 38.773438 20.570312 39.277344 22.074219 39.203125 23.777344 C 38.925781 25.726562 37.925781 27.164062 36.203125 28.09375 C 31.566406 29.039062 26.925781 30 22.289062 30.972656 C 22.671875 30.421875 23.046875 29.863281 23.417969 29.292969 C 26.601562 23.667969 27.34375 17.75 25.648438 11.539062 Z M 25.648438 11.539062 "/>
<path style=" stroke:none;fill-rule:evenodd;fill:rgb(14.901961%,14.117647%,14.901961%);fill-opacity:1;" d="M 22.722656 11.730469 C 22.777344 11.78125 22.808594 11.84375 22.816406 11.925781 C 22.65625 11.890625 22.496094 11.914062 22.335938 11.996094 C 21.9375 12.1875 21.609375 12.46875 21.351562 12.835938 C 21.175781 13.09375 21.023438 13.367188 20.898438 13.652344 C 20.199219 14.808594 19.671875 16.039062 19.3125 17.347656 C 19.273438 17.460938 19.222656 17.539062 19.167969 17.585938 C 19.59375 15.746094 20.335938 14.050781 21.402344 12.5 C 21.738281 12.0625 22.179688 11.808594 22.722656 11.730469 Z M 22.722656 11.730469 "/>
<path style=" stroke:none;fill-rule:evenodd;fill:rgb(62.745098%,56.862745%,58.823529%);fill-opacity:1;" d="M 22.816406 11.925781 C 22.914062 12.234375 22.988281 12.554688 23.03125 12.882812 C 23.28125 14.507812 23.351562 16.140625 23.25 17.777344 C 22.769531 17.792969 22.289062 17.808594 21.808594 17.828125 C 20.921875 17.746094 20.027344 17.699219 19.121094 17.683594 C 19.113281 17.632812 19.128906 17.601562 19.167969 17.585938 C 19.222656 17.539062 19.273438 17.460938 19.3125 17.347656 C 19.867188 16.128906 20.398438 14.898438 20.898438 13.652344 C 21.023438 13.367188 21.175781 13.09375 21.351562 12.835938 C 21.609375 12.46875 21.9375 12.1875 22.335938 11.996094 C 22.496094 11.914062 22.65625 11.890625 22.816406 11.925781 Z M 22.816406 11.925781 "/>
<path style=" stroke:none;fill-rule:evenodd;fill:rgb(55.686275%,58.039216%,67.45098%);fill-opacity:1;" d="M 20.898438 13.652344 C 20.398438 14.898438 19.867188 16.128906 19.3125 17.347656 C 19.671875 16.039062 20.199219 14.808594 20.898438 13.652344 Z M 20.898438 13.652344 "/>
<path style=" stroke:none;fill-rule:evenodd;fill:rgb(93.72549%,92.156863%,89.411765%);fill-opacity:1;" d="M 19.121094 17.683594 C 20.027344 17.699219 20.921875 17.746094 21.808594 17.828125 C 21.359375 17.820312 20.910156 17.855469 20.464844 17.921875 C 21.394531 17.96875 22.320312 17.984375 23.25 17.96875 C 23.113281 19.992188 22.761719 21.976562 22.191406 23.921875 C 22.117188 23.96875 22.039062 23.976562 21.953125 23.945312 C 21.359375 23.726562 20.769531 23.527344 20.175781 23.34375 C 19.96875 23.222656 19.742188 23.128906 19.503906 23.054688 C 19.453125 23.019531 19.445312 22.972656 19.480469 22.914062 C 20.332031 21.421875 20.570312 19.835938 20.203125 18.164062 C 20.398438 19.828125 20.097656 21.398438 19.289062 22.863281 C 19.222656 22.914062 19.152344 22.921875 19.074219 22.890625 C 18.671875 22.734375 18.273438 22.585938 17.875 22.433594 C 17.382812 22.183594 16.886719 21.945312 16.386719 21.714844 C 16.804688 21.714844 17.148438 21.554688 17.417969 21.234375 C 17.898438 20.53125 18.058594 19.765625 17.898438 18.929688 C 17.789062 18.589844 17.574219 18.347656 17.25 18.210938 C 17.3125 18.179688 17.378906 18.144531 17.441406 18.113281 C 18.339844 18.121094 19.238281 18.070312 20.128906 17.96875 C 19.507812 17.921875 18.882812 17.90625 18.257812 17.921875 C 18.113281 17.929688 17.96875 17.921875 17.828125 17.898438 C 18.257812 17.828125 18.691406 17.753906 19.121094 17.683594 Z M 19.121094 17.683594 "/>
<path style=" stroke:none;fill-rule:evenodd;fill:rgb(15.294118%,14.117647%,14.117647%);fill-opacity:1;" d="M 23.25 17.777344 C 23.300781 17.785156 23.332031 17.816406 23.34375 17.875 C 23.332031 17.933594 23.300781 17.964844 23.25 17.96875 C 22.320312 17.984375 21.394531 17.96875 20.464844 17.921875 C 20.910156 17.855469 21.359375 17.820312 21.808594 17.828125 C 22.289062 17.808594 22.769531 17.792969 23.25 17.777344 Z M 23.25 17.777344 "/>
<path style=" stroke:none;fill-rule:evenodd;fill:rgb(54.509804%,53.333333%,51.764706%);fill-opacity:1;" d="M 17.441406 18.113281 C 17.378906 18.144531 17.3125 18.179688 17.25 18.210938 C 17.203125 18.1875 17.15625 18.164062 17.105469 18.136719 C 17.21875 18.113281 17.328125 18.105469 17.441406 18.113281 Z M 17.441406 18.113281 "/>
<path style=" stroke:none;fill-rule:evenodd;fill:rgb(62.745098%,56.862745%,58.823529%);fill-opacity:1;" d="M 17.25 18.402344 C 17.507812 18.90625 17.683594 19.433594 17.777344 19.984375 C 17.660156 20.574219 17.375 21.050781 16.914062 21.425781 C 16.664062 21.453125 16.425781 21.5 16.195312 21.570312 C 16.066406 21.496094 15.9375 21.441406 15.8125 21.402344 C 15.867188 21.449219 15.917969 21.507812 15.953125 21.570312 C 15.9375 21.570312 15.921875 21.570312 15.90625 21.570312 C 15.769531 21.457031 15.683594 21.316406 15.644531 21.136719 C 15.402344 20.375 15.425781 19.625 15.714844 18.882812 C 15.804688 18.890625 15.878906 18.859375 15.929688 18.785156 C 15.949219 18.65625 15.972656 18.527344 16.003906 18.402344 C 16.082031 18.234375 16.207031 18.164062 16.386719 18.1875 C 16.257812 18.226562 16.191406 18.316406 16.195312 18.449219 C 16.398438 18.386719 16.605469 18.339844 16.820312 18.304688 C 16.976562 18.304688 17.121094 18.335938 17.25 18.402344 Z M 17.25 18.402344 "/>
<use xlink:href="#surface18" mask="url(#mask4)"/>
<path style=" stroke:none;fill-rule:evenodd;fill:rgb(90.196078%,88.627451%,85.882353%);fill-opacity:1;" d="M 17.25 18.402344 C 17.375 18.453125 17.476562 18.535156 17.5625 18.640625 C 17.824219 19.054688 17.894531 19.503906 17.777344 19.984375 C 17.683594 19.433594 17.507812 18.90625 17.25 18.402344 Z M 17.25 18.402344 "/>
<use xlink:href="#surface21" mask="url(#mask5)"/>
<use xlink:href="#surface24" mask="url(#mask6)"/>
<path style=" stroke:none;fill-rule:evenodd;fill:rgb(14.117647%,13.333333%,13.333333%);fill-opacity:1;" d="M 38.125 19.503906 C 39.621094 21.515625 39.820312 23.675781 38.722656 25.984375 C 38.28125 26.734375 37.714844 27.375 37.019531 27.902344 C 36.460938 28.277344 35.855469 28.550781 35.195312 28.71875 C 35.1875 28.65625 35.203125 28.597656 35.246094 28.550781 C 35.589844 28.433594 35.90625 28.28125 36.203125 28.09375 C 37.925781 27.164062 38.925781 25.726562 39.203125 23.777344 C 39.277344 22.074219 38.773438 20.570312 37.691406 19.265625 C 37.722656 19.261719 37.746094 19.246094 37.765625 19.21875 C 37.894531 19.308594 38.011719 19.402344 38.125 19.503906 Z M 38.125 19.503906 "/>
<path style=" stroke:none;fill-rule:evenodd;fill:rgb(94.117647%,92.54902%,89.803922%);fill-opacity:1;" d="M 38.125 19.503906 C 39.703125 20.6875 41.253906 21.902344 42.777344 23.152344 C 42.96875 23.699219 43.121094 24.261719 43.234375 24.832031 C 43.265625 25.167969 43.257812 25.503906 43.210938 25.839844 C 43.179688 25.839844 43.164062 25.855469 43.164062 25.886719 C 43.164062 25.902344 43.164062 25.917969 43.164062 25.9375 C 43.121094 25.953125 43.105469 25.984375 43.113281 26.03125 C 43.074219 26.046875 43.058594 26.078125 43.066406 26.128906 C 42.9375 26.316406 42.8125 26.507812 42.683594 26.703125 C 40.800781 27.125 38.910156 27.523438 37.019531 27.902344 C 37.714844 27.375 38.28125 26.734375 38.722656 25.984375 C 39.820312 23.675781 39.621094 21.515625 38.125 19.503906 Z M 38.125 19.503906 "/>
<path style=" stroke:none;fill-rule:evenodd;fill:rgb(84.313725%,82.352941%,80.392157%);fill-opacity:1;" d="M 16.914062 21.425781 C 16.703125 21.609375 16.464844 21.65625 16.195312 21.570312 C 16.425781 21.5 16.664062 21.453125 16.914062 21.425781 Z M 16.914062 21.425781 "/>
<path style=" stroke:none;fill-rule:evenodd;fill:rgb(53.72549%,56.078431%,64.705882%);fill-opacity:1;" d="M 15.90625 21.570312 C 15.921875 21.570312 15.9375 21.570312 15.953125 21.570312 C 16.082031 21.65625 16.226562 21.707031 16.386719 21.714844 C 16.886719 21.945312 17.382812 22.183594 17.875 22.433594 C 17.273438 22.203125 16.664062 21.988281 16.050781 21.785156 C 16.015625 21.699219 15.96875 21.628906 15.90625 21.570312 Z M 15.90625 21.570312 "/>
<use xlink:href="#surface27" mask="url(#mask7)"/>
<path style=" stroke:none;fill-rule:evenodd;fill:rgb(57.254902%,60.392157%,70.196078%);fill-opacity:1;" d="M 18.5 22.914062 C 18.386719 23.164062 18.292969 23.417969 18.210938 23.679688 C 18.199219 23.554688 18.175781 23.554688 18.136719 23.679688 C 17.972656 24.316406 17.851562 24.957031 17.777344 25.601562 C 17.6875 25.894531 17.636719 26.230469 17.632812 26.609375 C 17.628906 26.902344 17.667969 27.191406 17.753906 27.472656 C 17.777344 27.375 17.785156 27.28125 17.777344 27.183594 C 17.800781 27.820312 17.921875 28.445312 18.136719 29.054688 C 18.234375 29.214844 18.332031 29.375 18.425781 29.535156 C 18.574219 29.640625 18.710938 29.753906 18.832031 29.871094 C 18.074219 30.226562 17.410156 30.097656 16.84375 29.488281 C 16.523438 28.96875 16.316406 28.410156 16.21875 27.808594 C 15.855469 25.882812 15.769531 23.949219 15.953125 22 C 15.984375 21.972656 16.019531 21.941406 16.050781 21.90625 C 16.867188 22.25 17.683594 22.585938 18.5 22.914062 Z M 18.5 22.914062 "/>
<path style=" stroke:none;fill-rule:evenodd;fill:rgb(53.72549%,56.862745%,66.27451%);fill-opacity:1;" d="M 47.433594 22.480469 C 46.527344 22.558594 45.617188 22.632812 44.699219 22.695312 C 44.542969 22.695312 44.410156 22.738281 44.289062 22.816406 C 44.136719 22.730469 43.984375 22.652344 43.832031 22.578125 C 44.695312 22.476562 45.558594 22.414062 46.425781 22.386719 C 46.765625 22.375 47.101562 22.40625 47.433594 22.480469 Z M 47.433594 22.480469 "/>
<use xlink:href="#surface30" mask="url(#mask8)"/>
<path style=" stroke:none;fill-rule:evenodd;fill:rgb(62.745098%,56.862745%,58.823529%);fill-opacity:1;" d="M 18.5 22.914062 C 18.828125 23.046875 19.164062 23.160156 19.503906 23.25 C 19.503906 23.183594 19.503906 23.121094 19.503906 23.054688 C 19.742188 23.128906 19.96875 23.222656 20.175781 23.34375 C 20.058594 23.316406 19.949219 23.316406 19.839844 23.34375 C 20.515625 23.6875 21.21875 23.960938 21.953125 24.160156 C 22.011719 24.171875 22.042969 24.203125 22.050781 24.257812 C 21.605469 25.605469 21.070312 26.917969 20.441406 28.191406 C 20.160156 28.703125 19.800781 29.152344 19.363281 29.535156 C 19.238281 29.636719 19.113281 29.652344 18.976562 29.582031 C 18.859375 29.457031 18.699219 29.34375 18.5 29.246094 C 18.25 28.90625 18.097656 28.523438 18.042969 28.09375 C 17.9375 27.210938 17.914062 26.328125 17.96875 25.457031 C 17.960938 25.746094 17.96875 26.03125 17.996094 26.320312 C 18.164062 25.183594 18.332031 24.046875 18.5 22.914062 Z M 18.5 22.914062 "/>
<use xlink:href="#surface33" mask="url(#mask9)"/>
<path style=" stroke:none;fill-rule:evenodd;fill:rgb(55.686275%,57.647059%,65.882353%);fill-opacity:1;" d="M 42.777344 23.152344 C 42.832031 23.207031 42.894531 23.238281 42.96875 23.25 C 43.417969 24.082031 43.496094 24.945312 43.210938 25.839844 C 43.257812 25.503906 43.265625 25.167969 43.234375 24.832031 C 43.121094 24.261719 42.96875 23.699219 42.777344 23.152344 Z M 42.777344 23.152344 "/>
<path style=" stroke:none;fill-rule:evenodd;fill:rgb(90.980392%,89.411765%,87.058824%);fill-opacity:1;" d="M 18.5 22.914062 C 18.332031 24.046875 18.164062 25.183594 17.996094 26.320312 C 17.96875 26.03125 17.960938 25.746094 17.96875 25.457031 C 18.015625 24.859375 18.09375 24.265625 18.210938 23.679688 C 18.292969 23.417969 18.386719 23.164062 18.5 22.914062 Z M 18.5 22.914062 "/>
<path style=" stroke:none;fill-rule:evenodd;fill:rgb(14.117647%,13.333333%,13.333333%);fill-opacity:1;" d="M 20.175781 23.34375 C 20.769531 23.527344 21.359375 23.726562 21.953125 23.945312 C 22.039062 23.976562 22.117188 23.96875 22.191406 23.921875 C 22.246094 24.007812 22.277344 24.101562 22.289062 24.207031 C 22.203125 24.203125 22.121094 24.21875 22.050781 24.257812 C 22.042969 24.203125 22.011719 24.171875 21.953125 24.160156 C 21.21875 23.960938 20.515625 23.6875 19.839844 23.34375 C 19.949219 23.316406 20.058594 23.316406 20.175781 23.34375 Z M 20.175781 23.34375 "/>
<path style=" stroke:none;fill-rule:evenodd;fill:rgb(14.509804%,13.72549%,13.72549%);fill-opacity:1;" d="M 18.210938 23.679688 C 18.09375 24.265625 18.015625 24.859375 17.96875 25.457031 C 17.914062 26.328125 17.9375 27.210938 18.042969 28.09375 C 18.097656 28.523438 18.25 28.90625 18.5 29.246094 C 18.605469 29.429688 18.765625 29.542969 18.976562 29.582031 C 19.113281 29.652344 19.238281 29.636719 19.363281 29.535156 C 19.394531 29.628906 19.410156 29.722656 19.410156 29.824219 C 19.214844 29.808594 19.019531 29.824219 18.832031 29.871094 C 18.710938 29.753906 18.574219 29.640625 18.425781 29.535156 C 18.332031 29.375 18.234375 29.214844 18.136719 29.054688 C 17.921875 28.445312 17.800781 27.820312 17.777344 27.183594 C 17.777344 26.65625 17.777344 26.128906 17.777344 25.601562 C 17.851562 24.957031 17.972656 24.316406 18.136719 23.679688 C 18.175781 23.554688 18.199219 23.554688 18.210938 23.679688 Z M 18.210938 23.679688 "/>
<use xlink:href="#surface36" mask="url(#mask10)"/>
<use xlink:href="#surface39" mask="url(#mask11)"/>
<use xlink:href="#surface42" mask="url(#mask12)"/>
<path style=" stroke:none;fill-rule:evenodd;fill:rgb(88.627451%,87.45098%,85.882353%);fill-opacity:1;" d="M 17.777344 25.601562 C 17.777344 26.128906 17.777344 26.65625 17.777344 27.183594 C 17.785156 27.28125 17.777344 27.375 17.753906 27.472656 C 17.667969 27.191406 17.628906 26.902344 17.632812 26.609375 C 17.636719 26.230469 17.6875 25.894531 17.777344 25.601562 Z M 17.777344 25.601562 "/>
<use xlink:href="#surface45" mask="url(#mask13)"/>
<use xlink:href="#surface48" mask="url(#mask14)"/>
<path style=" stroke:none;fill-rule:evenodd;fill:rgb(57.254902%,60.392157%,70.588235%);fill-opacity:1;" d="M 43.304688 22.671875 C 43.789062 22.738281 44.238281 22.914062 44.648438 23.199219 C 44.699219 23.183594 44.730469 23.152344 44.746094 23.105469 C 44.625 23.003906 44.5 22.917969 44.363281 22.839844 C 45.675781 22.796875 46.984375 22.742188 48.296875 22.671875 C 48.296875 23.152344 48.296875 23.632812 48.296875 24.113281 C 47.507812 24.265625 46.707031 24.410156 45.898438 24.542969 C 45.847656 24.558594 45.800781 24.574219 45.753906 24.59375 C 45.777344 24.609375 45.800781 24.625 45.824219 24.640625 C 45.972656 24.597656 46.125 24.582031 46.28125 24.59375 C 46.296875 24.6875 46.3125 24.785156 46.328125 24.878906 C 46.273438 24.871094 46.226562 24.886719 46.183594 24.929688 C 46.21875 24.945312 46.25 24.960938 46.28125 24.976562 C 46.964844 24.855469 47.652344 24.757812 48.34375 24.6875 C 48.34375 24.910156 48.34375 25.136719 48.34375 25.359375 C 47.582031 25.449219 46.832031 25.59375 46.089844 25.792969 C 46.195312 25.839844 46.308594 25.855469 46.425781 25.839844 C 46.433594 25.984375 46.425781 26.128906 46.402344 26.273438 C 46.328125 26.300781 46.257812 26.332031 46.183594 26.367188 C 46.21875 26.382812 46.25 26.398438 46.28125 26.414062 C 46.960938 26.242188 47.648438 26.097656 48.34375 25.984375 C 48.34375 26.144531 48.34375 26.304688 48.34375 26.464844 C 48.3125 26.464844 48.28125 26.464844 48.25 26.464844 C 46.917969 26.730469 45.609375 27.074219 44.3125 27.496094 C 44.253906 27.539062 44.253906 27.578125 44.3125 27.613281 C 44.710938 27.519531 45.109375 27.441406 45.511719 27.375 C 45.511719 27.457031 45.511719 27.535156 45.511719 27.613281 C 45.414062 27.613281 45.324219 27.644531 45.25 27.710938 C 45.152344 28.46875 45.023438 29.222656 44.867188 29.964844 C 44.792969 31.214844 45.03125 32.398438 45.585938 33.515625 C 45.667969 33.679688 45.769531 33.824219 45.898438 33.949219 C 46.183594 34.214844 46.207031 34.5 45.96875 34.8125 C 45.785156 34.996094 45.601562 35.179688 45.417969 35.363281 C 44.871094 35.753906 44.351562 36.175781 43.859375 36.636719 C 43.832031 36.585938 43.792969 36.554688 43.738281 36.539062 C 43.203125 36.625 42.808594 36.414062 42.5625 35.917969 C 42.539062 35.710938 42.53125 35.5 42.539062 35.292969 C 42.617188 35.355469 42.699219 35.421875 42.777344 35.484375 C 42.902344 35.726562 43.046875 35.957031 43.210938 36.179688 C 43.320312 36.203125 43.433594 36.210938 43.546875 36.203125 C 43.410156 33.699219 43.234375 31.203125 43.019531 28.71875 C 42.996094 28.542969 43.027344 28.382812 43.113281 28.238281 C 43.1875 28.085938 43.265625 27.933594 43.355469 27.78125 C 43.613281 27.738281 43.871094 27.675781 44.121094 27.589844 C 44.160156 27.542969 44.179688 27.488281 44.167969 27.421875 C 43.824219 27.511719 43.472656 27.5625 43.113281 27.566406 C 42.75 27.582031 42.414062 27.503906 42.105469 27.328125 C 42.332031 27.273438 42.554688 27.21875 42.777344 27.160156 C 42.984375 27.015625 43.164062 26.839844 43.304688 26.632812 C 43.261719 26.609375 43.210938 26.601562 43.164062 26.609375 C 43.136719 26.605469 43.121094 26.589844 43.113281 26.558594 C 43.605469 25.59375 43.671875 24.601562 43.304688 23.585938 C 43.511719 23.734375 43.710938 23.894531 43.90625 24.0625 C 43.65625 23.679688 43.367188 23.3125 43.042969 22.960938 C 43.03125 22.867188 43.007812 22.78125 42.96875 22.695312 C 43.082031 22.671875 43.191406 22.664062 43.304688 22.671875 Z M 43.304688 22.671875 "/>
<path style=" stroke:none;fill-rule:evenodd;fill:rgb(14.509804%,13.72549%,14.509804%);fill-opacity:1;" d="M 44.3125 23.296875 C 44.375 23.324219 44.414062 23.371094 44.433594 23.441406 C 44.757812 24.824219 44.574219 26.136719 43.882812 27.375 C 43.84375 27.417969 43.792969 27.433594 43.738281 27.421875 C 43.917969 26.949219 44.085938 26.46875 44.242188 25.984375 C 44.433594 25.09375 44.457031 24.195312 44.3125 23.296875 Z M 44.3125 23.296875 "/>
<use xlink:href="#surface51" mask="url(#mask15)"/>
<use xlink:href="#surface54" mask="url(#mask16)"/>
<use xlink:href="#surface57" mask="url(#mask17)"/>
<use xlink:href="#surface60" mask="url(#mask18)"/>
<path style=" stroke:none;fill-rule:evenodd;fill:rgb(16.470588%,15.686275%,16.078431%);fill-opacity:1;" d="M 43.019531 28.71875 C 43.234375 31.203125 43.410156 33.699219 43.546875 36.203125 C 43.433594 36.210938 43.320312 36.203125 43.210938 36.179688 C 43.046875 35.957031 42.902344 35.726562 42.777344 35.484375 C 42.773438 35.464844 42.78125 35.449219 42.800781 35.4375 C 42.976562 35.644531 43.152344 35.851562 43.332031 36.058594 C 43.222656 33.71875 43.105469 31.375 42.96875 29.03125 C 42.96875 28.917969 42.988281 28.8125 43.019531 28.71875 Z M 43.019531 28.71875 "/>
<path style=" stroke:none;fill-rule:evenodd;fill:rgb(83.529412%,81.176471%,79.607843%);fill-opacity:1;" d="M 18.5 29.246094 C 18.699219 29.34375 18.859375 29.457031 18.976562 29.582031 C 18.765625 29.542969 18.605469 29.429688 18.5 29.246094 Z M 18.5 29.246094 "/>
<use xlink:href="#surface63" mask="url(#mask19)"/>
<use xlink:href="#surface66" mask="url(#mask20)"/>
<use xlink:href="#surface69" mask="url(#mask21)"/>
<use xlink:href="#surface72" mask="url(#mask22)"/>
<use xlink:href="#surface75" mask="url(#mask23)"/>
<use xlink:href="#surface78" mask="url(#mask24)"/>
</g>
</svg>
