<?xml version="1.0" encoding="UTF-8"?>
<svg xmlns="http://www.w3.org/2000/svg" xmlns:xlink="http://www.w3.org/1999/xlink" width="50pt" height="50pt" viewBox="0 0 50 50" version="1.1">
<defs>
<filter id="alpha" filterUnits="objectBoundingBox" x="0%" y="0%" width="100%" height="100%">
  <feColorMatrix type="matrix" in="SourceGraphic" values="0 0 0 0 1 0 0 0 0 1 0 0 0 0 1 0 0 0 1 0"/>
</filter>
<mask id="mask0">
  <g filter="url(#alpha)">
<rect x="0" y="0" width="50" height="50" style="fill:rgb(0%,0%,0%);fill-opacity:0.972549;stroke:none;"/>
  </g>
</mask>
<clipPath id="clip1">
  <rect width="50" height="50"/>
</clipPath>
<g id="surface6" clip-path="url(#clip1)">
<path style=" stroke:none;fill-rule:evenodd;fill:rgb(66.666667%,23.137255%,18.039216%);fill-opacity:1;" d="M 17.011719 -0.0234375 C 17.3125 -0.0234375 17.617188 -0.0234375 17.921875 -0.0234375 C 18.394531 0.277344 18.5625 0.710938 18.425781 1.273438 C 18.246094 2.75 17.859375 4.171875 17.273438 5.542969 C 16.714844 6.066406 16.167969 6.050781 15.644531 5.496094 C 15.546875 5.316406 15.492188 5.121094 15.476562 4.917969 C 15.746094 4.09375 15.996094 3.261719 16.21875 2.421875 C 16.351562 1.785156 16.464844 1.148438 16.554688 0.503906 C 16.664062 0.289062 16.816406 0.113281 17.011719 -0.0234375 Z M 17.011719 -0.0234375 "/>
</g>
<mask id="mask1">
  <g filter="url(#alpha)">
<rect x="0" y="0" width="50" height="50" style="fill:rgb(0%,0%,0%);fill-opacity:0.905882;stroke:none;"/>
  </g>
</mask>
<clipPath id="clip2">
  <rect width="50" height="50"/>
</clipPath>
<g id="surface9" clip-path="url(#clip2)">
<path style=" stroke:none;fill-rule:evenodd;fill:rgb(0%,0%,0%);fill-opacity:1;" d="M 18.402344 2.808594 C 18.503906 2.804688 18.589844 2.835938 18.667969 2.902344 C 18.65625 4.234375 18.480469 5.546875 18.136719 6.835938 C 18.089844 6.960938 18.035156 7.082031 17.96875 7.199219 C 17.625 7.300781 17.507812 7.183594 17.609375 6.835938 C 17.667969 6.714844 17.714844 6.585938 17.753906 6.453125 C 18.011719 5.28125 18.1875 4.097656 18.28125 2.902344 C 18.328125 2.875 18.371094 2.84375 18.402344 2.808594 Z M 18.402344 2.808594 "/>
</g>
<mask id="mask2">
  <g filter="url(#alpha)">
<rect x="0" y="0" width="50" height="50" style="fill:rgb(0%,0%,0%);fill-opacity:0.968627;stroke:none;"/>
  </g>
</mask>
<clipPath id="clip3">
  <rect width="50" height="50"/>
</clipPath>
<g id="surface12" clip-path="url(#clip3)">
<path style=" stroke:none;fill-rule:evenodd;fill:rgb(66.27451%,22.745098%,17.647059%);fill-opacity:1;" d="M 7.316406 8.324219 C 7.183594 8.3125 7.054688 8.335938 6.933594 8.398438 C 6.859375 8.449219 6.828125 8.523438 6.835938 8.613281 C 6.492188 8.671875 6.171875 8.601562 5.878906 8.398438 C 5.074219 7.753906 4.328125 7.042969 3.648438 6.261719 C 3.257812 5.707031 3.316406 5.203125 3.816406 4.75 C 4.199219 4.53125 4.582031 4.53125 4.964844 4.75 C 5.714844 5.59375 6.519531 6.371094 7.390625 7.078125 C 7.628906 7.511719 7.605469 7.925781 7.316406 8.324219 Z M 7.316406 8.324219 "/>
</g>
<mask id="mask3">
  <g filter="url(#alpha)">
<rect x="0" y="0" width="50" height="50" style="fill:rgb(0%,0%,0%);fill-opacity:0.984314;stroke:none;"/>
  </g>
</mask>
<clipPath id="clip4">
  <rect width="50" height="50"/>
</clipPath>
<g id="surface15" clip-path="url(#clip4)">
<path style=" stroke:none;fill-rule:evenodd;fill:rgb(66.27451%,22.745098%,17.647059%);fill-opacity:1;" d="M 20.898438 10.722656 C 20.207031 10.421875 19.527344 10.101562 18.859375 9.765625 C 18.824219 9.816406 18.777344 9.847656 18.714844 9.859375 C 17.820312 9.59375 16.917969 9.550781 16.003906 9.742188 C 14.945312 9.933594 13.890625 10.140625 12.835938 10.363281 C 11.992188 10.707031 11.195312 11.121094 10.4375 11.613281 C 9.195312 12.679688 8.226562 13.949219 7.535156 15.425781 C 7.40625 16.09375 7.382812 16.765625 7.460938 17.441406 C 6.855469 16.273438 6.6875 15.039062 6.957031 13.746094 C 7.25 12.84375 7.714844 12.042969 8.347656 11.347656 C 9.46875 10.148438 10.742188 9.148438 12.164062 8.347656 C 13.855469 7.449219 15.628906 7.222656 17.492188 7.675781 C 19.089844 8.183594 20.226562 9.199219 20.898438 10.722656 Z M 20.898438 10.722656 "/>
</g>
<mask id="mask4">
  <g filter="url(#alpha)">
<rect x="0" y="0" width="50" height="50" style="fill:rgb(0%,0%,0%);fill-opacity:0.968627;stroke:none;"/>
  </g>
</mask>
<clipPath id="clip5">
  <rect width="50" height="50"/>
</clipPath>
<g id="surface18" clip-path="url(#clip5)">
<path style=" stroke:none;fill-rule:evenodd;fill:rgb(66.27451%,23.137255%,17.647059%);fill-opacity:1;" d="M 29.007812 7.894531 C 29.921875 7.890625 30.316406 8.335938 30.183594 9.238281 C 30.089844 9.5 29.964844 9.738281 29.796875 9.957031 C 28.820312 10.886719 27.726562 11.644531 26.511719 12.234375 C 25.976562 12.449219 25.539062 12.328125 25.191406 11.875 C 25.019531 11.484375 25.035156 11.101562 25.238281 10.722656 C 26.019531 10.28125 26.78125 9.8125 27.519531 9.308594 C 27.78125 9.109375 28.027344 8.894531 28.261719 8.660156 C 28.390625 8.285156 28.640625 8.027344 29.007812 7.894531 Z M 29.007812 7.894531 "/>
</g>
<mask id="mask5">
  <g filter="url(#alpha)">
<rect x="0" y="0" width="50" height="50" style="fill:rgb(0%,0%,0%);fill-opacity:0.890196;stroke:none;"/>
  </g>
</mask>
<clipPath id="clip6">
  <rect width="50" height="50"/>
</clipPath>
<g id="surface21" clip-path="url(#clip6)">
<path style=" stroke:none;fill-rule:evenodd;fill:rgb(0.392157%,0%,0%);fill-opacity:1;" d="M 7.316406 8.324219 C 7.597656 8.742188 7.910156 9.144531 8.253906 9.523438 C 8.300781 9.78125 8.195312 9.902344 7.941406 9.886719 C 7.625 9.574219 7.351562 9.230469 7.125 8.851562 C 6.96875 8.839844 6.875 8.757812 6.835938 8.613281 C 6.828125 8.523438 6.859375 8.449219 6.933594 8.398438 C 7.054688 8.335938 7.183594 8.3125 7.316406 8.324219 Z M 7.316406 8.324219 "/>
</g>
<mask id="mask6">
  <g filter="url(#alpha)">
<rect x="0" y="0" width="50" height="50" style="fill:rgb(0%,0%,0%);fill-opacity:0.972549;stroke:none;"/>
  </g>
</mask>
<clipPath id="clip7">
  <rect width="50" height="50"/>
</clipPath>
<g id="surface24" clip-path="url(#clip7)">
<path style=" stroke:none;fill-rule:evenodd;fill:rgb(0.784314%,0.392157%,0.392157%);fill-opacity:1;" d="M 20.898438 10.722656 C 22.921875 12.261719 24.035156 14.308594 24.230469 16.867188 C 24.507812 19.210938 23.746094 21.136719 21.953125 22.648438 C 23.789062 22.878906 25.566406 23.34375 27.277344 24.039062 C 32.960938 26.160156 38.207031 29.023438 43.019531 32.628906 C 43.292969 32.621094 43.453125 32.75 43.5 33.011719 C 44.875 34.230469 46.25 35.445312 47.625 36.660156 C 48.03125 36.921875 48.390625 37.234375 48.703125 37.597656 C 48.84375 37.878906 48.757812 38.054688 48.441406 38.125 C 48.355469 38.09375 48.285156 38.046875 48.222656 37.980469 C 48.15625 38.03125 48.085938 38.039062 48.007812 38.003906 C 47.855469 37.9375 47.714844 37.855469 47.578125 37.765625 C 46.214844 36.386719 44.785156 35.101562 43.28125 33.902344 C 41.679688 35.9375 39.953125 37.871094 38.101562 39.707031 C 37.367188 40.714844 36.542969 41.648438 35.628906 42.515625 C 34.667969 43.265625 33.710938 44.019531 32.75 44.769531 C 34.257812 46.308594 35.65625 47.933594 36.949219 49.640625 C 36.964844 49.753906 36.957031 49.863281 36.925781 49.976562 C 36.765625 49.976562 36.605469 49.976562 36.445312 49.976562 C 36.269531 49.714844 36.085938 49.457031 35.890625 49.207031 C 34.785156 48.003906 33.640625 46.828125 32.460938 45.679688 C 31.957031 45.277344 31.460938 44.859375 30.972656 44.433594 C 29.933594 43.363281 28.894531 42.289062 27.855469 41.21875 C 27.167969 40.628906 26.480469 40.035156 25.792969 39.445312 C 23.96875 38.101562 22.144531 36.757812 20.320312 35.414062 C 18.535156 34.601562 16.664062 34.304688 14.707031 34.523438 C 13.707031 34.515625 12.714844 34.410156 11.730469 34.214844 C 11.011719 34.066406 10.578125 33.636719 10.4375 32.917969 C 10.515625 32.570312 10.660156 32.25 10.867188 31.957031 C 9.972656 31.996094 9.230469 31.683594 8.636719 31.023438 C 8.171875 30.296875 8.238281 29.625 8.828125 29.007812 C 8.851562 28.960938 8.859375 28.914062 8.851562 28.863281 C 8.039062 28.90625 7.441406 28.570312 7.054688 27.855469 C 6.863281 27.273438 6.941406 26.726562 7.292969 26.222656 C 7.808594 25.660156 8.390625 25.1875 9.046875 24.808594 C 9.566406 24.507812 10.09375 24.21875 10.628906 23.945312 C 9.925781 23.332031 9.421875 22.585938 9.117188 21.714844 C 8.886719 21.453125 8.6875 21.175781 8.515625 20.875 C 8.535156 20.855469 8.550781 20.839844 8.566406 20.824219 C 8.011719 19.757812 7.640625 18.632812 7.460938 17.441406 C 7.382812 16.765625 7.40625 16.09375 7.535156 15.425781 C 8.226562 13.949219 9.195312 12.679688 10.4375 11.613281 C 11.195312 11.121094 11.992188 10.707031 12.835938 10.363281 C 13.890625 10.140625 14.945312 9.933594 16.003906 9.742188 C 16.917969 9.550781 17.820312 9.59375 18.714844 9.859375 C 18.777344 9.847656 18.824219 9.816406 18.859375 9.765625 C 19.527344 10.101562 20.207031 10.421875 20.898438 10.722656 Z M 21.761719 12.738281 C 23.023438 14.230469 23.625 15.957031 23.558594 17.921875 C 23.46875 18.53125 23.308594 19.125 23.082031 19.699219 C 22.074219 21.199219 20.753906 22.34375 19.121094 23.128906 C 18.914062 23.273438 18.707031 23.417969 18.5 23.558594 C 18.308594 23.71875 18.15625 23.902344 18.042969 24.113281 C 17.882812 24.027344 17.714844 24 17.539062 24.039062 C 17.304688 24.320312 17.003906 24.457031 16.625 24.449219 C 16.59375 23.679688 16.5625 22.910156 16.53125 22.144531 C 19.144531 21.460938 20.863281 19.828125 21.6875 17.25 C 22.128906 15.753906 22.152344 14.25 21.761719 12.738281 Z M 8.902344 19.746094 C 10.113281 20.851562 11.359375 21.917969 12.644531 22.9375 C 12.816406 23.003906 12.992188 23.019531 13.171875 22.984375 C 13.515625 22.855469 13.871094 22.753906 14.226562 22.671875 C 14.25 22.960938 14.265625 23.246094 14.277344 23.535156 C 14.285156 23.800781 14.253906 24.054688 14.179688 24.304688 C 13.734375 24.226562 13.289062 24.167969 12.835938 24.136719 C 12.40625 24.007812 12.003906 23.816406 11.636719 23.558594 C 10.96875 22.941406 10.351562 22.277344 9.789062 21.570312 C 9.351562 21.03125 9.058594 20.425781 8.902344 19.746094 Z M 16.003906 22.289062 C 16.003906 22.992188 16.003906 23.695312 16.003906 24.398438 C 15.746094 24.40625 15.488281 24.390625 15.234375 24.351562 C 15.199219 23.730469 15.167969 23.105469 15.140625 22.480469 C 15.417969 22.398438 15.707031 22.335938 16.003906 22.289062 Z M 16.003906 22.289062 "/>
</g>
<mask id="mask7">
  <g filter="url(#alpha)">
<rect x="0" y="0" width="50" height="50" style="fill:rgb(0%,0%,0%);fill-opacity:0.996078;stroke:none;"/>
  </g>
</mask>
<clipPath id="clip8">
  <rect width="50" height="50"/>
</clipPath>
<g id="surface27" clip-path="url(#clip8)">
<path style=" stroke:none;fill-rule:evenodd;fill:rgb(66.27451%,22.745098%,17.647059%);fill-opacity:1;" d="M 21.761719 12.738281 C 22.152344 14.25 22.128906 15.753906 21.6875 17.25 C 20.863281 19.828125 19.144531 21.460938 16.53125 22.144531 C 16.53125 21.585938 16.53125 21.023438 16.53125 20.464844 C 17.640625 20.378906 18.59375 19.945312 19.386719 19.167969 C 19.808594 18.496094 19.855469 17.792969 19.53125 17.058594 C 19.292969 16.414062 18.835938 16.042969 18.164062 15.953125 C 17.6875 16.035156 17.296875 16.261719 16.988281 16.625 C 16.332031 17.613281 16.019531 18.699219 16.050781 19.890625 C 15.65625 19.96875 15.253906 20 14.851562 19.984375 C 14.792969 19.121094 14.558594 18.304688 14.15625 17.539062 C 13.84375 17.117188 13.417969 16.910156 12.882812 16.914062 C 12.160156 16.925781 11.625 17.246094 11.277344 17.875 C 11.195312 18.277344 11.277344 18.644531 11.515625 18.976562 C 11.914062 19.566406 12.449219 19.972656 13.125 20.203125 C 13.425781 20.289062 13.726562 20.359375 14.035156 20.417969 C 14.121094 21.167969 14.183594 21.917969 14.226562 22.671875 C 13.871094 22.753906 13.515625 22.855469 13.171875 22.984375 C 12.992188 23.019531 12.816406 23.003906 12.644531 22.9375 C 11.359375 21.917969 10.113281 20.851562 8.902344 19.746094 C 8.398438 18.402344 8.277344 17.027344 8.542969 15.617188 C 8.835938 14.769531 9.203125 13.953125 9.644531 13.171875 C 10.09375 12.625 10.628906 12.1875 11.253906 11.851562 C 12.691406 11.15625 14.191406 10.660156 15.761719 10.363281 C 16.8125 10.25 17.835938 10.363281 18.832031 10.699219 C 19.851562 11.09375 20.753906 11.660156 21.546875 12.402344 C 21.628906 12.511719 21.699219 12.625 21.761719 12.738281 Z M 21.761719 12.738281 "/>
</g>
<mask id="mask8">
  <g filter="url(#alpha)">
<rect x="0" y="0" width="50" height="50" style="fill:rgb(0%,0%,0%);fill-opacity:0.890196;stroke:none;"/>
  </g>
</mask>
<clipPath id="clip9">
  <rect width="50" height="50"/>
</clipPath>
<g id="surface30" clip-path="url(#clip9)">
<path style=" stroke:none;fill-rule:evenodd;fill:rgb(0%,0%,0%);fill-opacity:1;" d="M 30.015625 10.582031 C 30.339844 10.597656 30.417969 10.75 30.253906 11.035156 C 29.644531 11.324219 29.101562 11.710938 28.621094 12.1875 C 28.003906 12.550781 27.4375 12.972656 26.917969 13.460938 C 26.699219 13.402344 26.632812 13.273438 26.726562 13.074219 C 27.15625 12.609375 27.640625 12.21875 28.191406 11.898438 C 28.742188 11.378906 29.351562 10.9375 30.015625 10.582031 Z M 30.015625 10.582031 "/>
</g>
<mask id="mask9">
  <g filter="url(#alpha)">
<rect x="0" y="0" width="50" height="50" style="fill:rgb(0%,0%,0%);fill-opacity:0.988235;stroke:none;"/>
  </g>
</mask>
<clipPath id="clip10">
  <rect width="50" height="50"/>
</clipPath>
<g id="surface33" clip-path="url(#clip10)">
<path style=" stroke:none;fill-rule:evenodd;fill:rgb(65.490196%,22.745098%,17.647059%);fill-opacity:1;" d="M 16.003906 22.289062 C 15.707031 22.335938 15.417969 22.398438 15.140625 22.480469 C 15.101562 22.425781 15.078125 22.363281 15.066406 22.289062 C 15.035156 21.679688 14.992188 21.074219 14.945312 20.464844 C 15.296875 20.496094 15.648438 20.511719 16.003906 20.511719 C 16.003906 21.105469 16.003906 21.695312 16.003906 22.289062 Z M 16.003906 22.289062 "/>
</g>
<mask id="mask10">
  <g filter="url(#alpha)">
<rect x="0" y="0" width="50" height="50" style="fill:rgb(0%,0%,0%);fill-opacity:0.996078;stroke:none;"/>
  </g>
</mask>
<clipPath id="clip11">
  <rect width="50" height="50"/>
</clipPath>
<g id="surface36" clip-path="url(#clip11)">
<path style=" stroke:none;fill-rule:evenodd;fill:rgb(89.411765%,89.411765%,89.411765%);fill-opacity:1;" d="M 22.480469 21.328125 C 22.515625 21.324219 22.546875 21.332031 22.578125 21.351562 C 22.238281 21.863281 21.800781 22.253906 21.257812 22.527344 C 21.226562 22.496094 21.226562 22.464844 21.257812 22.433594 C 21.660156 22.054688 22.066406 21.6875 22.480469 21.328125 Z M 22.480469 21.328125 "/>
</g>
<mask id="mask11">
  <g filter="url(#alpha)">
<rect x="0" y="0" width="50" height="50" style="fill:rgb(0%,0%,0%);fill-opacity:0.878431;stroke:none;"/>
  </g>
</mask>
<clipPath id="clip12">
  <rect width="50" height="50"/>
</clipPath>
<g id="surface39" clip-path="url(#clip12)">
<path style=" stroke:none;fill-rule:evenodd;fill:rgb(81.960784%,81.960784%,81.960784%);fill-opacity:1;" d="M 14.660156 23.441406 C 14.824219 23.582031 14.839844 23.742188 14.707031 23.921875 C 14.660156 23.761719 14.644531 23.605469 14.660156 23.441406 Z M 14.660156 23.441406 "/>
</g>
</defs>
<g id="surface1">
<use xlink:href="#surface6" mask="url(#mask0)"/>
<use xlink:href="#surface9" mask="url(#mask1)"/>
<use xlink:href="#surface12" mask="url(#mask2)"/>
<use xlink:href="#surface15" mask="url(#mask3)"/>
<use xlink:href="#surface18" mask="url(#mask4)"/>
<use xlink:href="#surface21" mask="url(#mask5)"/>
<use xlink:href="#surface24" mask="url(#mask6)"/>
<use xlink:href="#surface27" mask="url(#mask7)"/>
<use xlink:href="#surface30" mask="url(#mask8)"/>
<path style=" stroke:none;fill-rule:evenodd;fill:rgb(65.490196%,22.745098%,17.647059%);fill-opacity:1;" d="M 18.164062 16.386719 C 18.300781 16.386719 18.429688 16.425781 18.546875 16.507812 C 19.261719 17.15625 19.363281 17.902344 18.859375 18.738281 C 18.234375 19.421875 17.460938 19.757812 16.53125 19.746094 C 16.546875 19.054688 16.667969 18.382812 16.890625 17.730469 C 17.144531 17.117188 17.570312 16.667969 18.164062 16.386719 Z M 18.164062 16.386719 "/>
<path style=" stroke:none;fill-rule:evenodd;fill:rgb(65.098039%,22.352941%,17.647059%);fill-opacity:1;" d="M 12.210938 17.539062 C 12.730469 17.488281 13.136719 17.679688 13.4375 18.113281 C 13.746094 18.628906 13.914062 19.191406 13.941406 19.792969 C 12.933594 19.558594 12.199219 18.980469 11.730469 18.066406 C 11.828125 17.828125 11.988281 17.652344 12.210938 17.539062 Z M 12.210938 17.539062 "/>
<path style=" stroke:none;fill-rule:evenodd;fill:rgb(79.607843%,77.647059%,77.647059%);fill-opacity:1;" d="M 13.605469 17.585938 C 13.671875 17.632812 13.738281 17.6875 13.796875 17.753906 C 13.773438 17.777344 13.746094 17.800781 13.722656 17.828125 C 13.65625 17.757812 13.617188 17.679688 13.605469 17.585938 Z M 13.605469 17.585938 "/>
<use xlink:href="#surface33" mask="url(#mask9)"/>
<use xlink:href="#surface36" mask="url(#mask10)"/>
<path style=" stroke:none;fill-rule:evenodd;fill:rgb(99.607843%,99.607843%,99.607843%);fill-opacity:1;" d="M 20.5625 23.34375 C 22.242188 23.597656 23.90625 23.941406 25.550781 24.375 C 27.28125 24.902344 28.992188 25.480469 30.6875 26.105469 C 32.824219 27.140625 34.9375 28.230469 37.019531 29.367188 C 38.859375 30.582031 40.660156 31.855469 42.417969 33.179688 C 42.449219 33.230469 42.449219 33.277344 42.417969 33.324219 C 42.03125 33.824219 41.664062 34.335938 41.316406 34.859375 C 40.707031 35.519531 40.113281 36.191406 39.539062 36.875 C 38.316406 38.550781 36.945312 40.109375 35.4375 41.554688 C 34.851562 41.953125 34.292969 42.382812 33.757812 42.851562 C 33.273438 43.359375 32.785156 43.863281 32.292969 44.363281 C 31.707031 43.792969 31.109375 43.242188 30.496094 42.707031 C 28.105469 40.910156 25.847656 38.941406 23.726562 36.804688 C 23.210938 36.390625 22.648438 36.039062 22.050781 35.75 C 21.425781 35.347656 20.800781 34.949219 20.175781 34.550781 C 19.546875 34.214844 18.875 34.023438 18.164062 33.972656 C 17.082031 33.957031 16 33.980469 14.921875 34.046875 C 14.042969 34.085938 13.167969 34.015625 12.308594 33.828125 C 11.863281 33.730469 11.46875 33.527344 11.132812 33.230469 C 10.988281 32.890625 11.058594 32.613281 11.347656 32.390625 C 12.210938 31.878906 13.125 31.46875 14.082031 31.167969 C 14.40625 31.226562 14.722656 31.21875 15.042969 31.140625 C 15.589844 30.9375 16.140625 30.753906 16.699219 30.589844 C 17.535156 30.898438 18.359375 31.242188 19.167969 31.621094 C 19.472656 31.714844 19.625 31.613281 19.625 31.308594 C 19.519531 31.1875 19.398438 31.085938 19.265625 31 C 18.855469 30.792969 18.453125 30.570312 18.066406 30.328125 C 17.722656 30.121094 17.355469 30.027344 16.960938 30.039062 C 16.355469 30.207031 15.765625 30.417969 15.1875 30.664062 C 14.789062 30.777344 14.390625 30.792969 13.988281 30.710938 C 13.367188 30.339844 13.152344 29.804688 13.339844 29.101562 C 14.128906 27.800781 15.242188 26.882812 16.675781 26.34375 C 18.371094 25.546875 20.066406 25.546875 21.761719 26.34375 C 22.023438 26.367188 22.113281 26.246094 22.023438 25.984375 C 21.527344 25.691406 20.992188 25.488281 20.417969 25.382812 C 19.914062 25.253906 19.402344 25.183594 18.882812 25.167969 C 18.914062 24.792969 18.988281 24.425781 19.097656 24.0625 C 19.179688 23.960938 19.285156 23.890625 19.410156 23.847656 C 19.804688 23.691406 20.1875 23.523438 20.5625 23.34375 Z M 20.5625 23.34375 "/>
<use xlink:href="#surface39" mask="url(#mask11)"/>
<path style=" stroke:none;fill-rule:evenodd;fill:rgb(98.823529%,98.823529%,98.823529%);fill-opacity:1;" d="M 11.058594 24.449219 C 11.3125 24.4375 11.457031 24.558594 11.492188 24.808594 C 11.332031 25.789062 11.195312 26.769531 11.085938 27.757812 C 10.398438 28.082031 9.679688 28.292969 8.925781 28.382812 C 8.394531 28.375 7.945312 28.183594 7.582031 27.808594 C 7.464844 27.453125 7.527344 27.132812 7.773438 26.847656 C 8.757812 25.886719 9.851562 25.089844 11.058594 24.449219 Z M 11.058594 24.449219 "/>
<path style=" stroke:none;fill-rule:evenodd;fill:rgb(97.647059%,97.647059%,97.647059%);fill-opacity:1;" d="M 12.164062 24.734375 C 12.484375 24.785156 12.804688 24.84375 13.125 24.902344 C 14.628906 24.878906 16.132812 24.886719 17.632812 24.929688 C 17.644531 25.058594 17.628906 25.1875 17.585938 25.3125 C 17.464844 25.367188 17.335938 25.40625 17.203125 25.433594 C 16.613281 25.492188 16.019531 25.535156 15.425781 25.550781 C 14.796875 25.53125 14.175781 25.476562 13.554688 25.382812 C 13.488281 25.402344 13.441406 25.441406 13.410156 25.503906 C 13.449219 25.613281 13.511719 25.699219 13.605469 25.769531 C 14.144531 25.984375 14.6875 26.191406 15.234375 26.390625 C 14.777344 26.753906 14.300781 27.074219 13.796875 27.351562 C 13.605469 27.382812 13.410156 27.382812 13.21875 27.351562 C 12.824219 27.242188 12.425781 27.152344 12.019531 27.085938 C 12 26.296875 12.046875 25.515625 12.164062 24.734375 Z M 12.164062 24.734375 "/>
<path style=" stroke:none;fill-rule:evenodd;fill:rgb(97.647059%,97.647059%,97.647059%);fill-opacity:1;" d="M 11.972656 27.566406 C 12.394531 27.5625 12.8125 27.617188 13.21875 27.734375 C 13.277344 27.773438 13.328125 27.820312 13.363281 27.878906 C 13.113281 28.210938 12.816406 28.492188 12.476562 28.71875 C 12.277344 28.667969 12.078125 28.628906 11.875 28.597656 C 11.796875 28.246094 11.828125 27.898438 11.972656 27.566406 Z M 11.972656 27.566406 "/>
<path style=" stroke:none;fill-rule:evenodd;fill:rgb(98.823529%,98.823529%,98.823529%);fill-opacity:1;" d="M 10.867188 28.480469 C 10.917969 28.480469 10.964844 28.480469 11.011719 28.480469 C 10.992188 28.890625 11.167969 29.171875 11.539062 29.320312 C 11.8125 29.371094 12.085938 29.425781 12.355469 29.488281 C 12.367188 29.757812 12.441406 30.015625 12.570312 30.253906 C 12.78125 30.460938 12.988281 30.671875 13.195312 30.878906 C 13.226562 30.921875 13.21875 30.964844 13.171875 31 C 12.253906 31.210938 11.328125 31.363281 10.390625 31.453125 C 9.675781 31.375 9.171875 31.003906 8.878906 30.351562 C 8.820312 30.089844 8.867188 29.847656 9.019531 29.628906 C 9.222656 29.347656 9.472656 29.117188 9.765625 28.933594 C 10.128906 28.757812 10.496094 28.605469 10.867188 28.480469 Z M 10.867188 28.480469 "/>
<path style=" stroke:none;fill-rule:evenodd;fill:rgb(82.745098%,82.745098%,82.745098%);fill-opacity:1;" d="M 12.789062 29.628906 C 12.84375 29.644531 12.875 29.683594 12.882812 29.75 C 12.875 29.789062 12.867188 29.832031 12.859375 29.871094 C 12.800781 29.804688 12.773438 29.722656 12.789062 29.628906 Z M 12.789062 29.628906 "/>
</g>
</svg>
