<?xml version="1.0" encoding="UTF-8"?>
<svg xmlns="http://www.w3.org/2000/svg" xmlns:xlink="http://www.w3.org/1999/xlink" width="50pt" height="50pt" viewBox="0 0 50 50" version="1.1">
<defs>
<filter id="alpha" filterUnits="objectBoundingBox" x="0%" y="0%" width="100%" height="100%">
  <feColorMatrix type="matrix" in="SourceGraphic" values="0 0 0 0 1 0 0 0 0 1 0 0 0 0 1 0 0 0 1 0"/>
</filter>
<mask id="mask0">
  <g filter="url(#alpha)">
<rect x="0" y="0" width="50" height="50" style="fill:rgb(0%,0%,0%);fill-opacity:0.941176;stroke:none;"/>
  </g>
</mask>
<clipPath id="clip1">
  <rect width="50" height="50"/>
</clipPath>
<g id="surface6" clip-path="url(#clip1)">
<path style=" stroke:none;fill-rule:evenodd;fill:rgb(3.529412%,3.137255%,3.137255%);fill-opacity:1;" d="M 36.730469 9.140625 C 36.53125 9.269531 36.324219 9.386719 36.109375 9.5 C 35.648438 9.644531 35.183594 9.644531 34.71875 9.5 C 34.453125 9.410156 34.195312 9.304688 33.949219 9.1875 C 33.726562 8.964844 33.484375 8.757812 33.230469 8.566406 C 33.324219 8.804688 33.421875 9.046875 33.515625 9.285156 C 33.492188 9.289062 33.476562 9.304688 33.46875 9.332031 C 33.585938 9.625 33.640625 9.929688 33.636719 10.246094 C 33.691406 11.015625 33.597656 11.765625 33.347656 12.5 C 33.234375 12.9375 33.097656 13.371094 32.941406 13.796875 C 33.238281 13.84375 33.527344 13.925781 33.804688 14.035156 C 34.152344 14.375 34.3125 14.792969 34.285156 15.28125 C 34.226562 15.597656 34.070312 15.84375 33.804688 16.027344 C 33.523438 16.253906 33.21875 16.449219 32.894531 16.601562 C 32.480469 16.617188 32.078125 16.542969 31.695312 16.386719 C 31.441406 16.199219 31.199219 15.988281 30.972656 15.761719 C 30.859375 15.582031 30.753906 15.390625 30.664062 15.1875 C 30.414062 15.429688 30.117188 15.519531 29.773438 15.449219 C 29.085938 15.289062 28.582031 14.894531 28.261719 14.277344 C 27.949219 13.601562 27.84375 12.914062 27.949219 12.210938 C 28.109375 11.746094 28.394531 11.386719 28.816406 11.132812 C 29.144531 11.085938 29.464844 11.109375 29.773438 11.203125 C 30.214844 11.4375 30.515625 11.789062 30.6875 12.261719 C 30.671875 12.277344 30.652344 12.292969 30.636719 12.308594 C 30.472656 12.085938 30.296875 11.871094 30.109375 11.660156 C 29.898438 11.492188 29.660156 11.402344 29.390625 11.394531 C 28.988281 11.355469 28.703125 11.515625 28.527344 11.875 C 28.496094 11.875 28.480469 11.890625 28.480469 11.925781 C 28.355469 12.058594 28.265625 12.21875 28.214844 12.402344 C 28.191406 12.675781 28.183594 12.949219 28.191406 13.21875 C 28.203125 13.34375 28.234375 13.453125 28.285156 13.554688 C 28.304688 13.738281 28.367188 13.898438 28.480469 14.035156 C 28.8125 14.804688 29.390625 15.171875 30.207031 15.140625 C 30.296875 15.128906 30.363281 15.078125 30.398438 14.996094 C 30.460938 14.996094 30.527344 14.996094 30.589844 14.996094 C 30.554688 14.4375 30.683594 13.925781 30.972656 13.460938 C 31.058594 13.375 31.15625 13.308594 31.261719 13.269531 C 31.433594 13.253906 31.601562 13.269531 31.765625 13.316406 C 31.832031 13.089844 31.761719 12.929688 31.550781 12.835938 C 31.472656 12.703125 31.363281 12.617188 31.214844 12.570312 C 31.019531 12.5 30.828125 12.476562 30.636719 12.5 C 31.117188 12.308594 31.523438 12.421875 31.863281 12.835938 C 31.976562 12.984375 32 13.144531 31.933594 13.316406 C 32.1875 13.398438 32.425781 13.511719 32.652344 13.652344 C 32.9375 12.855469 33.152344 12.039062 33.300781 11.203125 C 33.332031 10.835938 33.332031 10.46875 33.300781 10.101562 C 33.285156 9.84375 33.226562 9.605469 33.132812 9.382812 C 33 8.988281 32.816406 8.621094 32.582031 8.277344 C 32.5625 8.710938 32.539062 9.140625 32.507812 9.574219 C 32.445312 10.824219 31.867188 11.753906 30.78125 12.355469 C 31.050781 12.011719 31.363281 11.675781 31.71875 11.347656 C 32.078125 10.847656 32.261719 10.289062 32.269531 9.667969 C 32.390625 8.9375 32.328125 8.226562 32.078125 7.535156 C 32.144531 7.320312 32.265625 7.277344 32.4375 7.414062 C 32.601562 7.59375 32.742188 7.785156 32.871094 7.988281 C 33.207031 7.398438 33.710938 7.167969 34.382812 7.292969 C 35.457031 7.859375 36.59375 8.265625 37.789062 8.515625 C 37.847656 8.609375 37.832031 8.6875 37.738281 8.757812 C 37.363281 8.792969 37.027344 8.917969 36.730469 9.140625 Z M 36.203125 9.09375 C 35.613281 9.082031 35.019531 9.097656 34.429688 9.140625 C 34.003906 8.902344 33.613281 8.613281 33.253906 8.277344 C 33.242188 8.199219 33.214844 8.128906 33.179688 8.0625 C 33.480469 7.671875 33.863281 7.527344 34.332031 7.628906 C 35.121094 8.066406 35.953125 8.402344 36.828125 8.636719 C 36.613281 8.78125 36.40625 8.933594 36.203125 9.09375 Z M 33.132812 9.382812 C 32.914062 9.40625 32.707031 9.472656 32.507812 9.574219 C 32.539062 9.140625 32.5625 8.710938 32.582031 8.277344 C 32.816406 8.621094 33 8.988281 33.132812 9.382812 Z M 33.230469 8.566406 C 33.484375 8.757812 33.726562 8.964844 33.949219 9.1875 C 33.804688 9.214844 33.660156 9.246094 33.515625 9.285156 C 33.421875 9.046875 33.324219 8.804688 33.230469 8.566406 Z M 29.390625 11.394531 C 29.132812 11.605469 28.847656 11.765625 28.527344 11.875 C 28.703125 11.515625 28.988281 11.355469 29.390625 11.394531 Z M 29.390625 11.394531 "/>
</g>
<mask id="mask1">
  <g filter="url(#alpha)">
<rect x="0" y="0" width="50" height="50" style="fill:rgb(0%,0%,0%);fill-opacity:0.929412;stroke:none;"/>
  </g>
</mask>
<clipPath id="clip2">
  <rect width="50" height="50"/>
</clipPath>
<g id="surface9" clip-path="url(#clip2)">
<path style=" stroke:none;fill-rule:evenodd;fill:rgb(1.568627%,1.176471%,1.176471%);fill-opacity:1;" d="M 24.59375 13.507812 C 24.964844 13.90625 25.1875 14.378906 25.265625 14.921875 C 25.207031 15.636719 24.933594 16.253906 24.449219 16.769531 C 23.84375 17.222656 23.171875 17.535156 22.433594 17.707031 C 22.320312 17.730469 22.210938 17.738281 22.097656 17.730469 C 21.160156 17.695312 20.496094 17.25 20.105469 16.386719 C 19.957031 16.023438 19.867188 15.648438 19.839844 15.257812 C 19.859375 14.765625 19.925781 14.277344 20.035156 13.796875 C 20.03125 13.679688 20.015625 13.566406 19.984375 13.460938 C 19.777344 12.957031 19.632812 12.4375 19.554688 11.898438 C 19.570312 11.410156 19.777344 11.035156 20.175781 10.773438 C 20.222656 10.339844 20.246094 9.90625 20.25 9.476562 C 19.824219 10.398438 19.128906 10.691406 18.164062 10.363281 C 17.332031 10.078125 16.667969 9.574219 16.171875 8.851562 C 16.101562 8.714844 16.085938 8.570312 16.121094 8.421875 C 16.195312 8.347656 16.28125 8.316406 16.386719 8.324219 C 16.597656 8.382812 16.816406 8.414062 17.035156 8.421875 C 17.738281 8.359375 18.441406 8.359375 19.144531 8.421875 C 19.367188 8.382812 19.59375 8.351562 19.816406 8.324219 C 20.207031 8.363281 20.445312 8.570312 20.539062 8.949219 C 20.515625 9.507812 20.492188 10.066406 20.464844 10.628906 C 20.589844 10.640625 20.671875 10.582031 20.707031 10.460938 C 21.023438 10.335938 21.308594 10.382812 21.570312 10.605469 C 21.839844 11.144531 22.191406 11.625 22.625 12.042969 C 23.136719 12.476562 23.679688 12.859375 24.257812 13.195312 C 24.371094 13.300781 24.484375 13.40625 24.59375 13.507812 Z M 19.746094 8.613281 C 19.863281 8.613281 19.972656 8.636719 20.082031 8.683594 C 19.546875 8.804688 19.019531 8.949219 18.5 9.117188 C 18.308594 9.277344 18.332031 9.398438 18.570312 9.476562 C 19.054688 9.277344 19.558594 9.15625 20.082031 9.117188 C 19.914062 9.460938 19.6875 9.765625 19.410156 10.027344 C 19.058594 10.175781 18.707031 10.175781 18.355469 10.027344 C 17.636719 9.789062 17.046875 9.375 16.578125 8.78125 C 16.707031 8.773438 16.832031 8.78125 16.960938 8.804688 C 17.6875 8.667969 18.414062 8.636719 19.144531 8.710938 C 19.359375 8.71875 19.558594 8.6875 19.746094 8.613281 Z M 20.65625 10.917969 C 20.605469 10.96875 20.574219 11.035156 20.5625 11.109375 C 20.515625 11.058594 20.5 10.992188 20.511719 10.917969 C 20.5625 10.917969 20.609375 10.917969 20.65625 10.917969 Z M 20.511719 11.730469 C 20.539062 12.023438 20.59375 12.3125 20.679688 12.597656 C 20.808594 12.964844 20.925781 13.332031 21.042969 13.699219 C 20.8125 13.675781 20.585938 13.628906 20.371094 13.554688 C 20.25 13.152344 20.113281 12.753906 19.960938 12.355469 C 19.867188 12.066406 19.867188 11.78125 19.960938 11.492188 C 20.023438 11.328125 20.125 11.199219 20.273438 11.109375 C 20.34375 11.320312 20.425781 11.527344 20.511719 11.730469 Z M 20.511719 11.730469 "/>
</g>
<mask id="mask2">
  <g filter="url(#alpha)">
<rect x="0" y="0" width="50" height="50" style="fill:rgb(0%,0%,0%);fill-opacity:0.901961;stroke:none;"/>
  </g>
</mask>
<clipPath id="clip3">
  <rect width="50" height="50"/>
</clipPath>
<g id="surface12" clip-path="url(#clip3)">
<path style=" stroke:none;fill-rule:evenodd;fill:rgb(90.980392%,89.411765%,87.058824%);fill-opacity:1;" d="M 36.203125 9.09375 C 36.136719 9.199219 36.042969 9.269531 35.917969 9.308594 C 35.5 9.347656 35.082031 9.332031 34.667969 9.261719 C 34.574219 9.242188 34.492188 9.203125 34.429688 9.140625 C 35.019531 9.097656 35.613281 9.082031 36.203125 9.09375 Z M 36.203125 9.09375 "/>
</g>
<mask id="mask3">
  <g filter="url(#alpha)">
<rect x="0" y="0" width="50" height="50" style="fill:rgb(0%,0%,0%);fill-opacity:0.964706;stroke:none;"/>
  </g>
</mask>
<clipPath id="clip4">
  <rect width="50" height="50"/>
</clipPath>
<g id="surface15" clip-path="url(#clip4)">
<path style=" stroke:none;fill-rule:evenodd;fill:rgb(3.529412%,3.529412%,3.529412%);fill-opacity:1;" d="M 38.941406 9.621094 C 38.644531 10.375 38.246094 11.070312 37.738281 11.707031 C 37.566406 11.738281 37.511719 11.664062 37.570312 11.492188 C 38.058594 10.902344 38.433594 10.246094 38.699219 9.523438 C 38.714844 9.394531 38.75 9.265625 38.796875 9.140625 C 38.953125 9.058594 39.035156 9.105469 39.035156 9.285156 C 39.023438 9.402344 38.992188 9.515625 38.941406 9.621094 Z M 38.941406 9.621094 "/>
</g>
<mask id="mask4">
  <g filter="url(#alpha)">
<rect x="0" y="0" width="50" height="50" style="fill:rgb(0%,0%,0%);fill-opacity:0.996078;stroke:none;"/>
  </g>
</mask>
<clipPath id="clip5">
  <rect width="50" height="50"/>
</clipPath>
<g id="surface18" clip-path="url(#clip5)">
<path style=" stroke:none;fill-rule:evenodd;fill:rgb(94.509804%,92.941176%,90.196078%);fill-opacity:1;" d="M 36.730469 9.140625 C 37.398438 9.21875 38.054688 9.347656 38.699219 9.523438 C 38.433594 10.246094 38.058594 10.902344 37.570312 11.492188 C 37.511719 11.664062 37.566406 11.738281 37.738281 11.707031 C 38.246094 11.070312 38.644531 10.375 38.941406 9.621094 C 41.472656 10.355469 43.351562 11.890625 44.578125 14.226562 C 45.355469 15.859375 45.464844 17.539062 44.914062 19.265625 C 44.730469 19.796875 44.542969 20.324219 44.363281 20.847656 C 43.695312 20.804688 43.175781 21.058594 42.800781 21.617188 C 42.597656 21.914062 42.40625 22.214844 42.226562 22.527344 C 41.984375 22.761719 41.695312 22.90625 41.363281 22.960938 C 40.433594 22.90625 39.679688 23.242188 39.109375 23.96875 C 38.746094 24.917969 38.914062 25.757812 39.609375 26.488281 C 39.769531 26.582031 39.929688 26.679688 40.089844 26.777344 C 40.203125 26.917969 40.316406 27.0625 40.425781 27.207031 C 40.527344 27.234375 40.613281 27.210938 40.691406 27.136719 C 40.90625 27.730469 41.082031 28.339844 41.21875 28.957031 C 41.617188 29.441406 42.089844 29.511719 42.632812 29.175781 C 43.0625 28.875 43.460938 28.539062 43.832031 28.167969 C 44.0625 27.988281 44.320312 27.859375 44.601562 27.78125 C 45.292969 27.734375 45.980469 27.660156 46.664062 27.566406 C 46.9375 28.09375 47.160156 28.636719 47.335938 29.199219 C 47.34375 29.242188 47.328125 29.273438 47.289062 29.292969 C 46.96875 29.421875 46.664062 29.574219 46.378906 29.75 C 46.382812 29.8125 46.414062 29.851562 46.472656 29.871094 C 46.789062 29.734375 47.109375 29.605469 47.433594 29.488281 C 47.855469 31.660156 47.785156 33.820312 47.21875 35.964844 C 46.953125 37.492188 46.226562 38.746094 45.035156 39.730469 C 42.003906 42.074219 38.5625 43.144531 34.71875 42.945312 C 33.320312 42.84375 32.011719 42.460938 30.78125 41.792969 C 28.191406 39.929688 25.421875 38.347656 22.480469 37.042969 C 18.71875 35.488281 14.800781 34.71875 10.722656 34.742188 C 9.855469 34.535156 9.039062 34.199219 8.277344 33.734375 C 5.515625 31.996094 3.476562 29.636719 2.160156 26.65625 C 0.671875 22.574219 1.578125 19.128906 4.871094 16.316406 C 6.914062 14.683594 9.183594 13.453125 11.683594 12.621094 C 13.515625 12.007812 15.355469 11.976562 17.203125 12.523438 C 18.125 12.851562 19.054688 13.164062 19.984375 13.460938 C 20.015625 13.566406 20.03125 13.679688 20.035156 13.796875 C 19.925781 14.277344 19.859375 14.765625 19.839844 15.257812 C 19.867188 15.648438 19.957031 16.023438 20.105469 16.386719 C 20.496094 17.25 21.160156 17.695312 22.097656 17.730469 C 22.527344 18.066406 22.992188 18.109375 23.488281 17.851562 C 23.921875 17.585938 24.242188 17.226562 24.449219 16.769531 C 24.933594 16.253906 25.207031 15.636719 25.265625 14.921875 C 25.1875 14.378906 24.964844 13.90625 24.59375 13.507812 C 25.753906 13.183594 26.875 12.75 27.949219 12.210938 C 27.84375 12.914062 27.949219 13.601562 28.261719 14.277344 C 28.582031 14.894531 29.085938 15.289062 29.773438 15.449219 C 30.117188 15.519531 30.414062 15.429688 30.664062 15.1875 C 30.753906 15.390625 30.859375 15.582031 30.972656 15.761719 C 31.109375 16.089844 31.351562 16.300781 31.695312 16.386719 C 32.078125 16.542969 32.480469 16.617188 32.894531 16.601562 C 33.21875 16.449219 33.523438 16.253906 33.804688 16.027344 C 34.070312 15.84375 34.226562 15.597656 34.285156 15.28125 C 34.5 14.722656 34.339844 14.308594 33.804688 14.035156 C 33.527344 13.925781 33.238281 13.84375 32.941406 13.796875 C 33.097656 13.371094 33.234375 12.9375 33.347656 12.5 C 33.597656 11.765625 33.691406 11.015625 33.636719 10.246094 C 33.640625 9.929688 33.585938 9.625 33.46875 9.332031 C 33.476562 9.304688 33.492188 9.289062 33.515625 9.285156 C 33.660156 9.246094 33.804688 9.214844 33.949219 9.1875 C 34.195312 9.304688 34.453125 9.410156 34.71875 9.5 C 35.183594 9.644531 35.648438 9.644531 36.109375 9.5 C 36.324219 9.386719 36.53125 9.269531 36.730469 9.140625 Z M 36.730469 9.140625 "/>
</g>
<mask id="mask5">
  <g filter="url(#alpha)">
<rect x="0" y="0" width="50" height="50" style="fill:rgb(0%,0%,0%);fill-opacity:0.972549;stroke:none;"/>
  </g>
</mask>
<clipPath id="clip6">
  <rect width="50" height="50"/>
</clipPath>
<g id="surface21" clip-path="url(#clip6)">
<path style=" stroke:none;fill-rule:evenodd;fill:rgb(93.333333%,91.372549%,89.019608%);fill-opacity:1;" d="M 33.132812 9.382812 C 33.226562 9.605469 33.285156 9.84375 33.300781 10.101562 C 33.332031 10.46875 33.332031 10.835938 33.300781 11.203125 C 33.152344 12.039062 32.9375 12.855469 32.652344 13.652344 C 32.425781 13.511719 32.1875 13.398438 31.933594 13.316406 C 32 13.144531 31.976562 12.984375 31.863281 12.835938 C 31.523438 12.421875 31.117188 12.308594 30.636719 12.5 C 30.828125 12.476562 31.019531 12.5 31.214844 12.570312 C 31.363281 12.617188 31.472656 12.703125 31.550781 12.835938 C 31.242188 12.710938 30.921875 12.640625 30.589844 12.621094 C 30.144531 11.929688 29.550781 11.769531 28.816406 12.140625 C 28.695312 12.261719 28.574219 12.378906 28.453125 12.5 C 28.355469 12.648438 28.300781 12.808594 28.285156 12.980469 C 28.253906 13.058594 28.222656 13.140625 28.191406 13.21875 C 28.183594 12.949219 28.191406 12.675781 28.214844 12.402344 C 28.265625 12.21875 28.355469 12.058594 28.480469 11.925781 C 28.511719 11.925781 28.527344 11.910156 28.527344 11.875 C 28.847656 11.765625 29.132812 11.605469 29.390625 11.394531 C 29.660156 11.402344 29.898438 11.492188 30.109375 11.660156 C 30.296875 11.871094 30.472656 12.085938 30.636719 12.308594 C 30.652344 12.292969 30.671875 12.277344 30.6875 12.261719 C 30.515625 11.789062 30.214844 11.4375 29.773438 11.203125 C 30.617188 10.710938 31.449219 10.199219 32.269531 9.667969 C 32.261719 10.289062 32.078125 10.847656 31.71875 11.347656 C 31.363281 11.675781 31.050781 12.011719 30.78125 12.355469 C 31.867188 11.753906 32.445312 10.824219 32.507812 9.574219 C 32.707031 9.472656 32.914062 9.40625 33.132812 9.382812 Z M 33.132812 9.382812 "/>
</g>
<mask id="mask6">
  <g filter="url(#alpha)">
<rect x="0" y="0" width="50" height="50" style="fill:rgb(0%,0%,0%);fill-opacity:0.996078;stroke:none;"/>
  </g>
</mask>
<clipPath id="clip7">
  <rect width="50" height="50"/>
</clipPath>
<g id="surface24" clip-path="url(#clip7)">
<path style=" stroke:none;fill-rule:evenodd;fill:rgb(70.588235%,32.941176%,25.490196%);fill-opacity:1;" d="M 21.617188 17.394531 C 21.652344 17.402344 21.683594 17.394531 21.714844 17.371094 C 21.460938 16.96875 21.324219 16.527344 21.304688 16.050781 C 21.289062 15.441406 21.273438 14.835938 21.257812 14.226562 C 21.246094 14.019531 21.171875 13.84375 21.042969 13.699219 C 20.925781 13.332031 20.808594 12.964844 20.679688 12.597656 C 20.59375 12.3125 20.539062 12.023438 20.511719 11.730469 C 20.578125 11.785156 20.636719 11.847656 20.679688 11.925781 C 20.679688 11.777344 20.648438 11.632812 20.585938 11.492188 C 20.5625 11.367188 20.554688 11.238281 20.5625 11.109375 C 20.574219 11.035156 20.605469 10.96875 20.65625 10.917969 C 20.828125 10.863281 21.003906 10.855469 21.183594 10.890625 C 21.328125 11.121094 21.464844 11.351562 21.59375 11.589844 C 21.765625 11.789062 21.925781 11.996094 22.074219 12.210938 C 22.445312 12.457031 22.789062 12.734375 23.105469 13.050781 C 23.457031 13.277344 23.808594 13.5 24.160156 13.722656 C 24.9375 14.441406 25.039062 15.25 24.472656 16.148438 C 23.730469 17.0625 22.777344 17.476562 21.617188 17.394531 Z M 21.617188 17.394531 "/>
</g>
<mask id="mask7">
  <g filter="url(#alpha)">
<rect x="0" y="0" width="50" height="50" style="fill:rgb(0%,0%,0%);fill-opacity:0.996078;stroke:none;"/>
  </g>
</mask>
<clipPath id="clip8">
  <rect width="50" height="50"/>
</clipPath>
<g id="surface27" clip-path="url(#clip8)">
<path style=" stroke:none;fill-rule:evenodd;fill:rgb(92.54902%,90.980392%,88.235294%);fill-opacity:1;" d="M 20.371094 13.554688 C 20.585938 13.628906 20.8125 13.675781 21.042969 13.699219 C 21.171875 13.84375 21.246094 14.019531 21.257812 14.226562 C 21.273438 14.835938 21.289062 15.441406 21.304688 16.050781 C 21.324219 16.527344 21.460938 16.96875 21.714844 17.371094 C 21.683594 17.394531 21.652344 17.402344 21.617188 17.394531 C 20.953125 17.113281 20.503906 16.636719 20.273438 15.953125 C 20.464844 15.960938 20.65625 15.953125 20.847656 15.929688 C 21.039062 15.824219 21.03125 15.753906 20.824219 15.714844 C 20.613281 15.757812 20.394531 15.773438 20.175781 15.761719 C 20.132812 15.523438 20.125 15.285156 20.152344 15.042969 C 20.289062 15.15625 20.441406 15.234375 20.609375 15.28125 C 20.65625 15.265625 20.6875 15.234375 20.707031 15.1875 C 20.554688 15.089844 20.394531 15.007812 20.226562 14.945312 C 20.175781 14.632812 20.214844 14.328125 20.34375 14.035156 C 20.371094 13.875 20.378906 13.714844 20.371094 13.554688 Z M 20.371094 13.554688 "/>
</g>
<mask id="mask8">
  <g filter="url(#alpha)">
<rect x="0" y="0" width="50" height="50" style="fill:rgb(0%,0%,0%);fill-opacity:0.972549;stroke:none;"/>
  </g>
</mask>
<clipPath id="clip9">
  <rect width="50" height="50"/>
</clipPath>
<g id="surface30" clip-path="url(#clip9)">
<path style=" stroke:none;fill-rule:evenodd;fill:rgb(3.921569%,3.921569%,3.529412%);fill-opacity:1;" d="M 44.363281 20.847656 C 44.605469 20.902344 44.824219 21.015625 45.007812 21.183594 C 45.226562 21.710938 45.554688 22.148438 45.992188 22.503906 C 46.128906 22.597656 46.273438 22.675781 46.425781 22.746094 C 46.953125 22.898438 47.464844 23.089844 47.960938 23.320312 C 48.402344 23.617188 48.761719 23.996094 49.039062 24.449219 C 49.179688 24.792969 49.195312 25.144531 49.089844 25.503906 C 48.855469 26.167969 48.433594 26.671875 47.816406 27.015625 C 47.445312 27.230469 47.058594 27.417969 46.664062 27.566406 C 45.980469 27.660156 45.292969 27.734375 44.601562 27.78125 C 44.320312 27.859375 44.0625 27.988281 43.832031 28.167969 C 43.460938 28.539062 43.0625 28.875 42.632812 29.175781 C 42.089844 29.511719 41.617188 29.441406 41.21875 28.957031 C 41.082031 28.339844 40.90625 27.730469 40.691406 27.136719 C 40.613281 27.210938 40.527344 27.234375 40.425781 27.207031 C 40.316406 27.0625 40.203125 26.917969 40.089844 26.777344 C 39.929688 26.679688 39.769531 26.582031 39.609375 26.488281 C 38.914062 25.757812 38.746094 24.917969 39.109375 23.96875 C 39.679688 23.242188 40.433594 22.90625 41.363281 22.960938 C 41.695312 22.90625 41.984375 22.761719 42.226562 22.527344 C 42.40625 22.214844 42.597656 21.914062 42.800781 21.617188 C 43.175781 21.058594 43.695312 20.804688 44.363281 20.847656 Z M 44.363281 20.847656 "/>
</g>
<mask id="mask9">
  <g filter="url(#alpha)">
<rect x="0" y="0" width="50" height="50" style="fill:rgb(0%,0%,0%);fill-opacity:0.85098;stroke:none;"/>
  </g>
</mask>
<clipPath id="clip10">
  <rect width="50" height="50"/>
</clipPath>
<g id="surface33" clip-path="url(#clip10)">
<path style=" stroke:none;fill-rule:evenodd;fill:rgb(1.568627%,1.568627%,1.176471%);fill-opacity:1;" d="M 47.433594 29.488281 C 47.109375 29.605469 46.789062 29.734375 46.472656 29.871094 C 46.414062 29.851562 46.382812 29.8125 46.378906 29.75 C 46.664062 29.574219 46.96875 29.421875 47.289062 29.292969 C 47.328125 29.273438 47.34375 29.242188 47.335938 29.199219 C 47.851562 28.910156 48.3125 28.550781 48.726562 28.117188 C 48.847656 28.074219 48.941406 28.097656 49.015625 28.191406 C 48.550781 28.703125 48.023438 29.132812 47.433594 29.488281 Z M 47.433594 29.488281 "/>
</g>
</defs>
<g id="surface1">
<use xlink:href="#surface6" mask="url(#mask0)"/>
<use xlink:href="#surface9" mask="url(#mask1)"/>
<use xlink:href="#surface12" mask="url(#mask2)"/>
<use xlink:href="#surface15" mask="url(#mask3)"/>
<use xlink:href="#surface18" mask="url(#mask4)"/>
<use xlink:href="#surface21" mask="url(#mask5)"/>
<use xlink:href="#surface24" mask="url(#mask6)"/>
<path style=" stroke:none;fill-rule:evenodd;fill:rgb(4.313725%,3.921569%,3.921569%);fill-opacity:1;" d="M 38.652344 11.011719 C 38.832031 11.027344 38.886719 11.121094 38.820312 11.300781 C 38.472656 11.964844 38.019531 12.550781 37.453125 13.050781 C 37.210938 13.082031 37.125 12.980469 37.1875 12.738281 C 37.460938 12.46875 37.730469 12.195312 38.003906 11.925781 C 38.246094 11.632812 38.460938 11.328125 38.652344 11.011719 Z M 38.652344 11.011719 "/>
<path style=" stroke:none;fill-rule:evenodd;fill:rgb(77.254902%,47.45098%,39.215686%);fill-opacity:1;" d="M 31.550781 12.835938 C 31.59375 12.945312 31.601562 13.058594 31.574219 13.171875 C 31.464844 13.203125 31.359375 13.234375 31.261719 13.269531 C 31.15625 13.308594 31.058594 13.375 30.972656 13.460938 C 30.78125 13.582031 30.644531 13.757812 30.566406 13.988281 C 30.472656 14.316406 30.417969 14.652344 30.398438 14.996094 C 30.363281 15.078125 30.296875 15.128906 30.207031 15.140625 C 29.992188 15.140625 29.78125 15.097656 29.582031 15.019531 C 29.160156 14.75 28.792969 14.421875 28.480469 14.035156 C 28.367188 13.898438 28.304688 13.738281 28.285156 13.554688 C 28.285156 13.363281 28.285156 13.171875 28.285156 12.980469 C 28.300781 12.808594 28.355469 12.648438 28.453125 12.5 C 28.574219 12.378906 28.695312 12.261719 28.816406 12.140625 C 29.550781 11.769531 30.144531 11.929688 30.589844 12.621094 C 30.921875 12.640625 31.242188 12.710938 31.550781 12.835938 Z M 31.550781 12.835938 "/>
<path style=" stroke:none;fill-rule:evenodd;fill:rgb(87.843137%,83.529412%,80.392157%);fill-opacity:1;" d="M 31.550781 12.835938 C 31.761719 12.929688 31.832031 13.089844 31.765625 13.316406 C 31.601562 13.269531 31.433594 13.253906 31.261719 13.269531 C 31.359375 13.234375 31.464844 13.203125 31.574219 13.171875 C 31.601562 13.058594 31.59375 12.945312 31.550781 12.835938 Z M 31.550781 12.835938 "/>
<path style=" stroke:none;fill-rule:evenodd;fill:rgb(74.901961%,63.921569%,59.607843%);fill-opacity:1;" d="M 28.285156 12.980469 C 28.285156 13.171875 28.285156 13.363281 28.285156 13.554688 C 28.234375 13.453125 28.203125 13.34375 28.191406 13.21875 C 28.222656 13.140625 28.253906 13.058594 28.285156 12.980469 Z M 28.285156 12.980469 "/>
<path style=" stroke:none;fill-rule:evenodd;fill:rgb(5.098039%,3.921569%,3.529412%);fill-opacity:1;" d="M 16.867188 15.714844 C 16.929688 16.027344 17.019531 16.332031 17.128906 16.625 C 17.160156 16.703125 17.199219 16.765625 17.25 16.820312 C 17.25 16.898438 17.25 16.980469 17.25 17.058594 C 17.15625 17.070312 17.085938 17.039062 17.035156 16.960938 C 16.863281 16.390625 16.65625 15.828125 16.410156 15.28125 C 16.210938 14.996094 15.980469 14.742188 15.714844 14.515625 C 15.585938 14.394531 15.449219 14.285156 15.308594 14.179688 C 15.378906 14.324219 15.425781 14.484375 15.449219 14.660156 C 15.46875 14.6875 15.492188 14.703125 15.523438 14.707031 C 16.046875 15.449219 16.535156 16.21875 16.988281 17.011719 C 17.175781 17.25 17.136719 17.433594 16.867188 17.5625 C 16.589844 17.605469 16.335938 17.699219 16.097656 17.851562 C 15.28125 18.039062 14.480469 18.269531 13.699219 18.546875 C 13.488281 18.605469 13.269531 18.652344 13.050781 18.691406 C 12.984375 18.6875 12.929688 18.671875 12.882812 18.640625 C 13.855469 18.21875 14.863281 17.890625 15.90625 17.660156 C 16.203125 17.5 16.507812 17.375 16.820312 17.273438 C 16.417969 16.605469 16.007812 15.941406 15.59375 15.28125 C 15.480469 15.117188 15.34375 14.972656 15.1875 14.851562 C 15.1875 14.757812 15.140625 14.707031 15.042969 14.707031 C 14.691406 14.757812 14.339844 14.8125 13.988281 14.875 C 13.058594 15.105469 12.128906 15.34375 11.203125 15.59375 C 11.082031 15.617188 10.988281 15.671875 10.917969 15.761719 C 11.089844 16.144531 11.289062 16.511719 11.515625 16.867188 C 11.953125 17.519531 12.375 18.171875 12.789062 18.832031 C 12.9375 19.117188 13.097656 19.390625 13.269531 19.648438 C 13.4375 20.027344 13.644531 20.378906 13.890625 20.707031 C 14.003906 20.859375 14.011719 21.019531 13.914062 21.183594 C 13.210938 21.699219 12.4375 22.058594 11.589844 22.265625 C 10.839844 22.371094 10.105469 22.511719 9.382812 22.695312 C 8.011719 21.367188 7.101562 19.769531 6.644531 17.898438 C 6.621094 17.441406 6.726562 17.015625 6.957031 16.625 C 7.535156 15.632812 8.3125 14.824219 9.285156 14.203125 C 10.832031 13.632812 12.429688 13.390625 14.082031 13.484375 C 15.058594 13.769531 15.867188 14.304688 16.507812 15.089844 C 16.652344 15.285156 16.773438 15.496094 16.867188 15.714844 Z M 16.867188 15.714844 "/>
<use xlink:href="#surface27" mask="url(#mask7)"/>
<path style=" stroke:none;fill-rule:evenodd;fill:rgb(89.803922%,87.45098%,84.705882%);fill-opacity:1;" d="M 32.507812 13.890625 C 32.144531 13.6875 31.792969 13.710938 31.453125 13.964844 C 31.195312 14.15625 31.011719 14.40625 30.902344 14.707031 C 30.878906 14.660156 30.871094 14.613281 30.878906 14.5625 C 30.898438 14.277344 30.96875 14.003906 31.09375 13.746094 C 31.34375 13.488281 31.640625 13.433594 31.980469 13.578125 C 32.164062 13.648438 32.339844 13.726562 32.507812 13.820312 C 32.570312 13.851562 32.570312 13.875 32.507812 13.890625 Z M 32.507812 13.890625 "/>
<path style=" stroke:none;fill-rule:evenodd;fill:rgb(93.333333%,91.372549%,88.627451%);fill-opacity:1;" d="M 14.609375 14.035156 C 13.203125 13.988281 11.859375 14.285156 10.582031 14.921875 C 9.597656 15.347656 8.757812 15.960938 8.0625 16.769531 C 7.722656 17.25 7.539062 17.777344 7.507812 18.355469 C 7.296875 18.167969 7.128906 17.941406 7.003906 17.683594 C 6.96875 17.46875 6.984375 17.261719 7.054688 17.058594 C 7.667969 15.886719 8.554688 14.980469 9.71875 14.347656 C 11.148438 13.851562 12.617188 13.660156 14.132812 13.773438 C 14.308594 13.832031 14.46875 13.917969 14.609375 14.035156 Z M 14.609375 14.035156 "/>
<path style=" stroke:none;fill-rule:evenodd;fill:rgb(76.470588%,47.058824%,38.431373%);fill-opacity:1;" d="M 32.507812 13.890625 C 32.410156 14.167969 32.507812 14.304688 32.796875 14.300781 C 33.320312 14.050781 33.695312 14.203125 33.925781 14.753906 C 33.964844 15.015625 33.949219 15.269531 33.878906 15.523438 C 32.828125 16.660156 31.871094 16.578125 31 15.28125 C 30.886719 15.042969 30.84375 14.804688 30.878906 14.5625 C 30.871094 14.613281 30.878906 14.660156 30.902344 14.707031 C 31.011719 14.40625 31.195312 14.15625 31.453125 13.964844 C 31.792969 13.710938 32.144531 13.6875 32.507812 13.890625 Z M 32.507812 13.890625 "/>
<path style=" stroke:none;fill-rule:evenodd;fill:rgb(87.843137%,84.313725%,81.568627%);fill-opacity:1;" d="M 30.972656 13.460938 C 30.683594 13.925781 30.554688 14.4375 30.589844 14.996094 C 30.527344 14.996094 30.460938 14.996094 30.398438 14.996094 C 30.417969 14.652344 30.472656 14.316406 30.566406 13.988281 C 30.644531 13.757812 30.78125 13.582031 30.972656 13.460938 Z M 30.972656 13.460938 "/>
<path style=" stroke:none;fill-rule:evenodd;fill:rgb(76.862745%,47.058824%,38.823529%);fill-opacity:1;" d="M 14.609375 14.035156 C 14.769531 14.128906 14.914062 14.242188 15.042969 14.371094 C 14.945312 14.378906 14.847656 14.40625 14.753906 14.445312 C 14.785156 14.464844 14.816406 14.472656 14.851562 14.46875 C 14.339844 14.515625 13.828125 14.605469 13.316406 14.730469 C 12.382812 14.996094 11.457031 15.261719 10.53125 15.523438 C 11.03125 16.4375 11.574219 17.351562 12.164062 18.257812 C 11.929688 18.347656 11.722656 18.476562 11.539062 18.640625 C 11.367188 18.753906 11.175781 18.824219 10.964844 18.859375 C 10.507812 18.867188 10.0625 18.933594 9.621094 19.050781 C 9.089844 19.101562 8.578125 19.023438 8.085938 18.808594 C 7.871094 18.683594 7.679688 18.53125 7.507812 18.355469 C 7.539062 17.777344 7.722656 17.25 8.0625 16.769531 C 8.757812 15.960938 9.597656 15.347656 10.582031 14.921875 C 11.859375 14.285156 13.203125 13.988281 14.609375 14.035156 Z M 14.609375 14.035156 "/>
<path style=" stroke:none;fill-rule:evenodd;fill:rgb(75.294118%,47.843137%,39.607843%);fill-opacity:1;" d="M 33.804688 14.035156 C 34.339844 14.308594 34.5 14.722656 34.285156 15.28125 C 34.3125 14.792969 34.152344 14.375 33.804688 14.035156 Z M 33.804688 14.035156 "/>
<path style=" stroke:none;fill-rule:evenodd;fill:rgb(86.666667%,84.705882%,81.960784%);fill-opacity:1;" d="M 15.714844 14.515625 C 15.671875 14.601562 15.609375 14.664062 15.523438 14.707031 C 15.492188 14.703125 15.46875 14.6875 15.449219 14.660156 C 15.425781 14.484375 15.378906 14.324219 15.308594 14.179688 C 15.449219 14.285156 15.585938 14.394531 15.714844 14.515625 Z M 15.714844 14.515625 "/>
<path style=" stroke:none;fill-rule:evenodd;fill:rgb(87.843137%,83.529412%,80.392157%);fill-opacity:1;" d="M 15.042969 14.371094 C 15.003906 14.449219 14.941406 14.480469 14.851562 14.46875 C 14.816406 14.472656 14.785156 14.464844 14.753906 14.445312 C 14.847656 14.40625 14.945312 14.378906 15.042969 14.371094 Z M 15.042969 14.371094 "/>
<path style=" stroke:none;fill-rule:evenodd;fill:rgb(86.666667%,83.529412%,80.784314%);fill-opacity:1;" d="M 28.480469 14.035156 C 28.792969 14.421875 29.160156 14.75 29.582031 15.019531 C 29.78125 15.097656 29.992188 15.140625 30.207031 15.140625 C 29.390625 15.171875 28.8125 14.804688 28.480469 14.035156 Z M 28.480469 14.035156 "/>
<path style=" stroke:none;fill-rule:evenodd;fill:rgb(90.980392%,89.019608%,86.27451%);fill-opacity:1;" d="M 15.1875 14.851562 C 14.4375 15.128906 13.6875 15.382812 12.933594 15.617188 C 12.785156 15.601562 12.65625 15.632812 12.546875 15.714844 C 12.003906 15.8125 11.460938 15.828125 10.917969 15.761719 C 10.988281 15.671875 11.082031 15.617188 11.203125 15.59375 C 12.128906 15.34375 13.058594 15.105469 13.988281 14.875 C 14.339844 14.8125 14.691406 14.757812 15.042969 14.707031 C 15.140625 14.707031 15.1875 14.757812 15.1875 14.851562 Z M 15.1875 14.851562 "/>
<path style=" stroke:none;fill-rule:evenodd;fill:rgb(76.078431%,46.666667%,38.431373%);fill-opacity:1;" d="M 15.1875 14.851562 C 15.34375 14.972656 15.480469 15.117188 15.59375 15.28125 C 16.007812 15.941406 16.417969 16.605469 16.820312 17.273438 C 16.507812 17.375 16.203125 17.5 15.90625 17.660156 C 14.863281 17.890625 13.855469 18.21875 12.882812 18.640625 C 12.804688 18.675781 12.769531 18.738281 12.789062 18.832031 C 12.375 18.171875 11.953125 17.519531 11.515625 16.867188 C 11.289062 16.511719 11.089844 16.144531 10.917969 15.761719 C 11.460938 15.828125 12.003906 15.8125 12.546875 15.714844 C 12.257812 16.148438 12.308594 16.539062 12.691406 16.890625 C 13.09375 16.917969 13.304688 16.726562 13.316406 16.316406 C 13.316406 16.003906 13.1875 15.773438 12.933594 15.617188 C 13.6875 15.382812 14.4375 15.128906 15.1875 14.851562 Z M 15.1875 14.851562 "/>
<path style=" stroke:none;fill-rule:evenodd;fill:rgb(6.27451%,3.529412%,2.745098%);fill-opacity:1;" d="M 12.933594 15.617188 C 13.1875 15.773438 13.316406 16.003906 13.316406 16.316406 C 13.304688 16.726562 13.09375 16.917969 12.691406 16.890625 C 12.308594 16.539062 12.257812 16.148438 12.546875 15.714844 C 12.65625 15.632812 12.785156 15.601562 12.933594 15.617188 Z M 12.933594 15.617188 "/>
<path style=" stroke:none;fill-rule:evenodd;fill:rgb(72.156863%,46.27451%,38.431373%);fill-opacity:1;" d="M 30.972656 15.761719 C 31.199219 15.988281 31.441406 16.199219 31.695312 16.386719 C 31.351562 16.300781 31.109375 16.089844 30.972656 15.761719 Z M 30.972656 15.761719 "/>
<path style=" stroke:none;fill-rule:evenodd;fill:rgb(74.901961%,45.882353%,37.647059%);fill-opacity:1;" d="M 12.738281 15.8125 C 13.117188 15.945312 13.222656 16.203125 13.050781 16.578125 C 12.875 16.773438 12.714844 16.757812 12.570312 16.53125 C 12.492188 16.375 12.484375 16.214844 12.546875 16.050781 C 12.644531 15.996094 12.710938 15.917969 12.738281 15.8125 Z M 12.738281 15.8125 "/>
<path style=" stroke:none;fill-rule:evenodd;fill:rgb(5.490196%,3.137255%,2.352941%);fill-opacity:1;" d="M 14.226562 15.859375 C 14.773438 15.820312 14.925781 16.046875 14.683594 16.53125 C 14.429688 16.804688 14.207031 16.785156 14.011719 16.484375 C 14.019531 16.257812 14.09375 16.050781 14.226562 15.859375 Z M 14.226562 15.859375 "/>
<path style=" stroke:none;fill-rule:evenodd;fill:rgb(72.54902%,46.27451%,38.431373%);fill-opacity:1;" d="M 16.867188 15.714844 C 17.085938 16.046875 17.214844 16.414062 17.25 16.820312 C 17.199219 16.765625 17.160156 16.703125 17.128906 16.625 C 17.019531 16.332031 16.929688 16.027344 16.867188 15.714844 Z M 16.867188 15.714844 "/>
<path style=" stroke:none;fill-rule:evenodd;fill:rgb(72.156863%,44.313725%,36.078431%);fill-opacity:1;" d="M 14.324219 16.050781 C 14.585938 16.046875 14.65625 16.160156 14.539062 16.386719 C 14.402344 16.585938 14.28125 16.578125 14.179688 16.363281 C 14.246094 16.269531 14.292969 16.164062 14.324219 16.050781 Z M 14.324219 16.050781 "/>
<path style=" stroke:none;fill-rule:evenodd;fill:rgb(3.529412%,1.960784%,1.568627%);fill-opacity:1;" d="M 15.714844 16.339844 C 16.308594 16.347656 16.460938 16.601562 16.171875 17.105469 C 15.765625 17.316406 15.5 17.203125 15.378906 16.769531 C 15.398438 16.6875 15.421875 16.609375 15.449219 16.53125 C 15.554688 16.484375 15.644531 16.417969 15.714844 16.339844 Z M 15.714844 16.339844 "/>
<path style=" stroke:none;fill-rule:evenodd;fill:rgb(72.54902%,44.313725%,36.078431%);fill-opacity:1;" d="M 15.8125 16.578125 C 16.097656 16.554688 16.183594 16.667969 16.074219 16.914062 C 15.835938 17.121094 15.652344 17.070312 15.523438 16.769531 C 15.636719 16.730469 15.734375 16.664062 15.8125 16.578125 Z M 15.8125 16.578125 "/>
<path style=" stroke:none;fill-rule:evenodd;fill:rgb(69.411765%,33.333333%,26.27451%);fill-opacity:1;" d="M 24.449219 16.769531 C 24.242188 17.226562 23.921875 17.585938 23.488281 17.851562 C 22.992188 18.109375 22.527344 18.066406 22.097656 17.730469 C 22.210938 17.738281 22.320312 17.730469 22.433594 17.707031 C 23.171875 17.535156 23.84375 17.222656 24.449219 16.769531 Z M 24.449219 16.769531 "/>
<path style=" stroke:none;fill-rule:evenodd;fill:rgb(3.921569%,3.921569%,3.529412%);fill-opacity:1;" d="M 39.371094 16.867188 C 39.484375 16.859375 39.597656 16.867188 39.707031 16.890625 C 39.871094 16.972656 40.039062 17.046875 40.210938 17.105469 C 40.128906 17.425781 40.074219 17.753906 40.042969 18.089844 C 40.871094 20.917969 39.925781 22.898438 37.210938 24.039062 C 36.195312 24.386719 35.15625 24.5 34.09375 24.375 C 34.035156 24.332031 33.996094 24.277344 33.972656 24.207031 C 33.957031 23.96875 33.941406 23.726562 33.925781 23.488281 C 33.628906 22.429688 33.644531 21.371094 33.972656 20.320312 C 34.277344 19.746094 34.636719 19.210938 35.054688 18.714844 C 35.289062 18.496094 35.558594 18.335938 35.867188 18.234375 C 36.667969 18.246094 37.449219 18.148438 38.21875 17.945312 C 38.371094 17.878906 38.515625 17.796875 38.652344 17.707031 C 38.867188 17.402344 39.109375 17.121094 39.371094 16.867188 Z M 39.371094 16.867188 "/>
<path style=" stroke:none;fill-rule:evenodd;fill:rgb(72.54902%,45.098039%,36.862745%);fill-opacity:1;" d="M 15.714844 14.515625 C 15.980469 14.742188 16.210938 14.996094 16.410156 15.28125 C 16.65625 15.828125 16.863281 16.390625 17.035156 16.960938 C 17.085938 17.039062 17.15625 17.070312 17.25 17.058594 C 17.335938 17.386719 17.222656 17.601562 16.914062 17.707031 C 15.867188 18.085938 14.796875 18.363281 13.699219 18.546875 C 14.480469 18.269531 15.28125 18.039062 16.097656 17.851562 C 16.335938 17.699219 16.589844 17.605469 16.867188 17.5625 C 17.136719 17.433594 17.175781 17.25 16.988281 17.011719 C 16.535156 16.21875 16.046875 15.449219 15.523438 14.707031 C 15.609375 14.664062 15.671875 14.601562 15.714844 14.515625 Z M 15.714844 14.515625 "/>
<path style=" stroke:none;fill-rule:evenodd;fill:rgb(5.490196%,3.137255%,2.352941%);fill-opacity:1;" d="M 13.652344 17.296875 C 14.125 17.417969 14.203125 17.664062 13.890625 18.042969 C 13.664062 18.113281 13.480469 18.054688 13.339844 17.875 C 13.308594 17.773438 13.316406 17.679688 13.363281 17.585938 C 13.460938 17.488281 13.554688 17.390625 13.652344 17.296875 Z M 13.652344 17.296875 "/>
<path style=" stroke:none;fill-rule:evenodd;fill:rgb(69.803922%,42.745098%,34.901961%);fill-opacity:1;" d="M 13.699219 17.539062 C 13.878906 17.550781 13.933594 17.648438 13.867188 17.828125 C 13.765625 17.929688 13.660156 17.9375 13.554688 17.851562 C 13.597656 17.742188 13.648438 17.640625 13.699219 17.539062 Z M 13.699219 17.539062 "/>
<path style=" stroke:none;fill-rule:evenodd;fill:rgb(76.862745%,47.058824%,38.823529%);fill-opacity:1;" d="M 39.707031 17.683594 C 39.707031 17.875 39.707031 18.066406 39.707031 18.257812 C 39.5625 18.574219 39.480469 18.910156 39.46875 19.265625 C 39.5 19.683594 39.554688 20.101562 39.636719 20.511719 C 39.664062 20.851562 39.65625 21.1875 39.609375 21.519531 C 39.261719 22.230469 38.75 22.796875 38.074219 23.222656 C 37.34375 23.695312 36.546875 23.96875 35.675781 24.039062 C 35.214844 24.0625 34.75 24.070312 34.285156 24.0625 C 34.296875 23.800781 34.265625 23.546875 34.1875 23.296875 C 34.3125 22.6875 34.464844 22.078125 34.644531 21.472656 C 35.007812 20.484375 35.609375 19.679688 36.445312 19.050781 C 37.074219 18.726562 37.730469 18.472656 38.410156 18.28125 C 38.730469 18.058594 39.050781 17.835938 39.371094 17.609375 C 39.5 17.570312 39.613281 17.59375 39.707031 17.683594 Z M 39.707031 17.683594 "/>
<path style=" stroke:none;fill-rule:evenodd;fill:rgb(92.54902%,90.588235%,87.843137%);fill-opacity:1;" d="M 39.707031 17.683594 C 39.613281 17.59375 39.5 17.570312 39.371094 17.609375 C 39.050781 17.835938 38.730469 18.058594 38.410156 18.28125 C 37.730469 18.472656 37.074219 18.726562 36.445312 19.050781 C 35.609375 19.679688 35.007812 20.484375 34.644531 21.472656 C 34.464844 22.078125 34.3125 22.6875 34.1875 23.296875 C 34.027344 22.46875 34.003906 21.636719 34.117188 20.800781 C 34.421875 20.035156 34.859375 19.355469 35.4375 18.761719 C 35.644531 18.585938 35.886719 18.472656 36.15625 18.425781 C 36.996094 18.460938 37.796875 18.300781 38.554688 17.945312 C 38.683594 17.800781 38.84375 17.722656 39.035156 17.707031 C 39.210938 17.59375 39.355469 17.449219 39.46875 17.273438 C 39.578125 17.257812 39.691406 17.265625 39.804688 17.296875 C 39.785156 17.429688 39.753906 17.558594 39.707031 17.683594 Z M 39.707031 17.683594 "/>
<path style=" stroke:none;fill-rule:evenodd;fill:rgb(4.313725%,3.529412%,3.529412%);fill-opacity:1;" d="M 27.757812 21.472656 C 27.726562 21.472656 27.710938 21.488281 27.710938 21.519531 C 27.675781 21.554688 27.640625 21.59375 27.613281 21.640625 C 28.046875 21.664062 28.480469 21.671875 28.910156 21.664062 C 29.566406 21.746094 30.125 22.019531 30.589844 22.480469 C 30.773438 22.84375 30.828125 23.226562 30.757812 23.632812 C 30.628906 24.636719 30.1875 25.476562 29.4375 26.152344 C 28.949219 26.597656 28.402344 26.957031 27.808594 27.230469 C 27.34375 27.34375 26.882812 27.351562 26.414062 27.253906 C 26.078125 27.078125 25.742188 26.902344 25.40625 26.726562 C 25.269531 26.6875 25.140625 26.695312 25.023438 26.75 C 24.941406 26.777344 24.859375 26.820312 24.785156 26.871094 C 24.703125 26.902344 24.625 26.902344 24.542969 26.871094 C 24.113281 26.125 23.734375 25.351562 23.417969 24.542969 C 23.230469 23.832031 23.199219 23.113281 23.320312 22.386719 C 23.480469 21.402344 24 20.683594 24.878906 20.226562 C 25.199219 20.183594 25.519531 20.167969 25.839844 20.175781 C 26.371094 20.21875 26.796875 20.460938 27.109375 20.898438 C 27.195312 21.050781 27.292969 21.195312 27.398438 21.328125 C 27.558594 21.074219 27.628906 20.792969 27.613281 20.488281 C 27.601562 20.222656 27.578125 19.960938 27.542969 19.699219 C 27.46875 19.484375 27.398438 19.277344 27.328125 19.074219 C 27.382812 19.0625 27.429688 19.078125 27.472656 19.121094 C 27.703125 19.453125 27.839844 19.820312 27.878906 20.226562 C 28.171875 19.820312 28.515625 19.460938 28.910156 19.144531 C 29.402344 18.859375 29.882812 18.558594 30.351562 18.234375 C 30.464844 18.101562 30.5625 17.960938 30.636719 17.800781 C 30.753906 17.757812 30.816406 17.796875 30.832031 17.921875 C 30.605469 18.652344 30.390625 19.386719 30.183594 20.128906 C 29.839844 20.9375 29.253906 21.183594 28.429688 20.875 C 28.261719 20.796875 28.101562 20.710938 27.949219 20.609375 C 27.917969 20.90625 27.851562 21.191406 27.757812 21.472656 Z M 27.757812 21.472656 "/>
<path style=" stroke:none;fill-rule:evenodd;fill:rgb(92.54902%,90.588235%,87.843137%);fill-opacity:1;" d="M 7.558594 18.832031 C 7.589844 18.976562 7.613281 19.121094 7.628906 19.265625 C 7.777344 19.378906 7.945312 19.449219 8.132812 19.480469 C 8.613281 19.535156 9.074219 19.492188 9.523438 19.363281 C 10.039062 19.1875 10.566406 19.082031 11.109375 19.050781 C 11.484375 18.914062 11.859375 18.777344 12.234375 18.640625 C 12.359375 18.675781 12.414062 18.757812 12.402344 18.882812 C 11.824219 19.347656 11.171875 19.660156 10.4375 19.816406 C 9.601562 20.042969 8.761719 20.082031 7.917969 19.9375 C 8.226562 20.703125 8.699219 21.359375 9.332031 21.90625 C 9.464844 22.0625 9.609375 22.214844 9.765625 22.359375 C 9.660156 22.425781 9.546875 22.441406 9.429688 22.410156 C 8.167969 21.140625 7.296875 19.644531 6.8125 17.921875 C 6.863281 18.019531 6.910156 18.113281 6.957031 18.210938 C 7.167969 18.410156 7.367188 18.621094 7.558594 18.832031 Z M 7.558594 18.832031 "/>
<path style=" stroke:none;fill-rule:evenodd;fill:rgb(89.019608%,86.666667%,83.529412%);fill-opacity:1;" d="M 12.164062 18.257812 C 12.207031 18.308594 12.226562 18.375 12.210938 18.449219 C 11.988281 18.515625 11.765625 18.578125 11.539062 18.640625 C 11.722656 18.476562 11.929688 18.347656 12.164062 18.257812 Z M 12.164062 18.257812 "/>
<path style=" stroke:none;fill-rule:evenodd;fill:rgb(91.764706%,89.411765%,86.666667%);fill-opacity:1;" d="M 39.707031 18.257812 C 39.769531 18.566406 39.859375 18.871094 39.972656 19.167969 C 40.140625 20.003906 40.019531 20.785156 39.609375 21.519531 C 39.65625 21.1875 39.664062 20.851562 39.636719 20.511719 C 39.554688 20.101562 39.5 19.683594 39.46875 19.265625 C 39.480469 18.910156 39.5625 18.574219 39.707031 18.257812 Z M 39.707031 18.257812 "/>
<path style=" stroke:none;fill-rule:evenodd;fill:rgb(90.980392%,89.803922%,87.058824%);fill-opacity:1;" d="M 30.253906 18.546875 C 30.300781 18.542969 30.335938 18.570312 30.351562 18.617188 C 30.203125 19.070312 30.066406 19.527344 29.941406 19.984375 C 29.730469 20.566406 29.324219 20.796875 28.71875 20.679688 C 28.535156 20.597656 28.359375 20.5 28.191406 20.394531 C 28.710938 20.242188 29.207031 20.035156 29.679688 19.769531 C 29.867188 19.65625 29.867188 19.554688 29.679688 19.457031 C 29.210938 19.738281 28.714844 19.941406 28.191406 20.058594 C 28.660156 19.5 29.238281 19.085938 29.917969 18.808594 C 30.039062 18.730469 30.152344 18.640625 30.253906 18.546875 Z M 30.253906 18.546875 "/>
<path style=" stroke:none;fill-rule:evenodd;fill:rgb(6.666667%,6.666667%,6.666667%);fill-opacity:1;" d="M 35.917969 18.691406 C 36.03125 18.699219 36.078125 18.761719 36.058594 18.882812 C 35.996094 19.136719 35.933594 19.136719 35.867188 18.882812 C 35.875 18.8125 35.890625 18.75 35.917969 18.691406 Z M 35.917969 18.691406 "/>
<path style=" stroke:none;fill-rule:evenodd;fill:rgb(76.078431%,47.45098%,39.215686%);fill-opacity:1;" d="M 7.558594 18.832031 C 7.796875 19.023438 8.066406 19.144531 8.375 19.195312 C 8.75 19.296875 9.136719 19.351562 9.523438 19.363281 C 9.074219 19.492188 8.613281 19.535156 8.132812 19.480469 C 7.945312 19.449219 7.777344 19.378906 7.628906 19.265625 C 7.613281 19.121094 7.589844 18.976562 7.558594 18.832031 Z M 7.558594 18.832031 "/>
<path style=" stroke:none;fill-rule:evenodd;fill:rgb(76.470588%,47.058824%,38.431373%);fill-opacity:1;" d="M 12.402344 18.882812 C 12.785156 19.550781 13.195312 20.207031 13.628906 20.847656 C 13.660156 20.910156 13.652344 20.96875 13.605469 21.015625 C 13.492188 21.089844 13.378906 21.160156 13.269531 21.234375 C 13.144531 21.128906 13.03125 21.019531 12.933594 20.898438 C 12.894531 20.910156 12.859375 20.9375 12.835938 20.96875 C 12.914062 21.09375 13.011719 21.207031 13.125 21.304688 C 12.453125 21.753906 11.714844 22.007812 10.917969 22.074219 C 10.734375 21.925781 10.605469 21.742188 10.53125 21.519531 C 10.492188 21.535156 10.460938 21.558594 10.4375 21.59375 C 10.492188 21.800781 10.585938 21.984375 10.722656 22.144531 C 10.472656 22.195312 10.226562 22.261719 9.980469 22.335938 C 9.765625 22.136719 9.5625 21.921875 9.382812 21.6875 C 9.332031 21.660156 9.300781 21.675781 9.285156 21.738281 C 9.308594 21.792969 9.324219 21.847656 9.332031 21.90625 C 8.699219 21.359375 8.226562 20.703125 7.917969 19.9375 C 8.761719 20.082031 9.601562 20.042969 10.4375 19.816406 C 11.171875 19.660156 11.824219 19.347656 12.402344 18.882812 Z M 12.402344 18.882812 "/>
<path style=" stroke:none;fill-rule:evenodd;fill:rgb(5.490196%,4.705882%,4.313725%);fill-opacity:1;" d="M 14.804688 22.671875 C 15.261719 22.496094 15.726562 22.3125 16.195312 22.121094 C 17.605469 21.191406 19.078125 20.359375 20.609375 19.625 C 20.761719 19.476562 20.9375 19.398438 21.136719 19.386719 C 22.238281 22.429688 21.230469 24.414062 18.113281 25.335938 C 17.421875 25.367188 16.796875 25.175781 16.242188 24.761719 C 15.742188 24.371094 15.253906 23.960938 14.777344 23.535156 C 14.59375 23.3125 14.476562 23.054688 14.417969 22.769531 C 14.5 22.554688 14.628906 22.523438 14.804688 22.671875 Z M 14.804688 22.671875 "/>
<path style=" stroke:none;fill-rule:evenodd;fill:rgb(8.235294%,5.098039%,3.921569%);fill-opacity:1;" d="M 37.117188 19.410156 C 37.242188 19.441406 37.320312 19.519531 37.355469 19.648438 C 37.261719 19.835938 37.175781 19.835938 37.09375 19.648438 C 37.0625 19.566406 37.070312 19.484375 37.117188 19.410156 Z M 37.117188 19.410156 "/>
<path style=" stroke:none;fill-rule:evenodd;fill:rgb(12.156863%,11.764706%,11.764706%);fill-opacity:1;" d="M 35.148438 19.554688 C 35.332031 19.5625 35.382812 19.652344 35.292969 19.816406 C 35.101562 19.824219 35.054688 19.734375 35.148438 19.554688 Z M 35.148438 19.554688 "/>
<path style=" stroke:none;fill-rule:evenodd;fill:rgb(92.54902%,90.588235%,87.843137%);fill-opacity:1;" d="M 14.804688 22.671875 C 15.109375 22.652344 15.402344 22.585938 15.691406 22.480469 C 15.996094 22.835938 16.324219 23.179688 16.675781 23.511719 C 17.125 23.917969 17.652344 24.09375 18.257812 24.039062 C 18.914062 23.988281 19.507812 23.773438 20.035156 23.390625 C 20.195312 23.328125 20.304688 23.214844 20.371094 23.054688 C 21.058594 22.054688 21.121094 21.015625 20.5625 19.9375 C 20.703125 19.851562 20.839844 19.753906 20.96875 19.648438 C 21.859375 22.390625 20.921875 24.160156 18.164062 24.953125 C 17.832031 25 17.511719 24.96875 17.203125 24.855469 C 16.855469 24.683594 16.519531 24.492188 16.195312 24.28125 C 15.9375 24.039062 15.664062 23.8125 15.378906 23.609375 C 15.058594 23.371094 14.863281 23.058594 14.804688 22.671875 Z M 14.804688 22.671875 "/>
<path style=" stroke:none;fill-rule:evenodd;fill:rgb(9.411765%,5.882353%,4.705882%);fill-opacity:1;" d="M 36.253906 19.746094 C 36.40625 19.730469 36.453125 19.785156 36.394531 19.914062 C 36.335938 19.9375 36.269531 19.945312 36.203125 19.9375 C 36.203125 19.867188 36.21875 19.804688 36.253906 19.746094 Z M 36.253906 19.746094 "/>
<path style=" stroke:none;fill-rule:evenodd;fill:rgb(74.117647%,47.45098%,39.215686%);fill-opacity:1;" d="M 13.269531 19.648438 C 13.597656 19.929688 13.808594 20.28125 13.890625 20.707031 C 13.644531 20.378906 13.4375 20.027344 13.269531 19.648438 Z M 13.269531 19.648438 "/>
<path style=" stroke:none;fill-rule:evenodd;fill:rgb(88.627451%,86.666667%,83.921569%);fill-opacity:1;" d="M 20.707031 21.472656 C 20.582031 21.046875 20.414062 20.628906 20.203125 20.226562 C 20.167969 20.183594 20.128906 20.152344 20.082031 20.128906 C 20.144531 20.054688 20.222656 20.027344 20.320312 20.058594 C 20.628906 20.476562 20.757812 20.949219 20.707031 21.472656 Z M 20.707031 21.472656 "/>
<path style=" stroke:none;fill-rule:evenodd;fill:rgb(76.470588%,49.411765%,41.176471%);fill-opacity:1;" d="M 25.839844 20.175781 C 25.519531 20.167969 25.199219 20.183594 24.878906 20.226562 C 25.1875 19.988281 25.507812 19.972656 25.839844 20.175781 Z M 25.839844 20.175781 "/>
<path style=" stroke:none;fill-rule:evenodd;fill:rgb(76.078431%,47.058824%,38.431373%);fill-opacity:1;" d="M 20.082031 20.128906 C 20.128906 20.152344 20.167969 20.183594 20.203125 20.226562 C 20.414062 20.628906 20.582031 21.046875 20.707031 21.472656 C 20.652344 21.804688 20.554688 22.125 20.417969 22.433594 C 20.378906 22.449219 20.335938 22.464844 20.296875 22.480469 C 20.164062 22.457031 20.042969 22.402344 19.9375 22.3125 C 19.410156 21.898438 18.898438 21.46875 18.402344 21.015625 C 18.9375 20.671875 19.496094 20.375 20.082031 20.128906 Z M 20.082031 20.128906 "/>
<path style=" stroke:none;fill-rule:evenodd;fill:rgb(76.862745%,47.058824%,38.431373%);fill-opacity:1;" d="M 30.207031 24.449219 C 30.0625 24.703125 29.917969 24.960938 29.773438 25.214844 C 29.214844 26.039062 28.460938 26.625 27.519531 26.96875 C 27.183594 27.0625 26.847656 27.0625 26.511719 26.96875 C 26.128906 26.734375 25.730469 26.542969 25.3125 26.390625 C 25.085938 26.355469 24.886719 26.410156 24.710938 26.558594 C 24.488281 26.238281 24.289062 25.902344 24.113281 25.550781 C 24.117188 24.570312 24.125 23.578125 24.136719 22.578125 C 24.164062 21.953125 24.265625 21.347656 24.449219 20.753906 C 24.582031 20.613281 24.742188 20.511719 24.929688 20.441406 C 25.378906 20.398438 25.828125 20.414062 26.273438 20.488281 C 26.675781 20.734375 27.019531 21.046875 27.304688 21.425781 C 27.246094 21.542969 27.1875 21.671875 27.136719 21.808594 C 27.140625 21.855469 27.15625 21.894531 27.183594 21.929688 C 27.316406 21.976562 27.449219 22 27.589844 22 C 28.128906 21.929688 28.664062 21.9375 29.199219 22.023438 C 29.632812 22.164062 30.007812 22.398438 30.328125 22.722656 C 30.359375 22.785156 30.390625 22.847656 30.421875 22.914062 C 30.476562 23.449219 30.402344 23.960938 30.207031 24.449219 Z M 30.207031 24.449219 "/>
<path style=" stroke:none;fill-rule:evenodd;fill:rgb(7.45098%,4.705882%,3.529412%);fill-opacity:1;" d="M 35.246094 20.707031 C 35.453125 20.738281 35.550781 20.867188 35.53125 21.089844 C 35.339844 21.09375 35.230469 21 35.195312 20.800781 C 35.214844 20.769531 35.230469 20.738281 35.246094 20.707031 Z M 35.246094 20.707031 "/>
<use xlink:href="#surface30" mask="url(#mask8)"/>
<path style=" stroke:none;fill-rule:evenodd;fill:rgb(92.941176%,91.372549%,88.627451%);fill-opacity:1;" d="M 24.449219 20.753906 C 24.265625 21.347656 24.164062 21.953125 24.136719 22.578125 C 24.125 23.578125 24.117188 24.570312 24.113281 25.550781 C 23.382812 24.335938 23.25 23.054688 23.703125 21.714844 C 23.890625 21.34375 24.140625 21.023438 24.449219 20.753906 Z M 24.449219 20.753906 "/>
<path style=" stroke:none;fill-rule:evenodd;fill:rgb(76.078431%,46.666667%,38.039216%);fill-opacity:1;" d="M 18.355469 23.777344 C 18.261719 23.523438 18.230469 23.253906 18.257812 22.960938 C 18.242188 22.335938 18.257812 21.710938 18.304688 21.089844 C 18.8125 21.605469 19.339844 22.089844 19.890625 22.554688 C 20.019531 22.617188 20.144531 22.679688 20.273438 22.746094 C 19.78125 23.351562 19.140625 23.695312 18.355469 23.777344 Z M 18.355469 23.777344 "/>
<path style=" stroke:none;fill-rule:evenodd;fill:rgb(76.078431%,46.666667%,38.039216%);fill-opacity:1;" d="M 18.019531 21.183594 C 18.070312 22.058594 18.070312 22.9375 18.019531 23.824219 C 17.660156 23.839844 17.339844 23.734375 17.058594 23.511719 C 16.636719 23.210938 16.269531 22.851562 15.953125 22.433594 C 16.667969 22.054688 17.355469 21.640625 18.019531 21.183594 Z M 18.019531 21.183594 "/>
<path style=" stroke:none;fill-rule:evenodd;fill:rgb(93.72549%,92.54902%,89.803922%);fill-opacity:1;" d="M 44.265625 21.234375 C 44.21875 21.234375 44.167969 21.234375 44.121094 21.234375 C 43.886719 21.824219 43.710938 22.429688 43.59375 23.054688 C 43.597656 23.101562 43.613281 23.132812 43.640625 23.152344 C 43.121094 23.410156 42.648438 23.746094 42.226562 24.160156 C 41.726562 25.316406 42.085938 26.042969 43.304688 26.34375 C 44.039062 26.421875 44.742188 26.316406 45.417969 26.03125 C 45.773438 26.402344 46.09375 26.804688 46.378906 27.230469 C 46.226562 27.296875 46.066406 27.335938 45.898438 27.351562 C 45.304688 27.367188 44.730469 27.460938 44.167969 27.640625 C 43.992188 27.75 43.816406 27.863281 43.640625 27.976562 C 43.289062 28.296875 42.9375 28.613281 42.585938 28.933594 C 42.320312 29.105469 42.035156 29.167969 41.722656 29.125 C 41.488281 29.035156 41.335938 28.867188 41.265625 28.621094 C 41.152344 28.003906 40.960938 27.414062 40.691406 26.847656 C 40.601562 26.726562 40.515625 26.609375 40.425781 26.488281 C 39.472656 26.058594 39.128906 25.332031 39.394531 24.304688 C 39.644531 23.855469 40.023438 23.558594 40.523438 23.417969 C 41.097656 23.453125 41.644531 23.339844 42.15625 23.082031 C 42.289062 22.996094 42.410156 22.890625 42.515625 22.769531 C 42.761719 22.28125 43.074219 21.84375 43.449219 21.449219 C 43.585938 21.355469 43.730469 21.277344 43.882812 21.210938 C 44.019531 21.171875 44.148438 21.179688 44.265625 21.234375 Z M 44.265625 21.234375 "/>
<path style=" stroke:none;fill-rule:evenodd;fill:rgb(98.823529%,98.823529%,98.823529%);fill-opacity:1;" d="M 44.265625 21.234375 C 44.445312 21.257812 44.597656 21.335938 44.722656 21.472656 C 45.011719 22.179688 45.5 22.699219 46.183594 23.03125 C 46.71875 23.214844 47.246094 23.40625 47.769531 23.609375 C 48.164062 23.910156 48.492188 24.269531 48.753906 24.6875 C 48.839844 24.964844 48.824219 25.234375 48.703125 25.503906 C 48.460938 26.054688 48.066406 26.460938 47.527344 26.726562 C 47.160156 26.9375 46.777344 27.105469 46.378906 27.230469 C 46.09375 26.804688 45.773438 26.402344 45.417969 26.03125 C 45.796875 25.804688 46.109375 25.5 46.351562 25.121094 C 46.609375 24.480469 46.457031 23.960938 45.898438 23.558594 C 45.199219 23.128906 44.449219 22.992188 43.640625 23.152344 C 43.613281 23.132812 43.597656 23.101562 43.59375 23.054688 C 43.710938 22.429688 43.886719 21.824219 44.121094 21.234375 C 44.167969 21.234375 44.21875 21.234375 44.265625 21.234375 Z M 44.265625 21.234375 "/>
<path style=" stroke:none;fill-rule:evenodd;fill:rgb(76.078431%,47.058824%,38.823529%);fill-opacity:1;" d="M 30.589844 22.480469 C 30.125 22.019531 29.566406 21.746094 28.910156 21.664062 C 28.5 21.648438 28.101562 21.601562 27.710938 21.519531 C 27.710938 21.488281 27.726562 21.472656 27.757812 21.472656 C 28.195312 21.402344 28.636719 21.355469 29.078125 21.328125 C 29.925781 21.273438 30.429688 21.660156 30.589844 22.480469 Z M 30.589844 22.480469 "/>
<path style=" stroke:none;fill-rule:evenodd;fill:rgb(7.843137%,4.705882%,3.529412%);fill-opacity:1;" d="M 11.445312 21.378906 C 11.628906 21.4375 11.804688 21.527344 11.972656 21.640625 C 12.011719 21.691406 12.027344 21.746094 12.019531 21.808594 C 11.867188 21.765625 11.722656 21.691406 11.589844 21.59375 C 11.496094 21.550781 11.445312 21.476562 11.445312 21.378906 Z M 11.445312 21.378906 "/>
<path style=" stroke:none;fill-rule:evenodd;fill:rgb(32.156863%,19.607843%,16.078431%);fill-opacity:1;" d="M 27.710938 21.519531 C 28.101562 21.601562 28.5 21.648438 28.910156 21.664062 C 28.480469 21.671875 28.046875 21.664062 27.613281 21.640625 C 27.640625 21.59375 27.675781 21.554688 27.710938 21.519531 Z M 27.710938 21.519531 "/>
<path style=" stroke:none;fill-rule:evenodd;fill:rgb(5.098039%,4.705882%,4.705882%);fill-opacity:1;" d="M 5.636719 22.289062 C 5.71875 22.277344 5.789062 22.292969 5.855469 22.335938 C 6.542969 23.296875 7.230469 24.257812 7.917969 25.214844 C 7.953125 25.332031 7.914062 25.414062 7.796875 25.457031 C 7.71875 25.402344 7.644531 25.335938 7.582031 25.265625 C 6.945312 24.324219 6.289062 23.394531 5.613281 22.480469 C 5.585938 22.414062 5.59375 22.347656 5.636719 22.289062 Z M 5.636719 22.289062 "/>
<path style=" stroke:none;fill-rule:evenodd;fill:rgb(8.235294%,5.098039%,3.921569%);fill-opacity:1;" d="M 38.21875 22.335938 C 38.34375 22.347656 38.382812 22.410156 38.339844 22.527344 C 37.953125 22.871094 37.511719 23.117188 37.019531 23.273438 C 36.875 23.3125 36.730469 23.304688 36.589844 23.25 C 37.230469 23.121094 37.773438 22.816406 38.21875 22.335938 Z M 38.21875 22.335938 "/>
<path style=" stroke:none;fill-rule:evenodd;fill:rgb(4.705882%,4.705882%,4.705882%);fill-opacity:1;" d="M 45.417969 26.03125 C 44.742188 26.316406 44.039062 26.421875 43.304688 26.34375 C 42.085938 26.042969 41.726562 25.316406 42.226562 24.160156 C 42.648438 23.746094 43.121094 23.410156 43.640625 23.152344 C 44.449219 22.992188 45.199219 23.128906 45.898438 23.558594 C 46.457031 23.960938 46.609375 24.480469 46.351562 25.121094 C 46.109375 25.5 45.796875 25.804688 45.417969 26.03125 Z M 45.417969 26.03125 "/>
<path style=" stroke:none;fill-rule:evenodd;fill:rgb(76.078431%,56.078431%,49.803922%);fill-opacity:1;" d="M 20.371094 23.054688 C 20.304688 23.214844 20.195312 23.328125 20.035156 23.390625 C 20.128906 23.265625 20.242188 23.152344 20.371094 23.054688 Z M 20.371094 23.054688 "/>
<path style=" stroke:none;fill-rule:evenodd;fill:rgb(34.509804%,21.176471%,17.254902%);fill-opacity:1;" d="M 18.257812 22.960938 C 18.230469 23.253906 18.261719 23.523438 18.355469 23.777344 C 18.320312 23.820312 18.273438 23.835938 18.210938 23.824219 C 18.195312 23.527344 18.210938 23.238281 18.257812 22.960938 Z M 18.257812 22.960938 "/>
<path style=" stroke:none;fill-rule:evenodd;fill:rgb(98.823529%,98.431373%,98.431373%);fill-opacity:1;" d="M 45.273438 25.792969 C 45.097656 25.792969 44.988281 25.714844 44.9375 25.550781 C 45.378906 25.3125 45.59375 24.945312 45.585938 24.449219 C 45.179688 24.085938 44.707031 23.964844 44.167969 24.089844 C 44.011719 24.144531 43.851562 24.183594 43.691406 24.207031 C 43.648438 24 43.617188 23.792969 43.59375 23.585938 C 43.691406 23.503906 43.800781 23.449219 43.929688 23.417969 C 44.683594 23.304688 45.363281 23.472656 45.96875 23.921875 C 46.285156 24.292969 46.316406 24.695312 46.066406 25.121094 C 45.835938 25.390625 45.570312 25.613281 45.273438 25.792969 Z M 45.273438 25.792969 "/>
<path style=" stroke:none;fill-rule:evenodd;fill:rgb(91.372549%,89.411765%,86.666667%);fill-opacity:1;" d="M 43.59375 23.585938 C 43.617188 23.792969 43.648438 24 43.691406 24.207031 C 43.324219 24.355469 43.011719 24.578125 42.753906 24.878906 C 42.5 25.371094 42.621094 25.730469 43.113281 25.960938 C 43.777344 26.050781 44.382812 25.914062 44.9375 25.550781 C 44.988281 25.714844 45.097656 25.792969 45.273438 25.792969 C 44.523438 26.203125 43.742188 26.277344 42.921875 26.007812 C 42.367188 25.769531 42.125 25.34375 42.203125 24.734375 C 42.570312 24.441406 42.921875 24.113281 43.257812 23.753906 C 43.359375 23.671875 43.46875 23.613281 43.59375 23.585938 Z M 43.59375 23.585938 "/>
<path style=" stroke:none;fill-rule:evenodd;fill:rgb(5.490196%,5.098039%,5.098039%);fill-opacity:1;" d="M 7.703125 23.824219 C 8.117188 23.953125 8.53125 24.089844 8.949219 24.230469 C 9.171875 24.277344 9.394531 24.308594 9.621094 24.328125 C 9.703125 24.382812 9.726562 24.453125 9.691406 24.542969 C 9.203125 24.617188 8.730469 24.542969 8.277344 24.328125 C 8.105469 24.234375 7.929688 24.15625 7.75 24.089844 C 7.648438 24.011719 7.632812 23.925781 7.703125 23.824219 Z M 7.703125 23.824219 "/>
<path style=" stroke:none;fill-rule:evenodd;fill:rgb(77.254902%,47.843137%,39.215686%);fill-opacity:1;" d="M 44.9375 25.550781 C 44.382812 25.914062 43.777344 26.050781 43.113281 25.960938 C 42.621094 25.730469 42.5 25.371094 42.753906 24.878906 C 43.011719 24.578125 43.324219 24.355469 43.691406 24.207031 C 43.851562 24.183594 44.011719 24.144531 44.167969 24.089844 C 44.707031 23.964844 45.179688 24.085938 45.585938 24.449219 C 45.59375 24.945312 45.378906 25.3125 44.9375 25.550781 Z M 44.9375 25.550781 "/>
<path style=" stroke:none;fill-rule:evenodd;fill:rgb(76.078431%,70.980392%,68.235294%);fill-opacity:1;" d="M 30.207031 24.449219 C 30.136719 24.75 29.992188 25.003906 29.773438 25.214844 C 29.917969 24.960938 30.0625 24.703125 30.207031 24.449219 Z M 30.207031 24.449219 "/>
<path style=" stroke:none;fill-rule:evenodd;fill:rgb(73.72549%,46.27451%,38.039216%);fill-opacity:1;" d="M 25.023438 26.75 C 25.140625 26.695312 25.269531 26.6875 25.40625 26.726562 C 25.742188 26.902344 26.078125 27.078125 26.414062 27.253906 C 26.882812 27.351562 27.34375 27.34375 27.808594 27.230469 C 27.433594 27.546875 27 27.652344 26.511719 27.542969 C 26.195312 27.371094 25.890625 27.179688 25.601562 26.96875 C 25.421875 26.855469 25.230469 26.78125 25.023438 26.75 Z M 25.023438 26.75 "/>
<path style=" stroke:none;fill-rule:evenodd;fill:rgb(4.313725%,3.921569%,3.529412%);fill-opacity:1;" d="M 18.355469 30.972656 C 18.308594 30.808594 18.273438 30.640625 18.257812 30.46875 C 18.273438 30.292969 18.320312 30.125 18.402344 29.964844 C 18.453125 29.929688 18.460938 29.882812 18.425781 29.824219 C 17.878906 29.34375 17.277344 28.945312 16.625 28.621094 C 16.097656 28.429688 15.601562 28.171875 15.140625 27.855469 C 15.078125 27.894531 15.046875 27.960938 15.042969 28.046875 C 15.042969 28.121094 15.058594 28.183594 15.089844 28.238281 C 15.109375 28.410156 15.074219 28.570312 14.996094 28.71875 C 15.089844 28.804688 15.152344 28.910156 15.1875 29.03125 C 15.117188 29.179688 15.03125 29.316406 14.921875 29.4375 C 14.890625 29.519531 14.890625 29.597656 14.921875 29.679688 C 15.113281 29.816406 15.3125 29.9375 15.523438 30.039062 C 15.5625 30.089844 15.59375 30.148438 15.617188 30.207031 C 15.613281 30.300781 15.644531 30.382812 15.714844 30.445312 C 15.855469 30.492188 16 30.535156 16.148438 30.566406 C 16.675781 30.625 17.203125 30.699219 17.730469 30.78125 C 17.832031 30.777344 17.925781 30.761719 18.019531 30.734375 C 18.097656 30.734375 18.179688 30.734375 18.257812 30.734375 C 18.257812 30.796875 18.257812 30.863281 18.257812 30.925781 C 17.34375 30.996094 16.449219 30.890625 15.570312 30.613281 C 15.46875 30.515625 15.414062 30.394531 15.402344 30.253906 C 15.351562 30.195312 15.296875 30.148438 15.234375 30.109375 C 15.066406 30.046875 14.914062 29.949219 14.777344 29.824219 C 14.714844 29.683594 14.699219 29.539062 14.730469 29.390625 C 14.867188 29.273438 14.933594 29.128906 14.921875 28.957031 C 14.890625 28.921875 14.851562 28.90625 14.804688 28.910156 C 14.804688 28.5625 14.796875 28.210938 14.777344 27.855469 C 14.8125 27.695312 14.910156 27.597656 15.066406 27.566406 C 15.414062 27.671875 15.722656 27.839844 16.003906 28.070312 C 17.003906 28.449219 17.882812 29.011719 18.640625 29.75 C 18.9375 29.808594 19.160156 29.710938 19.3125 29.460938 C 19.621094 29.363281 19.925781 29.253906 20.226562 29.125 C 20.351562 29.109375 20.480469 29.09375 20.609375 29.078125 C 20.820312 28.957031 21.027344 28.839844 21.234375 28.71875 C 21.375 28.761719 21.464844 28.855469 21.496094 29.007812 C 21.714844 29.183594 21.882812 29.394531 22 29.628906 C 23.121094 29.742188 24.179688 30.070312 25.167969 30.613281 C 25.851562 31.058594 26.523438 31.523438 27.183594 32.003906 C 27.757812 32.5625 28.277344 33.164062 28.742188 33.804688 C 28.992188 34.253906 29.070312 34.734375 28.984375 35.246094 C 28.957031 35.332031 28.902344 35.390625 28.816406 35.414062 C 28.527344 35.441406 28.246094 35.496094 27.976562 35.582031 C 27.96875 35.804688 27.992188 36.03125 28.046875 36.253906 C 28.042969 36.328125 28.027344 36.402344 28 36.46875 C 27.121094 36.789062 26.222656 36.855469 25.3125 36.660156 C 23.902344 36.292969 22.621094 35.667969 21.472656 34.789062 C 21.324219 34.789062 21.183594 34.820312 21.042969 34.886719 C 20.867188 34.917969 20.6875 34.917969 20.511719 34.886719 C 20.34375 34.765625 20.328125 34.628906 20.464844 34.476562 C 20.320312 34.40625 20.179688 34.332031 20.035156 34.261719 C 19.96875 34.148438 19.96875 34.035156 20.035156 33.925781 C 20.175781 33.878906 20.320312 33.839844 20.464844 33.804688 C 20.1875 33.566406 19.898438 33.332031 19.601562 33.109375 C 19.378906 33.09375 19.152344 33.078125 18.929688 33.0625 C 18.867188 33.03125 18.800781 32.996094 18.738281 32.964844 C 18.703125 32.84375 18.6875 32.722656 18.691406 32.605469 C 18.523438 32.523438 18.347656 32.464844 18.164062 32.4375 C 17.996094 32.324219 17.980469 32.195312 18.113281 32.054688 C 18.328125 31.953125 18.550781 31.890625 18.785156 31.863281 C 18.570312 31.601562 18.425781 31.304688 18.355469 30.972656 Z M 18.355469 30.972656 "/>
<path style=" stroke:none;fill-rule:evenodd;fill:rgb(84.313725%,81.960784%,79.215686%);fill-opacity:1;" d="M 15.140625 27.855469 C 15.144531 27.988281 15.128906 28.113281 15.089844 28.238281 C 15.058594 28.183594 15.042969 28.121094 15.042969 28.046875 C 15.046875 27.960938 15.078125 27.894531 15.140625 27.855469 Z M 15.140625 27.855469 "/>
<path style=" stroke:none;fill-rule:evenodd;fill:rgb(76.470588%,47.058824%,38.823529%);fill-opacity:1;" d="M 15.140625 27.855469 C 15.601562 28.171875 16.097656 28.429688 16.625 28.621094 C 17.207031 29.082031 17.796875 29.527344 18.402344 29.964844 C 18.320312 30.125 18.273438 30.292969 18.257812 30.46875 C 18.273438 30.640625 18.308594 30.808594 18.355469 30.972656 C 18.320312 30.957031 18.289062 30.941406 18.257812 30.925781 C 18.257812 30.863281 18.257812 30.796875 18.257812 30.734375 C 18.179688 30.734375 18.097656 30.734375 18.019531 30.734375 C 17.914062 30.632812 17.785156 30.558594 17.632812 30.519531 C 16.957031 30.449219 16.285156 30.34375 15.617188 30.207031 C 15.59375 30.148438 15.5625 30.089844 15.523438 30.039062 C 15.3125 29.9375 15.113281 29.816406 14.921875 29.679688 C 14.890625 29.597656 14.890625 29.519531 14.921875 29.4375 C 15.03125 29.316406 15.117188 29.179688 15.1875 29.03125 C 15.152344 28.910156 15.089844 28.804688 14.996094 28.71875 C 15.074219 28.570312 15.109375 28.410156 15.089844 28.238281 C 15.128906 28.113281 15.144531 27.988281 15.140625 27.855469 Z M 15.140625 27.855469 "/>
<use xlink:href="#surface33" mask="url(#mask9)"/>
<path style=" stroke:none;fill-rule:evenodd;fill:rgb(74.509804%,47.058824%,39.215686%);fill-opacity:1;" d="M 14.804688 28.910156 C 14.851562 28.90625 14.890625 28.921875 14.921875 28.957031 C 14.933594 29.128906 14.867188 29.273438 14.730469 29.390625 C 14.699219 29.539062 14.714844 29.683594 14.777344 29.824219 C 14.914062 29.949219 15.066406 30.046875 15.234375 30.109375 C 14.996094 30.050781 14.765625 29.972656 14.539062 29.871094 C 14.542969 29.527344 14.632812 29.210938 14.804688 28.910156 Z M 14.804688 28.910156 "/>
<path style=" stroke:none;fill-rule:evenodd;fill:rgb(87.058824%,83.921569%,81.176471%);fill-opacity:1;" d="M 16.625 28.621094 C 17.277344 28.945312 17.878906 29.34375 18.425781 29.824219 C 18.460938 29.882812 18.453125 29.929688 18.402344 29.964844 C 17.796875 29.527344 17.207031 29.082031 16.625 28.621094 Z M 16.625 28.621094 "/>
<path style=" stroke:none;fill-rule:evenodd;fill:rgb(90.980392%,89.411765%,86.666667%);fill-opacity:1;" d="M 21.664062 29.535156 C 21.113281 29.550781 20.570312 29.535156 20.035156 29.488281 C 20.28125 29.398438 20.539062 29.328125 20.800781 29.269531 C 20.933594 29.214844 21.054688 29.144531 21.160156 29.054688 C 21.351562 29.1875 21.519531 29.347656 21.664062 29.535156 Z M 21.664062 29.535156 "/>
<path style=" stroke:none;fill-rule:evenodd;fill:rgb(4.313725%,3.921569%,3.529412%);fill-opacity:1;" d="M 40.953125 34.140625 C 39.933594 34.425781 38.894531 34.539062 37.835938 34.476562 C 37.050781 34.539062 36.28125 34.453125 35.53125 34.214844 C 34.9375 34.144531 34.347656 34.066406 33.757812 33.972656 C 33.007812 33.710938 32.257812 33.453125 31.5 33.207031 C 31.457031 33.125 31.441406 33.035156 31.453125 32.941406 C 30.984375 32.847656 30.722656 32.5625 30.664062 32.078125 C 30.648438 30.496094 31.410156 29.496094 32.941406 29.078125 C 33.511719 29.085938 34.054688 29.214844 34.574219 29.460938 C 35.148438 29.480469 35.722656 29.496094 36.300781 29.511719 C 36.867188 29.667969 37.445312 29.796875 38.027344 29.894531 C 38.566406 30.167969 39.109375 30.425781 39.660156 30.664062 C 40.40625 31.234375 41.039062 31.914062 41.554688 32.703125 C 41.652344 33.179688 41.53125 33.605469 41.195312 33.972656 C 41.554688 34.152344 41.859375 34.402344 42.105469 34.71875 C 42.242188 34.496094 42.386719 34.277344 42.539062 34.070312 C 42.242188 34.019531 41.953125 33.9375 41.675781 33.828125 C 41.457031 33.621094 41.492188 33.507812 41.769531 33.492188 C 41.855469 33.609375 41.96875 33.691406 42.105469 33.734375 C 42.394531 33.769531 42.671875 33.824219 42.945312 33.902344 C 42.976562 33.949219 42.976562 33.996094 42.945312 34.046875 C 42.578125 34.304688 42.351562 34.65625 42.273438 35.101562 C 42.164062 35.167969 42.070312 35.152344 41.988281 35.054688 C 41.839844 34.761719 41.640625 34.515625 41.386719 34.308594 C 41.261719 34.199219 41.121094 34.144531 40.953125 34.140625 Z M 40.953125 34.140625 "/>
<path style=" stroke:none;fill-rule:evenodd;fill:rgb(92.941176%,91.372549%,88.627451%);fill-opacity:1;" d="M 34.140625 29.917969 C 33.394531 29.957031 32.671875 30.132812 31.980469 30.445312 C 31.945312 30.554688 31.898438 30.660156 31.835938 30.757812 C 31.726562 30.792969 31.632812 30.769531 31.550781 30.6875 C 31.386719 30.730469 31.265625 30.828125 31.191406 30.972656 C 31.171875 30.964844 31.164062 30.945312 31.167969 30.925781 C 31.261719 30.597656 31.4375 30.316406 31.695312 30.085938 C 31.863281 30.007812 32.007812 29.898438 32.125 29.75 C 32.46875 29.546875 32.835938 29.429688 33.230469 29.390625 C 33.660156 29.359375 33.964844 29.535156 34.140625 29.917969 Z M 34.140625 29.917969 "/>
<path style=" stroke:none;fill-rule:evenodd;fill:rgb(58.039216%,57.254902%,55.294118%);fill-opacity:1;" d="M 20.035156 29.488281 C 20.570312 29.535156 21.113281 29.550781 21.664062 29.535156 C 21.140625 29.589844 20.546875 29.597656 19.890625 29.558594 C 19.9375 29.535156 19.988281 29.511719 20.035156 29.488281 Z M 20.035156 29.488281 "/>
<path style=" stroke:none;fill-rule:evenodd;fill:rgb(92.941176%,90.980392%,88.235294%);fill-opacity:1;" d="M 41.097656 33.421875 C 40.949219 32.976562 40.695312 32.601562 40.332031 32.292969 C 38.625 30.960938 36.691406 30.1875 34.523438 29.964844 C 34.457031 29.871094 34.390625 29.765625 34.332031 29.65625 C 34.347656 29.648438 34.363281 29.636719 34.382812 29.628906 C 34.53125 29.703125 34.691406 29.742188 34.859375 29.75 C 35.355469 29.765625 35.851562 29.78125 36.347656 29.796875 C 36.847656 29.972656 37.359375 30.101562 37.882812 30.183594 C 38.359375 30.460938 38.855469 30.699219 39.371094 30.902344 C 39.554688 31.019531 39.730469 31.144531 39.898438 31.285156 C 40.308594 31.710938 40.699219 32.152344 41.074219 32.605469 C 41.289062 32.875 41.296875 33.148438 41.097656 33.421875 Z M 41.097656 33.421875 "/>
<path style=" stroke:none;fill-rule:evenodd;fill:rgb(93.333333%,91.372549%,88.627451%);fill-opacity:1;" d="M 27.855469 35.195312 C 27.53125 34.386719 27.082031 33.652344 26.511719 32.988281 C 26.546875 32.996094 26.578125 32.988281 26.609375 32.964844 C 26.511719 32.921875 26.417969 32.878906 26.320312 32.84375 C 25.625 32.1875 24.824219 31.683594 23.921875 31.332031 C 23.351562 31.128906 22.777344 30.953125 22.191406 30.804688 C 21.078125 30.589844 19.957031 30.398438 18.832031 30.230469 C 18.773438 30.210938 18.742188 30.171875 18.738281 30.109375 C 18.773438 30.050781 18.789062 29.988281 18.785156 29.917969 C 20.898438 29.539062 22.914062 29.820312 24.832031 30.757812 C 25.914062 31.390625 26.878906 32.167969 27.734375 33.085938 C 28.058594 33.441406 28.347656 33.824219 28.597656 34.238281 C 28.664062 34.519531 28.6875 34.808594 28.671875 35.101562 C 28.398438 35.128906 28.125 35.160156 27.855469 35.195312 Z M 27.855469 35.195312 "/>
<path style=" stroke:none;fill-rule:evenodd;fill:rgb(76.470588%,47.45098%,38.823529%);fill-opacity:1;" d="M 34.140625 29.917969 C 34.234375 30.042969 34.285156 30.1875 34.285156 30.351562 C 34.109375 30.203125 33.996094 30.242188 33.949219 30.46875 C 34.003906 30.644531 34.113281 30.683594 34.285156 30.589844 C 34.269531 31.289062 33.980469 31.839844 33.421875 32.246094 C 33.15625 32.386719 32.882812 32.515625 32.605469 32.628906 C 32.128906 32.742188 31.667969 32.710938 31.214844 32.535156 C 31.109375 32.414062 31.039062 32.277344 31 32.125 C 30.957031 31.894531 30.96875 31.667969 31.023438 31.453125 C 31.003906 31.671875 31.097656 31.746094 31.308594 31.667969 C 31.488281 31.535156 31.488281 31.410156 31.308594 31.285156 C 31.230469 31.261719 31.152344 31.253906 31.070312 31.261719 C 31.066406 31.132812 31.097656 31.023438 31.167969 30.925781 C 31.164062 30.945312 31.171875 30.964844 31.191406 30.972656 C 31.265625 30.828125 31.386719 30.730469 31.550781 30.6875 C 31.632812 30.769531 31.726562 30.792969 31.835938 30.757812 C 31.898438 30.660156 31.945312 30.554688 31.980469 30.445312 C 32.671875 30.132812 33.394531 29.957031 34.140625 29.917969 Z M 34.140625 29.917969 "/>
<path style=" stroke:none;fill-rule:evenodd;fill:rgb(76.470588%,47.058824%,38.431373%);fill-opacity:1;" d="M 34.523438 29.964844 C 36.691406 30.1875 38.625 30.960938 40.332031 32.292969 C 40.695312 32.601562 40.949219 32.976562 41.097656 33.421875 C 40.972656 33.683594 40.765625 33.851562 40.476562 33.925781 C 39.851562 34.011719 39.230469 34.085938 38.605469 34.140625 C 38.203125 34.117188 37.804688 34.09375 37.402344 34.070312 C 37.769531 33.757812 38.074219 33.398438 38.316406 32.988281 C 38.300781 32.941406 38.269531 32.910156 38.21875 32.894531 C 37.863281 33.273438 37.492188 33.652344 37.117188 34.019531 C 36.722656 34.121094 36.335938 34.082031 35.964844 33.902344 C 36.144531 33.773438 36.3125 33.628906 36.46875 33.46875 C 36.496094 33.421875 36.480469 33.390625 36.421875 33.375 C 36.238281 33.492188 36.070312 33.628906 35.917969 33.78125 C 35.84375 33.824219 35.761719 33.847656 35.675781 33.851562 C 35.230469 33.785156 34.78125 33.726562 34.332031 33.683594 C 34.769531 33.4375 35.167969 33.140625 35.53125 32.796875 C 35.519531 32.757812 35.492188 32.726562 35.460938 32.703125 C 35.039062 33.0625 34.589844 33.382812 34.117188 33.660156 C 33.460938 33.425781 32.796875 33.207031 32.125 33.011719 C 32.699219 32.863281 33.242188 32.640625 33.757812 32.339844 C 34.238281 31.917969 34.503906 31.382812 34.550781 30.734375 C 34.582031 30.476562 34.574219 30.21875 34.523438 29.964844 Z M 34.523438 29.964844 "/>
<path style=" stroke:none;fill-rule:evenodd;fill:rgb(76.862745%,47.058824%,38.431373%);fill-opacity:1;" d="M 18.738281 30.109375 C 18.742188 30.171875 18.773438 30.210938 18.832031 30.230469 C 19.957031 30.398438 21.078125 30.589844 22.191406 30.804688 C 22.777344 30.953125 23.351562 31.128906 23.921875 31.332031 C 24.824219 31.683594 25.625 32.1875 26.320312 32.84375 C 25.96875 32.757812 25.632812 32.796875 25.3125 32.964844 C 24.78125 33.5625 24.582031 34.257812 24.710938 35.054688 C 24.804688 35.355469 24.9375 35.636719 25.121094 35.890625 C 25.234375 35.9375 25.300781 35.894531 25.3125 35.773438 C 24.804688 34.9375 24.8125 34.105469 25.335938 33.277344 C 25.507812 33.042969 25.742188 32.929688 26.03125 32.941406 C 26.191406 32.953125 26.351562 32.96875 26.511719 32.988281 C 27.082031 33.652344 27.53125 34.386719 27.855469 35.195312 C 27.761719 35.25 27.6875 35.332031 27.640625 35.4375 C 27.609375 35.699219 27.632812 35.953125 27.710938 36.203125 C 27.488281 36.261719 27.265625 36.316406 27.039062 36.371094 C 26.542969 36.40625 26.046875 36.40625 25.550781 36.371094 C 24.863281 36.195312 24.207031 35.945312 23.585938 35.628906 C 22.929688 35.171875 22.257812 34.742188 21.570312 34.332031 C 21.277344 34.066406 20.992188 33.785156 20.707031 33.492188 C 20.355469 33.257812 20.027344 32.996094 19.722656 32.703125 C 19.402344 32.191406 19.082031 31.679688 18.761719 31.167969 C 18.699219 30.9375 18.644531 30.703125 18.59375 30.46875 C 18.609375 30.332031 18.660156 30.210938 18.738281 30.109375 Z M 18.738281 30.109375 "/>
<path style=" stroke:none;fill-rule:evenodd;fill:rgb(88.627451%,86.666667%,83.921569%);fill-opacity:1;" d="M 15.617188 30.207031 C 16.285156 30.34375 16.957031 30.449219 17.632812 30.519531 C 17.785156 30.558594 17.914062 30.632812 18.019531 30.734375 C 17.925781 30.761719 17.832031 30.777344 17.730469 30.78125 C 17.203125 30.699219 16.675781 30.625 16.148438 30.566406 C 16 30.535156 15.855469 30.492188 15.714844 30.445312 C 15.644531 30.382812 15.613281 30.300781 15.617188 30.207031 Z M 15.617188 30.207031 "/>
<path style=" stroke:none;fill-rule:evenodd;fill:rgb(91.764706%,88.627451%,85.490196%);fill-opacity:1;" d="M 34.285156 30.351562 C 34.285156 30.429688 34.285156 30.511719 34.285156 30.589844 C 34.113281 30.683594 34.003906 30.644531 33.949219 30.46875 C 33.996094 30.242188 34.109375 30.203125 34.285156 30.351562 Z M 34.285156 30.351562 "/>
<path style=" stroke:none;fill-rule:evenodd;fill:rgb(94.117647%,91.372549%,88.627451%);fill-opacity:1;" d="M 32.703125 30.6875 C 32.796875 30.679688 32.894531 30.6875 32.988281 30.710938 C 33.070312 30.875 33.023438 30.984375 32.84375 31.046875 C 32.519531 31.054688 32.472656 30.9375 32.703125 30.6875 Z M 32.703125 30.6875 "/>
<path style=" stroke:none;fill-rule:evenodd;fill:rgb(93.72549%,90.588235%,87.45098%);fill-opacity:1;" d="M 33.804688 31.167969 C 34.058594 31.171875 34.105469 31.277344 33.949219 31.476562 C 33.792969 31.597656 33.699219 31.566406 33.660156 31.382812 C 33.664062 31.277344 33.710938 31.203125 33.804688 31.167969 Z M 33.804688 31.167969 "/>
<path style=" stroke:none;fill-rule:evenodd;fill:rgb(92.941176%,90.196078%,87.058824%);fill-opacity:1;" d="M 31.070312 31.261719 C 31.152344 31.253906 31.230469 31.261719 31.308594 31.285156 C 31.488281 31.410156 31.488281 31.535156 31.308594 31.667969 C 31.097656 31.746094 31.003906 31.671875 31.023438 31.453125 C 31.019531 31.382812 31.035156 31.320312 31.070312 31.261719 Z M 31.070312 31.261719 "/>
<path style=" stroke:none;fill-rule:evenodd;fill:rgb(93.333333%,89.803922%,86.666667%);fill-opacity:1;" d="M 31.835938 31.742188 C 32.023438 31.75 32.070312 31.839844 31.980469 32.003906 C 31.753906 32.007812 31.703125 31.921875 31.835938 31.742188 Z M 31.835938 31.742188 "/>
<path style=" stroke:none;fill-rule:evenodd;fill:rgb(93.72549%,90.196078%,87.45098%);fill-opacity:1;" d="M 32.605469 31.886719 C 32.917969 31.867188 32.996094 31.988281 32.84375 32.246094 C 32.734375 32.351562 32.609375 32.382812 32.460938 32.339844 C 32.398438 32.304688 32.367188 32.246094 32.367188 32.171875 C 32.410156 32.046875 32.492188 31.953125 32.605469 31.886719 Z M 32.605469 31.886719 "/>
<path style=" stroke:none;fill-rule:evenodd;fill:rgb(88.235294%,86.666667%,83.921569%);fill-opacity:1;" d="M 18.691406 31.980469 C 18.804688 31.976562 18.894531 32.023438 18.953125 32.125 C 19.105469 32.375 19.257812 32.621094 19.410156 32.871094 C 19.246094 32.90625 19.085938 32.898438 18.929688 32.84375 C 18.925781 32.726562 18.910156 32.605469 18.882812 32.484375 C 18.6875 32.390625 18.488281 32.320312 18.28125 32.269531 C 18.253906 32.222656 18.261719 32.183594 18.304688 32.148438 C 18.445312 32.105469 18.570312 32.046875 18.691406 31.980469 Z M 18.691406 31.980469 "/>
<path style=" stroke:none;fill-rule:evenodd;fill:rgb(5.098039%,2.745098%,2.352941%);fill-opacity:1;" d="M 26.320312 32.84375 C 26.417969 32.878906 26.511719 32.921875 26.609375 32.964844 C 26.578125 32.988281 26.546875 32.996094 26.511719 32.988281 C 26.351562 32.96875 26.191406 32.953125 26.03125 32.941406 C 25.742188 32.929688 25.507812 33.042969 25.335938 33.277344 C 24.8125 34.105469 24.804688 34.9375 25.3125 35.773438 C 25.300781 35.894531 25.234375 35.9375 25.121094 35.890625 C 24.9375 35.636719 24.804688 35.355469 24.710938 35.054688 C 24.582031 34.257812 24.78125 33.5625 25.3125 32.964844 C 25.632812 32.796875 25.96875 32.757812 26.320312 32.84375 Z M 26.320312 32.84375 "/>
<path style=" stroke:none;fill-rule:evenodd;fill:rgb(88.235294%,86.666667%,83.921569%);fill-opacity:1;" d="M 20.320312 33.996094 C 20.449219 33.988281 20.578125 33.996094 20.707031 34.019531 C 20.882812 34.183594 21.042969 34.359375 21.183594 34.550781 C 21.023438 34.65625 20.847656 34.6875 20.65625 34.644531 C 20.78125 34.570312 20.820312 34.46875 20.777344 34.332031 C 20.582031 34.273438 20.394531 34.183594 20.226562 34.070312 C 20.269531 34.054688 20.300781 34.03125 20.320312 33.996094 Z M 20.320312 33.996094 "/>
<path style=" stroke:none;fill-rule:evenodd;fill:rgb(75.294118%,47.058824%,38.823529%);fill-opacity:1;" d="M 40.953125 34.140625 C 40.683594 34.582031 40.28125 34.796875 39.753906 34.789062 C 39.085938 34.820312 38.449219 34.71875 37.835938 34.476562 C 38.894531 34.539062 39.933594 34.425781 40.953125 34.140625 Z M 40.953125 34.140625 "/>
<path style=" stroke:none;fill-rule:evenodd;fill:rgb(88.235294%,84.705882%,81.568627%);fill-opacity:1;" d="M 21.570312 34.332031 C 22.257812 34.742188 22.929688 35.171875 23.585938 35.628906 C 22.835938 35.308594 22.164062 34.878906 21.570312 34.332031 Z M 21.570312 34.332031 "/>
<path style=" stroke:none;fill-rule:evenodd;fill:rgb(4.313725%,2.352941%,1.568627%);fill-opacity:1;" d="M 27.039062 34.8125 C 27.175781 34.824219 27.320312 34.832031 27.472656 34.835938 C 27.6875 35.085938 27.640625 35.277344 27.328125 35.414062 C 27.089844 35.464844 26.960938 35.367188 26.945312 35.125 C 26.941406 35.007812 26.972656 34.90625 27.039062 34.8125 Z M 27.039062 34.8125 "/>
<path style=" stroke:none;fill-rule:evenodd;fill:rgb(61.176471%,37.647059%,30.588235%);fill-opacity:1;" d="M 27.328125 35.054688 C 27.386719 35.085938 27.386719 35.125 27.328125 35.171875 C 27.261719 35.203125 27.199219 35.203125 27.136719 35.171875 C 27.222656 35.164062 27.285156 35.125 27.328125 35.054688 Z M 27.328125 35.054688 "/>
<path style=" stroke:none;fill-rule:evenodd;fill:rgb(4.313725%,3.921569%,3.921569%);fill-opacity:1;" d="M 28.527344 38.125 C 29.550781 38.101562 30.574219 38.128906 31.597656 38.195312 C 31.929688 38.277344 32.246094 38.390625 32.558594 38.53125 C 32.6875 38.628906 32.6875 38.722656 32.558594 38.820312 C 32.234375 38.738281 31.914062 38.625 31.597656 38.484375 C 31.421875 38.445312 31.246094 38.414062 31.070312 38.386719 C 30.0625 38.363281 29.054688 38.355469 28.046875 38.363281 C 28.046875 38.300781 28.046875 38.234375 28.046875 38.171875 C 28.21875 38.1875 28.375 38.171875 28.527344 38.125 Z M 28.527344 38.125 "/>
<path style=" stroke:none;fill-rule:evenodd;fill:rgb(5.098039%,5.098039%,4.705882%);fill-opacity:1;" d="M 30.925781 39.609375 C 30.992188 39.605469 31.054688 39.613281 31.117188 39.636719 C 31.535156 39.859375 31.949219 40.085938 32.367188 40.308594 C 32.460938 40.515625 32.398438 40.59375 32.171875 40.546875 C 31.765625 40.320312 31.367188 40.078125 30.972656 39.828125 C 30.933594 39.761719 30.914062 39.691406 30.925781 39.609375 Z M 30.925781 39.609375 "/>
</g>
</svg>
