<?xml version="1.0" encoding="UTF-8"?>
<svg xmlns="http://www.w3.org/2000/svg" xmlns:xlink="http://www.w3.org/1999/xlink" width="50pt" height="50pt" viewBox="0 0 50 50" version="1.1">
<defs>
<filter id="alpha" filterUnits="objectBoundingBox" x="0%" y="0%" width="100%" height="100%">
  <feColorMatrix type="matrix" in="SourceGraphic" values="0 0 0 0 1 0 0 0 0 1 0 0 0 0 1 0 0 0 1 0"/>
</filter>
<mask id="mask0">
  <g filter="url(#alpha)">
<rect x="0" y="0" width="50" height="50" style="fill:rgb(0%,0%,0%);fill-opacity:0.980392;stroke:none;"/>
  </g>
</mask>
<clipPath id="clip1">
  <rect width="50" height="50"/>
</clipPath>
<g id="surface6" clip-path="url(#clip1)">
<path style=" stroke:none;fill-rule:evenodd;fill:rgb(7.45098%,14.117647%,14.901961%);fill-opacity:1;" d="M 30.925781 32.941406 C 30.820312 32.8125 30.699219 32.683594 30.566406 32.558594 C 30.296875 33.042969 30 33.503906 29.679688 33.949219 C 27.972656 35.808594 25.863281 36.554688 23.34375 36.179688 C 20.800781 35.761719 18.953125 34.410156 17.800781 32.125 C 17.1875 30.589844 17.03125 29.007812 17.324219 27.375 C 17.699219 25.074219 18.714844 23.117188 20.371094 21.496094 C 22.371094 19.796875 24.675781 19.171875 27.277344 19.625 C 27.65625 19.707031 28.023438 19.8125 28.382812 19.9375 C 28.515625 20.050781 28.667969 20.144531 28.839844 20.226562 C 28.816406 19.910156 28.886719 19.621094 29.054688 19.363281 C 29.160156 19.199219 29.304688 19.078125 29.488281 19 C 30.539062 18.566406 31.628906 18.246094 32.75 18.042969 C 33.054688 18.007812 33.359375 18.023438 33.660156 18.089844 C 33.703125 18.128906 33.742188 18.171875 33.78125 18.210938 C 33.863281 19.441406 33.855469 20.671875 33.757812 21.90625 C 33.570312 23.734375 33.464844 25.574219 33.445312 27.421875 C 33.460938 27.882812 33.574219 28.3125 33.78125 28.71875 C 34.480469 29.316406 35.289062 29.5625 36.203125 29.460938 C 36.800781 29.269531 37.269531 28.910156 37.621094 28.382812 C 37.882812 27.984375 38.125 27.566406 38.339844 27.136719 C 38.457031 26.402344 38.546875 25.667969 38.605469 24.929688 C 38.664062 24.242188 38.710938 23.554688 38.746094 22.863281 C 38.824219 19.140625 37.273438 16.332031 34.09375 14.445312 C 31.324219 13.003906 28.414062 12.621094 25.359375 13.292969 C 23.449219 13.757812 21.675781 14.527344 20.035156 15.59375 C 18.773438 16.429688 17.605469 17.382812 16.53125 18.449219 C 14.8125 20.128906 13.347656 22 12.140625 24.0625 C 11.222656 25.746094 10.664062 27.535156 10.460938 29.4375 C 10.253906 33.371094 11.796875 36.394531 15.089844 38.507812 C 16.667969 39.570312 18.410156 40.203125 20.320312 40.402344 C 22.382812 40.558594 24.398438 40.316406 26.367188 39.683594 C 27.957031 39.183594 29.460938 38.503906 30.878906 37.644531 C 31.574219 37.257812 32.246094 36.832031 32.894531 36.371094 C 33.308594 36.121094 33.613281 36.214844 33.804688 36.660156 C 35.097656 36.6875 35.855469 37.332031 36.085938 38.605469 C 36.207031 39.597656 35.949219 40.476562 35.316406 41.242188 C 34.546875 42.09375 33.671875 42.820312 32.703125 43.425781 C 29.609375 45.242188 26.269531 46.21875 22.671875 46.351562 C 19.464844 46.539062 16.347656 46.105469 13.316406 45.058594 C 12.085938 44.609375 10.933594 44.027344 9.859375 43.304688 C 5.605469 40.398438 3.277344 36.351562 2.878906 31.167969 C 2.804688 29.8125 2.875 28.46875 3.09375 27.136719 C 3.480469 24.621094 4.320312 22.269531 5.613281 20.082031 C 8.382812 15.535156 12.101562 11.992188 16.769531 9.453125 C 20.957031 7.183594 25.4375 6.085938 30.207031 6.167969 C 32.957031 6.117188 35.613281 6.585938 38.171875 7.582031 C 41.074219 8.882812 43.175781 10.988281 44.480469 13.890625 C 46.230469 18.054688 46.292969 22.246094 44.671875 26.464844 C 43.597656 29.234375 41.828125 31.449219 39.371094 33.109375 C 37.675781 34.167969 35.835938 34.570312 33.851562 34.308594 C 32.75 34.109375 31.773438 33.652344 30.925781 32.941406 Z M 44.503906 22.242188 C 44.199219 18.214844 42.632812 14.785156 39.804688 11.949219 C 38.125 10.492188 36.191406 9.535156 33.996094 9.070312 C 30.402344 8.308594 26.820312 8.375 23.25 9.261719 C 19.238281 10.226562 15.574219 11.914062 12.261719 14.324219 C 15.085938 11.667969 18.351562 9.710938 22.050781 8.445312 C 26.300781 7.222656 30.601562 7 34.957031 7.773438 C 39.550781 8.753906 42.566406 11.480469 44 15.953125 C 44.628906 18.019531 44.796875 20.117188 44.503906 22.242188 Z M 12.261719 14.324219 C 12.207031 14.421875 12.128906 14.488281 12.019531 14.515625 C 12.070312 14.414062 12.152344 14.351562 12.261719 14.324219 Z M 32.894531 19.746094 C 32.621094 19.53125 32.332031 19.335938 32.03125 19.167969 C 32.351562 19.117188 32.671875 19.050781 32.988281 18.976562 C 32.992188 19.230469 32.957031 19.484375 32.894531 19.746094 Z M 26.511719 20.5625 C 27.007812 20.601562 27.488281 20.710938 27.949219 20.898438 C 27.957031 20.980469 27.949219 21.058594 27.925781 21.136719 C 27.464844 20.910156 26.992188 20.71875 26.511719 20.5625 Z M 25.839844 24.785156 C 26.007812 24.976562 26.21875 25.023438 26.464844 24.929688 C 26.6875 25.007812 26.910156 25.089844 27.136719 25.167969 C 27.257812 25.507812 27.332031 25.859375 27.351562 26.222656 C 27.378906 26.945312 27.371094 27.664062 27.328125 28.382812 C 26.601562 29.523438 25.578125 29.929688 24.257812 29.605469 C 23.628906 29.273438 23.269531 28.753906 23.175781 28.046875 C 23.03125 26.808594 23.457031 25.824219 24.449219 25.097656 C 24.882812 24.867188 25.347656 24.765625 25.839844 24.785156 Z M 10.054688 25.648438 C 9.195312 27.855469 8.960938 30.125 9.355469 32.460938 C 9.800781 34.535156 10.769531 36.308594 12.261719 37.789062 C 9.210938 36.714844 7.796875 34.554688 8.011719 31.308594 C 8.261719 29.261719 8.941406 27.371094 10.054688 25.648438 Z M 20.800781 33.996094 C 21.839844 34.632812 22.960938 35.046875 24.160156 35.246094 C 22.894531 35.195312 21.773438 34.78125 20.800781 33.996094 Z M 32.84375 41.960938 C 33.324219 40.617188 33.082031 39.417969 32.125 38.363281 C 32.59375 38.023438 33.074219 37.703125 33.566406 37.402344 C 33.8125 38.109375 33.957031 38.839844 33.996094 39.585938 C 33.988281 40.570312 33.605469 41.363281 32.84375 41.960938 Z M 29.679688 43.59375 C 27.683594 44.421875 25.605469 44.925781 23.441406 45.105469 C 20.980469 45.324219 18.546875 45.171875 16.148438 44.648438 C 19.214844 44.832031 22.269531 44.710938 25.3125 44.289062 C 26.773438 44.089844 28.230469 43.855469 29.679688 43.59375 Z M 29.679688 43.59375 "/>
</g>
<mask id="mask1">
  <g filter="url(#alpha)">
<rect x="0" y="0" width="50" height="50" style="fill:rgb(0%,0%,0%);fill-opacity:0.996078;stroke:none;"/>
  </g>
</mask>
<clipPath id="clip2">
  <rect width="50" height="50"/>
</clipPath>
<g id="surface9" clip-path="url(#clip2)">
<path style=" stroke:none;fill-rule:evenodd;fill:rgb(94.509804%,92.941176%,90.196078%);fill-opacity:1;" d="M 44.503906 22.242188 C 44.316406 24.066406 43.765625 25.777344 42.851562 27.375 C 41.761719 29.253906 40.347656 30.84375 38.605469 32.148438 C 37.710938 32.746094 36.734375 33.148438 35.675781 33.347656 C 34.292969 33.511719 33.0625 33.160156 31.980469 32.292969 C 31.597656 31.941406 31.214844 31.589844 30.832031 31.238281 C 30.605469 31.222656 30.382812 31.238281 30.160156 31.285156 C 30.089844 31.308594 30.035156 31.347656 29.992188 31.40625 C 29.316406 32.628906 28.398438 33.628906 27.230469 34.40625 C 26.292969 34.992188 25.269531 35.269531 24.160156 35.246094 C 22.960938 35.046875 21.839844 34.632812 20.800781 33.996094 C 20.800781 33.964844 20.785156 33.949219 20.753906 33.949219 C 20.738281 33.910156 20.703125 33.894531 20.65625 33.902344 C 20.65625 33.871094 20.640625 33.851562 20.609375 33.851562 C 19.316406 32.769531 18.570312 31.378906 18.378906 29.679688 C 18.261719 28.007812 18.613281 26.4375 19.433594 24.976562 C 20.449219 23.160156 21.894531 21.808594 23.777344 20.921875 C 24.574219 20.585938 25.40625 20.449219 26.273438 20.511719 C 26.339844 20.558594 26.417969 20.574219 26.511719 20.5625 C 26.992188 20.71875 27.464844 20.910156 27.925781 21.136719 C 27.949219 21.058594 27.957031 20.980469 27.949219 20.898438 C 28.417969 21.089844 28.851562 21.347656 29.246094 21.664062 C 29.40625 22.136719 29.589844 22.601562 29.796875 23.054688 C 29.925781 23.183594 30.054688 23.183594 30.183594 23.054688 C 30.199219 22.898438 30.214844 22.738281 30.230469 22.578125 C 30.480469 22.792969 30.648438 22.734375 30.734375 22.410156 C 30.570312 21.90625 30.304688 21.46875 29.941406 21.089844 C 29.835938 20.761719 29.789062 20.425781 29.796875 20.082031 C 30.03125 19.832031 30.308594 19.648438 30.636719 19.53125 C 31.085938 19.347656 31.550781 19.226562 32.03125 19.167969 C 32.332031 19.335938 32.621094 19.53125 32.894531 19.746094 C 32.535156 22.4375 32.351562 25.140625 32.339844 27.855469 C 32.460938 29.285156 33.171875 30.285156 34.476562 30.855469 C 35.3125 31.0625 36.097656 30.933594 36.828125 30.46875 C 38.09375 29.605469 38.980469 28.445312 39.492188 26.992188 C 39.539062 26.78125 39.496094 26.589844 39.371094 26.414062 C 39.394531 25.753906 39.464844 25.097656 39.585938 24.449219 C 39.898438 21.75 39.421875 19.207031 38.148438 16.820312 C 36.800781 14.65625 34.90625 13.191406 32.460938 12.429688 C 28.933594 11.367188 25.492188 11.605469 22.144531 13.148438 C 19.054688 14.636719 16.375 16.675781 14.109375 19.265625 C 12.859375 20.660156 11.789062 22.179688 10.890625 23.824219 C 10.613281 24.394531 10.351562 24.972656 10.101562 25.550781 C 10.0625 25.566406 10.042969 25.601562 10.054688 25.648438 C 8.941406 27.371094 8.261719 29.261719 8.011719 31.308594 C 7.796875 34.554688 9.210938 36.714844 12.261719 37.789062 C 15.402344 40.726562 19.128906 41.964844 23.441406 41.507812 C 25.511719 41.25 27.492188 40.6875 29.390625 39.828125 C 30.320312 39.367188 31.234375 38.878906 32.125 38.363281 C 33.082031 39.417969 33.324219 40.617188 32.84375 41.960938 C 32.789062 42.054688 32.710938 42.128906 32.605469 42.179688 C 32.132812 42.421875 31.671875 42.679688 31.214844 42.945312 C 30.714844 43.207031 30.203125 43.421875 29.679688 43.59375 C 28.230469 43.855469 26.773438 44.089844 25.3125 44.289062 C 22.269531 44.710938 19.214844 44.832031 16.148438 44.648438 C 16.082031 44.648438 16.019531 44.648438 15.953125 44.648438 C 13.035156 44.085938 10.460938 42.828125 8.230469 40.882812 C 4.804688 37.527344 3.40625 33.457031 4.03125 28.671875 C 4.453125 25.996094 5.332031 23.484375 6.667969 21.136719 C 8.011719 18.765625 9.683594 16.652344 11.683594 14.804688 C 11.765625 14.738281 11.84375 14.675781 11.925781 14.609375 C 11.957031 14.609375 11.972656 14.59375 11.972656 14.5625 C 12.003906 14.5625 12.019531 14.546875 12.019531 14.515625 C 12.128906 14.488281 12.207031 14.421875 12.261719 14.324219 C 15.574219 11.914062 19.238281 10.226562 23.25 9.261719 C 26.820312 8.375 30.402344 8.308594 33.996094 9.070312 C 36.191406 9.535156 38.125 10.492188 39.804688 11.949219 C 42.632812 14.785156 44.199219 18.214844 44.503906 22.242188 Z M 32.894531 19.746094 C 32.621094 19.53125 32.332031 19.335938 32.03125 19.167969 C 32.351562 19.117188 32.671875 19.050781 32.988281 18.976562 C 32.992188 19.230469 32.957031 19.484375 32.894531 19.746094 Z M 26.511719 20.5625 C 27.007812 20.601562 27.488281 20.710938 27.949219 20.898438 C 27.957031 20.980469 27.949219 21.058594 27.925781 21.136719 C 27.464844 20.910156 26.992188 20.71875 26.511719 20.5625 Z M 25.839844 24.785156 C 26.007812 24.976562 26.21875 25.023438 26.464844 24.929688 C 26.6875 25.007812 26.910156 25.089844 27.136719 25.167969 C 27.257812 25.507812 27.332031 25.859375 27.351562 26.222656 C 27.378906 26.945312 27.371094 27.664062 27.328125 28.382812 C 26.601562 29.523438 25.578125 29.929688 24.257812 29.605469 C 23.628906 29.273438 23.269531 28.753906 23.175781 28.046875 C 23.03125 26.808594 23.457031 25.824219 24.449219 25.097656 C 24.882812 24.867188 25.347656 24.765625 25.839844 24.785156 Z M 20.800781 33.996094 C 21.839844 34.632812 22.960938 35.046875 24.160156 35.246094 C 22.894531 35.195312 21.773438 34.78125 20.800781 33.996094 Z M 20.800781 33.996094 "/>
</g>
<mask id="mask2">
  <g filter="url(#alpha)">
<rect x="0" y="0" width="50" height="50" style="fill:rgb(0%,0%,0%);fill-opacity:0.972549;stroke:none;"/>
  </g>
</mask>
<clipPath id="clip3">
  <rect width="50" height="50"/>
</clipPath>
<g id="surface12" clip-path="url(#clip3)">
<path style=" stroke:none;fill-rule:evenodd;fill:rgb(94.117647%,92.54902%,89.803922%);fill-opacity:1;" d="M 38.746094 22.863281 C 38.503906 20.671875 37.730469 18.6875 36.421875 16.914062 C 35.726562 16.019531 34.839844 15.40625 33.757812 15.066406 C 32.09375 14.585938 30.398438 14.410156 28.671875 14.539062 C 24.246094 14.714844 20.199219 16.019531 16.53125 18.449219 C 17.605469 17.382812 18.773438 16.429688 20.035156 15.59375 C 21.675781 14.527344 23.449219 13.757812 25.359375 13.292969 C 28.414062 12.621094 31.324219 13.003906 34.09375 14.445312 C 37.273438 16.332031 38.824219 19.140625 38.746094 22.863281 Z M 38.746094 22.863281 "/>
</g>
<mask id="mask3">
  <g filter="url(#alpha)">
<rect x="0" y="0" width="50" height="50" style="fill:rgb(0%,0%,0%);fill-opacity:0.886275;stroke:none;"/>
  </g>
</mask>
<clipPath id="clip4">
  <rect width="50" height="50"/>
</clipPath>
<g id="surface15" clip-path="url(#clip4)">
<path style=" stroke:none;fill-rule:evenodd;fill:rgb(90.588235%,89.411765%,86.666667%);fill-opacity:1;" d="M 29.054688 19.363281 C 28.886719 19.621094 28.816406 19.910156 28.839844 20.226562 C 28.667969 20.144531 28.515625 20.050781 28.382812 19.9375 C 28.5625 19.695312 28.785156 19.5 29.054688 19.363281 Z M 29.054688 19.363281 "/>
</g>
<mask id="mask4">
  <g filter="url(#alpha)">
<rect x="0" y="0" width="50" height="50" style="fill:rgb(0%,0%,0%);fill-opacity:0.972549;stroke:none;"/>
  </g>
</mask>
<clipPath id="clip5">
  <rect width="50" height="50"/>
</clipPath>
<g id="surface18" clip-path="url(#clip5)">
<path style=" stroke:none;fill-rule:evenodd;fill:rgb(93.333333%,92.156863%,89.411765%);fill-opacity:1;" d="M 33.757812 21.90625 C 33.777344 22.535156 33.792969 23.167969 33.804688 23.800781 C 33.785156 24.609375 33.761719 25.417969 33.734375 26.222656 C 33.917969 27.433594 34.613281 28 35.820312 27.925781 C 36.78125 27.671875 37.523438 27.117188 38.050781 26.273438 C 38.277344 25.835938 38.460938 25.386719 38.605469 24.929688 C 38.546875 25.667969 38.457031 26.402344 38.339844 27.136719 C 38.125 27.566406 37.882812 27.984375 37.621094 28.382812 C 37.269531 28.910156 36.800781 29.269531 36.203125 29.460938 C 35.289062 29.5625 34.480469 29.316406 33.78125 28.71875 C 33.574219 28.3125 33.460938 27.882812 33.445312 27.421875 C 33.464844 25.574219 33.570312 23.734375 33.757812 21.90625 Z M 33.757812 21.90625 "/>
</g>
<mask id="mask5">
  <g filter="url(#alpha)">
<rect x="0" y="0" width="50" height="50" style="fill:rgb(0%,0%,0%);fill-opacity:0.996078;stroke:none;"/>
  </g>
</mask>
<clipPath id="clip6">
  <rect width="50" height="50"/>
</clipPath>
<g id="surface21" clip-path="url(#clip6)">
<path style=" stroke:none;fill-rule:evenodd;fill:rgb(7.843137%,14.509804%,15.294118%);fill-opacity:1;" d="M 26.464844 23.679688 C 27.597656 23.65625 28.292969 24.199219 28.550781 25.3125 C 28.6875 26.65625 28.59375 27.984375 28.261719 29.292969 C 27.914062 30.652344 27.121094 31.648438 25.886719 32.292969 C 24.84375 32.65625 23.800781 32.640625 22.769531 32.246094 C 21.710938 31.695312 21.09375 30.824219 20.921875 29.628906 C 20.726562 27.636719 21.355469 25.964844 22.816406 24.617188 C 23.722656 23.886719 24.738281 23.667969 25.863281 23.96875 C 26.070312 23.875 26.269531 23.78125 26.464844 23.679688 Z M 25.839844 24.785156 C 26.007812 24.976562 26.21875 25.023438 26.464844 24.929688 C 26.6875 25.007812 26.910156 25.089844 27.136719 25.167969 C 27.257812 25.507812 27.332031 25.859375 27.351562 26.222656 C 27.378906 26.945312 27.371094 27.664062 27.328125 28.382812 C 26.601562 29.523438 25.578125 29.929688 24.257812 29.605469 C 23.628906 29.273438 23.269531 28.753906 23.175781 28.046875 C 23.03125 26.808594 23.457031 25.824219 24.449219 25.097656 C 24.882812 24.867188 25.347656 24.765625 25.839844 24.785156 Z M 25.839844 24.785156 "/>
</g>
<mask id="mask6">
  <g filter="url(#alpha)">
<rect x="0" y="0" width="50" height="50" style="fill:rgb(0%,0%,0%);fill-opacity:0.980392;stroke:none;"/>
  </g>
</mask>
<clipPath id="clip7">
  <rect width="50" height="50"/>
</clipPath>
<g id="surface24" clip-path="url(#clip7)">
<path style=" stroke:none;fill-rule:evenodd;fill:rgb(93.72549%,92.156863%,89.803922%);fill-opacity:1;" d="M 25.839844 24.785156 C 25.347656 24.765625 24.882812 24.867188 24.449219 25.097656 C 23.457031 25.824219 23.03125 26.808594 23.175781 28.046875 C 23.269531 28.753906 23.628906 29.273438 24.257812 29.605469 C 25.578125 29.929688 26.601562 29.523438 27.328125 28.382812 C 27.191406 30.03125 26.328125 31.078125 24.734375 31.527344 C 23.261719 31.574219 22.3125 30.894531 21.882812 29.488281 C 21.652344 27.816406 22.175781 26.429688 23.441406 25.335938 C 24.128906 24.835938 24.898438 24.605469 25.742188 24.640625 C 25.777344 24.6875 25.808594 24.738281 25.839844 24.785156 Z M 25.839844 24.785156 "/>
</g>
<mask id="mask7">
  <g filter="url(#alpha)">
<rect x="0" y="0" width="50" height="50" style="fill:rgb(0%,0%,0%);fill-opacity:0.858824;stroke:none;"/>
  </g>
</mask>
<clipPath id="clip8">
  <rect width="50" height="50"/>
</clipPath>
<g id="surface27" clip-path="url(#clip8)">
<path style=" stroke:none;fill-rule:evenodd;fill:rgb(89.803922%,88.627451%,86.27451%);fill-opacity:1;" d="M 27.136719 25.167969 C 26.910156 25.089844 26.6875 25.007812 26.464844 24.929688 C 26.78125 24.703125 27.007812 24.78125 27.136719 25.167969 Z M 27.136719 25.167969 "/>
</g>
<mask id="mask8">
  <g filter="url(#alpha)">
<rect x="0" y="0" width="50" height="50" style="fill:rgb(0%,0%,0%);fill-opacity:0.968627;stroke:none;"/>
  </g>
</mask>
<clipPath id="clip9">
  <rect width="50" height="50"/>
</clipPath>
<g id="surface30" clip-path="url(#clip9)">
<path style=" stroke:none;fill-rule:evenodd;fill:rgb(93.72549%,92.54902%,89.803922%);fill-opacity:1;" d="M 3.09375 27.136719 C 2.875 28.46875 2.804688 29.8125 2.878906 31.167969 C 3.277344 36.351562 5.605469 40.398438 9.859375 43.304688 C 5.519531 41.625 3.015625 38.476562 2.351562 33.851562 C 2.101562 31.554688 2.351562 29.3125 3.09375 27.136719 Z M 3.09375 27.136719 "/>
</g>
<mask id="mask9">
  <g filter="url(#alpha)">
<rect x="0" y="0" width="50" height="50" style="fill:rgb(0%,0%,0%);fill-opacity:0.886275;stroke:none;"/>
  </g>
</mask>
<clipPath id="clip10">
  <rect width="50" height="50"/>
</clipPath>
<g id="surface33" clip-path="url(#clip10)">
<path style=" stroke:none;fill-rule:evenodd;fill:rgb(92.156863%,90.588235%,87.843137%);fill-opacity:1;" d="M 30.925781 32.941406 C 30.535156 33.316406 30.121094 33.652344 29.679688 33.949219 C 30 33.503906 30.296875 33.042969 30.566406 32.558594 C 30.699219 32.683594 30.820312 32.8125 30.925781 32.941406 Z M 30.925781 32.941406 "/>
</g>
<mask id="mask10">
  <g filter="url(#alpha)">
<rect x="0" y="0" width="50" height="50" style="fill:rgb(0%,0%,0%);fill-opacity:0.984314;stroke:none;"/>
  </g>
</mask>
<clipPath id="clip11">
  <rect width="50" height="50"/>
</clipPath>
<g id="surface36" clip-path="url(#clip11)">
<path style=" stroke:none;fill-rule:evenodd;fill:rgb(94.117647%,92.54902%,89.803922%);fill-opacity:1;" d="M 30.878906 37.644531 C 29.460938 38.503906 27.957031 39.183594 26.367188 39.683594 C 24.398438 40.316406 22.382812 40.558594 20.320312 40.402344 C 18.410156 40.203125 16.667969 39.570312 15.089844 38.507812 C 18.160156 38.945312 21.230469 38.953125 24.304688 38.53125 C 26.125 38.277344 27.929688 37.960938 29.726562 37.570312 C 30.117188 37.53125 30.5 37.554688 30.878906 37.644531 Z M 30.878906 37.644531 "/>
</g>
</defs>
<g id="surface1">
<use xlink:href="#surface6" mask="url(#mask0)"/>
<use xlink:href="#surface9" mask="url(#mask1)"/>
<path style=" stroke:none;fill-rule:evenodd;fill:rgb(8.627451%,14.901961%,15.686275%);fill-opacity:1;" d="M 37.308594 10.53125 C 37.738281 10.621094 38.140625 10.789062 38.507812 11.035156 C 39.398438 11.605469 40.046875 12.382812 40.449219 13.363281 C 40.515625 13.566406 40.53125 13.777344 40.5 13.988281 C 40.378906 14.207031 40.191406 14.277344 39.945312 14.203125 C 39.730469 13.839844 39.53125 13.464844 39.347656 13.074219 C 38.816406 12.191406 38.09375 11.503906 37.1875 11.011719 C 37.132812 10.824219 37.171875 10.664062 37.308594 10.53125 Z M 37.308594 10.53125 "/>
<path style=" stroke:none;fill-rule:evenodd;fill:rgb(8.627451%,15.294118%,15.686275%);fill-opacity:1;" d="M 35.484375 11.683594 C 35.804688 11.734375 36.109375 11.839844 36.394531 11.996094 C 37.304688 12.519531 38.097656 13.183594 38.773438 13.988281 C 38.878906 14.15625 38.976562 14.332031 39.058594 14.515625 C 39.089844 14.878906 38.921875 15.015625 38.554688 14.921875 C 38.214844 14.554688 37.902344 14.160156 37.621094 13.746094 C 36.984375 13.066406 36.253906 12.507812 35.4375 12.066406 C 35.367188 11.925781 35.382812 11.800781 35.484375 11.683594 Z M 35.484375 11.683594 "/>
<use xlink:href="#surface12" mask="url(#mask2)"/>
<use xlink:href="#surface15" mask="url(#mask3)"/>
<use xlink:href="#surface18" mask="url(#mask4)"/>
<path style=" stroke:none;fill-rule:evenodd;fill:rgb(8.627451%,14.901961%,15.686275%);fill-opacity:1;" d="M 23.390625 23.054688 C 23.570312 23.046875 23.746094 23.058594 23.921875 23.082031 C 24.058594 23.148438 24.121094 23.257812 24.113281 23.417969 C 24.113281 23.523438 24.082031 23.621094 24.015625 23.703125 C 23.367188 23.933594 22.726562 24.191406 22.097656 24.472656 C 21.429688 24.925781 20.804688 25.4375 20.226562 26.007812 C 19.941406 26.140625 19.824219 26.050781 19.867188 25.742188 C 20.6875 24.382812 21.863281 23.488281 23.390625 23.054688 Z M 23.390625 23.054688 "/>
<use xlink:href="#surface21" mask="url(#mask5)"/>
<use xlink:href="#surface24" mask="url(#mask6)"/>
<use xlink:href="#surface27" mask="url(#mask7)"/>
<use xlink:href="#surface30" mask="url(#mask8)"/>
<use xlink:href="#surface33" mask="url(#mask9)"/>
<use xlink:href="#surface36" mask="url(#mask10)"/>
<path style=" stroke:none;fill-rule:evenodd;fill:rgb(8.627451%,15.294118%,15.686275%);fill-opacity:1;" d="M 11.109375 37.835938 C 11.214844 37.820312 11.304688 37.851562 11.371094 37.933594 C 11.382812 38.097656 11.414062 38.257812 11.46875 38.410156 C 11.980469 38.921875 12.566406 39.328125 13.21875 39.636719 C 13.847656 39.925781 14.472656 40.230469 15.089844 40.546875 C 15.34375 40.742188 15.34375 40.9375 15.089844 41.121094 C 14.964844 41.15625 14.835938 41.15625 14.707031 41.121094 C 14.289062 40.988281 13.890625 40.808594 13.507812 40.59375 C 12.660156 40.070312 11.871094 39.46875 11.132812 38.796875 C 10.921875 38.476562 10.914062 38.15625 11.109375 37.835938 Z M 11.109375 37.835938 "/>
<path style=" stroke:none;fill-rule:evenodd;fill:rgb(8.627451%,14.901961%,15.686275%);fill-opacity:1;" d="M 10.292969 39.996094 C 10.375 39.988281 10.453125 39.996094 10.53125 40.019531 C 11.820312 40.855469 13.179688 41.566406 14.609375 42.15625 C 14.753906 42.378906 14.722656 42.578125 14.515625 42.753906 C 14.285156 42.785156 14.058594 42.753906 13.84375 42.660156 C 12.503906 42.105469 11.308594 41.328125 10.269531 40.332031 C 10.234375 40.214844 10.242188 40.101562 10.292969 39.996094 Z M 10.292969 39.996094 "/>
</g>
</svg>
