<?xml version="1.0" encoding="UTF-8"?>
<svg xmlns="http://www.w3.org/2000/svg" xmlns:xlink="http://www.w3.org/1999/xlink" width="50pt" height="50pt" viewBox="0 0 50 50" version="1.1">
<defs>
<filter id="alpha" filterUnits="objectBoundingBox" x="0%" y="0%" width="100%" height="100%">
  <feColorMatrix type="matrix" in="SourceGraphic" values="0 0 0 0 1 0 0 0 0 1 0 0 0 0 1 0 0 0 1 0"/>
</filter>
<mask id="mask0">
  <g filter="url(#alpha)">
<rect x="0" y="0" width="50" height="50" style="fill:rgb(0%,0%,0%);fill-opacity:0.984314;stroke:none;"/>
  </g>
</mask>
<clipPath id="clip1">
  <rect width="50" height="50"/>
</clipPath>
<g id="surface6" clip-path="url(#clip1)">
<path style=" stroke:none;fill-rule:evenodd;fill:rgb(66.27451%,22.745098%,17.647059%);fill-opacity:1;" d="M 17.105469 0.742188 C 16.433594 0.746094 15.824219 0.953125 15.28125 1.367188 C 14.472656 1.128906 14.167969 1.425781 14.371094 2.253906 C 14.375 2.417969 14.34375 2.570312 14.277344 2.710938 C 14.242188 2.613281 14.210938 2.519531 14.179688 2.421875 C 14.1875 2.167969 14.179688 1.910156 14.15625 1.65625 C 13.828125 1.445312 13.523438 1.476562 13.242188 1.75 C 13.242188 2.863281 13.328125 3.964844 13.507812 5.0625 C 13.390625 6.222656 13.390625 7.382812 13.507812 8.542969 C 13.457031 10.421875 13.449219 12.300781 13.484375 14.179688 C 13.574219 15.652344 13.78125 17.109375 14.109375 18.546875 C 14.246094 18.835938 14.460938 18.910156 14.753906 18.761719 C 14.941406 18.710938 15.054688 18.589844 15.089844 18.402344 C 14.503906 15.894531 14.285156 13.351562 14.445312 10.773438 C 14.59375 10.988281 14.726562 11.214844 14.851562 11.445312 C 14.851562 11.476562 14.867188 11.492188 14.898438 11.492188 C 15.800781 13.746094 16.730469 15.984375 17.683594 18.210938 C 16.855469 18.808594 15.976562 19.320312 15.042969 19.746094 C 14.660156 19.71875 14.308594 19.597656 13.988281 19.386719 C 13.328125 18.890625 12.808594 18.273438 12.429688 17.539062 C 11.671875 15.675781 11.222656 13.742188 11.085938 11.730469 C 10.84375 9.410156 10.957031 7.109375 11.421875 4.824219 C 11.664062 3.589844 12.175781 2.484375 12.957031 1.511719 C 13.789062 0.640625 14.804688 0.296875 16.003906 0.480469 C 16.378906 0.546875 16.746094 0.632812 17.105469 0.742188 Z M 17.105469 0.742188 "/>
</g>
<mask id="mask1">
  <g filter="url(#alpha)">
<rect x="0" y="0" width="50" height="50" style="fill:rgb(0%,0%,0%);fill-opacity:0.992157;stroke:none;"/>
  </g>
</mask>
<clipPath id="clip2">
  <rect width="50" height="50"/>
</clipPath>
<g id="surface9" clip-path="url(#clip2)">
<path style=" stroke:none;fill-rule:evenodd;fill:rgb(0.392157%,0%,0%);fill-opacity:1;" d="M 17.105469 0.742188 C 18.257812 0.859375 19.195312 1.371094 19.914062 2.277344 C 20.121094 2.535156 20.304688 2.808594 20.464844 3.09375 C 21.257812 4.484375 21.777344 5.96875 22.023438 7.558594 C 22.597656 9.707031 23.167969 11.859375 23.726562 14.011719 C 23.710938 14.117188 23.664062 14.203125 23.585938 14.277344 C 23.339844 14.421875 23.082031 14.445312 22.816406 14.347656 C 22.6875 14.011719 22.589844 13.667969 22.527344 13.316406 C 22.144531 11.757812 21.734375 10.207031 21.304688 8.660156 C 21.160156 9.355469 20.992188 10.042969 20.800781 10.722656 C 20.175781 12.316406 19.007812 12.996094 17.296875 12.765625 C 16.335938 12.640625 15.535156 12.21875 14.898438 11.492188 C 14.867188 11.492188 14.851562 11.476562 14.851562 11.445312 C 14.726562 11.214844 14.59375 10.988281 14.445312 10.773438 C 14.285156 13.351562 14.503906 15.894531 15.089844 18.402344 C 15.054688 18.589844 14.941406 18.710938 14.753906 18.761719 C 14.460938 18.910156 14.246094 18.835938 14.109375 18.546875 C 13.78125 17.109375 13.574219 15.652344 13.484375 14.179688 C 13.449219 12.300781 13.457031 10.421875 13.507812 8.542969 C 13.390625 7.382812 13.390625 6.222656 13.507812 5.0625 C 13.328125 3.964844 13.242188 2.863281 13.242188 1.75 C 13.523438 1.476562 13.828125 1.445312 14.15625 1.65625 C 14.179688 1.910156 14.1875 2.167969 14.179688 2.421875 C 14.171875 2.550781 14.179688 2.679688 14.203125 2.808594 C 14.238281 2.78125 14.261719 2.75 14.277344 2.710938 C 14.34375 2.570312 14.375 2.417969 14.371094 2.253906 C 14.167969 1.425781 14.472656 1.128906 15.28125 1.367188 C 15.824219 0.953125 16.433594 0.746094 17.105469 0.742188 Z M 20.226562 9.429688 C 20.1875 10.230469 19.953125 10.964844 19.53125 11.636719 C 18.949219 12.175781 18.269531 12.359375 17.492188 12.1875 C 16.578125 11.859375 15.875 11.277344 15.378906 10.4375 C 15.632812 10.292969 15.890625 10.148438 16.148438 10.003906 C 17.035156 10.695312 17.976562 10.765625 18.976562 10.222656 C 19.363281 9.984375 19.554688 9.640625 19.554688 9.1875 C 19.257812 9.164062 18.96875 9.207031 18.691406 9.308594 C 18.648438 9.347656 18.609375 9.390625 18.570312 9.429688 C 18.59375 9.835938 18.40625 10.074219 18.019531 10.148438 C 17.59375 10.058594 17.242188 9.851562 16.960938 9.523438 C 17.808594 8.972656 18.664062 8.429688 19.53125 7.894531 C 19.730469 8.425781 19.960938 8.9375 20.226562 9.429688 Z M 20.226562 9.429688 "/>
</g>
<mask id="mask2">
  <g filter="url(#alpha)">
<rect x="0" y="0" width="50" height="50" style="fill:rgb(0%,0%,0%);fill-opacity:0.996078;stroke:none;"/>
  </g>
</mask>
<clipPath id="clip3">
  <rect width="50" height="50"/>
</clipPath>
<g id="surface12" clip-path="url(#clip3)">
<path style=" stroke:none;fill-rule:evenodd;fill:rgb(65.882353%,22.745098%,17.647059%);fill-opacity:1;" d="M 20.226562 9.429688 C 19.960938 8.9375 19.730469 8.425781 19.53125 7.894531 C 18.664062 8.429688 17.808594 8.972656 16.960938 9.523438 C 16.746094 9.332031 16.539062 9.132812 16.339844 8.925781 C 16.082031 8.917969 15.84375 8.984375 15.617188 9.117188 C 15.535156 9.152344 15.496094 9.207031 15.5 9.285156 C 15.738281 9.515625 15.953125 9.753906 16.148438 10.003906 C 15.890625 10.148438 15.632812 10.292969 15.378906 10.4375 C 15.234375 10.265625 15.113281 10.074219 15.019531 9.859375 C 14.527344 8.808594 14.375 7.703125 14.5625 6.550781 C 14.625 6.511719 14.683594 6.464844 14.730469 6.40625 C 15.011719 5.726562 15.203125 5.023438 15.308594 4.292969 C 15.546875 4.851562 15.957031 5.019531 16.53125 4.796875 C 16.761719 4.679688 16.945312 4.511719 17.082031 4.292969 C 17.238281 3.9375 17.359375 3.570312 17.441406 3.191406 C 17.816406 3.570312 18.191406 3.570312 18.570312 3.191406 C 18.609375 3.105469 18.601562 3.027344 18.546875 2.949219 C 18.164062 2.703125 17.875 2.378906 17.683594 1.96875 C 18.015625 2.0625 18.316406 2.222656 18.59375 2.445312 C 19.53125 3.371094 20.195312 4.464844 20.585938 5.734375 C 20.707031 6.363281 20.851562 6.988281 21.015625 7.605469 C 21.070312 7.875 21.09375 8.148438 21.089844 8.421875 C 20.835938 8.402344 20.601562 8.464844 20.394531 8.613281 C 20.316406 8.882812 20.261719 9.15625 20.226562 9.429688 Z M 20.226562 9.429688 "/>
</g>
<mask id="mask3">
  <g filter="url(#alpha)">
<rect x="0" y="0" width="50" height="50" style="fill:rgb(0%,0%,0%);fill-opacity:0.980392;stroke:none;"/>
  </g>
</mask>
<clipPath id="clip4">
  <rect width="50" height="50"/>
</clipPath>
<g id="surface15" clip-path="url(#clip4)">
<path style=" stroke:none;fill-rule:evenodd;fill:rgb(66.27451%,22.745098%,17.647059%);fill-opacity:1;" d="M 20.464844 3.09375 C 22.675781 5.398438 24.265625 8.085938 25.238281 11.15625 C 25.5 11.953125 25.59375 12.769531 25.527344 13.605469 C 25.449219 14.226562 25.097656 14.546875 24.472656 14.5625 C 24.144531 14.554688 23.847656 14.457031 23.585938 14.277344 C 23.664062 14.203125 23.710938 14.117188 23.726562 14.011719 C 23.167969 11.859375 22.597656 9.707031 22.023438 7.558594 C 21.777344 5.96875 21.257812 4.484375 20.464844 3.09375 Z M 20.464844 3.09375 "/>
</g>
<mask id="mask4">
  <g filter="url(#alpha)">
<rect x="0" y="0" width="50" height="50" style="fill:rgb(0%,0%,0%);fill-opacity:0.952941;stroke:none;"/>
  </g>
</mask>
<clipPath id="clip5">
  <rect width="50" height="50"/>
</clipPath>
<g id="surface18" clip-path="url(#clip5)">
<path style=" stroke:none;fill-rule:evenodd;fill:rgb(0%,0%,0%);fill-opacity:1;" d="M 32.03125 3.574219 C 33.511719 3.527344 34.65625 4.121094 35.460938 5.351562 C 36.398438 6.34375 37.511719 7.078125 38.796875 7.558594 C 38.867188 7.742188 38.820312 7.894531 38.652344 8.011719 C 38.507812 8.09375 38.355469 8.152344 38.195312 8.179688 C 37.542969 7.984375 36.9375 7.695312 36.371094 7.316406 C 36.417969 7.667969 36.457031 8.019531 36.492188 8.375 C 36.589844 8.367188 36.6875 8.375 36.78125 8.398438 C 37.757812 9.695312 38.683594 11.023438 39.5625 12.378906 C 39.558594 12.433594 39.542969 12.480469 39.515625 12.523438 C 39.25 12.703125 38.960938 12.757812 38.652344 12.691406 C 37.945312 11.722656 37.25 10.746094 36.5625 9.765625 C 36.390625 11.226562 35.804688 12.5 34.8125 13.578125 C 33.476562 14.796875 31.957031 15.085938 30.253906 14.445312 C 29.523438 14.121094 28.894531 13.667969 28.359375 13.074219 C 28.386719 13.605469 28.417969 14.132812 28.453125 14.660156 C 28.175781 14.945312 27.855469 15.007812 27.496094 14.851562 C 27.328125 13.507812 27.167969 12.164062 27.015625 10.820312 C 26.789062 10.175781 26.601562 9.519531 26.464844 8.851562 C 26.195312 9.011719 25.90625 9.0625 25.601562 8.996094 C 25.582031 8.964844 25.566406 8.933594 25.550781 8.902344 C 25.761719 8.402344 26.011719 7.921875 26.296875 7.460938 C 26.316406 6.996094 26.347656 6.53125 26.390625 6.070312 C 26.429688 6 26.488281 5.941406 26.558594 5.902344 C 26.8125 5.789062 27.070312 5.773438 27.328125 5.855469 C 27.355469 5.890625 27.382812 5.929688 27.398438 5.972656 C 28.644531 4.59375 30.1875 3.796875 32.03125 3.574219 Z M 31.933594 4.488281 C 32.332031 4.480469 32.734375 4.488281 33.132812 4.511719 C 33.300781 4.53125 33.460938 4.578125 33.613281 4.65625 C 33.917969 4.894531 34.1875 5.167969 34.429688 5.46875 C 34.378906 5.542969 34.386719 5.613281 34.453125 5.6875 C 34.824219 6.082031 35.082031 6.542969 35.222656 7.078125 C 35.804688 9.035156 35.628906 10.921875 34.691406 12.738281 C 34.46875 13.121094 34.144531 13.351562 33.710938 13.4375 C 32.574219 13.699219 31.441406 13.714844 30.300781 13.484375 C 29.851562 13.191406 29.457031 12.832031 29.125 12.402344 C 28.671875 11.835938 28.304688 11.210938 28.023438 10.53125 C 27.96875 10.164062 27.921875 9.796875 27.878906 9.429688 C 27.859375 9.386719 27.835938 9.34375 27.808594 9.308594 C 27.730469 9.296875 27.660156 9.273438 27.589844 9.238281 C 27.414062 8.558594 27.332031 7.871094 27.351562 7.171875 C 27.832031 6.394531 28.433594 5.714844 29.152344 5.132812 C 29.421875 4.976562 29.707031 4.863281 30.015625 4.796875 C 30.65625 4.664062 31.296875 4.5625 31.933594 4.488281 Z M 31.933594 4.488281 "/>
</g>
<mask id="mask5">
  <g filter="url(#alpha)">
<rect x="0" y="0" width="50" height="50" style="fill:rgb(0%,0%,0%);fill-opacity:0.92549;stroke:none;"/>
  </g>
</mask>
<clipPath id="clip6">
  <rect width="50" height="50"/>
</clipPath>
<g id="surface21" clip-path="url(#clip6)">
<path style=" stroke:none;fill-rule:evenodd;fill:rgb(0%,0%,0%);fill-opacity:1;" d="M 32.316406 6.023438 C 32.890625 5.9375 33.144531 6.175781 33.085938 6.742188 C 32.84375 6.921875 32.570312 6.976562 32.269531 6.910156 C 32.058594 6.71875 31.976562 6.484375 32.03125 6.214844 C 32.128906 6.148438 32.226562 6.085938 32.316406 6.023438 Z M 32.316406 6.023438 "/>
</g>
<mask id="mask6">
  <g filter="url(#alpha)">
<rect x="0" y="0" width="50" height="50" style="fill:rgb(0%,0%,0%);fill-opacity:0.933333;stroke:none;"/>
  </g>
</mask>
<clipPath id="clip7">
  <rect width="50" height="50"/>
</clipPath>
<g id="surface24" clip-path="url(#clip7)">
<path style=" stroke:none;fill-rule:evenodd;fill:rgb(0%,0%,0%);fill-opacity:1;" d="M 28.957031 6.886719 C 29.148438 6.863281 29.316406 6.914062 29.460938 7.03125 C 29.632812 7.445312 29.785156 7.871094 29.917969 8.300781 C 29.910156 8.4375 29.847656 8.53125 29.726562 8.589844 C 29.578125 8.640625 29.425781 8.679688 29.269531 8.710938 C 29.140625 8.699219 29.027344 8.648438 28.933594 8.566406 C 28.757812 8.140625 28.605469 7.710938 28.480469 7.269531 C 28.472656 7.179688 28.503906 7.109375 28.574219 7.054688 C 28.703125 6.984375 28.832031 6.925781 28.957031 6.886719 Z M 28.957031 6.886719 "/>
</g>
<mask id="mask7">
  <g filter="url(#alpha)">
<rect x="0" y="0" width="50" height="50" style="fill:rgb(0%,0%,0%);fill-opacity:0.968627;stroke:none;"/>
  </g>
</mask>
<clipPath id="clip8">
  <rect width="50" height="50"/>
</clipPath>
<g id="surface27" clip-path="url(#clip8)">
<path style=" stroke:none;fill-rule:evenodd;fill:rgb(64.705882%,22.352941%,17.254902%);fill-opacity:1;" d="M 22.527344 13.316406 C 22.257812 13.019531 22.007812 12.699219 21.785156 12.355469 C 21.445312 11.816406 21.117188 11.273438 20.800781 10.722656 C 20.992188 10.042969 21.160156 9.355469 21.304688 8.660156 C 21.734375 10.207031 22.144531 11.757812 22.527344 13.316406 Z M 22.527344 13.316406 "/>
</g>
<mask id="mask8">
  <g filter="url(#alpha)">
<rect x="0" y="0" width="50" height="50" style="fill:rgb(0%,0%,0%);fill-opacity:0.945098;stroke:none;"/>
  </g>
</mask>
<clipPath id="clip9">
  <rect width="50" height="50"/>
</clipPath>
<g id="surface30" clip-path="url(#clip9)">
<path style=" stroke:none;fill-rule:evenodd;fill:rgb(0.784314%,0%,0%);fill-opacity:1;" d="M 16.960938 9.523438 C 17.242188 9.851562 17.59375 10.058594 18.019531 10.148438 C 18.40625 10.074219 18.59375 9.835938 18.570312 9.429688 C 18.609375 9.390625 18.648438 9.347656 18.691406 9.308594 C 18.96875 9.207031 19.257812 9.164062 19.554688 9.1875 C 19.554688 9.640625 19.363281 9.984375 18.976562 10.222656 C 17.976562 10.765625 17.035156 10.695312 16.148438 10.003906 C 15.953125 9.753906 15.738281 9.515625 15.5 9.285156 C 15.496094 9.207031 15.535156 9.152344 15.617188 9.117188 C 15.84375 8.984375 16.082031 8.917969 16.339844 8.925781 C 16.539062 9.132812 16.746094 9.332031 16.960938 9.523438 Z M 16.960938 9.523438 "/>
</g>
<mask id="mask9">
  <g filter="url(#alpha)">
<rect x="0" y="0" width="50" height="50" style="fill:rgb(0%,0%,0%);fill-opacity:0.933333;stroke:none;"/>
  </g>
</mask>
<clipPath id="clip10">
  <rect width="50" height="50"/>
</clipPath>
<g id="surface33" clip-path="url(#clip10)">
<path style=" stroke:none;fill-rule:evenodd;fill:rgb(0%,0%,0%);fill-opacity:1;" d="M 33.132812 8.949219 C 33.277344 8.9375 33.398438 8.984375 33.492188 9.09375 C 33.964844 10.066406 33.78125 10.886719 32.941406 11.5625 C 31.925781 12.199219 30.933594 12.164062 29.964844 11.46875 C 29.675781 11.164062 29.523438 10.804688 29.511719 10.390625 C 29.816406 10.183594 30.136719 10.136719 30.46875 10.246094 C 30.667969 10.960938 31.125 11.410156 31.835938 11.589844 C 32.339844 11.464844 32.632812 11.144531 32.726562 10.628906 C 32.757812 10.421875 32.757812 10.210938 32.726562 10.003906 C 32.640625 9.746094 32.5625 9.488281 32.484375 9.238281 C 32.683594 9.089844 32.898438 8.992188 33.132812 8.949219 Z M 33.132812 8.949219 "/>
</g>
<mask id="mask10">
  <g filter="url(#alpha)">
<rect x="0" y="0" width="50" height="50" style="fill:rgb(0%,0%,0%);fill-opacity:0.972549;stroke:none;"/>
  </g>
</mask>
<clipPath id="clip11">
  <rect width="50" height="50"/>
</clipPath>
<g id="surface36" clip-path="url(#clip11)">
<path style=" stroke:none;fill-rule:evenodd;fill:rgb(0%,0%,0%);fill-opacity:1;" d="M 40.140625 36.492188 C 39.585938 37.402344 38.769531 37.847656 37.691406 37.835938 C 37.726562 38.292969 37.789062 38.742188 37.882812 39.179688 C 38.3125 42.09375 38.886719 44.984375 39.609375 47.839844 C 39.492188 48.238281 39.222656 48.421875 38.796875 48.390625 C 38.617188 48.414062 38.46875 48.367188 38.339844 48.25 C 37.546875 45.265625 36.945312 42.242188 36.539062 39.179688 C 36.460938 38.652344 36.390625 38.125 36.324219 37.597656 C 35.957031 37.425781 35.628906 37.199219 35.339844 36.925781 C 35.113281 36.71875 34.929688 36.480469 34.789062 36.203125 C 34.566406 37.160156 34.140625 38.007812 33.515625 38.746094 C 33.328125 38.960938 33.128906 39.167969 32.917969 39.371094 C 32.914062 39.703125 32.957031 40.019531 33.039062 40.332031 C 33.429688 43.179688 33.828125 46.027344 34.238281 48.871094 C 34.054688 49.355469 33.703125 49.554688 33.179688 49.472656 C 33.050781 49.453125 32.960938 49.382812 32.917969 49.257812 C 32.519531 46.457031 32.125 43.660156 31.742188 40.859375 C 31.757812 40.660156 31.726562 40.464844 31.644531 40.28125 C 31.378906 40.449219 31.089844 40.523438 30.78125 40.5 C 30.757812 40.476562 30.734375 40.449219 30.710938 40.425781 C 30.035156 34.992188 29.789062 29.539062 29.964844 24.0625 C 30.027344 23.894531 30.027344 23.71875 29.964844 23.535156 C 29.9375 23.542969 29.921875 23.558594 29.917969 23.585938 C 29.496094 23.707031 29.097656 23.867188 28.71875 24.0625 C 26.175781 24.851562 23.585938 25.066406 20.945312 24.710938 C 20.886719 24.636719 20.902344 24.570312 20.992188 24.519531 C 21.382812 24.296875 21.800781 24.144531 22.242188 24.0625 C 24.445312 24.390625 26.605469 24.195312 28.71875 23.488281 C 29.148438 23.332031 29.574219 23.15625 29.992188 22.960938 C 30.042969 22.402344 30.085938 21.839844 30.109375 21.28125 C 29.640625 21.355469 29.175781 21.4375 28.71875 21.519531 C 25.804688 21.84375 23.070312 21.292969 20.511719 19.867188 C 20.324219 19.765625 20.285156 19.632812 20.394531 19.457031 C 20.761719 19.105469 21.203125 18.953125 21.714844 19 C 23.882812 20.265625 26.21875 20.800781 28.71875 20.609375 C 28.757812 20.640625 28.804688 20.65625 28.863281 20.65625 C 29.296875 20.582031 29.726562 20.5 30.160156 20.417969 C 30.238281 19.539062 30.304688 18.660156 30.351562 17.777344 C 30.414062 17.285156 30.46875 16.789062 30.519531 16.289062 C 30.796875 16.007812 31.117188 15.941406 31.476562 16.097656 C 31.46875 16.613281 31.429688 17.125 31.359375 17.632812 C 31.234375 18.476562 31.164062 19.324219 31.140625 20.175781 C 31.601562 19.910156 32.089844 19.835938 32.605469 19.960938 C 32.875 20.078125 32.90625 20.238281 32.703125 20.441406 C 32.191406 20.679688 31.664062 20.871094 31.117188 21.015625 C 31.085938 21.070312 31.0625 21.125 31.046875 21.183594 C 31.023438 21.472656 31.015625 21.761719 31.023438 22.050781 C 30.976562 22.230469 30.957031 22.421875 30.972656 22.625 C 31.050781 22.636719 31.113281 22.621094 31.167969 22.578125 C 31.296875 22.570312 31.421875 22.578125 31.550781 22.601562 C 31.667969 22.691406 31.652344 22.773438 31.5 22.839844 C 31.324219 22.929688 31.148438 23.015625 30.972656 23.105469 C 30.742188 28.460938 30.933594 33.804688 31.550781 39.132812 C 31.820312 38.742188 32.1875 38.589844 32.652344 38.675781 C 33.929688 37.035156 34.265625 35.210938 33.660156 33.207031 C 33.691406 33.046875 33.789062 32.949219 33.949219 32.917969 C 34.179688 32.816406 34.40625 32.824219 34.621094 32.941406 C 34.785156 33.777344 35.019531 34.59375 35.316406 35.390625 C 35.496094 35.855469 35.777344 36.246094 36.15625 36.5625 C 36.214844 36.601562 36.28125 36.625 36.347656 36.636719 C 37.355469 36.476562 38.363281 36.332031 39.371094 36.203125 C 39.378906 35.742188 39.371094 35.277344 39.347656 34.8125 C 38.949219 32.722656 38.4375 30.65625 37.8125 28.621094 C 36.84375 24.835938 35.886719 21.042969 34.933594 17.25 C 34.914062 17.222656 34.890625 17.207031 34.859375 17.203125 C 34.691406 16.414062 34.5 15.628906 34.285156 14.851562 C 34.367188 14.632812 34.527344 14.511719 34.765625 14.492188 C 34.910156 14.460938 35.054688 14.460938 35.195312 14.492188 C 35.253906 14.535156 35.292969 14.589844 35.316406 14.660156 C 35.574219 15.683594 35.828125 16.707031 36.085938 17.730469 C 36.414062 17.980469 36.726562 18.261719 37.019531 18.570312 C 38.160156 19.453125 39.363281 20.253906 40.617188 20.96875 C 41.75 21.667969 42.75 22.523438 43.617188 23.535156 C 43.925781 23.976562 44.199219 24.441406 44.433594 24.929688 C 44.628906 25.339844 44.644531 25.757812 44.480469 26.175781 C 44.128906 26.519531 43.726562 26.582031 43.28125 26.367188 C 42.75 26.640625 42.230469 26.617188 41.722656 26.296875 C 41.554688 26.128906 41.386719 25.960938 41.21875 25.792969 C 40.765625 25.097656 40.328125 24.390625 39.898438 23.679688 C 40.039062 23.457031 40.25 23.34375 40.523438 23.34375 C 40.65625 23.355469 40.761719 23.421875 40.835938 23.535156 C 41.164062 24.03125 41.46875 24.542969 41.746094 25.070312 C 41.886719 25.292969 42.054688 25.492188 42.25 25.671875 C 42.488281 25.761719 42.496094 25.722656 42.273438 25.550781 C 42.238281 25.472656 42.246094 25.402344 42.296875 25.335938 C 42.519531 25.191406 42.757812 25.140625 43.019531 25.191406 C 43.164062 25.304688 43.304688 25.414062 43.449219 25.527344 C 43.523438 25.578125 43.601562 25.601562 43.691406 25.601562 C 43.691406 25.429688 43.652344 25.269531 43.570312 25.121094 C 43.167969 24.292969 42.632812 23.566406 41.960938 22.9375 C 41.464844 22.519531 40.953125 22.117188 40.425781 21.738281 C 39.042969 20.898438 37.714844 20.035156 36.445312 19.144531 C 37.691406 24.101562 38.960938 29.054688 40.257812 33.996094 C 40.425781 34.632812 40.457031 35.269531 40.355469 35.917969 C 40.316406 36.121094 40.242188 36.3125 40.140625 36.492188 Z M 40.140625 36.492188 "/>
</g>
<mask id="mask11">
  <g filter="url(#alpha)">
<rect x="0" y="0" width="50" height="50" style="fill:rgb(0%,0%,0%);fill-opacity:0.960784;stroke:none;"/>
  </g>
</mask>
<clipPath id="clip12">
  <rect width="50" height="50"/>
</clipPath>
<g id="surface39" clip-path="url(#clip12)">
<path style=" stroke:none;fill-rule:evenodd;fill:rgb(0%,0%,0%);fill-opacity:1;" d="M 15.042969 19.746094 C 15.976562 19.320312 16.855469 18.808594 17.683594 18.210938 C 17.863281 18.078125 18.058594 17.957031 18.257812 17.851562 C 18.367188 17.828125 18.480469 17.820312 18.59375 17.828125 C 18.515625 17.460938 18.492188 17.09375 18.523438 16.722656 C 18.792969 16.417969 19.121094 16.332031 19.503906 16.457031 C 19.5625 16.503906 19.601562 16.558594 19.625 16.625 C 20.835938 26.292969 22.597656 35.859375 24.902344 45.320312 C 25.160156 46.011719 25.367188 46.714844 25.527344 47.433594 C 25.648438 47.984375 25.511719 48.457031 25.121094 48.847656 C 24.667969 49.085938 24.226562 49.0625 23.800781 48.777344 C 23.644531 48.3125 23.796875 48.015625 24.257812 47.890625 C 21.839844 38.207031 19.976562 28.410156 18.667969 18.5 C 16.878906 19.652344 15.03125 20.714844 13.125 21.6875 C 11.625 22.511719 10.230469 23.488281 8.949219 24.617188 C 8.015625 25.582031 7.273438 26.675781 6.71875 27.902344 C 6.570312 28.234375 6.640625 28.324219 6.933594 28.167969 C 7.339844 27.710938 7.753906 27.261719 8.179688 26.824219 C 8.699219 26.355469 9.21875 26.347656 9.742188 26.800781 C 9.800781 26.90625 9.851562 27.019531 9.886719 27.136719 C 10.171875 26.449219 10.644531 25.929688 11.300781 25.574219 C 11.703125 25.371094 12.121094 25.195312 12.546875 25.046875 C 13.089844 24.996094 13.214844 25.207031 12.933594 25.671875 C 12.535156 25.820312 12.152344 25.996094 11.78125 26.199219 C 11.550781 26.332031 11.351562 26.5 11.179688 26.703125 C 10.898438 27.199219 10.644531 27.710938 10.414062 28.238281 C 10.300781 28.382812 10.1875 28.527344 10.078125 28.671875 C 9.925781 28.773438 9.789062 28.894531 9.667969 29.03125 C 9.324219 29.253906 8.964844 29.292969 8.589844 29.152344 C 8.550781 29.089844 8.527344 29.027344 8.515625 28.957031 C 8.671875 28.539062 8.769531 28.105469 8.804688 27.664062 C 8.71875 27.664062 8.636719 27.6875 8.566406 27.734375 C 8.140625 28.175781 7.730469 28.632812 7.339844 29.101562 C 7.125 29.335938 6.890625 29.550781 6.644531 29.75 C 5.566406 30.15625 5.15625 29.796875 5.421875 28.671875 C 5.558594 27.914062 5.832031 27.210938 6.238281 26.558594 C 7.199219 25.132812 8.375 23.910156 9.765625 22.890625 C 10.441406 22.421875 11.128906 21.972656 11.828125 21.546875 C 12.902344 20.945312 13.972656 20.34375 15.042969 19.746094 Z M 15.042969 19.746094 "/>
</g>
<mask id="mask12">
  <g filter="url(#alpha)">
<rect x="0" y="0" width="50" height="50" style="fill:rgb(0%,0%,0%);fill-opacity:0.992157;stroke:none;"/>
  </g>
</mask>
<clipPath id="clip13">
  <rect width="50" height="50"/>
</clipPath>
<g id="surface42" clip-path="url(#clip13)">
<path style=" stroke:none;fill-rule:evenodd;fill:rgb(65.882353%,22.745098%,17.647059%);fill-opacity:1;" d="M 30.351562 17.777344 C 30.304688 18.660156 30.238281 19.539062 30.160156 20.417969 C 29.726562 20.5 29.296875 20.582031 28.863281 20.65625 C 28.804688 20.65625 28.757812 20.640625 28.71875 20.609375 C 28.71875 19.730469 28.71875 18.851562 28.71875 17.96875 C 29.265625 17.921875 29.808594 17.859375 30.351562 17.777344 Z M 30.351562 17.777344 "/>
</g>
<mask id="mask13">
  <g filter="url(#alpha)">
<rect x="0" y="0" width="50" height="50" style="fill:rgb(0%,0%,0%);fill-opacity:0.996078;stroke:none;"/>
  </g>
</mask>
<clipPath id="clip14">
  <rect width="50" height="50"/>
</clipPath>
<g id="surface45" clip-path="url(#clip14)">
<path style=" stroke:none;fill-rule:evenodd;fill:rgb(65.882353%,22.745098%,17.647059%);fill-opacity:1;" d="M 29.917969 23.585938 C 29.964844 23.734375 29.980469 23.894531 29.964844 24.0625 C 29.789062 29.539062 30.035156 34.992188 30.710938 40.425781 C 30.734375 40.449219 30.757812 40.476562 30.78125 40.5 C 31.089844 40.523438 31.378906 40.449219 31.644531 40.28125 C 31.726562 40.464844 31.757812 40.660156 31.742188 40.859375 C 30.746094 41.261719 29.746094 41.664062 28.742188 42.058594 C 28.71875 36.058594 28.710938 30.0625 28.71875 24.0625 C 29.097656 23.867188 29.496094 23.707031 29.917969 23.585938 Z M 29.917969 23.585938 "/>
</g>
<mask id="mask14">
  <g filter="url(#alpha)">
<rect x="0" y="0" width="50" height="50" style="fill:rgb(0%,0%,0%);fill-opacity:0.956863;stroke:none;"/>
  </g>
</mask>
<clipPath id="clip15">
  <rect width="50" height="50"/>
</clipPath>
<g id="surface48" clip-path="url(#clip15)">
<path style=" stroke:none;fill-rule:evenodd;fill:rgb(0%,0%,0%);fill-opacity:1;" d="M 19.648438 31.214844 C 19.828125 31.207031 20.003906 31.214844 20.175781 31.238281 C 20.957031 37.316406 19.582031 42.859375 16.050781 47.863281 C 15.738281 48.042969 15.402344 48.097656 15.042969 48.03125 C 14.992188 47.964844 14.984375 47.894531 15.019531 47.816406 C 18.40625 42.902344 19.78125 37.464844 19.144531 31.5 C 19.292969 31.363281 19.460938 31.269531 19.648438 31.214844 Z M 19.648438 31.214844 "/>
</g>
<mask id="mask15">
  <g filter="url(#alpha)">
<rect x="0" y="0" width="50" height="50" style="fill:rgb(0%,0%,0%);fill-opacity:0.972549;stroke:none;"/>
  </g>
</mask>
<clipPath id="clip16">
  <rect width="50" height="50"/>
</clipPath>
<g id="surface51" clip-path="url(#clip16)">
<path style=" stroke:none;fill-rule:evenodd;fill:rgb(65.882353%,22.745098%,17.647059%);fill-opacity:1;" d="M 40.140625 36.492188 C 40.394531 37.378906 40.617188 38.277344 40.8125 39.179688 C 39.835938 39.179688 38.859375 39.179688 37.882812 39.179688 C 37.789062 38.742188 37.726562 38.292969 37.691406 37.835938 C 38.769531 37.847656 39.585938 37.402344 40.140625 36.492188 Z M 40.140625 36.492188 "/>
</g>
<mask id="mask16">
  <g filter="url(#alpha)">
<rect x="0" y="0" width="50" height="50" style="fill:rgb(0%,0%,0%);fill-opacity:0.941176;stroke:none;"/>
  </g>
</mask>
<clipPath id="clip17">
  <rect width="50" height="50"/>
</clipPath>
<g id="surface54" clip-path="url(#clip17)">
<path style=" stroke:none;fill-rule:evenodd;fill:rgb(65.098039%,22.352941%,17.647059%);fill-opacity:1;" d="M 35.339844 36.925781 C 35.628906 37.199219 35.957031 37.425781 36.324219 37.597656 C 36.390625 38.125 36.460938 38.652344 36.539062 39.179688 C 36.410156 39.195312 36.28125 39.179688 36.15625 39.132812 C 35.882812 38.394531 35.613281 37.660156 35.339844 36.925781 Z M 35.339844 36.925781 "/>
</g>
<mask id="mask17">
  <g filter="url(#alpha)">
<rect x="0" y="0" width="50" height="50" style="fill:rgb(0%,0%,0%);fill-opacity:0.917647;stroke:none;"/>
  </g>
</mask>
<clipPath id="clip18">
  <rect width="50" height="50"/>
</clipPath>
<g id="surface57" clip-path="url(#clip18)">
<path style=" stroke:none;fill-rule:evenodd;fill:rgb(65.098039%,22.352941%,17.254902%);fill-opacity:1;" d="M 33.515625 38.746094 C 33.414062 39.261719 33.292969 39.773438 33.15625 40.28125 C 33.125 40.320312 33.085938 40.335938 33.039062 40.332031 C 32.957031 40.019531 32.914062 39.703125 32.917969 39.371094 C 33.128906 39.167969 33.328125 38.960938 33.515625 38.746094 Z M 33.515625 38.746094 "/>
</g>
</defs>
<g id="surface1">
<use xlink:href="#surface6" mask="url(#mask0)"/>
<use xlink:href="#surface9" mask="url(#mask1)"/>
<path style=" stroke:none;fill-rule:evenodd;fill:rgb(65.098039%,22.352941%,17.647059%);fill-opacity:1;" d="M 16.289062 1.75 C 16.402344 1.75 16.515625 1.75 16.625 1.75 C 16.507812 2.488281 16.382812 3.222656 16.242188 3.957031 C 15.972656 3.402344 15.746094 2.828125 15.570312 2.230469 C 15.621094 2.148438 15.683594 2.078125 15.761719 2.015625 C 15.941406 1.925781 16.121094 1.835938 16.289062 1.75 Z M 16.289062 1.75 "/>
<use xlink:href="#surface12" mask="url(#mask2)"/>
<path style=" stroke:none;fill-rule:evenodd;fill:rgb(25.490196%,9.019608%,7.058824%);fill-opacity:1;" d="M 14.179688 2.421875 C 14.210938 2.519531 14.242188 2.613281 14.277344 2.710938 C 14.261719 2.75 14.238281 2.78125 14.203125 2.808594 C 14.179688 2.679688 14.171875 2.550781 14.179688 2.421875 Z M 14.179688 2.421875 "/>
<use xlink:href="#surface15" mask="url(#mask3)"/>
<use xlink:href="#surface18" mask="url(#mask4)"/>
<path style=" stroke:none;fill-rule:evenodd;fill:rgb(2.745098%,0.784314%,0.392157%);fill-opacity:1;" d="M 19.167969 5.78125 C 19.570312 5.742188 19.785156 5.917969 19.816406 6.308594 C 19.558594 6.527344 19.261719 6.597656 18.929688 6.527344 C 18.832031 6.402344 18.75 6.265625 18.691406 6.117188 C 18.820312 5.957031 18.980469 5.847656 19.167969 5.78125 Z M 19.167969 5.78125 "/>
<use xlink:href="#surface21" mask="url(#mask5)"/>
<path style=" stroke:none;fill-rule:evenodd;fill:rgb(1.960784%,0.392157%,0%);fill-opacity:1;" d="M 15.714844 6.261719 C 16.101562 6.199219 16.234375 6.359375 16.121094 6.742188 C 15.867188 6.960938 15.570312 7.03125 15.234375 6.957031 C 15.171875 6.808594 15.171875 6.65625 15.234375 6.5 C 15.375 6.367188 15.535156 6.289062 15.714844 6.261719 Z M 15.714844 6.261719 "/>
<use xlink:href="#surface24" mask="url(#mask6)"/>
<use xlink:href="#surface27" mask="url(#mask7)"/>
<use xlink:href="#surface30" mask="url(#mask8)"/>
<use xlink:href="#surface33" mask="url(#mask9)"/>
<use xlink:href="#surface36" mask="url(#mask10)"/>
<use xlink:href="#surface39" mask="url(#mask11)"/>
<path style=" stroke:none;fill-rule:evenodd;fill:rgb(66.27451%,22.745098%,17.647059%);fill-opacity:1;" d="M 34.859375 17.203125 C 34.890625 17.207031 34.914062 17.222656 34.933594 17.25 C 35.886719 21.042969 36.84375 24.835938 37.8125 28.621094 C 38.4375 30.65625 38.949219 32.722656 39.347656 34.8125 C 39.371094 35.277344 39.378906 35.742188 39.371094 36.203125 C 38.363281 36.332031 37.355469 36.476562 36.347656 36.636719 C 36.28125 36.625 36.214844 36.601562 36.15625 36.5625 C 35.777344 36.246094 35.496094 35.855469 35.316406 35.390625 C 35.019531 34.59375 34.785156 33.777344 34.621094 32.941406 C 34.40625 32.824219 34.179688 32.816406 33.949219 32.917969 C 33.789062 32.949219 33.691406 33.046875 33.660156 33.207031 C 34.265625 35.210938 33.929688 37.035156 32.652344 38.675781 C 32.1875 38.589844 31.820312 38.742188 31.550781 39.132812 C 30.933594 33.804688 30.742188 28.460938 30.972656 23.105469 C 31.148438 23.015625 31.324219 22.929688 31.5 22.839844 C 31.652344 22.773438 31.667969 22.691406 31.550781 22.601562 C 31.421875 22.578125 31.296875 22.570312 31.167969 22.578125 C 31.117188 22.578125 31.070312 22.578125 31.023438 22.578125 C 31.023438 22.402344 31.023438 22.226562 31.023438 22.050781 C 31.015625 21.761719 31.023438 21.472656 31.046875 21.183594 C 31.0625 21.125 31.085938 21.070312 31.117188 21.015625 C 31.664062 20.871094 32.191406 20.679688 32.703125 20.441406 C 32.90625 20.238281 32.875 20.078125 32.605469 19.960938 C 32.089844 19.835938 31.601562 19.910156 31.140625 20.175781 C 31.164062 19.324219 31.234375 18.476562 31.359375 17.632812 C 32.53125 17.519531 33.699219 17.375 34.859375 17.203125 Z M 34.859375 17.203125 "/>
<use xlink:href="#surface42" mask="url(#mask12)"/>
<path style=" stroke:none;fill-rule:evenodd;fill:rgb(65.490196%,22.745098%,17.647059%);fill-opacity:1;" d="M 28.71875 23.488281 C 28.71875 22.832031 28.71875 22.175781 28.71875 21.519531 C 29.175781 21.4375 29.640625 21.355469 30.109375 21.28125 C 30.085938 21.839844 30.042969 22.402344 29.992188 22.960938 C 29.574219 23.15625 29.148438 23.332031 28.71875 23.488281 Z M 28.71875 23.488281 "/>
<path style=" stroke:none;fill-rule:evenodd;fill:rgb(31.764706%,10.980392%,8.627451%);fill-opacity:1;" d="M 31.023438 22.050781 C 31.023438 22.226562 31.023438 22.402344 31.023438 22.578125 C 31.070312 22.578125 31.117188 22.578125 31.167969 22.578125 C 31.113281 22.621094 31.050781 22.636719 30.972656 22.625 C 30.957031 22.421875 30.976562 22.230469 31.023438 22.050781 Z M 31.023438 22.050781 "/>
<use xlink:href="#surface45" mask="url(#mask13)"/>
<path style=" stroke:none;fill-rule:evenodd;fill:rgb(25.490196%,9.019608%,7.058824%);fill-opacity:1;" d="M 29.917969 23.585938 C 29.921875 23.558594 29.9375 23.542969 29.964844 23.535156 C 30.027344 23.71875 30.027344 23.894531 29.964844 24.0625 C 29.980469 23.894531 29.964844 23.734375 29.917969 23.585938 Z M 29.917969 23.585938 "/>
<use xlink:href="#surface48" mask="url(#mask14)"/>
<use xlink:href="#surface51" mask="url(#mask15)"/>
<use xlink:href="#surface54" mask="url(#mask16)"/>
<use xlink:href="#surface57" mask="url(#mask17)"/>
</g>
</svg>
