<?xml version="1.0" encoding="UTF-8"?>
<svg xmlns="http://www.w3.org/2000/svg" xmlns:xlink="http://www.w3.org/1999/xlink" width="50pt" height="50pt" viewBox="0 0 50 50" version="1.1">
<defs>
<filter id="alpha" filterUnits="objectBoundingBox" x="0%" y="0%" width="100%" height="100%">
  <feColorMatrix type="matrix" in="SourceGraphic" values="0 0 0 0 1 0 0 0 0 1 0 0 0 0 1 0 0 0 1 0"/>
</filter>
<mask id="mask0">
  <g filter="url(#alpha)">
<rect x="0" y="0" width="50" height="50" style="fill:rgb(0%,0%,0%);fill-opacity:0.988235;stroke:none;"/>
  </g>
</mask>
<clipPath id="clip1">
  <rect width="50" height="50"/>
</clipPath>
<g id="surface6" clip-path="url(#clip1)">
<path style=" stroke:none;fill-rule:evenodd;fill:rgb(66.27451%,23.137255%,17.647059%);fill-opacity:1;" d="M 37.890625 1.042969 C 38.515625 1.011719 38.929688 1.292969 39.125 1.882812 C 39.257812 2.347656 39.15625 2.75 38.828125 3.097656 C 38.738281 3.160156 38.640625 3.21875 38.539062 3.265625 C 37.511719 3.539062 36.570312 3.976562 35.707031 4.585938 C 34.957031 5.132812 34.246094 5.722656 33.570312 6.359375 C 32.308594 7.546875 31.066406 8.75 29.835938 9.972656 C 26.691406 13.234375 24.1875 16.9375 22.324219 21.085938 C 20.992188 24.140625 20.097656 27.316406 19.636719 30.617188 C 19.265625 33.289062 19.34375 35.945312 19.875 38.585938 C 20.058594 39.320312 20.265625 40.050781 20.5 40.769531 C 20.554688 41.019531 20.609375 41.265625 20.667969 41.515625 C 21.53125 39.769531 22.65625 38.214844 24.039062 36.847656 C 24.941406 36.058594 25.917969 35.378906 26.96875 34.804688 C 28.230469 34.132812 29.515625 33.515625 30.832031 32.957031 C 31.457031 32.828125 31.910156 33.050781 32.1875 33.617188 C 32.359375 34.136719 32.25 34.589844 31.863281 34.972656 C 30.855469 35.457031 29.847656 35.945312 28.839844 36.4375 C 27.675781 37.019531 26.605469 37.730469 25.625 38.574219 C 24.335938 39.816406 23.304688 41.242188 22.539062 42.859375 C 22.25 43.535156 22.082031 44.238281 22.035156 44.972656 C 22.015625 45.402344 21.988281 45.835938 21.964844 46.265625 C 21.871094 46.984375 21.476562 47.425781 20.773438 47.601562 C 20.179688 47.636719 19.761719 47.386719 19.515625 46.84375 C 19.3125 46.242188 19.03125 45.683594 18.675781 45.164062 C 17.976562 44.242188 17.296875 43.304688 16.632812 42.355469 C 15.953125 41.4375 15.234375 40.546875 14.472656 39.691406 C 13.898438 39.074219 13.328125 38.449219 12.769531 37.816406 C 11.539062 36.378906 10.304688 34.9375 9.074219 33.496094 C 8.449219 32.808594 7.824219 32.121094 7.199219 31.433594 C 6.851562 30.804688 6.949219 30.257812 7.5 29.789062 C 7.929688 29.496094 8.359375 29.488281 8.796875 29.765625 C 9.585938 30.582031 10.351562 31.417969 11.089844 32.273438 C 12.859375 34.375 14.667969 36.449219 16.515625 38.488281 C 16.980469 39.042969 17.4375 39.601562 17.882812 40.171875 C 17.210938 37.539062 16.96875 34.867188 17.164062 32.152344 C 17.507812 27.640625 18.652344 23.34375 20.59375 19.261719 C 22.34375 15.597656 24.582031 12.277344 27.316406 9.300781 C 28.015625 8.5625 28.722656 7.828125 29.441406 7.105469 C 30.335938 6.257812 31.234375 5.410156 32.128906 4.5625 C 33.078125 3.675781 34.09375 2.886719 35.175781 2.183594 C 36.027344 1.671875 36.933594 1.292969 37.890625 1.042969 Z M 37.890625 1.042969 "/>
</g>
</defs>
<g id="surface1">
<use xlink:href="#surface6" mask="url(#mask0)"/>
</g>
</svg>
