<?xml version="1.0" encoding="UTF-8"?>
<svg xmlns="http://www.w3.org/2000/svg" xmlns:xlink="http://www.w3.org/1999/xlink" width="50pt" height="50pt" viewBox="0 0 50 50" version="1.1">
<defs>
<filter id="alpha" filterUnits="objectBoundingBox" x="0%" y="0%" width="100%" height="100%">
  <feColorMatrix type="matrix" in="SourceGraphic" values="0 0 0 0 1 0 0 0 0 1 0 0 0 0 1 0 0 0 1 0"/>
</filter>
<mask id="mask0">
  <g filter="url(#alpha)">
<rect x="0" y="0" width="50" height="50" style="fill:rgb(0%,0%,0%);fill-opacity:0.980392;stroke:none;"/>
  </g>
</mask>
<clipPath id="clip1">
  <rect width="50" height="50"/>
</clipPath>
<g id="surface6" clip-path="url(#clip1)">
<path style=" stroke:none;fill-rule:evenodd;fill:rgb(0.392157%,0.392157%,0.392157%);fill-opacity:1;" d="M 23.34375 1.210938 C 23.695312 1.257812 24.046875 1.265625 24.398438 1.234375 C 26.382812 1.363281 28.328125 1.710938 30.234375 2.28125 C 31.015625 2.636719 31.398438 3.246094 31.371094 4.117188 C 31.363281 4.789062 31.363281 5.460938 31.371094 6.132812 C 31.445312 7.070312 31.507812 8.003906 31.566406 8.941406 C 31.578125 9.199219 31.574219 9.453125 31.554688 9.710938 C 31.648438 10.75 31.726562 11.789062 31.78125 12.828125 C 31.910156 13.730469 31.984375 14.632812 32.007812 15.542969 C 31.984375 16.300781 31.984375 17.0625 32.007812 17.824219 C 32.003906 18.078125 32 18.335938 31.996094 18.589844 C 31.925781 19.433594 31.875 20.277344 31.839844 21.125 C 31.875 21.902344 31.886719 22.683594 31.878906 23.464844 C 31.816406 24.015625 31.75 24.566406 31.683594 25.121094 C 31.671875 25.632812 31.648438 26.144531 31.613281 26.65625 C 31.46875 28.054688 31.382812 29.453125 31.347656 30.855469 C 31.320312 31.195312 31.253906 31.523438 31.144531 31.839844 C 31.089844 31.96875 31.058594 32.105469 31.050781 32.25 C 31.046875 32.96875 30.816406 33.597656 30.363281 34.144531 C 30.058594 34.476562 29.675781 34.671875 29.226562 34.734375 C 28.609375 34.738281 27.992188 34.753906 27.375 34.78125 C 27.019531 34.820312 26.664062 34.886719 26.320312 34.984375 C 26.410156 35.699219 26.511719 36.410156 26.621094 37.121094 C 26.6875 37.839844 26.722656 38.558594 26.726562 39.28125 C 26.699219 40.457031 26.6875 41.632812 26.691406 42.8125 C 26.761719 43.578125 26.800781 44.34375 26.8125 45.113281 C 26.847656 45.394531 26.878906 45.675781 26.910156 45.957031 C 26.917969 46.613281 26.917969 47.269531 26.910156 47.921875 C 26.976562 47.992188 27.007812 48.074219 26.992188 48.175781 C 26.96875 48.453125 26.816406 48.574219 26.535156 48.535156 C 26.386719 48.46875 26.308594 48.351562 26.296875 48.1875 C 26.285156 48.039062 26.277344 47.890625 26.273438 47.742188 C 26.3125 47.101562 26.324219 46.457031 26.308594 45.8125 C 26.285156 45.609375 26.253906 45.410156 26.210938 45.210938 C 26.1875 44.039062 26.148438 42.867188 26.105469 41.695312 C 26.117188 40.984375 26.136719 40.277344 26.164062 39.570312 C 26.195312 38.710938 26.171875 37.855469 26.09375 37 C 25.988281 36.371094 25.902344 35.738281 25.839844 35.105469 C 25.710938 35.109375 25.582031 35.128906 25.457031 35.164062 C 25.1875 35.269531 24.914062 35.367188 24.640625 35.453125 C 24.191406 35.503906 23.742188 35.5 23.296875 35.441406 C 23.292969 35.429688 23.285156 35.421875 23.273438 35.417969 C 23.238281 35.589844 23.238281 35.757812 23.273438 35.921875 C 23.273438 36.066406 23.273438 36.210938 23.273438 36.355469 C 23.265625 36.398438 23.273438 36.441406 23.296875 36.472656 C 23.296875 36.546875 23.296875 36.617188 23.296875 36.691406 C 23.339844 38.335938 23.425781 39.976562 23.558594 41.609375 C 23.558594 41.660156 23.558594 41.707031 23.558594 41.753906 C 23.554688 41.800781 23.5625 41.839844 23.582031 41.875 C 23.605469 42.226562 23.632812 42.578125 23.667969 42.929688 C 23.886719 44.289062 24 45.65625 24.003906 47.035156 C 24.027344 47.171875 24.058594 47.308594 24.101562 47.445312 C 24.269531 47.609375 24.273438 47.777344 24.113281 47.949219 C 23.929688 48.019531 23.78125 47.972656 23.667969 47.804688 C 23.574219 47.648438 23.515625 47.480469 23.5 47.300781 C 23.453125 46.492188 23.40625 45.683594 23.355469 44.875 C 23.230469 43.804688 23.109375 42.730469 22.996094 41.660156 C 22.839844 39.515625 22.757812 37.371094 22.742188 35.226562 C 22.289062 35.117188 21.832031 35.007812 21.375 34.902344 C 20.84375 34.84375 20.316406 34.765625 19.792969 34.660156 C 19.277344 34.574219 18.84375 34.347656 18.484375 33.976562 C 18.324219 33.753906 18.230469 33.507812 18.195312 33.234375 C 18.128906 32.367188 18.160156 31.5 18.289062 30.640625 C 18.324219 30.105469 18.359375 29.570312 18.386719 29.03125 C 18.421875 26.046875 18.390625 23.0625 18.289062 20.078125 C 18.246094 19.351562 18.191406 18.621094 18.121094 17.894531 C 18.09375 16.992188 18.078125 16.085938 18.074219 15.183594 C 18.03125 14.652344 17.996094 14.117188 17.96875 13.585938 C 18.003906 12.929688 18.085938 12.277344 18.207031 11.628906 C 18.25 11.410156 18.285156 11.1875 18.316406 10.957031 C 18.320312 10.859375 18.324219 10.757812 18.328125 10.65625 C 18.328125 10.414062 18.304688 10.179688 18.253906 9.949219 C 18.140625 9.214844 18.164062 8.488281 18.328125 7.765625 C 18.464844 7.226562 18.527344 6.671875 18.519531 6.109375 C 18.550781 5.4375 18.546875 4.765625 18.507812 4.09375 C 18.46875 4.277344 18.4375 4.460938 18.410156 4.644531 C 18.230469 4.746094 18.140625 4.691406 18.136719 4.488281 C 18.21875 3.304688 18.738281 2.367188 19.695312 1.679688 C 20.445312 1.300781 21.242188 1.121094 22.082031 1.140625 C 22.503906 1.148438 22.925781 1.175781 23.34375 1.210938 Z M 21.566406 1.644531 C 21.003906 1.8125 20.4375 1.972656 19.863281 2.125 C 20.25 1.878906 20.675781 1.730469 21.136719 1.679688 C 21.277344 1.660156 21.421875 1.648438 21.566406 1.644531 Z M 23.296875 36.691406 C 23.417969 38.324219 23.503906 39.964844 23.558594 41.609375 C 23.425781 39.976562 23.339844 38.335938 23.296875 36.691406 Z M 23.296875 36.691406 "/>
</g>
<mask id="mask1">
  <g filter="url(#alpha)">
<rect x="0" y="0" width="50" height="50" style="fill:rgb(0%,0%,0%);fill-opacity:0.72549;stroke:none;"/>
  </g>
</mask>
<clipPath id="clip2">
  <rect width="50" height="50"/>
</clipPath>
<g id="surface9" clip-path="url(#clip2)">
<path style=" stroke:none;fill-rule:evenodd;fill:rgb(84.705882%,84.705882%,84.705882%);fill-opacity:1;" d="M 24.398438 1.234375 C 24.046875 1.265625 23.695312 1.257812 23.34375 1.210938 C 23.695312 1.183594 24.046875 1.191406 24.398438 1.234375 Z M 24.398438 1.234375 "/>
</g>
<mask id="mask2">
  <g filter="url(#alpha)">
<rect x="0" y="0" width="50" height="50" style="fill:rgb(0%,0%,0%);fill-opacity:0.796078;stroke:none;"/>
  </g>
</mask>
<clipPath id="clip3">
  <rect width="50" height="50"/>
</clipPath>
<g id="surface12" clip-path="url(#clip3)">
<path style=" stroke:none;fill-rule:evenodd;fill:rgb(95.294118%,95.294118%,95.294118%);fill-opacity:1;" d="M 18.519531 6.109375 C 18.527344 6.671875 18.464844 7.226562 18.328125 7.765625 C 18.371094 7.207031 18.433594 6.65625 18.519531 6.109375 Z M 18.519531 6.109375 "/>
</g>
<mask id="mask3">
  <g filter="url(#alpha)">
<rect x="0" y="0" width="50" height="50" style="fill:rgb(0%,0%,0%);fill-opacity:0.823529;stroke:none;"/>
  </g>
</mask>
<clipPath id="clip4">
  <rect width="50" height="50"/>
</clipPath>
<g id="surface15" clip-path="url(#clip4)">
<path style=" stroke:none;fill-rule:evenodd;fill:rgb(90.588235%,90.588235%,90.588235%);fill-opacity:1;" d="M 18.253906 9.949219 C 18.304688 10.179688 18.328125 10.414062 18.328125 10.65625 C 18.324219 10.757812 18.320312 10.859375 18.316406 10.957031 C 18.285156 11.1875 18.25 11.410156 18.207031 11.628906 C 18.214844 11.070312 18.234375 10.507812 18.253906 9.949219 Z M 18.253906 9.949219 "/>
</g>
<mask id="mask4">
  <g filter="url(#alpha)">
<rect x="0" y="0" width="50" height="50" style="fill:rgb(0%,0%,0%);fill-opacity:0.313725;stroke:none;"/>
  </g>
</mask>
<clipPath id="clip5">
  <rect width="50" height="50"/>
</clipPath>
<g id="surface18" clip-path="url(#clip5)">
<path style=" stroke:none;fill-rule:evenodd;fill:rgb(82.352941%,82.352941%,82.352941%);fill-opacity:1;" d="M 31.144531 31.839844 C 31.140625 31.984375 31.105469 32.121094 31.050781 32.25 C 31.058594 32.105469 31.089844 31.96875 31.144531 31.839844 Z M 31.144531 31.839844 "/>
</g>
<mask id="mask5">
  <g filter="url(#alpha)">
<rect x="0" y="0" width="50" height="50" style="fill:rgb(0%,0%,0%);fill-opacity:0.996078;stroke:none;"/>
  </g>
</mask>
<clipPath id="clip6">
  <rect width="50" height="50"/>
</clipPath>
<g id="surface21" clip-path="url(#clip6)">
<path style=" stroke:none;fill-rule:evenodd;fill:rgb(99.607843%,99.607843%,99.607843%);fill-opacity:1;" d="M 26.296875 48.1875 C 25.730469 48.40625 25.152344 48.433594 24.566406 48.273438 C 24.390625 48.199219 24.238281 48.089844 24.113281 47.949219 C 24.273438 47.777344 24.269531 47.609375 24.101562 47.445312 C 24.058594 47.308594 24.027344 47.171875 24.003906 47.035156 C 24 45.65625 23.886719 44.289062 23.667969 42.929688 C 23.632812 42.578125 23.605469 42.226562 23.582031 41.875 C 23.589844 41.828125 23.582031 41.789062 23.558594 41.753906 C 23.558594 41.707031 23.558594 41.660156 23.558594 41.609375 C 23.503906 39.964844 23.417969 38.324219 23.296875 36.691406 C 23.296875 36.617188 23.296875 36.546875 23.296875 36.472656 C 23.300781 36.429688 23.292969 36.386719 23.273438 36.355469 C 23.273438 36.210938 23.273438 36.066406 23.273438 35.921875 C 23.265625 35.757812 23.273438 35.597656 23.296875 35.441406 C 23.742188 35.5 24.191406 35.503906 24.640625 35.453125 C 24.914062 35.367188 25.1875 35.269531 25.457031 35.164062 C 25.582031 35.128906 25.710938 35.109375 25.839844 35.105469 C 25.902344 35.738281 25.988281 36.371094 26.09375 37 C 26.171875 37.855469 26.195312 38.710938 26.164062 39.570312 C 26.136719 40.277344 26.117188 40.984375 26.105469 41.695312 C 26.148438 42.867188 26.1875 44.039062 26.210938 45.210938 C 26.253906 45.410156 26.285156 45.609375 26.308594 45.8125 C 26.324219 46.457031 26.3125 47.101562 26.273438 47.742188 C 26.277344 47.890625 26.285156 48.039062 26.296875 48.1875 Z M 26.296875 48.1875 "/>
</g>
</defs>
<g id="surface1">
<use xlink:href="#surface6" mask="url(#mask0)"/>
<use xlink:href="#surface9" mask="url(#mask1)"/>
<path style=" stroke:none;fill-rule:evenodd;fill:rgb(99.607843%,99.607843%,99.607843%);fill-opacity:1;" d="M 19.839844 2.125 C 19.847656 2.125 19.855469 2.125 19.863281 2.125 C 20.4375 1.972656 21.003906 1.8125 21.566406 1.644531 C 22.152344 1.613281 22.738281 1.632812 23.320312 1.703125 C 23.863281 1.722656 24.40625 1.738281 24.953125 1.753906 C 25.980469 1.886719 27.003906 2.046875 28.023438 2.230469 C 28.617188 2.390625 29.210938 2.550781 29.800781 2.710938 C 30.371094 2.882812 30.703125 3.265625 30.796875 3.851562 C 30.800781 4.507812 30.792969 5.164062 30.773438 5.820312 C 30.867188 7.445312 30.957031 9.070312 31.035156 10.695312 C 31.15625 12.230469 31.273438 13.765625 31.398438 15.300781 C 31.414062 16.503906 31.414062 17.703125 31.398438 18.902344 C 31.363281 19.457031 31.324219 20.007812 31.277344 20.558594 C 31.273438 20.773438 31.269531 20.992188 31.265625 21.207031 C 31.292969 21.960938 31.304688 22.710938 31.300781 23.464844 C 31.171875 24.417969 31.085938 25.378906 31.035156 26.34375 C 30.929688 27.269531 30.839844 28.199219 30.773438 29.128906 C 30.765625 29.65625 30.757812 30.183594 30.75 30.714844 C 30.730469 30.824219 30.714844 30.9375 30.699219 31.050781 C 30.640625 31.332031 30.566406 31.613281 30.484375 31.890625 C 30.414062 32.238281 30.367188 32.589844 30.339844 32.945312 C 30.222656 33.324219 30.011719 33.640625 29.703125 33.894531 C 29.496094 34.035156 29.261719 34.117188 29.007812 34.132812 C 28.511719 34.128906 28.015625 34.121094 27.519531 34.109375 C 27.097656 34.171875 26.675781 34.253906 26.261719 34.363281 C 26.257812 34.316406 26.253906 34.273438 26.25 34.230469 C 26.253906 34.144531 26.277344 34.070312 26.320312 34 C 26.3125 33.9375 26.28125 33.894531 26.222656 33.871094 C 26.078125 33.820312 25.976562 33.863281 25.925781 34 C 25.875 34.148438 25.84375 34.300781 25.839844 34.457031 C 25.433594 34.507812 25.042969 34.609375 24.664062 34.757812 C 24.195312 34.847656 23.730469 34.835938 23.273438 34.722656 C 23.3125 34.53125 23.332031 34.339844 23.332031 34.144531 C 23.257812 34.023438 23.148438 33.976562 23.007812 34.011719 C 22.988281 34.035156 22.96875 34.054688 22.949219 34.074219 C 22.921875 34.199219 22.898438 34.328125 22.875 34.457031 C 22.863281 34.5 22.839844 34.53125 22.804688 34.554688 C 21.835938 34.34375 20.863281 34.15625 19.886719 33.988281 C 19.621094 33.921875 19.363281 33.824219 19.117188 33.703125 C 18.980469 33.601562 18.886719 33.46875 18.84375 33.304688 C 18.800781 33.132812 18.769531 32.957031 18.746094 32.777344 C 18.730469 32.394531 18.730469 32.007812 18.746094 31.625 C 18.851562 30.898438 18.921875 30.171875 18.964844 29.441406 C 18.980469 27.214844 18.988281 24.992188 18.988281 22.769531 C 18.941406 21.671875 18.902344 20.574219 18.867188 19.480469 C 18.679688 17.925781 18.605469 16.363281 18.652344 14.796875 C 18.585938 14.214844 18.558594 13.632812 18.578125 13.046875 C 18.683594 12.375 18.777344 11.703125 18.867188 11.03125 C 18.894531 10.5 18.871094 9.972656 18.796875 9.445312 C 18.777344 9.117188 18.777344 8.789062 18.796875 8.460938 C 18.882812 7.972656 18.972656 7.484375 19.058594 6.996094 C 19.082031 6.757812 19.097656 6.519531 19.105469 6.277344 C 19.109375 5.277344 19.09375 4.277344 19.058594 3.277344 C 19.117188 3.140625 19.191406 3.011719 19.273438 2.890625 C 19.289062 2.792969 19.289062 2.699219 19.273438 2.605469 C 19.382812 2.464844 19.507812 2.339844 19.648438 2.230469 C 19.710938 2.1875 19.773438 2.152344 19.839844 2.125 Z M 19.839844 2.125 "/>
<path style=" stroke:none;fill-rule:evenodd;fill:rgb(2.352941%,1.568627%,1.568627%);fill-opacity:1;" d="M 24.160156 4.574219 C 24.675781 4.550781 25.179688 4.621094 25.671875 4.777344 C 25.808594 4.835938 25.9375 4.910156 26.054688 4.992188 C 26.261719 5.195312 26.460938 5.402344 26.65625 5.617188 C 26.734375 5.660156 26.8125 5.695312 26.894531 5.726562 C 26.925781 5.789062 26.925781 5.851562 26.894531 5.917969 C 27.84375 6.785156 28.152344 7.84375 27.820312 9.085938 C 27.421875 10.03125 26.738281 10.675781 25.769531 11.019531 C 24.859375 11.371094 23.980469 11.3125 23.128906 10.851562 C 22.710938 10.632812 22.328125 10.367188 21.976562 10.058594 C 21.179688 9.230469 20.917969 8.257812 21.195312 7.140625 C 21.507812 6.472656 21.910156 5.871094 22.40625 5.328125 C 22.902344 4.871094 23.488281 4.617188 24.160156 4.574219 Z M 24.160156 4.574219 "/>
<path style=" stroke:none;fill-rule:evenodd;fill:rgb(66.27451%,22.745098%,17.647059%);fill-opacity:1;" d="M 23.992188 4.910156 C 24.34375 4.90625 24.695312 4.910156 25.046875 4.921875 C 25.382812 4.972656 25.679688 5.109375 25.9375 5.328125 C 25.574219 5.199219 25.203125 5.074219 24.832031 4.957031 C 24.824219 4.964844 24.816406 4.972656 24.808594 4.980469 C 25.265625 5.128906 25.707031 5.316406 26.128906 5.542969 C 26.214844 5.609375 26.296875 5.679688 26.367188 5.761719 C 26.976562 6.097656 27.386719 6.597656 27.605469 7.261719 C 27.703125 7.59375 27.765625 7.933594 27.785156 8.28125 C 27.613281 9.300781 27.078125 10.058594 26.175781 10.5625 C 25.757812 10.777344 25.320312 10.921875 24.855469 10.992188 C 24.269531 11.039062 23.726562 10.910156 23.222656 10.609375 C 22.773438 10.371094 22.371094 10.070312 22.011719 9.710938 C 21.457031 9.035156 21.257812 8.265625 21.410156 7.40625 C 21.738281 6.578125 22.238281 5.878906 22.910156 5.304688 C 23.242188 5.089844 23.601562 4.957031 23.992188 4.910156 Z M 23.992188 4.910156 "/>
<use xlink:href="#surface12" mask="url(#mask2)"/>
<use xlink:href="#surface15" mask="url(#mask3)"/>
<path style=" stroke:none;fill-rule:evenodd;fill:rgb(1.960784%,1.960784%,1.960784%);fill-opacity:1;" d="M 24.59375 14.460938 C 25.660156 14.339844 26.613281 14.605469 27.449219 15.265625 C 28.441406 16.226562 28.773438 17.382812 28.445312 18.734375 C 28.261719 19.363281 27.929688 19.894531 27.449219 20.332031 C 27.082031 20.644531 26.679688 20.90625 26.25 21.125 C 26.042969 21.195312 25.835938 21.25 25.625 21.292969 C 25.308594 21.324219 24.992188 21.359375 24.675781 21.398438 C 24.417969 21.398438 24.171875 21.335938 23.945312 21.21875 C 23.535156 20.960938 23.160156 20.652344 22.828125 20.296875 C 22.207031 19.394531 22.054688 18.421875 22.371094 17.367188 C 22.558594 16.84375 22.734375 16.3125 22.898438 15.78125 C 22.941406 15.675781 22.988281 15.570312 23.042969 15.46875 C 23.179688 15.300781 23.316406 15.132812 23.453125 14.964844 C 23.769531 14.65625 24.148438 14.488281 24.59375 14.460938 Z M 24.59375 14.460938 "/>
<path style=" stroke:none;fill-rule:evenodd;fill:rgb(62.745098%,56.862745%,58.823529%);fill-opacity:1;" d="M 24.566406 14.703125 C 25.71875 14.5625 26.699219 14.898438 27.507812 15.710938 C 28.195312 16.558594 28.417969 17.519531 28.179688 18.589844 C 27.957031 19.347656 27.523438 19.953125 26.871094 20.402344 C 26.566406 20.648438 26.222656 20.824219 25.839844 20.929688 C 25.550781 20.96875 25.261719 21.007812 24.976562 21.050781 C 24.554688 21.140625 24.179688 21.050781 23.847656 20.789062 C 22.902344 20.160156 22.476562 19.273438 22.5625 18.136719 C 22.570312 18.015625 22.585938 17.894531 22.613281 17.773438 C 22.816406 17.109375 23.035156 16.445312 23.257812 15.78125 C 23.320312 15.660156 23.410156 15.566406 23.535156 15.507812 C 23.863281 15.394531 24.199219 15.34375 24.542969 15.363281 C 24.636719 15.3125 24.664062 15.238281 24.628906 15.132812 C 24.609375 15.097656 24.578125 15.070312 24.542969 15.050781 C 24.398438 15.035156 24.257812 15.035156 24.113281 15.050781 C 23.933594 15.058594 23.757812 15.085938 23.582031 15.121094 C 23.859375 14.859375 24.1875 14.71875 24.566406 14.703125 Z M 24.566406 14.703125 "/>
<path style=" stroke:none;fill-rule:evenodd;fill:rgb(1.568627%,1.960784%,1.960784%);fill-opacity:1;" d="M 24.617188 24.6875 C 24.910156 24.667969 25.199219 24.707031 25.480469 24.796875 C 26.007812 24.980469 26.519531 25.195312 27.015625 25.445312 C 27.617188 25.847656 28.027344 26.394531 28.253906 27.089844 C 28.515625 27.816406 28.523438 28.542969 28.277344 29.273438 C 27.996094 29.953125 27.511719 30.417969 26.824219 30.675781 C 24.652344 31.328125 23.09375 30.628906 22.15625 28.578125 C 21.890625 27.800781 21.832031 27.007812 21.988281 26.199219 C 22.117188 25.730469 22.421875 25.460938 22.910156 25.394531 C 23.058594 25.203125 23.234375 25.042969 23.441406 24.914062 C 23.507812 24.886719 23.582031 24.859375 23.65625 24.84375 C 23.980469 24.808594 24.300781 24.757812 24.617188 24.6875 Z M 24.617188 24.6875 "/>
<path style=" stroke:none;fill-rule:evenodd;fill:rgb(57.647059%,60.784314%,70.980392%);fill-opacity:1;" d="M 24.328125 24.976562 C 24.667969 24.957031 25.003906 24.984375 25.335938 25.058594 C 25.949219 25.246094 26.527344 25.511719 27.0625 25.851562 C 27.945312 26.691406 28.277344 27.710938 28.058594 28.914062 C 27.816406 29.765625 27.261719 30.289062 26.390625 30.484375 C 25.765625 30.601562 25.140625 30.59375 24.519531 30.460938 C 23.960938 30.269531 23.492188 29.945312 23.117188 29.488281 C 22.300781 28.503906 22.050781 27.394531 22.371094 26.152344 C 22.429688 26.015625 22.519531 25.90625 22.648438 25.828125 C 22.71875 25.832031 22.792969 25.832031 22.863281 25.828125 C 22.882812 25.792969 22.90625 25.757812 22.9375 25.730469 C 23.058594 25.722656 23.167969 25.679688 23.257812 25.601562 C 23.277344 25.519531 23.273438 25.4375 23.246094 25.359375 C 23.347656 25.234375 23.476562 25.148438 23.632812 25.109375 C 23.867188 25.0625 24.097656 25.019531 24.328125 24.976562 Z M 24.328125 24.976562 "/>
<use xlink:href="#surface18" mask="url(#mask4)"/>
<use xlink:href="#surface21" mask="url(#mask5)"/>
<path style=" stroke:none;fill-rule:evenodd;fill:rgb(61.568627%,61.568627%,61.568627%);fill-opacity:1;" d="M 23.296875 35.441406 C 23.273438 35.597656 23.265625 35.757812 23.273438 35.921875 C 23.238281 35.757812 23.238281 35.589844 23.273438 35.417969 C 23.285156 35.421875 23.292969 35.429688 23.296875 35.441406 Z M 23.296875 35.441406 "/>
</g>
</svg>
