<?xml version="1.0" encoding="UTF-8"?>
<svg xmlns="http://www.w3.org/2000/svg" xmlns:xlink="http://www.w3.org/1999/xlink" width="50pt" height="50pt" viewBox="0 0 50 50" version="1.1">
<defs>
<filter id="alpha" filterUnits="objectBoundingBox" x="0%" y="0%" width="100%" height="100%">
  <feColorMatrix type="matrix" in="SourceGraphic" values="0 0 0 0 1 0 0 0 0 1 0 0 0 0 1 0 0 0 1 0"/>
</filter>
<mask id="mask0">
  <g filter="url(#alpha)">
<rect x="0" y="0" width="50" height="50" style="fill:rgb(0%,0%,0%);fill-opacity:0.992157;stroke:none;"/>
  </g>
</mask>
<clipPath id="clip1">
  <rect width="50" height="50"/>
</clipPath>
<g id="surface6" clip-path="url(#clip1)">
<path style=" stroke:none;fill-rule:evenodd;fill:rgb(66.27451%,23.137255%,17.647059%);fill-opacity:1;" d="M 30.328125 0.707031 C 31.105469 0.71875 31.542969 1.109375 31.648438 1.871094 C 31.621094 2.210938 31.496094 2.511719 31.277344 2.773438 C 31.082031 2.9375 30.886719 3.101562 30.6875 3.265625 C 29 4.421875 27.328125 5.601562 25.671875 6.804688 C 26.058594 7.023438 26.464844 7.1875 26.894531 7.296875 C 27.660156 7.480469 28.429688 7.648438 29.199219 7.800781 C 29.5625 7.875 29.90625 7.992188 30.234375 8.160156 C 30.59375 8.476562 30.707031 8.863281 30.582031 9.324219 C 30.390625 9.851562 30.019531 10.078125 29.464844 10.007812 C 29.140625 9.925781 28.8125 9.859375 28.480469 9.816406 C 27.832031 9.746094 27.183594 9.683594 26.535156 9.625 C 26.195312 9.589844 25.859375 9.527344 25.527344 9.445312 C 25.511719 9.453125 25.496094 9.460938 25.480469 9.46875 C 25.757812 9.972656 26.019531 10.484375 26.261719 11.003906 C 27.070312 12.945312 27.71875 14.9375 28.203125 16.984375 C 28.355469 17.730469 28.457031 18.488281 28.503906 19.25 C 28.519531 19.609375 28.4375 19.941406 28.253906 20.246094 C 27.871094 20.671875 27.414062 20.785156 26.871094 20.59375 C 26.554688 20.445312 26.328125 20.210938 26.1875 19.886719 C 25.992188 19.175781 25.769531 18.46875 25.515625 17.773438 C 24.972656 15.644531 24.285156 13.566406 23.453125 11.535156 C 23.050781 10.722656 22.640625 9.914062 22.226562 9.109375 C 22.027344 8.691406 21.859375 8.257812 21.722656 7.8125 C 21.640625 7.214844 21.839844 6.730469 22.3125 6.359375 C 22.476562 6.257812 22.644531 6.164062 22.816406 6.074219 C 24.832031 4.511719 26.855469 2.960938 28.886719 1.417969 C 29.214844 1.1875 29.558594 0.984375 29.921875 0.816406 C 30.058594 0.769531 30.191406 0.730469 30.328125 0.707031 Z M 30.328125 0.707031 "/>
</g>
<mask id="mask1">
  <g filter="url(#alpha)">
<rect x="0" y="0" width="50" height="50" style="fill:rgb(0%,0%,0%);fill-opacity:0.988235;stroke:none;"/>
  </g>
</mask>
<clipPath id="clip2">
  <rect width="50" height="50"/>
</clipPath>
<g id="surface9" clip-path="url(#clip2)">
<path style=" stroke:none;fill-rule:evenodd;fill:rgb(66.27451%,23.137255%,17.647059%);fill-opacity:1;" d="M 14.558594 9.828125 C 14.789062 9.824219 15.023438 9.828125 15.253906 9.839844 C 15.683594 9.976562 15.90625 10.265625 15.925781 10.71875 C 15.917969 11.113281 15.734375 11.390625 15.375 11.546875 C 14.757812 11.589844 14.179688 11.765625 13.644531 12.074219 C 13.03125 12.410156 12.464844 12.808594 11.941406 13.273438 C 11.136719 13.992188 10.429688 14.785156 9.816406 15.664062 C 9.179688 16.597656 8.617188 17.582031 8.136719 18.613281 C 7.914062 18.96875 7.6875 19.320312 7.464844 19.671875 C 7.238281 19.933594 6.957031 20.03125 6.613281 19.972656 C 6.246094 19.90625 6.046875 19.691406 6.011719 19.324219 C 6.0625 18.910156 6.121094 18.496094 6.191406 18.085938 C 6.597656 16.863281 7.164062 15.726562 7.898438 14.679688 C 9.101562 12.984375 10.601562 11.621094 12.398438 10.585938 C 13.074219 10.203125 13.796875 9.949219 14.558594 9.828125 Z M 14.558594 9.828125 "/>
</g>
<mask id="mask2">
  <g filter="url(#alpha)">
<rect x="0" y="0" width="50" height="50" style="fill:rgb(0%,0%,0%);fill-opacity:0.984314;stroke:none;"/>
  </g>
</mask>
<clipPath id="clip3">
  <rect width="50" height="50"/>
</clipPath>
<g id="surface12" clip-path="url(#clip3)">
<path style=" stroke:none;fill-rule:evenodd;fill:rgb(66.27451%,23.137255%,17.647059%);fill-opacity:1;" d="M 36.496094 10.453125 C 36.90625 10.386719 37.238281 10.515625 37.492188 10.835938 C 38.421875 12.027344 39.542969 12.984375 40.867188 13.707031 C 41.246094 14.046875 41.347656 14.460938 41.167969 14.941406 C 40.933594 15.375 40.566406 15.554688 40.074219 15.484375 C 39.945312 15.453125 39.828125 15.40625 39.714844 15.339844 C 38.550781 14.636719 37.515625 13.777344 36.605469 12.757812 C 36.328125 12.425781 36.082031 12.074219 35.863281 11.703125 C 35.722656 11.105469 35.9375 10.6875 36.496094 10.453125 Z M 36.496094 10.453125 "/>
</g>
<mask id="mask3">
  <g filter="url(#alpha)">
<rect x="0" y="0" width="50" height="50" style="fill:rgb(0%,0%,0%);fill-opacity:0.976471;stroke:none;"/>
  </g>
</mask>
<clipPath id="clip4">
  <rect width="50" height="50"/>
</clipPath>
<g id="surface15" clip-path="url(#clip4)">
<path style=" stroke:none;fill-rule:evenodd;fill:rgb(66.27451%,23.137255%,17.647059%);fill-opacity:1;" d="M 44.539062 24.015625 C 44.972656 24.027344 45.230469 24.246094 45.320312 24.664062 C 45.34375 25.167969 45.335938 25.671875 45.296875 26.175781 C 45.105469 26.589844 44.789062 26.738281 44.347656 26.621094 C 44.085938 26.519531 43.929688 26.332031 43.878906 26.054688 C 43.859375 25.558594 43.867188 25.0625 43.902344 24.566406 C 44 24.25 44.214844 24.066406 44.539062 24.015625 Z M 44.539062 24.015625 "/>
</g>
<mask id="mask4">
  <g filter="url(#alpha)">
<rect x="0" y="0" width="50" height="50" style="fill:rgb(0%,0%,0%);fill-opacity:0.988235;stroke:none;"/>
  </g>
</mask>
<clipPath id="clip5">
  <rect width="50" height="50"/>
</clipPath>
<g id="surface18" clip-path="url(#clip5)">
<path style=" stroke:none;fill-rule:evenodd;fill:rgb(66.27451%,23.137255%,17.647059%);fill-opacity:1;" d="M 4.644531 28.914062 C 5.320312 28.878906 5.710938 29.195312 5.820312 29.859375 C 5.761719 30.117188 5.683594 30.367188 5.59375 30.617188 C 5.332031 31.511719 5.324219 32.40625 5.570312 33.304688 C 5.835938 34.117188 6.089844 34.933594 6.335938 35.753906 C 6.460938 36.21875 6.507812 36.691406 6.480469 37.171875 C 6.3125 37.632812 5.980469 37.84375 5.484375 37.804688 C 5.191406 37.753906 4.972656 37.597656 4.824219 37.339844 C 4.753906 36.972656 4.667969 36.613281 4.5625 36.257812 C 4.28125 35.5 4.011719 34.738281 3.746094 33.976562 C 3.332031 32.503906 3.386719 31.046875 3.914062 29.609375 C 4.054688 29.265625 4.296875 29.03125 4.644531 28.914062 Z M 4.644531 28.914062 "/>
</g>
<mask id="mask5">
  <g filter="url(#alpha)">
<rect x="0" y="0" width="50" height="50" style="fill:rgb(0%,0%,0%);fill-opacity:0.980392;stroke:none;"/>
  </g>
</mask>
<clipPath id="clip6">
  <rect width="50" height="50"/>
</clipPath>
<g id="surface21" clip-path="url(#clip6)">
<path style=" stroke:none;fill-rule:evenodd;fill:rgb(66.27451%,23.137255%,17.647059%);fill-opacity:1;" d="M 41.632812 36.570312 C 42.277344 36.503906 42.609375 36.792969 42.628906 37.433594 C 42.441406 37.914062 42.265625 38.402344 42.101562 38.898438 C 42 39.261719 41.910156 39.628906 41.839844 40.003906 C 41.714844 40.308594 41.488281 40.480469 41.15625 40.519531 C 40.808594 40.558594 40.542969 40.4375 40.351562 40.144531 C 40.25 39.949219 40.21875 39.742188 40.253906 39.523438 C 40.453125 38.570312 40.78125 37.667969 41.238281 36.808594 C 41.351562 36.695312 41.484375 36.613281 41.632812 36.570312 Z M 41.632812 36.570312 "/>
</g>
<mask id="mask6">
  <g filter="url(#alpha)">
<rect x="0" y="0" width="50" height="50" style="fill:rgb(0%,0%,0%);fill-opacity:0.980392;stroke:none;"/>
  </g>
</mask>
<clipPath id="clip7">
  <rect width="50" height="50"/>
</clipPath>
<g id="surface24" clip-path="url(#clip7)">
<path style=" stroke:none;fill-rule:evenodd;fill:rgb(66.27451%,23.137255%,17.647059%);fill-opacity:1;" d="M 11.796875 44.851562 C 12.003906 44.839844 12.195312 44.882812 12.375 44.984375 C 12.699219 45.355469 13.066406 45.675781 13.476562 45.941406 C 13.988281 46.222656 14.515625 46.460938 15.0625 46.664062 C 15.363281 46.949219 15.398438 47.265625 15.171875 47.613281 C 15.050781 47.75 14.898438 47.820312 14.714844 47.828125 C 14.023438 47.796875 13.378906 47.609375 12.78125 47.261719 C 12.203125 46.921875 11.691406 46.496094 11.257812 45.980469 C 11.066406 45.417969 11.246094 45.042969 11.796875 44.851562 Z M 11.796875 44.851562 "/>
</g>
<mask id="mask7">
  <g filter="url(#alpha)">
<rect x="0" y="0" width="50" height="50" style="fill:rgb(0%,0%,0%);fill-opacity:0.972549;stroke:none;"/>
  </g>
</mask>
<clipPath id="clip8">
  <rect width="50" height="50"/>
</clipPath>
<g id="surface27" clip-path="url(#clip8)">
<path style=" stroke:none;fill-rule:evenodd;fill:rgb(66.27451%,23.137255%,17.647059%);fill-opacity:1;" d="M 29.105469 47.417969 C 29.605469 47.386719 29.832031 47.621094 29.789062 48.117188 C 29.738281 48.316406 29.617188 48.449219 29.417969 48.511719 C 29.003906 48.652344 28.585938 48.789062 28.167969 48.917969 C 27.867188 48.949219 27.65625 48.824219 27.53125 48.546875 C 27.472656 48.292969 27.539062 48.082031 27.738281 47.910156 C 28.191406 47.738281 28.648438 47.574219 29.105469 47.417969 Z M 29.105469 47.417969 "/>
</g>
</defs>
<g id="surface1">
<use xlink:href="#surface6" mask="url(#mask0)"/>
<use xlink:href="#surface9" mask="url(#mask1)"/>
<use xlink:href="#surface12" mask="url(#mask2)"/>
<use xlink:href="#surface15" mask="url(#mask3)"/>
<use xlink:href="#surface18" mask="url(#mask4)"/>
<use xlink:href="#surface21" mask="url(#mask5)"/>
<use xlink:href="#surface24" mask="url(#mask6)"/>
<use xlink:href="#surface27" mask="url(#mask7)"/>
</g>
</svg>
