<?xml version="1.0" encoding="UTF-8"?>
<svg xmlns="http://www.w3.org/2000/svg" xmlns:xlink="http://www.w3.org/1999/xlink" width="50pt" height="50pt" viewBox="0 0 50 50" version="1.1">
<defs>
<filter id="alpha" filterUnits="objectBoundingBox" x="0%" y="0%" width="100%" height="100%">
  <feColorMatrix type="matrix" in="SourceGraphic" values="0 0 0 0 1 0 0 0 0 1 0 0 0 0 1 0 0 0 1 0"/>
</filter>
<mask id="mask0">
  <g filter="url(#alpha)">
<rect x="0" y="0" width="50" height="50" style="fill:rgb(0%,0%,0%);fill-opacity:0.972549;stroke:none;"/>
  </g>
</mask>
<clipPath id="clip1">
  <rect width="50" height="50"/>
</clipPath>
<g id="surface6" clip-path="url(#clip1)">
<path style=" stroke:none;fill-rule:evenodd;fill:rgb(0.392157%,0.392157%,0.392157%);fill-opacity:1;" d="M 33.085938 7.84375 C 33.601562 8.636719 34 9.484375 34.285156 10.390625 C 34.699219 11.910156 34.910156 13.460938 34.910156 15.042969 C 35.066406 19.90625 32.953125 23.367188 28.574219 25.433594 C 27.941406 25.703125 27.285156 25.90625 26.609375 26.03125 C 26.558594 26.488281 26.511719 26.945312 26.464844 27.398438 C 26.464844 28.011719 26.671875 28.539062 27.085938 28.984375 C 27.496094 29.3125 27.945312 29.582031 28.429688 29.796875 C 29.722656 30.277344 30.984375 30.820312 32.222656 31.429688 C 33.644531 32.238281 34.246094 33.460938 34.019531 35.101562 C 33.835938 36.117188 33.347656 36.957031 32.558594 37.621094 C 30.945312 38.832031 29.136719 39.613281 27.136719 39.972656 C 25.390625 40.230469 23.648438 40.503906 21.90625 40.785156 C 21.140625 40.945312 20.421875 41.21875 19.746094 41.601562 C 19.242188 42.0625 18.929688 42.628906 18.808594 43.304688 C 18.597656 44.097656 18.691406 44.851562 19.097656 45.5625 C 19.464844 46.058594 19.832031 46.554688 20.203125 47.050781 C 20.3125 47.25 20.40625 47.460938 20.488281 47.671875 C 20.511719 47.996094 20.359375 48.1875 20.035156 48.25 C 19.894531 48.214844 19.777344 48.152344 19.671875 48.054688 C 19.191406 47.539062 18.742188 46.996094 18.332031 46.425781 C 17.582031 45.261719 17.40625 44.015625 17.800781 42.683594 C 18.113281 41.488281 18.84375 40.664062 19.984375 40.210938 C 20.871094 39.890625 21.785156 39.664062 22.722656 39.539062 C 24.167969 39.371094 25.605469 39.164062 27.039062 38.914062 C 28.332031 38.65625 29.5625 38.222656 30.734375 37.621094 C 31.441406 37.246094 32.039062 36.742188 32.535156 36.109375 C 33.191406 35.125 33.238281 34.117188 32.675781 33.085938 C 32.140625 32.523438 31.507812 32.101562 30.78125 31.8125 C 29.671875 31.347656 28.570312 30.867188 27.472656 30.375 C 26.765625 30.019531 26.210938 29.5 25.816406 28.816406 C 25.722656 28.601562 25.65625 28.375 25.625 28.144531 C 25.628906 27.484375 25.667969 26.828125 25.742188 26.175781 C 24.683594 26.316406 23.660156 26.179688 22.671875 25.769531 C 22.414062 25.636719 22.171875 25.488281 21.953125 25.3125 C 21.929688 25.246094 21.882812 25.210938 21.808594 25.214844 C 20.726562 24.386719 19.828125 23.394531 19.121094 22.242188 C 18.410156 21.027344 17.890625 19.734375 17.5625 18.355469 C 17.050781 16.351562 16.699219 14.320312 16.507812 12.261719 C 16.382812 10.757812 16.441406 9.261719 16.675781 7.773438 C 16.585938 7.640625 16.519531 7.5 16.484375 7.339844 C 17.050781 3.375 19.335938 1.289062 23.34375 1.078125 C 24.222656 1.054688 25.039062 1.269531 25.792969 1.726562 C 27.152344 2.472656 28.464844 3.285156 29.726562 4.175781 C 30.550781 4.933594 31.34375 5.726562 32.101562 6.550781 C 32.453125 6.96875 32.78125 7.398438 33.085938 7.84375 Z M 30.6875 22.914062 C 30.453125 23.152344 30.199219 23.367188 29.917969 23.558594 C 29.722656 23.707031 29.515625 23.824219 29.292969 23.921875 C 29.746094 23.566406 30.207031 23.230469 30.6875 22.914062 Z M 29.292969 23.921875 C 29.273438 23.988281 29.222656 24.019531 29.152344 24.015625 C 29.171875 23.949219 29.222656 23.917969 29.292969 23.921875 Z M 29.292969 23.921875 "/>
</g>
<mask id="mask1">
  <g filter="url(#alpha)">
<rect x="0" y="0" width="50" height="50" style="fill:rgb(0%,0%,0%);fill-opacity:0.737255;stroke:none;"/>
  </g>
</mask>
<clipPath id="clip2">
  <rect width="50" height="50"/>
</clipPath>
<g id="surface9" clip-path="url(#clip2)">
<path style=" stroke:none;fill-rule:evenodd;fill:rgb(89.019608%,87.843137%,85.098039%);fill-opacity:1;" d="M 33.085938 7.84375 C 33.753906 8.558594 34.15625 9.40625 34.285156 10.390625 C 34 9.484375 33.601562 8.636719 33.085938 7.84375 Z M 33.085938 7.84375 "/>
</g>
<mask id="mask2">
  <g filter="url(#alpha)">
<rect x="0" y="0" width="50" height="50" style="fill:rgb(0%,0%,0%);fill-opacity:0.796078;stroke:none;"/>
  </g>
</mask>
<clipPath id="clip3">
  <rect width="50" height="50"/>
</clipPath>
<g id="surface12" clip-path="url(#clip3)">
<path style=" stroke:none;fill-rule:evenodd;fill:rgb(90.980392%,89.411765%,86.666667%);fill-opacity:1;" d="M 19.121094 22.242188 C 19.828125 23.394531 20.726562 24.386719 21.808594 25.214844 C 20.539062 24.5625 19.644531 23.570312 19.121094 22.242188 Z M 19.121094 22.242188 "/>
</g>
<mask id="mask3">
  <g filter="url(#alpha)">
<rect x="0" y="0" width="50" height="50" style="fill:rgb(0%,0%,0%);fill-opacity:0.988235;stroke:none;"/>
  </g>
</mask>
<clipPath id="clip4">
  <rect width="50" height="50"/>
</clipPath>
<g id="surface15" clip-path="url(#clip4)">
<path style=" stroke:none;fill-rule:evenodd;fill:rgb(49.019608%,48.235294%,46.666667%);fill-opacity:1;" d="M 21.808594 25.214844 C 21.882812 25.210938 21.929688 25.246094 21.953125 25.3125 C 21.878906 25.316406 21.832031 25.285156 21.808594 25.214844 Z M 21.808594 25.214844 "/>
</g>
</defs>
<g id="surface1">
<use xlink:href="#surface6" mask="url(#mask0)"/>
<path style=" stroke:none;fill-rule:evenodd;fill:rgb(47.45098%,46.666667%,45.490196%);fill-opacity:1;" d="M 23.007812 2.085938 C 23.175781 2.039062 23.351562 2.023438 23.535156 2.039062 C 23.535156 2.101562 23.535156 2.167969 23.535156 2.230469 C 23.492188 2.195312 23.476562 2.148438 23.488281 2.085938 C 23.328125 2.085938 23.167969 2.085938 23.007812 2.085938 Z M 23.007812 2.085938 "/>
<path style=" stroke:none;fill-rule:evenodd;fill:rgb(94.509804%,92.941176%,90.196078%);fill-opacity:1;" d="M 23.007812 2.085938 C 23.167969 2.085938 23.328125 2.085938 23.488281 2.085938 C 23.476562 2.148438 23.492188 2.195312 23.535156 2.230469 C 23.671875 2.59375 23.789062 2.960938 23.894531 3.335938 C 24.265625 5.429688 24.632812 7.523438 25 9.621094 C 25.023438 9.78125 25.03125 9.941406 25.023438 10.101562 C 24.890625 10.113281 24.769531 10.164062 24.664062 10.246094 C 24.207031 11.019531 24.054688 11.847656 24.207031 12.738281 C 22.683594 12.925781 21.164062 13.140625 19.648438 13.386719 C 18.882812 13.484375 18.117188 13.519531 17.347656 13.484375 C 17.015625 11.601562 16.925781 9.707031 17.082031 7.796875 C 17.265625 7.695312 17.410156 7.550781 17.515625 7.367188 C 17.835938 4.757812 19.25 3.070312 21.761719 2.304688 C 22.167969 2.183594 22.585938 2.113281 23.007812 2.085938 Z M 23.007812 2.085938 "/>
<path style=" stroke:none;fill-rule:evenodd;fill:rgb(94.509804%,92.941176%,90.196078%);fill-opacity:1;" d="M 24.0625 2.136719 C 24.648438 2.273438 25.191406 2.507812 25.695312 2.832031 C 26.457031 3.347656 27.238281 3.828125 28.046875 4.269531 C 28.492188 4.570312 28.925781 4.890625 29.34375 5.230469 C 30.347656 6.171875 31.28125 7.171875 32.148438 8.230469 C 32.984375 9.429688 33.480469 10.757812 33.636719 12.210938 C 33.601562 12.183594 33.5625 12.15625 33.515625 12.140625 C 32.75 12.109375 31.980469 12.109375 31.214844 12.140625 C 29.816406 12.269531 28.425781 12.4375 27.039062 12.644531 C 26.90625 11.480469 26.320312 10.632812 25.289062 10.101562 C 25.269531 9.457031 25.207031 8.816406 25.097656 8.179688 C 24.84375 6.917969 24.589844 5.652344 24.328125 4.390625 C 24.210938 3.640625 24.125 2.890625 24.0625 2.136719 Z M 24.0625 2.136719 "/>
<use xlink:href="#surface9" mask="url(#mask1)"/>
<path style=" stroke:none;fill-rule:evenodd;fill:rgb(92.941176%,91.764706%,89.019608%);fill-opacity:1;" d="M 25.214844 11.011719 C 25.59375 11.238281 25.875 11.558594 26.054688 11.972656 C 26.140625 12.15625 26.203125 12.347656 26.246094 12.546875 C 26.328125 13.367188 26.25 14.164062 26.007812 14.945312 C 25.960938 15.050781 25.890625 15.128906 25.792969 15.1875 C 25.546875 15.0625 25.378906 14.871094 25.289062 14.609375 C 25.179688 14.25 25.089844 13.878906 25.023438 13.507812 C 25.109375 13.394531 25.15625 13.265625 25.167969 13.125 C 25.027344 12.414062 25.046875 11.707031 25.214844 11.011719 Z M 25.214844 11.011719 "/>
<path style=" stroke:none;fill-rule:evenodd;fill:rgb(94.509804%,92.941176%,90.196078%);fill-opacity:1;" d="M 30.972656 22.671875 C 30.941406 22.671875 30.925781 22.6875 30.925781 22.722656 C 30.894531 22.722656 30.878906 22.738281 30.878906 22.769531 C 30.832031 22.761719 30.796875 22.777344 30.78125 22.816406 C 30.75 22.816406 30.734375 22.832031 30.734375 22.863281 C 30.703125 22.863281 30.6875 22.878906 30.6875 22.914062 C 30.207031 23.230469 29.746094 23.566406 29.292969 23.921875 C 29.222656 23.917969 29.171875 23.949219 29.152344 24.015625 C 29.117188 24.015625 29.101562 24.03125 29.101562 24.0625 C 29.054688 24.054688 29.023438 24.070312 29.007812 24.113281 C 28.976562 24.113281 28.957031 24.128906 28.957031 24.160156 C 28.910156 24.152344 28.878906 24.167969 28.863281 24.207031 C 28.210938 24.589844 27.515625 24.859375 26.777344 25.023438 C 26.457031 24.851562 26.191406 24.90625 25.984375 25.191406 C 24.433594 25.519531 23.058594 25.183594 21.855469 24.183594 C 20.601562 23.027344 19.652344 21.660156 19 20.082031 C 18.324219 18.15625 17.804688 16.1875 17.441406 14.179688 C 17.472656 14.164062 17.507812 14.148438 17.539062 14.132812 C 17.878906 14.203125 18.222656 14.234375 18.570312 14.226562 C 20.152344 14.15625 21.730469 14.003906 23.296875 13.773438 C 23.726562 13.722656 24.160156 13.699219 24.59375 13.699219 C 24.632812 14.019531 24.671875 14.339844 24.710938 14.660156 C 24.792969 15.164062 25.058594 15.542969 25.503906 15.785156 C 26.113281 15.925781 26.519531 15.695312 26.726562 15.089844 C 26.847656 14.5 26.949219 13.910156 27.039062 13.316406 C 27.519531 13.324219 28 13.316406 28.480469 13.292969 C 30.152344 13.113281 31.832031 13.035156 33.515625 13.050781 C 33.609375 13.011719 33.707031 12.988281 33.804688 12.980469 C 33.898438 14.597656 33.859375 16.214844 33.683594 17.828125 C 33.375 19.789062 32.472656 21.402344 30.972656 22.671875 Z M 30.972656 22.671875 "/>
<use xlink:href="#surface12" mask="url(#mask2)"/>
<use xlink:href="#surface15" mask="url(#mask3)"/>
</g>
</svg>
