<?xml version="1.0" encoding="UTF-8"?>
<svg xmlns="http://www.w3.org/2000/svg" xmlns:xlink="http://www.w3.org/1999/xlink" width="50pt" height="50pt" viewBox="0 0 50 50" version="1.1">
<defs>
<filter id="alpha" filterUnits="objectBoundingBox" x="0%" y="0%" width="100%" height="100%">
  <feColorMatrix type="matrix" in="SourceGraphic" values="0 0 0 0 1 0 0 0 0 1 0 0 0 0 1 0 0 0 1 0"/>
</filter>
<mask id="mask0">
  <g filter="url(#alpha)">
<rect x="0" y="0" width="50" height="50" style="fill:rgb(0%,0%,0%);fill-opacity:0.988235;stroke:none;"/>
  </g>
</mask>
<clipPath id="clip1">
  <rect width="50" height="50"/>
</clipPath>
<g id="surface6" clip-path="url(#clip1)">
<path style=" stroke:none;fill-rule:evenodd;fill:rgb(65.882353%,22.745098%,17.647059%);fill-opacity:1;" d="M 35.539062 18.277344 C 34.238281 18.207031 32.9375 18.175781 31.636719 18.183594 C 29.664062 18.21875 27.691406 18.234375 25.71875 18.21875 C 24.652344 18.203125 23.589844 18.132812 22.527344 18.003906 C 22 17.972656 21.472656 17.941406 20.941406 17.90625 C 20.910156 17.898438 20.878906 17.886719 20.847656 17.871094 C 20.765625 17.824219 20.683594 17.773438 20.605469 17.714844 C 25.09375 17.390625 29.582031 17.085938 34.074219 16.800781 C 34.566406 17.292969 35.054688 17.785156 35.539062 18.277344 Z M 35.539062 18.277344 "/>
</g>
<mask id="mask1">
  <g filter="url(#alpha)">
<rect x="0" y="0" width="50" height="50" style="fill:rgb(0%,0%,0%);fill-opacity:0.901961;stroke:none;"/>
  </g>
</mask>
<clipPath id="clip2">
  <rect width="50" height="50"/>
</clipPath>
<g id="surface9" clip-path="url(#clip2)">
<path style=" stroke:none;fill-rule:evenodd;fill:rgb(64.313725%,22.352941%,17.254902%);fill-opacity:1;" d="M 46.796875 17.367188 C 46.289062 17.105469 45.753906 16.960938 45.1875 16.933594 C 45.660156 16.710938 46.101562 16.761719 46.507812 17.089844 C 46.609375 17.175781 46.707031 17.269531 46.796875 17.367188 Z M 46.796875 17.367188 "/>
</g>
<mask id="mask2">
  <g filter="url(#alpha)">
<rect x="0" y="0" width="50" height="50" style="fill:rgb(0%,0%,0%);fill-opacity:0.976471;stroke:none;"/>
  </g>
</mask>
<clipPath id="clip3">
  <rect width="50" height="50"/>
</clipPath>
<g id="surface12" clip-path="url(#clip3)">
<path style=" stroke:none;fill-rule:evenodd;fill:rgb(0.392157%,0%,0%);fill-opacity:1;" d="M 45.1875 16.933594 C 45.753906 16.960938 46.289062 17.105469 46.796875 17.367188 C 47.183594 17.5625 47.460938 17.859375 47.636719 18.253906 C 47.78125 18.671875 47.761719 19.078125 47.574219 19.480469 C 47.46875 19.710938 47.359375 19.941406 47.25 20.175781 C 47.289062 20.21875 47.335938 20.234375 47.394531 20.222656 C 47.632812 20.292969 47.871094 20.355469 48.117188 20.402344 C 49.355469 20.890625 49.785156 21.773438 49.398438 23.054688 C 49.273438 23.34375 49.109375 23.609375 48.90625 23.847656 C 48.566406 24.222656 48.175781 24.53125 47.730469 24.773438 C 47.679688 24.824219 47.628906 24.875 47.574219 24.929688 C 47.558594 24.953125 47.558594 24.976562 47.574219 25 C 47.769531 25.125 47.925781 25.285156 48.042969 25.480469 C 48.203125 25.933594 48.09375 26.308594 47.707031 26.597656 C 47.378906 26.8125 47.019531 26.941406 46.628906 26.992188 C 46.398438 26.988281 46.175781 26.988281 45.957031 26.992188 C 45.914062 27.199219 45.882812 27.40625 45.859375 27.617188 C 45.761719 28.007812 45.636719 28.394531 45.488281 28.769531 C 45.507812 28.894531 45.515625 29.023438 45.511719 29.152344 C 45.4375 29.253906 45.335938 29.296875 45.210938 29.273438 C 45.21875 29.398438 45.234375 29.523438 45.257812 29.644531 C 45.25 29.792969 45.179688 29.886719 45.042969 29.933594 C 44.507812 29.992188 43.972656 30.007812 43.433594 29.980469 C 43.210938 29.972656 43.015625 29.894531 42.847656 29.753906 C 42.753906 29.566406 42.796875 29.417969 42.980469 29.308594 C 43.050781 29.292969 43.121094 29.292969 43.195312 29.308594 C 43.371094 29.398438 43.558594 29.441406 43.757812 29.441406 C 44.058594 29.417969 44.359375 29.402344 44.660156 29.394531 C 44.589844 28.910156 44.648438 28.445312 44.839844 28 C 44.859375 27.925781 44.875 27.851562 44.875 27.773438 C 44.8125 27.484375 44.773438 27.191406 44.753906 26.894531 C 44.742188 26.714844 44.78125 26.546875 44.875 26.390625 C 44.96875 26.34375 45.0625 26.296875 45.164062 26.261719 C 45.300781 26.242188 45.4375 26.253906 45.570312 26.296875 C 45.476562 25.558594 45.21875 24.886719 44.792969 24.28125 C 44.753906 24.234375 44.710938 24.199219 44.660156 24.171875 C 44.523438 24.164062 44.386719 24.167969 44.25 24.183594 C 43.851562 24.164062 43.65625 23.957031 43.664062 23.558594 C 43.722656 23.378906 43.816406 23.21875 43.949219 23.078125 C 44.246094 22.839844 44.476562 22.554688 44.648438 22.214844 C 44.703125 22.0625 44.6875 21.917969 44.597656 21.785156 C 44.300781 21.484375 43.953125 21.261719 43.554688 21.113281 C 43.09375 20.933594 42.636719 20.734375 42.1875 20.523438 C 41.890625 20.371094 41.652344 20.148438 41.480469 19.863281 C 41.363281 19.53125 41.371094 19.203125 41.503906 18.878906 C 41.921875 18.003906 42.617188 17.5 43.578125 17.367188 C 43.730469 17.390625 43.882812 17.410156 44.035156 17.425781 C 44.355469 17.121094 44.742188 16.957031 45.1875 16.933594 Z M 43.722656 17.894531 C 43.519531 18.03125 43.3125 18.164062 43.097656 18.289062 C 42.898438 18.410156 42.753906 18.574219 42.65625 18.78125 C 42.597656 19.011719 42.613281 19.234375 42.703125 19.457031 C 42.882812 19.84375 43.132812 20.175781 43.457031 20.453125 C 43.640625 20.574219 43.839844 20.632812 44.058594 20.621094 C 43.992188 20.660156 43.9375 20.710938 43.890625 20.773438 C 43.363281 20.550781 42.84375 20.316406 42.332031 20.066406 C 41.867188 19.824219 41.75 19.464844 41.984375 19 C 42.289062 18.4375 42.75 18.0625 43.363281 17.882812 C 43.488281 17.863281 43.605469 17.867188 43.722656 17.894531 Z M 47.277344 20.773438 C 47.71875 20.832031 48.125 20.980469 48.5 21.21875 C 49.015625 21.652344 49.152344 22.183594 48.90625 22.816406 C 48.835938 22.460938 48.644531 22.195312 48.332031 22.011719 C 48.113281 21.914062 47.894531 21.808594 47.683594 21.699219 C 47.394531 21.464844 47.257812 21.15625 47.277344 20.773438 Z M 45.308594 26.824219 C 45.386719 26.929688 45.46875 27.03125 45.546875 27.136719 C 45.527344 27.316406 45.484375 27.492188 45.425781 27.664062 C 45.375 27.410156 45.328125 27.152344 45.285156 26.894531 C 45.285156 26.867188 45.292969 26.84375 45.308594 26.824219 Z M 45.308594 26.824219 "/>
</g>
<mask id="mask3">
  <g filter="url(#alpha)">
<rect x="0" y="0" width="50" height="50" style="fill:rgb(0%,0%,0%);fill-opacity:0.996078;stroke:none;"/>
  </g>
</mask>
<clipPath id="clip4">
  <rect width="50" height="50"/>
</clipPath>
<g id="surface15" clip-path="url(#clip4)">
<path style=" stroke:none;fill-rule:evenodd;fill:rgb(66.27451%,22.745098%,17.647059%);fill-opacity:1;" d="M 47.277344 20.773438 C 47.257812 21.15625 47.394531 21.464844 47.683594 21.699219 C 47.894531 21.808594 48.113281 21.914062 48.332031 22.011719 C 48.644531 22.195312 48.835938 22.460938 48.90625 22.816406 C 48.707031 23.265625 48.414062 23.648438 48.019531 23.957031 C 47.785156 24.101562 47.550781 24.253906 47.324219 24.410156 C 47.195312 24.515625 47.097656 24.640625 47.023438 24.785156 C 46.96875 24.949219 46.992188 25.097656 47.09375 25.238281 C 47.203125 25.359375 47.320312 25.472656 47.445312 25.574219 C 47.574219 25.714844 47.597656 25.867188 47.503906 26.03125 C 47.324219 26.207031 47.113281 26.332031 46.867188 26.402344 C 46.582031 26.492188 46.296875 26.507812 46.003906 26.453125 C 45.898438 25.867188 45.734375 25.292969 45.511719 24.734375 C 45.363281 24.5 45.238281 24.25 45.128906 23.992188 C 45.011719 23.839844 44.855469 23.765625 44.660156 23.777344 C 44.507812 23.796875 44.355469 23.800781 44.203125 23.789062 C 44.078125 23.734375 44.042969 23.648438 44.105469 23.535156 C 44.527344 23.1875 44.84375 22.765625 45.054688 22.261719 C 45.121094 21.949219 45.050781 21.667969 44.839844 21.421875 C 44.558594 21.15625 44.242188 20.941406 43.890625 20.773438 C 43.9375 20.710938 43.992188 20.660156 44.058594 20.621094 C 43.839844 20.632812 43.640625 20.574219 43.457031 20.453125 C 43.132812 20.175781 42.882812 19.84375 42.703125 19.457031 C 42.613281 19.234375 42.597656 19.011719 42.65625 18.78125 C 42.753906 18.574219 42.898438 18.410156 43.097656 18.289062 C 43.3125 18.164062 43.519531 18.03125 43.722656 17.894531 C 43.722656 18 43.730469 18.113281 43.734375 18.230469 C 43.882812 18.578125 44.113281 18.652344 44.429688 18.445312 C 44.53125 18.292969 44.5625 18.125 44.527344 17.941406 C 44.488281 17.871094 44.453125 17.796875 44.429688 17.726562 C 44.769531 17.449219 45.160156 17.359375 45.59375 17.449219 C 46.039062 17.535156 46.4375 17.710938 46.796875 17.980469 C 47.125 18.230469 47.273438 18.5625 47.238281 18.976562 C 47.09375 19.34375 46.925781 19.703125 46.734375 20.054688 C 46.660156 20.257812 46.703125 20.429688 46.867188 20.570312 C 47 20.652344 47.136719 20.722656 47.277344 20.773438 Z M 47.277344 20.773438 "/>
</g>
<mask id="mask4">
  <g filter="url(#alpha)">
<rect x="0" y="0" width="50" height="50" style="fill:rgb(0%,0%,0%);fill-opacity:0.976471;stroke:none;"/>
  </g>
</mask>
<clipPath id="clip5">
  <rect width="50" height="50"/>
</clipPath>
<g id="surface18" clip-path="url(#clip5)">
<path style=" stroke:none;fill-rule:evenodd;fill:rgb(0.392157%,0.392157%,0.392157%);fill-opacity:1;" d="M 20.847656 17.871094 C 20.878906 17.886719 20.910156 17.898438 20.941406 17.90625 C 21.472656 17.941406 22 17.972656 22.527344 18.003906 C 23.589844 18.132812 24.652344 18.203125 25.71875 18.21875 C 27.691406 18.234375 29.664062 18.21875 31.636719 18.183594 C 32.9375 18.175781 34.238281 18.207031 35.539062 18.277344 C 35.785156 18.304688 36.035156 18.332031 36.28125 18.363281 C 36.785156 18.441406 36.941406 18.707031 36.75 19.167969 C 36.992188 19.367188 37.234375 19.5625 37.480469 19.753906 C 38.589844 20.472656 39.6875 21.210938 40.769531 21.964844 C 41.023438 22.125 41.285156 22.269531 41.5625 22.394531 C 41.851562 22.496094 42.132812 22.617188 42.402344 22.753906 C 42.554688 22.859375 42.667969 22.988281 42.75 23.152344 C 42.796875 23.324219 42.746094 23.457031 42.59375 23.546875 C 42.433594 23.570312 42.269531 23.582031 42.101562 23.582031 C 41.476562 23.535156 40.847656 23.492188 40.21875 23.464844 C 40.21875 23.664062 40.226562 23.863281 40.242188 24.0625 C 40.242188 25.011719 40.242188 25.964844 40.242188 26.921875 C 40.195312 27.839844 40.316406 28.738281 40.601562 29.609375 C 40.914062 29.632812 41.203125 29.566406 41.464844 29.40625 C 41.671875 29.398438 41.78125 29.496094 41.800781 29.703125 C 41.78125 29.824219 41.726562 29.925781 41.632812 30.003906 C 41.515625 30.078125 41.386719 30.128906 41.25 30.148438 C 40.691406 30.152344 40.148438 30.234375 39.617188 30.402344 C 39.433594 30.417969 39.25 30.445312 39.066406 30.484375 C 38.171875 30.550781 37.28125 30.625 36.390625 30.714844 C 36.117188 30.699219 35.847656 30.648438 35.585938 30.570312 C 35.59375 30.871094 35.449219 30.996094 35.152344 30.941406 C 34.949219 30.792969 34.910156 30.609375 35.035156 30.390625 C 34.980469 29.558594 34.832031 28.746094 34.589844 27.953125 C 34.535156 27.828125 34.445312 27.773438 34.3125 27.796875 C 33.550781 28.574219 33.257812 29.507812 33.4375 30.59375 C 33.375 30.671875 33.296875 30.683594 33.210938 30.628906 C 33.195312 30.609375 33.183594 30.589844 33.171875 30.570312 C 33.121094 30.136719 33.101562 29.707031 33.125 29.273438 C 33.257812 28.597656 33.558594 28.007812 34.027344 27.507812 C 34.34375 27.273438 34.625 27.308594 34.878906 27.617188 C 34.941406 27.714844 34.996094 27.820312 35.046875 27.929688 C 35.296875 28.660156 35.457031 29.414062 35.527344 30.183594 C 35.539062 30.210938 35.558594 30.226562 35.585938 30.234375 C 35.855469 30.296875 36.125 30.316406 36.402344 30.292969 C 36.699219 30.246094 36.996094 30.199219 37.289062 30.148438 C 38.03125 30.101562 38.769531 30.003906 39.5 29.859375 C 39.542969 29.84375 39.582031 29.824219 39.617188 29.800781 C 39.757812 29.773438 39.894531 29.730469 40.027344 29.679688 C 39.761719 28.78125 39.65625 27.859375 39.714844 26.921875 C 39.738281 26.707031 39.746094 26.492188 39.738281 26.273438 C 39.527344 26.257812 39.316406 26.277344 39.113281 26.332031 C 39 26.402344 38.878906 26.464844 38.753906 26.523438 C 38.660156 26.550781 38.5625 26.5625 38.464844 26.558594 C 38.34375 26.5 38.261719 26.402344 38.214844 26.273438 C 38.199219 25.902344 38.175781 25.535156 38.140625 25.167969 C 38.09375 25.027344 38.035156 24.894531 37.972656 24.761719 C 37.9375 24.570312 37.988281 24.410156 38.128906 24.28125 C 38.234375 24.222656 38.34375 24.195312 38.464844 24.207031 C 38.601562 24.222656 38.742188 24.230469 38.886719 24.230469 C 39.1875 24.226562 39.488281 24.210938 39.785156 24.183594 C 39.785156 24.144531 39.785156 24.105469 39.785156 24.0625 C 39.789062 23.863281 39.804688 23.664062 39.835938 23.464844 C 38.773438 23.46875 37.71875 23.492188 36.664062 23.535156 C 36.257812 23.535156 35.847656 23.542969 35.441406 23.558594 C 34.582031 23.613281 33.726562 23.6875 32.875 23.789062 C 31.839844 23.925781 30.808594 24.0625 29.777344 24.195312 C 29.425781 24.210938 29.074219 24.210938 28.71875 24.195312 C 28.609375 24.1875 28.496094 24.171875 28.382812 24.148438 C 28.335938 24.085938 28.289062 24.019531 28.242188 23.957031 C 28.179688 23.90625 28.117188 23.863281 28.046875 23.824219 C 28.023438 24 28.015625 24.175781 28.023438 24.351562 C 27.980469 24.574219 27.964844 24.796875 27.976562 25.023438 C 28.054688 24.992188 28.136719 24.964844 28.214844 24.941406 C 28.613281 24.875 29.007812 24.789062 29.394531 24.675781 C 29.503906 24.660156 29.617188 24.660156 29.730469 24.675781 C 29.761719 24.6875 29.792969 24.707031 29.8125 24.734375 C 29.828125 24.800781 29.828125 24.863281 29.8125 24.929688 C 29.773438 25.003906 29.75 25.082031 29.742188 25.167969 C 29.734375 25.710938 29.726562 26.257812 29.714844 26.800781 C 29.710938 27.265625 29.472656 27.492188 29.007812 27.484375 C 28.734375 27.605469 28.457031 27.710938 28.167969 27.796875 C 28.019531 27.84375 27.867188 27.863281 27.710938 27.855469 C 27.632812 28.496094 27.546875 29.136719 27.460938 29.777344 C 27.429688 30.144531 27.398438 30.511719 27.375 30.882812 C 27.351562 31.140625 27.34375 31.40625 27.351562 31.671875 C 27.414062 31.679688 27.46875 31.671875 27.519531 31.648438 C 27.875 31.570312 28.226562 31.484375 28.578125 31.398438 C 29.488281 31.328125 30.390625 31.214844 31.289062 31.0625 C 31.695312 30.949219 32.097656 30.8125 32.488281 30.652344 C 32.675781 30.582031 32.867188 30.558594 33.066406 30.582031 C 33.171875 30.632812 33.1875 30.703125 33.113281 30.796875 C 32.570312 31.019531 32.027344 31.246094 31.480469 31.46875 C 31.125 31.554688 30.761719 31.625 30.402344 31.683594 C 29.746094 31.777344 29.089844 31.863281 28.433594 31.949219 C 28.078125 32.070312 27.71875 32.164062 27.351562 32.238281 C 27.324219 32.300781 27.277344 32.339844 27.207031 32.355469 C 27.109375 32.382812 27.011719 32.394531 26.910156 32.394531 C 26.445312 32.304688 25.976562 32.242188 25.503906 32.214844 C 25.234375 32.210938 24.96875 32.207031 24.699219 32.199219 C 23.046875 32.238281 21.394531 32.289062 19.742188 32.355469 C 18.773438 32.375 17.808594 32.375 16.839844 32.355469 C 15.847656 32.300781 14.855469 32.25 13.863281 32.214844 C 13.519531 32.191406 13.179688 32.15625 12.84375 32.105469 C 12.738281 32.117188 12.640625 32.136719 12.542969 32.164062 C 12.375 32.191406 12.214844 32.175781 12.0625 32.117188 C 11.972656 32.03125 11.886719 31.941406 11.796875 31.851562 C 11.761719 31.828125 11.722656 31.816406 11.679688 31.816406 C 11.4375 31.839844 11.222656 31.78125 11.03125 31.636719 C 10.929688 31.519531 10.828125 31.402344 10.730469 31.289062 C 10.472656 31.441406 10.238281 31.410156 10.035156 31.191406 C 9.976562 31.105469 9.921875 31.015625 9.867188 30.929688 C 9.816406 31.023438 9.769531 31.121094 9.722656 31.21875 C 9.621094 31.328125 9.496094 31.363281 9.347656 31.324219 C 9.25 31.265625 9.164062 31.203125 9.085938 31.132812 C 8.765625 31.628906 8.34375 32.003906 7.8125 32.261719 C 7.480469 32.390625 7.136719 32.445312 6.78125 32.417969 C 6.421875 32.449219 6.0625 32.472656 5.699219 32.488281 C 5.59375 32.480469 5.492188 32.464844 5.390625 32.441406 C 5.371094 32.394531 5.359375 32.347656 5.351562 32.296875 C 5 32.0625 4.847656 31.734375 4.898438 31.3125 C 4.914062 31.125 5.003906 31.078125 5.160156 31.167969 C 5.121094 31.492188 5.226562 31.75 5.484375 31.949219 C 5.679688 31.992188 5.875 32.039062 6.074219 32.082031 C 6.328125 31.996094 6.570312 31.886719 6.804688 31.757812 C 7.09375 31.589844 7.382812 31.421875 7.667969 31.253906 C 7.96875 31 7.988281 30.722656 7.730469 30.425781 C 7.355469 30.039062 6.933594 29.714844 6.46875 29.453125 C 6.347656 29.398438 6.21875 29.375 6.085938 29.378906 C 6.066406 29.417969 6.042969 29.449219 6.011719 29.476562 C 6.292969 29.464844 6.546875 29.539062 6.769531 29.703125 C 6.9375 29.929688 6.945312 30.160156 6.792969 30.402344 C 6.464844 30.785156 6.054688 30.917969 5.558594 30.796875 C 5.234375 30.742188 4.972656 30.585938 4.777344 30.328125 C 4.636719 29.957031 4.710938 29.632812 5.003906 29.355469 C 5.253906 29.136719 5.542969 28.992188 5.867188 28.925781 C 6.089844 28.628906 6.175781 28.296875 6.121094 27.929688 C 6.054688 27.472656 5.859375 27.085938 5.53125 26.765625 C 5.304688 26.648438 5.097656 26.679688 4.910156 26.859375 C 5.34375 27.074219 5.476562 27.40625 5.304688 27.855469 C 5.179688 28.039062 5.007812 28.109375 4.789062 28.058594 C 4.324219 27.910156 4.148438 27.597656 4.261719 27.125 C 3.695312 27.089844 3.203125 27.261719 2.785156 27.640625 C 2.617188 27.867188 2.566406 28.121094 2.628906 28.398438 C 2.703125 28.734375 2.855469 29.027344 3.085938 29.285156 C 3.351562 29.359375 3.582031 29.5 3.769531 29.703125 C 3.902344 29.894531 3.863281 30.03125 3.648438 30.113281 C 3.363281 30.042969 3.117188 29.902344 2.917969 29.691406 C 2.726562 29.632812 2.542969 29.648438 2.363281 29.742188 C 2.265625 29.867188 2.242188 30.007812 2.304688 30.160156 C 2.425781 30.5 2.652344 30.734375 2.988281 30.867188 C 3.25 30.996094 3.515625 31.003906 3.78125 30.894531 C 3.972656 30.738281 4.167969 30.726562 4.367188 30.855469 C 4.417969 30.964844 4.410156 31.070312 4.34375 31.167969 C 4.097656 31.390625 3.898438 31.648438 3.746094 31.9375 C 3.402344 32.335938 2.984375 32.453125 2.484375 32.285156 C 2.332031 32.210938 2.179688 32.132812 2.027344 32.058594 C 1.992188 32.078125 1.972656 32.109375 1.96875 32.152344 C 1.96875 32.296875 1.9375 32.433594 1.871094 32.5625 C 1.785156 32.628906 1.695312 32.640625 1.597656 32.597656 C 1.433594 32.40625 1.234375 32.257812 1.007812 32.152344 C 0.910156 32.257812 0.792969 32.277344 0.660156 32.214844 C 0.582031 32.089844 0.554688 31.960938 0.574219 31.816406 C 0.640625 31.726562 0.726562 31.683594 0.839844 31.695312 C 1.097656 31.71875 1.332031 31.804688 1.535156 31.960938 C 1.636719 31.660156 1.84375 31.558594 2.148438 31.660156 C 2.304688 31.710938 2.457031 31.773438 2.605469 31.851562 C 2.933594 32.007812 3.210938 31.9375 3.433594 31.648438 C 3.492188 31.558594 3.550781 31.464844 3.613281 31.371094 C 2.804688 31.390625 2.230469 31.035156 1.894531 30.304688 C 1.75 29.730469 1.960938 29.375 2.53125 29.238281 C 2.207031 28.757812 2.125 28.242188 2.28125 27.6875 C 2.472656 27.300781 2.773438 27.035156 3.179688 26.882812 C 3.597656 26.722656 4.03125 26.660156 4.476562 26.691406 C 4.855469 26.238281 5.304688 26.148438 5.820312 26.429688 C 6.414062 27.019531 6.648438 27.726562 6.527344 28.550781 C 6.492188 28.6875 6.441406 28.816406 6.371094 28.9375 C 7.039062 29.203125 7.613281 29.605469 8.089844 30.136719 C 8.535156 30.765625 8.433594 31.289062 7.789062 31.710938 C 7.507812 31.886719 7.214844 32.027344 6.902344 32.140625 C 7.425781 32.113281 7.882812 31.921875 8.269531 31.566406 C 8.757812 31.125 9.042969 30.578125 9.121094 29.921875 C 9.183594 29.8125 9.273438 29.773438 9.398438 29.8125 C 9.441406 29.824219 9.46875 29.851562 9.480469 29.898438 C 9.480469 30.144531 9.46875 30.394531 9.445312 30.640625 C 9.453125 30.695312 9.460938 30.753906 9.46875 30.808594 C 9.53125 30.6875 9.601562 30.578125 9.6875 30.472656 C 9.820312 30.378906 9.949219 30.378906 10.082031 30.472656 C 10.15625 30.640625 10.253906 30.789062 10.382812 30.917969 C 10.40625 30.929688 10.429688 30.941406 10.453125 30.953125 C 10.578125 30.839844 10.722656 30.785156 10.886719 30.796875 C 10.9375 30.824219 10.980469 30.859375 11.019531 30.90625 C 11.089844 31.070312 11.191406 31.21875 11.316406 31.347656 C 11.414062 31.398438 11.519531 31.417969 11.628906 31.410156 C 11.796875 31.382812 11.945312 31.425781 12.074219 31.527344 C 12.078125 31.238281 12.066406 30.945312 12.039062 30.652344 C 12.066406 30.214844 12.101562 29.78125 12.144531 29.34375 C 12.152344 28.273438 12.144531 27.199219 12.121094 26.128906 C 12.070312 25.222656 12.03125 24.316406 12.015625 23.414062 C 12.03125 23.265625 12.042969 23.113281 12.050781 22.960938 C 12.117188 22.878906 12.1875 22.871094 12.265625 22.9375 C 12.277344 23.046875 12.28125 23.160156 12.277344 23.273438 C 12.304688 24.304688 12.355469 25.335938 12.433594 26.367188 C 12.445312 27.222656 12.457031 28.082031 12.46875 28.9375 C 12.445312 29.609375 12.425781 30.28125 12.410156 30.953125 C 12.410156 31.109375 12.433594 31.261719 12.46875 31.410156 C 12.65625 31.5 12.859375 31.554688 13.070312 31.566406 C 13.398438 31.609375 13.726562 31.640625 14.054688 31.660156 C 15.132812 31.710938 16.214844 31.757812 17.292969 31.804688 C 18.015625 31.820312 18.734375 31.820312 19.457031 31.804688 C 21.109375 31.738281 22.765625 31.683594 24.425781 31.648438 C 24.902344 31.652344 25.382812 31.664062 25.863281 31.683594 C 26.1875 31.71875 26.507812 31.769531 26.824219 31.839844 C 26.808594 31.167969 26.84375 30.492188 26.933594 29.824219 C 27.054688 28.910156 27.183594 28 27.316406 27.089844 C 27.347656 26.625 27.378906 26.160156 27.414062 25.695312 C 27.488281 25.234375 27.550781 24.769531 27.59375 24.304688 C 27.621094 24.054688 27.640625 23.808594 27.652344 23.558594 C 26.335938 22.601562 24.980469 21.703125 23.582031 20.859375 C 22.285156 20.105469 20.941406 19.441406 19.550781 18.867188 C 19.25 18.71875 18.957031 18.554688 18.675781 18.375 C 17.203125 19.265625 15.773438 20.222656 14.390625 21.242188 C 13.414062 21.828125 12.46875 22.460938 11.558594 23.140625 C 11.082031 23.503906 10.609375 23.871094 10.140625 24.242188 C 9.855469 24.429688 9.566406 24.613281 9.277344 24.796875 C 9.222656 24.851562 9.164062 24.90625 9.109375 24.964844 C 8.855469 25.039062 8.78125 24.957031 8.882812 24.710938 C 8.941406 24.652344 9 24.59375 9.0625 24.53125 C 9.371094 24.300781 9.679688 24.078125 9.996094 23.859375 C 10.695312 23.273438 11.40625 22.707031 12.132812 22.15625 C 13.691406 21.121094 15.226562 20.054688 16.742188 18.964844 C 17.105469 18.714844 17.484375 18.480469 17.871094 18.265625 C 18.039062 18.15625 18.199219 18.035156 18.351562 17.90625 C 18.453125 17.855469 18.558594 17.808594 18.664062 17.761719 C 18.933594 17.722656 19.207031 17.683594 19.480469 17.65625 C 19.933594 17.730469 20.390625 17.800781 20.847656 17.871094 Z M 21.808594 18.398438 C 24.324219 19.824219 26.84375 21.242188 29.367188 22.660156 C 32.816406 22.609375 36.265625 22.542969 39.714844 22.457031 C 39.296875 22.03125 38.882812 21.605469 38.464844 21.183594 C 39.132812 21.605469 39.789062 22.039062 40.433594 22.492188 C 40.679688 22.632812 40.925781 22.769531 41.179688 22.898438 C 40.628906 22.875 40.074219 22.867188 39.523438 22.875 C 37.855469 22.914062 36.191406 22.988281 34.53125 23.089844 C 33.878906 23.148438 33.230469 23.222656 32.585938 23.308594 C 31.371094 23.507812 30.15625 23.6875 28.9375 23.847656 C 28.914062 23.839844 28.886719 23.832031 28.863281 23.824219 C 28.847656 23.734375 28.8125 23.65625 28.757812 23.582031 C 26.90625 22.230469 24.984375 20.984375 22.984375 19.851562 C 21.945312 19.296875 20.882812 18.800781 19.792969 18.363281 C 19.589844 18.269531 19.398438 18.167969 19.214844 18.050781 C 19.382812 18.035156 19.550781 18.042969 19.71875 18.074219 C 20.402344 18.257812 21.097656 18.367188 21.808594 18.398438 Z M 39.785156 24.0625 C 39.347656 24.0625 38.90625 24.0625 38.464844 24.0625 C 38.464844 24.113281 38.464844 24.160156 38.464844 24.207031 C 38.34375 24.195312 38.234375 24.222656 38.128906 24.28125 C 37.851562 24.28125 37.570312 24.28125 37.289062 24.28125 C 37.289062 24.03125 37.289062 23.785156 37.289062 23.535156 C 37.082031 23.535156 36.875 23.535156 36.664062 23.535156 C 37.71875 23.492188 38.773438 23.46875 39.835938 23.464844 C 39.804688 23.664062 39.789062 23.863281 39.785156 24.0625 Z M 35.441406 23.558594 C 35.441406 23.777344 35.441406 23.992188 35.441406 24.207031 C 35.28125 24.203125 35.121094 24.207031 34.960938 24.21875 C 34.933594 24.246094 34.910156 24.273438 34.890625 24.304688 C 34.234375 24.304688 33.578125 24.3125 32.921875 24.328125 C 32.816406 24.328125 32.714844 24.328125 32.609375 24.328125 C 31.082031 24.339844 29.554688 24.347656 28.023438 24.351562 C 28.015625 24.175781 28.023438 24 28.046875 23.824219 C 28.117188 23.863281 28.179688 23.90625 28.242188 23.957031 C 28.289062 24.019531 28.335938 24.085938 28.382812 24.148438 C 28.496094 24.171875 28.609375 24.1875 28.71875 24.195312 C 29.074219 24.210938 29.425781 24.210938 29.777344 24.195312 C 30.808594 24.0625 31.839844 23.925781 32.875 23.789062 C 33.726562 23.6875 34.582031 23.613281 35.441406 23.558594 Z M 39.617188 26.921875 C 39.648438 26.921875 39.683594 26.921875 39.714844 26.921875 C 39.65625 27.859375 39.761719 28.78125 40.027344 29.679688 C 39.894531 29.730469 39.757812 29.773438 39.617188 29.800781 C 39.617188 28.839844 39.617188 27.878906 39.617188 26.921875 Z M 4.667969 27.230469 C 4.882812 27.296875 4.980469 27.4375 4.957031 27.652344 C 4.753906 27.667969 4.652344 27.570312 4.644531 27.363281 C 4.648438 27.316406 4.65625 27.273438 4.667969 27.230469 Z M 5.460938 29.5625 C 5.550781 29.75 5.703125 29.859375 5.917969 29.886719 C 6.085938 29.886719 6.242188 29.917969 6.398438 29.980469 C 6.4375 30.027344 6.449219 30.078125 6.433594 30.136719 C 6.246094 30.378906 6.003906 30.460938 5.699219 30.390625 C 5.476562 30.363281 5.296875 30.265625 5.160156 30.089844 C 5.136719 29.972656 5.160156 29.871094 5.234375 29.777344 C 5.304688 29.699219 5.382812 29.628906 5.460938 29.5625 Z M 5.460938 29.5625 "/>
</g>
<mask id="mask5">
  <g filter="url(#alpha)">
<rect x="0" y="0" width="50" height="50" style="fill:rgb(0%,0%,0%);fill-opacity:0.945098;stroke:none;"/>
  </g>
</mask>
<clipPath id="clip6">
  <rect width="50" height="50"/>
</clipPath>
<g id="surface21" clip-path="url(#clip6)">
<path style=" stroke:none;fill-rule:evenodd;fill:rgb(65.098039%,22.352941%,17.647059%);fill-opacity:1;" d="M 47.636719 18.253906 C 47.824219 18.410156 47.964844 18.601562 48.054688 18.832031 C 48.101562 19.050781 48.058594 19.25 47.9375 19.429688 C 47.730469 19.679688 47.550781 19.941406 47.394531 20.222656 C 47.335938 20.234375 47.289062 20.21875 47.25 20.175781 C 47.359375 19.941406 47.46875 19.710938 47.574219 19.480469 C 47.761719 19.078125 47.78125 18.671875 47.636719 18.253906 Z M 47.636719 18.253906 "/>
</g>
<mask id="mask6">
  <g filter="url(#alpha)">
<rect x="0" y="0" width="50" height="50" style="fill:rgb(0%,0%,0%);fill-opacity:0.996078;stroke:none;"/>
  </g>
</mask>
<clipPath id="clip7">
  <rect width="50" height="50"/>
</clipPath>
<g id="surface24" clip-path="url(#clip7)">
<path style=" stroke:none;fill-rule:evenodd;fill:rgb(66.27451%,22.745098%,17.647059%);fill-opacity:1;" d="M 21.808594 18.398438 C 22.539062 18.449219 23.265625 18.515625 23.992188 18.601562 C 25.195312 18.691406 26.398438 18.734375 27.605469 18.734375 C 29.472656 18.710938 31.339844 18.707031 33.210938 18.722656 C 33.816406 18.761719 34.425781 18.792969 35.035156 18.820312 C 35.257812 18.851562 35.480469 18.878906 35.707031 18.902344 C 35.703125 18.953125 35.714844 19.003906 35.742188 19.046875 C 36.191406 19.527344 36.683594 19.957031 37.21875 20.332031 C 37.613281 20.605469 38.015625 20.871094 38.417969 21.136719 C 38.417969 21.152344 38.425781 21.160156 38.441406 21.160156 C 38.441406 21.175781 38.449219 21.183594 38.464844 21.183594 C 38.882812 21.605469 39.296875 22.03125 39.714844 22.457031 C 36.265625 22.542969 32.816406 22.609375 29.367188 22.660156 C 26.84375 21.242188 24.324219 19.824219 21.808594 18.398438 Z M 21.808594 18.398438 "/>
</g>
<mask id="mask7">
  <g filter="url(#alpha)">
<rect x="0" y="0" width="50" height="50" style="fill:rgb(0%,0%,0%);fill-opacity:0.996078;stroke:none;"/>
  </g>
</mask>
<clipPath id="clip8">
  <rect width="50" height="50"/>
</clipPath>
<g id="surface27" clip-path="url(#clip8)">
<path style=" stroke:none;fill-rule:evenodd;fill:rgb(99.607843%,99.607843%,99.607843%);fill-opacity:1;" d="M 27.59375 24.304688 C 27.550781 24.769531 27.488281 25.234375 27.414062 25.695312 C 27.378906 26.160156 27.347656 26.625 27.316406 27.089844 C 27.183594 28 27.054688 28.910156 26.933594 29.824219 C 26.84375 30.492188 26.808594 31.167969 26.824219 31.839844 C 26.507812 31.769531 26.1875 31.71875 25.863281 31.683594 C 25.382812 31.664062 24.902344 31.652344 24.425781 31.648438 C 22.765625 31.683594 21.109375 31.738281 19.457031 31.804688 C 18.734375 31.820312 18.015625 31.820312 17.292969 31.804688 C 16.214844 31.757812 15.132812 31.710938 14.054688 31.660156 C 13.726562 31.640625 13.398438 31.609375 13.070312 31.566406 C 12.859375 31.554688 12.65625 31.5 12.46875 31.410156 C 12.433594 31.261719 12.410156 31.109375 12.410156 30.953125 C 12.425781 30.28125 12.445312 29.609375 12.46875 28.9375 C 12.457031 28.082031 12.445312 27.222656 12.433594 26.367188 C 12.355469 25.335938 12.304688 24.304688 12.277344 23.273438 C 14.714844 22.050781 17.15625 20.832031 19.597656 19.625 C 22.265625 21.175781 24.929688 22.738281 27.59375 24.304688 Z M 27.59375 24.304688 "/>
</g>
<mask id="mask8">
  <g filter="url(#alpha)">
<rect x="0" y="0" width="50" height="50" style="fill:rgb(0%,0%,0%);fill-opacity:0.988235;stroke:none;"/>
  </g>
</mask>
<clipPath id="clip9">
  <rect width="50" height="50"/>
</clipPath>
<g id="surface30" clip-path="url(#clip9)">
<path style=" stroke:none;fill-rule:evenodd;fill:rgb(66.27451%,22.745098%,17.647059%);fill-opacity:1;" d="M 43.554688 21.113281 C 43.953125 21.261719 44.300781 21.484375 44.597656 21.785156 C 44.6875 21.917969 44.703125 22.0625 44.648438 22.214844 C 44.476562 22.554688 44.246094 22.839844 43.949219 23.078125 C 43.816406 23.21875 43.722656 23.378906 43.664062 23.558594 C 43.65625 23.957031 43.851562 24.164062 44.25 24.183594 C 44.386719 24.167969 44.523438 24.164062 44.660156 24.171875 C 44.710938 24.199219 44.753906 24.234375 44.792969 24.28125 C 45.21875 24.886719 45.476562 25.558594 45.570312 26.296875 C 45.4375 26.253906 45.300781 26.242188 45.164062 26.261719 C 45.0625 26.296875 44.96875 26.34375 44.875 26.390625 C 44.792969 26.289062 44.695312 26.195312 44.585938 26.117188 C 44.269531 25.90625 43.957031 25.691406 43.652344 25.46875 C 43.472656 25.3125 43.339844 25.125 43.253906 24.902344 C 43.148438 24.175781 43.03125 23.445312 42.90625 22.71875 C 42.929688 22.101562 43.148438 21.566406 43.554688 21.113281 Z M 43.554688 21.113281 "/>
</g>
<mask id="mask9">
  <g filter="url(#alpha)">
<rect x="0" y="0" width="50" height="50" style="fill:rgb(0%,0%,0%);fill-opacity:0.988235;stroke:none;"/>
  </g>
</mask>
<clipPath id="clip10">
  <rect width="50" height="50"/>
</clipPath>
<g id="surface33" clip-path="url(#clip10)">
<path style=" stroke:none;fill-rule:evenodd;fill:rgb(99.215686%,99.215686%,99.215686%);fill-opacity:1;" d="M 12.015625 23.414062 C 12.03125 24.316406 12.070312 25.222656 12.121094 26.128906 C 12.144531 27.199219 12.152344 28.273438 12.144531 29.34375 C 12.101562 29.78125 12.066406 30.214844 12.039062 30.652344 C 12.066406 30.945312 12.078125 31.238281 12.074219 31.527344 C 11.945312 31.425781 11.796875 31.382812 11.628906 31.410156 C 11.363281 28.96875 11.050781 26.53125 10.695312 24.101562 C 10.695312 24.082031 10.707031 24.066406 10.71875 24.050781 C 11.148438 23.832031 11.578125 23.621094 12.015625 23.414062 Z M 12.015625 23.414062 "/>
</g>
<mask id="mask10">
  <g filter="url(#alpha)">
<rect x="0" y="0" width="50" height="50" style="fill:rgb(0%,0%,0%);fill-opacity:0.992157;stroke:none;"/>
  </g>
</mask>
<clipPath id="clip11">
  <rect width="50" height="50"/>
</clipPath>
<g id="surface36" clip-path="url(#clip11)">
<path style=" stroke:none;fill-rule:evenodd;fill:rgb(72.54902%,70.980392%,69.019608%);fill-opacity:1;" d="M 36.664062 23.535156 C 36.875 23.535156 37.082031 23.535156 37.289062 23.535156 C 37.289062 23.785156 37.289062 24.03125 37.289062 24.28125 C 37.289062 24.296875 37.289062 24.3125 37.289062 24.328125 C 37.230469 24.292969 37.164062 24.265625 37.097656 24.242188 C 36.609375 24.234375 36.121094 24.226562 35.632812 24.21875 C 35.574219 24.167969 35.515625 24.171875 35.464844 24.230469 C 35.449219 24.230469 35.441406 24.222656 35.441406 24.207031 C 35.441406 23.992188 35.441406 23.777344 35.441406 23.558594 C 35.847656 23.542969 36.257812 23.535156 36.664062 23.535156 Z M 36.664062 23.535156 "/>
</g>
<mask id="mask11">
  <g filter="url(#alpha)">
<rect x="0" y="0" width="50" height="50" style="fill:rgb(0%,0%,0%);fill-opacity:0.968627;stroke:none;"/>
  </g>
</mask>
<clipPath id="clip12">
  <rect width="50" height="50"/>
</clipPath>
<g id="surface39" clip-path="url(#clip12)">
<path style=" stroke:none;fill-rule:evenodd;fill:rgb(65.882353%,22.745098%,17.647059%);fill-opacity:1;" d="M 48.90625 23.847656 C 48.730469 24.453125 48.445312 25 48.042969 25.480469 C 47.925781 25.285156 47.769531 25.125 47.574219 25 C 47.558594 24.976562 47.558594 24.953125 47.574219 24.929688 C 47.628906 24.875 47.679688 24.824219 47.730469 24.773438 C 48.175781 24.53125 48.566406 24.222656 48.90625 23.847656 Z M 48.90625 23.847656 "/>
</g>
<mask id="mask12">
  <g filter="url(#alpha)">
<rect x="0" y="0" width="50" height="50" style="fill:rgb(0%,0%,0%);fill-opacity:0.988235;stroke:none;"/>
  </g>
</mask>
<clipPath id="clip13">
  <rect width="50" height="50"/>
</clipPath>
<g id="surface42" clip-path="url(#clip13)">
<path style=" stroke:none;fill-rule:evenodd;fill:rgb(79.215686%,78.431373%,76.078431%);fill-opacity:1;" d="M 39.785156 24.0625 C 39.785156 24.105469 39.785156 24.144531 39.785156 24.183594 C 39.488281 24.210938 39.1875 24.226562 38.886719 24.230469 C 38.742188 24.230469 38.601562 24.222656 38.464844 24.207031 C 38.464844 24.160156 38.464844 24.113281 38.464844 24.0625 C 38.90625 24.0625 39.347656 24.0625 39.785156 24.0625 Z M 39.785156 24.0625 "/>
</g>
<mask id="mask13">
  <g filter="url(#alpha)">
<rect x="0" y="0" width="50" height="50" style="fill:rgb(0%,0%,0%);fill-opacity:0.996078;stroke:none;"/>
  </g>
</mask>
<clipPath id="clip14">
  <rect width="50" height="50"/>
</clipPath>
<g id="surface45" clip-path="url(#clip14)">
<path style=" stroke:none;fill-rule:evenodd;fill:rgb(83.137255%,82.352941%,80%);fill-opacity:1;" d="M 40.242188 24.0625 C 40.265625 24.0625 40.289062 24.0625 40.3125 24.0625 C 40.3125 25.015625 40.3125 25.96875 40.3125 26.921875 C 40.289062 26.921875 40.265625 26.921875 40.242188 26.921875 C 40.242188 25.964844 40.242188 25.011719 40.242188 24.0625 Z M 40.242188 24.0625 "/>
</g>
<mask id="mask14">
  <g filter="url(#alpha)">
<rect x="0" y="0" width="50" height="50" style="fill:rgb(0%,0%,0%);fill-opacity:0.996078;stroke:none;"/>
  </g>
</mask>
<clipPath id="clip15">
  <rect width="50" height="50"/>
</clipPath>
<g id="surface48" clip-path="url(#clip15)">
<path style=" stroke:none;fill-rule:evenodd;fill:rgb(1.568627%,1.568627%,1.176471%);fill-opacity:1;" d="M 37.289062 24.328125 C 37.367188 24.410156 37.429688 24.507812 37.46875 24.617188 C 37.597656 25.03125 37.726562 25.449219 37.855469 25.863281 C 37.871094 25.960938 37.871094 26.054688 37.855469 26.152344 C 37.816406 26.265625 37.742188 26.328125 37.625 26.34375 C 37.363281 26.332031 37.109375 26.351562 36.859375 26.390625 C 36.648438 26.449219 36.4375 26.515625 36.234375 26.597656 C 36.089844 26.640625 35.945312 26.640625 35.800781 26.597656 C 35.746094 26.539062 35.714844 26.472656 35.707031 26.390625 C 35.710938 26.273438 35.707031 26.152344 35.695312 26.03125 C 35.542969 25.542969 35.460938 25.046875 35.441406 24.542969 C 35.289062 24.546875 35.136719 24.542969 34.984375 24.53125 C 34.910156 24.472656 34.878906 24.398438 34.890625 24.304688 C 34.910156 24.273438 34.933594 24.246094 34.960938 24.21875 C 35.121094 24.207031 35.28125 24.203125 35.441406 24.207031 C 35.441406 24.222656 35.449219 24.230469 35.464844 24.230469 C 35.515625 24.171875 35.574219 24.167969 35.632812 24.21875 C 36.121094 24.226562 36.609375 24.234375 37.097656 24.242188 C 37.164062 24.265625 37.230469 24.292969 37.289062 24.328125 Z M 37.289062 24.328125 "/>
</g>
<mask id="mask15">
  <g filter="url(#alpha)">
<rect x="0" y="0" width="50" height="50" style="fill:rgb(0%,0%,0%);fill-opacity:0.996078;stroke:none;"/>
  </g>
</mask>
<clipPath id="clip16">
  <rect width="50" height="50"/>
</clipPath>
<g id="surface51" clip-path="url(#clip16)">
<path style=" stroke:none;fill-rule:evenodd;fill:rgb(99.215686%,99.215686%,99.215686%);fill-opacity:1;" d="M 37.289062 24.28125 C 37.570312 24.28125 37.851562 24.28125 38.128906 24.28125 C 37.988281 24.410156 37.9375 24.570312 37.972656 24.761719 C 38.035156 24.894531 38.09375 25.027344 38.140625 25.167969 C 38.175781 25.535156 38.199219 25.902344 38.214844 26.273438 C 38.261719 26.402344 38.34375 26.5 38.464844 26.558594 C 38.464844 26.679688 38.464844 26.800781 38.464844 26.921875 C 38.851562 26.921875 39.234375 26.921875 39.617188 26.921875 C 39.617188 27.878906 39.617188 28.839844 39.617188 29.800781 C 39.582031 29.824219 39.542969 29.84375 39.5 29.859375 C 38.769531 30.003906 38.03125 30.101562 37.289062 30.148438 C 36.996094 30.199219 36.699219 30.246094 36.402344 30.292969 C 36.125 30.316406 35.855469 30.296875 35.585938 30.234375 C 35.558594 30.226562 35.539062 30.210938 35.527344 30.183594 C 35.457031 29.414062 35.296875 28.660156 35.046875 27.929688 C 34.996094 27.820312 34.941406 27.714844 34.878906 27.617188 C 34.625 27.308594 34.34375 27.273438 34.027344 27.507812 C 33.558594 28.007812 33.257812 28.597656 33.125 29.273438 C 33.101562 29.707031 33.121094 30.136719 33.171875 30.570312 C 33.183594 30.589844 33.195312 30.609375 33.210938 30.628906 C 33.296875 30.683594 33.375 30.671875 33.4375 30.59375 C 33.257812 29.507812 33.550781 28.574219 34.3125 27.796875 C 34.445312 27.773438 34.535156 27.828125 34.589844 27.953125 C 34.832031 28.746094 34.980469 29.558594 35.035156 30.390625 C 34.910156 30.609375 34.949219 30.792969 35.152344 30.941406 C 35.449219 30.996094 35.59375 30.871094 35.585938 30.570312 C 35.847656 30.648438 36.117188 30.699219 36.390625 30.714844 C 37.28125 30.625 38.171875 30.550781 39.066406 30.484375 C 39.25 30.445312 39.433594 30.417969 39.617188 30.402344 C 39.617188 30.519531 39.617188 30.640625 39.617188 30.761719 C 35.449219 31.558594 31.28125 32.363281 27.113281 33.171875 C 23.609375 33.1875 20.101562 33.1875 16.597656 33.171875 C 15.09375 33.167969 13.589844 33.128906 12.085938 33.054688 C 11.972656 33.042969 11.859375 33.027344 11.75 33.003906 C 11.730469 32.996094 11.714844 32.984375 11.703125 32.96875 C 11.730469 32.585938 11.722656 32.203125 11.679688 31.816406 C 11.722656 31.816406 11.761719 31.828125 11.796875 31.851562 C 11.886719 31.941406 11.972656 32.03125 12.0625 32.117188 C 12.214844 32.175781 12.375 32.191406 12.542969 32.164062 C 12.640625 32.136719 12.738281 32.117188 12.84375 32.105469 C 13.179688 32.15625 13.519531 32.191406 13.863281 32.214844 C 14.855469 32.25 15.847656 32.300781 16.839844 32.355469 C 17.808594 32.375 18.773438 32.375 19.742188 32.355469 C 21.394531 32.289062 23.046875 32.238281 24.699219 32.199219 C 24.96875 32.207031 25.234375 32.210938 25.503906 32.214844 C 25.976562 32.242188 26.445312 32.304688 26.910156 32.394531 C 27.011719 32.394531 27.109375 32.382812 27.207031 32.355469 C 27.277344 32.339844 27.324219 32.300781 27.351562 32.238281 C 27.71875 32.164062 28.078125 32.070312 28.433594 31.949219 C 29.089844 31.863281 29.746094 31.777344 30.402344 31.683594 C 30.761719 31.625 31.125 31.554688 31.480469 31.46875 C 32.027344 31.246094 32.570312 31.019531 33.113281 30.796875 C 33.1875 30.703125 33.171875 30.632812 33.066406 30.582031 C 32.867188 30.558594 32.675781 30.582031 32.488281 30.652344 C 32.097656 30.8125 31.695312 30.949219 31.289062 31.0625 C 30.390625 31.214844 29.488281 31.328125 28.578125 31.398438 C 28.226562 31.484375 27.875 31.570312 27.519531 31.648438 C 27.472656 31.648438 27.425781 31.648438 27.375 31.648438 C 27.375 31.394531 27.375 31.136719 27.375 30.882812 C 27.398438 30.511719 27.429688 30.144531 27.460938 29.777344 C 27.546875 29.136719 27.632812 28.496094 27.710938 27.855469 C 27.867188 27.863281 28.019531 27.84375 28.167969 27.796875 C 28.457031 27.710938 28.734375 27.605469 29.007812 27.484375 C 29.472656 27.492188 29.710938 27.265625 29.714844 26.800781 C 29.726562 26.257812 29.734375 25.710938 29.742188 25.167969 C 29.75 25.082031 29.773438 25.003906 29.8125 24.929688 C 29.828125 24.863281 29.828125 24.800781 29.8125 24.734375 C 29.792969 24.707031 29.761719 24.6875 29.730469 24.675781 C 29.617188 24.660156 29.503906 24.660156 29.394531 24.675781 C 29.007812 24.789062 28.613281 24.875 28.214844 24.941406 C 28.136719 24.964844 28.054688 24.992188 27.976562 25.023438 C 27.964844 24.796875 27.980469 24.574219 28.023438 24.351562 C 29.554688 24.347656 31.082031 24.339844 32.609375 24.328125 C 32.332031 24.417969 32.050781 24.507812 31.769531 24.605469 C 31.65625 24.628906 31.546875 24.644531 31.433594 24.652344 C 31.367188 24.738281 31.367188 24.828125 31.433594 24.914062 C 31.554688 24.929688 31.671875 24.925781 31.792969 24.902344 C 31.816406 25.507812 31.824219 26.117188 31.816406 26.726562 C 31.777344 26.765625 31.730469 26.78125 31.671875 26.777344 C 31.664062 26.304688 31.660156 25.832031 31.660156 25.359375 C 31.640625 25.257812 31.625 25.152344 31.613281 25.046875 C 31.542969 25.011719 31.476562 25.019531 31.421875 25.070312 C 31.363281 25.648438 31.328125 26.222656 31.324219 26.800781 C 31.351562 26.980469 31.449219 27.085938 31.625 27.113281 C 31.675781 27.136719 31.730469 27.144531 31.792969 27.136719 C 31.792969 27.230469 31.792969 27.328125 31.792969 27.425781 C 32.410156 27.425781 33.023438 27.425781 33.640625 27.425781 C 33.640625 26.472656 33.640625 25.519531 33.640625 24.566406 C 33.496094 24.566406 33.351562 24.566406 33.210938 24.566406 C 33.136719 24.460938 33.039062 24.382812 32.921875 24.328125 C 33.578125 24.3125 34.234375 24.304688 34.890625 24.304688 C 34.878906 24.398438 34.910156 24.472656 34.984375 24.53125 C 35.136719 24.542969 35.289062 24.546875 35.441406 24.542969 C 35.441406 25.160156 35.441406 25.777344 35.441406 26.390625 C 35.53125 26.390625 35.617188 26.390625 35.707031 26.390625 C 35.714844 26.472656 35.746094 26.539062 35.800781 26.597656 C 35.945312 26.640625 36.089844 26.640625 36.234375 26.597656 C 36.4375 26.515625 36.648438 26.449219 36.859375 26.390625 C 37.117188 26.394531 37.375 26.378906 37.625 26.34375 C 37.742188 26.328125 37.816406 26.265625 37.855469 26.152344 C 37.871094 26.054688 37.871094 25.960938 37.855469 25.863281 C 37.726562 25.449219 37.597656 25.03125 37.46875 24.617188 C 37.429688 24.507812 37.367188 24.410156 37.289062 24.328125 C 37.289062 24.3125 37.289062 24.296875 37.289062 24.28125 Z M 37.289062 24.28125 "/>
</g>
<mask id="mask16">
  <g filter="url(#alpha)">
<rect x="0" y="0" width="50" height="50" style="fill:rgb(0%,0%,0%);fill-opacity:0.886275;stroke:none;"/>
  </g>
</mask>
<clipPath id="clip17">
  <rect width="50" height="50"/>
</clipPath>
<g id="surface54" clip-path="url(#clip17)">
<path style=" stroke:none;fill-rule:evenodd;fill:rgb(63.529412%,21.960784%,16.862745%);fill-opacity:1;" d="M 45.546875 27.136719 C 45.46875 27.03125 45.386719 26.929688 45.308594 26.824219 C 45.304688 26.804688 45.3125 26.789062 45.332031 26.777344 C 45.410156 26.808594 45.492188 26.839844 45.570312 26.871094 C 45.597656 26.964844 45.589844 27.054688 45.546875 27.136719 Z M 45.546875 27.136719 "/>
</g>
<mask id="mask17">
  <g filter="url(#alpha)">
<rect x="0" y="0" width="50" height="50" style="fill:rgb(0%,0%,0%);fill-opacity:0.941176;stroke:none;"/>
  </g>
</mask>
<clipPath id="clip18">
  <rect width="50" height="50"/>
</clipPath>
<g id="surface57" clip-path="url(#clip18)">
<path style=" stroke:none;fill-rule:evenodd;fill:rgb(64.313725%,22.352941%,17.254902%);fill-opacity:1;" d="M 46.628906 26.992188 C 46.390625 27.222656 46.132812 27.429688 45.859375 27.617188 C 45.882812 27.40625 45.914062 27.199219 45.957031 26.992188 C 46.175781 26.988281 46.398438 26.988281 46.628906 26.992188 Z M 46.628906 26.992188 "/>
</g>
</defs>
<g id="surface1">
<use xlink:href="#surface6" mask="url(#mask0)"/>
<use xlink:href="#surface9" mask="url(#mask1)"/>
<use xlink:href="#surface12" mask="url(#mask2)"/>
<use xlink:href="#surface15" mask="url(#mask3)"/>
<use xlink:href="#surface18" mask="url(#mask4)"/>
<use xlink:href="#surface21" mask="url(#mask5)"/>
<use xlink:href="#surface24" mask="url(#mask6)"/>
<use xlink:href="#surface27" mask="url(#mask7)"/>
<use xlink:href="#surface30" mask="url(#mask8)"/>
<path style=" stroke:none;fill-rule:evenodd;fill:rgb(1.568627%,1.568627%,1.568627%);fill-opacity:1;" d="M 22.695312 22.910156 C 23.078125 22.902344 23.414062 23.015625 23.703125 23.257812 C 24.339844 23.875 24.679688 24.621094 24.722656 25.503906 C 24.6875 25.792969 24.523438 25.902344 24.230469 25.828125 C 24.136719 25.78125 24.097656 25.707031 24.113281 25.601562 C 24.105469 25.527344 24.125 25.460938 24.171875 25.40625 C 24.1875 25.304688 24.1875 25.199219 24.171875 25.097656 C 24.046875 24.640625 23.847656 24.226562 23.570312 23.847656 C 23.433594 23.679688 23.269531 23.546875 23.078125 23.453125 C 22.707031 23.339844 22.410156 23.441406 22.179688 23.75 C 21.980469 24.019531 21.824219 24.304688 21.699219 24.617188 C 21.695312 24.714844 21.679688 24.8125 21.652344 24.902344 C 21.410156 25 21.308594 24.914062 21.351562 24.652344 C 21.351562 24.542969 21.363281 24.433594 21.386719 24.328125 C 21.554688 23.890625 21.800781 23.503906 22.121094 23.164062 C 22.292969 23.03125 22.484375 22.949219 22.695312 22.910156 Z M 22.695312 22.910156 "/>
<use xlink:href="#surface33" mask="url(#mask9)"/>
<path style=" stroke:none;fill-rule:evenodd;fill:rgb(1.176471%,1.176471%,1.176471%);fill-opacity:1;" d="M 15.636719 23.441406 C 16.394531 23.433594 17.039062 23.699219 17.570312 24.230469 C 17.636719 24.328125 17.6875 24.433594 17.726562 24.542969 C 17.921875 24.632812 17.964844 24.765625 17.859375 24.953125 C 17.679688 25.148438 17.511719 25.140625 17.355469 24.929688 C 17.324219 24.664062 17.199219 24.460938 16.984375 24.316406 C 16.703125 24.101562 16.390625 23.957031 16.046875 23.882812 C 15.730469 23.816406 15.449219 23.890625 15.207031 24.101562 C 14.679688 24.679688 14.410156 25.363281 14.402344 26.152344 C 14.34375 26.242188 14.257812 26.269531 14.148438 26.234375 C 14.121094 26.214844 14.101562 26.1875 14.089844 26.152344 C 14.035156 25.25 14.3125 24.460938 14.917969 23.789062 C 15.125 23.601562 15.367188 23.484375 15.636719 23.441406 Z M 15.636719 23.441406 "/>
<use xlink:href="#surface36" mask="url(#mask10)"/>
<use xlink:href="#surface39" mask="url(#mask11)"/>
<use xlink:href="#surface42" mask="url(#mask12)"/>
<use xlink:href="#surface45" mask="url(#mask13)"/>
<use xlink:href="#surface48" mask="url(#mask14)"/>
<use xlink:href="#surface51" mask="url(#mask15)"/>
<path style=" stroke:none;fill-rule:evenodd;fill:rgb(1.568627%,1.568627%,1.568627%);fill-opacity:1;" d="M 32.609375 24.328125 C 32.714844 24.328125 32.816406 24.328125 32.921875 24.328125 C 33.039062 24.382812 33.136719 24.460938 33.210938 24.566406 C 33.328125 25.058594 33.460938 25.546875 33.605469 26.03125 C 33.652344 26.410156 33.488281 26.628906 33.113281 26.691406 C 32.960938 26.699219 32.808594 26.707031 32.65625 26.714844 C 32.433594 26.828125 32.210938 26.941406 31.984375 27.050781 C 31.871094 27.101562 31.75 27.121094 31.625 27.113281 C 31.449219 27.085938 31.351562 26.980469 31.324219 26.800781 C 31.328125 26.222656 31.363281 25.648438 31.421875 25.070312 C 31.476562 25.019531 31.542969 25.011719 31.613281 25.046875 C 31.625 25.152344 31.640625 25.257812 31.660156 25.359375 C 31.660156 25.832031 31.664062 26.304688 31.671875 26.777344 C 31.730469 26.78125 31.777344 26.765625 31.816406 26.726562 C 32.039062 26.640625 32.253906 26.542969 32.464844 26.429688 C 32.707031 26.410156 32.949219 26.375 33.183594 26.332031 C 33.265625 26.300781 33.300781 26.242188 33.28125 26.152344 C 33.171875 25.671875 33.058594 25.191406 32.933594 24.710938 C 32.90625 24.683594 32.878906 24.65625 32.847656 24.628906 C 32.734375 24.609375 32.625 24.617188 32.511719 24.652344 C 32.269531 24.738281 32.03125 24.824219 31.792969 24.902344 C 31.671875 24.925781 31.554688 24.929688 31.433594 24.914062 C 31.367188 24.828125 31.367188 24.738281 31.433594 24.652344 C 31.546875 24.644531 31.65625 24.628906 31.769531 24.605469 C 32.050781 24.507812 32.332031 24.417969 32.609375 24.328125 Z M 32.609375 24.328125 "/>
<path style=" stroke:none;fill-rule:evenodd;fill:rgb(82.352941%,81.568627%,79.215686%);fill-opacity:1;" d="M 38.441406 25.046875 C 38.464844 24.882812 38.472656 24.714844 38.464844 24.542969 C 38.898438 24.519531 39.332031 24.480469 39.761719 24.425781 C 39.761719 24.921875 39.761719 25.414062 39.761719 25.914062 C 39.507812 25.894531 39.261719 25.921875 39.019531 25.996094 C 38.867188 26.078125 38.714844 26.148438 38.5625 26.210938 C 38.519531 25.824219 38.480469 25.4375 38.441406 25.046875 Z M 38.441406 25.046875 "/>
<path style=" stroke:none;fill-rule:evenodd;fill:rgb(72.156863%,70.980392%,69.019608%);fill-opacity:1;" d="M 37.3125 25.144531 C 37.289062 25.4375 37.28125 25.730469 37.289062 26.03125 C 37.378906 26.03125 37.464844 26.03125 37.554688 26.03125 C 37.070312 26.003906 36.605469 26.097656 36.160156 26.308594 C 36.105469 26.320312 36.050781 26.324219 35.992188 26.320312 C 35.996094 26.207031 35.992188 26.097656 35.980469 25.984375 C 35.816406 25.507812 35.714844 25.023438 35.683594 24.519531 C 36.128906 24.515625 36.578125 24.519531 37.027344 24.53125 C 37.101562 24.570312 37.15625 24.628906 37.183594 24.710938 C 37.234375 24.855469 37.277344 25 37.3125 25.144531 Z M 37.3125 25.144531 "/>
<path style=" stroke:none;fill-rule:evenodd;fill:rgb(96.470588%,96.470588%,96.470588%);fill-opacity:1;" d="M 38.464844 24.542969 C 38.472656 24.714844 38.464844 24.882812 38.441406 25.046875 C 38.390625 24.917969 38.34375 24.785156 38.296875 24.652344 C 38.300781 24.617188 38.308594 24.585938 38.320312 24.554688 C 38.371094 24.542969 38.417969 24.539062 38.464844 24.542969 Z M 38.464844 24.542969 "/>
<path style=" stroke:none;fill-rule:evenodd;fill:rgb(82.745098%,81.960784%,79.607843%);fill-opacity:1;" d="M 33.210938 24.566406 C 33.351562 24.566406 33.496094 24.566406 33.640625 24.566406 C 33.640625 25.519531 33.640625 26.472656 33.640625 27.425781 C 33.023438 27.425781 32.410156 27.425781 31.792969 27.425781 C 31.792969 27.328125 31.792969 27.230469 31.792969 27.136719 C 31.730469 27.144531 31.675781 27.136719 31.625 27.113281 C 31.75 27.121094 31.871094 27.101562 31.984375 27.050781 C 32.210938 26.941406 32.433594 26.828125 32.65625 26.714844 C 32.808594 26.707031 32.960938 26.699219 33.113281 26.691406 C 33.488281 26.628906 33.652344 26.410156 33.605469 26.03125 C 33.460938 25.546875 33.328125 25.058594 33.210938 24.566406 Z M 33.210938 24.566406 "/>
<path style=" stroke:none;fill-rule:evenodd;fill:rgb(82.745098%,81.960784%,79.607843%);fill-opacity:1;" d="M 31.816406 26.726562 C 31.824219 26.117188 31.816406 25.507812 31.792969 24.902344 C 32.03125 24.824219 32.269531 24.738281 32.511719 24.652344 C 32.625 24.617188 32.734375 24.609375 32.847656 24.628906 C 32.878906 24.65625 32.90625 24.683594 32.933594 24.710938 C 33.058594 25.191406 33.171875 25.671875 33.28125 26.152344 C 33.300781 26.242188 33.265625 26.300781 33.183594 26.332031 C 32.949219 26.375 32.707031 26.410156 32.464844 26.429688 C 32.253906 26.542969 32.039062 26.640625 31.816406 26.726562 Z M 31.816406 26.726562 "/>
<path style=" stroke:none;fill-rule:evenodd;fill:rgb(98.823529%,98.823529%,98.823529%);fill-opacity:1;" d="M 29.296875 24.953125 C 29.347656 24.945312 29.394531 24.953125 29.441406 24.976562 C 29.40625 25.078125 29.386719 25.179688 29.378906 25.289062 C 29.371094 25.695312 29.363281 26.105469 29.355469 26.511719 C 29.339844 26.667969 29.3125 26.820312 29.273438 26.96875 C 29.230469 27.003906 29.183594 27.023438 29.128906 27.027344 C 29.046875 27.035156 28.96875 27.042969 28.886719 27.050781 C 28.527344 27.214844 28.152344 27.332031 27.761719 27.398438 C 27.785156 26.679688 27.839844 25.957031 27.917969 25.238281 C 28.234375 25.144531 28.558594 25.085938 28.886719 25.058594 C 29.03125 25.035156 29.167969 25 29.296875 24.953125 Z M 29.296875 24.953125 "/>
<path style=" stroke:none;fill-rule:evenodd;fill:rgb(71.372549%,70.196078%,68.235294%);fill-opacity:1;" d="M 35.441406 24.542969 C 35.460938 25.046875 35.542969 25.542969 35.695312 26.03125 C 35.707031 26.152344 35.710938 26.273438 35.707031 26.390625 C 35.617188 26.390625 35.53125 26.390625 35.441406 26.390625 C 35.441406 25.777344 35.441406 25.160156 35.441406 24.542969 Z M 35.441406 24.542969 "/>
<path style=" stroke:none;fill-rule:evenodd;fill:rgb(97.647059%,97.647059%,97.647059%);fill-opacity:1;" d="M 37.3125 25.144531 C 37.378906 25.351562 37.449219 25.558594 37.519531 25.769531 C 37.542969 25.855469 37.558594 25.941406 37.554688 26.03125 C 37.464844 26.03125 37.378906 26.03125 37.289062 26.03125 C 37.28125 25.730469 37.289062 25.4375 37.3125 25.144531 Z M 37.3125 25.144531 "/>
<path style=" stroke:none;fill-rule:evenodd;fill:rgb(82.745098%,81.960784%,79.607843%);fill-opacity:1;" d="M 39.714844 26.921875 C 39.683594 26.921875 39.648438 26.921875 39.617188 26.921875 C 39.234375 26.921875 38.851562 26.921875 38.464844 26.921875 C 38.464844 26.800781 38.464844 26.679688 38.464844 26.558594 C 38.5625 26.5625 38.660156 26.550781 38.753906 26.523438 C 38.878906 26.464844 39 26.402344 39.113281 26.332031 C 39.316406 26.277344 39.527344 26.257812 39.738281 26.273438 C 39.746094 26.492188 39.738281 26.707031 39.714844 26.921875 Z M 39.714844 26.921875 "/>
<path style=" stroke:none;fill-rule:evenodd;fill:rgb(70.588235%,69.803922%,69.019608%);fill-opacity:1;" d="M 37.625 26.34375 C 37.375 26.378906 37.117188 26.394531 36.859375 26.390625 C 37.109375 26.351562 37.363281 26.332031 37.625 26.34375 Z M 37.625 26.34375 "/>
<use xlink:href="#surface54" mask="url(#mask16)"/>
<path style=" stroke:none;fill-rule:evenodd;fill:rgb(0.784314%,0.784314%,0.784314%);fill-opacity:1;" d="M 17.222656 27.519531 C 18.324219 27.742188 19.441406 27.863281 20.570312 27.878906 C 21.019531 27.890625 21.460938 27.863281 21.902344 27.796875 C 22.195312 27.726562 22.476562 27.621094 22.742188 27.484375 C 22.847656 27.460938 22.949219 27.449219 23.054688 27.449219 C 23.234375 27.503906 23.304688 27.621094 23.257812 27.808594 C 22.949219 28.496094 22.441406 28.976562 21.734375 29.25 C 20.984375 29.496094 20.214844 29.558594 19.429688 29.429688 C 18.289062 29.253906 17.253906 28.820312 16.335938 28.132812 C 16.179688 27.996094 16.027344 27.855469 15.878906 27.710938 C 15.839844 27.664062 15.800781 27.617188 15.757812 27.570312 C 15.550781 27.476562 15.492188 27.324219 15.578125 27.113281 C 15.804688 26.851562 16.027344 26.855469 16.238281 27.125 C 16.40625 27.210938 16.574219 27.300781 16.742188 27.386719 C 16.898438 27.453125 17.058594 27.5 17.222656 27.519531 Z M 17.222656 27.519531 "/>
<use xlink:href="#surface57" mask="url(#mask17)"/>
<path style=" stroke:none;fill-rule:evenodd;fill:rgb(76.470588%,75.686275%,77.254902%);fill-opacity:1;" d="M 23.054688 27.449219 C 22.949219 27.449219 22.847656 27.460938 22.742188 27.484375 C 22.476562 27.621094 22.195312 27.726562 21.902344 27.796875 C 21.460938 27.863281 21.019531 27.890625 20.570312 27.878906 C 19.441406 27.863281 18.324219 27.742188 17.222656 27.519531 C 18.542969 27.621094 19.863281 27.640625 21.183594 27.582031 C 21.71875 27.554688 22.25 27.476562 22.769531 27.339844 C 22.886719 27.304688 23.003906 27.261719 23.117188 27.207031 C 23.105469 27.289062 23.082031 27.367188 23.054688 27.449219 Z M 23.054688 27.449219 "/>
<path style=" stroke:none;fill-rule:evenodd;fill:rgb(77.647059%,76.862745%,78.431373%);fill-opacity:1;" d="M 15.878906 27.710938 C 16.027344 27.855469 16.179688 27.996094 16.335938 28.132812 C 17.253906 28.820312 18.289062 29.253906 19.429688 29.429688 C 20.214844 29.558594 20.984375 29.496094 21.734375 29.25 C 20.695312 30.074219 19.527344 30.324219 18.230469 30.003906 C 17.253906 29.667969 16.53125 29.039062 16.058594 28.121094 C 15.988281 27.988281 15.925781 27.851562 15.878906 27.710938 Z M 15.878906 27.710938 "/>
<path style=" stroke:none;fill-rule:evenodd;fill:rgb(76.470588%,75.686275%,77.254902%);fill-opacity:1;" d="M 17.292969 28.144531 C 17.304688 28.128906 17.320312 28.121094 17.34375 28.121094 C 18.1875 28.261719 19.035156 28.359375 19.886719 28.421875 C 20.441406 28.4375 20.992188 28.429688 21.542969 28.398438 C 21.808594 28.363281 22.074219 28.324219 22.335938 28.277344 C 21.980469 28.597656 21.5625 28.808594 21.085938 28.902344 C 19.734375 29.101562 18.46875 28.847656 17.292969 28.144531 Z M 17.292969 28.144531 "/>
<path style=" stroke:none;fill-rule:evenodd;fill:rgb(67.45098%,67.45098%,67.45098%);fill-opacity:1;" d="M 27.375 30.882812 C 27.375 31.136719 27.375 31.394531 27.375 31.648438 C 27.425781 31.648438 27.472656 31.648438 27.519531 31.648438 C 27.46875 31.671875 27.414062 31.679688 27.351562 31.671875 C 27.34375 31.40625 27.351562 31.140625 27.375 30.882812 Z M 27.375 30.882812 "/>
</g>
</svg>
