<?xml version="1.0" encoding="UTF-8"?>
<svg xmlns="http://www.w3.org/2000/svg" xmlns:xlink="http://www.w3.org/1999/xlink" width="50pt" height="50pt" viewBox="0 0 50 50" version="1.1">
<defs>
<filter id="alpha" filterUnits="objectBoundingBox" x="0%" y="0%" width="100%" height="100%">
  <feColorMatrix type="matrix" in="SourceGraphic" values="0 0 0 0 1 0 0 0 0 1 0 0 0 0 1 0 0 0 1 0"/>
</filter>
<mask id="mask0">
  <g filter="url(#alpha)">
<rect x="0" y="0" width="50" height="50" style="fill:rgb(0%,0%,0%);fill-opacity:0.988235;stroke:none;"/>
  </g>
</mask>
<clipPath id="clip1">
  <rect width="50" height="50"/>
</clipPath>
<g id="surface6" clip-path="url(#clip1)">
<path style=" stroke:none;fill-rule:evenodd;fill:rgb(66.666667%,23.137255%,18.039216%);fill-opacity:1;" d="M 30.738281 16.742188 C 31.046875 17.140625 31.445312 17.402344 31.9375 17.523438 C 32.375 17.550781 32.816406 17.5625 33.257812 17.558594 C 33.628906 17.558594 33.996094 17.550781 34.363281 17.535156 C 36.039062 17.585938 37.445312 16.992188 38.574219 15.757812 C 38.6875 15.597656 38.796875 15.4375 38.910156 15.277344 C 39.128906 14.886719 39.363281 14.503906 39.605469 14.125 C 39.789062 13.878906 40.019531 13.683594 40.289062 13.539062 C 40.703125 13.414062 41.078125 13.488281 41.417969 13.753906 C 41.929688 14.230469 42.40625 14.738281 42.847656 15.277344 C 43.515625 16.125 44.203125 16.957031 44.910156 17.773438 C 45.613281 18.441406 46.269531 19.144531 46.878906 19.886719 C 47.28125 20.320312 47.726562 20.703125 48.210938 21.027344 C 48.550781 21.375 48.585938 21.753906 48.320312 22.167969 C 48.261719 22.261719 48.199219 22.347656 48.128906 22.429688 C 47.632812 22.894531 47.136719 23.359375 46.640625 23.824219 C 45.722656 24.875 44.800781 25.917969 43.867188 26.957031 C 45.085938 27.773438 46.074219 28.808594 46.832031 30.066406 C 47.644531 31.578125 47.8125 33.164062 47.335938 34.816406 C 46.957031 36.253906 46.109375 37.320312 44.804688 38.023438 C 43.816406 38.570312 42.761719 38.859375 41.632812 38.898438 C 40.476562 38.886719 39.441406 38.523438 38.539062 37.804688 C 37.84375 37.191406 37.164062 36.558594 36.496094 35.910156 C 36.1875 35.640625 35.871094 35.378906 35.550781 35.128906 C 34.582031 35.71875 33.644531 36.347656 32.730469 37.015625 C 32.320312 37.347656 31.921875 37.691406 31.527344 38.046875 C 30.941406 38.488281 30.355469 38.9375 29.777344 39.390625 C 28.570312 40.492188 27.3125 41.535156 26.007812 42.511719 C 25.261719 43.167969 24.511719 43.816406 23.75 44.457031 C 23.484375 44.667969 23.179688 44.785156 22.839844 44.804688 C 22.519531 44.800781 22.238281 44.691406 22 44.480469 C 21.828125 44.308594 21.671875 44.128906 21.53125 43.9375 C 21.339844 43.613281 21.132812 43.300781 20.90625 43.003906 C 20.132812 42.253906 19.335938 41.527344 18.519531 40.832031 C 18.234375 40.570312 17.960938 40.304688 17.691406 40.027344 C 17.449219 39.761719 17.292969 39.457031 17.222656 39.101562 C 17.238281 38.839844 17.339844 38.625 17.535156 38.453125 C 17.59375 38.410156 17.65625 38.378906 17.726562 38.359375 C 18.640625 38.195312 19.421875 37.78125 20.066406 37.121094 C 20.457031 36.578125 20.738281 35.976562 20.90625 35.320312 C 21.109375 34.644531 21.15625 33.957031 21.050781 33.257812 C 20.917969 32.484375 20.503906 31.910156 19.816406 31.542969 C 18.847656 31.074219 17.832031 30.761719 16.765625 30.605469 C 16.050781 30.558594 15.363281 30.675781 14.703125 30.953125 C 14.332031 31.101562 13.996094 31.304688 13.695312 31.566406 C 13.566406 31.679688 13.457031 31.804688 13.359375 31.9375 C 13.058594 32.359375 12.78125 32.800781 12.53125 33.257812 C 12.402344 33.441406 12.269531 33.621094 12.132812 33.796875 C 11.832031 34.019531 11.523438 34.035156 11.199219 33.84375 C 10.238281 33.195312 9.292969 32.523438 8.367188 31.828125 C 7.699219 31.308594 7.082031 30.738281 6.503906 30.113281 C 6.066406 29.570312 5.617188 29.035156 5.160156 28.503906 C 5.019531 28.363281 4.878906 28.222656 4.742188 28.085938 C 3.949219 27.46875 3.203125 26.800781 2.496094 26.082031 C 2.242188 25.820312 2.042969 25.527344 1.894531 25.191406 C 1.742188 24.726562 1.808594 24.296875 2.089844 23.894531 C 2.238281 23.671875 2.398438 23.457031 2.570312 23.246094 C 3.230469 22.546875 3.914062 21.871094 4.621094 21.21875 C 5.746094 20.242188 6.859375 19.253906 7.957031 18.242188 C 8.1875 18.058594 8.421875 17.875 8.652344 17.691406 C 8.21875 17.636719 7.789062 17.574219 7.355469 17.5 C 6.800781 17.40625 6.28125 17.214844 5.796875 16.921875 C 5.441406 16.707031 5.097656 16.480469 4.765625 16.238281 C 4.304688 15.882812 3.847656 15.523438 3.398438 15.160156 C 2.722656 14.617188 2.191406 13.960938 1.800781 13.191406 C 1.523438 12.570312 1.429688 11.921875 1.511719 11.246094 C 1.625 10.164062 1.953125 9.15625 2.496094 8.222656 C 2.871094 7.660156 3.347656 7.210938 3.925781 6.863281 C 4.953125 6.296875 5.992188 5.75 7.046875 5.234375 C 7.890625 4.875 8.769531 4.722656 9.6875 4.777344 C 10.199219 4.832031 10.65625 5.023438 11.054688 5.351562 C 11.675781 5.871094 12.316406 6.367188 12.972656 6.839844 C 13.9375 7.617188 14.496094 8.621094 14.65625 9.855469 C 15.128906 9.570312 15.59375 9.269531 16.046875 8.953125 C 17.046875 8.199219 18.054688 7.453125 19.070312 6.722656 C 20.640625 5.710938 22.226562 4.71875 23.824219 3.746094 C 24.351562 3.402344 24.871094 3.050781 25.382812 2.6875 C 25.832031 2.386719 26.324219 2.214844 26.859375 2.171875 C 27.28125 2.191406 27.660156 2.320312 28 2.570312 C 28.175781 2.710938 28.351562 2.855469 28.527344 3 C 28.917969 3.398438 29.296875 3.800781 29.667969 4.210938 C 30.308594 4.972656 30.957031 5.722656 31.613281 6.46875 C 32.039062 6.894531 32.480469 7.304688 32.933594 7.691406 C 33.109375 8.058594 33.078125 8.414062 32.835938 8.75 C 32.722656 8.886719 32.597656 9.019531 32.464844 9.144531 C 32 9.476562 31.527344 9.796875 31.050781 10.105469 C 30.28125 10.761719 29.734375 11.566406 29.40625 12.519531 C 29.253906 13.121094 29.269531 13.722656 29.453125 14.316406 C 29.742188 15.203125 30.171875 16.011719 30.738281 16.742188 Z M 27.617188 4.523438 C 23.488281 7.488281 19.363281 10.457031 15.242188 13.429688 C 15.34375 12.800781 15.285156 12.183594 15.0625 11.582031 C 15.609375 11.296875 16.136719 10.980469 16.648438 10.632812 C 17.558594 9.972656 18.460938 9.296875 19.359375 8.617188 C 19.71875 8.371094 20.078125 8.121094 20.4375 7.875 C 22.246094 6.785156 24.039062 5.671875 25.816406 4.535156 C 26 4.375 26.191406 4.222656 26.390625 4.082031 C 26.492188 4.027344 26.597656 3.976562 26.703125 3.9375 C 26.785156 3.917969 26.867188 3.929688 26.945312 3.960938 C 27.199219 4.109375 27.425781 4.296875 27.617188 4.523438 Z M 9.347656 6.46875 C 8.664062 6.542969 8 6.710938 7.355469 6.972656 C 7.984375 6.652344 8.648438 6.484375 9.347656 6.46875 Z M 6.492188 7.429688 C 6.480469 7.464844 6.457031 7.480469 6.421875 7.476562 C 6.433594 7.445312 6.457031 7.425781 6.492188 7.429688 Z M 6.371094 7.5 C 4.9375 8.441406 3.898438 9.703125 3.253906 11.292969 C 3.355469 10.632812 3.550781 10 3.839844 9.398438 C 4.089844 8.949219 4.429688 8.585938 4.859375 8.304688 C 5.367188 8.035156 5.871094 7.769531 6.371094 7.5 Z M 37.890625 35.65625 C 38.621094 35.960938 39.378906 36.152344 40.171875 36.222656 C 42.175781 36.277344 43.765625 35.496094 44.933594 33.882812 C 45.53125 32.902344 45.523438 31.925781 44.910156 30.953125 C 44.378906 30.179688 43.71875 29.535156 42.929688 29.019531 C 42.355469 28.636719 41.753906 28.289062 41.128906 27.976562 C 42.289062 26.152344 43.449219 24.328125 44.609375 22.503906 C 42.785156 20.867188 40.953125 19.234375 39.113281 17.605469 C 39.597656 17.207031 40.011719 16.742188 40.351562 16.214844 C 40.488281 15.984375 40.621094 15.75 40.757812 15.519531 C 40.777344 15.496094 40.796875 15.492188 40.820312 15.507812 C 41.070312 15.765625 41.316406 16.035156 41.550781 16.3125 C 42.191406 17.078125 42.832031 17.847656 43.472656 18.613281 C 44.09375 19.222656 44.703125 19.847656 45.296875 20.488281 C 45.734375 20.949219 46.195312 21.386719 46.675781 21.796875 C 45.640625 22.710938 44.644531 23.664062 43.6875 24.664062 C 43.238281 25.167969 42.796875 25.679688 42.367188 26.199219 C 42.179688 26.429688 42.042969 26.683594 41.957031 26.96875 C 41.898438 27.265625 41.957031 27.539062 42.125 27.785156 C 42.476562 28 42.824219 28.222656 43.171875 28.445312 C 44.007812 29.019531 44.707031 29.726562 45.269531 30.570312 C 46.054688 31.847656 46.207031 33.199219 45.726562 34.625 C 45.382812 35.554688 44.789062 36.269531 43.9375 36.773438 C 43.167969 37.253906 42.328125 37.515625 41.417969 37.554688 C 40.628906 37.539062 39.917969 37.304688 39.28125 36.847656 C 38.804688 36.460938 38.34375 36.066406 37.890625 35.65625 Z M 4.140625 24.183594 C 5.882812 26.238281 7.628906 28.296875 9.375 30.351562 C 8.703125 29.855469 8.101562 29.289062 7.5625 28.648438 C 7.128906 28.023438 6.636719 27.441406 6.085938 26.910156 C 5.558594 26.46875 5.027344 26.027344 4.5 25.589844 C 4.210938 25.308594 3.933594 25.019531 3.660156 24.722656 C 3.808594 24.53125 3.96875 24.351562 4.140625 24.183594 Z M 22.289062 34.960938 C 22.40625 34.0625 22.308594 33.191406 21.988281 32.34375 C 21.589844 31.460938 20.9375 30.847656 20.03125 30.507812 C 19.15625 30.179688 18.257812 29.917969 17.34375 29.730469 C 19.113281 29.183594 20.730469 29.476562 22.191406 30.605469 C 23.164062 31.425781 23.4375 32.4375 23.019531 33.640625 C 22.835938 34.121094 22.59375 34.558594 22.289062 34.960938 Z M 35.226562 34 C 32.03125 36.039062 28.929688 38.203125 25.914062 40.496094 C 24.984375 41.253906 24.066406 42.023438 23.152344 42.800781 C 23.074219 42.839844 23.003906 42.890625 22.9375 42.941406 C 22.910156 42.957031 22.886719 42.957031 22.863281 42.941406 C 22.730469 42.808594 22.617188 42.660156 22.527344 42.5 C 26.542969 39.488281 30.554688 36.46875 34.554688 33.4375 C 34.578125 33.421875 34.601562 33.421875 34.625 33.4375 C 34.816406 33.636719 35.019531 33.824219 35.226562 34 Z M 35.226562 34 "/>
</g>
<mask id="mask1">
  <g filter="url(#alpha)">
<rect x="0" y="0" width="50" height="50" style="fill:rgb(0%,0%,0%);fill-opacity:0.839216;stroke:none;"/>
  </g>
</mask>
<clipPath id="clip2">
  <rect width="50" height="50"/>
</clipPath>
<g id="surface9" clip-path="url(#clip2)">
<path style=" stroke:none;fill-rule:evenodd;fill:rgb(98.431373%,96.862745%,96.470588%);fill-opacity:1;" d="M 3.398438 15.160156 C 3.847656 15.523438 4.304688 15.882812 4.765625 16.238281 C 4.210938 16 3.757812 15.636719 3.398438 15.160156 Z M 3.398438 15.160156 "/>
</g>
<mask id="mask2">
  <g filter="url(#alpha)">
<rect x="0" y="0" width="50" height="50" style="fill:rgb(0%,0%,0%);fill-opacity:0.933333;stroke:none;"/>
  </g>
</mask>
<clipPath id="clip3">
  <rect width="50" height="50"/>
</clipPath>
<g id="surface12" clip-path="url(#clip3)">
<path style=" stroke:none;fill-rule:evenodd;fill:rgb(99.215686%,98.039216%,98.039216%);fill-opacity:1;" d="M 30.738281 16.742188 C 31.546875 17.148438 32.402344 17.390625 33.304688 17.476562 C 33.65625 17.503906 34.007812 17.523438 34.363281 17.535156 C 33.996094 17.550781 33.628906 17.558594 33.257812 17.558594 C 32.816406 17.5625 32.375 17.550781 31.9375 17.523438 C 31.445312 17.402344 31.046875 17.140625 30.738281 16.742188 Z M 30.738281 16.742188 "/>
</g>
<mask id="mask3">
  <g filter="url(#alpha)">
<rect x="0" y="0" width="50" height="50" style="fill:rgb(0%,0%,0%);fill-opacity:0.796078;stroke:none;"/>
  </g>
</mask>
<clipPath id="clip4">
  <rect width="50" height="50"/>
</clipPath>
<g id="surface15" clip-path="url(#clip4)">
<path style=" stroke:none;fill-rule:evenodd;fill:rgb(98.431373%,96.470588%,96.078431%);fill-opacity:1;" d="M 14.703125 30.953125 C 14.242188 31.261719 13.792969 31.589844 13.359375 31.9375 C 13.457031 31.804688 13.566406 31.679688 13.695312 31.566406 C 13.996094 31.304688 14.332031 31.101562 14.703125 30.953125 Z M 14.703125 30.953125 "/>
</g>
</defs>
<g id="surface1">
<use xlink:href="#surface6" mask="url(#mask0)"/>
<path style=" stroke:none;fill-rule:evenodd;fill:rgb(99.607843%,99.607843%,99.607843%);fill-opacity:1;" d="M 27.617188 4.523438 C 28.484375 5.433594 29.320312 6.371094 30.125 7.332031 C 30.390625 7.625 30.667969 7.910156 30.953125 8.183594 C 30.332031 8.519531 29.785156 8.945312 29.308594 9.46875 C 28.917969 9.9375 28.566406 10.433594 28.253906 10.957031 C 27.5 12.410156 27.417969 13.898438 28.011719 15.421875 C 28.472656 16.570312 29.148438 17.566406 30.039062 18.410156 C 30.664062 18.90625 31.375 19.167969 32.175781 19.203125 C 33.339844 19.261719 34.5 19.246094 35.65625 19.15625 C 36.933594 18.960938 38.0625 18.449219 39.042969 17.617188 C 39.066406 17.605469 39.089844 17.601562 39.113281 17.605469 C 40.953125 19.234375 42.785156 20.867188 44.609375 22.503906 C 43.449219 24.328125 42.289062 26.152344 41.128906 27.976562 C 41.753906 28.289062 42.355469 28.636719 42.929688 29.019531 C 43.71875 29.535156 44.378906 30.179688 44.910156 30.953125 C 45.523438 31.925781 45.53125 32.902344 44.933594 33.882812 C 43.765625 35.496094 42.175781 36.277344 40.171875 36.222656 C 39.378906 36.152344 38.621094 35.960938 37.890625 35.65625 C 37.882812 35.636719 37.867188 35.628906 37.84375 35.632812 C 37.1875 35.074219 36.527344 34.523438 35.851562 33.988281 C 35.640625 33.878906 35.429688 33.882812 35.226562 34 C 35.019531 33.824219 34.816406 33.636719 34.625 33.4375 C 34.601562 33.421875 34.578125 33.421875 34.554688 33.4375 C 30.554688 36.46875 26.542969 39.488281 22.527344 42.5 C 22.371094 42.289062 22.207031 42.078125 22.035156 41.875 C 21.847656 41.6875 21.660156 41.5 21.472656 41.3125 C 20.753906 40.695312 20.039062 40.070312 19.335938 39.4375 C 19.929688 39.136719 20.460938 38.746094 20.929688 38.273438 C 21.355469 37.78125 21.667969 37.21875 21.867188 36.59375 C 22.054688 36.058594 22.191406 35.515625 22.289062 34.960938 C 22.59375 34.558594 22.835938 34.121094 23.019531 33.640625 C 23.4375 32.4375 23.164062 31.425781 22.191406 30.605469 C 20.730469 29.476562 19.113281 29.183594 17.34375 29.730469 C 16.035156 29.535156 14.808594 29.773438 13.671875 30.4375 C 12.929688 30.90625 12.355469 31.527344 11.953125 32.296875 C 11.128906 31.738281 10.324219 31.148438 9.542969 30.53125 C 9.480469 30.476562 9.425781 30.414062 9.375 30.351562 C 7.628906 28.296875 5.882812 26.238281 4.140625 24.183594 C 4.15625 24.140625 4.175781 24.101562 4.199219 24.0625 C 4.765625 23.507812 5.335938 22.957031 5.917969 22.417969 C 7.507812 21.015625 9.101562 19.617188 10.707031 18.230469 C 11.003906 17.917969 11.207031 17.550781 11.304688 17.125 C 11.382812 16.308594 11.011719 15.90625 10.191406 15.914062 C 9.25 15.992188 8.320312 15.921875 7.40625 15.699219 C 7.179688 15.628906 6.964844 15.542969 6.757812 15.433594 C 5.917969 14.929688 5.117188 14.371094 4.355469 13.753906 C 3.949219 13.402344 3.625 12.992188 3.382812 12.519531 C 3.214844 12.121094 3.171875 11.714844 3.253906 11.292969 C 3.898438 9.703125 4.9375 8.441406 6.371094 7.5 C 6.398438 7.503906 6.414062 7.496094 6.421875 7.476562 C 6.457031 7.480469 6.480469 7.464844 6.492188 7.429688 C 6.515625 7.433594 6.53125 7.425781 6.542969 7.40625 C 6.558594 7.40625 6.566406 7.398438 6.566406 7.382812 C 6.589844 7.386719 6.605469 7.378906 6.613281 7.355469 C 6.636719 7.359375 6.652344 7.351562 6.660156 7.332031 C 6.683594 7.335938 6.699219 7.328125 6.710938 7.308594 C 6.726562 7.308594 6.734375 7.300781 6.734375 7.285156 C 6.757812 7.289062 6.773438 7.28125 6.78125 7.261719 C 6.804688 7.265625 6.820312 7.257812 6.828125 7.238281 C 6.851562 7.242188 6.867188 7.234375 6.878906 7.214844 C 6.902344 7.21875 6.917969 7.210938 6.925781 7.1875 C 6.949219 7.191406 6.964844 7.183594 6.972656 7.164062 C 6.996094 7.167969 7.011719 7.160156 7.019531 7.140625 C 7.046875 7.144531 7.0625 7.136719 7.070312 7.117188 C 7.09375 7.121094 7.109375 7.113281 7.117188 7.09375 C 7.140625 7.097656 7.15625 7.089844 7.164062 7.070312 C 7.1875 7.074219 7.203125 7.066406 7.214844 7.046875 C 7.238281 7.050781 7.253906 7.042969 7.261719 7.019531 C 7.285156 7.023438 7.300781 7.015625 7.308594 6.996094 C 7.332031 7 7.347656 6.992188 7.355469 6.972656 C 8 6.710938 8.664062 6.542969 9.347656 6.46875 C 9.578125 6.453125 9.789062 6.515625 9.972656 6.648438 C 10.164062 6.808594 10.359375 6.96875 10.550781 7.128906 C 10.996094 7.441406 11.4375 7.761719 11.871094 8.089844 C 12.730469 8.785156 13.085938 9.683594 12.9375 10.789062 C 12.96875 11.183594 13.125 11.515625 13.40625 11.785156 C 13.699219 12.011719 14.019531 12.050781 14.367188 11.90625 C 14.597656 11.796875 14.832031 11.691406 15.0625 11.582031 C 15.285156 12.183594 15.34375 12.800781 15.242188 13.429688 C 19.363281 10.457031 23.488281 7.488281 27.617188 4.523438 Z M 27.617188 4.523438 "/>
<use xlink:href="#surface9" mask="url(#mask1)"/>
<use xlink:href="#surface12" mask="url(#mask2)"/>
<use xlink:href="#surface15" mask="url(#mask3)"/>
</g>
</svg>
