<?xml version="1.0" encoding="UTF-8"?>
<svg xmlns="http://www.w3.org/2000/svg" xmlns:xlink="http://www.w3.org/1999/xlink" width="50pt" height="50pt" viewBox="0 0 50 50" version="1.1">
<defs>
<filter id="alpha" filterUnits="objectBoundingBox" x="0%" y="0%" width="100%" height="100%">
  <feColorMatrix type="matrix" in="SourceGraphic" values="0 0 0 0 1 0 0 0 0 1 0 0 0 0 1 0 0 0 1 0"/>
</filter>
<mask id="mask0">
  <g filter="url(#alpha)">
<rect x="0" y="0" width="50" height="50" style="fill:rgb(0%,0%,0%);fill-opacity:0.988235;stroke:none;"/>
  </g>
</mask>
<clipPath id="clip1">
  <rect width="50" height="50"/>
</clipPath>
<g id="surface6" clip-path="url(#clip1)">
<path style=" stroke:none;fill-rule:evenodd;fill:rgb(0%,0%,0%);fill-opacity:1;" d="M 15.398438 26.800781 C 16.152344 27.214844 16.910156 27.621094 17.679688 28.011719 C 18.050781 28.175781 18.425781 28.324219 18.808594 28.457031 C 19.554688 28.746094 20.273438 29.09375 20.96875 29.5 C 21.234375 29.628906 21.515625 29.714844 21.808594 29.765625 C 22.128906 29.9375 22.257812 30.203125 22.203125 30.570312 C 22.066406 30.988281 21.773438 31.160156 21.328125 31.085938 C 21.082031 31.039062 20.839844 30.964844 20.605469 30.867188 C 20.148438 30.636719 19.691406 30.394531 19.238281 30.148438 C 18.949219 30.019531 18.664062 29.894531 18.375 29.765625 C 18.3125 29.734375 18.25 29.71875 18.183594 29.714844 C 18.460938 30.300781 18.730469 30.886719 18.988281 31.480469 C 19.210938 31.988281 19.492188 32.460938 19.828125 32.898438 C 20.554688 33.722656 21.382812 34.421875 22.3125 34.996094 C 24.097656 36.089844 26.015625 36.832031 28.074219 37.230469 C 28.238281 36.90625 28.425781 36.601562 28.636719 36.304688 C 29.238281 35.550781 29.851562 34.800781 30.472656 34.0625 C 31.0625 33.46875 31.757812 33.292969 32.5625 33.535156 C 33.511719 33.867188 34.339844 34.390625 35.046875 35.105469 C 35.339844 35.460938 35.59375 35.84375 35.800781 36.257812 C 37.296875 35.292969 38.527344 34.0625 39.484375 32.5625 C 39.847656 31.855469 40.125 31.121094 40.328125 30.351562 C 40.480469 29.773438 40.640625 29.199219 40.804688 28.625 C 41.113281 27.425781 41.230469 26.210938 41.167969 24.976562 C 41.097656 23.28125 40.863281 21.609375 40.46875 19.960938 C 40.089844 18.460938 39.335938 17.191406 38.203125 16.15625 C 36.867188 14.980469 35.355469 14.089844 33.664062 13.488281 C 33.023438 13.257812 32.371094 13.070312 31.710938 12.925781 C 31.441406 13.554688 31.070312 14.109375 30.59375 14.59375 C 29.824219 15.304688 28.976562 15.417969 28.046875 14.929688 C 28.019531 14.914062 27.996094 14.917969 27.976562 14.941406 C 27.480469 16.203125 27.015625 17.476562 26.570312 18.757812 C 26.289062 19.65625 26.027344 20.5625 25.78125 21.472656 C 25.535156 22.378906 25.15625 23.226562 24.652344 24.015625 C 24.476562 24.257812 24.253906 24.445312 23.992188 24.578125 C 23.671875 24.660156 23.351562 24.652344 23.03125 24.554688 C 21.488281 24.046875 19.945312 23.542969 18.398438 23.042969 C 18.03125 22.914062 17.792969 22.664062 17.691406 22.289062 C 17.605469 21.828125 17.621094 21.371094 17.738281 20.917969 C 18.011719 19.976562 18.28125 19.03125 18.554688 18.085938 C 18.671875 17.699219 18.800781 17.316406 18.9375 16.933594 C 19.652344 15.246094 20.363281 13.558594 21.074219 11.871094 C 22.457031 8.328125 23.875 4.796875 25.324219 1.285156 C 25.585938 0.984375 25.910156 0.894531 26.296875 1.007812 C 26.554688 1.066406 26.808594 1.128906 27.0625 1.199219 C 27.898438 1.460938 28.730469 1.722656 29.5625 1.992188 C 30.199219 2.167969 30.835938 2.328125 31.480469 2.472656 C 32.078125 2.675781 32.289062 3.078125 32.117188 3.683594 C 32.035156 3.917969 31.949219 4.152344 31.851562 4.378906 C 31.542969 5.046875 31.246094 5.71875 30.964844 6.398438 C 30.617188 7.378906 30.285156 8.367188 29.96875 9.363281 C 31.023438 9.90625 31.664062 10.769531 31.890625 11.941406 C 34.355469 12.363281 36.59375 13.304688 38.609375 14.761719 C 40.132812 15.886719 41.21875 17.335938 41.863281 19.117188 C 42.34375 20.570312 42.648438 22.058594 42.773438 23.582031 C 42.925781 24.8125 42.964844 26.042969 42.894531 27.28125 C 42.855469 27.75 42.785156 28.214844 42.679688 28.671875 C 42.332031 29.960938 41.957031 31.242188 41.550781 32.511719 C 41.226562 33.421875 40.753906 34.234375 40.132812 34.960938 C 39.070312 36.253906 37.820312 37.324219 36.390625 38.179688 C 36.464844 38.695312 36.511719 39.214844 36.535156 39.738281 C 36.527344 40.828125 36.515625 41.914062 36.496094 43.003906 C 37.554688 42.960938 38.609375 42.941406 39.667969 42.941406 C 40.230469 42.984375 40.65625 43.246094 40.949219 43.722656 C 41.074219 43.9375 41.167969 44.160156 41.238281 44.394531 C 41.433594 45.175781 41.617188 45.960938 41.789062 46.746094 C 41.921875 47.632812 41.542969 48.117188 40.652344 48.199219 C 38.863281 48.453125 37.074219 48.644531 35.273438 48.777344 C 32 49.007812 28.730469 49.238281 25.457031 49.472656 C 21.929688 49.730469 18.398438 49.742188 14.871094 49.496094 C 14.210938 49.449219 13.554688 49.371094 12.902344 49.257812 C 12.484375 49.175781 12.144531 48.972656 11.882812 48.644531 C 11.699219 48.316406 11.683594 47.980469 11.832031 47.636719 C 11.914062 47.484375 12 47.339844 12.097656 47.203125 C 12.953125 46.101562 13.867188 45.050781 14.847656 44.046875 C 15.128906 43.78125 15.457031 43.597656 15.832031 43.496094 C 16.207031 43.414062 16.527344 43.507812 16.789062 43.78125 C 20.296875 43.527344 23.8125 43.355469 27.328125 43.265625 C 27.28125 42.121094 27.300781 40.976562 27.386719 39.835938 C 27.414062 39.59375 27.449219 39.351562 27.496094 39.113281 C 26.042969 38.800781 24.636719 38.347656 23.273438 37.757812 C 21.9375 37.15625 20.703125 36.394531 19.574219 35.476562 C 18.558594 34.632812 17.773438 33.609375 17.210938 32.417969 C 16.816406 31.5 16.40625 30.585938 15.988281 29.679688 C 15.839844 29.3125 15.757812 28.925781 15.746094 28.527344 C 14.886719 28.085938 14.035156 27.632812 13.191406 27.171875 C 12.96875 27.042969 12.753906 26.90625 12.542969 26.765625 C 12.359375 26.578125 12.300781 26.359375 12.363281 26.105469 C 12.480469 25.699219 12.746094 25.527344 13.167969 25.589844 C 13.894531 26.015625 14.640625 26.421875 15.398438 26.800781 Z M 30.402344 3.085938 C 30.6875 3.085938 30.964844 3.121094 31.242188 3.191406 C 31.40625 3.246094 31.453125 3.355469 31.386719 3.515625 C 31.046875 3.390625 30.71875 3.246094 30.402344 3.085938 Z M 30.402344 3.085938 "/>
</g>
<mask id="mask1">
  <g filter="url(#alpha)">
<rect x="0" y="0" width="50" height="50" style="fill:rgb(0%,0%,0%);fill-opacity:0.988235;stroke:none;"/>
  </g>
</mask>
<clipPath id="clip2">
  <rect width="50" height="50"/>
</clipPath>
<g id="surface9" clip-path="url(#clip2)">
<path style=" stroke:none;fill-rule:evenodd;fill:rgb(66.27451%,22.745098%,17.647059%);fill-opacity:1;" d="M 18.808594 28.457031 C 18.425781 28.324219 18.050781 28.175781 17.679688 28.011719 C 16.910156 27.621094 16.152344 27.214844 15.398438 26.800781 C 15.621094 26.015625 16.132812 25.539062 16.933594 25.371094 C 18.046875 25.273438 18.777344 25.75 19.132812 26.800781 C 19.257812 27.402344 19.148438 27.953125 18.808594 28.457031 Z M 18.808594 28.457031 "/>
</g>
</defs>
<g id="surface1">
<use xlink:href="#surface6" mask="url(#mask0)"/>
<path style=" stroke:none;fill-rule:evenodd;fill:rgb(72.941176%,71.372549%,69.411765%);fill-opacity:1;" d="M 30.402344 3.085938 C 30.71875 3.246094 31.046875 3.390625 31.386719 3.515625 C 30.695312 4.695312 30.105469 5.929688 29.621094 7.214844 C 29.359375 7.90625 29.101562 8.601562 28.851562 9.300781 C 28.46875 9.429688 28.132812 9.636719 27.84375 9.925781 C 27.328125 10.542969 26.992188 11.246094 26.835938 12.039062 C 26.769531 12.703125 26.882812 13.335938 27.171875 13.933594 C 27.1875 13.980469 27.1875 14.03125 27.171875 14.078125 C 26.621094 15.679688 26.042969 17.273438 25.445312 18.855469 C 25.152344 19.855469 24.859375 20.855469 24.554688 21.855469 C 24.417969 22.230469 24.285156 22.609375 24.148438 22.984375 C 24.078125 23.164062 23.992188 23.332031 23.882812 23.488281 C 23.824219 23.558594 23.753906 23.617188 23.679688 23.667969 C 23.609375 23.683594 23.535156 23.683594 23.464844 23.667969 C 21.886719 23.175781 20.308594 22.679688 18.734375 22.179688 C 18.683594 22.160156 18.648438 22.125 18.628906 22.070312 C 18.601562 21.757812 18.617188 21.445312 18.675781 21.136719 C 19.109375 19.785156 19.535156 18.433594 19.945312 17.078125 C 20.484375 15.664062 21.019531 14.246094 21.554688 12.828125 C 22.734375 9.355469 24.027344 5.929688 25.433594 2.542969 C 25.441406 2.53125 25.449219 2.519531 25.457031 2.507812 C 25.605469 2.628906 25.777344 2.683594 25.972656 2.675781 C 26.835938 2.5625 27.695312 2.589844 28.550781 2.761719 C 29.164062 2.902344 29.777344 3.011719 30.402344 3.085938 Z M 30.402344 3.085938 "/>
<path style=" stroke:none;fill-rule:evenodd;fill:rgb(66.27451%,22.745098%,17.647059%);fill-opacity:1;" d="M 29.105469 10.214844 C 29.375 10.191406 29.621094 10.25 29.847656 10.394531 C 30.34375 10.695312 30.695312 11.113281 30.90625 11.652344 C 30.816406 11.707031 30.730469 11.757812 30.640625 11.808594 C 30.609375 11.84375 30.582031 11.878906 30.558594 11.917969 C 30.398438 12.242188 30.246094 12.570312 30.101562 12.902344 C 29.921875 13.289062 29.667969 13.621094 29.34375 13.898438 C 28.90625 14.089844 28.53125 14 28.230469 13.621094 C 27.875 13.054688 27.789062 12.445312 27.964844 11.796875 C 28.105469 11.265625 28.363281 10.804688 28.746094 10.417969 C 28.859375 10.335938 28.980469 10.269531 29.105469 10.214844 Z M 29.105469 10.214844 "/>
<use xlink:href="#surface9" mask="url(#mask1)"/>
<path style=" stroke:none;fill-rule:evenodd;fill:rgb(66.27451%,22.745098%,17.647059%);fill-opacity:1;" d="M 28.960938 44.5625 C 28.886719 44.5625 28.816406 44.5625 28.746094 44.5625 C 28.75 44.515625 28.742188 44.476562 28.71875 44.441406 C 28.695312 43.484375 28.660156 42.523438 28.613281 41.5625 C 28.550781 40.53125 28.648438 39.515625 28.902344 38.515625 C 29.101562 37.851562 29.40625 37.246094 29.8125 36.691406 C 30.285156 36.019531 30.800781 35.382812 31.359375 34.78125 C 31.597656 34.605469 31.863281 34.539062 32.152344 34.589844 C 32.335938 34.628906 32.511719 34.6875 32.679688 34.757812 C 33.378906 35.074219 33.992188 35.507812 34.515625 36.066406 C 34.796875 36.429688 35.011719 36.828125 35.164062 37.265625 C 35.515625 38.308594 35.691406 39.382812 35.695312 40.484375 C 35.703125 41.1875 35.710938 41.890625 35.71875 42.59375 C 35.785156 43.144531 35.820312 43.695312 35.824219 44.25 C 33.535156 44.328125 31.246094 44.433594 28.960938 44.5625 Z M 28.960938 44.5625 "/>
<path style=" stroke:none;fill-rule:evenodd;fill:rgb(32.54902%,11.372549%,8.627451%);fill-opacity:1;" d="M 28.71875 44.441406 C 28.742188 44.476562 28.75 44.515625 28.746094 44.5625 C 28.816406 44.5625 28.886719 44.5625 28.960938 44.5625 C 28.886719 44.585938 28.804688 44.59375 28.71875 44.585938 C 28.71875 44.539062 28.71875 44.492188 28.71875 44.441406 Z M 28.71875 44.441406 "/>
<path style=" stroke:none;fill-rule:evenodd;fill:rgb(72.941176%,71.372549%,69.411765%);fill-opacity:1;" d="M 38.25 44.539062 C 38.617188 44.535156 38.984375 44.539062 39.355469 44.550781 C 39.433594 44.554688 39.507812 44.566406 39.582031 44.585938 C 39.632812 44.703125 39.671875 44.824219 39.703125 44.945312 C 39.753906 45.492188 39.859375 46.023438 40.027344 46.542969 C 39.996094 46.550781 39.960938 46.558594 39.929688 46.566406 C 37.714844 46.769531 35.5 46.953125 33.28125 47.121094 C 30.320312 47.320312 27.363281 47.503906 24.398438 47.671875 C 21.90625 47.824219 19.410156 47.863281 16.910156 47.792969 C 16.253906 47.753906 15.597656 47.714844 14.941406 47.671875 C 14.679688 47.636719 14.414062 47.605469 14.148438 47.574219 C 14.800781 46.769531 15.515625 46.019531 16.285156 45.320312 C 16.574219 45.273438 16.78125 45.121094 16.910156 44.863281 C 17.316406 44.816406 17.726562 44.785156 18.136719 44.765625 C 18.757812 44.742188 19.382812 44.71875 20.007812 44.695312 C 22.464844 44.667969 24.917969 44.648438 27.375 44.636719 C 27.371094 44.914062 27.375 45.195312 27.386719 45.476562 C 27.453125 45.714844 27.601562 45.878906 27.832031 45.96875 C 30.554688 45.980469 33.273438 45.949219 35.992188 45.871094 C 36.355469 45.796875 36.578125 45.574219 36.652344 45.210938 C 36.695312 44.984375 36.660156 44.773438 36.546875 44.574219 C 37.117188 44.570312 37.6875 44.558594 38.25 44.539062 Z M 38.25 44.539062 "/>
</g>
</svg>
